<?xml version="1.0" encoding="UTF-8"?>
<svg xmlns="http://www.w3.org/2000/svg" xmlns:xlink="http://www.w3.org/1999/xlink" width="2000pt" height="2000pt" viewBox="0 0 2000 2000" version="1.1">
<g id="surface1">
<path style=" stroke:none;fill-rule:nonzero;fill:rgb(0%,0%,0%);fill-opacity:1;" d="M 521 417 C 494 409.058594 463.523438 382 433 391 C 445.484375 400.339844 463 405.796875 477 413.308594 C 511.792969 432.167969 548.496094 452.085938 577 480 C 537.367188 463.496094 501.914063 449 458 449 L 458 451 C 470.929688 451.660156 484.195313 458.261719 496 463.140625 C 519.484375 473 543 483.027344 564 497.585938 C 573 504 587 510.574219 592 521 C 553.480469 500.730469 516.691406 498 474 498 L 474 500 C 499 501.078125 526 512.71875 548 524.296875 C 556 528.589844 564 533.101563 572 537.71875 C 574.863281 539.382813 578.617188 543 582 543.121094 C 586 543.421875 590.8125 538.140625 594 536 C 603.503906 529.621094 613.183594 523.339844 623 517.449219 C 657.214844 497 693.652344 481.1875 730 465 C 721.609375 453 709.667969 443.832031 699 434 C 678 414.503906 656.472656 396.109375 634 378.574219 C 556.753906 318.296875 474.191406 264.699219 386 221.742188 C 357.238281 207.734375 328.402344 193.507813 298 183.332031 C 286.324219 179.425781 271.363281 173 260 180.800781 C 247.464844 189.570313 244.664063 207.214844 240.703125 221 C 230.582031 256.222656 225 292.648438 220.949219 329 C 206.246094 460 217 596.746094 255.976563 723 C 265.21875 753.0625 275.9375 783.691406 289.753906 812 C 293.65625 820 298 836.058594 305.566406 841.246094 C 308.367188 843.1875 310.433594 839 311.570313 837 C 315.589844 830.175781 318.804688 823 322.71875 816 C 334.4375 795.386719 345.789063 774.730469 359 755 C 364 747.449219 374.585938 737.421875 374.941406 728 C 376 698.671875 370.289063 668.65625 371 639 C 372.613281 573.679688 381.617188 506.007813 399.578125 443 C 405.832031 421.066406 412.488281 400 421.574219 379 C 423.71875 374.054688 427 360.066406 433 358.664063 C 439 357.242188 452 368.140625 457 371.34375 C 478.503906 385.238281 502.769531 399 521 417 M 1585 499 L 1585 498 C 1557.738281 498 1531.683594 497.375 1505 504.746094 C 1490.929688 508.632813 1478.648438 516.679688 1465 521 C 1473.9375 508.316406 1489.722656 498.632813 1503 491 C 1534.289063 473.015625 1567 461.742188 1601 450 L 1601 449 C 1559 449 1520.539063 461.472656 1483 479 C 1489.707031 470.691406 1499.59375 464.488281 1508 458 C 1534.234375 437.714844 1564.589844 422.203125 1594 407.109375 C 1604.441406 401.75 1616.25 397.484375 1626 391 C 1619.453125 389.066406 1612.621094 391 1606 392 C 1581.90625 395.265625 1563 407.640625 1541 416 C 1555 396.441406 1584.203125 383.527344 1604 370.355469 C 1608.179688 367.574219 1621.570313 356 1626.609375 359 C 1631 361.421875 1633.59375 370.585938 1635.753906 375 C 1643.996094 392 1649.347656 410.085938 1654.71875 428 C 1675.835938 498.382813 1687.996094 573.523438 1688 647 C 1688 666.410156 1686.808594 685.640625 1685.960938 705 C 1685.59375 713.378906 1682.425781 722.648438 1684.304688 731 C 1686.566406 741.078125 1698 752.46875 1703.804688 761 C 1715.703125 778.5 1725.816406 797.316406 1735.703125 816 C 1739.246094 822.703125 1742.796875 829.394531 1746.527344 836 C 1747.570313 838 1749 841.546875 1751.84375 840.652344 C 1758.28125 838.585938 1764.390625 819.800781 1767.242188 814 C 1781.464844 785.074219 1792.386719 754.703125 1802 724 C 1830.953125 632 1843 535.265625 1843 439 C 1843 400.519531 1842.882813 361.132813 1837.421875 323 C 1832 285.628906 1827 248.117188 1815.503906 212 C 1811.234375 198.628906 1806.675781 179.261719 1790 177.183594 C 1778.597656 175.765625 1766.429688 182 1756 185.773438 C 1733 194.285156 1711 204.296875 1689 214.703125 C 1595 259.007813 1508 315.378906 1426 378.652344 C 1401.984375 397.15625 1379.851563 417.574219 1357 437.425781 C 1350.425781 443.136719 1344.398438 449.5 1338.574219 456 C 1336.890625 457.828125 1333.316406 460.226563 1332.921875 463 C 1332.320313 467 1343 470.683594 1346 472 C 1361.820313 479.136719 1377.464844 486.480469 1393 494.246094 C 1413 504.246094 1432.382813 515 1451 527.332031 C 1456.726563 531.148438 1469.199219 542.363281 1476 542.371094 C 1479.6875 542.378906 1483.910156 538.363281 1487 536.578125 C 1495.203125 532 1503.527344 527.484375 1512 523.246094 C 1535.847656 511.324219 1560 507 1585 499 M 1024 262.652344 C 1012.371094 266.34375 1016 283.613281 1016 293 C 1016 324.183594 1012.957031 356 1015 387 C 1015.601563 394.496094 1020.289063 418.035156 1012.722656 422.683594 C 1008.925781 425.011719 1003.230469 424 999 424.039063 C 994.480469 424.238281 986.578125 427 982.5625 424 C 978.984375 421.320313 979 412.089844 978.199219 408 C 975 392.375 972.859375 376.597656 969.664063 361 C 967.96875 352.710938 967.308594 337 955 338.433594 C 938.613281 340.5625 947.648438 365.226563 949.664063 375 C 952.203125 387.3125 955.335938 399.582031 957.273438 412 C 957.847656 415.683594 960.441406 422.058594 957.972656 425.4375 C 954 430.800781 937 430.390625 931 431.15625 C 925.480469 432 916.625 435.285156 911.226563 433.308594 C 906.554688 431.59375 905 419.316406 903.859375 415 C 898.480469 396.027344 893.914063 376.761719 887.835938 358 C 885.3125 350.210938 882.558594 335.78125 871 339 C 861 341.46875 862 351.230469 864.296875 359 C 869.574219 378.078125 876 397 881 416 C 882.496094 421.257813 889.167969 436 882.851563 439.347656 C 875.695313 443.199219 864.90625 443.675781 857 445.5 C 842.175781 449 827.523438 453.511719 813 458.023438 C 808.394531 459.453125 794.746094 465.792969 790.5 463.070313 C 785 459.566406 781.816406 443.039063 779.398438 437 C 770.34375 414.363281 760 392.449219 748.539063 371 C 736.4375 348.621094 722.699219 327.320313 708.855469 306 C 704.417969 299.164063 696.886719 287.285156 687 292.457031 C 669.96875 301.429688 694 326.722656 699.796875 336 C 719.617188 368.628906 735 402.195313 750.539063 437 C 754.234375 445.359375 757.648438 454.203125 760 463 C 761 466.105469 763 470.640625 761 473.699219 C 756.9375 480.179688 738 484.691406 731 487.601563 C 707 497.367188 683.9375 509.058594 661 521 C 592.484375 556.113281 525.753906 603.816406 471 658.003906 C 398.953125 729.308594 343 812 305.449219 906 C 293.410156 936.09375 285.386719 967.59375 277.746094 999 C 275 1010 276.289063 1030.597656 269.972656 1039.667969 C 266.796875 1044.226563 254.546875 1039.503906 250 1039.074219 C 230.269531 1037.207031 210.769531 1033.019531 191 1031.171875 C 183.269531 1030.445313 174.417969 1033 173.804688 1042 C 173.3125 1049.316406 179.480469 1053.222656 186 1054 C 206 1056.070313 226 1058.789063 246 1062.25 C 251.671875 1063.234375 266 1064 267.1875 1071 C 269.585938 1085.519531 266.609375 1104.144531 265.960938 1119 C 265.808594 1122.445313 266.179688 1131.652344 262.683594 1133.398438 C 257.53125 1136 249.605469 1134.625 244 1135.429688 C 225.390625 1138.09375 206.609375 1139.691406 188 1142.574219 C 178.996094 1144 163.878906 1146 167.433594 1159 C 169.828125 1168 178.921875 1167 186 1166 C 204.984375 1163.367188 223.949219 1161.203125 243 1159.164063 C 247.777344 1158.652344 263.46875 1155 265.871094 1160.722656 C 268.339844 1166.699219 267.480469 1175.585938 268 1182 C 269.875 1198 270.835938 1214.152344 273.613281 1230 C 274.566406 1235.421875 279 1248.300781 273.835938 1252.144531 C 268.285156 1256.257813 258.554688 1257 252 1258.710938 C 234.925781 1263.5625 217.640625 1268.203125 201 1274.425781 C 192.90625 1277.449219 177.40625 1281 180.691406 1293 C 183 1302.117188 192.828125 1301.519531 200 1299.410156 C 220 1293.488281 239.664063 1286 260 1280.628906 C 264.78125 1279.382813 279.308594 1272.664063 282.5 1278.1875 C 289.890625 1291 292.222656 1310.773438 296.585938 1325 C 297.816406 1329.015625 302.367188 1336.578125 298.527344 1340.160156 C 293 1345.207031 281.839844 1348.03125 275 1350.800781 C 261.371094 1356.316406 248.246094 1363 235 1369.222656 C 227 1373.015625 214.75 1378 217.421875 1389 C 221 1404.617188 238.664063 1394 247 1389.753906 C 260.898438 1382.804688 274.835938 1376.074219 289 1369.695313 C 293.804688 1367.53125 302.496094 1362.191406 307.894531 1363.121094 C 313.492188 1364.085938 321.28125 1383.691406 321.726563 1389 C 322.214844 1394.691406 311 1398.636719 307 1400.753906 C 290.6875 1409.105469 273.566406 1419 259 1430.15625 C 253 1434.667969 250.503906 1443.738281 257.226563 1449.144531 C 264.5 1455 272.632813 1448.695313 279 1444.679688 C 291.796875 1436.617188 304.953125 1429.175781 318 1421.550781 C 321.53125 1419.488281 328.578125 1413.445313 332.894531 1414.527344 C 337 1415.582031 339.894531 1423.554688 341.769531 1427 C 347 1436.714844 353.203125 1445.808594 359.332031 1455 C 361.242188 1458 363.589844 1463.238281 367.183594 1464.265625 C 372.328125 1465.738281 383.660156 1459.421875 389 1458.015625 C 401.835938 1454.628906 417.765625 1453 431 1454.171875 C 444.699219 1455.472656 457.90625 1457.039063 471 1461.699219 C 479.425781 1464.695313 487.46875 1470 496 1472.363281 C 509.359375 1476.15625 524.191406 1474.644531 538 1479 C 575.984375 1490.554688 610.847656 1518.371094 631.808594 1552 C 640.304688 1565.636719 647.339844 1579.613281 652 1595 C 653.617188 1599.832031 656.421875 1605.78125 655.929688 1611 C 655.542969 1615 651.328125 1615.488281 648 1615.828125 C 639.804688 1616.664063 631.234375 1616.015625 623 1616 C 620 1616 615.921875 1616.515625 614 1613.683594 C 610.78125 1608.820313 610.691406 1598 608.804688 1592 C 604.238281 1577.675781 597 1564.101563 586.910156 1553 C 571.429688 1536.234375 551.292969 1523.722656 528 1522.089844 C 518.96875 1521.457031 507.601563 1525.777344 499 1523.804688 C 493.65625 1522.546875 488 1513 484 1509.09375 C 475.636719 1501.402344 464.667969 1495.507813 454 1491.699219 C 427.679688 1482.300781 395.332031 1484 370 1495.78125 C 360.339844 1500.308594 349.710938 1512 340 1514.515625 C 334.230469 1516.023438 324 1510.832031 318 1510.175781 C 303 1508.570313 287.472656 1511.734375 274 1518.257813 C 249.511719 1530.113281 231.503906 1553 221.746094 1578 C 218.652344 1586 216 1594.589844 214.753906 1603 C 214 1606.8125 214.753906 1612.628906 211.566406 1615.398438 C 208.691406 1618 203.511719 1617 200 1617 L 170 1617 C 166.738281 1617 157.648438 1615.34375 156.316406 1619.316406 C 155.363281 1622.167969 156 1626.03125 156 1629 C 156 1632.113281 154.636719 1639.582031 157 1642 C 162.96875 1648 189.90625 1636.679688 191.851563 1648.058594 C 193.300781 1656.535156 192.667969 1665.433594 193 1674 C 193 1677 194.636719 1681.050781 192.382813 1683.398438 C 188 1688 171.945313 1686 166 1686.003906 C 163.921875 1686.042969 158.273438 1686.117188 158.921875 1689.625 C 159.570313 1693.132813 167.574219 1692 170 1692 C 178.890625 1692 196.699219 1688.003906 197.5 1701 C 197.808594 1706 191.339844 1705 188 1705 C 182.359375 1705.003906 157.246094 1702 156 1708.113281 C 153.269531 1724.339844 156 1743.5 156 1760 C 156 1764.414063 154.339844 1774 157.652344 1777.398438 C 161.785156 1781.695313 177.351563 1779 183 1779 L 231 1779 C 238 1779 247 1777.574219 254 1779.316406 C 261 1781.089844 266.789063 1790.117188 272 1794.828125 C 282.746094 1804.550781 294.503906 1812.691406 307 1820 C 348.699219 1844.335938 398.710938 1850.667969 446 1844 C 476 1839.554688 506 1827.5625 531 1810.277344 C 540.640625 1803.574219 549.21875 1796.027344 558 1788.285156 C 561.757813 1785 565.824219 1780 571 1779.148438 C 599.824219 1774.664063 632.792969 1779 662 1779 L 1434 1779 C 1446.945313 1779 1467.976563 1775 1480 1779.578125 C 1492.261719 1784.335938 1503.992188 1800.71875 1515 1808.574219 C 1536.921875 1824.210938 1562.777344 1835.492188 1589 1841.5 C 1640.40625 1853.28125 1697.265625 1845.242188 1743 1819.148438 C 1755.8125 1812 1767.796875 1803.171875 1779 1793.570313 C 1784 1789.242188 1789.328125 1781 1796 1779.316406 C 1803.242188 1777.503906 1812.542969 1779 1820 1779 L 1871 1779 C 1877.546875 1779 1891.71875 1781.714844 1897.398438 1778.398438 C 1900.703125 1776.464844 1899 1766.304688 1899 1763 L 1899 1720 C 1899 1716.824219 1900.601563 1707.476563 1897.398438 1705.601563 C 1890.964844 1702 1874.445313 1705 1867 1705 C 1863.453125 1705 1856.601563 1706.269531 1857 1701 C 1858.496094 1688 1874.347656 1692 1884 1692 C 1886.488281 1692 1896.363281 1693.148438 1896.363281 1689 C 1896.363281 1685.476563 1890 1686.011719 1888 1686 C 1881.660156 1686 1866.773438 1688.066406 1861.601563 1684 C 1859.25 1682.109375 1860 1677.617188 1860 1675 C 1859.996094 1666.644531 1858.808594 1657.269531 1860 1649.019531 C 1861.964844 1638 1889.96875 1646.734375 1897.398438 1642.398438 C 1900.941406 1640.324219 1899.507813 1624 1898.851563 1620.109375 C 1897.753906 1614 1889.324219 1617 1885 1617 C 1874.679688 1617.238281 1864.324219 1617 1854 1617 C 1850.507813 1617 1844.515625 1618.117188 1841.515625 1616 C 1838.355469 1613.71875 1838.660156 1607.449219 1838 1604 C 1836.515625 1594.742188 1833.523438 1585.796875 1830.304688 1577 C 1821.71875 1553.53125 1804.382813 1531.003906 1782 1519.363281 C 1769.5 1513 1754 1508.757813 1740 1510.171875 C 1732.371094 1511 1719 1517.199219 1712 1515.292969 C 1704.949219 1513.386719 1698.339844 1505 1692 1501.144531 C 1678.378906 1493.042969 1662.800781 1487.699219 1647 1486.171875 C 1623.203125 1484 1596 1488.261719 1576 1501.75 C 1567.453125 1507.484375 1560.695313 1518.417969 1551.960938 1523 C 1546 1526 1537.234375 1522.097656 1531 1522.019531 C 1520 1522 1508 1524.574219 1498 1529 C 1472.71875 1539.699219 1454.375 1562 1444 1587 C 1440.792969 1594.769531 1441 1607 1436.683594 1613.683594 C 1433.167969 1619.074219 1412.945313 1616.105469 1407 1616 C 1403.878906 1616 1400.386719 1615.808594 1400 1612 C 1398.949219 1594.832031 1412.648438 1571.59375 1421.667969 1558 C 1444.535156 1523.53125 1475.507813 1495.257813 1515 1481.179688 C 1529.179688 1476.128906 1544 1477.101563 1558 1472.777344 C 1577.195313 1466.804688 1593.191406 1456.523438 1614 1455.089844 C 1631.222656 1454 1649.257813 1454.34375 1666 1458.628906 C 1671.890625 1460.136719 1685.183594 1467.273438 1690.824219 1464.800781 C 1694.46875 1463.203125 1696.933594 1458.097656 1699 1455 C 1705.496094 1446.074219 1710.917969 1436.394531 1716.550781 1427 C 1718.390625 1424 1720.789063 1416.714844 1724.390625 1415.417969 C 1728.457031 1414 1736.429688 1420.175781 1740 1422 C 1754.929688 1429.339844 1768.679688 1439.082031 1783 1447.546875 C 1790.621094 1452.054688 1802.503906 1454 1804.5625 1442 C 1806.210938 1432.445313 1793.414063 1426.609375 1787 1422.332031 C 1774.734375 1414.15625 1761.785156 1407.800781 1749 1400.574219 C 1745.535156 1398.617188 1737.824219 1396 1736.558594 1392 C 1734.925781 1386.542969 1744.386719 1369.601563 1747.726563 1365.242188 C 1751.425781 1360.410156 1763.546875 1368.011719 1768 1369.800781 C 1787 1377.476563 1804.875 1388.597656 1824 1396.074219 C 1831.320313 1399 1840.167969 1396.160156 1840.613281 1387 C 1841 1376.785156 1830.410156 1372.785156 1823 1369 C 1808.277344 1361 1792.34375 1355.261719 1777 1348.773438 C 1772.246094 1346.765625 1761.960938 1344.40625 1758.777344 1340.300781 C 1756 1337 1760.765625 1328.628906 1761.882813 1325 C 1766 1311.402344 1768 1291.230469 1775.429688 1279.238281 C 1778.617188 1274.078125 1794.230469 1280.503906 1799 1281.730469 C 1817.878906 1286.597656 1836.460938 1292.652344 1855 1298.671875 C 1861.925781 1301 1871.378906 1303.277344 1875.34375 1295 C 1880.9375 1283.101563 1865.335938 1277.476563 1857 1274.667969 C 1839.1875 1268.664063 1821 1263.722656 1803 1258.707031 C 1797.59375 1257.210938 1786.496094 1256.683594 1782.605469 1252.4375 C 1778.746094 1248.21875 1783.390625 1235.054688 1784.398438 1230 C 1787.632813 1213.816406 1788.785156 1197.347656 1790.714844 1181 C 1791.445313 1174.789063 1789.960938 1167.003906 1792.597656 1161.148438 C 1795.214844 1155.351563 1809.929688 1159.117188 1815 1159.714844 C 1834.976563 1162.070313 1855 1164 1875 1166.574219 C 1881.777344 1167.496094 1889.292969 1166 1890.707031 1158 C 1892.941406 1145.40625 1877.535156 1144 1869 1142.566406 C 1851.410156 1139.613281 1833.625 1138.414063 1816 1136 C 1810.183594 1135.203125 1800.699219 1136.550781 1795.574219 1133.585938 C 1791.335938 1131.136719 1793 1122.082031 1793 1118 C 1793 1103 1788.785156 1085.730469 1791 1071.015625 C 1792.367188 1063.421875 1804.941406 1063.191406 1811 1062 C 1830.203125 1058.222656 1849.636719 1056.273438 1869 1053.71875 C 1876 1052.777344 1883.941406 1049.777344 1883.226563 1041 C 1882.441406 1031.382813 1872.429688 1030.714844 1865 1031.039063 C 1846.269531 1032 1827.613281 1037 1809 1039.050781 C 1804.660156 1039.546875 1791.28125 1044.253906 1788.515625 1039.667969 C 1786.191406 1035.816406 1786.363281 1029.367188 1785.574219 1025 C 1783.882813 1015.621094 1781.800781 1006.3125 1779.789063 997 C 1773.839844 969.441406 1766.292969 941.285156 1755.996094 915 C 1717.183594 816 1660 729.578125 1584 655.015625 C 1533.679688 605.691406 1473.320313 561 1411 527.78125 C 1386.613281 515 1362.378906 502 1337 491.050781 C 1326.910156 486.703125 1307.949219 482.3125 1300.40625 474.363281 C 1297.683594 471.488281 1299.625 467.242188 1300.589844 464 C 1303 455.574219 1306 447.316406 1309 439 C 1321.613281 402.019531 1340.925781 367 1361.574219 334 C 1366.917969 325.46875 1392 297.652344 1371.984375 291.515625 C 1358.546875 287.394531 1348.890625 309.074219 1343 318 C 1321 351.105469 1300.273438 386.320313 1285 423 C 1280.914063 433 1277.191406 442.816406 1274 453 C 1272.953125 456.449219 1272.410156 462.769531 1267.890625 463.242188 C 1260.335938 464.03125 1250 458.613281 1243 456.34375 C 1227.265625 451.324219 1211 447.597656 1195 443.742188 C 1190.589844 442.683594 1174.28125 441.773438 1172.929688 436.695313 C 1171.414063 431.027344 1176.230469 420.566406 1177.71875 415 C 1182.460938 397.253906 1187.191406 379.484375 1192.835938 362 C 1195.578125 353.507813 1199.492188 338.289063 1186 336.71875 C 1176.898438 335.65625 1173.378906 346.210938 1171.28125 353 C 1165 373 1160.222656 393 1154.707031 413 C 1153.394531 417.757813 1153.210938 431.4375 1147.773438 433.226563 C 1142.289063 435.035156 1133.523438 431.832031 1128 431 C 1121.535156 430 1105.277344 431.007813 1100.617188 426.257813 C 1097.867188 423.453125 1100 415.488281 1100.589844 412 C 1102.734375 398.265625 1105.695313 384.65625 1108.261719 371 C 1110 361.734375 1118 338.496094 1101 338.371094 C 1087.976563 338.28125 1086.832031 361.757813 1085.925781 371 C 1084.625 384.226563 1081.292969 398 1078.664063 411 C 1077.808594 415.261719 1078.265625 421.507813 1073.785156 424 C 1068.355469 427 1052.339844 424 1046.226563 423 C 1042.175781 422.300781 1043 417.089844 1043 414 L 1043 287 C 1043 274.796875 1041.828125 257 1024 262.652344 M 1492 553 L 1492 554 C 1497.429688 557.597656 1504.503906 565.3125 1511 566.242188 C 1518.941406 567.378906 1533 559.429688 1541 557.023438 C 1558.675781 551.617188 1579.515625 548.050781 1598 548 L 1598 546 C 1565 542 1522.238281 535.789063 1492 553 M 459 547 C 473 553.039063 493.742188 552 509 555.210938 C 520.792969 557.722656 533.363281 565.234375 545 566.503906 C 549.277344 567 563.285156 559.457031 564 555 C 565 549 543.941406 545.566406 540 545 C 513.3125 541.175781 485.527344 542.003906 459 547 M 1296 571.449219 C 1308.480469 570.128906 1311 590.820313 1298 592 C 1284.933594 593 1283.398438 572.78125 1296 571.449219 M 634 604.320313 C 654.601563 601.636719 658.707031 635.296875 638 637.8125 C 616 640.476563 612.332031 607.140625 634 604.320313 M 1290 639.4375 C 1302 638.011719 1305.207031 657.28125 1293 659.242188 C 1281.292969 661.121094 1277.644531 641 1290 639.4375 M 1197 652.394531 C 1217 647.796875 1223.640625 678.023438 1204 682.464844 C 1185.4375 686.660156 1177.621094 657 1197 652.394531 M 842 659.34375 C 862 655.324219 868.867188 684.0625 849 688.300781 C 831 692.140625 823.78125 663 842 659.34375 M 1029 665.4375 C 1040.464844 662.441406 1044.542969 680.714844 1032.996094 683.550781 C 1021.636719 686.339844 1018 668.3125 1029 665.4375 M 653 731 L 653 732 C 555.828125 736.175781 464.894531 803.707031 409.746094 880 C 396 899 383.449219 919.09375 373.257813 940 C 368.570313 949.621094 365.824219 966 358 973 C 365.507813 941.832031 372.789063 911 387.246094 882 C 426.992188 802.511719 500.53125 743.445313 590 734 C 609.589844 731.730469 633.5625 726.371094 653 731 M 1699 971 L 1698 971 C 1693.578125 941.058594 1669.265625 909.007813 1652 885 C 1597.203125 808 1504 734.042969 1405 732 C 1410.871094 729 1418.53125 730 1425 730 C 1443 730.027344 1462 732.355469 1480 735.574219 C 1566.726563 751.21875 1633.308594 806.566406 1672.5 885 C 1682.214844 904.441406 1688.484375 925.175781 1694.421875 946 C 1696.539063 953.4375 1700.925781 963.351563 1699 971 M 410 970 C 390.753906 1026.535156 372.914063 1079.054688 377 1140 C 383.28125 1230.402344 431.300781 1315.535156 506 1367.023438 C 540.457031 1390.773438 582.683594 1408 625 1408 C 614 1403.359375 601.375 1401.640625 590 1398 C 575.257813 1393.214844 560.71875 1386.113281 547 1379 C 478.558594 1343.355469 422.847656 1279.253906 402.582031 1204 C 389.25 1154.484375 386.929688 1102.148438 398.5 1052 C 424.324219 940.09375 518.578125 844.132813 636 836.089844 C 673 833.554688 710.628906 838 746 849.023438 C 781.507813 860.183594 814.5625 880.183594 843 904 C 870.703125 927.042969 893.203125 956.378906 910.308594 988 C 926.367188 1017.6875 936.351563 1048.726563 941.589844 1082 C 958.609375 1190.121094 911.421875 1304 820 1365.480469 C 756.980469 1408 676.734375 1424.097656 602 1411.566406 C 484.226563 1391.8125 381 1311.074219 355.511719 1191 C 350.28125 1166.488281 349.871094 1142 350.960938 1117 C 352.730469 1076.683594 366.222656 1039 386 1004 C 391.878906 994 399.480469 975.34375 410 970 M 1436 1410 C 1448.417969 1406.328125 1462.285156 1406.195313 1475 1403 C 1502.816406 1395.519531 1528.847656 1383.476563 1553 1368 C 1646.671875 1307.535156 1692.308594 1193.246094 1681.828125 1085 C 1679 1057.3125 1671.957031 1029.300781 1662.996094 1003 C 1659.441406 992.558594 1653.898438 982.597656 1651 972 C 1661 980.777344 1668.550781 996.367188 1674.921875 1008 C 1693.3125 1041.574219 1705.402344 1076.667969 1708 1115 C 1710 1142.359375 1709.1875 1170.210938 1702.523438 1197 C 1665.914063 1344.167969 1517.714844 1428 1372 1413.828125 C 1336.558594 1410.386719 1300.257813 1399 1269 1382.078125 C 1237.863281 1365.234375 1209.742188 1343.644531 1186.285156 1317 C 1122.644531 1244.710938 1098.894531 1139.785156 1125.558594 1047 C 1138.21875 1003 1161.546875 963.265625 1191.714844 929 C 1215.628906 902 1245.390625 879.660156 1278 864.023438 C 1309.921875 848.71875 1344.570313 838.515625 1380 836.089844 C 1419 833.417969 1459.507813 837.746094 1496 852.203125 C 1654.746094 915.089844 1716.9375 1126.761719 1629.1875 1270 C 1599 1319.109375 1558 1356.542969 1507 1382.742188 C 1492.679688 1390.089844 1477.382813 1396.339844 1462 1401.117188 C 1454.355469 1403.488281 1441.777344 1404.519531 1436 1410 M 639 879.425781 C 605.3125 884.011719 574.828125 893.667969 546 912.054688 C 454.261719 970.570313 417.441406 1093.371094 455.425781 1194 C 471.597656 1237 500.390625 1272 537 1299 C 558.1875 1314.472656 583.472656 1325.546875 609 1331.769531 C 638 1339 668.320313 1340.074219 698 1335.699219 C 741.941406 1329.226563 785.402344 1309.265625 818 1279 C 908.167969 1195 917.894531 1043.386719 832.910156 952 C 804 921.042969 765.398438 899.441406 725 888 C 698 880.144531 667 875.613281 639 879.425781 M 1381 879.425781 C 1334.609375 885.589844 1290 899 1253 928.804688 C 1230.71875 946.742188 1212.75 968.226563 1198.578125 993 C 1137.65625 1099.507813 1174 1243.554688 1280 1306.546875 C 1325.410156 1333.5625 1379 1342.714844 1431 1335.710938 C 1460.472656 1331.742188 1490 1320.796875 1515 1304.65625 C 1590.296875 1256 1628.410156 1167.253906 1617.714844 1079 C 1604 966.640625 1498.867188 863.757813 1381 879.425781 M 623 906.289063 C 687 898 736.839844 970.277344 700.617188 1026 C 694.515625 1035.382813 686.304688 1043.472656 677 1049.644531 C 666 1057 653.820313 1060.179688 641 1061.714844 C 595 1067.214844 552.582031 1027 554 981 C 554.886719 954.578125 569.269531 932 591 917.671875 C 600.5625 911.394531 611.671875 907.761719 623 906.289063 M 1416 906.289063 C 1480.414063 898 1532.574219 969.425781 1494.640625 1026 C 1488.320313 1035.425781 1480.480469 1042.714844 1471 1049 C 1462 1054.675781 1451.675781 1059.109375 1441 1060.699219 C 1428 1062.636719 1414.523438 1062.214844 1402 1058 C 1340.285156 1036.757813 1330.347656 949.578125 1387 916.015625 C 1395.851563 910.769531 1405.800781 907.613281 1416 906.289063 M 1298 937.324219 C 1306.914063 936 1318 943.585938 1311.484375 953 C 1305.828125 961 1295.386719 965 1288 971.144531 C 1275.210938 981.824219 1263.992188 995.425781 1255.863281 1010 C 1251.582031 1017.671875 1248.457031 1025.757813 1245.492188 1034 C 1244.585938 1036.523438 1243 1041.5625 1239.917969 1042 C 1235.683594 1042.488281 1235 1035.746094 1235 1033 C 1234.734375 1023.605469 1237 1015 1240 1006 C 1246.855469 985.769531 1258.96875 968.03125 1274 953 C 1280.675781 946.324219 1288.273438 939 1298 937.324219 M 757 938.339844 C 766.703125 936.503906 776.25 944 782.996094 950 C 800.429688 965.503906 813.867188 984.800781 821.332031 1007 C 824 1015 826.5625 1024.523438 825.90625 1033 C 825.675781 1036 824.6875 1041.3125 821 1042 C 817.976563 1042.460938 816.917969 1038.121094 816.273438 1036 C 813.765625 1027.691406 810.597656 1019.621094 806.414063 1012 C 798 997 787.230469 983.527344 774 972.4375 C 766.722656 966.339844 756.90625 962.253906 750.863281 954.824219 C 745.542969 948.289063 748.761719 940 757 938.339844 M 747 1033.324219 C 776.621094 1028.484375 784.589844 1075.523438 755 1079.789063 C 724.382813 1084.207031 716.425781 1038.324219 747 1033.324219 M 1307 1033.324219 C 1336 1028.605469 1344.890625 1075.441406 1315 1079.789063 C 1283.765625 1084.332031 1275 1038.507813 1307 1033.324219 M 1020 1272.285156 C 1027.519531 1271.363281 1035.53125 1271.820313 1043 1273 C 1088.710938 1279.296875 1103.78125 1325.316406 1098.425781 1366 C 1095.800781 1386 1091.515625 1421.636719 1066 1424.816406 C 1055.960938 1426.066406 1045.304688 1423 1038.761719 1415 C 1036.640625 1412.296875 1033 1402.386719 1029.910156 1401.632813 C 1028.542969 1401.304688 1021.542969 1415.121094 1019.816406 1417 C 1009 1428 991 1428.367188 980 1417.816406 C 968.597656 1407 964.964844 1388 962.5625 1373 C 955.433594 1328.648438 968.730469 1278.582031 1020 1272.285156 M 1019 1298.425781 C 1004.460938 1300.339844 972.195313 1309.621094 984.316406 1331.824219 C 988.890625 1340.203125 1003 1344.28125 1010 1351.015625 C 1015.960938 1356.820313 1021.273438 1362.6875 1025.335938 1370 C 1026.246094 1371.640625 1027.792969 1376.792969 1030 1376.792969 C 1032.5625 1376.792969 1033.828125 1371.644531 1034.667969 1370 C 1038.417969 1362.644531 1043.984375 1356.664063 1050 1351.089844 C 1057.640625 1344.007813 1072.664063 1340 1076.710938 1330 C 1080.226563 1321.3125 1073.796875 1310.632813 1067 1305.558594 C 1054.859375 1296.496094 1033.394531 1296.527344 1019 1298.425781 M 805 1424.488281 C 813.960938 1422.621094 816.828125 1436.660156 807.957031 1438.320313 C 799.753906 1440 796.289063 1426.320313 805 1424.488281 M 732 1455.609375 C 738 1453.480469 747.867188 1462 748.167969 1468 C 748.375 1472.128906 740.5 1479.132813 736.828125 1480.351563 C 731.550781 1482.113281 722.269531 1473 721.628906 1468 C 721 1464 728.429688 1457 732 1455.609375 M 762 1509.660156 C 767.503906 1508 769.382813 1516.390625 764.738281 1518.378906 C 759 1520.796875 756.691406 1511.5 762 1509.660156 M 425 1736 C 427.914063 1699.054688 425.859375 1662 422.167969 1625 C 420.640625 1609.714844 420.539063 1593 417 1578 C 410.863281 1590.226563 410.222656 1606.644531 407.550781 1620 C 402.480469 1645.339844 396.242188 1671.191406 388.964844 1696 C 386.253906 1705.246094 384.425781 1714.679688 382 1724 C 381.433594 1726.183594 381 1731.585938 378.695313 1732.652344 C 375.550781 1734.0625 370.171875 1722.152344 369 1720 C 361.242188 1705.722656 355.886719 1690.675781 351.734375 1675 C 338.636719 1625.550781 331.410156 1541.171875 397 1525.652344 C 405.90625 1523.546875 415.882813 1523.257813 425 1524.171875 C 431.523438 1524.824219 438 1526.78125 444 1529.4375 C 493 1551.296875 478.347656 1619.558594 464.65625 1659 C 461.507813 1668.070313 458 1677.175781 454.28125 1686 C 448.976563 1698.390625 443.300781 1710.53125 436.191406 1722 C 433 1727 430.167969 1733.171875 425 1736 M 1630 1576 C 1626.488281 1590.753906 1626.265625 1607 1624.828125 1622 C 1621.195313 1660.125 1617.167969 1698.765625 1622 1737 C 1616.96875 1734.167969 1614.386719 1728 1611.578125 1723 C 1605 1711.589844 1598.949219 1700 1593.460938 1688 C 1577.820313 1654 1564.40625 1614 1570.273438 1576 C 1574.398438 1549.347656 1595.847656 1525.316406 1624 1524.039063 C 1632.882813 1523.636719 1642.308594 1523.445313 1651 1525.503906 C 1715.496094 1540.761719 1709 1627.464844 1695.289063 1676 C 1690.867188 1691.566406 1685.648438 1706.769531 1677.824219 1721 C 1676.746094 1723 1671.511719 1735 1668.738281 1733.652344 C 1666.171875 1732.425781 1666 1726.363281 1665.421875 1724 C 1662.765625 1713.6875 1659.546875 1703.425781 1657.398438 1693 C 1652.839844 1671 1646.234375 1649.109375 1641.511719 1627 C 1638 1610.640625 1636.613281 1591.375 1630 1576 M 1252 1545.648438 C 1259.789063 1543.050781 1262.878906 1555.566406 1255.890625 1558.238281 C 1248 1561.199219 1244.960938 1548.03125 1252 1545.648438 M 904 1548.582031 C 910.511719 1547.710938 911.195313 1558 905 1558.535156 C 899.316406 1559.152344 898.628906 1549.324219 904 1548.582031 M 300 1725 C 290 1717.621094 283.976563 1703.019531 278.921875 1692 C 263.785156 1659.003906 252.675781 1615.101563 267.464844 1580 C 274.554688 1563.167969 288.96875 1549.0625 308 1549 C 313.214844 1549 322 1549.378906 325.289063 1554.34375 C 327.738281 1558.078125 322.671875 1563.738281 321 1567 C 315 1578.746094 311 1590.433594 307.175781 1603 C 294.945313 1643 294 1684.191406 300 1725 M 1750 1725 C 1753.421875 1682.015625 1752.398438 1642 1740.289063 1600 C 1737 1588.78125 1733 1577.371094 1727.636719 1567 C 1726 1564 1721.300781 1559.066406 1723.710938 1555.527344 C 1726.964844 1550.757813 1735.707031 1549.074219 1741 1549.003906 C 1758.425781 1548.773438 1772.800781 1559.476563 1780.214844 1575 C 1797.324219 1610.820313 1785.820313 1656.449219 1771 1691 C 1766.648438 1701.296875 1760 1719.308594 1750 1725 M 556 1663 L 555 1663 C 552 1645.070313 553.515625 1627.738281 547 1610 L 546 1610 C 548.925781 1647.074219 543.992188 1685.132813 525.425781 1718 C 520.179688 1727.285156 514.742188 1738.5625 506 1745 C 507.761719 1733.234375 513.550781 1722 515.566406 1710 C 520.269531 1682 519.851563 1653.109375 516 1625 C 514.253906 1612.265625 512.792969 1599.320313 508.976563 1587 C 507.75 1583.050781 503.308594 1576.121094 505.707031 1572.183594 C 517.601563 1552.675781 547.746094 1571.355469 555.628906 1584 C 570.59375 1608.015625 563 1637.800781 556 1663 M 1541 1746 C 1532 1740.742188 1525.632813 1728 1520.730469 1719 C 1507.320313 1694.71875 1500 1664.703125 1500 1637 C 1500 1628.304688 1499.175781 1619.34375 1502 1611 C 1491.296875 1621.726563 1492 1648.796875 1492 1663 C 1487 1657.402344 1485.886719 1647.226563 1484.871094 1640 C 1482 1620 1482.714844 1596.457031 1496.328125 1580 C 1505.894531 1568.4375 1527.765625 1558.191406 1540.835938 1570.527344 C 1545 1574.609375 1541.421875 1579.441406 1539.890625 1584 C 1536.175781 1595.054688 1533.367188 1606.492188 1531.433594 1618 C 1526.25 1649 1525.851563 1682.097656 1531.425781 1713 C 1533.476563 1724.371094 1539 1735 1541 1746 M 1261 1688 L 1261 1690 C 1302.957031 1690 1344.914063 1693 1387 1693 C 1396.300781 1693 1410 1689.730469 1418.851563 1692.316406 C 1422 1693.273438 1424.234375 1699.609375 1423.210938 1702.683594 C 1422.210938 1705.699219 1417.429688 1705 1415 1705 L 635 1705 C 631.964844 1705 626.3125 1706.074219 623.644531 1704.398438 C 621.59375 1703.109375 622.769531 1699 623.394531 1697.058594 C 625.898438 1689.824219 643.757813 1693 650 1693 L 958 1693 C 1000.527344 1693 1047 1696.773438 1089 1689 C 1079.480469 1686.1875 1067.910156 1687.589844 1058 1687 C 1028.414063 1685 998.699219 1685 969 1685 C 893 1685 817 1684 741 1684 L 655 1684 C 650 1684 629.953125 1686.761719 627.3125 1682.398438 C 623.53125 1676.148438 627.984375 1658.390625 628 1651 C 628 1648.265625 627.386719 1644.089844 630.316406 1642.601563 C 634.808594 1640.320313 642 1641 647 1641 L 1405 1641 C 1408.335938 1641 1414.570313 1640 1417.398438 1642.109375 C 1419.871094 1644 1418.675781 1648.386719 1418.710938 1651 C 1418.824219 1659.378906 1419.597656 1667.664063 1419.960938 1676 C 1420 1678.625 1420.871094 1683.613281 1417.683594 1684.683594 C 1413.214844 1686.175781 1406.683594 1685 1402 1685 C 1390 1685 1377.996094 1685 1366 1685.003906 C 1331 1685.421875 1295.980469 1688 1261 1688 "/>
</g>
</svg>
