<?xml version="1.0" encoding="UTF-8"?>
<svg xmlns="http://www.w3.org/2000/svg" xmlns:xlink="http://www.w3.org/1999/xlink" width="2000pt" height="2000pt" viewBox="0 0 2000 2000" version="1.1">
<g id="surface1">
<path style=" stroke:none;fill-rule:nonzero;fill:rgb(0%,0%,0%);fill-opacity:1;" d="M 455 891 C 465.199219 886 472.292969 877.371094 484 874 C 468.203125 890 453.277344 915.160156 451 938 C 455.394531 935.417969 457.90625 930.695313 462 927.609375 C 470.5 921.214844 482.792969 915 493 912 C 475 933.300781 459.195313 954.460938 455 983 C 460.652344 979.03125 463.460938 970.273438 468.175781 965 C 476.667969 955.496094 488.546875 948.417969 500 943 C 478.453125 965 466.257813 996.035156 466 1027 L 468 1027 C 470.578125 1009.789063 484.660156 991 500 983 C 459.28125 1035.828125 475.507813 1124 506.425781 1178 C 516.9375 1196.375 532 1210.019531 544 1227 C 536.175781 1226 530.332031 1221 523 1219 C 533.667969 1243 562.492188 1257 585 1267 C 560.214844 1272.390625 539.351563 1258.296875 523.675781 1241 C 500.394531 1215.078125 481.40625 1184.101563 470.332031 1151 C 465 1135.289063 460.628906 1119.378906 454.394531 1104 C 453.484375 1101.753906 449.71875 1090.144531 446.476563 1091 C 443.980469 1091.515625 445.90625 1098.390625 446 1100 C 447.492188 1109.769531 450.800781 1118.488281 453 1128 C 447.324219 1126.191406 442.953125 1122.074219 437 1121 C 439.171875 1138.101563 443.480469 1155.445313 453 1170 C 444.339844 1168.527344 436.550781 1163.117188 428 1162 C 433.414063 1177 443.957031 1190 455 1201 C 441.699219 1197.167969 431.320313 1187.484375 419 1182 C 422.671875 1202.664063 439.253906 1213.640625 451 1229 C 439 1224.019531 427.441406 1215.367188 414 1215.015625 C 411.980469 1215 401.207031 1214 401.207031 1217.160156 C 401.207031 1219.371094 407.480469 1222 409 1223.214844 C 416.703125 1229.71875 423 1237.652344 430 1245 C 413.921875 1241.28125 382 1237.105469 371 1254 C 393 1254 410.648438 1260.105469 431 1268 L 431 1269 C 411.609375 1267.46875 394.945313 1266.539063 376 1272.4375 C 373.964844 1273.070313 358.773438 1279 360.347656 1281.519531 C 361.546875 1283.492188 369.828125 1282 372 1282.171875 C 383.34375 1283.246094 394.9375 1285.273438 406 1288 L 406 1289 C 380 1290.109375 350.621094 1299.582031 332 1318.003906 C 326.75 1323.195313 320.414063 1329 318 1336 C 337.652344 1324.695313 362 1312.3125 386 1318 C 380.328125 1320.777344 373.910156 1321.03125 368 1323.230469 C 350.980469 1329.5625 327.960938 1343 320 1360 C 327 1357.730469 332.917969 1352.554688 340 1350 C 356.207031 1344.007813 373.851563 1342 391 1342 L 391 1343 C 364 1352.097656 326.667969 1370.667969 319 1401 C 342 1384.742188 362.808594 1374.242188 392 1374 L 392 1375 C 361.71875 1385.09375 329 1405.554688 324 1440 C 329.953125 1436.390625 333 1429.015625 339 1424.785156 C 351 1416.011719 366.625 1412.296875 381 1409 L 381 1410 C 367.488281 1416.308594 353.449219 1425.304688 345 1438 C 332.210938 1457.628906 332.167969 1486.601563 335 1509 C 321 1498.789063 310.386719 1482.261719 301 1468 C 292.339844 1455 284.714844 1440.074219 280 1425 C 251.222656 1332.414063 334 1262 375 1188 C 406.289063 1132 426.488281 1073.757813 443 1012 C 429.800781 1011 434.902344 986.050781 436.574219 977 C 436.988281 974.773438 439.808594 968 437.929688 966.121094 C 434.632813 963.011719 428.316406 971 425 966.578125 C 419 958.695313 426.914063 942.34375 427.285156 934 C 427.71875 924.199219 423 913.320313 423 903 C 423 870 431 838.445313 436.566406 806 C 442 772.683594 445 738.742188 445 705 C 445 679.164063 448 648 440 623.042969 C 437.652344 615.53125 421.851563 614.515625 416 618 C 418 618.832031 430.730469 623.171875 427.964844 627 C 426 629.242188 417.921875 628.136719 415 629 L 415 630 C 419.898438 633.066406 424.699219 636.128906 429 640 C 419.996094 637.535156 397 629 390 639 C 397.65625 639.328125 406.6875 640 412 646 C 404.519531 644.0625 396.710938 643.320313 389 644.285156 C 387.660156 644.453125 382.207031 644.730469 382.207031 646.808594 C 382.207031 648.378906 394.207031 655.289063 396 657 C 379.726563 655 366 656.683594 350 658 L 350 660 C 362.222656 661 375.617188 665.742188 383 676 C 360 668.636719 341.277344 674 320 684 L 320 685 C 333.253906 685.035156 349.433594 687.472656 360 696 C 349 698.597656 337.25 695.691406 326 697.300781 C 314.972656 699 306 705.046875 297 711 L 297 712 C 313.527344 709.773438 325.824219 707.769531 342 714 L 342 715 C 327.1875 715.636719 297.976563 721 290 735 C 300.492188 734.550781 315.535156 730.820313 324 739 C 303.753906 740.597656 277.703125 752.472656 269 772 C 286.695313 768 301.640625 764.550781 320 766 L 320 767 C 301.417969 770.605469 280.234375 777.625 266.324219 791.09375 C 263.917969 793.425781 253.375 803.578125 255.332031 807.210938 C 256.285156 809 260.589844 807.351563 262 807.09375 C 268.714844 806 275.351563 804.519531 282 803 C 272.925781 812.046875 262.746094 819.796875 256 831 C 254.871094 833.058594 250 840.632813 252 843 C 254.394531 845.425781 268.734375 839.746094 272 839 C 262.519531 852.511719 248.910156 864.25 248 882 C 257.183594 876.339844 266.730469 871.496094 277 868 C 264.875 886.347656 251.871094 902.085938 250 925 C 257.253906 921.152344 263.191406 915.363281 271 912 C 261.214844 934.707031 254 950.765625 254 976 C 258.699219 973.21875 262.191406 968.195313 267 965 C 265.863281 978.03125 259.960938 991 257.613281 1004 C 257.242188 1006.050781 254.433594 1015.585938 256.695313 1016.65625 C 261.546875 1019 274.5625 1004.761719 278 1002 C 272 1022 266.617188 1052.8125 273 1073 L 274 1073 L 282 1053 L 283 1053 C 283 1069 282.835938 1085.140625 284.714844 1101 C 285.40625 1107 284.558594 1114 288 1119 L 296 1102 C 305.492188 1126.605469 312.515625 1152.230469 321.679688 1177 C 324.886719 1185.660156 334 1198.679688 333.191406 1208 C 332.234375 1217.636719 324.515625 1228.464844 320.246094 1237 C 309.5 1258.492188 297.640625 1279.335938 285.398438 1300 C 281.445313 1306.671875 275.25 1324.484375 267.894531 1327.394531 C 257.761719 1331.402344 236.605469 1320.386719 229 1314.332031 C 225.730469 1311.722656 212.582031 1298.828125 216.933594 1293.773438 C 219.441406 1291 233 1294.667969 237 1294.320313 C 249.589844 1293.21875 261.542969 1287.351563 269 1277 C 279 1263.128906 277.808594 1245.179688 271.796875 1230 C 258.28125 1196 223 1179.191406 188 1178.257813 C 100.683594 1176 54.191406 1277.632813 78.671875 1352 C 93.476563 1397 127.375 1420.113281 167 1441 C 157.179688 1443.339844 146 1442 136 1442 L 80 1442 C 71.96875 1442 58.804688 1439.386719 51.316406 1442.027344 C 47.480469 1443.382813 48.214844 1460 51.589844 1461.761719 C 56.519531 1464.484375 71.203125 1458.457031 77 1458 L 77 1459 C 69.730469 1460.558594 60 1464.628906 54 1469 C 52 1470.421875 48 1475.277344 52.316406 1476.671875 C 56.929688 1478.164063 64.359375 1476 69 1475.078125 C 82.949219 1472.769531 97 1467.140625 111 1466 L 111 1467 C 94.433594 1473.429688 78.34375 1481.167969 62 1488.128906 C 59.179688 1489.328125 45.289063 1493.308594 51 1499 C 54 1502 65.332031 1497.703125 69 1497 C 83.746094 1493.597656 101.898438 1490 117 1491 L 117 1492 C 98.722656 1495.257813 78.613281 1509.453125 62 1517.753906 C 59.289063 1519.109375 42.523438 1526.550781 51.742188 1531.757813 C 56 1534.21875 73.210938 1525.597656 78 1524 C 102.347656 1516 127.253906 1510.5625 152 1504 C 139.285156 1519 113.660156 1526.796875 97 1537 C 92 1540 84.257813 1542.066406 81 1547 C 90.8125 1546.496094 100.550781 1541.050781 110 1538.425781 C 132.554688 1532.152344 155.207031 1525.226563 178 1520 L 178 1521 C 146 1535.492188 114.363281 1551.109375 83 1566.753906 C 73.234375 1571.625 53 1578.101563 48 1588 C 62 1586.578125 78.542969 1578 92 1573.054688 C 128.523438 1559.695313 168.273438 1540.21875 207 1535 C 202.570313 1540.648438 195 1544.257813 189 1548.050781 C 174.773438 1557 159.757813 1565.691406 145 1573.691406 C 136.789063 1578.144531 123.660156 1582.480469 119 1591 C 144.664063 1581.6875 170 1571.667969 196 1563 C 207.703125 1559.089844 219.714844 1553.65625 232 1552 L 232 1553 C 216.34375 1558.699219 200.867188 1568.261719 186 1576 C 157.347656 1590.601563 128.558594 1605 100 1620 C 88.523438 1626 77.230469 1632.140625 66 1638.578125 C 60.964844 1641.464844 54 1644 51 1649 C 67.429688 1646.160156 83.503906 1636.054688 99 1630.0625 C 138.988281 1614.597656 178.601563 1597.21875 218 1580.28125 C 230.609375 1575 243.710938 1569.390625 257 1566 C 258.5 1565.488281 270 1562 269.367188 1565.3125 C 268 1572 248.601563 1580.644531 243 1584 C 224.847656 1594.234375 206.464844 1604.445313 189 1616 C 182.183594 1620.402344 173.234375 1623.683594 168 1630 C 178.769531 1628.386719 188.875 1622 199 1618.0625 C 228.6875 1606.792969 259 1591.320313 290 1584 C 274.769531 1597.671875 251.941406 1606.453125 234 1616.304688 C 198.851563 1635.609375 164.285156 1656 130 1676.796875 C 113.679688 1686.703125 87.390625 1697.566406 76 1713 C 96.902344 1708.03125 118.519531 1693.738281 138 1684.550781 C 182.527344 1663.546875 226.964844 1642.265625 271 1620.246094 C 285.996094 1612.75 301.1875 1603.765625 317 1598.179688 C 321 1596.730469 331.300781 1592.074219 332.933594 1599.058594 C 334.710938 1606.667969 324.246094 1613.589844 319 1617 C 308.835938 1623.445313 299.203125 1630.777344 289 1637.1875 C 282.421875 1641.320313 274 1645.171875 270 1652 C 297.941406 1644 323.691406 1626.390625 353 1622 C 340.371094 1637 317.179688 1646 301 1656.667969 C 258.863281 1684.636719 215.722656 1711.128906 174 1739.808594 C 160.371094 1749.175781 146.171875 1758.007813 133 1768 C 128.257813 1771.597656 121.894531 1774.703125 119 1780 C 137.953125 1776 157.789063 1761.140625 175 1752.257813 C 221 1728.441406 266 1702.4375 311 1676.425781 C 323.839844 1669 336.75 1661.425781 350 1654.753906 C 354.191406 1652.640625 360 1647.671875 364.867188 1647.707031 C 368.714844 1647.738281 371.464844 1655.8125 371.304688 1659 C 370.996094 1665.046875 361.535156 1669.472656 357 1672.140625 C 343 1680.316406 324.738281 1688.007813 313 1699 C 318.839844 1699.128906 324.5 1695.683594 330 1694 C 341.699219 1690 353.742188 1685.632813 366 1684 C 370.21875 1683.265625 379.90625 1681 383.535156 1684.027344 C 386.382813 1686.402344 381.636719 1689.832031 379.996094 1691.195313 C 373.5625 1696.53125 366.683594 1701.363281 360 1706.371094 C 339 1722.097656 317.867188 1738 298 1755 C 290.585938 1761.386719 279.257813 1768.007813 275 1777 C 288 1773.699219 300.386719 1764 312 1757.28125 C 341.21875 1740.632813 369.289063 1722.265625 398 1704.796875 C 408.183594 1698.601563 414.832031 1693.796875 427 1695 C 428.976563 1695.109375 437.824219 1695 437.40625 1698.226563 C 436.53125 1705.105469 420 1715.15625 415 1719.410156 C 402.261719 1730.101563 390.480469 1742 378 1753 C 370.816406 1759.171875 361 1766.203125 357 1775 C 367.242188 1773.046875 377.714844 1765.699219 387 1761.003906 C 405.453125 1751.667969 423.421875 1742 441 1731 C 452.863281 1723.574219 464.179688 1714.46875 477 1708.796875 C 485.675781 1705 498 1710 507 1711.433594 C 509.8125 1712 516.339844 1712.238281 516.429688 1716.144531 C 516.566406 1722.066406 509 1729.550781 505.882813 1734 C 496 1747.390625 482.558594 1760.195313 475 1775 C 482.789063 1773 490.617188 1765.636719 497 1760.765625 C 513.609375 1748.089844 530.398438 1729.769531 549 1720.3125 C 553.78125 1718 559.828125 1719 565 1719 C 577.296875 1719.015625 589.945313 1718.121094 602 1721 C 585.5625 1739 569 1757.113281 553.804688 1776 C 547.988281 1783.203125 538.976563 1791.171875 536 1800 C 545.480469 1797 553.378906 1788.160156 561 1782 C 584.4375 1763.0625 605 1735.777344 632 1721.785156 C 641 1717.058594 652.867188 1715.433594 663 1717.375 C 666 1718 672 1719.226563 672.644531 1723.109375 C 673.503906 1729.644531 664.390625 1739 661 1744 C 650 1760.328125 631.191406 1778.324219 625 1797 C 637.496094 1793.597656 649.367188 1777.792969 659 1769.425781 C 685.789063 1746.152344 706.398438 1718.03125 739 1702.257813 C 747.191406 1698.296875 767.824219 1685.757813 776.609375 1692.742188 C 786.902344 1701 772.445313 1720.222656 768 1728 C 763.605469 1735.691406 759 1743.339844 754.71875 1751 C 746.476563 1765.199219 735.632813 1779.523438 730 1795 C 740.289063 1793.417969 750.699219 1780.464844 757.285156 1773 C 775.398438 1752.464844 792.410156 1731.582031 807.976563 1709 C 813.265625 1701.324219 818.238281 1693.019531 824.4375 1686.039063 C 826.460938 1683.765625 830.285156 1679.46875 833.683594 1681.738281 C 836.84375 1684 836.199219 1689.777344 835.816406 1693 C 834.511719 1704 828.949219 1714.136719 828 1725 C 833.253906 1722.019531 834.894531 1715.257813 837.308594 1710 C 843.238281 1697.085938 850 1670.1875 863 1663 C 880.609375 1653.027344 881 1681.792969 879.386719 1691 C 874.449219 1718.203125 866.480469 1745.046875 860.347656 1772 C 858.183594 1781.527344 852 1795.441406 854 1805 C 862.371094 1798.082031 868 1785.371094 873.421875 1776 C 886 1754 897.933594 1731.027344 908.976563 1708 C 912.988281 1699.628906 916.8125 1690.675781 922 1683.003906 C 923.816406 1680.503906 926.484375 1676.777344 929.980469 1677.175781 C 935.234375 1677.773438 935.886719 1685 935.984375 1689 C 936.308594 1702 936 1715.011719 936 1728 L 937 1728 C 939.820313 1719.179688 941.835938 1710.050781 943.789063 1701 C 944.804688 1696.308594 945.882813 1691.628906 947 1687 C 950.78125 1673.738281 963.617188 1663.367188 971.472656 1681 C 978.308594 1696.351563 977.859375 1717.457031 979.84375 1734 C 980.566406 1740.011719 981.453125 1746.019531 982.425781 1752 C 982.625 1753.230469 982.886719 1757.792969 984.804688 1757.792969 C 987.550781 1757.792969 988.589844 1746.078125 989 1744 C 991.675781 1730.402344 991.945313 1713.507813 998 1701 C 1004.90625 1719.527344 1005 1741.351563 1014 1759 L 1015 1759 C 1015 1747.652344 1016.996094 1736.351563 1017 1725 L 1017 1702 C 1017 1696.007813 1016.871094 1688.355469 1020 1683.042969 C 1026.242188 1673 1036 1679.398438 1040.535156 1687 C 1052.980469 1708.386719 1056.484375 1736.019531 1065.601563 1759 C 1067.484375 1763.75 1073.195313 1782.359375 1080.582031 1780.246094 C 1087.519531 1778.265625 1084 1759 1084 1754 C 1083.457031 1731.222656 1076.472656 1706.589844 1079.730469 1684 C 1081.398438 1672.421875 1090 1661.394531 1103 1666.613281 C 1116.398438 1672.035156 1122 1687.644531 1127 1700 C 1137.328125 1725.824219 1148.808594 1751.125 1161.246094 1776 C 1165.894531 1785.296875 1170.953125 1794.546875 1177 1803 C 1178.726563 1805.339844 1182 1810.289063 1185.566406 1809.246094 C 1188.515625 1808.382813 1188 1803.300781 1187.960938 1801 C 1187.648438 1793 1185.90625 1785 1184.210938 1777 C 1178.574219 1751 1170 1725.625 1162.710938 1700 C 1160.3125 1691.691406 1155.898438 1678.160156 1166 1673.027344 C 1175.867188 1668.019531 1184.960938 1680.335938 1189.84375 1687 C 1203.644531 1705.824219 1214 1735.027344 1233 1749 C 1231.34375 1732.347656 1221.769531 1716.804688 1221 1700 L 1222 1700 C 1227.933594 1712 1237.8125 1722.335938 1245.730469 1733 C 1249.347656 1738 1252.789063 1745 1258 1748 C 1255.34375 1732.570313 1246.777344 1717.613281 1241.371094 1703 C 1239.269531 1697.328125 1235.878906 1689 1239.179688 1683.109375 C 1246.984375 1669.242188 1265.257813 1691.109375 1270 1697 C 1286.976563 1718.09375 1304.355469 1738.285156 1322.910156 1758 C 1331.371094 1767 1341.289063 1779.472656 1353 1784 C 1349 1762.101563 1329.722656 1738 1318.398438 1719 C 1315.183594 1713.632813 1305.894531 1700.242188 1311.332031 1694.277344 C 1318.21875 1686.726563 1331.613281 1693.238281 1338 1698.042969 C 1356.378906 1712 1368.734375 1740.804688 1390 1750 C 1385.199219 1740 1377.984375 1730.777344 1372.429688 1721 C 1370.9375 1718.378906 1367 1712.644531 1368.40625 1709.472656 C 1369.742188 1706.4375 1374.800781 1708.363281 1377 1709.023438 C 1384.894531 1711.398438 1392.542969 1714.25 1400 1717.78125 C 1422.601563 1728.484375 1441.800781 1747.070313 1462 1761.578125 C 1469.765625 1767.15625 1478.425781 1776.148438 1488 1778 C 1480.773438 1764 1468.175781 1750.273438 1458 1738 C 1454.878906 1734.113281 1446 1726.671875 1446.304688 1721.226563 C 1446.46875 1717.0625 1454 1717 1457 1716.578125 C 1468.664063 1715 1480.832031 1716.632813 1492 1720.179688 C 1537.441406 1734.613281 1572.589844 1770.296875 1616 1789 C 1614 1782.464844 1607.664063 1776.796875 1602.984375 1772 C 1593.582031 1762.363281 1584.203125 1752.730469 1574.910156 1743 C 1570.808594 1738.683594 1562.21875 1732.671875 1561.429688 1726.289063 C 1560.941406 1722.34375 1566 1721 1569 1720.019531 C 1576.433594 1718 1587.585938 1718 1595 1720.042969 C 1629.902344 1730.234375 1660.34375 1762.277344 1698 1764 C 1690.671875 1749 1667.644531 1735.753906 1655 1725 C 1650.183594 1720.722656 1641 1715.125 1640.878906 1708 C 1640.65625 1702.179688 1646.988281 1698.761719 1652 1698.1875 C 1663.265625 1697 1673.710938 1705.175781 1683 1710.230469 C 1710 1725 1737 1740 1764 1755 C 1778.464844 1763 1795.761719 1774.519531 1812 1778 C 1809.359375 1768.738281 1795.421875 1761 1788 1755.230469 C 1765.808594 1738.378906 1742.738281 1723.167969 1720 1707.144531 C 1713.484375 1702.554688 1697 1696.738281 1694.175781 1689 C 1692.515625 1684.40625 1698.359375 1681.441406 1702 1681.121094 C 1710.484375 1680.382813 1719.214844 1685.152344 1727 1687.832031 C 1763.664063 1700.4375 1799.46875 1716 1837 1726 C 1830 1717.664063 1817.320313 1712.59375 1808 1707.28125 C 1788 1696 1768.179688 1684.691406 1748 1674 C 1741.609375 1670.464844 1718 1662.53125 1718.492188 1654 C 1718.824219 1647.503906 1724.792969 1649 1729 1650.425781 C 1739.914063 1654.503906 1750.429688 1659.5 1761 1664.375 C 1790.882813 1678.148438 1820.878906 1691.648438 1851 1705 C 1865 1711.039063 1881.671875 1721.089844 1897 1723 C 1891.292969 1712.40625 1873.898438 1704.527344 1864 1698.003906 C 1834.320313 1678.4375 1802.839844 1661.617188 1772 1644 C 1761.804688 1638.175781 1750.875 1633.058594 1741 1626.730469 C 1739 1625.445313 1732.777344 1621 1735.425781 1618 C 1737.695313 1615.304688 1755.667969 1623.832031 1759 1625.054688 C 1782 1633.503906 1807.714844 1646.363281 1832 1650 L 1832 1649 C 1812.492188 1637 1793.855469 1623.28125 1774 1612 C 1769.734375 1609.394531 1754.890625 1601.546875 1763.230469 1595.648438 C 1767.332031 1592.742188 1774.980469 1597.222656 1779 1598.796875 C 1793 1604.316406 1807 1610.171875 1821 1616.148438 C 1855.902344 1631.128906 1891 1645.3125 1926 1660.425781 C 1944.730469 1668.550781 1968.636719 1682 1989 1684 L 1989 1683 C 1925.984375 1640.488281 1853.296875 1615.113281 1788 1577 C 1798.378906 1576.054688 1810.296875 1582.578125 1820 1586 C 1843.191406 1593.613281 1865.867188 1603 1889 1611 C 1898.496094 1614.121094 1908.960938 1620.480469 1919 1621 L 1919 1620 C 1892.503906 1602.46875 1862.835938 1589 1835 1573.695313 C 1828.394531 1570.066406 1821.277344 1567 1815 1562.757813 C 1813.410156 1561.695313 1809.25 1559.140625 1810.347656 1556.640625 C 1811.613281 1553.746094 1819 1557.371094 1821 1558 C 1832.371094 1561.789063 1843.632813 1566 1855 1569.667969 C 1902.425781 1585.480469 1949.984375 1608.753906 1999 1619 C 1990.902344 1608.65625 1973.546875 1603.527344 1962 1597.753906 C 1931.867188 1582.6875 1900.703125 1570.105469 1870 1556.304688 C 1859 1551.371094 1842.996094 1548.398438 1835 1539 C 1849.179688 1541.085938 1863.359375 1547.476563 1877 1551.820313 C 1900.96875 1559.457031 1925 1567 1949 1574.503906 C 1961.375 1578.460938 1976 1585.410156 1989 1586 L 1989 1585 C 1951 1563 1907.308594 1548.402344 1867 1531 C 1857.371094 1527 1847.804688 1522.738281 1838 1519 C 1836 1518.273438 1828.757813 1516 1830.347656 1512.679688 C 1831.410156 1510.460938 1836.480469 1512.820313 1838 1513.28125 C 1846.363281 1515.832031 1854.640625 1518.589844 1863 1521.136719 C 1897.902344 1531.777344 1933.433594 1543 1969 1551 C 1963.566406 1543.261719 1948.371094 1539 1940 1534.753906 C 1920.898438 1525.203125 1901.402344 1516.546875 1882 1507.625 C 1872.21875 1503.128906 1861 1500.28125 1853 1493 C 1888.941406 1500 1925 1511.191406 1960 1522.253906 C 1968.253906 1525 1976.707031 1527 1985 1529.433594 C 1986.882813 1530.003906 1992.195313 1532.75 1993.25 1529.695313 C 1994.261719 1526.746094 1989.941406 1525.222656 1987.996094 1524.402344 C 1981.335938 1521.59375 1974.574219 1519.09375 1968 1516.078125 C 1940 1503.246094 1911 1492.667969 1883 1480 L 1883 1479 C 1911.488281 1483 1941 1493.441406 1969 1501 C 1973.25 1502 1996.277344 1510.105469 1994.625 1501.023438 C 1993.441406 1494.535156 1980.21875 1492 1975 1489.800781 C 1962.589844 1484.796875 1950.542969 1479 1938 1474.226563 C 1931 1471.671875 1922.5 1470 1917 1465 C 1935.71875 1466.632813 1954.183594 1474.746094 1973 1477.28125 C 1977.410156 1478 1988.472656 1482 1992.398438 1479.671875 C 2000.816406 1475 1979.484375 1466 1977 1464.78125 C 1972.28125 1462.554688 1967.515625 1460.636719 1963 1458 C 1971.488281 1458 1983.636719 1465.75 1991.683594 1463.109375 C 1995.601563 1461.824219 1995.578125 1443.621094 1991.683594 1442.316406 C 1981.628906 1439 1965.621094 1442 1955 1442 L 1845 1442 C 1840.792969 1442 1836.480469 1441.171875 1834 1445 L 1833 1445 C 1829.402344 1416.527344 1828.625 1389.128906 1817.546875 1362 C 1794.273438 1305 1736.417969 1270.515625 1677 1263 L 1677 1262 C 1707.25 1259.613281 1738.398438 1265.636719 1766 1278.308594 C 1776 1283 1784.894531 1291.09375 1795 1295 C 1768.234375 1250.769531 1710.761719 1228 1661 1228 L 1661 1227 C 1679 1221.28125 1696.703125 1225 1715 1225 C 1711.859375 1219.660156 1705 1216.144531 1700 1212.746094 C 1679.292969 1199 1655 1197 1631 1197 C 1645 1185.023438 1658.824219 1179.566406 1677 1181 C 1667.769531 1170 1652 1170 1639 1170 C 1643.503906 1164.164063 1651.578125 1158.804688 1659 1158 C 1655.289063 1146.8125 1645.695313 1136.507813 1640 1126 C 1630.359375 1107.792969 1623.171875 1087.214844 1619 1067 C 1614.71875 1070.023438 1614.613281 1078.070313 1613.75 1083 C 1611.585938 1095.339844 1609.226563 1108.027344 1605.492188 1120 C 1594 1156.746094 1578.464844 1191 1549 1217 C 1554.585938 1204.054688 1562.40625 1192 1568 1179 C 1591.898438 1125.226563 1615.359375 1048 1590 991 C 1600.746094 998.105469 1608.257813 1012.4375 1619 1018 C 1614.386719 998 1608 980 1598 962 C 1607.933594 966.71875 1613 977 1622 982 C 1621.605469 962.78125 1610.6875 944.496094 1602 928 C 1607.933594 932.8125 1614.621094 941 1622 943 C 1617.960938 922.160156 1609.191406 904 1603 884 C 1609 887.5 1613.585938 893.140625 1620 896 C 1616 864.652344 1606 834.097656 1600.464844 803 C 1593.375 763.601563 1593 723 1594 683 C 1594.714844 654.453125 1600.992188 626.355469 1603.832031 598 C 1609.28125 543.515625 1614 487.558594 1606.574219 433 C 1601.589844 396.371094 1594.542969 361 1579 327 C 1572.214844 312.222656 1563.179688 295.5625 1545 294.09375 C 1530.960938 293 1518 299.058594 1506 305.628906 C 1484 317.582031 1463.882813 332.546875 1445 348.730469 C 1396.679688 390.144531 1353.484375 436.589844 1311 484 C 1294.953125 502.160156 1279.566406 521.078125 1263 539 C 1256.832031 545.800781 1251.320313 554.398438 1244 560 C 1244.53125 553.265625 1245.679688 546.351563 1248 540 C 1239 545.496094 1231.960938 563.109375 1226 572 C 1224.507813 574.222656 1220.519531 582.0625 1217 581.367188 C 1213.402344 580.597656 1216.574219 570.378906 1216.835938 568 C 1217.167969 565 1217.472656 562.015625 1218 559 C 1219 554.414063 1219.410156 549.652344 1220 545 C 1211 551 1206.902344 564.402344 1198.960938 572 C 1195.335938 575.3125 1190.992188 577.496094 1186 578 C 1182.4375 578.199219 1176.777344 576.792969 1173.992188 579.601563 C 1168.847656 584.804688 1166.265625 595.472656 1162.890625 602 C 1155 617.195313 1145 631.421875 1138 647 L 1137 647 C 1140.390625 624 1141.84375 604.375 1140 581 C 1134.464844 584.375 1132.171875 595.09375 1129.800781 601 C 1122.597656 619 1114.3125 637.410156 1109 656 L 1108 656 C 1108.453125 634.070313 1113.945313 613.246094 1111.285156 591 C 1110.527344 584.65625 1111.34375 576.578125 1108 571 C 1099.648438 595.621094 1092 621 1085 646 L 1084 646 C 1084 627 1086 608.03125 1082.921875 589 C 1081.972656 583.203125 1082.390625 576 1079 571 C 1067.996094 592.800781 1067.714844 617.804688 1062 641 L 1061 641 C 1060.988281 625.117188 1057.425781 609.402344 1053.882813 594 C 1052.597656 588.417969 1052.1875 581.085938 1048 577 C 1042.511719 594.320313 1039 612.800781 1039 631 L 1037 631 C 1036.992188 617.480469 1033.214844 604.253906 1030.921875 591 C 1029.835938 584.742188 1029.65625 576.265625 1026 571 C 1019.335938 590.523438 1019.671875 610.371094 1015 630 L 1014 630 C 1013.722656 616.566406 1008.324219 602.785156 1004.554688 590 C 1002.671875 583.613281 1000.988281 575.355469 997 570 C 989.917969 591 993.277344 613.457031 992 635 L 991 635 C 986.789063 614.65625 978.351563 591.527344 969 573 L 968 573 C 961.660156 594.441406 968.820313 617.46875 969 639 L 968 639 C 961.699219 623.640625 955.65625 608.109375 948.769531 593 C 946.515625 588.058594 945.554688 580.121094 941 577 C 941 589.523438 939.984375 602.53125 941.171875 615 C 942.5 629 946.398438 643.0625 947 657 L 946 657 C 940.898438 640.449219 931.222656 624.242188 923 609 C 921.902344 606.789063 917.171875 594.710938 913.648438 596.347656 C 910.640625 597.742188 911.984375 606.457031 912.285156 609 C 913.804688 622 916 634.257813 918 647 L 917 647 C 910.761719 632.019531 902.710938 617.683594 895.78125 603 C 892.960938 597.027344 890.777344 587.253906 886 582.601563 C 882.433594 579.078125 876.269531 582.519531 872 580.066406 C 863.273438 575.058594 855.800781 563.613281 851 555 L 850 555 C 850 563.371094 851.929688 571.628906 852 580 C 843.398438 570.148438 834.679688 555.234375 823 549 L 824 555 C 809.328125 542 797.535156 525.195313 783.960938 511 C 728 452.527344 675.945313 388.40625 610 340.574219 C 584.753906 322.265625 549.347656 288.347656 515 294.328125 C 499 297.089844 490.289063 313 483.753906 326 C 467 359.386719 461.46875 396.519531 456.269531 433 C 443.769531 520.746094 467 606 470.960938 693 C 472.523438 728.703125 472 764.484375 467.714844 800 C 463.964844 830.140625 456.304688 860.691406 455 891 M 775 468 C 778.414063 476.0625 785.886719 483 792 489 C 807.761719 504.785156 827 523 848 531.394531 C 853.433594 533.597656 861.886719 537.699219 867.851563 537.21875 C 871.3125 537 871.21875 532.507813 875 532.613281 C 882.246094 532.808594 890.824219 540.644531 897.789063 539.066406 C 904.675781 537.507813 906.171875 528.28125 915 528.054688 C 922.910156 528 931.820313 535.792969 938.683594 535 C 943.664063 534.25 940.695313 522.269531 948 521.152344 C 959 519.46875 969.191406 531.050781 978.738281 530 C 984.679688 529.183594 984.984375 518.25 993 519.617188 C 999.382813 520.703125 1004.726563 530 1010.789063 529.808594 C 1017.832031 529.59375 1021.234375 516.738281 1031 517.058594 C 1038.816406 517.316406 1040.71875 526.199219 1047 527.382813 C 1051.679688 528.242188 1059 518.761719 1065 518.199219 C 1075 517.238281 1076.726563 529 1084.324219 530.082031 C 1087.300781 530.5625 1091.332031 527 1094 525.816406 C 1100.539063 523.019531 1107.773438 520.433594 1114.996094 521.058594 C 1124 522 1119.753906 532.285156 1125.5625 534.558594 C 1128 535.574219 1132.503906 532.324219 1135 531.597656 C 1141.484375 529.714844 1148.238281 528.550781 1155 529.09375 C 1163.359375 529.765625 1168.898438 538.160156 1176 538.757813 C 1182 539.269531 1188.800781 533.257813 1194.996094 532.628906 C 1199.28125 532.1875 1201.773438 536.5625 1206 535.503906 C 1231.296875 529.203125 1255.503906 508.289063 1274 491.089844 C 1281.414063 484.195313 1291.25 476.675781 1295 467 C 1284.449219 470.078125 1269.949219 451.621094 1262 445.425781 C 1233.953125 423.5625 1202.902344 405.617188 1170 392.144531 C 1086.644531 358.007813 986.523438 358.066406 903 391.449219 C 868.582031 405.207031 837 423.066406 808 446.199219 C 800.28125 452.347656 785 472.164063 775 468 M 552 413 C 547.976563 417.523438 542.394531 420.699219 538 425 C 556.464844 422.679688 567.699219 437.089844 576 452 C 566.519531 454.828125 555.964844 454.820313 549 463 C 586.636719 458.242188 618.324219 485 648 504.136719 C 659.820313 511.769531 676 519 685 530 C 666.375 525.347656 648.546875 514.765625 630 509.027344 C 603 500.675781 576 498 548 498 L 548 499 C 572.207031 503.492188 594.789063 506.164063 618 515.449219 C 639.171875 524 657.253906 538.058594 678 547 L 678 548 C 664 546.777344 649.746094 539 636 535.746094 C 615.855469 531 593.648438 529 573 529 L 573 531 C 603.34375 531.25 637.5625 547.015625 664 560.777344 C 672 565 687 570.382813 692 578 C 671.230469 571.230469 651.597656 562.792969 630 558.449219 C 591.996094 550.804688 552.933594 552 515 559 L 515 558 C 526.726563 550.519531 523 535.429688 523 523 C 523 520 524.375 512.238281 521.972656 509.789063 C 519.886719 507.660156 513.585938 510.617188 511 511 C 514 504.789063 525.679688 501.183594 526.882813 495 C 529.632813 480.429688 521.742188 465.769531 528 451 C 525 451.003906 514.894531 453.574219 513 452 C 510.382813 449.382813 515.570313 439.578125 516.78125 437 C 523.820313 422.039063 535.328125 413.011719 552 413 M 1379 536 C 1391.757813 522.578125 1410.441406 512.816406 1426 503 C 1442.832031 492.269531 1460.371094 478.824219 1480 474 C 1491.613281 471 1505.8125 470.8125 1514.816406 480.105469 C 1517.214844 482.582031 1521.445313 488 1520.210938 491.683594 C 1519 495 1513.574219 494 1511 494.171875 C 1502.289063 495.015625 1493.570313 497 1485 498.601563 C 1459.515625 503.699219 1435 511.605469 1411 521.402344 C 1400.203125 525.800781 1390.222656 532.789063 1379 536 M 1387 576 C 1391 569.234375 1402.273438 565.203125 1409 561.199219 C 1431.339844 548 1462.515625 533.222656 1489 533 L 1489 531 C 1458.304688 529.210938 1429.804688 537.609375 1401 547 C 1405.359375 539.03125 1419.183594 533.226563 1427 529 C 1448.671875 516.765625 1471.296875 507.15625 1496 503.578125 C 1503.890625 502.4375 1514 500.203125 1521.890625 502.722656 C 1526.835938 504.320313 1526 509.777344 1526 514 C 1525.988281 523.539063 1524.785156 533.582031 1523.246094 543 C 1522.769531 546 1522.625 551 1520 553 C 1516.8125 555.71875 1508.867188 553.742188 1505 553.285156 C 1494 552 1482.933594 553.746094 1472 554.015625 C 1441.6875 554.757813 1415.464844 568.214844 1387 576 M 878 875 L 877 875 C 853.660156 802.289063 819.675781 727.027344 769.28125 669 C 744.300781 640.234375 710.714844 613.144531 673 603.476563 C 667.886719 602.167969 657.402344 598.660156 652.316406 600.691406 C 648.933594 602.046875 651.199219 607.488281 646.851563 607.386719 C 607 606.46875 571.601563 602.832031 532 611 C 533.589844 608 536.960938 605.472656 537.832031 602 C 540.554688 591.101563 531.789063 577.105469 527 568 C 562 557 602.382813 571.632813 636 581.289063 C 661.890625 588.730469 686.835938 597.476563 710 611.449219 C 771.46875 648.53125 820 715.320313 848.859375 780 C 861.570313 808.542969 876.636719 843.351563 878 875 M 1199 877 C 1196.398438 870.785156 1199.949219 862.382813 1201 856 C 1204.792969 835.113281 1211.625 814.582031 1219.601563 795 C 1241.175781 742.054688 1273.578125 693.421875 1314 653 C 1337 630 1362.425781 609.191406 1393 597 C 1422.632813 585.183594 1453.722656 575.378906 1485 569.003906 C 1492.5 567.476563 1500.332031 566.023438 1508 566 C 1509.976563 566 1514.261719 565.324219 1515.304688 567.601563 C 1516.480469 570.183594 1514.191406 574.554688 1513.382813 577 C 1510.914063 584.484375 1513.886719 597.0625 1510.382813 603.398438 C 1509.382813 605.203125 1506.742188 605 1504.996094 605 C 1466.769531 603 1428.304688 595 1391 608 C 1306.785156 637.074219 1255.246094 732.316406 1223.597656 810 C 1214.808594 831.574219 1204.382813 854.292969 1199 877 M 1640 972 C 1638.320313 970.808594 1635 967.507813 1633 969.800781 C 1630.414063 972.714844 1632 981.335938 1632 985 C 1632 999.710938 1631.324219 1014.496094 1634.199219 1029 C 1644.488281 1081 1663.261719 1127.445313 1695 1170 C 1702.414063 1179.730469 1710.207031 1189.503906 1719 1198 C 1721 1200 1726 1205.675781 1729.4375 1205.078125 C 1732.230469 1204.574219 1734 1195.351563 1735 1193 C 1740 1180.476563 1745 1167.800781 1749.496094 1155 C 1755.535156 1137.539063 1759.648438 1119.296875 1766 1102 C 1769 1107.3125 1770.425781 1113.824219 1775 1118 C 1779.882813 1097.734375 1779 1075.714844 1779 1055 C 1783 1060 1785.710938 1065.621094 1789 1071 L 1790 1071 C 1796.289063 1049.726563 1786.746094 1023.277344 1784 1002 L 1785 1002 C 1788 1007.816406 1793.433594 1011.183594 1799 1014.445313 C 1800.246094 1015.171875 1804.3125 1018.320313 1805.597656 1016.261719 C 1807 1014 1804.21875 1006.621094 1803.660156 1004 C 1801.492188 993.792969 1794.652344 979.277344 1795 969.117188 C 1795.476563 962 1805.386719 977 1807.390625 972.664063 C 1809.441406 968.261719 1807.847656 960.589844 1807.285156 956 C 1805.269531 939.613281 1797.871094 926.714844 1791 912 C 1797.613281 915.484375 1803.933594 920.660156 1811 923 C 1808 901.164063 1796.339844 886.644531 1786 868 C 1794.730469 872.46875 1803.878906 877.546875 1813 881 C 1812 864 1798 852 1789 839 C 1793 840 1805.773438 845.707031 1809.292969 843 C 1812.167969 840.574219 1806.398438 833.101563 1805 831 C 1798 819.761719 1787.46875 812.789063 1779 803 C 1788.363281 805 1797.371094 808 1807 808 C 1797.472656 783 1765 771.65625 1741 767 L 1741 766 C 1758.84375 763.746094 1773.664063 769.273438 1791 771 C 1781.316406 750 1756.351563 743.015625 1736 738 C 1747 732.476563 1759.210938 734.070313 1771 735 C 1762.972656 720.367188 1733 715.125 1718 715 L 1718 714 C 1734.355469 708.476563 1746.339844 710.273438 1763 711 C 1753.289063 695.113281 1718 693.171875 1702 697 C 1709.171875 690.605469 1718.640625 688 1728 686.578125 C 1730.539063 686.214844 1739.28125 687.140625 1740.652344 684.660156 C 1742 682.082031 1728.875 677.367188 1727 676.699219 C 1710.632813 671 1696.570313 672.191406 1680 675 C 1688.546875 663.152344 1701 665.535156 1712 659 C 1697.648438 653.585938 1680.878906 654.238281 1666 657 C 1671.167969 652.390625 1676.984375 651.035156 1683 648 C 1675.441406 643 1661.839844 644.464844 1653 644 L 1653 643 C 1658.804688 641.144531 1671.628906 641.769531 1675 637 C 1660.601563 634.03125 1650 635.570313 1636 638 L 1636 637 C 1640.203125 635.136719 1644 632.351563 1648 630 L 1648 629 C 1644.652344 628.152344 1639.210938 630.050781 1636.425781 628 C 1630.433594 623.5 1646.691406 618.800781 1649 618 C 1643 615.46875 1628 614.710938 1623.738281 620.277344 C 1619.992188 625 1620.53125 634.265625 1619.84375 640 C 1617.742188 657.585938 1615.875 676.269531 1617 694 C 1619.382813 727.496094 1620.355469 760.640625 1625.273438 794 C 1630.191406 827.386719 1638.601563 860.273438 1640.910156 894 C 1641.734375 906.015625 1641.328125 919.183594 1638.785156 931 C 1638 934 1633.738281 935.753906 1633.816406 938.3125 C 1634 949.179688 1640 960.261719 1640 972 M 873 876 C 865.828125 872.066406 862.394531 860.792969 858.191406 854 C 847 836.117188 835.523438 818.484375 823.832031 801 C 782.632813 739.371094 725.933594 683.691406 658 652.375 C 641.59375 644.8125 624.808594 638.144531 607 634.738281 C 602.214844 633.824219 594 630.640625 589.332031 632.042969 C 582.757813 634 595.40625 649.394531 588.679688 651.683594 C 573.898438 656.707031 564.507813 639.269531 555 631.664063 C 552.757813 630 543 624.191406 544.460938 620.5625 C 545.257813 618.496094 549.324219 619.011719 551 619 C 557.664063 619 564.335938 619 571 619 C 600.210938 619 630.308594 627.6875 657 639.148438 C 758.34375 682.671875 832 776.117188 873 876 M 1202 877 C 1221.8125 811.472656 1269.476563 753.355469 1318 707 C 1344.746094 681.386719 1374.714844 657.703125 1409 643 C 1436.820313 631.070313 1463.84375 623.0625 1494 620 C 1501.710938 619.007813 1520.34375 616.59375 1523.652344 627 C 1525 631.296875 1503.988281 630 1501 630.089844 C 1474.996094 632 1448.914063 638.34375 1425 648.578125 C 1357.703125 677.382813 1302.789063 730.546875 1260 789 C 1245.335938 809.308594 1233.1875 831.113281 1219.332031 852 C 1214 860 1209.5625 871.078125 1202 877 M 918.667969 647.667969 C 918.722656 647.722656 918.777344 648.777344 918.332031 648.332031 C 918.277344 648.277344 918.222656 647.222656 918.667969 647.667969 M 636 674 L 636 675 C 625.886719 674.203125 616 671.292969 606 670.167969 C 593.457031 668.765625 580.359375 669.296875 568 667 C 573.8125 664.558594 582.730469 665.648438 589 666 C 605 666.628906 620.839844 668.347656 636 674 M 1506 666 L 1506 667 C 1497.722656 669.445313 1487.636719 668.496094 1479 669.089844 C 1467.964844 670 1457 672.773438 1446 673 C 1461.835938 662.53125 1487.972656 666 1506 666 M 873 886 C 857.914063 875.34375 845.785156 857.230469 833.742188 843.285156 C 816.515625 823.339844 797.578125 804.789063 778 787.171875 C 729.625 743.636719 666.472656 709.425781 601 703.171875 C 578.773438 701.046875 557.839844 706.058594 536 707 C 542.835938 701.324219 555.402344 700 564 698.726563 C 589 695.03125 615 694.214844 640 699.199219 C 714 714.023438 775.910156 763 824 819 C 842 840 860 861.484375 873 886 M 1533 707 C 1511.867188 705.15625 1491.570313 701.082031 1470 703.171875 C 1400 710 1334.804688 749.246094 1285.285156 797.421875 C 1265.546875 816.621094 1247.320313 837.328125 1229 858 C 1221.84375 866.320313 1214.574219 879.371094 1205 885 C 1216 858.425781 1236.863281 834.246094 1255.835938 813 C 1303.246094 760 1362.632813 711.230469 1435 699 C 1459 694.816406 1484.902344 694.257813 1509 699 C 1515.789063 700.335938 1528.703125 701.167969 1533 707 M 840 882 C 831.226563 879.042969 823.292969 870.648438 816 865.011719 C 802 854.238281 787.855469 843.160156 773 833.695313 C 738.699219 812 699.804688 791.183594 659 785.300781 C 640 782.578125 622.800781 784.191406 604 785 L 604 783 C 618.898438 781.78125 633.941406 778.5625 649 779.042969 C 704.382813 780.808594 759.550781 804.4375 801 841 C 814.621094 852.808594 831.746094 865.433594 840 882 M 1476 785 L 1476 786 C 1462.785156 785.726563 1449.191406 782.347656 1436 783.09375 C 1390.882813 785.644531 1349 803.460938 1311 827.0625 C 1295 837 1279.894531 847.773438 1265.285156 859.34375 C 1255.644531 867 1246.171875 876.683594 1235 882 C 1241.390625 863.199219 1266.667969 844.71875 1282 833.128906 C 1320.5 804.027344 1366 782.179688 1415 780.039063 C 1435.976563 779.121094 1455.503906 784 1476 785 M 947 1181 L 946 1181 C 940.785156 1159.832031 933.828125 1139.152344 928.476563 1118 C 911.277344 1050.085938 902.722656 967.265625 829 935.71875 C 818.5625 931.253906 807.382813 928 796 927.089844 C 776.75 925.769531 758.417969 930.308594 741 938.308594 C 723.394531 946.398438 709.898438 957.019531 690 959 C 696.871094 947.535156 712 945.28125 722 938 C 711.734375 935.5625 702.832031 930.464844 692 930 C 694.847656 926 701.246094 925.082031 706 924.285156 C 718 922.261719 729 923.113281 741 923 C 731 913.511719 717.789063 907.125 704 906 L 704 905 C 721.804688 899.589844 750 899 768 904 C 759.464844 894.761719 742 891.554688 730 890 L 730 889 C 748.90625 884.5 770.960938 886.582031 790 889 C 786.269531 885 780.65625 883 776 880 C 782 878.296875 791.820313 884.476563 798 886.117188 C 822.558594 892.632813 845.445313 903.085938 866 918.117188 C 945.832031 976.5 981.652344 1088.199219 947 1181 M 1200 879 L 1199 880 L 1200 879 M 1293 881 L 1293 882 C 1288.253906 884.148438 1283.578125 886.148438 1280 890 C 1299.246094 885.019531 1319.488281 887.460938 1339 889 L 1339 890 C 1326.664063 892.554688 1315.394531 898 1304 903 L 1304 904 C 1317 902.074219 1329.707031 902 1343 902 C 1348.597656 902 1355 901.03125 1360 904 C 1349 908.703125 1335.246094 913 1329 924 C 1341.351563 920.53125 1353.496094 922.484375 1366 924 C 1371 924.546875 1378.933594 925.605469 1382 930 C 1377.886719 930.003906 1374 930.15625 1370 931.132813 C 1367 932 1352.671875 935.160156 1353.632813 939.59375 C 1354.179688 942.125 1362.816406 944.136719 1365 945.308594 C 1373 949.617188 1383.910156 955 1387 964 C 1380.511719 961.496094 1373.859375 958.179688 1367 957 C 1376 967 1391.417969 970 1400 980 C 1385.769531 976 1374.875 966.683594 1363 958.367188 C 1345.5 946.117188 1325.203125 933.308594 1304 929.003906 C 1290.546875 926.273438 1276.378906 926.09375 1263 929.375 C 1252 932.039063 1241.734375 936 1232 941.425781 C 1166.722656 978.792969 1161.933594 1058.40625 1144 1123 C 1139.605469 1139.511719 1136.855469 1163.5 1128 1178 C 1088.777344 1079 1139.167969 955.367188 1231 904.140625 C 1249.328125 894 1272 883.710938 1293 881 M 698 961 C 693.738281 968.359375 681.214844 974.535156 673 976 C 678.941406 970 690.179688 964.246094 698 961 M 783 976.324219 C 814.984375 971 821.59375 1021.511719 790 1026.675781 C 759 1031.738281 751.640625 981.550781 783 976.324219 M 671 977 L 670 978 L 671 977 M 1244 977.328125 C 1275 971.757813 1284 1019.675781 1253 1025.53125 C 1222.921875 1031.195313 1214.476563 982.613281 1244 977.328125 M 737 991 C 736 1003.132813 738 1011.136719 745.746094 1021 C 748 1024.019531 752.277344 1026.574219 753.800781 1030.089844 C 756.535156 1036.378906 753.980469 1047 755.675781 1054 C 760.1875 1073 778.222656 1089.09375 798 1090 C 817.238281 1090.800781 837.636719 1077.050781 844 1059 C 846.921875 1051 845.289063 1040.535156 849.175781 1033.039063 C 851.984375 1027.617188 867.476563 1012.722656 872.253906 1020.0625 C 896.332031 1057.0625 877.78125 1105.371094 840 1123.742188 C 810.726563 1138 773.8125 1134.519531 748 1114.484375 C 718.859375 1092 705 1054.488281 717.691406 1019 C 721.222656 1009.078125 726.980469 995.710938 737 991 M 1207 1011 C 1213.941406 1019.140625 1222 1031 1225.761719 1041 C 1228.882813 1049.65625 1229 1059 1233.929688 1067 C 1245.609375 1086.460938 1268 1094.511719 1289 1086 C 1295.601563 1083.285156 1301.960938 1079.378906 1306.699219 1074 C 1314.300781 1065.335938 1318.589844 1054.53125 1318.957031 1043 C 1319 1036.777344 1316 1029 1319 1023.015625 C 1321.511719 1018.175781 1327.714844 1015.058594 1332 1012 C 1334.476563 1010.234375 1342 1001.449219 1344.878906 1002 C 1350.785156 1003 1354.832031 1020.140625 1356 1025 C 1363 1051.09375 1357.734375 1078.789063 1340.878906 1100 C 1304.460938 1145.828125 1218.417969 1143.394531 1196.230469 1084 C 1186.84375 1059 1193.976563 1033.3125 1207 1011 M 1388 1019 C 1396.257813 1033.328125 1411.980469 1041 1428 1041 L 1428 1042 C 1426 1043.105469 1413.820313 1048.488281 1415.921875 1051.15625 C 1417.703125 1053.417969 1425.792969 1051.773438 1425.792969 1055.226563 C 1425.792969 1059.6875 1414.246094 1062.722656 1416.207031 1067.261719 C 1417.320313 1070 1432.546875 1069.308594 1430.652344 1073.433594 C 1427.363281 1080.617188 1406 1080.820313 1406 1091.683594 C 1406 1094.539063 1418.460938 1095.46875 1421 1097 C 1394.699219 1112.367188 1380.347656 1140 1355 1156.300781 C 1327.878906 1174 1294.898438 1182.792969 1263 1185.828125 C 1251.414063 1187 1239.507813 1184.714844 1228 1186 L 1235 1192 L 1235 1193 C 1227.476563 1192 1221.515625 1187.613281 1215 1184 C 1216.253906 1189.269531 1219.980469 1192.660156 1223 1197 C 1205.507813 1193.617188 1192.746094 1171.105469 1184.574219 1157 C 1182.367188 1153.191406 1175.484375 1144.171875 1179 1139.605469 C 1181.421875 1136.527344 1187 1139.046875 1190 1140.003906 C 1199.992188 1143.359375 1209.578125 1146.695313 1220 1148.574219 C 1256 1155.074219 1294.25 1156.085938 1328 1140.109375 C 1359 1125.371094 1379 1093.066406 1384.914063 1060 C 1386.554688 1050.664063 1387 1041.464844 1386.996094 1032 C 1386.941406 1027.464844 1385 1022.816406 1388 1019 M 855 1195 L 862 1184 C 855.746094 1186 850.554688 1189.628906 844 1191 C 844.664063 1190 847.460938 1186.574219 846 1185.195313 C 844.304688 1183.414063 836.320313 1185.117188 834 1185.425781 C 824 1186.738281 813.96875 1186 804 1185 C 771.742188 1182.175781 735.425781 1171.042969 710 1150.382813 C 688.265625 1132.722656 673.898438 1108.273438 648 1096 C 652.246094 1093.09375 663.242188 1095.0625 666 1091.011719 C 667.8125 1088.535156 662.523438 1084.714844 661 1083.46875 C 653.816406 1077.59375 643.976563 1076.578125 637 1071 C 640.203125 1069.3125 657.628906 1066.445313 655.363281 1063.105469 C 653.433594 1060.253906 642.207031 1057.820313 642.207031 1054.777344 C 642.207031 1050.253906 653.179688 1053.445313 654.652344 1050.304688 C 656 1047.335938 645.773438 1042.070313 644 1040 C 655.210938 1040 665.25 1036 675 1030.691406 C 676.949219 1029.632813 684.484375 1023.222656 686.476563 1024.34375 C 688.5625 1025.511719 687 1035.722656 687 1038 C 687 1051.386719 687.464844 1064.09375 691.507813 1077 C 703.382813 1115 736.265625 1143.132813 775 1150.390625 C 804.1875 1156 835.332031 1152.699219 864 1145.625 C 871.84375 1143.691406 879.339844 1141.203125 887 1138.667969 C 889.539063 1137.824219 893.84375 1135.660156 896.242188 1138 C 900.578125 1141.761719 893.921875 1152.316406 891.847656 1156 C 884 1169.753906 872 1192 855 1195 M 1067 1192 C 1073.285156 1213.25 1074.222656 1238.011719 1077 1260 L 1078 1260 C 1080.855469 1244.683594 1083.972656 1230.0625 1088 1215 L 1089 1215 C 1089 1228.601563 1087.839844 1243.722656 1091 1257 C 1094.1875 1250.492188 1095.441406 1243 1098 1236 L 1099 1236 C 1099 1244.003906 1099 1252.179688 1101 1260 L 1102 1260 C 1102.859375 1258 1103.707031 1256 1105 1254 C 1107.996094 1264.132813 1109 1278.328125 1110 1289 L 1111 1289 C 1111.691406 1287.613281 1111.984375 1287.140625 1113 1286 C 1114.660156 1291.613281 1115.285156 1301 1112 1306 C 1109.289063 1302.015625 1106.707031 1297.667969 1102.910156 1294.609375 C 1082.675781 1278.300781 1056.929688 1301.121094 1034 1298.828125 C 1018.972656 1297.328125 1001.859375 1285.1875 987 1287.707031 C 980.492188 1288.8125 974.496094 1293 970.46875 1298.015625 C 969 1300 966.457031 1306.792969 963.757813 1306.792969 C 961 1306.792969 961 1301.695313 961 1300 C 960.828125 1294.019531 958.792969 1282 964 1278 L 965 1286 C 971.417969 1278.628906 969.683594 1266 973 1257 C 975.304688 1260.234375 975.929688 1264.195313 977 1268 L 978 1268 C 980.574219 1257.183594 977.855469 1246.761719 977 1236 C 984.523438 1240.691406 983.664063 1252.167969 990 1258 L 989 1222 L 990 1222 C 994.824219 1230.488281 996 1240.519531 998 1250 L 999 1250 C 999 1232.210938 1004 1215.203125 1008 1198 L 1009 1198 C 1011.175781 1209.722656 1013.902344 1223.085938 1014 1235 L 1016 1235 C 1016.65625 1226.679688 1017.976563 1218.359375 1018 1210 C 1023 1213.789063 1025.648438 1223 1030 1228 L 1031 1211 L 1033 1211 C 1034 1219.484375 1033 1227.480469 1033 1236 L 1035 1236 C 1035 1223.480469 1039 1211.097656 1042 1199 L 1043 1199 C 1047.746094 1214 1051.761719 1230.339844 1053 1246 L 1055 1246 C 1055 1233.265625 1058.808594 1219.40625 1061.652344 1207 C 1062.816406 1202 1063.519531 1196 1067 1192 M 452 1229 L 451 1230 L 452 1229 M 554 1268 L 557 1272 C 555.242188 1270.621094 554.460938 1270.105469 554 1268 M 863 1314 C 851.214844 1317.476563 836 1310 824 1309.089844 C 789.933594 1306.578125 756 1303.53125 722 1302.039063 C 673.546875 1300 624 1301.140625 576 1307.285156 C 557.335938 1309.667969 538.523438 1312.273438 520 1315.613281 C 508.777344 1317.636719 497.414063 1321.507813 486 1322 C 492.484375 1317.101563 502.296875 1315.601563 510 1313.28125 C 526.832031 1308.210938 543.75 1304 561 1300.398438 C 633 1286 705.320313 1285.4375 778 1294.714844 C 798.234375 1297.296875 818.195313 1301.699219 838 1306.628906 C 845.574219 1308.511719 856.664063 1309.488281 863 1314 M 1600 1324 C 1503 1296.738281 1396.433594 1298.28125 1297 1305.089844 C 1268.296875 1307.054688 1239.523438 1314.773438 1211 1316 C 1216 1310.753906 1226 1310.09375 1233 1308.371094 C 1251.191406 1304 1269.441406 1299.464844 1288 1296.726563 C 1363.261719 1285.636719 1442.222656 1283.023438 1517 1299.425781 C 1537.539063 1304 1557.878906 1308.789063 1578 1315 C 1584.332031 1317 1596 1318.359375 1600 1324 M 919 1465 C 921.21875 1459.28125 925.382813 1455.378906 931 1453 L 931 1452 L 890 1451 C 892.847656 1447.3125 902.367188 1443.613281 903.21875 1439.171875 C 903.90625 1435.578125 895 1435.535156 893 1435.285156 C 881 1434 870.371094 1436.035156 859 1431 C 863.175781 1427.660156 877.792969 1426 877.792969 1419.132813 C 877.792969 1412.78125 855.269531 1414 851 1413.269531 C 834.578125 1411 818 1411.371094 802 1416 C 788.730469 1419.664063 775.53125 1426.671875 762 1429 C 775 1413.269531 805.636719 1408.621094 824 1401.398438 C 830.433594 1399 844.238281 1396.289063 845.621094 1388 C 847 1378.828125 834.523438 1379.367188 829 1378.714844 C 810.28125 1376.503906 789.378906 1378.078125 771 1382.117188 C 715 1394.382813 660 1410.589844 606 1429.34375 C 583.371094 1437.199219 561 1448.71875 538 1455 L 538 1454 C 601.695313 1411.066406 682 1392.132813 756 1376 C 775.875 1371.519531 796 1368.113281 816 1364.195313 C 822.363281 1363 833.472656 1362 836.332031 1355 C 840.59375 1344.722656 819.980469 1343.4375 814 1342.433594 C 787.238281 1338 760 1337 733 1338.039063 C 658 1341.316406 579.410156 1353.101563 508 1376.027344 C 488.242188 1382.371094 468.558594 1390 450 1399.246094 C 439.90625 1404.292969 428.863281 1413.449219 418 1416 C 425.328125 1405.808594 438.453125 1398.355469 449 1391.808594 C 474.570313 1376 502.261719 1364.144531 531 1355.28125 C 610.425781 1330.796875 688.574219 1327 771 1327 C 786.558594 1327 802.476563 1328 818 1327 C 828.441406 1326.195313 841.523438 1323 851.851563 1324.601563 C 857.523438 1325.492188 855.84375 1335.78125 864 1335.78125 C 870.378906 1335.78125 876 1328.117188 873.511719 1322.039063 C 872.652344 1320.011719 868.382813 1317.054688 869.34375 1314.660156 C 872 1308 887.421875 1309 893 1309 C 885.648438 1295.34375 910.613281 1289 919.984375 1295 C 930.886719 1302 936 1320.183594 944.871094 1330 C 956.636719 1343.054688 973.425781 1348.355469 985.699219 1360.4375 C 997.609375 1372.164063 1003.378906 1390 1011.800781 1404 C 1015.796875 1410.714844 1019.707031 1417.464844 1024 1424 C 1025.355469 1426.058594 1028.785156 1429.726563 1028 1432.4375 C 1027.34375 1435.601563 1015.855469 1438 1013 1439.308594 C 997.675781 1446.324219 983.402344 1456.519531 967 1461 C 951 1465.300781 935.46875 1467.082031 919 1465 M 1181 1309 C 1190.589844 1309.199219 1199.675781 1313.074219 1209 1315 C 1204.242188 1322 1196 1332.054688 1209 1336.132813 C 1220.351563 1339.710938 1219 1324.804688 1226 1324.316406 C 1235.304688 1323.683594 1245.726563 1326.554688 1255 1327 C 1274.585938 1327.816406 1294.390625 1327 1314 1327 C 1407.335938 1327 1499.261719 1332.820313 1587 1368.199219 C 1609.527344 1377.285156 1632.605469 1387.761719 1652 1402.578125 C 1658 1407.207031 1666 1411.257813 1670 1418 C 1658.371094 1414.027344 1648.222656 1405.464844 1637 1400.308594 C 1612 1389 1586.261719 1379.628906 1560 1371.71875 C 1489 1350.339844 1414.328125 1345.148438 1341 1338.171875 C 1313.785156 1335.578125 1284.867188 1338.121094 1258 1342.4375 C 1252.425781 1343.335938 1230.921875 1345.070313 1234.53125 1355 C 1236.945313 1361.46875 1249.226563 1362.53125 1255 1363.609375 C 1275.351563 1367.417969 1295.816406 1371 1316 1375.5 C 1392.839844 1393.132813 1476.539063 1411.015625 1544 1454 L 1544 1455 C 1534 1453.277344 1524.410156 1447.6875 1515 1444.003906 C 1502.589844 1439.140625 1489.652344 1435.359375 1477 1431.167969 C 1420.980469 1412.617188 1363.230469 1392.816406 1305 1382.679688 C 1285 1379.21875 1267 1378.765625 1247 1379.003906 C 1240.941406 1379.074219 1228.503906 1379.628906 1227.972656 1388 C 1227.472656 1395.832031 1241.644531 1398.476563 1247 1400.601563 C 1269.351563 1409.460938 1291.386719 1417.40625 1313 1428 L 1313 1429 C 1293.324219 1426.296875 1274.917969 1415.542969 1255 1412.4375 C 1244.804688 1411 1235 1413.101563 1225 1414 C 1217.855469 1414.492188 1203 1413.359375 1197.296875 1418 C 1189.921875 1423.730469 1216.179688 1428 1214.652344 1431.535156 C 1212.984375 1435.558594 1204.714844 1437.609375 1201 1438.707031 C 1186.585938 1443 1172.457031 1441.316406 1158 1444 L 1158 1445 C 1165.703125 1446.59375 1181.539063 1450.273438 1186 1457 C 1179.484375 1457.140625 1151.460938 1459.347656 1153 1467 C 1121.386719 1467 1099.894531 1457.746094 1072 1443.753906 C 1067.8125 1441.652344 1048.960938 1435.789063 1047.828125 1431.570313 C 1046.96875 1428.359375 1050.894531 1424.433594 1052.460938 1422 C 1057.699219 1414 1062.460938 1405.34375 1067.398438 1397 C 1074.882813 1384.347656 1080.5 1368.691406 1091.175781 1358.289063 C 1103.257813 1346.511719 1119 1340.449219 1130.960938 1328 C 1139.714844 1318.828125 1143.308594 1303 1153 1295.433594 C 1161.394531 1289 1185.773438 1296.804688 1181 1309 M 1177 1327.707031 C 1163.878906 1329.410156 1167.304688 1348.4375 1180 1346.621094 C 1192.859375 1344.777344 1188.894531 1326.164063 1177 1327.707031 M 892 1329.027344 C 881.582031 1335 891.316406 1350.503906 901.957031 1344.683594 C 913 1338.578125 902.265625 1323.316406 892 1329.027344 M 765 1350 L 765 1351 C 695.613281 1367.71875 627.542969 1391.460938 564 1424.257813 C 547.195313 1433 530.6875 1442.09375 515 1452.671875 C 505.753906 1459 497 1467.207031 487 1472 C 500.890625 1451.175781 527 1436.496094 548 1423.574219 C 588.753906 1398.320313 633.265625 1380.039063 679 1366 C 706.433594 1357.539063 736.210938 1350 765 1350 M 1604 1475 C 1581.546875 1462.085938 1561.246094 1446.179688 1538 1434.257813 C 1466.832031 1397.753906 1390.953125 1372 1314 1351 C 1318.933594 1349.230469 1325.773438 1351.570313 1331 1352 C 1349.300781 1353.164063 1368.378906 1358.144531 1386 1363.140625 C 1443.402344 1379.410156 1496.292969 1402.167969 1548 1432 C 1561 1439.339844 1572.84375 1448.5 1585 1457.292969 C 1591.488281 1462 1600.335938 1467.703125 1604 1475 M 856 1352.832031 C 843.480469 1356.816406 849.925781 1375.367188 862.984375 1370.398438 C 874.175781 1366.136719 866.515625 1349.496094 856 1352.832031 M 1211 1353.703125 C 1198.230469 1358.074219 1205.269531 1376.628906 1216.996094 1372.253906 C 1229.628906 1367.539063 1223.875 1349.304688 1211 1353.703125 M 893 1368.746094 C 882.355469 1373 890.417969 1388.414063 900.980469 1384 C 912.332031 1379.234375 903 1364.757813 893 1368.746094 M 1175 1368.703125 C 1164 1370.289063 1167.351563 1386.722656 1177.996094 1385.257813 C 1189.804688 1383.632813 1187.296875 1367 1175 1368.703125 M 865 1387.027344 C 854.824219 1392.628906 865.808594 1405.605469 874.890625 1400.542969 C 884.832031 1395.003906 874 1382.085938 865 1387.027344 M 1199 1387.027344 C 1188.90625 1392.582031 1199.738281 1406.070313 1208.8125 1400.820313 C 1218.941406 1395 1208.34375 1382 1199 1387.027344 M 792 1391 L 792 1392 C 767.855469 1401.554688 743.523438 1411.078125 720 1422.121094 C 702.546875 1430.308594 685 1441.710938 667 1448 C 672 1438.640625 686 1433 695 1427.550781 C 721.855469 1411.445313 759.882813 1391.089844 792 1391 M 1415 1451 C 1369.488281 1435.453125 1328.296875 1401.3125 1280 1393 L 1280 1391 C 1314.28125 1391.730469 1353 1412.097656 1382 1428.71875 C 1392.832031 1435 1407 1441.207031 1415 1451 M 898 1402.574219 C 886.234375 1406.160156 895.359375 1422.464844 905.960938 1419.5625 C 918.285156 1416.1875 909.636719 1399.050781 898 1402.574219 M 1166 1404.742188 C 1155.183594 1409.144531 1162.652344 1425.164063 1173 1421.257813 C 1186.359375 1416.210938 1178.925781 1399.519531 1166 1404.742188 M 824 1433 L 824 1434 C 813.835938 1439.414063 802.378906 1442.25 792 1447.257813 C 780 1453 769 1461 757 1466 C 768.234375 1447.09375 802.878906 1434 824 1433 M 1313 1462 L 1313 1463 C 1297.90625 1460.277344 1282.464844 1448 1268 1442.203125 C 1261.351563 1439.570313 1251.976563 1438.246094 1247 1433 C 1271 1433.496094 1294.433594 1448.238281 1313 1462 M 854 1448 C 850.625 1454 841.664063 1457.558594 836 1461.332031 C 823.277344 1469.8125 812 1481.242188 799 1489 C 807.648438 1469 832.390625 1450.792969 854 1448 M 1277 1492 C 1266.722656 1485 1257.472656 1476.316406 1247 1469.332031 C 1237.628906 1463.085938 1226 1457.773438 1218 1450 C 1224.925781 1448.253906 1232 1452.019531 1238 1455.429688 C 1252.742188 1464 1269.527344 1476.292969 1277 1492 M 1110 1496 C 1095.683594 1494.191406 1103.53125 1499.699219 1109 1507 C 1098.511719 1506.546875 1090.535156 1501.46875 1081 1498 C 1084 1508.625 1090.925781 1516.117188 1097 1525 C 1088 1524 1080.210938 1520.402344 1073 1515.074219 C 1071 1513.6875 1065.828125 1507.042969 1063.433594 1507.632813 C 1061.5 1508.105469 1061.992188 1512.625 1062 1514 C 1062 1520 1063.25 1526.0625 1064 1532 C 1056.96875 1528.691406 1052.496094 1515.097656 1045.378906 1513.78125 C 1039.773438 1512.746094 1038 1533.4375 1038 1537 L 1037 1537 C 1033.304688 1530.640625 1031.371094 1523.757813 1028.597656 1517 C 1027.902344 1515.304688 1026.714844 1511.054688 1024.332031 1511.054688 C 1018.90625 1511.054688 1012.519531 1530 1005.777344 1526.65625 C 1002 1524.828125 1009.257813 1508.523438 1005 1505 C 1003.277344 1503.449219 999.296875 1507.703125 997.960938 1508.605469 C 991.859375 1512.734375 985.195313 1516.289063 978 1518 C 980.179688 1513.296875 993.984375 1500.441406 989.210938 1494.605469 C 985.882813 1490.535156 970.808594 1495.792969 966 1496 C 970.636719 1487.546875 985.558594 1483.253906 994 1479.375 C 1007 1473.34375 1024 1461.761719 1039 1462.128906 C 1052.4375 1462.460938 1065.960938 1471.523438 1078 1476.71875 C 1086.59375 1480.425781 1106.871094 1486.523438 1110 1496 M 1583 1663 C 1585.898438 1655.085938 1590.804688 1648.125 1593.480469 1640 C 1599.828125 1620.71875 1598.929688 1599.238281 1592.972656 1580 C 1590.992188 1573.597656 1589.675781 1565 1585 1560 C 1585 1587.457031 1584.734375 1614.644531 1572.242188 1640 C 1566.75 1651.152344 1559.261719 1663.011719 1546 1665 C 1548.5 1651 1552.402344 1640.683594 1549.398438 1626 C 1548.566406 1622 1547.546875 1614 1541.980469 1614.003906 C 1532.992188 1614.015625 1527.28125 1627.3125 1520 1631 C 1524 1611.164063 1527.753906 1587.328125 1519.570313 1568 C 1517.617188 1563.386719 1505.363281 1544.234375 1499.226563 1552.203125 C 1493.445313 1559.710938 1494.351563 1574.054688 1493.960938 1583 C 1493 1602.757813 1493.394531 1624.035156 1486.921875 1643 C 1484 1651.558594 1480 1666.261719 1470 1668.519531 C 1450.417969 1673 1454.449219 1644.363281 1455 1631 C 1455 1629 1458.519531 1616.535156 1456.472656 1616.257813 C 1452.894531 1615.769531 1447.421875 1622 1445.175781 1624.171875 C 1434.289063 1635.199219 1435.789063 1657.492188 1423.816406 1666.109375 C 1411 1675.3125 1399 1665.523438 1395.761719 1653 C 1389.992188 1631 1396.539063 1608.445313 1401 1587 C 1383.457031 1597 1374.238281 1615.136719 1374 1635 C 1373.90625 1643.238281 1375.675781 1651 1376.710938 1659 C 1376.984375 1661.140625 1377.6875 1665.339844 1375.398438 1666.683594 C 1370.578125 1669.507813 1360.640625 1663.421875 1357.765625 1660 C 1348.667969 1648.742188 1347.863281 1630.71875 1349.171875 1617 C 1352.808594 1578.777344 1372 1542 1396.871094 1513 C 1408.789063 1499.152344 1423.214844 1486 1442 1483.300781 C 1453.875 1481.597656 1468.21875 1482.082031 1479 1488 C 1484 1490.601563 1493.308594 1501.824219 1498.714844 1501.460938 C 1503.808594 1501.113281 1511.367188 1493 1516 1490.3125 C 1532.578125 1481.261719 1553.214844 1479.640625 1569 1491.160156 C 1579.953125 1499.152344 1587.414063 1511.574219 1592.398438 1524 C 1603.710938 1552.179688 1609.363281 1582.78125 1608 1613 C 1607 1633.824219 1602.328125 1652 1583 1663 M 692 1587 C 700 1606.609375 703 1631.050781 698.484375 1652 C 695.792969 1664.335938 684 1674.6875 671 1667.011719 C 663.433594 1662.460938 662.175781 1649.675781 659.496094 1642 C 655.398438 1630.273438 647.90625 1620.21875 637 1614 C 637.671875 1622.445313 639.996094 1630.453125 640 1639 C 640 1646.507813 641 1661.292969 635.859375 1667.398438 C 625.855469 1679.003906 613.183594 1657.484375 610.308594 1651 C 600.550781 1629 601.703125 1604.410156 600 1581 C 599.511719 1572.617188 600.742188 1557.09375 594.386719 1550.542969 C 588.863281 1545 576 1562.6875 574.605469 1567 C 566.882813 1588.617188 570.871094 1612.097656 575 1634 C 570.5625 1630.578125 567.660156 1625.664063 563.570313 1621.804688 C 560.628906 1619.027344 555 1613.421875 550.46875 1614.273438 C 546.808594 1615 545.714844 1620.035156 544.859375 1623 C 542.386719 1631.578125 541.859375 1642.195313 543.664063 1651 C 544 1653.15625 548.382813 1663.183594 545.382813 1664.171875 C 537.171875 1667 526 1648.582031 523.484375 1643 C 510 1615.148438 510.769531 1588 509 1558 L 508 1558 C 500.214844 1586.515625 493 1609.128906 500.335938 1639 C 502.324219 1647.277344 507 1654.125 510 1662 C 490.589844 1652 487.257813 1633.675781 485.910156 1614 C 483.824219 1583.523438 489.46875 1550 502.230469 1522 C 507.632813 1510.160156 514 1498.34375 525 1490.632813 C 541 1479.273438 561.644531 1482.066406 578 1490.78125 C 582.578125 1493.222656 589.824219 1502 594.910156 1501.796875 C 599.664063 1501.738281 608.316406 1491.308594 613 1488.796875 C 624 1482.824219 637.601563 1482 650 1483.171875 C 668 1485 682.652344 1498 694 1511 C 719.199219 1539.5 739.175781 1576.0625 743.714844 1614 C 745.347656 1627.65625 744.964844 1647.496094 736.363281 1659 C 733.410156 1663 723.734375 1669.496094 718.355469 1667.304688 C 715.746094 1666.238281 716.816406 1662.09375 717 1660 C 718.363281 1652.234375 719.996094 1645 720 1637 C 720 1616.210938 711.835938 1596.382813 692 1587 M 786 1571 C 786.363281 1576.359375 789.90625 1582 791.773438 1587 C 796.589844 1600.105469 799.886719 1616.722656 794 1630 C 790.703125 1638 783 1645 774 1643 C 787.785156 1620.074219 769.617188 1608.410156 757.699219 1590 C 748.988281 1576.542969 743 1561.40625 736.222656 1547 C 731.632813 1537.429688 721.90625 1525.082031 727.457031 1514 C 736 1496.683594 762.238281 1503 776 1509.308594 C 807.273438 1523.730469 832.546875 1559.527344 834.910156 1594 C 835.730469 1606 833.960938 1619 827 1629 C 825.972656 1630.652344 819.644531 1640.207031 816.9375 1638 C 814.953125 1636.101563 816.625 1631.164063 816.828125 1629 C 817.511719 1622 817 1614.019531 815.484375 1607 C 811.855469 1590.371094 798.917969 1580.394531 786 1571 M 1315 1644 C 1281 1639.605469 1290.859375 1593 1304 1573 C 1277.546875 1581 1266.355469 1612 1271 1637 C 1257 1630.1875 1252.914063 1607 1254.71875 1593 C 1259.203125 1558.460938 1282.210938 1525.066406 1314 1509.785156 C 1328.5 1502.8125 1358.539063 1495.671875 1365.195313 1517 C 1368.753906 1528.394531 1360 1540.28125 1355.246094 1550 C 1348.183594 1564.230469 1341.96875 1579 1332.910156 1592 C 1324.929688 1603.585938 1308.804688 1613.265625 1309.761719 1629 C 1310 1634.570313 1313 1639 1315 1644 M 435 1581 C 416.375 1597 419.28125 1626.613281 422 1648 C 401.730469 1645 396.449219 1625.621094 394.285156 1608 C 391 1582 401.335938 1552.125 416 1531 C 422.832031 1521.242188 432 1511.304688 444 1508.339844 C 454.308594 1505.789063 465.410156 1506.777344 475 1511.320313 C 477.664063 1512.582031 483.570313 1515 484 1518.210938 C 484.941406 1524 473.355469 1536.359375 470.863281 1542 C 463 1559.421875 460.378906 1578.167969 459 1597 C 458 1610.667969 459.996094 1624.335938 460 1638 C 460 1640.613281 461.960938 1650.003906 459.382813 1651.355469 C 452.964844 1654.726563 444.609375 1643.320313 442.175781 1639 C 432.609375 1622.007813 435 1599.710938 435 1581 M 1658 1580 C 1656.761719 1599.257813 1660.707031 1620 1652 1638 C 1650 1642.347656 1641 1655.078125 1634.617188 1651.644531 C 1632 1650.246094 1634 1640.648438 1634 1638 L 1634 1596 C 1633.992188 1577.464844 1629.859375 1559.023438 1622.574219 1542 C 1619.957031 1536 1609 1524.140625 1609.191406 1518.175781 C 1609.277344 1515.101563 1613.6875 1513.011719 1616 1511.820313 C 1623.628906 1508 1633.484375 1506.238281 1642 1507.285156 C 1656.636719 1509.089844 1667.191406 1518.730469 1675.984375 1530 C 1694.289063 1553.457031 1702.234375 1587.734375 1697.703125 1617 C 1696 1627.265625 1692.289063 1638.425781 1682.996094 1644.070313 C 1681 1645.265625 1675.328125 1649 1673 1647 C 1671.3125 1645.355469 1672.855469 1641.777344 1673.253906 1640 C 1674.628906 1634 1674 1627.238281 1674 1621 C 1673.929688 1606.550781 1667.285156 1591 1658 1580 M 1920.667969 1622.332031 C 1920.222656 1622.777344 1921.277344 1622.722656 1921.332031 1622.667969 C 1921.777344 1622.222656 1920.722656 1622.277344 1920.667969 1622.332031 "/>
</g>
</svg>
