<?xml version="1.0" encoding="UTF-8"?>
<svg xmlns="http://www.w3.org/2000/svg" xmlns:xlink="http://www.w3.org/1999/xlink" width="2000pt" height="2000pt" viewBox="0 0 2000 2000" version="1.1">
<g id="surface1">
<path style=" stroke:none;fill-rule:nonzero;fill:rgb(0%,0%,0%);fill-opacity:1;" d="M 1030 709 L 1030 711 C 936 711 837 710.6875 751 753.753906 C 730.90625 763.800781 712.535156 776.171875 695 790.199219 C 687.476563 796.21875 678.613281 802.09375 673 810 C 688.972656 803.28125 703.1875 791 719 783.257813 C 758.335938 764.226563 801.339844 749.1875 844 739.574219 C 860.578125 736 878 729.085938 894.984375 727.523438 C 899.5 727.105469 905.757813 734.113281 903.757813 738.722656 C 901.878906 743.058594 890 744 886 745.140625 C 868.824219 750.351563 851.398438 756 835 763.304688 C 790.589844 783.269531 749 806.730469 713 840 C 702.371094 849.699219 687.753906 860 681 873 C 690.945313 867.253906 699.734375 858.292969 709 851.375 C 722.65625 841.175781 737.339844 832.277344 752 823.601563 C 783 805.257813 816.660156 791 850 777.394531 C 910.574219 753 974.777344 731.773438 1041 737 L 1041 738 C 1014.179688 741.464844 987.429688 747.738281 961 753.574219 C 950 756 933.6875 757.195313 924.320313 763.417969 C 917.511719 768 931.496094 776.15625 921.976563 779.816406 C 896.976563 789.425781 871.363281 796 847 807.484375 C 799.882813 830 757.84375 866.761719 731.574219 912 C 726.84375 920.148438 720.332031 928.210938 717 937 C 726.792969 931.390625 734.230469 919.105469 742 911.039063 C 756.355469 896.394531 772 882.183594 788 869.398438 C 822.527344 841.765625 861 823 901 804.691406 C 940.261719 786.710938 984.980469 767 1029 766 L 1029 767 C 1006 772.289063 983.359375 782.09375 962 791.695313 C 957 794 942.59375 797.207031 940.40625 802.496094 C 939 806 943 813.535156 943.988281 817 C 947.191406 828.6875 949.675781 841 950.828125 853 C 954 886.425781 950.625 919 940.796875 951 C 923.605469 1007.144531 884.664063 1055 860.308594 1108 C 835.429688 1162.183594 824.21875 1221.070313 796.449219 1274 C 780.839844 1303.746094 768.234375 1334.746094 756 1366 C 752.949219 1373.800781 750.5625 1382 748 1390 C 747.421875 1392.277344 745.472656 1396.027344 746.648438 1398.398438 C 748.179688 1401.484375 757 1400 760 1400 L 800 1400 C 832.914063 1400 866.195313 1398.660156 899 1401 C 917.585938 1402.183594 936.738281 1404.636719 953 1414.449219 C 982.503906 1432.257813 990.367188 1466 998 1497 C 1006 1529.527344 1013.921875 1560.53125 1034 1588 C 1038.855469 1594.378906 1044 1600 1050 1605.15625 C 1054.667969 1609.257813 1059.484375 1613.269531 1065 1616.203125 C 1068.445313 1618.035156 1072 1619.242188 1076 1619.707031 C 1108.414063 1623.582031 1108.511719 1578.738281 1110.710938 1558 C 1112.460938 1541.519531 1107.289063 1524.335938 1106 1508 L 1107 1508 C 1115.617188 1538.140625 1126.679688 1566.320313 1116.25 1598 C 1112 1610.476563 1103 1619.230469 1090 1621.054688 C 1088.4375 1621.273438 1083.628906 1622 1085.753906 1624.496094 C 1095 1636 1123.835938 1632 1136 1629.449219 C 1188.355469 1619 1217.480469 1568.050781 1220.910156 1518 C 1223.597656 1478.777344 1206.289063 1440 1185 1408 C 1141.945313 1343.390625 1075.335938 1289.476563 994 1293.039063 C 927.417969 1296 875.519531 1329 821 1363 C 832.78125 1346.277344 851.78125 1332.617188 869 1322 L 869 1321 C 854.488281 1324.03125 838.300781 1330.03125 825 1336.605469 C 817.6875 1340.21875 810.773438 1345.539063 803 1348 C 830.320313 1320.679688 864.652344 1304 901 1291.832031 C 972 1268.046875 1046.582031 1263.425781 1112 1305.539063 C 1136.847656 1321.535156 1158.648438 1342.699219 1177.871094 1365.003906 C 1185.796875 1374.199219 1194 1393 1204.324219 1399 C 1207.898438 1401.113281 1213.996094 1400 1218 1400 L 1430 1400 C 1434.886719 1400 1441.300781 1399 1445.828125 1401.089844 C 1456.847656 1406.324219 1465 1418.546875 1479 1414.007813 C 1485.671875 1412 1490.84375 1405.46875 1494.839844 1400 C 1504.980469 1386.125 1515.203125 1363.382813 1516 1346 L 1518 1346 C 1518 1369.6875 1515.605469 1398.707031 1493.996094 1413.402344 C 1477.707031 1424.480469 1454.554688 1420 1436 1420 C 1394.394531 1420 1352.679688 1421 1311 1421 C 1287.277344 1421 1263.691406 1420 1240 1420 C 1236.792969 1420 1217.710938 1418.253906 1217.816406 1422.316406 C 1217.929688 1426.640625 1224.175781 1438.65625 1228.210938 1440.398438 C 1232.761719 1442.359375 1240 1441 1245 1441 C 1258.390625 1441 1271.621094 1440 1285 1440 C 1320.699219 1440 1356.273438 1441 1392 1441 C 1407.375 1441 1428.234375 1437.21875 1443 1441 C 1449.6875 1442.6875 1455.402344 1449.148438 1461 1453 C 1468.253906 1458 1477.648438 1461.011719 1484 1467 L 1249 1467 C 1245.78125 1467 1240.320313 1466 1237.421875 1467.601563 C 1234.777344 1469.089844 1238 1486 1240 1488.257813 C 1243.652344 1492.640625 1260.820313 1490.257813 1266 1489.574219 C 1288.367188 1486.640625 1312.4375 1489 1335 1489 C 1431.726563 1489 1528.292969 1490 1625 1490 C 1655.601563 1490 1686.320313 1489 1717 1489 C 1724.320313 1489 1731.683594 1488.769531 1739 1489.039063 C 1741.316406 1489.125 1745 1490.214844 1746.398438 1487.644531 C 1748 1484.289063 1748.460938 1469.460938 1744.683594 1467.601563 C 1739 1465 1728 1467 1722 1467 L 1666 1467 L 1666 1466 C 1678.417969 1460.195313 1689 1445 1702 1441.433594 C 1710 1439.246094 1721.671875 1439.332031 1730 1440.425781 C 1733.871094 1441 1742 1442.617188 1745.398438 1440 C 1748.839844 1437.246094 1748.367188 1422 1743.851563 1420.433594 C 1738.660156 1418.753906 1731.421875 1420 1726 1420 C 1713.644531 1420 1696.824219 1417.496094 1685 1421 C 1680.554688 1422.199219 1676.8125 1427.355469 1673 1430 C 1665.316406 1435.238281 1656.277344 1439.628906 1647 1441 C 1656.472656 1432.726563 1665 1424.394531 1670.730469 1413 C 1701.769531 1351.070313 1636.261719 1286.464844 1579 1274.808594 C 1539.703125 1266.808594 1499.3125 1275.246094 1466 1297.355469 C 1448.664063 1309 1433.796875 1325.714844 1416 1336 C 1422.988281 1324 1435 1314 1438.839844 1300 C 1442.726563 1285.832031 1442 1270.503906 1443 1256 C 1446.984375 1199.128906 1435.28125 1141.195313 1412.574219 1089 C 1392.8125 1043.570313 1365.765625 1001.660156 1357.433594 952 C 1351.664063 917.597656 1351.808594 880.027344 1359.882813 846 C 1362.71875 834.0625 1366.824219 822.1875 1371.863281 811 C 1373.476563 807.425781 1378.996094 801.324219 1378 797.273438 C 1377 792.644531 1363.910156 789.4375 1360 787.695313 C 1341 779.222656 1319.46875 775.320313 1301 766 C 1318.84375 764.054688 1341.847656 772.734375 1359 777.359375 C 1380.953125 783.28125 1401 793 1422 801.773438 C 1460.449219 818.03125 1496 835.261719 1527 864.089844 C 1544.5625 880.449219 1560.695313 898.355469 1576.914063 916 C 1583.679688 923.359375 1588.929688 933.058594 1597 939 C 1572.792969 881.164063 1525.496094 830 1470 801.257813 C 1454.730469 793.382813 1438.265625 788.347656 1422 783 C 1416 781.070313 1408.539063 780.457031 1403.191406 777.347656 C 1396.554688 773.488281 1411 765 1402.851563 761.484375 C 1375.996094 750.0625 1341.601563 747.609375 1313 742.464844 C 1304.339844 741 1295.183594 740.476563 1287 737 C 1306.402344 732.378906 1331.335938 738 1351 739.832031 C 1430.804688 747.808594 1509.867188 787.394531 1577 829.425781 C 1590.253906 837.722656 1602.863281 847 1615 856.804688 C 1621.449219 862.039063 1627.46875 869.417969 1635 873 C 1602.574219 826.539063 1547.914063 788.6875 1497 765.308594 C 1479 757.117188 1460.71875 751 1442 745.175781 C 1438.3125 744.03125 1424.851563 743.117188 1423.304688 739.484375 C 1421.664063 735.632813 1428 727.613281 1432 727.8125 C 1447.332031 728.609375 1465 735 1480 738.730469 C 1522 749.597656 1562.851563 764.179688 1602 783.257813 C 1616.652344 790.398438 1629.40625 801.097656 1644 808 C 1635 795.363281 1620 785.621094 1608 776.207031 C 1545 727.378906 1465.800781 717.347656 1389 712.089844 C 1362.257813 710.257813 1332 715.214844 1306 709 C 1315.246094 705.097656 1328 705.609375 1338 705 C 1359.394531 703.410156 1381.550781 701.246094 1403 702.035156 C 1411 702.335938 1434.308594 707.515625 1440 700.683594 C 1447.296875 692 1450.804688 676.519531 1455 666 C 1467.855469 633.757813 1476.488281 597 1474.960938 562 C 1473.863281 537 1467.261719 510 1469 485 C 1469.855469 474.570313 1474.445313 464 1477.410156 454 C 1482.191406 438 1486.261719 421.425781 1489.550781 405 C 1497.839844 363.625 1498.492188 324 1497.996094 282 C 1497.625 251 1488 217.363281 1475.851563 189 C 1471.1875 178.140625 1464.335938 163.496094 1452 160 C 1434.484375 155 1411.714844 170.800781 1398 180 C 1354 209.515625 1319 250.773438 1290.691406 295 C 1284 305.175781 1279 316.199219 1273.753906 327 C 1271.84375 330.816406 1269.953125 337.667969 1266.503906 340.304688 C 1262.878906 343.078125 1255.703125 339.222656 1252 338 C 1239.566406 334 1226.742188 332 1214 329.117188 C 1183.703125 322.609375 1148.433594 323.28125 1118 328.613281 C 1105.542969 330.796875 1093.265625 333.558594 1081 336.628906 C 1076.445313 337.765625 1069.707031 341.226563 1065 340.636719 C 1060.390625 340.046875 1058 330.652344 1056.246094 327 C 1049.21875 313 1041.359375 299.0625 1032.667969 286 C 1005 244.589844 970.289063 205 928 178.054688 C 914 169.214844 893.574219 155 876 159.558594 C 856.769531 164.601563 848 196.539063 843 213 C 825.824219 269.8125 824.90625 332.765625 835.386719 391 C 838.898438 410.519531 842.984375 430 848.425781 449 C 851.933594 461.289063 857.390625 474.105469 857.960938 487 C 858.824219 506.585938 854.425781 526.488281 853 546 C 851.238281 573.007813 852.707031 601.683594 859 628 C 863.671875 646.605469 870.296875 664.257813 877.398438 682 C 879.589844 687.46875 882.507813 698.574219 887.558594 702 C 890.480469 704 895.65625 703 899 703 C 908.695313 703 918.277344 702 928 702 C 962.34375 702 995.859375 707.535156 1030 709 M 1107 635 C 1104.621094 632.808594 1099.902344 619 1096.488281 620.207031 C 1091.941406 622 1086.898438 630.125 1083 633.410156 C 1073.457031 641.449219 1061.433594 647.582031 1049 649.675781 C 1006.402344 657 953.234375 632.554688 953 584 C 952.964844 576.183594 951.761719 567 956 560 C 960.191406 574.054688 962.621094 588.128906 970.464844 601 C 978.191406 613.6875 989.453125 622.121094 1001 631 C 991.519531 617.542969 980.875 609.613281 979.171875 592 C 975.230469 551.292969 1011.550781 514.726563 1053 531.453125 C 1093.992188 548 1106.890625 595 1107 635 M 1331 627 C 1353 614.390625 1370.894531 586.707031 1372 561 C 1377.574219 564.613281 1376 577 1375.984375 583 C 1375.351563 608.796875 1360.355469 629.667969 1338 641.820313 C 1313.316406 655.242188 1278.601563 654.464844 1255 639.136719 C 1246.503906 633.617188 1241.484375 624.308594 1233.59375 618.636719 C 1230 616.054688 1225.261719 630.339844 1224 633 C 1220.34375 624.285156 1224.570313 609.128906 1226 600 C 1230.386719 574 1246 543 1272 532.617188 C 1314.957031 515.652344 1357.816406 550.464844 1349.535156 596 C 1347 609.230469 1338.3125 616.621094 1331 627 M 1036 531.441406 C 1005.824219 535.027344 991.535156 566.3125 998.761719 594 C 1003.40625 611.808594 1020 630.058594 1040 627.714844 C 1068 624.398438 1084.285156 598.050781 1079.535156 571 C 1075.9375 550.496094 1059 528.691406 1036 531.441406 M 1283 532.441406 C 1231.808594 540.683594 1239.910156 636 1293 627.5625 C 1348.265625 619 1339.894531 523.277344 1283 532.441406 M 1022 551.476563 C 1033.445313 549.058594 1037 568.210938 1024.996094 570.421875 C 1013.308594 572.558594 1010.175781 554 1022 551.476563 M 1274 551.449219 C 1285.925781 548.511719 1290.347656 567.449219 1278 570.386719 C 1266.78125 573.054688 1263 554.15625 1274 551.449219 M 319 565.425781 C 306.378906 567.085938 293.609375 569.113281 283 576.785156 C 263.175781 591.125 256.683594 619.28125 275.4375 637.535156 C 290.589844 652.28125 314.625 652 334 656.503906 C 368.679688 664.71875 393.398438 691 394.960938 727 C 396.425781 760.753906 374.808594 794.53125 361 824 C 340.832031 867.476563 325.753906 911.3125 329 960 C 333 1017.410156 361.699219 1070 401 1111 C 443.410156 1155.308594 494.566406 1187.628906 522.753906 1244 C 539 1276.632813 549 1313 554 1349 C 555.582031 1360.503906 557.925781 1372.378906 558 1384 C 558 1387.589844 557.277344 1396.246094 560 1399 C 561.917969 1401 566.597656 1400 569 1400 L 663 1400 C 672.210938 1400 685.957031 1402.601563 694.683594 1399.683594 C 698.871094 1398.28125 696.847656 1389.222656 696.425781 1386 C 694.671875 1372.695313 694 1359.269531 691.921875 1346 C 682.5625 1289 666 1231.761719 633.996094 1183 C 612.464844 1150.277344 586.476563 1121.4375 556 1096.804688 C 516.46875 1065 468.960938 1036 451.746094 985 C 438.441406 945.679688 443.414063 902.820313 456.355469 864 C 466.359375 834 481.839844 806.136719 491.496094 776 C 505 733.550781 503.882813 685 480.855469 646 C 472.367188 631.625 461.386719 618.359375 449 607.171875 C 433.582031 593.242188 414.605469 582.300781 395 575.496094 C 371 567.1875 344.4375 562.074219 319 565.425781 M 1329 627 L 1330 628 L 1329 627 M 1231 819 C 1201.363281 818.386719 1174.367188 795.46875 1165 768 C 1151.746094 793.125 1134.328125 816.632813 1103 818 C 1109.945313 810.480469 1120.992188 805.320313 1129 798.5625 C 1147.359375 783.0625 1162.550781 756.164063 1151.6875 732 C 1148.933594 726 1144.839844 718.765625 1138 716.652344 C 1129.894531 714.148438 1109.949219 721.1875 1114.320313 703.003906 C 1116.5 694 1129.652344 693.402344 1137 692.425781 C 1156 690 1176.972656 689.695313 1196 692.429688 C 1202.863281 693.414063 1212.363281 695.128906 1215.816406 702.015625 C 1218.710938 707.785156 1213.558594 715.1875 1208 717.066406 C 1202.640625 719 1197.394531 714.507813 1192 716 C 1180.757813 719 1175.734375 736 1175.210938 746 C 1173.941406 770.464844 1192.886719 792 1211 805.765625 C 1217 810.472656 1225.871094 813.386719 1231 819 M 1070 783 C 1065.34375 790.488281 1051.710938 794 1044 797.753906 C 1029.382813 805 1014.359375 811.433594 1000 819.082031 C 990.789063 824 980.988281 831.117188 971 834 C 992.957031 805.292969 1036.851563 792.40625 1070 783 M 1357 831 C 1347.527344 828.632813 1338.765625 822.5 1330 818.257813 C 1316 811.550781 1301.941406 805.367188 1288 798.78125 C 1280.492188 795.234375 1266.855469 792 1262 785 C 1286.722656 787.15625 1314.320313 801.359375 1335 814.320313 C 1342.316406 819 1352.457031 823.425781 1357 831 M 1240 868 L 1240 869 C 1194.675781 894.136719 1139.40625 896.753906 1094 870 C 1099 868.039063 1104.960938 871.445313 1110 872.574219 C 1120 874.828125 1130.707031 876.207031 1141 877 C 1174.785156 879.226563 1207 874.789063 1240 868 M 1415.667969 1336.667969 C 1415.722656 1336.722656 1415.777344 1337.777344 1415.332031 1337.332031 C 1415.277344 1337.277344 1415.222656 1336.222656 1415.667969 1336.667969 M 1578 1342 C 1578 1374.683594 1576.179688 1434.265625 1533 1441 C 1544.480469 1425.214844 1555.871094 1412.179688 1561.972656 1393 C 1566.554688 1378.59375 1568 1353.367188 1578 1342 M 1621 1342 C 1632.609375 1376.3125 1641.355469 1437.183594 1597 1454 C 1599.226563 1445.414063 1606.242188 1437.289063 1609.902344 1429 C 1614.558594 1418.445313 1616.636719 1406.339844 1618.410156 1395 C 1620.195313 1383.574219 1621 1371.554688 1621 1360 C 1621 1354.4375 1618.871094 1347.121094 1621 1342 M 947 1467 L 284 1467 C 271.503906 1467 256 1462.101563 256 1478 C 256 1480.804688 255 1486 257.601563 1488 C 260 1490 265 1489 268 1489 L 937 1489 C 946 1489 954.980469 1490 964 1490 C 966.542969 1490.007813 972 1491 973.96875 1489 C 975.980469 1487 974.183594 1482.339844 973.648438 1480 C 971.851563 1472.144531 969.441406 1464.285156 965.972656 1457 C 942 1406.769531 868.621094 1421 823 1421 C 684.316406 1421 545.789063 1420 407 1420 L 287 1420 C 281.199219 1420 260.777344 1417 257 1421.601563 C 255 1424.046875 255.992188 1429.09375 256 1432 C 256 1434.078125 255.652344 1436.753906 256.601563 1438.683594 C 258.253906 1442.035156 263.964844 1441 267 1441 C 277.71875 1441 288.34375 1441.183594 299 1440.171875 C 315.550781 1438.59375 332.492188 1440.582031 349 1441 C 374.652344 1441.613281 401.417969 1441.160156 427 1440.039063 C 489.417969 1437.304688 552.625 1440.253906 615 1441 C 677.4375 1441.738281 739.773438 1439.460938 802 1441 C 825.394531 1441.558594 848.636719 1440 872 1440 C 881.546875 1440 892.730469 1438.417969 902 1441 C 911.339844 1443.457031 919.683594 1450.652344 928 1455.421875 C 934.273438 1459.019531 941.9375 1461.777344 947 1467 M 1155 1495 C 1170.605469 1518.660156 1179.472656 1549 1174.246094 1577 C 1172.535156 1586.210938 1168.757813 1601.210938 1160 1606 C 1165.207031 1581.632813 1167.964844 1562.09375 1163.855469 1537 C 1162.261719 1527.269531 1160 1517.523438 1157.523438 1508 C 1156.394531 1503.792969 1153.515625 1499.277344 1155 1495 M 756 1766 L 757 1766 C 760.582031 1754 759.230469 1739.550781 760 1727 C 762.363281 1693.820313 762.816406 1660.007813 766.714844 1627 C 768.375 1613 765.867188 1587.3125 783 1581.601563 C 801.464844 1575.449219 806.296875 1604.007813 806.964844 1616 C 808.46875 1643 810.777344 1670 811.960938 1697 C 812.75 1715.015625 811.707031 1734.253906 815 1752 L 816 1752 C 819 1713.765625 821.28125 1675.316406 822.960938 1637 C 823.722656 1619.585938 821.183594 1596.363281 827.765625 1580 C 833.617188 1565.441406 862.964844 1561.71875 872 1575.015625 C 876.222656 1581.058594 876.464844 1589 877.425781 1596 C 879.644531 1612.269531 879.945313 1628.746094 882 1645 L 884 1645 C 884 1631.300781 885.953125 1617.648438 886.910156 1604 C 887.535156 1595.074219 886.964844 1584.070313 891.417969 1576.003906 C 898.441406 1563.277344 926.660156 1563.636719 934.773438 1575.039063 C 946.226563 1591.136719 941.515625 1620.238281 945 1639 C 954.535156 1621.0625 943.4375 1594.570313 953 1576.015625 C 958.6875 1565 975.714844 1568 986 1568 C 988.484375 1568.003906 994.242188 1569.351563 996.292969 1567.800781 C 998.84375 1566 994.855469 1559.183594 994 1557 C 990.617188 1547.640625 988.859375 1530 982 1522.5625 C 976.167969 1516.058594 953.28125 1520 945 1520 L 269 1520 C 265.878906 1520 260.222656 1519 257.601563 1521.027344 C 254.925781 1523.148438 256 1529.019531 256 1532 C 256 1542.222656 254.433594 1554 256 1564 C 257 1569.378906 263.863281 1568 268 1568 L 718 1568 C 725.59375 1568 733.878906 1567.261719 739.671875 1573.214844 C 751 1585.003906 748.816406 1614.628906 749 1630 C 749.558594 1675.324219 755.96875 1720.648438 756 1766 M 1070 1641 C 1081.953125 1671.804688 1083 1702.488281 1086.171875 1735 C 1089.59375 1771 1092.898438 1808 1093 1844 L 1094 1844 C 1097.390625 1832.53125 1096.269531 1819 1097 1807 C 1099 1778.117188 1099.789063 1748.726563 1103.574219 1720 C 1105.515625 1705.285156 1104.300781 1684.339844 1118 1674.804688 C 1138 1660.785156 1150.746094 1688.613281 1153.246094 1704 C 1161 1752.035156 1158.929688 1801 1165 1849 L 1166 1849 C 1173.753906 1807.234375 1171.792969 1762.347656 1175.828125 1720 C 1177.195313 1705.667969 1176.210938 1681.21875 1191 1673.140625 C 1210.261719 1662.617188 1215.953125 1690.566406 1217.730469 1703 C 1223.667969 1744.574219 1225.199219 1788.066406 1227 1830 L 1228 1830 C 1231 1813.199219 1229.921875 1795.050781 1231 1778 C 1234.625 1726.363281 1235.503906 1672.8125 1246.511719 1622 C 1249.976563 1606 1256 1586.636719 1269 1575.757813 C 1272.476563 1572.828125 1283.882813 1564.429688 1287.976563 1570.320313 C 1292.671875 1577.085938 1290.691406 1592.105469 1291 1600 C 1292 1623 1294.984375 1646.015625 1295 1669 L 1297 1669 C 1297 1650.007813 1300.9375 1631 1302.832031 1612 C 1303.972656 1600.628906 1304.605469 1587.105469 1310.527344 1577.003906 C 1318 1564.171875 1345.867188 1562 1353.324219 1576.003906 C 1362 1592.5 1358.84375 1618.816406 1360 1637 C 1363.453125 1686.097656 1367.996094 1735.757813 1368 1785 L 1369 1785 C 1371.808594 1770 1371 1754.292969 1372 1739 C 1374.574219 1702.71875 1375.386719 1666.199219 1378.828125 1630 C 1380.34375 1614.085938 1377 1590 1386 1576.015625 C 1393.460938 1564.785156 1410.503906 1568 1422 1568 L 1496 1568 C 1510.71875 1568 1524.269531 1568.0625 1533 1582 C 1545.984375 1602.542969 1543 1634.644531 1544 1658 C 1546.445313 1713 1547.679688 1768.25 1552 1823 L 1553 1823 C 1555.808594 1757.605469 1560.367188 1691.03125 1568 1626 C 1570.410156 1607.15625 1579.367188 1565.285156 1608 1582 C 1626.699219 1593 1625.980469 1619.234375 1628.285156 1638 C 1632.714844 1674.070313 1633.429688 1710.773438 1635.910156 1747 C 1637 1763.402344 1635 1781 1639 1797 C 1645 1784.320313 1642 1763 1643 1749 C 1645.804688 1709.375 1647 1669.535156 1650.828125 1630 C 1652.574219 1611.664063 1649.984375 1584.800781 1667 1572.636719 C 1687.574219 1558 1721 1574.457031 1743.851563 1567.683594 C 1747.882813 1566.484375 1747 1561.289063 1747 1558 C 1747 1549 1750.378906 1531.535156 1746.398438 1523.3125 C 1743.355469 1517.03125 1723.8125 1520 1718 1520 L 1282 1520 C 1270 1520 1253.609375 1518 1242 1521.316406 C 1236.820313 1523 1237.195313 1539.152344 1236 1544 C 1231.507813 1564.671875 1222 1584.296875 1208.984375 1601 C 1183.789063 1633.171875 1146 1651.734375 1105 1649 C 1092.914063 1648.078125 1081.769531 1641.605469 1070 1641 M 1006 1584 C 1003.519531 1593.527344 1005.894531 1607.179688 1006.828125 1617 C 1008.46875 1634.230469 1008.726563 1651.722656 1009.910156 1669 C 1013.855469 1726.585938 1014.460938 1784.46875 1019 1842 C 1021.6875 1838.0625 1020.734375 1833.566406 1021.171875 1829 C 1022.214844 1818.023438 1022.335938 1807 1023 1796 C 1025.828125 1756.03125 1028.179688 1716 1032.167969 1676 C 1033.410156 1663.570313 1034.976563 1651.261719 1037.449219 1639 C 1038.324219 1634.652344 1041.753906 1628.382813 1040.351563 1624.015625 C 1038.8125 1619.207031 1032.4375 1615.578125 1029 1612 C 1021 1603.441406 1015.179688 1591.082031 1006 1584 "/>
</g>
</svg>
