<?xml version="1.0" encoding="UTF-8"?>
<svg xmlns="http://www.w3.org/2000/svg" xmlns:xlink="http://www.w3.org/1999/xlink" width="2000pt" height="2000pt" viewBox="0 0 2000 2000" version="1.1">
<g id="surface1">
<path style=" stroke:none;fill-rule:nonzero;fill:rgb(0%,0%,0%);fill-opacity:1;" d="M 770 1388 C 764.273438 1394.089844 753.492188 1397.5 746 1401.246094 C 726.277344 1411.105469 706 1420 686 1429 C 613 1462.230469 537.683594 1489.488281 464 1521 C 454.441406 1525 444.378906 1528.132813 435 1532.59375 C 432.523438 1533.773438 427.308594 1535.253906 426.457031 1538.226563 C 425.527344 1541.460938 429.71875 1545.617188 431.421875 1548 C 436.289063 1554.8125 441.445313 1561.382813 446.574219 1568 C 448 1570.039063 451.972656 1573.710938 450.832031 1576.609375 C 449.703125 1579.480469 444.542969 1581 442 1582.078125 C 439.867188 1583.058594 437.429688 1584.59375 435 1584.765625 C 430.195313 1585.117188 426.773438 1577.222656 424.191406 1574 C 416.335938 1564.191406 407.433594 1555.582031 397 1548.519531 C 368 1529 327.933594 1524.785156 295 1536.078125 C 268 1545.335938 246.957031 1563 231.695313 1587 C 226.199219 1595.648438 222 1605.296875 218.890625 1615 C 217.589844 1619 217.386719 1624.390625 212.890625 1626.0625 C 206.546875 1628.425781 197.664063 1627 191 1627 L 146 1627 C 140.792969 1627 125.3125 1624.214844 124 1631.058594 C 123.59375 1634.316406 122.757813 1642.644531 126.316406 1644.398438 C 131 1646.703125 139.851563 1645 145 1645 L 194 1645 C 198.851563 1645 208.921875 1643.027344 213 1645.464844 C 226 1653 205.832031 1666 201 1669.652344 C 195.273438 1674.027344 189.789063 1678.707031 184 1683 L 184 1684 C 200.21875 1684 216.808594 1677.671875 232 1672.308594 C 235.503906 1671.070313 245.289063 1665.136719 248.378906 1668.449219 C 253.53125 1674 238.382813 1683.292969 235 1686 C 222.425781 1696.0625 210 1706.472656 197.714844 1716.707031 C 192.316406 1721.152344 184.648438 1725 181 1731 C 189.761719 1729.421875 198 1723.207031 206 1719.246094 C 223.996094 1710.246094 241.761719 1700.578125 260 1692.082031 C 264.738281 1690 284.515625 1676.703125 286.40625 1687.019531 C 287.21875 1691.429688 280.257813 1697 277.613281 1699.824219 C 267 1711.214844 253.917969 1721.339844 245 1734 C 252.679688 1732.628906 259.324219 1727.246094 266 1723.421875 C 279.828125 1715.492188 293.332031 1707 307 1698.800781 C 310 1697 325.40625 1685.167969 327.554688 1692.164063 C 328.535156 1695.367188 324.808594 1699 322.90625 1701 C 317.84375 1706.550781 310.339844 1712.273438 307 1719 C 319.796875 1716.789063 333.765625 1707.375 345 1701 C 347.421875 1699.625 356.199219 1693.28125 358.980469 1694.660156 C 361.324219 1695.828125 354.683594 1701.421875 353.984375 1702.074219 C 347 1708.523438 340 1715 333 1721.164063 C 303.261719 1747.722656 272.820313 1773.480469 243 1800 C 232.941406 1809 222.671875 1817.523438 213 1827 C 211.367188 1828.539063 204 1834.144531 206.75 1837 C 209.621094 1840 221 1838 225 1838 C 250 1838 266.671875 1818.554688 285 1803 C 332.570313 1762.15625 382 1723.375 431 1684.398438 C 443.695313 1674.300781 456.355469 1664.15625 469 1654 C 475 1649.089844 480.894531 1642.460938 489 1641.359375 C 516 1637.683594 545.710938 1641 573 1641 L 801 1641 C 805.402344 1641 818.355469 1638.808594 820.878906 1643.316406 C 822.503906 1646.21875 820 1651.113281 819.289063 1654 C 816.585938 1663.375 813.742188 1672.742188 810.667969 1682 C 798.609375 1718.308594 788.3125 1755.253906 777.710938 1792 C 774.460938 1803.265625 771.261719 1814.535156 768.789063 1826 C 768 1829.433594 765.335938 1836.179688 770.226563 1837.683594 C 775.945313 1839.4375 796 1840.175781 800.351563 1835.683594 C 808.738281 1826.703125 811.476563 1805.585938 815.332031 1794 C 826.644531 1760.027344 837.675781 1726 849 1692 C 853.617188 1678.148438 856.789063 1663.710938 861.765625 1650 C 863.433594 1645.398438 867.476563 1640.292969 872.996094 1641.695313 C 885.421875 1645 877.730469 1669.351563 875.882813 1678 C 870.414063 1703.644531 866.828125 1732 864.910156 1758 C 864.246094 1767.085938 860 1778.125 862 1787 C 868.800781 1776.761719 872.289063 1763.183594 877.550781 1752 C 889.316406 1727 902 1701.199219 911 1675 L 912 1675 C 912 1694.734375 916.5625 1714.351563 917.910156 1734 C 919 1750.757813 918.242188 1771 923 1787 L 924 1787 C 932.816406 1763.460938 938.265625 1737.339844 944.847656 1713 C 947.363281 1703.699219 948.542969 1689.324219 955 1682 C 955.730469 1699 961.421875 1716.335938 964.539063 1733 C 967.972656 1751.34375 969.375 1771.207031 975 1789 C 980.230469 1781.355469 980.609375 1766.175781 982.449219 1757 C 987.671875 1731 997.433594 1701.503906 998 1675 C 1004.441406 1682 1004.433594 1699 1006 1708 C 1010.867188 1734.535156 1013.871094 1763.296875 1022 1789 C 1027.191406 1781.410156 1027.558594 1766.128906 1029.261719 1757 C 1033.753906 1733 1036.59375 1706.019531 1045 1683 C 1053.863281 1701.316406 1057.6875 1725.238281 1062.882813 1745 C 1066.558594 1759 1072.820313 1773.566406 1074 1788 L 1076 1788 C 1080.609375 1751.53125 1086 1712.726563 1086 1676 C 1091.777344 1681.785156 1093.636719 1692.5625 1097 1700 C 1105.578125 1719 1114.9375 1737.800781 1122.988281 1757 C 1126.308594 1765 1130.65625 1782.558594 1138 1787 C 1131 1750.269531 1129.699219 1712.605469 1121.882813 1676 C 1120 1667.542969 1112.863281 1644.574219 1125 1641.4375 C 1131 1640 1135 1645.050781 1137.320313 1650 C 1142.636719 1662 1145.199219 1675.589844 1149.332031 1688 C 1159.972656 1720 1170.679688 1752 1180.972656 1784 C 1185.945313 1799.492188 1188.957031 1821.480469 1198.351563 1835 C 1201.894531 1840 1224.257813 1840.082031 1229.679688 1837.398438 C 1233.488281 1835.511719 1231 1829.039063 1230.265625 1826 C 1227.179688 1814.265625 1223.546875 1802.675781 1220.253906 1791 C 1210 1755.109375 1198.84375 1719.519531 1187.496094 1684 C 1184.53125 1674.722656 1182 1665.300781 1179.175781 1656 C 1178.179688 1652.800781 1175.617188 1647.484375 1176.707031 1644.148438 C 1178.46875 1638.753906 1191.613281 1641 1196 1641 L 1485 1641 C 1493.421875 1641 1503.800781 1639.355469 1512 1641.3125 C 1518.558594 1643 1524.851563 1650.074219 1530 1654.199219 C 1543.421875 1665 1556.570313 1676.054688 1570 1686.800781 C 1618.449219 1725.574219 1666.472656 1764.667969 1714 1804.5625 C 1731.492188 1819.246094 1746 1838 1770 1838 C 1773.851563 1838 1785.464844 1840 1787.914063 1836.257813 C 1790.191406 1833 1784 1828 1782 1826.015625 C 1773 1817.253906 1763.460938 1808.75 1754 1800.574219 C 1728.46875 1778.519531 1703.476563 1756 1678.171875 1733.515625 C 1664.414063 1721.375 1645.796875 1708.617188 1636 1693 C 1654.800781 1699 1670.511719 1714.785156 1690 1719 C 1686.484375 1711.457031 1667.730469 1701 1669.957031 1692.0625 C 1671.972656 1684 1687.425781 1695.425781 1691 1697.695313 C 1711 1710.441406 1730.972656 1723.808594 1752 1735 L 1753 1734 C 1744.480469 1722 1732.460938 1711.464844 1722 1701 C 1718.859375 1698 1711 1692.183594 1711.882813 1687.019531 C 1713.765625 1676 1733.304688 1689.101563 1738 1691.511719 C 1763.300781 1704.488281 1789.953125 1723.441406 1817 1732 C 1813 1725.019531 1805 1720.367188 1799 1715.390625 C 1786.714844 1705.40625 1774 1695.757813 1762 1685.5625 C 1758.765625 1683 1744 1673 1749.609375 1667.648438 C 1752.988281 1664.480469 1762.421875 1670.355469 1766 1671.679688 C 1780.625 1677.09375 1796.210938 1683.675781 1812 1684 C 1806.332031 1672.816406 1774.632813 1664.039063 1780.894531 1649.058594 C 1783.535156 1642.738281 1794.484375 1645 1800 1645 L 1856 1645 C 1866.742188 1645 1872.796875 1647.296875 1873 1635 C 1873 1633.125 1873.699219 1630.304688 1872.6875 1628.601563 C 1870 1624.238281 1855.398438 1627 1851 1627 L 1804 1627 C 1798.402344 1627 1789.394531 1628.714844 1784.226563 1626.398438 C 1780 1624.53125 1779.570313 1617 1778.410156 1613 C 1775 1602.152344 1769.609375 1592.363281 1763.328125 1583 C 1744.664063 1555.175781 1715.207031 1536.234375 1682 1531.429688 C 1653.769531 1527.339844 1621.460938 1532.585938 1598 1549.640625 C 1588.167969 1556.789063 1579.871094 1565.269531 1572.628906 1575 C 1570 1578.445313 1567 1585 1561.996094 1584.4375 C 1558.664063 1584.113281 1547.226563 1579.6875 1547 1575.785156 C 1546.871094 1573.054688 1550 1570.042969 1551.574219 1568 C 1556 1561.652344 1560.488281 1555.058594 1565.464844 1549 C 1567.445313 1546.589844 1572.585938 1542.796875 1572 1539.261719 C 1571.683594 1536.5 1567 1535 1565 1534 C 1556.871094 1530.113281 1548.296875 1527 1540 1523.601563 C 1463.226563 1492.257813 1385.273438 1463.105469 1310 1428.234375 C 1290.925781 1419.398438 1271.898438 1410.46875 1253 1401.257813 C 1244.828125 1397.273438 1232.964844 1394 1227 1387 C 1251.730469 1391.796875 1276.523438 1395.175781 1301 1401.375 C 1359.269531 1416.128906 1416 1437.417969 1471 1462 C 1497.710938 1473.765625 1524.289063 1486.601563 1550 1500.539063 C 1558.804688 1505.3125 1573.859375 1518 1583.960938 1518.183594 C 1589.691406 1518.304688 1596.847656 1504.222656 1599.859375 1500 C 1612.320313 1482.535156 1623.484375 1464 1633.691406 1445 C 1636.578125 1439.660156 1639.777344 1427.753906 1647 1427.316406 C 1661 1426.46875 1677.304688 1433.414063 1691 1436.199219 C 1726.761719 1443.46875 1762.222656 1452.292969 1798 1459.449219 C 1809.425781 1461.734375 1821.273438 1465.347656 1833 1465 C 1837.644531 1465 1844.289063 1462.664063 1844.425781 1457 C 1844.542969 1452.171875 1839.644531 1449.628906 1836 1447.757813 C 1825.882813 1442.566406 1814.757813 1439.125 1804 1435.503906 C 1767.9375 1423.367188 1731.777344 1412.597656 1695 1403 C 1686 1400.511719 1677 1398.300781 1668 1396.128906 C 1665.546875 1395.539063 1660.613281 1395.480469 1659.546875 1392.683594 C 1657.667969 1387.765625 1664 1376.8125 1665.667969 1372 C 1671.695313 1354 1676.957031 1335.511719 1681.527344 1317 C 1695.84375 1259 1699.703125 1200.539063 1698.996094 1141 C 1698.273438 1080.300781 1684.265625 1015.132813 1661 959 C 1652 937.058594 1643.171875 915.085938 1632.222656 894 C 1627.628906 885.15625 1617 872.101563 1616.84375 862 C 1616.527344 850.195313 1623.265625 836.332031 1626.265625 825 C 1633.1875 799 1639.59375 772.621094 1644.386719 746 C 1659.746094 660.664063 1669.527344 569.527344 1659.285156 483 C 1650.402344 408 1640.523438 334 1612.398438 263 C 1603.390625 240.292969 1591.40625 201.304688 1563 197.210938 C 1548.453125 195.113281 1533.203125 202.777344 1521 209.71875 C 1492.375 226.003906 1467 247.507813 1442.425781 269.253906 C 1374.605469 329.269531 1315.582031 401.796875 1265.355469 477 C 1249.710938 500.425781 1234 524.3125 1220.464844 549 C 1213.457031 561.726563 1206.589844 581.441406 1196.367188 591.667969 C 1193.304688 594.726563 1188.667969 593 1185 592.117188 C 1175.71875 590 1166.355469 588.019531 1157 586.261719 C 1117.339844 578.808594 1078 575 1038 571.171875 C 984.929688 566.117188 927.316406 571.050781 875 580.464844 C 857.949219 583.53125 841 587.046875 824 590.449219 C 819.195313 591.410156 809.867188 595.167969 805.273438 592.730469 C 800.515625 590.207031 797.230469 580.519531 794.554688 576 C 785.710938 561.074219 777.488281 545.777344 768.386719 531 C 738.238281 482.042969 705.476563 434.433594 668.914063 390 C 619.507813 330 565.722656 273 503 226.476563 C 483.265625 212 446.898438 185 422 202.636719 C 397.753906 220 386.730469 259.046875 377.667969 286 C 351.457031 364 340.539063 445.25 336.960938 527 C 333.621094 603.207031 340.476563 680.152344 355.449219 755 C 360.5625 780.554688 367 805.75 373.476563 831 C 375.949219 840.769531 382.984375 854 381.734375 864 C 380.359375 875.167969 369.570313 889 364.5 899 C 353 921.824219 343.316406 945.21875 334 969 C 310.308594 1029.5 299 1097.234375 299 1162 C 299 1215.320313 304.710938 1267 316.652344 1319 C 320.519531 1336 325.867188 1352.597656 331.332031 1369 C 333.394531 1375.179688 338.960938 1384.386719 338.355469 1391 C 337.984375 1395 333 1395.390625 330 1396.117188 C 320.964844 1398.21875 311.972656 1400.492188 303 1403 C 264.765625 1413 226.183594 1422.464844 189 1436.054688 C 178.933594 1439.730469 167 1442.746094 158 1448.710938 C 153.277344 1452 149.597656 1457.832031 155 1462.347656 C 166.398438 1471.5 195.429688 1460 208 1457.210938 C 241.332031 1450.015625 274.574219 1442.289063 308 1435.550781 C 321.585938 1432.8125 337 1426.253906 350.945313 1426.449219 C 357.632813 1426.542969 363 1443 365.859375 1448 C 376.226563 1466.476563 386.921875 1485 399.523438 1502 C 402.816406 1506.453125 407.621094 1517.617188 414 1517.640625 C 423.511719 1517.667969 436.851563 1506.765625 445 1502.375 C 468.59375 1489.660156 492.640625 1477.492188 517 1466.308594 C 570.558594 1441.714844 625.207031 1422 682 1406.253906 C 709.425781 1398.6875 741.410156 1388.238281 770 1388 M 651 558 C 638.417969 556.328125 623.988281 544.683594 613 538.433594 C 611.304688 537.46875 601.882813 530.230469 600.417969 532.746094 C 599 535.042969 603 541 604 543 C 608.597656 552.535156 617.398438 562 620 572 C 612.441406 570.269531 605.261719 567.4375 598 564.765625 C 596.539063 564.230469 591.472656 562 591.613281 565.28125 C 591.8125 570.117188 598.742188 575.25 602 578.144531 C 614 588.640625 627.738281 598.496094 642 605.628906 C 645.488281 607.371094 661.792969 612.328125 661.792969 616.832031 C 661.792969 619.613281 655.945313 621.367188 654 622.347656 C 645.632813 626.5625 637.433594 631.15625 629 635.222656 C 600.429688 649 573.375 665.085938 547 682.667969 C 539.558594 687.625 532.363281 693 525 698 C 522.394531 699.769531 518.578125 703.480469 515.210938 703.378906 C 511.21875 703.257813 508 696 506.308594 693 C 499.882813 683 494.714844 669.050781 486 661 C 486 679 498.335938 695.753906 498.527344 713 C 498.574219 717.289063 491.914063 725.492188 487.214844 725 C 482.722656 724.460938 478.585938 712.5625 476.742188 709 C 469.386719 694.785156 461.988281 675.648438 451 664 C 454 687.238281 463.601563 708.488281 469.238281 731 C 470.535156 736.167969 466.894531 747.792969 460 747.792969 C 455 747.792969 450.765625 727.109375 449.554688 723 C 441.398438 695.296875 434 667.546875 429.4375 639 C 419.34375 576.148438 420 514.3125 420 451 C 420 435.753906 421.554688 420.089844 423.730469 405 C 424.351563 400.6875 424.527344 391.335938 429.273438 389.238281 C 432.476563 387.824219 437.296875 391 440 392.4375 C 449 397.402344 458 402.230469 467 407.550781 C 502.738281 429 537.863281 450.667969 570 477.414063 C 590.972656 495 611.734375 512.777344 630 533 C 636.964844 540.59375 646.65625 548.675781 651 558 M 1547 666 L 1546 666 C 1539.925781 680.585938 1530.523438 694.265625 1522.71875 708 C 1520 712.617188 1517.746094 721.125 1513.460938 724.339844 C 1509.773438 727.105469 1501.628906 718.296875 1500.8125 715 C 1499.738281 710.453125 1503.988281 703.285156 1505.28125 699 C 1508.816406 687.257813 1514.96875 672.390625 1513 660 C 1505.496094 669.726563 1499.882813 681.445313 1493.550781 692 C 1491.753906 695 1488.714844 702.4375 1484.816406 703 C 1481.46875 703.441406 1477.484375 699.648438 1475 698 C 1468 692.816406 1461 688 1454 683.117188 C 1427.503906 665 1399.925781 649 1371 634.742188 C 1362.355469 630.53125 1353.761719 626.269531 1345 622.304688 C 1342.933594 621.371094 1337.207031 620 1337.207031 617 C 1337.207031 613 1351.800781 608.347656 1355 606.625 C 1370 598.527344 1384.273438 589.28125 1397 577.828125 C 1399.769531 575.335938 1408.953125 568.625 1408.230469 564.359375 C 1407.726563 561.40625 1402.53125 563.675781 1401 564.167969 C 1393.265625 566.644531 1385.4375 568.675781 1378 572 C 1382.882813 557.519531 1395.503906 543.519531 1403 530 C 1383.992188 537.011719 1367.183594 554.402344 1347 558 C 1365.410156 528.535156 1398.511719 502.480469 1425 480.433594 C 1458 452.832031 1494.292969 428.234375 1532 407.269531 C 1540.667969 402.449219 1549.195313 397.355469 1558 392.785156 C 1560.765625 391.347656 1565.535156 388.25 1568.785156 389.40625 C 1573.246094 391 1574 399.050781 1574.714844 403 C 1576.699219 417 1576.597656 431.097656 1578.425781 445 C 1581 464.628906 1580 485.203125 1580 505 C 1580 549 1577.261719 592.621094 1569.425781 636 C 1564.175781 665.042969 1557.894531 693.640625 1549.710938 722 C 1548.492188 726.214844 1545 747.792969 1539.851563 747.792969 C 1534.378906 747.792969 1528.628906 737.777344 1529.628906 733 C 1534.296875 710.742188 1545.945313 689.042969 1547 666 M 688 908.285156 C 800 895.058594 898.734375 1000 893.960938 1109 C 891 1173.457031 855.46875 1233 801 1267.050781 C 779.566406 1280.464844 754.226563 1290.011719 729 1292.832031 C 697.585938 1296.347656 665.226563 1296 635 1285.304688 C 611.667969 1277.171875 590.757813 1264.777344 572 1248.726563 C 496 1183.730469 488.703125 1064 548.234375 986 C 583 940.433594 631.730469 915 688 908.285156 M 1282 908.285156 C 1390.679688 895.453125 1485.386719 993.589844 1489.960938 1098 C 1492.964844 1166.597656 1458.296875 1231.582031 1400 1267.683594 C 1379 1280.589844 1354.390625 1289.78125 1330 1292.816406 C 1268 1300.527344 1207.234375 1283.726563 1162.324219 1239 C 1075.535156 1152.324219 1090.40625 1000.085938 1197 936 C 1223.640625 920 1251.324219 912 1282 908.285156 M 691 971.425781 C 645.414063 977.425781 605 1003 587.449219 1047 C 554.785156 1129.0625 619.941406 1226 711 1214.714844 C 770.667969 1207.386719 814.816406 1159.773438 818.910156 1100 C 823.613281 1031.316406 762.488281 962.011719 691 971.425781 M 1289 971.425781 C 1264.433594 974.660156 1242.273438 982.199219 1223 998.4375 C 1149 1060.699219 1175.445313 1187.695313 1270 1211.730469 C 1283.230469 1215.09375 1298.402344 1216.476563 1312 1214.710938 C 1370.503906 1207.113281 1415.742188 1161.492188 1419.910156 1102 C 1424.824219 1032 1361.851563 961.832031 1289 971.425781 M 1296 1000.710938 C 1341.859375 1001.320313 1342 1071 1296 1071 C 1250.6875 1071 1250.527344 1000.105469 1296 1000.710938 M 692 1001.300781 C 738.550781 994.441406 751.78125 1064.488281 704 1070.710938 C 660.664063 1076.355469 648 1007.769531 692 1001.300781 M 991 1271.285156 C 1012.714844 1268.722656 1043 1272.445313 1062 1284 C 1073.40625 1291 1082.339844 1304.410156 1076.636719 1318 C 1068.667969 1337 1044.820313 1335.335938 1032 1349.015625 C 1021.4375 1360.492188 1023 1388.457031 1004 1391 C 975 1394.511719 979.679688 1362 963.828125 1347.328125 C 952 1336.554688 933.261719 1337 923.851563 1323 C 915.386719 1310.496094 920.371094 1295.128906 932 1286.789063 C 948.878906 1274.679688 971.210938 1273.621094 991 1271.285156 M 1247 1347 C 1251.367188 1344.144531 1260.683594 1345.027344 1266 1345 C 1282.566406 1345 1299.515625 1345.394531 1316 1347 C 1382 1353.066406 1450.199219 1363.644531 1513 1386 C 1532.261719 1392.671875 1552 1400 1570 1410 C 1574.53125 1412.375 1585.363281 1416.6875 1585.363281 1423 C 1585.363281 1430.492188 1570.335938 1428.003906 1566 1427.195313 C 1545.359375 1423.347656 1524.480469 1420.730469 1504 1415.769531 C 1449.695313 1402.613281 1395 1391.0625 1341 1377 C 1309.699219 1368.675781 1276.417969 1360.761719 1247 1347 M 752 1346 C 748.425781 1351.242188 739.730469 1352.109375 734 1354 C 718.335938 1359.175781 702.820313 1364.695313 687 1369.410156 C 623 1388.464844 557.257813 1402.554688 492 1416.285156 C 472.410156 1420.40625 452.808594 1423.722656 433 1426.425781 C 427.777344 1427.136719 415.265625 1431 412.800781 1423.8125 C 410.421875 1417 423.511719 1411.644531 428 1409.140625 C 446.769531 1398.667969 467.464844 1391.023438 488 1384.753906 C 574.21875 1358.429688 662 1346 752 1346 M 757 1442 C 750 1457 726.832031 1471.1875 714 1481.398438 C 673 1514 629.171875 1543 583 1567.21875 C 568.480469 1575 554 1582.542969 539 1589.140625 C 535.898438 1590.496094 525.859375 1596.113281 523 1592.242188 C 520.277344 1588.335938 528.789063 1580.476563 531 1578 C 542.679688 1565.535156 556.519531 1554.585938 570 1544.234375 C 607.695313 1515.296875 648.535156 1491.179688 691 1470 C 711.578125 1459.734375 734.515625 1447.203125 757 1442 M 1241 1442 C 1260.523438 1445 1281.28125 1457 1299 1465.21875 C 1344.359375 1486.628906 1387.175781 1513.304688 1427 1543.765625 C 1440.714844 1554.253906 1453.414063 1565.457031 1465.714844 1577.574219 C 1468.304688 1580.125 1478 1588.105469 1474.292969 1592.382813 C 1471 1596.007813 1462.371094 1591 1459 1589.492188 C 1443.78125 1583.410156 1429.566406 1575.160156 1415 1567.757813 C 1369.917969 1545 1328.347656 1515.148438 1288 1485 C 1273.347656 1474 1248.871094 1459 1241 1442 M 999 1482.574219 C 1021.417969 1482.390625 1055.441406 1518.089844 1050.480469 1541 C 1045.800781 1562.613281 1021.90625 1571.757813 1002 1572 C 982.566406 1572.226563 959.808594 1567.6875 950.902344 1548 C 941.238281 1526.628906 959.6875 1507.054688 975 1494.285156 C 981.613281 1488.773438 989.980469 1482.652344 999 1482.574219 M 409 1773 C 419.746094 1770 430.554688 1755.628906 439 1748.28125 C 460.714844 1729.394531 482.625 1710.242188 502.382813 1689.289063 C 508.957031 1682.316406 519.644531 1675.09375 523 1666 C 515.730469 1666 502.535156 1663.296875 496 1666.117188 C 486.171875 1670.359375 477.472656 1686 470.753906 1694 C 457 1710.472656 444.785156 1728.011719 431.765625 1745 C 424.511719 1754.464844 415.304688 1763 409 1773 M 484 1804 C 495.214844 1801 506.28125 1787.636719 515 1780.128906 C 541.933594 1757 566.441406 1729.800781 589.71875 1703 C 597 1694.429688 604.363281 1685.640625 611.726563 1677 C 613.199219 1675.273438 619.472656 1669.589844 617.167969 1667.027344 C 615 1664.722656 607.800781 1666 605 1666 C 588.5625 1666 583.613281 1666.425781 573.375 1680 C 551.980469 1708.359375 529.664063 1736 509.28125 1765 C 500.863281 1777.027344 489.210938 1790.246094 484 1804 M 625 1835 C 636.558594 1829.144531 646.203125 1810.421875 653.707031 1800 C 675.324219 1770 696 1739.25 715.945313 1708 C 722.1875 1698.140625 728.28125 1688.082031 734 1678 C 735.421875 1675.820313 740.835938 1669.621094 738.289063 1667.179688 C 735.675781 1664.671875 728.320313 1666 725 1666 C 720 1666 712.789063 1664.664063 708.183594 1666.601563 C 701.644531 1669.359375 697.359375 1682.152344 694 1688 C 674.898438 1721.277344 657 1756 641.652344 1791 C 635.921875 1804.003906 625.414063 1820.664063 625 1835 M 746 1747 C 752 1744 755.589844 1735.636719 759.21875 1730 C 768.289063 1716 776.863281 1702 784.636719 1687 C 786.339844 1683.742188 795.628906 1670.15625 792.292969 1667.027344 C 785.445313 1660.605469 771.703125 1669 768.78125 1675 C 758.648438 1696.347656 749.441406 1723.601563 746 1747 M 1253 1746 C 1249.832031 1722.480469 1240.320313 1692.234375 1229.671875 1671.019531 C 1226.96875 1665.628906 1212.335938 1663 1207.789063 1667.769531 C 1204.519531 1671.304688 1213.210938 1684.515625 1215 1688 C 1222.464844 1702.285156 1230.761719 1716.578125 1239.667969 1730 C 1243.324219 1735.515625 1246.984375 1743 1253 1746 M 1260.421875 1666.742188 C 1257.34375 1668.550781 1261.191406 1674 1262.3125 1676 C 1266.796875 1684.179688 1271.992188 1692.097656 1276.949219 1700 C 1298.320313 1734.070313 1321 1767.0625 1344 1800 C 1350.527344 1809.132813 1357 1818.457031 1364.285156 1827 C 1365.328125 1828.242188 1369.816406 1834.644531 1371.972656 1832.824219 C 1374.476563 1830.707031 1370 1823.140625 1369 1821 C 1363.84375 1809.050781 1359.191406 1797 1353.769531 1785 C 1341.597656 1758.316406 1328.367188 1732.238281 1315.246094 1706 C 1309.527344 1694.5625 1303.699219 1677.285156 1294.472656 1668.316406 C 1290.199219 1664.167969 1265.632813 1663.6875 1260.421875 1666.742188 M 1368 1726 C 1369.792969 1720.816406 1365 1715.535156 1362.949219 1711 C 1356.90625 1698.589844 1350 1676.132813 1338.6875 1667.769531 C 1336.257813 1666 1325.867188 1665.300781 1326.847656 1670.148438 C 1328 1676.535156 1335 1683.382813 1339 1688.425781 C 1342.730469 1693.261719 1346.210938 1698.273438 1350 1703 C 1356.242188 1710.515625 1362.328125 1718.105469 1368 1726 M 1512 1804 C 1510.296875 1791.195313 1495 1775.480469 1487.710938 1765 C 1466.570313 1735.285156 1444.890625 1706 1422.765625 1677 C 1413.910156 1665.402344 1407.792969 1666 1394 1666 C 1391.332031 1666 1383.992188 1664.726563 1382 1667.027344 C 1379.851563 1669.722656 1385.511719 1675.144531 1387 1677 C 1394 1685.820313 1401.441406 1694.539063 1408.949219 1703 C 1431.347656 1728.230469 1453.578125 1752.726563 1478 1776.039063 C 1487.285156 1785 1499.746094 1799.753906 1512 1804 M 1589 1773 C 1582.183594 1760 1569 1747.710938 1559.804688 1736 C 1543.945313 1716 1529.492188 1694.492188 1512.476563 1675.324219 C 1504 1665.816406 1498.179688 1666 1486 1666 C 1483.792969 1666 1477.753906 1665 1476.175781 1667 C 1474.695313 1668.785156 1479.402344 1673 1480.429688 1674.015625 C 1486.5 1681 1493.660156 1686.757813 1500 1693.335938 C 1518.601563 1712.175781 1538.5 1729.335938 1558 1747.074219 C 1567.175781 1755.421875 1577.601563 1768.175781 1589 1773 M 630 1725 C 643.234375 1715.253906 654.824219 1696.363281 664.421875 1683 C 666 1680.574219 675.210938 1671 672.261719 1668.027344 C 667.40625 1663.175781 658.800781 1668.753906 656.375 1673.003906 C 647.261719 1689 635 1707.324219 630 1725 "/>
</g>
</svg>
