<?xml version="1.0" encoding="UTF-8"?>
<svg xmlns="http://www.w3.org/2000/svg" xmlns:xlink="http://www.w3.org/1999/xlink" width="2000pt" height="2000pt" viewBox="0 0 2000 2000" version="1.1">
<g id="surface1">
<path style=" stroke:none;fill-rule:nonzero;fill:rgb(0%,0%,0%);fill-opacity:1;" d="M 158 1260 C 161 1260 170.929688 1256.246094 173 1259.027344 C 175.585938 1262.277344 161 1274.125 160 1278 C 161.664063 1277.789063 163.351563 1277.4375 165 1277.304688 C 170.972656 1277 170.359375 1280.4375 166.960938 1284 C 163.972656 1287.0625 150 1294.789063 150.921875 1299.589844 C 151.628906 1303.53125 167.460938 1305.699219 171 1307 C 163.601563 1311.316406 149.457031 1314.605469 145 1322 C 154 1322 164.234375 1321.398438 173 1323 L 173 1324 C 166.320313 1326.214844 159.5 1331.464844 154 1336 C 152.910156 1336.820313 147.960938 1341 150.710938 1342.597656 C 155.375 1345.367188 167.671875 1338.273438 173 1338 C 164.570313 1345.617188 150.757813 1349.472656 145 1360 C 156.167969 1358.109375 166.535156 1352.242188 178 1352 L 178 1353 C 167.96875 1357.203125 156 1365.191406 151 1375 C 161.675781 1375 173.582031 1373.519531 184 1376 C 175.257813 1385.132813 160.308594 1394.617188 155 1406 C 163 1405 170.886719 1401.707031 179 1401 C 174.777344 1406.425781 169.347656 1410.785156 164.851563 1416 C 163.710938 1417.320313 159.664063 1421 161.175781 1423 C 163.402344 1426.019531 179.417969 1419.484375 183 1419 C 174.683594 1427.492188 163 1441.335938 160 1453 C 169 1448 175.835938 1440 185 1435 C 183.617188 1444.410156 178.59375 1452.746094 177 1462 C 180.371094 1461.054688 186.238281 1454.347656 189.398438 1455.460938 C 193.535156 1457 192.632813 1470.175781 195.226563 1473.683594 C 198.234375 1477.738281 211.183594 1476.75 216 1477 C 280.769531 1479.796875 345.289063 1488.222656 410 1491 L 410 1492 C 395.410156 1494.707031 379.722656 1491.179688 365 1491.003906 C 327.648438 1490.558594 290.425781 1489 253 1489 L 214 1489 C 211 1489 203 1487.617188 201 1490.027344 C 199.390625 1492.097656 202 1497 202.828125 1499 C 205.808594 1507.789063 209 1516.402344 212.601563 1525 C 214.90625 1530.660156 217.789063 1543.800781 223.339844 1547 C 226 1548.449219 230 1547.085938 233 1547.015625 C 241.40625 1546.808594 249.628906 1547 258 1546.171875 C 282.9375 1543.796875 308.949219 1544 334 1544 C 417.25 1544 500.785156 1541.394531 584 1545.039063 C 619.648438 1546.601563 655.304688 1548.140625 691 1549.015625 C 701.992188 1549.285156 712.945313 1552 724 1551 C 733.792969 1550.089844 744.265625 1535.53125 752 1529.746094 C 770.503906 1516 798.808594 1499.722656 823 1502.59375 C 831.984375 1503.660156 841.277344 1505.386719 849 1510.386719 C 865 1520.75 872.742188 1539.476563 887 1551.699219 C 897.996094 1561.128906 913.878906 1565.546875 922 1578 C 930.46875 1590.539063 927 1605.550781 938.183594 1618 C 952.746094 1634.347656 996.9375 1647.347656 977.894531 1676 C 975.730469 1679.257813 973 1682.175781 970 1684.671875 C 948.5 1702.488281 916 1700 890 1700 C 832.644531 1700 775.1875 1698.472656 718 1698 C 731 1684.445313 754.203125 1674.648438 771 1666.246094 C 777.4375 1663.023438 790.253906 1660.148438 794 1654 C 764.902344 1657.675781 737.632813 1662.121094 710 1672.53125 C 685.707031 1681.6875 662 1695.683594 636 1699 C 664.605469 1674.617188 702.324219 1657 737 1643 C 752.46875 1636.8125 773 1632.726563 787 1624 C 778 1621.363281 766.195313 1624 757 1624.828125 C 731.597656 1627.246094 707 1631.453125 682 1636.714844 C 603.523438 1653.230469 524.570313 1670.71875 447 1691 C 451.363281 1686.398438 459 1685 465 1682.679688 C 478.601563 1677.671875 492.273438 1672.828125 506 1668.171875 C 560.503906 1649.671875 616.269531 1637.40625 672 1623.472656 C 690.636719 1618.8125 709.320313 1614.472656 728 1610 C 731.691406 1609.117188 745.789063 1607.78125 747.652344 1604.488281 C 749 1602 741.976563 1602.015625 741 1602.003906 C 731.960938 1602 723 1601 714 1601 C 677.378906 1601 641.480469 1605.53125 605 1608.089844 C 493.246094 1616 381.441406 1628.523438 270 1639.171875 C 230.40625 1643 189.683594 1655 150 1655 L 150 1654 C 167.234375 1649.527344 184.464844 1644 202 1641 L 202 1639 L 21 1639 C 15.46875 1639 7.585938 1637.554688 2.316406 1639.316406 C -2 1640.796875 0 1654.199219 0 1658 L 0 1707 C 0 1710.792969 -1.816406 1721.128906 1 1724 C 4.71875 1727.664063 20.902344 1725 26 1725 L 1970 1725 C 1975.742188 1725 1994.867188 1728.078125 1998.972656 1724 C 2001.816406 1721.128906 2000 1710.792969 2000 1707 L 2000 1658 C 2000 1654.320313 2001.980469 1641.695313 1998.398438 1639.601563 C 1995 1637.621094 1987.832031 1639 1984 1639 L 1863 1639 C 1847 1639 1829.671875 1637.507813 1814 1640 L 1814 1641 C 1827.171875 1646 1843.972656 1652.28125 1858 1653 L 1858 1654 C 1843 1656.375 1822.90625 1650.097656 1808 1647.464844 C 1779.976563 1642.511719 1751.304688 1640 1723 1637.171875 C 1621.757813 1627.371094 1520.328125 1619.484375 1419 1609.828125 C 1388.261719 1607 1357.75 1604.015625 1327 1602 C 1307.941406 1600.605469 1284.535156 1598.507813 1266 1604 L 1266 1605 C 1288 1612.476563 1312.316406 1616 1335 1621.234375 C 1395.816406 1635.554688 1456.464844 1650.417969 1516 1669.496094 C 1536.730469 1676.136719 1559.285156 1681.78125 1579 1691 C 1557.390625 1691.203125 1534.371094 1679.699219 1513 1676.195313 C 1418 1660.636719 1323.808594 1623 1227 1623 C 1229.878906 1627.125 1236.386719 1627.464844 1241 1629 C 1251.882813 1632.230469 1262.414063 1637 1273 1641.003906 C 1301 1652.042969 1328.199219 1665.539063 1354 1681.203125 C 1363 1686.707031 1376 1692 1383 1700 C 1341 1692 1304 1668.214844 1262 1659.800781 C 1250.367188 1657.472656 1233.660156 1652.472656 1222 1655 L 1222 1656 C 1248.398438 1670 1278.296875 1688.675781 1307 1697 L 1307 1698 C 1285.921875 1703.019531 1261.5625 1700 1240 1700 L 1113 1700 C 1088.242188 1700 1060.519531 1700 1042.328125 1680.164063 C 1015.21875 1650.824219 1061.585938 1635.191406 1077.960938 1618 C 1089.785156 1605.585938 1085.917969 1590.320313 1094 1577 C 1101.714844 1564.304688 1117.953125 1559.601563 1129 1550.535156 C 1147.617188 1535.25 1156.609375 1511.046875 1182 1504.75 C 1210.84375 1497.59375 1239.925781 1513.46875 1263 1529.195313 C 1271.699219 1535.121094 1280 1547.003906 1290 1550.410156 C 1295.753906 1552.390625 1304.984375 1551.402344 1311 1550.828125 C 1345.597656 1547.539063 1380.296875 1548.480469 1415 1547 C 1495 1543.449219 1575.660156 1542.046875 1656 1543.003906 C 1686.519531 1543.367188 1718.601563 1542.277344 1749 1545.171875 C 1761.265625 1546.335938 1784.257813 1551.503906 1795.773438 1546.398438 C 1799.546875 1544.726563 1800.835938 1538.507813 1802.1875 1535 C 1806.292969 1524.371094 1809.96875 1513.582031 1814.199219 1503 C 1815.238281 1500.40625 1820.878906 1490.785156 1816.667969 1489.316406 C 1811.738281 1487.601563 1804.195313 1489 1799 1489 L 1759 1489 C 1709.21875 1489 1659.628906 1493 1610 1493 L 1610 1491 C 1672.980469 1490.828125 1735.816406 1477 1799 1477 C 1805 1477 1816 1479 1821.484375 1475.664063 C 1828.796875 1471.191406 1820.761719 1449.421875 1834.976563 1459.613281 C 1836.632813 1460.800781 1838.269531 1462 1840 1463 C 1838.851563 1453.640625 1834.40625 1443 1831 1434 C 1840 1438.539063 1848 1449 1858 1451 C 1850.515625 1439.308594 1842.753906 1427.785156 1834 1417 C 1842.3125 1419 1849.292969 1422 1858 1422 C 1854 1413.171875 1845.464844 1407.757813 1840 1400 L 1863 1406 C 1859 1394.015625 1840.417969 1385.527344 1833 1375 L 1867 1375 C 1860.367188 1365.609375 1849.355469 1358 1839 1353 L 1839 1352 C 1849.925781 1353.472656 1862 1359.722656 1873 1359 C 1864.597656 1350.128906 1851.910156 1345.832031 1844 1337 C 1852.304688 1339.632813 1861.363281 1341 1870 1342 C 1865.929688 1333.460938 1853.261719 1327.085938 1845 1323 C 1853.925781 1321 1863.863281 1322 1873 1322 C 1868.515625 1316.730469 1861.183594 1313.734375 1855 1310.785156 C 1853.644531 1310.140625 1848 1308.722656 1848 1306.804688 C 1848 1303.421875 1867 1301 1870 1300 C 1864.871094 1293.316406 1856.78125 1289.421875 1850.441406 1284 C 1849 1282.792969 1844.738281 1279.164063 1846.832031 1277.066406 C 1848.792969 1275.101563 1857.214844 1277 1860 1277 C 1856 1270.269531 1832.941406 1254.78125 1853.996094 1258.257813 C 1856.367188 1258.648438 1858.648438 1259.515625 1861 1260 C 1857.230469 1252.609375 1844.773438 1250 1842.207031 1242.183594 C 1840.679688 1237.617188 1851.507813 1238.554688 1851.167969 1234.0625 C 1850.703125 1228 1839 1226.691406 1837.347656 1221.003906 C 1836 1216.695313 1843.804688 1217.511719 1843 1214.320313 C 1841.902344 1209.144531 1828.558594 1212.078125 1827.886719 1206.6875 C 1827.386719 1202.675781 1834.722656 1196.820313 1837 1194 C 1846.402344 1183 1855.699219 1172 1864 1160 C 1885.359375 1130.199219 1895.558594 1098.460938 1893.960938 1062 C 1891.722656 1011 1878.984375 958.066406 1889.511719 907 C 1898.828125 861.820313 1915.878906 818.300781 1925.488281 773 C 1946.304688 675 1954.429688 574.210938 1950 474 C 1948.308594 434.492188 1946.734375 395 1938.511719 356 C 1929.25 312.265625 1921.4375 268.484375 1901.246094 228 C 1894 213.53125 1885.644531 193.058594 1869 187.597656 C 1848.808594 181 1825.804688 193.558594 1808 202 C 1758.878906 224.675781 1711.679688 255.171875 1669 288.425781 C 1621 325.796875 1574.792969 366 1530.996094 408.039063 C 1475.90625 461.078125 1420.507813 514.261719 1369.171875 571 C 1351.308594 590.742188 1332.867188 610.019531 1315.285156 630 C 1302.535156 644.488281 1289.875 661.816406 1274 673 C 1274 667.40625 1276 661.351563 1275 656 L 1274 656 C 1271.214844 662 1269.167969 667.777344 1264 672 C 1264 661.011719 1267.183594 650.53125 1270 640 C 1260.199219 645.757813 1253.992188 660.191406 1247 669 C 1245.25 661.644531 1247.933594 654.039063 1246 647 L 1245 647 C 1243.515625 650.117188 1242 653.136719 1240 656 C 1238.964844 657.683594 1237.78125 659.355469 1236.574219 661 C 1224.722656 677.175781 1235 640.136719 1234 634 C 1222.828125 643.230469 1219.996094 660 1209 669 C 1209 661 1207.230469 653.0625 1207 645 C 1206.972656 643.34375 1207.710938 637.207031 1204.890625 637.207031 C 1201.769531 637.207031 1198.71875 644.777344 1197.320313 647 C 1191.652344 656 1186.546875 667.445313 1178 674 L 1177 639 C 1168.667969 643.460938 1163.773438 654.246094 1158.933594 662 C 1157.34375 664.550781 1154.394531 670.703125 1151 671.367188 C 1148.523438 672 1149 666.375 1148.910156 665 C 1148.640625 661.421875 1148.585938 642.746094 1145.488281 641.347656 C 1143 640.246094 1140 645.582031 1138.90625 647 C 1134 653 1129 659.535156 1123 664 L 1123 643 C 1111.496094 648.476563 1109.242188 663.507813 1100 671 L 1101 646 C 1094 651.496094 1088 658.691406 1085 667 L 1084 667 C 1083.652344 660.335938 1085.175781 654.496094 1086.246094 648 C 1086.523438 646.316406 1087.667969 642.53125 1086 641.175781 C 1084 639.515625 1080.945313 645 1080 646.003906 C 1075.304688 652.285156 1071.53125 660.527344 1066 666 C 1065.925781 662.457031 1065.640625 647.105469 1062.480469 645.347656 C 1059.917969 644 1055 658.722656 1055 661 C 1047.769531 654.621094 1052.265625 640.132813 1045 635 C 1044.601563 640.046875 1044 645 1044 650 C 1037.90625 642.589844 1034.191406 627.648438 1026 623 L 1025 655 L 1024 655 C 1022.222656 645.019531 1016 635.476563 1012.53125 626 C 1011.84375 624.164063 1010.660156 617.207031 1008 617.207031 C 1005.375 617.207031 1004.269531 625.136719 1003.628906 627 C 1000.363281 636.527344 995.21875 645.402344 992 655 L 991 655 C 991.492188 643.484375 992.457031 632.53125 991 621 C 983 625.4375 976.851563 640.636719 974 649 L 973 649 C 973 643.132813 972.773438 638.285156 970 633 L 969 633 C 969 641.296875 968.359375 653 962 659 C 962.554688 652 960.945313 646.699219 957 656 L 956 656 C 955.480469 654 955 645.609375 952.726563 645 C 949.597656 644.019531 949 662.765625 949 665 C 941.929688 658 939.730469 645.472656 931 640 C 931 649.386719 933.167969 660 931 669 C 926.445313 661.027344 922.300781 650.800781 914 646 C 914 654.214844 914.910156 663 913 671 L 912 671 C 908.660156 663.210938 904.429688 655.804688 899.359375 649.003906 C 898.398438 647.71875 895.1875 642.511719 892.988281 644.175781 C 890.628906 646 893.757813 662.160156 889.96875 661.367188 C 884.730469 660.277344 879 649.027344 876 645.003906 C 875 643.652344 872.769531 639.324219 870.511719 640.347656 C 866.304688 642.242188 867.292969 660 866.699219 664 C 866.472656 665.578125 865.925781 671 863.589844 671 C 860.605469 671 857.886719 664.101563 856.574219 662 C 852.324219 655.191406 845.933594 641.4375 838 639 C 839.636719 647.808594 838.234375 656.164063 837.984375 665 C 837.941406 666.519531 837.957031 673.003906 835 672.367188 C 831.980469 671.679688 829.515625 664.507813 828 662 C 823.492188 653.328125 818.355469 641.589844 811 635 C 808.433594 645.769531 808 658 808 669 C 799.527344 658.765625 794.394531 641.253906 783 634 C 783.234375 645.421875 787.789063 656.515625 787 668 C 781.855469 661.308594 777.398438 654.1875 773 647 L 772 647 C 770.828125 651 773 662.542969 770 665.078125 C 767.910156 667 764.746094 661.226563 763.886719 660 C 758.90625 653 754.988281 644.359375 748 639 C 749 650.1875 753.90625 660.601563 754 672 C 748.183594 668 745.546875 661.28125 740 657 C 740.332031 659.722656 744.847656 669.050781 742.167969 671 C 738.367188 673.492188 727.789063 659.363281 725.714844 657 C 710.71875 640 695.941406 622.214844 679.996094 606 C 624.96875 550.035156 571.550781 492.550781 516 437 C 468 389.066406 416.570313 345.058594 364 302.234375 C 319 265.449219 269 234.574219 218 207 C 199.316406 197 171.960938 181.132813 150 187.632813 C 132.878906 192.703125 123.753906 213.390625 116.5 228 C 96 269.050781 86.585938 315.074219 79.246094 360 C 57.253906 494.597656 64.753906 635.558594 91.449219 769 C 100.832031 816 119.492188 860.390625 128.996094 907 C 139.339844 957.726563 127.265625 1009.144531 125 1060 C 123.402344 1097.402344 132 1128 153 1159 C 160.984375 1171 169.882813 1182.179688 179.28125 1193 C 182 1196.285156 189.351563 1202.027344 189.539063 1206.699219 C 189.75 1212 176.964844 1210 175.921875 1215 C 175.296875 1218 181.761719 1217.667969 179.363281 1222 C 176.976563 1226.171875 167.207031 1229.277344 167.207031 1234.609375 C 167.207031 1238.453125 177.222656 1238.246094 175.792969 1242 C 173 1249 162.359375 1253.828125 158 1260 M 1436 677 C 1428 689.589844 1416.636719 700.472656 1407.261719 712 C 1390.230469 733 1374.167969 755 1360.203125 778 C 1322.703125 840.070313 1297.824219 908.613281 1265 973 L 1264 973 C 1265.789063 951.101563 1273.339844 927.683594 1280.496094 907 C 1301.425781 846.496094 1334.777344 792.777344 1374.601563 743 C 1392 721.121094 1412.671875 692.757813 1436 677 M 579 678 C 597.511719 701 621.273438 720.433594 640.570313 743 C 678.675781 787.554688 708.640625 837.609375 730.398438 892 C 737.996094 911 743.429688 930.183594 748.230469 950 C 750 957.441406 754 967.472656 753 975 C 738.640625 955.238281 731.339844 929 720.742188 907 C 694.804688 853.398438 670.921875 800.25 636.972656 751 C 624.1875 732.449219 609.550781 715 594.714844 698 C 590.546875 693.238281 578.863281 684.402344 579 678 M 1283 758 L 1283 761 L 1282 761 C 1282.25 759.546875 1282.316406 759.25 1283 758 M 1280.667969 763.667969 C 1280.722656 763.722656 1280.777344 764.777344 1280.332031 764.332031 C 1280.277344 764.277344 1280.222656 763.222656 1280.667969 763.667969 M 738 766 L 738 769 L 737 769 C 737.25 767.550781 737.316406 767.246094 738 766 M 1280 766 C 1265.339844 816.675781 1256 866.769531 1249.816406 919 C 1247.8125 935.679688 1242.722656 952.136719 1242 969 L 1240 969 C 1240 929.457031 1241.738281 891.710938 1250.5 853 C 1257.28125 823.03125 1269.621094 795.3125 1278 766 L 1280 766 M 739 770 C 768.75 828.355469 782 906.097656 777 971 L 776 971 C 772.9375 960.644531 772.363281 948.734375 770.566406 938 C 764.433594 901.449219 761 864.292969 753.339844 828 C 750.484375 814.546875 747.347656 801.199219 743.445313 788 C 741.894531 782.757813 737.507813 775.367188 739 770 M 1485 786 L 1485 787 C 1457.945313 803.617188 1431.183594 821.371094 1408.171875 843.425781 C 1385.398438 865.246094 1365.554688 889.800781 1345.414063 914 C 1331.234375 931.039063 1317.1875 948.175781 1304 966 C 1298.722656 973.136719 1292.890625 986 1285 990 C 1291.40625 966.566406 1308.332031 942.578125 1322.289063 923 C 1352.960938 880 1389.878906 843.085938 1434 814 C 1449.761719 803.605469 1467 792.121094 1485 786 M 733 992 C 719.996094 981.414063 710.808594 963.175781 700.230469 950.089844 C 673 916.496094 645.5 882 614.480469 851.765625 C 597.636719 835.410156 579.335938 820.347656 560 807.027344 C 551.421875 801.113281 535.671875 795.683594 530 787 C 551 794.207031 571.773438 808.355469 590 821 C 632.664063 850.519531 670.429688 886.667969 699.332031 930 C 710.953125 947.421875 729.269531 971.066406 733 992 M 1573 860.332031 C 1573.773438 860.332031 1573 860.832031 1572.667969 860.667969 L 1573 860.332031 M 692 975 C 655.679688 954.777344 622 930.167969 585 911.109375 C 540 888.042969 493.722656 873.632813 445 862 C 450.839844 859.550781 457.972656 862 464 862.726563 C 477.777344 864.757813 491.472656 867.488281 505 870.769531 C 557.652344 883.539063 611.199219 902.410156 654 936.601563 C 665.667969 946 687.847656 960.058594 692 975 M 1568 861 L 1568 862 C 1554 866.140625 1539 867.609375 1525 872 C 1489.511719 882.605469 1454.824219 897.433594 1422 914.625 C 1400.78125 925.738281 1380 938.253906 1360 951.34375 C 1348.515625 959 1336.933594 969.265625 1324 974 C 1326.660156 967.132813 1332.535156 962.832031 1337.574219 957.714844 C 1349.3125 945.796875 1362 935 1376 925.667969 C 1416.460938 898.679688 1459.941406 882.546875 1507 871 C 1526.769531 866.097656 1547.527344 861 1568 861 M 702 998 C 654.304688 982.453125 607.664063 970.820313 557 973.039063 C 534.894531 974.007813 512.773438 981.535156 491 982 C 501 974.496094 518.902344 972.808594 531 970.539063 C 572.621094 962.742188 615.265625 962.636719 656 975.117188 C 668.539063 979 695.679688 985.667969 702 998 M 1525 981 L 1525 982 C 1514 981.4375 1502.964844 977.683594 1492 976.285156 C 1469 973.355469 1445 971.503906 1422 973.089844 C 1402 974.457031 1381.34375 977.046875 1362 982.425781 C 1347.285156 986.515625 1332 993.78125 1317 996 C 1319.808594 991.40625 1325.359375 989.632813 1330 987.222656 C 1341.257813 981.375 1352.792969 976.640625 1365 973.140625 C 1419.558594 957.496094 1471.394531 968.597656 1525 981 M 510 1106 C 513.546875 1100 522 1096.199219 528 1093 C 544.367188 1083.730469 561.824219 1076.28125 580 1071.628906 C 646.652344 1054.574219 718.453125 1078.074219 769 1123 C 783.199219 1135.558594 799.425781 1150.765625 808 1168 C 808 1160.371094 802.378906 1153 799.425781 1146 C 791.308594 1127.085938 781.90625 1108.511719 769.523438 1092 C 764.664063 1085.519531 759.472656 1079.308594 754.390625 1073 C 752.847656 1071.085938 749.46875 1068.082031 749.921875 1065.316406 C 750.382813 1062.503906 755 1063.015625 757 1063 C 763.800781 1063 770.328125 1063 777 1064.425781 C 812.5 1072.253906 834.570313 1101.804688 849.296875 1133 C 875.730469 1189 883.648438 1252.378906 871.449219 1313 C 866.234375 1339 856.804688 1365.277344 843.199219 1388 C 840 1393.332031 833.601563 1408.363281 826.1875 1408.363281 C 821.496094 1408.363281 822 1401.023438 821.714844 1398 C 820.308594 1386.269531 822 1373.78125 822.910156 1362 C 826.386719 1311.230469 823.773438 1256.648438 804 1209 C 774.480469 1137.03125 698.585938 1086 621 1085.019531 C 581.726563 1084.523438 547.207031 1095.746094 510 1106 M 1207 1168 C 1214.371094 1161.269531 1219.335938 1151.671875 1225.753906 1144 C 1236 1131.578125 1248.3125 1120.328125 1261 1110.285156 C 1310.375 1071.203125 1385.8125 1054.429688 1446 1074.667969 C 1461.65625 1080 1476.652344 1086.511719 1491 1094.71875 C 1496.625 1098 1504 1101.019531 1507 1107 C 1480.519531 1099.371094 1455.875 1089.15625 1428 1086.175781 C 1341.488281 1077 1252.5625 1120.328125 1215.375 1201 C 1197.742188 1239.242188 1193 1282.378906 1193 1324 C 1193 1337.167969 1191.859375 1351 1193.574219 1364 C 1195 1375.222656 1195.605469 1387.675781 1194.957031 1399 C 1194.777344 1402.140625 1193.398438 1409.449219 1188.910156 1409 C 1182.222656 1408.238281 1175.285156 1393.21875 1172.289063 1388 C 1159.265625 1365.324219 1150 1340.621094 1144.800781 1315 C 1131.6875 1250.460938 1140.902344 1180 1172.695313 1122 C 1188.9375 1092.421875 1215.851563 1064 1252 1063.015625 C 1254.507813 1063 1266.734375 1061.515625 1266.796875 1065.316406 C 1266.84375 1068.238281 1262.890625 1071.738281 1261 1073.816406 C 1255.347656 1080.761719 1249.761719 1087.710938 1244.371094 1095 C 1228.210938 1117 1218.855469 1143.699219 1207 1168 M 525 1126 C 516.476563 1138.007813 502.226563 1147.09375 492 1158 C 475.464844 1176 461.714844 1199 453.507813 1222 C 428.796875 1291.300781 437.355469 1367.667969 494 1418.828125 C 508.472656 1432 525.347656 1441.609375 543 1449.691406 C 565 1459.8125 588.957031 1464.511719 613 1466.765625 C 650.363281 1470.265625 689.871094 1461 723 1443.742188 C 739.277344 1435.339844 753.445313 1424.183594 769 1414.660156 C 778.523438 1408.828125 801 1402 802.886719 1420 C 804.433594 1435.738281 780.359375 1449.5 769 1456.574219 C 730.65625 1480.457031 683.675781 1497.453125 638 1498 C 568.28125 1498.824219 480.402344 1481.390625 436.746094 1421 C 387.929688 1353.472656 415 1250.339844 457.332031 1187 C 472.984375 1163.570313 497.824219 1136.085938 525 1126 M 1495 1127 C 1513.710938 1139.472656 1531.726563 1152 1546.714844 1169 C 1585 1212.796875 1602.554688 1270.78125 1605 1328 C 1606.597656 1364 1597.480469 1401.171875 1573.699219 1429 C 1528.808594 1481.527344 1450.96875 1498 1385 1498 C 1335.667969 1498 1288.945313 1482.273438 1247 1457 C 1235 1449.773438 1208 1435.316406 1212.558594 1418 C 1215 1408.402344 1226.605469 1406.050781 1235 1409 C 1254.542969 1415.757813 1270.894531 1431.554688 1289 1441.308594 C 1366.460938 1483.027344 1473.925781 1475.164063 1535 1407.574219 C 1589.875 1347.089844 1587.605469 1257.164063 1547.859375 1189 C 1537.800781 1171.753906 1525 1157 1511 1143.003906 C 1507.382813 1139.429688 1494.441406 1132.382813 1495 1127 M 662 1138.285156 C 710.417969 1132.558594 748.277344 1197 701 1226.535156 C 692.558594 1232 683.832031 1234.539063 674 1235.714844 C 632.867188 1240.632813 596.289063 1197.140625 622 1160 C 625.738281 1154.6875 630.578125 1150.191406 636 1146.699219 C 643.960938 1141.570313 652.726563 1139.382813 662 1138.285156 M 1420 1138.285156 C 1467 1132.734375 1504 1192.199219 1462 1224.476563 C 1452.75 1231.558594 1441.410156 1234.480469 1430 1235.710938 C 1382.441406 1240.832031 1349 1180.027344 1390 1148.527344 C 1398.894531 1141.671875 1409 1139.566406 1420 1138.285156 M 484 1229 C 480 1259.046875 480.332031 1289.359375 492 1318 C 501.175781 1340.457031 515.222656 1361.355469 533 1378 C 545.554688 1389.601563 560.253906 1399 576 1405.578125 C 677 1449 790 1367.414063 790 1260 L 791 1260 C 796.507813 1275.113281 795.394531 1293.367188 793.289063 1309 C 786.867188 1356.632813 753.914063 1400 712 1422.691406 C 647 1458 558.214844 1446.265625 507 1392.015625 C 475.699219 1358.699219 464.429688 1313.394531 471.5625 1269 C 473.425781 1257.394531 475.394531 1237.613281 484 1229 M 1535 1229 C 1542.511719 1242.214844 1545.667969 1260.046875 1547.167969 1275 C 1553.621094 1339.238281 1521.929688 1399.058594 1462 1426.691406 C 1386.203125 1461.640625 1288.25 1438.613281 1244.453125 1365 C 1232.425781 1344.785156 1224 1321.671875 1223 1298 C 1222.507813 1285.816406 1224.75 1274.078125 1225 1262 L 1227 1262 C 1227 1381.71875 1373.351563 1463.664063 1472 1389.101563 C 1509.597656 1360.683594 1530.1875 1319.054688 1535.714844 1273 C 1536.65625 1265.140625 1537.652344 1257 1536.714844 1249 C 1536 1243.128906 1533 1234.566406 1535 1229 M 1021 1321 C 1022 1333.429688 1026.390625 1345.464844 1027 1358 C 1027 1359.59375 1026.925781 1369 1029 1369 C 1031.25 1369 1032.957031 1364.417969 1033.910156 1363 C 1037.710938 1357.355469 1042.441406 1352 1048 1348 C 1050.917969 1357.226563 1052 1367 1055.53125 1376 C 1060.910156 1390.308594 1066.980469 1398.402344 1065 1414 C 1074.597656 1402.582031 1077 1418.582031 1083 1427 C 1083 1424.554688 1082.519531 1422.390625 1082 1420 C 1090.394531 1425.128906 1094.433594 1437.386719 1102 1444 C 1099.363281 1437.644531 1094.667969 1432.359375 1092 1426 C 1114.503906 1443.222656 1129 1478.367188 1129 1506 C 1124.433594 1503.019531 1121.574219 1497.058594 1117.828125 1493.015625 C 1112 1487 1104.570313 1482 1097 1478.320313 C 1064.882813 1463.09375 1036.804688 1479.160156 1004 1477 C 975.261719 1475 949.246094 1465.304688 921 1476.757813 C 911.785156 1480.492188 903.78125 1486.652344 897.171875 1494 C 893.757813 1497.792969 891.246094 1503.230469 887 1506 C 887 1483.296875 896.5625 1463.476563 909 1445 C 913.605469 1438.160156 918.324219 1430 925 1425 C 922.988281 1429.832031 920.433594 1434.371094 918 1439 C 924.515625 1433.03125 928.800781 1424.132813 932 1416 L 933 1416 L 933 1425 C 937.996094 1420.308594 940.828125 1413.027344 944 1407 L 951 1414 C 945.664063 1397.167969 959.539063 1382.046875 963.988281 1366 C 964.695313 1363.457031 965.722656 1350.527344 968.429688 1350 C 972.683594 1349 981.605469 1362.023438 983.617188 1365 C 984.207031 1366 986.507813 1370.664063 988 1369.078125 C 990.320313 1367 988.890625 1360 989 1357 C 989.894531 1345.234375 993.492188 1333.6875 994 1322 L 996 1322 C 996.71875 1338.441406 1002.511719 1360 1009 1375 C 1012 1362.382813 1013.246094 1349 1016 1336 C 1017 1331.316406 1016.835938 1323.699219 1021 1321 M 932 1425 L 933 1426 L 932 1425 M 916 1441 L 917 1442 L 916 1441 M 1102.332031 1444.667969 C 1102.277344 1444.722656 1102.222656 1445.777344 1102.667969 1445.332031 C 1102.722656 1445.277344 1102.777344 1444.222656 1102.332031 1444.667969 M 34 1483 C 38 1489.191406 57.949219 1487 65 1487 C 95 1487 125 1487.046875 155 1487 C 163.714844 1487 172.324219 1486.03125 181 1486 C 183.453125 1486 188.457031 1486.675781 189.578125 1483.699219 C 191.191406 1479.410156 184.785156 1478 182 1477.441406 C 172.460938 1476 162.585938 1478 153 1476.714844 C 112.910156 1472 73.695313 1482.179688 34 1483 M 1988 1485 L 1988 1483 C 1947.402344 1482.664063 1906.953125 1471.199219 1866 1476.574219 C 1857 1477.746094 1847.984375 1477.039063 1839 1478.171875 C 1835.828125 1478.570313 1830.5625 1480 1829.921875 1483.699219 C 1829.394531 1487 1836.261719 1486.003906 1838 1486.171875 C 1847.679688 1487.097656 1857.269531 1487 1867 1487 C 1907.488281 1487.195313 1947.546875 1486.738281 1988 1485 M 1001 1490.289063 C 1010.753906 1489.023438 1021.503906 1490 1031 1492.351563 C 1042.285156 1495.292969 1037.824219 1500 1029 1501.625 C 1017.828125 1503.742188 1005 1503.386719 994 1500.742188 C 991.558594 1500.15625 985.613281 1500 984.347656 1497.3125 C 982.429688 1493.316406 998.695313 1490.589844 1001 1490.289063 M 416 1493 L 416 1494 L 410 1493 C 412.425781 1491.480469 413.355469 1492 416 1493 M 425 1493 L 425 1494 L 417 1494 C 419.621094 1492.304688 421.90625 1492.789063 425 1493 M 1607 1493.332031 C 1607.773438 1493.332031 1607 1493.832031 1606.667969 1493.667969 L 1607 1493.332031 M 36 1573 L 36 1574 C 50.535156 1577.410156 70 1573.109375 85 1572.089844 C 116.28125 1570 147.707031 1570.054688 179 1568 C 192.753906 1567 211.382813 1562.832031 224.886719 1565.476563 C 229.8125 1566.441406 232.964844 1576 234.996094 1580 C 241 1592.113281 247.40625 1604.121094 253.988281 1616 C 256.316406 1620.199219 258.765625 1627.496094 264 1628.644531 C 277.40625 1631.550781 297.421875 1625 311 1623.285156 C 345.597656 1619.132813 380.335938 1615.636719 415 1612.167969 C 497.679688 1604 580.339844 1596.101563 663 1588.171875 C 691.6875 1585.417969 720.515625 1583.011719 749 1578.4375 C 758.488281 1577 768.816406 1576.789063 778 1574 C 769.570313 1567.613281 749.488281 1570.222656 739 1568.386719 C 694.945313 1560.671875 649.339844 1565.050781 605 1560.828125 C 562.652344 1556.800781 519.535156 1559 477 1558 C 399.511719 1556.210938 321.511719 1556.085938 244 1558 C 187.890625 1559.359375 132.785156 1557.78125 77 1566.5625 C 63.601563 1568.671875 49 1569.050781 36 1573 M 1237 1573 L 1237 1575 C 1277.417969 1576 1318.820313 1585.523438 1359 1589.824219 C 1444.582031 1599 1530.335938 1605.570313 1616 1614.167969 C 1644.964844 1617.074219 1674 1619.738281 1703 1623.285156 C 1719 1625.265625 1736.78125 1629.488281 1753 1629 C 1760.183594 1628.75 1761.898438 1622.4375 1765 1617 C 1771.871094 1605 1777.578125 1592.386719 1783.753906 1580 C 1785.808594 1576 1788 1567.484375 1793 1566.179688 C 1798.429688 1564.777344 1804.625 1567 1810 1567 C 1824.394531 1567.339844 1838.652344 1568 1853 1569 C 1897.421875 1572 1942.441406 1574 1987 1574 C 1981.859375 1571 1974.828125 1571.328125 1969 1570.410156 C 1954.410156 1568.113281 1939.683594 1566.324219 1925 1564.832031 C 1873 1559.550781 1822.1875 1558 1770 1558 C 1642.671875 1558 1515.171875 1555.46875 1388 1561.039063 C 1337.476563 1563.253906 1287.40625 1569.023438 1237 1573 "/>
</g>
</svg>
