<?xml version="1.0" encoding="UTF-8"?>
<svg xmlns="http://www.w3.org/2000/svg" xmlns:xlink="http://www.w3.org/1999/xlink" width="2000pt" height="2000pt" viewBox="0 0 2000 2000" version="1.1">
<g id="surface1">
<path style=" stroke:none;fill-rule:nonzero;fill:rgb(0%,0%,0%);fill-opacity:1;" d="M 1173 590 L 1172 590 C 1172 580.21875 1174.390625 571.507813 1176 562 C 1169 566 1162.175781 578.734375 1159 586 L 1158 586 C 1158.996094 562.800781 1165.660156 540.019531 1172 518 C 1154.640625 526.097656 1141.554688 550 1134.601563 567 C 1131.613281 574.320313 1129.589844 586.589844 1124 592 L 1124 566 C 1116.605469 573.011719 1116.976563 585.789063 1110 593 C 1110.992188 570 1113.851563 546.511719 1119 524 C 1097.597656 534 1084 567.648438 1084 590 L 1082 590 C 1081.316406 582.148438 1078.765625 573.371094 1076 566 C 1071.636719 572.382813 1071 585.308594 1071 593 C 1066.996094 588.398438 1067 580.816406 1065.625 575 C 1062.34375 561.707031 1056.757813 548.59375 1055 535 C 1040.515625 543.367188 1044.992188 572.410156 1045 586 L 1044 586 C 1042.21875 580 1040.601563 571.183594 1037 566 C 1033.21875 575 1035 586.414063 1035 596 L 1034 596 C 1028.371094 579.46875 1020.675781 563.691406 1015.34375 547 C 1014.65625 545 1012.535156 532.207031 1010 532.207031 C 1007.765625 532.207031 1005.550781 544.019531 1005 546 C 1000.609375 562.3125 1003.296875 576.644531 1004 593 C 997 586.171875 994.660156 575.046875 987 569 C 987.820313 579.398438 989.6875 589.664063 991 600 C 982.324219 589.414063 977.585938 574.171875 971.253906 562 C 969.6875 559 966.929688 550.648438 963 550 C 960.328125 549.386719 960.214844 559.183594 960 561 C 959.171875 574.378906 963.9375 586 965 599 C 959.773438 592.703125 956.214844 584.289063 950 579 C 949.296875 589.585938 955.222656 601.515625 957 612 L 956 612 C 948.71875 597.363281 939 583.4375 931.308594 569 C 930 566.671875 925.945313 555.207031 923 555.207031 C 919.496094 555.207031 920 566 920 568 C 919.976563 582.3125 923.179688 596 929 609 C 920.191406 601.832031 914.394531 589.0625 904 584 C 908.265625 596 911.402344 608.144531 916 620 C 894.925781 603.738281 885.667969 567.449219 857 560 C 864.355469 580.210938 877 598.539063 884 619 C 876.414063 611.414063 867.917969 601.449219 858 597 C 861.441406 607.800781 868.324219 618.546875 873 629 C 855.742188 613.683594 843.695313 593.375 825 579.128906 C 819.796875 575.164063 814.371094 569.734375 808 568 C 817.816406 594 839.257813 614.285156 851 639 C 842.441406 630.511719 827.652344 616.261719 816 613 C 819 621.339844 825.671875 628.226563 830 636 C 812.621094 623.664063 799 601.550781 785.800781 585 C 762.804688 556.257813 738.28125 527.8125 711.984375 502.039063 C 620.96875 412.824219 515.710938 340.332031 397 293 C 356.59375 277 312.453125 261.503906 269 257 C 252.214844 255.03125 233.230469 252.113281 217 258.464844 C 178.859375 273.386719 178.527344 327 181.828125 361 C 191 456.226563 215.441406 548.328125 245.667969 639 C 272 718.183594 305.910156 794.25 340.691406 870 C 354.980469 901.121094 363.472656 935.417969 380.859375 965 C 391.539063 983.164063 406.484375 999.027344 423 1012 C 439.691406 1025.082031 458.269531 1035.402344 466.6875 1056 C 479.210938 1086.644531 482.226563 1122.230469 491.882813 1154 C 508.292969 1208 532.410156 1260.730469 564.796875 1307 C 577.480469 1325.121094 591.953125 1352.363281 611 1364.398438 C 615.515625 1367.25 621 1365.160156 626 1365.015625 C 640 1364.601563 654 1363.046875 668 1362.089844 C 702.207031 1359.746094 736.679688 1359 771 1359 C 786.257813 1359 804 1356.460938 819 1360 L 819 1361 C 803.21875 1361.679688 787.683594 1365.238281 772 1366.832031 C 734.3125 1370.660156 696.691406 1375.226563 659 1378.828125 C 617.710938 1382.777344 575.988281 1382.089844 535 1389.464844 C 436.320313 1407.21875 344.171875 1442.53125 259 1495.574219 C 225.941406 1516.164063 194.667969 1538.621094 164 1562.574219 C 152.878906 1571.265625 134 1581.761719 127 1594 C 143.570313 1587.726563 158.558594 1573.734375 174 1565 C 209.835938 1544.300781 245.828125 1524.363281 283 1506.257813 C 387.636719 1455.292969 500 1415.804688 614 1391.511719 C 619.632813 1390.308594 629.5 1387 635 1389.269531 C 648.503906 1395.09375 658.675781 1420 674 1421 C 680.390625 1421.277344 687.789063 1418.269531 694 1417 C 707.3125 1414 720.65625 1411.046875 734 1408.210938 C 771.507813 1400.238281 809.355469 1395.09375 847 1388 C 842 1392.789063 834.316406 1394.0625 828 1396.425781 C 813.46875 1402 798.769531 1406.625 784 1411.34375 C 722.175781 1431.097656 658.886719 1438.425781 596 1453.234375 C 466.359375 1483.761719 352.46875 1566 252 1650 C 226.671875 1671.082031 202.3125 1693.652344 179 1717 C 169.917969 1726.097656 155.402344 1737.414063 150 1749 C 168.273438 1738.4375 184 1721.101563 201 1708.375 C 238 1680.535156 275.980469 1653.8125 315 1628.691406 C 394.535156 1577.488281 479.566406 1537.074219 566 1499.140625 C 606.878906 1481.199219 647.777344 1461.039063 690 1446.441406 C 707.273438 1440.46875 717.84375 1471.695313 734 1469.28125 C 748.902344 1467.058594 766.3125 1456.558594 780 1450.308594 C 800 1441.167969 820.742188 1433.222656 841 1424.578125 C 851.851563 1420 862.695313 1413.257813 874 1410 C 840.300781 1441.015625 792.726563 1466.5 750 1482.574219 C 732.878906 1489.015625 714.453125 1492.628906 697 1498.195313 C 670 1506.785156 643.828125 1517.351563 618 1529 C 506.960938 1578.347656 406.585938 1654.746094 323.199219 1742.5625 C 293.632813 1773.699219 257.414063 1806.414063 236 1844 C 249.933594 1834.78125 260.890625 1819.75 273 1808.234375 C 295.527344 1786.820313 319.382813 1766.625 343 1746.429688 C 407.785156 1691.023438 478.175781 1641.410156 551 1597.203125 C 590.972656 1573 631.945313 1550.273438 673 1528 C 697.871094 1514.378906 723.382813 1498.3125 750 1488.5 C 761.496094 1484.261719 773.734375 1508 785 1505.433594 C 796.613281 1503 810 1490.492188 820 1484 C 846.25 1466.691406 871.78125 1448.269531 898 1431 C 879.710938 1455.085938 855 1476.445313 832 1495.753906 C 826 1500.753906 819.941406 1505.683594 814 1510.753906 C 812.203125 1512.292969 808.476563 1514.765625 808.921875 1517.585938 C 809.3125 1520.0625 814 1521.554688 816 1522.585938 C 823 1526.457031 830.613281 1529.59375 838 1533 C 868 1546.183594 901.644531 1553.289063 931 1568 C 944.824219 1575 954.722656 1586.710938 962 1600 C 999.171875 1666.378906 953.617188 1735.480469 898 1773 L 898 1774 C 906.21875 1773.175781 914.398438 1768.695313 922 1765.597656 C 953.75 1752.660156 975.8125 1731.230469 999 1707 C 993.527344 1730.035156 976 1753.046875 961.386719 1771 C 955.683594 1778 946.789063 1784 943 1792 C 966.785156 1783 985.871094 1759.820313 1005 1744 C 990.441406 1787.035156 958.785156 1831.109375 917 1851 L 917 1852 C 949.464844 1851.726563 987.96875 1832.792969 1012 1812 C 1004 1848.210938 969.8125 1885 941 1906 C 932.796875 1911.804688 924 1917.195313 915 1921.730469 C 910.664063 1924 904.800781 1925 902 1929 C 971.859375 1920.171875 1025 1883.640625 1079 1840.449219 C 1160.554688 1775.179688 1230.933594 1696.195313 1301.910156 1620 C 1324.242188 1596.027344 1346.59375 1571.804688 1368 1547 C 1375.394531 1538.433594 1383 1530.179688 1390.960938 1522 C 1393.738281 1519.09375 1396.378906 1514.515625 1400 1512.636719 C 1405 1510.027344 1413.777344 1522.777344 1417 1526 C 1432.433594 1541.425781 1450.527344 1555 1471 1563 C 1503.355469 1575.5625 1540.519531 1582.269531 1573 1566.03125 C 1580.335938 1562.363281 1587.625 1557.714844 1593.535156 1552 C 1597 1548.621094 1600 1542.609375 1605 1541.316406 C 1612.746094 1539.296875 1622 1541.492188 1630 1541 C 1646.5625 1539.695313 1673.386719 1529 1682 1514 C 1664.902344 1517 1650.320313 1520.804688 1634 1511.652344 C 1620.5625 1504.117188 1624.859375 1499.089844 1628.253906 1487 C 1629 1483.769531 1629 1478 1632.3125 1476.066406 C 1636.308594 1473.671875 1645.535156 1476.40625 1650 1476.828125 C 1660.75 1478 1672.621094 1476.636719 1683 1473.703125 C 1697.371094 1469.640625 1711.839844 1462.609375 1721.675781 1451 C 1726.714844 1445.042969 1730.722656 1432 1737.214844 1428.027344 C 1741.609375 1425.433594 1748.988281 1426.65625 1754 1425.101563 C 1770.792969 1420 1790.6875 1408.023438 1799 1392 C 1783 1396 1770.199219 1401.640625 1754 1394 C 1750 1392.097656 1742.878906 1388.71875 1741.976563 1384 C 1741.449219 1381.160156 1743 1377.765625 1743.558594 1375 C 1744 1371.546875 1743 1366.332031 1745.742188 1363.601563 C 1749.664063 1359.519531 1760.679688 1360 1766 1358.25 C 1776.378906 1355 1786.488281 1348 1793.910156 1340 C 1801.210938 1332.214844 1807 1322.3125 1809.84375 1312 C 1811 1307.457031 1811 1296.039063 1814.601563 1293 C 1818.316406 1289.796875 1826.410156 1289.703125 1831 1287.652344 C 1843.769531 1282 1858.675781 1269.152344 1862 1255 C 1844.621094 1262 1810.425781 1266.445313 1807.433594 1239.015625 C 1806.816406 1233.351563 1814 1231 1818 1228.277344 C 1828.5625 1221 1837.621094 1212.230469 1844 1201 C 1864 1166.484375 1859 1121.476563 1841.730469 1087 C 1821.222656 1046.242188 1776.765625 1011.171875 1730 1008 C 1718.546875 1007.191406 1707.535156 1006 1696 1006 C 1694.332031 1006.003906 1685 1007.398438 1685.628906 1004.644531 C 1686.402344 1000.339844 1693.304688 994.371094 1696 991 C 1705.277344 980 1715 969.25 1724.195313 958 C 1748.898438 927.394531 1774.28125 897.238281 1799.433594 867 C 1812 851.765625 1829.921875 834.148438 1838 816 C 1827 821.050781 1818 833 1809 840.730469 C 1790.402344 856.671875 1771.421875 872.15625 1753 888.285156 C 1743.546875 896.5625 1734.695313 906.3125 1724 913 C 1723.933594 888.441406 1710 860.152344 1715.898438 836 C 1719.75 820.152344 1732.804688 807.007813 1740.667969 793 C 1751.996094 772.816406 1757.648438 750 1759.828125 727 C 1764.710938 675.777344 1762.285156 623.277344 1760 572 C 1755.730469 473.570313 1743.425781 374.8125 1719.472656 279 C 1705.367188 222.574219 1691.464844 156 1655 109 C 1620.914063 65 1559.492188 100.132813 1522 120.460938 C 1513.503906 125.066406 1505.265625 130.183594 1497 135.203125 C 1486.324219 141.6875 1476 149 1466 156.375 C 1345.414063 246.417969 1253.371094 371.25 1202 513 C 1193 538.03125 1178.425781 564.046875 1173 590 M 1685 445 C 1690.496094 474.613281 1690.890625 510.023438 1682 539 C 1665 595.046875 1616 641.261719 1561 660 C 1570 648.230469 1585.363281 639.667969 1596 629 C 1618 607 1637.402344 580.78125 1651.742188 553 C 1662.710938 531.753906 1672.371094 509.425781 1677.574219 486 C 1680 474.832031 1678.777344 454.109375 1685 445 M 1322 460 C 1318.476563 469.292969 1311 477.734375 1305.667969 486 C 1295.964844 500.625 1286.660156 515.558594 1278.308594 531 C 1250.960938 581.570313 1231 635.132813 1214.429688 690 C 1208 710.816406 1197.914063 732.367188 1195 754 L 1194 754 C 1192.316406 747 1194.410156 740.128906 1194.910156 733 C 1196.1875 714.777344 1199.796875 696.75 1204 679 C 1218.453125 620.320313 1247.300781 564.054688 1280.667969 514 C 1292.5625 496.15625 1305 473.558594 1322 460 M 1438 497 C 1430.863281 507.398438 1414 514.304688 1404 522 C 1381.707031 538.585938 1360.601563 557.167969 1341 577 C 1287.339844 631.308594 1249.191406 695 1214 762 L 1213 762 C 1214 738 1229 709.574219 1239 688 C 1277.816406 604.8125 1352.5625 532.097656 1438 497 M 1707 530 C 1707 552.210938 1708.363281 575 1705.714844 597 C 1703.550781 615.027344 1697.464844 633.808594 1698 652 C 1698.910156 679.222656 1712 702.152344 1705.570313 730 C 1696.445313 769.535156 1652.46875 793.515625 1664 837 L 1663 837 C 1653 820.558594 1649.378906 802.515625 1656.460938 784 C 1662.214844 769 1674 754.242188 1675.824219 738 C 1678.859375 709.753906 1652 700 1629 704.601563 C 1616.808594 707.054688 1605 711.464844 1593 714 L 1593 713 C 1621.824219 697.816406 1654.835938 679.207031 1674 652 C 1651.191406 661.78125 1629 673 1606 682.199219 C 1595.867188 686.253906 1583.980469 692.4375 1573 693 L 1573 692 C 1619 671.082031 1660.695313 626.785156 1684.6875 583 C 1690.648438 572.121094 1695.609375 560.613281 1699.949219 549 C 1702.210938 543 1703 535.171875 1707 530 M 663 541 C 726.746094 599.71875 785.65625 663.65625 824.601563 742 C 833 759.003906 839.742188 776.277344 846.425781 794 C 849.78125 803 854.5625 812.394531 855 822 L 854 822 C 844.488281 799.160156 828.949219 778.535156 816.859375 757 C 789 707.613281 760.902344 658.597656 725.789063 614 C 711.195313 595.464844 695.449219 578.0625 679.488281 560.730469 C 675 556 662.855469 547.8125 663 541 M 1563 577 L 1563 579 C 1456.8125 592.421875 1362.269531 632.730469 1286 709 C 1265 730 1242.757813 754.09375 1228 780 C 1226.761719 773 1234 763.085938 1237.21875 757 C 1248.335938 736 1261.523438 716.59375 1276.398438 698 C 1343.355469 614.308594 1458.417969 577.070313 1563 577 M 966 599 L 965 600 L 966 599 M 304 630 C 327.363281 694.207031 385.863281 752.078125 444 785.421875 C 463.566406 796.644531 485.53125 809.007813 508 813 L 508 814 C 427 807.609375 358.632813 767.773438 324.695313 692 C 318.324219 677.78125 313 662.78125 308.167969 648 C 306.464844 643 302.433594 635.292969 304 630 M 838 826 C 829 821.480469 822.476563 809.386719 815.828125 802 C 802.183594 787 787.914063 772.191406 773 758.183594 C 737.675781 724.71875 698 695.027344 657 669 C 636.523438 656 614.898438 642.320313 592 634 C 598 631.652344 606.28125 637 612 639 C 630.246094 645.621094 648.871094 652.742188 666 662 C 722 692.152344 768.882813 728.765625 807.476563 780 C 818.167969 794.199219 830.363281 810 838 826 M 831 636 L 830 637 L 831 636 M 1337 717 L 1337 718 C 1313.175781 732 1290 746.609375 1269 764.4375 C 1259 772.757813 1249.484375 787.628906 1238 793 C 1250.878906 765.453125 1276.285156 745.6875 1302 731 C 1312.183594 725.183594 1325.1875 718.183594 1337 717 M 828 840 C 816.214844 833.21875 806.285156 822.664063 795 815 C 776 802 755.582031 791.09375 735 781.109375 C 681.441406 755.125 623.492188 738.164063 564 734.089844 C 533.398438 732 503.46875 736 473 736 C 478.972656 732.421875 488 732.363281 495 731.246094 C 513.6875 728.191406 532.1875 727.199219 551 726 C 632.570313 720.324219 718 744.339844 782 795.550781 C 797.835938 808.226563 817.207031 822.554688 828 840 M 327 737 C 342 752.765625 353.90625 770.324219 371 784.566406 C 410 817.15625 453.980469 831.050781 501 847 L 501 848 C 466.457031 848 432.773438 843 399 836 C 414.765625 853.066406 447 861.4375 469 866.5 C 477.546875 868.472656 489.503906 868.5 497 873 C 482.410156 877.3125 465.972656 873.621094 451 877.582031 C 429.339844 883.316406 424 902.617188 434.878906 921 C 447.511719 942.683594 473.824219 952.816406 483.324219 977 C 487.253906 987 486.445313 996.640625 486 1007 L 485 1007 C 483.300781 1000 483 993.390625 478.890625 987 C 464 964.570313 433.949219 955.640625 415.171875 936.828125 C 403.472656 925.113281 394.488281 909.03125 390.476563 893 C 387 879.460938 386.878906 865.136719 381.933594 852 C 373.277344 829 355 809.546875 344.769531 787 C 339.515625 775.5625 335.335938 763.726563 330.8125 752 C 329 747.675781 325.734375 741.558594 327 737 M 824 852 C 811.820313 848.417969 801.214844 838.015625 790 832.035156 C 773.550781 823.261719 755.480469 818.28125 739 810 C 745.417969 807.382813 755.605469 811.707031 762 813.589844 C 783.402344 820 810.796875 833.410156 824 852 M 1287 877 C 1284.964844 884.496094 1278.949219 890.179688 1277 898 C 1276.535156 900.058594 1274.757813 906.644531 1279 906 C 1285.292969 905 1290.285156 891.417969 1296 887.699219 C 1308.535156 879.542969 1340.75 874.726563 1337.8125 899 C 1335.644531 917 1311.457031 929.15625 1295 926.699219 C 1289 925.824219 1284.757813 920.445313 1279 920.191406 C 1273 920 1268.425781 926.472656 1269.847656 932 C 1271.703125 939.222656 1279.925781 937.15625 1281.722656 942.164063 C 1284.464844 949.816406 1284.351563 959.039063 1286.234375 967 C 1289.601563 981.210938 1295.800781 995 1304 1007 C 1337.332031 1055.734375 1401.753906 1067.152344 1440.480469 1018 C 1449.699219 1006.304688 1455.273438 992 1460 978 C 1463 985.546875 1457.761719 999 1454.710938 1006 C 1443.902344 1031.332031 1423.511719 1051.488281 1399 1063.753906 C 1342.53125 1092.011719 1263.648438 1090.515625 1229.4375 1029 C 1206.871094 988.421875 1220 937.480469 1249 904 C 1258.609375 893 1271.820313 879.621094 1287 877 M 1365 1137 L 1365 1138 C 1376.410156 1142 1386.859375 1145 1399 1145 L 1399 1146 C 1371.375 1154.761719 1340.445313 1149.292969 1313 1143 C 1321.679688 1150.132813 1332.671875 1154.785156 1343 1159 C 1335.964844 1162 1322.5625 1158.265625 1315 1157.28125 C 1287 1153.664063 1255.976563 1147 1233 1129.765625 C 1223.28125 1122.519531 1201.339844 1101.386719 1216.339844 1088.359375 C 1221.578125 1083.808594 1233.613281 1092 1239 1094 C 1259.246094 1102.074219 1281.410156 1104.433594 1303 1106 C 1363.347656 1110.042969 1423.558594 1087.277344 1461.90625 1040 C 1481.777344 1015.496094 1492.265625 985 1496.28125 954 C 1497.273438 946.359375 1496.984375 938.695313 1497 931 C 1497 928.808594 1496.230469 924.042969 1499.316406 923.617188 C 1509.863281 922.167969 1521.929688 936.789063 1525.558594 945 C 1536.445313 969.613281 1528.9375 1000 1520.308594 1024 C 1498.445313 1085.167969 1431 1137 1365 1137 M 778 951 C 772.546875 960.433594 762 965.042969 757.898438 976 C 753.996094 986.246094 763.980469 988.425781 771.566406 983 C 774.355469 981 774 976.773438 775.855469 974.015625 C 778.628906 969.535156 784.304688 966.3125 789 964.183594 C 801.78125 958.390625 831.207031 960 825.683594 981 C 822.421875 993.484375 807 1000.316406 795 998.558594 C 790.785156 998 784.355469 994.035156 780.324219 994.828125 C 775.953125 995.691406 774 1001.21875 769 1002 C 763.835938 1002.515625 756.324219 996.785156 752.304688 1000.363281 C 743.929688 1007.808594 753.371094 1013.074219 754.398438 1019.300781 C 756 1029.085938 750.878906 1041 751 1051 C 752.503906 1106.675781 796.953125 1166.382813 858 1149 C 867.289063 1146.191406 875.53125 1141.507813 883 1135.382813 C 892.804688 1127.347656 900.476563 1117.800781 907 1107 C 910.898438 1117.015625 897.410156 1133.433594 890.984375 1140 C 867.558594 1164 833.773438 1174 801 1174 C 755.648438 1174 709 1155 686.890625 1113 C 650.863281 1045.019531 703.230469 958.441406 778 951 M 1048 1032 C 1054.902344 1069.175781 1061.207031 1104.363281 1079.859375 1138 C 1088.691406 1154 1099 1168.785156 1109 1184 C 1114.46875 1192.25 1121.996094 1202 1122.894531 1212 C 1124.269531 1227.515625 1111.949219 1230.472656 1103 1239 C 1121 1239.050781 1138.878906 1249.21875 1148 1265 C 1140 1262.511719 1133 1257.828125 1125 1256 C 1100.894531 1250 1064.921875 1257.722656 1055.761719 1284 C 1050.472656 1299.164063 1054.683594 1313.617188 1055 1329 C 1035.980469 1313.28125 1030.3125 1286 1006 1275 C 988.796875 1267.128906 967.550781 1276.511719 966 1296 C 958.617188 1289.253906 958 1276.160156 963.386719 1268.003906 C 964.957031 1265.589844 972.617188 1260.449219 971.796875 1257.738281 C 969.183594 1249.082031 963 1244.011719 962.171875 1234 C 960.816406 1219.796875 965.816406 1204.523438 969.574219 1191 C 974.261719 1174.144531 978.285156 1157.21875 981.386719 1140 C 986.972656 1109 986.796875 1078.179688 989 1047 L 990 1047 C 996.777344 1080 1001.359375 1113.535156 1004 1147 L 1005 1147 C 1009.492188 1128.183594 1015.945313 1107.441406 1016 1088 L 1018 1088 C 1019.433594 1106.132813 1023.71875 1124 1026 1142 L 1027 1142 C 1027.566406 1114.488281 1030.554688 1085.273438 1034 1058 L 1035 1058 C 1035.539063 1084.238281 1045.871094 1108.480469 1049 1134 L 1050 1134 C 1048 1109.296875 1044.882813 1084.828125 1045.960938 1060 C 1046.339844 1051.300781 1043.796875 1040 1048 1032 M 1780 1107 C 1769.421875 1104.578125 1749.851563 1090.382813 1739.574219 1101.417969 C 1733 1108.425781 1746.519531 1119.511719 1751 1124 C 1768.710938 1141.738281 1787.460938 1155.425781 1809 1168 L 1809 1169 C 1795.683594 1173 1777.3125 1165.425781 1765 1160.398438 C 1722.335938 1143 1691.859375 1103 1663 1069 C 1663 1076.761719 1664.839844 1084.273438 1665 1092 L 1653 1082 C 1663 1117 1671.734375 1156 1696.179688 1184 C 1704.859375 1194 1714.882813 1203.007813 1726 1210.214844 C 1731.691406 1214 1742.355469 1217.480469 1746 1223 C 1731.355469 1221.804688 1716.597656 1216.117188 1702 1213.753906 C 1695.945313 1212.773438 1687.234375 1212 1682.316406 1216.511719 C 1674.5625 1224 1687.851563 1237.695313 1692.425781 1243 C 1704.589844 1257.109375 1718.179688 1270.425781 1733 1281.765625 C 1740 1287.171875 1751.855469 1292 1757 1299 C 1695.636719 1299 1637.617188 1244.527344 1599.171875 1202 C 1587 1188.707031 1577.359375 1169.363281 1564 1158 C 1564.515625 1170 1566.753906 1182.039063 1567 1194 C 1562.207031 1190.625 1558.664063 1186 1553 1184 C 1559.855469 1199.417969 1558.527344 1216.699219 1561.464844 1233 C 1564.871094 1252 1571.457031 1269 1580.257813 1286 C 1587.300781 1299.644531 1597.46875 1313.277344 1609 1323.421875 C 1616.3125 1329.828125 1629 1335.816406 1634 1344 C 1622.90625 1342.113281 1611.859375 1337.59375 1601 1334.554688 C 1593 1332.34375 1567.277344 1323.394531 1563.925781 1336.003906 C 1561.933594 1343.511719 1570.914063 1354.136719 1574.574219 1360 C 1587.90625 1381.347656 1605.96875 1399.363281 1625 1415.578125 C 1631.773438 1421.347656 1643.773438 1427.273438 1648 1435 C 1624.710938 1435 1600.320313 1425.425781 1580 1414.777344 C 1524.230469 1385.550781 1475.472656 1329.589844 1459 1268 L 1458 1268 C 1453.863281 1290.285156 1461.78125 1314.109375 1465 1336 C 1458.402344 1332.679688 1454 1325.527344 1446 1325 C 1453.339844 1335.78125 1450.710938 1349.636719 1451 1362 C 1451.335938 1375.164063 1454.296875 1389.5 1458.359375 1402 C 1464.984375 1422.402344 1475.785156 1440.144531 1488.882813 1457 C 1494.757813 1464.558594 1503.988281 1471.394531 1508 1480 C 1496.621094 1477.304688 1485.757813 1470.71875 1475 1466.148438 C 1470.988281 1464.445313 1464 1461.109375 1459.722656 1463.464844 C 1451.964844 1467.625 1464.46875 1485.570313 1467.34375 1490 C 1478 1506.578125 1491.75 1521.351563 1507 1534 C 1513.777344 1539.5 1526.320313 1544 1531 1551 C 1501.292969 1551 1471.820313 1534.519531 1449 1516.792969 C 1389.476563 1470.558594 1357.964844 1396.050781 1375 1321 C 1380.742188 1295.765625 1394.769531 1272.554688 1415 1256.398438 C 1420.574219 1252 1434.855469 1240.402344 1442.726563 1243 C 1445.542969 1243.828125 1447.644531 1248.148438 1450 1250 C 1439.855469 1207.390625 1461.722656 1149.320313 1504 1133.425781 C 1515.351563 1129.15625 1528.894531 1127.019531 1541 1127 C 1544.996094 1127 1555.355469 1129.019531 1558.398438 1126.308594 C 1562.175781 1123 1560.835938 1107.304688 1562 1102 C 1565.707031 1087.34375 1573.75 1074.050781 1585 1064.003906 C 1599.53125 1051.109375 1617.980469 1049.089844 1636 1044.523438 C 1670.941406 1035.675781 1712.175781 1020.34375 1745 1044.761719 C 1759.335938 1055.421875 1760.324219 1071 1767.308594 1086 C 1770.765625 1093.488281 1776.824219 1099.492188 1780 1107 M 844 1246 L 844 1245 C 852.824219 1239.046875 861.796875 1232.808594 868 1224 C 848.816406 1239.773438 811.929688 1253.484375 787 1254 L 787 1253 C 802.5625 1244.144531 820.792969 1236.722656 833 1223 C 807.527344 1231.546875 774.746094 1248.203125 747 1240 L 747 1239 C 755.796875 1238.300781 771.292969 1236 778 1230 C 722 1230 667.992188 1217.164063 636.746094 1166 C 623.621094 1144.511719 614 1114.59375 623.925781 1090 C 626.445313 1083.65625 633.746094 1069.351563 641.683594 1068.832031 C 644.921875 1068.617188 645 1076.8125 645.605469 1079 C 647.863281 1089.671875 652.269531 1100.222656 657 1110 C 672.957031 1142.734375 701.578125 1169.8125 735 1184.128906 C 776.371094 1202 828 1199.035156 869 1181.714844 C 882.898438 1176 896.296875 1168.703125 908 1159.074219 C 911.402344 1156.277344 919 1147.214844 923.773438 1148 C 927.386719 1148.453125 928.304688 1155.179688 928.699219 1158 C 930 1168.027344 925.460938 1179.503906 920.570313 1188 C 906.546875 1212.363281 872.851563 1241.675781 844 1246 M 1251 1456 L 1251 1457 C 1214.574219 1457.753906 1179.636719 1459.359375 1144 1449.140625 C 1131.601563 1445.585938 1118.375 1440.800781 1107 1434.691406 C 1102.285156 1432.15625 1093.5625 1425 1088 1425.253906 C 1083.875 1425.574219 1080.339844 1434 1077.984375 1437 C 1070.460938 1446.601563 1060.964844 1455.378906 1051 1462.410156 C 1023.757813 1481.632813 988 1491 955 1491 L 955 1490 C 990.753906 1478.640625 1026 1465 1051.792969 1435.816406 C 1062.828125 1423.335938 1068.890625 1409.199219 1077 1395 C 1112.324219 1416.34375 1146.789063 1435.253906 1187 1446 C 1208 1451.390625 1230 1451.027344 1251 1456 M 346 1898 L 347 1898 C 379.730469 1855.339844 417.667969 1816.597656 454.960938 1778 C 502.628906 1728.652344 551.546875 1679.742188 604 1635.425781 C 633 1611 662 1586.503906 693 1564.292969 C 708.585938 1553.074219 731.828125 1542.726563 744 1528 C 733.1875 1530 722.71875 1538.503906 713 1543.488281 C 685.402344 1557.648438 659 1573.519531 633 1590.308594 C 544.382813 1647.386719 470.484375 1719.691406 407.523438 1804 C 393.195313 1823.1875 380 1843.070313 366.832031 1863 C 359.675781 1873.757813 349.945313 1885.617188 346 1898 "/>
</g>
</svg>
