<?xml version="1.0" encoding="UTF-8"?>
<svg xmlns="http://www.w3.org/2000/svg" xmlns:xlink="http://www.w3.org/1999/xlink" width="2000pt" height="2000pt" viewBox="0 0 2000 2000" version="1.1">
<g id="surface1">
<path style=" stroke:none;fill-rule:nonzero;fill:rgb(0%,0%,0%);fill-opacity:1;" d="M 237 995 C 242.277344 1004.273438 257.613281 1004 265 1011 C 253.734375 1012.429688 239.246094 1013.039063 229 1018 L 229 1019 C 235.304688 1022.183594 242.363281 1024.125 249 1026.566406 C 250.355469 1027.0625 254.945313 1028 254.945313 1030 C 254.945313 1032.285156 248.667969 1033.433594 247 1034.003906 C 241.730469 1035.800781 222.867188 1039.554688 220.347656 1044.578125 C 218.980469 1047.304688 228.550781 1048.320313 230 1048.566406 C 240.46875 1050.320313 251.386719 1052 262 1052 C 257.933594 1055.816406 251.265625 1056.117188 246 1057.722656 C 235.855469 1060.808594 224.371094 1064.0625 215 1069 L 215 1070 C 227.992188 1075 243.3125 1075 257 1076 L 257 1077 C 244.191406 1081.175781 231.21875 1086.558594 219 1092.234375 C 217.261719 1093.042969 206.902344 1096.820313 208.347656 1099.609375 C 209.496094 1102 216.8125 1101.761719 219 1102 C 230 1102.675781 240.941406 1100.476563 252 1100 L 252 1101 C 237.648438 1105.132813 223.742188 1114.320313 212 1123.257813 C 206.621094 1127.355469 199.949219 1131.800781 197 1138 C 210.953125 1133.585938 222.929688 1127.191406 238 1126 L 238 1127 C 222.808594 1133.359375 210 1145.1875 197 1155 L 197 1156 C 206.425781 1155.804688 215.554688 1153.027344 225 1153 L 225 1154 C 214.261719 1158.5 196 1169.214844 191 1180 C 200.507813 1179.171875 209.539063 1175 219 1174 C 210.332031 1184 191.71875 1192.828125 188 1206 C 200.308594 1203.652344 210.964844 1196.269531 224 1196 L 224 1197 C 212 1200.4375 195.457031 1211 191 1223 C 199.84375 1221.160156 207.804688 1218.394531 217 1218 C 208.886719 1228.0625 196.464844 1234.742188 191 1247 C 200.65625 1245.699219 210.703125 1242 220 1239 C 211.339844 1251.285156 195.808594 1257.042969 187 1269 C 197.609375 1270.707031 212.1875 1267.367188 223 1266 C 214.488281 1274 205.40625 1281.078125 197 1289.035156 C 195.71875 1290.246094 188.332031 1295.765625 190.175781 1298 C 191.851563 1300 198.804688 1297.554688 201 1297.285156 C 209.394531 1296.253906 219.769531 1296.039063 228 1298 L 228 1299 C 216.21875 1304.597656 200.722656 1316.507813 193 1327 C 206.671875 1326.414063 220.269531 1323.28125 234 1323 C 225.503906 1330.652344 211.289063 1336.585938 206 1347 C 218.597656 1345.371094 230.230469 1344 243 1344 C 232 1353.4375 215.179688 1363.746094 209 1377 C 222.515625 1375.820313 237.386719 1370.34375 251 1373 C 244.820313 1379.179688 238.292969 1385 232 1391 C 230.765625 1392.15625 226.363281 1395.183594 227.347656 1397.347656 C 228.492188 1400 242 1401.105469 245 1402 C 262 1406.378906 279.796875 1409.753906 296 1417 C 341.484375 1436.808594 390.523438 1480.09375 402.871094 1530 C 409.195313 1555.570313 407 1587.199219 385.996094 1605.816406 C 385 1606.667969 375.886719 1614 375.390625 1610.46875 C 374.894531 1607.007813 379 1600.445313 380 1597 C 382.660156 1589.1875 383.898438 1580.199219 383.996094 1572 C 384.558594 1524.714844 362.183594 1486.230469 326 1456.613281 C 305.449219 1439.796875 281.730469 1428.074219 255 1426.183594 C 247.734375 1425.671875 240 1429.476563 233 1428.148438 C 210.285156 1424 192.914063 1415 169 1421.15625 C 159.507813 1423.644531 150.824219 1428 143 1434 C 138.414063 1437.371094 134.441406 1443.179688 129 1445.257813 C 123 1447.535156 115.277344 1445.5625 109 1446.171875 C 98.859375 1447.152344 87.980469 1450.535156 79 1455.324219 C 45 1473.398438 24 1513 25 1551 C 25.375 1566.800781 29.65625 1581 34 1596 C 28.214844 1596 9 1593 5 1597.027344 C 2.882813 1599.171875 4 1605.238281 4 1608 L 4 1637 C 4 1640.1875 2.789063 1646.660156 6.316406 1648.398438 C 13.785156 1652.070313 28.785156 1648 37 1648 C 64.304688 1648 91.703125 1647.347656 119 1648.015625 C 223 1650.566406 327.742188 1648 432 1648 C 681.449219 1648 931.5625 1649.203125 1181 1648 C 1258.960938 1647.625 1337.214844 1647.453125 1415 1648.003906 C 1453.394531 1648.277344 1492.597656 1650.71875 1531 1648.089844 C 1564.9375 1645.765625 1599.917969 1649.164063 1634 1649 C 1714.371094 1648.613281 1794.75 1649 1875 1649 C 1901.96875 1649 1929 1648.003906 1956 1648 C 1961 1648 1979.910156 1650.8125 1981.683594 1645 C 1984.882813 1634.070313 1980.980469 1619.1875 1981 1608 C 1981 1604.730469 1982.929688 1597.570313 1978.835938 1596.316406 C 1969.523438 1593.46875 1955.746094 1596 1946 1596 C 1943 1596 1935.835938 1597.230469 1934.40625 1593.683594 C 1933 1590.273438 1936.796875 1584.269531 1937.796875 1581 C 1940.300781 1572.800781 1941.957031 1563.574219 1942 1555 C 1942.183594 1516.652344 1923.816406 1478.78125 1892 1456.773438 C 1880.457031 1448.789063 1865.960938 1443.519531 1852 1442.171875 C 1846.441406 1441.632813 1839.1875 1444 1834 1442.359375 C 1827.214844 1440.238281 1820.902344 1432.707031 1815 1428.75 C 1805.320313 1422.257813 1792.632813 1417.417969 1781 1416.175781 C 1761 1414.035156 1746.699219 1423 1728 1425.65625 C 1721.320313 1426.644531 1713.8125 1423.261719 1707 1423.042969 C 1693.425781 1422.609375 1678.578125 1426.199219 1666 1431.0625 C 1614.332031 1451.023438 1572 1507 1571 1563 C 1570.714844 1580.628906 1578 1595.402344 1582 1612 C 1540.988281 1600.691406 1548 1540.21875 1559.800781 1511 C 1575.917969 1470.828125 1614.425781 1433.363281 1654 1416.425781 C 1675.96875 1407.023438 1699.4375 1404 1722 1397 C 1715 1387.351563 1703.449219 1380.445313 1695 1372 C 1708.894531 1372.007813 1722.359375 1375 1736 1377 C 1729 1362.328125 1710.597656 1355.542969 1701 1343 C 1713 1343 1725 1344.246094 1737 1346 C 1731.578125 1335.296875 1717.210938 1331.398438 1710 1322 C 1722 1324.246094 1735.699219 1326 1748 1326 C 1740.640625 1313.28125 1722.878906 1308.503906 1714 1297 C 1726.410156 1297 1738.648438 1297.46875 1751 1298 C 1744.460938 1284.578125 1725.925781 1277 1716 1266 C 1728.324219 1266.527344 1740.699219 1268.746094 1753 1269 C 1744.28125 1257.703125 1728.640625 1249.800781 1718 1240 C 1727.894531 1240.808594 1737.472656 1244.453125 1747 1247 C 1741.882813 1233.765625 1728.179688 1227.601563 1720 1217 C 1728.777344 1219.113281 1738.167969 1221.480469 1747 1223 C 1741.71875 1211.671875 1726.945313 1200.441406 1715 1197 L 1715 1196 C 1726.890625 1195.394531 1737.726563 1202.328125 1749 1205 C 1742.867188 1192 1727.378906 1183.652344 1718 1173 C 1727.214844 1175.664063 1736.492188 1178.601563 1746 1180 C 1739.296875 1166.238281 1721 1162.167969 1711 1152 C 1720.632813 1153.296875 1730.246094 1155.582031 1740 1156 C 1729.394531 1142.257813 1711.230469 1136.535156 1699 1125 C 1713 1126.234375 1725.539063 1134 1739 1137 C 1731.382813 1120.664063 1702.941406 1105.234375 1686 1101 L 1686 1100 C 1697.507813 1100.238281 1708.476563 1102.265625 1720 1101.171875 C 1724.398438 1100.75 1729.1875 1102 1732 1098 C 1714.769531 1093.039063 1699 1082.769531 1682 1077 L 1682 1076 C 1695.660156 1072.746094 1710.738281 1075.597656 1724 1070 L 1724 1069 C 1710.507813 1062 1687.945313 1061.585938 1677 1051 C 1687.875 1051 1712 1052.121094 1720 1044 C 1707.609375 1039.101563 1691.679688 1037.148438 1681 1029 C 1690.957031 1027 1700.410156 1022.328125 1710 1019 L 1710 1018 C 1698.65625 1014.160156 1685.859375 1012.5 1674 1011 C 1681.433594 1003.488281 1696.6875 1003.363281 1702 994 C 1696.410156 994 1679.449219 996.8125 1676 991.683594 C 1673.917969 988.519531 1675 982.617188 1675 979 C 1675 969 1675.503906 959.027344 1675.960938 949 C 1676.855469 929.289063 1680.5625 909.699219 1681.910156 890 C 1683.246094 870.519531 1681.992188 850.53125 1682 831 C 1682 778.222656 1692.855469 726.199219 1699.71875 674 C 1710.683594 590.609375 1719.210938 502.746094 1707.269531 419 C 1702.488281 385.457031 1697.261719 349.359375 1681.296875 319 C 1674.90625 307 1666.824219 293.328125 1653 288.75 C 1638.816406 284.050781 1622.625 288.453125 1609 293 C 1578.390625 303.210938 1548.699219 319.683594 1522 337.671875 C 1453 384.113281 1389.996094 437.671875 1330 495.039063 C 1312 512.109375 1294.964844 530 1278 548 C 1266.953125 560 1255.914063 574.296875 1242 583 C 1244 575 1245.929688 566.4375 1246 558 C 1239 563.539063 1236.28125 572.277344 1230 578 C 1230.339844 575.335938 1234 562 1230.488281 561 C 1226.433594 560 1217.804688 571.574219 1215 574 L 1218 556 C 1211.4375 558 1206.597656 565.074219 1201 569 C 1201.925781 562.738281 1205.359375 557.269531 1206 551 C 1197 555.550781 1189.796875 562 1182 568 L 1183 558 C 1177 560.777344 1172.46875 566.265625 1167 570 C 1167.636719 562 1169.933594 554.097656 1170 546 C 1163.359375 550 1159.375 557.476563 1153 562 C 1153.636719 554 1154 546.101563 1154 538 C 1147 542 1140.597656 553.546875 1138 561 L 1137 561 C 1135.347656 550.617188 1138 539.480469 1138 529 C 1127.714844 534.515625 1127.289063 552.800781 1119 561 C 1119 548.828125 1121.871094 536.054688 1119 524 L 1118 524 C 1115.328125 533.226563 1111.347656 542 1108 551 C 1107.707031 552.226563 1105.679688 560.054688 1103.519531 558.792969 C 1100.441406 557 1100.980469 546.292969 1100 543 L 1099 543 C 1095.480469 550.757813 1091.90625 559.757813 1086 566 L 1085 549 C 1080.46875 551.441406 1075.929688 564 1071 564 C 1066.601563 564 1065.511719 551.128906 1064 548 L 1063 548 C 1061.777344 557.074219 1058.617188 567.710938 1053 575 C 1052.972656 565.730469 1049.957031 557 1047.886719 548 C 1047.632813 547 1046.8125 539.035156 1044.515625 540.347656 C 1042.332031 541.589844 1042.417969 547.804688 1042 550 C 1040 560.457031 1040 571.378906 1040 582 L 1039 582 C 1035.746094 573.617188 1031.53125 565.753906 1027 558 L 1026 558 C 1023.621094 566.65625 1026 579 1026 588 C 1019.96875 582 1017.246094 570.746094 1010 566 C 1009.566406 576.074219 1008 586 1008 596 C 1003.429688 591.8125 1000.285156 579.820313 995.332031 577.347656 C 993 576.242188 992.597656 582 992.324219 583 C 990.703125 589.492188 987.511719 595.414063 986 602 L 985 602 C 984 597.324219 983.742188 592 981 588 C 978.785156 595.289063 978 606.195313 973 612 C 972.300781 604 969.738281 596.046875 968.714844 588 C 968.589844 587.015625 968.191406 581.355469 966.28125 582 C 964.484375 582.453125 964.234375 587.523438 963.84375 589 C 961.734375 597 960.96875 605.007813 959 613 C 955 604.015625 951 595.03125 947.285156 586 C 946.679688 584.558594 945 577.222656 942.542969 578.347656 C 937.238281 580.753906 934.390625 592.742188 930 597 C 929.996094 589.292969 928.945313 581.625 927.871094 574 C 927.605469 572.136719 927.59375 567.40625 925.675781 566.347656 C 923.925781 565.375 922 570.023438 921.457031 571.003906 C 917.839844 576.8125 913.914063 582.359375 912 589 L 911 589 C 909 578.277344 911 566.433594 908 556 C 902 563.628906 899.503906 573.546875 895 582 C 892.519531 571.582031 893.25 560.558594 891.386719 550 C 891 548.367188 890.527344 540.207031 888.195313 540.207031 C 885.980469 540.207031 885.253906 546.503906 884.847656 548 C 882.621094 556.269531 881.320313 564.746094 879 573 L 878 573 C 875.75 566.40625 870.816406 554 865 550 C 864.984375 552.011719 864.992188 554.007813 864.699219 556.003906 C 864.503906 557.347656 864.21875 558.6875 863.863281 560 C 859.808594 575.027344 853.824219 549.199219 849.472656 551.347656 C 846.984375 552.570313 847.617188 561.410156 847 564 C 841.652344 557.542969 839.328125 550.511719 836 543 L 835 543 C 833.367188 548.519531 833 555.222656 833 561 C 826.253906 552.25 825 532.582031 816 527 C 816.414063 536.679688 817.511719 546.261719 817 556 C 810.429688 547.617188 807.332031 537.136719 802 528 L 801 528 L 802 558 C 796.417969 551.46875 790 540.339844 783 536 C 783 544.339844 784.34375 552.695313 785 561 C 778.859375 556.675781 774.636719 549.359375 768 546 C 768 553.660156 769.675781 560.730469 772 568 C 764.753906 565.273438 758.511719 560 751 558 L 753 565 C 750.257813 563.1875 740.886719 553.046875 737.8125 554.460938 C 735.597656 555.480469 739.546875 566.015625 740 568 C 734.179688 564 730.40625 557.050781 724 554 C 724 559.59375 725.195313 564.527344 726 570 C 721.316406 567.070313 717.851563 562.453125 713 560 C 712.3125 576.207031 709 566.238281 701 560 L 701 565.023438 C 700.992188 582.796875 692 562.429688 685 559 C 685.71875 568.035156 687.925781 577 688 586 C 683 581.21875 677.8125 574.414063 672 571 L 676 593 C 621.65625 539.777344 565.660156 487.515625 508 438 C 470.847656 406 433.59375 373 393 345.34375 C 364.714844 326.078125 336.3125 306.035156 304 294 C 289.816406 288.644531 274 283.492188 259 288.042969 C 245 292.230469 237.984375 306 231.863281 318 C 216.308594 348.65625 211.445313 385.261719 207.835938 419 C 199.9375 492.761719 204.6875 571 216.4375 644 C 225.953125 703.234375 242.386719 763 245 823 C 246.8125 863.101563 247.402344 903.164063 253.273438 943 C 254.957031 954.445313 257.214844 965.742188 259.882813 977 C 260.804688 981 263.867188 987.769531 262.308594 991.683594 C 260.246094 997 241.738281 995 237 995 M 1545 411 L 1545 412 C 1523.488281 420.019531 1502.3125 427.324219 1482 438.308594 C 1384.902344 490.828125 1308.394531 580 1258.257813 677 C 1242 708.28125 1228.839844 741.085938 1216.425781 774 C 1207.613281 797.355469 1200 821.601563 1187 843 C 1183.308594 834.179688 1190.371094 817.070313 1192.628906 808 C 1200.675781 775.640625 1211.417969 744 1223.800781 713 C 1263.652344 613.355469 1330.304688 523.804688 1420 464 C 1456.320313 439.78125 1501 416.546875 1545 411 M 655 684 L 654 684 C 583 577 486 481.023438 372 421 C 379.230469 419.476563 390.257813 425.558594 397 428.203125 C 418.644531 436.699219 440 446.421875 460 458.398438 C 520.691406 494.8125 573.988281 547 614 605 C 629.75 627.816406 648.679688 656.695313 655 684 M 731 846 L 732 846 C 730.203125 836.042969 721.300781 828.800781 719 819 C 741.734375 832.148438 751 863.773438 759 887 C 761.996094 895.789063 765.644531 904.78125 767 914 L 766 914 C 756.523438 900.546875 739.84375 889.621094 726 881 C 733.554688 890.277344 743.273438 899.300781 747 911 C 731.878906 900.671875 717 890 701 881 C 707.355469 890 718.972656 896 722 907 C 710.742188 900.734375 699.503906 892.601563 687 889 L 687 890 C 694.378906 893.765625 703.25 900 706 908 C 697.980469 905.691406 690.832031 901 683 898 C 689.328125 905.609375 698.246094 911 704 919 C 694.65625 916.308594 686.675781 909.671875 677 908 C 682.175781 913.066406 689.269531 917.101563 692 924 C 679.910156 922 668.246094 918.023438 656 916.285156 C 638 913.738281 619.835938 913 602 909.539063 C 582.710938 906 563.460938 900.472656 544 898 L 544 897 C 571.957031 888.65625 606.835938 897.4375 635 901 L 635 900 C 612 891.453125 587.769531 886.589844 565 878 L 565 877 C 596.753906 877 625 884.007813 656 890 L 656 889 C 633 881.3125 612.300781 864.589844 588 861 L 588 859 C 615 859 640.214844 868.105469 666 875 C 650 859 624.53125 856.507813 607 844 C 613.324219 842.261719 620.675781 844.515625 627 845.800781 C 643.636719 849.183594 658.953125 856 675 861 C 648.476563 834.476563 615.742188 813.671875 583 795.6875 C 516.421875 759.117188 443.730469 733 367 733 L 367 732 C 385.601563 727.570313 406.226563 730.011719 425 731.828125 C 491.808594 738.296875 559.554688 769.269531 615 806.203125 C 631.582031 817.253906 648.746094 827.804688 665 839.296875 C 676 847.097656 686.769531 857.1875 699 863 C 685.433594 836.703125 656.410156 814.605469 635 795 C 581 745.402344 517.726563 702.691406 451 672.695313 C 424.519531 660.789063 393.445313 647.285156 364 646 L 364 644 C 458.929688 648.078125 548.957031 709.453125 620 767.261719 C 644.226563 787 665.585938 812.097656 691 830 C 676.519531 805.191406 663.859375 779.613281 647.277344 756 C 601.722656 691.109375 542.277344 635.421875 472 598.296875 C 444.972656 584.019531 416.875 576.210938 388 567 C 395.285156 564.15625 410.539063 570 418 572 C 444.222656 579.515625 470.230469 589.5 494 603 C 572.675781 647.683594 630.554688 711.816406 683.734375 784 C 698.570313 804.136719 720.296875 823.378906 731 846 M 1540 567 C 1537.308594 570.535156 1532 570.304688 1528 571.425781 C 1518.21875 574.101563 1508.542969 577 1499 580.414063 C 1468.8125 591.320313 1441.597656 606.742188 1415 624.515625 C 1342.328125 673.078125 1287.46875 755 1251 833 C 1317.839844 766.160156 1388.996094 701.492188 1478 666 C 1498.714844 657.738281 1520 652.019531 1542 647.804688 C 1551.257813 646.015625 1563.742188 643 1573 645 L 1573 646 C 1544.683594 647.234375 1514.835938 659.378906 1489 670.140625 C 1422.585938 697.804688 1362.78125 741.445313 1311 791 C 1293.429688 807.761719 1275.203125 824.113281 1261 844 C 1256.730469 850 1248.796875 857.484375 1248 865 C 1269.722656 844.210938 1295.199219 827.371094 1320 810.496094 C 1394.652344 759.695313 1476 723.742188 1568 731 L 1568 732 C 1561.535156 734 1554.65625 732.535156 1548 733.171875 C 1531.914063 734.699219 1515.929688 735.378906 1500 738.664063 C 1440 751.035156 1385 776.183594 1334 809.574219 C 1318.425781 819.757813 1303 831 1289 843.128906 C 1283.25 848.078125 1275.605469 853.25 1272 860 C 1293.882813 853 1316.675781 844.015625 1340 844 L 1340 845 C 1319.269531 852.003906 1300.796875 863.03125 1282 874 C 1291.589844 874.304688 1300.828125 869.199219 1310 867 C 1327.351563 862.535156 1344 860 1362 860 L 1362 861 C 1340 868.113281 1313.402344 875.808594 1295 890 C 1324.933594 882.234375 1353 878 1384 878 C 1380.371094 882.769531 1368.746094 883.429688 1363 885 C 1347.472656 888.773438 1323.882813 892.460938 1311 902 C 1341.167969 895.777344 1372.355469 894.582031 1403 897 C 1398 903.503906 1377 904.277344 1369 906 C 1348.414063 910.410156 1327.738281 911.457031 1307 914.429688 C 1293 916.429688 1278.84375 921.792969 1265 923 C 1267.855469 917.148438 1274.203125 914.273438 1278 909 C 1267.828125 913.257813 1257.945313 921.050781 1247 923 C 1253.984375 913.085938 1265 907.09375 1273 898 C 1263.664063 902.003906 1254 908.203125 1244 910 C 1251 900 1263.363281 895.382813 1271 886 C 1257.671875 892 1245.664063 901.828125 1232 907 C 1235.191406 897.613281 1245.578125 890.351563 1252 883 C 1236.519531 889.546875 1222.734375 901.796875 1208 910 C 1214.976563 897.753906 1225.167969 888 1234 877 C 1218.644531 886 1206 901.574219 1190 909 C 1191.265625 902 1195.816406 896.648438 1200 891 C 1191.34375 895.824219 1183.621094 905.714844 1174 908 C 1184.984375 878.585938 1193 835.792969 1220 816 C 1216.867188 827 1209.660156 836.25 1206 847 C 1266.433594 776.140625 1314.828125 691.753906 1389 633.667969 C 1433.695313 598.667969 1484.679688 577.269531 1540 567 M 628 586 C 677.21875 637.433594 712.265625 707.296875 735.34375 774 C 742.785156 795.503906 753.730469 819.238281 756 842 C 740.421875 829.125 732.914063 802.082031 725 784 C 706 739.75 689.648438 694.578125 666.917969 652 C 658.675781 636.566406 649.78125 621.710938 640.308594 607 C 636.4375 601 628.722656 593.210938 628 586 M 714 595 C 746.492188 664.597656 777 734.027344 787 811 C 782.769531 808.359375 781.828125 803.328125 779.742188 799 C 774.855469 789 770 778.640625 766.34375 768 C 752.300781 727.554688 742.570313 685.765625 729.496094 645 C 725.730469 633.261719 721.597656 621.675781 717.667969 610 C 716.179688 605.574219 712.730469 599.582031 714 595 M 1222 603 C 1219.277344 623.199219 1209.417969 643.261719 1204 663 C 1190.71875 713.398438 1178.191406 765.558594 1156 813 L 1155 813 C 1150.554688 796.824219 1158.472656 770.789063 1163 755 C 1173.722656 717.589844 1186.503906 680.652344 1202 645 C 1208 631.570313 1212.519531 614.335938 1222 603 M 834 747 C 837.710938 763.21875 840.683594 779.636719 843.738281 796 C 845.367188 804.730469 846 815.003906 850 823 C 852.890625 804.828125 849 784.417969 849 766 L 850 766 C 853.390625 775.054688 853.945313 785.476563 855.425781 795 C 861.316406 833 857.992188 867.085938 855 905 L 854 905 C 851.859375 893.464844 849.503906 880.710938 849 869 L 847 869 C 846.800781 878.617188 845.207031 888.460938 844 898 L 843 898 C 837.964844 881.121094 838.726563 861.449219 837.960938 844 C 837 824.347656 835.230469 804.6875 834.996094 785 C 834.867188 774.09375 829.761719 757.097656 834 747 M 1126 760 C 1124 806.195313 1106.886719 851.425781 1101 897 L 1100 897 C 1097.46875 888.433594 1099 878 1099 869 C 1092 875.699219 1092.6875 891 1091 900 L 1090 900 C 1082 857.726563 1091.714844 807 1109 768 L 1110 768 C 1109.207031 786.4375 1104 804.386719 1104 823 L 1105 823 C 1109.664063 808.410156 1113.496094 793.5625 1118.332031 779 C 1120.382813 772.828125 1121.914063 765.113281 1126 760 M 1670 780 C 1673 793 1670.984375 808 1670 821 C 1668.21875 848.328125 1665.550781 875.285156 1658.871094 902 C 1655.785156 914.351563 1653.683594 930.074219 1647 941 C 1635.542969 902.238281 1651.777344 858.402344 1661 821 C 1664.21875 808.628906 1664 791.066406 1670 780 M 261 781 C 262.5 816 278.363281 849.753906 284.386719 884 C 287.71875 903 285.496094 922.046875 284 941 C 276.667969 936 274.347656 915.53125 272 907 C 263.671875 876.570313 260.753906 844.382813 259.984375 813 C 259.753906 803.484375 255.835938 789.621094 261 781 M 725.332031 879.667969 C 725.277344 879.722656 725.222656 880.777344 725.667969 880.332031 C 725.722656 880.277344 725.777344 879.222656 725.332031 879.667969 M 738 964 C 736.316406 960.457031 734 957.335938 732 954 C 745 959 754.242188 969.203125 766 976 C 762.984375 970.757813 758.460938 966.523438 756 961 C 768.511719 966.730469 779.703125 979.007813 790 988 C 787.628906 982.496094 783.8125 977.726563 782 972 C 795.753906 981.6875 810.5 997.386719 817 1013 L 818 1013 C 817.570313 1003.589844 812.539063 995.496094 809 987 C 817.386719 993.035156 823.503906 1004.484375 827.1875 1014 C 827.855469 1015.71875 829.652344 1025 831.800781 1025 C 835.382813 1025 834 1008.523438 834 1006 L 835 1006 C 842.441406 1018.753906 843.558594 1032.027344 847 1046 C 849.398438 1040.582031 850.746094 1035 851 1029 C 859.4375 1035 858.972656 1059.511719 859 1069 L 861 1069 C 861 1065.175781 861.773438 1061.625 863 1058 L 864 1058 C 868 1069 868 1080.476563 868 1092 C 871.25 1087.738281 871.539063 1080.8125 876 1078 C 877.433594 1111.359375 879 1140.351563 869 1173 C 866.804688 1180.226563 864.355469 1187.097656 861.234375 1194 C 860.644531 1195.300781 859.210938 1200.550781 857 1200.078125 C 854.40625 1199.460938 852.695313 1191.285156 851.8125 1189 C 847.335938 1177.4375 843 1165.804688 839.34375 1154 C 824.253906 1107 814.894531 1059.617188 784.84375 1019 C 762.242188 988.449219 729 961.230469 691 953.449219 C 667.789063 948.703125 645.359375 950.519531 622 949 C 605.621094 947.78125 589.449219 944.761719 573 944.039063 C 544.945313 942.8125 516.777344 945.488281 489 949 C 495.492188 939.175781 518.3125 938.070313 529 936 C 556.65625 930.648438 583 929.324219 611 932.167969 C 626.335938 933.726563 641.65625 939.683594 657 940 L 657 939 C 628.585938 928.390625 595 925.359375 565 924.039063 C 550.25 923.394531 532 926.183594 518 922 C 522.386719 918.40625 528.558594 918.285156 534 917.410156 C 547 915.316406 559.804688 914 573 914 C 632.90625 914 684.289063 941.519531 738 964 M 1432 922 L 1432 923 C 1384.699219 923 1340 928.355469 1294 938 L 1294 939 C 1315.863281 938.820313 1338 931.59375 1360 930.089844 C 1393.554688 927.789063 1432.6875 935.636719 1463 950 L 1463 951 C 1436.492188 948.359375 1410.859375 944.28125 1384 944.003906 C 1366.917969 943.828125 1350 947.214844 1333 948 C 1307.648438 949.070313 1281.921875 947.777344 1257 953.5 C 1226 960.59375 1199.882813 980.714844 1179.167969 1004 C 1141.917969 1046 1128.8125 1098.675781 1113.425781 1151 C 1109.671875 1163.757813 1105.242188 1177 1099.769531 1189 C 1098.859375 1191.019531 1096.78125 1199.792969 1094 1199.792969 C 1091.882813 1199.792969 1090.757813 1194.484375 1090.191406 1193 C 1087.539063 1186.042969 1084.917969 1179.15625 1082.851563 1172 C 1074.300781 1142.410156 1070 1105.035156 1079 1075 C 1081.929688 1079.414063 1083.539063 1084.742188 1084 1090 L 1086 1090 C 1086 1078 1088.46875 1067 1090 1055 C 1093.25 1057.464844 1093.3125 1062 1096 1065 C 1096 1055.070313 1095.871094 1033.246094 1105 1027 C 1105 1032.40625 1105.183594 1039 1109 1043 C 1109 1030.523438 1112.609375 1013.152344 1123 1005 L 1121 1024 C 1131 1013 1132.914063 994.390625 1147 986 C 1144.570313 994.421875 1138.464844 1001 1138 1010 L 1139 1010 C 1144.953125 995 1159.832031 979.277344 1173 970 C 1171.226563 976 1167 980.601563 1164 986 C 1174.832031 978.367188 1182.933594 965.335938 1196 961 C 1193.625 966.324219 1189.304688 970.253906 1186 975 C 1196.417969 968.488281 1205.601563 957.683594 1218 955 C 1216 958.667969 1213.351563 961.621094 1211 965 C 1232.84375 951.582031 1255.933594 943 1280 934.308594 C 1329 916.765625 1380.664063 905.585938 1432 922 M 622 952 L 622 953 C 595.1875 961.503906 567.644531 960.195313 540 962.089844 C 518 963.589844 496.753906 969.269531 475 971 C 482.921875 963.0625 498.546875 961.066406 509 958 C 545.300781 947.1875 584.730469 945.082031 622 952 M 1476 973 L 1476 974 C 1465.234375 973.0625 1454.714844 969 1444 967.273438 C 1417.976563 963.257813 1392 962.328125 1366 959.828125 C 1354.65625 958.746094 1343.382813 955.234375 1332 955 C 1337.515625 947.097656 1356.445313 949.644531 1365 948.828125 C 1403.761719 945.140625 1440.792969 958.363281 1476 973 M 587 965 C 582.648438 971.351563 564.484375 974.042969 557 976 C 527.5 983.070313 495 986.167969 465 990 C 469.925781 983.070313 485.1875 981.035156 493 978.34375 C 523.433594 968 555 965 587 965 M 1481 992 C 1468 991.4375 1454.816406 986.585938 1442 984.433594 C 1415.640625 980.011719 1388 976.492188 1363 967 C 1368.339844 963 1379.46875 965 1386 965.015625 C 1409.554688 965.59375 1433.925781 972.3125 1456 980.179688 C 1463 982.710938 1476.753906 985.570313 1481 992 M 1185 975 L 1186 976 L 1185 975 M 557 983 L 557 984 C 523.539063 991.742188 493.335938 1007 458 1007 C 465 1002.269531 474.925781 1001.335938 483 998.644531 C 498.785156 993.382813 514.75 989 531 985.347656 C 539 983.550781 548.925781 981.101563 557 983 M 1492 1011 L 1492 1012 C 1472.378906 1007.273438 1452.4375 1004.757813 1433 999 C 1418.210938 994.554688 1403 986.597656 1388 984 C 1393.746094 979.714844 1408.257813 984.203125 1415 985.660156 C 1439.625 991 1469.996094 998.613281 1492 1011 M 521 1012 L 521 1013 C 500.742188 1025 474.59375 1035.074219 451 1037 C 456.300781 1032.621094 463.757813 1030.507813 470 1027.695313 C 485.308594 1020.792969 503.953125 1012.144531 521 1012 M 1493 1037 L 1493 1038 C 1474.617188 1034.535156 1455.933594 1030 1439 1021.777344 C 1433.59375 1019.195313 1425.511719 1017 1422 1012 C 1445.316406 1012.496094 1472 1027.636719 1493 1037 M 1495 1012 L 1494 1013 L 1495 1012 M 628 1024 C 621.921875 1032 613.460938 1038.113281 607 1046 C 597 1058.4375 590.84375 1073.496094 587.425781 1089 C 574.308594 1148.476563 622.40625 1208.390625 684 1207 C 727.640625 1205.792969 764 1176.15625 779 1136 C 784.863281 1120.449219 787 1104.46875 785 1088 C 790 1090.75 792 1096.789063 794.199219 1102 C 799.296875 1114.585938 802.488281 1126.355469 801.171875 1140 C 796.859375 1184.566406 761.894531 1220.824219 720 1234.253906 C 664.488281 1252.046875 598.71875 1236.644531 566.464844 1185 C 536.503906 1137.027344 551.601563 1074.730469 596 1041.375 C 605.28125 1034.402344 616.585938 1026.710938 628 1024 M 1330 1025 C 1353 1041 1375.808594 1052.585938 1389.242188 1079 C 1399.910156 1100 1403.765625 1123.769531 1399.574219 1147 C 1382.300781 1242.789063 1253.667969 1270.683594 1187 1207 C 1157.773438 1179.027344 1141 1140 1158.695313 1101 C 1161.992188 1093.738281 1165.773438 1085.15625 1172 1080 C 1170.574219 1113.164063 1172.808594 1143.085938 1195.324219 1170 C 1236.414063 1219.113281 1315 1217.480469 1350.921875 1163 C 1371.191406 1132.171875 1373.289063 1092.648438 1355.960938 1060 C 1351 1051 1344.753906 1042.527344 1337.832031 1035.015625 C 1335.328125 1032.296875 1329.597656 1029 1330 1025 M 1282 1038.328125 C 1317.804688 1032.050781 1331.238281 1088.261719 1295 1093.785156 C 1282.402344 1095.707031 1270 1091.367188 1263.527344 1080 C 1254.480469 1064.355469 1263.554688 1041.5625 1282 1038.328125 M 713 1040.300781 C 747.945313 1035.140625 759.636719 1090.652344 724 1095.789063 C 687.542969 1101.046875 676 1045.742188 713 1040.300781 M 519 1121 C 519 1218.175781 614.316406 1278.6875 705 1257.765625 C 720.257813 1254.242188 735.441406 1249.566406 749 1241.546875 C 762.894531 1233.332031 780.675781 1218.742188 798 1225.132813 C 808.941406 1229.171875 807.960938 1240.179688 803.628906 1249 C 796 1264.195313 780.183594 1290.449219 764 1297 C 767.324219 1288.214844 773.933594 1281 777 1272 C 762.675781 1286.324219 746.828125 1306.621094 728 1315 C 730.875 1305.039063 737.910156 1296.492188 742 1287 C 730.515625 1298.484375 715.519531 1318.117188 699 1322 C 704 1312.734375 711.453125 1304.609375 716 1295 C 704 1307.230469 690.824219 1319.121094 674 1324 C 676.65625 1314.53125 686.953125 1308.085938 691 1299 C 677.453125 1308.703125 658 1321.214844 641 1322 C 648.667969 1311.296875 659.667969 1303.082031 667 1292 C 650.875 1302 632 1314.171875 613 1317 C 619.363281 1306.167969 632.578125 1298.535156 640 1288 C 623.953125 1295 608.734375 1302.554688 592 1308 C 597 1297.265625 611 1291 618 1281 C 602.410156 1288.386719 586.625 1295.28125 570 1300 C 575 1289.496094 589.585938 1281.054688 598 1273 C 580.6875 1277.113281 565 1288.523438 547 1290 C 554.269531 1280.121094 565.277344 1271.722656 574 1263 C 556.519531 1270.277344 539.613281 1279.695313 521 1284 C 523.9375 1278.546875 530.222656 1275.148438 535 1271.335938 C 543 1265 551 1257.753906 559 1251 C 539.285156 1258.164063 521.773438 1269 500 1269 L 500 1268 C 513.800781 1262.328125 523.769531 1251.257813 537 1245 L 537 1244 C 517.351563 1247.339844 500.421875 1254 480 1254 C 482.640625 1250.003906 487.882813 1249 492 1246.691406 C 501.371094 1241.65625 511.410156 1234 522 1232 L 522 1231 C 504.277344 1231.367188 484.609375 1239.207031 467 1234 C 476.933594 1228 493.535156 1224.226563 505 1222 L 505 1221 C 484.566406 1217.207031 464.25 1215.691406 444 1210 L 444 1209 C 459.710938 1206.039063 476.742188 1205.289063 492 1201 L 492 1200 C 472.304688 1199.152344 452.6875 1196 433 1195 L 433 1193 C 447.441406 1191.054688 463 1185.410156 477 1181 L 477 1180 C 459 1179.226563 441 1175.148438 423 1175 C 425.890625 1171.195313 432.476563 1171 437 1170.273438 C 449 1168.398438 460.710938 1166 473 1166 L 473 1164 C 460.484375 1163.453125 447.4375 1160.269531 435 1158.425781 C 429.449219 1157.605469 422.894531 1158 418 1155 C 428.777344 1151.351563 441.664063 1149 453 1148 L 453 1147 C 448 1145.816406 443 1146 438 1146 L 438 1145 C 449.246094 1145 459.855469 1146.070313 471 1144 L 471 1143 C 458.320313 1143 444.859375 1139.59375 433 1135.1875 C 428.824219 1133.640625 423.59375 1132.785156 421 1129 C 433 1129 444.945313 1127 457 1127 C 451.617188 1121.109375 440.753906 1118.144531 433 1117 L 433 1115 C 452.765625 1115.40625 471.472656 1123.542969 491 1125 C 500.785156 1125.597656 509.59375 1123.15625 519 1121 M 1516 1116 L 1516 1117 C 1508.71875 1120 1500.84375 1122.109375 1494 1126 C 1504.578125 1128.519531 1522 1125 1531 1131 C 1515.675781 1137.792969 1499 1140.828125 1483 1145 L 1483 1146 C 1495.914063 1146 1508.628906 1149 1521 1152.441406 C 1525.339844 1153.667969 1531 1153.230469 1534 1157 C 1516.839844 1157.140625 1496.363281 1159.808594 1480 1165 L 1480 1166 C 1491.5625 1166.03125 1502.714844 1169.019531 1514 1171.195313 C 1518.5625 1172.078125 1524.167969 1172 1527 1176 C 1509.949219 1176.140625 1493 1180 1476 1180 C 1479.617188 1183.707031 1485 1183.816406 1490 1185.152344 C 1499.902344 1188 1509.792969 1191.625 1520 1193 L 1520 1195 C 1500.5625 1195.402344 1480.296875 1197.5625 1461 1200 L 1461 1201 C 1476.621094 1204 1493 1206.75 1509 1208 L 1509 1209 C 1492.253906 1217.40625 1469.398438 1219 1451 1219 C 1459.421875 1228 1477.703125 1229.421875 1489 1233 L 1489 1234 C 1471.503906 1234 1455.273438 1231.375 1438 1230 C 1447.863281 1240 1463.960938 1243.417969 1475 1252 C 1457.492188 1257.175781 1435.640625 1248.105469 1420 1241 C 1430.730469 1251.722656 1442.277344 1260.46875 1456 1267 L 1456 1268 C 1435.578125 1268 1416.722656 1259.324219 1399 1250 C 1408.515625 1263.269531 1423.578125 1273.109375 1437 1282 L 1437 1283 C 1418.242188 1282.144531 1395 1270.683594 1380 1260 C 1387.234375 1270.269531 1405.253906 1279.371094 1409 1291 C 1390.910156 1285.253906 1372.867188 1280 1356 1271 C 1363.796875 1282.066406 1380.183594 1288.066406 1386 1300 C 1367.367188 1295.585938 1351.328125 1285.46875 1334 1278 C 1343.332031 1287.332031 1355.425781 1296.277344 1363 1307 C 1345.457031 1305.253906 1329.230469 1294.402344 1315 1285 C 1322.5 1296 1332.386719 1305.183594 1340 1316 C 1320.8125 1313.609375 1305 1300.257813 1289 1291 C 1296.308594 1301.167969 1306.265625 1311 1312 1322 C 1294.675781 1319.664063 1280.417969 1309 1266 1300 C 1269.792969 1308.789063 1277.320313 1315.257813 1281 1324 C 1263.691406 1320.039063 1252.320313 1305.183594 1239 1295 C 1244.566406 1303.703125 1251 1312.449219 1255 1322 C 1237.546875 1316.078125 1226.691406 1296.039063 1213 1285 C 1217.550781 1295.558594 1225.417969 1305.71875 1228 1317 C 1209.722656 1305 1194.730469 1288 1180 1272 C 1184 1280.746094 1189.316406 1289.683594 1192 1299 C 1175.902344 1287.667969 1159.671875 1268.769531 1149.464844 1252 C 1145.289063 1245.140625 1140.855469 1235.230469 1147.53125 1228.394531 C 1159.324219 1216.320313 1180 1228.21875 1191 1234.800781 C 1226.957031 1256.375 1265.414063 1264 1307 1259.828125 C 1357 1255 1401.820313 1222.238281 1421.714844 1176 C 1427 1163.511719 1429.601563 1150.382813 1431.425781 1137 C 1431.859375 1133.8125 1430.511719 1124.230469 1433 1122.121094 C 1435.671875 1120 1451.300781 1125.148438 1455.574219 1125.152344 C 1476 1125.160156 1495.53125 1116.421875 1516 1116 M 1519 1143 L 1519 1144 C 1511.441406 1144.15625 1504.578125 1144.597656 1497 1144 C 1503.289063 1141.359375 1512.308594 1142.476563 1519 1143 M 1009 1180 C 986 1170.679688 968.230469 1175.6875 945 1178 C 958.96875 1159.074219 997.230469 1157.515625 1009 1180 M 1013 1194 C 988 1183.308594 968.773438 1182.28125 943 1191 C 955.65625 1167.722656 1000.722656 1173.6875 1013 1194 M 1053 1298 C 1050 1296.164063 1047.273438 1294.257813 1044 1293 C 1049 1300 1055.90625 1307 1059 1315 C 1054.566406 1313 1051.4375 1309.4375 1048 1306 C 1050 1312.109375 1055.488281 1316.066406 1058 1322 C 1049.933594 1319.328125 1043.929688 1313.746094 1035 1313.089844 C 1013.886719 1311.539063 995 1322.246094 974 1322 C 958.484375 1321.8125 944.59375 1312.8125 929 1312.453125 C 916 1312.160156 908.429688 1317.667969 897 1322 C 899.226563 1316.257813 903.714844 1312.289063 908 1308 C 903.933594 1310.265625 900.292969 1313.195313 896 1315 C 899.339844 1306.191406 906.367188 1299.132813 911 1291 L 903 1295 C 904.625 1289.519531 908.441406 1285.289063 910.535156 1280 C 914.265625 1270.574219 916.167969 1260 918.628906 1250 C 921.832031 1237.183594 923 1220 930.789063 1209 C 951 1180.585938 999 1181.214844 1020.179688 1208 C 1034.675781 1226.460938 1036.746094 1257 1043.296875 1279 C 1045.371094 1286 1050.433594 1291.324219 1053 1298 M 743 1284 C 742 1285.480469 742 1285.203125 742 1287 C 743.289063 1285.558594 743.402344 1285.765625 743 1284 M 831 1572 L 833 1568 C 822.742188 1572.210938 811.199219 1579.417969 800 1580 L 800 1579 C 803.734375 1577.140625 806.847656 1574.726563 810 1572 C 792.910156 1577 776.226563 1583.429688 759 1588 C 764 1581.136719 775 1575.015625 783 1572 L 783 1571 C 767.933594 1572.324219 753.878906 1582.355469 739 1585 C 745.53125 1577.097656 757.742188 1570.324219 767 1566 L 767 1565 C 739.867188 1571.28125 718.203125 1585.503906 693 1596 C 698.605469 1587.074219 709.757813 1580.8125 718 1574.425781 C 742 1555.722656 769.214844 1540.796875 796 1526.308594 C 806.222656 1520.78125 822 1516.402344 830 1508 C 806.648438 1516.808594 783 1523.425781 760 1533.425781 C 746.585938 1539.242188 733 1549.609375 719 1553 C 723.882813 1546.632813 731.496094 1542.824219 738 1538.28125 C 754.210938 1527 771.679688 1516.515625 790 1509 L 790 1508 C 742.652344 1511.769531 694.214844 1537.019531 656 1563.722656 C 636.910156 1577.058594 618.699219 1595.433594 598 1606 C 602.226563 1597 612.925781 1590.078125 620.285156 1583.488281 C 640.574219 1565.324219 661.746094 1549.085938 685 1534.8125 C 693.898438 1529.347656 708.324219 1524.769531 715 1517 C 678.960938 1528.398438 643.222656 1534.691406 610 1554.453125 C 590.433594 1566.09375 571.976563 1579.441406 554 1593.425781 C 543.734375 1601.410156 533.542969 1612.042969 522 1618 C 529 1602.511719 549.210938 1588.804688 561.828125 1577.664063 C 600.496094 1543.539063 643.839844 1515.175781 691 1494.308594 C 705 1488.074219 719.488281 1482.148438 734 1477 C 740.472656 1474.632813 749 1474 754 1469 C 662.375 1469.253906 572.871094 1518.632813 499 1568.671875 C 477.5 1583.234375 458.429688 1603.097656 436 1616 C 439.835938 1607.773438 448.707031 1601.199219 455.425781 1595.253906 C 468.5625 1583.628906 481.753906 1572 496 1561.707031 C 555 1519.167969 620.953125 1485.109375 692 1468 L 692 1467 C 635.636719 1467 582.941406 1482.496094 533 1508.257813 C 517.964844 1516.015625 503.316406 1524.664063 489 1533.679688 C 480.890625 1538.789063 472.996094 1545.597656 464 1549 C 474 1535 492.902344 1523.550781 507 1513.574219 C 555 1479.578125 610.625 1458.089844 667 1442.425781 C 687 1437 707.699219 1433 728 1428 C 735 1426.289063 747.691406 1426 753 1421 C 740.382813 1421 727.605469 1418.492188 715 1419.039063 C 652 1421.769531 589.574219 1430.824219 528 1444.425781 C 494.597656 1451.800781 462.304688 1465.105469 429 1472 L 429 1471 C 509.929688 1428.417969 607 1410 698 1408 L 698 1407 C 639.632813 1407 581.679688 1396.070313 523 1400.089844 C 486.320313 1402.601563 449.324219 1406.21875 413 1412.285156 C 395.980469 1415.128906 378.195313 1421.261719 361 1422 L 361 1421 C 432.800781 1396.710938 504.285156 1386.105469 580 1387.003906 C 625.472656 1387.546875 671.570313 1395.167969 717 1393 C 731.726563 1392.242188 746 1386.171875 761 1385 L 761 1384 C 748.644531 1381.058594 735 1382.589844 723 1379 C 733.578125 1371.460938 754.300781 1368.394531 767 1365 L 767 1364 L 756 1364 L 756 1363 C 773.726563 1355.507813 798 1357 817 1357 L 817 1356 C 802.945313 1351.535156 786.683594 1351 772 1351 C 778.257813 1342.78125 800.570313 1347 810 1343 C 804 1341.558594 798 1340.476563 792 1340 L 792 1338 C 803 1336.558594 813.703125 1336 825 1336 C 819.414063 1331 809 1331.585938 805 1325 C 822.964844 1328.335938 841.960938 1327.765625 858.941406 1336 C 863.339844 1338.058594 864 1343.078125 866.347656 1347 C 869.765625 1353 874.5625 1357.828125 880 1362 C 889.800781 1369.078125 901.261719 1373.496094 911 1381 C 937.875 1401.332031 973.949219 1447.59375 966.484375 1484 C 957.976563 1525.503906 898.195313 1547.292969 863 1560.320313 C 852.738281 1564.117188 841.722656 1570.089844 831 1572 M 1150 1327 C 1143.675781 1330 1134.761719 1331 1130 1336 C 1141 1334.609375 1153.636719 1334.539063 1164 1339 L 1164 1340 C 1158.492188 1340.015625 1153.386719 1341 1148 1342 L 1148 1343 C 1156.382813 1344.5625 1177.972656 1344 1183 1351 C 1167 1351 1151.6875 1354 1136 1356 L 1136 1357 C 1158.828125 1357 1182 1357 1204 1364 L 1204 1365 L 1194 1365 L 1194 1366 C 1207.535156 1370.328125 1221.582031 1373.449219 1235 1378 L 1235 1379 C 1222.800781 1380.542969 1209.828125 1381.675781 1198 1385 C 1204.246094 1388.007813 1212.179688 1387.464844 1219 1389.011719 C 1250.941406 1396.253906 1283.675781 1391.304688 1316 1389.089844 C 1378.695313 1384.796875 1444 1384.804688 1506 1396.390625 C 1528 1400.527344 1549.566406 1406.453125 1571 1413.253906 C 1577.65625 1415.367188 1589.636719 1416.191406 1594 1422 C 1573.707031 1420.34375 1553.179688 1413.769531 1533 1410.589844 C 1499.886719 1405.375 1466.394531 1402.375 1433 1400.089844 C 1372.800781 1396 1312.949219 1406.503906 1253 1407 L 1253 1408 C 1289.527344 1408.003906 1326.984375 1413.777344 1363 1419.5625 C 1422.574219 1429.132813 1480.28125 1445 1534 1473 L 1534 1474 C 1507 1468.378906 1480.816406 1457.078125 1454 1450.375 C 1402.832031 1437.582031 1350.273438 1430 1298 1423.714844 C 1275.6875 1421.046875 1253.476563 1420 1231 1420 C 1221 1420 1209 1418.589844 1200 1423 C 1231.859375 1431 1264.433594 1436.429688 1296 1445.425781 C 1342 1458.5625 1385.285156 1476.722656 1427 1500.140625 C 1443 1509.199219 1457.957031 1519.824219 1473 1530.578125 C 1482 1537.128906 1493 1544 1500 1553 C 1489.761719 1549.609375 1480 1541.125 1471 1535.425781 C 1455 1525.539063 1438.589844 1516.660156 1422 1508.023438 C 1371.789063 1482 1315.652344 1467 1259 1467 L 1259 1469 C 1282.882813 1469.199219 1308.226563 1482.683594 1330 1491.398438 C 1378.175781 1510.6875 1423.707031 1535.140625 1466 1565.289063 C 1483.667969 1578 1506.429688 1593.15625 1519 1611 C 1508.800781 1607.078125 1499.847656 1598.046875 1491 1591.710938 C 1472.980469 1578.804688 1454.691406 1566.597656 1436 1554.695313 C 1368 1511.476563 1284 1470 1202 1470 C 1207.882813 1476.183594 1221 1478.058594 1229 1481.050781 C 1246.582031 1487.628906 1264 1495.570313 1281 1503.636719 C 1321 1522.738281 1357.980469 1549 1392 1577.246094 C 1406.582031 1589.398438 1424 1602.261719 1435 1618 C 1415.960938 1608.28125 1399.578125 1591.121094 1382 1579 C 1340.949219 1550.3125 1288.984375 1522.164063 1238 1518 L 1238 1519 C 1270.542969 1532.617188 1302 1555.808594 1329 1578.246094 C 1338.84375 1586.449219 1352.703125 1595.644531 1359 1607 C 1341.34375 1598.207031 1325.347656 1582.289063 1309 1571.023438 C 1267.199219 1542.226563 1214.730469 1512.511719 1163 1508 L 1163 1509 C 1179.367188 1515.722656 1194.183594 1525.441406 1209 1535 C 1217.527344 1540.421875 1227.761719 1546 1234 1554 C 1198.75 1537.234375 1162 1514.632813 1123 1508 C 1130.652344 1515 1142.945313 1519.132813 1152 1524.28125 C 1178.816406 1539.527344 1205.664063 1554.398438 1231 1572 C 1242.3125 1579.824219 1256.871094 1587.695313 1265 1599 C 1254.535156 1595.117188 1245.1875 1588 1235 1583.308594 C 1218.410156 1575.691406 1201 1569.597656 1184 1563 L 1184 1564 C 1194.265625 1569.085938 1208.582031 1577.28125 1216 1586 C 1199 1584.320313 1181.804688 1574.65625 1166 1569 C 1174.195313 1576.09375 1183.695313 1581.511719 1193 1587 L 1193 1588 C 1175 1586.222656 1158.722656 1575.617188 1141 1573 L 1141 1574 L 1147 1577 L 1147 1578 C 1138 1577.085938 1128.59375 1571.566406 1121 1567 L 1125 1574 C 1087.464844 1563.191406 1046.371094 1544.71875 1015 1521.371094 C 999.613281 1510 986 1492.378906 987.210938 1472 C 988.84375 1440.195313 1017.421875 1401 1042 1382.238281 C 1053.5625 1373.480469 1068.328125 1368.789063 1078.960938 1358.824219 C 1085.234375 1353 1085.738281 1343 1091.429688 1337.699219 C 1101 1329 1123.527344 1326.660156 1136 1326 C 1141 1325.683594 1145.445313 1324.273438 1150 1327 M 816 1398.757813 C 805.949219 1402.566406 811.785156 1417.582031 821.816406 1413.257813 C 830.671875 1409.4375 825.277344 1395.273438 816 1398.757813 M 1136 1398.664063 C 1127 1400.753906 1130 1416.164063 1139.996094 1414 C 1150.996094 1411.53125 1146.402344 1396.277344 1136 1398.664063 M 1172 1411.746094 C 1164.535156 1413.167969 1166.910156 1425.492188 1174.980469 1423.546875 C 1182.925781 1421.632813 1180 1410.234375 1172 1411.746094 M 777.226563 1413.027344 C 769.378906 1417.824219 778.964844 1427.347656 785.566406 1422.820313 C 792.648438 1418 783.996094 1409 777.226563 1413.027344 M 821 1456.78125 C 811 1460.238281 815.695313 1476.066406 825.984375 1473.101563 C 837.515625 1469.78125 831.714844 1453.078125 821 1456.78125 M 1128 1457 C 1118.78125 1460.789063 1124 1476.769531 1133.996094 1473.242188 C 1144.898438 1469.347656 1138.429688 1452.53125 1128 1457 M 779 1461.742188 C 768.652344 1465.808594 775 1479.113281 784.984375 1475.398438 C 795.300781 1471.492188 788.839844 1458 779 1461.742188 M 1167.226563 1462.027344 C 1158.625 1467.285156 1168.550781 1480.082031 1176.8125 1475.527344 C 1186.890625 1470 1176 1456.582031 1167.226563 1462.027344 M 522 1472 L 522 1473 C 501.746094 1485.785156 477.707031 1498 456 1508 C 459.179688 1501.78125 467 1498.121094 473 1494.601563 C 488 1485.492188 504.90625 1476.675781 522 1472 M 1502 1508 C 1481.476563 1500.273438 1461.515625 1486.234375 1442 1476 C 1447.210938 1474.554688 1454.351563 1479 1459 1481.246094 C 1472.875 1488.136719 1492.367188 1495.445313 1502 1508 M 1653 1614 C 1625 1591.308594 1626 1537 1643.875 1509 C 1651.484375 1497.046875 1661.996094 1489.460938 1676 1487.429688 C 1678 1487.117188 1686.367188 1485.144531 1687.824219 1487.066406 C 1689.417969 1489.167969 1684.839844 1493.511719 1683.753906 1495 C 1678.675781 1502 1673.808594 1509.367188 1669.78125 1517 C 1660.1875 1535.175781 1653.496094 1555.433594 1652 1576 C 1651.226563 1588.570313 1654.351563 1601.691406 1653 1614 M 309 1615 C 307.914063 1608.253906 310 1600.046875 310 1593 C 310 1579.570313 308 1566 304.277344 1553 C 300 1539 294 1525.296875 286 1513 C 280.765625 1504.671875 273 1497.03125 269 1488 C 280.679688 1488.609375 293.195313 1488.179688 303 1495.515625 C 329.316406 1515.207031 333.976563 1558.71875 324.328125 1588 C 321.234375 1597.394531 316.777344 1608.570313 309 1615 M 1757 1620 L 1756 1620 C 1756 1606.53125 1756.855469 1594.105469 1752.304688 1581 C 1750.699219 1576.378906 1747.84375 1569.261719 1742.289063 1568.289063 C 1737.539063 1567.453125 1734.328125 1574.585938 1732.878906 1578 C 1728 1589.484375 1731.609375 1603.410156 1734 1615 C 1713.675781 1593.761719 1716.308594 1552.605469 1728.257813 1528 C 1732.859375 1518.53125 1740 1504.738281 1752 1504.109375 C 1766.242188 1503.359375 1771 1521 1773.195313 1532 C 1778.859375 1561.589844 1772.1875 1594.222656 1757 1620 M 226 1616 C 227 1603.804688 229.203125 1593.234375 225.699219 1581 C 224.488281 1576.773438 221.945313 1570.613281 216.984375 1569.800781 C 211.628906 1569 208.226563 1576 206.710938 1580 C 202 1592.304688 203.402344 1604.359375 205 1617 C 198.863281 1613.519531 196.699219 1604.253906 194.199219 1598 C 186 1577.484375 183.203125 1552.734375 187.261719 1531 C 189 1521 193 1504.722656 206 1505.058594 C 216.671875 1505.335938 223.730469 1515.496094 228.21875 1524 C 238.832031 1544.105469 241.332031 1566.738281 238 1589 C 236.949219 1597.210938 233.664063 1611.648438 226 1616 M 1505 1510 C 1503.363281 1509.453125 1503.546875 1509.636719 1503 1508 C 1504.636719 1508.546875 1504.453125 1508.363281 1505 1510 M 1848 1626 C 1848 1602.484375 1841.636719 1577.15625 1846.886719 1554 C 1849 1544.152344 1856.707031 1531 1869 1534.515625 C 1880.171875 1537.820313 1879.574219 1550.753906 1878.972656 1560 C 1877.863281 1577.039063 1869.503906 1595.582031 1860.796875 1610 C 1857.464844 1615.519531 1853.601563 1622.613281 1848 1626 M 118 1625 C 111.273438 1623 106.453125 1614.617188 102.671875 1609 C 92.582031 1594.023438 73.578125 1559 86 1541.105469 C 92.527344 1532.011719 104.574219 1535.707031 110.609375 1543.039063 C 118.84375 1553.050781 118 1569 117.996094 1581 C 117.824219 1595.570313 115.304688 1610.484375 118 1625 M 784.667969 1569.332031 C 784.222656 1569.777344 785.277344 1569.722656 785.332031 1569.667969 C 785.777344 1569.222656 784.722656 1569.277344 784.667969 1569.332031 M 1521 1612 L 1520 1613 L 1521 1612 M 5.601563 1659.027344 C 3 1661.066406 3.277344 1668 6.316406 1669.398438 C 10.34375 1671.378906 17.597656 1670 22 1670 L 1952 1670 C 1957.582031 1670 1975.96875 1673 1979.972656 1669 C 1991.589844 1657.355469 1965.238281 1658 1961 1658 L 33 1658 C 26.777344 1658 10.570313 1655.09375 5.601563 1659.027344 M 6.316406 1682.027344 C 1.269531 1685.398438 4.738281 1692.671875 10 1693 C 40.277344 1694.238281 71.570313 1692 102 1692 L 1952 1692 C 1957.429688 1692 1977.21875 1695 1980.566406 1690.398438 C 1988.753906 1679.210938 1962.730469 1682 1958 1682 L 35 1682 C 27.84375 1682 12.398438 1678 6.316406 1682.027344 M 1978.683594 1705.027344 C 1967.359375 1701.441406 1948.980469 1705 1937 1705 L 29 1705 C 24.371094 1705 -4.207031 1702.417969 5.179688 1714.398438 C 9.464844 1720 27.777344 1717 34 1717 C 62.269531 1717 90.664063 1714.796875 119 1716.039063 C 240 1721.339844 361.753906 1713.042969 483 1716.015625 C 642 1720 801.933594 1718 961 1716.003906 C 1159.46875 1713.644531 1358.65625 1717 1557 1717 C 1662.328125 1717.039063 1767.691406 1717 1873 1717 C 1894.726563 1717 1916.296875 1716 1938 1716 C 1950.449219 1716 1964.679688 1718 1976.941406 1716 C 1981.191406 1715.128906 1983.292969 1706.488281 1978.683594 1705.027344 M 5.601563 1728.027344 C 3.230469 1730 3.570313 1735.046875 6.316406 1736.398438 C 10.5625 1738.484375 18.347656 1737 23 1737 L 1953 1737 C 1958.519531 1737 1977.371094 1740 1980.972656 1735.398438 C 1989.652344 1724.433594 1963.277344 1727 1959 1727 L 33 1727 C 26.777344 1727 10.566406 1724.09375 5.601563 1728.027344 "/>
</g>
</svg>
