<?xml version="1.0" encoding="UTF-8"?>
<svg xmlns="http://www.w3.org/2000/svg" xmlns:xlink="http://www.w3.org/1999/xlink" width="2000pt" height="2000pt" viewBox="0 0 2000 2000" version="1.1">
<g id="surface1">
<path style=" stroke:none;fill-rule:nonzero;fill:rgb(0%,0%,0%);fill-opacity:1;" d="M 1207 541 C 1207 497.550781 1227.535156 451.703125 1245.308594 413 C 1251 400.367188 1260.824219 388.109375 1265 375 C 1245.222656 383.816406 1226.367188 410.503906 1214.667969 428 C 1183.804688 474.160156 1158.917969 525.191406 1144 579 C 1138.402344 600 1132.679688 620.820313 1127.878906 642 C 1127.316406 644.492188 1125.355469 662 1123 662 C 1120.292969 662 1118.269531 645.472656 1117.804688 643 C 1115.339844 630 1115.667969 616.179688 1117.285156 603 C 1118.269531 595 1121.527344 586 1121 578 C 1096.644531 596.628906 1079.789063 631.386719 1065.78125 658 C 1060.269531 668.46875 1056.90625 684.015625 1048 692 C 1049.175781 677.089844 1049.871094 662.582031 1053.734375 648 C 1061.179688 620 1078 593.414063 1094.859375 570 C 1105 555.707031 1114.863281 541.148438 1125.265625 527 C 1127.953125 523.34375 1136.347656 515.0625 1135.882813 510.316406 C 1135.542969 507 1121.890625 506.6875 1119 506.269531 C 1101.203125 503.707031 1082.96875 502 1065 502 C 1017.617188 502 971.535156 503.734375 925 513.660156 C 905.804688 517.757813 886.816406 522.730469 868 528.292969 C 858 531.226563 847.347656 536.46875 837 537 L 837 536 C 848.96875 531.140625 832 516.011719 827.199219 510 C 808.515625 486.644531 789 464.15625 768.949219 442.015625 C 714.597656 382.058594 649.476563 330 577 293.753906 C 559.277344 285 540.804688 277.574219 522 271.332031 C 515 269.03125 504.457031 264.445313 497 264.832031 C 493.625 265.019531 492.753906 269.285156 491.835938 272 C 489 280 486.527344 288 484.476563 296 C 475.738281 330.449219 470.925781 364.785156 466.714844 400 C 453.269531 512.429688 466.617188 631.027344 491.5 741 C 497.578125 768 504.335938 794.613281 512.28125 821 C 514.390625 828.011719 515.804688 844.179688 521 849.246094 C 523.773438 851.808594 531.351563 840 532.921875 838 C 544.742188 823.828125 556.941406 810.039063 570 797 C 607.242188 759.816406 654.808594 737.222656 705 762.757813 C 714.257813 767.464844 725.820313 774.519531 732 783 C 722.476563 779.804688 713.191406 776 703 775.089844 C 652.792969 771.410156 613.46875 803.617188 578 834.714844 C 524.40625 881.703125 476.167969 928.34375 454 998 C 445.453125 1025 440 1052.757813 438 1081 C 437.480469 1089.703125 437 1098.261719 437 1107 C 437 1110.199219 437.777344 1115 435.398438 1117.4375 C 432.53125 1120.523438 425.878906 1121.21875 422 1122.507813 C 410.960938 1126.171875 399.8125 1129.609375 389 1134 C 347 1150.621094 306.316406 1170.609375 270 1197.628906 C 259.816406 1205.207031 239.539063 1217.390625 236 1230 C 248.234375 1225.367188 260 1218 272 1212.296875 C 297.578125 1200.410156 323.566406 1189.097656 350 1179.226563 C 411 1156.410156 474.269531 1142.765625 539 1136 C 565.265625 1133.023438 593.726563 1131.125 620 1134.574219 C 627.933594 1135.617188 640 1134 646 1140 C 613.632813 1142.558594 580.699219 1152.71875 549 1159.488281 C 463.566406 1177.742188 379 1205.804688 307 1256.28125 C 284.71875 1272 263.359375 1289 244 1308 C 235.589844 1316.292969 224.675781 1326 220 1337 C 229.878906 1334.460938 239.78125 1326.828125 249 1322.246094 C 270.859375 1311.382813 292.921875 1300.714844 315 1290.296875 C 377.515625 1260.804688 442 1235.765625 508 1215.191406 C 542 1204.566406 577 1195.308594 612 1188.199219 C 623.671875 1185.824219 635.355469 1183.390625 647 1181 C 651 1180.011719 656.914063 1180.589844 660.367188 1178.011719 C 664.191406 1175.152344 666.683594 1169.515625 670 1166 C 677.894531 1157.773438 686.523438 1150.695313 695 1143.167969 C 696.375 1142 707.546875 1134.441406 704.339844 1132.5625 C 701.582031 1131 696.929688 1132.550781 694 1132.828125 C 685.347656 1133.652344 676.664063 1134.300781 668 1135.167969 C 665.835938 1135.386719 657.527344 1138 656.207031 1135.398438 C 655 1133.136719 663.566406 1125.65625 665 1124 C 675.859375 1112.148438 687.394531 1101.148438 700 1091.210938 C 715.289063 1079.160156 731.957031 1068.664063 749 1059.304688 C 753.980469 1056.570313 762 1050.265625 767.960938 1050.417969 C 771.5625 1050.511719 774.371094 1055.296875 776.5 1057.714844 C 781.957031 1064 787.871094 1069.296875 795 1073.546875 C 804.796875 1079.390625 817.773438 1080.683594 826.90625 1087 C 834.40625 1092 839.546875 1103.753906 844.882813 1111 C 861 1133 881.585938 1155.203125 871.300781 1184 C 865.203125 1201.078125 852 1215.757813 840.167969 1229 C 818.566406 1253.003906 793.71875 1279.433594 764 1293.359375 C 751.390625 1299.269531 737.933594 1303 724 1303 C 720.644531 1303 713.1875 1304.355469 711.3125 1300.683594 C 709.4375 1297.003906 711.609375 1290.691406 712.527344 1287 C 715.613281 1274.570313 722.53125 1264.011719 726 1252 C 718 1254.0625 710.433594 1260.695313 704 1265.652344 C 686.832031 1279 672.546875 1296.640625 655 1309 C 663.964844 1282.679688 677.800781 1256.238281 694.476563 1234 C 703.71875 1221.675781 719.605469 1209.710938 726 1196 C 693.746094 1200.347656 657.402344 1222 631 1240 C 640.808594 1221 661.289063 1209.734375 672 1192 C 629.179688 1204.242188 587 1222.359375 545 1237.308594 C 475.683594 1262 403.566406 1287.214844 342 1328.332031 C 316.578125 1345.3125 293.226563 1364.160156 272.835938 1387 C 265.476563 1395.242188 255.410156 1405.3125 252 1416 C 259.488281 1413.105469 265.574219 1406.613281 272 1402 C 282.664063 1394.03125 293.867188 1387 305 1379.691406 C 342.636719 1355.496094 382.304688 1333 423 1314.308594 C 433.644531 1309.433594 444 1304.164063 455 1299.800781 C 458.203125 1298.515625 463.371094 1295.253906 466.90625 1296.40625 C 472.484375 1298.230469 476.242188 1309.285156 479 1314 C 481.195313 1317.71875 486 1323.4375 485.757813 1328 C 485.171875 1335 471.652344 1345 466.921875 1350.039063 C 455.730469 1362 445.28125 1375.777344 437 1390 C 433.925781 1395.644531 429.710938 1401.4375 429 1408 C 436.199219 1404.640625 441.863281 1397.320313 448 1392.25 C 461.660156 1381 475.289063 1369.660156 489 1358.425781 C 524.609375 1329.234375 560.882813 1303.195313 601 1280.574219 C 615.820313 1272.21875 631.914063 1261.496094 648 1256 C 638 1267.363281 624.414063 1276.585938 613 1286.425781 C 593.335938 1303.382813 574.585938 1321 556 1339 C 548 1346.785156 539.65625 1354.445313 532.4375 1363 C 530.300781 1365.53125 526.167969 1369.332031 525.882813 1372.828125 C 525.644531 1375.757813 529.183594 1378.199219 531 1380.015625 C 536.523438 1385.511719 541.496094 1391.488281 547 1397 C 553.257813 1403.269531 560 1414 568 1417.820313 C 575.746094 1421.699219 589.25 1420.429688 598 1422.285156 C 613 1425.488281 628.863281 1432.636719 642 1440.613281 C 706.941406 1480.066406 739 1548.703125 739 1623 L 738 1623 C 720.382813 1556.441406 681.542969 1489.4375 613 1465.503906 C 598.289063 1460.371094 581.65625 1457.015625 566 1458.089844 C 558 1458.628906 544.242188 1464.796875 537 1462.597656 C 529.40625 1460.289063 522.476563 1450.546875 516 1446 C 515.59375 1452.695313 522.472656 1460.222656 525.714844 1466 C 532.761719 1478.550781 540.570313 1493.707031 543 1508 C 524.984375 1488.261719 508 1469.324219 484 1456.785156 C 425.792969 1426.558594 354.6875 1448.070313 320.425781 1503 C 301.1875 1534 296.460938 1567.703125 292 1603 L 291 1603 C 290.558594 1597.425781 291.359375 1577.519531 287 1574.027344 C 284.175781 1571.699219 277.816406 1574.808594 275 1576.042969 C 263.6875 1581.007813 254.9375 1592 248.34375 1602 C 232.535156 1626.285156 228.320313 1657.664063 229 1686 C 230.273438 1737.332031 262.726563 1795 313 1812 C 323.675781 1815.613281 334.769531 1816.679688 346 1816 C 351.527344 1815.53125 358.605469 1813.050781 364 1814.71875 C 372 1817.207031 379.167969 1824.140625 387 1827.574219 C 405 1835.480469 422.488281 1838 442 1838 C 464 1838 485.503906 1832.171875 505 1821.691406 C 514 1817 524.308594 1806.585938 534 1804.050781 C 544.445313 1801.3125 559 1806 570 1806 C 598 1806.011719 626.324219 1803.132813 652 1790.742188 C 666.707031 1783.644531 681 1775.359375 693 1764 C 700.695313 1756.554688 709.582031 1742.464844 720 1739.304688 C 803 1714.117188 888.261719 1731.261719 970 1750 C 968.695313 1742.664063 964.601563 1736 962 1729 C 957.332031 1715.789063 954 1701.015625 953 1687 C 947.289063 1602.761719 996.765625 1513.683594 1070 1472.289063 C 1085.539063 1463.503906 1103.226563 1458 1121 1456.171875 C 1129.355469 1455.375 1143.648438 1459.417969 1151 1456 C 1163.726563 1450 1174.257813 1437.214844 1187 1430.308594 C 1219.410156 1412.746094 1259.988281 1407.121094 1296 1414.664063 C 1332.425781 1422.296875 1365.726563 1443 1390.910156 1470 C 1398.359375 1478 1404.78125 1487.015625 1410.972656 1496 C 1413.636719 1500 1416.324219 1506.449219 1420.378906 1509 C 1425.363281 1512.074219 1435.203125 1509.535156 1441 1510.4375 C 1454.226563 1512.503906 1467.582031 1517.511719 1479 1524.464844 C 1539 1561 1548.726563 1634.53125 1546 1698 L 1544 1698 C 1543.589844 1648.433594 1514.300781 1592.074219 1473 1564.675781 C 1461.273438 1557 1448 1550.601563 1434 1549 C 1430.90625 1548.460938 1423.367188 1546.066406 1420.691406 1548.117188 C 1418 1550.15625 1420.324219 1559.148438 1420.730469 1562 C 1422.386719 1573.625 1424 1587.4375 1422 1599 L 1421 1599 C 1414 1562.160156 1395.632813 1524.710938 1368.960938 1498.039063 C 1326.769531 1456 1260.980469 1441.554688 1206 1466 C 1168.492188 1482.445313 1152 1513.484375 1127 1543 C 1128.992188 1529.449219 1132.246094 1515.085938 1136.347656 1502 C 1137 1499.59375 1142.402344 1490.066406 1140.183594 1488.199219 C 1136.4375 1485.042969 1121 1491.320313 1117 1492.671875 C 1093.324219 1500.386719 1071.699219 1513.386719 1054 1531 C 1001.402344 1583.347656 965.929688 1674.132813 1006.613281 1744 C 1028 1780.78125 1064.753906 1805.480469 1108 1806 C 1119.421875 1806.132813 1130.695313 1805.34375 1142 1803.730469 C 1147.574219 1803 1155.476563 1800.394531 1161 1801.523438 C 1168.941406 1803.144531 1177.234375 1813.792969 1184 1818.328125 C 1199.46875 1828.707031 1216.796875 1837.183594 1235 1841.496094 C 1265.414063 1848.703125 1294.609375 1845.28125 1324 1835.484375 C 1335.308594 1831.714844 1348.421875 1821.164063 1360 1820.0625 C 1372.234375 1819 1387.679688 1825.097656 1400 1826.71875 C 1423 1829.753906 1446 1827.78125 1468 1820 C 1487 1813.238281 1502.847656 1801 1516.660156 1786.535156 C 1521.789063 1781.171875 1525.308594 1773.132813 1531 1768.648438 C 1541.347656 1760.730469 1558.757813 1757.605469 1571 1754 C 1615.210938 1740.445313 1664.699219 1730.445313 1711 1730 C 1722.980469 1730 1734.960938 1729 1747 1729 C 1750.332031 1729 1757.585938 1730.363281 1759.398438 1726.683594 C 1761 1723.324219 1760 1717.652344 1760 1714 L 1760 1684 C 1760 1643.214844 1757.191406 1603 1748.660156 1563 C 1735.492188 1501.269531 1714.566406 1441.765625 1677.574219 1390 C 1648.863281 1349.824219 1610.890625 1317.796875 1571 1289.289063 C 1499.824219 1238.425781 1418.738281 1198.597656 1335 1173.039063 C 1294.886719 1160.796875 1254.824219 1150.011719 1213 1145.832031 C 1200.316406 1144.5625 1185.675781 1142.789063 1173 1144.285156 C 1158.523438 1146 1144.367188 1145.792969 1130 1149.117188 C 1128.371094 1149.496094 1115.878906 1151.824219 1117.347656 1154.488281 C 1118.554688 1156.683594 1124.78125 1157.234375 1127 1158 C 1136.28125 1160.476563 1145.707031 1162.449219 1155 1165.011719 C 1192 1175.238281 1229 1186.109375 1265 1200.203125 C 1366.328125 1240.019531 1469 1300.050781 1536 1388 C 1501.613281 1366.515625 1470.207031 1339.714844 1436 1317.691406 C 1375.464844 1278.722656 1308.269531 1247.820313 1241 1222.46875 C 1203 1208.152344 1163.484375 1192.117188 1123 1187 C 1126.378906 1198.046875 1148.953125 1208 1158 1215 C 1183.621094 1234.800781 1209.6875 1257.199219 1227 1285 C 1194 1282.128906 1164.601563 1258 1132 1253 C 1137 1265.1875 1147.335938 1275.023438 1153 1287 C 1110.464844 1287 1076.476563 1270 1039 1251.347656 C 1012.539063 1238.210938 985.84375 1225.195313 960 1211 C 937.269531 1198.253906 909 1184 901 1157 C 894 1133.402344 908.199219 1103 926 1087.300781 C 935.605469 1079 948.277344 1073.769531 959 1067 C 967.8125 1061.335938 976 1054.121094 982.714844 1046 C 986 1042 988.617188 1035 994 1033.433594 C 1008.316406 1029.328125 1028.496094 1033.28125 1043 1035 C 1076.9375 1038.46875 1109.984375 1047.34375 1142 1059.054688 C 1156.574219 1064.382813 1170.378906 1072.019531 1185 1077 C 1179 1080 1172.414063 1079.488281 1166 1080.613281 C 1152.84375 1083 1139.886719 1085.4375 1127 1089 C 1123.988281 1089.820313 1109.683594 1092.195313 1108.921875 1095.441406 C 1108.199219 1098.507813 1126.429688 1099.363281 1129 1099.730469 C 1151.382813 1103 1173.683594 1106.628906 1196 1110.246094 C 1291.390625 1125.714844 1384.796875 1146.808594 1473 1187.308594 C 1520 1209 1562.90625 1238.761719 1604 1270.117188 C 1614.515625 1278.136719 1624.851563 1286.4375 1635 1295 C 1637.457031 1297 1642.96875 1303.628906 1646.582031 1302.539063 C 1649.554688 1301.640625 1650.492188 1295.492188 1651.425781 1293 C 1654.886719 1283.738281 1658.207031 1274.378906 1661.332031 1265 C 1665.417969 1252.746094 1669 1240.441406 1672.574219 1228 C 1673.578125 1224.402344 1677 1217.679688 1675.757813 1214.09375 C 1673.699219 1208.675781 1663.710938 1204.777344 1659 1202.011719 C 1642.359375 1192.238281 1625.421875 1182.691406 1608 1174.382813 C 1520.261719 1132.546875 1430 1104.539063 1334 1089.703125 C 1296.535156 1084 1257 1076.003906 1219 1076 L 1219 1075 C 1250.847656 1066.046875 1286.199219 1067 1319 1067 C 1418.820313 1067 1521.828125 1090.617188 1610 1138.308594 C 1646.4375 1158.019531 1680.703125 1181.1875 1716 1202.8125 C 1729.6875 1211.195313 1746.382813 1226.328125 1762 1230 C 1752.933594 1209.796875 1728.464844 1191.464844 1713 1176 C 1707.417969 1170.417969 1697.382813 1163.535156 1694.601563 1156 C 1692 1149.261719 1695 1139 1695.828125 1132 C 1697 1118.425781 1697 1104.644531 1697 1091 C 1696.984375 1053.363281 1690 1015 1679 979 C 1662 923 1630.1875 871.667969 1595.523438 825 C 1580.890625 805.304688 1560.167969 787.050781 1548 766 C 1578.582031 794.082031 1611 817.1875 1638.574219 849 C 1648.871094 861 1658.839844 873.152344 1668 886 C 1672.539063 892.367188 1676.796875 901.488281 1684 905 C 1684 885.101563 1689.902344 865 1691.828125 845 C 1695.839844 803.753906 1698.972656 762.40625 1699.984375 721 C 1702.304688 626.285156 1695.226563 532.296875 1679.675781 439 C 1673.472656 401.769531 1663 365.542969 1653.871094 329 C 1642.449219 283.589844 1624.289063 237.429688 1602.550781 196 C 1597.421875 186.230469 1592.175781 176.59375 1586.71875 167 C 1585 164.039063 1582.898438 158.078125 1578.894531 157.824219 C 1570.515625 157.289063 1556.359375 167.765625 1549 171.574219 C 1520 186.597656 1493 204.582031 1467 224.257813 C 1397.570313 276.777344 1337.332031 345.460938 1288 417 C 1275 435.703125 1262.183594 454.546875 1250.449219 474 C 1236.535156 497.066406 1224.78125 520.449219 1207 541 M 1566 295 C 1563.1875 301.683594 1558.386719 307.496094 1555 314 C 1539.546875 345 1525.328125 371.03125 1501.828125 397 C 1491.445313 408.476563 1479.269531 418.1875 1469.246094 430.003906 C 1465.984375 434 1460.691406 438 1460 443 C 1483.234375 426 1521 426 1546 439 L 1546 440 C 1533.257813 444 1520.332031 446.425781 1508 452 C 1475.695313 466.101563 1448.347656 488 1422 511 C 1436.179688 512 1452.601563 504.613281 1467 503.167969 C 1499.410156 500 1531.398438 503.0625 1562 514.574219 C 1572 518.390625 1590.617188 524 1597 533 C 1548.246094 533 1504.898438 542.308594 1460 561 C 1487 571.703125 1513.402344 579 1538 596 C 1543.667969 599.808594 1549.625 603.542969 1554.980469 608 C 1556.222656 609 1560.324219 612 1558.246094 613.78125 C 1554.402344 617.328125 1539.359375 615.421875 1534 616.386719 C 1514 620 1488.214844 623 1472 636 C 1493.785156 642.410156 1511.179688 670.480469 1523.574219 688 C 1528.203125 694.542969 1534.894531 702.25 1537 710 C 1527.257813 705.539063 1518.691406 697.015625 1510 690.746094 C 1494.46875 679.539063 1478.421875 668.796875 1462 659 C 1455.492188 655.050781 1448.8125 651.347656 1442 648.003906 C 1439.894531 647 1435.304688 646 1434.304688 643.503906 C 1431.292969 636.390625 1451.976563 631.410156 1449.792969 626.59375 C 1447.886719 622.386719 1434 619.757813 1430 618.226563 C 1408.867188 610.4375 1383.390625 606.769531 1361 605 C 1364 600 1370.46875 598.445313 1374.996094 595 C 1384.222656 587.601563 1392.257813 579.492188 1402 572.722656 C 1404.390625 571.058594 1416.945313 566 1416.945313 563.171875 C 1416.945313 560 1402.738281 556.269531 1400 555.355469 C 1384 550.019531 1367.558594 548.675781 1351 546.425781 C 1347.914063 546.003906 1335.792969 546.375 1335 542.683594 C 1333.953125 537.125 1339.945313 527 1342.234375 522 C 1350.320313 504.546875 1360 488.597656 1369.71875 472 C 1400.785156 418.472656 1446.925781 365.386719 1497 329 C 1517.269531 314.257813 1540.773438 299.289063 1566 295 M 761 623 C 753.390625 618.398438 747.4375 601.671875 742.332031 594 C 728 572.484375 711.890625 548.332031 689 535 C 696.648438 553.089844 711.195313 568.269531 718 587 C 702.308594 582.804688 686.90625 580 671 585 C 683 595 697 602 709 612.285156 C 728.660156 629.613281 745.609375 657.734375 749 684 C 742.628906 679.015625 738.46875 671 732.910156 665 C 715.78125 646.605469 695.863281 632 670 632 C 663.9375 632.03125 643.910156 633.671875 641.207031 640.445313 C 640 643.136719 645.34375 645.449219 647 646.53125 C 650.65625 649 669.429688 659.402344 668 664.585938 C 667.585938 666.554688 662.605469 667.363281 661 668.015625 C 654.550781 670.628906 648.222656 673.644531 642 676.753906 C 625.996094 684.753906 610.988281 694.652344 597 705.800781 C 588.828125 712.3125 581.285156 721.191406 572 726 C 574.492188 717.515625 580.265625 710.375 584.945313 703 C 597.226563 683.65625 610.847656 667.0625 628 652 C 606.59375 643.097656 586.316406 638 563 638 C 581.640625 612.675781 619.996094 599.167969 649 591 L 649 590 C 610.648438 575.125 574.183594 574 534 579 C 539.882813 571.332031 549.789063 566.460938 558 561.601563 C 581.707031 547.578125 608.933594 539.65625 636 535.4375 C 644.257813 534.152344 652.824219 535 661 533 C 642.726563 514.722656 620.636719 501.054688 596 493 C 586.222656 489.648438 575.453125 489.539063 566 486 L 566 485 C 584 476.402344 601.890625 471.457031 622 474 C 610.210938 457.3125 589.398438 445.765625 574 432.570313 C 556.804688 418 539.992188 396.195313 528 377 C 568.613281 377 608.941406 401.011719 639 426.730469 C 699.675781 478.640625 745.652344 544 761 623 M 720 465 C 769.378906 510.484375 817.949219 563.804688 825.949219 634 C 827.902344 651.136719 829.523438 668.777344 827 686 C 826.828125 688.167969 826.613281 701.792969 824 701.792969 C 821.714844 701.792969 819.328125 691 818.65625 689 C 813.921875 675.4375 809.609375 661.785156 805.574219 648 C 792 602 777 556.0625 751.574219 515 C 743.980469 502.804688 736.238281 490.5625 727.734375 479 C 724.976563 475.25 719 470 720 465 M 1338 465 C 1327.5625 479.820313 1312.230469 492 1300.613281 506 C 1273.652344 538.75 1250.410156 570.585938 1218 598.425781 C 1205.785156 609 1192.464844 626.253906 1178 633 C 1181 615.164063 1194.476563 596.785156 1204.332031 582 C 1229.652344 544.019531 1263.265625 510.253906 1302 486 C 1313.234375 479 1325.183594 468.769531 1338 465 M 688 534 L 689 535 L 688 534 M 1363 590 L 1363 591 C 1344.742188 591.378906 1327.195313 601.121094 1310 606.277344 C 1300.859375 609.019531 1292.214844 608 1283 609.300781 C 1274.179688 610.558594 1265.738281 613.710938 1257 615 C 1261.804688 606.695313 1273.925781 600.644531 1282 595.800781 C 1290.300781 590.820313 1300.738281 582.074219 1310 579.574219 C 1323.824219 576 1350.550781 584 1363 590 M 1401 812 C 1391 807.367188 1382.320313 797.179688 1374 790 C 1359.511719 777.496094 1344.265625 765.550781 1328 755.425781 C 1290.21875 732 1249 722.347656 1205 728.289063 C 1187.542969 730.640625 1171 737.085938 1154 740 C 1165.933594 725.597656 1195.222656 717.808594 1213 714.574219 C 1273.386719 703.589844 1325 730.0625 1367 772 C 1378.59375 783.59375 1393.632813 797.214844 1401 812 M 742 740 C 755.722656 749.082031 769.496094 758.027344 780.960938 770 C 816.484375 807.105469 833.628906 858.027344 828 909 C 825.921875 930 816.355469 964.296875 797 976 C 800 953.609375 805.964844 931.734375 806.960938 909 C 808.226563 880.078125 800.871094 850.6875 790.199219 824 C 781.5 802.246094 770.421875 782 756.640625 763 C 752.976563 758 740.800781 746 742 740 M 1103 767 C 1096.949219 783 1082.863281 797.765625 1074.574219 813 C 1059.671875 840.394531 1048.882813 870.089844 1040.296875 900 C 1036.746094 912.363281 1033.921875 925.261719 1032 938 C 1031.433594 943 1032.328125 951 1028 954 C 1025.972656 938 1022.617188 922.25 1023 906 C 1024 865.191406 1040 829.527344 1066.71875 799 C 1076.71875 787.507813 1089.277344 774.007813 1103 767 M 1267 802.289063 C 1301.855469 798 1311.265625 855 1275 859.710938 C 1236.90625 864.707031 1228.617188 807.101563 1267 802.289063 M 1146 821 C 1145.347656 827.503906 1142.238281 833.496094 1141.300781 840 C 1139 855.714844 1140.375 873.394531 1147 888 C 1152 898.808594 1159 909 1168 916.824219 C 1210.519531 955 1279.214844 942.734375 1311.230469 897 C 1328.734375 872 1332.332031 840.6875 1323 812 C 1336 818.085938 1343.578125 836.652344 1346 850 C 1352 881.699219 1344.746094 916.164063 1321.960938 940 C 1276.785156 987.265625 1199.539063 998.746094 1143 964.550781 C 1099.601563 938.300781 1099.609375 887.507813 1123.8125 848 C 1129.699219 838.386719 1136.695313 827.558594 1146 821 M 1402 813 L 1401 814 L 1402 813 M 1386 850 C 1390.691406 866 1389 884.183594 1385.230469 900 C 1367 975 1288.628906 1013 1217 1013 C 1189.929688 1013 1160.257813 1007.464844 1137 993 C 1130.429688 988.71875 1119.386719 983.828125 1117 976 C 1141.703125 982.742188 1165.265625 991.339844 1191 993.828125 C 1251.65625 999.699219 1309.339844 974.511719 1347.191406 927 C 1358.375 913 1367.824219 896.617188 1374.597656 880 C 1378.3125 871 1380.199219 857.785156 1386 850 M 741 851.292969 C 772.972656 847.46875 781.804688 899.167969 749 903.789063 C 715.535156 908.507813 706.554688 855.414063 741 851.292969 M 642 857 C 634 879 624.476563 896.582031 629.515625 921 C 639.320313 968.542969 693 993.503906 736 972.742188 C 757 962.585938 774.882813 943.046875 782.945313 921 C 785.863281 913.023438 784.46875 900.632813 789 894 C 795.300781 912.605469 793.992188 937.796875 787 956 C 779.988281 974.246094 768.890625 990.117188 753 1002 C 715.433594 1029.5625 648.242188 1031 616.324219 993 C 589.933594 961.640625 592.597656 917 614.671875 884 C 621.34375 874.050781 630.828125 862 642 857 M 580 905 C 576.957031 923 573.585938 938.585938 576.300781 957 C 578 968.589844 581.964844 980 587.863281 990 C 592.960938 998.742188 598.753906 1006 606 1013 C 647.664063 1053.613281 704.785156 1032.1875 751 1014 C 744.804688 1026 729.347656 1034.675781 718 1041.148438 C 676.765625 1064.675781 614.839844 1066.117188 581.183594 1028 C 558.503906 1002.308594 556.5 965.394531 566 934 C 568.921875 925 572.578125 911.363281 580 905 M 946 933 C 925.183594 931.300781 905.234375 925.5 884 925.015625 C 870.847656 924.714844 856.679688 930.132813 844 929 C 868.296875 901.628906 923 904.765625 946 933 M 963 989 L 963 990 C 926.398438 990 894.507813 1005.015625 859 1010.5625 C 838.648438 1013.738281 815.742188 1009.109375 795 1010 C 802 996.746094 820.554688 987.09375 834 981.601563 C 873.21875 965.589844 926.1875 967.515625 963 989 M 914 1236.339844 C 928.566406 1233.621094 949.300781 1246.496094 962 1252.640625 C 1005 1273.472656 1044.707031 1298.222656 1077.960938 1333 C 1088 1343.539063 1096.949219 1355.664063 1104.679688 1368 C 1106.835938 1371.4375 1111.738281 1377.570313 1111 1382 C 1110.425781 1385.335938 1105.710938 1387 1103 1388.242188 C 1095.355469 1392.027344 1087.550781 1395.511719 1080 1399.484375 C 1047.339844 1416.667969 1013.507813 1432.550781 977 1439.390625 C 921 1450 845.210938 1437.769531 815.3125 1383 C 789.726563 1336.132813 842 1286.660156 875 1260.398438 C 885.671875 1252 900 1239 914 1236.339844 M 650 1254 C 649.230469 1255.3125 649.3125 1255.230469 648 1256 C 648.546875 1254.363281 648.363281 1254.546875 650 1254 M 512 1660 C 506.269531 1657.375 501.644531 1652.734375 496 1649.785156 C 485.433594 1644.261719 473.914063 1640.78125 464 1634 C 442.738281 1619.292969 428.734375 1594.757813 426.976563 1569 C 426 1556.347656 426 1530.519531 441 1524.746094 C 453.472656 1520 473.589844 1537.820313 480.710938 1546 C 500.703125 1569 503.71875 1596.0625 507.285156 1625 C 508.726563 1636.71875 512 1648.175781 512 1660 M 651 1656 C 658.183594 1617.308594 623.308594 1605.191406 603.453125 1580 C 595.867188 1570.375 585.625 1547.609375 590.742188 1535.042969 C 592.644531 1530.367188 597.617188 1530 602 1529.429688 C 614.660156 1528 626.648438 1534.488281 636 1542.324219 C 659.972656 1562.410156 670.574219 1596.804688 664.398438 1627 C 662.441406 1636.566406 658.914063 1649.75 651 1656 M 1249 1813 C 1248 1807.523438 1249 1802.394531 1246.882813 1797 C 1242.464844 1786.316406 1233.246094 1778.621094 1227 1769 C 1217 1753.308594 1212.683594 1733.375 1216.195313 1715 C 1217.550781 1708 1223.738281 1694.792969 1222.1875 1688 C 1220.378906 1680.066406 1207.476563 1672.164063 1202.324219 1666 C 1191 1652.53125 1183.324219 1634.613281 1182 1617 C 1180.359375 1592.324219 1185 1568.289063 1201.4375 1549 C 1206.277344 1543.265625 1216.742188 1531.34375 1225 1536.148438 C 1259.351563 1556.148438 1251.6875 1612 1242 1643 C 1238.46875 1655 1232.226563 1668.253906 1233 1681 C 1233.203125 1683 1233.757813 1685.121094 1236 1684.082031 C 1239.796875 1682.496094 1242 1679 1246 1677.65625 C 1253.972656 1675.253906 1263.71875 1682.503906 1268.699219 1688.039063 C 1300.210938 1723.0625 1285.957031 1786.746094 1249 1813 M 365 1552 C 365 1581.773438 370.179688 1611.457031 373.714844 1641 C 374.890625 1650.820313 373.554688 1667.226563 379.417969 1675.640625 C 381.675781 1679 387.671875 1676 391 1676.1875 C 398.742188 1676.816406 407.398438 1680 414 1684 C 440.558594 1700.058594 440.625 1727.359375 450.46875 1753 C 452.503906 1758.304688 455.390625 1763.625 459.28125 1767.789063 C 460.191406 1768.765625 463.515625 1771 462.652344 1772.605469 C 460.621094 1776.609375 448.410156 1774.191406 445 1774.039063 C 426 1773.203125 406.65625 1766.625 393 1753 C 385.246094 1745.21875 378.285156 1734.820313 375.675781 1724 C 374.28125 1718.207031 375.582031 1710.21875 372.972656 1705 C 366.59375 1692.246094 352.414063 1683.109375 345.308594 1670 C 325 1632.691406 327.433594 1578.464844 365 1552 M 1344 1734 C 1347.570313 1723.449219 1351.910156 1713.453125 1349.621094 1702 C 1346.265625 1685.214844 1329.320313 1673.027344 1321.808594 1658 C 1313.316406 1641.015625 1310.863281 1620.671875 1313.921875 1602 C 1315 1594.8125 1314.558594 1572.625 1320.5625 1568.179688 C 1324.277344 1565.429688 1331 1567.574219 1335 1568.640625 C 1349.621094 1572.585938 1361.863281 1583.121094 1369.675781 1596 C 1388.273438 1626.648438 1387.253906 1671.046875 1372.445313 1703 C 1367.179688 1714.367188 1357 1731 1344 1734 M 1115 1574.449219 C 1125.554688 1573.089844 1132.445313 1590.65625 1131.816406 1599 C 1130.894531 1611.132813 1122.210938 1621.03125 1117.820313 1632 C 1112 1646.511719 1111.742188 1662.796875 1114.609375 1678 C 1116 1686 1118.675781 1693.320313 1120.859375 1701 C 1121.296875 1702.539063 1123.769531 1708.507813 1120.640625 1708.699219 C 1110.304688 1709.328125 1096 1691.117188 1090.828125 1684 C 1073.261719 1660.257813 1071.5625 1624.753906 1085.628906 1599 C 1091.335938 1588.554688 1102.277344 1576.089844 1115 1574.449219 M 610 1761 C 610.460938 1755.179688 611.648438 1749.765625 609.957031 1744 C 604.710938 1726.132813 588.492188 1724.101563 574 1716.726563 C 565.214844 1712.257813 557.21875 1704.5625 552.339844 1696 C 544.570313 1682.378906 538.367188 1649.296875 553.339844 1637.601563 C 563.183594 1630 586.816406 1640.671875 595 1646.761719 C 618.679688 1664.375 625 1693.171875 625 1721 C 624.996094 1733 621.511719 1754.515625 610 1761 M 1430 1777 C 1431 1766.546875 1437.207031 1757 1435.558594 1746 C 1431 1716.65625 1409.839844 1694.253906 1416.886719 1663 C 1418.390625 1656.34375 1420.738281 1643.726563 1427.210938 1640.03125 C 1431.621094 1637.511719 1438.949219 1640.78125 1443 1642.808594 C 1457.535156 1650.082031 1464.703125 1666 1468 1681 C 1476 1716.019531 1460.910156 1757.664063 1430 1777 M 285 1658.707031 C 292 1656.757813 302.558594 1666.359375 306.621094 1671.089844 C 322 1689.15625 322.632813 1713.375 329.179688 1735 C 331.371094 1742.242188 333.675781 1749.160156 336.964844 1756 C 337.605469 1757.335938 340.402344 1761.382813 338.289063 1762.59375 C 334 1765.003906 317 1755.292969 313 1753.242188 C 287.601563 1740.722656 272.964844 1716.292969 273 1688 C 273 1679.550781 274.898438 1661.511719 285 1658.707031 "/>
</g>
</svg>
