<?xml version="1.0" encoding="UTF-8"?>
<svg xmlns="http://www.w3.org/2000/svg" xmlns:xlink="http://www.w3.org/1999/xlink" width="2000pt" height="2000pt" viewBox="0 0 2000 2000" version="1.1">
<g id="surface1">
<path style=" stroke:none;fill-rule:nonzero;fill:rgb(0%,0%,0%);fill-opacity:1;" d="M 1449 89 C 1449 174.519531 1446 260.292969 1446 346 C 1446 501 1448.609375 656.199219 1445 811 C 1435.550781 803 1429.53125 793.015625 1418 787 C 1413.871094 784.695313 1401.601563 782.773438 1399.601563 778.683594 C 1394.972656 769.207031 1399 748.578125 1399 738 L 1399 102 C 1399 98.8125 1400.210938 92.339844 1396.683594 90.601563 C 1392.4375 88.515625 1384.652344 90 1380 90 L 1340 90 C 1336 90 1325.746094 88.171875 1323 91.601563 C 1320.953125 94.222656 1322 100 1322 103 L 1322 207 C 1322 218.257813 1323.976563 231.523438 1322 242.574219 C 1320 253 1304.726563 266.222656 1298.660156 275 C 1281.59375 299.691406 1266.25 325.574219 1252 352 C 1240.710938 373.058594 1229 394.792969 1220.25 417 C 1218.382813 421.664063 1214.359375 438.367188 1207.957031 437.574219 C 1203.171875 437 1188 430 1187.199219 424.816406 C 1185.460938 413.75 1194.515625 396.539063 1197.691406 386 C 1208 351.359375 1221.976563 317.785156 1232 283 C 1235.5625 270.640625 1240.167969 257.761719 1241.933594 245 C 1242.195313 243.128906 1245 233.445313 1242.382813 233 C 1239.394531 232.339844 1236.191406 237.144531 1234.574219 239 C 1228.480469 246.011719 1223.304688 253.292969 1218 261 C 1196.335938 293.457031 1181.964844 334.253906 1172.589844 372 C 1169.867188 383 1167.695313 394.128906 1164.695313 405 C 1163.945313 407.71875 1163.695313 414.277344 1159.773438 414.210938 C 1152.714844 414.09375 1143.6875 408.609375 1137 406.328125 C 1119.671875 400.421875 1101.941406 394.183594 1084 390.359375 C 1070.84375 387.558594 1057.246094 384 1044 382 C 1037 381 1026.972656 381.195313 1021 377.398438 C 1009.222656 370 999.945313 355 989.960938 345.035156 C 968.855469 324.183594 946.296875 304 923 285.511719 C 858.199219 234.308594 786.292969 193.074219 710 161.660156 C 670.464844 145.382813 623 126.0625 580 125 C 565.25 124.617188 548.175781 118 537 132.105469 C 529.96875 141.207031 531 156.09375 531 167 C 531 193.035156 530.613281 219.164063 533.714844 245 C 542.648438 319.457031 559.253906 391.75 583.1875 463 C 590.714844 485.40625 599.925781 507.578125 609.886719 529 C 614 538 623.308594 549.289063 624.496094 559 C 625.28125 565.425781 614.617188 575.4375 610.726563 580 C 597 596 584.402344 613.214844 573.226563 631 C 545.226563 675.5625 520.386719 721.609375 504.355469 772 C 497.726563 792.828125 491.910156 814 486.28125 835 C 484.203125 842.789063 484.4375 854.054688 480 861 C 476.214844 867 461.546875 867.675781 455 869.203125 C 433 874.316406 411.394531 880.496094 390 887.460938 C 311.460938 913.027344 231.792969 948 165 997.117188 C 145.65625 1011.351563 107.359375 1033 107 1060 C 106.75 1079.425781 121.976563 1093.25 135.195313 1105.765625 C 166.378906 1135.28125 201.898438 1161 239 1182.425781 C 309.765625 1223.515625 384.199219 1258.597656 464 1278.257813 C 493.5625 1285.542969 523.820313 1293.101563 554 1296.714844 C 569.34375 1298.550781 589.773438 1296.078125 604.285156 1301.398438 C 612.726563 1304.492188 621.398438 1315 628 1321 C 640.578125 1332.476563 654 1343.34375 668 1353.21875 C 677.351563 1360 687.207031 1366.183594 697 1372.1875 C 701.695313 1375.066406 709 1378.140625 712.535156 1382.453125 C 715.492188 1386.121094 706.171875 1393.234375 703.710938 1395.714844 C 691.746094 1407.777344 679.832031 1420 667.984375 1432 C 634.175781 1466.71875 604.597656 1507 584.46875 1551 C 578.710938 1563.621094 566.917969 1587.058594 571 1601 C 587.945313 1587.003906 601 1564.148438 614.984375 1547.039063 C 644.921875 1510.28125 675.195313 1473.800781 706.289063 1438 C 714.820313 1428.179688 723.921875 1419 732.425781 1409 C 734.90625 1406.125 738.953125 1399.402344 743 1399 C 746.375 1398.574219 750.964844 1402 754 1403.101563 C 756.988281 1404.308594 763.328125 1405.675781 765 1408.558594 C 767.570313 1412.515625 757.816406 1423 755.523438 1426 C 742.933594 1443.019531 730.617188 1460.371094 718.890625 1478 C 673.410156 1546.359375 636.785156 1615.585938 623 1697 C 628.984375 1693.8125 632.332031 1684.710938 635.796875 1679 C 645.222656 1663.476563 654.167969 1647.695313 663.28125 1632 C 694.699219 1578 726.835938 1523.238281 761 1471 C 768.988281 1459.089844 776.199219 1446.746094 784.28125 1435 C 787.46875 1430.367188 790.371094 1423.476563 795.324219 1420.449219 C 798.300781 1418.628906 819 1420.652344 820.359375 1424 C 821.609375 1427.175781 815.957031 1434.171875 814.488281 1437 C 807.667969 1450.152344 799.816406 1462.769531 793 1476 C 767.875 1526 740.976563 1575.828125 729.335938 1631 C 725.992188 1647 723 1662.75 723 1679 C 723 1684.214844 721 1693 726 1696 C 729.664063 1675.4375 745 1654.160156 753.363281 1635 C 774.421875 1586.464844 795.933594 1537.4375 819.414063 1490 C 827 1474.449219 834.257813 1458.644531 841.777344 1443 C 843.9375 1438.507813 847 1427.648438 851.277344 1425.027344 C 857 1421.347656 868.289063 1424.761719 875 1423.675781 C 898.410156 1420 921.585938 1418 944.714844 1411.558594 C 965.953125 1405.683594 986.679688 1399.15625 1007 1390.480469 C 1010.949219 1388.792969 1025.246094 1379.738281 1029 1381.582031 C 1031.285156 1382.636719 1030 1391 1030 1393 C 1030 1404.816406 1028.886719 1417.277344 1030.425781 1429 C 1033.371094 1451.441406 1031.957031 1474.386719 1035.207031 1497 C 1038.90625 1522.730469 1047.214844 1549.640625 1056 1574 C 1060.753906 1586.542969 1065.738281 1598.78125 1071 1611 C 1072.828125 1614.820313 1077.203125 1621.113281 1071.902344 1623.613281 C 1049.273438 1634.269531 1017.359375 1623.648438 1001.628906 1605.828125 C 991.742188 1594.632813 986.777344 1580.125 975 1570.324219 C 961.308594 1559 940 1555.230469 923 1559.46875 C 885.601563 1568.71875 870.320313 1613.714844 879.878906 1648 C 901.921875 1727.09375 990.628906 1763.117188 1066 1745.570313 C 1082 1741.816406 1098.882813 1733.832031 1113 1725.253906 C 1117.269531 1722.660156 1126.398438 1713.671875 1131.660156 1714.722656 C 1134.457031 1715.28125 1136.421875 1720 1137.730469 1722.089844 C 1142.324219 1729.785156 1147 1737.304688 1151.734375 1745 C 1165.699219 1768.472656 1183.816406 1789.484375 1200.5 1811 C 1205.6875 1817.6875 1219.3125 1827.527344 1220.964844 1836 C 1221.84375 1840.289063 1212.421875 1839 1210 1839 L 1174 1839 C 1122.664063 1839 1071.382813 1840 1020 1840 C 865 1840 710.6875 1842.265625 556 1849.039063 C 491.605469 1852 426.570313 1858 362 1858 C 366 1864 384.203125 1860.625 391 1861.089844 C 419.710938 1863.054688 449.226563 1864 478 1864 C 522.390625 1864.003906 566.71875 1866.023438 611 1868 C 682.953125 1871.109375 755 1871 827 1874 L 827 1875 C 763.414063 1875 700.425781 1878.085938 637 1881 C 539.6875 1885.371094 442.25 1886.625 345 1891.039063 C 293.433594 1893.378906 241.691406 1900.570313 190 1901 L 190 1903 C 278.222656 1903.242188 366.722656 1908 455 1909 C 735.558594 1912.335938 1016.355469 1910 1297 1910 C 1383.96875 1910 1471 1910.113281 1558 1908 C 1578 1907.496094 1599 1908.65625 1619 1907 C 1621 1906.710938 1638.511719 1905.679688 1638 1904.285156 C 1637.222656 1901.519531 1624.480469 1903.066406 1622 1902.828125 C 1605.597656 1901.269531 1588.382813 1899.078125 1572 1899 C 1523 1898.765625 1474.792969 1891.210938 1426 1890.015625 C 1412.507813 1889.683594 1399.296875 1888 1386 1887.054688 C 1379.832031 1886.632813 1372.859375 1888.550781 1368 1884 C 1454 1880.304688 1540.847656 1879 1627 1879 C 1659.253906 1879 1691.855469 1880.289063 1724 1878.089844 C 1734.292969 1877.386719 1746 1880 1756 1877 L 1756 1876 C 1746.5625 1873.210938 1735.738281 1875 1726 1873.816406 C 1698 1870.476563 1669.996094 1868.34375 1642 1866.09375 C 1630 1865.136719 1605.480469 1868 1595.433594 1861 C 1591.355469 1858.15625 1593 1849.253906 1593 1845 C 1593 1829.273438 1592 1813.707031 1592 1798 C 1592 1734.710938 1586 1671.320313 1586 1608 L 1585 1608 C 1582.226563 1618.632813 1583.863281 1630.125 1582.828125 1641 C 1579.414063 1677 1577.976563 1713.144531 1575 1749 C 1573.914063 1763.65625 1574.347656 1778.707031 1570.761719 1793 C 1567.699219 1805.1875 1568.253906 1819.472656 1566.714844 1832 C 1566.292969 1835.417969 1566 1843.152344 1562.746094 1845.078125 C 1559 1847.128906 1558.691406 1840 1558.425781 1838 C 1557.21875 1829.289063 1556.984375 1820.640625 1555.375 1812 C 1554 1804.824219 1555.519531 1797.25 1554.828125 1790 C 1552.289063 1763.308594 1551 1735.816406 1551 1709 L 1549 1709 C 1548.996094 1740 1544.675781 1773.546875 1539 1804 L 1538 1804 C 1538 1764 1532 1724.050781 1532 1684 C 1532 1674 1531 1664.054688 1531 1654 C 1530.996094 1649.714844 1531.6875 1644.808594 1528 1642 C 1528 1675 1524.722656 1708.515625 1520.210938 1741 C 1518.617188 1752.453125 1520.984375 1764.652344 1518.414063 1776 C 1516 1786.371094 1515.808594 1797.453125 1514.300781 1808 C 1514 1810.101563 1514.835938 1817.734375 1511 1817.078125 C 1506 1816.238281 1508 1804.425781 1507.910156 1801 C 1506.746094 1784 1506.253906 1767 1505 1750 C 1502 1705.023438 1500.539063 1659.058594 1500 1614 C 1499.683594 1587 1501.875 1558.789063 1498.714844 1532 C 1494.453125 1496 1498 1457.386719 1498 1421 C 1498 1349.816406 1498 1278.253906 1496.988281 1207 C 1495 1070.261719 1497.621094 933.726563 1495.996094 797 C 1495 722.667969 1490 648.359375 1490 574 C 1485.773438 576.738281 1487 582.429688 1487 587 C 1487 598.203125 1487 610 1485.714844 621 C 1482.953125 644.40625 1484.570313 668.441406 1483.984375 692 C 1483.257813 721.195313 1481 750.613281 1481 780 C 1481 920.640625 1478.730469 1061.585938 1477 1202 C 1476.449219 1247 1477 1292.011719 1477 1337 C 1477 1357.441406 1480.734375 1382.109375 1476 1402 L 1475 1402 C 1474.773438 1374.71875 1459 1343.789063 1436 1329.054688 C 1428 1324.035156 1420 1319.800781 1411 1317.652344 C 1407.707031 1317 1401.226563 1317.359375 1399.601563 1313.8125 C 1396.945313 1308.007813 1399 1297.332031 1399 1291 L 1399 1025 C 1399 1019.039063 1397.238281 1009.722656 1399.601563 1004.1875 C 1401.734375 999.195313 1411.515625 997 1416 994.347656 C 1426.585938 988.378906 1438.273438 980.035156 1444 969 L 1445 969 C 1447 977.753906 1445.648438 987.070313 1446 996 C 1446.859375 1014.6875 1447.78125 1033.257813 1448 1052 C 1448.414063 1086.628906 1450.445313 1121.40625 1451.960938 1156 C 1452.992188 1179.519531 1451 1203.644531 1454 1227 L 1455 1227 C 1462.835938 1044.609375 1459.175781 861.507813 1457 679 C 1455.390625 543.351563 1459.304688 407.566406 1455.984375 272 C 1454.492188 211 1451 150 1451 89 L 1449 89 M 1322 295 C 1323.386719 307.613281 1322 321.253906 1322 334 C 1322 342.015625 1323.28125 351.28125 1321 359 C 1332.835938 353.578125 1343.425781 343.445313 1355 337 L 1356 338 C 1332.34375 372.601563 1301.921875 402 1278.667969 437 C 1272.96875 445.597656 1267.605469 454.390625 1261.921875 463 C 1260.222656 465.570313 1257.632813 470.433594 1253.960938 470.09375 C 1250.835938 469.804688 1247.390625 466.488281 1245 464.664063 C 1242 462.476563 1236.5 459.492188 1235.300781 456 C 1233 449.140625 1244.960938 433.0625 1248 427 C 1264 395 1281 363 1299 332 C 1305.769531 320.636719 1311.96875 303.539063 1322 295 M 1322 428 L 1322 482 C 1342.339844 467.675781 1359.535156 450.769531 1383 441 C 1379.992188 451.714844 1364.703125 461.621094 1357.425781 470 C 1334.820313 496.019531 1310.933594 520.742188 1289.859375 548.089844 C 1244.75 606.632813 1201.261719 666.015625 1164 730 C 1140.414063 771 1118.71875 814.675781 1108 861 C 1115.773438 854.335938 1120.851563 841 1125.933594 832 C 1134.6875 816.613281 1144.84375 801.734375 1154.667969 787 C 1188.796875 735.804688 1227.472656 686.527344 1271 643 C 1290.539063 623.460938 1314 600 1340 589 C 1327.285156 614.527344 1301.796875 636.472656 1283.460938 658.039063 C 1243 705.492188 1199.789063 752.378906 1167.601563 806 C 1156.3125 824.804688 1143.210938 846 1137 867 C 1156.691406 848.738281 1173.375 823.3125 1189.765625 802 C 1196.535156 793.195313 1204.824219 778.785156 1215 774 C 1218 791.777344 1227 809.027344 1230.628906 827 C 1237.214844 860 1239.59375 894.355469 1237.960938 928 C 1232.621094 1037.769531 1170 1150 1077 1209.140625 C 1047 1228.144531 1015.414063 1239.570313 982 1250 C 982.304688 1235.765625 990.328125 1219.265625 995.277344 1206 C 1005.839844 1177.710938 1017 1148.109375 1025 1119 C 1005 1141.085938 991.742188 1172.019531 977.691406 1198 C 953.835938 1242.109375 930.71875 1286.445313 905.871094 1330 C 895.859375 1347.550781 885 1364.597656 874.859375 1382 C 869.929688 1390.371094 863.421875 1404 855 1409 C 856.914063 1398 862.972656 1386.453125 867.195313 1376 C 878.464844 1348.09375 892 1321.65625 905.976563 1295 C 924 1260.410156 943.839844 1226.726563 961.640625 1192 C 975.285156 1165.382813 986 1137.488281 1000 1111 C 992.660156 1114.75 986.972656 1124.664063 981.75 1131 C 967.300781 1148.519531 955.25 1167.441406 942.28125 1186 C 908.238281 1234.71875 876.242188 1284.773438 841.425781 1333 C 826.195313 1354.09375 810.519531 1382.828125 790 1399 L 789 1398 C 799.753906 1377.558594 808.5625 1356.195313 819.863281 1336 C 833.875 1311 850.597656 1287 866.515625 1263 C 888.402344 1230.171875 917.617188 1199.167969 931.738281 1162 C 938 1145.421875 937.515625 1128.296875 939.171875 1111 C 940.671875 1095.265625 944.730469 1079.089844 949.367188 1064 C 952.664063 1053.257813 957.296875 1042.242188 963.722656 1033 C 967.414063 1027.683594 975.855469 1020.128906 977.363281 1014 C 978.925781 1007.640625 973 997.40625 971.925781 991 C 969.289063 976.132813 971.238281 958.5625 978 945 C 985.730469 930.042969 995.808594 917.378906 1010 908.101563 C 1015.632813 904.417969 1030.574219 902 1033.972656 896.6875 C 1036.578125 892.714844 1034.675781 885.597656 1035.746094 881 C 1038.492188 869.207031 1043.542969 858.160156 1050 848 C 1065.785156 823.632813 1088.460938 804.789063 1106 782 C 1129.664063 751.59375 1147.226563 717.503906 1167.574219 685 C 1191.832031 646.257813 1217.59375 608.828125 1246 573 C 1254.914063 561.757813 1263.667969 550.207031 1273 539.425781 C 1279.210938 532.496094 1287.613281 525.773438 1292.378906 518 C 1296.203125 511.554688 1276.554688 500.160156 1276.75 493 C 1276.882813 488.234375 1284 481.078125 1286.695313 477 C 1293.863281 465.746094 1301.933594 455.101563 1309.332031 444 C 1312.90625 438.640625 1316.246094 431.148438 1322 428 M 1197 477 C 1190.339844 508.175781 1168.679688 535.820313 1162 567 L 1161 567 C 1162.835938 543.757813 1172.292969 520.578125 1182.757813 500 C 1186.59375 492.449219 1190.75 482.773438 1197 477 M 1236 509 C 1231.277344 524 1220.816406 538.253906 1213.375 552 C 1195.375 585.238281 1176.175781 618 1158 651 C 1155.679688 642.539063 1166.480469 624.289063 1169.613281 616 C 1180.214844 588 1195.371094 563 1211.828125 538 C 1217.890625 529 1226 514.046875 1236 509 M 970 536.285156 C 987.339844 534.238281 1005.714844 537.394531 1022.171875 542.636719 C 1041.363281 548.746094 1058.867188 557.550781 1074 571.171875 C 1161.796875 650.191406 1118 811.828125 998 827.332031 C 975 830.289063 948.71875 829.421875 927 821 C 827.339844 781.652344 798 644.15625 880 571.738281 C 906.625 548.3125 935.972656 540.300781 970 536.285156 M 1322 555 C 1318.964844 553.277344 1317.996094 551.320313 1317 548 C 1320.476563 549.21875 1320.992188 551.601563 1322 555 M 862 636 C 867.28125 633 870.378906 625.703125 874.324219 621 C 880.242188 614 888 608.097656 897 605.328125 C 928.886719 595.398438 965.90625 624.074219 949.445313 658 C 944 669.207031 932.285156 677.628906 920 679.675781 C 916.351563 680.28125 903.28125 677.539063 902.757813 682.152344 C 901.394531 694.101563 910 710.445313 916.34375 720 C 942 759.46875 995 773.519531 1037 752 C 1097.78125 720.699219 1102.71875 634.507813 1055.386719 589.210938 C 1010.886719 546.625 944.574219 546.734375 896.285156 582 C 878.378906 595 867.90625 615.191406 862 636 M 724 717 C 701.386719 704.117188 680.679688 686.675781 661.746094 669.039063 C 656.9375 664.5625 643 653.589844 647.621094 646.015625 C 656.265625 631.785156 664.953125 642.183594 672.714844 651 C 685 665.132813 696.867188 680.003906 708.230469 695 C 713.449219 702 720.878906 709 724 717 M 576 797 C 603.601563 814 630.738281 831.449219 658 849 C 669.546875 856.363281 687 863.730469 696 874 C 659.191406 867.039063 621.277344 854.023438 595.253906 825.5625 C 589.890625 819.695313 574.351563 805.484375 576 797 M 1427 829 C 1402.320313 826 1379.515625 844.59375 1355 842 C 1368.867188 857.78125 1397.328125 858.3125 1410 877 C 1393.414063 880.554688 1377.664063 889.132813 1361 893.128906 C 1358.253906 893.785156 1345.308594 894.210938 1344.769531 897.214844 C 1344 900.730469 1353.644531 905.472656 1356 907.222656 C 1368.285156 916.335938 1381.734375 924.386719 1396 930 L 1396 931 C 1365.710938 932.300781 1339 940.4375 1312 922 C 1315.996094 943.199219 1328.824219 955.574219 1338 974 C 1277.382813 951.816406 1275.699219 862 1317 822.039063 C 1347 793 1401.585938 793 1427 829 M 698 873 L 697 874 L 698 873 M 1062 1000 C 1072.773438 1021.660156 1084.402344 1040.304688 1073.359375 1065 C 1070.632813 1071.105469 1065.28125 1074.542969 1062 1080 C 1084.183594 1079.355469 1096 1055.785156 1094.90625 1036 C 1094.671875 1031.820313 1089.894531 1018 1091.695313 1015 C 1093 1012.59375 1109.457031 1012.160156 1113 1010.742188 C 1130.476563 1003.753906 1141.480469 983.535156 1136 965 C 1131.695313 972.65625 1129 980 1122 985.734375 C 1116.980469 990 1110.273438 992.746094 1104 994.203125 C 1095.785156 996.113281 1074.496094 997.496094 1069.179688 988.773438 C 1063 979 1065.203125 959.367188 1063.410156 948 C 1062.421875 941.746094 1060 921.355469 1053.671875 918.621094 C 1049.71875 917 1043.167969 921.539063 1040 923.546875 C 1016.679688 938.300781 998.898438 964.511719 995.28125 992 C 994.535156 997.683594 991 1011.503906 995 1016.398438 C 997.953125 1020.09375 1009 1017.71875 1013 1016.820313 C 1029.453125 1013.046875 1047.554688 1009.1875 1062 1000 M 835 984 C 822.207031 983.1875 810 977.523438 797 978.105469 C 742.523438 980.5 698 1014.507813 688 1069 L 689 1069 C 693.800781 1054.269531 702.359375 1041.066406 717 1034.550781 C 741.535156 1023.628906 769.90625 1039.035156 772.820313 1066 C 774.523438 1081.746094 766 1097 752 1104 C 748.355469 1105.804688 733 1106 732.273438 1109.574219 C 729.6875 1121.320313 746.648438 1141.578125 754 1149 C 792.898438 1187.769531 858.6875 1177.351563 888.640625 1133 C 902.394531 1112.628906 903.484375 1091.523438 903 1068 C 910.175781 1073 910.695313 1086.210938 912.449219 1094 C 920.492188 1129.675781 909.242188 1165.699219 887 1194 C 843 1250.382813 751.375 1246 703 1198.488281 C 648.476563 1145.113281 646.191406 1053.3125 702 1000.039063 C 728.453125 974.785156 763.714844 967.289063 799 970.832031 C 809.347656 972 828.558594 975 835 984 M 838 985.332031 C 838.773438 985.332031 838 985.832031 837.667969 985.667969 L 838 985.332031 M 1454 1228 L 1454 1235 L 1455 1235 C 1454.980469 1232.457031 1454.984375 1230.332031 1454 1228 M 1454 1236 L 1454 1239 L 1455 1239 C 1454.75 1237.546875 1454.683594 1237.246094 1454 1236 M 807 1286 C 801.3125 1298.757813 781.632813 1320.109375 769 1326 C 774.554688 1313 794 1292.277344 807 1286 M 1428 1342 C 1411.21875 1342.484375 1397.773438 1355.535156 1384 1363.429688 C 1377.515625 1367.148438 1368 1369.667969 1363 1375 C 1386 1371.101563 1408.429688 1376.773438 1428 1390 C 1415.242188 1399 1399.324219 1407.195313 1384 1410.445313 C 1381.917969 1411 1367.179688 1412.488281 1366.78125 1413.796875 C 1365.953125 1416.53125 1375 1421.394531 1377 1422.527344 C 1388.378906 1429.511719 1402.800781 1434.550781 1413 1443 C 1390.761719 1454.671875 1366.8125 1451.773438 1343 1452 L 1366 1480 C 1351.335938 1478.792969 1337.453125 1468.339844 1329 1456.828125 C 1326.710938 1453.707031 1321.1875 1439.425781 1317.859375 1438.632813 C 1315.191406 1438 1313.484375 1449.121094 1313 1451 C 1310 1463.773438 1308.949219 1479.179688 1312 1492 C 1306.660156 1490.316406 1304.527344 1483 1302.671875 1478 C 1297.828125 1465 1294 1452 1294 1438 C 1293.996094 1390.085938 1319 1337.320313 1372 1330 C 1387 1327.746094 1418.59375 1327 1428 1342 M 1113 1427 C 1135.566406 1461.554688 1162.574219 1491.503906 1190.171875 1522 C 1200.816406 1533.769531 1219.472656 1544.226563 1227 1558 C 1183.21875 1545.480469 1145.902344 1503 1127.371094 1463 C 1123.289063 1454.210938 1111 1436.683594 1113 1427 M 1476 1456 C 1482.503906 1478 1474.96875 1506.433594 1474.453125 1529 C 1473.253906 1581.621094 1471.785156 1635.40625 1466.894531 1688 C 1464.691406 1711.695313 1459.199219 1736.097656 1459 1760 L 1457 1760 C 1457 1693.054688 1451 1626.105469 1451 1559 L 1450 1559 C 1442.476563 1590.589844 1446.941406 1625 1441 1657 L 1440 1657 C 1436.398438 1628.496094 1436.871094 1599.621094 1434.910156 1571 C 1434 1559.050781 1430.226563 1540.457031 1433.574219 1529.015625 C 1436.261719 1519.8125 1449.421875 1512.042969 1454.90625 1504 C 1465.484375 1488.488281 1468.203125 1472.1875 1476 1456 M 1111 1475 C 1118.53125 1484.722656 1131.554688 1508.421875 1131.546875 1521 C 1131.546875 1525.410156 1126.828125 1527.65625 1126 1532.003906 C 1123.648438 1548 1125.808594 1567 1127 1583 C 1128.859375 1605 1137 1626.210938 1139 1648 L 1138 1648 C 1114.871094 1610.617188 1108 1562 1108 1519 C 1108 1505.753906 1105 1487.226563 1111 1475 M 1420.683594 1533.8125 C 1425 1533.746094 1422.414063 1546.445313 1422.171875 1549 C 1420.613281 1565.359375 1420 1583.722656 1420 1600 C 1419.949219 1631.4375 1417.398438 1662.636719 1416 1694 C 1414.679688 1725.367188 1414.875 1756.730469 1412 1788 C 1410.671875 1802.441406 1408.179688 1817.574219 1408 1832 C 1407.972656 1834.578125 1409.402344 1845.554688 1405 1845.652344 C 1400.785156 1845.753906 1402 1831.601563 1401.910156 1829 C 1400.660156 1810.773438 1400 1792.285156 1400 1774 C 1400 1712.640625 1399 1651.390625 1399 1590 L 1399 1557 C 1399 1553.207031 1397.816406 1547 1399.601563 1543.511719 C 1401.324219 1540.183594 1416.90625 1534 1420.683594 1533.8125 M 844 1874 L 844 1875 L 839 1875 C 840.769531 1874.222656 842 1874.089844 844 1874 M 1644 1905 L 1644 1906 L 1650 1906 C 1647.949219 1905.125 1646.253906 1905.046875 1644 1905 "/>
</g>
</svg>
