<?xml version="1.0" encoding="UTF-8"?>
<svg xmlns="http://www.w3.org/2000/svg" xmlns:xlink="http://www.w3.org/1999/xlink" width="2000pt" height="2000pt" viewBox="0 0 2000 2000" version="1.1">
<g id="surface1">
<path style=" stroke:none;fill-rule:nonzero;fill:rgb(0%,0%,0%);fill-opacity:1;" d="M 675 405 C 669.765625 409.6875 666.660156 417.058594 662.949219 423 C 652.226563 440.167969 641.625 459.667969 639 480 C 631.195313 471.773438 633 456.246094 630 446 L 629 446 C 611.882813 475.433594 603 510.117188 603 544 L 602 544 C 597.4375 532.167969 592 521 592 508 C 586.414063 511.6875 584.957031 521 582.859375 527 C 576.660156 545 570.765625 563.546875 566.5 582 C 565.535156 586.175781 563.433594 606.519531 558.722656 607.230469 C 553.980469 608 545.414063 597.613281 542 594.753906 C 529.332031 584.15625 513.890625 568.269531 498 563 C 509.40625 578.496094 528.351563 591 541.910156 605 C 546.664063 610 554.609375 616.332031 556.621094 623 C 558.6875 630 554.53125 641.007813 553.410156 648 C 552.667969 652.625 552.972656 669.425781 549.257813 672.019531 C 546.695313 673.804688 541.414063 670.605469 539 669.574219 C 528.835938 665.222656 519 660 509 655.308594 C 506 654 497.226563 648 496 653.152344 C 494.425781 660.113281 503.316406 663.066406 508 666.054688 C 519 673.109375 537.742188 682.53125 545.398438 693.183594 C 548.449219 697.433594 546.246094 703.261719 546 708 C 545.546875 719.289063 546 730.699219 546 742 C 538.609375 739.636719 531.347656 737 524 734.515625 C 515.882813 731.785156 507.410156 728.328125 499 726.675781 C 495.300781 726 490.53125 728 493 732.605469 C 495.285156 736.53125 503 738.007813 507 739.769531 C 518.441406 745.023438 538.265625 750.566406 546.566406 760.214844 C 551 765.558594 550.191406 777.257813 551 784 C 551.652344 787.753906 555.285156 799.082031 552.800781 802.210938 C 550.691406 805 537.949219 799.65625 535 799 C 519.191406 794.738281 503 792.425781 487 789.613281 C 484.195313 789.125 472.863281 787.050781 471.347656 790.257813 C 469.96875 793.171875 480.273438 794.789063 482 795.195313 C 494.40625 798.117188 506.660156 801.453125 519 804.628906 C 528.511719 807.078125 548.542969 810.105469 555.296875 817.5 C 559.390625 822 559.242188 832.214844 560.25 838 C 562.414063 850.429688 565.332031 862.761719 568.371094 875 C 569.960938 881.386719 572.761719 889.492188 571 896 C 558 948.136719 522.238281 995 476 1022 C 462.851563 1029.519531 448.585938 1035.410156 434 1039.707031 C 429 1041.140625 417.289063 1042 414 1046 C 410.445313 1050.191406 412.9375 1060 412.996094 1065 C 413.199219 1082 413 1099.003906 413 1116 L 413 1309 C 413 1315.773438 411.574219 1324.394531 413.316406 1331 C 414.722656 1336.242188 422.710938 1339.011719 427 1341.601563 C 438.738281 1348.683594 449.628906 1357.054688 460 1366 C 490.570313 1392.371094 514 1425 533.714844 1460 C 578.78125 1540.273438 606.503906 1630.0625 635.484375 1717 C 645.203125 1746.160156 651.507813 1778 664 1806 C 653.773438 1797.234375 648.253906 1778.113281 642.691406 1766 L 598.691406 1670 C 574.890625 1618.15625 549 1567.351563 520.425781 1518 C 491.71875 1468.539063 458.859375 1420.546875 415 1383.296875 C 386.566406 1359.152344 348.585938 1340.679688 311 1338.089844 C 246.316406 1333.636719 166.199219 1373.808594 163 1446 C 162.632813 1455.289063 163.621094 1464.191406 166.695313 1473 C 168.375 1477.820313 172.902344 1484 172.808594 1489 C 172.617188 1499.5625 165.851563 1511 165 1522 C 163 1550.175781 177.980469 1577.300781 197 1597 C 210 1610.5 226.785156 1621.054688 244 1628.421875 C 249.753906 1631 265.867188 1634.160156 268.398438 1640.132813 C 270.347656 1644.738281 269 1652.066406 269 1657 C 269 1668.304688 269.542969 1679.695313 270 1691 C 271.746094 1730 272.246094 1769.09375 274.910156 1808 C 275.96875 1823.46875 272.570313 1841.015625 277 1856 L 278 1856 C 278 1812.007813 280.90625 1768 281.984375 1724 C 282.460938 1704.660156 282.589844 1685.289063 283.910156 1666 C 284.359375 1659.464844 283.285156 1652.386719 285.226563 1646.007813 C 286.265625 1642.589844 289 1643 292 1643.453125 C 297.976563 1644.5625 319.851563 1644.578125 322.398438 1650.226563 C 324.617188 1655.148438 323 1663.667969 323 1669 L 323 1918 C 323 1923 321.195313 1932.433594 324 1936.679688 C 326.203125 1940 332.613281 1939 336 1939 C 347 1939.074219 358 1939 369 1939 C 372 1939 380.390625 1940.539063 381.683594 1936.683594 C 383.695313 1930.660156 381.65625 1922.324219 382 1916 C 383.46875 1896 382 1876.105469 382 1856 C 382 1823.738281 380.851563 1791.238281 382 1759 C 383 1729.601563 385.605469 1698.8125 379 1670 L 380 1670 C 388.765625 1691 405.519531 1707.359375 411.238281 1730 C 414.457031 1742.734375 413 1759 413 1772 L 413 1847 C 413 1869.640625 412 1892.410156 412.960938 1915 C 413.171875 1920.421875 410.554688 1933.007813 414 1937.398438 C 415.890625 1939.75 420.382813 1939 423 1939 L 984 1939 C 968 1901 943.835938 1863.75 942 1821 C 953.597656 1835.101563 959.511719 1860.628906 976 1870 C 958.699219 1819 949 1771.183594 949 1717 C 964 1730.214844 966.234375 1757.492188 982 1771 C 981 1761 976.375 1751 973.894531 1741 C 966.183594 1710.347656 955.367188 1679 954 1647 C 964.390625 1660.472656 970.386719 1678.257813 979 1693 L 980 1693 C 981.363281 1682.128906 975.214844 1667.066406 973.4375 1656 C 968.332031 1624.199219 961 1590.226563 961 1558 C 972.351563 1569.230469 973 1590.089844 985 1601 C 984 1581.320313 977.230469 1561.324219 973.609375 1542 C 965.609375 1499.304688 957.257813 1456.453125 944 1415 C 958.304688 1430.085938 969.339844 1450.71875 981 1468 C 984.910156 1460.769531 974.277344 1442.503906 971.65625 1435 C 960.542969 1403.175781 945.792969 1372.820313 937.628906 1340 C 935 1329.664063 934.796875 1319.460938 933.425781 1309 C 933 1306.132813 931.835938 1300 935.316406 1298.355469 C 938.78125 1297 944.773438 1301 948 1302.140625 C 958.226563 1306 969.277344 1310.175781 980 1312 C 973 1258 948.933594 1202.335938 928.800781 1152 C 921.917969 1134.796875 911.507813 1117 907 1099 L 908 1099 C 913 1112.40625 924.398438 1124.472656 931.578125 1137 C 948.539063 1166.582031 963.824219 1196.335938 973.972656 1229 C 987 1271.199219 993.785156 1314.179688 998.167969 1358 C 1002.714844 1403.410156 1007 1449.296875 1005.984375 1495 C 1005.210938 1526.695313 1000.652344 1558.410156 1000 1590 L 1001 1590 C 1007.324219 1569.191406 1007.710938 1546.457031 1010.285156 1525 C 1017.898438 1461.546875 1018.546875 1396.574219 1012.167969 1333 C 1011.902344 1330.34375 1010.386719 1323.765625 1013.355469 1322.214844 C 1016.683594 1320.480469 1025.253906 1328 1025 1321 C 1024.902344 1311.441406 1020.300781 1301 1017.332031 1292 C 1010.933594 1272.804688 1003.566406 1254 996.425781 1235 C 981.691406 1196 967.8125 1156.402344 951.425781 1118 C 945 1103.070313 940 1087.140625 932 1073 C 942.65625 1081.222656 950 1096.75 957.21875 1108 C 979 1142.230469 995.199219 1179.675781 1008.503906 1218 C 1023.644531 1261.609375 1033.28125 1305.261719 1043.882813 1350 C 1055.199219 1397.738281 1066.585938 1446.136719 1071.835938 1495 C 1076.457031 1538.035156 1076.605469 1581 1080 1624 L 1081 1624 C 1081.597656 1551.808594 1088.386719 1477.382813 1073 1406 C 1069 1387.390625 1066.75 1368.496094 1062 1350 C 1061.320313 1346.769531 1055.980469 1334.570313 1058.789063 1332.066406 C 1060.855469 1330.222656 1067.363281 1332 1070 1332 C 1087.550781 1332.09375 1093.523438 1361 1099.425781 1375 C 1124.417969 1434.558594 1139.582031 1495.160156 1157 1557 L 1158 1557 C 1153.511719 1500.140625 1139.320313 1443 1121.332031 1389 C 1116.730469 1375.191406 1111.574219 1361.382813 1105.851563 1348 C 1104.707031 1345.324219 1099.597656 1337 1101.980469 1334.179688 C 1104 1331.769531 1111 1333 1114 1333 C 1125.355469 1333 1136.699219 1333 1148 1331.828125 C 1171.347656 1329.605469 1194.332031 1324.695313 1216 1315.574219 C 1226.421875 1311.1875 1235.667969 1304.457031 1246 1300 L 1235 1314 C 1255.28125 1310.382813 1270.929688 1292.1875 1287 1281 C 1286.34375 1287.601563 1282.976563 1293.46875 1282 1300 C 1304.996094 1289.464844 1314.214844 1263.785156 1332 1248 C 1331.992188 1259 1327.820313 1268.414063 1326 1279 C 1351 1267.394531 1365 1238.257813 1390 1225.605469 C 1410.792969 1215.027344 1433.914063 1209.738281 1456 1202.65625 C 1476.859375 1196 1497.214844 1187.40625 1517 1178.058594 C 1598 1139.726563 1674 1079.347656 1737.960938 1017.089844 C 1765.394531 990.363281 1792 962 1813.332031 930 C 1824.757813 913 1834.238281 895.398438 1824.507813 875 C 1811.515625 847.777344 1773.984375 830 1749 815.578125 C 1687.65625 780.488281 1616 759.390625 1547 746.460938 C 1525 742.367188 1503 739 1481 736.285156 C 1471 735.074219 1457.316406 736.335938 1448 732.273438 C 1440.757813 729.070313 1437.570313 713 1434.800781 706 C 1425 681.792969 1414.703125 658.179688 1402.742188 635 C 1376.492188 584.144531 1339.796875 538.023438 1298 499.089844 C 1286.652344 488.519531 1274.675781 478 1262 469.035156 C 1255 464.117188 1243.472656 458.792969 1238.644531 451.699219 C 1235.226563 446.679688 1241.335938 434.355469 1242.859375 429 C 1249 407.265625 1255.976563 385.75 1262 364 C 1277.929688 308.289063 1289.664063 251.621094 1295.171875 194 C 1297.476563 170 1301.597656 143.175781 1298.425781 119 C 1294.835938 91.664063 1299.984375 53.753906 1268 41.46875 C 1254.257813 36.1875 1237.929688 40.132813 1224 42.804688 C 1190.851563 49.15625 1158.300781 60.28125 1127 72.800781 C 995.375 125.453125 864.359375 213.550781 781.964844 330 C 759.28125 362.054688 729 374.316406 697 394.003906 C 690.601563 398 687.21875 403.679688 683.453125 410 C 682.601563 411.425781 681 416 678.925781 416 C 676.578125 416 675.628906 407 675 405 M 382 482 L 382 96 C 382 86 386.851563 66.390625 382.398438 57.316406 C 380.792969 54.050781 374 54.175781 371 54.039063 C 359.859375 53.550781 348 53.34375 337 54.089844 C 334 54.285156 325.929688 53.308594 324 55.617188 C 320.304688 60.136719 323 75.277344 323 81 L 323 441 C 323 447.761719 320.523438 460.5 323.601563 466.566406 C 325.703125 470.703125 335 469 339 469.425781 C 354.375 471.519531 367.296875 478 382 482 M 262 83 C 258.191406 171.722656 255 261.171875 255 350 C 254.949219 382.382813 254 414.660156 254 447 C 254 463.042969 256.929688 482.296875 253.65625 498 C 252.441406 503.8125 246.738281 505.382813 242 507.753906 C 233 512.203125 224.726563 517.824219 217 524.09375 C 193.726563 543 177 571.492188 177 602 C 177 615.59375 185.453125 626.4375 186.398438 639 C 187.175781 649.3125 181.1875 663.246094 180.171875 674 C 178.332031 693.382813 185.199219 717.136719 194.4375 734 C 203.816406 751.128906 215 767.226563 229 781 C 235.183594 787.117188 249.1875 794.40625 251.566406 803.003906 C 253 808.308594 251.714844 814.542969 252 820 C 253.363281 838.621094 251.816406 857.390625 253 876 C 257.546875 941.09375 259.460938 1007.761719 260 1073 L 261 1073 C 266.183594 1007.339844 268.683594 940 269 874 C 269 858.289063 269.976563 842.667969 270 827 C 270 823.78125 269.191406 813 274 813 C 284.828125 813.085938 299 821.527344 310 824 C 313.558594 824.796875 319.734375 825.125 321.972656 828.429688 C 325.945313 834.296875 323 850.019531 323 857 L 323 1282 C 323 1289 320.1875 1303.785156 324 1309.65625 C 326.21875 1313.042969 333.480469 1312.105469 337 1312.574219 C 346.199219 1313.800781 355 1315.023438 364 1317.578125 C 368.601563 1319 375 1322.296875 379.769531 1322.152344 C 385.246094 1322 382 1304.660156 382 1301 C 382 1277.628906 383 1254.40625 383 1231 C 383 1132.472656 382 1033.773438 382 935 C 382 907.078125 379.445313 877.71875 382.714844 850 C 383.523438 843.144531 380.867188 833.503906 383.601563 827.144531 C 385.945313 821.699219 401.6875 818.425781 407 815.753906 C 420.949219 808.730469 433.453125 797.671875 442.570313 785 C 488.421875 721.273438 478.703125 620.089844 435.804688 557 C 410.789063 520.207031 372.507813 495.421875 328 491.171875 C 312.253906 489.664063 295.527344 490.648438 280 494.015625 C 277.226563 494.617188 265.992188 499.453125 264.34375 495.695313 C 263.398438 493.539063 267.339844 490.757813 268 489 C 269.808594 484.777344 269 479.359375 269 475 L 269 406 C 269 327.730469 270.433594 248.042969 265 170 C 263.8125 151.324219 264 131.6875 264 113 C 263.996094 103.800781 265.605469 91.589844 262 83 M 1134 395 C 1136.785156 385.1875 1141.546875 376.503906 1145 367 C 1128 380.800781 1123 406.804688 1106 420 C 1104.28125 406.398438 1107.769531 396.121094 1110 383 C 1095 395.3125 1090.792969 418.261719 1083 435 C 1074.953125 423.285156 1078 398.691406 1078 385 C 1078 339.425781 1078.976563 294 1093 250 L 1094 250 C 1094 284.320313 1091.953125 320.21875 1100 354 C 1102.589844 348.621094 1101.816406 342.804688 1102.753906 337 C 1104.808594 324.3125 1107 311.664063 1109.25 299 C 1115 265.617188 1123.890625 228.636719 1136 197 L 1137 197 C 1137 224.394531 1135.761719 251.589844 1136.960938 279 C 1137.480469 291 1136.238281 303.410156 1139 315 L 1140 315 C 1154.464844 255 1178.230469 197.207031 1192 137 L 1193 137 C 1193 172.335938 1191 206.328125 1184 241 C 1191.707031 234.222656 1194.574219 217.648438 1197.65625 208 C 1208.617188 173.695313 1217 136.03125 1203 102 C 1218.945313 107.09375 1225.34375 124.726563 1226 140 L 1228 140 C 1228.605469 132.304688 1229.628906 124.734375 1228.574219 117 C 1227.96875 112.558594 1227.449219 108.152344 1225.660156 104 C 1211.609375 71.3125 1161.769531 96.699219 1139 106.332031 C 1063.300781 138.363281 988.988281 191.703125 938.652344 257 C 925 274.523438 913.765625 293.730469 899.996094 311 C 894.175781 318.296875 886.320313 327.460938 877 330 C 881 315.089844 887.824219 300.636719 895 287 C 889.367188 291.050781 885.722656 297.019531 880.960938 302 C 867.304688 316.289063 853.96875 331.488281 839 344.425781 C 833 349.546875 827.410156 356.132813 820 359 C 823 323.550781 855.203125 287.796875 879 264 C 943.441406 199.558594 1023.347656 151 1106 113.695313 C 1132.902344 101.566406 1162.742188 89.300781 1192 84.589844 C 1203.996094 82.65625 1217.996094 80.789063 1229 87.199219 C 1255.195313 102.457031 1250.667969 148.542969 1247 174 C 1238.457031 236.40625 1215.402344 297.035156 1177.882813 348 C 1166.398438 363.605469 1152 386.589844 1134 395 M 1030 305 C 1034.414063 316.765625 1036.511719 330 1039.734375 342 C 1046.566406 367.792969 1053 394.175781 1052 421 C 1043.269531 413.765625 1042.324219 401.769531 1038 392 C 1035.4375 402.726563 1034.945313 424.214844 1025 431 C 1025 403.292969 1029 375.753906 1029 348 C 1029 335.792969 1025.292969 316.21875 1030 305 M 977 566 C 967.515625 562.332031 959.851563 554 951 549 C 932 538.019531 910.746094 531.246094 889 529.171875 C 817.523438 522.339844 740 585.28125 740 659 L 741 659 C 753.640625 594.046875 820 553.101563 883 556 C 900 556.734375 916.914063 562 932 569.78125 C 937.75 572.808594 945 576 948 582 C 927.710938 574.175781 906.484375 571.695313 885 575.574219 C 867.707031 578.699219 851 584.550781 837 595.425781 C 825.214844 604.570313 815 615.664063 808.257813 629 C 803 639.003906 800.414063 650 798.871094 661 C 797.34375 672 797.953125 683.246094 800.628906 694 C 817 760 896.804688 781.671875 949 742.253906 C 961.4375 733 972 721 979.214844 707 C 991.183594 684 990 662 990 637 C 996.683594 642.0625 996.355469 658.242188 997 666 C 1000.210938 699.738281 988.664063 731.476563 968 758 C 920.445313 819.507813 832.441406 823.234375 777 770.828125 C 707.480469 705.035156 718.191406 586.449219 801 537.453125 C 843.65625 512.214844 901.191406 508.652344 944 535.195313 C 956.304688 542.824219 970.394531 552.742188 977 566 M 496 561 L 497 562 L 496 561 M 978 567 L 977 568 L 978 567 M 927 604.332031 C 948.3125 600.746094 956.300781 634.714844 934 638.671875 C 912 642.558594 904.957031 608.042969 927 604.332031 M 598 653 C 648 692.785156 694.457031 738.46875 728.425781 793 C 741.828125 814.519531 757.238281 841.523438 761 867 L 760 867 C 728.902344 811.144531 684 760.703125 644.199219 711 C 633.679688 698 623.292969 684.394531 611.914063 672 C 607.554688 667.253906 598.394531 659.703125 598 653 M 723 850 C 708.964844 840.113281 697 825.140625 685 813 C 659.414063 787.414063 634 761.222656 607 737.285156 C 594.289063 726.074219 581.96875 714.367188 569 703.4375 C 561.792969 697.367188 551.175781 690.570313 547 682 C 563.355469 685 582.277344 701.808594 596 711 C 629.617188 733.523438 658.347656 763 684 794 C 698.1875 811 713.507813 830 723 850 M 718 872 C 706.183594 864.609375 696 854.097656 685 845.761719 C 656.632813 824.570313 628.355469 803.164063 599 783.328125 C 588.410156 776.175781 577.609375 769.347656 567 762.25 C 562.519531 759.253906 556.644531 756.347656 555 751 C 603 765.535156 648.8125 798 684 833 C 695 844.011719 711.828125 857.425781 718 872 M 685 877 C 669.398438 871.289063 654.621094 859.355469 640 851.304688 C 618.453125 839.445313 594.761719 830.101563 574 817 C 581.710938 814.328125 597.746094 823.332031 605 826.539063 C 631.511719 838.269531 667.65625 852.449219 685 877 M 1714 865 C 1691.550781 857.34375 1671.914063 848 1648 844.429688 C 1592.5625 836.484375 1533.546875 846.347656 1481 864.695313 C 1467 869.550781 1454.609375 878 1441 883 C 1443.78125 876 1450.28125 871 1456 866.082031 C 1468.84375 855.398438 1483.523438 845.441406 1499 839 L 1499 838 C 1477.824219 839 1455.957031 846 1435 849 C 1447.21875 836.648438 1472.566406 832.6875 1489 829.398438 C 1542.246094 818.75 1604.261719 821 1656 838 C 1670.765625 843 1685.179688 848.046875 1699 855.222656 C 1704 858 1710.800781 860.015625 1714 865 M 844 877.378906 C 855.566406 875.007813 867.523438 881.308594 877 887.195313 C 900.761719 902 919.535156 925.804688 926.621094 953 C 929.984375 966 936.234375 995 918 1000 C 898.730469 1005.265625 895.378906 982.59375 880 979.785156 C 873.8125 978.65625 865.765625 987 860 989.121094 C 848.972656 993.183594 836.589844 993 825 993 C 822 993 809.695313 995.179688 808.417969 992.394531 C 806.890625 989.0625 812.710938 979.378906 813.945313 976 C 817.597656 966.007813 819.625 954.453125 826.519531 946.039063 C 831.4375 940.035156 841.546875 936.542969 844.242188 929 C 848 918.359375 832.230469 906 831.175781 895 C 830.359375 886.535156 835.5625 879.109375 844 877.378906 M 1200 933 C 1165.949219 921.410156 1129.777344 921.546875 1098 940.453125 C 1048.308594 970.015625 1030.929688 1042.582031 1072 1087 C 1114.929688 1133.230469 1187 1122 1221 1071 C 1237.546875 1046.46875 1240.339844 1018.34375 1235 990 L 1236 990 C 1240.929688 999.753906 1242.84375 1010.296875 1244.425781 1021 C 1254.664063 1090.15625 1208.863281 1148.527344 1146 1172 L 1146 1173 C 1162.660156 1169.023438 1179.238281 1166 1195 1158.691406 C 1237.355469 1139.296875 1268.667969 1100.300781 1271.910156 1053 C 1272.941406 1038 1272.449219 1021.726563 1269 1007 C 1266.703125 996.382813 1261.308594 985.671875 1260 975 C 1271.316406 985.371094 1277.667969 1005.335938 1280.601563 1020 C 1289.519531 1064.59375 1275.621094 1112.34375 1241 1142.714844 C 1177.203125 1198.675781 1075 1188 1024.746094 1119 C 987.902344 1068.613281 984.566406 999.410156 1030 953.015625 C 1040.699219 942.140625 1053.425781 933.40625 1067 926.601563 C 1097.636719 911.246094 1135.808594 905.808594 1169 915.589844 C 1178.871094 918.5 1195.191406 923.160156 1200 933 M 673 939 C 686.769531 955.617188 694.222656 970.625 715 980.515625 C 736.714844 991 771.453125 993.414063 785.453125 1015 C 796.773438 1032.464844 794.734375 1055.1875 796 1075 C 797.992188 1102.78125 802.480469 1124.007813 820 1146 C 807.292969 1147.496094 794.484375 1132.828125 788.871094 1123 C 780.367188 1108.101563 778.242188 1091 777 1074 C 776 1058.652344 776.664063 1043 766.238281 1030.171875 C 746.816406 1006.539063 712.738281 1004.8125 690 985.5625 C 679.46875 976.640625 667 953.238281 673 939 M 1179 958.363281 C 1201.214844 955.59375 1206.640625 989.59375 1184 992.695313 C 1161.886719 995.726563 1156 961.230469 1179 958.363281 M 1685 984 C 1681.421875 996.058594 1668.476563 1007 1660 1016 C 1635.964844 1042 1609.648438 1064 1580 1083.34375 C 1568.601563 1090.785156 1556.972656 1098.203125 1545 1104.691406 C 1542.421875 1106.089844 1533.523438 1108.558594 1532.886719 1111.734375 C 1532.414063 1114.074219 1547.40625 1109.777344 1549 1109.375 C 1564.941406 1105.332031 1580.328125 1098.601563 1595 1091.246094 C 1607.550781 1085 1618.675781 1076.5625 1631 1070 C 1624.777344 1083.0625 1604.511719 1092.28125 1593 1100.425781 C 1555.914063 1126.648438 1514.90625 1150 1472 1165.140625 C 1457.507813 1170.273438 1440.457031 1175.617188 1425 1173.078125 C 1422.4375 1172.660156 1411.207031 1172.015625 1411.207031 1168.15625 C 1411.207031 1165.34375 1423.71875 1163.65625 1426 1163 C 1443.582031 1158 1458.304688 1150 1475 1143 L 1475 1142 C 1464.3125 1142 1454 1146.796875 1443 1146.546875 C 1441.355469 1146.507813 1433.207031 1146.59375 1433.207031 1144.101563 C 1433.207031 1141.507813 1443.890625 1137.644531 1446 1136.398438 C 1457.730469 1129.453125 1470 1121.289063 1478 1110 C 1469.371094 1113.832031 1452.726563 1120 1444 1114 C 1460.167969 1106.429688 1476 1098.175781 1493 1092.515625 C 1502 1089.511719 1516.644531 1087.277344 1523 1080 C 1503.902344 1080.820313 1486 1080.820313 1467 1080 L 1467 1079 C 1487.609375 1073.664063 1508.199219 1068.394531 1528 1060.394531 C 1546.511719 1053 1564.363281 1043 1583 1036 C 1578.234375 1046.214844 1565.261719 1056.570313 1555 1061 C 1564.855469 1064.808594 1580.910156 1054.75 1590 1051 C 1614.738281 1040.234375 1637 1024.820313 1658 1008 C 1666.710938 1001 1675 988.675781 1685 984 M 1633 1069 L 1632 1070 L 1633 1069 M 878 1111 C 904.320313 1148 920 1199 920 1244 C 920 1255.246094 922.191406 1269.199219 919 1280 L 918 1280 C 912.574219 1238 902.285156 1197 891.621094 1156 C 889 1146 885.753906 1135.6875 882 1126 C 880.390625 1121.523438 876.671875 1115.785156 878 1111 M 277 1140 C 277 1183.015625 275 1226 275 1269 C 275 1279.714844 274.8125 1290.34375 275.828125 1301 C 276.230469 1305.179688 275.253906 1309.351563 279 1312 C 279 1269.035156 280.921875 1226 279 1183 C 278.5625 1172.113281 283.628906 1148.746094 277 1140 M 1007 1164 C 1030.835938 1191.550781 1048 1228.085938 1063.179688 1261 C 1069.300781 1274.398438 1077.828125 1289.296875 1080 1304 L 1079 1304 C 1063.636719 1271.132813 1044.992188 1239.066406 1027.917969 1207 C 1022.996094 1197.765625 1018.671875 1188.207031 1013.691406 1179 C 1011.199219 1174.394531 1007.300781 1169.328125 1007 1164 "/>
</g>
</svg>
