<?xml version="1.0" encoding="UTF-8"?>
<svg xmlns="http://www.w3.org/2000/svg" xmlns:xlink="http://www.w3.org/1999/xlink" width="2000pt" height="2000pt" viewBox="0 0 2000 2000" version="1.1">
<g id="surface1">
<path style=" stroke:none;fill-rule:nonzero;fill:rgb(0%,0%,0%);fill-opacity:1;" d="M 287 1800 C 263.84375 1797.542969 237.855469 1805.726563 215 1809 C 211.75 1809.285156 192.230469 1812.027344 193.753906 1816.625 C 195 1820.433594 207.492188 1822.066406 211 1822.679688 C 229 1825.832031 247.605469 1829.144531 266 1830.039063 C 290.949219 1831.253906 316 1835.425781 341 1837.828125 C 390.191406 1842.589844 439.800781 1844.71875 489 1848.089844 C 617.464844 1857 745.230469 1856.652344 874 1860.015625 C 968 1862.472656 1063 1861.15625 1157 1860.003906 C 1254.289063 1858.808594 1351.722656 1858.75 1449 1852.089844 C 1504.988281 1848.257813 1561 1845.742188 1617 1842 C 1651.394531 1839.554688 1685.617188 1834.609375 1720 1832.089844 C 1742.761719 1830.421875 1765.539063 1827.144531 1788 1823.285156 C 1792.449219 1822.519531 1807.636719 1821.15625 1809.652344 1816.457031 C 1810.679688 1814.074219 1806.421875 1813.179688 1804.996094 1812.785156 C 1798.847656 1811.078125 1792.328125 1809.617188 1786 1809 C 1758.359375 1806 1730.792969 1801.726563 1703 1799 C 1746.980469 1742 1751.8125 1663.335938 1718.296875 1600 C 1704 1573.042969 1682.445313 1547.664063 1654 1535.039063 C 1640 1529 1622.367188 1524.699219 1607 1526.171875 C 1599.285156 1527 1586.234375 1533 1579 1531.226563 C 1571.75 1529.460938 1563.289063 1516.5 1557 1511.746094 C 1542.765625 1501 1527.644531 1495.460938 1510 1493.132813 C 1498.453125 1491.609375 1486 1493.339844 1475 1496.558594 C 1470.980469 1497.71875 1462.320313 1503 1458.34375 1501.558594 C 1453.589844 1500 1448.988281 1484.46875 1446.753906 1480 C 1439 1464.519531 1430.292969 1449.554688 1420.949219 1435 C 1417 1429 1408.972656 1421.121094 1407.453125 1414.109375 C 1406.496094 1409.683594 1416.894531 1406.777344 1420 1405.425781 C 1434.992188 1399 1449.542969 1392 1464 1384.296875 C 1498.382813 1366.089844 1529.539063 1340 1551.964844 1308 C 1561 1295 1565.269531 1277.378906 1574.699219 1265.132813 C 1582.378906 1255.160156 1598.589844 1249.066406 1608 1240 C 1610.714844 1237.339844 1614.664063 1230.8125 1619 1232 C 1628.691406 1234.140625 1639.980469 1245.28125 1648 1251 C 1674.417969 1270 1700.539063 1292.023438 1722 1316.425781 C 1727.480469 1322.65625 1747.226563 1348.5625 1757.195313 1337.683594 C 1768.492188 1325.351563 1752.648438 1299.476563 1745.667969 1289 C 1728.710938 1263.558594 1705.414063 1241.007813 1681 1222.746094 C 1671.589844 1215.707031 1661.773438 1209.183594 1652 1202.667969 C 1648.570313 1200.378906 1641.773438 1197.503906 1639.90625 1193.675781 C 1638.605469 1191.007813 1647.21875 1174 1649.816406 1171.707031 C 1652.589844 1169.390625 1659 1172.550781 1662 1173.507813 C 1673.773438 1177.335938 1685.5 1181.414063 1697 1186 C 1724.742188 1197.0625 1752.804688 1207.613281 1780 1220 C 1796.679688 1227.597656 1817.660156 1240.160156 1836 1242 C 1807.574219 1199.027344 1756.667969 1166.113281 1709 1148.320313 C 1697.410156 1144 1685.773438 1140.117188 1674 1136.328125 C 1670.589844 1135.230469 1662.996094 1134.132813 1661.199219 1130.6875 C 1659.496094 1127.429688 1661.539063 1116.695313 1662.34375 1113.035156 C 1664 1104.808594 1686.777344 1109.546875 1693 1110.167969 C 1717.5 1112.617188 1741.585938 1118.792969 1766 1121.074219 C 1774.390625 1122 1785.527344 1126 1791 1117 C 1799.410156 1103.792969 1773.496094 1094.199219 1765 1090.800781 C 1741.808594 1081.523438 1717.660156 1077.316406 1693 1074.285156 C 1683.492188 1073.117188 1672.34375 1074.390625 1663 1071.683594 C 1658.628906 1070.351563 1658 1062 1659.179688 1058.148438 C 1660.914063 1052 1676.976563 1053.308594 1682 1052.828125 C 1705.679688 1050.574219 1731.21875 1049 1755 1051.171875 C 1762 1052 1782.898438 1054.378906 1781.714844 1042 C 1780.789063 1032.335938 1765.570313 1027.804688 1758 1025.054688 C 1731.453125 1015.40625 1702.570313 1016.5 1675 1018.035156 C 1668.457031 1018.398438 1651.863281 1024.347656 1646.472656 1020.308594 C 1642 1017 1639.359375 1008.582031 1636 1004 C 1629 994.128906 1613.683594 984.050781 1609.601563 973 C 1607.40625 967.042969 1608.496094 959.257813 1607.824219 953 C 1606.496094 940.59375 1602.675781 927.636719 1596 917 C 1586.25 901.132813 1567.21875 893.375 1558 878 C 1537 842.402344 1528.199219 799 1511.917969 761 C 1506 747.542969 1500.28125 734.109375 1493.730469 721 C 1491 715.59375 1485.363281 708.390625 1485.242188 702.171875 C 1485.167969 698.398438 1489.601563 694.707031 1491.804688 692 C 1498.6875 683.546875 1506.789063 676 1515 668.71875 C 1545.949219 641.789063 1587.949219 612 1631 611 L 1631 610 C 1591.925781 598.445313 1542.753906 618.511719 1513 643.285156 C 1498.953125 655 1487.667969 671.480469 1473 682 C 1505.839844 624.296875 1556.1875 575.109375 1617 547.695313 C 1635.992188 539.132813 1658.847656 529.175781 1680 529 L 1680 527 C 1661.996094 527 1643.878906 525.816406 1626 529.371094 C 1579.925781 538.527344 1537.203125 564.449219 1506.253906 599.425781 C 1496 611 1484.1875 624 1478 638 L 1477 638 C 1481 620.632813 1498.171875 602.144531 1508.628906 588 C 1539.761719 546 1575.511719 507.363281 1618 476.488281 C 1631.789063 466.46875 1647 458.542969 1662 450.425781 C 1667.476563 447.445313 1676.726563 445.40625 1680 440 C 1597.175781 450.46875 1531.621094 506.800781 1487.691406 575 C 1477.890625 590.214844 1468.527344 606.484375 1461 623 C 1456.910156 632.300781 1454.285156 645.730469 1447 653 C 1457.890625 613.101563 1470.378906 573.578125 1487.886719 536 C 1495.847656 519 1509.414063 503.402344 1516 486 C 1506.976563 492.355469 1500.414063 501.46875 1493.601563 510 C 1475 533.261719 1460 561 1450.34375 589 C 1445.890625 601.820313 1441.179688 614.765625 1438 628 C 1437.414063 631 1436.660156 640.382813 1433.65625 641.808594 C 1431.71875 642.726563 1429.195313 639.800781 1427.960938 638.703125 C 1422.914063 634.238281 1418 629.53125 1413 625.128906 C 1405.339844 618.535156 1390.980469 610.535156 1386 601.816406 C 1383.804688 598 1385 591.347656 1385 587 C 1385 575.027344 1384.554688 563 1385 551 C 1389.207031 448.378906 1381 346.777344 1371.171875 245 C 1368.871094 221.242188 1367 196.441406 1362 173 C 1361.3125 169.269531 1360.960938 151.789063 1356.683594 151.074219 C 1350.179688 150 1337.496094 160 1332 163 C 1308.75 176.285156 1285.964844 190.6875 1265 207.398438 C 1188.976563 268.007813 1129.917969 340.457031 1076.332031 421 C 1067 434.832031 1058.847656 449.546875 1050.652344 464 C 1047.351563 469.824219 1044.382813 479.28125 1038.8125 483.257813 C 1033.222656 487.246094 1023.507813 485.726563 1017 487.117188 C 1011.71875 488.242188 1003.296875 491.023438 998 489.816406 C 990.976563 488.214844 985.484375 476.46875 981.574219 471 C 967.40625 451.183594 954.683594 430.304688 942.859375 409 C 928.886719 383.820313 917.285156 357.59375 906.339844 331 C 890.351563 292.164063 879.25 249.535156 874 208 L 873 208 C 871.507813 288.5 891 365.34375 932.800781 435 C 942 450.5625 950.785156 466.398438 961.628906 481 C 962.519531 482.199219 972.304688 494.792969 968.578125 494.792969 C 964.96875 494.792969 961.394531 488.503906 959.476563 486.039063 C 952.191406 476.679688 944.355469 467.628906 937.429688 458 C 917.375 430.128906 897.300781 402.21875 879.191406 373 C 874 364.640625 868.460938 356.460938 863.453125 348 C 860.84375 343.589844 859.664063 338.578125 855 336 C 866.855469 380.703125 887.378906 423.570313 913 462 C 919.777344 472.167969 926.601563 482.269531 934 492 C 935.5625 494.054688 941.171875 499.5625 939.824219 502.453125 C 938 506.335938 925.667969 490.785156 924 489.089844 C 909.519531 472.804688 896.820313 454.804688 884 437 C 852.324219 392.316406 826 343.371094 804.574219 293 C 794 268.484375 782.394531 242.203125 777 216 C 774.925781 221.082031 777 228.632813 777.871094 234 C 779.871094 248.398438 781.292969 262.804688 784.5 277 C 798.351563 338.304688 825 396.660156 861.425781 448 C 872.757813 464.019531 884.191406 480.242188 897 495 C 900.375 498.664063 911 507.621094 910.960938 512.773438 C 910.875 515.574219 906 517 904 518 C 896.265625 521.691406 887.4375 527.40625 879 529.234375 C 869.832031 531.226563 856.882813 508.214844 851.75 502 C 826.90625 472 802.746094 441.179688 776.832031 412 C 690.292969 314.558594 595.402344 225 485 155 C 459.5 138.796875 432.910156 125.484375 406 112 C 399.664063 108.695313 382.335938 97.527344 375.273438 99.734375 C 371 101.054688 369.394531 110.335938 368.167969 114 C 363 129 358 144 353.710938 159 C 335.28125 223.121094 323.613281 289 315.714844 355 C 300.203125 484.613281 302.792969 619.222656 323.675781 748 C 331.578125 796.726563 338.425781 845.589844 353.191406 893 C 359.761719 914.101563 367 935 376.308594 955 C 381 965.460938 389 976 392.210938 987 C 396.179688 1000.796875 395.851563 1016.792969 398.320313 1031 C 403.332031 1060 411.703125 1089 422.859375 1116 C 433 1140.644531 444 1165 457.421875 1188 C 461.691406 1195.449219 475 1209 475.335938 1217.472656 C 475.484375 1222.410156 458.824219 1229.304688 455 1231.601563 C 432.65625 1245.007813 410.59375 1258.554688 390 1274.574219 C 323.640625 1326.199219 267.183594 1392.054688 236 1471 C 204.460938 1551 196.855469 1642.390625 233.308594 1722 C 241.402344 1739.675781 251.472656 1756.664063 263.425781 1772 C 270.902344 1781.59375 280.289063 1790 287 1800 M 643 382 C 612.96875 373.332031 587.519531 349.726563 558 339 C 562.414063 350.648438 572 361.511719 579.921875 371 C 593.304688 387.09375 607.222656 403.171875 622 418 C 629.839844 426 640 433.585938 646 443 C 620.816406 430.640625 596.988281 415.308594 572 402.488281 C 562 397.414063 551.976563 390.351563 541 388 C 559.484375 423.09375 592.191406 454.191406 620 482 C 631.53125 493.53125 647.324219 505.175781 656 519 C 622.5625 506.34375 590.921875 484 559 467.625 C 550.847656 463.46875 542.582031 459.429688 534 456.226563 C 531.980469 455.472656 526.796875 452.757813 524.738281 454.238281 C 522 456.097656 527.390625 461.460938 528.527344 462.828125 C 535 470.816406 542.496094 479 550.285156 485.746094 C 583.796875 515.171875 614.386719 548.132813 651 574 L 651 575 C 638.371094 571.363281 625.785156 563.136719 614 557.246094 C 593.355469 547 572.222656 537.117188 551 528.050781 C 542.847656 524.566406 534.597656 521.195313 526 519 C 524.1875 518.507813 519.5625 516.40625 518 518.359375 C 516.242188 520.65625 522.578125 525.539063 523.90625 526.816406 C 531.355469 534 539 540.613281 547 547.273438 C 570.828125 567.421875 595.558594 586.347656 620 605.714844 C 630 613.664063 643.9375 620.09375 652 630 C 641 628 630 620 620 615.234375 C 597.855469 605 575.679688 595.070313 553 586 C 544.964844 582.785156 536.597656 579.199219 528 578 C 526.859375 577.773438 521 576 520.632813 577.539063 C 519.9375 580 526.53125 584.3125 528 585.574219 C 536 592.46875 544.488281 599 553 605.117188 C 578 623.582031 603.195313 642 628 660.769531 C 637.824219 668.210938 651.503906 675.226563 659 685 C 638.660156 680.347656 617 665.386719 598 656.554688 C 572.722656 645 544.664063 637.445313 520 625 C 526 638 544.574219 648.652344 555.828125 657 C 583.234375 677.328125 610.867188 697.425781 638 718.117188 C 647 725.027344 663 732.28125 669 742 C 643.96875 733.585938 619.910156 717.414063 596 706.027344 C 572.558594 695 546.824219 687.15625 524 675 C 529.929688 687.167969 548.394531 697 559 705 C 590 728.621094 622.585938 750.394531 654 773.628906 C 665 781.824219 684.441406 791.722656 691 804 C 656.699219 801.269531 619.398438 786.824219 588 773.425781 C 536 751.246094 488.382813 722.613281 450.324219 680.089844 C 377.457031 598.667969 363.734375 473.335938 373.828125 369 C 378.480469 321 383.746094 273.023438 395.257813 226 C 397.957031 215 400.652344 204 403.730469 193 C 404.597656 190 405.464844 183 408.652344 181.242188 C 412.546875 179.285156 422.605469 186.382813 426 188.285156 C 442 197.269531 457 207.597656 472 218.289063 C 522.210938 254.25 567.34375 298.25 608 344.574219 C 619 357.234375 633.304688 368.238281 643 382 M 1332 564 C 1317.558594 558.535156 1304.597656 547.484375 1291 540.082031 C 1264.96875 526 1237.304688 514 1209 505.175781 C 1198.429688 502 1187.703125 499.371094 1177 496.578125 C 1173.910156 495.773438 1167.359375 495.503906 1166.355469 491.699219 C 1165 487 1168 478.699219 1169.257813 474 C 1172.40625 460.832031 1175.777344 448 1179.808594 435 C 1197.640625 377.804688 1223.382813 321.34375 1263.285156 276 C 1275.910156 261.65625 1289.738281 249.089844 1305 237.589844 C 1307.902344 235.402344 1317.605469 227 1321.402344 228.445313 C 1324.960938 230 1324.789063 243.617188 1325.269531 247 C 1328 267 1329.171875 287.003906 1331.167969 307 C 1336.546875 360.769531 1339.328125 417 1336.960938 471 C 1335.609375 502 1332 533.121094 1332 564 M 1477 638 L 1476 641 L 1475 641 C 1475.683594 639.421875 1475.804688 639.222656 1477 638 M 1303 901 C 1295 895.789063 1289 878.398438 1284.28125 870 C 1270.84375 846.367188 1256.527344 823.050781 1242 800 C 1194.625 724.050781 1118.597656 652.636719 1022 678.117188 C 1006.441406 682.21875 990.945313 688.011719 977 696.148438 C 931 723 900.316406 768.457031 862 804.089844 C 846.644531 818.367188 824.652344 839.636719 803 843 C 805.589844 833.757813 815.703125 824 821.28125 816 C 833 799.039063 843 781 855 764 C 876.804688 733.574219 900 704.410156 931 682.722656 C 1000.792969 633.636719 1099.421875 622.777344 1171 673.78125 C 1211.542969 702.671875 1241 745.730469 1264.375 789 C 1278.921875 816 1291.207031 846 1297.660156 876 C 1299.4375 884.257813 1302.613281 892.53125 1303 901 M 1475 642 L 1474 645 L 1473 645 L 1473 642 L 1475 642 M 1436 681 C 1423 678.003906 1412.671875 673 1399 676.351563 C 1362.246094 685.789063 1371.230469 734.816406 1382.792969 760 C 1408.25 815.457031 1455.847656 845.203125 1507 874.285156 C 1522.199219 883 1537.355469 891.785156 1552 901.34375 C 1557.253906 904.773438 1565.910156 908.8125 1568 915 C 1539 911.335938 1509 909.269531 1482 922.605469 C 1468.601563 929.191406 1458.625 939.703125 1446 947 C 1448.839844 913 1413.625 880.464844 1395.425781 855 C 1363.71875 810.632813 1334.890625 757.484375 1331 702 C 1330.542969 694.023438 1330.828125 684.746094 1332.863281 677 C 1334.441406 671.007813 1336.320313 665.242188 1339.699219 660 C 1363.207031 623.507813 1417.472656 654.699219 1436 681 M 1445 724.324219 C 1469.621094 720.332031 1483.695313 760.804688 1457 765.820313 C 1429 771.066406 1414.207031 729.320313 1445 724.324219 M 1136 736.375 C 1170.496094 729.722656 1186 785.398438 1150 792.621094 C 1112 800.21875 1096.421875 744.011719 1136 736.375 M 1200 805 C 1209 816 1213 832.335938 1215.324219 846 C 1220.945313 879.667969 1212.996094 913.5625 1187.960938 938 C 1179.597656 946.046875 1169.3125 952.828125 1159 958.214844 C 1153.238281 961.226563 1145.867188 962.703125 1141 967 C 1175 965.511719 1213.964844 950.742188 1240 928.703125 C 1251 919.382813 1258 906 1269 897 C 1266.929688 910.824219 1258.75 925.46875 1251.167969 937 C 1219.617188 985 1165.5625 1005 1110 1005 C 1033.800781 1005 946.265625 977.175781 904.449219 908 C 890.175781 884.386719 886 861.464844 881 835 C 886.257813 838.445313 888.566406 846.777344 892 852 C 899.636719 863.597656 908 874.558594 917.285156 885 C 944.207031 915.746094 977.691406 939.640625 1016 954 C 1027.753906 958.40625 1040.421875 963.746094 1053 965 L 1053 963 C 1038.9375 961.589844 1023.34375 952.828125 1011 946.296875 C 960.742188 919.703125 921.644531 872.347656 936 813 C 939.644531 798.59375 946.242188 778.71875 958 769 L 959 779 C 961 774.511719 960.957031 769.597656 962.878906 765 C 968 752.488281 979.660156 741.59375 993 738.339844 C 1025.757813 730.351563 1057.78125 763 1040.804688 795 C 1032.171875 811.273438 1016.410156 816.808594 999 816 C 995 815.773438 981 808.453125 979 810.621094 C 976.488281 813.304688 978.515625 819.828125 978.832031 823 C 980 835.789063 982.761719 847.304688 988.320313 859 C 1021 928 1122.714844 960.554688 1176.472656 895.828125 C 1193.90625 875 1198.371094 851.289063 1200.828125 825 C 1201.457031 818.285156 1198.578125 811.554688 1200 805 M 1488 788 C 1503.617188 807 1510 832.113281 1510 856 C 1503.332031 853.316406 1484.320313 845.71875 1481.621094 838.785156 C 1479.730469 834 1485.296875 827.457031 1486.792969 823 C 1489 816.363281 1490.507813 809.019531 1489.828125 802 C 1489.398438 797.5 1487 792.367188 1488 788 M 1527 820 C 1527.898438 831.375 1529.964844 842.652344 1531 854 C 1531.449219 856.695313 1533.421875 864.046875 1530.347656 865.824219 C 1526.785156 868 1522.175781 862.03125 1522 859 C 1522 851.546875 1525 843.480469 1525.828125 836 C 1526.328125 830.789063 1524.957031 825 1527 820 M 1412 966 C 1413.558594 974.167969 1414 981.664063 1418.476563 989 C 1433.40625 1013.554688 1467.613281 1010.519531 1491 1021 C 1506.890625 1028 1517.960938 1040.371094 1526.796875 1055 C 1531.222656 1062.328125 1541.863281 1077.152344 1540.667969 1086 C 1538.996094 1098.359375 1521.390625 1114.566406 1513 1123 C 1484.5625 1151.574219 1453.363281 1175.269531 1418 1194.695313 C 1405.761719 1201.414063 1393.367188 1207.761719 1381 1214.222656 C 1379.59375 1215 1369 1219.203125 1369.632813 1220.710938 C 1370.394531 1223.027344 1378 1222 1380 1222 C 1391.382813 1222 1402.671875 1221.058594 1414 1221 C 1445.421875 1221 1481.644531 1207.453125 1508 1191 C 1516.445313 1185.660156 1524.855469 1180 1531.996094 1173 C 1533.355469 1171.65625 1537.210938 1166.261719 1539.566406 1167.347656 C 1541.496094 1168.234375 1541.503906 1173.226563 1541.882813 1175 C 1543.601563 1183 1544.960938 1192.816406 1544.742188 1201 C 1544.367188 1215.0625 1542.597656 1229.585938 1538.253906 1243 C 1509.898438 1330.585938 1398.304688 1361.011719 1318 1375.464844 C 1300 1378.699219 1282.230469 1381.621094 1264 1383.09375 C 1234.316406 1385.492188 1204.820313 1385 1175 1385 L 1154 1385 C 1152 1385 1147.453125 1385.773438 1146.171875 1384 C 1143.949219 1381 1153 1372.175781 1154.921875 1370 C 1166 1356.691406 1177.996094 1344.148438 1189.269531 1331 C 1226.710938 1287.339844 1267.589844 1246 1307.996094 1205 C 1318 1194.75 1327.621094 1184 1337.480469 1173.324219 C 1340.636719 1170 1346.625 1164.390625 1345.714844 1159.191406 C 1345 1156 1341 1157.515625 1339 1158.175781 C 1331.890625 1160.460938 1324.804688 1163.476563 1318 1166.542969 C 1288.878906 1179.671875 1260.636719 1195.007813 1234 1212.667969 C 1163.917969 1259.136719 1101 1315 1049.882813 1382 C 1031.1875 1406.503906 1013.214844 1431.636719 997.203125 1458 C 989.238281 1471.109375 981.175781 1491.597656 969 1501 C 969.234375 1491 973.847656 1480.453125 977 1471 C 983.953125 1450.140625 991.910156 1429.679688 1001.753906 1410 C 1045.703125 1322.113281 1114.523438 1252.628906 1194 1196.425781 C 1223.386719 1175.644531 1255.183594 1158.242188 1287 1141.550781 C 1299.714844 1135 1317.984375 1131.28125 1310.398438 1113.074219 C 1307.292969 1105.625 1288.675781 1113 1283 1114.257813 C 1254.523438 1121.136719 1226.203125 1130.519531 1199 1141.398438 C 1083.371094 1187.652344 987 1261.699219 909.449219 1359 C 889.167969 1384.441406 870.671875 1411 852.667969 1438 C 848.660156 1444.019531 844.757813 1450.132813 840.5 1456 C 839 1458 836.3125 1461.777344 833.652344 1459.199219 C 831.433594 1457.046875 833.90625 1453.226563 834.734375 1451 C 837.6875 1443.09375 839.558594 1434.800781 842.871094 1427 C 856.714844 1394.40625 873.519531 1363.335938 893.328125 1334 C 954.875 1243 1047.789063 1171.097656 1149 1129.011719 C 1185.632813 1113.777344 1222.570313 1100.5625 1260 1087.496094 C 1268.980469 1084.359375 1278 1081.40625 1287 1078.113281 C 1290 1077 1295.179688 1075.515625 1296.339844 1072 C 1297.839844 1067.195313 1292.617188 1065.265625 1289 1065.042969 C 1278.53125 1064.402344 1267.46875 1066.382813 1257 1067 C 1213.984375 1069.359375 1172.476563 1078.46875 1130 1084 C 1067 1092.070313 1004.277344 1113.640625 945 1135.773438 C 888.953125 1156.695313 834 1180 781 1207.628906 C 754.425781 1221.460938 727 1236.023438 702 1252.34375 C 686.980469 1262.101563 669 1278 652 1283 C 660.878906 1270.398438 674.226563 1260 685.675781 1249.761719 C 711.992188 1226.253906 740 1205.527344 770 1187 C 880.484375 1118.359375 1007.277344 1076.609375 1135 1055.324219 C 1175.25 1048.617188 1215.460938 1044.070313 1256 1039.285156 C 1269 1037.734375 1285.878906 1041.484375 1298.425781 1037.71875 C 1307.621094 1035 1316.511719 1027.292969 1325 1022.78125 C 1355.351563 1006.648438 1384.640625 986.734375 1412 966 M 1588 1200 C 1591.472656 1176.390625 1589.171875 1152.699219 1581 1130 C 1578 1121.554688 1574.726563 1113.027344 1570.753906 1105 C 1568.765625 1101 1565 1095.65625 1565.402344 1091 C 1566 1083 1573.613281 1072.558594 1576.851563 1065 C 1585.902344 1044 1598.988281 1017.230469 1600 994 C 1612.179688 1001 1618.492188 1027.253906 1621.730469 1040 C 1632.269531 1081.460938 1628.902344 1125 1611.304688 1164 C 1606.328125 1175.03125 1599 1194 1588 1200 M 1358 1052.730469 C 1343 1052.566406 1342 1074.597656 1357 1074.410156 C 1371.847656 1074.222656 1373.351563 1053 1358 1052.730469 M 1361 1096.742188 C 1348.59375 1101.503906 1355.394531 1120.179688 1367.984375 1115 C 1380 1110.023438 1373 1092.089844 1361 1096.742188 M 1387 1137.65625 C 1376.320313 1141.121094 1382.445313 1157 1392.996094 1153.089844 C 1403.863281 1149.183594 1397.589844 1134.257813 1387 1137.65625 M 983 1178 L 983 1179 C 924.953125 1212.648438 867.738281 1248 816.285156 1291.269531 C 797.960938 1306.730469 778.984375 1322.074219 762 1339 C 752.578125 1348.390625 742 1363.355469 730 1369 C 743.722656 1345.148438 765.746094 1323.386719 784.996094 1304 C 838.882813 1249.730469 909.507813 1201.589844 983 1178 M 1559 1789 C 1567 1734.0625 1557.214844 1669.390625 1517 1627 C 1523.695313 1651.542969 1530.875 1675.214844 1531 1701 C 1531 1717.023438 1530.621094 1733.347656 1526.871094 1749 C 1520.546875 1775.386719 1501 1812.765625 1468 1796.390625 C 1463.574219 1794.199219 1459.546875 1791.410156 1456 1788 C 1450.734375 1782.804688 1446.808594 1776.457031 1443.308594 1770 C 1416.472656 1720.5 1419.921875 1645.148438 1440.398438 1594 C 1450.832031 1568 1472.589844 1540.03125 1504 1543.171875 C 1529.855469 1545.757813 1548 1567.25 1557.398438 1590 C 1574.222656 1631.207031 1578 1679 1575 1723 C 1573.964844 1739.308594 1571.53125 1755.199219 1567.28125 1771 C 1565.707031 1777 1564.324219 1785.484375 1559 1789 M 1160 1690 L 1159 1690 C 1145.445313 1664.175781 1123.433594 1644 1100 1627 C 1104.222656 1636.539063 1110.417969 1645.296875 1114.574219 1655 C 1134.679688 1702 1146 1769.480469 1094 1800 C 1085 1805.222656 1074.371094 1809.175781 1064 1810 C 1068.582031 1794.089844 1076 1780 1077.824219 1763 C 1084 1705.066406 1061.882813 1650.246094 1025.386719 1606 C 1015.957031 1594.570313 1004.464844 1584.632813 993 1575.308594 C 987.175781 1570.570313 979.628906 1567 975 1561 C 1038 1545.792969 1108.183594 1583.53125 1140.199219 1637 C 1149 1651.804688 1159 1672.480469 1160 1690 M 900 1623 C 898.703125 1635.753906 904.578125 1651.0625 905.828125 1664 C 909.214844 1699 908 1739.3125 891.21875 1771 C 883.351563 1785.808594 859 1810.445313 839.316406 1803.226563 C 835 1801.679688 836 1785.03125 836 1781 C 835.988281 1759.351563 831.496094 1736.644531 825 1716 C 818.417969 1694.171875 809.214844 1673.148438 795 1655 C 790 1648.625 784.835938 1642.621094 779 1637.039063 C 776.425781 1634.578125 771.550781 1631.761719 770.878906 1628 C 769.632813 1621.003906 781.574219 1609 785.730469 1604 C 803.273438 1583.5 827.777344 1567 855 1563.210938 C 940.664063 1551.300781 1014.398438 1639.796875 1018 1720 C 1018.875 1738.425781 1018.964844 1756.582031 1011.570313 1774 C 1000.570313 1800 976.605469 1812.640625 949 1805.578125 C 942.855469 1804.007813 929.992188 1801.433594 927 1794.816406 C 925.339844 1790.558594 931.710938 1778.753906 932.871094 1774 C 936.4375 1759.394531 936.25 1745 934.828125 1730 C 932.398438 1704.566406 925.566406 1679.527344 915.570313 1656 C 910.84375 1645 904 1634.328125 900 1623 M 1299 1702 L 1297 1702 C 1297.980469 1724.808594 1300.527344 1747.257813 1313 1767 C 1319 1776.390625 1330.230469 1783.589844 1335 1793 C 1251.5 1760.144531 1266.574219 1637.617188 1327 1589.199219 C 1343.246094 1576.179688 1363.839844 1566.53125 1385 1566.015625 C 1388.785156 1566 1403.691406 1565 1405.183594 1569.5625 C 1406 1572.222656 1403.1875 1576.644531 1402 1579 C 1398.738281 1586.640625 1395 1594.175781 1392 1602 C 1381.855469 1629 1377.78125 1655.695313 1374 1684 C 1371.398438 1704.492188 1372 1727.710938 1376.488281 1748 C 1377.324219 1752 1383.199219 1768.023438 1379.96875 1771 C 1375.691406 1774.664063 1357.746094 1768.078125 1353 1766.492188 C 1325 1757.171875 1301.984375 1732 1299 1702 M 1691 1696 C 1687.28125 1691.027344 1685.546875 1684.390625 1682.253906 1679 C 1672.421875 1663 1660.5 1646.128906 1645 1635 C 1648 1646.152344 1652.839844 1656.660156 1655.625 1668 C 1666 1711 1664.386719 1785.71875 1608 1793 C 1610.621094 1777.523438 1616.300781 1762.8125 1617.828125 1747 C 1621.191406 1712.273438 1617.613281 1678.203125 1611.855469 1644 C 1609.355469 1629.148438 1604.574219 1614.261719 1599.832031 1600 C 1598.597656 1596.277344 1593.769531 1587.410156 1596 1583.699219 C 1598 1580.488281 1604.644531 1580 1608 1579.003906 C 1622.554688 1575.371094 1638.394531 1580.703125 1650 1589.679688 C 1673.359375 1607.753906 1683.234375 1637.109375 1688.460938 1665 C 1690 1674.003906 1693.257813 1687.070313 1691 1696 M 784 1807 C 770.167969 1807 757 1806.75 744 1801.734375 C 706.445313 1787.40625 687.574219 1746.535156 694.386719 1708 C 696.878906 1694 700.359375 1676.652344 713 1667.804688 C 724 1660.0625 736.890625 1666.792969 744.535156 1676.003906 C 758.84375 1693.246094 764.484375 1717.175781 766.949219 1739 C 769.636719 1762.769531 778.5625 1784.042969 784 1807 "/>
</g>
</svg>
