<?xml version="1.0" encoding="UTF-8"?>
<svg xmlns="http://www.w3.org/2000/svg" xmlns:xlink="http://www.w3.org/1999/xlink" width="2000pt" height="2000pt" viewBox="0 0 2000 2000" version="1.1">
<g id="surface1">
<path style=" stroke:none;fill-rule:nonzero;fill:rgb(0%,0%,0%);fill-opacity:1;" d="M 1547 194 C 1549.996094 191.183594 1553 188.671875 1555 185 C 1525.339844 185.082031 1496.675781 201.164063 1472 216 C 1410.570313 253 1353.257813 307.160156 1309.882813 364 C 1291.945313 387.507813 1266.488281 414.621094 1262 445 C 1268.816406 443 1271.691406 435.300781 1278 432 C 1276.921875 435.3125 1269.617188 452.382813 1274.601563 454.261719 C 1279.261719 456.023438 1286.628906 446.375 1290 444 C 1286.851563 452.226563 1284.695313 461.210938 1284 470 C 1291.894531 467.308594 1295.476563 458.785156 1301 453 C 1299.675781 462.011719 1295.300781 471 1298 480 L 1299 480 C 1308.488281 467.554688 1321.949219 457.160156 1332.996094 446 C 1377.183594 401.351563 1432.375 361.578125 1499 370 L 1499 371 C 1475.550781 374.027344 1453 383.480469 1432 393.742188 C 1398.242188 410.183594 1364.867188 430.457031 1338 457.003906 C 1321.4375 473.371094 1311.917969 496.507813 1294 511 C 1294.617188 502.265625 1294.726563 491.234375 1291.367188 483 C 1285.449219 468.511719 1278.707031 474.628906 1275 486 L 1274 486 C 1272 480.121094 1270.757813 470.441406 1265.675781 466.425781 C 1259.40625 461.480469 1254.445313 475.6875 1254 480 L 1252 480 L 1251 459 C 1240 469 1237.914063 494.214844 1233.796875 508 C 1223.574219 542.21875 1211.832031 576.171875 1197.71875 609 C 1192.886719 620.238281 1188.351563 638 1179 646 C 1185.300781 627.542969 1188.769531 608 1193.734375 589 C 1201 561.164063 1210 533.796875 1217.476563 506 C 1220.953125 493 1224.625 480.0625 1227.894531 467 C 1229.289063 461.433594 1231.925781 455.761719 1231 450 C 1228.558594 452.085938 1227.296875 454.058594 1226 457 L 1225 457 C 1224.664063 453 1222.300781 435.222656 1215.210938 438.175781 C 1210.398438 440.179688 1208.4375 450.714844 1206 455 C 1203.8125 446 1201.894531 437.566406 1197.921875 429 C 1196.789063 426.558594 1194.601563 421.207031 1191.289063 421.207031 C 1185.179688 421.207031 1180.320313 440.347656 1179 445 C 1173.902344 433 1176.300781 419.339844 1165 410 C 1158.886719 423.8125 1160.324219 437.433594 1160.960938 452 C 1161.773438 470.574219 1162.777344 489.371094 1161.960938 508 C 1160.519531 541 1157.605469 573.566406 1151.539063 606 C 1148.238281 623.648438 1142.386719 641.265625 1140 659 L 1139 659 C 1139 640.007813 1141.613281 621 1142.910156 602 C 1146 556.027344 1148 510.152344 1148 464 C 1148 448.394531 1148.582031 432.304688 1144.960938 417 C 1143.8125 412.152344 1141.46875 403.632813 1135.960938 402.007813 C 1129.828125 400.195313 1127 422 1125 426 C 1121.359375 413.070313 1116.867188 403 1109 392 C 1104.257813 399 1104.65625 412.691406 1104 421 L 1102 421 C 1101.183594 411.019531 1095.609375 399.390625 1088.894531 392 C 1087.289063 390.234375 1083.535156 385.300781 1080.652344 386.347656 C 1075.746094 388.125 1073.234375 407.226563 1072 412 C 1067 401.832031 1066.355469 386.769531 1055 381 C 1054.394531 388.675781 1053 396.285156 1053 404 L 1052 404 C 1049.738281 396.1875 1046.671875 385 1039 381 C 1038 391.746094 1035 402.097656 1035 413 L 1034 413 C 1031.363281 403.710938 1028.398438 394.484375 1023.6875 386 C 1022.636719 384.105469 1019.710938 378.113281 1016.722656 379.347656 C 1012 381.261719 1012 399.496094 1011 404 L 1010 404 C 1009.585938 395 1005 385.488281 1000 378 C 999 376.5625 995.398438 370.359375 992.988281 372.175781 C 991.25 373.484375 991.554688 379.003906 991.269531 381 C 989.980469 390.039063 990 399 990 408 L 989 408 C 985.234375 398.773438 981.886719 390 975.484375 382.015625 C 973.421875 379.488281 969.214844 374.574219 965.390625 375.738281 C 962.453125 376.628906 961 381.472656 960.238281 384 C 956.769531 393.652344 957 404 957 414 L 955 414 C 954.207031 404.292969 949.289063 393.644531 943.320313 386.003906 C 941 383.117188 937.40625 378.738281 933.214844 379.425781 C 924.640625 380.832031 923 402.484375 923 409 L 922 409 C 920.214844 400.671875 915.265625 391.730469 910 385.003906 C 908.402344 382.792969 905.523438 378.585938 902.1875 379.460938 C 893 382 891 406.609375 891 414 L 890 414 C 887.378906 407.207031 884.714844 400.363281 881 394 C 880.238281 392.398438 878.484375 388.207031 876.210938 388.207031 C 873.457031 388.207031 873 394.183594 872.753906 396 C 871.21875 405.203125 871.839844 414.804688 873 424 C 864.476563 415.492188 863.941406 401.21875 854 393 C 849.308594 405.5 850 420 850 433 L 849 433 C 845.480469 424.421875 841.324219 407.722656 833 403 C 833 410.800781 833.609375 420.660156 831 428 C 828.742188 420.203125 825.542969 411.136719 819 406 C 814.367188 415 814 427.144531 814 437 L 813 437 C 809.820313 430.160156 806.226563 423.261719 801.996094 417.003906 C 801 415.535156 798.824219 411.375 796.46875 412.347656 C 790 415 791.3125 433.492188 790 439 C 787.765625 435.171875 782.273438 420.207031 777 420.207031 C 774.6875 420.207031 774.496094 425.382813 774.285156 427 C 773.28125 434.722656 774.671875 441.375 775 449 C 769.542969 442.734375 764.863281 436 758 431 C 750.472656 460.089844 762.269531 494.050781 770.289063 522 C 786.300781 577.777344 805 633 820 689 L 819 689 C 793.320313 634 765 579.066406 752.285156 519 C 748.40625 500.703125 744.589844 482.019531 739.574219 464 C 737.941406 458.125 736.4375 448.316406 731 445 C 730.992188 454.707031 729.199219 464.3125 729 474 C 723.320313 468.152344 722.609375 458 715 454 L 715 476 L 714 476 C 713 474.199219 712 472.613281 710.957031 471 C 699.304688 455.171875 705.964844 484 707 490 L 706 490 C 702.554688 483.359375 696.441406 477.722656 690 474 L 695 501 C 691.980469 498.003906 681.605469 487.277344 679.527344 497.09375 C 678.46875 502.089844 682.441406 508 684.695313 512 C 691 523.640625 698.453125 534.625 705.242188 546 C 723.179688 576.046875 739.175781 607.722656 752.660156 640 C 756.699219 649.671875 762 659 765 669 L 764 669 C 757.382813 655.007813 746.625 643.03125 738.367188 630 C 721.375 603.179688 704.941406 576 688.191406 549 C 680.964844 537.359375 671.582031 512.714844 658 508 C 658.988281 511.738281 659.910156 515.109375 660 519 C 655.511719 514.308594 651.902344 508 646 505 C 647.230469 512.257813 649 520.21875 652 527 C 638.796875 517.28125 627.65625 503 619 489 C 626.265625 492.117188 632.648438 497.21875 640 500 C 636 489.097656 628.40625 479.273438 623 469 C 630.511719 474.328125 636.488281 482.28125 646 484 C 644 474 634.863281 464 628.601563 456 C 612.722656 436.121094 594.84375 417 576 399.828125 C 503 333.8125 424.472656 270.3125 326 250 C 326.441406 253.070313 327.5 255.285156 329 258 C 319.402344 255.582031 303.519531 244.144531 312 262 C 308.78125 260.015625 293.933594 249 290 253.070313 C 287.226563 256.28125 296.671875 267.519531 294.632813 273 C 280.796875 310.179688 272.992188 347.070313 272 387 C 269.253906 499.757813 283.433594 610.429688 305.550781 721 C 307.882813 732.660156 311.484375 745.054688 310.960938 757 C 310.589844 765.480469 305.847656 772.289063 304.714844 780.089844 C 303.347656 789.5 308.695313 801.4375 312 810 C 305.589844 805.761719 299.984375 800.320313 293 797 C 293 807.492188 295.632813 816.082031 301 825 C 294.429688 825 288.441406 824.25 282 823 C 283.984375 833.257813 293.894531 840.183594 303 844 L 303 845 C 298.867188 845 276.992188 841 275.996094 846.316406 C 274 856.78125 293.714844 860.382813 299 865 C 289.921875 865.464844 281.613281 870 273 872.441406 C 271.269531 873 265.179688 873.699219 266.347656 876.742188 C 268.761719 883.054688 282 881.640625 287 881.171875 C 308.90625 879.085938 322.929688 871.109375 339 856 C 330 853.386719 319.203125 855 310 855 L 310 854 C 318 851.789063 325.332031 847.390625 333 844.097656 C 336.652344 842.527344 340.78125 842.4375 343 839 L 322 839 C 331 829 351 828.699219 359 818 L 342 818 C 371.335938 801 396.804688 782.175781 419.914063 757 C 425.613281 750.789063 430.304688 743.785156 437 738.519531 C 440.953125 735.40625 448 733.804688 451.246094 730.261719 C 454 727.105469 441.636719 723.179688 450 720.238281 C 464.335938 715.234375 483.402344 737.023438 490 747 C 479.867188 744.824219 470.5625 740.78125 460 742.804688 C 458.449219 743.101563 448.925781 744.394531 450.347656 747.316406 C 451.546875 749.792969 457.707031 751.273438 460 752.710938 C 466.195313 756.59375 471.566406 761.1875 476 767 C 462.34375 762.660156 447.382813 763.050781 434 768.453125 C 431.886719 769.308594 422.207031 772.429688 422.207031 775.117188 C 422.207031 777.265625 427.523438 778.429688 429 779.121094 C 435.886719 782.359375 441.613281 787.726563 447 793 C 432.472656 791 421.644531 790 407 791 C 411.902344 798.191406 422.511719 801.210938 428 809 C 416.363281 805.335938 404.746094 803.011719 393 808 C 391.238281 808.605469 382 811.5625 383.347656 814.382813 C 384.554688 817 391.539063 818 394 819.089844 C 400.28125 822 406.8125 826.542969 411 832 C 395.546875 828.46875 377.996094 828.492188 363 834 L 363 835 C 376.644531 838.363281 389 842.707031 400 852 C 383 852 368.773438 853 352 856 C 359.945313 864.214844 375.65625 865.320313 385 873 C 372.964844 872.050781 361.671875 871.59375 350 875.515625 C 347.894531 876.222656 340.207031 878.046875 340.207031 881 C 340.207031 883.304688 346.367188 884.199219 348 884.816406 C 356 888 363.667969 893 372 895 L 372 896 C 360.453125 896 346 893.722656 335 897 L 335 898 C 351.984375 900.355469 325.417969 907.332031 321 909 L 321 910 C 332.460938 913.421875 349.746094 910.21875 359 919 C 342.660156 919.136719 326 924.480469 311 930.449219 C 306.183594 932.359375 298.765625 933.472656 296 938 C 315.332031 937.171875 334.949219 940.460938 354 944 L 354 945 C 323.386719 945.253906 289.238281 951.734375 261 963.574219 C 253 967 244 969.222656 237 974 C 247.652344 975.582031 262 970.574219 273 969.285156 C 296.96875 966.449219 329.355469 962.371094 353 968 C 331.28125 979 303 978.628906 280 986.332031 C 271.78125 989.074219 260.757813 992.285156 255 999 C 283.484375 1002.179688 313.457031 995.078125 342 995 L 342 996 C 316.542969 1003 290.746094 1011.160156 266 1020.320313 C 258.472656 1023.105469 243.511719 1026.171875 239 1033 C 269.566406 1029 302 1024 333 1024 L 333 1025 C 312.757813 1029.1875 291.320313 1037 273 1046.515625 C 265.386719 1050.480469 256.433594 1056.3125 254 1065 C 276.570313 1062 301 1054.441406 324 1057 C 307.269531 1065.820313 288.496094 1070.738281 272 1080.148438 C 269 1081.773438 257 1087.308594 257.921875 1091.484375 C 258.453125 1094 271.769531 1092.351563 274 1092.164063 C 291.316406 1090.722656 309.675781 1088.011719 327 1088 L 327 1089 C 305.773438 1094.042969 273.738281 1109 261 1127 C 278.910156 1131 299.804688 1123.050781 318 1123 L 318 1124 C 306.90625 1128.617188 296.222656 1134.664063 287 1142.460938 C 285.707031 1143.589844 277.347656 1150.460938 280.660156 1152.359375 C 283.9375 1154.238281 292.40625 1151 296 1150.425781 C 310.324219 1148.203125 324.691406 1145 339 1143 L 339 1144 C 324.800781 1150.628906 309.851563 1159 298 1169.289063 C 296 1171 287 1178 289.175781 1181 C 291 1183.625 301.238281 1180.4375 304 1180.171875 C 319.65625 1178.648438 334.511719 1174.277344 350 1172 L 350 1173 C 332.820313 1180.15625 308.976563 1194.25 303 1213 C 314.480469 1211.453125 325.617188 1207.679688 337 1206 L 337 1207 C 327.316406 1211.289063 318.59375 1219.136719 310 1225.289063 C 283.421875 1244.324219 260 1267 237 1290 C 224.824219 1302.175781 207.265625 1318.710938 201 1335 C 213.996094 1327.488281 225.179688 1315.140625 237 1305.804688 C 279.8125 1272 322.613281 1233.582031 377 1221 C 361.417969 1238.003906 340.414063 1248 330 1270 C 347.867188 1266.816406 366.273438 1256 383 1249 C 370.414063 1264.558594 347 1276.507813 343 1298 C 358.253906 1293.597656 370.921875 1281.773438 386 1277 C 369.777344 1293.355469 354.253906 1311.21875 339.613281 1329 C 331 1339.3125 323 1352.03125 312.910156 1360.722656 C 301.328125 1370.605469 276.394531 1365.273438 267 1379 C 271 1379.179688 274.976563 1380.171875 279 1381 L 279 1382 C 260 1385.503906 242.914063 1389.128906 226 1399 C 230.53125 1402.097656 236.742188 1400.75 242 1402 C 227.621094 1409 199.265625 1405.671875 190 1422 L 203 1422 L 203 1423 C 183.609375 1428.460938 160 1438 148 1455 C 163 1450.65625 175.972656 1445.265625 192 1444 L 192 1445 C 171 1451 152.484375 1464.402344 136 1478.082031 C 129.945313 1483.105469 122.402344 1487.707031 119 1495 C 133.421875 1490.257813 146.535156 1483.082031 162 1481 L 162 1482 C 145.382813 1489.769531 131.261719 1502.242188 118 1514.714844 C 112.445313 1520.058594 105 1526.28125 103 1534 C 115.308594 1525.339844 125 1516.3125 140 1512 C 122 1530.210938 100.363281 1560.386719 99 1587 L 100 1587 C 111.257813 1570 121.390625 1555.609375 136 1541 C 133.601563 1551.476563 126.765625 1561.753906 123 1572 C 116.316406 1590.609375 111.558594 1612.273438 110 1632 L 111 1632 C 116.457031 1621.1875 123.613281 1607.507813 127 1596 L 128 1596 C 127.5625 1606.066406 123.863281 1616 122.925781 1626 C 122.683594 1628.589844 121 1633 122.605469 1635.355469 C 123.839844 1637.386719 129.851563 1636.488281 132 1636.71875 C 142.371094 1637.820313 153.835938 1635.023438 164 1637.128906 C 172.910156 1639 182.316406 1651.160156 189 1657 C 170.691406 1657.378906 152.375 1658 134 1658 C 122.335938 1658 110.664063 1658 99 1658 C 91.289063 1658.039063 83.761719 1659.441406 76 1659 C 69.324219 1658.453125 60.734375 1656.308594 54 1658.316406 C 50.683594 1659.382813 50.742188 1668.6875 53 1671 C 54.800781 1672.742188 59.652344 1672.265625 62 1672.574219 C 71.734375 1674 81.289063 1671.140625 91 1672.285156 C 116.863281 1675.335938 144.957031 1674 171 1674 C 194.648438 1674.113281 217 1674.183594 234 1694 C 210 1694 186 1694 162 1694 C 147 1694.050781 132 1695 117 1695 C 100.648438 1695 83.214844 1693.296875 67 1695.425781 C 62.734375 1696 47.355469 1694.390625 52.601563 1703.398438 C 54.53125 1706.703125 64.699219 1705 68 1705 C 83.617188 1705.007813 99.3125 1706 115 1706 C 153.972656 1706.015625 193 1709 232 1709 C 249.652344 1709 259.910156 1711 276 1718.140625 C 281.503906 1720.59375 287.976563 1722.390625 292 1727 C 230.664063 1727 169.351563 1731 108 1731 L 65 1731 C 61.519531 1731 52.296875 1729.398438 52.296875 1735 C 52.296875 1739.714844 61.964844 1738 65 1738.171875 C 78.558594 1739.460938 92.394531 1739.363281 106 1740 C 164.460938 1742.519531 223.488281 1745 282 1745 C 296.367188 1745 311.753906 1743.4375 326 1745.289063 C 348 1748.167969 369.804688 1754.722656 392 1757.710938 C 418.445313 1761.273438 445.363281 1762.792969 472 1764 C 524.441406 1766.257813 577.5 1764 630 1764 C 761.421875 1764 892.644531 1762 1024 1762 L 1024 1761 C 929.222656 1753.519531 833.847656 1754.40625 739 1748 C 707.675781 1745.765625 676.269531 1744 645 1740.832031 C 622.472656 1738.578125 599.640625 1734.46875 577 1734 L 577 1733 C 646.914063 1727.480469 716.855469 1728.703125 787 1727 C 918.5625 1723.761719 1050.382813 1726 1182 1726 L 1324 1726 C 1336.992188 1726 1350.695313 1722.078125 1360.308594 1732 C 1361.800781 1733.539063 1366.304688 1736.378906 1366 1739 C 1365.632813 1742.542969 1353.570313 1741 1351 1741.089844 C 1335.460938 1742.152344 1319.433594 1741.550781 1304 1743.574219 C 1277.390625 1747.070313 1249.785156 1746.253906 1223 1748.089844 C 1181 1751 1138.996094 1755.195313 1097 1757 L 1097 1758 C 1105 1760.378906 1114.644531 1759 1123 1759.003906 C 1139.246094 1759.195313 1155.699219 1759.613281 1172 1760.015625 C 1225.175781 1761.316406 1278.828125 1760.632813 1332 1763 C 1364.175781 1764.371094 1398.730469 1754.824219 1422 1783 C 1368.980469 1783.4375 1316 1792 1263 1792 L 1263 1794 C 1306.5625 1794.359375 1350.472656 1796.054688 1394 1798 C 1412.449219 1798.769531 1431.703125 1796.03125 1450 1798.316406 C 1465.777344 1800.285156 1482.265625 1810.539063 1498 1814.523438 C 1528.972656 1822.371094 1560 1824.375 1592 1824 C 1617.867188 1823.6875 1645 1819.46875 1670 1812.289063 C 1683.476563 1808.402344 1697.308594 1800.742188 1711 1798.441406 C 1733.375 1794.683594 1758.304688 1797.539063 1781 1797 C 1810.964844 1796.25 1841 1793 1871 1793 L 1871 1792 C 1828.28125 1786.601563 1783 1785 1740 1785 C 1748.25 1778 1763.59375 1766.226563 1774 1763.433594 C 1782.769531 1761.078125 1793.941406 1763.207031 1803 1763 C 1821.976563 1762.519531 1840.957031 1762 1860 1762 L 1899 1762 C 1902.285156 1762 1910.464844 1763.480469 1912.972656 1761 C 1915.917969 1758.027344 1915.195313 1741.605469 1910.851563 1740.316406 C 1903.671875 1738.1875 1893.480469 1740 1886 1740 L 1833 1740 C 1826.671875 1740 1820.328125 1740.113281 1814 1740 C 1812.769531 1740 1808 1740.28125 1808.632813 1738 C 1809.59375 1733.335938 1820.375 1724.226563 1825 1723.277344 C 1831.203125 1722.007813 1837.765625 1724 1844 1724 C 1859.664063 1724.074219 1875.335938 1724 1891 1724 C 1895.964844 1724 1909.757813 1726.378906 1913.308594 1722.398438 C 1916 1719.28125 1916.636719 1700.738281 1911.851563 1699.316406 C 1895.921875 1694.589844 1873.464844 1699.570313 1856.828125 1699.078125 C 1853.945313 1699 1837 1700.636719 1837.84375 1696.707031 C 1839.914063 1685.171875 1849.832031 1685 1859 1685 L 1897 1685 C 1901 1685 1908.808594 1686.492188 1912.398438 1684.398438 C 1915.523438 1682.570313 1915 1663.664063 1913.972656 1660.316406 C 1912.914063 1657.3125 1908.492188 1658.003906 1906 1658 L 1837 1658 C 1832.84375 1658 1823.722656 1659.660156 1821 1655.566406 C 1817.617188 1650.335938 1821 1632.605469 1821 1626 C 1824.75 1629.695313 1826.480469 1635.121094 1831 1638 C 1830.441406 1611.015625 1818.753906 1583.785156 1802 1563 C 1817.527344 1569.007813 1824.601563 1586.128906 1838 1594 C 1835.675781 1570.792969 1813.425781 1544.800781 1792 1537 L 1792 1536 C 1800.535156 1537.65625 1808.542969 1541.542969 1817 1543 C 1809.644531 1527.144531 1784 1509.046875 1767 1506 L 1767 1505 C 1784.265625 1506.363281 1799.679688 1513.300781 1816 1518 C 1801.648438 1498.046875 1771.660156 1483 1748 1478 L 1748 1477 C 1759.460938 1477 1774.171875 1482.316406 1785 1480 C 1768.734375 1466.523438 1742.808594 1459 1722 1459 L 1722 1458 C 1728.835938 1456.316406 1735.992188 1455.554688 1743 1455 L 1743 1454 C 1722.210938 1446.027344 1701.558594 1439 1679 1439 L 1679 1438 C 1692.359375 1436.035156 1704.542969 1436 1718 1436 C 1714.960938 1432 1707.699219 1430.632813 1703 1429 C 1686.410156 1423.230469 1671.269531 1423.257813 1654 1424 L 1654 1423 L 1670 1419 C 1657 1409.402344 1636.789063 1411.128906 1622 1413 C 1626.847656 1409.015625 1632.367188 1406.667969 1638 1404 L 1638 1403 C 1623.382813 1398.378906 1603.203125 1398 1589 1404 C 1593.964844 1399.136719 1602.363281 1395.648438 1606 1390 C 1596.617188 1390 1587 1389.691406 1578 1392.160156 C 1574.800781 1393.023438 1567.683594 1397.796875 1564.589844 1396.558594 C 1562 1395.527344 1560.210938 1387.464844 1559 1385 C 1553.976563 1374 1546.179688 1363.414063 1542 1352 C 1551.351563 1358.65625 1565 1365.410156 1576 1369 C 1572.566406 1352.40625 1566.226563 1340.003906 1557 1326 C 1567.871094 1331.082031 1577.632813 1338.09375 1588 1344 C 1589 1331.21875 1580.402344 1318 1575 1307 C 1599 1331.011719 1623.433594 1354.558594 1648 1378.039063 C 1659.222656 1388.769531 1672.6875 1406 1687 1412 C 1681.808594 1399.664063 1670.367188 1387.640625 1662.234375 1377 C 1646.558594 1356.492188 1630.4375 1336.359375 1614.574219 1316 C 1606.230469 1305.289063 1596 1294.179688 1590 1282 C 1598.214844 1287.441406 1606.941406 1294.191406 1616 1298 C 1616 1276.4375 1612.261719 1265.050781 1599 1248 C 1609.480469 1252.363281 1620.683594 1260.519531 1632 1262 C 1629.480469 1252.773438 1625.621094 1243.832031 1622 1235 C 1658.210938 1259 1693.25 1284.574219 1729 1309.191406 C 1742.523438 1318.503906 1756.820313 1334.128906 1772 1340 C 1763.519531 1321.703125 1741.679688 1304.515625 1727.183594 1291 C 1692.714844 1258.597656 1654.433594 1230.433594 1621 1197 C 1632.757813 1200.359375 1642.652344 1208.242188 1654 1212 C 1652.800781 1202.503906 1652.71875 1192.375 1647.441406 1184 C 1642.300781 1176 1633.898438 1171.289063 1628 1164 C 1635.863281 1166.3125 1643 1171 1651 1173.507813 C 1653 1174.210938 1657 1176.347656 1659.355469 1175.292969 C 1662.25 1174 1658.324219 1165.089844 1657.5625 1163 C 1652.953125 1150.320313 1644.398438 1140.398438 1635 1131 C 1647.503906 1136.203125 1658.886719 1144.25 1672 1148 L 1670 1135 C 1693.195313 1144 1716.804688 1152 1740 1160.8125 C 1753.425781 1166 1769.710938 1174.566406 1784 1176 C 1778.171875 1167.101563 1760.230469 1161.273438 1751 1156 C 1729.390625 1143.648438 1707 1132.753906 1685 1121.359375 C 1672.492188 1115 1659.523438 1109.605469 1649 1100 C 1658.40625 1103.007813 1667.574219 1106.65625 1677 1109.566406 C 1679.421875 1110.3125 1683.871094 1113 1686.398438 1111.648438 C 1689.785156 1110 1687.210938 1101 1686.714844 1098 C 1683.984375 1082.265625 1668 1075.15625 1657 1066 C 1670 1067.140625 1682.550781 1073.242188 1695 1077 C 1695 1055.382813 1683.273438 1040.023438 1663 1031 L 1663 1030 C 1675.550781 1032.589844 1687.195313 1037.15625 1699 1042 C 1699 1035.023438 1700.300781 1026.484375 1697.230469 1020 C 1691.835938 1008.605469 1676.984375 1003.085938 1668 995 C 1676.5625 995.675781 1684.621094 998.078125 1693 999.742188 C 1695.449219 1000.230469 1700 1002.335938 1702.398438 1001.292969 C 1709.421875 998.226563 1701.464844 983.222656 1697.996094 980.640625 C 1682.605469 969.1875 1660.664063 960.316406 1642 956 L 1642 955 C 1665.691406 955.066406 1689 961 1713 961 C 1708.664063 951.703125 1697.816406 946.171875 1689 941.753906 C 1668.5625 931.507813 1646.316406 923.117188 1624 918 L 1624 917 C 1656.644531 917.089844 1688 928.292969 1720 933 C 1714 925.667969 1704.242188 921.0625 1696 916.703125 C 1675 905.605469 1650.617188 895.488281 1627 892 L 1627 891 C 1656.261719 891.019531 1687.488281 896.773438 1715 906 C 1711.589844 896.53125 1700.503906 890.203125 1692 885.785156 C 1669.296875 874 1642 868.691406 1617 865 L 1617 864 C 1645.328125 860.421875 1676 862.800781 1704 868 C 1699.269531 861 1686.59375 858.007813 1679 855 C 1653.21875 844.171875 1626.765625 841.445313 1600 835 L 1600 834 C 1608 833.652344 1615.898438 832 1624 832 L 1624 831 C 1611 827.347656 1597.804688 828.050781 1585 825 C 1592.710938 821 1614.300781 812.058594 1622.828125 814.523438 C 1634.414063 818 1642.542969 830 1654 833.363281 C 1666.992188 837.175781 1681.65625 837.777344 1695 840.449219 C 1705.289063 842.511719 1714.84375 846.648438 1725 849 L 1725 848 C 1700.191406 835 1671.734375 821.367188 1644 816.09375 C 1629.738281 813.382813 1617.753906 809.203125 1604 805.144531 C 1600.261719 804.039063 1590.484375 804.003906 1587.921875 801.140625 C 1585.285156 798.195313 1603.769531 794 1599.25 789.179688 C 1597.492188 787.367188 1593 788.140625 1590.828125 788.367188 C 1583.550781 789.097656 1576.316406 789 1569 789 L 1569 788 C 1576.882813 785.332031 1585.59375 782.738281 1593 779 L 1593 778 C 1577 773 1560 774.183594 1544 771 C 1555.6875 764.324219 1569.480469 761.800781 1582 757 L 1582 756 C 1573 751.65625 1562.65625 752 1553 752 C 1555.964844 748.164063 1560.640625 746.191406 1563 742 C 1552 742 1543.359375 745.230469 1533 748 C 1535.847656 743.074219 1539.71875 739 1544 735.1875 C 1545.273438 734.074219 1549.792969 731.796875 1549.792969 730 C 1549.792969 727.503906 1542.535156 727.625 1541 727.425781 C 1531.320313 726.148438 1522.503906 729.222656 1513 730 C 1515.863281 727.160156 1518.699219 724.378906 1522 722.042969 C 1524.277344 720.433594 1531.792969 717.433594 1531.792969 714.128906 C 1531.792969 711.621094 1526.671875 711.339844 1525 711.171875 C 1517.984375 710.453125 1508.894531 710 1502 711.527344 C 1500.347656 712 1492.84375 716 1491.597656 714.304688 C 1488.339844 710.261719 1504.792969 698.742188 1504.792969 695.03125 C 1504.792969 692.320313 1498.609375 693.007813 1497 693 C 1487.902344 692.382813 1480.757813 695.511719 1472 697 C 1477.488281 689.796875 1486 684.226563 1490 676 C 1480.550781 676 1472.167969 678.101563 1463 680 C 1467.703125 672 1481.457031 660.226563 1491.925781 664.742188 C 1497.167969 667.003906 1491.695313 672.246094 1495.371094 674.410156 C 1499.535156 677 1504.683594 677.449219 1509 680.242188 C 1521 688.070313 1531 699.015625 1543 707.226563 C 1559 718.371094 1582.488281 728.59375 1601 735 L 1601 736 C 1591.3125 735.210938 1581.738281 732.417969 1572 732 C 1574.652344 736 1579.886719 736.785156 1584 738.804688 C 1594.484375 744 1604.90625 750.277344 1616 754 L 1616 755 C 1608.875 755.148438 1602 757.09375 1595 758 C 1600.753906 768.113281 1624.503906 770.644531 1635 774 L 1635 775 L 1611 776 C 1624.539063 805.035156 1660.167969 806.425781 1688 807 L 1688 806 C 1677 798.8125 1658.34375 794.5625 1650 785 C 1659 784.199219 1669.722656 778 1673 769 C 1662.316406 767.648438 1651.492188 767.714844 1641 765 L 1641 764 C 1647.574219 760.589844 1652.546875 755 1655 748 C 1655.746094 746.277344 1658.234375 740.816406 1655.394531 739.816406 C 1650.890625 738.230469 1640.898438 745.15625 1636 746 C 1639.867188 738.460938 1653 706 1634 722.296875 C 1631.902344 724.09375 1629.960938 726.054688 1628 728 C 1628.339844 718.578125 1632.566406 707.203125 1635 698 C 1626.898438 699.371094 1623.484375 678.125 1623 672 C 1621.273438 643.617188 1628.664063 613.597656 1629 585 C 1630 488.683594 1632.914063 394.789063 1611.347656 300 C 1605.722656 275.273438 1598.773438 250 1587.882813 227 C 1584.28125 219.402344 1580.277344 211.75 1575.238281 205 C 1573.410156 202.546875 1569 199.300781 1569 196 C 1569 191.636719 1576 188 1578 184 C 1566 184.515625 1557.582031 189.058594 1547 194 M 1235 368 C 1235.429688 364.816406 1238 358.585938 1236.382813 355.648438 C 1234.742188 353 1229.644531 356.796875 1228 357.816406 C 1220.507813 362.457031 1216 370 1209 375 C 1208.984375 373 1209 371 1208.675781 369 C 1208.441406 367.648438 1208 366.277344 1207.613281 365.003906 C 1202 351 1194.175781 374.085938 1186.171875 372.308594 C 1180.800781 371.113281 1179.480469 362.78125 1174 361.347656 C 1169.503906 360.148438 1167 367.605469 1163 368.460938 C 1158.492188 369.386719 1152.230469 362.605469 1148 361 C 1148.59375 367 1151.566406 382.300781 1156.648438 386 C 1158.949219 387.636719 1162.421875 387.226563 1164.984375 388.570313 C 1170.28125 391.347656 1177.628906 400.367188 1178 389 C 1180.980469 392.507813 1184.742188 401.289063 1189.6875 402.078125 C 1192.894531 402.589844 1191.90625 394.820313 1194.808594 396.207031 C 1199.550781 398.472656 1207 423.472656 1212.558594 407.023438 C 1213 405.371094 1213.523438 403.671875 1214 402 L 1215 402 C 1216.640625 406.402344 1217.289063 418.476563 1220.726563 421.246094 C 1225.421875 425.035156 1231 408 1232 405 L 1233 405 C 1233.28125 411.582031 1233.535156 417.402344 1233 424 C 1232.878906 425.492188 1231.839844 429.816406 1233.6875 430.652344 C 1236 431.75 1238.945313 427.484375 1240 426 C 1245.433594 419.128906 1249.480469 411.46875 1253.859375 404 C 1266 383.097656 1279.363281 362.40625 1293.894531 343 C 1301 333.371094 1311 324.375 1317 314 C 1309.59375 315.738281 1302.734375 321.246094 1296 324.777344 C 1274 336.292969 1252.859375 350.765625 1235 368 M 1477 317 C 1471 323.503906 1459.726563 326.300781 1452 330.542969 C 1435.222656 339.757813 1418.53125 349.542969 1403 360.746094 C 1382 376 1361.707031 392.390625 1342.910156 410.183594 C 1333.335938 419.25 1324.363281 433.492188 1313 440 C 1316.632813 424.542969 1332.808594 408.671875 1343 397 C 1376 359.015625 1424.558594 321.175781 1477 317 M 1096 349 C 1095.574219 351.652344 1097.40625 357.289063 1095.304688 359.210938 C 1091 363.046875 1081.722656 354.710938 1078 353.226563 C 1070.847656 350.371094 1065.746094 356.679688 1062 362 C 1071.757813 367.492188 1083.363281 368.316406 1094 371.285156 C 1108 375.230469 1122.445313 380.441406 1136 386 C 1135.3125 377.34375 1132 355.347656 1125 350 C 1123.902344 371.117188 1105.714844 354.191406 1096 349 M 1009 352 C 1011.652344 353.308594 1025.964844 359.03125 1027.652344 355.4375 C 1030.414063 349.570313 1011.300781 351.320313 1009 352 M 1040.304688 352 C 1029.707031 357.128906 1052.300781 364.78125 1057.339844 361.398438 C 1059.722656 359.796875 1056.214844 356.628906 1054.941406 355.636719 C 1051.5 353 1044.621094 350 1040.304688 352 M 569 361 C 574.527344 371.269531 588.652344 380.683594 597.285156 388.515625 C 611.214844 401.152344 624 416.171875 635.574219 431 C 644.566406 442.535156 654 464 667 471 C 666.546875 465.320313 665.363281 459.53125 664 454 C 669.429688 456.515625 673 461.457031 679 463 C 677.476563 455.132813 675 448.363281 672 441 C 674.222656 443.308594 688.316406 459.316406 691.648438 453.378906 C 694 449.105469 686.46875 435.507813 685 431 C 690.902344 433.757813 707 453.304688 706.996094 436 C 706.988281 434.328125 706.9375 432.660156 706.699219 431.003906 C 706.355469 428.621094 705.648438 426.3125 705 424 C 707.917969 426.054688 712 431.785156 715.828125 431.792969 C 718.277344 431.796875 720.375 428.769531 722 427.320313 C 730.28125 420.128906 728.929688 412.117188 727 402 C 726.519531 399.492188 726.679688 394.695313 724.867188 392.753906 C 722.617188 390.34375 715.765625 406 711 405.367188 C 705.503906 404.644531 698.777344 395.160156 694 392 C 692.476563 397.15625 693.191406 402.652344 693 408 C 683.925781 399.71875 671.3125 392.664063 659 391 C 662.839844 398.410156 668.710938 404.097656 672 412 C 638.21875 393.171875 607 371.164063 569 361 M 842 374 C 850.847656 372.800781 859 368.019531 867 364 C 859.285156 361 844.703125 366.132813 842 374 M 809 383 C 806.648438 362 786.175781 381 779 388 C 778.609375 386 778.253906 384 777.761719 382 C 773.449219 364.6875 764.636719 388.726563 755 386.472656 C 749.40625 385.15625 747.175781 375.578125 743 372 C 739.480469 384 741.515625 405.207031 745 417 C 764.222656 404.457031 787.6875 393.023438 809.425781 385.496094 C 817.496094 382.703125 830 383.183594 836.34375 376.03125 C 840.890625 370.796875 830.234375 368.632813 827 369.421875 C 819.433594 371.261719 814.824219 378.546875 809 383 M 595 486 C 581.84375 477.777344 570.882813 466.101563 558 457.359375 C 528 437.027344 496.417969 420 463 406 C 448.328125 400 432 391.398438 416 390 C 420.273438 386.761719 425.980469 388.171875 431 389 C 442.222656 390.429688 453 392.363281 464 395.265625 C 503 405.621094 540 427.769531 569 456.015625 C 577.800781 464.597656 590.464844 474.292969 595 486 M 1511 408 L 1511 410 C 1492.191406 413.238281 1471.96875 424.273438 1455 432.753906 C 1422.894531 448.796875 1392.378906 465.628906 1363 486.425781 C 1350.644531 495.171875 1338.605469 504.257813 1326 512.667969 C 1323.820313 514.121094 1316.53125 521 1313.8125 519.542969 C 1312.199219 518.757813 1313.8125 515.140625 1314 514 C 1315.445313 508.207031 1313.480469 503.53125 1312 498 C 1322 497 1329.757813 487.722656 1336.910156 481.324219 C 1348.390625 471.058594 1361 461.757813 1374 453.34375 C 1413.339844 427.660156 1463.339844 408.132813 1511 408 M 1279 431 L 1278 432 L 1279 431 M 633 550 C 627 548 617.199219 545.3125 612.585938 541.007813 C 609.214844 538 607.480469 531.785156 604.570313 528 C 597.402344 518.675781 588.660156 511 579 504.203125 C 545.324219 481 506.320313 464.003906 467 453 C 449.847656 448 431.957031 443.011719 414 443 L 414 441 C 434.6875 440.109375 454.265625 437.722656 475 441.464844 C 517 449.054688 550.695313 474.441406 584 499.527344 C 602.664063 513.585938 628.710938 525.101563 633 550 M 1544 461 L 1544 462 C 1508 462 1466.277344 464 1437 488 C 1460.53125 480.59375 1488.265625 481 1512 487.578125 C 1518 489.308594 1530 490.800781 1534 496 C 1515.980469 495.628906 1498.84375 494.40625 1481 498.5 C 1472 500.527344 1464.496094 505.105469 1456 508 L 1456 509 C 1465.738281 511.316406 1476 510.613281 1486 513 C 1516.8125 520 1553 538.625 1568 568 C 1545.183594 555.296875 1525.433594 541.828125 1498 543.039063 C 1490.4375 543.371094 1482.496094 545.566406 1476 549.453125 C 1474.472656 550.367188 1469.214844 553.015625 1470.921875 555.488281 C 1473.484375 559.210938 1489.417969 559.605469 1494 561.027344 C 1510.195313 566.039063 1528.988281 574.800781 1539 589 C 1516.921875 585.078125 1496.878906 578.535156 1474 584 L 1474 585 C 1498.882813 593.109375 1523.335938 610.210938 1540.269531 630 C 1546.1875 637 1553.683594 645.035156 1556 654 C 1524.820313 632.035156 1501.828125 608.144531 1462 603 C 1467.960938 610.191406 1481.277344 614.785156 1481.523438 626 C 1481.628906 630.589844 1474.5 633.074219 1471 634.691406 C 1459.574219 640 1446.578125 644 1434 645 C 1440.757813 631.652344 1458.769531 628 1468 617 C 1452.644531 617 1438 621.175781 1423 624 L 1423 623 C 1432.578125 617.667969 1446.996094 612.0625 1455 605 C 1449.34375 604.671875 1443.449219 605.609375 1438 604 C 1440.707031 599.355469 1444.253906 596 1448.996094 593.398438 C 1450.210938 592.734375 1453.945313 591.707031 1453.945313 590 C 1453.945313 586.328125 1440 589.566406 1438 590 C 1421 593 1408.886719 603.59375 1394 611 C 1395.628906 606.761719 1398.566406 603.324219 1400 599 C 1357.492188 607.242188 1312 627 1277 652.253906 C 1260 664.46875 1243.9375 681.394531 1238 702 C 1257.871094 689 1278.5625 672.410156 1302 666 C 1288.507813 683.640625 1269 695.414063 1260 717 C 1280.472656 703.515625 1308.640625 685.105469 1334 684 L 1334 685 C 1319.304688 692.824219 1305.835938 703.328125 1294 715.003906 C 1289.878906 719.070313 1284.550781 722.765625 1282 728 C 1301.707031 718.796875 1324.9375 705 1347 703 C 1341.195313 712 1325.367188 718.382813 1317 725.4375 C 1314.925781 727.1875 1308 731.800781 1308 734.796875 C 1308 737.269531 1320.328125 734.144531 1322 734 C 1337.179688 732.195313 1351.792969 726.210938 1367 725 C 1358.460938 735 1340 742.296875 1328 747 L 1328 748 C 1337.761719 751.640625 1347.523438 753.832031 1358 752.828125 C 1365.574219 752.105469 1373.414063 749.1875 1381 750 C 1373.921875 756.648438 1363 762.683594 1354 766 C 1369.421875 777.796875 1392.695313 776 1411 776 L 1411 777 C 1405.679688 780.710938 1400 784 1394 786.136719 C 1359 798.527344 1334.914063 770.257813 1306 756.257813 C 1275.851563 741.664063 1240.753906 739.21875 1210 753.308594 C 1149.382813 781.085938 1131.53125 851.09375 1125.828125 911 C 1124 929.605469 1121.601563 968.167969 1139 980.347656 C 1144.902344 984.476563 1152 984 1159 984 C 1157.710938 982.492188 1149.90625 975.386719 1155.191406 974.503906 C 1160.964844 973.539063 1169.761719 978.304688 1175 980.398438 C 1188.175781 985.664063 1201.355469 990.785156 1215 994.703125 C 1267.375 1009.734375 1327.316406 998.71875 1357.769531 950 C 1368 933.628906 1372.660156 913.171875 1372.660156 894 C 1372.660156 880.214844 1369 862.359375 1383 853.613281 C 1396 845.484375 1413.410156 852.183594 1427 855 C 1452.414063 860.257813 1480 862 1506 863 L 1506 865 C 1486.464844 865.054688 1464.964844 869.804688 1447 877.429688 C 1437.734375 881.359375 1429.429688 887.570313 1420 891 L 1420 892 C 1445.71875 888.214844 1469.855469 886 1496 886 L 1496 888 C 1475.261719 890.636719 1453.222656 896 1434 904.285156 C 1425.230469 908.070313 1417.699219 914.34375 1409 918 L 1409 919 C 1428.730469 917.441406 1450.324219 911.183594 1470 917 C 1464.773438 920.589844 1456.191406 921.03125 1450 922.425781 C 1435.882813 925.605469 1412.726563 930.652344 1403 942 C 1413.511719 942 1423.472656 942.257813 1434 943 C 1438.585938 943.289063 1445 943.109375 1448 947 C 1426.648438 947.015625 1407.449219 955.453125 1388 963 L 1388 964 C 1401 967.105469 1415 966 1428 970 L 1428 971 C 1409 971.8125 1389.53125 976.238281 1372 983 L 1372 984 C 1382.976563 985 1394.957031 988.546875 1405 993 L 1405 994 C 1382.820313 994.0625 1360.964844 999.292969 1340 1006 L 1340 1007 L 1373 1014 L 1373 1015 C 1345.753906 1020.078125 1319.460938 1020.558594 1292 1022 L 1292 1023 C 1294.480469 1024.214844 1309.792969 1030.527344 1309.792969 1033 C 1309.792969 1035.6875 1291.710938 1037 1289 1037.433594 C 1263.980469 1041.632813 1246.441406 1052.511719 1224 1063 L 1224 1064 C 1253.234375 1057.238281 1281.988281 1047.070313 1311 1039.28125 C 1365.835938 1024.558594 1421 1014 1478 1014 L 1478 1015 C 1409.226563 1023.738281 1338.394531 1044.441406 1273 1067.078125 C 1250.667969 1074.808594 1229.324219 1085.402344 1207 1093 L 1207 1094 C 1251.496094 1094 1295.746094 1088.382813 1340 1084.171875 C 1397.746094 1078.675781 1456.382813 1080.230469 1514 1085.828125 C 1544.769531 1088.820313 1578.859375 1094.300781 1608 1105 L 1608 1106 C 1579.433594 1106 1550.503906 1101.039063 1522 1099.089844 C 1474.964844 1096 1427.226563 1095 1380 1096.015625 C 1352 1096.695313 1323.558594 1099.011719 1296 1103.4375 C 1279.296875 1106.121094 1261.828125 1112.265625 1245 1113 C 1251 1118.671875 1265.890625 1118.222656 1274 1119.421875 C 1298.65625 1123.070313 1323.335938 1126.058594 1348 1129.425781 C 1396.472656 1136.042969 1444.773438 1145.238281 1491 1161.691406 C 1514.488281 1170.050781 1536.464844 1181.527344 1559 1192 L 1559 1193 C 1543.933594 1191.769531 1528.542969 1184.761719 1514 1180.746094 C 1486.613281 1173.179688 1458.761719 1166.523438 1431 1160.425781 C 1361.652344 1145.191406 1290.835938 1139 1220 1139 L 1220 1140 C 1248.359375 1145.269531 1275.507813 1154.234375 1303 1163 C 1351.953125 1178.53125 1401.714844 1196.570313 1446 1223 C 1467.410156 1235.777344 1497.359375 1250.273438 1512 1271 C 1490.371094 1263.636719 1470.671875 1249.546875 1450 1239.78125 C 1395.875 1214.214844 1340 1189.316406 1282 1174.371094 C 1261.976563 1169.222656 1239.683594 1163 1219 1162 C 1243.648438 1182.253906 1278.171875 1194.660156 1306 1210.285156 C 1358 1239.480469 1407.6875 1272.671875 1450 1315 C 1463.460938 1328.464844 1475.28125 1343 1486.882813 1358 C 1493 1366.132813 1500.863281 1375.09375 1504 1385 C 1491.332031 1376.074219 1480.886719 1362.035156 1469.984375 1351 C 1451.402344 1332.175781 1431.582031 1314.417969 1411 1297.804688 C 1342.621094 1242.613281 1265.367188 1201.160156 1184 1169 C 1187.214844 1175 1194.703125 1178.519531 1200 1182.476563 C 1212 1191.542969 1224.457031 1200.175781 1237 1208.671875 C 1273.742188 1233.558594 1309.199219 1261.207031 1338 1295 C 1348.175781 1306.734375 1364 1324.488281 1367 1340 C 1345.945313 1323 1329.214844 1299.449219 1309 1281.171875 C 1259.511719 1236.410156 1201.367188 1198.191406 1139 1174 C 1142.363281 1181 1150.4375 1186.453125 1156.171875 1191.515625 C 1167.875 1202 1179.769531 1212 1192 1221.664063 C 1237.515625 1257.796875 1293.917969 1299.414063 1302 1362 L 1301 1362 C 1276.46875 1315.425781 1245.765625 1271.511719 1203 1239.757813 C 1184.816406 1226.257813 1162.707031 1216 1142 1207 C 1155.949219 1226.621094 1174.550781 1242.644531 1185 1265 C 1173.707031 1259.730469 1163.367188 1244.425781 1155.410156 1235 C 1139.71875 1216.410156 1118.363281 1192 1095 1183 C 1108.285156 1198.230469 1123.734375 1211.691406 1137 1227 C 1142.800781 1233.433594 1150.382813 1240.230469 1154 1248 C 1144.757813 1245.074219 1136.550781 1238.457031 1128 1234 C 1110.980469 1225 1093.796875 1216.347656 1077 1207 C 1085.671875 1219.308594 1099 1229.667969 1110 1240 C 1114.777344 1244.359375 1121 1248.042969 1124 1254 C 1068 1232.4375 990.414063 1185.796875 1017.425781 1114 C 1020.957031 1104.613281 1025.882813 1096 1032.207031 1088.039063 C 1041.480469 1076.605469 1052.636719 1068.648438 1065 1061 C 1071.390625 1057 1077.726563 1052.433594 1082.960938 1047 C 1086.40625 1043.414063 1088.664063 1038.441406 1093 1036 C 1093 1039.367188 1093.375 1042.652344 1093 1046 C 1100.417969 1039.625 1102.367188 1028.3125 1101.960938 1019 C 1101.800781 1015.359375 1100 1010.726563 1101.605469 1007.226563 C 1102.964844 1004.117188 1107 1003.144531 1110 1002 C 1118 998.761719 1127.210938 994.449219 1136 994 C 1131.878906 989.15625 1125.761719 986.113281 1121 981.828125 C 1110.320313 972.21875 1100.40625 961.320313 1092.925781 949 C 1065.753906 904.246094 1077.730469 844.78125 1100.703125 801 C 1108 787 1118.324219 761.433594 1133 754 C 1132.195313 760.363281 1131 766.566406 1130.996094 773 C 1130.988281 774.078125 1130.292969 778.714844 1131.675781 779.21875 C 1133.730469 780 1141.589844 764.015625 1142.800781 762 C 1152.734375 745.441406 1162.878906 718.171875 1180 708 C 1178.199219 718.417969 1172.742188 728.664063 1170 739 C 1178.3125 731.621094 1185 721 1191.871094 712 C 1210.601563 687.222656 1226.367188 660.273438 1244.425781 635 C 1301 555.75 1379.550781 466.023438 1483 456.171875 C 1503.382813 454.230469 1524 457 1544 461 M 616 570 C 608.496094 566.566406 602 560.296875 595 556 C 574.859375 543.402344 554.585938 531.21875 533 521.308594 C 492.730469 502.820313 451 495.8125 409 484 C 413.375 481.011719 420.757813 481.257813 426 481 C 437.921875 480.414063 449 480.25 461 481.714844 C 501.773438 486.722656 538.46875 502.078125 574 522.28125 C 581.746094 526.683594 589.191406 531.621094 597 536 C 599.9375 537.515625 605 538.539063 607.34375 541 C 609.703125 543.394531 606.445313 548.792969 607 552 C 608.234375 558.824219 613.398438 563.816406 616 570 M 597 487 L 596 488 L 597 487 M 807 488 C 811.4375 503.011719 809 522.324219 810 538 C 812 567.140625 817.996094 596.816406 818 626 L 817 626 C 807.757813 593.429688 805 559.695313 805 526 C 805 514.460938 802.355469 498.769531 807 488 M 613 502 C 620 504.058594 630.773438 508.183594 633 516.015625 C 633.753906 518.421875 634.585938 525.246094 631.425781 526.503906 C 628.5 527.667969 626.257813 522.800781 625 521 C 620.910156 514.722656 615.621094 509.144531 613 502 M 1221 692 C 1235.859375 681.320313 1248 666 1263 654.652344 C 1292.675781 632.011719 1326.648438 615.308594 1362 603.671875 C 1382.964844 596.769531 1404 590.316406 1425 583.332031 C 1430.929688 581.355469 1444.683594 580.121094 1448 575 C 1435 573.371094 1422.886719 572 1410 574.664063 C 1401.3125 576.488281 1393.546875 581.167969 1385 583 C 1391.746094 570.328125 1403.78125 560.285156 1410 548 C 1390 549 1376.753906 560.449219 1360 569 C 1373 544.285156 1386.980469 531.648438 1412 520 C 1407.441406 517 1402.1875 518.742188 1397 519 C 1379.269531 520 1360.960938 529.304688 1347 539.746094 C 1311.796875 566.082031 1283.578125 602.3125 1257 637 C 1244.421875 653.640625 1228.238281 672.117188 1221 692 M 598 589 C 578 579.5625 560.40625 570.035156 538 567.832031 C 529.425781 567 516 567.046875 510 574 C 524.542969 574 540.28125 578.636719 552 587.523438 C 558.660156 592.578125 564.378906 600.726563 572 604.195313 C 591.800781 613.214844 613.980469 617.117188 634 626.308594 C 672 643.824219 702.296875 669.03125 730.167969 700 C 739.519531 710.390625 751.703125 720.355469 758 733 L 759 733 C 759.84375 723.710938 754 715 752 706 C 759.59375 709.570313 765.609375 718.617188 770.917969 725 C 784.46875 741.292969 796.460938 761.585938 813 775 C 810.65625 765 805.523438 755.304688 804 745 C 825.390625 760.742188 829.402344 793.09375 850 809 C 848 799.703125 845.378906 790.375 844 781 C 859.578125 790 872.480469 816.289063 880.242188 832 C 902.796875 877.644531 914 932.152344 881.84375 976 C 872 989.242188 860.585938 997.101563 848 1007 C 857.617188 1007.007813 867.507813 1008.199219 877 1009.753906 C 879.96875 1010.238281 885 1010.414063 886.800781 1013.429688 C 888.820313 1017.113281 886.195313 1024 886 1028 C 885.628906 1038.53125 889.234375 1049.753906 898 1056 L 898 1046 C 903.613281 1050.332031 906.90625 1056.625 913 1060.617188 C 923.65625 1067.59375 936.253906 1071.019531 947 1078 C 959.757813 1086.15625 970.210938 1099.359375 976.679688 1113 C 1000.867188 1164.015625 964.597656 1207.300781 924 1235.71875 C 908.585938 1246.511719 888.945313 1258.164063 870 1261 L 870 1260 C 894.796875 1242.417969 906.335938 1211.59375 927 1190 C 918 1194.0625 910.523438 1202.410156 903 1208.574219 C 883.867188 1224.257813 864.953125 1240.113281 844 1253.320313 C 835.433594 1258.71875 826 1265.832031 816 1268 C 820.589844 1259 831 1250.765625 837.839844 1243 C 853 1225.394531 870.453125 1206.824219 884 1188 C 861.402344 1196.273438 838.8125 1215 820 1229.574219 C 781.292969 1259.796875 745.988281 1295.523438 718 1336 C 704.554688 1355.503906 694.882813 1376.644531 683 1397 L 682 1397 C 682.449219 1375.371094 696 1350.425781 706.574219 1332 C 732.710938 1285.738281 770.945313 1248.507813 810 1213.171875 C 824.355469 1200.179688 842.328125 1188.5 855 1174 C 797.414063 1202.226563 743.757813 1236.035156 696 1279.171875 C 677.867188 1295.546875 660 1312.5625 643 1330.039063 C 635.441406 1338 628 1349.285156 618 1354 C 625.199219 1334.214844 640.9375 1316 654.246094 1300 C 678.210938 1271.246094 706.394531 1244.808594 736 1222 C 759.285156 1204 785.667969 1187.242188 807 1167 C 788.238281 1171.460938 768.691406 1181.378906 751 1189.140625 C 699.214844 1212 650.949219 1241.59375 605 1274.425781 C 587.257813 1287.105469 570 1300.707031 553 1314.210938 C 545 1320.460938 537.53125 1329.332031 528 1333 C 540 1309.296875 565.273438 1288.210938 585 1271 C 623.820313 1236.667969 668 1210.34375 713 1185.140625 C 731.476563 1174.773438 749.40625 1162.15625 769 1154 L 769 1153 C 668.441406 1172.503906 568.1875 1208.300781 478 1257.078125 C 440.359375 1277.4375 399.410156 1295.1875 382 1337 C 387.722656 1336.277344 393.226563 1336 399 1336 L 399 1338 C 380.3125 1340.414063 363.261719 1350 345 1353 C 349.972656 1343.414063 360 1336 368 1328.828125 C 382.773438 1315.464844 397.214844 1302.566406 413 1290.347656 C 475.273438 1242.164063 541.375 1200.734375 617 1176.503906 C 646.445313 1167.070313 675.609375 1156.730469 705 1147.195313 C 716.445313 1143.480469 737.722656 1139.691406 746 1131 C 723.390625 1136.382813 697.195313 1133.5 674 1135.089844 C 639.351563 1137.460938 604.238281 1142.304688 570 1148.25 C 528.363281 1155.480469 486.996094 1164.222656 446 1174.472656 C 427 1179.21875 406.34375 1189.300781 387 1191 L 387 1190 C 405.382813 1178 428.421875 1170.46875 449 1163 C 504.214844 1142.769531 563.550781 1130.757813 622 1125.171875 C 666.839844 1121 718 1122.589844 760 1104 C 749.597656 1101.738281 737.824219 1103.300781 727 1101.386719 C 650 1087.757813 572.183594 1075.613281 494 1074 L 494 1073 C 523.960938 1071.714844 553.902344 1068.722656 584 1070.039063 C 638.875 1072.441406 694.566406 1079 749 1086 C 744 1081.082031 736.460938 1079.566406 730 1077.496094 C 708.992188 1070.757813 686.53125 1073.070313 666 1067 L 666 1066 C 675.773438 1061 687 1056.019531 694 1047 C 668.757813 1047.539063 643.546875 1054 618 1054 L 618 1053 C 628 1048.828125 638.902344 1043.269531 647 1036 C 626.476563 1031.113281 603.683594 1036.828125 583 1037 L 583 1036 C 590 1031.800781 597.390625 1027.683594 605 1024.425781 C 606.992188 1023.574219 612.746094 1022.351563 613.367188 1020 C 614 1017.191406 602.738281 1016.113281 601 1016 C 587 1014 573.785156 1017 560 1018 L 560 1017 C 570.246094 1011.019531 586.714844 1008.015625 595 1000 C 572.679688 996.71875 550.378906 998.171875 528 1001 C 540 988.191406 567.8125 987 584 983 L 584 982 C 563.605469 976.722656 542.835938 976.046875 522 977 C 513 977.351563 503.753906 976 495 978 L 495 977 C 517 965.382813 548.503906 964 573 964 C 567.714844 958.425781 557.246094 957 550 955 C 522.371094 947.074219 493.984375 953 466 953 L 466 952 C 497.839844 939.414063 531.371094 936.347656 565 939 L 565 938 C 548.816406 933.382813 533.992188 927.792969 517 926.171875 C 499 924.457031 480.894531 927 463 927 L 463 926 C 492 916.546875 523 914.785156 552 905.109375 C 565.53125 900.582031 580.652344 891.324219 595 898.558594 C 609 905.671875 606.765625 927.738281 609.261719 941 C 613 961.636719 624 980.644531 638.171875 996 C 673.71875 1035 736.953125 1035.480469 782 1014.21875 C 795.625 1007.785156 807.609375 999.476563 820 991.027344 C 825 987.535156 832.347656 982.460938 838.9375 984.433594 C 847 987 835.601563 995.597656 833 998 C 856.925781 994 861.996094 978.667969 861 957 C 860 934 854.53125 911 847.496094 889 C 844.894531 881 842.199219 872.773438 838.695313 865 C 812 806 753.757813 756.46875 686 778.027344 C 660.421875 786.167969 641.777344 804.144531 621 820.113281 C 605.738281 832 587.640625 835 569 830.222656 C 563.199219 828.742188 554.679688 827.019531 551 822 C 569 821.21875 602.246094 816.21875 614 801 C 604 800.792969 581 795.28125 575 787 C 590.1875 787.652344 605.863281 792.011719 621 788.472656 C 623 788 635.253906 784.464844 633.792969 781.324219 C 632.492188 778.53125 624.675781 778 622 777.140625 C 613.773438 774.808594 597.585938 770.582031 593 763 C 612.207031 764.519531 630.574219 770 650 770 C 640.757813 757.449219 623.335938 750.304688 610 743 L 610 742 C 631.84375 742.058594 653.914063 753.121094 675 758 C 662 740.441406 637 731 618 722 L 618 721 C 647.226563 724.695313 671 737.820313 698 748 C 682 726.53125 663.507813 711.320313 640 699 L 640 698 C 669.867188 700.441406 699.527344 724.03125 725 738 C 712.339844 715.777344 692.34375 695.4375 670 683 L 670 682 C 693.636719 686.070313 717.832031 704.355469 736 719 C 729.34375 707.480469 718.359375 697.355469 709 688 C 672.953125 652 623.800781 629.066406 575 616 C 559.976563 611.78125 545.328125 604.503906 530 602 C 527.429688 601.488281 515.660156 599.546875 514.632813 603.386719 C 514 605.410156 518.761719 607.109375 520 607.78125 C 525 610.570313 531 613.730469 534 619 C 525.886719 618.832031 518 617.394531 510 618.578125 C 508.660156 618.773438 503 619 503 621 C 503 623.09375 511.398438 624.292969 513 625 C 522.429688 628.039063 531.53125 633.816406 540 639 L 540 640 C 522 639.617188 494.796875 626.046875 480 643 C 496.980469 643.140625 514.195313 650.109375 529 658 C 524.578125 661.019531 519 659.660156 514 660.171875 C 506.929688 661 499.914063 662.664063 493 664.207031 C 491.507813 664.539063 482 665.667969 482.632813 668 C 483.507813 671.191406 497.835938 674.699219 501 676.246094 C 504.992188 678.191406 509 680 513 682 L 513 683 C 497.6875 683 480.9375 674.445313 466 678 L 466 679 C 477 682.398438 499.339844 694.652344 505 705 C 493.425781 700.78125 481.492188 699 470 694 C 465.746094 692 459.402344 690.277344 457 686 C 453.335938 679.066406 460.347656 669.113281 465 664.804688 C 465.660156 664.277344 470.523438 660.609375 468.789063 659.585938 C 464.402344 657 449.800781 666.035156 446 668.140625 C 431.625 676.09375 419.171875 686.777344 408.171875 699 C 402.425781 705.386719 397.6875 716.097656 390 720 C 399.304688 692.492188 416.421875 668.441406 438 649.175781 C 446.515625 641.570313 458 637 466 629 C 450.300781 630.242188 434 633.738281 420 640.808594 C 411.339844 645.136719 403.925781 652.566406 395 656 C 406.679688 629.277344 435.453125 605.050781 462 594 L 462 593 C 452.378906 590.734375 440.230469 594 431 597 C 405 605.527344 383.800781 623.027344 368 645 L 367 645 C 368 634.71875 374.613281 624.546875 380 616 C 398 587.6875 429.28125 566.660156 463 564 L 463 563 C 439.71875 557.457031 417.988281 565.527344 395 566 L 395 565 C 419.445313 554 443.730469 545.003906 471 545 L 471 543 C 452.652344 542.199219 434.617188 536.464844 416 536.015625 C 402 535.679688 387.683594 541 374 540 C 385.945313 530.359375 410 527.628906 425 526 C 467.554688 520.75 513.761719 531 552 549.757813 C 571 559.128906 588 569.203125 598 589 M 1450 660 C 1455.617188 653.574219 1466.320313 644.078125 1475 642.574219 C 1477.472656 642.144531 1485.792969 643.484375 1485.792969 647.089844 C 1485.792969 650 1480 652.746094 1478 654 C 1469.253906 659 1459.863281 660 1450 660 M 1463 680 L 1462 681 L 1463 680 M 488 718 C 478.246094 715.476563 468.191406 715.679688 459 711.214844 C 456.167969 710 450.355469 707.199219 450.921875 703.210938 C 451.5625 698.699219 459.730469 698.191406 463 699 C 470.355469 700.753906 485.5625 710.796875 488 718 M 1216 808.328125 C 1248 802.703125 1261.78125 852.804688 1229 858.671875 C 1219.304688 860.40625 1208.347656 858.550781 1201.679688 850.824219 C 1189 836.324219 1196.441406 811.757813 1216 808.328125 M 1308 816 C 1349.484375 849.78125 1358.609375 912.519531 1320.824219 953 C 1297.714844 977.703125 1261.234375 982.757813 1230 973.410156 C 1220.605469 970.601563 1207.515625 966.601563 1201 959 C 1219.765625 960.53125 1236.1875 963 1255 958.496094 C 1293.914063 949.300781 1325.511719 915 1325.996094 874 C 1326 860.371094 1322.914063 847.476563 1317.574219 835 C 1315 829.175781 1308 822.21875 1308 816 M 717 840.324219 C 747.691406 835.25 758 884.433594 727 889.675781 C 693.382813 895.332031 682.671875 846.003906 717 840.324219 M 788 848 C 850.945313 901.566406 803.753906 1022 718 1003.113281 C 707 1000.734375 696.476563 997 687 991 L 687 990 C 701 990.605469 712.894531 992.730469 727 989.5 C 766.664063 980.410156 799 944.277344 800.960938 903 C 801.488281 891 799.710938 878.503906 795.910156 867 C 793.871094 860.824219 788.613281 854.328125 788 848 M 252 915 C 264.308594 912.707031 278.285156 914 290 909.4375 C 301.257813 905.136719 311.183594 894.765625 322 889 C 316.523438 886.765625 309.515625 890.164063 304 891.425781 C 287.796875 895.128906 263 901.792969 252 915 M 228 954 C 232.726563 955.3125 238.59375 951.5625 243 949.800781 C 254.171875 945.332031 265.664063 942 277 938 C 279.839844 937 290.792969 934.113281 290.792969 930.195313 C 290.792969 927.234375 276.824219 930.785156 275 931.347656 C 258 936.570313 242.730469 944.070313 228 954 M 1086 1018 L 1085 1018 C 1074.296875 1004 1056 991.351563 1038 990.089844 C 1022.519531 989.003906 1007.417969 994 992 994 C 972.4375 994 950.347656 991.113281 932 999.347656 C 918.890625 1005.230469 912.8125 1017.726563 902 1026 C 898 1012.53125 905.761719 994.042969 911.472656 982 C 938.933594 924.074219 1010 917.53125 1056 957 C 1070.503906 969.285156 1091.765625 997.027344 1086 1018 M 1657 1065 L 1656 1066 L 1657 1065 M 1621 1196 L 1620 1197 L 1621 1196 M 1132 1326 C 1123.367188 1317.097656 1114.816406 1309.207031 1102 1307 C 1115 1322.015625 1121.996094 1334.558594 1122 1355 L 1121 1355 C 1115.199219 1340.039063 1105.78125 1324.667969 1091 1317 C 1103 1332.085938 1109 1348.578125 1109 1368 L 1108 1368 C 1102 1349.332031 1092.304688 1334.464844 1077 1322 C 1085.820313 1339.832031 1095 1363.675781 1089 1384 L 1088 1384 C 1085.3125 1363.171875 1072.214844 1345 1057 1331 C 1060 1349 1062.789063 1362.628906 1062 1381 L 1061 1381 C 1056.210938 1362.488281 1049.820313 1339.339844 1038 1324 C 1038.386719 1342.765625 1042.449219 1361.109375 1041.984375 1380 C 1041.726563 1390.632813 1038.527344 1400.601563 1037 1411 L 1035 1411 C 1035 1385.710938 1028.460938 1362.558594 1019.574219 1339 C 1017.429688 1333.308594 1015.179688 1327.605469 1012.796875 1322.003906 C 1012.394531 1321.066406 1010.671875 1316.226563 1008.921875 1318 C 1005.445313 1321.285156 1008 1337.273438 1008 1342 C 1008 1359.019531 1010 1388.09375 1001 1403 C 991.308594 1374.605469 986 1344 986 1314 C 979.960938 1320.226563 977.6875 1331.753906 975.628906 1340 C 970 1362.300781 969.8125 1382.324219 970 1405 L 969 1405 C 956.21875 1378.097656 956.300781 1352.632813 960 1324 C 943.21875 1345.773438 944.984375 1376.421875 945 1402 L 944 1402 C 938.542969 1389 935 1376.386719 935 1362 C 935 1354.011719 937.863281 1346 937 1338 C 928.628906 1351.816406 923 1367.746094 923 1384 L 922 1384 C 913.808594 1367.265625 918.199219 1343.007813 926 1327 C 906.949219 1344 902 1374.179688 904 1398 L 903 1398 C 891 1376.742188 899.804688 1353.03125 902 1331 C 890.359375 1341.746094 885.636719 1359.246094 882 1374 L 881 1374 C 880.582031 1353.667969 882.988281 1335.410156 896 1319 C 881.386719 1325.425781 871.941406 1340.398438 867 1355 C 864.40625 1348.765625 867.769531 1339.050781 870 1333 C 879 1309.199219 903.957031 1299.054688 924 1286.21875 C 937.199219 1277.761719 949 1267.699219 961 1257.5625 C 969.84375 1250.035156 978 1241.695313 990 1239.46875 C 1011.429688 1235.453125 1028.589844 1251.246094 1044 1263.550781 C 1054.558594 1272 1066 1279.300781 1078 1285.691406 C 1095.253906 1295 1130.972656 1300.699219 1132 1326 M 926.332031 1325.667969 C 926.277344 1325.722656 926.222656 1326.777344 926.667969 1326.332031 C 926.722656 1326.277344 926.777344 1325.222656 926.332031 1325.667969 M 1557 1325 L 1556 1326 L 1557 1325 M 524 1401 C 519.832031 1391.34375 511.503906 1383.035156 503 1377 L 503 1376 C 582.230469 1376.21875 671 1427.144531 686.390625 1509 C 690.804688 1532.578125 689 1556.464844 680.679688 1579 C 677.726563 1587 673.800781 1597.660156 667 1603 C 670.351563 1560.582031 671.9375 1502.367188 632 1474 C 643.488281 1501.597656 659 1544.300781 641 1573 C 637.4375 1561 640 1546.632813 637.550781 1534 C 629.550781 1494.246094 600.824219 1439.066406 556 1433 C 561.566406 1440 568.507813 1445.460938 573.453125 1453 C 605.628906 1502.046875 618.585938 1570.078125 591 1624 L 590 1624 C 590.605469 1594.691406 596.300781 1550.367188 568 1530 C 575.304688 1567.65625 565 1605.621094 544 1637 L 543 1637 C 544.964844 1617.300781 550.710938 1601.054688 544.492188 1581 C 543.792969 1578.746094 539.660156 1562.566406 536.46875 1564.207031 C 532.851563 1566.070313 530.945313 1583.804688 529.386719 1588 C 522.539063 1606.390625 512 1632.234375 493 1641 C 494.425781 1631.300781 497.527344 1622 497.960938 1612 C 499.480469 1577.320313 490 1539.320313 473 1509 C 462.882813 1490.613281 448.460938 1471.773438 426 1470 C 447.339844 1499.800781 455 1536 455 1572 C 455 1585.589844 454.824219 1601.136719 450 1614 L 449 1614 C 448.988281 1594.636719 442.710938 1571.171875 431.996094 1555 C 428.257813 1549.355469 424.257813 1543 418 1540 C 426.191406 1568.65625 432 1596 427.425781 1626 C 426 1634.109375 424.601563 1649.402344 417 1654 C 417 1633 407.8125 1613.117188 397.824219 1595 C 396 1591.8125 391.53125 1579.457031 387.886719 1578.632813 C 385.390625 1578.0625 384.433594 1584.488281 384 1586 C 381.507813 1594.671875 379 1604 379 1613 C 367.742188 1608.234375 359.910156 1595.542969 352.882813 1586 C 335.390625 1562.238281 323.363281 1533.042969 318.320313 1504 C 316.820313 1495.371094 317.351563 1486.5 316 1478 L 315 1478 C 301.175781 1511.644531 295.757813 1545.585938 300.285156 1582 C 301.949219 1595.359375 308.691406 1608 310 1621 C 283 1604.199219 266.433594 1578 258 1548 C 246 1562.800781 250.398438 1586 257 1602 C 247.171875 1597.589844 239.339844 1587.519531 233 1579 C 212.238281 1550.195313 205.21875 1511.402344 226 1481 C 199 1492.394531 191.90625 1532.425781 185 1557 L 184 1557 C 176.335938 1525 187.828125 1488.523438 209 1464 C 217.984375 1454 228.214844 1445.351563 241 1440.695313 C 243.9375 1439.625 251.453125 1436.078125 253.882813 1439.605469 C 255.734375 1442.292969 254 1449.710938 254 1453 C 272.289063 1430.757813 287.964844 1409.480469 317 1400.195313 C 329.574219 1396.175781 344 1398.59375 356 1394.746094 C 363.730469 1392.246094 370.1875 1386 378 1383.179688 C 402.738281 1374.355469 426.199219 1376.234375 451 1383 C 448.332031 1379.589844 444.667969 1377.410156 442 1374 C 460.183594 1374.152344 478.578125 1379.605469 495 1387.234375 C 504.367188 1391.585938 513.929688 1398.695313 524 1401 M 1622 1413 L 1621 1414 L 1622 1413 M 1422 1430 C 1410.328125 1445.214844 1391.179688 1454.617188 1383 1473 C 1393.867188 1467 1403.71875 1459.519531 1415 1454.027344 C 1452.171875 1436 1493.695313 1426.722656 1535 1432.289063 C 1547.953125 1434.035156 1557.886719 1441.222656 1570 1444.503906 C 1584.777344 1448.5 1598.640625 1446.765625 1613 1454.320313 C 1629.96875 1463.246094 1639.417969 1478 1654 1489 C 1653 1486.28125 1650.257813 1481.453125 1651.648438 1478.601563 C 1653.265625 1475.273438 1661 1476.8125 1664 1477.074219 C 1676.238281 1478.214844 1688.527344 1483.71875 1699 1490 C 1726.722656 1506.117188 1750.503906 1536.664063 1756 1569 L 1755 1569 C 1746.625 1556.6875 1736.25 1543.628906 1724 1535 C 1740.308594 1563.65625 1748.742188 1587.636719 1742.195313 1621 C 1740.644531 1629 1738.277344 1644.5625 1731 1649 C 1731 1621.640625 1721.375 1591.316406 1709.246094 1567 C 1704.316406 1557.117188 1698.949219 1546 1690 1539 C 1701.996094 1584 1693.605469 1629.792969 1662 1665 C 1652.300781 1676.046875 1640.308594 1688.007813 1626 1693 C 1635.953125 1675.050781 1644.820313 1657.136719 1644.820313 1636 C 1644.820313 1630.492188 1643.84375 1624.421875 1642.851563 1619.003906 C 1642.628906 1617.800781 1641.808594 1613.070313 1639.59375 1614.207031 C 1636 1616.011719 1633.296875 1630.164063 1631.371094 1634 C 1623.488281 1649.707031 1611.671875 1675.226563 1595 1683 C 1607.941406 1637.621094 1614.398438 1579.183594 1597 1534 L 1596 1534 C 1595.242188 1570.753906 1578.898438 1607.449219 1563.363281 1640 C 1559.324219 1648.460938 1554.203125 1656.300781 1548.882813 1664 C 1547.695313 1665.722656 1545.457031 1670.792969 1542.945313 1670.792969 C 1540.222656 1670.792969 1539.167969 1665 1538.585938 1663 C 1536 1655 1533.925781 1647 1531 1639 C 1521.859375 1657.671875 1520.398438 1683.707031 1522 1704 C 1515 1700.257813 1511 1691 1507.925781 1684 C 1501.1875 1669.433594 1497.1875 1653.007813 1496 1637 C 1495.570313 1629.40625 1497.1875 1621.460938 1496 1614 L 1495 1614 C 1485.710938 1641.457031 1483.726563 1663.171875 1486 1692 L 1485 1692 C 1459.285156 1641.683594 1470.5625 1585.074219 1491 1536 C 1473.246094 1539.15625 1460 1557.046875 1452.222656 1572 C 1438.378906 1598.476563 1431.734375 1629.167969 1433 1659 C 1433.570313 1671.144531 1437.75 1683 1438 1695 C 1423.257813 1687.132813 1411.785156 1664 1405.425781 1649 C 1403.347656 1644.140625 1399.839844 1628.378906 1394.832031 1626.207031 C 1391.964844 1625 1391.222656 1631.453125 1390.910156 1633 C 1389 1641.714844 1387 1650.050781 1387 1659 C 1387 1666.128906 1388.695313 1673 1389 1680 L 1388 1680 C 1369.832031 1652.195313 1368.472656 1620.773438 1371 1589 C 1348.980469 1606 1349.917969 1641.609375 1353 1666 L 1352 1666 C 1333.441406 1630.574219 1330.550781 1584.167969 1342.507813 1546 C 1346.238281 1534.089844 1352.964844 1525.011719 1358 1514 C 1315.230469 1538 1307 1592.136719 1307 1636 C 1291 1621.339844 1289 1594.164063 1289 1574 C 1289 1516.210938 1329.558594 1470.472656 1379 1445.753906 C 1391.984375 1439.261719 1407.378906 1431.457031 1422 1430 M 1723 1534 L 1724 1535 L 1723 1534 M 1311 1658 C 1155.4375 1658 999.648438 1659 844 1659 C 804.746094 1659 765.347656 1658.019531 726 1658 C 715.898438 1658 713.449219 1653 707.964844 1645 C 706.882813 1643.453125 702.625 1639.148438 704.175781 1637.042969 C 705.5625 1635.152344 711 1637 713 1637 C 720.972656 1637.308594 729 1637 737 1637 L 1272 1637 C 1278.902344 1637 1294.65625 1634.054688 1300.429688 1638.027344 C 1304.683594 1641 1309 1653.132813 1311 1658 M 657 1693 L 657 1691 C 694.996094 1690.214844 732.984375 1686 771 1685.015625 C 905 1681.726563 1039.804688 1685 1174 1685 C 1214.363281 1685 1254.699219 1686 1295 1686 C 1304.882813 1686 1333 1680.53125 1330.496094 1698 C 1329.925781 1701.6875 1324.820313 1701 1322 1701 L 1293 1701 C 1252.703125 1701.003906 1212.375 1703 1172 1703 C 1046.710938 1703 921 1706.050781 796 1703 C 749.65625 1702 703.28125 1693.128906 657 1693 M 83 1770 C 124.171875 1770.113281 165.828125 1776.15625 207 1778 C 279.28125 1781.125 351.703125 1781 424 1784.039063 C 458.289063 1785.539063 492.621094 1786 527 1786 C 545.527344 1786 564.617188 1787.324219 583 1785 C 572.71875 1780.675781 558 1782.664063 547 1782 C 523.308594 1780.289063 499.691406 1777.542969 476 1776 C 384.269531 1769.59375 292 1767 200 1767 L 112 1767 C 105 1767 87 1763.820313 83 1770 "/>
</g>
</svg>
