<?xml version="1.0" encoding="UTF-8"?>
<svg xmlns="http://www.w3.org/2000/svg" xmlns:xlink="http://www.w3.org/1999/xlink" width="2000pt" height="2000pt" viewBox="0 0 2000 2000" version="1.1">
<g id="surface1">
<path style=" stroke:none;fill-rule:nonzero;fill:rgb(0%,0%,0%);fill-opacity:1;" d="M 1262 1393 L 1262 1394 C 1247.28125 1398.6875 1232.964844 1410.050781 1220 1418.304688 C 1195.605469 1434 1171.238281 1449.257813 1148 1466.523438 C 1039.28125 1547.292969 952.839844 1653.175781 926.804688 1789 C 920.515625 1821.820313 922 1854 922 1887 L 923 1887 C 927.347656 1873.246094 927.648438 1858.09375 930.886719 1844 C 939 1808.574219 949.960938 1773.402344 964.328125 1740 C 1012.695313 1627.578125 1096.417969 1532.425781 1200 1467.574219 C 1225 1451.832031 1251.996094 1432.191406 1280 1422 C 1261.191406 1439.15625 1237.332031 1452.691406 1217 1468.234375 C 1182.589844 1494.542969 1150 1523.800781 1120 1555 C 1056.753906 1620.703125 1023.304688 1703.464844 1019.964844 1794 C 1018.9375 1822 1019.398438 1852.101563 1028 1879 L 1029 1879 C 1028.921875 1760.453125 1074.761719 1640.328125 1152.285156 1550 C 1188.957031 1507.269531 1232.179688 1472 1279 1441 C 1267 1454.613281 1250.332031 1465.671875 1237 1478.089844 C 1210.6875 1502.601563 1185.664063 1529.558594 1163.652344 1558 C 1155.457031 1568.585938 1147.277344 1579.464844 1140.453125 1591 C 1138.675781 1594.007813 1134.261719 1600.019531 1134.992188 1603.6875 C 1135.945313 1608.445313 1152 1610 1156 1611 C 1178.910156 1616.3125 1203.398438 1621 1227 1621 C 1256.371094 1621.152344 1284.503906 1621.398438 1313 1612.253906 C 1358.714844 1597.585938 1395 1553.496094 1395 1505 C 1426.367188 1524 1456 1496.046875 1474.730469 1471 C 1491 1449.058594 1504.464844 1423.09375 1509.539063 1396 C 1512.390625 1380.796875 1509 1363.558594 1513.785156 1349 C 1517.613281 1337.25 1528.511719 1328 1534.214844 1317 C 1543 1300.027344 1543 1284.414063 1543 1266 C 1536.347656 1269 1531.394531 1273.753906 1524 1275.332031 C 1510.554688 1278.199219 1494.828125 1273.675781 1481 1274.015625 C 1469.375 1274.300781 1458 1279 1447 1281.730469 C 1441.601563 1283.121094 1419.496094 1289.59375 1416 1282.484375 C 1414.90625 1280 1418.207031 1276.773438 1419.601563 1275 C 1424 1269.207031 1428.738281 1263.203125 1434 1258.039063 C 1451.183594 1241.238281 1475.328125 1231.195313 1499 1228.285156 C 1507.601563 1227.230469 1516.53125 1229.347656 1525 1228 C 1487.390625 1165.75 1419.34375 1127.632813 1386.523438 1062 C 1362.890625 1014.746094 1356.480469 955 1370.910156 904 C 1377.398438 881.113281 1391 861.40625 1398.480469 839 C 1402.449219 827 1402 813.699219 1394.777344 803 C 1391.769531 798.636719 1379.464844 791.421875 1380.402344 786 C 1382.605469 773.246094 1400.664063 756.660156 1408.753906 747 C 1440.617188 709 1477.597656 683.128906 1519 657 L 1519 656 C 1475.464844 660.339844 1430.914063 695.453125 1404.613281 728 C 1394.851563 740.078125 1386.445313 753.582031 1380.605469 768 C 1379.535156 770.640625 1377.355469 782 1373.824219 782 C 1369.539063 782 1359.863281 770.128906 1361.273438 766 C 1367.761719 747 1384.207031 727.6875 1395.332031 711 C 1425.335938 666 1462.960938 624.378906 1503 588.171875 C 1516.195313 576.234375 1529.90625 564.738281 1544 554 C 1550.464844 549 1560.847656 544.042969 1565 537 C 1547.882813 542 1530.222656 553.265625 1515 562.398438 C 1468.183594 590.488281 1426.453125 629.332031 1395 674 C 1381.386719 693.40625 1368.667969 715.59375 1360.691406 738 C 1359.214844 742.152344 1356.449219 761.429688 1351.753906 762.367188 C 1348 763.089844 1337.679688 749.328125 1337.8125 746 C 1338.367188 732 1350.734375 714 1356.28125 701 C 1375 657.40625 1401 617 1428 578 C 1438.398438 563 1452 549 1461 533 C 1448.355469 540.308594 1438.230469 552.753906 1428 563 C 1396.554688 594.496094 1369.585938 633.246094 1351.652344 674 C 1344.613281 690 1338.542969 707.660156 1336 725 C 1335.585938 727.816406 1334.777344 741.734375 1331.734375 742.367188 C 1328.835938 743 1323.800781 735.800781 1322 734 C 1313.492188 725.480469 1304.730469 717.316406 1296 709.035156 C 1272.210938 686.472656 1246.375 665.5625 1220 646.117188 C 1209.265625 638.199219 1198.964844 628 1187 622 L 1187 621 L 1199 626 C 1183.445313 503 1244.203125 386.164063 1285.679688 274 C 1298.457031 239.453125 1312.265625 204.519531 1318.246094 168 C 1320.316406 155.347656 1323.359375 136.558594 1316 125 C 1307.464844 111.054688 1289.746094 114.421875 1277 120 C 1247.21875 132.605469 1221.804688 154.246094 1197 174.574219 C 1105.929688 249.21875 1024.753906 334.507813 936 411.574219 C 912.808594 431.714844 890.796875 453.238281 868 473.828125 C 863.441406 478 846.207031 488.679688 846.207031 495.175781 C 846.207031 500.058594 864 506.285156 868 508.246094 C 891 519.824219 914 531.679688 936 545.425781 C 985 576.15625 1029.929688 616.3125 1058.851563 667 C 1068 683.21875 1078.808594 703.449219 1082 722 L 1081 722 C 1073.414063 701.558594 1057.734375 681.453125 1044.882813 664 C 1015.203125 623.683594 978.378906 586.828125 936 560 C 924.871094 553 914.246094 544.054688 902 539 C 905.671875 545.070313 913.566406 549.382813 919 554 C 928.710938 562.027344 938 571.089844 947 580.003906 C 986 618.730469 1022.730469 657.089844 1053.332031 703 C 1065.320313 721 1082.289063 746.453125 1086 768 C 1074.675781 753.148438 1065.203125 737 1053.765625 722 C 1027.589844 688 996.785156 655.414063 962 630.152344 C 924.835938 603.160156 880.582031 586.828125 845 557.535156 C 826.714844 542.480469 812 523.457031 800.425781 503 C 776.46875 461.117188 766 411.574219 755.5 365 C 743.375 311.703125 729.441406 258.65625 711.503906 207 C 698 168.21875 672.832031 110.609375 630 97.570313 C 573.882813 80.484375 524.964844 138.746094 495.523438 178 C 415.480469 284.722656 364.539063 405.347656 322.492188 531 C 317.675781 545.40625 308.675781 557.164063 300.8125 570 C 289.261719 589 278.359375 608 269.179688 628 C 254.824219 659.488281 251.28125 695.605469 234.6875 726 C 217.425781 757.617188 192.382813 782.355469 179.859375 817 C 161.734375 867.152344 165.832031 921.535156 175.460938 973 C 178.277344 988.0625 181.617188 1003.226563 185.707031 1018 C 187.882813 1026 192.238281 1037 190.621094 1045 C 187 1063.25 174.816406 1082.527344 168 1100 C 154.539063 1135 143.402344 1170.757813 133.882813 1207 C 123.71875 1245.703125 116.320313 1285.449219 110.714844 1325 C 91 1463.558594 84.464844 1618.449219 171.882813 1737 C 185.59375 1755.589844 201.59375 1772.574219 219 1787.71875 C 244 1809.542969 271.199219 1828.132813 301 1843 C 348.851563 1867 401 1883 454 1890.699219 C 561.460938 1906.53125 673.847656 1893.414063 775 1853.601563 C 798.246094 1844.449219 821 1834.171875 843 1822.230469 C 850 1818.351563 862 1814.496094 867.398438 1808.367188 C 870.253906 1805.101563 870.324219 1797.210938 871 1793 C 872.988281 1782.445313 876.339844 1772.289063 879.273438 1762 C 887.308594 1733.804688 900.484375 1706.160156 915.402344 1681 C 977 1577.03125 1068 1492.148438 1174 1434.691406 C 1193.601563 1424.0625 1213.632813 1414.214844 1234 1405.140625 C 1243.167969 1401.054688 1252.183594 1395.332031 1262 1393 M 452 321 C 449 331.371094 442.632813 341 438.601563 351 C 429.375 374 421.367188 397.128906 414.746094 421 C 396.65625 486.191406 395.464844 555.207031 402.167969 622 C 406.351563 663.667969 417.574219 704.253906 433.199219 743 C 445.921875 774.546875 462.515625 803 467.574219 837 C 474.179688 881.636719 458.207031 927.132813 448 970 C 439 962 436.816406 945.332031 434.550781 934 C 427.726563 900 432.546875 866 422 832 C 410.824219 795.253906 394.726563 760.402344 385.375 723 C 360.78125 624.632813 360.761719 515.105469 398.800781 420 C 408.789063 395.027344 419.683594 371.074219 433.601563 348 C 438.945313 339.140625 443.902344 327.597656 452 321 M 1042 541 C 1051.679688 556.207031 1058.800781 573.644531 1066.308594 590 C 1090.566406 643 1111.839844 703.09375 1112 762 L 1111 762 C 1104.199219 744.238281 1100.8125 724.355469 1095.578125 706 C 1086 672.445313 1075.515625 639.097656 1064.484375 606 C 1059.449219 591 1053.933594 576 1048.316406 561 C 1046 555.0625 1041.179688 547.441406 1042 541 M 1187 620 L 1186 621 L 1187 620 M 1074 791 C 1066.550781 785.25 1061.171875 776.011719 1054.828125 769 C 1043.183594 756.121094 1030.886719 743.824219 1018 732.171875 C 980.875 698.59375 938 673.179688 894 650 C 898.8125 648.582031 904.515625 652.234375 909 654 C 921.429688 659 933.972656 664 946 669.742188 C 997.257813 694.492188 1054.679688 734.253906 1074 791 M 1087 768 L 1088 771 C 1086.710938 769.558594 1086.597656 769.765625 1087 768 M 1427.996094 859.535156 C 1376.28125 868.058594 1372.253906 940.582031 1377.871094 981 C 1379.179688 990.414063 1380 999.796875 1382.574219 1009 C 1385.988281 1021.480469 1389.703125 1033.582031 1395.921875 1045 C 1397.796875 1048.445313 1400.453125 1055.222656 1404.324219 1056.824219 C 1410.679688 1059.449219 1417.667969 1045.265625 1419.742188 1041 C 1428.492188 1023 1430.269531 998.714844 1427.710938 979 C 1427.433594 977 1426.5625 965.207031 1423.828125 965.207031 C 1421.589844 965.207031 1419.195313 970.464844 1417.8125 972 C 1413 977 1405.292969 978.71875 1399 975.425781 C 1389.886719 970.660156 1383.613281 959.261719 1385.324219 949 C 1387 938.59375 1396.902344 928.636719 1408 933.003906 C 1420.8125 938.046875 1426.859375 956.144531 1431 968 C 1441.960938 998 1442.679688 1034.652344 1433.429688 1065 C 1430.683594 1074.015625 1423.507813 1081.226563 1420.863281 1090 C 1419.300781 1095.179688 1432.574219 1112.792969 1437.855469 1112.792969 C 1442.839844 1112.792969 1446.742188 1099.734375 1448.1875 1096 C 1455.257813 1077.753906 1458 1057.464844 1458.960938 1038 C 1460.609375 1000.332031 1452.1875 960 1433.574219 927 C 1428.328125 917.714844 1422.289063 908.273438 1414.386719 901 C 1412.167969 899 1403.21875 894.335938 1402.632813 891.710938 C 1402 889.085938 1408.3125 887 1410 886.167969 C 1417.621094 882.582031 1426.972656 879.710938 1431.46875 872 C 1434 867.488281 1436 858.203125 1427.996094 859.535156 M 1267 1132 C 1211.304688 1092.765625 1204.855469 1017.519531 1180 960 C 1172.824219 943 1161.855469 927 1149.710938 913 C 1144.183594 906.648438 1136.859375 902 1132 895 C 1154 899.257813 1176.519531 924.179688 1189.574219 941 C 1220.453125 980.78125 1236.390625 1029.429688 1250.71875 1077 C 1256 1094.800781 1264.519531 1113.585938 1267 1132 M 1053 912 C 987.40625 945.152344 990.933594 1062.246094 1054 1098.402344 C 1074.246094 1110.011719 1096 1099.324219 1109.675781 1083 C 1123.898438 1066 1127.902344 1041.53125 1128 1020 C 1128 999 1120.414063 981 1115 961 C 1124.910156 966.34375 1130.851563 983 1134.796875 993 C 1148.8125 1028.679688 1146.40625 1076.046875 1124 1108 C 1095 1149.484375 1038.648438 1144 1000 1120.550781 C 967.976563 1101.230469 943 1072.4375 926.753906 1039 C 922.390625 1030.0625 913.40625 1014.191406 914.792969 1004 C 916.246094 993.328125 925.222656 981.515625 931.289063 973 C 950.816406 945.605469 979.210938 923.816406 1012 915.269531 C 1022.542969 912.519531 1043 906.019531 1053 912 M 1082 943.328125 C 1111.296875 938.132813 1129.820313 990.449219 1098 997.605469 C 1066.242188 1004.75 1049 949.167969 1082 943.328125 M 892 1007 C 917.707031 1087.371094 986.789063 1152.722656 1072 1160.828125 C 1102.488281 1163.730469 1133.199219 1157 1161 1145 C 1169.976563 1141 1178.785156 1136 1187 1130.65625 C 1191.6875 1127.609375 1197 1122.738281 1203 1123.175781 C 1214 1124 1220.28125 1141 1222.710938 1150 C 1226.277344 1163.289063 1212.972656 1166.765625 1203 1171.753906 C 1179.464844 1183.519531 1154.167969 1191.457031 1128 1194.714844 C 1042.363281 1205.367188 950.34375 1172.398438 909 1092 C 898.914063 1072.382813 892.429688 1051.058594 890.910156 1029 C 890.425781 1022 888.53125 1013.523438 892 1007 M 1543 1340 L 1543 1341 C 1555.789063 1344.046875 1570.808594 1343 1584 1344.171875 C 1607.945313 1346.496094 1632.367188 1349.730469 1656 1354.449219 C 1686.925781 1360.625 1717.488281 1367.625 1748 1375.578125 C 1762.914063 1379.46875 1777.890625 1386.433594 1793 1389 C 1789.796875 1384.011719 1783 1382 1778 1379.164063 C 1764.773438 1372.105469 1750.917969 1366 1737 1360.398438 C 1673.363281 1335 1610.367188 1331.484375 1543 1340 M 1199 1344 L 1199 1345 C 1166.886719 1356 1129.386719 1359.027344 1096 1365.261719 C 1038.351563 1376.019531 980.640625 1388.828125 924 1404.152344 C 856 1422.542969 789 1445 724 1471.8125 C 699.496094 1482 676.726563 1498 652 1507 C 660.25 1495.824219 677.210938 1488.101563 689 1481 C 717.566406 1463.789063 746.605469 1448.433594 777 1434.695313 C 866.199219 1394.371094 964.175781 1370.449219 1061 1357.71875 C 1106.632813 1351.71875 1152.949219 1345 1199 1344 M 1244 1364 L 1244 1365 C 1202 1374.605469 1160.820313 1392.636719 1121 1408.550781 C 1035 1443 951.425781 1482.351563 875 1535.023438 C 844 1556.347656 814.621094 1579 786 1603.273438 C 772.203125 1615 757.882813 1633.761719 742 1642 C 748.710938 1629 761.574219 1617 771.675781 1606.183594 C 791.648438 1585.113281 811.972656 1564.621094 834 1545.714844 C 918 1473.589844 1020.441406 1423.207031 1126 1391.117188 C 1150 1383.796875 1174.476563 1377.765625 1199 1372.117188 C 1213.609375 1368.753906 1228.921875 1364.125 1244 1364 M 1794.667969 1389.332031 C 1794.222656 1389.777344 1795.277344 1389.722656 1795.332031 1389.667969 C 1795.777344 1389.222656 1794.722656 1389.277344 1794.667969 1389.332031 M 1538 1392 C 1557 1397.671875 1577.578125 1401.023438 1597 1406.425781 C 1642.324219 1419.027344 1687 1434.722656 1730 1454 C 1759 1466.8125 1787 1482.121094 1815 1497.308594 C 1825.382813 1503 1835 1511.78125 1846 1516 C 1832.359375 1496.617188 1810 1481 1791 1467.253906 C 1739.730469 1430.191406 1681.472656 1404.378906 1619 1394.246094 C 1599.589844 1391.097656 1579.632813 1390 1560 1390 C 1553.390625 1390 1543.628906 1388.152344 1538 1392 M 1205 1403 L 1204 1404 L 1205 1403 M 1203 1405 L 1203 1406 C 1165.5625 1419.625 1129.191406 1445 1096 1466.65625 C 1051.183594 1496 1008.320313 1528.574219 970 1566.015625 C 900 1634.375 843.605469 1718.1875 794 1802 C 790.972656 1794.160156 801.472656 1776.6875 804.601563 1769 C 817.507813 1737.292969 832.933594 1707.179688 850.8125 1678 C 910.1875 1581.078125 997.78125 1505.351563 1097 1451.691406 C 1120.878906 1438.777344 1145.914063 1427.472656 1171 1417.089844 C 1181 1413 1192 1405.570313 1203 1405 M 1541 1410 C 1545.914063 1418.0625 1567.285156 1423 1576 1427.242188 C 1607.988281 1443.011719 1639.738281 1459.105469 1671 1476.3125 C 1725.28125 1506.191406 1775.222656 1546.75 1821 1588.171875 C 1838.792969 1604.269531 1853.707031 1627.125 1873 1641 C 1870.359375 1632.089844 1863.265625 1623.753906 1858.214844 1616 C 1844.828125 1595.445313 1829.488281 1576.277344 1813 1558 C 1756.863281 1495 1682.527344 1446.269531 1601 1423.445313 C 1582.316406 1418.214844 1560.382813 1411 1541 1410 M 1281 1421.332031 L 1281.332031 1421.667969 C 1280.839844 1421.832031 1280.226563 1421.332031 1281 1421.332031 M 1521 1430 L 1521 1431 C 1584 1471.234375 1646.695313 1517.019531 1697.910156 1572 C 1756.800781 1635.21875 1802.996094 1706.714844 1843 1783 C 1845.871094 1775.625 1838 1760.414063 1835.667969 1753 C 1826.390625 1725.066406 1814.742188 1698 1800.628906 1672 C 1755.503906 1589.371094 1691.371094 1513.824219 1609 1466.578125 C 1590.585938 1456.015625 1571.722656 1447.699219 1552 1440 C 1542.410156 1436.253906 1531.335938 1430.65625 1521 1430 M 1510 1469 C 1515.414063 1479.785156 1529.46875 1489.425781 1538 1498 C 1553.644531 1513.722656 1568.28125 1531.285156 1581.625 1549 C 1618.539063 1598.011719 1642.179688 1651 1668 1706 C 1670 1700.726563 1667 1693.445313 1666 1688 C 1663.355469 1672 1658.882813 1656.472656 1654 1641 C 1635.953125 1583.460938 1598.621094 1530.359375 1550 1495 C 1537.90625 1486.015625 1524 1474.324219 1510 1469 "/>
</g>
</svg>
