<?xml version="1.0" encoding="UTF-8"?>
<svg xmlns="http://www.w3.org/2000/svg" xmlns:xlink="http://www.w3.org/1999/xlink" width="2000pt" height="2000pt" viewBox="0 0 2000 2000" version="1.1">
<g id="surface1">
<path style=" stroke:none;fill-rule:nonzero;fill:rgb(0%,0%,0%);fill-opacity:1;" d="M 1144 700 L 1143 700 C 1147 668.109375 1154.546875 636.726563 1163.882813 606 C 1168 592.003906 1176.402344 576.503906 1178.21875 562.054688 C 1179.277344 553.628906 1163 558.574219 1163.636719 549 C 1164.835938 525 1173.882813 499.824219 1180.972656 477 C 1197.394531 424.152344 1218.980469 373 1244.941406 324 C 1254.367188 306.246094 1267 290 1276 272 C 1265.582031 277 1257.429688 291 1250.625 300 C 1234.773438 321.011719 1219.550781 342 1205.308594 364 C 1150.550781 449.179688 1120.933594 542 1099.425781 640 C 1092.472656 671.703125 1087.480469 704 1082.4375 736 C 1080.480469 748.449219 1081.414063 765.753906 1076 777 C 1072.242188 761.226563 1073 743.15625 1073 727 C 1073 691 1076.203125 654.101563 1084.742188 619 C 1089 601 1094 583 1099.289063 565 C 1100.589844 560.480469 1106 550.121094 1104.222656 545.597656 C 1102.777344 542.039063 1093 543.078125 1090 542.714844 C 1075.5 541 1060.59375 540 1046 540 C 995.882813 540 944.335938 546.796875 896 560.421875 C 884.617188 563.628906 873 566.535156 862 570.507813 C 859.210938 571.503906 851.722656 573.039063 850 575.597656 C 848 579 853.230469 587 854.578125 590 C 860.660156 604.214844 866.613281 618.3125 871.492188 633 C 888.488281 684.175781 888 735 888 788 L 887 788 C 875.816406 701.410156 844.460938 621.257813 785.515625 556.285156 C 769 538.234375 751 522.605469 731 508.808594 C 723.652344 503.757813 715.46875 496.808594 707 494 C 714.648438 509.5625 731 524 741.523438 538 C 768.980469 574.761719 793 612.210938 812 654 C 819.664063 670.660156 830 691.675781 832 710 L 831 710 C 824.953125 692.558594 812 676.296875 802 661 C 775.410156 620.6875 744.503906 584 704 557 C 693.730469 550.15625 681.625 540 670 536 C 674.671875 546.019531 686.375 555 693.910156 563 C 709.800781 580.152344 728.445313 601.5625 738.207031 623 C 742 631.488281 724.753906 641.390625 719 646 C 716.589844 648 713.402344 651.394531 710 651 C 703.175781 650.050781 693.609375 640 688 636 C 671.726563 624.21875 649.6875 605.613281 630 601 C 641.734375 618.230469 654.851563 634.273438 665.949219 652 C 670 658.550781 676.199219 666.363281 678.359375 673.828125 C 679.773438 678.726563 663.722656 693.28125 659 693.441406 C 655 693.578125 650.449219 690 647 688.308594 C 637.769531 684.082031 626.960938 677.777344 617 676 C 620.792969 688.007813 634 703.28125 633.847656 716 C 633.746094 721.742188 625.257813 728 621.714844 732 C 612.335938 742.640625 602.859375 753.109375 593.753906 764 C 589.332031 769.289063 585.214844 777 579 780 C 582.585938 765 578.976563 746.519531 579 731 C 579 706.683594 581.820313 682.195313 584.171875 658 C 591.332031 584.265625 611.171875 512 634.996094 442 C 643.914063 416 654.839844 390.09375 666.375 365 C 668.515625 360.34375 673.589844 342.648438 679 341.632813 C 683 341 688.484375 352.25 690.191406 355 C 699.636719 370.199219 709.421875 385.164063 717.78125 401 C 730.601563 425.285156 744 449.535156 754.398438 475 C 760 489 764.359375 511 773.816406 522.480469 C 778.957031 528.769531 788.539063 533.144531 795 538.117188 C 802.175781 543.640625 808.957031 549.609375 815.828125 555.5 C 818.621094 558 822 562.203125 826 562.40625 C 829.605469 562.597656 833.777344 559.386719 837 558 C 845.230469 554.460938 853.496094 551.167969 862 548.332031 C 873.96875 544.34375 885.863281 540.566406 898 537.140625 C 900.898438 536.320313 909.328125 535.453125 910.699219 532.4375 C 912.347656 528.792969 905.429688 520.148438 903.695313 517 C 895.292969 501.734375 886.296875 486.515625 876.667969 472 C 835.894531 410.539063 793.324219 352.324219 741 300 C 726.597656 285.597656 711.238281 272.445313 696 259 C 692.492188 256 683.542969 246.089844 678.214844 248.242188 C 670.621094 251.304688 664.289063 272 660.433594 279 C 642.660156 311.269531 629.625 346.132813 615.347656 380 C 592.433594 434.367188 575.808594 492 561.523438 549 C 550 594.65625 539.707031 642.117188 535.171875 689 C 531.921875 722.570313 529 756.230469 529 790 C 529 802.316406 528 814.734375 528.59375 827 C 528.914063 836 530.558594 846.304688 528.605469 855 C 525.6875 868.007813 513.429688 881.269531 507 893 C 490 924.375 477.4375 957 466.976563 991 C 463.261719 1003.082031 455.640625 1020.128906 457.1875 1033 C 458 1040.167969 477 1043.445313 483 1045.800781 C 511 1057.007813 539 1068.222656 567 1079.601563 C 598.746094 1092.527344 630.3125 1106 662 1119.011719 C 672 1123.140625 689 1135 699.90625 1134.304688 C 704.378906 1134.054688 707.910156 1126.132813 710.398438 1123 C 718.335938 1113.023438 727.464844 1103.613281 738 1096.347656 C 749.796875 1088.210938 762.644531 1082.570313 776 1077.574219 C 780.335938 1076 787.214844 1072 791.890625 1072.390625 C 797 1073 802 1089.722656 806.175781 1093.710938 C 813.253906 1100.609375 822.796875 1104.261719 831 1109.546875 C 842.664063 1117.0625 852 1126.390625 859.65625 1138 C 865 1146.355469 868.957031 1155.324219 871.234375 1165 C 886.46875 1229.703125 835.964844 1280.449219 787 1314.414063 C 768.183594 1327.464844 744.914063 1337.5625 722 1340.078125 C 718.761719 1340.433594 705.363281 1345.300781 703.3125 1342.304688 C 700.820313 1338.65625 705.527344 1328 706.527344 1324 C 711 1306.074219 719.882813 1288.109375 723 1270 C 678 1286.347656 633.878906 1322.175781 599 1354 C 590.449219 1361.800781 581.183594 1369.261719 573.574219 1378 C 571.273438 1380.644531 566.640625 1384.164063 566.636719 1388 C 566.628906 1392.265625 572.414063 1397.089844 575 1400 C 583.839844 1409.5625 592.824219 1418.824219 602 1428 C 604.441406 1430.441406 615.183594 1438.402344 613 1442.363281 C 611.449219 1445.433594 604.953125 1447.253906 602 1448.757813 C 593.191406 1453.234375 584.582031 1458.253906 576 1463.148438 C 548.25 1479 520.824219 1497.511719 498 1520.015625 C 473.3125 1544.359375 453.726563 1576.644531 447 1611 C 444.40625 1625 442.835938 1638.800781 443 1653 C 443 1657.050781 446 1666 442.398438 1669 C 436.351563 1674.011719 417.726563 1673.34375 410 1674.074219 C 386.601563 1676.289063 359.421875 1679 337 1686 L 337 1687 C 362.785156 1694.640625 393.246094 1696.601563 420 1700 C 431.660156 1701.257813 451.679688 1700.277344 461.828125 1706.164063 C 467.660156 1709.546875 473.175781 1717.550781 477 1723 C 463 1723.117188 448.609375 1727.679688 435 1730.488281 C 416.761719 1734.246094 397.539063 1736.382813 380 1743 C 388.921875 1748.34375 405.667969 1747.015625 416 1748.285156 C 447.210938 1752.121094 478.730469 1753.195313 510 1756.171875 C 619 1766.550781 725.273438 1763.21875 833 1741.800781 C 870 1734.441406 906.75 1724.707031 943 1714.289063 C 960.179688 1709.355469 979.34375 1700.304688 997 1698.226563 C 1004.316406 1697.363281 1013 1701.8125 1020 1704 C 1035.929688 1709 1051.855469 1714 1068 1718.265625 C 1124.757813 1733.277344 1181.679688 1748.042969 1240 1755.710938 C 1331 1767.6875 1422.808594 1762.507813 1514 1753.828125 C 1547.746094 1750.617188 1582 1745.453125 1616 1744 L 1616 1743 C 1596.332031 1733.371094 1569.386719 1732 1548 1727.664063 C 1544.550781 1727 1526.617188 1726.183594 1525.617188 1722.582031 C 1524.996094 1720.34375 1529.671875 1716.492188 1530.914063 1715 C 1537.390625 1707.214844 1540.804688 1704.195313 1551 1703.050781 C 1570.429688 1701 1589.640625 1697 1609 1694.289063 C 1624.585938 1692.1875 1641.941406 1691.460938 1657 1687 L 1657 1686 C 1631.925781 1676.609375 1599.515625 1676.632813 1573 1673 C 1565.875 1672.023438 1546.714844 1673.546875 1541.605469 1668.398438 C 1538.792969 1665.5625 1540.703125 1659.519531 1540.871094 1656 C 1541.351563 1646 1539.925781 1635.105469 1538.824219 1625 C 1535.96875 1598.71875 1524.984375 1572.6875 1510.253906 1551 C 1498.203125 1533.253906 1483 1519.113281 1467 1505.160156 C 1463.476563 1502.101563 1449 1494.253906 1449 1489.351563 C 1449 1486.332031 1455 1482.449219 1457.171875 1480.5625 C 1465.527344 1472.765625 1473.914063 1465.085938 1482 1457 C 1484.945313 1454.054688 1492.566406 1449 1490.246094 1444 C 1486.339844 1435.800781 1473.820313 1428.003906 1467 1422.128906 C 1446.773438 1404.722656 1425.921875 1388 1404 1372.65625 C 1341 1329 1275.269531 1292.109375 1204 1263.601563 C 1174 1251.617188 1141.503906 1237 1109 1234 C 1114.289063 1242.242188 1128.691406 1247.242188 1137 1252.199219 C 1158.632813 1265.109375 1180.375 1278.238281 1201 1292.722656 C 1260.925781 1334.789063 1316.265625 1384 1360 1443 C 1333 1425.140625 1309.179688 1400 1284 1379.460938 C 1241.425781 1345 1195 1313.3125 1146 1288.753906 C 1125.816406 1278.660156 1102.378906 1265 1080 1261 C 1085.691406 1271.160156 1095.9375 1279.71875 1103 1289 C 1116.558594 1306.398438 1127.65625 1325.664063 1136 1346 C 1124.511719 1338.042969 1112.664063 1340 1099 1340 C 1085.386719 1340 1072.203125 1338.671875 1059 1335.136719 C 1002.523438 1320.019531 938 1279.121094 909.464844 1227 C 894.457031 1199.695313 888.523438 1160.339844 909.324219 1134 C 930.953125 1106.617188 964.746094 1106.613281 994 1092.699219 C 999.34375 1090.160156 1004.625 1086.765625 1008.210938 1082 C 1010.464844 1079 1011.875 1072.433594 1016.304688 1072.121094 C 1031.402344 1071.058594 1053 1082.496094 1066 1089.300781 C 1082.910156 1098.171875 1097.554688 1108.390625 1110.996094 1122 C 1114.921875 1126 1120.957031 1138.445313 1127 1138.253906 C 1138 1138 1152.210938 1131.3125 1163 1128.292969 C 1186.855469 1121.613281 1210.964844 1115.484375 1235 1109.476563 C 1312.5625 1090.085938 1389.378906 1070.523438 1468 1055.804688 C 1509.746094 1048 1552.628906 1046 1595 1046 C 1605.398438 1046 1615.636719 1046.761719 1626 1047.015625 C 1628.546875 1047.078125 1634.796875 1049.113281 1636.394531 1046.394531 C 1639.367188 1041.335938 1634.175781 1028.414063 1633 1023 C 1630 1007.792969 1625.363281 993 1621 978 C 1618.445313 968.488281 1615 961 1617.210938 951 C 1656.316406 768.488281 1649.632813 573.382813 1580.796875 398 C 1563.265625 353.328125 1543.753906 310.40625 1521.296875 268 C 1515.707031 257.441406 1509.953125 247 1503.253906 237 C 1501.40625 234.269531 1498.613281 228.582031 1494.996094 228.019531 C 1492 227.574219 1488.9375 231 1486.824219 232.378906 C 1479.726563 237.503906 1472.835938 243 1466 248.398438 C 1437.367188 271.304688 1409.914063 296.085938 1384 322 C 1312.769531 393.230469 1243.777344 472 1197.257813 562 C 1174.429688 606.230469 1159.328125 653 1144 700 M 1463 445 C 1458.253906 455.183594 1446.796875 462.164063 1439.886719 471 C 1418 499 1395.585938 526.082031 1375 555 C 1366.925781 566.34375 1355 579.039063 1350 592 C 1373.609375 576 1399 562.585938 1424 548.574219 C 1436 541.75 1451.285156 530.445313 1465 528 L 1465 529 C 1440.855469 546.136719 1420.429688 571.058594 1400.835938 593 C 1391 604 1378 616.640625 1372 630 C 1388 619.714844 1407.433594 613.632813 1425 606.148438 C 1437.777344 600.707031 1452.367188 592.429688 1466 590 C 1446.640625 617.488281 1419.296875 639.253906 1404 670 C 1428.578125 661.617188 1453.203125 649.652344 1477 639.136719 C 1487 634.691406 1498 628 1509 626 C 1503.511719 637.527344 1487 648 1478 657 C 1467.410156 667.589844 1457.648438 679.046875 1448.625 691 C 1446 694.355469 1441.226563 703.457031 1436.710938 704.078125 C 1433.179688 704.566406 1429 699.410156 1426.804688 697.269531 C 1418.351563 689.492188 1410.65625 680.824219 1402 673.289063 C 1376.898438 651.449219 1351.296875 630.792969 1324 611.71875 C 1316.175781 606.253906 1302.589844 593.007813 1293 592.003906 C 1284.898438 591.152344 1271 605.46875 1265 610.210938 C 1250.433594 621.628906 1235.902344 633.050781 1222 645.285156 C 1213 653.148438 1204.328125 663.03125 1194 669 C 1196.402344 659.664063 1204.820313 650.640625 1210.527344 643 C 1223.8125 625.207031 1237.910156 608.234375 1254 593 C 1296.816406 552.183594 1345 516.589844 1395 485 C 1416.90625 471.042969 1439 455.261719 1463 445 M 1566 557 C 1585.859375 633.761719 1588.597656 714.421875 1583 793 C 1580.769531 826.070313 1578.722656 863.382813 1568 895 C 1561 885.800781 1557.632813 871.46875 1552.398438 861 C 1542.277344 840.761719 1530.242188 821.519531 1517.28125 803 C 1511 794.199219 1504.527344 785.742188 1498.296875 777 C 1495.914063 773.652344 1491.964844 769.277344 1491.644531 765 C 1491.203125 759.164063 1497.949219 751 1500.714844 746 C 1509 731 1516.777344 715.53125 1524.222656 700 C 1538 671.050781 1549.371094 639.242188 1556.765625 608 C 1560.476563 592.320313 1559.765625 571.453125 1566 557 M 712 799 C 705.621094 807.128906 693.871094 811.386719 686 818.4375 C 670.734375 832.355469 658.921875 851.183594 653 871 C 635.5 930.058594 678.648438 993.820313 742 993.820313 C 788.4375 993.820313 831.597656 957.105469 843.265625 913 C 849.1875 890.613281 846.636719 867.183594 837.574219 846 C 834 837.742188 827.703125 830.488281 825 822 C 835.1875 829.503906 841.820313 843.679688 846.859375 855 C 860.953125 886.640625 867.988281 933.050781 850 965 C 885.648438 950.179688 917.652344 945.117188 955 956.808594 C 965 960 979.929688 963.75 987 972 C 977.5 970.714844 968.609375 966.335938 959 965.183594 C 923.613281 961 881.5625 965.820313 849 981 C 824 992.414063 804 1012.167969 781 1026.574219 C 745.457031 1048.703125 700.238281 1059.425781 659 1050.640625 C 648.917969 1048.492188 639 1044.664063 630 1039.726563 C 581.503906 1013.171875 574.511719 958.257813 592.371094 910 C 611.984375 857 659 816 712 799 M 1180 805 L 1180 806 C 1111.175781 842.636719 1108.308594 942.832031 1176 981.574219 C 1186.613281 987.648438 1197.882813 992 1210 993.699219 C 1292.691406 1006 1361.980469 915.566406 1321.675781 840 C 1313 824 1300 810.226563 1285 800 C 1293.199219 797.089844 1307.589844 806.667969 1315 810.078125 C 1347.507813 825.046875 1373.320313 855 1388.292969 887 C 1394.53125 900.363281 1398.914063 914.335938 1400.714844 929 C 1408.691406 994 1354 1037.164063 1296 1050.5 C 1236.472656 1064.164063 1145 1062.5625 1106 1007 C 1069.722656 955.34375 1093.300781 883.117188 1131.949219 840.003906 C 1144 826.488281 1161.292969 808.222656 1180 805 M 680 857 C 699.90625 860 717.921875 856.75 731.53125 840 C 735.613281 835 738.21875 819.265625 744 817.585938 C 767.277344 811 777 840.757813 771.480469 858 C 757.835938 900.027344 687.359375 906.828125 680 857 M 1166 854 C 1185.960938 858.574219 1204.921875 855.382813 1219.960938 840 C 1224.582031 835.253906 1229.984375 818.019531 1236 817.164063 C 1258.511719 814 1263 845.078125 1257 860 C 1251.339844 874.433594 1238.191406 886.679688 1223 890.484375 C 1197.734375 896.8125 1166 883.160156 1166 854 M 851 1012.570313 C 859 1012.570313 867.367188 1014.007813 875 1016.519531 C 879.683594 1018.0625 884.949219 1021.613281 890 1021.273438 C 897.515625 1020.761719 905.558594 1016.519531 913 1015 C 928 1011.570313 944.605469 1012.148438 959 1018.015625 C 980.492188 1026.773438 992.574219 1054.503906 966 1067.082031 C 950.941406 1074.210938 953.316406 1062 946.445313 1053.003906 C 940.769531 1045.574219 930.226563 1044.300781 922 1048.457031 C 900.214844 1059.453125 910.324219 1102.667969 882 1103 C 856.957031 1103.257813 862.335938 1066.324219 847.984375 1054.226563 C 829.488281 1038.636719 830.507813 1077 819 1071.210938 C 803.78125 1063.574219 807 1035.683594 816.324219 1025.039063 C 824.699219 1015.46875 838.816406 1012.570313 851 1012.570313 M 1120 1161 C 1229.394531 1161 1337.800781 1170.308594 1439 1215.09375 C 1477.464844 1232.113281 1514.460938 1252.695313 1549 1276.722656 C 1558.585938 1283.386719 1567.742188 1290.65625 1577 1297.765625 C 1579.597656 1299.761719 1584.996094 1305.429688 1588.527344 1305 C 1592 1304.488281 1594.851563 1295.792969 1596.246094 1293 C 1602.773438 1280 1608.289063 1266.65625 1613.425781 1253 C 1631.46875 1205 1641 1153.183594 1641 1102 C 1641 1090 1641 1078.03125 1639.425781 1066 C 1639 1062.824219 1640.175781 1056.226563 1637.398438 1054.027344 C 1631.496094 1049.355469 1612 1054 1605 1054.714844 C 1577.359375 1058 1549.621094 1060.28125 1522 1064.128906 C 1419.234375 1078.449219 1317.75 1101.046875 1218 1129.710938 C 1193.847656 1136.648438 1169.921875 1144.148438 1146 1151.804688 C 1139.644531 1154 1123.492188 1155.609375 1120 1161 M 207 1263 C 247.679688 1251.230469 287 1235.242188 328 1224.011719 C 370.980469 1212.21875 415.199219 1205 458 1192.574219 C 470.914063 1189 482.691406 1181.679688 495 1176.425781 C 514.285156 1168.199219 534.429688 1162.304688 555 1158.460938 C 602.328125 1149.609375 650.371094 1152.605469 698 1153 C 694.925781 1148.492188 687.933594 1147.503906 683 1145.679688 C 671.253906 1141.332031 659.699219 1136.328125 648 1131.8125 C 601.574219 1114 555 1095.058594 508 1079.003906 C 494.292969 1074.332031 480.734375 1069.246094 467 1064.667969 C 463.78125 1063.59375 455.820313 1059.28125 452.601563 1061.210938 C 449.3125 1063.1875 450 1078.273438 450 1082 C 449.808594 1102 449.996094 1121.136719 450.960938 1141 C 451.253906 1147.019531 455.96875 1161.78125 448.941406 1164.515625 C 430.214844 1171.808594 407.523438 1173.074219 388 1178.710938 C 344 1191.398438 301.46875 1208.339844 261 1229.703125 C 247.503906 1236.824219 233.8125 1244.023438 221 1252.34375 C 216.390625 1255.339844 209.824219 1258.238281 207 1263 M 224 1489 C 234.636719 1483.773438 244.691406 1472.160156 254 1464.609375 C 273.871094 1448.488281 294.386719 1433 315 1417.734375 C 365.902344 1380.296875 419.816406 1348.101563 472 1312.65625 C 499.300781 1294.109375 523.367188 1271.042969 552 1254.425781 C 573 1242.191406 595 1232 618 1224 C 627.175781 1220.613281 638.371094 1219.800781 647 1215.546875 C 655.976563 1211.121094 664.414063 1203.433594 673 1198.050781 C 681.765625 1192.550781 700.492188 1186.410156 706 1178 C 679 1178 652 1175 625 1176.039063 C 591.835938 1177.492188 558.929688 1183 526 1187 C 510.648438 1188.6875 495.203125 1190.761719 480 1193.609375 C 475.6875 1194.417969 466.824219 1194.585938 463.644531 1198 C 460.644531 1201 464.941406 1210.460938 466 1214 C 470.285156 1228 474.996094 1241.492188 480.398438 1255 C 482.324219 1259.808594 486.441406 1266 480.925781 1269.648438 C 460.210938 1283.621094 435.308594 1292.105469 414 1305.53125 C 361.457031 1338.628906 312.953125 1378.816406 272 1425.574219 C 260.214844 1439.035156 248.726563 1452.585938 238 1467 C 233 1473.730469 226.398438 1481 224 1489 M 1114 1187 C 1128.9375 1195.71875 1144.371094 1203.382813 1159 1212.695313 C 1167.632813 1218.191406 1175.769531 1226.726563 1185 1231 C 1192 1234.121094 1200.59375 1234.515625 1208 1236.722656 C 1226.191406 1242.140625 1244 1248.410156 1262 1255 C 1306.242188 1271 1348.734375 1292.640625 1389 1316.800781 C 1419.230469 1335 1449.382813 1355.648438 1475.960938 1379 C 1485.5625 1387.238281 1494.980469 1395.757813 1504.285156 1404.464844 C 1507.25 1407.238281 1511.320313 1413.507813 1515.269531 1414.652344 C 1519.84375 1416 1526.925781 1404.035156 1529.390625 1401 C 1539.757813 1388.222656 1548.601563 1374.375 1558 1361 C 1560.976563 1357.027344 1565 1348 1571 1349.617188 C 1584.695313 1353.347656 1597.941406 1365.3125 1610 1372.550781 C 1648.550781 1395.691406 1684.628906 1423.238281 1719.714844 1451.277344 C 1732.273438 1461.316406 1745.554688 1477.273438 1760 1484 C 1691.65625 1386.566406 1593.230469 1319.796875 1487 1269.679688 C 1421.824219 1239 1353 1213.425781 1282 1200.574219 C 1240 1193 1197.722656 1186 1155 1186 C 1145.335938 1186 1135.664063 1186.046875 1126 1186 C 1121.890625 1186 1117.578125 1184.773438 1114 1187 M 719 1219 C 663.605469 1237.582031 607.765625 1253.5625 554 1277.140625 C 541.355469 1282.683594 528.554688 1287.777344 516 1293.539063 C 512.855469 1295 504.601563 1297.171875 504 1301.214844 C 503.480469 1305 508.53125 1310.8125 510.308594 1314 C 517.386719 1326.675781 525.496094 1339.398438 534.230469 1351 C 536.390625 1354 541.519531 1363.699219 545.804688 1363.078125 C 549.640625 1362.519531 555 1355.496094 557.828125 1353 C 567.660156 1343.515625 577.800781 1334.773438 588 1326 C 617.328125 1300.167969 649.367188 1276.808594 680 1252.660156 C 691.175781 1244 712.566406 1231.589844 719 1219 M 1027 1375 C 1014.503906 1370.453125 1002.992188 1361 990 1358 C 1014.859375 1383 1029 1415 1039.65625 1448 C 1042.28125 1456.222656 1044.234375 1464.617188 1046.257813 1473 C 1046.542969 1474.1875 1048.414063 1480.785156 1045.882813 1480.792969 C 1043.378906 1480.800781 1040.722656 1476.214844 1039.253906 1474.578125 C 1034.453125 1469.242188 1028.503906 1465 1023 1460.285156 C 1002.949219 1443.59375 979.777344 1428.679688 957 1416 C 961.277344 1427.476563 963.222656 1440 964.714844 1452 C 964.957031 1454 966.398438 1462.472656 964.398438 1463.65625 C 962.808594 1464.597656 959.976563 1461.414063 958.960938 1460.570313 C 954 1456.570313 949 1453 944 1449.339844 C 921.300781 1433.726563 899.6875 1416.496094 877 1401 C 878 1426 881.484375 1451.105469 882 1476 C 859.78125 1457.652344 841.636719 1422.539063 835 1395 C 827.316406 1405.265625 822.621094 1421.484375 820 1434 C 819.78125 1436 818.601563 1446.792969 816 1446.792969 C 812.285156 1446.792969 808.210938 1427.269531 807.292969 1424 C 800.320313 1399.085938 801.585938 1370.152344 813.78125 1347 C 819.375 1336.378906 826.636719 1326.585938 835 1318 C 842 1310.765625 849.476563 1304.175781 858 1298.699219 C 901.878906 1270.488281 937 1306.824219 972 1331 C 989.210938 1343 1016.191406 1356.691406 1027 1375 M 768 1513 C 762.621094 1500.0625 756 1487.585938 750 1475 C 768.929688 1471.796875 791.949219 1482.183594 808 1491.140625 C 860.300781 1520.320313 891.25 1579.324219 882.699219 1639 C 879.835938 1659 869.769531 1679.480469 852 1690 C 849 1691.726563 837 1698.667969 833.816406 1696.59375 C 831.808594 1695.339844 835.925781 1687 836.503906 1685 C 840.175781 1673.277344 841 1660.238281 839.824219 1648 C 836.285156 1615 811.6875 1579.601563 780 1568 C 801.480469 1614.007813 816.640625 1695 752 1714.230469 C 743.265625 1717 733 1719 724 1719 C 727.488281 1709.414063 731.804688 1701.441406 732.828125 1691 C 737.386719 1644.632813 710.402344 1592.019531 670 1569 C 680.972656 1604 688.191406 1640.347656 682.246094 1677 C 680.351563 1688.671875 677 1707.476563 666 1714 C 669.464844 1693.527344 668.953125 1674 654.675781 1657.003906 C 638.441406 1637.757813 611 1640.78125 601.949219 1665 C 596 1680.605469 601.652344 1693.535156 603 1709 C 595.621094 1703.355469 590 1694.703125 585 1687 C 569.390625 1663.277344 557.226563 1629.597656 556 1601 C 538.402344 1618.410156 534 1656.796875 537.921875 1680 C 539.300781 1688.363281 541.761719 1696.179688 545 1704 C 545.90625 1706.15625 549.210938 1711 547.757813 1713.308594 C 545.992188 1716.164063 535.785156 1713.3125 533 1713.085938 C 514.5625 1711.597656 499.277344 1700.816406 489.867188 1685 C 471 1653.390625 475 1609.207031 492.871094 1578 C 499.6875 1566.054688 518.296875 1540.496094 535 1543.523438 C 545.65625 1545.453125 555.25 1564 559 1573 C 562.171875 1567.066406 561.921875 1559.492188 563.882813 1553 C 568.183594 1538.785156 573.839844 1525 582.839844 1513 C 614.996094 1470.292969 674.472656 1455.3125 723 1478.320313 C 740.917969 1486.816406 752.324219 1502 768 1513 M 1418 1574 C 1425.652344 1566.371094 1430.332031 1547.121094 1442 1544.320313 C 1449.855469 1542.4375 1459.199219 1548.472656 1465 1553.015625 C 1481.449219 1566 1491.886719 1586.753906 1495.996094 1607 C 1503 1641.648438 1498 1688.703125 1464 1708.121094 C 1452.59375 1714.628906 1439.597656 1714.40625 1427 1716 C 1428.882813 1706.121094 1434.867188 1697 1437.25 1687 C 1441.605469 1668.789063 1439.652344 1646.78125 1434.410156 1629 C 1432.375 1622.101563 1429.78125 1615.558594 1426.859375 1609 C 1426.324219 1607.792969 1424.570313 1602.003906 1422.390625 1603.207031 C 1420.46875 1604.265625 1420.703125 1609.140625 1420.410156 1611 C 1419 1619.078125 1417.507813 1627.070313 1415.527344 1635 C 1410.292969 1656 1403.273438 1676.34375 1390.570313 1694 C 1386.167969 1700.121094 1380.332031 1708.472656 1373 1711 C 1377.707031 1693.75 1382.671875 1677.070313 1373.601563 1660 C 1357.417969 1629.535156 1324.316406 1648.675781 1314.453125 1673 C 1308.320313 1688.125 1310.742188 1699.578125 1312 1715 C 1301.765625 1706.464844 1298.386719 1687.632813 1296.949219 1675 C 1293 1641.121094 1294.714844 1602.554688 1309 1571 C 1270.328125 1589.375 1241.960938 1647 1246.171875 1689 C 1247.203125 1699.320313 1251 1708.527344 1255 1718 C 1237.296875 1716.601563 1216.695313 1711.511719 1203 1699.699219 C 1180.671875 1680.429688 1178.183594 1646.316406 1182.4375 1619 C 1184.480469 1606 1187.480469 1593.175781 1192.863281 1581 C 1193.5625 1579.417969 1198.90625 1571 1197.292969 1569.597656 C 1195.949219 1568.441406 1190.183594 1572.738281 1189 1573.449219 C 1180.257813 1578.699219 1172.320313 1585.175781 1165.753906 1593 C 1148 1614.011719 1139.726563 1641.558594 1143.289063 1669 C 1144.632813 1679.335938 1149.738281 1689 1151 1699 C 1138.9375 1694 1126 1687.722656 1117.171875 1678 C 1084.796875 1643 1092.851563 1584 1115.453125 1546 C 1140.726563 1503.511719 1180.777344 1480.09375 1229 1474 C 1223.824219 1487.675781 1216 1502.101563 1209 1515 C 1215.703125 1510.066406 1220.609375 1502.753906 1227 1497.300781 C 1242.21875 1484.308594 1260.441406 1474.304688 1280 1470 C 1344.585938 1455.304688 1417.953125 1505.230469 1418 1574 "/>
</g>
</svg>
