<?xml version="1.0" encoding="UTF-8"?>
<svg xmlns="http://www.w3.org/2000/svg" xmlns:xlink="http://www.w3.org/1999/xlink" width="2000pt" height="2000pt" viewBox="0 0 2000 2000" version="1.1">
<g id="surface1">
<path style=" stroke:none;fill-rule:nonzero;fill:rgb(0%,0%,0%);fill-opacity:1;" d="M 1090 227 C 1120.171875 227.003906 1151.535156 230.113281 1181 237 C 1198.554688 241 1216.289063 248.382813 1234 251 C 1222.710938 211 1219 168 1211.308594 127 C 1209 115.238281 1207.890625 90 1196.945313 82.742188 C 1191.898438 79.414063 1187.714844 83.195313 1184.4375 87.003906 C 1177.714844 94.824219 1172 103.46875 1166.328125 112 C 1150.195313 136 1134.507813 160.230469 1118 184 C 1108.84375 197.445313 1095.800781 211.671875 1090 227 M 1165 1613 L 1166 1613 C 1171.285156 1633 1172.902344 1656.050781 1166.652344 1676 C 1164.414063 1683.140625 1161 1690.039063 1156.476563 1696 C 1155.476563 1697.28125 1151.359375 1700.589844 1152.347656 1702.527344 C 1153.445313 1704.6875 1163.808594 1703.050781 1166 1702.828125 C 1180.1875 1701.410156 1195.664063 1696.148438 1205.90625 1686 C 1232.746094 1659.066406 1218.625 1625.753906 1217 1594 L 1218 1594 C 1225.328125 1615.65625 1233 1636.609375 1230.828125 1660 C 1229.832031 1670.300781 1225.828125 1678.359375 1223 1688 C 1268.707031 1670.671875 1262.769531 1606.808594 1243.429688 1573 C 1221 1534.023438 1183.550781 1509.417969 1145 1488.691406 C 1111.929688 1471 1077.820313 1455.230469 1043 1441.199219 C 890.480469 1379.75 723.457031 1343.136719 559 1365.289063 C 511.902344 1371.632813 464.871094 1383.765625 420 1399.34375 C 400.867188 1406 382.320313 1416.4375 363 1422 L 363 1421 C 380.386719 1412.773438 396.589844 1401.683594 414 1393.257813 C 446.578125 1377.496094 481 1364.460938 516 1354.746094 C 704.484375 1302.21875 906 1328.128906 1083 1409.308594 C 1151.515625 1440.761719 1223.652344 1482.304688 1265.65625 1547 C 1297.351563 1595.820313 1298.621094 1659.265625 1255 1701 C 1196.875 1756.519531 1094.21875 1739 1035 1696 C 977 1653.765625 926.230469 1601 855 1580.789063 C 837.960938 1576 814.730469 1579.207031 797 1579 C 760.355469 1578.558594 723.695313 1577 687 1577 C 612.777344 1577 538.214844 1574.832031 464 1573.015625 C 420.183594 1572 375.71875 1575 332 1572 C 302 1570 271.972656 1571.351563 242 1571 C 207.695313 1570.589844 173.347656 1569 139 1569 L 91 1569 C 87.480469 1569 77.460938 1566.769531 74.832031 1569.042969 C 71.269531 1572.125 74 1590.214844 74 1595 L 74 1695 C 74 1697.160156 73.359375 1701.085938 75.601563 1702.398438 C 80.714844 1705.382813 93 1703 99 1703 C 118 1703 136.949219 1704 156 1704 C 226 1704 295.960938 1705 366 1705 C 417.949219 1705 470 1706.378906 522 1707 C 557.277344 1707.414063 592.832031 1705.503906 628 1708 C 716.265625 1714 806 1702 894 1713.289063 C 922.597656 1717.015625 951 1723.644531 978 1734.203125 C 995.257813 1741 1011.523438 1751.050781 1029 1757 L 1029 1758 C 1008.824219 1762.804688 986.578125 1759.136719 966 1760.039063 C 914 1762.3125 861.945313 1760.765625 810 1763.039063 C 746.390625 1765.824219 682.695313 1764.453125 619 1766.015625 C 520.804688 1768.421875 422.257813 1772 324 1772 C 262.28125 1772 200.664063 1775 139 1775 C 123.273438 1775 107.707031 1776 92 1776 C 88.207031 1776 77.871094 1774.183594 75 1777.027344 C 71.230469 1780.824219 74 1797.738281 74 1803 L 74 1878 C 74 1882.796875 71.285156 1905 76.316406 1906.683594 C 82 1908.621094 90.898438 1907 97 1907 C 113.722656 1907 130.289063 1906.007813 147 1906 C 153.226563 1906 165.511719 1902.246094 170.683594 1906.601563 C 175 1910.351563 172.8125 1920.808594 173 1926 C 173.753906 1942.320313 175.21875 1958.753906 177 1975 C 177.636719 1980.21875 178.3125 1996.105469 185.976563 1996 C 191.277344 1996 192.929688 1988 193.789063 1984 C 196.707031 1970.511719 198.609375 1955.78125 199 1942 C 199.261719 1933.609375 201 1925.441406 201 1917 C 201 1913.667969 200.28125 1909.074219 202.601563 1906.316406 C 205.949219 1902.34375 214.390625 1904.050781 219 1904 C 233.527344 1903.824219 254.589844 1898.613281 268.566406 1903.179688 C 272 1904.351563 271.351563 1913 271.714844 1916 C 273 1927.695313 272.90625 1939.429688 275.515625 1951 C 276.28125 1954.410156 277.808594 1961.078125 282 1961.535156 C 288.707031 1962.238281 290.457031 1952.613281 291.398438 1948 C 293.816406 1936.171875 294.507813 1924.023438 295 1912 C 295.238281 1907.519531 295.738281 1902.007813 301 1901.148438 C 316.527344 1898.628906 333.3125 1902 349 1901 C 353.46875 1900.605469 362.875 1897.679688 365.972656 1902.316406 C 368.242188 1905.722656 366.917969 1912.101563 367 1916 C 367.230469 1925 368.632813 1934.347656 370.398438 1943 C 371.226563 1947.046875 372.523438 1955.117188 378 1955.246094 C 383.730469 1955.386719 385.863281 1947.285156 386.789063 1943 C 389 1932.417969 389.453125 1921.6875 390.714844 1911 C 391 1907.308594 389.945313 1901.4375 394 1899.601563 C 398.449219 1897.726563 405.378906 1899 410 1899 C 420.683594 1899 431.28125 1898 442 1898 C 445.253906 1898 454.167969 1896.3125 456 1899.523438 C 458 1902.734375 456.882813 1908.390625 457 1912 C 457.386719 1920 458.414063 1928.21875 460 1936 C 460.808594 1940 461.96875 1947.007813 467 1947.535156 C 472.195313 1948.074219 474.226563 1940.792969 475.242188 1937 C 477.882813 1927.152344 477.839844 1917.019531 479.269531 1907 C 479.734375 1903.769531 479.324219 1898.453125 483 1897.316406 C 496 1893.484375 516.421875 1896 530 1896 C 533.734375 1896 542.539063 1894.03125 545.398438 1896.644531 C 548.8125 1899.757813 547.996094 1908 548 1912 C 548 1923.570313 548.605469 1935.617188 550.804688 1947 C 551.640625 1951.324219 554.578125 1963.359375 561.46875 1958.21875 C 564.769531 1955.753906 565.679688 1950.71875 566.703125 1947 C 569.769531 1936 570.738281 1923.476563 571.828125 1912 C 572.230469 1907.816406 570.804688 1899 574.601563 1896.027344 C 578 1893.339844 588.667969 1894.023438 593 1894 C 607.714844 1894 622.28125 1893 637 1893 C 641.382813 1893 652.921875 1891 655.484375 1895.316406 C 661.421875 1905.488281 657.988281 1925.285156 660.371094 1937 C 661.1875 1941.003906 663.410156 1949.574219 668.960938 1948.789063 C 674 1948.054688 675.65625 1940.105469 676.574219 1936 C 679.441406 1923.199219 677 1907.210938 681.5625 1895.097656 C 683.445313 1890.085938 692.667969 1891.007813 697 1891 C 708.265625 1891 719.761719 1891.679688 731 1891 C 736.394531 1890.539063 743.65625 1888.394531 748.851563 1890.742188 C 753.660156 1893 751.785156 1900.757813 752.285156 1905 C 753.9375 1919 754.566406 1933.164063 757.398438 1947 C 758.265625 1951.230469 759.671875 1958.726563 765 1959.417969 C 774.488281 1960.636719 775.296875 1940 776.246094 1934 C 777.605469 1925.601563 778.945313 1916.511719 779 1908 C 779 1903.359375 778.5 1895.320313 781.179688 1891.316406 C 784.4375 1886.449219 805.566406 1886.75 810.851563 1888.316406 C 815.988281 1890 814.761719 1900.773438 815.171875 1905 C 816.527344 1919.046875 817.21875 1933.042969 819.566406 1947 C 820.285156 1951.292969 820.632813 1959.566406 826.179688 1960.621094 C 833.660156 1962.046875 835.382813 1950 836 1945 C 838.167969 1931.671875 839 1918.367188 840.714844 1905 C 841.28125 1900.183594 840.261719 1893.75 842.589844 1889.316406 C 844.699219 1885.292969 853.253906 1887.125 857 1887 C 870.699219 1886.359375 889.628906 1881.660156 902.941406 1885.316406 C 908.882813 1887 907.566406 1900 907.910156 1905 C 909.304688 1925.347656 908.871094 1945.726563 911.574219 1966 C 912.242188 1971 912 1990 921 1988.027344 C 928 1986.519531 929.363281 1974.714844 929.925781 1969 C 931.914063 1948.65625 935.503906 1928.429688 936.910156 1908 C 937.304688 1902.292969 935.425781 1886.800781 942 1885 C 957.453125 1880.75 979 1883 995 1883 C 998.910156 1883 1009.273438 1881.132813 1011.398438 1885.316406 C 1017.214844 1896.765625 1013.28125 1917.148438 1015.613281 1930 C 1016.394531 1934.289063 1017.398438 1943 1023 1943.535156 C 1028.871094 1944.144531 1030.859375 1935.15625 1031.867188 1931 C 1035.277344 1917 1031.742188 1898.144531 1037.597656 1885.148438 C 1039.652344 1880.59375 1046.96875 1882 1051 1882 C 1061.683594 1882 1072.28125 1881 1083 1881 C 1086.652344 1881 1092.324219 1880 1095.683594 1881.601563 C 1099.269531 1883.367188 1098.667969 1893.441406 1098.910156 1897 C 1100 1913.019531 1100.492188 1929 1102.171875 1945 C 1102.675781 1949.816406 1103.773438 1963.277344 1110.976563 1962.535156 C 1118.367188 1961.769531 1118.65625 1949.3125 1119.613281 1944 C 1122.242188 1929.390625 1124.597656 1914 1124.984375 1899 C 1125 1894.566406 1124.183594 1883.8125 1128.316406 1881.027344 C 1131.824219 1878.664063 1138.921875 1879.019531 1143 1879 C 1153.714844 1879 1164.3125 1878 1175 1878 C 1179 1878 1186.199219 1876.597656 1188.257813 1881.148438 C 1192.480469 1890.484375 1190 1904.773438 1192.664063 1915 C 1193.527344 1918.390625 1195.449219 1925.363281 1199.949219 1925.363281 C 1204.40625 1925.363281 1206.441406 1918.347656 1207.359375 1915 C 1209.347656 1907.761719 1210.765625 1899.507813 1210.984375 1892 C 1211 1888.152344 1210.59375 1881.554688 1213.597656 1878.601563 C 1217.285156 1875 1228.191406 1877 1233 1877 C 1250.230469 1877 1273 1871.488281 1289.851563 1876.179688 C 1295 1877.640625 1293 1889 1293 1893 C 1293 1910.738281 1293 1928.382813 1295.285156 1946 C 1295.859375 1950.636719 1296.863281 1966.324219 1304 1965.535156 C 1311.839844 1964.679688 1312.410156 1949.675781 1313 1944 C 1314.691406 1929.398438 1316.316406 1914.671875 1316.960938 1900 C 1317.269531 1893 1315.367188 1883.691406 1318.5625 1877.148438 C 1321 1872 1332 1874.023438 1337 1874 C 1354.789063 1874 1375.453125 1869.296875 1392.980469 1872.148438 C 1400.773438 1873.414063 1397.671875 1886.265625 1398.425781 1892 C 1401.171875 1913 1400.394531 1936 1401 1957 C 1401.175781 1962.539063 1401 1981.441406 1409.960938 1980.535156 C 1417.550781 1979.753906 1417.949219 1965.453125 1418.730469 1960 C 1421.914063 1937.707031 1422.648438 1915.292969 1425.285156 1893 C 1425.851563 1888.210938 1423.675781 1871.472656 1429 1869.777344 C 1437.59375 1867.160156 1453.984375 1874 1463 1874.828125 C 1483.765625 1876.8125 1504.414063 1876.039063 1525 1872.585938 C 1529.632813 1871.808594 1549.914063 1865.457031 1552.398438 1870.332031 C 1555.851563 1877.125 1553.914063 1892.328125 1554 1900 C 1554.230469 1919.105469 1555.5 1939.066406 1558 1958 C 1558.972656 1964.050781 1558.363281 1985 1568 1984.402344 C 1573.855469 1984.132813 1575.535156 1975.445313 1576.386719 1971 C 1579.3125 1955.785156 1580.382813 1940.320313 1582.425781 1925 C 1584 1913 1585.941406 1900.214844 1586 1888 C 1586 1882.515625 1584.882813 1872.03125 1588 1867.316406 C 1590.707031 1863.304688 1604.441406 1864.125 1609 1864.015625 C 1626.316406 1863.589844 1643.71875 1863.082031 1661 1863 C 1666.574219 1863 1674.503906 1860.230469 1679.773438 1862.601563 C 1685.4375 1865.15625 1683 1879 1683 1884 C 1683 1905.058594 1681.800781 1927.132813 1684.574219 1948 C 1685.269531 1953.214844 1684.730469 1974.316406 1693.988281 1972.246094 C 1701 1970.667969 1701.941406 1957.71875 1702.710938 1952 C 1705.652344 1930.175781 1707.40625 1908 1708.910156 1886 C 1709.34375 1879.691406 1706.417969 1862.546875 1715 1861.148438 C 1729.988281 1858.714844 1746.820313 1860 1762 1860 C 1765.632813 1860 1774.433594 1858.398438 1776.972656 1861.601563 C 1779.546875 1865 1778 1873.070313 1778 1877 C 1778 1888.46875 1778.816406 1900.65625 1780.589844 1912 C 1781.328125 1916.722656 1782.277344 1927.363281 1788.988281 1927.363281 C 1797 1927.363281 1798 1908.628906 1798.714844 1903 C 1799.921875 1893.183594 1801 1883 1801 1873 C 1801 1869.496094 1799.867188 1863.335938 1802.601563 1860.601563 C 1806.359375 1857 1820.820313 1858.003906 1826 1858 C 1830 1858 1836.941406 1856.6875 1840.605469 1858.601563 C 1845.300781 1861.058594 1843 1876.472656 1843 1881 C 1843 1902.6875 1842.75 1925.484375 1845.574219 1947 C 1846.324219 1952.695313 1845 1973.367188 1854.960938 1971.621094 C 1863.210938 1970.164063 1863.683594 1950.421875 1864 1944 C 1864.882813 1926.011719 1867.648438 1908 1868.910156 1890 C 1869.53125 1881.121094 1867.988281 1869.542969 1870.316406 1861.058594 C 1871.835938 1855.523438 1880.445313 1856.023438 1885 1856 C 1895.664063 1856 1906.335938 1856 1917 1856 C 1920.277344 1856 1926.535156 1857.175781 1929.257813 1855 C 1933.25 1851.742188 1931 1838.675781 1931 1834 L 1931 1771 C 1931 1766.042969 1933.554688 1750.320313 1929.398438 1747.027344 C 1925.707031 1744.105469 1915.511719 1746 1911 1746 C 1893.335938 1746 1875.714844 1747 1858 1747 C 1789 1747 1719.988281 1750 1651 1750 C 1654 1740.460938 1657.566406 1731 1659.550781 1721 C 1660.316406 1717.191406 1660.332031 1710.4375 1663.5625 1707.757813 C 1666.582031 1705.257813 1673.324219 1706.007813 1677 1706 L 1711 1706 C 1756.273438 1706 1801.652344 1707 1847 1707 L 1911 1707 C 1916.707031 1707 1930.226563 1710 1930.941406 1702 C 1933.382813 1675.140625 1931 1647 1931 1620 C 1931 1613.589844 1934 1596.710938 1929.972656 1591.601563 C 1927.167969 1588.0625 1916 1590 1912 1590 L 1860 1590 C 1810.972656 1590 1761.996094 1588 1713 1588 L 1670 1588 C 1663.683594 1588 1655 1589.320313 1649 1586.585938 C 1642 1583.304688 1638 1562.113281 1635 1555 C 1623.382813 1527.785156 1609 1502.578125 1591 1479 C 1541 1413.425781 1453.710938 1380.097656 1378 1423.425781 C 1351.828125 1438.40625 1338.429688 1460.40625 1319 1482 C 1319 1433.277344 1294 1382.472656 1268.9375 1342 C 1260.328125 1328.132813 1250.613281 1315 1240.769531 1302 C 1238 1298.488281 1230.632813 1291.757813 1231.867188 1287 C 1232.890625 1283.054688 1237 1279.378906 1239.304688 1276 C 1244.179688 1268.546875 1248.636719 1260.464844 1251.484375 1252 C 1254 1244.195313 1255.871094 1236.054688 1257.484375 1228 C 1258.230469 1224.292969 1257.539063 1220.265625 1260.316406 1217.273438 C 1268 1209 1284.257813 1204.769531 1294 1198.5625 C 1323 1180.054688 1349.367188 1154.226563 1366.269531 1124 C 1372.585938 1112.707031 1380 1097.292969 1376.210938 1084 C 1372.417969 1071 1359.570313 1069.515625 1348 1070.039063 C 1323.695313 1071.144531 1298 1085.414063 1277 1096.257813 C 1272.242188 1098.695313 1257.660156 1109.132813 1252.511719 1107.472656 C 1247.636719 1106 1244.324219 1088.546875 1242.835938 1084 C 1234 1057.472656 1232.335938 1028.714844 1233 1001 C 1234.902344 924 1264.710938 850.097656 1309 788 C 1326 764.242188 1347.496094 743.234375 1370 724.75 C 1376.3125 719.566406 1382.976563 714.339844 1390 710.144531 C 1393.578125 708.007813 1399.636719 706 1401.398438 701.789063 C 1403.285156 697.402344 1401.289063 691.539063 1401 687 C 1400.226563 672.472656 1396.175781 658.402344 1395 644 C 1403.734375 647.023438 1418.601563 651.761719 1424.398438 659.328125 C 1427.980469 664.011719 1426 674.382813 1426 680 C 1426 697.328125 1420.699219 715 1412 730 C 1407.726563 737.714844 1399.347656 745.617188 1397 754 C 1414.882813 749.109375 1431.300781 737 1437.480469 719 C 1439.910156 712 1438.828125 702.441406 1442.179688 696.039063 C 1444.667969 691.285156 1450.246094 688.105469 1453.675781 684 C 1459.585938 677 1464 667.757813 1466.804688 659 C 1469.824219 649.558594 1470.898438 639.804688 1471.828125 630 C 1472 627 1470.882813 621.035156 1473.601563 618.777344 C 1477 616 1487 620.003906 1491 620.738281 C 1507.75 624 1524.449219 627.539063 1541 631.625 C 1588.671875 643.390625 1635.753906 658.644531 1680 680.109375 C 1701.976563 690.769531 1723.496094 707.34375 1746 716 C 1738.867188 697.460938 1716.71875 681.339844 1701 670.277344 C 1658 640.097656 1608.363281 620 1557 609.285156 C 1535.722656 605 1514.433594 601.425781 1493 598 C 1488.324219 597.152344 1474.714844 598.074219 1472 593.570313 C 1468.183594 587 1482.214844 588.058594 1485 588.425781 C 1503.707031 591 1523 589.800781 1542 591.089844 C 1584.761719 594.019531 1627.828125 597.011719 1670 605.449219 C 1700.738281 611.597656 1731.210938 624.46875 1762 629 C 1754.238281 613.078125 1725.613281 602.246094 1710 596 C 1658.851563 575.539063 1602 566.019531 1547 566 C 1528.289063 566 1509.644531 566.527344 1491 567 C 1486.292969 567.101563 1475 570 1471.582031 566.398438 C 1463.984375 558.832031 1485.4375 556.277344 1489 555.726563 C 1512.660156 552.0625 1536.28125 548.804688 1560 545.574219 C 1614.671875 538.132813 1673.28125 535.503906 1728 543.429688 C 1745 546 1762.371094 548.742188 1779 553.429688 C 1789.242188 556.3125 1799.582031 561.148438 1810 563 C 1801.328125 544.417969 1770.84375 533.679688 1753 526.601563 C 1689.1875 501.285156 1612 509.085938 1546 519.296875 C 1526.882813 522.246094 1507.679688 526.574219 1489 531.582031 C 1484 533 1471.945313 539 1467.316406 536.070313 C 1465.25 534.789063 1465 532.128906 1464.695313 530 C 1462.667969 520.125 1466.378906 519.171875 1475 515.425781 C 1498.492188 505.214844 1522 495.300781 1546 486.191406 C 1602.855469 464.570313 1662 445 1723 439.171875 C 1750.6875 436.523438 1776.648438 440.359375 1804 441 C 1800.386719 434 1789.1875 429.429688 1782 426.683594 C 1761.738281 419 1739.820313 414.105469 1718 414 C 1645.902344 413.652344 1576.5 442 1512 471.625 C 1495.628906 479.171875 1479.640625 487.453125 1464 496.421875 C 1459.234375 499.152344 1449.863281 502.460938 1447 507.378906 C 1445.34375 510.410156 1447.386719 515 1448 518 C 1450 526.394531 1452.265625 535.394531 1452.910156 544 C 1455.351563 576.605469 1455.640625 606.8125 1449 639 L 1448 639 C 1444 625.515625 1431.859375 614.28125 1423.914063 603 C 1415.445313 591 1409.660156 575.652344 1408.171875 561 C 1406.488281 544.460938 1404.550781 522.480469 1411.984375 507 C 1418 494.191406 1432.214844 487.015625 1433.824219 472 C 1436.699219 445.246094 1422.363281 436.4375 1399 429.574219 C 1371.335938 421.449219 1348.214844 422.417969 1320 423 L 1320 422 C 1332.28125 416.265625 1344 410.039063 1358 410 C 1353.902344 404.019531 1341.667969 403 1335 401.140625 C 1304.761719 393.085938 1278.371094 399.199219 1249 406 C 1260.308594 393.0625 1275.4375 390.371094 1291 386 L 1291 385 C 1267.34375 377.484375 1241.429688 378.070313 1217 380 C 1228.867188 370.425781 1245 370.15625 1259 366 C 1218.585938 290.082031 1129.9375 240.652344 1044 248.828125 C 1030.246094 250.140625 1016.714844 250.425781 1003 252.5625 C 998.179688 253.3125 993.316406 252.414063 989 255 C 1014.851563 263.175781 1038.820313 268.710938 1062 284 C 1054.886719 283.734375 1047.828125 279.574219 1041 277.554688 C 1029.210938 274.070313 1017 271.351563 1005 269.4375 C 963.589844 263 919.34375 267 879 277.734375 C 851.738281 285 825.59375 295.253906 800 307 C 790.355469 311.425781 777.804688 321.765625 767 318.160156 C 721.78125 303.070313 684.78125 262.03125 648.984375 232.261719 C 596.902344 189 539.636719 148.417969 477 121.773438 C 451.78125 111.046875 426.960938 100.386719 400 94.714844 C 389.71875 92.550781 376.539063 89.105469 367 95.398438 C 355.851563 102.808594 354.507813 121 352.726563 133 C 347.671875 167.324219 347 202.464844 349.914063 237 C 357.554688 332.050781 381.632813 424.023438 423.257813 510 C 436.429688 537.203125 451.519531 563.328125 467.425781 589 C 479.316406 608.195313 492.199219 626.335938 499.328125 648 C 511.441406 684.796875 514.398438 726.714844 519.285156 765 C 530.714844 854.558594 547.722656 951.695313 498.855469 1034 C 484.527344 1058.136719 463 1076.796875 444 1097 C 405.171875 1138.257813 364.886719 1178.753906 331.710938 1225 C 283.515625 1292.179688 240 1365.28125 210.949219 1443 C 204.230469 1461 196.90625 1478.671875 191.191406 1497 C 190 1500.371094 184.808594 1512.140625 187.777344 1515 C 190 1517.117188 196 1516 199 1516 C 208.972656 1516 219 1515.601563 229 1516.039063 C 270.597656 1518 312.375 1516.214844 354 1518.039063 C 452.542969 1522.355469 551.453125 1519.644531 650 1524 C 710.371094 1526.605469 769.386719 1526.6875 829 1538.800781 C 885.601563 1550.300781 938.902344 1575.425781 984 1611.449219 C 1018.898438 1639.324219 1051.4375 1679.160156 1095 1693.792969 C 1100.929688 1695.785156 1107.691406 1698 1114 1698 C 1156.714844 1698 1165 1645.019531 1165 1613 M 609 271 C 583.503906 264.027344 560 255.550781 533 262 C 543.851563 270 559.847656 274.179688 572 280.515625 C 589.453125 289.613281 605.671875 301.734375 621 314 C 629.277344 320.621094 641.441406 328.230469 646 338 C 623.695313 334.722656 601.582031 332.015625 579 335.269531 C 571.792969 336.308594 561.472656 337 556 342 C 597.910156 343.800781 637 368.816406 671 391 L 671 392 C 642.753906 387.199219 617.984375 382.339844 589 387.574219 C 579.996094 389.203125 566.289063 391 560 398 C 594 398.28125 629 415 658 431.421875 C 668.558594 437.476563 682.507813 444.230469 690 454 C 679.835938 451.59375 670.375 447.28125 660 445.464844 C 640 442 619.933594 442.667969 600 445 C 592 445.699219 584.65625 447.78125 577 450.140625 C 575.921875 450.472656 570 451.507813 571.207031 453.628906 C 572.335938 455.621094 577.964844 456.019531 580 456.527344 C 588.242188 458.578125 596.195313 461.042969 604 464.425781 C 627.425781 474.578125 660.171875 490.367188 676 511 C 649.460938 506.488281 625.421875 498 598 498 C 587.359375 498 573.953125 497.386719 566.214844 506.042969 C 553.386719 520.394531 572.695313 544.199219 581 556 C 608.910156 595.449219 651.816406 625 696 643 C 687.84375 646.414063 673.285156 641 665 638.730469 C 639 632.074219 613.957031 624.222656 590 612.246094 C 481 557.785156 421.695313 427.507813 407.828125 311 C 403.722656 276.472656 398.816406 242 403.574219 207 C 405 196 405 178.574219 416 172 C 426.28125 165.558594 443 172.472656 453 176.398438 C 482.523438 188.105469 511.476563 202.78125 538 220.332031 C 554.429688 231.203125 570.933594 242 587 253.289063 C 594.398438 258.566406 603.574219 263.632813 609 271 M 1148 410 C 1141 405.628906 1135.511719 398.769531 1129 393.667969 C 1116 383.492188 1101.34375 374.113281 1086 368 C 1030.25 345.425781 963.5625 354.289063 909 376.308594 C 895.25 382 881.785156 388.34375 869 396 C 862.328125 399.785156 856.261719 405.246094 849 408 C 854.355469 396.519531 870 386.609375 880 379.128906 C 909 357.367188 942.1875 343.804688 978 338.273438 C 993 336 1009.417969 338 1024 335 L 1024 334 C 987.472656 322.398438 943.890625 323.019531 907 332.734375 C 892 336.644531 879.234375 343.820313 865 349 C 879 329.394531 913.558594 317.746094 936 311.71875 C 998.953125 294.8125 1070.761719 306.527344 1115.824219 357 C 1129.222656 372.003906 1140.292969 391.484375 1148 410 M 1394 402 C 1384.542969 374.003906 1371.46875 349.257813 1348 330.464844 C 1341.683594 325.40625 1325.949219 313.023438 1317.1875 318.027344 C 1308.941406 322.738281 1309 338 1309 346 C 1301.484375 340.253906 1295.878906 331.511719 1291.890625 323 C 1291 321.300781 1289.515625 314.207031 1287 314.207031 C 1284.3125 314.207031 1284 324.078125 1284 326 C 1283.660156 338 1288 350.59375 1297 358.816406 C 1311.84375 372.484375 1337.863281 374 1356 382 C 1368.527344 387.398438 1380.976563 398.648438 1394 402 M 1445 470 C 1453.34375 468.496094 1460 462 1467 457.34375 C 1481.9375 447.179688 1496.191406 436.070313 1511 425.71875 C 1558.433594 392.570313 1606.25 356.585938 1661 336.320313 C 1677.703125 330.136719 1696.976563 322.148438 1715 322 C 1711.722656 316.644531 1702.71875 317.398438 1697 316.578125 C 1676.871094 313.699219 1655.308594 318 1636 323.449219 C 1578.214844 340.058594 1523.546875 383 1482.910156 426.003906 C 1470.554688 439.109375 1452.691406 453.480469 1445 470 M 1282 512 C 1270.734375 510 1260 501.15625 1250 496.105469 C 1226.761719 484.546875 1203.585938 473.136719 1180 462.308594 C 1121.738281 435.558594 1053.246094 407.621094 988 412.089844 C 958.28125 414.125 930.953125 422.542969 903 432 C 906.628906 425.386719 916.554688 422.023438 923 418.539063 C 942.796875 408 965 399.4375 987 394.128906 C 1066 375 1144.917969 417 1211 456.550781 C 1229 467.367188 1246 479.027344 1262 492.730469 C 1268.671875 498.449219 1277.484375 504.394531 1282 512 M 1405 452 C 1384.886719 451.585938 1365.210938 444.054688 1345 444 C 1349.414063 441.652344 1354.167969 442.285156 1359 441.714844 C 1371.9375 440.1875 1396.597656 439.535156 1405 452 M 1255 510 L 1255 511 C 1226.675781 509.78125 1197.417969 499.738281 1170 493.128906 C 1126.785156 482.71875 1083.277344 473.453125 1039 469.171875 C 998.390625 465.238281 957.371094 466.5625 917 472.285156 C 899 474.820313 880.855469 483.183594 863 484 C 869.523438 478 880.738281 474.480469 889 471.203125 C 910.832031 462.546875 933.789063 456.175781 957 452.574219 C 1029.214844 441.371094 1105 451.21875 1174 475.34375 C 1201.855469 485.105469 1227.765625 498.828125 1255 510 M 1296 461 C 1304 469 1311.378906 474.425781 1323 475.816406 C 1341.28125 478.003906 1361.863281 471 1375.675781 487.015625 C 1386.621094 499.8125 1389 516.789063 1389 533 C 1389 551.359375 1386 570 1376.546875 586 C 1358.203125 616.753906 1316.953125 634.277344 1282 635 L 1282 633 C 1327.59375 627 1377.324219 593 1371 542 C 1369.96875 532.21875 1366.386719 522.507813 1359.816406 515 C 1345.3125 498.433594 1322.984375 496.035156 1307 481.816406 C 1302 477.480469 1294 468.070313 1296 461 M 1282 532 L 1282 533 C 1258.675781 540 1230.199219 539 1206 541.171875 C 1152.347656 546.277344 1098.664063 552.582031 1046 564.5 C 999.515625 575.015625 954.933594 591.441406 912 612.023438 C 894 620.621094 877.460938 635.242188 859 642 C 865.1875 633.597656 875.523438 627.242188 884 621.277344 C 903.195313 607.773438 923.339844 595.660156 944 584.523438 C 1016.917969 545.226563 1097 528.550781 1179 525 C 1211.839844 523.523438 1250 522.582031 1282 532 M 1294 550 L 1294 551 C 1263.3125 567.171875 1228.28125 578.414063 1196 591.203125 C 1157.527344 606.445313 1119.773438 624.027344 1083 643 C 1043.328125 663.359375 1005.191406 686.640625 969 712.746094 C 951.769531 725.175781 935.941406 740.828125 918 752 C 922 743.390625 931.40625 736.828125 937.910156 730.015625 C 954.753906 712.375 972.96875 696.226563 992 681 C 1048.964844 635.425781 1114.902344 602.191406 1183 576.773438 C 1217.171875 564.015625 1257 550.304688 1294 550 M 1282 581 L 1281 582 L 1282 581 M 1280 582 L 1280 583 C 1253.183594 598.8125 1224.585938 614.683594 1196 627 C 1199.628906 620 1209.332031 615 1216 610.8125 C 1234.246094 599.484375 1258 584.179688 1280 582 M 1250 761 C 1255.226563 741.242188 1250 718 1243.496094 699 C 1241 692 1231.648438 679.464844 1232.53125 672.277344 C 1232.980469 668.628906 1240.183594 667.566406 1243 666.71875 C 1253.199219 663.648438 1263.617188 661.011719 1274 658.652344 C 1276.542969 658.070313 1282.933594 655.328125 1285.226563 657.121094 C 1286.917969 658.445313 1286 662.179688 1286 664 C 1285.890625 671.015625 1286.339844 678.03125 1285.425781 685 C 1282.664063 706.03125 1279.902344 725.777344 1267.921875 744 C 1263.671875 750.464844 1257.714844 759 1250 761 M 1209 658 L 1209 659 C 1092.609375 701.226563 979.207031 811.640625 976 942 C 973.90625 1028.085938 1012.617188 1117 1065.804688 1183 C 1088.527344 1211.269531 1117 1241.492188 1154 1249.488281 C 1170.519531 1253.066406 1187.71875 1253.097656 1204 1248.113281 C 1211.835938 1245.71875 1219 1241 1227 1239 C 1220.230469 1248.613281 1210 1256 1200 1261.796875 C 1124.613281 1306.15625 1053.8125 1228.277344 1015 1172 C 950.5 1078.382813 914.359375 947 965 839 C 981 805.125 1002.519531 775.351563 1029 749 C 1051.984375 726.125 1080 707.222656 1109 692.753906 C 1132.859375 680.820313 1158.183594 671 1184 664.117188 C 1192.191406 662 1200.492188 658.390625 1209 658 M 969 774 C 961.40625 795 948.242188 814.523438 939.285156 835 C 920.261719 878.488281 903.902344 923.441406 890.574219 969 C 885.277344 987.117188 876.644531 1007.183594 875 1026 C 872.609375 1020.300781 874.261719 1013 874.828125 1007 C 876 994.308594 877.414063 981.683594 878.832031 969 C 884.792969 915.730469 907.464844 864.152344 935.574219 819 C 944 805.410156 954.871094 782.117188 969 774 M 1108 1156 C 1119.753906 1171.011719 1141.726563 1172.007813 1159 1172 C 1206.320313 1172 1251.554688 1136.464844 1292 1116.003906 C 1304.882813 1109.488281 1318.300781 1103 1332 1098.332031 C 1337.273438 1096.578125 1343.980469 1093.628906 1349 1097 C 1295.605469 1125.328125 1258.25 1182.53125 1198 1200 L 1198 1201 C 1209.214844 1201 1223.296875 1198.277344 1234 1200 C 1224.722656 1207.65625 1209.597656 1210.289063 1198 1211.089844 C 1167.449219 1213.191406 1138.53125 1203.3125 1116 1182.035156 C 1076.777344 1145 1061.6875 1095.554688 1058 1043 C 1056 1013.46875 1059 983.351563 1054.5625 954 C 1051.402344 933.742188 1046.472656 912.398438 1033.371094 896 C 1029.539063 891.203125 1025 886.730469 1020 883.246094 C 1018.632813 882.300781 1014.433594 880.628906 1015.347656 878.339844 C 1017.332031 873.367188 1032.246094 870.039063 1037 869.296875 C 1058.792969 866 1082 868.71875 1097.714844 886.015625 C 1125 916.367188 1123.367188 960.808594 1125 999 C 1126.53125 1033.050781 1132.511719 1069.109375 1151.667969 1098 C 1161.574219 1113 1173.652344 1127.601563 1191 1134 C 1175.433594 1106.671875 1159.574219 1084 1154.4375 1052 C 1146.242188 1001 1159 951.804688 1157.871094 901 C 1157.367188 880.546875 1152.242188 861.613281 1147 842 C 1162.867188 848.015625 1174.875 865.171875 1181.765625 880 C 1198.507813 916.015625 1196.445313 957.390625 1199 996 C 1201 1026.273438 1206.199219 1056.226563 1216 1085 C 1218.945313 1093.636719 1222.917969 1102 1227.167969 1110 C 1228.597656 1112.714844 1232 1117.359375 1231.183594 1120.609375 C 1230.433594 1123.332031 1226.234375 1124.632813 1224 1125.753906 C 1217 1129.257813 1210 1133 1203 1136.140625 C 1172 1150 1142 1160.578125 1108 1156 M 611 914 C 616.691406 934.8125 630.351563 955 643 972 C 679.492188 1020.589844 727.992188 1055.230469 785 1075 L 785 1076 C 720.746094 1075.824219 653 1029.1875 626.628906 972 C 620.367188 958.488281 616.464844 944.378906 612.777344 930 C 611.53125 925.128906 608.339844 918.632813 611 914 M 933 1133 C 962.617188 1191 997 1248.691406 1051 1287.289063 C 1078.441406 1307 1110.550781 1321.269531 1145 1319 C 1171.933594 1317.066406 1189.578125 1304.726563 1213 1294 C 1197 1337.378906 1144.359375 1342.105469 1106 1336.132813 C 1035.621094 1325.175781 975.851563 1256 950.601563 1193 C 945 1179.140625 940 1165.4375 936.265625 1151 C 934.867188 1145.710938 931.375 1138.347656 933 1133 M 361 1422 C 360.230469 1423.3125 360.3125 1423.230469 359 1424 C 359.546875 1422.363281 359.363281 1422.546875 361 1422 M 1563 1498 C 1586.238281 1528.460938 1605.210938 1568 1614.625 1605 C 1628 1658.144531 1631 1715.039063 1607.445313 1766 C 1575.308594 1835.300781 1484.496094 1860 1420 1820 C 1344.574219 1773.140625 1346.519531 1672.421875 1361.800781 1596 C 1366 1574.578125 1370.742188 1551 1380 1531 L 1381 1531 C 1379.585938 1599.59375 1369.648438 1675.261719 1395.921875 1741 C 1403.382813 1759.660156 1415.257813 1777.578125 1431 1790.191406 C 1435.523438 1793.816406 1443.710938 1801.085938 1450 1800.46875 C 1454.914063 1800 1459.660156 1793.582031 1462.480469 1790 C 1472.371094 1777.449219 1477 1762.648438 1479 1747 L 1480 1747 C 1482.566406 1760.828125 1480.480469 1775.570313 1476.714844 1789 C 1475.675781 1792.699219 1468.761719 1803.113281 1470.304688 1806.398438 C 1472.191406 1810.402344 1488.246094 1810.0625 1492 1809.574219 C 1515.425781 1806.527344 1525.796875 1793.265625 1534 1772 L 1535 1772 C 1535 1783 1533 1793.828125 1529 1804 C 1558.796875 1793.089844 1576.21875 1765.230469 1584.421875 1736 C 1599.203125 1683.316406 1593.214844 1620.683594 1581.574219 1568 C 1577.941406 1551.554688 1574 1535.117188 1569 1519 C 1567.253906 1513 1561.5625 1504.320313 1563 1498 M 1308 1703 C 1313.183594 1715.050781 1315.984375 1728.5625 1320.34375 1741 C 1321.4375 1744.121094 1325.816406 1751.144531 1323.90625 1754.347656 C 1321.738281 1758 1308.65625 1756 1305 1756 C 1286.289063 1756 1266.554688 1759.039063 1248 1757 C 1257.265625 1748.617188 1269.507813 1743.371094 1279 1734.828125 C 1289.753906 1725.148438 1297.550781 1712.550781 1308 1703 "/>
</g>
</svg>
