<?xml version="1.0" encoding="UTF-8"?>
<svg xmlns="http://www.w3.org/2000/svg" xmlns:xlink="http://www.w3.org/1999/xlink" width="2000pt" height="2000pt" viewBox="0 0 2000 2000" version="1.1">
<g id="surface1">
<path style=" stroke:none;fill-rule:nonzero;fill:rgb(0%,0%,0%);fill-opacity:1;" d="M 413 1236 C 352.480469 1224.261719 291.613281 1212.738281 230 1210.039063 C 202.964844 1209 174.953125 1209.242188 148 1211.089844 C 135.371094 1212 122.628906 1215 110 1215 C 113.21875 1219.226563 121 1218.761719 126 1219.035156 C 138.355469 1219.722656 150.640625 1222.179688 163 1223.023438 C 210.90625 1226.296875 258.714844 1236.480469 306 1244.414063 C 423.992188 1264.210938 540 1280.042969 652 1324.800781 C 696 1342.40625 744.574219 1363 781 1394 C 772.371094 1394.070313 762 1388.328125 754 1385.414063 C 738.773438 1380 723 1376.132813 708 1370.203125 C 664.863281 1353.269531 620.535156 1337.5625 576 1324.710938 C 462.816406 1292.046875 349.222656 1283 232 1283 C 187.695313 1283 143.933594 1288 100 1293.050781 C 90 1294.214844 78.277344 1295.546875 69 1299.265625 C 64.960938 1301 60.828125 1304 62.617188 1309 C 66.511719 1319.773438 94.296875 1315 103 1314.171875 C 143.421875 1310.324219 185.375 1313 226 1313 C 337.421875 1313 448.921875 1319 558 1343.5 C 608 1354.757813 660.914063 1366.785156 707 1390 C 690 1389.539063 671.929688 1382 655 1379.296875 C 607.59375 1372 560.480469 1362.601563 513 1355.574219 C 489.992188 1352.167969 466.304688 1347.015625 443 1347 L 443 1348 C 465.507813 1359.359375 488 1368 507.984375 1384.199219 C 515.597656 1390.414063 522.195313 1397.542969 528.570313 1405 C 531.554688 1408.488281 534.796875 1414.597656 539.175781 1416.398438 C 546.210938 1419.289063 559.464844 1415.605469 567 1415.089844 C 586.265625 1413.769531 605.671875 1413 625 1413 C 657 1413 689.261719 1414.734375 721 1420.25 C 738.59375 1423.308594 756.289063 1430.457031 774 1432 L 774 1434 C 716.792969 1434 659.976563 1434.335938 603 1441.15625 C 591.96875 1442.476563 580.972656 1444 570 1445.753906 C 567.457031 1446.167969 560.640625 1446.050781 559.242188 1448.601563 C 557.375 1452.007813 563 1460.742188 564.398438 1464 C 565.578125 1467 566.804688 1474.144531 569.589844 1475.800781 C 572.523438 1477.542969 579.808594 1474.808594 583 1474.195313 C 594.425781 1472.011719 606.390625 1470 618 1469.089844 C 651.5625 1466.777344 685.441406 1465.476563 719 1468.832031 C 730.714844 1470.003906 745 1469.394531 756 1474 C 739.832031 1478 721.566406 1477.558594 705 1479.171875 C 671.234375 1482.449219 637.285156 1487.742188 604 1494.398438 C 597.382813 1495.722656 577.96875 1496.695313 574 1502.433594 C 571.414063 1506.238281 573 1514.570313 573 1519 C 573 1521.808594 571.324219 1529.078125 573 1531.292969 C 574.949219 1533.558594 582.601563 1530 585 1529.347656 C 596.746094 1526.511719 608.273438 1522.800781 620 1520 C 666 1508.363281 716.421875 1500 764 1500 L 764 1502 C 745.644531 1502.800781 726.398438 1510.363281 709 1515.808594 C 673.710938 1527 638.972656 1539.664063 605 1554.28125 C 585.585938 1562.632813 571.3125 1569 550 1569 C 545.472656 1569 536.5 1570.460938 532.53125 1568.066406 C 529.722656 1566.371094 536.992188 1550.195313 537.84375 1547 C 543.335938 1526.40625 542.296875 1503.367188 536.441406 1483 C 520 1426.152344 468.292969 1384.679688 414 1366 C 396.226563 1359.699219 375.828125 1356.371094 357 1358.171875 C 345.847656 1359.234375 333.921875 1364.808594 323 1364.8125 C 313 1364.816406 303 1359.777344 293 1359.089844 C 269.238281 1357.460938 245.992188 1363.398438 225 1374.257813 C 212.183594 1381 200.949219 1390.632813 191 1401 C 186.261719 1406 182.523438 1413.125 176.828125 1417.109375 C 170.414063 1421.601563 160.261719 1421.066406 153 1424.3125 C 132 1433.675781 116.527344 1449.757813 105.945313 1470 C 95.367188 1490.230469 92.824219 1513.613281 95.171875 1536 C 95.90625 1543.019531 97.433594 1550.195313 99.28125 1557 C 100 1559.695313 102.351563 1564 101.375 1566.683594 C 99.871094 1571.011719 86.660156 1569 83 1569 L 39 1569 C 35.296875 1569 26.53125 1567.285156 23.601563 1569.773438 C 19 1573.628906 23 1594.101563 23 1600 C 23 1605 20.449219 1620.476563 24.515625 1624 C 26.839844 1626 32.203125 1625 35 1625 L 135 1625 C 144.578125 1625 154.472656 1623.042969 164 1624.109375 C 172.269531 1625.03125 178.6875 1635 185 1639.765625 C 196.5625 1648.605469 209.242188 1655 223 1659.484375 C 234.402344 1663.265625 247 1665 259 1663.828125 C 265.234375 1663.234375 272.957031 1659.476563 279 1660.078125 C 284.882813 1660.664063 291.535156 1666.234375 297 1668.574219 C 307.511719 1673.066406 318.722656 1675.804688 330 1677.5625 C 373.390625 1684.320313 424.707031 1670.101563 463 1650.214844 C 471.265625 1646 479.242188 1641 486.425781 1635 C 490.238281 1631.804688 494 1626.410156 499 1625.167969 C 506 1623.378906 515.628906 1625 523 1625 L 738 1625 C 759.269531 1625 780.753906 1626 802 1625 C 825.324219 1624 851.8125 1620.714844 875 1624.304688 C 887.316406 1626.210938 899.921875 1635 912 1638.804688 C 938.539063 1647.265625 966.226563 1651.742188 994 1653 C 1023.832031 1654.265625 1056.53125 1650 1085 1640.804688 C 1099 1636.339844 1114.585938 1625.789063 1129 1624.175781 C 1150.339844 1621.785156 1172.660156 1624.742188 1194 1625 C 1239.609375 1625.539063 1285.308594 1625 1331 1625 L 1449 1625 C 1466.363281 1625 1485.929688 1622.257813 1503 1624.679688 C 1508.929688 1625.519531 1512.667969 1631 1517 1634.5625 C 1524.253906 1640.671875 1532.695313 1646 1541 1650.457031 C 1567.285156 1665 1599 1675 1629 1677.828125 C 1650.730469 1680.003906 1673.933594 1678.757813 1695 1672.703125 C 1704.460938 1670 1714.605469 1662 1724 1660.613281 C 1729.839844 1659.816406 1737 1663.496094 1743 1664 C 1757.785156 1665 1773 1662.066406 1787 1657 C 1798.707031 1652.617188 1810.238281 1646.367188 1820 1638.601563 C 1825.195313 1634.46875 1831.253906 1626.195313 1838 1625.148438 C 1848.820313 1623.464844 1861 1625 1872 1625 L 1969 1625 C 1971.910156 1625 1976.949219 1626 1979.398438 1624 C 1983.652344 1620.601563 1981 1604.097656 1981 1599 C 1981 1592.402344 1984 1575 1979.972656 1569.601563 C 1977.679688 1566.710938 1971.210938 1568.355469 1968 1568.195313 C 1955 1567.554688 1942 1569 1929 1569 C 1924.515625 1569 1903.566406 1571.613281 1901.554688 1567.105469 C 1900.460938 1564.648438 1903.292969 1559.429688 1904 1557 C 1906.257813 1549.222656 1908 1541.074219 1908.828125 1533 C 1910.882813 1511.808594 1906.949219 1488 1896.960938 1469 C 1886.949219 1450.085938 1871.742188 1433.722656 1852 1425.011719 C 1844.28125 1421.605469 1832.574219 1422.277344 1826 1417.484375 C 1820.167969 1413.183594 1815.832031 1405.777344 1810.746094 1400.515625 C 1800.539063 1390 1789 1380.046875 1776 1373.257813 C 1756.695313 1363.269531 1733.910156 1357.085938 1712 1359.171875 C 1702 1360.117188 1691 1365 1681.425781 1365 C 1673.1875 1365 1664.269531 1360.402344 1656 1359.289063 C 1634.453125 1356.386719 1611.683594 1358.15625 1591 1365.074219 C 1534 1384.140625 1480.40625 1428.828125 1465.746094 1489 C 1461.394531 1507 1460.761719 1529.21875 1465.871094 1547 C 1466.910156 1550.613281 1474.367188 1565.480469 1471.457031 1568 C 1468.269531 1570.703125 1458.976563 1569 1455 1569 C 1435.570313 1569 1422.835938 1565.039063 1405 1557.425781 C 1369.917969 1542.457031 1334.320313 1529.144531 1298 1517.496094 C 1278 1511.128906 1256.914063 1503.664063 1236 1502 L 1236 1501 C 1252.5 1498 1272.347656 1502.164063 1289 1503.832031 C 1337.359375 1508.664063 1383.183594 1520.484375 1430 1533 C 1430 1526.058594 1433.347656 1507.195313 1428.972656 1501.742188 C 1426.851563 1499.097656 1420 1498.753906 1417 1498 C 1406 1495.378906 1395 1493.382813 1384 1491.386719 C 1356.171875 1486.367188 1328 1482 1300 1479.171875 C 1283 1477.535156 1264.394531 1478 1248 1474 L 1248 1473 C 1286.726563 1470 1324.890625 1464.410156 1364 1467.089844 C 1379.308594 1468.136719 1394.859375 1470 1410 1472.414063 C 1416.523438 1473.507813 1426.183594 1477.09375 1432.722656 1475.59375 C 1435.984375 1475 1444 1454 1444.183594 1450.277344 C 1444.285156 1446.183594 1435.71875 1446.144531 1433 1445.726563 C 1420 1443.722656 1407 1441.476563 1394 1440.167969 C 1338.925781 1434.640625 1284.234375 1434 1229 1434 L 1229 1432 C 1247 1430.429688 1265 1423.359375 1283 1420.25 C 1314.308594 1414.8125 1346.273438 1413 1378 1413 C 1397.566406 1413 1417.527344 1413.316406 1437 1415.171875 C 1444 1416 1457.183594 1419.128906 1463.824219 1416.398438 C 1470 1414 1474.988281 1404 1479.289063 1399 C 1487.59375 1389.457031 1497.507813 1381.03125 1508 1374 C 1518.890625 1366.703125 1529.980469 1360.640625 1542 1355.425781 C 1547.675781 1353 1557.285156 1351.046875 1561 1346 C 1544.980469 1349.816406 1527.367188 1350.195313 1511 1352.285156 C 1479.222656 1356.339844 1447.59375 1362.011719 1416 1367.285156 C 1386.644531 1372.1875 1357.261719 1377.542969 1328 1383.09375 C 1317 1385.164063 1306 1389.121094 1295 1390 L 1295 1389 C 1311.90625 1385.386719 1328.59375 1376.019531 1345 1370.34375 C 1375.566406 1359.769531 1407.378906 1351.40625 1439 1344.660156 C 1553.449219 1320.242188 1668.273438 1313 1785 1313 C 1824.421875 1313 1863.695313 1313.238281 1903 1315 C 1911.738281 1315.34375 1937 1319.109375 1940.253906 1308 C 1941.761719 1302.75 1937 1300.425781 1933 1299.003906 C 1923 1295.617188 1911.359375 1294 1901 1293 C 1855 1289 1810.199219 1283 1764 1283 C 1669.589844 1283 1576.359375 1288.457031 1484 1309.652344 C 1394.703125 1330.144531 1309.484375 1365.558594 1223 1395 C 1233.511719 1381.292969 1254.972656 1371.058594 1270 1363 C 1307.625 1342.539063 1346.726563 1325.691406 1387 1311.308594 C 1471.472656 1281.140625 1557.300781 1269.316406 1645 1253.535156 C 1726.96875 1238.789063 1809.914063 1223.558594 1893 1217 L 1893 1215 C 1819.785156 1205.746094 1745.601563 1209.121094 1673 1221.246094 C 1653.960938 1224.425781 1634.976563 1227.71875 1616 1231.261719 C 1612.6875 1232 1600.585938 1236.527344 1598 1233.59375 C 1596.339844 1231.667969 1601.324219 1225 1602.21875 1223 C 1607.503906 1212 1612.316406 1200.507813 1616.796875 1189 C 1633.574219 1146 1639 1099 1639 1053 C 1639 1021.421875 1636.191406 990.265625 1626.496094 960 C 1618.960938 936.488281 1602.546875 910.414063 1608 885 C 1615.382813 850.761719 1644.773438 827 1654.972656 794 C 1664 764.574219 1650.246094 736.183594 1648.183594 707 C 1647.378906 695.582031 1650.703125 683 1653.746094 672 C 1664.355469 634 1689.941406 600.46875 1704.988281 564 C 1731.324219 500.179688 1744 432.707031 1747 364 C 1748.980469 319.714844 1746.355469 274 1734 231 C 1728.335938 211.355469 1718.519531 188.351563 1701 176.519531 C 1684.464844 165.355469 1663.621094 166.449219 1645 171.128906 C 1608.589844 180.269531 1574.460938 200.074219 1544 221.574219 C 1449.226563 288.480469 1373.9375 376.023438 1297 462 C 1280.316406 481 1263.894531 500.105469 1246 518 C 1229.917969 534.082031 1212.992188 548.011719 1189 547 C 1154.925781 545.46875 1120.886719 530.183594 1087 525.300781 C 1030.765625 517.195313 974.257813 517.191406 918 525.300781 C 896.484375 528.402344 875 533.355469 854 539 C 827 546 802.957031 552.539063 778 536 C 761.675781 525.175781 748.824219 508.4375 735.832031 494 C 715.292969 471.179688 695.421875 447.769531 674.828125 425 C 611.601563 355.09375 547.398438 283.636719 470 229 C 430.191406 201 377.617188 163.007813 326 168.171875 C 294.835938 171.289063 280.371094 200.753906 271 227 C 249.828125 286.769531 254.53125 357.269531 261 419 C 267 474.015625 282.242188 528.757813 305.308594 579 C 320 611.242188 341.53125 641.546875 350.847656 676 C 361.871094 716.757813 335.890625 755.746094 348.746094 796 C 359 828.464844 389.277344 851.640625 395.691406 886 C 399.886719 908.488281 387.839844 929.433594 380.433594 950 C 372.277344 972.660156 368 996.1875 365.285156 1020 C 359 1072.226563 365.855469 1130.761719 384.425781 1180 C 391.984375 1200.039063 404 1217 413 1236 M 648 593 C 635.878906 585 625.484375 574.144531 613.984375 565.230469 C 594.46875 550.101563 572.957031 536.480469 552 523.425781 C 525.710938 507.050781 498.679688 491.183594 471 477.246094 C 454.925781 469.152344 437.613281 463 422 454 C 427.1875 453.089844 434 457.101563 439 459 C 451.800781 464 464.257813 469.804688 477 475 C 522.945313 493.503906 565.851563 520.464844 605 550.578125 C 618.734375 561.144531 640.824219 577 648 593 M 1581 453 L 1581 454 C 1567.964844 461.609375 1553.351563 466.242188 1540 473.296875 C 1504.847656 492 1470.433594 511.164063 1437 532.699219 C 1419.707031 544 1401.933594 555.394531 1386 568.425781 C 1376.945313 575.828125 1366.867188 587.789063 1356 592 C 1368 573 1389.503906 558 1407 544.003906 C 1457.953125 503.601563 1519 472.519531 1581 453 M 598 599 C 557.472656 580.074219 519.191406 552.464844 475 542 C 483.511719 538.675781 499.570313 546.027344 508 548.660156 C 532.515625 556.308594 557 566 578 581.152344 C 584.757813 586.058594 593.796875 591.664063 598 599 M 1527 541 L 1527 542 C 1496.65625 550.78125 1467.980469 565.652344 1440 580.027344 C 1428.394531 586 1417.238281 594.519531 1405 599 C 1424.300781 572.167969 1466.289063 556.164063 1497 548 C 1506.847656 545.183594 1516.699219 541.085938 1527 541 M 1537 583 L 1537 584 C 1514.296875 596.089844 1489.679688 604.648438 1467 617.175781 C 1419.339844 643.503906 1374.867188 675.566406 1332 709.015625 C 1305.597656 729.613281 1280.441406 751.644531 1255.828125 774.324219 C 1245 784.191406 1234.75 800.191406 1222 807 C 1226.777344 795.644531 1236.839844 786.253906 1244.726563 777 C 1260.929688 758 1277.460938 739.605469 1296 722.828125 C 1363 662.113281 1445.808594 600.179688 1537 583 M 783 807 C 756.636719 788.429688 734.421875 761.238281 709.714844 740.269531 C 637.375 679 557 617.46875 467 585 C 474.191406 582.191406 486 587.671875 493 590 C 515.390625 597.460938 537 606.035156 558 617.164063 C 622.664063 651.683594 680.84375 694.507813 732.167969 747 C 749.914063 765.050781 770.554688 784.671875 783 807 M 374 619 L 373 620 L 374 619 M 1633 619 L 1633 620 C 1618.804688 625.609375 1603.507813 628.679688 1589 633.515625 C 1561.9375 642.535156 1535.234375 653.234375 1509 664.425781 C 1454 688 1402 717.65625 1351 748.449219 C 1317.878906 768.441406 1285.226563 791.304688 1255 815.449219 C 1241 826.507813 1226.867188 844.453125 1211 852 C 1229.582031 818.625 1262.941406 788.769531 1292 764.585938 C 1359.558594 708.359375 1444.558594 670 1528 644 C 1561.503906 633.5625 1597.84375 621.796875 1633 619 M 795 855 C 780.546875 848.125 767.324219 830.601563 755 820.132813 C 733.789063 802.125 710 786.09375 687 770.667969 C 591.410156 707 486.609375 650.601563 375 621 C 382.972656 617.6875 395.820313 623.203125 404 624.738281 C 432.453125 630.085938 460.554688 638.183594 488 647.332031 C 569.621094 674.539063 651.585938 714.335938 718 769.585938 C 746.332031 793.15625 776.863281 822.460938 795 855 M 779 875 C 743.582031 857.421875 710.363281 834.398438 675 816.257813 C 599.785156 777.679688 521.976563 741.445313 440 719.734375 C 418.203125 714 396 711.164063 374 707 C 380 703 392.726563 706 400 706 C 425.960938 706.011719 452.519531 709 478 714 C 562.320313 731 648.484375 765.378906 717 818.117188 C 732.78125 830.265625 747.832031 843 762 857 C 767.765625 862.691406 775.441406 867.519531 779 875 M 1631 706 L 1631 707 C 1586.691406 710.503906 1542.636719 725.621094 1501 740.308594 C 1403 775 1313.453125 825 1223 875 C 1235.324219 855.363281 1260.28125 840 1278 825.25 C 1347.480469 768 1437.347656 732.128906 1525 714.601563 C 1546.972656 710.207031 1568.816406 709 1591 706.828125 C 1602.777344 705.710938 1619.648438 702.644531 1631 706 M 754 887 L 754 888 C 738.414063 885.664063 724 880.738281 708 880.039063 C 670.890625 878.429688 629.957031 891.070313 598 909.285156 C 581 919 568 933.558594 552 944 C 556.289063 931.546875 568.175781 920.617188 576.832031 911 C 606.394531 878.152344 649.722656 849.746094 696 857.324219 C 718 861 735.449219 875.792969 754 887 M 1451 943 C 1436.410156 932.761719 1423.449219 920.8125 1408 911.605469 C 1370.695313 889.363281 1329.308594 879 1286 880.015625 C 1273.648438 880.316406 1262.863281 885 1251 887 C 1257.746094 875.515625 1276.996094 867 1289 862.203125 C 1339.839844 842.066406 1393.90625 874 1427 911.574219 C 1435.171875 921 1446.558594 931.289063 1451 943 M 1453 944 L 1452 945 L 1453 944 M 741 989 L 741 990 C 720.957031 990.003906 700.859375 995.554688 684 1006.535156 C 670 1015.617188 658.378906 1028.609375 650 1043 C 619.652344 1096.339844 641 1174 706 1187.789063 C 716 1190 725.839844 1190.160156 736 1188.714844 C 747.609375 1187.0625 758.972656 1182.070313 769 1176.136719 C 780.933594 1169.074219 790.621094 1158.203125 798.570313 1147 C 808.21875 1133.40625 814.308594 1116.410156 816.726563 1100 C 821 1070.75 811.203125 1047.070313 807 1019 C 818 1027.1875 827.316406 1042.121094 834 1054 C 860.378906 1099.59375 864 1159 822 1196.828125 C 779.445313 1235.140625 706.328125 1239.730469 656 1214.730469 C 638.507813 1206.042969 621.507813 1194 609.921875 1178 C 564.652344 1116 586 1019 662 992.34375 C 675 987.753906 689 985.003906 703 985 C 715.242188 985 729.230469 985.515625 741 989 M 1197 1020 C 1192.910156 1047.679688 1183 1071.148438 1187.753906 1100 C 1190.75 1118.476563 1197.304688 1136 1208.527344 1151 C 1244.589844 1199.539063 1316.628906 1203.21875 1351.640625 1151 C 1383.960938 1102.796875 1365.851563 1035.773438 1318 1005.285156 C 1302.386719 995.339844 1284.515625 990.011719 1266 990 C 1274 984.414063 1289.429688 985 1299 985 C 1335.183594 985 1367.550781 1000.457031 1391 1028 C 1436.378906 1081 1423.367188 1166.15625 1366 1204.640625 C 1316.195313 1238.050781 1236.914063 1240.140625 1189 1201.625 C 1140.824219 1163 1140.664063 1098.140625 1173 1049 C 1179.59375 1039 1187.269531 1027.160156 1197 1020 M 1295 1019.375 C 1329.359375 1017.628906 1334.523438 1072.023438 1300 1074 C 1263.289063 1076.011719 1257.714844 1021.269531 1295 1019.375 M 752 1021.328125 C 784.773438 1015.582031 798.757813 1067.632813 765 1073.734375 C 754.535156 1075.628906 743 1073 736.636719 1064 C 725.539063 1049 732.402344 1024.765625 752 1021.328125 M 928 1349.285156 C 954.289063 1346.183594 976.796875 1363 1002 1363 C 1031.351563 1363 1056.273438 1343 1087 1350.757813 C 1106.535156 1355.796875 1116.800781 1381 1104.894531 1398 C 1089.171875 1420.558594 1061 1390.828125 1043.175781 1407.328125 C 1037 1413 1033.976563 1421.160156 1040.226563 1427.816406 C 1042.25 1430 1047.578125 1432 1047.886719 1435.210938 C 1048.300781 1439.609375 1041.699219 1446.613281 1039.253906 1450 C 1030.464844 1462.1875 1021.695313 1480.214844 1005 1481.828125 C 986 1483.652344 975.925781 1464.386719 967 1451 C 964.226563 1447 957.949219 1440.308594 957.816406 1435.09375 C 957.722656 1431.449219 962.65625 1429.28125 964.773438 1427 C 970 1421.015625 967.996094 1413.421875 962.8125 1408.183594 C 947 1392.300781 926.214844 1412.828125 908 1405.003906 C 891.433594 1398 890.382813 1371.484375 901.390625 1359.289063 C 908.421875 1351.5 918.21875 1350.441406 928 1349.285156 M 411 1449 C 417.875 1455.761719 421.988281 1465.464844 426.246094 1474 C 442.757813 1507.105469 446.167969 1545.011719 430.855469 1579 C 425.222656 1591.511719 414.84375 1610.011719 402 1616 C 402.273438 1602.742188 406.539063 1589.28125 407.828125 1576 C 410.320313 1550.378906 412 1524.691406 413.910156 1499 C 414.570313 1489.390625 414.875 1478.542969 413.574219 1469 C 412.789063 1463.230469 409.382813 1454.460938 411 1449 M 1594 1449 C 1593.359375 1455.4375 1590.566406 1461.503906 1590 1468 C 1587.875 1498.226563 1591.296875 1530 1594.171875 1560 C 1595.933594 1578.433594 1601.609375 1597.691406 1602 1616 C 1558.972656 1590.449219 1557 1527 1572.960938 1486 C 1577.183594 1475.117188 1583.699219 1455.296875 1594 1449 M 280 1465 C 290.707031 1468.148438 300.375 1476.738281 308.984375 1483.574219 C 340 1508.257813 361.191406 1546.289063 363.910156 1586 C 365 1602.222656 363.875 1618.066406 360.488281 1634 C 360 1636.214844 358.753906 1647.792969 355.769531 1647.792969 C 352.898438 1647.792969 352 1639 351.625 1637 C 348.730469 1625.414063 344.785156 1614.164063 340.574219 1603 C 333.484375 1584.203125 325 1566.003906 318.503906 1547 C 313 1531.09375 309 1514.1875 301.742188 1499 C 295.6875 1486.488281 287 1476.675781 280 1465 M 1722 1467 C 1717 1477.566406 1708.324219 1486.164063 1703.4375 1497 C 1688.269531 1530.617188 1678.324219 1566.761719 1664.398438 1601 C 1660 1611.742188 1655.984375 1622.714844 1653.230469 1634 C 1652 1639 1651.523438 1646.148438 1647 1649 C 1644.777344 1632.496094 1640.347656 1616.796875 1640 1600 C 1639.230469 1560.097656 1655.976563 1522.03125 1684 1494 C 1693.863281 1484.136719 1707.945313 1470.222656 1722 1467 M 1820 1479 C 1822.183594 1486.394531 1821.394531 1495.273438 1822.167969 1503 C 1826.253906 1544 1811.84375 1595.289063 1770 1613 C 1779.464844 1591 1787.769531 1569.421875 1793.625 1546 C 1798.914063 1525 1804.453125 1495.300781 1820 1479 M 234 1613 C 226.5625 1610.121094 220.933594 1603.570313 215 1598.425781 C 183.234375 1571 172 1522.257813 184 1482 C 193.867188 1490.175781 199.511719 1508.097656 203.492188 1520 C 210.4375 1540.753906 214.890625 1562.203125 221.671875 1583 C 225 1593.320313 230.773438 1602.789063 234 1613 M 176 1662 C 164.449219 1654.328125 150 1655.535156 137 1655 C 111 1653.824219 85 1654 59 1654 C 49.550781 1654 34 1651 25.316406 1654 C 22.738281 1654.753906 22.6875 1658.671875 23.320313 1661 C 24.410156 1664.617188 28.890625 1664 32 1664 C 41.351563 1664.019531 50.613281 1663 60 1663 C 98.746094 1663 137.433594 1662 176 1662 M 487 1662 C 607.617188 1662 728.40625 1660 849 1660 C 841.613281 1656.8125 832.832031 1658.445313 825 1658 C 803.410156 1656.433594 781.671875 1656 760 1656 C 697.363281 1656 634.726563 1654 572 1654 C 551 1654 530.742188 1654.417969 510 1656.085938 C 503.683594 1656.59375 491 1656.664063 487 1662 M 1155 1659 L 1155 1660 C 1274.9375 1660 1395 1662 1515 1662 C 1507.816406 1656.257813 1495.777344 1656.679688 1487 1655.828125 C 1463.691406 1653.574219 1440.429688 1654 1417 1654 C 1351.972656 1654 1286.964844 1654.421875 1222 1656.015625 C 1199.71875 1656.5625 1177.269531 1659 1155 1659 M 1823 1661 C 1828 1663.15625 1833.636719 1661.15625 1839 1661.054688 C 1846.585938 1661 1854.34375 1662 1862 1662 C 1889.585938 1662.042969 1917.332031 1663 1945 1663 C 1954.332031 1663 1963.667969 1663.0625 1973 1663 C 1976.621094 1663 1981.179688 1663 1980.792969 1658.039063 C 1980.429688 1653.441406 1975.402344 1654.007813 1972 1654 L 1943 1654 C 1904 1654 1860.289063 1649 1823 1661 M 289 1691 C 274 1684.769531 251 1689.359375 235 1687.828125 C 184.773438 1683.050781 134.484375 1684 84 1684 L 41 1684 C 36.710938 1684 28.382813 1682.394531 24.601563 1684.601563 C 22.316406 1686 22.769531 1690.738281 23 1693 C 24 1698.433594 33.824219 1696 38 1696 L 85 1696 C 134.957031 1696 185.21875 1697.5 235 1694.089844 C 252.777344 1693 271.449219 1694.257813 289 1691 M 411 1691 L 411 1692 C 423.613281 1695.730469 438.90625 1693 452 1694.171875 C 496 1698.359375 540.875 1695.527344 585 1695.003906 C 664.339844 1694.058594 743.683594 1696 823 1694 C 867.578125 1693 912.414063 1691 957 1691 C 945.566406 1686.203125 928.339844 1690.003906 916 1688.828125 C 874.585938 1685 831.628906 1686 790 1686 C 664.316406 1686 536 1675.195313 411 1691 M 1045 1690 L 1045 1691 C 1168.550781 1691 1292.28125 1694.800781 1416 1695 C 1455.96875 1695.0625 1496 1696.789063 1536 1695.039063 C 1554.300781 1694.238281 1573.984375 1695.34375 1592 1692 C 1581 1686.191406 1561.371094 1688.160156 1549 1687 C 1510.882813 1682.753906 1472.339844 1684 1434 1684 C 1349.613281 1684 1265.296875 1684 1181 1686.015625 C 1135.761719 1687.121094 1090.222656 1690 1045 1690 M 1712 1690 C 1716.617188 1693.152344 1722.648438 1691.722656 1728 1692.089844 C 1739.945313 1693 1752 1693.035156 1764 1694.171875 C 1815.421875 1699.0625 1868.316406 1696 1920 1696 L 1967 1696 C 1973.464844 1696 1982 1697.445313 1980.835938 1688.058594 C 1979.984375 1682.027344 1970.371094 1684 1966 1684 L 1918 1684 C 1884.4375 1684 1850.527344 1682.570313 1817 1684.039063 C 1782 1685.570313 1747 1690 1712 1690 M 23.757813 1715.027344 C 21 1717.261719 22.984375 1724 23 1727 C 23 1739 23 1751 23 1763 C 23 1766.148438 21.460938 1774.390625 25.316406 1775.683594 C 34 1778.601563 47.789063 1776 57 1776 L 1952 1776 C 1957.519531 1776 1976.371094 1779 1979.972656 1774.398438 C 1982.175781 1771.613281 1981 1765.328125 1981 1762 L 1981 1728 C 1981 1724.171875 1982.664063 1715.746094 1977.851563 1714.316406 C 1967.335938 1711.195313 1951.980469 1714 1941 1714 L 51 1714 C 45 1714 28.429688 1711.089844 23.757813 1715.027344 "/>
</g>
</svg>
