<svg xmlns="http://www.w3.org/2000/svg" viewBox="0 0 128.99 68.64"><g id="Layer_2" data-name="Layer 2"><g id="Layer_1-2" data-name="Layer 1"><path d="M99.06,33.06a7.14,7.14,0,0,0,.13,1.21c.6,1.74,1.17,3.49,1.85,5.2a9.11,9.11,0,0,0,3.42,4.05c1.79,1.26,3.61,2.47,5.39,3.72a10.72,10.72,0,0,1,4.92,7.48,33.38,33.38,0,0,1,.14,4.36,2.87,2.87,0,0,1-.37,1.1,1.85,1.85,0,0,1-2.61,1.08,4.45,4.45,0,0,1-2.24-1.68c-.74-1.12-1.52-2.22-2.22-3.36a2.45,2.45,0,0,0-2.15-1.29,25.67,25.67,0,0,1-11.89-3.47c-.57-.36-1.16-.68-1.74-1a1,1,0,0,0-1.36.19c-.36.44-.09.9.21,1.21,1.08,1.14,2.2,2.23,3.31,3.34l2.85,2.86a6,6,0,0,1,1.62,3.26,7.23,7.23,0,0,1-1.14,4.77,12,12,0,0,1-1,1.34c-1.33,1.67-3,1.63-4.06-.19a18.75,18.75,0,0,1-2-4.05,7.38,7.38,0,0,0-4.88-4.91c-1.56-.59-3.13-1.18-4.74-1.66a14.64,14.64,0,0,1-4-2,31.82,31.82,0,0,1-8.12-7.23,13.41,13.41,0,0,0-5.32.31,40.21,40.21,0,0,1-6.27.94c-1.51.06-3,.21-4.52.31-2.49.18-4.88-.46-7.31-.81l-2.46-.4c-1.59,1.64-3.19,3.36-4.87,5-2.37,2.3-4.76,4.6-7.24,6.78a3.81,3.81,0,0,1-4.7.33A3.14,3.14,0,0,1,24,56.42a6,6,0,0,1,1.84-3.85,25.05,25.05,0,0,0,1.8-1.77,4.68,4.68,0,0,0,.55-.63c.39-.57.76-1.2.36-1.86s-1.11-.53-1.8-.44a16.7,16.7,0,0,0-6.94,2.77c-2.53,1.63-5,3.33-7.41,5.19-1.71,1.34-3.17,3-4.77,4.49a13.28,13.28,0,0,1-1.95,1.57,3.88,3.88,0,0,1-3.87.1A2.9,2.9,0,0,1,0,59a7,7,0,0,1,1-3.17,28.77,28.77,0,0,1,6.48-8.29A51.94,51.94,0,0,0,12.17,43a9.12,9.12,0,0,0,1.93-4.4,2.73,2.73,0,0,0-.46-1.57c-.5-1-1.08-2-1.65-2.92A23.31,23.31,0,0,1,8.45,21.57,39,39,0,0,1,9,16.08a23.49,23.49,0,0,0,.15-3.85,3.1,3.1,0,0,0-.41-1.06C8.08,9.59,7.37,8,6.72,6.42a2.92,2.92,0,0,1-.24-1.3c.13-1.94.59-2.28,2.39-1.64C11,4.25,13.17,5,15.24,6a3.72,3.72,0,0,0,3.19.1,13.52,13.52,0,0,1,6.16-1.32,11.8,11.8,0,0,1,2.79.47,2.16,2.16,0,0,0,2-.22c2.15-1.31,4.34-2.55,6.53-3.78C36.76.78,37.65.45,38.66,0a8.27,8.27,0,0,1,.78,1.54,12.21,12.21,0,0,1,.32,2.33,84.44,84.44,0,0,1-.51,12.56c.47-.1.94-.17,1.39-.29,3.44-.91,6.86-2,10.33-2.72a40.88,40.88,0,0,1,12.86-.81c2.49.24,4.94.88,7.4,1.34,1.2.23,2.41.42,3.61.68a42.16,42.16,0,0,1,14.82,6.43c.42.29.82.6,1.24.88a5.76,5.76,0,0,0,3.47,1,23.73,23.73,0,0,1,6.17.51,27,27,0,0,1,8.59,4,13.58,13.58,0,0,1,2.57,2.15c3.2,3.38,6.47,6.71,9.47,10.26,2.09,2.47,3.8,5.26,5.66,7.92.42.6.73,1.27,1.18,1.84a5.57,5.57,0,0,1,1,3.16,2.3,2.3,0,0,1-3.65,2.2,10.11,10.11,0,0,1-2.49-2.22c-2.1-2.48-4-5.13-6.2-7.51-3.31-3.59-6.7-7.09-10.88-9.72a14.26,14.26,0,0,0-5.38-2.17C100,33.34,99.65,33.21,99.06,33.06ZM11.82,21.38c0,.07,0,.24,0,.4a2.49,2.49,0,0,0,1.89,2.46,2.52,2.52,0,0,0,3-1.16A3.63,3.63,0,0,0,14.83,18,1.52,1.52,0,0,0,14,18C12.54,18.44,11.7,19.22,11.82,21.38Zm17.07,1.95c1.32.16,3.17-1.3,3.14-2.69a2.85,2.85,0,0,0-3.13-2.79,3.09,3.09,0,0,0-2.9,2.9A2.62,2.62,0,0,0,28.89,23.33ZM6.8,56.67a1.45,1.45,0,0,0-1.52-1.61c-1.43.08-3.32,2.24-3.2,3.65a1.63,1.63,0,0,0,2,1.53A5,5,0,0,0,6.8,56.67ZM35.66,5.44A4.41,4.41,0,0,1,35.49,8,6.13,6.13,0,0,0,35.11,10a1.18,1.18,0,0,0,.62.84.65.65,0,0,0,.9-.51,13.3,13.3,0,0,0,.43-4.61A1.44,1.44,0,0,0,35.2,4.47a5.23,5.23,0,0,0-3.05,2.19c-.29.41-.19.87.61,1A5,5,0,0,1,35.66,5.44ZM96.52,63.27c-.15-.59-.34-1.46-.6-2.3a1,1,0,0,0-1.21-.65,1.08,1.08,0,0,0-1,.76,5.74,5.74,0,0,0,.08,3.73,1.24,1.24,0,0,0,1.23,1,1.4,1.4,0,0,0,1.34-1A11.19,11.19,0,0,0,96.52,63.27Zm17.08-6.73a3.79,3.79,0,0,0-1.27-2.74.84.84,0,0,0-1-.23c-.47.18-.82.47-.72,1a19.34,19.34,0,0,0,.84,3,.92.92,0,0,0,1.54.18A5.14,5.14,0,0,0,113.6,56.54ZM11.34,11c.6-1.36-1-2.28-.31-3.43,1.14.14,1.36,1.9,2.8,1.54.2-1.15-.77-1.48-1.3-2a3.75,3.75,0,0,0-1.59-.84c-.45-.13-1.07.47-1.13,1a3.07,3.07,0,0,0,0,1.17C10.11,9.29,10.16,10.35,11.34,11Zm14,45.75c.46.1.89.33,1.1.2A6.07,6.07,0,0,0,28.7,55c-.7-.63-.7-.64-1.08-.48A4.76,4.76,0,0,0,25.36,56.72Zm2.41,1.89c1.16.25,1.23-.84,1.75-1.3a.83.83,0,0,0-.08-.83.87.87,0,0,0-.87,0C28.05,57,27.39,57.56,27.77,58.61Z"/><path d="M12.84,21.2a1.42,1.42,0,0,1,1.35-1.56A1.75,1.75,0,0,1,15.83,21a1.66,1.66,0,0,1-1.54,1.64A1.33,1.33,0,0,1,12.84,21.2Z"/><path d="M30.4,20.54a1.56,1.56,0,0,1-1.58,1.37,1.5,1.5,0,0,1-1.41-1.55c.18-.89.43-1.47,1.27-1.45A1.64,1.64,0,0,1,30.4,20.54Z"/></g></g></svg>