<svg xmlns="http://www.w3.org/2000/svg" viewBox="0 0 79.79 77.65"><g id="Layer_2" data-name="Layer 2"><g id="Layer_1-2" data-name="Layer 1"><path d="M34.8,11.53a3.4,3.4,0,0,1,.4,3.11,15.65,15.65,0,0,1-1.82,4.5,3.71,3.71,0,0,0-.47,1.91c-.08,2.95-.1,5.9-.14,8.85,0,.88,0,1.76,0,2.69a9.48,9.48,0,0,0,5.3.18c2-.31,3.93-.89,5.92-1.12,3.37-.39,6.79-1,10,.64,1-.7,1.88-1.31,2.74-2a6.75,6.75,0,0,0,2.15-2.52c.45-1.07,1.15-2,1.69-3.07a16.94,16.94,0,0,0,1.27-4.85c0-.17,0-.35,0-.5,1.15-3.23,1.38-6.7,2.75-9.86C66.73,4.66,70.07,1.35,75.29.11a4,4,0,0,1,3.82,1.18A2,2,0,0,1,79,4.4,24.45,24.45,0,0,1,76.83,6a8.2,8.2,0,0,0-3.75,5.68,3.23,3.23,0,0,1-.25.8,42.62,42.62,0,0,0-2.11,7.76,53.51,53.51,0,0,1-3.6,11.19,27.72,27.72,0,0,1-7,9.27c.59,1.41,1.23,2.76,1.71,4.17a6.82,6.82,0,0,1,0,4.44,18.31,18.31,0,0,1-2.1,4.92,4.15,4.15,0,0,0-.33.78c-.89,2.17-1.62,4.43-2.7,6.5a18.48,18.48,0,0,1-5.65,6.94c-1.82,1.27-3.45.78-3.93-1.38a28.92,28.92,0,0,1-.41-4.48c-.07-1.16-.05-2.32-.07-3.64-2.72.8-5.34,1.54-7.93,2.36-1.6.5-3.15,1.15-4.73,1.7a2.74,2.74,0,0,0-1.71,1.47c-.5,1-1,2.09-1.62,3.1-1.23,2.15-1.88,4.54-2.89,6.77a5.17,5.17,0,0,1-4.12,3.31A2.6,2.6,0,0,1,20.77,76a7.13,7.13,0,0,1-.68-3.75,33.36,33.36,0,0,1,1.26-7.74c.32-1,.51-2.06.75-3.09a1.34,1.34,0,0,0,.06-.65c-.09-.24-.26-.55-.47-.62s-.5.1-.7.25a1.06,1.06,0,0,0-.35.56A37.5,37.5,0,0,0,18.7,71.64c0,1.72-.2,3.45.5,5.07-2.71,1.59-5.46.51-6.33-2.57a42.79,42.79,0,0,1-1.29-6.23c-.33-2.6-.49-5.22-.6-7.84A51.76,51.76,0,0,0,9.11,49.21c-.29-1.08-.65-2.14-.94-3.22a2.2,2.2,0,0,0-1.26-1.48C1.74,42-.25,37.7,0,32.19c.09-1.71.52-3.4.71-5.11a16.72,16.72,0,0,0,0-2.83c-.13-2-.29-4-.5-6A22.65,22.65,0,0,1,.9,9.82,1.17,1.17,0,0,1,2.71,9a14.17,14.17,0,0,1,1.78,1.52c1.86,1.76,3.7,3.54,5.43,5.19l10-.21a3.24,3.24,0,0,1,1.33.1c1.25.56,2.12.06,3-.84a8.62,8.62,0,0,1,5.48-2.63C31.36,11.92,33.07,11.73,34.8,11.53Zm-17,20c-.59,1.61.23,3.76,1.62,4.1,2.19.53,4.23-1.38,3.72-3.24a14.8,14.8,0,0,0-.66-2.08,1.49,1.49,0,0,0-.81-.77A3,3,0,0,0,17.75,31.48Zm-13,2.79a15.42,15.42,0,0,0,1.89,0A1.67,1.67,0,0,0,8.23,33a8.13,8.13,0,0,0,0-2.65A2.19,2.19,0,0,0,6.06,28.4a2.12,2.12,0,0,0-2.37,1.46,11.32,11.32,0,0,0-.49,1.26A2.42,2.42,0,0,0,4.79,34.27Zm25.75-18.9a3.71,3.71,0,0,1-.07,1.12,10.44,10.44,0,0,1-1.1,2.06c-.35.49-.57,1,0,1.26s.87-.23,1.1-.72.65-1.18.88-1.81a5.66,5.66,0,0,0,.33-1.78c0-1.05-.55-1.49-1.62-1.37A8.08,8.08,0,0,0,26,16c-.66.52-.86,1.05-.53,1.37.55.53.92,0,1.27-.3A5.78,5.78,0,0,1,30.54,15.37ZM6.32,17.58a3.74,3.74,0,0,0-1.75-3.25A.93.93,0,0,0,3,14.7a5.07,5.07,0,0,0-.17,4c.21.59.62.56,1,.17C4,17.7,3.1,16.45,4,15.28,5.15,15.68,4.76,17.45,6.32,17.58ZM16,71.94c-.92,0-1.16.5-1.12,1a6.33,6.33,0,0,0,.41,1.77c.16.4.51.85,1,.57a1.11,1.11,0,0,0,.36-1C16.47,73.54,16.19,72.77,16,71.94Zm32.38-6.26c.87.14,1.08.15,1.19-.15a4.2,4.2,0,0,0,.23-3c-.4.24-.83.34-1,.61A3.59,3.59,0,0,0,48.34,65.68ZM21.75,73.16a7.78,7.78,0,0,0,.12,1.44c0,.17.41.34.64.37a.65.65,0,0,0,.5-.34,11,11,0,0,0,.31-1.79.58.58,0,0,0-.87-.45A4.53,4.53,0,0,0,21.75,73.16Z"/><path d="M21.74,33.2a1.72,1.72,0,0,1-2,.78,1.63,1.63,0,0,1-1-2,1.85,1.85,0,0,1,2-.83A1.83,1.83,0,0,1,21.74,33.2Z"/><path d="M6.9,32a1.17,1.17,0,0,1-1.65.86,1.25,1.25,0,0,1-.9-1.8A1.21,1.21,0,0,1,6,30.16,1.26,1.26,0,0,1,6.9,32Z"/></g></g></svg>