<?xml version="1.0" encoding="UTF-8"?>
<svg xmlns="http://www.w3.org/2000/svg" xmlns:xlink="http://www.w3.org/1999/xlink" width="2000pt" height="2000pt" viewBox="0 0 2000 2000" version="1.1">
<g id="surface1">
<path style=" stroke:none;fill-rule:nonzero;fill:rgb(0%,0%,0%);fill-opacity:1;" d="M 172 247.4375 C 146.539063 251.375 140.417969 275.433594 134.425781 297 C 120.515625 347.03125 113.53125 399.363281 109.910156 451 C 99.714844 596.449219 119.765625 744.53125 169.433594 882 C 184.769531 924.4375 202.417969 966.636719 222.601563 1007 C 233.558594 1029 247.1875 1050 257.472656 1072 C 262 1082 254.472656 1100.476563 252.753906 1111 C 247.636719 1142.296875 245 1173.527344 242.171875 1205 C 241.171875 1215.507813 242 1226.449219 242 1237 C 242 1240 240.730469 1246.480469 244.316406 1247.683594 C 252.652344 1250.472656 266.3125 1246.683594 275 1246.089844 C 295.945313 1244.65625 318 1243.652344 339 1245.089844 C 363.902344 1246.796875 389.488281 1247.761719 414 1253.117188 C 418.789063 1254.164063 438 1256.730469 434.492188 1265.242188 C 431.65625 1272 421.976563 1272 416 1272 L 362 1272 C 286.472656 1272 214.320313 1274.53125 140 1288.738281 C 121.230469 1292.328125 94.28125 1297.296875 79.289063 1309.785156 C 68.910156 1318.429688 64.597656 1334.152344 72 1346 C 79.4375 1357.476563 91.847656 1358.621094 104 1356.425781 C 122.851563 1353.019531 141.394531 1347.414063 160 1343 C 181.746094 1337.5625 203.808594 1333.109375 226 1330 C 233.296875 1329 243.628906 1325.308594 250.890625 1327.320313 C 258.800781 1329.507813 254.179688 1348.742188 262 1349.167969 C 271.65625 1349.675781 284.675781 1342.808594 294 1340.476563 C 316.75 1334.789063 339.882813 1330.53125 363 1326.753906 C 387.636719 1322.726563 413 1320 438 1320 C 444.71875 1320 460.542969 1320 460.542969 1330.003906 C 460.542969 1339.171875 446.570313 1341.128906 440 1342.449219 C 416.960938 1347.085938 393.277344 1350.519531 370 1354 C 290 1365.367188 207.902344 1385 138 1426.800781 C 116.382813 1439.746094 71.230469 1462.347656 82.550781 1494 C 91.691406 1519.574219 119 1511.03125 136 1500.304688 C 171.765625 1477.53125 206.4375 1455.425781 246 1439.601563 C 257.976563 1434.808594 270.273438 1428.617188 282.996094 1426.097656 C 292 1424.3125 289.355469 1439.144531 297 1439.210938 C 304.632813 1439.277344 315 1431.691406 322 1428.8125 C 339.988281 1421.367188 358.417969 1414.75 377 1409 C 401 1401.507813 425.945313 1394 451 1391 C 457.773438 1390.03125 473.28125 1387 476.914063 1395.054688 C 480 1402.140625 466.808594 1407.648438 462 1409.46875 C 441.382813 1417.269531 420.179688 1424.042969 399 1430.140625 C 326.488281 1451.019531 255.464844 1476 193 1519.023438 C 173.902344 1532.210938 133.582031 1560 149.53125 1588 C 158.789063 1604.320313 177.523438 1604.054688 192 1595.371094 C 207.941406 1585.804688 221.699219 1572.570313 237 1562.023438 C 262.671875 1544.332031 289.589844 1529.148438 317 1514.375 C 320.96875 1512.234375 329.929688 1505.664063 334.5625 1506.714844 C 337.914063 1507.476563 340.289063 1512.472656 342 1515 C 347.175781 1521.800781 352.480469 1528.433594 357.804688 1535 C 360.914063 1539 368.234375 1551 374 1549.695313 C 380.675781 1548.320313 388.433594 1538.441406 394 1534.425781 C 408.925781 1523.648438 424.421875 1514.28125 441 1506.257813 C 495.457031 1480 561.753906 1475.335938 620 1490 C 688.847656 1507.105469 749.257813 1556 774.574219 1623 C 784.402344 1649.054688 787.84375 1677.667969 781.882813 1705 C 781 1709 773.996094 1729.179688 778.332031 1730.683594 C 786.679688 1733.570313 800 1731 809 1731 L 1196 1731 C 1200.914063 1731 1218.597656 1733.722656 1221.929688 1730 C 1224.933594 1726.59375 1216.515625 1708.484375 1215.5 1704 C 1210.621094 1682.445313 1211.742188 1660.371094 1217 1639 C 1237.265625 1557.328125 1317 1499.550781 1397 1486.082031 C 1453.199219 1476.609375 1512.835938 1483.03125 1564 1509.257813 C 1577.929688 1516.398438 1591.554688 1524.734375 1604 1534.234375 C 1609.429688 1538.378906 1616.855469 1547.144531 1623.425781 1549 C 1628 1550.289063 1632.34375 1543 1634.75 1540 C 1641.765625 1531.511719 1648.445313 1522.75 1655 1514 C 1658.433594 1509.675781 1661.210938 1505.800781 1667 1508 C 1706.261719 1522.46875 1745 1548.539063 1778 1574 C 1793 1585.636719 1810.722656 1606.257813 1832 1600.210938 C 1852.296875 1594.445313 1855.476563 1572 1845 1556 C 1827.863281 1529.394531 1794 1509.671875 1767 1494.28125 C 1733.4375 1475.15625 1698 1462.484375 1662 1449.191406 C 1625.546875 1435.757813 1587.261719 1425.382813 1550 1414.425781 C 1542.800781 1412.308594 1516.550781 1407 1517.394531 1396.429688 C 1518 1387.039063 1534.261719 1389.15625 1540 1390 C 1564.363281 1392.761719 1588.441406 1399.152344 1612 1406 C 1632.632813 1411.734375 1653 1419.238281 1673 1427.199219 C 1681.585938 1430.632813 1690.910156 1437.160156 1699.894531 1439.039063 C 1707 1440.527344 1705.90625 1425.441406 1714 1426.035156 C 1727.492188 1427.023438 1742.585938 1435.433594 1755 1440.398438 C 1794.425781 1456.171875 1829.804688 1478.226563 1865 1501.644531 C 1882.222656 1513.105469 1915.34375 1515.820313 1916.957031 1487 C 1918.679688 1456.246094 1878.242188 1436.0625 1855 1423.460938 C 1784.757813 1385.375 1708.894531 1365 1630 1354 C 1604.691406 1350.484375 1579 1347.179688 1554 1342 C 1548 1340.753906 1531.949219 1337.355469 1534.660156 1328.015625 C 1537.28125 1319 1551.835938 1319.730469 1559 1320 C 1584 1320.585938 1609.277344 1323.023438 1634 1327.078125 C 1657.40625 1331 1680.910156 1335.410156 1704 1341 C 1712.75 1343 1725 1349.554688 1733.867188 1349.164063 C 1742.449219 1348.785156 1737 1329.640625 1745.46875 1327.179688 C 1755 1324.371094 1771.375 1329.589844 1781 1331.390625 C 1807.285156 1336.304688 1833 1341.3125 1859 1348.117188 C 1879.957031 1353.625 1928.1875 1370.488281 1928.984375 1333 C 1929.640625 1302.222656 1888 1295.371094 1865 1289.628906 C 1792.820313 1271.664063 1719.660156 1272 1646 1272 L 1579 1272 C 1573.269531 1272 1559.902344 1272.0625 1558.921875 1264 C 1558.367188 1259.464844 1564.640625 1257 1568 1255.699219 C 1578.441406 1252 1590 1251.144531 1601 1249.71875 C 1638 1245 1678.6875 1241.3125 1716 1245.714844 C 1725.839844 1247 1736 1246.394531 1746 1247.089844 C 1748.488281 1247.265625 1753.769531 1249.160156 1755.398438 1246.394531 C 1757 1243.605469 1756 1238.125 1756 1235 C 1756 1225 1756 1215.003906 1755.171875 1205 C 1752.265625 1174.492188 1750 1144.332031 1744.75 1114 C 1742.851563 1103.082031 1735.175781 1083.566406 1738.535156 1073 C 1740.984375 1065.300781 1746.769531 1058.011719 1750.714844 1051 C 1758 1038 1764.9375 1024.351563 1771.960938 1011 C 1791.25 974.332031 1807.175781 935.621094 1822 897 C 1876.625 755.753906 1901.519531 597.769531 1887.171875 447 C 1882.503906 398 1876.820313 348.617188 1863.289063 301 C 1858.300781 283.441406 1853.476563 260.242188 1836 251 C 1822.378906 243.644531 1803 248.710938 1789 252.128906 C 1752 261.097656 1715.867188 275.1875 1681 290.148438 C 1581.34375 333 1486.640625 387.113281 1400 452.375 C 1374.945313 471.246094 1349.679688 491.355469 1327 513.039063 C 1313.785156 525.675781 1299 546.09375 1283 554.667969 C 1278.523438 557.050781 1273.265625 554.089844 1269 552.398438 C 1258.703125 548.3125 1248.304688 544.5 1238 540.449219 C 1200.605469 525.746094 1160.308594 517.386719 1121 509.804688 C 1030.21875 492.289063 933.996094 496.257813 844 516.425781 C 815.769531 522.75 787.179688 530.207031 760 540.226563 C 750.304688 543.804688 740.597656 547.359375 731 551.199219 C 727.316406 552.671875 722 556 718 555.609375 C 713.609375 555.203125 709.882813 550 707 547 C 699.484375 539.484375 691.515625 532.492188 684 525 C 657.664063 498.75 628.421875 475.320313 599 452.652344 C 506.300781 381.226563 400.738281 320.742188 291 279.773438 C 264.273438 269.796875 237.789063 259.507813 210 252.769531 C 198.300781 250 184 245.566406 172 247.4375 M 260 447.285156 C 289 443.722656 321.398438 461.265625 346 474.523438 C 402.894531 505.1875 457.289063 539.792969 508 580.003906 C 525.285156 593.710938 542.4375 607.707031 559 622.285156 C 562.453125 625.328125 574 633.707031 572.652344 639 C 571.359375 644 562.835938 648.300781 559 651.234375 C 545.753906 661.363281 532.816406 671.746094 520 682.414063 C 478.59375 717 441.449219 755.820313 408 798 C 378.742188 835 351 875.109375 329.359375 917 C 323.824219 927.695313 318.242188 938.503906 312.347656 949 C 311.28125 951 308.296875 958.792969 305.796875 958.792969 C 303.519531 958.792969 302 954.597656 301.246094 953 C 297.898438 946.414063 295 939.609375 291.753906 933 C 277.992188 905.453125 267 876.191406 257.332031 847 C 233.835938 776.242188 220.996094 702.21875 215.910156 628 C 214 600.414063 211.203125 571.609375 213.828125 544 C 216.78125 513 208.875 467.191406 244 451.3125 C 249 449.039063 254.539063 448 260 447.285156 M 1727 447.285156 C 1732 446.683594 1737 447.15625 1742 448.09375 C 1784.320313 456.074219 1782.5 509.640625 1783.960938 543 C 1788.507813 647 1770.222656 751.15625 1739.71875 850 C 1730.992188 878.261719 1718.339844 905 1706.574219 932 C 1704.347656 937.125 1698 957 1692 958.078125 C 1688.914063 958.644531 1685.84375 949.179688 1684.753906 947 C 1678.289063 934.070313 1671 921.5625 1664 909 C 1634.703125 857.441406 1600.585938 808.046875 1561.253906 763.574219 C 1531.707031 730.167969 1498.953125 698.410156 1464 670.664063 C 1454 662.8125 1444 655.132813 1434 647.527344 C 1431.191406 645.40625 1424.457031 641.714844 1424 638 C 1423.472656 632.644531 1434.644531 626 1438 623 C 1454 608.183594 1470.957031 594.511719 1488 581 C 1531.992188 546.117188 1579.328125 515.480469 1628 487.578125 C 1658.84375 470 1691.183594 451.570313 1727 447.285156 M 602 983.285156 C 670.441406 975.210938 746.609375 1006.765625 791.714844 1058 C 808.425781 1077 825.421875 1099.265625 834.746094 1123 C 839 1134.234375 838.738281 1149.546875 824 1152.515625 C 816.667969 1154 810.835938 1149.449219 806.519531 1144 C 797.496094 1132.609375 790.371094 1119.644531 781.625 1108 C 755.273438 1073 715.925781 1043.414063 673 1032.378906 C 623.589844 1019.671875 569 1023.808594 524 1049 C 505.882813 1059 491 1071.738281 475.828125 1085.613281 C 468.335938 1092.445313 460.1875 1101.53125 449 1099.785156 C 438.722656 1098.183594 434.222656 1087.191406 436.976563 1078 C 441.308594 1063.5625 457.496094 1051.082031 468 1041.039063 C 505.347656 1005.328125 551.753906 989.214844 602 983.285156 M 1361 983.285156 C 1419.238281 976.414063 1478.878906 998.25 1523 1035.4375 C 1535.566406 1046.03125 1549.191406 1059 1557.675781 1073 C 1562.808594 1081.558594 1562 1092.542969 1552.996094 1098.257813 C 1540.324219 1106.195313 1526.996094 1090.683594 1519 1083.039063 C 1493.898438 1059.039063 1463.710938 1040.621094 1430 1031.734375 C 1367.804688 1015.339844 1295.171875 1030.40625 1247 1074.074219 C 1228.78125 1090.59375 1213.878906 1109.292969 1200.695313 1130 C 1194.839844 1139.195313 1189.671875 1152.113281 1177 1152.28125 C 1163.816406 1152.457031 1158.617188 1138 1162 1127 C 1169.246094 1104.511719 1185.792969 1083.273438 1200.210938 1065 C 1239.933594 1014.648438 1299 990.589844 1361 983.285156 M 983 1142.285156 C 1025.191406 1137.308594 1110.984375 1147.359375 1092.957031 1209 C 1090.3125 1218.046875 1085.609375 1226.121094 1080.566406 1234 C 1072 1247.128906 1059.964844 1259.15625 1046 1266.242188 C 1040.40625 1269.082031 1025 1271.597656 1023.316406 1278.042969 C 1021 1286.21875 1024.972656 1298 1026.601563 1306 C 1032.375 1334.703125 1045.328125 1362.828125 1067 1383 C 1101 1414.542969 1159.925781 1407.246094 1179.90625 1363 C 1187.871094 1345.355469 1184.953125 1301.019531 1214 1305.300781 C 1238.789063 1309 1234.738281 1341.578125 1231.199219 1359 C 1222.796875 1400.332031 1190.789063 1434.355469 1150 1445.117188 C 1109.824219 1455.710938 1067.878906 1446.421875 1036 1419.5625 C 1025.1875 1410.449219 1015.75 1399.097656 1008.449219 1387 C 1006.789063 1384.246094 1002.753906 1374.054688 999 1374.054688 C 996.558594 1374.054688 994.847656 1378.28125 993.851563 1380 C 990.464844 1386 986.820313 1391.527344 982.847656 1397 C 969.875 1415 952.300781 1430.191406 932 1439.136719 C 878.535156 1462.710938 811.210938 1445.230469 780.734375 1394 C 768.851563 1374.023438 753.511719 1332.183594 772.183594 1312.042969 C 782.722656 1300.679688 800.289063 1304.070313 806.648438 1318 C 814 1334.320313 811.558594 1353.203125 821.546875 1369 C 847.859375 1410.617188 900.550781 1412 935 1380 C 955.394531 1361 965 1334.300781 971.730469 1308 C 973.78125 1300 977.773438 1285.035156 974.796875 1277 C 972.941406 1271.738281 961.53125 1270.722656 957 1268.773438 C 945.535156 1263.832031 934.523438 1255.347656 926.289063 1246 C 905.589844 1222.484375 888.714844 1179.460938 921 1157.75 C 939 1145.539063 962 1144.757813 983 1142.285156 M 1438 1523.425781 C 1393 1529.316406 1349.597656 1537.328125 1314 1568.289063 C 1279.605469 1598.203125 1239 1656.105469 1265.871094 1703 C 1270.996094 1712 1278.183594 1720 1286 1726.570313 C 1299.265625 1738 1314.914063 1746.828125 1331 1753.574219 C 1389.226563 1778 1458.953125 1780.734375 1519 1761.496094 C 1534.269531 1756.601563 1548.714844 1750.507813 1563 1743.242188 C 1570.265625 1739.550781 1578 1733.210938 1586 1731.394531 C 1606 1726.820313 1629.617188 1731 1650 1731 C 1692.683594 1731.015625 1735.375 1730.496094 1778 1730.003906 C 1819.320313 1729.527344 1860.675781 1730 1902 1730 C 1912.96875 1730 1924 1729.558594 1935 1730.039063 C 1939.265625 1730.226563 1945.710938 1732.398438 1949.773438 1730.347656 C 1953.199219 1728.613281 1952 1722.125 1952 1719 L 1952 1687 C 1952 1683.574219 1953.390625 1677 1948.851563 1676.148438 C 1925.601563 1672 1897.683594 1676 1874 1676 L 1659 1676 C 1652 1676 1640.566406 1678.203125 1634 1675.398438 C 1629.59375 1673.40625 1631.230469 1658.667969 1631 1654 C 1630 1636.746094 1621.839844 1619.113281 1612.328125 1605 C 1583.207031 1561.773438 1532.507813 1535.074219 1482 1526.585938 C 1468 1524.257813 1451.992188 1521.589844 1438 1523.425781 M 535 1524.425781 C 474.695313 1532.367188 418 1556.644531 383.203125 1609 C 374.914063 1621.449219 367.726563 1638 367 1653 C 366.8125 1658 369.605469 1672.765625 364.683594 1675.636719 C 359.644531 1678.574219 350.597656 1677 345 1677 L 66 1677 C 61.636719 1677 49 1675 46 1678.589844 C 43.878906 1681.335938 45.707031 1687 45.910156 1690 C 46.5625 1700 46 1710.054688 46 1720 C 46 1723.425781 44.609375 1730.015625 49 1731 C 58.785156 1732.628906 70.191406 1731 80 1731 L 322 1731 C 351.21875 1731 381.9375 1728.25 411 1731.105469 C 418.394531 1731.832031 424.710938 1737.628906 431 1741.136719 C 441.769531 1747.148438 453.347656 1752.609375 465 1756.65625 C 511.464844 1772.789063 561.386719 1778.632813 610 1769.539063 C 632.90625 1765.253906 657.441406 1759.507813 678 1748.140625 C 693 1739.78125 707.941406 1730.628906 719.910156 1718 C 750.492188 1685.675781 739.417969 1638.496094 716.65625 1605 C 677.890625 1548 603.644531 1515.386719 535 1524.425781 "/>
</g>
</svg>
