<svg xmlns="http://www.w3.org/2000/svg" viewBox="0 0 100 100"><g transform="translate(1, 13.468825004950176) scale(1.3917564311741357) translate(0, 2.220446049250313e-15)"><path d="M41.07,9.63c-.46.57-.92,1.06-1.29,1.61A15.54,15.54,0,0,0,37,20.36a6.5,6.5,0,0,0,.83,2.89c.68-.07.88-.34.73-1A12.19,12.19,0,0,1,39,15.49a14.7,14.7,0,0,1,2.57-4.29,4.25,4.25,0,0,0,.81-1.78A18.44,18.44,0,0,1,47,.24,3.19,3.19,0,0,1,47.44,0c1.42.86,2,2.55,3,3.8a36.58,36.58,0,0,1,2.7,4.28l2.32-.37,4.64-5.4a1.8,1.8,0,0,1,2.37-.61,2.53,2.53,0,0,1,1,1c.86,1.69,1.7,3.4,2.43,5.14,1,2.36,1.92,4.76,2.83,7.16a21.79,21.79,0,0,1,.77,12.21,49,49,0,0,1-3.07,8.85c-.44,1.08-1,2.13-1.4,3.22a1.71,1.71,0,0,1-1.38,1.25,32.32,32.32,0,0,1-6.18,1.29c-1.73.07-3.44.42-5.16.62-.43.06-.81.19-.82.65s.44.73.92.71a17.71,17.71,0,0,0,4.17-.28c2.48-.65,5-1.12,7.5-1.66A2.34,2.34,0,0,1,66.87,43c1.32,2.07.38,4.63-2.15,5.68a21.58,21.58,0,0,1-3.65,1.18c-2.4.51-4.81,1-7.23,1.31-3.67.45-7.35.74-11,1.06a45.26,45.26,0,0,1-5.2.25c-2.74-.07-5.48-.3-8.21-.49-1.85-.12-3.69-.27-5.53-.44a32.69,32.69,0,0,1-16.43-5.7,10.71,10.71,0,0,1-2.82-3.06,29.21,29.21,0,0,1-3.31-7.65,31.58,31.58,0,0,1-1-6.76C.19,27.18,0,26,0,24.74a20.48,20.48,0,0,1,.31-3C.5,20.47.7,19.2,1,18A20.41,20.41,0,0,1,7.29,6.57a13.86,13.86,0,0,1,2.27-1.7A19.92,19.92,0,0,1,20.48,2.12,28.7,28.7,0,0,1,30,4.49C33.4,5.89,36.66,7.51,40,9,40.31,9.2,40.64,9.4,41.07,9.63ZM59.5,18.69c0-1.92-1.14-3.49-2.64-3.51a3.33,3.33,0,0,0-3,3.2,2.8,2.8,0,0,0,2.85,2.87A2.84,2.84,0,0,0,59.5,18.69ZM43.37,17.11c0,1.86,1.05,3.16,2.65,3.19a2.83,2.83,0,0,0,2.77-2.76,3,3,0,0,0-2.66-3.06A2.49,2.49,0,0,0,43.37,17.11ZM61.72,5.42c.35,1.25.62,2.19.87,3.13A17.79,17.79,0,0,0,63,10.33c.07.2.47.47.6.42a1.58,1.58,0,0,0,.63-.65.68.68,0,0,0,0-.49,14,14,0,0,0-1.51-4.39c-.61-1-1.17-1.1-2-.38A10.24,10.24,0,0,0,58,8.57c-.09.19.17.54.32,1A18.47,18.47,0,0,1,61.72,5.42ZM45.34,9.6c1.21-1.28.89-3.13,2.26-4.31.31.52.61,1,.85,1.44.34.64.64,1.3.94,2,.2.43.49.58,1,.3.31-1.22-.68-2-1.14-3A4.32,4.32,0,0,0,48,4.55,1,1,0,0,0,46.44,5c-.44.83-.79,1.71-1.17,2.58A2,2,0,0,0,45.34,9.6Z"/><path d="M56.47,19.65a1.41,1.41,0,0,1-1.61-1.3,1.9,1.9,0,0,1,1.62-1.78A1.74,1.74,0,0,1,58,18.29C58,19.17,57.48,19.63,56.47,19.65Z"/><path d="M46.08,18.85A2,2,0,0,1,44.21,17a1.78,1.78,0,0,1,1.64-1.6,2.07,2.07,0,0,1,1.87,2A1.73,1.73,0,0,1,46.08,18.85Z"/></g></svg>