<svg xmlns="http://www.w3.org/2000/svg" xmlns:xlink="http://www.w3.org/1999/xlink" viewBox="0 0 100 100" version="1.1"><g transform="translate(1, 7.5852423599387535) scale(0.049932529001372045) translate(3.253906, -260.117188)"><path style=" stroke:none;fill-rule:nonzero;fill:rgb(0%,0%,0%);fill-opacity:1;" d="M 1193 903 L 1192 903 C 1192.339844 886.679688 1197 869 1200.574219 853 C 1209.328125 813.320313 1221.699219 775.242188 1235.308594 737 C 1261.355469 663.8125 1289.585938 591.28125 1322.78125 521 C 1342 480.199219 1364.964844 441.28125 1385 401 C 1377.277344 404.316406 1371.574219 412.027344 1365.921875 418.039063 C 1349.53125 435.472656 1336 456.3125 1324 477 C 1282 550.386719 1251 633 1224 713 L 1223 713 C 1223.285156 678.449219 1233.179688 641.394531 1241.527344 608 C 1257.839844 542.742188 1278.695313 478.03125 1302.226563 415 C 1308 399.527344 1317 384.582031 1322 369 C 1313.464844 375.300781 1307.96875 387.023438 1302.550781 396 C 1288.195313 419.800781 1277.171875 445.121094 1267.1875 471 C 1238.207031 546.117188 1222.390625 625.089844 1208.679688 704 C 1203.542969 733.558594 1193.621094 765 1193 795 L 1191 795 C 1191 754.71875 1186.328125 714.15625 1187 674 C 1187.390625 655.394531 1187.753906 636.597656 1189 618 C 1189.570313 609.496094 1192.800781 599.300781 1191 591 L 1190 591 C 1189.324219 601.609375 1184.839844 612.625 1182.449219 623 C 1175.710938 652.28125 1166.207031 688 1170 718 C 1160.175781 710.464844 1155 696 1144 690 C 1144.976563 697.707031 1147.328125 705.316406 1148 713 L 1147 713 C 1142 703.121094 1131.914063 691.410156 1123 685 C 1123.902344 694.070313 1127.757813 703 1128 712 C 1118 702.15625 1108.761719 692 1099 682 C 1094.769531 677.621094 1091.359375 672.070313 1086 669 C 1086 680.808594 1091 692.222656 1091 704 C 1083 690.792969 1072.441406 679.761719 1064 667 L 1063 667 C 1064.628906 678.085938 1068.597656 688.636719 1068 700 L 1067 700 C 1062.742188 689.832031 1052.511719 672.753906 1043 667 C 1043 677.191406 1045 688 1047 698 C 1037.859375 691 1028.648438 676.132813 1023 666 L 1022 666 C 1022.199219 675.675781 1023.972656 685.308594 1024 695 C 1015.710938 687.375 1011 672.628906 1005 663 L 1004 663 L 1004 695 C 996.734375 687 992.636719 673.792969 988 664 C 983 671.183594 984 687.21875 983 696 C 975 688 974.289063 673 969 663 L 968 663 C 967 674 962.59375 684.472656 960 695 L 959 695 C 955.417969 685.191406 952.394531 674.359375 951 664 L 950 664 C 945.375 674.382813 942.449219 685.207031 939 696 C 934 686 936 673.574219 933 663 L 932 663 C 927.460938 673.175781 923.445313 687.730469 916 696 L 915 663 C 904.851563 669.136719 902.351563 686.675781 894 695 C 894.449219 684.542969 896.664063 674.34375 898 664 C 886.835938 671 880.535156 689 872 699 C 871.660156 688.558594 874.78125 678.316406 875 668 C 864 675.136719 861 692 850 698 L 857 667 C 844.300781 676.347656 839.707031 693.578125 828 703 C 830.953125 692 832.640625 680.289063 835 669 C 817.824219 679.199219 807.667969 699.601563 791 711 C 793 703.019531 794.324219 694.246094 795 686 C 786.855469 691 777.253906 704.449219 773 713 L 772 713 C 771.917969 704.496094 774.921875 696.363281 776 688 C 768.304688 690.789063 760.976563 706 755 712 C 755.199219 687.6875 752.210938 664 747.625 640 C 744.996094 626.277344 738.710938 612 738 598 L 736 598 C 736.242188 609.6875 739.699219 621.261719 739.984375 633 C 740.722656 663.128906 738 693 738 723 L 737 723 C 720.710938 654.617188 701.335938 588 673.574219 523 C 662 496.117188 646.4375 471.300781 634 445 L 633 445 C 634.304688 455.019531 641.679688 464.796875 645.714844 474 C 653.8125 492.460938 661 511.1875 668.386719 530 C 689 584 702.558594 640 715.5 696 C 720.585938 718.046875 729.9375 742.285156 730 765 L 729 765 C 719.347656 728.089844 704 692.011719 691.503906 656 C 670.960938 597.15625 651.222656 536.738281 620.859375 482 C 609 460.617188 597.246094 439.234375 581.996094 420 C 576.867188 413.53125 571.449219 403.773438 564 400 C 568.753906 413.058594 577.375 425.589844 583.742188 438 C 596.804688 463.464844 609.199219 489.644531 620.378906 516 C 639.503906 561.09375 657.988281 606.511719 673.484375 653 C 681.375 676.667969 685.472656 701.304688 693 725 L 692 725 C 679.234375 697.65625 662 672 648.257813 645 C 611.289063 573 574.507813 500.640625 523.800781 437 C 506.910156 415.800781 489.296875 396.015625 469.996094 377 C 462 369.175781 453 357.8125 443 353 C 449.855469 367.433594 465.628906 380.238281 475.5 393 C 498 422.195313 518.761719 453.105469 538.921875 484 C 564.59375 523.332031 586 565.320313 609.566406 606 C 666.285156 704.539063 718.765625 805.480469 738 919 L 737 919 C 728.488281 883.074219 708.902344 847.253906 695 813 C 676.847656 767.519531 659.621094 721.667969 635 679 C 603 623.171875 561.351563 573.429688 519.289063 525 C 468 466.140625 413 410 351.425781 362 C 304.175781 325.25 253.347656 290.148438 196 271.167969 C 162.617188 260.117188 129.757813 260.664063 112.785156 296 C 89.371094 344.734375 84.289063 406.773438 81.960938 460 C 78.820313 531.753906 80.929688 603.058594 93.464844 674 C 103 728.191406 118.511719 781.550781 126.574219 836 C 130.417969 862 132.449219 888.8125 129.832031 915 C 127.589844 937.414063 120.503906 960.335938 123.285156 983 C 126 1005.742188 138.207031 1027 146.550781 1048 C 159.949219 1081.792969 168.617188 1118.550781 163.820313 1155 C 160.390625 1181.046875 138.980469 1197.273438 132 1221 C 148.1875 1211.636719 157.871094 1193.8125 176 1186 C 166.917969 1194.339844 153.449219 1201.546875 148 1213 C 155.402344 1210.546875 161.289063 1205.125 169 1203 C 154.484375 1219.765625 125.6875 1234.429688 121 1258 C 132.78125 1249.710938 143 1241.773438 156 1235 C 138.1875 1253.1875 117.265625 1275.367188 109 1300 C 117.195313 1293.730469 123.445313 1285.019531 132 1279 C 120.90625 1300.085938 105.207031 1324.339844 105 1349 L 106 1349 C 110.550781 1338.171875 115.445313 1327.125 123 1318 C 121 1326.703125 118.425781 1335.335938 116.253906 1344 C 115.703125 1346.191406 113 1351.753906 115.644531 1353.398438 C 118.792969 1355.378906 125.390625 1354 129 1354.089844 C 141.34375 1355 153.664063 1356.089844 166 1357.085938 C 200.261719 1360 234.570313 1368 268 1375.5 C 365.425781 1397.667969 463.921875 1438.28125 551 1487 C 578.863281 1502.40625 606.402344 1520.421875 632 1539.476563 C 644.3125 1548.644531 653.683594 1562.785156 671 1560 C 659.503906 1543.679688 641.28125 1532.667969 627 1519 C 649.496094 1522 673.324219 1522.53125 696 1523 C 683.363281 1507.710938 660.832031 1498.621094 646 1485 C 669.695313 1485.488281 693.191406 1489.121094 717 1488.074219 C 724.414063 1487.75 735.683594 1490.316406 742 1486 L 693 1464 L 693 1463 C 711.839844 1464.644531 729.847656 1469 749 1469 C 743 1461.140625 718.515625 1457.433594 709 1457 L 709 1455 C 730 1453.324219 753.324219 1442.644531 773 1435.191406 C 778.773438 1433.007813 793.605469 1424.808594 799.59375 1426.8125 C 802.433594 1427.765625 801.429688 1443 801.871094 1446 C 804.25 1463 810.765625 1478.710938 821.613281 1492 C 837 1511 860.414063 1516.4375 876.960938 1533.039063 C 884.859375 1541 888.300781 1551.28125 893.308594 1561 C 899.320313 1572.664063 906.679688 1583.710938 914.804688 1594 C 922.964844 1604.335938 946.277344 1620.003906 946.351563 1634 C 946.460938 1655.183594 922.910156 1663.789063 915 1680 L 916 1680 C 923 1673.238281 932.898438 1666.683594 941 1661 C 913.980469 1699.359375 851.976563 1719.070313 807 1721 L 807 1719 C 816.175781 1718 824.539063 1713.222656 833 1709.800781 C 853 1701.675781 873.308594 1692.3125 891 1679.703125 C 899 1674 909.738281 1667.140625 914 1658 C 904.371094 1663.484375 895.796875 1670.703125 886 1676 C 858.210938 1691 828.179688 1701 798 1709.710938 C 788.667969 1712.433594 779.617188 1717.558594 770 1719 L 770 1718 C 781.457031 1712.578125 796.558594 1701.671875 802 1690 C 774.953125 1700.65625 746.527344 1716.589844 717 1719 L 717 1718 C 728.347656 1713.25 740.902344 1704.074219 748 1694 C 725 1699 702.820313 1711 680 1717 L 680 1716 C 690.570313 1710.601563 703.757813 1699.390625 711 1690 C 691.488281 1692.390625 674 1706.472656 655 1711 L 655 1710 C 664.941406 1705.351563 674.835938 1699.042969 684 1693 L 684 1692 C 631.734375 1693.078125 579.246094 1722.460938 531 1739.691406 C 519.46875 1743.8125 507 1750 495 1752 C 510.433594 1737.441406 535.839844 1727.460938 555 1718.625 C 591.492188 1701.800781 628.683594 1685.730469 666 1670.800781 C 686 1662.75 711.238281 1648.382813 733 1647 C 729.234375 1641.195313 712.636719 1643.296875 706 1642.425781 C 675.679688 1638.441406 644.261719 1644.242188 614 1645 C 577.378906 1646 541.394531 1652.015625 505 1655.828125 C 440 1662.628906 375.273438 1672 311 1682.324219 C 284.617188 1686.601563 257.652344 1693 231 1695 L 231 1694 C 247.375 1691.582031 264 1684.410156 280 1680 C 304.65625 1673 329.917969 1667.65625 355 1662.511719 C 422 1648.75 490.960938 1643.332031 559 1636.828125 C 596.675781 1633.230469 635.171875 1627.78125 673 1627 L 673 1626 C 637.546875 1615.496094 598.574219 1615.5625 562 1614 C 457.597656 1609.390625 352.414063 1629.664063 252 1657.152344 C 224.585938 1664.65625 197.265625 1672.492188 170 1680.554688 C 155.253906 1685 140 1691.425781 125 1694 L 125 1693 C 160.3125 1678.300781 193.792969 1660.671875 230 1648 C 315.464844 1617.632813 409.617188 1600 500 1596.039063 C 539.445313 1594.3125 580.90625 1595.507813 620 1600.183594 C 643 1603 666.679688 1607 690 1607 C 684.257813 1598.515625 663.574219 1594.410156 654 1591.730469 C 620.601563 1582.371094 586.6875 1576.585938 553 1568.664063 C 500 1556.230469 447.964844 1540.71875 395 1528.5 C 338.792969 1515.53125 281.3125 1507.289063 224 1501.828125 C 195.921875 1499.15625 168.230469 1496.675781 140 1496 C 131.574219 1495.777344 119.3125 1492.066406 111.230469 1494.332031 C 106.898438 1495.550781 108.859375 1503.71875 109.289063 1507 C 110.917969 1519.390625 112.867188 1531.726563 115.167969 1544 C 115.578125 1546.1875 116.335938 1554.664063 118.433594 1555.65625 C 120.683594 1556.71875 129.691406 1548.765625 132 1547.425781 C 143.675781 1540.644531 157.289063 1534.160156 171 1533.089844 C 222.53125 1529.0625 273 1540.816406 324 1547.15625 C 357 1551.28125 390 1557.464844 423 1563.609375 C 440.324219 1567 459.421875 1573 477 1573 L 477 1574 C 417.269531 1574 357.773438 1559.125 298 1559 C 303.609375 1569.117188 306.851563 1578.601563 309 1590 C 294.339844 1582.175781 284 1563.023438 267 1559 C 277 1573.582031 293.703125 1588.726563 297 1607 C 277 1592.707031 261 1568.796875 238 1559 C 240.996094 1565.078125 247.21875 1570 251.5625 1575 C 259 1584 265.941406 1595.003906 270 1606 C 234.679688 1575.222656 197.253906 1541.660156 147 1562 C 138.828125 1565.21875 131 1570.394531 125.183594 1577.003906 C 122.617188 1580 119.546875 1588.285156 115.621094 1589.171875 C 105.714844 1591.410156 92.910156 1583.242188 82 1586 C 94 1594.476563 106.820313 1597 115 1611 C 100.304688 1604.046875 89.242188 1592.820313 72 1592.039063 C 35.511719 1590.382813 15.933594 1624.824219 24.921875 1658 C 30.226563 1677.585938 44 1691.113281 58 1705 C 42.855469 1701 26.652344 1691.382813 19.273438 1677 C 16.664063 1672 13.199219 1651 7.941406 1650.722656 C -3.253906 1650.449219 0 1661.746094 0 1670 L 0 1730 C 0 1734.773438 -2.457031 1749.488281 1 1753 C 4.511719 1756.457031 19.226563 1754 24 1754 L 91 1754 C 79.46875 1765.191406 56.574219 1771.066406 42 1778 L 42 1779 C 50.730469 1778.285156 58.804688 1774.023438 67 1771.175781 C 89.644531 1763.3125 109.566406 1754.003906 134 1754 C 128.414063 1759.644531 119.34375 1763.148438 112 1766 L 112 1767 C 124.925781 1764 137 1757.320313 150 1754.519531 C 157.566406 1753 166.28125 1754 174 1754 C 166.921875 1760.390625 155.578125 1764.078125 147 1768.257813 C 129.765625 1776.652344 113 1786.039063 96 1794.753906 C 88 1798.769531 72.679688 1803.476563 68 1811 C 76.871094 1809.097656 85.378906 1804.417969 94 1801.515625 C 121.835938 1792.148438 148.996094 1781.128906 176 1769.574219 C 197.300781 1760.457031 218.945313 1749.472656 243 1755 C 194.796875 1785.722656 138.683594 1809.066406 86 1831 L 86 1832 C 101 1830.484375 117.261719 1820.480469 131 1814.304688 C 156.417969 1803 182 1791.800781 207 1779.398438 C 231 1767.421875 253.585938 1754 281 1754 C 269.230469 1765.800781 247.640625 1773 233 1781.089844 C 198 1800.433594 162.804688 1819.179688 128 1838.714844 C 117.488281 1844.617188 106.722656 1850.226563 96 1855.742188 C 90.773438 1858.429688 83.433594 1861.109375 80 1866 C 92.964844 1863.761719 105.996094 1856 118 1850.632813 C 146.195313 1838.320313 173.503906 1824.105469 201 1810.347656 C 237 1792.269531 273.507813 1771.417969 311 1756.351563 C 322 1752 335 1758.058594 346 1752.621094 C 393.378906 1729.164063 435 1693.234375 488 1681 L 488 1682 C 460 1691.527344 432.882813 1707.660156 407 1721.691406 C 354.9375 1750 305.496094 1780.394531 256 1813 C 233.648438 1827.609375 212.417969 1843.53125 191 1859.523438 C 181.511719 1866.609375 168.976563 1873.308594 162 1883 C 178.972656 1876.566406 194.691406 1861.234375 209.910156 1851.324219 C 244.34375 1829 279.507813 1807 315 1786.140625 C 425.828125 1721.519531 541.742188 1670.210938 670 1654 L 670 1656 C 659.28125 1656.46875 648.347656 1660.722656 638 1663.421875 C 611.972656 1670.203125 586.546875 1678.800781 561 1687.164063 C 469.835938 1717 384.519531 1755.097656 302 1804 C 274.648438 1820.015625 249 1839.113281 223.828125 1858.347656 C 214.476563 1865.476563 198 1874.332031 193 1885 C 239.496094 1854.628906 286.449219 1825.511719 334 1796.796875 C 350 1787.121094 366.539063 1778.519531 383 1769.625 C 390.382813 1765.636719 397.972656 1759.066406 406 1756.648438 C 414.503906 1754.089844 426 1754.609375 435 1754 C 418.933594 1771.589844 393.691406 1783.246094 375 1798.199219 C 333.5625 1831.347656 294.503906 1866.496094 257 1904 C 242.441406 1918.558594 219.488281 1934.707031 210 1953 C 219 1948.253906 226.660156 1939.632813 234.515625 1933 C 246.929688 1922.515625 260.191406 1913.007813 273 1903.015625 C 318.777344 1867.296875 366.730469 1835 415 1802.667969 C 430.769531 1792.152344 446.972656 1782.421875 463 1772.320313 C 471.210938 1767.144531 479.929688 1759.5625 489 1756.125 C 502.578125 1751 519.921875 1756.351563 534 1753 C 521.898438 1767.261719 501.820313 1778.363281 487 1790 C 457.863281 1812.527344 430.226563 1838.078125 404 1864 C 394.3125 1873.566406 381.886719 1881.832031 374 1893 C 394.433594 1884 414 1865.078125 432 1851.730469 C 464.511719 1827.601563 498.222656 1805 531 1781.152344 C 542.199219 1773.015625 559.867188 1755.207031 574 1755.003906 C 576.402344 1755 584.339844 1753.367188 586 1755.027344 C 587.703125 1756.578125 582.90625 1760.117188 582 1761 C 576.679688 1766.046875 570.347656 1771.042969 566 1777 C 583 1771.335938 593.445313 1754.40625 613 1754 C 601.210938 1770.585938 583.386719 1784.613281 569 1799 C 539.476563 1828.523438 509.871094 1858 480.574219 1887.714844 C 470.675781 1897.769531 460.9375 1908 450.996094 1918 C 445.523438 1923.515625 438.316406 1929 435 1936 C 456.46875 1921.800781 475.386719 1901.175781 494.515625 1884 C 524.675781 1856.816406 555.503906 1830.464844 586 1803.714844 C 598 1793.132813 609.882813 1782.257813 622 1771.71875 C 628 1766.464844 634.53125 1759.125 642 1756 C 651.269531 1752 665.882813 1755.277344 676 1754 C 649.503906 1792.058594 606.5625 1818 580 1856 C 590.378906 1851.070313 598.519531 1840.441406 607 1833 C 626.886719 1815.21875 646.253906 1797.066406 666.171875 1779.484375 C 676 1770.800781 686.945313 1755.730469 701 1755 C 684.234375 1780.347656 660.6875 1803.140625 641.601563 1827 C 634.988281 1835.261719 625.351563 1843.304688 621 1853 C 655.644531 1828.617188 680.457031 1791.597656 712 1764 C 690.984375 1803.523438 669.402344 1842.769531 647.824219 1882 C 638.710938 1898.574219 623 1918.523438 619 1937 L 620 1937 C 651 1891 684 1846.269531 716.289063 1801 C 727.203125 1785.691406 741 1757.722656 760 1755 C 751 1774 740.941406 1792.742188 730.714844 1811 C 725.488281 1820.335938 716.878906 1831.464844 715 1842 L 716 1842 C 730.238281 1821.066406 747.988281 1802.003906 763.574219 1782 C 769.347656 1774.589844 775.976563 1761 784.183594 1756.179688 C 791.527344 1752.007813 802.902344 1756.394531 811 1754 C 807.957031 1771.117188 795.214844 1789.460938 787.5 1805 C 772.414063 1835.390625 758.566406 1866.371094 744 1897 C 754 1891.761719 762.539063 1871.570313 768.691406 1862 C 788.90625 1830.554688 809.820313 1799.445313 828.421875 1767 C 836.402344 1753.078125 844 1755 859 1755 C 861.722656 1755 869.839844 1753.578125 871.726563 1756 C 873.789063 1758.410156 870.496094 1765.3125 869.707031 1768 C 866.363281 1779.355469 862.75 1790.601563 859.554688 1802 C 850.683594 1833.652344 842 1865.726563 835.90625 1898 C 833.746094 1909.191406 827.578125 1923.738281 829 1935 C 836.273438 1924.785156 838.65625 1909.628906 843.308594 1898 C 856 1866.273438 867.429688 1833.683594 877.414063 1801 C 880.867188 1789.6875 884.601563 1778.480469 887.472656 1767 C 888.539063 1762.738281 889 1756.652344 894 1755.316406 C 920 1748.34375 907 1779.453125 905.914063 1794 C 902.367188 1835.453125 891 1876.085938 891 1918 L 892 1918 C 899.839844 1880.015625 906.996094 1841.734375 915.550781 1804 C 918.644531 1790.347656 917.371094 1769.421875 924.511719 1757.316406 C 927.652344 1752 947.347656 1755 953 1755 L 983 1755 C 986.617188 1755 992.414063 1754 995.582031 1756.027344 C 999 1758.367188 1000.535156 1765.230469 1001.949219 1769 C 1005.515625 1778.496094 1009.644531 1788 1014 1797 L 1015 1797 C 1013.71875 1787 1010.964844 1777.101563 1009.832031 1767 C 1009.519531 1764.210938 1007.382813 1759.148438 1009 1756.601563 C 1011.917969 1752.492188 1025.488281 1754.535156 1027.925781 1758.097656 C 1032.453125 1764.714844 1034.910156 1773.714844 1038.296875 1781 C 1043.585938 1792.382813 1050.503906 1803.289063 1055 1815 L 1056 1815 C 1054 1800.609375 1048 1786.097656 1044.378906 1772 C 1043.484375 1768.527344 1039.433594 1760 1041.316406 1756.601563 C 1043.71875 1752.445313 1063.71875 1753.800781 1066.871094 1756.523438 C 1073 1762 1077.40625 1770.492188 1082.425781 1777 C 1093.664063 1791.570313 1105.644531 1805.777344 1116 1821 L 1117 1821 C 1114.988281 1805.628906 1101.625 1787 1094.652344 1773 C 1092.949219 1769.597656 1085.980469 1760.449219 1087.5 1756.601563 C 1088.519531 1754.03125 1096.667969 1754.125 1099 1754.039063 C 1111 1753.59375 1119 1772.222656 1125.277344 1781 C 1145.945313 1810.4375 1165.394531 1840.691406 1186.289063 1870 C 1195 1882.390625 1204.179688 1899.4375 1216 1909 C 1210.210938 1893.308594 1199.445313 1878.414063 1191 1864 C 1175.90625 1838.183594 1160.421875 1812.648438 1145 1787 C 1138.589844 1776.34375 1130.808594 1766.546875 1126 1755 C 1132.207031 1755 1143.335938 1752.636719 1148.910156 1755.171875 C 1154.324219 1757.636719 1158.632813 1765.40625 1162 1770 C 1170.394531 1781 1179.273438 1791.34375 1187.800781 1802 C 1216.640625 1838.050781 1243.421875 1876.058594 1271 1913 C 1279.511719 1924.179688 1287.847656 1935.226563 1296.75 1946 C 1300.492188 1950.527344 1303.6875 1956.300781 1309 1959 C 1302 1941.375 1290.257813 1924.480469 1280.851563 1908 C 1260.609375 1872.539063 1239.464844 1837.699219 1217.9375 1803 C 1210.578125 1791.144531 1202.539063 1779.761719 1195 1768 C 1193.730469 1766 1187 1757.617188 1190.449219 1755.601563 C 1193.789063 1753.628906 1205.453125 1754.125 1208.828125 1755.824219 C 1221.261719 1762.074219 1234 1779.175781 1244 1789 C 1276 1821 1307.730469 1853.8125 1341.5625 1884 C 1353.183594 1894.363281 1364.9375 1911.441406 1379 1918 C 1370 1902.441406 1355 1888.636719 1343.527344 1874.828125 C 1310.308594 1835.09375 1272.25 1798.070313 1242 1756 C 1250.988281 1759.480469 1258.609375 1768.328125 1266 1774.386719 C 1282 1787.609375 1298.742188 1800.3125 1314.996094 1813.398438 C 1323.871094 1820.546875 1333.238281 1830 1344 1834 L 1344 1833 C 1326.355469 1820.617188 1312 1803.234375 1296.996094 1788 C 1286.480469 1777.371094 1273.613281 1767.226563 1265 1755 C 1271.402344 1756.519531 1279.214844 1752.644531 1285 1755.214844 C 1291.625 1758.15625 1297.515625 1765.210938 1303 1770 C 1312 1777.539063 1321.675781 1784.476563 1331 1791.789063 C 1371.402344 1823.476563 1409 1858 1448 1891.425781 C 1461.492188 1903.058594 1475.894531 1922.5 1492 1930 C 1483.664063 1915.578125 1469 1902.722656 1458.273438 1890 C 1431 1858.179688 1402.957031 1827.035156 1374 1796.761719 C 1364.621094 1787 1355.613281 1776.683594 1346 1767 C 1344.417969 1765.402344 1335.992188 1758.660156 1339.542969 1756.054688 C 1344.746094 1752.230469 1362 1766.414063 1366.425781 1769.472656 C 1381.679688 1780.042969 1397.789063 1789.175781 1412.910156 1800 C 1421.820313 1806.378906 1431.65625 1816.421875 1442 1820 L 1442 1819 C 1416.722656 1800.734375 1392 1777.042969 1370 1755 C 1386.730469 1753.210938 1395.847656 1761.566406 1409 1770.332031 C 1422.179688 1779.117188 1435.671875 1787.394531 1449 1796 C 1492.820313 1824.082031 1535 1856 1575 1889.4375 C 1598.976563 1909.5625 1621.984375 1934.789063 1648 1952 C 1641.472656 1939.417969 1626.847656 1928.257813 1617 1918 C 1596.3125 1896.324219 1575.488281 1875 1553.171875 1854.804688 C 1515.546875 1821 1476.996094 1784.160156 1435 1756 C 1421.226563 1746.566406 1403.945313 1741 1389 1733.640625 C 1364.507813 1721.789063 1339.269531 1709 1313 1701.425781 C 1290.222656 1695 1265.441406 1692.15625 1242 1689 C 1247 1696.773438 1265.941406 1705.714844 1275 1708 L 1275 1709 C 1255.695313 1707.3125 1238.835938 1693.242188 1220 1690 C 1226 1702.382813 1243 1710.011719 1253 1719 C 1229.660156 1709 1203.1875 1700.652344 1179 1693 C 1183.878906 1703.457031 1197.503906 1713.601563 1208 1718 L 1208 1719 C 1187.382813 1718 1164.648438 1707.378906 1146 1699.140625 C 1138.652344 1696 1130.835938 1690.511719 1123 1689 C 1130.859375 1702.59375 1145 1708.71875 1156 1719 C 1145.792969 1717.492188 1135.855469 1712.277344 1126 1709.191406 C 1098.472656 1700.578125 1071.46875 1691.351563 1046 1677.625 C 1033.925781 1671.117188 1022.53125 1660 1010 1655 C 1026.707031 1680.253906 1060 1696.378906 1087 1708.214844 C 1096.863281 1712.550781 1108 1718.441406 1119 1719 L 1119 1721 C 1068.292969 1718.816406 1017.550781 1697.402344 984 1659 C 992.359375 1665 999.472656 1674.101563 1010 1676 C 1001.75 1662.402344 981.570313 1653.535156 980.5 1635 C 980 1628.121094 985.582031 1623.425781 990 1619 C 998.234375 1610.753906 1006 1602.066406 1013.386719 1593 C 1028.371094 1574.457031 1033.945313 1548 1050.175781 1531.089844 C 1065.800781 1515 1089.445313 1510 1104.5625 1492 C 1115 1479.507813 1122.390625 1464.214844 1124.699219 1448 C 1125.246094 1444.171875 1122.792969 1429.359375 1126.894531 1427.625 C 1132 1425.398438 1145.835938 1433.238281 1151 1435 C 1171.460938 1442 1195 1453.820313 1217 1454 L 1217 1455 C 1203.386719 1456.355469 1188 1462.023438 1175 1466 L 1175 1467 C 1193.667969 1467 1211.632813 1465.410156 1230 1462 C 1217 1472.558594 1192.503906 1482.570313 1176 1485 L 1176 1487 C 1210 1487 1244 1487.28125 1278 1483 C 1262.90625 1497 1240.898438 1506.15625 1228 1522 C 1241 1522 1254 1520.609375 1267 1520.039063 C 1275.738281 1519.65625 1284.648438 1521.128906 1293 1518 C 1284.929688 1534.5625 1261.960938 1542 1254 1559 C 1272.777344 1559 1280.277344 1545.292969 1294 1534.746094 C 1321.261719 1513.789063 1349.222656 1493 1379 1475.566406 C 1473.328125 1420.820313 1572.5625 1381.269531 1679 1357.347656 C 1707.636719 1351 1737.6875 1346 1767 1344.441406 C 1775.988281 1344 1784.992188 1344 1794 1344 C 1796.753906 1344 1802 1345 1804.308594 1343 C 1807.894531 1339.773438 1801.796875 1328.828125 1801 1325 L 1802 1325 C 1804.898438 1331.40625 1808.773438 1345.125 1817 1345 C 1809.769531 1331.195313 1806.289063 1316 1799 1302 C 1804.65625 1307 1807 1314.40625 1813 1319 C 1810 1302.089844 1796 1290.183594 1788 1276 C 1795.21875 1279.050781 1800 1285.6875 1807 1289 C 1806 1281.789063 1800.65625 1275.519531 1796.195313 1270 C 1786 1257.53125 1774.324219 1246.324219 1763 1235 C 1775.382813 1239.289063 1783.746094 1249.152344 1795 1255 C 1789.6875 1232 1763 1219.746094 1750 1202 C 1757.605469 1204.195313 1762.949219 1210 1770 1213 C 1765.910156 1201 1751.214844 1192.042969 1742 1184 C 1760.253906 1192.632813 1771.5 1209.144531 1787 1221 L 1788 1220 C 1776.398438 1199.082031 1758.246094 1182 1752.59375 1158 C 1743.667969 1120.25 1756.726563 1076.804688 1770.648438 1042 C 1778.921875 1021.320313 1791.253906 999.617188 1792.910156 977 C 1794.585938 954.113281 1787.378906 929.804688 1785.171875 907 C 1783 886.171875 1785.5625 865.695313 1788.28125 845 C 1795.402344 790.828125 1810.691406 737.652344 1820.691406 684 C 1832.339844 621.488281 1835.566406 557.351563 1834 494 C 1832.484375 431.480469 1828 366.175781 1805.773438 307 C 1802.335938 298 1797.703125 288.582031 1791.53125 281 C 1776.363281 262.363281 1752.746094 261 1731 266.421875 C 1695.632813 275.480469 1663 291.652344 1632 310.449219 C 1621.78125 316.617188 1611.710938 323.488281 1602 330.425781 C 1589.53125 339.339844 1577.238281 348.523438 1565.171875 358 C 1500.925781 408.230469 1443.367188 466.722656 1389.714844 528 C 1343.664063 580.59375 1297.992188 636.546875 1265.859375 699 C 1250.457031 729 1240.804688 761.253906 1229.996094 793 C 1217.523438 829.636719 1204.714844 866.125 1193 903 M 631.332031 442.667969 C 631.277344 442.722656 631.222656 443.777344 631.667969 443.332031 C 631.722656 443.277344 631.777344 442.222656 631.332031 442.667969 M 1657 559 C 1653.949219 563.707031 1641.53125 564 1636 565.257813 C 1616.316406 570.015625 1597.207031 576.230469 1578 582.589844 C 1519 602.109375 1463.707031 635.136719 1414 671.757813 C 1354.617188 715.503906 1307.773438 774.039063 1270.199219 837 C 1256.238281 860.394531 1242.882813 884.039063 1229.921875 908 C 1224.386719 918.230469 1218.785156 934.449219 1210 942 C 1218.949219 907.492188 1235.34375 873.34375 1252 842 C 1333.683594 689.539063 1484.617188 580.785156 1657 559 M 1667 559 L 1667 560 L 1659 560 C 1661.613281 559 1664 559.007813 1667 559 M 719 946 C 713.660156 942.734375 710.777344 935.316406 707.714844 930 C 701.507813 919.222656 694.820313 908.757813 688.574219 898 C 667.859375 862.324219 645 827.101563 620.523438 794 C 554.496094 705.269531 461.539063 637.238281 359 596.550781 C 323.890625 582.621094 282.230469 566.003906 244 566 C 252.371094 560.28125 271.375 567 281 568 C 320.371094 571.777344 359.804688 585.617188 396 601.148438 C 518.679688 653.796875 616 745 679.308594 862 C 693.484375 888.210938 711 917.117188 719 946 M 755 713 L 754 714 L 755 713 M 728 997 C 719.398438 990.421875 713.210938 981 705.90625 973 C 691.601563 957.511719 676.960938 942.09375 662 927.230469 C 644.550781 910 626.992188 892.667969 609 876 C 520.453125 793.429688 400 695.046875 270 736 C 278.4375 727.039063 295.398438 724.171875 307 721.574219 C 343.621094 713.386719 380.292969 717.132813 416 727.574219 C 516 756.828125 596.894531 836.734375 662.996094 913.574219 C 678.453125 931.542969 693 950.261719 707.5 969 C 714.261719 977.738281 724 986.609375 728 997 M 1675 741 L 1675 742 C 1648.558594 736.335938 1626.902344 728.179688 1599 730.089844 C 1563 732.546875 1529.230469 745.496094 1497 760.703125 C 1423 795.597656 1357.710938 850.1875 1297 904.167969 C 1273.375 925.175781 1249.992188 946.449219 1227 968.171875 C 1218.421875 976.324219 1209.746094 990 1199 995 C 1203.570313 985.136719 1213.269531 977.296875 1220.191406 969.039063 C 1239.261719 946.289063 1260 925 1281 904 C 1299.882813 885.117188 1319.738281 866.828125 1340 849.425781 C 1355.703125 836 1371.542969 822.671875 1388 810.117188 C 1401.421875 800 1414.925781 790.003906 1429 780.667969 C 1495.90625 736.28125 1598.796875 690.742188 1675 741 M 1678 743 L 1677 744 L 1678 743 M 1507 1071 C 1493.566406 1060.066406 1482.902344 1045.558594 1469 1034.667969 C 1441.726563 1013.304688 1408.757813 998.636719 1374 996.089844 C 1363.742188 995.339844 1354 997.566406 1344 998 L 1344 996 C 1357.347656 993.738281 1370.292969 990.027344 1384 990.027344 C 1422.628906 990.027344 1459.527344 1008.652344 1484.742188 1037.425781 C 1493 1047.027344 1503 1058.621094 1507 1071 M 595 1002 C 581.832031 1000.226563 569.417969 997.453125 556 998.039063 C 523.527344 999.460938 491 1012.457031 465 1031.488281 C 450 1042.316406 438.828125 1057.554688 424 1068 C 443.984375 1020.011719 498 992 548 992 C 559.917969 992 586.902344 991.632813 595 1002 M 1325 1064 L 1325 1065 L 1312 1065 C 1316 1063.222656 1320.605469 1063.535156 1325 1064 M 1330 1064 L 1329 1065 L 1330 1064 M 1293 1066 L 1293 1067 L 1288 1067 C 1289.769531 1066.222656 1291 1066.089844 1293 1066 M 1352 1068 L 1351 1069 L 1352 1068 M 1277 1069 L 1277 1070 L 1274 1070 C 1275.246094 1069.316406 1275.546875 1069.25 1277 1069 M 640 1076 L 640 1077 L 632 1077 C 634.613281 1076 637 1076.007813 640 1076 M 1442 1133 C 1431.230469 1120.632813 1421.488281 1108.082031 1408.828125 1097.523438 C 1403 1092.757813 1392.378906 1087.230469 1390 1080 C 1405.925781 1085.34375 1420.324219 1096 1433 1106.726563 C 1486.375 1152.058594 1508.304688 1226 1478.90625 1291 C 1471.570313 1307.242188 1460 1322.675781 1446.960938 1334.714844 C 1439.511719 1341.5625 1429.734375 1346.652344 1423 1354 C 1439.226563 1349.570313 1455.863281 1343.511719 1470 1334.304688 C 1522.5 1300.113281 1532 1235.789063 1532 1178 L 1533 1178 C 1541.253906 1214.089844 1548.761719 1247.265625 1538.40625 1284 C 1523.859375 1335.609375 1471.847656 1369.109375 1423 1383.554688 C 1388.910156 1393.636719 1352.765625 1400.417969 1317 1398 C 1244.332031 1392.816406 1166.851563 1348 1150.425781 1273 C 1146.828125 1256.609375 1146.558594 1237.628906 1148.71875 1221 C 1151.285156 1201.230469 1155.867188 1180.425781 1166 1163 C 1167.195313 1163.597656 1166.976563 1163.464844 1168 1165 C 1178.953125 1145.351563 1198 1123.203125 1217 1111 C 1211.648438 1123.722656 1201 1134.316406 1195 1147 C 1185.601563 1167.222656 1183.410156 1188.148438 1181.261719 1210 C 1179.886719 1224 1182.558594 1239.511719 1186 1253 C 1208.734375 1338.75 1309 1385.695313 1385 1334.328125 C 1397.238281 1326.039063 1407.621094 1315.371094 1415.65625 1303 C 1423.902344 1290.304688 1430.910156 1276 1433.976563 1261 C 1437.886719 1242 1439 1224.28125 1435.679688 1205 C 1430.75 1176.628906 1416.835938 1151.242188 1400.410156 1128 C 1381.214844 1101 1352.355469 1083.03125 1320 1077 C 1329.46875 1073.027344 1343.753906 1079.015625 1353 1081.726563 C 1374.855469 1088.128906 1396.371094 1098.0625 1415 1111.210938 C 1424.4375 1118 1432.59375 1126.378906 1442 1133 M 661 1080 L 661 1081 L 656 1081 C 657.902344 1080 658.722656 1080 661 1080 M 599 1080 L 599 1081 C 504.820313 1111.039063 457 1246.574219 531 1321 C 540.363281 1330.425781 550.972656 1338.636719 563 1344.363281 C 576.726563 1351 591.828125 1355.3125 607 1356.828125 C 617.671875 1358 628.507813 1356.191406 639 1354.414063 C 724.59375 1340 767.574219 1241.480469 741.832031 1164 C 734.976563 1143.359375 723.609375 1120.417969 706 1107 C 707.71875 1105.160156 708.566406 1104.652344 711 1104 L 711 1105 C 709.964844 1110.832031 721.539063 1118.832031 725.578125 1122.375 C 739.921875 1135 753.851563 1150.101563 763 1167 L 764 1167 L 762 1161 L 763 1161 C 773.332031 1180.636719 779.800781 1200 782 1222 C 784 1239.4375 783.878906 1258 779.625 1275 C 765.582031 1331.445313 718.46875 1371.496094 664 1387.554688 C 590.691406 1409.167969 502.71875 1398.148438 441 1350.765625 C 398.359375 1318.027344 381.570313 1274.59375 386.832031 1222 C 387.964844 1210.660156 390 1200 393.496094 1189 C 394.804688 1184.820313 395.269531 1179.601563 399 1177 C 393.90625 1241.539063 414 1316.796875 479 1344.011719 C 488.464844 1348 498.667969 1352.179688 509 1353 L 509 1352 C 488.234375 1345.425781 469.5625 1321.8125 458.578125 1304 C 419.898438 1241.269531 439.933594 1158.28125 494 1111.574219 C 506.402344 1101 521.617188 1087 538 1083 C 533.238281 1091.101563 523 1096.613281 516 1102.46875 C 504 1112.269531 489.550781 1128.332031 484 1143 C 506.539063 1119.449219 529.761719 1103 560 1090.714844 C 572.433594 1085.671875 585.398438 1080.007813 599 1080 M 667 1082 L 667 1083 L 663 1082 C 664.808594 1081.425781 665 1081.535156 667 1082 M 684 1090 C 678.980469 1089.042969 674.527344 1086.316406 670 1084 C 674.757813 1083 681.316406 1086.03125 684 1090 M 1252 1086 L 1252 1087 L 1248 1088 C 1249.457031 1087 1250.246094 1086.5625 1252 1086 M 695 1087 L 694 1088 L 695 1087 M 1246 1089 C 1245.453125 1090.636719 1245.636719 1090.453125 1244 1091 C 1244.769531 1089.6875 1244.6875 1089.769531 1246 1089 M 703 1102 C 697.238281 1099.820313 688.210938 1095.324219 685 1090 C 691.425781 1091.738281 699.425781 1096.242188 703 1102 M 1238 1094 L 1237 1095 L 1238 1094 M 1222 1098 C 1222.984375 1099.480469 1223 1099.203125 1223 1101 C 1221.234375 1100.019531 1221 1099.777344 1222 1098 M 1231 1098 C 1229.777344 1099.195313 1229.578125 1099.316406 1228 1100 C 1228.980469 1098.21875 1228.90625 1098.40625 1231 1098 M 1218 1100.332031 C 1218.773438 1100.332031 1218 1100.832031 1217.667969 1100.667969 L 1218 1100.332031 M 707 1101 C 706 1102.769531 705.460938 1103.6875 704 1105 L 703 1104 C 704.339844 1102.726563 705.402344 1102 707 1101 M 1226 1102.332031 C 1226.773438 1102.332031 1226 1102.832031 1225.667969 1102.667969 L 1226 1102.332031 M 719 1106.332031 C 719.773438 1106.332031 719 1106.832031 718.667969 1106.667969 L 719 1106.332031 M 723 1108 L 722 1109 L 723 1108 M 1374 1125.324219 C 1420.40625 1121.675781 1429 1195.121094 1382 1199 C 1373 1199.625 1363.878906 1198.59375 1356 1194.046875 C 1323.203125 1175.105469 1338.945313 1128.082031 1374 1125.324219 M 551 1126.285156 C 596.761719 1120.808594 609.28125 1193.199219 563 1198.816406 C 550 1200.386719 536.425781 1197.691406 527.183594 1188 C 505.722656 1165.1875 521.632813 1129.800781 551 1126.285156 M 736 1127 L 735 1128 L 736 1127 M 1195 1129 L 1194 1130 L 1195 1129 M 1193 1131 L 1192 1132 L 1193 1131 M 742 1132 C 742.984375 1133.480469 743 1133.203125 743 1135 C 741.710938 1133.558594 741.597656 1133.765625 742 1132 M 745 1137 L 744 1138 L 745 1137 M 747 1139 C 748.566406 1141 749.402344 1142.578125 750 1145 L 749 1145 C 747.824219 1143 746.84375 1141.390625 747 1139 M 483 1143 C 482 1144.480469 482 1144.203125 482 1146 C 483.289063 1144.558594 483.402344 1144.765625 483 1143 M 752 1145 L 751 1146 L 752 1145 M 756 1149 L 756 1152 L 755 1152 L 754 1149 L 756 1149 M 760 1156 L 761 1160 L 760 1160 C 759.691406 1158.242188 759.59375 1157.660156 760 1156 M 1166.332031 1166.667969 C 1166.277344 1166.722656 1166.222656 1167.777344 1166.667969 1167.332031 C 1166.722656 1167.277344 1166.777344 1166.222656 1166.332031 1166.667969 M 1407 1193.648438 C 1418.296875 1192.332031 1419.300781 1210.488281 1408 1211.546875 C 1397 1212.574219 1396.613281 1195 1407 1193.648438 M 523 1194.472656 C 533 1192.171875 536.746094 1208.269531 526.960938 1210.675781 C 516 1213.335938 512 1197 523 1194.472656 M 171 1202 L 170 1203 L 171 1202 M 1012 1268 C 981.449219 1261.011719 952.753906 1262.203125 922 1268 C 925.988281 1263 935.910156 1261.308594 942 1260 C 959.996094 1255.714844 979.296875 1254.480469 997 1260.65625 C 1001.949219 1262.382813 1008.996094 1263.46875 1012 1268 M 1026 1301 C 1020.714844 1299 1016.378906 1295.226563 1011 1293.371094 C 988.40625 1285.578125 960.355469 1284.074219 937 1289.453125 C 924.589844 1292.308594 914.742188 1300.257813 903 1304 C 919.765625 1273.316406 968.851563 1269.210938 998 1280.613281 C 1007.96875 1284.515625 1021.265625 1291 1026 1301 M 1799 1301 L 1798 1302 L 1799 1301 M 1033 1337 C 1024.773438 1333.109375 1017.84375 1327.175781 1009 1324.4375 C 971 1312.691406 932.609375 1321.289063 899 1340 C 902.199219 1332.441406 908.890625 1327.097656 915 1322 C 939.894531 1300.5625 974.960938 1297.644531 1004 1311.535156 C 1014.96875 1316.785156 1028.425781 1325.195313 1033 1337 M 1813 1320 L 1814 1321 L 1813 1320 M 1800.667969 1322.667969 C 1800.722656 1322.722656 1800.777344 1323.777344 1800.332031 1323.332031 C 1800.277344 1323.277344 1800.222656 1322.222656 1800.667969 1322.667969 M 1026 1350 L 1026 1351 C 1013.167969 1347.792969 1001.410156 1341.789063 988 1340.183594 C 959.476563 1336.769531 935.273438 1344.171875 908 1350 C 912.621094 1343.417969 924.675781 1340.40625 932 1337.753906 C 964.589844 1326 997 1332.519531 1026 1350 M 906 1350.332031 C 906.773438 1350.332031 906 1350.832031 905.667969 1350.667969 L 906 1350.332031 M 1278 1556 C 1284.394531 1557.613281 1291.46875 1555.324219 1298 1555.039063 C 1318.507813 1554.140625 1338.660156 1551.628906 1359 1549 L 1359 1551 C 1335.523438 1552.492188 1309.402344 1568 1287 1575 C 1294 1579.582031 1309 1574.539063 1317 1573.425781 C 1346.96875 1569.199219 1374.917969 1562 1403 1550.601563 C 1463.964844 1526.117188 1524.40625 1507.796875 1589 1495.738281 C 1621 1489.75 1654.304688 1484.054688 1687 1484 C 1719 1484 1750.980469 1484.621094 1783 1485.003906 C 1790.285156 1485.089844 1808.382813 1490.734375 1814.398438 1486 C 1817.78125 1483.292969 1816.878906 1468.3125 1816.984375 1464 C 1817.53125 1441.648438 1816.71875 1420 1813 1398 L 1814 1398 C 1815 1400 1815 1400.097656 1817 1401 C 1815.761719 1391 1812 1380.730469 1809 1371 C 1814.226563 1375.035156 1816.234375 1380.820313 1820 1386 C 1821.867188 1377.046875 1815.773438 1362.730469 1813 1354 C 1817 1354.011719 1822.460938 1355.683594 1825 1352 C 1808.835938 1350.289063 1792.898438 1353.726563 1777 1355.820313 C 1747.824219 1359.660156 1718.511719 1365.078125 1690 1372.421875 C 1590.53125 1398.03125 1496.863281 1433.820313 1405 1479.753906 C 1382.859375 1490.824219 1360.984375 1502.390625 1339 1513.742188 C 1317.539063 1524.820313 1293.449219 1537 1278 1556 M 904 1352 L 903 1353 L 904 1352 M 97 1362 L 97 1369 C 99.742188 1367.675781 104.429688 1364 107.382813 1366.695313 C 110.171875 1369.253906 107.519531 1375 107.171875 1378 C 106 1388 103.210938 1398.027344 103 1408 L 105 1408 C 105.9375 1402.472656 108.210938 1397.296875 110 1392 L 111 1392 C 109.726563 1417 104.929688 1440.699219 106 1466 C 106.242188 1470.683594 105 1487.226563 109.433594 1489.652344 C 112.550781 1491.386719 117.691406 1489.484375 121 1489.171875 C 129.851563 1488.324219 139 1487.109375 148 1487.003906 C 183.777344 1486.578125 219.25 1485.640625 255 1488.089844 C 332.570313 1493.402344 411.496094 1512 484 1540 C 522 1554.621094 558 1569.195313 599 1574.15625 C 610.4375 1575.542969 624.648438 1581 636 1578 C 630.445313 1574.019531 622.367188 1572.746094 616 1570.199219 C 598.667969 1563.273438 581 1556.6875 563 1552 L 563 1551 C 572 1551.074219 580.964844 1554 590 1554.828125 C 608.390625 1556.609375 627.523438 1557.617188 646 1558 C 640.601563 1546.523438 623.582031 1538.71875 613 1532.574219 C 582 1514.652344 548.433594 1501.542969 516 1486.691406 C 421.390625 1443.371094 322.914063 1404.671875 221 1382.640625 C 180.265625 1374 138.777344 1364.402344 97 1362 M 1082 1467 C 1072.953125 1460.628906 1066.324219 1451.542969 1057 1445.355469 C 1047.589844 1439.113281 1033.59375 1433.195313 1022 1434.339844 C 1003.222656 1436.191406 987.539063 1450.074219 970 1456 L 970 1457 C 989 1456.167969 1009.96875 1442 1029 1450 L 1029 1451 C 1006 1462.183594 987.65625 1477.679688 961 1477 C 944.480469 1476.554688 930 1466 916 1458.757813 C 913.980469 1457.730469 902 1453.378906 903.347656 1450.429688 C 904.777344 1447.277344 912.289063 1448 915 1448.089844 C 927.558594 1449 938.792969 1455 951 1457 L 951 1456 C 940.988281 1451.6875 932.773438 1444.25 923 1439.550781 C 907.878906 1432.285156 888.296875 1434 874 1442.453125 C 863.765625 1448.554688 856.511719 1460 846 1465 C 852.253906 1448 866 1434 880 1422.800781 C 930.492188 1382.566406 997.992188 1382.34375 1048 1424 C 1060.949219 1434.6875 1077 1450.316406 1082 1467 M 912 1542 C 918.261719 1518.328125 911.300781 1487.261719 882 1486 C 888.5 1480.683594 899.574219 1485 906 1488.761719 C 920.882813 1497.785156 929.367188 1530.625 912 1542 M 1042 1485 L 1042 1486 C 1011.605469 1490.488281 1014 1520.046875 1015 1543 C 995.421875 1519.28125 1012.902344 1485 1042 1485 M 1233 1606 C 1261.675781 1606 1290.378906 1600.050781 1319 1598.089844 C 1370.253906 1594.578125 1421.878906 1595.222656 1473 1600.171875 C 1548.574219 1607.484375 1625.246094 1624.683594 1697 1649.503906 C 1733.808594 1662.238281 1768.324219 1681.691406 1805 1694 L 1805 1695 C 1786.175781 1691.066406 1767.445313 1683.445313 1749 1678 C 1717.328125 1668.335938 1684.992188 1660.207031 1653 1651.734375 C 1567.339844 1629.046875 1477.742188 1613 1389 1613 C 1355.449219 1613 1322.257813 1614.390625 1289 1619 C 1281.4375 1620.046875 1260.363281 1620.820313 1256 1627 C 1286 1627 1316.980469 1632.492188 1347 1635 C 1422.320313 1641 1497.511719 1648.53125 1572 1662.460938 C 1598 1667.328125 1623.449219 1674.070313 1649 1681.015625 C 1661.480469 1684.40625 1675 1691.625 1688 1692 L 1688 1693 C 1669.890625 1693 1651.847656 1687 1634 1684.300781 C 1593.707031 1678.542969 1553.414063 1671.214844 1513 1666.183594 C 1435.816406 1656.574219 1358.789063 1646.21875 1281.285156 1641.226563 C 1252.984375 1639.40625 1224.34375 1641.632813 1196 1641 C 1198.476563 1645.046875 1202.761719 1644.824219 1207 1646.191406 C 1215.40625 1649 1223.800781 1652.121094 1232 1655.398438 C 1266 1669.003906 1300.449219 1682.136719 1334 1697 C 1372 1713.59375 1406.503906 1735.085938 1443 1754.5 C 1448 1757.164063 1453.6875 1754.757813 1459 1757.378906 C 1490.90625 1773.113281 1521.4375 1794.804688 1551 1814.515625 C 1573.984375 1830 1596.882813 1845.335938 1619 1862 C 1631.410156 1871.1875 1644.910156 1884.722656 1659 1891 C 1651.238281 1880 1639.8125 1871.050781 1630 1862 C 1608.921875 1842.277344 1587.695313 1823.117188 1565 1805.339844 C 1497.453125 1752.417969 1424.585938 1711.320313 1344 1681.519531 C 1314.613281 1670.652344 1283 1658.574219 1252 1654 L 1252 1653 C 1269 1654.492188 1286.273438 1659.714844 1303 1663.5 C 1358.695313 1676.101563 1409 1697 1460 1722.398438 C 1517 1751 1572.734375 1782.378906 1627 1816.0625 C 1649.886719 1830.269531 1672.492188 1846 1694 1862.089844 C 1705.441406 1870.640625 1717.691406 1884 1731 1889 C 1723.910156 1879.738281 1712.789063 1872.382813 1704 1864.714844 C 1681.859375 1845.398438 1657.863281 1827.714844 1634 1810.570313 C 1560.214844 1757.574219 1482.957031 1702.371094 1396 1673 L 1396 1672 C 1404.53125 1672.4375 1412.898438 1676.757813 1421 1679.28125 C 1446.515625 1687.238281 1471.503906 1699.296875 1495 1712 C 1569.667969 1752.019531 1636.296875 1804.40625 1710 1846.035156 C 1724.246094 1854.082031 1737.976563 1863 1752 1871.398438 C 1758.546875 1875.328125 1765.546875 1881.152344 1773 1883 L 1773 1882 C 1732 1854.097656 1691.878906 1825.308594 1650 1798.695313 C 1627.519531 1784.410156 1599.808594 1772.824219 1580 1755 C 1590.167969 1753.671875 1607 1752.539063 1617 1755.132813 C 1631.605469 1759 1646.226563 1770.695313 1660 1777.113281 C 1704 1797.671875 1747.785156 1819.160156 1792 1839.460938 C 1810.199219 1847.8125 1832.890625 1863.234375 1853 1865 L 1853 1864 C 1807 1838.5 1760.730469 1813.378906 1714 1789.257813 C 1699 1781.515625 1683.84375 1774.035156 1669 1766 C 1662.464844 1762.460938 1654 1759.4375 1649 1754 C 1676.75 1754 1700.457031 1767.125 1725 1778.703125 C 1751.242188 1791.082031 1778.308594 1802.039063 1805 1813.425781 C 1818.386719 1819.140625 1833.558594 1828 1848 1830 L 1848 1829 C 1811.304688 1814.324219 1775.195313 1797 1739 1781 C 1726.746094 1775.441406 1715 1769.222656 1703 1763.359375 C 1697.222656 1760.546875 1690.589844 1758.640625 1686 1754 C 1697.941406 1754 1712.402344 1751.792969 1724 1754.761719 C 1735.707031 1757.757813 1746.886719 1764.113281 1758 1768.773438 C 1782.457031 1779.039063 1806.777344 1789.582031 1832 1798 C 1841.628906 1801 1851.898438 1806 1862 1807 L 1862 1806 C 1837.246094 1792 1810.429688 1780.160156 1785 1767.109375 C 1776.78125 1763 1764.757813 1760.074219 1758 1754 C 1774 1754 1796.660156 1751.339844 1812 1756.089844 C 1827 1760.785156 1841.933594 1766.824219 1857 1771.832031 C 1863 1774 1870.519531 1777.8125 1877 1777 C 1862.84375 1766.753906 1840.632813 1765.769531 1828 1754 L 1947 1754 C 1949.390625 1754 1954 1755 1955.972656 1753 C 1959.246094 1749.699219 1957 1736.449219 1957 1732 L 1957 1673 C 1957 1668.660156 1959.394531 1654 1956.167969 1651.027344 C 1954.296875 1649.324219 1950.304688 1650 1948 1650 C 1940.320313 1650 1931.628906 1649 1924 1650.148438 C 1918.488281 1651.097656 1915.519531 1670.707031 1912.738281 1676 C 1905.484375 1689.785156 1889.972656 1700.453125 1875 1704 C 1890.53125 1689 1905.5 1672.386719 1908.699219 1650 C 1913.484375 1616.527344 1888.410156 1584.378906 1853 1592.59375 C 1839 1596 1828.703125 1604.289063 1817 1612 C 1819.617188 1597.5625 1839.261719 1586.628906 1853 1586 L 1853 1585 C 1844.453125 1583 1835.480469 1584.484375 1827 1586.285156 C 1824 1587 1819.289063 1590 1816.472656 1588.710938 C 1812.90625 1587.167969 1811 1580 1808.734375 1577 C 1802.652344 1569.574219 1794.773438 1564.121094 1786 1560.335938 C 1739.378906 1540.222656 1693.40625 1572.074219 1663 1605 C 1667.402344 1589.714844 1678.601563 1573.808594 1691 1564 L 1691 1563 C 1667.878906 1569 1655.171875 1598.234375 1635 1609 C 1640.308594 1601.039063 1643.609375 1592.039063 1648.695313 1584 C 1654.410156 1575 1661.925781 1567.625 1668 1559 C 1651.722656 1564.1875 1635.699219 1582.003906 1624 1594 C 1625.851563 1584.453125 1628.613281 1575 1632.667969 1566 C 1633.632813 1564 1638.222656 1558.289063 1636.1875 1556.050781 C 1634 1553.648438 1626.714844 1555.394531 1624 1555.714844 C 1612.371094 1557.09375 1600.644531 1557.703125 1589 1558.828125 C 1543.675781 1563.214844 1496.546875 1569 1451 1569 C 1459.316406 1564.492188 1470.738281 1564.132813 1480 1562.703125 C 1495.722656 1560.277344 1511.28125 1557.035156 1527 1554.5625 C 1591.671875 1544.382813 1656.691406 1535.5625 1722 1531.089844 C 1743.394531 1529.625 1767.261719 1530.777344 1787 1540 C 1790.253906 1541.386719 1805 1552 1807.820313 1549.253906 C 1810 1547.097656 1809 1541 1809.613281 1538 C 1811.539063 1527.015625 1812.839844 1516.039063 1814.421875 1505 C 1814.863281 1502 1816.738281 1493.675781 1812.683594 1492.316406 C 1801.507813 1488.578125 1781.660156 1492.71875 1770 1493.828125 C 1745 1496.199219 1719.972656 1496.265625 1695 1498.832031 C 1636 1505 1577.765625 1513.359375 1520 1526.5 C 1468.828125 1538.140625 1418.867188 1553.808594 1368 1566.527344 C 1334.425781 1575 1299.867188 1580 1267 1590.832031 C 1257.574219 1594 1238.796875 1597.503906 1233 1606 M 1449 1568 L 1449 1570 L 1446 1570 L 1446 1568 L 1449 1568 M 1443 1569 L 1443 1570 L 1440 1571 C 1440.980469 1569.21875 1440.90625 1569.40625 1443 1569 M 637.667969 1579.332031 C 637.222656 1579.777344 638.277344 1579.722656 638.332031 1579.667969 C 638.777344 1579.222656 637.722656 1579.277344 637.667969 1579.332031 M 297.667969 1607.667969 C 297.722656 1607.722656 297.777344 1608.777344 297.332031 1608.332031 C 297.277344 1608.277344 297.222656 1607.222656 297.667969 1607.667969 M 677 1653 L 677 1654 L 673 1654 C 674.507813 1653.316406 675.316406 1653.175781 677 1653 M 943 1659 C 942.453125 1660.636719 942.636719 1660.453125 941 1661 C 941.546875 1659.363281 941.363281 1659.546875 943 1659 M 1396 1671 L 1396 1672 C 1393.878906 1671.691406 1393.3125 1671.617188 1392 1670 L 1396 1671 M 489 1680 L 488 1681 L 489 1680 M 125 1694 L 124 1695 L 125 1694 M 680 1717 L 679 1718 L 680 1717 M 1159 1721 C 1157.6875 1720.230469 1157.769531 1720.3125 1157 1719 C 1158.636719 1719.546875 1158.453125 1719.363281 1159 1721 M 1211 1721 C 1209.421875 1720.316406 1209.222656 1720.195313 1208 1719 C 1210 1719.40625 1210 1719.21875 1211 1721 M 1863.667969 1807.332031 C 1863.222656 1807.777344 1864.277344 1807.722656 1864.332031 1807.667969 C 1864.777344 1807.222656 1863.722656 1807.277344 1863.667969 1807.332031 M 1443 1821 L 1444 1822 L 1443 1821 M 1344 1835 L 1345 1836 L 1344 1835 M 958 1868 C 956 1892.035156 957.503906 1915.011719 958 1939 L 959 1939 C 960.316406 1922.300781 961.855469 1906.773438 961 1890 C 960.707031 1883.199219 961.230469 1874.078125 958 1868 M 1380 1919 L 1381 1920 L 1380 1919 M 433 1936 L 434 1937 L 433 1936 "/></g></svg>