<svg xmlns="http://www.w3.org/2000/svg" xmlns:xlink="http://www.w3.org/1999/xlink" viewBox="0 0 100 100" version="1.1"><g transform="translate(1.061676460697555, 1) scale(0.05101509630400833) translate(-39.328125, -40)"><path style=" stroke:none;fill-rule:nonzero;fill:rgb(0%,0%,0%);fill-opacity:1;" d="M 756 496 C 784.347656 491.21875 790.996094 526.738281 771 542.480469 C 750.445313 558.660156 720.3125 546.703125 709.273438 525 C 698.914063 504.632813 701.800781 481.453125 714.722656 463 C 745.980469 418.347656 807.796875 424.195313 841.828125 462 C 866.8125 489.75 874.730469 530.082031 866.5 566 C 862.996094 581.289063 856.890625 596.082031 847.972656 609 C 792.742188 689.03125 676 687.558594 611 621 C 597.660156 607.332031 587.167969 591.296875 579 574 C 550 511.261719 558 438.328125 591.652344 379 C 608.246094 349.730469 630 325.394531 654 302.015625 C 707.851563 249.484375 785.347656 217.769531 858 202.714844 C 908.769531 192.191406 960.171875 187.539063 1012 191.089844 C 1184.488281 203 1354.464844 305.273438 1454.746094 444 C 1508.679688 518.613281 1542.78125 604 1549 696 C 1550.847656 721.695313 1553 751.777344 1547 777 C 1480.195313 655.019531 1353.511719 568.550781 1211 582.171875 C 1178.714844 585.253906 1148 593.65625 1118 605.660156 C 1087 618.03125 1056.632813 636 1031 657.324219 C 977 702.28125 934.667969 761.40625 907.332031 826 C 895.222656 854.621094 889.628906 885.503906 878 914 C 896.382813 912.167969 914.777344 901.359375 931 893.246094 C 967.417969 875.035156 1000.527344 852.144531 1030 824 C 1043.894531 810.675781 1054.78125 793.617188 1069 781 C 1065.222656 794.214844 1056.628906 806.433594 1049.425781 818 C 1028.671875 851.3125 999.539063 884.632813 966 905.574219 C 951.207031 914.8125 933.359375 918.34375 919 927 C 941.886719 933.828125 966.714844 936.390625 990 942 C 953.839844 957.558594 907.523438 943.683594 870 942.039063 C 825.589844 940.09375 786.285156 951.683594 748 973 C 754 966.34375 762.5625 958.753906 767 951 C 739.941406 961.105469 725 976.117188 706 997 C 717.621094 954.503906 757.566406 934.460938 797 924.472656 C 809.425781 921.328125 822.859375 920.597656 835 917 L 835 916 C 805.988281 914.753906 779.703125 913.492188 751 920.011719 C 740.675781 922.355469 730.820313 926.3125 721 930.203125 C 716.8125 932 711.65625 935.34375 707 934.65625 C 699 933.496094 691 926.78125 684 923.246094 C 664.6875 913.496094 645.925781 902.351563 627 892 C 580.238281 866 532.292969 841.742188 488 811.65625 C 467.308594 797.601563 450 779.203125 430 765 C 436.28125 780 453.394531 792.738281 464 804.574219 C 500.675781 845 551.335938 879.375 575 930 C 555.273438 910.261719 536 890.390625 515 872.003906 C 507.5 865.449219 500.441406 857.289063 492 852 C 494.648438 858.660156 501 863.445313 505.488281 869 C 514 879.773438 521.648438 891.359375 528.949219 903 C 552.183594 940.039063 575.777344 977.175781 603.613281 1011 C 623.785156 1035.511719 646.585938 1057.585938 669 1080 C 584.550781 1035.519531 545.199219 952.828125 496 876 C 476.945313 846 452.828125 819.472656 431.472656 791 C 419.699219 775.300781 408.4375 759.160156 398.863281 742 C 395 735.15625 392 721.582031 386 717 C 386 768.574219 384.472656 818.210938 395.792969 869 C 399.523438 885.726563 407 914.015625 424 922 C 418.679688 903.386719 414.648438 889.671875 416 870 C 416.292969 866.148438 417.554688 853.054688 423 853.054688 C 429.566406 853.054688 438.835938 869.390625 442.613281 874 C 459.460938 894.550781 482.351563 912 497 934 C 482.839844 922 460.769531 906.660156 443 901 C 451.390625 915.285156 467.8125 927.140625 480 938.171875 C 499.671875 956 521.808594 976.179688 537 998 C 509.234375 982.179688 481 963.628906 448 961 C 453.460938 969.273438 471.523438 975.769531 480 981.722656 C 502.539063 997.542969 529.863281 1017.476563 546 1040 C 531.910156 1034.210938 518.308594 1031 503 1031 L 503 1033 C 522.308594 1036 547.902344 1055.054688 562 1068 C 537.824219 1061.386719 514.550781 1050.261719 490 1045 C 495.882813 1055.273438 506.875 1064.195313 514.828125 1073 C 538.894531 1099.644531 565.59375 1122.804688 591 1148 C 574.34375 1140.8125 558.433594 1129 543 1119.425781 C 478.261719 1079.335938 428.304688 1029.582031 401.46875 957 C 393.878906 936.464844 386.945313 914.050781 386 892 L 385 892 C 384.992188 944.210938 383.394531 996.238281 398.863281 1047 C 407.914063 1076.707031 420.925781 1105.046875 438 1131 C 451.1875 1151.035156 467.695313 1168.378906 478.476563 1190 C 490.820313 1214.746094 493.941406 1242.414063 500.234375 1269 C 504.207031 1285.78125 511.476563 1301.464844 516 1318 C 499.496094 1300 490.734375 1276.664063 483 1254 L 482 1254 C 482 1285.714844 481.652344 1317 489.375 1348 C 493.476563 1364.484375 502.382813 1379 507 1395 L 506 1395 C 501 1385.496094 493 1377 487 1368 L 486 1368 C 494.46875 1399 514.738281 1423.617188 530 1451 C 513.1875 1434.1875 496.800781 1417.511719 484.449219 1397 C 463 1361.484375 454 1318.085938 453 1277 C 452.367188 1250.589844 456.632813 1224.410156 455.984375 1198 C 455.640625 1184 449.292969 1170.773438 449 1157 C 445.28125 1159.546875 443.835938 1165.03125 441.777344 1169 C 436 1180 431.375 1191.523438 426.800781 1203 C 404.382813 1259.226563 405.554688 1319.785156 418.210938 1378 C 421.636719 1393.765625 426.765625 1409.800781 432 1425 C 434.199219 1430.820313 439.789063 1440.824219 438.738281 1447 C 437.863281 1452.164063 427.480469 1463.714844 422.910156 1466.289063 C 417.726563 1469.210938 407.339844 1460.039063 403 1457.320313 C 384.738281 1446 365.890625 1435 347 1424.542969 C 299 1398.179688 249.984375 1375.59375 196 1364.800781 C 177.511719 1361.101563 152.578125 1355.578125 134 1360 L 134 1361 C 163.617188 1363.339844 193 1376.339844 220 1388.140625 C 261.4375 1406.3125 301.511719 1427.523438 343 1445.574219 C 369.972656 1457.308594 397.984375 1466.398438 425 1478 C 491.59375 1506.152344 557.339844 1537.371094 626 1560.484375 C 663.386719 1573.070313 701 1582.339844 739 1593 L 739 1594 C 716.65625 1594 693.785156 1588.800781 672 1584.285156 C 610.929688 1571.632813 554 1550.316406 496 1528.316406 C 474.238281 1520.082031 452.863281 1509.527344 432 1499.242188 C 426.390625 1496.476563 413.617188 1487.046875 407.285156 1488.789063 C 402.710938 1490.046875 398.96875 1496.679688 395.914063 1500 C 386.191406 1510.574219 376.9375 1521.59375 367 1532 C 364.96875 1534.175781 355 1543 357.753906 1546.0625 C 361.429688 1550.496094 376.484375 1551.101563 382 1552.351563 C 405.496094 1557.660156 429.375 1561.476563 453 1566.199219 C 501.507813 1576 550 1585.714844 599 1593.5625 C 642.605469 1600.566406 687.191406 1606 730 1617 L 730 1618 C 637.433594 1618 545 1601 454 1585.566406 C 426.566406 1581 399.273438 1575.65625 372 1570.199219 C 361.988281 1568.195313 346 1561.734375 336 1564.320313 C 330 1566 325.402344 1575 321.488281 1579.285156 C 310 1592 298.667969 1605.257813 285 1615.523438 C 257.699219 1636.035156 221.550781 1635.753906 193 1655 L 193 1656 C 209.539063 1655.289063 228.992188 1657.652344 240 1672 C 224 1669.65625 209.21875 1665.265625 193 1670 C 136.605469 1686.058594 124.421875 1756 138.425781 1805 C 141.769531 1816.71875 146.804688 1829 155 1838 C 159.214844 1842.507813 167.820313 1845.664063 170.296875 1851.054688 C 171.816406 1854.359375 176.792969 1872.519531 174.222656 1875 C 171.386719 1877.679688 159 1876.828125 155 1877 L 155 1878 C 161.53125 1879.535156 170.976563 1875.402344 176.789063 1879 C 182.25 1882.160156 185.703125 1891.265625 190 1896 C 201.8125 1908.652344 218.554688 1921 236 1924 C 228.339844 1913.121094 218.5625 1905.015625 214 1892 C 213.214844 1889.496094 209.929688 1882.53125 211.503906 1880.0625 C 213.253906 1877.316406 224 1879 227 1879 L 273 1879 L 273 1878 C 259 1874.667969 243.320313 1876 229 1876 C 224.28125 1876 215.390625 1877.6875 211.316406 1875 C 207.488281 1872.414063 207.511719 1856.75 210.601563 1853.601563 C 212.777344 1851.386719 217 1851.402344 220 1851 C 227.546875 1849.644531 237.789063 1843.105469 245 1843.648438 C 256.542969 1844.511719 265.71875 1863.195313 277 1867 C 264.726563 1849.570313 249.753906 1835.609375 240.257813 1816 C 220.34375 1775 225.839844 1721.804688 246.257813 1682 C 268.960938 1637.742188 329.921875 1609.707031 371 1648.089844 C 377 1653.695313 382.695313 1660.4375 386 1668 C 336.269531 1622.332031 266.960938 1664.480469 249.886719 1720 C 235 1768 247.546875 1832 282 1869 C 289 1876.566406 297.933594 1883.675781 307 1888.6875 C 311.519531 1891.1875 319.699219 1893 323 1896.589844 C 327.550781 1901.273438 328.53125 1910.433594 332.441406 1916 C 344 1932.628906 365.492188 1948 386 1951 C 378.554688 1938 369.988281 1927.25 366.929688 1912 C 366.207031 1908.394531 363.933594 1903 365.605469 1899.3125 C 368 1894.140625 387.507813 1892.089844 393 1889.101563 C 418.671875 1875.132813 414.972656 1852.605469 407 1829 C 421.230469 1843.527344 434.433594 1855.59375 454 1862.5625 C 461.5625 1865.253906 481 1864.269531 485.996094 1870.316406 C 503.921875 1892.480469 477.847656 1922 468 1940 C 495.875 1937.144531 518.675781 1907.71875 530.308594 1885 C 553.699219 1839.316406 560 1778.328125 546 1729 C 540.941406 1711.367188 534.253906 1694 521.828125 1680 C 493.976563 1649 447 1643.769531 422.539063 1682 C 408.824219 1703.339844 407.707031 1727.542969 407.996094 1752 C 408.207031 1769.703125 410.898438 1787.140625 416.515625 1804 C 419.425781 1812.734375 424.976563 1821.15625 427 1830 C 389.976563 1787.585938 387.402344 1719.734375 412.269531 1670 C 437.753906 1619.03125 500.75 1627 534.3125 1665.09375 C 544.695313 1677 555.253906 1690.734375 562 1705 C 554 1699.410156 547.777344 1690.09375 539 1686 C 543 1695.105469 550 1702.621094 554 1712 C 564 1735.550781 568 1761.550781 568 1787 C 567.996094 1797.058594 566.207031 1807.160156 564.257813 1817 C 563.839844 1819.117188 561.320313 1825 563.648438 1826.398438 C 569.269531 1830 585.328125 1827 592 1827 L 1043 1827 C 1049.992188 1827 1057 1827 1064 1827.015625 C 1065.933594 1827.0625 1070.378906 1828.355469 1071.933594 1827 C 1073.707031 1825.203125 1071.941406 1820.03125 1071.574219 1818 C 1070 1810.089844 1068.390625 1802.054688 1068 1794 C 1066.71875 1763.796875 1073.519531 1739.695313 1084 1712 C 1076.609375 1715.601563 1072.484375 1724.042969 1066 1729 C 1082.46875 1680.617188 1149.230469 1627.019531 1199 1667.46875 C 1214 1679.65625 1220.476563 1697 1225.425781 1715 C 1236.90625 1756.804688 1237.636719 1807.230469 1208 1842 C 1210.421875 1831.804688 1215.53125 1822.289063 1218 1812 C 1221.757813 1797.386719 1222.421875 1783 1223.828125 1768 C 1228.4375 1719.367188 1190 1656.589844 1135 1678.800781 C 1127 1682 1120.269531 1686.570313 1114 1692.285156 C 1096 1708.75 1088.613281 1734.691406 1085.714844 1758 C 1079.734375 1806.066406 1089.816406 1857 1111.757813 1900 C 1122.894531 1922 1145.859375 1948.246094 1171 1954 C 1162.484375 1934 1140 1912.375 1153.304688 1888.042969 C 1157.792969 1879.816406 1178.535156 1879.007813 1187 1875.546875 C 1205.269531 1868.082031 1214.230469 1853.328125 1229 1842 C 1220.773438 1863.328125 1215.316406 1889.320313 1239 1903.121094 C 1245.28125 1906.785156 1251.929688 1908.605469 1259 1910 C 1261.65625 1910.523438 1266 1910.515625 1267.398438 1913.316406 C 1275 1929.1875 1253.578125 1948 1250 1961 C 1267.347656 1954.308594 1285 1948.617188 1297.699219 1934 C 1303.769531 1927 1305.460938 1915.546875 1311.570313 1909.507813 C 1319.300781 1902 1332.347656 1898 1341 1890.5625 C 1364.34375 1871 1379.589844 1844.8125 1385.550781 1815 C 1395.574219 1765 1372.84375 1691.359375 1321 1672.542969 C 1301.433594 1665.441406 1282.503906 1669.527344 1263 1674 C 1283.433594 1657.09375 1307 1660.789063 1331 1664 L 1331 1663 C 1304.578125 1648 1270.242188 1655.507813 1247 1672.605469 C 1238.59375 1678.789063 1233.308594 1687 1226 1694 C 1226 1681 1232.910156 1669 1242 1660.015625 C 1271.800781 1630.589844 1322.433594 1636.5625 1352 1663.171875 C 1390.488281 1697.808594 1404.585938 1765.308594 1394.335938 1815 C 1390.988281 1831.210938 1382.214844 1844 1377 1859 C 1380.453125 1856.570313 1383.875 1851.578125 1388 1850.496094 C 1391.46875 1849.589844 1396.574219 1852.335938 1400 1853.113281 C 1404.757813 1854.191406 1411.742188 1853.621094 1415.722656 1856.742188 C 1421.601563 1861.347656 1422.46875 1878.066406 1421.636719 1885 C 1419.550781 1902.359375 1405.789063 1912.355469 1399 1927 C 1414 1922.3125 1430 1912.492188 1440.910156 1901 C 1446.171875 1895.40625 1450.566406 1883.652344 1457 1880.027344 C 1464.742188 1875.796875 1481.339844 1879 1490 1879 L 1490 1878 C 1481.730469 1878 1473.527344 1876.824219 1465.269531 1877.1875 C 1462.167969 1877.324219 1458.175781 1878 1457.488281 1874 C 1454.863281 1858.527344 1465.394531 1854.65625 1473.699219 1845 C 1481 1836.339844 1486.519531 1826 1489.972656 1815 C 1498.714844 1787.515625 1499.542969 1755.292969 1486.398438 1729 C 1467.996094 1692.199219 1421.714844 1672.425781 1386 1698 C 1395.574219 1673.28125 1423.722656 1674.261719 1445 1676 L 1445 1675 C 1433.480469 1668.449219 1418 1668.066406 1408 1658.789063 C 1400.601563 1651.816406 1398.226563 1640.726563 1396.871094 1631 C 1393.707031 1608.308594 1398.949219 1585.023438 1404 1563 C 1373.734375 1565.472656 1342.890625 1576.121094 1313 1581.691406 C 1241.707031 1595 1169.464844 1609.011719 1097 1614.089844 C 1067.933594 1616.128906 1034.996094 1622.617188 1006 1618 C 1013.792969 1614.226563 1023.5625 1614.140625 1032 1612.339844 C 1054.257813 1607.59375 1076.617188 1603.414063 1099 1599.386719 C 1169 1586.78125 1239.550781 1575.363281 1309 1560 C 1333 1554.527344 1357 1549.34375 1381 1543.371094 C 1387.621094 1541.71875 1402.59375 1541.3125 1407.402344 1536.410156 C 1413 1530.574219 1414.84375 1511.070313 1416.871094 1503 C 1424.179688 1474 1437 1442.695313 1440 1413 C 1427.703125 1419 1415.941406 1432 1405 1440.347656 C 1385.386719 1455.460938 1364.289063 1469 1343 1481.546875 C 1274.570313 1522.121094 1198.410156 1550.183594 1122 1571.425781 C 1085.808594 1581.484375 1045.773438 1593 1008 1593 L 1008 1592 C 1109.519531 1565 1208.914063 1525 1301 1474.304688 C 1348.222656 1448.371094 1398.308594 1420.800781 1433.5625 1379 C 1481.34375 1322.347656 1500.460938 1229.585938 1490.574219 1157 C 1487 1131.695313 1480.714844 1107.027344 1469.488281 1084 C 1463.859375 1072.453125 1455.660156 1062.363281 1450 1051 C 1514.519531 1115.515625 1530.523438 1216.324219 1503.972656 1302 C 1498 1321 1489.167969 1338.699219 1479.6875 1356 C 1475 1364.46875 1467.742188 1372.746094 1465 1382 C 1473.574219 1378 1480.828125 1368.265625 1488 1362 C 1481.378906 1375 1465.9375 1383.242188 1459.996094 1396.089844 C 1454.640625 1407.660156 1453.617188 1422.636719 1450.527344 1435 C 1443 1465.074219 1435.613281 1495.222656 1427 1525 C 1442.390625 1522.265625 1458.382813 1511.675781 1472 1504.308594 C 1503.351563 1487.351563 1532.222656 1466.535156 1563 1449 C 1553 1463.082031 1535.351563 1474.789063 1521 1484.050781 C 1517.417969 1486.363281 1503.585938 1493.132813 1502.921875 1497.390625 C 1502 1503 1516.597656 1518.75 1522 1519 C 1561.46875 1519.589844 1601.554688 1512.8125 1641 1512 L 1641 1514 C 1612.257813 1516.507813 1583.695313 1527 1555 1531 C 1548.292969 1532 1541.683594 1533.472656 1535 1534.5625 C 1533 1535 1528.441406 1534.585938 1528 1537.316406 C 1527.339844 1543.460938 1538.921875 1556.214844 1541.742188 1562 C 1549.964844 1579 1554.800781 1596.488281 1551 1615 C 1560.710938 1612.804688 1569.734375 1609.078125 1580 1609.078125 C 1602.367188 1609.078125 1621.824219 1623.175781 1634 1641 C 1611 1627 1587.597656 1615.640625 1560 1623.429688 C 1511.746094 1637.042969 1496 1701 1526.453125 1739 C 1545.707031 1763.140625 1580.753906 1769.820313 1610 1763.488281 C 1620 1761.300781 1632 1753 1641.714844 1752.28125 C 1647.464844 1752 1658.902344 1760.34375 1665 1762.328125 C 1679 1767 1695.324219 1768 1710 1768 C 1730.523438 1768.097656 1752.890625 1768.832031 1773 1764.335938 C 1780.269531 1762.710938 1787.390625 1760.179688 1794 1756.738281 C 1796.925781 1755.214844 1800.539063 1751.785156 1804 1752 C 1812 1752.472656 1822.359375 1761.164063 1831 1763.113281 C 1860 1769.65625 1892 1759.085938 1908.792969 1734 C 1937.882813 1690.203125 1902.972656 1609.09375 1844 1627.203125 C 1836.507813 1629.507813 1830 1633.246094 1824 1638 C 1825.28125 1620.363281 1844.339844 1618.742188 1857 1615 L 1857 1614 C 1838.738281 1606 1819 1602.238281 1802 1591.535156 C 1790.328125 1584.246094 1781 1574.019531 1771.914063 1564 C 1746.339844 1536.1875 1710.996094 1495.050781 1710 1455 C 1709 1415.140625 1743 1395.097656 1767.960938 1369 C 1798.90625 1336.636719 1824 1298.652344 1842.691406 1258 C 1883.410156 1169.058594 1887.886719 1054.121094 1842 966 C 1813 910.285156 1765.34375 867.738281 1699 877.300781 C 1662.207031 882.601563 1629.820313 902.339844 1603 927.273438 C 1593.789063 936 1586.828125 948.414063 1577 956 C 1582 941.25 1590.589844 926.039063 1600.464844 914 C 1605 908.363281 1612.363281 904.1875 1616 898 C 1608.722656 898.730469 1601.746094 902.503906 1595 905.199219 C 1576.4375 912.625 1560 921.75 1545 935.175781 C 1536.753906 942.535156 1530.277344 951.816406 1522 959 C 1543.582031 913.457031 1576 877.496094 1624 859.425781 C 1638.457031 854 1654.519531 850.394531 1670 850.015625 C 1674.792969 850 1687.628906 852.320313 1691 848.398438 C 1696.496094 842.03125 1695.671875 824.164063 1697.195313 816 C 1703.644531 781.496094 1704.496094 744.035156 1702.960938 709 C 1699.945313 640.109375 1683.980469 572 1658.199219 508 C 1555 252.195313 1300.28125 63.011719 1024 44.089844 C 962 40 900.59375 45.15625 840 57.714844 C 746 77.191406 652.828125 120.265625 583 187.039063 C 483 282.519531 425.335938 424.046875 464.425781 561 C 503.757813 698.796875 650.382813 787.703125 789 741.667969 C 812 734 833.238281 723.5625 853 709.253906 C 919.292969 661.253906 953.476563 574.007813 935.574219 494 C 913.53125 395.492188 809.230469 330 714 375 C 647.308594 406.433594 614.375 500.085938 662.515625 561 C 697 604.703125 770.808594 611.777344 802 560 C 812.734375 542.347656 813.441406 517.359375 799.902344 501.015625 C 790.828125 490.054688 765.816406 480 756 496 M 1354 734 C 1358.742188 750.03125 1356.949219 769.382813 1358 786 C 1360.414063 820 1358.21875 854.613281 1351.335938 888 C 1344.625 920.535156 1332.238281 951.628906 1324.886719 984 C 1320.273438 1004.324219 1317.78125 1026.332031 1315 1047 C 1328.386719 1030.414063 1333 1003.265625 1338 983 C 1339.777344 976.386719 1339.589844 961.121094 1345 957 C 1345 1021.523438 1332.265625 1082.144531 1298.550781 1138 C 1279.28125 1170 1252.84375 1197.105469 1232 1228 L 1231 1228 C 1234 1210.644531 1246 1191.8125 1253.742188 1176 C 1272.449219 1137.589844 1297.21875 1095 1303 1052 C 1293.773438 1061.128906 1288.957031 1074.105469 1278.910156 1083.273438 C 1253.472656 1106.484375 1220.765625 1120.121094 1189 1132.191406 C 1176.5625 1137 1163.199219 1144.050781 1150 1146 L 1150 1145 C 1179 1124.175781 1206.710938 1101.289063 1232 1076 C 1241 1067 1252.503906 1057.425781 1260 1047 C 1233 1051 1205.78125 1059.492188 1180 1068 C 1168.953125 1071.644531 1157.347656 1078 1146 1080 C 1151.695313 1072.574219 1161 1068.054688 1169 1063.191406 C 1190.175781 1050.070313 1212 1041.699219 1236 1035 L 1236 1034 C 1216.867188 1032.488281 1198.964844 1036.488281 1180 1038 C 1186.59375 1029 1197.777344 1022.003906 1207 1015.660156 C 1221.703125 1005.539063 1236 995.472656 1252 987.257813 C 1260.40625 983 1273 980.074219 1280 974 C 1247.601563 974 1223 983.761719 1193 994 C 1198.484375 986.222656 1206.824219 980.191406 1214 974 C 1234 956.726563 1255.511719 942.726563 1278 929 C 1284.855469 924.765625 1292.679688 922 1299 917 C 1280.375 921.820313 1262.964844 927.03125 1245 934 C 1248.304688 927 1256 921.742188 1262 916.730469 C 1274.664063 906 1288 895.523438 1299 883 C 1302 879.648438 1310.753906 865 1315.789063 866.496094 C 1320.851563 868.007813 1322.761719 878.625 1323.535156 883 C 1326.972656 902.445313 1319 918.0625 1314 936 C 1346 898.40625 1343.558594 848 1349.574219 802 C 1351 790 1350 777.140625 1350 765 C 1350 763.503906 1350.6875 752.613281 1347.246094 754.207031 C 1342.351563 756.472656 1337.945313 771.273438 1335 776 C 1324.996094 793.046875 1312 809.292969 1298.828125 824 C 1256.304688 871.101563 1206.789063 911.28125 1161 955.164063 C 1147.234375 968.472656 1135.691406 983.65625 1123 998 C 1118.183594 1003.523438 1114.472656 1011.320313 1108 1015 C 1115.46875 985.382813 1138.484375 953.570313 1158.285156 931 C 1164.304688 924.136719 1172.5 919.191406 1178 912 C 1121.550781 938.699219 1064 978 1041 1038 L 1040 1038 C 1033.910156 1012.347656 1051.601563 970.136719 1075 958 L 1075 957 C 1050.960938 965.199219 1025.867188 982.035156 1008.285156 1000.171875 C 1000.523438 1008.179688 995 1024.488281 986 1030 C 992 1008.652344 998.472656 988.121094 1013.300781 971.003906 C 1031.640625 949.832031 1058.855469 938.300781 1084 927.574219 C 1113.21875 915.105469 1142.398438 902.589844 1171 888.742188 C 1227.445313 861.410156 1283.199219 825.570313 1324.714844 778 C 1333 768.429688 1342.382813 758.003906 1348.777344 747 C 1351.179688 743 1351.3125 738 1354 734 M 1069.667969 779.667969 C 1069.722656 779.722656 1069.777344 780.777344 1069.332031 780.332031 C 1069.277344 780.277344 1069.222656 779.222656 1069.667969 779.667969 M 1619 881 C 1653.261719 876 1683.902344 867 1719 867 L 1719 865 C 1692.964844 864 1669.609375 862.054688 1644 869.574219 C 1636.667969 871.730469 1623.359375 874.351563 1619 881 M 1178 911 L 1179 912 L 1178 911 M 1017 949 C 1012.945313 956.804688 1000.867188 960.042969 993 962.667969 C 968.886719 970.703125 944 967.285156 920 973 L 920 974 C 930 977.472656 940.585938 985.613281 947 994 C 936.363281 992.429688 926.644531 986.59375 916 984.449219 C 887.265625 978.65625 857.257813 978.527344 829 987.347656 C 818.734375 990.550781 808 994.671875 799 1000.371094 C 792.601563 1004.355469 787 1010.277344 780 1013 C 790.640625 992.488281 819 977.109375 840 969.320313 C 882.363281 953.503906 922.714844 955 967 953 C 983.664063 952.230469 1000.3125 949.136719 1017 949 M 1075 957 C 1076.3125 956.230469 1076.230469 956.3125 1077 955 C 1075.363281 955.546875 1075.546875 955.363281 1075 957 M 748 973 L 747 974 L 748 973 M 538 998 L 537 999 L 538 998 M 1257 1232 C 1261.441406 1238.722656 1263 1248.214844 1264.878906 1256 C 1270.742188 1281.820313 1270.535156 1308.792969 1261.996094 1334 C 1258.769531 1343.523438 1253.867188 1356.480469 1246 1363 C 1246.78125 1354.117188 1251.503906 1345.714844 1253.5 1337 C 1256.832031 1322.460938 1258.621094 1307 1258.984375 1292 C 1259.289063 1279.566406 1260 1266.378906 1258.828125 1254 C 1258.230469 1247.691406 1254.890625 1238 1257 1232 M 692 1284 L 692 1285 C 637.992188 1285.445313 636.894531 1357.03125 656.179688 1392 C 658.734375 1396.628906 661.859375 1401 665.300781 1405 C 684 1426.820313 704.617188 1409 715.691406 1389 C 719.390625 1382.355469 725.824219 1372 725.371094 1364 C 725 1359.234375 719.996094 1356.136719 721.761719 1351 C 723.25 1346.660156 727.816406 1344.289063 729.398438 1340 C 733.746094 1328.1875 727 1315 724 1304 C 733.695313 1307.757813 741.804688 1318 747.960938 1326 C 762.757813 1345.464844 769.851563 1369.035156 772.171875 1393 C 773.394531 1405.675781 773.210938 1421 765.890625 1432 C 760.199219 1440.617188 750 1445.8125 741 1450.242188 C 714.511719 1463.257813 681.441406 1464.636719 654 1454 C 613.265625 1438.058594 588.988281 1395.136719 594.285156 1352 C 599.828125 1307 645.984375 1268.421875 692 1284 M 1007 1308 C 1005 1318 1001.90625 1329 1004.558594 1339 C 1006 1344.527344 1011 1348.382813 1012.304688 1354 C 1013 1358.078125 1009 1360.125 1009 1364.015625 C 1009 1371 1013.570313 1380 1016.609375 1386 C 1022.671875 1398.128906 1034.355469 1417.1875 1050 1416.804688 C 1070.980469 1416.289063 1083.734375 1384.824219 1087.5 1368 C 1089.609375 1358.570313 1079.675781 1355.246094 1080.785156 1347.015625 C 1081.5625 1341.25 1089 1341.417969 1089.992188 1336 C 1093.945313 1310.179688 1069.394531 1286.050781 1045 1285 C 1052.191406 1280.609375 1061.960938 1281.027344 1070 1281.832031 C 1095 1284.34375 1117.390625 1298.613281 1129.6875 1321 C 1151.882813 1361.410156 1139.433594 1417.15625 1101 1443 C 1071.921875 1462.398438 1034.675781 1466.457031 1002 1453.8125 C 991 1449.574219 978.765625 1443.660156 971.558594 1434 C 963 1422.621094 962.390625 1405.472656 963.835938 1392 C 967 1361.65625 981.199219 1326.171875 1007 1308 M 517 1318 L 516 1319 L 517 1318 M 475 1428 C 525 1474.183594 586.480469 1505.445313 648 1533.691406 C 666.300781 1542.09375 684.695313 1550.3125 703 1558.691406 C 710.34375 1562.054688 719.1875 1563.832031 726 1568 C 709.636719 1571.542969 684.757813 1560.589844 669 1556 C 614.757813 1540.191406 558.546875 1517.511719 517 1478 C 505.574219 1467.136719 494.65625 1456.371094 484.800781 1444 C 481.351563 1439.671875 475.1875 1433.734375 475 1428 M 1277 1428 C 1268.34375 1443 1252.601563 1455.777344 1239.910156 1467.296875 C 1196.996094 1506.253906 1143 1532.578125 1088 1549.414063 C 1068 1555.476563 1045.925781 1564.566406 1025 1565 L 1025 1564 C 1036.921875 1557.71875 1050.589844 1554 1063 1548.574219 C 1099.289063 1533 1136.175781 1517.527344 1171 1498.691406 C 1195.886719 1485.230469 1219.988281 1470.789063 1243 1454.289063 C 1254.519531 1446.03125 1264.742188 1435.078125 1277 1428 M 1564 1448 L 1563 1449 L 1564 1448 M 829 1462 C 828.875 1477.058594 825.964844 1492.085938 824 1507 C 823.261719 1514.367188 822.882813 1524.460938 818.910156 1531 C 815.503906 1536.441406 808.269531 1541.332031 803 1545 C 797.675781 1525.632813 810.417969 1497.066406 818.753906 1480 C 821.714844 1474 824 1466.671875 829 1462 M 68 1545 L 68 1546 C 113.265625 1540.277344 159.363281 1538 205 1541.089844 C 244.59375 1543.800781 284.390625 1549.300781 324 1551 C 320.699219 1546.605469 313 1546.394531 308 1545.128906 C 294.714844 1541.808594 281.363281 1539.050781 268 1536.117188 C 220.5625 1525.699219 167.96875 1523.03125 120 1531 C 103 1533.703125 83.308594 1537 68 1545 M 827 1542.289063 C 841 1540.445313 854 1547.65625 868 1547.660156 C 881.957031 1547.664063 894.878906 1540.433594 909 1542.289063 C 916.820313 1543.316406 928.496094 1548.085938 926 1558 C 921.882813 1574.535156 904.425781 1567.085938 895.214844 1575.316406 C 885.792969 1583.734375 888.40625 1605 873 1607.773438 C 853 1611.355469 851.882813 1585.207031 841.785156 1575.148438 C 836.246094 1569.628906 827.636719 1573.476563 821 1570.160156 C 802.445313 1561 808.96875 1544.660156 827 1542.289063 M 1816 1641 L 1815 1641 C 1808 1630.421875 1797.554688 1621 1787 1614 C 1804 1641.558594 1813.605469 1665 1811 1698 L 1810 1698 C 1806.585938 1671 1802.324219 1647.328125 1783.5625 1626.039063 C 1754.390625 1593 1704.429688 1594.429688 1675.300781 1626.089844 C 1660 1642.558594 1651.308594 1666 1649.171875 1688 C 1648.222656 1697.785156 1650.710938 1709.808594 1648 1719 C 1640.570313 1705.328125 1641 1685 1642.84375 1670 C 1645.640625 1646.648438 1654 1623 1671 1606.039063 C 1701.675781 1575.558594 1749.800781 1580 1783 1603 C 1796 1612 1811.949219 1624.789063 1816 1641 M 1730 1725 C 1735.476563 1702.769531 1731.644531 1680.410156 1724.507813 1659 C 1721.65625 1650.445313 1717.550781 1639 1727 1632.742188 C 1738 1625.554688 1746.820313 1639.761719 1747.824219 1649 C 1749.929688 1668.273438 1746.421875 1687.71875 1740.332031 1706 C 1738.207031 1712.386719 1736.179688 1721.492188 1730 1725 M 1569 1725 C 1564 1721.488281 1562.277344 1713.542969 1560.226563 1708 C 1553.988281 1691.136719 1548.195313 1667.679688 1554 1650 C 1557.261719 1640.558594 1571.550781 1626.074219 1580.382813 1639.109375 C 1584.992188 1646 1573.789063 1660.246094 1571.515625 1667 C 1565 1686.039063 1564.546875 1705.515625 1569 1725 M 988 1732 C 988 1750.765625 991.640625 1769.355469 998 1787 C 999.214844 1790.195313 1006.839844 1803.300781 1004.839844 1806 C 1002.253906 1809.429688 985.199219 1807 981 1807 C 957.277344 1807 933.515625 1807.378906 909.828125 1806.433594 C 881.449219 1805.300781 852.46875 1807 824 1807 L 626 1807 C 628.601563 1798 634 1790 637.308594 1781 C 645 1759.117188 647.964844 1735 643.691406 1712 C 641.570313 1700.636719 637.390625 1690 631.386719 1680 C 626.660156 1672.238281 619.703125 1665.339844 625.285156 1656 C 643.9375 1624.8125 692.796875 1639.28125 715 1656.515625 C 742.328125 1677.722656 759.507813 1708.734375 787 1729.765625 C 832.550781 1764.605469 896.679688 1767.761719 950 1750.65625 C 963.757813 1746.242188 974.890625 1737.433594 988 1732 M 1869 1722 C 1866.195313 1715.257813 1868.925781 1704.644531 1867.535156 1697 C 1865.597656 1686.324219 1857.914063 1675.644531 1857.40625 1665 C 1857.183594 1660.34375 1860.476563 1655.761719 1865 1654.527344 C 1873.941406 1652.09375 1878.484375 1663.164063 1879.5625 1670 C 1882 1686.105469 1876.980469 1708 1869 1722 M 976 1666 C 973.246094 1669.753906 968 1670.773438 964 1672.808594 C 956.304688 1676.65625 949.296875 1681.496094 942 1686 C 905.1875 1708.710938 864.882813 1721.652344 823 1703.136719 C 801.394531 1693.585938 784 1677.742188 762 1669 C 769.273438 1666 780.496094 1669.761719 788 1671.195313 C 812.972656 1676 835.410156 1691.15625 861 1693 C 901 1695.652344 936 1667.71875 976 1666 M 630 1733 L 629 1733 C 625 1718.460938 618.214844 1706.078125 607.910156 1695 C 601.460938 1688.0625 591 1681.539063 587 1673 C 618.917969 1673.660156 630 1706.222656 630 1733 M 1263 1674 C 1262.453125 1675.636719 1262.636719 1675.453125 1261 1676 C 1261.769531 1674.6875 1261.6875 1674.769531 1263 1674 M 1036 1698 C 1031 1707.621094 1019.746094 1713.777344 1013.695313 1723 C 1007 1733.105469 1006.84375 1745.3125 1001 1755 C 993.390625 1729.261719 1007.242188 1698.003906 1036 1698 M 329 1827 C 323 1821.621094 320.914063 1811.308594 318 1804 C 309.511719 1782.714844 300.945313 1758.289063 303.171875 1735 C 304.484375 1721.234375 314.257813 1699.03125 331.90625 1709.558594 C 341 1715 339.550781 1727.304688 337.265625 1736 C 332.601563 1753.738281 327.847656 1771.582031 327 1790 C 326.492188 1802.523438 328.742188 1814.585938 329 1827 M 516 1840 L 514 1840 C 513.996094 1813.191406 502.414063 1787.542969 487 1766 C 479 1754.644531 460.820313 1738.480469 464.53125 1723 C 467.476563 1710.730469 481.546875 1705.789063 491.984375 1712 C 498.59375 1716 502.738281 1723.066406 505.546875 1730 C 519.265625 1764 520.515625 1804.28125 516 1840 M 1459 1808 L 1457 1808 C 1457 1788.300781 1454.765625 1770.175781 1446.5625 1752 C 1443.675781 1745.601563 1432 1734.28125 1434.757813 1727.09375 C 1440.921875 1711 1455.847656 1731.769531 1458.25 1739 C 1465.964844 1762.207031 1462.449219 1784.535156 1459 1808 M 1298 1847 C 1295.71875 1841.40625 1299 1833 1299.714844 1827 C 1300.800781 1817.816406 1299.582031 1808.171875 1298.910156 1799 C 1297.515625 1780.023438 1286.558594 1762.605469 1285 1744 C 1284.394531 1735.136719 1288.515625 1725.574219 1298 1723.394531 C 1315.910156 1719.28125 1323.636719 1738.484375 1323.984375 1753 C 1324.691406 1782.289063 1313.613281 1822.257813 1298 1847 M 1066 1729 L 1065 1730 L 1066 1729 M 1129 1859 L 1127 1859 C 1126.996094 1822.289063 1124.378906 1783.394531 1137 1748 C 1143.320313 1730.652344 1170.457031 1718.597656 1175.621094 1744 C 1178.820313 1759.746094 1163 1775 1155.4375 1787 C 1141.5 1809 1132.277344 1833.214844 1129 1859 M 609 1799 C 612.21875 1787 615.582031 1775.144531 610.402344 1763 C 607.464844 1756.109375 594.972656 1748 598 1740.015625 C 601.714844 1730.429688 613.570313 1732.324219 617.964844 1740.019531 C 624.933594 1752.226563 621.601563 1773.464844 617 1786 C 615.273438 1791 613.582031 1796.195313 609 1799 M 1025 1807 C 1013.246094 1797.285156 1005 1773 1009 1758 C 1011.3125 1749.355469 1023.519531 1735 1031.214844 1748.015625 C 1034.71875 1754 1024 1762.203125 1022.21875 1768 C 1017.644531 1782.398438 1022.941406 1793.0625 1025 1807 M 41.691406 1775.027344 C 39.328125 1777.128906 40 1791.589844 43.316406 1792.683594 C 48.585938 1794.445313 56.46875 1793 62 1793 C 73.714844 1793 85.328125 1794 97 1794 C 100.792969 1794 111 1795.816406 113.972656 1793 C 116.613281 1790.332031 114.972656 1776.222656 111.683594 1774.601563 C 107.65625 1772.621094 100.40625 1774 96 1774 L 58 1774 C 54 1774 44.765625 1772.296875 41.691406 1775.027344 M 645 1797 C 652.203125 1795.285156 658.824219 1797.476563 666 1796.828125 C 697.664063 1794 730.289063 1796.089844 762 1797 C 810.53125 1798.070313 859.335938 1796 908 1796 C 926.757813 1796 946.328125 1794.394531 965 1796.171875 C 969.390625 1796.585938 983.640625 1799.671875 986.929688 1796 C 989 1793.488281 983.84375 1779.050781 982.195313 1776.316406 C 979.480469 1771.820313 967.574219 1774 963 1774 L 666 1774 C 662.296875 1774 653.894531 1772.433594 650.9375 1775.027344 C 647.394531 1778.136719 645.46875 1792.320313 645 1797 M 1518.601563 1775.117188 C 1515 1777.511719 1515.53125 1795 1520 1796 C 1526.851563 1797.085938 1534.226563 1795.003906 1541 1795 L 1592 1795 C 1678.609375 1795 1765.507813 1791.382813 1852 1793.050781 C 1877.59375 1793.546875 1903.355469 1793 1929 1793 C 1934.261719 1793 1951.175781 1795.769531 1954.972656 1792 C 1957.570313 1789.375 1957.910156 1776.546875 1953.839844 1775.316406 C 1946.417969 1773.078125 1935.746094 1775 1928 1775 L 1611 1775 C 1590.714844 1775 1569 1777.089844 1549 1774.714844 C 1542.390625 1774 1524.1875 1771.296875 1518.601563 1775.117188 M 47 1807 C 61 1813.359375 84.640625 1809 100 1809 C 102 1809 116.847656 1810.671875 116 1807.441406 C 115.1875 1803.691406 102.773438 1805 100 1805.003906 C 82.378906 1805.214844 64.632813 1807 47 1807 M 1952 1808 C 1944.753906 1803.65625 1932.238281 1806 1924 1806 L 1858 1806 C 1777 1806 1696 1805 1615 1805 L 1537 1805 C 1532.550781 1805 1513 1802.1875 1514.425781 1810 C 1515.417969 1815.585938 1534.511719 1813 1539 1813 C 1565 1813 1590.898438 1812 1617 1812 C 1728.753906 1812 1840.367188 1808 1952 1808 M 1942 1825 C 1932.785156 1821.132813 1918.914063 1823 1909 1823 L 1841 1823 C 1764 1823 1687 1822 1610 1822 C 1584.578125 1822 1557.195313 1825 1532 1821.574219 C 1527.804688 1821.023438 1508.8125 1818.144531 1509.546875 1825.699219 C 1509.964844 1830.011719 1529.476563 1828 1533 1828 C 1559 1828 1585 1827 1611 1827 C 1721.359375 1827 1831.796875 1826 1942 1825 M 45 1824 C 49.613281 1827.492188 57.40625 1826 63 1826 L 105 1826 C 107.222656 1826 123.789063 1828.21875 123 1825 C 122 1820.347656 107.359375 1822 104 1822.425781 C 85 1825 64 1824 45 1824 M 553 1853 C 565.195313 1856.605469 581.289063 1854 594 1854 L 1053 1854 C 1063.214844 1854 1088.839844 1859.21875 1079.5 1842.148438 C 1076 1835.789063 1057.367188 1840 1051 1840 L 586 1840 C 578.746094 1840 564.933594 1837.3125 558.433594 1840.601563 C 555.304688 1842.1875 554.464844 1850 553 1853 M 1495 1849 L 1495 1850 C 1504.964844 1853 1517.632813 1851 1528 1851 C 1552 1851 1575.996094 1850.03125 1600 1849 C 1592.355469 1845.792969 1578.402344 1847.003906 1570 1847 C 1547.261719 1847 1516.613281 1841.683594 1495 1849 M 42 1849 L 42 1850 L 93 1850 C 89 1847.054688 83.714844 1848 79 1848 C 67 1848 53.605469 1846.238281 42 1849 M 1675 1849 L 1675 1850 L 1954 1850 C 1949 1846.25 1940 1848 1934 1848 L 1744 1848 C 1722.339844 1848 1696 1844 1675 1849 M 544 1879 C 564.253906 1881.679688 585.585938 1880 606 1880 L 716 1880 C 833.675781 1880 951.394531 1879 1069 1879 C 1058.3125 1874.390625 1043.421875 1877.265625 1032 1877 C 1004.371094 1876.308594 976.699219 1876 949 1876 L 576 1876 C 567.5625 1876 550.175781 1872.695313 544 1879 M 441 1878 L 441 1879 L 471 1879 C 464.886719 1874.367188 448.261719 1876.269531 441 1878 M 1380 1878 L 1380 1879 L 1410 1879 C 1401.871094 1875.589844 1388.8125 1878 1380 1878 "/></g></svg>