<svg xmlns="http://www.w3.org/2000/svg" xmlns:xlink="http://www.w3.org/1999/xlink" viewBox="0 0 100 100" version="1.1"><g transform="translate(1, 5.688156777076188) scale(0.05051637938368556) translate(-30.976563, -123)"><path style=" stroke:none;fill-rule:nonzero;fill:rgb(0%,0%,0%);fill-opacity:1;" d="M 1202 1127 C 1259.414063 1114 1317.824219 1096 1365 1059.335938 C 1381.621094 1046.429688 1393.921875 1030.332031 1408 1015 C 1403.457031 1029.355469 1391 1043.394531 1381.800781 1055 C 1353.441406 1090.398438 1317 1119.550781 1275 1137 C 1257.921875 1144.070313 1239.90625 1149.050781 1222 1153.527344 C 1216.316406 1155 1204.226563 1155.019531 1201 1160 C 1228.652344 1160.074219 1259.660156 1171.378906 1286 1179.28125 C 1361.253906 1202 1435.273438 1237.828125 1495 1289.425781 C 1518 1309.3125 1537.828125 1332.304688 1552.566406 1359 C 1554.730469 1363 1566.90625 1383.398438 1561.65625 1386.421875 C 1554.988281 1390.261719 1539.382813 1388.394531 1532 1387.589844 C 1529.738281 1387.34375 1525.46875 1388.097656 1523.773438 1386.308594 C 1521 1383.449219 1524 1374.730469 1523.910156 1371 C 1523.207031 1360.011719 1520 1349 1515.445313 1339 C 1500.46875 1307 1471.898438 1282.527344 1443 1263.203125 C 1386 1225.140625 1320.714844 1199.242188 1254 1184.425781 C 1235 1180.226563 1215.910156 1178.597656 1197 1175 C 1190.894531 1174 1181.8125 1175.808594 1178.878906 1169 C 1171.878906 1152.699219 1176.597656 1138.527344 1179.574219 1122 C 1184 1096.558594 1189 1070.699219 1191.835938 1045 C 1200 969.324219 1199.230469 892.019531 1179 818 C 1172.519531 794.238281 1165.578125 770.398438 1155 748 C 1150.90625 739 1146 727.445313 1136 723.5625 C 1118.175781 716.753906 1092.519531 739 1079 748.578125 C 1031.347656 782.785156 987.695313 824.242188 954.671875 873 C 944.378906 888.195313 935 903.242188 927.464844 920 C 925.867188 923.539063 923.648438 935.464844 918.867188 935.582031 C 911.820313 935.753906 900.601563 927.078125 894 924.285156 C 877.59375 917.339844 860.257813 912.710938 843 908.472656 C 797.847656 897.386719 750.546875 900.164063 705 906.160156 C 686.320313 908.617188 667.679688 915 650 921.140625 C 645.566406 922.710938 634.601563 929.507813 630.46875 926.46875 C 623.882813 921.628906 619.703125 909.824219 615.308594 903 C 605.660156 888.019531 594.589844 874 583.484375 860 C 552 820.65625 512.757813 783.820313 471 755.671875 C 456.535156 746 441.832031 735.078125 426 727.640625 C 419 724.398438 410.6875 721.191406 403 723.699219 C 391.992188 727.289063 387.300781 739.429688 382.78125 749 C 371.191406 773.546875 364.960938 800 358.269531 826 C 338.46875 903.277344 339.621094 986.371094 349 1065 C 352.691406 1094.160156 358.925781 1123 363.425781 1152 C 365 1162.414063 370.644531 1176.636719 368.621094 1187 C 367 1195.089844 360.316406 1213.160156 353.785156 1218.296875 C 348.410156 1222.527344 339.335938 1224.015625 333 1226.601563 C 321.628906 1231.246094 310.644531 1237.324219 300 1243.425781 C 265.222656 1263.363281 235.320313 1290.265625 210.882813 1322 C 200 1336.117188 190 1351.226563 181.78125 1367 C 179 1372.164063 175.558594 1384.078125 169.894531 1386.398438 C 161.808594 1389.707031 147.710938 1387 139 1387 L 68 1387 C 59.308594 1387 50.664063 1387 42 1387.484375 C 39.636719 1387.640625 35.761719 1386.511719 34 1388.617188 C 31.320313 1392 33 1401 33 1405 L 33 1449 C 33 1452.695313 30.976563 1465.230469 35.316406 1466.683594 C 47.761719 1471 67.835938 1467 81 1467 C 83.902344 1467 95.257813 1465.339844 95.925781 1469.316406 C 96.542969 1473 92.355469 1483 88.890625 1484.398438 C 78 1489 59.90625 1484.722656 48 1486.289063 C 44.378906 1486.765625 37.324219 1487.242188 35 1490.507813 C 33.328125 1493 34.601563 1495.226563 37 1496 C 60.996094 1502.65625 53.550781 1520.5625 59 1539 L 60 1539 C 60.4375 1529 60.480469 1515.269531 67.53125 1507.183594 C 75.386719 1498.179688 88.289063 1500.304688 91.511719 1512 C 94.789063 1524 93 1537.746094 93 1550 C 93 1555.816406 93.484375 1562.675781 90.6875 1568 C 87.511719 1574.039063 81.25 1578.675781 77 1584 C 69 1594 62.488281 1604.527344 57 1616 C 35.550781 1661.113281 37.492188 1720.238281 67.757813 1761 C 80.515625 1778.183594 97.441406 1792.550781 117 1801.335938 C 125 1805 137.453125 1805.21875 144.609375 1810.011719 C 149.945313 1813.589844 152 1823.660156 155.4375 1829 C 162.714844 1840.585938 171.722656 1851.125 183 1859 C 199 1870.097656 219.816406 1874.558594 239 1871.5625 C 247.296875 1870.265625 256.84375 1864.65625 265 1864.769531 C 271.839844 1865 279.335938 1870.480469 286 1872.242188 C 301.5 1876.34375 317.882813 1875.578125 333 1870.304688 C 348.886719 1864.765625 362.890625 1854.128906 373.335938 1841 C 378 1835.117188 383.230469 1820.714844 389.820313 1817.464844 C 393.921875 1815.441406 400.503906 1816.253906 405 1815.714844 C 414.511719 1814.574219 423.890625 1813 433 1809.832031 C 475.882813 1795.617188 511.671875 1763.558594 526 1720 C 536.449219 1688.804688 533.203125 1653.339844 521.773438 1623 C 517.671875 1612.113281 508.179688 1602.113281 505.53125 1591 C 503 1580.800781 504.421875 1568.484375 503.960938 1558 C 503.378906 1544.671875 500.714844 1530.289063 502.285156 1517 C 502.839844 1512.324219 502.8125 1506.824219 506.277344 1503.226563 C 512 1497.230469 518.871094 1500.644531 522.351563 1507 C 527.96875 1517.265625 524.796875 1530.167969 528 1541 L 529 1541 C 529.488281 1529.601563 529.65625 1513.496094 536.789063 1504.042969 C 547.308594 1490.101563 577 1494.257813 587.671875 1506.089844 C 597.835938 1517.492188 597.859375 1538.527344 599 1553 L 601 1553 C 601 1539.675781 599.550781 1520.082031 608.394531 1509.015625 C 624.488281 1489 653.902344 1505.746094 660.761719 1525 C 667.992188 1545.296875 666 1569.773438 667 1591 C 668.566406 1626 671.710938 1661.097656 672 1696 L 673 1696 C 673.945313 1650.277344 677 1602.398438 682.714844 1557 C 684.753906 1540.402344 685.753906 1518.71875 704 1511.480469 C 724.316406 1503.417969 740.230469 1522.390625 744.84375 1540 C 748.917969 1555.550781 748.660156 1572.125 750.171875 1588 C 752.996094 1617.710938 755.980469 1648.148438 756 1678 L 757 1678 C 767 1636 754.425781 1587.289063 774 1547 C 786.351563 1521.675781 820.464844 1503.589844 848 1515.234375 C 851.503906 1516.714844 857 1519.058594 858.222656 1523.09375 C 860.429688 1531 850.960938 1554.160156 845.773438 1560 C 834.464844 1572.4375 821.347656 1581.367188 811.863281 1596 C 782 1642 777.285156 1705.4375 805.820313 1753 C 816.921875 1771.496094 831.9375 1787.351563 851 1797.691406 C 859.402344 1802.25 872.621094 1804 879.785156 1809.5625 C 885.53125 1814.152344 887.757813 1824 891.699219 1830 C 899.34375 1841.832031 909.414063 1853 921 1861 C 937 1872.191406 958.722656 1876.300781 978 1873 C 985.433594 1871.609375 994.648438 1866.007813 1002 1866.5625 C 1008.925781 1867.085938 1016 1872 1023 1873.625 C 1038 1877.355469 1054.578125 1876.253906 1069 1870.550781 C 1085.792969 1864 1099 1852.078125 1108.921875 1837 C 1113 1830.640625 1116.472656 1815.613281 1123 1812.027344 C 1126.4375 1810.1875 1131.269531 1811.039063 1135 1810.386719 C 1142.800781 1809.015625 1150.554688 1807.007813 1158 1804.304688 C 1187.503906 1793.59375 1210.277344 1770.191406 1223.230469 1742 C 1244 1696.511719 1230.347656 1649.292969 1227 1602 C 1226.175781 1588.707031 1220 1559.539063 1237 1554.125 C 1250.707031 1549.757813 1256.910156 1570.261719 1258 1580 C 1262.179688 1615.285156 1264 1651.472656 1264 1687 L 1266 1687 C 1266 1661.46875 1269.410156 1635.410156 1271.828125 1610 C 1273.8125 1589.175781 1273.203125 1567.515625 1277.886719 1547 C 1281.601563 1530.742188 1299 1509.355469 1316.910156 1523.558594 C 1329.339844 1533.460938 1329.4375 1552.636719 1331 1567 C 1333.234375 1586.445313 1335 1606.449219 1335.960938 1626 C 1336.636719 1641.46875 1335.410156 1659 1339 1674 L 1340 1674 C 1340 1646.71875 1344 1619.203125 1345.910156 1592 C 1347.425781 1570 1346 1544.671875 1355.347656 1524 C 1363.480469 1506 1399.210938 1486.515625 1412.914063 1510 C 1424.550781 1530 1414.699219 1557.6875 1421 1579 L 1422 1579 C 1422 1558.371094 1422.246094 1533 1428.210938 1513 C 1433.65625 1495 1447.210938 1502.421875 1448 1518 C 1448.335938 1524.605469 1448.792969 1531.496094 1450 1538 L 1451 1538 C 1451 1525.230469 1452.417969 1508.054688 1465 1501.140625 C 1478 1494 1498.570313 1496 1513 1496 C 1545.71875 1496 1578.324219 1495 1611 1495 C 1624.933594 1495 1645.988281 1492.296875 1657.816406 1501 C 1665.996094 1507 1665.234375 1517.109375 1666.285156 1526 C 1668.972656 1548.765625 1669 1573.074219 1669 1596 L 1670 1596 C 1673.644531 1576.363281 1673 1555 1673.960938 1535 C 1674.402344 1525 1673 1513.257813 1680.214844 1505.019531 C 1687.1875 1497.050781 1697.207031 1496.585938 1707 1496 C 1724.300781 1494.71875 1741.632813 1495 1759 1495 C 1802.273438 1495 1845.652344 1494 1889 1494 C 1914.71875 1494 1943.730469 1496.691406 1969 1492 L 1969 1491 C 1948.347656 1487.164063 1924.992188 1490 1904 1490 C 1854.832031 1490 1805 1492.105469 1756 1490 C 1660.835938 1485.800781 1565.367188 1490.132813 1470 1489 C 1450.277344 1488.761719 1430.691406 1485 1411 1484.039063 C 1355.589844 1481.613281 1299.472656 1482 1244 1482 C 1262.484375 1466.285156 1287.960938 1467 1311 1467 L 1918 1467 C 1932 1467 1953.441406 1471.113281 1966.683594 1466.683594 C 1970.941406 1465.257813 1969 1453.589844 1969 1450 L 1969 1403 C 1969 1399.296875 1970.761719 1389.675781 1966.683594 1387.742188 C 1956.875 1383.089844 1936.832031 1387 1926 1387 L 1825 1387 C 1830.960938 1381.179688 1836.472656 1376.660156 1840.332031 1369 C 1856.488281 1337 1829.539063 1310.652344 1834.273438 1280 C 1853.378906 1156.292969 1850.867188 1025 1789.691406 912 C 1774.527344 884.027344 1755.492188 858.492188 1733 836 C 1725.726563 828.726563 1718 821.515625 1710 815.234375 C 1706.460938 812.511719 1699.914063 809.355469 1698.355469 805 C 1697.257813 801.769531 1699.679688 798 1700.796875 795 C 1703.738281 787.503906 1706.316406 779.730469 1708.574219 772 C 1716.261719 745.714844 1720 718.25 1721.910156 691 C 1726.804688 619.527344 1707.824219 545.019531 1676.640625 481 C 1594.535156 312.429688 1431.265625 204.101563 1255 153.449219 C 1189.234375 134.550781 1120.484375 123 1052 123 C 947.554688 123 831.285156 143.5625 754.425781 220.425781 C 704.949219 270 680.347656 342.164063 697.476563 411 C 724.203125 518.410156 854.308594 612 965 565.574219 C 987 556.335938 1006.746094 541.445313 1018 520 C 1036.554688 485.199219 1025.640625 435.015625 990 415.3125 C 970.585938 404.582031 947.21875 403.347656 927 413 C 912.246094 420 905.972656 430.757813 888 428.824219 C 880.324219 428.003906 872.535156 424.765625 866 420.796875 C 823.75 395.132813 829.398438 336.492188 859.882813 304.464844 C 921 240.234375 1029.710938 236 1112 243.828125 C 1264.863281 258.621094 1422.878906 334.738281 1516.882813 458 C 1559.175781 513.453125 1593 585.542969 1589.960938 657 C 1588.742188 685 1583.332031 713.164063 1570.21875 738 C 1566.324219 745.375 1560.886719 756.558594 1553.910156 761.402344 C 1548.328125 765.273438 1538.53125 764.359375 1532 765.285156 C 1519.234375 767.097656 1506.394531 770.1875 1494 773.710938 C 1456.230469 784.441406 1421 803.128906 1391 828.4375 C 1351.59375 861.640625 1319.78125 905 1297 951 C 1281.492188 982.394531 1270.457031 1016 1254.488281 1047 C 1245.632813 1064.273438 1236 1081.359375 1224.523438 1097 C 1217.722656 1106.195313 1205.898438 1116.347656 1202 1127 M 1492 805 C 1486 813.21875 1477 819.546875 1470 827 C 1458.992188 839 1448.804688 852.511719 1439.671875 866 C 1404 918.644531 1377 976 1337.199219 1026 C 1321.550781 1045.636719 1303.609375 1064 1284 1079.601563 C 1276.671875 1085.464844 1269 1093.105469 1260 1096 C 1267.441406 1075.667969 1281.34375 1055.671875 1290.890625 1036 C 1336.445313 942.164063 1394.34375 851.660156 1492 805 M 404 829 C 404 850.019531 402.953125 871.320313 407.339844 892 C 408 896 408.855469 908.734375 412.5 910.792969 C 414.648438 912.007813 417.257813 901.457031 417.863281 900 C 421.609375 891 426.585938 882.628906 432.664063 875 C 434.773438 872.355469 438 867.511719 442 868.304688 C 447 869.320313 453 875.480469 457 878.574219 C 465.988281 885.539063 475.472656 892.097656 485 898.304688 C 509.957031 914.5625 542.578125 926.703125 562.714844 949.015625 C 580.332031 968.535156 593.535156 990.667969 607.1875 1013 C 613.976563 1024.101563 619.675781 1037.808594 629 1047 C 618.1875 1015.035156 604.867188 983.183594 598 950 L 599 950 C 611 973.066406 620 998.453125 628.695313 1023 C 632 1032.527344 637.519531 1042 639 1052 L 640 1052 C 639.585938 1032 633.394531 1010.683594 629.449219 991 C 625.710938 972.34375 623.890625 953.480469 619 935 L 620 935 C 622.597656 941.246094 625.84375 957.507813 631.558594 961.183594 C 634.695313 963.199219 639.308594 959.179688 642 957.785156 C 645.75 956 652.328125 954.71875 655 951.441406 C 659.332031 946.320313 657.546875 937.105469 659 931 L 660 931 C 660 937.546875 659.730469 944.589844 661 951 C 673.496094 942.179688 691.238281 939.15625 706 936.199219 C 745.933594 928.199219 795.542969 924.488281 835 937 L 835 938 C 789.945313 938 746.34375 942 703 955.117188 C 692 958.441406 668.960938 962 661.601563 971.273438 C 657.40625 976.640625 660 990.449219 660 997 C 660 1020.625 658.679688 1045.71875 663 1069 L 664 1069 C 665.742188 1047 667.980469 1025 671 1003 C 672.328125 994.671875 675.46875 986.335938 676 978 L 677 978 C 676.710938 1012.792969 668.3125 1048.246094 670.273438 1083 C 670.722656 1091 677.410156 1099 680.738281 1106 C 684.957031 1115 687 1125.339844 688.5625 1135 C 693.816406 1167.703125 687.269531 1198.515625 687 1231 L 685 1231 C 684.34375 1215.703125 679.847656 1200 676.660156 1185 C 668.964844 1149 658.484375 1116.457031 629 1091.753906 C 611.21875 1077 589.890625 1065.757813 566 1070.664063 C 535 1077.007813 517.863281 1104.636719 495 1123.382813 C 478.480469 1137 457.988281 1144 441 1156.609375 C 416.320313 1175.054688 408.667969 1207.40625 403.195313 1236 C 402 1242.152344 396.960938 1259.074219 401 1264.410156 C 403.738281 1268 412 1267.054688 416 1267.574219 C 430.855469 1269.527344 446 1269.515625 461 1271.285156 C 505 1276.511719 549 1281.582031 593 1287.289063 C 611.683594 1289.71875 631 1295 650 1295 L 650 1294 C 645 1292 639.597656 1290 636 1286 C 648.980469 1282.632813 661.503906 1278.050781 674 1273.1875 C 677.855469 1271.6875 684.648438 1266.292969 688.742188 1267 C 693.691406 1268 699.746094 1278.5625 704 1281.75 C 709.714844 1286.027344 716.722656 1287.371094 722.714844 1291.042969 C 733.742188 1297.800781 747.9375 1319.8125 741.3125 1333 C 735.890625 1343.78125 718 1349.300781 708 1355 C 686 1367.414063 663.929688 1379.253906 642 1391.566406 C 630.796875 1398 619.359375 1407.363281 607 1411 C 618.511719 1395.371094 640.992188 1382.222656 657 1371.34375 C 662 1368 668.632813 1365.414063 673 1361 C 629 1370.058594 587.699219 1389 544 1398 C 550.617188 1390.300781 565.675781 1386.082031 575 1382.191406 C 595.652344 1373.570313 616 1364.265625 637 1356.425781 C 647.261719 1352.585938 662.847656 1349.335938 671 1342 C 608 1347 543.75 1363.285156 483 1380.292969 C 468.699219 1384.296875 454.269531 1388 440 1392 C 436.535156 1393 426.988281 1393.808594 425.328125 1397.316406 C 423.867188 1400.402344 426.320313 1406 427 1409 C 429.863281 1419.027344 433 1429 435.625 1439 C 442 1465 447.894531 1491 453.886719 1517 C 456.851563 1530 462.925781 1542.832031 464 1556 L 463 1556 C 447.207031 1518.066406 428.765625 1483 417.578125 1443 C 414.625 1432.464844 413.4375 1421.636719 411 1411 C 410.484375 1408.113281 410.242188 1401.820313 407.4375 1400.132813 C 404.769531 1398.527344 399.671875 1401.21875 397 1402 C 387.914063 1404.648438 378.46875 1408.226563 369 1409 L 369 1408 C 377.492188 1403.472656 386.921875 1399.554688 396 1396.34375 C 400.734375 1394.671875 407.183594 1393.332031 410 1389 C 412.902344 1384.746094 412 1378.726563 412 1374 L 413 1374 C 414.566406 1377.632813 416.992188 1384.226563 421 1385.59375 C 425.226563 1387 433 1382.816406 437 1381.492188 C 449.539063 1377.328125 462.191406 1372.722656 475 1369.476563 C 521.277344 1357.738281 567.226563 1345.40625 614 1335.714844 C 629.226563 1332.558594 645.496094 1326.792969 661 1326 L 661 1325 C 593.207031 1325 524.601563 1329.460938 457 1334.089844 C 425.894531 1336.21875 394 1342 363 1342 L 363 1341 C 377 1336.1875 392.425781 1334.460938 407 1331.550781 C 489.617188 1315.050781 573 1320.480469 656 1310 L 656 1309 C 640.96875 1308.355469 625.972656 1304.644531 611 1303.171875 C 563.910156 1298.535156 516.988281 1292.28125 470 1286.714844 C 452.855469 1284.683594 435.265625 1282.167969 418 1282 C 413.746094 1282 405.1875 1279.191406 401.601563 1282.027344 C 395.628906 1286.757813 402 1304.542969 401 1311 C 394.835938 1306.65625 389.542969 1301 386.324219 1294 C 384.625 1290.375 384.167969 1284.433594 381.273438 1281.601563 C 378.257813 1278.65625 372.660156 1280.800781 369 1281 C 357 1281.484375 341.804688 1281.800781 331 1287 C 340.578125 1289.476563 349.726563 1291.828125 359 1295.386719 C 360.820313 1296.085938 367.792969 1297.402344 367.792969 1300.003906 C 367.792969 1302.761719 359 1306.507813 357 1307.71875 C 346.40625 1314 336.40625 1321.449219 327 1329.285156 C 315 1339.164063 296.9375 1351.128906 288.648438 1364.171875 C 285.71875 1368.773438 292.527344 1374.316406 289.292969 1378.179688 C 284.261719 1384.1875 269.46875 1382.21875 266 1390.222656 C 263.761719 1395.53125 274.191406 1398.425781 272.539063 1403.296875 C 270 1410.460938 247 1409.070313 247 1418.054688 C 247 1426.132813 267 1434.386719 273 1438 L 273 1439 C 261.484375 1443 250 1446.621094 239 1452 C 236.488281 1453.089844 229.414063 1456.035156 229.691406 1459.519531 C 229.972656 1463.011719 234.734375 1466.71875 237 1469 C 244 1476.070313 253 1482 259 1490 C 245.742188 1490.605469 231.945313 1497 221 1504.078125 C 217.929688 1506.097656 209.96875 1510.421875 211.207031 1515 C 213.433594 1523.207031 233.878906 1532.222656 241 1536 L 241 1537 C 215.894531 1537.207031 208.523438 1555 191 1568.472656 C 177.542969 1579 159.898438 1583.101563 146 1593.039063 C 126.53125 1607 117.195313 1629.578125 111.742188 1652 C 106.941406 1671.726563 109 1691.035156 109 1711 C 108.992188 1714.183594 108.304688 1728 102.824219 1726.742188 C 97.71875 1725.589844 92.347656 1717.140625 89.824219 1713 C 80.675781 1698 78.441406 1680.289063 80.171875 1663 C 83.960938 1625.097656 110.734375 1599.355469 128.570313 1568 C 141 1546.097656 146.734375 1520.3125 156 1497 C 184.726563 1424.734375 220.855469 1350.328125 284 1301.652344 C 302.84375 1287.125 322.714844 1275.746094 346 1270.234375 C 353.511719 1268.457031 361.269531 1266.464844 369 1266.035156 C 372.179688 1266 377.800781 1266.414063 379.976563 1263.527344 C 383.960938 1258.246094 382.644531 1245.507813 384 1239 C 388.476563 1219.777344 393.636719 1200.816406 402.257813 1183 C 412.34375 1162.152344 424.574219 1142.730469 442 1127.175781 C 452.558594 1117.746094 465.285156 1111.136719 475.996094 1102 C 508.757813 1073.527344 540.496094 1030.515625 590 1041.664063 C 602.550781 1044.492188 610.972656 1052.371094 622 1058 C 613.347656 1049.347656 604.734375 1040.648438 596 1032.078125 C 568.816406 1005.410156 534.953125 978.601563 496 974.828125 C 475.714844 973 451.449219 978.375 438 995 C 452.707031 988.160156 483.679688 990.648438 493 1006 C 440.675781 1003.753906 401 1066 400 1115 C 395 1111.714844 394.902344 1103.445313 393.523438 1098 C 389.730469 1083.015625 386.914063 1068.296875 384.730469 1053 C 376.804688 997.523438 377.765625 939.273438 386.921875 884 C 389.203125 870.210938 392.488281 856.289063 396.835938 843 C 398.421875 838.152344 399.566406 832 404 829 M 1046 1005 C 1056.554688 988.15625 1080.851563 991.265625 1097 994 L 1097 993 C 1090.785156 989.636719 1085.589844 984.8125 1079 982.015625 C 1052.394531 970.710938 1032.8125 975.796875 1006 982 L 1006 981 C 1019.363281 975.4375 1030.707031 970.65625 1045 968 L 1045 967 C 1035.96875 965.324219 1027 966 1018 966 C 1032.425781 949.050781 1065.957031 946.417969 1086 951 C 1038 907.347656 981.289063 958.699219 947 993 C 940 1000 933.601563 1007.347656 927.234375 1014.828125 C 917.707031 1026.03125 905.707031 1038 899 1051 C 914.5625 1035.4375 931.421875 1022.742188 950 1011 C 958.3125 1005.675781 968.1875 998.75 978 997 L 978 998 C 955.488281 1011.601563 932.78125 1027.738281 912.949219 1045.011719 C 906.917969 1050.265625 899 1055 894 1061 C 930.402344 1040.300781 975.503906 1062.535156 1004 1086.589844 C 1013.65625 1094.742188 1024.523438 1105.476563 1030 1117 C 1021.507813 1112.261719 1015 1103.230469 1007.574219 1097.039063 C 993.171875 1085.15625 974.453125 1074.328125 956 1070.515625 C 903.820313 1059.734375 861.378906 1108.042969 845.695313 1153 C 837.84375 1175.511719 834.785156 1198.804688 830 1222 L 829 1222 C 821.382813 1190.011719 824.234375 1148.160156 834.195313 1117 C 836.640625 1109.351563 839.980469 1101.730469 844.382813 1095 C 846.875 1091.195313 851 1087.703125 851.730469 1083 C 852.785156 1075.367188 850 1066.71875 850 1059 C 849.648438 1029 846 999.011719 846 969 L 847 969 C 850.984375 1000 857.980469 1030.734375 858 1062 L 859 1062 C 869.308594 1020.160156 860.71875 974.742188 871 933 L 872 933 C 872 952.324219 873.808594 971.617188 872.960938 991 C 872 1013 869 1035.097656 869 1057 L 871 1057 C 871 1042.199219 877.371094 1027.199219 881 1013 C 887.976563 987 893.804688 960.632813 902 935 L 903 935 C 898 973.648438 886.882813 1011.414063 882 1050 C 889 1042.683594 891.554688 1028.371094 895.425781 1019 C 905 995.441406 916.226563 972.476563 926 949 L 927 949 C 922.710938 981 904.421875 1011.148438 896 1042 C 904.234375 1032.828125 910.230469 1021.066406 917.425781 1011 C 933.4375 988.605469 950 966.445313 971 948.289063 C 997.207031 925.503906 1032.671875 915.3125 1061 895.140625 C 1076 884.425781 1090.664063 873.441406 1105 861.804688 C 1108.332031 859.097656 1116 850 1120.816406 851.332031 C 1124.496094 852.476563 1127.28125 859 1128.964844 862 C 1134.820313 873 1139 884.304688 1143 896 C 1159.316406 945 1161.210938 996.203125 1154 1047 C 1152.175781 1061.011719 1150 1075.347656 1146.292969 1089 C 1145.464844 1092.007813 1144.914063 1100.152344 1141.71875 1101.652344 C 1139 1103 1137.691406 1094.488281 1137.269531 1093 C 1134.449219 1083.019531 1130.609375 1073.144531 1125.691406 1064 C 1109.425781 1033.746094 1082.742188 1003.421875 1046 1005 M 1723 884 C 1716.445313 898.144531 1704.777344 908.457031 1699.886719 924 C 1684.703125 972.257813 1689.898438 1026.449219 1701.234375 1075 C 1704.191406 1087.65625 1710 1099.492188 1713 1112 C 1697.46875 1104.609375 1685 1083.410156 1676.71875 1069 C 1647.214844 1018.058594 1652.496094 953.054688 1691.835938 909 C 1700.566406 899.222656 1710.769531 889.277344 1723 884 M 448 950 L 448 951 C 470.929688 949.128906 499.402344 948.261719 517 967 C 509.324219 965.171875 495 963.632813 488 967 C 494.472656 971 504.640625 971.363281 512 973.746094 C 525.976563 978.269531 540.535156 984.421875 553 992.230469 C 570.714844 1003.324219 587.175781 1016.304688 602 1031.035156 C 610 1039.113281 616.597656 1049.378906 626 1056 C 620.371094 1041.371094 606.859375 1028 598 1015 C 570.378906 974.445313 529 923.039063 474 937.476563 C 464.90625 940 455.890625 945 448 950 M 652 1055 C 654.679688 1048.609375 652.332031 1040.683594 652 1034 C 651.453125 1020.59375 653 1007.339844 653 994 C 653 991 655.234375 976.035156 651.679688 975.527344 C 647 975 636.742188 980 636.527344 985.042969 C 636.210938 992.636719 640 1001.5625 641.550781 1009 C 644.597656 1024.105469 646.679688 1040.515625 652 1055 M 895.332031 1042.667969 C 895.277344 1042.722656 895.222656 1043.777344 895.667969 1043.332031 C 895.722656 1043.277344 895.777344 1042.222656 895.332031 1042.667969 M 623 1059 L 624 1060 L 623 1059 M 892 1061 L 893 1062 L 892 1061 M 970 1115 C 984.433594 1124 996.546875 1135.710938 1004.191406 1151 C 1010.359375 1163.335938 1012.566406 1176.320313 1011.960938 1190 C 1011.402344 1202.617188 1006.210938 1215 998.960938 1225 C 974.269531 1259.527344 920.609375 1268.253906 885 1246.25 C 850 1224.65625 839.183594 1175.546875 870 1145 C 870.90625 1151.097656 868.3125 1157.761719 868 1164 C 867.421875 1178.066406 870.304688 1193.078125 878 1205 C 905.460938 1247 967.367188 1242.074219 986.546875 1195 C 993.738281 1177.347656 992.433594 1155.097656 984.214844 1138 C 981 1131.5625 969.859375 1121.5625 970 1115 M 556 1121.300781 C 586 1117 582.632813 1161.242188 556 1164.710938 C 525.402344 1168.695313 529 1125.1875 556 1121.300781 M 896 1122.328125 C 925.675781 1117.117188 924.777344 1160.640625 899 1165.625 C 869.757813 1171.277344 869.773438 1127 896 1122.328125 M 537 1124 C 530.515625 1147.707031 520.636719 1169.09375 529.507813 1194 C 544.558594 1236.234375 601.234375 1249 631.699219 1215 C 651 1193.402344 648 1171.210938 646 1145 C 651.964844 1150 654.835938 1158.046875 657.90625 1165 C 670.25 1193 666.386719 1219.675781 641.996094 1239.691406 C 602.789063 1272 534 1261.789063 511.707031 1214 C 505.492188 1200.722656 503.738281 1186.417969 506.25 1172 C 509.242188 1154.816406 520.460938 1131.714844 537 1124 M 1115 1147 C 1133 1165.386719 1150.507813 1195.085938 1154 1221 L 1153 1221 C 1142.417969 1204.230469 1134.953125 1185.273438 1125 1168 C 1122 1162.582031 1114 1153.289063 1115 1147 M 788 1213 C 780.976563 1213.320313 774.984375 1216.507813 769 1220 C 783 1223.382813 796.1875 1232.40625 799 1248 C 786 1245.804688 774.328125 1241.003906 761 1240.089844 C 743.652344 1239 728.402344 1243.523438 712 1248 C 714 1240.558594 718.988281 1232.746094 724.183594 1227.015625 C 725.78125 1225.253906 732.945313 1221.355469 732.945313 1219.003906 C 732.945313 1215.695313 725.210938 1215.191406 723 1215 C 733.460938 1192.628906 775.667969 1192.015625 788 1213 M 1478 1334 C 1381.511719 1292.421875 1269.722656 1286 1167 1306.550781 C 1142.921875 1311.394531 1118.835938 1317.558594 1096 1326.691406 C 1090.183594 1329.019531 1078.722656 1331 1074.597656 1336 C 1069.402344 1342.023438 1088.773438 1351.246094 1084.253906 1357.003906 C 1081.625 1360.351563 1073.851563 1361.320313 1070 1362.691406 C 1060 1366.207031 1044.851563 1371.53125 1038.425781 1380.289063 C 1034.734375 1385.320313 1043.957031 1393.457031 1047 1397 C 1048.359375 1398.46875 1052.242188 1401.789063 1050.246094 1404 C 1048.53125 1406 1043.386719 1406.03125 1041 1406.628906 C 1030.703125 1409.1875 1005 1413.585938 1011.890625 1428 C 1013 1430.460938 1014.488281 1432.769531 1016 1435 C 1019.316406 1439.71875 1023.601563 1443.765625 1026 1449 C 1013.300781 1450.105469 1000 1456.023438 989 1462.09375 C 986.488281 1463.472656 978.191406 1466.816406 978.78125 1470.46875 C 979.351563 1474 984.523438 1477.144531 987 1479.269531 C 993.359375 1484.726563 1003 1490.59375 1007 1498 C 993.632813 1498.285156 978.6875 1503.605469 967 1510 C 963.875 1511.566406 956.277344 1514.699219 956.539063 1519.039063 C 957 1528 972 1537.089844 977 1544 C 969.917969 1546.097656 962.46875 1546 956 1550.109375 C 945.398438 1557.027344 938.652344 1568.710938 928 1575.613281 C 916.425781 1583.109375 902.710938 1586.796875 891 1594.066406 C 874.1875 1604.5 862.996094 1622.375 857.191406 1641 C 850.238281 1663.300781 850.769531 1685.050781 851 1708 C 851 1711.238281 852.761719 1728.621094 847.492188 1728.808594 C 843.203125 1729 838.378906 1721.011719 836.359375 1718 C 827.878906 1705.371094 823 1690.207031 823 1675 C 822.910156 1615.820313 876.484375 1580.671875 901.242188 1532 C 922 1491.023438 941.816406 1449.449219 963.691406 1409 C 984.96875 1369.660156 1007.800781 1330.046875 1042 1300.289063 C 1097.289063 1252.179688 1171.601563 1244 1242 1244 C 1289.683594 1244 1337.292969 1248.121094 1382 1266 C 1409.167969 1277 1433.921875 1291.507813 1456 1310.71875 C 1463.464844 1317.214844 1473.769531 1325 1478 1334 M 877 1292 L 877 1293 C 874.289063 1294.148438 871.933594 1294.746094 869 1295 L 869 1296 C 901.433594 1296 935.875 1289.320313 968 1284.730469 C 981.628906 1282.78125 999.46875 1277.746094 1013 1280 C 1003.601563 1293.230469 987.515625 1292 973 1294.800781 C 952.246094 1299 930.964844 1300.675781 910 1303.285156 C 892.558594 1305.453125 874.589844 1309 857 1309 L 857 1311 C 885.191406 1311.019531 915 1315.398438 943 1318.714844 C 950.359375 1319.585938 965 1317.621094 971.339844 1321.589844 C 974 1323.328125 967.917969 1329.289063 966.484375 1330.398438 C 959.929688 1335.488281 945.625 1330.105469 938 1330.003906 C 916.316406 1329.710938 894.691406 1326.515625 873 1326 C 865.703125 1325.808594 858.21875 1323.429688 851 1325 C 872.671875 1336.363281 901.550781 1339.015625 925 1346.117188 C 929.441406 1347.460938 946.726563 1349.488281 948.746094 1353.589844 C 954.464844 1365.207031 932.660156 1361.3125 929 1360.371094 C 902.183594 1353.464844 874.707031 1349.085938 848 1342 C 862.390625 1357.699219 888 1365.410156 906 1376.632813 C 913.273438 1381.1875 922.1875 1385 926 1393 C 895.765625 1386.6875 868.761719 1365.292969 838 1360 C 850.492188 1372.492188 867.585938 1384 878 1398 C 851.273438 1388.289063 826.53125 1370 802 1356 C 791.597656 1350 777 1343 772.5625 1331 C 767.320313 1317.101563 779.261719 1297.769531 791 1290.636719 C 797.285156 1287 804.753906 1285.523438 810.984375 1281.457031 C 814.933594 1279 821.800781 1267.535156 826.183594 1268 C 831.554688 1268.300781 839.203125 1275.097656 844 1277.691406 C 854.582031 1283.410156 866 1287 877 1292 M 789 1272 L 788 1273 L 789 1272 M 727 1275 L 727 1278 L 725 1278 L 725 1275 L 727 1275 M 1707 1279.289063 C 1709.789063 1279 1721.21875 1278.539063 1722 1282.394531 C 1722.550781 1284.488281 1719 1287.488281 1718 1289.015625 C 1714.78125 1293.632813 1712.34375 1298.589844 1710.722656 1304 C 1704.789063 1323.777344 1717.601563 1355.492188 1689 1358.382813 C 1670.367188 1360.261719 1668.933594 1340 1669 1326 C 1669 1302.097656 1682.21875 1282.46875 1707 1279.289063 M 1758 1280.289063 C 1762 1279.753906 1777.65625 1279 1779.652344 1284 C 1780.53125 1286.027344 1777.234375 1288.664063 1775.996094 1290 C 1771.84375 1294.464844 1768 1299.027344 1766.429688 1305 C 1762.492188 1318.660156 1770.535156 1340.394531 1763 1352 C 1759 1358.304688 1749.878906 1360 1743 1360.714844 C 1722.199219 1363.203125 1721 1345.011719 1721 1329 C 1721 1306 1733.1875 1283.519531 1758 1280.289063 M 650 1295 L 650 1296 L 653 1297 C 652 1295.21875 652 1295.40625 650 1295 M 1801 1296.378906 C 1813.308594 1295.628906 1819.585938 1308.792969 1821.789063 1319 C 1825.867188 1338 1818.253906 1358.320313 1796 1359 C 1782.757813 1359.199219 1778 1347.3125 1778 1336 C 1777.972656 1320.09375 1780.460938 1297.632813 1801 1296.378906 M 1657.847656 1300.527344 C 1662.863281 1300.257813 1658 1314 1658 1317 C 1657.671875 1330.761719 1664.550781 1357.6875 1645 1358.808594 C 1635.964844 1359.328125 1634 1348 1634 1341 C 1633.742188 1327.109375 1640.195313 1301.476563 1657.847656 1300.527344 M 751 1367.289063 C 766.230469 1365.3125 799.363281 1375.109375 801.8125 1393 C 805.710938 1421.511719 777 1441.625 752 1444.714844 C 730.71875 1447.328125 708.417969 1440.175781 695 1423 C 691.390625 1418.355469 684.234375 1408.511719 685.949219 1402.105469 C 687.378906 1396.773438 697.652344 1394.074219 702 1391.6875 C 717.921875 1383 732.394531 1369.707031 751 1367.289063 M 1221 1435 C 1218 1442.515625 1212 1448.726563 1208.371094 1456 C 1201 1470.429688 1197.429688 1487.101563 1195.289063 1503 C 1192.632813 1522.71875 1191 1543.125 1191 1563 C 1191 1573.261719 1193.777344 1587.339844 1191 1597 C 1184.597656 1586.523438 1181.765625 1570.039063 1179.574219 1558 C 1171.800781 1515.257813 1174.410156 1455.074219 1221 1435 M 430 1584 C 441.179688 1590.523438 453 1595.496094 463 1604.183594 C 483.386719 1622.1875 495.628906 1655 491.246094 1682 C 488.554688 1698.640625 483.464844 1712.703125 469.996094 1723.6875 C 466.183594 1726.796875 459.453125 1732 454 1731.378906 C 450.628906 1731 450.910156 1726.632813 451.175781 1724 C 451.980469 1716 454.660156 1708.058594 455.71875 1700 C 459 1674.296875 456.820313 1646.527344 448 1622 C 444.957031 1613.019531 440.96875 1604.097656 435.933594 1596 C 433.695313 1592.394531 429 1588.398438 430 1584 M 385 1749 C 385.753906 1712.535156 390 1676.03125 381 1640 C 377 1624 369.992188 1610.785156 363 1596 C 399.921875 1613.195313 420 1662.699219 416.167969 1701 C 414.179688 1721 406.914063 1743.476563 385 1749 M 1152 1602 C 1185.328125 1614.636719 1197.253906 1657.058594 1194.910156 1689 C 1194 1700.804688 1187.359375 1713.132813 1178.910156 1721.15625 C 1176.789063 1723.167969 1172 1729 1168.601563 1728.09375 C 1166 1727.527344 1167.351563 1722.609375 1167.578125 1721 C 1168.726563 1713 1169.53125 1705.152344 1170 1697 C 1172.40625 1663.183594 1165.257813 1632.769531 1152 1602 M 182 1605 C 177.515625 1619.078125 168.613281 1631.269531 164.734375 1646 C 159 1667.277344 160.246094 1688.5 157.425781 1710 C 156.308594 1718.511719 157 1727.425781 157 1736 C 157 1738 157.859375 1743.683594 155.398438 1744.652344 C 151.773438 1746.085938 146.703125 1738.332031 145 1736 C 137.199219 1725.011719 136 1713.140625 136 1700 C 136 1663.730469 151 1626.292969 182 1605 M 1085 1606 C 1114.597656 1632.671875 1136.914063 1666.410156 1129.613281 1708 C 1127.652344 1719.175781 1126 1729.222656 1119.757813 1739 C 1118.167969 1741.433594 1114.191406 1747.75 1110.601563 1747.078125 C 1108 1746.613281 1109 1740.664063 1109.171875 1739 C 1109.949219 1730.761719 1110.617188 1722.289063 1109.828125 1714 C 1107.566406 1690.214844 1106.988281 1666.054688 1099.808594 1643 C 1097.238281 1634.742188 1094.441406 1626.707031 1090.488281 1619 C 1088.492188 1615.101563 1084.578125 1610.4375 1085 1606 M 916 1612 C 900.789063 1641 893.46875 1668.355469 892 1701 C 891.453125 1714.378906 896.78125 1730.15625 894 1743 C 871 1715.265625 878.886719 1670.304688 893.757813 1641 C 898.632813 1631.390625 906 1617.007813 916 1612 M 211 1713 C 233.324219 1706 252.265625 1724.046875 256.550781 1745 C 262.710938 1775.128906 245.203125 1810 211 1810 C 178.949219 1810 159.273438 1776.371094 164.464844 1747 C 167.503906 1729.796875 181 1708.71875 201 1712 C 195.558594 1697.425781 189.300781 1678.503906 194.359375 1663 C 198 1651.539063 213.171875 1642.316406 221 1656.003906 C 229.835938 1671.222656 215 1698.03125 211 1713 M 331 1715 C 352.824219 1711.402344 364.171875 1737 364.960938 1755 C 366.355469 1786.816406 339.75 1816.015625 307 1811.710938 C 274 1807.382813 260.609375 1767 272 1739 C 279.796875 1720.167969 299.753906 1705.550781 320 1715 C 317 1697.8125 305.523438 1676.398438 312.996094 1659 C 319.757813 1643.253906 338 1648 341.332031 1663 C 345 1681 335.738281 1698.417969 331 1715 M 943 1716 C 1004.828125 1704.523438 1009.621094 1811.363281 948 1812 C 941.78125 1812.058594 935.734375 1811.273438 930 1808.761719 C 905.203125 1798 896.320313 1768.636719 902.234375 1744 C 904.992188 1732.511719 918.539063 1710.464844 933 1717 C 928.867188 1699.558594 919 1683.390625 925.539063 1665 C 928.277344 1657.230469 935.703125 1647.789063 944.996094 1652.457031 C 952 1656 953.390625 1664 952.910156 1671 C 951.886719 1686.21875 946.414063 1701.242188 943 1716 M 1047 1719 C 1066 1709.410156 1085.855469 1726.015625 1091.277344 1744 C 1099.527344 1771.347656 1086.382813 1806.257813 1056 1812.484375 C 1023.421875 1819.164063 1003.988281 1791.234375 1004 1762 C 1004 1742.210938 1014.945313 1721.0625 1037 1721 C 1029.230469 1706.238281 1018.71875 1690.472656 1021.300781 1673 C 1022.730469 1663.324219 1031 1653 1041.984375 1656.703125 C 1049 1659.148438 1051.4375 1667.265625 1051.910156 1674 C 1052.957031 1689 1050.816406 1704.617188 1047 1719 M 431 1713.371094 C 439.214844 1712.304688 445.605469 1720.679688 446.699219 1728 C 448.550781 1740.402344 440.582031 1765.148438 425 1765.589844 C 420 1765.730469 422.699219 1754.5 422.285156 1751 C 420.9375 1739.5625 412.921875 1715.71875 431 1713.371094 M 120 1714.4375 C 140 1712 129.460938 1740.285156 129 1750 C 128.902344 1753.128906 131.683594 1764.742188 127.683594 1765.578125 C 122.742188 1766.605469 116.179688 1761.339844 113.265625 1758 C 104.761719 1748.105469 101.773438 1716.671875 120 1714.4375 M 1139 1767 C 1139 1758.003906 1138.511719 1750 1136.917969 1741 C 1135.878906 1735.242188 1133.738281 1729 1135.652344 1723.039063 C 1139 1712.765625 1150.507813 1713.101563 1156.855469 1720.042969 C 1170.800781 1735.289063 1156.996094 1763.222656 1139 1767 M 864 1715.394531 C 883.625 1711.007813 875.527344 1741.609375 874.757813 1751.574219 C 874.523438 1754.648438 876.265625 1764.714844 872.683594 1765.640625 C 867.332031 1767.019531 860.855469 1760.761719 858 1757 C 850.652344 1746.480469 846.902344 1719.21875 864 1715.394531 "/></g></svg>