<svg xmlns="http://www.w3.org/2000/svg" xmlns:xlink="http://www.w3.org/1999/xlink" viewBox="0 0 100 100" version="1.1"><g transform="translate(1, 6.938577406630955) scale(0.05585450402795411) translate(-129.773438, -223.085938)"><path style=" stroke:none;fill-rule:nonzero;fill:rgb(0%,0%,0%);fill-opacity:1;" d="M 1208 878 C 1215.828125 871.359375 1221.417969 861.390625 1228.472656 853.804688 C 1239.421875 842.035156 1253.976563 831.808594 1268 824 C 1262 839 1249.742188 850.746094 1245 866 C 1253.8125 863 1261.851563 854.652344 1270 850 C 1292.691406 836.519531 1325 823.605469 1352 830 L 1352 831 C 1335.53125 836.359375 1319.996094 842.046875 1305 851 C 1299.648438 854.007813 1291.90625 857.402344 1289 863 C 1324.335938 857.804688 1356 851.542969 1392 856 C 1401.820313 857.019531 1413.894531 857.160156 1423 861 C 1401.332031 866.160156 1377.992188 865 1356 870.257813 C 1349.90625 871.730469 1337.523438 872.546875 1334 878 C 1380 880 1426.796875 893.425781 1465 919.808594 C 1485.597656 934.03125 1504.964844 952.015625 1520 972 C 1593.511719 1069 1584.625 1203.507813 1499.960938 1291 C 1450 1342.535156 1374 1370.515625 1303 1360.269531 C 1276.28125 1356.421875 1243.839844 1346.617188 1225 1326 C 1268.238281 1344 1315.324219 1352 1362 1343.535156 C 1497.511719 1319.371094 1586.585938 1175.148438 1542.484375 1044 C 1532.734375 1015.003906 1516.226563 989.113281 1496.421875 966 C 1478 944.625 1455.601563 927.621094 1431 914.175781 C 1408.898438 902.09375 1384.847656 893.792969 1360 889.753906 C 1337.9375 886.167969 1315.234375 885.136719 1293 888.425781 C 1160 908.109375 1073.582031 1040 1092.429688 1170 C 1097.460938 1204.761719 1108.972656 1237.550781 1126.425781 1268 C 1138.679688 1289.371094 1154.683594 1309.347656 1173 1325.828125 C 1263.328125 1407.128906 1402.992188 1399.003906 1496 1327.113281 C 1552.835938 1283.179688 1587.640625 1218.566406 1597.699219 1148 C 1601 1124.230469 1600 1100 1600 1076 L 1601 1076 C 1626.777344 1156.613281 1606 1248.136719 1547.730469 1309.828125 C 1520 1339.125 1487.179688 1359.074219 1451 1376 L 1451 1377 C 1472.710938 1377 1495.472656 1370.546875 1517 1367.429688 C 1553.804688 1362.097656 1590.816406 1358.339844 1628 1358.339844 C 1652.921875 1358.339844 1678.519531 1360.550781 1703 1365.449219 C 1713.527344 1367.554688 1726.195313 1374.332031 1736.851563 1374.085938 C 1740.253906 1374.007813 1740.394531 1369.558594 1740.714844 1367 C 1741.667969 1359.375 1741.476563 1351.636719 1742 1344 C 1742.425781 1341.027344 1743.253906 1334.78125 1747.796875 1337.085938 C 1752.425781 1339.433594 1752.410156 1346.269531 1757 1349 C 1757 1345.285156 1755.714844 1338.433594 1759.316406 1336.027344 C 1765 1332.167969 1780 1335 1787 1335 C 1811.355469 1335 1835.675781 1334.003906 1860 1334 C 1857 1329 1850.339844 1327.199219 1845 1325.34375 C 1832 1321 1819.347656 1318 1806 1315.574219 C 1749 1305.3125 1691.933594 1317.527344 1635 1318 L 1635 1317 C 1661.171875 1307 1689 1301.265625 1717 1300.039063 C 1726.726563 1299.613281 1736.3125 1300 1746 1300.003906 C 1748.671875 1300.046875 1754 1301.6875 1756.355469 1300 C 1760.253906 1297 1753.195313 1284.566406 1752 1281 C 1755.660156 1283.492188 1758.578125 1286.109375 1763 1287 C 1759.984375 1267.585938 1744.265625 1251.394531 1738 1233 C 1743 1236.402344 1747.832031 1240 1753 1243.132813 C 1759 1247 1765 1251 1771 1255 C 1772.382813 1256 1776.199219 1258.714844 1777.863281 1257 C 1780.625 1254 1771 1241.527344 1769.277344 1239 C 1758.308594 1223.226563 1738.871094 1206.386719 1733 1188 C 1739.769531 1192.5625 1746.496094 1197 1753 1202 C 1754.519531 1203.035156 1758 1206.726563 1760.292969 1205.65625 C 1764.832031 1203.445313 1752.871094 1190.539063 1755.699219 1187.503906 C 1757.308594 1185.777344 1766.703125 1190.59375 1769 1191 C 1757.558594 1168.582031 1734.410156 1154.78125 1722 1133 C 1736 1139.066406 1748.855469 1144.050781 1762 1152 C 1759.984375 1133.800781 1734.558594 1118 1724 1104 C 1737 1108.402344 1748 1116.199219 1760 1123 C 1754.570313 1108.652344 1741.632813 1095.203125 1730 1085.613281 C 1727.414063 1083.484375 1717.1875 1077.648438 1719 1073.402344 C 1721.863281 1067.367188 1734.832031 1068.527344 1740 1067 C 1736.617188 1064.191406 1727 1064.316406 1725.46875 1060.683594 C 1723.5 1056.335938 1728.226563 1048.128906 1729.65625 1044 C 1734.464844 1030.105469 1738.65625 1016.046875 1742.976563 1002 C 1758.925781 950.136719 1770.933594 897.160156 1781.550781 844 C 1810.453125 699.289063 1823.171875 550 1809.171875 403 C 1805.777344 367.386719 1801 332.085938 1793.660156 297 C 1790.167969 280.558594 1787.375 262 1779.199219 247 C 1766.433594 223.742188 1737 239.644531 1720 248.707031 C 1670.917969 275 1626.324219 312.332031 1585 349.164063 C 1462 458.710938 1360 585 1278.71875 728 C 1258.738281 763.148438 1241.621094 800 1225.671875 837 C 1221.933594 845.6875 1218.753906 854.589844 1214.375 863 C 1211.859375 867.832031 1207.988281 872.421875 1208 878 M 278 1068 C 281.964844 1068 298.945313 1068.035156 298.945313 1074.226563 C 298.945313 1079.339844 288.554688 1085.105469 285 1088 C 274.960938 1095.734375 261.664063 1109 257 1121 C 269.355469 1117.640625 280.304688 1107.65625 293 1104 C 281.640625 1120.144531 259 1132.726563 253 1152 C 267.273438 1147.753906 278 1136.160156 294 1134 C 281 1154.671875 258.949219 1169 248 1191 C 253 1189.550781 258 1188 263 1186 C 260.996094 1193 255.839844 1199.640625 256 1207 C 265.277344 1201 274.292969 1194.382813 284 1189 C 273.296875 1214.449219 244.929688 1231.046875 237 1258 C 252.605469 1254.332031 265.203125 1238.222656 280 1232 C 271.890625 1250 257.5 1267.308594 254 1287 C 258.410156 1285.761719 261.304688 1282.589844 265 1280 C 264.59375 1284.042969 258.195313 1295.789063 261 1299 C 262.789063 1301 267.726563 1300 270 1300 C 278.664063 1300 287.335938 1300 296 1300.003906 C 325.933594 1300.359375 352.460938 1310.238281 381 1317 L 381 1318 C 363.859375 1318.8125 346 1315.261719 329 1314.089844 C 274 1310.328125 204.707031 1304 155 1333 L 155 1334 C 179 1339.710938 206.480469 1335 231 1335 C 236.996094 1335 253.957031 1332.140625 257.972656 1337.5625 C 260 1340.3125 259 1345.761719 259 1349 C 263 1346.234375 263.972656 1339 269 1337.347656 C 273.21875 1336.101563 272.980469 1342.609375 273 1345 C 273 1349.71875 273.242188 1373.582031 279 1373.527344 C 287 1373.453125 296.257813 1369.03125 304 1367.234375 C 319 1363.722656 334.570313 1361.664063 350 1360.171875 C 399.394531 1355.390625 449 1360.671875 498 1367.730469 C 519.402344 1370.8125 543.652344 1371.570313 564 1379 C 561.628906 1372.011719 548.199219 1368.242188 542 1364.824219 C 522.667969 1354.171875 504.804688 1342 488 1327.578125 C 433.855469 1281.449219 400 1209.519531 404.910156 1138 C 405.863281 1124.074219 407.433594 1110.757813 409.917969 1097 C 411 1090.757813 411.703125 1083 416 1078 C 416 1163.238281 434 1242.539063 496 1305 C 510.828125 1320 528.257813 1333.007813 546 1344.304688 C 635 1401.074219 755.761719 1397.242188 838 1329.535156 C 861.917969 1310 881 1284.085938 895.691406 1257 C 909.664063 1231.164063 919.417969 1202.070313 923.699219 1173 C 937.648438 1078.332031 897.707031 976.332031 816 923.699219 C 787.765625 905.511719 755.417969 892.550781 722 888.285156 C 609.511719 874 499.1875 946.765625 470 1057 C 437.535156 1181 517.53125 1310.300781 641 1341.253906 C 659.953125 1346.007813 679.660156 1346.804688 699 1346.257813 C 730.589844 1345.367188 764 1340.257813 792 1324 C 778.464844 1341.644531 748.785156 1351.652344 728 1357 C 658.5625 1374.3125 581.660156 1350.222656 529 1302.828125 C 422.847656 1207.296875 417.8125 1036.4375 526 940 C 544.511719 923.304688 564.242188 910 587 900 C 615.933594 887.066406 647.351563 879.359375 679 878 C 675.5625 872.523438 664.976563 871.464844 659 870 C 638.289063 864.320313 616.28125 862.679688 595 861 L 595 860 C 621 858 645.53125 852.277344 672 854.089844 C 690 855.332031 708 862.078125 726 863 C 711.253906 843 682.984375 843.710938 665 830 C 691 823.265625 722 836.230469 744 849.613281 C 752.621094 855 761.195313 864.453125 771 867 C 766.515625 851.429688 753.484375 839.679688 749 824 C 762.5 833.671875 776.289063 843 787.90625 855 C 794.613281 862 800.503906 873.695313 809 878 C 806 867.601563 799.4375 858.09375 795.398438 848 C 780.324219 810.316406 762.644531 773.671875 743.308594 738 C 663.519531 590.816406 557 462 432 351.050781 C 390.335938 314.078125 344.621094 275.554688 295 249.746094 C 276.945313 240.355469 247 223.085938 235.335938 250 C 225.382813 272.8125 221.46875 298.605469 217.703125 323 C 212 359.390625 207.425781 395.28125 204.910156 432 C 196 561.527344 205.914063 694.511719 231 822 C 242.179688 878.816406 254.191406 935.191406 269.746094 991 C 274.519531 1008.136719 280 1025.332031 286.226563 1042 C 287.890625 1046.457031 293.765625 1056 291.648438 1060.6875 C 289.636719 1065.234375 281 1063.398438 278 1068 M 1194 638 C 1193.683594 635.597656 1194.28125 629.695313 1192 628.171875 C 1190 627 1186.265625 631 1185.167969 629 C 1182.910156 624.8125 1186.5 616.070313 1185 611 C 1178.515625 615.1875 1172 620 1166.519531 625.269531 C 1165.304688 626.414063 1162.488281 630.769531 1160.46875 629.796875 C 1155.699219 627.5 1155 612.503906 1155.257813 608 C 1155.304688 606.304688 1157 600.476563 1154.394531 600 C 1151.765625 599.371094 1147.882813 603.300781 1146 604.746094 C 1138.453125 610.53125 1132.351563 618.074219 1125 624 C 1125 618.71875 1127 598.234375 1122.179688 595.175781 C 1119.480469 593.488281 1115.941406 599.359375 1114.746094 601 C 1109.707031 608 1104.992188 615.605469 1103 624 C 1098.371094 617.765625 1097.910156 600.769531 1091.429688 597.085938 C 1088 595.140625 1084 600 1082 602.003906 C 1075.5 608.71875 1071 618.011719 1064 624 C 1064 617.214844 1064.902344 608.675781 1056 614 C 1057.242188 607.40625 1058.859375 600.722656 1059 594 C 1044.546875 598.25 1032.945313 610.246094 1022 620 C 1020.753906 615.433594 1018.960938 605.710938 1015 602.75 C 1012.871094 601.125 1010.503906 603.722656 1008.167969 603.484375 C 1006 603.261719 1004.46875 601 1002.234375 601.117188 C 997.464844 601.597656 992.445313 615 992 619 C 981.757813 608.757813 971.339844 598.132813 957 594 C 957 601 959.855469 607.101563 960 614 C 949.640625 607.070313 951 615 951 624 C 943.988281 617.574219 939.828125 608.40625 932.828125 601.71875 C 930.890625 600 927.546875 596 924.429688 596.75 C 919.257813 598.242188 915.871094 618.144531 914 623 L 913 623 C 910 614.53125 904.835938 607.089844 899.472656 600 C 898.199219 598.316406 895.371094 593.199219 892.589844 594.347656 C 890.300781 595.289063 891 600.105469 890.910156 602 C 890.414063 609.050781 890 616 890 623 C 880.988281 615.144531 871.578125 603 860 599 C 860.648438 607.214844 861.71875 615 859.621094 623 C 859 624.78125 858.347656 630 855.773438 630 C 853.574219 630 851.339844 626.398438 849.960938 625.039063 C 842.4375 617.613281 828.351563 605 831.738281 623 C 832.234375 625.65625 832.660156 628.324219 833 631 C 823.511719 626.035156 822.765625 628.429688 824 638 L 823 638 C 796.84375 575.492188 760.4375 520.75 715.714844 470 C 703.382813 456.007813 690.234375 443 676 431 C 672 427.519531 660.636719 420.699219 659.660156 431.003906 C 658.851563 439.566406 676.386719 453.777344 681.566406 460 C 703.171875 486 723.65625 513 742.332031 541 C 789.910156 612.71875 828.867188 690.5 853.71875 773 C 859.769531 793.082031 869.945313 814.3125 873 835 L 875 835 C 874.992188 824 874.363281 810.605469 871 800 C 875.941406 805.828125 877.855469 815.726563 880 823 C 883.992188 836.550781 888.390625 850 893.601563 863 C 896 869.167969 898 879.558594 904 883 C 903.636719 865.410156 898.8125 847.695313 898 830 C 896.402344 792.636719 900.78125 755.691406 907.386719 719 C 909.824219 705.445313 910 687.347656 916 675 C 920.1875 692 919.910156 710.617188 922.429688 728 C 929.257813 775.175781 938.921875 826.382813 956 871 L 957 871 C 957 819.359375 961.484375 767.355469 973 717 L 974 717 C 974.71875 737.691406 976 758.339844 976.960938 779 C 977.601563 793.621094 976.273438 811.039063 981 825 L 982 825 C 985.765625 795.199219 990.304688 765.472656 996.199219 736 C 998.925781 722.375 1005.296875 707.765625 1006 694 C 1013.238281 700.6875 1013.589844 717.613281 1015.765625 727 C 1022.820313 757.414063 1032.351563 791.753906 1033 823 L 1035 823 C 1035.289063 788.238281 1039.71875 754 1039 719 C 1046.808594 727.6875 1047.375 746 1049.460938 757 C 1056.4375 794.316406 1059 833.074219 1059 871 C 1062.9375 868.226563 1062.800781 862.414063 1064 858 C 1067 846.625 1070.644531 835.351563 1073.859375 824 C 1087 777.289063 1099.863281 724.761719 1100 676 C 1104 680.382813 1103.816406 687.285156 1104.753906 693 C 1106.773438 705.339844 1109.277344 717.609375 1111 730 C 1114.277344 753.597656 1118.402344 777.144531 1118.984375 801 C 1119.660156 828.523438 1115.4375 855.789063 1112 883 C 1118.171875 879 1120.3125 867.714844 1123 861 C 1130.761719 841.59375 1137.535156 822 1144 802 L 1145 802 C 1144.910156 812.703125 1143 823.226563 1143 834 C 1149.355469 823.597656 1151.574219 807.753906 1155 796 C 1162 771.804688 1169.84375 747.40625 1179.199219 724 C 1208.429688 651 1246 581.574219 1291.28125 517 C 1307 494.324219 1323.777344 472.410156 1341.527344 451.171875 C 1345.332031 446.613281 1360.230469 434.570313 1356.203125 428.1875 C 1351.457031 420.671875 1343.578125 427.542969 1339 431.261719 C 1326.265625 441.601563 1314.554688 453.707031 1303.714844 466 C 1271.40625 502.632813 1242.5625 541.175781 1218.859375 584 C 1209.269531 601.335938 1203.941406 621 1194 638 M 766 637 C 757.308594 631.253906 749 625.375 740 620.269531 C 738.492188 619.425781 731.835938 614.285156 730.371094 616.738281 C 728.910156 619.183594 733.21875 624.011719 734.300781 626 C 739 634.714844 743.617188 644.6875 747 654 C 736.214844 645.789063 723.523438 632.214844 710 629 C 711.726563 636.457031 715.554688 642.828125 718 650 C 707.363281 647.472656 699.761719 636.523438 690 632 C 693 641.453125 701.175781 649.761719 706.667969 658 C 720.308594 678.460938 735.308594 698.015625 748.1875 719 C 775.691406 763.800781 796.320313 811.136719 819.753906 858 C 827.800781 874.09375 836.96875 889.246094 847.28125 904 C 852 911 856 919 863 924 C 862.914063 892.488281 856.621094 859.808594 850.449219 829 C 838.671875 770.21875 823 713 796.347656 659 C 786.363281 639 776.570313 618.171875 761.867188 601 C 759.898438 598.695313 750 584.609375 746.777344 586.347656 C 744.378906 587.609375 750 597.140625 750.851563 599 C 755.652344 611.589844 762.878906 624 766 637 M 1154 924 C 1161.199219 919.710938 1165.878906 909.761719 1170.566406 903 C 1184.859375 882.382813 1196.320313 858.746094 1206.769531 836 C 1226.738281 792.53125 1248.777344 750.238281 1274.691406 710 C 1290.75 685.066406 1314.523438 660.28125 1326 633 C 1316.457031 637.253906 1308.585938 645.300781 1299 650 C 1301.261719 643 1306.433594 637.050781 1309 630 C 1293.605469 632.777344 1281.980469 646.449219 1269 654 C 1273.539063 645.816406 1276.238281 637.28125 1280.378906 629 C 1282.75 624.246094 1286.636719 620.539063 1286 615 C 1273.394531 621.632813 1261.839844 629.175781 1250 637 C 1254.890625 619.257813 1268.570313 602.792969 1272 585 C 1264.9375 587.023438 1259.621094 595.496094 1255 601 C 1240.78125 618.355469 1230 639 1220 659 C 1179.589844 739.8125 1158.882813 834.15625 1154 924 M 559 598 L 559 599 C 515.386719 602.417969 470.785156 597 427 597 C 435.964844 591.628906 451.777344 593.578125 462 593 C 493.871094 590.828125 527.519531 592.15625 559 598 M 1591 596 L 1591 597 C 1546.707031 600.496094 1501.503906 599 1457 599 C 1464.601563 594.445313 1478.199219 595.683594 1487 594.421875 C 1521 589.523438 1556.953125 591.695313 1591 596 M 646 659 L 646 660 C 600 660 553.804688 662 508 660 C 475.574219 658.539063 443.5625 656 411 656 C 415.6875 652.394531 423.269531 652.527344 429 651.566406 C 444.800781 649 460.96875 646.378906 477 646 C 532.722656 644.617188 592 640.734375 646 659 M 1606 655 L 1606 656 C 1572.445313 656 1539.421875 658.496094 1506 660 C 1462.515625 662 1418.527344 660 1375 660 C 1379.265625 656.640625 1385.769531 656.320313 1391 655.117188 C 1404.289063 652.0625 1417.46875 649.382813 1431 647.714844 C 1465.769531 643.433594 1500 643.523438 1535 646 C 1558.253906 647.503906 1583.566406 648 1606 655 M 674 748 C 647.328125 743.40625 620.601563 731.191406 594 725 C 540.644531 712.238281 483.777344 705 429 705 C 434.855469 701 445 701.277344 452 701 C 464.695313 700.382813 477.210938 698.0625 490 698 C 539.445313 697.761719 589.582031 699.101563 635 721.753906 C 646.773438 727.625 667 736.371094 674 748 M 1586 704 L 1586 705 C 1556.820313 708.449219 1527.222656 707.484375 1498 711.289063 C 1443.496094 718.390625 1392.75 734 1340 748 C 1350.210938 732 1378.773438 721.371094 1396 715 C 1455.269531 693 1524.40625 692.566406 1586 704 M 562 770 L 562 771 C 569.332031 771.582031 584.335938 773 587 781 C 563.800781 776.691406 538.570313 777.074219 515 774.828125 C 473.773438 771 426.488281 765.621094 386 777 C 391.769531 766.246094 417.824219 761 429 757.574219 C 472.746094 744.777344 523.277344 739.347656 568 750.476563 C 583.773438 754.398438 599.488281 760 614 767.246094 C 615.507813 768.007813 628 773.816406 625.824219 776.035156 C 623.808594 778.0625 611.804688 774.230469 609 773.664063 C 594.429688 770.730469 576.726563 766.492188 562 770 M 1626 777 C 1578 766.03125 1526.429688 772 1478 776.828125 C 1460.636719 778.566406 1442 777.824219 1425 781 C 1430.800781 774 1444 771.382813 1453 771 C 1440.78125 764.480469 1419.902344 771 1407 773.261719 C 1403.589844 774 1392.652344 778 1389.753906 775.804688 C 1386.296875 773.257813 1398.5625 768 1400 767.246094 C 1413.335938 760.628906 1427.679688 755.621094 1442 751.578125 C 1486.773438 739 1539.925781 744.585938 1584 757.722656 C 1594.617188 761 1604.898438 765.078125 1615 769.585938 C 1619 771.394531 1624.449219 772.574219 1626 777 M 581 805 L 581 806 C 572.734375 808.441406 563.527344 806.359375 555 807.171875 C 539.925781 808.605469 526.316406 812.332031 512 817 L 512 818 C 523 818.484375 534.292969 822.222656 545 825 L 545 826 C 525.886719 827 507.417969 831.8125 488 831 C 448 829.210938 406.804688 821.609375 367 829 C 377 818 403.789063 814 418 810.152344 C 452.6875 800.769531 487.980469 794 524 794 C 543.183594 794 563.828125 795.644531 581 805 M 1650 828 L 1650 830 C 1631.425781 828.152344 1613.921875 825.210938 1595 826.039063 C 1571.714844 827.058594 1548.296875 830.71875 1525 831 C 1506.417969 831.21875 1488.453125 827.792969 1470 827 C 1474.5 820 1494 818.34375 1502 818 C 1497.566406 813.792969 1489.863281 812.695313 1484 811.351563 C 1467.21875 807.5 1450 807 1433 807 C 1435.679688 802.007813 1441.808594 800.476563 1447 799 C 1460.300781 794.808594 1474.1875 794 1488 794 C 1520 794 1552.9375 798.164063 1584 806.746094 C 1606 812.824219 1627.847656 823.253906 1650 828 M 516 857 C 496 859.679688 474.820313 864 456 871.066406 C 448.820313 873.789063 441.875 881 434.960938 882.683594 C 423 885.722656 408.199219 882.503906 396 883.039063 C 381.800781 883.660156 363.804688 888.328125 350 886 C 357.792969 878.703125 370.304688 874.425781 380 870.140625 C 410 856.804688 442 850 475 850 C 485 850 509.585938 847.632813 516 857 M 1665 886 C 1657.480469 888 1647.839844 884.382813 1640 884.039063 C 1626.648438 883.453125 1613.390625 883 1600 883 C 1593.5625 883 1585.359375 884.359375 1579 882.6875 C 1575 881.605469 1571.800781 877.011719 1568 875.050781 C 1559.714844 870.773438 1549.980469 868.351563 1541 866 C 1531 863.417969 1521 861 1511 859.285156 C 1509 859 1501.207031 859 1501.207031 856 C 1501.207031 853.109375 1508 852.105469 1510 851.664063 C 1520.507813 849.3125 1531.308594 850 1542 850 C 1574.484375 850 1607.472656 857.761719 1637 871.230469 C 1646 875.371094 1657.550781 879.269531 1665 886 M 451 880 L 451 881 L 447 881 C 448.507813 880.316406 449.316406 880.175781 451 880 M 1572 881 L 1572 882 C 1568.230469 883.03125 1564.78125 883 1561 882 C 1564.597656 880.128906 1568 880.722656 1572 881 M 468 901 L 468 902 C 450.28125 904.289063 425.597656 907.28125 412 920 C 423.460938 919.507813 435.628906 915.640625 447 919 L 447 920 C 434.554688 926.101563 419.300781 927.636719 406 931.425781 C 395.226563 934.5 384.21875 940.476563 373 941.332031 C 366.488281 941.828125 360.417969 939.332031 354 939.039063 C 344.398438 938.601563 335.457031 940.59375 326 941 C 335 931.832031 349.386719 926 361 920.695313 C 393 906.234375 432.738281 894.429688 468 901 M 1687 940 L 1687 941 C 1681.558594 940.75 1676.5 938.738281 1671 939.089844 C 1660.886719 939.734375 1649 943 1639 941.175781 C 1614.808594 937 1591.605469 924.011719 1567 922 L 1567 920 C 1575.585938 919.320313 1583.441406 920 1592 920 C 1593.1875 920.015625 1598.679688 920.789063 1599.21875 919.324219 C 1600 917.066406 1589.546875 913.457031 1588 912.785156 C 1575.179688 907.234375 1560.84375 903.789063 1547 902 L 1547 900 C 1596.433594 896.097656 1645.582031 913.519531 1687 940 M 1162 906 C 1161.355469 910.304688 1159.640625 914 1158 918 L 1157 918 C 1157.421875 913.328125 1158.9375 909.5625 1162 906 M 857 910 L 856 911 L 857 910 M 425 955 C 421.214844 960.734375 410.265625 962.648438 404 965 C 385.21875 972 364.6875 982.652344 345 986 C 348.277344 980.011719 356.308594 976.226563 362 972.683594 C 381 960.789063 402.585938 955 425 955 M 1669 986 C 1649.390625 982.621094 1628.714844 971.605469 1610 964.679688 C 1607.929688 964 1590.957031 958.742188 1592.347656 956.417969 C 1594 953.578125 1608 956.765625 1611 957.078125 C 1626.605469 958.71875 1643 967 1656 975.34375 C 1660.617188 978.34375 1666 981.175781 1669 986 M 593 971.285156 C 600.699219 970.378906 609.558594 972.171875 617 974.15625 C 688.296875 993.164063 676 1100.363281 605 1108.828125 C 589.3125 1110.695313 573.953125 1108.742188 560 1100.824219 C 516.796875 1076.316406 514.628906 1015.242188 553 985.679688 C 564.769531 976.613281 578.496094 973 593 971.285156 M 1226 972.285156 C 1248 969.582031 1270.171875 976.007813 1285.710938 992.171875 C 1313.742188 1021.320313 1308.824219 1071.75 1277 1096 C 1266 1104.316406 1252.53125 1108.097656 1239 1109.714844 C 1231.242188 1110.644531 1222.484375 1109.519531 1215 1107.421875 C 1158 1091.457031 1147.859375 1014.351563 1197 982.699219 C 1205.816406 977.019531 1215.585938 973.566406 1226 972.285156 M 362 1024 C 357 1033 332.90625 1043.234375 323 1045 C 330.824219 1034.132813 348.695313 1025.160156 362 1024 M 1691 1045 C 1681.921875 1043 1660.324219 1033.324219 1656 1025 C 1666.988281 1026.09375 1685.839844 1035 1691 1045 M 519 1089.5625 C 535.59375 1087.363281 539.492188 1113.453125 523 1115.679688 C 506.550781 1118 502.347656 1091.773438 519 1089.5625 M 1162 1090.515625 C 1176.863281 1086.109375 1184.476563 1111.183594 1169 1115.261719 C 1153.78125 1119.273438 1146.589844 1095.085938 1162 1090.515625 M 794 1323 L 793 1324 L 794 1323 M 1225 1325 L 1224 1326 L 1225 1325 M 922 1542 C 929.265625 1532.710938 943.203125 1523.292969 945 1511 C 919.425781 1525.386719 901.289063 1551.804688 871 1559 L 871 1558 C 881 1552.804688 895.816406 1536.292969 898 1525 C 875.34375 1535.503906 858 1559.667969 833 1566 L 833 1565 C 840.910156 1561.144531 848 1550.183594 852.972656 1543 C 853.644531 1542.023438 859.324219 1534.402344 855.628906 1534.332031 C 849.464844 1534.214844 838.855469 1545.070313 834 1548.574219 C 817.378906 1560.570313 799.882813 1576 781 1584 C 794 1566.539063 814.324219 1552.003906 824 1532 C 799.21875 1540 778.199219 1565.328125 752 1570 C 762.601563 1555.257813 780.304688 1543.175781 794 1531.28125 C 799.292969 1526.683594 806.800781 1522.3125 810 1516 C 797.742188 1517.226563 784.222656 1525.179688 773 1530.140625 C 742.984375 1543.410156 711.621094 1562.351563 680 1571 C 680.609375 1568 679.835938 1564 681.644531 1561.183594 C 687.414063 1552.578125 704 1547 713 1542.082031 C 737.660156 1528.652344 762.4375 1515.484375 787 1502 C 795.511719 1497.140625 811 1492.714844 816 1484 C 773.511719 1487.382813 732.628906 1506.277344 690 1510 C 677.890625 1511 666.578125 1516.25 658.449219 1504.730469 C 657.261719 1503.046875 652.203125 1497.425781 653.996094 1495.3125 C 656 1492.753906 664.808594 1492.589844 668 1492.132813 C 680 1490.394531 692 1488 704 1486 C 737.652344 1480.238281 773.289063 1472.082031 805 1459.398438 C 815 1455.367188 830.835938 1451.355469 838 1443 C 818.269531 1444 798.511719 1449 779 1451.714844 C 748.699219 1456.011719 718 1458.742188 688 1463.4375 C 673 1465.757813 658 1467.667969 643 1469.167969 C 636.914063 1469.777344 629 1472.398438 623.171875 1470.488281 C 617 1468.554688 611.820313 1462.132813 606.960938 1458.207031 C 599.636719 1452.292969 591 1448.164063 584 1442 C 609.46875 1436 639.871094 1439.308594 666 1439 C 691.757813 1438.691406 717.3125 1435.285156 743 1434.039063 C 757.382813 1433.339844 771.847656 1431.007813 786 1428.464844 C 790.800781 1427.597656 797 1428.464844 800 1424 C 779.285156 1424 758.585938 1420.136719 738 1418.171875 C 694.296875 1414 650.632813 1411.285156 607 1405.714844 C 541.21875 1397.316406 475.414063 1383 409 1383 C 376.183594 1383 343.445313 1382.609375 311 1388 C 303.664063 1389.121094 296.363281 1390.558594 289 1391.574219 C 286.40625 1392 281.832031 1391.414063 280 1393.742188 C 276.765625 1398.003906 283 1404.015625 281.453125 1408.472656 C 279.199219 1414.496094 262.460938 1418.355469 257 1421.308594 C 237.527344 1432 217.898438 1444.503906 202 1460.015625 C 195.71875 1466.144531 179.277344 1477.257813 189.289063 1486.417969 C 193.910156 1490.644531 211.484375 1477.015625 216 1474.425781 C 234 1464.015625 252.800781 1454 272 1445.574219 C 280.429688 1442 288.679688 1437 298 1436 C 296.691406 1441.492188 295.5 1448.546875 297 1454 C 306.691406 1447.199219 313.820313 1442.105469 325 1438 C 319.871094 1458.53125 294 1470.816406 279 1484.425781 C 255 1506.113281 235.355469 1533.339844 222.566406 1563 C 216.652344 1576.71875 211.699219 1593 211 1608 C 210.863281 1612.011719 213.382813 1625.398438 210.355469 1628 C 207 1630.808594 197 1629 193 1629 C 178 1629 161.730469 1627.066406 147 1629.210938 C 137.214844 1630.632813 129.773438 1640.570313 135.277344 1650 C 142 1661.648438 165.539063 1657 177 1657 L 257 1657 C 268.21875 1657 283.183594 1654.382813 293.984375 1657.433594 C 300.429688 1659.253906 301.289063 1667.523438 302.976563 1673 C 307.605469 1688.054688 312 1702.800781 321 1716 L 322 1716 C 320.859375 1709.277344 318.546875 1703 318 1696 C 326 1704 330.421875 1720.277344 342 1724 C 340.953125 1718 337.816406 1712.335938 338 1706 C 349.371094 1725.277344 364.28125 1744.78125 386 1753 C 383.367188 1742 373.449219 1733.757813 371 1722 C 389.945313 1735 403.824219 1753.113281 425 1763 C 423.488281 1756.414063 418.625 1752 415.542969 1746 C 412.640625 1740.5 411.578125 1734 410 1728 C 420 1739.691406 431.996094 1760.15625 449 1762 C 445.796875 1753.539063 438.363281 1746.433594 438 1737 C 443.816406 1743.519531 458.175781 1760 467.171875 1761.046875 C 476.984375 1762.207031 490.921875 1748.414063 498 1743 C 497 1751.488281 490.914063 1757.3125 488 1765 C 507.847656 1761.585938 519 1744.6875 536 1736 C 533.769531 1746.363281 525.253906 1752.550781 522 1762 C 544.632813 1751.234375 559.273438 1733 580 1720 C 574.289063 1729.300781 566.949219 1738.410156 562 1748 C 577.714844 1743 594.621094 1721.78125 601 1707 C 603.761719 1714 599.824219 1720.316406 598 1727 C 608.671875 1718.816406 612.53125 1704.691406 618 1693 C 618.960938 1698 618 1703 618 1708 L 619 1708 C 623.210938 1700.601563 626.480469 1692.214844 628.71875 1684 C 629.496094 1681.136719 629.960938 1674.667969 632.6875 1673 C 636.515625 1670.46875 639.402344 1680.78125 639.878906 1683 C 640.378906 1685.308594 640.703125 1687.660156 641 1690 L 642 1690 C 645.351563 1683.335938 647.953125 1675.320313 649.484375 1668 C 650 1665 649.582031 1660.121094 652.515625 1658.027344 C 655 1656.144531 659.953125 1657 663 1657 L 1356 1657 C 1359 1657 1364.777344 1656 1367.398438 1658.027344 C 1369.789063 1660 1368.921875 1664.351563 1369 1667 C 1369.359375 1674.226563 1371.808594 1681 1373 1688 L 1375 1688 C 1375 1685.363281 1377.527344 1665.542969 1382.457031 1669.636719 C 1386.246094 1672.78125 1386.816406 1680.535156 1387.882813 1685 C 1389.78125 1693 1393.226563 1699.828125 1397 1707 L 1398 1707 L 1397 1690 C 1405.78125 1699.085938 1404 1716.328125 1416 1724 C 1415.316406 1717.128906 1413 1711.058594 1413 1704 C 1426.773438 1720.636719 1437 1737.203125 1456 1749 L 1457 1748 C 1449.484375 1736.589844 1441.90625 1726.417969 1436 1714 C 1454.214844 1732.214844 1471.886719 1751.609375 1496 1762 C 1491 1752.507813 1484.222656 1745.09375 1480 1735 C 1495 1745.609375 1507.324219 1760.34375 1526 1765 C 1524.925781 1756.421875 1518.265625 1749.460938 1516 1741 C 1524.367188 1747 1533.367188 1759.488281 1544 1761.382813 C 1548 1762.113281 1551.792969 1758.484375 1555 1756.433594 C 1563.546875 1751 1571.65625 1745.027344 1579 1738 C 1576.792969 1747.53125 1569.46875 1754.121094 1567 1763 C 1581.765625 1758.746094 1600.457031 1742.414063 1606 1728 L 1607 1728 C 1605 1742.460938 1595.59375 1750.429688 1590 1763 C 1612 1755 1627.480469 1736.726563 1646 1723 C 1642.285156 1734 1633.554688 1742.535156 1630 1753 C 1650.433594 1744.492188 1669.4375 1727.214844 1679 1707 L 1680 1707 C 1679.679688 1713.265625 1676.617188 1718.796875 1676 1725 C 1684 1719.058594 1692 1708.183594 1696 1699 L 1697 1699 C 1696.847656 1706.382813 1693.332031 1712.007813 1692 1719 C 1708.761719 1709.300781 1707.640625 1682.070313 1719 1668 C 1719.914063 1671.828125 1719.519531 1675.742188 1723 1678 C 1723.804688 1672.550781 1726 1661.304688 1731.226563 1658.316406 C 1738.660156 1654 1754.546875 1657 1763 1657 L 1842 1657 C 1854 1657 1880.839844 1662.21875 1883.296875 1645 C 1884.332031 1637.742188 1878.765625 1631.332031 1872 1629.558594 C 1857 1625.660156 1837.355469 1629 1822 1629 C 1818 1629 1807.679688 1630.832031 1804.890625 1627.398438 C 1801.78125 1623.570313 1805.273438 1613 1804.570313 1608 C 1802 1591.144531 1798.382813 1574.671875 1791.515625 1559 C 1778.816406 1530.023438 1759 1504.5625 1736 1483.089844 C 1720.738281 1469 1699.839844 1460.535156 1698 1438 C 1703.816406 1441.101563 1708.917969 1443.652344 1714 1448 C 1715.328125 1449.109375 1718 1452.03125 1719.972656 1450.246094 C 1722.410156 1448 1721.199219 1439.363281 1722 1436 C 1747.589844 1451 1776 1461.71875 1802 1476.578125 C 1810.371094 1481.378906 1822.742188 1493.71875 1829.332031 1481.425781 C 1831.339844 1477.679688 1827.21875 1474.003906 1824.882813 1471.4375 C 1817.996094 1464 1810 1457 1802 1450.652344 C 1789.496094 1441 1776.882813 1431.8125 1763 1424.175781 C 1755 1419.820313 1745.570313 1416.785156 1738 1411.773438 C 1731.515625 1407.300781 1739.96875 1400 1735.972656 1394.5625 C 1731.644531 1388.6875 1709 1388.308594 1702 1387.300781 C 1617.617188 1375.277344 1533.527344 1388.03125 1450 1399.28125 C 1412.171875 1404.378906 1374.191406 1412.273438 1336 1414 C 1306.277344 1415.273438 1276.695313 1420.648438 1247 1422 C 1239.945313 1422.273438 1233 1424 1226 1424 C 1224.558594 1424.015625 1219.511719 1423.328125 1218.921875 1425.289063 C 1218 1428 1228.613281 1428.101563 1230 1428.289063 C 1243 1430.042969 1255.921875 1432.542969 1269 1433.828125 C 1322.777344 1439.121094 1377.96875 1442 1432 1442 C 1425.847656 1449.183594 1415.378906 1453.164063 1408 1459.261719 C 1403.28125 1463.179688 1398.277344 1469.453125 1392 1470.722656 C 1378.695313 1473.402344 1360.519531 1466.527344 1347 1465.171875 C 1308.324219 1461.289063 1269.476563 1456.664063 1231 1450.726563 C 1216.929688 1448.554688 1194.714844 1440.535156 1181 1444 L 1181 1445 C 1221.542969 1468.664063 1271.238281 1479.230469 1317 1487.25 C 1328.359375 1489.242188 1339.691406 1491.34375 1351 1493.601563 C 1353.304688 1494.058594 1361.519531 1494.175781 1361.699219 1497.316406 C 1361.84375 1500 1359 1503.039063 1357.710938 1505 C 1349.472656 1516.253906 1336 1511.683594 1324 1509.535156 C 1299.558594 1505.21875 1275.203125 1501 1251 1495.117188 C 1235.886719 1491.53125 1219.578125 1485.128906 1204 1485 C 1208.40625 1493.03125 1222.277344 1497.59375 1230 1502.199219 C 1253.902344 1516.464844 1278.777344 1529 1303 1542.574219 C 1310.960938 1547.0625 1328.402344 1552.195313 1333 1560.183594 C 1334.804688 1563.058594 1334.394531 1567.722656 1335 1571 C 1290.839844 1559 1251 1530.601563 1208 1515 C 1210 1522.519531 1218.402344 1528.113281 1224 1533.171875 C 1236.929688 1545 1253.832031 1557 1264 1571 C 1255.894531 1569 1248.332031 1563.503906 1241 1559.539063 C 1225 1551 1209.714844 1541.75 1194 1533 L 1193 1534 C 1204 1549.820313 1218.457031 1574 1236 1583 L 1236 1584 C 1206.65625 1574 1186.617188 1544 1158 1533 C 1159.59375 1545 1172 1556.527344 1180 1565 C 1156.417969 1555.183594 1139.507813 1534.3125 1117 1524 C 1121.925781 1537.085938 1132 1546.632813 1141 1557 C 1123 1552.054688 1104.964844 1538.632813 1091 1526.726563 C 1084.464844 1521.15625 1078.550781 1513 1071 1509 C 1075.597656 1521.65625 1084.628906 1531.628906 1094 1541 C 1081.214844 1537.503906 1067.445313 1531.535156 1056 1525 C 1047.570313 1520 1039.292969 1514.222656 1032.753906 1507 C 1029 1502.78125 1025.964844 1498.171875 1023.925781 1493 C 1008 1452.78125 1050.886719 1426.347656 1078 1406.703125 C 1093 1395.828125 1105.289063 1377 1093.613281 1359 C 1086.261719 1347.695313 1073.253906 1343 1061 1339 C 1029.3125 1328.464844 990.957031 1329.175781 959 1337.71875 C 942.390625 1342.15625 924.433594 1349 918.902344 1367 C 913.371094 1385.046875 928.574219 1400.007813 942 1409 C 972 1429.203125 1019.585938 1467.117188 984.824219 1506 C 978.3125 1513.285156 970.398438 1519.074219 962 1524 C 949.433594 1531.339844 935.4375 1536.488281 922 1542 M 625 1623 C 626 1597.359375 626.386719 1566.15625 609 1545 C 613.269531 1574.042969 614.796875 1599.246094 606.292969 1628 C 603.757813 1636.574219 600.230469 1651.328125 592 1656 C 592.585938 1648.570313 594 1641.507813 594 1634 C 590.375 1637.449219 589.503906 1642.59375 587.214844 1647 C 581.34375 1658.308594 573.703125 1669.28125 561 1673 C 562.414063 1662.503906 566.179688 1652.683594 566.910156 1642 C 567.652344 1631.164063 565 1621.554688 564 1611 C 559.722656 1615.140625 559.597656 1622.359375 558.230469 1628 C 555.746094 1638.257813 552.476563 1648.429688 548 1658 L 547 1658 C 547.222656 1631 554 1596.554688 536 1573 C 535.484375 1583 537.601563 1593 536.910156 1603 C 535.671875 1621.074219 531 1639.113281 524.609375 1656 C 521.230469 1665 517.496094 1675.789063 510 1682 C 510.558594 1669.039063 510.777344 1659.382813 506 1647 L 505 1647 C 501.457031 1659.25 496.34375 1683 484 1689 C 484 1651.34375 479.234375 1607.53125 466.214844 1572 C 461.917969 1560.277344 456 1543 446 1535 C 462.460938 1570.355469 457.210938 1618.804688 440.394531 1653 C 435.820313 1662.304688 424.898438 1684.542969 412 1683.304688 C 406.632813 1682.785156 403 1676.210938 400.78125 1672 C 394.875 1661 388.652344 1647.742188 388 1635 L 386 1635 C 386 1649.734375 389.378906 1663.519531 390 1678 C 372.941406 1669.335938 368.945313 1636.734375 365.511719 1620 C 364.859375 1616.816406 363.929688 1597.453125 361.253906 1596.769531 C 359.1875 1596.242188 358.917969 1601 358.695313 1602.003906 C 357.472656 1608 356.714844 1614 355.871094 1620 C 355.167969 1625.042969 355 1630 355 1635 C 355 1643.417969 355.640625 1651.632813 356 1660 C 348.289063 1656.242188 343.332031 1646.507813 339.78125 1639 C 329.34375 1617 327.882813 1588.03125 330.171875 1564 C 330.953125 1555.765625 331.253906 1547.113281 332.804688 1539 C 333.199219 1537 335.757813 1531 334.496094 1529.058594 C 333 1527.082031 327.789063 1535.125 327 1536 C 320.601563 1545.015625 315.367188 1554.671875 311.199219 1565 C 305 1580.378906 301.421875 1595.5625 299.828125 1612 C 299.601563 1614.371094 299.875 1626.792969 296.785156 1626.792969 C 293.949219 1626.792969 292.3125 1622.058594 291.429688 1620 C 288.355469 1613 287.636719 1605 284 1598 C 282 1606.292969 285 1616 282.566406 1624 C 280.203125 1631.140625 271.921875 1624.390625 269.597656 1621 C 266.839844 1617 265.515625 1612.472656 262 1609 C 262.621094 1614 263.554688 1635.550781 253.5 1624 C 245.878906 1615 247.414063 1599.550781 249.25 1589 C 254.960938 1556.183594 277.941406 1529.5 301 1507.015625 C 365.363281 1444.246094 486.925781 1422.1875 565 1471.371094 C 602.507813 1495 636.773438 1534.09375 637 1581 C 637 1593.363281 637.609375 1616 625 1623 M 1754 1607 L 1753 1607 C 1750.886719 1613.25 1748.1875 1620.378906 1742.90625 1624.683594 C 1740.503906 1626.640625 1735.410156 1628.347656 1733.601563 1624.683594 C 1730 1617.554688 1733.886719 1606 1732 1598 C 1728.730469 1605.386719 1727.511719 1613.523438 1724.449219 1621 C 1723.613281 1623.042969 1721.511719 1627.652344 1718.589844 1627.078125 C 1715.398438 1626.453125 1717 1610.828125 1716.710938 1608 C 1714.246094 1589.035156 1709 1571 1699.855469 1554 C 1696 1547.03125 1692 1540.320313 1687.230469 1534.003906 C 1686.632813 1533.226563 1682.945313 1527.445313 1681.515625 1528.753906 C 1680.375 1529.789063 1682.53125 1535.664063 1682.800781 1537 C 1684.390625 1545 1685.605469 1554 1685.960938 1562 C 1687 1587.285156 1686.445313 1614.570313 1675.90625 1638 C 1672.21875 1646.191406 1667.335938 1656.777344 1659 1661 C 1661.820313 1645.8125 1660.605469 1628.21875 1658.421875 1613 C 1657.574219 1607.101563 1657.503906 1600.285156 1653 1596 C 1652.835938 1615.660156 1647.8125 1639 1640 1657 C 1637.265625 1663.742188 1633.789063 1672.53125 1627 1676 C 1627 1664 1633.371094 1647.226563 1628 1636 C 1624.882813 1648.011719 1621 1660 1615.21875 1671 C 1612.890625 1675.382813 1609.386719 1681.523438 1604 1682.460938 C 1598.40625 1683.433594 1593.179688 1677.652344 1589.871094 1674 C 1580.371094 1663.371094 1574 1650.339844 1569.503906 1637 C 1560.554688 1611.128906 1558 1583 1563.3125 1556 C 1564.695313 1548.757813 1568.308594 1542.144531 1570 1535 C 1543.578125 1565.539063 1538.304688 1611.347656 1534 1650 C 1532.890625 1662 1534.339844 1676.699219 1531 1688 L 1530 1688 C 1524.78125 1679.472656 1519.863281 1670.511719 1516.683594 1661 C 1515.84375 1658.492188 1515 1650.449219 1512.53125 1649.207031 C 1509.820313 1648 1508.226563 1654.484375 1507.828125 1656 C 1505.480469 1665 1506.84375 1672.042969 1508 1681 C 1498.46875 1676.351563 1493.503906 1662.511719 1490.332031 1653 C 1481.464844 1626.402344 1481 1601.523438 1481 1574 C 1475.71875 1578.609375 1474 1586.441406 1472 1593 C 1466.277344 1613.722656 1468.996094 1635 1469 1656 L 1467 1656 C 1465.425781 1648.457031 1461.546875 1641.496094 1459.578125 1634 C 1457.402344 1625.699219 1457 1617.277344 1455 1609 L 1454 1609 C 1449.488281 1625 1447.476563 1639.703125 1451.472656 1656 C 1452 1658.664063 1456.644531 1669.734375 1453.382813 1671.34375 C 1449.40625 1673.304688 1443.433594 1667.433594 1441 1665 C 1432.433594 1656 1429.890625 1642.773438 1422 1634 C 1422 1642.15625 1423.507813 1650 1425 1658 C 1415.746094 1653.269531 1412.769531 1638.273438 1410 1629 C 1402 1600.746094 1398.777344 1573.347656 1408 1545 C 1402.464844 1548.140625 1400 1556.316406 1397.8125 1562 C 1389.207031 1583 1393.378906 1602.769531 1390 1624 C 1378 1613.8125 1378.402344 1593.175781 1378.960938 1579 C 1380.886719 1530.085938 1419.1875 1487.355469 1461 1466 C 1544.9375 1423 1646.582031 1450.199219 1716 1507.464844 C 1739.703125 1527.015625 1760.535156 1557.667969 1766.601563 1588 C 1768.78125 1599 1770.539063 1615.808594 1762 1624.6875 C 1751.746094 1635.511719 1754 1611.441406 1754 1607 M 164 1505 C 166.179688 1503.464844 168 1502 170 1500 C 171.332031 1498.683594 172.707031 1497.390625 173.941406 1496 C 176.699219 1493 178 1486.117188 172.296875 1490.617188 C 168 1494 164.703125 1499.710938 164 1505 M 1852 1505 C 1851.363281 1502.289063 1842 1484.390625 1838.175781 1489.085938 C 1835.300781 1492.535156 1849.261719 1503.71875 1852 1505 M 1115 1592 L 1115 1593 C 1097 1592.628906 1080.355469 1585 1063 1582 C 1073.601563 1594 1089 1599.082031 1101 1609 C 1081.703125 1611.433594 1060 1594.457031 1043 1588 C 1048.65625 1596 1058.839844 1600.089844 1063 1609 C 1051.335938 1607 1038.859375 1609.140625 1027 1609 C 1001.339844 1608.660156 975.648438 1608.003906 950 1608 L 950 1607 C 957.921875 1601.132813 967.367188 1595.257813 974 1588 C 953.632813 1595 935.5 1604.828125 914 1609 C 924.375 1596.476563 944.597656 1594.289063 955 1581 C 938.320313 1585.734375 918.347656 1592 901 1592 C 907.570313 1585.359375 918.796875 1582.128906 927 1577.691406 C 944.882813 1568.019531 962.628906 1557.636719 981 1549 C 988.8125 1545.214844 999.964844 1536.722656 1009 1537.78125 C 1020.671875 1539.152344 1032.796875 1547.390625 1043 1552.746094 C 1067.261719 1565.46875 1090.214844 1580.210938 1115 1592 M 1142 1557 L 1141 1558 L 1142 1557 M 1181 1565.332031 C 1181.773438 1565.332031 1181 1565.832031 1180.667969 1565.667969 L 1181 1565.332031 M 1062 1581 L 1063 1582 L 1062 1581 "/></g></svg>