<svg xmlns="http://www.w3.org/2000/svg" xmlns:xlink="http://www.w3.org/1999/xlink" viewBox="0 0 100 100" version="1.1"><g transform="translate(1, 3.359527673031117) scale(0.06133310516917531) translate(-195.757813, -243.628906)"><path style=" stroke:none;fill-rule:nonzero;fill:rgb(0%,0%,0%);fill-opacity:1;" d="M 496 856 C 479.816406 872.171875 459.929688 884.316406 441 897 C 438.457031 898.703125 422.8125 907.734375 425.753906 911.1875 C 430.90625 917.238281 452.5625 916.796875 460 917.015625 C 461.988281 917.070313 471.554688 917 472.273438 919.0625 C 472.957031 921.109375 469.644531 925.230469 468.78125 927 C 465.621094 933.472656 463 940.175781 460.835938 947 C 453.800781 968 449.570313 992.828125 451 1015 C 451.402344 1019.5625 451.414063 1039.621094 456.511719 1041.183594 C 460.398438 1042.375 479.382813 1028.609375 480.511719 1034.203125 C 482.632813 1044.71875 478 1058.625 476.25 1069 C 475.777344 1071.695313 472.960938 1079 475 1081.1875 C 476.613281 1083 480.230469 1081.070313 482 1080.679688 C 488.402344 1079.253906 495.445313 1078.25 502 1078.011719 C 530.339844 1077 558.527344 1075.316406 587 1076.015625 C 670.949219 1078.070313 760.90625 1097.339844 834 1140 C 821.851563 1140.535156 807.808594 1134.390625 796 1131.476563 C 771.183594 1125.351563 746 1120.183594 721 1115.003906 C 623 1094.730469 521.777344 1076.609375 424 1107.027344 C 390.335938 1117.496094 357.296875 1134.175781 329 1155.15625 C 321.210938 1161 300.535156 1175.03125 309.703125 1186.785156 C 313.511719 1191.667969 319.953125 1191.386719 324.984375 1188.761719 C 336.242188 1183 346 1173 357 1166.054688 C 387.300781 1147 423.644531 1133 459 1126.75 C 470.3125 1124.765625 485.960938 1120.074219 496.996094 1125 C 503.921875 1128 504.65625 1135.421875 505.753906 1142 C 508 1155.621094 507.886719 1172.507813 514 1185 C 538.535156 1170 567 1161.730469 595 1155.117188 C 657.492188 1140.28125 722.511719 1140 786 1147.714844 C 808 1150.445313 830.496094 1154.292969 852 1160.421875 C 859.191406 1162.472656 869.308594 1163 875 1168 C 832.355469 1168 789.695313 1164.171875 747 1166.039063 C 701.648438 1168.023438 656.8125 1172.746094 612 1180.144531 C 590.835938 1183.640625 569 1189.675781 549 1197.054688 C 546.449219 1198 528.421875 1204.195313 531.753906 1208 C 536.183594 1212.78125 548.894531 1215.441406 555 1218.140625 C 564 1222.179688 578.199219 1233.554688 588 1233.757813 C 594.980469 1234 603.6875 1227.386719 610 1224.652344 C 625.585938 1218 641.726563 1212.058594 658 1207.203125 C 706.1875 1192.820313 756 1188.40625 806 1189 C 827.390625 1189.25 851 1188.023438 872 1193 C 855.835938 1200.78125 830.800781 1200.546875 813 1203.296875 C 768 1210.230469 722.816406 1216.117188 679 1228.710938 C 663.523438 1233.15625 647.691406 1238.070313 633 1244.695313 C 629.269531 1246.375 620.933594 1248.648438 618.921875 1252.492188 C 616.839844 1256.464844 629.3125 1265.222656 631.960938 1267.5625 C 646.6875 1280.558594 659.523438 1297 669 1314 C 697.859375 1365.152344 706 1425.605469 684 1481 C 675.992188 1501.082031 660.59375 1526.820313 640 1536 C 644.660156 1522.105469 651.480469 1509.359375 655.265625 1495 C 667.222656 1449.644531 669 1399.019531 650.773438 1355 C 613.886719 1266.222656 505.972656 1219.257813 414 1236.460938 C 369.242188 1244.832031 330 1266.113281 297 1297.164063 C 213.613281 1375.46875 195.757813 1515.765625 280 1600 C 297.828125 1617.828125 320.355469 1632.175781 345 1638.523438 C 398.421875 1652.273438 446.714844 1632.773438 496 1614.0625 C 525.820313 1602.742188 555.800781 1592.285156 586 1582 C 600.972656 1577 616.289063 1568.710938 632 1566.429688 C 676.867188 1560 725.675781 1565 771 1565 L 1174 1565 C 1177.710938 1565 1183.289063 1566.308594 1186.773438 1565.089844 C 1189.992188 1564 1190 1559.820313 1190.609375 1557 C 1192 1549 1194 1541 1196.4375 1533 C 1204.433594 1506.285156 1219.261719 1481.121094 1237.273438 1460 C 1258.902344 1434.632813 1285.734375 1415.167969 1316 1401.308594 C 1325.917969 1396.769531 1336.507813 1393.230469 1347 1390.292969 C 1349.386719 1389.625 1356.546875 1389.183594 1357.652344 1386.605469 C 1358.824219 1384 1351.652344 1378.617188 1350 1377.039063 C 1340.585938 1368.046875 1330.1875 1360.074219 1320 1352 C 1280.796875 1321 1227.203125 1288.074219 1176 1284 C 1192.546875 1303.511719 1217.980469 1315.675781 1233 1337 C 1178.859375 1311.347656 1119.6875 1288 1070 1254.328125 C 1045.339844 1237.625 1028.835938 1211.214844 1042.308594 1182 C 1049.359375 1166.710938 1061.890625 1150.289063 1077 1142.363281 C 1097.824219 1131.441406 1124.203125 1130.261719 1132.425781 1104 C 1142 1073.398438 1135 1039.527344 1139.289063 1008 C 1144.769531 967.304688 1173.621094 926 1209 905.71875 C 1219.386719 899.777344 1231.917969 893.210938 1244 892 C 1227.886719 905.699219 1213.710938 916.648438 1205.402344 937 C 1191.554688 971 1196.191406 1013.453125 1223.171875 1039.714844 C 1265.59375 1081.011719 1340 1066.511719 1366.191406 1014 C 1373.171875 1000 1375 984.4375 1375 969 C 1375 952.46875 1370.980469 937.40625 1363 923 L 1362 923 C 1363.769531 933 1367.539063 940.726563 1363.894531 951 C 1356 973 1327.257813 980.3125 1310 964.816406 C 1287.988281 945.023438 1298 907.296875 1328 902.324219 C 1340.191406 900.296875 1353.300781 907.089844 1361.828125 915.289063 C 1372.351563 925.402344 1381.367188 937.097656 1388.21875 950 C 1393.230469 959.4375 1397 969.449219 1398.914063 980 C 1409.945313 1042.808594 1345.960938 1076.617188 1292 1079 C 1256.558594 1080.5 1219.953125 1065.332031 1192 1044.523438 C 1181 1036.390625 1171.699219 1022.25 1160 1016 C 1165.78125 1088.628906 1239.550781 1124.25 1301 1141.710938 C 1315 1145.695313 1329.5625 1151 1344 1153 L 1344 1154 C 1307.398438 1158.625 1270.617188 1158.292969 1234 1164.433594 C 1211.875 1168.148438 1190.867188 1178.769531 1169 1182 L 1169 1184 C 1261.929688 1184 1352.597656 1181.574219 1442 1212.003906 C 1473.734375 1222.804688 1506.738281 1236.089844 1535 1254.34375 C 1543.710938 1260 1552.585938 1265.214844 1561 1271.296875 C 1563.363281 1273.003906 1567.484375 1277.601563 1570.683594 1277.078125 C 1574 1276.511719 1574.605469 1265 1575 1262 C 1576.96875 1247.828125 1578.726563 1231.335938 1588.328125 1220.015625 C 1593.972656 1213.359375 1603.414063 1208.761719 1612 1207.324219 C 1615.777344 1206.695313 1625.472656 1209 1627.929688 1205.398438 C 1630.214844 1202.144531 1625.835938 1195.117188 1624.601563 1192 C 1621.507813 1184.171875 1619 1173.339844 1621.652344 1165 C 1624.226563 1157 1632 1158 1639 1158.003906 C 1641.375 1158.027344 1646 1159.171875 1647.398438 1156.59375 C 1651.269531 1149.433594 1646.230469 1130.015625 1645.285156 1122 C 1641.976563 1094 1640.191406 1066 1635 1038 C 1651.433594 1047.359375 1666.175781 1058 1686 1058 C 1674.449219 1038 1658.28125 1021.054688 1647.753906 1000 C 1645.855469 996.210938 1637.679688 983.6875 1640 979.601563 C 1641.738281 977 1646.636719 978.265625 1649 978.574219 C 1656.859375 979.605469 1665 979.210938 1673 978.285156 C 1674.800781 978.074219 1682.792969 979 1682.792969 976 C 1682.792969 973.027344 1676.90625 969.683594 1675 968 C 1667.914063 961.320313 1661.664063 954.273438 1656.613281 946 C 1640.992188 920.390625 1631 890.265625 1633 860 C 1636 817.617188 1653.875 775.28125 1663.347656 734 C 1683.945313 644.253906 1694.925781 552 1686.171875 460 C 1682.429688 420.738281 1677 378.378906 1658.21875 343 C 1637.71875 304.410156 1595.757813 308.832031 1559 315.738281 C 1477.8125 331 1396.527344 382.234375 1337 438 C 1318 455.617188 1298.574219 473.429688 1281.574219 493 C 1278.785156 496.214844 1267 512.367188 1262.304688 510.65625 C 1259.375 509.601563 1259.90625 504.378906 1260 502 C 1260.753906 493.5625 1265.761719 486.269531 1267 478 C 1254.800781 481.328125 1242.671875 486.152344 1231 491.011719 C 1228.6875 492 1221.289063 497.121094 1219 495.121094 C 1217 493.421875 1218.457031 489.105469 1218.714844 487 C 1219.726563 478.738281 1223.566406 472 1225 464 C 1214.722656 471.027344 1205.632813 481.171875 1194 486 L 1201 462 C 1188.636719 466 1176.925781 473 1165 478.078125 C 1163 479 1154.902344 483.386719 1153.417969 480.351563 C 1151 475.75 1161.699219 467.265625 1164 464 C 1140.175781 457 1104.886719 465.554688 1082 473 C 1084.527344 466.0625 1089.527344 461.269531 1093 455 C 1057 455 1029 469 996 480 C 999 469.007813 1004.871094 457.277344 1006 446 C 999.523438 449.746094 994.914063 457.761719 991 464 C 988.644531 454.21875 986.816406 443.003906 988 433 C 975 439.480469 966.40625 458.390625 958.667969 470 C 957.28125 472.078125 951.925781 483 949 482.367188 C 946.183594 481.734375 943.941406 474.386719 942.753906 472 C 938.25 463 933.890625 445.289063 925 440 C 926.777344 454.054688 928 467.8125 928 482 C 908.867188 465.019531 895 439.640625 878.5625 420 C 847.515625 383.011719 813.277344 349.140625 775 319.652344 C 739.640625 292.40625 700.539063 269.039063 658 255 C 639 248.734375 615 243.628906 596 252.042969 C 584 257.28125 576 268.371094 569.320313 279 C 554.441406 302.488281 545.851563 329.726563 537.328125 356 C 502 465 505.464844 588.773438 518.714844 701 C 522.785156 735.480469 521.46875 774.480469 500.960938 804 C 492.726563 816 481.9375 825.535156 470 833.492188 C 467.65625 835.054688 457.207031 839.636719 457.207031 842.703125 C 457.207031 845.066406 464.289063 846.546875 466 847.191406 C 475.789063 851 485.863281 853.496094 496 856 M 1599 362 C 1595.480469 368.1875 1584.320313 371.316406 1578 374.296875 C 1560.402344 382.605469 1542.902344 391.347656 1526 401 C 1489.96875 421.582031 1455 443.355469 1423.285156 470.15625 C 1406.738281 484.089844 1392.558594 502.632813 1375 515 C 1376.234375 508.589844 1380.582031 503.515625 1383.855469 498 C 1391.734375 484.730469 1400.757813 472.054688 1410.398438 460 C 1455.984375 403.019531 1524.753906 362.007813 1599 362 M 820 540 C 809.492188 534.335938 803 518.769531 795 510 C 798.785156 524.164063 801.878906 538.246094 802 553 C 787.914063 541.640625 776.96875 527.542969 762 516.746094 C 739.484375 500.503906 714.964844 492.066406 690 481 L 690 480 C 716 479.464844 735 482.058594 757 497 C 747.65625 480.234375 733 466.332031 718.574219 454.015625 C 712.199219 448.589844 701.316406 444.0625 697 437 C 715.957031 437.105469 736.261719 442.390625 752 453 C 739.941406 434.769531 719 421.257813 701 409.695313 C 693.777344 405.097656 680.6875 401.15625 676 394 C 691.398438 394.128906 709.40625 396.554688 722 406 C 713.808594 394.371094 700.332031 385.160156 689 376.730469 C 683.667969 372.765625 675.460938 368.664063 672 363 C 693.722656 366.207031 716.246094 381.816406 733 395.199219 C 777.171875 430.480469 815.410156 482 820 540 M 1585 471 L 1585 472 C 1561.609375 487.488281 1533 504.25 1516 527 C 1542 521.410156 1566.90625 508.363281 1594 506 C 1587 515.007813 1574.949219 520.523438 1566 527.425781 C 1543.878906 544.488281 1521.273438 561 1500 579 C 1537 577.667969 1573.882813 556.789063 1611 556 C 1607.359375 562.816406 1599 567.746094 1593 572.425781 C 1575.683594 586 1556 596.207031 1537 607 C 1530.96875 610.226563 1525 613.730469 1519 617.140625 C 1517.882813 617.773438 1513 619.652344 1514.207031 621.609375 C 1515.703125 624.339844 1528.9375 624.730469 1532 625 C 1541.703125 626 1551.28125 628.132813 1561 629 C 1566.953125 629.394531 1574.8125 629 1580 632 C 1549 642.488281 1516 641 1484 641 C 1477.351563 641 1456.703125 644.34375 1452.316406 638.410156 C 1448.820313 633.683594 1452.25 620.421875 1453.261719 615 C 1458.816406 585.242188 1480.363281 568.394531 1502 550 C 1480.644531 553 1459.410156 561.007813 1439 567.671875 C 1432 570 1425.28125 574 1418 575 C 1421.390625 562 1434.796875 549.378906 1443.960938 540.015625 C 1470.734375 512.65625 1503.785156 493 1540 480.667969 C 1552 476.578125 1572.238281 468.269531 1585 471 M 732 851 C 727.832031 857 721.988281 861.324219 717.519531 867 C 707.671875 879.496094 702.644531 893.488281 700 909 C 691.191406 962.796875 738.542969 1009 792 999.535156 C 838.453125 991.386719 870.484375 951.382813 871.546875 905 C 871.894531 889.597656 867.660156 873 859.300781 860 C 855 853.386719 848.28125 848.035156 845 841 C 857.621094 843.40625 870.914063 854.34375 879.984375 863 C 907.847656 889.488281 933.230469 943.601563 907.484375 980 C 898.847656 992.214844 884.707031 999.40625 871 1004.480469 C 843.347656 1014.710938 811.273438 1019.21875 782 1015.714844 C 746.167969 1011.425781 709.339844 993.4375 692.371094 960 C 676.40625 928.53125 686.183594 892 710.273438 867.578125 C 716.609375 861.160156 723 853.636719 732 851 M 822 853.300781 C 861.273438 847.515625 873.757813 909 833 915.675781 C 793 922.324219 781.90625 859.207031 822 853.300781 M 1100 1082 C 1079.527344 1082 1059 1089.722656 1039 1088.625 C 1029 1088.078125 1019.835938 1082.71875 1011 1078.550781 C 1005.945313 1076.164063 996 1074.453125 993 1070 C 1018.511719 1065.050781 1043.445313 1065.492188 1069 1070 C 1078.65625 1071.59375 1093.335938 1074.363281 1100 1082 M 1170 1216 C 1194.5625 1223.261719 1221.878906 1225.277344 1247 1232 C 1290 1243.230469 1332.238281 1260.257813 1371 1282.425781 C 1396.230469 1297 1421.65625 1313.25 1443 1333.089844 C 1450 1339.652344 1457.25 1346.101563 1463.984375 1353 C 1466.410156 1355.484375 1469.355469 1360.417969 1473 1361.007813 C 1478.707031 1362 1488.246094 1355.105469 1493 1352.425781 C 1509.273438 1343.25 1525.222656 1333.722656 1539 1321 C 1543 1317.148438 1553.382813 1309.78125 1554 1304.015625 C 1554.839844 1297.71875 1540.476563 1291.019531 1536 1288.433594 C 1515.277344 1276.476563 1494 1266.109375 1472 1256.71875 C 1400.917969 1226.386719 1323.761719 1213 1247 1211 C 1228.324219 1210.527344 1209.667969 1210 1191 1212 C 1184.460938 1212.535156 1175.527344 1212.199219 1170 1216 M 871 1219 L 871 1220 C 834.882813 1243.820313 789.847656 1253.792969 750 1269.601563 C 736.574219 1275 723 1280.28125 710 1286.308594 C 702.839844 1289.597656 695.855469 1294.773438 688 1296 C 721.71875 1260 776.527344 1241.316406 823 1229.371094 C 838.390625 1225.414063 855 1220.292969 871 1219 M 1176 1246 C 1179.597656 1252 1192.671875 1254 1199 1256.71875 C 1218.945313 1265.324219 1238.59375 1274.480469 1258 1284.246094 C 1290.476563 1300.589844 1320.273438 1321.035156 1348 1344.4375 C 1355.492188 1350.761719 1363.1875 1357.550781 1369.570313 1365 C 1373 1369.085938 1377 1376.355469 1382.285156 1378.382813 C 1387.5 1380.421875 1398.476563 1377 1404 1376.078125 C 1417.753906 1373.828125 1432 1373 1446 1373 C 1442.273438 1365.011719 1433.601563 1358.28125 1427 1352.574219 C 1414.253906 1341.566406 1401 1331.671875 1387 1322.332031 C 1326.382813 1282 1249.664063 1249.160156 1176 1246 M 1011 1265.285156 C 1025.332031 1263.523438 1041.796875 1266.65625 1053 1276.214844 C 1066.691406 1288 1061.535156 1302.164063 1044 1304.699219 C 1027.773438 1307.042969 1009.808594 1303.066406 996 1294.273438 C 993.542969 1292.710938 991.175781 1291 989 1288.828125 C 974.167969 1274.214844 999 1266.75 1011 1265.285156 M 1590 1315 C 1608.226563 1347.738281 1633.65625 1377.21875 1654.976563 1408 C 1660.859375 1416.492188 1670.839844 1437 1683.957031 1428.773438 C 1698.808594 1419.625 1683.21875 1398.261719 1676.570313 1389 C 1660 1366 1638.5625 1345.476563 1615 1329.671875 C 1607.566406 1324.683594 1598.742188 1317.054688 1590 1315 M 472 1323.300781 C 501.9375 1319 515.234375 1361 514.996094 1384 C 514.859375 1397.164063 508 1411.195313 494 1413.671875 C 462.613281 1419.171875 451.730469 1375.109375 452 1352 C 452 1339.371094 458 1325.359375 472 1323.300781 M 578 1372.304688 C 616.40625 1366.3125 630.957031 1449.476563 592 1455.558594 C 561.824219 1460.273438 555.253906 1416 558.753906 1395 C 560.496094 1384.5625 566.691406 1374.066406 578 1372.304688 M 329 1390.378906 C 354 1388.796875 374.570313 1422.273438 377.699219 1444 C 379.910156 1459.332031 371.597656 1474.601563 355 1475.621094 C 330.246094 1477.140625 310.71875 1443.175781 308.183594 1422 C 306.460938 1407.617188 312.265625 1391.433594 329 1390.378906 M 1429 1411.425781 C 1361.421875 1420.296875 1292 1434.679688 1251.285156 1496 C 1205 1565.339844 1229 1656.585938 1290 1708.699219 C 1333.449219 1746 1395 1764.519531 1452 1757.714844 C 1527.253906 1748.714844 1594.601563 1711.804688 1639.425781 1650 C 1658.183594 1624.136719 1673.679688 1592.726563 1672.871094 1560 C 1670.480469 1463.09375 1557.191406 1415.601563 1474 1412 C 1459.246094 1411.316406 1443.757813 1409.488281 1429 1411.425781 M 454 1442.289063 C 481.90625 1438.664063 510.601563 1453.082031 536 1462.574219 C 549 1467.445313 562.644531 1470.644531 573.960938 1479.15625 C 590.175781 1491.347656 599.96875 1513.488281 587.628906 1532 C 569.8125 1558.507813 540.984375 1541.289063 518 1535.15625 C 502 1531 485.308594 1533 471 1541.230469 C 443.179688 1557.253906 444.402344 1601.617188 408 1604.824219 C 379.757813 1607.316406 365.582031 1579.574219 371.597656 1555 C 374.5625 1543 380.464844 1531.574219 384.9375 1520 C 398.4375 1485.097656 411.828125 1447.765625 454 1442.289063 M 293 1498.328125 C 314.714844 1494.445313 336.792969 1518.527344 343.300781 1537 C 347.675781 1549.414063 343.773438 1566.027344 329 1568.671875 C 306.910156 1572.621094 285.632813 1550.132813 279.207031 1531 C 274.9375 1518.289063 277 1501.164063 293 1498.328125 M 1340 1588 C 1340 1615.285156 1340.78125 1640.824219 1353.371094 1666 C 1358 1675.433594 1363.757813 1684.605469 1370 1693 C 1373.722656 1697.734375 1379.21875 1702.285156 1381 1708 C 1371.558594 1706.167969 1361.355469 1704 1353 1699 C 1326 1683 1321 1651.398438 1325.921875 1623 C 1327.804688 1612 1331.597656 1596 1340 1588 M 532 1619 C 544 1624.085938 564.847656 1620 578 1620 L 1183 1620 C 1192.378906 1620 1201.675781 1621 1211 1621 C 1213.859375 1621.011719 1219.5 1622 1219.667969 1618 C 1219.785156 1615 1218.265625 1611.695313 1217.308594 1609 C 1216 1605.496094 1214.722656 1599.246094 1211.5 1597.027344 C 1205.5625 1593 1189 1596 1182 1596 L 740 1596 C 669.410156 1596 598.464844 1590.398438 532 1619 M 1688.183594 1597.027344 C 1683.199219 1600 1679.769531 1608.402344 1676.441406 1613 C 1675.453125 1614.367188 1672.390625 1618 1674.660156 1619.398438 C 1679.734375 1622.804688 1694.90625 1620 1701 1620 C 1723.5 1620 1745.753906 1619 1768 1615.246094 C 1773.828125 1614.292969 1786.683594 1614 1791.246094 1610.121094 C 1793.589844 1608.183594 1787.992188 1607 1786.996094 1606.628906 C 1780.300781 1604.753906 1773.847656 1602.671875 1767 1601.390625 C 1747.753906 1597.78125 1728.582031 1596 1709 1596 C 1703.246094 1596 1693.300781 1594.105469 1688.183594 1597.027344 M 200 1609 L 200 1610 C 222 1618.300781 250.507813 1620.804688 274 1621 C 269 1614.394531 255.898438 1601.046875 248 1598.691406 C 244.195313 1597.558594 238.816406 1599.585938 235 1600.25 C 223 1602.320313 211.425781 1605.101563 200 1609 M 1421 1726 C 1426.273438 1717.121094 1435.6875 1710.671875 1441.652344 1702 C 1459 1676.714844 1471.621094 1638.675781 1463 1608 C 1473.304688 1613.269531 1479.265625 1633.316406 1481.449219 1644 C 1489.582031 1683.773438 1463.257813 1722.285156 1421 1726 M 1515 1696 C 1518.777344 1684.609375 1527.351563 1674.597656 1531.5625 1663 C 1537.925781 1645.492188 1537.375 1628.152344 1537 1610 C 1543.5 1613.6875 1546 1624.15625 1547.988281 1631 C 1555.640625 1658.597656 1543 1686.402344 1515 1696 "/></g></svg>