<svg xmlns="http://www.w3.org/2000/svg" xmlns:xlink="http://www.w3.org/1999/xlink" viewBox="0 0 100 100" version="1.1"><g transform="translate(1, 2.679655476838164) scale(0.05880229694708381) translate(-167.265625, -206.058594)"><path style=" stroke:none;fill-rule:nonzero;fill:rgb(0%,0%,0%);fill-opacity:1;" d="M 552 825 L 551 825 C 545.910156 812.742188 535.78125 801.0625 527.273438 791 C 509.667969 770.171875 490 751.386719 471 732 C 461.527344 722.414063 451 705.761719 439 700 C 444.433594 715 450.949219 728.285156 454.5 744 C 466.621094 797.640625 466.199219 852.652344 481.425781 906 C 491.191406 940.207031 505.628906 973 522.859375 1004 C 534 1024.210938 549.996094 1044.34375 555.625 1067 C 559.933594 1084.347656 557.300781 1104.34375 556 1122 C 554 1152.027344 550.679688 1182.113281 541.652344 1211 C 537.304688 1225 529.648438 1237.398438 525 1251 C 531 1248.15625 535 1242.386719 541 1239 C 534.628906 1262.347656 523.597656 1286.015625 509.972656 1306 C 503.429688 1315.59375 493.632813 1324.167969 488 1334 C 498.289063 1331 507 1323.253906 517 1319 C 506.652344 1338.503906 488.46875 1351.300781 476 1369 C 484.3125 1367.347656 490.730469 1360.382813 499 1358 C 487.910156 1382.519531 468.703125 1403.105469 448 1420 C 440 1426.320313 425.796875 1432.085938 420 1440 C 433.792969 1439.675781 450.582031 1432.78125 463 1427 C 452.683594 1442.59375 435.300781 1453.1875 420 1463.332031 C 414.582031 1467 407.351563 1469.234375 403 1474 C 413.890625 1472.617188 425.613281 1469.542969 436 1466 C 426 1487.480469 400.222656 1495.089844 387 1513 C 394.476563 1512.390625 401.78125 1510 409 1508 C 400.289063 1526.707031 376 1539.664063 360 1551.253906 C 354.992188 1555 347.375 1557.828125 344 1563 C 353 1562.8125 361.917969 1559.414063 371 1559 C 362 1567.527344 350 1578.574219 338 1582.199219 C 327.363281 1585.390625 313 1583 302 1583 L 184 1583 C 180.824219 1583 171.476563 1581.398438 169.601563 1584.601563 C 168.457031 1586.566406 169 1589.828125 169 1592 C 169 1594.578125 168 1600 170 1602 C 173.824219 1605.769531 190.738281 1603 196 1603 L 647 1603 C 659 1603 674.304688 1600.507813 686 1603.558594 C 696 1606.191406 705.421875 1615.339844 714 1621 C 731.277344 1632.390625 749.652344 1644.492188 769 1652 L 769 1653 L 197 1653 C 191.578125 1653 173.925781 1650.128906 170 1654.027344 C 168.300781 1655.757813 169 1659.804688 169 1662 L 169 1711 C 169 1713.617188 168.25 1718.109375 170.601563 1720 C 173.699219 1722.421875 181.269531 1721 185 1721 L 856 1721 C 871 1721 888 1718.75 903 1721.261719 C 916.734375 1723.578125 930.394531 1730.222656 944 1733.625 C 955 1736.414063 968.527344 1736.582031 979 1741 C 959 1745.734375 934.441406 1742 914 1742 L 181 1742 C 177.8125 1742 171.339844 1740.789063 169.601563 1744.316406 C 167.835938 1748 167.265625 1766.386719 170.601563 1769 C 175.667969 1772.691406 187.222656 1769.15625 193 1769.015625 C 213 1768.523438 233 1770 253 1770 L 551 1770 C 876.722656 1770 1202.300781 1769 1528 1770 C 1605 1770.246094 1681.902344 1770 1759 1770 C 1777.320313 1770 1795.753906 1768.566406 1814 1769.015625 C 1817.648438 1769.105469 1829.492188 1772.519531 1831 1767.683594 C 1832.417969 1763.773438 1833.867188 1745.777344 1830.398438 1743.027344 C 1825.710938 1739.316406 1810.847656 1742 1805 1742 L 1072 1742 L 1072 1741 C 1084.839844 1737.390625 1098 1736.140625 1111 1732.441406 C 1122.640625 1729.097656 1135 1722.636719 1147 1721.183594 C 1167 1718.75 1188.773438 1721 1209 1721 L 1816 1721 C 1819.652344 1721 1825.324219 1722.046875 1828.683594 1720.398438 C 1832.636719 1718.449219 1831 1709.605469 1831 1706 L 1831 1667 C 1831 1664.195313 1832.710938 1656.144531 1830.882813 1654.027344 C 1829 1652 1822.5625 1653 1820 1653 L 1729 1653 C 1721.421875 1653 1710 1651 1703 1653.742188 C 1698.488281 1655.558594 1694.542969 1661.0625 1690.910156 1664.324219 C 1683 1671.324219 1675.277344 1677.691406 1666 1682.691406 C 1601.304688 1717.554688 1512.828125 1699.101563 1458 1654.609375 C 1437.296875 1637.8125 1415.554688 1612.230469 1408 1586 L 1409 1586 C 1417.6875 1603.019531 1435.242188 1616 1450 1627.425781 C 1499.457031 1665.796875 1570.292969 1685.683594 1632 1669.417969 C 1652.734375 1664 1672.515625 1654.566406 1686.699219 1638 C 1717.375 1602.171875 1711 1544.703125 1685.972656 1508 C 1658.84375 1468.304688 1611.347656 1445.339844 1565 1437.566406 C 1479.570313 1423.234375 1379.695313 1440.78125 1313 1499.285156 C 1294.730469 1515.3125 1280.785156 1535.238281 1270.257813 1557 C 1266.769531 1564.210938 1265.5625 1573 1261.582031 1580 C 1258.996094 1584.304688 1252.363281 1583 1248 1583 C 1232.988281 1583 1204.6875 1576.527344 1211.355469 1600.683594 C 1212.386719 1604.414063 1220 1603 1223 1603 L 1261 1603 C 1271.277344 1603 1284 1601 1294 1603.789063 C 1312.578125 1609.0625 1330.292969 1624.222656 1347 1633.71875 C 1357.65625 1639.777344 1373.304688 1644.558594 1382 1653 L 1249 1653 C 1230.367188 1653 1206 1648.796875 1188 1653.316406 C 1177.882813 1656 1168.566406 1671 1160 1677.140625 C 1142.703125 1689.5625 1123.371094 1696.765625 1103 1702.574219 C 1014.378906 1727.832031 904.980469 1697.71875 851.28125 1621 C 840.796875 1606.019531 829.265625 1587 825 1569 L 826 1569 C 835.316406 1590 854.800781 1607.722656 872 1622.078125 C 926.183594 1667.308594 1003 1689.519531 1073 1681.15625 C 1120.449219 1675.476563 1167.886719 1655.003906 1185.304688 1607 C 1199.835938 1567 1184.511719 1517.378906 1154 1489.089844 C 1135.980469 1472.386719 1111.445313 1461.027344 1088 1454.296875 C 1004 1430.183594 906.570313 1437.605469 826 1471.011719 C 802.472656 1480.765625 781.667969 1494 760 1507 C 770.554688 1492 786.40625 1479.589844 801 1468.628906 C 855.195313 1428 928.988281 1411.5 996 1416.089844 C 1017.660156 1417.574219 1038.808594 1421.601563 1060 1426.210938 C 1067.738281 1428 1077.300781 1434 1085 1433 C 1068.835938 1417.515625 1049.222656 1405.550781 1032.960938 1390 C 999.199219 1357.421875 973.328125 1321.746094 949 1282 C 965.199219 1293.652344 978.632813 1313.800781 993 1328 C 1003.867188 1338.734375 1015.429688 1349.019531 1027 1359 C 1080.769531 1405.386719 1159.695313 1465.632813 1233 1427.214844 C 1249.660156 1418.484375 1261.210938 1403.671875 1270.9375 1388 C 1276 1379.714844 1280.777344 1368.828125 1288.183594 1362.304688 C 1296 1355.386719 1309.988281 1354.457031 1319 1348.226563 C 1343 1331.570313 1354.765625 1298.429688 1355 1270 C 1341.386719 1277.269531 1333.640625 1289.761719 1317 1292.828125 C 1290.394531 1297.734375 1270.265625 1282.753906 1259.308594 1259 C 1246.691406 1231.640625 1247 1198.488281 1247 1169 C 1247 1094.453125 1259.226563 1023.324219 1287.453125 954 C 1305.660156 909.28125 1330.476563 867.496094 1349 823 L 1350 823 C 1343.789063 859.644531 1325.242188 895.820313 1313.515625 931 C 1290.730469 999.363281 1272 1065.277344 1272 1138 L 1273 1138 C 1289 1071.542969 1302.558594 1004.621094 1331.308594 942 C 1340.460938 922.066406 1352.445313 903.101563 1364.746094 885 C 1369.953125 877.332031 1379.347656 868.777344 1382.257813 860 C 1383.898438 855.046875 1381 847 1379.878906 842 C 1376.648438 827.691406 1372.351563 813.667969 1366.996094 800 C 1365 795.300781 1357.347656 783.109375 1362.320313 779.003906 C 1369.363281 773.195313 1388.183594 774.558594 1392.582031 783.042969 C 1400.441406 798.210938 1397 822.460938 1397 839 C 1402.457031 835.394531 1404.710938 825.679688 1407.859375 820 C 1417.582031 802.476563 1428.410156 785.027344 1434.972656 766 C 1436.808594 760.671875 1436.773438 743.0625 1440.601563 740.027344 C 1444.292969 737.105469 1454.488281 739 1459 739 C 1478.46875 739.007813 1497.871094 742.398438 1517 745.75 C 1577 756.28125 1632.84375 780.042969 1686 809.304688 C 1701 817.652344 1715.699219 827.609375 1730 837.34375 C 1736.425781 841.71875 1742.632813 848.445313 1750 851 C 1739.46875 829 1714.621094 809 1696 793.738281 C 1626.8125 737.554688 1537.75 715 1450 715 L 1450 713 C 1474 712.5 1498.980469 704.238281 1523 701.285156 C 1560.808594 696.644531 1601 697.550781 1639 701.171875 C 1676 704.710938 1713 712.457031 1749 722.425781 C 1766.546875 727.304688 1786 738.210938 1804 740 L 1804 739 C 1730.183594 690.15625 1635 666.183594 1547 670.039063 C 1513.972656 671.484375 1482.535156 679.617188 1450 684 C 1468.96875 664.769531 1502 653.25 1527 644 C 1589 620.707031 1651.914063 605.460938 1718 599.171875 C 1741.855469 597 1766 597 1790 597 C 1797.734375 597 1811.351563 601.136719 1818 597 C 1793.722656 586.6875 1762.882813 586.292969 1737 583.828125 C 1653.984375 576 1571 591.371094 1495 625.09375 C 1480.242188 631.628906 1467 640.46875 1453 648 C 1476.230469 625.25 1506.308594 608.101563 1534 591.398438 C 1590.835938 557.113281 1649.945313 529.128906 1711 503.332031 C 1730.777344 495 1751.625 488.726563 1772 482 C 1780.546875 479.179688 1791.390625 477.78125 1799 473 C 1790.40625 470.636719 1777.851563 474.355469 1769 475.574219 C 1745.402344 478.824219 1722 483.328125 1699 489.269531 C 1599.28125 515 1502.371094 562.675781 1429 636 C 1454.371094 584.714844 1495.511719 539.734375 1537 501.089844 C 1549 490 1561.753906 478.492188 1575 468.628906 C 1581.898438 463.496094 1592.539063 458.480469 1597 451 C 1534.824219 472 1477.351563 517.761719 1437.574219 569 C 1425.355469 584.742188 1405.496094 608 1401.746094 628 C 1400.925781 632.394531 1404.4375 637.21875 1406.21875 641 C 1409.722656 648.425781 1412.453125 656.25 1415 664 C 1423.199219 687.257813 1423.539063 712.382813 1416.988281 736 C 1414.84375 743.734375 1412 754.488281 1406 760 C 1405 739.410156 1378 735.480469 1369.890625 718 C 1357.308594 691.347656 1359 652 1359 623 C 1363.628906 627.226563 1367.175781 632.785156 1371.253906 637.570313 C 1372.296875 638.796875 1374.570313 642.5625 1376.582031 642.078125 C 1379.304688 641.425781 1378.917969 629.34375 1379 627 C 1380.183594 612.089844 1381.53125 591.722656 1366 583.414063 C 1344.410156 572 1305.664063 581.429688 1285 591.328125 C 1276.3125 595.488281 1267.703125 612 1257 609.386719 C 1239.988281 605.308594 1254.589844 588.257813 1262 583.589844 C 1282 571 1306 562 1330 562 C 1322.503906 551.773438 1298.605469 548.386719 1287 544.484375 C 1271.691406 539.335938 1261.859375 529.128906 1253 516 C 1280.355469 520.707031 1311.5 532.109375 1336 545 C 1335.816406 537.109375 1327 528 1322.246094 522 C 1307.566406 504.351563 1291.253906 488.78125 1273 475 C 1267.6875 471 1250.453125 463.722656 1248.585938 457.382813 C 1247.769531 454.613281 1250.851563 451.203125 1252 449 C 1256.78125 441.058594 1261.953125 433.488281 1267.289063 426 C 1282 405.128906 1299.234375 385.570313 1318 368.089844 C 1326.78125 360 1338.476563 353.242188 1346 344 C 1335.867188 345.804688 1325.941406 353.019531 1317 358 C 1278.308594 379.125 1251 413.617188 1229 451 C 1226.761719 437 1235.230469 418 1240.398438 405 C 1256.605469 364.488281 1281.746094 332.472656 1306 297 C 1295.199219 300 1283.964844 312.421875 1276 320.039063 C 1249.304688 345.5625 1231.871094 376.183594 1218 410 L 1217 410 C 1220.285156 368.695313 1233 328.253906 1248.449219 290 C 1253.457031 277.480469 1261.976563 265.71875 1266 253 C 1252.511719 260.730469 1240 282 1231.949219 295 C 1209.207031 331.3125 1191.996094 375.332031 1196.171875 419 C 1197.265625 430.449219 1202.652344 440.050781 1205 451 C 1158.609375 425.695313 1105.453125 418.804688 1054 412.714844 C 1041.480469 411.230469 1028.605469 412 1016 412 C 1013.320313 412 1004.820313 410.625 1003.40625 413.601563 C 1001 418.542969 1011.585938 434.214844 1013.769531 439 C 1021 455 1027.875 471.144531 1035.386719 487 C 1039.4375 495.554688 1045.375 504 1048 513 C 1021.59375 494.015625 1005.710938 468 987 442 C 969.269531 417.140625 948.914063 393.253906 926.171875 372.804688 C 918.382813 365.804688 911.175781 355 902 350 C 906.265625 364.503906 918.230469 380.167969 926.320313 393 C 938.773438 412.761719 951.324219 432.53125 965.664063 451 C 978.800781 468 994.214844 484.179688 1006 502 C 995.320313 496.535156 983.3125 492.433594 974 484.675781 C 953.425781 467.535156 940.582031 442.316406 923.5625 422 C 900.445313 394.40625 873.921875 368.742188 845 347.269531 C 832.59375 338.054688 815.933594 322.066406 801 318 C 810.660156 334 826.609375 347.785156 838.726563 362 C 866.671875 394.769531 895 427.355469 924.183594 459.039063 C 933.820313 469.503906 946.757813 478.503906 955 490 C 931.953125 480.417969 910.6875 468.449219 890 454.480469 C 882.886719 449.679688 871.742188 437.144531 863 436.515625 C 859.230469 436.246094 855.398438 439.179688 852 440.46875 C 842.542969 444.046875 833.34375 448.078125 824 452 C 799.332031 462.132813 775 465.328125 750 454.574219 C 716.777344 440.355469 688.75 407.703125 662 384.15625 C 615.382813 343.113281 567.746094 304.25 517 268.425781 C 485.917969 246.480469 450.539063 225.605469 414 214.414063 C 398.242188 209.585938 379 206.058594 365 217 C 352.5625 226.539063 346.417969 245.285156 342.628906 260 C 333.582031 295.140625 332.570313 330.074219 332.996094 366 C 334.183594 465.699219 367.4375 568 425.425781 649 C 459.902344 697.246094 505.902344 737.609375 534.308594 790 C 540.40625 801.242188 548.433594 812.625 552 825 M 1124 402 C 1113.621094 358.191406 1104.300781 313.664063 1093 270 L 1092 270 C 1088.6875 284 1090.597656 301.484375 1089.960938 316 C 1088.894531 340.339844 1086 364.597656 1086 389 C 1080 378 1082 361.285156 1082 349 L 1082 266 C 1082 255.019531 1084 228 1073.609375 220.660156 C 1069.722656 218 1066.257813 223.21875 1064.441406 226 C 1058.894531 234.488281 1054.773438 244 1050.246094 253 C 1035.21875 283.058594 1020.707031 313.453125 1004.691406 343 C 1000.207031 351.273438 986.484375 368.628906 987.636719 378 C 989.671875 394.542969 1003.355469 392 1016 392 C 1037 392 1057.902344 391.660156 1079 394.285156 C 1093.917969 396.140625 1109 401.347656 1124 402 M 1168 620 C 1136.785156 614.046875 1117.746094 586.460938 1102 562 C 1097.679688 555.191406 1091.6875 549.144531 1088 542 C 1095.804688 544.492188 1102.257813 550.71875 1109 555.222656 C 1131.671875 570.375 1158 594 1168 620 M 1124 613 C 1058 581.65625 980.910156 573.425781 909 582.285156 C 890.746094 584.535156 872.726563 588.292969 855 593.152344 C 846 595.574219 837 600.085938 828 601 C 841 586.703125 865.273438 577.496094 883 570.398438 C 939.757813 547.675781 999.332031 542.722656 1057 565.601563 C 1075.292969 573 1094.417969 581.207031 1110.996094 592 C 1117.53125 596.097656 1124.664063 604.832031 1124 613 M 1019 910 C 1026.460938 894 1045.394531 879.324219 1058 867 C 1095 830.640625 1137.960938 801.21875 1178 768.386719 C 1192.453125 756.535156 1206.429688 744.03125 1220.285156 731.484375 C 1227.703125 724.769531 1235 716.585938 1244 712 L 1244 711 C 1227.425781 712.355469 1209 715.828125 1193 720 C 1196.609375 712.261719 1204.644531 707.148438 1211 701.726563 C 1226.195313 688.773438 1243 676 1262 669 L 1262 668 C 1243 668.816406 1224 672 1205 672 C 1207 667.464844 1210.5 663.558594 1214 660.039063 C 1240 634.132813 1272.34375 656 1302 647.058594 C 1322.539063 641 1304.769531 619.746094 1294 614 C 1310.960938 607 1325 624.382813 1330.386719 638 C 1341 665.703125 1343.375 700.003906 1321.574219 722.828125 C 1302.628906 742.667969 1274.367188 752.152344 1250 763.308594 C 1213.171875 780.171875 1176.734375 797.488281 1142 818.449219 C 1115.265625 834.585938 1089 852.082031 1065 872.078125 C 1051 883.664063 1035.277344 902.421875 1019 910 M 1177 674 L 1177 676 C 1128.269531 676 1079.613281 673.539063 1031 678.171875 C 984 682.628906 938.246094 695 895 713.425781 C 866 725.738281 837 740.28125 811 757.742188 C 795.59375 768.039063 779 785.421875 762 792 C 773.835938 771.523438 795.214844 752.183594 813 737 C 836.351563 716.765625 862.566406 698.597656 891 686.425781 C 950.976563 660.757813 1020.722656 657.6875 1085 662.089844 C 1115.925781 664.207031 1146.222656 671.566406 1177 674 M 1091 705 L 1091 706 C 1073 714.34375 1053.976563 720.054688 1036 728.308594 C 995.300781 747 956 769.460938 921 797.449219 C 896.433594 817.070313 874.699219 839.3125 853 862 C 844.183594 871.277344 836.878906 885.167969 826 892 C 832.910156 870.164063 850.636719 847.402344 863.988281 829 C 911 764.050781 971.527344 723.324219 1051 710.5625 C 1063.996094 708.472656 1077.84375 705.269531 1091 705 M 1150 713 L 1150 714 C 1109.382813 735.371094 1072.21875 766.625 1040 799 C 1026.746094 812.320313 1015.972656 832 1001 843 C 1004.53125 829 1014.246094 813.792969 1022.574219 802 C 1044.226563 771.34375 1071.308594 746.601563 1105 729.753906 C 1118.371094 723.066406 1134.789063 713.695313 1150 713 M 1269.890625 780.449219 C 1275.726563 780.523438 1275.539063 793.765625 1276 798 C 1278.746094 816.8125 1281 836.011719 1281 855 C 1281 857.769531 1282.523438 876.792969 1278.894531 876.792969 C 1276.511719 876.792969 1274.363281 871.652344 1273.320313 870 C 1268.554688 862.460938 1264 854.742188 1259.710938 847 C 1253.605469 836.3125 1247.886719 825.425781 1241.320313 815 C 1239 811.378906 1233.5 805.476563 1233.621094 801.039063 C 1233.722656 797.355469 1238.390625 794.785156 1241 793 C 1248.1875 787.664063 1260.664063 780.328125 1269.890625 780.449219 M 1069 816 C 1065.441406 823.285156 1056.710938 829.5625 1050.949219 835.285156 C 1041.675781 844.5 1033 854.757813 1025 865 C 995.347656 902.402344 970 950.808594 965.171875 999 C 958.339844 1067.042969 996.640625 1124.484375 1035.265625 1177 C 1057 1206.683594 1079.195313 1236.183594 1100.847656 1266 C 1126.382813 1301.160156 1150 1341.152344 1187 1365.644531 C 1202.898438 1376.1875 1223.878906 1382.0625 1243 1379.714844 C 1252.855469 1378.503906 1261.492188 1374.253906 1271 1372 L 1271 1373 C 1260.433594 1380.226563 1250 1384.542969 1238 1388.695313 C 1152 1418.300781 1089.988281 1337.234375 1042.601563 1278 C 979.65625 1199.320313 903.34375 1095 928.652344 988 C 933.308594 968.335938 942.230469 949.414063 952.285156 932 C 964.960938 910.03125 981 889 999 871 C 1019.476563 850.414063 1041.617188 827.460938 1069 816 M 553.667969 826.667969 C 553.722656 826.722656 553.777344 827.777344 553.332031 827.332031 C 553.277344 827.277344 553.222656 826.222656 553.667969 826.667969 M 992 1023 C 1009.492188 1010 1038 1014.488281 1057 1021.574219 C 1105 1039.644531 1137.265625 1079.265625 1153.332031 1127 C 1158.972656 1143.753906 1163.402344 1161.007813 1168.289063 1178 C 1168.902344 1180.121094 1171.777344 1194 1173.960938 1194 C 1175.546875 1194 1175.792969 1181.714844 1175.910156 1180 C 1176.929688 1165.132813 1177 1148.777344 1175.285156 1134 C 1171.355469 1100.6875 1171.957031 1066.054688 1146.574219 1040.285156 C 1138.394531 1032 1128.746094 1026.652344 1118 1022.398438 C 1115 1021.261719 1105.824219 1020.257813 1104.347656 1017.5 C 1102.972656 1015 1114.382813 1012.539063 1116 1012.300781 C 1151 1007.132813 1178 1034 1192.730469 1063 C 1220.699219 1119 1211.695313 1182.402344 1232.695313 1240 C 1242 1265.6875 1264.929688 1291.59375 1288 1306 C 1296 1311 1305.421875 1314 1315 1312.410156 C 1316.824219 1312.125 1323.316406 1310.003906 1324.171875 1312.617188 C 1325.1875 1315.722656 1320.5 1320.757813 1318.84375 1323 C 1311 1333.503906 1299.253906 1339.820313 1286 1339 C 1271.457031 1338 1260 1327.738281 1247 1322.453125 C 1221.664063 1312.191406 1195.585938 1309.109375 1172 1294 C 1123.597656 1262.714844 1107.589844 1202 1096.664063 1149 C 1090.289063 1118.078125 1084.867188 1085.523438 1064.714844 1060 C 1051.839844 1043.691406 1034.761719 1034 1015 1028.296875 C 1007.453125 1026.132813 999.316406 1025.738281 992 1023 M 1077 1532 C 1096.230469 1560.53125 1110.246094 1596.339844 1089.65625 1628 C 1085.496094 1634.394531 1081 1641.6875 1074 1645 C 1075.980469 1635.519531 1080 1626.738281 1081.5625 1617 C 1083.695313 1603.304688 1082.859375 1586.832031 1081.910156 1573 C 1081.269531 1563.625 1079.871094 1554.234375 1078.285156 1545 C 1077.566406 1540.824219 1075.441406 1536.03125 1077 1532 M 1623 1574 C 1625 1600.726563 1626.414063 1633.648438 1594 1644 C 1604.996094 1621.546875 1617.785156 1599.3125 1621 1574 L 1623 1574 M 1728 1584.027344 C 1725.597656 1586.460938 1725.75 1601.488281 1729.316406 1602.683594 C 1735.917969 1605 1746 1603 1753 1603 L 1806 1603 C 1810.957031 1603 1826.679688 1605.554688 1829.972656 1601.398438 C 1831.945313 1599 1832.386719 1585.347656 1829.398438 1583.601563 C 1824.472656 1580.726563 1812.648438 1583 1807 1583 L 1751 1583 C 1746.226563 1583 1731.511719 1580.542969 1728 1584.027344 M 1408 1585 L 1407 1586 L 1408 1585 M 170.601563 1791.027344 C 167.589844 1793.414063 167.398438 1811.371094 171.316406 1812.683594 C 177 1814.621094 185.898438 1813 192 1813 L 1807 1813 C 1811.546875 1813 1827 1815.53125 1830.226563 1812.308594 C 1833.269531 1809.140625 1833.738281 1791.769531 1828.851563 1790.316406 C 1821.949219 1788.269531 1812.191406 1790 1805 1790 L 194 1790 C 188.53125 1790 175 1787.539063 170.601563 1791.027344 "/></g></svg>