<svg xmlns="http://www.w3.org/2000/svg" xmlns:xlink="http://www.w3.org/1999/xlink" viewBox="0 0 100 100" version="1.1"><g transform="translate(1, 2.0464106693499744) scale(0.0525927416649896) translate(-35, -94)"><path style=" stroke:none;fill-rule:nonzero;fill:rgb(0%,0%,0%);fill-opacity:1;" d="M 977 97.425781 C 955 100.3125 932 99.050781 910 101.171875 C 860.820313 106 811.867188 114.3125 764 127 C 545.316406 184.3125 348.476563 323.289063 227 515 C 35 818.097656 39.550781 1221.042969 242 1518 C 305.601563 1611.238281 388.539063 1692.371094 482 1755.480469 C 566.855469 1812.78125 660.949219 1855.105469 760 1881.117188 C 873.851563 1911.015625 991.523438 1917.582031 1108 1902.714844 C 1434 1861.089844 1719.699219 1633.210938 1835.574219 1326 C 1884.714844 1195.722656 1898.375 1058.058594 1888.910156 920 C 1885.332031 867.789063 1874.261719 815.46875 1860.734375 765 C 1785 483 1570.75 256.074219 1299 153.574219 C 1222.742188 124.8125 1142.253906 106.476563 1061 101 C 1034 99.0625 1003.945313 94 977 97.425781 M 1483 370 C 1456.710938 382.296875 1430 392.558594 1405 407.453125 C 1346.625 442.0625 1293.753906 488.144531 1246.960938 537 C 1230.941406 553.726563 1214.628906 570.21875 1199.753906 588 C 1194.222656 594.609375 1186 602.003906 1182.542969 610 C 1179.71875 616.480469 1201.441406 621.769531 1206 623.71875 C 1223.675781 631.285156 1241.175781 639.714844 1257 650.722656 C 1268.382813 658.640625 1274.921875 668.171875 1289 665 C 1284.242188 671.753906 1277.214844 682 1270 686 C 1267.640625 671.210938 1247.207031 695 1244 700 L 1243 700 C 1241.765625 692.710938 1244.402344 685.386719 1243 678 C 1242.765625 676.28125 1242.414063 672.175781 1240 671.769531 C 1237.625 671.320313 1234.515625 675.480469 1233 677.003906 C 1227.726563 682.371094 1224.835938 692 1219 696 C 1220 687.15625 1220.859375 679.832031 1219.4375 671 C 1219 668.820313 1219.441406 664.265625 1217.257813 663 C 1214.773438 661.394531 1211.484375 665.535156 1210 667.003906 C 1204.773438 672.257813 1200 678.546875 1199 686 L 1198 686 C 1195.800781 676.765625 1196 667.265625 1193.410156 658 C 1192.898438 656.28125 1191.746094 650.09375 1189 650.632813 C 1177.664063 653 1179.246094 675.824219 1171 681 C 1170.972656 671 1169.347656 660.570313 1166 651 C 1165.332031 648.496094 1164 643.160156 1160.960938 642.632813 C 1157.953125 642.132813 1155.683594 647 1154.449219 649 C 1149.882813 656.53125 1145.996094 664.382813 1144 673 L 1143 673 C 1143 663 1141.988281 652.824219 1139.996094 643 C 1139.511719 640.609375 1138.769531 633.011719 1134.871094 634.207031 C 1123.804688 637.597656 1124.429688 655.707031 1116 661 C 1116 652.023438 1115.207031 643.703125 1112.847656 635 C 1112.335938 633.109375 1111.507813 627.054688 1108.789063 627.054688 C 1101.328125 627.054688 1096.859375 649.636719 1095 655 L 1094 655 C 1092.472656 643 1090 631.144531 1090 619 C 1084.984375 624 1082.648438 630.234375 1079 636 C 1077.636719 631.382813 1080.390625 619.121094 1077 616 C 1075 614 1072.273438 622 1071.769531 623 C 1067.804688 631.746094 1066.457031 641.539063 1062 650 L 1061 650 C 1061 637.109375 1060.980469 621.511719 1058 609 C 1048 619.386719 1042 630.132813 1036 643 L 1035 643 C 1032 636.261719 1031.589844 627.308594 1031 620 C 1030.894531 617.148438 1031.953125 612 1029.859375 609.636719 C 1027.605469 607.140625 1024.285156 613.621094 1023.425781 615 C 1019 622 1016 629.417969 1013 637 C 1007.707031 629.296875 1008.742188 614.246094 1007 605 C 1003 610 1001.621094 616.75 997 621 L 991 604 L 990 604 C 987.835938 613.070313 986 623.699219 986 633 C 978.933594 628.160156 976 612.234375 970 605 C 966.335938 620.394531 966 639.144531 966 655 L 965 655 C 959.363281 643.355469 958.171875 631.253906 950.667969 620 C 949 617.660156 945.191406 610 941.601563 610.632813 C 939 611.152344 940 617.277344 939.984375 619 C 939.75 628.40625 937 637.558594 937 647 L 936 647 C 929.59375 635 926 621.71875 917 611 C 914.308594 622.308594 916 635.40625 916 647 L 915 647 C 911.699219 636.589844 909.789063 624.53125 901 617 C 901.808594 623.386719 902 629.5625 902 636 C 896 632.601563 894.59375 624.320313 889 620 C 889 631.242188 888.277344 644.210938 885 655 L 884 655 C 881.585938 647.433594 879.78125 639.714844 875.25 633 C 874 631.367188 871.816406 627.140625 869.339844 627.632813 C 866.914063 628.109375 866.25 633.109375 865.710938 635 C 863.3125 643.382813 861.6875 652.304688 861 661 L 860 661 C 856.535156 653.691406 853 646.464844 848 640 C 846.625 638.070313 844 634.160156 841.222656 634.632813 C 838.191406 635.121094 837.324219 640.625 836.75 643 C 834.660156 651.621094 833 661.113281 833 670 C 825.367188 665.125 825.523438 647.390625 815.871094 644.207031 C 812 643 811.203125 649.703125 810.628906 652 C 808 662 807 670.824219 807 681 C 803 678.167969 801.851563 672.226563 799.753906 668 C 796 660.535156 791.777344 654.042969 786 648 C 782 662.085938 781 675.445313 781 690 L 780 690 C 773.839844 679.21875 769.296875 668.53125 758 662 C 757.910156 673.03125 756 684 756 695 C 748.839844 689.753906 746.921875 676 737 673.191406 C 730.914063 671.4375 733.207031 694.664063 734 698 C 726.226563 694.070313 721.21875 686.109375 713 682.308594 C 706.640625 679.367188 702.597656 679 704 687 C 696.519531 684.589844 685 669.445313 683 662 C 687.191406 663 691.65625 667.433594 696 666.761719 C 703.804688 665.5625 712.453125 656 719 651.691406 C 735 641.371094 751.503906 632.261719 769 624.71875 C 773.789063 622.652344 798.351563 615.226563 795.996094 610 C 792.214844 601.476563 783.222656 594 777 587 C 763.566406 571.5625 749 557.035156 735 542 C 683.777344 487 623.648438 436 558 398.566406 C 537.492188 387 515.429688 379.5 494 370 C 504.585938 355.660156 525.238281 344.464844 540 334.667969 C 577.613281 309.703125 616.878906 288.28125 658 269.695313 C 805.609375 203 973.703125 182.695313 1133 211.425781 C 1180.390625 220 1225.609375 234 1271 249.65625 C 1326.710938 269 1380.9375 297.785156 1430 330.332031 C 1446.9375 341.566406 1470.890625 353.398438 1483 370 M 417 438 C 410 458.539063 400.558594 478.113281 394.425781 499 C 368.355469 587.757813 353.984375 683.394531 358 776 C 359.707031 814.0625 363 852.351563 369.285156 890 C 371.78125 905 377.691406 920 379 935 L 375 934 C 377.597656 943.488281 400.566406 970.0625 379 964.140625 C 376.640625 963.492188 374.308594 962.800781 372 962 C 378 972.359375 395.320313 973.507813 402 984 C 393.527344 984 385.40625 982.359375 377 982 C 381.59375 987.644531 389.503906 990.605469 393 997 L 370 996 C 374.777344 1000.621094 381.550781 1001.617188 386 1007 C 376.867188 1009.726563 363.417969 1009.519531 356 1016 C 367.992188 1016 382.347656 1013.726563 394 1016 L 394 1017 C 379.8125 1021.828125 360.214844 1033.0625 351 1045 C 359.65625 1040.390625 374.214844 1036.371094 384 1038 C 373 1049.554688 357.398438 1056.785156 348 1070 C 358.863281 1065.808594 370.464844 1062.695313 382 1061 C 370.652344 1075.796875 355.199219 1087.421875 344 1103 C 355.730469 1099.289063 365 1091.5625 378 1091 C 374.285156 1098 366.820313 1103.78125 361.804688 1110 C 353.570313 1120.203125 346.625 1131.351563 339 1142 C 350.601563 1137.753906 361 1131.015625 373 1127 C 368.339844 1140.730469 352.988281 1149.160156 347 1162 C 355.566406 1159.710938 365 1155.199219 374 1156 C 364 1171.0625 345.597656 1182.320313 340 1200 C 351.863281 1195.066406 364.992188 1189.558594 378 1189 C 369.484375 1209.246094 351.578125 1225.183594 344 1246 C 353.507813 1240 366.1875 1235.089844 377 1232 C 372 1245 360.617188 1256.433594 353 1268 C 363.304688 1263.582031 372.664063 1258.527344 384 1257 C 374.832031 1273.089844 361.261719 1286.707031 354 1304 C 365.492188 1296.421875 381.488281 1287 395 1284 C 389.671875 1300.832031 379 1319 370 1334 C 378.894531 1332.488281 388.519531 1329.242188 397 1326.125 C 399 1325.386719 404 1322 406.183594 1323.367188 C 408.460938 1325 403.75 1331.476563 402.917969 1333 C 397.910156 1342.203125 391.945313 1350.453125 386 1359 C 396 1357.628906 405.863281 1353.492188 416 1352 C 411.628906 1361.542969 402.339844 1369.660156 395 1377 C 405.289063 1375.25 414.773438 1370.117188 425 1368 C 420.390625 1378 409.777344 1384 405 1394 C 413.734375 1392.441406 420.265625 1385.558594 429 1384 C 424.75 1393.664063 415.410156 1400.367188 411 1410 C 419 1405.25 428 1400.21875 437 1397 C 433.417969 1405.515625 426 1412 422 1420 C 428 1417.28125 434.648438 1414.011719 441 1412 C 439.621094 1419.632813 433.980469 1425.550781 430 1432 C 468.558594 1421.6875 504.929688 1405.148438 544 1396 C 593 1384.238281 644.421875 1375.777344 695 1377.015625 C 717.488281 1377.566406 739.617188 1381.234375 762 1383 L 762 1384 C 744.316406 1387.28125 725 1385.441406 707 1387.171875 C 677.535156 1390 647.957031 1395.054688 619 1401.210938 C 578.585938 1409.804688 538.695313 1420.644531 500 1435.226563 C 486.207031 1440.425781 473.863281 1449.28125 460 1454 C 465 1456.332031 470.527344 1455.003906 476 1455 C 473.742188 1460 469.335938 1463.175781 467 1468 C 475.941406 1465.6875 485 1461.695313 494 1460 C 489.539063 1468.007813 483.460938 1475 479 1483 C 489.335938 1481.480469 497.613281 1476.042969 507 1472 C 501.722656 1480.558594 496.839844 1489.183594 492 1498 C 501.371094 1496 509.238281 1488.777344 518 1485 C 516 1492.421875 510.777344 1498.238281 507.371094 1505 C 506.613281 1506.507813 503.820313 1511.308594 505.8125 1512.761719 C 508.933594 1515.039063 520.5 1508 524 1507 C 523.417969 1509.515625 517.738281 1524.316406 521.359375 1524.757813 C 527.28125 1525.480469 537.355469 1516.765625 542 1513.667969 C 557.941406 1503.039063 574.316406 1493 591 1483.425781 C 627.46875 1462.820313 666.773438 1445.34375 707 1433.574219 C 724.980469 1428.316406 745 1422.15625 764 1422 L 764 1423 C 748.328125 1431.226563 730.199219 1436 714 1443.308594 C 656.929688 1469.441406 594.722656 1500.347656 548 1543 C 552.421875 1544.015625 557.925781 1547.773438 562.171875 1548 C 570.273438 1548.265625 582.964844 1539.511719 591 1537.023438 C 607 1532.070313 623.375 1531.605469 640 1532.015625 C 647.710938 1532.203125 655.703125 1534 663 1536.355469 C 666.800781 1537.636719 670.972656 1540.664063 675 1538.753906 C 687 1533.03125 698 1519.019531 708 1510.164063 C 727 1493.195313 746.734375 1478.023438 768 1464.003906 C 777.773438 1457.558594 788.675781 1449.261719 800 1446 C 791.597656 1457 776.722656 1465.445313 766 1474.191406 C 750.5625 1486.8125 736.886719 1501.226563 721.984375 1514.425781 C 714.792969 1520.792969 708 1528 701.710938 1535.015625 C 699.949219 1537 696 1540 696 1542.816406 C 696 1547 706 1552 709 1554.285156 C 723.671875 1566 744.390625 1566.652344 761 1576.148438 C 812.898438 1605.824219 857.214844 1659.300781 844.601563 1722 C 839.875 1745.484375 826.230469 1772.640625 801 1779 C 804.917969 1772.117188 811.59375 1764.550781 808.476563 1756 C 805.386719 1747.515625 796.546875 1744.515625 795.289063 1735 C 790.8125 1701.109375 795.214844 1657.324219 772 1629 C 774.710938 1663.335938 774.671875 1710 747.910156 1735.828125 C 734.894531 1748.46875 715.546875 1753.066406 698 1749 C 694.808594 1748.105469 684.691406 1746.777344 683.347656 1743.3125 C 682.195313 1740.347656 691 1733.335938 692.867188 1731 C 701.457031 1719.675781 704.746094 1706.304688 709 1693 C 707.433594 1694 703 1697.4375 701.691406 1694.574219 C 699.964844 1691 702.445313 1683 702.828125 1679 C 704.1875 1665 705.925781 1651.058594 704 1637 C 703.210938 1631.234375 703.488281 1625.148438 699 1621 C 698.996094 1636.773438 695.785156 1652.039063 691 1667 L 690 1667 C 688.363281 1660.148438 687.847656 1653 686.726563 1646 C 686.511719 1644.675781 686 1640.054688 684 1640.054688 C 681.453125 1640.054688 678 1655.449219 677 1658 L 676 1658 C 672.410156 1646 673.953125 1632.371094 671 1620 L 670 1620 C 659.882813 1656 655 1707.765625 616 1726 C 616.269531 1718.664063 613.738281 1707.832031 604 1709 C 601.675781 1709.109375 595.699219 1714.285156 593.9375 1712.828125 C 592.28125 1711.457031 592.941406 1707 592.714844 1705 C 591.601563 1695.625 587.765625 1680 575 1688.652344 C 571.472656 1691.066406 568.910156 1694.175781 565 1696 C 566 1653 576.867188 1614.132813 608 1583 C 594.289063 1587 580.542969 1599.703125 571 1610 C 567.753906 1613.640625 565.886719 1619.152344 562 1622 C 562 1614.0625 564 1608 568 1601 C 556.699219 1605.199219 550 1615.132813 544 1625 L 543 1625 C 543.632813 1612.664063 552.324219 1601.144531 561 1593 C 552.746094 1594.464844 542.496094 1605.796875 537.324219 1612 C 535.640625 1614.019531 532.175781 1621.792969 529.222656 1621.792969 C 525.496094 1621.792969 528 1611.355469 526.949219 1609.210938 C 525.578125 1606.433594 522.824219 1605.246094 522.230469 1602 C 518.925781 1583.574219 538 1572.636719 545 1559 C 523.371094 1569.25 506 1587.285156 494.292969 1608 C 492 1612 486 1632.414063 481.785156 1632.167969 C 475.960938 1632 468 1622.621094 464 1619 C 449.707031 1606.265625 435.515625 1593.515625 422 1580 C 365.269531 1523.269531 317.199219 1459.5625 279 1389 C 154.273438 1158.601563 155.4375 858 277.703125 627 C 304.773438 576 336.839844 528 374 483.574219 C 383.660156 472.054688 393.433594 460.695313 403.996094 450 C 408.175781 445.769531 411.546875 440.5625 417 438 M 1564 439 C 1577.203125 455.214844 1592.347656 469.765625 1605.539063 486 C 1645.757813 535.492188 1681.90625 588.511719 1709.742188 646 C 1822 878 1819.222656 1160.742188 1698.78125 1389 C 1661.402344 1460 1612.605469 1525.378906 1554.996094 1581.039063 C 1542 1593.484375 1528.851563 1605.519531 1516 1618 C 1511.6875 1622.171875 1503.183594 1631.738281 1497 1632.824219 C 1494 1633.382813 1493.359375 1629.15625 1492.707031 1627 C 1490.738281 1620.515625 1488.40625 1614 1485 1608 C 1476.890625 1593 1466 1581.0625 1453 1570.003906 C 1447.796875 1565.574219 1440 1559.132813 1433 1559 C 1443.167969 1569.167969 1457.894531 1584.019531 1456.925781 1600 C 1456.671875 1604.15625 1453 1604.632813 1451.601563 1608.09375 C 1449.742188 1612.660156 1451.800781 1618.261719 1451 1623 L 1450 1623 C 1441.527344 1610.546875 1430.34375 1600.59375 1418 1592 C 1424.730469 1602.804688 1434.667969 1612.695313 1436 1626 C 1431.40625 1623.050781 1429.253906 1617.121094 1425.699219 1613.003906 C 1421.398438 1608.019531 1415.824219 1604.429688 1411 1600 C 1411.304688 1607.015625 1415.636719 1614 1417 1621 C 1411 1617.671875 1407.5 1609.058594 1402.828125 1604.015625 C 1394.367188 1595 1382.480469 1586.78125 1371 1582 C 1376.605469 1590 1383.789063 1596.753906 1389 1605 C 1400.707031 1623 1408 1644.078125 1411.566406 1665 C 1412.46875 1670.382813 1416.785156 1690.015625 1412.808594 1694.167969 C 1410.90625 1696.15625 1399.910156 1684.113281 1394 1687.042969 C 1383.566406 1692.273438 1389.820313 1705.335938 1385.296875 1713.046875 C 1383.894531 1715.4375 1376.777344 1709.136719 1374 1709.257813 C 1365.773438 1709.617188 1363 1719.429688 1363 1726 C 1337.761719 1713.125 1324.664063 1681.664063 1317.882813 1656 C 1315 1645.609375 1314.4375 1627 1307 1619 C 1306.773438 1630 1306 1644.484375 1303 1655 L 1302 1655 C 1300.996094 1652.460938 1298 1640.054688 1294.898438 1640.054688 C 1292.738281 1640.054688 1293 1644.722656 1292.964844 1646 C 1292.523438 1653.089844 1291 1660 1291 1667 C 1282.84375 1661.613281 1280 1643.128906 1280 1634 C 1279.980469 1632.199219 1280.953125 1623.054688 1277.882813 1623.054688 C 1274.855469 1623.054688 1274 1637.667969 1274 1640 C 1273.445313 1653.519531 1275 1666.621094 1276.714844 1680 C 1277 1683 1279 1692 1276.804688 1694.25 C 1275 1696.078125 1271.503906 1693 1270 1692 C 1272.515625 1705.351563 1277.171875 1718.195313 1285.667969 1729 C 1287.859375 1731.785156 1297.730469 1739 1297 1742.589844 C 1296.375 1746.539063 1285.179688 1748.492188 1282 1749.25 C 1263.921875 1753.566406 1244.699219 1747.3125 1231.515625 1734.742188 C 1205.351563 1709.804688 1204.359375 1663.46875 1207 1630 C 1200.453125 1636.148438 1197 1646.675781 1194 1655 C 1184.929688 1681.167969 1187.46875 1708.164063 1183.570313 1735 C 1182 1745.183594 1171.644531 1749.347656 1170.371094 1759 C 1169.355469 1766.6875 1175.769531 1772.265625 1178 1779 C 1134.484375 1760.792969 1122.585938 1702 1138.613281 1661 C 1152.28125 1626.0625 1183.375 1596.679688 1215 1577.601563 C 1232.285156 1567.175781 1254.582031 1566.109375 1270 1553.800781 C 1273.222656 1551.226563 1282.652344 1546.277344 1283.371094 1542 C 1283.8125 1539.375 1280.261719 1536.65625 1278.714844 1535 C 1272.742188 1528.421875 1266.339844 1522.199219 1260 1516.015625 C 1244.269531 1500.671875 1227.796875 1485.617188 1211 1471.4375 C 1200.636719 1462.691406 1187.515625 1454.558594 1179 1444 C 1212.515625 1456.269531 1244 1485.742188 1271 1508.4375 C 1279.367188 1515.507813 1286.898438 1523.433594 1295 1530.730469 C 1297.835938 1533.238281 1301.726563 1538.039063 1305.574219 1538.730469 C 1309 1539.34375 1313.722656 1536.355469 1317 1535.429688 C 1324 1533.4375 1331.695313 1532.089844 1339 1532.003906 C 1367 1531.667969 1387 1538.46875 1413 1547.808594 C 1415.4375 1548.6875 1428.925781 1545.203125 1427.792969 1542.023438 C 1426.40625 1538.128906 1419.25 1534.332031 1416 1532.035156 C 1405.375 1524.527344 1394.824219 1517 1384 1509.667969 C 1346.921875 1485 1308.558594 1462 1268 1443.308594 C 1255.40625 1437.527344 1242.742188 1432 1230 1426.425781 C 1224.785156 1424.203125 1217.382813 1422.777344 1214 1418 C 1265.527344 1432.480469 1314 1445.019531 1362 1470.296875 C 1383.660156 1481.742188 1405.226563 1493.417969 1426 1506.425781 C 1436.953125 1513.28125 1448.992188 1523.753906 1462 1526 C 1459 1519.558594 1456 1513.03125 1455 1506 C 1461.492188 1509.089844 1468 1512.101563 1475 1514 C 1471.785156 1502.335938 1462.941406 1494 1458 1483 C 1467.613281 1487.0625 1476.238281 1493.816406 1486 1498 C 1481.671875 1488.730469 1474.613281 1480.535156 1471 1471 C 1480 1476.027344 1489.4375 1481.078125 1500 1482 C 1494.902344 1474.441406 1488.230469 1466.527344 1485 1458 C 1493.71875 1462.070313 1502.25 1466.027344 1512 1467 C 1503.207031 1457.328125 1504.570313 1455.007813 1518 1455 C 1497 1438.042969 1463.574219 1428.824219 1438 1421.441406 C 1394.503906 1409 1350.976563 1397.339844 1306 1391.28125 C 1288.769531 1389 1271.339844 1386.28125 1254 1385.089844 C 1241.417969 1384.222656 1227.238281 1385 1215 1382 L 1215 1381 C 1263.664063 1380 1310.238281 1375 1359 1381.289063 C 1398 1386.417969 1437.421875 1395.394531 1475 1407.027344 C 1499.828125 1414.710938 1523.925781 1425.296875 1549 1432 C 1544.621094 1425.355469 1538 1419.160156 1537 1411 L 1557 1419 C 1552 1411.074219 1545.175781 1404.390625 1541 1396 C 1549.972656 1397.59375 1559.179688 1403.4375 1567 1408 C 1561.871094 1399.113281 1554 1392 1549 1383 C 1557.597656 1385.042969 1565.734375 1389.8125 1574 1393 C 1569.402344 1383.136719 1558.484375 1377.488281 1553 1368 C 1562.78125 1369.445313 1572 1374.019531 1582 1375 C 1576.65625 1367.417969 1568.429688 1362 1565 1353 C 1574.492188 1353.828125 1583.320313 1357.800781 1593 1358 C 1584.410156 1348 1573.414063 1336.550781 1571 1323 L 1608 1334 C 1602.449219 1316.589844 1586.511719 1302.414063 1583 1284 C 1596.429688 1289.589844 1609.804688 1300 1624 1303 C 1615.1875 1287.171875 1600 1273.625 1593 1257 L 1625 1267 C 1618.554688 1254.554688 1606.519531 1245.121094 1601 1232 C 1612 1234 1623 1240.578125 1634 1244 C 1625.253906 1225.507813 1606.765625 1209.605469 1601 1190 C 1613.386719 1191.597656 1626.742188 1199.5 1639 1199 C 1633.371094 1191.503906 1628.332031 1184 1621.910156 1177 C 1616 1170.789063 1607.324219 1163.304688 1605 1155 C 1611.308594 1156.636719 1617.683594 1158 1624 1159.535156 C 1625 1159.800781 1629.679688 1161.5 1630.269531 1160 C 1631 1157.429688 1625.746094 1152.617188 1624.425781 1151 C 1618.578125 1144 1612.203125 1136.242188 1608 1128 C 1618.941406 1130.289063 1627.671875 1137.242188 1638 1141 C 1627 1123.25 1610.390625 1108.5 1600 1091 C 1611.234375 1092.660156 1621 1098.289063 1632 1101 C 1621.8125 1087.257813 1609.9375 1074.019531 1596 1064 L 1596 1063 C 1607.652344 1064 1618.605469 1068.0625 1630 1070 C 1618.410156 1060 1602.679688 1049.722656 1593 1038 C 1604.296875 1038.484375 1614.902344 1042 1626 1043 C 1613.242188 1032.125 1596.5625 1026.40625 1584 1016 C 1595.753906 1012.527344 1609.792969 1017 1622 1016 C 1615.714844 1011.71875 1608 1010.226563 1601 1007.792969 C 1599.363281 1007.234375 1594.398438 1005.816406 1594.921875 1003.285156 C 1595.527344 1000.339844 1604.652344 998.34375 1607 996 L 1586 997 C 1588.667969 991.746094 1599.21875 989.222656 1600.367188 984.171875 C 1600.613281 983.09375 1580.867188 985 1578 985 C 1583.796875 975.414063 1598 968.617188 1608 964 L 1608 963 C 1604.558594 963.273438 1591.34375 968.109375 1589 966 C 1587.324219 964.140625 1590 960.460938 1591 959 C 1594.734375 953.0625 1599.46875 946.601563 1601.9375 940.019531 C 1603.429688 936.042969 1601.257813 928.226563 1602.261719 923 C 1605.65625 905.269531 1609.722656 888 1612.589844 870 C 1629.507813 764.679688 1622 654.53125 1597.664063 551 C 1591.183594 523.480469 1582.261719 496.785156 1573.332031 470 C 1570.820313 462.464844 1561.425781 446.445313 1564 439 M 1553 496 C 1586.601563 600.6875 1602.179688 708.496094 1584.589844 818 C 1580.171875 845.515625 1574.898438 874.476563 1560.769531 899 C 1556 907.035156 1549.921875 918.390625 1541 922 C 1547.515625 904.78125 1556.246094 889.722656 1559 871 C 1547 879.359375 1537.699219 888.515625 1523 892 C 1527.554688 883.210938 1534.78125 876.097656 1539.21875 867 C 1553 838.609375 1556 805 1541.753906 776 C 1536.894531 766.191406 1523.878906 743.578125 1510 747 C 1498.195313 750 1497.855469 764.660156 1489 770 C 1489.609375 741.367188 1506.535156 711.136719 1516.796875 685 C 1530.515625 650.0625 1539.75 615 1546.386719 578 C 1549.605469 560.105469 1551.910156 541.171875 1552 523 C 1552 516 1549.25 501.808594 1553 496 M 424 500 C 424 556.402344 434.550781 614.109375 454.226563 667 C 462.988281 690.550781 474.269531 713.285156 482.503906 737 C 485.382813 745.292969 491.566406 757 491.171875 765.832031 C 491 769.011719 488.507813 767.394531 487.320313 765.832031 C 478.835938 754.671875 471.421875 738.660156 456 751.328125 C 427.613281 774.644531 422 819 434.226563 852 C 439.585938 866.464844 448.644531 877.363281 457 890 C 441.804688 888.445313 430 876 419 867 C 421.496094 886.320313 432.71875 901.777344 437 920 C 425.191406 911.675781 417.667969 897.121094 412.398438 884 C 402.695313 860 397.59375 835.613281 393.5625 810 C 381 731.121094 386.832031 649.070313 402.449219 571 C 407.292969 546.78125 416.464844 524 422 500 L 424 500 M 775 830 L 774 830 C 745.863281 776.523438 708.84375 714.71875 648 694 L 648 693 C 665.691406 693.050781 676.496094 702.65625 691 711 C 677.214844 691.410156 658.554688 672.777344 640.574219 657 C 631.21875 648.785156 618.550781 642 611 632 C 630.652344 638.261719 651.445313 657.570313 667 670.726563 C 715.410156 711.660156 758.363281 767.761719 775 830 M 1374 633 L 1373 634 L 1374 633 M 1372 634 C 1366 644.128906 1350.953125 652.6875 1342 660.425781 C 1324.75 675.328125 1305.601563 694 1293 713 C 1305.738281 701.128906 1321.433594 694.363281 1339 694 L 1339 695 C 1275.460938 713.296875 1246.171875 779.304688 1216 831 L 1215 831 C 1217 810.699219 1230.882813 787.519531 1240.714844 770 C 1265.359375 726.105469 1294.476563 689.019531 1335 658.628906 C 1346.644531 650 1358.542969 639.800781 1372 634 M 577 686 L 576 687 L 577 686 M 782 874 C 772.382813 868.273438 764 855.414063 756.714844 847 C 742.351563 830.707031 726.894531 815 711 800.089844 C 682 773.113281 652.257813 747 622 721.4375 C 608.847656 710.359375 589.835938 701.109375 579 688 C 598.691406 693 619.324219 711.652344 636 723 C 677.320313 751.023438 716.632813 783.109375 748.261719 822 C 760.886719 837.519531 775 855.027344 782 874 M 1406 688 C 1401.558594 693.753906 1394.699219 697.238281 1389 701.664063 C 1377.488281 710.601563 1366 719.816406 1355 729.273438 C 1324.632813 755.164063 1296.207031 783.792969 1268 812 C 1253.8125 826.1875 1240.703125 841.339844 1227 856 C 1221.1875 862.195313 1214.703125 871.398438 1207 875 C 1239.289063 816.785156 1287 770.148438 1340 730.625 C 1360.414063 715.382813 1382.34375 698 1406 688 M 757 867 C 744.449219 861.414063 733.964844 850.71875 722 844 C 682.511719 821.179688 639 797.40625 594 788 C 605.378906 784.511719 625.8125 792.789063 637 796 C 670 805.515625 700.386719 820.664063 728 841.375 C 737.9375 848.828125 749.785156 856.785156 757 867 M 1399 787 L 1399 788 L 1395 788 C 1396.507813 787.316406 1397.3125 787.175781 1399 787 M 1394 788 L 1394 789 C 1336.375 797.480469 1286.308594 835.546875 1237 863 C 1242.878906 850.398438 1261.519531 839.140625 1273 831.78125 C 1308.226563 809.203125 1351.4375 789.828125 1394 788 M 697 995.285156 C 809.804688 982 895.613281 1113 846 1212 C 822.175781 1259.683594 774.714844 1282.710938 724 1288.714844 C 611 1302.089844 517.480469 1180.242188 571.890625 1077 C 583.179688 1055.574219 599.453125 1037.339844 619 1023.152344 C 641.902344 1006.523438 669.222656 998.574219 697 995.285156 M 1263 995.285156 C 1275.328125 993.828125 1287.863281 996 1300 997.726563 C 1391.167969 1012 1450.414063 1109.304688 1416.386719 1196 C 1394.367188 1252.101563 1341.382813 1282 1284 1288.714844 C 1268 1290.617188 1250.605469 1288.589844 1235 1285.449219 C 1218 1282.0625 1202.625 1276.015625 1188 1267 C 1104.992188 1215.40625 1101.726563 1098.320313 1172 1034.171875 C 1197.871094 1010.554688 1228.765625 999.328125 1263 995.285156 M 711 1005.425781 C 687.773438 1008.476563 666 1015.609375 648 1031.289063 C 581.535156 1089.117188 602.773438 1210.238281 692 1231.347656 C 704.695313 1234.347656 719 1235.308594 732 1233.714844 C 777.683594 1228.101563 814.871094 1195.050781 827.441406 1151 C 844.335938 1091.796875 811.453125 1019.09375 747 1008 C 735.304688 1006 722.882813 1004 711 1005.425781 M 1254 1005.425781 C 1228 1009 1203.5625 1015.105469 1184 1034.089844 C 1108.285156 1107.757813 1171.925781 1246.742188 1278 1233.714844 C 1293.417969 1231.820313 1308.730469 1226.40625 1322 1218.398438 C 1405.746094 1168 1386 1035.730469 1293 1009.578125 C 1281 1006.210938 1266.429688 1003.792969 1254 1005.425781 M 681 1029.324219 C 719.816406 1023 744.390625 1073.265625 714.910156 1099.675781 C 708.429688 1105.480469 700.441406 1108.085938 692 1109.410156 C 640 1117.566406 629.601563 1037.726563 681 1029.324219 M 1219 1029.289063 C 1250.691406 1025.183594 1273.484375 1061.605469 1258.589844 1089 C 1251.675781 1101.714844 1238.855469 1108.078125 1225 1109.714844 C 1196 1113.117188 1173.6875 1084.195313 1183 1057 C 1188.667969 1041 1202.566406 1031.417969 1219 1029.289063 M 1070 1238 L 1069 1238 C 1041.339844 1197.339844 993.484375 1174.824219 948 1200.65625 C 938.488281 1206.058594 930 1213.28125 922.574219 1221.171875 C 918.4375 1225.503906 915 1232 910 1235 C 930.253906 1181.570313 1005.65625 1172.132813 1046 1205.753906 C 1055.191406 1213.414063 1067.636719 1225.777344 1070 1238 M 1079 1287 C 1068.933594 1281.332031 1063.285156 1267.5625 1053 1261 C 1061 1271.574219 1070.339844 1288.117188 1068 1302 C 1061 1296.339844 1056.492188 1288.277344 1049 1283 C 1053.71875 1299.511719 1068.851563 1325.808594 1054.441406 1341.773438 C 1049.453125 1347.300781 1041.503906 1345.789063 1035 1345.171875 C 1023 1344.03125 1010 1344.371094 998 1344.6875 C 981.675781 1345.117188 965.382813 1344.320313 949 1345.039063 C 942.566406 1345.320313 934.191406 1348 928.183594 1344.542969 C 922.328125 1341.210938 920.605469 1333.109375 919.847656 1327 C 917.953125 1311.746094 924 1295.457031 931 1282 C 922.519531 1286 918.804688 1295.351563 911 1300 C 913.789063 1285 915.933594 1273.351563 924 1260 C 914.367188 1266.785156 908.46875 1280.382813 899 1286 C 902.320313 1260.285156 913.574219 1234.214844 934 1217.464844 C 973.902344 1184.742188 1033.925781 1197.117188 1062.558594 1238 C 1072.753906 1252.550781 1076.808594 1269.660156 1079 1287 M 1072 1240 L 1071 1241 L 1072 1240 "/></g></svg>