<svg xmlns="http://www.w3.org/2000/svg" xmlns:xlink="http://www.w3.org/1999/xlink" viewBox="0 0 100 100" version="1.1"><g transform="translate(1, 7.49693490203547) scale(0.05332698488275205) translate(-78, -198.445313)"><path style=" stroke:none;fill-rule:nonzero;fill:rgb(0%,0%,0%);fill-opacity:1;" d="M 1135 1110 L 1135 1111 C 1099.742188 1121 1061 1122.707031 1025 1129.460938 C 1016.261719 1131.097656 1007.605469 1133.167969 999 1135.371094 C 997.320313 1135.800781 991.402344 1136.265625 990.921875 1138.378906 C 990.261719 1141.265625 999 1146.035156 1001 1147.476563 C 1009.671875 1154.007813 1018.175781 1160.714844 1027 1167.039063 C 1030 1169.207031 1033 1173 1037 1173.496094 C 1041.925781 1174.132813 1048.402344 1170.703125 1053 1169.167969 C 1064.265625 1165.398438 1075.589844 1162 1087 1158.710938 C 1118.664063 1149.570313 1151.960938 1143 1185 1143 L 1185 1144 C 1154 1148.570313 1122 1165.320313 1093 1176.316406 C 1000 1211.363281 906.503906 1256.136719 839.714844 1332 C 822.3125 1351.765625 806.613281 1372.082031 792 1394 C 786 1403 778 1411.679688 775 1422 C 784.324219 1414.40625 791.503906 1402.171875 799.425781 1393 C 810.246094 1380.472656 822.90625 1369.351563 835 1358.089844 C 873 1322.550781 916 1292.246094 960 1264.304688 C 984.941406 1248.425781 1010.609375 1230.402344 1038 1219 C 1038 1228.734375 1038.222656 1238.339844 1037 1248 C 1050.324219 1244.101563 1063.664063 1228.113281 1076 1221 C 1112.246094 1199.550781 1151.738281 1178.214844 1194 1172 L 1194 1173 C 1167.335938 1182.6875 1143 1202.160156 1119 1216.796875 C 1075.523438 1243.191406 1031.476563 1273.082031 997.171875 1311 C 964.363281 1347.257813 940.671875 1389.464844 921 1434 C 912 1454.710938 898.976563 1477.625 895 1500 C 907.816406 1490.566406 919.550781 1480.066406 933 1471 C 927 1482.472656 915.714844 1491.722656 907.898438 1502 C 891 1524.152344 875.554688 1547.511719 862.308594 1572 C 853 1589.191406 844.390625 1607 836.910156 1625 C 833.480469 1633.289063 830.773438 1647.207031 824.5 1653.683594 C 818.84375 1659.519531 799.601563 1656 792 1656 C 810.949219 1600 840.449219 1548.140625 867.777344 1496 C 874.320313 1483.511719 881.484375 1471.375 888.230469 1459 C 889.457031 1456.746094 895.820313 1448.746094 892.378906 1446.601563 C 887.429688 1443.523438 875.5 1446.308594 870 1446.828125 C 852.429688 1448.503906 834.613281 1448.285156 817 1450 C 739.308594 1457.148438 662 1474.222656 589 1501.574219 C 564.984375 1510.554688 540.945313 1520.28125 518 1531.753906 C 513 1534.21875 498.566406 1545 494.46875 1539 C 477.808594 1514.566406 468.722656 1478.507813 462.714844 1450 C 446.28125 1372.027344 448.882813 1296.429688 472 1220 C 504.230469 1114.363281 577.769531 1027.285156 625.640625 929 C 662.277344 853.78125 679 769.332031 672.910156 686 C 665.976563 591.417969 622.445313 501.085938 554.984375 435 C 533.839844 414.234375 497 377.71875 464 384.515625 C 426.976563 392.105469 428 433.484375 443.464844 460 C 468.523438 503.328125 500 541.558594 517.773438 589 C 560.21875 702.71875 522.222656 818.621094 458.65625 916 C 418.25 978 373.429688 1037.683594 340.269531 1104 C 295.664063 1193.214844 271.453125 1290.488281 269 1390 C 267.457031 1453.515625 278.929688 1519.792969 299 1580 C 305.234375 1598.707031 312.410156 1617.101563 320.703125 1635 C 322.5 1639 330.292969 1650.363281 328.582031 1654.4375 C 326.882813 1658.480469 316.410156 1657 313 1657 L 96 1657 C 92.167969 1657 84.996094 1655.621094 81.601563 1657.601563 C 78 1659.648438 81 1673.25 81 1677 L 81 1722 C 81 1727.148438 79.296875 1736 81.601563 1740.683594 C 83 1744 88 1743 91 1743 L 1833 1743 C 1851.347656 1743 1869.6875 1742.636719 1888 1742.445313 C 1892 1742.402344 1902.863281 1744.597656 1905.972656 1741.167969 C 1907.824219 1739.128906 1907 1734.515625 1907 1732 L 1907 1671 C 1907 1668 1908.363281 1660.417969 1905.972656 1658.027344 C 1902.804688 1655 1890.285156 1657 1886 1657 L 1828 1657 C 1822.632813 1657 1806.171875 1659.757813 1803.601563 1654 C 1800.253906 1646.148438 1805 1631.441406 1805 1623 C 1805 1597.199219 1804 1571.710938 1802.960938 1546 C 1801 1501.34375 1791.414063 1456.191406 1780.472656 1413 C 1772 1380.140625 1761.789063 1344.761719 1743.300781 1316 C 1732.605469 1299.359375 1716.890625 1286 1703 1272 C 1659 1228.148438 1605.605469 1192.089844 1549 1167 C 1524.96875 1156.152344 1500.503906 1147.265625 1476 1137.8125 C 1467.277344 1134.445313 1453.996094 1133.164063 1447 1127 C 1522 1130.222656 1592.289063 1155 1652 1201 C 1682.277344 1224.191406 1707.5625 1251.730469 1734 1279 C 1734.78125 1272.777344 1731.234375 1263 1729 1257 C 1767.214844 1281 1802.371094 1319.042969 1829 1355 L 1830 1355 C 1826.476563 1342.789063 1817 1330.535156 1810 1320 C 1792.597656 1293.820313 1773.347656 1270.292969 1750 1249.171875 C 1738.664063 1239 1722.804688 1230 1713.433594 1218 C 1707 1209.730469 1708.996094 1187.175781 1709 1177 C 1709 1173.738281 1708 1166 1712.277344 1164.660156 C 1715.84375 1163.652344 1722.597656 1167.652344 1726 1169 C 1738 1173.144531 1750 1177.621094 1762 1182.398438 C 1774.703125 1187.480469 1787.503906 1192.078125 1800 1197.695313 C 1819.554688 1206.484375 1838.765625 1215.570313 1858 1225 C 1853.714844 1216.226563 1839.945313 1210.066406 1832 1204.65625 C 1809.941406 1189.640625 1787.832031 1175.8125 1764 1163.757813 C 1753 1158.195313 1741.511719 1153 1730 1148.574219 C 1726.617188 1147.300781 1720.957031 1143.789063 1717.3125 1144.238281 C 1711 1145 1715.960938 1160.535156 1706.980469 1158.527344 C 1687.386719 1154.144531 1668.378906 1143.75 1649 1138.035156 C 1594.527344 1122 1534.722656 1107.476563 1478 1103 L 1478 1102 C 1529.535156 1098 1579.511719 1099.75 1630 1112.371094 C 1647.695313 1116.796875 1665 1122.222656 1682 1129 C 1689.207031 1132 1700 1139.023438 1707.867188 1139.074219 C 1711.925781 1139.097656 1713.734375 1132 1715.308594 1129 C 1719.460938 1121.335938 1727.441406 1099.695313 1737 1098.367188 C 1745.953125 1097.128906 1758.21875 1102 1767 1103.789063 C 1784.449219 1107.5 1801.785156 1111.289063 1819 1116.011719 C 1829.683594 1119 1840.992188 1124 1852 1125 L 1852 1124 C 1829.382813 1112.605469 1803.34375 1106.402344 1779 1100 C 1766.71875 1096.539063 1752.6875 1091.246094 1740 1090 C 1735.910156 1089.460938 1735.214844 1094.808594 1730.957031 1094.449219 C 1722.796875 1093.761719 1714 1090 1706 1088.308594 C 1686.546875 1084.671875 1666.710938 1082.0625 1647 1080.171875 C 1595.179688 1075.199219 1543.953125 1076 1492 1076 C 1504.363281 1069.144531 1522.230469 1069.558594 1536 1067.410156 C 1581.546875 1060.296875 1630.414063 1061.035156 1676 1067.578125 C 1693 1070.035156 1710.230469 1072.488281 1727 1076.730469 C 1732.8125 1078.199219 1741.4375 1082.222656 1746 1076.65625 C 1757.207031 1063.125 1765.71875 1045.34375 1774.175781 1030 C 1808.980469 967 1828 894.296875 1824.960938 822 C 1824 802.128906 1820.351563 782.480469 1816.691406 763 C 1815.175781 755 1811.453125 746.207031 1811.289063 738 C 1811 730.691406 1818.222656 722 1820.65625 715 C 1825.523438 701.113281 1827.34375 687.6875 1826.984375 673 C 1826 635.425781 1806.894531 600.265625 1803.171875 563 C 1801 541.648438 1806 520.242188 1806.960938 499 C 1808 473.542969 1805.636719 448.324219 1805 423 C 1803.613281 366 1788 303.480469 1766 251 C 1757.929688 231.714844 1747.386719 204.195313 1724 200.441406 C 1711.589844 198.445313 1699.578125 204 1689 209.695313 C 1667.355469 221.582031 1648.394531 238.632813 1631 256 C 1588.484375 298.449219 1551.316406 346.597656 1518.691406 397 C 1507.609375 414.121094 1496.894531 431.507813 1486.398438 449 C 1479.25 461 1472.773438 474 1462.714844 483.699219 C 1441 504.804688 1406.773438 493.003906 1380 493 C 1333.847656 493 1288.914063 496.628906 1244 508 C 1229.171875 511.585938 1214.425781 515.605469 1200 520.691406 C 1187.765625 525.007813 1174 531.109375 1161 531 C 1146.664063 531 1135.585938 520.507813 1126 511 C 1112 497.210938 1098.316406 483.417969 1084 470.089844 C 1031.207031 421 969.699219 371.820313 903 343 C 882.363281 334.082031 852 317.265625 829 325.550781 C 803 334.804688 809 381.441406 809 403 C 809 482.054688 830.636719 564.550781 858.574219 638 C 865.832031 657.078125 872.503906 675.476563 873.910156 696 C 875.632813 721.140625 871 745.824219 875.285156 771 C 877.453125 784 882.285156 796.171875 887.890625 808 C 890.449219 813.410156 895.828125 818.769531 895.855469 825 C 895.964844 848 889 872 888 895 C 886.410156 932.277344 896.515625 972.390625 909.574219 1007 C 921 1037.617188 936.625 1067.019531 956.652344 1093 C 962.25 1100.261719 970.214844 1114.347656 979 1117.800781 C 982.980469 1119.363281 989.863281 1117 994 1116.246094 C 1004.613281 1114.511719 1015.316406 1113.308594 1026 1112.164063 C 1062.503906 1108.257813 1098.441406 1110 1135 1110 M 1689 357 C 1684.597656 363 1669.9375 364.140625 1663 366.28125 C 1640.867188 373.113281 1619.296875 387 1597 392 C 1617.214844 369.242188 1659.519531 357.609375 1689 357 M 1708 388 L 1708 389 C 1675.519531 398.148438 1644.28125 409.214844 1614 424.246094 C 1598 432.1875 1581.863281 445.660156 1565 451 C 1571.738281 439.582031 1586 430.277344 1597 423 C 1629.6875 401.113281 1668.542969 388 1708 388 M 1703 423 C 1699.96875 427.039063 1693.527344 428 1689 430 C 1678.871094 434.222656 1668.667969 439.003906 1659 444.3125 C 1631.257813 459.546875 1606.5625 478.167969 1583 499.269531 C 1526.726563 549.785156 1491 620.820313 1450 683 C 1447.832031 676.742188 1454 667.078125 1455.972656 661 C 1463.285156 638.253906 1474.972656 616.574219 1486.988281 596 C 1532.34375 518.347656 1603.277344 425.058594 1703 423 M 1718 461 L 1718 462 C 1687.480469 472 1658.710938 484.144531 1630 498.503906 C 1616 505.457031 1602.53125 515.679688 1588 521 C 1592.59375 512 1604.980469 504.21875 1613 498.128906 C 1641.777344 476.285156 1681.570313 461.101563 1718 461 M 1007 482 L 1007 483 C 975.777344 483 944.417969 480 913 480 C 920 475.722656 930.894531 475.679688 939 475 C 961.28125 473 985.773438 474.207031 1007 482 M 1491 482 C 1479 518.476563 1464.894531 554.09375 1454.296875 591 C 1446.351563 618.671875 1440.433594 653.460938 1425 678 C 1422 665.738281 1429 644.222656 1432 632 C 1441.25 595.453125 1453.546875 560.550781 1468.574219 526 C 1472.828125 516.222656 1477.589844 506.710938 1481.976563 497 C 1484.238281 492 1486.285156 485.089844 1491 482 M 1719 502 L 1719 503 C 1645.683594 520 1582 576.238281 1528 625.171875 C 1511.480469 640.117188 1497.269531 659.132813 1479 672 C 1487 650 1508.371094 629.113281 1523.828125 612 C 1570.9375 560 1644.644531 502.007813 1719 502 M 1037 520 L 1037 521 C 1015.296875 520.550781 992.710938 515.234375 971 513.171875 C 950.558594 511.222656 930.410156 513 910 513 C 917.769531 507.214844 930.722656 507.796875 940 506.574219 C 972.824219 502.253906 1006.5 507.183594 1037 520 M 1168 716 L 1167 716 C 1150.171875 689.566406 1138.675781 659.585938 1126 631 C 1109.472656 593.003906 1092.257813 555.242188 1074 518 C 1079.753906 521 1082.683594 527.59375 1085.859375 533 C 1092.171875 543.734375 1098.949219 554.203125 1105 565 C 1132.355469 612.386719 1153.878906 663.171875 1168 716 M 1381 523 C 1386.308594 542.457031 1393.632813 561.214844 1397.984375 581 C 1405.6875 616.003906 1406.476563 650.570313 1402 686 L 1401 686 C 1397.6875 674.796875 1398.941406 661.617188 1397.828125 650 C 1395.183594 622.296875 1393.675781 594.464844 1388.539063 567 C 1386.671875 557.007813 1385 546.832031 1382.445313 537 C 1381.285156 532.738281 1378.792969 527.019531 1381 523 M 1080 574 C 1058.863281 570.40625 1037.757813 560.699219 1017 555.011719 C 987.542969 547 957.347656 542.394531 927 540 C 936.335938 535.039063 952.578125 536.050781 963 536 C 994.242188 536 1024.949219 542.761719 1053 556.753906 C 1061.925781 561.203125 1073.757813 566.027344 1080 574 M 1190 562 C 1180.625 612.472656 1185.578125 663.234375 1186 714 L 1184 714 C 1181.964844 700.226563 1177.503906 687.023438 1176.171875 673 C 1173.929688 649.480469 1176.621094 625.25 1179.871094 602 C 1181.472656 590.523438 1182.449219 571.097656 1190 562 M 1150 721 C 1134.492188 710 1122.328125 690.328125 1109.714844 676 C 1093 657.046875 1074 639.550781 1054 624.234375 C 1027.609375 604.09375 996.910156 589 965 580 C 949.675781 575.589844 932.945313 575.417969 918 571 C 923.195313 568.800781 929.445313 569.359375 935 568.828125 C 954.867188 567 974.796875 569 994 574.421875 C 1064.566406 594.535156 1121.964844 653.675781 1150 721 M 1645 605 L 1645 606 C 1610.972656 622 1576.847656 635.191406 1545 655.691406 C 1529.304688 665.796875 1514 676.28125 1499 687.378906 C 1490.660156 693.546875 1482.609375 702 1473 706 C 1479 692.199219 1495.679688 679.613281 1507 670 C 1534.660156 646.0625 1566.675781 628.292969 1601 616.140625 C 1614.617188 611.320313 1630.480469 605.632813 1645 605 M 1142 736 C 1135.242188 733.761719 1129.84375 728.453125 1124 724.507813 C 1112.734375 717 1101.3125 709.535156 1090 702 C 1061.644531 683.105469 1030.339844 666 999 652.425781 C 984.847656 646.371094 970.714844 641 956 636.347656 C 950.664063 634.683594 941.488281 634.589844 938 630 C 998.964844 630.167969 1063.390625 661.816406 1108 702 C 1119.761719 712.496094 1132.8125 723 1142 736 M 1780 652 C 1783.6875 663.632813 1784.195313 676.125 1786.886719 688 C 1796.84375 732 1804 778 1804 823 C 1796.304688 817.75 1792 799.445313 1787.753906 791 C 1775.789063 767.242188 1753 746.335938 1745 721 C 1757.667969 727 1767.605469 741 1778 750 C 1778 726.519531 1775.890625 703.542969 1776.960938 680 C 1777.351563 671.414063 1776.449219 660 1780 652 M 1140 761 C 1129.773438 759.027344 1119.257813 751.523438 1110 746.78125 C 1095.492188 739.351563 1080 733.160156 1065 727.203125 C 1025.285156 711.597656 985.570313 703.71875 944 696 C 956.226563 690.125 979.796875 695.113281 993 696.714844 C 1031.3125 701.359375 1069.496094 714.402344 1103 733.578125 C 1115.289063 740.613281 1131.324219 749.65625 1140 761 M 1598 756 C 1575.277344 746.257813 1555.167969 736.8125 1530 735.089844 C 1464.933594 730.632813 1423.246094 785.015625 1407.292969 842 C 1399.410156 870.171875 1398.878906 899.359375 1394.246094 928 C 1393.167969 934.65625 1392.304688 941.335938 1391.269531 948 C 1391 949.246094 1390.992188 953.792969 1389 953.792969 C 1386.328125 953.792969 1383.296875 935.632813 1382.871094 933 C 1379.304688 911.101563 1378 889.058594 1381.4375 867 C 1392 799 1432.285156 729.832031 1507 722 C 1531.9375 719.164063 1557.84375 723.539063 1579 737.675781 C 1585.640625 742.113281 1594.566406 748.695313 1598 756 M 909 750 C 915 766.019531 919.71875 782.453125 924 799 L 925 799 C 926 795.824219 927.339844 793 929 790 L 930 790 C 929.730469 822.5625 912.675781 853.199219 908 885 L 906 885 C 906 854.261719 908 823.773438 908 793 C 908 780.792969 904.292969 761.21875 909 750 M 1226 980 C 1217.289063 911.070313 1198.960938 810.519531 1116 797.589844 C 1106 796.042969 1095.777344 797.480469 1086 799.449219 C 1068.785156 803 1052.519531 811.363281 1039 822.425781 C 1031.6875 828.40625 1025.191406 837.558594 1017 842 C 1040.90625 784.597656 1114.457031 765.117188 1166 798.089844 C 1198.191406 818.683594 1217.546875 853.773438 1227 890 C 1233 912.347656 1235.902344 935 1232.570313 958 C 1231.671875 964.207031 1231.246094 976.023438 1226 980 M 1576 783 C 1586.183594 793.402344 1592.261719 805.820313 1595.339844 820 C 1605.351563 866.167969 1576.902344 912 1530 922 C 1484.894531 931.710938 1430.597656 899.511719 1430 850 C 1429.808594 833.8125 1432 819.164063 1438 804 L 1439 804 C 1439 835.746094 1451.347656 869.144531 1481 885 C 1511.636719 901.140625 1551.179688 888.722656 1564.851563 856 C 1570.605469 842.230469 1569.707031 827.371094 1567 813 C 1574.703125 817 1580 829.105469 1583 837 C 1588 826.300781 1584.292969 809 1580.960938 798 C 1579.527344 793.304688 1575.1875 788 1576 783 M 1543 791.34375 C 1564 788.078125 1570.507813 822.429688 1549 825.785156 C 1527.269531 829.179688 1521 794.722656 1543 791.34375 M 1635 797 C 1648.464844 845 1629.699219 898.347656 1589 927 C 1567.863281 941.824219 1543.367188 948.746094 1518 951.171875 C 1492.324219 953.621094 1463.441406 949 1440 937.832031 C 1430.644531 933.433594 1419.507813 926.660156 1415 917 C 1439 918.039063 1462.886719 928.75 1487 931.714844 C 1533.851563 937.472656 1584.554688 920.015625 1609.546875 878 C 1618.761719 862.507813 1625 844.585938 1628.789063 827 C 1630.53125 818.824219 1630 803.4375 1635 797 M 1066 844 C 1060.742188 856.648438 1057 868.066406 1058 882 C 1061 925 1105.851563 959 1147 938.625 C 1173 925.820313 1185 899.640625 1185 872 C 1189.582031 877.730469 1190.761719 887 1192.199219 894 C 1198.421875 924.625 1186.851563 951 1159 966.558594 C 1124.636719 985.785156 1079.230469 975.105469 1056.589844 943 C 1048.898438 932.09375 1043.710938 919.386719 1042.964844 906 C 1042 889.164063 1043.511719 874.070313 1051.929688 859 C 1055 853.335938 1059.53125 846 1066 844 M 1150 853.390625 C 1170.71875 849 1179.480469 882 1158.984375 886.605469 C 1137.476563 891.574219 1128 858.195313 1150 853.390625 M 1008 883 C 1016 902 1018.363281 921.136719 1030 939 C 1057.828125 981.199219 1106.195313 995.367188 1153 978.304688 C 1172.621094 971.152344 1185 954.550781 1203 946 C 1202.984375 970.667969 1177 987.25 1157 996.539063 C 1104.613281 1020.679688 1033.265625 995.320313 1012 941 C 1006.308594 926.445313 999.332031 897.46875 1008 883 M 1223 1011 C 1223 1033.429688 1220.25 1064.796875 1236.210938 1083 C 1246.453125 1094.65625 1261 1094 1274 1100.632813 C 1292.265625 1110.214844 1300.382813 1130.566406 1303 1150 C 1290.894531 1145.804688 1280.796875 1132.175781 1270 1125.078125 C 1256.4375 1116.164063 1238.394531 1113.796875 1226.324219 1102.765625 C 1207.941406 1086 1210.949219 1058 1214.917969 1036 C 1216.28125 1028.4375 1218 1017 1223 1011 M 1328 1035.300781 C 1340.171875 1033.566406 1353.371094 1036.355469 1365 1040 C 1372 1042 1376.738281 1048.03125 1369.65625 1054.429688 C 1361.769531 1061.550781 1350 1054.644531 1341 1055.324219 C 1327.195313 1056.367188 1317 1066.605469 1304 1068.492188 C 1293.675781 1070 1283.355469 1063.269531 1273 1063.015625 C 1262 1062.746094 1252 1069.027344 1242 1068.667969 C 1237.671875 1068.511719 1235.5 1064 1236.78125 1060 C 1245.242188 1034.484375 1280.308594 1046.007813 1298 1043.773438 C 1308 1042.492188 1317.675781 1036.769531 1328 1035.300781 M 1390 1063 C 1387.238281 1084.363281 1370.386719 1096.113281 1356 1110.089844 C 1342.558594 1123.222656 1329.84375 1140 1320 1156 C 1316.351563 1151.183594 1317.78125 1142 1318 1136 C 1318.886719 1116.722656 1328.726563 1098.515625 1346 1089.324219 C 1354.960938 1084.554688 1365.21875 1083 1374 1077.648438 C 1380.382813 1073.832031 1383.710938 1066.4375 1390 1063 M 691 1224 C 701 1221 710.539063 1214 720 1209.269531 C 732.933594 1203 746.644531 1197.503906 760 1192.011719 C 805.71875 1173.203125 853 1158 900 1142.671875 C 916.640625 1137.261719 933.191406 1131.121094 950 1126.296875 C 951.726563 1125.800781 966.183594 1123.070313 964.652344 1120.546875 C 963.222656 1118.179688 951.636719 1121 949 1121.015625 C 931.820313 1121.519531 914.824219 1126 898 1129 C 842 1139.011719 785.355469 1162.566406 737 1192.1875 C 726.179688 1198.816406 715.558594 1205.628906 705 1212.667969 C 700 1216 693.851563 1218.789063 691 1224 M 1725 1402 L 1724 1402 C 1679.746094 1317.613281 1610.882813 1257.078125 1530 1208.550781 C 1499.25 1190.101563 1464.769531 1169.488281 1430 1160 C 1436.816406 1157.164063 1446.890625 1161 1454 1162 C 1478 1165 1502 1173 1524 1183.164063 C 1591 1214.453125 1648.640625 1264.351563 1689.667969 1326 C 1703.539063 1347 1722.769531 1376.445313 1725 1402 M 750 1303 C 759.253906 1299.089844 767.355469 1291.421875 776 1286.203125 C 793.824219 1275.441406 812.375 1265.566406 831 1256.246094 C 892 1225.695313 955.210938 1200 1017 1171 C 1011.941406 1167.734375 1004.5625 1171.253906 999 1172 C 981.804688 1174.089844 964.636719 1178.507813 948 1183.289063 C 891.8125 1199.441406 840 1226.746094 794 1262.574219 C 783.894531 1270.421875 774.453125 1279.089844 764.832031 1287.511719 C 759.597656 1292.089844 752.984375 1296.617188 750 1303 M 1399 1215 C 1381.519531 1212.777344 1363 1208.726563 1347 1201.21875 C 1340.882813 1198.351563 1328.542969 1187.074219 1322 1188 C 1316.558594 1188.53125 1310 1198.246094 1306 1201.675781 C 1295.414063 1210.484375 1278.769531 1223.515625 1265 1226 C 1275 1212.035156 1291.203125 1199.390625 1304 1187.828125 C 1308.535156 1183.734375 1313.722656 1177 1320 1175.472656 C 1326.597656 1174.03125 1334.542969 1180.738281 1340 1183.691406 C 1353.523438 1191.003906 1367.222656 1198.121094 1381 1205 C 1386.234375 1207.535156 1395.800781 1210.175781 1399 1215 M 1221 1189 C 1211.367188 1202.078125 1194.273438 1211.628906 1182 1222.289063 C 1156.894531 1244.09375 1133 1267.722656 1111.429688 1293 C 1088.699219 1319.578125 1067.9375 1348.035156 1051.550781 1379 C 1042.339844 1396.40625 1036.871094 1417.816406 1026 1434 C 1024.808594 1426.605469 1028.238281 1417.15625 1030.289063 1410 C 1035.300781 1392.546875 1041 1375.554688 1048.628906 1359 C 1073.902344 1303.171875 1114.867188 1251.421875 1166 1217.332031 C 1182.679688 1206.214844 1201.476563 1194.339844 1221 1189 M 1596 1362 L 1595 1362 C 1574.960938 1317.699219 1546.84375 1278.191406 1509 1247.308594 C 1492.964844 1234.226563 1476 1222 1459 1210.175781 C 1451.46875 1205 1440.648438 1201.195313 1435 1194 C 1495.902344 1202.199219 1547.566406 1254.683594 1575.308594 1306 C 1584.328125 1322.6875 1594.433594 1342.796875 1596 1362 M 1233 1219 C 1221 1236 1203 1250 1189 1265 C 1165.601563 1290.21875 1144.410156 1318.621094 1128 1349 C 1118.890625 1366.105469 1111.316406 1384.414063 1105.71875 1403 C 1103.746094 1409.554688 1102.738281 1423 1097 1427 C 1098.351563 1361.554688 1131.554688 1294.40625 1181 1252 C 1194.796875 1240.222656 1214.640625 1222.3125 1233 1219 M 1476 1239 C 1474.285156 1244.621094 1468.226563 1249 1464 1253 C 1451.933594 1264.128906 1437.515625 1273.136719 1423 1280.78125 C 1372.691406 1307.277344 1316 1308 1264 1286.191406 C 1249 1280 1227.640625 1270.535156 1217 1258 C 1228 1258.480469 1239.207031 1263.03125 1250 1265.339844 C 1271.859375 1270.011719 1293.65625 1274.378906 1316 1276 C 1372.386719 1279.773438 1424.535156 1259 1476 1239 M 1584 1444.285156 C 1662.378906 1435.035156 1731 1493.738281 1768.597656 1557 C 1788.914063 1591.273438 1798.277344 1644.257813 1754 1664.691406 C 1747.195313 1667.832031 1740.4375 1669.824219 1733 1670.714844 C 1722.699219 1672 1711.632813 1670.613281 1702 1666.742188 C 1697.597656 1665 1692.695313 1660 1688 1659.570313 C 1680.554688 1659.035156 1671.414063 1667.550781 1663 1668 C 1654.5 1668.371094 1646 1668.300781 1638 1665.480469 C 1633.734375 1664 1629.464844 1659.714844 1625 1659.316406 C 1616.222656 1658.539063 1604.839844 1666.757813 1595 1667 C 1585.730469 1667.125 1576.523438 1660.660156 1568 1661.117188 C 1558.34375 1661.640625 1550.59375 1668.683594 1540 1668 C 1532.890625 1667.390625 1524.835938 1662 1518 1662.527344 C 1513.191406 1663.003906 1508.789063 1666.640625 1504 1667.621094 C 1486.742188 1671.15625 1469.21875 1666.5625 1455 1656.429688 C 1421.519531 1632.539063 1420.847656 1584 1433.585938 1549 C 1456.425781 1486.402344 1521.257813 1451.6875 1584 1444.285156 M 1514 1629 L 1515 1629 C 1518.882813 1642.394531 1527.941406 1649.347656 1542 1649 C 1545.84375 1649 1554 1648.125 1555.699219 1643.773438 C 1556.9375 1640.425781 1552.871094 1635.046875 1551.648438 1632 C 1548.269531 1623.582031 1545.441406 1614.121094 1545 1605 C 1542.816406 1554.65625 1568 1506.316406 1620 1494 C 1613.425781 1503.035156 1604.292969 1510.179688 1597.375 1519.039063 C 1579 1542.53125 1564.367188 1571.691406 1563 1602 C 1562.550781 1613.203125 1562.71875 1626.183594 1568.992188 1636 C 1578.917969 1651.480469 1602.804688 1651.355469 1616.984375 1642.519531 C 1628.234375 1635.511719 1626.976563 1609.089844 1630.425781 1597 C 1638.226563 1569.675781 1653.464844 1546.59375 1679 1533 C 1657.230469 1561 1634 1585.117188 1629.289063 1622 C 1625.695313 1649.65625 1661.832031 1658.457031 1680.65625 1643.035156 C 1685.226563 1639.289063 1684.203125 1631.304688 1685.890625 1626 C 1688 1619 1692.964844 1613.265625 1698 1608 C 1697.179688 1618.367188 1692.285156 1632.761719 1699.429688 1642 C 1717.203125 1665 1754.449219 1644 1759.332031 1621 C 1766 1589.4375 1736.566406 1553.453125 1717 1532 C 1698.953125 1512.210938 1678.90625 1494.035156 1654 1483.285156 C 1595.632813 1458.101563 1524 1475 1482.289063 1523 C 1458.207031 1550.675781 1438.988281 1600.066406 1467.183594 1632 C 1474.546875 1640.335938 1500.921875 1657.546875 1511 1643.773438 C 1514 1639.757813 1513.988281 1633.742188 1514 1629 M 1131 1487.285156 C 1146.277344 1485.484375 1164 1489 1179 1492.625 C 1226.230469 1504.226563 1270.542969 1534.667969 1292.394531 1579 C 1312.371094 1619.527344 1304.265625 1686.660156 1250 1693.710938 C 1238.789063 1695.167969 1229.703125 1689.257813 1219.425781 1689.273438 C 1213.167969 1689.285156 1206.742188 1694.515625 1200 1695 C 1193.246094 1695.300781 1187.351563 1690.769531 1181 1691 C 1169 1691.339844 1159.234375 1699.152344 1146 1697.828125 C 1136.628906 1697 1127.554688 1689.714844 1119 1689.234375 C 1114.523438 1689 1109.183594 1694.09375 1105 1695.675781 C 1095.515625 1699.269531 1085 1701.027344 1075 1699.710938 C 1067.722656 1698.765625 1060.367188 1696.65625 1054 1693 C 1050.394531 1691 1046 1686.296875 1042 1685.523438 C 1037 1684.585938 1028.320313 1690.570313 1023 1691.535156 C 1006.554688 1694.523438 987 1692 973 1682.226563 C 932.886719 1654.351563 938 1605 964.886719 1570 C 1005.605469 1517.019531 1067.421875 1494.78125 1131 1487.285156 M 1042 1635 C 1046.847656 1640.28125 1050.945313 1646 1052.480469 1653 C 1053.902344 1659.597656 1052.390625 1667.449219 1058 1672.238281 C 1071.792969 1683.699219 1100 1685.191406 1111 1669 C 1115.875 1662.078125 1115.3125 1653 1114.960938 1645 C 1113.464844 1611.125 1089.226563 1582 1069 1557 C 1094 1571 1110.863281 1595.171875 1116.984375 1623 C 1119.957031 1636.507813 1116.230469 1664.671875 1128 1672.636719 C 1142.441406 1682.402344 1167.972656 1682.738281 1179.472656 1668 C 1186.753906 1658.660156 1188 1646.402344 1188 1635 C 1187.988281 1609 1177.675781 1582.179688 1162.960938 1561 C 1155.648438 1550.476563 1146.292969 1541.476563 1139 1531 C 1182.734375 1548 1207 1584.699219 1204.960938 1632 C 1204.507813 1642.324219 1202 1652.445313 1198.199219 1662 C 1196.984375 1665.011719 1192.34375 1671.277344 1194 1674.488281 C 1195.667969 1677.230469 1201.226563 1677.820313 1204 1677.820313 C 1217.511719 1677.820313 1221.296875 1668.519531 1229 1660 C 1229 1663.0625 1227.953125 1668.625 1230 1671.144531 C 1237.726563 1680.492188 1258.398438 1667 1263.699219 1661 C 1288.445313 1633.351563 1273.570313 1589.351563 1251.824219 1565 C 1192 1498 1093.710938 1502.253906 1025 1552.152344 C 1001.691406 1569.078125 972.273438 1593.636719 971 1625 C 970.300781 1643.808594 981.703125 1661.488281 999 1668.652344 C 1013 1674.515625 1035.59375 1670.078125 1041 1654 C 1043.207031 1647.480469 1042.523438 1641.648438 1042 1635 M 82 1759.027344 C 79.585938 1761.46875 80.199219 1770.777344 84 1771.398438 C 91.453125 1772.546875 100.511719 1771 108 1771 L 1881 1771 C 1886 1771 1902.601563 1773.652344 1905.972656 1769.398438 C 1915.71875 1757.089844 1894.71875 1758 1889 1758 L 105 1758 C 100.226563 1758 85.511719 1755.542969 82 1759.027344 M 82 1787 C 80 1789 83.84375 1789.828125 85 1790 C 90.617188 1790.460938 96.417969 1790 102 1790 L 1881 1790 C 1886.457031 1790 1901.746094 1792.5 1905.824219 1788.136719 C 1907.679688 1786.148438 1901.65625 1786.015625 1900.996094 1786.003906 C 1895 1786 1888.996094 1786 1883 1786 L 105 1786 C 100.300781 1786 85.507813 1783.550781 82 1787 "/></g></svg>