<svg xmlns="http://www.w3.org/2000/svg" xmlns:xlink="http://www.w3.org/1999/xlink" viewBox="0 0 100 100" version="1.1"><g transform="translate(4.352055038616356, 1) scale(0.04889885957925009) translate(-136.226563, 2.871094)"><path style=" stroke:none;fill-rule:nonzero;fill:rgb(0%,0%,0%);fill-opacity:1;" d="M 1435 832 L 1434 832 C 1432.300781 856.054688 1436.992188 883.480469 1448 905 C 1437.773438 900.441406 1430 889.460938 1424.71875 880 C 1411 856.074219 1404.480469 824 1413.191406 797 C 1415.871094 788.730469 1420 781.011719 1425 774 C 1427.746094 770.429688 1432.734375 766.371094 1433.667969 762 C 1434.714844 757.003906 1430.988281 751.808594 1430.195313 747 C 1428.640625 737.597656 1431 729.175781 1430.523438 720 C 1430 714.296875 1425.457031 709.714844 1422.726563 705 C 1417.75 696.296875 1413.640625 687.296875 1410 678 C 1398.988281 650 1393 619.511719 1387.375 590 C 1372 510.617188 1369.40625 429.027344 1356.324219 349 C 1350.640625 314.234375 1344 278.019531 1331.203125 245 C 1324.371094 227.5625 1317.492188 210.183594 1304.824219 196 C 1299.640625 190.191406 1293.761719 184.792969 1287 181 C 1244.277344 156.132813 1199.871094 191.0625 1174 224 C 1157.808594 245 1143.371094 267 1130.28125 290 C 1106.800781 331.300781 1087.191406 375 1069.550781 419 C 1053.53125 459.015625 1030.199219 505.285156 1028.300781 549 C 1026.960938 579.796875 1039.925781 610.023438 1045 640 L 1044 640 C 1036.46875 619.117188 1029.695313 598.800781 1025.371094 577 C 1024.371094 572 1025.492188 558.089844 1020.484375 555.199219 C 1016.449219 553 1005.738281 555 1001 555 C 981.621094 555.03125 962 557.128906 943 559.789063 C 860.917969 571.226563 782.902344 596.308594 707 629.425781 C 684.882813 639.074219 663 651.632813 643 665 C 638.550781 668 624.429688 675.308594 623.632813 681.039063 C 622.792969 687.050781 640.605469 696.691406 644.910156 700 C 661.535156 712.601563 682 732.78125 689 753 C 668 734 651 713.148438 627 697.382813 C 608.242188 685.109375 586.628906 682 567 671.742188 C 542.695313 659.15625 519.683594 640.230469 497 624.804688 C 457.710938 598.089844 414.949219 575.066406 372 554.78125 C 360.183594 549.199219 348 544.015625 336 539.011719 C 281.914063 516.585938 193.371094 488.65625 152.59375 549 C 147.433594 556.636719 143.695313 565.171875 141 574 C 137.664063 586.152344 136.226563 599.371094 137 612 C 138.484375 632.359375 142.863281 652.523438 148.859375 672 C 179.402344 771.179688 241.976563 859 296.316406 946 C 320.382813 984.5625 338.394531 1026.03125 361.453125 1065 C 367 1074.640625 373.492188 1083.640625 381.425781 1091.574219 C 385.507813 1095.660156 393.214844 1100 395.78125 1105.105469 C 397.457031 1108.4375 396 1113.382813 396 1117 C 395.957031 1126.332031 396 1135.667969 396 1145 C 396 1171.53125 398.347656 1198.167969 404.589844 1224 C 415.585938 1269.492188 434.339844 1312.640625 459.691406 1352 C 467.476563 1364.085938 475.820313 1375.773438 484.800781 1387 C 487 1390 493.847656 1395.75 493.234375 1399.789063 C 492.679688 1403.445313 484.855469 1406.597656 482 1408.253906 C 469.855469 1415.308594 456.605469 1420.585938 444 1426.753906 C 391.636719 1452.378906 336.726563 1472.335938 284 1497 L 284 1498 C 302 1497.613281 322.894531 1488 340 1482.167969 C 379.910156 1468.820313 419 1453.460938 458 1437.597656 C 469.460938 1433 480.773438 1428 492 1422.703125 C 496.277344 1420.722656 502.304688 1416.515625 507 1416.167969 C 512 1415.796875 516.527344 1422.648438 519.425781 1426 C 528.789063 1437 538.871094 1447 549 1457 C 551.6875 1459.6875 561 1466.277344 559 1470.714844 C 557.507813 1474.332031 552 1477.210938 549 1479.421875 C 540.882813 1485.261719 532.921875 1491.246094 525 1497.347656 C 496 1519.636719 466.339844 1541.824219 439 1566.050781 C 430.429688 1573.644531 421.773438 1581.230469 413 1588.585938 C 409.59375 1591.441406 404.675781 1594.21875 405 1599 C 444.480469 1574.636719 483 1547.242188 521 1520.425781 C 537 1509.027344 556.632813 1499.027344 570.847656 1485.335938 C 575.921875 1480.445313 568 1476.554688 572.257813 1472 C 583.902344 1459.144531 600.425781 1448.304688 614 1437.484375 C 635.597656 1420.308594 656.445313 1402.175781 678 1385 C 705.792969 1363 734.566406 1342.066406 762 1319.613281 C 771.570313 1311.78125 788.5625 1302.148438 794 1291 C 784.714844 1295.152344 775.523438 1300.535156 766 1304 C 775.441406 1292.105469 785.953125 1282.148438 798 1273 C 803.898438 1268.355469 814.359375 1264.414063 818 1258 C 798.6875 1262.019531 779.289063 1272.230469 761 1279.550781 C 698.328125 1304.640625 641.324219 1342 581 1372 C 562.539063 1381.011719 544 1390.144531 525 1397.800781 C 523.273438 1398.488281 506 1405.71875 506 1402.824219 C 506 1398.765625 521.746094 1391.5625 525 1389.601563 C 545 1377.480469 565.582031 1366.113281 586 1354.574219 C 637 1325.679688 689.886719 1299 743 1273.78125 C 769 1261.445313 791.382813 1247 814 1229 C 820.328125 1224 831.390625 1219.296875 836 1213 C 820 1213.054688 807.625 1222.65625 795 1231 C 809.9375 1204.78125 839.785156 1189 866 1176.257813 C 873.378906 1172.691406 881.1875 1169.347656 889 1167 C 890.765625 1166.304688 895.792969 1165.699219 895.792969 1163.101563 C 895.792969 1160.4375 889.777344 1157.46875 888 1156 C 880.796875 1149.726563 873.789063 1143.320313 869 1135 C 880.394531 1142.503906 891.65625 1148 905 1151.335938 C 915.246094 1154 925.546875 1155 936 1156.285156 C 981.527344 1162.097656 1053 1175.078125 1053 1234 C 1053 1243.28125 1050.726563 1251.535156 1046.90625 1260 C 1039.933594 1275.445313 1027.863281 1289.132813 1016 1301 C 1009.679688 1307.320313 999.871094 1314 996 1322 L 995 1322 L 998 1308 C 991.449219 1311.316406 986.191406 1318.808594 981 1324 C 972.644531 1332.351563 963.363281 1339.660156 955 1348 C 958.96875 1338.742188 965.730469 1329.121094 967 1319 C 960.316406 1322.183594 955.222656 1329.777344 950 1335 C 937 1348 920.972656 1362.148438 913 1379 L 912 1379 C 913.648438 1365.472656 920.71875 1351.476563 927.746094 1340 C 931 1334.613281 935.964844 1330 938 1324 C 928 1331.023438 920.386719 1341.28125 911.960938 1350.003906 C 867.476563 1396.050781 842 1456.433594 831.675781 1519 C 829 1534.734375 826 1551.007813 826 1567 C 826 1571.414063 824.628906 1578.644531 826.601563 1582.683594 C 829.519531 1588.644531 850 1587.363281 856 1589.183594 C 876.199219 1595.351563 894.71875 1610 910 1624.089844 C 961.488281 1672.03125 991.773438 1735.035156 1026.574219 1795 C 1060.808594 1854 1103.71875 1912.796875 1164 1947.28125 C 1178 1955.324219 1192.578125 1963.15625 1208 1968.316406 C 1211.285156 1969.417969 1220 1973.613281 1223.398438 1971.761719 C 1226.605469 1970 1225 1960.136719 1225 1957 C 1225 1941.566406 1226.433594 1925.308594 1224.425781 1910 C 1222 1892.441406 1224.699219 1871.699219 1225.910156 1854 C 1228.589844 1815 1231.847656 1776.453125 1240.5 1738 C 1258.261719 1659.066406 1292.351563 1584.074219 1335.695313 1516 C 1375.335938 1453.738281 1424 1397.464844 1460.285156 1333 C 1488.320313 1283.066406 1510 1232 1518.207031 1175 C 1520.480469 1159.25 1526.449219 1139.089844 1523.511719 1123.148438 C 1522.628906 1118.34375 1513.507813 1120 1510 1120.003906 C 1496.441406 1120.164063 1480.203125 1119.332031 1467 1122.304688 C 1452.703125 1125.523438 1435.699219 1124.082031 1421 1125.089844 C 1388 1127.339844 1354 1130.746094 1322 1138.410156 C 1311 1141.03125 1299.78125 1143 1289 1146.34375 C 1284.835938 1147.671875 1279.429688 1148.207031 1277 1152 C 1345.71875 1152 1411.699219 1177.066406 1480 1180 L 1480 1181 C 1434 1189.523438 1389.390625 1179.03125 1344 1174.175781 C 1312.589844 1170.808594 1282 1173.097656 1251 1174 L 1251 1176 C 1274.339844 1176 1295 1176.226563 1318 1182 C 1326.976563 1184.027344 1339.519531 1186.011719 1346 1193 C 1315.726563 1183.402344 1283.816406 1190 1253 1190 L 1253 1192 C 1277.179688 1194 1311 1207.71875 1322 1231 C 1310.3125 1224.355469 1296 1223 1283 1220.675781 C 1264.269531 1217.554688 1245 1215 1226 1215 L 1226 1217 C 1248.8125 1218 1271.847656 1230 1292 1239.742188 C 1341.960938 1264 1392.53125 1293.621094 1424 1341 C 1407 1329.800781 1392.519531 1314.664063 1376 1302.746094 C 1327.304688 1267.605469 1273.816406 1238.800781 1213 1234 C 1215.691406 1238.40625 1221.632813 1238.742188 1226 1241.175781 C 1234.863281 1246.105469 1245.824219 1251.765625 1252 1260 C 1231.703125 1252.421875 1209.507813 1246 1188 1243 C 1194.636719 1251.039063 1205.613281 1256.789063 1214 1263 C 1194.664063 1262.371094 1173.320313 1256.644531 1155 1251 C 1156.644531 1254 1158.875 1256.351563 1161 1259 C 1147.179688 1255.386719 1133.324219 1252.597656 1121 1245 C 1114.617188 1241 1108.949219 1235.695313 1104 1230 C 1070.65625 1190.769531 1096.6875 1141.058594 1126.664063 1108.574219 C 1138.433594 1095.824219 1161.652344 1083.746094 1164 1065 L 1166 1065 C 1166 1072 1164.308594 1078.226563 1164 1085 C 1177.203125 1081.710938 1189.78125 1076 1203 1072.578125 C 1221.199219 1068 1239.449219 1065.644531 1258 1063.429688 C 1265.40625 1062.542969 1273.707031 1064.246094 1281 1065.574219 C 1282.359375 1065.824219 1287.945313 1066.074219 1287.945313 1068.195313 C 1287.945313 1071 1277.773438 1070 1276 1070.183594 C 1266.972656 1071.265625 1247.671875 1075.710938 1243 1084 C 1265.617188 1079.355469 1288.632813 1083.453125 1311 1079.535156 C 1355.214844 1071.789063 1398.171875 1055.414063 1442 1045.5 C 1462.957031 1040.757813 1483.882813 1037.347656 1505 1033.613281 C 1509.875 1032.753906 1523.539063 1033.40625 1526.972656 1030 C 1530.558594 1026.382813 1525.847656 1018.617188 1529 1014.601563 C 1531 1012 1537 1013 1540 1013.039063 C 1548.699219 1013.421875 1557.253906 1014 1566 1014 C 1568.910156 1014 1573.949219 1013.089844 1576.398438 1015.027344 C 1579 1017.148438 1578 1023.019531 1578 1026 C 1577.996094 1036.40625 1576.171875 1046.664063 1575.171875 1057 C 1570.933594 1100.730469 1562.59375 1145.003906 1549.503906 1187 C 1525.242188 1264.816406 1498 1339.273438 1460.742188 1412 C 1414.242188 1502.652344 1356.535156 1587 1316.421875 1681 C 1297 1726.453125 1280.453125 1773.527344 1270.511719 1822 C 1263.78125 1854.824219 1261.621094 1888 1257.714844 1921 C 1255.367188 1941 1258 1961.066406 1258 1981 C 1258 1984.800781 1255.902344 1998.203125 1260.316406 1999.683594 C 1265 2001.265625 1272 2000 1277 2000 L 1987 2000 C 1989.9375 2000 1996.703125 2001.242188 1998.972656 1999 C 2003 1995 2000 1975.742188 2000 1970 L 2000 33 C 2000 25.332031 2003.261719 8.222656 1999.398438 1.601563 C 1998 -0.640625 1994 0.00390625 1992 0 L 1484 0 C 1478.578125 0 1460.925781 -2.871094 1457 1.027344 C 1453 5.050781 1457 22.472656 1457 28 C 1457 56 1461.726563 83.328125 1462.960938 111 C 1464.769531 151.554688 1472 193 1478.675781 233 C 1491.394531 311 1503.542969 388.519531 1518.246094 466 C 1524.382813 498.339844 1531.777344 530.480469 1537 563 C 1538.21875 569.503906 1545.554688 589 1541.304688 594.363281 C 1537.828125 599 1528 600.117188 1523 602.226563 C 1511.691406 607 1500.679688 613.199219 1492 622.015625 C 1485 629.148438 1478.632813 639 1477.210938 649 C 1476.378906 655 1479 663.546875 1475.972656 669 C 1473.828125 672.617188 1468.320313 674 1465 676.527344 C 1458.476563 681.523438 1452 688 1447.863281 695 C 1432 721.207031 1438.199219 746.722656 1446.324219 774 C 1447.386719 777.542969 1445.21875 780.507813 1446 784.015625 C 1448.648438 793.191406 1457 801.714844 1464 807.824219 C 1484 825.792969 1510 834.714844 1534 846.257813 C 1549.617188 853.816406 1562.726563 863.660156 1577 873.328125 C 1586 879.460938 1595.65625 885.039063 1604 892.132813 C 1606.605469 894.351563 1611.1875 897.1875 1611.289063 901.015625 C 1611.460938 907.457031 1603 914 1598 916.402344 C 1582.316406 924.324219 1564.722656 922.582031 1548 919.679688 C 1499.488281 911.253906 1447.550781 883 1435 832 M 1090 489 C 1073.421875 541.1875 1070 597.601563 1070 652 C 1065.269531 644.117188 1066 633 1064.871094 624 C 1060.386719 591.75 1065.976563 557.050781 1074.460938 526 C 1077 516.339844 1081.40625 494.671875 1090 489 M 1115 539 C 1112.910156 560 1102.9375 582.136719 1098.511719 603 C 1093.921875 624.628906 1095 649.207031 1088 670 L 1087 670 C 1082.738281 636.269531 1085.601563 601.816406 1098.203125 570 C 1102 560.164063 1107.226563 546.300781 1115 539 M 1176 584 C 1167.652344 594.816406 1153.65625 602.15625 1144 612.324219 C 1123 634.722656 1108.808594 661 1099 690 C 1096 682.015625 1101.238281 668 1103.445313 660 C 1112.179688 628.484375 1141.714844 590.113281 1176 584 M 1197 609 L 1197 610 C 1180 619.488281 1163.433594 627.714844 1149 641.089844 C 1139.734375 649.675781 1130.203125 665.539063 1119 671 C 1129.433594 640.464844 1163.730469 610.703125 1197 609 M 1522.851563 628.4375 C 1526 628.53125 1530.398438 639.3125 1533 642 C 1542.636719 652 1554.804688 662.007813 1558.390625 676 C 1561.519531 688.214844 1555.183594 699.226563 1542 699 C 1523.824219 698.648438 1503.363281 686.523438 1497 669 C 1490.628906 651.347656 1501.710938 627.804688 1522.851563 628.4375 M 1202 647 C 1198.675781 652.203125 1188.613281 653.574219 1183 655.800781 C 1167 662.117188 1152.746094 673.226563 1137 679 C 1150.597656 656.730469 1178.527344 651.375 1202 647 M 1478.960938 698.097656 C 1482 698 1485.53125 701.363281 1488 703 C 1494.519531 706.78125 1500.949219 710.515625 1508 713.398438 C 1522.359375 719.265625 1538.179688 724.132813 1551 733.039063 C 1563.804688 742 1573.503906 754.433594 1585 764.828125 C 1593 772.117188 1605.664063 779.105469 1610.679688 789 C 1617.535156 802.523438 1594.929688 812.625 1585 813.816406 C 1545.519531 818.554688 1493 796.234375 1470.4375 764 C 1459.886719 749.003906 1455.882813 730.027344 1463.59375 713 C 1465.910156 708 1472.679688 698.476563 1478.960938 698.097656 M 701 791 C 688.925781 785.402344 678.65625 774.082031 667 767.230469 C 632.828125 747.140625 593.667969 729.019531 554 724 L 554 722 C 594.695313 722 634.808594 735.644531 668 759.296875 C 679.890625 767.769531 693.597656 778.191406 701 791 M 1328 773 C 1308.964844 772.128906 1289.371094 761.464844 1272 754.453125 C 1245.824219 744 1219 737.035156 1191 742.375 C 1141.363281 751.808594 1109 800.226563 1109 849 C 1109 860.792969 1107.328125 882.464844 1117 891 C 1111.632813 862.089844 1125.316406 827.074219 1141.859375 804 C 1149.175781 793.792969 1159.726563 782.359375 1173 781 C 1169.574219 787.085938 1164 792 1160.464844 798 C 1153.929688 809.199219 1152.8125 823.292969 1154.175781 836 C 1159.300781 884 1217.714844 933.660156 1265 905.546875 C 1326.867188 868.765625 1283.976563 776 1223 767 C 1233.582031 762.558594 1251.214844 770.382813 1261 774.652344 C 1303.964844 793.410156 1323 849 1300 890 C 1276 933 1223.769531 946.046875 1178 941.230469 C 1156.859375 939.007813 1134.558594 933.050781 1120.324219 916 C 1109.179688 902.644531 1106.710938 887.40625 1103.625 871 C 1092.453125 811.621094 1127.761719 743.644531 1190 732.425781 C 1211.898438 728.476563 1235 731 1256 737.832031 C 1274 744 1291 753.054688 1308 761.742188 C 1314.4375 765.042969 1323.21875 767.519531 1328 773 M 690 753 C 690.984375 754.480469 691 754.203125 691 756 C 689.710938 754.558594 689.597656 754.765625 690 753 M 677 795 C 629.226563 773.640625 569.359375 765.253906 519 781 C 526.589844 773.328125 540.761719 770.238281 551 768 C 582 760.710938 617.988281 762.304688 647 776.753906 C 655.609375 781.042969 672.421875 786.132813 677 795 M 1185 790.304688 C 1215.945313 785.523438 1222.851563 830.269531 1191 833.773438 C 1163.757813 836.773438 1157.628906 794.53125 1185 790.304688 M 664 803 L 664 804 C 639 804 615 800.285156 590 803.285156 C 577.664063 804.765625 564.964844 806.628906 553 810.039063 C 544.496094 812.460938 535.730469 817 527 818 C 534.683594 810.078125 547.730469 806 558 802.507813 C 594.363281 790.339844 627.574219 795.523438 664 803 M 1331 810 C 1340.90625 816.582031 1351.191406 820.714844 1358 831 C 1345.882813 830.054688 1338 836 1334.59375 848 C 1329 867.386719 1329.457031 887.183594 1321 906 C 1297.9375 958.46875 1235.460938 976.035156 1183 963.332031 C 1166.683594 959.382813 1139.699219 950.371094 1132 934 C 1146.875 939.414063 1159 947.285156 1175 950.484375 C 1224.980469 960.511719 1286.554688 941.492188 1311.214844 894 C 1321.273438 874.632813 1323.570313 851.171875 1327.539063 830 C 1328.707031 823.773438 1328.605469 815.707031 1331 810 M 648 834 L 648 836 C 612.609375 840.316406 582.820313 864.261719 553 881 C 556.921875 872.585938 565.773438 866.492188 573 861 C 594.609375 844.570313 620.59375 834 648 834 M 943 873 C 954.601563 897.816406 973.261719 918.773438 998 930.742188 C 1012.175781 937.597656 1038.488281 940.335938 1047 955 C 1032.878906 949.015625 1011.9375 950 1001 962 C 1014.398438 959.402344 1028.53125 960.195313 1041 966 L 1041 967 C 1031 967 1018.320313 967.308594 1011 975 C 1023.578125 975 1034.28125 976.195313 1046 981 L 1046 982 C 1038.914063 981.753906 1030.230469 980.339844 1025 986 C 1037 986 1062.359375 989.203125 1070 1000 C 1059.292969 998.558594 1051.644531 998.375 1041 1001 L 1041 1002 C 1077.785156 1005.003906 1111.417969 1034.476563 1123 1069 C 1104.367188 1060.363281 1088.191406 1044.222656 1067 1059.789063 C 1055 1068.570313 1051.949219 1082.746094 1036 1087 C 1021.339844 1091 1008.238281 1084 994 1082.183594 C 979 1080.425781 962.304688 1090 954.300781 1102 C 949 1109.8125 947 1118.757813 943 1127 L 942 1127 C 937.730469 1092.464844 948.640625 1054.484375 976 1032 C 966.839844 1031.742188 962.25 1039 955 1043 C 957.496094 1032.367188 967.464844 1023.53125 977 1019 L 977 1018 C 968.578125 1020 961.339844 1025.496094 953 1027 C 959 1018.21875 966.726563 1011.59375 974 1004 C 967.722656 1004 963 1006 957 1007 L 957 1006 C 962.425781 1001.378906 967.625 996.800781 975 996 C 967.570313 989.746094 956.375 997.230469 949 1000 C 951.371094 991.527344 960.558594 985.464844 967 980 C 951.796875 979.214844 943 988 930 993 C 939.683594 969.394531 950 946 950 920 C 949.953125 910.28125 948.644531 900.386719 946 891 C 944.753906 885.792969 941 878.1875 943 873 M 796 961 C 775.265625 941.828125 756.511719 923.597656 729 914.367188 C 684.613281 899.472656 635.398438 916.3125 606.667969 953 C 591 973 583.265625 995.757813 577.410156 1020 C 573.976563 1034.21875 572.664063 1048.8125 569.40625 1063 C 568.21875 1068.167969 563.570313 1077.699219 565.402344 1083 C 566.960938 1087.261719 575.363281 1090.445313 579 1093.039063 C 592.285156 1102.523438 603.945313 1111.570313 619 1118.304688 C 673.976563 1143 748.171875 1127.8125 788.484375 1083.285156 C 802.863281 1067.40625 807.925781 1050.007813 816 1031 L 817 1031 C 817 1043.734375 816 1056 811.921875 1068 C 786.789063 1141.035156 697.777344 1164.550781 630 1143.796875 C 612.84375 1138.539063 597.605469 1130.285156 583 1120 C 576 1115.070313 567.902344 1104.78125 559 1104.03125 C 542.203125 1102.625 527.84375 1127.414063 514 1134 C 526.980469 1115.019531 542.804688 1098 550.945313 1076 C 560.25 1051 563.410156 1024.542969 570.871094 999 C 580.902344 964.671875 602.808594 932.132813 635 915.363281 C 676.296875 894 730.648438 894.75 768 924.015625 C 776.988281 931.054688 796.761719 948.429688 796 961 M 1430 903 C 1435.980469 905.785156 1440.59375 911.160156 1446 915 C 1456.898438 922.628906 1468.53125 929.765625 1480 936.546875 C 1501.222656 949.105469 1524.324219 956.234375 1548 962.289063 C 1557.664063 964.761719 1568 965.257813 1578 967 C 1579.855469 967.230469 1587.503906 967.273438 1587 970.226563 C 1586.488281 974.558594 1578.484375 978.347656 1575 979.800781 C 1561.742188 985.332031 1547 984.164063 1533 984 C 1488.796875 983.46875 1437.71875 948.386719 1430 903 M 670 943 L 670 944 C 659 952.371094 651.265625 962.726563 647.449219 976 C 639.410156 1004 643.652344 1035.203125 664 1057 C 698.171875 1093.335938 761.738281 1093.816406 784 1044 C 790.566406 1029.699219 791 1016.359375 791 1001 C 795.472656 1007 795 1017 795 1024 C 795 1046.144531 789.625 1067.058594 772.285156 1082.253906 C 741.316406 1109.390625 695.457031 1123.464844 655 1113.742188 C 631.867188 1108.183594 610.4375 1094.460938 602.179688 1071 C 598.449219 1060.40625 597.945313 1050.136719 598 1039 C 598 1022 604.4375 1004.707031 612.851563 990 C 623.917969 970.65625 646 945.394531 670 943 M 680 951.472656 C 710.941406 944 724.5625 989.710938 693 997.402344 C 663.464844 1004.597656 649.644531 959 680 951.472656 M 1284 1104 C 1298.171875 1101.597656 1311.480469 1097.085938 1326 1096.089844 C 1335.828125 1095.414063 1345.253906 1097.800781 1355 1098 L 1355 1099 C 1333 1105.238281 1309.457031 1117.683594 1289 1128 C 1295.75 1130.554688 1307.929688 1124.574219 1315 1123.246094 C 1336.339844 1119.226563 1358.324219 1115.503906 1380 1114.023438 C 1403.691406 1112.40625 1427.207031 1109 1451 1109 C 1467.980469 1109 1484.964844 1108 1502 1108 C 1507.871094 1108 1518.230469 1109.8125 1523.398438 1106.4375 C 1526.429688 1104.453125 1524.871094 1097.125 1525.171875 1094 C 1526.296875 1082.191406 1526.863281 1071 1527 1059 C 1527 1055.632813 1529.503906 1047.511719 1525.484375 1045.644531 C 1522.363281 1044.191406 1517.253906 1046.503906 1514 1046.828125 C 1503.652344 1048 1493.328125 1050.023438 1483 1051 C 1433.773438 1055.117188 1383.414063 1070 1336 1083.449219 C 1322.863281 1087.179688 1309.527344 1091.039063 1297 1096.539063 C 1292.457031 1098.535156 1286.816406 1099.707031 1284 1104 M 1296 1069 L 1295 1070 L 1296 1069 M 1286 1129 C 1286.546875 1130.636719 1286.363281 1130.453125 1288 1131 C 1287.230469 1129.6875 1287.316406 1129.769531 1286 1129 M 1329 1208 L 1328 1209 L 1329 1208 M 1466 1240 C 1432.691406 1238.546875 1399.179688 1227.175781 1367 1219.332031 C 1358.601563 1217.285156 1338 1215.1875 1333 1208 C 1367.851563 1210 1399.65625 1216 1433 1226.136719 C 1441.773438 1228.8125 1461 1232 1466 1240 M 1185 1404 C 1191 1384.261719 1191.660156 1366.695313 1174 1352 C 1189.949219 1398.777344 1129 1430 1089 1428 C 1069.429688 1427.007813 1045 1416.363281 1045 1394 L 1043 1394 C 1042 1411.523438 1037.425781 1421.632813 1049 1437 C 1028.359375 1442.660156 1018 1415.816406 1021 1400 L 1020 1400 C 1016.75 1409 1009.203125 1429.132813 1001 1434 C 1001 1402.671875 1015.34375 1376.058594 1031.574219 1350 C 1046.90625 1325.390625 1065 1303 1095 1297.375 C 1125.179688 1291.734375 1164.984375 1311 1188 1329.378906 C 1206.960938 1344.554688 1214 1372.800781 1198.484375 1393 C 1194.890625 1397.636719 1190.777344 1402.421875 1185 1404 M 437 1734 C 447.40625 1730.800781 457.898438 1710.246094 465 1702 C 491 1672.550781 516.351563 1642.703125 543 1614 C 571.613281 1583.378906 602 1553.335938 633 1525.09375 C 637.324219 1521.140625 642.722656 1519 647 1515 C 688.382813 1476.082031 726.339844 1434 769 1396.285156 C 794.792969 1373.578125 822 1352.625 848 1330.128906 C 857.171875 1322.1875 873.558594 1311.742188 879 1301 C 866.414063 1303.242188 853.371094 1311.066406 842 1316.753906 C 810.71875 1332.398438 781.722656 1351.800781 754 1373 C 765.519531 1353 783.398438 1334.753906 800.175781 1319.078125 C 807 1312.65625 818 1307 823 1299 C 800.507813 1306.671875 779.707031 1326.101563 761 1340.257813 C 721.851563 1370 683.347656 1400.136719 645 1430.800781 C 631.171875 1442 616.992188 1452.5 603 1463.347656 C 597.589844 1467.542969 588 1472.761719 584.882813 1479 C 582.910156 1483 587.457031 1485.691406 590 1487.792969 C 595 1492 614.664063 1502.105469 609.882813 1509 C 597.535156 1526.808594 579.683594 1543 565.167969 1559 C 530.5625 1597.519531 498.238281 1639 469.484375 1682 C 458.414063 1698.574219 444.671875 1715.515625 437 1734 M 889 1322 C 864 1341.105469 837.703125 1358.074219 813 1377.511719 C 777.527344 1405.417969 744.570313 1436.816406 712 1468 C 698.1875 1481.167969 685 1495.09375 671.964844 1509 C 668.300781 1513 658.398438 1520.539063 657.632813 1526 C 657 1529.75 664.359375 1532.65625 667 1534.140625 C 676 1539.273438 685.449219 1544 695 1548.304688 C 698.492188 1550 703.300781 1551.308594 701.808594 1556.019531 C 697.765625 1568.769531 686.902344 1581.351563 680.28125 1593 C 662.59375 1624.109375 647.476563 1656.804688 634.199219 1690 C 628.960938 1703.097656 619.902344 1719 619 1733 C 625.953125 1728.058594 630 1712.710938 633.859375 1705 C 644 1684.363281 655 1663.621094 667 1644 C 699.21875 1591.566406 730 1538.269531 762.425781 1486 C 779.386719 1458.621094 800.738281 1431.789063 815 1403 L 816 1403 C 810.835938 1417.1875 801.371094 1430.636719 794.296875 1444 C 780.59375 1470 767.492188 1496.089844 753.832031 1522 C 748.742188 1531.65625 743.484375 1541.234375 738.601563 1551 C 737.289063 1553.625 733.347656 1559.335938 735 1562.296875 C 737.972656 1567.011719 751 1569 756 1570.289063 C 777 1576.355469 798.480469 1580 820 1584 C 820 1560.667969 819 1537.132813 822.300781 1514 C 828.523438 1470.347656 843.941406 1427.15625 866 1389 C 880.167969 1365 898.183594 1345.453125 914 1323 C 906.613281 1325.5625 900.800781 1332.546875 895 1337.574219 C 879.898438 1350.664063 863.304688 1364.386719 852 1381 C 853.34375 1367.058594 869.289063 1348 877.597656 1337 C 880.683594 1333 890 1327.402344 889 1322 M 911.667969 1379.667969 C 911.722656 1379.722656 911.777344 1380.777344 911.332031 1380.332031 C 911.277344 1380.277344 911.222656 1379.222656 911.667969 1379.667969 M 820 1397 L 819 1398 L 820 1397 M 818 1400 C 817.230469 1401.3125 817.3125 1401.230469 816 1402 C 816.546875 1400.363281 816.363281 1400.546875 818 1400 "/></g></svg>