<?xml version="1.0" encoding="UTF-8"?>
<svg xmlns="http://www.w3.org/2000/svg" xmlns:xlink="http://www.w3.org/1999/xlink" width="2000pt" height="2000pt" viewBox="0 0 2000 2000" version="1.1">
<g id="surface1">
<path style=" stroke:none;fill-rule:nonzero;fill:rgb(0%,0%,0%);fill-opacity:1;" d="M 1007 483 C 1011.183594 490.046875 1018.40625 495.054688 1023 502 C 977.429688 485.441406 929.914063 477.003906 881 483.425781 C 870.710938 484.773438 860.308594 484.78125 850 486.4375 C 847.652344 486.816406 840.761719 487.027344 839.710938 489.597656 C 837.976563 494 846.289063 505.085938 848.246094 509 C 857.398438 527.304688 867 545.398438 875.691406 564 C 900.808594 618.699219 925.300781 674.0625 941.910156 732 C 946 746.785156 951.9375 761.6875 954 777 C 938.859375 757.363281 931.28125 727.753906 921.574219 705 C 899.855469 654.101563 880.855469 601.570313 856.246094 552 C 845 529.421875 832.972656 490.136719 809 478 L 815 499 C 805.769531 495.699219 796.808594 491.441406 787 490 L 796 507 C 784.554688 502.257813 774 496.3125 762 493 C 764.324219 501.238281 772.308594 509 776 517 C 743.296875 501.445313 702 511 675 484 C 642.855469 452 620.347656 408.824219 595.65625 371 C 563.664063 322 527.429688 274.414063 486 233 C 454.558594 201.570313 409.707031 165.082031 363 163.039063 C 334.300781 161.785156 315.828125 183.269531 303.757813 207 C 281.492188 250.769531 266.964844 299 257.199219 347 C 241 426 234.582031 504.554688 240 585 C 244 644 256.875 702.066406 260.910156 761 C 262.71875 787.425781 254.273438 813.519531 256 840 C 256.632813 848 258.28125 856.675781 263.527344 863 C 265.65625 865.429688 273.386719 868.070313 273.425781 871.480469 C 273.472656 875.441406 268.371094 880.808594 266.308594 884 C 260.988281 892.234375 256.285156 901 252.425781 910 C 239.65625 940 231.300781 981.402344 242 1013 L 243 1013 C 246.984375 1003 252 992.546875 261 986 C 255.710938 1008.324219 246.734375 1029.542969 247 1053 C 247 1059.414063 247.359375 1073 255 1075.152344 C 259.964844 1076.628906 266.433594 1071.578125 271 1070 C 270.597656 1083.539063 256.585938 1091 246 1096.691406 C 243.414063 1098.089844 235.628906 1100.066406 234.347656 1102.734375 C 232.394531 1106.785156 244 1105.808594 243.367188 1109.03125 C 242.71875 1112.1875 237.28125 1115.445313 235 1117.425781 C 228.6875 1123 222.847656 1129.019531 217 1135 C 200.558594 1152 180.609375 1177 177 1201 C 187.789063 1193.488281 197.753906 1185.277344 210 1180 C 202.898438 1193.765625 189.898438 1204.226563 182.3125 1218 C 165.613281 1248.3125 154.171875 1283.011719 155 1318 C 155.3125 1330.339844 158.367188 1342 160 1354 C 166 1350.335938 169 1341.574219 175 1337 C 169.324219 1361 155.394531 1382.277344 163 1408 C 167.550781 1404 171.378906 1397.519531 174 1392 L 175 1392 C 175.269531 1400.710938 170.855469 1409.449219 169.261719 1418 C 166.441406 1433.101563 165.746094 1449.773438 167.871094 1465 C 169.359375 1475.699219 173.839844 1492.757813 186 1481 C 176 1505.175781 163.3125 1527.476563 156.582031 1553 C 152 1570.328125 152 1587.234375 152 1605 C 158.816406 1600 161.496094 1589.523438 169 1584 C 159 1634.730469 166.296875 1698.03125 210 1732.480469 C 239.453125 1755.699219 285.207031 1759.289063 321 1766.449219 C 402.375 1782.726563 486.792969 1801.5625 570 1802 C 581.933594 1802.0625 589 1812.25 599 1817.6875 C 615.183594 1826.582031 634 1832 652 1835.789063 C 690 1844 728.269531 1849.257813 767 1852 C 780.542969 1853 794.609375 1850.738281 808 1852.1875 C 835.40625 1855.152344 862 1865.136719 890 1867.828125 C 972.441406 1875.8125 1059 1875.292969 1141 1861.566406 C 1159 1858.53125 1177.941406 1854.367188 1195 1847.601563 C 1204 1844 1215.277344 1835.230469 1225 1834.5 C 1232.988281 1834 1242 1837 1250 1838 C 1273.703125 1840.410156 1297.304688 1843.566406 1321 1845.828125 C 1400.910156 1853.464844 1485.464844 1857 1565 1843.714844 C 1589.476563 1839.628906 1617.328125 1833.296875 1636 1816 C 1641.269531 1811 1645.726563 1805.371094 1649 1799 C 1651.191406 1795.082031 1652 1789.628906 1656 1787.140625 C 1664.804688 1781.738281 1680 1782.054688 1690 1780 C 1720 1773.75 1755.96875 1768.308594 1778.960938 1746 C 1803.617188 1722 1810 1682.746094 1810 1650 C 1810 1574.15625 1768.816406 1507.601563 1716.960938 1455.011719 C 1697.308594 1435.082031 1674.519531 1419 1654 1400 C 1662.382813 1399.757813 1669.507813 1405 1677 1408 C 1670.949219 1389.054688 1647.6875 1376.757813 1631 1368.746094 C 1587.816406 1348.007813 1542 1331.410156 1497 1315.308594 C 1482 1310 1466.710938 1303.3125 1451 1301 C 1448.25 1300.4375 1438 1296.664063 1436.242188 1299.691406 C 1434.441406 1302.636719 1439.71875 1309 1441.339844 1311 C 1449 1321.277344 1458.898438 1329.113281 1468 1338 C 1450.574219 1338 1438 1329.613281 1422 1325 C 1425 1338.441406 1439.175781 1348.445313 1449 1357 C 1431.316406 1355.605469 1416.941406 1351.8125 1401 1344 C 1404.367188 1354.15625 1414.382813 1365.355469 1424 1370 L 1424 1371 C 1409.550781 1371 1394.410156 1365.375 1382 1358.28125 C 1331.605469 1329.46875 1326.878906 1275.539063 1354.464844 1228 C 1367.742188 1205.117188 1393.511719 1193.546875 1383.640625 1163 C 1376.746094 1141.664063 1359.984375 1123.007813 1347 1105 C 1327.347656 1077.246094 1308 1048.609375 1291 1019 C 1283 1004.820313 1273.546875 989.78125 1269 974 C 1279.859375 986.550781 1287.808594 1001.613281 1302 1011 C 1298 1001.726563 1291.902344 993.546875 1288.371094 984 C 1278.328125 957 1277.210938 921.21875 1297 898 C 1297 914.660156 1300 931.226563 1305.335938 947 C 1315.871094 978.1875 1355 1029 1389.90625 994 C 1419 964.480469 1407.292969 900.128906 1380.960938 873.003906 C 1374.632813 866.488281 1367 863.753906 1359 860 C 1381.457031 858.628906 1404.339844 881.472656 1414.800781 899 C 1442 944.710938 1432.285156 1004.570313 1386 1033 L 1386 1034 C 1423.636719 1031 1448.996094 994.226563 1449 959 C 1449 946.082031 1445 932.789063 1446 920 C 1446.390625 915.433594 1449.625 909.414063 1455 909.660156 C 1462.6875 910.015625 1467.195313 923 1469 929 C 1475.53125 949.117188 1478.90625 973.621094 1471.386719 994 C 1453.441406 1042.621094 1401.78125 1068 1352 1064 C 1356.9375 1073.023438 1371.324219 1080 1379 1087.089844 C 1402 1108.558594 1421 1136.359375 1435.835938 1164 C 1439.863281 1171.519531 1443.433594 1179.003906 1446.425781 1187 C 1447.402344 1189.621094 1449.652344 1194 1446.640625 1196 C 1443.328125 1198.316406 1436.808594 1196.078125 1433 1196 C 1436.507813 1203.523438 1450.851563 1210.433594 1451.390625 1218.675781 C 1451.542969 1221 1448.683594 1223.71875 1448 1226 C 1479.484375 1217 1508.835938 1197.296875 1539 1184.425781 C 1572 1170.316406 1608.183594 1163.121094 1641 1149 L 1641 1148 C 1625.328125 1148.042969 1609.804688 1151.074219 1594 1151 C 1589 1151 1579.378906 1151.117188 1575.601563 1147.273438 C 1572 1143.632813 1575 1135.34375 1575.726563 1131 C 1577.65625 1118 1579 1104.238281 1577.828125 1091 C 1577 1083.664063 1576.316406 1076.214844 1574.789063 1069 C 1574.179688 1066.117188 1571.914063 1061.277344 1572.902344 1058.378906 C 1574.570313 1053.488281 1584.414063 1067.101563 1584.414063 1059 C 1584.402344 1030.398438 1562.792969 1005.300781 1560 978 C 1565.273438 984.1875 1569.28125 994.613281 1576 999 C 1576 958.429688 1563.9375 917.605469 1536 887 C 1541.390625 886.808594 1545.84375 890 1551 891 C 1547.238281 872.097656 1520.730469 861.558594 1509 848 C 1512.421875 848 1515.636719 847.625 1519 847 C 1509.734375 835.546875 1493.492188 831.070313 1484.296875 820 C 1478.671875 813 1496 814.671875 1491.378906 807 C 1483.402344 794 1467.191406 782.789063 1454 775.703125 C 1405.671875 749.757813 1352 755.402344 1308 787 C 1335.457031 747 1375.523438 728 1421 717 L 1421 718 C 1408.578125 723.164063 1395.785156 728.328125 1384 735 C 1379.464844 737.375 1373.613281 739.394531 1371 744 C 1395.359375 742.011719 1417.464844 744.273438 1440 755.257813 C 1449.738281 760.003906 1458.835938 770.230469 1469 773 C 1463.980469 758.3125 1453.824219 745.425781 1447.859375 731 C 1435.964844 702.21875 1431.285156 667.789063 1437 637 C 1428.769531 640 1421.777344 648 1415 653.339844 C 1399.378906 665.652344 1384.445313 680 1371.425781 695 C 1366.253906 701 1360 706.621094 1357 714 C 1371.589844 709.828125 1384.640625 707 1400 707 L 1400 708 C 1379.621094 713.78125 1358.570313 722 1342 735.464844 C 1326.976563 747.710938 1315.816406 765 1300 776 C 1319.40625 729.386719 1351.898438 688.488281 1391 656.804688 C 1404.769531 645.648438 1422.226563 639 1435.566406 628 C 1441.375 623.132813 1440.261719 604.152344 1440.925781 597 C 1441 594.527344 1442.578125 590 1441.355469 587.617188 C 1439.421875 584.011719 1430.335938 589.292969 1428 590.476563 C 1414.949219 597.074219 1403 605.296875 1392 615 C 1363.546875 639.730469 1342 671.386719 1323.425781 704 C 1313.484375 721.347656 1304.765625 741.582031 1292 757 C 1304.296875 706 1326.402344 652.484375 1366 616.164063 C 1379.296875 604 1393.285156 592.4375 1410 585.226563 C 1416.777344 582.304688 1423.804688 580 1431 578.234375 C 1434 577.515625 1439 577.730469 1441.410156 575.398438 C 1444 572.726563 1443.839844 567.5 1444 564 C 1444.507813 555.515625 1448 545.507813 1446.398438 537.058594 C 1445.328125 531.59375 1434.421875 532 1430 531.285156 C 1415.386719 529.46875 1400.574219 528.496094 1386 526.574219 C 1380.714844 526 1372.765625 523.351563 1368.953125 528.148438 C 1357.882813 542.078125 1350.613281 561.027344 1342.976563 577 C 1326.265625 612 1311.851563 648.007813 1300.433594 685 C 1294.808594 703.226563 1284.664063 723 1283 742 L 1281 742 C 1281 663.203125 1313.792969 592.03125 1350 524 C 1339.449219 519.546875 1323.433594 519.007813 1312 519 L 1312 518 C 1325 514.613281 1343.695313 518.359375 1355.609375 512.410156 C 1361.230469 509.605469 1369 496 1371 490 C 1348 490.003906 1325.65625 495.011719 1303 496 C 1309.179688 490.445313 1320.246094 488.5 1328 485.574219 C 1351.238281 476.8125 1377.988281 469.300781 1403 469.003906 C 1414.28125 469 1425.746094 467 1437 468.425781 C 1440.652344 469 1449 470.660156 1452 468 C 1456.214844 464.316406 1454.765625 450.191406 1455 445 C 1455.222656 443 1456.46875 438.75 1453.667969 437.789063 C 1451 437 1446.671875 438.71875 1444 439.132813 C 1434.257813 440.648438 1424.679688 443.226563 1415 445.09375 C 1380.28125 451.796875 1344.503906 462.515625 1312 476.425781 C 1299 482 1286.941406 489.582031 1274 495 C 1306.40625 464.074219 1352.519531 441.226563 1395 428.027344 C 1409.21875 423.605469 1424.261719 420.5625 1439 418.429688 C 1443.515625 417.773438 1453.886719 419 1457 415.398438 C 1462.445313 409.769531 1460.472656 392.355469 1461.171875 385 C 1461.414063 382.425781 1463.195313 377 1459.683594 375.789063 C 1456.769531 374.816406 1451.808594 377.015625 1449 378 C 1439.8125 380.632813 1430.902344 384 1422 387.449219 C 1372.609375 407.222656 1325.191406 437.570313 1284 471 C 1289.382813 459.445313 1302 450 1311 441 C 1340.320313 411.679688 1375.855469 387.703125 1414 371.425781 C 1424.570313 367 1435.796875 363.550781 1447 361.011719 C 1450.949219 360.113281 1459.304688 360.378906 1462.402344 358 C 1465.328125 355.695313 1464.851563 349.289063 1465 346 C 1465.59375 336 1467.503906 326.042969 1467.960938 316 C 1468 312 1470.257813 304 1463.980469 305 C 1427 311 1388.757813 333.527344 1358 353.503906 C 1346 361.269531 1334.699219 371.683594 1322 378 C 1349.582031 350.417969 1378.78125 326 1415 310.425781 C 1426 305.71875 1437.425781 302 1449 299 C 1454.484375 297.445313 1461.636719 297.535156 1466.683594 295 C 1470 293.234375 1469.324219 286.3125 1469.714844 283 C 1471.28125 269.710938 1469 256.242188 1469 243 C 1468.65625 213.617188 1462.410156 159.292969 1423 160.054688 C 1412 160.265625 1400.886719 164.199219 1391 168.425781 C 1353.929688 184.28125 1321 212.402344 1292 239.816406 C 1244 285.160156 1200.789063 334.433594 1159.601563 386 C 1140.636719 409.742188 1122.894531 434.535156 1104.882813 459 C 1096.179688 470.824219 1086.285156 487 1072 492.378906 C 1053.453125 499.507813 1026.394531 484.53125 1007 483 M 1445.996094 486.445313 C 1428 488.074219 1397.273438 484.175781 1386.742188 500 C 1384.886719 502.785156 1379.9375 508.199219 1380.167969 511.683594 C 1380.390625 515.136719 1392.351563 514.402344 1395 514.714844 C 1406.632813 516.089844 1418.355469 516.761719 1430 518.15625 C 1434.722656 518.71875 1442 521 1446.6875 519.644531 C 1449.898438 518.769531 1449.832031 513.636719 1449.960938 511 C 1450.269531 504.710938 1455.796875 485.546875 1445.996094 486.445313 M 1274 495 L 1273 496 L 1274 495 M 945 795 L 944 795 C 899.617188 733.257813 866.347656 660.785156 809 609.171875 C 763.777344 568.46875 708 546.339844 650 532 C 657.910156 528.679688 669.730469 531.644531 678 532.71875 C 702.199219 536 726.28125 540.6875 749 549.800781 C 826.652344 581 873.53125 646.472656 911.296875 718 C 920 734.511719 927 752 934.421875 769 C 937.933594 777.234375 943.433594 786.21875 945 795 M 1279 568 C 1278.871094 583.585938 1274 599.347656 1273 615 C 1270.214844 657 1268 700.015625 1268 742 L 1266 742 C 1260.347656 698.214844 1257 659 1264.75 615 C 1267.183594 601.015625 1270.328125 579.472656 1279 568 M 912 608 C 917.753906 621.808594 927.183594 634.460938 933.742188 648 C 951.804688 685.308594 968.652344 730 969 772 L 968 772 C 952.289063 732.25 941 690.386719 927 650 C 923.574219 640.15625 919.527344 630.644531 915.597656 621 C 913.945313 617 910.71875 612.390625 912 608 M 951 837 C 943.984375 833.660156 938.488281 825.488281 933 820 C 921 808.011719 909 796.289063 896 785.433594 C 859.59375 755.136719 818.730469 732 775 714 L 775 713 C 814.242188 716.121094 847.957031 739.601563 881 758 C 837.636719 701.089844 764.734375 661.015625 695 648.464844 C 672.167969 644.355469 649 645 626 645 C 632.300781 641.152344 640.851563 641.59375 648 640.714844 C 669.425781 638.085938 691.578125 638.28125 713 641 C 803.488281 651.671875 870.707031 712.121094 918.859375 786 C 929.609375 802.492188 943.183594 819 951 837 M 930 834 C 918.808594 829.019531 909 822.363281 897 819.011719 C 851.304688 806.34375 802.878906 814.054688 760 833 C 748.257813 838.011719 736.71875 844.035156 726 851.078125 C 719.316406 855.472656 712.636719 861.46875 705 864 C 738.335938 810.695313 803.269531 786.21875 863 795 C 853.6875 785 834.597656 779.242188 822 774.199219 C 800 765.398438 777.34375 756.828125 754 752.460938 C 737.445313 749.363281 720.492188 749.0625 704 746 C 715 741.011719 732 744 744 744 C 796 744 842.359375 764.238281 885 792.667969 C 900.273438 803 922 817 930 834 M 881 758 L 882 759 L 881 758 M 1353 882.328125 C 1380.53125 877.414063 1397 923.5625 1367 928.519531 C 1341.558594 932.703125 1324 887.507813 1353 882.328125 M 954 938 C 992.433594 967.414063 992.617188 1040 954 1068.242188 C 930.328125 1085.570313 903.398438 1083.019531 876 1083 L 876 1084 C 886.324219 1084.472656 896.570313 1087.503906 907 1088 C 931.710938 1089.042969 956.265625 1085.523438 980 1078.710938 C 987.324219 1076.605469 1010.175781 1064.21875 1016.410156 1070.566406 C 1020.703125 1075 1016.992188 1083.140625 1013.726563 1087 C 1004.984375 1097 989.535156 1102.160156 977 1105.371094 C 932.296875 1116.824219 880.6875 1112.601563 837 1098.65625 C 795.519531 1085.414063 758.277344 1063.339844 730.808594 1029 C 724.179688 1020.714844 717.644531 1011.449219 712.785156 1002 C 711 998.707031 708.191406 992.785156 712.316406 990.027344 C 719.515625 985.214844 730.75 993.160156 736 997.464844 C 754 1012.246094 768.289063 1030.613281 787 1045 C 772.265625 1022.722656 749.257813 997 762.3125 968 C 771 948.59375 791.707031 933.421875 811 925.605469 C 814.289063 924.269531 827.953125 917.554688 830.957031 920.132813 C 832.859375 921.765625 830.945313 926.125 830.421875 928 C 828.359375 935.363281 826.378906 943.328125 826 951 C 824.941406 976 829.457031 999.472656 842.449219 1021 C 861.289063 1052.210938 902.253906 1072.09375 932.828125 1044.382813 C 937.972656 1039.722656 942.351563 1034.074219 945.6875 1028 C 962 998.253906 955.363281 969.738281 954 938 M 897 923.304688 C 926.597656 918.679688 941.300781 966.507813 909 971.554688 C 880.875 976 865.785156 928.183594 897 923.304688 M 1642 1147 L 1643 1148 L 1642 1147 M 1319 1209 L 1318 1209 C 1313.996094 1219.320313 1309.449219 1237.660156 1299 1243 C 1297.425781 1223.710938 1286.929688 1205 1269 1196.398438 C 1262.40625 1193.273438 1237.179688 1191.828125 1240.742188 1181 C 1246.558594 1163.335938 1274.507813 1159.023438 1290 1160.089844 C 1296.371094 1160.527344 1302.5625 1162.746094 1309 1161.675781 C 1319.828125 1160 1328.910156 1152.363281 1340 1151.175781 C 1349.753906 1150.125 1364.929688 1150.824219 1368.8125 1162 C 1372.460938 1172.496094 1350.984375 1186.59375 1346.269531 1196 C 1341.3125 1206 1338.34375 1216.699219 1334.386719 1227 C 1333.65625 1229 1331.976563 1235.792969 1329.289063 1235.792969 C 1327.265625 1235.792969 1326.730469 1231.355469 1326.371094 1230 C 1324.445313 1222.714844 1321.851563 1216 1319 1209 M 1451 1234 C 1467.765625 1234 1484.6875 1228.730469 1501 1225.210938 C 1533.261719 1218.246094 1565.335938 1210.113281 1598 1205.300781 C 1680 1193.21875 1763 1189 1846 1189 C 1839.535156 1185.050781 1830.363281 1184.820313 1823 1183.585938 C 1805 1180.570313 1787 1179.152344 1769 1178 C 1692.175781 1172.648438 1614.726563 1182 1540 1200.527344 C 1517.566406 1206.132813 1494.460938 1211.046875 1473 1220 C 1465.230469 1223.054688 1454.929688 1226 1451 1234 M 1826 1252 C 1820.78125 1247.667969 1812.433594 1247 1806 1245 C 1787.964844 1239.824219 1769.488281 1236.269531 1751 1233.246094 C 1679.207031 1221.511719 1607.253906 1220.605469 1535 1227.832031 C 1511.46875 1230.183594 1488 1233.742188 1465 1239.011719 C 1461.230469 1240 1444.207031 1244 1444.207031 1249 C 1444.207031 1251.210938 1462.464844 1250 1465 1250 C 1486.8125 1250 1509.351563 1250.269531 1531 1247.714844 C 1551.242188 1245.324219 1571.65625 1246.691406 1592 1246 C 1653.34375 1243.703125 1714.773438 1245.359375 1776 1248.039063 C 1792.644531 1248.769531 1809.359375 1252 1826 1252 M 1208 1382 C 1220.777344 1364.222656 1240.402344 1350.199219 1250 1330 C 1225 1330.207031 1202.265625 1348.289063 1178 1353 C 1188.910156 1338.773438 1206 1325.78125 1219 1313.003906 C 1221.554688 1310.476563 1232.660156 1303.035156 1230.695313 1298.5625 C 1228.65625 1294 1217.546875 1296.789063 1214 1297.460938 C 1197.453125 1300.578125 1182.355469 1308.582031 1166 1312 C 1173.761719 1301.546875 1188.773438 1294.347656 1199 1286.199219 C 1201 1284.496094 1209 1280 1208.367188 1276.589844 C 1207.71875 1273.574219 1198 1275.101563 1196 1275.464844 C 1183 1277.738281 1170.238281 1281 1157 1281 L 1157 1280 C 1170.742188 1274.363281 1182.464844 1265.421875 1193 1255 C 1195 1253 1203.597656 1246.351563 1201 1242.742188 C 1197.585938 1237.601563 1180.28125 1242 1175 1242 C 1178.5625 1236.269531 1187.6875 1233.460938 1194 1232 C 1212.574219 1227.304688 1235 1230.644531 1252 1239.484375 C 1282.914063 1255.648438 1306.371094 1292.652344 1288 1327 C 1280 1342 1265 1353.109375 1251 1361.601563 C 1238.386719 1369.171875 1222.757813 1379.789063 1208 1382 M 1446 1254 C 1450.539063 1263 1463.492188 1268.65625 1473 1270.246094 C 1495.726563 1274.042969 1519 1273.519531 1542 1275.089844 C 1607.765625 1279.59375 1672.789063 1287.691406 1738 1297.300781 C 1770 1302.03125 1802.800781 1313.4375 1835 1316 C 1826.660156 1309.09375 1813 1305.535156 1803 1302 C 1780.335938 1294.117188 1757.386719 1287.503906 1734 1282.117188 C 1640.757813 1260.644531 1541.425781 1254 1446 1254 M 654 1264 L 654 1265 C 543.976563 1290.453125 436 1328.546875 334 1376.78125 C 305.574219 1390.207031 277.429688 1405.527344 251 1422.539063 C 237.746094 1431.074219 224 1445.195313 209 1450 C 214.796875 1441.777344 223.65625 1435.714844 231 1429 C 253.167969 1408.367188 277.582031 1391.488281 303 1375.304688 C 379.597656 1326.535156 468.335938 1296.316406 557 1278.550781 C 588.582031 1272.222656 621.753906 1265.382813 654 1264 M 1773 1402 L 1773 1401 C 1717.328125 1370.007813 1662 1338 1601 1318 L 1601 1317 C 1613.402344 1314.046875 1625.519531 1317 1638 1317 C 1627.65625 1308 1604.308594 1305.519531 1591 1302.714844 C 1557.992188 1295.757813 1525.257813 1286.683594 1492 1281 C 1479.996094 1279 1468 1277.324219 1456 1276 C 1454 1275.734375 1445.457031 1273.0625 1445.304688 1276.355469 C 1445 1282 1454.226563 1289.085938 1458 1292.246094 C 1474.304688 1306 1493.867188 1310.730469 1514 1316.152344 C 1567.90625 1330.667969 1621.652344 1343 1674 1363.0625 C 1696.757813 1372 1719.289063 1381.285156 1742 1390.203125 C 1751.800781 1394.050781 1762.488281 1401 1773 1402 M 1000 1283 C 931.796875 1283 861.820313 1291.402344 796 1309.746094 C 681.339844 1341.699219 572 1408 484 1487.167969 C 455.800781 1512.550781 428.289063 1540.6875 405.375 1571 C 396.695313 1582.480469 388 1594.035156 380 1606 C 375.375 1613 371.433594 1621.683594 365 1627 C 370.410156 1604.21875 386.980469 1581.65625 399.191406 1562 C 441.601563 1493.734375 504.820313 1436 572 1392.691406 C 594.550781 1378.167969 617.921875 1365.25 641 1351.601563 C 649.824219 1346.386719 661.558594 1343.019531 669 1336 C 620.796875 1349 572.632813 1368.125 527 1388.140625 C 473.363281 1411.660156 421.355469 1436.636719 373 1470.027344 C 352.371094 1484.269531 332.347656 1500 314 1517.089844 C 302.886719 1527.441406 292.386719 1540.273438 280 1549 C 284 1536.691406 296.335938 1526 304.390625 1516 C 329.476563 1485.144531 359.648438 1459.65625 391 1435.5 C 512.761719 1341.683594 664.519531 1294.488281 816 1279.828125 C 862.289063 1275.351563 908.609375 1276 955 1278 C 966 1278.441406 977 1278.78125 988 1279.828125 C 992.332031 1280.242188 997 1279.214844 1000 1283 M 1043 1309 L 1043 1310 C 1013.222656 1315.527344 982 1316.390625 952 1321.433594 C 878.621094 1333.746094 805.46875 1354.214844 737 1383.425781 C 697.867188 1400.125 659.777344 1419.648438 624 1442.691406 C 606 1454.261719 588.566406 1472.71875 569 1481 C 573.632813 1471.066406 585.25 1462.664063 593 1455.003906 C 617.726563 1430.570313 647.683594 1409.054688 678 1392.140625 C 791.964844 1328.554688 914.191406 1309 1043 1309 M 1045 1332 L 1045 1333 C 1007.644531 1342 970 1349.117188 933 1359.710938 C 828.550781 1389.515625 726.441406 1435 640 1501.234375 C 610.71875 1523.71875 582.539063 1549.128906 558.289063 1577 C 548.746094 1588 539.617188 1599.371094 530.894531 1611 C 526 1617.332031 522.171875 1625 516 1630 C 535 1573.367188 583 1522.199219 627 1483.714844 C 739.347656 1385.210938 896 1332 1045 1332 M 1088 1357 C 1084.40625 1361.785156 1075.472656 1362.457031 1070 1364.34375 C 1055.265625 1369.425781 1040.597656 1374.777344 1026 1380.226563 C 977.3125 1398.402344 929 1419 884 1445 C 830.546875 1475.535156 784.1875 1514.125 745.308594 1562 C 734.691406 1575.078125 725.320313 1589.480469 716.8125 1604 C 712.519531 1611.324219 709.480469 1621.445313 703 1627 C 703.898438 1618.027344 708.949219 1609.335938 712.1875 1601 C 722.527344 1574.398438 736.84375 1550.070313 753.574219 1527 C 809.675781 1449.648438 893.183594 1406.25 983 1380.441406 C 1016.773438 1370.738281 1052.820313 1359.78125 1088 1357 M 1598 1433 C 1582.804688 1429.078125 1567.34375 1416.199219 1553 1409.257813 C 1528.894531 1397.59375 1503.773438 1389.792969 1479 1380 C 1486.570313 1377.042969 1503 1382.273438 1511 1384.269531 C 1540.644531 1391.769531 1579.578125 1407.042969 1598 1433 M 1283 1499 L 1292 1490 C 1271 1494 1250.8125 1493.171875 1230 1488.574219 C 1226.320313 1487.761719 1212 1486.296875 1211.464844 1481.722656 C 1210.753906 1475.777344 1221 1469.367188 1225 1466 C 1214 1466.390625 1203 1472 1192 1473 C 1189.554688 1473.164063 1182.945313 1475.097656 1181 1473 C 1178.878906 1470.445313 1183.746094 1464.085938 1185 1462 C 1191.5 1452.046875 1199.644531 1443.316406 1208 1435 C 1239.230469 1404 1285.867188 1378.65625 1331 1383.171875 C 1345.824219 1384.652344 1360 1390.667969 1373 1398 C 1377.269531 1400.242188 1384.46875 1403.269531 1386.398438 1408.09375 C 1390.183594 1417.578125 1380.75 1435 1376.269531 1443 C 1358.894531 1474.253906 1319.269531 1498.25 1283 1499 M 1026 1548 C 1007.355469 1552.417969 999 1567.273438 985 1578 C 985.378906 1569.300781 988.167969 1560 991.769531 1552 C 1013.441406 1504.488281 1069.171875 1499.511719 1109 1527.023438 C 1169.941406 1569.121094 1194 1655.417969 1189 1726 C 1185.671875 1774.734375 1161.214844 1819.40625 1109 1827.5625 C 1076.1875 1832.6875 1051.507813 1817.09375 1035.425781 1789 C 1022.625 1766.628906 1018.542969 1739 1013.550781 1714 C 1002.734375 1660 977 1590.746094 1026 1548 M 1391 1559 C 1394.9375 1550.558594 1404.515625 1542.804688 1412 1537.429688 C 1437.546875 1519.082031 1475.351563 1513.058594 1503 1530.265625 C 1517.722656 1539.425781 1527.605469 1556.136719 1533.574219 1572 C 1553.339844 1624.53125 1546 1694.160156 1524.421875 1745 C 1514.777344 1767.550781 1501 1789.527344 1479 1801.6875 C 1435 1825.820313 1370.546875 1811.132813 1354.195313 1760 C 1342 1722.097656 1351.703125 1677.457031 1364.691406 1641 C 1374 1615 1388 1587.421875 1410 1569.808594 C 1417.375 1564 1426 1559.429688 1435 1556.511719 C 1437.523438 1555.691406 1445.40625 1555.789063 1446.792969 1553.484375 C 1448.53125 1550.601563 1434.414063 1551 1433 1551 C 1418 1551 1405.382813 1556.554688 1391 1559 M 1234 1545 C 1227.6875 1537.386719 1216.480469 1535.019531 1207 1535 C 1204.347656 1535 1198.246094 1536.019531 1198.492188 1532 C 1199 1522.21875 1212.761719 1520.347656 1220 1521.289063 C 1239.421875 1523.8125 1255 1539 1266.335938 1554 C 1298.304688 1596.578125 1307.65625 1651.195313 1300.839844 1703 C 1296.34375 1737.171875 1274.90625 1770.195313 1246 1788.5625 C 1234.484375 1796 1216 1803.464844 1203 1795.773438 C 1183.421875 1784.226563 1194.542969 1752.527344 1197 1735 C 1202 1699.101563 1208 1663.285156 1208.984375 1627 C 1209.441406 1607.121094 1203.671875 1587 1206.289063 1567 C 1208.441406 1550.636719 1218.769531 1545 1234 1545 M 1623 1604 C 1617.441406 1596.800781 1607 1592.210938 1598 1592.015625 C 1595.21875 1592 1584.859375 1595 1583 1593 C 1581.375 1590.761719 1585.71875 1585.613281 1586.925781 1584.015625 C 1593.363281 1575.496094 1602.703125 1572.570313 1613 1573.039063 C 1638.402344 1574.191406 1652 1601.699219 1657.847656 1623 C 1673.375 1679.722656 1659.375 1749.730469 1613.996094 1789.128906 C 1598.898438 1802.238281 1566.746094 1823.265625 1546 1810.53125 C 1526.960938 1798.734375 1536.796875 1768.753906 1541.578125 1752 C 1549.941406 1722.703125 1560.929688 1694.105469 1569.972656 1665 C 1575 1648.445313 1578.632813 1628 1589.527344 1614.003906 C 1598 1603.121094 1610.367188 1602.402344 1623 1604 M 858 1645 C 837.800781 1653.703125 826.550781 1669 813 1685 C 810.371094 1676.023438 813.808594 1663.683594 816.671875 1655 C 830.992188 1611.527344 875.546875 1596 914 1619.203125 C 937.703125 1633.59375 957.503906 1656.097656 971 1680 C 981 1697.503906 989.316406 1715.523438 994.703125 1735 C 1001.511719 1759.589844 1008 1801.238281 988.816406 1822 C 980.894531 1830.488281 968.984375 1832.285156 958 1833.089844 C 934.878906 1834.785156 912.28125 1828.832031 892 1817.6875 C 855.863281 1797.832031 827.496094 1750.589844 827 1709 C 826.667969 1680.667969 841.984375 1666.023438 858 1645 M 1234 1704.703125 C 1228.382813 1706.628906 1223.75 1713.078125 1220.878906 1718 C 1213 1731.253906 1204.339844 1749.492188 1203 1765 C 1202.414063 1773.460938 1202.175781 1791.785156 1216 1788.3125 C 1237.292969 1783 1249.710938 1747.164063 1250.40625 1728 C 1250.742188 1718.648438 1247.730469 1700.023438 1234 1704.703125 M 1109 1706.703125 C 1100.757813 1708 1095.667969 1717.410156 1092.167969 1724 C 1082 1743.066406 1077.605469 1767.523438 1080.183594 1789 C 1081.597656 1800.78125 1089 1815 1103 1812.785156 C 1134.648438 1808.113281 1136 1757.148438 1131.398438 1734 C 1129.238281 1723.425781 1123 1704.703125 1109 1706.703125 M 1482 1719.703125 C 1475 1720.515625 1469.863281 1727 1465.808594 1732 C 1455 1745.414063 1443.90625 1762.355469 1439 1779 C 1436 1789 1438.824219 1802.796875 1452 1801.585938 C 1475 1799.453125 1489.90625 1766.691406 1493.386719 1747 C 1494.902344 1738.40625 1495.703125 1718.097656 1482 1719.703125 M 1586 1736 C 1570.566406 1742.105469 1558.921875 1770 1555.238281 1785 C 1552.847656 1794.820313 1554.316406 1808.46875 1568 1804.351563 C 1585.25 1799.160156 1598.957031 1774.761719 1601.675781 1758 C 1603.269531 1748.160156 1600 1730.183594 1586 1736 M 952 1748.667969 C 943.5625 1751.128906 942.992188 1760.742188 943 1768 C 943 1782.402344 947.523438 1798.664063 956.75 1810 C 960.742188 1814.777344 968.308594 1820.257813 975 1818.332031 C 1000.3125 1811.054688 982.699219 1770.277344 972.332031 1758.089844 C 967.992188 1753 959 1746.582031 952 1748.667969 "/>
</g>
</svg>
