<svg xmlns="http://www.w3.org/2000/svg" xmlns:xlink="http://www.w3.org/1999/xlink" viewBox="0 0 100 100" version="1.1"><g transform="translate(1, 4.658964050530571) scale(0.049519959575543206) translate(-9, -93.28125)"><path style=" stroke:none;fill-rule:nonzero;fill:rgb(0%,0%,0%);fill-opacity:1;" d="M 1048 429 C 1080.1875 429 1119.847656 439.195313 1145 460 C 1154.671875 468 1165.707031 479.136719 1168 492 C 1158.8125 483.007813 1147.71875 476.6875 1136 471.574219 C 1133.835938 470.632813 1127.320313 466.144531 1125 468.132813 C 1121.65625 471.140625 1129 489 1130 493 C 1119.316406 484.386719 1110.476563 474.09375 1099 466.191406 C 1097 464.820313 1089.570313 458.128906 1087 460.160156 C 1084.410156 462.316406 1089.988281 480.023438 1090 484 C 1079 472.539063 1063.921875 456.769531 1049 451 C 1049.800781 461.0625 1052.972656 471 1053 481 C 1038.253906 469.457031 1024.859375 458 1008 449.257813 C 972.992188 431.3125 931.648438 427.476563 893 431.171875 C 866.558594 433.695313 841.175781 441.160156 815 445 C 803.761719 446.648438 793.917969 451.230469 783 446 C 738.308594 424.441406 707.207031 373 677.574219 335 C 629.71875 273.671875 578.382813 212.539063 517 164.210938 C 478.59375 134 421.4375 94.230469 370 116 C 342.695313 127.367188 325.960938 154.675781 315 181 C 291.589844 238 286 302.007813 286 363 C 286 407.546875 290.355469 452.199219 298.804688 496 C 304.882813 527.507813 314.609375 558.289063 319.5625 590 C 326.984375 637.527344 321.625 685.773438 333.375 733 C 343.949219 775.511719 375.335938 810.199219 380.714844 854 C 382.671875 870 380.996094 886.015625 382 902 C 383.722656 925.832031 388.355469 949.34375 396 972 C 410.9375 1016.25 440.867188 1051.710938 459.347656 1094 C 467 1111.65625 472.90625 1130 476 1149 C 476.976563 1154.371094 476.867188 1170.328125 481 1174 C 482.820313 1175.503906 486.855469 1174.136719 489 1174.039063 C 496.367188 1173.707031 503.660156 1173 511 1172.171875 C 537.546875 1169.644531 564.320313 1170 591 1170 C 682.554688 1170 780 1177.078125 868 1205 L 868 1206 C 833.75 1197.824219 796.972656 1196.328125 762 1192.832031 C 699.734375 1186.605469 637.578125 1181.738281 575 1181 C 552 1180.722656 529 1180 506 1180 C 500.8125 1180 485.589844 1177.1875 481.601563 1180.066406 C 477.472656 1183.050781 480 1199.269531 480 1204 C 480 1227 480.367188 1250.476563 476 1273 C 493.5625 1271.46875 511.808594 1264.28125 529 1260.234375 C 554 1254.332031 579.601563 1250.4375 605 1246.4375 C 685 1233.824219 769.242188 1232.625 850 1239 L 850 1240 C 795.53125 1241.125 740.921875 1250.621094 687 1257.710938 C 588.566406 1270.652344 489 1292 395 1324 C 357.871094 1336.660156 321.640625 1354.148438 287 1372.449219 C 274.699219 1379 255.585938 1386 247 1397 C 266.847656 1392.746094 287.980469 1380.058594 307 1372.449219 C 340.832031 1359 375.421875 1347.414063 410 1336 C 423.246094 1331.628906 436.582031 1327.664063 450 1324 C 452.328125 1323.199219 460.953125 1319.191406 462.683594 1321.707031 C 464.601563 1324.496094 461.503906 1333 460.90625 1336 C 458.214844 1350.050781 452.253906 1363.621094 451 1378 C 461.644531 1373.523438 471.503906 1366.394531 482 1361.386719 C 512.761719 1346.707031 544.226563 1333.117188 576 1320.8125 C 676.917969 1281.722656 786.484375 1256 895 1256 L 895 1257 C 882.9375 1260 870.234375 1260.125 858 1262.25 C 833.503906 1266.507813 809.183594 1272.144531 785 1278 C 691.933594 1300 601.425781 1330 512 1363.683594 C 495.816406 1369.789063 479.683594 1376.542969 464 1384 C 457.660156 1386.785156 448 1390 443.433594 1395.214844 C 439.820313 1399.390625 438.449219 1407 436.65625 1412 C 433 1422.148438 428.820313 1432 424.9375 1442 C 421.945313 1449.714844 418.859375 1457.453125 415.457031 1465 C 414.335938 1467.488281 411.34375 1471.746094 411.992188 1474.59375 C 412.519531 1477 416.328125 1476.085938 418 1476.203125 C 424.273438 1476.648438 430.773438 1476.605469 437 1477.425781 C 462.695313 1480.808594 488 1485.632813 512 1496 C 591.269531 1529.609375 669.484375 1611.824219 654 1705 C 651 1722.664063 647 1746.113281 635 1760 C 642 1730.648438 632.246094 1692.300781 624 1664 C 611.855469 1622.316406 595.445313 1582.257813 563 1552.089844 C 489.570313 1483.808594 366.453125 1482.703125 284 1533.613281 C 246 1557.046875 218 1594 201.800781 1635 C 196 1649.402344 192.621094 1664.667969 190.714844 1680 C 190.179688 1684.3125 190.550781 1695.390625 186.683594 1698 C 179.554688 1702.726563 159.511719 1699 151 1699 L 24 1699 C 21.238281 1699 15.171875 1698 13 1700.027344 C 10.882813 1702.171875 12 1708.238281 12 1711 L 12 1741 C 12 1744.027344 10.589844 1751.433594 14.316406 1752.683594 C 27 1757 47.550781 1753 61 1753 L 167 1753 C 172.882813 1753 188.921875 1750.207031 193.257813 1754.601563 C 196.644531 1758.035156 197.265625 1767.394531 198.953125 1772 C 200 1775.015625 204.769531 1782.28125 203.503906 1785.398438 C 202.335938 1788.253906 194.421875 1787 192 1787 L 158 1787 C 121.613281 1787 85.320313 1791.390625 49 1792 C 40 1792.144531 30.859375 1792.757813 22 1793.710938 C 19.363281 1794 14 1792.644531 12.601563 1795.472656 C 9 1802.179688 16.191406 1804.136719 21 1804.714844 C 34.835938 1806.375 49 1807.074219 63 1808.023438 C 76.351563 1809 89.628906 1810.453125 103 1811.039063 C 122.535156 1812 146 1811.492188 165 1816 L 165 1817 C 126.777344 1818.640625 86.988281 1824.582031 49 1829.574219 C 40.941406 1830.636719 17.535156 1829.007813 13 1836 C 75.632813 1836 138.25 1839.699219 201 1840 C 210.984375 1840.050781 220.960938 1841 231 1841 C 235 1841 241 1839.570313 244.960938 1841 C 247.53125 1842 256.605469 1850 254 1853 C 252.1875 1855.324219 242.96875 1854.273438 240 1854.753906 C 225.496094 1857.101563 210.617188 1857.601563 196 1859.164063 C 153.453125 1863.722656 110.675781 1868 68 1871 C 54.953125 1871.824219 42 1873.589844 29 1874.828125 C 23.558594 1875.347656 17.871094 1874.082031 13 1877 C 32 1882.617188 55.304688 1877.742188 75 1879.089844 C 122.921875 1882.371094 171.953125 1882 220 1882 C 235.367188 1882 250.695313 1883 266 1883 C 273.683594 1883 283.574219 1881.253906 291 1883.023438 C 299.585938 1885.066406 306.449219 1893.085938 315 1896 L 315 1897 C 278.804688 1906.363281 238.769531 1901.175781 202 1908 L 202 1909 C 252.878906 1913.015625 304 1910.359375 355 1914.089844 C 365 1915 374.988281 1919.664063 385 1921.539063 C 400.8125 1924.503906 416.964844 1924.378906 433 1924 C 449.96875 1923.570313 465.449219 1915.304688 482 1914.089844 C 511.167969 1912 540.757813 1913.703125 570 1913 C 596.316406 1912.339844 622.648438 1910 649 1910 L 649 1909 C 622.339844 1904.03125 594 1903.742188 567 1901.171875 C 555.914063 1900.113281 539.980469 1901.804688 530 1897 C 539 1893.222656 547.746094 1884.546875 557 1882.128906 C 565.882813 1879.808594 576.84375 1881.105469 586 1881 C 597.609375 1881 609.371094 1879.46875 621 1879 C 668.660156 1877 716.257813 1876.15625 764 1875 C 858.636719 1872.667969 953.367188 1871.332031 1048 1869.015625 C 1109.207031 1867.515625 1172.238281 1871.679688 1233 1864 L 1233 1863 C 1161 1863 1088.925781 1861 1017 1860.003906 C 947.367188 1859.175781 877.617188 1861.691406 808 1860 C 738 1858.273438 667.890625 1854 598 1854 C 601.390625 1849.171875 606.824219 1841 612 1838.027344 C 616.5625 1835.621094 624 1837 629 1837 C 640.660156 1837 652.289063 1836 664 1836 L 1446 1836 C 1461 1836 1476 1837 1491 1837 C 1498.648438 1837 1508.582031 1835.324219 1515.960938 1837.433594 C 1521.214844 1839 1525 1845.3125 1529 1848.824219 C 1535.59375 1854.714844 1543.183594 1859 1551 1863 C 1544.742188 1865.640625 1538.585938 1864.542969 1532 1865.171875 C 1513.738281 1867 1495.269531 1866.429688 1477 1868.171875 C 1415 1874.054688 1352 1877.335938 1290 1880 L 1290 1881 C 1370.910156 1882.671875 1451.984375 1884.03125 1533 1886.015625 C 1556.28125 1886.585938 1579.734375 1889 1603 1889 L 1603 1891 C 1570.988281 1891.089844 1536.820313 1898 1505 1902 L 1505 1903 C 1516.738281 1906.46875 1532.71875 1905 1545 1905 C 1567.304688 1905 1589.679688 1905.46875 1612 1906.015625 C 1701.828125 1908.214844 1791.253906 1903.246094 1881 1903 L 1881 1902 C 1869.992188 1898.746094 1856.488281 1900.089844 1845 1898.714844 C 1822 1896 1798 1891.191406 1775 1891 L 1775 1889 C 1825.285156 1889 1875.65625 1881 1926 1881 C 1938.71875 1881 1951.253906 1879 1964 1879 C 1968.730469 1879 1974.988281 1880.261719 1978 1876 C 1923.292969 1876 1868.742188 1865 1814 1865 C 1821.507813 1858.828125 1833 1848.117188 1842 1844.742188 C 1851.886719 1841.011719 1867.472656 1844.121094 1878 1844 C 1897.667969 1843.761719 1917.308594 1840.09375 1937 1840 C 1947.347656 1840 1957.636719 1838.003906 1968 1838 C 1969.636719 1838 1977.792969 1839 1977.792969 1836.117188 C 1977.792969 1834 1973.328125 1834.015625 1972 1834 C 1965.335938 1833 1958.628906 1832.164063 1952 1831.078125 C 1924.914063 1826.644531 1892.742188 1827.382813 1867 1818 L 1867 1817 C 1875.710938 1813.824219 1885.816406 1813.71875 1895 1812.828125 C 1913 1811.085938 1930.980469 1809 1949 1807.171875 C 1955 1806.59375 1974 1808 1978 1803.398438 C 1988 1792.242188 1967.972656 1791.160156 1962 1791.015625 C 1936.765625 1790.394531 1911.171875 1789.171875 1886 1787 C 1890.851563 1779.777344 1893.90625 1772.265625 1896.496094 1764 C 1897.449219 1761 1898 1756 1901.277344 1754.453125 C 1905.671875 1752.421875 1913.210938 1754.171875 1918 1754 C 1931.34375 1753.375 1944.597656 1753 1958 1753 C 1962.285156 1753 1974.804688 1755.140625 1977.972656 1752 C 1980 1749.828125 1979 1743.761719 1979 1741 L 1979 1711 C 1979 1708.230469 1980.261719 1701.277344 1977.398438 1699.601563 C 1973.425781 1697.28125 1964.515625 1699 1960 1699 L 1916 1699 C 1911 1699 1902.515625 1700.644531 1898.277344 1698 C 1894 1695.351563 1894 1686.394531 1892.976563 1682 C 1889.613281 1669.089844 1884.648438 1655.816406 1878.449219 1644 C 1859.863281 1608.574219 1834.53125 1578.679688 1801.910156 1555.332031 C 1696.636719 1480 1541.589844 1507.308594 1461.390625 1606 C 1440.25 1632.015625 1418.984375 1668.753906 1416 1703 C 1410.996094 1698.011719 1408.203125 1690.085938 1404.550781 1684 C 1395.414063 1668.773438 1386.496094 1653.4375 1377.71875 1638 C 1347.203125 1584.320313 1317.976563 1529.21875 1299.71875 1470 C 1292.769531 1447.46875 1286.59375 1423.679688 1286 1400 C 1285.921875 1396.234375 1288 1377.226563 1284.59375 1375.695313 C 1278 1373 1259.894531 1381 1255 1385.214844 C 1247.398438 1392 1241.796875 1401.382813 1234.574219 1408.714844 C 1221.550781 1422 1206 1433 1189 1440.34375 C 1132.554688 1464.789063 1069.699219 1452 1016 1426.550781 C 999.542969 1418.789063 980.929688 1411 967 1399 C 984.1875 1404 1000.585938 1412.152344 1018 1417 C 1071 1431.722656 1128 1436.757813 1180 1414.773438 C 1195.746094 1408.101563 1212.226563 1398.339844 1223.191406 1385 C 1226.894531 1380.476563 1230.410156 1375.472656 1232.53125 1370 C 1233.589844 1367.277344 1233.722656 1362.757813 1236.433594 1361.066406 C 1240.65625 1358.433594 1251.859375 1361.261719 1257 1361 C 1271.203125 1360 1285.945313 1357 1299 1351.136719 C 1308.699219 1347 1317.960938 1341.671875 1325.996094 1334.699219 C 1328.625 1332.421875 1332 1326.507813 1336 1327 C 1342.25 1327.765625 1350 1335.160156 1355 1338.777344 C 1367.207031 1347.808594 1379.839844 1356.253906 1392 1365.371094 C 1423.636719 1389.097656 1454.984375 1413.679688 1483.714844 1441 C 1496.792969 1453.320313 1509.636719 1466 1522.398438 1478.664063 C 1528 1484.304688 1532.46875 1491.316406 1539 1496 C 1532.523438 1479.164063 1516.367188 1462.472656 1505 1448.574219 C 1474 1410.613281 1438.234375 1379 1399 1349.730469 C 1387.5 1341.179688 1375.851563 1332.8125 1364 1324.746094 C 1357.449219 1320.285156 1349 1316.105469 1344 1310 C 1407.851563 1336.0625 1471.515625 1375.054688 1527 1416 C 1543.183594 1427.792969 1559.546875 1439.582031 1575 1452.433594 C 1586.203125 1461.753906 1596.882813 1473 1609 1481 C 1606 1474.363281 1600.210938 1469.476563 1595.617188 1464.015625 C 1583.433594 1449.539063 1570.324219 1435.363281 1556 1423 C 1512.984375 1386 1466.492188 1354.804688 1416 1328.742188 C 1401.847656 1321.4375 1387.332031 1310.425781 1372 1306 L 1372 1305 C 1397.480469 1308.761719 1424.167969 1323.664063 1448 1333.199219 C 1500.199219 1354.085938 1551.171875 1378.492188 1600 1406.425781 C 1626 1421.339844 1649.925781 1440.46875 1676 1455 C 1671.976563 1446.398438 1661.4375 1440 1654.28125 1433.730469 C 1636.453125 1418.515625 1618.523438 1403.683594 1599 1390.667969 C 1539 1350.675781 1474 1322.003906 1406 1298.828125 C 1381 1290.363281 1354 1278.519531 1328 1275 L 1328 1274 C 1358.625 1274.019531 1390.496094 1289.023438 1420 1296.257813 C 1498 1315.410156 1575.390625 1343.578125 1649 1376 C 1671.761719 1386 1693.921875 1397.121094 1716 1408.511719 C 1725.570313 1413.445313 1734.824219 1420.523438 1745 1424 C 1738.734375 1415.492188 1727.566406 1409.640625 1719 1403.574219 C 1699 1389.4375 1678.632813 1375.710938 1657 1364.21875 C 1595 1331.332031 1531.480469 1307.058594 1464 1288.253906 C 1443 1282.433594 1421.515625 1274 1400 1271 L 1400 1270 C 1430.527344 1270.085938 1462 1279 1492 1284.539063 C 1556 1296.632813 1619 1311.554688 1682 1329.011719 C 1711.222656 1337.125 1739.753906 1348.179688 1769 1356 C 1764.851563 1348.6875 1751.324219 1344.546875 1744 1340.703125 C 1721.292969 1328.789063 1697.824219 1319 1674 1309.398438 C 1584.183594 1273.761719 1490.445313 1262.445313 1395 1256 C 1379 1254.820313 1362.882813 1252.328125 1347 1252 L 1347 1251 C 1423 1251 1498.828125 1246.097656 1575 1247.003906 C 1612.644531 1247.449219 1650.421875 1252 1688 1252 L 1688 1251 C 1660.964844 1241.625 1631.261719 1237.320313 1603 1233.714844 C 1552.675781 1227.289063 1501.617188 1225.621094 1451 1229.089844 C 1413.628906 1231.648438 1376.527344 1236 1339 1236 L 1339 1235 C 1352.261719 1232.265625 1365.636719 1230.289063 1379 1228.078125 C 1385 1227.085938 1392.410156 1227.324219 1397.957031 1224.566406 C 1404.949219 1221.089844 1405.433594 1211.710938 1413 1208.105469 C 1426.21875 1201.804688 1443.5625 1199.476563 1455 1190 C 1448.3125 1189.554688 1441.421875 1193.109375 1435 1195 C 1422 1198.355469 1408.980469 1201.558594 1396 1205 C 1401.738281 1201.664063 1408.867188 1200.230469 1413.816406 1195.660156 C 1418.742188 1191.109375 1421.929688 1184.382813 1425.882813 1179 C 1438 1162.289063 1449.273438 1144.617188 1460.191406 1127 C 1505.703125 1053.5625 1539.808594 965 1535.960938 877 C 1535 855.191406 1532.421875 832.832031 1525.484375 812 C 1522 801.777344 1510.53125 785.671875 1511.480469 775.039063 C 1511.800781 771.441406 1515.871094 768.664063 1517.960938 766 C 1522.261719 760.464844 1525.632813 754.238281 1528.753906 748 C 1537.847656 729.808594 1542.953125 710 1546.535156 690 C 1556 637 1537.5625 583.824219 1547.460938 531 C 1552.824219 502.363281 1563.496094 475 1571.707031 447 C 1591.621094 379.378906 1612 311.449219 1618.828125 241 C 1622 207.460938 1624.582031 169.097656 1612.1875 137 C 1606.941406 123.410156 1599.789063 110.101563 1587 102.183594 C 1572.621094 93.28125 1554 93.507813 1538 96.539063 C 1499.710938 103.761719 1464.269531 128.617188 1434 152.011719 C 1404.894531 174.507813 1377.835938 199 1351.867188 225 C 1309.332031 267.613281 1268.53125 312 1228.714844 357 C 1200.230469 389.292969 1166.257813 414.230469 1123 421.246094 C 1104.199219 424.296875 1084.882813 422.484375 1066 424.714844 C 1060.445313 425.371094 1051.386719 423.773438 1048 429 M 1448 525 C 1434 499 1405 518.558594 1387 527 C 1393.816406 512.570313 1409.660156 497.480469 1422 487.664063 C 1427.59375 483.21875 1435.277344 480.171875 1440 475 C 1421 475 1410 478.820313 1393 486 C 1394.269531 480.59375 1397.855469 476.496094 1400.976563 472 C 1409.855469 459.210938 1426.453125 439.164063 1443 437 C 1438.511719 432.796875 1433.59375 434.527344 1428 435 C 1413.660156 436 1402.628906 440.105469 1389 444 C 1397.488281 425.796875 1423 410.351563 1441 403 C 1429.703125 395 1410.691406 396.644531 1398 400 C 1404.410156 386.535156 1425.792969 377.101563 1439 371.800781 C 1441 371 1455.945313 367 1455.945313 365.117188 C 1455.945313 361.734375 1435.867188 361 1433 361.003906 C 1427.96875 361.054688 1423 362 1418 362 C 1427.773438 350 1449.269531 337.71875 1465 337 C 1460.484375 332.476563 1453.222656 331 1447 330.167969 C 1445.84375 330.019531 1441.464844 330.226563 1441.921875 328.058594 C 1443 322.394531 1459.265625 314.71875 1464 311.8125 C 1485.511719 298.605469 1507.253906 285.175781 1527 269.398438 C 1531.171875 266.070313 1545.382813 250 1550.773438 252.832031 C 1555.847656 255.578125 1555.761719 265.121094 1556.425781 270 C 1558.773438 287.277344 1553.984375 307.179688 1550 324 C 1537.242188 380 1508.671875 429.296875 1477.859375 477 C 1471.269531 487.195313 1464.878906 497.460938 1458.851563 508 C 1455.644531 513.601563 1452.898438 520.789063 1448 525 M 1254 465 C 1247.734375 514.578125 1249 564.195313 1246.960938 614 C 1245.839844 639.632813 1242 665.34375 1242 691 L 1241 691 C 1231.976563 643.101563 1231.941406 593.214844 1238.28125 545 C 1241.742188 518.679688 1250.851563 491.34375 1252 465 L 1254 465 M 865 486 L 865 489 L 864 489 C 864.25 487.550781 864.316406 487.246094 865 486 M 1351 487 C 1348.507813 495.640625 1342.363281 503.042969 1338.257813 511 C 1329 528.707031 1320.777344 546.808594 1312.664063 565 C 1299.53125 594.449219 1286.421875 624.066406 1274.449219 654 C 1268.398438 669.121094 1263.878906 685.289063 1257 700 L 1256 700 C 1258.546875 641.589844 1287.585938 583.410156 1317.949219 535 C 1327.367188 520 1337.292969 498.328125 1351 487 M 866 490 C 875.21875 504 880.777344 523.425781 886.8125 539 C 901.277344 576.335938 914 614.300781 920.273438 654 C 922.585938 669 929.285156 692.367188 925 707 L 924 707 C 921 687 912.179688 666.585938 906.550781 647 C 896.878906 613.335938 889 579.035156 880.769531 545 C 877.675781 532.25 874 519.492188 870 507 C 868.4375 502.140625 864.617188 495 866 490 M 793 531 C 830.351563 568.664063 864 612.472656 887.601563 660 C 895.695313 676.308594 907 697.535156 908 716 L 907 716 C 880.480469 670.605469 850.859375 627.097656 823.800781 582 C 816.941406 570.570313 810 559.097656 802.667969 548 C 799.398438 543.089844 793.597656 537 793 531 M 1408 547 C 1404.832031 553.777344 1397.683594 558.164063 1392.300781 563.191406 C 1381.945313 573 1372 583 1362 593 C 1331.894531 623.105469 1301.566406 656.761719 1279 693 L 1278 693 C 1280.558594 678.601563 1290.523438 662.4375 1298 650 C 1323.800781 607.089844 1365.773438 573.0625 1408 547 M 893 724 C 886.796875 721.109375 882.402344 715.285156 877.386719 710.730469 C 867.488281 701.742188 857.441406 692.804688 847 684.449219 C 817.285156 660.675781 785.648438 641 754 620 C 763.84375 617.269531 784.800781 630 794 634.011719 C 835.597656 652.417969 874.8125 680.550781 893 724 M 1320 685 C 1316 694 1309 702.464844 1304 711 C 1300.933594 702.347656 1312.78125 688.367188 1320 685 M 1347 693 C 1340.660156 702.035156 1333.347656 709.613281 1329 720 C 1344.269531 713.640625 1358.199219 709.011719 1375 709 L 1375 710 C 1367 716 1360.691406 722.734375 1354 730 C 1370.4375 728.65625 1384.199219 726.191406 1400 733 C 1393.898438 737.105469 1386.6875 739.011719 1382 745 C 1390.585938 745.023438 1429.671875 750.753906 1409 760 L 1409 761 C 1432.355469 770.074219 1451.515625 798 1462 820 C 1450.382813 814.832031 1439.757813 805.542969 1429 798.695313 C 1401.898438 781.4375 1372 767.027344 1339 770.171875 C 1322 771.785156 1308.84375 779.082031 1293 784 C 1296.3125 776.5625 1302.390625 771.160156 1304.519531 763 C 1311.648438 735.703125 1308 695 1347 693 M 872 792 C 831.839844 792 791.292969 799.570313 756 820.453125 C 743.382813 828 731.507813 836.136719 720 845.210938 C 714.179688 849.800781 709 856.585938 702 859 C 707 849.117188 715.78125 840.367188 723 832 C 750.628906 800 789.632813 773.40625 834 779.730469 C 845.851563 781.417969 863.414063 782.605469 872 792 M 1235 933 C 1232.851563 942.339844 1236.347656 953.621094 1237.726563 963 C 1241.703125 990 1251.640625 1017 1254 1044 C 1244 1037.039063 1238.996094 1014.183594 1235.585938 1003 C 1223.914063 964.742188 1224 924.324219 1236 886 C 1239.484375 874.832031 1245.429688 855.214844 1256 849 C 1251.378906 883.324219 1256.9375 918.785156 1280.300781 946 C 1310.832031 981.566406 1361.386719 973.671875 1382.960938 933 C 1396.625 907.242188 1395.773438 875.496094 1388.964844 848 C 1386.210938 837 1381.308594 826.214844 1379 815 C 1425.566406 828.441406 1430.917969 892.132813 1416.769531 930 C 1394.722656 989.015625 1321.828125 1010.417969 1270 977.21875 C 1252.304688 966 1243.304688 951.734375 1235 933 M 1339 826.375 C 1371.1875 820.164063 1389.875 872.226563 1355 879.371094 C 1322.441406 886.035156 1304 833.121094 1339 826.375 M 860 849.300781 C 894.789063 844.453125 906.269531 900.027344 869 905.671875 C 834.785156 911 824 854.316406 860 849.300781 M 763 860 C 750.945313 897.039063 755.269531 937.628906 781.300781 968 C 816.507813 1009.078125 876.65625 1005.378906 902.878906 956 C 918.75 926.117188 913.535156 894.128906 911 862 C 959.855469 898 960.980469 976 907 1006 C 861.171875 1031.507813 798.511719 1020.1875 760 987 C 728 959.476563 708.628906 912 739.71875 877.015625 C 745.507813 870.519531 754.234375 861.742188 763 860 M 1262 992 C 1269.277344 994.414063 1275.605469 999.324219 1283 1002 C 1298.394531 1007.414063 1315.757813 1009.050781 1332 1008 C 1404 1003 1447 933.484375 1447 867 C 1452.796875 870.492188 1456.597656 880.753906 1458.820313 887 C 1467.296875 911 1461 933.304688 1449.777344 955 C 1419.394531 1013 1350.5 1056.816406 1288 1019 C 1277.449219 1012.609375 1268 1002.703125 1262 992 M 703 955 C 746 996.28125 792.722656 1032.730469 856 1030 C 882.554688 1028.796875 906.273438 1019.425781 932 1015 C 925.664063 1042.679688 895.8125 1055 870 1055 C 821.644531 1055.078125 773.828125 1044.394531 737.300781 1010.511719 C 725.175781 999.265625 715.351563 986 708.296875 971 C 706 966.402344 701.933594 960.152344 703 955 M 1268 1177 C 1260.191406 1173.382813 1255 1167.144531 1246 1166.175781 C 1227.214844 1164.183594 1210.816406 1179.824219 1192 1180.789063 C 1174.246094 1181.703125 1158.722656 1168.730469 1141 1168.257813 C 1125.464844 1168 1114.355469 1177.382813 1101 1183 C 1118 1142.019531 1167.417969 1143.816406 1202 1158 C 1192.484375 1112.015625 1166.441406 1070.328125 1158 1024 C 1156 1012.761719 1149.703125 985 1161.34375 976.648438 C 1165.914063 973.398438 1171.988281 980.441406 1174.996094 983.308594 C 1185.605469 993.433594 1194.234375 1005.242188 1202.882813 1017 C 1235.273438 1061.015625 1268 1121.375 1268 1177 M 1457.667969 1188.332031 C 1457.222656 1188.777344 1458.277344 1188.722656 1458.332031 1188.667969 C 1458.777344 1188.222656 1457.722656 1188.277344 1457.667969 1188.332031 M 861 1282 L 861 1283 C 829 1287.691406 796.574219 1302.15625 766 1312.164063 C 705.484375 1332 645.625 1352.667969 588 1380.027344 C 564.402344 1391.230469 541 1403.074219 518 1415.296875 C 507.523438 1421 496.449219 1430.105469 485 1433 C 502.703125 1416 526.277344 1403.097656 547 1390 C 612.894531 1348.132813 685.300781 1317.449219 761 1298.527344 C 784.484375 1292.65625 808 1288 832 1284.71875 C 840.773438 1283.535156 852.441406 1279.539063 861 1282 M 924 1284 L 924 1285 C 899 1287.488281 873.269531 1302.40625 850 1311 C 795.214844 1331.050781 740.765625 1355 689 1381.785156 C 669.492188 1392 650 1402.410156 631 1413.28125 C 621.265625 1418.816406 611.472656 1426.058594 601 1430 C 605.492188 1422.570313 616 1417.566406 623 1412.578125 C 640.519531 1400.058594 658.34375 1387.484375 677 1376.714844 C 731.847656 1345.058594 788 1317.71875 849 1299.707031 C 872.859375 1292.652344 898.886719 1284.015625 924 1284 M 1370 1303 L 1369 1304 L 1370 1303 M 953 1317 L 953 1318 C 900.914063 1355.414063 849.292969 1395.085938 801 1437.289063 C 788 1448.59375 775 1460.648438 763 1473 C 754.640625 1481.648438 746.953125 1492 737 1499 C 747.277344 1477.277344 768.65625 1456.480469 784.910156 1439 C 820.53125 1400.695313 859.441406 1366.636719 905 1340.574219 C 919.726563 1332.148438 936.371094 1321 953 1317 M 895 1323 C 890.289063 1328.496094 882.359375 1331 876 1334.257813 C 863.660156 1340.585938 851.390625 1347.011719 839 1353.246094 C 810.488281 1367.597656 782 1382.121094 754 1397.308594 C 740.652344 1404.527344 727.207031 1414.828125 713 1420 C 722.878906 1407.121094 741.613281 1398.589844 755 1389.667969 C 784 1370.277344 815 1353.269531 847 1339.140625 C 861.472656 1332.738281 879 1324.300781 895 1323 M 600 1430 L 599 1431 L 600 1430 M 1540 1497 L 1541 1498 L 1540 1497 M 556 1599 C 605.617188 1640 624.355469 1714 606.859375 1775 C 601.320313 1794.347656 589.46875 1824 570 1833 C 574.964844 1815.765625 580.921875 1800.316406 580.921875 1782 C 580.921875 1757.195313 573 1732.769531 572 1708 C 571.304688 1691.191406 578 1674.742188 575.699219 1658 C 573.734375 1644.203125 569.546875 1630.734375 563.90625 1618 C 561.605469 1612.800781 555.1875 1604.566406 556 1599 M 1802 1818 C 1801 1807 1803.90625 1795.308594 1802.828125 1784 C 1799.460938 1748.613281 1788.972656 1714.683594 1770.855469 1684 C 1763.488281 1671.527344 1754.390625 1660 1744.84375 1649 C 1742.835938 1646.714844 1734.941406 1640.097656 1736.34375 1636.601563 C 1737.367188 1634.054688 1751.933594 1631.828125 1755 1630.457031 C 1761.929688 1627.359375 1769 1619.539063 1776 1617.707031 C 1779.828125 1616.683594 1783.945313 1620 1787 1621.8125 C 1796.207031 1627.449219 1803.949219 1635 1809.898438 1644 C 1834.292969 1681.105469 1830.5 1730 1820.804688 1771 C 1817.3125 1785.796875 1812.632813 1806.644531 1802 1818 M 1851 1793 C 1854.511719 1765.355469 1857.667969 1739 1853.699219 1711 C 1849 1679.144531 1837.542969 1651.203125 1828 1621 C 1837.871094 1626 1846.441406 1639 1852.492188 1648 C 1873.671875 1679.753906 1882.4375 1719.089844 1870.65625 1756 C 1866.980469 1767.519531 1861.789063 1786.238281 1851 1793 M 509 1665 C 569.589844 1711.417969 547.167969 1814.703125 509 1868 L 508 1868 C 509.972656 1857 515.417969 1846.324219 517.539063 1835 C 521.949219 1811.476563 523 1785 520.828125 1761 C 518.699219 1738.613281 515.492188 1716.316406 512.714844 1694 C 511.703125 1686 506.640625 1672.691406 509 1665 M 421 1677 C 441.894531 1708.675781 444 1743.53125 432.167969 1779 C 429.320313 1787.511719 426.230469 1803.328125 418 1808 C 420.566406 1775.738281 414 1745.226563 414 1713 C 414 1702.574219 412.847656 1684.753906 421 1677 M 671 1752.433594 C 676.636719 1750.683594 684.273438 1752 690 1752 L 1400 1752 C 1416 1752 1434.175781 1749.59375 1449.980469 1752.148438 C 1455 1753 1455.988281 1758 1457.890625 1762 C 1461.261719 1769.171875 1465.890625 1775.8125 1470.808594 1782 C 1472 1783.648438 1477.503906 1788.546875 1475.824219 1791 C 1474.238281 1793.265625 1466.4375 1792 1464 1792 C 1452.335938 1792 1440.664063 1792 1429 1792 C 1381.558594 1792.226563 1333.511719 1790 1286 1792.039063 C 1234.722656 1794.285156 1182.496094 1792 1131 1792 L 664 1792 C 660.84375 1792 654.382813 1793.226563 651.660156 1791.398438 C 648.925781 1789.5625 654 1783.714844 655.1875 1782 C 659.316406 1775.316406 662.695313 1768.296875 665.601563 1761 C 666.8125 1758 667.617188 1753.558594 671 1752.433594 "/></g></svg>