<?xml version="1.0" encoding="UTF-8"?>
<svg xmlns="http://www.w3.org/2000/svg" xmlns:xlink="http://www.w3.org/1999/xlink" width="2000pt" height="2000pt" viewBox="0 0 2000 2000" version="1.1">
<g id="surface1">
<path style=" stroke:none;fill-rule:nonzero;fill:rgb(0%,0%,0%);fill-opacity:1;" d="M 1258 339 C 1262 333.269531 1267.242188 329 1273 325 L 1273 324 C 1258.601563 324.738281 1242.746094 331.617188 1229 336 C 1226.503906 336.660156 1216 341.816406 1214.304688 338.355469 C 1211.65625 333.144531 1225.386719 323.546875 1228 320 C 1213.742188 321.421875 1198.234375 328.308594 1185 333.601563 C 1181.886719 335 1173.589844 340 1171 335.667969 C 1167.605469 329.796875 1179.390625 319.578125 1182 315 C 1168.296875 319 1155.929688 327.097656 1143 333 C 1140.335938 334.214844 1131.378906 339.5 1129.707031 334.757813 C 1127.550781 328.640625 1137.683594 319.203125 1140 314 C 1125.640625 319 1112.675781 327.757813 1099 334.21875 C 1096.429688 335.433594 1086.570313 341.433594 1084.617188 337.589844 C 1081.363281 331.183594 1092 319.816406 1094 314 C 1074.851563 324.617188 1056.316406 336.664063 1036 345 C 1036.847656 334.648438 1042.753906 327.082031 1047 318 C 1034.378906 321.4375 1021.296875 334.363281 1011 342.234375 C 1008.21875 344.359375 1000.773438 351.816406 996.777344 350.335938 C 992.882813 349 997.675781 337.324219 998.664063 335 C 1000 331.507813 1002.335938 328.394531 1004 325 C 985.199219 331.339844 974.683594 353.585938 957 362 C 956.546875 351.417969 959.246094 344.179688 961 334 C 950.253906 341.570313 942.820313 352.816406 934.789063 363 C 932.738281 365.597656 928.289063 373.046875 924.304688 372.367188 C 919.695313 371.585938 919.96875 359.316406 920 356 C 920 352.613281 920.578125 349.347656 921 346 C 914 349.804688 908.949219 360.03125 905.523438 367 C 904.703125 368.671875 902.941406 376 900.675781 376 C 896.738281 376 894.957031 366.753906 894 364 L 893 364 C 890.289063 369.691406 886.601563 380.632813 881.40625 384.363281 C 875.496094 388.609375 877.488281 373.101563 878 371 C 869 376.25 865.96875 388.597656 857.835938 393.246094 C 853.523438 395.714844 853.328125 388.078125 848.941406 388.242188 C 840.839844 388.546875 833.960938 396 826 396.074219 C 821.300781 396.121094 815.722656 389.046875 812 386.4375 C 801.984375 379.417969 790.917969 373.703125 780 368.246094 C 750.691406 353.59375 719.757813 342.515625 688 334.472656 C 676.707031 331.613281 665.378906 329.328125 654 327 C 650 326.03125 644.617188 326.808594 641.273438 324.257813 C 634 318.726563 629.464844 305.402344 623.867188 298 C 609.355469 278.800781 587.8125 258 564 251 C 568.589844 261 577.996094 269.652344 583.945313 279 C 593 293.28125 599.285156 309.335938 605.550781 325 C 630.539063 387.472656 645.601563 456.511719 660.5 522 C 681 612.757813 704 702.8125 723 794 C 767.292969 1008 806 1223.160156 839.574219 1439 C 852.398438 1521.671875 865.546875 1604.21875 877.285156 1687 C 880.589844 1710.3125 883.976563 1733.675781 887.425781 1757 C 888.929688 1767.148438 893 1779.753906 891.8125 1790 C 890.851563 1798.191406 872.925781 1795 867 1795 L 799 1795 C 794.25 1795 779 1797.480469 776 1793.476563 C 772 1788.226563 772.8125 1774.515625 771.753906 1768 C 767.992188 1744.800781 764.746094 1721.324219 761.84375 1698 C 752.238281 1621 739.597656 1543.695313 726.921875 1467 C 680 1183.289063 632.964844 900.070313 576.449219 618 C 557.660156 524.230469 539.726563 429.386719 514.847656 337 C 508.273438 312.585938 501.625 288.699219 490.246094 266 C 486.210938 258 481.222656 246.402344 473 242 C 472.882813 256.289063 466.640625 270.550781 462.34375 284 C 454.207031 309.472656 445.527344 334.707031 436.832031 360 C 433 370.75 422.6875 385.550781 423.53125 397 C 425.371094 422 433 447.640625 438.339844 472 C 447 513.296875 456.265625 554.578125 464.550781 596 C 491.769531 732.058594 520 868 547.449219 1004 C 554.519531 1039.128906 562.554688 1074.070313 570.5 1109 C 574.703125 1127.484375 582.359375 1147.195313 584 1166 L 585 1166 C 584.980469 1136.769531 577.890625 1107 574.285156 1078 C 564.855469 1002.183594 551.238281 926.398438 538.675781 851 C 532.355469 813.058594 525 773.539063 525 735 L 526 735 C 555.738281 855.703125 578.390625 978.464844 599 1101 C 604.371094 1132.34375 610 1163.714844 615.613281 1195 C 617.460938 1205.453125 624.519531 1225.496094 621 1235.683594 C 619.722656 1240 608.445313 1238 605 1238 C 592.285156 1238 579.671875 1237 567 1237 C 562.585938 1237 554.949219 1238.4375 551.316406 1235.398438 C 547.855469 1232.496094 547.832031 1225.15625 547 1221 C 544.539063 1208.703125 542.765625 1196.242188 540 1184 C 528.898438 1132.15625 519.988281 1079.34375 511.246094 1027 C 490.253906 901.269531 464.417969 776.019531 439.449219 651 C 430.933594 608.371094 422.976563 565.628906 414.449219 523 C 410.300781 502.253906 408.304688 478.550781 400 459 L 399 459 C 381.257813 499 367.71875 540.816406 350.574219 581 C 344.28125 595.746094 337.664063 610.351563 331 625 C 328.328125 631.304688 323.476563 638.074219 322.480469 645 C 320.507813 658.710938 326.335938 676.214844 327.835938 690 C 332.226563 730.433594 338.996094 770.609375 343.84375 811 C 356.191406 914 371.839844 1016.132813 384 1119 C 388.375 1154.253906 394.976563 1189.617188 397.695313 1225 C 398.460938 1235 386.277344 1231.003906 380 1231 C 365.957031 1231 351.992188 1230 338 1230 C 333.78125 1230 326.265625 1228.554688 322.472656 1230.601563 C 318.46875 1232.765625 320 1251.539063 320 1256 L 320 1319 C 320 1324.46875 317.539063 1338 321 1342.398438 C 323.65625 1345.714844 333.214844 1344 337 1344 C 352.335938 1344 367.617188 1345 383 1345 C 444.648438 1345 506.355469 1348 568 1348 C 586.726563 1348 605.300781 1349 624 1349 C 629.878906 1349 640 1346.710938 642 1354.019531 C 648.761719 1379.582031 651.230469 1408.738281 654.167969 1435 C 654.777344 1440.460938 660.277344 1456 656.308594 1460.398438 C 653.46875 1463.582031 644.847656 1462 641 1462 L 598 1462 C 540 1462 481.972656 1460 424 1460 C 396.964844 1460 369.960938 1459.675781 343 1459.015625 C 336.855469 1459 318.808594 1455.761719 318 1464.019531 C 316.777344 1478.101563 318 1493 318 1507 C 318 1510.476563 316.523438 1518.53125 319.601563 1521 C 323.726563 1524.238281 335.910156 1522 341 1522 L 400 1522 C 463.703125 1522 527.335938 1523 591 1523 L 643 1523 C 649.207031 1523 659.296875 1521.117188 664.851563 1524.316406 C 670.53125 1527.589844 670 1546.710938 671 1553 C 675.914063 1582.515625 679.382813 1612.347656 683.28125 1642 C 687.449219 1673.6875 691.75 1705.367188 696.269531 1737 L 699.429688 1760 C 699.773438 1762.382813 701.464844 1767.054688 699.308594 1769 C 695.808594 1772.082031 687.914063 1769 684 1768.300781 C 670.359375 1766.289063 656.675781 1764 643 1762.160156 C 638.457031 1761.5625 631 1762.078125 629.226563 1757 C 624 1742.632813 624.363281 1723.070313 622.832031 1708 C 619.746094 1677.65625 615.550781 1647.230469 611.425781 1617 C 609.882813 1605.707031 608.695313 1594.316406 607.285156 1583 C 606.808594 1579.148438 607.632813 1572.789063 604.988281 1569.601563 C 602.335938 1566.410156 593.714844 1568 590 1568 L 379 1568 C 363.601563 1568 348.335938 1567.703125 333 1567.039063 C 329.59375 1567 319.371094 1566 317 1568.640625 C 314.601563 1571.519531 314.683594 1586.609375 318.316406 1588.398438 C 322 1590.269531 328.84375 1589 333 1589 L 401 1589 C 406.605469 1589 421.207031 1586.414063 425.398438 1590.601563 C 430.40625 1595.609375 429.277344 1614.03125 430.269531 1621 C 434.570313 1651.148438 438 1681.699219 441.167969 1712 C 441.96875 1720 442.964844 1728.082031 444.246094 1736 C 444.722656 1739 446 1743.765625 443.972656 1746.398438 C 441.242188 1750 432.898438 1749 429 1749.003906 C 416 1749.160156 402.769531 1750.386719 390 1752 L 390 1754 C 421.429688 1754.648438 455 1766 486 1771.574219 C 550.71875 1783.246094 615.414063 1795.203125 680 1807.261719 C 707.210938 1812.339844 734.511719 1819.339844 762 1822.714844 C 779.195313 1824.824219 797.671875 1823 815 1823 L 920 1823 C 1014 1823 1108 1825.121094 1202 1824.003906 C 1271 1823.183594 1341.316406 1824.707031 1410 1818.171875 C 1427.636719 1816.492188 1445.371094 1816.265625 1463 1814.15625 C 1468.816406 1813.460938 1477 1814.324219 1482 1811 C 1464.703125 1803.703125 1442.433594 1805 1424 1802.269531 C 1420.714844 1801.804688 1406.628906 1802.3125 1405.207031 1799.140625 C 1404 1796.710938 1409.335938 1792 1410.558594 1790 C 1415.253906 1782.667969 1418.890625 1773.71875 1419.824219 1765 C 1423.46875 1731.019531 1403.792969 1699.113281 1377 1679.746094 C 1357.613281 1665.730469 1335.347656 1656.152344 1312 1651.015625 C 1299.453125 1648.253906 1286.730469 1647.386719 1274 1646.171875 C 1268.789063 1645.671875 1261.835938 1646.550781 1257 1644 C 1248.972656 1639.566406 1240.820313 1625.742188 1236 1618 C 1246.238281 1624.320313 1255.191406 1632.171875 1265 1639 C 1263 1628.183594 1256 1617.460938 1252.503906 1607 C 1247 1591.707031 1245.265625 1577.046875 1244 1561 C 1255.632813 1572.476563 1262.347656 1592.585938 1278 1600 C 1275.75 1592.183594 1271.9375 1585.132813 1270.464844 1577 C 1267.492188 1560.628906 1269.296875 1545.367188 1270 1529 L 1271 1529 C 1273.546875 1541.347656 1277.628906 1553.183594 1281.945313 1565 C 1283.710938 1569.820313 1284.410156 1576.203125 1289 1579 C 1289 1548.261719 1290.347656 1508.808594 1305 1481 C 1309 1495.351563 1309.753906 1510.761719 1314 1525 L 1315 1525 C 1322.535156 1499.742188 1323.660156 1472 1329 1446 L 1330 1446 C 1330.808594 1464.804688 1336.519531 1483.246094 1338 1502 L 1339 1502 C 1348.632813 1469.710938 1353.90625 1429.679688 1354 1396 C 1358.691406 1401 1358.902344 1409.511719 1360.199219 1416 C 1363.519531 1432.589844 1364.925781 1449.441406 1368 1466 L 1369 1466 C 1375.960938 1441.230469 1380 1414.765625 1378.960938 1389 C 1378.414063 1376.5 1374.980469 1364.386719 1374 1352 L 1375 1352 C 1377.597656 1359.738281 1382.183594 1376.484375 1389 1381 C 1388.609375 1363.523438 1389.195313 1346.382813 1387 1329 C 1395 1338.066406 1401.902344 1351 1406.71875 1362 C 1408.90625 1367.066406 1410.316406 1376.003906 1415 1379 C 1414.921875 1351.214844 1410.582031 1322.378906 1402 1296 C 1410.34375 1303.679688 1413.308594 1318.628906 1422 1325 C 1420.933594 1300.539063 1414 1276.214844 1411 1252 C 1422.957031 1264.496094 1431.59375 1283.503906 1445 1294 C 1438.789063 1262 1428.550781 1232.265625 1420 1201 C 1432.5 1211.179688 1442 1225.691406 1455 1235 C 1450.378906 1209 1429.1875 1186.414063 1420 1162 C 1436.710938 1171.3125 1451.402344 1189.183594 1469 1196 C 1460.425781 1178.761719 1446.253906 1164.65625 1438 1147 C 1451.222656 1151.4375 1463.496094 1158.085938 1476 1164 C 1463.773438 1134.542969 1435 1117 1409 1101.398438 C 1376.265625 1082.039063 1341.8125 1064.792969 1306 1052 C 1280 1042.476563 1253.242188 1036.335938 1227 1028 L 1227 1027 C 1273.628906 1027 1325.449219 1039 1367 1060.257813 C 1395.605469 1075 1420.550781 1093.519531 1447 1111.496094 C 1480.761719 1134.441406 1515.570313 1156.277344 1547 1182.433594 C 1563.183594 1196 1578.734375 1210.023438 1594.171875 1224.324219 C 1600.644531 1230.320313 1605.78125 1238 1613 1243 C 1608.4375 1229.46875 1594.441406 1215.027344 1585.425781 1204 C 1567.535156 1182.121094 1548.976563 1162.132813 1527 1144.261719 C 1510.472656 1130.820313 1491.6875 1119.320313 1476 1105 C 1491.226563 1108.480469 1507.453125 1111.644531 1523 1113 L 1523 1112 C 1512.796875 1105.246094 1502.203125 1099.226563 1495 1089 C 1507 1091.769531 1519.507813 1096 1532 1096 C 1529.703125 1090.070313 1524.863281 1086.792969 1521 1082 C 1535 1082.125 1550 1089.625 1563 1094.800781 C 1587.636719 1104.65625 1612 1115.703125 1636 1127.257813 C 1648.640625 1133.371094 1662.421875 1142.578125 1676 1146 L 1676 1145 C 1642.851563 1123.097656 1611.6875 1098.757813 1576 1080.753906 C 1567.546875 1076.488281 1559.296875 1072 1551 1067.304688 C 1548.9375 1066.171875 1543 1064.074219 1543 1061.132813 C 1543 1059 1547.527344 1058.636719 1549 1058.253906 C 1555.261719 1056.636719 1561.871094 1055.828125 1568 1054 C 1562.269531 1049.730469 1556 1048.691406 1551 1043 L 1567 1043 C 1564.53125 1039.261719 1560 1038.34375 1556 1037 L 1556 1036 C 1595.253906 1026.652344 1632.648438 1048.328125 1671 1050 L 1671 1049 C 1642.773438 1035.589844 1613 1023.46875 1583 1015 L 1583 1014 C 1592.238281 1011 1599.988281 1006.027344 1610 1006 C 1603.535156 997.382813 1587 997.152344 1579 990 C 1608.867188 990 1637 986.636719 1667 989 L 1667 988 C 1645.40625 978 1615.441406 975.175781 1600 955 C 1616.695313 955.136719 1633.640625 957 1650 952 L 1650 951 C 1636 945.730469 1624.441406 941.28125 1616 928 C 1630 928.28125 1653.886719 930.285156 1666 922 C 1649 916.664063 1636.355469 912.78125 1627 896 C 1640 896.269531 1662.234375 900.046875 1674 893 C 1653 885.175781 1643.441406 877.398438 1632 858 C 1644.367188 861.375 1657 865 1670 865 L 1670 864 C 1657.570313 857.378906 1644 846.28125 1637 834 C 1647.34375 839 1658.984375 843 1670 846 C 1665.214844 836.1875 1653 829.648438 1647 820 C 1652.855469 823.214844 1658.59375 827.007813 1665 829 C 1656.527344 812.398438 1643.839844 797 1634 781 C 1643.785156 786.210938 1655.511719 790.421875 1666 794 C 1659.589844 782.179688 1646.265625 775.09375 1640 763 C 1650 769.617188 1662.554688 777.378906 1674 781 C 1662.464844 764.5625 1647.328125 750.535156 1636 734 C 1647.640625 740.480469 1656.253906 750.4375 1667 758 C 1661.933594 729.574219 1636.671875 706.484375 1622 683 C 1633.753906 687.558594 1646 689.207031 1658 693 C 1655 687.011719 1648.625 683.742188 1644 679 C 1636.976563 671.523438 1631.753906 663 1628.910156 653 C 1623.792969 635.148438 1627 616.109375 1628.828125 598 C 1630.757813 577.769531 1632 557.289063 1632.960938 537 C 1636 465.378906 1631.214844 388.414063 1608.492188 320 C 1597.96875 288.308594 1584.636719 257.300781 1562.488281 231.828125 C 1556.617188 225.078125 1546.828125 211.09375 1537 210.511719 C 1520.652344 209.546875 1500.605469 215.722656 1485 220.140625 C 1440.53125 232.734375 1395.234375 254 1358 281.476563 C 1343.277344 292.359375 1328.910156 303.511719 1315 315.429688 C 1308.320313 321.152344 1301.933594 330 1294 333.820313 C 1289.804688 336 1284.519531 334.738281 1280 335.171875 C 1272.550781 336 1265.417969 338.394531 1258 339 M 1484 248 L 1484 249 C 1428.871094 283 1379.933594 323.058594 1341.746094 376 C 1330.203125 392 1318.753906 408.46875 1309.625 426 C 1303.792969 437.203125 1299.871094 452.253906 1292 462 C 1284.535156 436.746094 1296.691406 401.1875 1308.222656 379 C 1335 327.316406 1389.84375 288.175781 1442 265 C 1455.546875 259 1469.503906 251.433594 1484 248 M 1123 372 C 1137.71875 361.671875 1154 352.140625 1172 348 C 1170.910156 356.324219 1165.191406 363.800781 1163 372 C 1175.371094 362.324219 1198.371094 349.53125 1215 352 C 1210.984375 358.101563 1207.378906 364.03125 1205 371 C 1220.824219 362.226563 1237.953125 359 1256 359 C 1254.5625 362.792969 1247 371 1248.410156 375.042969 C 1249 377.046875 1255.929688 372.390625 1257 372 C 1265.261719 368.007813 1275 364.53125 1284 363 C 1278.511719 387.003906 1264.816406 408.613281 1251.691406 429 C 1247.699219 435.203125 1244 446 1238 450 C 1238.910156 429 1242 408.339844 1242 387 C 1232.851563 393.734375 1224.835938 404.09375 1217.804688 413 C 1214.398438 417.3125 1211.738281 423.125 1207 426 C 1208.402344 412 1209 398.292969 1209 384 C 1198.761719 391 1190.496094 400.378906 1182.800781 410 C 1178.695313 415.128906 1174.785156 423 1169 426 C 1168.753906 414.039063 1167.757813 399.578125 1165 388 L 1164 388 C 1150 426 1155.433594 468.550781 1138 506 L 1137 506 C 1138.511719 470.808594 1145.234375 428.734375 1131 395 C 1124.535156 410.324219 1123 431.476563 1121 448 L 1120 448 C 1117.429688 434.164063 1116 420 1113.613281 406 C 1113.269531 404.03125 1113.691406 393.054688 1110.789063 393.054688 C 1108 393.054688 1105.703125 404 1105 406 C 1099.941406 421.164063 1099.875 436.515625 1097 452 L 1096 452 C 1095.6875 436.761719 1090.8125 422 1088.324219 407 C 1087.9375 404.671875 1088.292969 393.414063 1085.671875 392.632813 C 1083.433594 392 1080 402.363281 1079.332031 404 C 1074 416.285156 1070 430.601563 1070 444 C 1066.183594 441.304688 1066.4375 435.339844 1065.375 431 C 1062.507813 419.308594 1059 407.074219 1059 395 C 1049.183594 406.238281 1050 431 1050 445 L 1049 445 C 1043.949219 431.253906 1041 414.644531 1041 400 C 1029.734375 412.777344 1033.484375 434.832031 1029 450 C 1021.464844 437.507813 1021.734375 420 1021 406 L 1020 406 C 1013.503906 422 1009 435.6875 1009 453 L 1008 453 C 1004 438.195313 1000 424.417969 1000 409 L 999 409 C 991.644531 427.023438 988 445.496094 988 465 L 987 465 C 982.777344 450.007813 983.507813 434.730469 980 420 L 979 420 C 973.769531 436.039063 967.949219 449.789063 967.371094 467 C 966.855469 482.179688 971.710938 496.214844 973 511 C 966.894531 506.507813 964.800781 493.050781 962.507813 486 C 955.222656 463.585938 949.625 440.828125 944 418 L 943 418 C 937.34375 441.6875 941.59375 468.589844 946.660156 492 C 948.390625 500 952.195313 508 953 516 L 952 516 C 932 488.199219 916.730469 454.550781 914 420 L 912 420 C 911.988281 434.320313 910 448.566406 910 463 C 899.183594 455.433594 894.890625 438.230469 887 428 C 885.921875 441.1875 883.449219 454.828125 882 468 C 873.648438 461 870 449.1875 862 442 C 862 462.324219 866 481.089844 869 501 C 863 497.394531 859 488.832031 855.425781 483 C 844.867188 466.039063 835.28125 445.3125 830 426 C 834.351563 427.1875 841.585938 436.171875 845.398438 435.367188 C 847.945313 434.832031 848.996094 419.332031 852.277344 416.449219 C 859.726563 410 866 422.4375 872.648438 420.460938 C 875 419.730469 875.867188 412.234375 877.558594 410.039063 C 888 396.445313 896 405.441406 906 413 C 906.429688 404.613281 911.457031 397.019531 917 391.003906 C 918.910156 389.066406 922.441406 384.71875 925.570313 386.175781 C 928.777344 387.671875 929.53125 403 931.898438 402.367188 C 934.394531 401.726563 937.5625 394.085938 939 392 C 945 384.140625 951.894531 375.222656 961 371 C 961 379 959.683594 386.183594 959 394 C 971.796875 382.640625 984 365.730469 1001 360 C 1000.234375 368.761719 997 378.734375 994 387 C 1009.585938 375 1020.871094 360.503906 1041 355 C 1039.6875 364 1035.210938 372.058594 1034 381 C 1046.1875 367.777344 1067.386719 350.433594 1086 348 L 1078 374 C 1090.601563 365.132813 1101.46875 357.597656 1116 351.800781 C 1118 351 1128 346 1129.59375 348.707031 C 1131.339844 352 1124 368 1123 372 M 841 504 L 840 504 C 807.476563 464 762.933594 430.371094 720 402.34375 C 705.167969 392.660156 690 383.445313 675 374.050781 C 668.839844 370.195313 659.5625 366.515625 656 360 C 674.910156 362.550781 694.347656 369.539063 712 376.601563 C 769.371094 399.550781 825.902344 440.292969 841 504 M 1526 381 L 1526 382 C 1465.167969 410.402344 1420.195313 469.496094 1392 529 L 1391 529 C 1391 506.269531 1401.617188 483.097656 1411 463 C 1399.21875 471.054688 1386.730469 482.292969 1377.285156 493 C 1371 500.027344 1365.363281 509.316406 1358 515 C 1359.488281 498 1370 479 1379.332031 465 C 1403.292969 429.058594 1442.492188 404.171875 1483 390.667969 C 1496.667969 386.109375 1511.476563 381.300781 1526 381 M 1000.332031 407.667969 C 1000.277344 407.722656 1000.222656 408.777344 1000.667969 408.332031 C 1000.722656 408.277344 1000.777344 407.222656 1000.332031 407.667969 M 1514 454 C 1508.859375 462.523438 1492 468.671875 1484 475 C 1458.246094 494.523438 1432.171875 517 1404 533 C 1422.210938 489.265625 1466.960938 457.71875 1514 454 M 1540 482 L 1540 483 C 1508.28125 501.710938 1482 527.304688 1452 548.203125 C 1443.585938 554.042969 1435.363281 561.832031 1426 566 C 1428 556.273438 1434.882813 547.15625 1440.332031 539 C 1461 508 1501.578125 482.324219 1540 482 M 1250 490 C 1249.996094 525.066406 1233 562.554688 1217 593 L 1216 593 C 1216.523438 568.433594 1230.332031 540.578125 1239.203125 518 C 1242.609375 509.328125 1244.640625 497.515625 1250 490 M 1308 491 C 1297.714844 506.042969 1284.332031 519.324219 1273.375 534 C 1254.554688 559.203125 1237.6875 586 1220 612 L 1219 612 C 1231.367188 575.125 1251.550781 544.453125 1279 517 C 1287.878906 508.121094 1296.675781 496.78125 1308 491 M 788 546 C 775 542 759.296875 534.445313 748 527 C 754.789063 542.230469 770.71875 554.070313 776 570 C 753 557 731.976563 540 710 525.332031 C 704.28125 521.53125 694.472656 509.699219 697.789063 501.617188 C 699.363281 497.773438 718.773438 504.304688 722 505.359375 C 742.902344 512.171875 777.269531 525.484375 788 546 M 1213 501 C 1213 529.515625 1208.722656 559 1199.304688 586 C 1196.667969 593.558594 1193.925781 607.460938 1187 612 C 1191.859375 574.367188 1206.171875 538.382813 1211 501 L 1213 501 M 1572 509 L 1572 510 C 1545.324219 525.570313 1521.363281 541.523438 1498.285156 562.335938 C 1486.851563 572.648438 1475.546875 583.101563 1464 593.285156 C 1458.714844 598 1454.320313 603.71875 1448 607 C 1460.636719 553.800781 1517.554688 510.121094 1572 509 M 974 513 L 973 514 L 974 513 M 1311 535 C 1303.929688 545.039063 1293.597656 553.121094 1285 562 C 1274.785156 572.675781 1265.414063 584.550781 1255.984375 596.039063 C 1248.703125 605 1240.234375 620.8125 1230 626 C 1244.371094 589 1273.296875 550.800781 1311 535 M 876 545 C 895.953125 575.15625 916 607.535156 930 641 C 923.9375 638.042969 920 631.140625 915.921875 626 C 902.433594 609.507813 892.285156 589.605469 884.1875 570 C 881.558594 563.632813 874 551.765625 876 545 M 710 547 C 730.386719 560.589844 749.757813 575.035156 762 597 C 754.546875 594.808594 747.78125 590 741 586.175781 C 733.3125 582 720.914063 578.292969 715.726563 571 C 712.976563 567 712.972656 561.519531 711.867188 557 C 711 553.699219 709.40625 550.339844 710 547 M 820 547 C 847 566.4375 871.476563 591.398438 890 619 C 895.355469 627 902.539063 635 906 644 C 880.535156 626.0625 860.300781 596 840.804688 572 C 835 565 821.628906 556 820 547 M 1576 569 C 1571 576.773438 1553.230469 579.832031 1545 583.785156 C 1526.691406 592.578125 1509.363281 604 1492 614.398438 C 1484.582031 619 1477.273438 625.363281 1469 628 C 1491.757813 587 1530.527344 569.375 1576 569 M 1312 577 C 1305.835938 585 1294.9375 589.808594 1287 596.015625 C 1270.964844 608.554688 1255.605469 625 1238 635 C 1240.21875 628.3125 1245.640625 623.386719 1250 618 C 1265.226563 599.183594 1288 582.648438 1312 577 M 902 656 C 889.722656 652 879.78125 641.480469 870 633.464844 C 851.195313 618.042969 832.171875 602.609375 812 589 C 819.472656 587 832.75 596.820313 839 600.683594 C 860.679688 614.089844 890.71875 631.804688 902 656 M 722 593 C 728.191406 601.175781 735.4375 609.832031 740 619 C 730.886719 615 717.878906 604.492188 722 593 M 898 669 C 889.554688 667 882.652344 661.417969 875 657.523438 C 858.605469 649.183594 842.289063 640.570313 826 632 C 831.617188 630 839.511719 634 845 635.585938 C 862.878906 641.0625 886.339844 654.097656 898 669 M 606 654 C 606.398438 673.285156 611.738281 694 614.574219 713 C 622.257813 765 631 816.675781 642.425781 868 C 647.765625 892.324219 656.378906 916.371094 660 941 L 662 941 C 661.464844 876.523438 645.734375 810.574219 631.5 748 C 626.757813 727.164063 621.261719 706.59375 615.554688 686 C 612.632813 675.445313 611 663.824219 606 654 M 1331 674 L 1331 675 C 1304.472656 680 1279.925781 680.777344 1255 693.269531 C 1187.617188 727.050781 1180 803.460938 1180 870 C 1176.578125 865.507813 1176.574219 857.554688 1175.949219 852 C 1174.324219 837.535156 1172.917969 823.5 1173.910156 809 C 1177.539063 756.019531 1202.628906 702.085938 1256 682.695313 C 1281.191406 673.542969 1304.820313 674 1331 674 M 998 829 L 997 829 C 989.777344 807.617188 980.746094 786 966.710938 768 C 935.660156 728.300781 886 714.039063 838 726.757813 C 812.332031 733.546875 796 750.257813 774 763 C 780 750.28125 791.988281 739 803 730.351563 C 869.480469 679.105469 960.3125 718.085938 988.425781 792 C 992.863281 803.667969 997.449219 816.410156 998 829 M 1205 796 C 1208.613281 801.285156 1207.84375 809.816406 1210.488281 816 C 1218.632813 835.027344 1232.824219 850.367188 1252 858.574219 C 1291.253906 875.371094 1337 853.820313 1349.808594 813 C 1352.292969 805.050781 1354.789063 794.234375 1353 786 C 1349.261719 791.234375 1345 794.496094 1339 796.714844 C 1327.910156 800.753906 1313.515625 800.265625 1304 792.472656 C 1282.769531 775 1292 739.539063 1320 736.183594 C 1331.203125 735 1337.953125 741.148438 1348 743 C 1339.199219 733.214844 1331.394531 724.007813 1320 717 C 1328.804688 713.597656 1343.535156 725.230469 1350 730.402344 C 1376.746094 751.78125 1386.222656 789.441406 1378.253906 822 C 1365.320313 874.824219 1304.417969 900.214844 1255 886.710938 C 1217.183594 876.378906 1188.683594 834.414063 1205 796 M 425 765 C 448.226563 884.777344 469.925781 1005 491.535156 1125 C 496.617188 1153.25 500.609375 1181.820313 506.199219 1210 C 507 1214.683594 513.597656 1234.609375 506.851563 1236 C 502.734375 1236.609375 489.941406 1237.703125 487 1234.257813 C 482.195313 1228.585938 482.679688 1213.175781 481.710938 1206 C 478.703125 1183.660156 474.585938 1161.414063 472 1139 C 461.53125 1046 442.945313 954.0625 432.835938 861 C 430.265625 837.375 425.953125 813.785156 424.964844 790 C 424.660156 782.648438 420.648438 771.371094 425 765 M 814 836 C 814 894.140625 883.347656 933.320313 931 896 C 939.277344 889.5 946 881.253906 951 872 C 957.277344 860.640625 959 846.746094 959 834 C 946 847.476563 922.285156 851 908.183594 836.816406 C 893.863281 822.542969 896 794.382813 915 785.140625 C 944.828125 770.574219 965.613281 802.066406 974.21875 826 C 988 864.363281 976 905.726563 939 925.691406 C 904.296875 944.382813 853.839844 941 826.390625 910.824219 C 813.222656 896.359375 806.773438 878.453125 807 859 C 807 851.578125 808.335938 841.21875 814 836 M 377 811.324219 C 380.5625 811.054688 390.433594 810.746094 393.257813 813.027344 C 396.90625 816 396.527344 827.558594 397.246094 832 C 400 850 401.980469 868.042969 404.921875 886 C 418.578125 969.441406 428.976563 1054.050781 439 1138 C 442 1162.300781 446.855469 1186.632813 449 1211 C 449.40625 1215.605469 454.621094 1232.605469 447.851563 1234 C 443.339844 1234.683594 428.921875 1234.714844 425.601563 1231.398438 C 422.296875 1228.089844 422.636719 1216.621094 422 1212 C 419.617188 1194.710938 417.894531 1177.199219 415 1160 C 401.304688 1075.808594 392.414063 990.679688 381.28125 906 C 378 882 375.171875 858 371.4375 834 C 370 825.101563 365.246094 812.222656 377 811.324219 M 1647 819 L 1646 820 L 1647 819 M 1087 916.285156 C 1107 914 1130.835938 924.019531 1144.5625 938.285156 C 1149.644531 943.570313 1154.929688 950.492188 1155.8125 958 C 1156 960.527344 1156.355469 965.402344 1152.851563 965.757813 C 1145.171875 966.542969 1132 959 1124 957.464844 C 1105 954.113281 1083.433594 956.546875 1065 961.746094 C 1057 964 1048.789063 967.4375 1042 972.027344 C 1039.90625 973.445313 1035.527344 978 1032.703125 976.695313 C 1025 973.296875 1033 955.457031 1035.269531 951 C 1045.402344 930.785156 1065 919 1087 916.285156 M 1573 967 L 1573 968 C 1562.539063 967.550781 1552.390625 964.328125 1542 963.167969 C 1517.421875 960.417969 1492.6875 958.121094 1468 957.039063 C 1399 954.019531 1331.183594 959.382813 1263 968 C 1269.6875 963.21875 1279.199219 961.734375 1287 959.410156 C 1306.328125 953.65625 1325.925781 949 1346 947 C 1394.582031 941.613281 1442.609375 942.171875 1491 949.300781 C 1511 952.261719 1531.1875 956.609375 1551 961.234375 C 1558.324219 963 1565.515625 966.253906 1573 967 M 1090 963.285156 C 1099.347656 962.167969 1108.753906 963.3125 1118 964.574219 C 1119.574219 964.789063 1125.554688 964.351563 1126 966.375 C 1126.632813 968.519531 1119.386719 971.132813 1118 972.042969 C 1109 978 1102 986.464844 1091 987.816406 C 1079.617188 989.195313 1070.527344 985.132813 1061 979.320313 C 1059.410156 978.347656 1052.320313 975.695313 1053.347656 973.164063 C 1054.4375 970.476563 1059.558594 969.136719 1062 968.230469 C 1070.8125 965 1080.722656 964.394531 1090 963.285156 M 1583 1021 C 1474.550781 996.136719 1368 986 1257 986 C 1262.316406 983.175781 1270 983 1276 982 C 1291.234375 979.351563 1306.625 978 1322 977 C 1385.386719 972.546875 1450.882813 981.191406 1512 998.421875 C 1528.382813 1003.039063 1544.613281 1008.214844 1561 1013 C 1567.875 1014.808594 1577.933594 1015.765625 1583 1021 M 1507 1056 L 1507 1057 C 1485 1053.265625 1462.757813 1045 1441 1039.476563 C 1394.972656 1028.117188 1348 1019.570313 1301 1013.714844 C 1282.984375 1011.472656 1264 1008.050781 1246 1008 C 1251 1004.128906 1260.78125 1006 1267 1006 C 1283.421875 1006 1299.546875 1004.265625 1316 1005.828125 C 1381.3125 1012.046875 1448.949219 1022.117188 1507 1056 M 922 1018 C 914.445313 1022.019531 903.402344 1022.101563 895 1023.613281 C 876.207031 1027 857.578125 1030.820313 839 1035.195313 C 834.769531 1036.191406 815.195313 1043.1875 813.226563 1038.679688 C 805.742188 1021.507813 823.589844 1022 836 1020.28125 C 862.484375 1016.800781 895.753906 1011.753906 922 1018 M 945 1037 C 937.535156 1043.578125 923.355469 1046.035156 914 1049.414063 C 892.710938 1057.105469 871.703125 1065.707031 851 1075 C 843.949219 1078 837 1081.433594 830 1084.535156 C 827.875 1085.46875 824 1087.527344 822.601563 1084.640625 C 815.394531 1071 838.386719 1065.019531 847 1061.601563 C 876.265625 1050 913.242188 1037.089844 945 1037 M 977 1049 L 977 1050 C 946.867188 1069.6875 914 1085.292969 884 1105.332031 C 867 1116.570313 850.480469 1135.175781 832 1143 C 832.347656 1128.171875 849.46875 1115 860 1106.082031 C 885.242188 1085.09375 914.195313 1070.308594 945 1059.308594 C 955 1055.710938 966.335938 1050.070313 977 1049 M 1390 1160 C 1376.570313 1150.539063 1365.253906 1137.472656 1352 1127.476563 C 1327 1108.683594 1300 1093 1273 1077.574219 C 1255.785156 1068 1237.605469 1056.769531 1219 1050 C 1223.351563 1048.679688 1228.667969 1051.039063 1233 1052.128906 C 1243.847656 1055 1254.398438 1058.464844 1265 1062 C 1314.265625 1078.4375 1367 1111.398438 1390 1160 M 993 1065 C 983.371094 1076.828125 967.75 1086.570313 956 1096.4375 C 937.933594 1111.609375 921 1128.714844 905 1146 C 891.191406 1161 877.757813 1176.648438 865.476563 1193 C 858.878906 1201.777344 852.960938 1213.535156 844 1220 C 856.386719 1168 903.410156 1120.191406 946 1091 C 959.257813 1082 976.929688 1068 993 1065 M 1200 1108 C 1197.324219 1112.625 1190.90625 1114.058594 1186 1115.640625 C 1169.367188 1121.007813 1153.878906 1118.617188 1139 1110 C 1142.519531 1117.53125 1148.574219 1123.609375 1152 1131 C 1139.300781 1129.726563 1134.234375 1120.0625 1125 1113 C 1125.351563 1123.15625 1126.703125 1133 1128 1143 C 1116.839844 1135.136719 1114.472656 1123.355469 1111 1111 L 1110 1111 C 1106.289063 1120.050781 1103.527344 1128.085938 1104 1138 C 1093.398438 1132.578125 1092.5625 1119.230469 1093 1109 L 1092 1109 C 1088 1119.722656 1081.558594 1129 1078 1140 L 1077 1140 C 1074.691406 1130.296875 1078.308594 1120.300781 1081 1111 C 1072 1118.570313 1060.78125 1123.0625 1049 1124 C 1060.796875 1108.710938 1079.621094 1099 1091.523438 1083 C 1093.667969 1080.117188 1099.828125 1066.207031 1103.390625 1066.207031 C 1106.589844 1066.207031 1109.960938 1071 1112 1073 C 1118.386719 1079.292969 1125.488281 1084.769531 1133 1089.65625 C 1152.300781 1102.210938 1177 1109.808594 1200 1108 M 1005 1083 L 1004 1084 L 1005 1083 M 1003 1084 C 995.800781 1100.148438 979 1113.660156 968.746094 1128 C 941.632813 1165.425781 913 1204.683594 896 1248 L 895 1248 C 895.65625 1233 903.570313 1216.714844 909.421875 1203 C 923.980469 1169 945.789063 1137.210938 972 1111 C 981.390625 1101.609375 991.433594 1090.679688 1003 1084 M 1476 1104 L 1475 1105 L 1476 1104 M 1081 1110 L 1082 1111 L 1081 1110 M 1420 1161 L 1419 1162 L 1420 1161 M 705 1208 C 705 1234.46875 711.445313 1261.722656 714.714844 1288 C 722.25 1348.578125 732.957031 1409.476563 746.5 1469 C 751.917969 1492.824219 760.449219 1517 764 1541 L 765 1541 C 764.996094 1512.503906 759.800781 1483.242188 756.285156 1455 C 749.539063 1400.769531 739.585938 1346.109375 726.371094 1293 C 721.402344 1273.023438 716.84375 1253 711.730469 1233 C 709.773438 1225.351563 709.472656 1214.507813 705 1208 M 1614 1244 L 1615 1245 L 1614 1244 M 1267 1799 C 1270.480469 1786.246094 1273.625 1774.476563 1271.699219 1761 C 1267.808594 1733.753906 1242.742188 1708.40625 1218 1698 C 1238 1722.664063 1252.585938 1771.550781 1223 1796 C 1224 1784.414063 1229.738281 1774.152344 1228.910156 1762 C 1226.40625 1725.292969 1196.171875 1699.128906 1163 1688 C 1180.675781 1713.097656 1195.816406 1737.050781 1184.996094 1769 C 1182.46875 1776.460938 1178.371094 1787.375 1171 1791 C 1174.382813 1781.007813 1178.300781 1770.777344 1177.957031 1760 C 1176.792969 1723.5625 1151.632813 1690.121094 1117 1679 C 1100.738281 1673.609375 1084.789063 1673.675781 1068 1675 C 1076 1665.664063 1092.449219 1661.496094 1104 1658.628906 C 1107.308594 1657.804688 1117.984375 1658.285156 1119.964844 1655.722656 C 1121.292969 1654 1117.730469 1651.261719 1116.730469 1650.230469 C 1112 1645.523438 1107 1641.09375 1102 1637.003906 C 1089.191406 1626.789063 1074.257813 1618 1059 1612.003906 C 1049.570313 1608.308594 1039 1606.4375 1030 1602 L 1030 1601 C 1042.703125 1599.394531 1056 1598.816406 1068 1604 C 1064.339844 1597 1057.792969 1592.171875 1052 1587 C 1033.898438 1570.535156 1011 1558.007813 989 1548 L 989 1547 C 1002.433594 1547.007813 1017.453125 1550.316406 1030 1555 C 1013.9375 1533.175781 981.652344 1517.644531 958 1505.511719 C 949.324219 1501.0625 930 1496.28125 925 1488 C 990.753906 1503.210938 1052.519531 1551.09375 1099.996094 1597.039063 C 1111.175781 1608 1122 1620 1131.800781 1632 C 1136.511719 1638 1141 1647 1147.183594 1651.398438 C 1155.535156 1657.433594 1174.78125 1655.140625 1185 1657.425781 C 1209 1662.796875 1233 1673.507813 1252 1689.324219 C 1275.511719 1709 1289 1738.582031 1283.195313 1769 C 1281 1779.8125 1276.195313 1792.367188 1267 1799 M 1236 1617 L 1235 1618 L 1236 1617 M 536 1621.285156 C 541.410156 1620.648438 558.855469 1618.328125 563 1622.027344 C 567.382813 1625.828125 565.722656 1638.714844 566.425781 1644 C 569.402344 1666.402344 572.894531 1689.429688 574 1712 C 574.523438 1722.667969 576.445313 1733.394531 577.714844 1744 C 578 1746.660156 579.320313 1753.707031 575.683594 1754.59375 C 564.828125 1757.230469 549 1751 538 1750 C 534.289063 1749.675781 527.480469 1749.777344 525 1746.484375 C 521.6875 1742.046875 522.613281 1732.355469 521.871094 1727 C 519.425781 1709.40625 518.316406 1691.613281 515.871094 1674 C 514 1661.71875 513.1875 1649.308594 511.714844 1637 C 511.324219 1633.726563 509 1626.503906 511 1623.601563 C 513.863281 1619.585938 531.203125 1622 536 1621.285156 M 1371 1699 C 1384 1713.277344 1392.445313 1733.660156 1387.472656 1753 C 1385.792969 1759.519531 1383.304688 1767.769531 1377 1771 C 1383.414063 1754.375 1383.503906 1738.167969 1378.976563 1721 C 1377.234375 1714.40625 1369.902344 1705.585938 1371 1699 "/>
</g>
</svg>
