<svg xmlns="http://www.w3.org/2000/svg" xmlns:xlink="http://www.w3.org/1999/xlink" viewBox="0 0 100 100" version="1.1"><g transform="translate(10.086024391220498, 1) scale(0.052311894637981) translate(-200, 2.820313)"><path style=" stroke:none;fill-rule:nonzero;fill:rgb(0%,0%,0%);fill-opacity:1;" d="M 1366 496 L 1364 496 C 1360.957031 457.457031 1349.847656 419.59375 1346.171875 381 C 1342.382813 341.261719 1345.996094 300.519531 1341 261 L 1340 261 C 1339 281 1338 301.171875 1336.171875 321 C 1335.75 325.410156 1338.191406 337 1334.398438 340 C 1328.9375 344.296875 1310.296875 339.433594 1303 340.425781 C 1293.511719 341.71875 1284 343.40625 1275 346.695313 C 1271 348.148438 1265.324219 352.761719 1261 352 C 1251.679688 350 1241.242188 336.335938 1234 330.460938 C 1216.425781 316.199219 1197 303.632813 1177 293.257813 C 1152.328125 280.523438 1125.460938 273 1098 269.289063 C 1074.855469 266.246094 1052.320313 266.402344 1030 258.65625 C 997.980469 247.539063 964.992188 233.085938 936 215.550781 C 905.675781 197.210938 878 174.328125 848 155.574219 C 813.480469 134.074219 777.316406 110.355469 738 98.589844 C 722.898438 94.070313 704 88.664063 690 98.789063 C 667.375 115.109375 664.890625 156 661.574219 181 C 654.242188 236.527344 660.890625 296.574219 666.171875 352 C 668.472656 376.175781 673.515625 402.757813 670.832031 427 C 667.8125 454.296875 643.894531 480.351563 631.253906 504 C 627 511.761719 627.378906 527.417969 614 527 C 615.507813 530.183594 621 533.78125 621.457031 537.070313 C 621.796875 540.710938 604 542.128906 601 543 L 601 544 C 603.652344 545 619.449219 550.488281 616 555 C 613.21875 558.785156 599.503906 557.664063 595 559 C 597.523438 560.585938 600.238281 561.222656 603 562.316406 C 604.371094 563 605.730469 563.480469 606.996094 564.242188 C 620.753906 572.535156 592.96875 572.421875 590 577 C 597.605469 577.621094 604.652344 581.078125 612 583 C 603.972656 587.210938 594 590 585 590 C 588.605469 594.800781 600.300781 597.628906 606 600 C 597.734375 606 584.65625 605.066406 575 608 L 575 609 C 580 609.652344 603.597656 614.515625 597.507813 622.816406 C 594.488281 627 581.902344 629.613281 580.921875 634.078125 C 580.175781 637.484375 589.945313 635.820313 589.945313 639.722656 C 589.945313 642.375 585.742188 645 584 646.425781 C 578.644531 651.0625 570.644531 656 567 662 C 569.992188 661.199219 580.644531 656.050781 582.761719 659.617188 C 585 663.390625 578.347656 680.046875 577.714844 685 C 576.242188 696.53125 574 708.351563 574 720 C 573.820313 735.3125 575.960938 752 568.511719 766 C 551.933594 797.289063 524.324219 825 502.882813 853 C 473.289063 891.808594 447.378906 934.097656 428 979 C 414.757813 1010.273438 401 1056.246094 422.222656 1087 C 433.191406 1103 452.453125 1111.015625 470 1117.414063 C 506.835938 1131 545 1137 584 1140.085938 C 615.808594 1142.640625 648.238281 1141.085938 680 1139 C 704.867188 1137.207031 730 1134 755 1137.429688 C 793.886719 1143.011719 827.375 1164.824219 864 1177.496094 C 927 1199.316406 997.804688 1203.605469 1062 1184 C 1082.617188 1177.550781 1102.230469 1169.050781 1121 1158.425781 C 1126.921875 1155.070313 1136.28125 1151.242188 1140.355469 1145.621094 C 1143.410156 1141.410156 1137.832031 1132.257813 1136.1875 1128 C 1129.875 1111.648438 1125.84375 1095.085938 1122 1078 C 1109.574219 1020.476563 1116.425781 961 1121 903 C 1115.433594 906.214844 1112.738281 915.328125 1110 921 C 1102.773438 936.160156 1095.492188 951.40625 1089.199219 967 C 1071.679688 1010.417969 1050.589844 1052.148438 1039.746094 1098 C 1035.761719 1115 1035 1132 1033 1149 L 1032 1149 C 1031.996094 1105.640625 1039 1066.003906 1054 1025 C 1068.289063 986.179688 1085.410156 948.765625 1097 909 C 1099.707031 900.3125 1104.46875 892 1106 883 C 1097.5625 887.753906 1091.945313 902.699219 1087.285156 911 C 1072.214844 938 1057.796875 966.179688 1050 996 L 1049 996 C 1049 982.238281 1056.8125 965.144531 1054 952 C 1046.492188 961.054688 1043.1875 973.207031 1039 984 L 1038 984 C 1038.421875 978.671875 1039 973.257813 1040 968 L 1039 968 C 1033.824219 979 1029.75 996.769531 1021 1005 L 1022 993 C 1017.402344 996.136719 1016.246094 1003.066406 1014 1008 C 1009.179688 1019.53125 1002.8125 1030.425781 998 1042 L 997 1042 C 999 1030.785156 1001.542969 1019.28125 1003 1008 C 988.753906 1020.675781 974.488281 1047.117188 968 1065 L 967 1065 C 967.277344 1051.625 972.304688 1039.101563 974 1026 L 973 1026 C 969 1035 962 1042.722656 956.914063 1051 C 952.960938 1057.378906 949.984375 1065.480469 945 1071 C 946 1059.261719 952.292969 1048.566406 954 1037 C 938 1049.480469 934.949219 1073.769531 921 1087 C 923.175781 1075.285156 925.859375 1064.511719 929 1053 L 928 1053 C 915.859375 1068.007813 905.574219 1084.210938 904 1104 L 903 1104 C 902 1101 901.265625 1098 900 1095 C 891.945313 1105.644531 886 1123.738281 885 1137 L 884 1137 C 879.855469 1119.585938 888 1105.488281 891 1089 L 890 1089 C 878.472656 1106.421875 871 1126 871 1147 L 870 1147 C 867.78125 1137.6875 869 1128.441406 869 1119 L 868 1119 C 866.65625 1123.445313 863.390625 1137.054688 858.664063 1138.792969 C 853.273438 1140.777344 851 1127.128906 851 1124 L 850 1124 C 849.246094 1126.644531 848.542969 1132.5 844.957031 1132.699219 C 839.414063 1133.003906 833.179688 1124.363281 829.324219 1121.359375 C 826.839844 1119.421875 824.765625 1121.214844 822.246094 1120 C 814.179688 1116 805.6875 1109.355469 802 1101 L 801 1101 C 795.332031 1105.253906 792.371094 1095.066406 790 1091 C 784.382813 1092.585938 782.871094 1088 779.6875 1084 C 773.652344 1076.535156 768 1069.09375 762.945313 1061 C 761.578125 1059 756 1053.378906 757.34375 1050.644531 C 758.425781 1048.222656 763.375 1050.488281 765 1051 C 761.730469 1040.363281 748.914063 1043.242188 742.464844 1037.0625 C 739 1033.816406 746 1030.121094 745 1026.617188 C 743.933594 1022.195313 725.6875 1030 723 1031 C 727.492188 1021.5625 736.683594 1016.382813 742 1008 C 726.300781 1008 714.933594 1010.667969 701 1018 C 706.238281 1004.183594 718.394531 994.441406 731 988 L 731 987 C 722 981.542969 712.988281 981.140625 703 983 C 706.765625 977 713.722656 973.78125 717 968 C 704.523438 968.535156 695.171875 974.324219 684 979 C 687.5 972 692.8125 964.417969 699 959.519531 C 700.59375 958.261719 707.792969 955.328125 707.792969 953.132813 C 707.792969 950 697.914063 951 696 951 C 683.171875 951 671.582031 954.375 659 956 C 668.371094 946.625 686.945313 931.652344 691 919 C 673.304688 921.234375 656.472656 927.417969 639 930 L 639 929 C 647.179688 925.476563 664.578125 917.671875 669 910 C 660.78125 910.644531 654 908.703125 646 908 C 649.769531 904.675781 660.679688 905.171875 662.652344 901 C 663.949219 898.035156 655.457031 897.464844 654 897.285156 C 645 896.191406 633.601563 896.457031 625 899 C 636.476563 885 657.464844 874.292969 673 865.140625 C 705.285156 846.117188 738.652344 829 771 810 L 771 809 C 731.5625 812.222656 696.246094 843.105469 660 856.519531 C 652.554688 859.273438 640.328125 864.445313 632.238281 862 C 626.234375 860.136719 631.234375 846 634 843 L 634 842 C 609.972656 844.09375 583.554688 861.625 564 874.667969 C 518.792969 904.816406 478.683594 946.132813 454.246094 995 C 446.464844 1010.570313 442.941406 1026.828125 437 1043 C 434.503906 1036.300781 436 1028 436.832031 1021 C 438.402344 1005.289063 441.558594 989.734375 447.398438 975 C 470 918 508.445313 869.246094 549.167969 824 C 559.730469 812.265625 570.34375 800.558594 581 789 C 586.285156 783.410156 593.234375 777.707031 595 770 C 597.980469 758.636719 594.726563 744.761719 595 733 C 595.554688 711 597.898438 688.640625 602.199219 667 C 603.515625 660.390625 604 652.273438 606.878906 646.105469 C 607.570313 644.53125 611.539063 641.425781 610.65625 639.664063 C 609.734375 637.824219 605.664063 638.140625 604 638 L 604 637 C 609.335938 635.246094 618.882813 631.71875 622 627 C 617.617188 626.355469 613.292969 625.113281 609 624 L 609 623 C 614 621.152344 618.648438 621 624 621 L 624 619 C 621.976563 618.738281 619.996094 618.402344 617.996094 618 C 598.386719 614.046875 627.792969 607.113281 627.792969 604 C 627.792969 600.078125 618.488281 601.074219 618.484375 596.515625 C 618.480469 593.730469 623.265625 594.050781 625 594 C 623.734375 591.765625 620.242188 590 619.601563 587.625 C 617.410156 579.578125 635.910156 580 640 580 C 636.726563 575.375 628.910156 575.191406 626 570.503906 C 624.449219 567.824219 626.613281 564.238281 628 562.015625 C 633.804688 553.539063 643 555 652 555 C 648.867188 550.117188 640 548.632813 638.417969 543 C 636.527344 536.671875 645.980469 523.542969 648.753906 518 C 657 501.320313 666 485.675781 676.21875 470 C 680.835938 462.828125 688.335938 455.695313 689.695313 447 C 691.554688 435.113281 687.972656 420.820313 686.269531 409 C 683.300781 388.378906 680.855469 367.660156 678.285156 347 C 671.554688 293 669.710938 237.371094 674 183 L 675 183 C 676.230469 242.570313 692.996094 304 714.796875 359 C 722.941406 379.554688 737.648438 408.65625 762 413 C 759.359375 404.027344 752.859375 396.492188 749 388 C 760.210938 392.660156 771.867188 398.640625 784 400.519531 C 787.4375 401.054688 794.859375 400.640625 796.292969 396.605469 C 798 391.519531 791.363281 382.523438 789.425781 378 C 783.558594 364.28125 777.222656 348 776 333 L 777 333 C 779.371094 346.300781 790.214844 360.703125 802 367 C 803.824219 368 814 374 815.667969 371.1875 C 816.824219 369.144531 812.996094 364.75 812 363 C 808.691406 356.011719 806.976563 348.679688 806 341 C 816.261719 350 825 360.121094 837 367 C 840.585938 355 836.972656 340.558594 838.171875 328 C 839.890625 310 845.378906 292.804688 848 275 L 849 275 C 849 323.425781 846.722656 376.753906 867.703125 422 C 874.632813 437 885.332031 457.824219 901 465 C 896.605469 454.621094 888.320313 445.175781 883 435 C 869.1875 408.414063 858 378.347656 858 348 L 859 348 C 860.242188 352.683594 860.84375 359.152344 865 362 C 865 339.503906 875.988281 318.125 877 296 L 879 296 C 879 310.136719 881.382813 323.46875 885.410156 337 C 885.863281 338.527344 888 350 890.488281 348.652344 C 893.21875 347.148438 893.925781 338 894.707031 335 C 898.53125 321.011719 900.316406 306.25 903 292 L 904 292 C 905.453125 303.515625 907.558594 314.730469 910.371094 326 C 911.511719 330.554688 911.933594 336.214844 916 339 C 918 313 934 290 940 265 L 941 265 C 941 286.425781 940.441406 307.679688 940 329 C 952.78125 318.125 964.386719 293.023438 969 277 L 970 277 L 966 310 C 973.804688 305.730469 978.882813 296.6875 987 292 C 985.339844 296.148438 983 300.023438 981 304 C 989.652344 302 997.257813 295.742188 1006 293.300781 C 1020 289.378906 1037.433594 289.480469 1052 288.503906 C 1059.800781 288 1067 285.023438 1075 285 C 1072.414063 287.226563 1069.765625 289.078125 1068 292 C 1078.183594 289.644531 1087.441406 287 1098 287 L 1098 288 C 1095 289.28125 1093.535156 290.277344 1092 293 C 1106.601563 289.652344 1121.242188 289.488281 1136 293 L 1136 294 C 1130.886719 296.128906 1122 298.417969 1119 303 C 1129.925781 300.308594 1142.714844 296.738281 1154 298 L 1154 299 C 1150 300.480469 1146.195313 301.394531 1144 305 C 1151.746094 305 1160.914063 302.589844 1168 306 C 1163 307.363281 1156.949219 307.554688 1154 312 C 1161.523438 311.675781 1168.476563 311.804688 1176 312 C 1177.425781 312.035156 1182.945313 311.691406 1182.945313 314.117188 C 1182.945313 315.605469 1174.410156 318.523438 1173 321 C 1182.484375 319.800781 1189.78125 320.589844 1199 323 C 1194.878906 327 1191 330.433594 1186 333 L 1186 334 C 1193.714844 334 1202.542969 332.285156 1210 334 C 1201.386719 338.722656 1190.316406 344.765625 1186 354 C 1198.546875 348.722656 1206.8125 344 1221 344 L 1221 345 C 1214.355469 348 1207 352.300781 1204 359 L 1214 359 C 1205.851563 366.710938 1194.429688 369.566406 1190 381 C 1192.769531 380.625 1205.21875 375.179688 1206.792969 377.59375 C 1207.800781 379.136719 1203.90625 381.550781 1203 382.324219 C 1199 386.109375 1193.679688 391.71875 1192 397 C 1198.667969 396.15625 1205.265625 395.019531 1212 395 C 1206.28125 400.265625 1197.898438 405.078125 1196 413 C 1200.417969 411.738281 1204.417969 409.6875 1209 409 C 1204.949219 416 1199.511719 423.414063 1197 431 C 1199.5 429.679688 1201 428.085938 1203 426 C 1203 438.53125 1196.410156 452.199219 1195.171875 465 C 1192.320313 494.414063 1195 523.699219 1203.722656 552 C 1210.226563 573.375 1221.386719 594.175781 1234.746094 612 C 1238.769531 617.371094 1254 629.101563 1254.492188 635.464844 C 1255 644.039063 1245.820313 654.292969 1243 662 C 1247 660.207031 1262 646.492188 1266.261719 650 C 1269.894531 653 1256.269531 668.5 1254 671 C 1240.371094 687.078125 1219.226563 711.597656 1196 712.59375 C 1189 713 1182.761719 706 1178.808594 701 C 1167.722656 687.324219 1159.230469 671.101563 1152.28125 655 C 1149.339844 648.183594 1146.285156 636.59375 1138 634.613281 C 1125.816406 631.699219 1115.527344 648.566406 1110.449219 657 C 1097.546875 678.4375 1089 704.316406 1085.578125 729 C 1084.289063 738.015625 1083.878906 753 1091.339844 759.566406 C 1098.804688 766.257813 1109.191406 755 1115 750.746094 C 1129.371094 740.433594 1148 736 1165 731.769531 C 1173.949219 729.601563 1182.648438 729 1186.867188 739 C 1190.703125 748.203125 1190.609375 759.226563 1191 769 C 1191.808594 786.511719 1192.417969 803.550781 1189.726563 821 C 1188.273438 830.410156 1183.914063 859.144531 1173 842 L 1172 842 C 1172.789063 857.191406 1188 874.65625 1197.261719 886 C 1225.585938 920.824219 1271.40625 959 1319 959 L 1319 961 C 1250.386719 961 1193.660156 913 1160 857 L 1159 857 C 1161.378906 875.40625 1170 893.761719 1178.703125 910 C 1205 959.722656 1256.578125 1013.371094 1315 1022 L 1315 1023 C 1254 1020.386719 1199.457031 973.542969 1170.71875 923 C 1163.253906 910 1155.433594 896 1152 881 L 1151 881 C 1151 897.324219 1155.351563 914 1157.726563 930 C 1166.886719 992.144531 1188.707031 1053.789063 1222.226563 1107 C 1232.933594 1124 1247.554688 1137.734375 1259 1154 C 1197 1103.8125 1164.867188 1032.640625 1148.996094 956 C 1144.882813 936.136719 1139.871094 915.3125 1139 895 L 1137 895 C 1136.988281 914 1132.960938 933.191406 1131.171875 952 C 1127.175781 994 1125.492188 1040.261719 1132.246094 1082 C 1134.746094 1097.453125 1136.453125 1112.824219 1140.574219 1128 C 1141.523438 1131.496094 1141.84375 1140 1145.511719 1141.828125 C 1148.671875 1143.414063 1153.585938 1138.640625 1156 1137 C 1152.976563 1142.234375 1147.988281 1146.261719 1146 1152 C 1151.9375 1150 1157.585938 1147.160156 1163 1144 C 1157.976563 1156 1145.605469 1163 1140 1174 C 1153.847656 1170.011719 1166.859375 1165.230469 1181 1162 C 1169.902344 1173.097656 1159.695313 1184.175781 1152 1198 C 1162.527344 1194.515625 1174.699219 1188.136719 1184 1182 C 1177.988281 1191.085938 1167.554688 1198.523438 1164 1209 C 1172.996094 1206 1181.648438 1203 1191 1201 C 1184.761719 1213.53125 1174.984375 1224.617188 1167 1236 L 1168 1237 C 1182.402344 1230 1196.378906 1222.40625 1210 1214 C 1202.855469 1229.71875 1188.242188 1241.117188 1181 1256 C 1197.695313 1253.03125 1215.773438 1246.28125 1232 1241 C 1219.527344 1256.472656 1204.652344 1271.171875 1193 1287 C 1208.980469 1285.363281 1225.246094 1275.628906 1239 1268 C 1230 1286.757813 1213.5625 1298.421875 1201 1314 C 1217.5625 1312 1238.457031 1306.277344 1253 1298 C 1244.5 1314.652344 1227 1324.738281 1218 1340 C 1229 1338.113281 1239.40625 1332.582031 1250 1329 C 1239.320313 1339.59375 1225.972656 1350.183594 1212 1356 L 1212 1357 C 1227.484375 1356.335938 1244.53125 1351.394531 1259 1346 C 1251.28125 1356.292969 1234.785156 1360.054688 1228 1370 C 1246.402344 1365.617188 1270 1362 1289 1364 C 1272 1374 1256.667969 1385.753906 1240 1396 L 1240 1397 C 1266.210938 1395 1295.742188 1385.75 1322 1392 C 1303.574219 1401.671875 1285 1408.59375 1268 1421.011719 C 1262.65625 1425 1254.238281 1429.25 1251 1435 C 1270.179688 1430.273438 1289.808594 1431.722656 1309 1428 L 1309 1429 C 1289 1438.28125 1270.960938 1453 1252 1464 L 1252 1465 C 1275.414063 1465 1299.484375 1461.011719 1323 1460 C 1315.890625 1465.480469 1306.871094 1468.078125 1299 1472.308594 C 1283.371094 1480.707031 1268.304688 1490.058594 1253 1499 L 1253 1500 C 1273.976563 1500 1295 1497.058594 1316 1497 C 1302.492188 1513.355469 1278.992188 1519.75 1263 1533 C 1277.769531 1536.730469 1297.902344 1528.199219 1313 1527 C 1301.578125 1543.789063 1287.316406 1558.050781 1275 1574 C 1287.816406 1574.097656 1305.550781 1563.148438 1318 1559 C 1308.960938 1576 1295.816406 1592 1289 1610 C 1298.8125 1607.171875 1308.53125 1602 1318 1598 C 1307.46875 1613.128906 1287.976563 1623.484375 1279 1639 C 1292.433594 1636 1305.683594 1631.558594 1319 1628 C 1309.460938 1645.132813 1294 1656.546875 1283 1672 C 1294.789063 1668.230469 1306.539063 1664.699219 1318 1660 C 1309.757813 1676.148438 1291.679688 1687 1284 1703 C 1291.644531 1701.699219 1297.855469 1697.601563 1305 1695 C 1298.394531 1707 1289.40625 1712 1276 1712 C 1278.960938 1716.71875 1286.484375 1718.140625 1291 1721.515625 C 1301.191406 1729.128906 1309 1740.167969 1310.695313 1753 C 1312.367188 1765.78125 1304.386719 1783 1295.90625 1792 C 1293.355469 1794.738281 1286.929688 1801.820313 1282.472656 1799.757813 C 1273.804688 1795.746094 1274.800781 1776.558594 1273 1769 C 1267.242188 1774 1265.761719 1781.800781 1264.464844 1789 C 1263.890625 1792.167969 1264.367188 1797.097656 1261.484375 1799.292969 C 1257.328125 1802.460938 1250.632813 1795.691406 1248 1793 C 1238.285156 1782.464844 1236.800781 1768.800781 1232 1756 L 1231 1756 C 1231 1774 1231.949219 1795.328125 1224.417969 1812 C 1221.265625 1819 1213.472656 1828.488281 1205 1823.257813 C 1181.285156 1808.617188 1187.636719 1771.445313 1181 1749 L 1180 1749 C 1179 1759.390625 1177 1770.800781 1174.882813 1781 C 1174.351563 1783.484375 1174.476563 1789.726563 1171.570313 1790.792969 C 1168.84375 1791.796875 1166.324219 1787.808594 1165 1786 C 1160.398438 1779.019531 1158.523438 1771 1156 1763 L 1155 1763 C 1154.34375 1778.289063 1157.484375 1796.144531 1154 1811 C 1152.695313 1817.238281 1149.699219 1824.199219 1142.996094 1826.28125 C 1134.28125 1829 1126.585938 1816.464844 1123.554688 1810 C 1113.261719 1788.03125 1113.992188 1767.421875 1115 1744 L 1114 1744 C 1107.761719 1766 1103.609375 1787.382813 1109 1810 C 1110 1814 1117.191406 1828.421875 1110.925781 1829.511719 C 1101.367188 1831.179688 1090.332031 1824.226563 1084 1818 C 1065.828125 1800.0625 1063.5625 1771.648438 1073.664063 1749 C 1080.957031 1732.648438 1094.789063 1718.609375 1111 1711.085938 C 1130.886719 1702 1151.382813 1702.347656 1158.5625 1678 C 1165 1655.644531 1162.449219 1629.800781 1160.167969 1607 C 1156.816406 1573.460938 1150.589844 1540.304688 1145.425781 1507 C 1130.429688 1410.328125 1119 1315 1119 1217 C 1113.738281 1221 1111.792969 1230.113281 1109.398438 1236 C 1103 1251.535156 1097.753906 1267.160156 1092.304688 1283 C 1066.28125 1358.648438 1062.882813 1440.136719 1080.5 1518 C 1086.855469 1546.089844 1096 1573.410156 1106.988281 1600 C 1109.992188 1607.28125 1120 1622 1111.964844 1628 C 1079 1652 1032 1663.664063 993 1672.5 C 874.957031 1699.210938 729.25 1699.011719 634 1612.828125 C 610.679688 1591.730469 592.40625 1565.527344 579.308594 1537 C 562.28125 1500 553.496094 1449.425781 506 1441.085938 C 499 1440 491.9375 1439.496094 485 1440.171875 C 475.625 1441.078125 466.371094 1443.433594 458 1447.785156 C 394.46875 1480.800781 402 1570.128906 427.78125 1625 C 480.289063 1737.019531 590.664063 1810.367188 710 1835 L 710 1836 C 589.378906 1836 468.402344 1838.765625 348 1844.039063 C 298.871094 1846.191406 249 1854 200 1854 L 200 1856 C 238.628906 1856 277.421875 1860.269531 316 1862 C 404.898438 1866 494 1865.804688 583 1868 C 677.53125 1870.300781 772.585938 1868.457031 867 1868 C 1026.492188 1867.230469 1185.804688 1868 1345 1868 L 1698 1868 C 1702.472656 1868 1719 1870.558594 1721.972656 1867.308594 C 1726 1862.746094 1723 1845.003906 1723 1839 L 1723 31 C 1723 23.777344 1726 8 1722.398438 1.601563 C 1720.523438 -1.601563 1711.175781 0 1708 0 L 1424 0 C 1420.746094 0 1409.382813 -1.773438 1407.644531 1.601563 C 1406.25 4.308594 1407.984375 10 1408 13 C 1408 23.0625 1407.878906 33 1408.828125 43 C 1411.65625 72.714844 1410.953125 104.160156 1411 134 C 1411.199219 258.398438 1418 382.601563 1418 507 C 1418 574.636719 1420.328125 642.414063 1421.984375 710 C 1423.804688 784.308594 1421.789063 858.753906 1425 933 C 1427.546875 990.277344 1426.609375 1047.65625 1428 1105 C 1432.226563 1277 1430 1449 1430 1621 C 1426.910156 1611 1428.820313 1600.390625 1427.828125 1590 C 1425 1561.441406 1425.214844 1532.652344 1423.960938 1504 C 1420 1417.027344 1417 1330.085938 1414.984375 1243 C 1408 962.351563 1408 681 1408 400 C 1408 299.269531 1406 198.699219 1406 98 C 1406 73.6875 1404 49.316406 1404 25 C 1404 20.59375 1406.484375 3 1402.398438 0.601563 C 1396.53125 -2.820313 1381.769531 0 1375 0 C 1372.675781 0 1368 -0.820313 1366.601563 1.601563 C 1362.8125 8.09375 1365 24.484375 1365 32 L 1365 107 C 1365 236.65625 1366 366.289063 1366 496 M 1140 305 L 1141 306 L 1140 305 M 1100 363 C 1081.824219 389.421875 1058.863281 386.105469 1031 392.5 C 1002.898438 399 975.769531 415.664063 962.371094 442 C 924.859375 515.746094 995.820313 610.6875 1077 602.828125 C 1097 601 1113 590 1127 576 C 1159.578125 543.3125 1174.839844 491.664063 1152.371094 449 C 1143.964844 433.039063 1131.636719 419.753906 1117 409.300781 C 1112 405.832031 1096.394531 400.652344 1094.191406 395.351563 C 1093 392.765625 1097 388.3125 1098 386 C 1100.609375 380.214844 1103.628906 368.546875 1100 363 M 1292 524 L 1292 525 C 1306.375 529.558594 1328.917969 528.199219 1338.945313 541.175781 C 1346 550.445313 1341.660156 561 1333 567.441406 C 1320.796875 576.554688 1303.433594 578.4375 1289 575 C 1302.183594 592.070313 1328.804688 585.128906 1343.957031 598.328125 C 1360.3125 612.578125 1344.585938 632.714844 1328 636.761719 C 1307.449219 641.773438 1286.804688 631.675781 1272 618 C 1221.507813 571 1199.824219 482.609375 1232.78125 420 C 1245 396.738281 1267.386719 365 1298 367.183594 C 1323.871094 369.136719 1335.304688 398.773438 1326.535156 421 C 1322.457031 431.335938 1313.722656 438.679688 1304 443.625 C 1296.308594 447.539063 1288 451.117188 1280 454.1875 C 1278.523438 454.746094 1272 456 1272 458 C 1272 461.804688 1291.984375 463 1295 463.421875 C 1306 465.066406 1318.960938 466 1327.90625 473.519531 C 1344.703125 488 1330.683594 508.808594 1315 516 C 1307.480469 519.40625 1299.980469 522 1292 524 M 804 402 C 804.972656 423.3125 820.214844 443.425781 829 462 C 811.199219 458.277344 795.550781 449 779 442 C 782.507813 449.816406 790 456.042969 796 462 C 814.628906 480.535156 838.320313 495.316406 863 504.304688 C 870.976563 507.210938 893.511719 515.722656 898.777344 505 C 902.738281 496.75 882 486.09375 877 482 C 857.636719 466.511719 840.300781 450.097656 824.433594 431 C 817.875 423.101563 812 407.503906 804 402 M 832 403 C 836.488281 429.410156 859.390625 469.179688 886 478 C 883 471.675781 876.988281 467.414063 872.664063 462 C 863.707031 450.785156 855.328125 439 847.355469 427 C 842.804688 420.1875 838.546875 407.632813 832 403 M 1146 523 L 1145 523 C 1143.585938 482.21875 1131.523438 444 1092 424.269531 C 1080.976563 418.769531 1069.878906 417.203125 1058 415 C 1070 407.753906 1088 412.773438 1100 417.605469 C 1139.554688 433.640625 1157 483.742188 1146 523 M 1004 446.304688 C 1033 442.347656 1037.621094 489.628906 1009 493.789063 C 978.707031 498.195313 974 450.363281 1004 446.304688 M 618 599 C 616.777344 600.195313 616.578125 600.316406 615 601 C 616.222656 599.804688 616.421875 599.683594 618 599 M 659 751 L 659 752 C 693.507813 752 726.449219 751.273438 761 754 L 761 755 C 732.84375 760.304688 707.949219 772 685 789.128906 C 677.988281 794.375 667.238281 800.242188 663 808 C 697.832031 798.113281 734.417969 792.292969 770 785.609375 C 778.65625 784 787.613281 782.382813 796 779.640625 C 798 779 803.519531 777.734375 804 775.039063 C 804.660156 772.230469 792.183594 769.804688 790 769 C 798.488281 766.421875 810.914063 767.695313 817.347656 760.472656 C 823.335938 753.746094 815.792969 747 810 743.792969 C 796.320313 736.3125 780.28125 732.820313 765 730.4375 C 730.382813 725.046875 689.222656 733.363281 659 751 M 858 1017 C 864.992188 1010.351563 866.234375 995.175781 868 986 C 868.605469 983 868.347656 974.828125 871.5625 973.101563 C 874.167969 971.703125 879.472656 975.132813 882 976 C 890.554688 979 899.917969 981.5625 909 982 C 944 983.496094 977 971 999.996094 944 C 1014.214844 927.203125 1023 905.554688 1026.410156 884 C 1029.683594 863.097656 1029.53125 841.03125 1028 820 C 1027.242188 807.617188 1027.507813 795.382813 1019.472656 785 C 1004 765.117188 975.476563 759.101563 952 756.828125 C 879 749.773438 814.3125 798.164063 811 873 C 810 894.828125 815.414063 918.597656 825.359375 938 C 832.691406 952.296875 842.613281 965.285156 849 980 C 854.550781 992.210938 854.363281 1004.699219 858 1017 M 873 810.339844 C 902.695313 807.371094 904.679688 854.289063 876 857.816406 C 844 861.730469 842 813.425781 873 810.339844 M 998 815 C 1025.679688 859.492188 1020.339844 917.226563 975 949.214844 C 949.597656 967.136719 913.382813 972.011719 885 958.507813 C 875 953.792969 864.753906 947.375 860 937 C 878.527344 944.023438 892.390625 954 913 955.828125 C 956.675781 960 1000.480469 924.34375 1007.914063 882 C 1010.558594 867 1009.851563 851.761719 1005.714844 837 C 1003.921875 830.597656 996.730469 821.40625 998 815 M 682 897 C 705.535156 887.214844 727.320313 871.445313 748 856.710938 C 756.699219 850.511719 768.464844 844.464844 775 836 C 750.398438 843.085938 724.273438 862.6875 704 878 C 697 883.058594 685.730469 889.1875 682 897 M 1350 1140 C 1350 1180.191406 1354.199219 1220.824219 1355.960938 1261 C 1358.6875 1323.300781 1358.3125 1385.691406 1361 1448 C 1364.304688 1522.519531 1367 1597.34375 1367 1672 C 1367 1697 1368 1722 1368 1747 C 1368 1763.027344 1366.339844 1780.105469 1368.425781 1796 C 1369.757813 1806.167969 1369 1816.753906 1369 1827 C 1369 1830 1370 1835.371094 1366.683594 1836.761719 C 1362.703125 1838.386719 1346.855469 1840.261719 1344.601563 1835.683594 C 1342.839844 1832.101563 1344 1826 1344 1822 L 1344 1680 C 1344 1553.242188 1345.390625 1426.511719 1346 1300 C 1346.175781 1263.628906 1347.941406 1227.277344 1348 1191 C 1348 1176.4375 1343.621094 1153.269531 1350 1140 "/></g></svg>