<svg xmlns="http://www.w3.org/2000/svg" xmlns:xlink="http://www.w3.org/1999/xlink" viewBox="0 0 100 100" version="1.1"><g transform="translate(1, 2.123881268033003) scale(0.05216928400319404) translate(-63, -96.585938)"><path style=" stroke:none;fill-rule:nonzero;fill:rgb(0%,0%,0%);fill-opacity:1;" d="M 729 1363 L 729 1364 C 646.78125 1383.628906 561.480469 1363.53125 480 1352.210938 C 438.238281 1346.40625 396 1344.304688 354 1342 C 322.734375 1340.214844 288.394531 1336.300781 257 1340.425781 C 251.308594 1341.171875 233.476563 1338.054688 229.789063 1342.601563 C 226.992188 1346.050781 231 1356.09375 231.832031 1360 C 234.960938 1376.6875 238.671875 1393.660156 243.304688 1410 C 244.566406 1414.457031 245 1426.183594 250 1427.683594 C 263 1431.46875 278.910156 1426.144531 292 1426.003906 C 323 1425.671875 354 1426.320313 385 1428.042969 C 438.710938 1431.035156 492 1441.109375 544 1455.414063 C 560 1460 575 1467.203125 591 1472 L 591 1473 C 582.609375 1476.0625 568.851563 1481.707031 560 1481.242188 C 553 1481 545.558594 1477.039063 539 1475.050781 C 524.546875 1470.664063 509.78125 1466.316406 495 1463.21875 C 463 1456.535156 431.394531 1453 399 1449.828125 C 374.929688 1447.539063 350 1444.53125 326 1446.828125 C 310.269531 1448.328125 293.804688 1447 278 1447 C 274 1447 263.863281 1445.289063 260.707031 1448.078125 C 258 1450.441406 262.558594 1459.210938 263.414063 1462 C 266.480469 1472.007813 269.890625 1482 272.730469 1492 C 273.628906 1495.199219 276.21875 1500.425781 274.683594 1503.699219 C 273 1507.148438 267.183594 1507.765625 264 1509 C 255 1512.066406 245.972656 1516.5625 238 1521.699219 C 215.972656 1536 197.589844 1556.058594 186.667969 1580 C 176.1875 1603 172 1630.105469 176 1655 C 177.523438 1663.8125 179.265625 1672.359375 181.574219 1681 C 182.238281 1683.476563 184.351563 1688 182.226563 1690.128906 C 177.273438 1695.410156 160.449219 1691 154 1691 L 88 1691 C 83.277344 1691 68.269531 1689 65 1692.78125 C 63.441406 1694.722656 64.496094 1698.714844 64.621094 1701 C 65 1708.59375 63 1718.605469 65.316406 1726 C 66.433594 1729.613281 70.867188 1729 74 1729 L 182 1729 C 188 1729 206.21875 1726 210.773438 1730 C 214.597656 1733.277344 215.722656 1742.308594 217.34375 1747 C 221.746094 1759.730469 226.8125 1772.167969 233.3125 1784 C 251.613281 1817.324219 281.488281 1841.71875 298.5625 1876 C 305 1889.15625 310.179688 1903.082031 314.832031 1917 C 315.664063 1919.484375 317.355469 1930.453125 320 1931.078125 C 322.480469 1931.664063 322 1925.285156 322.375 1924 C 323.949219 1915.660156 325.476563 1907.277344 327.40625 1899 C 330.742188 1884.671875 330.359375 1862.488281 338.84375 1850.171875 C 343.371094 1843.597656 352 1840 357.910156 1834.675781 C 366.449219 1827 372.632813 1815.492188 377 1805 C 410.167969 1843 431.421875 1883.695313 445 1932 C 449.195313 1928.335938 450.695313 1922.78125 453.425781 1918 C 459.226563 1908 465.207031 1897.734375 471.667969 1888 C 485.59375 1867.015625 503.816406 1850.070313 522 1833 C 528.53125 1826.761719 537 1811.824219 546 1809.582031 C 550.949219 1808.339844 560.601563 1814.320313 565 1816.523438 C 592.457031 1830.25 595.945313 1850.679688 595 1879.039063 C 594.800781 1886 594.230469 1893.515625 592.347656 1900.089844 C 591.925781 1901.558594 589.855469 1905.585938 591.730469 1906.742188 C 594.527344 1908.46875 600 1902.519531 602 1901 C 611.519531 1893.34375 619.75 1884.210938 627.730469 1875 C 660.589844 1837.039063 687 1796.472656 706 1750 C 730.785156 1779.363281 711.539063 1815.667969 705 1847 C 713 1843.515625 720.800781 1835.167969 727 1829 C 743.859375 1812.222656 758.863281 1792.535156 769.214844 1771 C 773.980469 1761.089844 778.34375 1751.113281 782.648438 1741 C 784 1737.523438 785.511719 1731.292969 789.265625 1729.601563 C 797.390625 1726 813 1729 822 1729 L 1183 1729 C 1191.449219 1729 1203.839844 1726.605469 1211.871094 1729 C 1218.996094 1731 1224 1753.558594 1227.246094 1760 C 1239.71875 1785 1254.1875 1808.1875 1274 1828 C 1279.871094 1834 1288 1845.632813 1297 1846 C 1287.394531 1824.519531 1280.902344 1798.429688 1285.664063 1775 C 1286.941406 1768.734375 1288.996094 1762.726563 1291.867188 1757.003906 C 1292.617188 1755.503906 1294.394531 1751.199219 1296.753906 1752.207031 C 1299.785156 1753.5 1301.449219 1762.121094 1302.601563 1765 C 1307.324219 1776.808594 1313.335938 1788 1319.464844 1799 C 1335.925781 1829 1358.378906 1858.421875 1382 1883 C 1390.480469 1891.816406 1400 1904.175781 1412 1908 C 1410.738281 1883.347656 1397.390625 1853 1416.46875 1831.089844 C 1421.167969 1825.699219 1427.914063 1822.003906 1434 1818.402344 C 1438.566406 1815.699219 1451.554688 1807.1875 1456.828125 1808.527344 C 1465.648438 1810.761719 1475.265625 1827.726563 1482 1833.828125 C 1513.90625 1862.742188 1535.464844 1895.140625 1557 1932 L 1558 1932 C 1572.941406 1885 1591 1842.519531 1626 1806 C 1630.714844 1816.421875 1636.648438 1827 1645 1834.828125 C 1650.910156 1840.390625 1659.742188 1844.515625 1664.441406 1851.039063 C 1668.734375 1857.003906 1668.820313 1866.042969 1670.578125 1873 C 1675.203125 1891.273438 1681.832031 1913.152344 1682 1932 C 1686.476563 1929.179688 1686.882813 1922 1688.492188 1917 C 1692.667969 1904.46875 1697.339844 1891.820313 1703.246094 1880 C 1721.621094 1843.222656 1752.789063 1816.804688 1771.917969 1780.714844 C 1777.96875 1769.292969 1782.832031 1757.226563 1786.996094 1745 C 1788.429688 1740.796875 1789.492188 1732.636719 1793.417969 1730.027344 C 1800.386719 1725.398438 1819.695313 1729 1828 1729 C 1858.667969 1729 1889.332031 1729.050781 1920 1729 C 1924 1729 1933.914063 1729.742188 1937 1727 C 1941.5 1723.066406 1940.292969 1699.578125 1938.683594 1694.148438 C 1936.976563 1688.394531 1920.8125 1691 1916 1691 L 1846 1691 C 1842 1691 1822 1693.445313 1820.621094 1689.644531 C 1819.394531 1686.429688 1821.894531 1681.078125 1822.800781 1678 C 1825 1670 1826.984375 1661.332031 1827.832031 1653 C 1830.296875 1628.75 1827.949219 1604.421875 1817.691406 1582 C 1806 1556.671875 1789.492188 1536.625 1766 1521.695313 C 1757.921875 1516.5625 1748.828125 1512.710938 1740 1509.0625 C 1737 1508 1730.929688 1507.109375 1729 1504.410156 C 1726.914063 1501.292969 1729.804688 1495.128906 1730.835938 1492 C 1734.207031 1481.738281 1737.882813 1471.527344 1740.347656 1461 C 1741 1457.621094 1745.644531 1449.039063 1740.835938 1447.433594 C 1734.628906 1445.359375 1725.515625 1447 1719 1447 L 1672 1447 C 1621.621094 1447 1572.324219 1451.507813 1523 1461.371094 C 1506.269531 1464.71875 1489.398438 1469 1473 1473.699219 C 1464.359375 1476.222656 1452.992188 1482.128906 1444 1482 C 1432.816406 1481.71875 1421.453125 1475 1410 1474 C 1428 1460.449219 1457.484375 1456.765625 1479 1451.117188 C 1540.785156 1435 1601.726563 1430.421875 1665 1426.089844 C 1685.324219 1424.699219 1707.878906 1424.683594 1728 1427.425781 C 1733.394531 1428.15625 1750.792969 1430.816406 1755 1427 C 1758.347656 1424 1758.363281 1415.183594 1759.589844 1411 C 1764.296875 1395 1767 1378.351563 1770.511719 1362 C 1771.242188 1358.46875 1776.347656 1344 1772.578125 1341.742188 C 1769.425781 1340 1763.519531 1341 1760 1341 C 1750.617188 1341 1741.386719 1340 1732 1340 C 1696.394531 1340 1661.324219 1340.390625 1626 1343.214844 C 1598 1345.453125 1569.917969 1347 1542 1350.183594 C 1491.621094 1356.214844 1441.695313 1367.664063 1391 1371 C 1365.308594 1372.558594 1337.632813 1372.390625 1312 1369.828125 C 1298.679688 1368.496094 1285.402344 1365.003906 1272 1365 L 1272 1364 C 1302.433594 1360.003906 1333.394531 1363 1364 1358.570313 C 1458.84375 1345 1550.320313 1318 1647 1318 C 1680.660156 1318 1714.644531 1320 1748 1320 C 1755.597656 1320 1763.433594 1319.453125 1771 1320.171875 C 1773.5625 1320.410156 1777.695313 1322 1779.566406 1319.394531 C 1782.558594 1315.351563 1781.328125 1306 1782 1301 C 1784.566406 1282.203125 1784 1263.003906 1784 1244 C 1784 1193.636719 1776.886719 1142 1765.40625 1093 C 1760.457031 1072 1754.886719 1051 1749.421875 1030 C 1746.945313 1020.511719 1742.566406 1010 1742.261719 1000 C 1741.941406 989.832031 1745.824219 979 1747.691406 969 C 1751.878906 946.707031 1757.550781 925 1763.425781 903 C 1779.871094 841.648438 1800.394531 781.457031 1816.585938 720 C 1851.625 587 1862.679688 450.808594 1853 314 C 1849 258 1839 201.09375 1823.695313 147 C 1820 134.554688 1816.8125 122.09375 1812 110 C 1810.980469 107.003906 1809 98.8125 1805.523438 97.816406 C 1802.332031 97 1796.84375 100.78125 1794 102.074219 C 1783.449219 107 1773.339844 112.535156 1763 117.753906 C 1720.203125 139.339844 1677.726563 164 1638 190.65625 C 1523.824219 267.703125 1416.285156 351 1322 452 C 1294.203125 482 1267.675781 513.492188 1242.882813 546 C 1231 561.484375 1221 582.8125 1207 596 C 1210.625 582.335938 1212.910156 569 1215.195313 555 C 1215.980469 550.214844 1218.4375 546 1218 541 C 1199.785156 559.804688 1186.371094 585.492188 1175.320313 609 C 1171.277344 617.597656 1165.1875 627.523438 1164 637 L 1162 637 C 1163.21875 613.222656 1169.417969 587.394531 1177.585938 565 C 1178.976563 561.1875 1189.625 544.21875 1187.339844 542.011719 C 1185 540 1178.964844 539.609375 1176 539.085938 C 1166.617188 537.421875 1157.367188 536.09375 1148 534.789063 C 1115 530.222656 1081.699219 529.210938 1049 535.375 C 1033.71875 538.257813 1017.25 548.195313 1002 549 C 989.921875 549.621094 973.816406 540.621094 962 537.578125 C 941 532.195313 920.527344 531 899 531 C 878 531.101563 857.664063 534.484375 837 537.15625 C 832.722656 537.707031 817.734375 538.46875 815 542.023438 C 813.90625 543.757813 816 546.5625 816.953125 548 C 820.296875 553.804688 823 559.777344 825.601563 566 C 834.472656 588.363281 839.96875 615.019531 841 639 L 840 639 C 834.613281 613.117188 816.476563 585.714844 802 564 C 797.28125 557 792.335938 545.449219 785 541 C 787.1875 559 790.480469 578.699219 796 596 C 790.84375 591.738281 788.398438 585.386719 784.570313 580 C 775.953125 568 767 555.777344 757.988281 544 C 730.757813 508.777344 701.242188 475.574219 670.910156 443 C 578.847656 344.136719 471.300781 255.820313 356 185.253906 C 317.398438 161.628906 278.449219 139.683594 239 117.574219 C 228.90625 112 218.398438 107 208 102 C 205.261719 100.527344 199.714844 96.585938 196.558594 97.734375 C 193.457031 99 191.546875 107.160156 190.53125 110 C 186 122.214844 182.238281 134.515625 178.730469 147 C 163.761719 200.238281 156.707031 254.335938 150.835938 309 C 135.289063 453.671875 154.96875 599.730469 191.578125 740 C 208.230469 803.796875 231.21875 865.804688 246.335938 930 C 249.78125 944.632813 252.539063 959.316406 255.730469 974 C 257.484375 982.085938 261 991.703125 260.726563 1000 C 260.324219 1008.542969 256 1017.753906 253.882813 1026 C 249.171875 1044 244.363281 1062 240.511719 1080 C 228.929688 1134.203125 219 1188.40625 219 1244 C 219 1263.355469 218.445313 1282.773438 220.714844 1302 C 221.3125 1307.070313 219.855469 1315.277344 223 1319.644531 C 224.929688 1322.265625 228.875 1321.058594 231.574219 1320.773438 C 239 1320 246.464844 1320.003906 254 1320 C 286.378906 1320 319.339844 1318 352 1318 C 413.5625 1318 474.542969 1327.023438 535 1338.308594 C 575.183594 1345.8125 615 1357 656 1360.828125 C 680.238281 1363.144531 704.5625 1363 729 1363 M 420.667969 277.667969 C 420.722656 277.722656 420.777344 278.777344 420.332031 278.332031 C 420.277344 278.277344 420.222656 277.222656 420.667969 277.667969 M 423 279 C 525.699219 358.210938 626.664063 438.109375 697.304688 549 C 760.988281 649 791.769531 767 819 881 L 820 881 C 820 840 817 797.703125 812 757 C 816.210938 760.101563 817 767.25 819 772 C 824.617188 786.054688 829 800.496094 833.292969 815 C 842.859375 847.351563 848.828125 880.023438 855.371094 913 C 860.746094 940.09375 867 969.347656 867 997 L 869 997 C 869 975.378906 871.765625 953.65625 871.996094 932 C 872.484375 886.265625 869.496094 840.585938 866.957031 795 C 865.722656 773 863.199219 750.152344 860.824219 728 C 859.902344 719.359375 856.628906 709.632813 858 701 L 859 701 C 859.5 718.324219 867.496094 736.804688 870.535156 754 C 877.511719 793.480469 881.980469 834.054688 884.910156 874 C 887.1875 905.078125 887.1875 938 884.910156 969 C 883.457031 988.808594 878.273438 1010.066406 880.171875 1030 C 888 1113.488281 907.300781 1199 870 1279 L 869 1279 C 865.5625 1263.140625 868.429688 1243.519531 866.828125 1227 C 862.589844 1183.15625 855.183594 1138.519531 839.945313 1097 C 828.75 1066.492188 812.257813 1036 788 1013.828125 C 771.433594 998.769531 753.886719 985.777344 734 975.320313 C 633.832031 922.636719 522.332031 958.328125 427 1003.296875 C 404.855469 1013.742188 382 1024.527344 361 1037 C 346.964844 1045.050781 331.605469 1057.417969 316 1062 L 316 1061 C 368.632813 1026.191406 417.605469 986.820313 476 961.238281 C 517.984375 943 563.519531 935 609 935 L 609 934 C 573 934 538.496094 929.609375 503 939 C 511.242188 930.246094 531.574219 928.105469 543 925.640625 C 585.582031 916.449219 626.972656 920.394531 669 930 C 658 919.742188 639 914.320313 625 910.050781 C 619.648438 908.429688 608 907.683594 605 903 C 619.351563 903.007813 633.800781 904.023438 647 910 C 638.316406 899.328125 623.789063 892.421875 612 885.71875 C 573 863.601563 530.765625 855.1875 488 845 L 488 844 C 505.402344 840 528.339844 844.113281 546 845.828125 C 601.785156 851.25 652 869 697 903.234375 C 733.171875 931 766.273438 963.652344 800 994.171875 C 810.851563 1004 820 1016.566406 832 1025 C 822.242188 1008.320313 819 985.433594 813.433594 967 C 804 936.535156 791.460938 906.203125 776.613281 878 C 748.171875 824 717.953125 770.367188 686.550781 718 C 675.714844 700 664.636719 682.023438 653.746094 664 C 649.609375 657.152344 643.523438 650.609375 641 643 C 657.300781 656.269531 670.265625 678.058594 682.640625 695 C 707.550781 729.109375 732.167969 763.082031 754.425781 799 C 762 811.472656 769.480469 824.09375 776.460938 837 C 780.269531 844.042969 784.761719 850.785156 785 859 L 787 859 C 785.59375 831.542969 774.371094 802.707031 768 776.015625 C 737.6875 648.328125 666.511719 534.101563 580.253906 436.574219 C 543.46875 395 504.996094 355.40625 464 318 C 453.816406 308.710938 443.566406 299.507813 432.996094 290.679688 C 429.921875 288.105469 422.828125 283.269531 423 279 M 1580 279 C 1575.941406 287.226563 1565.660156 293.03125 1559 299.074219 C 1541.863281 314.617188 1524.722656 330.050781 1508 346.039063 C 1459.34375 392.566406 1413.523438 443.339844 1372.898438 497 C 1318.699219 568.589844 1274.246094 646.300781 1246.671875 732 C 1238.40625 757.691406 1231.453125 783.683594 1225.5 810 C 1221.867188 826.054688 1220.636719 843.539063 1215 859 C 1223.714844 849.308594 1227.867188 832.351563 1235 821 C 1264.394531 774.648438 1293.203125 727.707031 1327.828125 685 C 1338.929688 671.308594 1348.480469 652.3125 1363 642 C 1358.996094 652.40625 1350 662.5625 1344 672 C 1333.949219 687.695313 1324.578125 704.015625 1314.925781 720 C 1273.644531 788.367188 1230.335938 858.667969 1200.601563 933 C 1191.417969 956 1183.5 980 1177.667969 1004 C 1175.976563 1011 1172.710938 1018 1172 1025 C 1227.910156 974 1280 909 1349 874.347656 C 1399.652344 849.023438 1458 843 1514 843 C 1511.238281 847 1506.308594 845.75 1502 846.746094 C 1490.34375 849.441406 1478.410156 851.726563 1467 855.378906 C 1442.519531 863.203125 1417.863281 872 1395 883.785156 C 1380.589844 891.285156 1367.53125 902.085938 1353 909 L 1353 910 C 1366.402344 907.246094 1382 900.191406 1396 904 L 1396 905 C 1382.34375 909.433594 1368.625 913.363281 1355 918 C 1347.707031 920.480469 1336.953125 924.027344 1332 930 C 1375.496094 920.058594 1420.222656 915.484375 1464 927.136719 C 1474.289063 930 1488.292969 930.484375 1497 937 C 1483.351563 939.300781 1464 933.515625 1450 932.171875 C 1431.804688 930.429688 1413.222656 933 1395 933 L 1395 935 C 1477.386719 935 1545.613281 968.214844 1614 1011.320313 C 1630 1021.417969 1645.570313 1032.285156 1661 1043.257813 C 1668.367188 1048.496094 1677.433594 1052.746094 1683 1060 C 1668.808594 1055.507813 1654.691406 1045 1641.714844 1037.5 C 1621.992188 1026.3125 1601.367188 1016.476563 1581 1006.503906 C 1484.957031 959.46875 1371.324219 921.648438 1269 974.257813 C 1183.894531 1018.015625 1151.910156 1103.441406 1139.574219 1193 C 1136.640625 1214.296875 1134.308594 1235.539063 1133 1257 C 1132.984375 1259 1135.292969 1278 1132.269531 1277.078125 C 1130.3125 1276.515625 1129.351563 1270.664063 1128.753906 1269 C 1125.90625 1261.078125 1123.394531 1253.054688 1120.949219 1245 C 1110.574219 1210.800781 1104.890625 1170.699219 1109.574219 1135 C 1112.175781 1115.195313 1113.234375 1095 1115.171875 1075 C 1116.996094 1056.191406 1121.222656 1038 1120.996094 1019 C 1120.40625 969.273438 1113.253906 920.058594 1117.242188 870 C 1120.539063 828.632813 1126.476563 787.011719 1133.257813 746 C 1135.742188 731 1142.5625 715.152344 1143 700 L 1144 700 C 1143.789063 725.578125 1138.839844 751.484375 1137 777 C 1134.234375 818.667969 1132.789063 860.210938 1130.960938 902 C 1129.636719 932.277344 1126.929688 967.296875 1134 997 C 1137.21875 990.308594 1136.34375 982.253906 1137.289063 975 C 1138.984375 962 1141.289063 949 1143.296875 936 C 1149.585938 895.265625 1158 855.644531 1169.449219 816 C 1173.503906 802 1177.769531 788 1182.675781 774 C 1184.421875 769.070313 1185.714844 761.15625 1190 758 C 1188.914063 783.230469 1187.226563 809 1184.828125 834 C 1183.472656 848.253906 1180.664063 866 1184 880 C 1192.640625 859.527344 1195.699219 833.695313 1201.414063 812 C 1214.925781 760.714844 1229.710938 709.328125 1249.253906 660 C 1300.660156 530.246094 1392.664063 426.132813 1501 340.484375 C 1526.578125 320.265625 1551.398438 295 1580 279 M 309 418.332031 C 309.773438 418.332031 309 418.832031 308.667969 418.667969 L 309 418.332031 M 1696 418.332031 C 1696.773438 418.332031 1696 418.832031 1695.667969 418.667969 L 1696 418.332031 M 1694 419 C 1688.378906 424.523438 1677.269531 426.460938 1670 429.636719 C 1653 437.058594 1636.382813 445.625 1620 454.296875 C 1580 475.421875 1540.347656 496.734375 1501 519 C 1487.46875 526.46875 1474.890625 536.078125 1461 543 C 1472.898438 526.105469 1492.742188 513.175781 1509 500.765625 C 1561.683594 460.554688 1627.433594 427.421875 1694 419 M 540 541 C 518.511719 532.734375 497 516.050781 477 504.425781 C 441.445313 484 404.746094 464.371094 368 446 C 350.472656 437.234375 331.210938 425.351563 312 421 C 317.34375 418.820313 324.621094 422 330 423.269531 C 343 426.640625 356 430 369 434 C 415.925781 448.472656 458.964844 474.121094 498 503.527344 C 508.464844 511.40625 518.382813 519.828125 527.910156 528.816406 C 532 532.726563 537.394531 536 540 541 M 584 615 C 541.589844 592.421875 503.496094 562 456 549.472656 C 443.792969 546.289063 431.628906 544.324219 419 544.015625 C 417.53125 544 406.921875 543.171875 407.632813 546 C 408.421875 549 417.398438 551.15625 420 552.28125 C 431.882813 557.40625 443.65625 563.070313 455 569.3125 C 482.953125 584.699219 509.628906 604.253906 533 626 C 540.964844 633.292969 550.722656 640.09375 557 649 C 500.957031 619.050781 444.4375 592.015625 385 569 C 357.222656 558.230469 326.691406 544 297 540 L 297 539 C 318.226563 539.261719 340 540.308594 361 543.300781 C 372.351563 545 385.578125 549.039063 397 548 C 387.464844 539 373 535 361 530.375 C 328.277344 518 289 509.289063 254 509 L 254 508 C 266.445313 504.320313 281 506 294 506 C 326 506 357.527344 508.507813 389 515 L 389 514 C 356 500.523438 324.949219 483.488281 290 475.644531 C 281.773438 473.796875 273.464844 470.246094 265 470 C 271.96875 467.074219 283.675781 469.597656 291 470.640625 C 310.179688 473.328125 329.308594 475.410156 348 480.171875 C 410.847656 496.183594 465.46875 526.179688 519 562.328125 C 534.691406 573 549.632813 584.234375 564 596.574219 C 570.835938 602.449219 578.769531 607.578125 584 615 M 1740 469 L 1740 470 C 1708 472.035156 1673 488.484375 1644 501 C 1634.683594 505 1618.902344 508.742188 1612 516 C 1642.269531 507.488281 1674.742188 506 1706 506 C 1718.648438 506 1732.773438 504.285156 1745 508 L 1745 509 C 1710.394531 509.023438 1667.351563 518.828125 1635.714844 532.804688 C 1627.300781 536.523438 1610.304688 540.601563 1606 549 C 1628.535156 544.351563 1652 542.410156 1675 541 C 1683.769531 540.339844 1694.429688 538.144531 1703 540 L 1703 541 C 1687.742188 547.488281 1670.667969 550.335938 1655 556 C 1620.210938 568.203125 1585.925781 582 1552 596.425781 C 1529.683594 606 1506.59375 615.019531 1485 626.109375 C 1473 632.230469 1461.632813 641.65625 1449 646 C 1454 637.230469 1464.574219 630.660156 1472 624 C 1496.722656 601.5 1525 583.105469 1554 566.578125 C 1564.1875 560.75 1575 555.519531 1586 551.117188 C 1588.167969 550.238281 1596.683594 548.179688 1597.367188 545.804688 C 1598 543.0625 1587.289063 544.773438 1586 544.765625 C 1573.945313 544.695313 1561.609375 545.53125 1550 549.074219 C 1519.910156 558.261719 1491 571 1464 587.015625 C 1448.859375 596.011719 1434.265625 609.460938 1418 616 C 1433.542969 594.394531 1461.636719 577.699219 1483 562.253906 C 1556.640625 509.023438 1647.78125 469.011719 1740 469 M 206 521 C 217.550781 583.1875 224.738281 645.542969 240.578125 707 C 246 728.316406 250.953125 750.203125 258.175781 771 C 262.644531 784 269.855469 797 273 810 L 272 810 C 228.542969 745.328125 210.316406 667.679688 206.960938 591 C 206.269531 575.191406 205.527344 559.566406 205 543.714844 C 204.9375 537 203.339844 527.335938 206 521 M 1797 524 C 1797.820313 623.367188 1789.453125 723.769531 1732 809 L 1731 809 C 1734.300781 790.476563 1745.3125 771.222656 1750.972656 753 C 1762 717.066406 1769.867188 679.765625 1777.640625 643 C 1782.851563 618.335938 1787.816406 593 1790.816406 568 C 1792.40625 554.757813 1791.722656 536.230469 1797 524 M 722 845 C 702.441406 832.0625 686.839844 813.140625 670 797.039063 C 633.3125 762 597.222656 724.484375 556 694.746094 C 528.914063 675.207031 496.597656 660.664063 466 647.574219 C 422.898438 629.128906 378.875 611.808594 333 601.5 C 310.785156 596.507813 288 595.113281 266 591 C 273.925781 585.585938 289.703125 588 299 588 C 328.921875 588 357.695313 589.113281 387 595.574219 C 452.960938 610.117188 504.972656 651.144531 558 690.523438 C 590 714.339844 623.324219 736 653 762.828125 C 671.773438 779.820313 688.511719 798.128906 704.195313 818 C 710 825.515625 719.589844 835.726563 722 845 M 1736 589 L 1736 591 C 1673.671875 593.675781 1610.238281 618.234375 1553 641.199219 C 1510.382813 658.300781 1465.648438 676.6875 1430.183594 706.523438 C 1395.242188 736 1362.496094 768 1329.996094 800.015625 C 1319.550781 810.324219 1308.878906 820.324219 1298 830.171875 C 1292.898438 834.785156 1288.679688 840.730469 1282 843 C 1312.808594 785.351563 1371 743 1423 706 C 1469.691406 672.78125 1513.761719 634.214844 1567 611.425781 C 1620.835938 588.386719 1678.46875 586.527344 1736 589 M 1669 639.332031 C 1669.773438 639.332031 1669 639.832031 1668.667969 639.667969 L 1669 639.332031 M 529 719 L 529 720 C 506.449219 713.785156 484.394531 700.558594 463 691.09375 C 422.449219 673.148438 381.703125 656 340 641 C 344.964844 639.0625 350.992188 641.582031 356 642.640625 C 367.789063 645.128906 379.386719 647.367188 391 650.703125 C 422.929688 660 454 673 483 689.425781 C 498.839844 698.488281 513.320313 709.800781 529 719 M 1666 640 L 1666 641 C 1620.847656 657.21875 1575.972656 675.007813 1532 694.214844 C 1512.339844 702.800781 1492.246094 715.550781 1472 722 C 1485 706.507813 1509 694.800781 1527 685.753906 C 1569 664.5625 1618 642.324219 1666 640 M 1447 647 L 1446 648 L 1447 647 M 857 699 L 856 700 L 857 699 M 728 891 C 704.617188 881.167969 681.886719 864.578125 660 851.601563 C 621.214844 828.605469 582 806 543 783.570313 C 508 763.574219 472.621094 744.117188 436 727.308594 C 416.835938 718.511719 395.234375 712.414063 377 702 C 385.453125 701.203125 396.96875 706.507813 405 709.167969 C 426.453125 716.269531 447.242188 724.691406 468 733.574219 C 536 762.714844 608.59375 792.199219 669 835.574219 C 684.609375 846.78125 699.582031 859.285156 713 873.015625 C 718.460938 878.542969 724.800781 883.820313 728 891 M 1627 701 L 1627 702 C 1534.191406 736.050781 1449.953125 788.191406 1365 838 C 1334.6875 855.585938 1304.710938 877 1273 892 C 1277.511719 883.304688 1286.609375 875.320313 1293.710938 868.617188 C 1307.6875 855.417969 1322 842.5625 1338 831.652344 C 1397.34375 790.808594 1466.910156 761.777344 1533 733.574219 C 1554.988281 724.1875 1577 715.234375 1600 708.304688 C 1608.640625 705.691406 1617.957031 701.464844 1627 701 M 532 721 L 531 722 L 532 721 M 811.667969 753.667969 C 811.722656 753.722656 811.777344 754.777344 811.332031 754.332031 C 811.277344 754.277344 811.222656 753.222656 811.667969 753.667969 M 603 903 L 603 904 L 600 904 C 601.246094 903.316406 601.546875 903.25 603 903 M 1402 903 L 1401 904 L 1402 903 M 1500 938.332031 C 1500.773438 938.332031 1500 938.832031 1499.667969 938.667969 L 1500 938.332031 M 648 1008 L 648 1009 C 629.367188 1015.464844 610.269531 1029.195313 604 1049 C 609.925781 1046.113281 614.394531 1045 621 1045 C 625.832031 1045.023438 630.503906 1045.726563 635 1047.609375 C 650.9375 1054.28125 655.507813 1077.398438 643.8125 1090 C 635.402344 1099 619.820313 1100.359375 609 1095.40625 C 602.246094 1092.3125 598.800781 1087.328125 594 1082 C 594 1093.117188 590.65625 1104 590 1115 C 588.492188 1143.058594 592 1174 605.726563 1199 C 611.347656 1209.304688 618.910156 1224.53125 630.910156 1228.570313 C 636 1230.308594 642.207031 1227.160156 647 1225.414063 C 662.601563 1219.71875 676.257813 1210 686.738281 1197 C 714 1163.308594 724.757813 1114.65625 711.820313 1073 C 707.371094 1058.679688 698 1048.160156 692 1035 C 700.832031 1037 709.222656 1042.558594 717 1047 C 729 1054 740.761719 1062.714844 749 1074 C 773.273438 1107 762.628906 1153.601563 741.253906 1185 C 711.339844 1229 659.859375 1245 609 1239.828125 C 574.925781 1236.367188 540.804688 1218 520.746094 1190 C 489.765625 1147 492.792969 1083.609375 528.175781 1044 C 560.910156 1007.347656 603 1008 648 1008 M 1311 1034 C 1305.828125 1045.605469 1296.46875 1054.59375 1292.179688 1067 C 1277 1111 1285.46875 1161.25 1315.589844 1197 C 1326.34375 1209.765625 1339.242188 1220 1355 1225.46875 C 1359.96875 1227.246094 1365.65625 1230.226563 1371 1228.261719 C 1384 1223.445313 1392.984375 1206 1398.269531 1194 C 1410.386719 1166.734375 1413.988281 1137.671875 1411.910156 1108 C 1411.296875 1099.238281 1408 1090.769531 1408 1082 C 1400.726563 1089.039063 1395.75 1095.550781 1385 1097.625 C 1349.925781 1104.390625 1339.667969 1051.707031 1375 1045.464844 C 1383.539063 1044 1390.871094 1047.308594 1399 1049 C 1388.746094 1029.535156 1374.789063 1016.097656 1354 1009 C 1364.578125 1004.5625 1382.707031 1006.757813 1394 1007.828125 C 1444.242188 1012.613281 1487.726563 1042.535156 1499.664063 1094 C 1513.769531 1154.800781 1478.511719 1212.246094 1421 1233.113281 C 1365.496094 1253.246094 1298 1235.824219 1262.476563 1188 C 1240.246094 1158.128906 1228.402344 1112.699219 1249 1079 C 1257.730469 1065 1271 1055 1285 1046.550781 C 1293 1041.671875 1301.714844 1036.320313 1311 1034 M 1685 1061.332031 C 1685.773438 1061.332031 1685 1061.832031 1684.667969 1061.667969 L 1685 1061.332031 M 910 1075 C 910.636719 1083.042969 914 1090.136719 915.625 1098 C 918.8125 1114.589844 921.21875 1132.0625 921.960938 1149 C 922.738281 1166.78125 922.519531 1185.433594 919.675781 1203 C 917.480469 1216.550781 912.28125 1229.527344 910 1243 L 909 1243 C 909 1202.378906 910 1161.667969 910 1121 C 910 1112.113281 910.757813 1102.832031 909.714844 1094 C 909 1088.226563 906.773438 1080.136719 910 1075 M 1093 1075 C 1093 1114 1092 1153 1092 1192 C 1092 1207.570313 1097 1229.265625 1093 1244 L 1092 1244 C 1089.601563 1224.320313 1082.957031 1204.765625 1080.210938 1185 C 1077 1163 1080.949219 1138.8125 1083.820313 1117 C 1085.574219 1103.652344 1086.8125 1087.132813 1093 1075 M 410 1115 C 414 1137.5 435 1163.089844 448.527344 1181 C 466.25 1204.632813 485 1227.773438 509 1245.523438 C 555.820313 1280.304688 616.339844 1289 673 1289 C 710.636719 1289 747.46875 1278.160156 785 1281 C 803.574219 1282.273438 824.542969 1289 830.523438 1309 C 830.886719 1310.203125 831.59375 1312.539063 829.628906 1312.746094 C 826 1313.117188 820.378906 1309.164063 817 1308.023438 C 809.902344 1305.628906 802.46875 1304.710938 795 1305.039063 C 757.6875 1306.6875 722.785156 1323.546875 685 1324 C 605 1325 520.445313 1303 449 1267.246094 C 414.78125 1250.136719 380 1226.164063 361 1192 C 367.359375 1195 371.800781 1201 378 1204.421875 C 397.277344 1215.238281 419.3125 1223.464844 441 1228 C 416.835938 1205 397.71875 1177.410156 395 1143 L 396 1143 C 403.386719 1158.527344 414.824219 1173.023438 429 1183 C 415.921875 1166.355469 408 1136 408 1115 L 410 1115 M 1593 1116 C 1592.9375 1139 1582.25 1161.03125 1574 1182 C 1585.453125 1173.214844 1595.707031 1158.363281 1603 1146 L 1604 1146 C 1603.347656 1176.5625 1581.589844 1207.410156 1561 1228 C 1579.78125 1223.550781 1600 1217 1617 1207.691406 C 1624.753906 1203.496094 1631.238281 1196.691406 1639 1193 C 1634.507813 1205.25 1623 1216.148438 1613.960938 1225.089844 C 1589.757813 1248.65625 1560.238281 1265.664063 1529 1278.199219 C 1462.414063 1305 1390.328125 1325.757813 1318 1324 C 1296.410156 1323.457031 1273.957031 1319.445313 1253 1314.410156 C 1237 1310.59375 1219.398438 1305.007813 1203 1305.007813 C 1190.597656 1305.007813 1180.578125 1311.375 1169 1314 C 1178.640625 1285.511719 1203.742188 1280 1231 1280 C 1257.457031 1280.042969 1283.710938 1286.328125 1310 1288.828125 C 1341 1291.796875 1375.585938 1289.050781 1406 1282.113281 C 1474 1266.578125 1520.964844 1226.476563 1560.429688 1170 C 1572.214844 1153.140625 1580 1131.609375 1593 1116 M 1224 1121 C 1224.433594 1173.371094 1263.328125 1223.328125 1308 1247 L 1308 1248 C 1264 1247 1230.566406 1202.21875 1222.550781 1163 C 1219.960938 1150.328125 1217.535156 1133 1224 1121 M 779 1123 C 785 1170.304688 767.597656 1218 722 1239.292969 C 713.265625 1243.382813 703.796875 1247.769531 694 1248 L 694 1247 C 724.910156 1230.597656 753 1201.566406 766.398438 1169 C 770.785156 1158.253906 773.675781 1147.300781 776.253906 1136 C 777.273438 1131.535156 776.351563 1127 779 1123 M 1015 1155 C 1019.59375 1174.289063 1018.171875 1197.175781 1019 1217 C 1020.46875 1249.605469 1024.179688 1283.273438 1032 1315 L 1033 1315 C 1033 1273.539063 1036.222656 1232.351563 1038 1191 L 1039 1191 C 1042.550781 1199.417969 1043.1875 1209.140625 1045.332031 1218 C 1049.386719 1234.734375 1054 1251.375 1058.488281 1268 C 1071.5625 1316.457031 1088.660156 1366.105469 1095 1416 L 1096 1416 C 1097.367188 1399.632813 1096 1383.367188 1096 1367 L 1097 1367 C 1113 1414 1135 1466 1135 1516 C 1127.617188 1511 1122.359375 1501.503906 1115 1495.664063 C 1094 1479.058594 1066.867188 1471.3125 1040.425781 1475.003906 C 1027.234375 1477 1013.898438 1487.632813 1001 1487.628906 C 996 1487.628906 991.445313 1484.265625 987 1482.453125 C 977.761719 1478.679688 967.984375 1475.277344 958 1474.171875 C 933.492188 1471.460938 908.339844 1480 889 1495.015625 C 881 1501.179688 875 1510.535156 867 1516 C 867 1482.191406 878.460938 1449 888.28125 1417 C 893.179688 1401.0625 896.683594 1383 904 1368 L 905 1368 C 906.902344 1383.738281 906 1401.046875 906 1417 L 908 1417 C 908 1402.765625 912.949219 1388.808594 915.882813 1375 C 923.574219 1338.769531 932.753906 1302.519531 943.363281 1267 C 950.5 1243.105469 960.46875 1215.023438 961 1190 L 963 1190 C 963 1232.308594 969 1274.632813 969 1317 L 970 1317 C 976.785156 1263.3125 984.964844 1210.335938 985 1156 L 986 1156 C 992.425781 1190.613281 989.691406 1227.007813 992 1262 C 994.886719 1302.820313 1000 1344.058594 1000 1385 L 1001 1385 C 1005 1368 1002.882813 1347.597656 1004 1330 C 1006.664063 1292.375 1009.3125 1254.683594 1010.960938 1217 C 1011.558594 1203.324219 1012.339844 1189.664063 1012.960938 1176 C 1013.25 1169.640625 1012.550781 1161 1015 1155 M 77 1346 L 77 1348 C 111.660156 1345.265625 146.347656 1344.285156 181 1342 C 189.285156 1341.34375 217.839844 1344.808594 209.398438 1328.445313 C 207.921875 1325.585938 203.625 1326.210938 201 1326.476563 C 193 1327.285156 185 1327.300781 177 1328.285156 C 153.539063 1331.164063 130 1335.414063 107 1340 C 97.195313 1341.773438 86.972656 1345.367188 77 1346 M 1927 1347 C 1917 1342 1903.9375 1341.398438 1893 1339.566406 C 1870.308594 1335.757813 1847.742188 1331.539063 1825 1328.300781 C 1819 1327.457031 1794.433594 1322.519531 1793 1330.058594 C 1790.464844 1345.820313 1810.425781 1342 1821 1342 C 1841.9375 1342 1864.171875 1342.089844 1885 1344.171875 C 1897.335938 1345.402344 1915 1350.027344 1927 1347 M 771 1514 C 754.746094 1508 739.773438 1496.34375 724 1488.777344 C 678.761719 1467.085938 633.328125 1446.5 585 1432.550781 C 524.394531 1415.0625 461.550781 1402.671875 399 1395.183594 C 380.167969 1393 360.871094 1390.609375 342 1389.09375 C 333.613281 1388.417969 325.332031 1389.546875 317 1388 C 323.316406 1384.21875 331.933594 1386.546875 339 1385.714844 C 364.453125 1382.710938 391.359375 1385 417 1385 C 512.609375 1385 602 1411.222656 687 1453.753906 C 708.367188 1464.445313 726.902344 1478.238281 746 1492.421875 C 753.972656 1498.339844 766.652344 1504.824219 771 1514 M 1686 1386 L 1686 1387 C 1678.894531 1390 1671.503906 1388.539063 1664 1389.089844 C 1650.773438 1390.058594 1637 1391.609375 1624 1393.183594 C 1573.339844 1399.246094 1521.761719 1406.785156 1472 1418.75 C 1418.277344 1431.664063 1365.441406 1447.375 1315 1470.074219 C 1295.324219 1479 1275.910156 1489 1257 1499.273438 C 1247 1504.703125 1237.710938 1512.339844 1227 1516 C 1234 1506.242188 1246.5 1498.65625 1256 1491.347656 C 1282.308594 1471.109375 1310.628906 1453.351563 1341 1440 C 1392.683594 1417.035156 1447.652344 1398 1504 1391.183594 C 1564.695313 1384 1625 1385.832031 1686 1386 M 83 1458 C 93.46875 1462.394531 109.941406 1455.546875 121 1455.039063 C 145.371094 1454 169.621094 1451.113281 194 1450.039063 C 205.890625 1449.515625 223.511719 1452.421875 234.683594 1448.683594 C 238.597656 1447.371094 236.542969 1437.113281 235.683594 1434.058594 C 234.382813 1429.441406 229.691406 1430.644531 226 1431.050781 C 217.363281 1432.003906 208.644531 1433.550781 200 1434.035156 C 182 1435.039063 164.488281 1440.105469 147 1443.628906 C 125.6875 1448 103.71875 1451.390625 83 1458 M 1925 1461 C 1917.246094 1453.507813 1900.265625 1453 1890 1450.429688 C 1858.738281 1443 1826.652344 1438.691406 1795 1433.433594 C 1783.71875 1431.5625 1766.386719 1425.5 1766 1441 C 1765.96875 1443 1765.601563 1445.683594 1766.601563 1447.398438 C 1768.199219 1450.128906 1774.371094 1449 1777 1449 C 1786.972656 1449 1797 1449.601563 1807 1450.039063 C 1845 1451.707031 1888 1451.226563 1925 1461 M 78 1459 L 78 1461 L 81 1461 L 81 1459 L 78 1459 M 836 1488 C 836 1528.511719 859 1568.300781 893 1590.058594 C 908.515625 1600.03125 930 1604.273438 942.816406 1618.039063 C 958 1634.492188 962.996094 1663 945.824219 1679.816406 C 939.617188 1686 930.761719 1688.484375 923 1692 L 922 1691 C 934 1673.722656 938.210938 1659.40625 942 1639 C 930.910156 1645 922.21875 1657 911 1663.65625 C 880.527344 1682.128906 849.410156 1685.347656 815 1681 L 815 1679 C 840.199219 1678.480469 877 1664.078125 894 1645 C 870.625 1649 848.984375 1654.582031 825 1651.714844 C 813.992188 1650.398438 812.796875 1650.027344 810.601563 1639 C 810.199219 1637 808.589844 1633 810 1631.023438 C 813.425781 1627.085938 826.402344 1629.050781 831 1629 C 842.9375 1629 855.398438 1626.121094 867 1623.5 C 871.730469 1622.429688 876.34375 1622.441406 880 1619 C 859.847656 1617.394531 836.722656 1610.707031 818 1603.25 C 812 1601 803.410156 1599.101563 798.5 1595.074219 C 794.785156 1592.035156 793.59375 1585.1875 791.476563 1581 C 786.304688 1570.78125 778.398438 1561.460938 774 1551 C 795.890625 1558.464844 815.957031 1570.796875 837 1580 C 824.183594 1560 822 1535 826.664063 1512 C 828.34375 1503.738281 832.585938 1496.183594 834 1488 L 836 1488 M 1167 1488 C 1173.523438 1496.046875 1175.382813 1509 1176 1519 C 1177.714844 1542.019531 1174.566406 1560 1165 1581 C 1183.1875 1568.3125 1207.867188 1558.558594 1229 1552 C 1224.664063 1561.746094 1217 1570.335938 1212.246094 1580 C 1209.867188 1584.726563 1207.859375 1592.691406 1203.605469 1596 C 1198 1600.265625 1187.640625 1602.6875 1181 1605 C 1167.691406 1609.546875 1153.722656 1613.308594 1140 1616.386719 C 1137.3125 1617 1127.59375 1617 1126.207031 1619.378906 C 1124.617188 1622.171875 1138.257813 1624.347656 1140 1624.714844 C 1152.355469 1627.316406 1164.417969 1628.488281 1177 1629.039063 C 1180 1629.175781 1188.960938 1629 1190.933594 1631.601563 C 1192.488281 1633.757813 1191 1637.644531 1190.753906 1640 C 1189 1650 1187.480469 1651.5 1177 1652 C 1152.773438 1653.023438 1131.636719 1650 1108 1645 C 1122.871094 1661.753906 1148 1670.699219 1169 1676.570313 C 1174.988281 1678.25 1181 1677.804688 1187 1680 C 1179.492188 1684.496094 1165.636719 1684 1157 1684 C 1117.230469 1684 1089.222656 1662.5625 1060 1639 C 1061.8125 1648.757813 1062.222656 1658.695313 1066 1668 C 1069.394531 1676.296875 1075.433594 1683 1079 1691 C 1048.65625 1683.8125 1035 1651.074219 1053.515625 1625 C 1064.867188 1609 1082.433594 1604.214844 1099 1595.449219 C 1116 1586.449219 1130.980469 1574.421875 1142.660156 1559 C 1154.679688 1543.128906 1161 1524.171875 1165.40625 1505 C 1166.671875 1499.449219 1164.796875 1493.25 1167 1488 M 1115 1543 C 1109.996094 1539.316406 1106.546875 1534.238281 1101 1531.148438 C 1080.328125 1519.636719 1058.398438 1524.011719 1038 1533.554688 C 1026.941406 1538.726563 1013.789063 1551.351563 1001 1551 C 989.214844 1550.535156 976.203125 1539.34375 966 1534.109375 C 939.941406 1520.734375 907.375 1518.570313 888 1544 C 886.378906 1539.058594 890.929688 1533.179688 893.425781 1529.015625 C 902.417969 1514 920.441406 1506.679688 937 1504.425781 C 949.960938 1502.660156 965 1504.167969 977 1509.535156 C 983.382813 1512.398438 994.175781 1521.597656 1000.910156 1521.597656 C 1004.417969 1521.597656 1008 1517.523438 1011 1516 C 1017.539063 1512.277344 1024.84375 1509.164063 1032 1507.019531 C 1062.566406 1498 1107.21875 1507.03125 1115 1543 M 554 1638 L 553 1638 C 552.433594 1625.574219 547 1612.246094 542 1601 C 529.734375 1573.382813 510.988281 1542.285156 483 1528 C 523.347656 1581.191406 522.507813 1653.5625 514.816406 1717 C 512.710938 1734.355469 504 1752 503 1769 L 502 1769 C 502.617188 1739.027344 502.429688 1708.597656 496.515625 1679 C 494.722656 1670.035156 495.339844 1660.28125 491 1652 C 488.222656 1690.015625 485.941406 1729 476.578125 1766 C 474.269531 1775.144531 473.351563 1796 466 1802 C 471 1761.722656 469.402344 1716 462 1676 L 461 1676 C 460.714844 1710.578125 458 1748.804688 448 1782 L 447 1782 C 447 1759 441.839844 1735.484375 437.371094 1713 C 429.957031 1675.699219 422.8125 1638.316406 411 1602 L 410 1602 C 410.65625 1621 412.378906 1640.195313 414.171875 1659 C 415.785156 1676 419 1696.191406 415 1713 L 414 1713 C 411.386719 1655.800781 366.96875 1593.203125 404 1540 C 353.65625 1578.359375 354.519531 1649.21875 359 1706 L 358 1706 C 350.695313 1688.507813 342.207031 1666 341 1647 L 340 1647 C 340.378906 1696.519531 341.234375 1743.664063 335 1793 L 333 1793 C 333 1768 332.507813 1742.578125 327.628906 1718 C 323.527344 1697.347656 315.695313 1678.789063 309 1659 L 308 1659 C 308.324219 1674.710938 313.816406 1690.066406 313.820313 1706 C 313.828125 1727.515625 308 1748.664063 308 1770 L 306 1770 C 301.839844 1737.09375 297.792969 1704.355469 290 1672 L 289 1672 C 289 1695.394531 287 1719 283.324219 1742 C 281.976563 1750.097656 282.300781 1759.214844 280 1767 L 279 1767 C 278.4375 1754 274.878906 1741 273.179688 1728 C 269.972656 1703.625 267.710938 1679.316406 264.714844 1655 C 262.242188 1635 257.976563 1613.589844 264 1594 C 250.613281 1609.335938 239.929688 1623.707031 233 1643 L 232 1643 C 232 1619.488281 239.445313 1591.347656 256 1574 C 234.886719 1586.203125 226 1610.308594 219 1632 L 218 1632 C 218 1605.636719 226.945313 1579.277344 247 1561.171875 C 265.960938 1544.054688 298.246094 1539.144531 317.246094 1559.183594 C 331.816406 1574.554688 335.460938 1596 338 1616 C 342.511719 1606.625 343 1594.121094 346.695313 1584 C 354.820313 1560.722656 369.394531 1539.398438 390 1525.519531 C 442.984375 1489.820313 513.601563 1509.175781 542.960938 1565 C 553.832031 1585.671875 554.792969 1615.113281 554 1638 M 1663 1615 L 1664 1615 C 1664.886719 1603.78125 1667.304688 1591.40625 1671.664063 1581 C 1685.417969 1548.191406 1723.695313 1533.714844 1753 1558.195313 C 1775.246094 1576.78125 1785 1604.574219 1785 1633 L 1784 1633 C 1782.929688 1612.128906 1766.546875 1588 1750 1576 C 1761.613281 1597 1772.996094 1618.425781 1773 1643 L 1772 1643 C 1769.363281 1627.503906 1753.9375 1603.441406 1740 1596 C 1747.257813 1609 1742.542969 1629.832031 1741.171875 1644 C 1737.25 1684.476563 1734.453125 1727.410156 1725 1767 L 1724 1767 C 1716.960938 1737.429688 1715 1702.464844 1715 1672 L 1714 1672 C 1706 1705.167969 1703.1875 1738.679688 1697 1772 L 1696 1772 C 1695.824219 1750.601563 1690.894531 1729.617188 1691 1708 C 1691 1691.804688 1695.867188 1676.039063 1696 1660 C 1688.796875 1668.011719 1685.832031 1682.792969 1682.847656 1693 C 1673.316406 1725.628906 1670.550781 1761.234375 1672 1795 L 1671 1795 C 1662.453125 1763.679688 1660.617188 1728.445313 1662 1696 C 1662.484375 1686 1668 1660.6875 1661 1653 C 1660.855469 1669.203125 1652.503906 1689.304688 1646 1704 L 1645 1704 C 1645 1660.34375 1649.597656 1615.1875 1628.449219 1575 C 1622 1563 1610.867188 1545.453125 1598 1540 C 1615 1557.496094 1615.261719 1580.140625 1612.289063 1603 C 1607.660156 1638.605469 1590 1675.148438 1590 1711 L 1588 1711 C 1588 1686.195313 1588.957031 1661.714844 1590 1637 C 1590.464844 1627.289063 1594.367188 1616.484375 1591 1607 C 1581.28125 1646.34375 1570.804688 1685.160156 1563.375 1725 C 1559.78125 1744.265625 1561.527344 1766.300781 1556 1785 L 1555 1785 C 1554.988281 1767.578125 1549.671875 1750.144531 1547.207031 1733 C 1544.628906 1715.058594 1545.265625 1697 1543 1679 L 1542 1679 C 1539.792969 1707 1535.820313 1735 1535 1763 C 1534.816406 1775.601563 1537.894531 1788.367188 1538 1801 C 1530.609375 1793.15625 1529.953125 1775.304688 1527.289063 1765 C 1517.757813 1728.085938 1517.742188 1690.515625 1513 1653 L 1512 1653 C 1511.40625 1666 1507.726563 1679.113281 1506.183594 1692 C 1503.238281 1716.605469 1502 1742.210938 1502 1767 L 1501 1767 C 1483.898438 1717.6875 1481 1661.304688 1488.570313 1610 C 1492.855469 1580.414063 1499.386719 1553.359375 1519 1530 C 1507.609375 1534.179688 1496.238281 1545.59375 1488.886719 1555 C 1471.667969 1577.015625 1453.839844 1606.472656 1451 1635 C 1446.5625 1629.058594 1449.863281 1613.207031 1450.714844 1606 C 1454.328125 1575.394531 1463.355469 1548.078125 1489 1528.503906 C 1558.625 1475.347656 1659.34375 1530 1663 1615 M 767 1683 L 766 1683 C 765 1662.195313 760.839844 1629 746 1613 C 751.730469 1634.664063 754 1656.597656 754 1679 C 754 1685.460938 755.921875 1697.820313 750 1702 C 750 1685 749.980469 1668.585938 745.289063 1652 C 741.84375 1639.808594 733.546875 1627.402344 732 1615 L 731 1615 C 732.304688 1631.550781 742.328125 1656.054688 736 1672 C 727.609375 1659 724.746094 1639.828125 720.277344 1625 C 711 1594.554688 696.382813 1563.113281 669 1545 C 675 1553.660156 681.546875 1560.707031 685 1571 C 679.242188 1568 675.503906 1561.632813 670.984375 1557 C 661 1546.804688 648.277344 1533.613281 635 1528 C 676.335938 1577.53125 679.835938 1656.714844 675 1718 L 674 1718 C 673.941406 1696.730469 666.28125 1673.28125 658.660156 1653.574219 C 655.839844 1646.277344 653.296875 1637 648 1631 C 655.828125 1672.546875 659.972656 1723 647 1764 L 646 1764 C 646 1736.289063 641.691406 1708 635.496094 1681 C 632.597656 1668.355469 629.859375 1652.585938 622 1642 C 625.683594 1688.6875 628.660156 1733.347656 620 1780 L 619 1780 C 619 1753.113281 613.761719 1726.015625 607.441406 1700 C 605.402344 1691.613281 604.296875 1677.097656 598 1671 C 600.660156 1682.183594 598.238281 1693.785156 597.171875 1705 C 595.4375 1723.199219 594.566406 1741.402344 589 1759 C 585.8125 1751.40625 586.851563 1740.273438 585.5625 1732 C 582 1710.007813 579.496094 1688 575.679688 1666 C 571.300781 1640.800781 564.699219 1615.535156 557.445313 1591 C 554.359375 1580.558594 549 1569.734375 547.390625 1559 C 545.714844 1548.640625 556.625 1535.007813 563.285156 1528.171875 C 587.320313 1503.511719 628.796875 1506.324219 659 1515.148438 C 727.855469 1535.269531 784.703125 1608.632813 767 1683 M 1415 1758 L 1414 1758 C 1407 1729.597656 1406.765625 1701 1404 1672 L 1403 1672 C 1401.488281 1687.195313 1394.214844 1702 1391.375 1717 C 1387.882813 1735.535156 1389.269531 1757.175781 1384 1775 L 1383 1775 C 1382.984375 1752.445313 1377.757813 1729.683594 1377 1707 C 1376.367188 1685.0625 1379.269531 1663.738281 1381 1642 L 1379 1642 C 1377.394531 1655.175781 1370.289063 1668 1367.511719 1681 C 1361.332031 1710.121094 1359 1740.285156 1359 1770 L 1358 1770 C 1350 1723.515625 1344.296875 1680.046875 1354 1633 C 1348.699219 1639 1346.234375 1648.613281 1343.671875 1656 C 1337.722656 1673.125 1330 1692.675781 1330 1711 L 1328 1711 C 1326.742188 1650 1326.484375 1578.261719 1367 1528 C 1347.421875 1537.753906 1336.371094 1557.765625 1319 1570 C 1320.761719 1560.230469 1328.539063 1553 1334 1545 C 1291.988281 1576 1280.792969 1628.136719 1269 1676 L 1268 1676 C 1265.855469 1655.730469 1270 1636 1273 1616 L 1272 1616 C 1269.554688 1627.710938 1262.300781 1638.496094 1258.714844 1650 C 1253.546875 1666.566406 1252.738281 1684.769531 1252 1702 L 1251 1702 C 1244.8125 1681.070313 1248.796875 1652.148438 1252.324219 1631 C 1253.378906 1624.671875 1256.707031 1618.3125 1257 1612 C 1247.679688 1626.636719 1243.871094 1643.335938 1240.214844 1660 C 1239 1665.433594 1239.550781 1676.785156 1235 1680 C 1228.308594 1607.015625 1268 1538.085938 1340 1516.246094 C 1376 1505.296875 1424.269531 1503 1447.304688 1539 C 1450.492188 1544 1455 1551 1455.382813 1557 C 1456 1571.378906 1445.3125 1588 1442.285156 1602 C 1431 1654.03125 1421.664063 1705.261719 1415 1758 M 1520 1528 L 1521 1529 L 1520 1528 M 256 1573 L 257 1574 L 256 1573 M 1748.667969 1575.332031 C 1748.222656 1575.777344 1749.277344 1575.722656 1749.332031 1575.667969 C 1749.777344 1575.222656 1748.722656 1575.277344 1748.667969 1575.332031 M 1592 1604 L 1592 1607 L 1593 1607 L 1594 1604 L 1592 1604 M 1258 1610 C 1259.636719 1609.453125 1259.453125 1609.636719 1260 1608 C 1258.6875 1608.769531 1258.769531 1608.6875 1258 1610 M 745 1610 L 746 1611 L 745 1610 M 1663 1648 L 1663 1652 L 1664 1652 C 1663.824219 1650.316406 1663.683594 1649.507813 1663 1648 M 1539 1802 L 1539 1807 L 1538 1807 C 1538 1805.035156 1538.222656 1803.769531 1539 1802 M 466 1806 L 465 1807 L 466 1806 "/></g></svg>