<svg xmlns="http://www.w3.org/2000/svg" viewBox="0 0 116.59 66.07"><g id="Layer_2" data-name="Layer 2"><g id="Layer_1-2" data-name="Layer 1"><path d="M46.86,23.79a7.63,7.63,0,0,1,.58,1.6c.21,1.94.39,3.89.46,5.84a6.1,6.1,0,0,1-.51,2.09c-.21.58-.18,1,.59,1.22a4.49,4.49,0,0,0,.57-.91,10.47,10.47,0,0,0,.36-6.24c-.26-.91-.42-1.85-.67-2.76a3.58,3.58,0,0,0-.48-1.05c-.59-.84-1.1-1-2-.42-1.95,1.2-3.85,2.47-6,3.89l-4.57-.95c1.45-.91,2.76-1.69,4-2.53,1-.68,2-1.42,3-2.16,2.23-1.7,4.47-3.39,6.67-5.12q3.62-2.88,7.18-5.83a59.42,59.42,0,0,1,9.65-7A27.82,27.82,0,0,1,75.24.17,17.66,17.66,0,0,1,83,.8c1.17.37,2.36.69,3.56,1a13.15,13.15,0,0,1,5.88,3.42,16.6,16.6,0,0,1,5.09,8,6.86,6.86,0,0,0,.37.8,38.17,38.17,0,0,1,10.56,4.64,16.76,16.76,0,0,1,8,12.43,10.61,10.61,0,0,1-1.36,6.82c-1.1,1.94-2.42,3.76-3.7,5.59a25.88,25.88,0,0,1-6.14,5.72A45.8,45.8,0,0,1,94.51,55.6a16,16,0,0,1-6.05,1.23,8,8,0,0,1-4.14-1.17c-1.59-1-1.78-2.17-.52-3.6A14,14,0,0,1,89,48.4c2.31-1,4.7-1.77,7.05-2.67a26.88,26.88,0,0,0,6.6-3.26A22,22,0,0,0,106.51,39a9.29,9.29,0,0,0,2-8.61,5.63,5.63,0,0,0-1.19-2.17,16.81,16.81,0,0,0-7.28-4.63,7.85,7.85,0,0,0-2.13-.15,50.85,50.85,0,0,1-4.27,11.89,40.13,40.13,0,0,1-7,8.78A6.59,6.59,0,0,1,85,45.22,44.39,44.39,0,0,1,69.72,50a4.13,4.13,0,0,1-4.35-1.86,22.42,22.42,0,0,1,1.42-2,23,23,0,0,1,4.65-4.11l.41-.29c1.53-1.24,1.61-1.31.88-3.09A9,9,0,0,1,73,30.65c.16-.31.14-.32-.29-1-1.59,1.36-1.81,3.27-2.07,5.1s.61,3.7,1.54,5.5c-.52.41-1.05.81-1.56,1.23-1.47,1.21-3,2.37-4.39,3.65a18.23,18.23,0,0,0-1.77,2.21,6.19,6.19,0,0,1-1.18,1.35C61.48,49.82,59.68,51,57.84,52a31.77,31.77,0,0,1-6,2.61,79.74,79.74,0,0,1-8.11,2.61,3.49,3.49,0,0,0-.9.46,116.08,116.08,0,0,1-16.29,7.43,12.58,12.58,0,0,1-5.76.88A7.3,7.3,0,0,1,19,65.6c-2-.76-2.87-2.62-1.3-4.73a16.33,16.33,0,0,1,4.6-4.13c1.57-1,3.22-1.8,4.91-2.73-1.4-.66-2.81-1.22-4.11-2s-2.5-1.69-3.77-2.56l-4.27,2.63a40.69,40.69,0,0,1-7.22,3.56,8.94,8.94,0,0,1-5.09.54,3.63,3.63,0,0,1-2.1-1.28,2.34,2.34,0,0,1,0-3.34A17.25,17.25,0,0,1,5.36,48c3-1.66,6-3.3,9-5,.25-.13.48-.29.77-.46-.74-3.85.64-7.12,2.86-10.12,1-1.34,2.17-2.57,3.21-3.88a4,4,0,0,0,.78-1.44,15.24,15.24,0,0,1,4.23-7.49c1.06-1,1.57-1.05,2.64,0a12.2,12.2,0,0,1,2.83,5.46,2.67,2.67,0,0,0,2.46,2.08c1.37.24,2.74.49,4.08.84a3.42,3.42,0,0,0,3.16-.5C43.08,26.29,44.91,25.12,46.86,23.79ZM31.35,40.57a2.91,2.91,0,1,0,2.8-3A2.7,2.7,0,0,0,31.35,40.57Zm-7.46-7c-1.51-.26-2.66,1.35-2.76,2.76a3.31,3.31,0,0,0,3.3,3.32,3.15,3.15,0,0,0,2.87-3C27.32,35.19,25.61,33.64,23.89,33.59Zm5.31-4.85c.33-.35.45-.42.47-.51.33-2-.52-3.7-1.5-5.33-.39-.64-1-.6-1.48.12-.7,1.13-1.27,2.33-1.87,3.52-.19.36-.27.78.2,1s.75-.09.93-.46c.29-.59.54-1.22.82-1.82.2-.44.43-.88.7-1.41C28.29,25.42,28.37,27.13,29.2,28.74Zm12.87.69c.75.72.78.75,1.14.47.6-.47,1.15-1,1.81-1.54-.3,2.73-.29,3.14.12,3.89a2.28,2.28,0,0,0,.73-1.64,19.64,19.64,0,0,0-.14-3c-.08-.47-.71-.6-1.12-.3C43.74,28,42.92,28.71,42.07,29.43Z"/><path d="M35.83,40.49A1.5,1.5,0,0,1,34.08,42a1.66,1.66,0,0,1-1.56-1.63,1.75,1.75,0,0,1,1.82-1.58A1.52,1.52,0,0,1,35.83,40.49Z"/><path d="M25.67,36.63c0,1.13-.6,1.78-1.57,1.76a2,2,0,0,1-1.84-2.18A1.51,1.51,0,0,1,24,34.74,1.79,1.79,0,0,1,25.67,36.63Z"/></g></g></svg>