<svg xmlns="http://www.w3.org/2000/svg" xmlns:xlink="http://www.w3.org/1999/xlink" viewBox="0 0 100 100" version="1.1"><g transform="translate(1, 3.274261608665647) scale(0.049166994911545144) translate(2.402344, -33.046875)"><path style=" stroke:none;fill-rule:nonzero;fill:rgb(0%,0%,0%);fill-opacity:1;" d="M 225 381 C 220.679688 379.234375 216.652344 377.628906 212 377 C 216.496094 386.695313 226.601563 392.664063 234 400 C 228.992188 398.054688 224.269531 395.015625 219 394 C 224.539063 410.289063 245.5 418.296875 254 433 C 249.273438 430.300781 244.226563 427.535156 239 426 C 245 438 258.613281 447.613281 268 457 C 261.863281 455.539063 257.382813 452.0625 252 449 C 259.527344 466.441406 275.65625 472.757813 287 486 C 283.632813 485.199219 280.453125 485.011719 277 485 C 280.769531 489.65625 286.207031 492.410156 290 497 C 274 499.695313 317.9375 519.082031 297 515 C 299.980469 521.113281 306.984375 525.15625 313 528 L 313 529 C 309.4375 528.554688 306.363281 527.210938 303 526 C 306.90625 533.46875 315 537.300781 321 543 C 312.375 543.101563 315.34375 547.195313 321 551 C 328.3125 555.734375 336.714844 560.179688 345 563 L 345 564 C 329.199219 568 352.976563 577.640625 357 585 C 351.921875 582.816406 346.34375 581.429688 341 580 C 345.441406 595.828125 374 603.710938 388 608.332031 C 429.371094 622.128906 469.753906 641.046875 513 648.285156 C 522.355469 650 533.710938 654.546875 543 654 C 529.304688 634.558594 506.792969 622.445313 490 606 C 524 624.179688 556.429688 643.261719 592 659 C 600.269531 662.488281 608.710938 665.683594 617 669.28125 C 619.550781 670.386719 624 671.511719 623.46875 675.109375 C 620.238281 692.28125 602.515625 685.304688 591 683 C 559.835938 676.769531 529.566406 668.257813 499 659.714844 C 456.664063 648 416.171875 628.753906 375 613.53125 C 322 594 267.238281 579.257813 214 560.308594 C 180.359375 548.335938 147.703125 532.308594 114 521 C 117.34375 525.78125 124 528.351563 129 531.226563 C 139.859375 537.496094 150.875 543.46875 162 549.253906 C 207.738281 573.042969 256.714844 591.277344 306 606.277344 C 321 611 336 615.355469 351 620.332031 C 357.632813 622.542969 365.960938 624 371 629 C 364.199219 629.140625 351.660156 630.714844 348 637 C 355 637.582031 361.539063 640.300781 366 646 C 355.433594 644.257813 344.914063 647.542969 334 645.574219 C 276.480469 635.203125 219 618 164 598.308594 C 130.8125 586.507813 98 573.695313 65 561.46875 C 53.269531 557.128906 41.285156 549.191406 29 547 C 38.992188 560 60.644531 569 75 576.257813 C 113.902344 596.339844 154.414063 613.683594 196 627.492188 C 236.871094 641.066406 277.523438 653.726563 320 661.386719 C 365.484375 669.585938 412.171875 673.109375 458 679.28125 C 508.453125 686.078125 558.429688 699.53125 609 704.828125 C 647.28125 709 685.609375 706 724 706 C 721.261719 702.121094 714.488281 702.097656 710 701.261719 C 697.640625 699 685.261719 696.660156 673 694 C 669.773438 693.148438 658.570313 692.671875 657.730469 688.695313 C 656.601563 683.347656 667.675781 673.425781 671 670 C 686.507813 654.117188 704.851563 640.390625 726 633 C 773.523438 616.394531 824.355469 618.453125 872 634.332031 C 894.96875 642 918.65625 654 933.214844 674 C 950.890625 698.394531 949.613281 735.390625 926 755.699219 C 910.960938 768.636719 891 774 876 786.753906 C 851.984375 807.285156 844.894531 842.757813 814 856.6875 C 798.824219 863.527344 782.402344 858.476563 767 855.285156 C 751.503906 852.074219 735.84375 850.34375 720 851.039063 C 690 852.347656 663.769531 864.273438 636 873.773438 C 622.515625 878.382813 607.75 881.246094 594 885 L 594 886 C 600 886 606.347656 885.28125 612 888 C 600 892 588.800781 897.695313 578 904 L 578 905 C 589.691406 905 601.40625 903 613 905 L 613 906 C 602.257813 909.09375 592.328125 915.6875 582 920 C 568.378906 925.65625 553 929.445313 540 936 L 540 937 C 551.699219 937 563.589844 938 575 935 C 568.25 944.574219 557.535156 951 548 957.34375 C 522.804688 974.488281 499.835938 986 469 986 L 469 985 C 482 983.066406 495.257813 975.695313 506 968.28125 C 510 965.488281 514.691406 963.445313 517 959 C 503 959.601563 489.996094 960.601563 476 960 L 476 959 C 487.757813 954.609375 498.9375 949.675781 510 943.691406 C 514.347656 941.339844 520.261719 939.179688 523 935 C 508.414063 935.628906 493.625 938.546875 479 937 L 479 936 C 494.78125 932.742188 515.480469 925.375 528 915 C 521 913.261719 512 916 505 916.714844 C 493.429688 918.078125 481.648438 918 470 918 L 470 917 C 487.375 911.132813 505.773438 904.550781 522 896 L 522 895 C 498.984375 895.191406 476 901 453 901 L 453 900 C 478 893.140625 502.59375 882.101563 527 873 L 527 872 C 498.835938 872.078125 469.445313 880 442 885.789063 C 399.835938 894.757813 357.820313 904.019531 316 914.472656 C 296.386719 919.378906 257 924.695313 250 947 C 254.835938 946.140625 259 943.734375 264 943 C 259 953.355469 250.601563 962.640625 248 974 C 254.328125 970.34375 259 964.628906 266 962 C 258.980469 971 251.175781 981.003906 248 992 C 254.324219 988.175781 259.835938 983.074219 266 979 C 262.550781 988 254.746094 995.3125 253 1005 C 260.257813 1002 266.863281 997.332031 274 994 C 267 1007.609375 254.566406 1018.117188 248 1032 L 263 1032 C 253.199219 1040.566406 246 1049.472656 246 1063 L 247 1063 C 252.992188 1054.230469 259 1050.25 269 1047 C 265 1056.414063 257.796875 1064 255 1074 C 260.804688 1072.074219 264.996094 1067.550781 271 1066 C 266.628906 1071.371094 262 1076.597656 257.753906 1082 C 256.601563 1083.4375 253.625 1086.222656 254.460938 1088.355469 C 255.871094 1092 266.75 1084.496094 266.539063 1089.332031 C 266.203125 1097.074219 254.632813 1104.527344 253 1113 C 260.910156 1110.722656 267.542969 1106.367188 276 1106 C 268.996094 1113.316406 257.917969 1124.132813 258 1135 C 264.859375 1131.195313 271 1127.695313 279 1127 C 273.847656 1140.285156 263.660156 1154.570313 263 1169 C 265.316406 1167.386719 279.191406 1155.257813 282.402344 1159.644531 C 283.546875 1161.203125 279 1167.433594 278.335938 1169 C 274.792969 1177.015625 273 1185.265625 273 1194 C 279 1189.667969 280.625 1181.828125 288 1178 C 284 1190 277.65625 1201.183594 277 1214 L 278 1214 C 281 1209.402344 284 1204.777344 289 1202 C 284.699219 1210.078125 281.90625 1221 281 1230 C 286.375 1227.492188 289.382813 1222.53125 294 1219 C 283.503906 1274.710938 266.460938 1328.5625 254.804688 1384 C 240.960938 1450 234.488281 1516.136719 229.910156 1583 C 225.808594 1643 225.617188 1705.617188 235.246094 1765 C 242 1807.398438 248.386719 1849.753906 264.203125 1890 C 270.453125 1906 278.964844 1926 297 1931 C 307.710938 1933.742188 318.957031 1929.628906 329 1926 C 355 1916.414063 379.171875 1898.53125 401 1882 C 448 1846 489.960938 1804.777344 532.910156 1764.183594 C 568.238281 1730.796875 604.621094 1698.378906 639 1664 C 638 1666.355469 637.425781 1668.53125 637 1671 C 648.285156 1663.28125 656.523438 1652.449219 667 1644 L 667 1648 C 676.207031 1643.339844 683.671875 1631.328125 691 1624 L 691 1631 C 698.269531 1627.34375 704 1619.632813 710 1614.039063 C 719.214844 1605.226563 728.976563 1597.023438 738 1588 C 737.9375 1591.078125 737.5625 1594 737 1597 C 747.542969 1592.050781 753.742188 1579 762 1571.105469 C 768.929688 1564.582031 778.191406 1562.515625 787 1560 C 791.730469 1558.433594 800.175781 1554.621094 804.910156 1557.042969 C 813.214844 1561.285156 813.921875 1573.566406 822 1578 C 818.890625 1562.351563 822.898438 1552.164063 829 1538 L 830 1538 C 833.277344 1551.613281 835.777344 1561.328125 848 1570 C 850.367188 1571.636719 855.324219 1576.191406 858.5 1574.746094 C 863.5625 1572.445313 863.261719 1555.097656 868.988281 1555.054688 C 871.351563 1555.039063 874.214844 1559 876 1560.214844 C 881.628906 1564.316406 888.304688 1568.070313 895 1570 C 892.914063 1561 889 1554.792969 889 1545 C 900 1553.550781 906.960938 1564.789063 921 1570 C 919.199219 1563.546875 914 1559 913 1552 C 921.476563 1560.78125 930.503906 1568.128906 943 1570 C 940.671875 1565.101563 938.257813 1560.296875 937 1555 C 940.597656 1556.675781 944.648438 1562 948.828125 1561.535156 C 953.273438 1561.066406 955 1554.671875 960 1555.175781 C 971.738281 1556.390625 969.886719 1566.242188 981 1555 C 981.902344 1560.773438 979.621094 1565 977 1570 C 988.894531 1568.363281 997.773438 1561 1007 1554 C 1006 1559.429688 1002.839844 1563.390625 1000 1568 C 1014 1565.46875 1020.601563 1554 1031 1546 C 1031 1556 1028.707031 1561.058594 1025 1570 C 1031.328125 1568.792969 1037.832031 1565 1042.996094 1561.074219 C 1044.6875 1559.824219 1048.355469 1555.132813 1050.671875 1555.628906 C 1056.679688 1557 1054.917969 1572.5 1061.273438 1574.667969 C 1064.445313 1575.75 1068.691406 1571.539063 1071 1570 C 1080.832031 1562.648438 1087.730469 1553.609375 1088 1541 C 1098.609375 1550.035156 1096.527344 1563.738281 1096 1576 C 1101.707031 1571.28125 1104.511719 1560.238281 1111.183594 1557.199219 C 1115.441406 1555.261719 1123.628906 1558.460938 1128 1559.425781 C 1137 1561.421875 1146.96875 1563.753906 1154 1570.105469 C 1163.414063 1578.609375 1169.699219 1593 1181 1599 C 1180.890625 1596.558594 1180.570313 1594.378906 1180 1592 C 1198.585938 1600.65625 1211.394531 1621.304688 1228 1633 C 1228.5625 1630.429688 1228.4375 1628.605469 1228 1626 C 1246 1641.820313 1262.253906 1660.027344 1283 1673 L 1282 1667 C 1321.492188 1706.492188 1362 1745.03125 1403 1783.089844 C 1439.941406 1817.5 1475.507813 1853 1516 1883.371094 C 1536.324219 1898.640625 1557.644531 1913.8125 1581 1924.136719 C 1593 1929.445313 1605.949219 1933.664063 1619 1930.074219 C 1636.515625 1925.25 1642.816406 1907 1649.542969 1892 C 1667.628906 1852 1674.464844 1804.269531 1680.425781 1761 C 1687.554688 1709.226563 1688.324219 1656.144531 1686 1604 C 1682.9375 1533.191406 1677.484375 1462.761719 1663.550781 1393 C 1657.257813 1361.492188 1650.492188 1330.066406 1642.265625 1299 C 1635.203125 1272.335938 1626.6875 1245.390625 1623 1218 C 1628.445313 1221.214844 1631.59375 1227 1637 1230 C 1636 1220.328125 1632.484375 1210.039063 1629 1201 C 1633.511719 1203.40625 1636.28125 1207.796875 1641 1210 C 1639 1198.46875 1634.4375 1188.660156 1630 1178 C 1636.972656 1181.617188 1639 1189 1645 1193 C 1645 1180 1640.914063 1168.378906 1633 1158 C 1642.828125 1158.449219 1647.84375 1164.773438 1656 1169 C 1651 1154.097656 1643.3125 1140.601563 1638 1126 C 1646 1128.769531 1653.339844 1131 1661 1135 C 1658.765625 1122.460938 1648.867188 1114.097656 1641 1105 C 1649.191406 1105.355469 1656.523438 1109 1664 1112 C 1662.253906 1102.316406 1654 1095.636719 1650 1087 C 1653.351563 1087.152344 1660.539063 1090.691406 1663.339844 1089.292969 C 1665.726563 1088.097656 1662.394531 1084.140625 1661.554688 1083 C 1657.417969 1077.375 1651.917969 1072.367188 1649 1066 C 1654 1068.050781 1658.796875 1071.277344 1664 1073 C 1661.761719 1063.476563 1653.277344 1055.082031 1648 1047 C 1657.253906 1051.007813 1663.527344 1057.15625 1672 1062 C 1671.300781 1048.363281 1662.355469 1041.242188 1655 1031 C 1660 1031.042969 1665 1032.789063 1670 1032 C 1662.398438 1018.785156 1650.824219 1007.699219 1644 994 C 1651.265625 996.753906 1657.28125 1002.175781 1664 1006 C 1663.804688 996.542969 1654.550781 987.550781 1651 979 C 1657 983.402344 1663 989.054688 1670 992 C 1666.796875 982 1659.519531 973 1654 964 C 1660 966.808594 1664.53125 972.164063 1670 976 C 1667.398438 964 1658.765625 952.828125 1653 942 C 1658.390625 942.796875 1662.871094 945.410156 1668 947 C 1661.980469 925 1620 918.324219 1601 914 C 1531.828125 897.820313 1462 876.613281 1391 871 L 1391 873 C 1417.304688 877.457031 1442.589844 892 1468 900 L 1468 901 C 1444.519531 901 1421.386719 895.195313 1398 895 L 1398 896 C 1415.171875 905.046875 1434.449219 909.234375 1452 917 C 1434.53125 921.160156 1412.832031 915.765625 1395 915 C 1397.652344 919.671875 1403.273438 921.371094 1408 923.539063 C 1419.382813 928.765625 1430.96875 932.585938 1443 936 L 1443 937 C 1428.539063 937 1414.351563 935.296875 1400 935 C 1407.660156 948.496094 1432 952.476563 1445 959 C 1430.839844 962.410156 1418 959.605469 1404 959 C 1412.222656 973.722656 1437.5 981.761719 1453 985 L 1453 986 C 1409.867188 986 1375.171875 963.714844 1344 935 C 1357 935.558594 1369.929688 938.617188 1383 937 L 1383 936 C 1357.652344 928.808594 1332.417969 917 1309 905 C 1320.496094 902.261719 1332.535156 904.519531 1344 906 C 1339.410156 898.617188 1326.664063 894.734375 1319 891.230469 C 1317.789063 890.679688 1310.992188 888.5 1312.207031 886.378906 C 1313.660156 884 1322.261719 885.753906 1325 885 L 1325 884 C 1312 878.25 1297.4375 877.664063 1284 873.328125 C 1256.613281 864.492188 1230.492188 851.144531 1201 851 C 1187.910156 851 1174.921875 851.042969 1162 853.460938 C 1146.460938 856.367188 1129.914063 862.769531 1114 859 C 1079.683594 850.746094 1069.539063 811.140625 1046.984375 789.039063 C 1027.851563 770.289063 997.390625 766.507813 983.335938 742 C 962.316406 705.339844 983.839844 666.21875 1018 647.628906 C 1069.902344 619.386719 1142.921875 610.375 1198 634 C 1217.898438 642.332031 1235 655.421875 1249.960938 671 C 1252.691406 674 1264.53125 685.019531 1261.976563 689.410156 C 1259.691406 693.335938 1248 693.480469 1244 694.339844 C 1227.535156 697.824219 1207.417969 698.496094 1192 705 L 1192 706 C 1225.644531 706 1260.472656 710.035156 1294 706.828125 C 1345 702 1395.242188 688.480469 1446 681.285156 C 1499.492188 673.703125 1553.941406 669.332031 1607 659.390625 C 1645.511719 652.171875 1682.898438 640.699219 1720 628.332031 C 1760.867188 614.710938 1800.777344 598.132813 1839 578.253906 C 1853.96875 570.46875 1876 561.109375 1887 548 C 1869.785156 552.078125 1852.527344 561.523438 1836 568 C 1802 581.308594 1767.785156 594.5 1733 605.65625 C 1684.882813 621.089844 1635.734375 636.238281 1586 645.539063 C 1574.726563 647.648438 1563.902344 643.402344 1553 646 C 1557.996094 639.273438 1564.511719 638.28125 1572 636 L 1572 635 C 1563 630 1554 629 1544 629 C 1561.316406 615.019531 1591 612.535156 1612 606 C 1657.355469 591.734375 1701.863281 575.5 1745 555.472656 C 1758.953125 549 1772.421875 541.433594 1786 534.21875 C 1791.433594 531.335938 1799.703125 528.300781 1803 523 C 1762 537 1721.863281 554 1681 568.308594 C 1631.351563 585.820313 1580.613281 600.035156 1531 617.691406 C 1493.828125 631 1457.582031 647 1420 659 C 1389.867188 668.648438 1359.265625 677.761719 1328 683.078125 C 1316.570313 685.023438 1308.367188 689.753906 1301.300781 679.015625 C 1300.171875 677.296875 1297.683594 675 1297.539063 673 C 1297.351563 670.03125 1302 668.695313 1304 667.742188 C 1311.527344 664.0625 1319.210938 660.691406 1327 657.601563 C 1360.9375 644.136719 1390.878906 626 1423 609 C 1409.902344 625.191406 1385 634.476563 1376 654 C 1427.988281 648.824219 1477 625.582031 1526 608.832031 C 1540 604 1570.582031 597.035156 1576 581 C 1570.820313 581.777344 1566.179688 584.222656 1561 585 C 1566 578 1577.398438 573.535156 1580 565 C 1567.886719 565.195313 1592 552.179688 1595.996094 549.519531 C 1601.90625 545.46875 1603.433594 542.03125 1595 543 C 1599.90625 537.058594 1607.433594 534.332031 1612 528 C 1609.304688 527.703125 1606.71875 528 1604 528 C 1606.90625 524.144531 1622.398438 517 1611 515 C 1615.378906 510.746094 1639.277344 498.714844 1626 495 C 1630 491.351563 1635.492188 489 1638 484 L 1630 484 C 1639.832031 472.519531 1655 466.355469 1661 451 C 1655.570313 452.40625 1651.433594 456.402344 1646 458 C 1654.265625 446.769531 1667.949219 439.054688 1674 426 C 1668.972656 427.59375 1664.757813 430.777344 1660 433 C 1669.414063 419.660156 1685.789063 410 1693 395 C 1688.34375 396 1684.53125 398.667969 1680 400 C 1686 392.488281 1694.390625 387 1700 379 C 1695.777344 379.371094 1692 381 1688 382 C 1701 356.464844 1725.71875 362 1750 362 L 1969 362 C 1973.882813 362 1985.5 364.386719 1986.773438 358 C 1988.9375 347 1978.476563 349 1971 349 C 1953.304688 349 1935.644531 349.792969 1918 350 C 1841.367188 351 1764.46875 350 1688 350 C 1666.722656 350 1645.222656 349.144531 1624 350.484375 C 1620.929688 350.679688 1604.660156 352.117188 1605.847656 347.65625 C 1610.25 331.105469 1622.726563 337 1636 333.761719 C 1642 332.269531 1646.945313 327.300781 1653 326.226563 C 1672.425781 322.789063 1695.253906 326 1715 326 L 1967 326 C 1971.324219 326 1982 328 1985.582031 324.730469 C 1989.644531 321.070313 1987 305.203125 1987 300 C 1987 276.429688 1990.804688 249.261719 1986.851563 226.058594 C 1985.800781 220 1975.601563 222 1971 222 L 1706 222 C 1702.285156 222 1693.664063 223.589844 1691 220.398438 C 1687.632813 216.328125 1688.476563 206.078125 1687.84375 201 C 1686.304688 188.617188 1683 175.394531 1677.90625 164 C 1671.3125 149.351563 1662 135 1650 124.183594 C 1644.308594 119.171875 1635.476563 116.109375 1630.5625 110.585938 C 1627.511719 107.152344 1626.753906 101.128906 1624.742188 97 C 1620.960938 89.238281 1615.792969 82.171875 1609.484375 76.269531 C 1590.46875 58.476563 1564.199219 53 1539 56.179688 C 1531.8125 57.125 1521.984375 63 1515 62 C 1508.257813 61 1500.808594 51.667969 1495 48.066406 C 1483.371094 41 1469.605469 36.488281 1456 35.171875 C 1434 33.046875 1410.589844 36.503906 1391 47 C 1382 51.636719 1370.351563 65.136719 1361 67 C 1355 68.066406 1347.984375 64.3125 1342 64.039063 C 1321.824219 63.121094 1303.644531 68.308594 1288 81.441406 C 1260.441406 104.570313 1245 140.628906 1237.574219 175 C 1235 186.574219 1233.292969 198.210938 1232.171875 210 C 1231.816406 213.707031 1233 219.542969 1228.851563 221.398438 C 1225 223.066406 1219 222 1215 222 L 818 222 C 776.246094 222 732.578125 225.722656 691 222 C 683 221.214844 684.691406 198.671875 683.730469 192 C 679.402344 162 670 129.8125 651.972656 105 C 637.300781 85 616 66 590 64.089844 C 580 63.398438 564.78125 69.359375 556 66.5 C 546.617188 63.441406 537.890625 53.503906 529 48.78125 C 507.222656 37.214844 484.496094 33.402344 460 35.089844 C 446.996094 36 432 40.550781 421 47.542969 C 415 51.347656 407.742188 59.46875 401 61.292969 C 395.3125 62.832031 385.757813 57.683594 380 56.515625 C 369.585938 54.398438 358.441406 54.507813 348 56.320313 C 326.523438 60.050781 307.589844 71 295 89 C 290.589844 95.40625 289.476563 105 284.351563 110.585938 C 275.253906 120.546875 262 126 252.925781 137 C 239 153.699219 231.632813 175.070313 227.210938 196 C 226 201.542969 227.519531 219 221.851563 221.398438 C 217.789063 223.171875 211.359375 222 207 222 L 16 222 C 12.167969 222 4.996094 220.621094 1.601563 222.601563 C -2.402344 225 0 241.714844 0 246 L 0 302 C 0 307.648438 -2.273438 319.472656 0.601563 324.398438 C 2.644531 328 14.445313 326 18 326 L 246 326 C 251 326 257 325.101563 262 326.511719 C 271.304688 329.1875 277.699219 336 288 336.828125 C 292.6875 337.273438 302.714844 333 305.609375 337.191406 C 306.855469 339.0625 311.640625 346.808594 310 348.820313 C 308 351.113281 298.871094 350.714844 296 351 C 281.5625 352 266.539063 350 252 350 L 19 350 C 14.378906 350 5.710938 347.207031 1.601563 349.601563 C -0.929688 351.082031 -0.496094 358.289063 0.316406 360.679688 C 1.527344 364.230469 10.9375 362 14 362 L 163 362 C 175.84375 362 195.96875 358.144531 208 362.601563 C 214.71875 365.09375 221 375.296875 225 381 M 574 149 C 574 137.082031 570.671875 120.578125 577.992188 110.175781 C 583 103 591.585938 103.421875 599 106.089844 C 613.628906 111.355469 623.738281 124.511719 631.996094 137 C 652.628906 168.199219 657.484375 208.589844 653.925781 245 C 652.558594 259 647.460938 276.378906 637.535156 286.699219 C 632 292.382813 622.40625 296.527344 615.1875 291.261719 C 607 285.355469 610 270.601563 608.335938 262 C 604 240.613281 597 206.226563 579 192 C 580.761719 206 580 220.015625 581 234 C 583.449219 268.464844 585.417969 306.710938 571 339 C 565.351563 352.085938 555.804688 365.796875 542 371.035156 C 536.460938 373.136719 528.238281 374.703125 523.28125 370.347656 C 516.292969 364.203125 523.324219 342.429688 523.546875 334 C 524.292969 305.390625 515.714844 279.777344 507 253 L 506 253 C 504 261.046875 504.710938 269.765625 503.574219 278 C 500.789063 298.234375 497 318.117188 492.496094 338 C 489.230469 352.15625 484.613281 369.046875 473 378.671875 C 454 394.292969 433 381.75 423.320313 363 C 411 339.808594 408.609375 311.335938 403.550781 286 C 400.765625 272.042969 396 257.257813 396 243 C 389.847656 248.664063 387.714844 261 386 269 C 381.398438 290.449219 379 311.109375 381 333 C 381.847656 341.285156 389.589844 358.609375 384.257813 365.773438 C 380.582031 370.714844 373.28125 370.28125 368 369 C 354 365.457031 346 350.300781 341.203125 338 C 324.925781 297 333.800781 250.167969 340 208 C 325.429688 220 314.21875 242.265625 308.773438 260 C 305.890625 269.394531 307.585938 286.070313 296.996094 290.386719 C 285.925781 295 276.230469 284.230469 270.671875 276 C 256.96875 255.710938 252.402344 230 256.613281 206 C 260.660156 183 270.933594 159.808594 291 146.359375 C 297.71875 142 307.703125 142 313.6875 137.144531 C 318.238281 133.515625 317.890625 124.199219 319.441406 119 C 322.179688 109.8125 327.855469 101.703125 336 96.558594 C 344.988281 91 356.664063 89.480469 367 90.714844 C 411.851563 96.074219 431.402344 139.351563 444 178 C 446.257813 170.148438 442.339844 160.042969 441.28125 152 C 438.882813 133.742188 436.558594 114 442 96 C 454.925781 53.824219 510.96875 70.683594 533.910156 92.285156 C 541.25 99.199219 547.410156 107.652344 553 116 C 559.964844 126.402344 565 140.214844 574 149 M 1471 181 L 1472 181 C 1485.304688 141.613281 1505.25 83.394531 1558 90.574219 C 1565.445313 91.589844 1572.601563 93 1579 97.105469 C 1587.882813 103.003906 1593 112.011719 1596 122 C 1597.410156 126.230469 1597.46875 134.21875 1600.597656 137.410156 C 1605.574219 142.484375 1618.472656 143 1625 147.359375 C 1642.683594 159.300781 1654.226563 182.285156 1657.5625 203 C 1661.464844 227.246094 1658.21875 254.027344 1644.78125 275 C 1639.632813 283.035156 1630 294.550781 1619 290.257813 C 1609.597656 286.605469 1610.195313 268.433594 1607.726563 260 C 1602.550781 242.339844 1590 218.058594 1575 207 C 1587.476563 245.351563 1591.710938 297.777344 1577.1875 336 C 1572.640625 348 1553.6875 382.65625 1536 367.566406 C 1527.714844 360.308594 1536.929688 338.425781 1537.828125 329 C 1540.597656 300.035156 1534 270.027344 1524 243 L 1523 243 C 1515.609375 273.675781 1512.574219 305.34375 1504.871094 336 C 1501 351.003906 1496.207031 369 1483.910156 379.179688 C 1467.265625 393.1875 1445.691406 383.640625 1436.808594 366 C 1429.425781 351.335938 1426.738281 335 1423.550781 319 C 1419.292969 297.710938 1414 275.777344 1414 254 C 1409 259.039063 1407.457031 268.378906 1405.34375 275 C 1398.644531 296 1396.894531 317.117188 1397 339 C 1397 346.738281 1402.453125 360 1398.816406 367 C 1395.78125 372.785156 1387.722656 373.542969 1382 372.332031 C 1368.582031 369.488281 1359.207031 358.515625 1352.863281 347 C 1333.8125 312.410156 1338.996094 273.734375 1339 236 C 1339 225.65625 1340 215.382813 1340 205 C 1340 203 1341.191406 195.5625 1339.324219 194.207031 C 1337.820313 193.117188 1335.449219 198.179688 1334.9375 199.003906 C 1331 205.113281 1327.867188 211.476563 1324.835938 218 C 1318.347656 232 1313.984375 246.796875 1311.589844 262 C 1310.386719 269.65625 1311.40625 279.710938 1308.261719 286.824219 C 1306 291.578125 1299.90625 294.03125 1295 294 C 1276.375 293.246094 1268 265.636719 1265.199219 251 C 1256.566406 207.566406 1268.914063 154.433594 1298.285156 121 C 1305.734375 112.519531 1324.953125 96.800781 1336.894531 106.433594 C 1347.777344 115.214844 1345 138.1875 1342 150 C 1349.691406 146.003906 1354 132.378906 1358.425781 125 C 1367.246094 109.800781 1376.871094 96.035156 1391 85.234375 C 1398.433594 79.554688 1406.988281 75.117188 1416 72.558594 C 1422.75 70.640625 1429.992188 69.730469 1437 70.039063 C 1441.675781 70.246094 1446.554688 71.289063 1451 72.75 C 1493.832031 86.8125 1472.355469 149.523438 1471 181 M 658 326.597656 C 670.496094 322.160156 690.726563 326 704 326 L 1227 326 C 1235.976563 326 1247.28125 324.148438 1256 326.316406 C 1263.496094 328.183594 1270 335.414063 1278 338 C 1284.214844 340.042969 1290.507813 341.125 1297 340 C 1300.492188 339.246094 1305.265625 336.121094 1308.785156 337 C 1311.71875 337.609375 1316.910156 346.480469 1314.289063 349 C 1312 351.121094 1305.855469 350 1303 350 L 732 350 C 699.332031 350 666.664063 350 634 350 C 626.878906 350.011719 619 349.472656 612 350.285156 C 609.996094 350.519531 604.78125 352.105469 603.734375 349.398438 C 602.628906 346.527344 607.269531 337.648438 610.226563 337 C 615.863281 335.558594 622.71875 340.519531 629 339.558594 C 640.492188 337.808594 647.726563 330.25 658 326.597656 M 993 427 C 1000.992188 420.734375 1013.882813 416.015625 1024 415 C 1022.222656 419.597656 1019 423.183594 1016 427 C 1023.644531 426.394531 1031.429688 426.171875 1039 425 C 1041 424.566406 1046.28125 422.769531 1048.171875 424.3125 C 1051.367188 427 1042 432.640625 1046.425781 435.4375 C 1054.238281 440.453125 1068.996094 436.339844 1078 439 C 1076.1875 441.140625 1074.367188 442.472656 1072 444 C 1081.71875 446.339844 1092 448.210938 1102 449 C 1100.855469 451.449219 1096 455.382813 1096 458 C 1096 460.132813 1101.507813 460.339844 1103 460.574219 C 1110.238281 461.714844 1117.667969 463 1125 463 C 1123.214844 467.011719 1120.324219 470.28125 1118 474 C 1130.820313 474 1143.257813 472.546875 1156 472 C 1154.355469 475.550781 1145.769531 482.617188 1146.628906 486.398438 C 1147.210938 489 1154 488.03125 1156 488 C 1165.734375 487.746094 1175.433594 485.40625 1185 484 C 1181.59375 491.300781 1173.65625 496.378906 1168 502 C 1185.996094 506.285156 1202.253906 501.546875 1220 500 C 1214.460938 509.332031 1204 515 1197 523 C 1213.71875 522.65625 1229.582031 519.339844 1246 518 C 1238.964844 527.171875 1227 532 1220 541 C 1234.355469 536.449219 1249.511719 536.707031 1264 533 C 1273.652344 530.269531 1281 524.769531 1290 521 C 1283.757813 537.25 1261.542969 552.304688 1246 559 L 1246 560 C 1270.707031 564 1297 553.621094 1320 547 C 1310.269531 563.109375 1285.972656 574.414063 1269 581 L 1269 582 C 1294.484375 582 1314.917969 571.515625 1338 563 C 1324.804688 581.34375 1297.902344 587.726563 1284 605 C 1309.878906 601.730469 1334.242188 597.453125 1358 586 C 1368.449219 580.808594 1376.582031 571.644531 1387 567 C 1375 590 1345.234375 601 1329 620 C 1342.832031 616.105469 1357 614.382813 1371 610.574219 C 1380.28125 608.023438 1388.820313 603.625 1398 601 C 1393.53125 608.601563 1382.488281 613 1375 617.011719 C 1354.765625 628.226563 1333.683594 637.585938 1312 645.679688 C 1305.34375 648.164063 1292 657.539063 1285 655.351563 C 1280.597656 654 1277.257813 649.109375 1274 646.089844 C 1267.847656 640.390625 1260.890625 635 1254 630.203125 C 1231.261719 614.421875 1200.671875 599.085938 1173 595 C 1175.714844 590.703125 1180.417969 589 1185 587 C 1178.710938 584 1172.796875 584.402344 1166 584 C 1158.761719 583.226563 1152.167969 579.578125 1145 580.089844 C 1129.917969 581.164063 1117.964844 590.789063 1104 595.253906 C 1085.546875 601.152344 1060.355469 605.378906 1041 605.605469 C 1032.941406 605.703125 1022.59375 598 1015 595.0625 C 1000.238281 589.464844 984.707031 586.164063 969 585.089844 C 949.457031 583.75 929.433594 587 911 593.34375 C 902 596.472656 890.328125 605.414063 881 605.386719 C 872 605.359375 862.796875 602.625 854 601.425781 C 839.558594 599.453125 824.980469 598.574219 811 594.113281 C 800.742188 591 791.839844 584.023438 781 582.296875 C 765.648438 580 749.648438 585.328125 734 586 C 737.460938 590.066406 742.539063 592 746 596 C 719.964844 604.238281 694 611.636719 671 627.21875 C 662.445313 633.011719 654.316406 639.71875 647 647 C 643.800781 650.1875 639.808594 656 635 656.496094 C 626.238281 657.601563 612 648.207031 604 645.0625 C 574 633.464844 547 618.539063 519 603 L 519 602 C 528 603 537.277344 608.277344 546 611 C 560.285156 615.390625 576.304688 618.511719 591 621 C 572.597656 604.097656 544.214844 589.425781 532 567 C 539.335938 571.582031 545.472656 577.796875 553 582.128906 C 576.988281 596 606.183594 605 634 605 C 618.667969 588.269531 592.589844 582 579 563 C 600 570.785156 625.175781 586.179688 649 581 C 631.566406 571.078125 610 564.171875 598 547 C 605.214844 548.652344 611.75 553 619 555 C 635.691406 559.617188 656.742188 562.125 674 561 C 658.277344 549.773438 637.195313 542 629 523 C 634.269531 525.214844 638.59375 529.1875 644 531.1875 C 658.886719 536.699219 683.183594 540.660156 699 540 C 689.265625 533.433594 677.453125 527.214844 670 518 C 686.675781 519.457031 702.992188 523 720 523 L 720 522 C 710.914063 517.679688 699.671875 509.003906 695 500 C 708.867188 502.355469 721.710938 505.300781 736 503.425781 C 737.996094 503.160156 746.789063 504 747.367188 501.484375 C 748.222656 498 733.90625 488.074219 732 484 C 745.886719 487 758.820313 488 773 488 C 769 482.351563 762.941406 478.304688 760 472 C 773.339844 472.109375 786.566406 474 800 474 C 796.589844 470.160156 792.257813 467.742188 790 463 C 801.820313 462.492188 814.503906 460.832031 826 458 C 823.667969 456.457031 816.207031 453.28125 816.207031 450.015625 C 816.207031 447.699219 821.492188 447.632813 823 447.425781 C 830.863281 446.335938 839 445.023438 847 445 C 844.46875 442.589844 841.714844 441.113281 840 438 C 848.640625 438 857.421875 437.730469 866 436.714844 C 867.910156 436.488281 873.738281 436.621094 874.539063 434.398438 C 875.542969 431.609375 870.261719 426.441406 869 424 C 880.667969 424.5 892.246094 427.3125 904 426 L 894 414 C 905.425781 416 916.960938 421.4375 927 427 C 925.355469 421.238281 922.464844 416.078125 924 410 C 933 415.6875 937.988281 423 949 420.113281 C 952.460938 419.234375 955 414.507813 958.789063 415.058594 C 961.648438 415.480469 962.890625 419.089844 965.757813 419.777344 C 968.605469 420.460938 971.578125 417.078125 974 418.300781 C 976.257813 419.296875 976.265625 422.648438 979 422.539063 C 983.980469 422.351563 990.769531 410.046875 995.226563 412.332031 C 998.886719 414.207031 993.277344 424.296875 993 427 M 1388 565.332031 C 1388.773438 565.332031 1388 565.832031 1387.667969 565.667969 L 1388 565.332031 M 1424 608 L 1423 609 L 1424 608 M 915 621 C 918.335938 616.128906 927.464844 615.128906 933 614.003906 C 950 610.527344 967.855469 610.183594 985 613.664063 C 988.90625 614.457031 1002.824219 615.660156 1004.652344 619.621094 C 1005.996094 622.523438 996.769531 625.484375 995 626.269531 C 986.472656 630.054688 978 633.648438 970 638.449219 C 966.199219 640.722656 962.601563 643.695313 958 642 C 943.328125 636.003906 930.601563 624.703125 915 621 M 21 652 L 21 653 C 39.550781 665.234375 61.421875 673.117188 82 681.203125 C 131.238281 700.546875 183 714 235 723.609375 C 265.804688 729.382813 298.585938 737.738281 330 738 L 330 740 C 323.519531 740.019531 313.925781 740.0625 310 746 C 327.515625 743.785156 345.5625 746.796875 363 749 L 363 750 C 350.394531 750 334 744.730469 322 749.132813 C 308.542969 754.050781 303.402344 767.636719 288 767 C 220.402344 764 150.484375 747.6875 85 731.527344 C 62.8125 726.050781 40.421875 716.8125 18 713 L 18 714 C 46.816406 730.398438 81.484375 740.378906 113 750.191406 C 165.535156 766.550781 221.757813 781.539063 277 784 C 295.742188 784.78125 313.488281 781.15625 332 779.164063 C 354.648438 776.734375 377.34375 775.324219 400 773.171875 C 480 765.550781 560.75 760.4375 641 755 C 668.820313 753 697.179688 746.078125 725 746 C 720.914063 740.636719 708.234375 742.339844 702 742 C 682.285156 740.558594 662.773438 738.828125 643 738 C 582.519531 735.3125 520.917969 733.730469 461 724 C 447 721.636719 432.941406 720.199219 419 718 C 412.777344 717 405.960938 717.371094 401 713 C 450.21875 717 499.671875 718 549 720.039063 C 574.8125 721.171875 604.46875 724.738281 630 720 L 630 719 C 607.59375 717.230469 585 711.371094 563 707.464844 C 521.769531 700.175781 480.304688 694 439 686.75 C 404.402344 680.738281 367.914063 671 334 684 L 334 685 C 336.40625 686 348.945313 688 348.945313 691 C 348.945313 693.089844 341.53125 694.015625 340 694.449219 C 331.949219 696.738281 320.851563 699.824219 315 706 C 323.742188 708.660156 331.671875 710 339 716 C 311.574219 719.464844 283 713.800781 256 709.285156 C 204.476563 700.679688 153.460938 689.5 103 676 C 76 668.546875 48.492188 656.65625 21 652 M 1580 715 L 1580 714 C 1585.273438 711.804688 1590.355469 708.550781 1596 707.378906 C 1597.726563 707.019531 1601.707031 707.449219 1602.652344 705.527344 C 1603.976563 703 1596.515625 700.808594 1595 700.199219 C 1585.734375 696.476563 1576.820313 694 1567 692 L 1567 691 C 1574 689.351563 1580.734375 686.070313 1588 685 L 1588 684 C 1556.4375 668.15625 1513.699219 679.363281 1481 686.339844 C 1418.296875 699.714844 1353.234375 703.667969 1291 719 L 1291 720 C 1310 723.523438 1332.578125 720.394531 1352 720.015625 C 1408.363281 719 1464.691406 713 1521 713 L 1521 714 C 1501.902344 719 1481.539063 720.648438 1462 723.28125 C 1406.808594 730.71875 1351.546875 734.527344 1296 737 C 1270.59375 738.074219 1245.296875 738.726563 1220 741.714844 C 1211 742.773438 1201.6875 742.253906 1193 745 L 1193 746 C 1219.371094 747.132813 1245.648438 752.105469 1272 754 C 1356.367188 759.6875 1440.625 767.304688 1525 773.089844 C 1563.269531 775.714844 1602.699219 785.636719 1641 784 C 1725.753906 780.25 1815.769531 752.121094 1892 716 L 1892 715 C 1872.410156 718 1853.300781 726.527344 1834 731.117188 C 1780.3125 744 1726 756.648438 1671 762.167969 C 1656 763.660156 1640.953125 767.511719 1626 767.605469 C 1616 767.667969 1608.636719 752.785156 1599 749.386719 C 1585.359375 744.574219 1569 750 1555 750 L 1555 749 C 1567.304688 747.445313 1579.609375 745.582031 1592 745.039063 C 1596.796875 744.828125 1603 746.496094 1606 742 C 1599.265625 741.710938 1592.777344 740.019531 1586 740 L 1586 738 C 1660.636719 732.109375 1737.488281 715.789063 1808 690.691406 C 1836.199219 680.65625 1865 670.148438 1891 655 C 1884.175781 652.578125 1872.71875 658.8125 1866 661 C 1845.742188 667.035156 1825.402344 673 1805 678.574219 C 1754.429688 692.632813 1702 704.4375 1650 711.28125 C 1627.308594 714.265625 1602.707031 720.46875 1580 715 M 1276 776 L 1276 777 C 1311.253906 779.785156 1346.980469 787.570313 1382 792.726563 C 1440.894531 801.40625 1499.566406 808.761719 1558 820.449219 C 1588.324219 826.515625 1618.394531 837.8125 1649 842 C 1718.964844 851.046875 1789.835938 847.015625 1860 844 L 1860 842 C 1829.289063 842 1798.605469 838.1875 1768 836.089844 C 1728.429688 833.378906 1688.300781 830.585938 1649 825 C 1635.632813 823 1626.691406 811.195313 1613 810 L 1613 809 C 1621.226563 807.472656 1629.660156 808 1638 808 C 1613 785.453125 1575.816406 788.761719 1545 785.828125 C 1486.894531 780.300781 1428.230469 779 1370 775 C 1347.546875 773.371094 1324.433594 772.371094 1302 774 C 1293.652344 774.484375 1284 773.632813 1276 776 M 281 809 C 288 809.785156 295.777344 809 303 809 C 287.476563 826.789063 255.296875 825.761719 234 828.285156 C 194.8125 833 155.339844 836.199219 116 839 C 97.925781 840.15625 75.277344 838 58 843 L 58 844 C 127.421875 849.480469 199.800781 851.039063 269 841.71875 C 314.917969 835.53125 360.28125 820.667969 406 812.425781 C 466.609375 801.496094 528 795 589 786.710938 C 607 784.269531 624.910156 779.4375 643 777 C 637.515625 773 627.625 775.363281 621 775 C 600.410156 773.5 579.589844 773.5 559 775 C 493.394531 779.402344 427.609375 782.417969 362 787 C 336.355469 788.667969 300.167969 788.25 281 809 M 274 856 C 276.300781 856.5 283.609375 855.0625 284.792969 857.433594 C 286 860 279.421875 864 278 865.171875 C 271.652344 871 264.664063 879.378906 263 888 C 270 884.316406 276 881.632813 284 881 C 274.636719 893.1875 262.722656 902.785156 256 917 L 267 912 C 266 914.511719 255.257813 927.007813 258.621094 928.171875 C 263.429688 930 279 921.261719 284 919.308594 C 303.761719 911.40625 325.386719 904.378906 346 899.128906 C 432.289063 877.140625 518.527344 856 606 839 L 606 838 L 533 839 L 533 838 C 547.535156 836.730469 562.804688 830.390625 577 827 L 577 826 L 540 822 L 540 821 C 586.867188 815.074219 635.261719 811 681 798.292969 C 693.644531 794.796875 713.457031 794 724 786 C 716.710938 784 707.640625 786 700 786 C 675.351563 786 651.410156 790.351563 627 792.828125 C 580.605469 797.542969 534.246094 805.488281 488 811.71875 C 451 816.6875 413.585938 820.019531 377 827 C 353.398438 831.503906 329.378906 833.679688 306 839.527344 C 294.429688 842.417969 281.402344 846 274 856 M 1193 786 C 1206.351563 794.152344 1229.644531 796.15625 1245 799.652344 C 1274.480469 806.355469 1304 810.046875 1334 814.285156 C 1349 816.414063 1363.808594 820.347656 1379 821 L 1379 822 C 1366.964844 825 1353.339844 825 1341 825 L 1341 826 C 1355.746094 830.675781 1371.214844 833.304688 1386 838 L 1386 839 L 1314 838 L 1314 839 C 1389.65625 853.671875 1465.726563 868.773438 1540 889.425781 C 1567.929688 897.191406 1595.554688 905.652344 1623 915.003906 C 1635.554688 919.28125 1648.179688 926 1661 929 C 1658 922.769531 1653.433594 917.417969 1651 911 L 1660 917 C 1657.296875 901.832031 1643.375 892 1635 880 C 1642.1875 881.773438 1648 884.421875 1655 887 C 1651.859375 873.636719 1638.199219 866 1630 856 C 1634 856 1637.984375 856.042969 1642 857 C 1638.695313 847.476563 1626.664063 844.191406 1618 841.144531 C 1592.898438 832.308594 1564.28125 829.621094 1538 826 C 1458.34375 815.027344 1378.769531 802.640625 1299 792.714844 C 1272.660156 789.4375 1246.585938 786.042969 1220 786 C 1211 786 1201.730469 783.417969 1193 786 M 904 809.238281 C 909.613281 808.648438 917.210938 813.25 923 813.828125 C 942.199219 815.75 963.738281 816.664063 983 814.828125 C 990.976563 814.070313 999.207031 814.167969 1007 812.074219 C 1010 811.269531 1014.648438 808.066406 1017.773438 809.289063 C 1026 812.578125 1019.300781 827.644531 1015.519531 831.699219 C 1004.953125 843.042969 985.460938 844.453125 971 845.828125 C 953.851563 847.460938 927.585938 845.679688 913 835.78125 C 906.917969 831.65625 900.96875 825.71875 900.199219 818 C 899.910156 815.082031 900.320313 809.648438 904 809.238281 M 1018 952 C 1021.601563 947.652344 1023.914063 942.765625 1029 940 C 1028.996094 948 1026.316406 954.359375 1025 962 C 1027.328125 959.363281 1028.359375 956.109375 1030 953 L 1031 953 C 1034.972656 966.441406 1035.203125 983 1037.273438 997 C 1044 1043.183594 1048.828125 1093 1067.863281 1136 C 1078.304688 1159.636719 1092.460938 1182.074219 1110 1201 C 1119.976563 1211.613281 1131.753906 1220 1142 1230 C 1138 1219.449219 1128.898438 1211.652344 1125 1201 C 1133.265625 1204.683594 1139.777344 1212.148438 1147 1217.523438 C 1159 1226.480469 1172.894531 1234.703125 1186 1242 C 1182.476563 1236 1176.566406 1231.621094 1174 1225 C 1207.597656 1247.132813 1237.566406 1267.136719 1258 1303 C 1244.3125 1296.65625 1233.402344 1282.632813 1221 1274 C 1233.710938 1295 1245.246094 1315.03125 1261 1334 C 1272.230469 1347.359375 1287 1359 1297 1373 C 1285.640625 1368.699219 1275.242188 1359.105469 1266 1351.414063 C 1245.871094 1334.660156 1227.894531 1316.152344 1210 1297 C 1204.183594 1290.644531 1199.988281 1282.15625 1193 1277 C 1199.871094 1307.058594 1210.625 1336.355469 1224.347656 1364 C 1232.324219 1380.0625 1243.917969 1396.292969 1250 1413 C 1238.625 1404.011719 1230.230469 1389.757813 1221.964844 1378 C 1205.851563 1355.082031 1191.839844 1330.804688 1177 1307 C 1168.683594 1293.496094 1161 1278.59375 1150 1267 C 1164.449219 1320 1184.847656 1375.335938 1185 1431 L 1184 1431 C 1177.890625 1395 1163.914063 1357.152344 1148.691406 1324 C 1140.964844 1307.171875 1129.300781 1291.316406 1123 1274 L 1122 1274 C 1124.8125 1308.429688 1137.976563 1342 1138 1377 L 1137 1377 C 1133.808594 1358.15625 1126 1339.808594 1119.425781 1322 C 1107.429688 1290.195313 1093.296875 1256.15625 1071 1230 C 1080.5 1275.445313 1096.703125 1318.46875 1102.285156 1365 C 1104.464844 1383.152344 1108.425781 1405.144531 1103 1423 L 1102 1423 C 1101.949219 1347.828125 1056.492188 1290.125 1029 1224 L 1028 1224 C 1029.625 1232.371094 1032.929688 1240.421875 1033 1249 C 1026.445313 1243.421875 1022.953125 1233.761719 1019.574219 1226 C 1012.421875 1209.554688 1001.578125 1190.054688 1000 1172 L 998 1172 C 998 1202 998 1232.152344 1000 1262 C 1001.246094 1279 1003.996094 1296.046875 1004 1313 L 1003 1313 C 991 1278.21875 983.578125 1235.734375 982 1199 L 981 1199 C 980.886719 1212.753906 980.726563 1227.351563 979 1241 L 978 1241 C 973 1221.714844 971.511719 1201.6875 969 1182 C 968 1173.28125 968.429688 1163.121094 965 1155 C 957.238281 1187.230469 958.402344 1223.066406 956.960938 1256 C 956 1277.269531 953 1298.710938 953 1320 L 952 1320 C 942.757813 1289.585938 944.238281 1255.351563 942 1224 C 941.476563 1215.039063 943 1205.800781 941 1197 L 940 1197 C 939 1219.632813 930.578125 1242 925.789063 1264 C 924.417969 1270.316406 923.210938 1284.054688 918 1288 C 918 1272.003906 921.261719 1256 921.960938 1240 C 922.996094 1216.347656 922 1192.597656 924 1169 C 919.691406 1173.792969 918.664063 1181.066406 916.386719 1187 C 911 1200.644531 906.828125 1214.734375 900.691406 1228 C 897.980469 1234 893.378906 1245 887 1247 C 888.65625 1239 890.964844 1231.160156 892 1223 L 891 1223 C 888.820313 1233.175781 882.375 1243 877.550781 1252 C 868.199219 1269.703125 858.4375 1287.214844 849.257813 1305 C 831.277344 1340 820 1382.691406 820 1422 L 818 1422 C 816.675781 1358 826.636719 1290.238281 850 1230 C 839.417969 1239.421875 831.199219 1256.476563 824.742188 1269 C 807.378906 1302.652344 796.339844 1337.421875 784 1373 L 783 1373 C 783.269531 1340.578125 793.933594 1308 798 1276 L 797 1276 C 789.171875 1294.261719 777.625 1311 769.308594 1329 C 755 1360.09375 744.757813 1394 736 1427 L 735 1427 C 735 1411.628906 739.386719 1396.148438 741.726563 1381 C 747.636719 1342.738281 756.285156 1302 771 1266 C 743.636719 1296 725.804688 1336.308594 703.332031 1370 C 694.695313 1383 684.773438 1401 672 1410 C 675.632813 1398.519531 684 1387.75 689.640625 1377 C 704.730469 1347.578125 724.53125 1310.734375 726 1277 C 694.363281 1311.371094 664.65625 1349.808594 623 1373 C 631.335938 1359.71875 646.367188 1349 656.71875 1337 C 673.660156 1317.421875 686.5 1296.453125 699 1274 C 686.710938 1282.554688 676.386719 1295.167969 663 1302 C 675.691406 1275.167969 698.5 1255.601563 723 1240.054688 C 730.28125 1235.433594 737.824219 1228.710938 746 1226 C 742.878906 1232.046875 737.664063 1236.667969 735 1243 C 754 1227.640625 775.769531 1213 796 1199 C 793.929688 1209.734375 783.589844 1221.429688 777 1230 C 841.488281 1186 864.34375 1116 877.464844 1043 C 882.515625 1015 888.773438 985.546875 890 957 C 893 959 894 961.597656 895 965 L 896 965 C 895.644531 962.203125 890.886719 943.507813 893.527344 943 C 896.777344 942.199219 901.257813 951 903 953 C 901.199219 930.355469 888.800781 909.386719 884.921875 887 C 883.800781 880.53125 880.378906 869.277344 884 863.148438 C 888.234375 856.082031 909.632813 866.0625 916 867.625 C 944.75 874.6875 975 875 1004 868.347656 C 1010.734375 866.804688 1032.660156 856.792969 1038 862.601563 C 1042.792969 867.535156 1038.671875 881.230469 1037.347656 887 C 1032.328125 909 1021.261719 929.820313 1018 952 M 743 1130 L 743 1129 C 780.996094 1112.707031 806.777344 1072.472656 804.960938 1031 C 802.511719 975.035156 750 923 692 935.210938 C 651.976563 943.65625 619.6875 973.207031 611.285156 1014 C 600.175781 1068 640.945313 1135 700 1135 C 692.570313 1139.445313 679 1135 671 1133.285156 C 640.351563 1127 609.589844 1106.816406 594.3125 1079 C 561 1018.4375 593 941 655 914.425781 C 718.996094 887.058594 796.253906 916.65625 823 981 C 844.390625 1032 824.449219 1085 779 1114.050781 C 768.171875 1121.003906 755.992188 1128.242188 743 1130 M 1214 1136 L 1214 1135 C 1268.671875 1135 1314.324219 1084 1311.960938 1030 C 1310.648438 1000.015625 1294.851563 971.199219 1271 953.132813 C 1260.628906 945.273438 1248.75 939.277344 1236 936.425781 C 1223.445313 933.613281 1210.714844 933.214844 1198 935.132813 C 1185.734375 937 1173.453125 942.007813 1163 948.589844 C 1092.722656 993 1105 1098.492188 1180 1130 C 1172.4375 1133 1160.511719 1124.75 1154 1121.230469 C 1130.839844 1108.710938 1107.925781 1091.054688 1097.605469 1066 C 1074.535156 1010 1101.855469 942.753906 1157 917.308594 C 1177.855469 907.6875 1199.292969 905 1222 905 C 1291 905.027344 1346.617188 970.109375 1339.828125 1038 C 1334.996094 1086.320313 1294.601563 1124.554688 1248 1133.308594 C 1236.703125 1135.433594 1225.496094 1138.132813 1214 1136 M 570 959 C 561.203125 975.488281 531.679688 986.457031 514 988 C 524.96875 974.726563 553.324219 962.570313 570 959 M 1406 987 L 1406 988 C 1387.179688 986.359375 1361 974.601563 1350 959 C 1369 962.289063 1390 976.460938 1406 987 M 720 962.304688 C 749.941406 958.238281 755.253906 1004.132813 725 1007.523438 C 696.941406 1010.664063 691.957031 966.113281 720 962.304688 M 1219 962.328125 C 1246.359375 957.664063 1255.839844 1001.179688 1228 1006.53125 C 1197.902344 1012.316406 1189 967.445313 1219 962.328125 M 658 1208 C 659.601563 1205.636719 661.308594 1205 664 1204 L 664 1203 C 649.183594 1203 632.503906 1208.453125 618 1206 L 618 1205 C 627.167969 1200.371094 636.515625 1195 646 1191 L 646 1190 C 627.339844 1190 606 1192.695313 588 1187 L 588 1186 C 597.445313 1184.78125 606.839844 1181.582031 616 1179 C 608.40625 1175.796875 599 1176.800781 591 1175.828125 C 584.210938 1175.023438 577.878906 1172.300781 571 1172 C 575.917969 1165.535156 590 1166.101563 597 1161 C 583.308594 1161 570.53125 1159.746094 557 1158 C 561.449219 1151.5 572.34375 1152.371094 578 1147 C 565.769531 1147 550.378906 1146.808594 539 1142 C 541.988281 1139.574219 545.613281 1138.113281 549 1136.273438 C 551.253906 1135.046875 559.945313 1132.0625 559.945313 1129 C 559.945313 1126.730469 555.359375 1127.03125 554 1127.003906 C 547.195313 1127 540.722656 1127.070313 534 1125.804688 C 532.265625 1125.476563 525.207031 1125.410156 525.207031 1122.777344 C 525.207031 1119.25 540.1875 1113.054688 543 1110 C 536.464844 1110.824219 529.59375 1112.53125 523 1111.714844 C 521.609375 1111.539063 517.320313 1111.410156 516.921875 1109.570313 C 516.179688 1106.164063 525.792969 1100.734375 528 1099 C 539 1089.824219 550.324219 1079.386719 559 1068 C 563.917969 1072.496094 565.988281 1080.214844 569.285156 1086 C 574.628906 1095.367188 581.175781 1104 588.285156 1112 C 614.535156 1141.816406 654.792969 1158.242188 694 1160 C 725.765625 1161.351563 756.742188 1153.160156 785 1139.03125 C 792.457031 1135.300781 799.96875 1131.101563 807 1126.621094 C 808.59375 1125.605469 812.886719 1121.601563 814.957031 1123.171875 C 817.839844 1125.359375 812.738281 1133 811.574219 1135 C 805 1146.320313 797 1156.714844 787.984375 1166 C 752.550781 1202 705.65625 1208 658 1208 M 1376 1110 C 1378.875 1112.578125 1394.792969 1119.601563 1394.792969 1123.097656 C 1394.792969 1125.324219 1389.394531 1125.210938 1388 1125.4375 C 1380.539063 1126.652344 1373.5625 1127 1366 1127 C 1364.71875 1127.003906 1358 1126.382813 1358.632813 1129 C 1359.800781 1134.074219 1375.882813 1138.421875 1380 1142 C 1367.386719 1146 1354 1146 1341 1146 C 1346.550781 1152.074219 1357.523438 1151.226563 1362 1158 C 1348 1158.605469 1335 1160.117188 1321 1160 C 1327 1165.523438 1338 1167.457031 1346 1169 C 1339.65625 1178.011719 1313.171875 1177.5625 1303 1178 L 1303 1179 C 1312.621094 1181.488281 1322.238281 1184.160156 1332 1186 L 1332 1187 C 1312.441406 1189.472656 1293.6875 1190.402344 1274 1190 L 1274 1191 C 1282 1194.757813 1293.957031 1199.574219 1300 1206 C 1285.761719 1206 1269.871094 1205.300781 1256 1202 L 1261 1208 C 1213 1208 1172.976563 1200.113281 1135 1168.246094 C 1124.449219 1159.394531 1115.933594 1148 1109 1136 C 1107.871094 1134.046875 1102 1125.421875 1105.644531 1123.65625 C 1108.996094 1122 1114.464844 1127.011719 1117 1128.65625 C 1126.421875 1134.769531 1136.785156 1140.027344 1147 1144.691406 C 1177.28125 1158.519531 1211.207031 1162.832031 1244 1157.5625 C 1278.21875 1152.0625 1309.390625 1135.234375 1332.976563 1110 C 1340.441406 1102.011719 1346.683594 1092.675781 1351.746094 1083 C 1353.289063 1080.046875 1356 1071.585938 1359.382813 1070.460938 C 1363 1069.207031 1371.582031 1080.582031 1374 1083 C 1380.949219 1090 1388 1096.222656 1396 1102.011719 C 1398 1103.507813 1403.792969 1106.601563 1403.792969 1109.574219 C 1403.792969 1112.136719 1398.585938 1112 1397 1112 C 1389.839844 1112.175781 1382.96875 1111.71875 1376 1110 M 699 1240 C 694.855469 1245.628906 687.890625 1251.367188 681 1253 C 685.503906 1247.433594 692.296875 1242.539063 699 1240 M 1239 1254 C 1232.609375 1250.492188 1226.90625 1246.246094 1221 1242 C 1226.976563 1240.621094 1236.183594 1249.128906 1239 1254 M 353 1351 C 343.976563 1352.675781 334.175781 1353.277344 325 1354 C 330.648438 1360.46875 342.296875 1361.472656 350 1365.09375 C 351.484375 1365.789063 358.851563 1368.148438 357.652344 1370.648438 C 355 1376 338.761719 1375.828125 334 1381 C 344.238281 1381 353.988281 1378.609375 364 1382 L 364 1383 C 344.21875 1385.664063 329.40625 1399 312 1407 L 312 1408 C 331.441406 1403.394531 354.265625 1397.609375 374 1405 L 374 1406 C 347.660156 1409.347656 321.292969 1424.3125 301 1441 C 334 1432.832031 373 1444.460938 406 1450.386719 C 456.28125 1459.453125 505.835938 1467 557 1467 L 557 1468 C 499.367188 1487.511719 435.339844 1466.59375 377 1464.039063 C 351 1463 328.207031 1469.8125 304 1478 L 304 1479 C 394.84375 1479 481 1514 572 1514 L 572 1515 C 551.949219 1517.535156 531.269531 1522 511 1521 C 476 1519.449219 441.804688 1511.5625 407 1510.039063 C 380.261719 1509 354.4375 1513.453125 328 1514 L 328 1516 C 371.601563 1516 415.574219 1529.210938 458 1538 C 491.90625 1545.019531 527.546875 1548.035156 561 1556 L 561 1557 C 498.660156 1568.574219 434.574219 1549.09375 372 1557 L 372 1558 C 422 1564.320313 473.996094 1571.332031 523 1583 L 523 1584 C 509.878906 1586.4375 496.261719 1585.179688 483 1586.089844 C 464 1587.386719 444.964844 1589.519531 426 1590 C 413.449219 1590.292969 400.386719 1588.699219 388 1591 L 388 1592 C 437.828125 1594.144531 485.574219 1615.582031 536 1616 L 536 1617 C 517.402344 1624 494.550781 1623 475 1623 C 439.261719 1623 403.667969 1621 368 1621 L 368 1622 C 394.46875 1630.464844 421 1639.777344 448 1646.523438 C 465.335938 1651 484 1653.296875 501 1659 L 501 1660 C 457 1662 413.867188 1659 370 1659 C 377.269531 1665.535156 391 1669.050781 400 1673.296875 C 418.789063 1682.175781 436.574219 1692.464844 456 1700 L 456 1701 L 369 1702 L 369 1703 C 395 1710.394531 419.824219 1722.003906 446 1729 L 446 1730 C 414.78125 1730.019531 383 1733.753906 352 1728 L 352 1729 C 370.300781 1734 387.273438 1743.367188 406 1747 L 406 1748 C 386.351563 1752.679688 358.308594 1748.007813 339 1743 C 350.730469 1752.710938 366.953125 1759.023438 381 1764.691406 C 386.453125 1767 395.777344 1768 399 1773 C 369.269531 1773.019531 347.824219 1770.617188 321 1757 C 327.980469 1765.183594 340.460938 1774.679688 345 1784 C 315.28125 1771.628906 301.742188 1748.808594 291 1720 L 290 1720 C 288.769531 1752.742188 295.601563 1786.496094 312.226563 1815 C 318.898438 1826.433594 329.46875 1841 344 1841.785156 C 352.660156 1842.335938 362.472656 1837.515625 370 1833.753906 C 390.195313 1823.65625 408.84375 1809 425.285156 1793.535156 C 490.34375 1732.691406 546.507813 1662.722656 593.425781 1587 C 612 1557 631.359375 1525.761719 645 1493 C 647.46875 1500 640.996094 1511.457031 638.398438 1518 C 629.800781 1539.675781 621.195313 1561.453125 610 1582 C 562.773438 1669.449219 499.261719 1746.160156 426 1813 C 398 1838.480469 343.828125 1885.703125 309.464844 1844 C 280.882813 1809.3125 271.890625 1759.527344 268.910156 1716 C 263 1630.183594 270.535156 1545.53125 285.25 1461 C 289.976563 1434 297.1875 1407.050781 302.601563 1380 C 304.8125 1369 305.167969 1351.488281 311.996094 1342.214844 C 320.433594 1330.75 345.984375 1343.175781 353 1351 M 1272 1492 L 1273 1492 C 1323.6875 1604.058594 1400.347656 1706.480469 1488 1792 C 1502.847656 1806.46875 1519.429688 1819.667969 1537 1830.679688 C 1546.972656 1837 1558.851563 1843.128906 1571 1841.824219 C 1587.902344 1840.015625 1598.179688 1826.101563 1605.246094 1812 C 1619.277344 1784.007813 1626.914063 1751.363281 1627 1720 C 1621.683594 1726 1619.597656 1736 1615.890625 1743 C 1607.335938 1759.472656 1589.304688 1780.558594 1570 1784 L 1570 1783 C 1578.738281 1776.34375 1586.796875 1768.074219 1593 1759 C 1566.257813 1771.632813 1544 1773.019531 1515 1773 L 1515 1772 C 1525.734375 1766.582031 1537.894531 1763.332031 1549 1758.578125 C 1558 1754.695313 1566.566406 1749 1576 1746 L 1576 1745 C 1560.878906 1745.3125 1545 1747.054688 1530 1748.089844 C 1522.691406 1748.589844 1515.179688 1750.121094 1508 1748 C 1521.386719 1738.449219 1545 1733.222656 1561 1729 L 1561 1728 C 1539 1728.015625 1517 1731 1495 1731 C 1486.753906 1731 1476.914063 1732.324219 1469 1730 C 1474.773438 1725.679688 1483.289063 1724.0625 1490 1721.398438 C 1507.398438 1714.496094 1525.214844 1708.785156 1543 1703 C 1535.386719 1699.335938 1526.222656 1701.472656 1518 1701 C 1496.234375 1699.421875 1474.75 1701 1453 1701 L 1453 1700 C 1483.988281 1689.515625 1512.425781 1671.796875 1543 1660 L 1543 1659 C 1523 1659.164063 1502.976563 1661.496094 1483 1662 C 1459.609375 1662.558594 1436.324219 1660.480469 1413 1660 L 1413 1659 C 1445 1650.679688 1477.367188 1644.210938 1509 1633.667969 C 1518.980469 1630.339844 1536.21875 1628 1544 1621 C 1491 1621 1434 1630.816406 1382 1618 L 1382 1617 C 1406.316406 1611.195313 1432.339844 1610.484375 1457 1605.550781 C 1478.71875 1601.207031 1501.878906 1593 1524 1592 L 1524 1591 C 1513.78125 1589.101563 1503.335938 1590.414063 1493 1590 C 1474.65625 1589.15625 1456.34375 1587 1438 1586.039063 C 1422.496094 1585.359375 1406.296875 1587 1391 1584 L 1391 1583 C 1440.621094 1576.730469 1489.359375 1564.273438 1539 1558 L 1539 1557 C 1507.375 1551.128906 1473.769531 1557.570313 1442 1559 C 1411.894531 1560.277344 1381.953125 1557.246094 1352 1557 L 1352 1556 C 1371.511719 1550.230469 1394.753906 1550.269531 1415 1546.75 C 1451.617188 1540.386719 1487.488281 1530.453125 1524 1523.609375 C 1543.367188 1520 1563.984375 1519.527344 1583 1515 L 1583 1514 C 1557.878906 1513 1533.367188 1508.351563 1508 1510.089844 C 1479.539063 1512.039063 1451.441406 1518 1423 1520 C 1401.703125 1521.367188 1381 1518.710938 1360 1516 L 1360 1514 C 1417.476563 1514 1474.667969 1494.429688 1531 1485 C 1555.4375 1480.792969 1583.402344 1474.144531 1608 1480 C 1593 1463.675781 1558 1465 1538 1465 C 1504.652344 1465 1472.183594 1472.636719 1439 1475 C 1411.363281 1476.804688 1383 1473.050781 1356 1468 L 1356 1467 C 1409.640625 1467 1462.261719 1459.085938 1515 1449.574219 C 1546.5625 1444 1583.261719 1432.789063 1615 1441 C 1598.609375 1422.535156 1568 1410.035156 1544 1407 C 1547.230469 1402.753906 1555 1403.023438 1560 1403 C 1574 1403 1587 1405 1601 1406 C 1590.738281 1395.597656 1566.566406 1384.453125 1552 1383 L 1552 1381 C 1562.21875 1380.195313 1571.804688 1381 1582 1381 C 1575.332031 1374.261719 1565 1374.078125 1557 1370 C 1564 1364.636719 1574.597656 1362.179688 1583 1359.496094 C 1584.472656 1359.023438 1590.945313 1358 1590.945313 1355.789063 C 1590.945313 1353.796875 1586.316406 1353.28125 1585 1353.003906 C 1577.730469 1351.480469 1570.289063 1352.378906 1563 1351 C 1571 1343 1596.921875 1330.351563 1605.660156 1343.105469 C 1612 1352.398438 1612.753906 1368.140625 1615 1379 C 1620.25 1404.339844 1625.632813 1429.574219 1630.390625 1455 C 1642.769531 1521.183594 1649 1587.738281 1649 1655 C 1649 1692 1648.496094 1731 1639.625 1767 C 1630.347656 1804.785156 1614 1869 1563 1860 C 1556.65625 1858.800781 1550.722656 1856.675781 1545 1853.742188 C 1531.21875 1846.675781 1518.972656 1837.117188 1507 1827.390625 C 1487 1811.261719 1469 1793.066406 1451 1775 C 1418.414063 1742.414063 1389.984375 1707 1362.628906 1670 C 1333.414063 1630.484375 1308.773438 1587.304688 1289.773438 1542 C 1283.464844 1527 1272.753906 1508.460938 1272 1492 M 1270.667969 1489.667969 C 1270.722656 1489.722656 1270.777344 1490.777344 1270.332031 1490.332031 C 1270.277344 1490.277344 1270.222656 1489.222656 1270.667969 1489.667969 M 347 1784 L 346 1785 L 347 1784 "/></g></svg>