<svg xmlns="http://www.w3.org/2000/svg" xmlns:xlink="http://www.w3.org/1999/xlink" viewBox="0 0 100 100" version="1.1"><g transform="translate(1, 11.166369896658864) scale(0.04996574414862259) translate(-18.890625, -281.394531)"><path style=" stroke:none;fill-rule:nonzero;fill:rgb(0%,0%,0%);fill-opacity:1;" d="M 352 855 L 352 854 C 340.757813 845.265625 333.167969 832.074219 328 819 C 299 746 365 661.121094 444 677.664063 C 526 695 556 798.351563 501.816406 860 C 474.878906 890.609375 441.324219 895.789063 403 895 L 404 899 C 380.597656 892.230469 359.453125 879.105469 337 869.8125 C 303 855.746094 265.828125 847 229 846.015625 C 215.816406 845.691406 203 847 190 848 C 185.339844 848.410156 176.273438 848.796875 172.605469 852 C 170 854.128906 171.519531 858.261719 171.84375 861 C 172.761719 868.699219 173.917969 876.359375 175.25 884 C 175.671875 886.414063 175.851563 891.449219 178.515625 892.59375 C 183.730469 895 199 887.585938 205 886.585938 C 226.695313 883 248 883 270 883 C 295 883.039063 320.605469 888.601563 345 893.789063 C 385.234375 902.347656 425.175781 913.484375 464 927 C 480 932.605469 495.746094 939.144531 511 946.753906 C 518.214844 950.351563 526.78125 953.6875 532 960 C 506 949.726563 477.835938 944.003906 451 936.289063 C 399.492188 921.488281 347.511719 908.597656 294 905 C 258.902344 902.492188 221.402344 906.382813 190 923.476563 C 146.273438 947.285156 117.460938 994.800781 114 1044 C 112.996094 1060 115.414063 1076 120.507813 1091 C 121.527344 1094.027344 127.949219 1104.363281 125.265625 1107 C 121.332031 1110.800781 104.367188 1108 99 1108 L 50 1108 C 41.898438 1108 32.238281 1106.699219 24.316406 1108.5625 C 21.503906 1109.226563 22 1112.746094 22 1115 C 21.96875 1119.734375 18.890625 1137.039063 23.40625 1139.804688 C 30.6875 1144.261719 48.617188 1141 57 1141 C 86.335938 1141 115.742188 1141.644531 145 1140.585938 C 242.441406 1137.058594 340.464844 1141 438 1141 L 1595 1141 C 1607 1141 1619.90625 1142.242188 1631 1136.371094 C 1651.375 1125.578125 1663.691406 1105.394531 1674.71875 1086 C 1700.519531 1040.621094 1709 992.339844 1723 943 L 1724 943 C 1724 978.09375 1725.488281 1013.292969 1718.484375 1048 C 1676.738281 1255 1513.8125 1420 1330 1511.246094 C 1270.871094 1540.617188 1204.609375 1558.597656 1139 1563.089844 C 1106 1565.339844 1069.207031 1563.191406 1041 1544 C 1034.574219 1539.566406 1029 1534.113281 1024.234375 1528 C 989.648438 1483.578125 1038.675781 1437.554688 1062.804688 1402 C 1104.503906 1340.566406 1089.453125 1257.511719 1022 1221.554688 C 986.863281 1202.824219 948.976563 1199.042969 910 1202.828125 C 804 1213.113281 709.621094 1297.6875 676.515625 1397 C 668.355469 1421.484375 663.167969 1447.199219 662 1473 C 656.882813 1590.800781 735.917969 1694.746094 836 1749 C 985.453125 1829.816406 1164.921875 1835.804688 1325 1784.65625 C 1546.761719 1713.800781 1734.316406 1557.621094 1840.890625 1350 C 1861.398438 1310.046875 1879 1268 1892.433594 1225 C 1900.648438 1198.628906 1905.847656 1171.359375 1913.859375 1145.042969 C 1916.382813 1136.757813 1928.59375 1141 1935 1141 L 1965 1141 C 1968 1141 1973.777344 1142.046875 1976.398438 1140 C 1980.234375 1137 1979 1115.710938 1977.683594 1111.148438 C 1976.414063 1107 1970.4375 1108 1967 1108 L 1936 1108 C 1932.46875 1108 1924.214844 1109.5 1923 1105 C 1921.367188 1098.207031 1925.402344 1088.769531 1925.910156 1082 C 1927.535156 1060.316406 1930 1038.734375 1930.960938 1017 C 1933.453125 960.046875 1927.195313 902.5625 1914.984375 847 C 1858.886719 591.675781 1648.964844 352.71875 1377 334.089844 C 1290.566406 328.167969 1204.382813 345.753906 1125 380 C 1104.925781 388.472656 1085.4375 398.589844 1067 410.304688 C 1061 414.035156 1051.894531 417.570313 1047.757813 423.328125 C 1043.71875 429 1047.824219 442.410156 1047.984375 449 C 1048.527344 471.0625 1049.417969 493 1046.714844 515 C 1044.519531 533 1041 550.578125 1036.527344 568 C 1034.734375 575 1029.355469 586 1030.511719 593 C 1031.3125 598 1035.359375 602.699219 1037.691406 607 C 1043.601563 618 1049.523438 628.714844 1054.691406 640 C 1069.21875 671.726563 1080.371094 705.464844 1085.703125 740 C 1089.574219 765.082031 1090 789.660156 1090 815 C 1090 822.71875 1084.984375 838 1088.199219 844.789063 C 1090.277344 849.1875 1098 852.117188 1102 855 C 1113.503906 863.050781 1125.777344 871.246094 1136 881 C 1122.832031 876.585938 1110.222656 870.546875 1097 866.167969 C 1093.917969 865.148438 1085.894531 861.261719 1083 864.03125 C 1079 868 1078.65625 883.417969 1077.253906 889 C 1076 893.664063 1070.84375 904.113281 1073 908.621094 C 1076 914.46875 1087.789063 919.636719 1093 923.652344 C 1105.234375 933.082031 1115.960938 943.429688 1125 956 C 1083.980469 937.355469 1045.363281 917 1000 910.300781 C 920 898.796875 840 923.082031 764 945.554688 C 745.746094 951 727.402344 958.628906 709 963 C 723.992188 946.164063 753.457031 937.621094 774 929.808594 C 834.242188 907 899.949219 891.265625 964 885.171875 C 986.996094 883 1011.765625 886.011719 1034 892 C 1038.253906 893.007813 1053.777344 901.609375 1056.582031 897.640625 C 1059.371094 893.683594 1059.785156 886.652344 1060.789063 882 C 1062 876.195313 1066.734375 863 1063.800781 857.3125 C 1061.199219 852.417969 1046.941406 852.070313 1042 851.246094 C 1019 847.4375 994.867188 848 972 851.589844 C 943.269531 856.113281 915.484375 865.144531 889 877.09375 C 874.675781 883.558594 859.785156 895 844 897.4375 C 839 898.222656 833.199219 896.003906 828 896 C 810.367188 896 792 893.617188 776 885.628906 C 732 863.710938 706.367188 810.105469 717.746094 762 C 722.273438 743 731.28125 724.382813 744.515625 709.714844 C 752.855469 700.46875 762.933594 693 774 687.257813 C 845.175781 650.769531 928.394531 708.617188 924.960938 787 C 924.179688 805 918 823.367188 907.789063 838 C 903.429688 844.1875 897.34375 849 893 855 C 934.34375 835.445313 974.273438 828 1020 828 C 1031.78125 828 1043.519531 829.613281 1055 832.335938 C 1057.773438 833 1064.378906 836.738281 1066.484375 833.578125 C 1071.234375 826.453125 1068 809.289063 1068 801 C 1068 768.289063 1062.648438 735.558594 1053.988281 704 C 1046.667969 677.3125 1036 651.707031 1023.753906 627 C 1018.433594 616.363281 1006 602.058594 1005.515625 590 C 1005 582.378906 1010.929688 572.332031 1013 565 C 1017.71875 549.808594 1020.824219 533.746094 1022.714844 518 C 1029 465.503906 1022.554688 411.75 1008.269531 361 C 1003.40625 343.714844 997.1875 326.117188 989.242188 310 C 985.640625 302.6875 981.503906 294.328125 974 290.304688 C 957.390625 281.394531 927.777344 303.335938 914 311.285156 C 875.714844 333.371094 841 362.71875 811 395 C 801.292969 405.519531 791.824219 416.546875 783 428 C 778.964844 433.488281 774.71875 442.613281 768.710938 446.222656 C 763.902344 449.113281 753.824219 443.578125 749 442.027344 C 731.636719 436.453125 713.898438 431.523438 696 428 C 645.449219 418.054688 593.636719 417.808594 543 427.261719 C 524.6875 430.679688 506.800781 435.414063 489 441 C 483.636719 442.53125 473.570313 448.316406 468 446.503906 C 463.511719 445.023438 459.851563 438.546875 457 435 C 448.871094 425 440.933594 414.402344 431.960938 405 C 396 367.414063 357.339844 334.496094 312 308.71875 C 298.210938 301 276.914063 285.046875 260 289 C 248.214844 291.699219 242.679688 306.03125 238.425781 316 C 226.746094 343.371094 219.324219 372.707031 214.414063 402 C 207.421875 443.707031 206.40625 487.214844 213.414063 529 C 215.835938 543.445313 218.863281 558.144531 223.695313 572 C 226 578.621094 231.480469 586.769531 230.203125 594 C 228.910156 601.339844 223.46875 608.367188 220.257813 615 C 214.214844 627.484375 208.304688 640.171875 203 653 C 187.804688 690 177.851563 727.503906 172.71875 767 C 170.898438 781 170 795 170 809 C 170 813.058594 168.507813 820.808594 170.601563 824.398438 C 172.535156 827.707031 180 825.402344 183 825 C 194.894531 823.371094 207 824 219 824 C 255.183594 824 291.8125 831.3125 326 843.078125 C 335 846.199219 343 851.742188 352 855 M 412 532 L 410 532 C 408.671875 518.75 397.269531 506.585938 388.84375 497 C 365 470 331 446.550781 296 437 L 296 436 C 319.726563 436.488281 339.613281 444.179688 359 457 C 348.488281 438.730469 329.683594 425.152344 311 416.261719 C 305.574219 413.679688 299 413.058594 294 410 C 316.683594 405.085938 345.347656 425.460938 361 439 C 353.566406 421.773438 339.609375 406.566406 325.996094 394 C 319.8125 388.292969 312 383.796875 307 377 C 321.226563 381.109375 336.910156 393.082031 348.171875 402.472656 C 385 433.277344 411.867188 483.246094 412 532 M 925 377 L 925 378 C 902.953125 394.625 887.292969 416.730469 873 440 C 893.90625 424.335938 913.171875 409.574219 941 409 L 941 410 C 914 418.65625 894.546875 433 878 456 C 896.710938 444.308594 915.21875 436.0625 938 436 L 938 437 C 890.96875 455.140625 847.960938 487.027344 829 535 C 823.832031 522.683594 830.453125 502.347656 833.527344 490 C 842.757813 453 864 417.664063 895 394.628906 C 903.65625 388.1875 914 379 925 377 M 1538 463 C 1515.425781 458.34375 1492.21875 453.5 1469 455.089844 C 1443.785156 456.816406 1418.910156 461.363281 1395 469.695313 C 1293 505.207031 1231.214844 601.394531 1199 699 C 1183.300781 746.566406 1181.652344 800.773438 1188.28125 850 C 1189.882813 862 1207 894.363281 1186 895.046875 C 1181.601563 895.1875 1179.464844 890.160156 1177.550781 887 C 1172 878 1167 869 1163.199219 859 C 1146.4375 817.101563 1139 775 1139 730 C 1139 590.007813 1259.734375 467.484375 1394 446.703125 C 1430.746094 441.015625 1467.804688 442.078125 1504 451.128906 C 1512.996094 453.375 1532.242188 455.328125 1538 463 M 391 539 C 384 535.246094 379.566406 525.636719 373.996094 520 C 362 508 348.503906 497.355469 334 488.671875 C 319 479.753906 302.742188 473.148438 286 468.734375 C 277.40625 466.46875 265.578125 466.546875 258 462 C 268.546875 459 283.195313 460.515625 294 462 C 339.261719 468.21875 376 494.773438 391 539 M 979 462 C 968.628906 469.125 949.210938 468.710938 937 473.226563 C 903.1875 485.738281 869.902344 508.746094 851 540 C 847.824219 531.027344 862.230469 510.199219 867.488281 503 C 888.34375 474.441406 921.273438 461 956 461 C 963.425781 461 971.847656 460 979 462 M 359 546 C 344.625 539.417969 332.59375 527.230469 318 520.300781 C 293.730469 508.769531 269.644531 505.109375 244 499 C 251.859375 495.695313 262.59375 497 271 497 C 307.402344 497.003906 342 512 359 546 M 990 498 L 990 499 C 969.496094 505.117188 948.929688 507.328125 929 516.3125 C 911.726563 524.101563 897.804688 538.507813 881 546 C 900.542969 500.707031 947 496.15625 990 498 M 392 540 L 391 541 L 392 540 M 848.667969 541.667969 C 848.722656 541.722656 848.777344 542.777344 848.332031 542.332031 C 848.277344 542.277344 848.222656 541.222656 848.667969 541.667969 M 363 726 C 368.566406 723.488281 372.816406 722 379 722 C 420.558594 722.132813 413.464844 786.09375 373 779.242188 C 367.753906 778.355469 363.277344 776.339844 359 773.113281 C 353.664063 769.019531 351 764 348 758 C 342.851563 764.285156 343.285156 776.25 343.84375 784 C 345.492188 806.792969 354.769531 826.433594 372 841.824219 C 409.660156 875.464844 469 866.625 495.769531 824 C 521.183594 783.429688 505.28125 725.804688 463 703.550781 C 433.910156 688.242188 378.878906 692 363 726 M 755 730 C 764.96875 726.699219 770.628906 720.792969 782 722.289063 C 824.316406 728 806.257813 792.664063 767 777.53125 C 759.328125 774.574219 752.648438 768.605469 749.367188 761 C 747.429688 756.515625 748.398438 750.820313 744 748 C 743.546875 757 739 765.140625 738.175781 774 C 735.480469 799.148438 746.515625 823.304688 764.285156 840.570313 C 809 884.023438 890.273438 858.703125 901.90625 797 C 908.207031 763.574219 896.179688 728.816406 868 708.75 C 834.757813 685.074219 774.980469 691 755 730 M 447 729.492188 C 456.738281 727.640625 458.808594 744.042969 448.984375 745.703125 C 438.621094 747.453125 437.492188 731.300781 447 729.492188 M 843 729.476563 C 853 727.242188 856.847656 743.183594 846.984375 745.679688 C 835.964844 748.472656 832.410156 732 843 729.476563 M 353.667969 856.332031 C 353.222656 856.777344 354.277344 856.722656 354.332031 856.667969 C 354.777344 856.222656 353.722656 856.277344 353.667969 856.332031 M 523 1062 C 531 1056 543 1053.039063 552 1047.691406 C 576.425781 1033.121094 601.265625 1008.664063 604.816406 979 C 606.601563 964.078125 600.480469 950.789063 588 942.359375 C 583.277344 939.171875 575.214844 937.261719 571.742188 932.726563 C 565.242188 924.242188 572.601563 906.578125 579.289063 900.519531 C 606.605469 875.777344 676.203125 883 671.941406 929 C 671.273438 936.199219 656.203125 939.628906 651 944.183594 C 636.722656 956.6875 634.203125 973.453125 640 991 C 647.890625 1015 668.304688 1036.601563 690 1048.820313 C 696 1052.285156 702 1055.136719 708.996094 1056.71875 C 709.972656 1057 714.734375 1057.5 713.652344 1059.5 C 711.351563 1063.773438 698 1064 694 1064 C 672.753906 1064.101563 654.625 1059 637 1046.652344 C 632.488281 1043.53125 623.214844 1030.628906 617.285156 1033 C 608.976563 1036.160156 600.75 1046.625 593 1051.65625 C 572.890625 1064.710938 546 1070.640625 523 1062 M 1430 1009 C 1394.847656 1004.460938 1366.605469 1019.214844 1347 1049 C 1341.5 1057.359375 1335 1068 1334 1078 C 1328.363281 1074.347656 1330.757813 1060.003906 1331.574219 1054 C 1333.945313 1036.617188 1340 1020.085938 1352.171875 1007.015625 C 1356.890625 1002 1363.359375 999.027344 1368 994 C 1340.183594 1003.503906 1318.488281 1028 1306.460938 1054 C 1302.457031 1062.675781 1299.3125 1071.472656 1298 1081 C 1297.65625 1085.109375 1298 1091.078125 1293.851563 1093.351563 C 1274 1104.179688 1260.371094 1085.070313 1260 1067 C 1259.46875 1039.214844 1272.984375 1006 1292 986 C 1266.203125 995.777344 1245.617188 1027.046875 1236.863281 1052 C 1233.765625 1061 1235.71875 1083.691406 1227.941406 1088.636719 C 1205.203125 1103.101563 1178.859375 1089 1177 1063 C 1175 1033.527344 1190.703125 1003 1209 981 C 1186.449219 993.066406 1167.667969 1016.347656 1160.746094 1041 C 1158 1050.359375 1156.890625 1060.289063 1157 1070 C 1157 1073.175781 1158.804688 1078.828125 1155.667969 1081 C 1152.789063 1083 1148 1081.445313 1145 1081 C 1131.699219 1078.671875 1122.855469 1070.441406 1117.824219 1058 C 1106.933594 1031.074219 1115.433594 999.070313 1131.347656 976 C 1182 902.378906 1299.671875 916.390625 1368 955.148438 C 1385.464844 965.058594 1403 976.199219 1416.910156 991 C 1421.71875 996.160156 1428 1002.082031 1430 1009 M 321 988 C 325.328125 994.144531 331.300781 999 335.703125 1005 C 350.390625 1025.472656 363.671875 1054.160156 361.910156 1080 C 360.269531 1104.066406 345.617188 1117.007813 322 1117 C 316 1117 309 1117 304 1113.273438 C 296.441406 1107.710938 298.605469 1087 296.265625 1078 C 290.472656 1056 280.558594 1034.117188 265.269531 1017.039063 C 260.824219 1012.070313 255 1004.757813 249 1002 C 254.917969 1018 255.769531 1035.519531 259.5 1052 C 262.988281 1067.421875 270.917969 1085.035156 269.90625 1101 C 268.527344 1122.722656 242.894531 1121.257813 230 1111.320313 C 212 1097.554688 203.558594 1072.597656 200.71875 1051 C 200.390625 1048.496094 198.71875 1030.429688 197.851563 1030.632813 C 193.765625 1031.585938 190.421875 1041.578125 188.933594 1045 C 181.75 1061.527344 182.214844 1078.484375 183 1096 C 183.191406 1099.257813 188.273438 1114.03125 185.351563 1115.710938 C 182.765625 1117.203125 176.425781 1113.609375 174 1112.570313 C 161.378906 1107.164063 152.574219 1097.050781 148.355469 1084 C 133.796875 1039 164.238281 995 202 972.601563 C 258.875 939 343 944 389.984375 992 C 410.394531 1013 422.589844 1044 415.988281 1073 C 413.441406 1084.21875 407.386719 1095.578125 397 1101.355469 C 394.714844 1102.625 388.320313 1106.609375 385.707031 1104.785156 C 383.480469 1103.234375 386.417969 1093.5 386.714844 1091 C 388 1079.105469 386 1066.304688 382.328125 1055 C 372 1023.636719 349 1003.667969 321 988 M 1023 1029 C 1023.5625 1056.269531 1019.734375 1084.574219 1000.710938 1106 C 993 1114.617188 976.902344 1124.007813 966 1115.582031 C 957.617188 1109.082031 957.929688 1098.582031 959.300781 1089 C 961.324219 1074.820313 965.902344 1061.070313 968.539063 1047 C 971.21875 1032.707031 971.320313 1017.121094 978 1004 C 954.1875 1016.355469 939 1052.316406 932.871094 1077 C 930.808594 1085.253906 932.601563 1108.039063 925.851563 1113.003906 C 902.511719 1130.179688 868.992188 1109 867 1083 C 864.429688 1046.71875 885.476563 1019 906 992 C 878.46875 1005.4375 856 1027.355469 846.503906 1057 C 842.738281 1068.644531 841.980469 1080 842 1092 C 842 1094.53125 843.949219 1103 841.382813 1104.355469 C 835.6875 1107.390625 825.8125 1099.082031 822.300781 1095.570313 C 807.917969 1081.199219 808.410156 1057.378906 812.652344 1039 C 827.582031 974.28125 904.996094 945 965 955.464844 C 1018 964.785156 1077 1005.730469 1072.910156 1066 C 1071.730469 1083.195313 1064.644531 1100.042969 1049 1108.6875 C 1046.378906 1110.136719 1035.878906 1116.773438 1033 1114 C 1030.304688 1111.03125 1035.472656 1093.242188 1035.949219 1089 C 1037.898438 1071.636719 1038.175781 1041.222656 1023 1029 M 531 984 C 518 983.730469 504.976563 981 492 980.089844 C 468.3125 978.46875 444.714844 979 421 978 C 414 977.6875 396.394531 968 393 962 C 428.414063 962 462.34375 962.605469 497 971.628906 C 506.601563 974.128906 524.363281 976.476563 531 984 M 709 963 L 708 964 L 709 963 M 836 964 C 831.742188 969.4375 820.863281 978.226563 814 979.691406 C 803.457031 982 790 978.335938 779 979.089844 C 755.890625 980.671875 732 985 709 985 C 715.914063 977.710938 730.539063 975.601563 740 973.117188 C 769.980469 965.242188 805 960.609375 836 964 M 1292 985 L 1293 986 L 1292 985 M 535 998 L 535 1000 C 512.699219 1003.003906 490.914063 1009.59375 469 1014.652344 C 463.988281 1015.808594 450.230469 1022.304688 445.816406 1019 C 444 1017.636719 443.355469 1015 442.441406 1013 C 436.625 1000.832031 445.988281 1000.777344 457 1000.023438 C 483.265625 998.230469 508.664063 998 535 998 M 707 1002 L 707 1000 C 731.75 999.488281 755.203125 997.648438 780 1000.074219 C 783.375 1000.40625 790.757813 1000.75 793.378906 1003.023438 C 796 1005.382813 790.179688 1017.085938 787.414063 1018.304688 C 782.191406 1020.609375 770.296875 1014.226563 765 1013 C 746.480469 1008.242188 726 1002.824219 707 1002 M 547 1012 C 542 1021.1875 531 1028.398438 523 1034.800781 C 500.183594 1053 472.449219 1071.667969 445 1082 C 447.367188 1073 456.4375 1064.421875 463 1058.015625 C 478.785156 1042.597656 501 1031.0625 521 1022 C 529.234375 1018.144531 537.972656 1013.351563 547 1012 M 774 1068 C 753 1060.316406 732 1045.089844 715 1031 C 708.902344 1025.753906 700.425781 1020.285156 697 1013 C 715.757813 1019.816406 734.367188 1028.417969 752 1037.78125 C 757.761719 1041 768.355469 1045 771.972656 1050.527344 C 774.433594 1054.339844 773.804688 1063.445313 774 1068 M 881 1279 C 877.292969 1287 868 1292.699219 862 1299 C 851.765625 1309.742188 842.890625 1321.8125 836 1335 C 825.421875 1355.363281 818.386719 1378.085938 816.171875 1401 C 814.378906 1419.53125 815 1438.816406 810.625 1457 C 806.210938 1474.757813 795.722656 1491.625 776 1493.695313 C 762.207031 1495.144531 750.671875 1484.628906 745.308594 1473 C 735.8125 1452.40625 739.277344 1427.679688 746.503906 1407 C 766.699219 1349.226563 826 1301.820313 881 1279 "/></g></svg>