<?xml version="1.0" encoding="UTF-8"?>
<svg xmlns="http://www.w3.org/2000/svg" xmlns:xlink="http://www.w3.org/1999/xlink" width="2000pt" height="2000pt" viewBox="0 0 2000 2000" version="1.1">
<g id="surface1">
<path style=" stroke:none;fill-rule:nonzero;fill:rgb(0%,0%,0%);fill-opacity:1;" d="M 735 1521 L 735 1522 C 641.34375 1485.675781 547.488281 1432.808594 446 1422.171875 C 416.613281 1419.089844 387.625 1416 358 1416 C 351.265625 1416 344.691406 1416.808594 338 1417 C 335.886719 1417.042969 331.503906 1416.316406 330.242188 1418.601563 C 328.972656 1421 331.519531 1425 332.425781 1427 C 335.671875 1434.480469 339.601563 1441.707031 343.246094 1449 C 346.332031 1455.167969 349.914063 1468 355.636719 1472 C 361 1475.753906 376.722656 1471 383 1470 C 404.320313 1467.078125 427.46875 1465.613281 449 1467.089844 C 522.867188 1472.148438 590.222656 1489 659 1516.398438 C 675.289063 1523 691 1530.269531 707 1537.707031 C 714.429688 1541.183594 724.617188 1544.722656 730 1551 C 703 1542.40625 675.191406 1537.136719 648 1529.574219 C 606.992188 1518.175781 566.933594 1504.304688 525 1496.460938 C 502.503906 1492.253906 479.6875 1491.328125 457 1489.171875 C 435.292969 1487.105469 411.511719 1488.664063 390 1491.730469 C 385.339844 1492.394531 372 1492.144531 369 1496 C 366.511719 1499.058594 371.785156 1505.105469 373 1508 C 345 1500.609375 323.578125 1506.285156 296 1510 L 296 1512 C 325.28125 1514.3125 357.511719 1526 381 1543.476563 C 389.476563 1550 397.824219 1556.746094 404.34375 1565.171875 C 407 1568.609375 410.328125 1575.519531 415 1576.128906 C 423.980469 1577.261719 436.316406 1571.644531 445 1569.652344 C 465.5 1565 486.214844 1560.648438 507 1557.425781 C 550.457031 1550.683594 594.335938 1550.65625 638 1554.828125 C 662.277344 1557.148438 689 1560.433594 712 1569 L 712 1570 C 649.445313 1570 585 1566.394531 523 1575.269531 C 508.25 1577.378906 493.539063 1579.316406 479 1582.652344 C 476.996094 1583.109375 466.207031 1584.445313 466.207031 1587.039063 C 466.207031 1589.820313 480.546875 1596.484375 483 1598.46875 C 495.441406 1608.523438 506.773438 1622.507813 513.679688 1637 C 520.902344 1652.152344 525.824219 1670.222656 526.976563 1687 C 527.246094 1691 526.84375 1705.441406 530.472656 1707.398438 C 534.476563 1709.554688 542.539063 1708 547 1708 L 698 1708 C 711.582031 1708 725.507813 1706.269531 739 1707.042969 C 749.601563 1707.652344 759.730469 1717.117188 769 1721.753906 C 784.277344 1729.390625 802 1734.519531 819 1737 L 819 1738 C 799.683594 1738 780.320313 1734 761 1733.039063 C 708.890625 1730.757813 656.167969 1733 604 1733 L 548 1733 C 542.828125 1733 531.859375 1731 527.515625 1734.027344 C 521.917969 1738.015625 520.261719 1757.355469 517.996094 1764 C 510.929688 1784.746094 499.589844 1815.132813 483 1830 C 499.789063 1772 515.769531 1704.238281 490.347656 1646 C 481.496094 1625.730469 465.558594 1609.78125 445 1601.601563 C 441.804688 1600.328125 427.890625 1593.738281 425 1597.042969 C 422.914063 1599.710938 430.382813 1612.128906 431.746094 1615 C 440 1632.585938 444.351563 1652 448 1671 C 456.261719 1714.019531 454 1758 442 1800 C 437.804688 1814.558594 433.671875 1832.015625 424 1844 C 430.726563 1794.050781 433.632813 1748.210938 425.246094 1698 C 417.808594 1653.464844 402.832031 1606.332031 370.960938 1573 C 320.988281 1520.738281 227.5625 1515.734375 172.171875 1562 C 155.242188 1576 143.816406 1595 128 1610 C 108.859375 1628.265625 87.289063 1641.117188 74 1665 C 66.585938 1678.359375 61.867188 1693.8125 60.167969 1709 C 59.585938 1714.1875 61 1727.699219 57.398438 1731.398438 C 54.664063 1734.132813 48.503906 1733 45 1733 L 14 1733 C 10.957031 1733 2.414063 1731.507813 0.601563 1734.601563 C -1 1737.605469 0 1743.632813 0 1747 L 0 1920 C 0 1923 -1.242188 1929.703125 1 1932 C 4.949219 1936 20.726563 1932 26 1932 L 1975 1932 C 1979.40625 1932 1998 1934.488281 1999.683594 1929.683594 C 2003.84375 1917.238281 2000 1897.164063 2000 1884 L 2000 1746 C 2000 1743.0625 2001.242188 1736.296875 1998.972656 1734.027344 C 1995.910156 1731 1984 1733 1980 1733 L 1930 1733 C 1925.410156 1733 1915 1735 1911.601563 1731.398438 C 1907.882813 1727.675781 1909.527344 1714.230469 1908.839844 1709 C 1906.96875 1694.761719 1902.515625 1680.617188 1895.691406 1668 C 1881.433594 1641.644531 1857.519531 1627.539063 1837 1607 C 1815.882813 1585.707031 1800.996094 1561.644531 1773 1548.027344 C 1754.878906 1539.214844 1735.207031 1534 1715 1534 C 1685.300781 1534 1656.222656 1538.597656 1631 1555.519531 C 1600.5 1576 1581.808594 1611.023438 1570.332031 1645 C 1548.699219 1709.042969 1539.265625 1780.414063 1553 1847 C 1541.605469 1836.269531 1535.839844 1812 1532.800781 1797 C 1523.710938 1752.273438 1524.773438 1707.335938 1535.871094 1663 C 1539.808594 1647.273438 1544.800781 1631.828125 1551.347656 1617 C 1552.695313 1614 1559.199219 1605 1557.582031 1601.695313 C 1555.675781 1598 1539.800781 1605.308594 1537 1606.453125 C 1516.8125 1614.703125 1502.53125 1633.074219 1494.8125 1653 C 1477.300781 1698.195313 1478 1748 1486 1795 C 1488.46875 1809.171875 1493.925781 1823 1496 1837 L 1495 1837 C 1483.707031 1813 1470.382813 1792.382813 1463.578125 1766 C 1461.636719 1758.457031 1460 1750.6875 1458.753906 1743 C 1458.335938 1740.4375 1458.628906 1735.789063 1456.398438 1734.027344 C 1452.265625 1730.765625 1440 1733 1435 1733 L 1378 1733 C 1319.726563 1733 1261.253906 1731.585938 1203 1733.015625 C 1186.632813 1733.414063 1170.339844 1737 1154 1737 L 1154 1736 C 1168.3125 1733.046875 1182.917969 1728.46875 1196 1722 C 1203.734375 1718.003906 1212.53125 1709.664063 1221 1708.226563 C 1236 1705.652344 1253.632813 1708 1269 1708 L 1431 1708 C 1436.46875 1708 1449.992188 1710.460938 1454.398438 1707 C 1457.371094 1704.617188 1456.675781 1694.625 1457 1691 C 1458 1679 1461.550781 1666.097656 1466.335938 1655 C 1474.816406 1635.328125 1486.8125 1616.480469 1503 1602.285156 C 1509.191406 1597 1516.824219 1594.117188 1523 1589 C 1502.398438 1578.660156 1472.675781 1577.558594 1450 1575 C 1384.453125 1567 1318.730469 1572.777344 1253 1570 L 1253 1569 C 1275 1566.03125 1296.773438 1558.613281 1319 1555.429688 C 1356.984375 1550 1396.855469 1549.539063 1435 1553.171875 C 1464.855469 1556.011719 1494.746094 1561.367188 1524 1568 C 1534 1570.136719 1552.980469 1579.457031 1562.960938 1577.097656 C 1567.324219 1576.0625 1570.230469 1570.085938 1573 1567 C 1580 1559.402344 1587.703125 1552.113281 1596 1546 C 1618.933594 1528.703125 1645.722656 1518.574219 1674 1515 C 1669.179688 1510.058594 1660.476563 1510.703125 1654 1509.535156 C 1631 1505.410156 1608.425781 1509 1586 1514 C 1587.476563 1510.078125 1596.976563 1499.265625 1594.839844 1495.601563 C 1592.566406 1491.707031 1577.203125 1492.230469 1573 1491.714844 C 1548.671875 1488.726563 1524.425781 1489 1500 1490.039063 C 1446.597656 1492.378906 1394.949219 1507.6875 1344 1522.574219 C 1306.894531 1533.417969 1269.363281 1543.089844 1232 1553 C 1239.359375 1547 1248.550781 1544 1257 1539.753906 C 1273.203125 1531.707031 1289.195313 1524 1306 1517.199219 C 1366 1493.152344 1427.363281 1475.320313 1492 1469.171875 C 1520.652344 1466.441406 1549.335938 1467.128906 1578 1469.089844 C 1584.753906 1469.550781 1603.328125 1475.695313 1608.582031 1471.394531 C 1613.921875 1467.019531 1617 1455.246094 1619.859375 1449 C 1623.183594 1441.542969 1627 1434.28125 1630.757813 1427 C 1631.8125 1425 1634.808594 1421.078125 1634 1418.601563 C 1633.527344 1416.46875 1629.601563 1417.027344 1628 1417 C 1621.308594 1417 1614.730469 1416 1608 1416 C 1580.308594 1416 1552.367188 1418.042969 1525 1422.4375 C 1446.339844 1435.074219 1372.859375 1463.324219 1300 1494.671875 C 1276.839844 1504.632813 1252.308594 1512.105469 1230 1524 C 1236 1517.324219 1245.363281 1513.074219 1253 1508.316406 C 1268.273438 1498.796875 1283.359375 1489.074219 1299 1480.148438 C 1367.464844 1441.089844 1443 1413 1521 1400.078125 C 1552.214844 1395 1583.40625 1393 1615 1393 C 1623.300781 1393 1642.617188 1398.71875 1646.945313 1390 C 1676.960938 1329.359375 1684.445313 1261.28125 1706 1198 C 1718.386719 1161.652344 1744 1132.347656 1747.828125 1093 C 1749.695313 1073.414063 1744.761719 1053.570313 1739 1035 C 1734.890625 1021.101563 1728.878906 1004.726563 1731.464844 990 C 1738.941406 947.394531 1777.21875 917.6875 1786.195313 875 C 1796.6875 825.128906 1766.503906 782 1771.171875 733 C 1774.925781 693.554688 1791.570313 656.226563 1801 618 C 1815.632813 560 1824 501.535156 1828 442 C 1833.953125 356.40625 1825.636719 263.804688 1795.425781 183 C 1783.472656 151.039063 1769.183594 115.5625 1741.996094 93.3125 C 1720.214844 75.480469 1694.191406 80.53125 1670 90.199219 C 1623.816406 108.660156 1581 141.347656 1544 174.050781 C 1424.390625 279.644531 1325 404 1236.257813 536 C 1216.910156 564.789063 1196.929688 593.15625 1177.667969 622 C 1168.640625 635.515625 1158 648.347656 1151 663 C 1147.328125 654.46875 1145.402344 645.265625 1141 637 L 1140 637 C 1134.933594 647.695313 1130.835938 658.527344 1128 670 C 1123 660.503906 1122 646.535156 1114 639 C 1103.453125 658.808594 1107.953125 680.203125 1103 701 L 1102 701 C 1101.171875 681.722656 1091.988281 650 1073 641 L 1073 704 L 1072 704 C 1065.664063 681.515625 1060.871094 657.414063 1049 637 L 1048 637 C 1046.359375 642.542969 1047.390625 648.300781 1046.714844 654 C 1043.960938 677.25 1044 701.601563 1044 725 L 1043 725 C 1038.667969 702.65625 1036.371094 680 1030 658 C 1027.816406 650.480469 1025.867188 639.402344 1020 634 C 1019.320313 667.011719 1014.601563 701.015625 1012 734 L 1011 734 C 1005 702 1006.589844 662.796875 992 633 C 986 641.726563 986.835938 659.597656 985.828125 670 C 982.898438 700.292969 982 731.558594 982 762 L 981 762 C 977 745.273438 978.707031 727.0625 977.960938 710 C 976.855469 684.71875 975.640625 659 971 634 C 965.453125 638 963.691406 650.605469 962 657 C 957.898438 674.339844 955.542969 692.316406 953.285156 710 C 952.367188 717.195313 952.886719 728.382813 948 734 C 947.984375 709.675781 944.386719 685.273438 943 661 C 942.8125 657.015625 943 638.277344 939.625 636.347656 C 936.914063 635 931.972656 652.773438 931.226563 655 C 924.621094 674.71875 920.636719 698.28125 919 719 L 917 719 C 917 698.675781 916.238281 678.359375 915.996094 658 C 915.96875 655.597656 915.761719 639.207031 912.984375 639.207031 C 909.914063 639.207031 906.382813 651.554688 905.472656 654 C 899.566406 669.808594 894.441406 685.71875 890 702 L 889 702 C 889 686.679688 890.929688 671.335938 890 656 C 889.917969 653.113281 891.527344 644.144531 889 642.175781 C 886.441406 640.085938 878 651.160156 876.761719 653 C 867.679688 665.210938 861.664063 682.796875 861 698 L 860 698 C 855.464844 679 858.289063 660 851 641 C 843.816406 647.8125 840 661.691406 837 671 C 833.679688 663.285156 832.335938 654.820313 829.199219 647 C 828.511719 645.285156 827.277344 640.207031 824.832031 640.207031 C 822.554688 640.207031 821.460938 644.390625 820.863281 646 C 818.507813 652.335938 816 658.554688 814 665 C 788.703125 624 759.515625 585 732.34375 545 C 644 415.269531 548.507813 287.660156 430 183.714844 C 391.433594 150 348.519531 113.53125 301 93 C 282 84.800781 259.714844 76.5 239 83.195313 C 209 93 192.71875 128.066406 179.753906 154 C 143.273438 227 134.390625 316.589844 134 397 C 133.660156 467.277344 142.660156 538.558594 158.882813 607 C 169 650.125 187.4375 692 192.714844 736 C 195.367188 758.199219 186.804688 779 181.476563 800 C 175.226563 824.667969 171.851563 849.800781 177.210938 875 C 186.253906 917.53125 225.644531 947.511719 231.699219 990 C 233.921875 1005.585938 227.242188 1022.277344 223 1037 C 217.503906 1056.066406 213.714844 1075.042969 215 1095 C 217.488281 1130 241.664063 1156.371094 253 1188 C 269.332031 1232.640625 279.214844 1280.378906 292.574219 1326 C 297 1341.308594 302.910156 1356.105469 308.574219 1371 C 311.183594 1378 313.4375 1387 318 1392.683594 C 322.945313 1398.582031 344.734375 1393 352 1393 C 385.285156 1393 418 1394.640625 451 1400.078125 C 523 1412 589.675781 1438.320313 654 1472.296875 C 681.78125 1487 707 1507.078125 735 1521 M 185 480 C 185.664063 512.195313 193.417969 545.757813 200.765625 577 C 212.949219 628.824219 227.714844 679.402344 247.203125 729 C 259.402344 760.042969 274.847656 789.480469 288 820 C 269.167969 811.222656 252.546875 785.828125 241.257813 769 C 201.605469 710 191.5 632.496094 185.914063 563 C 184.332031 543.328125 183 523.773438 183 504 C 183 496.691406 181 486.449219 185 480 M 1779 485 C 1780.203125 543.363281 1775.433594 603 1762.5 660 C 1755.453125 691.144531 1747.640625 722 1732 750 C 1722.351563 767.832031 1710.710938 783.753906 1697.285156 799 C 1691.476563 805.597656 1685 814.234375 1677 818 C 1681.699219 797.453125 1696.230469 776.492188 1704.574219 757 C 1722.878906 714.21875 1738.675781 670 1750.988281 625 C 1759 595.308594 1767 565.503906 1771.574219 535 C 1773.761719 520.21875 1771.984375 498.195313 1779 485 M 1215 642 C 1214.339844 657.332031 1209.535156 672.824219 1207.300781 688 C 1202.992188 717.226563 1199.3125 746.617188 1196 776 C 1192.597656 809.328125 1189.746094 842.679688 1186 876 C 1184.734375 889.316406 1185 904.039063 1182 917 L 1181 917 C 1163.285156 848.53125 1175.824219 779.203125 1192.625 712 C 1196.75 695.503906 1201.289063 679.144531 1206.667969 663 C 1208.9375 656.179688 1210.441406 647.648438 1215 642 M 749 643 C 774.75 697.34375 787 761.453125 791 821 C 792.824219 846.347656 792 878 783 902 L 782 902 C 777.816406 888 778.527344 870.71875 776.714844 856 C 770.980469 809.453125 768.859375 762.386719 761.410156 716 C 758.789063 699.691406 756.765625 683.109375 753 667 C 751.613281 660.390625 746.703125 649.46875 749 643 M 499 660 C 523.289063 675.449219 549.992188 686.660156 574 703.027344 C 626 738.519531 671.886719 785.253906 704.8125 839 C 720.734375 865 737.464844 897 740 928 L 739 928 C 728.835938 906.230469 713.78125 887 700.515625 867 C 665.511719 814.496094 627.675781 764.105469 580 722.285156 C 560.816406 705.457031 540.257813 689.777344 519 675.667969 C 514 672.441406 498.855469 666.410156 499 660 M 1465 661 C 1455.882813 672.8125 1437.300781 681 1425 689.347656 C 1404.867188 703.195313 1385.367188 720 1368 737.003906 C 1313.507813 791 1274 854 1230 916 C 1227.292969 909.359375 1232.359375 899.441406 1234.507813 893 C 1241.574219 871.792969 1251.757813 852.566406 1264.167969 834 C 1299.859375 780.609375 1345.253906 735.503906 1398 699 C 1418.605469 684.707031 1441.304688 669.597656 1465 661 M 635 684 C 706.316406 742.078125 767 822.136719 767 917 L 766 917 C 743.507813 858.691406 719.878906 800.335938 683.574219 749 C 672.464844 733.285156 661.265625 717.625 648.714844 703 C 644.667969 698.285156 634.671875 690.53125 635 684 M 1330 685 C 1326.300781 693.296875 1318.65625 700 1313 707 C 1302.855469 719.609375 1293.433594 732.617188 1284.34375 746 C 1260.519531 781.074219 1243.777344 818.25 1227 857 C 1218.484375 877.199219 1206.738281 900.285156 1203 922 L 1202 922 C 1198.226563 909.210938 1202.789063 889.132813 1204.726563 876 C 1213 819.808594 1249 769.5625 1285.714844 728 C 1298.195313 713.820313 1313.546875 694.511719 1330 685 M 732 960 C 724.566406 954.296875 718.628906 945.195313 712.589844 938 C 700 923.015625 687.953125 907.515625 674.828125 893 C 633.75 847.5625 584.660156 806.273438 528 781.773438 C 515.679688 776.445313 503 770.042969 490 767 C 495.960938 764.566406 504 768.601563 510 770.289063 C 527.410156 775.292969 544.300781 781.574219 561 788.574219 C 616.4375 811.820313 667.375 847.1875 701.882813 897 C 714.328125 915 728.238281 938.128906 732 960 M 1473 766 L 1473 767 C 1414.320313 789.636719 1358.988281 820.230469 1314 865 C 1296 882.800781 1278 901.140625 1262.511719 921 C 1254 931.703125 1244.738281 949.007813 1233 956 C 1236.582031 932.078125 1253.820313 905.367188 1268.738281 887 C 1305.847656 841.304688 1355.523438 808 1410 786.199219 C 1429.546875 778.382813 1451.820313 767.730469 1473 766 M 661 932 L 661 933 C 647.347656 932.71875 633.683594 929.640625 620 929.039063 C 598 928.078125 574.964844 931.792969 554 938.203125 C 533.378906 944.511719 516.671875 957.554688 497 965 C 502.53125 953.644531 519.378906 945.574219 530 939.574219 C 567.207031 918.558594 622.207031 910 661 932 M 1467 967 C 1446 959.046875 1428 945.292969 1406 938.722656 C 1380.878906 931.234375 1354.175781 928.296875 1328 930.089844 C 1317.945313 930.777344 1308 933.566406 1298 934 C 1307.292969 924.613281 1325.5 922.609375 1338 921 C 1371.507813 916.210938 1407 926.148438 1436 942.71875 C 1446.835938 949 1459.71875 956.691406 1467 967 M 456 998 C 444.222656 1014.71875 426.230469 1027.222656 413.882813 1044 C 385.34375 1082.785156 366.289063 1130.242188 355.5 1177 C 349.25 1204.082031 344.257813 1232.203125 343 1260 C 342.40625 1274.429688 346.757813 1293.339844 343 1307 C 329.503906 1288.160156 327.945313 1256.234375 325.828125 1234 C 319.414063 1166.570313 344.972656 1098 389.257813 1047.425781 C 406.335938 1028 430.976563 1006.394531 456 998 M 822 1293 L 821 1293 C 818.199219 1281.25 817.867188 1269 815.339844 1257 C 802.296875 1196 786 1132 753.550781 1078 C 743.460938 1061.273438 730.960938 1045.65625 717 1032.015625 C 709.730469 1025 700 1019.019531 694 1011 C 785.433594 1037.140625 818 1138 823.910156 1223 C 825.511719 1246.402344 822.480469 1269.714844 822 1293 M 1264 1015 C 1259 1024.765625 1245.703125 1033 1238 1041 C 1224.410156 1055.253906 1213.191406 1072 1203.566406 1089 C 1182.492188 1126.535156 1166.914063 1167.25 1156.476563 1209 C 1150.449219 1233.101563 1147.914063 1258 1142 1282 C 1138.875 1276.121094 1140 1268.476563 1140 1262 C 1140 1247.265625 1140.316406 1232.671875 1140.960938 1218 C 1143.507813 1159.820313 1161.234375 1100 1200.832031 1056 C 1216.289063 1038.832031 1240.441406 1019.1875 1264 1015 M 1228 1142 L 1229 1142 C 1229 1158.019531 1231.1875 1174.121094 1237.425781 1189 C 1254.515625 1229.765625 1301 1261.363281 1344 1236 C 1351 1231.691406 1358.28125 1226.132813 1363.824219 1220 C 1390.40625 1190.578125 1395.347656 1144.671875 1383 1108 C 1376.203125 1087.039063 1362.28125 1074.679688 1346 1061 C 1359.480469 1057.015625 1378 1062.019531 1391 1066.332031 C 1458.382813 1088.792969 1477.703125 1166.210938 1443.773438 1225 C 1405.558594 1291.222656 1313.226563 1321.46875 1245 1282.421875 C 1226.492188 1271.828125 1198.5 1250 1194.9375 1227 C 1193.804688 1219.71875 1199.84375 1210.683594 1202.320313 1204 C 1209.949219 1183.382813 1217.65625 1161.402344 1228 1142 M 617 1061 L 617 1062 C 613.214844 1064.367188 596 1078 599 1083.203125 C 600 1085 606 1087 607.957031 1087.589844 C 612.9375 1089.324219 616 1079.136719 619 1076.175781 C 625.820313 1069.558594 635.480469 1065.152344 645 1066.175781 C 674.515625 1069.335938 685.226563 1110.300781 658 1125 C 647.703125 1130.5 634 1130.652344 624 1124.183594 C 620.507813 1122 616.429688 1114.167969 612 1114.039063 C 609.34375 1114 606.339844 1118 603.996094 1119.195313 C 600.238281 1121.28125 595 1121.5625 591 1120.605469 C 588.34375 1120 583.359375 1115.351563 580.820313 1117 C 576.492188 1119.585938 576.214844 1132.496094 575.964844 1137 C 574.839844 1157.164063 576 1177.144531 584.441406 1196 C 607.269531 1247.8125 668.339844 1260.527344 707 1218.535156 C 728.59375 1195.300781 734 1166.480469 734 1136 C 738 1138.515625 739.246094 1143.703125 741.175781 1148 C 745.609375 1158 749.578125 1168 753.601563 1178 C 757.726563 1188.3125 761.675781 1198.6875 765.800781 1209 C 767.5625 1213.40625 771 1219.125 770.503906 1224 C 769 1235.628906 756.539063 1249.796875 748.910156 1258 C 720.886719 1288.136719 677.824219 1302.78125 637 1298.828125 C 584.785156 1293.777344 538.339844 1263.117188 516.308594 1215 C 492.734375 1163.511719 505.738281 1099.066406 559 1072.371094 C 577 1063.289063 597 1061 617 1061 M 1268 1084.378906 C 1307.765625 1076.410156 1321.960938 1138 1282 1145.53125 C 1241.792969 1153.132813 1227 1092.578125 1268 1084.378906 M 492 1093 C 490.492188 1103.074219 486.242188 1113 484.464844 1123 C 480.1875 1147.429688 481 1173.808594 486.5 1198 C 491.503906 1220.144531 503.371094 1238.160156 511 1259 C 464.851563 1232.324219 451.765625 1167.671875 472.691406 1122 C 477.28125 1112 483 1100 492 1093 M 1474 1093 C 1511.796875 1130.464844 1507.652344 1194.300781 1477.347656 1234 C 1470.863281 1242.488281 1463.339844 1252.601563 1454 1258 C 1456.375 1248 1463.867188 1237.828125 1467.800781 1228 C 1475.613281 1208.464844 1480.472656 1188 1481.910156 1167 C 1483 1150.523438 1481.820313 1133.242188 1479 1117 C 1477.898438 1110.011719 1472.804688 1099.714844 1474 1093 M 1293 1325 C 1288 1332 1269.429688 1328.449219 1262 1328.035156 C 1228.242188 1326.152344 1187.355469 1303.207031 1178 1269 C 1189.933594 1274.710938 1200.449219 1287.191406 1212 1294.46875 C 1237 1310.28125 1263.984375 1319.59375 1293 1325 M 786 1272 C 784.660156 1289 780.871094 1312.039063 765 1321.71875 C 751.9375 1329.679688 736 1325.542969 722 1324.171875 C 708.902344 1323 696 1324 683 1324 C 687.96875 1320 695.902344 1319.117188 702 1317.28125 C 712.875 1314.003906 723.628906 1309.757813 734 1305.140625 C 745.476563 1300.027344 756.789063 1294 767 1286.570313 C 773.34375 1282.019531 779 1275.527344 786 1272 M 942 1341 C 935.347656 1364.054688 919.882813 1383.773438 919 1409 C 926.546875 1399.824219 932.472656 1382.761719 943 1377 C 940.894531 1386 941.65625 1395.058594 942.714844 1404 C 942.902344 1405.570313 942.339844 1413 944.898438 1413 C 947 1413 948.953125 1406.613281 949.707031 1405 C 953.578125 1396.699219 957.277344 1388.355469 961 1380 L 962 1380 C 964.464844 1388.265625 965 1396.792969 968.191406 1405 C 968.761719 1406.503906 970 1413 972.207031 1413 C 974.546875 1413 975.53125 1405.636719 976 1404 C 978.710938 1394.515625 981.222656 1385 982 1375 L 984 1375 C 985 1389.035156 990.953125 1403 996 1416 L 997 1416 C 999.796875 1404.253906 1003.480469 1391.113281 1004 1379 C 1010.453125 1384 1014 1398.699219 1017.917969 1406 C 1018.964844 1408 1020.679688 1413.75 1023 1414.367188 C 1025.804688 1415.0625 1025 1405.394531 1025 1404 C 1025 1392.804688 1022.476563 1382.09375 1022 1371 L 1023 1371 C 1029.398438 1386.359375 1040 1402.441406 1051 1415 C 1050.941406 1408 1049.308594 1401 1048 1394 C 1055.210938 1398 1060.542969 1407.511719 1065.371094 1414 C 1078.210938 1431.257813 1092.925781 1450.027344 1099 1471 C 1101.371094 1478.773438 1102.855469 1487 1101.382813 1495 C 1101 1497.027344 1100.558594 1501.605469 1097.929688 1502.078125 C 1094.785156 1502.644531 1087.441406 1492.683594 1084.910156 1490.574219 C 1075.472656 1482.714844 1064 1477.636719 1052 1475.464844 C 1028.445313 1471.214844 1007.199219 1481 984 1482 C 964.523438 1482.804688 945.425781 1475.207031 926 1474.210938 C 909.675781 1473.371094 891.707031 1479.625 879 1489.667969 C 876.449219 1491.683594 867.5 1504.425781 864.507813 1502.824219 C 861.589844 1501.261719 859.886719 1496 858.65625 1493 C 853.839844 1482 851.980469 1468.015625 853.574219 1456 C 858 1422.574219 869.972656 1393 892 1367 C 898.609375 1359.433594 906.503906 1348.765625 916 1345 C 905.757813 1364.242188 892 1384.394531 891 1407 L 892 1407 C 901.605469 1384 921.476563 1355.457031 942 1341 M 967 1608 C 961.578125 1605.230469 958.589844 1599 955.34375 1594 C 950 1586 945.292969 1576.515625 943.285156 1567 C 941.191406 1557.0625 942.992188 1547 940.484375 1537 C 936.695313 1522.070313 922.726563 1512.175781 908 1510 L 908 1508 C 917.816406 1508 927.316406 1506.6875 937 1509.289063 C 979 1520.589844 960.675781 1577.335938 967 1608 M 1054 1510 C 1042.554688 1515.605469 1032 1517.445313 1025.542969 1530 C 1020.476563 1539.6875 1022.867188 1550.636719 1021.828125 1561 C 1020.324219 1576.070313 1012.175781 1597.46875 1000 1607 C 1000.226563 1596 1002.257813 1585.136719 1001.984375 1574 C 1001.609375 1558.671875 998 1542.175781 1005.902344 1528 C 1013.386719 1514.542969 1038.933594 1501 1054 1510 M 601 1528 L 442 1527 C 450.835938 1521.601563 465.835938 1522 476 1521 C 505.28125 1517.699219 535.6875 1515.515625 565 1519.425781 C 574.289063 1520.664063 594.898438 1520 601 1528 M 1520 1526 L 1520 1527 C 1470.542969 1526 1421.535156 1528 1372 1528 L 1372 1526 C 1420.878906 1518.8125 1471.207031 1512.289063 1520 1526 M 736 1522 L 735 1523 L 736 1522 M 354 1857 L 353 1857 C 353 1774.832031 340 1685.8125 282.828125 1622 C 270.53125 1608.3125 256.792969 1596 241 1586.449219 C 232.90625 1581.566406 222.21875 1578.832031 215 1573 C 222.679688 1571 233.183594 1573.628906 241 1575 C 272.800781 1580.175781 300.816406 1598 319.703125 1624 C 365.652344 1687.503906 386.871094 1783 354 1857 M 1752 1575 C 1745.222656 1582.417969 1732.4375 1586.542969 1724 1592.347656 C 1710.277344 1601.789063 1697.992188 1614.15625 1687.464844 1627 C 1633.652344 1692.65625 1622 1777.238281 1622 1859 C 1617 1853.785156 1615.796875 1844 1613.859375 1837 C 1607.714844 1815.289063 1604.695313 1790.429688 1606.828125 1768 C 1614.402344 1688.449219 1655.175781 1575.265625 1752 1575 M 720 1595 C 705.808594 1599.804688 688.851563 1600.390625 674 1602.285156 C 649.253906 1605.445313 624.550781 1610 600 1614.425781 C 582.21875 1617.636719 564.527344 1622 547 1626.375 C 537.820313 1628.671875 528.503906 1632.585938 519 1633 C 529 1623.542969 545.4375 1618 558 1612.578125 C 593.28125 1597.523438 632.472656 1588.003906 671 1588 C 684.597656 1588 708.464844 1587 720 1595 M 1450 1634 L 1450 1635 C 1403.792969 1622.640625 1358.328125 1612.039063 1311 1604.4375 C 1289.863281 1601.042969 1265.25 1602 1245 1595 C 1256.277344 1589 1272.585938 1590.011719 1285 1588.828125 C 1338.953125 1583.695313 1405.8125 1602.625 1450 1634 M 745 1625 L 745 1626 C 703.476563 1647 655.316406 1653.515625 611 1666 C 616.503906 1657.425781 632.910156 1651.5625 642 1647.375 C 673.847656 1632.691406 709.945313 1625 745 1625 M 1358 1665 L 1358 1666 C 1324.4375 1661.476563 1289 1650.226563 1257 1639.492188 C 1248 1636.484375 1228.679688 1632.71875 1223 1625 C 1271.699219 1625.132813 1316 1641.738281 1358 1665 M 244 1839 L 242 1839 C 240.351563 1818.292969 232.351563 1796.613281 225.832031 1777 C 213.636719 1740.292969 200.429688 1704.015625 179.9375 1671 C 172.707031 1659.351563 162.796875 1650.070313 155 1639 C 173.964844 1643.339844 192.535156 1663.070313 203.621094 1678 C 236.496094 1722.273438 244 1785.523438 244 1839 M 1815 1645 C 1810 1655 1802.363281 1663.402344 1796.871094 1673 C 1785.464844 1693 1775.449219 1714 1766.425781 1735 C 1757.640625 1755.597656 1749 1776.511719 1742.722656 1798 C 1738.8125 1811.113281 1736.816406 1825.234375 1732 1838 C 1727 1826.328125 1733.5 1806.28125 1734.835938 1794 C 1739.375 1752.222656 1753.527344 1705.359375 1781.285156 1673 C 1790 1662.777344 1801.84375 1649.363281 1815 1645 M 762 1655 C 746.417969 1665.46875 722.972656 1669.234375 705 1674 C 715.277344 1662 746.417969 1652.375 762 1655 M 1259 1671 L 1259 1672 C 1246.183594 1671.441406 1232 1665.558594 1220 1661.34375 C 1215.28125 1659.691406 1208.90625 1658.261719 1206 1654 C 1224.210938 1654.378906 1243.371094 1662.074219 1259 1671 M 195 1848 C 183.855469 1841.621094 173.707031 1829.695313 164 1821.15625 C 134.234375 1795 108 1769.148438 102.71875 1728 C 100.984375 1714.644531 100.867188 1701.242188 103.886719 1688 C 104.503906 1685.296875 105.53125 1677.445313 108.558594 1676.347656 C 111.75 1675.1875 116 1681.105469 117.984375 1683 C 126.265625 1691.472656 133 1701.171875 139.667969 1711 C 165.929688 1750.394531 187 1801.121094 195 1848 M 1809 1766 C 1808.367188 1780 1797.988281 1806.605469 1824 1804 C 1827.820313 1803.566406 1831.324219 1802.003906 1835 1801 C 1828.332031 1814.65625 1806.914063 1823.5625 1795.960938 1834.09375 C 1790.859375 1839 1786 1846.035156 1779 1848 C 1783.660156 1827.675781 1789.695313 1807.203125 1797.851563 1788 C 1800.96875 1780.65625 1803.21875 1771.722656 1809 1766 M 865 1797 C 922.714844 1828.484375 998.917969 1827.207031 1061 1812.496094 C 1075.457031 1809.070313 1088.730469 1801.390625 1103 1798 C 1094 1809.535156 1077 1817.480469 1064 1823.371094 C 1020.570313 1843.03125 967.167969 1844 922 1830.023438 C 906 1825.117188 891 1817.445313 877 1808.410156 C 873.429688 1806.109375 864.878906 1801.640625 865 1797 "/>
</g>
</svg>
