<svg xmlns="http://www.w3.org/2000/svg" xmlns:xlink="http://www.w3.org/1999/xlink" viewBox="0 0 100 100" version="1.1"><g transform="translate(13.729186117799095, 1) scale(0.052861468306121304) translate(-224.625, -77.097656)"><path style=" stroke:none;fill-rule:nonzero;fill:rgb(0%,0%,0%);fill-opacity:1;" d="M 732 539 C 738.664063 539.542969 744.722656 542 751 544 L 751 545 C 729.3125 550.609375 711.753906 543.574219 691 540 C 696.46875 554.425781 709 560 719 570 C 702.632813 570 686.296875 568.40625 672 559.53125 C 665.769531 555.664063 661.644531 549.097656 655 546 C 657.691406 560 662 572.527344 672.171875 583 C 677.601563 588.53125 684.78125 592.304688 690 598 C 674 598.132813 651.246094 604.464844 644 620 C 647.929688 620 662.796875 618.632813 664.832031 622.742188 C 666.597656 626.300781 657 634.460938 655 637 C 648 645.554688 640.84375 654 634.671875 663 C 631 668.1875 627 676.527344 621.789063 680.066406 C 613.234375 686 593 681.21875 583 682 C 530.679688 685.492188 480.265625 690.40625 430 707 C 394.261719 718.796875 360.539063 733.078125 327 750.117188 C 298.984375 764.347656 270.726563 783.308594 248 805.039063 C 239.78125 813 228.753906 822.242188 226.378906 834 C 224.625 842.683594 229.363281 852.078125 232.320313 860 C 241 883.324219 254.683594 905.171875 268 926 C 325.285156 1014.453125 407 1080.3125 499 1129.691406 C 523 1142.675781 549.878906 1153.660156 576 1162 C 586.566406 1165.332031 606.375 1167.300781 614.695313 1174.5625 C 622.304688 1181.203125 623.566406 1202.484375 626.671875 1212 C 635.492188 1239.066406 647 1265.695313 662 1290 L 663 1290 C 662.273438 1273.113281 656.3125 1255 659 1238 L 660 1238 C 662.335938 1264.773438 676 1292.460938 688 1316 L 689 1316 C 688.699219 1301.425781 680.585938 1285.507813 684 1271 C 693.726563 1290.378906 697.789063 1311.4375 710 1330 C 713.949219 1336 717.609375 1343.390625 724 1347 C 721.640625 1333.28125 715.609375 1320.132813 715 1306 L 716 1306 C 724.371094 1330.578125 746.421875 1361 769 1374 C 765.925781 1360.433594 757.722656 1347.613281 754 1334 L 755 1334 C 763.738281 1351.117188 782.222656 1367 798 1377.332031 C 803.308594 1381 810.464844 1386.4375 817 1386 C 812.742188 1378.355469 806.5 1371.492188 804 1363 C 815.183594 1374.183594 826.945313 1385.433594 842 1391.117188 C 845.523438 1392.445313 851 1396.054688 854.960938 1395.183594 C 860.3125 1394 864.1875 1385.09375 867 1381 C 877 1367.355469 886.476563 1353.453125 896.625 1340 C 922.640625 1305.515625 952 1272.5625 985 1244.429688 C 997 1234.140625 1009 1224.0625 1022 1215 C 1026.96875 1211.304688 1036.691406 1207.578125 1039.972656 1202.472656 C 1043.21875 1197.414063 1038.691406 1187.773438 1039.175781 1182 C 1040.292969 1168.632813 1044.328125 1155.390625 1051.464844 1144 C 1055 1138.214844 1059.945313 1132.652344 1066 1129.351563 C 1068.34375 1128.074219 1075.273438 1127.585938 1075.878906 1124.683594 C 1077.453125 1117.136719 1069.335938 1104.039063 1068.289063 1096 C 1065 1071.167969 1074.375 1046.804688 1093 1030.175781 C 1114.222656 1011.226563 1144.621094 1006.550781 1172 1009.171875 C 1179.933594 1010 1189.269531 1014.488281 1196.945313 1014.164063 C 1201.296875 1014 1203.617188 1007.019531 1205.898438 1004 C 1210.902344 997.386719 1217.605469 992.125 1225 988.371094 C 1236 982.714844 1252.402344 978.117188 1265 979.300781 C 1270.644531 979.828125 1285 986 1289.675781 984 C 1292.863281 982.382813 1295 977.632813 1297.261719 975.003906 C 1303.386719 967.507813 1309.882813 960.261719 1316.285156 953 C 1333.636719 933.320313 1353.824219 915.601563 1375 900.152344 C 1384 893.511719 1393.425781 887.128906 1403 881.191406 C 1407 878.710938 1413.613281 876.152344 1415.972656 872 C 1419.535156 865.464844 1417 852.242188 1417 845 L 1417 544 C 1417 537.523438 1418.941406 527.300781 1416.398438 521.289063 C 1411.820313 510.492188 1394.992188 507 1388 498 C 1396.464844 499.140625 1403.902344 502.683594 1412 505 C 1407 496 1395 491.152344 1386 487.140625 C 1364.847656 477.789063 1342.949219 471.140625 1321 464 L 1321 463 C 1331.800781 463 1341.378906 464.628906 1352 466 C 1342 456.691406 1323 457.285156 1314.648438 447.722656 C 1306.839844 438.820313 1303 422.660156 1297.753906 412 C 1284.886719 386.261719 1271.382813 361 1255.328125 337 C 1199.96875 254.46875 1127 183.578125 1041 133.574219 C 1009.945313 115.542969 977.746094 101.042969 944 89 C 932.554688 85 913.621094 77.097656 902 83.417969 C 894.195313 87.660156 889.386719 96 884.425781 103 C 871.882813 120.765625 861.722656 141.046875 853 161 C 819.636719 239.023438 804.996094 319.347656 806 404 C 806.25 424.621094 809 445.78125 813.199219 466 C 814.464844 472.308594 820.777344 485.777344 818.507813 491.785156 C 816 498 800.664063 502 795 504.425781 C 779.957031 511 765.675781 519.414063 751 526.753906 C 744.855469 529.824219 735.675781 533 732 539 M 1489 1139 C 1462.507813 1112.511719 1422.207031 1103.054688 1392 1130.730469 C 1386.257813 1136.085938 1379 1143.175781 1377 1151 C 1399 1148.203125 1429.894531 1153.722656 1445 1172 C 1425.503906 1172 1404.347656 1177.398438 1389 1190.199219 C 1386.496094 1192.289063 1374.726563 1201.523438 1376.347656 1205.171875 C 1377.347656 1207.429688 1389.417969 1208 1392 1208.628906 C 1407.59375 1212.503906 1422.21875 1219 1437 1225 L 1437 1226 C 1415.449219 1231.589844 1385.964844 1261.699219 1367 1240 L 1366 1240 C 1373.429688 1278.527344 1423.726563 1293.152344 1456 1280.535156 C 1469.738281 1275.164063 1477.484375 1265.128906 1489 1257 C 1483.449219 1273.011719 1472 1288 1459 1298.535156 C 1455.8125 1301.148438 1439.601563 1308.011719 1438.921875 1311.300781 C 1438.367188 1314 1450 1322 1451.984375 1324 C 1461.179688 1333.414063 1468.226563 1345.828125 1470 1359 C 1442 1331.046875 1396.675781 1317.394531 1365 1349.015625 C 1359.933594 1354.089844 1354.59375 1360.253906 1352 1367 C 1373.1875 1358.089844 1391.328125 1354.550781 1414 1363 C 1394 1371.398438 1364 1375.792969 1356 1400 C 1376.996094 1400.003906 1396 1407.25 1416 1413 C 1404.527344 1419.046875 1393.238281 1423.21875 1383 1431.617188 C 1375.304688 1438 1366.191406 1455.390625 1356 1456.730469 C 1351.652344 1457.304688 1347.839844 1454.535156 1344 1453 C 1350.597656 1490.003906 1395.347656 1515.296875 1430 1503.644531 C 1449.816406 1497 1461.34375 1483 1475 1468 C 1473.777344 1480.273438 1466.917969 1493.292969 1459.625 1503 C 1456 1507.710938 1448 1513.195313 1447 1519.089844 C 1444.941406 1532.308594 1447 1547.585938 1447 1561 C 1447 1589.355469 1446.722656 1617.71875 1447.960938 1646 C 1450.546875 1705.140625 1447 1765.605469 1447 1825 L 1447 1894 C 1447 1899.777344 1445.476563 1916 1449 1920.398438 C 1451.921875 1924.0625 1464.566406 1923.664063 1469 1924.074219 C 1473.8125 1924.523438 1485 1928.527344 1489.398438 1925.800781 C 1493.199219 1923.363281 1491 1909.089844 1491 1905 L 1491 1385 C 1491 1354.226563 1487.847656 1321.582031 1491 1291 C 1492 1281.796875 1500 1272.5625 1503.546875 1264 C 1510.550781 1246.714844 1515.96875 1226.761719 1516 1208 C 1516 1186.109375 1515.542969 1164 1508.304688 1143 C 1505.402344 1134.59375 1502.464844 1126 1498.476563 1118 C 1495.460938 1112 1490.90625 1107.03125 1490.714844 1100 C 1488.992188 1036.820313 1491 973.226563 1491 910 L 1491 113 C 1491 107.609375 1493.867188 90 1489.972656 86.027344 C 1487.613281 83.691406 1481.746094 86 1479 86.390625 C 1471.921875 87.714844 1447.84375 88.382813 1447 97.019531 C 1444.675781 123.203125 1447 150.695313 1447 177 L 1447 1065 C 1447 1072.035156 1445.464844 1081.140625 1447.316406 1088 C 1448.871094 1093.640625 1462.371094 1098.484375 1466.910156 1102.589844 C 1477.363281 1112.046875 1485.285156 1125.417969 1489 1139 M 1526 85 C 1525.230469 178.203125 1523 271.726563 1522 365 C 1519.1875 602 1523 839.027344 1522 1076 C 1520.972656 1288.554688 1519.476563 1501.363281 1522 1714 C 1522.863281 1786.289063 1525.402344 1858.773438 1526 1931 L 1527 1931 C 1529.675781 1919.765625 1528.304688 1907.472656 1529 1896 C 1531 1865.699219 1531.710938 1835.347656 1533 1805 C 1537.476563 1703.703125 1539.53125 1602.429688 1542 1501 C 1546.535156 1316.363281 1544.199219 1130.664063 1542 946 C 1540.542969 823.050781 1543.414063 699.765625 1538 577 C 1532.863281 458.777344 1536.214844 340.1875 1531 222 C 1529.652344 190.339844 1529.425781 158.640625 1528 127 C 1527.488281 114.40625 1530.910156 96.703125 1526 85 M 1000 349 C 996.773438 360 990 369.820313 987 381 C 981.902344 399.40625 982 418.078125 982 437 L 984 437 C 986 411.523438 1021.765625 378.21875 1047 376 C 1037.847656 387.351563 1026.832031 396.566406 1018.695313 409 C 992.40625 449.167969 982.855469 495.640625 984 543 C 984.378906 558 990.558594 571.519531 992 586 L 991 586 C 958.460938 536.664063 953.988281 466 968.527344 410 C 973.726563 390.03125 982.484375 361.605469 1000 349 M 952 363 C 947 382.457031 937 400.023438 933 420 C 923.722656 465.523438 931.207031 510 943 554 C 932.363281 545 928.335938 524.132813 925 511 C 915.863281 473.035156 918.269531 431.101563 933.71875 395 C 938 384.648438 943.179688 370.308594 952 363 M 1116 414 L 1116 415 C 1068 442.265625 1042.425781 491.707031 1037.171875 546 C 1035.664063 561.546875 1038.871094 576.65625 1039 592 C 1029.527344 580.265625 1028.230469 558.457031 1026.828125 544 C 1021.410156 488 1049.496094 414.042969 1116 414 M 1140 470 C 1134.800781 480.671875 1121 489.464844 1113.449219 499 C 1096.34375 520.507813 1083 545.421875 1076 572 C 1072.453125 563.546875 1077.234375 549.554688 1079.375 541 C 1087.230469 509.59375 1106.402344 477.773438 1140 470 M 1112 797 L 1113 797 C 1113 818.152344 1117.496094 839.417969 1127.863281 858 C 1136.238281 873.015625 1147.882813 886.394531 1162 896.277344 C 1172.234375 903.441406 1184.722656 909.171875 1197 911.714844 C 1278.480469 928.601563 1340.433594 843.113281 1304.394531 770 C 1296.714844 754.417969 1284.601563 741 1271 730.210938 C 1255.230469 718 1236.542969 712.46875 1217 710 C 1229.171875 701.683594 1257.621094 713 1270 717.308594 C 1327.199219 737.734375 1353.839844 801.597656 1335.804688 858 C 1308.664063 943 1183 984.253906 1127.347656 903 C 1116.6875 887.472656 1110.773438 869.480469 1107.753906 851 C 1104.863281 833.3125 1107.179688 814.113281 1112 797 M 1167 736.300781 C 1222 731 1226 817.417969 1172 822.828125 C 1165.996094 823.429688 1159.796875 823 1154 821.25 C 1105.644531 807.273438 1122 740.710938 1167 736.300781 M 665 822 L 665 823 C 636.765625 820.753906 609.84375 812.113281 581 814.089844 C 561.609375 815.417969 542.472656 818.628906 524 824.742188 C 515.1875 827.660156 506.96875 832.757813 498 835 C 507.3125 823.761719 527.347656 817.730469 541 814 C 581.269531 802.445313 627 801.816406 665 822 M 1590 824 C 1586.523438 851.511719 1588 880.257813 1588 908 C 1588 945.359375 1587.179688 982.621094 1587 1020 C 1586.480469 1128 1585 1236 1585 1344 C 1585 1412.417969 1586.3125 1480.710938 1587.984375 1549 C 1588.582031 1573.378906 1588.246094 1597.691406 1589.910156 1622 C 1590.566406 1631.597656 1588.757813 1641.578125 1591 1651 L 1592 1651 C 1592 1583.414063 1595.511719 1515.648438 1595.996094 1448 C 1596.921875 1319 1594.539063 1189.183594 1593 1060 C 1592.5625 1023 1592 986 1592 949 C 1592 925.140625 1593.429688 900.738281 1591.171875 877 C 1589.675781 861.289063 1596 838.496094 1590 824 M 703 867 L 703 868 C 649.371094 868 593.378906 890.105469 553 924.730469 C 533.890625 941.113281 515.761719 962.226563 509 987 L 508 987 C 508 953.566406 527.324219 916.789063 551 894.039063 C 560.191406 885.207031 570.441406 877 582 871.386719 C 584 870.410156 593.945313 867.613281 593.945313 865.015625 C 593.945313 862.75 589.359375 863.03125 588 863.003906 C 580.773438 863 573.167969 862.449219 566 863.425781 C 534.851563 867.664063 515.21875 880.628906 490 898 C 496 878.734375 520.410156 863.40625 538 856 C 575 840 618.917969 848.183594 657 855.800781 C 672 858.8125 688.824219 861 703 867 M 1282 1022 C 1291.828125 1017.417969 1300.257813 1007.070313 1309 1000.476563 C 1329.175781 985.253906 1349.664063 970.28125 1371 956.695313 C 1380.613281 950.574219 1390.816406 945.339844 1401 940.246094 C 1405.367188 938.0625 1412 936.078125 1415.398438 932.363281 C 1420.527344 926.542969 1417 906.566406 1417 899 C 1417 896.5 1418 890.722656 1415.972656 888.828125 C 1413.679688 886.707031 1407.890625 891.328125 1406 892.589844 C 1396.242188 899.113281 1386.394531 905.707031 1377 912.746094 C 1350.683594 932.464844 1328.320313 956.585938 1307.691406 982 C 1298.878906 993 1285.171875 1008.164063 1282 1022 M 683 910 L 683 911 C 628.582031 939 563 983.269531 546 1046 C 541.34375 1034.800781 551.945313 1012.707031 555.949219 1002 C 574.375 952.746094 629.445313 911.105469 683 910 M 1306 1034 C 1313.675781 1031.460938 1320.664063 1025.832031 1328 1022.257813 C 1345.710938 1013.632813 1363.625 1006 1382 998.8125 C 1390.84375 995.398438 1408.703125 993.730469 1415.398438 987.15625 C 1419.996094 982.640625 1417 965.183594 1417 959 C 1417 956.714844 1417.699219 952.546875 1415.972656 950.707031 C 1413.988281 948.59375 1409.996094 951.265625 1408 952.140625 C 1400 955.601563 1392.445313 959.664063 1385 964.011719 C 1356.695313 980.535156 1319.320313 1002.328125 1306 1034 M 658 978 C 653.921875 987 645.605469 994.179688 639.746094 1002 C 621.183594 1026.773438 595.65625 1057.339844 591 1089 L 589 1089 C 589.859375 1047.332031 618.757813 995 658 978 M 1317 1049 C 1339.570313 1046.753906 1362.246094 1040 1385 1037.285156 C 1393.601563 1036.265625 1406.863281 1038.296875 1414.683594 1034.398438 C 1417 1033.195313 1416.953125 1030.316406 1416.996094 1028 C 1417 1022.628906 1419.640625 1006.785156 1415.972656 1002.695313 C 1412.421875 998.730469 1395.304688 1007.046875 1391 1008.425781 C 1371.898438 1014.546875 1352.976563 1024 1336 1034.574219 C 1330 1038.316406 1320.824219 1043.035156 1317 1049 M 782 1104 L 783 1104 C 791.648438 1129.546875 794.601563 1151.523438 813.289063 1173 C 856.566406 1222.738281 939 1218.328125 971.6875 1159 C 979.996094 1144 982 1127 982 1110 C 981.933594 1096.386719 978.242188 1082.171875 972.242188 1070 C 965.21875 1055.746094 955.238281 1042.523438 943 1032.324219 C 924.988281 1017.316406 905.1875 1013.121094 883 1009 C 895.660156 1002.269531 918.285156 1010.023438 931 1014 C 985.945313 1031.050781 1018 1088 1005.984375 1144 C 987.183594 1231 874.652344 1265.800781 812 1201 C 799.722656 1188.148438 791.703125 1172.765625 786.167969 1156 C 780.671875 1139.363281 779.816406 1121.273438 782 1104 M 833 1035.300781 C 886.945313 1027.59375 896.753906 1112 843 1120.675781 C 837.207031 1121.621094 830.625 1121.300781 825 1119.703125 C 779.652344 1106.832031 788.183594 1041.703125 833 1035.300781 M 1106 1256 C 1090.925781 1290 1086 1330 1079 1366 L 1078 1366 C 1072.722656 1337.566406 1080.222656 1305.484375 1087.378906 1278 C 1090.519531 1266 1095.738281 1253.605469 1096 1241 C 1069.757813 1253 1053.910156 1292.042969 1041.976563 1317 C 1025.242188 1352 1007.640625 1390.675781 1000.460938 1429 C 992.253906 1472.796875 994 1517.121094 1000 1561 L 1001 1561 C 1003.875 1545.511719 1002.671875 1528.746094 1004.171875 1513 C 1007.261719 1480.550781 1011.675781 1447.488281 1020.425781 1416 C 1021.664063 1411.539063 1022.277344 1404.808594 1025.511719 1401.3125 C 1030.363281 1396.074219 1043.339844 1396.40625 1050 1394.574219 C 1053.625 1393.578125 1061.929688 1389.613281 1065.402344 1392.066406 C 1067.933594 1394 1067.742188 1399.261719 1068 1402 C 1069 1411.339844 1070 1420.703125 1071.421875 1430 C 1076 1461.480469 1083.804688 1494.25 1100 1522 L 1101 1522 C 1100 1511.375 1096 1500.625 1094.4375 1490 C 1090.621094 1466.242188 1088.574219 1442.015625 1087.984375 1418 C 1087.753906 1408.460938 1083.863281 1394.179688 1087.742188 1385.109375 C 1090.175781 1379.421875 1101.714844 1377.554688 1107 1375.398438 C 1124.324219 1368.320313 1140.472656 1359 1157 1350.253906 C 1160.914063 1348.203125 1174 1337.703125 1177.351563 1343.191406 C 1181.324219 1350 1181.441406 1359.457031 1182.171875 1367 C 1185.472656 1401.132813 1167.804688 1429.460938 1163 1462 C 1179.300781 1449.421875 1189 1426.242188 1203 1411 C 1199.964844 1428.019531 1188.800781 1446 1182.402344 1462 C 1171.5625 1489.332031 1165 1516.511719 1165 1546 L 1166 1546 C 1171 1524.085938 1179.574219 1503.796875 1195 1487 C 1190.585938 1499.148438 1184.476563 1510.535156 1180.722656 1523 C 1172 1551.6875 1170 1580.238281 1170 1610 L 1172 1610 C 1172.4375 1588.828125 1183 1570 1191 1551 L 1192 1551 C 1190.957031 1563 1186.601563 1575.117188 1184.464844 1587 C 1180.691406 1608 1179.328125 1631 1182 1652 L 1183 1652 C 1185.292969 1642.390625 1186.296875 1631.140625 1194 1624 C 1188.449219 1645.449219 1190.28125 1667.246094 1192 1689 L 1193 1689 C 1194.863281 1681.199219 1194.175781 1671.136719 1200 1665 C 1200 1676.492188 1198.921875 1688.597656 1200.425781 1700 C 1200.980469 1704.214844 1200.394531 1709.253906 1204 1712 L 1205 1699 L 1206 1699 C 1208.96875 1711.054688 1210 1723.449219 1215 1735 L 1216 1735 L 1216 1723 C 1229.707031 1747.085938 1239.8125 1771.304688 1259 1792 C 1271 1805 1284 1816.472656 1298 1827.117188 C 1304.660156 1832.195313 1313.21875 1836.035156 1319 1842 C 1230.179688 1842 1141.691406 1842.078125 1053 1846 C 1015.566406 1847.601563 977.1875 1846.542969 940 1851.425781 C 910.9375 1855.238281 881.195313 1857 852 1860.167969 C 847.472656 1860.671875 825.636719 1863 825.636719 1869 C 825.636719 1871.820313 829.90625 1873 832 1873.558594 C 839.695313 1876 848 1876.609375 856 1878 C 889.304688 1883.425781 924.308594 1886.429688 958 1888 C 1000.328125 1890 1042.730469 1894.015625 1085 1897 C 1155.890625 1901.765625 1227 1903 1298 1906.039063 C 1325 1907.226563 1353 1905.601563 1380 1908.171875 C 1388.691406 1909 1397.261719 1909 1406 1909 C 1408.691406 1909 1413 1909.773438 1415.398438 1908 C 1417.75 1906.109375 1417 1901.617188 1417 1899 L 1417 1561 C 1417 1554.171875 1418.6875 1544.769531 1416.683594 1538.226563 C 1415.21875 1533.453125 1397.78125 1533.378906 1393 1532.117188 C 1373.984375 1527.097656 1358.316406 1515.222656 1345 1501 C 1303.386719 1456.152344 1306.800781 1377 1351 1335.171875 C 1366.316406 1320.738281 1381.695313 1315.761719 1401 1310 L 1401 1309 C 1384.542969 1299.429688 1370 1290 1358.78125 1274 C 1328.835938 1232 1331.863281 1169.367188 1362.886719 1129 C 1372 1117.042969 1382.714844 1107.390625 1396 1100.179688 C 1400.753906 1097.597656 1414 1094.621094 1416.398438 1089.722656 C 1418.636719 1085 1417 1076.277344 1417 1071 C 1417 1065 1419.796875 1049.398438 1415.972656 1044.605469 C 1413 1041 1400.183594 1044.429688 1396 1044.828125 C 1374 1047 1354 1051.34375 1333 1057 C 1341.496094 1072.441406 1330.558594 1093.167969 1320 1105 C 1295.925781 1132.347656 1257.414063 1148.003906 1221 1138.242188 C 1216 1137 1211.257813 1134.683594 1207 1132 C 1200.351563 1127.550781 1191.222656 1119.644531 1190.601563 1111 C 1190.1875 1105.296875 1194.925781 1098.191406 1197 1093 C 1202.816406 1078.460938 1210.433594 1053 1197.890625 1039.335938 C 1195.496094 1036.734375 1192 1038.261719 1189 1038 C 1176.449219 1036.289063 1165.320313 1038.027344 1154 1044 C 1125.890625 1058.644531 1082 1097.105469 1093.574219 1134 C 1098 1148.058594 1128.683594 1144.46875 1139 1141.570313 C 1149.621094 1138.589844 1160.847656 1131.03125 1172 1131.03125 C 1192.429688 1131.03125 1201.179688 1158.484375 1202.828125 1175 C 1206 1208.082031 1188 1241.246094 1160 1258.386719 C 1140.941406 1270.015625 1121 1275.027344 1106 1256 M 1490 1139 L 1489 1140 L 1490 1139 M 813 1537 L 814 1537 C 827 1505.160156 843.316406 1475 860 1445 C 866.628906 1433.441406 873.785156 1415 884.324219 1406.523438 C 893.8125 1399.03125 915.808594 1413.671875 924.363281 1404.683594 C 931 1397.578125 934 1383.6875 938.859375 1375 C 953.179688 1349.171875 966.296875 1323.210938 983.425781 1299 C 998 1278.242188 1014.238281 1257.222656 1032 1239 C 1042.386719 1228.367188 1059.589844 1216.386719 1066 1203 C 1031.183594 1213.027344 1000.28125 1243.121094 974.574219 1267.195313 C 946.175781 1293.792969 922.253906 1323.09375 898.765625 1354 C 871.578125 1389.765625 846.476563 1427.53125 831 1470 C 823.738281 1490.496094 813.945313 1515.078125 813 1537 M 903 1567 L 904 1567 C 908.847656 1529.460938 921.640625 1492.472656 934.308594 1457 C 939 1443.527344 944.335938 1422.71875 954.390625 1412.226563 C 960 1406.277344 977 1407 985 1406.050781 C 988.511719 1405.65625 994.480469 1406 996.695313 1402.683594 C 1001.296875 1396 1002.324219 1383.828125 1004.886719 1376 C 1011 1357.285156 1018 1339 1026.308594 1321 C 1038.773438 1294 1052.976563 1268 1067.871094 1242 C 1073.519531 1232.191406 1082.929688 1223.523438 1087 1213 C 1077.765625 1216.550781 1068.617188 1224.804688 1061 1231.085938 C 1040.363281 1248.089844 1022.644531 1269 1006.347656 1290 C 945.441406 1369 898.65625 1465.5625 903 1567 M 1217 1799 C 1210.878906 1785.265625 1197.648438 1774.074219 1189.863281 1761 C 1172 1731 1159 1697.359375 1152.609375 1663 C 1150 1650 1148 1636.363281 1148 1623 C 1147.996094 1620 1149.601563 1610.417969 1146.398438 1608.605469 C 1143 1606.742188 1136.511719 1609.210938 1133 1609.726563 C 1120.308594 1611.597656 1107.605469 1613.578125 1095 1616 C 1052.757813 1624.109375 1008.800781 1628.6875 966 1632.828125 C 880.488281 1641.109375 791.777344 1647.671875 707 1629.660156 C 666 1621 622.875 1606.339844 592 1577 C 562.71875 1549 563.476563 1510 542.65625 1478 C 517.574219 1439.464844 465.71875 1429.730469 425 1447.285156 C 409.761719 1454 396.59375 1463.5 385.71875 1476 C 327.34375 1543.09375 350.242188 1644.710938 412 1701.714844 C 520.425781 1801.691406 675.480469 1815 816 1815 C 895 1815 974 1808.308594 1053 1803 C 1107.441406 1799.183594 1162.480469 1794.695313 1217 1799 "/></g></svg>