<svg xmlns="http://www.w3.org/2000/svg" xmlns:xlink="http://www.w3.org/1999/xlink" viewBox="0 0 100 100" version="1.1"><g transform="translate(6.772460179874223, 1) scale(0.052853227386817046) translate(-180, -77.484375)"><path style=" stroke:none;fill-rule:nonzero;fill:rgb(0%,0%,0%);fill-opacity:1;" d="M 1051 598 C 1068.734375 543.585938 1117.996094 496.28125 1162 461.660156 C 1174.671875 451.691406 1189.433594 444 1201.832031 434 C 1209.851563 427.386719 1189.722656 430.078125 1195.296875 423.046875 C 1214 399.277344 1244.855469 379.582031 1269 361.472656 C 1277.753906 355 1289 348.429688 1296 340 C 1287.179688 341 1278.742188 347 1271 351 C 1251.847656 361 1233.589844 372.3125 1216 385 C 1164.625 421.507813 1117.34375 468.183594 1078.664063 518 C 1066.6875 533.429688 1054.796875 549.4375 1044.425781 566 C 1037.683594 576.761719 1030.992188 591.128906 1022 600 C 1029.300781 543.464844 1073.378906 494.621094 1112 456 C 1121 447 1130 438 1140 429.753906 C 1145 425.503906 1152.804688 422 1156 416 C 1131.449219 416 1109.382813 417 1085 420 C 1087 418 1098.792969 413.460938 1098.792969 411.015625 C 1098.792969 407.445313 1083.417969 408.074219 1081 408 C 1062.167969 406.617188 1043.871094 405.796875 1025 407.089844 C 985 409.824219 944.578125 416.121094 907 430.746094 C 890.484375 437.171875 876 448.789063 860 455 C 877.582031 429.234375 903.8125 411.628906 933 401.496094 C 942.207031 398.296875 952.167969 394.210938 962 394 C 956.738281 380.328125 944.78125 367 937.425781 354 C 920.203125 323.585938 903.804688 292.683594 885.316406 263 C 867.199219 234 848.421875 205.441406 827.871094 178 C 808.664063 152.347656 788.5 125.453125 763 105.664063 C 753 98 738 88.746094 725 94.367188 C 704.199219 103.359375 707 139.671875 707 158 C 707 209.761719 711.230469 261.171875 708.960938 313 C 708.347656 327.007813 706.882813 341.171875 704.566406 355 C 703.5 361.351563 700 369.605469 701.292969 376 C 702.71875 384 711 392.21875 715.1875 399 C 725.296875 415.464844 734.8125 432.027344 742 450 C 753.878906 479.703125 769 527 747 555 C 747 457.800781 680.757813 364.003906 611.714844 301.484375 C 591 282.808594 568.410156 259.019531 543 247 C 546.945313 255.460938 555.507813 262.003906 561.574219 269 C 576.308594 286 591 303 605.730469 320 C 643.566406 364.207031 678.4375 411.089844 703 464 C 710.625 480.1875 718.867188 497.5625 723 515 C 706.679688 501.714844 694.605469 481.628906 679 467.089844 C 627 418.792969 561 373.121094 489 364 C 492.777344 370.019531 504.671875 372.140625 511 375.121094 C 526.96875 382.632813 542.992188 391.136719 558 400.425781 C 599.789063 426.289063 639.253906 456.109375 674 491 C 687.53125 504.589844 704.199219 519.761719 713 537 C 690.761719 521.03125 672.832031 500.796875 649 486.449219 C 598 455.753906 539.949219 449.671875 482 457 L 482 459 C 552.414063 459 621.179688 485.507813 677 527.769531 C 690.660156 538.113281 703.863281 549 716 561 C 719.582031 564.578125 726.992188 570.035156 725 576 C 722.503906 584.625 708.636719 581.535156 702 582.171875 C 681.960938 584.085938 660.40625 589.5625 645 603.183594 C 625 620.773438 623 645.328125 612.691406 668 C 599 697.523438 577.835938 722.007813 566.863281 753 C 549 803.324219 546.796875 860.539063 554 913 C 555.894531 926.792969 558.761719 940.472656 562 954 C 562.722656 957.027344 566.234375 965.625 562.511719 967.789063 C 558.996094 969.832031 549.546875 965.367188 546 964.140625 C 531.382813 959.074219 516.800781 954 502 949.414063 C 446.976563 932.609375 394.691406 922 337 922 C 323.390625 922 309.480469 922.808594 296 924.730469 C 291.414063 925.382813 284.972656 925.097656 282 929 C 356.605469 929 429.480469 950.078125 501 969 C 518.464844 973.476563 535.808594 978.671875 553 984.195313 C 555.480469 985 568.828125 989.023438 566 993.273438 C 563.472656 997.304688 547.324219 995.148438 543 995 C 519.390625 994 495.527344 992.410156 472 990.171875 C 408.648438 984.140625 338.972656 991 278 1009.035156 C 259.3125 1014.609375 242.210938 1023.394531 224 1030 L 224 1031 C 252 1030.765625 281.75 1021 310 1018.171875 C 363.730469 1013 420.171875 1011.046875 474 1016.171875 C 494.980469 1018.164063 516 1019.398438 537 1022.421875 C 541.941406 1023.136719 559.921875 1024.09375 553 1033.566406 C 548.554688 1039.667969 531.4375 1035.011719 525 1035 C 497 1035 469.777344 1037.132813 442 1039.089844 C 371.957031 1044.023438 295.441406 1068.746094 236 1106 C 221.652344 1115 207.617188 1124.390625 194.828125 1135.511719 C 189.484375 1140.160156 183 1144.464844 180 1151 C 191.390625 1146.210938 202 1138.21875 213 1132.308594 C 228.402344 1124 244.863281 1117.191406 261 1110.425781 C 321.421875 1085.089844 387.726563 1068 453 1062 C 477.6875 1059.628906 502.277344 1056.78125 527 1055.089844 C 532.761719 1054.695313 539.300781 1054.4375 544.996094 1055.445313 C 546.453125 1055.699219 550.800781 1056.328125 549.792969 1058.757813 C 546.953125 1065.589844 526.320313 1067 520 1068.210938 C 490 1074.671875 460.484375 1081.5 431 1090 C 357.675781 1110.652344 287.210938 1153.125 237 1210.574219 C 225.796875 1223.394531 216 1236.828125 206.667969 1251 C 202.3125 1257.5625 196.414063 1265.167969 195 1273 C 202.425781 1267.320313 207.730469 1258.828125 214 1252 C 225.226563 1240.046875 237.53125 1228.816406 250 1218.273438 C 303.632813 1173 364.308594 1137 431 1114.667969 C 448.332031 1109 466.855469 1100.453125 485 1098 L 485 1099 C 419.660156 1125.804688 360.941406 1168.199219 322.308594 1228 C 308 1250.023438 292 1281.242188 291 1308 L 292 1308 C 337.589844 1230 399.699219 1163.300781 483 1124.628906 C 499.195313 1117.109375 515.367188 1109.734375 532 1103.203125 C 537 1101.210938 546.402344 1096.160156 551.890625 1097.121094 C 558.488281 1098.277344 564.238281 1120.335938 567.308594 1126 C 580.675781 1150.65625 600.28125 1174 625 1187.691406 C 629.613281 1190.265625 642.96875 1200.078125 648.394531 1198.183594 C 650.820313 1197.335938 648.433594 1181.128906 648.871094 1178 C 651.257813 1160.820313 660.9375 1144 679 1140 C 683.925781 1138.777344 695.894531 1139 699.363281 1143.46875 C 701.503906 1146.253906 696.765625 1148.609375 694.996094 1150 C 687.710938 1155.332031 681.769531 1162 679.679688 1171 C 674.601563 1193.128906 690.3125 1214.628906 707 1227.371094 C 710.496094 1230.027344 728 1238.203125 725.363281 1243.003906 C 719.714844 1253.171875 701.988281 1262.578125 693 1270.078125 C 675 1285.058594 659 1303 645.722656 1322 C 594.667969 1394.71875 568 1484.449219 548.234375 1570 C 533.605469 1633 525.863281 1698.492188 523 1763 C 522.210938 1782 523 1801.058594 523 1820 C 523 1825.136719 525.226563 1837.210938 521.972656 1841.398438 C 519.578125 1844.480469 512.457031 1844 509 1844 C 496.9375 1844.058594 485 1844.71875 473 1845.015625 C 444.671875 1845.710938 416.269531 1848 388 1850 C 369.660156 1851.164063 350 1849.644531 332 1853 L 332 1854 C 379.996094 1863 431.359375 1860.757813 480 1864.089844 C 579.734375 1871 680 1872.535156 780 1875 C 794.953125 1875.351563 810.371094 1874.277344 825 1871.195313 C 831.214844 1870 839.667969 1865 845.910156 1865.351563 C 851 1865.75 856.574219 1875.511719 860 1879 C 868.320313 1887.410156 878.789063 1894.820313 890 1898.820313 C 905.527344 1904.359375 921.605469 1906.589844 938 1904.824219 C 945.402344 1904.03125 955.804688 1898.03125 962.910156 1899.132813 C 967.171875 1899.789063 970.921875 1906.105469 974 1908.816406 C 979.710938 1914 986.847656 1917.746094 994 1920.300781 C 1025.847656 1931.675781 1048.722656 1917.265625 1078 1908 C 1075.855469 1911 1066 1921 1067.347656 1924.410156 C 1068.871094 1928.429688 1079.621094 1928 1083 1928.425781 C 1101.476563 1930.828125 1122.285156 1924 1138 1914.546875 C 1143.960938 1911 1151.363281 1901.105469 1158 1900 C 1164 1899 1172.898438 1905 1179 1906.195313 C 1194.464844 1909.472656 1209.308594 1910.175781 1225 1909 C 1252.679688 1906.6875 1279.347656 1895.234375 1302 1879.652344 C 1311.367188 1873.210938 1321.285156 1859 1332 1855.722656 C 1338 1854 1344.84375 1855.332031 1351 1855 C 1369.285156 1853.65625 1387.683594 1853.761719 1406 1853 C 1453.183594 1851 1500.832031 1844.390625 1548 1844 C 1541 1832 1526.796875 1821.128906 1517 1811.039063 C 1498.480469 1791.683594 1481 1771.027344 1463 1751 C 1403.730469 1684.4375 1342.371094 1618.039063 1268 1567.746094 C 1220.378906 1535.539063 1168 1511.742188 1115 1490 L 1115 1489 C 1126.890625 1484.054688 1139.808594 1477.328125 1153 1477.054688 C 1165 1476.800781 1178 1482.488281 1189 1487.148438 C 1211 1496.585938 1232.207031 1507.652344 1253 1519.578125 C 1350.664063 1575.601563 1429.519531 1657.777344 1503.835938 1741 C 1525.710938 1765.5 1546.332031 1791.246094 1569 1815 C 1575.644531 1822 1586.609375 1837.535156 1596.171875 1839.722656 C 1603 1841.3125 1611 1839 1618 1838.171875 C 1633.644531 1836.675781 1649.335938 1835.371094 1665 1834 C 1669.675781 1833.589844 1683.964844 1834.199219 1686.972656 1830.398438 C 1688.910156 1828 1688 1823 1688 1820 L 1688 1794 C 1688 1757.113281 1685.207031 1721.121094 1677.488281 1685 C 1674.25 1669.828125 1669.84375 1655 1665.445313 1640 C 1664.601563 1637.144531 1659.644531 1627.625 1661.695313 1625 C 1662.988281 1623.328125 1666.945313 1626.492188 1668 1627.222656 C 1673.214844 1630.804688 1677.375 1636.203125 1683 1639 C 1680.425781 1620 1674 1600.699219 1669.375 1582 C 1659.511719 1542.539063 1649.5 1503.28125 1639 1464 C 1648.40625 1468.660156 1655.199219 1478.667969 1665 1482 C 1660.773438 1453.277344 1644.878906 1428.359375 1637 1401 C 1645.734375 1407.078125 1652.4375 1417.539063 1662 1422 C 1650.371094 1381.617188 1620.269531 1348.265625 1602 1311 C 1612.742188 1314.160156 1619.496094 1325.175781 1630 1328 C 1617.421875 1301.089844 1591.609375 1281.214844 1582 1253 C 1586.898438 1254.164063 1591 1257 1596 1258 C 1590 1242.445313 1581 1230.089844 1578.4375 1213 C 1569.175781 1153.582031 1591.640625 1089.488281 1623 1040 C 1639.78125 1013.632813 1661.402344 990.570313 1680.574219 966 C 1703.179688 937.03125 1723.332031 906.453125 1738.691406 873 C 1760.179688 826.191406 1771.886719 774.089844 1776.828125 723 C 1779.234375 698.144531 1776.78125 672.707031 1780.285156 648 C 1785.207031 613.300781 1798.96875 579.820313 1804.5625 545 C 1815.757813 475.300781 1813.933594 405 1806.828125 335 C 1800 268.109375 1779 194.265625 1743.425781 137 C 1728.664063 113.292969 1707.734375 85.152344 1678 81.289063 C 1648.707031 77.484375 1619 94.277344 1596 110.4375 C 1527.367188 158.535156 1476.578125 229.007813 1425.285156 294 C 1397.90625 328.691406 1370.328125 366.269531 1334 392.289063 C 1289.390625 424.238281 1232.890625 427.351563 1188 459.425781 C 1153.390625 484.15625 1124 515.199219 1096 547 C 1081.828125 563.28125 1068.183594 585 1051 598 M 1742 286 C 1753.839844 306.359375 1761.449219 332.132813 1766.652344 355 C 1783 427.480469 1777.550781 514.707031 1741.691406 581 C 1734.667969 594 1726.277344 608 1714.996094 617.699219 C 1698.917969 631.574219 1682.691406 636.511719 1676.734375 659 C 1672 676.386719 1669 694.035156 1662.945313 711 C 1653.882813 735.722656 1639.628906 758.128906 1623.765625 779 C 1617.632813 787.066406 1611.269531 795 1605 803 C 1603.917969 804.566406 1600.246094 810.832031 1597.652344 809.652344 C 1595.683594 808.757813 1595.992188 804.722656 1595.679688 803 C 1594.675781 797.472656 1592 792.242188 1590 787 C 1580.941406 762.117188 1572 732.246094 1590.519531 709.003906 C 1598.816406 698.582031 1620.617188 698 1624.484375 685 C 1627 676.304688 1621.75 666.789063 1618.605469 659 C 1613.5625 646.515625 1611.523438 633.734375 1619.785156 622 C 1633.550781 602.453125 1655.277344 610.277344 1670.714844 595.558594 C 1681.980469 584.820313 1690.203125 570.402344 1697.851563 557 C 1714.738281 527.398438 1726.949219 496.1875 1734.765625 463 C 1744.339844 422.339844 1746.492188 381.621094 1745.996094 340 C 1745.851563 327.746094 1744.316406 315.179688 1742.949219 303 C 1742.355469 297.71875 1739.949219 291.027344 1742 286 M 788 310 C 796.78125 322.28125 799.804688 342.5 803.476563 357 C 815.660156 405.117188 819.222656 455.765625 813 505 C 833.25 491.832031 859 487 883 487 L 883 488 C 827.371094 503 775 555.089844 771 614 C 768.835938 646.734375 781.980469 679 778.828125 712 C 775.273438 749.386719 761.617188 778.550781 746 812 C 754.730469 810 763 807.789063 772 806.574219 C 797.710938 803.078125 811.527344 824.34375 804.429688 848 C 799.324219 865.027344 785.488281 877 775.429688 891 C 770.8125 897.433594 766.71875 904.253906 764.761719 912 C 761.449219 925.085938 768.855469 934 771 946 C 763.929688 942.761719 758 937.015625 751 933.628906 C 742.179688 929.453125 732.550781 928.078125 723 926.589844 C 701.832031 923.289063 660 911.007813 643.480469 929.289063 C 631.195313 943 647.804688 967.628906 651.523438 982 C 654.804688 994.6875 654.167969 1009 659.335938 1021 C 666.613281 1038.058594 682.917969 1055 678.320313 1075 C 674.589844 1091.246094 656.90625 1105.042969 645 1115.675781 C 639.367188 1120.824219 631 1133.441406 623.984375 1135.742188 C 617 1138 607 1121.757813 604 1117 C 588.816406 1094.078125 584 1068 584 1041 C 584 957.667969 650.421875 885.730469 705 830 C 698.175781 833.183594 693.84375 840 687 843.339844 C 667.417969 853.140625 642.191406 849.617188 624 838.535156 C 588 816.667969 581.808594 774.132813 603.320313 740 C 607.839844 732.832031 613.261719 723 621 719 C 620.539063 740.585938 611.535156 760.257813 619.4375 782 C 628.894531 808.039063 654 818.742188 680 814.078125 C 687.566406 812.710938 696.804688 811.042969 702 805 C 680.484375 809 654.367188 806.046875 641.710938 786 C 625.605469 760.496094 635.34375 722 653.320313 700 C 658.859375 693.257813 666.199219 684.09375 675 682 C 662 705.730469 649.1875 726 659.898438 754 C 662.882813 761.820313 673.214844 779.050781 683.984375 774.648438 C 694.238281 770.464844 700.441406 752.164063 708.425781 744.441406 C 712.300781 740.6875 716.859375 738 722 736.21875 C 723.953125 735.585938 728.691406 735.296875 729.792969 733.277344 C 731 731 721.488281 727.511719 720 726.742188 C 710.726563 722 699.246094 710 710 700.277344 C 723.726563 688.148438 727.972656 711 735 715.785156 C 737.800781 717.585938 747 725.289063 749.183594 721.742188 C 753.921875 713.804688 752 700.804688 752 692 C 752 665.765625 745 639.277344 748.285156 613 C 750.984375 590.433594 755.746094 566.25 768.597656 547 C 778.519531 532.140625 799 521 800.828125 503 C 804.648438 463 804 419 798.574219 379 C 796.585938 364.417969 795.394531 349.410156 792.484375 335 C 791 327.675781 786.457031 317.316406 788 310 M 1264 496 L 1264 497 C 1227.410156 506.46875 1192.945313 519.507813 1160 538.285156 C 1139.398438 550.03125 1119.296875 568 1097 576 C 1100.945313 561.523438 1121.207031 548.453125 1133 540.339844 C 1170.417969 514.601563 1217.5625 493.292969 1264 496 M 714 537 L 713 538 L 714 537 M 1236 595 C 1205.507813 589.339844 1177 597.625 1147 600 L 1147 601 C 1157.949219 605 1169.851563 606.484375 1181 610.027344 C 1213.75 620.4375 1254.882813 640.648438 1271 673 C 1263.976563 670.761719 1258.347656 665.503906 1252 662 C 1239.445313 654.691406 1226.191406 648.242188 1213 642.3125 C 1184.597656 629.542969 1154.476563 622.089844 1124 616.390625 C 1111.746094 614.097656 1099 613.117188 1087 610.253906 C 1084.496094 609.660156 1076.523438 608.808594 1075.921875 605.605469 C 1075.328125 602.457031 1081.90625 600.300781 1084 599.453125 C 1093.402344 595.636719 1103.214844 592.796875 1113 590.152344 C 1142.386719 582.203125 1175 581.402344 1205 585.730469 C 1214 587.03125 1229.617188 588.089844 1236 595 M 1011 771 C 1011 790.464844 1014.460938 811.324219 1033 822.121094 C 1038.363281 825.246094 1046.914063 829.296875 1052.996094 826 C 1061.949219 821.054688 1067 808.28125 1072.226563 800 C 1080.765625 786.449219 1089.347656 778.09375 1105 774 C 1095 766 1079 769 1070.390625 759 C 1061.878906 749.078125 1067.75 732.765625 1082 735.34375 C 1089.304688 736.664063 1093.816406 743.199219 1099 747.820313 C 1104.941406 753.085938 1112 756.632813 1118 762 C 1122 747.710938 1119.394531 738.097656 1117 724 C 1154 735.828125 1157.730469 790.796875 1138.484375 818 C 1114.453125 852 1064.480469 866.109375 1025 858.691406 C 996.769531 853.386719 986.921875 822.105469 993.378906 797 C 995.796875 787.597656 1001.96875 775.398438 1011 771 M 1194.984375 778.207031 C 1201.507813 778.207031 1203.894531 795.453125 1203.984375 800 C 1204.398438 821 1186.289063 838.355469 1171 850.332031 C 1117 892.492188 1034.902344 913.679688 968 896.117188 C 957.984375 893.484375 944.410156 890.246094 937.53125 882 C 928 870.492188 940.921875 856.703125 953 855.183594 C 968.316406 853.257813 985.5 867.636719 1001 870.539063 C 1035.855469 877.070313 1074.21875 869.144531 1106 854.109375 C 1131.417969 842.089844 1153.820313 824.527344 1172.910156 804 C 1178.703125 797.769531 1183.480469 790.726563 1188.652344 784 C 1190 782.199219 1192.34375 778.207031 1194.984375 778.207031 M 1429 1264 C 1417.949219 1256.214844 1409.171875 1245 1398.714844 1236.292969 C 1374 1216 1348.167969 1197.347656 1321 1180.425781 C 1236.46875 1127.777344 1139 1095.078125 1043 1071 C 998.386719 1059.671875 952.890625 1053.542969 908 1044 C 899 1042 887 1039.023438 878 1041.316406 C 872.675781 1042.660156 869.703125 1048.15625 872.742188 1053 C 880.183594 1064.800781 903.621094 1066.761719 916 1070.152344 C 954.316406 1080.644531 993.269531 1090.546875 1031 1103 C 1148.484375 1141.777344 1265.511719 1192.4375 1350.171875 1286 C 1371.195313 1309.234375 1391.378906 1334 1405.753906 1362 C 1410 1370.289063 1416.34375 1378.71875 1418 1388 C 1413.617188 1385.140625 1411.386719 1379.289063 1408.480469 1375 C 1403 1367.121094 1397 1359.554688 1391.253906 1352 C 1376 1332.292969 1357.390625 1313.808594 1339 1297.171875 C 1274.539063 1239 1200.40625 1195 1122 1158.121094 C 1054.289063 1126.351563 980.917969 1105 908 1089.488281 C 890.867188 1086 871.476563 1081 854 1080.039063 C 848 1079.757813 838.390625 1080.074219 837.660156 1088 C 836.585938 1099.699219 865 1105.175781 873 1108.191406 C 913.515625 1123.535156 955 1136.203125 995 1153 L 995 1154 C 977.644531 1153.109375 959 1145.679688 942 1142 C 916.210938 1136.136719 890 1133 864 1128.566406 C 854.785156 1127.019531 824.8125 1117 820.996094 1130.015625 C 818.269531 1139.382813 833.746094 1144.636719 840 1147.347656 C 863.695313 1157.617188 888.222656 1168 911 1180 C 906.386719 1183.492188 898.59375 1182 893 1182 C 876.691406 1182 861 1181.140625 845 1178.433594 C 800.863281 1171.015625 758.324219 1150.398438 728.253906 1116.574219 C 700.617188 1085.488281 694.371094 1051.667969 724.171875 1019.003906 C 734.679688 1007.484375 750.710938 1005.566406 765 1001.441406 C 777.453125 998 789.476563 992.101563 801 986.242188 C 806 983.632813 820.210938 972 825.726563 973.527344 C 829.378906 974.550781 832.902344 984 835 987 C 841.316406 995.257813 850 1001.796875 859 1006.828125 C 873.855469 1015.183594 891.734375 1019.226563 908 1024 C 923 1028.261719 937.851563 1034 953 1038.253906 C 1000.453125 1051.632813 1049.207031 1058.523438 1097 1070.476563 C 1183.429688 1092.089844 1270.835938 1128.015625 1342 1182.347656 C 1364 1199.199219 1385.328125 1216.328125 1405 1236 C 1413.257813 1244.257813 1423.632813 1253.515625 1429 1264 M 838 1032.742188 C 826.378906 1037.449219 835 1055.011719 845.996094 1051.09375 C 858.765625 1046.472656 850 1028 838 1032.742188 M 802 1066.667969 C 788.890625 1070.441406 796.207031 1089.773438 808.984375 1085.8125 C 821.238281 1082.011719 813.390625 1063.390625 802 1066.667969 M 790 1108.523438 C 777.8125 1110.691406 783.503906 1129.261719 794.996094 1127.730469 C 808.238281 1126 802.789063 1106.25 790 1108.523438 M 1297 1469 L 1295 1469 C 1294.722656 1436 1275.824219 1398 1261.246094 1369 C 1209.839844 1267 1114.550781 1192.433594 1015 1140 C 1022.433594 1138 1034.214844 1146.519531 1041 1149.421875 C 1065 1159.738281 1088.40625 1171 1111 1184.398438 C 1208.226563 1242.042969 1296.988281 1350.273438 1297 1469 M 1098 1248 C 1076.558594 1236.050781 1057 1219.710938 1036 1206.8125 C 1016.253906 1194.6875 994.230469 1185.683594 975 1173 C 983.910156 1171.410156 999.871094 1180 1008 1183.625 C 1031.722656 1194.523438 1053.347656 1207.390625 1074 1223.425781 C 1082.265625 1230 1093.523438 1238.398438 1098 1248 M 1036 1285 C 1030.3125 1267.191406 1009 1261 1001 1246 C 1062.753906 1251 1106.265625 1315 1114.570313 1373 C 1117.242188 1391.640625 1114.667969 1413.21875 1103.90625 1429 C 1101.398438 1432.675781 1093 1443.042969 1087.601563 1441.183594 C 1085.191406 1440.371094 1085.742188 1434.046875 1085.335938 1432 C 1083.398438 1422.3125 1080.980469 1413.164063 1077.1875 1404 C 1066.695313 1378.644531 1047.167969 1345.664063 1021 1334 C 1044 1369 1061.214844 1407.820313 1054 1451 C 1051 1469.394531 1042.21875 1490 1024 1498 C 1026 1451.34375 1017.3125 1409.816406 989.574219 1371 C 982 1360.496094 973 1349.085938 962 1342.132813 C 958.613281 1340.003906 950.761719 1336.8125 947.828125 1341.433594 C 945.710938 1344.765625 950.535156 1349.5 952.28125 1352 C 959 1361.683594 963.910156 1372.042969 968.203125 1383 C 984.191406 1423.824219 989.71875 1490.328125 938 1508 C 943.613281 1463.570313 929.921875 1422.007813 901.996094 1387 C 892.9375 1375.640625 871.433594 1350.203125 855 1365.394531 C 848.695313 1371.417969 864.984375 1392.757813 867.988281 1400 C 880.710938 1430.660156 888.625 1483 847 1494.570313 C 840.871094 1496.300781 834.214844 1496.589844 828 1495.101563 C 788.503906 1485.648438 781.601563 1428.367188 784.828125 1395 C 786 1382.652344 788.464844 1371.105469 794.308594 1360 C 795.546875 1357.644531 798.9375 1352.355469 793.925781 1352.113281 C 784.214844 1351.644531 774.554688 1365.320313 769.429688 1372 C 751 1396 742.78125 1433.417969 747.4375 1463 C 748.976563 1472.753906 751.6875 1482.011719 755.769531 1491 C 756.78125 1493.230469 760.191406 1498.804688 757.355469 1501 C 754.183594 1503.207031 744.199219 1499.210938 741 1497.824219 C 725.628906 1491.171875 714.488281 1478.445313 706.628906 1464 C 690 1433.464844 691.335938 1392.824219 706.359375 1362 C 712.269531 1350 723.523438 1340.746094 729 1329 C 682.519531 1342.453125 660.375 1398 656.171875 1442 C 655 1454 658.183594 1466.355469 657 1478 C 643.679688 1467 641.355469 1446 639.828125 1430 C 634.632813 1375.589844 674.230469 1320.769531 717 1291.347656 C 774.867188 1251.535156 847.96875 1230 918 1242.613281 C 944 1247.304688 966.582031 1259.039063 991 1268.386719 C 1006 1274.144531 1021.640625 1277.476563 1036 1285 M 1291 1661 C 1281 1657.214844 1272.261719 1650.441406 1262 1647 C 1271.761719 1661.019531 1284.964844 1672 1293.574219 1687 C 1313.734375 1722.226563 1318.703125 1767.484375 1301.539063 1805 C 1296.980469 1815 1291.871094 1827.152344 1283 1834 C 1283 1777.074219 1268.398438 1705.5 1218 1670 C 1230.488281 1715.753906 1247.984375 1766.101563 1224.625 1812 C 1217.519531 1826 1208.417969 1837 1195 1845.1875 C 1192.667969 1846.632813 1183.8125 1853.3125 1181 1851 C 1179 1849.058594 1181.929688 1842.183594 1182.472656 1840 C 1185.308594 1828.65625 1186.367188 1817.566406 1187.714844 1806 C 1191.628906 1772.359375 1176.828125 1730.480469 1158.253906 1703 C 1151.722656 1693.339844 1140.199219 1675.273438 1126 1679.265625 C 1122.246094 1680.320313 1118.738281 1682.820313 1118.519531 1687.003906 C 1117.863281 1699.414063 1125 1714.398438 1126.714844 1727 C 1131.851563 1768.277344 1125.707031 1813.519531 1095 1844 C 1087.371094 1851.566406 1066.425781 1868.070313 1054.332031 1864.644531 C 1050.527344 1863.566406 1053.914063 1856.375 1054.574219 1854 C 1057.695313 1842.777344 1058.734375 1831.519531 1059.828125 1820 C 1063 1785.148438 1053 1750.539063 1041.996094 1718 C 1039.367188 1710.277344 1033.332031 1688.597656 1023.996094 1686.832031 C 1018.339844 1685.761719 1014.320313 1694 1012.386719 1698 C 1005.890625 1711.566406 1003.601563 1726.261719 1001.421875 1741 C 998.230469 1762.558594 999.355469 1786.511719 991 1807 C 978.195313 1838.832031 940.835938 1848.035156 911 1836.539063 C 860.886719 1817.230469 851.917969 1749.59375 853.960938 1703 C 854.433594 1692.199219 855.367188 1681.601563 857.660156 1671 C 861.796875 1652 869.546875 1633.726563 881 1618 C 882.632813 1616 893.890625 1605.40625 889.703125 1603.773438 C 885.683594 1602.207031 879.378906 1606 876 1607.78125 C 863.488281 1614.421875 851.566406 1625.585938 843.296875 1637 C 821.824219 1666.617188 807.445313 1703 807 1740 C 806.78125 1758.617188 813.699219 1791.730469 793 1801.671875 C 754.820313 1820.011719 722.46875 1774.300781 714 1743 C 699.433594 1689.015625 724.636719 1626.679688 765 1590.171875 C 789.175781 1568.304688 819 1554 851 1547.804688 C 858.300781 1546.394531 865.601563 1544.734375 873 1544 C 874.578125 1543.785156 878.765625 1542.636719 879.65625 1544.644531 C 880.6875 1547 877 1550.386719 875.882813 1552 C 871.453125 1558 866.976563 1563.804688 863 1570 C 893.289063 1559.769531 922.714844 1546.578125 954 1539.5 C 1038.742188 1520.324219 1127.433594 1531.183594 1204 1572.691406 C 1227.816406 1585.601563 1248.925781 1601.832031 1268 1621 C 1278.253906 1631.304688 1289.6875 1646 1291 1661 "/></g></svg>