<svg xmlns="http://www.w3.org/2000/svg" xmlns:xlink="http://www.w3.org/1999/xlink" viewBox="0 0 100 100" version="1.1"><g transform="translate(1, 10.081379535440355) scale(0.048740684327911656) translate(6.347656, -237)"><path style=" stroke:none;fill-rule:nonzero;fill:rgb(0%,0%,0%);fill-opacity:1;" d="M 1426 237 C 1404 251.460938 1381 263.8125 1361 281.132813 C 1283.851563 348 1232.976563 435 1184 523 C 1171.632813 545.558594 1159.847656 568.578125 1147 591 C 1138.992188 605.339844 1127.660156 621.15625 1123 637 L 1122 637 C 1123.21875 608.65625 1134.308594 576 1145.285156 550 C 1150.808594 537 1159 523.527344 1163 510 C 1144.957031 512.664063 1128 526 1110 527 C 1113.355469 522 1117.574219 517.070313 1119 511 C 1098.828125 515.175781 1080 524.40625 1060 529 C 1063.335938 524 1068 519.785156 1070 514 C 1051.675781 517.554688 1034 523.289063 1016 528 C 1018 523.425781 1021.457031 519.832031 1023 515 C 1006 515.351563 990.683594 526 974 527 C 975.976563 523.164063 978.890625 520.234375 980 516 C 964.535156 518 947.851563 523.292969 933 528 C 935.390625 523.371094 939.308594 520.011719 941 515 C 925 517.058594 909.820313 522.675781 894 525 C 897.875 520.191406 902.1875 515.511719 905 510 C 889.277344 510.011719 873.792969 513 858 513 C 861.71875 509.355469 865.910156 506.195313 869 502 L 835 490 C 836.886719 494.496094 839.785156 498.195313 841 503 C 829.925781 496.226563 818.589844 486.308594 807 481 C 808.324219 486.796875 809.863281 492.449219 812 498 C 800 489.738281 789.28125 479.128906 778.996094 469 C 773.460938 463.527344 768 456.316406 761 453 C 763.28125 462.632813 768.285156 471.496094 771 481 C 754 464.035156 739.585938 442 721 427 C 722.535156 437.429688 728.46875 446.632813 730 457 C 717.484375 442.578125 704.976563 428.164063 692.171875 414 C 687 408.457031 682.480469 399.636719 676 396 C 677.878906 405.09375 680.484375 414.066406 683 423 C 674.703125 414 666.792969 403.507813 660.449219 393 C 656.996094 387.277344 654 378.207031 648 375 C 649 380 651 385 651 390 C 639.878906 374.472656 625.773438 361.507813 616 345 L 615 345 C 615 351.757813 616 358.535156 618 365 C 601 351 584.203125 326 573 307 L 572 307 C 572 316 575.859375 324.160156 577 333 L 576 333 C 569.226563 315.394531 550.835938 301.140625 538 288 C 532.203125 282.042969 527.230469 274.292969 520 270 L 521 287 C 514.65625 280.660156 507.28125 271.578125 499 268 C 500.695313 273.015625 503 277.621094 503 283 C 498.507813 278.261719 493.75 272.070313 488 269 C 488 289 489.316406 309.117188 490.914063 329 C 491.410156 335.152344 490.574219 347.453125 494.859375 352.300781 C 498.929688 357 508.539063 359 514 361.601563 C 524.710938 367 534.953125 374.171875 544 382 C 531.835938 380 520.464844 376 508 374.832031 C 506 374.667969 497.449219 372.617188 496.917969 375.589844 C 496 380.261719 509.730469 386.269531 513 388.148438 C 529.691406 397.753906 551.726563 409 564 424 C 544.535156 418.675781 525.488281 412.171875 505 412 C 509.519531 418.144531 522.351563 421.472656 529 425.695313 C 551.199219 439.800781 585.515625 458 598 482 C 571.433594 471 544.628906 460 516 455 C 520.5 462.789063 537.296875 468 545 473 C 569.1875 489.117188 599.964844 505.8125 617 530 C 586.570313 517.332031 552.589844 503.691406 519 503 L 519 504 C 565.355469 528.6875 617.296875 555.097656 648 600 C 612.621094 567.4375 564.984375 551.515625 519 541 C 528 551.484375 548 558.074219 560 565.695313 C 585.679688 582.046875 611 603.179688 629 628 C 591.980469 608.292969 555 587.132813 513 580 C 515.847656 584.003906 521.6875 585.113281 526 587.246094 C 535.765625 592.082031 545 597.078125 554 603.425781 C 578.457031 621 597.597656 642.703125 615 667 C 585.300781 646.160156 552.628906 619 516 611 C 518.667969 615.734375 524.472656 618.453125 528.574219 622.003906 C 536.621094 629 544 636.796875 550.914063 645 C 570.300781 668.511719 579.863281 694.117188 588 723 C 567 702.335938 550.347656 671.289063 521 660 C 525.621094 669.132813 535.699219 676.578125 541.839844 685 C 555.6875 704 566.734375 726.027344 572 749 C 556.679688 734 544.207031 714.707031 529 699.003906 C 523.425781 693.191406 518.441406 685.472656 511 682 C 530 715.503906 547.746094 750 553 789 C 540.941406 777.070313 534.511719 760.222656 520 750 C 522.492188 760 528 771 533 780 C 526.304688 776.582031 521.734375 770.140625 515 767 C 515.347656 775.074219 513.800781 793 518 799.722656 C 520.65625 804 528.84375 805.558594 533 808.066406 C 543.460938 814.367188 554.609375 822.136719 562 832 C 547.757813 826.398438 534.347656 821.367188 519 819.832031 C 513.863281 819.316406 507.550781 817.023438 503 820 C 524.890625 829.421875 543.527344 836.671875 561 854 C 553.488281 853 546.632813 849.28125 539 848.289063 C 525.390625 846.519531 511.265625 849.261719 498 852 L 498 853 C 520 853 544 853.371094 564 864.3125 C 572.25 869 577.261719 877.65625 585 882 C 579.695313 814.769531 607.476563 751.230469 638.21875 693 C 646.867188 676.621094 656.539063 661.085938 667.289063 646 C 671.835938 639.621094 675.898438 632 682 627 C 643.546875 692.816406 613.371094 771.152344 613 848 C 612.902344 868.390625 612 890.183594 618 910 C 621 905 620.46875 897.757813 621.433594 892 C 623.234375 881.265625 625.613281 870.429688 628.722656 860 C 639.398438 824.160156 657.585938 784 683 756 C 667 794.222656 648.21875 831 640.460938 872 C 626.871094 944.054688 638 1020.277344 581.996094 1077 C 572.496094 1086.613281 562.753906 1097.703125 550 1103 C 553.863281 1097 560 1091 562 1084 C 547.589844 1091.03125 531.765625 1097.703125 516 1101 C 517.582031 1098.015625 520 1095.742188 522 1093 C 512.667969 1090.433594 502 1095.386719 492 1093 C 494.363281 1091.65625 501.792969 1089.527344 501.792969 1086.210938 C 501.792969 1083.492188 496.648438 1084.011719 495 1084 C 488 1084 481 1084 474 1084 C 477.554688 1080.296875 481.710938 1076.601563 484 1072 C 478.695313 1072 467.808594 1073.480469 463.464844 1069.820313 C 460.402344 1067.238281 466 1063.613281 465.167969 1060.601563 C 464.628906 1058.761719 445.351563 1051.066406 459 1050 C 454.714844 1041.589844 448.28125 1035.625 446 1026 L 447 1026 C 449.855469 1032 455.738281 1036.144531 462 1038 C 462 1035.28125 462.484375 1015.566406 466.847656 1016.632813 C 469 1017.160156 470 1022.253906 470.726563 1024 C 473.542969 1031 476.382813 1037.789063 480.59375 1044 C 496.285156 1067.144531 524.96875 1081.570313 552 1068 L 552 1067 C 497.460938 1071.300781 474.375 1012 487.296875 967 C 494.261719 942.765625 513 919.222656 540 919 C 526.9375 933.304688 514 943.480469 508.207031 963 C 507 966.734375 503.933594 975.691406 505.691406 979.398438 C 506.894531 982 512.675781 981.066406 515 982.007813 C 521 984.476563 525.355469 990.6875 526.621094 997 C 529.476563 1011.242188 516 1027.085938 531 1037.148438 C 533.441406 1038.800781 536.226563 1040 539 1041 C 542.582031 1042.160156 546.210938 1043 550 1043 C 564 1043.3125 576.355469 1035.535156 582.621094 1023 C 585.652344 1017 585.328125 1001.71875 594 1001.773438 C 606.425781 1002 599.40625 1021.195313 598 1028 L 599 1028 C 607.761719 1013 608.242188 995 607 978 C 604.753906 944 594 911.101563 566 889.363281 C 541.371094 870.265625 492.605469 863.007813 471 891 C 476.363281 890.53125 481.695313 889 487 888 C 474.675781 903.285156 455.589844 913.253906 444 929 C 451 928.691406 457.933594 926.558594 465 926 C 452.675781 944.027344 432.179688 960.308594 423 980 L 447 976 C 439 988.78125 422.851563 998.171875 418.636719 1013 C 414 1028.78125 426.394531 1042.667969 432 1056 C 428.6875 1054.046875 417.453125 1045.300781 413.691406 1047.367188 C 411.277344 1048.695313 413.6875 1056 414 1058 C 415.808594 1070 420.816406 1079.460938 428 1089 C 419.636719 1087.25 413.4375 1082.777344 406 1079 C 406 1093.757813 413 1106.070313 416 1120 L 402 1114 C 402 1121.390625 403.609375 1129.53125 407.363281 1136 C 409.367188 1139.449219 414.84375 1143.007813 415.367188 1147 C 415.933594 1151.308594 408 1157.597656 405.726563 1161 C 398 1172.109375 393 1185.023438 387 1197 C 397 1192.085938 398 1184 411 1184 C 412.984375 1184 419.691406 1183.101563 420 1186.148438 C 420.425781 1189.648438 414 1195.148438 413 1199 C 430.441406 1196.796875 445.84375 1201.644531 463 1203 L 463 1205 C 447.558594 1205.042969 425.722656 1210.640625 412 1217.785156 C 406 1221 396.953125 1232 390.484375 1232.203125 C 386.335938 1232.359375 390.386719 1220.808594 384.851563 1220.238281 C 370.4375 1218.753906 352 1225.574219 338 1228.398438 C 307.316406 1234.535156 276.9375 1242 247 1251.039063 C 231.894531 1255.648438 217.316406 1263.371094 202 1267 L 202 1266 C 218.292969 1259 233 1248 249 1240.085938 C 273.753906 1228 300.5 1218.644531 327 1211.140625 C 339.859375 1207.5 352.980469 1205 366 1202 C 369.875 1201 378.410156 1200.769531 380.972656 1197.410156 C 383 1194.550781 382 1188.386719 382 1185 C 382 1175 382.550781 1166 384 1156 C 376.875 1158.050781 370.339844 1161.464844 363 1163 C 373 1145.703125 379.550781 1123.632813 387 1105 C 379.214844 1107.242188 372 1111 364 1112 C 372.59375 1091.050781 385.894531 1070.113281 393 1049 C 385.269531 1051.433594 377 1054.195313 369 1055 C 378.285156 1037.554688 393 1018.664063 399 1000 C 390.84375 1004.273438 382.894531 1006 374 1008 C 382.984375 993.128906 391 977.574219 400.503906 963 C 406 954.359375 414.714844 946.203125 419 937 C 410.234375 938.511719 401.984375 942 393 943 C 402.40625 931.140625 414.171875 920.578125 425 910.015625 C 429.636719 905.492188 436 902 439 896 C 430.847656 897.683594 423.320313 898.015625 415 898 C 413.507813 898 408.1875 898.671875 407.632813 896.605469 C 406.9375 894.027344 417.167969 889 419 887.574219 C 431.40625 878.804688 444 870 457 862 L 457 861 C 447.242188 861.199219 437.703125 863.3125 428 861 C 443.757813 847.367188 463.203125 832 482 823 L 482 822 C 471.847656 820.28125 460.628906 821.710938 451 817 C 461.605469 812.585938 471.332031 806.398438 482 802.011719 C 485.597656 800.53125 492.5625 799.515625 494.972656 796.296875 C 497.804688 792.519531 495 784.234375 494.425781 780 C 492.460938 766.078125 491.804688 751.8125 489.386719 738 C 488.636719 733.714844 489.410156 724.214844 484.851563 722.34375 C 469.917969 716.210938 450.808594 715.714844 435 712.550781 C 399.847656 705.519531 364.519531 699.382813 329 694.710938 C 235.589844 682.429688 141.289063 665.46875 47 663 C 59.628906 690.074219 104.566406 686.644531 130 690.269531 C 193.96875 699.390625 258 707.664063 322 717 C 339 719.320313 356.171875 722 373 725.574219 C 378.414063 726.761719 387.605469 727.183594 391.535156 731.632813 C 396 737 377.371094 743.792969 374 745.1875 C 367.558594 748 359.9375 751.726563 353 752.632813 C 340 754.316406 323.972656 749.191406 311 747.828125 C 218.203125 738.105469 124.648438 720 31 720 L 31 722 C 59.730469 724.285156 88.503906 733.304688 117 737.703125 C 177.378906 747.027344 237.9375 754.789063 298 766.800781 C 318.804688 771 339.808594 775.792969 360 782.359375 C 363.492188 783.492188 380.660156 788.113281 376.535156 793.554688 C 367.230469 805.820313 350.171875 799.378906 338 796.789063 C 316.410156 792.199219 294.589844 789 273 784.488281 C 264 782.664063 250.773438 777.609375 242 780 L 242 781 C 251.832031 782 261.851563 787.414063 271 791 C 285.929688 797 301.179688 802 316 808 C 319.558594 809.457031 340.746094 815.226563 336.535156 820.574219 C 328.21875 831.128906 313.351563 824.480469 303 822 C 271.203125 814.386719 238.765625 810.261719 207 803 L 207 804 C 231.410156 817 260.875 822.613281 287 831.164063 C 291.304688 832.570313 310.945313 836.425781 310.945313 842.085938 C 310.945313 846 302.796875 848.519531 300 849.710938 C 287.183594 855.175781 270 848.414063 257 845.800781 C 197.804688 834 138.472656 824.03125 79 814 C 59.710938 810.640625 40.378906 807.519531 21 804.730469 C 17 804.164063 4 800.253906 1 803.066406 C -1.695313 805.550781 -0.707031 820.386719 0.316406 823.773438 C 1.695313 828.335938 9 828.273438 13 829.117188 C 25.976563 832 39 834.417969 52 837.347656 C 106.621094 849.710938 161.253906 862 215 877.707031 C 230.300781 882.210938 245.984375 886.328125 261 891.699219 C 264.753906 893.039063 274.628906 896.550781 273.457031 902 C 270.5 915.671875 248.765625 907.660156 241 905.769531 C 208.761719 898 174.277344 882.703125 141 881 L 141 882 C 155 886.078125 169.46875 891.039063 183 896.71875 C 197.851563 903 213.285156 908 228 914.4375 C 230.476563 915.539063 241 919.742188 239.792969 923.371094 C 238.265625 927.582031 231.636719 928.238281 228 927.675781 C 216.765625 926 205.898438 921.375 195 918.273438 C 147.773438 904.824219 100.289063 890.492188 52 881.261719 C 39.28125 878.828125 26.730469 875.652344 14 873.261719 C 11 872.71875 3.457031 869.734375 1 872.042969 C -1.375 874.324219 0 882 0 885 C 0 888 -0.871094 892.726563 0.601563 895.4375 C 2.253906 898.464844 8.976563 899 12 899.574219 C 23 902.070313 33.957031 905.351563 45 908 C 87.375 918.160156 128.882813 931.757813 171 943 C 184 946.347656 197.390625 950.398438 210 955.402344 C 212.871094 956.539063 221.699219 958.726563 222.367188 962.296875 C 223.523438 968.46875 208.71875 970.660156 205 970 C 184.378906 966.316406 162.753906 956.0625 142 955 C 148.515625 964 168.289063 968.003906 178 973.4375 C 181.265625 975.265625 188.71875 978.492188 188.652344 983 C 188.589844 987.523438 181.585938 989.589844 178 989.640625 C 168.289063 989.785156 157.230469 984.125 148 981.425781 C 104.394531 968.671875 59 953.617188 14 947 C 18.65625 954.046875 34.273438 956 42 958.75 C 67.632813 968.164063 93.566406 977 119 986.796875 C 127 990 135 993.066406 143 996.691406 C 144.636719 997.441406 150.945313 999 150.945313 1001.285156 C 150.945313 1003.484375 146.558594 1005 145 1005.570313 C 137.195313 1009 131 1009.019531 123 1006.710938 C 102.273438 1000.761719 81.59375 994.222656 61 987.808594 C 53 985.316406 41.28125 979.378906 33 981 C 48.308594 992.574219 72.449219 999 90 1007.113281 C 93.472656 1008.730469 108 1013.160156 107.367188 1018.0625 C 106.226563 1025.417969 94.226563 1026.671875 89 1025 C 67.375 1018.078125 45.542969 1011.648438 24 1004.492188 C 20.308594 1003.269531 2 995.308594 0.316406 1000.320313 C -1.277344 1005.015625 -1.921875 1023.710938 2.316406 1026.722656 C 10.433594 1032.484375 25.476563 1034.320313 35 1037.492188 C 60.984375 1046.15625 87 1054.644531 113 1063.332031 C 123.753906 1067 143.996094 1070.777344 151.535156 1079.789063 C 155.707031 1084.777344 140.59375 1091.023438 137 1091.578125 C 124.414063 1093.53125 105 1084 93 1080.191406 C 79 1076 63.484375 1071 49 1069 L 49 1070 C 69.234375 1080.777344 91.375 1088.617188 112 1098.757813 C 116 1100.792969 132 1106.390625 128 1112.824219 C 123.824219 1119.429688 114.601563 1114.296875 109 1112.585938 C 91.367188 1107.199219 73.265625 1098.695313 55 1096 L 55 1097 C 59.789063 1100.050781 64.9375 1102.222656 70 1104.757813 C 74.28125 1107 81.53125 1109.800781 84 1114.132813 C 87.246094 1119.714844 74.921875 1124.335938 71 1123.632813 C 46.675781 1119.28125 23.808594 1105.5 0 1099 L 0 1126 C 0 1129 -0.875 1133.621094 1.601563 1135.722656 C 5.785156 1139.269531 13.875 1140.085938 19 1141.746094 C 31.460938 1145.78125 43.65625 1150.757813 56 1155.140625 C 59.523438 1156.394531 72.183594 1159.808594 71.367188 1165 C 70.765625 1169 63.949219 1171.246094 61 1173 C 46.972656 1180.515625 30.46875 1171.273438 16 1168 C 12.921875 1167.175781 2.769531 1162 0.601563 1165.605469 C -0.929688 1168.171875 0 1173.125 0 1176 C 0 1180 -1.363281 1187.042969 1 1190.347656 C 3.207031 1193.363281 8.675781 1193.773438 12 1194.628906 C 20.765625 1197 29.289063 1200.09375 38 1202.578125 C 42.476563 1204 54.371094 1206.203125 54.964844 1212.042969 C 55.375 1216.097656 50 1219.773438 47 1221.441406 C 36.679688 1227.101563 23.195313 1220 13 1216.660156 C 10.613281 1216 2.375 1212 0.601563 1214.648438 C -3.550781 1221.132813 0 1240.265625 0 1248 C 0 1251 -0.902344 1255.757813 1 1258.15625 C 4.378906 1262.320313 15.558594 1261 16.496094 1267.132813 C 18.34375 1279.433594 8.847656 1281.023438 0 1279 C 0 1285.578125 -1.585938 1294.46875 0.316406 1300.773438 C 1.566406 1305 7.289063 1304.109375 7.261719 1309.054688 C 7.222656 1316 1.933594 1317.234375 0.316406 1322.3125 C -3 1333.09375 0 1349.664063 0 1361 C 0 1364.535156 -1.273438 1371.21875 1 1374.183594 C 3.921875 1378 11.78125 1379 16 1380.613281 C 28.699219 1385.492188 41.5625 1390.1875 54 1395.691406 C 57.394531 1397.191406 66.984375 1403 70.488281 1401.582031 C 73 1400.550781 74 1395.320313 75 1393 C 77.742188 1386.128906 80.984375 1380 85.503906 1374 C 90.597656 1367.34375 96.535156 1361.453125 104 1357.492188 C 105.285156 1356.8125 111.757813 1355 110.652344 1352.683594 C 109.441406 1350.199219 103.375 1349.285156 101 1348.492188 C 92.851563 1345.78125 79.378906 1345.550781 73 1340 C 80.816406 1339.199219 88.414063 1334.644531 96 1332.425781 C 108.648438 1328.726563 121.875 1327 135 1326.089844 C 193.292969 1322.097656 253.191406 1357.445313 276 1411 C 282.933594 1427 287.308594 1447 283.660156 1464 C 282.652344 1468.726563 275 1485.796875 278.421875 1489.007813 C 281.859375 1492.304688 288.65625 1494 293 1496 C 303.738281 1500.460938 314.34375 1505.300781 325 1510.09375 C 357 1524.5 388.777344 1540.042969 420 1556.109375 C 481 1587.5625 540.578125 1621.816406 599 1658.0625 C 631.605469 1678.292969 663.746094 1697.070313 699 1712.28125 C 715 1719.191406 733.632813 1727.660156 751 1730 L 751 1729 C 716.566406 1709.382813 685.320313 1679.742188 654 1655.5 C 608.320313 1620.140625 561.609375 1586.636719 514 1554 C 498.925781 1543.632813 483 1534.394531 468 1524.113281 C 458.335938 1517.523438 447.910156 1508.136719 437 1504 L 437 1503 C 468.976563 1507.304688 501 1519.550781 532 1528.574219 C 611.21875 1551.722656 688.808594 1581.308594 766 1610.425781 C 801.777344 1624 839.519531 1640.164063 877 1648 L 877 1647 C 851.820313 1633.035156 826.777344 1617.765625 801 1605 L 801 1604 C 869.5625 1626.308594 936.855469 1653 1005 1676.65625 C 1138.554688 1723.019531 1274.300781 1765.730469 1410 1805.425781 C 1468 1822.4375 1526.472656 1838.566406 1585 1854.28125 C 1613.945313 1862.054688 1647.921875 1874.75 1678 1875 L 1678 1874 C 1503.945313 1802.59375 1318.914063 1764.777344 1143 1698.425781 C 1097.929688 1681.425781 1053.347656 1663 1009 1644.226563 C 988.941406 1635.746094 961.871094 1629 945 1615 C 996 1631.347656 1048.453125 1644.363281 1100 1659.425781 C 1177 1682 1253.804688 1705.410156 1331 1727.421875 C 1368.261719 1738.042969 1405.761719 1748 1443 1758.558594 C 1468 1765.78125 1497.734375 1777.441406 1524 1778 L 1524 1777 C 1500.65625 1763.714844 1472.960938 1755.683594 1448 1745.796875 C 1401.4375 1727.351563 1354.726563 1709.132813 1308 1691.089844 C 1261.269531 1673.039063 1214.757813 1653.304688 1169 1633 C 1149.367188 1624.15625 1130 1612.320313 1110 1605 L 1110 1604 C 1140.359375 1606.480469 1172 1616 1202 1622.339844 C 1255.414063 1633.734375 1309.222656 1645.390625 1363 1655 C 1383.363281 1658.523438 1403.832031 1662.546875 1424 1667.121094 C 1430.523438 1668.597656 1441.402344 1668.644531 1446.816406 1672.601563 C 1453.328125 1677.359375 1458.757813 1688.1875 1463 1695 C 1430.25 1690.769531 1397.289063 1682.339844 1365 1675.488281 C 1353.339844 1673.015625 1340.925781 1668.253906 1329 1668 L 1329 1669 C 1350.746094 1678.628906 1374.566406 1684.777344 1397 1692.691406 C 1443.914063 1709.238281 1491 1725.335938 1538 1741.65625 C 1556.300781 1748.011719 1574.617188 1754.230469 1593 1760.332031 C 1598 1762.003906 1610 1764 1613.1875 1768.429688 C 1615.640625 1772.152344 1610.5 1779 1610 1783 C 1609.769531 1786.4375 1612 1795.640625 1609.355469 1798 C 1605.730469 1801.058594 1596.21875 1798.578125 1592 1798 C 1577 1796 1561 1793.003906 1546 1793 L 1546 1795 C 1559.503906 1797 1572 1803.347656 1585 1807.644531 C 1614.9375 1817.660156 1645.355469 1827 1676 1834.476563 C 1690.851563 1838.140625 1707.691406 1844 1723 1844 L 1723 1843 C 1703 1833.539063 1682 1824.824219 1663 1813.714844 C 1659.867188 1812 1646.359375 1803.363281 1649 1798.742188 C 1650.972656 1795.398438 1658.1875 1797.667969 1661 1798.195313 C 1672.714844 1800.398438 1684.371094 1803 1696 1805.5 C 1732.199219 1813.734375 1768.414063 1823 1805 1829.25 C 1817 1831.347656 1829.765625 1835.738281 1842 1836 L 1842 1835 C 1807.941406 1821.03125 1772.1875 1808.578125 1737 1797.71875 C 1728.570313 1795.113281 1719.988281 1792.042969 1712 1788.292969 C 1709.390625 1787.066406 1704.726563 1785.597656 1705.402344 1782 C 1706 1777.8125 1711.941406 1768 1716 1766.773438 C 1720.824219 1765.390625 1729.265625 1768.175781 1734 1769.253906 C 1744.242188 1771.59375 1754.707031 1773.300781 1765 1775.574219 C 1826.710938 1789.203125 1889.894531 1807.019531 1953 1812 L 1953 1811 C 1916.964844 1795 1876.886719 1782 1839 1771 L 1839 1770 C 1883.816406 1757.40625 1933.242188 1766 1979 1766 L 1979 1765 C 1956.257813 1757.792969 1931.414063 1754.234375 1908 1749.550781 C 1868.726563 1741.695313 1829.574219 1732.816406 1790 1726.703125 C 1774.628906 1724.328125 1759.3125 1721.089844 1744 1718.386719 C 1737.480469 1717.234375 1726.683594 1714 1720.230469 1715.40625 C 1715.796875 1716.386719 1717.464844 1724.671875 1714.683594 1727.789063 C 1710.363281 1732.625 1702.699219 1734.335938 1697 1737 L 1703 1725 C 1692.679688 1726.351563 1685 1735.664063 1676 1740 C 1678.855469 1707.261719 1706 1680 1736 1670 C 1743 1667.671875 1764.527344 1661.085938 1770.214844 1668.433594 C 1772 1671 1770.765625 1674.335938 1769.996094 1677 C 1765.785156 1691.519531 1754.464844 1688.605469 1744 1695 C 1750.648438 1697 1757.234375 1694.179688 1764 1694.015625 C 1775.46875 1693.734375 1786.691406 1695.527344 1798 1697.273438 C 1849.421875 1705.214844 1900.910156 1715 1952 1724.539063 C 1962.285156 1726.464844 1972.675781 1728.03125 1983 1729.753906 C 1987.179688 1730.449219 1993.511719 1732.605469 1997.683594 1731.59375 C 2001.5625 1730.648438 2001 1713.460938 1998.972656 1710.738281 C 1996.628906 1707.785156 1989.464844 1707.539063 1986 1707 C 1974.980469 1705 1964 1702.441406 1953 1700.585938 C 1910.265625 1693.402344 1867.566406 1685.503906 1825 1677.539063 C 1811.730469 1675.058594 1798.210938 1673.582031 1785 1671 C 1780.28125 1670.074219 1773.242188 1669.050781 1772.78125 1663 C 1772 1653 1781.265625 1632.179688 1792 1630.226563 C 1809.324219 1627.078125 1832.742188 1634 1850 1636.5625 C 1882.519531 1641.640625 1915.472656 1644.488281 1948 1649.753906 C 1960.941406 1652 1973.988281 1653.597656 1987 1655.15625 C 1989.957031 1655.507813 1997.457031 1657.714844 1999.398438 1654.398438 C 2001.34375 1651.0625 2001.296875 1637 1997.683594 1635 C 1989.402344 1630.4375 1975.3125 1630.285156 1966 1628.539063 C 1943.65625 1624.355469 1921.195313 1620.664063 1899 1615.648438 C 1890.609375 1613.753906 1882.171875 1612.019531 1874 1609.25 C 1871.96875 1608.5625 1867.183594 1607.109375 1868.207031 1604.078125 C 1870.691406 1596.742188 1887.445313 1592.699219 1894 1591.128906 C 1920.542969 1584.769531 1951.699219 1580.226563 1979 1580 L 1979 1579 C 1935.320313 1567.699219 1888.542969 1565.117188 1844 1558.699219 C 1813.734375 1554.339844 1781.625 1547.085938 1751 1547 C 1757.320313 1555.589844 1777.289063 1559.601563 1787 1564 C 1789.945313 1565.152344 1797.453125 1567.058594 1798.792969 1570.246094 C 1799.890625 1573 1794.480469 1573.585938 1793 1574.035156 C 1786.171875 1576.113281 1779.503906 1578.523438 1773 1581.457031 C 1742 1595.355469 1723.339844 1619.039063 1698 1640 C 1703.898438 1625.011719 1713.78125 1613 1721 1599 C 1709 1603 1700 1614.070313 1690 1621 C 1695.308594 1607.3125 1706 1597.699219 1712 1585 C 1657.390625 1605 1615.691406 1659.265625 1596 1712 L 1595 1712 C 1593.882813 1697.828125 1594.855469 1685.03125 1596 1671 C 1591.65625 1674 1590.269531 1679.597656 1587.773438 1684 C 1579.71875 1698.191406 1574 1712.496094 1574 1729 L 1573 1729 C 1566.179688 1711.414063 1563 1696.753906 1567 1678 C 1561.65625 1681.332031 1559.867188 1689.265625 1558 1695 L 1557 1695 C 1557 1681 1556.941406 1667.59375 1561.515625 1654 C 1581 1596.054688 1643.273438 1558 1697 1536.449219 C 1710.746094 1531 1724.589844 1525.726563 1739 1522.230469 C 1745.53125 1520.648438 1755.53125 1521.5625 1761 1518 C 1753.277344 1514.21875 1745 1513.691406 1738 1508.238281 C 1735.769531 1506.515625 1732 1503.515625 1733.257813 1500.214844 C 1735.203125 1495.058594 1744.589844 1495.023438 1749 1495 C 1764.996094 1495 1780.957031 1496 1797 1496 C 1843.363281 1496 1889.644531 1497.148438 1936 1496.015625 C 1956 1495.523438 1976 1496.519531 1996 1494 L 1996 1493 C 1922.683594 1479.1875 1848.90625 1470 1775 1460.714844 C 1720.992188 1454 1668.53125 1445.695313 1614 1450 L 1614 1451 C 1635.316406 1453.707031 1653.53125 1461.136719 1674 1466 L 1674 1467 C 1650 1467 1622.875 1456.316406 1599 1462 L 1599 1463 C 1625.207031 1470.363281 1649.59375 1476.574219 1675 1487 L 1675 1488 C 1657.796875 1485.8125 1641.421875 1484 1624 1484 C 1626.699219 1488 1632.855469 1489 1637 1491.167969 C 1646.660156 1496.285156 1659.324219 1502.21875 1667 1510 C 1644.90625 1506.753906 1624.445313 1504 1602 1504 L 1602 1505 C 1612.773438 1509.125 1622.710938 1513.730469 1633 1519 C 1617 1522.109375 1601.863281 1520.015625 1586 1526 L 1586 1527 L 1612 1534 L 1612 1535 C 1599.425781 1535.546875 1586 1541.496094 1575 1547.003906 C 1522.847656 1572.753906 1498 1629.28125 1498 1685 L 1497 1685 C 1485.714844 1660.828125 1477.851563 1641.210938 1480 1614 C 1476 1617.378906 1475.503906 1622.378906 1472 1626 C 1471.988281 1607.625 1472.503906 1591 1478 1573 C 1480.808594 1564.011719 1486.726563 1556 1489 1547 C 1479.574219 1551.394531 1469 1563.425781 1465 1573 L 1464 1573 C 1467.742188 1544.023438 1481.894531 1516.46875 1500 1494 C 1508.394531 1483.753906 1521.480469 1474.09375 1528 1463 C 1518.316406 1464.640625 1509.394531 1469.28125 1500 1472 C 1538 1425.199219 1609.179688 1393.726563 1669 1389 L 1669 1387 C 1659.582031 1387 1650.300781 1384.296875 1641 1383.183594 C 1632.632813 1382.183594 1624.273438 1383.15625 1616 1381 L 1616 1380 C 1627.199219 1374.769531 1637.320313 1368.035156 1650 1367 C 1648.574219 1363.78125 1642 1357.199219 1644 1353.5625 C 1647 1348.246094 1665 1351 1670 1351.574219 C 1694.429688 1354.78125 1719.445313 1355 1744 1358 C 1741.96875 1351.679688 1735 1346.335938 1731 1341 C 1745.664063 1342.199219 1760 1348.804688 1774 1353.328125 C 1789.3125 1358.320313 1805.167969 1361.722656 1821 1364.574219 C 1858.898438 1371.410156 1897.945313 1366.757813 1936 1364.089844 C 1951.96875 1363 1968 1362.347656 1984 1360.828125 C 1987.359375 1360.511719 1997.6875 1361.066406 1999.339844 1357.480469 C 2001 1353.671875 1995.199219 1353.125 1993 1353 C 1984.738281 1351.792969 1976.304688 1350.542969 1968 1350 C 1931 1347.453125 1894.78125 1339 1858 1336 L 1858 1335 C 1878.273438 1329.753906 1899.167969 1327.515625 1920 1326.089844 C 1931.363281 1325.3125 1943.914063 1326.640625 1955 1324 L 1955 1323 C 1927.960938 1321 1901 1317 1874 1315 C 1855.648438 1313.566406 1837.277344 1311.449219 1819 1309.285156 C 1801.390625 1307.199219 1778.65625 1309.683594 1762 1304 C 1757.859375 1302.449219 1744.851563 1293.039063 1750.421875 1287.742188 C 1753.328125 1285 1759.359375 1286 1763 1286 C 1775.382813 1286.019531 1787.667969 1288.0625 1800 1289 C 1846.601563 1292.121094 1893.261719 1297.421875 1940 1298 C 1954.238281 1298.171875 1969.890625 1297.570313 1984 1299.425781 C 1987 1299.820313 1997.597656 1302 1999.339844 1298.449219 C 2001.824219 1293.539063 1979.320313 1289.488281 1976 1288.574219 C 1950.390625 1281.539063 1921.625 1269.160156 1895 1268 C 1900.261719 1263 1910 1262.808594 1917 1261.726563 C 1936.859375 1258.652344 1957 1258.523438 1977 1256 L 1977 1255 C 1948.648438 1249.738281 1918.671875 1252 1890 1250 C 1840.1875 1246.417969 1789.90625 1242.140625 1740 1240 C 1744.597656 1231.746094 1752.820313 1219.25 1762 1215.742188 C 1766.824219 1214 1772.933594 1215.257813 1778 1215 C 1791 1214.019531 1803.933594 1214 1817 1214 C 1855.6875 1214 1894.386719 1213 1933 1213 C 1949.371094 1213 1965.683594 1212 1982 1212 C 1986 1212 1997 1213.648438 1999.398438 1209.410156 C 2001 1206.269531 2001.507813 1189.597656 1997.683594 1188.316406 C 1991.613281 1186.289063 1982.382813 1188 1976 1188 C 1963.394531 1188 1950.578125 1186.773438 1938 1186 C 1895.414063 1183 1852.578125 1175.046875 1810 1174 C 1795.992188 1173.636719 1780.757813 1171.625 1767 1169 C 1763.710938 1168.371094 1754.40625 1168.394531 1753.886719 1163.785156 C 1753.453125 1160 1759.429688 1155.441406 1762 1153.328125 C 1772.964844 1144.328125 1792.863281 1150 1806 1150 C 1847 1150 1887.929688 1151.347656 1929 1150.035156 C 1946.425781 1149.480469 1965.992188 1152.050781 1983 1148 L 1983 1147 C 1967.613281 1147 1952.285156 1143.648438 1937 1142.171875 C 1900.773438 1138.664063 1863.382813 1135.4375 1827 1135.003906 C 1814.570313 1135 1802.378906 1133.582031 1790 1133.039063 C 1787.542969 1133 1779.257813 1134.257813 1778.632813 1130.683594 C 1778 1127.296875 1783.898438 1123.046875 1786 1121.039063 C 1794.753906 1112.667969 1802.742188 1107 1815 1107 C 1854.519531 1107 1894.507813 1106.691406 1934 1105 C 1945.34375 1104.464844 1956.632813 1102.09375 1968 1102 L 1968 1100 C 1952.941406 1099.351563 1938 1095 1923 1094 C 1913.328125 1093.21875 1903.6875 1091 1894 1090 C 1883.789063 1089 1867.878906 1088.507813 1859 1082.726563 C 1848.859375 1076 1868 1066 1874 1065.171875 C 1901.6875 1061.828125 1930 1060.257813 1958 1059.039063 C 1969.8125 1058.523438 1986.503906 1060.421875 1997.683594 1056.683594 C 2001.261719 1055.484375 2001 1043.394531 1999.398438 1040.601563 C 1997.980469 1038.179688 1993.324219 1039 1991 1039 L 1965 1039 C 1935.296875 1039 1905.726563 1038 1876 1038 C 1867.609375 1038 1850 1038.699219 1846 1029 C 1843.621094 1022.8125 1853.703125 1017.269531 1858 1015.121094 C 1872.515625 1008 1892.894531 1003.40625 1909 1002 L 1909 1000 L 1780 1000 C 1768.621094 1000 1742.535156 1001.347656 1741.828125 984.09375 C 1741.625 979.167969 1750.386719 976.605469 1754 975.34375 C 1768.40625 970.3125 1784 970.824219 1799 968 C 1849.175781 958.445313 1900.582031 956 1951 947.753906 C 1962.855469 946 1975 944.449219 1987 943.164063 C 1990 943 1997.644531 943.421875 1999.398438 940.398438 C 2002.699219 934.699219 2000 920.558594 2000 914 C 1999.996094 912 2000.640625 908 1998.398438 906.601563 C 1991.402344 902.519531 1973 906 1965 906 C 1936.652344 906 1908.292969 906.199219 1880 905 C 1870 904.527344 1860 903 1851 898.820313 C 1848 897.511719 1843.371094 895.582031 1842.921875 892 C 1842.445313 888.160156 1847.28125 885.15625 1850 883.46875 C 1857.808594 878.609375 1867 876.199219 1876 874.398438 C 1907.28125 868.105469 1939.335938 862.6875 1971 859 C 1978 858 1999.589844 857.773438 1999.980469 849 C 2000 846.695313 2000.765625 842 1998.398438 840.601563 C 1993.578125 837.789063 1982.300781 840.089844 1977 840.714844 C 1964 842.246094 1951 841.46875 1938 842.039063 C 1882.402344 844.472656 1826.636719 852.253906 1771 853.003906 C 1758.234375 853.175781 1743.5625 858.152344 1731 855.320313 C 1728 854.644531 1720.492188 853.039063 1719.460938 849.621094 C 1718 845 1727.914063 841.277344 1731 840.015625 C 1745 834.246094 1760.363281 832 1775 828 L 1775 827 C 1752 828 1728.675781 830.457031 1706 833.394531 C 1700.535156 834.101563 1689.605469 830.472656 1690.882813 823.042969 C 1691.605469 818.820313 1697.492188 817.097656 1701 816.238281 C 1712 813.53125 1723.738281 813.050781 1735 811.421875 C 1783 804.46875 1831 797.785156 1879 791 C 1894.6875 788.609375 1910.644531 785.570313 1926 781.621094 C 1928.644531 781 1939.765625 779 1939 775 C 1938.488281 771.585938 1932.628906 771 1930 770.402344 C 1920.824219 768.519531 1911.324219 767.730469 1902 767.089844 C 1862.304688 764.367188 1821.789063 762 1782 762 C 1770.753906 762 1759 762.613281 1748 760 C 1745.699219 759.40625 1737.953125 757.617188 1739.207031 754 C 1740.3125 750.78125 1745.59375 748.136719 1748 746 C 1760.980469 734 1771.339844 734.769531 1788 732.574219 C 1838.835938 726 1890.867188 723.414063 1942 720 C 1957.210938 719 1972.910156 718.421875 1988 716.269531 C 1992.929688 715.566406 2004.292969 715 1999.398438 706.601563 C 1997.546875 703.4375 1982.671875 704.21875 1979 704.039063 C 1958.691406 703.050781 1938.324219 704 1918 703 C 1846 699.816406 1773.972656 698 1702 698 L 1649 698 C 1645 698 1633.917969 696.070313 1631 699.027344 C 1628.886719 701.226563 1630.914063 707.25 1630.984375 710 C 1631.257813 720.449219 1632.214844 731.636719 1633.574219 742 C 1636.671875 765.601563 1629.992188 794.089844 1624.410156 817 C 1621.957031 827.066406 1617.222656 837.628906 1617 848 L 1616 848 C 1614.308594 837.375 1617 825 1617 814 C 1617 788.484375 1616.199219 763.320313 1613 738 L 1612 738 C 1611 745.339844 1609 752.582031 1609 760 L 1608 760 C 1603.980469 739.265625 1603.191406 717.828125 1599.535156 697 C 1581.460938 594 1563.472656 489.679688 1524.398438 392 C 1513.433594 364.585938 1501.453125 337.414063 1488.246094 311 C 1484 302.671875 1478.765625 286.128906 1471 281 C 1470.402344 284.476563 1469 287.660156 1468 291 L 1467 291 C 1464.6875 281.613281 1461.4375 270.597656 1461 261 C 1455.480469 264.5 1451.753906 270.402344 1446 274 C 1448.894531 264.234375 1447.464844 251.121094 1443 242 C 1434.867188 252.742188 1430 262.742188 1415 265 C 1419 258.6875 1428 244.578125 1426 237 M 1394 331 C 1381.34375 347.546875 1361 357.765625 1349 375 C 1372 360.480469 1403.988281 345.597656 1432 345 L 1432 346 C 1407.824219 360.058594 1382.945313 371.445313 1360 388 C 1352.484375 393.234375 1342.691406 398.726563 1337 406 C 1361.832031 396.367188 1393.253906 388.554688 1420 388 L 1420 389 C 1393.679688 404.363281 1364.339844 419.570313 1345 444 C 1364.867188 437 1388.910156 434.101563 1410 434 C 1416.589844 434 1426.390625 432.167969 1432 436 C 1394.519531 450.351563 1359.882813 469.644531 1323 485 L 1323 486 C 1358.796875 484.460938 1393.242188 485.464844 1429 487 C 1426.359375 490.742188 1420.3125 491 1416 492 C 1406.996094 494 1397.777344 496.539063 1389 499.34375 C 1365.507813 507 1342.53125 517.191406 1321 529.140625 C 1313.316406 533.402344 1303.195313 536.738281 1297 543 C 1335.734375 535 1371 529.03125 1411 532.828125 C 1424.21875 534.089844 1438.84375 535.050781 1451 541 C 1445.796875 544.117188 1437.953125 544.050781 1432 545.285156 C 1420.492188 547.675781 1408.945313 551 1398 555.203125 C 1380.386719 562.117188 1363.628906 570.273438 1347 579.308594 C 1337.847656 584.28125 1329 591.089844 1319 594 L 1319 595 C 1347.980469 591.316406 1375.890625 589.097656 1405 594 C 1412.183594 595.109375 1428.46875 596.039063 1433 602 C 1392.785156 602.332031 1352.683594 614.617188 1315 627.65625 C 1302.484375 632 1281.878906 636.292969 1272 645 C 1315.492188 637 1363.34375 637.0625 1406 649.722656 C 1416.664063 653 1440.195313 658 1446 668 C 1418.71875 665.828125 1385 662 1359 673 C 1378.9375 681.191406 1397.855469 694.785156 1413 710 C 1418.261719 715.285156 1424.835938 721.214844 1428 728 C 1381.203125 702.046875 1331 677.035156 1276 677 L 1276 676 C 1287.875 673 1299.597656 668.535156 1312 668 C 1306.175781 662.535156 1295.492188 664.144531 1288 663 C 1260.820313 658.472656 1231.363281 666 1205 672 C 1208.28125 660 1222.488281 648.734375 1230.84375 640 C 1251.988281 617.496094 1276 598.222656 1302 581.695313 C 1313.625 574.292969 1331.339844 569.371094 1341 560 C 1296.214844 565.664063 1252.453125 571.53125 1210 588 C 1213 579 1223.316406 571.652344 1230 565 C 1249 546.074219 1272 526.675781 1296 514.257813 C 1304.6875 509.753906 1313.203125 505 1322 500.605469 C 1323 500.070313 1329.957031 498.042969 1329.367188 496.316406 C 1328.460938 493.644531 1310.675781 496.75 1308 497.050781 C 1284 499.738281 1261.5 507.527344 1238 511 C 1257 486 1285.433594 463.050781 1310 443.398438 C 1319.433594 436 1330.378906 424.703125 1342 421 L 1342 420 C 1313.820313 424.222656 1288.457031 446.148438 1260 450 C 1266.582031 437.242188 1278.65625 426 1288 415 C 1310.238281 389.1875 1334.910156 365 1364 346.808594 C 1373.296875 341.046875 1383.285156 333.679688 1394 331 M 609 381 C 640 415.035156 674 452.492188 693 495 C 699 508.378906 706.242188 525.238281 707 540 L 706 540 C 699.289063 528.621094 692.386719 516.199219 684 506 C 690.289063 533.1875 698.765625 562 699 590 L 698 590 C 677.378906 537.828125 654 486.800781 632.601563 435 C 627.289063 422.230469 621.535156 409.4375 615.488281 397 C 613.246094 392.390625 608 386.203125 609 381 M 600 484 C 598.363281 483.453125 598.546875 483.636719 598 482 C 599.636719 482.546875 599.453125 482.363281 600 484 M 1677 534 L 1677 533 C 1720.820313 533 1765.285156 528.082031 1809 525.089844 C 1856.21875 522 1905.308594 522.667969 1952 514 C 1943 509.695313 1928.835938 511.226563 1919 511 C 1900.65625 510.535156 1882.398438 509.03125 1864 509 C 1802.296875 509 1739.765625 508.664063 1678 506 C 1656 505 1634 504 1612 504 C 1606.242188 504 1593.578125 501.589844 1588.617188 504.601563 C 1585 506.796875 1590.390625 519 1591.289063 522 C 1595 535.246094 1598.785156 548.601563 1602 562 C 1602.988281 566.128906 1603.574219 575.085938 1606.929688 578 C 1610.925781 581.386719 1622.203125 578.023438 1627 578 C 1646 578 1664.980469 576.480469 1684 576.015625 C 1759.949219 574.152344 1836 566.003906 1912 566 C 1934.664063 566 1957.355469 562.015625 1980 562 C 1983.273438 562 2000.355469 562.621094 1999.535156 557.179688 C 1998.847656 552.640625 1985.320313 554 1982 553.425781 C 1963 551 1943.84375 552 1925 549.425781 C 1868 542 1809.300781 543.015625 1752 539.089844 C 1727.546875 537.414063 1700.925781 539.695313 1677 534 M 150 519 C 145 512.507813 128.542969 513.5625 121 512.828125 C 92.324219 510.042969 63.710938 511 35 509 C 26.289063 508.3125 17.757813 508 9 508 C 6.351563 508 1.398438 507.085938 0.316406 510.316406 C -6.347656 530.238281 22.257813 524 34 524 C 59.179688 524 84.890625 524.628906 110 523 C 123.28125 522 136.722656 519.109375 150 519 M 149 533 C 155.246094 536.742188 164.929688 535 172 535 C 188.71875 535 205.277344 536 222 536 C 281.3125 536 340.710938 539 400 539 L 451 539 C 455.664063 539 466.433594 541.085938 470.398438 538.6875 C 472.957031 537.136719 472.277344 530.554688 471.851563 528.058594 C 470.753906 521.613281 458.808594 524 454 524 C 434.632813 524 415.386719 525 396 525 C 313.96875 525 230.722656 526.550781 149 533 M 618 530 L 617 531 L 618 530 M 74 552.425781 C 65.277344 553.613281 56.390625 554.753906 48 557.511719 C 45.621094 558.292969 40.410156 559.542969 40.921875 563 C 41.675781 568.113281 52 569.722656 56 570.730469 C 72 574.824219 91.757813 574.210938 108 571.703125 C 115.324219 570.574219 123.351563 569.109375 130 565.722656 C 131.800781 564.804688 136.824219 562.371094 135 559.585938 C 133.179688 556.5625 123.285156 556.269531 120 555.714844 C 104.964844 553.179688 89.300781 550.34375 74 552.425781 M 172 555 C 176.769531 559.148438 185.839844 559.195313 192 560.132813 C 205 562.117188 217.964844 564.496094 231 566.425781 C 288.589844 575 346.253906 575.652344 404 581.171875 C 421.730469 583 440.191406 584 458 584 C 462.214844 584.019531 474.207031 586.734375 474.761719 581 C 475 577.28125 475.320313 563.34375 472.398438 561.027344 C 468.847656 558.21875 460.316406 560.242188 456 559.828125 C 439.324219 558.242188 421.742188 558.027344 405 558 C 327.320313 558 249.753906 555 172 555 M 1763 594 L 1763 595 C 1787.355469 595 1811.691406 597 1836 597 C 1854.300781 597 1872.679688 595 1891 595 C 1880.789063 590.09375 1863.25 592 1852 592 C 1823 592 1791.511719 588.707031 1763 594 M 263 599 L 263 601 C 283.332031 602 304 608.800781 324 612.539063 C 357.984375 619 391.941406 625.28125 426 631.425781 C 439.375 634 452.585938 637.007813 466 639.246094 C 468.753906 639.707031 476.707031 642.4375 478.882813 640 C 480.820313 637.769531 478.175781 629.746094 477.84375 627 C 477.34375 622.828125 477.800781 614.144531 474.976563 611 C 472.816406 608.347656 467.929688 609.003906 465 609 C 456.59375 609 448.351563 608 440 607.171875 C 381.78125 601.628906 321.476563 599 263 599 M 1942 626 C 1935 622.238281 1925.714844 621.773438 1918 620.574219 C 1901.96875 618.089844 1886 616.371094 1870 614.828125 C 1831.683594 611.164063 1793.40625 607.71875 1755 605.089844 C 1734.734375 603.703125 1714.234375 604.757813 1694 602.828125 C 1675 601.027344 1655.875 602.628906 1637 600.828125 C 1631.554688 600.3125 1616.234375 597.023438 1611.644531 600.199219 C 1609.402344 601.746094 1611 606 1611.625 608 C 1613.320313 615 1613.832031 623.382813 1616.992188 630 C 1619.878906 635.75 1630.808594 632.027344 1636 632 C 1655.34375 632 1674.648438 630 1694 630 C 1776.589844 630 1859.25 626 1942 626 M 1548 608 C 1555 631.472656 1554.421875 657.71875 1555 682 C 1556.550781 744.730469 1544.421875 807.308594 1525 867 L 1524 867 C 1524 852.292969 1527.960938 837.722656 1528 823 C 1522.886719 828.6875 1523.648438 838.640625 1517 843 C 1521.691406 817.8125 1520 793.328125 1520 768 C 1516.96875 771.4375 1516.449219 775.753906 1515 780 C 1511.308594 774.605469 1512.199219 766.308594 1511 760 C 1508 744.800781 1506.644531 728.476563 1505.960938 713 C 1505.683594 706.746094 1503.664063 700.160156 1505 694 L 1506 694 C 1507.785156 704.535156 1511.867188 714.753906 1514.847656 725 C 1515.382813 726.832031 1516.425781 735 1519 735 C 1521 735 1522.546875 730.414063 1523.21875 729 C 1526.726563 721.625 1529 713.832031 1531.289063 706 C 1537.417969 684.433594 1540.792969 662.144531 1543.871094 640 C 1545.265625 630 1543.96875 617.34375 1548 608 M 42 625 L 42 627 C 91.417969 633.382813 140.710938 645.644531 190 653.5625 C 252.832031 663.652344 316.339844 670.128906 379 681.425781 C 405.753906 686.246094 432.480469 691 459 697.011719 C 462.945313 698 482.191406 705 484.800781 701.304688 C 487 698.109375 483.402344 685.027344 482.949219 681 C 482.429688 676.367188 483.296875 667.222656 480 663.601563 C 476.316406 659.410156 465.175781 660.230469 460 659 C 438.234375 653.828125 415.167969 651.203125 393 648.289063 C 324.597656 639.296875 255.847656 629.804688 187 625.089844 C 138.5625 621.773438 90.359375 625 42 625 M 1030 635 C 1025.371094 647.644531 1015.726563 659.371094 1008.910156 671 C 995.722656 693.503906 983.257813 716.304688 968.746094 738 C 962.332031 747.597656 955.964844 765 946 771 C 951.640625 733.339844 978.453125 695 1001.601563 666 C 1010 655.492188 1018.945313 642.785156 1030 635 M 1914 664 C 1909.347656 660.472656 1900.757813 660.460938 1895 660 C 1880 658.207031 1865 656 1850 656 C 1796.960938 656 1743.984375 657 1691 657 C 1673.953125 657.007813 1657 658.007813 1640 658 C 1636.816406 658 1625.371094 655.351563 1624.40625 659.316406 C 1621.824219 670 1633.546875 668 1640 668.003906 C 1657 668.207031 1676 668.195313 1693 670.425781 C 1744.558594 677.191406 1800.296875 677.089844 1852 672.171875 C 1871.949219 670.269531 1895 671.109375 1914 664 M 884 678 C 875.558594 690 864.628906 700.523438 855.449219 712 C 837 735 820 759.359375 804.21875 784 C 796.359375 796.226563 788 808.40625 780.871094 821 C 777.535156 826.796875 774.648438 836.300781 769 840 C 779.25 790.464844 807.566406 746.261719 843 711 C 854 700 869 683.71875 884 678 M 906 731 C 900.265625 744 887.660156 755.058594 879.859375 767 C 854 806.417969 823 857.308594 822 906 L 824 906 C 825 894.621094 832.867188 885.671875 836 875 L 837 875 C 836.863281 891.691406 834 908.238281 834 925 C 837.914063 921 838.65625 915 841.429688 910 C 848.761719 897.078125 857.894531 881 870 872 C 868.863281 885 862.277344 896.628906 862 910 C 868 902.601563 872.527344 893.171875 880 887 C 879 898.523438 874.921875 909.65625 873 921 C 878.203125 915.480469 881.207031 907.464844 885.191406 901 C 893.636719 887.300781 902.394531 873.585938 912.449219 861 C 945.328125 820 987.613281 788.476563 1034 764.058594 C 1051.777344 754.699219 1073.96875 743 1094 740 L 1094 741 C 1051.933594 769.265625 1003.574219 792.183594 967 828 C 986.332031 819.671875 1009.566406 808 1031 807 L 1031 808 C 1009.785156 819.164063 989.542969 831.066406 970 845 C 960.507813 851.769531 948.796875 859.429688 942 869 C 980.332031 851.082031 1017.835938 839 1060 833.714844 C 1072.507813 832.160156 1089.71875 828 1102 831 L 1102 832 C 1070.222656 836.277344 1035 847.546875 1007 863.140625 C 998.574219 867.828125 987.472656 872.824219 981 880 C 1001 874.742188 1022 870 1043 869.039063 C 1063.503906 868.140625 1083.683594 870.832031 1104 871 L 1104 873 C 1074.699219 874.257813 1046.640625 884.160156 1019 893 L 1019 894 C 1056.980469 898.269531 1091.859375 907.40625 1125 927.398438 C 1135.1875 933.546875 1151.742188 942 1157 953 C 1126.699219 938.144531 1095.824219 928.671875 1062 926 C 1066 930.113281 1072.21875 932.019531 1077 935.425781 C 1091.984375 946.109375 1110.628906 960.5625 1118 978 C 1110.4375 974.800781 1103.84375 968.5625 1097 964 C 1084.25 955.5 1071 947.367188 1058 939.449219 C 1009.464844 910.175781 944 888.433594 892 922.34375 C 879.371094 930.558594 868.179688 940.339844 858.617188 952 C 844.445313 969.277344 832.492188 989.171875 822.257813 1009 C 817 1019 813.597656 1032.183594 807 1041 C 804.609375 1036.539063 802.976563 1032.296875 799 1029 C 799.570313 1031.3125 800 1033.628906 800.371094 1036.003906 C 802.644531 1056.054688 784.292969 1036.121094 778 1031 C 782.574219 1042 788.179688 1052.707031 792 1064 C 788 1062.726563 773.957031 1052.683594 770 1056.527344 C 768.371094 1058.140625 772.648438 1062.757813 773.496094 1064 C 778.214844 1071 784 1078.125 787 1086 C 783.605469 1085.03125 780.4375 1083.332031 777 1082.527344 C 774.703125 1082 772.324219 1082 770 1081.5625 C 749.8125 1078.328125 772.1875 1102 774 1111 C 763.519531 1107.09375 753.386719 1104.0625 746 1095 C 725.84375 1070.039063 737.222656 1019.601563 749 993 L 750 993 C 750.992188 1005.558594 752.988281 1018.773438 756 1031 L 757 1031 C 763.4375 1004 767.789063 972.75 770 945 L 772 945 C 772.773438 954.777344 774.765625 964.289063 776 974 L 777 974 C 777 954.503906 778 931.699219 784 913 L 785 913 C 785 929.59375 789.667969 944.683594 791 961 L 793 961 C 793 891.214844 812.910156 830 857.921875 776 C 870 761.339844 887.734375 738.074219 906 731 M 0 739 C 0 743.542969 -2.335938 757.671875 1.601563 760.566406 C 4.761719 763 11.210938 762.644531 15 763.398438 C 26.957031 765.785156 39 767.511719 51 769.804688 C 81.890625 775.714844 112.96875 780.503906 144 785.296875 C 159.75 787.730469 176 793 192 793 C 187.195313 788.675781 180 787.425781 174 785.308594 C 161.746094 781 149.441406 777.027344 137 773.28125 C 92 759.738281 46 747.601563 0 739 M 935 953 C 931.820313 959.28125 924.945313 963.535156 920.464844 969 C 910.652344 981 903.242188 996.371094 902 1012 C 901.941406 1014.023438 901 1019.324219 902.453125 1021 C 903.617188 1022.347656 908.308594 1020.59375 910 1020.699219 C 915.753906 1021.050781 921.820313 1023.824219 924.695313 1029.015625 C 930.613281 1039.6875 923.441406 1053.171875 927.601563 1064 C 935.480469 1084.378906 971 1082.824219 986 1074.324219 C 1002.226563 1065.128906 1012.296875 1049.160156 1015.535156 1031 C 1016.535156 1025.390625 1014.324219 1009 1018 1005.011719 C 1027.222656 995.398438 1046.21875 1012.5625 1049.863281 1020 C 1062.859375 1046.527344 1040.511719 1076.125 1020 1091 C 982.570313 1117.707031 924.417969 1115.015625 894.808594 1078 C 862.207031 1037.246094 879.242188 962.476563 935 953 M 29.667969 979.332031 C 29.222656 979.777344 30.277344 979.722656 30.332031 979.667969 C 30.777344 979.222656 29.722656 979.277344 29.667969 979.332031 M 1145 1057 C 1139.882813 1060.554688 1131.949219 1061.277344 1126 1063.34375 C 1114.761719 1067.246094 1102.855469 1074.8125 1091 1076 L 1091 1078 C 1117.875 1078 1142.9375 1078.769531 1169 1086.425781 C 1182.484375 1090.382813 1194.582031 1098.164063 1208 1102 L 1208 1103 C 1183.652344 1102.796875 1159.617188 1099 1135 1100.039063 C 1100.777344 1101.539063 1066.875 1111.097656 1035 1123 L 1035 1124 C 1044.421875 1125.246094 1054.519531 1126.804688 1064 1127 L 1064 1128 C 1040.609375 1135.394531 1013.25 1136.296875 989 1141 L 989 1142 L 1014 1145 L 1014 1146 C 967.535156 1157.445313 921.335938 1147.578125 878 1129 C 884 1137 893.445313 1141.644531 901 1148 C 886.699219 1152 870.285156 1141.804688 858 1136 C 861.90625 1142.332031 866.820313 1148 871 1154 C 848.699219 1146.433594 840.640625 1112.75 839 1092 C 850.5625 1096.234375 861.335938 1103.140625 873 1107.574219 C 913 1122.804688 954.601563 1131.054688 996 1116.308594 C 1015.980469 1109.191406 1033.203125 1096.621094 1049 1082.714844 C 1060 1073 1069 1062 1083 1056 C 1095.785156 1050.382813 1108.488281 1050.828125 1122 1052 C 1129.753906 1052.539063 1137.945313 1053.546875 1145 1057 M 1385 1209 C 1371.625 1199.574219 1361 1184 1349.910156 1172 C 1328.910156 1149.453125 1307 1127.535156 1285.253906 1105.746094 C 1272.808594 1093.296875 1260 1081 1247 1069.171875 C 1240.871094 1063.632813 1232.265625 1059.160156 1228 1052 C 1241.925781 1057.136719 1254.769531 1067.296875 1267 1075.539063 C 1301 1098.554688 1329.214844 1127 1353.730469 1160 C 1364.707031 1174.777344 1378.445313 1191.679688 1385 1209 M 0 1069 C 1.675781 1071.222656 3.257813 1071.5625 6 1072 C 4 1070.597656 2.269531 1069.777344 0 1069 M 657 1077 C 647.8125 1087.726563 635.222656 1093.570313 627 1106 C 637.75 1101.203125 648.367188 1101 660 1101 C 655.207031 1108.316406 644.503906 1111.523438 639 1119 C 646.175781 1116 654.347656 1117 662 1117 C 660.394531 1119.363281 658.695313 1120.039063 656 1121 C 660.3125 1125 666.847656 1128.171875 670 1133 C 656.78125 1133.007813 642.390625 1136.449219 630 1141 L 630 1142 C 636.785156 1144.605469 643.867188 1149.300781 647 1156 C 638.875 1155.335938 631.191406 1152.171875 623 1152 C 627.527344 1157.6875 633.566406 1163 636 1170 C 611 1163.132813 584 1154.71875 558 1162.300781 C 552.175781 1164 548.339844 1168.523438 543 1171 L 545 1162 L 544 1162 C 541.5625 1167.652344 537.945313 1172.730469 537.183594 1179 C 534.746094 1199.09375 552.351563 1213.722656 562.484375 1229 C 578.644531 1253.371094 596.941406 1285.695313 591.535156 1316 C 588 1335.191406 574 1353.246094 556 1360.546875 C 546.9375 1364.207031 534.550781 1364.792969 527.527344 1356.816406 C 515.503906 1343.148438 520.679688 1322.789063 523 1307 L 522 1307 C 513.191406 1325.617188 496 1342 483.285156 1358 C 461.25 1385.796875 440.503906 1414.367188 421 1444 C 412.402344 1457.070313 404.558594 1470.699219 396.316406 1484 C 392.785156 1489.699219 389.933594 1497.5 384 1501 C 395.824219 1457.664063 415.984375 1416 442.894531 1380 C 459.636719 1357.640625 481 1338.222656 496.476563 1315 C 502.734375 1305.546875 505.238281 1294 511 1284 C 505.582031 1287.816406 501.714844 1293.726563 496 1297 C 496 1288.203125 498.589844 1280.347656 499 1272 C 494 1277.808594 490.847656 1284.46875 487 1291 L 486 1291 C 482.304688 1279.3125 482.667969 1264 485 1252 C 485.378906 1250.070313 489.429688 1238.5625 488.292969 1237.597656 C 486 1235.667969 474.984375 1245.644531 473 1247 C 476.519531 1223.507813 495.566406 1209.28125 510 1193 C 502.3125 1193.160156 495.476563 1196 488 1197 C 492.644531 1177.234375 516 1162 529.960938 1148.828125 C 539 1140.136719 546.5625 1129.707031 556 1121.171875 C 583.242188 1096.53125 619.433594 1077.3125 657 1077 M 1269 1194 L 1269 1195 C 1240.757813 1190.828125 1210 1177.058594 1181 1184 L 1181 1185 C 1204.472656 1191.269531 1227.714844 1208.265625 1248 1221.308594 C 1289.820313 1248.191406 1327.929688 1282 1363 1317 C 1380.378906 1334.378906 1399.933594 1352.792969 1414 1373 C 1398.523438 1367.132813 1383.472656 1353.046875 1370 1343.421875 C 1336.65625 1319.59375 1304.828125 1294 1272 1269.375 C 1231.355469 1239.019531 1186.992188 1211.402344 1140 1192.011719 C 1118.445313 1183.117188 1096 1177.734375 1074 1171 C 1088.796875 1162.078125 1114.191406 1162.195313 1131 1162 C 1178.476563 1161.433594 1227.988281 1167 1269 1194 M 761 1186 C 769.425781 1194 777.230469 1204.257813 788 1209 C 786.613281 1203.179688 785.851563 1196 787 1190 C 800.300781 1200.726563 808.933594 1208.472656 826 1213 C 821.292969 1206 816.296875 1199.398438 814 1191 C 826 1196.640625 837.851563 1211.203125 847 1221 L 848 1216 C 870.722656 1223.238281 892.238281 1238.484375 913 1250 L 913 1251 C 887.4375 1247.539063 863.476563 1237.613281 837 1239 C 845.304688 1242.675781 857.714844 1243.769531 863 1252 C 854.597656 1252 846.277344 1251.535156 838 1250 C 842 1254.0625 847.703125 1254.277344 853 1256 C 864.277344 1259.667969 875.65625 1263.152344 887 1266.570313 C 922 1277.136719 957.738281 1291 990 1308.308594 C 1093.683594 1364.351563 1178.523438 1459.765625 1224 1569 C 1211.910156 1559.222656 1203.757813 1542.347656 1194.347656 1530 C 1174 1503.464844 1153.359375 1477.316406 1130.675781 1452.828125 C 1070.464844 1388 999.765625 1338.679688 919 1303 C 895.589844 1292.539063 871 1280 846 1274 L 846 1275 C 855 1278.773438 864.6875 1282.753906 873 1288 L 873 1289 C 853.179688 1288.09375 831.972656 1280.578125 812 1278 C 823.558594 1287.496094 839 1293.71875 852 1301.449219 C 875 1315.296875 897.464844 1330.289063 919 1346.476563 C 982.773438 1394.40625 1030.75 1460.726563 1065.257813 1532 C 1075.84375 1554 1091.707031 1579.675781 1095 1604 L 1094 1604 C 1034.238281 1482.089844 944 1366.753906 819 1307 C 828.375 1317.257813 843.449219 1325.207031 855 1333 L 855 1334 C 847 1333 838.609375 1328.066406 831 1325.226563 C 819.558594 1321 807.632813 1317.722656 796 1314 C 812.269531 1336.617188 838 1354.195313 856.828125 1375 C 886 1407.324219 907.878906 1446.691406 924 1487 C 929.335938 1500.335938 936.890625 1514.722656 939 1529 L 938 1529 C 898.789063 1454.476563 850.90625 1381.609375 781 1332 C 793.816406 1355.347656 807.800781 1382 814 1408 C 806.957031 1402.609375 802.328125 1394.277344 796 1388.015625 C 780.65625 1372.816406 761.679688 1357.199219 742 1348 C 751.695313 1361 768.949219 1370.382813 775 1386 C 764.308594 1380 755.398438 1371 746 1363 C 750 1370.265625 753.71875 1377.425781 757 1385 C 757.933594 1386.695313 760.617188 1391 758.34375 1392.398438 C 755 1394.507813 748.335938 1392.621094 745 1391.703125 C 734 1388.691406 723.355469 1384.457031 713 1379.824219 C 683 1366.398438 654 1346.671875 637 1318 C 629 1304.660156 622.679688 1289 625.324219 1273 C 631.777344 1234.363281 682.699219 1234.71875 711 1222.570313 C 715.796875 1220.511719 721 1217.582031 723.910156 1213 C 725.886719 1209.644531 725 1204.371094 728.316406 1202 C 737.347656 1195.101563 755.636719 1203.78125 765 1206 C 763 1200.171875 758.628906 1192.082031 761 1186 M 1093 1213 C 1069.253906 1202.382813 1041.292969 1193 1016 1187 C 1021.652344 1184.628906 1029.203125 1187 1035 1188.210938 C 1049.710938 1191.324219 1064.542969 1196.039063 1078 1202.753906 C 1083.371094 1205.433594 1089.84375 1207.644531 1093 1213 M 1241 1298 C 1215.636719 1289 1192.175781 1272.707031 1167 1262.453125 C 1124.539063 1245.152344 1080.542969 1233.773438 1037 1220 C 1049.503906 1213.351563 1070.632813 1219.472656 1084 1220.832031 C 1127.691406 1225.269531 1172.585938 1246.746094 1208 1272 C 1218.855469 1279.738281 1232.597656 1287.585938 1241 1298 M 424 1235 C 420 1241.753906 415.664063 1248 412.257813 1255 C 410.238281 1259.171875 409 1265.261719 405.441406 1268.410156 C 400.722656 1272.585938 390 1273.304688 384 1275 C 365.304688 1279.792969 345.292969 1287.425781 326 1289 C 338.246094 1278 360.421875 1271.179688 376 1266.195313 C 381.363281 1264.476563 390 1264 394.683594 1260.824219 C 399.382813 1257.613281 395.496094 1249.753906 398.179688 1245.328125 C 402.191406 1238.710938 416.851563 1235.625 424 1235 M 1469 1373 C 1456.179688 1368.136719 1443 1356.648438 1432 1348.476563 C 1406.261719 1329.441406 1383 1309.148438 1360 1287.039063 C 1347.566406 1275.152344 1331 1264 1321 1250 C 1332.777344 1254.050781 1344.527344 1263.695313 1355 1270.496094 C 1385.621094 1290.386719 1414.539063 1314.160156 1439.285156 1341.023438 C 1448.953125 1351.523438 1461.566406 1360.714844 1469 1373 M 435 1256 C 430.964844 1265.535156 421.894531 1274.671875 415.625 1283 C 414 1285.0625 410.816406 1290.691406 407.601563 1290.078125 C 404.367188 1289.464844 405 1274.429688 406 1272.039063 C 410.335938 1262.640625 425.921875 1258.476563 435 1256 M 1284 1410 C 1270.441406 1405.035156 1257.914063 1393.714844 1245.960938 1385.660156 C 1225.515625 1372 1204.289063 1359 1183 1346.449219 C 1135.382813 1318.625 1085 1301.546875 1034 1282 C 1040.550781 1279.25 1051 1280.742188 1058 1281.730469 C 1073.285156 1284 1088.210938 1286.589844 1103 1291.117188 C 1151.953125 1306.097656 1194 1333.042969 1234 1364.488281 C 1250.789063 1377.71875 1271.460938 1392.550781 1284 1410 M 456 1283 L 456 1284 C 416.714844 1308.046875 375 1328.171875 336 1352.425781 C 323 1360.417969 309.679688 1367.660156 297 1376.003906 C 289.46875 1381 280.992188 1388.378906 272 1390 C 279.609375 1378 291.300781 1367.265625 302 1358 C 331.199219 1332.140625 363.980469 1312.585938 400 1298.179688 C 417.265625 1291.273438 437 1283.390625 456 1283 M 780 1331 L 781 1332 L 780 1331 M 455 1333 L 455 1334 C 425 1356.761719 395.683594 1386.804688 362 1404 C 366.242188 1395.820313 374.523438 1389.445313 381 1383 C 396.40625 1367.671875 414.171875 1354.378906 433 1343.578125 C 439.910156 1339.617188 447 1334.414063 455 1333 M 152 1407 C 143.292969 1397.800781 138.351563 1386.757813 124 1385.339844 C 113.855469 1384.339844 90.746094 1398 95.65625 1410.605469 C 97.929688 1416.5 114.554688 1419.398438 120 1421.605469 C 143.976563 1431.316406 168 1444 193 1451 C 193 1425 187.574219 1399.105469 169.570313 1379.039063 C 163.613281 1372.398438 155.46875 1367.445313 147 1364.746094 C 145.523438 1364.273438 139.679688 1362 138.882813 1364.449219 C 138 1367.144531 144 1374.484375 145.394531 1377 C 150 1386.421875 152 1396.5625 152 1407 M 213 1363 L 212 1364 C 226.777344 1390 230 1409.621094 230 1439 C 222.613281 1430.792969 221.484375 1416.273438 209 1413 C 212.546875 1422.714844 212.542969 1433 211 1443 C 210.574219 1447 207.53125 1454.761719 210 1458.351563 C 212.664063 1462.128906 220.882813 1464.089844 225 1465.808594 C 236.414063 1470.574219 247.636719 1475.824219 259 1480.714844 C 262 1482.007813 271.863281 1487.777344 273.96875 1483.667969 C 278.707031 1474.414063 274 1456.453125 271.730469 1447 C 262.757813 1411.53125 243.226563 1383.664063 213 1363 M 742 1477 C 729 1470.117188 717 1463.261719 705 1455 C 710.648438 1467 718.984375 1478.074219 724 1490 C 707.351563 1480 696.382813 1470 684 1455 C 685.347656 1471.378906 694.246094 1486.585938 703 1500 C 695.359375 1498.183594 688.839844 1491.277344 683 1486.269531 C 666.691406 1472.292969 652.882813 1456.273438 639 1440 C 640 1452.558594 643.464844 1465.304688 648 1477 C 632.34375 1466 623.75 1448.472656 611 1435 L 614 1452 C 599 1439.691406 592.875 1390.324219 619 1387.1875 C 630 1386 641.496094 1392.355469 651 1397.257813 C 676.519531 1410.433594 703.40625 1429.304688 722.28125 1451 C 728.605469 1458.265625 739.386719 1467.664063 742 1477 M 1696 1407 C 1714.984375 1415.597656 1742.410156 1415.265625 1763 1418.300781 C 1819.585938 1426.636719 1876.40625 1431.144531 1933 1438.574219 C 1948.195313 1440.570313 1963.730469 1440.042969 1979 1441.089844 C 1984 1441.441406 1993.644531 1444.171875 1998.398438 1441.398438 C 2001.269531 1439.71875 2000.613281 1429.101563 1999.683594 1426.316406 C 1998.511719 1422.824219 1985.496094 1422.742188 1982 1422.289063 C 1963.800781 1420 1944.375 1418.214844 1926 1418 C 1893.828125 1417.613281 1861 1412.289063 1829 1410.089844 C 1784.882813 1407.066406 1740.257813 1407 1696 1407 M 0 1410 L 0 1439 C 0 1442.382813 -0.941406 1447.617188 1 1450.582031 C 3.261719 1454 9.425781 1454.785156 13 1456.003906 C 22.480469 1459.234375 31.675781 1463.34375 41 1467 C 78.292969 1481.601563 116 1495.191406 153 1511 C 265.960938 1558.824219 382.890625 1602 491 1660.308594 C 530.859375 1682 568.390625 1706.804688 606 1732 C 624.472656 1744.375 643.726563 1761 664 1770 C 659.816406 1757.691406 645.367188 1745 636.996094 1735 C 601.167969 1692 552.515625 1665.046875 505 1636.550781 C 346.601563 1541.5625 171.546875 1476.535156 0 1410 M 0 1473 C 0 1478.386719 -2.1875 1490 1 1494.351563 C 5.628906 1500.78125 26.453125 1504.8125 34 1507.683594 C 62 1518.371094 90 1529.234375 118 1540.601563 C 181.890625 1566.691406 246.699219 1591.074219 309 1621 C 373 1651.660156 434.753906 1686.828125 497 1721 C 491.679688 1710.585938 473.617188 1703.632813 464 1697.34375 C 434 1677.75 403.476563 1658.757813 372 1641.691406 C 326 1617 281.210938 1590.570313 234 1568.296875 C 157.65625 1532.28125 78.601563 1503.488281 0 1473 M 90 1561 C 97.402344 1578.230469 120 1584.425781 136 1590.800781 C 168.570313 1603.828125 201.429688 1616.015625 234 1629 C 249.214844 1635.066406 268.820313 1646.578125 285 1648 C 270.667969 1634.578125 247.960938 1626 231 1616 C 185.425781 1589.21875 144.789063 1561 90 1561 M 0 1564 C 0 1568 -1 1574.144531 1 1577.660156 C 5.523438 1585 24.292969 1588.691406 32 1592 C 65 1605.726563 98 1619.382813 131 1633.425781 C 219.328125 1671.117188 306.617188 1713.019531 389 1762.449219 C 424.34375 1783.65625 459.351563 1805.375 494 1827.691406 C 512 1839.375 531.867188 1856.367188 552 1864 C 545 1849.433594 525.363281 1836.546875 514 1825 C 504.824219 1815.644531 495.746094 1805.761719 487.671875 1795.425781 C 483.75 1790.410156 480.976563 1783.574219 475.90625 1779.636719 C 467.480469 1773.097656 454.664063 1769.292969 445 1764.699219 C 426.859375 1756.078125 408.855469 1747 391 1737.640625 C 308 1695 224 1654.679688 138 1618.574219 C 92.441406 1599.457031 47 1579.292969 0 1564 M 641 1602 L 641 1603 C 717.351563 1647.566406 802 1677.167969 885 1706.691406 C 980.953125 1741 1077 1774.425781 1174 1805.503906 C 1224.796875 1821.78125 1276 1836.339844 1327 1852.191406 C 1346.492188 1858.261719 1366.195313 1864 1386 1869 C 1394.800781 1871.085938 1403.890625 1874.804688 1413 1875 C 1400.683594 1862.558594 1376.632813 1856.570313 1361 1848.753906 C 1317 1826.804688 1271.5625 1806.023438 1226 1787.800781 C 1171.640625 1766.054688 1114.96875 1750.128906 1059 1733.117188 C 988.226563 1711.605469 917.453125 1690.089844 847 1667.496094 C 802.21875 1653.132813 757.703125 1638 713 1623.328125 C 690.527344 1616.003906 664.558594 1604.058594 641 1602 M 0 1609 C 0 1617 -3.386719 1635 1 1641.582031 C 4.386719 1646.625 17.484375 1648 23 1650.0625 C 42.371094 1657.410156 61.597656 1665.238281 81 1672.480469 C 144.964844 1696.355469 206.738281 1726 270 1751.605469 C 291.699219 1760.394531 313.492188 1771.519531 336 1778 C 331.902344 1770.507813 320.964844 1766.410156 314 1761.832031 C 294.789063 1749.199219 274.929688 1737.453125 255 1726 C 197.222656 1692.792969 136.613281 1664.136719 75 1638.789063 C 50.367188 1628.65625 25.605469 1616.425781 0 1609 M 943 1614.332031 C 943.773438 1614.332031 943 1614.832031 942.667969 1614.667969 L 943 1614.332031 M 0 1657 C 0 1663 -2.402344 1675.476563 1 1680.363281 C 4.265625 1685 14 1686.679688 19 1689 C 34.738281 1695.765625 50.53125 1702.773438 66 1710.257813 C 115.421875 1734.167969 165.382813 1757.183594 216 1778.425781 C 239.550781 1788.308594 265.722656 1802.703125 291 1807 C 286 1800.71875 277.601563 1797.652344 271 1793.328125 C 253.1875 1781.667969 234.464844 1771.546875 216 1761 C 164.9375 1731.832031 111.949219 1705.726563 58 1682.347656 C 39 1674.117188 19.882813 1662.726563 0 1657 M 1325 1667 L 1325 1668 L 1328 1668 C 1326.753906 1667.316406 1326.449219 1667.25 1325 1667 M 724 1676 C 728.527344 1682.394531 740 1685.570313 747 1689.109375 C 763.910156 1697.808594 780.601563 1707.222656 797 1717 C 809.347656 1724.121094 819.183594 1736.371094 832 1742.507813 C 841.238281 1747 852 1748.3125 862 1751.011719 C 879.761719 1756 897.335938 1761.355469 915 1766.554688 C 969.507813 1782.601563 1023.808594 1800 1078 1817 C 1074.410156 1810.777344 1062.332031 1807.738281 1056 1804.769531 C 1035.242188 1795.03125 1013.980469 1786.394531 993 1777.152344 C 929.796875 1749.304688 865.5 1722.265625 800 1700.332031 C 783.699219 1695 767.328125 1689.6875 751 1684.332031 C 742.421875 1681.519531 732.96875 1677 724 1676 M 0 1720 C 0 1725.347656 -2.574219 1740.117188 1.601563 1744 C 7.613281 1749.367188 23.210938 1750.316406 31 1752.71875 C 52.628906 1759.382813 74.226563 1766 96 1772.140625 C 103.976563 1774.402344 114.820313 1780.027344 123 1779 C 111.464844 1769 94.578125 1763.4375 81 1756.652344 C 55.644531 1744 27.707031 1726.566406 0 1720 M 684 1737 C 686.308594 1745.074219 689.394531 1755.261719 694.765625 1761.828125 C 707.59375 1777.53125 730.65625 1780 749 1784.734375 C 762.441406 1788.289063 777.1875 1793.792969 791 1795 C 783.722656 1787.117188 772 1782.597656 763 1777 C 745.199219 1765.828125 728.183594 1754.34375 709 1745.695313 C 701.222656 1742.1875 692.628906 1737.441406 684 1737 M 1525 1778 L 1525 1779 L 1528 1779 C 1526.753906 1778.316406 1526.453125 1778.25 1525 1778 M 553 1864 L 554 1865 L 553 1864 "/></g></svg>