<svg xmlns="http://www.w3.org/2000/svg" xmlns:xlink="http://www.w3.org/1999/xlink" viewBox="0 0 100 100" version="1.1"><g transform="translate(1, 13.322577615802025) scale(0.04891048998830319) translate(1, -241.222656)"><path style=" stroke:none;fill-rule:nonzero;fill:rgb(0%,0%,0%);fill-opacity:1;" d="M 1323 244 L 1323 245 C 1349.726563 247.109375 1376.3125 247.773438 1403 251.28125 C 1422.328125 253.824219 1441.617188 259.457031 1461 261 C 1452.304688 254 1436.738281 251.589844 1426 249.117188 C 1391.710938 241.222656 1357.753906 242.507813 1323 244 M 1313 252.425781 C 1299 254.246094 1284.9375 253.550781 1271 255.285156 C 1231.320313 260.222656 1191.457031 270.246094 1154 284.226563 C 992.191406 344.625 868.578125 488.308594 804.800781 646 C 773.9375 722.308594 752 799.234375 752 882 C 752 916.558594 761.890625 963.753906 804 967.828125 C 832.765625 970.613281 856.84375 947.332031 863.621094 921 C 872 888.371094 869.929688 853.351563 873.171875 820 C 877.449219 776 890.183594 729.46875 908 689 C 938.386719 620.539063 977.441406 555.207031 1032 503.039063 C 1156.363281 384.121094 1346.4375 334.601563 1504 419.308594 C 1535.636719 436.320313 1566.269531 456.027344 1593 480.171875 C 1626.46875 510.398438 1656 543.621094 1681.40625 581 C 1772.699219 716.011719 1790.878906 890.515625 1757.488281 1047 C 1746.808594 1097.0625 1730.703125 1146 1710.574219 1193 C 1701 1215.296875 1685.441406 1237.140625 1677.984375 1260 C 1676.355469 1265 1679.511719 1269.761719 1681.859375 1274 C 1686.773438 1283 1691.539063 1292 1695.972656 1301 C 1713.902344 1338 1727.554688 1376.347656 1741 1415 C 1744.925781 1426.289063 1748.378906 1437.753906 1752.414063 1449 C 1753 1451 1754.660156 1459.792969 1757.378906 1459.792969 C 1759.671875 1459.792969 1761 1455.570313 1761.898438 1454 C 1764.945313 1448.570313 1768.476563 1443.410156 1771.578125 1438 C 1784.816406 1415 1797.953125 1391.746094 1809.996094 1368 C 1862 1265.207031 1893.527344 1156.335938 1912 1043 C 1954.480469 784 1854.949219 498.308594 1635 347.347656 C 1604.488281 326.40625 1570.9375 310.058594 1537 295.578125 C 1482 272.164063 1424.445313 258 1365 254 C 1348 252.746094 1330 250.191406 1313 252.425781 M 1531 277 C 1534.324219 281.699219 1541.859375 284.234375 1547 286.628906 C 1555.894531 290.761719 1564.570313 295.78125 1573 300.800781 C 1607.375 321.257813 1640 344.03125 1674 365 C 1667.945313 352.273438 1651 341 1640 332.628906 C 1607.820313 308.464844 1570 287.464844 1531 277 M 1801 481 C 1828.53125 537.105469 1857.242188 592.464844 1884 649 L 1885 649 C 1883.832031 635.613281 1877 621.5 1872.425781 609 C 1860.898438 578.4375 1846.59375 550.253906 1830.285156 522 C 1823.425781 510.117188 1812.820313 488.152344 1801 481 M 397 1445 C 392.667969 1449.140625 386.296875 1456 380 1456.617188 C 370.210938 1457.683594 355.515625 1450.070313 346 1447.425781 C 320.84375 1440.433594 295.457031 1434.226563 270 1428.5 C 205.992188 1414.09375 135.679688 1410.820313 71 1422.464844 C 47.351563 1426.71875 24.789063 1434.585938 2 1442 L 2 1443 C 20.914063 1443 40 1436.027344 59 1434.171875 C 98.605469 1430.273438 138.273438 1428.390625 178 1432.171875 C 217.203125 1436 256.71875 1441 295 1450.476563 C 309.648438 1454.136719 324.445313 1457.375 339 1461.425781 C 348.339844 1464.023438 358.292969 1468.503906 368 1469 C 365.628906 1473.253906 362 1480.804688 356.960938 1482.226563 C 348.726563 1484.542969 334.457031 1479.488281 326 1478.269531 C 305 1475.257813 283.980469 1474.175781 263 1472.171875 C 199 1466.066406 130.832031 1471 69 1488.578125 C 53 1493.132813 36.992188 1498.617188 22 1505.746094 C 16.40625 1508.40625 10.214844 1510.300781 6 1515 C 20.234375 1512.023438 33.859375 1506.011719 48 1502.476563 C 78.730469 1494.789063 109.519531 1490 141 1486.828125 C 172.566406 1483.777344 204.320313 1483.652344 236 1485.039063 C 263.652344 1486.25 291.667969 1489 319 1493.566406 C 328.808594 1495.210938 341.964844 1495.046875 350.851563 1499.804688 C 354.683594 1502 353.996094 1506.261719 354 1510 C 354 1519.378906 353.808594 1528.789063 355.886719 1538 C 356.582031 1541.074219 359.640625 1547.316406 355.757813 1549.257813 C 350 1552.085938 339.242188 1550 333 1550 L 83 1550 C 62.621094 1550 42.378906 1550.089844 22 1550 C 17.878906 1550 3.921875 1547.289063 1 1550.042969 C -0.71875 1551.703125 0 1556 0 1558 C 0 1565 -1 1573 0 1580 C 1.183594 1585.480469 16.5625 1583 21 1583 L 294 1583 C 311.648438 1583 329.355469 1583.417969 347 1583 C 354.628906 1582.796875 363 1580.007813 369.984375 1584.703125 C 378.445313 1590.453125 380.265625 1601.8125 382.628906 1611 C 385.980469 1624.023438 390.933594 1636.757813 396.433594 1649 C 414.246094 1688.648438 451 1728.625 494 1741 C 488.808594 1731.148438 478.574219 1723.523438 472.34375 1714 C 458.550781 1693 451.835938 1670.761719 448.574219 1646 C 447.425781 1637.28125 447.386719 1627.613281 449.363281 1619 C 450 1616 451.878906 1610.503906 456 1611.636719 C 463.675781 1613.726563 470.453125 1626 474.71875 1632 C 485.976563 1648.074219 494.738281 1665.332031 504.9375 1682 C 509.425781 1689.328125 513.945313 1699.164063 522 1703 C 518.472656 1676.792969 520.898438 1653.214844 530.226563 1628 C 532.375 1622.203125 536 1607.148438 543.574219 1606.316406 C 550 1605.597656 554.636719 1618.339844 556.300781 1623 C 563.539063 1643.261719 558.890625 1661.550781 558 1682 C 575.398438 1673.582031 591.84375 1653.21875 603.253906 1638 C 607.40625 1632.464844 614.910156 1617.078125 622 1615.539063 C 626.894531 1614.480469 635.304688 1622.742188 639 1625.476563 C 653.453125 1636.167969 668.578125 1646.296875 684 1655.550781 C 718.382813 1676.179688 754.449219 1693.300781 793 1704.574219 C 813.425781 1710.550781 836.226563 1711.789063 856 1719 C 849.238281 1708 831.726563 1706.410156 825 1694 C 839.398438 1703.566406 858 1711.386719 875 1715 C 863.171875 1698.558594 845.878906 1688.753906 836 1670 C 841 1671.730469 857.238281 1681.726563 862.308594 1678.714844 C 864.6875 1677.296875 862.90625 1667.632813 863.171875 1665 C 864.203125 1654.667969 869.222656 1645.09375 875.515625 1637 C 896.222656 1610.355469 934.550781 1592.628906 967 1585.804688 C 998.679688 1579.144531 1033.742188 1583 1066 1583 L 1323 1583 C 1333.792969 1583 1348.847656 1580.324219 1359 1584.34375 C 1372.496094 1589.6875 1377.3125 1610 1382.199219 1622 C 1384.261719 1627.105469 1386.179688 1634 1391 1637 C 1390.542969 1626.371094 1389.652344 1616.660156 1391.296875 1606 C 1392.175781 1600.3125 1396 1592.757813 1395.382813 1587.128906 C 1394.679688 1581.085938 1385.234375 1575.171875 1383.503906 1568 C 1377.730469 1544.085938 1385.765625 1512.441406 1398.695313 1492 C 1405.394531 1481.40625 1417.59375 1467.128906 1432 1470.714844 C 1436.605469 1472 1444.925781 1481.46875 1448.921875 1479.824219 C 1455 1477.257813 1460 1468.519531 1466 1464.699219 C 1483.796875 1453.234375 1505.21875 1455.511719 1520.984375 1469.300781 C 1527.25 1474.777344 1530.785156 1486 1537.558594 1490.167969 C 1540.664063 1492.117188 1545.195313 1486.144531 1548 1485.007813 C 1553.847656 1482.640625 1561.589844 1484 1567 1486.824219 C 1594.648438 1501.324219 1596.359375 1546.675781 1589.394531 1573 C 1587.53125 1580.046875 1580.617188 1586.273438 1579.617188 1593 C 1578.683594 1599.28125 1582.882813 1607.632813 1583.710938 1614 C 1585.664063 1629.03125 1582.46875 1643 1575 1656 C 1572.484375 1645.054688 1575.351563 1632.429688 1573.5625 1621 C 1571.246094 1606.222656 1561.691406 1595.027344 1558.429688 1581 C 1552.34375 1555 1552.613281 1528.78125 1543 1503 L 1542 1503 C 1542 1529.515625 1544.300781 1560.726563 1534 1586 C 1528.210938 1600.472656 1509.375 1609.058594 1500.277344 1592 C 1496.378906 1584.683594 1497 1574.0625 1497 1566 C 1497 1551.640625 1496 1537.289063 1496 1523 C 1495.964844 1515.394531 1496.96875 1503.625 1493 1497 C 1486.59375 1518.078125 1483.886719 1542.136719 1481 1564 C 1479.796875 1575 1478.203125 1590 1468.824219 1597.195313 C 1456.816406 1606.445313 1442 1592.023438 1438.359375 1581 C 1429.179688 1554.414063 1441.835938 1525.507813 1444 1499 L 1443 1499 C 1430.203125 1521 1425.636719 1545.175781 1418 1569 C 1415.386719 1577.632813 1410.355469 1585.386719 1407.519531 1594 C 1402.96875 1607.808594 1403 1621.746094 1404 1636 C 1405.320313 1655 1415.757813 1682.492188 1434 1691 C 1430.855469 1672.5 1425.324219 1658.046875 1430.871094 1639 C 1431.984375 1635.183594 1435.640625 1623.03125 1441.414063 1624.613281 C 1445.851563 1625.828125 1448.519531 1633.171875 1449.910156 1637 C 1454.371094 1649.269531 1458.34375 1661 1465.542969 1672 C 1483.445313 1699.480469 1510.589844 1719 1542 1728 C 1537.863281 1719.082031 1529.476563 1711.710938 1524.464844 1703 C 1514.566406 1685.804688 1513 1665.484375 1520 1647 C 1522.300781 1641.113281 1533.738281 1617.433594 1542.28125 1622 C 1555.585938 1629 1560.550781 1653.5625 1561.828125 1667 C 1562 1669.585938 1560.234375 1684.621094 1562.605469 1685.078125 C 1565.386719 1685.617188 1569 1681.191406 1571 1679.664063 C 1578.375 1673.8125 1584.449219 1667.5 1590 1660 C 1591.855469 1657.722656 1594.867188 1652.070313 1598.171875 1652.054688 C 1602.234375 1652.03125 1607.273438 1659 1610 1661.4375 C 1618.808594 1669.296875 1628.898438 1679.789063 1640 1684 C 1631.726563 1657.386719 1618.570313 1636 1616.964844 1607 C 1616.65625 1601.484375 1613.277344 1589.339844 1617 1584.601563 C 1619.746094 1581.171875 1630 1583 1634 1583 L 1974 1583 C 1979.941406 1583 1999 1586.1875 1999.941406 1578 C 2000.429688 1572.796875 2002.660156 1553.714844 1998.972656 1550.027344 C 1996.828125 1548 1990.761719 1549 1988 1549 L 1830 1549 C 1817.613281 1549 1805.386719 1550 1793 1550 C 1789 1550 1782.777344 1551.21875 1780 1547.683594 C 1776.964844 1543.574219 1776.433594 1536 1775 1531 C 1771.199219 1518 1767 1505 1763 1492 C 1751.257813 1453.417969 1737.40625 1415.445313 1719.976563 1379 C 1665.261719 1264.597656 1581.410156 1125.363281 1445 1102.433594 C 1426.902344 1099.394531 1409.199219 1100 1391 1101 C 1368.898438 1102.195313 1346.253906 1109.175781 1326 1118 C 1294.660156 1131.332031 1266.824219 1151.425781 1241 1173.425781 C 1191.605469 1215.511719 1150.507813 1267.769531 1109.804688 1318 C 1089.378906 1343.207031 1068.839844 1376.304688 1042 1395 C 1045.835938 1378.8125 1051.945313 1363.585938 1054.714844 1347 C 1061.808594 1304.519531 1062.773438 1261.433594 1070.425781 1219 C 1080.78125 1161.5625 1098.445313 1103 1092.828125 1044 C 1089.246094 1006.339844 1082.902344 945.117188 1035 940 C 1028.921875 939.296875 1022.992188 939.71875 1017 941.015625 C 992.847656 946.242188 972 964.007813 955 981 C 922.972656 1013.015625 895 1050.308594 873.175781 1090 C 867 1101 861.628906 1112.511719 856.652344 1124 C 853.828125 1130.519531 852 1139 847 1144 C 852.210938 1118.734375 857.558594 1092.546875 861 1067 L 860 1067 C 854.375 1082.726563 847.8125 1098.1875 842.34375 1114 C 840 1120.601563 839.632813 1129.695313 835 1135 C 835 1117.53125 835.527344 1098 840 1081 C 827.84375 1084.078125 813.351563 1077.425781 801 1076.171875 C 776.351563 1073.664063 753.527344 1074.410156 729 1077.71875 C 721.261719 1078.761719 713.714844 1080.769531 706 1082 C 703.914063 1082.207031 698.542969 1081.140625 697 1082.808594 C 695 1085.15625 697 1095 697 1098 C 697 1112.011719 697.277344 1126.027344 697 1140 L 696 1140 C 692.171875 1110 678.3125 1081.621094 669 1053 L 668 1053 C 668 1085.269531 672.625 1117 674 1149 C 662.746094 1131.25 655.976563 1109.53125 645.433594 1091 C 620.417969 1047.023438 587.453125 1004.640625 549 971.730469 C 526 952.183594 490.257813 929 459 942.339844 C 421.824219 958.335938 417 1011.035156 417 1046 C 417 1109.007813 438.609375 1167 454.847656 1227 C 464 1261.257813 468.921875 1296.078125 474.753906 1331 C 478.339844 1352.472656 483.5625 1374.738281 491.601563 1395 C 493.359375 1399.4375 501.683594 1414.011719 498.867188 1418.398438 C 496 1422.769531 476 1418.816406 471 1419.039063 C 460.179688 1419.511719 449.566406 1423.085938 440 1428.027344 C 435 1430.535156 429.46875 1436.375 424 1437 C 417.578125 1437.667969 408.785156 1431.234375 403 1428.773438 C 303.960938 1386.648438 211.285156 1339.46875 101 1340 C 75 1340.125 47.894531 1345.011719 23 1352.140625 C 19 1353.253906 -0.328125 1357.617188 0.464844 1362.773438 C 0.910156 1365.671875 6.199219 1364.125 8 1364 C 16.679688 1362.636719 25.273438 1361 34 1360 C 70.683594 1355.832031 106.3125 1355.832031 143 1360 C 178.589844 1364 214 1372.683594 248 1384 C 282.269531 1395.425781 315.824219 1409.058594 349 1423.328125 C 365 1430.21875 380.519531 1439.386719 397 1445 M 82 1043 C 85 1052.183594 94 1060.253906 99.964844 1067.828125 C 115 1087.257813 131.296875 1105.726563 147.828125 1124 C 213.695313 1196.796875 288.441406 1259.265625 361 1325.074219 C 384.339844 1346.242188 409.417969 1365.335938 434 1385 C 443.777344 1392.824219 456.835938 1407 469 1410 C 456.308594 1392 437.558594 1376.558594 422 1361 C 394.328125 1333.324219 366.972656 1305.359375 339 1278 C 284.441406 1224.589844 227.609375 1174.046875 171 1122.828125 C 142 1096.609375 113.953125 1065.507813 82 1043 M 696 1079 L 697 1080 L 696 1079 M 1405 1223 L 1405 1224 C 1368.5 1244.773438 1329.304688 1260.535156 1293 1282.199219 C 1215.644531 1328.363281 1142.542969 1381.574219 1066 1429.0625 C 1028 1452.628906 988.949219 1473.273438 949 1493.246094 C 930.644531 1502.425781 909.785156 1516 889 1518 L 889 1520 C 963.253906 1518.46875 1033.679688 1476.277344 1100 1447.425781 C 1203.457031 1402.414063 1305.753906 1356 1417 1333.550781 C 1451.761719 1326.585938 1488.449219 1319 1524 1319 L 1524 1320 C 1508.550781 1321.261719 1493 1326.207031 1478 1329.335938 C 1424 1340.488281 1371.585938 1358.515625 1320 1377.773438 C 1222.925781 1414.007813 1128.675781 1457 1031 1491.691406 C 993.285156 1505.128906 955 1520.757813 916 1529.574219 C 905.296875 1532 894.652344 1532.023438 884 1534 L 884 1535 C 940.207031 1546 1003.238281 1521 1057 1506.734375 C 1170.289063 1476.730469 1287.414063 1435 1406 1435 L 1406 1437 C 1358.265625 1443.03125 1311.421875 1456 1265 1468.265625 C 1177.640625 1491.402344 1090.664063 1517.683594 1002 1535.449219 C 957.175781 1544.429688 912.902344 1553 867 1553 C 874.636719 1560.738281 886.730469 1563.066406 897 1565 L 897 1566 C 879.449219 1570.539063 859.539063 1570.539063 842 1566 C 846 1571.632813 851.78125 1574.191406 858 1577 L 858 1578 C 838 1584.765625 809.433594 1580.210938 791 1570.742188 C 778.574219 1564.355469 769.445313 1555.539063 775 1541 C 780.609375 1526.675781 795.835938 1519 807 1509.5625 C 819.441406 1499.0625 827.179688 1486.332031 828.832031 1470 C 830.816406 1450.390625 823.46875 1432.054688 820.285156 1413 C 815.808594 1386.183594 817 1359 828.539063 1334 C 833.824219 1322.464844 843.855469 1304.6875 857 1301 C 852.675781 1308.488281 846 1314.355469 841.898438 1322 C 834.367188 1336 830.792969 1353.359375 830 1369 C 828 1416 868 1462.289063 915 1466.828125 C 934.257813 1468.695313 949 1462 967 1457 C 959.753906 1470.566406 936.863281 1483.226563 923 1489 C 934.59375 1491.414063 951.523438 1481.351563 962 1477 C 998.828125 1461.03125 1032 1435.667969 1065 1413.027344 C 1138 1362.703125 1210.476563 1312.15625 1289 1270.703125 C 1313.269531 1258 1338.472656 1246.828125 1364 1236.796875 C 1377 1231.664063 1391 1225.054688 1405 1223 M 0 1242 C 90 1242 178.703125 1272.332031 258 1313.257813 C 284 1326.679688 309.539063 1341.007813 335 1355.425781 C 345.789063 1361.535156 356.476563 1370.632813 368 1375 C 362.835938 1367.820313 354.808594 1363 348 1357.390625 C 334.546875 1346.472656 321 1335.652344 307 1325.574219 C 244.449219 1281 172.351563 1249.457031 96 1239 C 71.84375 1235.691406 47.222656 1235.523438 23 1237.828125 C 16.65625 1238.433594 4.207031 1236.472656 0 1242 M 667 1291 C 695 1317 713.414063 1352.640625 710.910156 1392 C 709 1420.390625 694.917969 1455.261719 704.699219 1483 C 711.171875 1501.351563 726.597656 1510.40625 741 1522 C 749.582031 1529 759.285156 1539 757.863281 1551 C 756.925781 1559 749.328125 1564.238281 743 1568 C 728.726563 1576.441406 713 1579.222656 697 1581.425781 C 690.179688 1582.351563 680 1583.65625 674 1580 C 683.910156 1574.777344 696 1572.511719 704 1564 C 677 1567.429688 651 1567.003906 624 1567 L 624 1565 C 638.753906 1564.367188 663.304688 1559 673 1547 C 657.824219 1547.652344 643.191406 1547.773438 628 1547 C 625.558594 1546.828125 613.421875 1545.050781 615.347656 1540.554688 C 616.410156 1538.070313 623.691406 1537.824219 626 1537.433594 C 635.96875 1535.761719 646.355469 1534.058594 656 1531 L 656 1530 C 641.851563 1530 614.671875 1524.003906 608 1510 C 629.675781 1511 651.195313 1516 673 1516 C 661 1505.3125 642.832031 1501 630 1490.539063 C 626.929688 1488.058594 618.433594 1482.832031 618.347656 1478.40625 C 618.296875 1476 624.460938 1476.78125 626 1476.558594 C 634.347656 1475.339844 642.394531 1473 650 1469.214844 C 673 1458.144531 690.65625 1438.613281 697.964844 1414 C 705.921875 1387.199219 704.453125 1352.171875 692 1327 C 687.75 1318.039063 681.488281 1309.402344 674.828125 1302 C 671.984375 1299 666.90625 1295.488281 667 1291 M 653 1304 C 637.632813 1309 625.308594 1316.078125 617.398438 1331 C 601.617188 1360.777344 625.984375 1398.695313 658 1402.710938 C 665 1403.59375 671.371094 1400.808594 678 1399 C 669.53125 1409.210938 652.394531 1411 640 1411 C 590.855469 1411 554.726563 1354.367188 587.667969 1313.003906 C 600.679688 1296.664063 637 1285.417969 653 1304 M 908 1301 C 879.5 1304 863.363281 1339.007813 871.519531 1364 C 879.273438 1387.765625 901.304688 1401.195313 925 1401 C 908.230469 1418 869.277344 1406.707031 855.210938 1391.675781 C 836 1371.152344 836.289063 1337.257813 852 1315 C 860.789063 1302.644531 876.890625 1294.820313 892 1295.019531 C 897.492188 1295.089844 905 1296 908 1301 M 935 1297 C 948 1305.058594 960.949219 1314.003906 968.371094 1328 C 989.910156 1368.648438 960.324219 1414.46875 919 1425.710938 C 899.449219 1431.03125 855.914063 1432.269531 853 1404 C 867.652344 1408.007813 880.222656 1415.25 896 1415 C 930.230469 1414.285156 964.742188 1383.359375 960.710938 1347 C 959.34375 1334.664063 955.496094 1323.058594 948 1313 C 944.800781 1308.5625 934.878906 1302.484375 935 1297 M 886 1320.617188 C 898.5625 1320 898.394531 1340.148438 886 1340.46875 C 872.660156 1340.8125 874.5625 1321.308594 886 1320.617188 M 631 1322.449219 C 643.851563 1319.335938 644.457031 1339 633 1341.546875 C 620 1344.589844 618.722656 1325.425781 631 1322.449219 M 558 1327 C 558.308594 1364.351563 589.175781 1408.789063 627 1415.535156 C 640.457031 1418 653.875 1417 667 1413.253906 C 669.515625 1412.554688 678.636719 1408.21875 680.351563 1411.617188 C 682.550781 1416 675.902344 1420.578125 673 1422.378906 C 662.554688 1429 650.96875 1430 639 1430 C 601.738281 1430 568.324219 1407 556.519531 1371 C 553.386719 1361.484375 547.546875 1333.394531 558 1327 M 811 1490 C 806.359375 1488.144531 802 1485 797 1484.214844 C 786.867188 1482.730469 776.199219 1488 766 1488 C 754.800781 1488.121094 743 1483 732 1485.390625 C 727.300781 1486.414063 724 1490 720 1492 C 721.703125 1470.589844 731 1433.585938 752 1423.402344 C 789.578125 1405.15625 809.789063 1461.757813 811 1490 M 574 1644 C 580 1627.820313 581.886719 1604.796875 577 1588 C 574.292969 1578.015625 568.238281 1569.6875 564.898438 1560 C 561.210938 1549.285156 560.375 1537.746094 556.65625 1527 C 551.789063 1513 544.253906 1500.394531 538 1487 L 537 1487 C 543.503906 1511.519531 547.960938 1542 541.867188 1567 C 538.3125 1581.648438 521.941406 1592.621094 510.394531 1578 C 504.242188 1570.203125 503.1875 1558.472656 501.726563 1549 C 499.292969 1533.261719 496.65625 1517.441406 492.730469 1502 C 491 1495.527344 490.503906 1487.109375 486 1482 C 486 1505.421875 484 1528.648438 484 1552 C 484 1561.65625 484.5625 1575.5625 475.816406 1582 C 463.96875 1590.648438 449.976563 1578.742188 445.238281 1568 C 434.941406 1544.648438 439 1514 439 1489 C 435.203125 1492.675781 435 1498.019531 433.871094 1503 C 431.433594 1513 428.429688 1523 426.753906 1533 C 423.433594 1553.125 415.507813 1573.773438 414 1594 C 412.882813 1611.238281 417.347656 1626.730469 422 1643 C 406.804688 1635.761719 400.828125 1610.34375 400.453125 1595 C 400.320313 1589.546875 403.800781 1580.09375 400.96875 1575.261719 C 397.886719 1570.007813 391.628906 1568.207031 388.953125 1562 C 377.488281 1535.375 382.183594 1484.28125 410 1469 C 415.453125 1466 421.851563 1464.136719 428 1465.765625 C 431.355469 1466.652344 437.273438 1471.613281 440.609375 1470 C 444.550781 1468.046875 446.378906 1460.328125 449.214844 1457 C 457.722656 1447.007813 469.835938 1441.148438 483 1441.453125 C 495.636719 1441.75 506.546875 1447.113281 515.996094 1455.300781 C 519.445313 1458.285156 524.457031 1467.582031 528.984375 1468.371094 C 531.664063 1469 534.839844 1463.824219 537 1462.558594 C 542 1459.640625 548.523438 1459.472656 554 1461.222656 C 564.363281 1464.539063 571.300781 1473.398438 577.191406 1482 C 590.429688 1501.332031 599.195313 1527.371094 596.828125 1551 C 596.402344 1555.28125 595.492188 1560.269531 593 1564 C 591.28125 1566.367188 587.980469 1568 587.492188 1571.054688 C 586.648438 1576.597656 589.808594 1584.378906 590.574219 1590 C 592.78125 1606.191406 591 1635.65625 574 1644 M 1357 1520 L 1357 1521 C 1347.460938 1523.273438 1336.78125 1522.421875 1327 1523.089844 C 1304.996094 1524.597656 1282.917969 1526.585938 1261 1529.285156 C 1191.273438 1538 1121.335938 1549 1051 1549 C 1057.859375 1544.289063 1070.796875 1544.050781 1079 1543 C 1096 1540.40625 1112.984375 1536.792969 1130 1534 C 1169.558594 1527.238281 1208.859375 1519.796875 1249 1518.039063 C 1285.253906 1516.453125 1320.890625 1519.699219 1357 1520 "/></g></svg>