<svg xmlns="http://www.w3.org/2000/svg" xmlns:xlink="http://www.w3.org/1999/xlink" viewBox="0 0 100 100" version="1.1"><g transform="translate(1, 2.290309222579964) scale(0.05473391176097772) translate(-117.433594, -130.6875)"><path style=" stroke:none;fill-rule:nonzero;fill:rgb(0%,0%,0%);fill-opacity:1;" d="M 317 999 L 318 999 C 331 967.53125 354.644531 946.113281 381 926 C 369.234375 942.691406 351.539063 954.554688 340 972 C 315.695313 1009.109375 309 1060.503906 309 1104 C 308.996094 1131.105469 312.207031 1158.433594 317.550781 1185 C 318.492188 1189.671875 326 1209 322.355469 1212.109375 C 319.996094 1214.191406 313.921875 1213 311 1213 C 300.277344 1213 289.703125 1212.050781 279 1212 C 235.75 1211.789063 192.332031 1211 149 1211 L 149 1212 C 163 1216.179688 180.296875 1215.675781 195 1217.167969 C 224 1220.121094 253 1224.5625 282 1228.730469 C 296.472656 1230.816406 313 1231 326.980469 1235.277344 C 332.421875 1237 333.417969 1243.25 335 1248 C 338.222656 1257.667969 341.203125 1267.425781 344.695313 1277 C 345.96875 1280.488281 347.539063 1285.601563 351.214844 1287.257813 C 360.445313 1291.417969 376.871094 1288.394531 387 1289.089844 C 415.570313 1291.046875 447.195313 1293.148438 475 1300 L 475 1301 C 392 1301 309.710938 1295 227 1302.828125 C 199.238281 1305.484375 166.738281 1304.023438 140 1312 L 140 1313 C 185.390625 1313 230.648438 1314 276 1314 C 301.488281 1314 328.683594 1311.265625 354 1314.109375 C 362.207031 1315.03125 362 1325.554688 370 1326 C 404.964844 1327.4375 440.867188 1320 476 1320 C 544.765625 1320 611.710938 1327 680 1333.832031 C 732.820313 1339.132813 788.539063 1348.574219 839 1365.332031 C 855.886719 1371 879.429688 1376.203125 893 1388 C 771.980469 1378.449219 650.417969 1370.507813 529 1368 L 529 1367 C 585.359375 1364.582031 641.390625 1360.628906 698 1362.015625 C 719.679688 1362.546875 741.34375 1365.554688 763 1366 C 758.417969 1360 740.371094 1359.664063 733 1358.199219 C 704 1352.464844 675.203125 1347.347656 646 1343.714844 C 585.527344 1336.191406 523.878906 1335.296875 463 1338 C 394.703125 1341 328.308594 1345.539063 261 1359 C 225.71875 1366.054688 191 1375.371094 156 1383.207031 C 147 1385.214844 124.640625 1386.757813 121.515625 1397.003906 C 118.875 1405.65625 124.445313 1412 133 1412 C 148 1412 165 1406.371094 180 1403.398438 C 233.699219 1392.675781 290.304688 1383.695313 345 1381.039063 C 362.242188 1380.199219 394.964844 1368.648438 397.714844 1395 C 398.210938 1399.664063 390.332031 1401.085938 387 1402.320313 C 374 1407.078125 362 1413.703125 351 1421.746094 C 339.96875 1429.722656 330.464844 1439.277344 321 1449 C 317.609375 1452.503906 313.722656 1459.753906 308.910156 1461.292969 C 305.394531 1462.414063 301.203125 1459.390625 298 1458.238281 C 291 1455.761719 283.332031 1454.195313 276 1454.015625 C 245.988281 1453.28125 217.980469 1468.308594 198 1490.003906 C 177.878906 1512.011719 164.417969 1540 158.210938 1569 C 155.492188 1581.753906 157.46875 1600.246094 152.398438 1612 C 148.703125 1620.304688 129.242188 1611.726563 122.601563 1615.601563 C 119.871094 1617.199219 121 1623.371094 121 1626 C 121 1636.4375 119.257813 1648.59375 121 1659 C 122 1664 131.25 1662 135 1662 C 148.390625 1662 161.304688 1661.011719 159.761719 1679 C 159 1687.4375 137 1684.027344 131 1684 C 128.933594 1684 121.636719 1682.558594 121.636719 1686.035156 C 121.636719 1690 139.769531 1688.21875 143 1688.074219 C 158.996094 1687.371094 167.25 1692.605469 169 1710 C 169.679688 1715.476563 161.503906 1714 158 1714 C 150 1714 119.234375 1709.328125 121 1721 C 122 1727 137.179688 1724 142 1724 C 158.703125 1724 178 1719.492188 184 1739.773438 C 185.605469 1744.761719 165.34375 1743 162 1743 L 133 1743 C 130 1743 124 1742 122 1744.601563 C 119 1748.292969 121 1758.488281 121 1763 C 121 1766.601563 119.734375 1773.199219 121.601563 1776.398438 C 123.988281 1780.484375 141.59375 1778 146 1778 C 168.605469 1778 196.933594 1773.359375 218 1782 C 212.246094 1784.726563 206.175781 1783.359375 200 1783.59375 C 184 1784.195313 165.777344 1785.648438 150 1783.574219 C 144.722656 1783 125.617188 1780.070313 122 1784.601563 C 117.433594 1790.402344 121 1810.652344 121 1818 C 121 1824.222656 118 1840.429688 122 1845.398438 C 124.65625 1848.714844 134.214844 1847 138 1847 L 358 1847 C 363.523438 1847 370.75 1845.796875 376 1847.738281 C 382.292969 1850.066406 387.253906 1856.234375 393 1859.691406 C 405.507813 1867.210938 419.476563 1871.441406 434 1872.828125 C 446.441406 1874.019531 461 1870.652344 472 1864.558594 C 476.929688 1861.796875 482.488281 1854 488 1853.238281 C 492.269531 1852.726563 497.871094 1856.710938 502 1858 C 510.40625 1860.144531 519.324219 1860.546875 528 1860 C 541.34375 1859 551.460938 1849 564 1847.1875 C 577.863281 1845.339844 593 1847 607 1847 L 1211 1847 C 1293.921875 1847 1377 1845.03125 1460 1846.789063 C 1465.796875 1847 1470.910156 1851.070313 1476 1853.445313 C 1483.765625 1857.066406 1492.398438 1859.582031 1501 1860 C 1510 1860.359375 1518.257813 1859.28125 1527 1856.707031 C 1530.601563 1855.644531 1536.277344 1852.105469 1540 1853.289063 C 1545.335938 1855 1550.230469 1861.386719 1555 1864.453125 C 1562.875 1869.511719 1572.699219 1872 1582 1872 C 1597.539063 1872.074219 1612 1870.179688 1626 1862.691406 C 1633.808594 1858.484375 1642.425781 1849.050781 1651 1847.277344 C 1664.554688 1844.480469 1681 1847 1695 1847 L 1872 1847 C 1877.652344 1847 1897 1850.027344 1900.820313 1845.398438 C 1904.882813 1840.269531 1902 1824.375 1902 1818 C 1902 1811 1905.546875 1789.753906 1900.398438 1784.601563 C 1895.746094 1780 1882.8125 1784 1877 1783.828125 C 1861.308594 1783.710938 1845.648438 1783.1875 1830 1783.003906 C 1822.238281 1783 1814.644531 1784.820313 1807 1783 L 1807 1782 C 1826.335938 1773.027344 1854.800781 1778 1876 1778 C 1882.277344 1778 1893.921875 1780.261719 1899.566406 1777.398438 C 1904.765625 1774.757813 1902 1756.128906 1902 1751 C 1901.980469 1748.484375 1902.375 1745 1899.683594 1743.601563 C 1894.777344 1741.191406 1885.394531 1743 1880 1743 L 1834 1743 C 1837.480469 1737.707031 1841.667969 1726.496094 1848 1724.574219 C 1859.574219 1721.089844 1875.96875 1724 1888 1724 C 1892.761719 1724 1900.183594 1726.132813 1901.347656 1720 C 1902.488281 1714 1897.601563 1714.007813 1893 1714 L 1864 1714 C 1861.578125 1714 1852 1715.5625 1852.386719 1711.761719 C 1852.769531 1706.628906 1857.5625 1692.652344 1862 1690.027344 C 1866.644531 1687.4375 1874.949219 1689 1880 1689 C 1883.191406 1689 1901.363281 1691 1901.363281 1686.039063 C 1901.363281 1683 1893.796875 1684 1892 1684 C 1887 1684 1864.332031 1686.757813 1863.347656 1681 C 1860.265625 1662.332031 1874.617188 1662 1888 1662 C 1892.378906 1662 1900.855469 1663.792969 1901.851563 1658 C 1903.546875 1648 1902 1636.253906 1901.882813 1626.171875 C 1901.804688 1623.054688 1903 1617.304688 1899.683594 1615.601563 C 1893.550781 1612.585938 1873.964844 1619.511719 1870.601563 1612.683594 C 1869 1609.464844 1870 1604.515625 1869.714844 1601 C 1868.328125 1589.246094 1867.484375 1577.671875 1865.195313 1566 C 1858.921875 1534.011719 1843.265625 1504.699219 1820 1482.015625 C 1803 1465.464844 1776.242188 1452.546875 1752 1454.089844 C 1744.21875 1454.585938 1736.402344 1456 1729 1458.355469 C 1726 1459.351563 1721.5 1462.585938 1718.324219 1461.597656 C 1712.890625 1460 1706.414063 1449.1875 1702.714844 1445 C 1694 1435.324219 1683.597656 1426.398438 1673 1419.039063 C 1662.589844 1411.808594 1650.8125 1406.28125 1639 1401.808594 C 1636.289063 1400.78125 1628.515625 1399.699219 1628.679688 1396 C 1629.777344 1370.167969 1664.457031 1380.664063 1680 1382 C 1734.382813 1386.285156 1789.398438 1393.625 1843 1404 C 1857.609375 1406.828125 1873 1411 1888 1412 C 1894.394531 1412.347656 1901.4375 1411.136719 1903.425781 1404 C 1907.914063 1388 1880.976563 1386.664063 1871 1384.015625 C 1832.433594 1373.765625 1793 1365.824219 1754 1358 C 1683.964844 1344 1613 1339.726563 1542 1338 C 1449.4375 1335.71875 1352.878906 1339.734375 1263 1365 L 1263 1366 C 1309 1362.367188 1355.746094 1360.015625 1402 1362.039063 C 1432.625 1363.378906 1463.363281 1366.367188 1494 1367 L 1494 1368 C 1411.5625 1374.507813 1328.53125 1373.4375 1246 1379.089844 C 1222 1380.730469 1197.929688 1381.777344 1174 1384.167969 C 1162.6875 1385.300781 1146.886719 1390 1136 1386 C 1163.671875 1376.578125 1189.519531 1364.277344 1218 1356.734375 C 1310.359375 1332.273438 1409.992188 1324.199219 1505 1320.039063 C 1541.410156 1318.445313 1578.726563 1320.605469 1615 1323.089844 C 1628.910156 1324.042969 1643 1326.625 1656.984375 1326.277344 C 1664.699219 1326.085938 1664 1315 1673 1314.09375 C 1699.238281 1311.800781 1726.652344 1314 1753 1314 C 1797.597656 1314 1842.324219 1313 1887 1313 L 1887 1312 C 1864.324219 1306.597656 1839 1307.035156 1816 1304.828125 C 1726.707031 1296.332031 1638.449219 1301 1549 1301 L 1549 1299 C 1579.40625 1299 1609.609375 1289.757813 1640 1289.015625 C 1648.703125 1288.800781 1657.28125 1288 1666 1288 C 1669.539063 1288 1674.660156 1289 1677.570313 1286.398438 C 1685 1280 1688 1258.347656 1690.976563 1249 C 1692.394531 1244.480469 1693.21875 1238 1698 1235.726563 C 1710.257813 1230.324219 1727.835938 1230.617188 1741 1228.574219 C 1768.199219 1224.355469 1795.667969 1220.226563 1823 1217.167969 C 1838.324219 1215.453125 1855 1215.558594 1870 1212 L 1870 1211 C 1831.214844 1211 1790.59375 1207.496094 1752 1211.171875 C 1740 1212.308594 1728 1213 1716 1213 C 1712.902344 1213.015625 1706.171875 1215.011719 1703.644531 1213 C 1699.871094 1210 1706.882813 1191.398438 1707.878906 1187 C 1713.539063 1162.03125 1716 1136.542969 1716 1111 C 1716 1065.132813 1712 1014.050781 1687.1875 974 C 1675.695313 955.464844 1659.902344 940.648438 1644 926 C 1673.707031 938.800781 1693.578125 969.492188 1708 997 L 1709 997 C 1707 972.789063 1696.738281 945.464844 1685.742188 924 C 1679.335938 911.496094 1666.183594 894.53125 1666.597656 880 C 1666.953125 867.675781 1672 855.527344 1676 844 C 1684.40625 818.828125 1695.285156 794.300781 1699.914063 768 C 1706 733.183594 1699 697.398438 1705 663 C 1707.878906 647.085938 1714.246094 631.566406 1718.574219 616 C 1726.359375 588 1733 559.574219 1738.390625 531 C 1750.472656 466.5 1751.585938 402.3125 1749.984375 337 C 1748.75 286.578125 1741.609375 229.125 1720 183 C 1708.519531 158 1690.484375 136.15625 1661 134.089844 C 1612.445313 130.6875 1564.917969 170.710938 1529 198.117188 C 1456.484375 253.445313 1392.40625 325 1333.269531 394 C 1316 414.171875 1299.691406 435.035156 1283.425781 456 C 1276.789063 464.550781 1271.375 476.179688 1263 483 C 1271.886719 451.453125 1279.683594 420 1290.691406 389 C 1297 371 1307.640625 353.257813 1313 335 C 1307.308594 338.445313 1304.234375 345.613281 1300.574219 351 C 1292.511719 363 1284.570313 375 1276.949219 387 C 1244.90625 438.089844 1218.558594 489.394531 1207 549 L 1206 549 C 1200.667969 481.441406 1219.507813 408.136719 1245 346 C 1236.394531 350.722656 1231.191406 366.5 1226.746094 375 C 1212.839844 401.574219 1201.386719 429.023438 1193.425781 458 C 1191 466.519531 1189 475.308594 1187.574219 484 C 1187 487.136719 1186.863281 493.019531 1184.261719 495.226563 C 1180.53125 498.394531 1169.230469 494 1165 493 C 1146.472656 488.371094 1127.785156 485.394531 1109 482.4375 C 1046.472656 472.597656 979.429688 473.121094 917 483.246094 C 898.917969 486.179688 880.824219 488.621094 863 493 C 858.78125 494.035156 847.304688 498.339844 843.601563 495.226563 C 841 493.078125 840.851563 486.140625 840.261719 483 C 838.429688 473.257813 836 463.550781 833.445313 454 C 826 427.632813 815.480469 402.460938 803.246094 378 C 798.480469 368.46875 793.390625 354.753906 785 348 C 788.703125 361.546875 795 374.503906 799 388 C 813.898438 436.636719 826.441406 494.023438 820 545 L 819 545 C 808.261719 487.183594 782.601563 439 752.449219 389 C 741.902344 371.523438 730.664063 347.292969 715 334 C 716.171875 340.078125 720 345.34375 722.574219 351 C 727.550781 362.433594 731.667969 374.289063 735.945313 386 C 747.371094 417.265625 756.410156 450 765 482 C 747.636719 463.804688 733.566406 441.511719 717.574219 422 C 682.832031 379.609375 646.324219 338.175781 607.835938 299.171875 C 575.511719 266.414063 542.632813 233.824219 507 204.613281 C 475.574219 179 441.324219 152.105469 402 139.808594 C 384 134.234375 364.871094 131.179688 347 138.453125 C 325.632813 147.152344 312.695313 167.707031 304 188 C 287 227.347656 281.195313 271.699219 277.171875 314 C 269.921875 390.1875 274.707031 469 290 544 C 298.230469 584.335938 313.1875 623.625 320.386719 664 C 322.832031 677.726563 321 691.179688 321 705 C 321 727.085938 322 749.28125 326.449219 771 C 333.503906 806.269531 355 839.269531 358.824219 875 C 360.609375 891.640625 347.6875 907.828125 340.601563 922 C 329.332031 944.535156 318 973.554688 317 999 M 1595 271 L 1595 272 C 1577.246094 280.410156 1558.953125 288 1541 296 C 1532 300 1522.671875 306.277344 1513 308 C 1518.488281 302.054688 1526.953125 298.730469 1534 295 C 1552.359375 285 1574 274.066406 1595 271 M 514 307 L 514 308 C 504.757813 306.351563 495.53125 300.214844 487 296.308594 C 469.5 288.296875 452 279.644531 434 273 C 440.816406 270.554688 449.636719 276.03125 456 278.308594 C 476.601563 285.671875 494.796875 296.78125 514 307 M 609 413 C 597.46875 408.746094 586.804688 401.152344 576 395.308594 C 557.628906 385.371094 538.808594 376.335938 520 367.257813 C 484 350 445.933594 337.730469 410 321 C 414.597656 319.203125 420.359375 321.472656 425 322.628906 C 436.769531 325.554688 448.398438 328.785156 460 332.28125 C 496 343.160156 529.46875 359.683594 562 378.574219 C 577.605469 387.636719 597.578125 399 609 413 M 1614 321 L 1614 322 C 1567.777344 339.257813 1523 359.179688 1479 381.246094 C 1459.199219 391.148438 1440.371094 404.515625 1420 413 C 1426.378906 400 1449.949219 388.496094 1462 380.65625 C 1493.207031 360.359375 1527.765625 345.078125 1563 333.332031 C 1579.183594 328 1596.84375 321.738281 1614 321 M 1245 343 L 1246 344 L 1245 343 M 784 346 L 785 347 L 784 346 M 463 371 L 462 372 L 463 371 M 626 451 L 626 452 C 618.332031 449.785156 611.960938 444.636719 605 441 C 589.699219 432.640625 574.371094 424.441406 559 416.320313 C 528.167969 400.03125 495.449219 388 464 373 C 468.324219 371.6875 473.65625 374.023438 478 375.011719 C 489.8125 377.695313 501.824219 381 513 385.574219 C 554.71875 403.066406 589 425.269531 626 451 M 1562 372 L 1562 373 C 1522.878906 388.394531 1485.296875 408 1448 427.257813 C 1433.6875 434.664063 1419.246094 447.140625 1404 452 C 1410 440.464844 1428.292969 431.175781 1439 424 C 1466.289063 405.71875 1494.882813 392 1526 381.484375 C 1537.3125 377.714844 1549.980469 372.257813 1562 372 M 666 515 C 648 506.554688 631.644531 494.464844 614 485.359375 C 571.941406 463.652344 529 444.390625 486 424.691406 C 456.371094 411.125 426.910156 396.457031 396 386 C 401.839844 383.574219 410 386.523438 416 387.789063 C 432.503906 391.296875 448.933594 395.109375 465 400.328125 C 521 418.5625 576.886719 442.109375 624 478.347656 C 636.867188 488.246094 658.949219 500.003906 666 515 M 1630 385 L 1630 386 C 1604.742188 393 1580.703125 406.808594 1557 417.691406 C 1515.828125 436.597656 1474 454.113281 1434 475.296875 C 1419.605469 483 1404.96875 490.070313 1391 498.449219 C 1381.777344 504 1372.289063 511.742188 1362 515 C 1375.460938 496.050781 1400 481 1419 468 C 1465.203125 436.28125 1516.167969 413.398438 1570 398.140625 C 1588.863281 392.792969 1610.289063 385.054688 1630 385 M 636 541 L 636 542 C 627 540.28125 618 533.765625 610 529.757813 C 594 522 578 514.671875 562 507.308594 C 524.734375 490.203125 486.484375 475.070313 448 461 C 424.4375 452.300781 400 442.371094 375 439 L 375 437 C 468.9375 437.0625 561.957031 488 636 541 M 1652 438 L 1652 439 C 1627.351563 441.148438 1601.96875 452.359375 1579 461 C 1533.59375 478 1489 496.675781 1445 516.792969 C 1428.550781 524.304688 1412.386719 536 1395 541 C 1398.449219 536 1405 532.496094 1410 529 C 1422.511719 519.695313 1435.691406 511.167969 1449 503.199219 C 1494.757813 475.800781 1544.648438 455.496094 1597 444.714844 C 1613.933594 441.226563 1634.667969 435.242188 1652 438 M 1183 554 L 1182 554 C 1177.59375 547.574219 1172.277344 541.726563 1167 536 C 1165.929688 545.605469 1169.246094 555.441406 1170 565 C 1158.515625 559.132813 1155.570313 542.144531 1146 534 C 1146 548 1149.390625 565.582031 1146 579 L 1145 579 C 1140 568.492188 1136 557 1132.34375 546 C 1131.867188 544.632813 1129.523438 535 1127.414063 535.632813 C 1125.703125 536.253906 1127 547.175781 1127 549 C 1127 561.761719 1130 579 1127 591 C 1117.285156 578.152344 1115 557.820313 1109 543 L 1108 543 C 1109.792969 557.191406 1109 571.699219 1109 586 C 1109 592.246094 1110.757813 599 1109 605 C 1100 592.511719 1096.796875 569.765625 1092.191406 555 C 1091.21875 552 1089.378906 538.480469 1085.84375 537.632813 C 1083.671875 537.105469 1081.910156 542.621094 1081.253906 544 C 1077.925781 551 1075.183594 559.34375 1074 567 C 1068.824219 600.605469 1071.90625 632.34375 1072 666 L 1071 666 C 1061.648438 625.207031 1053.644531 584.25 1042 544 L 1041 544 C 1026 584 1018.351563 627.535156 1015 670 L 1014 670 C 1009.921875 637.738281 1005.363281 605.539063 997.375 574 C 995.484375 566.539063 993 559.292969 990.667969 552 C 990.175781 550.535156 989 545.054688 987 545.054688 C 984.996094 545.054688 984.257813 549.652344 983.859375 551 C 981.800781 558.007813 979.441406 565 977.628906 572 C 969.933594 602.078125 965.765625 633 958 663 L 957 663 C 957 630.53125 960.355469 598.070313 953.207031 566 C 951.53125 558.480469 949 551 945.742188 544 C 944.933594 542.351563 943.425781 538.054688 941 538.054688 C 938.167969 538.054688 935.542969 551.515625 934.882813 554 C 930.265625 571.402344 925.441406 589.179688 919 606 L 918 606 L 918 548 L 916 548 C 915.214844 563.324219 904.652344 577.074219 902 592 L 901 592 C 897 574.078125 902 551.46875 902 533 C 892 543.328125 887.347656 566.554688 882 580 L 881 580 C 881 569 881 558.035156 881 547 C 880.980469 542.445313 882.417969 536.398438 879 533 C 877 543 865.691406 558.644531 858 565 C 858.433594 555 861 545.21875 861 535 C 855.398438 541.765625 851 549.578125 844 555 C 846 548.480469 846.984375 542 847 535 C 847 532.285156 846.285156 528 848.601563 526 C 852 523 860.511719 522.496094 865 521.371094 C 879.558594 517.734375 894.214844 515.367188 909 513 C 971.714844 502.53125 1035 502.308594 1098 510 C 1118.195313 512.261719 1138 515.742188 1158 520 C 1163.457031 521.167969 1175.394531 521.742188 1179.398438 525.738281 C 1183.628906 530 1182.875 548 1183 554 M 592 547 C 567.816406 541.257813 544.179688 530.070313 520 523.425781 C 485.96875 514.074219 449.195313 510 414 510 C 423.894531 503.230469 445.34375 506 457 506 C 493.480469 506 528 512 561 528.398438 C 571 533.414063 584.625 538.332031 592 547 M 1608 509 L 1608 511 C 1569.21875 511 1531.308594 516.511719 1494 527.425781 C 1473 533.554688 1452.886719 543.289063 1432 549 C 1439 538.042969 1460.324219 530.5625 1472 525.578125 C 1517.273438 506.257813 1559.835938 505.199219 1608 509 M 1267 520 L 1266 521 L 1267 520 M 1266 522 C 1262.804688 533.09375 1255.734375 543.667969 1250.601563 554 C 1242.664063 570 1235.605469 586.4375 1229 603 C 1211.488281 647 1198.980469 693.195313 1187.523438 739 C 1182.242188 760.121094 1175.171875 781.4375 1172 803 L 1171 803 C 1171 731.484375 1201.847656 657.792969 1229.574219 593 C 1236.808594 576.089844 1244.335938 559.230469 1253 543 C 1256.773438 536 1260 527.488281 1266 522 M 593 572 L 593 573 C 572.355469 567.140625 552.800781 557.777344 532 552.152344 C 491.71875 541.253906 451.59375 537 410 537 C 414.195313 534.132813 420 534.363281 425 533.71875 C 438.277344 532 451.671875 530.5625 465 531.828125 C 481.4375 533.394531 497.800781 533.554688 514 537.335938 C 541.335938 543.71875 569.171875 557.414063 593 572 M 1608 536 L 1608 537 C 1570.398438 537 1533.308594 541.628906 1497 551.746094 C 1475 558 1454.492188 567 1433 574 C 1441.808594 563.648438 1459.753906 557.550781 1472 552.140625 C 1513.289063 534 1563.371094 525.25 1608 536 M 594 547.332031 C 594.773438 547.332031 594 547.832031 593.667969 547.667969 L 594 547.332031 M 808 818 L 807 818 C 799.527344 807.046875 789.957031 798 781.28125 788 C 744.496094 745.703125 704 713 656 684.199219 C 588.28125 643.652344 513.964844 610.671875 438 589 C 445.433594 586.335938 458.660156 592.058594 466 594.347656 C 488.183594 601.265625 509.992188 609.074219 532 616.484375 C 609 642.433594 687.457031 678.730469 749 732.714844 C 769 750.296875 786.226563 772.1875 798.246094 796 C 801.878906 803.195313 806.785156 810 808 818 M 1589 588 L 1589 589 C 1558.589844 596.035156 1528.894531 608.792969 1500 620.351563 C 1429.503906 648.550781 1357.554688 685.210938 1300 735.289063 C 1277.976563 754.453125 1259.476563 777.257813 1240.167969 799 C 1233.925781 806.027344 1229.320313 815.078125 1222 821 C 1236.234375 777.332031 1266.796875 743.714844 1302 715.550781 C 1354.769531 673.339844 1419.222656 644.472656 1482 620.574219 C 1506.480469 611.257813 1531.660156 601.808594 1557 595.117188 C 1567.367188 592.378906 1578.210938 588.222656 1589 588 M 802 592 L 801 593 L 802 592 M 804 595 C 830.394531 659.332031 863 729.085938 863 800 L 862 800 C 849 750.101563 837.828125 700 821.507813 651 C 817 638 812.667969 625 807.945313 612 C 806 607.113281 802.222656 600.117188 804 595 M 1616 811 C 1617 800 1623 789.042969 1625.195313 778 C 1629.785156 754.59375 1630 730.519531 1627 707 C 1635.519531 712.578125 1638.800781 728.453125 1639 738 L 1641 738 C 1642 713.703125 1638.9375 694.617188 1634 671 C 1643.414063 676.609375 1650.753906 690.140625 1655 700 L 1656 700 C 1652.359375 681.226563 1646.710938 664.558594 1635.265625 649 C 1629.457031 641.101563 1621.605469 635 1616 627 C 1625.664063 630.058594 1634.859375 638.015625 1642 645.015625 C 1682.433594 684.644531 1668 736.378906 1640.34375 779 C 1633.390625 789.6875 1625.953125 803 1616 811 M 408 628 C 403.433594 635.382813 396.378906 641.066406 391 648 C 379.683594 663.121094 371.394531 681.796875 371 701 L 372 701 C 375 691.359375 380.710938 676.800781 391 673 C 384.382813 696.316406 383.972656 716.113281 385 740 L 386 740 C 388.765625 728.773438 389.917969 714.292969 399 706 C 398.546875 728 397 749 400.300781 771 C 402.183594 784.082031 407.730469 796.222656 410 809 C 398 802.152344 388.820313 783.46875 381.8125 772 C 356 730.046875 343.972656 680.414063 385 644 C 392 637.714844 399.273438 631.652344 408 628 M 1280 631 C 1273.503906 650.589844 1257.574219 669.339844 1248.246094 688 C 1228.339844 727.816406 1210.925781 770.433594 1189 809 L 1188 809 C 1197.421875 759 1218.4375 712.464844 1248 671 C 1257.183594 658.117188 1267 640.210938 1280 631 M 754 633 C 798.617188 681.445313 832.691406 743.492188 846 808 C 836.726563 802 831.484375 781.785156 826.363281 772 C 809 739.089844 792.503906 706 775.253906 673 C 770.242188 663.445313 764.800781 654.21875 759.203125 645 C 757 641.460938 753.382813 637.234375 754 633 M 1275 695 C 1262.410156 725.082031 1243.519531 754.410156 1226.226563 782 C 1220.617188 791 1213.976563 808.550781 1205 814 C 1213.800781 781.09375 1231 752.203125 1251 725 C 1258.402344 715.113281 1265.179688 702.53125 1275 695 M 757 696 C 786 726.449219 818.230469 772.046875 827 814 C 820 808.535156 816 798.308594 811 791 C 796.65625 770 783.777344 747.582031 771.78125 725 C 767.769531 717.449219 756.476563 704.488281 757 696 M 801 842 C 789.90625 836.335938 780.5 826.535156 770 819.695313 C 736.472656 798 702.527344 775.277344 667 756.785156 C 633.5625 739.378906 598.605469 725.058594 562 716 C 544.851563 711.601563 527 710.128906 510 706 C 516.535156 703.257813 525 705.441406 532 706 C 550.339844 707.167969 568.976563 708.160156 587 712.117188 C 648.175781 725.550781 709.929688 749.558594 758 791 C 773.171875 804 794.496094 822.382813 801 842 M 1514 705 L 1514 706 C 1498.8125 710 1483.191406 711.710938 1468 715.734375 C 1426 726.832031 1385.953125 743.421875 1348 764.3125 C 1318.898438 780.332031 1290.296875 799 1263 818 C 1251.589844 825.785156 1241 837.691406 1229 844 C 1231.222656 836.503906 1237 830.289063 1241.578125 824 C 1254.589844 805.800781 1270.992188 791.007813 1289 778 C 1352.773438 731.246094 1435 705 1514 705 M 789 857 C 774.726563 851.597656 761.179688 843 747 837 C 728.238281 829 708.25 823.339844 689 816.65625 C 653.609375 804.371094 618.941406 792.3125 581 792 C 592.34375 785.160156 615.921875 787 629 787 C 672.859375 787 718.636719 799.589844 755 824.34375 C 766.300781 832.035156 783.800781 844 789 857 M 1445 791 L 1445 792 C 1410 792.003906 1377.386719 803.78125 1345 815.308594 C 1321.949219 823.511719 1298.71875 831.304688 1276 840.398438 C 1264 845.164063 1253.285156 853.460938 1241 857 C 1247.570313 844.421875 1262.972656 834 1274 825.425781 C 1306.714844 800.082031 1349.597656 790.742188 1390 788 C 1407.707031 786.667969 1427.675781 786.519531 1445 791 M 747 855 C 708.859375 850.074219 670.550781 844 632 844 C 635.929688 848.265625 641.769531 849 647 851.015625 C 656.601563 855 666.335938 859.285156 675 865 L 675 866 C 662 869.566406 644.507813 865 631 865 C 585.246094 865 539.773438 858 494 858 L 494 857 C 505.578125 853.078125 518.910156 852.308594 531 850.71875 C 560.921875 846.785156 590.960938 844.75 621 845 C 616.558594 840.820313 609.785156 841.054688 604 840.078125 C 592.636719 838.160156 581.449219 835.453125 570 834 L 570 832 C 615 826.277344 667.28125 816.425781 711 834 C 721.410156 838.1875 741 845.183594 747 855 M 1457 832 L 1457 833 C 1442 838.058594 1419.703125 835.757813 1407 845 C 1450 845 1491.457031 851.507813 1534 857 L 1534 858 C 1517.441406 863 1495.359375 859 1478 860.089844 C 1450.683594 862 1423.296875 863.21875 1396 865.089844 C 1382.804688 866 1364.726563 869.761719 1352 866 L 1352 865 C 1361.808594 859.277344 1372.277344 854.429688 1383 850.695313 C 1388.746094 848.691406 1395.503906 848.34375 1400 844 C 1373.472656 844 1346.339844 846.007813 1320 849.285156 C 1307.40625 851 1294.652344 854.453125 1282 855 C 1287.351563 849.574219 1295.386719 846 1302 842.148438 C 1350.351563 814.5625 1404.957031 828 1457 832 M 626 883 L 626 884 C 589.425781 893.460938 549.734375 899 512 899 C 517.964844 893.386719 531 892 539 889.589844 C 566.507813 881.394531 597.625 876.007813 626 883 M 1511 898 L 1511 899 C 1474.671875 899 1435 894 1400 884 C 1407 879.152344 1419.734375 881 1428 881 C 1455.175781 881 1486.40625 885.640625 1511 898 M 584 916 L 584 917 C 542.796875 931.296875 503.820313 943 460 943 C 467 936.738281 481 935.460938 490 932.660156 C 519.875 923.335938 552.617188 916 584 916 M 1560 943 C 1517.84375 943 1482.628906 930 1443 917 C 1450.421875 914 1460.34375 917 1468 918 C 1490.214844 921.085938 1512.644531 926.519531 1534 933.34375 C 1541 935.59375 1555.496094 937.003906 1560 943 M 794 985 L 795 985 C 798 1008.195313 838.925781 1017 834.75 1041 C 832.757813 1052.464844 828.558594 1064.160156 822.304688 1074 C 780.222656 1140.230469 678.488281 1136.710938 635.75 1073 C 623 1054.074219 616.898438 1029.722656 619.171875 1007 C 619.535156 1003.359375 620.902344 986.828125 625.300781 986 C 627.859375 985.394531 637 996.171875 640 998 C 651.613281 1005.160156 662.605469 1007 676 1007 C 670.726563 1004.183594 664.582031 1005 659 1002.730469 C 647.300781 998.28125 637.847656 987.046875 634.761719 975 C 625.441406 938.617188 672.78125 916 699.996094 936 C 717.648438 949 719.222656 977.347656 703.894531 993 C 699.175781 997.699219 686.253906 1000.644531 683.601563 1006.300781 C 680.367188 1013.207031 685.773438 1026.425781 688.230469 1033 C 691.21875 1041.003906 695.757813 1048.292969 701 1055 C 705 1060.144531 709.738281 1064.59375 715 1068.480469 C 733.171875 1082 752.519531 1075.613281 766.824219 1060 C 785.664063 1039.40625 792.832031 1012.214844 794 985 M 1354 1006 C 1365.316406 1012.273438 1382 1011.007813 1394 1007 C 1397 1006 1406.730469 999.191406 1409 1002.375 C 1412.59375 1007.328125 1411 1017.265625 1411 1023 C 1410.988281 1048 1399.21875 1071.410156 1381.984375 1089 C 1341 1130.738281 1270.253906 1133.648438 1226 1095.699219 C 1212.320313 1084 1202.464844 1067.234375 1197.578125 1050 C 1195.910156 1044.105469 1193.367188 1036.066406 1195.601563 1030 C 1198.523438 1022.074219 1208.734375 1016 1214.425781 1010 C 1218.25 1006 1229 991.160156 1234.851563 991.207031 C 1237.441406 991.226563 1237 997.390625 1237.285156 999 C 1238.382813 1008 1239.636719 1016.441406 1242.515625 1025 C 1249.230469 1045 1267.492188 1076.609375 1292 1076.28125 C 1303.222656 1076.132813 1313.957031 1069 1321.960938 1061.710938 C 1333 1051.5625 1341.585938 1036.566406 1345.253906 1022 C 1346.261719 1018 1348.449219 1011.15625 1347.226563 1007.105469 C 1345.332031 1000.828125 1330.996094 996.625 1326.519531 991 C 1309.363281 969.445313 1318.882813 938 1345 929.359375 C 1388.484375 915.242188 1419.742188 980.398438 1376 1001.214844 C 1369.210938 1004.445313 1361.476563 1006 1354 1006 M 533 957 L 533 958 C 513 968.421875 488.816406 969.722656 467 968 C 472.4375 964.285156 482.476563 965.5625 489 964.832031 C 503.824219 963.175781 518.230469 959 533 957 M 1553 967 L 1553 968 C 1532 968.433594 1511.289063 967.71875 1492 958 C 1497 956.480469 1504.691406 959.824219 1510 960.75 C 1524.308594 963.238281 1538.507813 966 1553 967 M 1008 969 C 1008 997.828125 1013.40625 1026.304688 1014 1055 L 1015 1055 C 1016 1029.066406 1018.75 1001.714844 1022 976 L 1023 976 C 1023.863281 1018 1027.964844 1067 1043.734375 1106 C 1053.851563 1131.09375 1072.238281 1151.699219 1081.933594 1177 C 1092.964844 1205.777344 1097.230469 1236 1103.199219 1266 C 1106.175781 1281 1111.789063 1296.039063 1114 1311 C 1107.996094 1307.425781 1104.363281 1300.816406 1099 1296.324219 C 1086 1285.570313 1067.632813 1280 1051 1284 C 1037.640625 1287.144531 1029.300781 1300 1015 1300 C 1000 1300 992 1286.546875 978 1283.664063 C 962.351563 1280.457031 944.5 1284.683594 932 1294.519531 C 926 1299.238281 921.710938 1306.363281 915 1310 C 918.183594 1296.558594 922.824219 1283.6875 925.390625 1270 C 930.726563 1241.503906 934 1212.386719 944 1185 C 954.75 1155.824219 975.359375 1131.820313 986.574219 1103 C 997.492188 1075 1000 1043.765625 1002 1014 C 1003 999.042969 1005.960938 984.003906 1006 969 L 1008 969 M 576 1006 C 576 1026.144531 575.765625 1046 583.453125 1065 C 607.484375 1124.511719 678.386719 1156.128906 740 1152 C 759 1150.601563 777.992188 1146.195313 796 1139.78125 C 805.785156 1136.296875 815.898438 1130 826 1128 C 819.179688 1141.707031 808.570313 1154.300781 800 1167 C 812.996094 1158.402344 824.210938 1144.609375 839 1139 C 828 1164.644531 802.789063 1190.476563 782 1208.269531 C 774.847656 1214.390625 766.28125 1223.585938 757 1226 C 762.910156 1215.128906 772.34375 1206.078125 778 1195 C 759.484375 1207.234375 736.375 1229 713 1230 L 713 1229 C 733.71875 1215.019531 756.507813 1196.574219 771 1176 C 723.761719 1195.636719 671.378906 1179.441406 628 1157.753906 C 615.929688 1151.71875 590 1141 586 1127 L 606 1135 C 592.597656 1119.664063 577.894531 1107.632813 568.257813 1089 C 564.621094 1082 561.597656 1074.679688 559.628906 1067 C 558.609375 1063.023438 558.425781 1056.578125 555.296875 1053.601563 C 551.664063 1050.152344 540.804688 1053 536 1053 C 542.675781 1044.722656 551.59375 1038.285156 558.382813 1030 C 564.585938 1022.441406 568.808594 1012.59375 576 1006 M 1455 1008 C 1460.804688 1020.429688 1469.882813 1031.367188 1479.464844 1041.078125 C 1483.4375 1045.109375 1488.980469 1048.234375 1492 1053 C 1487.238281 1053 1477.207031 1051.058594 1473.511719 1054.488281 C 1466.820313 1060.699219 1465 1079.425781 1460.890625 1088 C 1451.917969 1106.441406 1437.929688 1122.25 1423 1136 C 1430.1875 1133.828125 1436.730469 1129.816406 1444 1128 C 1434 1142.175781 1415 1150.683594 1400 1158.246094 C 1364.558594 1176 1327 1187.714844 1287 1183.828125 C 1277.171875 1183 1268.453125 1179.242188 1259 1177 C 1268.90625 1190 1281.695313 1203.007813 1294 1213.710938 C 1299.976563 1219 1310 1223.128906 1314 1230 C 1291.421875 1227 1266.273438 1209.101563 1251 1193 C 1254.484375 1205.179688 1263.398438 1214.023438 1269 1225 C 1243.765625 1217 1222.4375 1185 1206.988281 1165 C 1200.960938 1157.199219 1193 1148.492188 1190 1139 C 1203.734375 1144.28125 1218.238281 1158.085938 1229 1168 C 1222.765625 1153.257813 1208.71875 1142.085938 1203 1127 C 1223.488281 1134 1242.511719 1144.226563 1264 1148.550781 C 1323.898438 1160.601563 1399.484375 1140.652344 1434.300781 1087 C 1444.800781 1070.820313 1450 1054 1452.574219 1035 C 1453.640625 1027.175781 1450 1014.421875 1455 1008 M 791 1332 C 748.351563 1323.195313 706.859375 1305.585938 665 1293.558594 C 610.996094 1278.039063 555.957031 1265.476563 501 1253.789063 C 475.21875 1248.308594 449 1241.378906 423 1238 L 423 1236 C 442.679688 1236.003906 462.445313 1240 482 1241.832031 C 556 1249.238281 629.964844 1268.523438 700 1293.308594 C 721.984375 1301.089844 743.730469 1309.105469 765 1318.695313 C 773 1322.355469 785 1325.210938 791 1332 M 1605 1236 L 1605 1237 C 1582.8125 1245.3125 1556.261719 1247.789063 1533 1252.449219 C 1494.839844 1260.09375 1456.746094 1269.472656 1419 1279 C 1377.617188 1289.226563 1336.835938 1301.417969 1296 1313.71875 C 1277.777344 1319.210938 1258.808594 1328.222656 1240 1331 C 1248 1323.324219 1260.933594 1320 1271 1315.574219 C 1293.9375 1305.628906 1317 1296.535156 1341 1289.117188 C 1396.566406 1272 1451.714844 1257.695313 1509 1247.386719 C 1540.242188 1241.761719 1573.214844 1236 1605 1236 M 980 1355 C 981.601563 1335.386719 973.667969 1321 952 1321 C 973.863281 1295.5 1004.652344 1342.191406 980 1355 M 1076 1319 L 1076 1320 C 1072.398438 1321.066406 1068.496094 1320.652344 1065 1322.074219 C 1050.949219 1327.796875 1048 1340.453125 1048 1354 C 1036.171875 1347.507813 1039.429688 1327.066406 1048 1319.328125 C 1056.5625 1311.761719 1067 1313.773438 1076 1319 M 766.667969 1366.332031 C 766.222656 1366.777344 767.277344 1366.722656 767.332031 1366.667969 C 767.777344 1366.222656 766.722656 1366.277344 766.667969 1366.332031 M 843 1409 L 843 1410 C 803.980469 1417.242188 762.527344 1416.34375 723 1420.171875 L 682 1424.171875 C 675.257813 1424.824219 667.785156 1427.265625 661 1426.296875 C 653.535156 1425.234375 645.890625 1419 639 1415.78125 C 631 1412.304688 623 1411.539063 615 1409 C 620.84375 1406 628.539063 1406.453125 635 1405.828125 C 651.347656 1404.246094 667.558594 1403.078125 684 1403 C 737.449219 1402.742188 789.710938 1404.792969 843 1409 M 1413 1409 L 1413 1410 C 1402.304688 1411.441406 1391.738281 1415.707031 1382 1420.234375 C 1377.269531 1422.433594 1372.175781 1426.714844 1367 1427.515625 C 1359.863281 1428.621094 1350.1875 1425.414063 1343 1424.425781 C 1329.730469 1422.597656 1316.324219 1421.460938 1303 1420.171875 C 1279.382813 1418 1255.667969 1415.71875 1232 1414.089844 C 1217.59375 1413.097656 1200.847656 1414.207031 1187 1410 C 1192.347656 1406.796875 1200.839844 1407.539063 1207 1407 C 1221.324219 1405.746094 1235.621094 1404.339844 1250 1404 C 1289.949219 1403.007813 1329 1402.175781 1369 1405 C 1383.296875 1406 1399 1405 1413 1409 M 698 1567 L 697 1567 C 686 1542 664.566406 1518.433594 643 1502 C 649.953125 1513.132813 657.964844 1523.0625 663.742188 1535 C 681.195313 1571.058594 688 1611.746094 679.789063 1651 C 676.921875 1664.542969 672.910156 1686.648438 662 1696 C 688 1603.113281 617.816406 1508 533 1477 C 543.3125 1491.53125 556.441406 1503.285156 565.429688 1519 C 591 1564 599 1612 594.171875 1663 C 592.8125 1677.027344 591.859375 1692.6875 587 1706 L 586 1706 C 586 1649 561.777344 1579.226563 523 1537 C 547 1587.679688 557.402344 1652.226563 554.960938 1708 C 554.355469 1721.816406 551 1735.261719 550 1749 L 549 1749 C 545.949219 1732.574219 546.652344 1714.730469 544.835938 1698 C 541.496094 1667.300781 534.808594 1636.464844 525.71875 1607 C 521.753906 1594.160156 516.984375 1570.128906 507 1561 C 510.847656 1581.660156 510 1603.050781 510 1624 C 510 1633.78125 511.777344 1645.597656 509 1655 L 508 1655 C 502.398438 1611 475.796875 1571.710938 460 1531 L 459 1531 C 459 1587.339844 473.578125 1642.820313 476 1699 C 476.886719 1718.34375 479.523438 1741.003906 475 1760 L 474 1760 C 467 1705.265625 455.953125 1650 444.488281 1596 C 439.246094 1571.324219 430 1545.269531 429 1520 L 428 1520 C 425 1536.15625 427.679688 1553.570313 426.960938 1570 C 425.59375 1601.199219 424 1631.746094 424 1663 L 423 1663 C 411.726563 1633.113281 408.601563 1600 401 1569 L 400 1569 C 399.992188 1581.609375 397.816406 1594.414063 398 1607 C 398.492188 1621.707031 401.699219 1636.363281 402 1651 L 401 1651 C 390.765625 1626.054688 379.480469 1601.4375 373.5 1575 C 370.523438 1562 371 1548 368 1535 L 367 1535 C 366.265625 1552.140625 363.28125 1568.65625 364 1586 C 364.753906 1602.285156 369.40625 1618 371 1634 C 361.539063 1624 357.8125 1604.152344 354.527344 1591 C 342 1541 350.210938 1469.714844 398 1440.066406 C 419.609375 1426.660156 446.6875 1423.476563 471 1430.722656 C 480 1433.40625 491.871094 1442.714844 501 1442.726563 C 507.292969 1442.734375 514.769531 1437.730469 521 1436.234375 C 534.339844 1433.035156 548.300781 1432.152344 562 1433.089844 C 632.355469 1438 697.949219 1493.597656 698 1567 M 1659 1632 L 1658 1632 C 1661 1609.246094 1665 1588.167969 1665 1565 C 1665 1556.027344 1665.96875 1545.246094 1662 1537 C 1655 1566.210938 1650.304688 1593.738281 1639 1622 C 1635.875 1629.8125 1632 1645.316406 1625 1650 C 1626.949219 1625.519531 1634.851563 1598.578125 1629 1574 L 1628 1574 C 1626.269531 1595.726563 1616.917969 1618.199219 1610.722656 1639 C 1608.746094 1645.621094 1607.847656 1656.699219 1602 1661 C 1605.632813 1615 1602.871094 1569.136719 1603 1523 L 1602 1523 C 1597.839844 1534.398438 1596.5625 1547.175781 1593.765625 1559 C 1588.246094 1582.316406 1582.746094 1605.597656 1577.574219 1629 C 1567.941406 1672.625 1554.925781 1718.210938 1553 1763 L 1552 1763 C 1546.203125 1743.390625 1548.910156 1716.175781 1550.828125 1696 C 1556 1641.648438 1571.546875 1586.683594 1572 1532 L 1571 1532 C 1564.898438 1548.789063 1553.773438 1563.746094 1546.308594 1580 C 1535.179688 1604.234375 1528 1628.734375 1520 1654 L 1519 1654 C 1519 1623 1521.359375 1592 1522 1561 L 1521 1561 C 1515.207031 1578.011719 1506.308594 1593.8125 1500.746094 1611 C 1486.550781 1655 1478 1703 1478 1749 L 1477 1749 C 1473.84375 1727.527344 1470.480469 1705.820313 1471 1684 C 1472.226563 1634.597656 1486 1584.359375 1505 1539 C 1494 1548.078125 1486.457031 1563 1479.265625 1575 C 1457.460938 1611.675781 1441 1659 1441 1702 C 1436.671875 1699 1436.960938 1692 1436 1687 C 1433.199219 1672.773438 1432 1658.484375 1432 1644 C 1432 1593.511719 1443 1549.277344 1471.746094 1507 C 1479.414063 1495.710938 1489.902344 1487.585938 1498 1477 C 1474.28125 1491 1449.574219 1499.675781 1428 1517.464844 C 1386.542969 1551.644531 1364.359375 1603 1362 1656 C 1361.460938 1669.199219 1363.96875 1682 1365 1695 L 1364 1695 C 1356.378906 1676.671875 1348.875 1659 1346.289063 1639 C 1339.675781 1588.097656 1358.191406 1542.597656 1387 1502 C 1370.382813 1511.558594 1355.808594 1528.382813 1345 1544 C 1340.199219 1551 1335.949219 1564.449219 1329 1569 C 1331.835938 1546.566406 1335.96875 1524 1347.285156 1504 C 1370.585938 1463.042969 1420.636719 1436.265625 1467 1433.089844 C 1480.714844 1432.148438 1494.636719 1433.070313 1508 1436.234375 C 1514.515625 1437.777344 1522.355469 1443 1529 1442.589844 C 1537.570313 1442.210938 1547.542969 1433.609375 1556 1431.039063 C 1577.648438 1424.457031 1602.667969 1426.078125 1623 1436.269531 C 1677.578125 1463.625 1685.449219 1540.066406 1672.882813 1593 C 1669.75 1606.203125 1665.863281 1620.195313 1659 1632 M 852 1442 C 842.660156 1447.632813 826.722656 1447.601563 816 1449.609375 C 788.628906 1454.742188 761.363281 1460.121094 734 1465.261719 C 723.691406 1467.199219 713.183594 1473 705.390625 1464.023438 C 704 1462.476563 700.484375 1459.707031 700.921875 1457.34375 C 701.398438 1454.761719 706.992188 1454.21875 709 1453.746094 C 717.796875 1451.664063 727 1450.746094 736 1449.421875 C 774.269531 1443.757813 813.496094 1440.347656 852 1442 M 1175 1443 C 1183.355469 1439.492188 1196.941406 1442 1206 1442 C 1234.980469 1442 1264.390625 1445.386719 1293 1450.078125 C 1301.996094 1451.554688 1311 1452.710938 1320 1454.390625 C 1322 1454.78125 1328.578125 1455 1328 1458.277344 C 1325.484375 1476 1302.308594 1467 1292 1465.078125 C 1253.511719 1458.410156 1212.605469 1453.570313 1175 1443 M 532 1476 L 533 1477 L 532 1476 M 789 1487 C 777.664063 1494 759.847656 1496.21875 747 1500 C 741.570313 1501.398438 734.722656 1504.800781 729 1505 C 725.277344 1505.0625 722.957031 1498.53125 723.503906 1495.3125 C 724.285156 1490.703125 735.644531 1492.015625 739 1491.574219 C 755.328125 1489.433594 772.527344 1487 789 1487 M 1235 1488 C 1239.722656 1486.019531 1245 1487.566406 1250 1488 C 1261.996094 1489.050781 1273.96875 1491.378906 1286 1492 C 1290 1492.15625 1300 1491.480469 1303 1494.15625 C 1305.457031 1496.128906 1302.703125 1502.679688 1300.996094 1504.382813 C 1297.386719 1508 1287 1503 1283 1501.671875 C 1267.675781 1496.742188 1250.914063 1490.351563 1235 1488 M 359 1736 C 346.253906 1727 336.800781 1708.824219 330 1695 C 313.1875 1660.410156 305.832031 1621.816406 287.539063 1588 C 281.53125 1577 275.195313 1562.820313 265 1555 C 272.789063 1576 268.582031 1601.003906 270 1623 C 271.628906 1645.449219 278.761719 1666.074219 282 1688 C 276.238281 1683.550781 272.65625 1676.226563 269 1670 C 258.703125 1652.386719 249.882813 1630.597656 249 1610 L 248 1610 C 242.59375 1652.78125 257.59375 1702.414063 275.308594 1741 C 282 1755.707031 291.640625 1769.261719 298 1784 C 284.945313 1776.433594 276 1760.300781 267.925781 1748 C 243.824219 1711.554688 226 1661.132813 226 1617 L 224 1617 C 223.9375 1640.023438 222.175781 1662 224 1685 C 215.804688 1676.796875 213.617188 1659 210.871094 1648 C 201 1608.445313 199.808594 1562.492188 220.425781 1526 C 232.933594 1504 257.785156 1481.097656 285 1493.519531 C 309.292969 1504.605469 314 1539.730469 318 1563 C 328.253906 1621.714844 336 1680.800781 359 1736 M 1803 1684 L 1801 1684 C 1801.960938 1661.648438 1803.832031 1640.402344 1801 1618 L 1800 1618 C 1794.503906 1661.503906 1781.503906 1706.496094 1758.421875 1744 C 1750.203125 1757.351563 1739.941406 1774 1727 1783 C 1731.992188 1766.035156 1745.570313 1749.703125 1752.574219 1733 C 1769.1875 1693.386719 1778 1652 1778 1609 L 1777 1609 C 1771.691406 1630.546875 1767.476563 1651.03125 1754.996094 1670 C 1751.34375 1675.550781 1747.769531 1682.488281 1742 1686 C 1744.320313 1670.511719 1752 1656 1753.824219 1640 C 1756.890625 1611.796875 1752.675781 1582.398438 1760 1555 C 1725.292969 1593.023438 1719.632813 1647.339844 1697.246094 1692 C 1690 1706.273438 1680 1726.414063 1667 1736 C 1671 1718.5 1681.425781 1702 1686 1684 C 1695.632813 1647.757813 1699.929688 1610 1706.574219 1573 C 1711 1548 1713.644531 1516.027344 1734 1498.183594 C 1760.332031 1475.105469 1792 1502.519531 1804.769531 1526 C 1824.234375 1561.792969 1823 1602.316406 1814.574219 1641 C 1811.402344 1655.445313 1805.464844 1669.46875 1803 1684 M 1082 1564 C 1069.910156 1556.445313 1059.757813 1545.511719 1047 1539 C 1051.496094 1550.585938 1057 1563 1060 1575 C 1045.308594 1564.765625 1037 1547.1875 1023 1537 C 1022.945313 1556.164063 1018.496094 1577.164063 1015 1596 L 1014 1596 C 1008.964844 1578.078125 1004 1556.613281 1004 1538 C 994 1549.261719 982.351563 1566.074219 969 1573 C 971.222656 1561.335938 978.367188 1550.507813 981 1539 C 968.8125 1547.027344 957.988281 1556.804688 946 1565 C 949.292969 1554.679688 958.890625 1545.824219 967 1539.082031 C 999.355469 1512.175781 1033.707031 1513 1064.484375 1542.25 C 1070.867188 1548.347656 1079 1555.511719 1082 1564 M 522 1535 L 523 1536 L 522 1535 M 1505 1538 L 1506 1539 L 1505 1538 M 751 1638.285156 C 767.265625 1636.367188 784.621094 1638 801 1638 L 1196 1638 C 1220 1638 1243.953125 1639 1268 1639 C 1277 1639 1290.175781 1635.230469 1298.683594 1639.148438 C 1301.65625 1640.519531 1301.484375 1645.210938 1302 1648 C 1304 1656.421875 1306.613281 1664.800781 1309.332031 1673 C 1310 1675.320313 1312.945313 1680.742188 1310.933594 1683 C 1309.210938 1685 1304.273438 1684 1302 1684 L 747 1684 C 740.664063 1684 721.441406 1687.230469 716.707031 1682.820313 C 714.449219 1680.714844 717.558594 1675.304688 718.332031 1673 C 720.894531 1665.390625 723.683594 1657.796875 725.625 1650 C 726.324219 1647.195313 726.332031 1642 728.742188 1640.027344 C 732.894531 1636.695313 745.660156 1639 751 1638.285156 M 1329 1714 L 734 1714 C 725 1714 715.984375 1713.765625 707 1714.035156 C 703.839844 1714.128906 698.339844 1715 699.902344 1710 C 701.574219 1704.605469 708.757813 1690.746094 714 1688.601563 C 723.722656 1684.738281 740.632813 1688 751 1688 L 1285 1688 C 1292.3125 1688 1308.382813 1685 1314.585938 1689.027344 C 1320.308594 1692.773438 1326.386719 1707.695313 1329 1714 M 1353 1743 L 674 1743 C 676.878906 1737.605469 685.191406 1727 691 1724.742188 C 700.453125 1721.085938 715.90625 1724 726 1724 L 1305 1724 C 1325.46875 1724 1342.269531 1721.796875 1353 1743 M 1393 1783 L 635 1783 C 643.398438 1774 663.5625 1778 675 1778 L 1351 1778 C 1360.859375 1778 1387.429688 1773.367188 1393 1783 "/></g></svg>