<svg xmlns="http://www.w3.org/2000/svg" xmlns:xlink="http://www.w3.org/1999/xlink" viewBox="0 0 100 100" version="1.1"><g transform="translate(1, 14.302884945215268) scale(0.056072092690602204) translate(-132.25, -323.175781)"><path style=" stroke:none;fill-rule:nonzero;fill:rgb(0%,0%,0%);fill-opacity:1;" d="M 537 1356 L 537 1357 C 470.226563 1344.558594 398 1332 331 1348.746094 C 291.734375 1358.648438 254.820313 1380.292969 222 1403.28125 C 203.453125 1416.269531 186 1431 170 1447 C 163.949219 1453.050781 155.648438 1459.175781 152 1467 C 185.695313 1448.21875 217.195313 1428.804688 254 1415.691406 C 314.597656 1394.105469 379 1383.464844 443 1379.089844 C 484.910156 1376.21875 527 1379 569 1379 L 569 1380 C 520.886719 1391.484375 471.824219 1399.46875 424 1412.703125 C 413 1415.746094 401.984375 1418.640625 391 1421.730469 C 388.175781 1422.523438 380.445313 1423.355469 380 1427.148438 C 379.625 1432.828125 389.871094 1442 393.199219 1446 C 407 1463.3125 427 1476.476563 440 1494 C 399.617188 1494 359.300781 1498.195313 319 1500 C 280.8125 1501.632813 241.984375 1501.789063 204 1506.285156 C 185.738281 1508.445313 166.976563 1509.066406 149 1513.121094 C 143.996094 1514.246094 132.25 1515.597656 133 1523 C 134 1531.617188 148.5625 1532.328125 155 1533.050781 C 177.933594 1535.625 200.914063 1537 224 1537 C 322.238281 1537 420.679688 1540 519 1540 L 848 1540 C 860.941406 1540 875.195313 1538.304688 888 1540.144531 C 894.628906 1541.097656 899.972656 1547.824219 905 1551.789063 C 914.359375 1559.171875 924.265625 1565.488281 935 1570.691406 C 967.945313 1586.660156 1008.410156 1595.5625 1045 1596 C 1081.839844 1596.433594 1121.296875 1593.632813 1156 1580.1875 C 1168 1575.535156 1180.191406 1570 1191 1563 C 1196.773438 1559.152344 1202.960938 1552.054688 1210 1551.132813 C 1228 1548.773438 1247.808594 1551 1266 1551 C 1305.65625 1551 1345.347656 1551.46875 1385 1551 C 1494.25 1549.695313 1603.738281 1547 1713 1547 L 1713 1545 C 1686.742188 1545 1660.191406 1541 1634 1539.089844 C 1600.355469 1536.785156 1566.644531 1535.394531 1533 1533.089844 C 1469.332031 1528.730469 1404.367188 1530.761719 1341 1523.285156 C 1313.371094 1520.027344 1283.8125 1518.011719 1256 1518 C 1251 1518 1230.601563 1519 1229.488281 1513 C 1228.835938 1509.296875 1229.980469 1494.246094 1233.316406 1492.601563 C 1242 1488.277344 1261.1875 1492 1271 1492 L 1820 1492 C 1825.5625 1492 1846 1495.050781 1849.5 1490.398438 C 1852.605469 1486.148438 1853.179688 1478.050781 1854.472656 1473 C 1858.367188 1457.773438 1861.402344 1442.371094 1864.660156 1427 C 1879 1359.046875 1880 1288.726563 1873.167969 1220 C 1847.242188 961 1658 743.226563 1411 668.117188 C 1362.597656 653.398438 1312.402344 644.367188 1262 641 C 1243.890625 639.667969 1223 636.070313 1205 639.148438 C 1198.9375 640.191406 1200.800781 652.183594 1200 657 C 1197.539063 675.644531 1195.980469 694.410156 1192.75 713 C 1184.773438 759 1170 816.214844 1195.453125 859 C 1203.546875 872.609375 1214.59375 883 1227 892.5 C 1234.75 898.496094 1243 906.007813 1252 910 C 1241.386719 871.1875 1232.386719 833.003906 1227 793 L 1228 793 C 1238 817.148438 1255.820313 837.027344 1269.574219 859 C 1305.9375 917.078125 1344.175781 978.292969 1356 1047 C 1360.757813 1074.003906 1364.796875 1101.492188 1362.910156 1129 C 1362.597656 1133.59375 1358.390625 1154 1362.601563 1156.398438 C 1367.714844 1159.382813 1380 1157 1386 1157 C 1405.582031 1157 1425.515625 1156.316406 1445 1158.171875 C 1509.722656 1164.328125 1574.773438 1172.382813 1636 1196 L 1636 1197 C 1521.828125 1173.445313 1409.390625 1176.796875 1294 1187.828125 C 1259.335938 1191.144531 1225.359375 1197.042969 1191 1202.5625 C 1168.472656 1206.179688 1144.988281 1208.820313 1123 1215 C 1131.859375 1205.667969 1152.867188 1201.304688 1165 1197.328125 C 1201.722656 1185.304688 1239.863281 1174.667969 1278 1168.285156 C 1291.941406 1166 1306.207031 1163.824219 1320 1161 C 1323.824219 1160.070313 1332.308594 1161.472656 1333.683594 1157 C 1337.789063 1143.035156 1334.359375 1126.089844 1334 1112 C 1332.402344 1046.15625 1306.628906 977.195313 1259.996094 930 C 1223.839844 893.40625 1176.40625 870.261719 1158.503906 819 C 1140.714844 768.054688 1161 718 1167.710938 667 C 1175.351563 608.339844 1171.351563 547.40625 1157.765625 490 C 1146.863281 444 1129 400 1101.976563 361 C 1090.742188 344.816406 1073.425781 324.574219 1052 324.015625 C 1019.890625 323.175781 992.6875 349.429688 970.425781 369.253906 C 907.238281 425.519531 863.269531 507.324219 834.859375 586 C 827.785156 605.59375 821.804688 625.8125 816.746094 646 C 815 652.660156 815.285156 666.085938 810.976563 671.398438 C 808.617188 674.304688 801.3125 673.066406 798 673 C 785 672.667969 772 672 759 672 C 724.207031 672.011719 687 679 654 689.191406 C 642.585938 692.746094 631 696.46875 620 701.082031 C 615.425781 703 608 707.828125 603 707.492188 C 597 707.085938 587.957031 692.347656 583.910156 688 C 565.230469 668 546.253906 648.085938 527.675781 628 C 472.507813 568.0625 398.976563 513.65625 324 481.574219 C 298.535156 470.675781 260 453.414063 233 467.683594 C 217.4375 476 212.820313 496.472656 208.574219 512 C 196.648438 555.621094 197.386719 606.371094 202 651 C 209 715.21875 225.433594 777 249.203125 837 C 267.761719 884 296.722656 934.449219 297.984375 986 C 299 1032 280.777344 1072.265625 269.746094 1116 C 258.535156 1160.4375 255.539063 1206.65625 262.574219 1252 C 264.945313 1267.277344 268.886719 1282.234375 273.414063 1297 C 275.367188 1303.378906 277.207031 1312.363281 281.363281 1317.679688 C 284.5 1321.691406 295.476563 1319.039063 300 1318.425781 C 317.261719 1316.074219 334.59375 1316 352 1316 C 395.707031 1316 440 1324.230469 482 1336.554688 C 500.648438 1342.046875 518.390625 1350.679688 537 1356 M 1047 963 C 1024.960938 957 1005.480469 948.066406 982 947.039063 C 921.617188 944.394531 870.511719 985.199219 849.460938 1040 C 842.769531 1057.421875 839.367188 1077.464844 838 1096 C 837.410156 1106 838.890625 1116.316406 837 1126 C 826.441406 1112.738281 827.347656 1088 825.828125 1072 C 817.441406 984 895.847656 907 984 930.117188 C 1000.707031 934.523438 1016.214844 941.679688 1031 950.550781 C 1036.714844 954 1043.5625 957.058594 1047 963 M 940 1041 C 944.511719 1038.714844 947.582031 1035.230469 953 1035.058594 C 979.582031 1034.21875 978.816406 1076 952 1073.773438 C 947.863281 1073.453125 944.371094 1071.203125 941 1069 C 941.765625 1105 980.515625 1134.617188 1014 1137 C 1022.519531 1137.492188 1029.871094 1134.691406 1038 1133 C 1033.378906 1144 1021.640625 1152.621094 1012 1159 C 979.78125 1180.304688 941.304688 1180.179688 905 1172.28125 C 893.867188 1170 883.664063 1165 873 1161 C 869.386719 1159.6875 862.453125 1158.421875 859.9375 1155.4375 C 857.671875 1152.746094 857.324219 1147.367188 857 1144 C 854 1100.148438 856.855469 1054 893 1023.4375 C 909.21875 1009.753906 926.550781 1004.554688 947 1001.246094 C 949.9375 1000.769531 965 997.789063 966 1002.390625 C 966.652344 1005 958.585938 1010.40625 957 1012 C 948.742188 1020.320313 943.246094 1029.777344 940 1041 M 605 1140 C 594.46875 1126.402344 587.488281 1108.558594 577.921875 1094 C 551.867188 1054.351563 514.695313 1020.054688 464 1027.300781 C 444.230469 1030.125 431.671875 1042.304688 414 1049 C 419 1037.464844 433.523438 1026.703125 444 1020.054688 C 452.597656 1014.601563 462 1010.296875 472 1007.777344 C 532.796875 992.265625 577.921875 1040.765625 595.667969 1094 C 599.734375 1106.207031 608.210938 1127.292969 605 1140 M 507 1065 C 496.445313 1080.042969 488.484375 1090.5 485 1109 C 491.882813 1105.414063 496.433594 1100.453125 505 1102.53125 C 525.273438 1107.453125 519.554688 1136.402344 500 1137 C 493.996094 1137.105469 490 1133.285156 485 1131 C 492.308594 1170.359375 519.542969 1207 564 1206 C 580 1205.472656 591.9375 1198.648438 606 1192 C 604.300781 1199.152344 598 1204.730469 592.675781 1209.476563 C 578.679688 1222 562 1230 544 1234.371094 C 488.746094 1248.101563 418.988281 1228.707031 404.59375 1167 C 391 1108.726563 446.648438 1047.160156 507 1065 M 1327 1254 L 1327 1255 C 1313.984375 1257.417969 1300.1875 1257 1287 1258.171875 C 1261.964844 1260.5625 1237 1263.734375 1212 1266.171875 C 1153.367188 1272 1095 1282.320313 1037 1291.296875 C 1005.914063 1296.097656 975.273438 1303.398438 944 1307.15625 C 933.628906 1308.402344 919 1313 909 1310 C 932.902344 1287.109375 971.253906 1276.527344 1002 1267 C 1075.808594 1244.042969 1157.425781 1242.609375 1234 1246 C 1264.410156 1247.292969 1297.230469 1246.832031 1327 1254 M 735 1260.285156 C 749 1258.558594 766.859375 1259 779 1267.105469 C 787 1272.453125 792.4375 1283.75 787.347656 1293 C 779.738281 1306.828125 760.699219 1308.671875 753.921875 1323 C 747.328125 1337 754 1354.257813 746.972656 1369 C 744.972656 1373.121094 742 1379.714844 736.984375 1380.628906 C 731.484375 1381.617188 725.527344 1375.40625 722 1372 C 709.949219 1360.132813 710 1341.144531 697.980469 1330.183594 C 687.777344 1321 671 1322.695313 662.765625 1311 C 653.585938 1298.019531 659.496094 1285 672 1277.171875 C 690.515625 1265.8125 713.886719 1263 735 1260.285156 M 1484 1354 C 1448 1342.277344 1413 1329 1376 1320.5 C 1326.28125 1309.1875 1276.542969 1303.660156 1226 1298.828125 C 1206.179688 1297 1185.929688 1293.011719 1166 1293 C 1170.238281 1289.789063 1177.75 1290.472656 1183 1290 C 1198.640625 1288 1214.238281 1287 1230 1287 C 1294.496094 1287 1356 1300.15625 1417 1320.667969 C 1433.566406 1326.242188 1449.507813 1333.746094 1465 1341.742188 C 1471.226563 1345 1480.246094 1347.820313 1484 1354 M 1318 1471 C 1310.59375 1464.183594 1306.515625 1451.273438 1300 1443 C 1285.226563 1423.773438 1267.347656 1407.148438 1247 1394 C 1179 1349.472656 1094.628906 1344 1016 1342 C 983 1341.175781 950 1340 917 1340 L 917 1338 C 926 1337.203125 935 1333.105469 944 1331 C 963.476563 1326 983 1321.550781 1003 1319.15625 C 1086.183594 1309.167969 1173.585938 1316 1246 1362 C 1283.300781 1385.621094 1317 1424.78125 1318 1471 M 1117 1454 C 1102.53125 1464.277344 1093.277344 1483.792969 1087.226563 1500 C 1081.800781 1514.53125 1077.214844 1530.46875 1061 1536.097656 C 1038 1544.039063 1020.933594 1527.566406 1016.804688 1506 C 1012 1481 1022.382813 1450 1040 1432 C 1020.261719 1443.003906 1004.886719 1461.65625 995.539063 1482 C 989.234375 1495.722656 987.191406 1517 972 1524.078125 C 952.828125 1533.15625 936 1515.101563 934.175781 1497 C 931.191406 1469.25 943 1441.796875 962 1422 C 943.636719 1429.183594 926 1448 915.355469 1464 C 911 1470.484375 907.183594 1485.117188 901 1489 C 900.964844 1475.59375 899.71875 1464 904.921875 1451 C 914.214844 1428 936.507813 1411.527344 958 1400.753906 C 1006.308594 1376.535156 1067.816406 1369 1120 1384.292969 C 1156.707031 1395.117188 1199.949219 1421.726563 1202.910156 1464 C 1204.898438 1492.359375 1189.660156 1516.640625 1165 1530.335938 C 1142.722656 1542.703125 1115.988281 1540.121094 1109.5 1512 C 1107.382813 1502.816406 1108.394531 1494.242188 1109 1485 C 1109.757813 1474.253906 1112.570313 1463.785156 1117 1454 M 614 1387 C 608.988281 1391.160156 601 1392.472656 595 1394.695313 C 585.847656 1398.03125 576.992188 1402.269531 568 1406.011719 C 537.8125 1418.566406 508.199219 1432.59375 480 1449.140625 C 471.753906 1454 463.753906 1459.136719 456 1464.746094 C 453 1467 449.410156 1471.421875 445.804688 1472.261719 C 443.476563 1472.804688 441.714844 1470.65625 440.5625 1469 C 436.351563 1462.644531 441.382813 1459.367188 445.714844 1455.128906 C 454.363281 1446.671875 463.949219 1439.695313 474 1433 C 501.664063 1414.566406 533 1404.6875 565 1396.265625 C 580.648438 1392.125 597.726563 1387.046875 614 1387 M 962 1421 L 963 1422 L 962 1421 "/></g></svg>