<svg xmlns="http://www.w3.org/2000/svg" viewBox="0 0 100 100"><g transform="translate(26.59172833498775, 1) scale(0.8555654848323192) translate(0.07000000000000009, 0.42000000000000015)"><path d="M45.46,90.88c.19,1,.42,1.79.5,2.63.18,1.93.6,3.85.2,5.83-.85,4.26-3.52,7.16-8.09,7.62a9.18,9.18,0,0,1-2-.13c-3.74-.35-7.49-.78-11.24-1a27.1,27.1,0,0,0-4.47.4,1.09,1.09,0,0,0-.67.3c-1.17,1.23-2.57,2.26-3.41,3.78a9.4,9.4,0,0,1-3.09,3.24,2.44,2.44,0,0,1-2.14.35,4.58,4.58,0,0,1-3.36-4,9.4,9.4,0,0,1,2-6.33A11.22,11.22,0,0,1,18.27,99a51.76,51.76,0,0,1,7.67-.26c.85,0,1.69.21,2.54.26a23,23,0,0,0,6.72-.69,3.18,3.18,0,0,0,2.45-2.72c.09-.73-.2-1-.93-.93a21.56,21.56,0,0,1-10.34-1.21c-1.45-.54-2.87-1.19-4.35-1.59-3.57-1-6.15-3.29-8.45-6a58.63,58.63,0,0,1-7-11.39c-.21-.4-.37-.83-.6-1.22C3.31,68.64,2.1,63.6,1.14,58.46a50.32,50.32,0,0,1-1-9.56c0-.75-.21-1.5-.18-2.25.07-1.8.17-3.61.36-5.4.33-3.08.71-6.16,1.12-9.24.18-1.39.57-2.75.67-4.15A27.5,27.5,0,0,1,4.81,19a33.53,33.53,0,0,0,1.77-7c.47-2.41.94-4.82,1.6-7.18a19,19,0,0,1,1.76-3.8c.65-1.16,1.18-1.24,2.27-.42a21.49,21.49,0,0,1,5.27,5.73c.24.38.46.77.72,1.19L22,7.93c.62-1.43,1.21-2.8,1.79-4.17.35-.83.64-1.69,1-2.5.79-1.61,1.84-1.68,2.94-.21.34.44.62.91.92,1.37.69,1.05,1.4,2.08,2.05,3.15A11.34,11.34,0,0,1,31.8,7.72a65.2,65.2,0,0,0,3.94,9.08,19.1,19.1,0,0,1,1.73,4.61,5,5,0,0,1-.34,3.06,14.34,14.34,0,0,1-2.49,4.24,18.47,18.47,0,0,0-3.34,5.5,12.59,12.59,0,0,0,3.45,3.95A47.75,47.75,0,0,1,42.82,46,53.14,53.14,0,0,1,50.41,58.1c1,2.24,1.88,4.53,2.86,6.79a18,18,0,0,1,1.26,6c.12,1.65.11,3.32.1,5a15.84,15.84,0,0,1-2.73,8.48c-.44.68-.95,1.31-1.37,2A11.63,11.63,0,0,1,45.46,90.88Zm-27.15-71A3.11,3.11,0,0,0,19,22.12a2.83,2.83,0,0,0,2.93,1.1,2.6,2.6,0,0,0,2.16-2,4,4,0,0,0-.7-3.12,2.77,2.77,0,0,0-3.33-.94C18.72,17.53,18.3,18.2,18.31,19.88Zm15.17-1.5a3.16,3.16,0,0,0-2.92-3.21,2.72,2.72,0,0,0-2.32,3,2.49,2.49,0,0,0,2.4,2.71A2.75,2.75,0,0,0,33.48,18.38ZM14.31,8.74a4.3,4.3,0,0,0,.25-1.11,4.57,4.57,0,0,0-1.18-2.54c-1.1-1.28-2.46-1.18-3.24.29a9.06,9.06,0,0,0-.81,3.77c0,.24.29.51.45.75a1.3,1.3,0,0,0,.74-1.35,15.36,15.36,0,0,1,.19-1.78c.12-.69.3-1.37,1.07-1.59C13.12,5.91,13.22,7.45,14.31,8.74ZM27,5.73a4.49,4.49,0,0,1,.7,2.32c.06.47.1,1,.7.92s.63-.62.54-1.08a12.5,12.5,0,0,0-.68-2.43A1.4,1.4,0,0,0,26,5a6.9,6.9,0,0,0-1.42,1.87,1.46,1.46,0,0,0,.13,1.75C25.74,7.85,25.64,6.3,27,5.73Z"/><path d="M22.87,19.86a1.81,1.81,0,0,1-1.79,2A1.77,1.77,0,0,1,19.28,20a2.16,2.16,0,0,1,1.95-2.1A1.72,1.72,0,0,1,22.87,19.86Z"/><path d="M30.79,19.44a1.5,1.5,0,1,1,0-3,1.71,1.71,0,0,1,1.43,1.66A1.29,1.29,0,0,1,30.79,19.44Z"/></g></svg>