<svg xmlns="http://www.w3.org/2000/svg" xmlns:xlink="http://www.w3.org/1999/xlink" viewBox="0 0 100 100" version="1.1"><g transform="translate(1, 6.341860076339742) scale(0.04954499494438827) translate(0, -102.636719)"><path style=" stroke:none;fill-rule:nonzero;fill:rgb(0%,0%,0%);fill-opacity:1;" d="M 765 683 C 763.613281 672.742188 757 665.5 754 656 C 772.667969 670.351563 793.171875 682.554688 807.253906 702 C 813.910156 711.191406 819.484375 720.75 824.363281 731 C 827 736.792969 828.777344 744.175781 833 749 C 839.523438 727.136719 840.753906 704.039063 846 682 L 847 682 C 849 688.039063 852 693.628906 853 700 C 858.9375 695.480469 858.996094 677.164063 859 670 C 863.625 674.617188 865.257813 682 867 688 C 872 704.410156 874.335938 723 873 740 C 884.367188 735 894.496094 726.589844 906 721.308594 C 934 708.382813 967 700.332031 998 699 C 989.921875 707.164063 977.300781 709.484375 970 719 C 979 717.386719 987.84375 713.296875 997 711.449219 C 1011.953125 708.433594 1026.863281 707.296875 1042 705.828125 C 1052.585938 704.804688 1067 703.800781 1077 708 C 1064.4375 712.015625 1047 715 1037 724 C 1056.699219 725.757813 1076.757813 720.671875 1097 723.578125 C 1101 724.164063 1113.839844 728.617188 1116.859375 725.355469 C 1119.546875 722.457031 1119.492188 715.726563 1120.195313 712 C 1122.203125 701.339844 1123 684 1131 676 C 1131 683.386719 1131.648438 695 1136 701 L 1143 682 L 1144 682 C 1146.652344 703 1151 725 1151 746 C 1157.992188 740.527344 1162 731 1167.601563 724 C 1182.386719 705.375 1197.421875 688.222656 1216 673.195313 C 1222.570313 668 1229 661.066406 1237 658 C 1233.488281 666.457031 1227.488281 673.453125 1227 683 C 1252 665.5625 1276.695313 656 1305 645 C 1298.421875 633.5625 1288.1875 623.636719 1279.183594 614.089844 C 1260.480469 594.265625 1240.765625 575.71875 1219 559.230469 C 1206.523438 549.78125 1188.96875 542.070313 1179 530 C 1208 543.765625 1236.179688 558.5625 1261 579.246094 C 1267 584.339844 1273.175781 589.476563 1278.984375 595 C 1280.480469 596.3125 1284 600.777344 1286.523438 599.667969 C 1288.890625 598.605469 1289.375 593.1875 1290 591 C 1292.347656 582.78125 1294.324219 574.378906 1296 566 C 1303.21875 530 1304.644531 494.636719 1303 458 C 1296.203125 302 1170 174 1022 140.5 C 854.65625 102.636719 669 163.300781 564.769531 301 C 555.601563 313.109375 547.695313 326 540 339 C 533.914063 349.382813 528.820313 360.121094 523.703125 371 C 498.355469 425 477.613281 508.464844 535 550.113281 C 566.171875 572.734375 611.855469 563.78125 633 532 C 646.945313 511.3125 648.539063 486.429688 654.578125 463 C 660.886719 438.535156 671.691406 415.761719 686 395 C 741.90625 314.070313 845.699219 278 941 285 C 1001.671875 289.359375 1062.574219 317.6875 1097.253906 369 C 1116.511719 397.488281 1125.304688 436 1121.285156 470 C 1120.429688 477.242188 1121.628906 495.253906 1115.4375 500.304688 C 1113 502.171875 1109.503906 500.59375 1107 500 C 1099.3125 498.171875 1091.640625 496.15625 1084 494.152344 C 1056.984375 487.070313 1027.808594 485 1000 485 C 909.941406 485 815 520.152344 748 581 C 733 594.511719 718.855469 608.179688 705.347656 623.253906 C 702 626.824219 692.867188 635.589844 693.167969 640.582031 C 693.40625 644.585938 707.71875 648.59375 711 650 C 722.292969 655 733.917969 660.679688 744 667.722656 C 750.917969 672.550781 757.390625 679.472656 765 683 M 391 957 C 381.59375 957 372.335938 957.179688 363 956 C 364 959.464844 366.421875 961.804688 368 965 C 359.625 962.34375 349.742188 961.175781 341 960 C 343.308594 967.160156 353.304688 972.480469 358.828125 977.335938 C 375.378906 992 387.457031 1009.417969 397.246094 1029 C 399 1032.550781 406.882813 1043.535156 404.757813 1047.398438 C 402.371094 1051.734375 387.980469 1048.3125 384 1048 L 384 1049 C 391.757813 1053.527344 399.746094 1057.238281 407 1062.628906 C 408.925781 1064.0625 413.945313 1066.710938 413.945313 1069.523438 C 413.945313 1073 400.660156 1082.285156 398 1085 C 387.289063 1096 374 1112 369.617188 1127 C 367.324219 1134.5625 391 1123.394531 389.605469 1131.148438 C 388 1139.550781 378 1150.402344 372.984375 1157 C 354.570313 1180.5 329 1193.019531 305 1209.328125 C 294.503906 1216.414063 281.386719 1224.601563 274 1235 C 300.769531 1225.273438 325.191406 1219.003906 354 1219 L 354 1220 C 331 1231 309 1250.117188 289 1265.652344 C 281 1271.773438 269.28125 1280 265 1289 C 272.660156 1286.558594 279.367188 1281.304688 287 1278.425781 C 301.527344 1273 317.539063 1271.003906 333 1271 C 325.328125 1277.703125 311.296875 1281 302 1285.601563 C 280 1296.585938 252.691406 1316.652344 243 1340 C 250.390625 1336.1875 256.636719 1330.234375 264 1326.175781 C 283.597656 1315.375 307.402344 1307.1875 330 1307 L 330 1308 C 281 1328.386719 232.8125 1363.308594 205 1409 C 197.226563 1421.777344 190.828125 1435.480469 187 1450 C 185.386719 1456.257813 184 1471 179.410156 1475.398438 C 174.628906 1480 154.929688 1478.128906 148 1479.285156 C 129.261719 1482.414063 109.53125 1489.714844 94 1500.78125 C 35.824219 1542.242188 13.9375 1626.417969 44.550781 1691 C 54.648438 1712.300781 71.414063 1723.800781 86 1741 C 64.6875 1741.003906 41.90625 1744.046875 21 1748.199219 C 15 1749.367188 3.605469 1749 0 1754 C 36.316406 1754.023438 72.589844 1761 109 1761 C 104.566406 1765 97.640625 1764.347656 92 1765.128906 C 77 1767.210938 61 1769.6875 46 1770 L 46 1771 L 166 1771 L 166 1773 C 140.808594 1775 115 1783.480469 90 1784 L 90 1785 C 102.3125 1788.09375 118.316406 1784.324219 131 1784.015625 C 162.988281 1783.230469 195 1783 227 1783 C 303.953125 1783 379.6875 1777.535156 456 1768.285156 C 517.585938 1760.820313 581 1752 641 1735 C 635.273438 1741.679688 623.964844 1742.230469 619 1749 C 663.5 1735 705.242188 1714.261719 749 1698 C 770.644531 1690 795.660156 1680.015625 819 1680 C 807 1693 783.808594 1699.070313 768 1706.308594 C 727.953125 1724.640625 687.421875 1741.6875 648 1761.398438 C 631.730469 1769.53125 607.921875 1779 596 1793 C 606.195313 1791.035156 616.59375 1783.734375 626 1779.296875 C 654.226563 1766 686 1748.390625 718 1747 L 718 1748 L 682 1761 L 682 1762 C 696.226563 1762 710.878906 1758.785156 725 1757 L 725 1758 C 714.460938 1760.816406 704.421875 1765.398438 694 1768.652344 C 688.445313 1770.386719 682 1770.632813 678 1775 C 691.925781 1771.683594 710 1774.707031 723 1768.597656 C 734.765625 1763.003906 745.378906 1753 756 1745.425781 C 778.796875 1729.300781 804.628906 1711.597656 831 1702 C 808.386719 1722.8125 783.265625 1741 760 1761 C 752.550781 1767.425781 738.636719 1774.550781 734 1783 C 750.476563 1781 767.382813 1776.046875 784 1776 L 784 1777 C 767.304688 1782.433594 748.207031 1787.15625 733 1796 L 733 1797 C 745.320313 1795.1875 757.316406 1790.191406 770 1792 L 770 1793 C 758.414063 1793.503906 744.808594 1798 734 1802 L 734 1803 C 769.25 1800.195313 803.488281 1786.734375 839 1786 L 839 1787 C 830.882813 1789.214844 821.710938 1790.726563 814 1794 L 814 1795 L 835 1796 C 828.722656 1802 816.230469 1803.332031 808 1805.476563 C 790.460938 1810.050781 772 1819.203125 754 1821 L 754 1822 C 793.5 1821.183594 832.304688 1805.328125 872 1805 C 866.488281 1810 856.953125 1811.289063 850 1813.414063 C 834 1818.277344 817.394531 1824.179688 801 1827 L 801 1828 C 836.195313 1828 870.703125 1815.003906 906 1815 L 906 1816 C 878.984375 1821.589844 853.226563 1834.371094 826 1839 L 826 1840 C 870 1838.078125 913.621094 1821.367188 958 1821 L 958 1822 C 934.175781 1827.511719 907.808594 1834.269531 885 1843 L 885 1844 C 923.46875 1844 961.449219 1830.105469 1000 1830 L 1000 1832 C 974.640625 1834.070313 945 1845 921 1853 L 921 1854 C 932 1854 942.894531 1851.109375 954 1852.171875 C 989.378906 1855.550781 1025.433594 1865 1061 1865 L 1061 1864 C 1034.46875 1861.832031 1005.894531 1853.238281 980 1847 L 980 1846 C 1015.335938 1846.023438 1050.492188 1857 1086 1857 L 1086 1856 C 1067.613281 1854.496094 1049.832031 1847.125 1032 1843 L 1032 1842 C 1060 1842 1087.996094 1849.769531 1116 1850 L 1116 1849 C 1101 1843.28125 1084.667969 1841.503906 1070 1835 C 1079.375 1833 1090.511719 1837 1100 1837.828125 C 1120.488281 1839.8125 1141.40625 1842 1162 1842 L 1162 1841 C 1142.273438 1833.613281 1119 1836.007813 1100 1826 C 1136.894531 1823.625 1174 1835 1211 1835 L 1211 1834 C 1182.789063 1826.070313 1153.226563 1824 1125 1816 L 1125 1815 C 1156 1815 1186.957031 1820 1218 1820 L 1218 1819 C 1192.371094 1817.828125 1167.382813 1805.53125 1142 1803 L 1142 1802 C 1149.898438 1801.121094 1158 1803.613281 1166 1804 C 1188.808594 1805 1212.308594 1807 1235 1807 L 1235 1806 C 1223.640625 1804.566406 1212.410156 1802.265625 1201 1801.171875 C 1188.945313 1800.011719 1173.992188 1799.644531 1164 1792 C 1182.179688 1795.375 1200.644531 1795.414063 1219 1797.171875 C 1239.40625 1799.121094 1259.585938 1803.386719 1280 1805 C 1275.996094 1799 1261.832031 1798.265625 1255 1797.078125 C 1232.964844 1793.261719 1209.601563 1791.589844 1188 1786 L 1188 1785 C 1208.34375 1785 1228.648438 1787 1249 1787 L 1249 1786 C 1234.238281 1785.355469 1219.644531 1779 1205 1777 L 1205 1776 C 1218.988281 1776.039063 1235.371094 1781.660156 1249 1779 L 1249 1778 C 1240.4375 1774.441406 1231.890625 1770.609375 1223 1768 C 1217.300781 1766.140625 1209.726563 1765.640625 1205 1762 C 1213 1764 1222.789063 1765.824219 1231 1766 L 1231 1765 C 1201.726563 1745.085938 1172.710938 1723.261719 1146 1700 C 1156.261719 1703 1166.496094 1709.804688 1176 1714.746094 C 1202.273438 1728.402344 1228 1744.328125 1252 1762 C 1262.9375 1770 1275.464844 1786 1288 1790.566406 C 1294.898438 1793.167969 1310 1791 1318 1791 L 1318 1790 C 1303 1788.085938 1285.3125 1786.101563 1276 1773 C 1291.890625 1776.785156 1310.683594 1778 1327 1778 L 1327 1776 C 1311.234375 1775.3125 1292.765625 1770.234375 1278 1764.773438 C 1272.597656 1762.773438 1265.949219 1761.289063 1262 1757 C 1285.558594 1764 1312.722656 1760.277344 1337 1764.324219 C 1354.800781 1767.289063 1370.605469 1778.394531 1388 1781 L 1388 1780 C 1349.335938 1759.65625 1307.511719 1756.691406 1266 1745 L 1266 1744 C 1281 1744.003906 1295.953125 1747.253906 1311 1746 L 1311 1745 C 1280.8125 1736.265625 1251.183594 1722.121094 1222 1710.449219 C 1202.644531 1702.707031 1179.625 1695.253906 1164 1681 C 1181 1678.289063 1204.8125 1688.488281 1221 1693.65625 C 1249.578125 1702.777344 1278 1712.652344 1306 1723.800781 C 1325.792969 1731.71875 1345.367188 1742.277344 1367 1744 L 1367 1743 L 1358 1740 L 1358 1739 C 1395.828125 1740.628906 1432.933594 1755.214844 1471 1756 L 1471 1758 L 1456 1758 L 1456 1759 C 1473.796875 1763.238281 1493 1762.75 1511 1767 L 1511 1768 L 1493 1768 L 1493 1769 C 1540.417969 1783.023438 1593 1778.195313 1641 1790 L 1641 1791 L 1584 1790 L 1584 1791 C 1610.726563 1793.183594 1637.203125 1800.226563 1664 1802.828125 C 1728.519531 1809.097656 1794 1814 1859 1814 L 1859 1813 C 1834.980469 1812.503906 1809.886719 1806.257813 1786 1803.285156 C 1763.554688 1800.492188 1737.347656 1800.792969 1716 1793 L 1716 1792 C 1735.867188 1792 1758.515625 1796.101563 1778 1793 L 1778 1792 C 1763 1790.109375 1748.65625 1786.351563 1734 1783 L 1734 1782 C 1780 1782 1825.980469 1785 1872 1785 L 1872 1784 C 1843.980469 1781.710938 1816 1773.210938 1788 1772 L 1788 1771 C 1800 1768.132813 1812.84375 1771 1825 1771 C 1843.949219 1771.222656 1863 1768.796875 1882 1770.089844 C 1894.824219 1771 1912.660156 1774.648438 1925 1771 L 1925 1770 C 1905.519531 1769.597656 1886.238281 1764.484375 1867 1762 L 1867 1761 C 1902 1761 1937 1754 1972 1754 C 1968 1749 1956.992188 1748.652344 1951 1747.726563 C 1933.316406 1745 1914.308594 1744.167969 1897 1740 C 1978 1688.433594 1968.414063 1557.535156 1896 1503.757813 C 1878.316406 1490.628906 1858.5625 1482.421875 1837 1478.390625 C 1829 1477 1810.320313 1480.414063 1804.5625 1474.484375 C 1799.933594 1469.722656 1798.945313 1457.339844 1797 1451 C 1793 1436.753906 1787.355469 1423 1780 1410 C 1760 1374.074219 1727.78125 1347.582031 1693 1326.601563 C 1680.179688 1319 1667.3125 1310.664063 1653 1306 L 1653 1305 C 1686.539063 1305 1713 1322.285156 1740 1340 C 1736.546875 1330.578125 1728.773438 1322.300781 1722 1315.003906 C 1702.574219 1293.761719 1673 1274.671875 1645 1267 L 1645 1266 C 1663.957031 1266.050781 1683.714844 1272.023438 1701 1279.425781 C 1707.289063 1282.121094 1712.519531 1287 1719 1289 C 1715.1875 1281 1706.632813 1274.414063 1700 1268.730469 C 1684 1255.101563 1665.949219 1243.167969 1648 1232.398438 C 1640.929688 1228.15625 1631.800781 1225 1626 1219 C 1641.648438 1219 1657.5625 1219 1673 1221.804688 C 1682.894531 1223.664063 1692 1228.519531 1702 1230 L 1702 1229 C 1691.742188 1221.730469 1682.566406 1213.023438 1672 1206.078125 C 1655.964844 1195.539063 1638.261719 1187.449219 1625.171875 1173 C 1613 1159.65625 1605.847656 1143.453125 1599 1127 C 1604.546875 1127 1610.589844 1128 1616 1127 C 1607.300781 1111.308594 1597.398438 1096 1584.90625 1083 C 1582.457031 1080.453125 1570.890625 1072.550781 1572.207031 1068.664063 C 1575.414063 1059.195313 1597.289063 1054.753906 1605 1050 L 1605 1049 C 1596.308594 1050.121094 1587.75 1051.308594 1579 1052 C 1587.621094 1028.242188 1598.890625 1001.746094 1616.171875 983.015625 C 1625 973.40625 1641 966.679688 1648 956 C 1640.359375 956.15625 1632.597656 957.113281 1625 958 C 1623.648438 958.097656 1618.171875 959.460938 1617.632813 957.460938 C 1617 955.355469 1622.824219 952.605469 1624 951 C 1620 951 1605.671875 952.648438 1603 949.59375 C 1601 947.402344 1609.757813 933.730469 1611 931 C 1619.664063 912 1626.386719 891.816406 1633 872 C 1660 790.820313 1687.511719 708 1708.527344 625 C 1714 603 1719.964844 581.039063 1725.472656 559 C 1726.453125 555.082031 1732.25 540.117188 1729.761719 536.816406 C 1728 534.484375 1720.871094 539.304688 1719 540.140625 C 1707.902344 545.085938 1696.945313 550.460938 1686 555.742188 C 1662.335938 567.160156 1638.167969 577.554688 1614 588 C 1592.417969 597.042969 1569.453125 607.019531 1546 610 C 1549.171875 600.6875 1555.566406 593.054688 1559 584 C 1537 592.316406 1517.269531 609 1496 619.257813 C 1492.433594 621 1477.46875 629.265625 1473.832031 626 C 1471.445313 623.65625 1478.90625 616.253906 1480 614 C 1456.738281 622.582031 1435.554688 636.796875 1413 647 C 1418.730469 635.433594 1430.484375 628 1436 617 C 1409.183594 624.726563 1385.171875 647.816406 1364 665 C 1368.546875 652.503906 1376.617188 642.464844 1383 631 C 1372.175781 634.183594 1362 641.671875 1352 646.753906 C 1319.273438 663.273438 1289.796875 684 1260 705 C 1262.554688 690 1271.921875 679.273438 1278 666 C 1248.273438 678.503906 1232.222656 709.625 1213 733 C 1213 719.1875 1220 707.132813 1221 694 C 1207 698.597656 1195.175781 713.089844 1187.585938 725 C 1170.5625 751.726563 1158 782.800781 1146 812 L 1145 812 C 1146.195313 797 1148 780.5 1152 766 C 1145 768 1139.988281 775.011719 1135 780 C 1122.960938 792.039063 1112 806.144531 1098 816 C 1103.855469 800.058594 1105.527344 782.390625 1110 766 C 1091.171875 769.347656 1074.800781 786.25 1059 796 C 1059.277344 782.488281 1062.90625 768.777344 1067 756 C 1049.542969 757 1031.453125 769.785156 1016 777 C 1021.957031 764.464844 1032.554688 757.226563 1041 747 C 1019.890625 747 996.894531 753.503906 981 768 C 982.835938 758.257813 986.5625 748.726563 988 739 C 962 751.339844 948.296875 778.296875 929 798 C 926 791.761719 922 786 918.566406 780 C 915.914063 775.398438 913.320313 770.789063 911 766 C 909.746094 763.332031 907 753.496094 903.882813 753 C 900.789063 752.367188 897.558594 759 896.207031 761 C 889.203125 771.5625 886.789063 783.757813 884.574219 796 C 884 798.296875 883.566406 811 880.855469 811 C 877.691406 811 874.453125 804.183594 872.847656 802 C 865.589844 792.148438 859 782.554688 853 772 C 847.527344 780.007813 849 796.53125 849 806 L 848 806 C 844.957031 797.703125 838.648438 790.53125 834 783 C 832 779.65625 831 775.355469 828 773 C 827.964844 786.394531 826.449219 802.816406 824 816 L 823 816 C 819 785.332031 814.53125 749.699219 797.933594 723 C 791.53125 712.703125 781.589844 700.457031 770 696 C 771 707.765625 776.410156 719.207031 778 731 L 777 731 C 766 705.601563 738.445313 678.1875 715 664 C 720 677.589844 728.683594 690 730 705 C 693.589844 674 650 644.078125 605 627 C 610.1875 638.640625 620.382813 647.738281 625 660 C 600.773438 644 577.964844 624.382813 550 615 C 556.597656 626.484375 569.308594 634.6875 576 647 C 553.550781 635.1875 530.390625 625 508 613 C 508.855469 616.0625 515.335938 622.296875 514.320313 625.085938 C 513 628.683594 495.425781 620.617188 493 619.539063 C 478.601563 613.15625 464.59375 606.113281 451 598.140625 C 443.78125 594 436.792969 588 429 585 C 431.972656 593 436.714844 600.191406 440 608 C 426.339844 606.152344 412.914063 599.304688 400 594.691406 C 367.769531 583.179688 336.46875 569 305 555.421875 C 293.65625 550.578125 282.222656 546 271 540.769531 C 268 539.421875 260.871094 534.65625 257.617188 535.816406 C 253.902344 537.140625 260.507813 556.761719 261.210938 560 C 266.8125 586 274 611.515625 281.421875 637 C 299.960938 702.023438 320.910156 766.441406 340.976563 831 C 354 873.207031 366 920 391 957 M 309 588 C 347.425781 616 391.445313 637.53125 434 658.257813 C 499.207031 690.019531 566 720.117188 633 748 C 623.191406 736.777344 604.820313 731.515625 597 719 C 650 737.09375 697.582031 781.03125 736.714844 819.574219 C 747.960938 830.652344 757.9375 843.121094 767 856 C 770.878906 861.441406 775.476563 866.363281 777 873 C 765.511719 864.734375 756 852.625 745 843.613281 C 715.707031 820 680.414063 796.402344 645 783 C 654.234375 792.257813 661.847656 802.808594 670 813 C 674.765625 819 681 825.496094 683 833 C 653.988281 813.160156 626.199219 791.667969 596 773.449219 C 531.628906 734.617188 464.316406 700.753906 401 660.21875 C 377.296875 645.039063 355.257813 628 333 610.746094 C 326 605.386719 311 597 309 588 M 1675 591 C 1671.242188 599.035156 1661.800781 604.757813 1655 610.199219 C 1637.480469 624.21875 1618.9375 637.035156 1600 649.054688 C 1528.34375 694.523438 1449.976563 726.046875 1377 769 C 1355.242188 781.625 1334 796 1314 811.234375 C 1304.621094 818.425781 1294 831.21875 1283 835 C 1290.929688 817.183594 1306 804.539063 1317 789 C 1293.253906 806.007813 1270 822.804688 1249 843.039063 C 1236.554688 855 1224.636719 874.300781 1210 883 C 1227 836.804688 1274.597656 799 1313 771 C 1377.652344 723.707031 1453.496094 699.171875 1526 667.140625 C 1558.433594 652.808594 1590.789063 638.078125 1622 621.207031 C 1639.769531 611.601563 1656.71875 599.546875 1675 591 M 602 816 C 576 810 550.867188 799.195313 524 797 C 531.230469 804.332031 542.375 808.714844 551 814.34375 C 571.917969 828 593 841.511719 613 856.527344 C 622.191406 863.433594 636.933594 872.460938 642 883 C 590.273438 857.644531 536.660156 839.414063 487 809.601563 C 475.210938 802.523438 463.683594 795 453 786.195313 C 451 784.671875 443.261719 779.644531 445.175781 776.515625 C 447.214844 773.183594 459.671875 774.824219 463 775.300781 C 480.1875 777.75 497.738281 781.496094 515 783 C 506.65625 775.492188 492 771.144531 482 765.765625 C 463.625 756 446.839844 744.636719 430 732.425781 C 421.265625 726.089844 410.796875 719.421875 404 711 C 423 717 442.761719 729.617188 461 738.21875 C 490.714844 752.234375 521.230469 764.089844 550 780.140625 C 566.605469 789.402344 590.253906 800.78125 602 816 M 1578 712 C 1571.964844 719.460938 1562.640625 725.09375 1555 731 C 1536.683594 744.714844 1516.984375 757.285156 1497 768.574219 C 1488.503906 773.375 1478.59375 777 1471 783 C 1488.390625 780.753906 1505.570313 777 1523 775 C 1526.476563 774.425781 1537.566406 771 1539.863281 774.601563 C 1542.296875 778.550781 1534.351563 784.722656 1532 787 C 1520.789063 797.355469 1507 805.515625 1494 813.398438 C 1456.308594 836.132813 1415.566406 851.183594 1376 870.027344 C 1357.34375 879 1340 893.765625 1321 901 C 1332.179688 885.132813 1350.632813 872.117188 1366 860.527344 C 1387.230469 844.507813 1408.507813 828.296875 1431 814.054688 C 1442 807.046875 1454.910156 801.292969 1465 793 C 1440.277344 794.078125 1412.355469 806 1390 816 C 1381.296875 819.738281 1373.226563 825.457031 1364 828 C 1372.582031 816.777344 1386.597656 808.296875 1398 800.140625 C 1434.617188 774 1476.816406 757.144531 1518 739.574219 C 1537.972656 731.050781 1557.5625 719 1578 712 M 638 937 C 623.871094 932.496094 610 921.09375 597 914 C 567 897.300781 537.5625 880.285156 508 863.226563 C 497.355469 857.082031 486.714844 851 476 845 C 471 842.140625 464.816406 840 462 835 C 511.648438 844.355469 550.691406 865.390625 591 895.117188 C 607 907 626.46875 920.628906 638 937 M 1525 836 C 1521.703125 841.046875 1514 843.78125 1509 846.71875 C 1496.988281 853.554688 1485.246094 860.832031 1473 867.253906 C 1445.222656 881.824219 1417.785156 897.484375 1391 913.808594 C 1377.894531 921.796875 1364.289063 933.585938 1350 939 C 1360.546875 922.648438 1379.761719 908.453125 1395 896.574219 C 1433.492188 866.570313 1475.914063 843.21875 1525 836 M 1566 931 L 1566 932 C 1538.636719 938.515625 1508 937.3125 1480 941.285156 C 1451.960938 945.261719 1424.875 955 1397 959 C 1403 949.789063 1423 945.347656 1433 941.402344 C 1473.949219 925.164063 1522.964844 923 1566 931 M 597 963 C 539.414063 947.726563 478.894531 935 419 935 C 428 928.507813 445.246094 930.648438 456 930 C 491.691406 927.464844 527.574219 932.148438 561 945.402344 C 570.921875 949.335938 591.257813 953.613281 597 963 M 855 1228 L 854 1228 C 845.613281 1208 829.488281 1189.792969 816 1173 C 780.523438 1129 737.265625 1087.097656 687 1060.085938 C 663.984375 1047.714844 639.390625 1041 616 1030 C 621.726563 1028.011719 632.183594 1032.058594 638 1033.710938 C 655.488281 1038.679688 673 1043.03125 690 1049.800781 C 748.949219 1073.378906 802.261719 1112.472656 833.304688 1169 C 842.546875 1185.824219 854 1208.476563 855 1228 M 1370 1045 L 1370 1046 C 1347.777344 1052.71875 1327 1064.21875 1307 1075.574219 C 1264.363281 1099.664063 1224.996094 1128.597656 1188.714844 1161.515625 C 1176.816406 1172.308594 1165.234375 1183.496094 1154 1195 C 1148.609375 1200.539063 1144.246094 1207.402344 1138 1212 C 1141.269531 1193.65625 1155.914063 1173.613281 1166.871094 1159 C 1203 1110.644531 1254.738281 1081.191406 1311 1061.65625 C 1329 1055.359375 1350.632813 1045.414063 1370 1045 M 494 1088 C 490 1095.730469 480.992188 1101.550781 475.171875 1108 C 461.785156 1122.820313 449 1141.566406 447 1162 C 460.425781 1150.378906 472.320313 1140.054688 490 1135 C 485.558594 1142.730469 476.203125 1148.203125 470.289063 1155 C 454.90625 1172.679688 438.996094 1197.476563 435 1221 L 436 1221 C 444 1205 466.902344 1193.050781 484 1189 C 474.960938 1201.742188 461.265625 1211.132813 451.921875 1224 C 439.804688 1240.683594 434.660156 1258.324219 427 1277 C 435.386719 1271.113281 442.6875 1263.472656 453 1261 C 442 1276.546875 428.632813 1290 418 1306 C 433.847656 1297 447.980469 1287 466 1282 C 459.917969 1293.222656 447.3125 1302.632813 439.476563 1313.003906 C 416.953125 1342.804688 395 1377.808594 392 1416 L 391 1416 C 385.863281 1402.285156 386.445313 1385.328125 387.828125 1371 C 390.519531 1343.230469 397.953125 1314.082031 408 1288 C 398.625 1296.191406 390.800781 1310 388 1322 L 387 1322 C 376.667969 1278.597656 404.894531 1233.703125 423.246094 1197 C 427.640625 1188.210938 434.234375 1179.402344 437 1170 C 424.722656 1178.121094 416.382813 1190.296875 405 1199 C 405.953125 1153 450.59375 1100.742188 494 1088 M 1588 1209 C 1583 1206.058594 1581.210938 1200.285156 1577.671875 1196 C 1571.183594 1188.144531 1562.851563 1179.117188 1554 1174 C 1562.851563 1187.421875 1567 1203.328125 1573.429688 1218 C 1580 1233.453125 1589.914063 1246.667969 1594.972656 1263 C 1602 1286.144531 1600.195313 1309.300781 1600 1333 L 1599 1333 C 1591.78125 1319 1582 1299.066406 1567 1292 C 1578.804688 1322.425781 1595.203125 1348 1599 1381 C 1600.1875 1389.640625 1602.65625 1404.21875 1598 1412 C 1594.863281 1403.625 1593.949219 1394.507813 1590.773438 1386 C 1583.3125 1366.015625 1572.242188 1347.371094 1559.964844 1330 C 1551.425781 1318 1541.65625 1306.058594 1531.832031 1295 C 1526.957031 1289.511719 1520.402344 1284.503906 1517 1278 C 1535.285156 1284.632813 1550.261719 1295.671875 1567 1305 C 1562.972656 1282.414063 1544.769531 1260.492188 1531 1243 C 1526.261719 1236.78125 1519.332031 1231.148438 1516 1224 C 1532.957031 1230.171875 1545.671875 1241.472656 1559 1253 C 1554 1229.316406 1538.816406 1205.800781 1522.253906 1188.664063 C 1516.253906 1182.453125 1508.453125 1177.601563 1503 1171 C 1520.347656 1172.523438 1540.886719 1184.398438 1555 1194 C 1549.550781 1175.480469 1531 1154.730469 1517.960938 1141 C 1512.304688 1135.085938 1504 1130.113281 1500 1123 C 1515.308594 1128.136719 1527.847656 1136.007813 1541 1145 C 1536 1130.757813 1525.390625 1116.667969 1514.984375 1106 C 1509.421875 1100.296875 1500.996094 1094.800781 1497 1088 C 1509.597656 1090.246094 1522.269531 1099.746094 1532 1107.613281 C 1565.957031 1135.054688 1577.984375 1168.355469 1588 1209 M 823 1286 C 863.632813 1309.488281 885.714844 1372.074219 862.6875 1414 C 851.449219 1434.460938 831.332031 1447.375 810 1455.386719 C 739.492188 1482 653.484375 1430.574219 646.171875 1355 C 641.675781 1308.558594 674.285156 1246.160156 729 1253.289063 C 751.675781 1256.242188 767.5625 1288.753906 743.996094 1303 C 736.710938 1307.390625 720.429688 1300.625 717.246094 1307.058594 C 702.789063 1336.289063 724.953125 1383.414063 759 1385 C 811.351563 1387.335938 826.230469 1327 823 1286 M 1169 1283 C 1168 1295.160156 1165.242188 1306.664063 1166 1319 C 1168 1348.738281 1188.210938 1386.265625 1222 1387 C 1249.992188 1387.578125 1271.335938 1363.085938 1275.410156 1337 C 1276.53125 1329.820313 1276.617188 1315.425781 1271.859375 1309.359375 C 1269.378906 1306.199219 1258.96875 1309.238281 1255 1309 C 1247 1308.363281 1241 1301.800781 1237.824219 1295 C 1229.585938 1277.734375 1241.679688 1259.140625 1260 1257.175781 C 1318 1251 1348.242188 1315.148438 1339.679688 1364 C 1326.585938 1438.707031 1236.230469 1484.667969 1168 1451.742188 C 1157.496094 1446.671875 1147.339844 1440.457031 1139.183594 1432 C 1105.402344 1397 1113.167969 1345.757813 1141 1310 C 1148.492188 1300.398438 1157.746094 1288.238281 1169 1283 M 245 1609 L 244 1609 C 244 1591.34375 247.304688 1574.328125 254 1558 C 216.605469 1590.347656 202.609375 1635.53125 209 1683 C 201 1677.148438 198.222656 1658.308594 196.867188 1649 C 192 1616.550781 196.625 1584.054688 216 1557 C 203.523438 1565.789063 195.847656 1584 183 1591 C 191.480469 1541.109375 231.746094 1491.261719 283 1482.585938 C 309.804688 1478.046875 339.175781 1482.273438 357.699219 1504 C 363 1510.234375 370.300781 1521.109375 368.847656 1530 C 368.226563 1533.589844 365.546875 1531.519531 363.710938 1530 C 349.859375 1517.617188 333.832031 1518.734375 318 1526.085938 C 285.191406 1541.3125 254.941406 1574 245 1609 M 1803 1591 L 1802 1591 C 1793.324219 1578.246094 1782.886719 1567 1772 1556 C 1796 1595 1798.546875 1642.214844 1779 1684 L 1778 1684 C 1778.167969 1676 1781.367188 1668.113281 1780.90625 1660 C 1778.828125 1623.261719 1763.535156 1582.816406 1734 1559 C 1738 1571.402344 1740.730469 1585 1741 1598 C 1733.507813 1593 1728.28125 1576.660156 1722.335938 1569 C 1706.953125 1549.179688 1684.84375 1531.230469 1661 1523 C 1649.183594 1518.71875 1636.691406 1519.152344 1626 1526.101563 C 1624.398438 1527.140625 1618.261719 1533.042969 1616.695313 1529.574219 C 1614.332031 1524.332031 1621.878906 1512.0625 1624.789063 1508 C 1638 1489.339844 1661.738281 1481.300781 1684 1481.019531 C 1741.285156 1480.296875 1798.34375 1534 1803 1591 M 574 1617 C 565.667969 1619.464844 556.558594 1618.433594 548 1619.574219 C 545.214844 1620 540.640625 1619.511719 538.976563 1622.316406 C 537.191406 1625.328125 539.515625 1631 540.257813 1634 C 542.285156 1642.4375 543.957031 1651.304688 544 1660 C 544 1664.652344 544.921875 1670.746094 538.980469 1671.765625 C 531.777344 1673.003906 530 1666.257813 527.695313 1661 C 523.6875 1652.136719 519.210938 1643.339844 514.199219 1635 C 512.226563 1631.714844 510.230469 1627.183594 505.984375 1626.601563 C 491 1624.570313 470.367188 1632.519531 456 1636.269531 C 409.980469 1648.28125 368.660156 1669.703125 326 1690 C 332.6875 1678.359375 350.171875 1669.222656 361 1661.574219 C 392 1639.628906 427.234375 1625.566406 464 1616.375 C 477.1875 1613.078125 490.878906 1612.394531 504 1609 C 492.980469 1594.554688 483.273438 1578.824219 472.710938 1564 C 470 1560.277344 465.492188 1550 460.816406 1548.828125 C 455.984375 1547.707031 449.316406 1554 446 1556.753906 C 434 1566.648438 426.691406 1579 419 1592 L 418 1592 C 418 1579 419.277344 1567.242188 424 1555 C 391.226563 1574.066406 376.410156 1611.757813 366 1646 C 361.925781 1639.195313 363 1628.695313 363 1621 C 363 1604 365.628906 1585 372.335938 1569 C 375.960938 1560.378906 382 1553.347656 386 1545 C 375.273438 1555.726563 366.289063 1570.394531 355 1580 C 360 1521.101563 435.757813 1464 485.960938 1514.039063 C 503.351563 1531.429688 512.84375 1556.605469 521.800781 1579 C 525 1587.394531 527.550781 1602.070313 533.652344 1608.683594 C 541.710938 1617.414063 563.757813 1611 574 1617 M 1630 1580 L 1629 1580 C 1622.65625 1568.617188 1613 1558.277344 1604 1549 C 1620 1577.75 1630.964844 1611.550781 1623 1645 L 1622 1645 C 1610.496094 1609.640625 1592.902344 1581.699219 1563 1559 C 1568.226563 1571.738281 1571.902344 1586.222656 1573 1600 L 1572 1600 C 1563 1584.804688 1555.878906 1569.554688 1542 1558.085938 C 1538.507813 1555.199219 1532 1549 1527 1550 C 1522.535156 1550.757813 1519.902344 1557.558594 1517.65625 1561 C 1510.867188 1571.394531 1503.886719 1581.671875 1497 1592 C 1495.449219 1594.328125 1487.390625 1603.257813 1489.832031 1606 C 1492 1608.46875 1501.679688 1608.667969 1505 1609.25 C 1518 1611.542969 1531.425781 1614.542969 1544 1619 C 1577.414063 1630.335938 1608.308594 1646.257813 1636 1668.398438 C 1644.617188 1675.292969 1655.582031 1682 1662 1691 C 1620.207031 1669.011719 1579.367188 1647 1534 1632.808594 C 1519.378906 1628.285156 1497.441406 1620 1482 1622 C 1477.769531 1622.386719 1475.753906 1626.699219 1473.8125 1630 C 1468.554688 1639 1464.628906 1648.492188 1460.574219 1658 C 1458 1664 1455.757813 1670.1875 1448 1668.769531 C 1442.359375 1667.734375 1442.625 1662.625 1442.941406 1658 C 1443.601563 1648.285156 1445.402344 1638.410156 1447.882813 1629 C 1448.667969 1626.023438 1451.710938 1620.363281 1449.304688 1617.601563 C 1446.964844 1615 1440.261719 1616 1437 1615.425781 C 1424 1613.722656 1410.757813 1615.367188 1398 1613 C 1409.558594 1607.445313 1427.320313 1608.4375 1440 1607.167969 C 1444.5 1606.71875 1451.863281 1607.414063 1455.488281 1604.257813 C 1461.597656 1599 1464 1582.570313 1467.210938 1575 C 1476 1553.558594 1486 1529.507813 1503 1513.089844 C 1552 1465.527344 1627.496094 1522.585938 1630 1580 M 1029 1519 C 1021 1521.195313 1009.484375 1520 1001 1520 L 1001 1521 C 1015.839844 1526.757813 1039.632813 1538.265625 1044 1555 L 1043 1555 C 1039.609375 1551.800781 1035.289063 1549.792969 1031 1548 C 1036.1875 1560.503906 1047.414063 1571.433594 1050 1585 C 1032.363281 1582.769531 1020.835938 1591.300781 1004 1593.699219 C 985.933594 1596.273438 971.96875 1586.242188 955 1584.183594 C 951.558594 1583.765625 939 1586.3125 937.210938 1583.382813 C 935.84375 1581.1875 937.929688 1577.117188 938.695313 1575 C 941.5 1567.261719 945.574219 1559.589844 950.515625 1553 C 955 1547 960.273438 1542.757813 966 1538 C 959 1538.058594 952.65625 1539.476563 946 1541 C 954.273438 1524.707031 973.285156 1526.324219 987 1520 L 971 1515 C 986 1502.78125 1014.855469 1507.28125 1029 1519 M 1914 1657 L 1913 1657 C 1911 1633.585938 1900.539063 1608.484375 1884.828125 1591 C 1876 1581.195313 1865.335938 1574.144531 1856 1565 C 1858.699219 1580.148438 1865.988281 1593 1866 1609 C 1860.9375 1603.371094 1858.203125 1594.566406 1854.1875 1588 C 1844.574219 1572.277344 1832.742188 1556.1875 1817 1546.089844 C 1810 1541.609375 1802 1539.15625 1794 1537.515625 C 1789 1536.527344 1783.523438 1537.261719 1782.4375 1531 C 1781 1522.71875 1791.710938 1517.71875 1798 1515.546875 C 1815 1509.640625 1836.234375 1513.074219 1852 1521.109375 C 1901.230469 1546.203125 1923.917969 1603.574219 1914 1657 M 122 1610 L 121 1610 C 117.703125 1594.78125 126.402344 1577.640625 132 1564 C 101.71875 1588.03125 76.203125 1616.386719 73 1657 C 66 1648.144531 69.386719 1624.664063 70.871094 1614 C 76.769531 1571.546875 101.390625 1527.085938 146 1516.035156 C 159.828125 1512.609375 178.847656 1511.714844 192 1518.140625 C 196.945313 1520.554688 204.980469 1526.519531 203 1533 C 201.320313 1538.539063 195.722656 1538.675781 191 1539.664063 C 181.996094 1541.554688 173.582031 1544.765625 166 1550.039063 C 145.441406 1564.339844 130.820313 1587 122 1610 M 386 1545 C 387.3125 1544.230469 387.230469 1544.3125 388 1543 C 386.363281 1543.546875 386.546875 1543.363281 386 1545 M 811 1612 C 774.253906 1606.574219 737.640625 1595.140625 701 1588.308594 C 659 1580.480469 615.683594 1576 573 1576 C 588 1568.019531 614.328125 1570.394531 631 1570 C 676.542969 1569 725.894531 1571.113281 769 1587.8125 C 782.78125 1593.148438 801.734375 1600 811 1612 M 1411 1597 L 1411 1598 C 1365.601563 1598 1320 1600.730469 1275 1606.285156 C 1242.941406 1610.234375 1209.28125 1617 1177 1617 C 1193.640625 1602.539063 1217.75 1596.792969 1239 1593.730469 C 1277.871094 1588.125 1316.921875 1588.171875 1356 1591 C 1373.609375 1592.144531 1394 1592 1411 1597 M 911 1600 C 917.40625 1609.710938 922.484375 1619 932 1626.101563 C 940.207031 1632.316406 952.375 1635.308594 957.292969 1645 C 958.8125 1648 966.929688 1665.386719 963.929688 1667.828125 C 961 1670.085938 945.914063 1660.535156 943 1659 C 927 1650.054688 902.480469 1620.300781 911 1600 M 1076 1603 C 1074.589844 1635.777344 1051.941406 1657.542969 1022 1667 C 1023.511719 1656.757813 1027.507813 1643.027344 1036 1636.472656 C 1043.597656 1630.632813 1053.464844 1628.652344 1060.960938 1622.480469 C 1067.546875 1617.0625 1070 1608.789063 1076 1603 M 454 1708 L 454 1707 C 517.71875 1676.730469 586.363281 1664.292969 656 1657 C 696.503906 1652.496094 737.226563 1647 778 1647 L 778 1645 C 754.511719 1644.5 729.660156 1637.421875 706 1635.171875 C 672.519531 1632 638.644531 1633 605 1633 C 616.242188 1627.023438 634.46875 1628.21875 647 1626.714844 C 686 1622.023438 730 1618.378906 769 1626.335938 C 783.316406 1629.265625 798 1632.316406 808.910156 1643.089844 C 811 1645.316406 818.996094 1652.617188 816.839844 1656.257813 C 814.324219 1660.503906 799.402344 1659.765625 795 1660.089844 C 773.476563 1661.664063 751.347656 1663.6875 730 1666.730469 C 671.792969 1675.023438 613 1679.320313 555 1688.296875 C 532.355469 1691.792969 509.394531 1696.09375 487 1701.015625 C 476.269531 1703.371094 464.984375 1707.519531 454 1708 M 1315 1642 L 1315 1643 C 1296.980469 1643 1278.984375 1644.546875 1261 1645 C 1243.464844 1645.414063 1224 1644 1207 1648 L 1207 1649 C 1248.382813 1650.777344 1289.738281 1654 1331 1657.828125 C 1399 1664.332031 1468.273438 1671.660156 1531 1701 L 1531 1702 C 1494.742188 1699.113281 1458 1689.492188 1422 1684.300781 C 1377.855469 1678 1333.332031 1676.050781 1289 1671.828125 C 1250 1668.121094 1210 1662 1171 1662 C 1175.734375 1647.167969 1190.910156 1640.59375 1205 1638.246094 C 1229 1634.242188 1255.882813 1636.535156 1280 1638.828125 C 1291.632813 1640 1303.535156 1639.261719 1315 1642 M 283 1757 C 254.222656 1748.710938 229.507813 1718.175781 228 1688 C 227.339844 1673.585938 230.664063 1632 255.996094 1646.277344 C 271.261719 1655 257 1687.128906 258 1702 C 259 1716 263.953125 1729.34375 271.542969 1741 C 275 1746.480469 280.257813 1751.085938 283 1757 M 1702 1758 C 1715.71875 1739.140625 1728.960938 1725 1729 1700 C 1729 1688.519531 1727.609375 1677.140625 1724.714844 1666 C 1723.210938 1660.214844 1721.214844 1653.242188 1726.226563 1648.527344 C 1739.320313 1636.21875 1754.539063 1649 1757.484375 1663 C 1763.820313 1693.183594 1753.210938 1725.820313 1729 1745.191406 C 1721.441406 1751.238281 1711.910156 1757.492188 1702 1758 M 139 1753 C 112.699219 1740.558594 96.472656 1714.242188 92.429688 1686 C 90.503906 1672.558594 93.992188 1642 114.996094 1653.050781 C 128.367188 1660.164063 122.808594 1674.296875 121.289063 1686 C 119.777344 1697.644531 120.578125 1710.617188 123.234375 1722 C 126 1734.199219 134.699219 1742 139 1753 M 1847 1752 C 1851.722656 1740.824219 1860 1732.179688 1863.242188 1720 C 1868 1701.441406 1861.933594 1685.335938 1862 1667 C 1862 1659.597656 1866.800781 1653.542969 1874 1651.613281 C 1893.457031 1646.398438 1894 1672.632813 1892.828125 1685 C 1890.359375 1709.683594 1873.679688 1746 1847 1752 M 1560 1757 C 1563.230469 1750.027344 1568.558594 1744.253906 1571.664063 1737 C 1577 1724.394531 1576.746094 1710.25 1574.386719 1697 C 1572.734375 1687.753906 1569.226563 1679.449219 1565.261719 1671 C 1563.671875 1667.605469 1561.734375 1663 1564.601563 1659.570313 C 1574.28125 1648.421875 1593.832031 1662.667969 1598.304688 1672 C 1609 1694.636719 1599.644531 1725.734375 1582.960938 1743 C 1577 1749.105469 1568.71875 1756.054688 1560 1757 M 425 1756 C 397.488281 1746 376.222656 1705.347656 386.441406 1677 C 389.980469 1667.183594 412.265625 1648.652344 422.550781 1660.277344 C 428.394531 1667 416.976563 1683.605469 415.234375 1691 C 411.695313 1706.058594 412.34375 1722.273438 417 1737 C 419 1743.570313 423.472656 1749.320313 425 1756 M 1488 1740 C 1472.1875 1737.628906 1455 1726.429688 1447.996094 1712 C 1446.648438 1709.269531 1441.300781 1696.707031 1444.644531 1694.601563 C 1448.445313 1692.210938 1457.511719 1694.222656 1460.363281 1697.304688 C 1465.542969 1703 1467.617188 1712.378906 1471.429688 1719 C 1476 1727 1482.667969 1732.726563 1488 1740 M 499 1742 C 504.40625 1734.324219 511.226563 1728.492188 515.679688 1720 C 518.773438 1714.105469 519.757813 1705.386719 524.636719 1700.652344 C 527.183594 1698.183594 538 1694.050781 541.382813 1696.199219 C 545.238281 1698.699219 539.742188 1711 538.308594 1714 C 531.859375 1727.667969 514.289063 1740.65625 499 1742 M 676 1790 L 676 1791 C 690.679688 1790 707 1787.726563 716 1775 C 702.320313 1778.449219 690.210938 1787.476563 676 1790 M 1873 1784 L 1874 1785 L 1873 1784 M 166 1807 L 166 1809 C 221.238281 1809 277.191406 1803.53125 332 1796.714844 C 353.925781 1794 376 1789 398 1787 C 393.386719 1785.117188 387 1787 382 1787 C 365.824219 1787.085938 349 1789.296875 333 1790.828125 C 304 1793.585938 274.890625 1793.828125 246 1797.285156 C 219.734375 1800.429688 192.425781 1806.78125 166 1807 M 1481 1790 L 1481 1791 C 1507 1792.140625 1534 1800.484375 1560 1804.5625 C 1619.453125 1814 1681.730469 1823.757813 1742 1825 C 1737 1821.265625 1728.945313 1821.335938 1723 1820.195313 C 1707.390625 1817.203125 1691.636719 1815.199219 1676 1812.386719 C 1631.304688 1804.34375 1586 1799.144531 1541 1794.828125 C 1521 1793 1501 1790 1481 1790 M 1292 1793 C 1293.222656 1794.195313 1293.421875 1794.316406 1295 1795 C 1293.777344 1793.804688 1293.578125 1793.683594 1292 1793 M 1297 1796 L 1298 1797 L 1297 1796 M 1237 1807 L 1237 1808 L 1241 1809 C 1239.6875 1807.382813 1239 1807.308594 1237 1807 M 980 1845 L 980 1846 L 977 1846 C 978.246094 1845.316406 978.550781 1845.25 980 1845 "/></g></svg>