<svg xmlns="http://www.w3.org/2000/svg" xmlns:xlink="http://www.w3.org/1999/xlink" viewBox="0 0 100 100" version="1.1"><g transform="translate(1, 7.229786554542073) scale(0.0543298424330622) translate(-114.203125, -206.089844)"><path style=" stroke:none;fill-rule:nonzero;fill:rgb(0%,0%,0%);fill-opacity:1;" d="M 515 1157 C 510.445313 1151.652344 507.222656 1143.402344 501 1140 C 510.886719 1163.746094 524.902344 1185.453125 535 1209 C 527.613281 1202.605469 523.398438 1193.113281 516 1187 L 515 1188 C 526.390625 1211.234375 540.949219 1232 554 1254 C 549 1250.527344 545.855469 1245.492188 541 1242 C 544 1251.507813 551.839844 1261 557.574219 1269 C 571.746094 1289.074219 588.953125 1307.058594 603 1327 C 581 1310.289063 564 1288 547.625 1266 C 505 1209.351563 468.226563 1140.804688 457.296875 1070 C 453.785156 1047.253906 452.730469 1025.015625 453 1002 C 453.230469 983.078125 454.847656 964.761719 450.636719 946 C 445.503906 923.152344 425.347656 906.464844 418.195313 884 C 411.433594 862.761719 416.40625 841.582031 413.816406 820 C 412.785156 811.433594 408.535156 803.28125 406.28125 795 C 402.886719 782.519531 401.90625 769.832031 401 757 C 400.476563 747.328125 401.3125 735.632813 402.574219 726 C 402.953125 723.125 404.375 716.554688 400.683594 715.316406 C 386.273438 710.496094 359.902344 722 347 727.769531 C 298.601563 750.003906 261.183594 789.632813 237.5 837 C 214.886719 882.226563 209 933.113281 209 983 C 209 1031.183594 211.574219 1078.125 223.882813 1125 C 242.675781 1196.558594 279.53125 1264 310 1331 C 327.226563 1368.640625 349.679688 1404.699219 365 1443 C 372.171875 1461 375 1480.570313 358.996094 1494.816406 C 340.328125 1511.351563 306.871094 1499.09375 287 1490.269531 C 237.328125 1468.214844 206.359375 1430.503906 201.171875 1376 C 199.277344 1356.140625 205.210938 1336.011719 202.816406 1316 C 200.808594 1299.214844 186.90625 1272.554688 166 1283 C 146.230469 1293 136.503906 1324.199219 131.265625 1344 C 114.203125 1408.5 123.53125 1480.105469 164.652344 1534 C 178.53125 1552.183594 194.214844 1568.011719 212 1582.386719 C 215.429688 1585.15625 229.199219 1592.765625 228.367188 1597.824219 C 227.578125 1602.625 216.589844 1603 213 1603.410156 C 196.796875 1606 180.230469 1605.710938 164 1608.433594 C 160 1609.078125 143.667969 1611 146.40625 1617.6875 C 148.390625 1622.648438 157.511719 1624 162 1625 C 177.777344 1628.78125 193.90625 1630.789063 210 1632.714844 C 213.84375 1633.175781 226 1636.074219 229 1634 C 232.515625 1631.460938 232.464844 1621.820313 233.589844 1618 C 237 1606.390625 242.90625 1595.148438 249.4375 1585 C 266.824219 1558 297.519531 1535.574219 326 1521.371094 C 339.648438 1514.5625 355.773438 1511 371 1512.089844 C 377 1512.539063 383.929688 1516.394531 390 1515.628906 C 395.53125 1515 400.308594 1509.1875 405 1506.464844 C 412.230469 1502.269531 420.714844 1500 429 1499.171875 C 446.695313 1497.457031 464.492188 1504.164063 482 1505.828125 C 496.414063 1507.203125 511.617188 1505 526 1504 C 563.523438 1501.339844 598.589844 1485.65625 634 1474.34375 C 660.628906 1466 688.601563 1461.347656 715 1453 L 715 1452 C 679.96875 1441 643.769531 1446.703125 608 1447 L 608 1446 C 632.628906 1440.355469 661.316406 1426.230469 687 1431 C 673.359375 1409.015625 653.835938 1409 631 1409 C 601.933594 1409 572.976563 1412 544 1412 L 544 1411 C 588.832031 1401.746094 634.988281 1392 681 1393.015625 C 733.644531 1394.304688 784.964844 1406.425781 837 1413 L 837 1414 C 807.925781 1414 778.996094 1412 750 1412 C 730.339844 1412 707 1414.550781 688 1411 C 691.742188 1419 709.277344 1435.210938 718 1437.449219 C 724 1439.015625 732.589844 1436.003906 739 1436 C 754.761719 1436 770.339844 1438 786 1438 L 786 1439 C 775 1441.265625 764 1443.710938 753 1445.566406 C 748.40625 1446.335938 740.632813 1446.035156 736.660156 1448.550781 C 734 1450.203125 738.9375 1453.375 740 1454.324219 C 744.695313 1458.421875 750.75 1468.421875 757 1469.59375 C 773.53125 1472.675781 792.234375 1459.300781 809 1460 C 798.796875 1465 788.285156 1469 778 1473.542969 C 775.753906 1474.554688 769.265625 1476.046875 768.347656 1478.558594 C 766.921875 1482.460938 777.5625 1489.652344 780 1492.039063 C 784 1496.066406 790 1503.550781 796 1505 C 799.625 1505.699219 803.851563 1502.757813 807 1501.296875 C 815.570313 1497.3125 824.28125 1493.625 833 1490 C 828 1496.472656 807.636719 1505.289063 807.636719 1513.820313 C 807.636719 1520.179688 825 1528.398438 830 1531.140625 C 854 1544.625 883.699219 1550.21875 906 1566.171875 C 928.445313 1582.222656 943.3125 1604.09375 969 1616.21875 C 1015.914063 1638.367188 1072.96875 1638.804688 1122 1625 C 1140.285156 1619.726563 1158.695313 1614.332031 1175 1604.253906 C 1188.472656 1596 1198.363281 1583.640625 1210 1573.171875 C 1233.5625 1552 1267.804688 1546.214844 1295 1530.71875 C 1301.574219 1527 1307.789063 1522.820313 1314 1518.515625 C 1315.75 1517.300781 1320.5 1515.601563 1320 1513 C 1318.84375 1505 1300 1497.519531 1295 1491 C 1303.914063 1494.65625 1321.460938 1506.753906 1331 1505.277344 C 1337 1504.335938 1344.539063 1496 1349 1491.828125 C 1351.339844 1489.726563 1361.683594 1482.640625 1361 1479.21875 C 1360.570313 1476.347656 1354.261719 1474.808594 1352 1474 C 1342.851563 1470.230469 1334 1465.738281 1325 1462 L 1325 1461 C 1339.566406 1461.636719 1356.8125 1472.125 1370.960938 1470.472656 C 1376.9375 1469.773438 1384.265625 1458.8125 1388.980469 1455.039063 C 1390 1454.199219 1394.953125 1451.117188 1392.339844 1449.554688 C 1388.355469 1447.179688 1380.589844 1447.46875 1376 1446.550781 C 1364.621094 1444.273438 1353.367188 1441.34375 1342 1439 L 1342 1438 C 1357.660156 1438 1373.234375 1436 1389 1436 C 1395.347656 1436.011719 1403.960938 1439.109375 1410 1437.066406 C 1417.917969 1434.390625 1437 1419.351563 1441 1412 C 1392.941406 1412 1345 1414 1297 1414 L 1297 1413 C 1312 1409.300781 1327.757813 1408.121094 1343 1405.566406 C 1391.734375 1397.390625 1439.578125 1391.703125 1489 1395.089844 C 1522.78125 1397.402344 1555.550781 1406.769531 1589 1411 L 1589 1412 C 1579.503906 1413.355469 1569.511719 1411.457031 1560 1411.039063 C 1539 1410.121094 1517.984375 1409 1497 1409 C 1488 1409 1476.507813 1407.023438 1468 1409.652344 C 1459 1412.410156 1447.691406 1422.539063 1441 1429 C 1450 1431.675781 1460.558594 1430.78125 1470 1433 C 1486.917969 1436.652344 1503.933594 1443.480469 1521 1446 L 1521 1447 C 1496.851563 1446 1473.210938 1444.429688 1449 1446.089844 C 1437.566406 1447 1426.402344 1450.507813 1415 1451 C 1418.601563 1456.617188 1430.824219 1456 1437 1457.476563 C 1457.269531 1462.519531 1477 1469.566406 1497 1475.71875 C 1537 1488.066406 1574.894531 1502.757813 1617 1506.828125 C 1637.832031 1509 1656.640625 1500.519531 1677 1500.015625 C 1686.832031 1499.769531 1696.984375 1499.488281 1706 1504.054688 C 1711.757813 1507 1716.820313 1513.6875 1723 1515.316406 C 1728.382813 1516.738281 1736.492188 1513.003906 1742 1512.289063 C 1751.535156 1511.050781 1760.78125 1512.726563 1770 1515 C 1765.820313 1507.3125 1755.492188 1502.234375 1749.429688 1495.828125 C 1736.597656 1482.277344 1724.75 1462 1723 1443 C 1720.460938 1413 1737.328125 1385.273438 1751.574219 1360 C 1773.328125 1321.414063 1795.539063 1283 1814.890625 1243 C 1865.75 1138.238281 1887.183594 1022.519531 1865.539063 907 C 1854.726563 849.296875 1825.203125 794.585938 1773 764.71875 C 1760.523438 757.582031 1746.933594 750.671875 1733 747 C 1729.878906 746.035156 1721.828125 742.128906 1719 745.027344 C 1717 747.027344 1718.925781 752.507813 1718.984375 755 C 1719.183594 763.304688 1717.867188 771.769531 1716.84375 780 C 1714.890625 795.679688 1707.671875 810.398438 1706.171875 826 C 1704.484375 843.5 1708.527344 860.375 1704.574219 878 C 1698.183594 906.511719 1674 926.199219 1669 955 C 1663.441406 987.066406 1668.984375 1020.535156 1665.828125 1053 C 1663.449219 1077.503906 1656.550781 1101.285156 1650.378906 1125 C 1636.738281 1177.382813 1618.910156 1225.152344 1586.476563 1269 C 1571.488281 1289.261719 1551 1313.246094 1529 1326 C 1546 1301.644531 1576 1283.1875 1588 1255 C 1576.734375 1260.019531 1565.730469 1271.277344 1556 1279 C 1568.28125 1259.363281 1588.953125 1244.121094 1599 1223 C 1591.949219 1228 1586.777344 1234.800781 1580 1240 C 1588 1221.398438 1605.371094 1204.347656 1609 1184 C 1604 1187.472656 1600.855469 1192.507813 1596 1196 C 1606.417969 1176.199219 1620.21875 1156.433594 1627 1135 C 1619.652344 1140.285156 1616.378906 1149 1610 1155 C 1615.460938 1118.542969 1635.933594 1084.6875 1642.535156 1048 C 1646.710938 1024.816406 1647.207031 1000.410156 1644.828125 977 C 1643.582031 964.707031 1637 951.371094 1639.328125 939 C 1641.246094 928.285156 1652 921.28125 1658.242188 913 C 1667.207031 901 1672.355469 886.683594 1675.335938 872 C 1677 863 1678.878906 852.132813 1677.570313 843 C 1676.234375 833.664063 1671.378906 822.390625 1672.757813 813 C 1674.179688 803.335938 1682.824219 795.453125 1687.214844 787 C 1693 775.613281 1695.542969 762.570313 1697.5625 750 C 1704.414063 707.34375 1696.863281 664.46875 1702.285156 622 C 1705.394531 597.632813 1716.585938 574.757813 1722.527344 551 C 1731.203125 516.304688 1735 480.390625 1740 445 C 1748 386.222656 1756.1875 321.292969 1735.78125 264 C 1728.335938 243.09375 1717.332031 215 1693 209.667969 C 1676.226563 206.089844 1659.277344 212.667969 1644 218.800781 C 1606 234.03125 1572.652344 260.230469 1541 285.550781 C 1488.320313 327.691406 1437.996094 372.601563 1388 417.828125 C 1357.242188 445.65625 1324.257813 472.011719 1295.730469 502.171875 C 1270.945313 528.371094 1264.527344 570.4375 1236 594 C 1236.238281 565.367188 1245.359375 541.675781 1256 516 C 1250.90625 519 1247 523.441406 1242 526.40625 C 1228.960938 534.035156 1215.363281 538.5625 1204 549 C 1204.242188 543.417969 1212.3125 533.546875 1210.265625 528.617188 C 1208.9375 525.414063 1200.90625 529.257813 1199 530.238281 C 1189.929688 535 1182.328125 543.398438 1179 553 L 1178 553 C 1177.257813 543.691406 1175.414063 532.355469 1168 526 C 1165.78125 533.507813 1167 541.621094 1164 549 C 1158.695313 536.671875 1156 528.121094 1143 522 C 1143.957031 534.113281 1142.953125 545 1142 557 C 1133 545.003906 1128 530 1114 522.085938 C 1104.785156 517 1091.203125 522 1081 520.824219 C 1074 520.082031 1067 517 1060 517.128906 C 1052.269531 517.320313 1044.785156 521.011719 1037 520.625 C 1028 520.183594 1016.625 516.367188 1008 520 C 994.542969 525.304688 983.621094 546.753906 980 560 L 979 560 C 977 545.257813 976.613281 534.136719 981 520 C 967.199219 522.632813 957 537.46875 957 551 L 955 551 C 953.449219 536 940.589844 526.632813 927 523 C 928.746094 532.195313 933.277344 540.316406 931 550 C 920.171875 534.6875 903 531.359375 887 524.136719 C 880.460938 521.195313 875.410156 516 869 513 C 879 539.628906 888 561.761719 888 591 C 881.574219 585.492188 877.242188 576 872.289063 569 C 856.675781 547.085938 843.65625 522.546875 824.960938 503 C 793.777344 470.402344 757.445313 442.078125 724 411.828125 C 674.351563 367 624.605469 320.730469 571 280.527344 C 540.515625 257.660156 509.601563 233 474 218.402344 C 458.632813 212.140625 441.703125 206.265625 425 209.613281 C 401.371094 214.351563 388.808594 243.59375 382 264 C 363 320.582031 369.894531 383.105469 377.285156 441 C 381.914063 477.257813 385.84375 514.496094 394.746094 550 C 400.960938 574.792969 413.46875 598.554688 416.714844 624 C 422 665.511719 416.195313 707.339844 423 749 C 425 761.578125 427.460938 773.472656 433 785 C 436.910156 792.761719 444.664063 800.160156 445.65625 809 C 446.636719 817.730469 442.996094 827.300781 442.171875 836 C 441 848.292969 442.65625 861.050781 445.503906 873 C 448.820313 887 456.410156 901.003906 465.464844 912 C 471.597656 919.453125 481.433594 926.007813 483.609375 936 C 486 947.527344 480 959.792969 478 971 C 475 988.058594 474.90625 1006.714844 476 1024 C 479.269531 1070.464844 498.460938 1114.121094 515 1157 M 1267 498 C 1263.902344 493 1257.589844 489.691406 1253 486 C 1242.96875 477.664063 1232.855469 469.453125 1223 461 C 1201 442.199219 1176.703125 424 1150 412.425781 C 1083.8125 384.101563 1000.484375 389.175781 938 424.71875 C 913.882813 438.4375 892.609375 457.511719 871 474.800781 C 865.761719 479 860.53125 483.066406 855 487 C 853.792969 487.703125 850.207031 489.371094 850.207031 491.15625 C 850.207031 493.640625 868.324219 497.777344 871 498.8125 C 881 502.714844 893.183594 511.285156 904 512.171875 C 914.476563 513.027344 929.464844 507.011719 940 505 C 964 500.40625 990.488281 495.113281 1015 494.039063 C 1032.675781 493.265625 1050.375 495.554688 1068 496 C 1081.960938 496.324219 1095.972656 493.828125 1110 495.171875 C 1136.550781 497.707031 1163.671875 503.644531 1190 508.082031 C 1198.683594 509.542969 1208.167969 514.179688 1217 513.726563 C 1233.785156 513 1250 500.488281 1267 498 M 838 1000.472656 C 863.613281 994.03125 870.433594 1035.347656 846 1041.445313 C 821.605469 1047.535156 814 1006.5 838 1000.472656 M 1307 1001.304688 C 1332.597656 997.828125 1335.257813 1040 1310.285156 1042.632813 C 1286.851563 1045.175781 1282.839844 1004.585938 1307 1001.304688 M 1371.1875 1012.617188 C 1377 1010.125 1385.25 1017.394531 1388.984375 1021.039063 C 1400.640625 1032.421875 1408.710938 1050.714844 1409.910156 1067 C 1413 1111 1394 1145.707031 1354 1165.730469 C 1318 1183.683594 1269.308594 1175.320313 1238 1151.113281 C 1205.476563 1126 1205 1080.449219 1238 1054.679688 C 1239.945313 1053.164063 1246.34375 1047.609375 1248.398438 1051.371094 C 1250.28125 1054.824219 1249.597656 1062.03125 1250 1066 C 1250.964844 1074.039063 1252.855469 1082.433594 1255.75 1090 C 1268.886719 1124.367188 1306.523438 1152 1343 1134.507813 C 1373.855469 1119.78125 1382.84375 1085.046875 1380.964844 1054 C 1380.308594 1043.191406 1375.828125 1032.648438 1371.261719 1023 C 1369.929688 1020.1875 1366.921875 1014.429688 1371.1875 1012.617188 M 761.847656 1016.707031 C 765.34375 1017 764.269531 1020.820313 763.648438 1023 C 761.464844 1030.71875 758.867188 1038.023438 757.730469 1046 C 753.277344 1077.160156 764 1109.738281 789 1129.6875 C 808.796875 1145.570313 835.570313 1143.011719 856 1130 C 862.511719 1125.734375 868.371094 1120.238281 874 1115 C 876.296875 1112.8125 879.351563 1109 882.960938 1110.175781 C 897.878906 1115.585938 889.511719 1139.171875 882.855469 1147 C 866.246094 1166.472656 839 1175.460938 814 1176 C 765.753906 1177 721.816406 1135.277344 714.589844 1089 C 710.898438 1065.371094 723.742188 1042 742 1027.519531 C 746.578125 1024 755.65625 1016.449219 761.847656 1016.707031 M 1435 1051 C 1440.464844 1054.328125 1441.746094 1064.074219 1443 1070 C 1447.921875 1091 1444 1113.324219 1431.796875 1131 C 1398.210938 1179.46875 1344 1196.15625 1288 1193.035156 C 1270.625 1192.066406 1253 1187.222656 1238 1178.574219 C 1235.539063 1177.164063 1224 1172.0625 1224.921875 1168.445313 C 1225.386719 1166.488281 1229.777344 1167.707031 1231 1168 C 1236.734375 1168.644531 1242.449219 1170 1248 1171.589844 C 1273.78125 1179.1875 1298 1184.074219 1325 1180.714844 C 1392.605469 1172.304688 1432.214844 1116 1435 1051 M 689 1068.207031 C 691.53125 1068.207031 692.355469 1074.351563 692.777344 1076 C 695 1085 698.40625 1093.539063 702 1102 C 714.273438 1130.378906 736 1155.796875 764 1169.730469 C 789.574219 1182.515625 824.230469 1185 852 1179.335938 C 864.878906 1176.738281 877 1172 890 1169.398438 C 893.882813 1168.617188 900.769531 1166.457031 904.507813 1168.601563 C 910.527344 1172.058594 892.300781 1180.652344 890 1181.6875 C 873 1189.332031 853.441406 1192.648438 835 1194 C 784.214844 1197.386719 734.929688 1177.824219 702.464844 1138 C 690 1122.753906 683.769531 1105.613281 684 1086 C 684 1083.046875 684.589844 1068.207031 689 1068.207031 M 515 1242 C 502.757813 1242 490.28125 1241.136719 480 1249 C 486.820313 1247.734375 497.800781 1246.109375 502 1253 C 483 1255.5625 466.398438 1270.433594 462 1289 C 468.527344 1286.828125 474 1285.019531 481 1285 C 478.269531 1289.46875 472.875 1291.683594 469 1295.175781 C 462 1301.476563 457.472656 1309 455 1318 C 459.28125 1315.371094 463.304688 1313 468 1311 C 459 1326.476563 449.574219 1339.054688 443 1356 C 447.953125 1352.199219 450.613281 1346.230469 456 1343 C 455.210938 1352.636719 451.640625 1362.539063 449.5 1372 C 442.539063 1402.761719 432.257813 1445.394531 405 1465 C 407.929688 1448.511719 414.171875 1433.066406 415.828125 1416 C 420.953125 1363.257813 420.949219 1311.121094 441 1261 C 448.511719 1242.222656 458.5625 1224.449219 470.289063 1208 C 472.886719 1204.359375 478.746094 1193.207031 483.828125 1193.207031 C 487.675781 1193.207031 491 1201.242188 492.808594 1204 C 500.382813 1216.21875 509.308594 1228.792969 515 1242 M 536 1209 L 535 1210 L 536 1209 M 1156 1210 C 1167.394531 1231.65625 1169.855469 1255.191406 1174.308594 1279 C 1178.769531 1303 1185 1325.527344 1185 1350 C 1184.992188 1364.421875 1182.871094 1389.746094 1168 1397 C 1173.65625 1375.570313 1143.9375 1369.679688 1128 1368.171875 C 1113.414063 1366.785156 1096.652344 1371.21875 1083 1376.089844 C 1077 1378.175781 1071.234375 1382.21875 1065 1383 C 1057.738281 1383.621094 1049.917969 1379.433594 1043 1377.628906 C 1024.445313 1372.792969 1001.203125 1367.019531 982 1370.617188 C 967 1373.414063 957.652344 1380.429688 958 1396 C 941.808594 1381.195313 960.300781 1344.429688 966 1328 L 967 1328 C 969.347656 1336 967.847656 1343.410156 972.351563 1351 C 984.332031 1371.183594 1014.191406 1366.65625 1034 1371.015625 C 1041.863281 1372.742188 1056.320313 1381.371094 1064 1379.375 C 1068.757813 1378.136719 1072.40625 1372.285156 1076 1369.210938 C 1080.878906 1365.035156 1086.988281 1362 1093 1359.695313 C 1109.902344 1353.53125 1128.371094 1351.328125 1140.8125 1337 C 1151.175781 1325.0625 1151.386719 1307 1152 1292 C 1152.917969 1272 1154 1252.109375 1154 1232 C 1159.484375 1236.699219 1161 1244.15625 1165 1250 C 1165.464844 1241.421875 1162.191406 1232.050781 1159.484375 1224 C 1158 1219.613281 1154.636719 1214.628906 1156 1210 M 1529 1326 C 1528.453125 1327.636719 1528.636719 1327.453125 1527 1328 C 1527.769531 1326.6875 1527.6875 1326.769531 1529 1326 M 1325 1460 L 1325 1461 L 1322 1461 C 1323.246094 1460.316406 1323.546875 1460.25 1325 1460 M 557 1510 C 602.667969 1510 635 1535 655 1575 C 625.859375 1555.695313 596 1541.390625 562 1533.128906 C 547.65625 1529.644531 529.820313 1526.199219 518 1537.289063 C 496.65625 1557.558594 505.558594 1588.445313 510.789063 1613 C 515.816406 1636.605469 514 1660.207031 517.179688 1684 C 518.863281 1696.800781 523.691406 1708.628906 527 1721 C 519.914063 1717.21875 514 1709.054688 508.871094 1703 C 484.863281 1675.066406 479.835938 1646.410156 486.460938 1611 C 490.320313 1590.359375 502.320313 1560.105469 485.695313 1542.09375 C 479 1535 470 1534.789063 461 1535.015625 C 439.402344 1535.550781 410.386719 1547.066406 399 1566 C 371.902344 1612 380 1675.417969 396 1723 C 388.226563 1715.25 379.589844 1708.324219 373.546875 1699 C 354.804688 1670.058594 355.824219 1633.628906 361.285156 1601 C 363.691406 1586.617188 367.925781 1572.1875 374.167969 1559 C 375.195313 1556.828125 382.699219 1547.359375 381.65625 1545.601563 C 379.964844 1542.75 366.804688 1546.378906 364 1546.714844 C 343 1549.230469 325.613281 1555 311.617188 1572 C 280.664063 1609.730469 279.558594 1663.613281 294 1708 C 269.742188 1683.539063 264.519531 1651.765625 271.511719 1619 C 274.386719 1605.507813 280.679688 1592.464844 283 1579 C 272 1581.210938 263 1595.039063 257.578125 1604 C 238.535156 1635 239.761719 1665 251 1698 C 243.445313 1690.441406 237.84375 1679.71875 230 1673 C 230 1677 233.359375 1685.199219 230.382813 1688.257813 C 227.589844 1691.125 219.804688 1691.496094 216 1692 C 207.605469 1693 198.792969 1695 191 1698.230469 C 186.535156 1700.148438 179.621094 1704.023438 181.621094 1710 C 184.171875 1717.585938 198 1721.363281 205 1723.410156 C 229.460938 1730.730469 254.785156 1733.179688 280 1736.175781 C 288 1737.132813 290.53125 1744.496094 297 1748.386719 C 304.980469 1753.183594 315.941406 1754.40625 325 1755.699219 C 353 1759.691406 381.804688 1760.160156 410 1762.089844 C 455.246094 1765.1875 500.597656 1770 546 1770 C 592.898438 1770 640.796875 1768.363281 687 1759.738281 C 719.738281 1753.628906 749 1740 783 1740 C 809.632813 1740.128906 836.609375 1747.683594 863 1751 C 930 1759 999.226563 1768.550781 1067 1764 C 1117.65625 1760.441406 1167.664063 1752.496094 1218 1745.71875 C 1247.289063 1741.773438 1277.367188 1736.742188 1307 1738.039063 C 1341.714844 1739.558594 1371 1753 1404 1761.714844 C 1438.980469 1771 1476 1773.449219 1512 1776 C 1579.800781 1780.554688 1648.449219 1778.710938 1716 1772.171875 C 1748.902344 1769 1785.304688 1767 1816 1753.570313 C 1824 1750.042969 1827.734375 1742 1835 1738.027344 C 1841.214844 1734.785156 1852 1735.472656 1859 1735 C 1871.273438 1734 1884.1875 1731.28125 1896 1728 C 1902 1726.078125 1913 1723.59375 1915.863281 1717 C 1918 1711.644531 1910.882813 1707.59375 1907 1706 C 1897.230469 1701.5625 1880.859375 1702.382813 1881 1689 L 1866 1701 C 1867.304688 1692.175781 1871.234375 1684 1872.714844 1675 C 1876.96875 1649.589844 1873.171875 1624 1858.984375 1602 C 1853.882813 1594.09375 1846.480469 1582.660156 1837 1580 C 1844.238281 1622.074219 1863.242188 1673.6875 1823 1707 C 1840.316406 1653 1834.550781 1562.023438 1765 1548.199219 C 1757 1546.640625 1743.582031 1544.105469 1736 1546 C 1768.21875 1595.332031 1777.714844 1686.144531 1722 1723 C 1740.855469 1690.695313 1740 1646.722656 1733.460938 1611 C 1730.433594 1595 1726.5 1579.097656 1717.675781 1565 C 1706.902344 1547.785156 1679.441406 1537.820313 1660 1535.289063 C 1652 1534.257813 1642.542969 1534.195313 1636 1539.394531 C 1611.6875 1558.761719 1631.511719 1603.371094 1634.710938 1628 C 1639.242188 1663 1619.390625 1701.691406 1592 1723 C 1597.464844 1706.714844 1604 1691.355469 1605.828125 1674 C 1607.515625 1657.128906 1604.535156 1640 1606.171875 1623 C 1607.628906 1608 1612.300781 1593.109375 1612.960938 1578 C 1613.691406 1561.273438 1606.589844 1539.578125 1591 1531.1875 C 1580.84375 1525.722656 1566.539063 1530.480469 1556 1532.601563 C 1524 1539.015625 1496.945313 1552.082031 1469 1568 C 1488.523438 1528.140625 1525.5625 1510 1569 1510 C 1563.742188 1503 1545.355469 1500.785156 1537 1498.28125 C 1504.945313 1488.671875 1469.378906 1480 1436 1477 C 1424.429688 1476 1412.179688 1471.265625 1402 1478.535156 C 1400 1480 1394.386719 1482.660156 1394.921875 1485.59375 C 1395.570313 1489.164063 1407.945313 1493.792969 1411 1495.601563 C 1427 1505.144531 1443.859375 1514.683594 1458 1527 C 1440 1522.117188 1422.414063 1514 1405 1507.378906 C 1390.992188 1502.148438 1382.230469 1497.019531 1369 1505.65625 C 1365.558594 1508 1349.207031 1515 1349.207031 1519.132813 C 1349.207031 1525.398438 1366.640625 1536 1371 1540.039063 C 1390.429688 1558.617188 1411 1580.550781 1426 1603 C 1406.625 1585.15625 1384.988281 1570.058594 1364.335938 1553.820313 C 1355.886719 1547.175781 1344.25 1535.324219 1334 1532.046875 C 1330 1530.804688 1326.265625 1534.066406 1323 1535.742188 C 1315.550781 1539.558594 1307.65625 1542.75 1300 1546.140625 C 1297.480469 1547.253906 1291.65625 1548.640625 1291.753906 1552.214844 C 1291.972656 1560.453125 1308.367188 1570.421875 1313 1577 C 1303.859375 1571.402344 1290.851563 1560.476563 1280 1559.269531 C 1275.3125 1558.746094 1270.21875 1562 1266 1563.648438 C 1252.480469 1569.121094 1240 1576.636719 1229 1586.128906 C 1215.417969 1597.804688 1203.726563 1611.4375 1188 1620.429688 C 1118 1660.410156 1030.570313 1658 957 1631 C 923.203125 1618.554688 905.242188 1586.648438 874 1570.757813 C 866.695313 1567.039063 855.425781 1559.046875 847 1559.34375 C 835.210938 1559.757813 822 1572.640625 812 1578 C 816.792969 1571.195313 823.421875 1565.621094 829 1559.4375 C 830.699219 1557.554688 834.8125 1555 834.792969 1552.039063 C 834.773438 1548.660156 828.425781 1546.707031 826 1545.5 C 818.457031 1541.753906 800 1529.019531 792 1532 C 783.710938 1534.753906 776 1542.640625 769 1547.710938 C 746 1564.175781 726 1585 703 1601 C 717.957031 1579.515625 736.609375 1557.132813 756 1539.574219 C 761.839844 1534.335938 767.917969 1529.371094 774 1524.464844 C 775.515625 1523.238281 779.792969 1521.128906 779.792969 1519 C 779.792969 1515.160156 764 1508.035156 761 1506 C 757.472656 1503.347656 753.535156 1500 749 1499.640625 C 741.277344 1499.265625 732 1504.441406 725 1507 C 707.234375 1513.070313 688.628906 1519.136719 672 1528 C 682.640625 1513.214844 704.414063 1503.230469 720 1494.425781 C 722.921875 1492.773438 736.726563 1488.203125 736 1484.21875 C 735.582031 1481.164063 730.308594 1479 728 1477.578125 C 717.605469 1471.195313 706.480469 1474.796875 695 1476.574219 C 660.570313 1482 626.847656 1489 593 1497.128906 C 583.765625 1499.386719 562.550781 1502 557 1510 M 1314 1577 L 1313 1578 L 1314 1577 M 625 1696 C 621.488281 1685.652344 618.183594 1676.589844 612.710938 1667 C 608 1659.003906 602.222656 1628 621.984375 1638.027344 C 635.945313 1645.222656 631.292969 1669.007813 629.285156 1681 C 628.429688 1686.117188 628 1691.6875 625 1696 M 1490 1694 C 1483.179688 1684.183594 1476.808594 1652.410156 1490 1645.179688 C 1508.429688 1635.195313 1502.863281 1665.636719 1499.242188 1673 C 1495.847656 1680 1493 1687 1490 1694 "/></g></svg>