<svg xmlns="http://www.w3.org/2000/svg" viewBox="0 0 100 100"><g transform="translate(19.664786025624863, 1) scale(0.9811774128954743) translate(0.26067673149052695, 0.3999999999999999)"><path d="M17.71,30.53A26.29,26.29,0,0,1,14,24.29a11.66,11.66,0,0,1,.92-10.47A31.19,31.19,0,0,0,18,6.6,13.81,13.81,0,0,1,21.22,1c1.32-1.4,2.45-1.29,3.27.39A20.82,20.82,0,0,1,26.8,7.17l4.77.67c1.72-2.68,3.54-5.23,6.48-6.65a2.31,2.31,0,0,1,2.11,1.89c.5,1.77.94,3.55,1.39,5.33s1,3.78,1.39,5.68a21.61,21.61,0,0,1,.17,6.52c-.33,4.58-1.71,9-2.46,13.48a20.51,20.51,0,0,0,.09,8.33c.76,3.13,1.2,6.34,1.79,9.52q1.23,6.64,2.45,13.3a11.18,11.18,0,0,1,.23,1.82,31.52,31.52,0,0,0,1,7.1,11.47,11.47,0,0,1,.33,2.48c0,1.11,0,2.22.11,3.34a19.41,19.41,0,0,0,1.59-5.27,44.45,44.45,0,0,0,.32-9.22c-.06-2.51-.37-5-.49-7.53a16,16,0,0,1,.18-3c.3-2.15.59-4.32,1-6.44a12.54,12.54,0,0,1,3.1-5.69c2.12-2.37,4.72-2.39,7.39-1.48A2.62,2.62,0,0,1,61,45.28c-.46.82-1,1.6-1.53,2.39-.3.47-.63.93-1,1.37a12.61,12.61,0,0,0-2.81,6.7c-.26,2.9-.59,5.79-.71,8.7s-.11,6.06,0,9.09a54.15,54.15,0,0,1,0,6.37,21.69,21.69,0,0,1-4.62,12,9.66,9.66,0,0,1-3.17,2.43c-2.46,1.29-5,2.44-7.56,3.54a19,19,0,0,1-7.51,1.53c-3.87,0-7.75.08-11.62-.08a16.22,16.22,0,0,1-4.72-1.06c-2.35-.86-4.64-1.92-6.92-3A5.48,5.48,0,0,1,6.33,93a4.7,4.7,0,0,0-.82-1.06C3.05,89.76,2,86.77,1.13,83.78a33.66,33.66,0,0,1-1-12A21.5,21.5,0,0,1,2,64.69C3.41,61.46,4.91,58.26,6.33,55c2.41-5.48,4.76-11,7.21-16.44,1-2.15,2.1-4.21,3.17-6.3C17,31.71,17.36,31.14,17.71,30.53Zm1.87-10.15a3.18,3.18,0,0,0,3.18-3,3,3,0,0,0-3.19-3.09,3.75,3.75,0,0,0-2.92,3.24A3,3,0,0,0,19.58,20.38Zm7.35-1.71a2.65,2.65,0,0,0,2.7,2.81,3,3,0,0,0,3.13-3,3.08,3.08,0,0,0-2.93-3.06A3.1,3.1,0,0,0,26.93,18.67Zm12.22-7.91a17.6,17.6,0,0,0,0-2.92,6.66,6.66,0,0,0-.89-2.14.88.88,0,0,0-1.15-.45,5.59,5.59,0,0,0-3,3.33c.65.48.88.11,1.17-.28.58-.77.92-1.8,2.16-2.19a7.11,7.11,0,0,1,.37,1.27c.06.78,0,1.57,0,2.35S38,11,39.15,10.76ZM20.24,8.4c.92-1.4.61-3,1.81-4A2.64,2.64,0,0,1,23,6.52c.1.69.38,1.15,1.34.91a4.08,4.08,0,0,0-1.15-3.6A1.34,1.34,0,0,0,21,4.15,24.16,24.16,0,0,0,19.78,7.4C19.72,7.61,20,7.93,20.24,8.4Z"/><path d="M19.64,15.91a1.68,1.68,0,0,1,1.61,1.6A1.5,1.5,0,0,1,19.75,19,1.48,1.48,0,0,1,18.2,17.4,1.4,1.4,0,0,1,19.64,15.91Z"/><path d="M29.54,16.93a1.55,1.55,0,0,1,1.68,1.47A1.43,1.43,0,0,1,29.86,20a1.66,1.66,0,0,1-1.79-1.57A1.45,1.45,0,0,1,29.54,16.93Z"/></g></svg>