<svg xmlns="http://www.w3.org/2000/svg" xmlns:xlink="http://www.w3.org/1999/xlink" viewBox="0 0 100 100" version="1.1"><g transform="translate(1, 12.31936621366495) scale(0.048930427049039646) translate(1.363281, -231.828125)"><path style=" stroke:none;fill-rule:nonzero;fill:rgb(0%,0%,0%);fill-opacity:1;" d="M 590 465 L 590 466 C 551.828125 463 516.210938 463.511719 479 474.71875 C 459.5625 480.574219 442 490.660156 423 497.5625 C 404.703125 504.210938 380.289063 505.644531 364 517.074219 C 358.933594 520.769531 362.3125 531.566406 362.828125 537 C 364.464844 554.164063 366 571.765625 366.964844 589 C 367 592.414063 367.242188 608.132813 370.496094 609.652344 C 372.960938 610.804688 382.769531 595.207031 384.574219 593 C 390.171875 586.171875 400.28125 579.453125 404.308594 571.828125 C 406.6875 567.320313 403.484375 558.40625 404.464844 553 C 405.777344 545.769531 411.21875 541 413 534 L 406 536 C 408.921875 530.023438 415.402344 527.160156 421 524.003906 C 436.378906 515.328125 454 511.109375 471 506.203125 C 477.308594 504.367188 485.28125 505 490 500 C 465.328125 500.015625 441.453125 507.070313 417 509 L 417 508 C 432.691406 502.734375 447.269531 496.769531 464 495.171875 C 476.78125 494 487.699219 497.730469 500 499 C 523.273438 501.097656 545.800781 501.382813 569 505.574219 C 585.984375 508.644531 614.753906 514 627 527 C 577.621094 508.09375 514 514.460938 465 531.171875 C 451 536 437.832031 542.609375 426 551.265625 C 421.703125 554.40625 416.453125 557.132813 414 562 C 427.292969 557.792969 439.425781 549.523438 453 545.195313 C 479.78125 536.65625 507 535 535 535 L 535 537 C 499 537.738281 460 557.390625 431 577 L 431 578 C 454.722656 573.0625 476.414063 563.226563 501 560.285156 C 537.265625 556 577.429688 559.636719 612 571.695313 C 627.445313 577.082031 641.292969 585.125 656 592 L 656 593 C 643.46875 590.382813 631.84375 586 619 584.285156 C 577.5625 579 535.328125 580.285156 494 585.71875 C 471.304688 588.703125 445.78125 593.128906 425 603 L 425 604 C 451.722656 600.621094 476.175781 601 503 602 L 503 603 C 470.675781 604.390625 439.492188 612.253906 408 619 C 399.378906 621 379.761719 622 373.605469 628.5625 C 369.667969 633 373.460938 649 375 654 C 398.230469 640.777344 421.488281 628.75 448 623.449219 C 521.367188 608.777344 599.359375 637.050781 661 675.425781 C 678.738281 686.46875 696 698.355469 712 712 C 721.285156 720 730.96875 733 742 738 C 718.390625 696.566406 674.960938 663.621094 635 639.1875 C 619.886719 630 603.847656 619.738281 587 614 L 587 613 C 615.429688 615.480469 648 636.582031 671 652.414063 C 738 699 787.570313 764.460938 798 847 L 797 847 C 777.714844 776.34375 720.191406 725.089844 659 689.574219 C 628.8125 672.054688 597 657 563 648.476563 C 544.578125 644 525.824219 642 507 640.171875 C 473.976563 637.027344 438.25 643.460938 407 653.832031 C 398.921875 656.515625 381.550781 659.59375 376.707031 667.214844 C 374.75 670.289063 376.929688 675.636719 377.421875 679 C 378.886719 689 380 699.023438 381.753906 709 C 382.964844 716.269531 382.578125 731.335938 386.601563 737.34375 C 388.28125 740 393.238281 736.15625 395 735.257813 C 402.582031 731.386719 410.175781 727.503906 418 724.148438 C 449.800781 710.53125 485.277344 701 520 700.015625 C 623.558594 697.476563 745.269531 750.597656 785 853 C 775.253906 844.480469 768.589844 831.679688 759.828125 822 C 739.976563 800.058594 717.398438 779.773438 692 764.449219 C 603 710.757813 493.449219 704.753906 398 744.773438 C 375.167969 754.347656 354.964844 767.269531 335 782 C 327 787.640625 316.855469 793.046875 311 801 C 329.789063 795.472656 348 779.652344 366 771.0625 C 371 768.636719 380.171875 762 385.851563 762.289063 C 389.75 762.566406 390 770.140625 390.871094 773 C 393.28125 782.628906 395 792.300781 397 802 C 397.796875 805.171875 399.179688 810.507813 396.398438 813.066406 C 390.316406 818.65625 374.839844 818.507813 367 821 C 346 827.164063 327 837.21875 309 849.496094 C 302.898438 853.640625 293.609375 857.40625 290 864 C 299.222656 861.34375 307.675781 856.371094 317 853.710938 C 341.476563 846.726563 367.589844 843 393 843 L 393 844 C 379.398438 848.535156 367.210938 856.148438 354 861.546875 C 322.554688 874.398438 291.957031 887.152344 266 909.71875 C 255.308594 919.011719 239.648438 929.660156 234 943 C 244.851563 938.410156 254.324219 929.644531 265 924.269531 C 296.578125 908.367188 331.433594 894 366 886 C 357.578125 893 346.921875 897.0625 338 903.425781 C 316.960938 918.4375 291.6875 943 281 967 C 288 964 293 957.21875 299 952.324219 C 307.359375 945.359375 316.554688 939.261719 326 934 C 367.570313 910.15625 417.214844 898 465 898 L 465 900 C 447 901.464844 427.332031 910 411 917.140625 C 370.824219 935 335.78125 957.519531 304.960938 989.015625 C 292 1002.210938 270.625 1023.199219 267 1042 C 281.285156 1032 294 1020.347656 309 1011.0625 C 334 995.488281 363.3125 986 392 979.347656 C 403.460938 976.742188 415.171875 973.097656 427 973 L 427 974 C 361.589844 987.535156 321.730469 1039.03125 278.910156 1085 C 268.796875 1096 258.496094 1106.503906 248 1117 C 243.339844 1121.660156 235.890625 1126.558594 234 1133 C 263.847656 1122.820313 295.882813 1106 320 1085.5625 C 357 1054.292969 387.355469 1015 431 992 C 400.898438 1019.644531 369 1044.359375 343.886719 1077 C 321.195313 1106.34375 307.242188 1141.339844 283.476563 1169.828125 C 269 1187.015625 247 1196.449219 233 1213 C 262.65625 1212.753906 295.984375 1202.148438 321 1186.574219 C 340 1174.710938 356.5625 1159.59375 375 1147 C 364 1166.003906 343.414063 1181.515625 327 1195.71875 C 320 1201.773438 309.992188 1207.441406 306 1216 C 312.425781 1216.019531 318.710938 1217.40625 325 1215.367188 C 346.992188 1208.230469 364.984375 1187.152344 385 1176 C 376.199219 1184.800781 367.671875 1194 357.984375 1201.804688 C 351.730469 1207 342.695313 1211.703125 339 1219 C 372 1219.273438 406.992188 1227 440 1231 C 513.378906 1239.652344 587.296875 1252.054688 658 1274.027344 C 698 1286.46875 736.277344 1303.113281 775 1319 L 775 1320 C 719.703125 1308.554688 666 1288.289063 611 1275.652344 C 554.285156 1262.652344 496.582031 1255 439 1247.714844 C 393.308594 1242.03125 346.980469 1236.054688 301 1234.039063 C 247.40625 1231.691406 193.355469 1234.8125 140 1240.167969 C 118.226563 1242.355469 96.742188 1248.28125 75 1250 L 75 1252 C 96.308594 1252 117.71875 1255.027344 139 1256 C 178.644531 1257.695313 218.398438 1256.328125 258 1256 C 246.300781 1269.480469 223.710938 1277.675781 215 1293 C 245.449219 1284.210938 268.414063 1258.152344 301 1256 C 305.359375 1255.609375 324.308594 1251.6875 327 1255.03125 C 328.664063 1257 325.285156 1260.601563 324.253906 1262 C 319.867188 1268 314.785156 1273.523438 309.828125 1279 C 294.425781 1296.027344 275.632813 1308.722656 257 1322 C 251.550781 1325.695313 237.652344 1332 235.347656 1338.410156 C 234.285156 1341.398438 241 1344.4375 243 1345.71875 C 253.480469 1353 259.828125 1341.503906 269 1336 C 281.398438 1328.351563 295.707031 1325.476563 308 1317.769531 C 330 1304 349.445313 1285.722656 371 1271 C 360.863281 1285.386719 344.871094 1297.15625 331 1307.765625 C 324.652344 1312.621094 314.269531 1318 312 1326 C 322.230469 1324.707031 331.472656 1330.421875 341 1329.242188 C 371.730469 1325.433594 402 1317 433 1313.285156 C 496.542969 1305.660156 562.238281 1304 626 1310.171875 C 658.789063 1313.34375 692 1317.5 724 1326 C 745.695313 1331.582031 770.671875 1343 793 1344 L 793 1346 C 767.839844 1345.476563 742 1338.6875 717 1336.171875 C 646.84375 1329.128906 576.519531 1322.082031 506 1327 C 482.289063 1328.535156 454.945313 1326.214844 432 1333 L 432 1334 C 449.875 1334.367188 467.816406 1342.753906 482 1353.15625 C 487.832031 1357.433594 496.863281 1369.722656 504 1370.355469 C 516.296875 1371.449219 532.582031 1366 545 1364.28125 C 572.941406 1360.640625 600.929688 1358.011719 629 1356.089844 C 659 1354.03125 690 1354.3125 720 1357.171875 C 738.976563 1359 757.980469 1363.183594 777 1364 L 777 1365 C 765.875 1367.648438 753.386719 1365.734375 742 1366.015625 C 723 1366.480469 703.914063 1367.792969 685 1369.089844 C 646.914063 1371.699219 608.941406 1375.109375 571 1379.175781 C 553.65625 1381.03125 536.320313 1385.488281 519 1387 C 521.546875 1394.683594 527.789063 1401 531.6875 1408 C 538 1419.527344 542.949219 1431.695313 547.574219 1444 C 548.953125 1447.664063 550.816406 1462 554.589844 1463.265625 C 558.519531 1464.714844 568.246094 1457.761719 572 1456.148438 C 589.25 1448.742188 606.425781 1441.3125 624 1434.683594 C 666.765625 1418.554688 710.742188 1404.59375 756 1397.574219 C 773.566406 1395 794.300781 1390.078125 812 1393 L 812 1394 C 746.554688 1402.277344 681.28125 1428.699219 621 1454.421875 C 606.453125 1460.628906 592.492188 1468.097656 578 1474.425781 C 572.820313 1476.683594 562 1480.476563 559 1485.390625 C 556.789063 1489 559 1496.042969 559.574219 1500 C 560.761719 1509 561.648438 1518.109375 560 1527 C 567.402344 1525.078125 574.527344 1519.109375 581 1515.050781 C 593.207031 1507.394531 605.488281 1500 618 1493 C 653.308594 1472.707031 690.472656 1456.554688 729 1443.667969 C 743.9375 1438.671875 760.226563 1431.375 776 1430 L 776 1431 C 713.75 1452.058594 653.359375 1488.011719 599 1524.332031 C 585 1533.578125 560.90625 1544.222656 558.714844 1562 C 558.3125 1565.265625 556 1572.507813 558 1575.398438 C 559.972656 1578.109375 566.203125 1577 569 1577 L 822 1577 C 834.507813 1577 850.984375 1574 863 1576.53125 C 876.269531 1579.421875 889 1589.214844 902 1594 C 929.734375 1604.113281 960.425781 1610.644531 990 1611 C 1021.40625 1611.371094 1054 1608 1084 1598 C 1100.660156 1592.519531 1117 1581 1134 1577.390625 C 1142 1575.664063 1151.71875 1577 1160 1577 C 1178.34375 1577 1196.703125 1577.28125 1215 1576.375 C 1245.972656 1575 1277.898438 1577 1309 1577 C 1332.222656 1577 1356.984375 1574.449219 1380 1576.464844 C 1394.222656 1577.707031 1408.71875 1577 1423 1577 C 1426.296875 1577 1435.75 1578.613281 1437.800781 1575.398438 C 1439.550781 1572.660156 1437.300781 1567.019531 1437 1564 C 1435.695313 1544.199219 1415.652344 1535 1401 1524 C 1350 1485.347656 1294.566406 1453.101563 1235 1430 L 1235 1429 C 1288.773438 1442 1339 1463.542969 1386 1493 C 1398.324219 1500.679688 1410.472656 1508.765625 1422 1517.652344 C 1424.238281 1519.378906 1431.234375 1527.042969 1434.308594 1525.65625 C 1436.238281 1524.785156 1435.949219 1506 1435.996094 1503 C 1436 1496.019531 1441.230469 1484.441406 1439.292969 1478.105469 C 1438.179688 1474.464844 1433 1472.570313 1430 1471 C 1421.78125 1466.15625 1413.511719 1461.40625 1405 1457.257813 C 1357.808594 1434.257813 1308.441406 1416.449219 1258 1402.089844 C 1234 1395.261719 1206 1385.515625 1181 1385 L 1181 1383 C 1247 1383 1308.453125 1399.320313 1370 1422.53125 C 1387.945313 1429.300781 1405.867188 1437.648438 1423 1446.269531 C 1427.285156 1448.425781 1438.6875 1457.328125 1443.410156 1456.117188 C 1446.515625 1455.324219 1449.523438 1441.0625 1450.683594 1438 C 1456.566406 1422.453125 1464.726563 1406.511719 1474.429688 1393 C 1476.941406 1389.5 1486.734375 1381.53125 1479.925781 1378.386719 C 1456.894531 1367.757813 1424.914063 1367.503906 1400 1365 C 1340.371094 1358.449219 1279.988281 1356 1220 1356 L 1220 1355 C 1278 1344.164063 1338 1340.539063 1397 1346.171875 C 1419.839844 1348.351563 1442.441406 1352.347656 1465 1356.425781 C 1474.308594 1358.105469 1486.660156 1363.144531 1495.960938 1362.589844 C 1502 1362.226563 1509.238281 1354 1514 1350.578125 C 1524.667969 1343 1537.25 1335.773438 1550 1332.289063 C 1568.652344 1327.191406 1584.921875 1329.429688 1602 1338.257813 C 1607.21875 1341 1614.59375 1349.664063 1620 1350.367188 C 1622.433594 1350.6875 1636.539063 1341.613281 1637 1339 C 1637.714844 1335.714844 1617.886719 1333 1615 1332.398438 C 1590.996094 1327.566406 1567.257813 1322.730469 1543 1319.269531 C 1472.597656 1309.234375 1400.824219 1308.238281 1330 1313.089844 C 1297.59375 1315.308594 1264.347656 1324 1232 1324 L 1232 1323 C 1243.566406 1321.292969 1254.847656 1316.117188 1266 1312.722656 C 1284.660156 1307.039063 1303.730469 1302.53125 1323 1299.4375 C 1405.199219 1286.234375 1496.503906 1289.660156 1578 1306.335938 C 1604.96875 1312 1631.96875 1321.261719 1659 1325.675781 C 1665.527344 1326.742188 1671.574219 1324.164063 1678 1324.511719 C 1679.734375 1324.605469 1683.738281 1325.652344 1684.652344 1323.398438 C 1686.226563 1319.527344 1674.410156 1312.21875 1672 1310 C 1657.265625 1296.25 1642.738281 1282.738281 1629 1268 C 1651 1282.605469 1668.554688 1304 1690 1319.511719 C 1697.875 1325.230469 1707.371094 1328 1716 1332.246094 C 1723.984375 1336.238281 1734.9375 1347.113281 1744 1347.230469 C 1749.367188 1347.300781 1757 1343.257813 1762 1341 C 1753.722656 1329.785156 1738.1875 1321.511719 1727 1313.265625 C 1712.757813 1302.769531 1699.789063 1290.429688 1688.300781 1277 C 1683.464844 1271.347656 1679.191406 1265.039063 1674.851563 1259 C 1673.816406 1257.558594 1670.324219 1254 1671.90625 1252.027344 C 1675.359375 1247.769531 1696.242188 1251.558594 1701 1252.761719 C 1729.335938 1260 1751.238281 1288 1780 1293 C 1767.472656 1276.628906 1746.660156 1266.664063 1733 1251 L 1922 1250 C 1919.417969 1246 1914.460938 1246.050781 1910 1245.195313 C 1899.726563 1243.230469 1889.359375 1241.4375 1879 1240 C 1835.523438 1234 1791.871094 1231.003906 1748 1231 C 1568.503906 1231 1385.921875 1237.453125 1216 1303 C 1223.734375 1294.628906 1237.742188 1290.675781 1248 1286.140625 C 1272 1275.460938 1296.617188 1265.007813 1322 1257.574219 C 1397.292969 1235.527344 1473 1224.582031 1551 1217.171875 C 1576 1214.78125 1601.808594 1214.140625 1627 1213.039063 C 1637.523438 1212.578125 1649.867188 1214.792969 1660 1212 C 1646.886719 1194.183594 1626.523438 1181.75 1613 1164 C 1626.851563 1172.65625 1639.742188 1184.511719 1652 1195.285156 C 1657.992188 1200.550781 1664.300781 1208.222656 1672 1211 C 1678.222656 1213.191406 1685.542969 1211.003906 1692 1211 C 1689.375 1205.660156 1684.167969 1202.046875 1680.238281 1197.675781 C 1671.714844 1188.1875 1663.375 1178.617188 1655 1169 C 1667 1177.488281 1677.597656 1188 1691 1194.628906 C 1715.378906 1207 1740.941406 1207.625 1767 1213 C 1763 1206.5 1754 1203.515625 1748 1199.113281 C 1735.628906 1190.054688 1724.273438 1180.699219 1714.300781 1169 C 1690.585938 1141.1875 1677.695313 1105.535156 1654.539063 1077 C 1637.558594 1056.070313 1618.238281 1037.78125 1599 1019.015625 C 1591.628906 1011.824219 1582.28125 1006.214844 1576 998 C 1608.523438 1015.382813 1633.730469 1045 1660 1070 C 1688.628906 1097.335938 1723 1122.371094 1762 1133 C 1759 1126.78125 1752.804688 1122.777344 1748 1118 C 1737.867188 1108 1727.699219 1097.769531 1718.289063 1087 C 1696.582031 1062.152344 1676.9375 1035.582031 1651 1014.808594 C 1626 995 1598 982.625 1568 973 L 1568 972 C 1607.335938 977 1648.5 989 1683 1008.570313 C 1698.90625 1017.667969 1712.765625 1033.441406 1729 1041 C 1723.925781 1023.757813 1707.878906 1007.117188 1696 994 C 1664.183594 958.183594 1623.289063 932.671875 1579 914.800781 C 1563.777344 908.65625 1546.644531 900.726563 1530 900 L 1530 899 C 1540.679688 896.457031 1553 899.117188 1564 900 C 1604.449219 903 1645 917.816406 1679 939.699219 C 1692.371094 948.3125 1703.410156 961.144531 1717 969 C 1713.390625 960.449219 1706.425781 952.414063 1700.871094 945 C 1686.203125 925.410156 1668 904.640625 1645 895 L 1645 894 C 1687.917969 897.503906 1725.304688 923.464844 1762 943 C 1756 930.355469 1741.386719 920 1731 911 C 1705.453125 889 1675.445313 875.457031 1645 861.695313 C 1632.492188 856.039063 1620.882813 847.6875 1608 843 L 1608 842 C 1633.699219 842.53125 1661.203125 848.792969 1686 855.285156 C 1693 857.121094 1698.933594 861.738281 1706 863 C 1690.183594 842.378906 1656.175781 829.503906 1632 822.558594 C 1623.382813 820.082031 1608.613281 821 1601.320313 815.824219 C 1597.949219 813.507813 1599.652344 808.328125 1600 805 C 1601.621094 794.640625 1603.75 784.339844 1605.410156 774 C 1605.863281 771.1875 1605.613281 763.738281 1609.304688 763 C 1614.535156 762 1624.273438 768.753906 1629 771 C 1647.648438 779.171875 1665.796875 794 1685 800 C 1677.75 790.527344 1664.847656 783.308594 1655 776.671875 C 1630.609375 760.226563 1605.945313 746.738281 1578 737.332031 C 1468.714844 700.554688 1339.597656 719.402344 1256 803 C 1240.378906 818.621094 1221.59375 835.722656 1212 856 L 1211 856 C 1223.863281 811.34375 1266.816406 770.640625 1305 747.1875 C 1400 688.78125 1511.339844 686 1609 740 C 1614.4375 722.804688 1615.359375 703 1617.871094 685 C 1618.476563 680.679688 1621.964844 670.207031 1619.878906 666.414063 C 1616 659.5625 1596 655.066406 1589 652.667969 C 1556 641.617188 1516.605469 636.199219 1482 640.285156 C 1396.632813 650.363281 1318.300781 689.222656 1257.984375 750.808594 C 1239 770.09375 1223.929688 792.324219 1212.929688 817 C 1209.195313 825.378906 1203.921875 834.804688 1203 844 L 1201 844 C 1201.214844 818.0625 1213.335938 789 1224.753906 766 C 1253.515625 708.476563 1302.886719 661.535156 1360 632.257813 C 1375.808594 624.15625 1392.449219 619.171875 1409 613 C 1403.742188 618.316406 1395.625 620.601563 1389 624 C 1379.351563 628.617188 1370.214844 634.273438 1361 639.800781 C 1333.539063 656.277344 1308.609375 676.382813 1286 699 C 1274.753906 710.25 1261.867188 723.484375 1255 738 C 1272.597656 725.605469 1287.605469 708.546875 1305 695.476563 C 1355 657.832031 1421 624 1485 621.039063 C 1520.917969 619.464844 1555.683594 621.054688 1589 636.308594 C 1597.179688 640.054688 1605 644 1613 648.328125 C 1615.21875 649.578125 1619.613281 653.160156 1621.972656 650.378906 C 1623.84375 648.171875 1622.921875 643.65625 1623 641 C 1623.195313 637.445313 1624.980469 632.695313 1623.394531 629.300781 C 1620.996094 624.171875 1607 622.660156 1602 621.5 C 1566.175781 613.234375 1530.636719 606 1494 603 L 1494 602 C 1521 600 1545.171875 601.054688 1572 605 L 1572 604 C 1551.855469 592.648438 1523.738281 588.140625 1501 585.832031 C 1449 580.5625 1390.890625 574.753906 1341 594 C 1351.625 581.175781 1375.558594 575 1391 570.117188 C 1432 557.480469 1474.878906 556.566406 1517 564.460938 C 1532.476563 567.359375 1546.800781 575.382813 1562 578 C 1557.496094 570.632813 1545.40625 566.695313 1538 562.691406 C 1511.246094 548.222656 1482.621094 541.503906 1453 536 L 1453 535 C 1485.246094 535 1514.882813 537.546875 1546 546.425781 C 1558 550 1569 559.691406 1581 562 C 1571 549 1552.980469 539.503906 1538 533.402344 C 1498.828125 517.453125 1450.789063 513.269531 1409 518.285156 C 1395.292969 520 1382.476563 525.011719 1369 527 L 1369 526 C 1407.359375 510.03125 1442.765625 502.820313 1484 498.828125 C 1499.46875 497.332031 1515.363281 493.679688 1531 495.171875 C 1548.292969 496.816406 1562.527344 504.089844 1579 508 L 1579 509 C 1569.265625 509.652344 1559.488281 506.175781 1550 504.464844 C 1534.59375 501.683594 1518.640625 500 1503 500 L 1503 502 C 1524.84375 505 1549.230469 512.019531 1569 521.757813 C 1575.335938 525 1586.65625 529 1587 537 C 1584.398438 535.285156 1581.945313 534.007813 1579 533 C 1582 540.136719 1588.328125 545.003906 1589.675781 553 C 1590.53125 558.097656 1587.25 567.597656 1589.730469 571.699219 C 1594 579 1604.359375 585.414063 1610 592 C 1613.269531 595.539063 1620.34375 608.195313 1624.890625 609.078125 C 1627.746094 609.632813 1628.847656 591.578125 1629 589 C 1630 573 1631.320313 556.015625 1633.425781 540 C 1634 535.089844 1636.546875 522.617188 1633.957031 518.394531 C 1631.34375 514.128906 1622.457031 512.359375 1618 510.832031 C 1604 506.078125 1589.90625 502.4375 1576 497.832031 C 1550.3125 489.332031 1526.5625 476.40625 1500 470.234375 C 1467.4375 462.671875 1436.773438 465.730469 1404 466 L 1404 465 C 1415.710938 463 1427.347656 456.808594 1439 453.734375 C 1460.394531 448.09375 1483.90625 445.566406 1506 447.089844 C 1543 449.636719 1577.324219 467.441406 1609 485.503906 C 1617.839844 490.542969 1625.796875 497.722656 1635 502 C 1635 433 1625.78125 364.113281 1605 298 C 1600 282.304688 1594 266.699219 1586.753906 252 C 1583.382813 245.304688 1579.453125 238 1572 235.132813 C 1563 231.828125 1552.324219 236.230469 1544 239.605469 C 1520.941406 249 1500.445313 264.707031 1481 280 C 1435.191406 315.632813 1395.890625 359.292969 1355.824219 401.089844 C 1325.386719 433 1291.339844 464.726563 1266.203125 501 C 1230.578125 552.410156 1220 621.59375 1210.703125 682 C 1203 731.375 1191.398438 780.4375 1185 830 L 1184 830 C 1184 742 1198.964844 654 1221.734375 569 C 1229 541.402344 1237.789063 514.042969 1247 487 C 1250 478 1255.878906 469.273438 1258 460 C 1250.46875 466.132813 1246.894531 476 1241.9375 484 C 1232.714844 499.121094 1225.347656 515.078125 1217.640625 531 C 1213.886719 538.757813 1208.820313 546.511719 1207 555 L 1206 555 L 1208 535 C 1202.84375 538.238281 1200 549.140625 1199 555 L 1198 555 C 1196.242188 545.488281 1198.980469 535.4375 1200.566406 526 C 1204.53125 502.34375 1213 480.320313 1218 457 L 1217 457 C 1205.664063 478.542969 1197 501.601563 1190.421875 525 C 1187.382813 535.664063 1185.796875 554 1178 562 C 1178 544.546875 1178.582031 528.363281 1180 511 C 1175 514.632813 1173.566406 523.425781 1171.46875 529 C 1164.453125 547.613281 1162.734375 566.328125 1160.828125 586 C 1153.8125 658.527344 1161 731.433594 1161 804 L 1160 804 C 1147.597656 765 1146.734375 722.507813 1144.960938 682 C 1143.597656 651 1146.222656 620.09375 1146.984375 589 C 1147.34375 574.433594 1143.796875 559.417969 1145.171875 545 C 1146.550781 530.46875 1151.902344 517.203125 1154 503 L 1153 503 C 1146.820313 513.265625 1141.746094 524 1137 535 C 1134.613281 540.53125 1133.269531 547.722656 1129 552 C 1129 550.808594 1130.449219 545.203125 1128 545.207031 C 1125.644531 545.210938 1124 552.25 1123.425781 554 C 1119.949219 563.328125 1118 573.054688 1118 583 C 1108.667969 574.476563 1104.242188 556 1100.859375 544 C 1099.667969 539.808594 1099.203125 531 1096.171875 527.753906 C 1093.203125 524.683594 1090.90625 538.34375 1090.613281 540 C 1088.457031 552.210938 1088 567 1091 579 C 1078.6875 571.578125 1077.808594 549.214844 1065 542 C 1065 557.148438 1067.355469 572 1068 587 C 1060.25 577.640625 1051.929688 556 1040 552 C 1043.449219 562.601563 1042 573.730469 1045 584 C 1040 579.578125 1037 573 1031 570 C 1032 575.308594 1034.925781 580.011719 1037 585 C 1030.570313 579.269531 1024.855469 572.046875 1018 567 C 1018.847656 572.65625 1022 577.414063 1023 583 L 1022 583 C 1017.984375 576.234375 1010.40625 569.511719 1004 565 L 1007 576 C 1004.246094 572.648438 1000.921875 560.792969 997.453125 559.347656 C 994.425781 558.082031 986 572.632813 984 575 L 986 563 L 985 563 C 980 570.226563 975.171875 576.8125 969 583 C 969.3125 580 970.199219 577.027344 971 574 C 968 575.453125 966.210938 577.640625 964 580 C 965.195313 577 966.535156 574.265625 967 571 C 961.195313 575.085938 956.242188 580.324219 952 586 C 950.757813 574.804688 954.523438 562.824219 957 552 C 944.234375 558.464844 937.386719 575.71875 928 586 C 929.933594 571.042969 931.910156 557.117188 930 542 L 929 542 C 921.644531 554.472656 912.605469 566.609375 907 580 L 906 580 C 906 566 907.761719 552.121094 905 538 C 904.636719 536.136719 903 524.628906 899.46875 526.347656 C 896.464844 527.792969 894.933594 540.777344 894.207031 544 C 891.257813 557.117188 886.230469 575.316406 878 586 C 877 565.011719 866.796875 546.640625 858.304688 528 C 854.796875 520.300781 851.628906 510.492188 845 505 C 850.558594 529.03125 854 548.210938 853 573 L 852 573 C 849.382813 560.347656 844.183594 548.289063 838 537 L 837 537 C 837.824219 556 843.90625 576 845.832031 595 C 850.4375 641 851.460938 687 848 733 C 846.933594 748.742188 844.5 764.421875 841.921875 780 C 840.914063 786.058594 841 794.257813 837 799 C 837 728.78125 842 656.515625 829.535156 587 C 825.878906 566.699219 818.566406 548.296875 811.691406 529 C 804.851563 509.800781 797.804688 490.554688 789.339844 472 C 786.339844 465.425781 783.34375 455 777 451 C 789.308594 484.007813 795.605469 519.546875 802 554 C 795.792969 548.324219 794.480469 538.101563 790 531 L 789 531 C 789 537.453125 790.492188 543.601563 791 550 L 790 550 C 779.6875 527.199219 768.441406 504.144531 755 483 C 750.457031 475.738281 745.847656 464.011719 738 460 C 742 472 748.632813 483 752.644531 495 C 788.265625 602.257813 815 716.554688 815 830 C 811.210938 822.257813 811 812.445313 809.574219 804 C 806.570313 787.328125 803.503906 770.65625 800.390625 754 C 788 688.617188 780.964844 619.785156 757.945313 557 C 751.445313 539.269531 744.332031 521 733.921875 505 C 716.757813 479 693 456.625 672 433.714844 C 641.867188 401 610.890625 369.09375 579 338 C 548 307.824219 516.21875 276.679688 479 254.203125 C 465.722656 246.1875 449.792969 235.789063 434 234.175781 C 413.175781 232.046875 404.40625 263 398.578125 278 C 378.847656 329.347656 371.691406 383 364.574219 437 C 362.515625 452.640625 361.191406 469.234375 361 485 C 360.96875 488 359.359375 499 362 500.824219 C 364.746094 502.707031 376.359375 492.394531 379 490.691406 C 396.566406 479.378906 414.960938 470 434 461.3125 C 485.773438 438.039063 538.429688 447.445313 590 465 M 485 438 L 485 439 C 470.320313 442 455.523438 444 441 447.472656 C 431.1875 450 421.171875 454.761719 411 455 C 426 438.609375 464.171875 433.039063 485 438 M 1584 454 L 1584 455 C 1571.753906 454.371094 1558.984375 448.523438 1547 445.746094 C 1533.867188 442.703125 1520.261719 441.5 1507 439 C 1512 435.535156 1520 437 1526 437 C 1546.476563 437.007813 1566.449219 443.757813 1584 454 M 587 612 L 586 613 L 587 612 M 1643 893 L 1642 894 L 1643 893 M 716 963.285156 C 799 953.085938 876.433594 1048.636719 833.410156 1126 C 828 1135.597656 821.730469 1145.015625 813.828125 1152.714844 C 792.785156 1173.226563 766.59375 1182.328125 738 1185.714844 C 724.914063 1187.261719 709.449219 1184.476563 697 1180.503906 C 610 1152.765625 589.496094 1032.085938 667 980.667969 C 681.503906 971.046875 698.773438 965.402344 716 963.285156 M 1251 963.285156 C 1294.429688 958 1339 978.210938 1361.546875 1016 C 1391.851563 1067 1374 1138.019531 1324 1169 C 1309.902344 1177.636719 1293.359375 1182.699219 1277 1184.714844 C 1260.394531 1186.761719 1244 1185.445313 1228 1180.707031 C 1214 1176.621094 1201.496094 1169.640625 1190 1161 C 1181.90625 1155 1175.445313 1147.1875 1169.578125 1139 C 1121.5625 1072 1170.539063 973.167969 1251 963.285156 M 720 969.527344 C 667.382813 981.417969 665.40625 1061.074219 683.78125 1100 C 694.363281 1122.414063 714.53125 1141 741 1135.332031 C 793.871094 1124.117188 801.421875 1046.070313 781.972656 1006 C 770.523438 982.414063 747.652344 963.28125 720 969.527344 M 1247 969.464844 C 1190.519531 979.648438 1190.984375 1062.757813 1211.78125 1102 C 1222.929688 1123.03125 1242.890625 1140.019531 1268 1135.714844 C 1288.441406 1132.210938 1302.347656 1115.40625 1309.800781 1097 C 1321.980469 1067 1321.5625 1032.058594 1306 1003 C 1294.316406 981 1272.898438 964.796875 1247 969.464844 M 1576 998 C 1574.6875 997.230469 1574.769531 997.3125 1574 996 C 1575.636719 996.546875 1575.453125 996.363281 1576 998 M 763 1008.726563 C 791.804688 1008.367188 794.347656 1061.226563 766 1062 C 737.644531 1062.664063 735.746094 1009.066406 763 1008.726563 M 1286 1008.332031 C 1314.726563 1003.535156 1320.867188 1057.382813 1293 1061.695313 C 1264 1066.179688 1258 1013.007813 1286 1008.332031 M 855 1106 C 863.449219 1129.21875 873.914063 1149.289063 859 1173 L 858 1173 C 858 1156.203125 855 1139.726563 855 1123 C 855 1117.800781 853.507813 1111 855 1106 M 1140 1106 C 1139.984375 1129.417969 1136.984375 1152.613281 1137 1176 C 1132.792969 1173 1131.449219 1166 1130 1161 C 1125.269531 1144.523438 1127.894531 1119.046875 1140 1106 M 1061 1160 C 1062.460938 1194 1066.785156 1230.652344 1073.601563 1264 C 1076.78125 1279.566406 1085.953125 1295.039063 1086 1311 L 1085 1311 C 1062.21875 1277.644531 1021.949219 1289.816406 988 1289 C 970.496094 1288.558594 953.308594 1284.460938 936 1289.773438 C 924.476563 1293.3125 918.929688 1300.800781 910 1308 C 910.316406 1293.183594 919.253906 1278.738281 921.714844 1264 C 926.585938 1235 926.179688 1203.632813 933 1175 L 934 1175 C 936.285156 1204 940.273438 1236.175781 938 1265 C 944.691406 1258.6875 948.589844 1248.046875 953 1240 L 954 1240 C 955.546875 1243.085938 956 1255.566406 958.417969 1256.792969 C 960.503906 1258 962.628906 1253.253906 963.335938 1252 C 966.355469 1246.628906 967.488281 1240 971 1235 C 974.394531 1242.015625 973.242188 1249.613281 975 1257 C 976.976563 1254.609375 983.433594 1238.207031 984.988281 1238.207031 C 988 1238.207031 987.9375 1250.636719 991.277344 1248.792969 C 994 1247.285156 995 1227.675781 998.71875 1229.347656 C 1005.660156 1232.605469 1002.886719 1252.128906 1008 1258 C 1008 1250.300781 1010.503906 1238.3125 1015 1232 C 1018.402344 1240.59375 1021.359375 1250.632813 1027 1258 C 1027.941406 1250.546875 1026.726563 1241.804688 1030 1235 C 1036 1243 1038 1253.6875 1045 1261 C 1045 1255.492188 1045.953125 1250.386719 1047 1245 C 1051.785156 1249.164063 1054.578125 1256.183594 1057 1262 L 1058 1262 C 1063.21875 1229.203125 1059 1193.148438 1059 1160 L 1061 1160 M 1613 1163 L 1612 1164 L 1613 1163 M 385.667969 1174.667969 C 385.722656 1174.722656 385.777344 1175.777344 385.332031 1175.332031 C 385.277344 1175.277344 385.222656 1174.222656 385.667969 1174.667969 M 372 1270 L 371 1271 L 372 1270 M 998 1366 C 993.433594 1374.558594 999 1390 992.976563 1397.394531 C 988.636719 1402.640625 977.582031 1394 974.679688 1390.699219 C 962.375 1377.011719 973 1355.667969 962.601563 1341.289063 C 958.894531 1336.175781 947.742188 1329 941.191406 1333.027344 C 938.382813 1334.785156 940.203125 1339.703125 936.808594 1340.089844 C 925.824219 1341.34375 913.90625 1330 916.394531 1319 C 919 1307.101563 935.476563 1302.8125 946 1302.089844 C 964.21875 1301 981.886719 1306.078125 1000 1306 C 1016.257813 1306 1031.597656 1300.582031 1048 1302.71875 C 1058 1304.027344 1073.9375 1307.550781 1077 1319 C 1079.699219 1328.804688 1069.820313 1338.039063 1061 1340 C 1052.765625 1341.582031 1057.957031 1336.269531 1053.640625 1333.179688 C 1048.246094 1329.316406 1038.167969 1334.570313 1034.183594 1338.328125 C 1020.691406 1351.054688 1030.382813 1371.832031 1023.441406 1387 C 1021 1392.222656 1008 1406 1002 1397.679688 C 997.5625 1391.414063 998 1373.714844 998 1366 M 367 1344 C 373.460938 1353.054688 380 1348.378906 386 1341 C 380.230469 1340.613281 372.570313 1342.339844 367 1344 M 250 1391 L 249 1391 C 240.394531 1355.292969 197.253906 1344.105469 167 1361.617188 C 160.320313 1365.480469 154.382813 1370.003906 149.464844 1376 C 146.871094 1379.160156 144.449219 1385 140.675781 1386.800781 C 137 1388.519531 131 1387.035156 127 1387.804688 C 115.472656 1390.011719 101 1395.203125 93 1404 C 104.390625 1404.761719 137.386719 1396.136719 139.339844 1417 C 139.644531 1420.28125 137 1422.265625 133.984375 1422 C 116.511719 1420.011719 103.195313 1414.527344 87 1426.480469 C 60.832031 1445.792969 52.203125 1480.117188 50 1511 C 49.429688 1520.664063 50 1530.402344 51 1540 C 51.496094 1543.089844 53.503906 1548.714844 51.226563 1551.398438 C 48.730469 1554.339844 41.425781 1553 38 1553 L 11 1553 C 8.421875 1553 3 1552.011719 1 1554.027344 C -1.363281 1556.417969 0 1564 0 1567 C 0 1570.492188 -0.484375 1574.40625 0 1578 C 1.214844 1583.652344 19.285156 1581 24 1581 C 33.5625 1581 52.480469 1577.363281 60.894531 1582.027344 C 65.910156 1584.808594 69.855469 1594.226563 73 1599 C 66.980469 1599.050781 61 1600 55 1600.003906 C 54.175781 1600.019531 49.332031 1599.816406 49.921875 1601.714844 C 50.664063 1604.113281 59 1603.007813 61 1603 C 65.890625 1603 71.183594 1601.335938 76 1602.394531 C 83.378906 1604.015625 89.679688 1610 97 1612.253906 C 100.988281 1613.527344 115.742188 1613 112.378906 1620.683594 C 110.910156 1624.03125 103 1623.824219 100 1624 C 87.621094 1624.503906 75.355469 1625.0625 63 1626 C 60.867188 1626.054688 46.878906 1624.667969 48.753906 1629.453125 C 49.632813 1631.707031 54.175781 1631 56 1631.015625 C 62.515625 1631.1875 69.535156 1631.574219 76 1632.425781 C 84.882813 1633.589844 94 1633 103 1633 C 106.488281 1633 111.648438 1632.101563 114.492188 1634.601563 C 119 1638.585938 120.574219 1647 124 1652 C 105.433594 1656.421875 84.910156 1652.484375 66 1654.714844 C 62.902344 1655.078125 48.636719 1653.171875 48.636719 1658 C 48.636719 1660.792969 53 1660.789063 55 1661 C 62 1661.316406 68.96875 1661.160156 76 1661.828125 C 92.253906 1663.378906 112.378906 1657.824219 128 1662.515625 C 135.546875 1664.777344 147.59375 1676.144531 153 1682 C 127.960938 1679.394531 98 1679.777344 73 1682.171875 C 66.621094 1682.777344 60.394531 1682.738281 54 1683.019531 C 52.515625 1683.085938 48 1683.226563 48.632813 1685.816406 C 49.226563 1688.425781 54.679688 1687.601563 56.574219 1687.71875 C 65.703125 1688.28125 74.886719 1687.464844 84 1688.089844 C 111.617188 1690 139.394531 1689.019531 167 1691 C 174.628906 1691.433594 191.367188 1688.757813 197.773438 1692.117188 C 202.695313 1694.699219 205.75 1708.8125 198.941406 1710.683594 C 184.183594 1714.734375 163.339844 1711 148 1711 C 115.273438 1711 82.621094 1713 50 1713 L 50 1714 C 61 1717.273438 75.460938 1715 87 1715 L 163 1715 C 173.320313 1715 183.746094 1714.5 194 1715.714844 C 196.898438 1716.058594 201 1715.34375 203.398438 1717.601563 C 208.398438 1722.605469 205.824219 1741.484375 205 1748 C 212.964844 1745.664063 219.203125 1735.128906 222.691406 1728 C 224.738281 1723.816406 226.277344 1717.476563 231 1715.601563 C 238.839844 1712.546875 251.664063 1715.042969 260 1715 C 263.253906 1715 267.289063 1713.753906 270.425781 1714.589844 C 281.230469 1717.472656 289.441406 1725.320313 301 1727.246094 C 305.648438 1728.019531 324.488281 1724.71875 326.3125 1727.292969 C 335.445313 1740.175781 324.878906 1759.417969 322 1772 C 355.351563 1754.175781 371.34375 1716.355469 381 1682 C 389.605469 1690.421875 398.746094 1696 411 1696 C 414.695313 1696.007813 430.84375 1692.269531 432.820313 1694 C 436.457031 1697.128906 434.703125 1709.386719 429.941406 1710.683594 C 418.570313 1713.78125 402.796875 1711 391 1711 C 385.4375 1711 379 1709.769531 375 1714 C 387.476563 1717.6875 403.996094 1715 417 1715 C 420.613281 1715 429.457031 1713.398438 431.972656 1716.601563 C 434.257813 1719.519531 432.203125 1725.761719 431.550781 1729 C 429 1741.367188 421.734375 1752.046875 419 1764 C 433.257813 1758.632813 445.933594 1748.03125 455 1736 C 459.515625 1730.203125 464.511719 1717.222656 472 1715.316406 C 480 1713.261719 490.65625 1715 499 1715 L 790 1715 C 798.605469 1715 808.71875 1716.449219 817 1714 L 817 1713 C 701.757813 1713 586.378906 1711 471 1711 C 476.472656 1699.296875 478.976563 1683.667969 486 1673.058594 C 488.984375 1668.558594 495 1666.234375 498.726563 1662 C 508.230469 1651.003906 515.65625 1638.179688 521.691406 1625 C 545.792969 1572.363281 547.933594 1507.65625 529.644531 1453 C 517 1415.386719 490.71875 1377.039063 454 1359.78125 C 424.84375 1346.074219 387 1356.742188 376 1389 C 367.199219 1376.125 361.964844 1364.214844 348 1355.4375 C 310.726563 1332.015625 266 1352.453125 250 1391 M 1621 1387 C 1616.402344 1379.203125 1611.699219 1371.824219 1604.824219 1365.789063 C 1561.636719 1328 1513.683594 1373.324219 1490 1410 C 1449.402344 1473.246094 1444 1562.613281 1477.753906 1630 C 1483.359375 1641.21875 1489.710938 1652.636719 1498.175781 1662 C 1502.285156 1666.542969 1508.65625 1668.09375 1512.441406 1672.3125 C 1515.878906 1676.144531 1517 1683.171875 1518.421875 1688 C 1519.4375 1691.5625 1527 1708.386719 1523.578125 1710.398438 C 1518 1713.476563 1505.234375 1711 1499 1711 L 1437 1711 C 1386 1711 1334.902344 1712 1284 1712 C 1266.984375 1712 1249.941406 1713 1233 1713 C 1222 1713.019531 1209.71875 1711.449219 1199 1714 L 1199 1715 C 1273.242188 1713.34375 1347.730469 1715 1422 1715 L 1493 1715 C 1502.996094 1715 1516.261719 1712.683594 1525.90625 1715.316406 C 1532.179688 1717.03125 1536.652344 1729.042969 1540.375 1734 C 1549.582031 1746.257813 1562.453125 1759.652344 1578 1763 C 1574.648438 1751.359375 1568.265625 1741.042969 1565.5 1729 C 1564.796875 1726 1562.335938 1719.269531 1564.695313 1716.601563 C 1567 1714 1572.871094 1715 1576 1715 L 1606 1715 C 1608 1715 1618.363281 1716.261719 1618.363281 1713 C 1618.363281 1709.738281 1608 1711 1606 1711 L 1576 1711 C 1572.878906 1711 1567.222656 1712.046875 1564.601563 1710 C 1561.933594 1708 1560.75 1696 1564.433594 1694.402344 C 1569.726563 1692.125 1582.515625 1696.523438 1589 1695.824219 C 1600.488281 1694.59375 1608.234375 1687.628906 1617 1681 C 1618 1706.65625 1634.605469 1734.109375 1650.871094 1753 C 1657.226563 1760.382813 1665.757813 1770 1676 1771 C 1671.621094 1760.78125 1661.441406 1739 1670.859375 1728.410156 C 1673.890625 1725.011719 1690.734375 1728.0625 1696 1727 C 1706.25 1725 1714.183594 1718.152344 1724 1715.496094 C 1731.824219 1713.382813 1741.921875 1715 1750 1715 C 1754.964844 1715 1762.238281 1713.683594 1766.855469 1715.742188 C 1770.859375 1717.527344 1771.953125 1724.324219 1773.628906 1728 C 1777.328125 1736.113281 1781.59375 1743.769531 1789 1749 C 1791.386719 1741 1787.28125 1723.441406 1793.433594 1717.515625 C 1800.488281 1710.71875 1824.65625 1715 1834 1715 C 1871 1715 1908.980469 1717 1946 1714 L 1946 1713 C 1906.371094 1711.296875 1866.738281 1711 1827 1711 C 1814.703125 1711 1786 1715.128906 1796.804688 1695.148438 C 1800.171875 1689 1823 1691.328125 1830 1690.425781 C 1844.664063 1688.5 1860.21875 1690.171875 1875 1690 C 1889.644531 1689.820313 1904.339844 1688 1919 1688 C 1926.585938 1688 1934.476563 1688.617188 1942 1687.574219 C 1943.71875 1687.335938 1947.710938 1687.363281 1948.652344 1685.546875 C 1950.183594 1682.597656 1942 1683.003906 1941 1683 C 1931.335938 1683 1921.714844 1682 1912 1682 L 1840 1682 C 1843.703125 1678.257813 1848.835938 1676.679688 1853 1673.472656 C 1857.605469 1670 1861.25 1664.457031 1867 1662.652344 C 1880.761719 1658.339844 1899.609375 1662.589844 1914 1662 C 1922.546875 1661.585938 1931.484375 1661.644531 1940 1660.828125 C 1942.195313 1660.621094 1947.476563 1660.648438 1948.742188 1658.457031 C 1951.304688 1654.035156 1933.25 1654.230469 1931 1654.089844 C 1911.464844 1653 1891.585938 1653 1872 1653 C 1874.992188 1648.027344 1877.398438 1638.285156 1881.511719 1634.601563 C 1887.632813 1629.125 1908.988281 1633.183594 1917 1633 C 1925 1632.789063 1932.925781 1631.019531 1941 1631 C 1942.789063 1631 1947.332031 1631.679688 1948.25 1629.53125 C 1950 1625.3125 1935 1625.695313 1933 1625.425781 C 1920.671875 1623.804688 1907.441406 1624 1895 1624 C 1890.460938 1624 1882.777344 1625 1884 1618.054688 C 1885 1612.257813 1895.449219 1613.050781 1900 1612 C 1907 1610 1912.972656 1604.363281 1920 1602.738281 C 1927.554688 1601 1942.8125 1607.339844 1948 1600 C 1942.933594 1600 1929.5 1602.371094 1925.632813 1598.683594 C 1922.601563 1595.789063 1934.734375 1582.5 1938 1581.609375 C 1951.347656 1578 1969.203125 1581 1983 1581 C 1986.625 1581 1996.238281 1582.707031 1998.972656 1580 C 2001.480469 1577.464844 2000 1569.285156 2000 1566 C 2000 1563 2001 1557.40625 1999.398438 1554.601563 C 1997.652344 1551.617188 1989.90625 1553 1987 1553 L 1956 1553 C 1953.210938 1553 1946.96875 1554.113281 1945 1551.398438 C 1943.3125 1548.742188 1945.613281 1543 1945.949219 1540 C 1947 1529.699219 1947.238281 1519.378906 1946.984375 1509 C 1946.351563 1483.179688 1937.722656 1450.285156 1917.960938 1432.425781 C 1902.457031 1418.414063 1878.53125 1410.816406 1860 1424 C 1850.535156 1398.027344 1890.261719 1403 1904 1404 C 1896.746094 1395.222656 1881 1389 1870 1387.300781 C 1865.683594 1386.679688 1860 1388.199219 1856 1386.546875 C 1852 1385 1850 1379.179688 1847.53125 1376 C 1843 1370.441406 1837 1365.464844 1831 1361.761719 C 1804.625 1345.828125 1748.828125 1353.144531 1748 1392 C 1736.464844 1382 1731.949219 1366.695313 1718 1357.546875 C 1683.742188 1335.070313 1637.351563 1349.050781 1621 1387 M 1218 1356.332031 C 1218.773438 1356.332031 1218 1356.832031 1217.667969 1356.667969 L 1218 1356.332031 M 1856 1479 L 1855 1479 C 1842.300781 1442.398438 1821 1393 1776 1393 C 1789.71875 1377 1813.191406 1384 1826.996094 1395.589844 C 1849.507813 1414.71875 1856 1451 1856 1479 M 220 1393 C 187.59375 1393 166.554688 1420 153.78125 1447 C 149.980469 1455.042969 146.976563 1473 140 1478 C 142.371094 1448.210938 147.847656 1413 173 1393.503906 C 184 1385 210.933594 1377 220 1393 M 390 1582 L 389 1582 C 385 1566.433594 389 1545.386719 387.910156 1529 C 384.84375 1484.234375 373.683594 1413.785156 323 1398.4375 C 311.605469 1395 302.417969 1397.066406 291 1398 C 315.421875 1369.492188 357.417969 1393 374.523438 1416 C 400 1450.507813 399.738281 1500.132813 395.828125 1541 C 394.527344 1554.621094 390.28125 1568.40625 390 1582 M 1704 1398 C 1696.265625 1397 1688.863281 1395.074219 1681 1396.464844 C 1660.261719 1400.128906 1644.78125 1414.828125 1633.78125 1432 C 1612.90625 1464.589844 1608.453125 1508.09375 1608 1546 C 1607.855469 1558.394531 1609 1570.621094 1609 1583 C 1602.550781 1571.132813 1602.429688 1553.246094 1600.84375 1540 C 1596 1500 1597 1452.613281 1620.359375 1418 C 1634.539063 1397 1658.914063 1381 1685 1387.628906 C 1691.492188 1389.296875 1700.53125 1392 1704 1398 M 512 1568 C 512 1522.78125 504.601563 1478.769531 481.851563 1439 C 467.507813 1414 449.84375 1395.753906 420 1396 C 437.46875 1376.566406 470.324219 1390.226563 484.710938 1406.039063 C 512.878906 1437.007813 520.84375 1487.800781 518 1528 C 517.453125 1537.285156 519.945313 1562 512 1568 M 259 1559 L 258 1559 C 258 1524.832031 251.714844 1483.660156 235.972656 1453 C 228.296875 1438.046875 216.953125 1423.566406 199 1422 L 199 1420 C 210.824219 1419.066406 221.960938 1416 233 1422.480469 C 245.617188 1430.003906 251.460938 1444.417969 254.871094 1458 C 262.421875 1488.046875 267.5 1528.753906 259 1559 M 1801 1424 C 1780.78125 1421.5 1767.726563 1437.171875 1759.78125 1454 C 1743.902344 1487.632813 1744.625 1525.3125 1738 1561 C 1733.996094 1551.550781 1735 1537.1875 1735 1527 C 1735 1498.429688 1734.890625 1465 1748.484375 1439 C 1756.617188 1423.496094 1770.59375 1416.0625 1788 1419 C 1792.710938 1419.691406 1798 1420 1801 1424 M 809 1447 C 803.289063 1457.589844 784.710938 1466 775 1473.117188 C 748.425781 1492.671875 722.914063 1513.394531 697 1533.789063 C 687.46875 1541.292969 681.179688 1545 669 1545 C 666.875 1545 660.460938 1546 659.347656 1543.484375 C 658.1875 1541 664 1537.335938 665.574219 1536 C 673.8125 1529 682.386719 1522.289063 691 1515.652344 C 716 1496.332031 742.964844 1479.414063 771 1464.746094 C 783 1458.421875 795.835938 1450.789063 809 1447 M 1192 1448 C 1231 1469.371094 1269.296875 1488 1305 1515.128906 C 1313.226563 1521.386719 1321.371094 1528.023438 1329 1535 C 1330.5625 1536.425781 1336.8125 1540.503906 1335.652344 1543.15625 C 1334.585938 1545.601563 1329 1545 1327 1545 C 1315.265625 1545.058594 1309.910156 1540.726563 1301 1533.425781 C 1274.808594 1512 1248.230469 1491.164063 1221 1471.023438 C 1213.863281 1465.746094 1194.175781 1456.695313 1192 1448 M 149 1517 C 148.195313 1535.746094 144.796875 1554.105469 146 1573 C 147.550781 1594.335938 154.179688 1614.082031 157 1635 C 150.457031 1629.375 147.222656 1618.046875 144.515625 1610 C 137.230469 1588.335938 135.457031 1563.433594 140 1541 C 141.585938 1533.199219 143.597656 1523.050781 149 1517 M 1850 1520 C 1863 1545 1860.816406 1581 1852.503906 1607 C 1849.988281 1615 1847.4375 1627.378906 1840 1632 C 1845 1609.804688 1851 1589.0625 1851 1566 C 1851 1557.4375 1851.71875 1548.507813 1850.714844 1540 C 1850 1534.226563 1847.800781 1525.394531 1850 1520 M 226 1674 C 220.839844 1666.582031 219.921875 1656.621094 214.234375 1649.003906 C 210.6875 1644.246094 204.546875 1643.394531 201.277344 1639.402344 C 193.734375 1630.175781 196.964844 1597.246094 213 1598.703125 C 222.824219 1599.597656 228 1609.449219 229.988281 1618 C 233.871094 1634.734375 233.871094 1658.335938 226 1674 M 1772 1674 C 1768.914063 1670 1768.40625 1663.011719 1767.398438 1658 C 1764.222656 1642.21875 1761 1604.359375 1782 1599 C 1800 1594.28125 1802.691406 1629.371094 1796.347656 1639.667969 C 1794.25 1643.070313 1787.328125 1644.355469 1784.214844 1648 C 1777.847656 1655.445313 1775.769531 1665.246094 1772 1674 M 458 1703 C 454.710938 1695.089844 458.753906 1683 457 1674 C 456.175781 1669.3125 454.488281 1664.535156 450.890625 1661.226563 C 449 1659.5625 444.671875 1658.652344 443.695313 1656.410156 C 442 1653 445.96875 1645.398438 447.179688 1642 C 449.820313 1634.605469 456.738281 1617.367188 467 1619.359375 C 475.898438 1621.089844 476.914063 1633.832031 476.996094 1641 C 477.246094 1662.660156 468.785156 1684.519531 458 1703 M 1540 1697 C 1534.921875 1694 1532.773438 1686.3125 1530.601563 1681 C 1525 1667.390625 1519.953125 1653 1520 1638 C 1520 1632.078125 1520.953125 1624.402344 1526.1875 1620.601563 C 1530.789063 1617.261719 1536.292969 1620.34375 1539.472656 1624.09375 C 1545.183594 1630.828125 1554.253906 1646.585938 1553.242188 1656 C 1552.894531 1659.011719 1545 1661.105469 1543 1665.003906 C 1538 1675.253906 1539 1686.070313 1540 1697 M 539 1633 L 1445 1633 C 1448.753906 1633 1458.878906 1634.617188 1455.257813 1628.039063 C 1452.386719 1622.824219 1447 1623.804688 1442 1624 C 1431.6875 1624.292969 1421.320313 1624 1411 1624 C 1365.894531 1624 1319.976563 1621.582031 1275 1624.75 C 1218.699219 1628.714844 1161.335938 1623.335938 1105 1624.003906 C 982 1625.464844 859 1625 736 1625 C 686.410156 1625 636.675781 1624 587 1624 L 556 1624 C 552.476563 1624 546.480469 1622.675781 543.3125 1624.347656 C 540.585938 1625.789063 539.847656 1630.3125 539 1633 M 541 1652.425781 C 535.671875 1653.125 529.648438 1652 526.351563 1657.058594 C 525.238281 1658.789063 522.777344 1662.8125 525.421875 1664.257813 C 529.503906 1666.484375 537.46875 1665 542 1665 L 1461 1665 C 1463.578125 1665 1472.378906 1666.363281 1473.667969 1663.398438 C 1475.285156 1659.675781 1468 1653.304688 1464.960938 1652.433594 C 1454.671875 1649.484375 1438.550781 1651.359375 1427.960938 1652.601563 C 1408.429688 1655 1387.667969 1653 1368 1653 L 1253 1653 C 1092.636719 1653.0625 931.691406 1653 771 1653 C 720.878906 1653 671 1653.574219 621 1653 C 594.835938 1652.691406 567 1649.003906 541 1652.425781 M 500 1690 C 632.3125 1690 764.753906 1685.578125 897 1684.003906 C 1018 1682.5625 1139 1685.558594 1260 1687 C 1319.960938 1687.710938 1380 1689 1440 1689 C 1454.398438 1689 1468.660156 1689.332031 1483 1690 C 1484.875 1690.042969 1497 1691.097656 1495.652344 1687.320313 C 1494 1683.226563 1486.804688 1681.40625 1483 1681.09375 C 1470.179688 1680.039063 1456.867188 1681 1444 1681 C 1389 1681.175781 1334 1682 1279 1682 L 690 1682 C 644 1682 596.863281 1685.050781 551 1682 C 536.996094 1681 508.761719 1675.558594 500 1690 M 249 1688 C 253.980469 1696 262 1702.648438 266 1711 C 256.210938 1711 241.585938 1713.78125 232.316406 1710.683594 C 227.765625 1709.160156 230.808594 1695.3125 233.601563 1693 C 237.300781 1689.820313 244.363281 1691.25 249 1688 M 1730 1710 C 1733 1705.519531 1742.25 1690.625 1748 1690.484375 C 1758.222656 1690.230469 1764.722656 1691.679688 1766.433594 1702 C 1766.800781 1704.207031 1768.324219 1708.175781 1766.308594 1710 C 1764.234375 1711.820313 1759.542969 1711.011719 1757 1711 C 1747.996094 1711 1739 1710 1730 1710 "/></g></svg>