<?xml version="1.0" encoding="UTF-8"?>
<svg xmlns="http://www.w3.org/2000/svg" xmlns:xlink="http://www.w3.org/1999/xlink" width="2000pt" height="2000pt" viewBox="0 0 2000 2000" version="1.1">
<g id="surface1">
<path style=" stroke:none;fill-rule:nonzero;fill:rgb(0%,0%,0%);fill-opacity:1;" d="M 969 1132 L 969 1131 C 958.34375 1131.546875 947 1137.257813 937 1140.496094 C 919.855469 1146 902.394531 1150.65625 885 1155.265625 C 841.648438 1166.746094 797.363281 1175 753 1181.269531 C 729.699219 1184.628906 705.570313 1189 682 1189 L 682 1188 C 691.945313 1187.546875 702.21875 1183.789063 712 1181.800781 C 734.773438 1177.175781 757.453125 1172.109375 780 1166.472656 C 825.863281 1155.007813 873.507813 1146.113281 917 1127 C 934.640625 1119.117188 952.789063 1110.3125 968 1098.332031 C 973.535156 1094 980.957031 1088.421875 984 1082 C 974.660156 1084.136719 965.621094 1086 956 1086 L 956 1085 C 978.980469 1078.335938 999.925781 1062.492188 1020 1050 C 1027.242188 1045.425781 1038.261719 1042.050781 1044 1036 L 1025 1036 C 1035.886719 1025.203125 1051.804688 1013.742188 1068 1014.054688 C 1088.59375 1014.449219 1109.175781 1033.527344 1127 1042.5 C 1167.699219 1063 1221.886719 1067.757813 1232.601563 1121 C 1234 1128.476563 1234.648438 1136.394531 1233.714844 1144 C 1230 1173.804688 1211.589844 1197.410156 1191 1218 C 1173 1236 1153.554688 1252.183594 1132 1265.574219 C 1117 1275 1100 1280.355469 1085 1289.449219 C 1068 1299.695313 1052.964844 1314.039063 1039 1328 C 1049 1309.160156 1065.871094 1295.21875 1078 1278 C 1066 1278 1049.976563 1288.566406 1040 1294.550781 C 1007.941406 1313.785156 982.554688 1341.109375 952 1362 C 968.757813 1335.183594 995.332031 1312.714844 1018 1291.039063 C 1027.316406 1282.128906 1043.390625 1271 1047 1258 C 981.792969 1290.429688 922 1335.183594 863 1377.425781 C 843.445313 1391.402344 824.773438 1409.050781 804 1421 C 814.457031 1405.191406 830 1391.585938 844 1378.816406 C 879.910156 1346 920.304688 1319.539063 959 1290.230469 C 973.257813 1279.433594 988.605469 1268 997.484375 1252 C 999.371094 1248.617188 1004.96875 1240.386719 1004 1236.425781 C 1003.296875 1233.503906 998.265625 1237.015625 997 1237.695313 C 990.625 1241.117188 984.335938 1244.679688 978 1248.175781 C 950.652344 1263.257813 924.378906 1280.242188 897 1295.230469 C 816.65625 1339.207031 738 1387.058594 659 1433.140625 C 637.28125 1445.785156 615.480469 1458.296875 594 1471.34375 C 580.347656 1479.636719 565.257813 1491.171875 550 1496 C 629.652344 1416.347656 736 1360.296875 836 1310.246094 C 879.574219 1288.40625 946.769531 1263.726563 958 1210 C 939.308594 1213.332031 919.226563 1224.804688 902 1232.691406 C 864.882813 1249.6875 827.925781 1267.027344 791 1284.449219 C 688.917969 1332.605469 584.550781 1379.238281 487 1436.226563 C 451.363281 1457.046875 416.339844 1478.621094 382 1501.515625 C 362 1514.765625 342.550781 1532.804688 321 1543 C 351.296875 1500 399 1466.378906 442 1437 C 536.675781 1372.023438 642.625 1322.351563 749 1279.800781 C 782.972656 1266.210938 817.496094 1253.554688 851 1239 C 868 1231.398438 885.613281 1225.140625 901 1214.410156 C 915 1204.636719 936.183594 1189.328125 941 1172 C 928.8125 1175.578125 917 1182 905 1186 C 865 1199.324219 824.652344 1212 784 1223 C 687.878906 1249 591 1273 498 1309 C 472.539063 1318.785156 447.902344 1330.039063 423 1341.140625 C 410 1347 393 1352.671875 382.300781 1361.789063 C 375 1368 370.730469 1378.296875 365.496094 1386 C 351.882813 1406.042969 340.382813 1427.4375 327.574219 1448 C 317.839844 1463.628906 308.273438 1479.351563 298.574219 1495 C 294 1502.367188 286.988281 1510.53125 285 1519 C 294.667969 1514.519531 303.449219 1505.441406 312 1499 C 293.355469 1547.066406 274.230469 1602.050781 272 1654 L 273 1654 C 279.214844 1638 288.230469 1623.707031 295 1608 L 296 1608 C 296 1651.03125 297.378906 1692 315.769531 1732 C 320.902344 1743.179688 327.566406 1759 337 1767 C 339.34375 1753.148438 335.410156 1736.378906 336 1722 C 337.222656 1695 346.230469 1668 360.320313 1645 C 374.800781 1621.398438 395.296875 1602.476563 419 1588.453125 C 427.289063 1583.546875 438.253906 1581.808594 445.910156 1576.296875 C 455.492188 1569.402344 463.253906 1556.386719 472 1548.039063 C 487.246094 1533.484375 507.777344 1522.394531 528 1516.558594 C 542.890625 1512.261719 558.507813 1510.359375 574 1511.039063 C 582 1511.394531 593 1516 601 1513.4375 C 609.734375 1510.75 617.453125 1503.570313 626 1500.011719 C 649.261719 1490.328125 673.992188 1486.804688 699 1490.429688 C 714.398438 1492.660156 729.90625 1498 743 1506.441406 C 749.421875 1510.601563 755.539063 1519.8125 763 1521.683594 C 773.269531 1524.257813 785.324219 1522.5625 796 1524.613281 C 818.644531 1529 841.988281 1540 861 1552.746094 C 917 1590.78125 958.960938 1659 956 1728 C 955 1750.609375 949 1782.21875 930 1797 C 930 1771.46875 934.28125 1746.726563 931.828125 1721 C 926 1661 891.914063 1594.800781 837 1565.628906 C 823.722656 1558.578125 807 1552.203125 792 1551.089844 C 782.441406 1550.386719 766.597656 1553.453125 758 1550.394531 C 749.9375 1547.519531 743 1536.804688 736 1531.746094 C 721.9375 1521.632813 703.234375 1516.4375 686 1516.015625 C 670.808594 1515.640625 653.558594 1517.246094 640 1524.714844 C 632.785156 1528.6875 624.851563 1540.097656 617 1541.28125 C 607.445313 1542.71875 595.679688 1537.753906 586 1537.089844 C 560.910156 1535.371094 535.714844 1539 513 1550.027344 C 497.878906 1557.386719 484.3125 1568.332031 473.289063 1581 C 466.558594 1588.734375 461 1599.21875 452.910156 1605.488281 C 446.832031 1610.140625 437 1611.460938 430 1614.425781 C 417.402344 1619.710938 406 1627 396.285156 1636.574219 C 350.527344 1681.578125 342.3125 1767 376.695313 1821 C 402.550781 1861.667969 445.253906 1882.183594 493 1879 C 512.683594 1877.5625 535.265625 1867.503906 555 1872.417969 C 564.898438 1875 574.546875 1887.550781 583 1893.414063 C 601.203125 1906.039063 623.558594 1915.226563 646 1915 C 660.617188 1915 675 1910.460938 687 1902 C 691.613281 1898.660156 699.839844 1885.628906 705.4375 1885.566406 C 714 1885.46875 727.484375 1895.097656 736 1898 C 754.621094 1904.339844 775.570313 1906.085938 795 1902.679688 C 809 1900.21875 822.789063 1893.730469 834 1885.113281 C 839.292969 1881.046875 845 1872.714844 851 1870.199219 C 855.605469 1868.296875 863 1872 868 1872 C 879.367188 1872.265625 890.398438 1869.066406 900 1863 C 907.527344 1858.082031 913.730469 1851.351563 918.777344 1844 C 921.265625 1840.378906 922.839844 1833.414063 927 1831.601563 C 933 1829.101563 941.839844 1831.488281 948 1832 C 963.5625 1833 979.417969 1833.605469 995 1834 C 1029 1834.820313 1064 1835.238281 1098 1833 C 1115.546875 1831.710938 1136.558594 1827.140625 1153.960938 1829.1875 C 1160.628906 1830 1163.191406 1842.152344 1166.664063 1847 C 1174.53125 1858 1185 1866.15625 1198 1870.328125 C 1204.238281 1872.355469 1211.453125 1873.515625 1218 1872.714844 C 1222.652344 1872.144531 1229.550781 1869.046875 1234 1871.066406 C 1241.59375 1874.519531 1247.945313 1883.453125 1255 1888.253906 C 1270.945313 1899.101563 1291.625 1905.320313 1311 1905 C 1328.507813 1904.609375 1346.542969 1900.242188 1363 1894.496094 C 1369.21875 1892.324219 1379.582031 1884.691406 1386 1885.242188 C 1393 1886 1402.488281 1900.519531 1409 1904.53125 C 1425 1914.4375 1442.675781 1916.066406 1461 1914 C 1480.496094 1911.480469 1499.21875 1902.664063 1515 1891.253906 C 1522.660156 1885.71875 1531.492188 1874 1541 1872.226563 C 1556 1869.5625 1572.28125 1874.097656 1587 1876.566406 C 1603.191406 1879.28125 1619.714844 1880.128906 1636 1877.726563 C 1716.867188 1865.816406 1753.265625 1786.429688 1742.714844 1712 C 1737.554688 1675.605469 1716.777344 1640.476563 1685 1621.449219 C 1677.535156 1617 1669.339844 1613.28125 1661 1610.769531 C 1655.539063 1609.125 1649.46875 1608.796875 1645 1605 C 1633.722656 1594.785156 1626 1580.597656 1615 1570.039063 C 1593.417969 1549.378906 1565.316406 1539 1536 1536.171875 C 1523.570313 1535 1510.230469 1536 1498 1538.195313 C 1491.589844 1539.421875 1481.394531 1543.488281 1475 1542 C 1466.757813 1540 1459.777344 1528.496094 1452 1524.324219 C 1432.726563 1514 1407.890625 1514.246094 1387 1518.449219 C 1374 1521.039063 1361.589844 1526.003906 1351 1534 C 1344.683594 1538.601563 1338.332031 1547.539063 1331 1550.253906 C 1324.375 1552.707031 1314.214844 1549.484375 1307 1550.171875 C 1286.226563 1552.148438 1266.824219 1555.546875 1248 1565.257813 C 1165.667969 1607.734375 1137.972656 1712 1154 1797 C 1136.515625 1782.203125 1128.914063 1754.796875 1126.828125 1733 C 1120.382813 1665.523438 1161.953125 1597.578125 1214 1558 C 1235.234375 1541.6875 1261.625 1529.191406 1288 1524.425781 C 1299.859375 1522.28125 1315.886719 1525.363281 1326.828125 1521.4375 C 1335.746094 1518.234375 1343.414063 1508 1352 1503.3125 C 1372.710938 1492.007813 1396.699219 1488.445313 1420 1489.015625 C 1436.859375 1489.429688 1454.980469 1493.542969 1470 1501.257813 C 1475.679688 1504.175781 1486.625 1515.511719 1493 1514.011719 C 1504.382813 1511.335938 1516 1497 1524 1489 C 1547.652344 1465.347656 1570.585938 1438.757813 1589.328125 1411 C 1596.347656 1400.605469 1603.601563 1390.367188 1610.65625 1380 C 1612.621094 1377.113281 1615.65625 1369.597656 1619.261719 1368.664063 C 1624.359375 1367.351563 1634.675781 1376.097656 1639 1378.578125 C 1656.6875 1388.71875 1674.6875 1403.402344 1694 1410 L 1694 1409 C 1668.335938 1394.382813 1645 1375 1620 1359.226563 C 1565 1324.816406 1509.390625 1291.515625 1455 1256.308594 C 1438.496094 1245.625 1423.800781 1230.710938 1407 1221 C 1409.871094 1237.117188 1423.945313 1251 1435 1262 C 1460 1287.101563 1495.964844 1308.796875 1514 1340 C 1487.835938 1315.613281 1456.59375 1295.277344 1427 1275.328125 C 1411.695313 1265.011719 1396.523438 1252.21875 1380 1244 C 1382 1251.4375 1389 1257.636719 1393.328125 1264 C 1404.273438 1280.238281 1416.78125 1296.753906 1426 1314 C 1411 1299.785156 1395.910156 1285.65625 1379 1274 C 1333.996094 1242.558594 1270.976563 1217.402344 1271 1153 C 1271 1143.59375 1272.355469 1134.03125 1275 1125 C 1278.40625 1113.636719 1283.226563 1103 1289.695313 1093 C 1298.867188 1079 1310.246094 1065.664063 1323 1054.730469 C 1334.773438 1044.632813 1351.601563 1037 1361.320313 1025 C 1363.351563 1022.453125 1367.796875 1009.179688 1370.5 1009.015625 C 1375.761719 1008.699219 1385.226563 1020.523438 1389 1024 C 1405.179688 1038.089844 1420.710938 1053.160156 1438 1066.105469 C 1469.761719 1090 1507.859375 1103 1546 1112.128906 C 1561.355469 1116 1578 1121 1594 1121 L 1594 1123 C 1552.675781 1123 1507 1116 1469 1100 C 1473.898438 1120.621094 1503.753906 1136.261719 1522 1142.78125 C 1557.550781 1155.488281 1596.363281 1161.773438 1633 1170.742188 C 1659.851563 1177.316406 1686.953125 1188.195313 1714 1193 C 1707.628906 1179.339844 1689.632813 1166.753906 1678 1157.449219 C 1673.324219 1153.707031 1663.925781 1149.085938 1662.316406 1143 C 1660 1134.722656 1662.339844 1124.335938 1662.910156 1116 C 1663.84375 1102.378906 1664 1088.667969 1664 1075 C 1664 1014.164063 1667 950.164063 1646 892 C 1629 844.625 1589.539063 815.179688 1564.863281 773 C 1549.484375 746.71875 1546 717.714844 1544 688 C 1541.515625 650.429688 1547 611.695313 1547 574 C 1547 482.617188 1544.433594 390.734375 1533.285156 300 C 1528.984375 265 1526 229.066406 1516.421875 195 C 1512.648438 181.613281 1509.34375 166.289063 1500.75 155.015625 C 1485.824219 135.425781 1462 138.097656 1442 147.308594 C 1402.953125 165.175781 1372.757813 198.144531 1343 228 C 1299.714844 271.425781 1263.773438 323.789063 1230.34375 375 C 1213.414063 401 1198.234375 437.613281 1172 455.328125 C 1149.238281 470.699219 1120.746094 466.375 1095 463.285156 C 1056.734375 458.695313 1017.539063 455 979 455 L 934 455 C 929.851563 455 920.640625 456.816406 918 452.761719 C 915.890625 449.441406 917 443.757813 916.960938 440 C 916.476563 429 916 418.078125 916 407 C 916 378.046875 916.75 348.496094 922.449219 320 C 925.707031 303.710938 933.25 288.183594 936 272 L 935 272 C 909.746094 310.324219 896.695313 367.484375 902.285156 413 C 904.175781 428.371094 910 442.101563 913.664063 457 C 921 487.675781 925.804688 519.003906 931.609375 550 C 935.289063 569.636719 941.589844 591.042969 942 611 L 941 611 C 928.945313 579.746094 918.628906 548 912.460938 515 C 910 502.386719 908 489.675781 906 477 C 905.363281 472 905.6875 464 903.398438 459.316406 C 898.914063 450.328125 876.921875 463 870.363281 456.476563 C 862.597656 448.832031 858.828125 432.78125 854 423 C 844.75 403.773438 837 383.699219 828.773438 364 C 822.949219 350.105469 815.320313 334.140625 814 319 L 813 319 C 810 330.792969 815.988281 349.222656 818.652344 361 C 824.183594 385.488281 830 410.714844 842 433 C 848.972656 446 859.597656 456.371094 866.988281 469 C 877.804688 487.472656 885.222656 508.441406 893.863281 528 C 911.761719 568.519531 928.796875 609.015625 943 651 C 927.335938 634 917.277344 611.644531 907 591 C 893.253906 562.742188 880.703125 534.261719 869 505 C 863.71875 491.796875 860.671875 475.367188 853.582031 463.148438 C 850 457.066406 841.671875 462.792969 837 457 C 816.6875 431 800.894531 400 781.425781 373 C 767.632813 354 753 335.40625 738.398438 317 C 732.625 309.769531 727 298.730469 719 294 C 726.972656 315.773438 743.3125 337.515625 754.535156 358 C 773 392 790.886719 426.535156 812 459 C 847.316406 513 887 568.164063 912 628 C 900.5625 618.003906 891.410156 602.355469 882.578125 590 C 862.621094 562.074219 843.925781 533.550781 826.453125 504 C 819.394531 492.066406 814 475.710938 805 465.316406 C 800.234375 459.808594 780.347656 462.019531 773 460.550781 C 753 456.5625 736.175781 448.488281 721 434.828125 C 691.632813 408.398438 667.4375 374.441406 642.386719 344 C 612 307.246094 580.53125 271.769531 548 237 C 510.59375 196.808594 468.546875 155.371094 420 128.695313 C 399.96875 117.6875 376.523438 106.652344 353 109.175781 C 307.464844 114.050781 292 172.136719 279.410156 208 C 265.664063 247.085938 258.902344 289.195313 252.574219 330 C 241.253906 403.007813 236 478.15625 241 552 C 246.941406 637.464844 260.210938 722.394531 263.960938 808 C 265.539063 844.011719 252.761719 878.636719 257.285156 915 C 261.523438 949.046875 285.824219 975 290.570313 1008 C 294 1032.042969 290.425781 1057.710938 292 1082 C 294 1110.105469 301.890625 1138.027344 309.578125 1165 C 323 1212.371094 339 1259.269531 357.398438 1305 C 362.253906 1317.136719 367 1329.207031 372.777344 1341 C 374.710938 1345.03125 376.894531 1351.609375 380.609375 1354.339844 C 383.789063 1356.671875 387.449219 1352.757813 390 1351.101563 C 397.421875 1346.273438 405.378906 1342.113281 413 1337.601563 C 443.882813 1319.332031 479 1302.335938 513 1290.34375 C 576.453125 1268 638.644531 1243.386719 704 1226.378906 C 795.886719 1202.460938 890.175781 1188.621094 969 1132 M 1458 261 L 1458 262 C 1439.429688 263.464844 1420.28125 270.050781 1405 280.722656 C 1400 284.136719 1393.867188 287.679688 1391 293 C 1426.335938 285 1457 289.503906 1491 301 L 1491 302 C 1440.246094 302 1382.65625 317 1351 361 C 1378.671875 344.230469 1417.785156 340.566406 1449 348 L 1449 349 C 1413.609375 355.574219 1376.351563 364.269531 1354 396 C 1375.929688 389.09375 1405 381.53125 1428 387 L 1428 388 C 1389.558594 396.8125 1350.898438 422.4375 1330 456 C 1346 447.109375 1362.289063 438.632813 1381 437 C 1376.511719 444.636719 1366.433594 449.597656 1360.285156 456.089844 C 1347.40625 469.691406 1336.242188 484.480469 1327.308594 501 C 1314 525.503906 1304.417969 551.582031 1299.308594 579 C 1296.53125 594 1297.28125 610.554688 1293 625 L 1292 625 C 1278 579.148438 1290.363281 523.253906 1316 484 C 1308.183594 485.410156 1300.285156 491.050781 1294 495.761719 C 1292 497.25 1288.652344 501.800781 1286 501.792969 C 1283 501.785156 1282.578125 494 1282 492 C 1279.773438 481.800781 1278 471.386719 1280 461 C 1272.382813 469.640625 1271 488 1269.835938 499 C 1266.421875 531 1272.738281 560.523438 1273 592 L 1272 592 C 1244.613281 521.390625 1245.3125 443.574219 1277 374 C 1285.578125 355.167969 1298 335 1313.5625 321.003906 C 1317.90625 317.109375 1321.507813 312.21875 1327 310 C 1323.953125 318 1317.574219 324.5625 1313.4375 332 C 1305.894531 345.5625 1299.324219 364.394531 1299 380 C 1303.839844 371.726563 1306.660156 362.355469 1311.601563 354 C 1340.882813 304.515625 1391.53125 238.5 1458 261 M 936 270 L 937 271 L 936 270 M 487 353 L 487 354 C 477.371094 352.578125 468.402344 348 459 345.476563 C 439.273438 340.398438 419.328125 337.417969 399 337 C 405 333.382813 414.167969 335 421 335 C 444.789063 335 466.175781 341.59375 487 353 M 593 481 C 577 471.019531 563.445313 456 548 444.746094 C 513.457031 419.828125 467.304688 398.359375 424 398 C 433.246094 391 459 396 470 397.574219 C 509.234375 403.664063 547.203125 426.425781 573.285156 456 C 580.167969 463.800781 588.875 471.242188 593 481 M 304 407 C 299.179688 468.09375 309 530.308594 326.71875 589 C 331.390625 604.503906 338.816406 618.78125 344 634 L 345 634 C 348.175781 621.730469 351.570313 609.679688 358.75 599 C 377.601563 571 411.804688 561.34375 444 566 C 456.476563 567.621094 479.367188 573.191406 486 585 C 438.664063 572.75 400.980469 601.3125 389.628906 647 C 387 657.5625 384.453125 671.300781 387 682 C 398.980469 661.5 419.6875 652 443 652 C 449.773438 652.003906 460.320313 652.117188 466 656 C 442.253906 665 417.988281 670.328125 402.671875 693 C 399.796875 697.25 395 702.769531 394.496094 708 C 393.683594 714.449219 400.195313 723 402.304688 729 C 406.175781 740.101563 407.597656 753.332031 405.535156 765 C 404.972656 768.1875 403.621094 779.1875 400.378906 780.652344 C 397.804688 781.820313 393.273438 773.589844 391.824219 772.039063 C 384.945313 764.671875 373.820313 757.476563 364 755 C 383 775 387.417969 805.761719 383 832 C 381.621094 840.8125 379.363281 849.566406 376.425781 858 C 375.90625 859.484375 374.496094 866.617188 371.710938 864.824219 C 369.3125 863.28125 368.175781 858.390625 366.742188 856 C 363.699219 851 359.804688 846.269531 355 842.785156 C 334.894531 828.195313 311 826.292969 297 803 C 287.480469 787.011719 286.917969 769 284.574219 751 C 284.179688 748 281.980469 735.207031 285.601563 733.789063 C 289 732.398438 295.828125 736.640625 299 738 C 312.207031 743.664063 322.925781 752.480469 335 760 C 324.90625 732.425781 306.679688 708.0625 296.691406 680 C 275 619.3125 271.191406 551.386719 280.574219 488 C 283.628906 467.355469 287.757813 446.71875 294.78125 427 C 296.980469 421 298.292969 410.769531 304 407 M 1445 424 C 1432.222656 440.65625 1411.519531 453.136719 1397.171875 469 C 1367.773438 501.503906 1345.671875 540.246094 1330 581 C 1324.75 594.652344 1319.90625 609 1315.859375 623 C 1315.421875 624.519531 1312.691406 636.027344 1310.324219 634.652344 C 1307.667969 633.113281 1308 622 1308 619 C 1307.808594 602.066406 1312.167969 585.050781 1317.191406 569 C 1331.648438 522.808594 1362.753906 478.132813 1401 448.652344 C 1413.175781 439.265625 1429.535156 426.746094 1445 424 M 562 503 C 554.214844 500.417969 547 494.332031 540 490.226563 C 528.644531 483.683594 516.175781 478.28125 504 473.449219 C 461.5625 456.609375 421 453 376 453 C 386.453125 446.617188 402 447.132813 414 445.714844 C 451.800781 441.191406 490.398438 453.175781 523 471.71875 C 537.210938 479.800781 552.441406 489.429688 562 503 M 1492 459 L 1492 460 C 1475.277344 467.808594 1460.332031 479.734375 1446 491.199219 C 1402.90625 525.675781 1369.628906 569.328125 1346 619 C 1354 612.808594 1359.964844 603.796875 1368 597.261719 C 1401.863281 569.707031 1446.453125 541.03125 1492 541 C 1486 545.429688 1477.777344 547.214844 1471 550.011719 C 1459.992188 554.554688 1449.335938 560 1439 566 C 1409 583 1383.179688 606.824219 1359 631 C 1349.921875 640.078125 1340.503906 648.570313 1331.816406 658.039063 C 1330.621094 659.34375 1325 666.625 1322.941406 664.824219 C 1320.535156 663 1323.1875 651 1323.574219 648 C 1325.953125 630.121094 1332 613.347656 1339.628906 597 C 1360.925781 551.027344 1398.453125 508.800781 1441 481.585938 C 1455.414063 472.367188 1474.585938 460.519531 1492 459 M 1170 536 C 1200.433594 571.171875 1225.875 612.34375 1227.960938 660 C 1230.429688 716.371094 1204.839844 779.726563 1227.871094 834 C 1243.914063 871.804688 1274.375 894.464844 1305 920 C 1317.765625 930.53125 1342.953125 947.078125 1347 964 C 1295.398438 940 1238.703125 936.625 1184 954.027344 C 1167 959.390625 1152.492188 970.746094 1136 976 C 1137.992188 967.613281 1146 961.21875 1151.699219 955.089844 C 1177.421875 927.183594 1208 924 1244 924 C 1235.835938 912.410156 1224.910156 902.367188 1216.234375 891 C 1201.351563 871.5 1189.703125 849.621094 1183 826 C 1187.636719 829.035156 1189.652344 835.5625 1192.925781 840 C 1198.859375 848.046875 1206.742188 856.339844 1215 862 C 1177.960938 786.441406 1199.808594 697.433594 1193.910156 617 C 1192.457031 597.152344 1186.453125 577.519531 1179.46875 559 C 1177 552.472656 1168.847656 543 1170 536 M 1496 598 L 1496 599 C 1472.289063 607.027344 1443.167969 612.132813 1433 639 C 1452.519531 629.449219 1468.445313 626.554688 1490 627 L 1490 628 C 1479.597656 630.484375 1469.910156 632 1461 638.515625 C 1459.484375 639.644531 1451.957031 644.523438 1453.921875 647 C 1455.445313 649 1463.511719 649.328125 1466 650 C 1474.539063 652.199219 1486 655.121094 1492 662 L 1479 660 C 1483.878906 669.414063 1493 676 1497 686 C 1491 683.257813 1487 677.773438 1482 674 C 1473.71875 667.691406 1463.691406 662.804688 1454 659.226563 C 1428.421875 649.785156 1398.710938 653.765625 1374 664.011719 C 1363.785156 668.246094 1353.617188 676.566406 1343 679 C 1350.203125 662 1367.921875 646.722656 1383 636.667969 C 1416.210938 614.511719 1454.722656 592.78125 1496 598 M 877 663 C 858.714844 660.160156 841.863281 650.601563 823 648.285156 C 775.734375 642.480469 728.554688 657 688 680.425781 C 674.371094 688.339844 661.8125 698 650 708.285156 C 643.789063 713.753906 638.371094 721.117188 631 725 C 632.460938 717 638.265625 709.433594 643 703 C 655.855469 686.164063 676.535156 665 699 663 C 684.183594 645.585938 652.464844 653.164063 633 654 L 633 653 C 648.261719 648.035156 664.886719 644.410156 681 644.015625 C 698.40625 643.589844 714 647.132813 731 642.425781 C 737.183594 640.703125 752.886719 640.285156 757.363281 636.027344 C 760.578125 633 742.484375 624.519531 740 623.375 C 720 614.210938 700.597656 612 679 612 C 689.855469 603.355469 711.625 602.515625 725 600.410156 C 778.324219 592.015625 859.769531 600.476563 877 663 M 913 628 C 913.984375 629.476563 914 629.203125 914 631 C 912.710938 629.558594 912.597656 629.765625 913 628 M 935 731 C 964.6875 751.03125 991.410156 775.761719 1013.425781 804 C 1025.429688 819.402344 1037.300781 836.816406 1042.242188 856 C 1048.300781 879.535156 1045.28125 910.289063 1037 933 L 1036 933 C 1035.910156 901 1017.515625 878.714844 1002.425781 852 C 988.777344 828 978.363281 802.042969 964.578125 778 C 958.289063 767.03125 951.808594 756.273438 944.421875 746 C 941.304688 741.664063 935.1875 736.511719 935 731 M 1297 737 C 1296 757.113281 1286 777.476563 1284.171875 798 C 1281.695313 824 1286.929688 848.433594 1287 874 L 1286 874 C 1279.378906 865.066406 1272.71875 856.480469 1268.660156 846 C 1257.511719 817.195313 1266.542969 786.601563 1281 761 C 1285.671875 753.078125 1290.273438 743.210938 1297 737 M 778 774 C 769 789.636719 756 800.664063 754.171875 820 C 749.175781 870 795.550781 918.550781 847 909 C 847.78125 919.382813 860.648438 923.640625 867.773438 916 C 871.578125 911.746094 868.488281 906.386719 871.617188 902.75 C 879.671875 893.390625 891.550781 888.652344 898.960938 878 C 919.214844 849 909.304688 812.199219 887.699219 787 C 877.96875 775.648438 865 771.113281 854 762 C 861.789063 761 872 766.152344 879 769.601563 C 901.363281 780.785156 919 799.746094 930.246094 822 C 959.742188 881.136719 925.832031 944.355469 861 954.5625 C 809 962.734375 747.605469 943.335938 719 897 C 695.714844 859.09375 716.210938 816.667969 748 791.660156 C 756.4375 785.023438 767.195313 776 778 774 M 1438 949 C 1470.519531 948.730469 1505 931.042969 1514 898 C 1518.769531 880.683594 1515.445313 860.742188 1510 844 C 1516.339844 847.089844 1520.695313 854.0625 1526 858.714844 C 1535.527344 867.070313 1546 874.226563 1557 880.574219 C 1560.6875 882.714844 1572.171875 886.679688 1573 891.214844 C 1574.398438 898.761719 1563.242188 911.222656 1559.328125 917 C 1541.9375 942.679688 1516.492188 961.738281 1486 968.574219 C 1424.578125 982.34375 1364 956.445313 1325.601563 908 C 1304.183594 881.078125 1293.246094 845.613281 1307.730469 813 C 1311.53125 804.449219 1317.234375 792.175781 1326 788 C 1316.648438 822.28125 1327.726563 858.351563 1356 881.535156 C 1366.570313 890.203125 1378 893.796875 1389.957031 899.511719 C 1396.976563 903 1398.289063 921.257813 1407.984375 920.078125 C 1417.894531 919 1413.308594 903.734375 1418.5625 899.074219 C 1424.875 893.480469 1433.65625 891.269531 1439.828125 885 C 1457.441406 866.777344 1458.601563 840.640625 1449.933594 818 C 1443.894531 802.21875 1433 789.03125 1420 778.601563 C 1414.296875 774.066406 1403.871094 771 1400 765 C 1457.207031 773.417969 1507.480469 853.21875 1483.664063 908 C 1477.386719 922.4375 1465 933.335938 1452 941.46875 C 1447.507813 944.257813 1441.933594 945.53125 1438 949 M 1382 784.328125 C 1407 780 1423.441406 821 1396 826.519531 C 1370.324219 831.78125 1353.84375 789.359375 1382 784.328125 M 1413 784.617188 C 1425.5625 779.554688 1439.6875 806.277344 1426.957031 810.59375 C 1419 813.242188 1404.328125 788.214844 1413 784.617188 M 840 785.378906 C 866.347656 780.140625 881.226563 825.480469 854 831.605469 C 825.449219 838.027344 808.84375 791.574219 840 785.378906 M 876 788.359375 C 888.894531 786 897.933594 811.253906 883.996094 813.117188 C 875.460938 814.261719 865.238281 790.371094 876 788.359375 M 973 915 C 967.984375 942.796875 932.984375 967.164063 909 977.421875 C 841.777344 1006.171875 756.730469 988.050781 693 958.292969 C 674.871094 949.828125 656.851563 941 641 928.574219 C 635.25 924.097656 628 919.738281 625 913 C 639.316406 916 653.667969 917.21875 668 920 C 661.273438 908.359375 641.242188 907.535156 637 892 C 641.386719 893.597656 651.890625 901.261719 656.398438 897.304688 C 658.78125 895.214844 658.574219 890 659 887 C 660.273438 880.234375 662.699219 874.121094 665.753906 868 C 666.5625 866.375 669 859.269531 671.605469 860 C 673.683594 860.445313 672.414063 865.585938 672.457031 867 C 672.652344 873.585938 674.988281 880.058594 677.664063 886 C 685.851563 904.179688 702.765625 920 719 931 C 754.183594 955 795.464844 961 837 961 C 865.453125 961 893.355469 958.429688 920 947.546875 C 931.84375 942.710938 943.546875 936.3125 954 929 C 960.285156 924.546875 966 918.222656 973 915 M 1339 984 C 1324.851563 984 1312 985.007813 1301 995.105469 C 1295.910156 999.773438 1289.933594 1016 1282.996094 1016.828125 C 1274.691406 1018 1270 1004.253906 1262.171875 1003.171875 C 1253.695313 1002.019531 1250.398438 1017.261719 1242 1015.261719 C 1233.703125 1013.289063 1226.433594 1000.679688 1219 996.066406 C 1203.910156 986.699219 1185.292969 984.085938 1169 992.132813 C 1162.929688 995.132813 1158.171875 1000.253906 1152 1003 C 1152.167969 983.128906 1168.902344 973.105469 1186 968.035156 C 1220 958 1260.976563 960.578125 1296 963.089844 C 1311 964.164063 1332 969.09375 1339 984 M 1058 1072.574219 C 1044 1075.257813 1047.765625 1095.292969 1062 1092.769531 C 1075.875 1090.3125 1071.347656 1070 1058 1072.574219 M 1374 1100.742188 C 1362.753906 1105.484375 1371.472656 1123.722656 1382.960938 1119.253906 C 1396.207031 1114.101563 1386.820313 1095.421875 1374 1100.742188 M 1034 1119.652344 C 1018.972656 1120.691406 1021 1143.484375 1036 1143 C 1051.359375 1142.203125 1048.960938 1118.621094 1034 1119.652344 M 1089 1133.65625 C 1076.34375 1137.492188 1080.632813 1157.15625 1094 1153.566406 C 1107.894531 1149.832031 1102.503906 1129.5625 1089 1133.65625 M 1436 1135.742188 C 1422.796875 1141 1431.175781 1161.828125 1444 1157.242188 C 1458.636719 1152.007813 1450.269531 1130.222656 1436 1135.742188 M 1470 1137 C 1492.953125 1191.566406 1568.394531 1206.511719 1619 1221 C 1634.386719 1225.222656 1653.988281 1235.339844 1669.957031 1235.527344 C 1674.382813 1235.578125 1676.792969 1230.011719 1680 1227.636719 C 1685.5 1223.597656 1692.371094 1222.230469 1699 1221.441406 C 1715.367188 1219.5 1731 1228.699219 1747 1230 C 1732.871094 1218.296875 1708.238281 1214.140625 1691 1208.644531 C 1645.359375 1194.09375 1598.617188 1183.285156 1553 1168.65625 C 1534.582031 1162.746094 1516.855469 1155.355469 1499 1148 C 1489.980469 1144.265625 1479.65625 1138.261719 1470 1137 M 1362 1149.691406 C 1349.710938 1153.167969 1355.644531 1173.042969 1368 1169.480469 C 1381.355469 1165.632813 1374.90625 1146.066406 1362 1149.691406 M 992 1170.652344 C 976 1175.667969 984 1200 1000 1195.425781 C 1017.390625 1190.460938 1008.980469 1165.324219 992 1170.652344 M 1420 1171.730469 C 1405.601563 1171.738281 1405.644531 1193.140625 1420 1193.226563 C 1434.886719 1193.316406 1435 1171.71875 1420 1171.730469 M 1085 1180.652344 C 1071.789063 1184.828125 1077.71875 1206.054688 1091 1202.425781 C 1105.882813 1198.355469 1099.816406 1176 1085 1180.652344 M 1469 1180 C 1482 1214.535156 1520 1241.308594 1551 1258.304688 C 1603 1287 1656.226563 1313.53125 1706 1346.078125 C 1728 1360.476563 1749 1376 1770 1392 C 1779.226563 1399 1788.503906 1409.132813 1799 1414 C 1793.355469 1400.667969 1779.761719 1387.742188 1770 1377 C 1753.832031 1358.707031 1736 1341 1716.996094 1325.449219 C 1701.441406 1313 1683.230469 1302 1669 1288 C 1696 1281.550781 1716.425781 1297.804688 1741 1304 C 1735 1296.828125 1725.835938 1292.492188 1718 1287.800781 C 1697.335938 1275.429688 1674.503906 1265.253906 1652 1256.773438 C 1590.523438 1233.601563 1526.183594 1212.542969 1469 1180 M 1040 1192.621094 C 1022.503906 1195.621094 1025.730469 1224.105469 1044 1221.230469 C 1062.527344 1218.308594 1058.6875 1189.421875 1040 1192.621094 M 1360 1201.742188 C 1347.574219 1206.582031 1356 1225.171875 1367.90625 1220 C 1379.464844 1215 1371.867188 1197.136719 1360 1201.742188 M 1450 1206 C 1455.738281 1238.296875 1487.492188 1260.414063 1513 1277 C 1563.695313 1309.542969 1617.824219 1339 1672 1365.257813 C 1694.328125 1376.148438 1718.183594 1392.140625 1742 1399 C 1735.859375 1391.042969 1725 1385.683594 1717 1380 C 1697.953125 1366.234375 1678.269531 1353.492188 1659 1340.226563 C 1618.386719 1312.269531 1575.289063 1288.207031 1534 1261.304688 C 1506.394531 1243.320313 1479.191406 1221.0625 1450 1206 M 1086 1233.574219 C 1072 1237.664063 1079 1258.34375 1093 1254.566406 C 1108 1250.441406 1100.507813 1229.328125 1086 1233.574219 M 1371 1359 C 1364.304688 1355.335938 1358.839844 1349.65625 1352 1346 C 1366.816406 1368.6875 1372.886719 1393.628906 1378 1420 C 1367.757813 1414.515625 1358.351563 1400.351563 1350 1392 C 1355.414063 1412.464844 1347.695313 1436.535156 1331 1450 C 1330 1442.355469 1332 1433 1332 1425 L 1331 1425 C 1322 1446.390625 1290.652344 1471.648438 1266 1470 C 1277 1457.722656 1282.609375 1441.242188 1285 1425 C 1278.320313 1431.082031 1273.765625 1441.613281 1268.269531 1449 C 1257.542969 1463.410156 1244.640625 1476.046875 1229 1485 C 1222.675781 1488.621094 1214.425781 1494.070313 1207 1494 C 1222.742188 1476 1238.753906 1461.746094 1241 1436 C 1235.398438 1441.722656 1232.480469 1450 1226.90625 1456 C 1210 1474.128906 1185.585938 1487.6875 1161 1491 C 1164.445313 1484.699219 1172.90625 1480.292969 1177.960938 1475 C 1185.769531 1466.824219 1191 1456.804688 1198 1448 L 1197 1447 C 1179 1461.410156 1157.84375 1469.316406 1135 1463.472656 C 1116.695313 1458.789063 1101.863281 1443.667969 1108 1424 C 1097.375 1432 1085.226563 1440.722656 1073 1446 C 1075.96875 1428.738281 1088.988281 1400.308594 1105 1392 C 1095.882813 1388.296875 1084.515625 1394 1075 1394 C 1081 1383 1090.53125 1373 1098.339844 1363 C 1123.769531 1330.722656 1154.660156 1300.449219 1189 1277.667969 C 1206.894531 1265.792969 1228.859375 1254 1251 1254.453125 C 1284.167969 1255.214844 1313.359375 1277 1335.285156 1300.089844 C 1350 1315.796875 1369 1336.191406 1371 1359 M 1800 1415 L 1801 1416 L 1800 1415 M 896 1823 C 896 1773.144531 884.304688 1722.308594 848 1686 C 869.347656 1729 866.847656 1777 845.246094 1820 C 837.257813 1836 822.226563 1857.339844 805 1864 C 809.625 1853 817.433594 1843.632813 821.496094 1832 C 832.972656 1799.136719 832.171875 1749.199219 809 1721 C 812 1745.34375 810.601563 1769.667969 802.21875 1793 C 799.761719 1800 797.328125 1811 791 1815 C 790.382813 1785.296875 773 1757.019531 761 1731 L 760 1731 C 764.292969 1763 766.753906 1793.230469 753.988281 1824 C 750.242188 1833.03125 744 1847.394531 735 1852 C 741.519531 1803.59375 736.648438 1756.472656 724.625 1709 C 718.910156 1686.433594 703 1656 717.914063 1634 C 735.722656 1607.746094 777.871094 1608.261719 804 1619.011719 C 855.894531 1640.359375 898.25 1696.480469 906.269531 1752 C 908.863281 1770 908.5 1788.476563 903.277344 1806 C 901.738281 1811.167969 900.414063 1819.6875 896 1823 M 1363 1855 C 1353.328125 1850.488281 1346.554688 1839 1341.4375 1830 C 1324.992188 1801.089844 1322.71875 1764 1330 1732 C 1308.738281 1755.6875 1308.476563 1787.390625 1300 1816 C 1282 1792.109375 1271.839844 1749 1281 1720 C 1272.859375 1727 1268.214844 1740 1265.300781 1750 C 1256.734375 1779.449219 1258.9375 1810.101563 1268.667969 1839 C 1271.753906 1848.164063 1278 1856 1281 1865 C 1268.429688 1858.480469 1257.46875 1844.574219 1249.671875 1833 C 1224.597656 1795.78125 1211.210938 1728.761719 1235 1688 C 1225.6875 1694.703125 1219.464844 1707.171875 1213.871094 1717 C 1194 1751.773438 1190.324219 1790 1192 1829 C 1187 1825.773438 1185.84375 1818.289063 1183.949219 1813 C 1177.925781 1796.183594 1177.972656 1779.609375 1178 1762 C 1178 1743 1184.941406 1723.660156 1193.703125 1707 C 1213.851563 1668.695313 1246.851563 1631.371094 1289 1617.332031 C 1317.214844 1608 1362.496094 1608.144531 1379 1638 C 1393.199219 1663.363281 1375.367188 1695.824219 1369.230469 1721 C 1358.191406 1766.285156 1356.261719 1809.195313 1363 1855 M 689 1825 C 683.671875 1817.210938 682.421875 1804.785156 677.691406 1796 C 668.636719 1779.191406 656.390625 1766.289063 643 1753 C 646.488281 1762.222656 651.941406 1770.429688 654.972656 1780 C 662.320313 1803.214844 662 1825.125 660 1849 C 659.433594 1857.113281 657.707031 1865 656.4375 1873 C 656 1875 656.582031 1879.792969 654.398438 1880.652344 C 651.8125 1881.675781 648.5625 1877.542969 647 1876 C 641.777344 1870.40625 636.996094 1864.160156 632.375 1858 C 610.742188 1829.152344 608.285156 1799.539063 609 1765 L 608 1765 C 603.617188 1776.359375 599.527344 1787.695313 599 1800 L 598 1800 C 587.257813 1779.601563 567.949219 1759 566 1735 L 564 1735 C 564 1761.074219 568.195313 1784.675781 574 1810 C 558.867188 1803 549.953125 1780.773438 544.691406 1766 C 529.90625 1724.492188 519.957031 1648.378906 567 1622.3125 C 602.335938 1602.734375 640.546875 1621.824219 663.207031 1651 C 697.984375 1695.773438 712.609375 1772 689 1825 M 1527 1809 C 1530.5 1783.042969 1535 1759.550781 1535 1733 L 1534 1733 C 1530.378906 1750.546875 1521.632813 1766.386719 1513 1782 C 1510 1787.746094 1507.613281 1796.332031 1502 1800 C 1501.882813 1786.070313 1494.914063 1773.667969 1490 1761 L 1489 1761 C 1493.472656 1796.386719 1488 1827.410156 1467.277344 1857 C 1461.175781 1865.695313 1453.859375 1877.402344 1444 1882 C 1443.4375 1869 1439.417969 1856.050781 1438.171875 1843 C 1435.347656 1813.472656 1439.203125 1780 1456 1755 C 1439 1765.6875 1426 1785 1418 1803 C 1416.859375 1805.785156 1412.667969 1823.792969 1409.882813 1823.792969 C 1406.800781 1823.792969 1405 1811.335938 1404.601563 1809 C 1401.195313 1792.089844 1399.992188 1775.210938 1400 1758 C 1400 1707 1425.679688 1631.796875 1481 1617.378906 C 1489.339844 1615.203125 1498.367188 1613.289063 1507 1614.425781 C 1572.265625 1623.015625 1572.84375 1701.1875 1560.371094 1751 C 1555.757813 1769.429688 1545.578125 1800.3125 1527 1809 M 474 1778 C 483.523438 1801 488.492188 1823.738281 493 1848 C 483.242188 1845.269531 475.5 1834.304688 469 1827 C 448.867188 1804.140625 430.78125 1773.324219 430 1742 C 429.46875 1719.644531 439.753906 1697 465 1695.089844 C 502.945313 1692.429688 507.902344 1734.023438 511.574219 1762 C 512.765625 1771.066406 511.558594 1781 510.269531 1790 C 509.960938 1792.175781 510 1797.523438 507.644531 1798.652344 C 505.351563 1799.730469 501.222656 1792.402344 499.90625 1791.039063 C 493.265625 1784.160156 483.363281 1779.609375 474 1778 M 1608 1849 C 1610.226563 1831.414063 1612.78125 1813.761719 1618.691406 1797 C 1619.601563 1794.421875 1626 1782 1624 1780.121094 C 1622.171875 1778.261719 1616.921875 1781.199219 1615 1782.015625 C 1604.410156 1786.496094 1600.207031 1795.039063 1592 1802 C 1589 1786.820313 1588.433594 1772.300781 1588.988281 1757 C 1589.613281 1740 1593.9375 1720.324219 1605.324219 1707.015625 C 1619.574219 1690.367188 1646.753906 1691.457031 1660.53125 1708.015625 C 1687.949219 1741 1657 1797.335938 1634.5625 1824 C 1627.535156 1832.339844 1618.59375 1845.398438 1608 1849 "/>
</g>
</svg>
