<svg version="1.1" id="Layer_1" xmlns="http://www.w3.org/2000/svg" xmlns:xlink="http://www.w3.org/1999/xlink" x="0px" y="0px" viewBox="0 0 100 100" style="enable-background:new 0 0 4000 4000;" xml:space="preserve"><style type="text/css">
	.st0{fill:#181412;}
</style><g transform="translate(1, 4.452453025949737) scale(0.027933597847402753) translate(-253.27000000000012, -364.420000000001)"><path class="st0" d="M3412.65,2879.91c-0.54,6.19-1.44,11.3-2.6,15.34c-17.23,57.79-44.86,108.03-82.82,150.83
		c-41.19,46.3-86.95,87.49-124.19,141.59c-32.93,47.83-79.95,96.28-133.25,123.56c-98.7,50.7-209.07,122.75-331.01,216.25
		c-54.73,41.9-133.97,80.04-206.56,61.02c-58.77-15.43-93.5-56.53-104.09-123.29c-9.87-62.36,2.15-112.7,38.67-166.27
		c27.28-40.02,59.31-75.64,96.01-106.78c49.8-42.35,107.41-87.04,173-133.97c3.41-2.42,2.51-7.81-1.53-8.97
		c-21.8-6.46-53.93-10.5-74.56-0.18c-87.85,43.88-177.66,72.68-280.22,101.21c-107.59,29.97-305.71,68.46-365.92-67.12
		c-33.47-75.46,24.05-164.29,87.84-208.71c66.85-46.57,113.69-63.35,202.25-98.43c4.4-1.7,7.09-6.1,6.64-10.77l-11.84-124.45
		c-0.81-8.35-5.11-15.88-11.93-20.64c-38.14-27.1-78.15-50.79-120.24-70.98c-66.49-32.03-116.38-70.89-160.62-116.83
		c-1.17-1.17-3.05-1.08-4.13,0.18c-21.8,26.29-49.08,54.02-81.83,83.09c-81.74,72.5-176.14,141.86-283.19,208.08
		c-34.01,21.09-69.27,39.57-105.97,55.45c-45.85,19.92-90.18-2.69-139.26-25.75c-97.27-45.67-177.93-86.77-242-123.47
		c-204.58-116.92-387.9-261.38-549.95-433.21c-55.99-59.4-99.78-112.88-131.45-160.44c-58.14-87.4-113.78-173.81-152.18-268.92
		c-27.64-68.37-51.95-136.93-58.23-209.07c-4.22-49.35,37.6-95.65,74.03-135.22c127.69-138.54,270.09-271.7,423.43-366.01
		c130.02-79.86,268.92-139.08,416.79-177.57c114.23-29.7,254.65-52.85,382.25-57.61c8.52-0.27,16.78-3.41,23.33-8.88
		c51.77-43.07,102.2-81.92,151.46-116.65c229.17-161.42,481.49-262.55,757.05-303.46c191.84-28.44,378.84-14,561.08,43.43
		c69.72,21.98,109.47,53.75,152.63,117.1c91.43,134.14,153.88,275.47,208.89,422.89c76.81,205.66,119.7,437.88,100.95,656.64
		c-3.41,40.11-22.61,69.72-57.7,88.65c-126.79,68.46-260.84,112.7-402.35,132.8c-2.96,0.45-5.83,1.7-8.25,3.5
		c-7.63,5.92-13.64,12.74-17.95,20.55c-1.53,2.69-0.72,6.1,1.7,7.9c88.02,63.44,138.27,100.32,150.66,110.64
		c129.21,107.77,220.38,241.64,273.49,401.63c9.24,27.91,18.57,58.86,27.91,92.87c2.6,9.69,8.35,18.39,16.24,24.68
		c74.48,59.04,134.14,104.89,174.25,187.35c31.14,64.25,52.85,127.42,64.96,189.6c29.25,149.49-7.54,289.56-53.39,436.44
		c-28.44,91.17-5.03,190.41-80.76,257.88c-30.78,27.37-69.27,38.14-115.48,32.3c-83.36-10.59-116.38-81.92-121.13-157.21
		c-5.47-87.4,19.92-176.59,51.59-265.42c7.45-20.91,15.07-58.77,22.79-113.6c9.87-69.18,4.67-137.38-15.61-204.4
		C3419.11,2874.97,3413.01,2875.6,3412.65,2879.91 M1440.76,1486.14c9.78-127.95,20.28-263.45,53.48-394.18
		c11.22-44.15,29.25-103.82,65.5-136.3c15.16-13.55,28.18-19.56,39.03-18.04c68.01,9.87,124.45,37.6,176.14,87.67
		c40.38,39.03,91.25,84.17,144.11,117.01c8.88,5.47,19.74,6.82,29.61,3.68c30.06-9.42,123.38-41.1,134.14-67.03
		c50.25-120.51,118.8-227.46,205.66-320.96c24.14-25.93,49.17-46.57,75.28-61.91c99.24-57.96,152,88.02,174.7,152.09
		c51.33,144.73,95.74,282.92,133.34,414.37c22.07,77.26,39.93,149.04,53.66,215.35c2.78,13.55,8.7,26.2,17.32,36.97
		c73.67,92.51,139.98,183.23,198.75,272.15c1.7,2.51,4.31,4.31,7.27,5.03c7.81,1.88,17.05,2.15,27.91,0.72
		c155.5-20.37,312.98-65.23,450.89-148.14c6.01-3.68,9.87-10.14,10.05-17.23c5.2-171.65-7.45-342.41-55.72-512.44
		c-59.85-210.33-155.05-403.87-285.61-580.64c-9.87-13.28-23.87-27.99-37.24-32.03c-95.47-28.8-193.81-46.93-295.03-54.38
		c-168.69-12.29-355.87,23.69-522.4,74.83c-170.75,52.49-330.56,133.43-479.51,242.81c-66.85,49.08-108.66,80.94-125.53,95.47
		c-13.37,11.49-38.94,25.84-52.76,26.74c-142.04,9.42-267.57,28.08-376.59,55.99c-242.27,61.82-457.89,179.82-646.95,353.98
		c-88.11,81.21-159.81,155.23-215.08,222.08c-36.25,43.79,28.98,200.45,53.21,250.34c111.89,230.34,268.2,414.37,470.99,580.73
		c17.32,14.18,58.23,44.86,122.66,91.97c141.86,103.91,299.61,182.33,469.55,264.61c21.18,10.23,33.38,10.32,53.21-0.18
		c90.54-48.09,177.04-105.16,259.5-171.29c57.52-46.12,94.39-77.17,110.82-93.23c13.82-13.55,24.14-25.03,31.05-34.64
		c2.6-3.68-0.63-8.7-5.11-7.81c-85.78,17.41-173.99,16.06-250.52-37.15c-62-42.98-92.6-99.78-91.97-170.22
		c1.26-139.62,132.62-206.2,251.78-223.43c5.65-0.81,8.61-7.18,5.56-12.02c-77.8-124.19-175.15-232.4-291.89-324.73
		c-63.17-49.98-111.26-72.68-192.92-106.96c-21.36-8.97-32.57-32.57-26.11-54.82l0.72-2.42c7.36-23.15,34.55-33.29,55.18-20.55
		l65.68,40.38C1438.33,1489.46,1440.67,1488.3,1440.76,1486.14 M1668.4,2123.31l64.78-23.78c7-2.6,14.89-1.44,20.91,2.96
		c38.76,28.27,2.78,53.21-24.23,63.89c-38.67,15.34-61.64,23.87-68.91,25.75c-6.01,1.52-9.69,7.63-8.08,13.64l11.57,42.98
		c1.88,7.09,10.14,10.32,16.42,6.46c22.97-14.09,48.81-29.61,77.53-46.57c48.45-28.62,84.79,28.18,39.93,53.39
		c-14.09,7.9-38.67,20.82-73.76,38.85c-5.2,2.69-5.47,10.14-0.36,13.19c31.5,18.93,66.31,26.74,104.53,23.6
		c125.35-10.32,255.1-26.56,389.34-48.81c53.75-8.88,119.07-28.62,195.88-59.22c18.84-7.54,40.11,2.78,45.85,22.25l0.81,2.51
		c6.37,19.29-3.68,40.2-22.79,47.2l-85.78,31.41c-3.05,1.17-5.11,3.95-5.2,7.18l-6.01,157.29c-0.18,5.38,4.22,9.78,9.6,9.6
		c66.67-2.6,148.95,34.99,156.76,108.75c7.27,69.09-20.73,137.46-74.92,179.01c-65.95,50.34-162.86,67.12-216.97,92.6
		c-53.84,25.3-125.44,82.64-137.82,144.73c-1.08,5.2-1.08,9.15,0,11.75c1.61,3.95,6.91,4.85,9.69,1.62
		c22.88-25.93,67.66-80.31,94.13-83.27c24.14-2.69,37.24,8.17,39.3,32.48c0.54,6.91-2.51,13.64-8.08,17.86
		c-27.1,19.92-53.66,45.4-79.77,76.36c-2.24,2.69-1.08,6.82,2.24,7.99c28.44,9.87,55.99,13.82,87.76,9.33
		c140.7-19.74,273.49-58.5,398.49-116.29c3.86-1.79,4.85-6.73,1.97-9.87c-122.12-132.71-110.28-341.87-18.22-485.35
		c28.8-44.77,74.3-79.86,136.48-105.07c15.43-6.28,33.11,0.45,40.38,15.52l1.17,2.33c7.72,16.06,1.08,35.26-14.99,43.07
		c-62.54,30.42-106.78,74.39-132.71,131.9c-65.68,145.81-44.15,345.46,126.25,406.74c24.23,8.7,72.95,13.82,98.61,40.38
		c6.91,7.27,8.97,16.96,4.94,23.6c-5.74,9.51-14.18,17.32-25.3,23.51c-61.46,34.01-135.49,85.87-222.26,155.5
		c-58.86,47.29-143.12,145.18-115.48,226.03c1.26,3.77,6.46,4.22,8.34,0.72c14.8-28,67.48-132.17,107.23-119.79
		c14.27,4.4,25.21,13.64,32.66,27.73c2.78,5.2,2.15,11.58-1.53,16.24c-35,44.24-59.04,78.6-73.76,126.16
		c-0.63,2.06,0.9,4.22,3.05,4.4c28.44,1.35,56.35-7,83.81-25.03c44.68-29.34,122.84-92.51,195.34-137.56
		c59.13-36.79,129.66-73.76,179.28-105.16c39.48-25.03,77.62-57.43,99.87-88.11c30.96-42.53,50.88-68.11,59.85-76.81
		c41.72-40.2,66.76-65.32,75.1-75.28c97.18-115.39,138.54-287.22-0.27-392.03c-12.11-9.06-40.83-23.87-86.32-44.42
		c-150.03-67.74-256.72-154.42-288.3-322.4c-12.65-67.3-11.57-130.47,3.23-189.42c13.55-54.11,33.56-84.97,64.34-127.59
		c1.97-2.78,1.43-6.64-1.26-8.79c-29.7-23.24-56.8-51.06-81.11-83.45c-41.01-54.64-84.08-114.94-129.03-180.89
		c-5.29-7.72-15.97-15.88-32.03-24.59c-3.32-1.79-7.36-1.88-10.86-0.45c-95.92,41.28-160.35,73.22-253.4,43.16
		c-52.85-17.14-65.59-77.8-86.5-106.42c-34.28-46.75-79.59-78.42-136.03-95.2c-67.66-20.01-114.76-34.73-141.32-44.06
		c-86.86-30.42-128.49-91.34-124.99-182.6c0.18-3.95-3.05-7.18-7-7.18c-39.39,0.09-68.55,3.86-108.57,18.84
		c-5.56,2.06-40.2,16.96-104,44.68c-22.97,9.96-44.6,16.24-58.68-7.54c-1.79-3.05-2.51-6.55-2.24-10.05
		c3.23-35.71,9.69-84.26-2.15-104.36c-26.02-44.24-48.01-88.11-65.95-131.81c-2.96-7.09-10.5-10.95-17.77-9.06
		c-6.73,1.79-11.75,6.28-14.98,13.55c-9.69,21.8-20.28,55.36-31.76,100.68c-29.79,117.46-37.24,232.94-47.11,355.33
		c-0.54,6.91,2.69,13.64,8.43,17.59c83,56.98,156.94,126.25,223.52,200.99c2.33,2.6,6.37,2.78,8.88,0.27
		c14.18-13.91,32.39-32.12,52.04-20.37c27.37,16.24,15.79,47.83-1.62,65.5c-3.59,3.59-3.77,9.33-0.45,13.19
		c40.02,46.39,72.68,98.25,98.07,155.77c1.71,3.95,5.47,6.55,9.78,6.73l25.39,0.9c4.13,0.18,7.18-3.68,6.1-7.63l-12.38-45.85
		c-1.35-5.21-6.73-8.26-11.93-6.82c-23.24,6.64-36.97-3.23-41.01-29.61c-1.79-11.57,6.28-22.43,17.86-24.14
		c27.19-3.86,49.71-9.06,67.66-15.61c13.91-5.03,24.59-5.2,32.12-0.54c25.93,16.06,14,42.35-4.22,60.57
		c-2.15,2.15-2.33,5.65-0.36,7.99c7.45,9.06,13.28,26.38,17.5,52.04c0.9,5.29,5.83,8.97,11.13,8.35l181.16-22.43
		c1.44-0.18,2.96,0,4.4,0.54c22.43,8.79,29.79,23.42,21.98,43.79c-9.78,25.75-92.6,37.87-113.87,39.21
		c-139.98,8.34-249.18,11.57-365.29,56.89c-25.84,10.05-60.21,30.96-77.08,51.68C1663.19,2121.07,1665.62,2124.3,1668.4,2123.31
		L1668.4,2123.31z"/><path class="st0" d="M2250.38,1572.82l0.27,0.27c12.47,13.55,12.29,34.55-0.45,47.83c-45.85,47.74-137.47,91.07-203.42,71.15
		c-25.66-7.81-39.93-28.17-25.93-53.93c4.04-7.45,13.73-11.49,24.32-10.14c37.78,4.84,63.08,7.54,97.36-10.68
		c22.52-11.93,42.26-26.92,59.22-44.86C2215.03,1558.47,2237.37,1558.64,2250.38,1572.82L2250.38,1572.82z"/><path class="st0" d="M528.84,1697.64c8.16,16.42,1.34,36.34-15.05,44.47l-2.09,1.03c-16.42,8.15-36.34,1.42-44.47-15.05
		l-56.3-113.91c-8.16-16.42-1.34-36.34,15.05-44.47l2.09-1.03c16.42-8.15,36.34-1.42,44.47,15.05L528.84,1697.64L528.84,1697.64z"/><path class="st0" d="M675.78,1946.88c10.62,15.1,7.03,35.91-8.03,46.52l-1.47,1.04c-15.05,10.61-35.87,7.03-46.52-8.04
		l-86.58-122.74c-10.62-15.1-7.03-35.91,8.03-46.52l1.47-1.04c15.05-10.61,35.87-7.03,46.52,8.03L675.78,1946.88L675.78,1946.88z"/><path class="st0" d="M870.39,2161.79c13.42,13.56,13.33,35.55-0.26,48.98l-1.4,1.39c-13.64,13.44-35.53,13.35-48.98-0.26
		l-99.47-100.52c-13.42-13.56-13.33-35.55,0.26-48.98l1.4-1.39c13.64-13.44,35.53-13.35,48.98,0.26L870.39,2161.79L870.39,2161.79z"/><path class="st0" d="M1095.25,2395.22c-11.7,14.42-32.79,16.57-47.21,4.88l-107.52-87.37c-14.36-11.66-16.61-32.83-4.88-47.21
		l1.25-1.53c11.7-14.42,32.79-16.57,47.21-4.88l107.52,87.37c14.36,11.66,16.61,32.83,4.88,47.21L1095.25,2395.22L1095.25,2395.22z"/><path class="st0" d="M1325.21,2532.49c-9.63,16.23-30.54,21.61-46.71,11.99l-100.56-59.47c-16.25-9.6-21.55-30.51-11.99-46.7
		l1.1-1.85c9.63-16.23,30.54-21.61,46.71-11.99l100.56,59.47c16.25,9.6,21.54,30.51,11.99,46.7L1325.21,2532.49L1325.21,2532.49z"/><path class="st0" d="M1543.59,2632.08c-6.56,16.51-25.31,24.67-41.81,18.09l-77.09-30.52c-16.51-6.51-24.68-25.26-18.09-41.81
		l1.12-2.84c6.56-16.51,25.31-24.67,41.81-18.09l77.09,30.52c16.51,6.51,24.68,25.26,18.09,41.81L1543.59,2632.08L1543.59,2632.08z"/></g></svg>