<svg xmlns="http://www.w3.org/2000/svg" viewBox="0 0 100 100"><g transform="translate(10.98357101847158, 1) scale(0.27643119580306486) translate(0.88, 0.59)"><path d="M84.42,71.11a57.35,57.35,0,0,1,1.92-16.34A17.49,17.49,0,0,1,87,52.6c1.78-4.18,4.28-5.08,7.85-2.39a77.29,77.29,0,0,1,8.17,7.4,5.29,5.29,0,0,0,5.56,1.65,166.32,166.32,0,0,1,18.65-2.14c6.73-.49,13.48-.86,20.21-.77a125.35,125.35,0,0,1,15.06,1.53c2.79.38,4.78,0,6.79-2.4a42.69,42.69,0,0,1,8.32-7.18c3.7-2.55,7-1.76,9.4,2.07a25.39,25.39,0,0,1,2.56,6.33c.5,1.67,1,1.06,1.64.27q8.12-10.61,16.19-21.23c9.09-12,19.68-22.25,32.65-30A42.87,42.87,0,0,1,257.81.11c6.5-.7,11.7,2,16.1,6.34a23.55,23.55,0,0,1,7.33,17.67c0,7.12-2.22,13.55-4.87,19.91-2.93,7.06-6.21,14-9.12,21.06-2,4.79-3.51,9.74-5.29,14.61-2.57,7-5.49,13.92-7.7,21a127.43,127.43,0,0,0-4.77,24.71c-1.61,15.65-.87,31.3-.69,47,.06,5.18,1,10.34,1.47,15.52q.57,5.94,1.13,11.89a280,280,0,0,1,1.11,34.51c-.15,5.51.08,11-1.47,16.44a4.13,4.13,0,0,0,.53,2.93c6.26,10.18,10,21.28,12.26,33,1.73,8.95,2.28,17.93.54,26.93-1.22,6.34-3.92,12-9.24,15.93a55.7,55.7,0,0,1-9.24,6c-7.89,3.71-15.94,7.13-24.6,8.68-3.61.64-7.26,1.13-10.92,1.44-5.8.48-11.63.72-17.44,1.11-5.05.35-10.09,1-15.14,1.06-4.86,0-9.73-.47-14.58-.89a7.91,7.91,0,0,0-4.41.54c-6.15,2.94-12.77,4.11-19.49,4.8-5.18.54-10.37,1-15.56,1.45a41.43,41.43,0,0,1-4.6.14c-9.66-.24-19.33-.41-29-.81-12.11-.51-24.23-1-36.31-1.92A140.43,140.43,0,0,1,25,345.75c-1.47-.44-2.9-1-4.35-1.49C8.37,340,3.36,330.14.51,318.36-.88,312.63.92,307.42,2,302.11a83.37,83.37,0,0,1,10.42-26.33A12.32,12.32,0,0,0,14,266.19a62.45,62.45,0,0,1-1.25-10.93c-.4-9.19-.94-18.4-.78-27.59.18-10.42.72-20.86,1.76-31.23,1.11-11.09,2.33-22.2,5.08-33.06a74,74,0,0,0,1.94-9.4,23,23,0,0,0-.11-7.77Q17.7,133.52,14.16,121c-3.69-13.09-6.46-26.36-9-39.7a134.21,134.21,0,0,1-2.61-32C3.12,38,4.92,27,10.88,17.23A58.94,58.94,0,0,1,20.1,5.3C24.74.84,30.45,1,36.33,3.39c7.27,3,11.88,8.58,15.43,15.12a132.65,132.65,0,0,1,7,15.42c4.58,11.82,9.17,23.63,14.8,35,1.89,3.83,4.16,7.48,6.37,11.15.48.8,1.64,2,2.14,1.85a3.14,3.14,0,0,0,2.43-3c0-1.69,0-3.38,0-5.07C84.41,73,84.42,72,84.42,71.11ZM24.59,47.65c0-2.46-.17-4.93,0-7.37a47.57,47.57,0,0,1,4.83-17.55c1.21-2.42,2.71-3.51,3.55-2.79,1.73,1.47.69,3,0,4.56a7.83,7.83,0,0,0-.16,6.58c2.42,6.41,4.43,13,6.83,19.38,5.74,15.4,13.61,29.74,22.08,43.76,1.59,2.62,3.37,5.12,5.18,7.6,1.08,1.47,1.43,1.4,1.9-.2a36.47,36.47,0,0,1,7.85-13.88c1.22-1.38,1.33-2.3.28-3.89C69.12,72,63.33,59.25,58.55,46c-2.27-6.31-4.65-12.59-7.25-18.77-3.52-8.37-8.46-15.61-17-19.71C29.35,5.1,27.63,5.18,23.57,8.81A44.16,44.16,0,0,0,10.8,29.19C8.21,37.62,7.43,46.33,7.28,55A99.45,99.45,0,0,0,9.81,77.79c2.48,11.48,4.66,23,7.37,34.45,2.35,9.94,5.28,19.74,7.93,29.6,1.15,4.28,2.37,8.54,1.15,13-.88,3.24-1.8,6.48-2.36,9.78C22.47,173.1,21.11,181.56,20,190c-.62,4.55-.78,9.17-1.08,13.75-.53,8.11-1.34,16.22-1.43,24.34-.09,8.43.49,16.86.86,25.29.13,3.06.52,6.1.8,9.15.07.73.37,1.14,1.14.66,1.39-.86,2.91-1.48,4.07.09s.08,2.9-.74,4.21c-.16.27-.36.51-.5.78-3.65,7.05-7.76,13.84-10.93,21.17-3,6.83-4.27,14-5.85,21.15a12.12,12.12,0,0,0,0,5.49,88.34,88.34,0,0,0,3.9,11.71,17.16,17.16,0,0,0,9.21,9.26,85.26,85.26,0,0,0,11.7,4c13.44,3.43,27.19,4.43,41,4.78,1.84.05,3.69.08,5.53.18,8.27.47,16.54,1.33,24.81,1.34,9.65,0,19.31.56,29-.57s19.38-2.06,28.37-6.69c4.72-2.43,9.06-5,12.64-8.95a75.19,75.19,0,0,1,6.37-6,2.89,2.89,0,0,1,3.82-.27c1.24,1,.8,2.5,0,3.73A17.9,17.9,0,0,1,181,330.8c-3.07,3.21-6.19,6.37-9.27,9.57a9.36,9.36,0,0,0-.9,1.38,5.74,5.74,0,0,0,1.35.21c4.28-.24,8.56-.52,12.85-.78,6.43-.39,12.87-.72,19.29-1.17,4.28-.3,8.55-.73,12.82-1.18,8.18-.87,15.61-4.29,23.12-7.28a56.44,56.44,0,0,0,10-5.62,18.85,18.85,0,0,0,8.18-11.85c1.13-4.93,1.95-10,1.23-15.05a151.79,151.79,0,0,0-3.73-19.34c-1.68-6-4.33-11.74-6.65-17.56a16.18,16.18,0,0,0-2-2.94c-.62.86-1.24,1.73-1.87,2.59-1.89,2.59-3.73,5.23-5.71,7.76a6.5,6.5,0,0,1-2.49,2,2.82,2.82,0,0,1-2.45-.25,3.6,3.6,0,0,1-.67-2.44c0-.53.53-1.07.85-1.6,3-5,6.12-9.9,9-14.93a14.66,14.66,0,0,0,1.82-5.13,81.46,81.46,0,0,0,.93-11.45c-.05-8.28-.31-16.57-.68-24.84-.26-6-.56-12-1.3-17.88a315,315,0,0,1-2.44-33.47,272.17,272.17,0,0,1,1.64-37.21,130.23,130.23,0,0,1,7.8-32c6.14-15.82,12.93-31.39,19.41-47.08a69.46,69.46,0,0,0,5-16.17c1.39-9.22-2-16-9.45-20.77a11.07,11.07,0,0,0-8.35-1.61,46.21,46.21,0,0,0-13,4.26,84.78,84.78,0,0,0-22.87,17.5c-4.34,4.76-8.51,9.69-12.55,14.71-6,7.42-11.69,15-17.57,22.49a6.63,6.63,0,0,0-1.57,5c.44,4.88.65,9.78,1,14.66a35.29,35.29,0,0,0,.74,4.06,3.35,3.35,0,0,0,.39.75,3.38,3.38,0,0,0,.75-.5c.38-.48.67-1,1-1.52,7.8-10.78,15.5-21.64,23.46-32.3,3.75-5,8-9.66,12-14.48,4.82-5.77,9.55-11.6,14.47-17.27a26.37,26.37,0,0,1,5.53-4.8c2.94-1.91,5.44-1,6.51,2.2a28.8,28.8,0,0,1,1.23,6.26c.57,5.81-2.12,10.7-4.76,15.55-11,20.22-23.88,39.25-36.32,58.55A77.75,77.75,0,0,1,202.27,117c-2.9,2.5-6.12,4.64-8.94,7.21A25.41,25.41,0,0,1,181.52,130c-6.68,1.54-13.35,3.12-20,4.67-7.63,1.76-14.75,4.91-22,7.85a11.69,11.69,0,0,1-5.31,1.08c-7.61-.72-15.22-1.53-22.78-2.69-8.42-1.28-16.79-2.95-25.17-4.51-2.55-.47-5-1.38-7.59-1.68a24.81,24.81,0,0,1-11.29-4.36c-9.74-6.52-17.48-14.92-24.2-24.3C30.72,88.62,24.76,69,24.59,47.65ZM253.26,25.57c0-.78,0-1.24,0-1.7-.09-1.06-.22-2.11-.34-3.17a30.19,30.19,0,0,0-2.56,1.89,24.67,24.67,0,0,0-2.53,2.68c-4.15,5.1-8.27,10.24-12.42,15.35-5.39,6.65-10.9,13.21-16.16,20-4.6,5.91-9,12-13.35,18.09-3.08,4.37-5.84,9-8.82,13.42a3.48,3.48,0,0,0,0,4.21c1.69,2.72,3.37,5.46,4.88,8.28,2.38,4.47,2.31,4.5,5.23.37.09-.12.14-.27.22-.4,7.08-10.72,14.37-21.31,21.18-32.19,7.47-11.93,14.55-24.1,21.7-36.23C252.22,32.82,253.8,29.3,253.26,25.57ZM28.07,47.31c.39,3.53.65,6.87,1.15,10.19.76,5,1.45,9.94,2.59,14.82,2.71,11.62,8.3,21.91,15,31.66a97.46,97.46,0,0,0,18,19.49,8.54,8.54,0,0,0,1.58.85,9,9,0,0,0,.44-2.06c-.07-2.89-.61-5.83-.25-8.67a7.48,7.48,0,0,0-1.42-5.45c-5.47-8.66-11.12-17.24-16-26.23A265.62,265.62,0,0,1,31.85,41.16c-.5-1.45-1.12-2.84-1.72-4.25a3.49,3.49,0,0,0-.54-.69,2.93,2.93,0,0,0-.32.76C28.85,40.47,28.45,44,28.07,47.31Zm107.18,57.48a23.85,23.85,0,0,0,2.33,10.73c3.12,6.07,10.37,12.36,21.68,9.79,9.89-2.25,16.1-9.7,16.38-19,.33-10.69-6.45-19.58-16.77-22.59a15.58,15.58,0,0,0-16.11,3.91C137.77,92.41,135.65,98.52,135.25,104.79Zm-54.49.48c-.69,11.06,10.06,20.27,20.17,20.11,12.54-.2,20.3-9.87,20.18-20.14C121,93,111.76,85,100.41,85.06,88.48,85.16,80.28,95.67,80.76,105.27Z"/><path d="M141.79,105a21.5,21.5,0,0,1,4.09-11.6c3.55-5.12,11.57-5.64,16.21-1.49,3.67,3.28,6.28,7,6.8,12a13,13,0,0,1-2.83,10.21,15,15,0,0,1-10.72,5.52C148,120.29,142,115.49,141.79,105Z"/><path d="M100.43,91a14,14,0,0,1,14.49,14.46,14.83,14.83,0,0,1-14.35,14.41c-7.56.27-14.33-5.75-14.51-14.44C85.92,98.35,91.68,90.45,100.43,91Z"/></g></svg>