<?xml version="1.0" encoding="UTF-8" standalone="no"?>
<!DOCTYPE svg PUBLIC "-//W3C//DTD SVG 1.1//EN" "http://www.w3.org/Graphics/SVG/1.1/DTD/svg11.dtd">
<svg xmlns="http://www.w3.org/2000/svg" version="1.1" viewBox="0.00 0.00 1024.00 1024.00">
<path fill="#010101" d="
  M 801.95 481.09
  C 775.13 461.45 744.06 447.64 712.10 439.37
  A 0.94 0.91 27.8 0 0 711.18 439.64
  Q 706.53 444.79 699.01 452.30
  Q 694.71 456.60 694.04 461.78
  C 693.35 467.08 693.09 471.38 693.85 476.41
  C 696.18 491.83 701.47 504.76 708.27 519.82
  C 711.63 527.28 713.91 534.22 716.25 541.74
  A 0.35 0.35 0.0 0 1 715.64 542.05
  L 706.20 529.84
  A 0.21 0.21 0.0 0 0 705.83 530.02
  Q 711.06 552.94 710.33 576.17
  A 0.23 0.23 0.0 0 1 709.89 576.25
  L 704.13 562.58
  A 0.16 0.16 0.0 0 0 703.82 562.64
  C 704.15 578.29 702.61 593.50 698.44 608.51
  A 0.35 0.35 0.0 0 1 697.76 608.50
  L 696.14 601.63
  A 0.46 0.46 0.0 0 0 695.24 601.66
  C 694.68 604.90 693.73 610.42 693.51 614.50
  Q 692.54 632.83 690.33 650.59
  A 8.43 8.40 -52.4 0 0 690.86 654.75
  Q 697.17 670.84 701.55 685.68
  C 705.73 699.81 707.31 714.38 705.38 729.56
  Q 702.07 755.54 686.30 777.03
  Q 684.99 778.82 684.07 780.21
  A 0.38 0.38 0.0 0 0 684.24 780.77
  Q 700.77 787.96 705.06 804.45
  Q 707.40 813.44 703.10 822.64
  A 0.40 0.40 0.0 0 0 703.45 823.21
  Q 730.32 824.37 751.16 826.84
  Q 754.48 827.24 757.01 828.41
  A 0.83 0.83 0.0 0 1 756.91 829.96
  Q 752.80 831.25 746.75 832.03
  C 727.63 834.50 704.92 835.18 690.76 836.00
  Q 678.91 836.68 660.24 837.23
  Q 555.87 840.31 443.29 839.04
  C 422.52 838.80 399.77 838.83 381.91 838.07
  C 367.94 837.49 355.34 837.48 338.70 836.85
  Q 312.53 835.87 299.03 835.16
  C 287.63 834.56 271.55 833.55 257.68 831.36
  Q 255.63 831.04 253.17 830.07
  A 0.93 0.92 42.7 0 1 253.10 828.38
  Q 255.29 827.31 258.73 826.69
  Q 266.18 825.36 274.50 824.80
  Q 295.98 823.33 310.07 822.47
  A 0.19 0.19 0.0 0 0 310.11 822.09
  C 298.22 818.62 286.06 814.19 275.17 807.79
  Q 255.03 795.96 239.19 778.27
  A 0.53 0.53 0.0 0 1 239.79 777.43
  L 244.98 779.58
  A 0.39 0.39 0.0 0 0 245.41 778.95
  C 220.98 753.35 211.11 719.66 212.49 684.79
  Q 213.13 668.58 214.84 653.14
  A 0.44 0.44 0.0 0 1 215.70 653.06
  L 219.11 663.84
  A 0.19 0.18 41.2 0 0 219.47 663.82
  Q 223.59 636.18 237.23 610.16
  A 0.43 0.43 0.0 0 1 238.03 610.40
  L 236.97 621.71
  A 0.33 0.32 -26.4 0 0 237.57 621.91
  Q 242.25 614.43 244.16 611.67
  C 255.66 595.00 269.73 581.12 288.04 572.82
  A 0.38 0.38 0.0 0 1 288.50 573.41
  L 280.02 583.93
  A 0.25 0.25 0.0 0 0 280.34 584.30
  C 293.81 576.52 311.60 571.81 327.03 573.99
  Q 333.41 574.90 344.12 577.16
  A 0.51 0.51 0.0 0 1 344.31 578.07
  Q 343.72 578.50 343.50 579.05
  Q 343.35 579.43 344.22 579.75
  C 356.69 584.37 367.29 594.99 370.39 608.05
  C 374.51 625.37 360.86 636.41 344.60 634.37
  Q 340.71 633.88 331.74 631.60
  C 313.81 627.05 299.59 634.59 289.35 648.92
  C 277.91 664.94 275.13 687.99 278.87 706.98
  C 286.16 743.99 317.37 763.42 353.99 762.64
  A 0.57 0.57 0.0 0 0 354.54 761.97
  Q 347.96 723.98 360.47 687.37
  A 0.30 0.30 0.0 0 0 360.00 687.04
  L 354.28 691.46
  A 0.33 0.32 81.1 0 1 353.78 691.09
  C 358.92 676.57 366.44 663.60 374.66 651.16
  A 0.29 0.29 0.0 0 0 374.31 650.74
  L 368.07 653.37
  A 0.53 0.53 0.0 0 1 367.44 652.56
  C 373.16 644.99 377.79 638.94 382.41 631.80
  Q 387.61 623.76 398.22 607.55
  A 0.27 0.27 0.0 0 0 397.89 607.16
  Q 394.47 608.59 390.73 608.78
  A 0.63 0.63 0.0 0 1 390.27 607.69
  Q 401.08 597.64 409.62 586.45
  A 0.32 0.32 0.0 0 0 409.31 585.94
  L 399.87 587.73
  A 1.05 1.04 62.2 0 1 398.94 587.44
  Q 398.62 587.13 399.21 586.71
  Q 405.21 582.38 409.18 578.69
  Q 421.87 566.91 432.48 555.46
  A 0.27 0.26 16.5 0 0 432.24 555.02
  Q 427.78 555.82 423.20 556.11
  Q 422.66 556.15 422.42 555.91
  A 0.40 0.39 -38.9 0 1 422.49 555.29
  C 440.41 544.26 456.36 530.85 468.51 513.77
  Q 470.59 510.84 476.75 497.63
  A 0.09 0.09 0.0 0 0 476.63 497.51
  L 466.27 503.49
  A 0.45 0.45 0.0 0 1 465.66 502.86
  Q 472.64 492.16 476.94 484.71
  Q 482.65 474.79 484.97 468.02
  Q 486.48 463.60 484.29 459.36
  A 2.49 2.48 6.7 0 0 483.71 458.63
  L 478.29 453.98
  A 0.94 0.93 -36.0 0 0 477.31 453.83
  C 448.90 465.99 421.93 481.35 398.87 501.16
  A 0.18 0.10 37.3 0 1 398.69 501.13
  L 398.64 501.10
  A 0.06 0.05 -50.7 0 1 398.64 501.02
  Q 400.49 498.84 401.98 497.48
  Q 434.02 468.12 474.71 451.54
  A 0.09 0.09 0.0 0 0 474.74 451.39
  L 461.11 437.76
  A 0.47 0.46 -30.0 0 0 460.66 437.64
  C 442.30 442.57 424.14 449.60 407.14 458.60
  A 0.16 0.16 0.0 0 1 406.92 458.54
  L 406.92 458.53
  A 0.16 0.15 58.7 0 1 406.97 458.31
  Q 431.50 443.26 458.59 435.37
  A 0.23 0.22 60.5 0 0 458.69 435.00
  Q 450.66 426.55 443.67 416.26
  A 0.88 0.88 0.0 0 0 442.81 415.88
  Q 411.52 420.27 382.26 431.52
  A 0.25 0.24 68.9 0 1 381.95 431.38
  L 381.95 431.37
  A 0.22 0.22 0.0 0 1 382.06 431.08
  Q 410.31 418.56 440.45 413.14
  A 0.43 0.43 0.0 0 0 440.73 412.47
  Q 433.58 402.36 432.88 390.33
  A 0.46 0.46 0.0 0 0 432.10 390.03
  L 427.12 395.01
  A 0.51 0.51 0.0 0 1 426.26 394.53
  Q 427.81 387.70 429.93 378.30
  C 431.44 371.61 431.51 364.51 433.05 358.29
  Q 435.41 348.80 439.36 338.32
  A 1.81 1.80 -50.3 0 0 439.22 336.77
  C 432.15 325.04 427.90 312.88 427.88 298.99
  Q 427.87 291.54 428.41 283.73
  A 5.51 5.30 41.6 0 0 428.28 282.10
  Q 422.17 255.72 424.53 228.68
  C 425.50 217.56 427.07 207.59 432.16 198.43
  C 437.24 189.29 445.65 189.24 454.71 191.82
  Q 462.01 193.90 469.95 198.07
  Q 492.67 209.97 512.95 225.23
  C 518.97 229.76 524.79 235.10 530.65 239.97
  A 1.03 1.02 -35.2 0 0 531.65 240.14
  C 563.25 228.62 597.47 226.75 630.18 233.67
  Q 631.64 233.97 634.13 234.37
  A 1.05 1.03 26.2 0 0 635.03 234.07
  C 643.22 225.65 648.73 219.53 655.89 213.22
  C 668.50 202.11 682.52 191.20 697.20 183.24
  C 707.77 177.51 721.26 170.83 729.92 184.89
  Q 733.65 190.94 735.28 196.95
  Q 744.48 230.88 739.81 266.33
  A 6.79 6.60 44.2 0 0 739.87 268.45
  Q 741.78 278.62 741.95 288.74
  Q 742.21 304.87 734.57 319.48
  A 2.06 2.04 44.7 0 0 734.59 321.42
  Q 741.24 333.57 744.46 344.57
  Q 748.01 356.69 749.19 359.54
  Q 749.89 361.24 754.87 376.46
  A 0.42 0.41 -81.6 0 1 754.24 376.93
  L 748.77 373.08
  A 0.39 0.38 18.6 0 0 748.16 373.38
  C 747.95 380.36 747.35 386.70 744.51 392.52
  Q 743.14 395.31 742.52 396.68
  A 0.36 0.35 12.6 0 0 742.84 397.18
  Q 777.89 398.08 811.68 408.44
  A 0.21 0.21 0.0 0 1 811.81 408.72
  L 811.69 409.00
  A 0.04 0.04 0.0 0 1 811.64 409.03
  Q 777.28 400.33 740.97 400.07
  A 0.95 0.95 0.0 0 0 740.14 400.56
  Q 734.56 410.58 727.81 419.45
  A 0.24 0.24 0.0 0 0 727.96 419.83
  Q 754.97 424.12 780.63 434.64
  Q 784.81 436.36 788.22 438.24
  A 0.15 0.14 -64.4 0 1 788.28 438.43
  L 788.28 438.44
  A 0.12 0.12 0.0 0 1 788.13 438.49
  Q 758.48 426.62 726.36 422.42
  A 1.08 1.08 0.0 0 0 725.38 422.81
  L 714.67 436.10
  A 0.30 0.30 0.0 0 0 714.82 436.57
  C 745.65 445.12 775.12 459.02 800.01 478.97
  Q 800.60 479.45 802.03 481.00
  A 0.06 0.06 0.0 0 1 801.95 481.09
  Z
  M 458.62 414.71
  L 472.59 430.86
  A 1.29 1.29 0.0 0 0 473.86 431.27
  Q 513.74 421.80 554.98 425.39
  A 0.61 0.61 0.0 0 1 555.53 426.06
  L 555.53 426.08
  A 0.66 0.66 0.0 0 1 554.85 426.68
  Q 515.13 425.32 476.77 433.74
  A 0.46 0.46 0.0 0 0 476.57 434.53
  L 488.87 445.34
  A 0.72 0.71 -33.8 0 0 489.60 445.48
  Q 516.27 436.11 545.02 432.60
  Q 552.13 431.73 555.51 431.81
  A 0.23 0.22 83.6 0 1 555.73 431.99
  L 555.79 432.27
  A 0.43 0.43 0.0 0 1 555.42 432.80
  Q 533.94 435.49 514.68 440.95
  Q 508.76 442.63 493.33 447.55
  A 0.52 0.52 0.0 0 0 493.18 448.46
  Q 532.40 477.00 580.78 482.56
  A 0.38 0.37 -84.2 0 0 581.20 482.21
  Q 581.22 481.98 580.99 481.79
  Q 576.50 478.07 574.52 473.38
  A 0.23 0.23 0.0 0 1 574.86 473.10
  Q 595.56 487.33 617.03 474.35
  C 618.71 473.34 620.66 471.48 621.76 470.66
  A 0.33 0.33 0.0 0 1 622.27 471.05
  Q 620.12 476.30 616.26 480.24
  A 0.20 0.20 0.0 0 0 616.46 480.57
  C 645.97 472.64 674.11 457.54 696.29 436.07
  A 0.56 0.56 0.0 0 0 696.02 435.12
  Q 668.53 428.81 639.89 427.89
  A 0.40 0.39 84.2 0 1 639.52 427.58
  L 639.44 427.25
  A 0.58 0.57 83.1 0 1 639.99 426.54
  Q 669.74 426.19 698.90 432.75
  A 1.36 1.34 26.6 0 0 700.20 432.33
  L 709.97 421.21
  A 0.34 0.34 0.0 0 0 709.75 420.65
  Q 674.50 417.48 639.47 421.62
  A 0.46 0.46 0.0 0 1 638.97 421.04
  L 638.98 421.01
  A 1.07 1.06 2.6 0 1 639.82 420.25
  Q 676.42 413.70 712.26 417.88
  A 1.05 1.05 0.0 0 0 713.23 417.45
  L 724.80 401.02
  A 0.46 0.46 0.0 0 0 724.42 400.30
  Q 711.16 400.49 697.77 402.08
  Q 666.07 405.86 637.28 415.42
  A 0.54 0.53 64.0 0 1 636.66 415.20
  L 636.51 414.95
  A 0.53 0.52 63.2 0 1 636.76 414.18
  Q 680.06 397.47 726.72 396.97
  A 1.22 1.20 -76.3 0 0 727.80 396.30
  L 733.29 385.60
  A 0.67 0.66 -73.1 0 1 733.95 385.24
  L 735.44 385.38
  A 0.69 0.69 0.0 0 0 736.19 384.74
  Q 736.83 375.32 734.15 366.38
  A 0.47 0.47 0.0 0 1 734.78 365.81
  L 739.24 367.65
  A 0.46 0.46 0.0 0 0 739.84 367.04
  Q 736.65 359.73 734.51 351.77
  C 731.39 340.12 726.35 330.61 720.29 319.91
  A 0.71 0.71 0.0 0 1 720.35 319.13
  Q 732.33 303.81 732.57 283.89
  A 0.30 0.30 0.0 0 0 732.02 283.73
  Q 725.38 294.39 713.51 299.74
  Q 712.99 299.98 712.65 299.88
  A 0.30 0.30 0.0 0 1 712.52 299.38
  C 718.26 293.89 722.36 288.93 726.53 281.08
  C 729.50 275.50 730.74 267.57 731.47 261.77
  Q 734.94 234.11 729.57 207.76
  C 727.91 199.63 724.22 180.39 711.26 185.52
  Q 704.72 188.10 700.71 190.70
  Q 684.82 200.95 669.38 215.89
  C 658.56 226.36 649.16 236.51 640.28 248.68
  A 0.65 0.65 0.0 0 1 639.59 248.93
  Q 613.60 242.39 594.24 242.22
  Q 575.27 242.05 556.68 246.19
  Q 545.85 248.60 531.43 253.74
  C 529.73 254.35 528.73 255.13 527.42 255.56
  A 0.93 0.92 61.8 0 1 526.41 255.25
  Q 520.89 248.02 509.00 237.26
  Q 491.70 221.59 474.23 210.51
  C 466.38 205.53 458.74 201.04 450.01 198.87
  Q 441.47 196.74 437.71 204.76
  Q 435.83 208.80 434.62 214.62
  C 430.19 235.91 431.93 257.72 436.49 278.75
  Q 441.05 299.75 457.75 312.58
  A 0.22 0.22 0.0 0 1 457.76 312.92
  Q 457.68 312.99 457.41 313.05
  A 0.73 0.67 -41.0 0 1 457.06 313.04
  Q 447.68 310.01 441.58 303.18
  Q 438.13 299.31 438.02 299.20
  A 0.28 0.28 0.0 0 0 437.54 299.43
  C 439.12 314.15 444.35 323.77 453.06 334.60
  A 0.61 0.60 37.3 0 1 453.15 335.23
  Q 447.00 348.97 444.04 361.94
  C 443.52 364.21 443.37 366.59 443.35 369.21
  C 443.32 373.86 441.98 377.40 440.20 383.60
  A 0.49 0.49 0.0 0 0 440.92 384.16
  L 445.13 381.73
  A 0.45 0.45 0.0 0 1 445.80 382.20
  Q 444.18 391.32 445.93 400.17
  A 0.79 0.79 0.0 0 0 446.89 400.78
  L 448.06 400.51
  A 0.88 0.87 66.8 0 1 449.01 400.90
  L 454.64 409.85
  A 2.11 2.09 -19.2 0 0 456.66 410.82
  Q 506.75 405.06 556.39 418.94
  A 0.67 0.66 -88.5 0 1 556.84 419.42
  L 556.93 419.81
  A 0.48 0.48 0.0 0 1 556.35 420.38
  Q 529.51 413.69 500.25 412.72
  Q 475.67 411.90 458.94 413.88
  A 0.51 0.50 -24.1 0 0 458.62 414.71
  Z
  M 540.50 604.64
  Q 556.30 612.68 566.49 627.55
  C 580.68 648.27 582.48 672.92 582.11 697.63
  A 0.43 0.42 -14.6 0 0 582.75 698.00
  Q 599.01 688.68 612.28 675.29
  Q 628.53 658.89 641.22 639.81
  A 0.18 0.18 0.0 0 1 641.54 639.97
  Q 630.41 674.77 605.22 699.73
  A 4.28 4.27 69.0 0 0 603.96 702.56
  C 602.66 730.14 599.91 755.63 596.72 785.28
  A 1.40 1.40 0.0 0 0 597.22 786.51
  C 609.30 796.53 615.79 810.84 608.23 826.02
  A 0.55 0.55 0.0 0 0 608.69 826.81
  Q 611.87 827.00 614.39 826.88
  C 625.22 826.37 628.61 814.24 625.51 805.52
  A 0.41 0.41 0.0 0 1 626.21 805.11
  Q 634.31 814.34 630.51 826.08
  A 0.46 0.46 0.0 0 0 630.95 826.68
  L 641.81 826.68
  A 1.67 1.54 32.1 0 0 642.40 826.57
  C 651.65 822.90 652.54 810.53 649.40 802.49
  A 0.38 0.37 -82.6 0 1 649.97 802.05
  Q 651.67 803.30 653.04 805.52
  Q 658.72 814.73 655.44 825.13
  A 0.45 0.45 0.0 0 0 655.97 825.70
  C 661.17 824.52 664.41 818.20 664.84 813.27
  C 665.41 806.87 662.13 800.45 657.14 795.83
  C 645.74 785.27 629.69 784.94 615.26 789.24
  A 0.36 0.35 -72.3 0 1 614.94 788.62
  C 624.69 781.03 638.06 777.96 649.98 781.84
  A 0.52 0.52 0.0 0 0 650.65 781.40
  Q 651.79 769.94 653.95 758.48
  Q 656.01 747.49 665.09 707.39
  Q 672.67 673.92 676.36 646.36
  Q 677.84 635.33 678.23 628.12
  A 0.28 0.28 0.0 0 0 677.73 627.93
  Q 671.61 635.63 662.65 642.46
  A 0.34 0.34 0.0 0 1 662.16 642.00
  Q 677.42 619.20 679.79 591.05
  A 0.21 0.20 -54.9 0 1 680.18 590.98
  C 682.07 595.13 682.55 599.24 683.48 603.55
  A 0.22 0.22 0.0 0 0 683.90 603.57
  Q 691.34 579.66 688.56 555.38
  A 0.41 0.41 0.0 0 1 689.32 555.11
  L 695.05 564.21
  A 0.26 0.25 28.0 0 0 695.52 564.07
  Q 694.68 544.55 686.60 526.83
  A 0.21 0.21 0.0 0 1 686.84 526.54
  C 688.15 526.86 692.00 530.74 696.30 534.59
  A 0.30 0.30 0.0 0 0 696.79 534.29
  Q 692.70 520.04 686.77 505.02
  Q 679.51 486.63 679.41 467.91
  A 0.38 0.38 0.0 0 0 678.82 467.60
  C 666.43 476.01 654.56 483.18 641.37 489.87
  Q 608.31 506.67 571.24 505.75
  C 549.10 505.20 530.36 504.32 511.24 511.50
  C 495.52 517.41 484.11 528.09 475.13 542.81
  Q 467.13 555.94 461.61 570.85
  A 0.28 0.28 0.0 0 1 461.07 570.72
  Q 463.14 553.45 468.32 537.75
  A 0.21 0.21 0.0 0 0 467.97 537.54
  L 429.92 575.58
  A 0.18 0.18 0.0 0 0 430.05 575.89
  L 435.56 575.89
  A 0.22 0.22 0.0 0 1 435.71 576.27
  Q 422.11 588.82 411.66 604.42
  A 0.37 0.37 0.0 0 0 412.11 604.97
  L 418.27 602.37
  A 0.46 0.46 0.0 0 1 418.79 603.10
  Q 407.90 615.77 400.34 630.07
  C 385.65 657.84 374.21 684.51 369.78 714.75
  C 363.22 759.60 378.50 817.26 430.72 825.75
  C 437.64 826.87 445.65 826.30 452.01 826.49
  A 3.61 3.61 0.0 0 0 455.23 824.73
  Q 459.51 817.50 455.70 810.02
  A 0.32 0.32 0.0 0 1 456.12 809.59
  Q 457.52 810.27 458.73 811.85
  Q 463.52 818.11 462.75 825.94
  A 0.51 0.51 0.0 0 0 463.26 826.50
  L 478.22 826.50
  A 4.74 4.71 -70.2 0 0 481.87 824.77
  C 486.96 818.58 486.54 810.20 482.92 803.13
  A 0.40 0.39 -84.1 0 1 483.52 802.64
  C 490.09 808.01 492.68 816.77 490.78 824.85
  A 0.34 0.34 0.0 0 0 491.23 825.25
  C 498.40 822.44 500.17 814.36 498.19 807.52
  Q 496.11 800.34 490.18 795.78
  C 469.73 780.03 439.83 791.54 422.77 806.73
  A 0.43 0.43 0.0 0 1 422.11 806.18
  Q 435.28 784.59 460.35 778.36
  A 1.34 1.32 -79.5 0 0 461.14 777.81
  Q 474.25 758.90 473.83 735.77
  C 473.21 701.72 455.36 668.30 422.88 655.38
  A 0.26 0.26 0.0 0 1 422.86 654.90
  Q 423.24 654.71 423.78 654.77
  Q 445.34 657.23 462.24 671.38
  A 0.23 0.23 0.0 0 0 462.61 671.16
  Q 457.12 642.79 463.32 614.46
  A 0.35 0.35 0.0 0 1 464.01 614.53
  Q 464.16 633.85 468.60 652.44
  Q 472.58 669.06 481.38 691.87
  Q 484.06 698.81 499.53 736.93
  Q 509.17 760.68 516.84 784.21
  C 519.80 793.31 521.91 803.89 524.22 811.96
  Q 528.84 828.11 544.42 828.59
  C 549.89 828.75 553.53 827.03 555.52 821.99
  Q 557.87 816.05 555.62 809.72
  A 0.41 0.40 -79.0 0 1 556.27 809.28
  C 561.26 813.73 562.56 821.75 561.16 827.96
  A 0.45 0.45 0.0 0 0 561.58 828.51
  Q 570.74 828.84 575.76 828.80
  Q 582.37 828.73 585.02 822.87
  Q 588.96 814.15 585.09 804.61
  A 0.45 0.44 -85.5 0 1 585.73 804.06
  Q 586.75 804.67 587.87 806.22
  Q 594.42 815.35 591.96 826.44
  A 0.48 0.48 0.0 0 0 592.68 826.95
  C 601.05 821.93 602.47 811.79 598.29 803.32
  Q 594.81 796.24 586.89 792.74
  C 573.12 786.66 557.49 789.02 544.71 796.43
  A 0.36 0.36 0.0 0 1 544.19 796.02
  Q 544.32 795.54 544.80 795.05
  C 555.67 783.90 570.33 779.02 585.81 782.30
  A 0.37 0.37 0.0 0 0 586.24 781.84
  Q 581.37 764.87 577.06 748.98
  Q 569.92 722.63 568.69 697.02
  C 568.21 687.12 568.90 675.83 568.22 666.01
  Q 566.37 639.26 551.75 617.83
  C 548.51 613.08 544.60 609.20 540.22 605.05
  A 0.25 0.25 0.0 0 1 540.50 604.64
  Z
  M 315.72 582.93
  A 0.31 0.31 0.0 0 0 315.41 582.44
  C 297.72 586.85 281.58 593.66 267.59 605.38
  A 0.38 0.37 -15.6 0 1 266.98 605.04
  L 267.67 600.20
  A 0.52 0.52 0.0 0 0 266.76 599.79
  Q 260.98 606.62 254.71 615.21
  Q 238.05 638.03 230.47 664.96
  Q 228.12 673.32 228.67 684.00
  C 229.94 708.75 239.63 732.72 258.88 747.78
  C 270.74 757.07 285.46 762.88 300.61 763.47
  A 0.33 0.33 0.0 0 0 300.80 762.87
  Q 284.36 752.19 275.16 736.19
  C 258.87 707.88 259.67 669.01 278.15 641.65
  C 290.05 624.02 310.58 613.23 331.69 618.11
  Q 333.76 618.59 342.05 620.87
  C 354.24 624.24 363.40 618.67 357.33 605.30
  Q 355.36 600.97 351.60 597.13
  C 342.28 587.63 329.17 583.74 315.98 584.53
  A 0.63 0.63 0.0 0 1 315.31 583.88
  Q 315.33 583.42 315.72 582.93
  Z
  M 684.57 677.85
  Q 680.48 696.87 671.06 734.30
  C 667.00 750.41 664.56 763.28 661.56 779.68
  A 0.44 0.44 0.0 0 0 662.15 780.17
  C 664.86 779.20 667.13 777.66 669.26 775.42
  Q 685.60 758.33 690.92 734.64
  C 695.11 716.01 692.03 695.83 685.23 677.80
  A 0.35 0.34 -49.2 0 0 684.57 677.85
  Z
  M 664.76 788.44
  Q 666.72 790.73 667.97 792.24
  C 674.58 800.22 677.75 811.75 674.05 821.64
  A 0.43 0.42 -78.9 0 0 674.43 822.21
  C 677.45 822.30 680.62 822.01 682.78 819.29
  C 686.39 814.74 686.29 809.49 685.32 803.99
  A 0.47 0.47 0.0 0 1 686.16 803.63
  Q 692.18 811.62 689.99 820.87
  A 0.50 0.49 80.1 0 0 690.74 821.40
  C 696.41 817.76 697.31 811.51 695.52 805.32
  C 691.68 792.08 677.93 786.47 664.93 787.99
  A 0.28 0.27 66.2 0 0 664.76 788.44
  Z"
/>
<path fill="#010101" d="
  M 699.75 248.43
  L 703.37 247.29
  A 1.09 1.09 0.0 0 1 704.78 248.46
  Q 703.33 259.98 699.68 271.02
  A 0.18 0.18 0.0 0 0 699.97 271.22
  Q 707.76 265.04 712.93 256.52
  A 0.46 0.46 0.0 0 1 713.78 256.72
  C 715.24 271.72 711.19 284.12 702.97 296.77
  A 0.99 0.98 29.1 0 0 703.38 298.20
  L 707.57 300.12
  A 0.50 0.50 0.0 0 1 707.39 301.08
  Q 699.86 301.52 692.32 298.16
  A 0.46 0.45 -60.9 0 1 692.13 297.48
  L 696.82 290.82
  A 0.44 0.44 0.0 0 0 696.52 290.13
  L 681.50 287.96
  A 0.29 0.28 16.6 0 1 681.28 287.57
  L 690.37 265.65
  A 0.34 0.34 0.0 0 0 689.99 265.19
  Q 681.99 266.82 675.08 271.65
  A 0.49 0.49 0.0 0 1 674.31 271.21
  Q 674.36 270.30 675.01 269.03
  Q 678.31 262.57 682.72 255.95
  A 0.42 0.42 0.0 0 0 682.33 255.30
  Q 680.89 255.41 679.58 255.85
  Q 666.96 260.11 657.00 269.06
  A 0.41 0.41 0.0 0 1 656.31 268.72
  C 658.10 247.73 671.19 227.66 685.54 211.78
  Q 693.62 202.82 704.00 195.50
  Q 709.00 191.97 715.47 189.56
  A 0.32 0.32 0.0 0 1 715.88 189.76
  L 715.96 190.03
  A 0.22 0.22 0.0 0 1 715.87 190.28
  Q 710.31 193.69 709.58 194.35
  C 699.67 203.38 692.50 213.60 685.66 225.06
  A 0.31 0.30 -89.7 0 0 686.07 225.48
  Q 693.56 220.99 701.10 218.38
  A 0.33 0.33 0.0 0 1 701.40 218.96
  Q 689.30 227.51 680.92 240.33
  A 0.22 0.22 0.0 0 0 681.22 240.64
  Q 692.45 234.34 705.61 233.33
  A 0.38 0.37 -80.1 0 1 705.98 233.86
  L 699.45 248.09
  A 0.25 0.25 0.0 0 0 699.75 248.43
  Z"
/>
<path fill="#010101" d="
  M 468.68 283.70
  A 0.23 0.23 0.0 0 0 468.89 283.38
  Q 464.01 272.54 462.18 260.71
  A 0.35 0.35 0.0 0 1 462.56 260.31
  L 467.73 260.79
  A 0.23 0.23 0.0 0 0 467.95 260.44
  L 459.64 247.21
  A 0.22 0.22 0.0 0 1 459.81 246.87
  C 468.56 246.41 476.44 248.14 484.47 251.37
  A 0.30 0.30 0.0 0 0 484.82 250.90
  Q 475.28 239.26 463.42 231.99
  A 0.37 0.37 0.0 0 1 463.70 231.32
  Q 471.50 233.36 479.24 237.23
  A 0.36 0.36 0.0 0 0 479.70 236.72
  C 471.47 223.92 459.51 210.24 445.59 204.00
  A 0.43 0.42 21.4 0 1 445.35 203.47
  L 445.36 203.44
  A 0.47 0.47 0.0 0 1 445.93 203.15
  C 460.74 207.18 473.28 217.99 483.97 228.53
  C 497.53 241.91 508.97 258.11 512.31 276.97
  A 0.38 0.38 0.0 0 1 511.70 277.33
  C 504.00 271.08 494.59 266.77 484.65 266.02
  A 0.42 0.42 0.0 0 0 484.33 266.74
  Q 490.48 272.85 494.85 280.39
  Q 495.20 280.99 495.05 281.35
  Q 494.80 281.92 494.23 281.61
  Q 486.42 277.33 477.66 276.79
  A 0.36 0.36 0.0 0 0 477.33 277.33
  L 489.17 297.84
  A 0.37 0.36 -21.3 0 1 488.93 298.38
  L 473.44 302.03
  A 0.40 0.40 0.0 0 0 473.24 302.70
  L 479.13 308.58
  A 0.64 0.64 0.0 0 1 479.01 309.57
  C 474.75 312.22 468.49 314.74 463.54 314.06
  A 0.44 0.44 0.0 0 1 463.37 313.25
  L 468.21 310.21
  A 0.61 0.61 0.0 0 0 468.33 309.28
  Q 453.08 292.88 453.60 270.20
  A 0.33 0.32 -62.9 0 1 454.18 270.01
  Q 459.60 277.03 467.74 283.26
  Q 468.31 283.70 468.68 283.70
  Z"
/>
<path fill="#010101" d="
  M 697.54 353.11
  A 0.26 0.26 0.0 0 1 697.77 353.57
  C 694.07 356.39 689.76 357.33 685.13 358.30
  A 2.38 2.36 -0.2 0 0 683.29 360.14
  C 681.32 369.56 678.93 377.93 671.87 384.61
  C 662.91 393.09 649.64 393.46 638.20 390.01
  Q 637.26 389.72 630.21 387.38
  C 627.05 386.33 625.34 386.62 623.33 389.10
  Q 620.98 392.01 620.30 393.36
  A 0.24 0.22 -84.6 0 1 620.19 393.46
  Q 619.92 393.58 619.88 393.57
  A 0.56 0.54 -87.6 0 1 619.41 393.04
  C 618.73 372.07 624.59 344.74 647.93 339.34
  C 656.45 337.36 666.19 339.04 673.24 344.04
  Q 678.03 347.43 682.75 350.72
  Q 689.44 355.41 697.54 353.11
  Z
  M 630.76 364.70
  C 628.12 369.56 627.93 373.46 631.03 378.31
  C 636.49 386.84 648.06 389.15 657.21 386.50
  Q 673.48 381.78 675.24 363.26
  Q 675.75 357.84 672.51 354.64
  C 670.17 352.34 666.11 349.85 662.60 348.40
  A 0.28 0.28 0.0 0 0 662.29 348.86
  C 668.92 355.48 671.01 364.33 667.23 373.30
  C 664.14 380.64 656.04 384.42 648.43 383.68
  C 638.55 382.72 632.15 374.54 631.20 364.79
  A 0.24 0.23 56.2 0 0 630.76 364.70
  Z
  M 649.20 357.20
  A 4.58 4.58 0.0 0 0 644.62 352.62
  A 4.58 4.58 0.0 0 0 640.04 357.20
  A 4.58 4.58 0.0 0 0 644.62 361.78
  A 4.58 4.58 0.0 0 0 649.20 357.20
  Z
  M 662.71 373.69
  A 2.34 2.34 0.0 0 0 660.37 371.35
  A 2.34 2.34 0.0 0 0 658.03 373.69
  A 2.34 2.34 0.0 0 0 660.37 376.03
  A 2.34 2.34 0.0 0 0 662.71 373.69
  Z"
/>
<path fill="#010101" d="
  M 485.17 364.95
  C 495.23 367.42 500.80 359.18 507.42 353.68
  C 519.25 343.84 535.72 342.91 548.25 351.96
  C 560.55 360.84 566.41 380.54 567.32 395.05
  A 0.50 0.49 22.9 0 1 566.45 395.40
  C 563.79 392.35 561.21 389.48 556.63 390.87
  Q 555.65 391.17 549.33 394.36
  Q 541.80 398.16 534.04 398.64
  C 514.76 399.84 505.52 388.08 500.06 371.43
  A 3.70 3.69 -5.2 0 0 497.04 368.92
  C 492.32 368.29 488.32 367.94 484.89 365.56
  A 0.34 0.34 0.0 0 1 485.17 364.95
  Z
  M 552.44 369.38
  C 551.95 377.55 548.44 384.79 541.23 388.41
  C 534.13 391.99 525.05 391.04 519.91 385.37
  Q 511.62 376.21 515.78 364.05
  Q 517.08 360.28 519.64 357.63
  A 0.28 0.28 0.0 0 0 519.33 357.17
  C 514.93 358.99 507.75 363.99 507.95 369.51
  Q 508.50 384.20 520.13 391.08
  C 531.40 397.76 545.95 394.49 553.24 383.75
  C 556.56 378.86 556.37 373.66 553.05 369.19
  A 0.34 0.34 0.0 0 0 552.44 369.38
  Z
  M 524.2989 359.3362
  A 4.64 4.43 -118.6 0 0 522.6305 365.5306
  A 4.64 4.43 -118.6 0 0 528.7411 367.4838
  A 4.64 4.43 -118.6 0 0 530.4095 361.2894
  A 4.64 4.43 -118.6 0 0 524.2989 359.3362
  Z
  M 540.6500 378.6864
  A 2.70 2.30 -117.1 0 0 539.8325 382.1378
  A 2.70 2.30 -117.1 0 0 543.1100 383.4936
  A 2.70 2.30 -117.1 0 0 543.9275 380.0422
  A 2.70 2.30 -117.1 0 0 540.6500 378.6864
  Z"
/>
<path fill="#010101" d="
  M 552.17 441.82
  A 0.24 0.24 0.0 0 1 552.55 441.56
  Q 563.14 451.00 576.74 446.51
  C 582.71 444.54 592.06 439.22 593.45 432.61
  A 2.17 2.16 28.9 0 0 592.88 430.65
  Q 588.97 426.69 585.25 422.50
  C 583.39 420.40 577.95 418.31 576.36 414.13
  Q 574.85 410.14 574.11 408.05
  A 0.36 0.35 15.8 0 1 574.72 407.71
  Q 575.63 408.82 576.39 409.22
  A 0.99 0.98 -46.4 0 0 577.36 409.19
  Q 582.01 406.39 584.48 405.71
  Q 593.06 403.35 603.78 403.84
  C 606.85 403.98 610.05 405.02 612.70 406.46
  A 0.79 0.78 26.6 0 0 613.79 406.10
  Q 614.23 405.14 614.64 404.82
  A 0.47 0.47 0.0 0 1 615.38 405.10
  C 616.94 412.85 613.73 415.57 608.14 420.64
  A 1.40 0.61 -28.2 0 0 608.03 420.76
  L 600.49 430.79
  A 2.13 2.13 0.0 0 0 600.43 433.27
  C 605.15 440.22 614.78 443.89 622.72 444.26
  Q 633.89 444.78 640.71 436.46
  A 0.35 0.35 0.0 0 1 641.29 436.83
  Q 637.50 444.80 629.47 448.17
  C 620.91 451.75 613.96 449.53 605.77 446.40
  C 600.97 444.57 596.60 444.09 592.21 445.97
  C 588.56 447.53 585.04 450.20 580.99 451.58
  Q 566.15 456.66 554.64 445.62
  Q 552.91 443.97 552.17 441.82
  Z
  M 595.59 408.18
  C 591.08 408.46 586.52 408.50 582.02 411.20
  A 1.63 1.63 0.0 0 0 582.57 414.21
  L 588.53 415.29
  A 0.87 0.82 60.9 0 1 588.78 415.37
  C 591.39 416.62 590.89 419.34 590.55 421.85
  A 1.43 1.41 -74.3 0 0 591.36 423.32
  L 593.76 424.42
  A 0.75 0.75 0.0 0 0 594.82 423.80
  Q 595.17 419.15 595.45 417.86
  Q 595.60 417.17 596.15 417.13
  Q 596.70 417.10 596.94 417.77
  Q 597.37 419.01 598.30 423.58
  A 0.75 0.75 0.0 0 0 599.43 424.07
  L 601.67 422.68
  A 1.43 1.41 67.1 0 0 602.29 421.12
  C 601.64 418.67 600.81 416.03 603.24 414.47
  A 0.87 0.82 -68.0 0 1 603.48 414.36
  L 609.26 412.54
  A 1.63 1.63 0.0 0 0 609.43 409.49
  C 604.62 407.37 600.10 407.90 595.59 408.18
  Z"
/>
</svg>
