<svg version="1.1" id="Layer_1" xmlns="http://www.w3.org/2000/svg" xmlns:xlink="http://www.w3.org/1999/xlink" x="0px" y="0px" viewBox="0 0 100 100" style="enable-background:new 0 0 4000 4000;" xml:space="preserve"><style type="text/css">
	.st0{fill:#181412;}
</style><g transform="translate(1, 4.923119744431858) scale(0.027414274444860942) translate(-212.62000000000054, -347.51000000000073)"><path class="st0" d="M2254.88,1409.28c0.51,0.51,1.31,0.66,1.9,0.22c0.58-0.44,0.8-1.24,0.44-1.9
	c-30.41-56.44-50.24-115.57-59.35-177.47c-6.56-44.26-6.64-99.16-0.15-164.71c3.57-36.38,22.46-93.04,30.77-122.42
	c0.22-0.73,0.73-1.53,1.68-2.48c1.53-1.6,4.23-0.44,4.23,1.75c-0.29,74.52,9.84,161.65,40.54,231.43c0.44,0.95,1.53,1.46,2.48,1.09
	h0.07c0.8-0.22,1.24-1.09,1.09-1.9c-38.06-171.28,19.18-342.55,130.37-475.99c1.97-2.41,3.5-3.86,4.59-4.23
	c1.9-0.8,3.79,1.17,2.99,3.06c-22.24,52.21-38.28,117.98-24.5,173.32c0.66,2.77,4.59,2.62,5.18-0.15
	c26.91-129.93,119.51-228.37,227.28-300.92c1.46-1.02,3.43-0.44,4.23,1.17c0.22,0.44,0.29,1.31,0.22,2.55
	c0,0.58-0.22,1.17-0.58,1.68c-44.48,62.78-74.23,112.8-88.59,178.93c-0.22,1.02,0.36,1.97,1.31,2.33c0.95,0.36,2.04-0.07,2.48-1.02
	c16.84-34.71,37.92-67.45,66.72-95.3c60.45-58.48,130.15-101.94,209.05-130.3c1.17-0.44,2.41,0.07,2.92,1.17
	c0.58,1.02,0.22,2.33-0.73,3.06c-41.34,29.38-72.7,66.72-94.13,111.92c-1.46,3.06,1.31,6.49,4.59,5.69
	c0.95-0.22,2.26-1.24,4.08-3.06c80.5-79.62,189.29-121.84,300.77-133.8c1.68-0.22,3.13,1.09,3.21,2.77
	c0.07,0.66-0.36,1.24-1.24,1.75c-36.02,21.95-69.05,48.85-99.16,80.64c-0.88,0.87-0.88,2.33-0.15,3.28c0.8,0.95,2.19,1.17,3.28,0.51
	c99.97-62.78,207.22-64.75,323.45-54.76c1.24,0.07,2.19,1.09,2.26,2.33c0.07,1.24-0.8,2.26-2.04,2.48
	c-47.54,7.22-96.54,26.1-132.63,57.75c-0.66,0.58-0.8,1.53-0.36,2.26s1.31,1.02,2.11,0.73c20.05-8.09,39.81-13.13,59.21-15.17
	c93.48-9.7,180.68,8.24,261.55,53.81c2.7,1.53,1.24,5.69-1.82,5.18c-34.78-5.61-68.39-2.19-100.77,10.43
	c-4.81,1.9-4.08,8.9,1.02,9.77c56.73,9.55,106.38,26.61,148.89,51.11c73.13,42.14,106.82,97.92,140,171.57
	c0.51,1.09,0.07,2.41-0.95,2.99c-1.02,0.66-2.33,0.44-3.06-0.51c-30.77-37.77-67.52-67.01-110.32-87.72
	c-0.88-0.44-1.9-0.15-2.48,0.66c-0.58,0.8-0.44,1.9,0.22,2.55c41.42,42.22,82.9,95.3,101.64,150.2
	c25.37,74.66,22.75,151.44-7.87,230.27c-0.58,1.53-2.19,2.41-3.79,2.04c-1.6-0.44-2.63-1.9-2.48-3.5
	c3.94-38.72-3.5-93.99-29.31-125.27c-1.39-1.75-4.23-0.51-3.94,1.68c3.14,26.1,4.38,52.64,3.72,79.62
	c-2.7,105.65-63.58,185.35-154.43,230.48c-1.97,1.02-3.94-1.39-2.55-3.14c21.07-26.61,39.16-53.74,54.25-81.45
	c5.83-10.72,9.84-20.93,11.96-30.55c0.51-2.19-2.41-3.5-3.72-1.68c-60.23,82.32-135.48,142.11-238.29,157.28
	c-24.28,3.57-47.61,3.72-69.85,0.36c-2.92-0.44-3.14-4.59-0.29-5.32c37.84-9.92,71.75-30.84,101.57-62.71
	c0.95-1.02,1.09-2.62,0.22-3.79c-0.88-1.17-2.48-1.46-3.72-0.8c-84.29,44.7-172.66,50.97-265.05,18.67
	c-4.45-1.53-8.02-3.65-10.72-6.2c-1.46-1.39-0.29-3.86,1.68-3.65c29.46,2.99,64.09,7.8,87.5-9.48c2.7-1.97,1.02-6.2-2.26-5.91
	c-11.59,1.02-22.24,0.15-32.01-2.55c-78.38-21.51-127.75-69.2-148.09-143.06c-15.68-56.65-2.48-135.33,46.52-172.52
	c2.11-1.6,5.1,0.07,4.74,2.7c-2.26,16.77-4.81,41.71,0.07,56.95c19.91,62.42,93.7,58.48,130.23,15.82
	c37.19-43.38,29.46-108.86-11.96-145.61c-61.32-54.47-157.93-41.71-228.37-7.29c-100.69,49.22-148.53,161.51-132.41,268.76
	c2.11,14.22,5.91,26.61,11.37,37.04c0.73,1.46,2.92,0.88,2.92-0.73c-0.73-48.2,10.72-87.06,26.1-149.48
	c0.51-2.04,2.55-3.35,4.59-2.92l0.22,0.07c2.11,0.36,3.65,2.33,3.43,4.52c-5.03,51.4-1.75,94.86,9.7,130.3
	c30.55,94.72,81.66,179.22,153.34,253.52c0.44,0.44,1.17,0.51,1.68,0.15c0.51-0.44,0.66-1.17,0.29-1.68
	c-31.13-50.38-48.2-106.31-51.19-167.7c-0.07-1.24,1.53-1.9,2.33-0.95c2.41,2.55,4.45,5.91,6.13,9.99
	c32.08,78.89,78.46,124.9,151.01,186.81c76.93,65.62,134.89,116.08,176.53,197.45c0.44,0.8,1.39,1.17,2.19,0.88
	c0.88-0.36,1.31-1.24,1.09-2.11c-20.12-74.74-53.74-140.8-100.77-198.33c-0.87-1.09-0.8-2.63,0.07-3.65
	c0.95-1.02,2.41-1.17,3.57-0.44c29.39,19.47,58.41,41.27,86.99,65.26c82.39,69.34,153.27,176.75,176.16,283.35
	c3.43,15.9,4.74,31.06,4.08,45.43c0,0.87,0.58,1.6,1.46,1.75c0.87,0.07,1.6-0.44,1.82-1.31c19.61-89.17,9.11-173.25-31.5-252.21
	c-1.09-2.11,1.24-4.37,3.35-3.28c3.65,1.9,6.34,3.72,8.02,5.54c108.64,114.55,160.12,252.87,154.43,415.1
	c-1.39,40.98-13.2,79.62-23.48,122.06c-0.29,1.24,1.39,1.97,2.11,0.95c66.64-94.13,92.46-196.87,77.36-308.14
	c-0.15-1.24,0.58-2.41,1.82-2.77c1.17-0.36,2.48,0.15,2.99,1.31c82.54,176.67,86.11,354.88,10.65,534.61
	c-8.53,20.42-21.73,39.81-33.54,60.81c-0.36,0.66-0.22,1.46,0.36,1.9c0.58,0.44,1.39,0.37,1.9-0.15
	c85.09-86.99,139.63-189.51,163.55-307.63c0.58-3.06,4.96-3.14,5.61-0.07c27.71,124.32,23.41,244.99-12.91,362.1
	c-32.45,104.85-98.51,206.71-173.54,287.5c-0.51,0.58-0.58,1.46-0.07,2.04c0.51,0.66,1.39,0.8,2.04,0.36
	c28.22-17.5,55.56-37.41,81.88-59.79c59.94-50.82,110.98-130.37,144.59-202.34c1.09-2.26,2.41-3.65,4.08-4.08
	c1.31-0.29,2.55,0.73,2.41,2.11c-11.37,105.43-39.59,203.8-84.58,295.16c-67.15,136.06-167.12,237.78-299.97,305.22
	c-0.51,0.29-0.73,0.88-0.58,1.39c0.22,0.51,0.73,0.8,1.31,0.73c29.17-5.47,53.74-10.94,73.79-16.48
	c67.59-18.74,125.78-52.06,174.48-99.89c0.95-0.88,2.33-1.02,3.35-0.22c1.02,0.73,1.39,2.11,0.8,3.28
	c-47.18,92.6-113.24,167.56-198.18,224.87c-83.63,56.36-175.29,89.32-275.11,98.87c-1.17,0.07-2.04,1.02-2.11,2.19
	c-0.07,1.17,0.66,2.26,1.82,2.48c73.72,16.04,144.3,15.97,211.6-0.15c1.02-0.22,2.04,0.29,2.48,1.24c0.36,0.95,0,2.11-0.88,2.63
	c-116.3,71.31-242.88,108.86-379.74,112.58c-60.08,1.6-128.55-4.38-205.4-17.94c-1.39-0.22-2.19,1.53-1.09,2.41
	c6.49,5.18,13.49,9.55,21.07,13.12c60.74,28.51,125.85,45.79,195.41,51.7c3.35,0.29,4.52,4.52,1.9,6.49
	c-1.53,1.09-4.38,1.97-8.53,2.63c-87.86,12.91-173.61,14.66-257.24,5.4c-86.4-9.55-176.16-23.7-253.31-58.19
	c-0.58-0.29-1.31-0.07-1.68,0.51c-0.36,0.58-0.29,1.31,0.22,1.75c23.7,20.93,63.44,35.15,89.98,48.93c5.18,2.7,3.21,10.5-2.62,10.35
	c-88.74-2.26-169.09-7.07-252.87-22.31c-55.34-10.06-84.51-15.17-87.43-15.38c-2.33-0.15-4.59,0.66-6.27,2.26
	c-23.11,21.95-47.98,36.38-74.74,43.17c-114.69,29.17-247.98,31.28-369.09,31.65c-119.87,0.36-246.31,9.11-345.25,11.16
	c-47.98,0.95-114.91-6.34-148.38-38.86c-1.53-1.53-3.94-1.68-5.69-0.44c-50.31,36.53-100.7,48.49-164.86,54.69
	c-82.83,8.02-162.02,8.17-237.48,0.51c-32.74-3.28-61.18-14.22-85.31-32.74c-2.11-1.6-4.81-2.33-7.44-1.97
	c-97.34,14-194.17,19.03-290.57,5.98c-28.15-3.79-62.63-18.81-80.42-44.33c-7.07-10.21-10.43-24.5-10.06-42.8
	c1.31-63.14,56.58-110.17,113.97-126.73c7.87-2.26,28.22-6.71,60.96-13.42c6.49-1.31,14.07-8.38,22.82-21.29
	c33.32-49.07,44.7-111.41,40.32-169.96c-7.66-103.17-33.03-202.34-76.05-297.64c-0.22-0.44-0.73-0.58-1.17-0.44
	c-0.51,0.22-0.73,0.73-0.58,1.24c39.74,123.15,62.05,247.11,51.11,375.07c-2.99,35.29-13.64,67.96-31.79,98.07
	c-1.9,2.99-6.2,3.28-8.39,0.51c-30.19-37.99-57.09-77.22-80.64-117.68c-6.34-10.86-11.88-22.82-16.62-35.95
	c-0.15-0.44-0.66-0.73-1.17-0.66c-0.51,0.15-0.8,0.58-0.73,1.09c2.62,19.03,6.64,36.02,11.96,51.11c0.36,1.02,0.22,2.48-0.51,4.3
	c-0.44,1.09-1.97,1.24-2.63,0.22c-58.26-89.83-86.62-187.97-85.02-294.43c0-0.51-0.36-0.95-0.87-1.02
	c-0.51-0.07-0.95,0.22-1.09,0.73c-9.7,41.78-15.46,81.59-17.28,119.43c-0.15,2.48-3.35,3.43-4.74,1.31
	c-2.41-3.72-4.45-8.17-5.98-13.42c-21.66-72.26-25.23-147.8-10.57-226.47c5.61-30.48,16.19-57.82,29.82-99.02
	c0.15-0.44-0.07-0.95-0.51-1.17c-0.44-0.22-0.95-0.15-1.24,0.29c-25.88,36.97-46.3,74.52-61.25,112.51
	c-0.36,0.95-1.39,1.46-2.41,1.24c-0.95-0.22-1.68-1.17-1.6-2.19c3.79-60.88,8.6-122.2,27.56-183.89
	c11.74-38.35,28.58-90.63,50.46-156.91c0.22-0.66-0.07-1.31-0.73-1.6c-0.66-0.29-1.39,0-1.68,0.58
	c-18.45,33.18-42.65,63.14-72.7,89.76c-1.39,1.24-2.62,1.9-3.72,1.82c-1.75,0-2.99-1.68-2.48-3.35
	c29.02-87.79,50.6-179.44,64.75-275.03c1.38-9.55,0.95-18.67-1.31-27.42c-0.58-2.33-3.72-2.7-4.89-0.58
	c-17.86,32.59-41.56,62.05-71.09,88.52c-1.82,1.6-4.67,0.15-4.3-2.26c6.78-45.86,9.99-92.16,9.62-138.9
	c-0.29-48.49-7.44-89.9-12.98-141.53c-7.73-72.04-7.95-141.02-0.58-206.86c0.15-1.24-0.66-2.33-1.82-2.63
	c-1.24-0.29-2.48,0.29-2.92,1.46c-26.61,66.79-36.75,134.89-44.33,207.3c-0.29,2.55-3.94,2.84-4.59,0.36
	c-20.71-75.54-37.62-154.87-35.29-231.43c1.53-48.27,7.44-95.81,17.79-142.55c11.3-50.82,31.21-99.6,59.79-146.34
	c0.58-0.95,0.36-2.11-0.51-2.77c-0.87-0.73-2.04-0.66-2.84,0.15l-94.21,94.21c-0.44,0.44-1.09,0-0.95-0.58
	c19.1-77.36,56.29-146.41,111.63-207.3c12.61-13.93,28.73-30.48,48.34-49.8c0.73-0.73,0.87-1.9,0.22-2.7
	c-0.58-0.88-1.68-1.17-2.62-0.73c-41.05,19.03-88.01,35.73-127.31,63.95c-2.11,1.53-4.89-0.58-4.01-2.99
	c34.27-96.83,98.36-157.06,179.95-222.76c1.02-0.8,1.24-2.26,0.44-3.35l-1.17-1.6c-0.29-0.36-0.8-0.44-1.24-0.22l-92.24,56.51
	c-2.84,1.68-6.2-1.17-4.96-4.23c15.9-40.25,24.79-75.25,48.42-105.29c40.03-50.75,84.44-92.24,134.09-131.03
	c0.87-0.66,1.09-1.9,0.51-2.77c-0.58-0.95-1.82-1.31-2.77-0.8c-52.06,25.45-97.34,65.62-143.2,101.13c-2.63,1.97-6.2-0.66-5.03-3.72
	c36.53-98.51,121.4-179.01,212.4-229.03c0.8-0.44,1.09-1.39,0.73-2.19c-0.29-0.8-1.24-1.24-2.04-0.95
	c-31.06,9.84-58.77,21.29-83.12,34.2c-2.19,1.17-4.52-1.31-3.28-3.43c25.08-42.58,56.44-78.02,97.41-109.23
	c10.5-7.95,23.84-18.59,39.96-32.01c1.24-1.02,0.15-2.99-1.39-2.48l-60.81,21.07c-2.19,0.73-4.16-1.6-2.99-3.65
	c16.04-28.07,27.12-45.94,33.18-53.59c48.93-61.76,81.81-123.74,98.58-186.01c10.94-40.61,25.3-82.03,43.02-124.39
	c15.09-36.24,38.28-65.99,69.41-89.32c42.22-31.5,80.21-1.02,109.66,35c37.33,45.64,70.58,96.98,99.82,154
	c7.95,15.38,19.69,23.62,35.29,24.65c76.41,5.18,172.52,7.22,255.13,23.33c7.22,1.46,14.66,0,20.78-4.08
	c101.42-66.43,203.87-130.08,307.48-190.82c17.86-10.57,31.13-7.44,39.74,9.26c19.4,37.84,4.01,103.39-12.25,139.56
	c-0.95,2.04-0.22,4.45,1.6,5.69c5.25,3.57,9.11,6.05,11.67,7.44c33.61,18.96,48.85,47.91,45.72,86.84
	c-0.22,2.62-3.94,3.06-4.67,0.51c-9.04-31.72-29.31-54.18-60.88-67.3c-2.63-1.09-5.69,0.29-6.56,3.06l-2.84,8.53
	c-0.88,2.55,0.15,5.4,2.48,6.78c24.65,15.17,46.45,34.85,49.07,66.28c2.33,27.34,1.24,48.12-3.21,62.49
	c-1.02,3.21-5.61,2.99-6.34-0.29c-1.39-6.12,0.73-15.9-0.95-22.89c-6.64-28.07-21.66-52.64-45.06-73.64
	c-1.31-1.24-3.5-0.36-3.65,1.46c-4.23,53.15-13.27,108.93-27.05,167.19c-10.43,43.6,25.52,98.87,54.83,129.57
	c3.06,3.21,0.44,8.39-3.94,7.95c-7.66-0.87-15.6-3.65-23.7-8.24c-2.33-1.31-4.81,1.6-3.06,3.72c19.47,23.62,39.74,51.11,60.74,82.39
	c30.41,45.35,55.42,94.13,75.1,146.27c0.73,1.97-1.53,3.72-3.28,2.48l-91.22-67.23c-0.44-0.29-0.95-0.29-1.31,0.07
	c-0.36,0.36-0.44,0.88-0.15,1.31l14.87,21.15c0.15,0.15,0.29,0.29,0.36,0.51c49.07,57.24,86.55,121.04,112.58,191.55
	c8.24,22.38,14.44,47.25,18.52,74.59c0.29,1.9-2.04,3.14-3.43,1.75c-87.57-83.93-191.26-126.8-310.98-128.77
	c-0.58,0-1.17,0.44-1.24,1.02c-0.15,0.58,0.22,1.17,0.8,1.39c43.75,14.07,87.79,21.95,115.57,30.33
	c56.87,17.21,110.76,44.77,161.73,82.76c0.58,0.44,0.8,1.31,0.36,1.97h-0.07c-0.36,0.36-0.88,0.51-1.39,0.36l-31.13-13.42
	c-1.31-0.58-2.63,0.88-1.9,2.11l27.85,48.12c1.53,2.62-1.31,5.69-4.08,4.3c-9.11-4.59-15.82-12.18-20.12-22.75
	c-0.15-0.44-0.66-0.66-1.09-0.44h-0.07c-0.51,0.22-0.73,0.88-0.51,1.39c7.8,18.67,22.82,50.17,44.92,94.57
	c5.18,10.28,8.9,20.2,11.3,29.82c0.22,0.73-0.22,1.53-0.87,1.82c-0.73,0.29-1.53,0-1.97-0.66c-29.38-47.9-66.72-88.59-111.92-122.06
	c-52.86-39.16-112.36-64.38-178.64-75.69c-0.73-0.15-1.39,0.29-1.53,1.02l-0.07,0.07c-0.15,0.66,0.22,1.39,0.88,1.6
	c93.19,32.59,173.68,83.41,241.57,152.47c8.24,8.31,16.55,22.02,25.01,41.12c0.66,1.53,0.51,4.16-0.58,7.73
	c-0.66,2.26-0.73,4.67-0.22,6.93c16.41,70.44,22.31,142.69,17.79,216.78c-0.07,1.82-2.55,2.41-3.43,0.8l-53.45-95.96
	c-0.36-0.58-1.02-0.95-1.75-0.88l-0.29,0.22c-0.73,0.29-1.02,1.09-0.8,1.82c32.16,82.83,12.61,181.41-22.24,260.52
	c-0.58,1.31-0.07,2.92,1.24,3.65c1.31,0.66,2.92,0.29,3.72-0.95l61.61-94.21c1.9-2.84,5.32-4.16,8.6-3.28
	c20.2,5.76,40.69,13.78,61.47,24.13c97.05,48.2,194.17,116.08,280.36,169.89c2.41,1.46,1.09,5.18-1.68,4.89l-104.27-10.72
	c-1.9-0.22-3.65,1.09-4.01,2.92c-0.36,1.9,0.73,3.72,2.55,4.3c95.52,28.95,177.11,116.08,253.89,187.03
	c2.33,2.11,0.07,5.91-2.92,4.89l-77.22-25.52c-1.02-0.36-2.19,0.15-2.62,1.17c-0.51,1.02-0.15,2.19,0.8,2.77
	c74.15,45.94,130.66,108.94,169.45,189.07c3.14,6.34,6.93,12.32,11.37,17.86c7.36,9.26,11.52,14.29,12.4,15.17
	c0.87,0.88,0.87,2.26,0.07,3.21c-0.8,0.95-2.19,1.09-3.21,0.36l-58.55-43.09c-0.36-0.22-0.8-0.22-1.09,0.07
	c-0.29,0.29-0.29,0.73-0.07,1.09c22.02,28.95,41.78,53.08,59.13,86.26c21.66,41.2,39.08,73.28,52.28,96.17
	c1.17,2.11-1.24,4.3-3.28,2.99c-24.35-16.55-46.3-36.31-65.77-59.35c-0.66-0.8-1.82-0.95-2.63-0.29h-0.07
	c-0.66,0.51-0.8,1.46-0.29,2.19c33.39,45.57,71.6,97.12,86.91,154.43c6.71,25.16,13.56,54.4,20.49,87.79
	c0.29,1.24-0.44,2.55-1.6,2.99c-1.24,0.51-2.62,0-3.28-1.09l-43.6-71.89c-0.07-0.07-0.22-0.07-0.29,0l-1.9,1.09
	c-0.66,0.36-0.87,1.09-0.66,1.75c30.7,78.53,45.43,161.21,44.33,247.91c-0.22,15.09,0.95,28.8,3.5,40.98
	c0.44,1.97-1.53,3.65-3.43,2.92c-17.5-6.71-28.8-51.26-32.59-69.05c-0.22-1.02-1.17-1.68-2.26-1.53h-0.07
	c-1.17,0.22-1.9,1.24-1.75,2.33c7.73,56.07,6.78,122.06-2.77,197.96c-2.26,17.86-6.13,34.42-11.59,49.66
	c-1.24,3.35,2.92,6.05,5.54,3.57c112.29-105.87,178.93-251.56,196.65-403.73c0.15-1.31,1.31-2.33,2.63-2.33
	c1.39,0,2.48,1.09,2.63,2.41c3.21,34.34,4.96,62.27,5.25,83.71c0.51,43.82-7.51,85.16-24.06,123.88c-0.22,0.58,0,1.24,0.51,1.53
	c0.51,0.36,1.24,0.22,1.6-0.29c71.02-93.7,99.89-199.79,86.55-318.27c-8.09-72.19-37.11-135.11-87.06-188.78
	c-0.66-0.66-0.66-1.75-0.07-2.48c0.58-0.73,1.6-0.88,2.41-0.36c71.68,45.57,103.54,107.77,142.04,181.27
	c0.29,0.51,0.88,0.73,1.39,0.51c0.58-0.15,0.88-0.73,0.73-1.31c-27.85-118.63-76.85-222.83-135.33-335.99
	c-28.36-54.83-63.44-104.71-105.14-149.69c-0.66-0.73-0.73-1.82-0.15-2.55c0.58-0.8,1.68-1.02,2.55-0.58
	c47.91,25.59,91.44,58.77,130.59,99.6c33.47,34.93,60.59,65.77,81.3,92.38c0.58,0.73,1.6,0.88,2.33,0.36l1.46-1.09
	c0.07-0.07,0.07-0.07,0-0.15c-74.01-134.46-167.27-250.75-279.85-348.82c-59.64-51.99-121.91-101.06-186.73-147.22
	c-2.55-1.82-0.58-5.76,2.41-4.96c110.25,30.33,213.42,75.25,309.6,134.67c0.51,0.36,1.24,0.22,1.6-0.29v-0.07
	c0.44-0.51,0.29-1.31-0.22-1.75c-57.68-49.22-118.56-88.45-215.1-155.53c-29.39-20.42-65.11-53.01-107.26-97.85
	c-54.39-57.97-91.87-125.34-112.51-202.27c-0.44-1.68,1.09-3.21,2.77-2.77c2.77,0.66,4.81,2.11,6.12,4.23
	c48.71,78.6,128.48,135.91,212.04,171.93c0.88,0.36,1.68-0.73,1.02-1.39c-14.95-14.95-36.6-29.6-52.21-45.35
	c-123.88-125.05-180.61-276.49-170.18-454.48c0.15-2.63,3.79-2.99,4.59-0.51C2158.27,1278.11,2198.81,1348.4,2254.88,1409.28
	 M941.97,1004.39c9.84,40.18,21.8,72.33,62.41,84.51c26.98,8.09,68.69,8.82,99.02,2.55c2.33-0.51,3.86-2.7,3.5-5.03
	c-8.75-53.59-31.57-80.64-87.57-85.02c-24.86-1.9-49.14-2.77-72.99-2.62C943.43,998.85,941.24,1001.54,941.97,1004.39
	 M1481.4,1022.18c-12.03,1.39-38.64,5.25-79.7,11.45c-22.39,3.43-38.5,16.33-48.34,38.86c-0.95,2.11-1.24,4.45-0.8,6.71
	c2.55,13.71,11.01,21.44,25.52,23.19c32.88,4.01,62.42-7.22,88.59-33.61c4.08-4.08,9.92-18.45,17.57-43.16
	C1484.82,1023.78,1483.29,1021.96,1481.4,1022.18 M1270.02,1290.14c0.44,0,0.73-0.07,0.95-0.15c0.73-0.15,1.31-0.51,1.68-1.02
	l46.08-55.34c1.46-1.75,0.51-4.37-1.68-4.81c-15.53-3.21-30.55-5.1-45.06-5.47c-14.51-0.44-29.6,0.51-45.35,2.84
	c-2.19,0.36-3.28,2.92-1.97,4.74l42.8,57.89c0.36,0.51,0.95,0.95,1.6,1.17C1269.36,1290.07,1269.65,1290.07,1270.02,1290.14
	 M814.01,1254.78c61.69-2.11,115.5,3.72,182.14,9.62c0.44,0,0.8-0.29,0.87-0.66c0.07-0.44-0.22-0.8-0.58-0.95
	c-60.37-16.55-121.33-23.77-182.87-21.66c-61.61,2.11-121.91,13.49-181.05,34.2c-0.36,0.15-0.58,0.58-0.51,0.95
	c0.15,0.44,0.51,0.66,0.95,0.58C699.02,1266.44,752.32,1256.89,814.01,1254.78 M786.16,1334.55
	c-69.12,23.7-133.65,59.5-183.67,112.65c-0.44,0.51-0.44,1.24,0,1.75h0.07c0.51,0.58,1.39,0.66,1.97,0.15
	c55.63-44.92,119.94-76.05,186.95-99.02c67.01-22.9,136.93-37.62,208.39-36.17c0.8,0,1.46-0.58,1.53-1.39l0,0
	c0.07-0.66-0.36-1.31-1.09-1.39C928.27,1299.77,855.35,1310.92,786.16,1334.55 M856.96,1385.81
	c-47.98,26.1-95.66,61.03-129.86,103.9c-0.22,0.29-0.15,0.66,0.07,0.87c0.22,0.22,0.58,0.22,0.8,0
	c42.22-35.36,87.42-66.13,135.77-92.46c48.27-26.25,98.73-47.47,151.3-63.73c0.29-0.07,0.51-0.36,0.44-0.73
	c-0.07-0.29-0.36-0.51-0.66-0.51C960.2,1338.63,905.01,1359.7,856.96,1385.81 M1588.8,1484.53c27.93,32.3,59.28,71.82,93.99,118.56
	c0.66,0.8,1.97,0.29,1.82-0.73c-0.07-0.8-0.36-1.53-0.73-2.33c-22.24-43.75-50.38-85.31-84.44-124.68
	c-33.98-39.45-71.09-73.28-111.2-101.64c-0.66-0.44-1.39-0.8-2.19-1.02c-0.95-0.29-1.68,0.95-0.95,1.68
	C1526.31,1415.48,1560.88,1452.23,1588.8,1484.53 M1505.53,1778.23c2.62,47.47-2.48,89.32-15.31,125.41
	c-25.45,71.53-62.78,160.05-112,265.63c-14.87,31.94-34.49,61.69-48.71,90.56c-0.29,0.66-0.15,1.46,0.51,1.9
	c0.58,0.44,1.46,0.36,1.97-0.15c27.56-27.49,51.04-52.06,70.51-73.57c100.26-110.83,137.88-240.91,113.02-390.31
	c-1.09-6.49-3.72-13.2-7.87-20.12C1507.06,1776.56,1505.46,1777.07,1505.53,1778.23 M647.11,2474.72
	c-52.64-79.84-98.8-183.23-138.54-310.18c-35.8-114.4-54.39-231.8-55.85-352.03c0-3.28-4.59-4.08-5.76-1.02
	c-20.12,51.55-28.58,104.05-25.3,157.35c5.69,92.89,20.12,175.36,57.02,257.97c42.8,95.88,98.44,178.93,166.9,249.15
	c0.36,0.36,0.95,0.36,1.31,0.07C647.33,2475.74,647.4,2475.15,647.11,2474.72 M1051.2,2592.62c-4.74-38.86-5.1-70-0.95-93.26
	c23.11-130.44,72.55-219.69,145.17-372.38c43.68-91.87,62.93-188.78,57.6-290.71c-0.51-9.55-1.97-18.45-4.45-26.54
	c-0.95-3.14-1.46-3.28-1.39-0.44c0.44,39.45-7.87,77.65-24.86,114.69c-45.72,99.53-101.42,181.78-166.97,246.74
	c-2.7,2.62-5.69,4.52-9.04,5.76c-2.11,0.8-4.08-1.53-2.92-3.43c52.94-87.93,97.71-193.59,101.35-298.08c0.07-1.46-1.9-1.9-2.48-0.58
	c-11.59,25.23-22.46,52.28-36.6,78.82c-19.69,36.97-56,97.71-109.01,182.21c-38.28,61.03-62.05,125.63-71.38,193.88
	c-0.8,5.98-9.11,6.78-11.08,1.09c-21-61.9-41.56-128.4-61.76-199.64c-28.51-100.55-36.89-202.12-25.16-304.78
	c0.07-0.51-0.29-1.02-0.8-1.17c-0.51-0.15-1.02,0.07-1.24,0.58c-24.43,54.39-38.65,111.34-42.66,170.91
	c-7.15,105.73,0.15,205.4,37.48,305.29c4.3,11.45,10.86,45.06,19.69,100.77c0.15,1.09-0.22,2.11-1.09,2.77l-2.55,1.82
	c-1.97,1.39-4.67,0.44-5.32-1.82c-15.39-55.05-33.69-102.88-54.76-143.42c-63.65-122.35-117.9-227.42-125.71-362.02
	c-0.07-0.58-0.51-1.09-1.09-1.17c-0.58,0-1.17,0.36-1.31,0.95c-8.6,33.91-13.85,65.55-15.75,94.86
	c-5.47,82.9,5.32,164.2,32.45,243.75c0.44,1.31-0.15,2.77-1.46,3.43c-1.24,0.66-2.77,0.22-3.57-0.95
	c-73.06-106.75-117.54-226.77-104.49-355.9c0.07-0.36-0.22-0.73-0.58-0.88c-0.44-0.07-0.8,0.15-0.95,0.51
	c-9.41,25.16-15.82,52.79-19.1,82.83c-12.18,112.22,1.02,219.25,56.87,320.68c15.97,29.09,34.49,60.96,55.42,95.59
	c23.7,39.23,55.78,104.71,96.32,196.51c19.03,43.02,36.82,86.7,53.45,131.03c0.22,0.51,0.73,0.8,1.24,0.66
	c0.58-0.15,0.88-0.66,0.8-1.17c-18.16-104.41-33.03-204.75-44.55-301.07c-0.36-3.14,2.26-5.83,5.4-5.47
	c1.39,0.22,2.55,1.46,3.5,3.72c41.49,97.27,78.38,191.11,110.54,281.45c19.83,55.71,46.59,110.54,80.35,164.5
	c0.36,0.58,1.17,0.8,1.82,0.44h0.15c0.66-0.36,0.87-1.17,0.58-1.82c-107.18-235.73-18.52-475.04,129.93-667.03
	c1.6-2.11,3.43-3.57,5.47-4.3c2.11-0.73,4.01,1.39,3.21,3.43c-34.78,87.86-60.96,178.79-68.03,271.39
	c-2.92,38.35,1.82,100.48,21.8,137.74C1049.38,2594.73,1051.35,2594.08,1051.2,2592.62 M1630.95,1865.29
	c-0.07,0.29-1.46,13.85-4.01,40.76c-4.74,48.71-24.13,99.46-47.54,144.01c-0.51,0.95-0.22,2.11,0.66,2.7
	c0.88,0.66,2.04,0.51,2.77-0.29c47.03-51.48,58.19-117.9,51.33-186.81C1633.94,1863.91,1631.53,1863.62,1630.95,1865.29
	 M1376.11,1880.75c-18.23,93.26-67.37,174.41-120.53,255.2c-52.64,79.91-92.02,165.08-98.44,256.73
	c-1.09,14.66-0.44,30.62,1.82,47.76c0.15,0.95,0.87,1.6,1.82,1.68c0.95,0,1.75-0.58,1.97-1.53
	c16.26-77.87,68.39-153.63,111.85-214.95c34.2-48.2,56.51-83.56,66.79-106.02c27.27-59.57,49.8-134.24,43.09-197.09
	c-2.55-23.7-4.23-37.55-4.89-41.71C1379.32,1878.86,1376.47,1878.78,1376.11,1880.75 M1661.06,2489.01
	c-8.09,30.26-20.42,63.29-37.11,99.09c-42.8,91.87-84,162.53-131.32,236.24c-29.82,46.45-50.75,81.67-62.71,105.51
	c-63.07,125.63-101.72,258.48-115.79,398.55c-3.57,36.02-2.77,73.5,0.29,109.37c0.07,0.95,0.88,1.68,1.75,1.68
	c0.95,0.07,1.75-0.58,1.9-1.53c25.08-169.02,59.79-324.76,139.27-477.08c60.08-114.99,147.73-235.44,187.54-368.07
	c7.66-25.52,14.36-59.86,20.2-103.03c0.15-1.02-0.51-1.97-1.53-2.19h-0.15C1662.37,2487.33,1661.35,2487.99,1661.06,2489.01
	L1661.06,2489.01z"/></g></svg>