<?xml version="1.0" encoding="utf-8"?>
<!-- Generator: Adobe Illustrator 24.2.1, SVG Export Plug-In . SVG Version: 6.00 Build 0)  -->
<svg version="1.1" id="Layer_1" xmlns="http://www.w3.org/2000/svg" xmlns:xlink="http://www.w3.org/1999/xlink" x="0px" y="0px"
	 viewBox="0 0 4000 4000" style="enable-background:new 0 0 4000 4000;" xml:space="preserve">
<style type="text/css">
	.st0{fill:#181412;}
</style>
<g>
	<path class="st0" d="M1661.76,3393.38c-0.14-0.97-1.11-1.8-2.07-1.66c-1.11,0-1.94,0.83-1.94,1.8
		c-9.13,147.33-28.36,301.3-57.55,461.77c-1.8,10.38-10.93,17.85-21.44,17.85h-205.57c-18.12,0-31.26-17.15-26.56-34.58l12.31-44.96
		c6.09-22.41,25.59-38.73,48.83-40.67l32.92-2.9c5.4-0.42,9.96-4.57,10.79-9.96c28.36-179.84,43.44-315.55,45.1-407.13
		c1.52-78.16-2.08-207.23-11.07-387.21c-0.97-20.2-7.19-47.04-18.81-80.38c-49.11-142.49-71.11-294.8-72.63-442.68
		c-0.83-76.09,8.58-174.31,28.08-294.66c4.98-30.99,20.75-128.79,47.17-293.28c0.55-4.01-2.21-7.75-6.23-8.16
		c-162.82-17.15-309.05-50.08-450.43-135.85c-7.75-4.7-17.01-6.64-26.15-5.26c-42.33,6.22-82.86,17.57-121.46,34.03
		c-96.56,41.09-187.59,87.84-273.08,140c-1.94,1.24-4.43,0.97-6.09-0.69l-4.43-4.7c-1.8-1.94-1.52-4.98,0.69-6.5
		c116.62-83.42,239.74-145.95,369.22-187.72c3.87-1.25,4.98-6.09,2.08-8.85c-41.23-39.01-59.07-68.2-110.81-68.06
		c-37.07,0.14-182.61-6.09-436.73-18.54c-5.26-0.28-9.68-4.43-10.1-9.68l-0.28-3.6c-0.14-1.11,0.69-1.94,1.66-1.94h455.96
		c2.21,0,3.6-2.63,2.08-4.29c-125.47-150.1-169.33-343.63-159.64-534.54c0.28-4.7,4.15-8.16,8.85-7.88l56.58,2.9
		c4.01,0.28,7.33-2.9,7.47-6.92c0.14-18.81-0.97-31.96-3.46-39.56c-56.58-176.24-92-342.8-106.11-499.68
		c-4.7-52.29-4.98-99.6-0.83-142.07c0.55-5.67,6.36-9.13,11.48-6.92c28.64,12.04,59.9,26.98,93.52,45.1
		c211.66,113.71,404.5,223.97,578.67,330.63c9.27,5.67,20.33,8.02,31.13,6.78c130.45-15.08,277.64-27.53,441.3-37.08
		c16.46-0.97,31.68-8.58,45.65-22.96c169.19-172.78,339.2-340.17,510.05-502.17c5.81-5.53,15.08-4.7,19.92,1.66
		c3.32,4.29,6.09,10.65,8.44,19.37c46.48,170.15,49.94,301.44,68.61,542.84c6.23,78.99,7.06,162.27,2.63,249.84
		c-0.28,5.81,3.04,11.34,8.44,13.83c0.14,0,1.25,0.28,3.32,0.97c5.67,1.66,9.96,6.36,11.21,12.17
		c40.39,188.28-30.71,372.54-150.79,513.79c-2.9,3.32-0.69,8.58,3.74,8.85c101.54,6.92,196.72,32.51,285.39,76.64
		c3.46,1.66,5.12,5.81,3.74,9.55l-0.14,0.41c-1.52,3.74-5.81,5.67-9.55,4.15c-103.62-38.32-199.34-61.56-310.85-61.15
		c-2.91,0-5.67,1.11-7.75,3.18l-96.7,91.72c-1.38,1.24-0.55,3.6,1.38,3.87c117.45,15.36,259.8,106.93,353.73,184.4
		c2.35,1.94,2.49,5.67,0.28,7.75l-3.04,3.04c-1.11,0.97-2.63,1.11-3.87,0.28c-131.84-81.9-232.68-140.14-376.56-172.23
		c-6.64-1.52-13.83-0.28-19.64,3.6c-137.92,92.55-291.34,148.02-460.25,166.7c-4.43,0.55-7.88,4.43-7.75,8.85
		c3.46,204.46,99.74,352.62,289.13,444.48c71.8,34.72,122.01,57.83,150.51,69.17c62.94,25.04,113.3,47.59,151.34,67.65
		c260.49,138.2,451.4,347.5,520.29,632.9c43.3,179.15,24.35,375.03-45.51,546.85c-0.69,1.66,0,3.6,1.52,4.56
		c1.52,0.97,3.46,0.69,4.7-0.69c39.43-45.1,67.51-78.16,84.39-99.05c146.09-181.91,216.78-376.56,168.5-604.12
		c-21.17-99.05-57.27-195.61-108.32-289.68c-61.56-113.02-120.91-208.34-161.3-318.45c-31.13-84.52-46.9-183.3-47.31-296.18
		c-0.83-210,98.91-479.89,327.58-523.61c126.44-24.07,266.85-10.51,380.57,68.06c139.58,96.42,204.05,229.36,193.4,398.83
		c-8.02,128.24-117.86,261.87-249.28,279.72c-65.71,8.85-122.57-2.08-170.71-32.93c-72.76-46.48-85.91-112.88-78.44-192.7
		c2.9-30.43,11.2-53.26,24.9-68.62c28.5-31.82,68.2-35.41,119.25-10.65c10.24,4.98,8.58,19.92-2.35,22.69
		c-64.19,16.19-77.19,88.68-24.62,130.45c41.22,32.79,84.11,34.45,128.52,4.98c43.02-28.64,62.11-73.04,57.27-133.22
		c-8.99-110.53-74.56-187.45-177.76-221.2c-83.28-27.11-144.56-37.08-211.1,23.38c-83.56,75.81-118.97,172.37-106.38,289.82
		c11.76,109.56,46.62,214.42,104.45,314.44c59.9,103.62,102.65,181.64,128.51,233.93c74.01,149.54,112.19,301.71,114.27,456.51
		c3.87,298.12-203.91,570.37-445.17,726.27c-123.81,79.96-272.8,116.76-409.07,121.04c-221.34,7.19-491.65-4.15-739.14-3.6
		c-10.65,0.14-18.4-9.96-15.63-20.2l19.92-72.9c2.77-10.38,11.76-17.71,22.55-18.68l112.05-9.68c3.32-0.28,4.98-4.15,3.04-6.78
		C1732.45,3636.16,1683.62,3521.48,1661.76,3393.38 M1966.79,1082.58c-86.46,32.1-169.05,81.07-247.49,146.78
		c-6.64,5.53-9.96,14.25-8.58,22.96c18.12,119.11,105.14,187.45,218.57,210.27c236.56,47.31,445.03-142.21,499.4-360.65
		c8.99-36.38,7.61-70.69-4.29-102.92c-3.04-8.3-11.07-13.7-19.92-13.42c-110.81,3.46-229.5,24.9-356.08,64.19
		c-4.01,1.25-6.23,5.53-4.98,9.55c2.9,8.85,15.77,20.34,18.81,34.45c12.17,57.69,25.32,227.84-43.71,253.71
		c-4.84,1.8-10.38,0-13.14-4.29c-48-74.43-44.41-157.98-31.26-254.82C1974.68,1084.38,1970.67,1081.2,1966.79,1082.58
		 M1325.18,1162.13c13.97,65.43,16.88,139.17,8.58,220.93c-2.63,26.42-13,51.88-31.26,76.36c-7.75,10.24-21.3,13.7-32.92,8.44
		c-34.03-15.63-45.79-67.23-52.29-104.17c-12.31-69.58-7.89-137.23,13.42-203.08c2.35-7.47,6.5-14.25,11.9-19.78l9.13-9.13
		c3.87-3.87,2.9-10.38-1.8-13.14c-13.7-7.88-24.49-13-32.37-15.08c-122.84-32.79-243.34-53.4-361.48-61.56
		c-26.98-1.8-51.46-0.83-73.46,3.04c-15.91,2.9-27.25,16.88-26.98,33.06c4.98,200.04,161.03,405.88,360.37,448.49
		c138.48,29.6,267.68-42.88,315.55-176.1c17.29-48,16.88-108.04-19.78-142.77c-12.31-11.76-39.01-28.63-79.96-50.63
		C1328.36,1155.21,1324.35,1158.26,1325.18,1162.13 M1541.13,1510.19c7.06,15.63,14.53,27.39,22.13,35.14
		c5.81,5.95,15.49,5.26,20.34-1.52l52.98-73.32c0.41-0.55,0.41-1.38,0.14-2.35c-0.14-0.41-0.28-0.69-0.55-1.11
		c-0.14-0.41-0.28-0.83-0.55-1.11c-0.42-0.97-1.11-1.52-1.8-1.52l-90.06-8.44c-8.3-0.69-15.22,6.09-14.53,14.39
		C1530.06,1481.14,1533.93,1494.42,1541.13,1510.19 M2024.62,3693.99c-76.08-135.02-74.56-264.36-44.82-417.09
		c20.06-103.48,86.18-239.32,170.98-303.1c2.35-1.8,4.98-3.32,7.75-4.57l38.73-16.6c2.07-0.83,3.18-3.04,2.63-5.26
		c-0.55-2.08-2.63-3.6-4.84-3.32c-34.17,3.18-69.86,23.1-94.48,49.66c-135.02,145.39-191.46,316.1-169.46,512.4
		c7.19,64.05,35,129.9,83.28,197.82c0.83,1.25,2.35,1.66,3.6,0.97l3.74-1.66C2025.17,3701.6,2026.56,3697.31,2024.62,3693.99
		L2024.62,3693.99z"/>
</g>
</svg>
