<svg xmlns="http://www.w3.org/2000/svg" viewBox="0 0 100 100"><g transform="translate(26.71811983741176, 1) scale(0.22577463307397444) translate(1.0399999999999974, 0.41999999999999993)"><path d="M105.11,383.68c.35,10.27.37,21.5,1.25,32.66.59,7.53-4.94,15.19-13.6,17a13.75,13.75,0,0,1-5.45-.19,26.58,26.58,0,0,1-15.09-8.94A166,166,0,0,1,53,397.34c-10-17.73-19.72-35.59-29.43-53.46-5.07-9.33-8-19.47-10.51-29.73a126.29,126.29,0,0,1-3.41-17,102.52,102.52,0,0,1,.22-23.42,100.89,100.89,0,0,1,5.69-21.64,22.48,22.48,0,0,1,4.91-8.16c3.94-4.1,7.71-8.36,12.41-11.63.62-.43,1.41-1,1.57-1.62.27-1.08.55-2.6,0-3.34a3.56,3.56,0,0,0-3.16-1,9.91,9.91,0,0,0-3.83,2.43q-4.69,4.43-9.14,9.1c-1.25,1.31-1.71.72-1.93-.55-.56-3.15-1.53-6.34-1.4-9.47.3-7,1.24-13.91,4.88-20.26a127.67,127.67,0,0,1,11.76-17c.58-.71,1.44-1.43,1.54-2.22.13-1.1,0-2.73-.64-3.28a3.88,3.88,0,0,0-3.37-.09,7,7,0,0,0-2.42,2.67c-3,4.63-6,9.29-8.82,14-.62,1-1.11,1.45-2,.58-3.34-3.16-7.21-6-9.83-9.64-4.17-5.88-3.47-10.13,4.75-11.58,5.23-.93,10.56-1.33,15.84-1.94,2.88-.33,5.81-.38,8.62-1a8.24,8.24,0,0,0,3.64-2.45,74.7,74.7,0,0,1,22.92-15.84,80.14,80.14,0,0,1,29.06-7.41,3.77,3.77,0,0,0,3.13-1.54c8.16-11,15.38-22.44,18.83-35.92,4.9-19.09,2.34-37-8.48-53.54A48.1,48.1,0,0,0,89.24,46.83c-7-4.36-14.51-4.87-22.51-3A21.33,21.33,0,0,0,51.17,56.74c-1.9,4.31-3.55,8.75-5,13.24-2.85,8.67-8.24,14.89-16.89,18.09a14.86,14.86,0,0,1-9,.15c-4.18-1.06-8.17-2.49-11.53-5.28-7.62-6.32-9.79-14.71-8.28-24A71.59,71.59,0,0,1,12.31,29.41c7-10.12,16-18.38,27.44-23.11,6-2.47,12.56-3.58,18.9-5.15S71.48,0,77.89.32A60.52,60.52,0,0,1,97.89,5c25.3,10.55,41.64,28.9,48.05,55.77,1.54,6.47,1.6,13,1.81,19.62.8,26.45-7.53,49.91-22.92,71.12-.27.37-.58.71-.86,1.08-1.41,1.92-1.39,1.86,1.16,2.57a100.11,100.11,0,0,1,34.58,17.08A37,37,0,0,1,165.3,177c1.5,1.73,3,1.7,4.78,1a38.21,38.21,0,0,1,17.07-2.71A25.07,25.07,0,0,1,200,179.83c4.2,3,5.2,6.74,2.51,11.15a36.85,36.85,0,0,1-5.6,6.65c-2.06,2.05-4.42,3.79-6.65,5.67-.95.8-1.53.57-2.07-.55-1.45-3-2.89-6.09-4.53-9a50.71,50.71,0,0,0-4.09-6.1,2.2,2.2,0,0,0-3.27-.47c-1.24.9-1.84,2-1,3.53a11.62,11.62,0,0,0,1.16,2,55.48,55.48,0,0,1,9.45,17.2,75.58,75.58,0,0,1,3.24,15.61c.54,4.39.08,8.89.23,13.34.12,3.32-1.11,6.28-2,9.35-.4,1.4-1.14,1.15-2,.42a37.57,37.57,0,0,0-3.4-3.06,3.09,3.09,0,0,0-4.17.32c-1,1.26-.74,2.58.09,3.82a9.32,9.32,0,0,0,1.38,1.84c5.87,5.44,7.65,12.73,8.95,20.15,2,11.26,1.55,22.68.8,34a177.51,177.51,0,0,1-12.06,52.91,216.93,216.93,0,0,1-27.57,49.61c-2,2.71-4.35,5.16-6.57,7.71s-4.63,5.33-7,7.89c-3.63,3.85-7.63,7.09-13.31,7.17a8.72,8.72,0,0,1-8.81-7.56c-.46-4.11-.76-8.25-.88-12.38-.4-13.81-.66-27.63-1-41.44-.07-2.59-.43-5.18-.72-7.77a2.79,2.79,0,0,0-2.63-2.72c-1.23-.12-2.78,1.34-3.06,3a25.93,25.93,0,0,0-.17,4.14C105.1,371.69,105.11,377.22,105.11,383.68ZM42.6,64.86a8.39,8.39,0,0,0-.88.91,9.91,9.91,0,0,0-.62,1.16c.25.08.67.3.74.21a2.74,2.74,0,0,0,.61-1.09,5.37,5.37,0,0,0,0-1.33,2.1,2.1,0,0,0,.39-.21c.06-.05.07-.16.11-.25Zm67.22,164.77h2.3a119.65,119.65,0,0,1,19.63,1.82,10.68,10.68,0,0,0,8.32-1.67,66.8,66.8,0,0,1,7.45-4.55c3.75-1.9,5.68-.88,6.57,3.29a16,16,0,0,1,.17,3.66c0,1.69-.23,3.37-.28,5.06-.2,6.2,3.54,10.93,6.19,16a3,3,0,0,0,2.76.92A4.23,4.23,0,0,0,165,252a3.08,3.08,0,0,0-.3-2.18c-1-2.39-2.2-4.72-3.25-7.09s-1.83-4.63-1.13-7.47A16.35,16.35,0,0,0,159,224c-2.31-4.76-6-6.54-11.22-5.53a25.4,25.4,0,0,0-10.26,4.92,7.84,7.84,0,0,1-6,1.7c-2.88-.38-5.76-.72-8.63-1.08-14.43-1.79-28.76-1.47-42.84,2.41a6.48,6.48,0,0,1-5.93-1A37.37,37.37,0,0,0,63,220.34c-4.66-1.18-8.09.46-11,3.77a24,24,0,0,0-4.78,9.81,38,38,0,0,0-.82,12.34c.2,3.38-.41,6.33-2.75,8.91a8.36,8.36,0,0,0-1.86,3.62c-.2.88.16,2.47.79,2.81.89.49,2.26.25,3.39.06.5-.08.94-.74,1.34-1.2,3.77-4.26,6.58-8.87,5.73-14.92a12.61,12.61,0,0,1,0-3.68c.59-3.6.92-7.32,2.1-10.74,1.67-4.89,4.18-5.86,8.91-3.83a64,64,0,0,1,9.33,5,9,9,0,0,0,7.92,1A88.64,88.64,0,0,1,109.82,229.63ZM108,280.38c.06-10.89-8.09-22.44-22.83-22.82C74.65,257.29,62,266.68,62,280.28a23.11,23.11,0,0,0,23.24,23.1C97.28,303.58,108.17,292.92,108,280.38Zm55.52,1.36A21.57,21.57,0,0,0,142,259.54c-12.34-.18-21.36,9.1-22.09,22.89-.57,10.87,8.93,21.1,21.33,21.3A22,22,0,0,0,163.56,281.74ZM115.65,338.6c3.68-.29,7.8-.61,11.93-1a5.14,5.14,0,0,0,1.73-.55,3.23,3.23,0,0,0,1.8-3.84c-.35-1.66-1.59-2.13-3.12-2.05-1.69.08-3.39.1-5.06.32a123.21,123.21,0,0,1-27.08,0,22.49,22.49,0,0,0-5.5,0,2.63,2.63,0,0,0-2.33,3,2.54,2.54,0,0,0,2.4,2.4l1.38.08Z"/><path d="M70.92,280.49a14,14,0,0,1,14-14.87c6.52-.13,14.92,5.61,14.8,14.9-.1,8-6.75,14.74-14.78,14.37C75.56,294.44,70.79,287.94,70.92,280.49Z"/><path d="M141.22,267.54c7.07-.59,14,6,14.08,13.89a14.23,14.23,0,0,1-13.69,13.88c-7,.22-14.39-7.18-14.44-15C127.12,272.73,135.08,267,141.22,267.54Z"/></g></svg>