<svg xmlns="http://www.w3.org/2000/svg" viewBox="0 0 100 100"><g transform="translate(1, 35.10739530929966) scale(0.19559316621427433) translate(2.09, 0.1814419230305191)"><path d="M245.87,138.38c-5.59-.81-11.25-1.27-16.74-2.49-15.45-3.41-30.85-7-46.22-10.78-6.35-1.55-12.59-3.56-18.85-5.44a6.35,6.35,0,0,0-5.9.84c-7.21,4.76-15.39,7.2-23.74,9.14-11,2.57-22.26,2.48-33.38,1.66a79.09,79.09,0,0,1-29.37-7.84A42,42,0,0,1,54,106.66c-2-3.38-3.33-7.17-5-10.74-3.44-7.18-3-14.43-.85-21.86,1.95-6.9,4.89-13.35,10.06-18.24C61.79,52.38,62.87,48.49,63,44a39.21,39.21,0,0,1,1.69-9c1.56-6.08,7.72-7,11.68-5.23,3,1.39,6,3,8.9,4.65a5.4,5.4,0,0,0,5.11.42,47.69,47.69,0,0,1,24.26-2.24c6.45,1.13,13.06,1.42,19.59,2.09a14.1,14.1,0,0,0,7.55-1.4,112.36,112.36,0,0,1,11.52-4.46c5.29-1.76,8.7-.2,10.33,5.12,1.52,4.94,2.51,10,3.61,15.1.49,2.23.62,4.54,1.08,6.78a4.94,4.94,0,0,0,1.32,2.34,1.91,1.91,0,0,0,3.17-1.12,7,7,0,0,0,0-2.29c-1.29-7.36-2.19-14.81-4.69-21.92-1.32-3.76-3.29-7.08-7.53-7.9a19.14,19.14,0,0,0-7.27-.12,42.85,42.85,0,0,0-10.42,3.35c-5.15,2.56-10.39,2.1-15.71,1.5a43.54,43.54,0,0,1-4.76-1.06,44.71,44.71,0,0,1,4-3.67C140.68,14.54,156.68,8,173.9,4.18A200.61,200.61,0,0,1,204.33.24a158.49,158.49,0,0,1,23.89.54,192.42,192.42,0,0,1,63.14,16.11,177.11,177.11,0,0,1,37.23,22.43A125.33,125.33,0,0,1,351.72,63a3.29,3.29,0,0,0,3.66,1.52c8.5-1,17.05-1.65,25.6-2.15,7.81-.46,15.65-1,23.44-.72,16.81.61,33.5,2.36,49.48,8.16q2.58.93,5.14,1.92c2.06.79,3.93,1.79,6.31,2.08s4.76,2,6.79,3.57A175.77,175.77,0,0,1,486,88.7c3.34,3.14,5.44,7.35,7.25,11.58.95,2.24,1.72,4.55,2.58,6.82,3.12,8.29,1.79,16.24-2.1,23.84-5.37,10.49-14.4,16.4-25.48,19.36-6.72,1.8-12.69-.44-17.9-4.66-3.11-2.52-3.8-8.41-2-12.72a27.87,27.87,0,0,1,5.79-9.25c3.25-3.26,3.37-6.94,2.15-11-2.09-6.93-6.74-12-12.23-16.28a61.78,61.78,0,0,0-27.86-11.95c-8.29-1.46-16.65-2.14-25-3-6.06-.64-11.92.56-17.87.21a2.55,2.55,0,0,0-.85.27,3.34,3.34,0,0,0,.66.81c6,4.15,12.16,8.19,18.13,12.43,4.86,3.44,9.65,7,14.26,10.77a21.67,21.67,0,0,1,5.05,5.91c3,5.26.4,12.36-6.88,12.34a40.77,40.77,0,0,1-10-1.18,200.09,200.09,0,0,1-39.44-14.19,76.55,76.55,0,0,0-11-4.42A16.76,16.76,0,0,0,337,104c-4.72.4-9.4,1.2-14.12,1.57-6.11.49-12.25.67-18.37,1.07-7.79.5-15.58,1.09-23.37,1.65-.3,0-.61.06-.91.07-7.82.35-15.64.56-23.45,1.08-9.1.61-17.6-1.64-25.87-5-7.2-3-14.3-6.17-21.44-9.27-.14-.06-.26-.18-.41-.23-1.33-.4-2.87-.91-3.71.57s.52,2.65,1.65,3.32a59.48,59.48,0,0,0,8.91,4.73c9.27,3.49,18.3,7.67,28.07,9.84,2.08.46,4,2.21,5.7,3.66,3.42,2.86,6.56,6,8.06,10.4,1.85,5.42-1.37,10.21-7.16,10.57-1.53.1-3.07,0-4.61,0ZM127.22,103c8.43.79,19.18-6.41,19.54-19,.29-10.34-8.63-18.65-19-19.07-11.38-.46-19.67,10.94-19.52,19.68C108.38,94.7,117.5,103.78,127.22,103ZM74.85,64.17C64.52,63.71,56,72.9,56,82.69c0,10.27,7.33,18.17,18,18S92.41,92.9,92.39,82.34A17.93,17.93,0,0,0,74.85,64.17Z"/><path d="M15,124.45a76.82,76.82,0,0,1-8.6-1.08c-6.54-1.53-8.49-7.79-4-12.89a36.41,36.41,0,0,1,5.48-4.88c7-5.26,14.93-8.89,22.78-12.65,2.88-1.39,5.92-2.46,8.73-4,2.53-1.34,3.36-1.49,4.2,2.3a51,51,0,0,0,1.46,6.18A62.92,62.92,0,0,0,58.12,118.8a5.76,5.76,0,0,1,.71,1.4,13,13,0,0,1-1.33.26c-6.69.63-13.38,1.2-20.07,1.86-5,.5-10,1.2-15,1.64-2.43.21-4.9,0-7.36,0Z"/><path d="M127.52,70.56c6.52-.52,13.4,5.19,13.24,13.29s-5.3,13.58-13,13.5c-8.18-.08-13.81-5.91-13.83-14C113.9,75.89,119.08,70.58,127.52,70.56Z"/><path d="M61.14,81.94c-.28-7.16,5.35-12.06,12.58-12.16A13,13,0,0,1,87,83.07a12.44,12.44,0,0,1-12.93,12.5A13.12,13.12,0,0,1,61.14,81.94Z"/></g></svg>