<svg version="1.1" id="Layer_1" xmlns="http://www.w3.org/2000/svg" xmlns:xlink="http://www.w3.org/1999/xlink" x="0px" y="0px" viewBox="0 0 100 100" style="enable-background:new 0 0 4000 4000;" xml:space="preserve"><g transform="translate(5.582103560570772, 1) scale(0.026506832271256872) translate(-321.9599999999998, -150.76000000000033)"><path d="M1091.79,2449.08c-46.01,162.05-129.29,328.87-239.74,452.57c-38.76,43.45-61.97,72.67-69.79,87.57
		c-46.91,89.79-22.22,169.62,0.91,263.11c25.51,103.45,54.32,211.27,86.5,323.61c0.82,3.05,3.46,5.27,6.67,5.6
		c34.15,3.05,65.76,12.35,94.89,27.9c48.56,25.92,79.17,89.54,88.47,140.32c7.74,42.55-33.91,70.86-70.53,70.04
		c-99.91-2.22-178.1-3.13-234.64-2.72c-59.42,0.33-89.54-36.38-113.57-84.85c-19.83-39.75-39.59-90.61-59.42-152.67
		c-29.22-91.27-68.06-225.01-105.67-343.69c-27.74-87.4-48.31-171.27-66.25-261.47c-18.35-92.26-15.23-193.82,9.3-304.59
		c15.39-69.71,16.21-146.5,2.3-230.52c-12.26-74.32-32.1-183.28-59.67-326.82c-33.17-172.83-39.59-342.78-19.42-509.85
		c9.14-75.72,29.05-151.02,59.59-226c36.21-88.56,93.08-160.49,170.61-215.87c2.22-1.56,3.37-4.28,2.96-6.91
		c-6.58-47.16-9.88-74.07-9.96-80.74c-2.14-260.48,78.93-518.57,258.26-707.45c127.81-134.56,317.1-209.37,501.21-212.01
		c202.79-2.88,397.51,79.75,525.49,237.52c146.17,180.24,165.18,393.97,105.1,611.99c-15.23,55.22-23.13,87.73-70.04,111.85
		c-41.73,21.4-85.43,21.81-125.34-4.77c-38.85-25.92-62.8-68.47-59.09-116.29c0.74-9.3,8.89-27.65,24.44-54.89
		c46.33-80.82,49.3-189.62,17.86-278.26c-32.67-92.26-100.9-168.55-184.52-221.47c-134.56-85.26-305.33-84.77-442.45-7.82
		C920.6,541.35,828.59,780.52,846.53,995.16c1.81,21.73,5.68,43.13,11.69,64.19c1.23,4.28,5.35,7.08,9.79,6.67
		c155.05-15.72,293.73,30.37,412.41,127.98c43.62,35.88,80.24,71.77,109.87,107.65c93.49,113.41,142.63,261.72,156.45,411.42
		c4.36,46.5,9.88,114.32,16.54,203.61c11.19,150.12,34.9,279.33,113.57,402.94c24.61,38.68,54.15,80.49,88.55,125.43
		c47.08,61.48,97.69,107.98,173.08,125.43c3.87,0.91,7.9-1.07,9.55-4.69l21.89-46.83c2.3-4.86,2.72-10.45,1.15-15.55
		c-1.65-5.43-2.88-45.27-3.79-119.5c-1.32-112.75,15.14-216.7,49.3-311.84c5.6-15.64,12.51-28.23,20.82-37.78
		c7.65-8.72,20.49-10.7,30.37-4.61c20.66,12.59,40.24,27.57,58.6,44.85c83.21,78.43,148.63,159.83,226.57,247.56
		c1.4,1.56,3.62,2.3,5.76,1.89c83.7-17.45,169.21-18.93,256.53-4.36c23.29,3.87,46.25,10.53,68.72,20c3.04,1.23,6.58,0.33,8.72-2.22
		c58.68-74.56,119.42-144.6,182.21-210.11c34.81-36.38,78.68-73.58,119.91-99.67c54.32-34.32,72.26,73.08,74.65,103.04
		c3.7,46.58,5.1,87.73,4.03,123.37c-2.96,102.79-11.03,200.15-24.2,292.17c-1.15,7.9,0.58,17.69,5.19,29.3
		c50.53,127.98,58.43,259.41,23.62,394.14c-0.49,2.14,0.91,4.28,3.13,4.53c96.7,11.52,190.11,38.76,280.23,81.81
		c1.4,0.66,2.06,2.39,1.4,3.87l-0.99,1.98c-0.25,0.58-0.82,0.82-1.32,0.66c-91.76-31.77-188.22-53.82-289.53-66.17
		c-1.23-0.16-2.39,0.49-2.96,1.65l-23.13,51.44c-0.58,1.23,0.16,2.72,1.48,3.13c90.45,25.76,179.33,62.63,266.65,110.45
		c1.89,0.99,2.63,3.29,1.73,5.27l-0.91,2.06c-0.33,0.74-1.23,1.07-1.98,0.74c-82.38-35.47-173.65-66.5-273.98-93.08
		c-2.55-0.66-5.27,0.41-6.67,2.72c-120.73,206.66-359.98,298.26-593.47,279.25c-15.47-1.23-52.51-11.19-111.02-29.88
		c-65.76-20.99-122.13-41.15-169.21-60.57c-1.32-0.58-2.88,0-3.46,1.32l-0.82,1.89c-0.16,0.41,0,0.82,0.33,0.99
		c75.63,43.87,150.53,81.97,224.76,114.15c222.62,96.79,449.94,166.82,682.02,210.2c63.45,11.93,139.83,24.03,229.29,36.38
		c62.63,8.64,127.4,47.41,140.08,113.25c8.31,43.21-28.81,88.88-69.96,96.62c-6.67,1.23-28.72,1.98-66.25,2.14
		c-367.72,1.48-718.15-22.14-1071.96-106.58c-297.43-71.02-579.31-190.2-844.81-348.54c-194.23-115.8-369.69-254.88-526.31-417.26
		c-1.89-1.98-2.06-5.02-0.41-7.24c112.09-148.88,206.9-328.63,242.79-503.6c0.58-2.72,0.74-7.32,0.66-13.83
		c0-0.41-0.33-0.82-0.74-0.91C1092.28,2448.42,1091.87,2448.67,1091.79,2449.08 M2142.19,2661.84
		c-68.56,51.83-81.4,150.42-28.66,220.11c52.69,69.74,151.04,84.22,219.59,32.35c68.56-51.83,81.4-150.42,28.66-220.11
		C2309.09,2624.46,2210.74,2609.97,2142.19,2661.84 M2786.72,2631.4c-85.88-5.13-159.62,61.12-164.78,147.93
		c-5.13,86.76,60.22,161.33,146.1,166.4c85.88,5.13,159.62-61.12,164.78-147.93C2937.95,2711.04,2872.6,2636.47,2786.72,2631.4
		 M2417.48,2989.05c17.53,6.5,50.53,26.83,54.24,49.13c6.91,40.74-11.11,60.49-46.75,79.42c-4.53,2.39-9.71,2.96-14.57,1.73
		l-64.28-17.2c-3.13-0.82-5.93,1.98-5.19,5.1c21.15,85.02,114.81,66.09,154.97,9.71c1.89-2.63,5.68-3.13,8.15-0.99l50.61,42.71
		c1.15,0.99,2.63,1.73,4.2,2.06c43.21,9.05,74.56-2.14,94.07-33.5c5.51-8.89,6.17-17.28,1.98-25.27c-1.15-2.22-3.79-3.21-6.17-2.39
		c-49.71,18.19-82.22,27.9-115.8-20.41c-20.99-30.2,18.76-67.16,43.7-90.2c1.98-1.81,2.22-4.86,0.66-7
		c-19.51-26.17-132.67-11.19-158.68-6.17C2411.8,2977.12,2410.98,2986.58,2417.48,2989.05L2417.48,2989.05z"/><path d="M2338.06,2788.07c0,54.57-44.2,98.76-98.76,98.76s-98.76-44.2-98.76-98.76s44.19-98.76,98.76-98.76
		S2338.06,2733.51,2338.06,2788.07L2338.06,2788.07z"/><path d="M2874.41,2787.99c0,54.15-43.87,98.02-98.02,98.02c-54.15,0-98.02-43.87-98.02-98.02s43.87-98.02,98.02-98.02
		C2830.55,2689.97,2874.41,2733.84,2874.41,2787.99L2874.41,2787.99z"/><path d="M880.19,3062.21c0.66-1.56,2.72-2.06,3.95-0.82c125.01,122.55,260.07,234.72,407.47,326.9c5.93,3.7,10.37,9.3,12.76,15.88
		l66.75,185.26c2.39,6.67,8.48,11.28,15.47,11.77c68.72,5.1,126.41,29.46,149.79,97.77c20.66,60.57,2.8,118.18-69.71,119.01
		c-42.63,0.41-112.5,0.74-209.54,0.82c-23.46,0-39.67-2.22-48.64-6.67c-40.24-20.08-63.29-75.88-81.72-119.5
		c-85.02-201.06-167.07-409.77-246.24-626.22C879.94,3064.68,879.78,3063.28,880.19,3062.21L880.19,3062.21z"/><path d="M2526.45,3418.08c68.72-5.51,136.04-19.09,201.97-40.66c2.72-0.91,5.76-0.74,8.39,0.41
		c279.33,120.73,443.52,192.09,492.65,214.06c4.03,1.81,7.24,4.03,9.71,6.75c1.32,1.4,0.08,3.79-1.81,3.37
		c-136.37-26.83-279.33-59.34-428.87-97.61c-94.81-24.2-188.96-52.01-282.46-83.37C2524.47,3420.47,2524.8,3418.25,2526.45,3418.08
		L2526.45,3418.08z"/><path d="M3454.14,3844.89c-3.05,0-5.19-3.05-4.2-5.93c9.79-27.98,19.26-59.26,16.05-86.42c-5.51-47.82-28.64-86-69.38-114.73
		c-2.3-1.65-1.73-5.27,1.07-6.09c37.28-11.11,78.68-15.8,124.36-14.07c61.56,2.39,106.58,31.19,135.05,86.25
		c15.72,30.37,16.3,60.41,1.89,90.28c-17.86,36.87-51.36,49.71-95.39,50.29C3520.88,3845.06,3484.42,3845.22,3454.14,3844.89
		L3454.14,3844.89z"/></g></svg>