<svg version="1.1" id="Layer_1" xmlns="http://www.w3.org/2000/svg" xmlns:xlink="http://www.w3.org/1999/xlink" x="0px" y="0px" viewBox="0 0 100 100" style="enable-background:new 0 0 4000 4000;" xml:space="preserve"><style type="text/css">
	.st0{fill:#181412;}
</style><g transform="translate(1, 7.8661970836522315) scale(0.02767790822796429) translate(-221.1199999999996, -476.46999999999923)"><path class="st0" d="M1554.95,661.72c80.02-30.82,169.15-53.68,267.25-68.73c204.6-31.4,414.12-47.03,628.71-46.88
		c280.86,0,528.72,14.33,781.5,76.4c105.48,26.04,250.47,76.69,315,163.07c50.21,67.14,51.66,186.95,48.91,263.2
		c-3.04,83.34,19.39,216.75,39.94,324.26c66.56,348.43,114.74,579.36,120.24,844.16c5.35,246.71-47.32,517.87-211.26,703.37
		c-45.58,51.66-85.08,92.17-118.51,121.69c-7.52,6.66-11.43,16.5-10.42,26.62c3.47,34.87-2.75,71.48-18.52,109.82
		c-64.1,156.13-257.99,243.09-419.47,277.96c-243.67,52.67-502.53,64.39-742.44,54.99c-184.49-7.24-363.62-31.83-537.69-73.8
		c-93.62-22.57-176.96-61.5-249.89-116.63c-77.27-58.46-116.34-153.52-131.38-249.46c-2.46-15.77-11.14-29.95-24.02-39.36
		c-249.46-181.74-330.63-474.75-299.52-771.67c10.85-104.33,25.61-217.19,43.26-311.97c58.31-312.25,107.65-604.98,148.02-878.31
		c5.93-39.65,10.27-76.98,13.17-112c3.91-47.03-26.62-68.59-65.4-86.82c-49.92-23.3-88.56-12.3-115.76,33.28
		c-4.05,6.95-7.09,14.62-8.83,22.43c-5.93,26.19-18.09,99.12-36.61,218.78c-34.87,225-137.75,388.94-374.62,446.24
		c-84.79,20.4-163.22,17.22-235.42-9.55c-90.87-33.57-140.07-133.41-108.52-226.88c17.8-52.96,70.32-99.7,122.7-101.14
		c43.84-1.16,90,27.35,131.53,24.45c48.76-3.18,87.83-25.9,117.06-68.15c18.95-27.49,23.59-92.03,25.18-118.94
		c10.27-181.74,30.39-334.97,164.37-465.05c106.93-103.75,231.22-150.63,373.03-140.35c134.42,9.84,253.51,81.32,353.78,172.19
		C1544.39,662.59,1550.03,663.6,1554.95,661.72 M1666.8,803.66c1.74,1.88,4.49,2.6,7.09,1.88c50.64-15.05,111.27-26.19,182.03-33.57
		c319.06-33.28,624.51-41.82,916.51-25.76c174.36,9.55,334.83,36.9,481.41,81.9c41.24,12.59,77.41,31.11,108.81,55.42
		c102.3,79.58,43.41,158.15-43.12,213.14c-143.97,91.3-328.03,134.42-484.88,155.26c-360.73,48.18-721.6,34.73-1082.62-40.37
		c-5.93-1.16-11.58,3.33-11.58,9.41v134.71c0,5.06,4.78,8.97,9.69,7.81c38.05-8.1,82.33-8.83,133.12-2.31
		c176.38,23.01,261.76,180.44,290.26,342.49c32.99,187.96,52.24,312.4,89.57,454.2c2.6,9.55,15.34,11.43,20.55,3.04
		c19.82-32.27,34.58-67.86,44.57-106.5c28.79-111.56,58.46-222.83,88.99-334.1c10.85-40.08,18.52-70.76,22.72-91.88
		c14.04-70.61,35.3-152.51,122.41-124.87c15.05,4.78,31.69,17.22,49.92,37.04c60.77,65.84,105.92,137.61,135.44,215.16
		c2.03,5.06,7.09,8.39,12.59,7.81c78.86-8.54,152.94-9.41,222.54-2.75c4.63,0.43,8.83-2.75,9.7-7.38
		c12.73-67.72,66.7-316.16,129.79-338.01c108.52-37.77,207.21,143.97,249.02,226.45c76.83,151.21,126.32,312.83,157.57,463.46
		c51.8,248.73,8.68,533.64-181.74,715.38c-64.53,61.5-151.5,115.76-260.74,162.49c-112.43,48.18-209.95,80.31-292.58,96.66
		c-430.33,84.79-845.32,22.43-1245.11-186.95c-164.23-85.95-283.31-225.87-303.57-412.1c-10.27-95.21-7.67-190.85,8.1-287.08
		c49.92-305.45,80.45-491.68,91.3-558.67c13.46-82.33,21.27-195.05,23.15-338.16c1.3-96.22-22.57-161.34-48.47-262.91
		c-1.16-4.78-7.96-4.63-9.12,0.14c-12.88,52.81-23.73,109.97-32.85,171.32c-33.57,226.74-76.83,487.05-129.79,781.07
		c-23.15,128.49-37.19,240.34-41.96,335.69c-14.04,272.17,72.93,504.41,313.27,654.46c42.25,26.34,73.94,44.28,94.92,53.68
		c45.29,20.4,82.33,58.46,37.48,101.43c-9.98,9.69-24.31,13.75-38.06,11l-41.96-8.83c-5.21-1.16-9.55,3.91-7.81,8.97
		c29.66,86.09,137.32,143.54,215.74,165.1c373.46,102.45,774.99,110.55,1162.63,55.13c97.38-13.89,226.59-45.15,336.27-103.75
		c58.02-30.97,97.24-76.69,117.49-137.17c1.59-4.49-3.18-8.68-7.38-6.37c-53.25,28.94-102.45,51.95-147.59,69.02
		c-89.28,34-144.84-83.92-38.06-115.47c332.8-98.39,516.57-375.2,533.93-712.92c19.53-383.44-83.92-753.43-139.63-1130.51
		c-13.75-94.05-11.72-169.01-15.05-275.36c-1.45-45.29-9.7-73.65-41.09-101.58c-99.84-88.26-236.58-109.68-370.42-138.04
		c-54.55-11.43-115.47-20.4-182.75-26.63c-362.75-33.71-725.07-25.61-1086.96,24.31c-42.25,5.79-98.54,22.57-168.86,50.5
		c-1.88,0.72-2.61,3.18-1.16,4.63L1666.8,803.66 M1710.79,911.32l21.7,159.17c1.16,9.12,7.81,16.64,16.64,19.1
		c276.95,76.69,564.32,83.64,857.61,69.74c205.9-9.84,404.28-42.4,585.15-125.74c34.87-16.06,63.67-36.9,86.38-62.51
		c3.18-3.47,2.6-8.83-1.01-11.57c-22.43-17.22-73.65-37.62-101.58-44.28c-336.13-79.87-673.42-69.89-1042.83-52.67
		c-143.39,6.8-282.01,20.11-415.71,40.23C1713.1,903.36,1710.21,907.12,1710.79,911.32 M3095.72,2068.19
		c-50.11,15.61-74.56,80.43-54.49,144.73c20.01,64.34,76.87,103.84,127.04,88.19c50.11-15.61,74.56-80.43,54.49-144.73
		C3202.75,2092.04,3145.89,2052.54,3095.72,2068.19 M2738.21,2156.04c-48.41-37.37-120.61-25.22-161.14,27.24
		c-40.5,52.44-34.14,125.37,14.25,162.81c48.41,37.37,120.61,25.22,161.14-27.25C2792.97,2266.4,2786.61,2193.47,2738.21,2156.04
		L2738.21,2156.04z"/></g></svg>