<?xml version="1.0" encoding="utf-8"?>
<!-- Generator: Adobe Illustrator 24.2.1, SVG Export Plug-In . SVG Version: 6.00 Build 0)  -->
<svg version="1.1" id="Layer_1" xmlns="http://www.w3.org/2000/svg" xmlns:xlink="http://www.w3.org/1999/xlink" x="0px" y="0px"
	 viewBox="0 0 4000 4000" style="enable-background:new 0 0 4000 4000;" xml:space="preserve">
<style type="text/css">
	.st0{fill:#181412;}
</style>
<path class="st0" d="M2909.95,1428.32c5.27,5.84,28.21,22.22,68.81,49.15c97.58,64.68,181.64,161.26,239.19,263.84
	c2.14,3.7-1.28,8.26-5.41,7.12c-3.85-1-8.26-3.42-13.25-7.41c-1-0.85-2.42-0.71-3.28,0.14c-1,0.85-1.14,2.28-0.43,3.28
	c65.39,93.45,109.84,197.31,133.06,311.56c48.86,239.76,55.84,476.53,21.08,710.3c-12.68,84.34-32.76,195.74-60.26,334.35
	c-26.35,132.63-13.39,257.85-12.54,394.47c0.14,21.51-8.41,52.71-25.36,93.6c-34.76,83.05-118.81,142.46-200.3,176.08
	c-124.79,51.43-263.12,88.47-414.98,111.12c-209.27,31.34-420.11,44.3-632.24,38.75c-262.27-6.98-515.42-32.2-768-97.73
	c-135.62-35.19-262.7-88.61-381.22-159.98c-2.14-1.28-3.13-3.99-2.28-6.27c1-2.42,3.42-3.7,5.84-3.28l120.38,22.94
	c1.71,0.29,3.42-0.71,3.85-2.42c0.57-1.57-0.29-3.42-1.85-4.13c-235.91-105.99-386.49-319.96-345.46-584.51
	c9.69-62.82,41.17-124.08,94.31-183.91c123.37-138.61,345.18-150.58,474.96-16.81c31.2,32.2,50.15,64.53,56.84,96.87
	c12.82,62.25-16.1,144.6-83.2,159.55c-72.94,16.38-106.7-81.77-171.09-97.16c-52.99-12.68-95.59,17.66-99.72,71.66
	c-19.23,248.59,358.43,393.05,552.17,434.07c111.97,23.65,204,38.18,276.23,43.45c58.27,4.27,148.73,8.55,271.39,12.68
	c4.56,0.14,7.69-4.42,5.7-8.55l-2.42-4.7c-1.85-3.85-1.99-8.26-0.43-12.25c28.49-72.37,108.41-84.34,177.79-84.76
	c54.28-0.43,131.06,0.71,230.5,3.28c1.42,0,2.56-1,2.85-2.28c0.29-1.42-0.57-2.71-1.85-3.13c-23.08-7.83-45.87-14.82-68.52-20.66
	c-34.33-8.97-77.93-29.35-131.06-60.97c-186.91-110.98-218.82-360.99-173.66-549.47c30.06-124.94,83.05-241.75,159.27-350.17
	c0.71-1,0.57-2.28-0.43-3.13c-0.86-0.85-2.28-0.85-3.14,0c-45.73,40.89-85.76,85.48-120.09,133.63
	c-144.31,202.86-170.1,472.4-40.46,688.08c19.09,31.91,42.45,58.84,70.23,80.77c3.13,2.56,1.71,7.55-2.28,8.12
	c-94.31,14.39-153.71,60.83-178.22,139.32c-1.71,5.27-6.27,9.12-11.68,9.69c-27.92,3.28-58.55-3.42-92.03-20.09
	c-9.97-4.99-16.1-15.1-15.95-26.21l1.99-169.67c0-4.84-6.55-6.12-8.55-1.71l-67.38,156.28c-6.7,15.53-22.65,25.07-39.46,23.65
	l-238.19-19.52c-3.99-0.29-6.41-4.27-4.99-7.98c132.06-325.38,186.19-807.32-38.61-1096.65
	c-89.18-114.68-139.75-180.07-151.72-196.31c-118.95-160.69-176.08-338.34-171.09-533.08c2.85-115.96,46.73-255.57,60.4-364.13
	c2.99-23.65,0.28-41.17-7.98-52.43c-12.11-16.67-30.63-41.31-55.42-73.79c-2.85-3.85-7.84-5.27-12.25-3.7
	c-99.58,34.62-181.35,85.33-245.6,152.29c-3.42,3.7-7.12,4.99-11.11,3.85c-2.99-0.85-4.27-4.27-2.85-6.84
	c51.28-97.3,132.2-158.41,242.89-183.35c2.14-0.43,3.13-2.99,1.99-4.84l-36.04-53.85c-1-1.57-2.85-2.28-4.7-1.99
	c-87.61,16.81-229.08,56.7-284.21,123.37c-20.51,24.79-35.33,42.02-44.3,51.57c-3.13,3.28-8.55,0.29-7.41-4.13
	c13.11-48.29,36.75-84.91,70.8-110.12c73.94-54.85,149.87-85.62,228.08-92.31c7.12-0.57,11.4-8.26,8.26-14.67l-15.53-32.05
	c-3.7-7.69-12.25-11.82-20.66-10.11c-72.51,15.24-155.71,26.93-249.73,35.33c-6.98,0.57-12.39-0.43-16.24-2.85
	c-2.85-1.85-2.56-5.98,0.43-7.55c81.06-40.46,161.83-51.86,256.43-56.98c4.7-0.29,7.98-4.7,6.98-9.4
	c-24.36-104.99-20.94-210.56,10.4-316.69c14.67-49.43,21.8-83.48,21.37-101.86c-1.28-54.42-6.41-99.29-3.56-139.9
	c7.27-105.14,20.37-197.87,39.6-278.36c2.28-9.4,5.7-17.95,10.26-25.64c3.56-6.13,11.54-7.84,17.24-3.7
	c97.87,70.38,158.84,152.29,262.41,270.25c19.94,22.65,44.16,31.34,76.79,25.36c62.25-11.54,144.17-13.53,245.6-6.27
	c22.22,1.57,42.88-7.69,61.83-27.64c104.14-109.41,181.49-189.19,231.78-239.19c4.7-4.7,12.54-3.28,15.24,2.71
	c20.23,43.74,33.34,89.18,39.46,136.19c13.25,102.71,18.95,192.89,17.1,270.67c-0.43,20.66,2.14,41.31,7.69,61.26
	c8.41,29.77,16.38,54.99,23.93,75.5c40.17,108.7,48.58,216.11,25.36,322.1c-1,4.56,1.28,9.26,5.56,11.25
	c4.84,2.14,17.66,5.84,38.32,11.11c32.05,7.98,72.37,24.65,120.66,50c1.57,0.86,2.28,2.85,1.57,4.56l-1.42,3.28
	c-0.14,0.14-0.29,0.28-0.43,0.28l-153.29-48.29c-4.27-1.43-8.83,0.85-10.4,4.99c-8.26,20.51-0.86,36.75,20.37,50
	c55.27,34.48,113.97,57.13,176.08,68.1c5.84,1,9.97,6.41,9.4,12.25v0.43c-0.43,5.41-5.41,9.54-10.83,8.97
	c-52.28-4.84-100.72-18.23-145.17-40.03c-1.28-0.57-2.42,1-1.42,1.99c142.46,151.72,289.19,184.34,500.74,196.88
	c117.96,6.98,226.08,38.89,324.38,95.73c20.8,11.97,36.9,24.36,48.44,37.18c3.56,3.85-0.85,9.83-5.7,7.69l-63.54-27.35
	C2910.1,1425.75,2908.95,1427.32,2909.95,1428.32 M1867.86,801.64c12.11-38.18-8.26-65.1-47.3-62.54
	c-62.54,4.27-114.25,31.91-155.28,82.77c-31.2,38.89-37.18,82.91,11.97,107.7C1764.58,973.73,1844.21,875.86,1867.86,801.64
	 M1157.22,763.35c-27.59,32.3-6.36,95.69,47.35,141.31c53.7,45.7,119.52,56.52,147.06,24.14c27.59-32.3,6.36-95.69-47.35-141.31
	C1250.58,741.8,1184.77,730.98,1157.22,763.35L1157.22,763.35z"/>
</svg>
