<svg version="1.1" id="Layer_1" xmlns="http://www.w3.org/2000/svg" xmlns:xlink="http://www.w3.org/1999/xlink" x="0px" y="0px" viewBox="0 0 100 100" style="enable-background:new 0 0 4000 4000;" xml:space="preserve"><style type="text/css">
	.st0{fill:#020403;}
</style><g transform="translate(3.4915828454324327, 1) scale(0.027103044114352718) translate(-281.2899999999997, -191.71999999999989)"><path class="st0" d="M1850.2,1552.93c0.91-0.13,1.3-1.04,0.91-1.82l-37.61-65.19c-1.17-1.95-3.12-3.25-5.47-3.38
		c-106.57-5.86-198.44-15.22-275.6-28.11c-2.99-0.52-5.33-1.69-6.9-3.38c-5.2-5.86-1.69-15.22,6.25-16.27
		c71.31-8.85,153.15-11.32,245.67-7.29c4.42,0.13,7.55-4.03,6.12-8.2c-32.14-92-45.8-189.72-41.12-293.17
		c2.47-55.69,17.57-148.99,45.28-279.76c49.71-234.61,97.72-449.57,224.2-647.75c3.25-5.07,10.15-6.25,14.83-2.47
		c115.68,92.52,217.56,201.17,305.66,326.22c3.38,4.68,9.24,6.77,14.83,5.07c40.73-12.49,80.03-13.66,121.66-16.79
		c145.09-10.93,284.19-1.69,417.3,27.59c2.6,0.52,5.34-0.39,7.03-2.6c94.21-123.36,186.98-244.63,310.86-339.88
		c5.2-4.03,12.75-2.6,16,2.99c62.72,105.14,110.86,211.97,144.57,320.62c35.78,115.42,71.44,269.74,106.96,462.84
		c26.67,144.83,22.12,297.85-33.31,439.29c-1.43,3.77,1.43,7.68,5.46,7.42c89.66-7.03,176.58-5.2,260.63,5.47
		c5.73,0.78,8.85,7.03,5.99,11.97c-2.47,4.42-6.25,7.03-11.32,7.81c-86.53,13.66-181.39,23.29-284.58,28.89
		c-6.64,0.26-12.75,4.16-15.88,10.02l-28.24,53.22c-1.43,2.73,0.26,6.12,3.38,6.51c85.75,11.84,171.11,32.27,256.08,61.03
		c18.22,6.12,34.48,15.22,48.67,27.2c7.03,5.85,2.99,17.3-6.11,17.57c-39.82,1.56-77.55-1.69-113.21-9.63
		c-84.06-18.61-160.44-32.66-229.27-41.9c-4.42-0.52-8.85,1.04-11.84,4.42c-97.46,111.51-219.52,186.07-365.9,223.68
		c-3.64,0.91-6.25,4.16-6.38,7.81c-2.21,62.85-0.13,116.07,6.25,159.53c68.71,470.65,151.85,1001.68,249.31,1592.95
		c3.77,22.64-0.65,48.28-13.27,76.9c-44.89,102.02-151.59,124.53-251.53,129.99c-21.99,1.17-94.86,1.69-218.34,1.56
		c-400.65-0.65-819.12,0.13-1255.68,2.6c-198.18,1.04-403.9-18.87-592.97-85.75c-331.94-117.37-570.32-422.51-580.73-775.27
		c-7.55-259.07,99.02-518.93,221.21-760.82c95.64-189.33,179.31-474.03,51.92-668.18c-63.76-97.2-103.97-148.47-133.25-242.16
		c-45.41-145.09,28.5-298.89,191.28-307.61c259.33-13.92,349.77,286.79,363.04,492.38c17.44,271.43-70.79,545.86-214.31,773.32
		c-139.23,220.69-270.26,448.14-283.14,713.2c-10.28,212.62,79.11,402.34,249.05,532.85c139.88,107.35,299.93,152.37,475.86,177.49
		c111.77,15.88,230.97,29.67,357.58,41.51c4.81,0.52,7.81-5.21,4.68-8.98c-255.04-301.75-318.28-697.71-177.62-1068.04
		c72.35-190.63,181.26-362.39,304.23-526.21c100.06-133.38,212.49-255.69,337.28-366.94c2.99-2.6,2.47-7.42-1.04-9.37
		c-53.61-30.32-96.94-64.93-130.12-103.58c-5.86-6.9-14.96-10.02-23.94-8.46c-92,17.05-176.32,33.31-252.96,48.93
		c-17.96,3.64-40.08,4.68-66.49,3.12c-13.27-0.78-16.66-18.61-4.68-24.33C1649.43,1590.53,1747.02,1563.6,1850.2,1552.93
		 M2242.6,896.21c-116.54-1.18-212.05,106.82-213.47,241.24c-1.44,134.41,91.85,244.5,208.37,245.65
		c116.54,1.18,212.05-106.82,213.47-241.24C2452.41,1007.46,2359.11,897.37,2242.6,896.21 M2982.09,895.39
		c-114.98,10.44-198.26,128.07-186.08,262.57c12.28,134.59,115.47,235.18,230.42,224.67c114.98-10.44,198.26-128.07,186.07-262.57
		C3200.22,985.46,3097.03,884.88,2982.09,895.39 M2642.91,1582.33l76.77-88.74c5.85-6.77,4.55-17.18-2.73-22.38
		c-53.87-38.65-108.91-44.89-165.13-18.74c-12.62,5.85-19,18.22-18.87,37.08c0.13,8.33,3.77,16.27,10.02,21.73l83.67,72.22
		C2631.46,1587.67,2638.75,1587.15,2642.91,1582.33L2642.91,1582.33z"/><path class="st0" d="M2217.41,1024.41c55.43-3.16,102.93,42.38,106.28,101.45c3.28,59.09-38.88,109.57-94.31,112.66
		c-55.43,3.16-102.93-42.38-106.28-101.45C2119.82,1077.98,2161.98,1027.49,2217.41,1024.41L2217.41,1024.41z"/><path class="st0" d="M2996.8,1035.29c53.26,11.33,86.44,67.28,74.14,124.98c-12.29,57.72-65.38,95.33-118.56,84.01
		c-53.26-11.33-86.44-67.28-74.14-124.97C2890.53,1061.59,2943.62,1023.98,2996.8,1035.29L2996.8,1035.29z"/></g></svg>