<svg version="1.1" id="Layer_1" xmlns="http://www.w3.org/2000/svg" xmlns:xlink="http://www.w3.org/1999/xlink" x="0px" y="0px" viewBox="0 0 100 100" style="enable-background:new 0 0 4000 4000;" xml:space="preserve"><style type="text/css">
	.st0{fill:#020202;}
</style><g transform="translate(1, 4.3713435928105255) scale(0.026164870724179546) translate(-121.08000000000004, -277.9)"><path class="st0" d="M2817.13,286.89c5.04,3.73,9.43,10.09,12.72,18.86c51.98,140.36,111.63,265.15,118.65,414.29
		c0.22,8.55,4.39,16.45,11.19,21.5c199.58,151.11,254.63,437.31,218.88,673.74c-24.34,161.86-123.26,323.93-257.48,414.51
		c-132.03,89.04-328.32,66.01-441.26-44.52c-273.05-266.91-176.99-846.56,151.55-1023.55c30.92-16.67,51.32-28.51,61.19-35.75
		c6.14-4.38,10.09-11.4,10.53-19.08c7.24-126.54,33.55-262.52,78.74-408.15C2786.43,283.82,2804.42,277.9,2817.13,286.89
		L2817.13,286.89z"/><path class="st0" d="M1228.85,301.81c9.21-5.7,21.49-1.1,24.78,9.21c27.2,84.88,42.98,181.37,47.37,289.5
		c1.1,24.34,7.24,51.98,18.64,83.34c3.73,10.53,11.4,19.3,21.49,24.34c282.26,140.36,362.09,405.51,384.9,698.3
		c7.24,94.09-13.82,191.02-63.16,290.37c-91.01,184.01-289.72,259.67-483.59,188.61c-215.81-79.17-269.98-362.09-301.56-555.53
		c-22.37-137.51-10.97-265.15,33.99-383.37c19.74-51.98,70.4-110.32,152.21-174.57c5.92-4.61,9.43-11.62,9.65-19.3
		c3.29-152.87,47.15-293.88,131.15-423.5C1213.72,315.4,1221.61,306.19,1228.85,301.81L1228.85,301.81z"/><path class="st0" d="M350.05,1082.79c11.18-5.48,24.78-0.22,29.17,11.4c4.83,12.06,44.08,123.26,117.55,333.36
		c18.42,52.42,71.28,104.18,121.94,147.38c121.28,103.3,195.19,173.48,221.95,210.76c106.59,149.35,135.54,321.52,87.07,516.71
		c-21.27,85.75-68.21,153.08-140.8,201.99c-160.32,108.34-358.8,37.72-475.04-102.42c-148.92-179.84-190.81-380.07-125.67-600.49
		c12.94-43.64,46.93-109.44,66.45-162.29c3.73-10.53,5.7-21.49,5.7-32.68c0-31.36-3.73-79.17-10.97-143.65
		c-13.82-123.69,8.77-238.4,67.99-344.33C324.83,1101.43,336.45,1089.59,350.05,1082.79L350.05,1082.79z"/><path class="st0" d="M3644.61,1145.29c11.63-2.63,23.03,5.05,25,16.67c13.82,85.31,27.42,158.56,40.79,220.19
		c23.03,106.37,14.7,258.57,10.97,342.57c-0.44,8.11,2.19,16.23,7.46,22.59c125.67,155.72,137.73,391.92,85.75,577.9
		c-36.62,130.49-139.92,255.72-266.25,310.77c-149.36,65.14-295.86,41.45-439.29-71.28c-205.06-161.2-164.27-443.02-14.26-625.71
		c60.09-73.25,128.74-139.05,224.14-214.05c58.12-45.84,111.41-95.62,159.88-149.58c12.72-14.25,23.03-30.48,30.48-47.81
		c33.12-76.98,73.69-199.14,121.72-366.92C3633.65,1151.66,3638.25,1146.61,3644.61,1145.29L3644.61,1145.29z"/><path class="st0" d="M3219.36,3374.42c-120.84,283.58-414.51,391.26-700.71,296.29c-17.98-5.92-98.03-33.55-239.93-82.46
		c-277-95.4-515.17-34.87-769.58,81.8c-196.95,90.36-454.2,48.03-605.97-99.57c-97.38-94.97-151.77-223.26-163.39-385.12
		c-18.2-250.68,91.23-443.89,328.09-579.87c131.15-75.45,210.76-116.46,286.87-207.7c73.69-88.38,105.05-221.95,159.44-300.68
		c96.06-139.7,230.94-215.15,404.86-226.55c11.4-0.66,23.25,0,34.65,1.97c65.14,11.84,123.91,24.13,176.55,37.07
		c278.31,67.99,349.37,329.63,452.01,569.78c26.98,62.72,74.79,116.89,143.65,162.51c117.55,77.86,200.45,133.57,248.7,167.12
		c59.22,41.23,202.43,181.16,233.35,254.85C3247.21,3156.86,3260.81,3276.83,3219.36,3374.42L3219.36,3374.42z"/></g></svg>