<svg xmlns="http://www.w3.org/2000/svg" xmlns:xlink="http://www.w3.org/1999/xlink" viewBox="0 0 100 100" version="1.1"><g transform="translate(1, 3.1798821019382046) scale(0.05405102618294474) translate(-92.898438, -141.046875)"><path style=" stroke:none;fill-rule:nonzero;fill:rgb(0%,0%,0%);fill-opacity:1;" d="M 217 1402 C 233.863281 1399.507813 250.59375 1391.785156 267 1387.140625 C 301 1377.488281 335.53125 1368.808594 370 1360.652344 C 491.488281 1332 615.199219 1312.632813 738 1290.535156 C 781.851563 1282.648438 825.964844 1276.40625 870 1269.574219 C 893 1266 917.679688 1258.496094 941 1258 L 941 1260 C 915 1262.265625 886.875 1276 862 1283.652344 C 816.617188 1297.804688 770.710938 1310.527344 725 1323.574219 C 624.882813 1352.144531 520.863281 1366.382813 419 1386.628906 C 369.652344 1396.4375 319.722656 1405.570313 270 1413.5625 C 255.285156 1416 240.714844 1419.257813 226 1421.714844 C 220.261719 1422.671875 211.277344 1422.59375 206.390625 1426 C 200.808594 1430 198 1441.019531 195.375 1447 L 171.460938 1499 C 143.894531 1559.199219 116.800781 1621.59375 104.539063 1687 C 100.34375 1709.382813 92.898438 1739.445313 103.609375 1761 C 115.511719 1785 144.199219 1783 167 1783 C 222.199219 1783 277.292969 1785.4375 332 1793.128906 C 410.507813 1804.171875 484.539063 1830.03125 562 1845.550781 C 654.410156 1864.066406 749.882813 1872.535156 844 1866.089844 C 883.765625 1863.367188 923 1859.367188 962 1850.5 C 988.507813 1844.46875 1017.757813 1835.140625 1037.960938 1816.074219 C 1058.269531 1797 1065.191406 1770.046875 1067 1743 C 1070.828125 1689.644531 1046.800781 1626 995 1603 C 981.769531 1597 965.613281 1592.773438 951 1594.171875 C 943 1595 928.324219 1601.433594 921 1599.292969 C 913.933594 1597.175781 906.355469 1584.160156 901 1579.039063 C 889 1567.625 873.886719 1558.253906 858 1553.554688 C 835 1546.789063 810.382813 1547.0625 788 1555.53125 C 779.539063 1558.734375 771.585938 1567.28125 763 1569.113281 C 757.265625 1570.335938 748.792969 1566.40625 743 1565.433594 C 731.648438 1563.53125 719.492188 1563.300781 708 1564.089844 C 672.890625 1566.492188 644.429688 1583.820313 616 1603 C 621.992188 1590.398438 633.84375 1579.25 644 1570 C 671.429688 1544.75 704 1526.796875 740 1517.265625 C 816 1497.101563 899.667969 1506.117188 971 1539.703125 C 1008.234375 1557.230469 1043.359375 1582 1067.277344 1616 C 1089.621094 1647.769531 1103.679688 1685.726563 1101.960938 1725 C 1101.328125 1739.417969 1098 1753.398438 1093.507813 1767 C 1092.445313 1770.164063 1086.882813 1779.472656 1088.300781 1782.398438 C 1090.199219 1786.304688 1108 1784 1112 1784 L 1187 1784 C 1178.703125 1755.195313 1168.257813 1732.042969 1172.289063 1701 C 1186.832031 1589.042969 1314.308594 1526.414063 1416 1522 C 1469 1519.636719 1520.390625 1527.640625 1565 1558.585938 C 1579.761719 1568.828125 1599.332031 1585.210938 1605 1603 C 1580.835938 1594.757813 1562.910156 1576.140625 1537 1570.425781 C 1523 1567.351563 1508.257813 1565.8125 1494 1567.171875 C 1485.691406 1568 1475 1572.238281 1467 1571.269531 C 1460.175781 1570.457031 1452.816406 1563.082031 1446 1560.695313 C 1428.46875 1554.558594 1408.40625 1555.378906 1391 1561.632813 C 1374.964844 1567.394531 1361.472656 1577.148438 1350.289063 1590 C 1345.554688 1595.441406 1339.617188 1609.160156 1332.90625 1611.761719 C 1327 1614.046875 1312.648438 1607.101563 1306 1606.285156 C 1290.539063 1604.386719 1273.480469 1608.179688 1260 1616 C 1201.433594 1649.28125 1184 1750.464844 1225.519531 1803 C 1243.1875 1825.425781 1274.457031 1835.144531 1301 1842.117188 C 1420.464844 1873.488281 1550.835938 1866.316406 1671 1843.738281 C 1703.351563 1837.660156 1745.3125 1827.785156 1768.5625 1802.828125 C 1782.441406 1788 1786 1767.621094 1786 1748 C 1786 1714.4375 1778.75 1681.691406 1762.691406 1652 C 1738 1606.597656 1699.453125 1572.589844 1650 1557.191406 C 1605.792969 1543.425781 1550.460938 1544.382813 1518.265625 1505 C 1509.367188 1494.117188 1519.675781 1483.40625 1525.925781 1474 C 1537.34375 1456.816406 1549 1440 1559.421875 1422 C 1562.191406 1417.167969 1570.179688 1407.789063 1569.746094 1402.105469 C 1569.40625 1397.628906 1561.347656 1395.621094 1558 1394.140625 C 1545.8125 1388.75 1533.375 1384 1521 1379 C 1488 1366 1454.542969 1354.773438 1421 1343.484375 C 1400.667969 1336.640625 1377.390625 1326.132813 1356 1324 L 1356 1323 C 1372.796875 1323.722656 1389.480469 1329.011719 1406 1332 C 1447 1339.132813 1487.574219 1346.71875 1528 1357 C 1542.40625 1360.492188 1556.71875 1364.355469 1571 1368.425781 C 1575.265625 1369.644531 1583.207031 1373.804688 1587.429688 1371 C 1590.335938 1369.019531 1591.167969 1364.011719 1592.554688 1361 C 1594 1357.699219 1598.449219 1352.082031 1597.265625 1348.273438 C 1596 1344.601563 1589 1343.511719 1586 1342.503906 C 1573.851563 1338.613281 1561.386719 1335.351563 1549 1332.332031 C 1502.222656 1321 1455.476563 1309.347656 1409 1296.71875 C 1386.828125 1290.691406 1362 1280.003906 1339 1279 L 1339 1277 C 1366.378906 1277.003906 1393.792969 1282.21875 1421 1284.828125 C 1468.460938 1289.382813 1516 1295 1563 1303.804688 C 1575 1306.066406 1587 1308.191406 1599 1311 C 1603.179688 1311.824219 1610.8125 1314.316406 1614.773438 1312 C 1619.230469 1309.324219 1619.914063 1300.570313 1621 1296 C 1622 1292.78125 1624.726563 1287.65625 1623.882813 1284.316406 C 1622.996094 1280.8125 1615.761719 1281.175781 1613 1281 C 1601.335938 1279.445313 1589.636719 1278.027344 1578 1276.425781 C 1529.589844 1269.757813 1478.585938 1270.359375 1431 1259 L 1431 1258 C 1485.425781 1258 1538.777344 1255.671875 1593 1262.71875 C 1601.316406 1263.800781 1609.6875 1264.320313 1618 1265.425781 C 1620.945313 1265.816406 1625.675781 1267 1628.273438 1265 C 1630.628906 1263.140625 1630.949219 1258.679688 1631.710938 1256 C 1632.339844 1253.773438 1633.800781 1250.660156 1633 1248.316406 C 1631.90625 1244.355469 1621.28125 1246.007813 1618 1245.574219 C 1602.308594 1243.515625 1584.828125 1244 1569 1244 L 1361 1244 L 1361 1243 C 1431 1234.105469 1498.925781 1217 1570 1217 L 1623 1217 C 1627 1217 1638 1219 1640.4375 1214.683594 C 1642 1211.6875 1641.851563 1207.308594 1642.28125 1204 C 1642.71875 1200.621094 1645.195313 1189.707031 1642.882813 1187.027344 C 1640.804688 1184.617188 1632.886719 1186 1630 1186 C 1616.5625 1186 1603.378906 1187.152344 1590 1188.089844 C 1526 1192.570313 1461.585938 1199 1398 1207 L 1398 1206 C 1453.992188 1187.09375 1515.953125 1176.285156 1575 1176 C 1591.949219 1176 1609 1174.007813 1626 1174 C 1630 1174 1641 1176 1643.972656 1172.398438 C 1647.796875 1167.570313 1646 1153 1646 1147 C 1646 1124 1645.351563 1101 1643.171875 1078 C 1637.90625 1022.714844 1626.214844 969 1600.640625 919 C 1578 875.148438 1543.441406 835 1532.425781 786 C 1518.78125 725.441406 1534.273438 662.777344 1545.460938 603 C 1548.890625 584.660156 1552.371094 566.359375 1555.613281 548 C 1556.484375 543.085938 1560.488281 531.15625 1558.308594 526.605469 C 1556.460938 522.75 1542 528.226563 1539 529.191406 C 1518.652344 535.453125 1498.410156 542.378906 1479 551.230469 C 1394.246094 590 1329.257813 648.742188 1264 714 C 1271.421875 692.273438 1286.605469 672 1300.574219 654 C 1339.800781 603.753906 1394.886719 565.367188 1453 540 C 1478.804688 528.535156 1505.722656 520.691406 1533 514 C 1538.867188 512.40625 1558.527344 511.1875 1561.398438 505.566406 C 1565.65625 497.230469 1563 482.117188 1563 473 C 1563 470.507813 1564 464.152344 1560.683594 463.492188 C 1553.878906 462.191406 1542.316406 468.589844 1536 471 C 1513.355469 479.414063 1491.292969 489.640625 1470 501.085938 C 1423.46875 526.09375 1378.226563 557.488281 1340 594.039063 C 1312 620.734375 1289 651.78125 1262 679 C 1266.300781 654.035156 1285.5625 628.421875 1300.789063 609 C 1341.214844 557.441406 1394.199219 515.054688 1453 486.003906 C 1479 473.085938 1506.214844 461.699219 1534 452.804688 C 1539.785156 451 1560 447.324219 1561.644531 441 C 1563.5625 432.628906 1559.992188 421.347656 1559.171875 413 C 1556.730469 388.207031 1552.996094 363.332031 1547.5 339 C 1539.769531 304.796875 1531.664063 252.429688 1500.984375 230.570313 C 1470.4375 208.800781 1428.796875 229.246094 1401 245.800781 C 1328 289.179688 1264.253906 352.511719 1214.746094 421 C 1197.296875 445.140625 1180.871094 469.449219 1165.550781 495 C 1162 501 1155.179688 520.199219 1148.867188 522.507813 C 1143.464844 524.484375 1134 518.109375 1129 516.34375 C 1112.277344 510.535156 1095.234375 505 1078 501 C 1019.878906 487.085938 962.589844 482 903 482 C 885 482 867.742188 483.097656 850 484 C 846.511719 484.132813 833.246094 484.050781 831.175781 487.027344 C 829.382813 489.601563 836.285156 497 837.71875 499 C 845.570313 510.210938 853.40625 521.402344 860.679688 533 C 889.929688 579.644531 905.816406 631.726563 918 685 C 907.503906 673.375 900.882813 652.15625 893.753906 638 C 876.578125 604 859.644531 569.480469 841.273438 536 C 835.582031 525.628906 829.683594 515.371094 824 505 C 821.363281 500.191406 818.265625 493 813.675781 489.644531 C 810 487.152344 803.929688 489.320313 800 490 C 787.585938 491.605469 775.179688 494.171875 763 497.128906 C 760.21875 497.804688 747.558594 499.039063 749.171875 503.148438 C 752 510.617188 760.707031 518 765.867188 524 C 776.207031 536.121094 786.191406 548.601563 796.195313 561 C 828.207031 600.660156 858.316406 641.554688 885 685 C 872.457031 676.164063 862 662.347656 851.828125 651 C 831.554688 628.550781 811.402344 606 791.730469 583 C 758.945313 544.699219 727.546875 505.476563 697.476563 465 C 642 390.375 589.386719 312.609375 520 249.828125 C 490.332031 223 460 197.683594 426 176.574219 C 403.71875 162.777344 379.378906 149.714844 353 146.289063 C 312.621094 141.046875 288.914063 175 271 206 C 231.734375 275 205 353.613281 192.867188 432 C 179.757813 516.199219 180.574219 599.386719 189.167969 684 C 194 732.570313 211.183594 782.074219 209.984375 831 C 209.234375 861.667969 191.539063 893.527344 183.734375 923 C 171.542969 969.03125 166.652344 1018.523438 171.171875 1066 C 176.644531 1123.523438 189.199219 1178.664063 209 1233 C 215.875 1251.664063 224 1270 232 1288 C 236.617188 1298.144531 242.832031 1309.679688 243.386719 1321 C 243.835938 1330.09375 238.785156 1339.726563 235.613281 1348 C 229 1365.027344 219.671875 1384 217 1402 M 855 692 C 842.199219 683.53125 831.707031 671.433594 819.960938 661.601563 C 793.6875 639.609375 767.242188 618.03125 740 597.234375 C 659.167969 535.535156 571.742188 480.378906 479 438.457031 C 454.941406 427.582031 430.578125 417.625 406 408 C 390.425781 402 373.632813 394.445313 357 392 C 364.625 386.796875 383 393 392 394 C 427.605469 398 463.382813 406.007813 497 418.574219 C 573.335938 447.117188 643.972656 487.742188 708 538.210938 C 729 555 748 573.804688 768 591.828125 C 791 612.652344 813.371094 635.75 832.800781 660 C 840.546875 669.667969 850.699219 680.257813 855 692 M 1374 446 C 1368.351563 460.582031 1352.839844 473.097656 1343.898438 486 C 1323 516.09375 1304.355469 547.65625 1285.449219 579 C 1278 591.148438 1271.183594 603.558594 1264.371094 616 C 1261.640625 621 1258.761719 629 1254 632 C 1254 576.605469 1299.804688 523.722656 1334.925781 485 C 1346.84375 472 1358.835938 455.484375 1374 446 M 845 699 C 819 685.355469 795.792969 665.746094 771 650.054688 C 730.632813 624.5 688 601.792969 645 581.300781 C 578 549.476563 508.421875 524 438 501 C 414 493.042969 388.589844 488.664063 365 480 C 372.914063 476.773438 385.601563 481.296875 394 482 C 424.605469 484.15625 455.230469 490.222656 485 497.628906 C 584.460938 522.367188 679.882813 566.59375 763 626.574219 C 785 642.527344 805.703125 659.703125 825 679 C 831 685.113281 841 691.273438 845 699 M 1031 543 C 1028.871094 538.230469 1024.714844 535 1023 530 C 1037 531.777344 1050.320313 534.074219 1063 541 C 1068.8125 544.011719 1073.332031 549 1079 552 C 1077 546 1072.523438 541.664063 1070 536 C 1076.703125 538.429688 1099.339844 552.214844 1094 539 C 1102 542.117188 1109.996094 544.597656 1117 550 C 1140.386719 567.605469 1147 597.191406 1147 625 L 1146 625 C 1141 614 1137.746094 597.730469 1129 589 C 1129.875 600.085938 1132.992188 611 1133 622 C 1129.355469 619.320313 1128.210938 614 1126.242188 610 C 1121.496094 600.34375 1116.761719 587.550781 1109 580 C 1111.488281 592.082031 1115 603.503906 1115 616 L 1114 616 C 1107.21875 601.671875 1098.820313 582.710938 1084 575 C 1087.722656 586.09375 1092 596.128906 1093 608 C 1087.804688 603.328125 1085.335938 595.773438 1081.40625 590 C 1074.941406 580.503906 1066.933594 571.289063 1059 563 C 1061.671875 574.679688 1065.675781 586.015625 1068 598 C 1063.898438 594.476563 1062.597656 589.382813 1059.558594 585 C 1053.664063 576.503906 1046.222656 568.265625 1038 562 C 1042.441406 571.515625 1046.78125 580 1050 590 C 1043.40625 585.144531 1039 577.542969 1033.253906 571.746094 C 1024.550781 563.039063 1014.816406 555.398438 1005 548 C 1010.566406 558.695313 1021.234375 566.226563 1027 577 L 1026 578 C 1007.761719 566 987.554688 555.109375 967 547.53125 C 954.65625 543 940.992188 541.160156 929 536 C 940 531.351563 954.21875 538.679688 965.796875 537.273438 C 968.65625 537 967.203125 534.285156 968.726563 532.613281 C 970.585938 530.570313 974.394531 529.761719 977 529.324219 C 997.554688 526 1012.789063 536.148438 1031 543 M 1229 708 L 1228 708 C 1221.285156 679.800781 1219.984375 651.585938 1209.386719 624 C 1203 607.710938 1195.679688 592.214844 1187 577 C 1183 569.714844 1176.625 563 1174 555 C 1230 578.242188 1241.902344 655.632813 1229 708 M 1108 579 L 1109 580 L 1108 579 M 1473 639 L 1473 640 C 1425.785156 649.722656 1380 667.753906 1337 689.269531 C 1320.523438 697.507813 1305.25 710.722656 1288 717 C 1294.46875 703 1310.878906 691.628906 1323 682.628906 C 1365.671875 651 1420.683594 639 1473 639 M 878 783 C 862 779.550781 847.449219 769.34375 831 765.664063 C 783.398438 755.019531 728.664063 761.023438 686 785.425781 C 625.515625 820.023438 589.84375 902 512 902 C 518.703125 897 528.476563 895.121094 536 891.214844 C 549.195313 884.363281 561.273438 875.21875 572 865 C 603.660156 834.6875 621.867188 793.550781 656 765.464844 C 705 725.074219 775.917969 719.710938 832 747.753906 C 848.355469 756 868 767.109375 878 783 M 1542 917 C 1528.382813 915.773438 1513.304688 904 1504.730469 894 C 1485.273438 871.347656 1474.4375 842.4375 1452 822.171875 C 1422.984375 796 1378.785156 783.394531 1340 789.4375 C 1322.476563 792.167969 1307.6875 801.183594 1291 805 C 1298.222656 791.074219 1313.660156 778.820313 1327 771.011719 C 1337.851563 764.65625 1349.554688 760.722656 1362 759 C 1372.398438 757.558594 1382.613281 757.8125 1393 759.285156 C 1464 769.363281 1487.527344 839.441406 1521 892 C 1527 901.355469 1535.386719 908.351563 1542 917 M 743 812 C 738.171875 821.058594 728.707031 828.429688 722.722656 837 C 711.324219 853.320313 704.222656 876 705 896 C 708.339844 969.535156 785.4375 1022.617188 853 988.242188 C 863.636719 982.832031 873.167969 974.417969 880.484375 965 C 896.492188 944.40625 902 917.527344 897.535156 892 C 895.601563 881.074219 889 870.78125 888 860 C 903 869.007813 911.320313 893 915.859375 909 C 935 976.601563 890.1875 1043 819 1046 C 755.46875 1048.742188 682.277344 1017.25 654.554688 957 C 633.453125 911.144531 656.351563 864.007813 693 834.808594 C 706.75 824 724.933594 812.824219 743 812 M 840 834.324219 C 881.828125 827.476563 903.40625 894 857 901.675781 C 815.285156 908.625 794.5625 841.765625 840 834.324219 M 1306 841 C 1302.941406 850.066406 1294.621094 857.238281 1290.359375 866 C 1281 885.140625 1278.816406 908.28125 1283.5 929 C 1297 989.1875 1373.238281 1034.5 1426 989.269531 C 1433.210938 983.089844 1439.539063 975.378906 1444 967 C 1461 935.808594 1448.441406 908 1440 877 C 1452.449219 886.191406 1460.699219 906.675781 1465.492188 921 C 1471.59375 939.230469 1475.941406 960.726563 1472.535156 980 C 1464.972656 1022.816406 1425.625 1050.800781 1384 1054.828125 C 1336.992188 1059.378906 1287.539063 1040 1263 998 C 1239.691406 957.707031 1245.765625 900.164063 1275.871094 865 C 1284 855.441406 1293.988281 845.546875 1306 841 M 1396 851.289063 C 1413.59375 849 1431.535156 862.089844 1436.214844 879 C 1440.929688 896.035156 1428.261719 913.742188 1411 915.816406 C 1372.828125 920.398438 1354.4375 856.753906 1396 851.289063 M 862 912.433594 C 874.214844 909.15625 877.972656 927.617188 866 930.382813 C 855 933 850.855469 915.425781 862 912.433594 M 627.484375 914.445313 C 629.886719 915.523438 629 922 629.4375 924 C 630.816406 933 633 941.636719 636.191406 950 C 645.746094 975.140625 662.59375 995.476563 683 1012.726563 C 724.820313 1048.074219 784.664063 1059.296875 838 1057 C 857.277344 1056.117188 875.753906 1056.660156 895 1058 C 898.566406 1058.21875 911.867188 1057.546875 913.863281 1060.652344 C 916.902344 1065.382813 906 1073.644531 903 1076 C 889.253906 1086 870 1092.582031 853 1094 C 790.523438 1098.792969 726.714844 1087.304688 672 1055.140625 C 636.277344 1034.136719 608 1002 595.886719 962 C 594 956.019531 587.503906 941.222656 591 935.390625 C 594.476563 929.726563 607.296875 926.007813 613 922.714844 C 615.625 921.203125 624.566406 913.136719 627.484375 914.445313 M 1417 927.449219 C 1427.640625 924.792969 1430 941.355469 1419.996094 943.523438 C 1410.238281 945.621094 1407.800781 929.753906 1417 927.449219 M 962 930 C 974.191406 951.421875 982.222656 978.394531 983.910156 1003 C 985.222656 1022.164063 982 1041 982 1060 L 981 1060 C 976.679688 1050 974.476563 1040.09375 967.839844 1031 C 964 1025.738281 954.871094 1020.613281 952.613281 1014.789063 C 950.285156 1008.78125 955.460938 998.074219 956.714844 992 C 959.203125 980 961 967.316406 961 955 C 961 947.519531 959 937 962 930 M 1332 1063 C 1384.898438 1064.09375 1451 1075.144531 1481.878906 1018 C 1486.753906 1009 1489.855469 999.097656 1491.738281 989 C 1494.425781 974.601563 1494 960.492188 1493 946 C 1499.632813 948.113281 1513.8125 954.589844 1518 960.222656 C 1523 967 1524.488281 979 1525.914063 987 C 1530.792969 1014.78125 1527.757813 1044 1510.25 1067 C 1481.828125 1104.398438 1422.929688 1109.800781 1381 1096 C 1364.648438 1090.617188 1338.371094 1080.699219 1332 1063 M 1157 1025 C 1193.191406 1020.324219 1233.921875 1017.28125 1255.679688 1052 C 1260.230469 1059.261719 1263.976563 1067.15625 1267.421875 1075 C 1268.378906 1077.1875 1270.863281 1082 1268.933594 1084.222656 C 1267.222656 1086.210938 1262 1084.316406 1260 1084 C 1251.675781 1082.78125 1243.394531 1081 1235 1080.171875 C 1221.328125 1078.824219 1207.691406 1078 1194 1077.023438 C 1189.765625 1076.734375 1179.953125 1077.539063 1176.589844 1075 C 1173 1072.316406 1173.816406 1064 1172.703125 1060 C 1169 1047.371094 1161.421875 1037.074219 1157 1025 M 1201 1257 L 1201 1207 C 1193.570313 1214 1193 1232.308594 1190.289063 1242 C 1189.734375 1244 1188.648438 1252.792969 1185.976563 1252.792969 C 1180.347656 1252.792969 1174.53125 1237.273438 1172.820313 1233 C 1168 1221 1166.792969 1208 1168.175781 1195 C 1169.585938 1181.8125 1174.933594 1170.769531 1167.785156 1158.039063 C 1163.417969 1150.261719 1152.984375 1144 1144 1146.804688 C 1127 1152.082031 1146.835938 1168.054688 1132 1173.078125 C 1106.808594 1181.613281 1072.476563 1149 1092.332031 1125.519531 C 1121.300781 1091.34375 1162.460938 1100.160156 1201 1103.828125 C 1214.445313 1105.109375 1228.492188 1104 1242 1104 C 1263.914063 1104 1292.785156 1112.761719 1294.90625 1139 C 1296.191406 1155 1288.90625 1168.253906 1274 1174.660156 C 1269.707031 1176.507813 1262.628906 1179 1258.1875 1176.527344 C 1249.261719 1171.59375 1260.628906 1163.480469 1258.328125 1157.015625 C 1253.175781 1142.515625 1234.269531 1155.828125 1230.558594 1164 C 1225.707031 1174.675781 1230.480469 1187 1230.960938 1198 C 1231.851563 1218.511719 1221.25 1248.246094 1201 1257 M 924 1198 L 924 1199 C 893.566406 1199 862.417969 1193.171875 832 1191.089844 C 782.238281 1187.683594 730.910156 1188 681 1189.015625 C 594 1191.007813 506.964844 1189 420 1189 C 387.625 1189 355.320313 1188 323 1188 C 300.898438 1188 277.921875 1189.769531 256 1187 C 261 1184.308594 267.425781 1184.582031 273 1183.539063 C 285.570313 1181.191406 298.28125 1179.121094 311 1177.832031 C 348.695313 1174 386.292969 1169.421875 424 1165.828125 C 565.652344 1152.339844 711.773438 1155.179688 852 1180.464844 C 876.339844 1185 899.941406 1192.484375 924 1198 M 855 1216 L 855 1217 C 819.242188 1219.820313 783.839844 1223.390625 748 1225 C 693.472656 1227.347656 638.46875 1224.035156 584 1224 C 589.84375 1221 597.539063 1221.488281 604 1220.714844 C 619.308594 1219 634.683594 1217.679688 650 1216 C 695.515625 1210.398438 741.265625 1210 787 1211 C 808.285156 1211.507813 834.554688 1210 855 1216 M 1906 1271 C 1895.265625 1260.585938 1872 1257.382813 1858 1253 C 1811.476563 1238.371094 1763.355469 1229.144531 1715 1223.285156 C 1699.574219 1221.414063 1683.523438 1219.507813 1668 1219.042969 C 1662.21875 1219 1655.398438 1221.46875 1654.453125 1228.003906 C 1653.53125 1234.367188 1660.90625 1237.570313 1666 1238.53125 C 1681 1241.375 1696.839844 1241.046875 1712 1243.410156 C 1748.546875 1249.105469 1785.433594 1252.652344 1822 1258.296875 C 1849.382813 1262.523438 1878.238281 1271 1906 1271 M 890 1233 L 890 1234 C 870.527344 1240.183594 849 1242.4375 829 1246.449219 C 776.785156 1257 724.644531 1266.261719 672 1274.425781 C 605.4375 1284.746094 538.945313 1292.792969 472 1299.171875 C 444.296875 1301.808594 415.820313 1307 388 1307 C 397.648438 1300.125 415.503906 1299.472656 427 1296.765625 C 458.195313 1289.417969 489.5625 1283.050781 521 1276.800781 C 642 1252.726563 766.410156 1233 890 1233 M 1307 1479 C 1298.941406 1477.15625 1291.214844 1471.6875 1284 1467.726563 C 1258.382813 1453.664063 1236.558594 1433.007813 1216.675781 1411.824219 C 1208.621094 1403.25 1200.503906 1394.824219 1192.714844 1386 C 1190.179688 1383.125 1186.199219 1377.566406 1182 1377.304688 C 1177 1377 1169.921875 1384.054688 1166 1386.667969 C 1153.605469 1395 1141.1875 1402.578125 1128 1409.515625 C 1097.519531 1425.546875 1063.539063 1438 1030 1445.652344 C 1017.207031 1448.601563 1004.199219 1453 991 1453 C 1003 1440.703125 1023.644531 1433.519531 1038 1423.566406 C 1073.390625 1399.027344 1107.421875 1373.476563 1140 1345.289063 L 1173 1316.71875 C 1176.199219 1314 1181.96875 1306.804688 1186.828125 1307.832031 C 1190.914063 1308.695313 1194.867188 1315.019531 1197.421875 1318 C 1205.234375 1327.125 1212.828125 1336.445313 1220 1346 C 1243.300781 1376.398438 1259.816406 1409.453125 1279.449219 1442 C 1287 1454.753906 1300.851563 1466.007813 1307 1479 M 831 1311 L 831 1312 C 796.773438 1334.574219 755.21875 1350.21875 718 1367.308594 C 630.851563 1407.324219 541.9375 1438 449 1461.476563 C 423.566406 1468 397.851563 1476.621094 372 1481 C 376.710938 1474 392.316406 1471 400 1467.21875 C 426.898438 1454.519531 454.796875 1444 482 1432 C 593.480469 1382.570313 711.976563 1338.285156 831 1311 M 1871 1428 C 1861.53125 1414.59375 1843.492188 1405.617188 1830 1396.667969 C 1785 1366.828125 1731.582031 1348.773438 1680 1334.269531 C 1663 1329.523438 1645.9375 1326 1629 1321.488281 C 1623.449219 1320.027344 1615.214844 1320.429688 1613 1327.042969 C 1610.925781 1334 1616.300781 1339.21875 1622 1342 C 1635.949219 1348.375 1653.171875 1351.34375 1668 1355.578125 C 1713.625 1368.617188 1758.914063 1383.421875 1803 1401 C 1818.46875 1407.167969 1833.558594 1414.199219 1849 1420.398438 C 1856.171875 1423.28125 1863 1427.597656 1871 1428 M 886 1332 C 878.355469 1344.011719 855 1352.695313 843 1360.0625 C 803.332031 1384.214844 761.816406 1405.230469 721 1427.308594 C 610.921875 1487 500.675781 1545.761719 393 1609.601563 C 356.386719 1631.3125 319.5 1652.5625 283 1674.449219 C 268 1683.347656 249.84375 1699.136719 233 1703 C 240.964844 1688.085938 263.707031 1674.355469 277 1664.117188 C 310.808594 1638.082031 344.46875 1612.019531 380 1588.332031 C 487.605469 1516.597656 603.242188 1458.371094 720 1403.21875 C 756.949219 1385.765625 794.421875 1369.605469 832 1353.574219 C 848.777344 1346.414063 868 1335.09375 886 1332 M 1873 1560 C 1863.582031 1541.097656 1841.242188 1525.339844 1825.714844 1511.488281 C 1777.828125 1468.777344 1720.847656 1435.085938 1663 1407.78125 C 1644.179688 1399 1624.273438 1392.386719 1605 1384.605469 C 1599.214844 1382.265625 1588.324219 1379 1584.183594 1386.148438 C 1580 1393.308594 1587.332031 1400.335938 1593 1403.242188 C 1610.421875 1412.183594 1628.472656 1420 1646 1428.753906 C 1700.828125 1456.167969 1754.792969 1484.226563 1807 1516.460938 C 1822 1525.722656 1836.484375 1536.019531 1851 1546.023438 C 1857.820313 1550.726563 1864.894531 1558 1873 1560 M 945 1810 C 945.351563 1793 948 1776.195313 946.910156 1759 C 944.195313 1719.382813 930.609375 1678.402344 904.570313 1648 C 895.597656 1637.519531 884.734375 1627.398438 873 1620.066406 C 866.503906 1616.003906 855.203125 1612.417969 851 1606 C 923.535156 1606 969 1669.371094 969 1738 C 969 1756.480469 964.398438 1774.140625 956.996094 1791 C 954.320313 1797.09375 950.679688 1806.292969 945 1810 M 836 1844 C 840.785156 1827.378906 847.769531 1812.378906 850.5625 1795 C 859.292969 1740.65625 844 1671.148438 798 1636.761719 C 783.554688 1626 768.765625 1621.304688 752 1616 C 757.832031 1611.558594 767.996094 1613 775 1613 C 799.683594 1613 821.351563 1621.554688 839.996094 1637.730469 C 883.425781 1675.402344 892.804688 1745.492188 872.199219 1797 C 865.792969 1813.015625 852.953125 1837.433594 836 1844 M 1407 1616 C 1401.769531 1622.148438 1393.34375 1626 1387 1631.003906 C 1376.589844 1639.304688 1367.40625 1649.320313 1359.476563 1660 C 1326 1705.050781 1325 1766.296875 1334 1819 C 1319.261719 1807.695313 1310.867188 1784.449219 1306.527344 1767 C 1289.398438 1698.171875 1329.761719 1616.640625 1407 1616 M 1505 1618 L 1505 1619 C 1438.835938 1641.53125 1419.273438 1723.050781 1425.171875 1785 C 1426.925781 1803.460938 1434.3125 1820.066406 1437 1838 C 1385.347656 1801.617188 1380.550781 1716.519531 1410.605469 1666 C 1429.492188 1634.253906 1466.304688 1608.785156 1505 1618 M 1593 1622 L 1593 1623 C 1573.40625 1626 1557.296875 1646 1549.542969 1663 C 1531.621094 1702.335938 1535.617188 1753 1544.792969 1794 C 1547.753906 1807.28125 1555.351563 1820.773438 1557 1834 C 1544 1828 1533 1812 1525.8125 1800 C 1502.308594 1761.636719 1497.691406 1712.085938 1513.574219 1670 C 1526.4375 1636 1554.53125 1609 1593 1622 M 715 1840 C 720.484375 1828.25 726.75 1817.507813 730.652344 1805 C 745.613281 1757.0625 746.1875 1685.304688 708.910156 1647.039063 C 699.636719 1637.519531 688.519531 1632.8125 677 1627 C 681.5625 1624 688.566406 1623.496094 694 1623 C 720.652344 1619.644531 742 1634.503906 755.546875 1657 C 781.828125 1701.175781 780 1761 753 1804 C 745.210938 1816.515625 730.441406 1837 715 1840 M 1716 1659 C 1694 1656.234375 1681.546875 1671.359375 1677.925781 1692 C 1672.589844 1722.382813 1676.230469 1758.339844 1687.601563 1787 C 1691.988281 1798.0625 1700.460938 1808 1704 1819 C 1655 1805.617188 1630.28125 1742.503906 1635.84375 1696 C 1637.457031 1682.539063 1639.703125 1668.515625 1647.46875 1657 C 1660.175781 1638.15625 1681 1638 1700 1647.015625 C 1705.828125 1649.820313 1712.964844 1653.0625 1716 1659 M 569 1825 C 572.71875 1813.332031 580.578125 1802.828125 584.65625 1791 C 598.828125 1750 603.761719 1662 541 1662 C 544.167969 1656.414063 552.335938 1653.4375 558 1650.78125 C 579.59375 1640.65625 605.410156 1641.546875 621.382813 1661 C 654.246094 1701.023438 640.230469 1767.074219 606 1801 C 595.914063 1811 583 1821.644531 569 1825 "/></g></svg>