<?xml version="1.0" encoding="utf-8"?>
<!-- Generator: Adobe Illustrator 25.0.0, SVG Export Plug-In . SVG Version: 6.00 Build 0)  -->
<svg version="1.1" id="Capa_1" xmlns="http://www.w3.org/2000/svg" xmlns:xlink="http://www.w3.org/1999/xlink" x="0px" y="0px"
	 viewBox="200 100 400 250" style="enable-background:new 0 0 841.8898315 1190.5511475;" xml:space="preserve">
<style type="text/css">
	.st0{fill:#FFFFFF;}
</style>
<path d="M566.5882568,228.6643066c-9.2563477-2.1726074-21.7133789-3.9624023-37.4501953-3.8483887
	c-1.8574219-1.4394531-3.1352539-2.6733398-3.1816406-4.1679688c4.2456055,1.9970703,8.3012695,1.0058594,14.9003906,1.9970703
	c-2.6313477-1.7299805-7.8491211-2.6455078-8.9750977-3.5683594c4.5107422,0.5307617,8.1425781-1.338623,9.421875-2.529541
	c-5.9106445,0.6193848-10.4941406-0.6025391-14.293457-2.7773438c13.1699219-0.4494629,26.2441406,1.5629883,33.6899414,4.2243652
	c-8.065918-4.6306152-21.9882812-6.5913086-36.0966797-5.7966309c-1.1801758-0.8669434-2.2880859-1.8166504-3.3349609-2.8254395
	c6.4838867,0,10.0107422-1.2038574,11.3481445-2.5649414c-2.5649414-0.036377-4.7133789-0.2963867-6.519043-0.6872559
	c7.4794922-2.1223145,14.3242188-3.3518066,20.9375-3.9787598c7.0625-0.6696777,13.8623047-0.6501465,20.8881836-0.2990723
	c-2.9897461-1.2453613-13.1674805-2.0080566-20.9467773-1.3823242c-7.4863281,0.6022949-15.2451172,2.1665039-23.8706055,4.7958984
	c-3.612793-1.3476562-5.1806641-3.2060547-5.815918-4.0280762c7.1142578-2.6635742,10.0566406-6.3708496,10.5-8.5053711
	c-0.6806641,0.5493164-5.9584961,4.5205078-10.6728516,5.2641602c11.8945312-21.2543945,11.5981445-67.5949707,4.668457-74.5419922
	c-5.6010742-5.6147461-41.5629578,21.2675781-59.5146179,36.9443359
	c-7.4975586-3.9194336-17.8432617-6.7631836-29.6499023-7.9394531c2.875-4.3603516,8.5947266-5.6955566,11.940918-6.5114746
	c-6.7207031-1.7751465-15.4082031,1.8408203-19.1855469,4.217041c7.815918-9.1230469,9.0307617-15.5649414,7.5546875-21.8674316
	c-1.2006836,17.7446289-16.4868164,14.6130371-20.2988281,25.0249023c-4.7099609-4.9355469-8.543457-6.0378418-12.2163086-6.4858398
	c1.8041992,1.2880859,3.746582,3.2470703,5.1416016,5.9248047c-10.6787109,1.3205566-20.0234375,4.020752-26.9414062,7.6374512
	c-17.9516602-15.6767578-53.9140625-42.559082-59.5146484-36.9443359
	c-6.9296875,6.9470215-7.2260742,53.2875977,4.6679688,74.5419922c-4.7143555-0.7436523-9.9916992-4.7148438-10.6728516-5.2641602
	c0.4438477,2.1345215,3.3862305,5.8417969,10.5004883,8.5053711c-0.6352539,0.8220215-2.203125,2.6804199-5.8164062,4.0280762
	c-8.8647461-2.7023926-16.8242188-4.171875-24.4931641-4.8510742c-6.7988281-0.6020508-16.3613281-0.0803223-20.3330078,1.4377441
	c6.7568359-0.3378906,13.3037109-0.3679199,20.0766602,0.2248535c6.8681641,0.6010742,13.9692383,1.8425293,21.7583008,4.0527344
	c-1.8056641,0.3908691-3.9541016,0.6508789-6.519043,0.6872559c1.3374023,1.361084,4.8637695,2.5649414,11.3476562,2.5649414
	c-1.046875,1.0087891-2.1542969,1.9584961-3.3344727,2.8254395c-14.1079102-0.9030762-30.2216797,1.7297363-35.3798828,5.5522461
	c7.5483398-2.5380859,20.2114258-4.4157715,32.9726562-3.9799805c-3.7993164,2.1748047-8.3823242,3.3967285-14.293457,2.7773438
	c1.2797852,1.190918,4.9116211,3.0603027,9.4223633,2.529541c-1.1259766,0.9228516-6.34375,1.8383789-8.9750977,3.5683594
	c6.5991211-0.9912109,10.6547852,0,14.8999023-1.9970703c-0.0458984,1.4946289-1.3237305,2.7285156-3.1816406,4.1679688
	c-13.9199219-0.1008301-25.2768555,1.2888184-34.1220703,3.1157227c-11.3725586,2.3491211-17.0932617,5.4050293-20.8735352,8.40625
	c3.222168-1.5617676,10.3588867-4.5551758,21.5395508-6.8339844c8.2124023-1.6740723,18.6069336-2.9624023,31.234375-3.0151367
	c-3.1342773,2.3571777-6.9765625,5.4797363-9.6499023,10.7336426h111.7758789
	c2.628418,1.1047363,4.0092773,3.0539551,4.7602539,3.8635254c1.168457,1.2600098,2.440918,3.0844727,4.0302734,3.0844727
	c1.5908203,0,2.8481445-1.8088379,4.0307617-3.0844727c0.6865234-0.7404785,2.0009766-2.7158203,4.0639648-3.8635254h112.4716492
	c-2.6728516-5.2539062-6.5151367-8.3764648-9.6494141-10.7336426c30.0126953,0.125,47.4155273,7.2333984,52.8867188,9.9035645
	C580.9017334,233.6635742,575.7835693,230.8227539,566.5882568,228.6643066z M399.3358459,225.3557129
	c-13.3925781,5.6838379-19.6791992,8.7421875-27.4931641,8.7421875c-11.0634766,0-23.9091797-5.9897461-23.9091797-18.6401367
	c0-15.5603027,13.2504883-25.5661621,25.9008789-25.5661621
	C389.3597717,189.8916016,400.188385,204.1396484,399.3358459,225.3557129z M427.1039124,235.0695801
	c-2.7768555,0.5129395-4.1279297,2.0512695-6.6606445,4.7492676c-2.5107422-2.5424805-3.9116211-4.2072754-6.6894531-4.7202148
	c-3.2661133-0.6035156-5.3413086-1.6918945-5.3413086-3.6262207c0-2.2189941,5.3374023-4.7370605,12.0307617-4.7526855
	c6.6933594,0.015625,12.0009766,2.5336914,12.0009766,4.7526855
	C432.4442444,233.4067383,430.3705139,234.4663086,427.1039124,235.0695801z M469.044342,234.0979004
	c-7.8139648,0-14.1005859-3.0583496-27.4931641-8.7421875c-0.8525391-21.2160645,9.9760742-35.4641113,25.5014648-35.4641113
	c12.6503906,0,25.9008789,10.0058594,25.9008789,25.5661621
	C492.9535217,228.1081543,480.1073303,234.0979004,469.044342,234.0979004z M471.5555725,211.3969727
	c0.409668,8.4797363-4.0288086,15.5839844-9.9135742,15.8681641c-5.8842773,0.2841797-10.9868164-6.359375-11.3959961-14.8388672
	c-0.409668-8.4797363,4.0288086-15.5842285,9.9130859-15.8684082c2.8413086-0.137207,5.4941406,1.3513184,7.5302734,3.8708496
	c-2.5859375,0.4526367-4.5527344,2.7036133-4.5527344,5.4189453c0,3.0415039,2.465332,5.5070801,5.5068359,5.5070801
	c1.0415039,0,2.0117188-0.2944336,2.8422852-0.7966309C471.5096741,210.8374023,471.5419006,211.1132812,471.5555725,211.3969727z
	 M387.9569397,211.3547363c0.9790039,0,1.8964844-0.2580566,2.6928711-0.7058105
	c0.0185547,0.5849609,0.0200195,1.1762695-0.0087891,1.7773438c-0.409668,8.4794922-5.512207,15.1230469-11.3964844,14.8388672
	c-5.8847656-0.2841797-10.3227539-7.3884277-9.9135742-15.8681641c0.409668-8.4794922,5.5117188-15.123291,11.3964844-14.8391113
	c2.5698242,0.1242676,4.8632812,1.5495605,6.5986328,3.8217773c-2.7436523,0.3134766-4.8759766,2.6403809-4.8759766,5.4680176
	C382.4501038,208.8891602,384.9159241,211.3547363,387.9569397,211.3547363z"/>
<path d="M584.2469482,236.392334c-5.4711914-2.670166-22.8740234-9.7785645-52.8867188-9.9035645
	c3.1342773,2.3571777,6.9765625,5.4797363,9.6494141,10.7336426H428.5379944
	c-2.0629883,1.1477051-3.3774414,3.1230469-4.0639648,3.8635254c-1.1826172,1.2756348-2.4399414,3.0844727-4.0307617,3.0844727
	c-1.5893555,0-2.8618164-1.8244629-4.0302734-3.0844727c-0.7509766-0.8095703-2.1318359-2.7587891-4.7602539-3.8635254H299.8768616
	c2.6733398-5.2539062,6.515625-8.3764648,9.6499023-10.7336426c-12.6274414,0.0527344-23.0219727,1.3410645-31.234375,3.0151367
	c-11.1806641,2.2788086-18.3173828,5.2722168-21.5395508,6.8339844c3.7802734-3.0012207,9.5009766-6.0571289,20.8735352-8.40625
	c8.8452148-1.8269043,20.2021484-3.2165527,34.1220703-3.1157227c1.8579102-1.4394531,3.1357422-2.6733398,3.1816406-4.1679688
	c-4.2451172,1.9970703-8.3007812,1.0058594-14.8999023,1.9970703c2.6313477-1.7299805,7.8491211-2.6455078,8.9750977-3.5683594
	c-4.5107422,0.5307617-8.1425781-1.338623-9.4223633-2.529541c5.9111328,0.6193848,10.4941406-0.6025391,14.293457-2.7773438
	c-12.7612305-0.435791-25.4243164,1.4418945-32.9726562,3.9799805c5.1582031-3.8225098,21.2719727-6.4553223,35.3798828-5.5522461
	c1.1801758-0.8669434,2.2875977-1.8166504,3.3344727-2.8254395c-6.4838867,0-10.0102539-1.2038574-11.3476562-2.5649414
	c2.5649414-0.036377,4.7133789-0.2963867,6.519043-0.6872559c-7.7890625-2.2102051-14.8901367-3.4516602-21.7583008-4.0527344
	c-6.7729492-0.5927734-13.3198242-0.5627441-20.0766602-0.2248535c3.9716797-1.5180664,13.5341797-2.0397949,20.3330078-1.4377441
	c7.6689453,0.6791992,15.628418,2.1486816,24.4931641,4.8510742c3.6132812-1.3476562,5.1811523-3.2060547,5.8164062-4.0280762
	c-7.1142578-2.6635742-10.0566406-6.3708496-10.5004883-8.5053711c0.6811523,0.5493164,5.9584961,4.5205078,10.6728516,5.2641602
	c-11.894043-21.2543945-11.5976562-67.5949707-4.6679688-74.5419922
	c5.6005859-5.6147461,41.5629883,21.2675781,59.5146484,36.9443359c6.9179688-3.6166992,16.2626953-6.3168945,26.9414062-7.6374512
	c-1.3950195-2.6777344-3.3374023-4.6367188-5.1416016-5.9248047c3.6728516,0.447998,7.5063477,1.550293,12.2163086,6.4858398
	c3.8120117-10.4118652,19.0981445-7.2802734,20.2988281-25.0249023c1.4760742,6.3024902,0.2612305,12.7443848-7.5546875,21.8674316
	c3.7773438-2.3762207,12.4648438-5.9921875,19.1855469-4.217041c-3.3461914,0.815918-9.065918,2.151123-11.940918,6.5114746
	c11.8066406,1.1762695,22.1523438,4.0200195,29.6499023,7.9394531
	c17.9516602-15.6767578,53.9135437-42.559082,59.5146179-36.9443359c6.9296875,6.9470215,7.2260742,53.2875977-4.668457,74.5419922
	c4.7143555-0.7436523,9.9921875-4.7148438,10.6728516-5.2641602c-0.4433594,2.1345215-3.3857422,5.8417969-10.5,8.5053711
	c0.6352539,0.8220215,2.203125,2.6804199,5.815918,4.0280762c8.6254883-2.6293945,16.3842773-4.1936035,23.8706055-4.7958984
	c7.7792969-0.6257324,17.9570312,0.1369629,20.9467773,1.3823242c-7.0258789-0.3510742-13.8256836-0.3706055-20.8881836,0.2990723
	c-6.6132812,0.6269531-13.4580078,1.8564453-20.9375,3.9787598c1.8056641,0.3908691,3.9541016,0.6508789,6.519043,0.6872559
	c-1.3374023,1.361084-4.8642578,2.5649414-11.3481445,2.5649414c1.046875,1.0087891,2.1547852,1.9584961,3.3349609,2.8254395
	c14.1083984-0.7946777,28.0307617,1.1660156,36.0966797,5.7966309c-7.4458008-2.661377-20.5200195-4.6738281-33.6899414-4.2243652
	c3.7993164,2.1748047,8.3828125,3.3967285,14.293457,2.7773438c-1.2792969,1.190918-4.9111328,3.0603027-9.421875,2.529541
	c1.1259766,0.9228516,6.34375,1.8383789,8.9750977,3.5683594c-6.5991211-0.9912109-10.6547852,0-14.9003906-1.9970703
	c0.0463867,1.4946289,1.3242188,2.7285156,3.1816406,4.1679688c15.7368164-0.1140137,28.1938477,1.6757812,37.4501953,3.8483887
	C575.7835693,230.8227539,580.9017334,233.6635742,584.2469482,236.392334z"/>
<path class="st0" d="M432.4442444,231.4724121c0,1.9343262-2.0737305,2.9938965-5.340332,3.597168
	c-2.7768555,0.5129395-4.1279297,2.0512695-6.6606445,4.7492676c-2.5107422-2.5424805-3.9116211-4.2072754-6.6894531-4.7202148
	c-3.2661133-0.6035156-5.3413086-1.6918945-5.3413086-3.6262207c0-2.2189941,5.3374023-4.7370605,12.0307617-4.7526855
	C427.1366272,226.7353516,432.4442444,229.253418,432.4442444,231.4724121z"/>
<path class="st0" d="M467.0526428,189.8916016c-15.5253906,0-26.3540039,14.2480469-25.5014648,35.4641113
	c13.3925781,5.6838379,19.6791992,8.7421875,27.4931641,8.7421875c11.0629883,0,23.9091797-5.9897461,23.9091797-18.6401367
	C492.9535217,199.8974609,479.7030334,189.8916016,467.0526428,189.8916016z M461.6419983,227.2651367
	c-5.8842773,0.2841797-10.9868164-6.359375-11.3959961-14.8388672c-0.409668-8.4797363,4.0288086-15.5842285,9.9130859-15.8684082
	c2.8413086-0.137207,5.4941406,1.3513184,7.5302734,3.8708496c-2.5859375,0.4526367-4.5527344,2.7036133-4.5527344,5.4189453
	c0,3.0415039,2.465332,5.5070801,5.5068359,5.5070801c1.0415039,0,2.0117188-0.2944336,2.8422852-0.7966309
	c0.0239258,0.2792969,0.0561523,0.5551758,0.0698242,0.8388672
	C471.9652405,219.876709,467.5267639,226.980957,461.6419983,227.2651367z"/>
<path class="st0" d="M373.8343811,189.8916016c-12.6503906,0-25.9008789,10.0058594-25.9008789,25.5661621
	c0,12.6503906,12.8457031,18.6401367,23.9091797,18.6401367c7.8139648,0,14.1005859-3.0583496,27.4931641-8.7421875
	C400.188385,204.1396484,389.3597717,189.8916016,373.8343811,189.8916016z M390.6410217,212.4262695
	c-0.409668,8.4794922-5.512207,15.1230469-11.3964844,14.8388672c-5.8847656-0.2841797-10.3227539-7.3884277-9.9135742-15.8681641
	c0.409668-8.4794922,5.5117188-15.123291,11.3964844-14.8391113c2.5698242,0.1242676,4.8632812,1.5495605,6.5986328,3.8217773
	c-2.7436523,0.3134766-4.8759766,2.6403809-4.8759766,5.4680176c0,3.0415039,2.4658203,5.5070801,5.5068359,5.5070801
	c0.9790039,0,1.8964844-0.2580566,2.6928711-0.7058105C390.6683655,211.2338867,390.6698303,211.8251953,390.6410217,212.4262695z"
	/>
</svg>
