<svg version="1.1" id="Layer_1" xmlns="http://www.w3.org/2000/svg" xmlns:xlink="http://www.w3.org/1999/xlink" x="0px" y="0px" viewBox="0 0 100 100" style="enable-background:new 0 0 4000 4000;" xml:space="preserve"><style type="text/css">
	.st0{fill:#181412;}
</style><g transform="translate(9.506353555600505, 1) scale(0.025745232534618145) translate(-419.360000000001, -95.97000000000023)"><path class="st0" d="M3365.56,2283.76c0.51,2.92,3.09,4.97,6.17,4.8h0.34c1.54,0.17,2.74-1.03,2.92-2.57l4.8-86.8
	c0.52-9.78,13.72-12.18,17.84-3.26c81.14,178.41,118.37,366.43,111.68,564.05c-0.17,1.89,1.2,3.43,3.09,3.6l5.15,0.17l0.17-0.17
	l22.65-106.02c0.51-2.4,2.74-3.95,5.15-3.77c2.4,0.17,4.29,2.06,4.46,4.46c12.69,183.21,15.1,385.99-80.46,546.56
	c-1.54,2.92-0.69,6.52,2.06,8.06l0.17,0.17c2.4,1.03,5.32,0.17,6.86-1.89l60.04-83.37c1.89-2.57,5.15-3.43,7.89-2.06
	c2.92,1.37,4.29,4.63,3.43,7.55c-40.49,141.87-100.87,273.45-181.33,395.08c-125.75,189.73-302.61,268.65-522.54,313.42
	c-288.03,58.84-582.58,60.73-904.41,54.72c-269.85-4.97-584.47-19.38-943.86-43.23c-51.46-3.43-81.49-6.86-89.89-10.47
	c-10.12-4.29-12.87-9.09-8.58-14.75c5.49-7.03-1.54-17.15-11.84-17.15c-39.46,0-89.03,0.34-148.56,1.2
	c-13.9,0.17-26.93-6.86-34.31-18.7c-33.45-53.87-25.73-146.16,19.9-187.16c38.09-34.14,90.92-38.94,159.54-54.04
	c7.72-1.71,13.9-7.89,15.27-15.78c46.15-255.95,38.94-613.12,53.01-776.43c0.51-6.18,2.4-15.44,5.49-27.62
	c1.2-4.29,6.86-5.32,9.26-1.72l81.14,121.46c1.2,1.72,3.43,2.4,5.49,1.54c1.89-0.86,2.75-3.09,2.23-5.15
	c-17.15-59.18-33.28-120.09-70.16-177.9c-34.83-54.38-69.99-111.51-105.85-171.72c-126.09-211.86-182.87-428.19-153.88-673.5
	c12.52-106.88,66.56-239.65,87.32-328.17c22.13-94.35-5.32-199.51-107.39-218.9c-87.15-16.64-146.33-4.98-198.31-96.07
	c-32.42-56.78-51.29-94.18-56.78-112.54c-31.57-103.27,47.35-127.8,100.7-190.59c45.63-53.52,39.29-134.15,79.77-193.51
	c50.26-73.6,129.18-125.4,208.09-174.29c33.28-20.59,40.49-52.84,32.25-88.35c-17.67-76.34-33.97-148.91-49.23-218.04
	c-3.77-16.81,16.81-28.13,29.16-15.95l192.82,192.99c6,5.83,15.95,0.51,14.41-7.72c-16.12-87.32-15.44-172.92,2.23-256.47
	c3.26-15.44,21.79-21.79,33.97-11.67c31.22,26.25,71.53,67.08,121.11,122.14c0.51,0.69,85.09,103.27,253.72,307.93
	c109.45,132.78,184.24,284.26,224.22,454.26c28.65,122.31,21.62,267.79,50.26,401.77c28.48,133.64,135.01,220.27,247.54,294.89
	c98.98,65.53,188.88,131.24,269.85,196.94c192.65,156.45,358.88,364.71,489.43,581.04c155.6,258.01,251.32,546.9,249.95,849.85
	c-0.17,58.5-8.06,114.94-23.67,169.66c-1.2,4.63,4.29,7.89,7.72,4.8c173.61-155.42,219.41-429.73,184.24-651.2
	c-51.81-326.8-241.2-637.13-483.43-850.54c-223.53-196.94-351.5-293.18-473.48-479.31c-154.05-235.02-162.46-513.96-25.9-761.68
	c212.21-385.3,736.8-471.42,1034.1-128.15c87.32,101.04,122.83,217.18,119.74,347.04c-3.77,160.74-101.9,334.69-262.64,384.27
	c-72.22,22.47-209.29,4.63-237.08-78.4c-30.88-92.64,72.39-167.95,145.82-213.75c54.9-34.14,75.65-83.89,62.44-149.25
	c-26.25-129.52-137.24-203.97-266.93-206.89c-187.85-4.29-308.79,129-337.61,309.47c-55.58,348.24,238.8,535.41,483.6,713.3
	c46.66,33.79,95.55,81.66,146.67,143.42c1.72,2.06,4.8,2.57,7.03,0.86l0.17-0.17c1.55-2.06,1.72-4.63,0.52-6.69l-49.58-90.58
	c-2.06-3.95,2.23-8.23,6-5.83c22.99,13.9,39.11,25.9,48.38,35.68C3204.99,1924.88,3337.42,2110.67,3365.56,2283.76 M2048.74,2442.96
	c-33.79,0.68-70.33,9.09-109.45,25.39c-118.2,48.89-211.52,113.4-274.65,223.36c-148.56,259.21-67.08,597.68,95.21,827.21
	c2.4,3.43,0,8.23-4.12,8.23c-75.31,0.52-131.58-0.34-169.15-2.57c-37.22-2.06-51.12-14.92-72.39-45.12
	c-44.43-63.47-85.95-138.96-124.37-226.27c-2.74-6.18-12.01-5.32-13.21,1.37c-4.97,26.25-11.67,50.44-20.07,72.22
	c-58.33,151.31-124.72,293.69-199.17,427.16c-1.89,3.43,0.69,7.55,4.63,7.55l244.97-5.83c6.17-0.17,11.15-4.63,12.01-10.81
	c6.52-50.95,28.65-89.2,66.22-114.77c6-4.12,12.69-7.03,19.56-8.58c114.42-26.42,242.23-22.82,363-23.85
	c15.61,0,27.96,8.41,37.06,8.75c4.29,0.17,6.18-5.49,2.57-7.89c-72.57-48.89-128.66-110.82-168.12-185.62
	c-131.92-249.6-153.37-640.05,87.83-839.73c66.9-55.41,141.01-97.78,222.16-127.12c0.69-0.34,1.2-1.03,1.03-1.72
	C2050.12,2443.47,2049.6,2442.96,2048.74,2442.96L2048.74,2442.96z"/></g></svg>