<svg version="1.1" id="Layer_1" xmlns="http://www.w3.org/2000/svg" xmlns:xlink="http://www.w3.org/1999/xlink" x="0px" y="0px" viewBox="0 0 100 100" style="enable-background:new 0 0 4000 4000;" xml:space="preserve"><style type="text/css">
	.st0{fill:#181412;}
</style><g transform="translate(2.5786363610746648, 1) scale(0.027615435337612772) translate(-281.1500000000003, -212.48999999999904)"><path class="st0" d="M2680.58,2698.76c-14.78,6.36-28.82,13.05-42.12,20.07c-120.91,63.51-252.38,111.99-382.95,148.32
		c-166.91,46.5-336.62,75.48-509.14,87.13c-18.66,1.24-47.98,1.65-87.95,1.16c-29.98-0.41-59.3,0.41-87.95,2.48
		c-20.48,0.08-66.65-3.39-138.41-10.32c-183.51-17.76-355.78-70.86-516.74-159.39c-0.99-0.5-2.23-0.25-2.89,0.58
		c-88.61,114.88-163.93,237.6-226.04,368c-6.19,13.13-22.13,18.42-34.93,11.64l-0.99-0.5c-13.05-6.85-18.42-22.71-12.14-36.09
		c62.43-132.72,136.68-255.19,222.82-367.26c2.89-3.8,2.15-9.17-1.57-12.06c-75.24-57.73-139.9-124.21-193.91-199.61
		c-1.49-2.06-4.21-2.81-6.52-1.82c-116.53,51.78-226.45,114.22-329.77,187.39c-12.31,8.75-29.4,6.11-38.48-5.86l-0.91-1.24
		c-8.84-11.64-6.28-28.24,5.7-36.59c109.67-76.72,221.08-140.07,334.31-190.03c2.56-1.16,3.55-4.21,2.06-6.61
		c-124.87-204.24-96.63-450.59-26.34-671.51c31.38-98.61,66.48-178.3,105.21-239.17c1.73-2.73,2.48-6.03,1.98-9.25
		c-25.27-171.28-46.08-352.64-62.35-544.16c-4.62-53.93-4.62-110.17,0-168.89c4.46-56.74,13.87-115.29,46.17-162.12
		c50.96-74.08,175.33-49.06,249.41-23.21c159.47,55.66,305.98,146.26,437.62,253.87c2.15,1.73,5.12,2.15,7.68,1.07
		c110.5-45.75,225.54-78.04,345.13-96.96c46.5-7.35,84.9-8.75,127.02-14.86c2.89-0.5,5.29-2.39,6.36-5.12
		c61.61-159.31,146.84-306.06,255.6-440.43c24.12-29.73,53.52-60.21,88.12-91.34c81.68-73.58,152.7-18.99,209.93,45.59
		c70.53,79.45,120.74,165.25,167.73,274.85c69.21,161.46,114.13,269.15,151.13,410.62c0.91,3.55,3.3,6.52,6.52,8.18
		c44.43,23.45,87.87,51.78,130.32,85.06c171.94,134.53,314.24,316.3,367.67,531.61c0.66,2.72,3.39,4.38,6.11,3.88
		c140.31-26.59,285.91-34.44,436.63-23.54c14.62,1.07,25.85,13.38,25.6,28.08v1.32c-0.25,14.37-12.55,25.52-26.84,24.45
		c-143.12-10.65-283.93-3.55-422.59,21.39c-2.4,0.41-3.88,2.64-3.47,5.04c15.69,81.51,19.82,161.95,12.47,241.15
		c-1.9,20.23-8.34,44.18-10.9,65.41c-0.41,3.47,1.49,6.85,4.71,8.26c113.22,50.13,224.06,113.14,332.57,189.04
		c12.55,8.75,16.1,25.77,8.01,38.81l-0.91,1.4c-7.76,12.47-24.45,15.77-36.34,7.18c-99.68-72.01-205.8-132.72-318.45-182.1
		c-2.97-1.32-6.44,0.25-7.35,3.39c-53.27,174.01-160.22,306.72-296.9,430.77C2866.97,2580.67,2777.45,2644.92,2680.58,2698.76
		 M2214.54,1998.93c-1.73-7.27-4.71-18-8.75-32.21c-30.47-106.7-32.46-262.62,49.55-346.37c74.91-76.64,168.14-59.96,241.73,7.1
		c126.77,115.54,217.78,424.9,82.17,562.16c-17.76,17.92-38.98,29.9-63.67,35.92c-1.49,0.33-2.48,1.73-2.4,3.3
		c0.17,1.57,1.32,2.72,2.89,2.89c149.56,12.88,296.98-59.13,369.41-192.43c45.34-83.33,67.64-170.87,66.89-262.62
		c-1.16-166.58-52.69-321.34-166.16-447.04c-128.34-142.05-331.5-192.01-495.27-73.58c-37.08,26.84-64.25,52.52-81.43,77.22
		c-87.79,125.94-118.1,266.92-91.09,422.92c14.95,86.72,46.33,167.9,94.07,243.55c0.33,0.5,0.91,0.66,1.4,0.5
		C2214.38,2000,2214.71,1999.43,2214.54,1998.93 M1592.51,2467.85c-40.88,7.76-79.86,0.33-116.86-22.38
		c-49.55-30.31-88.78-70.78-117.6-121.24c-71.52-125.04-110.75-313.5-28.16-442c42.61-66.32,112.81-101.08,188.54-73.01
		c130.32,48.4,208.28,209.85,223.81,338.35c0.16,1.24,1.16,2.15,2.39,2.06h0.16c1.16-0.08,2.06-1.07,2.06-2.23
		c5.12-217.37-67.97-414.91-240.82-552.09c-139.49-110.75-324.56-121.98-460-3.22c-203.16,178.3-180.45,497.17-55.5,709.33
		c74.99,127.35,198.87,233.39,348.18,253.37c100.34,13.38,185.49-14.62,255.36-83.99
		C1595.32,2469.59,1594.24,2467.52,1592.51,2467.85 M2407.51,1649.44c-27.3,11.46-34.32,56.89-15.63,101.52
		c18.64,44.64,55.97,71.57,83.26,60.15c27.3-11.46,34.32-56.89,15.63-101.52C2472.13,1664.95,2434.8,1638.03,2407.51,1649.44
		 M1489.15,1882.02c-25.72,11.36-30.92,55.88-11.61,99.36c19.26,43.48,55.76,69.49,81.41,58.14c25.72-11.36,30.92-55.87,11.61-99.36
		C1551.3,1896.69,1514.79,1870.67,1489.15,1882.02L1489.15,1882.02z"/><path class="st0" d="M2727.48,2855.02c119.01,153.44,208.69,353.96,200.19,549.03c-1.32,30.64-6.28,57.15-14.95,79.61
		c-0.5,1.32,0.33,2.64,1.73,2.89c60.04,9.75,119.01,8.42,176.82-4.05c140.81-30.23,272.37-155.26,233.39-308.95
		c-10.24-40.38-36.26-100.51-33.86-157.49c5.86-135.61,142.79-174.34,238.92-96.29c85.31,69.21,114.3,192.01,113.06,296.24
		c-1.65,140.97-50.38,258-146.09,351.07c-114.71,111.41-257.75,146.59-415.16,149.56c-81.26,1.57-154.35-1.16-219.35-8.18
		c-73.17-7.85-133.87-14.37-182.02-19.74c-4.05-0.5-8.18-0.17-12.06,1.07c-205.47,60.62-429.78,71.44-641.53,47.65
		c-93.49-10.49-202.42-41.29-276.41-99.85c-140.89-111.49-170.71-351.82-144.94-511.12c66.98,7.35,139.98,8.26,218.94,2.72
		c181.28-12.72,357.84-46.08,529.87-100.09c2.48-0.74,5.04,0.74,5.62,3.3c31.22,139.32,51.04,280.38,59.54,423.25
		c0.33,5.37,3.8,9.99,8.92,11.73c11.89,4.13,26.68,6.03,44.35,5.62c91.09-2.15,173.93-24.03,248.42-65.57
		c13.96-7.85,25.93-17.43,35.76-28.9c4.46-5.2,6.11-12.22,4.54-18.83c-36.01-148.16-97.04-282.61-176.24-411.69
		c-1.57-2.48-0.5-5.78,2.15-7.02C2635.73,2917.7,2682.56,2889.04,2727.48,2855.02L2727.48,2855.02z"/></g></svg>