<svg version="1.1" id="Layer_1" xmlns="http://www.w3.org/2000/svg" xmlns:xlink="http://www.w3.org/1999/xlink" x="0px" y="0px" viewBox="0 0 100 100" style="enable-background:new 0 0 4000 4000;" xml:space="preserve"><style type="text/css">
	.st0{fill:#181412;}
</style><g transform="translate(11.614021397032872, 1) scale(0.028116240571735146) translate(-645.6899999999991, -248.6200000000003)"><path class="st0" d="M1619.97,839.13c168.26,55.72,325.54,140.89,472.13,255.38c11.67,9.17,18.2,23.34,17.37,38.07
		c-0.97,20.15-5.28,42.52-12.78,67.39c-33.21,110.74-70.44,214.81-111.71,312.21c-55.99,131.99-136.58,238.98-242.04,382.93
		c-28.34,38.76-123.66,165.76-286.08,380.7c-15.42,20.43-31.96,35.71-49.6,45.71c-14.31,8.2-32.1-1.81-32.65-18.2l-14.45-447.81
		c-0.42-11.53-6.39-22.23-16.26-28.34l-179.51-113.52c-7.92-5-18.2-3.61-24.31,3.33c-131.44,146.03-243.98,270.66-337.49,373.62
		c-27.65,30.43-51.69,53.63-71.97,69.47c-14.87,11.67-36.68,1.11-36.68-17.79c-2.5-618.16-3.33-1006.36-2.5-1164.34
		c0.42-65.58-10.84-126.16,56.97-153.95c165.2-67.53,351.8-75.17,526.18-50.3c5.56,0.7,10.98-2.5,12.92-7.78
		c68.36-181.04,208.55-345.97,389.46-422.25c225.09-95.04,483.8-62.39,688.74,67.11C2534.91,517.76,2662.6,728.39,2742.22,920
		c108.51,261.35,182.29,531.32,221.61,810.18c14.03,99.62,23.76,232.87,29.18,399.88c5.7,171.04,10.42,304.56,14.17,400.57
		c6.25,160.06,6.25,285.11-0.14,375.15c-3.75,54.05-11.67,100.32-23.76,138.8c-18.2,58.36-86.28,65.58-146.31,66.14
		c-345.69,2.78-689.57,2.22-1035.13-17.65c-58.22-3.33-112.54-8.34-149.64-61.55c-3.33-4.72-8.75-7.64-14.73-7.64
		c-167.84-0.56-310.95,2.22-429.47,8.2c-122.55,6.25-283.03,34.6-353.47,142.28c-4.45,6.67-5.7,14.73-3.61,22.37
		c12.37,45.43,88.51,85.87,132,96.84c129.77,32.93,258.29,23.62,395.43,13.06c295.25-22.51,597.59-84.62,872.42-96.98
		c231.62-10.42,457.96-2.64,680.68,45.85c123.1,26.82,245.37,72.25,322.77,173.12c51.41,67.11,121.99,234.81,7.36,275.94
		c-81.98,29.59-88.78-47.8-104.76-100.18c-40.71-133.52-168.96-174.24-293.73-193.83c-301.23-47.38-608.71-49.74-922.44-7.22
		c-311.37,42.38-568.97,79.2-850.75,68.36c-132.41-5.14-286.5-43.63-368.62-153.53c-75.59-101.01-51.13-220.22,43.21-301.92
		c129.49-112.13,311.93-144.22,477.55-152.56c132.97-6.81,251.21-8.75,354.86-5.97c24.31,0.69,36.96-11.12,37.93-35.29
		c5.28-117.69,28.9-229.53,70.86-335.69c74.33-187.99,171.6-357.5,264.55-527.43c73.78-135.05,132.97-265.52,177.43-391.54
		c75.72-214.81,76.42-427.25,2.08-637.19c-56.83-160.48-165.62-261.35-326.66-302.48c-58.08-14.87-101.57,1.39-130.61,48.63
		c-27.37,44.46-53.35,94.62-77.81,150.61C1612.61,832.05,1615.11,837.47,1619.97,839.13 M1151.38,1063.11
		c-131.5-18.06-253.49,80.72-272.67,220.41c-19.17,139.73,71.83,267.56,203.35,285.62c131.5,18.06,253.49-80.72,272.67-220.41
		C1373.91,1209,1282.9,1081.17,1151.38,1063.11 M1949.82,1444.51c0-129.36-104.76-234.12-234.12-234.12
		c-129.36,0-234.12,104.76-234.12,234.12c0,129.36,104.76,234.12,234.12,234.12C1845.06,1678.63,1949.82,1573.86,1949.82,1444.51
		L1949.82,1444.51z"/><path class="st0" d="M1227.98,1164.06c39.63,11.87,48.11,100.1,19.11,196.92c-29.08,96.86-84.79,165.77-124.35,153.88
		c-39.63-11.87-48.11-100.1-19.11-196.92C1132.7,1221.09,1188.42,1152.17,1227.98,1164.06L1227.98,1164.06z"/><path class="st0" d="M1849.99,1303.68c34.67,15.08,32.17,97.76-5.61,184.68c-37.81,86.9-96.58,145.11-131.24,130.05
		c-34.67-15.08-32.17-97.76,5.61-184.68C1756.55,1346.83,1815.33,1288.61,1849.99,1303.68L1849.99,1303.68z"/></g></svg>