<svg version="1.1" id="Layer_1" xmlns="http://www.w3.org/2000/svg" xmlns:xlink="http://www.w3.org/1999/xlink" x="0px" y="0px" viewBox="0 0 100 100" style="enable-background:new 0 0 4000 4000;" xml:space="preserve"><style type="text/css">
	.st0{fill:#181412;}
</style><g transform="translate(12.922995970050387, 1) scale(0.02750244154327987) translate(-645.94, -218.11000000000035)"><path class="st0" d="M2085.28,3218.64c-14.22,25.41-23.59,60.29-42.24,90.84c-38.82,63.62-79.04,116.95-120.58,160.2
		c-17.14,17.84-54.64,53.43-112.41,106.77c-1.11,1.11-2.92,1.11-4.13,0l-0.3-0.3c-1.21-1.11-1.41-3.02-0.4-4.34
		c48.29-62.41,84.28-130.96,107.98-205.47c0.2-0.6-0.1-1.31-0.71-1.61c-0.6-0.2-1.21,0-1.61,0.5
		c-86.9,133.79-232.99,240.55-377.46,305.48c-3.13,1.41-4.23,5.14-2.42,8.07l43.86,69.67c0.6,1.01,0.4,2.22-0.5,2.92l-0.1,0.1
		c-1.01,0.81-2.52,0.6-3.33-0.4l-36.7-43.65c-0.71-0.81-1.81-1.01-2.72-0.5l-0.1,0.1c-0.6,0.4-0.81,1.31-0.4,1.92l41.34,69.16
		c0.6,0.91,0.3,2.12-0.6,2.72h-0.1c-0.81,0.61-1.92,0.4-2.52-0.3c-61.6-77.33-110.9-145.98-148-205.87
		c-90.53-146.09-177.14-306.59-259.71-481.41c-2.32-4.74-7.36-7.26-15.32-7.46c-5.24-0.2-9.58,4.34-9.17,9.58l44.56,617.81
		c0,0.3-0.2,0.5-0.5,0.5l-3.23,0.2c-1.31,0.1-2.42-0.71-2.72-1.92c-22.28-91.74-33.37-137.62-33.37-137.72
		c-17.34-83.58-46.07-238.03-86.2-463.16c-1.31-7.56-4.94-10.89-10.79-9.78c-3.43,0.6-7.46,1.01-12,1.31
		c-4.74,0.3-7.26,2.72-7.56,7.26c-5.95,110.9-16.13,290.36-30.45,538.37c-0.1,1.61-1.61,2.72-3.23,2.42l-5.44-2.12
		c-0.3-0.1-0.4-0.3-0.5-0.6l-35.99-609.04c-0.81-14.62-7.97-28.23-19.66-37.2l-65.63-50.71c-5.04-3.83-6.45-10.69-3.53-16.23
		c5.44-10.18,15.22-20.47,29.34-30.95c57.67-42.85,120.28-71.68,187.92-86.7c0.91-0.2,1.71-1.21,2.42-2.92
		c1.31-2.92-1.01-6.15-4.23-5.95c-67.04,4.23-120.38,33.98-178.35,64.42c-2.92,1.61-6.55,1.61-9.58,0.1
		c-39.12-19.46-59.89-48.09-62.41-85.8c-3.43-51.42,10.59-83.48,47.28-121.69c64.62-67.15,145.18-108.78,241.56-125.01
		c2.42-0.4,4.23-2.52,4.13-5.04c-0.1-2.42-2.02-4.44-4.44-4.74c-102.63-10.59-207.38,52.93-273.32,127.84
		c-3.33,3.83-9.68,1.81-10.18-3.23c-0.5-4.54,1.51-10.79,6.05-18.75c18.15-31.76,32.56-64.02,43.15-96.99
		c1.51-4.44,2.12-9.18,2.02-13.81l-11.8-403.17c-0.2-6.45-4.03-12.2-9.88-14.82c-27.93-12.4-85.29-55.25-84.39-93.26
		c0.2-8.57,6.75-20.16,19.76-34.58c44.46-49.91,98.2-86.7,161.11-110.4c1.92-0.71,3.03-2.82,2.52-4.74
		c-0.5-2.02-2.42-3.33-4.44-3.13c-44.46,5.24-86,23.59-124.51,55.15c-28.43,23.29-45.87,36.8-52.22,40.53
		c-2.72,1.61-5.54,2.82-8.67,3.63c-9.88,2.52-20.37,0-31.35-7.56c-67.95-46.78-67.85-163.53-4.13-216.46
		c47.49-39.52,102.13-65.93,163.73-79.34c4.64-1.01,4.54-7.66-0.2-8.47c-10.08-1.61-20.37-1.31-30.95,0.91
		c-73.09,15.02-136,49.8-188.83,104.45c-4.13,4.34-11.49,2.12-12.6-3.73c-19.26-101.62,0.81-193.07,60.19-274.22
		c15.02-20.57,31.66-42.44,49.9-65.53c3.23-4.13,5.24-8.87,6.15-14.01c3.33-19.96,4.84-37.81,4.54-53.53
		c-4.94-204.46-1.61-404.58,10.08-600.27c5.14-86.4,2.72-168.27,11.29-251.04c0.1-0.71,0.6-1.21,1.31-1.21h0.1
		c0.6,0.1,1.11,0.5,1.11,1.11c17.64,265.05,31.25,550.47,40.83,856.45c0,1.92,2.12,3.13,3.83,2.32c10.99-5.34,22.08-8.57,33.27-9.48
		c2.62-0.2,4.74-2.32,4.94-4.94c14.42-233.19,22.28-357.3,23.49-372.12c10.79-135.6,27.02-319.49,48.69-551.68
		c4.94-53.43,6.55-124.91,12.6-188.23c0.2-1.92,0.5-3.23,0.81-4.13c0.81-1.92,3.53-1.31,3.63,0.71
		c14.42,381.9,25.3,741.31,18.85,1099.92c-0.1,2.22,1.51,4.13,3.63,4.64l55.35,12.4c1.61,0.4,3.13-0.71,3.33-2.32
		c3.13-30.55,6.25-62.81,9.17-96.78c2.12-24.5,9.88-73.7,23.39-147.6c8.77-48.09,21.27-96.18,37.71-144.27
		c50.11-146.29,115.03-282.9,194.88-409.83c37.91-60.29,94.87-134.29,157.48-170.58c64.72-37.3,123.7,10.99,168.57,56.86
		c103.14,105.56,186.41,222.2,259.2,342.48c75.41,124.71,131.37,257.69,167.86,398.84c0.3,1.21,1.41,1.92,2.62,1.82
		c1.21-0.2,2.12-1.21,2.12-2.42c-0.1-32.97-3.43-63.72-9.98-92.25c-22.89-99.21-56.46-195.18-100.92-287.83
		c-2.32-4.74,1.11-10.38,6.45-10.38c127.94-1.31,228.96,32.16,355.69,87.81c2.62,1.11,5.55,0.81,7.76-0.71
		c70.87-48.49,137.62-86,200.43-112.51c175.73-74.4,343.99-154.65,504.9-240.85c15.12-8.07,34.28-13.11,57.57-15.12
		c3.13-0.3,6.15,0.81,8.37,2.92c55.75,53.53-2.12,216.66-25.81,279.06c-62.81,165.85-134.29,344.09-214.24,534.74
		c-2.62,6.25-7.56,21.98-14.82,47.08c-1.01,3.23-1.01,6.65,0,9.88c17.84,58.47,29.34,130.06,34.48,214.64
		c16.43,272.71-45.07,527.18-184.6,763.29c-9.17,15.63-15.83,27.52-19.96,35.69c-0.91,1.92,0.71,4.03,2.82,3.73
		c194.88-30.55,416.18-23.19,587.87,64.02c1.21,0.6,1.81,2.12,1.21,3.43v0.1c-0.6,1.31-2.12,1.92-3.53,1.41
		c-188.83-70.47-373.13-62.31-582.43-32.66c-15.63,2.22-28.94,7.26-40.13,15.02c-3.02,2.12-1.61,6.86,2.02,6.96
		c81.26,3.02,178.25,10.69,259.61,39.02c144.98,50.41,271,127.74,378.07,231.98c15.32,14.92,35.29,42.04,44.76,61.3
		c0.5,0.91,0.2,2.02-0.71,2.62c-0.81,0.6-1.92,0.5-2.62-0.3c-45.97-51.92-83.17-79.95-152.94-128.74
		c-134.49-94.16-287.63-148.4-453.58-168.97c-34.88-4.34-92.45-9.88-123.91,16.13c-2.92,2.42-0.91,7.16,2.82,6.75
		c69.87-6.75,135.1,6.65,195.89,40.43c84.99,47.38,162.22,119.97,221.5,192.86c47.89,58.78,84.28,122.09,109.29,190.04
		c3.63,9.88,5.24,19.16,4.84,27.93c-0.1,1.41-2.02,1.81-2.62,0.5c-27.72-56.36-44.46-88.62-50.21-96.78
		c-50.91-72.49-110.4-138.93-178.65-199.52c-54.74-48.69-120.48-92.75-193.77-111.1c-17.14-4.34-59.08-12.5-125.82-24.5
		c-3.73-0.71-7.36-0.3-10.69,1.11c-5.04,2.12-5.14,9.28-0.1,11.59c105.76,47.99,189.03,119.97,249.83,216.05
		c51.42,81.36,87.51,166.25,108.28,254.67c2.62,10.99,4.13,22.38,4.54,34.28c0,0.91-0.6,1.61-1.41,1.71
		c-0.91,0.1-1.71-0.4-1.92-1.21c-22.08-79.65-55.95-154.96-101.62-225.83c-69.46-107.77-158.08-222.61-290.46-247.21
		c-4.13-0.81-8.37,0.5-11.59,3.33c-70.47,64.22-152.54,118.66-248.92,125.32c-3.53,0.2-6.25,3.33-5.95,6.86
		c12.7,167.86-9.68,343.29-88.82,492.6c-1.81,3.43-6.96,2.22-7.26-1.61l-8.17-120.98c-0.2-2.32-2.02-4.13-4.33-4.13
		c-2.32-0.1-4.34,1.61-4.54,3.93c-11.19,108.18-45.97,208.09-104.35,299.83c-0.81,1.31-2.42,1.71-3.83,1.11
		c-1.41-0.6-2.02-2.22-1.61-3.63c14.92-47.79,25.1-97.49,30.45-149.01C2088.91,3217.73,2086.29,3216.92,2085.28,3218.64
		 M1161.99,2058.32c12.4-16.63,22.58-36.6,30.55-59.68c68.46-200.53,53.13-462.75-117.05-608.03
		c-56.46-48.19-119.17-57.57-188.03-28.13c-57.36,24.5-101.73,63.21-132.88,115.94c-2.22,3.83,2.32,7.96,5.95,5.34
		c16.94-12.3,38.71-36.5,57.26-47.38c41.13-23.89,85.49-33.17,132.98-27.72c117.05,13.51,184.6,108.98,216.96,215.75
		c44.46,146.49,41.64,290.66-8.47,432.51c-0.3,0.71,0.1,1.51,0.71,1.92C1160.68,2059.13,1161.48,2058.93,1161.99,2058.32
		 M1732.82,2063.77c77.23,103.94,221.29,117.96,318.79,35.19c84.99-72.19,67.04-198.91,8.17-278.16
		c-58.98-79.24-175.22-132.98-268.78-72.39C1683.62,1817.87,1655.59,1959.92,1732.82,2063.77 M2725.55,1739.64
		c-55.22-21.67-134.16,47.99-176.26,155.5c-42.19,107.53-31.5,212.18,23.67,233.86c55.22,21.67,134.16-47.99,176.26-155.5
		C2791.41,1865.96,2780.72,1761.31,2725.55,1739.64 M958.84,2119.72c-1.81,0-3.33,1.51-3.33,3.33v372.22c0,2.82,3.43,4.34,5.55,2.42
		l57.47-53.03c0.71-0.6,1.11-1.51,1.11-2.42v-319.19c0-1.81-1.51-3.33-3.33-3.33H958.84 M2504.78,2254.21
		c1.92,37.1-13.91,63.72-47.49,79.85c-9.78,4.74-24.9,5.85-45.47,3.43c-42.85-4.94-78.54-1.11-106.87,11.29
		c-10.08,4.34-8.47,19.05,2.32,21.27c30.14,6.05,87.91,32.36,90.43,71.38c0.71,10.18,1.61,20.47,2.92,30.75
		c0.3,2.72,3.93,3.43,5.44,1.11c0.6-1.01,0.4-2.82-0.6-5.44c-0.81-2.02-0.4-4.23,1.01-5.85c23.09-27.52,43.55-49.9,61.6-66.94
		c38.61-36.3,65.03-73.8,55.65-122.8c-1.51-7.86-5.95-14.82-13.51-20.87C2508.01,2249.57,2504.58,2251.29,2504.78,2254.21
		 M1479.46,3026.68c0.3,0.1,0.61-0.1,0.71-0.3c51.72-85.29,70.27-175.12,55.45-269.49c-22.08-141.25-127.74-300.54-273.22-334.92
		c-52.02-12.4-106.56-4.03-163.73,25c-2.42,1.21-3.53,4.03-2.52,6.55c0.91,2.52,3.53,3.93,6.15,3.33
		c87.11-20.47,178.85,3.02,248.62,66.24c101.93,92.55,156.87,202.95,151.73,339.86c-2.52,66.24-13.01,119.57-31.56,160
		c-0.5,1.11,0.2,2.52,1.41,2.62L1479.46,3026.68 M1977.71,2611.41c59.48,27.42,144.77,46.48,216.96,43.15
		c50.81-2.42,87.51-21.68,99.91-70.57c1.81-7.16-6.86-12.2-12.2-7.06c-56.26,55.05-115.54,57.77-194.18,45.27
		c-31.66-5.04-68.05-10.28-109.09-15.63c-1.21-0.2-2.42,0.6-2.82,1.81C1975.99,2609.59,1976.6,2610.9,1977.71,2611.41
		L1977.71,2611.41z"/><path class="st0" d="M2036.48,1915.66c5.95-1.31,11.59,3.13,11.69,9.17c1.21,68.25-25.91,119.17-81.46,152.74
		c-81.16,49.1-181.67,0.91-215.65-80.86c-22.48-54.24-10.38-118.97,26.72-163.63c39.82-48.09,97.19-63.01,172.1-44.76
		c18.05,4.44,33.87,14.42,47.59,29.94c1.61,1.81,1.01,4.74-1.21,5.75c-28.63,12.8-39.62,47.59-20.37,72.99
		C1990.11,1915.66,2010.27,1921.81,2036.48,1915.66L2036.48,1915.66z"/><path class="st0" d="M2567.79,1916.17c0.91-2.52,4.54-2.42,5.24,0.2c2.32,8.37,4.33,13.31,6.15,14.82
		c9.07,7.66,23.69,5.14,32.56-5.44c29.24-34.78,27.32-62.51-5.75-83.17c-2.62-1.71-3.53-5.14-1.92-7.86
		c16.13-26.62,42.14-63.52,76.12-36.7c74.91,59.08,39.42,165.85-2.42,231.88c-20.77,32.56-58.47,62.21-96.89,34.88
		C2542.29,2037.25,2553.58,1956.5,2567.79,1916.17L2567.79,1916.17z"/></g></svg>