<?xml version="1.0" encoding="UTF-8"?>
<svg xmlns="http://www.w3.org/2000/svg" xmlns:xlink="http://www.w3.org/1999/xlink" width="2000pt" height="2000pt" viewBox="0 0 2000 2000" version="1.1">
<g id="surface1">
<path style=" stroke:none;fill-rule:nonzero;fill:rgb(0%,0%,0%);fill-opacity:1;" d="M 723 866 L 723 867 C 733.714844 868.195313 743.425781 867.644531 754 871 C 745.933594 875 736.382813 876.15625 728 880 C 702.734375 891.035156 676 909 661.757813 933 C 649.167969 954.175781 649.304688 980 639.230469 1002 C 633.597656 1014.34375 625.496094 1025 611 1026 C 596.992188 1026.824219 583.46875 1018.34375 573 1010 C 548.238281 990.25 529 956.101563 523 925 C 520.53125 911.496094 519.957031 898.363281 523.371094 885 C 524 882.285156 524.179688 874.640625 527.277344 873.585938 C 531.199219 872.25 537.816406 881.058594 541 883 C 524.429688 859.257813 495 833 469 820 C 477.851563 839.476563 474 864.46875 474 886 L 474 1494 C 485.785156 1488.5 486 1473.546875 491.246094 1463 C 500.359375 1444.640625 512.191406 1429.21875 529 1417.15625 C 537.285156 1411.207031 546.601563 1407 556 1403.011719 C 558.53125 1402 565 1401.019531 566.355469 1398.410156 C 567.867188 1395.339844 565.253906 1390.007813 564.425781 1387 C 562.429688 1379.726563 560.746094 1371.570313 561 1364 C 562 1337.617188 578.484375 1312.332031 599 1296.652344 C 611 1287.425781 630.546875 1278 646 1283.558594 C 655.433594 1287.046875 663.316406 1295 671 1301.195313 C 676.472656 1305.613281 681.894531 1310.253906 688 1313.785156 C 689.574219 1314.699219 693 1317.117188 694.355469 1314.574219 C 697.273438 1308.804688 692 1293.304688 691.171875 1287 C 688.359375 1267.726563 683.75 1247.148438 676.550781 1229 C 672.507813 1218.808594 664.289063 1209.675781 662 1199 L 660 1199 C 660 1201.441406 660.429688 1203.621094 661 1206 C 624.839844 1190.789063 602 1139.238281 602 1102 C 601.972656 1086 602.917969 1064.769531 621 1058.132813 C 629.511719 1055.011719 639.917969 1058 648 1061.066406 C 667.660156 1068.589844 684.261719 1082.363281 703 1091.730469 C 742.839844 1111.644531 791.171875 1095.484375 822 1066 C 821.996094 1096 819 1127 811.523438 1156 C 810 1161.519531 805.261719 1182 798.957031 1183.40625 C 795.648438 1184.179688 790 1177.421875 787 1176 C 797.832031 1193.339844 816.222656 1207.753906 829.835938 1223 C 856.566406 1253 882 1284.691406 905.847656 1317 C 915.394531 1330 924 1343.554688 932.996094 1357 C 935.519531 1360.832031 938.546875 1369.746094 943.210938 1371.226563 C 953.433594 1374.476563 974 1365.273438 984 1362.28125 C 1018.855469 1351.78125 1050.246094 1334.683594 1087 1331.171875 C 1130.273438 1327.035156 1173.941406 1333 1217 1325.386719 C 1252.242188 1319.15625 1284.65625 1299.128906 1320 1295.171875 C 1381.351563 1288.308594 1444.363281 1293.308594 1506 1289.089844 C 1541 1286.691406 1576.839844 1283.113281 1611 1274.371094 C 1625 1270.746094 1642.199219 1266 1650.613281 1253 C 1658.96875 1240.089844 1655.203125 1223.101563 1649.230469 1210 C 1636.417969 1182 1616.894531 1157.042969 1596.691406 1134 C 1537.398438 1066.03125 1460.941406 1009.722656 1381 968.359375 C 1360.808594 958 1340.789063 947.121094 1320 938 C 1299.652344 928.796875 1278 922.367188 1271 899 C 1263.738281 875.015625 1260.957031 849.460938 1255.640625 825 C 1247.964844 789.691406 1236.347656 754.636719 1223.253906 721 C 1210.664063 688.65625 1189.734375 654.222656 1203.820313 619 C 1211.386719 600.089844 1225 583.261719 1237 567 C 1252.359375 546.320313 1267.238281 525.265625 1281.65625 504 C 1326 438.527344 1365.980469 368.546875 1395.398438 295 C 1406.359375 267.597656 1415.988281 239.804688 1422.5 211 C 1425.761719 196.554688 1429.277344 179.546875 1424.816406 165 C 1415.894531 136 1390.355469 132 1364 132 C 1314 132 1265 148.023438 1218 162.71875 C 1149.171875 184.1875 1083.773438 220.320313 1021 255.140625 C 986.90625 274.050781 951 291.085938 918 311.683594 C 882.515625 333.789063 852.199219 368.121094 814 385.140625 C 762.1875 408.21875 706.785156 420.101563 657 448.578125 C 646 454.824219 635.457031 461.34375 625 468.332031 C 620.660156 471.234375 613.742188 474.730469 611 479.324219 C 608 484.382813 612 492.722656 612.828125 498 C 615.589844 517 618.695313 536.234375 622.195313 555 C 631.410156 604.410156 632 658.832031 632 709 L 632 758 C 632 763.71875 630 773.476563 632.601563 778.695313 C 635.394531 784.570313 655 788.273438 661 791.269531 C 684.992188 803.265625 705.300781 821.078125 723.996094 840 C 727.355469 843.398438 741.664063 856.199219 740.382813 861.398438 C 739.753906 864 725.738281 865.292969 723 866 M 1338 211 C 1337.855469 228.558594 1333.261719 247 1329 264 C 1317.570313 311.589844 1297 355.152344 1268.578125 395 C 1259.734375 407.375 1250.664063 420 1240.171875 431 C 1236 435.179688 1231.730469 441.257813 1226 443 C 1228.542969 435.484375 1232.207031 428 1233 420 L 1232 420 C 1224.339844 438.394531 1214 456.238281 1201.878906 472 C 1196.78125 478.59375 1191.652344 486.28125 1184 490 C 1189.976563 478.769531 1196 467.527344 1199 455 C 1167.363281 488.054688 1135 515.765625 1093 535.078125 C 1081.386719 540.410156 1068.78125 548.242188 1056 550 L 1056 549 C 1077.675781 535.683594 1094.890625 518.558594 1112 500 C 1148 461.234375 1181.90625 412.527344 1189.570313 359 C 1191.53125 345.328125 1188.277344 332.515625 1188 319 L 1189 319 C 1203.613281 350.25 1201.683594 381 1201 414 L 1202 414 C 1207 399.066406 1214.515625 385.191406 1219 370 C 1229.347656 336.199219 1230.445313 301.257813 1222 267 C 1229 273.09375 1231.789063 284.375 1234.667969 293 C 1243.175781 318.53125 1246.367188 344.363281 1243 371 L 1244 371 C 1250.9375 352 1263.566406 334.761719 1271.574219 316 C 1282 291.496094 1286.710938 267.53125 1293 242 L 1294 242 C 1299.960938 267.027344 1294.804688 298.25 1290 323 L 1291 323 C 1299 299 1313.738281 276.789063 1322.9375 253 C 1327.636719 241 1330 221 1338 211 M 1006 291 L 1006 292 C 992.355469 298.488281 979.390625 305.003906 968 315.175781 C 945.5625 335.207031 931.269531 363.109375 913.523438 387 C 894.46875 412.648438 870.761719 437.300781 844 455 C 848.683594 444 857 434.042969 862.21875 423 C 871.773438 402.757813 878.304688 382 890.695313 363 C 915 325.820313 960.183594 293 1006 291 M 397 400 L 397 401 C 436.84375 432.515625 469.828125 478.210938 495 522 C 502 534.273438 517.183594 551.8125 519 566 C 520 574.1875 506.167969 590 501.984375 597 C 499.867188 600.566406 496 604.5625 497.414063 609 C 500.738281 620.292969 511.972656 631.160156 518.308594 641 C 532.238281 662.625 545.523438 684.816406 556.742188 708 C 563.835938 722.660156 570 738 576 753 C 578.582031 759.5625 580.273438 769.316406 584.96875 774.679688 C 589.804688 780.203125 598.878906 770.824219 603.914063 778.148438 C 618.832031 800 614.246094 833.109375 628 855 C 630.386719 844 626.933594 828.214844 625.425781 817 C 621.21875 785.722656 612.453125 756.214844 603.554688 726 C 576.265625 633.339844 543 535 476 463 C 459.941406 445.664063 442.359375 430.269531 423 416.574219 C 414.910156 411 406.296875 403.523438 397 400 M 1139 400 C 1138.964844 452.171875 1107.417969 509 1062 535 C 1066 524 1078.933594 514.777344 1085.792969 505 C 1106.570313 475.371094 1133.742188 437.347656 1137 400 L 1139 400 M 1233 417 L 1233 420 L 1234 420 C 1233.75 418.546875 1233.683594 418.25 1233 417 M 1066 441 C 1065.296875 475.03125 1055.203125 509.445313 1036.65625 538 C 1031 546.558594 1024.484375 559.566406 1015 564 C 1025.929688 538.636719 1041 515.175781 1050.492188 489 C 1054 478.808594 1057.996094 468.507813 1060.625 458 C 1062 452.386719 1062 445.460938 1066 441 M 1200 452 L 1201 453 L 1200 452 M 622 749 C 624.585938 743 622.785156 734.480469 622.171875 728 C 621.179688 717.582031 621.269531 706.453125 621 696 C 619.804688 646.632813 618.59375 596 611.578125 547 C 609.386719 531.679688 607.800781 516.316406 605.425781 501 C 605 498.808594 604.835938 487.230469 601.851563 487.207031 C 598 487.175781 589.769531 496.53125 587 499.085938 C 575.492188 509.695313 563.960938 521 553.921875 533 C 550.851563 536.671875 544.445313 541.824219 544.503906 547 C 544.574219 553.453125 551.464844 562.480469 554.574219 568 C 561.605469 580.472656 567.925781 594 573.574219 607 C 593.492188 653.40625 605.761719 701.414063 622 749 M 1215 520 C 1208.269531 548.070313 1180.84375 577.789063 1159 595.199219 C 1151.894531 601 1144.621094 608 1136 611 L 1136 610 C 1155.648438 593 1173.292969 572.320313 1189.550781 552 C 1197.574219 542 1204.878906 527.8125 1215 520 M 443 558 C 451.847656 573.550781 468.382813 587.476563 473.363281 605 C 476.515625 616.089844 473.757813 632.339844 474 644 C 446 616.0625 417.5625 592.414063 382 574.753906 C 369.867188 568.726563 354.628906 560.121094 341 559 L 341 560 C 377.945313 576 411 607 438 636 C 449.269531 648.003906 461 660.226563 470 674 C 475.648438 682.464844 469.664063 693.679688 475.703125 701.714844 C 479.976563 707.398438 486.757813 711.433594 492 716.171875 C 503.488281 726.546875 515 738 525.25 749.574219 C 555.464844 784.039063 580.335938 828 596 871 L 597 871 C 585.601563 786.363281 545.324219 699.328125 498.332031 629 C 487.359375 612.578125 475.882813 596.503906 463.660156 581 C 457.472656 573.148438 451.210938 563.800781 443 558 M 883 654 C 875.953125 650.777344 870 645.171875 863 641.785156 C 847.449219 634.359375 829.832031 632.609375 813 635.433594 C 762.675781 644 723.757813 701.425781 756.210938 748 C 762 756.363281 769.539063 763.5625 778 769.25 C 795.761719 781.191406 812.574219 782 833 781 C 827 790 808.761719 793 799 795.230469 C 785.875 798.410156 769.398438 801.671875 756 798.238281 C 729.226563 791.382813 713.203125 758.035156 705.503906 734 C 691.488281 690.25 698.722656 638.351563 735 607.300781 C 767 579.820313 821 578 853.984375 605.261719 C 869 617.777344 877.902344 635.367188 883 654 M 888 600 C 905.917969 619.453125 920.289063 639.820313 928.921875 665 C 945.304688 712.785156 935.835938 775 898.984375 811 C 875 834.3125 840.507813 848.457031 807 843 C 800.234375 841.800781 780.296875 839.015625 777.347656 831.613281 C 776.253906 829 795.265625 824.15625 798 823.128906 C 820.675781 814.617188 843 801.015625 861 784.828125 C 896 753.238281 922.453125 705.328125 911.253906 657 C 908 643.195313 903.707031 630.625 897.242188 618 C 894.554688 612.75 887.433594 606.023438 888 600 M 1156 641 L 1156 642 C 1114.28125 652 1073.414063 682.339844 1038 705.34375 C 1025.339844 713.566406 1012 725.601563 998 731 C 1003.585938 718.46875 1016.894531 707.738281 1027 699 C 1053.59375 675.4375 1085 659.429688 1119 649.445313 C 1130.960938 646 1143.410156 641.105469 1156 641 M 350 643 L 350 644 C 394 665 438 694.75 468 734 C 475 743.179688 468.613281 754.605469 475.433594 762.816406 C 486.9375 776.667969 503.597656 787.160156 515.714844 801 C 539.28125 828 557.417969 860.484375 574 892 C 575.570313 885.347656 570.679688 875.320313 568.414063 869 C 562.695313 853.058594 558 836.792969 551.796875 821 C 519 737.78125 439.214844 661.464844 350 643 M 865 675.578125 C 885 675.570313 886.273438 707 866 707 C 845.582031 707 844.597656 675.585938 865 675.578125 M 359 728 L 359 730 C 389.53125 734.488281 421 752.660156 446 770 C 454.40625 775.808594 465.210938 782 471.566406 790.089844 C 477.207031 797.320313 469.804688 807.117188 476.3125 814.246094 C 481.90625 820.367188 490.21875 824.210938 496.910156 829 C 511.65625 839.554688 528.4375 852.117188 539 867 C 539.789063 862.160156 535.191406 857.1875 533 853 C 526.835938 841.023438 520.488281 829.238281 513 818 C 479.507813 767.738281 421.546875 728.519531 359 728 M 743 1089 C 746.554688 1080.550781 753 1074 751.378906 1064 C 747.648438 1041.832031 729.4375 1022.769531 721.203125 1002 C 714.355469 984.730469 713.675781 961 702.445313 946 C 694.28125 935.128906 684.601563 933.40625 672 935 C 682.878906 922 705.445313 918.417969 717.894531 931.09375 C 730.394531 943.816406 729.578125 967.785156 734.886719 984 C 742.628906 1007.660156 762 1027.257813 768.238281 1051 C 772.855469 1069.027344 760.191406 1084.664063 743 1089 M 1267 959 L 1267 960 C 1260.5625 962 1253.644531 960.632813 1247 961.089844 C 1233.664063 962.003906 1220.296875 963.820313 1207 965.171875 C 1175.800781 968.339844 1144.484375 977 1113 977 C 1119 968.707031 1139.355469 965.113281 1149 962.445313 C 1188 951.617188 1227.351563 956 1267 959 M 599 1162 C 584.929688 1160.589844 569.296875 1151.183594 558 1143.140625 C 520.449219 1116.402344 502 1074.339844 502 1029 C 502 1012.339844 503.597656 996.578125 510 981 C 511.402344 977.621094 513.832031 968.820313 517.527344 967.347656 C 520.597656 966.121094 523.296875 974.113281 524.246094 976 C 529.910156 987.246094 536.816406 998 544.375 1008 C 554.59375 1021.605469 570 1033 576.382813 1049 C 583.953125 1068.191406 579.746094 1092.628906 582.171875 1113 C 584.277344 1130.703125 593 1145.652344 599 1162 M 1286 997 L 1286 998 C 1234.390625 998 1182.609375 993.066406 1131 992 C 1138.679688 986.753906 1155.683594 988.816406 1165 987.714844 C 1203.945313 983.105469 1247.914063 987.828125 1286 997 M 1525 1098 C 1513.59375 1093.683594 1503.320313 1086.027344 1492 1081.226563 C 1453.359375 1065 1413.640625 1051.007813 1374 1037.304688 C 1347.5 1028.148438 1320.59375 1018.199219 1293 1013 C 1297.859375 1009.679688 1303.515625 1011.535156 1309 1012 C 1322 1012.804688 1334.972656 1013.488281 1348 1015 C 1398.59375 1020.628906 1442.609375 1039 1485 1066.65625 C 1496.726563 1074.308594 1518.304688 1085.496094 1525 1098 M 1101 1115 L 1100 1115 C 1096.429688 1102.609375 1087.179688 1091.832031 1079.195313 1082 C 1039 1032.652344 971.320313 1031.734375 915 1048.039063 C 897.644531 1053.0625 881.949219 1063.015625 865 1068 C 873.644531 1042.527344 907.875 1024.386719 932 1017.578125 C 993.375 1000.261719 1073.253906 1022 1094.554688 1088 C 1097.398438 1096.816406 1100.921875 1105.636719 1101 1115 M 1209 1049 L 1209 1050 C 1199.1875 1048.476563 1189.496094 1043.203125 1180 1040.179688 C 1163 1034.796875 1145.9375 1030.289063 1129 1025.027344 C 1117.679688 1021.507813 1100.90625 1020 1091 1014 C 1099.71875 1011.421875 1110 1014.773438 1119 1016 C 1139.261719 1018.808594 1160.347656 1024.699219 1179 1033.09375 C 1189.261719 1037.710938 1198.640625 1045 1209 1049 M 1057 1111 C 1061.5625 1117.398438 1062.484375 1127.375 1063.753906 1135 C 1070.351563 1174.609375 1047 1212.363281 1009 1225.617188 C 958.941406 1243.074219 903.847656 1215.019531 879.703125 1170 C 865 1142.628906 856.546875 1105.269531 885 1083.746094 C 888.71875 1081 894 1076.144531 898.808594 1075.242188 C 902.589844 1074.511719 897.28125 1087.632813 896.800781 1090 C 892.980469 1108.769531 896.285156 1127.183594 907.4375 1143 C 935.175781 1182.332031 992 1190.5 1028.996094 1158.699219 C 1043.660156 1146.042969 1051.253906 1129 1057 1111 M 1005 1076.515625 C 1024.945313 1070.523438 1034.824219 1101.363281 1015 1107.773438 C 995 1114.21875 985 1082.488281 1005 1076.515625 M 1527 1098 L 1526 1099 L 1527 1098 M 738 1163 C 741 1173.660156 748.996094 1184 754 1194 C 774.347656 1234.695313 802.960938 1270.550781 825.578125 1310 C 833.601563 1324 841.566406 1338.253906 848 1353 C 851.257813 1360 854.496094 1372.035156 859.96875 1377.398438 C 862.722656 1380.09375 868.488281 1379 872 1379 C 880.746094 1379 903.570313 1374.574219 909.480469 1381.097656 C 923.964844 1397.074219 934.605469 1421 944.246094 1440 C 962.84375 1477 979 1514.546875 991.65625 1554 C 996.816406 1570.148438 999.914063 1587 1005 1603 L 1006 1603 C 1006 1478 933.460938 1364.613281 857.390625 1271 C 835 1243.457031 805.320313 1220 785 1191 L 784 1191 C 788.347656 1204.617188 801.289063 1218.226563 809.414063 1230 C 824.394531 1251.710938 840 1276 851 1300 C 823.949219 1268.742188 801.203125 1233.707031 774.589844 1202 C 763.6875 1189.011719 751.878906 1172.777344 738 1163 M 703 1172 C 708.605469 1191.457031 719.601563 1210 726.5625 1229 C 737.796875 1259.816406 745.394531 1291 752 1323 C 745.765625 1315.648438 743.214844 1302.039063 739.601563 1293 C 731 1271.796875 722.378906 1250.355469 712 1230 L 711 1230 C 711.824219 1240.097656 715.671875 1250.027344 717.539063 1260 C 720.421875 1275.367188 721.351563 1291.445313 722.828125 1307 C 723.585938 1315 720.453125 1330.8125 725 1337.503906 C 728.699219 1343 740.265625 1346.425781 746 1349.242188 C 766.226563 1359.1875 789.492188 1369.09375 812 1372 C 809.398438 1354.386719 798.820313 1335.191406 791.542969 1319 C 776.410156 1285.332031 760.664063 1252.40625 741.191406 1221 C 731.171875 1205 718.589844 1183.214844 703 1172 M 683 1189 C 684.363281 1218.824219 693.972656 1249.101563 696.828125 1279 C 697.730469 1288.4375 697.753906 1298.527344 697.984375 1308 C 698 1312 696.808594 1318 698.601563 1321.503906 C 701 1326.390625 713.324219 1331 718 1334 C 720.269531 1323.527344 716.773438 1310.503906 715.285156 1300 C 711.597656 1274 704.910156 1248.164063 697.410156 1223 C 694.703125 1214 690.78125 1194.707031 683 1189 M 770 1243 C 771.652344 1254.023438 779 1265 783.695313 1275 C 791.988281 1293.394531 799.992188 1312.046875 806.945313 1331 C 838.636719 1417.355469 873 1510 873 1603 L 875 1603 C 876.289063 1573 880.988281 1543.34375 878.910156 1513 C 873.816406 1438.589844 848.410156 1365.757813 810 1302 C 798.289063 1282.5625 785.710938 1259.402344 770 1243 M 1288 1285 C 1282.496094 1294.773438 1264 1300.535156 1254 1304 C 1221.433594 1315.089844 1189.417969 1314.300781 1157 1303.492188 C 1148.574219 1300.683594 1135 1298.613281 1129 1292 C 1164.8125 1287.472656 1198.578125 1300 1234 1299 C 1253.171875 1298.515625 1270.398438 1291.828125 1288 1285 M 504 1474 C 511.660156 1470.492188 517.992188 1464.695313 526 1461.453125 C 552.882813 1450.5625 582.335938 1448 611 1450.832031 C 622.464844 1452 641.308594 1452.597656 650 1461 C 635.511719 1462.453125 621.84375 1475.679688 610 1483.308594 C 589 1496.796875 567.273438 1508.183594 545 1519.246094 C 535.894531 1523.769531 524.171875 1531.128906 514 1532.425781 C 499.257813 1534.300781 514.953125 1516.058594 518 1513 C 533 1497.769531 549.4375 1483.3125 569 1474 C 561.980469 1470.222656 548.554688 1473.273438 541 1474.808594 C 510.863281 1481 487.308594 1501.40625 468.664063 1525 C 461.953125 1533.492188 456.246094 1543 452.199219 1553 C 451.371094 1555.058594 447.984375 1561 450 1563 C 452.664063 1565.402344 463.707031 1561.726563 467 1561.28125 C 482 1559.25 496.84375 1558.085938 512 1560 C 507 1564.769531 500 1567.300781 495 1572.09375 C 480.609375 1585.488281 464.523438 1613.324219 469 1634 L 470 1634 C 508.886719 1577.066406 578.800781 1574.253906 640 1566.714844 C 655.363281 1564.820313 669.898438 1559.230469 685 1557 C 647.871094 1594.125 601.886719 1624.089844 556 1649.304688 C 544.875 1655.421875 533.574219 1661.460938 522 1666.695313 C 518 1668.46875 512.515625 1672 508 1670.691406 C 496.695313 1667.523438 512.652344 1653.351563 516 1650 C 531.953125 1634.027344 550.269531 1616.246094 571 1607 C 561.367188 1600.421875 538 1607.351563 528 1611.054688 C 499.628906 1621.453125 476.753906 1644 458.199219 1667 C 450 1677.101563 441.222656 1688.636719 437 1701 C 455.722656 1700.613281 474.222656 1697 493 1697 C 500.410156 1697 510 1695.820313 516 1701 C 505.683594 1701.449219 496.273438 1706.78125 486 1707 C 495.980469 1725.679688 528.457031 1729 547 1729 C 603.882813 1729 656.882813 1705.710938 707 1682 C 681 1724 647.59375 1760.566406 606 1787.308594 C 596 1793.699219 585.179688 1801 574 1804.820313 C 571.503906 1805.703125 564.207031 1809 562.558594 1805.105469 C 560.808594 1801.117188 567.882813 1793.601563 570.171875 1791 C 580.316406 1779.464844 594.789063 1771.007813 604 1759 C 567.265625 1763.667969 543.21875 1783.703125 516 1807.128906 C 509.78125 1812.480469 503.484375 1817.738281 497 1822.765625 C 495.371094 1824.027344 490.277344 1826.769531 491.921875 1829.476563 C 494.398438 1833.558594 508.664063 1834 513 1834 C 533.402344 1834.484375 553.582031 1833 574 1833 C 568.8125 1838 558.925781 1839.066406 552 1840 C 558.621094 1849.039063 574.671875 1851.574219 585 1853.246094 C 628.800781 1860.335938 664.171875 1826.824219 700 1809 C 689 1825.050781 672.511719 1837.820313 656 1847.796875 C 649.421875 1851.773438 640.867188 1854.3125 635 1859 C 657.433594 1866.609375 683.800781 1860.078125 704 1849.078125 C 742.230469 1828.265625 771.972656 1791 786 1750 C 792 1733 793.65625 1712.777344 790.535156 1695 C 788.9375 1686 781.847656 1674.042969 782.71875 1665 C 783.753906 1654.304688 794.429688 1641.707031 797.820313 1631 C 806.734375 1603 803.511719 1570.234375 787.933594 1545 C 782.265625 1535.816406 775.386719 1528.242188 767 1521.46875 C 762.851563 1518.113281 755.667969 1515.675781 753 1511 C 749.726563 1505 751 1494.761719 749 1488 C 743 1467.222656 731.378906 1449.050781 714 1436 C 668.304688 1401.316406 584.5 1396.828125 538 1431.628906 C 524.503906 1441.726563 508 1456.777344 504 1474 M 523 1793 C 531.597656 1786.066406 538.171875 1777 547 1770.015625 C 566.425781 1754.800781 589.65625 1743.78125 613 1736 C 608.527344 1734.398438 602.539063 1736.808594 598 1738 C 587.671875 1740.332031 577.476563 1742.550781 567 1744.246094 C 557.992188 1745.703125 548 1746.832031 539 1745.714844 C 534 1745.109375 525 1741.613281 520.417969 1743.644531 C 516.902344 1745.164063 516.425781 1751.757813 515.804688 1755 C 513.269531 1768.25 516.761719 1781.300781 523 1793 "/>
</g>
</svg>
