<svg xmlns="http://www.w3.org/2000/svg" viewBox="0 0 100 100"><g transform="translate(1, 16.825663177074176) scale(0.7801773000346048) translate(0.1246090542745808, 0.02372496376600708)"><path d="M32.28,68.46l-.77-.87c-2.06.83-4.19,1.54-6.18,2.56-2.43,1.24-4.71,2.8-7.12,4.12a31.85,31.85,0,0,0-5,4C10.52,80.54,7.9,83,4.61,84.45a3.36,3.36,0,0,1-2.31.43,2.75,2.75,0,0,1-2-4A27,27,0,0,1,8.59,70.16a105.19,105.19,0,0,1,9.12-6.41,44.31,44.31,0,0,1,5.49-2.69c1.36-.62,2.75-1.18,4.15-1.77-.66-2.8-1.29-5.5-1.91-8.18a27.08,27.08,0,0,1-11.91-2.82,4.53,4.53,0,0,1-2.72-4.56,3.21,3.21,0,0,1,3.11-3.11,44,44,0,0,0,7.87-.73,44.54,44.54,0,0,0,5.74-1.52c.72-.2,1.41-.51,2.12-.76a15.52,15.52,0,0,0,6.82-5c1.29-1.59,2.56-3.2,3.85-4.79A39.23,39.23,0,0,1,47.63,21c1.13-.83,2.32-1.58,3.47-2.38,3.6-2.47,7.72-3.49,11.92-4.21a40.31,40.31,0,0,1,4.54-.07,43.76,43.76,0,0,1,8.85.72,5.78,5.78,0,0,1,2.35,1,20.91,20.91,0,0,1,5,4.8c.83,1.13,1.68,2.25,2.53,3.36a2.09,2.09,0,0,0,.55.56.54.54,0,0,0,.87-.49,2.49,2.49,0,0,0-.46-1.17c-1.55-2.06-3-4.27-5.06-5.85a18.41,18.41,0,0,1-1.51-1.37c1.07-.34,2-.63,3-1s2.08-.87,3.16-1.19a9.28,9.28,0,0,0,2.89-1.38,5.62,5.62,0,0,1,3.75-1.27,9.37,9.37,0,0,0,3.75-.71c2.13-.72,4.27-1.42,6.42-2.07,1.36-.42,2.07,0,2.34,1.38.36,1.83.56,3.7.85,5.55a3.41,3.41,0,0,0,.38,1.18c.91,1.52,1.86,3,2.82,4.53,1-.84,2.06-1.79,3.17-2.71.91-.76,1.5-.65,2,.43a13.37,13.37,0,0,1,1.2,7.82,52,52,0,0,1-2.72,10.21,23.57,23.57,0,0,1-3.11,6.15c-.28.38-.53.77-.88,1.28,1.55-.13,2.94-.21,4.32-.37a31.73,31.73,0,0,1,9.18.13,2.28,2.28,0,0,1,1.18.72,3.36,3.36,0,0,1-.23,4.53,12.76,12.76,0,0,1-5.93,3.12c-4.58,1.08-9.2,2-13.81,3a104.93,104.93,0,0,0-22.24,7q-6.9,3.1-13.73,6.39a86.29,86.29,0,0,1-12.37,4.61c-4.71,1.42-9.36,3-14,4.51a30.55,30.55,0,0,1-6.3,1.24,21.45,21.45,0,0,0-5,1c-3.84,1.37-5.49-2.22-4.84-5,.58-2.52,2.26-3.93,4.19-5.23C30.73,69.21,31.47,68.9,32.28,68.46Zm22-21.62a20.08,20.08,0,0,0,2.58-.17A24.94,24.94,0,0,0,71.1,38.84c2.28-2.5,4.09-5.24,4.47-8.77A7.62,7.62,0,0,0,70,21.74a15.41,15.41,0,0,0-6.75-.18,27.94,27.94,0,0,0-14.46,7.07,17,17,0,0,0-4.56,6.59c-1.52,4.24-.16,8,3.75,10.2A12,12,0,0,0,54.33,46.84Zm46.74-15.37c1.61,0,2.78-1.44,2.75-3.35a2.78,2.78,0,0,0-2.71-2.32,3.11,3.11,0,0,0-2.93,2.72A3.14,3.14,0,0,0,101.07,31.47ZM118.16,49.7a3.55,3.55,0,0,0,2.93-1.06c.83-1,.49-1.87-.72-2.27a4.52,4.52,0,0,0-2.37.11c-1.16.2-2,1.08-1.89,1.85A1.75,1.75,0,0,0,118.16,49.7ZM95.52,16.44A2.46,2.46,0,0,0,93.18,14a3.06,3.06,0,0,0-2.85,2.79,2.62,2.62,0,0,0,2.48,2.32A2.83,2.83,0,0,0,95.52,16.44Zm17.89,6.35c-.12.58-.16.89-.25,1.19-.24.81-.54,1.61-.75,2.43-.11.38,0,.83.47.85a.93.93,0,0,0,.73-.47c.39-1.38.77-2.77,1-4.18.17-1-.54-1.53-1.36-1.1a16.76,16.76,0,0,0-2.64,1.82c-.4.31-.32.74.21,1.06Zm-11.15-8c.59-.25,1.08-.32,1.15-.52a5.61,5.61,0,0,0,.45-3.27c-.09-.33-.65-.84-.85-.77-1.3.39-2.65.8-3.29,2.17,1.13,1.33,1.91-.14,2.87-.27C102.49,13,102.4,13.75,102.26,14.83ZM15.33,47.23c.28-.22.73-.41.84-.72s-.23-.72-.5-.89a4.35,4.35,0,0,0-1.5-.54.82.82,0,0,0-1,.56.83.83,0,0,0,.5,1.07A15.16,15.16,0,0,0,15.33,47.23Zm-.92-3.35v0a13.8,13.8,0,0,0,1.44-.17c.17,0,.42-.28.41-.42s-.18-.59-.34-.63a10.92,10.92,0,0,0-2.2-.32.79.79,0,0,0-.88.77c0,.51.43.71.92.72ZM29.86,74.2c-.43-.07-.77-.23-1-.13a3,3,0,0,0-1.75,1.49c.68.8.72.85,1.21.48A3.27,3.27,0,0,0,29.86,74.2Zm.77,2.91c-.1-.12-.22-.39-.42-.46a1.91,1.91,0,0,0-2,1.21.8.8,0,0,0,.68.91A2.72,2.72,0,0,0,30.63,77.11Z"/><path d="M80,14.26c.36-.66.67-1.27,1-1.84,1.17-1.86,2.32-3.75,3.57-5.56S87.37,3,88.85,1.17a2.91,2.91,0,0,1,4.7,0,3.54,3.54,0,0,1,.57,2.11c-.19,1.8-.59,3.58-.88,5.38a1.25,1.25,0,0,1-1,1.09,6.65,6.65,0,0,0-1.91.82c-2.3,1.57-5,2.26-7.49,3.32A4.41,4.41,0,0,1,80,14.26ZM91.6,4.75a1.46,1.46,0,0,0-2.1-1.47c-1.15.51-1.49,1.61-1.92,2.64A1.45,1.45,0,0,0,88,7.67a1.52,1.52,0,0,0,1.8.06A4.26,4.26,0,0,0,91.6,4.75Z"/><path d="M102.34,28.52a1.25,1.25,0,0,1-1.27,1.37,1.75,1.75,0,0,1-1.62-1.7A1.49,1.49,0,0,1,101,26.84,1.44,1.44,0,0,1,102.34,28.52Z"/><path d="M94.54,16.46a1.48,1.48,0,0,1-1.47,1.42,1.35,1.35,0,0,1-1.51-1.16c-.09-.84.42-1.38,1.35-1.44S94.49,15.69,94.54,16.46Z"/></g></svg>