<?xml version="1.0" encoding="utf-8"?>
<!-- Generator: Adobe Illustrator 24.2.1, SVG Export Plug-In . SVG Version: 6.00 Build 0)  -->
<svg version="1.1" id="Layer_1" xmlns="http://www.w3.org/2000/svg" xmlns:xlink="http://www.w3.org/1999/xlink" x="0px" y="0px"
	 viewBox="0 0 4000 4000" style="enable-background:new 0 0 4000 4000;" xml:space="preserve">
<style type="text/css">
	.st0{fill:#181412;}
</style>
<g>
	<path class="st0" d="M3514.62,1635.15c107.15,106.56,194.84,228.47,221.43,377.85c0.98,5.57,4.11,10.46,8.7,13.69
		c38.03,26.88,69.7,49.86,94.93,68.92c42.43,32.16,81.14,68.43,41.65,124.26c-33.04,46.83-82.9,72.74-137.16,104.41
		c-33.14,19.26-54.65,40.67-80.75,75.67c-10.85,14.66-30.21,30.4-57.88,47.12c-6.65,4.01-9.48,7.72-8.6,11.15
		c1.47,5.57,8.51,7.43,12.51,3.23c33.14-34.61,70.49-57.58,112.23-69.02c76.16-20.92,179.79,10.36,153.1,111.45
		c-1.08,4.11-2.74,7.23-4.99,9.38c-1.56,1.56-2.44,2.84-2.74,3.81c-0.98,3.23,0.1,6.65,2.64,8.9
		c48.69,43.31,50.74,119.17-19.45,138.92c-3.23,0.98-5.28,4.2-4.59,7.43c8.9,46.24-4.99,80.95-41.84,104.12
		c-49.57,31.19-100.7,36.17-153.58,15.15c-3.03-1.17-6.55-1.17-9.58,0.1c-39.2,15.84-88.77,29.33-148.7,40.48
		c-160.72,29.91-326.92,36.47-498.69,19.55c-115.85-11.44-226.61-37.93-332.29-79.48c-4.11-1.66-8.8-1.47-12.71,0.69
		c-143.32,76.55-297.2,132.96-461.63,169.23c-392.81,86.71-836.16,101.77-1193-109.98c-104.8-62.18-211.56-170.99-256.92-283.61
		c-1.17-3.13-3.91-5.38-7.23-6.06c-391.44-82.22-669.77-372.77-630.57-790.7c18.48-196.01,87.5-372.28,207.16-528.9
		c39.99-52.2,95.12-88.96,161.8-61.79c51.72,21.02,55.53,76.55,34.71,121.23c-16.52,35.29-39.89,81.14-69.9,137.55
		c-59.34,111.45-92.48,228.57-99.42,351.26c-7.23,126.9,29.82,252.91,122.99,349.99c80.46,83.69,177.15,137.36,290.06,161.02
		c2.35,0.49,4.6-1.17,4.79-3.62c12.12-165.9,85.05-346.86,213.81-457.04c2.64-2.35,3.71-5.96,2.64-9.29
		c-29.52-90.63,22.97-159.06,99.52-202.17c126.21-71.17,259.75-111.55,400.53-121.23c7.92-0.59,15.74-3.03,22.58-7.24
		c78.6-47.8,135.5-81.43,223.78-107.34c48.78-14.37,119.37-27.57,150.46,26.59c16.52,28.84,18.77,63.94,6.74,105.29
		c-1.17,3.91-0.59,8.02,1.37,11.54l18.18,31.48c1.86,3.23,5.57,5.08,9.29,4.69c90.72-10.07,181.35-12.22,271.78-6.45
		c110.57,7.04,215.96,30.6,316.07,70.58c2.35,0.98,5.08,0,6.35-2.15c126.11-215.86,304.73-369.64,535.84-461.24
		c4.5-1.76,7.43-5.96,7.63-10.75c1.08-34.12,10.66-61.88,28.74-83.39c56.9-67.85,184.19-101.19,214.3,10.26
		c0.98,3.52,4.2,5.96,7.92,5.87c38.42-1.47,75.18,11.34,90.04,48.78c13.2,33.14,8.41,63.45-14.57,90.92
		c-2.15,2.54-2.54,6.16-0.98,9.09c41.06,74.79-9.19,170.3-99.72,159.94c-4.4-0.59-8.8,0.59-12.32,3.32l-84.17,64.43
		c-2.15,1.66-1.66,5.08,0.88,6.06c3.91,1.47,11.73,1.47,23.37,0.2c2.83-0.29,5.08-2.45,5.48-5.28c0.78-5.96,6.75-13.59,17.79-23.07
		c6.35-5.48,16.13-3.91,20.53,3.23c9.09,14.86,22.39,28.15,39.79,39.89c2.74,1.86,5.96,2.93,9.29,3.03
		c9.68,0.29,19.65-1.47,30.01-5.38c65.79-24.83,134.81-41.74,206.96-50.74c19.55-2.44,35.29,1.47,47.22,11.63
		c41.65,35.78-28.84,161.7-54.06,192.69C3511.79,1628.2,3511.98,1632.5,3514.62,1635.15 M2704.17,2742.99
		c32.46,13.98,63.84,24.64,94.15,31.97c243.23,59.24,486.96,61.59,731.26,7.04c39.01-8.7,76.35-22,112.13-40.08
		c10.26-5.08,22.48-3.72,31.28,3.52c17.5,14.47,36.56,19.55,57.29,15.15c40.57-8.6,69.21-17.01,77.04-61.1
		c2.44-13.39-3.62-26.88-15.25-33.92c-17.21-10.46-35.98-16.81-32.26-38.62c1.47-8.8,10.66-13.88,18.87-10.66
		c14.47,5.87,31.58,17.6,47.81,13.69c34.22-8.41,52.5-37.54,23.56-67.46c-8.02-8.31-20.14-11.15-31.09-7.43
		c-18.77,6.55-32.75,1.56-41.84-14.76c-5.67-10.07-0.1-22.78,11.24-25.32c10.46-2.35,17.79-4.01,22-4.98
		c42.53-10.17,31.48-66.87-6.35-77.72c-40.77-11.63-80.36-4.3-118.78,22.19c-32.16,22.19-52.5,38.42-60.81,48.69
		c-3.42,4.11-8.21,6.65-13.49,7.04c-14.96,1.27-28.45-2.84-40.47-12.12c-3.23-2.44-7.53-2.83-11.15-0.98
		c-130.12,68.73-299.74,71.95-438.66,21.8c-10.66-3.91-16.72-15.15-13.98-26.2v-0.19c2.64-10.66,13.78-16.82,24.25-13.39
		c134.91,44.78,295.63,50.35,421.06-24.44c2.74-1.56,4.6-4.5,4.89-7.72c1.66-18.57,5.67-30.11,12.22-34.7
		c25.61-17.79,49.37-35.39,71.37-52.79c2.83-2.25,5.38-4.69,7.53-7.53c38.62-49.66,94.93-77.72,158.38-116.73
		c17.89-11.05,33.34-26.3,46.34-45.85c4.69-7.14,4.6-16.42-0.39-23.37c-6.45-9.19-18.28-21.02-35.59-35.59
		c-4.2-3.62-40.86-28.94-109.98-75.96c-7.92-5.48-13.1-14.18-14.18-23.76c-6.45-60.71-26.88-119.56-61.39-176.76
		c-51.42-85.35-110.08-158.18-175.97-218.3c-7.43-6.75-5.77-18.87,3.23-23.36c49.66-24.93,66.38-92.29,77.62-142.44
		c0.68-3.23-1.76-6.16-5.08-6.06c-75.57,2.25-156.42,31.09-229.64,57.78c-3.23,1.17-5.67,4.01-6.26,7.33
		c-3.62,19.06,0.29,44.58-20.73,55.82c-9.58,4.99-21.31-2.64-22.58-14.76c-1.37-13.69-2.25-28.25-2.64-43.8
		c-0.1-4.4-2.35-8.41-5.96-10.75l-5.87-3.72c-3.71-2.35-8.51,0.1-8.7,4.5l-1.66,41.35c-0.39,9.97-9.87,17.11-19.55,14.66l-1.66-0.39
		c-10.26-2.84-17.11-12.51-16.52-23.17l2.35-43.31c0.1-2.35-1.56-4.5-3.91-4.98l-54.06-10.66c-6.06-1.17-12.51-0.1-17.89,3.13
		c-136.18,80.56-228.86,190.83-278.23,330.73c-3.52,9.78-14.86,14.27-24.25,9.58c-8.6-4.2-11.93-10.07-10.07-17.79
		c38.81-153.1,139.12-254.97,264.35-343.05c67.75-47.71,125.33-90.82,172.65-129.34c3.52-2.84,8.11-3.71,12.42-2.44
		c37.83,11.54,65.01-2.84,81.73-43.21c7.33-17.6,4.79-34.41-7.53-50.35c-2.25-2.93-5.67-4.69-9.29-4.79l-25.32-1.17
		c-11.05-0.49-19.06-10.95-16.62-21.8c8.6-39.11,62.76-8.12,65.11-58.95c1.27-28.25-11.05-42.14-36.86-41.84
		c-7.92,0.1-15.35,3.52-20.33,9.58c-5.87,6.94-13.49,17.11-22.97,30.5c-7.04,9.78-22.09,9.97-31.58,0.39
		c-15.25-15.25,2.93-43.51,12.71-63.74c1.76-3.62,2.35-7.72,1.66-11.63c-6.16-35.49-37.05-50.15-70.29-41.35
		c-45.56,11.93-76.55,39.69-92.87,83.39c-4.11,11.05-3.72,21.51,1.17,31.58c3.52,7.33,0.29,16.13-7.23,19.26
		c-222.61,94.05-420.18,244.6-537.6,458.12c-12.42,22.48-27.57,35.19-51.52,26.49c-189.17-69.12-382.06-89.94-578.85-62.67
		c-5.67,0.78-10.75,4.01-13.88,8.9l-31.97,49.66c-1.37,2.15-1.56,4.79-0.39,7.14c41.16,78.6-6.26,144.49-87.11,159.74
		c-21.7,4.11-39.3,6.36-52.79,6.65c-184.58,3.81-318.41,27.86-543.36,62.47c-60.61,9.38-137.45,9.97-187.02-37.35
		c-1.17-1.17-3.13-1.17-4.4,0c-123.86,113.6-200.12,302.28-196.31,469.55c0.2,6.45-5.57,11.34-11.93,10.27
		C609.02,2305.6,433.93,2210.09,352,2058.85c-34.71-64.03-54.55-131.29-59.54-201.78c-8.11-116.73,9.68-233.75,53.48-351.17
		c26.4-70.58,73.42-149.58,114.48-229.06c6.75-12.91,10.36-27.86,11.05-44.97c0.39-9.88-4.3-19.16-12.51-24.64
		c-62.37-41.45-114.09,35.78-148.11,83.98c-69.61,98.64-118.19,206.28-145.86,323.01c-66.38,280.19-7.82,548.84,222.61,730.58
		c111.06,87.59,237.17,127.87,373.45,167.27c7.43,2.15,13.1,8.11,14.76,15.74c6.94,31.97,20.82,61.1,41.65,87.5
		c68.92,87.3,151.73,162.68,254.28,211.85c87.5,41.94,168.74,71.66,243.82,89.06c121.32,28.06,234.04,42.23,338.36,42.72
		c297.1,1.27,583.84-54.75,860.02-168.05c69.71-28.55,143.61-73.23,221.82-134.13c2.74-2.15,6.26-3.13,9.78-2.74
		c9.78,1.08,16.03,7.72,18.87,19.94c0.69,3.03-0.29,6.16-2.44,8.31l-58.27,58.36C2702.9,2741.43,2703.19,2742.6,2704.17,2742.99
		 M1829.29,1544.52c-22,9.68-41.74,11.63-59.24,5.77c-3.23-1.17-5.96-3.42-7.63-6.35c-4.01-7.14-4.5-13.59-1.56-19.36
		c7.72-15.06,44.09-14.27,59.05-26.79c23.56-19.65,27.67-62.57-1.76-79.68c-70.58-40.96-228.57,55.92-295.24,94.93
		c-21.9,12.81-39.5,19.65-52.69,20.43c-131.29,8.21-255.75,45.27-373.35,111.16c-48.59,27.18-105.58,71.56-92.29,137.75
		c8.02,39.69,31.19,61.98,69.51,66.77c29.52,3.62,59.93,3.23,91.21-1.27c166.78-24.15,361.23-58.17,544.64-62.57
		c40.86-1.08,98.84-9.48,117.9-44.58c8.21-14.96,6.55-30.7-4.89-47.12c-8.51-12.22-26.59-12.41-40.18-13.1
		c-8.51-0.49-15.45-6.84-16.62-15.25l-0.88-6.55c-1.37-9.97,5.57-19.26,15.64-20.63l33.53-4.59c1.08-0.1,2.15-0.49,3.03-1.17
		c34.51-23.76,41.45-52.01,20.92-84.96C1836.53,1544.23,1832.61,1543.05,1829.29,1544.52L1829.29,1544.52z"/>
	<path class="st0" d="M3096.69,1258.76c-7.53-7.14-10.07-15.84-7.72-25.91c1.66-6.94,9.58-10.95,17.5-8.7
		c21.41,6.06,42.92,12.61,64.52,19.55c25.71,8.31,36.37,24.64,31.87,48.88c-2.64,14.37-19.06,21.7-32.16,14.27
		c-8.51-4.89-14.76-7.92-18.77-8.99c-4.5-1.27-9.19-1.57-13.78-0.78c-14.96,2.64-26.98,3.91-35.98,3.81
		c-17.89,0-24.15-23.95-8.11-31.09c1.86-0.78,3.13-2.15,4.01-4.01C3099.13,1263.45,3098.64,1260.62,3096.69,1258.76L3096.69,1258.76
		z"/>
	<path class="st0" d="M3425,1790.2c-6.08,8.21-17.72,9.97-25.98,3.88l-95.41-70.6c-8.27-6.12-10.03-17.75-3.88-25.98l3.61-4.87
		c6.08-8.21,17.72-9.97,25.98-3.88l95.41,70.6c8.27,6.12,10.03,17.75,3.88,25.98L3425,1790.2L3425,1790.2z"/>
	<path class="st0" d="M3317.53,2039.78c2.15-3.32,0.39-7.72-3.42-8.9c-22.39-6.55-33.24-22.29-32.75-47.02
		c0.78-36.08,15.64-64.52,44.68-85.35c7.72-5.57,18.38-4.79,25.13,1.95l0.88,0.78c6.55,6.55,6.26,17.21-0.59,23.37
		c-17.4,15.74-41.74,44.97-23.66,68.24c1.96,2.54,5.18,3.81,8.41,3.42l26.49-3.62c1.27-0.2,2.54-0.1,3.72,0.2
		c21.61,6.35,20.63,29.23,3.91,40.77c-17.5,12.22-28.55,29.62-32.95,52.4c-7.04,36.37,21.41,41.35,47.32,27.57
		c28.16-14.96,51.33,31.77,8.51,45.07c-41.74,13-84.76-4.4-95.61-48.39C3292.02,2087.49,3304.63,2060.22,3317.53,2039.78
		L3317.53,2039.78z"/>
	<path class="st0" d="M3444.72,2054.64c-11.93,1.56-21.12-11.34-17.4-24.44c1.86-6.84,4.99-15.35,9.29-25.42
		c1.96-4.59,1.27-9.87-1.76-13.88l-18.48-24.15c-7.23-9.38-3.23-23.17,8.02-27.28l2.35-0.88c11.73-4.4,25.03-0.2,32.07,10.17
		c21.8,32.26,22.88,63.25,3.03,92.97C3456.65,2049.46,3450.88,2053.76,3444.72,2054.64L3444.72,2054.64z"/>
	<path class="st0" d="M3526.65,2174.6c0.39-4.3,4.2-7.43,8.41-7.04l1.66,0.19c20.34,1.96,35,22.19,32.85,45.36l-1.56,16.72
		c-2.15,23.07-20.43,40.28-40.77,38.32l-1.66-0.1c-4.2-0.39-7.33-4.21-6.94-8.41L3526.65,2174.6L3526.65,2174.6z"/>
	<path class="st0" d="M1791.85,2613.26c22.09,68.14-58.46,103.43-114.87,112.33c-114.77,18.28-217.91,15.25-345.59,5.57
		c-82.71-6.26-162.48-24.83-239.42-55.72c-21.61-8.7-43.41-21.9-65.6-39.59c-64.72-51.91-66.48-148.01,9.19-192.69
		c48.2-28.45,105.29-44.68,171.18-48.49c111.35-6.55,210.09-13.2,315.09-42.14c72.83-20.04,142.44-36.17,217.33-38.03
		c43.02-1.08,77.33,16.23,90.82,59.64c10.66,34.31,5.67,64.52-14.96,90.82c-2.35,3.03-3.03,6.94-1.95,10.66
		c3.42,11.14,7.04,21.21,10.66,30.3c12.42,31.38,3.42,61-27.08,88.97C1791.55,2599.47,1789.7,2606.71,1791.85,2613.26
		 M1706.7,2493.11c-6.94-9.58-7.53-18.58-1.56-27.08c1.86-2.64,4.4-4.6,7.43-5.67c18.09-6.55,52.99-9.58,66.48-22.88
		c32.26-31.77,9.48-75.86-35.1-78.6c-108.22-6.55-222.9,48.49-331.71,61.3c-57.97,6.84-123.18,12.41-195.72,16.72
		c-64.13,3.81-235.9,33.73-187.41,136.87c12.42,26.4,48.39,47.02,72.83,58.07c98.35,44.58,197.38,54.65,314.8,60.51
		c101.67,4.99,208.14,6.35,300.42-23.85c14.47-4.69,24.93-14.86,31.38-30.41c1.37-3.13,0.98-6.84-0.98-9.78l-18.09-27.67
		c-7.14-10.95-2.44-25.61,9.68-30.4c24.54-9.68,40.47-13.88,48.1-37.44c2.15-6.75,1.66-12.51-1.37-17.4
		c-17.11-26.88-37.35-19.75-64.91-16.13C1715.5,2499.95,1710.02,2497.61,1706.7,2493.11L1706.7,2493.11z"/>
</g>
</svg>
