<?xml version="1.0" encoding="utf-8"?>
<!-- Generator: Adobe Illustrator 24.2.1, SVG Export Plug-In . SVG Version: 6.00 Build 0)  -->
<svg version="1.1" id="Layer_1" xmlns="http://www.w3.org/2000/svg" xmlns:xlink="http://www.w3.org/1999/xlink" x="0px" y="0px"
	 viewBox="0 0 4000 4000" style="enable-background:new 0 0 4000 4000;" xml:space="preserve">
<style type="text/css">
	.st0{fill:#181412;}
</style>
<g>
	<path class="st0" d="M1822.07,1262.36c27.69,15.37,67.22,9.97,106.76,7.86c14.43-0.82,25.93,11.5,23.23,24.87
		c-0.59,3.4-4.34,7.86-11.26,13.38c-1.76,1.41-3.87,2.23-6.1,2.58l-38.48,5.28c-3.52,0.47-5.75,3.99-4.69,7.39
		c16.31,54.44,28.74,123.77,37.54,207.89c12.79,122.13,17.95,252.47,15.72,391.03c-0.12,3.99,3.64,7.16,7.63,6.22
		c129.05-28.98,259.16-32.5,390.44-10.44c13.73,2.35,23.82,14.2,23.7,28.16v2.23c-0.12,12.67-11.5,22.17-24.05,19.94
		c-210.94-37.89-417.43-0.47-612.18,82.12c-154.16,65.46-254.58,163.07-350.2,294c-4.34,5.87-4.81,13.73-1.41,20.18
		c35.08,65.82,57.72,137.26,68.05,214.58c0.47,3.52,3.87,5.98,7.39,5.16c88.58-20.06,162.96-30.86,223.03-32.26
		c122.36-2.93,271.48,28.16,365.34,109.34c8.56,7.39,9.97,20.18,3.17,29.21l-0.59,0.82c-6.81,8.92-19.12,11.14-28.51,5.16
		c-128.11-82.24-271.48-112.04-430.21-89.4c-41.77,5.98-90.57,15.14-146.42,27.57c-25.81,5.75-37.54-8.21-39.42-33.67
		c-8.09-109.69-45.29-206.6-111.81-290.84c-43.29-55.02-128.93-127.17-201.67-114.86c-3.87,0.7-5.75,5.04-3.76,8.33
		c7.04,11.38,11.5,21.59,13.49,30.5c2.93,13.73-12.55,23.82-23.93,15.6c-24.87-17.95-38.95-48.34-74.26-19.24
		c-3.05,2.58-4.58,6.45-4.11,10.44l4.81,34.26c1.64,12.44-8.33,23.35-20.77,22.76l-13.49-0.59c-4.93-0.24-9.74,1.99-12.55,6.1
		c-16.07,22.88-22.76,44-20.06,63.59c0.7,5.16,3.17,9.97,6.8,13.73c80.48,81.77,128.23,173.05,143.25,273.71
		c12.9,86.11,23.7,152.28,32.38,198.62c1.99,11.03,8.33,24.4,19.01,40.12c2.93,4.34,6.92,7.63,11.61,9.74
		c64.88,28.86,158.73,22.29,202.85,77.78c27.57,34.84,52.79,75.91,75.67,123.42c5.87,12.08-0.82,26.4-13.73,29.8l-0.94,0.23
		c-13.02,3.4-26.75-2.58-32.97-14.43c-27.92-53.26-47.75-88.11-59.36-104.65c-7.86-11.26-26.4-22.29-55.49-32.97
		c-35.08-12.9-85.64-8.68-115.44-24.4c-92.8-49.04-90.45-152.87-102.19-253.29c-7.16-61.12-16.43-104.88-27.8-131.05
		c-24.75-57.14-54.55-101.36-89.4-132.57c-19.59-17.6-31.32-33.2-35.2-46.93c-23.93-86.35,43.53-122.72,68.28-181.14
		c2.11-5.05,5.51-9.62,9.86-13.14c135.15-111.34,290.6-15.37,373.66,104.06c2.35,3.4,7.51,3.29,9.74-0.23
		c34.38-53.38,76.85-104.3,127.64-152.52c3.4-3.17,4.22-8.21,2.23-12.44c-31.68-63.23-48.92-131.4-51.62-204.49
		c-0.35-9.15-7.27-16.66-16.43-17.83c-52.21-6.69-82.12-32.26-89.75-76.96c-4.81-28.28,2.93-48.34,26.98-66.64
		c18.07-13.61,7.04-43.29,14.2-61.59c10.21-25.69,33.09-35.08,68.63-27.92c6.57,1.29,12.91-2.93,14.08-9.5
		c11.61-60.07,88.58-73.56,137.62-53.85c49.74,19.94,87.76,48.22,114.03,84.94c53.62,74.97,95.85,158.97,126.82,251.77
		c1.41,4.34,6.22,6.69,10.56,5.16l57.72-19.83c3.4-1.17,5.63-4.46,5.52-7.98c-0.35-13.85-1.76-69.92-3.99-168.24
		c-3.52-150.87-19.36-297.17-47.4-439.01c-0.7-3.87-4.11-6.69-7.98-6.8c-8.8-0.35-23.82,3.87-34.37,0
		c-41.41-15.37-90.22-23.35-146.53-23.93c-34.26-0.35-61.01-23.35-64.76-61.12c-3.4-34.84-4.46-55.02-3.29-60.54
		c0.82-3.75-1.76-7.51-5.51-8.21c-66.29-12.91-76.73-111.69,1.41-119.78c67.69-7.04,225.61-26.51,473.74-58.31
		c3.52-0.47,6.33-3.17,7.04-6.57l23.58-112.98c0.94-4.34,1.29-8.68,1.06-13.14c0-0.7-5.16-11.03-15.37-31.09
		c-34.96-68.87-41.88-152.28-33.44-244.5c3.75-40.95,21.94-65.58,54.44-74.15c69.92-18.19,158.85-2.82,231.47,18.3
		c3.76,1.17,7.74,0.94,11.38-0.59c7.98-3.4,24.4-11.85,49.16-25.22c120.49-65.11,256.93-101.13,409.1-107.82
		c64.53-2.93,117.79-2.35,159.67,1.64c12.32,1.17,22.06,3.28,29.33,6.34c5.28,2.23,11.5,0.7,15.13-3.76
		c26.4-31.68,60.89-73.21,103.24-124.48c46.69-56.43,152.05-125.65,211.76-47.04c88.11,115.68,101.48,235.93,97.26,379.65
		c-0.12,3.75,1.64,7.39,4.69,9.62c11.85,9.03,19.36,15.49,22.41,19.59c125.41,168.71,178.09,352.19,157.91,550.35
		c-5.04,49.63-24.52,103.94-58.43,162.96c-1.64,3.05-1.88,6.69-0.35,9.85c132.81,283.68,144.42,608.66,66.17,906.06
		c-68.52,260.45-231.71,501.66-432.91,681.51c-238.86,213.64-509.29,362.64-811.15,446.99c-187.83,52.44-345.63,77.08-473.39,73.68
		c-174.57-4.58-377.54-62.18-519.38-178.8c-3.17-2.58-7.63-3.29-11.61-1.88c-44,16.78-144.3,46.46-300.93,89.05
		c-73.09,19.83-156.39,50.92-250.01,93.03c-87.87,39.66-160.61,95.15-217.98,166.36c-46.58,57.84-84.71,105.82-114.39,143.95
		c-32.62,42-101.48,54.55-130.46,1.53c-5.4-9.86-7.27-28.04-5.51-54.67c9.97-155.68,128.11-291.66,254.47-373.78
		c174.22-113.21,400.06-183.37,601.74-232.29c4.22-0.94,6.92-5.16,6.1-9.39l-10.91-61.59c-2.23-12.2,5.51-24.05,17.48-26.98
		l1.17-0.23c12.2-2.58,24.4,4.22,28.74,15.96l32.73,90.1c3.4,9.39-1.88,19.71-11.5,22.41c-83.77,23.58-183.84,52.32-300.1,86.23
		c-92.1,26.87-190.18,68.52-294,125.18c-139.14,75.79-257.4,205.66-281.45,367.33c-1.88,12.79-0.23,22.88,5.05,30.5
		c7.27,10.56,22.29,12.55,32.5,4.22c44.23-35.9,83.88-93.15,166.24-194.16c84.59-103.83,251.53-172.23,393.73-216.69
		c78.49-24.52,209.06-63.59,391.73-117.2c5.87-1.64,12.2-0.35,16.78,3.52c24.52,20.41,37.9,33.91,64.18,49.74
		c145.71,87.87,299.52,132.46,461.3,133.63c124.95,0.94,283.92-27.8,476.67-86.11c227.95-68.98,437.6-176.69,628.84-322.98
		c359.7-275.35,594.93-656.88,588.24-1120.88c-2.23-156.74-23.46-305.38-80.83-454.03c-8.56-22.17-20.06-42.12-34.49-59.95
		c-4.69-5.75-5.63-13.84-2.46-20.65l48.45-103.48c1.53-3.4,2.82-6.8,3.64-10.44c45.64-191-10.09-394.43-119.67-553.75
		c-1.29-1.99-3.76-6.22-7.16-12.55c-5.75-11.03-14.9-13.61-27.34-7.86c-7.51,3.52-16.19-1.88-16.43-10.21
		c-0.35-13.96-1.06-57.49-2.35-130.34c-1.64-95.15-31.09-183.49-88.22-265.14c-21-29.92-46.81-34.73-77.2-14.43
		c-27.1,17.95-51.97,40.01-74.85,66.17c-41.18,47.04-87.4,103.83-138.67,170.11c-5.51,7.04-15.13,9.39-23.35,5.63l-5.04-2.35
		c-5.75-2.7-7.86-9.97-4.46-15.37c5.51-8.56,8.68-15.6,9.5-20.88c0.59-4.11-2.23-7.86-6.34-8.21
		c-288.49-25.93-686.91,66.76-799.18,376.83c-6.69,18.54-15.84,43.17-27.45,74.03c-36.25,95.85-31.91,216.34,16.07,312.07
		c14.67,29.1,28.98,56.43,43.17,81.89c2.46,4.46,7.04,7.51,12.08,8.21c39.54,4.93,89.75,10.91,150.64,17.83
		c90.34,10.32,204.61,6.1,285.44,13.37c199.44,18.07,380.47,87.52,499.67,246.25c28.63,38.13,59.6,97.85,92.92,179.38
		c5.87,14.31,2.58,30.86-8.45,41.77l-2.7,2.7c-7.98,7.86-21.35,4.81-24.99-5.75c-21.94-63-46.93-117.09-74.97-162.02
		c-108.64-174.1-306.44-244.38-502.13-256.7c-73.79-4.69-180.2-1.06-271.01-13.61c-38.36-5.28-80.25-10.44-125.77-15.6
		c-16.19-1.76-31.09,9.15-34.26,25.11l-7.04,35.9c-3.4,17.25,7.39,34.14,24.52,38.13c5.51,1.29,22.06,5.4,49.63,12.32
		c12.32,3.05,19.94,15.25,16.89,26.98c-4.93,18.66-24.17,16.89-43.29,17.6c-10.56,0.47-19.71,7.63-22.76,17.83
		c-11.03,38.01-0.35,62.18,37.31,58.89c10.68-0.94,18.07-1.41,22.41-1.41c16.31-0.12,25.58,18.54,15.6,31.44l-14.31,18.42
		c-2.7,3.4-4.22,7.63-4.34,11.97c-2.46,69.45,48.1,77.67,106.64,68.28c69.92-11.15,153.57-8.68,251.06,7.39
		c175.63,28.98,257.28,160.38,257.99,328.5c0,11.5-7.98,21.35-19.12,23.93l-1.06,0.23c-10.79,2.35-21-5.63-21.35-16.66
		c-1.41-48.69-12.32-97.26-32.85-145.83c-71.1-168.12-270.54-167.06-423.41-152.63c-87.87,8.33-164.84-5.87-162.84-108.99
		c0.23-8.56-4.11-16.66-11.38-21.23c-23.7-15.02-42.59-30.5-47.75-60.19c-5.87-33.2-2.82-59.95,9.03-80.25
		c2.11-3.52,1.17-8.1-2.23-10.56c-52.44-37.89-30.5-90.34-11.03-139.02c3.05-7.51,2.11-16.07-2.46-22.88
		c-55.84-82.71-85.53-160.61-89.28-262.45c-0.12-3.87-3.52-6.8-7.39-6.45c-54.32,5.51-184.08,21.94-389.27,49.39
		c-13.73,1.88-37.07,3.64-70.04,5.16c-14.9,0.59-22.53,6.22-23.11,16.89c-0.35,4.81,3.4,9.03,8.21,9.27l50.56,2.35
		c2.23,0.12,4.34,0.82,5.98,2.23c10.68,8.45,9.74,22.29-2.93,41.42c-4.34,6.57-0.59,15.37,7.04,16.89l28.74,5.63
		c3.87,0.82,7.27,3.17,9.5,6.57c5.28,8.33,5.98,18.3,2.11,30.03c-1.29,3.75-4.81,6.22-8.8,5.98l-29.68-1.29
		c-8.57-0.47-12.32,10.56-5.4,15.6c24.17,17.24,63.59,3.4,93.74,3.87c4.93,0.12,9.5,2.11,12.91,5.63
		c15.72,16.07,34.26,27.8,54.79,14.31c3.52-2.35,2.11-7.74-2.11-8.1l-33.32-2.93c-4.69-0.47-8.68-3.52-10.21-7.98
		c-2.23-6.8,1.64-18.65-3.99-25.69c-9.85-12.32-23.7-6.45-31.44-26.75c-4.22-11.26,4.11-24.17,17.95-27.92
		c31.09-8.33,51.15,3.64,60.19,35.78c1.76,6.1,7.16,10.44,13.49,10.68l44.47,1.99c9.74,0.47,17.83,7.86,19.12,17.48l0.7,4.81
		c1.17,8.45-4.69,16.31-13.14,17.48l-44.46,6.1C1821.72,1261.06,1821.48,1262,1822.07,1262.36 M2290.88,562.89
		c-59.25-15.95-115.68-21.47-169.06-16.66c-15.49,1.41-27.92,13.14-30.27,28.51c-11.61,74.61-2.58,150.29,26.87,226.9
		c1.29,3.29,5.98,3.17,7.16-0.12c33.55-94.21,89.16-171.05,166.95-230.54C2295.57,568.64,2294.63,563.95,2290.88,562.89
		 M1779.95,1972.26c-28.27-82.59-63.24-157.44-105-224.67c-26.87-43.06-74.38-81.89-119.2-88.93c-40.83-6.45-63.24,12.2-67.11,56.2
		c-0.47,5.51-5.51,9.5-11.03,8.8c-21.94-2.93-45.17-2.11-69.69,2.7c-6.57,1.29-9.74,8.92-5.98,14.43
		c14.55,21.59,38.83,46.11,13.14,71.21c-2.81,2.7-6.8,3.87-10.56,3.05c-7.63-1.64-12.79-3.05-15.6-4.34
		c-11.62-5.28-23.82,6.1-20.41,18.89c9.97,36.96,41.06,40.59,74.15,39.42c4.34-0.12,8.45,1.41,11.61,4.34
		c25.58,24.05,29.1,96.55,37.78,154.28c2.11,14.43,11.5,41.42,28.16,81.07c1.41,3.28,5.4,4.34,8.21,2.23
		c74.62-55.96,156.97-99.25,247.08-129.76C1779.13,1980,1781.12,1975.9,1779.95,1972.26L1779.95,1972.26z"/>
	<path class="st0" d="M2963.83,767.57c-2,13.07-14.32,22.11-27.45,20.09l-99.01-15.33c-13.16-2.01-22.07-14.33-20.09-27.45
		l0.36-2.32c2-13.07,14.32-22.11,27.45-20.09l99.01,15.33c13.16,2.01,22.07,14.33,20.09,27.45L2963.83,767.57L2963.83,767.57z"/>
	<path class="st0" d="M2421.57,759.87l0.12,1.64c0.35,11.61-9.15,21.23-20.77,21c-26.16-0.35-47.05,6.22-62.65,19.94
		c-11.15,9.97-28.16,9.39-38.72-1.17l-2.82-2.82c-9.86-9.85-8.21-26.28,3.29-34.14c34.84-23.7,68.04-33.32,99.84-28.74
		C2412.07,737.23,2421.22,747.55,2421.57,759.87L2421.57,759.87z"/>
	<path class="st0" d="M2557.43,947.23c-3.17-4.34-9.62-4.58-13.14-0.59c-44.35,50.33-134.57,69.34-168.71-1.17
		c-5.98-12.32-6.1-23.7-0.59-34.26c5.51-10.44,20.53-10.79,27.69-0.59c9.97,14.2,19.36,24.29,27.92,30.27
		c3.99,2.7,8.68,4.22,13.49,4.22c64.76,0.12,96.44-34.26,95.03-103.24c-0.12-3.52-1.88-6.8-4.93-8.68
		c-7.16-4.46-11.38-7.74-12.91-9.86c-8.33-11.97-0.7-28.63,14.31-31.21c22.64-4.11,49.27-7.51,79.78-10.21
		c10.68-0.94,20.3,6.69,21.7,17.36l0.7,4.34c1.29,7.86-3.52,15.6-11.26,17.83l-34.02,10.09c-3.64,1.06-6.22,4.46-6.22,8.33
		c-0.59,38.48,2,62.53,7.74,72.27c18.65,31.09,46.34,42,83.3,32.73c10.32-2.7,26.51-14.31,48.69-34.96
		c7.51-6.92,19.24-5.98,25.34,2.11l0.59,0.7c6.69,8.92,6.33,21.35-0.94,29.92C2695.99,1007.65,2610.46,1019.38,2557.43,947.23
		L2557.43,947.23z"/>
	<path class="st0" d="M3159.4,905.94l0.24-5.28c0.47-9.62,7.39-17.72,16.89-19.83c71.68-15.6,137.15-25.69,196.16-30.39
		c20.53-1.64,72.62-4.81,70.75,24.64c-0.7,11.5-10.32,20.06-20.88,18.54c-26.75-3.87-51.27-3.64-73.56,0.7
		c-53.15,10.56-108.99,21-167.3,31.21C3169.72,927.64,3158.81,918.14,3159.4,905.94L3159.4,905.94z"/>
	<path class="st0" d="M3382.66,1072.65c-48.1-24.99-105.35-40.36-171.76-46.34c-12.08-1.06-21.24-10.32-23.23-20.77
		c-1.88-10.21,5.28-20.06,15.84-21.7c64.53-9.5,134.68,14.78,199.56,42.7c12.79,5.51,18.42,20.53,12.32,33.08l-1.29,2.58
		C3408.35,1073.94,3394.16,1078.63,3382.66,1072.65L3382.66,1072.65z"/>
</g>
</svg>
