<svg version="1.1" id="Layer_1" xmlns="http://www.w3.org/2000/svg" xmlns:xlink="http://www.w3.org/1999/xlink" x="0px" y="0px" viewBox="0 0 100 100" style="enable-background:new 0 0 4000 4000;" xml:space="preserve"><style type="text/css">
	.st0{fill:#181412;}
</style><g transform="translate(18.772677820913646, 1) scale(0.028057397418719432) translate(-903.45, -250.36000000000075)"><path class="st0" d="M903.45,3176.95v-299.5c18.84-10.2,36.58-16.74,53.09-19.62c121.82-20.95,208.49,23.39,260.04,133.01
		c30.26,64.4,44.89,118.82,43.67,163.16c-0.11,4.21-0.78,8.31-1.77,12.41c-17.29,67.17-24.39,113.06-21.28,137.67
		c12.3,98.09,97.54,102.31,175.02,74.15c61.63-22.28,129.91-39.57,204.73-52.1c7.2-1.22,11.08-9.2,7.43-15.52
		c-149.97-261.48-168.37-533.15-54.98-815.02c25.16-62.63,52.65-124.7,82.69-186.22c1.11-2.44,2.55-3.99,4.32-4.65
		c2.88-1.11,6.1,0.89,6.43,3.99c4.99,47.99,15.96,109.51,32.7,184.33c21.28,94.99,47.55,208.05,78.81,339.18
		c38.57,161.94,89.89,322.99,171.69,463.21c1,1.77,3.33,2.33,5.1,1.33l2.44-1.33c0.33-0.22,0.55-0.67,0.33-1
		c-32.14-79.25-57.08-151.74-74.82-217.69c-65.84-244.19-117.83-463.99-157.51-694.87c-34.36-199.29-28.15-396.82,13.08-594
		c18.95-90.34,41.01-181.89,66.17-274.56c4.43-16.18,9.87-26.82,16.29-32.03c2.33-1.88,4.88-3.55,7.43-4.99
		c62.74-35.14,124.7-50.54,234.65-86.57c1.11-0.33,1.66-1.44,1.44-2.55v-0.11c-0.33-1.22-1.44-1.88-2.66-1.66
		c-78.14,14.08-123.59,23.06-136.11,26.71c-154.74,45.89-251.28,74.26-289.52,85.13c-21.73,6.1-41.79,9.42-60.19,9.75
		c-7.43,0.11-10.31-9.64-3.99-13.52c36.47-22.28,73.93-40.12,112.39-53.65c103.19-36.47,200.62-63.62,292.51-81.69
		c1.88-0.33,3.1-2.22,2.88-4.1v-0.11c-0.22-2-2-3.44-3.88-3.33c-29.71,2.33-61.52,3.88-95.55,4.66
		c-25.16,0.55-56.64,3.99-94.66,10.2c-95.43,15.52-181.78,27.04-259.26,34.58c-5.54,0.55-9.75-4.66-8.09-9.87
		c0.66-2.22,2.44-3.88,5.43-4.99c90.78-34.69,187.43-51.65,289.85-50.99c83.24,0.55,146.31,1.55,188.99,2.88
		c9.2,0.22,24.5-1.99,45.78-6.54c1.77-0.44,2.99-2.11,2.77-3.88c-0.22-1.88-1.66-3.21-3.55-3.21H1803.6
		c-6.32,0-12.19-2.88-16.07-7.87c-84.24-109.4-130.9-251.83-119.49-390.72c0.22-3.66-2.22-7.09-5.76-7.87
		c-39.68-9.31-54.42-31.7-56.75-70.94c-3.33-53.2,29.48-67.06,70.16-85.24c3.77-1.77,6.1-5.65,5.87-9.75
		c-6.76-130.02,1.44-257.49,24.83-382.41c5.99-31.81,15.63-61.07,28.82-87.57c3.1-6.43,9.53-10.75,16.63-11.19
		c52.32-3.77,109.73,31.37,149.42,62.85c85.13,67.5,157.06,146.09,215.7,235.76c2,3.1,5.54,4.77,9.2,4.32
		c112.73-14.08,224.46-12.97,335.19,3.1c3.66,0.55,7.32-1.11,9.42-4.21c58.64-87.01,250.17-321.33,369.77-299.72
		c10.09,1.88,18.4,8.87,22.06,18.4c15.96,41.9,27.27,84.57,33.81,127.91c17.18,113.06,23.28,225.45,18.18,337.07
		c-0.22,4.32,2.66,8.2,6.87,9.2c25.16,6.43,46.11,19.51,62.96,39.24c2.66,3.1,4.43,6.87,5.21,10.86
		c10.09,54.2-9.2,88.78-57.86,103.75c-3.66,1.11-5.99,4.66-5.65,8.42c12.08,139.99-23.5,268.35-106.74,384.84
		c-3.1,4.32-8.09,6.98-13.52,7.2l-249.17,7.76c-0.89,0-1.22,1.11-0.55,1.66c8.2,6.54,22.61,9.53,43.34,8.98
		c164.05-4.32,318.01-12.08,471.08,49.55c5.1,2,5.32,9.09,0.44,11.53c-2.88,1.44-6.65,1.88-11.42,1.22
		c-168.92-23.17-304.71-39.24-407.46-48.33c-11.08-1-20.73-0.44-29.04,1.55c-2.33,0.55-2.33,3.88,0,4.43
		c111.84,26.49,217.92,58.86,318.23,97.21c35.36,13.52,62.74,27.16,82.13,40.9c7.87,5.54,2.33,17.96-7.09,15.74
		c-78.37-18.4-143.43-35.91-194.97-52.54c-92.33-29.82-184.11-52.76-275.22-68.83c-0.67-0.11-1.33,0.33-1.55,1
		c-0.11,0.67,0.22,1.44,0.89,1.66l226.45,89.67c8.87,3.55,15.52,11.2,17.73,20.4c19.51,81.25,39.68,175.91,60.52,284.2
		c36.36,189.1,43.12,367.11,16.07,547.89c-42.45,284.31-113.39,566.63-184.89,829.76c-6.87,25.38-24.27,78.48-52.21,159.39
		c-0.55,1.77,0.33,3.66,2,4.32l2.55,1c0.55,0.22,1.11,0,1.33-0.44c74.04-145.65,123.48-291.74,163.05-451.79
		c49.99-202.62,91.44-396.7,124.48-582.25c0.44-2.22,3.33-2.66,4.32-0.67c59.52,115.28,104.86,230.88,136,346.71
		c66.51,247.73,5.21,508.1-132.68,720.58c-1.44,2.22-0.22,5.21,2.33,5.88c56.42,13.63,108.18,30.81,142.76,84.13
		c25.6,39.35,28.04,79.25,7.54,119.6c-19.07,37.35-68.17,45.78-109.4,45.56c-135.12-1-253.16,0.55-354.03,4.43
		c-3.44,0.11-6.1,2.77-6.32,6.1c-5.99,110.95-150.97,116.38-228.45,90.89c-51.76-16.96-63.51-96.32-70.05-150.86
		c-4.77-39.13-9.75-78.14-15.18-116.83c-0.33-2.44-2.33-4.21-4.77-4.21c-2.44,0-4.43,1.77-4.77,4.21
		c-10.09,74.71-14.52,151.96-40.35,218.8c-21.39,55.2-65.4,61.19-120.93,61.52c-67.06,0.44-154.07-24.83-145.09-109.51
		c0.44-4.21-2.99-7.76-7.21-7.43c-109.07,6.98-197.85,11.31-266.35,12.86c-19.29,0.44-70.83-6.65-87.57-24.5
		c-14.19-15.18-18.73-47.88-8.98-67.28c3.66-7.2,5.99-13.74,6.98-19.51c0.67-3.55-2.66-6.43-6.1-5.43
		c-61.63,17.96-138.33,39.46-230,64.4c-79.25,21.61-167.82,23.17-237.65-28.82c-127.91-95.21-101.09-223.46-77.26-360.57
		c4.77-27.38,11.86-104.08-24.05-116.05c-30.15-10.09-57.75-3.21-82.69,20.39c-15.19,14.41-25.72,28.49-31.37,42.23
		C923.95,3148.79,914.64,3164.09,903.45,3176.95 M2299.39,945.81c16.29,0.11,28.26,9.53,36.13,28.27
		c52.98,126.69,81.36,248.73,249.84,252.5c69.83,1.55,127.91-1.88,185.33-37.91c99.54-62.29,103.08-186.66,126.8-271.34
		c1.11-3.77,2.99-7.32,5.54-10.2c0.11-0.11,7.98-5.65,23.72-16.63c20.62-14.3,44.23-57.19,24.5-79.92
		c-5.43-6.21-20.17-11.2-44.34-15.07c-185-29.37-345.94-0.55-519.96,57.75c-48.88,16.29-105.3,24.05-145.42,7.76
		c-176.13-71.49-356.91-94.1-542.35-67.61c-23.28,3.44-50.99,8.76-57.64,32.92c-11.53,41.57,40.68,66.39,55.42,93.33
		c6.32,11.42,13.97,41.57,23.06,90.34c6.43,34.58,18.51,68.61,36.36,102.2c55.42,103.86,162.72,122.37,276.88,111.84
		c153.41-14.08,187.66-128.69,233.88-254.27C2272.46,955.34,2285.32,945.69,2299.39,945.81L2299.39,945.81z"/><path class="st0" d="M2203.63,920.2c-5.87,53.32-21.73,107.18-47.55,161.39c-30.81,64.51-76.15,92.44-147.97,97.76
		c-34.25,2.55-57.64,3.66-69.94,3.1c-140.1-6.32-172.69-160.17-149.64-270.12c14.08-67.61,97.65-77.92,154.07-72.38
		c83.02,8.09,179.23,22.61,253.94,66.06C2201.41,908.9,2204.18,914.44,2203.63,920.2L2203.63,920.2z"/><path class="st0" d="M2398.16,925.08c0.22-8.09,4.99-15.3,12.19-18.73c96.32-45.78,199.07-67.61,308.03-65.73
		c86.01,1.55,109.84,53.54,101.53,132.68c-11.31,107.52-42.12,209.38-173.25,208.38c-29.37-0.22-52.1-0.89-68.28-2
		C2455.02,1171.48,2394.94,1033.04,2398.16,925.08L2398.16,925.08z"/></g></svg>