<?xml version="1.0" encoding="utf-8"?>
<!-- Generator: Adobe Illustrator 24.2.1, SVG Export Plug-In . SVG Version: 6.00 Build 0)  -->
<svg version="1.1" id="Layer_1" xmlns="http://www.w3.org/2000/svg" xmlns:xlink="http://www.w3.org/1999/xlink" x="0px" y="0px"
	 viewBox="0 0 4000 4000" style="enable-background:new 0 0 4000 4000;" xml:space="preserve">
<style type="text/css">
	.st0{fill:#181412;}
</style>
<g>
	<path class="st0" d="M868.55,2689.14c-241.46-7.48-485.8-156.13-566.39-394.43c-1.3-3.88-5.76-5.75-9.5-3.88l-138.29,69.5
		c-14.68,7.48-32.67,0.43-38.42-15.11l-0.14-0.29c-6.33-16.11,0.86-34.53,16.4-42.02l135.12-65.04c5.47-2.59,8.2-8.78,6.48-14.53
		l-14.1-47.34c-0.86-3.31-4.6-5.04-7.77-3.74l-105.19,44.03c-18.56,7.77-40,0.58-50.08-16.83l-1.3-2.3
		c-7.77-13.38-1.58-30.51,12.81-35.97l136.85-51.8c4.03-1.44,6.33-5.76,5.61-10.07c-25.76-146.78,8.63-299.6,61.45-444.07
		c2.59-6.91,2.01-14.53-1.44-20.86c-44.61-83.32-63.03-170.95-55.26-263.05c5.61-66.77,36.26-115.7,108.79-81.3
		c37.7,17.99,97.28,43.89,178.87,77.71c15.68,6.47,33.67,3.74,46.62-7.34c130.09-111.23,276.86-172.1,440.33-182.32
		c7.48-0.57,13.81-5.9,15.54-13.24c2.73-12.66,7.63-24.75,14.53-36.41c115.98-193.4,327.08-335.43,536.31-410.26
		c330.97-118.57,715.47-144.62,1052.63-83.32c138,25.04,273.41,67.92,406.23,128.65c559.62,255.85,878.22,790.87,851.17,1403.02
		c-16.12,364.93-176.13,675.03-461.77,903.4c-546.53,436.74-1335.24,399.18-1927.25,105.91
		c-139.01-68.93-275.28-183.33-341.47-331.11c-1.87-4.32-6.91-6.48-11.37-4.75c-47.49,18.28-94.54,23.46-141.17,15.25
		c-10.94-1.87-21.44-6.33-30.36-12.81c-52.67-38.42-86.2-65.04-100.73-80.15c-11.22-11.8-16.55-33.53-16.12-65.04
		C876.32,2692.89,872.87,2689.29,868.55,2689.14 M1485.59,2378.18c0.86-1.44,0-3.31-1.73-3.45l-222.9-24.32
		c-13.81-1.58-21.15-17.13-13.67-28.78l3.6-5.61c10.5-16.26,29.93-24.61,48.93-20.87l183.04,36.12c4.6,0.86,8.78,3.45,11.66,7.2
		l4.75,6.19c3.6,4.75,10.79,4.89,14.68,0.29c123.32-147.64,278.45-258.3,465.23-331.83c10.65-4.17,17.41-14.68,17.12-26.04
		c-1.01-34.97,3.6-70.37,13.96-106.2c53.67-185.2,204.19-420.62,412.27-457.17c7.48-1.29,14.97,1.73,19.57,7.77l8.63,11.22
		c9.93,12.95,3.45,31.8-12.38,35.97c-212.97,55.55-354.71,291.83-386.37,496.02c-0.58,4.03,3.17,7.48,7.05,6.48
		c145.91-35.83,291.54-70.22,436.16-53.39c12.95,1.44,21.87,8.49,26.62,21.01c7.34,19.14-8.35,39-27.77,35.4
		c-1.73-0.43-5.32-1.44-10.65-3.17c-4.46-1.44-9.21-2.16-13.96-2.01c-382.49,6.91-775.62,180.16-988.73,505.95
		c-3.31,5.18-1.15,12.09,4.46,14.25c97.71,39.57,194.98,89.5,291.97,149.94c13.24,8.35,19.14,24.61,14.39,39.43l-0.43,1.01
		c-4.32,13.24-19.57,19.28-31.8,12.52c-40.87-22.59-97.85-53.67-171.1-93.39c-184.33-100.01-532.28-210.81-663.38,24.61
		c-2.88,5.18,3.45,10.5,8.06,6.76c28.06-23.45,57.27-38.28,87.92-44.32c18.85-3.74,34.82,13.96,28.92,32.09
		c-5.76,17.56-53.24,45.33-102.17,77.85c-9.93,6.62-9.78,21.15,0.14,27.49l13.09,8.49c9.07,5.9,20.87,5.9,29.93,0.14
		c23.89-15.11,56.7-35.25,81.16-13.24c6.76,6.04,6.33,16.69-0.86,22.31l-44.46,33.96c-3.45,2.59-2.59,8.06,1.44,9.5
		c50.36,18.13,102.02-11.22,151.81-0.58c4.46,1.01,8.92-1.29,10.65-5.47c43.75-102.74,271.97-42.59,346.08-13.1
		c71.81,28.49,153.4,64.75,244.92,108.65c70.8,34.1,150.95,55.11,216.42,67.06c160.3,29.21,326.65,36.69,499.19,22.45
		c154.98-12.81,300.03-50.08,435.3-111.95c176.56-80.73,323.49-199.16,440.62-355.58c8.78-11.65,20.87-13.38,36.26-5.04
		c12.38,6.62,17.84,21.01,12.66,32.95c-8.78,20.14-21.73,40.58-38.85,61.16c-195.99,237.15-486.96,386.51-790.3,428.39
		c-221.46,30.65-433.57,24.89-636.47-17.27c-143.9-29.79-306.36-116.41-386.66-151.96c-39.57-17.56-98.14-35.69-175.56-54.54
		c-44.03-10.65-88.64-9.5-133.68,3.6c-12.66,3.6-19.43,17.27-14.97,29.5c57.99,159.3,251.68,280.31,412.99,347.08
		c292.12,121.02,595.74,172.54,910.88,154.26c522.93-30.22,1052.91-328.81,1219.84-847.42c35.11-109.36,53.24-230.38,54.25-363.06
		c2.73-348.24-97.28-650.28-300.03-905.99c-106.34-134.11-234.27-243.48-383.78-328.09c-154.69-87.64-312.41-147.79-473.14-180.74
		c-333.99-68.21-666.4-53.53-997.51,44.18c-233.4,68.93-455.59,204.62-582.22,412.41c-2.59,4.17,0.58,9.64,5.47,9.64
		c207.07,1.01,379.46,74.97,517.32,221.75c102.6,109.08,189.95,253.98,262.04,434.86c5.9,14.82-1.73,31.8-16.98,36.98l-2.45,0.86
		c-16.4,5.76-34.25-2.74-40.44-18.99c-90.51-237.29-238.01-481.78-480.62-571.28c-202.32-74.68-402.92-62.88-601.79,35.69
		c-23.74,11.66-83.75,50.08-180.16,115.26c-2.16,1.29-4.89,1.58-7.2,0.72l-223.33-90.66c-10.65-4.32-22.59,1.73-25.47,12.81
		c-19.28,72.67,14.97,210.53,55.55,282.04c5.18,9.07,5.76,20.15,1.73,29.79c-65.19,153.83-83.17,307.51-54.25,461.05
		c49.21,260.46,201.32,433.57,462.21,489.11c44.18,9.35,69.94,15.83,77.42,19.43c3.6,1.73,8.06,0.14,9.79-3.6
		c27.63-60.87,70.51-110.08,128.5-147.64c115.98-75.4,302.62-50.65,426.37-9.5c1.73,0.58,3.74-0.14,4.75-1.73L1485.59,2378.18
		L1485.59,2378.18z"/>
	<path class="st0" d="M1175.2,1663.57l-0.72-0.29c-9.07-5.18-11.8-16.84-6.04-25.33c61.16-92.53,123.47-163.9,186.93-213.98
		c132.39-104.61,172.68,69.07,187.5,156.99c6.04,35.26,5.9,66.34-0.29,93.25c-6.19,26.76-44.75,24.89-48.35-2.3
		c-11.22-86.05-13.24-152.1-48.93-206.07c-7.48-11.22-22.3-14.68-33.96-7.77c-76.12,44.61-151.81,141.45-206.21,200.74
		C1197.5,1667.17,1185.13,1669.18,1175.2,1663.57L1175.2,1663.57z"/>
	<path class="st0" d="M530.38,2013.71c5.47,18.54-25.61,43.86-69.33,56.7c-43.77,12.77-83.49,8.17-88.95-10.42
		c-5.47-18.54,25.61-43.86,69.33-56.7C485.2,1990.51,524.92,1995.12,530.38,2013.71L530.38,2013.71z"/>
	<path class="st0" d="M1115.69,2107.61c-3.37,15-18.34,24.5-33.41,21.04l-101.31-23.02c-15-3.45-24.49-18.42-21.04-33.41l0.51-2.25
		c3.37-15,18.34-24.5,33.41-21.04l101.31,23.02c15,3.45,24.49,18.42,21.04,33.41L1115.69,2107.61L1115.69,2107.61z"/>
	<path class="st0" d="M752.28,2141.32c5.04,52.24-7.91,108.64,52.96,138.58c14.53,7.2,31.08,5.47,41.87-4.32
		c14.68-13.38,28.92-23.31,42.88-29.79c13.81-6.48,30.22,1.29,33.82,16.12l0.29,1.15c4.17,16.69-2.45,34.25-16.69,44.18
		c-69.22,47.92-129.51,41.44-180.88-19.43c-3.45-4.17-9.64-4.89-13.96-1.73l-19.43,13.96c-1.87,1.29-3.74,2.45-5.9,3.17
		c-65.47,25.04-118.29,13.96-158.29-33.39c-8.78-10.36-10.36-20.14-4.75-29.35c8.63-14.25,27.05-18.71,40.58-10.07
		c6.48,4.17,15.97,11.08,28.35,20.58c3.6,2.59,7.77,4.46,12.23,5.32c67.34,13.09,99.43-50.51,94.97-109.08
		c-0.43-5.04-4.03-9.35-8.92-10.5c-19.43-4.75-29.93-14.68-31.51-29.79c-1.58-14.97,9.64-28.49,24.89-29.79
		c39-3.31,78.71-4.17,119-2.3c12.95,0.57,22.16,12.23,19.43,24.17c-6.62,28.64-30.51,29.64-62.16,31.95
		C755.73,2131.25,751.85,2136,752.28,2141.32L752.28,2141.32z"/>
	<path class="st0" d="M1541.33,2234.13c0.38,13.25-10.13,24.33-23.39,24.65l-249.15,6.52c-13.3,0.35-24.23-10.16-24.65-23.39
		l-0.21-8.06c-0.38-13.24,10.13-24.33,23.39-24.65l249.15-6.53c13.3-0.34,24.23,10.16,24.65,23.39L1541.33,2234.13L1541.33,2234.13z
		"/>
</g>
</svg>
