<svg xmlns="http://www.w3.org/2000/svg" viewBox="0 0 100 100"><g transform="translate(8.356011204494813, 1) scale(1.2062336179266135) translate(0.2637084973226145, 0.25)"><path d="M45.51,44.19c-.75.79-1.47,1.5-2.11,2.28-.16.19-.07.59-.1.89.36,0,.78.16,1.07,0s.54-.54.79-.84.7-.86,1.13-1.39a3.42,3.42,0,0,0,3.43,1.35,5.72,5.72,0,0,0,3.39-2c1.51,1.75,3.28,3.2,4.23,5.33,1.52-1.09,2.92-2.11,4.35-3.1a4.77,4.77,0,0,1,2.45-1,1.48,1.48,0,0,1,1.61.9,6.62,6.62,0,0,1,.4,4.73,2.33,2.33,0,0,1-2,1.81C62,53.47,60.53,54.82,59,56.1S56.19,58.67,54.72,60a7.08,7.08,0,0,1-.41-1.33c-.27-2.63-1.82-4.63-3.23-6.7a.69.69,0,0,0-.11-.13,10.64,10.64,0,0,0-6.54-2.64,8.76,8.76,0,0,0-7.73,3.93c-.81,1.26-1.4,2.66-2.12,4a3,3,0,0,0-.17,1.76c.74,0,.86-.42,1-.87a17,17,0,0,1,2.09-4.18A7.61,7.61,0,0,1,43,50.52a8.47,8.47,0,0,1,5.31,1,5.29,5.29,0,0,1,2.24,1.93c1.11,1.74,2.4,3.38,2.75,5.49a19.37,19.37,0,0,1,.24,2.15c0,.52,0,1,.71,1.28a4.87,4.87,0,0,0,.47-.34c1.47-1.46,3-2.9,4.38-4.4a15.24,15.24,0,0,1,3.54-2.53,3.09,3.09,0,0,1,2.41-.37,5.91,5.91,0,0,1-.64,6.71c-1.19,1.34-2.55,2.53-3.83,3.79-.91.9-1.81,1.82-2.75,2.7s-1.9,1.74-3,2.77c1,.28,1.84.54,2.68.72,2.28.49,4.6.87,6.86,1.44C66.17,73.28,68,74,68.51,76a7.42,7.42,0,0,1,.14,2.82,2.5,2.5,0,0,1-2.55,2,20.46,20.46,0,0,1-6.34-.47c-2.23-.5-4.47-1-6.72-1.41a21.07,21.07,0,0,0-6.68-.31c-1.88.28-3.8.28-5.69.48-2.55.28-5.09.66-7.65.92a24.89,24.89,0,0,1-3.86.08c-1.67-.1-3.34-.33-5-.55a17,17,0,0,1-2.46-.48,18.42,18.42,0,0,0-3.76-.67,7.49,7.49,0,0,1-5.06-2.32,55.09,55.09,0,0,1-4.51-5.84c-.86-1.17-1.7-2.36-2.5-3.58a37.1,37.1,0,0,1-4.59-10,27.64,27.64,0,0,1-1-11.94,60.53,60.53,0,0,1,3.09-13,35,35,0,0,1,8-12.3c1.34-1.34,2.48-2.88,3.74-4.29,1-1.13,2-2.27,3.12-3.29a1.78,1.78,0,0,0,.7-1.58,21.37,21.37,0,0,1,.91-8.1A5,5,0,0,0,19.89,1c.09-.95.5-1.25,1.3-.87a17.68,17.68,0,0,1,5.53,3.41,2.06,2.06,0,0,0,.51.28,7.46,7.46,0,0,1,5.48-.55,5.42,5.42,0,0,0,1.34,0,13.83,13.83,0,0,1,5.25.91c.83.33,1.71.53,2.43.75,1.47-.8,2.83-1.56,4.21-2.29a7.72,7.72,0,0,1,1.4-.56c1.59-.47,2.12,0,2.2,1.67a13.46,13.46,0,0,1-1,6.39c-.49,1.09-.09,2.31.11,3.43a12.43,12.43,0,0,1-1.8,9.62,10.52,10.52,0,0,0-1.29,3.93,1.5,1.5,0,0,0,.39,1c.53.72,1.14,1.38,1.7,2.08A22.32,22.32,0,0,1,52,38.76a9.56,9.56,0,0,1,.13,3.16,3,3,0,0,1-1.7,2.54,2.39,2.39,0,0,1-3.4-.64,18.45,18.45,0,0,1-1.17-2,35.14,35.14,0,0,0-2.06-3.44,3.15,3.15,0,0,0-3.06-1.57c.05.33,0,.75.14.79,2,.61,2.52,2.42,3.39,3.93C44.76,42.32,45.07,43.22,45.51,44.19ZM22.84,38.51l1.45,1.28a16.11,16.11,0,0,1,4.34,5.26c.65,1.36,1.34,2.7,2.11,4A2.86,2.86,0,0,0,35.87,49a9.09,9.09,0,0,0,1-5,20.6,20.6,0,0,0-2.24-7.29,3.06,3.06,0,0,0-.81-1,.74.74,0,0,0-.71,0c-.17.12-.22.45-.25.7a.83.83,0,0,0,.18.46c1.35,2,1.8,4.4,2.44,6.71A6.4,6.4,0,0,1,35,47.73a3,3,0,0,1-.9,1.16,1.41,1.41,0,0,1-2.15-.4c-.34-.51-.62-1.06-.91-1.6-.83-1.51-1.6-3.06-2.51-4.53a12.74,12.74,0,0,0-3.81-4C24.19,38,23.62,37.62,22.84,38.51Zm4.67-20.57a3.29,3.29,0,0,0,3-3.17,3.67,3.67,0,0,0-3-3.32c-1.41-.06-3,1.64-3,3.24A3.16,3.16,0,0,0,27.51,17.94Zm16.31-1.77c0-1.9-1.14-3.3-2.77-3.32-1.23,0-2.63,1.7-2.63,3.21a2.79,2.79,0,0,0,2.68,2.85A2.64,2.64,0,0,0,43.82,16.17Zm2.55-10.7.28.13c-.33.81-.63,1.63-1,2.42a.69.69,0,0,0,.28,1,.72.72,0,0,0,1.1-.4,17.9,17.9,0,0,0,.78-3.37c.1-1.06-.73-1.56-1.64-1a11.85,11.85,0,0,0-2.25,2c-.29.3-.34.82.29,1.23ZM24.8,6.32c.47-1.09-.33-1.65-.93-2.27a1.54,1.54,0,0,0-1.79-.58A1.65,1.65,0,0,0,21.26,5a18.21,18.21,0,0,0,0,2.86c0,.31.36.59.58.92.95-.82.72-1.72.56-2.59-.1-.53-.32-1.07.15-1.48C23.6,5,23.38,6.66,24.8,6.32ZM48.31,43.67a3.74,3.74,0,0,0,.48-.18.54.54,0,0,0,.23-.22,2.5,2.5,0,0,0-1-2.75.86.86,0,0,0-.63.29C47.54,41.8,47.29,42.93,48.31,43.67ZM64,48.11c-.26-.1-.53-.29-.62-.22-.67.46-1.32,1-1.94,1.47-.13.12-.14.41-.14.63a.52.52,0,0,0,.82.44A4.79,4.79,0,0,0,64,48.11ZM32.17,44.89c-.43.82,0,1.49.39,2.15a.62.62,0,0,0,1,.08,1.61,1.61,0,0,0-.1-1.56C33.18,45,32.87,44.64,32.17,44.89ZM61.72,58.61a3.92,3.92,0,0,0,1.66-2.23c-.25-.06-.55-.21-.64-.12a12.67,12.67,0,0,0-1.51,1.51C60.87,58.21,61.18,58.47,61.72,58.61Z"/><path d="M25.92,14.71a1.81,1.81,0,0,1,1.42-1.8A1.9,1.9,0,0,1,29,14.73a1.69,1.69,0,0,1-1.55,1.66A1.66,1.66,0,0,1,25.92,14.71Z"/><path d="M39.71,15.86c0-1,.38-1.39,1.24-1.38a1.88,1.88,0,0,1,1.8,1.6,1.62,1.62,0,0,1-1.56,1.44A1.54,1.54,0,0,1,39.71,15.86Z"/></g></svg>