<svg version="1.1" id="Layer_1" xmlns="http://www.w3.org/2000/svg" xmlns:xlink="http://www.w3.org/1999/xlink" x="0px" y="0px" viewBox="0 0 100 100" style="enable-background:new 0 0 4000 4000;" xml:space="preserve"><style type="text/css">
	.st0{fill:#181412;}
</style><g transform="translate(1, 7.50470364386242) scale(0.026042773927462903) translate(-163.15999999999963, -378.8800000000008)"><path class="st0" d="M3490.52,2169.06c-0.25,1.27,1.4,2.04,2.16,0.89c62.6-95.56,104.72-194.3,126.35-296.34
	c53.7-253.59-31.81-518.89-203.71-717.26c-67.31-77.75-138.18-137.17-212.62-178.01c-173.68-95.56-381.34-112.1-557.7-19.09
	c-61.07,32.19-114.26,44.66-181.44,33.85C2354,975.42,2298.4,896.91,2353.5,790.79c46.19-89.07,160.32-149.64,257.03-178.52
	c294.31-88.05,633.02,39.83,855.82,232.09c397.75,343.3,459.85,917.66,217.84,1372.8c-64.77,121.77-140.09,228.78-225.73,321.03
	c-2.67,2.93-3.31,7.13-1.53,10.69c19.47,40.08,33.97,69.98,43.39,89.7c103.96,216.95,157.52,437.96,144.42,677.43
	c-5.98,108.66-27.74,235.01-151.16,264.92c-64.77,15.65-176.36,19.47-224.07-36.39c-37.15-43.39-27.74-107.01,22.9-137.8
	c25.58-15.52,54.84-25.19,88.05-29.14c5.85-0.76,10.05-5.85,9.54-11.71c-7.63-85.25-26.97-164.01-58.15-236.16
	c-12.22-28.12-26.08-35.63-57.9-54.59c-43.39-25.83-81.18-41.86-113.63-48.1c-54.2-10.43-79.02,29.9-95.68,82.58
	c-23.29,73.54-68.46,149-135.64,226.36c-104.21,119.99-282.86,306.4-457.94,268.73c-60.44-12.98-103.96-69.22-82.96-129.91
	c30.67-88.81,138.44-97.97,216.18-91.49c5.09,0.38,10.05-2.29,12.47-6.74c82.58-149.25,115.15-304.61,125.33-475.25
	c0.64-9.8-4.45-18.96-13.11-23.67c-47.59-25.83-133.35-68.71-257.15-128.64c-108.79-52.68-221.78-92-338.97-117.83
	c-10.69-2.29-21.76-2.54-32.57-0.64c-220.51,40.33-427.15,118.97-619.66,236.16c-126.35,76.98-236.8,171.27-331.34,283.11
	c-73.16,86.4-151.29,186.28-234.63,299.52c-45.17,61.46-116.42,154.34-192.9,164.78c-78.13,10.56-252.45,13.36-292.65-72.91
	c-21.76-46.82-4.07-99.63,40.72-123.42c52.3-27.99,146.45-19.09,203.2-11.58c4.45,0.51,8.78-1.27,11.45-4.84
	c106.76-141.24,190.61-279.04,251.3-413.53c102.94-228.02,99.12-465.32,25.19-703.77c-41.86-134.49-98.48-265.42-170.12-392.54
	c-3.44-6.11-9.67-10.18-16.8-10.69c-139.2-10.43-263.77-36.9-378.54-111.97c-102.17-66.8-162.74-157.14-181.95-270.77
	c-0.76-4.71-3.43-8.91-7.38-11.71c-43.01-30.03-38.94-92.63-15.65-128.64c14.63-22.78,33.97-28.63,57.89-17.81
	c3.44,1.53,7.38-0.76,7.76-4.58c4.96-48.73,15.27-98.99,31.17-151.04c74.18-242.65,292.27-460.23,558.33-473.72
	c11.2-0.51,20.99-8.02,24.43-18.83c35.25-111.84,62.47-212.36,116.04-306.14c3.31-5.6,10.82-6.74,15.65-2.42
	c111.97,102.94,165.29,221.78,205.88,367.22c1.53,5.6,4.83,10.56,9.41,14.12c176.23,136.66,294.18,360.73,266.82,586.45
	c-11.71,96.32-41.1,185.52-88.18,267.84c-1.78,3.05,1.91,6.24,4.71,4.2c85.89-61.97,151.92-108.41,198.11-139.58
	c263.26-177.12,550.32-290.74,863.58-268.22c388.47,27.87,809.25,280.82,981.15,641.17
	C3491.79,1958.1,3507.57,2062.31,3490.52,2169.06 M687.53,1298.22c5.6,1.65,7.89,8.4,4.58,13.23
	c-87.29,126.73-165.54-5.35-181.32-88.3c-1.27-6.74-10.56-7.89-13.23-1.53c-48.99,115.03,62.73,216.05,158.8,252.19
	c4.2,1.53,8.4,2.42,12.72,2.8c109.94,8.27,199-63.49,217.2-164.9c24.81-138.06-30.41-234.38-165.92-288.96
	c-24.3-9.8-51.41-9.42-75.45,1.14l-26.98,11.71c-15.9,6.87-14.5,29.9,2.04,34.86c40.21,12.09,70.87,36.52,91.87,73.29
	c3.05,5.34-0.76,11.96-6.87,12.09c-36.52,0.76-66.8,13.11-90.85,37.03c-3.56,3.43-5.98,8.02-7,12.85
	C595.66,1257.89,644.02,1284.48,687.53,1298.22 M457.86,1678.68c41.48-1.4,93.01-46.57,117.19-75.58
	c4.96-5.98,2.54-14.89-4.58-17.56c-33.85-12.6-72.53-18.07-116.43-16.54c-43.77,1.4-82.07,9.54-114.9,24.43
	c-7,3.18-8.65,12.21-3.43,17.81C361.8,1638.59,416.38,1680.07,457.86,1678.68L457.86,1678.68z"/></g></svg>