<svg xmlns="http://www.w3.org/2000/svg" viewBox="0 0 435.68 220.53"><path d="M246,.31q31.32.54,62.65,1.1c12.43.24,24.86.54,37.3.81q24.18.52,48.35,1c9.52.22,19,.48,28.54.73a11,11,0,0,1,2.3.1c4.82,1.15,5.57,2.37,4.5,6.68-3.94,15.81-8,31.57-12.07,47.36-.94,3.68-1.77,7.4-2.86,11a4,4,0,0,0,.45,3.41c6.48,12,12.87,24,19.28,36,.22.4.42.82.6,1.24,1.27,3.17.58,4.82-2.71,5.85-10.62,3.35-21.27,6.62-31.92,9.92q-37.79,11.73-75.59,23.44c-13.69,4.24-27.52,8.07-41.06,12.75-15.81,5.47-32,9.42-48.11,13.93A123.61,123.61,0,0,1,216,179.41c-7.16.79-14.28,1.82-21.5,1.51a87.28,87.28,0,0,1-9.13-.86c-3.48-.51-6.17.88-8.74,2.95a153.86,153.86,0,0,1-30.7,19.16,182.66,182.66,0,0,1-45.52,14.92,144.12,144.12,0,0,1-21.8,2.79c-3.83.1-7.66.76-11.47.64C51,220,35.16,218,20.41,210.81c-1.64-.79-3.42-1.3-5.08-2.06-7.18-3.33-12.25-8.6-14.47-16.29a19.78,19.78,0,0,1,12.72-24.61A17.83,17.83,0,0,1,24,167.68c10.78,2.66,21.49,5.6,32.31,8.09,5.33,1.22,10.85,1.58,16.25,2.52,6.71,1.16,13.47,1.07,20.2.83,18.76-.68,36.4-5.42,52.54-15.27,1.4-.85,1.32-1.3.13-2.08a6.85,6.85,0,0,1-1.53-1c-3.65-4.19-8.25-5.06-13.62-4.7-11.63.76-23.29,1.08-34.94,1.58a10.44,10.44,0,0,1-1.37,0c-5.43-.55-6.11-1.84-3.45-6.57q11.14-19.82,22.32-39.61c1.89-3.33,1.24-3.06-.38-5.1-7.64-9.59-15.19-19.26-22.74-28.94-2.32-3-2.12-4,1-6.26a27,27,0,0,1,3.13-1.91c13-6.85,26-13.65,39-20.51Q162.37,33.11,192,17.42q12-6.32,24-12.56a16.81,16.81,0,0,0,2.82-1.49c4-3.2,8.59-3.54,13.45-3.31,4.6.22,9.21.05,13.82.05Zm33.58,75a8.66,8.66,0,0,0,8.18-1.52,15.63,15.63,0,0,1,2.83-1.51q42-20.83,84-41.64c13.6-6.72,27.22-13.37,40.83-20.06a12,12,0,0,0,1.12-.73,3.91,3.91,0,0,0-1.15-.48c-3.52-.23-7-.52-10.56-.6-16.43-.38-32.85-.69-49.28-1-12.74-.27-25.47-.59-38.21-.84-19.5-.39-39-.72-58.5-1.12-9.36-.19-18.72-.37-28.07-.81a17.71,17.71,0,0,0-10.48,2.44c-3.53,2.13-7.28,3.91-10.94,5.83q-20.08,10.58-40.16,21.14Q137.79,51,106.37,67.62c-1.89,1-3.76,2-5.62,3.1a15.17,15.17,0,0,0-1.46,1.07,8.88,8.88,0,0,0,1.66.39c8.43.27,16.87.57,25.3.75,16.12.36,32.24.65,48.36,1,16.42.3,32.85.64,49.28.87C242.46,75,261,75.15,279.62,75.34ZM422.89,13.09c-1.25.57-2.1.93-2.91,1.34q-23.69,11.7-47.37,23.41c-12.64,6.23-25.32,12.38-38,18.57q-21.45,10.47-42.91,21c-2.05,1-2,1.17-.69,2.88,6.56,8.47,13.05,17,19.69,25.42,2.17,2.74,2.25,5.06.65,8.28-5.82,11.78-11.69,23.52-18.76,34.63-1.37,2.16-2.43,4.53-3.63,6.8,2.58-.68,5.19-1.26,7.73-2q51.74-16.12,103.48-32.3c9-2.82,18.06-5.61,27.08-8.47,3.23-1,3.23-1.12,1.8-4-.87-1.78-1.83-3.53-2.73-5.3-4.75-9.26-9.44-18.55-14.28-27.76a14.19,14.19,0,0,1-1.35-10.13c2.86-12.18,5.79-24.34,8.71-36.5,1.13-4.74,2.32-9.48,3.45-14.23A7.25,7.25,0,0,0,422.89,13.09ZM116.36,76.88v-.09c-6.59-.18-13.17-.37-19.76-.53a4.24,4.24,0,0,0-1.24.36,6.31,6.31,0,0,0,.41,1.25,12.81,12.81,0,0,0,1.08,1.49c6.64,8.6,13.23,17.23,20,25.76,1.46,1.84,2.28,3.14.86,5.59-4,6.85-7.55,14-11.37,20.91-3.45,6.3-7,12.53-10.53,18.81-.84,1.52-.62,1.89,1,2h.46c11.34-.37,22.68-.72,34-1.11,1.69-.06,1.94-.59,1-1.88-.44-.62-1-1.18-1.42-1.8-9.75-14.05-12.26-29.4-7.82-45.8a54.42,54.42,0,0,1,12.93-22.93A10.43,10.43,0,0,0,137,77.14a12.37,12.37,0,0,0-1.8-.25C128.94,76.87,122.65,76.88,116.36,76.88Z"/><path d="M322.94,105.59a7.83,7.83,0,0,1-1.9-.15c-.65-.28-1.63-.63-1.73-1.11a3,3,0,0,1,.48-2.49,13.79,13.79,0,0,1,4-2q14.32-4.86,28.69-9.6,20.43-6.78,40.89-13.48a23.47,23.47,0,0,1,4.45-1,2,2,0,0,1,2.53,1.46,2.52,2.52,0,0,1-1.44,3,17.64,17.64,0,0,1-2.57,1q-34.75,11.67-69.52,23.3C325.41,105,323.92,105.32,322.94,105.59Z"/></svg>