<svg version="1.1" id="Layer_1" xmlns="http://www.w3.org/2000/svg" xmlns:xlink="http://www.w3.org/1999/xlink" x="0px" y="0px" viewBox="0 0 100 100" style="enable-background:new 0 0 4000 4000;" xml:space="preserve"><style type="text/css">
	.st0{fill:#181412;}
</style><g transform="translate(33.74691470896105, 1) scale(0.025970240224722083) translate(-1373.2400000000014, -113.2200000000002)"><path class="st0" d="M2151.34,113.26c0.34,117.24,0.26,234.48-0.15,351.72c-0.19,52.45-4.35,105.12-3.71,154.83
		c0.04,4.24-0.49,16.09-1.65,35.57c-0.07,1.16-1.69,1.39-2.06,0.26c-0.15-0.49-0.23-0.9-0.26-1.2
		c-5.74-108.84-7.43-205.74-5.14-290.75c1.43-51.85,1.99-94.69,1.69-128.49c-0.19-21.65,1.28-62.31,4.31-121.93H2151.34
		L2151.34,113.26z"/><path class="st0" d="M2234.4,113.26c1.99,25.32,3.11,50.76,3.3,76.27c0.41,50.35,0.6,75.78,0.6,76.31
		c3.23,111.84,1.5,207.35-1.2,328.23c-0.19,8.67-0.71,18.87-1.58,30.69c-1.31,18.05-2.1,27.54-2.29,28.51
		c-0.22,1.2,0.38,2.44,1.5,2.93c21.98,10.02,27.99,31.44,28.21,54.47c0.04,1.65,2.18,2.25,3.08,0.86
		c10.17-15.57,23.71-22.06,40.71-19.4c17.07,2.7,21.12,20.9,20.86,36.58c-0.53,32.68-12.42,61.15-35.64,85.39
		c-6.04,6.3-11.22,12.19-15.57,17.67c-13.47,17.03-16.69,40.22-16.69,62.99c-0.04,32.53,0.34,54.7,1.09,66.44
		c7.5,119.19,16.54,239.05,27.09,359.6c2.48,28.32,6,55.37,10.54,81.07c0.34,1.91,2.44,2.93,4.13,1.95
		c35.68-20.37,70.19-42.77,103.62-67.12c0.83-0.6,1.95-0.23,2.29,0.71l0.04,0.11c0.38,1.01,0.11,2.18-0.68,2.89
		c-30.99,27.95-63.63,52.49-97.96,73.61c-1.28,0.79-1.39,2.59-0.19,3.45l21.35,15.91c1.54,1.16,3.53,1.5,5.33,0.94
		c42.92-13.47,84.49-29.64,127.48-48.58c0.49-0.22,1.01,0,1.24,0.45l0.53,1.01c0.04,0.11,0,0.22-0.08,0.26
		c-37.74,23.49-77.36,42.02-118.85,55.6c-0.94,0.3-1.28,1.39-0.71,2.18c5.63,7.43,14.03,14.48,22.02,23.6
		c0.94,1.05,4.05,1.28,9.34,0.68c16.66-1.88,45.24-4.35,85.8-7.43c0.98-0.07,1.61,1.01,1.05,1.84c-0.79,1.2-2.1,1.99-3.98,2.33
		c-26.6,4.8-54.29,8.59-83.1,11.37c-1.24,0.11-1.88,1.58-1.09,2.55c20.18,25.4,32.23,53.91,36.09,85.57
		c2.06,16.88-1.39,38.45-2.1,50.01c-0.34,5.48,1.13,10.92,4.2,15.46c34.7,51.81,63.7,105.57,87.04,161.36
		c5.25,12.53,2.21,21.83-9.12,27.91c-7.92,4.24-21.91,8.18-30.01,9.83c-54.14,10.88-111.84,12.01-173.1,3.38
		c-26.45-3.71-47.87-9.15-64.27-16.24c-0.94-0.41-1.99,0.23-2.06,1.24c-0.56,7.92-0.75,12.87-0.6,14.78
		c5.33,64.12,16.85,120.92,34.59,170.4c3.71,10.39,20.78,57.63,51.17,141.74c44.64,123.5,69.78,250.68,69.03,381.8
		c-0.45,75-14.41,138.32-32.71,211.74c-25.92,104.18-56.35,208.18-91.28,311.91c-8.4,24.95-17.07,48.36-25.96,70.19
		c-0.45,1.13,0.19,2.4,1.35,2.66c55.26,12.57,107.75,27.57,157.49,44.98c52.45,18.38,117.54,47.16,154.12,84.9
		c44.16,45.62,71.13,113.71,75.9,176.66c9.15,120.95-27.39,234.22-114.65,319.9c-82.05,80.55-188.97,136.37-303.81,136.37
		c-79.12,0.04-181.39-33.13-202.78-120.05c-9.98-40.52,2.44-80.44,39.54-100.66c24.31-13.24,51.74-15.61,80.7-13.02
		c24.65,2.18,37.18,3.3,37.52,3.34c29,3.23,61.26,3.04,89.85,1.16c75.97-5.06,143.8-32.41,187.54-95.33
		c28.93-41.57,28.21-100.51,13.99-149.24c-34.55-118.63-133.15-175.61-247.31-199.17c-1.16-0.23-2.33,0.38-2.81,1.46
		c-10.77,24.87-19.96,48.43-27.54,70.76c-6.38,18.65-10.5,37.1-4.05,56.12c1.35,3.98,6.72,16.73,16.09,38.3
		c17.11,39.2,25.47,85.57,14.86,126.43c-7.39,28.25-37.07,47.8-62.61,23.97c-2.63-2.44-5.97-7.35-9.98-14.82
		c-0.56-1.05-1.99-1.2-2.78-0.3c-15.34,17.37-44.83,37.97-65.95,19.62c-12.08-10.47-17.33-24.91-15.79-43.41
		c0.08-1.01-1.2-1.5-1.8-0.68c-9.12,12.27-20.52,16.77-34.25,13.47c-34.67-8.33-26.9-50.2-14.56-72.41
		c21.68-39.13,55.49-69.48,92.44-96.72c28.81-21.27,24.42-110.86,22.1-144.7c-0.11-1.69-1.28-3.15-2.93-3.6
		c-46.33-13.24-89.1-30.69-123.47-58.15c-63.78-50.95-99.61-126.62-101.59-207.92c-0.04-1.24-1.65-1.69-2.33-0.64
		c-23.45,35.72-43.33,77.85-57.36,117.65c-29.26,82.91-46.48,170.25-51.62,262.05c-0.41,7.2,2.18,13.66,8.4,18.53
		c43.29,34.07,73.83,83.02,81.82,136.82c4.31,29.3-13.54,50.99-42.73,49.15c-11.97-0.75-20.67-7.95-26.11-21.65
		c-0.45-1.09-1.99-0.9-2.21,0.23c-1.31,7.47-3.08,13.99-5.21,19.58c-13.77,35.9-50.16,27.87-71.92,5.97
		c-2.03-2.06-4.8-5.36-8.33-9.94c-0.98-1.28-2.85-1.35-3.94-0.15c-26.3,29.41-62.13,12.31-69.33-23.22
		c-6.12-30.05-1.99-58.94,12.31-86.63c13.92-26.97,32.38-51.02,55.45-72.14c5.25-4.8,7.24-11.14,6-18.98
		c-20.52-129.77-34.18-269.33-40.93-418.68c-1.54-33.8-3.08-93.49-4.69-179.14c-0.75-40.41-0.9-74.47-0.41-102.27
		c0.86-52.22,14.33-101.26,40.41-147.14c11.18-19.7,24.57-39.28,36.09-62.24c43.86-87.6,67.6-135.1,71.24-142.56
		c0.34-0.64-0.3-1.31-0.98-1.05c-62.91,26.26-121.67,52-166.84,102.91c-17.6,19.81-30.31,34.4-38.08,43.82
		c-30.91,37.29-47.46,59.73-68.73,78.26c-22.1,19.32-48.85,11.82-60.4-14.78c-4.05-9.34-6.42-14.74-7.13-16.17
		c-2.33-4.95-6.87-8.52-12.23-9.64c-18.42-3.9-40.26-8.14-37.52-33.05c0.94-8.74,4.13-15.91,9.57-21.5
		c0.75-0.79,0.34-2.14-0.75-2.33c-8.07-1.39-14.52-4.65-19.4-9.87c-20.6-21.87-9.53-47.5,11.14-63.82c0.94-0.75,1.05-2.18,0.19-3
		c-2.55-2.51-7.47-3.83-9.87-6.98c-6.19-8.29-5.51-16.17,2.1-23.64c17.56-17.26,74.62-10.8,93.38-5.33
		c12.42,3.6,24.76,7.47,37.03,11.56c27.24,9.08,53.65,4.95,79.2-12.38c15.42-10.47,36.73-26.94,63.97-49.45
		c44.53-36.77,84.34-70.72,119.41-101.86c42.77-38,81.04-79.08,114.84-123.24c0.45-0.6,0.41-1.43-0.15-1.95
		c-0.53-0.53-1.35-0.56-1.95-0.11c-44.68,35.53-94.95,62.69-150.74,81.49c-1.65,0.56-3.49-0.11-4.39-1.65
		c-3.34-5.67-6.08-11.56-8.25-17.75c-21.38-60.48-25.92-133.97-19.77-198.42c0.34-3.38-1.05-6.68-3.68-8.82
		c-41.94-34.44-63.97-79.76-66.07-135.96c-0.41-10.39-0.64-18.12-0.68-23.26c0-1.01-1.09-1.69-1.99-1.24l-73.19,35.94
		c-0.6,0.3-1.35,0.11-1.76-0.45c-0.38-0.56-0.34-1.31,0.15-1.8c3.23-3.26,7.88-6.64,13.96-10.09c23.34-13.24,43.56-24.24,60.7-32.98
		c2.14-1.09,3.64-3.08,4.05-5.4l5.78-30.09c0.19-1.13-0.83-2.06-1.91-1.8c-34.29,8.07-70.01,13.84-107.11,17.37
		c-11.18,1.09-21.42,0.68-30.69-1.24c-0.49-0.11-0.86-0.56-0.83-1.05c0-0.53,0.41-0.94,0.9-1.01
		c47.61-6.94,95.18-15.94,142.68-27.09c0.68-0.15,1.24-0.64,1.5-1.31l12.76-32.79c0.15-0.38-0.15-0.75-0.53-0.75
		c-37.7,2.63-77.36,3.15-119.04,1.58c-5.89-0.23-12.87-0.94-20.97-2.1c-4.76-0.71-11.86-1.8-21.27-3.26
		c-0.53-0.08-0.86-0.53-0.83-1.05v-0.04c0.04-0.53,0.49-0.94,1.05-0.94c52.11-0.04,107.33-2.51,165.6-7.43
		c2.06-0.15,3.9-1.35,4.95-3.15c88.43-153.29,252.15-218.61,423.94-210.62c1.84,0.07,3.53-1.13,3.98-2.93
		c18.2-68.77,30.84-138.14,37.97-208.1c5.59-55.07,8.63-94.17,9.08-117.24c0.79-38.3,0.79-69.86,0-94.69
		c-0.68-21.76-6.04-40.71-16.06-56.84c-20.03-32.15-53.24-59.16-75.75-88.54c-15.79-20.67-19.17-42.77-10.13-66.29
		c0.79-2.03,1.2-4.13,1.28-6.3c0.26-6.68-0.9-40.33-3.41-100.92c-1.31-30.73-2.33-94.95-3.08-192.68
		c-0.41-50.01,2.81-103.25,2.36-155.99c-0.26-33.99,4.54-79.91,4.13-113.75c-0.04-3.04,0.6-7.77,1.88-14.18
		c0.07-0.34,0.38-0.56,0.71-0.53c0.34,0.04,0.6,0.3,0.6,0.64c0.83,48.92,3.94,102.53,4.01,156.33
		c0.15,114.91,0.08,218.2-0.23,309.81c0,4.61-0.9,24.24-2.74,58.9c-0.9,16.77,0.26,26.94,1.43,45.66c0.08,1.46,1.73,2.25,2.93,1.43
		l2.85-1.95c0.71-0.49,1.54-0.79,2.36-0.86c11.74-1.24,23.49,0.26,35.23,4.5c1.2,0.41,2.44-0.41,2.51-1.65
		c1.39-23.07,12.49-38.98,33.39-47.8c1.16-0.53,2.48-0.56,3.68-0.19c17.33,5.51,30.73,21.95,39.88,36.73
		c1.05,1.65,3.6,1.13,3.83-0.83c0.49-3.98,1.65-9.6,3.45-16.92c3.94-15.79,15.98-24.16,36.17-25.1c1.28-0.04,2.14-1.35,1.69-2.59
		l-0.94-2.44c-0.23-0.6-0.34-1.24-0.3-1.84c0.34-64.08-3.75-120.69-3.9-183.83c-0.26-116.94-0.22-233.88,0.15-350.82H2234.4
		 M2131.93,1435.73c-49.09,29.03-63.8,94.94-32.87,147.24c30.94,52.3,95.77,71.14,144.86,42.12c49.09-29.03,63.8-94.94,32.87-147.24
		C2245.85,1425.55,2181.02,1406.72,2131.93,1435.73 M2028.18,1463.06c-19.25,4.2-37.97,13.77-56.2,28.66
		c-1.05,0.83-1.05,2.36-0.08,3.23c11.67,10.17,23.19,16.13,34.52,17.97c6.27,1.01,12.49-2.21,15.27-7.95
		c5.36-10.99,8.44-24.2,9.27-39.54C2031.06,1463.93,2029.68,1462.73,2028.18,1463.06 M1872.86,1523.25
		c-57.71-6.99-110.68,38.74-118.36,102.11c-7.67,63.36,32.89,120.43,90.58,127.39c57.71,6.99,110.68-38.74,118.36-102.11
		C1971.11,1587.28,1930.56,1530.22,1872.86,1523.25 M2384.32,1691.43c-13.17,36.84-35.45,65.54-66.78,86.06
		c-1.61,1.05-1.24,3.49,0.6,4.01c35.9,10.35,73.12,14.33,111.61,11.97c1.09-0.08,1.84-1.09,1.58-2.14
		c-8.67-36.35-23.86-69.74-45.51-100.09C2385.41,1690.68,2384.54,1690.79,2384.32,1691.43 M1784.13,2005.85
		c37.78-27.24,70.08-60.18,96.9-98.86c0.83-1.2,0.23-2.85-1.2-3.19c-2.06-0.56-3.79-0.79-5.25-0.75
		c-30.5,0.71-54.14-1.54-79.01-15.98c-4.01-2.33-11.29-6.98-21.83-13.92c-1.84-1.24-4.31,0.04-4.46,2.25
		c-2.85,44.79,1.28,87.98,12.38,129.54C1781.96,2006.04,1783.23,2006.53,1784.13,2005.85 M2084.94,3075.33
		c-8.37-35-15.12-74.39-20.26-118.14c-0.11-1.13-1.13-1.91-2.25-1.84c-25.74,1.88-50.46-1.43-74.13-9.94
		c-1.54-0.52-3.08,0.83-2.74,2.4c12.49,59.28,45.24,102.08,98.26,128.38C2084.41,3076.5,2085.09,3075.97,2084.94,3075.33
		L2084.94,3075.33z"/><path class="st0" d="M2317.73,120.54c0.56,0,0.9,1.13,0.98,3.45c4.2,93.72,5.74,168.26,5.89,281.11
		c0.15,112.85-1.13,187.39-5.07,281.11c-0.11,2.33-0.45,3.49-1.01,3.49c-0.56,0-0.86-1.16-0.98-3.45
		c-4.2-93.75-5.7-168.26-5.89-281.15c-0.15-112.85,1.13-187.39,5.06-281.11C2316.83,121.66,2317.16,120.54,2317.73,120.54
		L2317.73,120.54z"/><path class="st0" d="M2162.65,1479.22c23.4-3.29,45.16,14.08,48.64,38.81c3.49,24.71-12.68,47.45-36.06,50.72
		c-23.4,3.29-45.16-14.08-48.64-38.81C2123.09,1505.23,2139.26,1482.5,2162.65,1479.22L2162.65,1479.22z"/><path class="st0" d="M1875.82,1570.77c22.88-5.28,45.96,10.06,51.54,34.3c5.59,24.23-8.4,48.13-31.29,53.43
		c-22.88,5.28-45.96-10.06-51.54-34.3C1838.94,1599.96,1852.94,1576.06,1875.82,1570.77L1875.82,1570.77z"/></g></svg>