<svg xmlns="http://www.w3.org/2000/svg" viewBox="0 0 100 100"><g transform="translate(1, 3.541221300093639) scale(0.3164659153292214) translate(0.38000000000000145, 0.16000000000000003)"><path d="M276.36,103.85q-1.14,11.87-2.3,23.73c-.24,2.44-.68,4.86-.76,7.3a8.78,8.78,0,0,0,.88,3.5c3.62,8.54,7.1,17.15,11,25.55a180.64,180.64,0,0,0,8.87,16c4.15,6.91,8.53,13.69,12.82,20.53,1.59,2.54,2.42,5.15,1.17,8.13A11,11,0,0,1,302,215c-5.36,2.26-10.65,1.66-15.6-.56A81.37,81.37,0,0,1,273,206.65a18.78,18.78,0,0,1-5.21-6.35q-9.11-16.52-17.79-33.24c-3-5.7-5.59-11.59-8.18-17.47a9.43,9.43,0,0,0-3.71-4.51c-8.75-5.38-15.56-12.92-22.41-20.37-2.37-2.58-4.21-5.65-6.31-8.48a20.68,20.68,0,0,0-2.25-2.89c-1.68-1.57-3.86-.86-4,1.44a9.26,9.26,0,0,0,1.17,4.76,89.46,89.46,0,0,0,13.31,17.56A95.74,95.74,0,0,0,233.16,150a13.84,13.84,0,0,1,5,6.31c7.34,16.34,14.44,32.83,24.43,47.82,2.29,3.43,4.86,6.69,7.41,9.94a32.16,32.16,0,0,1,4.51,7.9c3.28,8,6.92,16,10.42,23.91,2.4,5.45,4.77,10.92,7.23,16.35,1.79,4,2.24,8.22,3,12.41,1.06,5.62-5.29,14.15-9.21,15.27a15.83,15.83,0,0,1-15.41-3.54,70.4,70.4,0,0,1-5.65-6,22.8,22.8,0,0,0-1.39-1.81c-6.38-5.8-8.26-13.56-9.84-21.58a115.09,115.09,0,0,1-1.95-18.22c-.23-6.56-1-13.11-1.81-19.64a10.79,10.79,0,0,0-1.93-4.6c-1.5-2.17-3.53-1.9-4.54.54a7.93,7.93,0,0,0-.54,3.54c.79,8.69,1.49,17.39,2.62,26,.77,5.89,2.14,11.7,3.31,17.54a25.12,25.12,0,0,1,.39,6.76c-.11,1.65-.86,2.08-2.31,2.1-3.67.06-7.32.35-10.88-1.07a11.79,11.79,0,0,0-4.45-.73q-37.56.5-75.11,1.11c-5.52.1-11.05.29-16.55.74a35.53,35.53,0,0,0-7.07,1.77c-2.62.78-5.18,1.75-7.8,2.53a7,7,0,0,1-2.73.23c-3.06-.33-4.64-2.44-3.82-5.41a75.5,75.5,0,0,1,3.33-10c2.49-5.77,4.79-11.54,5.37-17.89,1.08-11.63,4-22.87,7.18-34.06a19.06,19.06,0,0,0,.42-3.64,2,2,0,0,0-1.81-2.29,4,4,0,0,0-2.77,1,6.64,6.64,0,0,0-1.39,2.84c-3.08,9.93-6,19.9-7.13,30.29-.43,3.95-1.08,7.88-1.79,11.79a22.64,22.64,0,0,1-1.46,3.83c-2,5.27-4.1,10.52-6,15.83a10.9,10.9,0,0,0-.75,4.92c.44,3.09-.88,5.28-2.73,7.44a33.7,33.7,0,0,1-10.64,8.6c-9.38,4.62-18.11-.74-20-9.89-.9-4.39-.21-8.52.81-12.66,2.28-9.24,6.14-17.88,10.15-26.48,5.09-10.94,9.63-22.15,14.87-33,5.51-11.45,11.52-22.66,17.38-33.93,6.22-12,12.58-23.85,18.73-35.84a5.85,5.85,0,0,1,3.82-2.91c6.63-2.3,13.34-4.41,19.87-7a110.68,110.68,0,0,0,20-10.26A58.13,58.13,0,0,0,205.9,91.44c1.74-3.91,3.2-7.94,4.71-12a7.76,7.76,0,0,0,.57-3.11A3.87,3.87,0,0,0,208.51,73c-1.12-.44-2.53.76-3.24,2.56-1.75,4.41-3.3,8.9-5.26,13.22C195,99.9,186.64,108,176,113.91a156,156,0,0,1-30.11,12.45c-16.07,4.9-32.13,9.85-48.26,14.55a96.49,96.49,0,0,0-36.23,20.17,46.93,46.93,0,0,0-15.09,25,5.25,5.25,0,0,0-.1,1.37c.22,7.66.4,15.33.72,23,.27,6.74,1.05,13.47,1,20.19a24.1,24.1,0,0,1-5.93,16,19.79,19.79,0,0,1-22.51,5.1c-1.39-.63-2.73-1.37-4.11-2-8.52-4-12.73-11.18-14.23-20.09a110,110,0,0,1-1-12.33c-.53-9.75,1.62-19.11,4.15-28.45A99.73,99.73,0,0,1,27,147.34a118.21,118.21,0,0,1,13-11.7,136.34,136.34,0,0,1,24.72-16.57,86.14,86.14,0,0,1,26.06-8.3c8.31-1.27,16.58-2.79,24.89-4.09,4.08-.63,8.21-.92,12.3-1.5,14.39-2.05,28.14-6,40.39-14.18A48,48,0,0,0,186,69.72c.31-.71.52-1.45.82-2.15.51-1.2.79-2.38-.46-3.31-1.42-1.05-3-1.11-4.17.18a21.79,21.79,0,0,0-3.11,4.47,39.44,39.44,0,0,1-14.45,15.76,118.61,118.61,0,0,1-16,8.08c-9.1,3.73-18.85,4.77-28.56,5.92-6.48.76-12.9,2-19.34,3.13-2.24.38-4.43,1.07-6.67,1.37-3.42.46-3.81.17-3.66-3.24a138.3,138.3,0,0,1,1.11-15.1,139.53,139.53,0,0,1,8.13-30.39,88.69,88.69,0,0,1,15.2-25A86.11,86.11,0,0,1,149.09,5.32,62,62,0,0,1,167.23.84c4.73-.37,9.48-1,14.2-.81,19.41.77,37.65,5.58,54.1,16.3,7.18,4.68,12.78,10.9,17.8,17.75,7.62,10.41,14,21.44,17.33,34C273.78,79.83,276.41,91.57,276.36,103.85ZM177.31,235.6c.64-12.91-10.76-21.75-21.26-21.85-12.92-.12-22.18,11.28-22.32,21.7-.16,11.73,9.77,22.28,21.71,22C167.71,257.22,177.25,247.92,177.31,235.6Zm36.26,22.61c10.78,0,22.43-8.24,22.37-22-.05-13.08-9.48-21.4-21.34-22-11.68-.64-22.73,10.56-22.66,22.49C192,250.91,204.56,258.74,213.57,258.21Zm-9-74.77a2.78,2.78,0,0,0,2.95-2.06c.46-1.57.31-3.15-1.31-4a14.08,14.08,0,0,0-3.86-1.31c-8.35-1.63-16.79-.87-25.2-.76a19,19,0,0,0-4.5.84c-2.38.62-3.86,2.4-3.56,4.1.34,1.86,2.07,2.8,4.71,2.53a12.48,12.48,0,0,0,1.36-.24,62.56,62.56,0,0,1,21.92-.21C199.51,182.72,201.93,183.05,204.59,183.44Z"/><path d="M71.23,212.29a9.43,9.43,0,0,1-7.6-2.73c-2.31-2.37-3.26-5-2.22-8.38a133.72,133.72,0,0,1,10-23.63c4.06-7.55,8.44-14.93,12.51-22.48a7.91,7.91,0,0,1,5-3.73c8.11-2.7,16.24-5.36,24.4-7.9,5.11-1.59,10.29-2.94,15.44-4.4.88-.25,1.75-.58,2.64-.75s1.54.13,1.15,1.21a18,18,0,0,1-1,2.09q-9.64,18.79-19.32,37.6c-3,5.85-6.12,11.66-9.35,17.4a12,12,0,0,1-3.56,4.09c-7.15,4.75-14.59,9-23.14,10.72C74.53,211.74,72.88,212,71.23,212.29Z"/><path d="M156.1,249.1a13.4,13.4,0,1,1-.41-26.8c7.29.15,13.38,5.55,13.65,13.9C169.58,243.56,163.63,249,156.1,249.1Z"/><path d="M200.15,236.25c0-7.9,5.31-13.1,13.33-13.25a13.7,13.7,0,0,1,14.15,13.37,13.33,13.33,0,0,1-13,13.93A14,14,0,0,1,200.15,236.25Z"/></g></svg>