<svg xmlns="http://www.w3.org/2000/svg" viewBox="0 0 299.97 388.44"><path d="M280.37,247l-114.31.3h-1.84c-1,0-2.07.19-1.9,1.37a2.71,2.71,0,0,0,1.55,1.83,109,109,0,0,1,20,9c9.78,5.65,20.12,10.42,29.07,17.4,9.58,7.47,18.58,15.57,24.79,26.24a46.92,46.92,0,0,1,6.5,22.59,59.53,59.53,0,0,1-3.51,22.88,40.74,40.74,0,0,1-8.21,13,51.23,51.23,0,0,1-8.54,7.64c-7,4.88-14,9.82-22,13.11-6.67,2.74-13.65,4-20.73,5.19a72.33,72.33,0,0,1-16.92.69C152,387.37,140,384.75,130,376.65a16.09,16.09,0,0,1-6.51-13c0-7.45,6-15.08,13.26-16.74a44.34,44.34,0,0,1,17.71-.36c6,1.05,12.09,1.46,18.14,2.14,1.06.12,2.14.15,3.19.36,8.56,1.66,22.17-2.85,27.13-12.3,1.56-3,2.92-6,2.66-9.57-.24-3.36.14-6.76-.06-10.13a19.84,19.84,0,0,0-1.28-6.65c-4.75-11-11.6-20.5-21.48-27.49a86.86,86.86,0,0,0-33.19-14.57c-4.9-1-9.68-2.54-14.57-3.59-6.24-1.34-12.55-2.39-18.81-3.64-7.14-1.44-14.25-3-21.4-4.44-6.85-1.37-13.78-2.36-20.58-3.94-11.8-2.75-23.7-5.23-34.56-11a98.45,98.45,0,0,1-19-13.48,58.73,58.73,0,0,1-17-25.13A62.25,62.25,0,0,1,.46,174.76c2.23-18.19,10-33.7,21.29-47.7,15.8-19.58,35.82-33.55,58.66-43.72,1.58-.71,2.45-.59,3.62,1.08a107.17,107.17,0,0,0,7.7,9.13,13.62,13.62,0,0,0,2.45,2.08c2.09,1.46,3.82,1.42,4.92,0,1-1.25.47-3.33-1.18-4.87-2.35-2.19-4.87-4.24-7.06-6.58A23.22,23.22,0,0,1,84.6,67.92a46.09,46.09,0,0,1,3.62-19.16c1.73-4,4.35-7.35,7-10.74a6.07,6.07,0,0,0,1.47-3.13,61.27,61.27,0,0,1,2.87-17.48,119,119,0,0,1,6.6-15c1.49-2.94,4-3.17,6.93-.81a99.52,99.52,0,0,1,9.3,8.22c2,2,3.58,2.5,6.37,1.44a64,64,0,0,1,28.36-3.6c8.15.7,16.31,2.13,23.59,6.34a1.77,1.77,0,0,0,2.64-.42,48.5,48.5,0,0,1,10.84-9.14C200.53.69,201.59.9,205.27,7.23a24.05,24.05,0,0,1,2,5,48.88,48.88,0,0,1,1.9,17.63c-.13,2,.13,3.61,1.82,4.86a5.86,5.86,0,0,1,1.49,1.75c4.46,7.3,9.06,14.63,10.75,23.13,2.08,10.47,1.09,20.76-4.29,30.22-2.15,3.76-5.44,6.67-8.9,9.23a61.29,61.29,0,0,1-22.58,10.8c-2.67.63-2.75.72-2.31,3.52.82,5.27,2.11,10.51,2.41,15.8.31,5.47,1.6,10.89.64,16.48-.56,3.29-.18,6.74-.3,10.12-.07,2-.36,2.14-2.14,1.69-5-1.27-10-2.6-15.11-3.72a48.78,48.78,0,0,0-6.85-.71,1.63,1.63,0,0,1-1.71-1.7c-.26-2.44-.59-4.86-.88-7.29-.06-.46,0-.93-.08-1.38-.36-2.4-1.78-4.21-3.16-3.91a3.91,3.91,0,0,0-2.39,4.06c.21,2.29,0,4.61.1,6.91.1,1.84-.5,2.76-2.46,2.94-3.65.34-7.33.67-10.93,1.37-9.25,1.81-18,4.93-25.59,10.73a17.3,17.3,0,0,0-2.64,2.49,2.28,2.28,0,0,0,.1,3.33,4.2,4.2,0,0,0,2.76,1,5.79,5.79,0,0,0,2.85-1.28,54.46,54.46,0,0,1,23.85-10.2,78,78,0,0,1,23.34-.72,93.19,93.19,0,0,1,28.94,8.37c5.8,2.79,10.45,6.89,14.8,11.48a68,68,0,0,1,14.88,25.56c.19.58.39,1.16.53,1.76,1.89,7.56,7.63,10.12,14.53,11.13,8.59,1.25,17.31,1.95,25.76,3.83,10.28,2.28,20.32,5.6,28.91,12.11,2.19,1.66,4.27,3.3,4.58,6.49s-1.06,5.74-4.34,6.2a26.53,26.53,0,0,1-3.68.11H280.37ZM204.7,62.6c.49-13.6-11.39-22.9-22.5-23-12.94-.08-23.27,11-23.24,23.6,0,13.54,10.6,22.44,22.64,22.4A22.69,22.69,0,0,0,204.7,62.6ZM129.09,38.71c-12.27-1-22.3,10-22.27,21.84.05,14.15,12.42,21.86,22.15,21.64,10.49-.23,21.15-7.56,21.74-21.7C151.23,48.1,141.46,38.62,129.09,38.71ZM91.68,52.18c1-1,1.83-1.54,2.08-2.24a1.31,1.31,0,0,0-1.3-1.84c-.72,0-2,.68-2,1.09C90.43,50,91.09,50.86,91.68,52.18Z"/><path d="M196.24,62.87a14.25,14.25,0,0,1-13.75,14.4c-8.17.19-14.7-6.46-14.86-14.89-.12-6.59,4-13.82,13.76-13.93A14.75,14.75,0,0,1,196.24,62.87Z"/><path d="M142.62,60.34c.17,7.45-6.39,14.18-14,14.33a14.34,14.34,0,0,1-14.28-14c0-8.82,6.37-13.84,13.33-14.35C135.07,45.79,142.45,52.88,142.62,60.34Z"/></svg>