<svg version="1.1" id="Capa_1" xmlns="http://www.w3.org/2000/svg" xmlns:xlink="http://www.w3.org/1999/xlink" x="0px" y="0px" viewBox="0 0 100 100" style="enable-background:new 0 0 841.8898315 1190.5511475;" xml:space="preserve"><style type="text/css">
	.st0{fill:#FFFFFF;}
</style><g transform="translate(0.9999999999999929, 26.621648499554297) scale(0.3052774045058886) translate(-250.9556579, -148.7050322999999)"><path d="M558.6904907,299.8527222c-2.144043-0.1186523-21.8378906-1.6152344-36.4921875-2.7351074
	c-4.2963867-6.7780762-10.3002625-12.2668457-15.5307312-15.7485352c6.8442078,0.5415039,16.2006531,3.4455566,22.2172546,5.5725098
	c-2.84375-5.6875-9.1079102-10.2280273-12.8110352-12.8322754c2.1665039,0.0876465,10.3613281,1.640625,13.9931641,3.2463379
	c-2.4633789-5.4853516-12.2739258-15.0135498-20.9340515-16.791626c11.7553406-3.15271,20.5883484-10.6171722,23.72995-15.6771088
	c-10.5664062,2.5490723-15.9106445,2.5915527-20.1337891,1.2524414c4.7983398-0.7180176,11.4160156-4.3051758,12.9140625-6.7602539
	c-11.637207,1.4698486-19.257782-1.1972656-21.6459656-3.2657471c7.2084961,0,12.1811218-1.40979,16.2118835-4.0004883
	c-4.0024414-0.7264404-13.0971375-0.8572998-18.082489-4.0924072
	c11.5214539-17.4053955,16.3959656-31.0959473,15.7485046-39.3786621c-1.5854492,2.6530762-4.7885742,6.5356445-6.8266296,7.1827393
	c5.4125671-20.008667-0.8481445-42.7039795-7.1308594-44.7860107c-7.0415039-2.3334961-23.6513672,8.9301758-46.9697266,30.7545166
	c-2.762207-1.1363525-6.0742188-2.1778564-10.4448242-3.1722412c1.8989258-2.258667,3.9321289-3.3649902,5.6738281-4.3874512
	c-4.8188477-0.5469971-11.4145508-1.0455322-20.2592773,2.8461914c0.4316406-5.5930176,2.5517578-13.7681885,7.4101562-18.2766113
	c-8.0541992,1.5681152-15.0302734,6.5783691-20.1386719,14.2127686c0.5048828-4.9310303,2.5712891-8.001709,4.2617188-10.9820557
	c-2.7641602,0.7441406-7.7265625,4.5505371-10.9423828,11.3410645c-2.8037109-6.8839111-9.7246094-13.2723389-12.4057617-14.072998
	c3.0356445,5.0638428,4.1899414,7.4945068,5.1166992,11.5703125c-5.0058594-4.7462158-12.4833984-10.6455078-19.2211914-12.0690918
	c4.0288086,4.8535156,6.2250977,12.8254395,6.9404297,17.5509033c-7.7231445-2.1223145-16.1499023-1.7579346-24.4472656-0.5047607
	c2.0551758,1.2709961,4.5415039,2.2294922,6.8793945,3.7929688c-2.3696289,0.1207275-5.2910156,0.394043-8.6352539,1.3444824
	c-22.8676758-21.2983398-39.1538086-32.2526855-46.1083984-29.947998
	c-6.2827148,2.0820312-12.5439453,24.7773438-7.1308594,44.7860107c-2.0385742-0.6470947-5.2416992-4.5296631-6.8266602-7.1827393
	c-0.6474609,8.2827148,4.2265625,21.9732666,15.7480469,39.3786621c-4.9848633,3.2351074-14.0795898,3.3659668-18.0825195,4.0924072
	c4.03125,2.5906982,9.003418,4.0004883,16.2124023,4.0004883c-2.3886719,2.0684814-10.0087891,4.7355957-21.6459961,3.2657471
	c1.4980469,2.4550781,8.1157227,6.0422363,12.9135742,6.7602539c-4.2231445,1.3391113-11.1806641,3.4819336-21.7470703,0.9328613
	c3.1420898,5.0598145,19.0439453,11.5429535,30.2250977,12.3097992c-8.659668,1.7780762-18.3613281,6.3369141-26.4667969,16.9882812
	c3.6318359-1.605957,10.5395508-3.8325195,15.2617188-3.3532715c-3.703125,2.604248-10.5463867,8.2370605-13.3901367,13.9245605
	c6.0166016-2.1269531,15.3730469-5.0310059,22.2172852-5.5725098c-5.1962891,3.4587402-11.1547852,8.8991699-15.4453125,15.6157227
	c-14.7841797,1.1306152-35.9990234,2.7446289-38.2294922,2.8679199c-2.6455078,0.1462402-12.230957,0.6748047-13.284668,2.0136719
	h321.0195007C570.921936,300.5275269,561.3364868,299.9989624,558.6904907,299.8527222z M375.0669861,254.348465
	c1.6831055,0,3.0473633,1.9102631,3.0473633,4.2667084c0,2.3565674-1.3642578,4.2668457-3.0473633,4.2668457
	s-3.0473633-1.9102783-3.0473633-4.2668457C372.0196228,256.258728,373.3838806,254.348465,375.0669861,254.348465z
	 M369.9986267,285.5858765c-13.2832031,0-24.0517578-11.0803223-24.0517578-24.7485352
	c0-5.0053558,1.4487305-9.660141,3.9316406-13.554306c3.5908203,0.006958,6.9790039,0.2177734,10.2060547,0.6639404
	c-3.0742188,3.0397949-4.9931641,7.3251953-4.9931641,12.0776215c0,9.2182617,7.2060547,16.690918,16.0947266,16.690918
	s16.0942383-7.4726562,16.0942383-16.690918c1.1699219,0.7735596,4.2275391,3.5162354,6.3178711,5.5839844
	C391.4371033,276.993103,381.6944275,285.5858765,369.9986267,285.5858765z M419.0240173,284.2245483
	c-1.0317383,0.0600586-1.4482422-0.0310059-2.2441406,0.2062988c-1.1704102,0.348877-2.8735352,3.9936523-4.5009766,3.9936523
	c-1.6704102,0-3.3417969-3.644043-4.5136719-3.9936523c-0.7963867-0.2373047-1.2124023-0.1462402-2.2441406-0.2062988
	c-1.140625-0.0664062-3.3300781-2.8278809-3.1513672-4.111084c0.2792969-1.9995117,4.3066406-3.6347656,9.9023438-3.6347656
	c5.6518555,0,9.6235352,1.6352539,9.9023438,3.6347656C422.3536072,281.3966675,420.1646423,284.1581421,419.0240173,284.2245483z
	 M444.8565369,254.348465c1.6831055,0,3.0478516,1.9102631,3.0478516,4.2667084
	c0,2.3565674-1.3647461,4.2668457-3.0478516,4.2668457s-3.0473633-1.9102783-3.0473633-4.2668457
	C441.8091736,256.258728,443.1734314,254.348465,444.8565369,254.348465z M454.54599,285.5858765
	c-12.1577148,0-22.2026367-9.2844238-23.8183594-21.3376465c0.6914062-0.6604004,1.3823242-1.3012695,2.0722656-1.9182129
	c1.0834961,8.1264648,7.8037109,14.385498,15.9379883,14.385498c8.8886719,0,16.09375-7.4726562,16.09375-16.690918
	c0-4.5366058-1.7475586-8.647934-4.5795898-11.6564789c4.4672852-0.8167725,9.2304688-1.1501465,14.4213867-1.0734863
	c2.4780273,3.8918457,3.9238281,8.5423584,3.9238281,13.5427094
	C478.5972595,274.5055542,467.8291931,285.5858765,454.54599,285.5858765z"/><path d="M571.9751587,301.866394H250.955658c1.0537109-1.3388672,10.6391602-1.8674316,13.284668-2.0136719
	c2.2304688-0.123291,23.4453125-1.7373047,38.2294922-2.8679199c4.2905273-6.7165527,10.2490234-12.1569824,15.4453125-15.6157227
	c-6.8442383,0.5415039-16.2006836,3.4455566-22.2172852,5.5725098c2.84375-5.6875,9.6870117-11.3203125,13.3901367-13.9245605
	c-4.722168-0.479248-11.6298828,1.7473145-15.2617188,3.3532715c8.1054688-10.6513672,17.8071289-15.2102051,26.4667969-16.9882812
	c-11.1811523-0.7668457-27.0830078-7.2499847-30.2250977-12.3097992c10.5664062,2.5490723,17.5239258,0.40625,21.7470703-0.9328613
	c-4.7978516-0.7180176-11.4155273-4.3051758-12.9135742-6.7602539c11.637207,1.4698486,19.2573242-1.1972656,21.6459961-3.2657471
	c-7.2089844,0-12.1811523-1.40979-16.2124023-4.0004883c4.0029297-0.7264404,13.0976562-0.8572998,18.0825195-4.0924072
	c-11.5214844-17.4053955-16.3955078-31.0959473-15.7480469-39.3786621c1.5849609,2.6530762,4.7880859,6.5356445,6.8266602,7.1827393
	c-5.4130859-20.008667,0.8481445-42.7039795,7.1308594-44.7860107c6.9545898-2.3046875,23.2407227,8.6496582,46.1083984,29.947998
	c3.3442383-0.9504395,6.265625-1.2237549,8.6352539-1.3444824c-2.3378906-1.5634766-4.8242188-2.5219727-6.8793945-3.7929688
	c8.2973633-1.2531738,16.7241211-1.6175537,24.4472656,0.5047607c-0.715332-4.7254639-2.9116211-12.6973877-6.9404297-17.5509033
	c6.737793,1.423584,14.215332,7.322876,19.2211914,12.0690918c-0.9267578-4.0758057-2.0810547-6.5064697-5.1166992-11.5703125
	c2.6811523,0.8006592,9.6020508,7.1890869,12.4057617,14.072998c3.2158203-6.7905273,8.1782227-10.5969238,10.9423828-11.3410645
	c-1.6904297,2.9803467-3.7568359,6.0510254-4.2617188,10.9820557c5.1083984-7.6343994,12.0844727-12.6446533,20.1386719-14.2127686
	c-4.8583984,4.5084229-6.9785156,12.6835938-7.4101562,18.2766113c8.8447266-3.8917236,15.4404297-3.3931885,20.2592773-2.8461914
	c-1.7416992,1.0224609-3.7749023,2.1287842-5.6738281,4.3874512c4.3706055,0.9943848,7.6826172,2.0358887,10.4448242,3.1722412
	c23.3183594-21.8243408,39.9282227-33.0880127,46.9697266-30.7545166
	c6.2827148,2.0820312,12.5434265,24.7773438,7.1308594,44.7860107c2.0380554-0.6470947,5.2411804-4.5296631,6.8266296-7.1827393
	c0.6474609,8.2827148-4.2270508,21.9732666-15.7485046,39.3786621c4.9853516,3.2351074,14.0800476,3.3659668,18.082489,4.0924072
	c-4.0307617,2.5906982-9.0033875,4.0004883-16.2118835,4.0004883c2.3881836,2.0684814,10.0087585,4.7355957,21.6459656,3.2657471
	c-1.4980469,2.4550781-8.1157227,6.0422363-12.9140625,6.7602539c4.2231445,1.3391113,9.5673828,1.2966309,20.1337891-1.2524414
	c-3.1416016,5.0599365-11.9746094,12.5243988-23.72995,15.6771088c8.6601257,1.7780762,18.4706726,11.3062744,20.9340515,16.791626
	c-3.6318359-1.6057129-11.8266602-3.1586914-13.9931641-3.2463379c3.703125,2.604248,9.9672852,7.1447754,12.8110352,12.8322754
	c-6.0166016-2.1269531-15.3730469-5.0310059-22.2172546-5.5725098c5.2304688,3.4816895,11.2343445,8.970459,15.5307312,15.7485352
	c14.6542969,1.119873,34.3481445,2.6164551,36.4921875,2.7351074
	C561.3364868,299.9989624,570.921936,300.5275269,571.9751587,301.866394z"/><path class="st0" d="M422.174408,280.1134644c0.1791992,1.2832031-2.0097656,4.0446777-3.1503906,4.111084
	c-1.0317383,0.0600586-1.4482422-0.0310059-2.2441406,0.2062988c-1.1704102,0.348877-2.8735352,3.9936523-4.5009766,3.9936523
	c-1.6704102,0-3.3417969-3.644043-4.5136719-3.9936523c-0.7963867-0.2373047-1.2124023-0.1462402-2.2441406-0.2062988
	c-1.140625-0.0664062-3.3300781-2.8278809-3.1513672-4.111084c0.2792969-1.9995117,4.3066406-3.6347656,9.9023438-3.6347656
	C417.9239197,276.4786987,421.8955994,278.1139526,422.174408,280.1134644z"/><path class="st0" d="M387.280365,260.0245972c1.1699219,0.7735596,4.2275391,3.5162354,6.3178711,5.5839844
	c-2.1611328,11.3845215-11.9038086,19.9772949-23.5996094,19.9772949c-13.2832031,0-24.0517578-11.0803223-24.0517578-24.7485352
	c0-5.0053558,1.4487305-9.660141,3.9316406-13.554306c3.5908203,0.006958,6.9790039,0.2177734,10.2060547,0.6639404
	c-3.0742188,3.0397949-4.9931641,7.3251953-4.9931641,12.0776215c0,9.2182617,7.2060547,16.690918,16.0947266,16.690918
	S387.280365,269.2428589,387.280365,260.0245972z"/><path class="st0" d="M474.6734314,247.294632c2.4780273,3.8918457,3.9238281,8.5423584,3.9238281,13.5427094
	c0,13.6682129-10.7680664,24.7485352-24.0512695,24.7485352c-12.1577148,0-22.2026367-9.2844238-23.8183594-21.3376465
	c0.6914062-0.6604004,1.3823242-1.3012695,2.0722656-1.9182129c1.0834961,8.1264648,7.8037109,14.385498,15.9379883,14.385498
	c8.8886719,0,16.09375-7.4726562,16.09375-16.690918c0-4.5366058-1.7475586-8.647934-4.5795898-11.6564789
	C464.7193298,247.5513458,469.4825134,247.2179718,474.6734314,247.294632z"/><path class="st0" d="M441.8091736,258.6151733c0-2.3564453,1.3642578-4.2667084,3.0473633-4.2667084
	s3.0478516,1.9102631,3.0478516,4.2667084c0,2.3565674-1.3647461,4.2668457-3.0478516,4.2668457
	S441.8091736,260.9717407,441.8091736,258.6151733z"/><path class="st0" d="M372.0196228,258.6151733c0-2.3564453,1.3642578-4.2667084,3.0473633-4.2667084
	s3.0473633,1.9102631,3.0473633,4.2667084c0,2.3565674-1.3642578,4.2668457-3.0473633,4.2668457
	S372.0196228,260.9717407,372.0196228,258.6151733z"/></g></svg>