<svg xmlns="http://www.w3.org/2000/svg" viewBox="0 0 100 100"><g transform="translate(8.028621546895728, 1.000000000000007) scale(0.27017340721748956) translate(0.5295531896840089, 1.4300000000000002)"><path d="M63.46,266.17A35.78,35.78,0,0,0,61,269.72c-2.71,5.23-4.1,10.91-5.29,16.62-1.44,6.91-2.84,13.83-4,20.79-1,5.94-1.58,11.95-2.47,17.91-1.06,7.17-2,14.37-3.5,21.44-.57,2.65-2.33,5.2-4,7.41-2.07,2.67-4.29,2.25-6.82-.87l-4.47,4.7c-3.14,0-3.34-2-4.07-3.7l-3.84,1.29c-3.36-.84-4.61-3.15-4.34-6.37.41-5.13.76-10.27,1.46-15.36,1.18-8.59,2.28-17.21,4-25.69,2.75-13.42,2.23-26.95,1.95-40.47-.12-6-1.16-12-1.78-18-.11-1.06-.23-2.13-.27-3.2a249.1,249.1,0,0,1,1.18-33.11c.37-4.18,1.2-8.32,1.81-12.41,4.78,1,9,2.39,13.33,2.63s8.69,2.65,12.83-.59c-.64-2.92-2.86-2.54-4.71-2.46a53.86,53.86,0,0,1-16.31-2.18,27.76,27.76,0,0,1-12.42-6.88c-2.56-2.49-5.43-4.65-8-7.13A35.52,35.52,0,0,1,0,156.3a47.75,47.75,0,0,1,4.78-18.4c4.37-9.45,10.6-17.65,17.44-25.72.73-8,1.83-16.18,6.33-24.11,1.33,1.15,2.43,1.75,3,2.67,2.61,4.22,5.09,8.52,7.6,12.8,1,1.68,1.93,3.39,3,5.3,10.12-2.34,19.27,1.24,28.2,5a198.28,198.28,0,0,1,20.34,10.48c3.2,1.83,5.9,4.53,9,6.95,6.76-2,13.61-4.72,21.71-4-2.28,8.85-8,15.07-11.87,22.39,3.45,8.6,4.92,17.52.72,26.21-2.36,4.89-6,9.15-9.25,13.62a39.08,39.08,0,0,1-3.45,3.74c.56,2.33,1.89,2.45,3.29,1.54A12.56,12.56,0,0,0,104,192c4.3-5.63,8.75-11.18,11.32-18.4,3.71,0,7.43-.06,11.15,0,7.89.16,15.57-1.42,23.3-2.63,20.5-3.2,40.54-8.54,60.76-13.05a73.82,73.82,0,0,1,12.68-1.53c5.53-.27,11.07-.18,16.61-.09,12.18.18,23.58,2.89,33.39,10.59a16.83,16.83,0,0,0,2.1,1.16c4.36-6.79,7.73-13.69,9-21.92,2.21-14.73-3.08-26.56-12.6-37-5.29-5.79-11.3-10.91-16.67-16.64a146.34,146.34,0,0,1-12.69-15.12,34.57,34.57,0,0,1-6.44-22.14,37.16,37.16,0,0,1,1-6.28C240,34.66,246,21.7,255.7,10.68c4.38-5,9.62-8.95,16.37-10.42,7.72-1.69,14.37,5.18,11.93,12.59-.82,2.5-2.31,4.77-3.49,7.15-2.05,4.12-4.89,8-6,12.39-2.92,11.6-1.95,23,4.55,33.41,4.05,6.5,8.41,12.81,12.52,19.27,3.54,5.55,7.08,11.11,10.34,16.83,6,10.46,8.25,21.85,8.13,33.82a78.46,78.46,0,0,1-4.59,26.65,59,59,0,0,1-14.69,21.76c1,5.63,2,11.38,3.14,17.08a53,53,0,0,1-.85,23.74c-4.07,16.55-9.7,32.56-17.87,47.58a13.82,13.82,0,0,0-1.43,10.23,29.64,29.64,0,0,1,.41,7.42,87.46,87.46,0,0,1-.95,11.68c-.87,5-1.65,10.21-3.56,14.87-4.44,10.8-9.54,21.32-14.33,32-.73,1.6-1.25,3.29-1.88,4.94-2.17,5.7-4.13,6.42-9.52,3.54L239.84,360l-4.63-2.95a7.62,7.62,0,0,1-1.53,1.26c-4.17,1.84-7.5-.57-7-5.38a119.4,119.4,0,0,1,2.26-14.7,193.88,193.88,0,0,0,4.71-32.05c.56-9.88-3.06-18.75-6.9-27.55-3.26-7.46-7.22-14.72-8.3-22.9a76.14,76.14,0,0,1-.43-15.39c.27-3.82,1.77-7.54,2.58-11.34a20.36,20.36,0,0,0,0-3.94c-3.26,1.65-4.29,4.61-5,7.37-2.91,11.43-3,22.8,1.7,33.9,1.85,4.4,3.59,8.85,5.52,13.62A81.37,81.37,0,0,1,207,284.86c-9,1.86-18,4.19-27.09,5.1-7.55.75-15.27-.15-22.91-.53-3.89-.19-7.75-.91-11.63-1.3a181.83,181.83,0,0,1-24.47-4.7c-5.79-1.43-11.61-2.88-18.08-2.91-.67,2.92-1.23,5.63-1.92,8.3-2.66,10.42-5,20.93-8.16,31.21C90,329,86.49,337.67,83.16,346.41a22.21,22.21,0,0,1-3.28,5.43c-2.95,3.85-4.63,4-8.75.8-1.16,1.11-2.31,2.22-3.48,3.31a13.71,13.71,0,0,1-1.48,1L61,354.22c-1.46,1.09-3,3.46-6.28,2a8.74,8.74,0,0,1-1.7-8.22c2.94-11.47,5.68-23,8.33-34.53,1-4.47,1.73-9,2.39-13.57,1.32-9.13,3-18.23,2.69-27.53C66.4,270,66,267.9,63.46,266.17Zm12.45-103.9C73.57,154.19,69.5,151,62.81,152c-4.53.64-9.23,6.2-9.22,10.91a11.13,11.13,0,0,0,9.29,10.63C68.74,174.31,75,170.82,75.91,162.27ZM37.5,142.91a10.16,10.16,0,0,0-10.43-10.39,10.81,10.81,0,0,0-11,10.65c.06,5.71,5.54,11,11.16,10.75C32.66,153.7,37.54,148.45,37.5,142.91Z"/><path d="M186.2,357.71,181,361.3l-3.83-4.2L172.66,360,169,357.1a53.59,53.59,0,0,1,1.32-7.13c1.58-4.87,3.25-9.72,5.26-14.41,5.51-12.83,8.21-26,5.63-39.95a9.71,9.71,0,0,1,.13-2c14.23-3.69,29.14-4.72,42.5-10.25a5.49,5.49,0,0,1,2,6.38c-2.79,10.57-5.44,21.19-8.46,31.7-4.06,14.11-12.2,25.91-21.78,36.79a5.43,5.43,0,0,1-3.22,1.56C190.15,360.1,187.62,360.74,186.2,357.71Z"/><path d="M78.07,81.31V99.64L93.21,86.23c2.43,3.38.16,6.16-.11,8.93s-1.27,5.35-2.09,8.62l15.16-10.15c0,1.82.29,2.88,0,3.68-3.52,8.45-7.14,16.86-10.85,25.55-11.5-6.41-22.6-12.53-34.92-15.93C65.32,94.85,72.84,83.87,78.07,81.31Z"/><path d="M60.22,156.75c6.62-1.32,10.28,0,11.46,3.94,1.33,4.46-.92,7.58-6.77,9.41C57.34,167.58,55.88,163.65,60.22,156.75Z"/><path d="M34.31,143.28c-2.48,5.34-5.26,7.31-8.72,6.37a6.91,6.91,0,0,1-5.23-7.12A6.75,6.75,0,0,1,26.24,136C29.69,135.52,32.54,138,34.31,143.28Z"/></g></svg>