<svg xmlns="http://www.w3.org/2000/svg" viewBox="0 0 100 100"><g transform="translate(0.9999999999999929, 14.341689101885343) scale(0.3214487595611165) translate(0.23974077548875528, 0.4299999999999997)"><path d="M139,221.11c-1.38,0-2.77,0-4.15,0-11.23.32-22.18-1.57-33.1-4-5.54-1.25-10.95-2.77-15.84-5.64a67.62,67.62,0,0,1-8.6-6.06,19.94,19.94,0,0,1-6.52-10.85A30.83,30.83,0,0,1,72,174.33a17.67,17.67,0,0,1,10.64-10.17c6.79-2.51,13.83-2.49,20.92-2a3.38,3.38,0,0,1,1.31.36c9.89,5.17,20.78,7.12,31.47,9.58,18.54,4.27,37.42,4.94,56.3,3.71,21.9-1.44,42.47-7.43,60.83-20a79.26,79.26,0,0,0,14.32-12.93,8.38,8.38,0,0,0,1.73-3.13c.36-1.21.15-2.7-1.2-3.13a7.08,7.08,0,0,0-3.46.2c-.51.11-.93.76-1.33,1.23-11.19,13-25.56,20.87-41.76,25.62a136.75,136.75,0,0,1-35.26,5.83c-3.37.07-6.74.75-10.08.59-6.42-.29-12.82-1-19.24-1.5a160.75,160.75,0,0,1-27.57-4.75A195.63,195.63,0,0,1,110.32,158c-7.28-2.71-14.55-3-22.13-1.86-6.77,1-12.67,3.38-17.35,8.45-.9,1-1.53.49-2.24-.2-2.87-2.79-5.73-5.58-8.63-8.32a13.86,13.86,0,0,0-3.21-2.55c-.82-.4-2.37-.51-2.89,0a4.12,4.12,0,0,0-1.08,3.17,6.56,6.56,0,0,0,1.94,3c3.38,3.57,6.79,7.11,10.3,10.55a2.5,2.5,0,0,1,.77,3.13c-.93,2.73-1.47,5.6-2.17,8.42-1.4,5.71,0,11.24,1.1,16.8.46,2.32.25,2.63-1.7,1.73a100.54,100.54,0,0,1-11.47-5.73c-9.63-6-18.88-12.6-26.61-21.06A77.65,77.65,0,0,1,5.73,136.06a85.47,85.47,0,0,1-1.8-12.2c-.38-6.64,1.18-13.06,3.4-19.27a5,5,0,0,0-.46-4.68A51.64,51.64,0,0,1,.38,79.56a64.31,64.31,0,0,1,.4-17c.88-5.66,2-11.15,4.8-16.11a121.22,121.22,0,0,1,8.52-13,7.31,7.31,0,0,0,1.75-5c-.08-2.3,0-4.61,0-6.91.05-5.57,1.66-10.79,3.8-15.83,1.46-3.43,2-3.45,5.65-2.61s6.6,3,9.6,5.08A13.2,13.2,0,0,1,37,10c1.77,1.86,3.44,1.53,5.65.51a62.14,62.14,0,0,1,22-5.37,102,102,0,0,1,14.64.29,52.3,52.3,0,0,1,18,4.74c1.94.88,2.92.44,4.42-.73,4-3.1,8.15-5.88,12.19-8.87,1.34-1,2.1-.62,3,.56,3.63,4.7,5.52,10.16,6.72,15.84,1,4.79,1.63,9.64.54,14.56a3.72,3.72,0,0,0,.81,2.4c1.61,2.43,3.6,4.64,4.93,7.2a31.88,31.88,0,0,1,3.83,12.64c.11,1.68.85,2.8,2.4,2.75a2.41,2.41,0,0,0,2.37-2.83,21.44,21.44,0,0,0-.41-4.56c-1.53-5.27-2.78-10.67-6-15.24-1-1.39-.49-2.06.78-2.83A96.61,96.61,0,0,1,161,19.21c5.78-1.32,11.58-2.73,17.45-3.54C205.4,12,230.2,17,251.89,34.19c15.84,12.56,26.94,28.25,31.71,48.1.53,2.22,1.46,4.48,1.36,6.68-.13,3,1.44,4,3.66,5.4a29.6,29.6,0,0,1,11.82,13.11c1.1,2.38,1.32,5.25,3.67,7.08.52.4.44,1.7.46,2.58a52.35,52.35,0,0,1-4.83,22.17A115.4,115.4,0,0,1,273,176.77c-13.26,12.45-28.72,21.12-45.52,27.77a213.2,213.2,0,0,1-37.95,11.54c-7.32,1.42-14.68,2.66-22.15,3.39C157.94,220.39,148.51,221.39,139,221.11ZM74.73,62A22.28,22.28,0,0,0,96.34,84.38c12.21.38,22.57-10.14,22.94-22.78.28-9.43-6.92-21.85-22.18-22.16C85.45,39.2,74.84,48.54,74.73,62Zm-9.88-1.9c.68-11.25-9.6-22.58-22.95-22.55-12.66,0-24,9.89-24.1,22.8A23.1,23.1,0,0,0,41.38,83.54C56.62,83.37,65.64,69.87,64.85,60.07Z"/><path d="M96.56,74.71c-7.8.48-13.67-7.29-13.65-14.22,0-6.45,6.86-13,14-13,5.92,0,13.76,5.66,13.64,14.48C110.44,70.27,103.09,75.14,96.56,74.71Z"/><path d="M41.33,75.42c-8.37,0-15-6.27-15-15.25,0-8.54,5.6-15.54,14.74-15.64,8.77-.09,14.69,7.21,15.09,16C56.49,68.86,49.62,75.45,41.33,75.42Z"/></g></svg>