<svg xmlns="http://www.w3.org/2000/svg" viewBox="0 0 100 100"><g transform="translate(20.632065903967455, 1) scale(0.20460468942092552) translate(0, 0.5599999999999999)"><path d="M264.41,398.82l-3.1,2.65c-3.06,1.16-5.33.12-7.3-2.44-.69.23-1.3.49-1.94.64-3.29.72-4.93-.07-5.39-3.17a55.43,55.43,0,0,1-.84-11.18c.63-11,2-22,2.35-33,.2-7.25-.91-14.54-1.54-21.8-.86-10-3.83-19.47-7.52-28.73a16.38,16.38,0,0,0-1.89-3.54c1.45,7.1.9,14.24.63,21.3a226.6,226.6,0,0,1-2.3,24.94,217.73,217.73,0,0,1-5.23,25.44,95.18,95.18,0,0,0-3,26.36A113.31,113.31,0,0,0,234,434.4c2.73,7.46,5.79,14.92,6.51,22.92.52,5.77-.69,11.31-4.67,15.89a13.36,13.36,0,0,1-12,4.58A24.42,24.42,0,0,1,205,466.18a15.8,15.8,0,0,1-1.76-3.29c-3.5-10.24-7.27-20.37-7.1-31.51A294,294,0,0,1,199,396.82c2.11-15.69,6.06-31,9.55-46.36,3.08-13.53,3.06-27.22,2.52-41a6.51,6.51,0,0,0-.25-1.58c-.29-1-.65-2-1.13-3.49-3.42,6.1-6.57,11.91-8.16,18.39-3.66,14.95-7,30-10.81,44.89-2.61,10.29-5.46,20.53-8.66,30.65-1.32,4.15-3.85,7.91-5.81,11.8H161.41c-2.44-1.1-2.9-3.22-2.76-5.72.42-7.65.93-15.3,1.11-23,.18-7.31.32-14.66-.15-22-.63-9.58-1.94-19.11-2.82-28.67-1-11-3.12-21.87-2.49-33a126.29,126.29,0,0,1,4.52-28.27c-1.22-1.64-2.61-3.45-3.94-5.3-15.78-21.86-29.24-45-39.07-70.17-2.25-5.75-5-11.31-7.48-16.81-4.66-.59-8.88-1-13.07-1.66-31.8-4.86-60.1-16.85-82.15-41.06-4.39-4.82-7.82-10.53-11.49-16A16.49,16.49,0,0,1,0,114.15c1.57-3,2.48-5.23,3.89-7.13,1.29-1.75,3.13-3.11,5.32-5.2,2.13-.91,4.51.32,6.48,2.23,12.53,12.1,27.8,20.28,42.35,29.45A61.74,61.74,0,0,0,79.73,142a45,45,0,0,0,15.46.2v-2.69a43.94,43.94,0,0,0-4.79-.2c-9.32.6-17.87-2.09-26.14-6-1-.46-1.9-.94-2.84-1.45-13.54-7.3-11.16-4.55-17-18.85a73.85,73.85,0,0,1-5.77-29.53c0-2.27.53-4.54.86-7.17,3.43.46,5.72-4.09,9.6-1.28v13.8c.94-.42,2.09-.57,2.31-1.11a14.61,14.61,0,0,0,1.08-4.55c.17-2.48,0-5,0-7.55a12.45,12.45,0,0,1,8-3.9,10.82,10.82,0,0,0,4-1.09c.6-.34.66-1.64,1.32-3.5l-15.44,5c-2.84-1.91.27-6.36-2.47-9.07A39.91,39.91,0,0,1,64.66,55.9C72.48,54.49,80.4,53,88.44,53.51c4,.28,8.1.8,12.13,1.39C107.72,56,111.71,61.48,116,66.41c2.29,2.67,4,5.88,6,8.77a14.16,14.16,0,0,0,2.4,2.15l1-.57c-.19-1.09,0-2.43-.64-3.22q-5.1-6.83-10.54-13.4c-1.79-2.17-4-4-5.83-6.14Q95.84,39,83.52,23.91a31.32,31.32,0,0,1-3.33-4.79,5.56,5.56,0,0,1-.8-3.53,47.24,47.24,0,0,1,2.88-8.88c.45-1,2.25-1.39,3.81-2.28L88.88.15c4-.71,6.86,1.23,9.5,3.22,8,6,15.9,12,23.66,18.29a155.7,155.7,0,0,1,24.82,25.07,138.62,138.62,0,0,1,13.72,20.34c4.32,8.19,10.59,14,18,19.13a267.87,267.87,0,0,1,39,32.46c9.21,9.44,18.38,19,26,29.8,17,24,30,50,37.67,78.45a112.17,112.17,0,0,1,3.95,22.53c.46,7.46,1.58,14.89,1.73,22.35.14,6.75-.62,13.52-1,20.28-.21,3.38-.75,6.74-.77,10.11a193.82,193.82,0,0,1-2,25c-1,7.39-1.5,14.86-2.35,22.28-.67,5.82-1.48,11.62-2.32,17.42-.95,6.5-1.82,13-3.08,19.47a35.36,35.36,0,0,1-3.17,8.95C270.5,398.81,268.53,399.47,264.41,398.82Z"/><path d="M39.76,73.42c.05-5.27,2.44-7.84,6.15-10.52.15,2.89.27,5.22.42,8.1Z"/></g></svg>