<svg version="1.1" id="Layer_1" xmlns="http://www.w3.org/2000/svg" xmlns:xlink="http://www.w3.org/1999/xlink" x="0px" y="0px" viewBox="0 0 100 100" style="enable-background:new 0 0 4000 4000;" xml:space="preserve"><style type="text/css">
	.st0{fill:#181412;}
</style><g transform="translate(2.7260006422641396, 1) scale(0.025795854764073214) translate(-212.5299999999991, -101.64000000000044)"><path class="st0" d="M2426.64,3557.22c-2.4,2.54-0.56,6.63,2.82,6.63c386.36-1.69,713.08-182.75,867.63-543.31
	c56.4-131.42,85.73-266.79,87.85-406.25c8.04-517.5-405.12-842.53-861.84-968.45c-137.06-37.79-265.66-63.17-389.47-128.88
	c-263.69-139.74-420.35-428.38-358.3-726.62c46.96-226.6,262.84-418.09,505.23-365.21c190.79,41.74,316.28,232.1,244.09,423.73
	c-12.83,33.84-33.56,63.17-62.19,87.99c-48.65,41.88-103.08,57.67-163.43,47.38c-7.75-1.41-15.09-4.65-21.29-9.59l-63.03-49.64
	c-12.27-9.59-2.96-29.33,12.27-25.81c33.14,7.62,68.53-1.27,106.46-26.51c27.78-18.47,44.42-42.58,50.2-72.34
	c18.33-95.18-34.26-176.4-131.98-186.98c-105.47-11.42-188.81,79.95-210.39,177.53c-9.73,44.14-8.18,89.12,4.79,135.09
	c74.45,263.83,332.36,281.17,569.68,283.14c286.95,2.54,556.84,136.21,754.68,332.78c347.87,345.61,507.35,898.65,319.95,1367.64
	c-174,435.44-582.51,677.41-1043.46,716.61c-91.23,7.75-190.93,10.58-298.94,8.18c-6.49-0.14-12.97,1.97-18.33,5.78
	c-268.34,193.18-602.67,223.92-919.23,215.04c-61.9-1.83-81.64-30.74-59.65-87.99c30.6-79.67,102.51-98.85,184.72-87.29
	c66.41,9.45,155.25,25.95,213.06-13.11c17.06-11.56,37.37-26.79,60.92-45.69c4.09-3.38,2.12-10.01-3.1-10.58
	c-283.85-34.41-464.06-281.17-582.37-513.69c-1.13-2.26-3.95-3.53-6.35-2.68c-2.54,0.7-4.09,3.24-3.67,5.78
	c32.43,208.27,37.37,414.99,14.81,620.3c-8.74,80.66-51.33,132.55-129.73,160.33c-44.14,15.65-84.75,20.17-121.69,13.26
	c-37.65-6.91-85.45-58.52-51.47-99.55c41.17-49.64,112.81-41.46,169.35-28.48c12.13,2.68,24.25-4.23,28.06-15.93
	c7.19-22.14,15.23-51.47,17.06-72.48c17.91-207.71,4.23-411.32-40.75-611.13c-12.83-57.25-42.87-144.81-90.1-177.81
	c-3.53-2.4-8.46-0.84-9.87,3.24c-2.96,8.6-3.53,25.52-1.69,50.48c14.95,203.47,27.64,374.24,13.4,546.27
	c-5.78,69.8-34.55,179.93-103.22,216.02c-62.04,32.72-152.57,38.21-205.73-16.36c-9.17-9.45-13.4-19.46-12.69-30.03
	c3.24-53.3,74.59-76.85,121.69-76.85c18.75,0.14,39.2,1.69,61.34,4.94c16.92,2.54,33.42-7.47,38.92-23.69
	c6.2-18.47,10.58-39.2,12.97-62.19c22.98-212.22-12.27-429.65-122.25-615.93c-46.39-78.54-119.15-121.41-173.44-167.38
	c-113.09-95.46-170.76-215.6-172.88-360.7c-3.1-216.73,121.69-357.46,241.27-520.04c60.07-81.79,88.27-154.69,60.21-250.57
	c-30.32-103.92-108.58-100.82-182.33-126.77c-175.41-61.9-292.73-163.43-333.91-343.92c-28.77-125.92-1.83-232.24,87.43-325.73
	c5.08-5.36,38.07-25.8,99.13-61.2c204.04-118.59,295.41-406.11,342.93-620.86c1.13-5.36,8.74-5.5,10.29-0.28
	c15.37,51.19,28.06,93.07,37.93,125.36c26.79,87.71,68.53,184.3,85.45,275.81c0.99,5.78,8.32,7.47,11.99,2.96l250.71-318.68
	c2.4-2.96,7.19-1.41,7.33,2.4c4.65,162.72,2.96,314.03,72.76,445.87c18.47,34.83,55.13,86.3,109.7,154.69
	c25.95,32.43,45.55,78.68,52.17,121.83c26.93,174.99-21.15,318.4-144.25,430.22c-72.9,66.28-192.62,113.09-231.11,210.1
	c-24.96,63.03-25.52,131.14-1.41,204.32c91.51,278.35,327.42,359.57,599.57,338.84c281.74-21.57,570.38-26.37,797.69,170.48
	c166.25,143.97,254.94,328.83,266.08,554.59C2709.93,3111.77,2620.24,3355.58,2426.64,3557.22L2426.64,3557.22z"/></g></svg>