<svg xmlns="http://www.w3.org/2000/svg" viewBox="0 0 100 100"><g transform="translate(1, 4.052116510839383) scale(0.25172094934758044) translate(6.26, 1.0000000000000089)"><path d="M14.07,119.49c-3.83-5.32-8-9.89-10.76-15.16-9.57-18,2.94-40.93,20.6-43.14,5.27-.66,10.54-1.42,15.81-2.06,9-1.11,18-1.91,26.88-3.36,3.59-.58,7-2.33,10.39-3.88,16.77-7.74,30.68-19.29,43.18-32.7,6.23-6.68,12.92-12.83,21.25-16.77,5.44-2.57,11.18-3.42,17-.93a14.73,14.73,0,0,1,6.95,6.35c4.13,6.93,5.26,14,2.49,21.9a46.37,46.37,0,0,1-10.06,16.79c-9.58,10.13-19.71,19.59-32.16,26.3-7.75,4.17-16.13,6.44-24.48,8.68a127.16,127.16,0,0,1-19.33,3.3c-7.08.75-14.22.76-21.33,1.25-6.95.48-13.7,1.31-19.37,6.27-3.76,3.29-5.44,7.34-6.5,11.89a4.28,4.28,0,0,0,.23,2.6c1.24,2.71,2.66,5.33,4,8.06,2.39,0,4.34-.07,6.29,0,8.73.33,17.57,0,26.16,1.28A137.08,137.08,0,0,1,97,122.77c9.79,3.51,19.19,8.13,28.73,12.34,10.89,4.81,20.1,12.15,28.74,20.11a265,265,0,0,1,34.7,38.46c5.33,7.32,10.84,14.52,16.18,21.84a22.31,22.31,0,0,1,2.42,4.68c1.55,3.76,2.85,7.62,4.48,11.35a16.78,16.78,0,0,1,1.15,7.82,75.58,75.58,0,0,0,4.54,30.85A59.07,59.07,0,0,0,238.73,298c5.06,3.65,10.92,5.59,17.87,6.55-.53-1.35-.62-2.54-1.2-2.88a15,15,0,0,0-4-1.35c-8.92-2.24-15.24-8.09-20.87-14.91-7.31-8.88-11.13-19.12-12.87-30.47-.94-6.07-.64-12.06-.94-18.09a16.06,16.06,0,0,0-.78-4.64c-1.67-4.64-3.58-9.2-5.29-13.83a13.07,13.07,0,0,1-.3-3.25l5-3.11,16,8.55c20.45-8.56,41.47-11.66,63.23-2.89l10.58-6.36c5.23,2.2,6.3,3.59,5.9,8.79-.29,3.68-1.09,7.32-1.76,11.56a41.47,41.47,0,0,1,8.58,17.5,39.91,39.91,0,0,1-4.39,30.29c-2.15,3.63-6.24,6.3-9.85,8.84-7.24,5.11-14.55,10.21-23.37,12.42a11.81,11.81,0,0,0-2.46,1.3c.25.73.47,1.36.8,2.34,13-2.9,23.41-10,33.78-18.5l10.28,8.26c11.88,9.57,23.73,19.16,38.24,24.67,4,1.51,7.9,2.88,12.28,3,5,.1,8.14,3,9.87,8.14L380.08,334l2.95,4.82c-.55,1-1,1.95-1.6,3.05l-6.31.38-3.72,4.6a16.76,16.76,0,0,1-.57-2.9c0-1.41.24-2.81.34-3.92a12.34,12.34,0,0,0-11.41-6.34c-6.59.07-12-2.6-17.51-5.56q-13.59-7.31-27.21-14.59c-1.7-.91-3.5-1.64-5.27-2.46l-1.66,1.47c.13.47.13.87.33,1.1a4.76,4.76,0,0,0,1.25,1c11.57,6.21,23.11,12.47,34.75,18.56a30.12,30.12,0,0,0,13.17,3.72c3.65.12,7.93.18,10.55,4.19l-2.05,4.3c1.31,1.66,2.56,3.26,4,5.06-.84,1.17-1.54,2.15-2.28,3.2l-4.91.46c1,2.42,2.64,4.53,1.33,7.35-2.26,1.7-4.61,2.58-7.72,1.17-4-1.81-8.34-2.9-12.36-4.69a97.86,97.86,0,0,0-26.43-7.42c-10.53-1.46-21-3.55-31.49-5-29.53-4.12-57.42-14.05-85.39-23.75-6.68-2.31-13.42-4.51-20.23-6.4-10.87-3-22-5.26-32.7-8.71-11.6-3.74-23-8.11-34.23-12.93-7.62-3.29-14.7-7.83-22.23-11.92.13-19.94-1.12-39.56-9.13-58.07-.75-1.73-1.8-3.33-2.79-5.12-2.49,1.9-1,3.61-.53,5.12,1.19,4.25,2.67,8.42,3.87,12.67a105.47,105.47,0,0,1,4.25,26.7c0,2.3.75,4.6.73,6.89,0,5-.45,10-.54,14.94-.15,7.31-.31,14.64-.16,21.95.15,7.65.28,15.34,1.13,22.93.54,4.85,2.42,9.56,3.61,14.35a14.56,14.56,0,0,1,.49,4.19c-.28,5.17-3.26,6.57-7.93,3.68l-2.29,3.59c-3,1.21-4.61-.54-6.25-2.08l-2.5,3.7c-3.94-.76-5.36-3.76-7.25-6.25-11.33-14.89-18.49-31.92-25-49.25-4.09-10.93-8.08-22-11.11-33.23-3.14-11.69-8-22.65-12.34-33.86a205.24,205.24,0,0,1-11.11-41c-1.39-8.42-3.13-16.82-4-25.29C1,151.55,3.85,135.65,13.07,121.23,13.45,120.64,13.77,120,14.07,119.49ZM267.12,261a12.33,12.33,0,0,0-12.35-12.11c-7.46,0-12.13,7.59-12.21,12.54-.11,6.25,6.3,12.27,12.57,12.09A12.43,12.43,0,0,0,267.12,261Zm30.17-15.2-2.25.69c-6.88,2.1-10.44,7.42-9.68,14.43a11.79,11.79,0,0,0,10.8,10.52c7.87.57,15.24-8,12.13-17.39C306.58,248.85,302.7,246.53,297.29,245.76Z"/><path d="M139.22,307.83c1.22,9.45,2.35,18.58,3.62,27.69.31,2.25,1.24,4.42,1.57,6.68.41,2.75.49,5.55.69,8.06-4.84,2.48-6.12,2.26-9.21-1.23-.74,1.64-1.47,3.26-2.14,4.73-3.39.45-4.61-2-6.38-3.81l-2.31,3.64c-4.17,1.14-6.72-.6-8.68-3.82a63.27,63.27,0,0,1-7.85-19.1c-1.63-7.23-3.24-14.46-4.68-21.73-1.12-5.65-2-11.36-3-17.42,6.86,3.18,13,6.22,19.33,8.9S132.66,305.3,139.22,307.83Z"/><path d="M253.54,168.94c5,1,9.69,1.21,14.08-1.37,6,7.16,15.6,32.41,16.53,43.65-15.24-1.6-30.39-2.25-45.39,3.53a11.48,11.48,0,0,1-.52-3.12,120.45,120.45,0,0,1,14.65-42.22C253,169.27,253.17,169.2,253.54,168.94Z"/><path d="M254.78,166a13.16,13.16,0,0,1-5.61-9.39c1.87-7.9,5.76-11.56,11.15-10.32,6.44,1.49,11.24,8,9.92,13.38C269,164.91,262.64,167.5,254.78,166Z"/><path d="M262.83,261.35c-.15,4.19-4.05,7.88-8.14,7.35-4.37-.58-7.42-3.45-7.11-8.33a7.46,7.46,0,0,1,7.69-7.18A8.38,8.38,0,0,1,262.83,261.35Z"/><path d="M297.66,250.22c7.59,2.51,9.6,9.9,4.12,15a7.24,7.24,0,0,1-12.14-4.87C289.22,255.28,291.73,252.12,297.66,250.22Z"/></g></svg>