<svg xmlns="http://www.w3.org/2000/svg" viewBox="0 0 100 100"><g transform="translate(24.12621805249108, 1) scale(0.22429735420671976) translate(2.05, 0)"><path d="M201.81,397l3,3.44c.5,6.56.42,6.76-4.52,10.75l.59,2.94c1,5.15-1.51,8.81-6.65,9.39a62.62,62.62,0,0,1-6.59,0c-2.62,2.47-4.76,5.94-8.84,6.23-3.54.25-7.11.05-10.08.05a9.57,9.57,0,0,0-1.44,1c-4.33,5.19-8.21,6.12-15.66,2.45-2.85-1.41-5.53-3.18-8.63-5-7,2.93-13.89,2.28-20-3.1l-5.86,1.55a22.41,22.41,0,0,1-12.13-5.89c-7.31,2.56-12.53-.7-17.07-5.94-7.51,2.21-12.86-.85-16.84-6.78-9.43,1.78-14.8-3.38-18.9-10.48C45,395.68,43,394.1,39.73,387.8c-7.35-3.24-9.37-5.65-10.91-13.06-6.32-3.19-8-5.35-9.61-12.9-5.32-2.35-12.28-3.95-10.16-12.38l-7-5.85c-1.38-3.89-.23-6.7,1.16-9.41a11.38,11.38,0,0,0,1.52-6.07C4.36,322.7,6,318,10.7,314.25c-1.86-4.71-.13-8.84,2.87-13-6.92-5.25-6.43-12.36-5-20.3-1.92-1.7-3.75-4.07-2.7-7.24-7.92-5.3-7.63-13.81-.17-18.26-.18-2.62-.79-5.23-.4-7.68s1.77-4.52,3-7.38c-1.9-2.15-3.63-5.53-2.37-9,1.16-3.2,3.58-5.94,6.14-10-.35-4.22,0-9.68,4.35-13.85-.22-3.69.21-6.93,2.9-9.56a5.24,5.24,0,0,0,.9-3c.46-4.24,2.21-7.46,7-8.58-1.06-5.1,1-8.79,5-11.64.94-7.1,1.86-14.26,9.91-17.71.83-12,6.92-20.44,18.9-24.53-.06-6.23,1.87-11.1,8.89-12.16-.36-7.73,2.59-12.93,10.72-14.3,1.93-6.73,5.61-11.46,13.27-10.82,2.2-2.5,4.06-5.18,6.47-7.21s5.11-3.1,8.11-4.84c-.45-4.56,1.14-9,3.81-13.09a8.51,8.51,0,0,0,.67-3c.36-1.88.69-3.77,1-5.66.12-.68.54-1.44.36-2-1.34-4.61.84-7.9,3.89-10.73.22-7.2,2.57-9.67,11-11.51,4.37-8.85,9-17.76,14.46-26.75,6.43,5.13,6.2,12.53,8.54,18.9l4.26-1.25,4,1.89c2.16-.25,4.21-.52,6.28-.7s4.07-.28,6.92-.48l4,2.93A18.23,18.23,0,0,0,180,30.31a18.85,18.85,0,0,0,1.9-2h4.88c1.36,1.64,2.72,3.26,4.35,5.2l5.56-2.18c3.93,4.52,10.11,1.75,14.68,4.08l15.39-9.85,1.46,1.6A77.79,77.79,0,0,1,221,46.76c2.28,2.94,2.06,7.23,5.29,10,.92.78,1.23,2.56,1.33,3.92.24,3-.44,6.05.92,8.94a1.61,1.61,0,0,1,0,1.06c-1.37,4-2.74,7.92-4.17,11.86-.23.65-.9,1.18-1,1.83-.87,4.21-3.91,6.6-7.41,8.92a25.84,25.84,0,0,1-.19,3.57c-.66,3.46-4.16,6.52-7.65,6a5.2,5.2,0,0,0-4.32,1.11c-4.19,3.27-8.42,3.35-12.74.24l-8.78,5.56-7.17-3.36V107c-2.4,0-4.89.4-7.17-.12-2.07-.48-3.89-2-5.81-3-1.94,2.85-.41,4.27,1.32,5.23a18.6,18.6,0,0,0,5.92,2.24c1.82.28,3.79-.28,6.07-.51,5.26,3.52,10.46,2.19,15.52-1.91,5.83,2.94,11,1.16,16.37-3.12-.16,3.38-.27,5.82-.43,9.44,1.35,3.63,4.13,8.31,1.23,14,5.2,5.78,3.63,12.89,3.35,19.9,6.35,5.67,4.9,12.36,2.32,19a17.83,17.83,0,0,1,.43,11.66c-.41,1.3-.17,2.8-.35,4.2-.42,3.3-.92,6.6-1.61,11.51,2,6,.95,13.39-2.82,20.43a7,7,0,0,0-.88,5.63c1.85,5.58.91,11-1.46,16.07a19.22,19.22,0,0,0-1.24,13.45c1.36,5.39-.44,10.54-2.78,16,.52,1.46,1.22,3.26,1.81,5.1.81,2.54,1.51,5,.52,7.8-.62,1.76-.14,3.89-.29,5.84-.21,2.64-.52,5.26-.85,7.88s-.56,4.88.59,7.32a12.68,12.68,0,0,1,.62,8.79c-.81,3.38-.28,7.09-.28,10.65,0,.89.35,1.78.29,2.65-.19,2.9-.69,5.76-3.62,7.21-2.63,1.3-4.77,0-7-1.94-1.33,1.76-2.7,3.6-5.32,3.38-2.47-.22-3.52-1.91-4.21-4.1-1.78,2.26-2.73,5.12-6.31,4.81-3.89-1.8-4.75-5.95-4.8-9.34a107.15,107.15,0,0,1,1.87-23.21c0-.18.07-.36.19-1-1.91-4.38-2.16-9.18.88-13.51L174,280.05c.57-1.94,1.1-3.8,1.66-5.65a35.54,35.54,0,0,0,1-15c-.52-4-.62-7.81.75-11.59,1.28-3.54,2.17-7,1.06-10.85-.91-3.16.49-6.3,1.4-9.37a14.44,14.44,0,0,0-2.34-13.16l-2,1c.23,2.94.58,5.72.61,8.5a12.29,12.29,0,0,1-.83,4.66A16.66,16.66,0,0,0,175,241c-.77,2.65-1.6,5.18-2.21,7.76a17.2,17.2,0,0,0-.79,5.76c.58,4.8.91,9.48-1.09,14.09a4.39,4.39,0,0,0,.06,3.15c1.57,3.67.39,6.94-1.06,10.24-1,2.31-1.89,4.58-.54,7.15a6.12,6.12,0,0,1,.32,3.15c-.4,4.58-.74,9.18-1.46,13.72-.25,1.62-.59,3,0,4.63a12.27,12.27,0,0,1,.51,4.21c0,3.7,0,7.41-.13,11.11-.15,5.74-2.58,7.38-8.52,5.61l-4.26,1.88-4-1.79-4.64,1a8.89,8.89,0,0,1-4.33-6.19c-2-8.46-3.84-16.93-4.33-25.64a17.7,17.7,0,0,0-1.11-5.18,12.18,12.18,0,0,1,1.91-12.55,12.56,12.56,0,0,0,1-2.36,50.61,50.61,0,0,0-1.95-5.12c-1.52-3.07-1.06-5.82.8-8.53,1-1.45,1.89-3,2.89-4.55a29.66,29.66,0,0,0-2.42-4.92c-3.31-4.51-2.14-8.68.64-12.81.49-.73,1.08-1.4,1.75-2.27-.8-3.71-2.39-7.52-2.18-11.22s2.25-7.23,3.59-11.15c-3.91-.79-4.66,2.6-5.77,4.82a17.63,17.63,0,0,0-2.08,7.61c0,2.75,1.16,5.5,2,8.88-4.64,6.35-5.89,13.41-.36,19.93-1.47,3.57-3.45,6.56-3.78,9.73-.32,3,1.12,6.16,1.91,9.84-.33.68-1,1.91-1.59,3.19a14.92,14.92,0,0,0-1,10.37c1.12,4.09,1.66,8.34,2.53,12.91-4.38.4-8-2-11.93-2.19s-7.76,0-12.37,0l-6.25-3.49c5.38-4.55,6.94-10.5,5.85-17,6.57-8.59,6.81-9.54,4.45-17.08,1.22-3,2.55-5.86,3.63-8.85a11.61,11.61,0,0,0-.31-8.81,9.56,9.56,0,0,1-.82-5c1.27-7.16,1.11-8.33-3.28-14.28,3.51-9.8,0-12.74-5.58-17.23,1-7.86-1.57-14.11-10.08-16.78-1.38.9-1.07,1.94-.06,3a5.58,5.58,0,0,0,1.3.93c4.7,2.65,5.92,6.94,5.24,11.85-.34,2.44.15,4,2.19,5.45,5.65,4,4.86,6.23,3.36,10.31-.43,1.14-.75,2.32-1.13,3.49a10.45,10.45,0,0,0,1.34,1.84c3.48,3,3.74,6.72,2.56,10.71-.58,2-1,3.84.16,5.65,2.6,4.2,1.52,8.15-.54,12.13-1.12,2.17-2,4.45-2.88,6.36,1,2,1.78,3.44,2.43,4.68,0,5.21-5.11,7.26-6.8,11.76,1.71,3.37,1.25,6.9-.6,10.37-2,3.7-6.2,3.83-9.06,5.47-1,2.67.88,3.66,2.23,3.7,4.56.12,8.09,2.24,11.63,4.73a5.15,5.15,0,0,0,4,.75c7.55-2.57,14.27.57,21,2.49,1.89,2.3,2.41,4.52.78,6.81l3.86,4.45-2.54,5.2c.53,1.67,1.13,3.58,1.69,5.36-4,3.4-8.11,2.75-12.17,2.31-1.4-.15-2.87-.77-4.18-.53-4.64.86-8.69-.29-12.72-2.56-1.33-.75-3.86-1-4.93-.24-3.69,2.64-7.15,1.29-10.7.19a30.53,30.53,0,0,1-4-1.9c-4.77,5-10.14,3.79-16,1.23-5.83,3.92-11.22,1.41-16.83-2.29-6.79,1.18-12-2.3-16.48-7.23-1.43-1.56-2.72-3.25-4.07-4.89l-.9.65,1.39,9.62c5.1,1.92,8.13,5.91,10,10.93a3.5,3.5,0,0,0,1.12,1.74c4.58,2.77,5.88,7.35,6.8,12.42l5.11.68,5.07,5.94c5.87-1.73,11.28-1,15.2,4.51,5.29.25,10.95-1.63,14.8,3.33,7.46-1.41,14.55-3.32,20.82,2.3,7.71-2.44,15.13-2.61,21.81,3,10.16-4.25,19.07-1.61,27.55,5,5.85-3.91,10.92,0,16.18,2.26a27.5,27.5,0,0,1,4.29,2.88c4.18-1.43,8.46-.5,12.32,1.9C202.67,388.09,202.25,392.59,201.81,397ZM149.23,64.27c-.42,7.58,6.58,11.93,11.7,12a12.11,12.11,0,0,0,12.19-12.15c0-6.87-5.41-12.72-11.93-12.33S148.72,57.42,149.23,64.27Zm67.65,5a10,10,0,0,0-10.36-10.34c-5.8.2-10.75,4.17-11,10.68-.23,5.67,5.28,11,10.88,10.9S216.88,75,216.88,69.25ZM126.69,86c-3.64,6.57,4.06,10.83,11.65,11,2.81,1.59,4.81,3.16,7.08,3.89,2.9.94,4.52.07,6.26-2.61l-6.52-.81-4.08-4.88c-3.5-.52-7.54.83-10.61-2.53C129.19,87.54,129.19,87.54,126.69,86Z"/><path d="M170.27.64c4.72,4.14,5.79,9.49,9.21,13.74,3.07-4.52,3.35-10.16,7.17-14.38,3.1,3.56,3.65,8.16,6.34,12.12l8.12-9c.29,1.46.78,2.55.65,3.56-.86,6.85-1.84,13.68-2.86,21L191.76,29c-2.21-3.84-5.85-4.61-10.51-3.89l-3.49,2.54c-3.49-2-3.49-2-8.72-1.07-.86-4.34-.48-8.73-.34-13C168.82,9.48,167.52,5.14,170.27.64Z"/><path d="M153.6,63.44A7.62,7.62,0,0,1,161.15,56a8,8,0,0,1,7.61,8.55A7.62,7.62,0,0,1,161.2,72C156.94,72,153.43,68,153.6,63.44Z"/><path d="M206.61,76.19c-5.3-1.87-7.43-4.38-6.84-8a6.72,6.72,0,0,1,5.66-5.59c3.65-.31,6.31,2.1,7.87,7.11C212.7,73.52,210.31,75.54,206.61,76.19Z"/></g></svg>