<svg version="1.1" id="Layer_1" xmlns="http://www.w3.org/2000/svg" xmlns:xlink="http://www.w3.org/1999/xlink" x="0px" y="0px" viewBox="0 0 100 100" style="enable-background:new 0 0 4000 4000;" xml:space="preserve"><style type="text/css">
	.st0{fill:#020202;}
</style><g transform="translate(8.233853212462307, 1) scale(0.025870762342729524) translate(-384.9499999999988, -80.87999999999951)"><path class="st0" d="M3037.32,2622.72c34.08-33.22,66.27-52.5,96.74-57.84c5.68-1.03,10.33-5.16,12.05-10.67
		c1.89-6.2,4.3-10.16,6.89-12.05c4.48-3.1,10.5,0,10.84,5.34c6.02,95.7-48.71,176.43-100.18,248.9
		c-12.05,16.87-12.57,39.42-1.21,56.8c40.8,62.66,110.85,144.76,156.3,235.48c1.03,2.07,0.35,4.47-1.38,5.68
		c-1.89,1.38-4.48,1.03-6.02-0.52c-78.32-80.73-142.53-166.45-192.62-257.51c-2.24-4.13-7.92-5.16-11.53-2.07
		c-27.71,24.27-51.98,58.35-72.81,101.9c-12.22,25.65-37.01,42.17-74.53,49.75c-35.97,7.23-66.61,26.16-91.92,56.8
		c-3.61,4.48-5.16,10.33-3.79,15.84l9.47,42.86c4.47,20.14-17.38,35.97-35.11,25.47c-42.52-24.96-128.24-32.19-185.56-30.12
		c-80.04,2.93-146.83-5.68-200.02-25.82c-6.03-2.24-12.91,0-16.52,5.33c-15.66,22.55-20.48,46.48-14.8,71.44
		c1.03,4.48,2.75,8.78,5.16,12.74c46.3,75.22,100.7,146.83,163.18,214.65c4.99,5.51-0.69,13.94-7.57,11.19
		c-97.08-38.38-189-85.72-275.75-142.01c-4.99-3.1-11.36,0.52-11.19,6.37c7.57,226.18,251.31,369.74,440.83,428.09
		c11.19,3.44,10.67,19.45-0.69,22.2c-116.88,28.06-229.79,46.65-339.1,55.6c-76.6,6.2-171.44,0.69-284.53-16.52
		c-190.38-29.09-370.77-120.32-511.23-244.25c-2.41-2.07-6.03,0.69-4.65,3.61c77.11,162.15,226.35,285.74,391.25,352.7
		c3.62,1.38,5.85,3.61,7.06,6.71c1.72,4.3-1.55,9.12-6.2,9.12c-133.92-1.03-240.47,1.03-365.44-39.93
		c-198.3-64.89-442.55-213.79-574.57-391.94c-23.93-32.19-52.16-71.78-84.86-119.11c-5.16-7.57-17.04-2.41-14.98,6.54l34.77,156.64
		c0.86,3.61-3.44,6.37-6.37,3.96c-48.54-40.62-74.02-57.32-109.3-101.21c-102.07-127.03-182.29-254.24-240.3-381.61
		c-7.75-16.87-16.87-27.37-27.54-31.67c-4.48-1.89-9.3,1.72-8.78,6.54l12.39,124.8c1.03,10.85-13.43,15.15-18.59,5.68
		c-51.3-95.19-92.26-198.47-95.53-312.76c-4.13-143.9,5.68-262.33,29.61-355.28c38.04-147.86,82.62-291.59,133.92-430.85
		c2.75-7.4-6.2-13.6-12.22-8.43l-110.51,95.36c-6.37,5.51-16.35,0-14.8-8.26c24.1-133.06,81.42-249.25,172.13-348.74
		c112.92-124.11,179.36-198.12,199.33-222.05c59.9-71.43,43.72-156.47,70.57-229.62c58.7-159.91,159.39-290.73,302.09-392.46
		c34.25-24.27,73.33-37.87,117.22-40.8c2.75-0.17,4.99,2.24,4.48,4.99c-16.87,106.38-23.07,213.96-18.59,322.75
		c0,1.21,1.03,2.24,2.24,2.24h0.17c1.55,0,2.75-1.21,2.75-2.58c6.71-128.93,20.48-236.34,40.97-322.4
		c16.87-70.4,49.4-149.58,97.77-237.2c83.31-150.79,186.93-289.87,318.79-399.86c47.51-39.76,198.81-139.77,251.31-56.11
		c20.66,32.7,34.26,71.26,40.62,115.67c24.96,171.44,58.18,338.93,99.66,502.28c16.01,62.83,66.62,139.43,140.63,103.62
		c48.02-23.24,108.79-61.45,182.11-114.64c73.5-53.36,189-145.97,346.16-277.65c59.21-49.57,114.64-91.06,166.28-124.28
		c7.92-5.16,18.59-1.03,21,8.09c17.56,64.72,10.16,126.69-22.03,186.07c-102.93,188.83-186.25,346.67-234.61,531.03
		c-15.15,57.49-2.24,106.55,38.56,147.17c147.86,146.83,258.71,263.53,327.4,435.84c25.3,63.52-13.43,150.79-49.57,209.14
		c-6.89,11.02-9.47,24.1-7.06,36.66l30.81,174.02c2.07,11.88,6.2,23.24,12.05,33.74c44.58,78.49,120.66,227.9,107.24,323.61
		c-1.89,13.25-16.18,20.83-28.4,14.98c-37.01-18.07-111.2-53.02-159.22-49.92c-11.19,0.69-13.08,16.18-2.41,19.62
		c64.55,20.14,88.82,61.79,72.81,124.8c-4.65,18.42-27.37,40.28-28.57,54.74C3029.4,2623.24,3034.39,2625.65,3037.32,2622.72
		 M2670.85,1504.9l60.42,153.54c0.69,1.72,2.58,2.75,4.3,2.41c1.89-0.52,3.1-2.07,2.93-3.96c-3.96-55.6-24.96-107.07-63.35-154.57
		c-0.86-1.03-2.24-1.2-3.27-0.52C2670.85,1502.32,2670.33,1503.69,2670.85,1504.9 M2137.24,1735.04
		c51.47,62.65,88.48,120.49,111.37,173.34c43.55,100.87,91.4,153.71,190.89,169.38c66.96,10.5,118.08-10.67,153.37-63.69
		c35.29-53.02,4.13-119.29-44.24-150.96c-4.65-3.27-11.19-0.69-12.57,4.82c-14.63,59.04-16.35,93.12-57.83,121.35
		c-56.29,38.21-89.85,0.69-94.85-56.46c-4.99-55.94,0.69-105.86,16.87-149.75c5.34-14.46-2.41-30.47-17.21-35.29
		c-78.84-25.65-158.88-34.43-240.12-26.34C2136.21,1722.13,2133.11,1729.87,2137.24,1735.04 M2261,2462.12
		c52.33,6.88,104.14,16.01,155.43,27.37c103.79,23.07,155.09,35.46,153.89,37.01c-0.17,0.17-0.34,0.17-0.34,0l1.38-4.13
		c0.34-1.21-0.34-2.58-1.55-3.1c-110.34-42.34-190.38-59.38-306.39-74.71c-116.02-15.15-197.95-19.28-315.34-6.88
		c-1.38,0-2.41,1.2-2.41,2.58l0.35,4.3c0,0.17-0.17,0.17-0.35,0c-0.69-1.89,51.98-0.52,158.19,3.96
		C2156.52,2450.76,2208.85,2455.24,2261,2462.12 M2514.04,2575.9c-52.16-5.51-113.09-5.68-182.8-0.69
		c-22.03,1.55-66.61-3.61-133.75-15.49c-1.72-0.34-2.93-1.72-2.93-3.44v-4.99c0-3.27,2.75-6.02,6.02-5.68
		c86.24,8.09,168.69,4.3,247.18-11.71c0.86-0.17,1.55-1.03,1.38-1.89c0-0.86-0.86-1.55-1.72-1.55l-263.88,0.17
		c-5.34,0-9.3,5.16-7.75,10.33c0.17,0.52,0.34,1.38,0.86,2.93c1.03,3.44-1.72,6.71-5.34,6.37c-66.44-7.75-144.24-6.02-233.24,5.16
		c-158.19,19.79-311.56,58.52-460.28,116.02c-0.69,0.35-1.03,1.03-0.69,1.55v0.17c0.17,0.86,1.03,1.38,1.89,1.21
		c172.3-40.28,334.45-69.89,486.44-88.99c72.47-9.12,174.54-7.92,306.22,3.27C2358.95,2596.04,2426.59,2588.12,2514.04,2575.9
		 M1982.49,2677.8c-159.74,35.29-335.31,88.99-471.98,179.36c-0.52,0.34-0.86,1.21-0.52,1.89c0.34,0.69,1.21,1.03,1.89,0.86
		c11.19-2.93,55.43-20.14,132.89-51.64c76.77-31.15,191.93-63.69,345.12-97.6c153.2-33.74,271.28-52.5,354.07-56.63
		c83.48-3.96,130.82-7.06,142.18-8.95c0.86-0.17,1.38-0.86,1.38-1.55c0-0.69-0.52-1.38-1.38-1.55
		C2324.35,2617.55,2142.4,2642.51,1982.49,2677.8 M1458.87,2673.5c-3.79-0.69-7.23,0.17-10.16,2.58c-2.75,2.41-1.89,6.89,1.55,8.26
		c1.21,0.52,4.13,0.17,8.78-0.69C1464.55,2682.45,1464.55,2674.53,1458.87,2673.5 M1624.98,3134.12
		c124.8-110.51,275.93-220.84,432.22-290.56c130.47-58.01,238.74-104.48,324.81-139.25c1.55-0.69,1.03-2.93-0.52-2.93
		c-37.01-2.41-71.95,1.21-105.17,11.02c-99.66,29.43-182.11,61.62-247.01,96.91c-157.5,85.55-293.83,192.44-409.16,320.85
		c-1.03,1.03-0.86,2.75,0.17,3.79v0.17C1621.54,3135.33,1623.6,3135.33,1624.98,3134.12 M2021.4,3187.82
		c1.21-0.86,30.98-33.56,89.51-98.29c104.83-115.84,270.59-208.62,408.47-305.53c24.27-17.04,44.75-28.75,61.62-34.94
		c3.79-1.38,5.85-5.34,4.99-9.3l-0.86-4.65c-1.21-5.51-7.23-8.78-12.57-6.89c-106.2,36.49-195.02,84.34-266.63,143.73
		c-97.94,81.25-209.31,192.27-289.53,310.7C2014.17,3185.93,2017.95,3189.89,2021.4,3187.82 M2111.77,2921.19
		c-81.76,69.54-179.19,164.39-223.94,261.3c-0.17,0.69,0,1.55,0.69,1.89c0.69,0.52,1.55,0.35,2.07-0.34
		c66.44-85.72,145.28-167.31,236.51-244.94c91.23-77.63,184.53-142.35,279.89-194.16c0.69-0.34,0.86-1.21,0.69-1.89
		c-0.35-0.86-1.21-1.21-1.89-1.03C2303,2770.58,2193.7,2851.48,2111.77,2921.19 M2910.63,2886.25
		c12.57-8.44,17.56-14.98,14.98-19.28c-2.41-4.3-0.17-9.64,4.65-11.02c21.17-5.68,33.22-21.69,36.32-47.85
		c0.69-5.33-6.37-7.92-9.29-3.44l-51.47,76.77C2903.74,2884.53,2907.53,2888.32,2910.63,2886.25L2910.63,2886.25z"/><path class="st0" d="M3432.7,2545.95c60.76,13.26,119.63,33.39,176.43,60.07c4.65,2.24,2.93,9.12-2.24,8.78
		c-59.04-4.3-122.21-28.57-180.22-41.31c-58.18-12.91-125.83-17.39-181.08-38.21c-4.82-1.89-3.44-8.95,1.72-8.95
		C3310.14,2525.98,3371.94,2532.52,3432.7,2545.95L3432.7,2545.95z"/><path class="st0" d="M3215.64,2595.62c4.3-7.5,78.49,27.96,165.6,78.99c87.09,51.04,154.05,98.54,149.75,106.02
		c-4.3,7.5-78.49-27.96-165.6-78.99C3278.3,2650.6,3211.34,2603.1,3215.64,2595.62L3215.64,2595.62z"/><path class="st0" d="M3220.17,2730.81c4.77-6.36,53.65,21.87,109.11,63.3c55.56,41.37,96.53,80.1,91.83,86.48
		c-4.77,6.36-53.65-21.87-109.11-63.3C3256.44,2775.92,3215.47,2737.19,3220.17,2730.81L3220.17,2730.81z"/><path class="st0" d="M3328.14,2971.72c4.03,4.73,3.52,11.96-1.15,16.03l-0.78,0.68c-4.71,4.04-11.94,3.52-16.02-1.15
		l-181.23-209.21c-4.03-4.73-3.52-11.96,1.15-16.03l0.78-0.68c4.71-4.04,11.94-3.52,16.03,1.15L3328.14,2971.72L3328.14,2971.72z"/></g></svg>