<svg xmlns="http://www.w3.org/2000/svg" viewBox="0 0 71.07 114.94"><g id="Layer_2" data-name="Layer 2"><g id="Layer_1-2" data-name="Layer 1"><path d="M70.67,0c.73,2.89.3,5.49-.07,8.08-.29,2-.75,4.05-1.11,6.08a7.59,7.59,0,0,0,0,1.35c0,1.17,0,2.36.06,3.53.23,2.86-.81,5.37-2.09,7.8-.61,1.19-1.38,2.29-2.1,3.46,0,1,.12,2.11.13,3.22,0,2.42,0,4.83,0,7.24a28.35,28.35,0,0,1-1.88,11.17,16.58,16.58,0,0,0-1.16,7.56c.15,1.67.21,3.35.24,5,0,1.12-.08,2.24-.13,3.35a12.19,12.19,0,0,0-.08,1.34c.19,3.18.4,6.36.6,9.48,1,.79,1.94,1.5,2.85,2.24A2.86,2.86,0,0,1,67,84.2a3.06,3.06,0,0,1-3.12,2.08c-1.29.06-2.57.22-3.86.21s-2.55-.17-3.8-.26c-.09-.13-.2-.23-.19-.31a10.77,10.77,0,0,0-1.29-5.3,4.49,4.49,0,0,1-.43-1.93c.06-1.83.24-3.65.39-5.55-.77-.47-1-.47-1.23.24A16.62,16.62,0,0,0,53,76a23,23,0,0,0-.06,2.35,5.61,5.61,0,0,0,.59,2.74,8.06,8.06,0,0,1,.8,5.38,2.16,2.16,0,0,1-1.75,2,16.25,16.25,0,0,1-3.3.49c-3.2,0-6.41,0-9.58-.37-4.29-.46-8.57-.81-12.88-1-1.95-.08-3.9-.37-5.84-.58a2.16,2.16,0,0,0-1.71.47A29,29,0,0,0,10.3,98.63a10.6,10.6,0,0,0-.63,8,12.13,12.13,0,0,1,.52,4.8,3.53,3.53,0,0,1-1.93,3.13,3.18,3.18,0,0,1-3.62-.43A11.46,11.46,0,0,1,.08,105.7c-.43-4.68,1-8.94,3.07-13a42.73,42.73,0,0,1,5.07-8.09c1.11-1.33,2.35-2.56,3.53-3.84.83-.9,1.65-1.82,2.55-2.81-1.13-3.27-1.08-6.68-1.11-10.1,0-4,1.08-7.81,2.25-11.6a24.43,24.43,0,0,1,4.12-8.37,38.79,38.79,0,0,1,7.69-7.72,17.85,17.85,0,0,0,3.53-4,1.78,1.78,0,0,0,.28-.77c.84-4.75,3.19-8.77,6.09-12.5a2.7,2.7,0,0,0,.67-1.8c0-2.07-.06-4.15,0-6.23,0-1.5.25-3,.31-4.51A13.13,13.13,0,0,0,37.93,8a20.5,20.5,0,0,1,.35-5.85A1.53,1.53,0,0,1,40.05.72a4.53,4.53,0,0,1,1.3.25,32.64,32.64,0,0,1,7.2,3.19,4.28,4.28,0,0,0,2.53.6,70.75,70.75,0,0,1,7.56-.2,5.36,5.36,0,0,0,3.9-1.31,14.44,14.44,0,0,1,6.28-3C69.41.1,70,.07,70.67,0ZM51.94,17.06c0-1.76-1.57-3.54-3-3.49a3.65,3.65,0,0,0-3.73,3.7,3.62,3.62,0,0,0,3.57,3.32C50.73,20.55,51.86,18.58,51.94,17.06Zm10.67-3.19a3.47,3.47,0,0,0-3.26,3.73,3.21,3.21,0,0,0,3.25,3,3.44,3.44,0,0,0,3.12-3.18C65.62,15.51,64.14,13.83,62.61,13.87ZM45.12,7.12c0-.32.13-.52.07-.63a6,6,0,0,0-2.86-2.67A1.45,1.45,0,0,0,40.23,5a4.88,4.88,0,0,0,1.08,4.05.89.89,0,0,0,.82.24.9.9,0,0,0,.27-.81A7.34,7.34,0,0,0,41.77,7a2.07,2.07,0,0,1-.06-1.92C43.19,5.19,43.49,7.13,45.12,7.12Zm22,2.59a8.62,8.62,0,0,0,1.41-5.17,1.08,1.08,0,0,0-1.69-.92,23.52,23.52,0,0,0-2.91,2.46c-.36.35-.09.72.37.89,1.12-.64,1.71-2,3.09-2.42C67.82,6.36,66.19,7.94,67.08,9.71Z"/><path d="M46.86,17A1.55,1.55,0,0,1,48.4,15.2a2,2,0,0,1,1.94,1.88,1.69,1.69,0,0,1-1.67,1.73A1.85,1.85,0,0,1,46.86,17Z"/><path d="M62.48,15.24a2.17,2.17,0,0,1,1.92,2,1.84,1.84,0,0,1-1.73,1.71A1.92,1.92,0,0,1,60.78,17,1.89,1.89,0,0,1,62.48,15.24Z"/></g></g></svg>