<svg version="1.1" id="Layer_1" xmlns="http://www.w3.org/2000/svg" xmlns:xlink="http://www.w3.org/1999/xlink" x="0px" y="0px" viewBox="0 0 100 100" style="enable-background:new 0 0 4000 4000;" xml:space="preserve"><style type="text/css">
	.st0{fill:#181412;}
</style><g transform="translate(1, 1.4037620122936048) scale(0.02606597884400043) translate(-104, -134.35000000000002)"><path class="st0" d="M482.97,2440.3c-2.12-1.37-4.86,0.5-4.36,2.99c8.47,40.85,19.68,80.2,33.5,118.19
		c60.4,165.64,146.21,316.2,257.42,451.7c6.6,8.1,11.21,17.44,13.7,27.4c20.8,84.31,29.76,167.88,26.78,250.45
		c-0.25,7.72,5.36,14.45,12.95,15.57c146.83,22.04,118.69,241.48-14.45,200.63c-3.74-1.12-7.85,0-10.46,2.86
		c-7.85,8.84-16.56,30.39-30.01,40.85c-47.45,36.74-93.65,32.75-138.61-11.96c-4.36-4.36-11.08-4.98-16.19-1.49
		c-16.07,10.83-33.5,17.56-52.56,20.18c-79.21,11.21-116.69-47.95-113.83-119.81c0.87-19.55,3.49-63.14,7.85-130.77
		c2.12-33.75-8.22-78.34-31.14-134c-43.46-105.24-78.71-193.41-105.48-264.64C167.76,2509.67,104,2050.37,170.63,1625.07
		c14.82-95.02,42.97-194.78,84.44-299.02c31.76-80.08,83.32-170,154.55-269.5C651.1,718.93,967.43,473.09,1358.6,318.91
		c184.57-72.73,381.34-130.52,590.44-173.23c55.67-11.33,139.48-11.08,166.01,44.83c37.11,78.21-50.81,147.2-116.57,167.75
		c-246.71,76.96-477.36,146.33-687.83,271c-159.53,94.65-287.44,220.31-383.7,376.85c-1.25,1.87-0.25,4.48,1.99,5.11
		c302.01,84.56,471.5,413.22,607.37,668.9c48.82,91.78,116.19,204.99,165.01,266.51c59.65,75.1,98.39,124.79,116.32,149.2
		c2.62,3.74,2.12,8.72-1.25,11.83c-102.99,94.77-192.29,106.23-321.93,100.88c-2.74-0.12-4.98,1.74-5.48,4.48
		c-0.5,2.62,1.12,5.23,3.74,5.98c108.97,32.5,206.36,19.43,292.42-39.11c10.59-7.22,29.39-24.29,56.66-51.19
		c39.11-38.61,83.32-65.51,129.64-92.16c4.61-2.74,7.85-7.22,8.84-12.45c16.07-82.57,32.26-171.61,85.31-241.48
		c4.61-6.1,13.2-7.47,19.55-3.11c41.84,29.14,82.69,63.02,122.55,101.62c20.42,19.8,51.06,50.44,92.03,91.91
		c5.6,5.6,13.08,8.84,21.05,8.97c96.39,1.74,192.16,20.55,287.31,56.29c4.36,1.62,9.22,1,13.08-1.62
		c74.85-53.68,197.27-110.84,291.42-95.4c15.44,2.62,26.78,15.94,26.65,31.51c-0.37,86.18-7.85,176.6-22.54,271.12
		c-0.75,4.73,0.13,9.59,2.49,13.82c99.76,179.21,164.14,384.57,129.4,597.16c-0.62,3.98,2.24,7.6,6.23,7.97l199.76,14.2
		c5.73,0.37,10.09,5.48,9.72,11.21l-0.25,4.11c-0.37,4.73-4.36,8.22-9.09,7.85l-204.87-14.57c-4.36-0.25-8.34,2.37-9.71,6.48
		l-18.56,55.67c-1.12,3.49,0.62,7.22,4.11,8.34l219.56,73.6c5.98,1.99,9.84,7.72,9.34,13.95l-0.37,5.73
		c-0.37,4.23-4.61,7.1-8.59,5.73l-227.41-76.22c-4.48-1.49-9.34,0.12-11.96,3.99c-31.63,46.83-73.1,85.68-124.41,116.57
		c-6.85,4.11-7.97,13.58-2.24,19.18c81.95,79.33,197.39,172.36,299.39,222.55c95.52,47.08,205.49,75.34,330.15,84.69
		c124.04,9.47,354.31-1.24,346.09,188.43c-2.12,51.56-41.6,62.77-79.95,80.33c-17.56,8.09-39.35,6.97-65.13-3.36
		c-2.99-1.25-6.35,0.37-7.35,3.49c-15.07,47.7-91.91,44.58-115.45,13.2c-2.62-3.61-7.85-3.99-11.08-1
		c-19.8,18.56-45.21,21.42-76.22,8.72c-4.48-1.87-7.85-5.85-8.72-10.59c-5.48-26.53-8.59-41.72-9.46-45.71
		c-11.33-56.42-47.57-86.06-108.72-89.17c-197.52-10.21-334.39-12.08-495.29-55.79c-172.98-46.95-314.58-144.22-424.8-291.92
		c-1.49-2.12-4.73-1.99-6.23,0.12l-2.24,3.24c-0.75,1-0.87,2.37-0.25,3.49c69.74,119.06,157.79,206.24,264.02,261.66
		c96.27,50.19,199.51,81.82,309.6,95.15c106.98,12.83,210.47,19.93,310.35,21.3c12.33,0.12,31.01,2.49,56.04,7.1
		c66.01,12.08,71.73,82.82,63.14,134.75c-8.34,50.19-68.62,57.91-111.84,50.81c-6.35-1-12.58,2.24-15.44,8.1
		c-24.04,50.19-86.8,40.35-129.02,26.03c-4.23-1.49-8.97-0.12-11.58,3.49c-7.85,10.34-29.64,17.56-65.63,21.67
		c-32.63,3.61-57.04-5.11-73.35-26.28c-2.49-3.24-6.1-5.11-10.09-5.23c-216.32-8.09-412.22-43.34-587.7-105.86
		c-144.46-51.43-281.58-134.63-411.48-249.57c-2.86-2.49-6.48-3.86-10.21-3.74c-239.74,4.36-471.5-42.09-695.3-139.61
		c-92.28-40.23-189.67-86.31-291.92-138.24c-32.88-16.69-68.37-41.22-106.36-73.73c-94.52-80.45-176.22-174.98-245.34-283.45
		c-80.33-126.16-145.83-255.93-196.52-389.18C485.21,2442.42,484.22,2441.05,482.97,2440.3 M2528.89,2696.48
		c38.11,10.71,79.33,5.11,123.54-16.56c6.48-3.11,5.23-12.58-1.74-14.07c-22.54-4.86-65.88-6.1-108.35-17.93
		c-42.47-11.71-80.2-33-102-40.6c-6.85-2.24-12.7,5.23-8.84,11.21C2458.28,2659.86,2490.66,2685.89,2528.89,2696.48
		 M3036.51,2660.24l-72.73,16.81c-1.62,0.37-3.11,0.62-4.61,0.5c-38.73-1.87-74.6-11.58-107.6-29.39
		c-6.48-3.49-14.45-1.74-18.81,4.23c-4.36,5.85-3.74,14.07,1.49,19.18c22.54,22.04,49.82,36.61,81.95,43.84
		c56.42,12.7,112.46,18.81,125.78-49.94C3042.61,2662.23,3039.75,2659.49,3036.51,2660.24 M2744.84,2859.25
		c6.48-3.49,13.33,3.61,9.71,9.96l-17.56,30.26c-1.74,3.11-4.61,5.6-8.09,7.1c-73.1,30.01-135.87-5.11-199.89-38.73
		c-8.34-4.36-17.31,4.73-12.58,12.95l21.54,37.36c5.11,8.84,12.95,15.94,22.29,20.18c61.52,27.9,123.54,29.64,186.19,5.23
		c4.11-1.62,8.72-0.5,11.58,2.74c39.85,44.21,135.12,69.74,178.21,12.08c4.86-6.48-1.49-15.44-9.22-13.08
		c-44.71,13.7-101.12,8.97-136.62-30.01c-8.34-9.09-5.36-23.66,5.85-28.89c4.98-2.37,13.08-3.49,24.16-3.49
		c12.33-0.12,21.67-11.08,19.68-23.29c-2.12-13.32-9.71-21.79-22.92-25.41c-30.64-8.47-59.28-19.43-86.06-33
		c-9.09-4.61-20.18,0.37-22.79,10.21c-2.74,10.21-1.37,21.55,4.23,34C2720.06,2862.11,2730.77,2866.72,2744.84,2859.25
		L2744.84,2859.25z"/><path class="st0" d="M1076.4,3262.01c94.52,44.71,260.29,120.55,389.81,159.28c3.86,1.12,6.1,5.23,5.11,9.09
		c-11.71,43.59-50.19,94.28-101.13,72.98c-4.61-1.99-9.84-0.75-13.33,2.86c-28.15,29.76-63.51,37.36-106.11,22.54
		c-47.33-16.31-103.12-39.35-119.68-89.17c-19.55-59.16-39.1-117.07-58.91-173.86C1071.29,3263.13,1073.91,3260.88,1076.4,3262.01
		L1076.4,3262.01z"/></g></svg>