<svg xmlns="http://www.w3.org/2000/svg" version="1.1" viewBox="0 0 100 100"><g transform="translate(11.5777819458214, 1.000000000000007) scale(0.15755204844457543) translate(-263.51, -200.73)"><path fill="#000000" d="
  M 294.30 508.85
  Q 297.16 507.00 300.72 505.22
  C 320.10 495.56 340.47 486.63 361.49 480.62
  A 0.59 0.59 0.0 0 0 361.77 479.67
  Q 353.51 470.05 346.81 457.70
  A 1.35 1.33 -15.6 0 0 345.57 457.01
  Q 323.90 458.24 300.55 462.40
  Q 287.35 464.75 278.41 466.74
  A 0.33 0.22 51.8 0 1 278.16 466.66
  Q 278.13 466.63 278.11 466.62
  A 0.07 0.06 -26.0 0 1 278.15 466.53
  Q 310.97 456.80 344.15 453.68
  A 0.30 0.30 0.0 0 0 344.39 453.23
  Q 337.47 441.08 334.48 428.33
  C 331.82 417.02 336.23 404.37 339.33 391.91
  Q 344.93 369.41 346.32 360.01
  Q 346.62 357.95 344.88 353.37
  C 341.84 345.37 336.40 332.95 333.82 320.69
  Q 324.12 274.50 332.83 229.27
  Q 334.76 219.26 337.95 211.46
  C 340.88 204.32 344.22 200.73 352.57 201.11
  C 361.90 201.53 370.34 204.45 378.81 208.19
  Q 394.92 215.31 410.40 226.36
  Q 432.05 241.81 450.16 259.89
  A 2.07 2.06 -28.1 0 0 452.03 260.45
  Q 460.45 258.70 470.67 256.92
  Q 516.12 249.00 561.05 259.79
  A 1.93 1.89 -58.3 0 0 562.75 259.37
  Q 567.18 255.51 573.37 249.88
  Q 593.30 231.76 615.41 217.92
  C 628.72 209.58 646.69 200.92 661.72 201.30
  C 669.07 201.48 672.09 205.15 674.62 211.88
  C 677.16 218.65 678.87 224.72 679.96 231.17
  Q 687.63 276.26 678.91 320.81
  C 677.91 325.89 675.33 334.13 672.72 340.67
  Q 672.04 342.35 666.46 356.76
  A 1.52 1.49 -44.5 0 0 666.44 357.82
  C 669.08 365.58 671.66 372.65 673.87 380.86
  Q 676.99 392.47 680.66 406.06
  C 682.93 414.43 683.94 422.36 681.85 430.63
  Q 679.02 441.85 673.76 452.55
  A 0.44 0.44 0.0 0 0 674.12 453.18
  Q 710.26 455.98 745.65 465.64
  Q 748.28 466.36 750.93 467.32
  Q 751.41 467.50 750.80 467.38
  Q 730.60 463.19 728.83 462.89
  Q 699.52 457.75 672.54 456.66
  A 1.51 1.50 -75.2 0 0 671.14 457.48
  Q 665.48 468.61 657.09 479.04
  A 0.52 0.51 27.1 0 0 657.36 479.86
  C 658.80 480.25 660.15 480.42 661.83 480.91
  Q 689.80 489.01 717.49 502.75
  Q 724.61 506.28 729.45 509.16
  A 0.20 0.20 0.0 0 1 729.52 509.43
  L 729.52 509.44
  A 0.16 0.15 -63.4 0 1 729.32 509.51
  Q 693.90 492.45 655.06 482.73
  A 0.68 0.68 0.0 0 0 654.42 482.91
  L 642.13 495.21
  A 0.48 0.47 -55.5 0 0 642.27 495.98
  C 661.84 504.76 679.59 516.26 696.48 528.66
  Q 700.40 531.54 703.24 534.12
  Q 704.07 534.87 703.08 534.18
  C 683.10 520.27 661.55 508.08 639.55 498.33
  A 0.80 0.79 36.3 0 0 638.73 498.45
  L 628.01 507.31
  A 0.97 0.96 56.9 0 0 627.77 508.50
  Q 629.46 511.79 629.64 512.08
  C 654.20 552.26 674.89 595.14 689.55 639.73
  Q 696.89 662.04 700.32 684.43
  C 705.88 720.67 701.29 761.80 676.71 790.82
  Q 664.96 804.71 646.87 813.48
  Q 627.94 822.66 605.26 822.68
  Q 501.00 822.78 395.25 822.67
  Q 386.13 822.66 374.21 821.06
  C 309.09 812.29 263.51 756.71 272.92 690.23
  Q 276.35 666.04 289.63 647.51
  C 297.34 636.75 311.62 625.05 325.75 628.13
  Q 333.19 629.76 337.40 636.02
  C 342.91 644.22 342.41 654.47 339.86 663.62
  Q 335.22 680.27 333.71 688.49
  C 330.36 706.79 332.61 728.52 343.97 743.70
  Q 354.14 757.30 370.55 761.39
  A 0.37 0.37 0.0 0 0 370.98 760.88
  Q 361.80 739.01 359.11 715.64
  C 355.39 683.16 358.75 650.16 366.49 619.22
  C 375.23 584.27 387.72 549.97 403.18 516.93
  A 0.64 0.63 30.8 0 0 402.98 516.15
  L 381.22 500.05
  A 0.51 0.50 -37.1 0 0 380.74 499.99
  Q 376.59 501.53 374.09 502.83
  Q 350.14 515.31 340.57 521.32
  Q 330.85 527.43 320.90 534.06
  A 0.21 0.20 54.3 0 1 320.62 534.01
  L 320.61 534.00
  A 0.15 0.14 -37.7 0 1 320.64 533.80
  Q 337.27 520.66 356.24 509.00
  Q 367.32 502.19 377.67 497.62
  A 0.47 0.46 -34.8 0 0 377.81 496.87
  L 364.85 483.90
  A 1.02 1.01 59.6 0 0 363.86 483.64
  Q 336.57 491.16 310.03 502.36
  Q 309.09 502.76 294.34 508.93
  A 0.05 0.04 -71.8 0 1 294.30 508.85
  Z
  M 626.78 304.34
  Q 640.76 297.69 654.84 295.03
  A 0.25 0.25 0.0 0 1 655.12 295.36
  Q 647.39 314.73 635.41 330.97
  A 0.18 0.18 0.0 0 0 635.57 331.25
  Q 641.59 330.88 647.84 329.61
  C 656.16 327.93 660.01 321.00 661.69 313.44
  Q 668.39 283.25 668.30 251.04
  Q 668.27 241.40 666.45 232.12
  C 664.75 223.42 661.82 212.45 649.94 217.38
  C 641.13 221.04 633.92 226.46 626.66 233.18
  Q 608.54 249.96 596.09 272.34
  A 0.23 0.23 0.0 0 0 596.24 272.67
  Q 596.55 272.74 596.81 272.55
  Q 616.33 258.56 639.24 254.43
  A 0.33 0.32 18.8 0 1 639.52 254.99
  Q 625.24 267.83 616.05 285.07
  A 0.27 0.27 0.0 0 0 616.42 285.43
  Q 631.16 277.21 648.08 275.55
  A 0.34 0.34 0.0 0 1 648.34 276.14
  C 639.59 283.90 632.50 293.70 626.54 304.09
  A 0.18 0.18 0.0 0 0 626.78 304.34
  Z
  M 396.91 284.70
  C 390.63 273.76 383.51 263.04 373.34 255.33
  A 0.34 0.34 0.0 0 1 373.60 254.72
  Q 397.65 258.65 416.76 273.09
  A 0.41 0.41 0.0 0 0 417.36 272.55
  C 406.16 253.67 392.73 237.18 374.74 224.28
  Q 367.05 218.77 359.02 216.49
  Q 354.30 215.15 351.29 218.60
  Q 348.54 221.75 347.84 224.16
  Q 344.27 236.45 344.08 250.20
  Q 343.73 275.73 349.42 305.54
  C 351.33 315.53 353.67 327.69 365.22 329.70
  Q 372.30 330.93 377.74 331.58
  A 0.28 0.28 0.0 0 0 377.99 331.12
  C 369.21 320.83 363.38 308.65 358.16 296.07
  A 0.43 0.43 0.0 0 1 358.63 295.49
  Q 372.86 297.83 385.78 304.22
  A 0.31 0.31 0.0 0 0 386.19 303.79
  C 380.59 293.40 373.57 283.69 364.41 276.29
  A 0.25 0.25 0.0 0 1 364.59 275.85
  Q 381.57 277.40 396.39 285.24
  A 0.39 0.39 0.0 0 0 396.91 284.70
  Z
  M 492.89 682.33
  Q 493.50 682.98 494.12 684.38
  C 498.30 693.67 502.26 703.70 505.36 713.54
  C 508.96 725.02 511.22 731.25 514.18 741.46
  Q 518.83 757.48 522.04 766.47
  Q 523.32 770.07 525.57 772.59
  A 1.73 1.73 0.0 0 0 527.95 772.78
  C 530.87 770.41 533.62 761.79 534.80 757.80
  Q 540.82 737.51 547.20 717.48
  Q 553.02 699.22 560.73 682.33
  A 0.34 0.34 0.0 0 1 561.37 682.53
  Q 555.66 711.64 548.32 748.38
  Q 545.01 764.98 539.42 789.22
  C 537.69 796.74 537.04 804.87 542.53 810.92
  Q 546.46 815.23 552.92 815.47
  A 0.95 0.95 0.0 0 0 553.89 814.38
  Q 552.74 806.60 555.36 798.07
  A 0.56 0.56 0.0 0 1 556.45 798.21
  C 556.72 803.58 558.30 811.24 562.37 814.63
  C 566.18 817.80 571.91 818.18 576.13 815.56
  C 581.32 812.34 582.71 803.78 582.09 798.25
  A 0.41 0.41 0.0 0 1 582.87 798.03
  Q 586.99 806.27 585.04 815.43
  A 0.49 0.49 0.0 0 0 585.55 816.02
  C 595.33 815.46 603.13 809.62 603.60 799.26
  C 604.36 782.79 586.62 774.52 572.92 773.16
  Q 571.17 772.99 565.92 772.71
  A 0.16 0.16 0.0 0 1 565.89 772.39
  C 580.67 768.60 597.41 771.92 607.45 783.87
  A 0.39 0.38 -50.5 0 0 608.09 783.80
  Q 627.17 748.23 642.59 710.07
  Q 647.50 697.91 650.61 687.72
  A 0.10 0.10 0.0 0 0 650.44 687.63
  C 639.40 700.88 621.21 700.46 609.14 688.81
  C 600.83 680.79 597.92 670.25 597.63 658.80
  C 597.17 640.64 605.43 622.42 617.43 609.16
  Q 633.62 591.29 657.71 588.95
  A 0.21 0.20 -14.7 0 0 657.88 588.67
  Q 644.10 557.81 626.55 527.94
  Q 623.79 523.23 620.43 518.26
  A 1.74 1.74 0.0 0 0 618.70 517.53
  Q 617.17 517.80 616.28 518.04
  C 607.84 520.35 595.80 524.83 585.84 526.88
  Q 579.67 528.16 570.28 529.64
  A 0.29 0.29 0.0 0 1 570.12 529.09
  C 588.03 521.40 604.71 512.72 620.09 501.58
  Q 625.58 497.60 629.26 494.40
  A 0.41 0.41 0.0 0 0 629.15 493.71
  Q 601.16 481.40 572.08 476.19
  A 0.47 0.46 -80.4 0 1 571.71 475.66
  L 571.71 475.64
  A 0.46 0.45 -81.6 0 1 572.22 475.26
  Q 603.22 479.08 632.09 491.38
  A 1.55 1.54 -55.9 0 0 633.79 491.05
  L 643.96 480.88
  A 0.37 0.37 0.0 0 0 643.75 480.25
  C 636.63 479.26 630.01 476.84 623.10 475.71
  Q 597.36 471.51 572.71 471.20
  A 0.37 0.35 -10.7 0 1 572.40 471.00
  L 572.24 470.70
  A 0.44 0.44 0.0 0 1 572.62 470.06
  Q 596.01 469.06 619.31 472.17
  A 0.40 0.40 0.0 0 0 619.57 471.43
  Q 612.77 467.32 609.12 460.66
  A 0.78 0.76 72.3 0 0 608.37 460.26
  Q 589.26 462.23 572.23 465.47
  A 0.15 0.15 0.0 0 1 572.07 465.39
  L 571.94 465.15
  A 0.41 0.41 0.0 0 1 572.20 464.56
  Q 589.10 460.06 606.30 458.13
  A 0.87 0.85 -89.5 0 0 607.06 457.37
  L 607.06 457.34
  A 0.61 0.60 -87.5 0 0 606.45 456.67
  Q 584.82 457.07 565.38 449.61
  Q 556.07 446.03 544.64 437.64
  A 0.81 0.81 0.0 0 0 543.59 437.72
  L 541.97 439.34
  A 0.70 0.70 0.0 0 1 540.84 439.15
  Q 528.13 412.39 536.65 383.87
  Q 540.32 371.60 546.91 360.10
  A 0.42 0.42 0.0 0 0 546.76 359.53
  C 527.72 348.31 515.92 330.61 511.21 309.00
  A 0.41 0.41 0.0 0 0 510.42 308.97
  Q 509.70 311.38 509.00 314.00
  C 504.05 332.81 492.00 349.87 474.71 359.50
  A 0.52 0.52 0.0 0 0 474.51 360.22
  C 489.18 385.47 493.02 411.54 479.88 438.73
  A 0.81 0.80 42.9 0 1 478.46 438.78
  Q 477.77 437.60 476.82 437.38
  A 1.26 1.23 31.7 0 0 475.75 437.62
  C 458.51 451.76 437.40 457.03 415.29 456.69
  A 0.63 0.63 0.0 0 0 414.65 457.37
  L 414.65 457.40
  A 0.81 0.81 0.0 0 0 415.39 458.16
  Q 432.84 459.87 450.34 464.68
  A 0.46 0.45 14.5 0 1 450.67 465.22
  L 450.66 465.24
  A 0.45 0.44 11.3 0 1 450.14 465.58
  Q 431.81 461.95 413.09 460.36
  A 1.09 1.06 -70.4 0 0 412.09 460.85
  Q 407.69 467.50 400.88 471.90
  A 0.32 0.31 -65.1 0 0 401.09 472.48
  Q 425.48 469.15 449.83 470.08
  A 0.34 0.31 75.6 0 1 450.09 470.25
  L 450.26 470.57
  A 0.41 0.41 0.0 0 1 449.90 471.17
  Q 424.04 471.60 397.98 476.07
  C 390.42 477.37 382.67 479.79 375.63 480.70
  A 0.39 0.39 0.0 0 0 375.41 481.36
  L 386.49 492.45
  A 1.30 1.29 -34.5 0 0 387.94 492.71
  Q 394.91 489.54 406.90 485.42
  Q 427.60 478.31 450.23 475.44
  A 0.22 0.21 -17.7 0 1 450.45 475.55
  L 450.57 475.79
  A 0.44 0.44 0.0 0 1 450.26 476.42
  Q 419.67 482.19 391.02 495.18
  A 0.29 0.28 -37.2 0 0 390.95 495.66
  C 397.29 500.93 403.97 506.13 411.45 510.52
  Q 450.22 533.24 493.76 537.15
  Q 517.50 539.28 539.30 537.61
  A 0.39 0.38 33.8 0 1 539.45 538.36
  C 519.76 544.62 498.42 546.42 478.31 545.11
  C 456.91 543.71 435.79 542.06 415.25 549.96
  Q 407.03 553.11 397.29 560.52
  A 3.99 3.97 84.5 0 0 396.10 561.97
  Q 394.75 564.79 393.71 567.72
  C 387.27 585.85 380.93 605.16 376.90 624.99
  A 0.13 0.13 0.0 0 0 377.05 625.14
  C 401.41 621.11 424.76 635.77 438.38 655.19
  C 448.27 669.29 454.89 687.06 455.02 704.48
  C 455.15 721.10 446.18 742.94 425.84 740.61
  Q 425.62 740.58 424.98 740.25
  Q 424.37 739.92 423.93 739.95
  A 0.46 0.46 0.0 0 0 423.54 740.62
  L 445.30 782.55
  A 0.60 0.60 0.0 0 0 446.25 782.70
  Q 455.30 774.08 466.98 771.75
  Q 474.69 770.22 486.65 772.01
  A 0.48 0.47 7.6 0 1 487.05 772.53
  L 487.04 772.55
  A 0.38 0.37 -85.8 0 1 486.66 772.89
  C 474.70 772.42 460.01 776.62 453.20 787.17
  Q 449.52 792.86 449.77 798.54
  Q 450.45 814.18 467.12 816.10
  A 0.88 0.88 0.0 0 0 468.08 815.03
  Q 466.28 806.88 469.80 798.38
  A 0.54 0.53 57.5 0 1 470.83 798.61
  C 470.56 805.48 472.59 815.98 480.59 817.09
  C 492.42 818.74 496.24 807.97 496.01 798.20
  A 0.43 0.43 0.0 0 1 496.81 797.96
  C 499.76 802.68 500.00 809.74 498.71 814.86
  A 0.57 0.57 0.0 0 0 499.26 815.57
  C 509.17 815.62 515.46 807.56 515.09 797.88
  Q 514.87 791.98 513.50 785.50
  Q 502.17 731.90 492.53 682.52
  A 0.21 0.21 0.0 0 1 492.89 682.33
  Z
  M 557.01 396.57
  Q 548.95 407.93 548.79 423.66
  A 3.39 3.38 20.7 0 0 549.97 426.27
  C 568.00 441.77 596.33 443.65 609.97 420.95
  Q 615.09 412.44 615.75 399.60
  A 1.74 1.74 0.0 0 0 615.41 398.48
  Q 609.99 390.99 603.66 387.06
  Q 591.65 379.60 576.97 382.39
  A 0.21 0.20 82.7 0 0 576.80 382.62
  L 576.81 382.70
  A 0.24 0.24 0.0 0 0 577.07 382.91
  C 598.90 381.31 612.11 405.87 599.31 423.26
  C 592.78 432.13 579.10 435.51 569.20 429.99
  Q 555.42 422.31 555.42 405.73
  Q 555.42 402.06 557.17 396.64
  A 0.09 0.09 0.0 0 0 557.01 396.57
  Z
  M 441.40 382.51
  C 426.97 379.32 413.14 386.53 404.46 398.16
  A 1.83 1.80 62.2 0 0 404.10 399.36
  Q 404.93 413.45 411.01 423.03
  C 417.52 433.30 430.13 439.00 442.11 438.14
  C 453.48 437.32 461.78 432.58 470.83 426.22
  A 1.15 1.15 0.0 0 0 471.32 425.34
  Q 472.21 409.59 463.40 396.58
  A 0.26 0.26 0.0 0 0 462.94 396.81
  Q 466.61 407.22 462.63 417.42
  C 458.92 426.92 448.58 433.56 438.25 432.72
  C 411.29 430.53 407.03 395.47 430.31 384.85
  Q 434.42 382.98 441.36 382.89
  A 0.19 0.19 0.0 0 0 441.40 382.51
  Z
  M 595.76 397.72
  A 6.47 6.47 0.0 0 0 589.29 391.25
  A 6.47 6.47 0.0 0 0 582.82 397.72
  A 6.47 6.47 0.0 0 0 589.29 404.19
  A 6.47 6.47 0.0 0 0 595.76 397.72
  Z
  M 456.35 397.92
  A 6.40 6.40 0.0 0 0 449.95 391.52
  A 6.40 6.40 0.0 0 0 443.55 397.92
  A 6.40 6.40 0.0 0 0 449.95 404.32
  A 6.40 6.40 0.0 0 0 456.35 397.92
  Z
  M 430.31 420.25
  A 3.06 3.06 0.0 0 0 427.25 417.19
  A 3.06 3.06 0.0 0 0 424.19 420.25
  A 3.06 3.06 0.0 0 0 427.25 423.31
  A 3.06 3.06 0.0 0 0 430.31 420.25
  Z
  M 570.78 420.20
  A 2.84 2.84 0.0 0 0 567.94 417.36
  A 2.84 2.84 0.0 0 0 565.10 420.20
  A 2.84 2.84 0.0 0 0 567.94 423.04
  A 2.84 2.84 0.0 0 0 570.78 420.20
  Z
  M 325.15 703.08
  Q 325.76 693.72 327.47 684.86
  C 329.18 676.02 332.00 668.50 334.05 660.11
  C 336.36 650.68 335.70 637.67 324.54 634.77
  C 318.74 633.26 311.05 636.36 306.43 639.93
  C 290.59 652.15 281.88 672.62 279.34 692.16
  A 0.25 0.24 -27.6 0 0 279.80 692.30
  C 283.73 684.94 291.25 676.63 300.45 677.15
  C 313.62 677.90 321.37 691.79 324.52 703.15
  A 0.32 0.32 0.0 0 0 325.15 703.08
  Z"/><path fill="#000000" d="
  M 473.27 481.12
  A 0.25 0.25 0.0 0 1 473.72 480.95
  C 481.02 491.41 494.07 489.11 502.74 481.69
  Q 507.29 477.78 508.08 471.95
  A 2.82 2.81 26.3 0 0 507.27 469.57
  C 502.58 464.94 497.86 460.81 494.89 456.28
  Q 492.68 452.90 495.56 450.67
  C 501.35 446.17 515.22 447.07 521.53 448.49
  C 527.23 449.77 529.55 453.67 525.50 458.77
  Q 524.00 460.67 514.67 470.08
  A 1.33 1.31 69.0 0 0 514.30 470.92
  Q 513.94 475.96 516.72 479.30
  C 523.80 487.83 537.18 492.11 546.16 483.63
  C 546.93 482.90 547.44 481.70 548.27 480.97
  A 0.30 0.30 0.0 0 1 548.75 481.29
  Q 546.71 487.26 540.74 490.48
  C 530.61 495.93 518.94 491.43 511.63 483.34
  A 0.64 0.64 0.0 0 0 510.71 483.30
  Q 505.92 487.89 501.40 490.20
  C 491.91 495.05 481.40 493.54 474.85 484.79
  Q 473.48 482.96 473.27 481.12
  Z"/><path fill="#000000" d="
  M 510.92 512.52
  Q 520.06 512.58 527.73 508.73
  A 0.23 0.23 0.0 0 1 528.02 509.08
  C 524.04 513.96 517.17 516.77 510.90 516.73
  C 504.63 516.70 497.80 513.80 493.88 508.87
  A 0.23 0.23 0.0 0 1 494.16 508.52
  Q 501.79 512.47 510.92 512.52
  Z"/></g></svg>