<svg xmlns="http://www.w3.org/2000/svg" viewBox="0 0 100 100"><g transform="translate(5.3776318833873304, 1) scale(0.2834335955576122) translate(0, 1)"><path d="M.43,168.75Q.25,109.38,0,50c0-3.67,1.11-6,4.61-7.5,7.74-3.3,15.32-7,23-10.34a10.77,10.77,0,0,0,5.22-4.78c4.77-8,9.8-15.92,14.66-23.9C49.23.7,51.16-1,54.66.61c.9.4,2.12.14,3.19.14q43.8-.1,87.6-.22Q198,.34,250.51.07c4.9,0,9.79.38,14.69.51,1.71.05,2.39,1.17,3,2.44,2.5,5.25,5,10.5,7.49,15.75,1.51,3.18,3.09,6.33,4.43,9.58a8.19,8.19,0,0,0,5.58,4.91c7.68,2.55,15.26,5.4,22.87,8.16a14.35,14.35,0,0,1,3.35,1.46c.67.46,1.55,1.58,1.39,2.15-.73,2.77.22,5.43.21,8.13q0,115.49.08,231c1.27,5.91-2,9.34-6.47,12.34-7.78,5.19-15.39,10.65-23.13,15.89a7.73,7.73,0,0,0-3.17,3.72c-3.22,8.09-6.56,16.13-9.82,24.2-1.27,3.17-1.51,3.51-5,3.53-13.21.08-26.43.06-39.64.11q-18.22.06-36.43.17l-129.07.64c-1.07,0-2.15,0-3.22,0a6.13,6.13,0,0,1-5.07-2.7c-1.46-2.16-3-4.23-4.53-6.38-4.62-6.66-9.2-13.36-13.84-20A7.34,7.34,0,0,0,32,313.37c-7-4.07-14.09-8.05-21.13-12.08-1.33-.76-2.56-1.71-3.93-2.38C2.41,296.7.87,292.86.86,288.13Q.79,252.42.7,216.69q0-24,0-47.94Zm30.62,2.62h.16q0-47.94,0-95.88c0-12.14.05-24.28.06-36.42,0-3.19,0-3.19-3.1-1.77C22.34,40,16.43,42.53,10.67,45.38c-6,3-5.18,1-5.17,8.06q.06,97.5.2,195c0,13.36,0,26.73-.21,40.1,0,2.67.71,4.18,3.06,5.41,3.52,1.86,6.85,4.09,10.25,6.16,3.14,1.92,6.25,3.89,9.41,5.77,2.14,1.27,2.36,1.1,2.45-1.56,0-.31,0-.62,0-.93.11-9.94.28-19.88.32-29.82q.09-24,.05-47.94Q31.06,198.51,31.05,171.37Zm251.91,0h.12c0,7.84,0,15.67,0,23.51-.06,25.5-.17,51-.2,76.51,0,10.75.08,21.51.16,32.26,0,2.43.25,2.56,2.15,1.29,6.37-4.26,12.67-8.65,19.11-12.8,2.5-1.61,3.7-3.25,3.69-6.51q-.12-116.38,0-232.76c0-1.08,0-2.16.05-3.23.17-2.94.19-2.95-2.57-4-6.31-2.33-12.61-4.67-18.93-7C283,37.42,283,37.45,283,41.39v130Zm-124.84,142v.09c-19.05,0-38.1,0-57.14,0q-29.94.07-59.88.33a6.47,6.47,0,0,0-2,.68A17,17,0,0,0,40,316c4.8,6.91,9.77,13.71,14.32,20.77a6.07,6.07,0,0,0,5.9,3.18q50,0,100,.09c33.95,0,67.9,0,101.85.2,3.18,0,4.53-1.09,5.62-3.89,2.55-6.54,5.46-12.94,8.19-19.42,1.48-3.52,1.44-3.54-2.5-3.54Zm.21-307.95v0H58.79c-1.39,0-2.77,0-4.15,0a4.18,4.18,0,0,0-3.83,2.11Q44.65,17.77,38.48,28c-.57.94-.34,1.37.71,1.39,1.23,0,2.46,0,3.69,0,15.2,0,30.41,0,45.62,0,2.87,0,5.73.31,8.59-.8a7.69,7.69,0,0,1,5,0c2.72,1,5.43.77,8.16.77q76,.07,152.07.12c3.38,0,6.76.1,10.14.09,2.34,0,2.56-.31,1.66-2.22-3.15-6.64-6.41-13.22-9.45-19.9-.9-2-2.23-2.08-4-2.08Q209.48,5.45,158.33,5.42ZM36.7,206.24h.08v93.11c0,1.38,0,2.76,0,4.14a5.79,5.79,0,0,0,.35,1.31,6.52,6.52,0,0,0,1.14-.69c4.49-4.19,9-8.35,13.42-12.62,4.2-4.05,8.26-8.25,12.46-12.3,1.43-1.38,1.31-2.3,0-3.78a105,105,0,0,1-18.85-29.74,84.87,84.87,0,0,1-6.48-27.94c-.67-12.89,3.3-24.69,9.88-35.67,6.92-11.55,16.75-19.26,29.89-22.69a153.84,153.84,0,0,1,22.5-4,92.5,92.5,0,0,1,30.07,2,87.36,87.36,0,0,1,35.95,17.5c4.47,3.55,6.62,7.76,6.32,13.45A14.15,14.15,0,0,1,164.37,201c-4.77,1.77-9.58,1.39-14.41.37s-9.49-2.32-14.3-3.07c-7.69-1.22-15.45-2-23.17-3.1a74.25,74.25,0,0,0-24.26.24c-7.1,1.35-13.31,4.47-18.1,10.06-7.72,9-9.62,19.2-6.15,30.45a44.92,44.92,0,0,0,5.94,12.84c.88,1.25,2,1.57,3.07.66.42-.37.39-1.71.08-2.38a76,76,0,0,1-5.22-14.62A26.36,26.36,0,0,1,78,205.18c6.07-4.44,13.12-5.72,20.36-6a106.61,106.61,0,0,1,22,1.65c8.13,1.34,16.3,2.44,24.42,3.86,4.51.78,9,2.19,13.59,1.75,10.27-1,14.88-4.6,18.12-13.05A17.23,17.23,0,0,0,173.8,176a42.81,42.81,0,0,0-7.3-7c-16-12.59-34.49-17.94-54.51-18.73-3.8-.15-7.63.64-11.45.72-8.35.19-16.31,2.3-24.2,4.7s-7.77,2.5-13.87-2.7a24.5,24.5,0,0,1-2.9-3c-6.33-7.7-10-16.4-9.87-26.51a5.07,5.07,0,0,0-1.58-4.06c-3.5-3.45-6.85-7-10.26-10.57-.21-.22-.43-.42-.64-.63a3.8,3.8,0,0,0-.49,1.15c-.07,1.23,0,2.46,0,3.69ZM211.5,65.38v.29c9.21,0,18.43,0,27.64,0a4.63,4.63,0,0,0,2.48-.68,40,40,0,0,0,3.87-3.26c6.28-5.64,12.53-11.31,18.81-17,3.42-3.08,6.87-6.12,10.29-9.2a7.31,7.31,0,0,0,.82-1.08,7.65,7.65,0,0,0-1.57-.43c-1.07-.06-2.15,0-3.23,0q-58.68.3-117.38.61c-13.21.07-26.41,0-39.62.05a16,16,0,0,0-2.63.42,14.72,14.72,0,0,0,1,2.38,5.85,5.85,0,0,0,6.1,3,30.07,30.07,0,0,1,8.26.22,69.16,69.16,0,0,1,19.84,6.83c9.52,4.91,16.36,11.7,19.2,22.61a50.22,50.22,0,0,1-.46,28.29c-.48,1.54-1.95,3.54.16,4.32,1.81.67,2.47-1.79,3.39-3.12a1.54,1.54,0,0,0,.17-.42c2.58-7.16,3.79-14.49,2.29-22-.9-4.47-2.12-8.88-3.35-13.27-.33-1.18.1-1.39,1-1.27,3.78.54,7.54,1.22,11.33,1.71a82.55,82.55,0,0,0,9.54.91C196.76,65.47,204.13,65.38,211.5,65.38Zm67,33.38h0V48.13c0-2.61,0-5.22,0-7.82a5.49,5.49,0,0,0-.32-1.3,8,8,0,0,0-1.14.74c-10.22,9-20.42,18.11-30.67,27.11a5,5,0,0,0-1.84,4.4c.3,8.88.64,17.77.6,26.66,0,3.59.55,6.52,3.47,8.91,1.5,1.24,2.54,3,3.8,4.58,10.63,13,19.63,26.89,24.4,43.18.25.88.56,1.74.88,2.59a5,5,0,0,0,.57.89,3.88,3.88,0,0,0,.24-.87c0-1.07.05-2.14.05-3.22Q278.46,126.37,278.46,98.76ZM228.24,308.91v-.15l44.11.71a16,16,0,0,0,1.81-.17,8.78,8.78,0,0,0-.8-1.48c-4.1-4.95-8.19-9.92-12.36-14.82s-8.64-9.94-12.92-14.95c-1.07-1.26-1.75-1-2.88,0a110.09,110.09,0,0,1-27.86,19.22c-10.76,5.19-22,9.08-33.88,10.63a10,10,0,0,0-1.3.36,5.23,5.23,0,0,0,1.45.54c1.38.09,2.76.08,4.14.08ZM278.4,265.5h.07q0-11.06,0-22.12c0-5.53,0-11.06,0-16.59a5.34,5.34,0,0,0-.47-1.45c-.16.42-.33.84-.46,1.26A117.16,117.16,0,0,1,251,272.29c-1.26,1.33-.66,2,.24,3,5.33,5.94,10.67,11.88,15.92,17.89,3.24,3.69,6.33,7.51,9.52,11.25a8.37,8.37,0,0,0,1.44,1.09,11.24,11.24,0,0,0,.29-1.8Q278.42,284.63,278.4,265.5ZM78.59,308.76v.08H109.9c1.85,0,3.69,0,5.53-.06a4.11,4.11,0,0,0,1.19-.44c-.42-.16-.83-.34-1.26-.46A100.15,100.15,0,0,1,82.7,291.66C79,288.91,75.54,285.91,72,283c-2.51-2-2.46-2-4.62.09q-5.26,5.14-10.65,10.16c-4.93,4.61-9.92,9.15-14.86,13.75a7.45,7.45,0,0,0-1,1.45,12.32,12.32,0,0,0,1.79.28Q60.64,308.78,78.59,308.76ZM36.82,69h-.17v8.28c0,4.29,0,8.59.05,12.88,0,1.84.42,2,2.27,1.68a64,64,0,0,1,8.93-1.5c2.44-.1,3.43-1.06,4.24-3.22A61.56,61.56,0,0,1,63.78,67.55c1.49-1.67.86-2.39-.36-3.59-5.64-5.63-11.2-11.35-16.82-17-2.92-2.94-5.87-5.84-8.84-8.73a7.43,7.43,0,0,0-1.46-.9,13.74,13.74,0,0,0-.19,1.8Q36.44,54.05,36.82,69ZM66.45,34.7h0c-7.81,0-15.63,0-23.44,0a4.36,4.36,0,0,0-1.25.41,4.41,4.41,0,0,0,.59,1.12q6.16,6.18,12.35,12.34c4.23,4.21,8.46,8.44,12.7,12.64.58.57,1,1.42,2.16.54,5.51-4.08,11.08-8.09,16.72-12a4.36,4.36,0,0,0,2.3-3.53,51.93,51.93,0,0,1,1.87-8.4c.87-3.11,1-3.13-2.4-3.15C80.85,34.68,73.65,34.7,66.45,34.7Zm70.93,51.21c-.11-11.36-8.1-22.45-22.49-22.2C100.35,64,93,75,93.1,85.12c.09,12.36,9.17,22.39,22,22.4A21.72,21.72,0,0,0,137.38,85.91ZM79.9,145.63c9.31.77,20.62-8.66,20.59-21a20.58,20.58,0,0,0-20.84-20.59c-9.26.07-20.88,6.79-20.48,21.28C59.49,137.22,69.38,146.1,79.9,145.63ZM219,69.06v.19q-9.9,0-19.8,0a10.5,10.5,0,0,0-1.36.16A6,6,0,0,0,199,70.62a16.43,16.43,0,0,0,2.11.88,99,99,0,0,1,22.56,13.13c5.28,4.18,10.42,8.54,15.62,12.81a5.13,5.13,0,0,0,1.09.57,6.22,6.22,0,0,0,.28-1.32c0-8.45,0-16.89.12-25.33,0-1.88-.66-2.35-2.4-2.33C231.91,69.1,225.46,69.06,219,69.06Z"/><path d="M131,85.65c.32,8-6.78,16-16.17,15.8-8.42-.22-15.54-7.5-15.34-15.7a16.65,16.65,0,0,1,16.27-16.58C123.88,69.23,131.09,77,131,85.65Z"/><path d="M95.1,125.25c.47,6.65-4.72,14.57-14.94,14.62a14.72,14.72,0,0,1-15-15.26c.27-7.63,7.13-14.85,14.89-14.62C90.11,110.28,95.58,118.17,95.1,125.25Z"/></g></svg>