<svg xmlns="http://www.w3.org/2000/svg" xmlns:xlink="http://www.w3.org/1999/xlink" viewBox="0 0 100 100" version="1.1"><g transform="translate(1, 4.867919283497237) scale(0.051652964870907134) translate(-56.421875, -109.542969)"><path style=" stroke:none;fill-rule:nonzero;fill:rgb(0%,0%,0%);fill-opacity:1;" d="M 870 903 L 870 904 C 787.65625 904.054688 705.34375 898 623 898 C 601.953125 898 581 897 560 897 C 553.875 897 541.675781 894.671875 536.390625 898.027344 C 532.289063 900.632813 529.777344 908 527.421875 912 C 520.878906 923.402344 514.265625 935 507.316406 946 C 486 980.074219 461.222656 1011 434.714844 1041 C 414.300781 1064.152344 391.507813 1085.105469 370.828125 1108 C 363.734375 1116 351.191406 1125.761719 348 1136 C 430 1119.042969 516.738281 1130.050781 581 1188.171875 C 603.984375 1209 618.621094 1234.195313 636.429688 1259 C 646.613281 1273.1875 658.496094 1286 667.550781 1301 C 685.285156 1330.398438 691.699219 1361.1875 691 1395 L 690 1395 C 684.9375 1380.160156 673.464844 1366.644531 664.425781 1354 C 647.777344 1330.699219 631.328125 1307.058594 608 1290 C 596.941406 1281.742188 581.242188 1279 571 1270.582031 C 563.820313 1264.605469 561.289063 1253 556.597656 1245 C 547.390625 1229.4375 535.785156 1215.046875 521 1204.429688 C 449.703125 1153.230469 347.964844 1188.523438 287 1238 C 296.660156 1222.542969 310.445313 1207.171875 323 1194 C 329.386719 1187.359375 338.894531 1180.230469 343 1172 C 300 1183.738281 264 1226.222656 245.78125 1265 C 240.300781 1276.613281 236 1289.394531 233.738281 1302 C 232.902344 1306.390625 232.859375 1315.363281 228.722656 1318 C 220.730469 1323.007813 199.40625 1319 190 1319 L 98 1319 C 88.433594 1319 69.894531 1315.382813 61.316406 1319.601563 C 57.789063 1321.339844 59 1327.8125 59 1331 L 59 1360 C 59 1363 57.925781 1369 60.601563 1371 C 63.699219 1373.421875 71.269531 1372 75 1372 L 304 1372 C 308.984375 1372 317.445313 1370.132813 317.9375 1377.019531 C 318.640625 1387 308.90625 1385 302 1385 L 77 1385 C 72.597656 1385 65.34375 1383.621094 61.316406 1385.601563 C 57 1387.714844 59 1399.015625 59 1403 L 59 1445 C 59 1450.035156 57.648438 1458.132813 60.515625 1462.59375 C 62.902344 1466.316406 77.796875 1464 82 1464 L 323 1464 C 326.933594 1464 334 1462.640625 337.488281 1465.027344 C 341.503906 1468 342.800781 1478.445313 344 1483 C 348 1496.257813 354.71875 1508.308594 360 1521 C 283.394531 1521 206.667969 1510.003906 130 1510 C 111.945313 1510 94 1508 76 1508 C 70.59375 1508 59.738281 1505.566406 59 1513.019531 C 58.683594 1517.144531 56.96875 1532.261719 60.652344 1535 C 64.964844 1538 81.4375 1535 87 1535 C 112.484375 1535 138.503906 1535.078125 164 1534 C 210.464844 1532 257.480469 1532 304 1532 C 314.601563 1532 325.425781 1532.636719 336 1532 C 344.390625 1531.335938 354.691406 1529.207031 362.996094 1531.316406 C 369.492188 1533 372.988281 1542.308594 377.175781 1547 C 385.953125 1557 396.242188 1565.65625 408 1571.742188 C 424.261719 1580.15625 441.476563 1585.601563 460 1583.828125 C 469.832031 1583 481.445313 1576.699219 491 1577.515625 C 497.421875 1578.0625 504 1584 510 1586.394531 C 521.976563 1591.246094 534 1593 547 1592 C 562.898438 1590.628906 572.816406 1578.699219 587 1574.511719 C 594.207031 1572.386719 602.5625 1574.722656 610 1573.382813 C 629.609375 1570 648.398438 1557.523438 660.714844 1542 C 667.902344 1533 669.910156 1520 676.925781 1511.511719 C 679.464844 1508.460938 684.726563 1507.488281 688 1505.226563 C 694.183594 1501 698.730469 1495.421875 702.546875 1489 C 707 1481.488281 707.703125 1464.691406 718 1464.042969 C 758.3125 1461.507813 799.597656 1464 840 1464 L 1235 1464 C 1258 1464 1284.257813 1460.472656 1306.980469 1464.148438 C 1312.210938 1465 1312.515625 1469.773438 1313.886719 1474 C 1316.671875 1482.585938 1320 1490.667969 1325.488281 1498 C 1329.730469 1503.808594 1334.652344 1508.714844 1341 1512.203125 C 1344.648438 1514.207031 1349.554688 1514.164063 1352.5 1517.304688 C 1356.96875 1522.066406 1358.582031 1530.386719 1362 1536 C 1369 1547.394531 1379 1557 1390 1564.5625 C 1400.425781 1572 1413 1578.007813 1426 1579 C 1433.816406 1579.457031 1443.570313 1576.6875 1451 1578.511719 C 1458.480469 1580.355469 1465.703125 1585.644531 1473 1588.386719 C 1483.742188 1592.417969 1496.628906 1593.320313 1508 1591.699219 C 1515.953125 1590.566406 1523.90625 1588 1531 1584.21875 C 1535.324219 1582 1540 1577.5 1545 1576.695313 C 1552 1575.527344 1560.738281 1581.378906 1568 1582 C 1591.554688 1583.636719 1615 1574.6875 1631.910156 1558 C 1647.929688 1542 1660.683594 1523.402344 1668.308594 1502 C 1671 1494.089844 1673 1486.308594 1674.28125 1478 C 1674.765625 1474.417969 1674.824219 1468.265625 1677.589844 1465.601563 C 1680.695313 1462.613281 1688 1464 1692 1464 L 1930 1464 C 1934.519531 1464 1943.421875 1465.714844 1947.398438 1463.398438 C 1949.792969 1462 1949.679688 1455.480469 1949.8125 1453.003906 C 1950.179688 1446.035156 1944 1447.113281 1939 1447 C 1928 1446.714844 1916.988281 1445.054688 1906 1445 C 1858 1444.769531 1810 1439 1762 1439 L 1762 1438 C 1783.628906 1436.292969 1805.320313 1437 1827 1436 C 1849.574219 1435 1872.417969 1432.109375 1895 1432 C 1907.722656 1432 1920.320313 1430.15625 1933 1430.003906 C 1936.960938 1430 1945 1431.566406 1948.398438 1429 C 1952 1426.03125 1951 1414.015625 1945.941406 1413.148438 C 1936.683594 1411.570313 1926.402344 1412.554688 1917 1412 C 1895.753906 1410.457031 1874.316406 1408 1853 1408 L 1853 1407 C 1874.992188 1406.546875 1897 1405 1919 1404.039063 C 1927.246094 1403.679688 1940.253906 1406.714844 1947.851563 1403.398438 C 1952.191406 1401.5 1951.824219 1392 1950.683594 1388.148438 C 1949.253906 1383.335938 1940.828125 1385 1937 1385 L 1709 1385 C 1705.183594 1385 1698.488281 1386.226563 1696.605469 1382 C 1693 1373.585938 1701 1372.003906 1707 1372 L 1929 1372 C 1935 1372 1943 1373.402344 1948.851563 1371.683594 C 1952.882813 1370.484375 1952 1365.289063 1952 1362 L 1952 1331 C 1952 1328.148438 1953.699219 1321.199219 1950.644531 1319.601563 C 1947.398438 1318 1941.566406 1319 1938 1319 L 1809 1319 C 1797.640625 1319 1777.546875 1323 1767 1318.398438 C 1763.914063 1317 1763.78125 1313.003906 1763 1310 C 1761.335938 1302 1759.679688 1294 1757.628906 1286 C 1750.203125 1257.113281 1740 1230 1723.328125 1205 C 1695.1875 1163.253906 1651.902344 1139.203125 1615 1106.714844 C 1588.195313 1083.117188 1566.605469 1052.699219 1547 1023 C 1528.589844 995 1513 965.667969 1499.304688 935 C 1495.640625 927 1492.421875 918.386719 1489.320313 910 C 1488 906.574219 1486.871094 901.132813 1483.605469 899.027344 C 1479.449219 896.347656 1470.777344 898 1466 898 C 1453.609375 898 1441.382813 899 1429 899 C 1423.414063 899 1415.34375 897.53125 1410 899.601563 C 1402.28125 902.683594 1396.492188 912.667969 1389 917 C 1390.640625 913.820313 1400.960938 903.605469 1397.917969 900.027344 C 1395.734375 897.460938 1386 899 1383 899.171875 C 1369 900.496094 1355 900 1341 900 C 1282.355469 900.28125 1223.789063 904 1165 904 L 1165 902 C 1190.703125 901.785156 1217.34375 895.621094 1243 893.171875 C 1277.585938 890 1312.460938 890.457031 1347 887.171875 C 1360.484375 886 1374.445313 886 1388 886 C 1393.707031 886 1401.898438 887.363281 1406.960938 884.207031 C 1412.992188 880.445313 1416.5 871.765625 1420.332031 866 C 1432 848.25 1441.65625 829.136719 1450.949219 810 C 1473.734375 763.054688 1489.265625 706.601563 1486.960938 654 C 1485 612.542969 1472.847656 572.285156 1471 531 C 1470.210938 512.03125 1474.171875 492.628906 1477.285156 474 C 1492.304688 384.078125 1519.34375 293 1504.589844 201 C 1499.90625 172 1490.371094 118.828125 1453 116.089844 C 1423 114 1390.734375 135.613281 1367 151.332031 C 1329.460938 176.191406 1293.941406 204.402344 1261 235.089844 C 1239.984375 254.664063 1220.585938 280.660156 1197 297 C 1181.703125 307.507813 1157.964844 309.523438 1140 312.296875 C 1082.734375 321.136719 1024.746094 309 967 315.164063 C 947.679688 317.234375 928.367188 320.527344 909 322.085938 C 898.167969 323 889.476563 325.183594 879 320.660156 C 859.972656 312.453125 845.675781 293.777344 831.910156 279 C 814.417969 260.222656 795.351563 243 777 225.015625 C 739.96875 189 695.421875 153.472656 649 130.246094 C 631 121.292969 607.933594 109.542969 589 122.800781 C 577 131.125 571.171875 146 566.320313 159 C 553.992188 192.34375 552.984375 229 553 264 C 553 343.554688 584 419.71875 584.996094 499 C 585.492188 540.707031 571.769531 578.386719 564.464844 619 C 558.296875 653.273438 559 688.554688 562.835938 723 C 565.289063 746 569.609375 768.410156 574.199219 791 C 576 800.496094 581.394531 813.363281 579.9375 823 C 579 829.164063 573.695313 836 570.328125 841 C 563.863281 851 557.460938 860.785156 551.566406 871 C 550.28125 873.226563 545 879.492188 547.710938 882 C 551.171875 885.273438 564.402344 883 569 883 C 588 883 607.964844 882.359375 627 884.171875 C 650.859375 886.441406 675 885.449219 699 887.089844 C 756 891.003906 813 895.808594 870 903 M 1477 222 C 1485.226563 240.585938 1486 265 1486 285 C 1486 347.425781 1473.242188 434.546875 1412 465.246094 C 1405 468.726563 1397.664063 473.539063 1390 475 C 1392.65625 470.027344 1397.660156 466.523438 1401 462 C 1408.253906 452.597656 1414.414063 442.320313 1420 432 C 1421.722656 429.148438 1428.589844 419.714844 1426.886719 416.601563 C 1425 413.363281 1414 416 1411 416.171875 C 1393.53125 418 1379.417969 427.242188 1363 431 C 1373.652344 416.203125 1394.4375 406.03125 1410 397.148438 C 1412.84375 395.527344 1426.945313 390.382813 1426.945313 387 C 1426.945313 383.707031 1420.324219 382.519531 1418 382.171875 C 1408.324219 380.726563 1398.660156 381.085938 1389 382.589844 C 1360.675781 387.003906 1334 397.320313 1308 409 C 1296.738281 414 1285.808594 421.597656 1274 425 L 1274 424 C 1315 397 1354.585938 375.296875 1402 361 C 1413 357.539063 1424 354.3125 1435 350.804688 C 1436.789063 350.234375 1444.945313 348.433594 1444.945313 346.015625 C 1444.945313 344 1439.359375 343.636719 1438 343.425781 C 1430.277344 342.210938 1422.804688 342 1415 342 C 1394.347656 342 1372.550781 345.582031 1353 352.34375 C 1342.511719 356 1332.582031 362 1322 365 C 1327.917969 357.332031 1338.570313 352.699219 1347 348.21875 C 1365.355469 338.46875 1382.964844 330.28125 1403 324.425781 C 1411.589844 322 1420.230469 320.445313 1429 318.804688 C 1431.523438 318.332031 1436.53125 318.632813 1438.246094 316.402344 C 1442 311.410156 1427.789063 307.425781 1425 306.519531 C 1408 301.027344 1391.183594 303.644531 1374 304 L 1374 303 C 1394.449219 292.226563 1417.460938 289 1440 286.285156 C 1445.675781 285.644531 1462.523438 291.222656 1466.261719 287.496094 C 1469.460938 284.308594 1469.558594 276.25 1470.246094 272 C 1472.175781 260.097656 1473.296875 248 1474.714844 236 C 1475.289063 231.15625 1474.40625 226.328125 1477 222 M 702 325 C 687.738281 320.175781 657.238281 310.484375 644 322 C 664.652344 323.6875 686.238281 336.800781 703 348.195313 C 709.671875 352.730469 717.496094 357.492188 721 365 C 709.539063 363.027344 698.742188 358.730469 687 357.285156 C 673 355.578125 659.855469 357 646 357 C 658.183594 368.832031 676.730469 377.796875 691 387.332031 C 698.238281 392.171875 707.230469 398 711 406 C 698 400.632813 688 398 674 398 C 671.992188 398 662 396.824219 662 400.109375 C 662 403.585938 674.460938 414.171875 677 417 C 690.4375 431.355469 707.175781 447 717 464 C 692 455.613281 669.214844 443.15625 648 428 C 659.222656 451 675.660156 467.640625 690 488 C 660.976563 481.78125 638.820313 455.234375 623.332031 432 C 611.335938 414.003906 598 395.527344 590.863281 375 C 577.992188 338.636719 577.484375 298.046875 580 260 C 580.867188 248.65625 583.765625 237.351563 584 226 C 589.3125 228.757813 591.808594 235.339844 595.425781 240 C 601.527344 248 608.597656 255.167969 616 261.828125 C 635.65625 279.523438 661.441406 288 682 304.398438 C 688.925781 310 698.589844 316.5625 702 325 M 1415 521 C 1420.183594 514.222656 1427 509.402344 1431.769531 502 C 1432.714844 500.492188 1436.339844 495.789063 1434.757813 494 C 1433 492 1425.589844 498 1424 499 C 1412.820313 505.382813 1401.175781 513.570313 1389 518 C 1393.285156 510.542969 1401.484375 505.300781 1406.402344 498 C 1412.472656 489 1415.890625 477.6875 1424 470.183594 C 1427.914063 466.621094 1436 460.363281 1441.8125 462.617188 C 1448.644531 465.316406 1449 477.015625 1449 483 C 1449 502.742188 1434.574219 518.109375 1415 521 M 790 651 C 783.449219 668.03125 774.308594 680.449219 776.171875 700 C 781.320313 754.089844 851.179688 782.296875 886 735 C 904 710.578125 897.898438 683.308594 889 657 C 928 677.300781 931 731.007813 901.984375 760 C 878.46875 783.464844 838.726563 789.039063 808 778.480469 C 776.230469 767.5625 754.847656 737.214844 749.25 705 C 747.453125 694.667969 745.722656 679.117188 752.652344 670.175781 C 757.429688 664.003906 766 660.03125 773 657 C 778.410156 654.339844 784 652 790 651 M 1158 656 C 1156.601563 664 1152.175781 671.183594 1150 679 C 1147 691 1148 705.277344 1151.746094 717 C 1166.824219 764.179688 1230.75 773.46875 1259 733 C 1270.980469 716.039063 1274.214844 693.753906 1268 674 C 1265.761719 666.710938 1260.867188 660.261719 1259 653 C 1269.996094 655 1288 662.109375 1294 672.015625 C 1299.386719 680.746094 1298.476563 694.304688 1297.285156 704 C 1293.933594 731.273438 1278.847656 758.34375 1254 771.675781 C 1223.441406 788.074219 1183.378906 787.503906 1155 766.710938 C 1116 738.210938 1116.433594 682.433594 1158 656 M 853 662.390625 C 874.90625 657.652344 883.378906 692.347656 861 697 C 838.210938 701.457031 830 667.355469 853 662.390625 M 1222 662.378906 C 1243.90625 658 1251.992188 692.007813 1230 697 C 1206.75 702.023438 1198.976563 667.066406 1222 662.378906 M 1460 828 C 1451.9375 841.796875 1444 855.53125 1435.414063 869 C 1433.617188 871.804688 1425.824219 880 1427.332031 883.398438 C 1428.527344 886.140625 1435.660156 885 1438 885 C 1447.582031 885 1457.453125 884.320313 1467 885.167969 C 1469.636719 885.398438 1476 887.285156 1477.882813 884.386719 C 1479.851563 881.203125 1475.898438 873.21875 1474.832031 870 C 1470.660156 857.398438 1467.476563 838.761719 1460 828 M 1007 857.285156 C 1023 855.386719 1049.714844 855.054688 1065 860.710938 C 1069.332031 862.3125 1081.949219 869.269531 1080.171875 875.488281 C 1079.191406 879 1069.828125 878.808594 1067 879 C 1051.996094 879.800781 1039.519531 889.054688 1025 890.816406 C 1006.492188 893.0625 991.980469 879.671875 974 879.011719 C 971.179688 879 957.804688 879.265625 957.597656 875.683594 C 957.328125 871.105469 963.601563 866.28125 967 864.214844 C 979.191406 856.789063 993.523438 859 1007 857.285156 M 1096 888 C 1095.421875 894.628906 1092.570313 900 1090 906 C 1130.472656 907 1173.398438 919.628906 1213 927.550781 C 1278.398438 940.632813 1343.847656 953.273438 1408 971.710938 C 1433.636719 979.074219 1459 987.449219 1484 997.203125 C 1492.925781 1000.707031 1506.601563 1003.671875 1513 1011 C 1428 994.511719 1344 972.496094 1259 956.539063 C 1235.679688 952.171875 1212.5 948 1189 944.574219 C 1179.519531 943.238281 1169.546875 940 1160 940 C 1235.867188 976 1306 1016.792969 1370 1071.578125 C 1385.472656 1085 1401.609375 1100.019531 1413 1117 C 1414.539063 1119.292969 1425.171875 1133.425781 1420.382813 1135.578125 C 1416.242188 1137.4375 1406 1126.507813 1403 1124.113281 C 1385.988281 1111 1369.679688 1096.496094 1353.285156 1082.476563 C 1304 1040.359375 1248.714844 1003.308594 1190 975.78125 C 1172.230469 967.453125 1152.882813 963 1135 955 C 1141 961.605469 1150.621094 965 1158 970.027344 C 1172.71875 980.082031 1186.964844 991.027344 1201 1002.015625 C 1242 1034.125 1280.574219 1074.285156 1309 1118 C 1321 1136.261719 1331.832031 1155.363281 1339 1176 C 1340 1178.574219 1346.730469 1196.679688 1340.941406 1196 C 1335.394531 1195.277344 1328.832031 1183.128906 1325.652344 1179 C 1312.257813 1161.617188 1300 1143.328125 1286.574219 1126 C 1259.703125 1091.453125 1232 1057.773438 1200 1028 C 1190.382813 1019 1178.410156 1002.238281 1166 997.449219 C 1162.449219 996.082031 1159.359375 999 1156 999.605469 C 1150.898438 1000.742188 1145.847656 999.535156 1141 998 C 1143.972656 1002.039063 1148 1005 1151 1009 C 1122 1024.183594 1080.464844 1010 1055 993.691406 C 1046.976563 988.5625 1031.898438 981.527344 1030.242188 971 C 1029.355469 965.363281 1032.308594 959.175781 1034 954 C 1039.417969 939.097656 1046.730469 922.289063 1060 912.789063 C 1066.757813 908 1075 906.289063 1082 901.640625 C 1087.5625 898 1090.566406 891.460938 1096 888 M 948 894 C 959 905.449219 975.320313 908.636719 985.675781 921 C 994.503906 931.542969 1010.3125 956.324219 1007.175781 971 C 1005.625 978.261719 996.632813 984.25 991 988.289063 C 974 1000.394531 954.46875 1010 934 1014 C 926.203125 1015.574219 895.285156 1021.136719 899 1008 C 887.589844 1017.199219 879 1031.171875 870.574219 1043 C 856.839844 1062.21875 842.851563 1081.152344 830 1101 C 822.21875 1113.140625 814.40625 1131.070313 803 1140 C 804.207031 1126.1875 812 1111.425781 817.917969 1099 C 836.792969 1058.507813 865 1026.257813 893 992 C 887.925781 994.808594 883 998.128906 877 998 C 873 997.753906 869.914063 993.726563 865.996094 995.699219 C 851.917969 1002.78125 838.652344 1018.296875 827 1029 C 792.191406 1060.492188 761.585938 1097.503906 733.230469 1135 C 720.507813 1151.824219 708.488281 1169.179688 695.769531 1186 C 692.722656 1190.027344 686.921875 1201.398438 681 1201.246094 C 673 1201.039063 680.507813 1184.503906 681.8125 1181 C 689.304688 1161 698.621094 1141.710938 710.886719 1124 C 744 1076 785.21875 1032.210938 832 997.105469 C 847.210938 985.6875 863 969.8125 881 963 L 881 962 C 860.902344 966.648438 841.59375 977.128906 823 985.765625 C 771.292969 1009.789063 722.878906 1042.59375 678 1077.574219 C 660.183594 1091.460938 642.746094 1105.816406 625 1119.789063 C 620.972656 1123 610.933594 1134.160156 605.371094 1133.003906 C 600.972656 1132.085938 611.699219 1117 613 1115 C 624.96875 1097.699219 640.710938 1082.03125 657 1068.804688 C 702.554688 1031.816406 751 999.589844 803 972.300781 C 824 961.230469 847.367188 953.742188 868 942 C 853.578125 941.542969 837.21875 946.039063 823 948.535156 C 799 952.730469 774.988281 956.707031 751 960.714844 C 670.457031 974.167969 588.28125 987.46875 509 1007 C 512.632813 1001 524.59375 998.300781 531 995.8125 C 551.230469 988 572 981.074219 593 975.359375 C 675.933594 952.722656 760.761719 939.046875 845 922.199219 C 870.265625 917.148438 895.695313 913.527344 921 908.804688 C 927.332031 907.621094 942.882813 909.039063 947.496094 904.398438 C 950 901.714844 947.324219 897.222656 948 894 M 1471 1087 C 1449.359375 1080.410156 1428.644531 1065.3125 1409 1054.285156 C 1367.582031 1031.027344 1326.628906 1007 1285 984 C 1289.527344 983.0625 1294.828125 986.277344 1299 988.011719 C 1310 992.65625 1321 998.089844 1332 1003.164063 C 1367 1019.394531 1401.796875 1038 1434 1059.332031 C 1445.839844 1067.210938 1462.511719 1075.472656 1471 1087 M 745 985 L 745 986 C 695.996094 1006.503906 650.535156 1037.480469 603 1061.246094 C 586.960938 1069.265625 568.78125 1082.828125 551 1086 C 562.867188 1070.625 588 1059.414063 605 1050.230469 C 636.636719 1033.027344 667.914063 1016 701 1001.574219 C 714.761719 995.589844 730 987.027344 745 985 M 893 992 C 894.578125 991.316406 894.777344 991.195313 896 990 C 894.421875 990.683594 894.222656 990.804688 893 992 M 1117 1041 C 1111.496094 1050.695313 1088 1056.117188 1078 1060.0625 C 1059.8125 1067.117188 1040.734375 1073.382813 1021 1074 C 987.621094 1074.695313 954.890625 1056.5625 925 1044 C 931.800781 1038.425781 944.671875 1037.402344 953 1034.1875 C 975.242188 1025.601563 1004.179688 1003 1029 1009 C 1059.753906 1016.257813 1083.960938 1040.726563 1117 1041 M 1187 1066 C 1201 1088.804688 1215 1111 1225 1136 C 1219.828125 1133 1217 1126.113281 1214 1121 C 1206.9375 1109 1200.492188 1096.488281 1194.246094 1084 C 1191.773438 1079.050781 1186 1071.585938 1187 1066 M 1660 1179 C 1632.414063 1175.28125 1606.199219 1169.003906 1578 1169 L 1578 1170 C 1603 1173.675781 1626.34375 1185.183594 1647 1199.589844 C 1654 1204.546875 1663.246094 1210 1667 1218 C 1639.277344 1205 1615.984375 1190.523438 1585 1185.085938 C 1544 1178 1492.207031 1184.152344 1465 1219 C 1458.976563 1226.742188 1454.453125 1235.699219 1451.355469 1245 C 1449.242188 1251.34375 1448.5625 1258.453125 1444.210938 1263.816406 C 1438.453125 1271 1427.761719 1274.398438 1420 1279 C 1408 1285.691406 1396.347656 1294.449219 1387.4375 1305 C 1367.9375 1328.089844 1354.234375 1357 1339 1383 C 1334.757813 1390.269531 1332.246094 1399.503906 1327 1406 C 1313.1875 1374.800781 1317.4375 1334.097656 1334.449219 1305 C 1344 1288.445313 1358.210938 1275.046875 1368.65625 1259 C 1387.390625 1230.210938 1393.855469 1193 1420 1169.171875 C 1469 1124.449219 1545.226563 1125.449219 1604 1147 C 1621.933594 1153.503906 1647.6875 1164 1660 1179 M 287 1238 C 286.453125 1239.636719 286.636719 1239.453125 285 1240 C 285.546875 1238.363281 285.363281 1238.546875 287 1238 M 1673 1290 C 1676.363281 1304.125 1675.40625 1319.574219 1676 1334 C 1678 1378.816406 1671.453125 1419.011719 1655.1875 1461 C 1650.742188 1472.476563 1645.945313 1483.734375 1640.996094 1495 C 1638.644531 1500.359375 1636.367188 1507.210938 1631 1510 C 1638.421875 1486.636719 1640.277344 1461.195313 1643.285156 1437 C 1647 1406.660156 1652.335938 1377 1658.789063 1347 C 1661.675781 1333.636719 1664.90625 1320.285156 1668 1307 C 1669.453125 1301.546875 1669.785156 1294.628906 1673 1290 M 337 1293 C 364 1343.746094 374.570313 1401.796875 388.371094 1457 C 396.683594 1490.238281 409 1522.132813 418 1555 C 399 1546.546875 383.800781 1522.792969 374.757813 1505 C 351 1458.421875 340.449219 1404.652344 336.910156 1353 C 335.972656 1339.332031 336 1325.726563 336 1312 C 336 1306.113281 334.707031 1298.460938 337 1293 M 706.355469 1332.601563 C 714.789063 1328.1875 734.457031 1332 744 1332 L 1273 1332 C 1281.84375 1332 1300.628906 1328.394531 1308.394531 1332.683594 C 1311.914063 1334.628906 1306.609375 1354.800781 1304 1357.398438 C 1301.820313 1360 1297 1359 1294 1359 L 744 1359 C 734.363281 1359 723.527344 1360.398438 714 1359 C 706.859375 1357.6875 707.417969 1346.503906 705.984375 1341 C 705.359375 1338.59375 703.351563 1334.175781 706.355469 1332.601563 M 1141 1419 L 1141 1420 C 1163.304688 1420.183594 1185.71875 1423 1208 1424 C 1230 1425 1253 1423.691406 1275 1426.285156 C 1282.980469 1427.226563 1290.996094 1427.066406 1299 1427.828125 C 1301.648438 1428.085938 1306 1427.222656 1307.972656 1429.601563 C 1309.910156 1432.050781 1309 1437.089844 1309 1440 C 1309 1442.691406 1309.773438 1447.125 1307.972656 1449.398438 C 1304.371094 1454 1285.519531 1451 1280 1451 C 1252.285156 1451 1224.722656 1452 1197 1452 C 1120 1452 1042.910156 1453 966 1451 C 929.359375 1450.089844 892.625 1446.4375 856 1446.003906 C 819.695313 1445.570313 783.207031 1442.570313 747 1440.089844 C 738.324219 1439.496094 729.644531 1439.5625 721 1438.425781 C 718.988281 1438.160156 713.503906 1438.714844 712.347656 1436.625 C 710.789063 1433.820313 718.921875 1434.007813 720 1434 C 730.359375 1434 740.652344 1432.050781 751 1432 C 794.3125 1431.792969 837.664063 1426 881 1426 C 918 1426 955 1420.003906 992 1420 L 992 1419 C 963.492188 1413.707031 931.964844 1417.230469 903 1416 C 867 1414.386719 830.992188 1413.535156 795 1412 C 772.683594 1411 750.363281 1408 728 1408 C 731.175781 1403.503906 738 1405.226563 743 1404.574219 C 757.546875 1402.664063 772.417969 1403.433594 787 1401.714844 C 816 1398.277344 845.75 1399 875 1397 C 908 1394.640625 941.792969 1391 975 1391 L 975 1390 C 957.539063 1386 936.949219 1389.140625 919 1388 C 873.425781 1384.789063 827.585938 1385.210938 782 1382.089844 C 763.625 1380.832031 744 1382.363281 726 1379 C 738.539063 1373.6875 757.5625 1377 771 1377 C 800.398438 1377 830.5625 1376.25 860 1375 C 970.265625 1370.132813 1081.574219 1371 1192 1371 L 1267 1371 C 1276.996094 1371 1291.339844 1368.351563 1300.851563 1371.433594 C 1304.578125 1372.640625 1303.992188 1376.828125 1304 1380 C 1304 1388.371094 1305 1396.742188 1306.410156 1405 C 1306.78125 1407.316406 1308.597656 1413 1306.882813 1415 C 1305 1417.144531 1298.5625 1416 1296 1416 C 1285.34375 1416 1274.652344 1415.753906 1264 1416.015625 C 1240 1416.601563 1215.925781 1418 1192 1418 C 1175.421875 1418 1157.320313 1416 1141 1419 M 679 1484 C 674.179688 1477 674.332031 1465.148438 671.1875 1457 C 665.734375 1443 654.539063 1429.226563 650.507813 1415 C 649.238281 1410.519531 649.492188 1394.828125 655.277344 1393.359375 C 665 1391 675 1405 678.738281 1412 C 690.304688 1434.183594 691.765625 1462.125 679 1484 M 1358.996094 1393.414063 C 1367.195313 1392 1368.234375 1406.363281 1367.953125 1412 C 1367.589844 1419.203125 1361.34375 1425.660156 1358.257813 1432 C 1353.746094 1441.28125 1351.195313 1451.753906 1350.171875 1462 C 1349.859375 1465.105469 1351.789063 1484.363281 1348.566406 1485.078125 C 1346.3125 1485.578125 1343.746094 1481.417969 1342.664063 1480 C 1338 1474 1335.597656 1467.195313 1333.578125 1460 C 1328 1440.253906 1333.4375 1398.140625 1358.996094 1393.414063 M 640 1508 C 634 1488.246094 632.890625 1469.785156 620.652344 1452 C 617.257813 1447.066406 608.179688 1440.65625 613.574219 1434.328125 C 622.46875 1424 635.523438 1435.429688 640.207031 1444 C 648.667969 1459.476563 654.953125 1494.328125 640 1508 M 1390 1527 C 1374.53125 1511.054688 1379 1472.253906 1387.3125 1454 C 1390.996094 1445.824219 1404.300781 1426 1414 1439.304688 C 1418.726563 1445.644531 1407.691406 1457.027344 1404.757813 1463 C 1395 1482.523438 1390 1505.308594 1390 1527 M 596 1540 C 591 1537.039063 589 1530.734375 586.1875 1526 C 578.972656 1514.191406 568.390625 1500.367188 568 1486 C 567.839844 1479.257813 569.386719 1465 578.945313 1464.753906 C 584.691406 1464.609375 586.691406 1478 587.859375 1482 C 593.203125 1501 595 1520.480469 596 1540 M 1435 1547 C 1435.417969 1526.738281 1441.417969 1505.371094 1447 1486 C 1448 1482.019531 1449.597656 1467.050781 1455 1467.761719 C 1465 1469.050781 1467.851563 1483 1466.699219 1491 C 1464.546875 1506.105469 1454.949219 1520.574219 1446.667969 1533 C 1443.355469 1538 1440.363281 1544.109375 1435 1547 M 1561 1471 C 1566.734375 1495.066406 1558.863281 1535 1532 1544 C 1538.613281 1528.65625 1547.78125 1515 1553.304688 1499 C 1556 1491 1555.976563 1477.621094 1561 1471 M 470 1479 C 473.855469 1490.371094 476.261719 1502 481.308594 1513 C 487 1525.484375 495.890625 1538.015625 500 1551 C 482.398438 1542.792969 471.414063 1519.121094 468.589844 1501 C 467.570313 1494.464844 466.496094 1485 470 1479 M 1740 1505 C 1750 1512.195313 1772.699219 1510.632813 1785 1512.289063 C 1823.664063 1517.496094 1861.925781 1522 1901 1522 C 1911.339844 1522 1921.722656 1520.78125 1932 1521.015625 C 1936 1521.109375 1942.597656 1522.6875 1946.398438 1520.398438 C 1948.554688 1519.101563 1948.746094 1513.367188 1948.398438 1511.148438 C 1947.675781 1506.566406 1940.285156 1508.144531 1937 1507.828125 C 1924.449219 1506.636719 1911.617188 1506 1899 1506 C 1846 1506 1792.972656 1505 1740 1505 M 823 1510 L 823 1511 C 878.382813 1518 934.277344 1529.089844 990 1533 C 1043.566406 1536.582031 1098.320313 1532 1152 1532 C 1181.683594 1532 1211.390625 1531.355469 1241 1531.003906 C 1256 1530.824219 1274.472656 1533.292969 1289 1529 C 1279.789063 1525.128906 1266.894531 1526.773438 1257 1525.828125 C 1229.710938 1523.230469 1202.246094 1522.421875 1175 1519.828125 C 1095 1512.222656 1014.273438 1512 934 1510 C 909 1509.375 884 1509 859 1509 C 847.753906 1509 833.800781 1506.808594 823 1510 M 854 1672 C 856.75 1683.546875 856 1696.203125 857.171875 1708 C 860.304688 1741 859.699219 1774.101563 862.828125 1807 C 863.867188 1818 863 1829.066406 863.910156 1840 C 864 1843.425781 862.757813 1849.53125 865 1852.398438 C 868.398438 1856.652344 884.902344 1854 890 1854 L 966 1854 C 971 1854 991.714844 1857 994.277344 1852 C 997.351563 1845.832031 993.5 1832.039063 994.171875 1825 C 997.425781 1790.777344 990.914063 1756.195313 994.171875 1722 C 995 1712.324219 994.996094 1702.730469 995 1693 C 995 1689.140625 994 1684 999 1683.148438 C 1003.828125 1682.335938 1022.839844 1680.648438 1025.972656 1684.601563 C 1028 1687.222656 1027 1693 1027 1696 L 1027 1817 C 1027 1826.097656 1023.914063 1844.375 1028.601563 1852.398438 C 1031.175781 1856.800781 1052 1854 1057 1854 L 1134 1854 C 1138.46875 1854 1155.925781 1856.5 1158.402344 1852.398438 C 1163.703125 1843.597656 1160.203125 1824.15625 1161.171875 1814 C 1164.695313 1777 1169.691406 1738.191406 1170 1701 L 1171 1701 C 1177.855469 1738 1176.277344 1776.683594 1179.828125 1814 C 1180.746094 1823.644531 1180.574219 1833.34375 1181.714844 1843 C 1182 1845.730469 1181.1875 1850 1182.601563 1852.398438 C 1185 1856.722656 1205.238281 1854 1210 1854 L 1295 1854 C 1300.476563 1854 1322.753906 1857.054688 1325.398438 1851.683594 C 1329 1844.320313 1324.667969 1827.488281 1325 1819 C 1326.441406 1787.011719 1326 1755.015625 1326 1723 C 1326 1714.800781 1321.5 1684 1332 1683.058594 C 1336.917969 1682.621094 1350.425781 1681 1354.398438 1684.027344 C 1357 1686.148438 1356 1692.019531 1356 1695 L 1356 1817 C 1356 1826.1875 1352.855469 1844.277344 1357.601563 1852.398438 C 1360 1856.644531 1379.355469 1854 1384 1854 L 1456 1854 C 1460.957031 1854 1476.679688 1856.554688 1479.972656 1852.398438 C 1481.910156 1850 1481 1845 1481 1842 C 1481 1834.046875 1481.355469 1826 1482.285156 1818 C 1486.492188 1782.355469 1488.171875 1746 1491 1710 L 1492 1710 C 1494.710938 1744.347656 1497.558594 1778.640625 1499.910156 1813 C 1500.625 1823.433594 1497.234375 1843.242188 1502.601563 1852.398438 C 1505 1856.484375 1522.585938 1854 1527 1854 L 1601 1854 C 1605.761719 1854 1625.871094 1856.722656 1628.398438 1852.398438 C 1632.699219 1845.027344 1629 1825.566406 1629 1817 L 1629 1723 C 1629 1714.003906 1624 1683.539063 1636 1683.019531 C 1641 1682.796875 1655.652344 1680.652344 1659.359375 1684.601563 C 1661.421875 1686.804688 1660.394531 1691.246094 1660.554688 1694 C 1661 1702.339844 1661 1710.644531 1661 1719 L 1661 1842 C 1661 1845 1660 1850 1662 1852.398438 C 1664.5625 1855.601563 1673.367188 1854 1677 1854 L 1774 1854 C 1777.957031 1854 1789 1856 1791.972656 1853 C 1794 1851 1792.972656 1845.59375 1793 1843 C 1793 1835.503906 1793.597656 1827.433594 1794.574219 1820 C 1796.390625 1806.179688 1795.847656 1792 1797.171875 1778 C 1799.214844 1756.535156 1802.554688 1734.546875 1803 1713 C 1807.824219 1722.039063 1806.398438 1736 1807 1746 C 1808.757813 1770.332031 1810.242188 1794.671875 1811.910156 1819 C 1812.4375 1826.65625 1813 1834.316406 1813 1842 C 1813 1845 1812 1850 1814 1852.398438 C 1817.628906 1857 1836.480469 1854 1842 1854 L 1918 1854 C 1923 1854 1939.601563 1856.652344 1942.972656 1852.398438 C 1945.660156 1849 1944 1840.125 1944 1836 C 1944 1821.628906 1945 1807.3125 1945 1793 C 1945 1739.308594 1948 1685.703125 1948 1632 C 1948 1616 1949 1600 1949 1584 C 1949 1580.316406 1950.757813 1570.777344 1946.683594 1569 C 1937.453125 1564.523438 1919.875 1568.234375 1910 1569 C 1887.222656 1570.46875 1863.835938 1569 1841 1569 C 1791 1569 1739.761719 1564.09375 1690 1568.828125 C 1677.964844 1570 1662.457031 1565.625 1651 1569 C 1645.8125 1570.398438 1641.863281 1576.355469 1638 1579.828125 C 1630.515625 1586.5625 1621.382813 1593.277344 1612 1597.078125 C 1598.785156 1602.425781 1584.285156 1605.257813 1570 1603.828125 C 1563 1603.128906 1554.972656 1599.246094 1548 1600.238281 C 1542.273438 1601.054688 1537 1605.765625 1532 1608.214844 C 1524 1612 1514.714844 1614.308594 1506 1615 C 1492 1616 1478 1614.257813 1465 1609.074219 C 1459.214844 1606.78125 1454 1602 1448 1600.488281 C 1442.808594 1599.292969 1437.234375 1601.820313 1432 1601.820313 C 1420.894531 1601.820313 1409 1598.433594 1399 1594 C 1390.191406 1590 1382.28125 1584.171875 1375 1578 C 1370.75 1574.183594 1366.941406 1568.773438 1361 1568.109375 C 1350.953125 1567 1340 1569 1330 1569 C 1305.953125 1569 1281.96875 1568.683594 1258 1568.683594 C 1153 1568.683594 1047.738281 1565.453125 943 1568.015625 C 879 1569.578125 815 1569 751 1569 L 691 1569 C 681.417969 1569 670.539063 1567.550781 661 1569.148438 C 656.664063 1570 654 1575 650.984375 1577.699219 C 645 1583 638 1587.511719 631 1591 C 616 1598.160156 602.855469 1594.546875 588 1598.429688 C 581.808594 1600.046875 576.835938 1605.679688 571 1608.332031 C 558.433594 1614.042969 542.703125 1616.398438 529 1614.714844 C 520 1613.617188 511 1611.15625 503 1607.359375 C 498.597656 1605.304688 493.894531 1601 489 1600.382813 C 482.640625 1599.691406 474.484375 1604 468 1604.714844 C 451.765625 1606.785156 435.507813 1605.582031 420 1600 C 409.199219 1596.019531 398.839844 1590.042969 390 1582.675781 C 385.4375 1579 380.839844 1571 374.960938 1569.316406 C 368.664063 1567.667969 360.492188 1569 354 1569 C 339.335938 1569 324.660156 1569.171875 310 1569 C 264 1568.449219 218 1568 172 1568 L 86 1568 C 81.359375 1568 60.773438 1566.640625 59.316406 1571.242188 C 57 1578.535156 59 1589.359375 59 1597 L 59 1653 C 59 1660.574219 56.421875 1674.707031 60.589844 1681.398438 C 64.433594 1687.570313 78.914063 1678.171875 82.398438 1686.148438 C 85.953125 1694.296875 83.898438 1710.054688 84 1719 C 84.242188 1739 86.902344 1759 87 1779 C 87 1798.3125 89.9375 1817.671875 90 1837 C 90 1841.636719 88.945313 1854 95 1854.542969 C 105.71875 1855.722656 100 1825.074219 100 1818 C 100 1783.667969 97.40625 1749.347656 96.996094 1715 C 96.914063 1708.21875 91.335938 1684 101 1683.058594 C 107.785156 1682.441406 129 1679.800781 134.398438 1684.027344 C 137 1686.148438 136 1692.019531 136 1695 L 136 1816 C 136 1825.324219 132.488281 1843.324219 136.601563 1851.683594 C 138 1854.621094 142.296875 1854 145 1854 L 239 1854 C 248.210938 1854 261.957031 1856.601563 270.683594 1853.683594 C 273.914063 1852.601563 273 1847.648438 273 1845 L 273 1715 C 273 1708.15625 269.257813 1684.574219 278 1683.148438 C 283.6875 1682.226563 303.214844 1680.421875 307.398438 1684.601563 C 312.441406 1689.648438 309 1710.089844 309 1717 L 309 1843 C 309 1847.003906 307.871094 1853 313 1854 C 328.445313 1856.472656 346.375 1854 362 1854 C 365.785156 1854 375.34375 1855.714844 377.972656 1852.398438 C 379.910156 1850 379 1845 379 1842 L 379 1694 C 379 1691.308594 378.226563 1687 380 1684.601563 C 382 1682.082031 387.195313 1683 390 1683 C 399.902344 1683 411.179688 1681.484375 420.941406 1683.148438 C 425.839844 1684 424.996094 1689.140625 425 1693 C 425 1702.355469 426 1711.613281 426 1721 L 426 1845 C 426 1847.703125 425.378906 1852 428.316406 1853.398438 C 432 1855.269531 438.84375 1854 443 1854 L 535 1854 C 538.679688 1854 551.304688 1856 553.398438 1852.398438 C 555 1849.59375 554 1844.136719 554 1841 C 554 1832.617188 555 1824.382813 555 1816 L 555 1696 C 555 1692.695313 554 1687.1875 556.601563 1684.601563 C 558.859375 1682.347656 563 1683 566 1683 C 574.230469 1683 582.789063 1682.320313 590.984375 1683.058594 C 601.375 1684 597 1713.085938 597 1721 L 597 1845 C 597 1847.703125 596.378906 1852 599.316406 1853.398438 C 603.34375 1855.378906 610.597656 1854 615 1854 L 715 1854 C 718.925781 1854 733.203125 1856.15625 735.398438 1852.398438 C 739.699219 1845.027344 736 1825.566406 736 1817 L 736 1694 C 736 1690.050781 735.253906 1684.636719 740 1683.316406 C 747.671875 1681.226563 758 1683 766 1683 C 768.726563 1683.019531 772.246094 1682.730469 773.972656 1685.316406 C 778.726563 1692.441406 775 1712.488281 775 1721 L 775 1843 C 775 1845.578125 774 1851 776 1853 C 778.296875 1855.242188 785 1854 788 1854 L 823 1854 C 826.308594 1854 835.292969 1855.65625 836.6875 1851.683594 C 841.660156 1837.484375 839 1817.007813 840 1802 C 842 1773.613281 845.632813 1745.367188 847.914063 1717 C 848.996094 1703.550781 848 1684.175781 854 1672 "/></g></svg>