<svg xmlns="http://www.w3.org/2000/svg" viewBox="0 0 252.32 340.4"><path d="M56.87,297c13,.15,25.52-2.42,37.9-6.08,11.57-3.41,23.16-6.79,34.8-10a28.79,28.79,0,0,1,23.7,3.49c9.1,5.56,12.54,20.3,4.2,29.56a67,67,0,0,1-23.84,16.81,105.45,105.45,0,0,1-24.95,7.35c-8.9,1.4-17.89,2.71-27,2.06-14-1-27.94-2.69-41.13-8.17a82.53,82.53,0,0,1-25-15.83c-9-8.41-13.35-19-15.06-31-2-13.83,2.42-25.7,10.94-36.14,4.65-5.71,10.75-10,17-14,1.16-.75,2.32-1.5,3.53-2.15a1.73,1.73,0,0,0,1-2.5,32.21,32.21,0,0,1-1.48-4.81c-1.42-6.6-2.48-13.28-2-20a139,139,0,0,1,5.77-31.48c7.94-25.91,20.93-49.18,37-70.86,2.64-3.58,5.55-7,8.3-10.44,1.85-2.35,1.82-2.36-.23-4.44-8.87-9-11.63-19.71-9.81-32,1.29-8.72,4.34-16.61,10-23.27,2.78-3.25,3.64-6.84,4.1-10.81a37.51,37.51,0,0,1,8.43-20c2.32-2.8,3.13-3.06,6.11-.88a136.93,136.93,0,0,1,11,9c1.46,1.33,2.45,1.67,4.36.84A58.53,58.53,0,0,1,143,6.62a53.74,53.74,0,0,1,18.52,4.65c1.71.82,2.8.63,4-.66,3.13-3.39,7.33-5,11.55-6.3a18.09,18.09,0,0,1,6.78-.39,4.84,4.84,0,0,1,3.76,2.9,35.9,35.9,0,0,1,3.82,12.11c.52,3.93.89,7.9,1.07,11.86a6.1,6.1,0,0,0,1.92,4A39.25,39.25,0,0,1,203.53,52a36.69,36.69,0,0,1-2.32,23.77,48.38,48.38,0,0,1-17,20.15,8.9,8.9,0,0,1-1.85,1.33c-1.48.54-1.71,1.25-1.12,2.73,3.56,8.92,5.55,18.3,7.69,27.62,1.08,4.73,1.74,9.57,2.55,14.37,1.38,8.18,1.6,16.44,2,24.7.53,11,2.51,21.83,4.9,32.59,1.53,6.85,3,13.74,3.88,20.7a153.08,153.08,0,0,1,1,18.8c0,4.95-2,7.24-6.14,8.53a6.48,6.48,0,0,1-6.74-1.56c-3.29-2.93-5.2-6.78-7.23-10.55-4.58-8.57-7-17.89-9.17-27.26-1.24-5.34-2-10.8-3-16.2a12.71,12.71,0,0,0-.74-2.65c-.52-1.23-1.48-2.09-2.87-1.72a2.33,2.33,0,0,0-1.68,2.87c.28,2,.5,4,.93,5.89,2.84,12.81,5.4,25.71,11.05,37.69.7,1.49.58,2.22-.94,2.7-2.88.93-5.78,1.81-8.64,2.79-1.79.62-2.2-.44-2.37-1.78q-1.51-11.36-3-22.73c-.9-7.12-1.76-14.26-2.63-21.39a11,11,0,0,0-.18-1.82,1.68,1.68,0,0,0-2.84-.87,3.22,3.22,0,0,0-1.51,3.1c.64,5.62,1,11.28,1.76,16.89,1,7.42,2.24,14.8,3.32,22.21.48,3.33.81,6.68,1.19,10,.18,1.65-.25,2.7-2.24,2.41-2.57-.38-5.17-.58-7.73-1-.45-.09-1-1-1.08-1.63-.64-3.92-1.09-7.86-1.77-11.76a58.57,58.57,0,0,0-9-22.41A27.35,27.35,0,0,1,135.94,188a20.2,20.2,0,0,0,.19-3.21c0-.88.17-2.18-1.1-2.05a3.18,3.18,0,0,0-2.37,1.6,38.15,38.15,0,0,0-1.11,6.76c-.17,2,0,4-.08,6,0,.78-.32,1-1.09.56-2.33-1.47-4.61-3-7-4.3a29.88,29.88,0,0,0-16-3.33,17.73,17.73,0,0,0-3.09.72c-1,.27-1.71,1-1.28,2a4.79,4.79,0,0,0,1.87,1.71c.32.2.9.05,1.35,0,8.83-1,16.16,2.24,22.59,8s10.83,13.25,13.69,21.47a68.32,68.32,0,0,1,3.69,20.19c.12,3.37.12,3.51,3.55,4.23a77.93,77.93,0,0,0,10.4,1.57,51.37,51.37,0,0,1,18.38,4.78,24.86,24.86,0,0,1,10.86,9.57c3,4.82,1.53,8.51-4,10a19.11,19.11,0,0,1-4.52.58c-8.31.15-16.41-1.6-24.54-2.94A216.84,216.84,0,0,1,126.94,265c-1.74-.54-3,.14-4.3.81a46.49,46.49,0,0,1-13.38,4.48,78.35,78.35,0,0,1-18.64,1.11,79.2,79.2,0,0,1-26.89-6.84,112.42,112.42,0,0,1-14.23-8.35,4.12,4.12,0,0,0-4.85-.2A48.83,48.83,0,0,0,31,266.77c-5.85,6.35-5,19.34,3.09,24.87A28.8,28.8,0,0,0,50,297C52.26,297.05,54.56,297,56.87,297ZM119.36,78.55C130.06,79.28,141,69.1,141,57c0-9.55-8.78-20.85-21.14-21.2-10-.29-22.07,11.38-21.76,21.91C98.3,66.48,106.47,79.17,119.36,78.55ZM153.67,55.7c-.13,10.78,8.69,19.89,19.33,19.9,9.2,0,19.66-7,19.81-19.43A19.68,19.68,0,0,0,173.15,36.1C163.41,36,153.78,45.74,153.67,55.7Z"/><path d="M222.34,205.94c-.11,2.27-.15,4.1-.31,5.91-.14,1.61.47,2.41,2,3.08a167,167,0,0,1,15.67,7.37,26.17,26.17,0,0,1,12.13,15.48,9.5,9.5,0,0,1,.47,2.69c.09,3.33-.52,3.8-3.94,4-8.94.54-17.57-1.38-26.23-3.11-4-.8-8-1.77-12-2.39-1.68-.26-1.93-1-1.91-2.39a108.63,108.63,0,0,0-1.86-21.45c-1.38-7.49-2.72-15-4.34-22.44a249.29,249.29,0,0,1-4-25.31,27.69,27.69,0,0,1,.19-4.54,39.31,39.31,0,0,1,3.77,2.23c10.26,7.67,16.13,18.13,18.95,30.41A105.25,105.25,0,0,1,222.34,205.94Z"/><path d="M120.17,42.43c8,.15,15.23,7.15,14.77,15-.48,8.06-5.18,15-15.29,15a14.7,14.7,0,0,1-15-15.69C105.07,48.58,109.92,42.24,120.17,42.43Z"/><path d="M160.07,55.68c.57-8.48,4.76-13,13.52-12.82,7.79.15,13,5.63,12.95,13.39,0,6.81-5,13-13.29,13A13.18,13.18,0,0,1,160.07,55.68Z"/></svg>