<svg xmlns="http://www.w3.org/2000/svg" viewBox="0 0 234.13 282"><path d="M123.22,282c-9.5-.47-19-.64-28.49-1.47-8.77-.78-17.73-.92-26-4.42a98,98,0,0,1-11.17-5.25C49,266,40.84,260.53,33.82,253.56c-9.94-9.84-17.37-21.39-23.12-34.07-4.22-9.34-7.87-18.89-9.4-29.07-1-6.48-1.75-12.93-1-19.62.86-7.76,1.63-15.5,3.53-23.09,2.47-9.89,7-18.92,11.67-27.88,7.23-14,16.39-26.59,26.35-38.72,8.25-10,17.95-18.5,28.06-26.5C77,49,84.34,43.72,91.85,38.7c4.16-2.78,8.84-4.81,13.38-7,2-.94,3.18-1.89,3.34-4.31a55,55,0,0,1,7.7-24.18C118.09.1,119.43-.56,123,.42a41.15,41.15,0,0,1,16.16,9.16c2,1.75,3.49,2.16,6.08,1.25,8.94-3.15,18.29-3.58,27.63-2.9,5.65.41,11,2.55,16,5,1.57.76,2.62.89,3.92-.51,3.52-3.79,8.17-5.85,12.83-7.8,3.27-1.36,4.41-.91,6.14,2.43,3.61,7,5.92,14.38,5.49,22.35A7.24,7.24,0,0,0,220,35.79a40.65,40.65,0,0,1,13.24,23c2,10.22.89,20.07-4.35,29.12-6.73,11.64-16.79,19.68-28.79,25.49-2.92,1.41-4.94,1.26-7.72-.94a114.61,114.61,0,0,0-37.51-19.85,9.11,9.11,0,0,0-3.55-.53c-1.18.14-2.4.72-2.39,2.33a2.6,2.6,0,0,0,2,2.75c.88.24,1.83.24,2.72.44,12.51,2.83,23.22,9.19,33.36,16.77,6.68,5,11.32,11.4,14.85,18.95a94.71,94.71,0,0,1,9,45.47c-.22,4.41-1.16,8.78-1.77,13.16a5.55,5.55,0,0,1-.29.87c-.34-.27-.8-.46-1-.81a62.77,62.77,0,0,0-9.94-13.75c-6.53-6.7-13.48-12.87-21.58-17.74-9.3-5.6-19.44-8.64-30-10.46a36.41,36.41,0,0,0-10.11-.14c-9.27,1.05-18.42,2.76-26.77,7.21C97.82,163.25,88,171.38,80.82,182.47c-4.48,7-7.13,14.61-6.4,23,.77,8.81,3.47,16.9,11.11,22.19a15.28,15.28,0,0,0,11.09,2.74c9.28-1.14,16.22-6,22.7-11.95,1.8-1.67,3.33-3.62,5.1-5.31,3-2.86,6-5.78,9.17-8.37,6.29-5.09,13.42-5.44,20.8-2.89,6.54,2.26,10.47,6.77,12.57,13.52a27.77,27.77,0,0,1-.82,18.79,15.56,15.56,0,0,1-3.81,5.66c-8.52,8-18.23,13.77-29.87,16a74.08,74.08,0,0,1-16.38,1.81,6.21,6.21,0,0,0-1.83.12,2.62,2.62,0,0,0-2.07,2.68,2.28,2.28,0,0,0,2.14,2.53,26.59,26.59,0,0,0,6,.08c7.89-.93,15.69-2.29,23.12-5.36a65.64,65.64,0,0,0,23.74-16.93,23.66,23.66,0,0,0,5.67-13.3c1.17-9.51-.81-18.22-8.12-24.69-7.7-6.83-16.8-9.21-26.86-5.5a33,33,0,0,0-13.7,8.94c-3.67,4.13-7.6,8-11.55,11.9-4.41,4.31-10,6.63-15.86,7.76-4,.78-7.78-.78-11-3.46a19.69,19.69,0,0,1-6.69-12.19c-1.45-8.05.7-15.51,4.46-22.46,8.29-15.31,21.18-25.17,37.6-30.44a91.53,91.53,0,0,1,15.1-3.57,30.46,30.46,0,0,1,10,.68,135.1,135.1,0,0,1,16.37,4.1c9.57,3.2,17.74,8.88,25.18,15.61a93.19,93.19,0,0,1,18.43,22.83,47.06,47.06,0,0,1,5.61,17.29c1.86,13.45-3,24.82-10.84,35.33a63.62,63.62,0,0,1-28.81,22c-5.85,2.25-11.65,4.64-17.56,6.73a55.75,55.75,0,0,1-18.9,3.27c-4.15,0-8.3,0-12.45,0ZM170.38,60.91c.76-8.27-7.43-19-19.06-19-10.73,0-18.55,8.84-18.79,19.29-.24,10.25,8.6,18.88,19.08,18.85C163.09,80,171.09,69.52,170.38,60.91Zm14.53,6.87c-.57,11.41,9.71,18.39,17.79,18.39a18.67,18.67,0,0,0,18.43-18.48c.24-10.25-8.61-18.23-18.44-18.39C192,49.12,184.4,59.6,184.91,67.78Z"/><path d="M164.89,60.94c.7,7.86-7.14,13.4-13.3,13.43-7.46,0-13.68-7-13.73-13.8,0-7.42,7.49-13.3,13.8-13.17A13.3,13.3,0,0,1,164.89,60.94Z"/><path d="M203,80.66c-7.18,0-13.32-6.19-13.15-13.19s6.4-12.8,13.66-12.61c6.76.16,12.5,5.09,12.79,13C216.56,75,210.46,80.7,203,80.66Z"/></svg>