<svg xmlns="http://www.w3.org/2000/svg" viewBox="0 0 100 100"><g transform="translate(18.67732566104946, 1) scale(0.2685299356076175) translate(0.47, 0.79)"><path d="M129.78,364.09H66.46c-1.38,0-2.77.07-4.14-.06-3.85-.37-5.68-2.38-5.69-6.26q0-11.53,0-23c0-3.3.51-3.75,3.7-3.74a10.92,10.92,0,0,1,2.75.19c1.55.42,1.8-.22,1.8-1.59,0-10.9,0-21.81,0-32.72,0-1.41-.1-2.59-1.46-3.6-8.81-6.52-15.19-15.15-19.9-24.86-4.88-10.09-8-20.89-7.82-32.2a74.5,74.5,0,0,1,7.51-31.84,84.31,84.31,0,0,1,15.61-22.58,4.14,4.14,0,0,0,1.07-4.92C54.41,161.38,46,148,33,137.61c-8.89-7.05-17.61-14.4-25.18-22.93a49.63,49.63,0,0,1-5.47-7.36C-.29,103-.47,98.19.66,93.5,2.32,86.63,6.87,82.64,13.82,81c6.57-1.59,12.79-.24,19,1.49A61.14,61.14,0,0,1,58.16,96.6a108.43,108.43,0,0,1,13.4,15.1,4.65,4.65,0,0,1,.83,4.93,77.5,77.5,0,0,0-4.31,23.29,61.79,61.79,0,0,0,1.85,17.76c.68,2.49,1.26,5,2,7.47.32,1,1.12,2,2.42,1.47A2.11,2.11,0,0,0,75.58,164c-.89-4.63-1.57-9.31-2.45-13.95a49.89,49.89,0,0,1,0-16.89c.82-5.61,1.72-11.16,3.77-16.45A53.38,53.38,0,0,1,87,100c1.7-1.87,1.75-1.89-.18-3.87A78,78,0,0,1,75,80.31C70.82,73,70.51,65,71.67,57.09A52.3,52.3,0,0,1,84.15,29.93a7.84,7.84,0,0,0,2-5.9c-.32-5.89,1-11.53,2.78-17.08a20.1,20.1,0,0,1,1.16-3C92,.13,94.24-.79,98.29.64a35.89,35.89,0,0,1,13.32,8.73c1.76,1.75,3.29,1.9,5.59,1.28,6.76-1.84,13.6-3.51,20.68-3.37,8.55.18,17,1.17,25.15,4,2.2.75,3.3.37,4.71-1.2a58.89,58.89,0,0,1,6.5-6.43c4.14-3.42,9.56-2,11.15,3.63a97.94,97.94,0,0,1,2.15,11.2c.72,4.5,1.11,9.06,2,13.51.3,1.5,1.61,2.89,2.69,4.13a42,42,0,0,1,9.63,17.56c3.66,14.67.51,27.56-10.07,38.51-2.12,2.2-4.33,4.32-6.51,6.48,1.58,2.56,3.22,5.09,4.71,7.7A81.68,81.68,0,0,1,200.83,141c.51,6.66-.07,13.15-.39,19.69-.26,5.25-2.46,10-4.47,14.81a424.83,424.83,0,0,0-15.66,43.37c-2.72,9-4.59,18.34-6.5,27.6-1.72,8.36-3.07,16.8-4.4,25.24-.59,3.77-.72,7.61-1,11.42a2.06,2.06,0,0,0,.18,1.33,5.84,5.84,0,0,0,2.2,1.91c.35.12,1.27-1.08,1.73-1.8a3.67,3.67,0,0,0,.34-1.77c.45-12.12,3.07-23.9,5.42-35.74a280.89,280.89,0,0,1,9.33-36.3c3.59-10.51,7.37-21,11.06-31.45.15-.43.28-.87.47-1.28,1.05-2.41,1.15-2.42,3.12-.89A71.39,71.39,0,0,1,219,196.53a86.34,86.34,0,0,1,12.14,34.31c1.68,12.52.92,24.75-3.57,36.58-4.74,12.47-12.36,22.51-25.14,27.78a2.9,2.9,0,0,0-1.95,3.17q.1,15.66,0,31.34c0,1.62.62,2,2.13,2.17,4.08.54,5.19,1.71,5.16,5.54-.05,6.75-.28,13.5-.44,20.25,0,.45-.13.91-.11,1.36.18,4.75-.16,5.07-5,5-15.33-.22-30.66-.5-46-.57C148.63,363.43,141,363.81,129.78,364.09ZM133.15,296v-.11q-30.2,0-60.39,0c-3.29,0-3.32.06-3.32,3.22q0,13.83,0,27.66c0,1.08,0,2.15,0,3.23s.47,1.73,1.64,1.7c.77,0,1.54,0,2.31,0l117.56.19c.76,0,1.53,0,2.3,0,2.44-.09,2.5-.1,2.51-2.64,0-10.14,0-20.28,0-30.42,0-.46.15-1-.06-1.36-.32-.56-.82-1.24-1.37-1.39a10.49,10.49,0,0,0-2.75-.07Zm-2.26,62.69v.63q33.6,0,67.2,0c1,0,2.11-.38,3.17-.43,1.56-.08,2.06-.81,2-2.35-.12-5.38-.12-10.75-.17-16.13,0-3.79,0-3.83-3.68-3.84-10.28,0-20.57-.1-30.86,0q-49.29.31-98.56.69a50.7,50.7,0,0,1-6.85-.52c-1.47-.18-1.95.37-1.94,1.72,0,6.15.07,12.29,0,18.43,0,1.83,1.08,1.85,2.4,1.85,9.06,0,18.12,0,27.18,0Zm-21.31-322c-12.27-.79-20.11,9.64-20.38,20.23a20.22,20.22,0,0,0,20.67,21.2c11.42,0,20.24-9.29,20.59-20.47C130.79,47.13,121.75,36.23,109.58,36.64Zm52.55,41.82a19.2,19.2,0,0,0,20.09-18.75,20.1,20.1,0,0,0-19.89-20.24c-9.89-.07-18.71,9.08-19.21,19.08C142.63,68.28,151.5,79,162.13,78.46ZM100.19,275.24l.11,0c-.46-6.1-.61-12.24-1.44-18.29a286.09,286.09,0,0,0-6.36-33.19c-2.84-10.89-5.6-21.83-10-32.26-1.41-3.37-3-6.67-4.71-9.91a2.38,2.38,0,0,0-2.24-.7A2.41,2.41,0,0,0,74.5,183a56.41,56.41,0,0,0,2.15,5.53c1.34,3.4,2.85,6.75,3.95,10.22a358.91,358.91,0,0,1,12.21,49.14c1.42,8.44,2.68,16.87,2.69,25.46,0,3.81.45,7.63.7,11.45,0,.31-.06.71.1.9.56.63,1.2,1.62,1.83,1.64a2.58,2.58,0,0,0,1.86-1.54,10.12,10.12,0,0,0,.2-3.18C100.21,280.15,100.19,277.69,100.19,275.24Zm33-10.63h0v20.26c0,1.59.13,3.17,2.11,3.52,1.18.21,2.27-1.24,2.39-3.36s0-4,0-6c0-8.9.07-17.8-.17-26.7-.29-10.41-.94-20.8-1.33-31.21-.2-5.37-.13-10.74-.28-16.11-.08-2.94-1-4.23-2.58-4.13s-2,1-1.95,4c.13,4.43.49,8.86.65,13.3.41,10.87.81,21.74,1.12,32.62C133.27,255.4,133.16,260,133.16,264.61Zm4.94-153.7c6-.45,11.91-.76,17.84-1.39a42.62,42.62,0,0,0,8-1.91,2.45,2.45,0,0,0,1.32-2c-.12-.62-1.17-1.35-1.92-1.49a7.6,7.6,0,0,0-3.16.29,80.12,80.12,0,0,1-18.61,2.27c-4.57.11-9.15-.53-13.74-.72a71.28,71.28,0,0,1-19.24-3.77c-2.89-1-5.78-1.89-8.66-2.88-1.12-.38-2.17-.46-2.66.81a2,2,0,0,0,1.23,2.64c1.63.82,3.29,1.61,5,2.27C114.61,109.33,126.18,110.94,138.1,110.91Z"/><path d="M110.34,42.17c6.82-.59,14.48,6.52,14.54,14.75.05,6.33-5.23,15.1-15.39,14.92a15.11,15.11,0,0,1-15-15.25C94.61,48.57,101.72,42.1,110.34,42.17Z"/><path d="M163,72.84c-7.8.5-13.95-5.84-14.22-13.55-.24-7,8.24-13.82,14-14,7-.26,13.76,6.82,13.62,14C176.29,65.3,170.76,73.4,163,72.84Z"/></g></svg>