<svg xmlns="http://www.w3.org/2000/svg" xmlns:xlink="http://www.w3.org/1999/xlink" viewBox="0 0 100 100" version="1.1"><g transform="translate(1, 6.410132058821233) scale(0.04898124936547728) translate(-0.886719, -154.746094)"><path style=" stroke:none;fill-rule:nonzero;fill:rgb(0%,0%,0%);fill-opacity:1;" d="M 241 622 L 241 621 C 217.878906 622.828125 196.375 631.28125 176 642 C 178.898438 636.570313 184.644531 632.335938 189 628 C 203.476563 613.59375 220.714844 601.769531 239 592.757813 C 246.527344 589.046875 263 586.476563 268 580 C 244.4375 580 223 582.46875 201 591 C 212.878906 580 234.335938 563.671875 251 562 L 251 561 C 245.585938 559.445313 240.472656 561.238281 235 562 C 215.417969 564 198.890625 572.5625 181 580 C 206.617188 556.613281 238.742188 548.652344 268 532 L 268 531 C 240.878906 531 213 539.261719 188 549 L 188 548 C 210 537.527344 230 517.28125 255 513 L 255 512 C 224 512.019531 200.28125 529.222656 172 538 C 175.765625 531 183.957031 525 190 519.730469 C 210.644531 502.027344 231.910156 493.21875 257 484 L 257 483 C 238 483 220.636719 485.261719 202 488 L 202 487 C 225 476.238281 246.167969 463.433594 270 454 L 270 453 C 235.507813 453.023438 201.71875 469.050781 169 478 C 175.675781 469.273438 185.378906 462.304688 194 455.574219 C 212.894531 440.824219 233 426.757813 256 419 L 256 418 C 231.585938 418.503906 207.621094 425 183 425 L 183 424 C 192.285156 423 201.273438 417.707031 210 414.480469 C 227.675781 408 245.796875 401.484375 264 396.582031 C 320.476563 381.375 382.222656 384 435 411 C 420 412.023438 404 406.386719 389 406.015625 C 352.253906 405.113281 316.644531 415.53125 285 434 L 285 435 C 344 430 399.835938 430.152344 458 444 L 458 445 C 420.621094 454.003906 380 455.410156 342 461 L 342 463 C 349.191406 463.148438 357 464.328125 364 466 L 364 467 C 344.40625 472.121094 326.828125 480.609375 309 490 L 309 491 C 344.511719 486.511719 382 480.574219 418 484.171875 C 439 486.273438 460.203125 495 481 496 L 481 498 C 447.222656 498.003906 411.546875 502.359375 378 506.71875 C 370.300781 507.71875 349.734375 507.78125 345 514 C 358 514 375 513.15625 387 519 C 361 525.226563 334.6875 527.144531 311 540.578125 C 304.875 544.054688 295.566406 546.664063 292 553 C 399.273438 532.195313 515 540 602.574219 612.039063 C 631.910156 636.183594 656.539063 665.828125 678 697 C 696.691406 724.078125 717.230469 755 726 787 C 696.316406 757.316406 677.363281 720 651.488281 687 C 592.796875 612.394531 506.683594 559 410 559 C 379.828125 559 353.589844 566.632813 327 580.703125 C 318.636719 585.128906 307.191406 589.773438 301 597 C 338 592 371.84375 577.128906 410 587 C 395.5625 594.246094 378.332031 597.261719 363 602.355469 C 349.84375 606.726563 336.445313 614.121094 323 617 L 323 619 C 336.957031 617.78125 351 612 365 609.464844 C 387.226563 605.535156 410.546875 605.023438 433 607.171875 C 520.359375 615.519531 595.824219 674.519531 655 735 C 671 751.347656 689.671875 766.546875 703.265625 785 C 740.753906 836 749.390625 900.277344 781 954 C 788.871094 967.355469 799.3125 978.070313 811 988.128906 C 813.679688 990.433594 820.382813 998.15625 824.394531 997.117188 C 827 996.410156 825.328125 990.722656 825 989 C 823.363281 980.394531 822.984375 971.503906 820.859375 963 C 812 928 807.878906 891.402344 793 858 C 798.824219 862.558594 801.351563 869.75 805 876 L 806 876 C 807 869.597656 804.3125 862.316406 803 856 C 800.417969 843.515625 797.265625 829.734375 797 817 C 802.429688 823.035156 802.871094 832.402344 809 838 C 808.570313 817.25 803 797.125 803 776 L 804 776 C 804.726563 785 808.945313 803.128906 817 808 C 812.816406 775 812.914063 737.328125 822 705 L 823 705 C 821.644531 736.582031 824.519531 766.097656 831.5 797 C 833.328125 805.085938 835 822 842 827 C 841.617188 808.449219 838.378906 790.726563 840.171875 772 C 842.492188 747.6875 848.953125 723.3125 850 699 L 851 699 C 852.667969 738 858.300781 776.808594 865.460938 815 C 867.808594 827.535156 872.886719 839.566406 875 852 C 879 849.15625 877.605469 836.199219 878.28125 831 C 881 809.144531 884.546875 786.027344 885 764 L 886 764 C 891.464844 787 890.792969 812.523438 893.714844 836 C 894.5625 842.796875 893.980469 856.765625 900 861 L 900 840 L 901 840 C 904.296875 857.742188 905.753906 876.746094 911 894 C 908.464844 892.042969 904.257813 884.207031 901 884.207031 C 896.796875 884.207031 898.597656 897.585938 898.828125 900 C 900.449219 916.808594 905.609375 932.066406 911 948 C 887.984375 936.074219 882 908.558594 882 885 L 881 885 C 871.726563 914.261719 880.691406 946.707031 885 976 L 883 976 C 881.386719 962.832031 873.5 950.089844 870.503906 937 C 869.425781 932.296875 870 925 866 922 C 865.796875 946.429688 860.394531 970.242188 862 995 C 863.535156 1016.117188 871 1037 871 1058 L 873 1058 C 873 1048.433594 872.988281 1035.253906 875 1026 C 885.960938 1048.390625 881.492188 1078.074219 881 1102 L 882 1102 C 885.550781 1093.34375 887.273438 1085.164063 889 1076 L 890 1076 C 892.167969 1087.671875 889.238281 1098.402344 889 1110 C 895.882813 1106.425781 898.195313 1096 901 1089 L 902 1089 C 902 1104 900.3125 1116.558594 897 1131 L 898 1131 C 902.402344 1125.398438 905 1118 910 1113 C 910 1126.148438 906.269531 1139 906 1152 C 911 1148.664063 913 1140.730469 917 1136 C 917 1149.109375 916.773438 1167 925 1178 C 927.941406 1168.054688 927.921875 1156.355469 930 1146 C 932.183594 1136.273438 936.402344 1127.492188 939 1118 L 940 1118 C 941.445313 1136.304688 941.617188 1173.15625 961 1183 C 957.484375 1159.082031 965 1139.273438 969 1116 L 970 1116 C 970 1135.789063 972.378906 1156.21875 983.886719 1173 C 987.644531 1178.476563 993.617188 1187 1001 1187.460938 C 1007.71875 1188 1013.949219 1178.691406 1017.359375 1174 C 1028.976563 1158.011719 1032 1137.273438 1032 1118 L 1033 1118 C 1038.816406 1139.699219 1043 1158.34375 1043 1181 C 1047.855469 1178 1050.496094 1171.132813 1052.714844 1166 C 1059.320313 1150.695313 1061 1134.46875 1061 1118 L 1062 1118 C 1065.457031 1132.421875 1071.519531 1146.367188 1075 1161 C 1075.632813 1163.660156 1075.167969 1174.394531 1077.496094 1175.652344 C 1080.457031 1177.257813 1082.175781 1167.515625 1082.574219 1166 C 1085.402344 1155.261719 1086 1145.046875 1086 1134 L 1087 1134 C 1089.183594 1140.699219 1091.933594 1152 1098 1156 C 1097.71875 1142.351563 1094 1128.71875 1094 1115 C 1098.679688 1120.785156 1101.882813 1127.777344 1106 1134 L 1107 1134 C 1104.914063 1120 1101 1106.511719 1101 1092 C 1106.632813 1096.640625 1106.585938 1106.550781 1114 1109 C 1112 1098.527344 1111.546875 1088.574219 1112 1078 L 1113 1078 C 1114.660156 1085.246094 1116.386719 1099 1123 1103 C 1115.953125 1078 1124 1053.019531 1126 1028 L 1128 1028 C 1128.800781 1038.132813 1129.527344 1048 1131 1058 L 1133 1058 C 1133 1038.160156 1139.902344 1018.625 1142.699219 999 C 1146 974.753906 1143 946.28125 1136 923 C 1132.355469 928.324219 1133.5625 936 1132.335938 942 C 1129.847656 954.421875 1125.640625 966 1122 978 L 1121 978 C 1121.429688 959.710938 1125 941.597656 1125 923 L 1123 923 C 1121.808594 935 1115.734375 951.527344 1107 960 C 1115.433594 934.121094 1120 910.296875 1120 883 L 1118 883 C 1116 906.367188 1110.480469 930 1090 944 C 1092.382813 933 1097.390625 922.308594 1099.714844 911 C 1101.632813 901.664063 1100.480469 892.214844 1102 883 C 1097 885.363281 1094.46875 890 1091 894 C 1096.628906 876.699219 1101.207031 855.21875 1102 837 L 1103 837 L 1104 860 L 1105 860 C 1116.3125 826.589844 1113.652344 789.410156 1118 755 L 1119 755 C 1119.648438 786.382813 1127 817.402344 1127 849 C 1135.367188 842.714844 1137.609375 818 1139 808 C 1144.8125 770.765625 1152 733.800781 1152 696 L 1153 696 C 1157.257813 713.28125 1158.410156 731.390625 1160.171875 749 C 1162.691406 774.195313 1166.207031 799.621094 1163 825 C 1169.40625 818.800781 1170.273438 803.550781 1172.472656 795 C 1180.230469 764.8125 1182 736.042969 1182 705 L 1183 705 C 1185.542969 725.117188 1189 744.640625 1189 765 C 1189 778.417969 1185.195313 795.0625 1188 808 C 1194 799.8125 1196.335938 787.507813 1200 778 L 1201 778 C 1201 799.234375 1193.90625 819.175781 1193 840 L 1194 840 C 1198 833.085938 1201.433594 825.585938 1204 818 L 1205 818 C 1204.585938 838.078125 1195.410156 857.226563 1195 877 L 1196 877 C 1199.421875 871.140625 1203 865.121094 1206 859 L 1207 859 C 1203.355469 875 1197 890.261719 1192.746094 906 C 1187.644531 924.464844 1184.871094 943.324219 1180.882813 962 C 1179 970.261719 1178.214844 979.554688 1177.984375 988 C 1177.941406 989.628906 1176.734375 994.679688 1178.691406 995.554688 C 1181.917969 997 1187.863281 990.363281 1190 988.585938 C 1200.359375 980 1210.292969 970.125 1217.972656 959 C 1249.40625 913.480469 1258.226563 855.148438 1285.425781 807 C 1302.6875 776.4375 1330 752 1355 727.699219 C 1414.53125 670.0625 1482 618 1567 607.285156 C 1591 604.296875 1615 605.421875 1639 609.324219 C 1650.609375 611.222656 1662.292969 616.398438 1674 617 L 1674 616 C 1649.941406 603.734375 1617 591.152344 1590 589 L 1590 588 C 1625.863281 576.609375 1665 587.066406 1700 597 C 1695.617188 589.277344 1680.746094 584 1673 579.628906 C 1641.789063 562.648438 1606.347656 555.375 1571 559.714844 C 1488.863281 569.804688 1416 608.335938 1362.4375 672 C 1345.25 692.40625 1330.238281 714.667969 1315.695313 737 C 1303.675781 755.457031 1293.851563 772.445313 1276 786 C 1326 664.261719 1424 562 1559 545.285156 C 1609.605469 539.066406 1657.890625 548.039063 1708 552 C 1692.636719 533.457031 1658.195313 528.078125 1636 523.359375 C 1629.488281 522 1621.976563 522 1616 519 C 1628.3125 515.503906 1640.726563 516 1653 513 L 1653 512 C 1610.386719 501.734375 1565.242188 507.085938 1523 497 C 1533.980469 491.242188 1547.921875 489.78125 1560 487.679688 C 1591.355469 482.222656 1623.367188 483.15625 1655 486.171875 C 1666.855469 487.300781 1680.273438 491.785156 1692 491 C 1679.753906 477.339844 1650.644531 469 1633 466 L 1633 465 C 1642.425781 465 1651.628906 463.738281 1661 463 L 1661 461 C 1633 457.234375 1605 453.300781 1577 449.300781 C 1565.832031 447.703125 1553.984375 447.617188 1543 445 L 1543 444 C 1590.550781 432.644531 1639.191406 427.746094 1688 431.089844 C 1697.429688 431.734375 1706.640625 434.234375 1716 435 L 1716 434 C 1687.824219 419.226563 1657.242188 407 1625 406.0625 C 1605.871094 405.582031 1586.773438 411.617188 1568 411 C 1578 404.539063 1589.695313 401.257813 1601 397.507813 C 1635.820313 386 1675.996094 383.25 1712 390.515625 C 1747.359375 397.648438 1780.792969 413.039063 1815 424 L 1815 425 C 1801 424.402344 1786.886719 423.398438 1773 421.714844 C 1764.589844 420.695313 1755.449219 418.078125 1747 419 C 1755.304688 427.03125 1770.886719 431.558594 1781 437.8125 C 1799.472656 449.238281 1816 463.320313 1832 478 C 1798 472.230469 1766.953125 455.761719 1732 453 C 1735.636719 458 1745.4375 459.753906 1751 462.308594 C 1765.359375 469 1785.519531 477.269531 1797 488 C 1778.335938 484.148438 1760.910156 483 1742 483 L 1742 484 C 1773.910156 494.136719 1808 510.71875 1828 539 C 1800.964844 525.824219 1772.769531 512.085938 1742 512 L 1742 513 C 1766.972656 514.28125 1787.945313 537.496094 1810 547 L 1810 548 C 1784 542.015625 1760 531 1733 531 C 1737.253906 538.363281 1754.234375 542.703125 1762 546.140625 C 1783.378906 555.597656 1802.71875 568 1822 581 C 1813.890625 580 1805.636719 573.695313 1798 570.648438 C 1782.5625 564.492188 1765.636719 560 1749 560 C 1751.929688 564.195313 1759.480469 565.492188 1764 568.011719 C 1774.546875 574 1785.703125 581.285156 1795 589 C 1774.214844 584.078125 1753.550781 576.808594 1732 582 L 1732 583 C 1756.644531 589.074219 1778.863281 602.433594 1798.996094 617.769531 C 1807.808594 624.480469 1817.402344 632.3125 1823 642 C 1802.625 631.28125 1780.421875 621.484375 1757 621 C 1761 626.441406 1772.960938 628.6875 1779 632.308594 C 1794.84375 641.8125 1809.398438 658 1827 664 C 1831.230469 610.414063 1845.960938 558.03125 1853.691406 505 C 1864.296875 432.148438 1863.238281 359.371094 1852.203125 287 C 1847.28125 254.703125 1836.175781 220.144531 1819.394531 192 C 1810.703125 177.417969 1800.46875 164.222656 1783 160.519531 C 1768.527344 157.449219 1751 160.585938 1737 164.128906 C 1706.664063 171.746094 1677.417969 185.03125 1651 201.679688 C 1607.871094 229 1569.652344 262 1529 292.523438 C 1488.699219 322.800781 1447 350.464844 1403 375 C 1403.273438 370.746094 1404.980469 367.097656 1406 363 C 1403.570313 363.683594 1401.960938 364.476563 1399.996094 366.144531 C 1395 370.34375 1367.921875 393.5 1373.722656 374 C 1374.335938 372 1375.1875 370 1376 368 C 1377.511719 365 1379.355469 362 1381 359 C 1373.460938 361.109375 1367.539063 368.617188 1362 374 C 1354 381.617188 1345.175781 388.730469 1336 395 C 1334.503906 381.660156 1327.304688 397.34375 1325.332031 402 C 1318.90625 417.195313 1313.902344 433.355469 1308.667969 449 C 1294.214844 492.199219 1281.9375 535.804688 1270.871094 580 C 1267.335938 594.132813 1263.464844 608.183594 1258.890625 622 C 1256.875 628.085938 1256.414063 635.089844 1252 640 C 1257 576 1275.3125 512.738281 1296 452 C 1306.574219 421 1324.714844 389 1328 356 L 1327 356 C 1316.898438 370.0625 1305.847656 390 1290 398 C 1292.492188 384.765625 1297.28125 373.667969 1301 361 C 1296.242188 363.390625 1292.734375 368.261719 1289 372 C 1281.96875 379.039063 1271.613281 386.183594 1267 395 L 1266 395 C 1267.234375 382.597656 1274.359375 372.503906 1278 361 C 1262.746094 364.585938 1249.589844 380.410156 1239 391 C 1238.628906 384 1239.445313 377.03125 1240 370 C 1231.167969 374.527344 1234 387.585938 1234 396 C 1234 421.273438 1236.363281 446.796875 1238 472 C 1242 531.152344 1249.496094 592.726563 1243.828125 652 C 1239.804688 694.109375 1228 733.6875 1216 774 L 1215 774 C 1217 728.039063 1226.9375 682.210938 1228.960938 636 C 1233.25 538.019531 1223 440 1223 342 L 1221 342 C 1218.398438 357.359375 1211.175781 379.640625 1199 390 L 1199 355 C 1184.398438 364 1182.949219 388 1172 400 C 1171.996094 383.542969 1170.878906 369.441406 1173 353 L 1172 353 C 1165.292969 365.226563 1159.585938 377.484375 1156 391 L 1155 391 C 1151.867188 374.136719 1150.996094 358.027344 1151 341 C 1146.214844 344.265625 1143.234375 353 1140.574219 358 C 1133.464844 371.777344 1127.796875 386.640625 1120 400 C 1118.945313 390.542969 1119 379.503906 1119.648438 370 C 1119.820313 367.4375 1121.292969 360.074219 1119 358.175781 C 1117 356.460938 1113 364 1112.222656 365 C 1105.855469 373.636719 1100.878906 383.007813 1097 393 L 1096 393 C 1096 383 1096 370.785156 1094 361 L 1093 361 C 1086.738281 371.714844 1079.34375 382 1076 394 L 1075 394 C 1074.214844 386.324219 1076.808594 368.789063 1070 364 C 1069.351563 368.410156 1068 372.503906 1068 377 C 1061.855469 368.554688 1062.65625 355.75 1059 346 C 1048.964844 360.667969 1051.960938 385.367188 1048 402 C 1042.789063 392.695313 1042.179688 380.277344 1039.410156 370 C 1038.683594 367.296875 1038.257813 360 1036 358.175781 C 1033.476563 356.140625 1031.453125 363.710938 1031 365 C 1028.511719 373.148438 1025.746094 381.457031 1025 390 L 1024 390 C 1024 374.320313 1020.632813 358.15625 1016.730469 343 C 1016.179688 341 1014.621094 329.207031 1011.800781 329.207031 C 1009.242188 329.207031 1007.988281 339.101563 1007.441406 341 C 1004.660156 350.640625 1001.859375 360.714844 998 370 C 997.480469 371.476563 996 378 994 378 C 991.277344 378 989.8125 364.3125 989.257813 362 C 988.304688 358.007813 987.542969 354 986.589844 350 C 985.195313 344.15625 984 338.011719 984 332 C 979.410156 335.230469 978.21875 344.742188 976.507813 350 C 970.914063 367.210938 969.492188 387 961 403 C 957.640625 389 955.796875 375.824219 950.886719 362 C 950.214844 360.109375 949.410156 350.402344 947.675781 350 C 945.421875 349.296875 943.792969 356.621094 943.421875 358 C 940.925781 367.210938 939 377.476563 939 387 L 938 387 C 935.179688 379.441406 934.402344 371.59375 932 364 L 931 364 C 928.769531 371.039063 927 378.589844 927 386 C 919.691406 379.738281 915.789063 369.203125 911 361 L 910 361 C 908.226563 371.46875 907.847656 383.257813 907 394 C 896.539063 384.078125 897.257813 361.519531 884 354 C 883.976563 362.4375 883.707031 371.621094 882.714844 380 C 882.527344 381.585938 882.554688 388 880.609375 388.367188 C 878 389.042969 873.789063 378.785156 872.734375 377 C 865.308594 364.414063 859.976563 350.785156 853 338 L 852 338 C 852 356.128906 850.3125 373.171875 847 391 L 846 391 C 844.492188 380.746094 838.78125 361.164063 830 355 C 831.660156 371.691406 832 388.074219 832 405 L 830 405 C 828.265625 387.675781 814.632813 369.632813 806 355 L 805 355 C 802.53125 366.386719 805 381.179688 805 393 C 795.695313 384.050781 790 369.695313 785 358 C 783 353.199219 783.34375 346.265625 779 343 C 779 457.3125 765.804688 572.0625 776.828125 686 C 779.46875 713.246094 779.585938 743.613281 787 770 C 781.703125 765 780.472656 756 778.445313 749 C 773.523438 732.363281 768.527344 716.027344 765 699 C 749.324219 623.277344 760.332031 548.242188 764 472 C 765.269531 446.65625 769 421.417969 769 396 C 769 389 771.878906 374.207031 765 370 L 765 389 C 751.4375 380.027344 740.566406 365.777344 725 360 C 730.6875 372.183594 737.242188 383.625 740 397 C 726.933594 385.449219 716.316406 370.085938 702 360 C 705.769531 373.0625 712.382813 384 713 398 C 696.28125 387.265625 685.777344 370.273438 675 354 L 674 354 C 678.511719 384.683594 692.371094 413.007813 702.496094 442 C 715.800781 480.109375 726.691406 519 736.472656 558 C 740.789063 575.265625 743.703125 592.476563 746.4375 610 C 747.953125 619.699219 751.257813 632.410156 749 642 L 748 642 C 747.175781 632.550781 742.96875 623.171875 740.578125 614 C 735.792969 595.644531 730.726563 577.347656 725.882813 559 C 715.820313 521 704.683594 483.394531 692.167969 446 C 685.554688 426.242188 679.523438 404.035156 669 386 L 668 386 C 667.335938 398.144531 659.617188 390.382813 654 385.570313 C 644.191406 377.171875 634.855469 364.285156 623 359 C 624.253906 363.355469 633.589844 378.238281 629.933594 382.1875 C 627.941406 384.335938 622.839844 381 621 380 C 612.484375 375.21875 605.640625 367.027344 597 363 L 599 376 C 578.339844 362 555.675781 351.070313 535 337 C 496.265625 310.5625 460 281.554688 423 253 C 378.390625 218.335938 331.589844 184.066406 277 167.28125 C 256.386719 161 229.640625 154.746094 209 163.785156 C 183.433594 175 171.476563 209.789063 162.78125 234 C 146.320313 280 142.167969 328.757813 140.984375 377 C 140.226563 408 140 439.144531 143.714844 470 C 149.640625 519.539063 157.238281 568.046875 167.335938 617 C 169.636719 628.15625 171.371094 639.675781 172.714844 651 C 173 653.832031 172 661.066406 174.9375 662.824219 C 178.21875 664.820313 188.351563 654.667969 191 652.734375 C 207 641 223.238281 631 241 622 M 754 780 C 748.597656 776.039063 746 766.003906 743.296875 760 C 735.71875 743.691406 728.617188 727.171875 720.742188 711 C 695.367188 659 666.582031 608.4375 633.277344 561 C 587 495.214844 528.378906 439.210938 468 386.710938 C 427.285156 351.308594 386.992188 315.523438 342 285.515625 C 310.570313 264.554688 277 249 243 233 C 255 224.734375 279.921875 231 293 234 C 342.902344 245.472656 389.964844 282.234375 428 315 C 471.789063 352.71875 511.730469 393.75 551 436 C 573.703125 460.277344 597.308594 483.457031 618.566406 509 C 654.929688 552.695313 686 601.570313 710.296875 653 C 722.921875 679.828125 732.496094 708 741.832031 736 C 746.378906 749.675781 753.261719 765.5625 754 780 M 1758 234 C 1740.988281 237.03125 1723.257813 249 1708 256.742188 C 1663.6875 279.460938 1624.605469 309.039063 1586 340.195313 C 1490.3125 417.425781 1401.714844 504.179688 1336.425781 609 C 1313.855469 645.234375 1294 683.425781 1275.78125 722 C 1266.628906 741.371094 1259.800781 762.488281 1249 781 C 1245.511719 772.425781 1254.9375 754.734375 1257.449219 746 C 1266.996094 712.777344 1278.945313 680.257813 1293.703125 649 C 1333.855469 564 1394.441406 496.136719 1457.910156 428 C 1498 384.800781 1537.761719 342 1584 305 C 1621.476563 275.015625 1662.675781 245.226563 1710 233.769531 C 1721 231.089844 1734.589844 229.078125 1746 230.171875 C 1750 230.5625 1755.382813 230.558594 1758 234 M 293 318 L 293 320 C 266.886719 320 241.925781 329 216 330 C 219.675781 324 228.527344 321.550781 235 319.730469 C 254.4375 314.265625 273.28125 316.445313 293 318 M 1785 330 C 1771.988281 329.730469 1758.851563 326.136719 1746 324.300781 C 1733.414063 322.503906 1719.167969 322.597656 1707 319 C 1723 311.285156 1750.695313 315.757813 1767 320.722656 C 1772.921875 322.523438 1781.320313 324.757813 1785 330 M 315 348 L 315 349 C 297 356.617188 273.542969 355.515625 259 371 C 280.507813 370.0625 298.398438 368 320 372 L 320 373 C 292.835938 377 267.359375 388.640625 241 395.71875 C 220.253906 401.289063 195.371094 403.5 174 404 C 177.503906 399 184.96875 395.132813 190 391.589844 C 205.210938 381 224.78125 368 244 367 L 244 365 C 222.535156 365 203.925781 367.667969 183 372 C 187.539063 365 199.703125 360.535156 207 356.628906 C 239.871094 339.023438 279.621094 341.335938 315 348 M 1817 372 C 1796.5625 367.769531 1777.980469 365 1757 365 C 1761.558594 369.324219 1769.203125 370 1775 372.203125 C 1788.324219 377.433594 1800.277344 384.527344 1812 392.71875 C 1816.648438 396 1822.375 399 1825 404 C 1803.496094 399.085938 1781.503906 401.691406 1760 396.335938 C 1732.886719 389.578125 1707.226563 376.230469 1679 374 L 1679 373 C 1700 366.421875 1721 365.339844 1742 373 C 1733.671875 362.210938 1715.808594 356.714844 1703 353.589844 C 1697.519531 352.253906 1687.546875 352.65625 1684 348 C 1722 343.074219 1758.1875 339 1794 357.375 C 1801.585938 361.269531 1811.492188 365.398438 1817 372 M 1198.667969 390.667969 C 1198.722656 390.722656 1198.777344 391.777344 1198.332031 391.332031 C 1198.277344 391.277344 1198.222656 390.222656 1198.667969 390.667969 M 336 463 L 336 464 C 337.878906 463.824219 339.199219 463.5625 341 463 C 338.957031 462.226563 338 462.40625 336 463 M 366 465 L 365 466 L 366 465 M 370 465 L 369 466 L 370 465 M 187 549 L 186 550 L 187 549 M 1799 590 L 1798 591 L 1799 590 M 1675 617 C 1676.222656 618.195313 1676.421875 618.316406 1678 619 C 1676.777344 617.804688 1676.578125 617.683594 1675 617 M 308 644 C 326.742188 639.382813 347 640.601563 366 643 L 366 644 C 342.8125 649.304688 322.90625 659 302 670 L 302 671 C 318.730469 669.667969 335.242188 664 352 662.175781 C 378.621094 659.324219 407.570313 661.75 433 670.167969 C 442.789063 673.40625 457.621094 676.605469 465 684 C 430.621094 677.523438 392.480469 676.445313 358 683.511719 C 338.578125 687.496094 320 697.703125 301 701 L 301 703 C 321.964844 702.085938 341.84375 700.089844 363 701 L 363 703 C 334.75 705.464844 309.234375 725.546875 283 734.65625 C 257 743.648438 232.664063 741.105469 206 739 L 206 738 C 224.820313 733 245 723.628906 262 714 L 262 713 C 250.574219 712.503906 239.632813 710.15625 228 711.09375 C 220.921875 711.660156 214 714.382813 207 715 L 207 714 C 218.453125 708.652344 228.714844 701 240 695.269531 C 247.792969 691.347656 258 689.136719 265 684 C 242 677.207031 219.679688 689.476563 199 697 C 211.191406 685 225.328125 676 240 667.199219 C 245.667969 663.824219 256.582031 660.484375 260 655 C 247.449219 655.035156 232.597656 657.054688 221 662 C 228.4375 654 240.324219 645.074219 251 642 L 251 641 C 232.371094 637.363281 209.382813 648 193 655.777344 C 187.578125 658.375 179 661.535156 176 667.09375 C 172.414063 673.734375 175.964844 687.5 176 695 C 176 709.296875 177.894531 723.628906 176.910156 738 C 176 749.414063 172.171875 765.546875 174.488281 776.683594 C 175.6875 782.441406 188.320313 774 188 781.097656 C 187.570313 793.398438 171.542969 800.832031 166 810 C 170.222656 809.464844 189.640625 806 191.792969 811.03125 C 192.882813 813.652344 187.628906 817.332031 186 818.671875 C 179.566406 824 170.316406 827.621094 162 828 C 165.4375 832.667969 175.378906 835.3125 181 836 C 171.4375 847.042969 157.644531 854 143 854 C 148.585938 861.28125 157.460938 865.664063 165 870.667969 C 167.664063 872.4375 172.683594 874.703125 173.792969 878 C 174.976563 881.390625 167 882 165 882.335938 C 155.523438 884.234375 145.28125 883.121094 136 881 C 139 891.597656 155.390625 895.382813 162 904 C 151 904.03125 140.976563 904 130 903 C 133.925781 911 142.941406 915 148 922 C 141.972656 922.257813 136 923 130 923.003906 C 128.753906 923.027344 124.207031 922.730469 124.207031 925 C 124.207031 928.257813 139.375 936.570313 142 940 C 132.523438 940 123.394531 940.070313 114 941.421875 C 112.777344 941.597656 105.363281 941.613281 105.921875 943.808594 C 106.519531 946.160156 113 947.785156 115 948.757813 C 122.199219 952.359375 130.542969 957.046875 136 963 C 122.398438 963 110.347656 965.035156 97 967 L 97 968 L 128 978 L 128 979 C 113.699219 980.171875 98.738281 990 86 996.050781 C 81.265625 998.347656 74 999.699219 71 1004 C 86 1004 100.960938 1002 116 1002 L 116 1004 C 108 1004.808594 101 1009.683594 94 1012.773438 C 82.234375 1018 71 1021.382813 59 1025 L 59 1026 C 71 1029.675781 84.417969 1030 97 1030 L 97 1031 C 89.511719 1032.621094 70.84375 1038.414063 67 1045 C 76.308594 1044.664063 86.917969 1044 96 1046 L 96 1047 C 82.492188 1052 68.742188 1059.285156 57 1067.574219 C 52.941406 1070.4375 47.554688 1072.691406 45 1077 C 63.691406 1073.476563 80.96875 1072 100 1072 C 93.382813 1077.832031 82 1080 74 1083.539063 C 59.828125 1090.054688 46.785156 1098.761719 33 1106 L 33 1107 C 39.769531 1108.449219 48 1105.1875 55 1104.28125 C 70.335938 1102.265625 86.765625 1100.371094 102 1104 C 85.660156 1112.710938 68.804688 1119.582031 53 1129.425781 C 47.820313 1132.652344 39.332031 1136 36 1141 C 50.539063 1138.539063 77.472656 1130.214844 90 1142 C 72.855469 1142.140625 53.476563 1151.179688 39 1159.800781 C 34 1162.699219 26.917969 1165.324219 25 1171 C 43.359375 1167.4375 60.6875 1163.324219 79 1170 C 64.800781 1177 43.75 1181.097656 36 1197 C 55.960938 1191.539063 74.914063 1184.003906 96 1184 L 96 1185 C 78.734375 1193.167969 63.832031 1206.773438 48 1217.332031 C 39.207031 1223.199219 27 1228.15625 20 1236 C 42 1232.746094 64.5 1225.46875 87 1225 L 87 1226 C 70.550781 1233.097656 54.667969 1246 40.910156 1257.234375 C 35.480469 1261.703125 28 1265.53125 25 1272 C 58.726563 1260.6875 91.40625 1249 127 1244.289063 C 194.800781 1235.375 261.1875 1243.515625 328 1255.535156 C 400.9375 1268.660156 474.480469 1287 543 1315.71875 C 569.675781 1327 596.609375 1337.441406 623 1349.304688 C 638.503906 1356.273438 656 1366.527344 673 1369.277344 C 680.613281 1370.511719 703.660156 1356.789063 707 1350 C 693.914063 1351.3125 682.757813 1358.746094 669 1358 C 682.472656 1344.492188 710.203125 1341.546875 721 1325 C 701.457031 1326.554688 683.9375 1331.574219 664 1330 L 664 1329 C 681.25 1328.644531 698 1320 714 1314 L 714 1313 C 694.953125 1313.15625 676 1316 657 1316 L 657 1315 C 665 1313.347656 680.375 1311.367188 685 1304 C 671.660156 1304.273438 657.1875 1307.140625 644 1304 L 644 1303 C 653 1302.539063 667.308594 1298.699219 675 1294 C 665.644531 1291.234375 649.445313 1290.757813 640 1293 C 643.78125 1289.035156 647.769531 1289.003906 653 1289 L 653 1287 C 625.34375 1286.769531 601 1272.683594 578 1259.140625 C 570.238281 1254.601563 558.878906 1250.753906 553 1244 C 556.984375 1244.035156 560.253906 1244.636719 564 1246 C 562.375 1241.035156 556.710938 1240 552 1239 C 540.171875 1236.164063 527.957031 1237.511719 516 1236 L 516 1235 C 524.203125 1234.578125 531.800781 1230.671875 540 1230 L 540 1229 C 522.894531 1223.613281 506.550781 1223.691406 489 1227 C 498.378906 1217.042969 514 1218.660156 525 1212 C 509.960938 1207.203125 488 1206 473 1211 C 480.59375 1202.144531 495.472656 1201.148438 506 1198 L 506 1197 C 494.984375 1193.734375 482.386719 1195 471 1195 C 447.566406 1195 421.925781 1196.457031 399 1191 L 399 1190 C 420 1189.085938 446.871094 1185 467 1179 L 467 1178 C 459.453125 1177.25 452.410156 1174 445 1172.371094 C 429.214844 1169.207031 413 1168.402344 397 1168.015625 C 379 1167.585938 360.523438 1174.59375 343 1173 L 343 1172 C 360.316406 1170 377.695313 1161 395 1157.449219 C 417.324219 1153 441 1153.222656 463 1148 L 463 1147 C 431.589844 1137.019531 399.96875 1132.023438 367 1132 L 367 1131 C 390.539063 1123.652344 415.316406 1122.601563 439.714844 1120.820313 C 448.246094 1120.195313 456.480469 1117.074219 465 1117 C 462.535156 1113.195313 457.28125 1113.316406 453 1113.023438 C 443.914063 1112.402344 435 1109.722656 426 1109 L 426 1108 C 441.605469 1106.027344 458.265625 1103.042969 474 1103 L 474 1102 C 466.246094 1098.722656 453.871094 1100.0625 448 1094 C 461.90625 1094 476.519531 1091 490 1087.421875 C 493.566406 1086.507813 502.953125 1082 506.273438 1084.0625 C 509.230469 1086 510 1093 510.882813 1096 C 513.671875 1106.382813 517 1117 521 1127 C 532.6875 1156.832031 548.59375 1185.304688 573 1206.714844 C 610.699219 1239.785156 658.703125 1252.132813 708 1245.710938 C 727.339844 1243.191406 744.683594 1236.484375 763 1230.355469 C 773.921875 1226.699219 785.445313 1224.699219 796 1220 C 792 1231.242188 785.296875 1241.472656 782 1253 C 790.378906 1248.675781 796 1241.050781 803 1235 C 799.707031 1254.121094 782 1260 774 1275 C 779.394531 1273 783.832031 1269.445313 789 1267 C 780.363281 1285.625 753.53125 1289 745 1307 C 756.683594 1303.78125 765.539063 1299 778 1299 C 766.441406 1312.277344 748.460938 1321 734 1330.621094 C 728.683594 1334.21875 721.433594 1336.339844 718 1342 C 725.296875 1341.273438 731.863281 1337.742188 739 1336.375 C 746.6875 1335 755.207031 1336 763 1336 L 763 1338 C 751 1338.617188 736.503906 1348 726 1353.363281 C 721.480469 1355.726563 716.476563 1357.195313 713 1361 C 727.511719 1361 741.949219 1364.644531 756 1368 L 756 1369 C 735.902344 1370.585938 715 1375 695 1375 C 698.378906 1379.609375 705.929688 1382.21875 711 1384.753906 C 717.804688 1388.15625 727.191406 1394 735 1393.800781 C 742.699219 1393.675781 752.214844 1387 759 1383.5 C 776.351563 1374.828125 793.589844 1364.269531 812 1358 C 808.457031 1361.523438 804.664063 1364.753906 802 1369 C 814.796875 1365.234375 826.503906 1356.703125 839 1352 C 835 1357.226563 830.550781 1361.417969 826 1366.09375 C 825 1367.132813 821.753906 1370.1875 823.175781 1372 C 825.460938 1374.6875 840.171875 1363.339844 843 1362 C 838.46875 1369.34375 829.796875 1376.128906 827 1384 C 835 1380.21875 842.476563 1376 851 1373 C 845.21875 1380.675781 837.460938 1388.632813 833 1397 C 841.273438 1395.507813 849 1390.054688 857 1387 C 852.640625 1392.738281 846 1397.511719 843 1404 C 849.210938 1403.710938 855.195313 1401.136719 861 1399 C 861.1875 1420.132813 878.441406 1441.59375 896 1451.664063 C 907.277344 1458.128906 920.773438 1462.300781 931 1470.390625 C 944.464844 1481.042969 944.191406 1497.035156 951.644531 1511 C 957.1875 1521.386719 968.328125 1527 974.53125 1537 C 989.429688 1561.019531 971.394531 1584.199219 962 1606 L 961 1606 L 961 1587 C 951.679688 1593.828125 944.675781 1609.320313 936 1618 C 938 1611.457031 940 1605 941 1598 C 928.386719 1608.804688 920.238281 1624.085938 906 1634 C 908 1624.777344 913.566406 1616.21875 915 1607 C 904.28125 1614.003906 896.410156 1627.453125 886 1635.675781 C 885 1636.453125 874.785156 1643.34375 874.394531 1641 C 873.371094 1634.46875 886.390625 1623.019531 888 1616 L 887 1616 C 868.519531 1638.75 842 1652.566406 814 1659 C 829.660156 1639.640625 855.925781 1630.125 871 1610 C 849 1616.429688 824.71875 1629.339844 805 1641 C 796.980469 1645.550781 789.660156 1652.667969 781 1656 C 792.617188 1638.4375 811.988281 1628.308594 824 1612 C 796 1616.800781 764.261719 1641.527344 746 1662 C 749.738281 1648.0625 762.664063 1634.578125 773.285156 1625.253906 C 778.433594 1620.734375 786.882813 1616.015625 790 1610 C 767.820313 1617.230469 744.328125 1625.691406 725 1639 C 731.824219 1626 746.96875 1615.117188 759 1607 L 759 1606 C 746.257813 1606.652344 732 1613.757813 720 1617.65625 C 716.746094 1618.699219 708.851563 1622.816406 705.652344 1621 C 703 1619.382813 701 1612.191406 703.527344 1610 C 708.183594 1605.5625 721.78125 1604 728 1602.140625 C 762.375 1592.394531 797.589844 1585 831 1572 L 831 1571 C 797.765625 1571 764 1572.023438 731 1575.171875 C 722 1576.023438 712.898438 1575.257813 704 1576.425781 C 699.734375 1577 692.246094 1578.457031 688.394531 1576 C 681.4375 1571.488281 677.34375 1555 672 1548 C 707.519531 1539.445313 745 1538.679688 781 1531.804688 C 790.695313 1530 812.601563 1529.28125 818 1520 C 810.246094 1519.382813 802.671875 1517 795 1516.152344 C 765.355469 1513.398438 733.816406 1515.648438 704 1516.003906 C 689.367188 1516.179688 666.9375 1523.011719 653 1517.6875 C 648.335938 1516 644.898438 1510.609375 641.714844 1507 C 635.695313 1500.175781 628.316406 1494.402344 623 1487 C 653.269531 1487 683.613281 1485 714 1485 C 718.214844 1485 745.847656 1487.46875 738.972656 1477.433594 C 736.914063 1474.429688 731.234375 1474.578125 728 1474 C 716.535156 1471.417969 704.644531 1470 693 1468.832031 C 673.574219 1467 654.554688 1465 635 1465 C 623.902344 1465 608.550781 1467.324219 598 1464.570313 C 589.414063 1462.328125 579.445313 1453.003906 572 1448 C 591 1443.449219 611.597656 1442.722656 631 1439.726563 C 647.304688 1437.207031 663.425781 1432.34375 680 1432 L 680 1430 C 644.667969 1429.269531 609.625 1420 574 1420 L 574 1419 C 612.25 1409.105469 652.65625 1412 691 1419 L 691 1418 C 677.394531 1410.757813 660.761719 1407 646 1402.574219 C 620.507813 1395.117188 594.800781 1388.644531 569 1382.410156 C 493.941406 1364.273438 416.5625 1350.519531 339 1354.039063 C 277.230469 1357 215.527344 1369.425781 157 1389.65625 C 116.988281 1403.484375 77.253906 1419.066406 40 1439.308594 C 25.929688 1447 6 1453.175781 6 1471 C 29 1464.652344 49.503906 1452 74 1450 L 74 1451 C 53.597656 1459.496094 35 1473.347656 16 1484.335938 C 12.265625 1486.484375 0.886719 1495.488281 7 1501 C 9.960938 1503.527344 20 1497.105469 23 1495.769531 C 37.894531 1489.027344 54 1485.101563 70 1482 C 58.691406 1494.613281 36.5625 1502.320313 22 1511.050781 C 17.378906 1513.820313 8 1517.144531 5.742188 1522.261719 C 3.222656 1527.695313 5 1537.097656 5 1543 L 5 1766 C 5 1784.386719 5.28125 1802.671875 5.964844 1821.003906 C 6 1824.800781 3.898438 1836.359375 6.832031 1839 C 10 1841.785156 20.898438 1840.003906 25 1840 L 78 1840 C 145.296875 1840 213 1838.714844 280 1844 L 280 1845 C 252.921875 1850.027344 224.410156 1849 197 1850.039063 C 155.960938 1852 115 1854 74 1854 C 57.671875 1854.027344 41.40625 1856 25 1856 C 21.59375 1856 10.636719 1854.316406 10.636719 1860 C 10.636719 1865 31 1865 35 1865.003906 C 61.347656 1865.445313 87.535156 1868 114 1868 C 181.988281 1868 250 1867 318 1867 C 362.554688 1867 407.480469 1868.683594 451.996094 1867 C 581.9375 1861.734375 712.917969 1866 843 1866 C 1105.664063 1866 1368.40625 1867 1631 1867 C 1722.96875 1867 1814.96875 1868 1907 1868 C 1928.640625 1868 1950.464844 1867 1972 1864.828125 C 1975.386719 1864.507813 1991.363281 1864.746094 1991.363281 1860 C 1991.363281 1856 1979.859375 1856.164063 1977 1856.039063 C 1961 1855.339844 1944.917969 1854.40625 1929 1854.015625 C 1881.617188 1853 1834.378906 1852.035156 1787 1850 C 1766 1849.042969 1744.96875 1846.003906 1724 1846 C 1729.34375 1841 1737 1842 1744 1842 C 1759.382813 1842 1774.664063 1841 1790 1841 C 1838.953125 1841 1887.976563 1840 1937 1840 L 1977 1840 C 1981.324219 1840 1989.570313 1841.589844 1993.402344 1839.398438 C 1998.421875 1836.519531 1996 1820 1996 1815 L 1996 1740 C 1996 1687 1995.804688 1634 1995.175781 1581 C 1995 1567.03125 1996 1553.023438 1996 1539 C 1996 1533.820313 1997.363281 1525.8125 1994.921875 1521.09375 C 1991.9375 1515.324219 1982.453125 1511.734375 1977 1508.769531 C 1961.582031 1500.386719 1945.878906 1487 1929 1482 L 1929 1481 C 1944.808594 1481.132813 1961.414063 1487.160156 1976 1492.8125 C 1979.683594 1494.238281 1990.78125 1501.21875 1994.394531 1499.582031 C 2001.652344 1496.292969 1989.90625 1484 1987 1482.285156 C 1967.644531 1471 1948.773438 1457.636719 1928 1449 L 1928 1448 C 1950.949219 1449.828125 1973.839844 1458.390625 1994 1469 C 1999.90625 1449.023438 1977.359375 1441.71875 1963 1433.433594 C 1924.183594 1411.046875 1883.320313 1392.4375 1841 1377.65625 C 1768.40625 1352.304688 1687.605469 1343 1611 1348.089844 C 1553 1352.050781 1495.230469 1365.046875 1439 1378.667969 C 1407.6875 1386.253906 1376.75 1395.191406 1346 1404.808594 C 1338 1407.308594 1317.539063 1411.15625 1313 1418 C 1331.175781 1415.652344 1349.574219 1412 1368 1412.003906 C 1387.898438 1412.144531 1407.269531 1416.441406 1427 1418 L 1427 1419 C 1414.3125 1422.019531 1399.992188 1421 1387 1422.171875 C 1365.867188 1424.183594 1345 1427.285156 1324 1430 L 1324 1431 C 1338.429688 1436.234375 1355.824219 1436.132813 1371 1438.285156 C 1391.199219 1441.148438 1411.554688 1446.121094 1432 1447 C 1426.3125 1453 1414.972656 1461.726563 1407 1464 C 1401 1465.6875 1392.289063 1464 1386 1464 C 1372.359375 1464 1358.664063 1464.675781 1345 1465.015625 C 1333.691406 1465.296875 1322.277344 1468.082031 1311 1469 C 1299.277344 1469.769531 1287.523438 1471.078125 1276 1473.746094 C 1272.859375 1474.472656 1267 1474.355469 1265.183594 1477.316406 C 1259.359375 1486.308594 1280 1484 1284 1484 C 1307 1484 1329.976563 1485 1353 1485 C 1359.714844 1485 1366.304688 1485.71875 1372.996094 1486.019531 C 1374.660156 1486.09375 1378.644531 1486.164063 1377.832031 1489 C 1376.945313 1491.8125 1373 1494.820313 1370.976563 1497 C 1365.5 1503 1358.523438 1514.734375 1350.984375 1517.6875 C 1342.285156 1521.09375 1328.226563 1517 1319 1517 C 1291 1517 1263 1516 1235 1516 C 1222.757813 1516 1210.179688 1517 1198 1518.164063 C 1195.273438 1518.460938 1187.683594 1518.386719 1186.347656 1521.371094 C 1185 1524.375 1196 1526.738281 1198 1527.242188 C 1211 1530.707031 1224.664063 1532.171875 1238 1534 C 1249.972656 1535.640625 1262 1537.492188 1274 1538.832031 C 1293 1541 1312.8125 1546.589844 1332 1547 C 1327.933594 1554.40625 1322 1570.8125 1314.816406 1575.109375 C 1311.445313 1577.089844 1305.769531 1576 1302 1576 C 1291.371094 1576 1280.570313 1575.175781 1270 1574.171875 C 1250.457031 1572.308594 1230.53125 1573.6875 1211 1571.828125 C 1198.707031 1570.660156 1179.757813 1567.621094 1168 1571 L 1168 1572 C 1202.710938 1584.035156 1238.9375 1590.453125 1274 1601.140625 C 1281.691406 1603.484375 1291.992188 1604.746094 1298.683594 1609.390625 C 1302.207031 1612 1301 1619.667969 1297.785156 1622.007813 C 1294.832031 1624.054688 1285.976563 1619 1283 1617.8125 C 1270.878906 1613.136719 1256.855469 1608 1244 1606 C 1254 1618 1267.773438 1625.507813 1277 1639 C 1257.273438 1627.082031 1234.878906 1617.339844 1213 1610 C 1216.378906 1616.308594 1223.871094 1620.136719 1229 1625.039063 C 1240.191406 1635.738281 1252.410156 1648.230469 1258 1663 L 1257 1663 C 1252.773438 1656 1245.269531 1651 1239 1645.714844 C 1221.511719 1631.175781 1199.40625 1618.789063 1178 1611 C 1180 1617.710938 1187.886719 1622 1193 1626.289063 C 1203.441406 1635.371094 1215.640625 1646.234375 1223 1658 C 1196 1637.355469 1161.746094 1621.550781 1130 1610 C 1134.933594 1617.542969 1143 1622.648438 1150 1628.320313 C 1162 1638.238281 1173.332031 1650.40625 1187 1658 C 1157 1659.164063 1134.671875 1631.664063 1114 1615 C 1116.902344 1625.074219 1123.980469 1633 1129 1642 C 1117.363281 1638.640625 1107 1629 1099.289063 1620 C 1095.617188 1615.777344 1092.800781 1610 1088 1607 C 1088.871094 1615.753906 1093.742188 1623.558594 1096 1632 C 1081.988281 1622.742188 1074 1611 1063 1599 C 1062.609375 1604.808594 1064.539063 1611.347656 1066 1617 C 1056.191406 1609.015625 1052 1592.609375 1042 1586 L 1042 1604 L 1041 1604 C 1034.238281 1588.3125 1021.339844 1573 1021.339844 1555 C 1021.339844 1535 1037.640625 1527.613281 1048.621094 1514 C 1058.21875 1502.09375 1058.566406 1485.605469 1069.175781 1474.015625 C 1081.980469 1460.023438 1102.292969 1456 1117 1444.484375 C 1125.945313 1437.476563 1132.441406 1428.464844 1136.785156 1418 C 1138.203125 1414.589844 1139 1404.039063 1142.589844 1402.402344 C 1146 1400.78125 1154.28125 1405.222656 1158 1406 C 1155.8125 1398.207031 1147.589844 1393.46875 1143 1387 C 1151.773438 1391.792969 1161.421875 1395.109375 1171 1398 C 1165.84375 1389.742188 1155.886719 1381.199219 1149 1374 C 1158.304688 1377.796875 1168.167969 1383 1178 1385 C 1173.332031 1377.054688 1164 1372.121094 1159 1364 C 1165.574219 1368.675781 1173.597656 1371.828125 1181 1375 C 1178 1366.066406 1169.902344 1360 1165 1352 C 1175.929688 1359.589844 1188.832031 1363.78125 1201 1369 C 1199 1365 1196 1362.136719 1193 1359 C 1211 1363.269531 1228.605469 1375 1245 1383.257813 C 1251.847656 1386.769531 1261 1393.441406 1269 1393.707031 C 1275 1394 1282.53125 1388.691406 1288 1386.164063 C 1293.910156 1383.4375 1302.675781 1381 1306 1375 C 1287.332031 1374.195313 1266.367188 1372.421875 1248 1369 L 1248 1368 C 1257.886719 1366.742188 1267.261719 1363.472656 1277 1361.515625 C 1281.355469 1360.636719 1286 1362.210938 1290 1360 C 1280.972656 1354.027344 1270.984375 1349 1261 1344.808594 C 1254.796875 1342.21875 1246.574219 1340.003906 1242 1335 C 1259.46875 1335 1272.566406 1339.472656 1289 1344 C 1285.558594 1337.222656 1277 1333.171875 1271 1329 C 1257.390625 1319.640625 1239.503906 1311 1229 1298 C 1239.929688 1299.382813 1249 1302.160156 1259 1307 C 1250.234375 1288.207031 1222.824219 1284 1214 1265 C 1218.671875 1268 1223.503906 1271.007813 1229 1272 C 1218.875 1258.800781 1203.8125 1252.449219 1199 1235 C 1206.515625 1240.289063 1212.496094 1248.210938 1221 1252 C 1219.636719 1241.726563 1211 1233 1208 1223 C 1216.738281 1226.695313 1226.898438 1227.4375 1236 1230.34375 C 1262 1238.683594 1287.972656 1247.039063 1315.714844 1247.601563 C 1371.179688 1248.726563 1422.328125 1222.75 1455 1178 C 1468.867188 1159.226563 1478.933594 1137 1486.332031 1115 C 1488.742188 1107.828125 1490.488281 1089.308594 1496.992188 1085 C 1499.503906 1083.242188 1505.3125 1086 1508 1086.578125 C 1517.644531 1089.0625 1527.296875 1090.8125 1537 1093 C 1538.421875 1093.1875 1550 1094.21875 1548.792969 1096.484375 C 1546.777344 1100 1531.964844 1100.761719 1528 1102 L 1528 1103 C 1544.53125 1104.304688 1561.679688 1105 1578 1108 L 1578 1109 C 1568.246094 1109.65625 1558.691406 1112.585938 1549 1113.019531 C 1544.976563 1113.199219 1538.96875 1113.234375 1537 1117 C 1548.195313 1117.03125 1559.769531 1119.761719 1571 1120.828125 C 1592.964844 1123 1614.464844 1124.691406 1636 1130 L 1636 1131 C 1613.996094 1131.183594 1591.523438 1134.5 1570 1138.625 C 1560.238281 1140.496094 1547.265625 1142.101563 1539 1148 C 1551.363281 1151.65625 1566 1151 1579 1152.171875 C 1594.578125 1153.734375 1609.832031 1158 1625 1161.667969 C 1635.410156 1164.191406 1650.992188 1166.539063 1659 1174 C 1649.808594 1170.648438 1639.613281 1171 1630 1169.714844 C 1597.964844 1166 1565.722656 1169 1535 1178 L 1535 1179 C 1556.253906 1185.457031 1579.46875 1185 1601 1191 L 1601 1192 C 1582.289063 1192.011719 1563.789063 1195 1545 1195 C 1528.578125 1195 1508.847656 1192.316406 1493 1197 C 1502.476563 1203.476563 1517.484375 1203.515625 1528 1210 C 1510.300781 1210.5625 1492.320313 1206.089844 1475 1212 C 1478.796875 1214.59375 1483.636719 1214.070313 1488 1215.371094 C 1496.226563 1217.824219 1504.5625 1221.753906 1512 1226 C 1494.828125 1229.351563 1478.46875 1221.585938 1461 1229 L 1461 1230 C 1469.4375 1230.175781 1477.71875 1233.394531 1486 1235 L 1486 1236 C 1474 1238.207031 1445 1233.335938 1438 1245 L 1450 1244 C 1444.585938 1250.359375 1435.234375 1253.488281 1428 1257.464844 C 1412.890625 1265.761719 1398.621094 1276.0625 1382 1281.117188 C 1373.332031 1283.75 1359.191406 1283.085938 1352 1288 L 1363 1291 L 1363 1292 L 1330 1293 L 1330 1295 C 1337.664063 1295.667969 1350.449219 1299.632813 1356 1305 L 1317 1304 C 1321.324219 1311 1337.476563 1312.632813 1345 1315 L 1345 1316 C 1326.964844 1316 1309 1313 1291 1313 L 1291 1314 C 1306 1321.023438 1322.675781 1326 1339 1329 L 1339 1330 C 1325.410156 1330 1311.339844 1330.125 1298 1327.113281 C 1295.890625 1326.636719 1285.664063 1322.429688 1284.347656 1324.695313 C 1282.820313 1327.316406 1293.3125 1332.703125 1295 1333.78125 C 1307 1341.511719 1323.5 1348.734375 1334 1358 C 1320.785156 1358 1307.199219 1349.011719 1295 1350 C 1300.628906 1357.820313 1309 1359.691406 1317 1364.464844 C 1320.484375 1366.578125 1323.648438 1369.730469 1328 1369.425781 C 1341.183594 1368.503906 1355 1358.367188 1367 1353.226563 C 1399.375 1339.226563 1431 1324 1464 1311.003906 C 1522.699219 1288 1583.257813 1270.507813 1645 1257.714844 C 1715.257813 1243.15625 1785 1233.300781 1857 1240.171875 C 1882.921875 1242.648438 1909.199219 1248.558594 1934 1256.503906 C 1947 1260.671875 1960.613281 1267.695313 1974 1270 C 1962.722656 1249 1931 1240.363281 1914 1225 C 1928.496094 1227.691406 1943.386719 1229.03125 1958 1231.132813 C 1965.296875 1232.179688 1972.59375 1235.179688 1980 1234 L 1980 1233 C 1951.808594 1225 1932.574219 1196.46875 1906 1185 L 1906 1184 C 1926.652344 1184.058594 1945.480469 1191.671875 1965 1197 C 1960.300781 1187.132813 1945.828125 1179 1936 1174.8125 C 1930.867188 1172.671875 1924.847656 1172.164063 1921 1168 C 1929.453125 1168 1937.5625 1165.8125 1946 1166.015625 C 1956.472656 1166.265625 1966.773438 1169.070313 1977 1171 C 1975 1165.476563 1966.859375 1162.621094 1962 1160 C 1946.742188 1151.140625 1928.878906 1142.769531 1911 1142 C 1924.652344 1128.792969 1948.257813 1140.488281 1964 1140 C 1948.449219 1125.105469 1919.648438 1111 1899 1105 L 1899 1104 C 1912.574219 1101.441406 1926.3125 1101.511719 1940 1103.289063 C 1948.324219 1104.371094 1958.8125 1108.753906 1967 1107 C 1955 1096.648438 1938.378906 1088.789063 1924 1082.4375 C 1916.796875 1079.253906 1906.851563 1077.261719 1901 1072 C 1920.207031 1072 1936.988281 1074.59375 1956 1077 C 1945.878906 1059.8125 1917.285156 1058.429688 1904 1045 C 1913.683594 1045 1922.480469 1044.398438 1932 1043 L 1932 1041 C 1922.519531 1039.363281 1913.226563 1034 1904 1031 L 1904 1030 C 1916.550781 1029.234375 1929.980469 1030.070313 1942 1026 L 1942 1025 C 1922.269531 1018.746094 1903.765625 1008.71875 1884 1003 L 1884 1002 C 1898.453125 1002 1917 1007.089844 1931 1003 L 1931 1002 C 1916.980469 999.585938 1902.984375 990.539063 1890 985 C 1884.308594 982.371094 1877.300781 981.667969 1873 977 C 1883.773438 975.648438 1892.597656 969.09375 1904 969 C 1898.890625 961.679688 1873 960.71875 1865 963 C 1873 951.679688 1888.171875 951.3125 1897 942 C 1884 941.734375 1870.910156 940.675781 1858 940 C 1862.816406 935.804688 1867.910156 932 1872.980469 928.085938 C 1873.964844 927.328125 1877.613281 925.289063 1876.652344 923.5625 C 1875.628906 921.722656 1871.511719 923.15625 1870 923.347656 C 1864.394531 924.046875 1858.402344 922.398438 1853 921 C 1859.253906 915.238281 1867.339844 910 1871 902 C 1860 903.460938 1849.988281 904 1839 904 C 1842 900.195313 1846 897.195313 1850 894.285156 C 1852.285156 892.597656 1854.664063 891.03125 1857 889.414063 C 1858.574219 888.320313 1865.707031 885 1865 882.40625 C 1864.5625 880.378906 1859.332031 881.820313 1858 882 C 1850.648438 882.398438 1843.300781 882.160156 1836 881.285156 C 1833.953125 881.039063 1828.1875 881.628906 1827.632813 878.773438 C 1827 876 1832 873.296875 1834 872.027344 C 1839.84375 868 1846 864.679688 1852 860.65625 C 1853.601563 859.558594 1857.792969 857.429688 1857.792969 855.101563 C 1857.792969 853.035156 1848.644531 852.664063 1847 852.253906 C 1836.417969 849.605469 1826.902344 844.664063 1820 836 C 1827.488281 834.726563 1834.484375 831.273438 1842 830 L 1842 829 C 1832.953125 826.113281 1823.992188 825 1816 819.25 C 1813.960938 817.8125 1808.265625 813.730469 1810 810.601563 C 1812.863281 805.613281 1832 810 1837 810 C 1832.421875 801.625 1822.449219 797 1817.582031 788 C 1816.617188 786.246094 1812.792969 780.054688 1815.578125 778.492188 C 1818 777.046875 1824.929688 779 1828 779 C 1823.792969 756.339844 1822.515625 730.011719 1824 707 C 1824.753906 697.296875 1824.953125 687.75 1825 678 C 1825 675 1826.351563 670.160156 1824.882813 667.324219 C 1821.851563 661.472656 1811.605469 658.445313 1806 656 C 1786.503906 647.070313 1768.683594 640 1747 640 L 1747 641 C 1758.214844 646.003906 1767.648438 653.023438 1777 661 C 1764 660.527344 1751.378906 652.101563 1738 655 L 1738 656 C 1759.855469 668 1782 679.207031 1800 697 C 1779.65625 689.34375 1757.753906 677.273438 1735 684 L 1735 685 C 1743 689 1751.957031 691.402344 1760 696 C 1771.425781 702.195313 1782.464844 711.039063 1795 715 L 1795 716 C 1775.277344 713.085938 1758 708.023438 1738 714 L 1738 715 C 1755.828125 722.09375 1772.777344 732 1791 738 L 1791 739 C 1768.421875 740.78125 1747.277344 743.460938 1725 737.253906 C 1693.410156 728.453125 1666.730469 708.167969 1634 702 L 1634 701 C 1655.242188 700.015625 1674.945313 698.1875 1696 703 C 1690 694.066406 1668 689.113281 1658 686.527344 C 1631.273438 679.65625 1601.570313 677.199219 1574 679.089844 C 1561.691406 680 1549.316406 682.746094 1537 683 L 1537 682 C 1559.605469 675.492188 1580 664.023438 1604 662.09375 C 1619.320313 661 1636.8125 660 1652 662.324219 C 1665.957031 664.582031 1680.886719 669.699219 1695 670 C 1691.789063 665.617188 1684.738281 663.324219 1680 660.726563 C 1664.949219 652.472656 1648 646.207031 1631 644 L 1631 643 C 1650.917969 639.300781 1671 641.425781 1691 643 C 1686.800781 637 1672.984375 634 1666 631.71875 C 1641 624.019531 1617 621 1591 621 C 1505.765625 621.003906 1426 682 1369.90625 740.039063 C 1351.898438 758.671875 1323.183594 783.113281 1318 810 C 1326.3125 804.042969 1333.996094 796.496094 1342 790 C 1332.703125 811.167969 1313.449219 828.542969 1311 853 C 1324.433594 843.539063 1336.183594 831 1349 820.460938 C 1368.804688 804.390625 1394.996094 789.785156 1420 784 L 1420 785 C 1410.28125 789.523438 1402 798.824219 1394 805.726563 C 1375.734375 821.304688 1356.640625 837 1341.65625 855.714844 C 1335.316406 863.703125 1324.707031 873.066406 1322 883 C 1335.722656 873.421875 1345.660156 860.6875 1361 853 C 1363.21875 852 1374.605469 845.472656 1376 849.492188 C 1377.398438 853.273438 1371.925781 860.765625 1370.21875 864 C 1363.867188 876.039063 1351.503906 889.109375 1348 902 C 1356.613281 896.671875 1363.867188 889 1372 882.746094 C 1396.328125 864.515625 1421.820313 847 1450 835.191406 C 1459.375 831.289063 1469.800781 826 1480 825 L 1480 826 C 1464.921875 831.707031 1443.308594 845.824219 1434 859 C 1446.617188 857.136719 1457.984375 853 1471 853 L 1471 854 C 1441.363281 865.433594 1400.679688 886.308594 1387 917 C 1398.609375 912.605469 1409.53125 905.089844 1421 900.011719 C 1449.375 887.449219 1480.894531 876.453125 1512 874 L 1512 875 C 1472.894531 887.550781 1445 912 1413 936 L 1413 937 C 1422.96875 937.605469 1439.316406 926 1449 922 C 1473 912.363281 1500.207031 904.277344 1526 901 C 1517.882813 907.257813 1507 910.355469 1498 915.3125 C 1485.625 922.113281 1473.738281 931 1463 940 C 1457.867188 944.355469 1451.230469 948 1448 954 C 1481.433594 938.804688 1517 919.429688 1554 914 L 1554 915 C 1534.554688 924.199219 1515.777344 937.714844 1498 949.804688 C 1491.523438 954.210938 1482 958.105469 1478 965 C 1517 953.742188 1558.597656 930 1601 940 L 1601 941 C 1574.449219 943.316406 1548.246094 957 1524 967.011719 C 1516.535156 970.117188 1501.480469 974.214844 1497 981 C 1518 977 1538.46875 971.222656 1560 969.171875 C 1572.667969 968 1585.363281 970 1598 970 L 1598 971 C 1585.964844 975.417969 1573 977.296875 1561 981.695313 C 1548.226563 986.335938 1535.558594 994 1522 996 L 1522 998 C 1557.757813 998 1598.980469 988.664063 1634 997 C 1624 1002.1875 1610.878906 1002.1875 1600 1004.511719 C 1579 1009 1551.394531 1021.054688 1530 1018 C 1534 1024.386719 1554.664063 1024.804688 1562 1025 C 1592 1025.730469 1622 1026.714844 1652 1028 L 1652 1029 C 1636.824219 1033.015625 1620.519531 1034.414063 1605 1037.308594 C 1584.792969 1041.082031 1563.742188 1046.574219 1543 1045 C 1515.988281 1042.734375 1484.394531 1025.414063 1468 1004 C 1479.539063 1011 1491.332031 1016.414063 1505 1017 L 1505 1016 C 1494.792969 1012.042969 1482.613281 1008.246094 1475 1000 C 1482.378906 1001.25 1489.449219 1004 1497 1004 C 1492.679688 998.128906 1479.761719 994.367188 1473 991.601563 C 1453.9375 983.8125 1435.296875 975 1416 967.773438 C 1388.945313 957.699219 1361 950.765625 1332 952.039063 C 1314.992188 952.785156 1297.445313 958.023438 1282 965 C 1197.9375 1002.382813 1160.351563 1096.71875 1158.355469 1184 C 1158 1199.125 1161.828125 1213.238281 1164 1228 L 1163 1228 C 1158.542969 1218.578125 1151.757813 1209.703125 1146 1201 L 1145 1201 C 1146.203125 1210.328125 1150.4375 1218.804688 1152 1228 L 1151 1228 C 1143.652344 1213.226563 1125 1191.339844 1109 1186 C 1116.882813 1200 1128.433594 1210.683594 1134 1226 C 1122.597656 1213.621094 1108.574219 1196.390625 1091 1193 C 1098.484375 1203.40625 1110 1209.472656 1113 1223 C 1103.246094 1213.273438 1091.730469 1204.460938 1079 1199 C 1082 1209.339844 1094 1219.441406 1099 1230 C 1086.730469 1226.363281 1077 1215.546875 1065 1211 C 1066.433594 1215.132813 1076.945313 1224.035156 1075.324219 1228.074219 C 1074.609375 1230 1059.625 1225.0625 1057 1225 C 1064.542969 1235.78125 1082.289063 1242.289063 1092 1252 C 1081.777344 1248.035156 1066 1238.691406 1055 1241 L 1055 1242 C 1074.390625 1254 1082.714844 1267.574219 1096 1285 C 1089 1284 1081.886719 1278.808594 1075 1280 L 1075 1281 C 1085.625 1288.035156 1093 1297 1102 1306 C 1097.257813 1304.527344 1082.472656 1294.773438 1077.753906 1299.050781 C 1075.28125 1301.292969 1081.71875 1305.800781 1083 1307.039063 C 1090.679688 1314.4375 1097 1323 1104 1331 C 1096.953125 1327.515625 1090.269531 1323.011719 1083 1320 C 1089.195313 1338.410156 1097.921875 1357.082031 1109 1373 L 1103 1372 C 1105.953125 1377.5625 1111.371094 1381.785156 1115 1387 C 1112.34375 1385.546875 1109.832031 1384.070313 1107 1383 C 1108.710938 1388.164063 1112.367188 1392.273438 1115 1397 C 1103 1389.632813 1091.957031 1380.539063 1078 1377.511719 C 1054.710938 1372.460938 1033.835938 1383 1011 1383 C 983.679688 1383.132813 955 1372.066406 928 1377.515625 C 912.785156 1380.578125 902.574219 1390.578125 889 1397 C 891.414063 1392.6875 895.175781 1389.695313 897 1385 C 880.425781 1387.285156 907.695313 1371.152344 896 1373 C 898.339844 1368 902.507813 1364.207031 904.769531 1359 C 910.449219 1346 913 1332.527344 920 1320 L 919 1319 C 913 1323 907.230469 1327.199219 902 1332 C 909.308594 1320.265625 918.746094 1310.792969 927 1300 C 918.832031 1298.296875 910.652344 1303.8125 903 1306 C 911.390625 1297.609375 921.621094 1289.0625 929 1280 C 921 1280.34375 914.253906 1284.1875 907 1287 C 913.570313 1277.039063 918.574219 1266.65625 927 1258 C 932.972656 1252 943.546875 1246.820313 948 1240 C 934.480469 1240.289063 923 1249 911 1254 C 917.796875 1245.785156 926.820313 1238.824219 935 1232.015625 C 936.253906 1231 943.578125 1227.175781 943 1225.328125 C 941.925781 1221.054688 924.707031 1227.359375 922 1228 C 925.210938 1221.113281 933.347656 1218 936 1211 C 928 1213 919 1219.085938 913 1224.375 C 911.519531 1225.753906 908.203125 1231.59375 905.867188 1231.320313 C 903.574219 1231.050781 907.601563 1223.8125 908 1223 C 912.398438 1214.113281 920.175781 1209 925 1201 C 911.945313 1202 899.632813 1215.257813 891 1224 C 893.542969 1209.234375 905.617188 1203 914 1192 C 895.699219 1195.527344 882.960938 1214.539063 869 1225 C 875.695313 1210.214844 888.632813 1199.28125 895 1185 C 880.25 1190.777344 859.796875 1210.71875 853 1225 L 852 1225 C 853 1217.652344 856.636719 1211 859 1204 C 851.257813 1208 844.625 1221.246094 841 1229 L 840 1229 C 841.28125 1214.289063 845.554688 1200 844.894531 1185 C 841 1098.765625 810.980469 1008.738281 729 967.753906 C 711 958.800781 691 952.507813 671 952.015625 C 633.441406 951.09375 597 963 563 977.652344 C 544.554688 985.648438 524.683594 998 505 1002 L 505 1003 C 511.945313 1004.15625 522.378906 1002.414063 529 1000 C 521.4375 1008.03125 508 1012.082031 498 1016 L 498 1017 C 512.742188 1017 524.488281 1011 537 1004 C 520.753906 1023.800781 491.757813 1041.734375 466 1044.816406 C 440 1048 413 1040.1875 388 1035.375 C 375.277344 1033 361.289063 1033 349 1029 L 349 1028 C 376 1027.441406 403.894531 1027 431 1025.089844 C 444.21875 1024.183594 458.277344 1024.304688 471 1020 L 471 1019 C 438 1009.265625 402.351563 1006.628906 369 998 L 369 997 C 405 995.449219 440.773438 998 477 998 C 473.652344 992.46875 464.734375 991.484375 459 989.199219 C 441.792969 982.339844 421.742188 973 403 972 L 403 971 C 425.523438 966.632813 451.660156 968.382813 474 973.5 C 484.648438 976 495.238281 980.410156 506 982 L 506 981 C 485.949219 969.296875 463.671875 960.6875 442 952.515625 C 428.65625 947.484375 413.386719 941.628906 399 941 L 399 940 C 443 929.503906 483 956.140625 524 965 C 518.953125 958.464844 510.835938 955 504 950.5625 C 492.265625 943.007813 481 934.765625 469 927.605469 C 462.605469 923.789063 454.808594 920.800781 450 915 C 470.167969 922 491 926.5625 511 934.449219 C 524.617188 940 537.390625 948.046875 551 953 C 546.945313 946 538.328125 940 532 934.808594 C 514.671875 921 495 909.09375 474 902 L 474 901 C 493.402344 904.65625 513.335938 908.261719 532 915 C 551 921.613281 569 931.121094 588 938 C 583.839844 929.082031 573.511719 923.179688 566 917.199219 C 544 899.6875 518.179688 884 491 876 L 491 875 C 535.238281 872.679688 576.664063 903.195313 616 918 C 605.539063 895.164063 577.828125 878.265625 557 866.148438 C 549.785156 862 533.25 858.769531 529 852 C 542.355469 855.179688 555.253906 855 568 861 C 560.355469 844.746094 536.203125 836.253906 523 825 C 556.171875 834.597656 584.902344 851 613 870.722656 C 626.582031 880.273438 640 895.140625 655 902 C 647.339844 883.792969 633 865.261719 623 848 C 649 848.074219 660.707031 873.472656 681 884 C 661.226563 842.386719 617.496094 815.496094 586 784 C 615.4375 792.519531 639.398438 809.667969 663 828.515625 C 672.632813 836.203125 681.785156 847.800781 693 853 C 688.71875 827.832031 670.820313 810.726563 660 789 C 668.582031 796 677.246094 802.136719 684 811 C 686.191406 803.570313 677.332031 793 673.574219 787 C 659.566406 764.667969 638.507813 746.5 620 728 C 558.167969 666.191406 469.707031 610.785156 379 622.710938 C 361.570313 625.003906 344.777344 629 328 634.34375 C 321.367188 636.480469 312.519531 638.515625 308 644 M 824 701 L 823 702 L 824 701 M 207 715 C 205.777344 716.195313 205.578125 716.316406 204 717 C 204.980469 715.21875 204.90625 715.40625 207 715 M 415 729 L 415 730 C 408.730469 731.359375 401.503906 729.753906 395 730.039063 C 382.382813 730.59375 369.386719 732 357 734.511719 C 336 739 316.605469 748 296 753.417969 C 273.285156 759.433594 248.386719 761 225 761 C 239.980469 751.585938 263 750 280 745.265625 C 306.746094 738.0625 334 725.042969 362 723.089844 C 380.558594 721.789063 396.964844 727.203125 415 729 M 1779 760 L 1779 761 C 1754.863281 761 1729.53125 759.242188 1706 753.664063 C 1685.589844 748.824219 1666.46875 739.429688 1646 734.59375 C 1627.757813 730.285156 1608.644531 730 1590 730 C 1602.667969 720.5625 1629 721.78125 1644 723.71875 C 1662.433594 726.113281 1679.363281 733.347656 1697 738.820313 C 1714 744.128906 1731.703125 748 1749 752.574219 C 1758.695313 755.175781 1768.960938 759.363281 1779 760 M 1792 739.332031 C 1792.773438 739.332031 1792 739.832031 1791.667969 739.667969 L 1792 739.332031 M 1764 782 L 1764 783 C 1746.714844 782.59375 1727.859375 777 1711 773 C 1718.542969 782.613281 1734.246094 785.667969 1740 797 C 1719.984375 789.46875 1700.859375 778.78125 1681 770.660156 C 1673.21875 767.480469 1664.691406 766.269531 1657 763 C 1663.839844 760.050781 1671.726563 760.519531 1679 759.828125 C 1710.234375 757 1736.8125 768.140625 1764 782 M 224 760 L 223 761 L 224 760 M 344 762 L 344 763 C 332.753906 767.128906 321 769.492188 310 774.332031 C 294.472656 781.144531 279.175781 791 263 796 C 267.671875 786.066406 283 778.628906 293 775 L 293 774 C 274 775.488281 255.710938 782.042969 237 783 C 241 779 246.945313 777 252 774.140625 C 281.964844 757.53125 311.386719 760.597656 344 762 M 326 795 L 326 796 C 303.355469 805.289063 281 818.132813 258 826 C 270.617188 806 303.457031 795.0625 326 795 M 1745 826 C 1722.308594 815.222656 1698.921875 806.207031 1676 796 C 1681.214844 793.8125 1686.664063 796.113281 1692 797 C 1708.316406 799.066406 1736.453125 811.226563 1745 826 M 856 1003 L 856 1007 L 857 1007 C 856.824219 1005.316406 856.683594 1004.507813 856 1003 M 1147 1003 L 1147 1007 L 1148 1007 C 1147.824219 1005.316406 1147.683594 1004.507813 1147 1003 M 1499 1004 L 1500 1005 L 1499 1004 M 857 1008 C 857 1020.398438 858.488281 1035.121094 862 1047 C 867.171875 1039.429688 862.460938 1015 857 1008 M 1146 1009 C 1142.367188 1021 1141 1032.550781 1141 1045 L 1143 1045 C 1143.449219 1034.527344 1150 1019 1146 1009 M 1237 1058 C 1235.488281 1066.78125 1232 1075 1231.171875 1084 C 1227.960938 1117.492188 1237.746094 1152.164063 1263.425781 1175.113281 C 1318.726563 1224.53125 1406.617188 1185.136719 1413.828125 1113 C 1416.191406 1089.359375 1410.210938 1064.585938 1398.574219 1044 C 1393.480469 1035 1385.308594 1027.226563 1381 1018 C 1389.199219 1019.003906 1396.9375 1023.679688 1404 1027.71875 C 1441.253906 1049.03125 1454.683594 1095 1442 1135 C 1426.402344 1185.183594 1378.675781 1218.699219 1327 1221 C 1282.609375 1223 1236.644531 1199.453125 1215.179688 1160 C 1209.863281 1150.234375 1203 1137.371094 1203 1126 C 1202.96875 1113.007813 1208.957031 1100.164063 1215 1089 C 1220.191406 1079.410156 1227 1063.3125 1237 1058 M 622 1020 C 617.683594 1029.257813 608.5625 1037.09375 603 1046 C 592.507813 1063.105469 587 1085 588 1105 C 591.421875 1182.121094 682.769531 1227.777344 741.996094 1173.828125 C 775.941406 1143 777.488281 1099.390625 768 1058 C 775.9375 1063.636719 780.679688 1073.019531 786 1081 C 793.234375 1092 804.367188 1106.378906 804.867188 1120 C 805.261719 1130.753906 798.4375 1143.632813 793.753906 1153 C 775.449219 1189.601563 739.316406 1214.324219 699 1219.6875 C 652.515625 1226 603.566406 1207.621094 576.59375 1168 C 548.996094 1127.457031 546.238281 1066.148438 590 1035.441406 C 599.289063 1029 611 1023.140625 622 1020 M 1319 1036.570313 C 1352.238281 1036.464844 1352.382813 1087.707031 1319 1088 C 1284.675781 1088.289063 1285.535156 1036.679688 1319 1036.570313 M 663 1037.378906 C 695.558594 1031 706 1081.421875 674 1087.625 C 641.335938 1094 630 1044 663 1037.378906 M 1114 1223 L 1113 1224 L 1114 1223 M 1093 1252 L 1092 1253 L 1093 1252 M 911 1254 L 910 1255 L 911 1254 M 1672 1268 C 1675.265625 1272.722656 1688.476563 1270 1694 1270 C 1716 1270 1737.988281 1271.066406 1760 1273.171875 C 1826.675781 1279.539063 1890.621094 1298.078125 1954 1319 C 1967.617188 1323.496094 1980.519531 1330.734375 1994 1335 C 1992 1328.46875 1985.335938 1324.472656 1980 1320.722656 C 1967.269531 1311.769531 1954.199219 1302.453125 1940 1296 L 1940 1295 C 1956 1295.734375 1972.171875 1300.320313 1988 1303 C 1984.488281 1296.765625 1975 1293.199219 1969 1289.71875 C 1951.664063 1279.808594 1934 1273.03125 1915 1267.578125 C 1856.851563 1251.007813 1794.671875 1251.039063 1735 1258.183594 C 1713.949219 1260.703125 1693 1265.542969 1672 1268 M 12 1305 C 28 1300.59375 44.402344 1297.441406 61 1295 C 50.410156 1306 33.367188 1312.78125 21 1322 C 15.800781 1325.710938 8.851563 1329.535156 7 1336 C 20.6875 1332.792969 34.445313 1324.382813 48 1320 C 80.191406 1309.035156 113 1300 146 1291.578125 C 207.738281 1276 270.714844 1274 334 1274 L 334 1272 C 303.824219 1269.613281 274 1262 244 1258.351563 C 193.195313 1252.367188 138.621094 1254.65625 89 1267.269531 C 68 1272.589844 47.246094 1280.265625 29 1292.015625 C 23.238281 1295.722656 15.210938 1298.71875 12 1305 M 1668 1269 C 1668.980469 1270.785156 1668.90625 1270.59375 1671 1271 C 1669.777344 1269.804688 1669.578125 1269.683594 1668 1269 M 1663.667969 1270.332031 C 1663.222656 1270.777344 1664.277344 1270.722656 1664.332031 1270.667969 C 1664.777344 1270.222656 1663.722656 1270.277344 1663.667969 1270.332031 M 1975.667969 1270.332031 C 1975.222656 1270.777344 1976.277344 1270.722656 1976.332031 1270.667969 C 1976.777344 1270.222656 1975.722656 1270.277344 1975.667969 1270.332031 M 1264 1415 L 1264 1416 C 1281.34375 1415.101563 1301.519531 1402.117188 1318 1396.34375 C 1358 1382.3125 1398.183594 1369.066406 1439 1357.425781 C 1558.34375 1323.402344 1691.886719 1309.757813 1813 1344 C 1832 1349.230469 1851.414063 1354.289063 1870 1361.226563 C 1886.550781 1367.40625 1903.6875 1376.398438 1921 1380.070313 C 1930.570313 1382.097656 1941.945313 1381.265625 1952 1383.011719 C 1962.316406 1384.800781 1973 1388.300781 1983 1391.683594 C 1984.824219 1392.308594 1991.183594 1396 1992.824219 1394 C 1996 1390 1979.546875 1380.214844 1977 1378.515625 C 1964.800781 1370.382813 1952.3125 1363.421875 1939 1357.308594 C 1931.640625 1354 1922.46875 1351.707031 1916 1347 C 1928.523438 1347.105469 1941.71875 1347.765625 1954 1350.359375 C 1962 1352.0625 1970.890625 1357.222656 1979 1357 C 1928.191406 1324.675781 1865.511719 1311 1807 1300.679688 C 1749.808594 1290.742188 1691.324219 1283.09375 1633 1287.089844 C 1549.203125 1292.828125 1470.613281 1323 1394 1355.574219 C 1350.433594 1374.160156 1304.90625 1391 1264 1415 M 24 1357 L 24 1358 C 44.894531 1353.164063 63.261719 1349 85 1349 C 67.550781 1361.707031 43.480469 1367.097656 25 1379.335938 C 18.371094 1383.722656 9.703125 1388.109375 7 1396 C 31 1392.253906 54.382813 1382.316406 79 1379 L 79 1380 C 60.410156 1388.410156 42.871094 1399.429688 26 1411 C 19.9375 1415 10 1419.648438 8 1427 C 20 1422.605469 31.183594 1414.535156 43 1409.308594 C 78.398438 1393.644531 114.292969 1378.390625 151 1366.003906 C 246.636719 1333.730469 349 1324.324219 449 1336.285156 C 515.277344 1344.214844 581.652344 1363.15625 645 1384 C 666 1390.789063 687 1398.21875 708 1405.503906 C 718 1409 728.332031 1415 739 1416 C 726.53125 1404.238281 704.59375 1397.035156 689 1390.140625 C 654.304688 1374.800781 618.695313 1360.027344 583 1347.140625 C 536.582031 1330.378906 490.726563 1310.734375 442 1301.375 C 357 1285.066406 268.640625 1288.402344 184 1304.625 C 129.914063 1315 70.871094 1326.089844 24 1357 M 1291 1344 C 1291.769531 1345.3125 1291.6875 1345.230469 1293 1346 C 1292.453125 1344.363281 1292.636719 1344.546875 1291 1344 M 21.667969 1358.332031 C 21.222656 1358.777344 22.277344 1358.722656 22.332031 1358.667969 C 22.777344 1358.222656 21.722656 1358.277344 21.667969 1358.332031 M 1980 1358 L 1981 1359 L 1980 1358 M 1056 1402.285156 C 1060.550781 1401.730469 1085.675781 1404.046875 1080.839844 1413.363281 C 1078.605469 1417.664063 1068 1420.21875 1064 1422.566406 C 1048.925781 1431.136719 1034.695313 1443.171875 1017 1445.699219 C 990.941406 1449.421875 972.800781 1432.667969 951 1422.128906 C 947.285156 1420.335938 924.835938 1415.324219 929.378906 1410.570313 C 948.476563 1390.578125 984.878906 1413.078125 1007 1413.738281 C 1023.5625 1414.234375 1039.664063 1404.285156 1056 1402.285156 M 442 1426 C 449.472656 1431.242188 456.472656 1438 462.191406 1445 C 463.308594 1446.390625 466.335938 1452 468.585938 1451.371094 C 471.589844 1450.636719 470.996094 1434.679688 471 1432 C 484 1438.324219 498.21875 1461.277344 502 1475 L 503 1475 C 503.601563 1464.726563 500 1454.320313 500 1444 C 512.585938 1452.761719 521.734375 1465 532 1476 C 531.476563 1473.832031 528.6875 1465 531.617188 1463.816406 C 536.332031 1462.136719 547 1470.683594 551 1473 C 570 1484.445313 588.605469 1497 604.996094 1512 C 658.253906 1561.175781 693 1635.410156 681 1709 C 677.464844 1731.082031 668.480469 1767.359375 646 1778 C 649 1764.601563 658 1753.335938 659.816406 1739 C 664.578125 1699.191406 644.472656 1655.054688 617 1627 C 621 1646 628.472656 1663.414063 630.816406 1683 C 636.203125 1728.035156 618.707031 1783.703125 572 1799.164063 C 560.402344 1803.003906 547.207031 1805 535 1805 C 544.328125 1784.042969 557.875 1768.257813 563 1745 C 574.710938 1693.484375 558.984375 1637.710938 533.226563 1593 C 523.65625 1576.394531 510.867188 1556.175781 495 1545 C 525.46875 1594 534.992188 1664.027344 525.433594 1721 C 520.734375 1749.011719 511 1776.464844 487 1793.699219 C 464 1810.066406 436.265625 1807.089844 410 1809 C 413.410156 1802.199219 418.980469 1797.652344 421.480469 1790 C 428 1769.757813 421.378906 1743.609375 415 1724 L 414 1724 C 414 1744.683594 413.207031 1770.441406 396.910156 1785.816406 C 390.742188 1791.632813 366.789063 1798.789063 361.621094 1787.5 C 359.394531 1782.632813 365.605469 1772.113281 366.628906 1767 C 369.625 1752.023438 371.628906 1735.296875 370.960938 1720 C 368 1655.515625 348 1591.832031 297 1549 C 301.378906 1558.253906 306.589844 1566 309.265625 1576 C 316.261719 1602.410156 313.242188 1630.019531 315 1657 C 317 1685.433594 321.78125 1713.117188 327.488281 1741 C 330.308594 1754.777344 331.585938 1772 325.441406 1785 C 323.96875 1788.128906 320.171875 1796.582031 316 1796.652344 C 311.875 1796.726563 309.582031 1787 308.398438 1784 C 302.519531 1769.304688 295.382813 1754.816406 290 1740 L 289 1740 C 289 1749.328125 291.527344 1765.761719 280.960938 1770.78125 C 268.242188 1776.820313 251.480469 1751.382813 246.578125 1743 C 230.367188 1715.273438 220.519531 1682.03125 218.960938 1650 C 218.296875 1636.335938 217.703125 1625 223 1612 C 211.585938 1618.261719 205.671875 1644.039063 202.769531 1656 C 194.875 1688.539063 193.210938 1724.367188 209.320313 1755 C 216.816406 1769.253906 227.886719 1780.0625 237 1793 C 224 1796.359375 207.773438 1792.28125 195 1789.425781 C 113.28125 1771.136719 81.527344 1669.566406 127 1603 C 94.332031 1616.742188 82.800781 1655.78125 77 1687 L 76 1687 C 72 1655.421875 77.339844 1627 95 1600 C 100.859375 1591.203125 109 1584.5 115 1576 C 105.875 1578.6875 99.84375 1586.09375 92 1591 C 100.261719 1569.519531 127.902344 1551.65625 149 1545 L 149 1544 C 137.46875 1544.007813 127.941406 1548.074219 117 1551 C 129.9375 1533.023438 157.21875 1526.261719 178 1525 L 178 1524 C 165.230469 1518.691406 153.863281 1516.425781 140 1519 C 156 1500.316406 186.535156 1503.109375 208 1506 C 198.894531 1495.507813 185.640625 1490.078125 172 1489 C 176 1483.539063 185.609375 1482.171875 192 1482.015625 C 208.964844 1481.597656 224.234375 1486.3125 240 1492 C 233.191406 1485.191406 218.167969 1477 215 1468 C 232.753906 1468.011719 254 1470.492188 269 1481 C 262.523438 1471.808594 252.90625 1464.152344 243 1459 C 238 1456.304688 230.332031 1455.4375 227 1451 C 257.527344 1451 279.707031 1460.363281 306 1475 C 298.730469 1464.640625 288.875 1454.707031 279 1446.808594 C 274.558594 1443.253906 268.785156 1441.144531 265 1437 C 290.589844 1437.527344 308.925781 1453.253906 330 1465 C 323 1451 311.878906 1440.605469 303 1428 C 323.90625 1429.332031 346.230469 1449 363 1460 C 359.804688 1445.09375 349.71875 1433.597656 344 1420 C 362.6875 1424.046875 375.902344 1445 388 1458 C 386.808594 1443.410156 380 1430.003906 374 1417 C 393.5 1420.769531 404.71875 1442.828125 418 1455 C 417.320313 1440.121094 411 1427.53125 406 1414 C 417.464844 1418.441406 426.609375 1431 432.945313 1441 C 433.851563 1442.441406 437.957031 1452.753906 439.625 1451.792969 C 445 1448.640625 440.890625 1431.117188 442 1426 M 1598 1414 C 1590.273438 1427.578125 1584.257813 1441.089844 1583 1457 L 1584 1457 C 1590.972656 1441 1610.886719 1422 1628 1417 C 1621.722656 1430.445313 1616 1443.316406 1613 1458 C 1628.71875 1445.019531 1637.542969 1426.589844 1658 1419 C 1652.777344 1433.261719 1643.847656 1446.769531 1638 1461 C 1657.855469 1447.179688 1676.617188 1433.621094 1700 1426 C 1697.324219 1431.308594 1691.988281 1435.296875 1688.289063 1440.003906 C 1682.214844 1447.722656 1677.214844 1456.675781 1672 1465 C 1693 1453 1713.328125 1436.546875 1739 1436 L 1739 1437 C 1721.207031 1445.414063 1708.621094 1460.378906 1695 1474 C 1723.394531 1461.097656 1745.171875 1451 1777 1451 L 1777 1453 C 1761.609375 1454.34375 1743.703125 1466.644531 1735 1479 C 1748.296875 1474.464844 1760.660156 1469.074219 1775 1469 C 1776.949219 1469 1786.546875 1467.046875 1787 1469.519531 C 1787.585938 1472 1783.46875 1474.398438 1782 1475.574219 C 1775.925781 1480.441406 1769.96875 1485.183594 1766 1492 C 1779.871094 1485.402344 1795.4375 1480.683594 1811 1482.171875 C 1818.324219 1483 1824.824219 1486 1832 1487 L 1832 1488 C 1818.75 1490.496094 1804.625 1494.757813 1796 1506 C 1812.171875 1501.722656 1831.394531 1503 1847 1509.089844 C 1852 1511.046875 1858.988281 1513.402344 1862 1518 C 1849.800781 1518 1836 1514.671875 1826 1524 C 1843 1524.140625 1861 1532 1875 1541.078125 C 1879.871094 1544.28125 1886.316406 1547.675781 1889 1553 C 1877.441406 1547.359375 1867 1543.007813 1854 1543 L 1854 1545 C 1860.839844 1545.703125 1866.246094 1550.128906 1872 1553.601563 C 1887.347656 1563 1906.65625 1575.828125 1912 1594 L 1911 1594 C 1905 1585.613281 1896.984375 1578.753906 1887 1576 C 1905.507813 1599.210938 1923.335938 1620.382813 1927.699219 1651 C 1929.3125 1662.328125 1928 1673.640625 1928 1685 L 1927 1685 C 1916.753906 1651.285156 1907.375 1621.578125 1875 1602 C 1882.867188 1619.675781 1892.808594 1633.800781 1894.828125 1654 C 1899.808594 1703.808594 1881.304688 1756.078125 1834 1779.730469 C 1812 1790.6875 1788.179688 1794 1764 1794 C 1771.371094 1779.433594 1786 1768.269531 1793.628906 1753 C 1810.40625 1719.363281 1808 1677.535156 1795.414063 1643 C 1791.585938 1632.5 1787.871094 1618.351563 1779 1611 C 1784.34375 1624.117188 1783.644531 1637.195313 1783 1651 C 1781.785156 1679.632813 1774.414063 1707.335938 1761.5 1733 C 1755.199219 1745.519531 1747 1760.25 1735 1768.125 C 1714 1781.789063 1711.921875 1752.660156 1713 1739 L 1712 1739 C 1705.792969 1754 1700.5 1769 1694.550781 1784 C 1693.390625 1787 1690.554688 1797.792969 1686.660156 1797.792969 C 1681.855469 1797.792969 1678.472656 1789.539063 1676.835938 1786 C 1670 1771.40625 1672 1756.355469 1674.300781 1741 C 1678 1715.019531 1684 1689.265625 1685.910156 1663 C 1688.570313 1624.179688 1683 1582 1706 1548 C 1691.789063 1555.40625 1679.933594 1573.019531 1671 1586 C 1641.273438 1629.355469 1630.996094 1678.246094 1631 1730 C 1631 1743.25 1632.828125 1757.25 1636.449219 1770 C 1637.671875 1774.308594 1642.703125 1783.316406 1640.683594 1787.605469 C 1635.582031 1798.425781 1611.300781 1792.722656 1605 1786.816406 C 1588.929688 1771.429688 1587.574219 1745.601563 1588 1725 C 1583.210938 1729.5625 1582.910156 1737.753906 1581.5 1744 C 1578 1759 1575 1777.1875 1580.542969 1792 C 1582.75 1798.046875 1587.363281 1802.3125 1590 1808 C 1564.574219 1808.015625 1536.980469 1808.695313 1515 1793.214844 C 1491.796875 1777 1480.570313 1748.195313 1476.714844 1721 C 1468.601563 1663.808594 1476.542969 1594.355469 1507 1545 C 1496.367188 1553.675781 1488 1565.109375 1479.769531 1576 C 1445 1621.746094 1426 1690.226563 1439.234375 1747 C 1444.480469 1769.613281 1457.933594 1784.632813 1467 1805 C 1454.324219 1805 1439.960938 1803.464844 1428 1799.113281 C 1360.628906 1774.585938 1365.722656 1679.507813 1388 1626 C 1359.523438 1648.097656 1338.558594 1696 1342.171875 1732 C 1343.886719 1749.160156 1350.734375 1762.417969 1357 1778 C 1348.402344 1774 1341.28125 1763.117188 1336.730469 1755 C 1323.617188 1731.617188 1320 1706.390625 1320 1680 C 1320 1586.589844 1386.59375 1496.554688 1473 1462 C 1472.960938 1466.566406 1472 1470.578125 1471 1475 C 1481.40625 1464.136719 1490.390625 1451.449219 1504 1444 C 1503 1454.019531 1498.875 1464 1499 1474 C 1508.535156 1459 1516.234375 1439.6875 1533 1431 C 1532.375 1434.132813 1528.96875 1450.148438 1533.316406 1451.367188 C 1535 1452 1538.882813 1445.171875 1539.875 1444 C 1545.632813 1437.21875 1552.574219 1431 1560 1426 C 1560.65625 1435.808594 1559.535156 1444.003906 1562 1454 C 1571.484375 1439.707031 1578.984375 1419 1598 1414 M 1319 1430 L 1319 1432 L 1322 1432 L 1322 1430 L 1319 1430 M 1228 1438.742188 C 1212.253906 1444.789063 1221.628906 1469.300781 1236.984375 1463 C 1251.523438 1457.015625 1243.785156 1432.679688 1228 1438.742188 M 763 1439.65625 C 747.90625 1444.203125 753.523438 1469.121094 769 1464.347656 C 784.386719 1459.597656 778.648438 1435 763 1439.65625 M 1612 1458 L 1613 1459 L 1612 1458 M 330.332031 1465.667969 C 330.277344 1465.722656 330.222656 1466.777344 330.667969 1466.332031 C 330.722656 1466.277344 330.777344 1465.222656 330.332031 1465.667969 M 803.316406 1474.027344 C 797.71875 1477.753906 803.714844 1487.542969 809.582031 1483.128906 C 815.753906 1478.476563 809.78125 1469.726563 803.316406 1474.027344 M 1191.277344 1474.03125 C 1185 1478 1191.613281 1487.570313 1197.605469 1483.816406 C 1204 1479.769531 1197.539063 1470.160156 1191.277344 1474.03125 M 1027 1648 C 1033.503906 1651.296875 1036.984375 1658.75 1043 1663 L 1038 1650 C 1046.710938 1653 1053.476563 1661.019531 1062 1665 C 1059 1660.527344 1056 1656 1054 1651 C 1064 1655.359375 1071.816406 1665 1080 1672 C 1078.585938 1667.085938 1075.960938 1662.707031 1074 1658 C 1094.976563 1666.066406 1119.589844 1683.761719 1136 1699.023438 C 1141.652344 1704.28125 1148.894531 1708.722656 1152 1716 C 1134 1707.816406 1118.335938 1694 1100 1686 C 1116.175781 1702.46875 1137.882813 1722.824219 1146 1745 L 1145 1745 C 1132.71875 1727.578125 1108.546875 1713 1091 1701 C 1104.714844 1723 1118.992188 1742 1127 1767 C 1120.386719 1762 1116 1753.367188 1110.574219 1747 C 1099.789063 1734.445313 1088.414063 1722 1076 1711 C 1083.484375 1731.597656 1101.335938 1756.015625 1099 1779 L 1098 1779 C 1096.414063 1771.667969 1091.613281 1765.382813 1087.859375 1759 C 1079.960938 1745.558594 1071.179688 1727 1059 1717 C 1067.726563 1738.273438 1071.746094 1761.042969 1070 1784 L 1069 1784 C 1065.710938 1766.34375 1058.648438 1739.609375 1045 1727 C 1049.949219 1748.644531 1045.449219 1768.417969 1045 1790 L 1043 1790 C 1042.984375 1772 1033.644531 1753.378906 1029 1736 L 1028 1736 C 1027.859375 1753.042969 1023.257813 1772.535156 1019 1789 L 1018 1789 C 1017.953125 1772.832031 1013.957031 1755 1011 1739 L 1010 1739 C 1009.535156 1749.832031 1006.761719 1760.453125 1004.511719 1771 C 1003.570313 1775.394531 1003.964844 1780.234375 1000 1783 C 999.875 1769.015625 995.566406 1752.824219 993 1739 L 992 1739 C 988.851563 1755.238281 984 1772.40625 984 1789 L 983 1789 C 978.28125 1770.769531 978.511719 1751.3125 974 1733 L 973 1733 C 972 1752.261719 960.59375 1770.488281 959 1790 L 957 1790 C 956 1769.390625 956.816406 1749.460938 957 1729 C 944.21875 1741.609375 935.265625 1767.464844 933 1785 L 932 1785 C 931.195313 1761.796875 935 1737.113281 945 1716 C 932.613281 1725.558594 923 1744.628906 915 1758 C 911.859375 1763.53125 909.230469 1772.203125 904 1776 C 905.96875 1753.414063 918.433594 1732.828125 926 1712 C 913.246094 1721.46875 902.320313 1734.8125 892.25 1747 C 887.609375 1752.613281 883.273438 1761.300781 877 1765 C 879.726563 1749.15625 890 1731 899.429688 1718 C 903.695313 1712.042969 909.917969 1706.59375 913 1700 C 894.96875 1713.355469 878.222656 1729.164063 860 1742 C 865.242188 1719.140625 889 1704 902 1686 C 886.464844 1695.542969 869.515625 1707.648438 853 1715 C 856.21875 1706.695313 864.265625 1700.738281 871 1695.261719 C 887.355469 1682 907.527344 1668.1875 927 1660 C 925.917969 1664.289063 923.730469 1668 922 1672 C 931.519531 1665.296875 938.726563 1655.136719 950 1651 L 941 1666 C 949.171875 1661 956.371094 1653.171875 965 1649 C 963.410156 1654.40625 959.699219 1658.660156 958 1664 C 965.410156 1659 971.882813 1651 980 1647 C 978.980469 1651 976.636719 1654.253906 975 1658 C 981.988281 1655.292969 985.914063 1648.410156 993 1646 L 992 1653 C 996.464844 1650.046875 1002.515625 1642.488281 1007.960938 1642.019531 C 1012.203125 1641.652344 1033.527344 1665.113281 1027 1648 M 781 1656 C 780.230469 1657.3125 780.3125 1657.230469 779 1658 C 779.546875 1656.363281 779.363281 1656.546875 781 1656 M 115 1891 L 115 1893 C 233.738281 1902.382813 352.699219 1901 472 1901 C 608.660156 1901 745.589844 1901.597656 882 1901 C 1083.925781 1900.117188 1286 1901 1488 1901 C 1597.21875 1901 1706.980469 1903.734375 1816 1899 C 1839.375 1898 1862.648438 1894.003906 1886 1893 L 1886 1891 C 1841 1891 1795.988281 1885.21875 1751 1885 C 1253.375 1882.601563 755.628906 1884.199219 258 1885 C 210.339844 1885.078125 162.636719 1891 115 1891 M 250 1926 C 288 1926 325.925781 1929.054688 364 1930 C 445.921875 1932 528 1931.023438 610 1932 C 829.25 1934.605469 1048.734375 1932.351563 1268 1932 C 1318.308594 1932 1368.679688 1930 1419 1930 C 1491.261719 1930 1563.765625 1931.753906 1636 1930 C 1674.359375 1929.046875 1712.578125 1926 1751 1926 L 1751 1924 C 1494.433594 1922 1237.738281 1924 981 1924 C 906.398438 1924 831.496094 1922.117188 757 1923.003906 C 726.984375 1923.359375 697 1923 667 1923 C 654.464844 1923 641.425781 1924.761719 629 1924 C 569.8125 1920 509.367188 1923 450 1923 L 371 1923 C 358.894531 1923 347 1921.28125 335 1922.714844 C 314.535156 1925.128906 292.613281 1923 272 1923 C 266.328125 1923 253.539063 1921.050781 250 1926 "/></g></svg>