<svg xmlns="http://www.w3.org/2000/svg" viewBox="0 0 100 100"><g transform="translate(1.0929153224657213, 1) scale(0.3180299916899358) translate(0.0027202180125840414, 0.8165905132225255)"><path d="M207.62,252.5c0-4.3.07-8.61,0-12.9a14.24,14.24,0,0,0-.9-4.86,2.21,2.21,0,0,0-3-1.31,2.47,2.47,0,0,0-1.79,2.36c-.23,4-.45,8-.92,11.91-1.15,9.55-1.55,19.16-3.35,28.65-1.12,5.87-2,11.73-4.64,17.15a86.63,86.63,0,0,1-4.85,8.81,9.21,9.21,0,0,1-6.7,4.41,9,9,0,0,1-9.66-5.51c-2.88-6.28-4.93-12.85-4.85-19.83a108.87,108.87,0,0,0-4.59-32.53c-4.38-14.78-13-26.2-26.37-33.92-2.64-1.52-5.43-2.81-8.2-4.11-15-7-30.41-1.08-37.65,12.54a52.54,52.54,0,0,0-6.28,21.87c-.4,7.19-.24,14.43-1,21.58-1,10.21-3.15,20.23-7.76,29.52A25.59,25.59,0,0,1,71.23,302c-4.43,4.93-10.45,5.25-15.53,1a31.43,31.43,0,0,1-7.13-9.51c-4.72-8.69-7.57-18.06-9.79-27.6a304.23,304.23,0,0,1-5.84-36.18,299.77,299.77,0,0,1-1.55-41.82,167.39,167.39,0,0,1,2.45-26c.39-2.07.22-3.54-2-4.91-5.43-3.31-9.57-8.14-13.44-13.12A82.45,82.45,0,0,1,1.64,104.07,146.26,146.26,0,0,1,0,82.55a96.18,96.18,0,0,1,21-60c6.16-7.89,13-15,22.38-19.42A29.81,29.81,0,0,1,63.87.9C69.07,2.19,73.79,8,74.66,13.19c1.69,10.07-1.79,18.41-8.54,25.46C59,46.08,51.39,53,44.17,60.35,37.38,67.22,32.11,75.1,30.74,84.9,29.5,93.84,30.08,102.72,34,111c2.34,5,5.25,9.68,8,14.44,1,1.76,1.33,1.65,2.32-.1,3-5.32,5.73-10.85,9.13-15.91,15.21-22.68,35.6-38.63,62-46.5a104.66,104.66,0,0,1,28-4.35c31.41-.67,58.7,10,82.9,29.5,3.34,2.69,6.67,5.41,9.78,8.36a6.9,6.9,0,0,0,5.35,2c5.2-.11,10.42-.36,15.56.88,1.62.39,3.47.32,4.86,1.09,2.31,1.29,3.58.2,5.21-1.16a69.48,69.48,0,0,1,8.13-6c6.59-4,10.29-2.8,13.44,4.21,1.91,4.25,2.29,8.84,2.7,13.4.35,4,.49,8,1.05,11.89.16,1.17,1.28,2.34,2.21,3.26a37.91,37.91,0,0,1,9.83,16.33c3.09,10.07,1.11,19.39-3.83,28.24-5.31,9.51-13.33,16.36-22.7,21.66a64.86,64.86,0,0,1-10.39,4.83c-8.39,2.92-17.14,3-25.88,2.43-4.11-.28-8.2-.91-12.27-1.55-6.33-1-12.63-2.14-19-3.24-.6-.1-1.18-.34-1.78-.42-1.32-.16-2.59.11-2.94,1.55s.71,1.94,1.79,2.29a53.7,53.7,0,0,0,7.88,2.33c7.7,1.18,15.44,2.14,23.18,3.05,3.79.45,7.62.65,11.44.85,1.43.08,1.86.72,1.79,2-.29,5.2-.41,10.41-.86,15.6-.51,5.93-1.12,11.87-2,17.75-2.19,14.36-5.38,28.49-11.4,41.8a41.31,41.31,0,0,1-8.07,12.21c-3.74,3.8-10.7,4.65-14.73-1.13a33.35,33.35,0,0,1-4.53-10.45C207.44,272.43,207.1,262.49,207.62,252.5Zm21.86-108.68c-.62-10.3-7.28-20.06-20.27-20.1-13.91,0-20.57,10.63-20.54,20.6,0,9.06,7.51,20.13,20.33,20.07C220.58,164.35,229.14,155.11,229.48,143.82Zm34,23.8c9,.83,20.4-7.09,20.44-19.73a20.13,20.13,0,0,0-19.46-19.95c-11.71-.39-20,10.85-20.2,19.8C244,159.07,254.21,168.23,263.44,167.62Z"/><path d="M87.68,254.52c.75-10.14,1.42-20.71,7-30.1,5-8.28,12.27-12.56,22-12.65a10.63,10.63,0,0,1,1.38.07c1.8.22,2.19.76,1.57,2.38-1,2.56-2.19,5-3,7.64a84.91,84.91,0,0,0-3.39,16c-1.36,11.19-.2,22.39-.79,33.56a32.74,32.74,0,0,1-4.55,15.65c-4.17,6.86-11.32,7.18-16,.64a11.51,11.51,0,0,1-2.57-6.24c-.42-8.25-1.1-16.49-1.67-24.73C87.65,256.14,87.68,255.52,87.68,254.52Z"/><path d="M209.47,158.36c-6.46.69-14.64-5-14.88-14.3-.16-6.15,5-14.64,14.55-14.9C216.86,129,224,136,224,143.79,223.94,151.35,218.34,158.55,209.47,158.36Z"/><path d="M264.25,162a14.24,14.24,0,0,1-14.34-14.28c.06-8,6.14-13.38,14.33-13.51,7.37-.12,13.8,5.43,14.07,13.94C278.56,156,272.22,162,264.25,162Z"/></g></svg>