<svg xmlns="http://www.w3.org/2000/svg" xmlns:xlink="http://www.w3.org/1999/xlink" viewBox="0 0 100 100" version="1.1"><g transform="translate(21.60871216601569, 1) scale(0.05325544271983154) translate(-473.972656, -63.074219)"><path style=" stroke:none;fill-rule:nonzero;fill:rgb(0%,0%,0%);fill-opacity:1;" d="M 505 66.652344 C 495.1875 69.773438 498 83 498 91 L 498 482 C 498 665.660156 497.582031 849.363281 497.570313 1033 C 497.566406 1122.375 501.554688 1212.644531 497.832031 1302 C 497.457031 1311 488.765625 1320.082031 484.863281 1328 C 477.914063 1342.105469 474 1358.234375 474 1374 C 473.972656 1391.730469 477.84375 1409.085938 485.808594 1425 C 489.585938 1432.546875 497.804688 1440 499.863281 1448 C 500.898438 1452.050781 498 1459.308594 498 1464 L 498 1868 C 498 1875.785156 494.777344 1889.050781 499.894531 1895.65625 C 505.785156 1903.261719 522.613281 1899 531 1899 L 590 1899 C 596.710938 1899 607.921875 1901.125 613.890625 1897.683594 C 618.90625 1894.789063 618.976563 1888.089844 619 1883 C 619.257813 1829.667969 619 1776.332031 619 1723 L 619 1530 C 619 1522.113281 615.605469 1504 620 1497.316406 C 622.535156 1493.5625 630 1495 634 1495 C 646.4375 1495 658 1493.371094 670 1490 C 672.714844 1489.058594 681.484375 1484.027344 683.398438 1487.421875 C 686.476563 1493 684 1505.765625 684 1512 L 684 1869 C 684 1876.117188 681.628906 1888.550781 685.179688 1895 C 688.546875 1901 695.421875 1899.148438 701 1899.015625 C 712.984375 1898.726563 725 1899 737 1899 C 741.832031 1899 748.410156 1900.136719 752.984375 1898.398438 C 762 1895 759 1879.582031 759 1872 L 759 1447 C 759 1441 762.808594 1426.746094 759.398438 1421.660156 C 757.195313 1418.382813 747 1427.546875 745 1429 C 730.625 1438.753906 713.777344 1446 697 1450.265625 C 651.664063 1462.21875 598 1462.023438 557 1437 C 530.355469 1420.777344 510 1390.195313 517 1358 C 533 1284 622.664063 1282.730469 681 1296 C 699.851563 1300.128906 720.617188 1305 740 1305 C 744.6875 1305.023438 755.882813 1308.097656 758.257813 1303 C 761 1296.636719 759 1285.746094 759 1279 L 759 86 C 759 79.386719 761 71.007813 753.957031 67.179688 C 749.554688 65 742.828125 66 738 66 L 701 66 C 695.425781 66 688.300781 65.28125 685.179688 71.054688 C 682.699219 75.640625 684 83 684 88 L 684 1254 C 684 1256.582031 685.519531 1268.441406 681.425781 1268.402344 C 676.894531 1268.363281 670.210938 1262.722656 666 1261 C 656.476563 1256.652344 646.335938 1254.277344 636 1253.164063 C 632.257813 1252.765625 622.507813 1253.527344 620 1250.398438 C 617.222656 1247 619 1237.320313 619 1233 L 619 93 C 619 86.496094 620.730469 77 617.542969 71.054688 C 613.230469 63.074219 598.554688 66 591 66 L 533 66 C 524.476563 66 513.167969 64.058594 505 66.652344 M 1049 591 C 1061 588.597656 1073.429688 577 1085 572 C 1108 561.621094 1133.769531 557 1159 557 L 1159 558 C 1119.691406 568.425781 1080.203125 580.824219 1047 605.476563 C 1039 611.375 1031.429688 617.445313 1025 625 C 1022.9375 627.429688 1019 631.136719 1019.542969 634.683594 C 1019.90625 638.074219 1025 636.523438 1027 636 C 1034.414063 633.566406 1041.613281 630.460938 1049 628 C 1068.484375 621.507813 1092 612.691406 1113 615.578125 C 1121.925781 616.816406 1131.820313 619.476563 1136.582031 628.015625 C 1142 638 1136.609375 649.238281 1127 654.164063 C 1113 661.304688 1095 659.394531 1080 660.828125 C 1076.980469 661.117188 1057 659.417969 1058.75 665 C 1060.222656 670 1070.941406 674.484375 1075 677.425781 C 1086.394531 685.6875 1097.433594 696 1106 707 C 1138.363281 748.238281 1153.996094 803 1154 855 C 1154 867.164063 1157.992188 888 1152.542969 899 C 1143.535156 917.195313 1123 933.832031 1107 945.421875 C 1047 988.386719 964.351563 992.574219 894 981 C 867.660156 976.558594 841.644531 970.644531 817 960.148438 C 812 958.089844 795.898438 947.792969 795 957.019531 C 794.355469 964.730469 791.9375 984.371094 796.742188 990.660156 C 801.839844 997.328125 815.476563 999.34375 823 1002.191406 C 850 1012.429688 879.417969 1017.320313 908 1020.714844 C 917.238281 1021.8125 931.679688 1019.769531 939.984375 1024.027344 C 948 1028.183594 954.507813 1041 959.988281 1048 C 1002.480469 1103 1030.222656 1164.5625 1036.828125 1234 C 1039 1258.007813 1036.320313 1283.4375 1031.804688 1307 C 1030.980469 1311.300781 1024.738281 1330 1028 1333 C 1030.316406 1335.023438 1034.335938 1331.410156 1035.785156 1330 C 1040.8125 1324.632813 1043.785156 1316.703125 1046.316406 1310 C 1056.777344 1282.257813 1058 1253.296875 1058 1224 C 1058 1173 1037.460938 1119.648438 1010.304688 1077 C 998.230469 1058.035156 981.816406 1042 970 1023 C 976.960938 1023 989.894531 1019.140625 996 1022.042969 C 1008.289063 1028 1020 1045.796875 1028.871094 1056 C 1060.445313 1092.738281 1084.949219 1137.460938 1098.574219 1184 C 1103.511719 1201 1107.375 1217.765625 1110.800781 1235 C 1111.648438 1239.261719 1111.492188 1250.382813 1115.472656 1253 C 1121.570313 1256.785156 1123.820313 1239.132813 1123.960938 1236 C 1124.839844 1216.078125 1123.304688 1196.371094 1118.527344 1177 C 1107.386719 1132 1086.230469 1091 1058 1054 C 1048 1041 1034.421875 1030.371094 1025 1017 C 1086.8125 1012 1149.480469 970.21875 1183.328125 920 C 1192.394531 906.550781 1200.203125 892 1206.574219 877 C 1209.523438 870.085938 1211.652344 857.71875 1217.300781 852.648438 C 1221.949219 848.480469 1230.238281 847.359375 1236 845.308594 C 1247.765625 841.117188 1259.511719 836.476563 1271 831.574219 C 1302.914063 818 1333.835938 800.089844 1362 780 C 1389 760.386719 1414.964844 739 1438.714844 715.574219 C 1443 711.234375 1461.167969 696.730469 1458.824219 690.003906 C 1457.222656 685.410156 1450.601563 681.433594 1447 678.433594 C 1435.546875 669 1423.429688 660.195313 1411 652.003906 C 1372.546875 626.664063 1331.515625 606.140625 1288 591.078125 C 1273.921875 586.203125 1259.5 582.320313 1245 579 C 1239 577.464844 1229.285156 577.558594 1224.226563 574.0625 C 1220.765625 571.667969 1220.386719 566.726563 1219.277344 563 C 1216.792969 554.621094 1214 546.28125 1211.332031 538 C 1202.199219 511 1189.183594 485.089844 1173.78125 461 C 1153.730469 429.636719 1127.507813 400.609375 1098 378 C 1086.671875 369.164063 1074.984375 361.128906 1063 353.34375 C 1058 350.144531 1050.257813 347.617188 1046.742188 342.785156 C 1043.363281 338.148438 1045 329.4375 1045 324 C 1044.980469 311.113281 1043.792969 298 1042.910156 285 C 1039.347656 233 1028.878906 180.140625 1011.21875 131 C 1007 119.421875 1002.441406 108.175781 997.308594 97 C 995.285156 92.59375 993.285156 85.671875 988.675781 83.222656 C 982.53125 80 968 91.414063 963 94.691406 C 939.566406 109.777344 916.929688 126.425781 896 145 C 870.867188 167 847.417969 190.199219 824.925781 215 C 815.605469 225.273438 800.988281 237.769531 796 251 C 792.65625 260.480469 795 274 795 284 L 795 405 C 795 410.386719 793.785156 421 796.347656 425.683594 C 798.511719 429.679688 807.21875 428 811 428.285156 C 825.558594 430.003906 839 432.285156 853 437.078125 C 885.660156 448.320313 912.277344 472.554688 930.996094 501 C 937.253906 510.507813 941.769531 520.820313 946.753906 531 C 947.894531 533.324219 950 541 953.824219 539.652344 C 959.464844 537.769531 958.78125 521.769531 959.425781 517 C 961.984375 498 960.378906 473.273438 969.492188 456 C 973.648438 448.125 983 438.738281 993 442.1875 C 1003.527344 446 1007.519531 459 1007.960938 469 C 1009 492.816406 1003 519.574219 995.304688 542 C 992.445313 550.285156 989.222656 558.507813 987 567 C 986.371094 569.464844 985 574.0625 988.316406 575.34375 C 996.855469 578.710938 1009.175781 560 1014 555 C 1030.640625 538.164063 1046.808594 513.195313 1069 503.347656 C 1078.992188 499 1089.210938 504.292969 1087.816406 516 C 1086.3125 528.613281 1075.773438 540.730469 1069 551 C 1061.40625 562.523438 1051.453125 577.230469 1049 591 M 979 288 C 973.558594 285.023438 970.550781 278.359375 965.996094 274.089844 C 954.910156 263.691406 939 260 925 266.3125 C 906.425781 274.6875 893.804688 293 884 310 C 880.683594 315.804688 878 329.332031 872.582031 333 C 868.195313 336 857.226563 333 852 333 C 847.792969 333 837 335.441406 833.648438 333.382813 C 830.660156 331.589844 835.757813 323.191406 836.730469 321 C 842.566406 308 850 295.410156 857.28125 283 C 876.382813 250.109375 901 220.742188 928 194 C 934.527344 187.507813 941.609375 181.390625 949 176 C 951.34375 174.152344 955.402344 170.472656 958.582031 172.136719 C 962.765625 174.324219 963.824219 184.824219 964.871094 189 C 968.9375 205.183594 971.578125 221.550781 974.246094 238 C 976.90625 254.402344 979 271.390625 979 288 M 1046 426 C 1046 466.003906 1033.761719 496.328125 1013 530 L 1012 530 C 1016.753906 510 1028.339844 490.773438 1034.65625 471 C 1039.183594 456.824219 1039.628906 439.230469 1046 426 M 846 656 C 838.417969 666.730469 825 674 813 678.320313 C 808.835938 680 797.203125 681.402344 795.710938 686.125 C 793.65625 692.632813 804.894531 690.15625 808 689.828125 C 821 688.453125 834.527344 683 846 676.6875 C 876.945313 659.695313 901 628.019531 907.386719 593 C 916 544.359375 892.484375 495.613281 848 473.757813 C 836.558594 468.132813 824.480469 466.234375 812 464.574219 C 807.984375 464.042969 800.929688 462.617188 797.316406 465.027344 C 793 468 795 478.542969 795 483 L 795 630 C 795 636.269531 791.644531 658 796.742188 662 C 799 664 804.167969 663.203125 807 663.574219 C 820.570313 665.355469 833.382813 660.113281 846 656 M 859 550.300781 C 884.886719 546.484375 889.996094 587.320313 865 591.671875 C 838.675781 596.253906 832 554.265625 859 550.300781 M 1015 712.425781 C 984.496094 716.28125 958.960938 724.238281 938.324219 749 C 877.613281 822 944.945313 938.308594 1037 927 C 1111.589844 917.554688 1132.574219 824.148438 1103.496094 766 C 1087.667969 734.339844 1052 707.726563 1015 712.425781 M 813 734.742188 C 795.765625 741.679688 807 775.539063 804.773438 789 C 803.804688 794.457031 798.980469 798 797 803 C 795.722656 806.261719 793.878906 820.734375 796.691406 823.207031 C 800.296875 826.375 808.550781 818 810.910156 815.710938 C 815.21875 811.6875 818.824219 805.011719 825 803.660156 C 839 800.574219 854.808594 811.691406 868.996094 805.46875 C 881.523438 800 876.808594 785.210938 871.570313 776 C 862.851563 760.667969 850.546875 747.421875 835 739 C 828.945313 735.53125 819.976563 732 813 734.742188 M 943 870 C 958.585938 876 971.617188 883.277344 989 883.742188 C 1025.519531 884.714844 1059.761719 856.011719 1064.867188 820 C 1065 818.074219 1066.480469 813.621094 1064.355469 812.328125 C 1059 809.160156 1050.578125 814 1044 809.347656 C 1028.40625 798.414063 1034.453125 775.195313 1052 770.761719 C 1083.621094 762.773438 1088.230469 813.144531 1087.996094 833 C 1087.414063 882 1039 915.214844 993 906.386719 C 974 902.746094 949.273438 889.65625 943 870 M 827 814.046875 C 819.492188 818.101563 818 835.460938 818 843 C 817.878906 868.359375 834 895 862 895 C 867.816406 895.007813 873.863281 895 878.890625 891.519531 C 882.316406 889.21875 885.539063 881.277344 881.398438 878.027344 C 878.71875 876 874 877.792969 871 877.625 C 865.347656 877.316406 859.835938 875.519531 855 872.546875 C 836.707031 861.179688 835.167969 839.234375 833.957031 820 C 833.722656 816.3125 831.652344 811.644531 827 814.046875 M 890.691406 1030.242188 C 887.839844 1032 891.261719 1039.746094 892 1042 C 895.738281 1053.367188 900 1064.507813 903.425781 1076 C 915.523438 1117.363281 921.878906 1159 917 1202 C 915.953125 1211.785156 913.867188 1221.34375 912 1231 C 911.625 1233 909.953125 1239.75 914 1238.503906 C 926.335938 1235 931.285156 1209.511719 933.398438 1199 C 941.574219 1158.363281 937.453125 1111.28125 921 1073 C 915.847656 1060.554688 909.6875 1049 901.703125 1038 C 899.964844 1035.609375 894.597656 1028 890.691406 1030.242188 M 917 1033.082031 C 913.691406 1036.089844 920.652344 1048 922 1051 C 929.648438 1069 938.960938 1086 946.199219 1104 C 969.257813 1161.464844 976.589844 1217.730469 969 1279 C 967.472656 1293 963.941406 1306.589844 960 1320 C 959.230469 1323.203125 955.296875 1334.832031 963 1330.238281 C 979 1320.628906 985.492188 1290 988.996094 1273 C 1001 1215 992.929688 1153.472656 967.703125 1100 C 958.613281 1080.730469 947.75 1061.140625 933.710938 1045 C 931.566406 1042.535156 921 1029.464844 917 1033.082031 M 795 1164 C 795 1179.046875 792 1197.332031 795.527344 1212 C 798.414063 1224.582031 806.523438 1236.640625 810.644531 1249 C 818.230469 1271.75 821 1295.15625 821 1319 C 820.96875 1338.238281 816 1358.351563 808.574219 1376 C 804.84375 1384.722656 796.648438 1393.617188 795.214844 1403 C 791.761719 1425.582031 795 1451.136719 795 1474 L 795 1727 C 795 1735.476563 794.894531 1744 795.269531 1752.425781 C 795.34375 1754.054688 794.339844 1760.578125 797.28125 1760.078125 C 800.382813 1759.550781 802.664063 1755.203125 804.460938 1753 C 810 1746.160156 815.21875 1739.230469 820.28125 1732 C 841.433594 1701.777344 860 1670.070313 871.996094 1635 C 893 1573.226563 896.949219 1506.285156 880.265625 1443 C 875.886719 1426.390625 870.214844 1409.484375 862.742188 1394 C 858.453125 1385.113281 849.613281 1373.363281 848.957031 1363.425781 C 848.496094 1356.492188 851 1349 851.828125 1342 C 853 1328.789063 853.542969 1315.285156 852.960938 1302 C 851.546875 1269.726563 839.597656 1238 826 1209 C 819.953125 1196 808.457031 1170.414063 795 1164 M 1267 1251.425781 C 1230 1256.265625 1196.925781 1261 1164 1280.605469 C 1087 1326.425781 1050.574219 1423.617188 1082.425781 1508 C 1103.652344 1564.242188 1158 1607 1219 1607 C 1241.628906 1607 1264.25 1601.523438 1282 1586.675781 C 1299.296875 1572.203125 1311.605469 1552 1312.789063 1529 C 1314.25 1500.792969 1294.386719 1472.503906 1266 1468.429688 C 1255 1467 1244.761719 1469.367188 1235 1474.246094 C 1223.53125 1480 1214.230469 1488.34375 1201 1482.082031 C 1194.710938 1479.105469 1189.425781 1473.78125 1185.699219 1468 C 1165.171875 1436.144531 1187 1398.773438 1214 1379.558594 C 1280 1332.527344 1369.820313 1383.113281 1393.65625 1452 C 1420.347656 1529.144531 1383.191406 1599.808594 1329 1654 C 1233.820313 1749.171875 1088.890625 1788.230469 958 1794 C 921.476563 1795.558594 884.394531 1794.472656 848 1790.832031 C 835.945313 1789.625 823.996094 1787.667969 812 1786 C 807.683594 1785.398438 801.605469 1783 797.316406 1784.320313 C 792.53125 1786 795 1804.65625 795 1809 L 795 1876 C 795 1880.511719 793.824219 1895.054688 798.316406 1897.410156 C 803.304688 1900.027344 810.597656 1898.71875 816 1899.089844 C 828.625 1900 841.324219 1901 854 1901 C 896 1901.015625 937.984375 1903 980 1900.089844 C 1130.863281 1889.757813 1287 1846.03125 1399 1739.039063 C 1444 1696 1480.921875 1646.171875 1499.972656 1586 C 1540.203125 1459 1478 1310 1349 1264.308594 C 1324.515625 1255.644531 1293 1248.007813 1267 1251.425781 "/></g></svg>