<svg xmlns="http://www.w3.org/2000/svg" viewBox="0 0 332.04 320.35"><path d="M290.32,92c-14.78,0-28.56-3.94-41.75-10.41-7.09-3.48-14.17-7-21.81-9.22a30.59,30.59,0,0,0-13.2-.53c-4.41.62-7.59,3.82-10.07,7.43a54.63,54.63,0,0,0-2.75,5.26c-.76,1.4-.41,2.11,1.06,2.81,3.59,1.71,7.15,3.52,10.58,5.52a63.66,63.66,0,0,1,19.67,18.46,97.11,97.11,0,0,1,12.64,23.84,68.78,68.78,0,0,1,3.4,18c.43,5.66.25,11.36.25,17.05,0,10.49-2.06,20.69-4.81,30.75-4.52,16.54-10.62,32.55-16.64,48.58-3.1,8.27-6.31,16.51-7.83,25.27a14.47,14.47,0,0,0-.32,3.64c.45,5.33,1.11,10.65,1.5,16,.29,4,.41,8,.35,11.95a10.06,10.06,0,0,1-3.22,6.9c-7.54,7.75-17.56,6.66-25.53,1.07-5.87-4.11-9.27-10.16-11.44-16.82-.68-2.08-.18-4.55-.21-6.84s0-4.86-.06-7.29c-.26-10.13-.88-20.26-.74-30.38.16-11,.57-22.1,1.67-33.08s2.14-21.9,5.27-32.53a71.56,71.56,0,0,1,6.44-14.63,20.36,20.36,0,0,1,1.18-2c.86-1.21,1.54-2.88.36-3.72-1.47-1-2.3.86-3,1.83A60.17,60.17,0,0,0,180,194.6c-1.8,9.78-3,19.62-3.88,29.54-1.42,16.41-.63,32.84-.63,49.26,0,5.35.68,10.71.66,16.06a35.15,35.15,0,0,1-1.26,10c-2.83,9.41-9.41,15.74-18.19,19.54a15.94,15.94,0,0,1-13.35-.18A12.39,12.39,0,0,1,136,305.34a21.35,21.35,0,0,0,.47-2.71c.38-9.19,1.17-18.4,1-27.58a164,164,0,0,0-10-53.36,31.34,31.34,0,0,0-6.34-10.56c-.55-.59-1.34-1.7-2.23-.71-.49.54-.39,1.65-.47,2.51,0,.25.29.53.44.79,4.69,8.35,7.27,17.47,9.35,26.71,1.92,8.49,3.8,17,3.93,25.78.07,4.9.4,9.8.84,14.68.27,3-.9,5.35-2.68,7.56a28.38,28.38,0,0,1-22.79,11,20.14,20.14,0,0,1-6.78-.71c-5.34-1.88-7.91-6.55-7.15-12.44a62.93,62.93,0,0,1,1.69-9.48c3.16-10.83,2.24-21.54-.66-32.19s-6.1-21.15-9-31.77a154.86,154.86,0,0,1-5.38-30.2c-.58-8.86-1.22-17.75-1.13-26.61,0-4.17,1.67-8.33,2.69-12.47.51-2.07,1.22-4.09,1.9-6.11.37-1.1.54-2.19-.58-2.86-1.44-.86-2.35.23-3,1.24a11.36,11.36,0,0,0-1.56,3.28c-1.3,4.86-2.6,9.71-3.65,14.62-.35,1.61-.94,2-2.41,1.85-3.5-.4-7-.65-10.52-1.1-8.79-1.14-17.74-1-26.35-3.55-7.73-2.3-13.72-6.62-17.52-13.82A51,51,0,0,1,12,113.33c0-.62,0-1.24,0-1.85A23.77,23.77,0,0,0,8.35,96.71c-4.28-6.92-6-15-8.09-22.76A14.81,14.81,0,0,1,0,70.74c-.2-5,2.35-7.28,7.36-6.34q4.93.91,9.81,2.17c6.45,1.65,6.41,1.67,10.73-3.23a75.68,75.68,0,0,1,21.17-16.7c5-2.68,10.16-5,15.33-7.27,1.78-.79,3-1.44,3.22-3.74a47.64,47.64,0,0,1,1.66-7.57,18.79,18.79,0,0,1,1.1-3.48c2.37-5.09,7.49-7.29,12.65-5a29.76,29.76,0,0,1,8.39,5.49c4.51,4.36,8.66,9.12,12.74,13.89a5.41,5.41,0,0,0,3.73,2.17C119.65,42.69,128,49,133,59.63a49.37,49.37,0,0,1,4.63,16.72c0,.45.08.92.15,1.37.19,1.24.62,1.84,2.13,1.43A45.89,45.89,0,0,1,146.2,78c5-.61,10-1.26,15.05-1.61a57.82,57.82,0,0,1,8.72.28c3.2.24,6.38.68,9.56,1,1.08.13,1.23-.57,1.33-1.37.2-1.67.35-3.35.65-5,1.6-8.56,6.63-14.74,13.91-19.08a56.87,56.87,0,0,1,26.16-7.65c13.59-.83,26.44,2.39,39.3,5.93,5.17,1.43,10.34,2.93,15.77,2.49a30.7,30.7,0,0,0,6.23-1.36c1.09-.32,1.33-1.21.35-2.05-3.74-3.18-7.46-6.38-11.24-9.51-3.54-2.91-7.45-5.39-10-9.41a22.39,22.39,0,0,1-3.66-15.32c.9-6.52,4.7-10.88,10.83-13.06,8.31-2.95,16.59-3.42,24.95.25,9.24,4.06,17.74,9,24.3,16.89C326.9,29.65,332.47,41,332,54.51a58.11,58.11,0,0,1-2,13.1C327.1,78.3,320,85.32,309.67,89,302.12,91.67,300.65,92,290.32,92ZM67.71,106.84c.43-12.9-11.19-19.94-19.82-19.64a20,20,0,0,0-19.37,20.32c.4,10.57,9.25,19.7,19.48,19.2C61.86,126,68.23,115.55,67.71,106.84Zm45.05-33c.48-10.17-8.86-19.28-19.36-19S73.6,63,73.75,74.16c.12,9.64,6.72,18.92,19.72,19.37C104.12,93.89,112.8,84.69,112.76,73.8Z"/><path d="M62,107.24c.31,8.43-7.18,13.94-13.4,14.06-7.48.13-14.27-6.39-14.37-13.75-.1-7.77,6-14.34,13.47-14.6S62,99.41,62,107.24Z"/><path d="M107.11,74.22C107,81.74,100.28,88.3,92.73,88,85,87.62,79.27,80.38,79.49,73.52c.22-7.2,6.63-13.8,13.44-13.79A14.43,14.43,0,0,1,107.11,74.22Z"/></svg>