<svg xmlns="http://www.w3.org/2000/svg" xmlns:xlink="http://www.w3.org/1999/xlink" viewBox="0 0 100 100" version="1.1"><g transform="translate(3.0094968011465326, 1) scale(0.06237041381063287) translate(-220.351563, -218)"><path style=" stroke:none;fill-rule:nonzero;fill:rgb(0%,0%,0%);fill-opacity:1;" d="M 417 833 C 402.992188 826.441406 389.800781 818.507813 379.171875 807 C 370 797.183594 364.359375 785.078125 356 775 C 353.886719 784.753906 358.414063 798.335938 360.574219 808 C 368.378906 843 387.769531 878.773438 414 903 C 392.773438 897.691406 373.710938 878.476563 360.601563 862 C 355.773438 856 352.257813 845.210938 346 841 C 355.566406 892.527344 371.695313 936.554688 408 976 C 368.75 963.796875 345 925.589844 329 891 L 328 891 C 328 931 344 968 363 1002 C 357.300781 998.679688 353.195313 992 347 990 C 352.957031 1030.515625 368.332031 1072.070313 398 1101 C 379.5625 1095.164063 370.429688 1078 355 1069 C 361.320313 1106.171875 392.894531 1132.5 420 1155 C 390.847656 1152.617188 362.296875 1130.179688 346.203125 1107 C 341.78125 1100.628906 337.597656 1094.007813 334.261719 1087 C 332.335938 1083 331.699219 1077.722656 328 1075 C 328 1091.207031 333.390625 1108 338.65625 1123 C 348.414063 1151.105469 360.386719 1179 379.789063 1202 C 389.421875 1213.304688 402.296875 1221.183594 412 1232 C 403.5625 1230.433594 393.523438 1230.046875 385 1231 C 391.515625 1240.246094 401.492188 1248 410 1255.28125 C 425 1268.394531 441.769531 1283.453125 461 1290 L 461 1291 C 450.839844 1291.503906 439.910156 1287.777344 430 1285.660156 C 403.5 1280 377.722656 1270.523438 351 1266 C 357.386719 1279.660156 377.691406 1291.792969 390 1300 C 428.203125 1325.472656 474.5 1345.523438 518 1360 L 518 1361 C 489.820313 1359.789063 462 1353.636719 434 1350.832031 C 425.390625 1350 406.355469 1346.421875 399 1351 C 416.359375 1360.253906 435.199219 1366.765625 453 1375.121094 C 463.9375 1380.253906 475.515625 1389.0625 487 1392.363281 C 500.167969 1396.144531 515.398438 1395 529 1398.375 C 581 1411.394531 639.5 1436 675.714844 1477 C 704.503906 1509.601563 724.972656 1551.058594 727.976563 1595 C 728.761719 1606.511719 730 1618.453125 728.714844 1630 C 728.328125 1633.277344 726.519531 1639.402344 731 1640.296875 C 743 1642.59375 755.984375 1640 768 1640 L 1219 1640 C 1221.558594 1640.011719 1226 1641.117188 1228.394531 1639.652344 C 1231.410156 1637.679688 1229 1623.621094 1229 1620 C 1229 1601.132813 1230.832031 1583.109375 1236.507813 1565 C 1251 1518.390625 1283 1479.464844 1324 1453.21875 C 1376 1420 1443 1401 1505 1401 C 1514 1401 1523 1401.300781 1532 1402.171875 C 1536 1402.570313 1541.824219 1405 1545.871094 1403.382813 C 1548.710938 1402.28125 1557.425781 1392.570313 1556.964844 1389.394531 C 1556.570313 1386.6875 1550 1385.632813 1548 1385 C 1538.410156 1381.464844 1528.667969 1378.378906 1519 1375.167969 C 1492.246094 1366.277344 1465 1358.339844 1438 1350.425781 C 1424.621094 1346.511719 1409.734375 1344.636719 1397 1339 C 1407.855469 1336.414063 1420 1338.105469 1431 1339 C 1461.265625 1341.128906 1490.214844 1347.195313 1519 1357.003906 C 1530.757813 1361.007813 1542.46875 1365.585938 1554 1370.199219 C 1558.253906 1372 1564 1375.789063 1568.894531 1374.664063 C 1574.480469 1373.339844 1579.707031 1360.554688 1582.828125 1356 C 1584 1354.234375 1586.496094 1351.136719 1584.917969 1349 C 1580.964844 1343.390625 1563.386719 1340.425781 1557 1338 C 1519.253906 1323.664063 1474 1317.167969 1434 1314 L 1434 1313 C 1466.761719 1310.414063 1501.964844 1313.0625 1533 1324.808594 C 1546 1329.773438 1559 1335.09375 1572 1340.398438 C 1575.792969 1342 1583.519531 1346.484375 1587.675781 1345.1875 C 1594.953125 1343 1578.789063 1334.023438 1580.921875 1331 C 1582.371094 1329 1587.757813 1328.082031 1590 1327 C 1595.699219 1323.8125 1618.535156 1303.4375 1606.980469 1299.210938 C 1587.464844 1292.066406 1565.414063 1290.773438 1545 1288.828125 C 1498 1284.367188 1450.871094 1288.03125 1404 1289 C 1413 1281 1432.316406 1278.300781 1444 1276 C 1483 1268.316406 1524.933594 1269 1564 1276.261719 C 1576 1278.503906 1588.238281 1281 1600 1284.296875 C 1604.292969 1285.53125 1611.445313 1289.652344 1615.894531 1288.292969 C 1620 1287.003906 1621.933594 1280.5 1623.78125 1277 C 1629.515625 1266.132813 1636.40625 1254.101563 1639 1242 C 1630 1246.363281 1622.472656 1254.636719 1614 1260 C 1617.289063 1248 1621.292969 1236.171875 1624.375 1224 C 1624.996094 1221.546875 1628.542969 1214.09375 1626.210938 1212.070313 C 1623.277344 1209.523438 1611.566406 1216.046875 1608 1217 C 1618.90625 1198 1633 1179.425781 1637 1157 C 1627.328125 1163 1620.613281 1172.410156 1610 1178 C 1615.789063 1158 1629 1139.3125 1631 1118 C 1625 1120.03125 1619.671875 1123.300781 1614 1126 C 1619 1108.082031 1627.761719 1091.320313 1632 1073 C 1624.539063 1075.378906 1618.710938 1081.054688 1611 1083 C 1617.859375 1066.277344 1630.519531 1043.363281 1630 1025 C 1621.363281 1031.007813 1613 1037.539063 1603 1041 C 1608.871094 1023.644531 1623.863281 1001.648438 1623 983 C 1619.289063 985.285156 1603.402344 997.605469 1598.992188 994.304688 C 1597 993 1602.816406 982.015625 1603.574219 980 C 1608.664063 966.460938 1614 951.367188 1616 937 C 1608.230469 939.113281 1600.585938 945.3125 1593 948.652344 C 1591 949.488281 1586 952.804688 1583.980469 951.300781 C 1581.855469 949.773438 1587.578125 939 1588.425781 937 C 1594.605469 922.523438 1604.242188 906.519531 1607 891 C 1595.546875 896.703125 1584 904.445313 1573 911 C 1576 900.324219 1583.882813 891.390625 1589.550781 882 C 1601 862.800781 1613.417969 843.261719 1623 823 C 1614.414063 825.734375 1606.757813 832.453125 1599 837.011719 C 1597.980469 837.609375 1592.71875 841.585938 1591.648438 840 C 1589.640625 837 1597.890625 822.363281 1599.1875 819 C 1607.253906 798.109375 1614.730469 777 1622.574219 756 C 1653.710938 672.746094 1681.882813 588.410156 1702.871094 502 C 1708.605469 478.390625 1713 453.328125 1713 429 C 1712.945313 417.632813 1710.339844 403.800781 1700.996094 396.390625 C 1691 388.492188 1677.648438 390.058594 1666 391.730469 C 1638.996094 395.597656 1610.492188 405.292969 1586 417.246094 C 1522.675781 448.148438 1462.617188 481.011719 1406 523.476563 C 1386.796875 538 1367.988281 553.050781 1350 569 C 1340.273438 577.675781 1331.570313 588.363281 1321 596 C 1326.839844 575.535156 1341.257813 557.058594 1345 536 C 1315 549.703125 1296.34375 582.445313 1270 601 C 1272.441406 592.054688 1275.914063 583.335938 1276.828125 574 C 1277.226563 570 1277.171875 564.648438 1271.980469 564.242188 C 1265.609375 563.742188 1257 567.199219 1251 569.039063 C 1249 569.609375 1244.796875 572.035156 1243 570.1875 C 1241 568.058594 1243.226563 561.554688 1243.574219 559 C 1244.503906 552.1875 1244 545.21875 1241 539 C 1226.695313 549.074219 1216.300781 566.734375 1200 574 C 1201.253906 568 1202.691406 562.132813 1203.578125 556 C 1204 552.027344 1204.90625 548.019531 1204.984375 544 C 1205.601563 512.601563 1172.828125 539.433594 1161 548.011719 C 1157.726563 550.382813 1154.847656 552.703125 1151 554 C 1151.933594 549 1152 544.101563 1152 539 C 1151.988281 532.410156 1151.476563 523.152344 1145.785156 518.703125 C 1141 515 1133.433594 516.660156 1128 518 C 1113.890625 521.074219 1100 527.171875 1087 533.234375 C 1082.421875 535.355469 1077.945313 538 1073 539 C 1075.226563 530.488281 1082.40625 514.367188 1076 506.277344 C 1071.199219 500 1059 504 1053 506 C 1032.640625 512.695313 1014.703125 524.808594 995 533 C 999.3125 526.105469 1005 519.722656 1011 514.085938 C 1012.472656 512.679688 1016.574219 510.03125 1016 507.5625 C 1015.34375 504 1000.609375 507 998 507.171875 C 978.75 509.460938 959.734375 518.726563 942 526 C 945 520 951 515.730469 953 509 C 934 514.152344 915.230469 523.824219 898 533 C 900 528.542969 903.921875 525.457031 906 521 C 895.21875 522.585938 882.929688 528.722656 872 526.484375 C 853.183594 522.636719 841 507.160156 831 492 C 818.839844 473.761719 807 455.238281 795 437 C 758.253906 382 721.738281 324.394531 675 277.003906 C 655.71875 257.433594 634 235.152344 607 226.722656 C 578.726563 218 559.28125 232.34375 540.835938 253 C 515 282 493.769531 314.457031 474.578125 348 C 409.90625 461.050781 372.195313 592.378906 388.285156 723 C 391.214844 746.761719 395 771.089844 402.191406 794 C 406.320313 807.253906 413.195313 819.800781 417 833 M 1533 552 C 1552.761719 533.4375 1589.84375 524 1616 520.425781 C 1624.507813 519.292969 1648.222656 519.136719 1644.667969 534 C 1642.855469 541.488281 1623.777344 537 1618 537 C 1600.183594 537 1582.320313 539.777344 1565 544 C 1554.539063 546.363281 1543.671875 551.066406 1533 552 M 992 565 C 1054.167969 627.175781 1066 719 1066 803 L 1065 803 C 1051.507813 744 1033.890625 686 1016 628 C 1011.507813 613.007813 1005.984375 598.34375 999.652344 584 C 997.285156 578.644531 991 571 992 565 M 1469 617 C 1475.941406 608.132813 1490 601.753906 1500 596.753906 C 1528.660156 582.386719 1558.34375 573.792969 1590 569.269531 C 1601 567.6875 1633.539063 563.019531 1632.835938 582 C 1632.398438 593.832031 1603.191406 587.679688 1595 588.039063 C 1567 589.261719 1537.804688 594.765625 1511 602.722656 C 1497.324219 606.777344 1482.933594 615 1469 617 M 1041 771 C 1035.613281 767.1875 1032.589844 757.683594 1029.199219 752 C 1020.386719 737.222656 1011.546875 722.515625 1002.304688 708 C 988.613281 686.496094 973.484375 664.738281 956.480469 645.714844 C 947 635.210938 934.238281 626.191406 926 615 C 944.242188 622 961.324219 639.800781 974.171875 654 C 1004.664063 687.710938 1029 726.636719 1041 771 M 1347 618 C 1359 630.546875 1364.742188 651.558594 1368.871094 668 C 1375.554688 694.597656 1372.894531 721.222656 1369.289063 748 C 1365 779 1359.542969 811.15625 1350 841 L 1349 841 C 1347.644531 828.28125 1350 814.707031 1350.910156 802 C 1352.472656 779.207031 1353.964844 755.832031 1354 733 C 1354 706 1353.757813 679 1351.910156 652 C 1351 641 1346.523438 628.824219 1347 618 M 1478 668 C 1484.253906 660 1495.980469 654.34375 1505 649.757813 C 1529.226563 637.441406 1555.847656 628.378906 1583 626 C 1593.578125 625.074219 1622.179688 623 1620.667969 641 C 1619.597656 653.796875 1594.8125 645.429688 1587 646.171875 C 1565.75 648.183594 1544.878906 649.320313 1524 654.472656 C 1508.914063 658.199219 1493 665.738281 1478 668 M 1027 787 C 1011.972656 774.253906 1000.480469 754.574219 986.910156 740 C 946 696.222656 885.976563 644.175781 822 644 C 826.472656 640.335938 833.402344 640 839 639 C 856.394531 636.046875 874.222656 638.769531 891 643.578125 C 942.53125 658.347656 978.828125 702.671875 1005 747 C 1012.738281 759.792969 1022.398438 772.757813 1027 787 M 1491 707 C 1494.347656 700.722656 1503.816406 698 1510 695 C 1529.882813 685.414063 1554.820313 678.035156 1577 678 C 1585.25 678 1609.574219 678 1605 693 C 1602 702.566406 1584.28125 696.621094 1577 695.578125 C 1550 691.726563 1516.605469 698.8125 1491 707 M 1486 683 C 1483.207031 687.566406 1477.320313 690 1473 693 C 1464.984375 698.6875 1457 704.816406 1450.183594 712 C 1429.691406 733.203125 1413.652344 757.519531 1397.332031 782 C 1388.296875 795.558594 1376.613281 810.664063 1371 826 C 1366.78125 815.191406 1377.570313 792.570313 1381.171875 782 C 1396.527344 737 1432.953125 684.128906 1486 683 M 1023 818 L 1022 818 C 976 753.1875 884.785156 702.039063 805 728 C 817 705.300781 858.433594 700.515625 881 703.730469 C 930.269531 710.75 969.5625 739 999 778.574219 C 1007.882813 790.441406 1018.484375 803.726563 1023 818 M 1549 751 L 1549 752 C 1498.21875 752 1450.175781 781.390625 1414 815.089844 C 1400.308594 828 1389 846.1875 1374 857 C 1376.640625 843.304688 1387.660156 827.511719 1395.332031 816 C 1426.210938 769.683594 1490.941406 725.304688 1549 751 M 742 1071 C 755.882813 1080.777344 766.859375 1095.300781 783 1102 C 779.382813 1092.664063 770.640625 1084.71875 765.453125 1076 C 755.5625 1059.371094 749.417969 1040.128906 747 1021 C 755.667969 1026 762.664063 1041.746094 768.339844 1050 C 783.539063 1072.09375 799.757813 1099.332031 822 1115 C 816 1103.015625 807.960938 1093.011719 803.746094 1080 C 788.597656 1033.261719 801.285156 989.574219 832.871094 953 C 842.816406 941.480469 856.527344 927.484375 871 922 C 866.433594 931.792969 856.757813 939.382813 851.285156 949 C 839.476563 969.765625 834.464844 997.277344 836 1021 C 837.441406 1040.742188 842.78125 1060 852.8125 1077 C 862 1093 873.761719 1107.375 889 1118 C 933.246094 1148.699219 992.574219 1132.25 1019.546875 1087 C 1035.839844 1059.671875 1038.992188 1026.445313 1030.71875 996 C 1023.582031 969.738281 1008.667969 944.519531 987.574219 927.039063 C 980.496094 921.175781 972.84375 916 965 911.0625 C 960.902344 908.5625 955.53125 907.1875 953 903 C 1049.222656 916 1106 1045.519531 1043.382813 1122 C 990.273438 1186.769531 884 1177.390625 817 1142.078125 C 794.464844 1130.210938 773.410156 1115.804688 757 1096 C 751 1088.816406 744 1080.28125 742 1071 M 1385 924 L 1385 925 C 1364.800781 938 1347.933594 950.152344 1335 971 C 1302.722656 1023.402344 1307.230469 1111.550781 1364 1146.53125 C 1400.472656 1169.007813 1442.1875 1147.574219 1458.6875 1111 C 1468 1090.101563 1468 1069.355469 1466.960938 1047 C 1465.910156 1027.347656 1456.304688 1005.753906 1446.574219 989 C 1442 981.328125 1434.316406 973.503906 1432 965 C 1443.613281 971.714844 1452.898438 983.519531 1460.988281 994 C 1492.96875 1035.4375 1505 1105.597656 1477 1152 C 1493.394531 1139.425781 1503.746094 1112.703125 1511.199219 1094 C 1513.378906 1088.527344 1513.953125 1082 1517 1077 C 1523.746094 1099.816406 1515.660156 1122.308594 1507 1143 C 1515.3125 1134.617188 1521.929688 1125.085938 1528 1115 C 1531.644531 1127.003906 1516 1148.289063 1507.984375 1155.828125 C 1481 1180.832031 1442 1195.355469 1405 1191.828125 C 1314.625 1183.222656 1279.632813 1072.015625 1309.402344 997 C 1321.363281 967 1349.566406 927.550781 1385 924 M 899 945.300781 C 951.496094 937.816406 963 1021.054688 910 1028.699219 C 867.347656 1035 841.933594 977.710938 879 952.75 C 885 948.675781 891.789063 946.328125 899 945.300781 M 1361 977.324219 C 1403.703125 970.199219 1416 1038.472656 1372 1045.558594 C 1329 1052.46875 1319 984.308594 1361 977.324219 M 364 1002 L 363 1003 L 364 1002 M 783 1102 L 784 1103 L 783 1102 M 1242 1312 C 1242 1290.15625 1238.613281 1268.746094 1237 1247 C 1236.230469 1234.738281 1234 1220.316406 1223.535156 1212.183594 C 1214.65625 1205.292969 1201.730469 1203 1191 1206.183594 C 1185 1208.015625 1179.246094 1212.453125 1173 1213 C 1163.804688 1213.507813 1155.75 1204.527344 1154.324219 1196 C 1150.640625 1174 1175.714844 1162.710938 1193 1158.222656 C 1222.90625 1150.457031 1258.515625 1149.699219 1288 1160 C 1304.710938 1165.582031 1321.207031 1181.261719 1321.960938 1200 C 1322.195313 1206 1318.582031 1219.386719 1310.222656 1218.003906 C 1303 1216.8125 1302.929688 1207.34375 1293 1212.804688 C 1280.558594 1219.644531 1278.847656 1233.625 1275.289063 1246 C 1270.191406 1263.742188 1263.769531 1281.429688 1253.65625 1297 C 1250.390625 1302.027344 1247.191406 1309 1242 1312 M 993 1243 L 993 1244 C 967.808594 1244 942.242188 1239.144531 917 1238.039063 C 856.710938 1235.398438 795.839844 1236.421875 736 1244.289063 C 689.242188 1250.4375 642.542969 1260.816406 597 1273.152344 C 576.386719 1278.734375 555 1289 534 1292 C 542.292969 1283.441406 555.441406 1278.03125 566 1272.753906 C 589 1261.203125 612.664063 1251 637 1242.308594 C 748 1202.617188 881.976563 1200.488281 993 1243 M 1553 1222 L 1553 1223 C 1505.449219 1225.039063 1457.597656 1240.21875 1411 1249 C 1418.96875 1241 1435.335938 1238.074219 1446 1235 C 1479.667969 1225.296875 1517.90625 1219.070313 1553 1222 M 1009 1273 L 1009 1274 C 907.578125 1282.003906 804 1303 708 1336.503906 C 670.902344 1349.460938 636.996094 1368 601 1383 C 605.671875 1375 617.3125 1370 625 1365 C 643.960938 1352.785156 663.1875 1341.40625 683 1330.691406 C 753.382813 1292.625 832.355469 1271.449219 912 1268 C 943.183594 1266.59375 978.386719 1265.691406 1009 1273 M 1016 1301 L 1016 1302 C 994.453125 1308.382813 970.960938 1311 949 1316.734375 C 897 1330.421875 845.183594 1347.308594 796 1369.09375 C 768.808594 1381.136719 742 1395 717 1411 C 704.652344 1418.667969 691.785156 1432.429688 678 1437 C 694.371094 1413.761719 722 1395 745 1378.574219 C 800.199219 1339.105469 863.253906 1311.394531 931 1303.285156 C 959 1300 987.675781 1301 1016 1301 M 1075 1340 L 1075 1342 C 1053.289063 1345.675781 1032.613281 1356 1012 1363.308594 C 949.898438 1385.484375 888.519531 1416.140625 835 1454.746094 C 817.660156 1467.253906 800.851563 1480.722656 785 1495.074219 C 775.902344 1503.3125 766.871094 1515.359375 756 1521 C 765.683594 1499 786.878906 1478 802.835938 1460 C 870.789063 1384 972.863281 1340.011719 1075 1340 M 523 1436 L 523 1437 C 548.738281 1454.582031 559.589844 1488 554 1518 C 551 1511.171875 550 1503.808594 546.878906 1497 C 536.925781 1476 521.394531 1457 502 1443.746094 C 407.515625 1379.578125 262.757813 1440.542969 236 1549 C 220.351563 1612.648438 236.726563 1693.609375 298 1728.664063 C 308.71875 1734.792969 321.589844 1739 334 1739 C 340 1739.027344 352.449219 1735.347656 357.675781 1738.050781 C 363 1741 367.585938 1749 372 1753.15625 C 383.230469 1763.683594 397.46875 1772.164063 413 1773.824219 C 425.503906 1775.164063 438.289063 1773.1875 450 1768.734375 C 455.359375 1766.695313 462.375 1760.582031 468 1760.382813 C 473.71875 1760.175781 481.703125 1768 487 1770.335938 C 498.21875 1775.335938 509.980469 1776.585938 522 1774.726563 C 537.382813 1772.34375 550.292969 1764 560.984375 1753 C 565 1749 569.609375 1737.371094 575 1735.707031 C 581.496094 1733.773438 594.800781 1741.144531 602 1741.828125 C 621.949219 1743.734375 641.980469 1733 655.714844 1719.425781 C 708.484375 1667.257813 705.859375 1572.582031 664.253906 1515 C 640 1481.640625 604 1464.398438 567 1449.550781 C 553.308594 1444.078125 537.804688 1437.289063 523 1436 M 1403 1532 C 1396.910156 1506.417969 1403.371094 1467.800781 1425 1451 C 1419.222656 1449.246094 1409.691406 1453.6875 1404 1455.503906 C 1386.574219 1461.066406 1369.40625 1466.550781 1353 1474.753906 C 1265 1518.679688 1233.773438 1630.425781 1286.230469 1714 C 1300.359375 1736.511719 1323.933594 1757.699219 1352 1757.289063 C 1359.972656 1757.175781 1368.417969 1755.6875 1376 1753.253906 C 1379.183594 1752.234375 1384.304688 1748.796875 1387.675781 1750.238281 C 1392.800781 1752.425781 1396.332031 1762 1400 1766 C 1409.304688 1776 1421.605469 1783.8125 1435 1786.550781 C 1448.234375 1789.257813 1461.609375 1787.53125 1474 1782.125 C 1479.300781 1779.808594 1486.34375 1772.253906 1492 1772.113281 C 1497.433594 1772 1504.824219 1778.046875 1510 1780 C 1521.28125 1784.082031 1535 1785.625 1547 1783.675781 C 1561.449219 1781.3125 1575 1773.371094 1586 1763.816406 C 1591.308594 1759.140625 1595.644531 1751.21875 1602 1748.027344 C 1608 1745 1617.382813 1747.472656 1624 1746.828125 C 1635 1745.761719 1646.316406 1741.804688 1656 1736.421875 C 1708 1707.46875 1727.171875 1636.230469 1718.5625 1581 C 1704.597656 1491.410156 1623 1434 1535 1434 C 1506.660156 1434 1477 1438.324219 1453 1454.519531 C 1423.527344 1474.378906 1415.941406 1501.527344 1403 1532 M 1227 1491 C 1196.539063 1538.695313 1124.421875 1539.011719 1078 1521.0625 C 1063.1875 1515.335938 1042.484375 1506.175781 1033 1493 C 1046.917969 1498.066406 1059.519531 1505.414063 1074 1509.445313 C 1106.277344 1518.425781 1144.40625 1519.671875 1177 1511.523438 C 1195.289063 1507 1209.820313 1497.503906 1227 1491 M 326 1559.5 C 341.347656 1555.273438 348.464844 1574.273438 350.535156 1586 C 354.683594 1609.464844 348.496094 1637 336.1875 1657 C 332.414063 1663.160156 326.742188 1674.050781 319 1675.664063 C 307.757813 1678.007813 302.726563 1653.566406 300.734375 1646 C 295 1624.636719 298 1600 307.308594 1580 C 310.96875 1572.074219 316.988281 1562 326 1559.5 M 1624 1566.34375 C 1635.320313 1564.082031 1643.492188 1575.429688 1648.269531 1584 C 1660 1605.066406 1661.757813 1631.65625 1656.996094 1655 C 1655.597656 1662 1652.925781 1679.816406 1644.816406 1682.070313 C 1635.796875 1684.574219 1625.1875 1666.023438 1621.605469 1660 C 1609.339844 1639.386719 1603.570313 1614.722656 1607.585938 1591 C 1609 1581.726563 1613.289063 1568.484375 1624 1566.34375 M 602 1570.417969 C 613.417969 1567.558594 621.996094 1577.34375 627.253906 1586 C 639 1605.449219 639.484375 1631.292969 635.390625 1653 C 634 1659.820313 631.464844 1676.675781 623.816406 1679.351563 C 615.234375 1682.355469 605.335938 1664.738281 601.8125 1659 C 589.714844 1639.304688 582.75 1616.117188 587.398438 1593 C 589 1584.644531 592.457031 1572.808594 602 1570.417969 M 498 1572.40625 C 510.738281 1570 520.269531 1585.78125 525.335938 1595 C 539.773438 1621.277344 540.566406 1658.441406 533.472656 1687 C 531.433594 1695.210938 527.617188 1715.617188 517.984375 1718.292969 C 506.890625 1721.371094 494.574219 1697.582031 490.628906 1690 C 476.871094 1663.574219 472.277344 1630.117188 478.886719 1601 C 481.253906 1590.585938 485.710938 1574.765625 498 1572.40625 M 426 1573.410156 C 440.195313 1570.542969 448 1590.488281 450.847656 1601 C 458.28125 1628.449219 457.40625 1660.425781 446.996094 1687 C 444 1694.386719 439.191406 1710 430 1711.457031 C 419.191406 1713.210938 411 1688.632813 408.25 1681 C 398.90625 1655.777344 397.984375 1624.679688 406.195313 1599 C 409.242188 1589.46875 414.914063 1575.648438 426 1573.410156 M 1459 1583.332031 C 1475.738281 1580.542969 1481.730469 1604 1483.753906 1616 C 1488.691406 1645.636719 1484.667969 1679.710938 1469.714844 1706 C 1465.4375 1713.511719 1456.890625 1728.671875 1447 1729.238281 C 1442.441406 1729.503906 1439.636719 1724.5 1437.820313 1721 C 1433.246094 1712.175781 1429.644531 1701.804688 1428 1692 C 1423.363281 1664.050781 1423.34375 1634.277344 1435.460938 1608 C 1439.902344 1598.367188 1447.488281 1585.25 1459 1583.332031 M 1529 1583.394531 C 1543.667969 1580.046875 1551.460938 1599 1554.972656 1610 C 1563.714844 1637.476563 1561 1669.144531 1551.46875 1696 C 1548.828125 1703.363281 1543 1720 1534 1721.117188 C 1523.308594 1722.527344 1515.222656 1698.730469 1512.863281 1691 C 1504.890625 1665 1503.1875 1635.414063 1510.871094 1609 C 1513.542969 1599.824219 1518.429688 1585.804688 1529 1583.394531 M 1349 1584.378906 C 1364.398438 1581.300781 1370 1599.308594 1372 1611 C 1375.96875 1634.535156 1368.6875 1658.476563 1355.667969 1678 C 1352 1683.253906 1345.863281 1693.734375 1339 1694.824219 C 1330.765625 1696.136719 1325.484375 1671.8125 1324.285156 1666 C 1320 1645.488281 1320.96875 1622.113281 1330.257813 1603 C 1334 1595.160156 1339.785156 1586.222656 1349 1584.378906 "/></g></svg>