<svg xmlns="http://www.w3.org/2000/svg" viewBox="0 0 100 100"><g transform="translate(1, 4.467260704781879) scale(0.3951294250463672) translate(0.23, 0.7)"><path d="M124.72.08C145-.7,163.31,4.09,181,11.76c9.46,4.1,17.69,10.31,25.95,16.38A78.3,78.3,0,0,1,225.4,46.62c10,14.48,17.22,30.14,20.31,47.6,1.12,6.35,2.08,12.69,1.7,19.14-.16,2.75-.49,5.49-.89,8.21-.81,5.58-1.2,11.29-2.67,16.7A96.57,96.57,0,0,1,220.58,180c-4.51,4.74-10.08,8.45-15.2,12.59-1,.81-1.89,1.31-2.66-.55-4.3-10.33-12.67-15.79-23.06-18.51-2.08-.55-2.92-1.15-3.38-3.41a20.29,20.29,0,0,0-18.89-16.69,17.6,17.6,0,0,0-16.1,7.12c-2.14,2.83-4.21,5.62-4.81,9.27a2.61,2.61,0,0,1-1.76,1.72c-3.34.44-6.71.62-10.07.91-1.46.13-1.78-.63-1.83-1.92A21.33,21.33,0,0,0,117.76,157c-5.58-6.48-12.8-8.49-20.75-6.32-7.48,2-12.27,7.28-13.78,15.13-.08.45-.11.92-.19,1.37-.77,4.17-.78,4.18-4.73,3.17a121,121,0,0,1-26.85-10.46c-7.48-4-13.37-9.68-18.45-16.36-7.4-9.73-11.33-20.83-13.43-32.76a43.64,43.64,0,0,1,.76-20c.41-1.4.15-2.45-1.24-3a2.69,2.69,0,0,0-3.75,1.56c-1.53,5.64-2.63,11.38-1.89,17.25a89.57,89.57,0,0,0,6.63,25.17c6.86,15.55,17.52,27.61,33.12,34.88a115.36,115.36,0,0,0,25.46,9A69.38,69.38,0,0,0,88.14,177c9,.56,18,1.61,27.06,1.06,7.65-.46,15.37-.26,23-1.24s15-.44,22.49-.55a71.53,71.53,0,0,1,14.19.91c8.45,1.59,15.9,5.29,21.34,12.33,2.84,3.67,3.24,7.54,1.81,11.92-2.22,6.83-6.46,12-12.13,16.25-7.32,5.49-15.79,7.72-24.57,9.2a200.49,200.49,0,0,1-32,2.8c-9.4.09-18.56-1.39-27.7-3.27-4.18-.85-8.41-1.59-12.49-2.79-18.31-5.36-35.62-12.84-50.7-24.79C22.81,186.5,11,171.24,4.55,152.33A94.33,94.33,0,0,1,.16,127.61c-.39-6.45,0-12.85.24-19.26C.59,102.73,1.85,97.2,3,91.68,4.89,83,6.88,74.46,10.93,66.47A125.31,125.31,0,0,1,27.81,42,103.29,103.29,0,0,1,53.3,20.35a143,143,0,0,1,47-18.53A109.9,109.9,0,0,1,124.72.08ZM69.38,144.59c0,1.73,0,2.5,0,3.26,0,1.23,0,2.87,1.51,2.79.77,0,1.47-1.65,2.15-2.59.15-.22,0-.61.1-.91,1.26-7.21,2.36-14.45,3.87-21.6a23,23,0,0,1,4.73-10.34c2.63-3.09,4.6-3.58,7.87-1.11a80.52,80.52,0,0,1,7.07,6.52c1.1,1.07,2,2.34,3.1,3.41,1.93,1.87,2.34,1.89,4.82.57.67-.36,1.32-.76,2-1.14,11.19-6.23,23-8.07,35.42-4.69,4.41,1.19,8.71,2.77,13,4.34,2.27.82,3.85.65,5.63-1.32a74.33,74.33,0,0,1,8.48-7.76c3.4-2.75,7.05-2,9,.67a41.49,41.49,0,0,1,4,6.12c1.8,3.76,2.28,7.9,2.65,12s.64,8.25,1.09,12.36a23.13,23.13,0,0,0,1.16,4.9c.37,1.1.84,2.44,2.5,2.14s1.83-1.5,1.69-2.8c-.2-1.82-.6-3.62-.81-5.44-.66-5.62-1.09-11.28-2-16.86-.95-6.16-3.1-11.81-8-16.08-4.34-3.77-8.24-4.32-12.85-.89a64.63,64.63,0,0,0-8,7.57c-1.9,2-1.84,2.21-4.42.89a53.38,53.38,0,0,0-20.56-6,47.5,47.5,0,0,0-23.74,4c-2.08,1-4.17,1.89-6.24,2.88-2.34,1.13-2.33,1.15-3.89-.83a33.3,33.3,0,0,0-10.52-8.81c-4.34-2.32-8.56-1.39-11.39,2.56a30.88,30.88,0,0,0-4.44,8C71.63,128.59,70.33,137,69.38,144.59Z"/><path d="M105.9,173.58c-5-.38-10-.82-15.05-1.09-1.9-.11-2.19-1.13-2.26-2.68-.49-10.71,11.06-17.45,20.13-13.13,5.83,2.77,8.73,8,7.88,14.56-.16,1.27-.64,2-2,2h-8.71Z"/><path d="M158.17,171.37H143.1c-1.23,0-1.44-.45-1.16-1.69,1.64-7.3,8.62-10.92,14.75-10.75,7.25.21,12.18,4.47,14.12,11,.51,1.76-.06,2.12-2.11,1.94-3.5-.3-7-.46-10.52-.68Z"/></g></svg>