<svg xmlns="http://www.w3.org/2000/svg" xmlns:xlink="http://www.w3.org/1999/xlink" viewBox="0 0 100 100" version="1.1"><g transform="translate(11.486320912585569, 1) scale(0.051606108478146395) translate(-250.625, -74)"><path style=" stroke:none;fill-rule:nonzero;fill:rgb(0%,0%,0%);fill-opacity:1;" d="M 949 350 C 948.839844 352.023438 948.519531 354 948.285156 356.003906 C 948 358.167969 949 362.585938 947.6875 364.367188 C 944.648438 368.429688 932.441406 352.691406 928 356.136719 C 925 358.367188 925.902344 371.210938 925 375 C 920.359375 370.335938 915.957031 364 910 361 C 910 368.585938 910.316406 375.695313 908 383 L 907 383 C 903.984375 376.679688 898 370.4375 892 367 L 892 390 C 885.597656 385.101563 881.480469 377.488281 874 374 C 874 382.519531 873.363281 390.542969 873 399 L 872 399 C 868.902344 392.59375 862.441406 385.027344 856 382 C 856 384.65625 856.980469 405.019531 853.980469 404.367188 C 848.851563 403.257813 843.621094 393.503906 838 391 C 838 393.546875 839.453125 410.511719 837.28125 411.21875 C 834.566406 412.101563 827.921875 403.265625 825 402.171875 C 820.445313 400.320313 822 416.109375 822 419 C 820.5625 418 819.265625 417.09375 817.996094 416 L 815.289063 413.148438 C 806.867188 405.398438 812.804688 422.007813 807.683594 423.320313 C 804.605469 424.105469 799.941406 420 797 419 C 796.835938 421.089844 796.964844 427.660156 794.402344 428.390625 C 792.238281 429.003906 790 426 788 427.75 C 784.59375 430.734375 786 438.242188 787 442 C 784.890625 441 775.25 432.832031 773.691406 435.660156 C 772.214844 438.351563 776.429688 447 772.566406 448.460938 C 770.316406 449.359375 761.816406 443.769531 759 443 L 758 460 C 756 458.785156 750.417969 453.46875 748 455.171875 C 744.898438 457.402344 749.300781 464.804688 745.398438 466.582031 C 742.347656 468 738.691406 463.214844 735.691406 465.214844 C 732.988281 467.015625 736.324219 472 733.972656 474.136719 C 731.824219 476.164063 727.25 473.472656 724.375 475.589844 C 706.761719 488.554688 689 504.046875 673 519 C 666.238281 525.304688 658.558594 531 652.589844 538 C 650.628906 540.335938 647.300781 543.445313 647.957031 546.828125 C 648.953125 552 656.285156 557.210938 659.574219 561 C 670 573.113281 681.347656 584.570313 691.535156 597 C 717.203125 628.3125 741.445313 661.488281 757.226563 699 C 762.433594 711.382813 768.820313 726.566406 770 740 C 756.339844 722.617188 747 700.183594 736 681 C 719.582031 652.136719 701 624.097656 681.710938 597 C 673 585 664 573.3125 654.765625 562 C 651.882813 558.390625 648.324219 551.660156 643.960938 550 C 640.734375 548.636719 638 552.027344 636 554.003906 C 630.9375 559 625.527344 563.582031 619 566.382813 C 603.351563 573.089844 586.203125 567.640625 570 565.828125 C 493.808594 557.300781 416.46875 544.164063 340 559.550781 C 325 562.539063 309.28125 566.296875 296 574 C 258.820313 595.082031 250.625 634.726563 259.5 674 C 266.292969 704.070313 279.933594 733 294.21875 760 C 312.917969 795.523438 333.628906 830.109375 356.722656 863 C 384.886719 903.121094 416.273438 941.804688 439.691406 985 C 465.1875 1032.027344 476.371094 1083 493.695313 1133 C 510.292969 1181.03125 531.914063 1227.605469 560 1270 C 589 1313.75 623.773438 1353 666 1384.371094 C 678.8125 1394 692 1402.8125 706 1410.71875 C 709 1412.484375 719.683594 1416.234375 720.367188 1420.027344 C 721 1423.59375 711.464844 1428.039063 709 1429.574219 C 696.53125 1437.339844 684.183594 1445.308594 672 1453.519531 C 635.753906 1478 600.714844 1505 568 1534 C 555.839844 1544.726563 540.425781 1554.621094 531 1568 C 553.207031 1557.828125 573.210938 1535.382813 593 1521 C 631.699219 1492.53125 672 1466.105469 713 1441.0625 C 719 1437.308594 728.820313 1428.667969 736 1428 C 744 1427.140625 757.570313 1436.085938 765 1439.28125 C 768 1440.609375 780.75 1444 781.367188 1447.417969 C 782.1875 1452.113281 770 1461 767 1464 C 751.324219 1479.675781 736.765625 1496.421875 722 1513 C 686 1553.480469 653.34375 1598 623.332031 1643 C 609.777344 1663.332031 591.816406 1685.707031 584 1709 L 585 1709 C 604.949219 1676.671875 629.640625 1647.398438 653.539063 1618 C 691.867188 1571 733 1526 776 1483 C 783.207031 1475.792969 790.53125 1468.832031 798 1462 C 801 1459.039063 804.523438 1454.453125 809 1454 C 817.722656 1452.644531 830.3125 1459.171875 839 1461 C 842.6875 1461.648438 862.523438 1463.582031 863 1467.316406 C 863.980469 1472.582031 854.324219 1482.722656 851.585938 1487 C 840 1505 827.933594 1522.5 817.285156 1541 C 791 1586.460938 768 1633.085938 749.1875 1682 C 741.425781 1702.042969 729 1727.417969 728 1749 L 729 1749 C 745.890625 1699.070313 772 1652.511719 798 1607 C 848.617188 1519.085938 907.285156 1435.265625 967.730469 1354 C 989.5625 1324.648438 1014.535156 1297.316406 1038.839844 1270.015625 C 1044.515625 1263.640625 1050.992188 1257.773438 1056.175781 1251 C 1057.582031 1249.160156 1061.3125 1244.25 1057.550781 1242.65625 C 1052.804688 1240.652344 1043.820313 1249.09375 1040 1251.398438 C 1022.675781 1262 1006.328125 1274 990 1286 C 943.609375 1319.730469 899 1355.625 854 1391.210938 C 840.585938 1401.804688 827.394531 1412.671875 814 1423.285156 C 808 1428 802 1434.566406 795 1437 C 805.53125 1412.089844 832.851563 1389.40625 852 1371 C 909.28125 1315.792969 974.984375 1273.542969 1041 1230 L 1041 1229 C 1023.171875 1230.824219 1001 1245.617188 985 1253.566406 C 943 1274.335938 902.234375 1300 859 1318 C 865.464844 1311.398438 872.503906 1304.40625 878 1297 C 863.238281 1298 851.832031 1311.015625 838 1315 C 846.527344 1306 860.320313 1294.574219 865 1283 C 849 1292 832.5625 1307 815 1312 C 824 1303 838.257813 1292.339844 844 1281 C 825.449219 1286.457031 810.582031 1302.222656 792 1308 C 798.804688 1298.34375 810.988281 1291.746094 816 1281 C 798.378906 1286.074219 783 1298.359375 766 1305 C 776 1296 792 1286.523438 798 1274 C 780.175781 1282.320313 762.46875 1294 743 1298 C 753.414063 1289.144531 767.75 1283.179688 776 1272 C 757.539063 1275.820313 740 1288.132813 721 1289 L 721 1288 C 736.566406 1282.734375 749.753906 1272.488281 763 1263 L 763 1262 C 756.496094 1262.296875 751.167969 1265.378906 745 1267.078125 C 732 1270.644531 718.984375 1273.632813 706 1277 L 706 1276 C 720 1270.167969 739.21875 1263.015625 749 1251 C 734 1253.328125 718.5 1262 703 1261 C 718.402344 1252.234375 738.355469 1248.304688 750 1234 C 731.332031 1238.433594 713.671875 1248 694 1248 L 694 1247 C 706 1243 717 1238 728 1231.453125 C 732.3125 1229 737.449219 1227.496094 740 1223 C 721.847656 1227.699219 702.824219 1233.191406 684 1234 L 684 1233 C 703.320313 1227.476563 722 1217.78125 740 1209 L 740 1208 C 719.460938 1209 699.960938 1218 679 1218 L 679 1217 C 699.285156 1211.578125 718 1202 737 1193 L 737 1192 C 715.417969 1192.449219 695 1203 673 1203 L 673 1202 C 691.777344 1198.347656 709.183594 1188.644531 727 1182 L 727 1181 C 709.464844 1181.003906 692.519531 1187 675 1187 L 675 1186 C 687.675781 1182.378906 699.429688 1175.792969 712 1172 C 717.601563 1170.144531 726.398438 1169 730 1164 C 710.28125 1165.570313 690.859375 1172 671 1172 L 671 1171 C 686.382813 1167.441406 701.617188 1159.40625 716 1153 L 716 1152 C 704.480469 1152 693.390625 1154.558594 682 1156 L 682 1155 C 692.3125 1151.253906 702 1145.828125 712 1141.3125 C 717 1139.042969 723.703125 1137.660156 727 1133 C 721.242188 1133.503906 715.789063 1135.539063 710 1136 C 725.761719 1123.613281 742.5625 1114.4375 757 1100 C 783.46875 1177.730469 882 1205 949 1162.773438 C 963.277344 1153.78125 976 1142.53125 986.253906 1129 C 991.636719 1121.824219 998 1107.53125 1007 1104.652344 C 1027.167969 1098.210938 1025 1125 1025 1136 C 1047.75 1115.21875 1035.660156 1068.539063 1026.949219 1044 C 1001.523438 972.386719 942.714844 914.738281 862 926.429688 C 815.582031 933.148438 781 962.8125 758.859375 1003 C 744.367188 1029.132813 735.3125 1068.128906 704 1080 C 706.628906 1077.257813 709 1074.378906 712 1072 L 712 1071 C 693.476563 1074.34375 678.824219 1090.269531 659 1092 L 659 1091 C 668 1087.710938 685.851563 1082.417969 691 1074 C 673.652344 1078.601563 654 1084 636 1084 L 636 1083 C 649 1079.269531 668.828125 1074.769531 678 1064 C 661.582031 1064.339844 645.539063 1070 629 1070 L 629 1069 C 652 1062.472656 674.332031 1055.292969 696 1045 L 696 1044 C 678.246094 1046.253906 655.742188 1056 638 1052 C 651 1046.210938 666.234375 1043.210938 680 1039.273438 C 685.65625 1037.652344 695.425781 1036 699 1031 C 677.769531 1032 653 1043 632 1038 L 632 1037 C 655.222656 1035.101563 682.21875 1028.21875 704 1020 L 704 1019 C 682.609375 1019 661.460938 1023 640 1023 L 640 1022 C 661.925781 1020.210938 685.304688 1012.175781 706 1005 L 706 1004 C 687.695313 1004.152344 669.445313 1008 651 1008 L 651 1007 C 669 1002.316406 688.546875 996.714844 707 994 L 707 993 C 690.964844 988.261719 672.28125 994 656 994 L 656 993 C 675.820313 987.816406 694.726563 980.5625 714 974 L 714 973 C 698 973.132813 681.921875 976.742188 666 978 L 666 977 C 684.429688 972 705.929688 967.613281 723 959 L 723 958 C 710 958.035156 696.867188 960.375 684 962 C 694 952.203125 716.855469 952 730 948 L 730 947 C 718 943.496094 705 947.484375 693 948 L 693 947 C 710.339844 940.273438 727.464844 937.796875 746 937 L 746 936 C 730.9375 931.234375 714.347656 934.445313 699 932 L 699 931 C 714.695313 926 731.703125 927.519531 747 923 L 747 922 C 736.320313 921.148438 725.75 918.511719 715 918.039063 C 698.507813 917.316406 682.378906 920 666 920 L 666 919 C 684.410156 916.519531 702.460938 910.695313 721 908.289063 C 740.710938 905.730469 760.277344 907 780 907 C 776.628906 902.226563 767.421875 902.21875 762 901.195313 C 744.707031 898 721.253906 893 704 898 C 716.257813 887.195313 740.933594 890.796875 756 888 L 756 887 C 744.761719 884.679688 733.523438 881.496094 722 881 L 722 879 C 747 879 771.996094 873.359375 797 878 C 793.730469 872.238281 784.917969 869.8125 779 867.402344 C 763.339844 861.023438 747.414063 855.476563 731 851.371094 C 689.734375 841.058594 642.503906 836.125 600 840.171875 C 582.347656 842 564.492188 843.363281 547 846.285156 C 535.371094 848.226563 523.816406 852.492188 512 853 L 512 852 C 529.742188 849 547.234375 842.121094 565 838.515625 C 597.765625 832 634.605469 829.800781 668 832.089844 C 702.867188 834.476563 736.976563 840.183594 771 848.234375 C 787.519531 852.144531 805.226563 860.527344 822 862 C 811.847656 849.746094 791 839.375 776 835 L 776 834 C 789.175781 834.109375 801 840 814 841 L 814 840 C 795.433594 829.425781 778 817.078125 759 807.257813 C 711.695313 783.007813 659.367188 765.804688 608 752.578125 C 577.402344 744.703125 545.363281 744.230469 515 737 L 515 736 C 593.5625 736 677.582031 759.460938 749 791.09375 C 776.925781 803.460938 802.476563 820.148438 830 833 C 823.96875 823.039063 809.324219 815.351563 800 808.574219 C 784.226563 797.109375 769.789063 783.28125 755 770.574219 C 700.925781 724.121094 655.523438 662.261719 588 634 C 590.910156 640 598.175781 644.101563 604 647 L 604 648 C 590.957031 645.207031 577.460938 637.222656 565 632.199219 C 539.839844 622.054688 514.242188 612.71875 488 605.734375 C 457.179688 597.535156 423.964844 590.796875 392 590.015625 C 370 589.476563 348.726563 593.550781 327 594 L 327 593 C 420.378906 562.625 539.292969 584 620 638.746094 C 672 674.148438 713.441406 722.828125 761 763.570313 C 795.675781 793.28125 831.675781 820.765625 870 845.65625 C 879 851.605469 888.972656 857.003906 899 861.347656 C 901.261719 862.324219 906.769531 865.65625 908.972656 863.292969 C 911.277344 860.816406 909.738281 855 909 852 C 906.96875 842.175781 903.429688 833 898.777344 824 C 886.847656 801.1875 868.179688 781.023438 850 763.003906 C 839.191406 752.289063 825.675781 741.277344 818 728 C 833.648438 743.605469 854.460938 760.394531 875 769 C 870.71875 759.460938 860 751.601563 853 744 C 841.804688 731.820313 832.304688 718 822 705 C 828.96875 710.128906 833.890625 718 840 724 C 853.671875 737.660156 870.226563 753.316406 887 763 C 871.304688 732.25 846.375 705.324219 828 676 C 855.753906 700.027344 875.476563 738 911 753 C 906.195313 744.179688 897.871094 737.203125 892 729 C 874 703.652344 854.648438 678.523438 840 651 C 857.859375 671.636719 874.597656 692.691406 894 712 C 902.222656 720.179688 912.335938 731.246094 923 736 C 901 701 868.683594 669.050781 855 629 C 875 652.566406 891.933594 678 914 700 C 922.234375 708.234375 932 719.40625 943 724 C 918.820313 687.445313 888.277344 653 873 611 L 874 611 C 884.613281 633.335938 903.902344 652.648438 919.730469 671.285156 C 929.203125 682.441406 940.847656 697.183594 954 704 C 930.859375 667 902.171875 631.6875 887 590 L 888 590 C 895.859375 608.6875 911.980469 626.265625 924.488281 642 C 935 655.347656 945.9375 671.09375 960 681 C 955 670.53125 946 662.097656 940.335938 652 C 925.765625 626.527344 912 599.144531 901 572 L 902 572 C 910.226563 589.59375 924.238281 607.203125 936.726563 622 C 941.304688 627.425781 945.335938 633.667969 951 638 C 949.707031 631 944.789063 624.617188 941.863281 618 C 933.890625 600 923.234375 581 918 562 L 919 562 C 931 588 950 612.382813 966 636 L 967 636 C 958.753906 607.367188 944.8125 579 934 551 C 953.675781 575 964 606.261719 981 632 L 982 632 C 975.941406 602.71875 964.699219 574.789063 957 546 L 958 546 C 967.585938 566.527344 979 586.132813 988 607 C 991 614.339844 993.75 629.121094 1000 634 C 995.285156 602 985.214844 571.460938 978 540 L 979 540 L 1020 636 L 1021 636 C 1020.363281 605.246094 1005 575.324219 1002 545 L 1003 545 C 1013.53125 576 1026.222656 608.402344 1040 638 L 1041 638 C 1040.773438 627.109375 1036.949219 616.6875 1035.296875 606 C 1032 585.265625 1029 564.652344 1025 544 L 1026 544 C 1033.667969 567.566406 1047.863281 595.140625 1049 620 L 1051 620 C 1051 596.574219 1046.9375 572.246094 1044 549 L 1045 549 C 1050.484375 581.261719 1062.78125 612.328125 1067 645 L 1069 645 C 1067.792969 617 1063 589.246094 1063 561 L 1064 561 C 1067.902344 591.214844 1075.710938 622.417969 1083 652 L 1084 652 L 1083 570 L 1084 570 C 1085 582.667969 1088.90625 595.363281 1090.730469 608 C 1093.386719 626.453125 1094.671875 646 1099 664 L 1100 664 C 1106.609375 636.246094 1102 605.195313 1102 577 L 1103 577 C 1104.277344 606.285156 1113.285156 636.753906 1117 666 L 1119 666 C 1119 640.664063 1121 615.402344 1121 590 L 1122 590 C 1130.433594 620 1127.175781 649.722656 1131 680 L 1132 680 C 1136.304688 656.832031 1139 632.539063 1139 609 L 1140 609 C 1140 640.375 1136.964844 674.078125 1143.660156 705 C 1144.949219 711 1149.808594 733.363281 1157.960938 733.363281 C 1163.6875 733.363281 1166.699219 714.269531 1167.847656 710 C 1173.824219 687.804688 1177 665.015625 1183.886719 643 C 1185 639.054688 1189.78125 623.054688 1195 623.054688 C 1198.335938 623.054688 1197 637.625 1197 640 C 1204 635.273438 1207 621.5625 1210.777344 614 C 1220.375 594 1231.351563 574.832031 1243 556 C 1270.28125 512.238281 1308.441406 472.164063 1350 442 C 1363.46875 432.023438 1377.605469 420.632813 1393 414 C 1376.492188 427.703125 1358 438.753906 1342 453.171875 C 1303.96875 487.398438 1272 527 1246 571 C 1234.871094 590.207031 1218 615.351563 1216 638 C 1219.890625 635.8125 1222 632 1224 628 L 1225 628 C 1224.464844 638.472656 1218 647.644531 1217 658 L 1218 658 C 1230.980469 638.382813 1244.308594 619.652344 1262 604 C 1268.898438 597.824219 1276.261719 590.3125 1285 587 C 1270.859375 601.179688 1250.589844 624.230469 1248 645 L 1249 645 C 1263.304688 622.191406 1283.605469 602 1306 587.003906 C 1313.667969 582 1322 575.5625 1331 573 C 1309 594 1279.75 614.746094 1274 647 C 1298.5 633.199219 1318.371094 601.285156 1348 596 L 1348 597 C 1331.421875 605.257813 1310.683594 628.164063 1305 646 C 1310.535156 642.796875 1314.179688 636.535156 1319 632.285156 C 1332.769531 620.144531 1349.402344 606.003906 1367 600 C 1354.726563 610.621094 1338.453125 619.621094 1329 633 C 1348.839844 627.109375 1365 608.714844 1386 605 L 1386 606 C 1374.402344 611.269531 1353.617188 619.75 1347 631 C 1367.566406 627.332031 1385 612.078125 1406 609 L 1406 610 C 1388 615 1373.894531 628 1357 635 L 1357 636 C 1381.304688 632.359375 1403.816406 615.535156 1429 615 L 1429 616 C 1415.484375 619.535156 1402 624.828125 1390 631.71875 C 1385.828125 634.082031 1380.582031 636 1378 640 C 1402.859375 636.648438 1426.789063 627.1875 1452 624 L 1452 625 C 1430 630.820313 1409 638.417969 1389 649 L 1389 650 C 1419 643.085938 1449.804688 635.085938 1481 635 L 1481 636 C 1458.929688 639 1431 645.257813 1412 657 L 1412 658 C 1436.230469 656 1460.523438 650 1485 650 L 1485 651 C 1472.714844 654.460938 1460.242188 657.296875 1448 661 C 1440.734375 663 1433.503906 667.230469 1426 668 L 1426 669 C 1433.847656 671.15625 1445.910156 668.0625 1454 666.753906 C 1468.644531 664.386719 1485 662.121094 1500 662 L 1500 663 C 1485.886719 666.660156 1471.65625 670 1458 675.085938 C 1453.226563 677 1447 677.578125 1444 682 C 1466.34375 680.175781 1488.414063 676 1511 676 L 1511 677 C 1491.898438 679.570313 1472.316406 686.195313 1454 692 L 1454 693 C 1464.34375 696.058594 1477.242188 693 1488 693 L 1488 694 C 1477.414063 697.0625 1467 702.09375 1456 703 L 1456 704 C 1460 705.171875 1463.898438 704.542969 1468 705 C 1460.769531 710.53125 1451.757813 711.726563 1443 713.25 C 1416.652344 718 1392.800781 711.804688 1367 707.320313 C 1330.855469 701.039063 1294.683594 703.347656 1262 721.3125 C 1213 748.191406 1192 808 1197.171875 861 C 1199.527344 885.378906 1209 907.730469 1218.574219 930 C 1230.542969 958.050781 1245 998.15625 1281 1000 C 1276.570313 993.664063 1247.210938 976.804688 1265 967.769531 C 1280 960.117188 1301.753906 967.023438 1318 966 C 1351 963.644531 1383.460938 953.417969 1408 930 C 1437.472656 901.789063 1453 861.582031 1447.71875 821 C 1446 809 1443 797.320313 1438.398438 786 C 1437 782.695313 1432 776 1433.417969 772.316406 C 1434.746094 768.808594 1444.789063 769 1448 768.414063 C 1463 766 1479.941406 757.53125 1495 758 L 1495 759 L 1478 768 L 1478 769 C 1497.328125 769 1515.464844 760.289063 1534 756 C 1522.984375 765.117188 1509.230469 770 1497 777 L 1497 778 C 1515.960938 777.183594 1535.335938 769.515625 1554 766 C 1544.382813 775.636719 1525 776 1517 787 C 1526.484375 786.054688 1535.28125 783.046875 1545 783 C 1546.390625 783 1554.835938 781.828125 1554.21875 784.507813 C 1552.558594 791.714844 1533.355469 792.636719 1528 796 C 1535.609375 798.09375 1545.46875 793.171875 1552.808594 796.742188 C 1561.507813 801 1539.792969 806.757813 1537 807 L 1537 808 C 1541.441406 808.46875 1552 806 1554.546875 810.722656 C 1556 813.8125 1555 819.597656 1555 823 L 1555 851 C 1555 888.234375 1552.667969 925.804688 1551 963 C 1550.53125 974.621094 1551 986.367188 1551 998 C 1551 1002 1552 1008.234375 1549.257813 1011.488281 C 1545.894531 1015.320313 1537.675781 1015.734375 1533 1017.011719 C 1518.699219 1021 1504.226563 1024.105469 1490 1028.292969 C 1438.636719 1043.417969 1388.359375 1061 1338 1079 L 1338 1080 C 1356.308594 1079.621094 1375.257813 1071.089844 1393 1067 C 1430.988281 1058 1469.210938 1049.460938 1507 1039.730469 C 1516.996094 1037.15625 1535.753906 1029 1545.851563 1031.355469 C 1550.820313 1032.566406 1550.484375 1050.183594 1547.398438 1053.261719 C 1544.859375 1055.792969 1539.328125 1056.050781 1536 1057 C 1525 1060.105469 1514 1062.378906 1503 1065 C 1463.679688 1073.796875 1424 1081.792969 1385 1091.527344 C 1372.925781 1094.53125 1360.917969 1097.703125 1349 1101.28125 C 1344 1102.753906 1337.8125 1103.382813 1335 1108 C 1390 1108 1444.882813 1104 1500 1104 L 1531 1104 C 1535 1104 1541 1103 1544.851563 1104.601563 C 1548.871094 1106.359375 1549 1115.199219 1547.398438 1118.683594 C 1545 1123.421875 1529.566406 1121.019531 1525 1121 C 1509.695313 1121 1487.636719 1114.207031 1473 1119.601563 C 1468.582031 1121.234375 1465.304688 1125.800781 1462 1129 C 1459.359375 1131.484375 1450.207031 1137 1450.207031 1141 C 1450.207031 1143.671875 1469 1145.652344 1472 1146.375 C 1492.515625 1151.410156 1512.816406 1156.753906 1533 1163.027344 C 1535.394531 1163.769531 1555.847656 1170.375 1546.398438 1175.671875 C 1542.878906 1177.644531 1534.476563 1172.667969 1531 1171.507813 C 1516.503906 1166.65625 1501.921875 1162 1487 1158.5 C 1442.40625 1148.355469 1397.667969 1144 1352 1144 C 1340.921875 1144 1330 1144.476563 1319 1145 C 1313.585938 1145.199219 1307.824219 1144.109375 1303 1147 C 1327 1155.171875 1354.25 1156.179688 1379 1162.734375 C 1421.71875 1174.046875 1463.761719 1194.492188 1499 1221.128906 C 1511.996094 1231 1523.609375 1242 1534.984375 1253.484375 C 1540.621094 1259.230469 1546.746094 1264.511719 1547 1273 C 1533.855469 1262 1522.230469 1249.242188 1508.984375 1238.261719 C 1489.949219 1222.476563 1468.683594 1209.445313 1447 1197.691406 C 1432 1189.632813 1413.253906 1178.789063 1396 1178 L 1396 1179 C 1398.574219 1180.21875 1405.726563 1182.105469 1406.230469 1185.386719 C 1406.835938 1189.355469 1399.640625 1193 1397 1194.664063 C 1385.3125 1202.425781 1372.625 1207.035156 1359 1210.113281 C 1329.476563 1216.777344 1296.195313 1214.304688 1267 1207.230469 C 1252.734375 1203.773438 1238.324219 1199.507813 1227 1189.699219 C 1207.308594 1172.636719 1214.949219 1153.21875 1220.71875 1132 C 1223 1123.136719 1224.191406 1112.644531 1229.636719 1105 C 1241 1089 1257 1063.210938 1233 1048 C 1234 1050.191406 1241 1062 1236.59375 1063.023438 C 1229.953125 1064.796875 1217.28125 1059.359375 1210 1059.039063 C 1187.523438 1058.046875 1165.351563 1059.820313 1145 1070.628906 C 1137.378906 1074.679688 1130.199219 1080.035156 1124 1086.039063 C 1122 1088 1119.210938 1092.460938 1115.925781 1091.078125 C 1110.984375 1089.003906 1107.941406 1081.695313 1106.355469 1077 C 1101.664063 1063.113281 1102.929688 1050.085938 1105 1036 C 1100 1039.574219 1098 1045 1094 1049 C 1096.558594 1043.253906 1100.398438 1037 1102 1031 C 1076.652344 1042.296875 1060.730469 1081.660156 1067 1108 L 1068 1108 C 1068 1101 1070.324219 1094.558594 1073 1088 L 1074 1088 C 1071.839844 1099.644531 1071.386719 1111.574219 1075 1123 C 1077 1120 1076.988281 1116.695313 1077 1113 C 1080.75 1117 1081 1123.003906 1083 1128 C 1086.632813 1136.613281 1093.207031 1144.8125 1102 1148.386719 C 1112.464844 1152.644531 1124 1150.738281 1135 1152.4375 C 1147.867188 1154.449219 1159.996094 1160.800781 1172 1165.601563 C 1179.34375 1168.539063 1188 1170.710938 1193.320313 1177.042969 C 1219.5 1209 1188.882813 1254.476563 1170.328125 1282 C 1165.347656 1289.390625 1159.8125 1296.386719 1153.828125 1303 C 1146.890625 1310.671875 1138.683594 1317.507813 1130 1323.136719 C 1117.648438 1331.140625 1104.417969 1335.316406 1090 1337.5625 C 1087.414063 1338 1076.699219 1339.632813 1075.527344 1336.398438 C 1073.988281 1332.15625 1082.441406 1322.136719 1084 1318 L 1083 1318 C 1045 1374.210938 1015.617188 1441.164063 1007 1509 L 1006 1509 C 1006.558594 1441.742188 1038.832031 1373.511719 1072.453125 1317 C 1086.742188 1293 1106.59375 1271 1119 1246 C 1110.449219 1250.066406 1103.621094 1259.378906 1097 1266 C 1081 1282 1060.835938 1300.101563 1050 1320 L 1049 1320 C 1051.300781 1314 1056 1309.21875 1058 1303 C 1034.8125 1315.027344 1019.222656 1342.289063 1002 1361 C 1006.171875 1348.558594 1014.5625 1338.113281 1019 1326 C 1004 1333 989.546875 1353 979.984375 1366 C 962.992188 1389.128906 945.167969 1411.546875 928.574219 1435 C 921.335938 1445.230469 910.820313 1457.007813 907 1469 C 920.734375 1469 936.613281 1471.1875 950 1468 C 947.726563 1483.1875 942.847656 1498.726563 940 1514 C 947.367188 1510.179688 950.269531 1500.152344 957 1495 C 951.277344 1509.757813 943.699219 1525 943 1541 C 947.628906 1538.632813 949.75 1534 953 1530 C 951.917969 1542.394531 947.539063 1554.441406 947 1567 C 953.976563 1563 952.859375 1552.238281 960 1548 C 954.195313 1561.117188 952 1577.746094 952 1592 C 958 1589.585938 960.25 1584.03125 965 1580 C 964.996094 1595 950 1597.371094 939 1605.023438 C 918.210938 1619.371094 900.546875 1637.363281 886 1658 C 868.203125 1683.367188 854.882813 1712.296875 849.753906 1743 C 848 1753 847 1763 847 1773 C 847 1776.59375 848 1782.449219 844.683594 1785 C 838.496094 1789.167969 826.320313 1789.644531 819 1791.472656 C 799.976563 1796.230469 780.636719 1800.710938 762 1807 C 679.902344 1833.8125 600.894531 1863.710938 529 1912.65625 C 511 1924.824219 494.304688 1938.53125 478 1952.71875 C 471.46875 1958.402344 461.742188 1965.144531 458 1973 C 491.386719 1960.433594 523.195313 1943.070313 557 1931 C 628.730469 1905 701.910156 1886.445313 776 1869 C 803.195313 1862.4375 831.375 1856.226563 859 1852.167969 C 866 1851.128906 879.996094 1857 879 1866.550781 C 878.746094 1869.425781 870.175781 1870 868 1870.398438 C 855.683594 1873 843.195313 1875.003906 831 1878 C 780.984375 1890.289063 728.851563 1903.082031 682 1925 L 682 1926 C 703.210938 1925.558594 725.859375 1919.128906 747 1916.28125 C 785.816406 1911.054688 824.871094 1907.460938 864 1907 C 887.550781 1906.714844 912.617188 1904.371094 935 1914 C 919.914063 1918 904.753906 1920.4375 890 1925.691406 C 884.28125 1927.730469 877 1929.382813 873 1934 C 920.207031 1932 969 1942.035156 1016 1933.195313 C 1050.25 1926.742188 1080.53125 1911.597656 1113 1900 C 1135.351563 1891.78125 1158.539063 1886.757813 1182 1883.300781 C 1253.199219 1872.8125 1326 1866.773438 1398 1865.015625 C 1437.453125 1864.046875 1476.691406 1868 1516 1868 L 1516 1870 C 1427.640625 1870 1340.804688 1881.074219 1255 1902.527344 C 1234.203125 1907.726563 1213.4375 1913 1193 1919.496094 C 1185.691406 1921.828125 1175.367188 1922.1875 1170 1928 C 1285 1913.386719 1401 1922.433594 1515 1942.25 C 1533.570313 1945.480469 1552.234375 1951.015625 1571 1952.828125 C 1585.414063 1954.226563 1600.515625 1953 1615 1953 L 1639 1953 C 1641.511719 1953 1646 1953.824219 1648.167969 1952 C 1651 1949.363281 1649 1937.757813 1649 1934 C 1649 1916.636719 1647 1899.355469 1647 1882 C 1647 1843.476563 1644.726563 1804.496094 1643 1766 C 1641.523438 1731.34375 1643.460938 1696.601563 1641 1662 C 1639.183594 1634.171875 1641.667969 1606 1640.984375 1578 C 1638.359375 1470.753906 1640.273438 1363.367188 1638.996094 1256 C 1637.925781 1166.085938 1638 1076 1638 986 C 1638 940.347656 1634.972656 893.535156 1638 848 C 1643.378906 770.796875 1638 692.382813 1640 615 C 1641.769531 543.363281 1641.257813 471.667969 1643 400 C 1644 354.742188 1647 309.277344 1647 264 C 1647 218.671875 1651.925781 173.320313 1652 128 C 1652 117.316406 1653 106.722656 1653 96 C 1653 93 1654.195313 86.363281 1649.851563 85.742188 C 1638.984375 84.183594 1627 86.003906 1616 86 C 1613 86 1606.234375 84.503906 1604 86.832031 C 1599.585938 91.46875 1601.363281 107.804688 1600.910156 114 C 1599.226563 137 1597.421875 160.140625 1594.714844 183 C 1586.820313 249.675781 1583.671875 317.074219 1579 384 C 1577.628906 405.324219 1576.550781 426.675781 1575 448 C 1574.371094 458.503906 1575.449219 469.714844 1573 480 C 1536.175781 435.1875 1522 372.082031 1505.28125 318 C 1489.484375 267.285156 1468.265625 219.253906 1444.242188 172 C 1424.960938 134.070313 1393.933594 78.0625 1346 76.039063 C 1294.367188 74 1254 127.660156 1224.914063 163 C 1193 201.636719 1169 245.277344 1139 285 C 1127 300.777344 1116.808594 320.089844 1099 330.125 C 1088.4375 336.074219 1075.742188 336 1064 337.164063 C 1043.585938 339.351563 1023.300781 342.140625 1003 345.273438 C 997.570313 346.113281 992.289063 349 987 349.53125 C 981.976563 350.097656 976.296875 347.652344 971.316406 349.316406 C 967.863281 350.472656 970.273438 356.351563 966.683594 356.757813 C 961.660156 357.328125 953.96875 351.421875 949 350 M 1323 111 C 1309.972656 128.019531 1290.695313 140.40625 1277.476563 158 C 1233.539063 216.457031 1196.820313 295.253906 1191 369 L 1190 369 L 1189 338 L 1188 338 C 1179.445313 361 1179.328125 388 1170 410 L 1169 410 C 1169 382.691406 1169 356 1174.449219 329 C 1185 275.523438 1212.273438 226.496094 1244.265625 183 C 1264.40625 155.617188 1290.804688 124.40625 1323 111 M 1733 286 C 1733 368.484375 1728.648438 451.609375 1725 534 C 1723.421875 571 1724.578125 608.023438 1722.960938 645 C 1717.699219 765.148438 1715.433594 885.675781 1714 1006 C 1712 1161.222656 1714.257813 1317.121094 1721 1472 C 1724 1543.097656 1729 1614.832031 1729 1686 L 1730 1686 C 1732.957031 1648.523438 1732 1610.601563 1733 1573 C 1734.5 1512.363281 1735.527344 1451.699219 1737 1391 C 1741 1227.511719 1743.226563 1063.769531 1741.996094 900 C 1741.492188 832.734375 1739 765.222656 1739 698 C 1738.847656 603.273438 1736 508.660156 1736 414 C 1736 385.273438 1735 356.714844 1735 328 C 1735 315.433594 1737.921875 297.726563 1733 286 M 1130 335 C 1130 389.1875 1138.925781 442 1149.601563 495 C 1153.605469 515 1160 535.042969 1163 555 C 1152.976563 546.632813 1148 529 1143.574219 517 C 1128.191406 476.203125 1125 430.195313 1125 387 C 1125 372.519531 1123 348 1130 335 M 1269 379 C 1264.570313 394.378906 1253.730469 408.546875 1246.890625 423 C 1233.921875 450.398438 1222 478.488281 1211.859375 507 C 1191.492188 563.402344 1183 623 1165 680 L 1164 680 C 1164 603.195313 1189.855469 530.011719 1221.539063 461 C 1229.945313 442.691406 1239.957031 425.355469 1250 408 C 1255.785156 398.378906 1261 387 1269 379 M 1682 395 C 1681.566406 447.265625 1678.324219 499.789063 1676 552 C 1672.390625 635.300781 1671.6875 718.714844 1668 802 C 1666 846.292969 1667 890.671875 1665.984375 935 C 1662 1091.574219 1663 1248.277344 1663 1405 C 1663 1504.046875 1664.5625 1603.082031 1666.984375 1702 C 1667.71875 1732 1668.953125 1762.082031 1669 1792 C 1669 1810.535156 1666.699219 1832 1671 1850 L 1672 1850 C 1672 1772.410156 1676.566406 1694.476563 1679.960938 1617 C 1684.777344 1507.054688 1685 1397 1689.960938 1287 C 1696.902344 1128.460938 1691.253906 968.679688 1691 810 C 1690.847656 715 1686 620 1686 525 C 1686 496 1684 467.027344 1684 438 C 1684 425.230469 1687.308594 406.820313 1682 395 M 977.667969 538.667969 C 977.722656 538.722656 977.777344 539.777344 977.332031 539.332031 C 977.277344 539.277344 977.222656 538.222656 977.667969 538.667969 M 1025 541 L 1024 542 L 1025 541 M 917.667969 560.667969 C 917.722656 560.722656 917.777344 561.777344 917.332031 561.332031 C 917.277344 561.277344 917.222656 560.222656 917.667969 560.667969 M 1387 604 L 1386 605 L 1387 604 M 872 608 C 872.984375 609.480469 873 609.203125 873 611 L 872 611 C 871.785156 609.578125 871.726563 609.328125 872 608 M 1409 608 L 1409 609 L 1406 609 C 1407.246094 608.316406 1407.550781 608.25 1409 608 M 854.667969 627.667969 C 854.722656 627.722656 854.777344 628.777344 854.332031 628.332031 C 854.277344 628.277344 854.222656 627.222656 854.667969 627.667969 M 1345 631 L 1346 632 L 1345 631 M 1355 637 L 1356 638 L 1355 637 M 822 704 C 820.363281 703.453125 820.546875 703.636719 820 702 C 821.3125 702.769531 821.230469 702.6875 822 704 M 1469 704 L 1468 705 L 1469 704 M 818 727 L 817 728 L 818 727 M 1233 804 L 1234 804 C 1233.984375 828.578125 1233 849.6875 1245.871094 872 C 1274.910156 922.785156 1349 946.773438 1393.984375 901 C 1400.847656 894 1406.847656 886.132813 1410.546875 877 C 1423.632813 844.695313 1410.707031 806 1391.253906 779 C 1378.742188 761.691406 1364 751.507813 1346 741 C 1357.589844 738.554688 1375.734375 749.707031 1385 756 C 1424.984375 782.300781 1437.605469 838.09375 1418.335938 881 C 1388.507813 947.398438 1294.238281 968.183594 1245.753906 910 C 1238.558594 901.363281 1232.734375 891.667969 1229 881 C 1220.707031 856.566406 1224 827.808594 1233 804 M 1345 753.570313 C 1387.378906 753.640625 1386.535156 817.300781 1344 817 C 1317.746094 816.808594 1299.585938 783.53125 1319.214844 763.183594 C 1326 756.113281 1335.476563 753.554688 1345 753.570313 M 912 754 L 913 755 L 912 754 M 861 826 C 853.597656 823.289063 847.464844 818.257813 841 814 C 827.816406 805 809.527344 794.511719 802 780 C 810.242188 783.191406 817 791.066406 824 796.488281 C 836 806 851.644531 813.769531 861 826 M 509 854 L 509 855 L 506 855 C 507.246094 854.316406 507.546875 854.25 509 854 M 908 966.285156 C 924.523438 964.257813 941.199219 975 945.957031 991 C 951.1875 1008.617188 940.1875 1030.488281 921 1032.816406 C 909.800781 1034.175781 897.507813 1032 889.171875 1023.816406 C 868.570313 1003.773438 879.386719 969.800781 908 966.285156 M 793 1015 C 792.753906 1045 789.820313 1070.269531 807.75 1097 C 836.570313 1140 898.367188 1159.636719 944 1130.300781 C 961.664063 1119 971.492188 1103.066406 981 1085 L 982 1085 C 980.597656 1101.046875 968.535156 1117.578125 957.910156 1129 C 919.511719 1170.277344 851.988281 1173.484375 810 1135.824219 C 782.90625 1111.523438 770.765625 1069.46875 783.808594 1035 C 786.320313 1028.359375 787.875 1020.113281 793 1015 M 1199 1067 L 1199 1068 C 1185 1071 1172.734375 1079.628906 1159 1082 C 1168.523438 1071.28125 1185 1067.039063 1199 1067 M 1389 1240 C 1384.78125 1247 1376.234375 1250.175781 1370 1255 C 1372 1255.222656 1377.464844 1254.28125 1378.824219 1256 C 1380.472656 1258 1375.171875 1261.601563 1373.996094 1262.546875 C 1367.976563 1267.371094 1361.691406 1270 1354 1270 L 1354 1271 C 1358.402344 1272.695313 1362.253906 1274 1367 1274 C 1362.316406 1283.222656 1352.175781 1284 1343 1284 C 1345.617188 1287.523438 1354.394531 1289.664063 1355.652344 1292.507813 C 1356.679688 1294.820313 1352.476563 1297 1350.996094 1297.625 C 1344 1301.195313 1337.488281 1301 1330 1301 C 1334.226563 1304.792969 1338.273438 1307.414063 1344 1308 C 1339.609375 1315.59375 1328.367188 1314 1321 1313 C 1322.582031 1315.027344 1329.792969 1320 1329.792969 1322.128906 C 1329.792969 1324.742188 1322.875 1327.753906 1321 1329 C 1312.925781 1334.367188 1297.800781 1347.117188 1288 1348 C 1284.605469 1348.289063 1282.792969 1343 1279.597656 1343.632813 C 1277.734375 1344.023438 1277.171875 1348.570313 1276.257813 1350 C 1273.800781 1353.789063 1268.628906 1357.421875 1264 1358.0625 C 1257.828125 1359 1260.949219 1349.707031 1256.664063 1348.632813 C 1254.175781 1348.007813 1237.753906 1371.523438 1239.796875 1355.003906 C 1240 1353.011719 1239.992188 1351.003906 1240 1349 C 1225.964844 1357.449219 1213 1358 1197 1358 C 1199.542969 1354.226563 1204.507813 1352.011719 1208 1349 C 1199.402344 1351.417969 1170.285156 1354.175781 1184 1340 L 1183 1339 C 1180.859375 1340.523438 1173.570313 1346.105469 1171.695313 1341.550781 C 1169.179688 1335.429688 1179 1319.566406 1181.742188 1314 C 1193.632813 1289.359375 1204.214844 1256.527344 1227 1239.609375 C 1243 1227.6875 1265.496094 1230.632813 1284 1233 C 1309.703125 1236 1335 1240.34375 1361 1241.625 C 1370.253906 1242.082031 1379.699219 1240 1389 1240 M 720 1289.332031 C 720.773438 1289.332031 720 1289.832031 719.667969 1289.667969 L 720 1289.332031 M 743 1298 L 742 1299 L 743 1298 M 792 1308 C 790.777344 1309.195313 790.578125 1309.316406 789 1310 C 790 1309 790.609375 1308.691406 792 1308 M 837 1315.332031 L 837.332031 1315.667969 C 836.839844 1315.832031 836.226563 1315.332031 837 1315.332031 M 835 1317 L 834 1318 L 835 1317 M 1002 1361 C 1001.230469 1362.3125 1001.3125 1362.230469 1000 1363 C 1000.546875 1361.363281 1000.363281 1361.546875 1002 1361 M 1551 1721 C 1531.875 1710.039063 1525.421875 1682.601563 1513 1666 C 1513.441406 1687.441406 1518 1710.027344 1525.8125 1730 C 1528.777344 1737.65625 1537.941406 1750.679688 1533.542969 1759 C 1524.320313 1776.160156 1498.269531 1763.800781 1488 1755.246094 C 1462.472656 1734 1441 1696 1441 1662 L 1440 1662 C 1433.730469 1689.429688 1434.78125 1716.726563 1445.605469 1743 C 1449 1751.414063 1454 1760.199219 1460.175781 1767 C 1461.617188 1768.613281 1467.761719 1773.03125 1466.652344 1775.605469 C 1465.449219 1778.410156 1457.554688 1778.730469 1455 1779 C 1442.972656 1779.753906 1431.578125 1776 1422 1768.625 C 1394.988281 1748.019531 1379 1712.617188 1379 1679 L 1378 1679 C 1363.746094 1716 1374.242188 1745.488281 1395 1777 C 1384.304688 1777.019531 1371.574219 1765.628906 1365 1758 C 1345.578125 1735.4375 1335.554688 1696.324219 1341 1667 C 1335.496094 1671.730469 1333 1680.230469 1330.835938 1687 C 1322.46875 1712.546875 1327.761719 1739.113281 1338 1763 C 1320.714844 1757 1308.359375 1733.007813 1302.378906 1717 C 1280.308594 1658 1306.402344 1602.050781 1341 1555 C 1330.46875 1560.546875 1322.25 1567.398438 1314 1576 C 1310 1580.210938 1307 1586.035156 1302 1589 C 1307.820313 1568.796875 1321 1550 1332.964844 1533 C 1368.632813 1482.414063 1416 1441 1470 1410.425781 C 1488 1400.1875 1507.59375 1392.066406 1527 1384.613281 C 1530.183594 1383.390625 1544 1376.8125 1546.398438 1380.617188 C 1549.636719 1386 1547 1399.808594 1547 1406 L 1547 1474 C 1547 1556.449219 1551 1638.746094 1551 1721 M 1150 1724 L 1149 1724 C 1149 1741.503906 1152.191406 1758.09375 1156.472656 1775 C 1159.46875 1786.824219 1164.5625 1800.675781 1161.390625 1813 C 1157.582031 1827.800781 1142.5625 1831.652344 1129 1829.699219 C 1106.683594 1826.484375 1087.8125 1806.765625 1075.746094 1789 C 1070.910156 1782 1068 1772 1062 1766 C 1064.574219 1785.121094 1071.324219 1804.515625 1079.308594 1822 C 1083.167969 1830.449219 1090.296875 1842.507813 1086.726563 1852 C 1078 1875 1043.824219 1864.765625 1030 1853.53125 C 1001.300781 1830.210938 985 1786.351563 985 1750 L 984 1750 C 976.933594 1781 978 1815.046875 992.257813 1844 C 997.828125 1855.425781 1006.925781 1864.199219 1013 1875 C 951.90625 1879.820313 928 1805.425781 932 1756 C 925.414063 1762.574219 923 1775.101563 921.566406 1784 C 918.316406 1803.324219 919 1824.183594 924.863281 1843 C 927.414063 1851.367188 932.5625 1858.707031 935 1867 C 911.324219 1853.316406 899.894531 1823.625 895.585938 1798 C 885.558594 1738.328125 908.382813 1663.183594 971 1642 L 971 1641 C 958.878906 1641.101563 949.410156 1647.554688 938 1650 C 950.925781 1632.378906 974 1619.585938 994 1611.601563 C 1049.597656 1589.292969 1114 1593.054688 1167 1621.234375 C 1197 1637.222656 1224.460938 1660.578125 1232.347656 1695 C 1236.445313 1713 1235.460938 1736.226563 1225.300781 1752 C 1208.589844 1778 1176.628906 1771.207031 1160.488281 1749 C 1154.992188 1741.433594 1152.515625 1733 1150 1724 M 1061 1764 L 1062 1765 L 1061 1764 "/></g></svg>