<svg xmlns="http://www.w3.org/2000/svg" xmlns:xlink="http://www.w3.org/1999/xlink" viewBox="0 0 100 100" version="1.1"><g transform="translate(1, 3.7142796383092787) scale(0.05335193392254102) translate(-68, -118)"><path style=" stroke:none;fill-rule:nonzero;fill:rgb(0%,0%,0%);fill-opacity:1;" d="M 332 118 C 345.402344 139.449219 361.667969 159.296875 375 181 C 353 177.785156 336.6875 161.644531 325 144 L 324 144 C 325.699219 161 338.738281 179 346.246094 194 C 348.589844 198.679688 353.828125 205.539063 354 211 C 354.3125 217.46875 339.765625 207.6875 338 206.320313 C 327 198 320.757813 185.152344 315 173 L 314 173 C 314.523438 198.324219 328.285156 217.691406 335 241 C 319.484375 237.078125 308.546875 215.792969 306 201 L 304 201 C 304.988281 223.679688 314.253906 246 330 262 C 324.21875 260.789063 319.46875 258 314 256 C 316.179688 263.550781 321.769531 268.601563 326 275 C 311.425781 272.359375 310.253906 256.714844 300 250 C 303.6875 275.082031 315.441406 291.441406 333 309 C 314.394531 314.742188 298.9375 295 292 280 L 291 280 C 292 304.058594 310 333.078125 334 340 L 334 341 C 319.949219 343.320313 307.660156 335.117188 294 334 C 301.753906 345.050781 318 347.808594 325 361 C 319.902344 361 313.851563 363 309 362.261719 C 300.597656 361.054688 292.222656 356.023438 284 353.746094 C 274.488281 351.109375 264.78125 351 255 351 L 255 352 C 278.460938 360 292.503906 367.753906 307 389 C 282 378.617188 261.328125 371 234 371 L 234 372 C 257.992188 380.125 289 390 300 416 C 284.238281 410.113281 262.828125 403.023438 246 408 L 246 409 C 256.230469 414 267.648438 419.101563 275 428 C 258.507813 424.597656 242.765625 423 226 422 C 229 427.070313 237 429.355469 242 432.71875 C 255.691406 442.132813 272.601563 458.105469 290 459 C 283.601563 465.71875 272.324219 464 264 463.074219 C 237.601563 460.609375 216.652344 446.101563 192 439 C 197 452.597656 217.640625 464.082031 230 470.246094 C 263.421875 487 305.453125 488.648438 339 471.214844 C 366.398438 457 387.734375 434.65625 418 425.027344 C 445.570313 416.257813 470.835938 417.765625 499 418 C 493.433594 410 475.214844 406 466 403.769531 C 438.757813 397.171875 408.65625 399.285156 382 407.746094 C 371 411.191406 360.941406 418.496094 350 421 C 389 383.539063 438.824219 375.625 491 376 C 506.925781 376.109375 536.695313 377.046875 548 390 C 536.839844 390.007813 509 393.484375 503 404 C 541.433594 404 580.804688 420.824219 608 448 C 589 441.566406 572.453125 435 552 435 C 546.402344 435 536.546875 434 533 439 C 545 439.101563 556.933594 445 568 449.398438 C 599 462.0625 625.261719 480 642 510 C 617.382813 489.382813 588 471.429688 555 470 C 558.304688 475 566 477.082031 571 480.335938 C 581.707031 487.421875 592.203125 495.421875 600.828125 505 C 618.507813 524.632813 624.214844 550.535156 637 573 C 625.511719 564.1875 617.53125 549.746094 607.828125 539 C 587.894531 517 564.648438 496.664063 536 487.167969 C 526.929688 484.160156 512.429688 479.035156 503 481 C 514 488.34375 526.332031 493.046875 537 501.515625 C 551.757813 513.230469 560.738281 527.347656 572 542 C 563.21875 535.8125 556.214844 527.511719 547 521.710938 C 530.789063 511.5 502.855469 505.5625 484 510 L 484 511 C 513.289063 516.679688 542.898438 536.464844 556 564 C 535.402344 546.765625 512 531.714844 485 527.324219 C 439.859375 520.003906 399.394531 546.726563 364 570.332031 C 338.703125 587.207031 313.289063 603.695313 289 622 C 298.441406 599.550781 325 582.304688 345 570 L 345 569 C 330.390625 572.472656 316.328125 582.78125 304 591 C 265.769531 616.488281 231.84375 652.558594 215 696 C 209.378906 710.710938 205.945313 725.433594 203.730469 741 C 203.367188 743.539063 201 754.074219 203.519531 755.695313 C 205.738281 757.128906 214.230469 748.582031 216 747.207031 C 227.75 738.066406 240.246094 729.144531 253 721.449219 C 301.46875 692.210938 353.609375 678 410 678 C 476.339844 678 537.316406 705.046875 587.910156 746.765625 C 609.433594 764.511719 627.480469 786 647.960938 804.816406 C 670.277344 825.359375 696.179688 842.121094 718 863 C 702.933594 858.214844 683.789063 854.679688 668 854 L 668 855 C 697.203125 864.734375 732.832031 880.109375 751 906 C 704 883 651.652344 888.785156 603 871 C 585.714844 864.609375 568.546875 857.046875 553 847.140625 C 541 839.546875 526.453125 827.449219 512 826 L 512 824 C 523.457031 824 534.625 826 546 826 C 540.496094 818.484375 525.285156 812.621094 517 808.21875 C 488.371094 793.011719 457.625 782.402344 425 781 L 425 780 C 453.253906 774.753906 483.902344 776.199219 511 786.226563 C 539.332031 796.710938 568 817 598 822 C 593.273438 816 585.867188 811.75 580 806.714844 C 563.667969 792.699219 542.796875 778.257813 529 762 C 548.441406 767.515625 566.886719 776.671875 583.960938 787.449219 C 590.546875 791.609375 595.789063 798 603 801 C 590.554688 779.46875 568 759.574219 548 745.289063 C 478.898438 696.027344 390 689.410156 312 719.0625 C 272 734.210938 236.210938 758.246094 201 782 L 201 783 C 209.882813 782 218.390625 775.535156 227 772.746094 C 250.960938 765 277.664063 757.523438 303 757 L 303 758 C 266.472656 772.089844 225.953125 783.257813 192 803 L 192 804 C 216.816406 801 241.847656 794.070313 267 794 L 267 795 C 250.730469 801.074219 235.488281 808.410156 220 816.242188 C 214.445313 819.054688 205.664063 820.828125 202 826 C 229.570313 823.804688 256 814.003906 284 814 L 284 815 C 262.460938 821.113281 241.699219 829.519531 220 835.265625 C 198.53125 841 176.460938 844.308594 155 850 L 155 851 C 205.6875 851 256.320313 840 307 840 L 307 841 C 285.503906 844.175781 263.300781 854.21875 243 861.773438 C 203.246094 876.5625 164.335938 892.238281 124 905 L 124 906 C 147.222656 906 168.40625 903.753906 191 898.105469 C 204.609375 894.703125 218 889.042969 232 887 L 232 888 C 210.511719 897 191.8125 911.824219 170 920.550781 C 151.628906 928 132.480469 929.15625 114 935 L 114 936 C 132.292969 936 149.957031 935.769531 168 932.390625 C 183.765625 929.433594 200 923.382813 216 922 C 205 931 190 937.011719 177 942.0625 C 144.28125 954.714844 111.414063 961 79 945 C 87.921875 971.246094 121.621094 973.023438 142 983 C 115.652344 989.34375 84.710938 979.785156 69 957 L 68 957 C 68.875 965.53125 74 974 78.835938 981 C 103.753906 1018.320313 146.625 1018.6875 184 1001 C 177.691406 1010 167.390625 1016.554688 159 1023.464844 C 145.816406 1034.316406 133.515625 1046.3125 121 1058 C 114.371094 1064.054688 106.363281 1069.714844 101 1077 C 114.777344 1072.609375 127.871094 1060.5 140 1052.691406 C 173.800781 1031 207.492188 1006.605469 245 991.601563 C 257.253906 986.699219 271.6875 979.609375 285 979 L 285 980 C 264.871094 984.3125 244.410156 999 227 1009.398438 C 159.351563 1050.226563 92 1131 92 1214 L 93 1214 C 103.890625 1179.730469 130.746094 1154.800781 160 1135.332031 C 171.648438 1127.582031 185.472656 1119 199 1115 C 186.453125 1129.457031 170.191406 1141 157.199219 1155.285156 C 126.375 1189.199219 100.316406 1233 94 1279 C 92 1293.015625 90.691406 1311.375 95 1325 L 96 1325 C 98.445313 1268.066406 149.945313 1226.285156 196 1201 C 184 1223.3125 168 1243.058594 156.859375 1266 C 142.753906 1295.058594 134.296875 1326.5625 118.820313 1355 C 110.835938 1369.679688 97.546875 1381.4375 90 1396 C 116 1383.671875 140.589844 1357.457031 159.28125 1336 C 166.429688 1327.792969 175 1319.765625 180 1310 L 181 1310 C 176.707031 1335 156.90625 1361.445313 140.714844 1380 C 135.207031 1386.308594 127.90625 1391.332031 123 1398 C 133 1396.050781 143.402344 1388.160156 152 1382.695313 C 167.714844 1372.710938 183.195313 1362.269531 199 1352.425781 C 242.191406 1325.523438 288.671875 1302.464844 337 1286.355469 C 446.191406 1250 562.820313 1245.21875 677 1248.015625 C 697.648438 1248.519531 718.359375 1252 739 1252 L 739 1254 C 702.878906 1254 666 1257.441406 630 1260 C 480.839844 1270.125 324.753906 1288.058594 201 1381 C 149 1419.785156 112 1472 96.523438 1535 C 91.917969 1553.761719 86.414063 1582.101563 92 1601 C 96.671875 1593.253906 98.859375 1583.230469 103.308594 1575 C 116.589844 1550.445313 132.410156 1527.460938 150.25 1506.003906 C 233.566406 1405.789063 357 1341.765625 482 1311 C 517.234375 1302.28125 552.941406 1297.277344 589 1293.828125 C 604.707031 1292.328125 623.453125 1289.113281 639 1292 L 639 1293 C 606.472656 1295.65625 573 1304.152344 541 1310.550781 C 395.28125 1339.652344 243.289063 1400.722656 155.976563 1528 C 129.199219 1567.027344 110 1610.8125 99.882813 1657 C 97.300781 1668.757813 96 1681 96 1693 C 96 1696.308594 94.535156 1702.746094 96.199219 1705.644531 C 97.796875 1708.425781 102.421875 1707 105 1707.105469 C 113.691406 1707.503906 122.257813 1708 131 1708 C 155.785156 1708 181.460938 1707 206 1710.421875 C 214 1711.566406 224.785156 1711.101563 231 1717 C 206.429688 1718.058594 181.550781 1722.492188 157 1724.828125 C 136.371094 1726.796875 114.210938 1726.175781 94 1731 L 94 1732 C 108.414063 1734.675781 123.429688 1732.09375 138 1733.089844 C 177.707031 1735.808594 218.179688 1736 258 1736 C 288 1736 318.703125 1735 348 1741 L 348 1742 C 271.917969 1748.003906 195 1743 119 1749 L 119 1750 C 185.746094 1755.265625 253 1755.03125 320 1758 C 351.988281 1759.359375 385.609375 1757.507813 417 1765 L 417 1766 C 392.402344 1766.203125 367.585938 1769 343 1770 C 273.34375 1773.011719 202.683594 1774 133 1774 L 133 1775 C 282.34375 1776.234375 431.421875 1786.777344 581 1785 C 635.867188 1784.34375 691.261719 1781.660156 746 1778 C 766.636719 1776.496094 787.316406 1773.425781 808 1773 L 808 1772 C 795.453125 1769.671875 782.65625 1770.777344 770 1770 C 741.773438 1768 713.320313 1766 685 1766 L 685 1764 C 697 1763.378906 708.644531 1757.347656 721 1756.171875 C 751.488281 1753.265625 782.421875 1752.183594 813 1750.089844 C 828.628906 1749.019531 844.355469 1747.722656 860 1747.039063 C 871.6875 1746.527344 884.597656 1747.714844 896 1745 L 896 1744 C 864.742188 1742.65625 833.3125 1741 802 1741 C 788.476563 1741 766 1744 754 1738 C 761.332031 1735 767.460938 1726.648438 775 1725 C 793.277344 1721 817.191406 1725 836 1725 L 969 1725 C 986.980469 1725 1007.25 1722.351563 1024.996094 1725.148438 C 1029.511719 1726 1035.738281 1732.609375 1035.328125 1737.515625 C 1035 1741 1020.683594 1740.398438 1018 1740.714844 C 999 1743 979.878906 1741.613281 961 1744 L 961 1746 C 982.871094 1746 1005.382813 1748.371094 1027 1751.574219 C 1034 1752.628906 1044.371094 1752.105469 1050 1757 C 1029 1757.175781 1007.90625 1760.480469 987 1762 C 942.804688 1765 898.253906 1768.101563 854 1770 L 854 1771 C 878.460938 1775.539063 906 1773.707031 931 1774.003906 C 962.3125 1774.375 993.585938 1776 1025 1776 C 1042 1776 1059 1776.066406 1076 1776.289063 C 1083.867188 1776.394531 1093.347656 1774.304688 1101 1776.511719 C 1109 1778.824219 1117 1785.507813 1125 1789 C 1109.328125 1792.734375 1092 1791.339844 1076 1792.039063 L 990 1796 C 976.558594 1796.550781 962.234375 1795.542969 949 1798 L 949 1799 C 985.507813 1799 1022.585938 1802.417969 1059 1805 C 1098.25 1807.597656 1137.789063 1805.4375 1177 1809.171875 C 1205.507813 1812 1233.851563 1819.695313 1262 1825 L 1262 1826 C 1206.945313 1833 1149.496094 1831 1094 1831 L 1094 1832 C 1198.480469 1840.316406 1303.847656 1853.109375 1409 1846 C 1444.515625 1843.476563 1480.242188 1840.355469 1515 1832.117188 C 1535 1827.351563 1554.738281 1815.773438 1575 1813.285156 C 1644.292969 1804.777344 1714.636719 1806.765625 1784 1798 L 1784 1797 C 1740.378906 1795.128906 1696.628906 1795 1653 1793.039063 C 1637.441406 1792.359375 1616.488281 1797.113281 1602 1791 C 1609.953125 1788 1617.636719 1782.046875 1626 1780.46875 C 1651 1775.734375 1680.46875 1779.609375 1706 1779 C 1747.285156 1778 1788.730469 1775.34375 1830 1775 L 1830 1774 C 1797.367188 1774 1764.65625 1772 1732 1772 C 1705.75 1772 1676.648438 1774.175781 1651 1768 C 1672.632813 1759 1703.84375 1763.496094 1727 1762 C 1782.988281 1758.074219 1839 1755.414063 1895 1751 L 1895 1749 C 1844.332031 1749 1793.675781 1744.082031 1743 1744 L 1707 1744 C 1704.820313 1744 1696.394531 1745.210938 1695.589844 1742.398438 C 1694.941406 1740.125 1698 1736.8125 1699 1735 C 1706.417969 1722.171875 1715.320313 1724 1729 1724 C 1771.675781 1724 1814.28125 1723 1857 1723 C 1868.371094 1723 1879.609375 1722 1891 1722 C 1893.703125 1722 1900.71875 1723.28125 1901.59375 1719.683594 C 1904.460938 1708 1893.558594 1687.128906 1889.832031 1676 C 1874.800781 1631.085938 1849.6875 1589 1820.199219 1552 C 1737.835938 1449.046875 1622.789063 1380.296875 1498 1341.347656 C 1443.914063 1324.46875 1387.402344 1317.324219 1333 1302 L 1333 1301 C 1494.417969 1301.019531 1656.597656 1361.792969 1775 1472.089844 C 1805.230469 1500.25 1832.960938 1530.777344 1857.523438 1564 C 1869.417969 1580.089844 1878.609375 1604.28125 1894 1617 C 1888.816406 1577 1868 1538.445313 1849.742188 1503 C 1843.988281 1492 1834.773438 1481 1831 1469 C 1848 1482.648438 1863.835938 1501.765625 1877.339844 1519 C 1883 1526.386719 1889 1539.164063 1897 1544 C 1881.304688 1486.617188 1834.371094 1438.089844 1789 1402.339844 C 1690.691406 1325 1572.230469 1285.605469 1448 1277.089844 C 1392.730469 1273.300781 1337.265625 1274 1282 1270.089844 C 1259.648438 1268.558594 1235.890625 1268.226563 1214 1263 L 1214 1262 C 1225.402344 1262 1236.644531 1259 1248 1258.089844 C 1279.296875 1256 1310.640625 1253.78125 1342 1253.015625 C 1474.578125 1249.765625 1610.5625 1265.414063 1727 1334 C 1769.355469 1358.761719 1810 1388.203125 1844.574219 1423.285156 C 1857.941406 1437 1871 1450.703125 1883.714844 1465 C 1889 1471.101563 1894 1481 1901 1485 C 1898.210938 1472.105469 1888.996094 1458.117188 1882 1447 C 1866.273438 1421.746094 1846.550781 1400.375 1825.960938 1379 C 1808.796875 1361.175781 1788 1341.390625 1777 1319 C 1820.71875 1337 1851.542969 1374.699219 1894 1394 C 1884.996094 1381.257813 1872.234375 1371.082031 1863 1358 C 1844 1331.085938 1828.996094 1301.632813 1808.195313 1276 C 1795.683594 1260.585938 1778.300781 1248.011719 1767 1232 C 1798.796875 1239.289063 1832.40625 1256.476563 1858 1276.425781 C 1867.546875 1284 1874.832031 1293.535156 1884 1301 C 1882.242188 1283.832031 1870.894531 1263.777344 1862.421875 1249 C 1836.199219 1203.28125 1797 1168 1753 1140 C 1737.421875 1130.0625 1719.863281 1116.15625 1702 1111 L 1702 1110 C 1747.929688 1119.601563 1796.683594 1146.441406 1833 1175.449219 C 1842.441406 1183 1851.761719 1191.199219 1859.746094 1200.289063 C 1864.402344 1205.59375 1868.703125 1213.78125 1875 1217 C 1868.355469 1188.011719 1853.4375 1165.367188 1839 1140 C 1853.699219 1146.34375 1868.210938 1158.652344 1878.195313 1171 C 1883.359375 1177.382813 1888 1188.796875 1895 1193 C 1881.414063 1113.070313 1799.574219 1064.714844 1738 1023.667969 C 1721.988281 1013 1701.8125 1003.324219 1688 990 C 1732.945313 1007.4375 1775.734375 1031.339844 1818 1054.308594 C 1835.550781 1064 1854.589844 1080.097656 1874 1085 C 1868.355469 1077.617188 1859.800781 1072.242188 1853 1066 C 1833.5 1047.753906 1812.691406 1030.792969 1792 1014 C 1799.59375 1013.703125 1807.292969 1016.796875 1815 1017 C 1845.550781 1017.734375 1875.863281 1009.125 1893.300781 982 C 1897.316406 975.753906 1904.859375 964.46875 1904 957 C 1883.390625 978.253906 1860.339844 986.710938 1831 980 L 1831 979 C 1852.988281 978.816406 1882 966.125 1895 948 L 1894 947 C 1853.886719 968.105469 1815.222656 957.78125 1778 935.605469 C 1766 928.53125 1752 920.484375 1743 910 C 1777 918 1809.5 929.476563 1845 931 L 1845 930 C 1802.445313 915.726563 1766.957031 884.347656 1729 861.449219 C 1713.511719 852.109375 1697.71875 843.171875 1682 834.226563 C 1675 830.3125 1666.621094 827.695313 1661 822 C 1703.433594 835.832031 1750 849 1795 849 L 1795 848 C 1774.785156 844.519531 1751.730469 833.355469 1734 823.28125 C 1727.859375 819.792969 1720 817 1715 812 C 1733.609375 813.621094 1751 822 1770 822 L 1770 821 C 1745.761719 811.40625 1722.726563 798.367188 1698 790 L 1698 789 C 1719.363281 789.058594 1745 800.195313 1766 794 L 1766 793 C 1751.914063 791.769531 1737.949219 784.601563 1725 779.398438 C 1694.433594 767.125 1665.566406 751.03125 1635 738.800781 C 1623.527344 734.210938 1611.214844 728.101563 1599 726 L 1599 725 C 1635.203125 728 1671.996094 740.820313 1706 753 C 1718.292969 757.210938 1730.335938 764 1743 767 L 1743 766 C 1718.882813 749.496094 1697.222656 731.078125 1670 719.425781 C 1601.460938 690.09375 1511.773438 695.539063 1446 730 L 1446 731 C 1460.234375 729.160156 1473.511719 726 1488 726 L 1488 727 C 1435.761719 741.714844 1386.992188 762 1344 795.804688 C 1332.980469 804.503906 1315 813.703125 1308 826 C 1341.921875 807.113281 1372.242188 777.757813 1412 771 C 1392.265625 789.175781 1371 807.367188 1348 821 L 1348 822 C 1383 819.136719 1412 799.15625 1445 789.746094 C 1474.410156 781.359375 1501.1875 785 1531 785 L 1531 787 C 1488 789 1457.269531 813.152344 1419 828 L 1419 829 C 1429.300781 831 1440.515625 831.171875 1451 832 L 1451 833 C 1423.667969 840.757813 1396.847656 851 1370 860 L 1370 861 C 1386.640625 861.714844 1403.234375 864.453125 1420 862.828125 C 1445 860.394531 1469.726563 852.144531 1495 851.039063 C 1528.535156 849.570313 1560 855 1592 865 L 1592 866 C 1560.449219 863.511719 1529.292969 864 1499 874.496094 C 1490.84375 877.355469 1475.871094 881.566406 1471 889 C 1482.734375 888.496094 1494.234375 885.03125 1506 885 L 1506 886 C 1496 889.011719 1486.386719 894.609375 1477 899 L 1477 900 C 1486 900 1496 897 1505 899 C 1489.949219 907 1473 911.445313 1457 917 L 1457 918 C 1525.359375 915.0625 1612 883.027344 1671 936 C 1630.835938 922.328125 1592 916 1550 926.476563 C 1507.269531 937.160156 1471.8125 963.632813 1426 955 L 1426 954 C 1434.972656 952.125 1445.347656 949.140625 1453 944 C 1440.59375 942 1425.820313 947.148438 1413 947 C 1395.832031 946.792969 1381.226563 941.4375 1365 937 L 1365 936 C 1388.835938 931.574219 1412.527344 929.460938 1435 919 L 1435 918 C 1416.679688 918.152344 1398.519531 921.179688 1380 920 C 1359.308594 918.492188 1338.652344 912.003906 1318 912 C 1323 906.542969 1334.664063 902.644531 1342 902 C 1339 898 1333.546875 899 1329 899 C 1316.410156 899.003906 1302.253906 899 1290 902 C 1296.6875 896.152344 1305.875 892.253906 1314 888.71875 C 1318 887 1323.523438 886 1326 882 C 1305.1875 883.644531 1284.402344 884.796875 1264 890 C 1248.8125 893.691406 1234.816406 900.179688 1220 905 C 1232.75 894 1247 885.644531 1262 878 L 1262 877 C 1247 879.523438 1233.222656 882.515625 1219 888 C 1234.949219 870.042969 1262.628906 861 1283 849 L 1283 848 C 1268.285156 849.203125 1251.800781 856 1238 861 C 1265.488281 822.785156 1303.777344 789.617188 1342 762.574219 C 1417 709.476563 1499.941406 675.734375 1593 678.015625 C 1619.886719 678.671875 1648 684.570313 1674 691.746094 C 1685.238281 695 1696.488281 701.589844 1708 703 L 1708 702 C 1678.960938 683.492188 1646.839844 663.015625 1614 652 L 1614 651 C 1635.980469 652.75 1656.636719 664 1678 666 C 1672.410156 656.246094 1653.90625 644.496094 1643 642 L 1643 641 C 1653 641.824219 1662 647.257813 1671 651.757813 C 1695.335938 664.097656 1718.675781 682.179688 1734 705 C 1739.886719 713.765625 1746 722.535156 1750.753906 732 C 1752.972656 736.453125 1753.9375 743.011719 1758 746 C 1755.816406 728.738281 1754 711.015625 1746.691406 695 C 1717.355469 631 1643 614.40625 1583 592 L 1583 591 C 1618 591.003906 1654 598.511719 1687 610.238281 C 1700.632813 615.09375 1713.265625 624.035156 1727 628 L 1727 627 C 1713.402344 617.394531 1700.523438 607.175781 1686 599 C 1604.5625 552.308594 1487 519.035156 1399 566 C 1408.984375 554.492188 1423.664063 544.433594 1437 537.179688 C 1465.453125 521.695313 1502.171875 514.722656 1534 521.511719 C 1558 526.648438 1580 538.40625 1602 549.269531 C 1617.226563 556.828125 1632.667969 563.746094 1648 571.027344 C 1656.722656 575.164063 1666.429688 581.511719 1676 583 L 1676 582 C 1649.574219 564.730469 1620.832031 551 1592 538.140625 C 1568.890625 528 1546 518 1521 513.464844 C 1468.289063 504 1412.566406 515.109375 1367 543 C 1373 533.476563 1383.371094 525.285156 1392 518.078125 C 1414 499.636719 1437 486.140625 1463 474 L 1463 473 C 1433.671875 473.605469 1405.84375 485.222656 1383 503.210938 C 1373.40625 510.765625 1365.945313 521 1356 528 C 1368.363281 504.773438 1384.195313 482.722656 1404 465.285156 C 1411.269531 459 1418.867188 453.382813 1427 448.140625 C 1431.226563 445.417969 1437.230469 443.226563 1440 439 C 1384.316406 444.542969 1341.355469 493.339844 1305 530 C 1314.320313 507.613281 1323.761719 484.230469 1340.171875 466 C 1345.566406 460.003906 1351.441406 454.140625 1358 449.429688 C 1362.554688 446.15625 1368.941406 443.765625 1372 439 C 1343.472656 444 1325 460.152344 1301 474 C 1317.734375 451.160156 1335.773438 429.292969 1362 417 C 1374 411.15625 1386.644531 410.183594 1399 406 L 1399 405 C 1379.914063 404.605469 1360.886719 402.488281 1342 407 C 1351.347656 388.539063 1379.316406 382 1397 376 L 1397 375 C 1385 373.476563 1373.800781 374.683594 1362 374 C 1371 366.824219 1380.289063 359.5625 1391 355.015625 C 1397.59375 352.214844 1408.355469 351.234375 1413.675781 346.566406 C 1421 340.039063 1425 329.28125 1432 322 C 1452.273438 300.828125 1477.339844 285.195313 1506 278.578125 C 1515.875 276.300781 1526.964844 273.609375 1537 276 L 1537 277 C 1480.273438 279.472656 1436.210938 338.195313 1416 386 C 1428.980469 380.222656 1439.75 373.175781 1454 369.75 C 1481.441406 363.152344 1513.207031 366.191406 1540 374 C 1552.859375 377.75 1571 383.542969 1580 394 C 1549.644531 376.242188 1500 375.527344 1467 385 C 1457.328125 387.773438 1439.21875 392.808594 1434 402 C 1478.234375 394.507813 1514.589844 398.652344 1557 413 L 1557 414 C 1537.734375 414 1519.667969 412.03125 1501 418.699219 C 1495.757813 420.570313 1487.175781 423.347656 1484 428 C 1507.226563 427.519531 1528.445313 425.816406 1551 433.332031 C 1572.199219 440.398438 1587.816406 455.152344 1607 465.6875 C 1645 486.601563 1692.601563 492.429688 1731 468.574219 C 1741 462.265625 1755.832031 453.082031 1761 442 C 1738.632813 448.441406 1718.640625 460.808594 1695 463.714844 C 1685.558594 465 1676.324219 463.179688 1667 462 C 1671.851563 457.253906 1679.34375 454.605469 1685 450.65625 C 1692.777344 445.222656 1699.539063 438.5 1707 432.667969 C 1711 429.457031 1717.3125 427.441406 1720 423 C 1706.753906 423 1693.800781 424.613281 1681 428 C 1686.167969 421 1696.5 419.59375 1701 413 C 1679.480469 413 1662 419.023438 1642 426 C 1657.726563 403.585938 1680.707031 385.140625 1708 380 L 1708 379 C 1678 375.222656 1654.257813 389.777344 1627 399 C 1641.601563 380.230469 1662 359.039063 1687 357 L 1687 356 C 1670.96875 353.023438 1655.464844 359.484375 1640 362.628906 C 1632.339844 364.183594 1624.734375 363 1617 363 C 1624.34375 352.789063 1636.871094 346.273438 1648 341 L 1648 340 C 1636.234375 340.242188 1624.859375 343 1613 343 C 1620 335.757813 1628.980469 330.8125 1635.816406 323 C 1644.578125 313 1649.925781 296.15625 1651 283 C 1646 286.402344 1643.308594 293.40625 1639.386719 298 C 1631.246094 307.410156 1621.289063 312 1609 312 C 1613.960938 305.511719 1620.734375 300.578125 1625.765625 294 C 1634.902344 282.050781 1640 267 1642 252 C 1632 260.246094 1629.386719 272 1616 277 C 1618.210938 271.25 1622.546875 266.6875 1625 261 C 1619.175781 262.121094 1613.785156 265.359375 1608 267 C 1623.648438 248.128906 1636.785156 229.773438 1637 204 L 1636 204 C 1629.820313 219.613281 1622.296875 240.375 1604 245 C 1616.273438 223 1626.984375 197.789063 1627 172 L 1626 172 C 1621.949219 186.191406 1613.777344 199.359375 1602 208.472656 C 1600.394531 209.714844 1587.996094 218.019531 1586.574219 214.292969 C 1585.277344 211 1592 201.261719 1593.574219 198 C 1600.445313 182.253906 1609.839844 166.308594 1615 150 C 1607.304688 155.464844 1602.898438 164.347656 1595.960938 170.714844 C 1585.277344 180.515625 1573.96875 185.226563 1561 191 C 1570.355469 177 1578.945313 162.289063 1588 148 C 1592.628906 141 1599.316406 134.496094 1603 127 C 1592.445313 130.558594 1582.886719 140.761719 1574 147.371094 C 1559.175781 158.394531 1543 168.144531 1527 177.136719 C 1483.179688 201.585938 1437.183594 219 1396 248.429688 C 1358 275.632813 1328.652344 310.253906 1296 343 C 1300.246094 333.144531 1309.191406 325.828125 1313 316 C 1293.765625 325 1281.796875 346.070313 1265 358 C 1269.496094 344.703125 1279.355469 336.121094 1285 324 C 1264.507813 328.816406 1239.21875 351.492188 1230 370 L 1229 370 C 1231.542969 339 1260.417969 308.578125 1292 306 L 1292 304 C 1272 304 1254 308.535156 1236 317 C 1243.585938 306 1254.367188 298.300781 1267 294 L 1267 293 C 1241 293 1226 302.457031 1207 319 C 1211 295.710938 1229.835938 272.488281 1250 261 L 1250 260 C 1208.441406 269.640625 1188 317.207031 1179 354 L 1178 354 C 1176.941406 329.378906 1176.820313 307.160156 1190.46875 285 C 1195.8125 276.320313 1205.550781 269.789063 1210 261 C 1179.359375 273.078125 1150.425781 311.179688 1146 344 L 1145 344 C 1145 320.195313 1150.761719 303.769531 1159 282 C 1152.308594 285.734375 1146.578125 293.09375 1141.804688 299 C 1129.230469 314.546875 1113.90625 335.171875 1113 356 L 1112 356 C 1104.9375 326.335938 1119.234375 304.28125 1131 279 C 1122.589844 283 1116.511719 291.695313 1111 299 C 1095.761719 320 1086 347.089844 1084 373 L 1083 373 C 1078.464844 355.507813 1077 337.539063 1082.574219 320 C 1084.414063 314.035156 1088.246094 309 1090 303 C 1067 313.769531 1057.726563 349 1052 371 L 1051 371 C 1049.714844 355 1046.457031 340.339844 1049.320313 324 C 1050.824219 315.433594 1056.402344 308.371094 1058 300 L 1057 300 C 1039.464844 325.667969 1030 351.550781 1030 383 C 1021.867188 374.429688 1023 359 1023 348 L 1022 348 C 1013.21875 370.796875 1011.855469 399.257813 1018 423 C 1011 416.511719 1007.980469 404 1005.449219 395 C 996.308594 362.804688 1001.453125 336.242188 1010 305 C 1004 308.546875 1001.414063 317 998.695313 323 C 988.5625 345.480469 992.40625 369.207031 986 392 C 978.816406 375 982 352.652344 971 337 C 969.734375 344.488281 972 352.402344 970.484375 360 C 968.226563 371.296875 961.585938 382.589844 961 394 L 959 394 C 959 367.320313 955.316406 340.621094 942 317 C 938.246094 310.023438 934.410156 302 928 297 C 930.394531 305.300781 935.445313 312.511719 937.621094 321 C 944 346 943.339844 373 933.796875 397 C 930.851563 404.4375 927.820313 413.355469 922 419 C 928.199219 395.808594 931.523438 366.640625 921 344 L 920 344 C 920.328125 360 919.394531 371.515625 915 387 L 914 387 C 913.539063 364.75 909 340 898.742188 320 C 895.257813 313.261719 890.589844 304.011719 884 300 C 887.496094 309.488281 891.972656 317.832031 893.5625 328 C 895.957031 343.335938 893.203125 357.757813 892 373 L 891 373 C 888.402344 352.554688 879.671875 332.226563 866.984375 316 C 862.644531 310.445313 858 303 851 301 C 860.394531 321.210938 867 343.136719 859 365 L 858 365 C 857.273438 329.726563 833.539063 301.742188 812 277 L 811 277 C 814.273438 284.78125 820.25 291.289063 823.878906 299 C 832.1875 316.648438 836.953125 344.515625 829 363 C 823.59375 340.558594 814.710938 319.414063 800.425781 301 C 795.582031 294.757813 790.890625 287.09375 784 283 C 790.960938 305 801 321.632813 798 346 L 797 346 C 793.226563 320.347656 775.398438 292.027344 756 275.421875 C 749.449219 269.816406 741.566406 263.011719 733 261 C 738.398438 268.664063 745.378906 274.820313 750.242188 283 C 763.476563 305.242188 765 327.050781 765 352 L 764 352 C 754 320.527344 742.515625 292.351563 716 270.617188 C 707.582031 263.714844 695 255.132813 684 254 L 684 255 C 706.960938 267.78125 730.933594 294 735 321 C 717.367188 300.625 696.417969 289.226563 669 289 L 669 290 C 682.183594 296 694.730469 301.253906 704 313 C 683.234375 307.019531 664.246094 299.183594 642 299 L 642 300 C 677.363281 309.652344 709.78125 332.246094 715 371 C 698 353.078125 683.53125 329.511719 658 322 C 663.222656 333.261719 671.988281 341.285156 675 354 C 659 342 647 322.347656 629 313 C 632.429688 323.34375 641 331.558594 645 342 C 635.457031 333.671875 627.898438 323.007813 618.996094 314 C 597.308594 292.050781 574.703125 271 550 252.375 C 504.585938 218.257813 452.84375 197 404 168.769531 C 378.445313 154.011719 356.914063 133.417969 332 118 M 672 441 C 664 437.265625 658 428.070313 652.253906 421.574219 C 642 410.070313 630.878906 399 620 388 C 603.515625 371.464844 586.472656 355.527344 570 339 C 532.902344 301.535156 494.609375 262.039063 442 247 C 447.617188 244.8125 456.53125 249.074219 462 251.054688 C 479.226563 257.292969 495.882813 264.277344 512 273 C 580.632813 310.132813 640.894531 368.460938 672 441 M 1469 254 L 1469 255 C 1428 274.523438 1401.257813 306.566406 1369.910156 338 C 1336.828125 371 1299.496094 401.601563 1271 439 C 1269.484375 433.476563 1275.328125 426.648438 1278 422 C 1285.6875 408.621094 1292.71875 394.816406 1301.359375 382 C 1330.539063 338.707031 1376.414063 296.394531 1423 272.511719 C 1436.726563 265.472656 1453.40625 255.359375 1469 254 M 482 304 C 471.601563 301.003906 461.925781 294.25 452 290 C 434.375 282.070313 413.34375 275.832031 394 275 C 399.945313 270.496094 411 273.421875 418 274.421875 C 439.179688 277.488281 468.339844 286.191406 482 304 M 1010 303 L 1011 304 L 1010 303 M 1207 319 L 1207 322 L 1206 322 C 1206.25 320.546875 1206.316406 320.25 1207 319 M 530 325 C 553 340.222656 580.582031 363.527344 585 393 C 568.746094 380 555.683594 359.058594 542.246094 343 C 538.453125 338.46875 529.484375 331.265625 530 325 M 646 342 L 645 343 L 646 342 M 507 354 C 491 355.753906 474 350.8125 458 351.003906 C 439.402344 351.222656 421.347656 356.199219 403 357 C 408.722656 351.265625 419.277344 348.609375 427 346.628906 C 449.742188 340.800781 487.355469 338.144531 507 354 M 353 468 C 377.324219 459.160156 402.550781 448.019531 429 448 C 425.265625 442.691406 414.9375 443 409 443 C 391.765625 443 362 452.023438 353 468 M 1531 452 C 1556 452.003906 1576.539063 463.292969 1600 470 C 1591.75 455.753906 1564.414063 448.050781 1549 448 C 1543.761719 448 1534 447.269531 1531 452 M 368 490 C 356.746094 495.515625 343 497.445313 331 500.472656 C 284 512.203125 232.765625 518.273438 206 564 C 201 572.367188 195.449219 582.328125 194 592 C 206.300781 585.410156 216 572.398438 229 565.3125 C 261.34375 547.546875 295.941406 535.039063 328 516.425781 C 338 510.566406 347.996094 504.453125 358 498.449219 C 361 496.574219 368 494.113281 368 490 M 1597 490 C 1600.421875 495 1607.792969 497.109375 1613 499.757813 C 1622.351563 504.511719 1631.25 510.234375 1640 516.003906 C 1681.167969 543.144531 1725.976563 565.074219 1764 596 C 1763.628906 583.160156 1755.960938 568.300781 1748.707031 558 C 1720 517.300781 1676.550781 509.054688 1631 499.339844 C 1619.574219 497 1608.367188 492 1597 490 M 1545 496 C 1548.414063 501.433594 1557.355469 502.722656 1563 505.308594 C 1577 511.730469 1590.695313 519.058594 1604 527 C 1652.574219 555.355469 1704.859375 583.550781 1747 621.164063 C 1771.21875 642.78125 1790.523438 667.652344 1806.269531 696 C 1811.609375 705.609375 1816.429688 715.804688 1820.546875 726 C 1822.378906 730.53125 1822.976563 737 1827 740 C 1826.996094 687.542969 1798.582031 639 1758 607.015625 C 1737.28125 590.757813 1713.347656 580 1691 566.253906 C 1658.527344 546.464844 1627.394531 523 1592 508.453125 C 1576.671875 502.210938 1560.867188 500.105469 1545 496 M 365 522 C 306.226563 559 236.242188 591.679688 197.945313 652 C 185.238281 672.015625 172 696.644531 172 721 L 173 721 C 177.570313 701.066406 189.589844 683.078125 201.769531 667 C 227.605469 633 259.859375 604.101563 295 580 C 313.511719 567.125 332.453125 555.316406 349 540 C 353.707031 535.527344 363.789063 528.484375 365 522 M 550 588 C 531.921875 580.472656 514.660156 571.726563 496 565.507813 C 489.835938 563.449219 477.546875 562.628906 474 557 C 495 557.175781 516.183594 562 534 573.671875 C 539.863281 577.519531 546.910156 581.507813 550 588 M 124 736 L 125 736 C 157.175781 661.230469 211 600 283 560 C 278.238281 558.679688 271.574219 562.40625 267 564.050781 C 252.984375 569.089844 239.742188 575.714844 227 583.398438 C 174.859375 614.832031 124 671.371094 124 736 M 556 657 C 534.734375 648.054688 516.644531 631.378906 495 622.226563 C 435.234375 597 371 604.316406 318 641.722656 C 301.777344 653.136719 286.992188 667.007813 273 681 C 265.816406 688.183594 259.289063 697.117188 251 703 C 254.570313 683 271.714844 663.496094 284.828125 649 C 334.6875 594 418.363281 569.191406 488 599 C 513.171875 609.570313 547 629.148438 556 657 M 1553 595 L 1553 596 C 1533.554688 596 1514.402344 595 1495 597.285156 C 1438.5625 604.039063 1388.765625 626.601563 1340 654.574219 C 1320.570313 665.71875 1301.84375 679.097656 1286 695 C 1280.726563 700.292969 1273.171875 706.21875 1270 713 C 1286.453125 700.316406 1304.78125 689.527344 1325 684 C 1321.902344 689.117188 1315.722656 692 1311 695.476563 C 1302 702.164063 1293.199219 709.457031 1285 717.089844 C 1260.359375 740.035156 1238.371094 767.242188 1218 794 L 1217 794 C 1219.984375 764.222656 1239.390625 731.667969 1260 711 C 1239.484375 719 1225.921875 742 1208 754 C 1217.355469 726.609375 1243 702 1263 682 C 1320.726563 624.277344 1401.804688 586 1484 586 C 1506.378906 586 1531.65625 587.773438 1553 595 M 756 738 C 736.386719 726.664063 720 704.304688 703 689.285156 C 666 657 629.984375 631.605469 584 614 C 597.214844 608.453125 622.316406 619.636719 635 624.140625 C 686 642.300781 738.796875 685.21875 756 738 M 456 634 L 456 635 C 432.933594 634.519531 410.308594 626.191406 387 626 C 392.609375 622.101563 400.457031 623 407 623 C 424.1875 623 440.671875 625.828125 456 634 M 1070 654 C 1069.628906 671.480469 1058.839844 691.785156 1052.613281 708 C 1042.597656 734.070313 1034.9375 760.648438 1026 787 L 1025 787 C 1025 750.253906 1036.5 719.582031 1052.753906 687 C 1057.992188 676.496094 1062.550781 663.027344 1070 654 M 886 656 C 897.179688 683.214844 913.289063 708.183594 923 736 C 938.53125 779.480469 936.910156 825.570313 916.246094 867 C 909.554688 880.417969 901.402344 899.074219 889 908 C 893.605469 888 903.925781 869.539063 910.253906 850 C 918.660156 824.039063 921.574219 796.113281 917.699219 769 C 913.703125 741.023438 903.214844 714.640625 894.332031 688 C 891.660156 680 882.84375 664.109375 886 656 M 656 695 C 648 683.648438 636 674.21875 625 666 L 625 665 C 641.242188 668.40625 658.527344 680.550781 671 691.132813 C 700.917969 716.527344 724.78125 751.707031 737.332031 789 C 741 800.167969 745.753906 812.101563 746 824 C 734.480469 818.628906 727.339844 805.324219 716 800 C 723.660156 810.117188 731.832031 821 738 832 C 706.492188 821.636719 686.265625 786.695313 665.871094 763 C 655.339844 750.765625 641.207031 740.070313 632 727 C 652 734.375 673.265625 747.515625 689 762 C 682.914063 751.421875 673.398438 742.195313 665.320313 733.089844 C 646.316406 711.664063 625.90625 692 601 677.425781 C 587.707031 669.664063 573.582031 665 560 658 C 567 655.046875 579.730469 659.164063 587 661.003906 C 613.644531 667.746094 632.722656 681.609375 656 695 M 1453 670 C 1449.359375 675.214844 1438.886719 675 1433 676.210938 C 1416.722656 679.675781 1401.179688 685.097656 1386 692 C 1345.34375 710 1307.667969 740 1284 778 C 1296 766 1310.449219 753.390625 1326 746 C 1321.46875 756.140625 1310.527344 764.753906 1303 773 C 1283.730469 794.761719 1262.339844 815.4375 1238 831.667969 C 1229.484375 837.34375 1219.398438 845.640625 1209 847 C 1223.742188 817.363281 1241 784.394531 1262.4375 759 C 1310.710938 701.683594 1378.410156 670 1453 670 M 656 695 C 656.546875 696.636719 656.363281 696.453125 658 697 C 657.453125 695.363281 657.636719 695.546875 656 695 M 853 699 C 856.929688 712.167969 856.910156 727.386719 859.460938 741 C 864.585938 768.398438 873.746094 796.003906 874.960938 824 C 875.449219 835.222656 871.503906 846 871 857 L 872 857 C 877.171875 839.117188 881.632813 821.671875 882.910156 803 C 884.835938 775 880 747.003906 880 719 L 881 719 C 896.640625 759.316406 907.464844 793.265625 899.574219 837 C 894.25 866.53125 876.367188 889.734375 868.921875 918 C 865.222656 932.054688 868.710938 945 869 959 C 864.328125 956 861.578125 949.585938 858.480469 945 C 852.75 936.515625 846.515625 928 840 920 C 840.355469 927 844 932.476563 846 939 C 835.886719 933.148438 828.265625 914.324219 828 903 L 826 903 C 826.378906 912 829.222656 920.386719 831 929 C 822.953125 922.789063 818.5 912.21875 814.800781 903 C 805.648438 880.1875 803.402344 855.125 795 832 C 804 837.824219 808.871094 847.1875 816 855 C 815.425781 849.222656 813.253906 844 813 838 L 814 838 C 817.71875 844.53125 820 851.179688 825 857 C 812.761719 814 803 765 803 720 L 804 720 C 808.171875 738.203125 816.3125 762.726563 830 776 C 827.226563 759.683594 818.984375 742 823 725 L 824 725 C 832 753.464844 843.863281 777.164063 856 804 L 857 804 C 850.910156 777.445313 845 750.421875 848.71875 723 C 849.707031 715.394531 849.355469 706 853 699 M 1103 699 C 1106.941406 720.160156 1105.441406 742.730469 1103 764 C 1101.984375 775.027344 1101 787 1096 797 C 1117.351563 779.308594 1122.691406 749.667969 1130 725 L 1131 725 C 1133.238281 742.699219 1129.535156 756.757813 1127 774 C 1140.488281 761 1149.265625 737.59375 1155 720 L 1156 720 C 1157.609375 731.265625 1155.5 743.761719 1154 755 C 1149.816406 791.242188 1136.566406 826.019531 1127 861 L 1128 861 C 1131.421875 853.675781 1136.511719 838.597656 1143 834 C 1142.636719 842.367188 1139 849.414063 1136 857 C 1144.480469 851.023438 1149.460938 840.449219 1159 836 C 1150 867 1148.265625 909.070313 1118 928 C 1121 917.191406 1128 907.410156 1129 896 L 1128 896 C 1122 912.164063 1106.847656 929.425781 1092 938 C 1092 923.136719 1091.746094 908.765625 1090 894 C 1089.511719 888 1090.183594 879.8125 1086 875 C 1085.371094 887.21875 1077.394531 901.046875 1072.21875 912 C 1070 916.410156 1068.261719 921.394531 1064 924 C 1065.292969 894 1058.980469 864.128906 1064.425781 834 C 1069.515625 805.828125 1085.40625 780.664063 1092.988281 753 C 1096 742 1098.429688 730.367188 1099.84375 719 C 1100.636719 712.636719 1099.964844 704.710938 1103 699 M 1076 711 C 1079.6875 740.179688 1075.992188 775.265625 1065.945313 803 C 1057.964844 825.039063 1044.394531 844.695313 1040 868 C 1036.253906 865.351563 1037.230469 861.179688 1036.828125 857 C 1035.875 847 1035.53125 837.007813 1036.714844 827 C 1040.414063 795.648438 1050 767.652344 1063.230469 739 C 1067.324219 730.089844 1070.324219 719 1076 711 M 1413 770 L 1412 771 L 1413 770 M 660 897 L 660 898 C 640.890625 900.414063 621.175781 900.511719 602 899 C 609 905.671875 627.414063 909.796875 637 910 L 637 912 C 614.527344 914.238281 594 921 571 920 L 571 921 C 580.707031 924.738281 591 926 601 929 C 594.21875 934 584 934.363281 576 935.167969 C 550.835938 937.683594 521.355469 932.578125 498 923 C 514 941.191406 539 948.375 561 956 L 561 957 C 506.695313 977.375 460.25 931.363281 412 917.035156 C 364 902.808594 322.761719 918.6875 279 937 C 288 924.054688 305.300781 915.027344 319 907.625 C 355.710938 887.792969 397.605469 881.226563 439 883.039063 C 454 883.703125 468.957031 886.8125 484 888 L 484 887 C 463.230469 881.019531 444.648438 871.289063 423 867.464844 C 402.222656 863.792969 382.722656 867 362 867 L 362 866 C 409.339844 847.289063 456.289063 856.007813 503 871 L 503 870 C 488.558594 863.136719 475.785156 853 461 846.304688 C 441.597656 837.535156 421.476563 834 401 829 C 406 825.535156 414 827 420 827 C 437.78125 827 454.84375 829 472 834 C 503 842.6875 531.773438 859.175781 562 870.574219 C 593.167969 882.328125 627.402344 890.273438 660 897 M 361 867 L 360 868 L 361 867 M 1742 909.332031 C 1742.773438 909.332031 1742 909.832031 1741.667969 909.667969 L 1742 909.332031 M 499 961 L 499 962 C 489.8125 964.714844 478.445313 963.457031 469 963.039063 C 436.269531 961.59375 400.703125 947.285156 372 932 C 379.507813 929 391.984375 932.179688 400 933 C 434.949219 936.175781 464.734375 956.386719 499 961 M 1673 936 L 1672 937 L 1673 936 M 718 958.289063 C 755.691406 953.394531 765 1010.210938 727 1015.699219 C 688.890625 1021.207031 678.730469 963.390625 718 958.289063 M 1210 958.570313 C 1248.433594 958.523438 1248 1016 1210 1016 C 1171.363281 1016 1171.429688 958.621094 1210 958.570313 M 1113 972 C 1105.78125 994.804688 1094.738281 1015 1090.464844 1039 C 1085.269531 1068.332031 1088.636719 1100.59375 1079 1129 C 1071.246094 1121.082031 1067 1106.523438 1064 1096 C 1054.601563 1061.105469 1063.527344 1024 1086 996 C 1093 987.199219 1102.410156 976.484375 1113 972 M 868 1129 C 861.566406 1095 859.359375 1060.046875 852.550781 1026 C 849.511719 1010.792969 844.25 996.757813 840 982 C 879.515625 1000.316406 891.445313 1059 881.28125 1097 C 878.90625 1106 875.96875 1123.609375 868 1129 M 654 1000 C 653.820313 1021.5625 649.613281 1040.296875 659.492188 1061 C 678.207031 1100.222656 728.484375 1112.480469 763 1086.484375 C 772.5625 1079.285156 781 1069.011719 785.773438 1058 C 788.511719 1051.644531 789.476563 1044 793 1038 C 797.199219 1049.210938 793.90625 1060.589844 793 1072 L 794 1072 C 795 1069.105469 796.191406 1066.496094 798 1064 C 799 1068.601563 798 1073.414063 797 1078 C 800.742188 1074.476563 802.628906 1069.523438 805 1065 L 806 1065 C 805.320313 1097.667969 770.785156 1121 742 1127.210938 C 681 1140.339844 602.332031 1083.542969 628 1017 L 629 1017 C 629 1023.625 629.195313 1029.585938 631 1036 C 633.890625 1028.046875 632.898438 1019.78125 637 1012 L 638 1012 C 638 1018.429688 638.496094 1024.613281 639 1031 L 640 1031 C 640.867188 1020.386719 646 1007.265625 654 1000 M 1295 1009 C 1298.875 1017.253906 1302.785156 1026.796875 1303 1036 L 1305 1036 C 1305 1029.371094 1304.335938 1023.484375 1303 1017 C 1309.234375 1020.601563 1310.855469 1031.285156 1311 1038 L 1312 1038 C 1313.253906 1031.253906 1312.851563 1025.59375 1311 1019 L 1312 1019 C 1324 1038.625 1316.625 1064.792969 1305.421875 1083 C 1281.820313 1121.347656 1234.695313 1138.261719 1192 1124.109375 C 1161.511719 1114.003906 1128.625 1083.171875 1137 1048 L 1138 1048 C 1140.316406 1055.058594 1143.6875 1062 1148 1068 C 1148.742188 1049 1144.589844 1035 1155 1017 L 1156 1017 C 1155.230469 1035 1156.570313 1052.308594 1166.542969 1068 C 1187.867188 1101.554688 1233.394531 1110.34375 1265 1085.480469 C 1282.882813 1071.414063 1291.832031 1052.160156 1294.710938 1030 C 1295.574219 1023.34375 1293 1015.199219 1295 1009 M 586 1086 C 579.648438 1084.171875 574 1080.589844 568 1078 C 576.484375 1086.304688 587 1090.074219 596 1097.339844 C 607.757813 1107 616.574219 1119.476563 629 1128.511719 C 660.902344 1151.707031 702.238281 1160.660156 741 1155.714844 C 766.507813 1152.460938 787.578125 1138.230469 812 1133 C 809.953125 1139.460938 805.324219 1144.648438 803 1151 C 806.523438 1148.5 809.207031 1145.023438 813 1143 C 809 1182.355469 751.351563 1203.761719 718 1208 L 718 1209 C 727.984375 1210.261719 737.941406 1210 748 1210 C 742.238281 1216.300781 729.984375 1219.453125 722 1222.308594 C 696.28125 1231.5 671 1234 644 1234 L 644 1233 C 657.609375 1227.128906 672.207031 1212.097656 679 1199 C 658.285156 1215.695313 626.765625 1227 600 1227 L 600 1226 C 614.425781 1216.265625 630.371094 1200.296875 647 1195 L 647 1194 C 638.386719 1195.289063 630.3125 1200 622 1202.433594 C 604 1208 586.171875 1213.476563 568 1218.265625 C 521.523438 1230.519531 472.371094 1234.355469 425 1242.285156 C 405.363281 1245.574219 385.640625 1255.285156 366 1257 C 375.679688 1245.703125 395.582031 1239.75 409 1234 C 440.488281 1220.507813 473.574219 1216.484375 507 1210.679688 C 522.933594 1208 539.863281 1201.378906 556 1201 L 556 1200 C 541.984375 1200 528 1201.578125 514 1201 C 483.75 1199.636719 452.902344 1196.253906 423 1203.234375 C 404.914063 1207.457031 389.269531 1216.441406 373 1225 C 378 1215 393.722656 1207.371094 403 1201.34375 C 427.351563 1185.527344 455.664063 1176.585938 483 1167.507813 C 494.964844 1163.53125 508.433594 1157.097656 521 1156 L 521 1155 C 467.875 1142.347656 401.722656 1150.710938 361 1190 L 360 1190 C 365.308594 1178.441406 379.855469 1167.632813 390 1160.296875 C 419.613281 1139 456.273438 1125 493 1125 L 493 1123 C 477.695313 1121.664063 463.65625 1118.011719 448 1119.089844 C 415 1121.355469 384 1138.019531 359 1158.613281 C 349.929688 1166.082031 341.441406 1175 333.921875 1184 C 329.449219 1189.355469 325.308594 1196.804688 319 1200 C 338.65625 1146.628906 389.503906 1110.289063 443 1096.578125 C 460.34375 1092.136719 477.789063 1093.738281 495 1091 L 495 1090 C 474.90625 1088.246094 456.722656 1081.132813 436 1082.039063 C 403.585938 1083.460938 369.335938 1097.050781 343 1115.570313 C 332.488281 1123 323.765625 1133.210938 313 1140 C 322.886719 1119.097656 344 1101.273438 364 1090.371094 C 410 1065.121094 467.800781 1061.65625 517 1080 C 509.925781 1072.34375 496.683594 1069 487 1065.667969 C 464.726563 1058.242188 439.410156 1056 416 1058.171875 C 404.371094 1059.277344 392.574219 1062.496094 381 1063 L 381 1062 C 431 1033.496094 507.292969 1044.136719 548 1084 C 541.507813 1063.621094 520 1044.535156 503 1033 C 509.238281 1031.15625 518 1036.757813 524 1039 C 542.4375 1045.308594 559 1055.238281 572.996094 1069.015625 C 577.765625 1073.722656 584 1079.449219 586 1086 M 1445 1033 L 1445 1034 C 1424.574219 1047.78125 1410.21875 1066.222656 1396 1086 C 1435.753906 1058.3125 1479.503906 1041.324219 1529 1051 C 1539.523438 1053.058594 1562.753906 1055.472656 1569 1065 C 1522.375 1055.382813 1461.503906 1055.789063 1424 1090 C 1434.382813 1086.226563 1444 1081 1455 1078.335938 C 1502.335938 1067 1554.210938 1072.019531 1595 1100.28125 C 1609.253906 1110.160156 1624.976563 1123.726563 1632 1140 C 1621 1132.535156 1612 1122.632813 1601 1115.34375 C 1572.269531 1096.554688 1540 1087.164063 1506 1088 C 1490 1088.367188 1468.859375 1090.628906 1456 1101 C 1509.574219 1091.054688 1573 1119.363281 1604.421875 1163 C 1611.835938 1173.308594 1622.726563 1186.242188 1625 1199 L 1624 1199 C 1588.660156 1151.320313 1530.4375 1110 1468 1125 C 1477.308594 1129.480469 1490.695313 1128.339844 1501 1131.273438 C 1525.460938 1138.234375 1547.949219 1151.117188 1566.574219 1168.335938 C 1572.640625 1174 1580.417969 1180.472656 1584 1188 C 1568.847656 1180.265625 1556.6875 1167.300781 1541 1159.785156 C 1508.929688 1144.414063 1475.757813 1144 1441 1144 C 1449.25 1151.175781 1468.425781 1152.691406 1479 1157 C 1503.25 1166.621094 1524.519531 1179.195313 1545 1195.339844 C 1555 1203.226563 1567.441406 1213.324219 1573 1225 C 1562.4375 1219 1553.585938 1210.320313 1543 1204.285156 C 1512 1186.691406 1472.773438 1173.558594 1437 1172 L 1437 1174 C 1458 1176 1482.671875 1191.621094 1501 1201.695313 C 1508 1205.632813 1517.742188 1209.695313 1523 1216 C 1472.515625 1200 1416.261719 1204.640625 1364 1198 L 1364 1199 C 1378.605469 1203 1392.367188 1210.132813 1407 1214.253906 C 1440.714844 1223.757813 1476.777344 1231.136719 1509 1245 L 1509 1246 C 1451.589844 1246 1387.371094 1232.589844 1333 1214.484375 C 1314.21875 1208.230469 1296.398438 1199.734375 1278 1193 C 1295.605469 1210.59375 1317 1227.195313 1341 1235 L 1341 1236 C 1309 1238.523438 1276.433594 1236 1246 1225.050781 C 1237.730469 1222.085938 1221.992188 1218.5625 1217 1211 C 1225 1212.578125 1232.722656 1213 1241 1213 L 1241 1212 C 1201.203125 1200.488281 1147.292969 1188.304688 1131 1145 C 1135.394531 1146 1138.785156 1148.605469 1143 1150 C 1138.207031 1144.054688 1132.660156 1138.253906 1130 1131 C 1155 1138.230469 1176.320313 1152.4375 1203 1155.714844 C 1241.988281 1160.503906 1282.714844 1150.617188 1315 1128 C 1326.484375 1120 1335.285156 1109.179688 1346 1100.328125 C 1356.449219 1091.695313 1369 1086.550781 1379 1077 C 1371.332031 1080.578125 1364.191406 1085.640625 1356 1088 C 1359 1079.78125 1365.890625 1074.03125 1372 1068 C 1389.859375 1050.351563 1419.285156 1034.121094 1445 1033 M 1395 1086 L 1396 1087 L 1395 1086 M 200 1114 L 199 1115 L 200 1114 M 1839 1139 L 1838 1140 L 1839 1139 M 978 1141 C 978 1157.195313 982.960938 1173.390625 987 1189 C 991.996094 1177.160156 988 1163.820313 991 1152 C 999.558594 1164.722656 1007.3125 1180.390625 1012 1195 L 1013 1195 C 1012.730469 1182.011719 1009.550781 1169.734375 1008 1157 C 1023.917969 1165.058594 1031 1191.242188 1035.972656 1207 C 1038.601563 1215.453125 1045.523438 1228 1033 1227 C 1038.394531 1235.148438 1045.800781 1241.648438 1051 1250 C 1044.773438 1248.539063 1039.4375 1244.824219 1033 1243.617188 C 1017 1240.640625 995.824219 1243.734375 981 1250 C 994.757813 1253.273438 1010.863281 1254.097656 1025 1256 L 1025 1258 C 1008.929688 1258.734375 995.464844 1271.574219 979 1272 C 957.722656 1272.515625 941.476563 1259.671875 921 1258 L 921 1257 C 936 1251.253906 951.21875 1252 967 1252 L 967 1250 C 956.238281 1249.449219 945.867188 1244.222656 935 1243.171875 C 921.664063 1242 910.753906 1245.804688 898 1248 C 901.570313 1240.203125 909.394531 1232 917 1228 L 917 1227 C 913.265625 1227.03125 909.695313 1227.53125 906 1228 C 910.246094 1207.582031 919.476563 1169 940 1159 C 937.300781 1170.675781 935.492188 1181 936 1193 L 937 1193 C 938.679688 1180.542969 945 1159.128906 957 1153 C 954.535156 1162.527344 953.949219 1172 958 1181 C 961.253906 1167.332031 963.382813 1148.125 978 1141 M 680 1198 L 681 1199 L 680 1198 M 1175 1232 C 1171 1237.1875 1158.171875 1238.417969 1152 1240.8125 C 1140.191406 1245.390625 1129.273438 1253.464844 1120 1262 C 1132.675781 1255.785156 1143.707031 1252 1158 1252 L 1158 1253 C 1149.515625 1256.253906 1141.539063 1261.082031 1133 1264 L 1133 1265 C 1148 1264.351563 1162.847656 1265.6875 1178 1266 L 1178 1267 C 1164.449219 1268.710938 1140.253906 1269.082031 1130 1279 C 1196.417969 1279 1258.558594 1311 1321 1329 L 1321 1330 C 1301.859375 1330 1282 1325 1263 1323.171875 C 1231.914063 1320.210938 1200.246094 1320 1169 1320 C 1153 1320 1134.445313 1318.324219 1119 1322 L 1119 1323 C 1138.226563 1324.519531 1157 1331.449219 1176 1335.335938 C 1198.726563 1340.023438 1222 1342.078125 1244 1350.390625 C 1256 1355 1272.878906 1360.480469 1281 1371 C 1262.910156 1367.214844 1245.898438 1358.8125 1227 1358 L 1227 1359 C 1238.6875 1361.777344 1258 1371.03125 1265 1381 C 1256.261719 1380.128906 1247.832031 1376.4375 1239 1375.289063 C 1224 1373.347656 1208.914063 1373.191406 1194 1371 C 1198.625 1375.632813 1206 1377.105469 1212 1379.621094 C 1226.433594 1385.722656 1247.664063 1393 1258 1405 C 1209.382813 1397.820313 1165.371094 1366.324219 1117 1358 L 1117 1359 C 1135.242188 1368.3125 1152.195313 1386.804688 1168 1400 C 1174.335938 1405.175781 1183.335938 1410.484375 1187 1418 C 1157.441406 1411.222656 1128.953125 1398.070313 1099 1393 L 1099 1394 C 1121 1403.203125 1151.421875 1420.3125 1162 1443 C 1153.746094 1440.371094 1146.492188 1434.28125 1139 1430 C 1124.9375 1422 1110.613281 1415 1096 1408 C 1104.273438 1418.71875 1116.941406 1425.550781 1125 1437 C 1104.492188 1430.46875 1087.925781 1413.027344 1067 1407 C 1083.714844 1421.453125 1101.792969 1435.328125 1113 1455 C 1095 1445.421875 1080 1430.820313 1063 1419.671875 C 1047.894531 1409.761719 1030.953125 1403.078125 1016 1393 C 1024.964844 1405.71875 1040.300781 1414.441406 1053 1423 L 1053 1424 C 1044.765625 1423.476563 1036.195313 1419 1029 1415.078125 C 1018.828125 1409.644531 1008.636719 1403.566406 1001.789063 1394 C 985.347656 1371.042969 997.65625 1339.785156 1015 1321 C 1031 1303.699219 1055.878906 1303.503906 1071.910156 1287 C 1086 1272.332031 1085.585938 1246.15625 1108 1239 C 1104.78125 1244.21875 1101 1249 1100 1255 C 1121.789063 1236.722656 1147.316406 1232 1175 1232 M 907 1418 L 907 1417 C 919 1410.609375 931 1401.203125 939 1390 C 922.183594 1403.335938 901.753906 1410.617188 884 1422.519531 C 871.210938 1431.09375 858.25 1445.488281 844 1451 C 849.40625 1430.207031 872.765625 1415 888 1402 C 865.203125 1408.691406 848.210938 1428.023438 827 1437 C 831.1875 1424.6875 848 1412.339844 860 1408 L 860 1407 C 832.328125 1411.144531 815.886719 1434.367188 792 1445 C 800 1420.40625 832.707031 1398.59375 856 1390 L 856 1389 C 844.628906 1390.132813 833.277344 1394.429688 822 1396.539063 C 807.773438 1399.199219 793.183594 1399.367188 779 1402 C 782 1396.089844 789.699219 1392.042969 795 1388.15625 C 808.199219 1378.476563 822.226563 1366 837 1359 L 837 1358 C 827.515625 1359.402344 818.296875 1363.804688 809 1366.265625 C 791.316406 1371 773.257813 1375 756 1381.050781 C 744 1385.257813 731.40625 1392.140625 719 1394 L 719 1393 C 728 1387.789063 736.4375 1381.371094 746 1376.785156 C 752.605469 1373.617188 761.574219 1372 767 1367 C 745.632813 1369.703125 724.6875 1371.648438 705 1381 C 711 1372.484375 720.359375 1366.828125 727 1359 C 712.382813 1361 698.507813 1367.457031 685 1373 C 702.414063 1345.335938 748.546875 1341.484375 777 1333.574219 C 789.847656 1330.003906 803.605469 1324.585938 817 1324 L 817 1322 C 798 1322 778.820313 1320.800781 760 1322.089844 C 736.523438 1323.695313 712.5 1327.804688 689 1328 L 689 1327 C 694.878906 1324.601563 700.585938 1322.292969 707 1322 L 707 1321 C 683.371094 1319.027344 654.417969 1327 632 1334 C 638.820313 1323 663.269531 1317.292969 675 1312.601563 C 717.960938 1295.414063 761.714844 1285.40625 807 1277 L 807 1276 C 791.761719 1274.070313 773.578125 1273.308594 759 1269 L 759 1268 C 772.359375 1267.722656 785.601563 1265.003906 799 1265 C 790.585938 1258.105469 780.734375 1257.648438 771 1254 C 784 1246.195313 804.644531 1255 817 1260 C 807.417969 1249.042969 789.378906 1242.296875 775 1242 L 775 1240 C 804.300781 1237.6875 822.269531 1245.480469 846 1262 C 841.515625 1251.335938 832.488281 1244.214844 826 1235 C 841 1236.507813 856 1247.816406 863.203125 1261 C 868 1270 870 1280.316406 877 1288 C 891.609375 1303.828125 915.269531 1304.484375 930.910156 1319.285156 C 959.320313 1346.175781 964.671875 1391 927 1411.074219 C 920.824219 1414.390625 914 1417.386719 907 1418 M 1119 1262 L 1120 1263 L 1119 1262 M 1787 1609 L 1786 1609 C 1722 1519.007813 1626.683594 1448.535156 1528 1401.484375 C 1480.644531 1379 1430.609375 1364.238281 1382 1345 C 1390 1341.660156 1403.914063 1348 1412 1350.117188 C 1438.195313 1357 1463.472656 1365.0625 1489 1374.140625 C 1576 1405.136719 1657.816406 1458.816406 1723 1524 C 1740.5 1541.5 1756.289063 1560.683594 1770.414063 1581 C 1776.425781 1589.648438 1784 1598.757813 1787 1609 M 542 1354 C 546.40625 1373.183594 534.953125 1394.542969 529 1412 C 539.277344 1403.101563 546.601563 1391.269531 557 1382.289063 C 569.9375 1371.117188 587.546875 1365 604 1361 C 599.894531 1369.425781 589.445313 1377 583 1384 C 570.824219 1397.511719 558.460938 1413.148438 548 1428 C 566.515625 1416 586.292969 1406.109375 605 1394.320313 C 618 1386.066406 631.511719 1374.492188 646 1369 C 639.46875 1386.257813 626.265625 1407.34375 615 1422 C 640.292969 1408 662.585938 1405.414063 691 1406 C 687.695313 1410.488281 679.96875 1412.117188 675 1414.484375 C 664.832031 1419.335938 650.65625 1425.714844 643 1434 C 666.589844 1426.089844 687.851563 1420.148438 713 1422 C 721 1422.472656 731 1422.605469 738 1427 C 718.855469 1432.5 691 1426 675 1442 C 704.410156 1436.296875 733.929688 1440.363281 763 1446 L 763 1447 C 747.785156 1449 725.722656 1447.300781 713 1457 C 735.503906 1457 763.652344 1454.546875 784 1466 L 784 1467 C 771.429688 1466.402344 760.277344 1470 748 1471 L 748 1473 C 769.6875 1473.179688 793.171875 1483.203125 811 1495 L 811 1496 C 800 1495.773438 788.875 1492.375 778 1491 L 778 1492 C 804.628906 1500.546875 834 1524.492188 846 1550 C 839 1547.351563 834 1541.46875 828 1537.347656 C 815 1528.457031 799.890625 1519.089844 785 1514 C 804.933594 1535.828125 827.550781 1554.015625 834 1585 C 828 1581 824.472656 1572.523438 819.855469 1567 C 808.257813 1553.128906 793.300781 1537.320313 777 1529 C 783.425781 1538.132813 790.988281 1546 796.214844 1556 C 809.808594 1582.15625 813.5625 1616.378906 802.601563 1644 C 798.378906 1654.640625 790.785156 1669 780 1674 C 784.574219 1662 792.179688 1652.203125 794.535156 1639 C 800.921875 1603.195313 782.6875 1563.683594 756 1540 C 762.285156 1561.820313 770.277344 1578.457031 769.996094 1602 C 769.925781 1608.011719 770 1620.125 765 1624 C 764 1604.007813 756.429688 1585 748 1567 C 732.808594 1534.234375 715 1502.511719 683 1483.453125 C 667 1474.015625 650.632813 1471.03125 633 1467 C 638.476563 1472.117188 646.738281 1474.703125 653 1479.027344 C 673.648438 1493.273438 703.289063 1517.597656 708 1544 L 707 1544 C 700 1533.257813 685 1518.65625 673 1514 C 699.941406 1553.40625 719.644531 1608.480469 699.425781 1655 C 693.46875 1668.699219 684.203125 1682.367188 671 1690 C 675.226563 1679.074219 684 1670.460938 688 1659 C 701 1622.394531 696.941406 1572.039063 666 1545 C 688.8125 1588 689 1657 645 1688 C 646.636719 1681 651.867188 1675 654.304688 1668 C 660.503906 1650.234375 662.195313 1630.347656 658 1612 L 657 1612 C 656.953125 1629.015625 648 1649.828125 634 1660 C 635.246094 1651.570313 638.582031 1643.648438 638.960938 1635 C 640.203125 1606.648438 630.5625 1576.171875 614.410156 1553 C 610.777344 1547.789063 607.796875 1541.113281 603 1537 C 606.957031 1551.800781 614.367188 1570.464844 611 1586 C 609.214844 1583.640625 606.859375 1573.425781 604 1573 C 602.554688 1572.707031 602.285156 1581 602 1582 C 600.8125 1591.519531 598 1600.820313 593 1609 L 592 1609 C 592.769531 1571.777344 587.679688 1530.433594 561.816406 1501 C 549.492188 1487 535.855469 1478.253906 520 1469 C 525.628906 1476.511719 533.484375 1482.375 539.253906 1490 C 553.929688 1509.402344 562.886719 1531.621094 569 1555 C 560.488281 1547.347656 555.207031 1532.46875 548 1523 C 533 1503.023438 513.863281 1485.171875 492 1473 C 502.925781 1485.617188 514.679688 1495.285156 523.414063 1510 C 543 1543.222656 548.371094 1589.179688 538 1626 L 537 1626 C 537 1604 528.914063 1581.574219 514 1565 C 522.441406 1591 519.457031 1611.101563 515 1637 L 514 1637 C 514 1614.246094 509.707031 1580.679688 492 1564 C 500.816406 1598.074219 490.40625 1655.515625 455 1672 C 458 1665.105469 463.988281 1660 467 1653 C 476.65625 1632 474.988281 1613.199219 472 1591 L 471 1591 C 470.9375 1613.199219 458.90625 1646.066406 438 1657 C 440.773438 1647.378906 446.324219 1638.777344 449 1629 C 456.230469 1603.789063 452.179688 1581.21875 444 1557 L 443 1557 C 441.859375 1578.753906 440.585938 1609 417 1620 C 422.550781 1600.730469 433.832031 1579.433594 424 1559 C 420.289063 1572.191406 415.765625 1582.597656 408 1594 L 407 1594 C 409.878906 1582 415.191406 1570.414063 417.386719 1558 C 421.539063 1534.476563 416.441406 1498 398 1481 C 401.257813 1503.15625 406.796875 1536.199219 387 1553 C 388 1539.65625 389.578125 1527.453125 389 1514 C 384.4375 1519.238281 382.441406 1528.671875 378.851563 1535 C 364 1561 351.554688 1587.382813 338.246094 1614 C 331.449219 1627.59375 323.28125 1645.578125 311 1655 C 312.804688 1645 318.808594 1635 321.726563 1625 C 326.714844 1608 329 1590.3125 333 1573 L 332 1573 C 329.652344 1578.585938 325.832031 1583.601563 323 1589 L 322 1589 C 322.757813 1574.238281 329.402344 1559.324219 337 1547 C 317.589844 1560.710938 308.921875 1586.199219 291 1601 C 292.792969 1589.019531 299.601563 1577 304.625 1566 C 314.867188 1543.722656 323.34375 1521.667969 341 1504 C 330.582031 1506.253906 319.773438 1513.785156 311 1519.671875 C 273.78125 1544.625 251.964844 1587.726563 241 1630 L 240 1630 C 240 1590 259.546875 1548.71875 287 1520 C 296.246094 1510.382813 309 1505.023438 318 1496 C 302.226563 1497.582031 284.464844 1508.503906 272 1517.757813 C 266.726563 1521.675781 262.207031 1527.714844 256 1530 C 272.800781 1491.058594 322.726563 1469.109375 363 1469 L 363 1468 C 337.988281 1463.289063 317.699219 1465.367188 293 1469 C 296.8125 1462.71875 306.503906 1459 313 1455.78125 C 338.742188 1443.679688 365.757813 1445.640625 389 1461 C 380.460938 1442.734375 359.84375 1423.820313 339 1422 L 339 1420 C 371.839844 1420 404.597656 1423 432 1442 C 423.78125 1429.015625 415.589844 1415.0625 406 1403.039063 C 401.539063 1397.445313 395.457031 1393.527344 391 1388 C 421.585938 1388.632813 436.71875 1406.65625 442 1435 L 443 1435 C 447.558594 1411.488281 458.910156 1374.367188 486 1368 L 486 1369 C 474.238281 1379.285156 466.257813 1400.621094 465 1416 L 466 1416 C 471.835938 1390.554688 503.539063 1382.582031 518 1364 L 519 1364 C 517.792969 1377.816406 508.320313 1387.046875 503 1399 C 512.554688 1391.707031 521.734375 1385.789063 529 1376 C 534.234375 1369.175781 536.609375 1360.503906 542 1354 M 1339 1391 C 1347 1399.316406 1353 1409.566406 1361 1418 C 1369.648438 1427 1380.515625 1433.558594 1391 1440 C 1384.644531 1426.289063 1376.691406 1417.136719 1376 1401 L 1377 1401 C 1390.457031 1422.265625 1411.339844 1436.390625 1432 1450 C 1421.972656 1434 1410.6875 1416.257813 1403 1399 C 1423.503906 1406.761719 1440.542969 1425.558594 1452.855469 1443 C 1458.726563 1451.320313 1464.777344 1460.546875 1465 1471 L 1467 1471 C 1467.285156 1464.375 1469.199219 1457.628906 1468.894531 1451 C 1468.199219 1435.707031 1460.265625 1424.101563 1452 1412 C 1485.644531 1419.625 1493.964844 1448.601563 1487 1478 L 1488 1478 C 1501.800781 1451.273438 1540.605469 1446.664063 1567 1450 L 1567 1451 C 1546.421875 1460 1527.652344 1469.023438 1518 1491 C 1534.398438 1477 1552 1475 1573 1477 C 1579.378906 1477.519531 1591 1478.480469 1595 1484 C 1575.351563 1484 1559.730469 1488.761719 1542 1497 L 1542 1498 C 1569.710938 1495.242188 1609.277344 1491.726563 1632 1513 C 1624.507813 1514.113281 1616.605469 1510.203125 1609 1510.015625 C 1593.671875 1509.632813 1580 1512.507813 1565 1514 L 1565 1516 C 1607.855469 1516 1660.28125 1543 1673 1587 C 1665.765625 1581.167969 1660 1573.382813 1653 1567.300781 C 1639.382813 1555.628906 1623.703125 1547.273438 1607 1541 C 1614.246094 1549 1624.429688 1554 1631.910156 1562 C 1658.238281 1590.265625 1677.972656 1627.519531 1678 1667 L 1677 1667 C 1672.449219 1655.109375 1670 1642.695313 1664.691406 1631 C 1651.980469 1603.238281 1631.289063 1578.414063 1606 1561.328125 C 1596.972656 1555.230469 1586.980469 1547 1576 1545 C 1594.722656 1563.726563 1606.847656 1589.597656 1616.601563 1614 C 1621.632813 1626.589844 1626.886719 1641.328125 1627 1655 L 1626 1655 C 1613.28125 1627 1594.207031 1599.351563 1573 1577 C 1577.742188 1594.347656 1584.558594 1610.757813 1586 1629 L 1585 1629 C 1576 1610 1561.632813 1594.339844 1550 1577 C 1544.425781 1568.691406 1537.527344 1559.300781 1537 1549 C 1528.683594 1557.144531 1533.902344 1577.308594 1537 1587 C 1515 1569.769531 1522.671875 1532 1529 1510 C 1488 1555 1519.714844 1608.164063 1536 1656 C 1528.789063 1651 1523.429688 1643.101563 1518.292969 1636 C 1508.351563 1622.253906 1494.378906 1605.828125 1494 1588 C 1487.648438 1594.222656 1490 1610.578125 1490 1619 C 1490 1652.222656 1499.378906 1680.472656 1508 1712 C 1498 1706.214844 1491.300781 1690.675781 1485.714844 1681 C 1469.355469 1652.65625 1455 1624.367188 1455 1591 C 1450 1596.722656 1449.566406 1606.714844 1448.574219 1614 C 1445 1640.066406 1452.917969 1662 1461 1686 L 1460 1686 C 1439 1656.378906 1426.1875 1617.695313 1433 1581 L 1432 1581 C 1425.488281 1597.785156 1419.363281 1614.820313 1418 1633 C 1417 1648.226563 1419.351563 1663 1420 1678 L 1419 1678 C 1402.886719 1649.382813 1398.433594 1612.820313 1405 1581 C 1390 1595.816406 1389.625 1629.523438 1391 1649 L 1389 1649 C 1386.441406 1634 1382 1620.570313 1382 1605 C 1369.875 1621.664063 1375.496094 1649.128906 1377 1668 C 1368 1660.414063 1364.789063 1644 1362 1633 C 1353.542969 1597.640625 1363 1555.289063 1384 1526 C 1390.617188 1516.78125 1399.695313 1510.441406 1407 1502 C 1374 1521.367188 1352.375 1548.464844 1332 1580 L 1331 1580 C 1335.859375 1555.027344 1349.941406 1530.347656 1366 1511.089844 C 1370.867188 1505.433594 1377.542969 1501.808594 1382 1496 C 1349.445313 1511.40625 1324.941406 1536.074219 1313.746094 1571 C 1309.675781 1583.699219 1309.832031 1597.390625 1306 1610 L 1305 1610 L 1304 1590 L 1303 1590 C 1297 1606 1291.789063 1622 1291 1639 C 1290.59375 1649.175781 1292.917969 1659 1293 1669 L 1292 1669 C 1279.785156 1645.042969 1275.902344 1619.289063 1281 1593 L 1280 1593 C 1270.292969 1616.3125 1262 1637.398438 1261 1663 C 1260.492188 1675.46875 1263.46875 1687.625 1264 1700 L 1263 1700 C 1251.203125 1679.710938 1243.480469 1654.539063 1243 1631 C 1242.835938 1622 1245.28125 1613.011719 1246 1604 L 1245 1604 C 1229.667969 1649.316406 1220.769531 1688.808594 1243.371094 1734 C 1249.367188 1746 1258.445313 1755.148438 1266 1766 C 1249.816406 1762.195313 1235 1742.507813 1227 1729 C 1200.878906 1685 1203 1632.476563 1220 1586 C 1185 1624.191406 1192.804688 1677.027344 1199 1723 L 1198 1723 C 1180.171875 1692.453125 1177.785156 1656.035156 1183.75 1622 C 1186.195313 1608.054688 1189.367188 1592.507813 1198 1581 C 1187.914063 1588.109375 1182.1875 1602 1172 1608 C 1173 1597 1179.34375 1585.613281 1184.523438 1576 C 1200.4375 1546.480469 1225.84375 1522 1258 1511 L 1258 1510 C 1173.746094 1516.703125 1117.78125 1605.027344 1118 1684 C 1111.960938 1680 1110 1667 1108.921875 1660 C 1105.921875 1642.203125 1108.203125 1621.710938 1115 1605 C 1117.652344 1598.53125 1122.324219 1593.332031 1125 1587 C 1102.222656 1609.792969 1088.3125 1635.566406 1086 1668 C 1085.417969 1677.789063 1087.800781 1687.273438 1088 1697 L 1087 1697 C 1070 1660.738281 1076.464844 1622.089844 1097.320313 1589 C 1105 1576.703125 1115.957031 1562.402344 1130 1557 L 1130 1556 C 1113.792969 1560 1095.988281 1570.636719 1084 1582.039063 C 1076.886719 1588.804688 1069.578125 1600.617188 1061 1605 C 1067.359375 1578.46875 1090.226563 1557.105469 1112 1542.667969 C 1121.371094 1536.453125 1132.589844 1530 1144 1529 L 1144 1528 C 1124.824219 1526.539063 1108.402344 1534.242188 1090 1537 L 1090 1536 C 1112.507813 1520 1137.710938 1515.332031 1164 1509 L 1164 1508 C 1154.578125 1507.257813 1135.734375 1510.261719 1128 1505 C 1154.394531 1495 1179.265625 1494 1207 1494 L 1207 1493 C 1191.523438 1488.609375 1177 1486 1161 1486 L 1161 1485 C 1191.226563 1473.277344 1215.9375 1479.546875 1247 1482 L 1247 1481 C 1227 1475.246094 1208.414063 1465.058594 1187 1465 L 1187 1464 C 1217.355469 1453.722656 1251 1459 1281 1467 C 1269.238281 1451.304688 1248.179688 1445.3125 1236 1431 C 1272.539063 1431.753906 1303.585938 1446 1336 1461 C 1319.910156 1441.785156 1305.242188 1423 1293 1401 C 1320.363281 1404.578125 1335.457031 1432.523438 1357 1446 C 1350 1431.265625 1342.292969 1419.644531 1339.9375 1403 C 1339.347656 1399 1337.347656 1395.058594 1339 1391 M 888.667969 1401.332031 C 888.222656 1401.777344 889.277344 1401.722656 889.332031 1401.667969 C 889.777344 1401.222656 888.722656 1401.277344 888.667969 1401.332031 M 1064.667969 1405.332031 C 1064.222656 1405.777344 1065.277344 1405.722656 1065.332031 1405.667969 C 1065.777344 1405.222656 1064.722656 1405.277344 1064.667969 1405.332031 M 528 1412 L 529 1413 L 528 1412 M 975 1453 C 994.316406 1458.574219 1014.757813 1480.8125 1027 1496 C 1017.9375 1494.433594 1010.410156 1488.273438 1004 1482 C 1005.375 1488.007813 1009.175781 1493.117188 1011 1499 C 1002.292969 1497 998.839844 1490 992 1485 C 993.949219 1493.207031 999.453125 1500.511719 1000 1509 C 992.203125 1505 986.847656 1497.363281 980 1492 C 979.996094 1498.402344 979.203125 1503.367188 976 1509 C 972.554688 1503.515625 973 1497.25 973 1491 C 967 1498.066406 960.835938 1506.578125 952 1510 C 954.367188 1501.691406 957 1493.453125 959 1485 C 952.574219 1491.507813 946.847656 1498 938 1501 C 939.480469 1495.238281 943.488281 1490.382813 946 1485 C 939 1489.785156 932.683594 1495.109375 924 1496 L 933 1487 C 929.675781 1489 926.636719 1491 923 1492 C 930.71875 1481.074219 943.554688 1470.570313 954 1462.199219 C 957.226563 1459.613281 962.296875 1454.042969 966.695313 1453.828125 C 970.761719 1453.628906 971.3125 1466.117188 972 1469 C 972.222656 1469.824219 973 1474 974.671875 1472.792969 C 977.335938 1471.097656 975 1456.324219 975 1453 M 1831 1469 C 1829.6875 1468.230469 1829.769531 1468.3125 1829 1467 C 1830.636719 1467.546875 1830.453125 1467.363281 1831 1469 M 933 1486 L 934 1487 L 933 1486 M 973.332031 1489.667969 C 973.277344 1489.722656 973.222656 1490.777344 973.667969 1490.332031 C 973.722656 1490.277344 973.777344 1489.222656 973.332031 1489.667969 M 921 1493.332031 L 921.332031 1493.667969 C 920.839844 1493.832031 920.226563 1493.332031 921 1493.332031 M 319.667969 1495.332031 C 319.222656 1495.777344 320.277344 1495.722656 320.332031 1495.667969 C 320.777344 1495.222656 319.722656 1495.277344 319.667969 1495.332031 M 776 1528 L 777 1529 L 776 1528 M 1265 1701 L 1264 1702 L 1265 1701 M 546 1807 L 546 1808 C 555 1810.179688 564.707031 1808.285156 574 1809.171875 C 611 1812.691406 648.792969 1812 686 1812 C 699 1812 711.988281 1811 725 1811 C 733.3125 1811 743 1812.363281 751 1810 C 736 1803.773438 713.929688 1808 698 1807 C 647.285156 1803.4375 596.777344 1807 546 1807 "/></g></svg>