<?xml version="1.0" encoding="UTF-8"?>
<svg xmlns="http://www.w3.org/2000/svg" xmlns:xlink="http://www.w3.org/1999/xlink" width="2000pt" height="2000pt" viewBox="0 0 2000 2000" version="1.1">
<g id="surface1">
<path style=" stroke:none;fill-rule:nonzero;fill:rgb(0%,0%,0%);fill-opacity:1;" d="M 1430 172 C 1425.226563 199.632813 1396.6875 225.1875 1377 243 C 1386.464844 226.371094 1394.988281 209.699219 1395 190 C 1389.699219 193.628906 1386.589844 204.417969 1382.921875 210 C 1374.640625 222.601563 1364.910156 234.234375 1355 245.574219 C 1332.316406 271.535156 1305.859375 294.085938 1282 319 C 1268.609375 333.042969 1257.765625 349.386719 1245 364 C 1249.882813 337.800781 1245.8125 312.230469 1248 286 C 1242.4375 288 1242.613281 298 1241.242188 303 C 1236.589844 320.492188 1232.496094 338.304688 1228.5 356 C 1218 402.039063 1201.183594 446.585938 1182.773438 490 C 1172.308594 514.675781 1156.210938 543 1154 570 L 1153 570 C 1141.941406 510.433594 1179 452.191406 1194.425781 397 C 1200.304688 376 1207.796875 344.53125 1201 323 L 1200 323 C 1197.886719 349.757813 1182.84375 373.832031 1172.621094 398 C 1168.1875 408.492188 1164 424 1156 432 C 1156 415 1156.488281 398.496094 1150.691406 382 C 1148.871094 376.824219 1147.8125 370.15625 1143 367 C 1143.988281 390.007813 1141 406.1875 1134 428 L 1133 428 C 1133 412.742188 1133 398.074219 1131 383 C 1130.839844 381.445313 1129 369.371094 1127.285156 370 C 1125.421875 370.496094 1125.484375 376.453125 1125.28125 378 C 1124.179688 386.34375 1122.449219 395 1120.292969 403 C 1114.378906 425.367188 1110.488281 447.28125 1102 469 C 1098.738281 477.566406 1094.75 489.640625 1088 496 C 1092 483.226563 1092 468.332031 1092 455 C 1092 428.242188 1090 403.769531 1076.421875 380 C 1070.804688 370.210938 1060.335938 354.179688 1049 351 C 1052.9375 360 1058.261719 367.238281 1060.5 377 C 1070.597656 421.003906 1050 471.65625 1010 494 C 1026.285156 471 1035 448.546875 1035 420 C 1034.964844 413.109375 1034.214844 397 1028 393 C 1030.917969 408.71875 1026.226563 430.554688 1016 443 C 1016.664063 427.542969 1016.976563 413.109375 1012.695313 398 C 1011.214844 392.769531 1011 385.804688 1006 383 C 1006 398.722656 1006.484375 422.242188 994 434 C 998.210938 415.578125 991.203125 385.566406 976 373 C 977.367188 382.132813 981.261719 390.605469 981.910156 400 C 983.976563 430.019531 973.242188 464.503906 953 487 C 957.90625 458.050781 961.226563 432.011719 953.410156 403 C 951 394.046875 947.460938 379 939 374 C 942.464844 394.457031 946.515625 413.492188 940 434 C 933.496094 420.488281 936 401.648438 931 387 L 930 387 C 930 402.597656 929 417.761719 925.40625 433 C 922 447.136719 914.667969 461.394531 914 476 L 912 476 C 911.996094 442.492188 900 410 900 376 C 895 379.214844 894.386719 386.707031 892.796875 392 C 887.902344 408.324219 886 424 886 441 C 877.25 429.644531 874.425781 411 877.59375 397 C 879.484375 388.710938 884.75 378.378906 884 370 C 866.910156 388.253906 858.972656 427.230469 866 451 C 851.261719 437.738281 859.527344 417.753906 855 402 C 850.394531 408.617188 848.90625 419.132813 847.585938 427 C 843.933594 448.78125 841.929688 473.164063 846 495 C 827.433594 478 825.3125 441 817.34375 418 C 814.972656 411.207031 812.75 397.359375 807 393 C 807.371094 411 808.773438 428 808 446 L 807 446 C 805.207031 433.8125 801.609375 422.261719 796.652344 411 C 794.695313 406.566406 793.339844 401.5 789 399 C 790.890625 420.675781 791 441.171875 791 463 L 789 463 C 788.921875 454.03125 784.757813 446.238281 781.625 438 C 776.367188 424.179688 771 409.746094 763.546875 397 C 759.949219 391 755.273438 382.382813 749 379 C 754.234375 419.523438 754.601563 458.59375 746.515625 499 C 744.46875 509.222656 745.222656 523.351563 739 532 C 735.601563 513.691406 736.773438 494.449219 733.535156 476 C 727.597656 442.160156 714.917969 411.589844 696 383 L 695 383 C 696.628906 399.234375 705.644531 415.789063 709 432 C 703.484375 426.542969 700 417.757813 696.28125 411 C 686.464844 393.730469 678.300781 376.445313 671 358 L 670 358 C 670 377.15625 679.453125 395.070313 681 414 L 680 414 C 676.613281 402.261719 667.324219 392.695313 661.640625 382 C 659 377.3125 657.671875 370.824219 653 368 C 657.996094 406.660156 681.894531 441.332031 693.65625 478 C 703 507.554688 701 532.789063 701 563 L 699 563 C 698.558594 547.730469 689.507813 531.382813 684.742188 517 C 670.847656 475.046875 654 434.511719 634.246094 395 C 625.675781 378 615.460938 354 600 342 C 599.953125 348.011719 603.957031 354.316406 605.976563 360 C 609.925781 371.121094 613.890625 382.636719 617 394 C 600 377.09375 582.585938 361.804688 563 348.035156 C 544.878906 335.296875 525.171875 324.617188 508 310.535156 C 496.683594 301.253906 485.972656 291 476.171875 280 C 470.371094 273.578125 465.695313 265.449219 459 260 C 458.886719 275.316406 474.847656 293.15625 482 306 C 461.5 289.476563 437.511719 283.222656 412 280 C 413.59375 285.472656 424 287.003906 429 289.417969 C 442 296 454.570313 303.671875 463 316 C 451.386719 311 442 301 429 299 C 433 306.78125 441.5625 313.070313 448 319 L 447 320 C 430.183594 307.679688 414.222656 297 400.425781 281 C 392.402344 271.710938 384.226563 253.066406 374 247 C 375.796875 257.425781 382.375 268 387.578125 277 C 399.449219 297.757813 414 318 431 335 C 412.773438 322.210938 395.1875 307.273438 379 292 C 371 284.519531 362.621094 271.699219 353 267 C 363.902344 295.769531 393 317.765625 412 341 C 388.585938 325.707031 362.972656 314.695313 336 307 C 339.269531 316.15625 359.738281 324.527344 368 329.285156 C 394 344.257813 429.3125 364.824219 429 400 C 419.925781 393.261719 402.1875 388.175781 391 391 C 408 404.785156 428.34375 409.613281 434 434 C 418.457031 424.449219 399.914063 420.804688 382 426 L 382 427 C 396.949219 432.0625 412 431.542969 422.363281 446 C 426.21875 451.382813 428.203125 458.652344 426.972656 465.269531 C 426.480469 468 424 470.304688 424.707031 473.089844 C 425.835938 479 431.679688 484.457031 434 490 C 425.675781 482 414 473.785156 403 470 C 406.925781 482.230469 428.976563 495 424.933594 510.683594 C 423.941406 514.554688 408.636719 513.808594 405 514.464844 C 390.960938 517 378.535156 523.023438 365 527 C 360 528.441406 350.804688 529.667969 348 534 C 371.960938 533 396.925781 528.714844 421 529.019531 C 454 529.433594 489 536.558594 521 545 C 517.757813 538.214844 509.582031 535.046875 503 532.074219 C 486.527344 524.640625 466.285156 517.050781 448 517 L 448 516 C 485 507.183594 520.183594 535.078125 554 543 C 550.914063 537.195313 542.714844 533.488281 537 530.515625 C 520.800781 522.074219 499.375 510.601563 481 509 C 489.710938 501.425781 510.425781 508.164063 521 509 C 515.617188 502.566406 505.480469 500.828125 498 497.457031 C 479 489 458.972656 474.089844 438 472 L 438 471 C 458.773438 471.015625 479.621094 476 500 479.574219 C 521.699219 483.488281 541.976563 486.226563 562 496 C 558.234375 488.164063 547.984375 482.460938 541 477.652344 C 524.613281 466.375 502.394531 455.65625 489 441 C 503.527344 443.5 518.328125 452 532 457.398438 C 583.726563 478.109375 640.636719 511.3125 666 563 C 626.292969 528.652344 581.195313 504.007813 527 504 C 529.953125 509.109375 537.777344 511.140625 543 513.539063 C 554.761719 519 566.34375 525.046875 577 532.433594 C 608.371094 554.1875 630.308594 580.375 648 614 C 627.808594 593.382813 606.269531 576 578 567.589844 C 570.3125 565.324219 562.898438 564.566406 555 563.828125 C 553.882813 563.726563 547.308594 562.175781 547.921875 565 C 548.507813 567.5625 553.972656 569.546875 556 571 C 562.949219 575.378906 569.46875 580.789063 576 586 C 596.507813 602 618 623.585938 633 645 C 604.488281 628.773438 576 613.027344 542 613.027344 C 521.222656 613.027344 502 619.582031 482 623 L 482 625 C 524.226563 625 566.542969 633 594 669 C 583 663.160156 573 656.496094 561 652.714844 C 519.222656 639.550781 466.242188 646.230469 429 668.796875 C 415 677.226563 394.433594 691 389 707 C 408.207031 696.304688 425.230469 683.503906 446 675.460938 C 486.308594 660 528.753906 664.226563 569 677.359375 C 581 681.289063 592 687.632813 604 692 L 604 693 C 546.601563 677.808594 486.828125 684.804688 434 712.109375 C 395.1875 732.167969 356.484375 775.207031 309 766 C 311.855469 774.203125 332.496094 775 340 775 C 371.980469 775.050781 399.972656 764.070313 429 752 C 408.1875 774.113281 376.675781 789.636719 347 795.308594 C 334.914063 797.617188 319.789063 799.320313 308 795 C 309.96875 801.136719 318.378906 802.15625 324 803.621094 C 339.628906 807.695313 354.953125 808.402344 371 806 L 371 807 C 359.910156 811.640625 349.6875 818 338 821.289063 C 297.480469 832.746094 246.898438 828.234375 217.285156 795 C 208 784.640625 202.578125 774.480469 197 762 L 196 762 C 196.558594 775 200 789.355469 205.757813 801 C 210.683594 811.027344 216.578125 821.082031 224.914063 828.675781 C 253.757813 855 296.445313 862.746094 334 854.113281 C 355.835938 849.09375 374.550781 839.511719 395 831 C 370 856.753906 339.941406 875.277344 307 889 C 289.273438 896.367188 270.90625 903 254 912.179688 C 248.203125 915.324219 240.433594 918.144531 236 923 C 259.828125 923.738281 288.96875 918.09375 312 912 C 288.617188 933.519531 247 958.152344 214 952 C 224 962.464844 245.183594 957 258 960 C 238.632813 970.714844 215.628906 980.199219 193 976 C 197.535156 984.226563 215.8125 982.519531 224 983.167969 C 265.363281 986.429688 296.203125 951.070313 333 939 C 323.636719 951.246094 309.988281 960.242188 301 973 C 308.664063 971.183594 315.246094 964.808594 322 961 C 336.167969 952.578125 353.253906 942.621094 369 938 C 354.800781 955.4375 336.316406 970.640625 317 982.136719 C 301 991.617188 282.964844 998.710938 269 1011.175781 C 255.890625 1023 246.886719 1038 240 1054 C 253.460938 1047.730469 261 1039.257813 277 1038 C 265.34375 1048.703125 254.644531 1058.628906 247.257813 1073 C 237.480469 1092.03125 233 1113.585938 218.710938 1130 C 209.417969 1140.554688 196.980469 1144.683594 185 1151 L 185 1152 C 193.53125 1154.347656 204 1150.628906 212 1147.394531 C 241.636719 1135.320313 253 1104.042969 274 1082.269531 C 292.839844 1062.714844 317.625 1055.566406 343 1049 C 337.773438 1054.578125 330.308594 1056.796875 324 1061 C 312.480469 1068.5 301.554688 1078.746094 295 1091 C 301.625 1088.75 306.207031 1083 312 1079.101563 C 321.40625 1073 334.703125 1067.492188 346 1067 L 346 1068 C 312 1079.660156 303.191406 1124.5625 285.328125 1151 C 275.429688 1165.652344 259.855469 1174 249 1187 C 281.605469 1182 306.898438 1153.1875 330 1133 C 313.894531 1181.019531 268.644531 1194.433594 235.464844 1227 C 202.542969 1259.308594 184 1316 129 1316 C 134.527344 1323.261719 154.339844 1318 162 1316.335938 C 183.96875 1311.832031 204.777344 1303 227 1299.324219 C 240.273438 1297.171875 256.574219 1300.414063 269 1297 L 269 1296 C 252.433594 1289.453125 236.617188 1288 219 1288 L 219 1287 C 245.804688 1276.660156 273.5625 1272.761719 302 1278.449219 C 314 1281 325 1286.457031 337 1289 C 325 1273.378906 302.488281 1274.796875 289 1263 C 304.519531 1263 319.992188 1262.53125 335 1267.179688 C 351.410156 1272.269531 368.199219 1283.390625 385 1286 C 378.328125 1277.355469 366.757813 1270.785156 358 1264.269531 C 343.441406 1253.433594 328.886719 1241.78125 316 1229 C 331.386719 1234.597656 346.273438 1241.371094 362 1246.386719 C 375.636719 1250.734375 390 1253.074219 403 1259.523438 C 411.964844 1264.003906 418.917969 1270.328125 427 1276 C 427.457031 1255.746094 409.71875 1231.203125 398 1216 C 417 1223 436.859375 1235.429688 450.960938 1250.003906 C 455.769531 1255 459.980469 1260.527344 464.195313 1266 C 465.457031 1267.636719 467.570313 1271.792969 470 1271.792969 C 474.996094 1271.792969 479 1258 480 1254 C 487.652344 1262.820313 496 1279.398438 506 1285 C 505 1263 495.171875 1237.113281 483 1219 C 509.453125 1230.773438 536 1260.167969 548.21875 1286 C 552 1294.246094 555.382813 1304.082031 555 1313.285156 C 555 1314.691406 553.808594 1321.792969 556.195313 1321.792969 C 559.214844 1321.792969 561.671875 1314.164063 562.753906 1312 C 567.960938 1301.582031 571.339844 1290.660156 575.921875 1280 C 587 1254 612.964844 1228.011719 643 1225 L 643 1226 C 620.652344 1235.644531 600.457031 1258.757813 604.4375 1284 C 606 1295 610.492188 1305.238281 612.777344 1316 C 613 1317.207031 613.542969 1325.734375 615.714844 1325.078125 C 617.839844 1324.4375 619.234375 1314.117188 619.851563 1312 C 623.863281 1298.199219 628 1285.390625 635.601563 1273 C 654 1242.273438 690 1215.113281 726 1209 C 718.980469 1215.765625 709 1220.21875 701 1225.6875 C 684.316406 1237 667.171875 1251.089844 657.3125 1269 C 648 1285.621094 646.179688 1304.480469 644.910156 1323 C 644.765625 1325.113281 642.226563 1340.792969 644.253906 1340.792969 C 650.410156 1340.792969 659.609375 1325.007813 664 1321 C 664.265625 1332.339844 667.558594 1340.617188 664 1352 C 671.652344 1349.648438 678.96875 1338.777344 686 1334.089844 C 702.671875 1323 725.875 1315.167969 746 1315 L 746 1316 C 716.828125 1324.402344 695 1349.816406 689 1379 C 697.792969 1377.304688 706.707031 1371.402344 715 1368 C 729.824219 1361.558594 744.402344 1357 758 1348 C 747.253906 1367.300781 731.519531 1382.230469 719 1400 C 756.277344 1406.238281 788 1401.007813 820 1380 C 808.472656 1400.035156 788.871094 1414.402344 767 1421.140625 C 759.742188 1423.375 751.601563 1425.761719 744 1426.238281 C 742.457031 1426.335938 736.535156 1425.21875 735.921875 1427.300781 C 735.328125 1429.316406 740.925781 1430 742 1430.285156 C 748.691406 1432.085938 755.449219 1434.238281 762 1436.503906 C 776.835938 1441.632813 791.789063 1450.179688 808 1449.742188 C 819.855469 1449.421875 829.796875 1444.425781 840 1439 C 833 1457.125 809.324219 1470.640625 790 1468.800781 C 779.597656 1467.8125 770 1463.097656 760 1461 C 764.8125 1470.035156 781 1477.171875 789 1484.167969 C 807 1500.230469 823.300781 1520.066406 844 1533 C 852.925781 1538.484375 862.820313 1539.765625 872 1544 C 851.308594 1552.429688 825.445313 1541.261719 808 1529.480469 C 801.992188 1525.425781 797.554688 1519.058594 791 1516 C 796.523438 1532.691406 808.90625 1559.230469 823 1570 C 785.523438 1568.59375 773 1524.328125 754.769531 1500 C 745.234375 1487.339844 734.753906 1477 722 1467.476563 C 716 1463.15625 706 1459.605469 701.84375 1453.785156 C 698.605469 1449.359375 699 1443.085938 697.703125 1438 C 695 1429 691.402344 1420.140625 686.546875 1412 C 667 1379.507813 628.527344 1362 592 1359 C 597.464844 1368.632813 613.753906 1375.089844 621.804688 1383.4375 C 647.449219 1410.046875 664 1441.417969 664 1479 L 662 1479 C 661.234375 1464.050781 648.445313 1439.460938 637 1430 C 638 1436.019531 641.617188 1441.175781 643.433594 1447 C 647.296875 1459.382813 650 1472.132813 651.710938 1485 C 653.171875 1496.257813 650 1507.6875 650 1519 L 649 1519 C 645.308594 1503.492188 644.421875 1488.160156 638.570313 1473 C 623.972656 1435.164063 594.191406 1404.015625 560 1383.253906 C 546.910156 1375.308594 528.582031 1364 513 1363 L 513 1361 C 531 1363.285156 549.59375 1367.570313 566 1375.714844 C 573.199219 1379.285156 578.910156 1385.515625 586 1389 C 582.355469 1378.261719 570.246094 1367.289063 562 1359.832031 C 536.742188 1337 511.308594 1324 477 1324 C 466 1324 441 1322.789063 435 1334 C 450.441406 1332.78125 461.464844 1340.722656 476 1342 L 476 1344 C 467.609375 1344 450 1344.28125 445 1352 C 451.335938 1352 456.832031 1352.589844 463 1354 L 463 1355 C 422.675781 1361 382.730469 1401.617188 370 1439 L 369 1439 C 362.738281 1399.667969 397.34375 1369.097656 429 1355 L 429 1354 C 405.558594 1354.066406 374.820313 1365.652344 358 1382.039063 C 349.738281 1390.109375 345 1401.164063 337 1409 C 343.996094 1375.097656 368.429688 1332.46875 406 1326 C 402.695313 1321 395.46875 1319.488281 390 1317.667969 C 375 1312.691406 357.8125 1309.078125 342 1309 C 321.890625 1309 300.804688 1312.425781 282 1319.746094 C 271.941406 1323.660156 262.472656 1330.398438 252 1333.015625 C 238.785156 1336.320313 224.421875 1332.546875 211 1334.289063 C 186.472656 1337.476563 168.289063 1349.464844 149 1364 L 149 1365 C 158.226563 1366.046875 170.390625 1361.085938 180 1360.171875 C 191 1359.121094 203.425781 1362.027344 214 1365 L 214 1366 C 177.511719 1374.6875 125 1384.054688 107 1423 C 128.351563 1416.363281 145.925781 1409.0625 169 1409 L 169 1410 C 121.410156 1426 82.382813 1468.285156 78.910156 1519 C 78.308594 1527.78125 77.480469 1538.476563 80 1547 L 81 1547 C 85.828125 1537.136719 87.359375 1526 92.640625 1516 C 104.660156 1493.382813 127.609375 1474.078125 151 1464 C 118.9375 1499 105 1550.484375 105 1597 C 105 1608.035156 102.820313 1636 113 1643 C 113 1625.53125 116.320313 1613.0625 123 1597 L 124 1597 C 124.632813 1627.65625 134 1659.453125 147 1687 L 148 1687 C 148 1679 151.8125 1672.003906 152 1664 C 158 1669.652344 158.574219 1682.257813 161.613281 1690 C 168 1706.457031 178.316406 1724.65625 193 1735 C 191.828125 1727 185.511719 1719.695313 182.695313 1712 C 175.457031 1692.210938 170 1673 167 1652.089844 C 157.363281 1584.554688 170.632813 1514.21875 204.578125 1455 C 228.496094 1413.273438 260.40625 1383 310 1379 C 295.640625 1393.515625 274.386719 1395.652344 264 1416 C 270.46875 1415 276.390625 1412 283 1411 C 258.8125 1432.507813 241.816406 1455.066406 231.507813 1486 C 228.738281 1494.296875 224.558594 1503.226563 224 1512 C 229.40625 1508.074219 232.304688 1500 237 1495 C 245.660156 1486 255.804688 1479.277344 265 1471 C 261 1483.59375 254 1495 250.757813 1508 C 244 1534.078125 245.613281 1560 251 1586 C 232.453125 1572.308594 229.273438 1542.675781 234 1522 C 229.320313 1524.570313 227.664063 1531.230469 225.574219 1536 C 219.578125 1549.699219 215.835938 1564.425781 212.574219 1579 C 201.980469 1626.355469 192.625 1678.507813 212.285156 1725 C 218 1738.722656 229.4375 1761.632813 245 1766 C 237.421875 1745.296875 227.429688 1727.625 236.265625 1705 C 238 1700.210938 242.980469 1689.527344 248.789063 1688.632813 C 252 1688.132813 254.972656 1695 256.667969 1697 C 261 1702.347656 267.214844 1705.789063 274 1707.320313 C 279.648438 1708.597656 290.550781 1703 294.363281 1705.019531 C 303.984375 1710.339844 304.882813 1728.328125 316 1734 C 312 1711.175781 307.171875 1692.066406 314.351563 1669 C 315.835938 1664.238281 324 1636.488281 330.425781 1648.023438 C 334.347656 1655.085938 329.285156 1661.738281 330.1875 1669 C 330.5625 1671.792969 334 1672.207031 334 1675.148438 C 334.464844 1683.027344 329.628906 1692.183594 328.324219 1700 C 324.613281 1722.214844 326 1740.476563 338 1760 L 339 1760 C 339.941406 1748.71875 339.777344 1740.0625 346 1730 C 346.992188 1728.488281 349.996094 1722 352.5 1723.207031 C 354.425781 1724.148438 354 1728.265625 354.285156 1730 C 355.238281 1737.632813 354.511719 1745.410156 355.878906 1753 C 359 1770.8125 365.617188 1787.226563 374.304688 1803 C 377.925781 1809.574219 382 1817.707031 389 1821 C 384.9375 1789.03125 389.761719 1755.546875 422 1739.269531 C 438.527344 1731 458.867188 1730.773438 474 1720 C 478.382813 1738.40625 467.433594 1749.050781 460 1764 C 477.507813 1761 495.976563 1746.039063 511 1737 C 515.472656 1734.308594 522.644531 1727 527.871094 1726.539063 C 532.53125 1726.269531 534.570313 1736.679688 535.460938 1740 C 539.75 1756 534 1769.269531 529 1784 C 536.902344 1783 544.390625 1775.3125 550 1770 C 566 1754.53125 580 1737 598 1723.476563 C 602 1720.441406 611 1711.601563 616.191406 1711.457031 C 619.449219 1711.363281 621.347656 1716.636719 622.445313 1719 C 626.308594 1727.328125 627.707031 1737 626.246094 1746 C 624.855469 1754.585938 620.789063 1761.730469 619 1770 C 636.664063 1759.78125 642 1732 647 1714 C 648.324219 1709.164063 651.492188 1691.40625 656 1689.207031 C 659 1688 660.6875 1696.375 661 1698 C 664 1708.632813 662.460938 1716.410156 662 1727 C 680.21875 1713 693.585938 1688.078125 706 1669 C 709.359375 1664 712.40625 1658.46875 715.246094 1653.003906 C 715.910156 1651.722656 717 1648.054688 719 1648.054688 C 721.503906 1648.054688 723 1654.222656 723.644531 1656 C 726.722656 1665.144531 728 1674.394531 728 1684 C 731.324219 1681.472656 731.371094 1677 732.425781 1673 C 735.421875 1662 737.996094 1650.480469 738 1639 C 738 1634.460938 735.980469 1624 741 1621.601563 C 748.507813 1618.390625 762 1621 770 1621 L 1158 1621 C 1166.992188 1621 1182.609375 1618 1190.847656 1621.601563 C 1196.921875 1624.285156 1193.792969 1643.355469 1194 1649 C 1194.832031 1667.105469 1202.402344 1703.203125 1223 1709 C 1217 1694.738281 1212.222656 1683 1215.246094 1667 C 1215.675781 1664.722656 1218.925781 1651.578125 1222.550781 1653.207031 C 1227.34375 1655.359375 1232.636719 1667.789063 1237 1671.828125 C 1249 1683 1265 1688.332031 1276.425781 1700.171875 C 1288.617188 1713 1296 1734.828125 1313 1742 C 1307.738281 1727.523438 1302.480469 1717.574219 1308 1702 C 1308.828125 1700 1314 1687.539063 1317 1690 C 1321.34375 1693.105469 1323.539063 1707 1325.605469 1712 C 1331 1725.496094 1341.574219 1739.613281 1355 1746 C 1353.488281 1738.175781 1347.355469 1732.132813 1346.210938 1724 C 1345 1716.164063 1346.957031 1700.683594 1357 1699 C 1360.9375 1698.316406 1366.492188 1701.746094 1370 1703.285156 C 1390 1712.128906 1408.253906 1724.652344 1424 1740.015625 C 1429.367188 1745.25 1435.660156 1754 1443 1756 C 1440.472656 1741.773438 1434.585938 1729 1437.820313 1714 C 1438.574219 1710.511719 1441 1701.519531 1445.328125 1701 C 1449 1700.304688 1454.632813 1705.367188 1458 1706.824219 C 1466.414063 1710.464844 1474.46875 1708.773438 1482 1704 C 1484 1714.3125 1476.832031 1720.390625 1473 1729 C 1482.675781 1727.335938 1492.289063 1721.660156 1500 1715.765625 C 1502.53125 1713.828125 1507.847656 1707.046875 1511 1707.054688 C 1514.347656 1707.0625 1516.6875 1716.53125 1517.429688 1719 C 1522 1734.273438 1518 1747.25 1514 1762 C 1522.835938 1759.46875 1530.648438 1746.53125 1535.316406 1739 C 1536.628906 1737 1539 1729.054688 1542 1729.054688 C 1546.910156 1729.054688 1553.667969 1741.339844 1555.933594 1745 C 1565.242188 1760.035156 1567.726563 1780.316406 1561.949219 1797 C 1559.730469 1803.410156 1554.546875 1808.558594 1553 1815 C 1574.699219 1803 1589.632813 1780.503906 1593 1756 C 1594.640625 1744.0625 1594.53125 1731.71875 1597.527344 1720 C 1598.347656 1716.800781 1599.246094 1710.617188 1602.558594 1709 C 1605.582031 1707.371094 1609 1712.070313 1610.675781 1714 C 1617.535156 1722.171875 1618.917969 1731.257813 1622 1741 L 1623 1741 C 1627 1730.1875 1625.273438 1712.804688 1633.910156 1704.296875 C 1637 1701.25 1639 1705.390625 1640.390625 1708.003906 C 1643.640625 1714.410156 1644.996094 1721 1645 1728 L 1646 1728 C 1649.78125 1721.382813 1655.347656 1703.171875 1664 1701.632813 C 1667.339844 1701.058594 1668.835938 1708 1669.414063 1710 C 1672 1719.75 1673.378906 1731 1671.851563 1741 C 1669 1759.167969 1657.65625 1768.785156 1650 1784 C 1690.171875 1772.425781 1708.867188 1732 1718 1695 C 1729.457031 1714.445313 1733.480469 1736.253906 1725.949219 1758 C 1723.550781 1765 1718.285156 1770.21875 1716 1777 C 1749.257813 1762.453125 1769.976563 1717.6875 1770 1683 C 1779 1690.769531 1779 1703.464844 1782 1714 L 1783 1714 C 1796.226563 1680.585938 1817.304688 1649.058594 1819 1612 L 1820 1612 C 1825.375 1625 1829.492188 1637 1830.828125 1651 C 1830.992188 1652.722656 1829.828125 1663.792969 1831.9375 1663.792969 C 1834.40625 1663.792969 1836.640625 1655.832031 1837.457031 1654 C 1841.296875 1645.390625 1843.878906 1636.0625 1846.421875 1627 C 1847 1624.4375 1847.289063 1618.488281 1849.601563 1617 C 1851.722656 1615.398438 1855.816406 1617.617188 1858 1618.222656 C 1866 1620.453125 1873.707031 1624.757813 1882 1626 C 1878.382813 1605.703125 1857 1587.535156 1848 1569 C 1863.972656 1580 1883.824219 1584.5625 1903 1587 C 1898.578125 1579.578125 1889.503906 1574.183594 1883 1568.574219 C 1866.738281 1554.554688 1843.8125 1538.703125 1833 1520 C 1849.804688 1532 1875 1535.332031 1894 1543.78125 C 1900.601563 1546.722656 1909.984375 1554.425781 1917 1554 C 1906.921875 1538.761719 1893 1526.066406 1881.464844 1512 C 1853 1477.464844 1827 1443.644531 1784 1427 L 1784 1426 C 1803.890625 1426 1823.707031 1426.085938 1842 1435.222656 C 1852 1440.230469 1859.335938 1449 1869 1454 C 1866.910156 1446 1859.671875 1439.230469 1854.410156 1433 C 1833.578125 1408.335938 1797.925781 1395 1766 1396 L 1766 1395 C 1783.34375 1388.488281 1796.972656 1389 1815 1389 C 1810.808594 1383.226563 1800.492188 1379.414063 1794 1376.664063 C 1772.464844 1367.542969 1747.207031 1363.28125 1724 1367.320313 C 1715.742188 1368.757813 1704 1376 1696 1375 C 1686.914063 1373.769531 1674.785156 1362.746094 1666 1359 C 1643.679688 1349 1619.96875 1346.527344 1596 1349.71875 C 1587.992188 1350.785156 1576.703125 1352.339844 1570 1357 C 1597.539063 1366.398438 1625.449219 1373.261719 1645.714844 1396.003906 C 1650.890625 1401.816406 1659 1410 1660 1418 C 1642.652344 1397.136719 1610.179688 1385.449219 1584 1381 C 1587.566406 1387 1595.980469 1390.132813 1601 1395.039063 C 1615.191406 1409 1631.359375 1432 1629 1453 L 1628 1453 C 1623.3125 1437 1609.363281 1422.257813 1597 1411.574219 C 1575.679688 1393.15625 1549.230469 1379 1521 1375.289063 C 1509.433594 1373.78125 1497.652344 1375 1486 1375 L 1486 1374 C 1505 1369.472656 1519.8125 1363 1540 1363 L 1540 1362 C 1517.933594 1352.503906 1485.789063 1351.566406 1464 1362.273438 C 1456 1366.183594 1447.5 1378.320313 1439.828125 1380.324219 C 1435.867188 1381.359375 1429.800781 1377.015625 1426 1376 C 1416.960938 1373.167969 1405.476563 1370.75 1395.996094 1371.394531 C 1349.578125 1374.535156 1307.722656 1419 1294 1461 L 1293 1461 C 1292.996094 1435.445313 1295.476563 1414.71875 1312.464844 1394 C 1318.195313 1387.007813 1326.21875 1382.648438 1332 1376 C 1322.953125 1374.046875 1309.710938 1378 1301 1381 C 1277.605469 1388.496094 1256.8125 1401.675781 1234 1410.800781 C 1222.402344 1415.4375 1206 1421.175781 1198 1431 C 1210.292969 1432.519531 1224.925781 1428 1238 1429 L 1238 1430 C 1226.675781 1433.332031 1215.769531 1442.089844 1207 1449.71875 C 1182.871094 1470.703125 1166.628906 1497.554688 1154.800781 1527 C 1151.546875 1535.097656 1144.960938 1542.652344 1143 1551 C 1155.648438 1543.0625 1163.210938 1529 1174 1519 C 1171.609375 1536.757813 1168.632813 1555.628906 1158.816406 1571 C 1140 1600.273438 1102.953125 1607.523438 1071 1605 C 1078.1875 1599.804688 1088 1598 1096 1593.410156 C 1110.335938 1585.1875 1122.59375 1570 1127 1554 C 1113.644531 1560.21875 1104 1571.621094 1088 1572 L 1088 1571 C 1096.25 1567.507813 1101.59375 1559.402344 1106.1875 1552 C 1116.402344 1535.523438 1122.753906 1516.433594 1131 1499 C 1122.40625 1503.550781 1117 1513.507813 1109 1519.359375 C 1087.46875 1535.085938 1069 1535.054688 1044 1533 L 1044 1531 C 1085 1527.761719 1106.816406 1496.679688 1136 1472.613281 C 1143 1467 1150.3125 1460.789063 1158 1456 C 1159 1455.269531 1165.945313 1452.492188 1164.652344 1450.496094 C 1163.40625 1448.566406 1156.777344 1451.257813 1155 1451.5625 C 1146.289063 1453.066406 1136.710938 1454.074219 1128 1452.113281 C 1100.835938 1446 1075.9375 1428 1066 1401 C 1074.359375 1408.222656 1081.820313 1415.632813 1092 1420.449219 C 1130.355469 1438.601563 1167.394531 1422.363281 1201 1402 L 1201 1401 C 1164.988281 1402.546875 1142 1383 1125 1352 C 1146.492188 1366.15625 1169.492188 1377.480469 1196 1374.828125 C 1217.359375 1372.695313 1236.230469 1360.25 1258 1363 C 1246.355469 1344.5 1219.875 1342 1205 1328 C 1229 1328 1249 1334 1272 1340.269531 C 1277.511719 1341.816406 1294.265625 1348.730469 1299.382813 1346.304688 C 1302.492188 1344.828125 1299.265625 1331 1298.910156 1328 C 1296.171875 1304.746094 1277.367188 1290 1261 1276 C 1280.398438 1282.5625 1299 1294.054688 1313.996094 1308.089844 C 1320.707031 1314.417969 1327.269531 1329.277344 1336 1332 C 1330 1305.765625 1325.722656 1283.160156 1308 1262 C 1330.996094 1274.238281 1347.679688 1291.152344 1361.5625 1313 C 1368.171875 1323.398438 1377.601563 1347.210938 1390 1351 C 1382.238281 1318.394531 1403.742188 1295.445313 1427 1277 C 1424 1283.289063 1420 1289.128906 1418.457031 1296 C 1414.820313 1311.714844 1420.328125 1325.640625 1421 1341 C 1424.347656 1337.722656 1424.246094 1333.152344 1426.273438 1329 C 1429.882813 1321.601563 1435 1314.742188 1441 1309.039063 C 1462 1288.664063 1491.492188 1279.421875 1519 1271.578125 C 1529.820313 1268.492188 1541.703125 1264.234375 1553 1264 L 1553 1265 C 1528.171875 1274.15625 1501 1299.816406 1506 1329 L 1507 1329 C 1525.453125 1290.242188 1571.214844 1287.054688 1607 1274.308594 C 1623 1268.59375 1636.742188 1259.132813 1652 1252 C 1641 1269.625 1625.613281 1285.386719 1611 1300 C 1607.980469 1303.019531 1594.351563 1312.542969 1594.34375 1317 C 1594.335938 1319.625 1599.777344 1317.445313 1601 1317.167969 C 1607.679688 1315.648438 1614.398438 1314.730469 1621 1313 C 1648.589844 1305.046875 1665.835938 1289.300781 1684 1268 C 1681.574219 1292.21875 1661.253906 1308.207031 1652 1329 C 1658.96875 1326.796875 1664.964844 1322.273438 1672 1320.027344 C 1689.609375 1314.402344 1704.902344 1314.628906 1723 1315 L 1723 1316 C 1708.394531 1316.34375 1690.21875 1329 1684 1342 C 1698.601563 1338.660156 1711.84375 1329.566406 1727 1326.515625 C 1744.941406 1323 1765.546875 1326.699219 1783 1331 L 1783 1332 C 1769.945313 1332.007813 1757 1334.738281 1745 1339.300781 C 1739.71875 1341.28125 1733.792969 1342.761719 1731 1348 C 1745.671875 1347.328125 1760 1345.042969 1775 1346.089844 C 1804.890625 1348.183594 1833.824219 1356 1864 1356 C 1875.472656 1356 1886.816406 1355.261719 1898 1352.589844 C 1902.320313 1351.558594 1907 1351.785156 1910 1348 C 1863.753906 1348 1826.257813 1330.027344 1786 1309.023438 C 1759.84375 1295.378906 1731.542969 1280.167969 1709 1261 C 1755.335938 1270.589844 1796.246094 1307 1844 1309 C 1840.738281 1303.589844 1832.238281 1300.808594 1827 1297.332031 C 1817.539063 1291.054688 1809.394531 1283.585938 1802 1275 C 1788.648438 1259.5 1777.519531 1242.210938 1763.828125 1227 C 1748.347656 1209.796875 1730 1195.257813 1713 1179.828125 C 1702 1170.011719 1693 1154.8125 1680 1148 L 1680 1147 C 1696 1146.488281 1710.46875 1154.71875 1725 1160 C 1721.535156 1153.101563 1713.25 1149.324219 1707 1145.308594 C 1689.953125 1134.351563 1663.722656 1119.597656 1643 1119 L 1643 1117 C 1686.484375 1117.359375 1740.230469 1142.648438 1768.714844 1175 C 1776.804688 1184.191406 1783.527344 1194 1788.890625 1205 C 1791.570313 1210.507813 1793.816406 1219.574219 1799 1223 C 1798.984375 1197.058594 1791.5 1169.125 1776.253906 1148 C 1766.652344 1134.695313 1753.34375 1124.261719 1744 1111 C 1753.910156 1117.304688 1765.628906 1120.179688 1776 1125.632813 C 1782 1128.816406 1786.863281 1134.085938 1793 1137 C 1786.667969 1100.339844 1745.796875 1075 1716 1059.21875 C 1676.582031 1038.421875 1638 1014.113281 1619 972 C 1626.898438 978.832031 1633.359375 987 1642 993 C 1657 1003.585938 1674.429688 1010.128906 1691 1018 L 1692 1017 C 1687.351563 1010.699219 1679.855469 1007 1673.996094 1001.820313 C 1664.34375 993.339844 1656.710938 984 1650 973 C 1666.316406 984.355469 1680.996094 996.789063 1699 1005.730469 C 1738.613281 1025.40625 1787.824219 1027.304688 1826 1003 L 1826 1002 C 1812.523438 1002.691406 1799.828125 1008 1786 1007 C 1739.839844 1003.753906 1696.988281 976 1665 944 C 1686.398438 951.667969 1706.21875 961 1729 964.675781 C 1739.238281 966.332031 1750.632813 965 1761 965 C 1758.359375 961.515625 1752.957031 961.015625 1749 959.347656 C 1739.78125 955.464844 1730.695313 951.554688 1722 946.578125 C 1699.523438 933.722656 1678 919 1655 907.109375 C 1635.9375 897.300781 1611.675781 887.011719 1597 871 C 1650.890625 885.710938 1707.5 896.335938 1754.714844 857.425781 C 1763.40625 850.257813 1770.734375 841.335938 1777 832 C 1783.707031 822 1791.863281 809 1794 797 C 1787.722656 800.175781 1783.449219 807.050781 1778 811.535156 C 1767.6875 820.027344 1755.722656 827.359375 1743 831.632813 C 1679 853.09375 1604.839844 839.53125 1545 812.078125 C 1523.414063 802.179688 1497.785156 789.183594 1482 771 C 1528.898438 786.632813 1573.722656 799.113281 1623 804.167969 C 1635.734375 805.472656 1648.453125 803.664063 1661 801.464844 C 1665.414063 800.6875 1670.320313 802.136719 1673 798 C 1661.503906 797.507813 1639.386719 796.671875 1631 788 C 1656.167969 791.179688 1680 789.71875 1704 781 C 1713.578125 777.351563 1724.78125 772.375 1731 764 C 1725.382813 764 1719.738281 766.128906 1714 766.410156 C 1700.605469 767.070313 1687.613281 764.722656 1675 760.304688 C 1649.242188 751.28125 1629.730469 732.238281 1607 718.066406 C 1577.84375 700 1546.773438 688.765625 1513 683.246094 C 1494.359375 680.199219 1474.855469 679 1456 680 C 1450.246094 680.238281 1441.859375 677.824219 1437 681 C 1461.878906 689 1486.722656 694.1875 1511 704.484375 C 1532.734375 713.703125 1551.910156 727 1573 737 L 1573 738 C 1515.324219 714.019531 1453.902344 690.398438 1391 686.089844 C 1367 684.449219 1344.503906 688.660156 1321 691 L 1321 690 C 1339.191406 686 1357 674.511719 1375 668.496094 C 1420.886719 653.066406 1472.339844 645 1520 656.589844 C 1546.941406 663.15625 1572.40625 674.304688 1596 688.746094 C 1614 699.832031 1630.8125 714 1651 721.304688 C 1673 729.367188 1697 729.40625 1720 726 C 1729 724.652344 1743.828125 719.734375 1748 711 C 1672.324219 739.417969 1618.65625 649.339844 1562 616.433594 C 1550.746094 610 1539.207031 601 1526 599 L 1526 598 C 1572.203125 598.382813 1609 631.820313 1653 639.535156 C 1664.472656 641.550781 1693.476563 643.132813 1700 631 C 1670.433594 636.507813 1644 622.128906 1618 610.304688 C 1595.226563 600.011719 1571.644531 591.078125 1547 586.460938 C 1526.761719 582.667969 1506.203125 581.074219 1486 577.535156 C 1448.6875 571 1412.367188 562.066406 1374 566.175781 C 1330.59375 570.820313 1288 587.40625 1253 613.476563 C 1223 635.765625 1206 667.488281 1180.253906 693.253906 C 1171.375 702.136719 1161 709 1150 714.8125 C 1144.289063 718 1137.40625 719.101563 1133 724 C 1150.773438 722.449219 1170.265625 719.453125 1187 713 C 1178.871094 723.527344 1161.796875 730.109375 1150 735.777344 C 1121.589844 749.425781 1092.433594 759 1067 778 C 1070.765625 769.09375 1078.507813 761.296875 1084.726563 754 C 1097.644531 739 1112 722.390625 1129 711.660156 C 1147.625 700 1168.632813 691.40625 1183.910156 675 C 1195.183594 663 1202.25 647.277344 1210.285156 633 C 1221 613.714844 1233 594.386719 1246.804688 577 C 1302.617188 506.320313 1375.910156 464.496094 1462 441 C 1448.261719 453.015625 1427.933594 459 1412 467.730469 C 1379.289063 485.808594 1344.863281 510.453125 1324 542 C 1331.222656 542.167969 1341.523438 532.824219 1348 529.148438 C 1364.90625 519.558594 1382.71875 511.464844 1401 505 C 1465.796875 481.460938 1538.761719 476.039063 1599 514.585938 C 1624 530.613281 1650.453125 559.800781 1653 591 L 1654 591 C 1659 574 1651.527344 550.492188 1644.292969 535 C 1626 496 1587.640625 463.289063 1545 454.757813 C 1531.65625 452.089844 1518.457031 449.519531 1505 453 C 1518.398438 435.496094 1544.339844 428.539063 1564 421 L 1564 420 C 1537.890625 420 1515.574219 423.492188 1492 435 C 1506.34375 416.738281 1519.847656 392.496094 1526 370 C 1519.9375 373.097656 1516.617188 380.609375 1512.425781 385.828125 C 1504.761719 395.367188 1494.996094 406 1485 413 C 1494.359375 397.765625 1503.214844 381.261719 1504 363 C 1494.648438 370.578125 1489.867188 385.058594 1481 394 C 1483 386.003906 1484.996094 378.316406 1485 370 L 1479 374 C 1482 363 1482.640625 353.0625 1489 343 C 1495.988281 332.238281 1508.183594 324 1514 313 C 1497.800781 317 1485.792969 327.175781 1473 337 C 1474.917969 323.546875 1462.949219 314 1467.597656 300 C 1474.261719 280 1493.90625 264.046875 1510 251.652344 C 1516.660156 246.523438 1526.578125 242.261719 1531 235 C 1497.746094 238 1477.664063 268.59375 1453 286 C 1463 271 1472.285156 256.035156 1483.921875 242.003906 C 1491.886719 232.402344 1503.75 222.257813 1509 211 C 1502.222656 213 1496.480469 219 1491 223.117188 C 1477 234.027344 1455.695313 247.355469 1447 263 L 1446 263 C 1456.554688 238 1480.484375 219 1483 190 C 1474.953125 195.003906 1468.90625 208.667969 1462.574219 216 C 1450.179688 230.351563 1435 242.617188 1420 254 C 1432.875 231 1457.96875 213.796875 1469 190 C 1460.90625 193.707031 1454 201.121094 1447 206.574219 C 1432.847656 217.558594 1418.949219 228.757813 1405 240 C 1419 217.3125 1432 199.8125 1432 172 L 1430 172 M 1403.667969 240.667969 C 1403.722656 240.722656 1403.777344 241.777344 1403.332031 241.332031 C 1403.277344 241.277344 1403.222656 240.222656 1403.667969 240.667969 M 1420 254 L 1419 255 L 1420 254 M 1413 353 C 1405.765625 367.277344 1381 378 1368 386.667969 C 1330.953125 411.316406 1294.9375 437.300781 1256 459 C 1259.265625 445.257813 1275.914063 429.699219 1285.910156 420.285156 C 1310.957031 396.699219 1342.863281 384.609375 1374 371.347656 C 1387 365.761719 1399.660156 358 1413 353 M 1326 354 C 1302.792969 394.734375 1262.519531 425.605469 1234.476563 463 C 1225.453125 475.027344 1216.832031 487.355469 1208.691406 500 C 1205.210938 505.40625 1202.488281 513.476563 1197 517 C 1203.386719 443.757813 1264.507813 387 1326 354 M 1406 379 C 1390.425781 401.109375 1362.675781 417.183594 1341 432.710938 C 1332.546875 438.765625 1321.363281 444.753906 1315 453 C 1354.988281 439.339844 1394.726563 424.117188 1438 424 L 1438 425 C 1372.230469 443 1303.234375 476 1254.183594 524 C 1233 544.691406 1217.703125 568.332031 1202 593 L 1201 593 C 1201.875 576 1210.230469 556.636719 1216.792969 541 C 1247.199219 468.554688 1313.4375 426.523438 1381 393.136719 C 1389.59375 389 1397.171875 382.804688 1406 379 M 494 383 C 532.363281 410.578125 576.289063 429.203125 614 457.769531 C 627.265625 467.816406 646.253906 482.070313 654 497 C 639.960938 492.515625 627 481 613 475.199219 C 562 454.671875 497.757813 436 470 384 C 476.742188 387.140625 481.925781 393.394531 488 397.667969 C 499.195313 405.460938 511.234375 412.175781 523 419 C 515.269531 409 494.308594 397.144531 494 383 M 489 441 C 487.6875 440.230469 487.769531 440.3125 487 439 C 488.636719 439.546875 488.453125 439.363281 489 441 M 435 490 L 434 491 L 435 490 M 1398 540 C 1415.550781 539.636719 1433.390625 537.679688 1451 539.09375 C 1486.300781 542 1523.351563 553 1557 563.746094 C 1569.355469 567.75 1579.835938 576 1592 580 C 1590 567.398438 1576.886719 555.183594 1568 547 C 1580.949219 547.664063 1587.621094 559 1599 562 C 1585.609375 540.574219 1560.601563 534.179688 1537 531 L 1537 530 C 1551.859375 527.238281 1564.230469 529 1579 529 C 1570.972656 517.523438 1550 510.566406 1537 507.269531 C 1500.847656 498.121094 1461.195313 504.605469 1428 520.742188 C 1418 525.597656 1405.175781 531.316406 1398 540 M 328 657 C 334.484375 652.4375 337.1875 635.308594 341.617188 628 C 351.800781 611.1875 366.65625 597.515625 383 587 C 401 575.058594 422 568 443 562.742188 C 449.449219 561.164063 465.414063 560.53125 469 555 C 449.894531 553.335938 432.71875 547.0625 413 549.175781 C 377.660156 553 344.476563 575.222656 333.191406 610 C 328 625.535156 328 641 328 657 M 1500 563 L 1500 564 C 1510 565.226563 1520.28125 570.398438 1530 573.304688 C 1541.417969 576.722656 1553.300781 578.796875 1565 581 C 1555 570.238281 1528.960938 566.105469 1515 564.003906 C 1509.921875 563.238281 1505 561.613281 1500 563 M 263 703 C 266.761719 708.671875 277.730469 708.648438 284 709.414063 C 306.796875 712.195313 330.414063 705.519531 350 694 C 378.703125 677.09375 394 649 418 627.171875 C 454.914063 593.78125 501.582031 587.027344 549 594 C 546.503906 586.417969 533 581.140625 526 578.484375 C 501.285156 569.164063 475.433594 568.21875 450 574.746094 C 409 585.242188 393.621094 620.480469 368.703125 650 C 340 684 307.683594 703 263 703 M 1019 596 L 1018 597 L 1019 596 M 1558 654 C 1467.976563 604.078125 1355 618.53125 1266 662 C 1273.894531 645.707031 1299.800781 632.414063 1315 623.71875 C 1373 590.449219 1442.628906 586.21875 1503 616.757813 C 1517 624 1530.269531 631.382813 1543 640.574219 C 1548.40625 644.476563 1555 647.820313 1558 654 M 1007 765 L 1006 765 C 1012.304688 741.230469 1017.488281 716.710938 1018 692 C 1013.605469 696.0625 1013 702.648438 1010.621094 708 C 1004.699219 721 996.6875 739.371094 985 748 C 995 713.398438 990.648438 682.777344 977 650 C 992.804688 657.433594 1000 681 1000 697 C 1004.730469 692.015625 1003.589844 685.355469 1004.425781 679 C 1007.472656 655.796875 997 637.273438 991 616 C 1004.453125 623.292969 1013.421875 643.441406 1015.804688 658 C 1016.9375 665 1015.941406 672.644531 1019 679 C 1025.882813 651.0625 1022.601563 626 1019 598 C 1030 604.238281 1034.761719 627.410156 1037.28125 639 C 1046.691406 682.273438 1032.269531 729.4375 1007 765 M 774 610 C 771.210938 623.472656 767 636.113281 766 650 C 763.835938 683 771.554688 724 785 754 C 776.191406 748.820313 769.199219 734 764.757813 725 C 751 697.472656 748.964844 669.425781 757.882813 640 C 760.859375 630.183594 765.761719 616.46875 774 610 M 1121 619 C 1116.273438 650.527344 1089.269531 681.027344 1069 704 C 1062.457031 711.652344 1057 721.8125 1049 728 C 1056.640625 694.597656 1079.320313 665.570313 1101.914063 641 C 1108.335938 634.019531 1113.503906 624.75 1121 619 M 634 645 L 633 646 L 634 645 M 771 773 L 770 773 C 750 743.613281 731 713.574219 711.332031 684 C 703 671.578125 690 659.421875 684 646 C 695 650.316406 706.210938 661 715 669 C 742.972656 694.335938 765.410156 735.152344 771 773 M 1153 655 C 1145.960938 684.636719 1121.609375 704.019531 1098 720.433594 C 1091.5 725 1085.976563 731.382813 1079 735 C 1088.796875 708.605469 1111.597656 691.429688 1132 673.710938 C 1138.621094 668 1145 658.738281 1153 655 M 790 658 C 789.617188 676.605469 789.652344 694.433594 792 713 L 791 713 C 782.949219 697.640625 775.878906 672.554688 790 658 M 712 715 C 693.5 700.644531 661.410156 683.410156 654 660 C 670.3125 667.5625 689.941406 684.433594 701.347656 698.324219 C 705.242188 703.070313 711.429688 708.761719 712 715 M 725 767 C 715.734375 762.683594 708.632813 754.367188 699 750.097656 C 678.78125 741.136719 657.402344 738.328125 636 734 C 623.625 731.308594 610.640625 726.578125 598 726 L 598 724 C 622.972656 724 645.351563 719.410156 670 726 C 660.613281 705 638.832031 692.214844 626 674 C 671.542969 687.019531 709.671875 722 725 767 M 1533 676 L 1533 677 C 1548.417969 680.652344 1562.332031 689 1578 692 C 1571.851563 680.164063 1545 676.03125 1533 676 M 1286 721 C 1275 734.59375 1256.632813 744.585938 1241 751.769531 C 1193.453125 773.617188 1143 773 1092 777 L 1092 776 C 1115.898438 760.773438 1143.890625 749.582031 1171 741.589844 C 1181.382813 738.53125 1195.175781 734.03125 1206 735 C 1199.839844 740.039063 1191.480469 742.164063 1186 748 C 1210.21875 747.800781 1237.242188 737.554688 1260 729.828125 C 1268.269531 727.023438 1277.390625 722 1286 721 M 646 787 L 646 789 C 626.664063 789 608 793 589 793 L 589 795 C 605.589844 795.714844 621.648438 802.164063 638 803 C 635.671875 806.59375 631.964844 806 628 806.425781 C 618.664063 807.65625 608.417969 808 599 808 C 561 808.0625 524.75 813 488 799 L 488 798 C 500.984375 798.035156 513.941406 799.804688 527 799 C 539.550781 798.050781 552.414063 795 565 796 L 565 795 C 552.875 791.214844 539.488281 791.023438 527 788.625 C 512.453125 785.832031 498.535156 779.464844 484 777 L 484 776 C 498.242188 774.433594 513.796875 777.476563 528 778.828125 C 545.808594 780.523438 564 781 582 781 L 582 780 C 560.414063 774.238281 529.761719 757.3125 520 736 C 550.582031 747.511719 580.171875 762.71875 611 774.226563 C 622.242188 778.425781 634.183594 785 646 787 M 714 795 C 707.46875 791.75 701.824219 787.0625 695 784.253906 C 653.824219 767.308594 608.996094 763 569 742 C 577.234375 739.046875 591.964844 742 601 742 C 635.382813 742 665.757813 748.265625 693 771 C 700.648438 777.28125 710 785.710938 714 795 M 1342 743 C 1336.222656 752.5 1322.40625 759.800781 1313 765.394531 C 1288.382813 780.042969 1260.601563 789.410156 1232 791.085938 C 1221.886719 791.679688 1209.800781 793 1200 790 C 1207 786.132813 1216.304688 785.183594 1224 782.496094 C 1243.605469 775.648438 1263 769.269531 1283 763.574219 C 1303 758 1322.167969 749.039063 1342 743 M 431 750 C 430.453125 751.636719 430.636719 751.453125 429 752 C 429.546875 750.363281 429.363281 750.546875 431 750 M 1324 805 L 1324 806 C 1299 821.769531 1272.21875 822 1244 822 L 1244 820 C 1271 818.832031 1297.175781 806.171875 1324 805 M 491 822 C 496 818.515625 503 820.476563 509 819.710938 C 525.472656 817.570313 543.347656 816.554688 560 818.105469 C 563 818.390625 580.71875 821.214844 580.796875 824.785156 C 580.882813 828.578125 561.769531 829 559 829 C 535.394531 829.5625 514.210938 824.023438 491 822 M 1186 851 C 1175 847.554688 1165.210938 841.410156 1154 838.414063 C 1128.71875 831.664063 1100.726563 834.199219 1078 848 C 1064.941406 855.8125 1055.785156 869.679688 1043 877 C 1057.464844 834.671875 1113.195313 819.589844 1152 831.152344 C 1164 834.757813 1178.464844 840.402344 1186 851 M 751 864 C 743.664063 860.527344 737.410156 855.207031 730 851.792969 C 713.234375 844.070313 695.914063 842.6875 678 846.511719 C 667.964844 848.652344 659.671875 854.214844 650 857 C 667.761719 832.324219 708.296875 832 732 846.34375 C 739 850.644531 747.792969 856.074219 751 864 M 571 850 C 539.691406 870.691406 501.832031 862.367188 468 859 L 468 857 C 490.363281 857 511.835938 855.542969 534 852.816406 C 545.273438 851.429688 559.765625 847.566406 571 850 M 1149 856.710938 C 1179.929688 857.230469 1179.914063 905 1149 905 C 1118.386719 905 1116.960938 856.171875 1149 856.710938 M 711 867.328125 C 738.195313 862.550781 747 904.210938 720 909.621094 C 694.28125 914.773438 685.1875 872 711 867.328125 M 655 872 C 649.820313 895 639.339844 911.34375 645.925781 936 C 656.855469 977 705.734375 990.816406 734.710938 959 C 757 934.355469 754 908.679688 748 879 C 759 881.601563 765.324219 892.652344 770.292969 902 C 782.398438 924.765625 787 951.503906 787 977 C 787 986.429688 789.28125 1003 782 1010 C 779 1004.378906 774.710938 998.34375 773.769531 992 C 772.519531 983.585938 775.816406 974.453125 775.984375 966 C 776 958.597656 774.378906 951.441406 775 944 C 769.191406 949.527344 768.421875 960.175781 763.675781 967 C 747.710938 990 722.257813 1004.1875 694 1003 C 666.253906 1001.757813 641.988281 987.714844 628.890625 963 C 613 933.179688 620.824219 885.742188 655 872 M 1192.617188 872.792969 C 1197 871.046875 1202.734375 878.164063 1204.984375 881.003906 C 1213.941406 892.300781 1217 905 1217 919 C 1216.988281 952 1194.871094 980.085938 1166 994 C 1136.257813 1008.304688 1091.894531 1005 1069.289063 979 C 1047.269531 953.8125 1041.386719 897.375 1076.515625 878.375 C 1081 876 1078.648438 883.105469 1078 885 C 1075.367188 895.070313 1073.886719 905.617188 1075 916 C 1078.796875 949.382813 1104.957031 984.597656 1143 976.480469 C 1173.648438 970 1192.183594 943.757813 1195.714844 914 C 1196.980469 903.328125 1194.800781 893.25 1192.921875 882.828125 C 1192.558594 880.808594 1189.796875 874 1192.617188 872.792969 M 1105 875.515625 C 1117.949219 871.410156 1125 889.75 1112 893.757813 C 1101.480469 897 1093.691406 879.125 1105 875.515625 M 678 877.515625 C 690.265625 873.671875 697.214844 891.53125 684.996094 896 C 673.425781 900.160156 666.523438 881.132813 678 877.515625 M 462 885 C 481.296875 904.242188 506.636719 918.402344 533 925.417969 C 550.429688 930.054688 568.667969 930.128906 586 935 L 583 921 C 585.28125 922 589.808594 925.785156 592 925.246094 C 594.71875 924.652344 600 913.480469 602 911 L 603 911 C 602.8125 931.78125 599.3125 949.136719 609.269531 969 C 638 1026.476563 712.996094 1028.691406 760 996 C 759.273438 1007.414063 750.917969 1017.511719 742.960938 1025.074219 C 725.605469 1041.5625 703.609375 1061.492188 680 1068 C 688 1057.007813 700 1049.117188 707 1037 C 685.507813 1049 659.820313 1067.589844 635 1071 C 643.957031 1058.546875 659.792969 1050.65625 666 1036 C 635.609375 1047 603.457031 1053 571 1053 L 571 1051 C 588.628906 1047.320313 605.746094 1035.527344 624 1035 L 624 1033 C 592.78125 1030.515625 563.320313 1027.164063 532 1033 L 532 1032 C 557 1019.183594 588 1014.496094 616 1014 L 616 1012 C 605.898438 1011.792969 596 1008.480469 586 1008.039063 C 568.765625 1007.285156 551 1009.484375 534 1007.828125 C 527.335938 1007.1875 520.6875 1006.453125 514 1006.035156 C 512.886719 1006 507 1006.027344 508.347656 1003.449219 C 510.367188 999.457031 525.84375 998.035156 530 997.117188 C 544.371094 994 558.851563 991 573 987 C 578.828125 985.167969 585 984.59375 590 981 C 556.300781 981 521.53125 981.664063 490 968 C 475.351563 961.523438 463.589844 952.53125 451 943 L 451 942 C 459 944.367188 465.945313 949.777344 474 952.484375 C 496.597656 960.082031 518.40625 962.707031 542 962.015625 C 549.679688 961.789063 557.445313 961 565 959.613281 C 565.976563 959.4375 571.945313 959.113281 571.367188 957.246094 C 570.757813 955.257813 565.640625 955 564 954.445313 C 556 952.273438 547.929688 950.789063 540 948.445313 C 514.960938 941.042969 492 928.21875 475.285156 908 C 470.910156 902.746094 460.8125 892.261719 462 885 M 1236 896 C 1240.355469 901.738281 1244 908.207031 1252 907 C 1250.84375 920.167969 1259.894531 914.566406 1269 913 C 1263.503906 923.769531 1252.199219 930.097656 1247 941 C 1295 908.6875 1348.460938 904 1404 911 L 1404 913 C 1365.464844 913.796875 1329 926.667969 1294 941.773438 C 1276.953125 949.121094 1254.964844 959.460938 1244 975 C 1275 961.382813 1312.488281 954.632813 1346 966 C 1339 970 1325.976563 968.652344 1318 969.039063 C 1306.488281 969.601563 1294.261719 972.136719 1283 974.730469 C 1276.867188 976.140625 1267.425781 977.464844 1263 982 C 1285.6875 979.117188 1310.789063 981.613281 1332 991 L 1332 992 C 1298.273438 992 1264.351563 990.472656 1232 1002 C 1224 1004.761719 1212 1006.199219 1206 1012 C 1230.972656 1012.070313 1265.90625 1022.691406 1287 1036 L 1287 1037 C 1272.261719 1033.480469 1256 1034.621094 1241 1034 C 1221.632813 1033.113281 1202.429688 1031 1183 1031 C 1169.898438 1031.003906 1157 1033.425781 1144 1031 C 1156 1044.230469 1183.367188 1053 1201 1053 L 1201 1055 C 1163.414063 1058.742188 1128 1050.09375 1094 1034 C 1102 1049.117188 1126.484375 1057.542969 1141 1065 L 1141 1066 C 1131.382813 1065.214844 1121 1062 1112 1059 C 1081.890625 1049 1037 1031.144531 1034 994 C 1055 1002.148438 1074.515625 1012.0625 1097 1015.742188 C 1148 1024.089844 1200 996.613281 1224.960938 952 C 1231.5 940.269531 1234.851563 926.347656 1235.816406 913 C 1236.226563 907.289063 1233.695313 901.492188 1236 896 M 1025 915 C 1024.882813 929.214844 1021.6875 944 1020.175781 958 C 1019 968.523438 1018.960938 979.039063 1014.660156 989 C 1013 992.550781 1003.386719 1011 998.433594 1008.652344 C 994 1006.660156 997.886719 989.761719 997.984375 986 C 998.546875 964.523438 1008 929.421875 1025 915 M 1664 942 L 1663 943 L 1664 942 M 1562 1034 C 1547.480469 1065.054688 1513.324219 1089.371094 1482 1101.050781 C 1422.238281 1123.328125 1353.363281 1123.257813 1291 1113.4375 C 1270.441406 1110.203125 1249.882813 1107 1230 1100.492188 C 1223.96875 1098.53125 1216.191406 1097.613281 1211 1094 C 1224.816406 1090.199219 1245.628906 1097 1260 1098 C 1299.4375 1100.609375 1339.261719 1105.632813 1379 1103 C 1427.339844 1099.601563 1476.410156 1087.078125 1519 1063.6875 C 1534.242188 1055.316406 1546.835938 1041.824219 1562 1034 M 812 1049 C 823.320313 1068.519531 856.417969 1066 875 1061.570313 C 879.246094 1060.589844 890.820313 1053 894.398438 1054.445313 C 897 1055.558594 896.640625 1067.164063 897 1070 C 900.753906 1066.074219 903.800781 1061.417969 908 1058 C 908.402344 1071.820313 934.480469 1087.636719 925.175781 1101 C 924 1102.558594 922.324219 1104.25 920 1103.65625 C 917 1102.820313 914.617188 1099 911.996094 1097.109375 C 906.820313 1093.683594 899.203125 1092 893 1092.324219 C 875.507813 1093.707031 866 1109.785156 848 1109 C 833.3125 1108.292969 827.644531 1091.574219 812 1091.574219 C 807.414063 1091.574219 801.949219 1092.710938 798.789063 1096.273438 C 796.902344 1098.40625 795 1105.511719 791 1103.824219 C 776.355469 1097.417969 785.472656 1071.066406 794 1064 C 793.910156 1066.109375 791.589844 1075.574219 794.378906 1076.367188 C 796.472656 1077 798.175781 1071.261719 798.785156 1070 C 802 1063.007813 806 1054.066406 812 1049 M 689 1121 L 689 1122 C 659.453125 1127.484375 627 1126.03125 597 1128.089844 C 557.992188 1130.761719 519 1136.289063 480 1130.699219 C 458.523438 1127.632813 438.964844 1119.375 418 1115 L 418 1113 C 447.660156 1113.246094 476.988281 1118.628906 507 1117 C 566.226563 1113.660156 631 1099.722656 689 1121 M 945 1111 C 938.523438 1138.339844 913.214844 1158.039063 894 1177 C 889.847656 1181.09375 874.285156 1194.289063 867.621094 1188.816406 C 863.785156 1185.660156 877.679688 1171 879.382813 1167 C 883.222656 1158.136719 885 1148 892 1140.761719 C 900.46875 1132 915.382813 1129.171875 926 1123.636719 C 932.777344 1120.105469 938.167969 1114.167969 945 1111 M 287 1112 C 283.976563 1122.269531 275.421875 1130.660156 268 1138 C 246.644531 1159.097656 207.351563 1184.558594 176 1183 C 177 1187.710938 182.984375 1186.808594 187 1187 C 198 1187.53125 208.167969 1188.222656 219 1184.609375 C 245.414063 1175.804688 266.570313 1159.683594 280 1135 C 283.898438 1128 288.589844 1120.164063 289 1112 L 287 1112 M 778 1112 C 791 1121 810.886719 1128.621094 820.609375 1141 C 827.269531 1149.476563 828.691406 1160.753906 833.902344 1170 C 835.792969 1173.359375 850.972656 1187 848.167969 1190 C 842.621094 1196.148438 823.527344 1185.628906 819 1182 C 802 1168.097656 775.472656 1135.597656 778 1112 M 1542 1180 C 1534.898438 1185 1518.574219 1182.804688 1510 1183.015625 C 1478.847656 1183.777344 1447.40625 1179 1417 1172.359375 C 1371.765625 1162.597656 1326.351563 1152.265625 1280 1149.089844 C 1214.886719 1144.628906 1150 1146.132813 1087 1126 C 1096.289063 1122.101563 1111.914063 1125 1122 1125 C 1151.625 1125.097656 1182.347656 1126 1212 1128 C 1250.445313 1130.542969 1288.746094 1128 1327 1133.300781 C 1378 1140.589844 1427.835938 1158.015625 1478 1169.664063 C 1498.757813 1174.484375 1521.855469 1174.03125 1542 1180 M 327 1197 C 332.644531 1193.140625 342.308594 1193.792969 349 1192.539063 C 367.703125 1189.035156 386.394531 1185.441406 405 1181.488281 C 460.867188 1169.621094 515.335938 1150.007813 572 1142.128906 C 591.308594 1139.445313 609.636719 1139.445313 629 1140.015625 C 631.449219 1140.085938 646.476563 1140.070313 647 1142.375 C 647.8125 1145.175781 632.242188 1148.070313 630 1148.574219 C 610.617188 1153 591.300781 1157.65625 572 1162.332031 C 505.472656 1178.441406 439.804688 1196 371 1199 C 356 1199.613281 341.75 1197.632813 327 1197 M 182 1150 C 182 1151.832031 181.921875 1151.558594 183 1153 C 182.75 1151.546875 182.683594 1151.246094 182 1150 M 1101 1158 L 1100 1159 L 1101 1158 M 1504 1258 L 1504 1260 C 1483.226563 1260 1463.613281 1261.109375 1443 1257.675781 C 1406 1251.519531 1370 1237 1335 1224.238281 C 1303.691406 1213 1271.21875 1204 1239 1195.578125 C 1204.800781 1186.765625 1169.605469 1181 1136 1170 C 1125.425781 1166.371094 1112.488281 1165 1103 1159 C 1123.53125 1155.175781 1148.542969 1161.367188 1169 1163.816406 C 1234 1171.601563 1296.671875 1189 1358 1212.226563 C 1388 1223.679688 1418.320313 1234.675781 1449 1244.503906 C 1466.179688 1250.007813 1485.886719 1257.171875 1504 1258 M 715 1166 C 701.324219 1167.664063 687 1174 674 1178.164063 C 638.417969 1189.820313 604 1204.5 572 1224 C 564.546875 1228.53125 557 1233.234375 550 1238.296875 C 547.175781 1240.308594 543.621094 1244.257813 540 1244.824219 C 536.703125 1245.367188 529.226563 1237.777344 528.347656 1234.71875 C 527.328125 1231.1875 532.964844 1227.394531 535.171875 1225.386719 C 543.894531 1217.441406 553.671875 1210.070313 564 1204.308594 C 599.363281 1184.578125 635.753906 1170.460938 676 1165 C 685.644531 1163.53125 696.304688 1162.667969 706 1163.539063 C 709.621094 1164 712.691406 1163 715 1166 M 1262 1320 C 1252.609375 1315 1244.601563 1303.515625 1237 1296.015625 C 1220.816406 1280.035156 1204.1875 1264.1875 1186 1250.476563 C 1143.226563 1218.21875 1093.3125 1199.121094 1046 1175 C 1050.832031 1173.035156 1057.988281 1175.800781 1063 1177 C 1076.867188 1180 1090.425781 1183.441406 1104 1187.585938 C 1152.929688 1202.53125 1202.320313 1232 1234.449219 1272 C 1245 1285.378906 1258.308594 1303 1262 1320 M 1180 1358 C 1171.738281 1353 1165.371094 1339.746094 1159.527344 1332 C 1148 1316.800781 1134.753906 1302.210938 1121 1289.039063 C 1097.875 1267 1072.433594 1247.492188 1046 1229.503906 C 1035.835938 1222.589844 1015.601563 1215.105469 1009 1205 C 1026.621094 1208 1043.835938 1215.289063 1060 1222.691406 C 1114.261719 1247.535156 1169.496094 1296.214844 1180 1358 M 644 1224 L 643 1225 L 644 1224 M 316 1229 C 314.363281 1228.453125 314.546875 1228.636719 314 1227 C 315.3125 1227.769531 315.230469 1227.6875 316 1229 M 866 1268 C 875.347656 1284 886.839844 1303.082031 887 1322 C 876.652344 1314.386719 871.28125 1302.273438 866 1291 C 860.367188 1304.710938 852.699219 1318.726563 846 1332 L 845 1332 C 845 1311 850 1283.394531 866 1268 M 888 1279 C 899.511719 1291.0625 906.671875 1307.378906 912 1323 C 901.332031 1315.484375 895.617188 1304.765625 890.730469 1293 C 888.96875 1288.753906 886.261719 1283.496094 888 1279 M 845 1286 C 842.792969 1298.820313 833.578125 1310.117188 832 1323 L 830 1323 C 830.277344 1309.722656 834.773438 1295 845 1286 M 911 1291 C 915.75 1296 919.652344 1302.554688 922 1309 C 916.875 1306 911.390625 1297.023438 911 1291 M 923 1310 L 922 1311 L 923 1310 M 845 1333 L 844 1334 L 845 1333 M 479 1394 C 507.808594 1423.832031 513 1462 513 1501 L 512 1501 C 508.390625 1491.363281 507.976563 1480.0625 505.558594 1470 C 502.167969 1456 497.5625 1441.578125 492.390625 1428 C 489 1419.410156 478 1402.621094 479 1394 M 1402 1395 C 1394.753906 1422.328125 1393 1450 1393 1478 L 1395 1478 C 1395 1458.558594 1408.21875 1433.117188 1424 1422 C 1422.886719 1434.757813 1417.550781 1447.132813 1416.175781 1460 C 1412 1498 1419.71875 1534.5625 1438 1568 C 1423.769531 1564.300781 1412.195313 1544.492188 1406.320313 1532 C 1404 1527.355469 1403.683594 1521.59375 1400 1518 C 1399.996094 1549.542969 1393.867188 1581.621094 1400.660156 1613 C 1404.699219 1631.632813 1413.703125 1646.320313 1422 1663 C 1405.226563 1658.683594 1390.578125 1642.035156 1381.855469 1628 C 1359.664063 1592 1356.730469 1547.535156 1366 1507 C 1352.554688 1520.304688 1350.238281 1546.605469 1341 1563 L 1340 1563 C 1340 1520 1355.640625 1479.683594 1373 1441 C 1380.269531 1425.246094 1387.628906 1405.667969 1402 1395 M 627 1520 L 625 1520 C 624.464844 1509.570313 619 1498.503906 615 1489 C 605.714844 1467.214844 594.179688 1445.742188 579.574219 1427 C 572.4375 1418 556.4375 1406.664063 553 1396 C 606.800781 1415.519531 627 1466.214844 627 1520 M 452 1399 C 466.21875 1423.136719 473.851563 1453.378906 477 1481 C 484.34375 1541.074219 476.285156 1603.554688 442 1655 C 426.210938 1678.695313 401.9375 1707.453125 374 1717 C 379.847656 1703.097656 387.300781 1691 391.265625 1676 C 403.664063 1629.394531 406.191406 1580.351563 429 1537 C 415 1551.027344 404 1568.238281 392 1584 C 386.539063 1591.378906 380.246094 1601.53125 372 1606 C 387.867188 1556 428 1509 428 1454 L 429 1454 C 436.171875 1467.164063 438.960938 1485.109375 439 1500 L 440 1500 C 445.792969 1476.5 451.835938 1454.226563 453.824219 1430 C 454.578125 1420.832031 448.625 1407.117188 452 1399 M 1066 1400 L 1065 1401 L 1066 1400 M 1613 1521 L 1612 1521 C 1607.773438 1509.386719 1599.503906 1499 1592.425781 1489 C 1576.792969 1467 1558.1875 1445.324219 1537 1428.398438 C 1526.839844 1420.285156 1514 1410.269531 1501 1408 L 1501 1406 C 1560.984375 1407.246094 1605.933594 1466.285156 1613 1521 M 1554 1702 C 1560.839844 1674.621094 1567.621094 1649.824219 1564.828125 1621 C 1562.878906 1601 1552 1578.03125 1555 1558 C 1549.886719 1563.121094 1549 1573.207031 1546.515625 1580 C 1541 1594.246094 1530.335938 1614.316406 1516 1621 C 1542.921875 1572.648438 1548 1516 1518.386719 1467 C 1507.761719 1449.546875 1492.457031 1438.398438 1480 1423 C 1498.285156 1427 1517.292969 1438.625 1532 1449.769531 C 1584.980469 1490 1611.539063 1554.335938 1600.320313 1620 C 1595.417969 1648.6875 1581.871094 1687.617188 1554 1702 M 1279 1466 C 1274.648438 1473 1268.472656 1478.441406 1263.578125 1485 C 1247.863281 1506.066406 1232.199219 1529.730469 1222 1554 C 1218.769531 1546.300781 1223.195313 1535.683594 1225 1528 C 1232.304688 1499.421875 1251 1476.308594 1279 1466 M 1669 1468 C 1686.886719 1478.21875 1704.550781 1486.179688 1719.910156 1500.425781 C 1750.234375 1528.550781 1770 1572.78125 1770 1614 L 1768 1614 C 1765.820313 1604 1756.660156 1590 1749 1583 C 1754.945313 1609 1755.347656 1633.742188 1750.613281 1660 C 1749.460938 1666.386719 1748.667969 1680.339844 1743 1684 C 1742.945313 1664.324219 1735.671875 1644.460938 1729.492188 1626 C 1713 1577 1688.4375 1537 1659 1495 C 1681.191406 1500.089844 1693.34375 1522.042969 1712 1532 C 1702.253906 1516.082031 1693.683594 1500 1682.253906 1485 C 1678.644531 1480.304688 1668.871094 1474.113281 1669 1468 M 712 1538 L 711 1538 C 703.203125 1521.609375 688.398438 1509 681 1493 C 701 1495.175781 711.855469 1520.40625 712 1538 M 611 1562 L 610 1562 C 601.480469 1537.4375 587.230469 1517.488281 575 1495 C 599.265625 1503.246094 610.996094 1539.042969 611 1562 M 1289 1507 L 1289 1508 C 1272.394531 1522.515625 1267.496094 1547.351563 1264 1568 L 1265 1568 C 1267.921875 1561.019531 1272.191406 1553.691406 1279 1550 C 1274.789063 1564.617188 1267.246094 1577.761719 1264.375 1593 C 1259.214844 1620.375 1267.746094 1645 1277 1670 C 1263.582031 1663.261719 1253 1647.3125 1247 1634 C 1229.28125 1595.199219 1229.421875 1540.144531 1270 1515.601563 C 1275.945313 1512.003906 1282 1508.230469 1289 1507 M 355 1508 C 348.242188 1517.515625 339 1525.183594 332.34375 1535 C 323.628906 1547.824219 318.921875 1562 313 1576 C 320.714844 1569.78125 326.457031 1565.414063 336 1562 C 332.890625 1570.035156 325.785156 1576.820313 321 1584 C 309.210938 1601.691406 294.195313 1627.101563 294 1649 C 284 1642.785156 284 1614.386719 285.425781 1604 C 289.6875 1572.675781 303.527344 1542.285156 329 1522.425781 C 336.222656 1516.796875 345.714844 1509.214844 355 1508 M 561 1702 C 565 1686.433594 574.175781 1672.507813 577.484375 1656 C 587 1608 578.347656 1560.097656 555 1518 C 572.828125 1522.1875 588.542969 1543.601563 596.242188 1559 C 613.621094 1593.757813 614.738281 1637.476563 594.1875 1671 C 586.554688 1683.460938 575 1696.683594 561 1702 M 673 1680 C 683.839844 1640.367188 689.371094 1604.371094 673 1565 C 685 1571 684 1586.214844 693 1594 C 689 1580 687.898438 1565.183594 683.988281 1551 C 680.996094 1540.148438 675.339844 1530.574219 672 1520 C 717.628906 1539.191406 721.746094 1605.164063 704 1644 C 698.175781 1656.738281 686 1674.113281 673 1680 M 771 1550 C 788 1571 816.71875 1590 843 1597 L 843 1598 C 819.652344 1603.542969 791.773438 1589.59375 779.425781 1570 C 776.277344 1565.003906 769.339844 1556.0625 771 1550 M 560 1563 C 576.726563 1586.425781 572.597656 1610.078125 560 1634 L 559 1634 C 559.707031 1617.523438 562.195313 1601.648438 561.996094 1585 C 561.914063 1578.261719 557.722656 1569.363281 560 1563 M 1848 1567 L 1847 1568 L 1848 1567 M 1664 1597 C 1684.191406 1601.347656 1688 1625.617188 1686.910156 1643 C 1686.652344 1646.765625 1686.328125 1662.105469 1681.6875 1663.117188 C 1675.378906 1664.492188 1671.515625 1652.230469 1670.273438 1648 C 1664.957031 1630 1669.183594 1615.441406 1664 1597 M 1484 1689 C 1465.605469 1673.03125 1464.511719 1649.710938 1466.894531 1628 C 1467.695313 1620.691406 1471.226563 1604 1481 1603 C 1485.660156 1602.367188 1484.933594 1620.03125 1485.285156 1623 C 1487.816406 1644.441406 1490.425781 1667.261719 1484 1689 M 513 1633 C 528.335938 1649.070313 527.390625 1671.347656 520 1691 C 518.355469 1695.378906 512.660156 1711.339844 506 1709.539063 C 499.925781 1708 501.734375 1693.589844 502.285156 1689 C 502.917969 1683.722656 502.257813 1674.035156 504.601563 1669.4375 C 505.921875 1667 509.863281 1668 510.820313 1665.339844 C 514.277344 1656 511.460938 1643 513 1633 M 1744 1686 L 1743 1687 L 1744 1686 "/>
</g>
</svg>
