<?xml version="1.0" encoding="UTF-8" standalone="no"?>
<!DOCTYPE svg PUBLIC "-//W3C//DTD SVG 1.1//EN" "http://www.w3.org/Graphics/SVG/1.1/DTD/svg11.dtd">
<svg xmlns="http://www.w3.org/2000/svg" version="1.1" viewBox="0.00 0.00 1024.00 1024.00">
<path fill="#010101" d="
  M 792.72 449.97
  L 792.71 450.01
  A 0.31 0.31 0.0 0 1 792.33 450.21
  C 777.41 445.99 761.12 442.30 745.50 440.54
  A 1.35 1.33 -64.7 0 0 744.39 440.95
  Q 736.03 449.89 726.81 456.68
  A 0.24 0.24 0.0 0 0 726.86 457.10
  C 745.15 464.62 763.14 474.45 778.24 486.98
  A 0.13 0.13 0.0 0 1 778.10 487.20
  C 773.37 484.92 768.14 481.11 762.12 477.88
  Q 745.30 468.87 726.79 462.02
  A 0.27 0.27 0.0 0 0 726.43 462.31
  C 730.29 488.45 734.30 514.48 748.08 537.33
  A 0.20 0.20 0.0 0 1 747.82 537.62
  L 737.95 532.64
  A 0.07 0.07 0.0 0 0 737.85 532.72
  C 741.12 546.07 741.63 560.25 737.32 573.48
  A 0.31 0.31 0.0 0 1 736.72 573.46
  Q 734.90 566.67 730.31 560.86
  A 0.16 0.16 0.0 0 0 730.02 560.97
  Q 730.87 578.06 726.87 595.60
  Q 725.45 601.83 719.34 617.17
  Q 706.83 648.59 697.20 686.45
  Q 691.50 708.83 689.63 731.43
  C 688.62 743.65 688.58 762.60 698.11 771.93
  C 701.57 775.33 706.58 777.12 710.30 780.16
  C 725.30 792.41 730.84 816.60 718.47 832.55
  C 713.07 839.53 705.13 843.24 696.44 845.45
  Q 678.53 850.00 659.24 849.04
  Q 655.58 848.86 653.89 848.83
  A 1.57 1.53 26.8 0 0 652.94 849.13
  C 639.33 858.95 622.08 860.99 605.58 860.79
  C 591.54 860.62 578.41 858.31 566.00 852.68
  C 556.76 848.49 549.28 841.43 543.74 833.12
  A 0.38 0.38 0.0 0 0 543.06 833.24
  C 539.86 845.84 530.21 852.84 517.75 856.52
  C 501.53 861.32 481.91 860.89 465.40 859.78
  A 2.85 2.83 -57.3 0 0 463.82 860.13
  Q 441.78 872.26 416.66 877.14
  Q 370.92 886.02 324.68 877.34
  C 293.59 871.51 261.78 857.40 244.32 829.72
  C 222.29 794.80 227.88 749.43 251.57 716.92
  C 259.41 706.17 268.65 696.42 279.53 688.22
  A 2.32 2.32 0.0 0 0 280.42 686.72
  Q 282.74 671.39 284.09 663.78
  C 294.91 602.58 329.10 549.09 376.80 509.54
  Q 400.34 490.03 428.44 473.69
  Q 450.94 460.62 462.04 454.00
  A 0.50 0.50 0.0 0 0 461.70 453.07
  C 448.54 455.37 435.25 459.36 422.11 463.75
  A 0.31 0.31 0.0 0 1 421.72 463.57
  L 421.63 463.33
  A 0.06 0.05 67.3 0 1 421.66 463.25
  Q 440.39 455.37 459.54 450.00
  A 0.35 0.35 0.0 0 0 459.69 449.42
  Q 444.08 433.24 433.47 412.14
  A 0.69 0.68 61.9 0 1 433.74 411.24
  Q 436.13 409.87 437.69 407.73
  A 0.63 0.63 0.0 0 0 437.24 406.73
  L 431.90 406.29
  A 0.53 0.53 0.0 0 1 431.47 405.55
  Q 435.56 396.29 437.11 385.33
  Q 439.08 371.35 439.84 355.68
  A 1.65 1.64 -59.4 0 0 439.61 354.77
  Q 435.08 347.41 432.39 342.88
  Q 422.91 326.94 420.53 308.75
  Q 419.95 304.31 418.90 296.45
  A 13.73 13.70 -60.2 0 0 417.98 293.05
  Q 413.61 282.49 412.86 280.39
  Q 404.27 256.46 401.83 231.26
  Q 400.50 217.51 402.76 205.27
  Q 404.38 196.44 409.57 190.84
  C 429.02 169.85 505.65 216.23 523.62 227.87
  A 1.08 1.07 -41.5 0 0 524.68 227.93
  Q 585.33 198.71 651.09 213.08
  A 0.90 0.88 -61.7 0 0 651.93 212.82
  Q 673.73 189.53 697.52 169.54
  Q 713.18 156.38 728.74 148.52
  Q 736.99 144.36 745.73 144.39
  C 761.38 144.43 768.61 169.77 770.80 181.75
  C 774.82 203.68 774.56 225.47 771.50 248.03
  A 11.20 11.16 -44.9 0 0 771.49 250.97
  Q 772.85 261.66 773.31 266.25
  Q 775.24 285.46 769.69 302.94
  Q 767.21 310.72 764.62 317.49
  A 1.55 1.52 -42.6 0 0 764.57 318.44
  Q 768.83 333.42 773.32 345.19
  Q 777.55 356.32 784.34 364.96
  A 0.21 0.21 0.0 0 1 784.25 365.28
  L 778.46 367.53
  A 0.57 0.57 0.0 0 0 778.24 368.45
  Q 780.34 370.77 783.07 370.76
  A 0.63 0.63 0.0 0 1 783.68 371.55
  Q 778.69 390.32 770.04 406.82
  A 0.40 0.40 0.0 0 0 770.39 407.40
  Q 785.96 407.28 801.97 409.16
  A 0.20 0.19 7.7 0 1 802.14 409.37
  L 802.12 409.62
  A 0.02 0.01 -90.0 0 1 802.11 409.64
  C 790.41 409.54 779.48 409.49 768.39 410.48
  A 1.12 1.11 12.5 0 0 767.52 411.03
  Q 759.42 425.00 748.71 436.62
  A 0.21 0.21 0.0 0 0 748.82 436.97
  Q 771.04 441.20 792.63 449.78
  A 0.15 0.15 0.0 0 1 792.72 449.97
  Z
  M 647.72 494.72
  Q 647.99 494.36 648.40 494.14
  C 669.68 482.79 689.03 469.88 707.08 455.71
  A 0.27 0.27 0.0 0 0 707.02 455.25
  Q 703.46 453.82 698.29 452.49
  Q 677.02 447.01 660.88 444.90
  A 0.19 0.19 0.0 0 1 660.71 444.69
  L 660.73 444.40
  A 0.42 0.41 2.2 0 1 661.15 444.02
  Q 686.78 444.38 711.05 451.84
  A 0.96 0.95 32.4 0 0 711.97 451.64
  L 726.64 438.50
  A 0.23 0.23 0.0 0 0 726.52 438.10
  Q 705.51 435.47 686.00 436.00
  Q 669.32 436.46 661.77 437.07
  A 0.28 0.28 0.0 0 1 661.47 436.77
  L 661.51 436.27
  A 0.23 0.23 0.0 0 1 661.68 436.08
  Q 695.92 429.00 730.14 434.03
  A 1.37 1.34 25.5 0 0 731.29 433.64
  Q 740.91 423.74 748.68 412.34
  A 0.19 0.19 0.0 0 0 748.50 412.04
  Q 702.85 417.02 659.60 429.87
  A 0.20 0.18 69.9 0 1 659.37 429.75
  L 659.28 429.50
  A 0.48 0.47 66.6 0 1 659.52 428.89
  Q 663.51 427.03 671.76 424.04
  Q 710.16 410.12 750.71 407.77
  A 1.67 1.66 13.4 0 0 752.06 406.94
  Q 760.57 392.39 766.83 375.54
  A 0.42 0.40 -58.2 0 0 766.74 375.11
  L 759.35 367.53
  A 0.71 0.71 0.0 0 1 759.60 366.38
  L 765.30 364.17
  A 0.62 0.62 0.0 0 0 765.61 363.29
  C 757.45 349.04 752.88 332.39 748.77 316.02
  A 1.46 1.45 -38.0 0 1 748.90 314.97
  C 751.58 310.09 753.84 303.13 755.65 297.55
  Q 760.89 281.31 759.00 264.06
  A 0.20 0.20 0.0 0 0 758.63 263.98
  Q 749.64 277.78 733.66 282.66
  Q 727.92 284.42 724.97 284.86
  A 1.33 1.31 -80.4 0 0 724.00 285.56
  Q 723.55 286.44 722.95 286.10
  Q 718.59 283.63 713.07 281.67
  A 1.35 1.34 13.9 0 1 712.19 280.22
  Q 713.09 273.78 716.31 268.43
  A 0.38 0.38 0.0 0 0 715.97 267.86
  Q 708.67 268.17 702.03 272.87
  A 0.56 0.55 -10.3 0 1 701.17 272.28
  Q 703.35 263.99 709.17 257.83
  A 0.23 0.23 0.0 0 0 708.99 257.45
  Q 701.79 257.97 695.62 261.25
  A 0.41 0.40 86.2 0 1 695.05 260.75
  C 697.21 254.99 702.51 250.06 707.66 246.53
  A 0.37 0.37 0.0 0 0 707.45 245.86
  C 698.19 245.89 687.68 249.68 679.52 253.69
  A 0.61 0.60 -11.6 0 1 678.64 253.12
  Q 679.18 243.53 682.01 234.74
  C 690.59 207.98 708.30 184.19 732.35 169.60
  Q 734.93 168.03 737.56 166.97
  A 0.26 0.26 0.0 0 1 737.79 167.43
  Q 733.46 170.25 729.96 173.45
  Q 712.66 189.27 703.89 210.32
  A 0.38 0.38 0.0 0 0 704.48 210.76
  Q 715.37 202.06 729.97 199.98
  A 0.47 0.47 0.0 0 1 730.20 200.89
  Q 717.55 205.41 709.52 217.36
  A 0.17 0.17 0.0 0 0 709.72 217.61
  Q 710.20 217.43 711.51 216.50
  Q 719.09 211.16 728.29 210.74
  A 0.26 0.26 0.0 0 1 728.47 211.20
  Q 718.97 219.35 717.76 232.32
  A 0.39 0.39 0.0 0 0 718.44 232.61
  Q 722.76 227.62 729.82 226.61
  A 0.61 0.60 11.2 0 1 730.43 227.51
  Q 724.57 237.56 726.38 250.22
  A 0.33 0.33 0.0 0 0 726.94 250.41
  Q 731.29 245.87 732.08 239.88
  A 0.60 0.60 0.0 0 1 733.22 239.69
  C 739.64 252.49 736.03 268.19 727.31 279.09
  A 0.32 0.32 0.0 0 0 727.66 279.59
  C 744.84 273.81 756.62 263.01 758.72 244.94
  Q 761.31 222.74 759.16 200.56
  Q 757.62 184.61 752.58 170.44
  Q 751.32 166.90 748.26 162.47
  Q 744.86 157.56 739.34 159.81
  Q 728.13 164.38 717.90 172.15
  Q 693.67 190.56 674.30 210.81
  Q 663.77 221.83 657.82 230.18
  A 0.92 0.92 0.0 0 1 656.86 230.54
  Q 644.42 227.68 630.49 226.01
  Q 588.22 220.94 548.09 235.59
  Q 535.63 240.13 523.39 246.14
  A 0.80 0.79 -37.6 0 1 522.51 246.03
  Q 512.75 237.66 500.36 230.64
  C 482.92 220.75 469.60 213.79 452.40 206.60
  Q 440.36 201.57 427.78 199.90
  Q 424.68 199.48 422.27 200.03
  C 413.21 202.10 415.66 231.13 416.62 238.22
  Q 418.90 255.05 424.08 271.61
  C 427.44 282.35 430.79 291.22 437.79 298.22
  C 446.01 306.44 455.95 309.15 467.39 309.73
  A 0.29 0.29 0.0 0 0 467.59 309.22
  Q 467.45 309.11 466.34 308.39
  C 461.74 305.40 458.26 300.90 455.01 294.74
  Q 449.81 284.89 451.60 273.74
  A 0.56 0.56 0.0 0 1 452.65 273.58
  Q 455.08 278.46 459.89 282.20
  A 0.61 0.61 0.0 0 0 460.87 281.62
  C 459.84 275.20 456.48 265.33 451.06 261.28
  A 0.55 0.54 59.9 0 1 451.32 260.30
  Q 458.49 259.45 463.82 263.20
  A 0.49 0.49 0.0 0 0 464.58 262.70
  C 463.12 255.44 455.91 247.92 449.18 245.08
  A 0.43 0.43 0.0 0 1 449.27 244.26
  Q 459.23 242.40 468.06 246.14
  A 0.17 0.17 0.0 0 0 468.24 245.86
  Q 458.18 236.67 444.07 235.17
  A 0.42 0.42 0.0 0 1 443.90 234.40
  Q 444.22 234.20 444.89 234.13
  Q 458.86 232.60 471.86 238.31
  A 0.32 0.32 0.0 0 0 472.25 237.83
  C 463.98 226.45 452.18 217.26 440.46 211.07
  Q 434.59 207.96 428.04 206.34
  A 0.15 0.14 9.3 0 1 427.92 206.19
  L 427.95 205.91
  A 0.41 0.41 0.0 0 1 428.40 205.53
  C 438.37 206.51 450.04 211.41 458.22 216.38
  C 474.87 226.49 489.78 239.69 500.19 256.06
  Q 505.22 263.99 507.78 272.29
  A 0.48 0.48 0.0 0 1 507.22 272.90
  C 498.08 271.07 487.39 270.11 478.67 272.88
  A 0.50 0.50 0.0 0 0 478.67 273.84
  Q 487.57 276.64 493.44 283.37
  A 0.46 0.45 -14.1 0 1 492.99 284.11
  Q 487.12 282.79 480.55 284.04
  A 0.39 0.39 0.0 0 0 480.43 284.77
  Q 487.07 288.54 491.02 295.64
  A 0.48 0.48 0.0 0 1 490.44 296.33
  Q 483.48 293.95 475.94 295.35
  A 0.64 0.64 0.0 0 0 475.61 296.44
  Q 480.05 300.77 482.61 306.29
  A 0.81 0.80 57.3 0 1 482.41 307.22
  L 473.21 315.46
  A 0.41 0.41 0.0 0 1 472.53 315.24
  L 472.38 314.50
  A 0.87 0.86 -8.1 0 0 471.45 313.81
  C 469.11 314.01 464.85 314.53 461.98 314.43
  Q 446.31 313.86 434.40 303.64
  A 0.10 0.10 0.0 0 0 434.23 303.73
  Q 436.59 323.67 448.05 340.21
  C 449.83 342.77 451.75 345.94 454.30 348.41
  A 1.23 1.20 23.2 0 1 454.67 349.30
  Q 454.24 365.75 452.80 379.00
  Q 451.54 390.68 448.70 399.62
  A 0.64 0.63 10.9 0 0 449.26 400.44
  L 454.21 400.86
  A 0.85 0.85 0.0 0 1 454.90 402.09
  L 450.31 411.20
  A 0.94 0.93 43.5 0 0 450.34 412.11
  Q 460.23 428.99 473.83 442.66
  Q 475.58 444.42 477.05 445.46
  A 1.27 1.27 0.0 0 0 478.04 445.67
  Q 510.59 439.26 545.78 440.93
  Q 556.59 441.45 564.78 442.85
  A 0.16 0.15 8.8 0 1 564.90 443.01
  L 564.88 443.27
  A 0.35 0.34 -86.4 0 1 564.53 443.59
  C 536.84 443.08 509.20 445.15 482.65 449.42
  A 0.46 0.45 61.3 0 0 482.42 450.21
  Q 491.04 457.93 501.45 464.24
  A 1.39 1.36 -40.3 0 0 502.71 464.33
  Q 530.81 452.66 565.26 449.76
  A 0.53 0.52 87.5 0 1 565.83 450.29
  L 565.83 450.32
  A 0.73 0.73 0.0 0 1 565.23 451.03
  Q 535.75 456.29 507.28 467.32
  A 0.63 0.62 48.1 0 0 507.22 468.46
  L 523.98 476.90
  A 0.85 0.85 0.0 0 0 524.82 476.86
  Q 544.88 464.31 568.18 457.25
  A 0.55 0.53 -16.5 0 1 568.86 457.61
  L 568.87 457.64
  A 0.54 0.53 71.0 0 1 568.56 458.28
  Q 547.47 467.00 529.58 478.84
  Q 529.50 478.89 529.36 479.11
  A 0.46 0.46 0.0 0 0 529.55 479.77
  Q 557.66 492.88 587.09 500.96
  A 0.24 0.23 53.9 0 1 587.02 501.42
  Q 562.39 500.13 538.89 494.40
  Q 526.73 491.43 517.24 487.71
  A 0.80 0.78 38.1 0 0 516.51 487.79
  Q 488.58 507.34 466.85 532.20
  A 0.21 0.20 37.7 0 1 466.57 532.23
  L 466.56 532.22
  A 0.21 0.19 -53.8 0 1 466.53 531.95
  Q 485.49 505.34 511.12 486.09
  A 0.24 0.24 0.0 0 0 511.08 485.69
  L 490.56 475.35
  A 0.65 0.65 0.0 0 0 489.99 475.33
  Q 465.28 486.32 444.29 499.59
  A 0.39 0.39 0.0 0 1 443.77 499.48
  L 443.76 499.47
  A 0.37 0.36 53.5 0 1 443.83 498.98
  Q 462.91 484.04 485.92 472.42
  A 0.29 0.28 46.8 0 0 485.93 471.92
  L 477.83 467.25
  A 0.27 0.26 -43.2 0 0 477.56 467.25
  Q 441.38 487.70 427.64 496.41
  Q 413.21 505.56 404.65 511.91
  C 365.79 540.71 334.15 577.98 316.18 622.90
  Q 307.00 645.85 303.61 668.06
  Q 300.84 686.25 300.10 689.66
  A 13.67 13.28 51.0 0 0 299.80 693.01
  Q 300.21 704.60 302.06 714.18
  C 309.15 750.96 338.61 774.21 375.75 775.09
  C 398.91 775.64 419.50 766.05 431.47 745.69
  Q 432.64 743.70 433.04 742.03
  A 0.64 0.64 0.0 0 1 434.22 741.86
  L 436.11 745.13
  A 0.45 0.45 0.0 0 0 436.95 744.96
  C 438.08 735.99 437.63 726.89 434.62 718.58
  C 432.82 713.59 430.86 709.46 431.70 704.23
  C 432.62 698.43 437.63 694.76 443.12 694.61
  Q 455.26 694.28 465.98 700.94
  A 0.42 0.42 0.0 0 0 466.62 700.62
  L 467.00 696.07
  A 0.38 0.38 0.0 0 1 467.55 695.77
  Q 478.14 701.16 485.71 708.35
  A 0.20 0.20 0.0 0 0 486.04 708.15
  Q 483.23 698.82 481.13 692.91
  C 469.91 661.25 445.41 634.51 413.25 624.01
  Q 410.77 623.21 404.54 621.23
  A 0.18 0.18 0.0 0 1 404.61 620.88
  C 435.44 624.39 462.29 639.91 481.14 664.51
  A 0.23 0.23 0.0 0 0 481.55 664.36
  Q 479.90 641.52 486.45 618.76
  A 0.20 0.20 0.0 0 1 486.84 618.83
  Q 484.99 645.60 491.83 672.82
  Q 495.89 689.02 501.16 703.36
  Q 519.68 753.80 544.57 804.45
  Q 550.08 815.68 554.18 822.36
  Q 563.74 837.93 581.59 843.44
  Q 588.26 845.50 593.00 845.56
  C 605.48 845.73 609.62 831.16 606.48 821.47
  A 0.54 0.54 0.0 0 1 607.42 820.96
  Q 617.02 833.19 609.88 846.75
  A 0.26 0.25 12.8 0 0 610.12 847.12
  Q 618.14 846.90 624.24 846.01
  Q 631.20 845.00 635.22 839.71
  C 641.32 831.68 640.68 820.17 636.32 811.34
  A 0.42 0.42 0.0 0 1 636.94 810.81
  Q 638.50 811.93 640.00 813.79
  Q 648.78 824.63 645.76 838.11
  A 0.31 0.31 0.0 0 0 646.26 838.41
  Q 648.80 836.24 650.32 833.31
  C 655.56 823.25 653.50 811.43 646.81 802.38
  C 633.45 784.30 603.87 792.06 587.55 800.59
  A 0.23 0.22 -81.2 0 1 587.29 800.23
  Q 601.82 785.43 622.41 783.09
  A 0.17 0.17 0.0 0 0 622.54 782.83
  Q 619.04 777.46 615.71 770.53
  C 601.04 740.06 594.94 703.98 600.04 670.04
  Q 604.35 641.39 620.31 617.46
  A 0.24 0.24 0.0 0 1 620.74 617.68
  Q 606.19 656.98 610.42 698.87
  A 0.35 0.34 -21.1 0 0 610.97 699.11
  Q 616.61 694.90 621.50 691.01
  Q 634.33 680.80 643.19 667.34
  A 0.44 0.44 0.0 0 1 644.00 667.62
  L 643.13 677.94
  A 0.24 0.24 0.0 0 0 643.55 678.11
  Q 657.71 661.79 667.51 643.24
  Q 671.26 636.14 673.48 629.19
  A 0.33 0.33 0.0 0 1 674.11 629.21
  Q 676.03 637.26 675.22 646.00
  Q 675.07 647.55 675.11 648.27
  A 0.18 0.17 -28.9 0 0 675.43 648.36
  C 685.80 633.92 693.11 615.03 693.20 596.95
  A 0.31 0.30 -78.7 0 1 693.61 596.67
  Q 693.94 596.79 694.11 597.18
  Q 697.88 606.07 698.94 615.82
  A 0.28 0.28 0.0 0 0 699.47 615.91
  Q 709.22 594.32 705.92 570.60
  Q 705.67 568.81 704.82 565.74
  A 0.32 0.32 0.0 0 1 705.36 565.43
  Q 711.71 571.87 715.00 579.61
  A 0.21 0.21 0.0 0 0 715.40 579.56
  Q 719.37 552.65 711.41 526.56
  A 0.17 0.17 0.0 0 1 711.67 526.37
  L 725.91 537.21
  A 0.35 0.35 0.0 0 0 726.45 536.82
  Q 720.00 516.96 715.03 496.75
  Q 711.56 482.67 709.83 469.02
  A 0.25 0.25 0.0 0 0 709.45 468.84
  Q 680.52 485.93 647.82 494.87
  A 0.10 0.09 -78.8 0 1 647.72 494.72
  Z
  M 692.33 805.58
  Q 693.69 806.56 695.32 809.09
  Q 701.85 819.30 698.48 830.36
  A 0.26 0.26 0.0 0 0 698.81 830.68
  Q 713.97 825.42 712.59 809.07
  C 710.47 784.02 685.06 777.68 665.24 786.35
  A 0.40 0.39 -78.6 0 1 664.81 785.70
  Q 673.12 777.66 685.02 775.77
  A 0.21 0.21 0.0 0 0 685.14 775.43
  C 672.34 759.62 673.43 730.32 675.83 711.27
  Q 680.00 678.09 690.39 645.50
  A 0.37 0.37 0.0 0 0 689.74 645.18
  Q 681.71 656.97 672.31 667.58
  Q 661.99 679.22 661.37 679.97
  A 0.42 0.42 0.0 0 1 660.62 679.67
  L 661.20 672.74
  A 0.53 0.53 0.0 0 0 660.26 672.37
  C 653.45 681.03 647.47 686.53 637.82 695.07
  Q 635.96 696.72 634.86 699.61
  Q 624.33 727.21 626.78 756.72
  Q 627.69 767.77 634.14 778.12
  Q 634.93 779.38 635.44 780.29
  Q 636.30 781.83 637.12 782.12
  Q 660.41 790.34 664.85 814.67
  Q 666.73 824.97 663.25 834.27
  A 0.24 0.24 0.0 0 0 663.47 834.59
  Q 671.73 834.60 676.21 834.39
  Q 682.25 834.11 685.06 832.67
  C 693.29 828.48 695.35 817.64 692.94 809.48
  Q 691.94 806.08 691.89 805.87
  A 0.28 0.28 0.0 0 1 692.33 805.58
  Z
  M 480.08 717.97
  L 479.35 726.67
  A 0.72 0.72 0.0 0 1 478.04 727.01
  C 471.50 717.21 458.34 711.31 446.97 708.81
  A 0.30 0.29 -4.3 0 0 446.63 709.20
  C 456.91 736.23 449.19 767.56 425.86 785.47
  A 0.32 0.32 0.0 0 1 425.37 785.09
  Q 428.93 776.72 430.24 767.11
  A 0.21 0.20 68.5 0 0 429.88 766.95
  C 417.95 782.10 399.95 789.29 380.98 791.44
  C 358.67 793.96 333.44 789.47 315.34 776.69
  C 294.10 761.70 283.06 738.13 282.05 712.48
  A 0.19 0.18 -21.9 0 0 281.74 712.35
  C 247.60 742.86 236.78 797.68 271.78 831.98
  C 290.96 850.77 318.44 857.61 344.24 860.58
  Q 377.20 864.38 409.23 858.79
  C 442.51 852.99 471.37 838.31 488.99 809.36
  A 0.24 0.24 0.0 0 0 488.65 809.03
  Q 480.67 814.61 470.78 817.77
  A 0.27 0.27 0.0 0 1 470.49 817.35
  Q 470.86 816.87 472.77 815.03
  C 488.18 800.14 497.97 780.06 498.68 758.67
  A 0.16 0.16 0.0 0 0 498.40 758.55
  L 491.58 765.37
  A 0.35 0.34 72.0 0 1 491.00 765.07
  Q 494.89 740.18 480.94 717.76
  A 0.47 0.47 0.0 0 0 480.08 717.97
  Z
  M 509.62 796.65
  C 510.84 799.57 510.15 801.11 509.02 804.66
  Q 501.14 829.49 481.38 846.55
  A 0.33 0.33 0.0 0 0 481.60 847.13
  Q 485.82 846.96 495.50 846.70
  C 503.84 846.47 509.90 845.22 513.26 837.48
  Q 517.74 827.17 512.61 816.12
  A 0.37 0.37 0.0 0 1 513.17 815.67
  Q 515.08 817.19 516.57 819.44
  Q 523.26 829.52 520.62 841.40
  A 0.21 0.21 0.0 0 0 520.92 841.63
  C 533.01 835.60 533.93 823.26 528.46 812.17
  Q 522.78 800.67 510.14 796.11
  A 0.41 0.41 0.0 0 0 509.62 796.65
  Z"
/>
<path fill="#010101" d="
  M 707.45 347.95
  A 0.34 0.34 0.0 0 1 707.76 348.50
  C 705.26 351.40 701.75 353.37 698.38 355.61
  A 1.02 1.02 0.0 0 0 697.94 356.52
  C 699.87 380.65 684.74 397.40 660.49 395.78
  Q 655.46 395.45 646.64 394.60
  Q 638.14 393.79 635.04 401.00
  A 0.43 0.43 0.0 0 1 634.21 400.87
  C 632.10 380.63 634.19 352.96 655.20 342.48
  Q 666.63 336.77 679.50 339.70
  C 689.02 341.87 697.56 349.62 707.45 347.95
  Z
  M 669.90 348.21
  A 0.30 0.29 -24.7 0 0 669.70 348.74
  C 671.28 349.96 672.97 350.89 674.63 352.64
  C 683.98 362.54 684.94 378.31 675.02 388.11
  A 0.22 0.22 0.0 0 0 675.27 388.46
  Q 688.75 382.41 690.38 368.22
  C 691.84 355.36 681.38 348.65 669.90 348.21
  Z
  M 672.84 359.51
  A 5.54 5.54 0.0 0 0 667.30 353.97
  A 5.54 5.54 0.0 0 0 661.76 359.51
  A 5.54 5.54 0.0 0 0 667.30 365.05
  A 5.54 5.54 0.0 0 0 672.84 359.51
  Z
  M 641.22 388.21
  Q 641.40 388.44 641.49 388.46
  Q 647.30 390.22 652.84 390.53
  A 0.22 0.22 0.0 0 0 652.97 390.13
  Q 648.68 387.32 646.12 384.20
  Q 643.55 381.07 641.64 376.31
  A 0.22 0.22 0.0 0 0 641.22 376.36
  Q 640.44 381.85 641.03 387.89
  Q 641.04 387.99 641.22 388.21
  Z"
/>
<path fill="#010101" d="
  M 577.59 408.51
  Q 571.67 402.12 562.64 405.90
  Q 556.36 408.54 547.75 410.63
  C 528.69 415.27 510.99 405.38 506.22 386.08
  Q 506.15 385.80 504.93 380.79
  A 1.10 1.10 0.0 0 0 504.13 379.99
  Q 497.54 378.42 494.00 376.33
  A 0.58 0.57 -30.0 0 1 494.29 375.26
  Q 499.87 375.23 504.83 370.79
  C 514.48 362.15 523.66 355.08 537.53 355.89
  C 555.55 356.94 567.63 370.50 572.93 386.84
  Q 576.24 397.02 578.22 408.19
  A 0.37 0.37 0.0 0 1 577.59 408.51
  Z
  M 529.55 366.07
  C 518.68 369.70 510.54 379.05 515.53 390.95
  Q 521.05 404.09 535.65 406.12
  A 0.22 0.22 0.0 0 0 535.79 405.71
  C 523.56 399.09 520.07 383.73 526.26 371.63
  C 527.36 369.49 528.72 368.13 529.89 366.52
  A 0.30 0.29 8.5 0 0 529.55 366.07
  Z
  M 555.16 375.44
  A 5.37 5.37 0.0 0 0 549.79 370.07
  A 5.37 5.37 0.0 0 0 544.42 375.44
  A 5.37 5.37 0.0 0 0 549.79 380.81
  A 5.37 5.37 0.0 0 0 555.16 375.44
  Z
  M 558.84 402.12
  L 568.39 398.41
  A 0.72 0.72 0.0 0 0 568.82 397.54
  L 565.69 386.55
  A 0.37 0.37 0.0 0 0 564.97 386.62
  Q 564.27 395.14 558.42 401.51
  A 0.38 0.38 0.0 0 0 558.84 402.12
  Z"
/>
<path fill="#010101" d="
  M 663.54 456.26
  Q 655.49 467.44 641.22 468.45
  C 631.28 469.16 622.86 465.39 613.97 461.14
  A 0.86 0.86 0.0 0 0 613.03 461.26
  C 602.34 470.18 593.94 477.56 578.85 475.67
  Q 570.66 474.65 564.42 469.43
  A 0.31 0.31 0.0 0 1 564.75 468.91
  C 578.38 475.37 594.63 469.79 604.29 459.41
  C 605.73 457.86 607.67 454.74 608.46 452.46
  A 1.95 1.94 28.8 0 0 607.83 450.30
  C 602.45 446.02 597.97 442.00 592.96 438.55
  Q 587.63 434.86 586.03 427.88
  A 0.25 0.24 -73.9 0 1 586.44 427.65
  L 587.66 428.87
  A 0.57 0.57 0.0 0 0 588.53 428.80
  C 593.16 422.20 604.28 420.55 612.76 419.80
  Q 621.93 418.99 627.83 423.16
  A 0.80 0.80 0.0 0 0 628.80 423.12
  Q 629.14 422.84 629.49 422.16
  A 0.36 0.36 0.0 0 1 630.17 422.28
  Q 630.84 428.42 627.86 433.04
  Q 625.83 436.18 615.37 449.35
  A 0.99 0.98 -31.4 0 0 615.17 450.16
  Q 615.64 452.43 617.23 453.86
  C 628.88 464.38 650.87 466.93 663.23 455.98
  A 0.21 0.21 0.0 0 1 663.54 456.26
  Z
  M 617.40 439.70
  A 1.67 1.66 -36.5 0 0 617.70 437.75
  L 616.48 435.44
  A 1.45 1.45 0.0 0 1 616.33 434.89
  C 616.14 431.06 619.59 430.47 622.55 430.38
  A 1.39 1.37 -66.7 0 0 623.41 430.03
  Q 625.25 428.38 623.71 426.63
  C 619.69 422.11 602.81 425.97 597.68 427.62
  C 596.26 428.08 592.31 430.34 592.75 432.12
  A 1.92 1.87 -10.5 0 0 594.85 433.52
  C 598.86 432.99 606.16 433.75 602.84 439.95
  A 0.95 0.94 -59.4 0 0 603.15 441.18
  L 608.33 444.64
  A 0.57 0.57 0.0 0 0 609.22 444.20
  Q 609.41 440.73 609.38 436.81
  A 0.59 0.57 -81.4 0 1 610.12 436.24
  Q 610.68 436.42 611.01 437.27
  Q 611.59 438.75 612.81 443.15
  A 0.55 0.55 0.0 0 0 613.72 443.39
  L 617.40 439.70
  Z"
/>
<path fill="#010101" d="
  M 619.34 497.26
  C 610.75 498.23 602.02 494.62 596.53 487.89
  A 0.34 0.34 0.0 0 1 596.97 487.37
  C 603.66 491.02 611.00 492.09 618.66 491.21
  C 626.31 490.34 633.23 487.66 638.93 482.60
  A 0.34 0.34 0.0 0 1 639.47 483.01
  C 635.63 490.80 627.94 496.28 619.34 497.26
  Z"
/>
</svg>
