<svg xmlns="http://www.w3.org/2000/svg" xmlns:xlink="http://www.w3.org/1999/xlink" viewBox="0 0 100 100" version="1.1"><g transform="translate(1, 5.271700674825212) scale(0.05001854164371034) translate(-4.226563, -112.640625)"><path style=" stroke:none;fill-rule:nonzero;fill:rgb(0%,0%,0%);fill-opacity:1;" d="M 158 918 C 165 916.078125 171.734375 913.070313 179 912 C 167.582031 924.140625 150.753906 935.054688 143 950 C 150 949 156.300781 945.28125 163 943 C 156.601563 949.3125 145 955.257813 141 963 L 152 961 C 144.535156 968.066406 133.609375 971.382813 130 982 C 133 981.726563 142.828125 977 145 979.082031 C 147 981 141 986 140 987 C 132.359375 994.476563 123.390625 1001.363281 120 1012 C 124.226563 1011.085938 133.234375 1004.46875 137.378906 1007.429688 C 140.3125 1009.527344 133.394531 1015 132 1016.171875 C 124.5625 1024 115 1033.632813 114 1045 C 117 1044 126.734375 1036 129.828125 1038.480469 C 132 1040.429688 126 1046.585938 124.996094 1048 C 117.625 1057.308594 109.488281 1067.082031 107 1079 C 110.914063 1077.753906 123.378906 1067.320313 127.171875 1070.238281 C 129.566406 1072.078125 123.730469 1079.386719 122.640625 1081 C 115.8125 1091.132813 107.792969 1100.78125 105 1113 C 113.777344 1111.636719 120.671875 1105.589844 129 1103 C 122.410156 1113 113.265625 1121.691406 108.898438 1133 C 108.265625 1134.644531 104.441406 1142.34375 106.730469 1143.507813 C 110 1145.210938 120.671875 1135.582031 124 1134 C 121.558594 1143 118.550781 1152 117 1161 C 127.722656 1154.035156 139.554688 1155 152 1155 C 177 1155 201.519531 1158.140625 226 1164 C 280.578125 1177.066406 331.359375 1204 379 1232.796875 C 423.441406 1259.773438 466.925781 1288.089844 509 1318.71875 C 538.210938 1340 567.203125 1361.769531 594 1386.074219 C 600 1391.660156 607 1397 612.574219 1403.039063 C 614.445313 1405.132813 618.316406 1408.636719 616.363281 1411.699219 C 609 1423.199219 592.382813 1403.214844 587 1398.574219 C 560.515625 1375.738281 532.972656 1354.503906 505 1333.527344 C 466.863281 1305 426.652344 1279.085938 386 1254.253906 C 335.945313 1223.683594 284 1194.554688 227 1179.265625 C 202 1172.597656 176.8125 1168 151 1168 C 144.867188 1168 131.335938 1165.480469 126.417969 1169.601563 C 120.984375 1174.160156 119 1187.410156 117 1194 C 116.613281 1195.644531 114.269531 1200.382813 116 1201.828125 C 118.675781 1204 125.433594 1195.089844 126.542969 1197.636719 C 129 1203.5 120.304688 1216.382813 120 1223 L 125 1221 C 124.621094 1223.8125 120.53125 1233.726563 123.617188 1235.355469 C 128.433594 1238 143 1231.308594 149 1231.039063 C 173.390625 1230 197.667969 1228.34375 222 1232.613281 C 307.425781 1247.609375 393.265625 1291.222656 465 1339 C 481.882813 1350.246094 499.28125 1360.585938 516 1372.117188 C 519.742188 1374.695313 531.945313 1380.441406 531.945313 1385.695313 C 531.945313 1388.675781 526.695313 1387.789063 525 1387.574219 C 517 1386.585938 509.679688 1384.679688 502 1383 C 470.5 1375.578125 439.402344 1366 408 1358.128906 C 339.988281 1341.128906 267.980469 1331.753906 198 1338 C 163.394531 1341 131.703125 1344 100 1359.753906 C 73.953125 1372.742188 48.789063 1387.21875 26 1405.449219 C 20.738281 1409.660156 4.226563 1420.460938 10.605469 1428.773438 C 13.859375 1433.015625 18.371094 1431.335938 22 1428.75 C 30 1423 37.742188 1416.542969 46 1411 C 83.183594 1386.042969 121.386719 1368.140625 163 1352 C 163 1358.242188 162.222656 1365 164 1371 C 167.375 1368.109375 168.984375 1364.085938 173 1362 C 170.253906 1369.523438 168.65625 1379.066406 170 1387 C 172.972656 1384.453125 174.492188 1381.597656 176 1378 L 177 1378 C 176.886719 1383.390625 176.199219 1391.769531 171.851563 1395.5 C 164 1402.210938 149.523438 1404.132813 140 1407.8125 C 120.347656 1415.398438 101.382813 1424.597656 83 1435 C 76.265625 1438.617188 49.453125 1451 57.742188 1461.722656 C 62.535156 1468 70 1462.480469 75 1459.769531 C 90 1451.613281 104.507813 1443 120 1435.765625 C 184.714844 1405.578125 252.203125 1389.777344 323 1384.085938 C 342.65625 1382.507813 363.410156 1382 383 1384.050781 C 388 1384.617188 401.898438 1385.796875 400.964844 1393.773438 C 400.175781 1400.484375 379.339844 1397.023438 375 1397 C 347 1397 319.742188 1398.558594 292 1401 C 266.90625 1403.207031 241.664063 1408.367188 217 1413.335938 C 210.355469 1414.675781 195.519531 1414.34375 190.660156 1419.554688 C 188 1422.324219 192.550781 1423.785156 193.539063 1426 C 194.847656 1428.59375 197.824219 1444.238281 195.746094 1445.722656 C 185.878906 1452.773438 168.414063 1454.449219 157 1459 C 129.664063 1470 103.796875 1482.367188 79 1498.308594 C 59.351563 1511 41.859375 1524.4375 24.484375 1540.039063 C 19.691406 1544.34375 7.605469 1552 12 1560 C 15 1565.394531 21 1563.222656 25 1560.292969 C 35.371094 1552.695313 44.695313 1543.605469 55 1536 C 85.390625 1513.070313 117.773438 1495.480469 153 1481.398438 C 167.558594 1475.582031 185.203125 1467.722656 201 1467 L 201 1468 C 189.910156 1473.246094 179.207031 1480.199219 169 1487 C 164.273438 1490.148438 158.640625 1492.828125 156 1498 C 163 1495.417969 170.195313 1490.46875 178 1491 C 164.566406 1499.261719 147.214844 1510.511719 140 1525 C 147 1522.683594 153 1518 160 1515 C 148.527344 1531.285156 129.511719 1542.230469 119 1559 C 124.671875 1559.328125 129.707031 1555.800781 135 1554 C 122.914063 1566 103 1579.570313 99 1597 C 105.394531 1595 110.941406 1590.828125 117 1588 C 110 1600.53125 94.636719 1615.609375 96 1631 C 100 1628.101563 103.21875 1624.269531 107 1621 C 101.953125 1636.71875 98 1652.585938 96 1669 C 96.957031 1668.132813 100.222656 1663.203125 101.53125 1663.632813 C 103.21875 1664.183594 102.171875 1670 102 1671.285156 C 101.890625 1677.222656 106.710938 1692.714844 103.800781 1697.398438 C 100.664063 1702.4375 84.8125 1699.417969 80 1699.089844 C 62.480469 1698 44.484375 1699 27 1699 C 22.488281 1699 12.292969 1697.105469 8.601563 1700.027344 C 5.648438 1702.367188 7 1709.683594 7 1713 L 7 1749 C 7 1752.539063 5.503906 1760.6875 9.316406 1762.691406 C 14 1765.164063 22.808594 1764 28 1764 L 134 1764 C 143 1764 155.257813 1762 164 1764.515625 C 172.511719 1767.070313 178.4375 1776.464844 187 1780 L 187 1781 C 151.828125 1781 116.972656 1785.496094 82 1788.828125 C 65.472656 1790.40625 45.882813 1789.304688 30 1794 L 30 1795 C 77 1795 124 1799 171 1801 C 196.375 1802.070313 222.882813 1799.03125 248 1801.171875 C 257.664063 1802 264.183594 1812 274 1813 L 274 1814 C 256.472656 1818.171875 235 1815.574219 217 1816.015625 C 177.75 1817 136.933594 1817.460938 98 1822.574219 C 85.609375 1824.203125 72.503906 1824.054688 60 1825 C 55 1825.253906 48.226563 1823.433594 45 1828 C 72.660156 1828 100.390625 1830.753906 128 1832 C 214.195313 1835.734375 300.769531 1838 387 1840 C 473.761719 1842.109375 560.367188 1835.035156 647 1834.003906 C 695.6875 1833.425781 744.367188 1832.582031 793 1832.003906 C 822.808594 1831.648438 853.421875 1833.738281 883 1830 L 883 1829 C 809.742188 1824.125 736.226563 1824.105469 663 1819.089844 C 641.339844 1817.605469 619.683594 1816.574219 598 1815.089844 C 589 1814.476563 578.214844 1816 570 1812 C 576.5 1809.046875 582.90625 1804.796875 590 1803.378906 C 601.753906 1801.027344 615 1803.484375 627 1803 C 644.71875 1802.183594 662.199219 1801 680 1801 C 732.269531 1801 784.703125 1797 837 1797 C 859.421875 1797 881.695313 1795.269531 904 1795.003906 C 912.996094 1795 927 1797.734375 935 1793 C 925.703125 1790.253906 914.667969 1790.574219 905 1790 L 847 1786 C 801.933594 1782.824219 757 1784 712 1782 C 683.285156 1780.703125 654.839844 1778 626 1778 C 629.769531 1773.640625 634.8125 1767.628906 640 1765.027344 C 650.238281 1760 667.835938 1763 679 1763 L 1295 1763 C 1315.78125 1763 1332.1875 1759.757813 1346 1778 C 1315.179688 1778 1284.710938 1780.617188 1254 1782 C 1223 1783.316406 1191.957031 1782.605469 1161 1784 C 1130.1875 1785.308594 1099.71875 1787 1069 1789.828125 C 1056.484375 1791.027344 1043.253906 1791.050781 1031 1794 L 1031 1795 C 1113.917969 1795 1197.214844 1797.335938 1280 1801 C 1301 1802 1322.878906 1803 1344 1803 C 1356.847656 1803.019531 1371.335938 1801.105469 1384 1803.261719 C 1391.679688 1804.566406 1398.664063 1809.503906 1406 1812 L 1406 1813 C 1321.734375 1819.648438 1237.441406 1821.34375 1153 1825.039063 C 1129.714844 1826.058594 1106.320313 1829 1083 1829 L 1083 1830 C 1116.28125 1830.003906 1149.710938 1832.601563 1183 1833 C 1262.308594 1834 1341.796875 1832.570313 1421 1836.039063 C 1474 1838.359375 1526.789063 1840.628906 1580 1840 C 1666.480469 1839 1753.566406 1835.746094 1840 1832 C 1868.949219 1830.691406 1898 1828 1927 1828 C 1923.476563 1823.371094 1915.257813 1825.023438 1910 1825 C 1896 1825 1881.957031 1822.59375 1868 1822 C 1811.871094 1819.414063 1755 1818.421875 1699 1814 L 1699 1813 C 1706.351563 1810.109375 1713.410156 1804.269531 1721 1802.417969 C 1729.554688 1800.332031 1740.214844 1802.042969 1749 1802 C 1766.820313 1802 1785 1801.742188 1803 1801 C 1847.996094 1799 1892.90625 1795 1938 1795 L 1938 1794 C 1922 1789.304688 1902.539063 1790.597656 1886 1788.824219 C 1851.351563 1785.117188 1816.964844 1781 1782 1781 C 1788.375 1776.070313 1798.445313 1766.78125 1806 1764.515625 C 1815.851563 1761.558594 1829.730469 1764 1840 1764 L 1915 1764 C 1925.390625 1764 1935.628906 1763 1946 1763 C 1949.703125 1763 1956.355469 1764.382813 1959.683594 1762.6875 C 1963.5 1760.738281 1962 1752.496094 1962 1749 L 1962 1714 C 1962 1710.648438 1963.332031 1703.527344 1960.972656 1700.816406 C 1957.925781 1697.320313 1947.1875 1699 1943 1699 C 1925.882813 1699 1908 1697.546875 1891 1699.171875 C 1885.972656 1699.648438 1871.601563 1702.800781 1867.929688 1698.140625 C 1866 1695.785156 1868.191406 1689.71875 1868.574219 1687 C 1869.851563 1678 1870 1669.117188 1870 1660 L 1871 1660 C 1872.546875 1663.074219 1874 1665.246094 1877 1667 C 1874.835938 1652.289063 1865.980469 1635.464844 1866 1621 C 1869.414063 1624.144531 1872.746094 1627.105469 1877 1629 C 1874.222656 1613 1861 1602.402344 1855 1588 C 1861 1590.644531 1866.351563 1594.613281 1873 1596 C 1864.972656 1578.359375 1849.542969 1568.734375 1837 1555 L 1853 1561 C 1846.855469 1542.78125 1824 1531.304688 1813 1516 C 1819.667969 1518.277344 1825.394531 1522.597656 1832 1525 C 1827.5625 1509.03125 1806.738281 1502.789063 1797 1491 C 1802.78125 1492.640625 1809 1496.347656 1815 1496 C 1803.871094 1483 1784.363281 1479.300781 1773 1467 C 1787.304688 1468.246094 1802.609375 1474.785156 1816 1479.773438 C 1852.398438 1493.328125 1886 1513.125 1917 1536.375 C 1927 1544 1936 1552.675781 1946 1560.152344 C 1949.929688 1563.089844 1955.730469 1565.28125 1958.820313 1560 C 1963.5 1551.664063 1951.914063 1543.710938 1946.984375 1539 C 1930.574219 1523.15625 1911 1510 1892 1497.691406 C 1868.375 1482.480469 1843 1469.828125 1817 1459.398438 C 1805 1454.605469 1787.742188 1452.613281 1777.238281 1445.234375 C 1774.972656 1443.644531 1778.320313 1428.761719 1779.472656 1425.324219 C 1780 1423.550781 1782.9375 1421.585938 1781.246094 1419.644531 C 1776.539063 1414.234375 1762.480469 1414.734375 1756 1413.253906 C 1729.957031 1407.304688 1703.425781 1404.300781 1677 1400.574219 C 1649.953125 1396.761719 1622.296875 1397 1595 1397 C 1590.800781 1397 1570.636719 1399.714844 1570.257813 1394 C 1569.730469 1385.785156 1582.546875 1384.492188 1588 1384.089844 C 1607.71875 1382.636719 1629.390625 1381 1649 1384.078125 C 1674 1388.195313 1699.777344 1389 1725 1393.320313 C 1769 1401 1810.5625 1417.03125 1851 1435.625 C 1866.300781 1442.660156 1881.359375 1450.683594 1896 1459 C 1900.597656 1461.609375 1908.707031 1467.660156 1913.566406 1462.679688 C 1923.890625 1452.101563 1895.730469 1439.085938 1889 1435.140625 C 1870.257813 1424.152344 1850.203125 1415.136719 1830 1407.203125 C 1821.304688 1403.789063 1808.449219 1402.308594 1801 1396.488281 C 1796 1392.535156 1795.667969 1385 1796 1379 C 1798.402344 1382 1800.25 1384.71875 1802 1388 L 1803 1388 C 1803 1379 1802 1370.582031 1799 1362 C 1803.199219 1365.019531 1805.910156 1369.542969 1811 1371 C 1810.308594 1367.433594 1807 1358.828125 1810 1355.789063 C 1811.964844 1353.800781 1816.839844 1356.070313 1819 1356.71875 C 1827.191406 1359.183594 1835 1362.335938 1843 1365.71875 C 1873.609375 1379 1903 1394.59375 1930 1414.476563 C 1935 1418.222656 1960 1442 1962 1425 C 1962.921875 1417 1949.285156 1408.808594 1944 1404.601563 C 1923.785156 1388.519531 1901.320313 1374 1878 1362.785156 C 1860.292969 1354.292969 1841.335938 1346.214844 1822 1342.371094 C 1810.804688 1340.144531 1799.214844 1341.578125 1788 1339.742188 C 1710.980469 1327.132813 1628.855469 1342 1554 1360.628906 C 1525.835938 1367.667969 1498 1376.246094 1470 1383.472656 C 1465.300781 1384.679688 1445.503906 1392 1441.917969 1387.128906 C 1440.359375 1385.078125 1444 1382.371094 1445.289063 1381.269531 C 1450.488281 1376.746094 1456.378906 1373.226563 1462 1369.277344 C 1486.417969 1352.136719 1511 1335.566406 1537 1320.71875 C 1613.542969 1276.832031 1694.484375 1235.21875 1784 1229.089844 C 1798.621094 1228.089844 1814.570313 1229.394531 1829 1231.753906 C 1834.972656 1232.730469 1841.910156 1236 1847.8125 1236.050781 C 1855.8125 1236.246094 1839.464844 1215.15625 1853 1222 C 1853.734375 1212.738281 1844.953125 1203.566406 1844 1194 C 1848.71875 1197.324219 1852 1202.085938 1858 1203 C 1855.359375 1194.769531 1852 1175.117188 1845.582031 1169.601563 C 1840.527344 1165.367188 1826.320313 1168 1820 1168 C 1793 1168 1766.863281 1173 1741 1180.273438 C 1683.472656 1196.632813 1631.984375 1225.773438 1581 1256.265625 C 1540 1280.71875 1499.207031 1307.441406 1462 1337.191406 C 1436.363281 1357.691406 1408.933594 1376.4375 1385 1399.035156 C 1379.394531 1404.328125 1365.554688 1421.710938 1357.421875 1411.609375 C 1354.859375 1408.425781 1357.832031 1405.367188 1360 1403 C 1365.851563 1396.792969 1372.792969 1391.757813 1379 1386 C 1405.484375 1361.300781 1434.921875 1339 1464 1317.378906 C 1547.253906 1255.800781 1639.851563 1192.507813 1741 1165.425781 C 1767.222656 1158.402344 1792.878906 1155 1820 1155 C 1831.875 1155 1843.761719 1153.542969 1854 1160 C 1853.992188 1150.375 1850.910156 1142.644531 1847 1134 C 1850.414063 1135.8125 1860.828125 1145 1864.382813 1143.542969 C 1867.851563 1142.164063 1862.796875 1134 1861.917969 1132 C 1856.75 1121 1847.394531 1112.570313 1842 1102 C 1845.261719 1103.738281 1848.679688 1105.125 1852 1106.757813 C 1854.59375 1108.03125 1862.425781 1113.65625 1865.289063 1111.757813 C 1867.605469 1110.226563 1864 1105.5625 1863.371094 1104 C 1859.320313 1095.789063 1854.746094 1088.617188 1849.667969 1081 C 1848.460938 1079.191406 1842.410156 1072.308594 1844.828125 1070.121094 C 1848.460938 1066.828125 1860.824219 1077.09375 1865 1078 C 1862.484375 1061.816406 1847.769531 1050 1838 1038 C 1845.652344 1036.570313 1851.21875 1041.433594 1858 1044 C 1856.671875 1033.382813 1847 1023.472656 1839.960938 1016 C 1838.734375 1014.707031 1832 1009.292969 1834.753906 1007.15625 C 1837.875 1004.613281 1848.414063 1011.351563 1852 1012 C 1847 997.542969 1832.464844 990.011719 1824 978 C 1830.449219 978.832031 1836.679688 980.554688 1843 982 C 1839.179688 970.765625 1826.515625 967.007813 1819 959 C 1823.410156 959.648438 1827.503906 961 1832 961 L 1832 960 C 1824.578125 955 1816 949.59375 1810 943 C 1817 944.605469 1823.914063 948.273438 1831 949 C 1823.8125 938.796875 1813.199219 931.042969 1804 922.675781 C 1802.585938 921.308594 1795.96875 915.78125 1796.628906 913.523438 C 1797.636719 910.097656 1812.914063 917.253906 1815 918 C 1812.3125 909.640625 1799.800781 903.507813 1793 898.476563 C 1789.976563 896.238281 1784.890625 894.015625 1784 890 C 1782.640625 883 1786.875 872.136719 1787.871094 865 C 1790.214844 848.160156 1791 832.019531 1791 815 C 1791 760.164063 1778.597656 705.488281 1788.425781 651 C 1797.425781 601.09375 1819.234375 554 1832 505 C 1850.1875 436.269531 1856.902344 364.675781 1850.171875 294 C 1846.179688 252.09375 1839.535156 210.308594 1820.890625 172 C 1814.351563 158.558594 1805.984375 144.804688 1794 135.527344 C 1764.433594 112.640625 1719.632813 125.292969 1688 136.167969 C 1594.574219 168.289063 1504.667969 227 1430 291 C 1408 309.671875 1386.628906 329.402344 1364 347.382813 C 1360.722656 350 1355.480469 354.246094 1351.546875 355.617188 C 1345.828125 357.605469 1341.96875 354 1340 362 C 1331.742188 354.382813 1332 359.429688 1326 367 C 1325.351563 364.289063 1325 361.785156 1325 359 C 1317.949219 362 1315.855469 366 1314 373 L 1313 373 C 1312.964844 362.800781 1304 363.628906 1300 372.105469 C 1295.46875 382.371094 1299.675781 399 1298.910156 410 C 1297 436.582031 1293.640625 463 1288.625 489 C 1276.34375 553.0625 1248.90625 613 1233 676 C 1227 700.28125 1223 724.660156 1217.882813 749 C 1216.722656 754.457031 1215.71875 760.464844 1215 766 C 1214.964844 767.199219 1215.238281 772 1213.195313 772 C 1209.722656 772 1211 757.304688 1210.828125 755 C 1209 736.640625 1207 718.28125 1204.910156 700 C 1200.570313 663.542969 1192.65625 628 1191 591 C 1189.226563 549.597656 1196.871094 510.6875 1202 470 L 1203 470 C 1202.972656 514.1875 1198 557.667969 1201 602 C 1203.183594 632.570313 1212.914063 663.539063 1213 694 L 1215 694 C 1217.191406 667.183594 1229 639.535156 1236.972656 614 C 1253 562.269531 1269.9375 512.171875 1280.550781 459 C 1284.925781 437.078125 1286.261719 413.308594 1285.996094 391 C 1285.964844 388.210938 1285.871094 370.207031 1282.851563 370.207031 C 1276.898438 370.207031 1266.5625 387.050781 1262 391 C 1262 384.074219 1264.40625 377.363281 1267 371 C 1254.628906 374 1246.613281 385.597656 1235 390 C 1238 384.4375 1240.578125 376.214844 1242 370 C 1231.945313 374.042969 1224.289063 381.707031 1215 387 C 1217.703125 381.609375 1219.742188 375 1221 369 C 1211.960938 373.019531 1204 379.453125 1196 385 C 1197.210938 378.183594 1201.785156 372.6875 1203 366 C 1200.785156 367 1188 378 1186.882813 373.578125 C 1186 370.75 1189.191406 367.148438 1189 364 C 1180.679688 370 1174.285156 378.164063 1166 384 L 1175 361 C 1164 363.1875 1153.917969 373.742188 1145 380 C 1145.988281 376.375 1153.484375 363.519531 1151.746094 360.707031 C 1149.199219 356.582031 1133.988281 369.671875 1131 371 C 1131.65625 369.65625 1132.375 368.320313 1132.988281 367 C 1139.480469 352.59375 1122.417969 370.632813 1120.890625 369.078125 C 1118.550781 366.703125 1122.425781 357.800781 1123 355 C 1114.390625 359.726563 1107.917969 366.429688 1100 372 L 1107 353 C 1097.449219 355.59375 1077.730469 379.039063 1082 358.003906 C 1082.613281 355.636719 1083.382813 353.335938 1084 351 C 1076.761719 354.375 1070.761719 361.566406 1068 369 L 1067 369 C 1065.714844 363.597656 1066.855469 358.382813 1066 353 C 1058.945313 358.621094 1053.773438 366.136719 1047 372 C 1047 364.578125 1049 357.503906 1049 350 C 1039.339844 354.085938 1033.1875 362.242188 1028 371 C 1026.300781 364 1025 355.34375 1025 348 C 1017 352.105469 1013.167969 371.722656 1009 355.023438 C 1008.578125 353.332031 1008.253906 351.722656 1008 350 C 1004 353 1003 359.578125 1001 364 L 997 355 C 992 358.335938 990.1875 356.6875 990 351 C 987.453125 352.636719 987.222656 354 987 357 C 982.84375 357.820313 982.355469 361.085938 982 365 C 976.46875 360.453125 971 356.519531 968 350 L 967 350 C 965.816406 355.75 963.304688 361.070313 963 367 C 958.8125 363.066406 956 352.496094 950.734375 350.34375 C 946.929688 348.832031 946 367.378906 946 370 C 938.519531 363.363281 933.589844 354.796875 925 349 C 923.957031 355.480469 926 363.234375 926 370 C 919 364.390625 914 356.421875 907 351 C 907.207031 357 906.605469 363.148438 908 369 C 901.210938 363.390625 898.246094 354 890 350 C 891.648438 357.210938 893.761719 363.59375 892 371 C 886.9375 366 881.65625 361 876 356.484375 C 874.878906 355.613281 870.910156 352.265625 869.707031 354.660156 C 867.984375 358.097656 872.878906 367 873 371 C 864.960938 366 859.171875 358.359375 850 355 C 851 361.148438 854 366.753906 855 373 C 850 368 845.535156 362 839 359 C 839.34375 363.359375 839.976563 367.746094 841 372 C 833.609375 368.554688 828.605469 361.558594 821 358 C 822.851563 364.472656 826 370.238281 827 377 C 818.492188 371.535156 809.515625 364.484375 800 361 C 801.265625 369.132813 806.734375 376 808 384 C 800.589844 378 792.339844 367.613281 783 365 L 785 376 C 780.460938 373 776.855469 368.589844 772 366 C 772.527344 372.460938 775.671875 377.792969 777 384 C 768.4375 379.074219 761 372.257813 752 368 C 754.3125 374.777344 758 380.605469 758 388 C 750.496094 381.46875 740.867188 373.316406 731 371 C 733.734375 377.160156 735.855469 383.195313 736 390 C 728.246094 383.019531 717.988281 374.3125 708 371 C 709.839844 377.738281 711.855469 384 712 391 C 704 384.035156 698.269531 374.667969 690 368 C 683 388.34375 688.238281 417.070313 690.714844 438 C 697.949219 499.128906 718.605469 556.484375 736.976563 615 C 742.925781 634 748.449219 653.09375 754.503906 672 C 756.292969 677.582031 757.3125 688.445313 762 692 C 762 662.503906 770.886719 632.550781 772.910156 603 C 776 557.175781 773.605469 511.636719 770 466 L 771 466 C 778.4375 510 784.933594 552 782.960938 597 C 781.417969 632.203125 774.214844 666.242188 769.285156 701 C 766.832031 718.304688 765.363281 735.601563 764 753 C 763.566406 760.144531 764.851563 771.421875 760 777 C 759.855469 759.511719 755 742.140625 752.324219 725 C 740 649.777344 704.90625 580.367188 689 506 C 682.351563 474.125 678.25 442.367188 675.171875 410 C 674 398.773438 678 380.464844 673 370.3125 C 671.902344 368 663.5 363.078125 661 365.121094 C 659 366.703125 660 371.804688 660 374 L 659 374 C 656.640625 366 647.285156 353.421875 646 369 L 645 369 C 643.902344 361.6875 635.1875 351.070313 634 364 C 632 361.464844 630.441406 356.128906 626.929688 355.578125 C 624.625 355.222656 622.542969 357.675781 620.367188 356.828125 C 612.65625 353.824219 603 343.511719 597 338 C 557.699219 301.777344 515.355469 266.769531 471 237 C 432 211 392.398438 187.132813 351 165.082031 C 316.789063 147 277.632813 129.796875 239 124.71875 C 222.585938 122.558594 203.296875 121.621094 188 129.269531 C 167.714844 139.414063 155.867188 161.058594 147 181 C 127.820313 225.148438 123.34375 274.507813 120 322 C 115.882813 383.40625 124.53125 449 141 508 C 154.78125 557.386719 175.441406 605.4375 184.535156 656 C 192.453125 700 182.964844 743.019531 181 787 C 180 810.5 180.214844 834.757813 183 858 C 184.226563 866.417969 191 883 187.800781 891 C 182.8125 902.667969 163.765625 905.664063 158 918 M 308 236 L 308 237 C 292 240.792969 275.847656 242.742188 260 247.296875 C 245.765625 251.386719 231.574219 258.523438 217 261 C 239.320313 241.609375 279.660156 236 308 236 M 1754 261 C 1739 257 1724.84375 250.777344 1710 246.59375 C 1694.960938 242.355469 1678.800781 241.378906 1664 237 C 1670.714844 234.183594 1680 236.3125 1687 237.410156 C 1702.789063 240 1716.960938 244.171875 1732 249.496094 C 1739.285156 252.074219 1748.84375 255.074219 1754 261 M 344 261 L 344 263 C 304.265625 264.710938 264 285.628906 227 298 C 255.894531 267.113281 304.261719 261 344 261 M 1744 298 C 1733.632813 296.15625 1722.941406 290 1713 286.226563 C 1687.398438 276.703125 1657.351563 265.234375 1630 263 L 1630 261 C 1662.300781 261 1693.800781 266 1722 282.601563 C 1729.34375 287 1738.445313 291.46875 1744 298 M 1757 262 L 1756 263 L 1757 262 M 377 285 L 377 286 C 347.992188 293.148438 319.4375 300 291 309.355469 C 274.539063 314.820313 258.527344 323.238281 242 328 C 247.46875 318.699219 263.585938 312.460938 273 307.753906 C 302.296875 293.105469 343.742188 279 377 285 M 1732 328 L 1732 329 C 1714.394531 325.21875 1696 315.554688 1679 309.226563 C 1651.664063 299.058594 1623.597656 291.3125 1595 286 C 1603.191406 280.40625 1621.59375 285.554688 1631 286.714844 C 1668.886719 291.382813 1699.332031 309.8125 1732 328 M 420 309 L 420 310 C 393 316.167969 365.527344 320.691406 339 329 C 305.515625 339.175781 272.679688 353.789063 239 363 C 246.222656 350.519531 268.339844 340.660156 281 334.492188 C 326.265625 312.429688 370.492188 308 420 309 M 1733 363 C 1719 360.585938 1704.550781 353 1691 348.355469 C 1661.785156 338.617188 1632.613281 329 1603 320.550781 C 1591.675781 317.332031 1580.4375 315.558594 1569 313.117188 C 1564.878906 312.234375 1559.675781 312.515625 1557 309 C 1606.65625 308 1652.855469 313.339844 1697 338.578125 C 1707.605469 344.640625 1726.703125 352.292969 1733 363 M 458 337 L 458 339 C 424.386719 341.652344 390.691406 350.683594 358 358.558594 C 331.859375 365 305.257813 370.609375 280 380.050781 C 260.445313 387.359375 242.492188 399 223 406 C 236.710938 388.085938 264.894531 374.28125 285 365 C 340.882813 339 396.652344 329.246094 458 337 M 1752 408 C 1731.597656 398.042969 1711.453125 387.183594 1690 379.539063 C 1662.902344 370 1634.75 364.132813 1607 356.71875 C 1576.867188 348.664063 1544.246094 340.34375 1513 339 C 1517 335.433594 1522.796875 336 1528 335.285156 C 1541.304688 333.695313 1554.617188 334 1568 334 C 1618.308594 334 1665.9375 353.234375 1709 377.71875 C 1721.351563 384.742188 1745.429688 395 1752 408 M 495 369 L 495 371 C 446 371 397.71875 384.515625 352 401 L 352 402 C 400.753906 389.101563 455.679688 391.285156 504 405 L 504 406 C 474.449219 406 443.628906 410.054688 415 417.378906 C 401.300781 421 386.859375 428.300781 373 430 L 373 431 C 397.921875 428.828125 421.667969 424 447 425.039063 C 471.988281 426.132813 494.621094 432 519 436 L 519 438 C 493.550781 437.085938 466.742188 439.644531 442 445.589844 C 425.394531 449.582031 408.78125 456.15625 392 459 L 392 460 C 434.550781 458.171875 475.34375 451.628906 517 465 L 517 466 C 486.316406 466.085938 455.507813 471.625 426 479.523438 C 415.449219 482.351563 399.242188 484.589844 391 492 C 434.585938 484.617188 486.484375 478.199219 529 495 C 522.320313 498.816406 507.972656 496.34375 500 497.285156 C 472.898438 500.492188 444 504.054688 418 512.773438 C 409.5625 515.601563 399.203125 516.027344 393 523 C 425 514.46875 456.71875 510.472656 490 513 C 500.378906 513.671875 516.988281 513.59375 526 519 C 519.261719 521 511.953125 519.613281 505 520.089844 C 482.683594 521.617188 458.9375 520.769531 437 525.746094 C 430.394531 527.242188 423.6875 528.183594 417 529.183594 C 415.402344 529.425781 411 530.160156 411 532.472656 C 411 534.738281 416.714844 534.035156 418 534 C 426.355469 533.730469 434.59375 533 443 533 C 479 533 510.960938 539.785156 546 547 L 546 548 C 536.171875 549.636719 523.535156 546.054688 513.285156 546 C 490.472656 545.433594 467.792969 547 445 547 C 452.769531 553.722656 466.871094 565.628906 477 567.722656 C 490.726563 570.554688 513 566 525 574 C 517.859375 575.804688 508.496094 574 501 574 C 498.90625 574.003906 493.304688 573.25 492.207031 575.726563 C 490.859375 578.777344 499 583.734375 500.910156 585.242188 C 511.304688 593.464844 522 601.003906 532 610 C 573.382813 647.460938 613 685.789063 647.574219 730 C 660.628906 746.746094 673.222656 764.53125 683.71875 783 C 685.261719 785.714844 694.324219 800.117188 689.394531 802.339844 C 685.179688 804.238281 679.621094 796.585938 677.4375 794 C 667.640625 782.394531 658.925781 770 649.449219 758 C 610.476563 709.210938 568.390625 658.832031 518 621.316406 C 513.496094 618 507.308594 619 502 619 C 490 619 478.796875 619.507813 467 620.828125 C 428.917969 625.089844 392.816406 637.433594 359 655.296875 C 346.824219 661.730469 336 670.539063 324 677 C 331.257813 665.585938 343.375 656 354 647.652344 C 397 614.453125 448.222656 607 501 607 C 491.8125 598.542969 477.191406 586 465 582.511719 C 452.613281 579 432.351563 586.179688 420 588.789063 C 388.203125 595.511719 356.933594 606.597656 329 623.449219 C 314.703125 632.074219 302 643.21875 288 652 C 292.757813 641.78125 303.648438 633.039063 312 625.714844 C 336 604.546875 364 589.601563 395 581.011719 C 407 577.648438 419.597656 575.761719 432 573.753906 C 435.195313 573.234375 442.871094 574 445 571.164063 C 447.179688 568.550781 433 561.328125 431 560.253906 C 425.382813 557.300781 419.273438 552.429688 413 551.136719 C 404 549.300781 392.390625 553.828125 384 556.503906 C 370.367188 561 354 568.761719 340 570 L 340 569 C 351.398438 561.316406 363.347656 553.789063 376 548.335938 C 378.53125 547.246094 388.601563 545.730469 389.367188 543 C 389.871094 541.027344 384 540.082031 383 539.597656 C 373.773438 535.609375 367.300781 538.261719 358 541.503906 C 336.71875 549 316.511719 559.234375 297 570.421875 C 287.390625 576 278.171875 583.777344 268 588 C 270.839844 582 277.167969 577.625 281.984375 573.09375 C 296.871094 559.09375 314 548.78125 332 539.296875 C 339 535.527344 350.769531 533 356 527 C 346.5625 526.175781 336.269531 519.832031 327 520.53125 C 296.707031 522.816406 269.644531 546.296875 244 560 C 247.621094 553.019531 254 548 260 543 C 271.496094 533 283.945313 521.0625 298 515 L 298 514 C 291.929688 512.074219 286.316406 512 280 512 C 286 505 297.902344 503.375 306 499 C 327 487.523438 349.757813 467.769531 374 464 L 374 463 C 348.210938 464.179688 319.546875 476.210938 296 486 C 299 480.390625 305.765625 477.527344 311 474.179688 C 325.609375 465 342 458.523438 358 452 L 358 451 C 330.246094 457.34375 305.332031 463.425781 280 477.304688 C 261.753906 487.304688 244.3125 503.679688 225 511 C 244.546875 483.160156 277.207031 461.75 308 448.574219 C 318.859375 444 329.902344 437.28125 342 437 L 342 436 C 312.863281 434.300781 284.867188 444.199219 258 454.226563 C 248.835938 457.648438 239.535156 464.277344 230 466 L 230 465 C 262.617188 443.421875 294.648438 412.117188 336 408 L 336 406 C 310.582031 408.21875 281.867188 415.011719 258 424.0625 C 246.976563 428.246094 237 435.210938 226 439 C 238.195313 423.0625 261.726563 410.03125 279 400.148438 C 309 383 340.710938 371.027344 375 365.324219 C 414.425781 358.769531 455.792969 364.046875 495 369 M 1746 439 C 1732.730469 434.46875 1720.472656 427.007813 1707 422.515625 C 1684.367188 415 1661 411.292969 1638 406 C 1642.757813 410.277344 1650 411.421875 1656 413.585938 C 1665.585938 417.085938 1674.9375 421.578125 1684 426.257813 C 1705.785156 437.503906 1723.738281 453.601563 1744 467 L 1744 468 C 1706 456.183594 1673.257813 436 1632 435 L 1632 437 C 1643 437.507813 1653 443.523438 1663 448.113281 C 1686.367188 459.007813 1709.496094 473 1728 491.015625 C 1734.789063 497.65625 1744.953125 504.320313 1749 513 C 1730.226563 503.660156 1713.296875 489.691406 1695 479.285156 C 1668.242188 464.074219 1639.414063 455 1609 451 L 1609 452 C 1627 457.234375 1643.675781 464.617188 1660 474 C 1666.53125 477.753906 1674 481.121094 1679 487 C 1652.695313 478.101563 1625.269531 464.21875 1597 463 L 1597 464 C 1609.285156 464.816406 1622.382813 473.71875 1633 479.460938 C 1647.246094 487.164063 1660.625 496.605469 1675 504.019531 C 1682.714844 508 1691.28125 510.101563 1699 514 L 1699 515 C 1691.523438 514.164063 1683.554688 515 1676 515 C 1691.613281 532.097656 1715.25 540.480469 1729 560 C 1700.886719 549.710938 1676.40625 523 1645 521 C 1635.671875 520.324219 1624.996094 525.777344 1616 528 C 1623.566406 533.832031 1633.535156 537 1642 541.386719 C 1663.476563 552.6875 1690.8125 569 1705 589 C 1694 586.425781 1681.570313 575.757813 1671.828125 569.824219 C 1653.855469 559 1634.707031 549.539063 1615 542.148438 C 1605 538.457031 1599.984375 536 1590 539.601563 C 1588.484375 540.15625 1583 540.542969 1582.632813 542.371094 C 1581.96875 544.722656 1593.238281 548 1595 548.769531 C 1609.378906 555.304688 1622.769531 562.242188 1636 571 L 1636 572 C 1618.648438 566.429688 1601.644531 560 1584 555.265625 C 1576.875 553.359375 1567.421875 550 1560 551.394531 C 1548 554 1536.910156 564 1526 569 C 1531.425781 573 1538.535156 573.25 1545 574.460938 C 1557.433594 576.789063 1569.855469 579.199219 1582 583 C 1620.96875 594.609375 1662 618.074219 1686 652 C 1672.53125 646.78125 1660.59375 633.625 1648 626.144531 C 1616.566406 607.472656 1581.925781 594.441406 1546 587.691406 C 1534.960938 585.613281 1520.195313 580 1509 582.394531 C 1497.355469 585.003906 1478.953125 598.320313 1471 607 C 1534.316406 606.476563 1609.5625 621.015625 1649 677 C 1635 670.800781 1622.714844 659.765625 1609 652.625 C 1575.820313 635.355469 1539.171875 624.429688 1502 620.828125 C 1489.492188 619.617188 1466.421875 614.144531 1455 620.703125 C 1442.175781 628.066406 1431.890625 641.023438 1421 650.828125 C 1385.324219 683 1353.996094 720.070313 1324.652344 758 C 1315.285156 770.105469 1306.566406 783 1296.707031 794.574219 C 1294.605469 797.070313 1288.636719 805 1284.605469 802.746094 C 1279.828125 800.234375 1287.308594 788.753906 1288.871094 786 C 1297.851563 770.167969 1308 754.5 1319 740 C 1348.304688 701.570313 1380 663.605469 1416 631.171875 C 1429.425781 619.023438 1442.855469 606.769531 1457 595.449219 C 1465.253906 589 1476.582031 582.316406 1483 574 L 1447 574 L 1447 573 C 1461.34375 570.328125 1477 572 1491 568.074219 C 1502.84375 565 1517.714844 555 1527 547 C 1493.65625 547 1460.261719 544 1427 548 L 1427 547 C 1455.363281 532.746094 1494.992188 533 1526 533 C 1537.570313 533 1551.882813 535.640625 1563 533 L 1563 532 C 1541 525.671875 1516.773438 522.039063 1494 521.039063 C 1477.945313 520.335938 1459.640625 522.710938 1444 519 C 1453.796875 513 1469.757813 513.699219 1481 513 C 1514.308594 510.574219 1546.804688 514.480469 1579 523 C 1574.460938 515.199219 1553.53125 512.289063 1545 510.347656 C 1511.535156 502.738281 1478.417969 496 1444 496 L 1444 494 C 1478.960938 488.074219 1511.238281 483.46875 1547 486.089844 C 1558.457031 487 1569.628906 491 1581 492 L 1581 491 C 1540.367188 477.253906 1500.269531 466 1457 466 C 1461.84375 459.117188 1478.296875 459.738281 1486 458.386719 C 1518.167969 452.738281 1549 460 1581 460 L 1581 459 C 1569.710938 458 1558 452.460938 1547 449.578125 C 1529 445 1511 442.269531 1493 439.324219 C 1483 437.707031 1465.28125 441.65625 1457 436 C 1500.261719 417 1555.953125 425.183594 1601 431 L 1601 430 C 1587.589844 428 1574.25 422 1561 418.589844 C 1531.941406 411.464844 1501 406 1471 406 L 1471 404 C 1492.511719 402 1513 394.554688 1535 394.015625 C 1557.425781 393.464844 1579.796875 395.421875 1602 398.183594 C 1608.730469 399.019531 1615.214844 401.652344 1622 402 L 1622 401 C 1576.308594 385.566406 1528.621094 371 1480 371 L 1480 369 C 1532.851563 362.285156 1587.390625 358.160156 1639 375.515625 C 1659 382.292969 1678.828125 393 1697 403.800781 C 1712.605469 413.164063 1735 424.195313 1746 439 M 1439 404 L 1438 405 L 1439 404 M 720 752 L 719 752 C 687.183594 689.808594 670.375 621.371094 636 560 C 616.613281 525.003906 595.300781 491.789063 572.277344 459 C 560 441.675781 542.484375 424.410156 534 405 C 543 409 550 418.078125 557 425 C 574.855469 443 590.996094 463.160156 605.339844 484 C 640.5 535.082031 669.457031 589.109375 691.8125 647 C 704.851563 680.769531 717 715.683594 720 752 M 1438 406 C 1433.363281 416.742188 1424.773438 425.65625 1417.882813 435 C 1405.308594 452.054688 1392.707031 469.335938 1381 487 C 1347.488281 537.585938 1319.523438 590.683594 1297 647 C 1286.953125 672.113281 1278.867188 698 1268.800781 723 C 1265.765625 730.566406 1262 745.695313 1255 750 C 1257.59375 717.160156 1267.6875 685.789063 1278.945313 655 C 1301.710938 592.753906 1332.515625 534 1371 480 C 1384.949219 460.433594 1400 441.019531 1417 424 C 1422.964844 418.027344 1429.675781 408.335938 1438 406 M 1468 406.332031 C 1468.773438 406.332031 1468 406.832031 1467.667969 406.667969 L 1468 406.332031 M 1755 408 L 1754 409 L 1755 408 M 1583 492 L 1584 493 L 1583 492 M 865 714 C 865 746.496094 874.554688 778 878.710938 810 C 881.722656 833.199219 879 856.71875 879 880 L 880 880 C 886.933594 851 888.917969 817.792969 889 788 L 890 788 C 892.792969 810 894.941406 830.808594 892.828125 853 C 890 881.464844 883 909 879 937 L 880 937 C 884.265625 908.121094 898 881 903 852 L 904 852 C 904 901.085938 881.496094 946.765625 875 995 L 876 995 C 883.84375 976 894.664063 956.289063 899 936 L 900 936 C 899 957.4375 895.289063 979.078125 890.574219 1000 C 888.28125 1010.175781 883.476563 1020.566406 883 1031 L 884 1031 C 888.515625 1018.765625 897.84375 1007.816406 905 997 L 906 997 C 905.9375 1020.25 893.675781 1043.328125 889 1066 L 890 1066 C 894.246094 1055.652344 899.414063 1045.597656 903 1035 L 904 1035 C 903.816406 1057.292969 896.855469 1080 894 1102 C 898.664063 1097.382813 900.777344 1090.496094 904.34375 1085 C 915 1068.476563 924 1051 934 1034 L 935 1034 C 930.453125 1069.21875 907.804688 1099 901 1134 L 902 1134 C 909 1114.722656 921.402344 1096.039063 934 1080 C 937.773438 1075.195313 941 1067.355469 946 1064 C 945.578125 1073.75 941.25 1082.207031 937.425781 1091 C 928.886719 1110.625 917.949219 1129.121094 908 1148 C 929.382813 1131.710938 948.695313 1112 961.253906 1088 C 964.800781 1081.242188 969.640625 1074.617188 971 1067 L 973 1067 C 972 1088.742188 966.738281 1122.113281 954 1140 C 968.417969 1131.488281 979.816406 1109.707031 987 1095 C 998.339844 1108.6875 1002.640625 1127.148438 1018 1138 C 1009.203125 1116.558594 1003 1089.203125 1002 1066 C 1009.996094 1072 1013.828125 1089.421875 1019.515625 1098 C 1032.402344 1117.4375 1047.945313 1133.347656 1066 1148 C 1054.210938 1120.640625 1029.644531 1093.058594 1029 1062 C 1034.371094 1066 1037.511719 1075.410156 1041.347656 1081 C 1052.703125 1097.542969 1064.230469 1113.339844 1072 1132 L 1073 1132 C 1066.339844 1097.65625 1046.433594 1069.148438 1040 1035 C 1046.320313 1040.773438 1050.570313 1051.515625 1054.851563 1059 C 1062.824219 1073 1072.347656 1086.363281 1079 1101 L 1080 1101 C 1078 1078.675781 1070.964844 1056.445313 1070 1034 L 1071 1034 C 1075.542969 1043.710938 1078.894531 1058.097656 1086 1066 C 1084.839844 1040.621094 1069 1017.59375 1068 992 C 1079 1001.644531 1083.191406 1019.527344 1094 1030 C 1085.859375 999.308594 1075.660156 968.015625 1075 936 L 1076 936 C 1080 955.671875 1091.441406 973.578125 1099 992 L 1100 992 C 1099.214844 958.507813 1082.226563 924.648438 1075.550781 892 C 1073.285156 881 1068.765625 865.042969 1072 854 C 1075 858.566406 1075.417969 865.632813 1076.859375 871 C 1080.445313 884.386719 1084.363281 897.664063 1088 911 C 1090 917.703125 1091.507813 926.589844 1096 932 C 1085.179688 884.660156 1078 834.207031 1087 786 L 1088 786 C 1088 818 1095.738281 849.46875 1096 881 L 1097 881 C 1098.667969 874 1097 867.109375 1097 860 C 1096.992188 844.320313 1096.679688 828.605469 1098.171875 813 C 1101.296875 780.277344 1110.996094 748 1111 715 L 1113 715 C 1113 746.433594 1117.769531 781 1112 812 C 1116.5 806.503906 1116.230469 795 1117 788 C 1118.839844 772.761719 1121.257813 757.039063 1124.335938 742 C 1125.503906 736.285156 1125 724.441406 1130 721 C 1136.738281 757.292969 1127.257813 794.773438 1126 831 C 1131.917969 819.199219 1134.425781 805.554688 1138.347656 793 C 1141.664063 782.386719 1146.738281 772 1149 761 L 1150 761 C 1152 768.082031 1150.191406 775.738281 1150 783 C 1149.414063 808 1141.203125 832.34375 1141 857 L 1142 857 C 1145.203125 846 1149.390625 827 1158 819 C 1158 835.710938 1155 852.378906 1153.910156 869 C 1153.496094 875.070313 1151.6875 881 1153 887 L 1154 887 C 1155.394531 870 1162 850.046875 1168 834 L 1169 834 C 1169 862.648438 1165.222656 890.59375 1164 919 L 1165 919 C 1170.667969 905.183594 1179.863281 892.363281 1184 878 L 1185 878 C 1184.984375 900.652344 1175.230469 921.03125 1172 943 C 1176.710938 938 1180.558594 929.730469 1182 923 L 1184 923 C 1183.273438 940 1177.363281 955.269531 1172 971 C 1180.167969 962.050781 1186 945.578125 1197 940 C 1195 949.179688 1191.8125 958.699219 1191 968 C 1216.53125 943.265625 1233.214844 908.347656 1254.476563 880 C 1286.527344 837.261719 1331.546875 801.027344 1384 787 C 1377.992188 797.1875 1359.632813 805.003906 1350 812.011719 C 1329.828125 826.679688 1307.605469 846.1875 1295 868 C 1309.347656 856.613281 1326 842.179688 1344 837 C 1340.5625 849.253906 1322.46875 862.304688 1314 872 C 1330.328125 861.785156 1343.886719 847.046875 1360 836.355469 C 1372.511719 828.054688 1387 823.390625 1401 818 C 1396.980469 826.4375 1385.816406 832.738281 1379 839.089844 C 1365.945313 851.25 1353.855469 865.101563 1344 880 C 1366 864.496094 1388.261719 852 1413 840.695313 C 1423.207031 836.078125 1434.734375 829.128906 1446 828 C 1440.246094 834.59375 1429.378906 839 1422 844 C 1406.746094 854.109375 1387.914063 869.476563 1378 885 C 1398.960938 869 1428.855469 860.757813 1454 853.578125 C 1463 851 1472.464844 846.4375 1482 846 L 1482 847 C 1454.382813 860 1433.640625 883.417969 1407 897 L 1407 898 C 1438.5 889 1470.375 869.09375 1504 869 L 1504 870 C 1480.625 879.253906 1457.964844 890.753906 1435 901 L 1435 902 C 1468.433594 901.308594 1501.324219 895 1535 895 L 1535 896 C 1506.691406 903.507813 1478.375 910.242188 1450 917 L 1450 918 C 1485.308594 919.515625 1520.546875 922 1556 922 C 1551.765625 928.070313 1535 929 1528 930.144531 C 1502 934.507813 1478.175781 936 1452 936 L 1452 937 C 1472 937 1491.761719 942.160156 1512 940 C 1508.871094 945 1499.453125 945.296875 1494 946 C 1498.738281 950.421875 1507.992188 948.101563 1514 948.003906 C 1532 947.707031 1549.871094 947.222656 1568 948 L 1568 949 C 1542.882813 954.742188 1514.851563 965 1489 965 L 1489 966 C 1510.171875 968.675781 1531.699219 968.105469 1553 969.039063 C 1564 969.519531 1574.941406 971.804688 1586 971 C 1582.570313 975.242188 1572.273438 975.609375 1567 976.609375 C 1549.957031 980 1533.339844 985.632813 1516 987 L 1516 988 C 1538.304688 993.820313 1563.171875 990.761719 1586 995 L 1586 996 C 1565.449219 1000 1546 1004 1525 1004 L 1525 1005 C 1539.6875 1009.695313 1555 1011.394531 1570 1015.140625 C 1575.304688 1016.472656 1582.789063 1016 1586 1021 C 1567.425781 1021 1549.421875 1023.273438 1531 1019.113281 C 1503.554688 1013 1481 995.664063 1457 982 L 1457 981 C 1471.621094 983.597656 1483.515625 992 1499 992 L 1499 991 C 1475.519531 985.4375 1451.792969 969.351563 1430 959 L 1430 958 C 1437.894531 959 1446 960.640625 1454 961 L 1454 959 C 1437 957.304688 1421.40625 946 1404 945 L 1404 943 C 1411.320313 943.578125 1418.652344 945 1426 945 L 1426 944 C 1413.628906 940.488281 1401.820313 939 1389 939 L 1389 938 C 1394.53125 935.175781 1402.847656 935.238281 1407 931 C 1395.675781 931 1385 933.453125 1374 935 L 1374 934 C 1377.988281 931.492188 1381.449219 930.136719 1386 929 L 1386 928 C 1357.828125 928 1330 930 1303 938.746094 C 1210.875 968.601563 1164 1062.621094 1150.273438 1152 C 1146.742188 1175 1148.515625 1197.398438 1147 1220 C 1142.605469 1217 1138.945313 1212.710938 1135 1209 C 1140.730469 1218.484375 1146.332031 1229 1148 1240 C 1140.453125 1235.519531 1135.222656 1228 1127 1224 C 1131 1231 1136.5625 1238 1138 1246 C 1122.890625 1239 1111.859375 1221.582031 1097 1213 C 1103.59375 1221.746094 1112.828125 1230.5625 1114 1242 C 1100.40625 1232 1090.625 1219.054688 1074 1213 C 1080.199219 1220.164063 1086.902344 1228 1090 1237 C 1077.515625 1230 1070.25 1216.394531 1056 1211 C 1059.351563 1214.832031 1062.789063 1218 1064 1223 C 1058.730469 1221.1875 1054.273438 1218 1049 1216 C 1063.453125 1234 1081.351563 1250.648438 1085 1275 L 1084 1275 C 1077.253906 1265.421875 1067.492188 1260.328125 1058 1254 C 1067.402344 1266.296875 1079.617188 1274.105469 1081 1291 L 1080 1291 C 1074.660156 1282.601563 1067 1276 1060 1269 C 1065.203125 1282 1072.371094 1292.445313 1073 1307 C 1062.449219 1300.117188 1056.445313 1286.160156 1045 1279 C 1056.980469 1295 1063.347656 1320.207031 1060 1340 L 1059 1340 C 1052.664063 1332 1042 1328.085938 1032 1328 L 1032 1330 C 1046.753906 1331.480469 1061.941406 1344.03125 1064 1359 C 1053.683594 1354.660156 1046.554688 1348.195313 1035 1346.324219 C 1018.710938 1343.6875 1003 1350.167969 987 1350 C 967 1349.78125 949.183594 1343.121094 929 1349 C 921.34375 1351.058594 916.765625 1356.546875 910 1360 C 911.523438 1341.664063 929.570313 1333.464844 945 1329 L 945 1328 C 933.191406 1328.097656 924.695313 1334.347656 914 1338 C 914 1317.136719 920 1300.105469 927 1281 C 916 1287.300781 911.71875 1301.402344 902 1307 C 902.289063 1293.023438 908.621094 1284.085938 914 1272 C 906.628906 1277.617188 900.585938 1285 896 1293 L 895 1293 C 898.261719 1277.191406 905.746094 1267.226563 917 1256 C 906.4375 1260.003906 900.597656 1270.328125 891 1275 C 896.863281 1250.320313 911 1234.363281 927 1216 C 920.59375 1218.183594 914.714844 1222 908 1223 C 910.714844 1218.382813 914.890625 1215.285156 918 1211 C 903.984375 1217.011719 893 1227 884 1239 L 883 1239 C 884.992188 1228 894.382813 1218.621094 902 1211 C 886.882813 1219.300781 871.269531 1226.421875 861 1241 L 860 1241 C 860.542969 1229.316406 869.53125 1222.472656 875 1213 C 867 1220.265625 857.941406 1226.046875 850 1233.183594 C 845.480469 1237.269531 842.433594 1243.097656 837 1246 C 838 1238.082031 842.65625 1232.359375 845 1225 C 839 1229.496094 834.535156 1236.691406 828 1240 C 829.492188 1230 834.296875 1220 839 1211 C 837.347656 1212.265625 831 1220.5625 829 1218.824219 C 827.472656 1217.515625 828.917969 1213.625 829 1212 C 829.84375 1205.640625 828.171875 1199.332031 828 1193 C 827.441406 1169.667969 823 1145.796875 818.285156 1123 C 801.835938 1044.820313 755 969.117188 677 940.226563 C 649.796875 930.160156 619.84375 927.078125 591 927 C 594.167969 930.214844 598.3125 932.378906 602 935 L 602 936 C 589.894531 934.21875 578.398438 931 566 931 C 571.269531 935.582031 579.359375 934.445313 585 939 C 574 941.363281 563 940.398438 552 944 L 552 945 L 568 944 C 565.1875 948 558.523438 947.691406 554 949 C 542.972656 951.792969 532.378906 957.613281 521 959 L 521 960 L 543 959 L 543 960 C 527.296875 966.023438 513 974.238281 498 981.753906 C 491.40625 985.050781 482.359375 987.007813 477 992 C 491.378906 990.171875 503.300781 984.453125 517 981 L 517 982 C 485.804688 1001.425781 459.511719 1018.519531 422 1021.089844 C 410.53125 1022 396.894531 1023.597656 386 1019 L 386 1018 C 407.308594 1016.582031 428 1007.074219 449 1006 L 449 1004 C 427.195313 1004 406.433594 999.152344 385 996 L 385 995 C 408.847656 989.320313 435.574219 990 460 988 L 460 987 C 435.734375 981.222656 408.539063 980.820313 385 972 L 385 971 C 419.34375 971 453.574219 967 488 967 L 488 965 C 458.683594 965 430.171875 951.382813 401 949 L 401 948 C 428.308594 944.546875 456.546875 948 484 948 L 484 947 C 477.5 945.660156 464.828125 946 461 940 C 481.460938 940 501.859375 937.011719 522 937 L 522 936 C 497.847656 936 474.996094 936 451 931.679688 C 437.738281 929.375 424.304688 924.324219 411 923 L 411 922 C 447.703125 922 484.445313 921 521 918 L 521 917 C 492.90625 910.292969 464.871094 903.832031 437 896 L 437 895 C 468.351563 889.242188 504.589844 899.5 536 902 C 531 896.746094 522.363281 895 516 891.753906 C 499.789063 883.703125 483.492188 876.375 467 869 L 467 868 C 487.570313 870.601563 508.597656 877 528 884.226563 C 540 888.710938 553.378906 896.109375 566 898 L 566 897 C 555.644531 893.023438 546.382813 884.136719 537.714844 877.339844 C 523.21875 866 508 854.335938 491 847 L 491 846 C 500.839844 847 510.578125 851.441406 520 854.28125 C 546.539063 862.273438 571.199219 872.828125 596 885 C 574 863.015625 551.785156 846.011719 526 829 L 526 828 C 562.382813 837.730469 598 858 629 879 C 615 855.058594 589.488281 841 574 819 C 608.972656 825.210938 633 853.574219 660 874 C 651.6875 861.433594 636.265625 851.4375 630 838 C 648.226563 841.515625 668.605469 860 683 871 C 667.796875 849.414063 647 829.277344 626 813.578125 C 615 805.492188 598.542969 798.3125 590 788 C 603.910156 790.085938 618.597656 798.378906 631 804.742188 C 675.894531 827.773438 708.171875 862 736.964844 903 C 751.527344 923.75 764.28125 951.714844 784 968 C 781 958.605469 778.226563 948.617188 776 939 C 785.910156 947.019531 791.683594 959.484375 801 968 C 796.992188 953.34375 789.703125 938.394531 789 923 C 796 929 798.296875 938.808594 805 945 C 797.648438 923.273438 789 899.132813 789 876 L 790 876 C 794.679688 889.746094 805 901.109375 809 915 L 810 915 C 809.769531 887.324219 805 859.769531 805 832 L 806 832 C 813.941406 847.738281 817.441406 867.804688 821 885 L 822 885 C 822 861.484375 819.296875 836.148438 815 813 L 816 813 C 822.710938 827.121094 825.953125 848.164063 836 860 C 830.714844 834.386719 825 808.269531 825 782 C 824.996094 774.4375 822.867188 766.359375 825 759 C 831.214844 768.402344 833.375 782.246094 836.554688 793 C 840.1875 805.277344 846 817.285156 848 830 L 849 830 C 848.992188 815.71875 846 801.261719 845 787 C 843.527344 764.171875 843.9375 741.800781 844 719 L 845 719 C 854 751.507813 859.777344 786.585938 864 820 L 865 820 C 866 794.226563 861.992188 768.808594 862 743 C 862 735.300781 860.316406 720.183594 865 714 M 573 833 C 562 829.378906 552.515625 819.542969 543 813.167969 C 520.699219 798.222656 498.644531 783.128906 475 770.308594 C 443 753 409.683594 739.148438 375 728.351563 C 362.304688 724.398438 348.378906 723.636719 336 719 C 340.636719 715.488281 348.472656 717 354 717.628906 C 369.328125 719.445313 384 722.484375 399 726.371094 C 461.382813 742.617188 532.285156 782.496094 573 833 M 1639 717 L 1639 718 C 1621.28125 723.628906 1602.804688 726.640625 1585 732.191406 C 1555.613281 741.351563 1527 753.667969 1500 768.308594 C 1465.675781 787 1436.171875 814 1402 832 C 1413.539063 812 1439.984375 793.34375 1459 780.667969 C 1512 745.257813 1574 717 1639 717 M 679 727 C 698 746.164063 717.578125 777.265625 720 805 C 704 793.261719 695.230469 765.363281 686.753906 748 C 684 742.675781 677.398438 733 679 727 M 1295 729 C 1289 746.433594 1279.574219 763.617188 1271.242188 780 C 1266.78125 788.78125 1262 799.132813 1254 805 C 1254.566406 785.460938 1268.640625 762.105469 1278.8125 746 C 1282.882813 739.554688 1287.964844 732.28125 1295 729 M 650 801 L 649 802 L 650 801 M 694 843 C 679.585938 834.4375 661.1875 816.320313 651 803 C 666.757813 808.214844 688 827.523438 694 843 M 1319 806 C 1309.753906 819.128906 1293.609375 834.484375 1280 843 C 1285.238281 827.464844 1304.632813 812.71875 1319 806 M 1294 868 L 1295 869 L 1294 868 M 683 871 C 683.546875 872.636719 683.363281 872.453125 685 873 C 684.230469 871.6875 684.3125 871.769531 683 871 M 629 879 L 630 880 L 629 879 M 715 893 C 718 901.183594 725.222656 911.476563 732 917 C 728.691406 908.636719 721.539063 899.152344 715 893 M 1252 901 L 1253 902 L 1252 901 M 1248.667969 907.332031 C 1248.222656 907.777344 1249.277344 907.722656 1249.332031 907.667969 C 1249.777344 907.222656 1248.722656 907.277344 1248.667969 907.332031 M 1247 910 L 1248 911 L 1247 910 M 733 919 L 734 920 L 733 919 M 735 922 L 736 923 L 735 922 M 1096 934 L 1096 937 L 1097 937 C 1096.75 935.546875 1096.683594 935.25 1096 934 M 1171 943 C 1170 944.480469 1170 944.203125 1170 946 C 1171.289063 944.558594 1171.402344 944.765625 1171 943 M 1488 946 L 1488 947 L 1491 947 C 1489.75 946.316406 1489.453125 946.25 1488 946 M 801.332031 968.667969 C 801.277344 968.722656 801.222656 969.777344 801.667969 969.332031 C 801.722656 969.277344 801.777344 968.222656 801.332031 968.667969 M 1363 1007 C 1381.332031 1012.015625 1408.886719 1014.304688 1418.597656 1033 C 1428.570313 1052.203125 1405.898438 1069.527344 1389 1057.363281 C 1374 1046.558594 1369.632813 1023.171875 1363 1007 M 479 1010 L 479 1011 C 450.367188 1031.507813 424.574219 1038.269531 390 1041 C 398 1034.1875 413 1033.183594 423 1030.421875 C 441.246094 1025.378906 460.453125 1012 479 1010 M 1584 1039 L 1584 1040 C 1561.828125 1043.164063 1535.492188 1034.640625 1516 1024.757813 C 1508.75 1021.078125 1499.273438 1017.273438 1495 1010 C 1525.183594 1018.253906 1552.71875 1033.699219 1584 1039 M 701 1019 C 708.542969 1020.746094 717.960938 1020.664063 725 1023.492188 C 733.308594 1026.820313 746.757813 1038.007813 745.847656 1048 C 744 1066.746094 720.425781 1064.054688 711.746094 1052.816406 C 708.589844 1048.726563 706.257813 1044 704.753906 1039 C 702.804688 1032.605469 701 1025.695313 701 1019 M 590 1022.324219 C 633.796875 1015.167969 642.839844 1082.507813 600 1089.738281 C 553.574219 1097.578125 543.628906 1030 590 1022.324219 M 1256 1025.324219 C 1297.472656 1018.398438 1308.960938 1083.652344 1268 1089.789063 C 1253.851563 1092 1239.933594 1087 1232.53125 1074 C 1221.703125 1055.054688 1234.679688 1029 1256 1025.324219 M 882 1031 C 881 1032.476563 881 1032.203125 881 1034 C 882.289063 1032.558594 882.402344 1032.765625 882 1031 M 552 1066 C 551.996094 1081 549.738281 1096.019531 551.171875 1111 C 554.238281 1143.136719 570 1175.5 596 1195.25 C 607.757813 1204.199219 620.703125 1210.628906 635 1214.417969 C 709.46875 1234.140625 772.957031 1156.359375 764 1087 L 765 1087 C 766.902344 1091.636719 768.863281 1096.097656 770 1101 L 771 1101 C 770.378906 1093.171875 767.167969 1086 767 1078 L 768 1078 C 774.433594 1089.316406 776.472656 1103.195313 777 1116 C 779 1163.742188 752.507813 1203.769531 709 1223.691406 C 637.5625 1256.402344 544.4375 1213 532.574219 1133 C 529.769531 1114.113281 530.363281 1090.121094 540 1073 L 541 1073 C 539.664063 1080.078125 539 1086.796875 539 1094 L 540 1094 C 542.519531 1084.28125 543.578125 1072.507813 552 1066 M 1421 1068 C 1426.96875 1077.050781 1431.902344 1088.007813 1432 1099 L 1434 1099 C 1434 1089.355469 1430.203125 1080.546875 1430 1071 L 1431 1071 C 1438.246094 1086.488281 1440.769531 1100.300781 1442.714844 1117 C 1450.3125 1182.296875 1383 1230.328125 1325 1235 C 1264.742188 1239.652344 1205.390625 1194.230469 1198.285156 1134 C 1196 1114.828125 1200.339844 1096 1207 1078 L 1208 1078 C 1208 1104.523438 1210.710938 1135.375 1224.757813 1159 C 1259.792969 1218 1335.792969 1238 1388 1188 C 1409.667969 1167.242188 1422.644531 1138 1423.960938 1108 C 1424.378906 1098.457031 1423.222656 1089.410156 1421.933594 1080 C 1421.363281 1076 1419.34375 1072.066406 1421 1068 M 1430 1069 L 1429 1070 L 1430 1069 M 718 1074.660156 C 727 1073.816406 728.613281 1089.128906 719 1089.792969 C 709.386719 1090.457031 708.75 1075.515625 718 1074.660156 M 1389 1074.660156 C 1398.601563 1073.777344 1398.316406 1089.144531 1389 1089.792969 C 1379 1090.488281 1379.75 1075.511719 1389 1074.660156 M 1213 1087 L 1212 1088 L 1213 1087 M 794 1202 C 791.234375 1215.230469 783.789063 1227.097656 781 1240 C 784.90625 1237.242188 787.898438 1233.4375 792 1231 C 789.417969 1244.347656 778.25 1254.675781 777 1269 L 778 1269 C 781.949219 1260.542969 787 1253.339844 794 1247 C 794.351563 1262.496094 783.640625 1279.65625 781 1295 C 786.710938 1288.800781 792.308594 1279.691406 800 1276 C 798.480469 1284.554688 792.945313 1292 790 1300 C 799.671875 1294.03125 809 1286.476563 820 1283 C 816.285156 1291 808.863281 1296.832031 805 1305 C 813.574219 1296.449219 824.859375 1290.625 836 1286 C 833.480469 1293.597656 826.863281 1300.671875 822 1307 C 831 1300.667969 837.824219 1292.792969 849 1290 C 845.523438 1298 839.171875 1304.136719 834 1311 C 842.648438 1308 849.996094 1302.566406 859 1300 C 856 1310.453125 843.496094 1314.15625 840 1324 C 844.839844 1320.703125 849 1317.613281 855 1317 C 849.8125 1328.636719 839 1337 834 1349 C 837.265625 1346.652344 842.316406 1338.480469 846.683594 1339.035156 C 851 1339.589844 848.636719 1356.566406 849 1360 C 854 1354.582031 856.382813 1348.535156 863 1344 C 864.695313 1354.015625 862.800781 1363.253906 867.660156 1373 C 881.574219 1401 911.191406 1406.195313 931.65625 1426.347656 C 945.238281 1439.726563 952 1459.171875 960.308594 1476 C 963.675781 1483 967.855469 1490.003906 972.667969 1496 C 974.742188 1498.5625 979.171875 1501.386719 979 1505.039063 C 978.882813 1509.628906 974.523438 1515.230469 972.1875 1519 C 964 1532.113281 952.886719 1543.640625 941 1553.382813 C 930.894531 1561.667969 917.652344 1570.355469 905 1574 C 914.40625 1562.335938 925.859375 1553.234375 932 1539 C 915 1551 897.917969 1573.214844 877 1578 C 886 1564.667969 897.429688 1552.765625 906 1539 C 884.464844 1556.359375 859.488281 1585.078125 831 1590 C 834.417969 1584.34375 841.300781 1580.667969 845.984375 1576 C 856.214844 1565.757813 866.753906 1553.550781 874 1541 C 849.613281 1558 820.558594 1586.382813 789 1588 C 792.472656 1582.605469 800.859375 1579.304688 806 1575.347656 C 819 1565.296875 834.414063 1554.605469 844 1541 C 808.476563 1560.777344 769 1586.132813 727 1587 C 733.4375 1580.210938 746.691406 1577.371094 755 1572.714844 C 771.464844 1563.492188 786.808594 1553.066406 802 1542 C 808.464844 1537.125 816.585938 1533 822 1527 C 783.988281 1537.707031 740.554688 1549 701 1549 L 701 1548 C 720.1875 1540.367188 740.859375 1534.183594 759 1524.304688 C 765.207031 1521 773.363281 1518.394531 778 1513 C 766 1515.820313 752.175781 1518 740 1518 L 740 1517 C 753.855469 1510.519531 772.800781 1499.523438 788 1498 L 788 1497 C 773 1494.09375 752.730469 1500.519531 738 1503.484375 C 718.714844 1507.371094 699.617188 1508 680 1508 C 683 1503.03125 691.726563 1502.0625 697 1500.003906 C 712.882813 1493.800781 729.648438 1486.675781 746 1482 L 746 1481 C 732.824219 1482.664063 719.289063 1483 706 1483 C 712.757813 1473.8125 730.402344 1473.042969 739 1465 C 719.28125 1466.554688 699.710938 1469.730469 680 1471.089844 C 671.363281 1471.683594 662.5625 1474.433594 654 1472 C 659.941406 1467.574219 669 1466.375 676 1464 C 687.855469 1460 699.652344 1453.097656 712 1451 L 712 1450 C 696.269531 1450.324219 680.835938 1453 665 1453 L 665 1452 C 681.941406 1446.476563 697.269531 1437.070313 714 1431 L 714 1430 C 688.757813 1432.0625 664.769531 1439.753906 639 1436.714844 C 635.332031 1436.28125 612.316406 1436.128906 616.304688 1427.601563 C 618 1424 636.917969 1423.570313 641 1422.804688 C 663.535156 1418.5625 690.269531 1415.148438 711 1405 C 690.328125 1400.078125 667.972656 1400.703125 647 1397 C 640.230469 1395.703125 627.589844 1395.511719 624 1389 C 640 1389 656.867188 1382.539063 672 1377.492188 C 678.371094 1375.371094 685.546875 1374 691 1370 C 666.796875 1370 641.398438 1368.589844 618 1362 L 618 1361 C 640.605469 1356.800781 661.820313 1349 684 1343 L 684 1342 C 669.507813 1342.300781 655.394531 1348.261719 641 1349.824219 C 621.539063 1352 604 1349.46875 585 1347 C 588.835938 1340.4375 603.960938 1341.007813 611 1340 C 626.714844 1337.746094 642.507813 1335.027344 658 1331.5 C 667.589844 1329.320313 677.238281 1325 687 1324 L 687 1323 C 654.195313 1322.589844 622.289063 1322 590 1316 L 590 1315 C 602.78125 1313.726563 615 1306.308594 627 1302 L 627 1301 C 590 1300.519531 554 1292 517 1292 L 517 1291 C 531.5625 1283.679688 549.230469 1283 565 1280 L 565 1279 C 539.488281 1279 514.496094 1281 489 1282 L 489 1280 C 508.3125 1276.726563 527.910156 1269.546875 547 1265 C 532 1257.78125 511 1265.746094 495 1261 L 495 1260 C 504 1259.203125 512.789063 1256.007813 522 1256 L 522 1254 C 500.179688 1253.503906 478.800781 1254.550781 457 1255 C 462.980469 1247.105469 487.351563 1242.207031 497 1242 C 492.703125 1237.613281 485.761719 1239 480 1239 C 464.351563 1239.023438 448.5 1242.039063 433 1244 C 435.792969 1239.382813 442.199219 1237.789063 447 1235.71875 C 459.269531 1230.429688 471.871094 1226.476563 485 1224 L 485 1223 C 463.195313 1223 441.214844 1226.628906 420 1231.5 C 411.914063 1233.355469 404.300781 1237.320313 396 1238 C 399.339844 1232.679688 407.527344 1231.339844 413 1228.746094 C 428.644531 1221.328125 450.636719 1212.105469 468 1211 L 468 1210 C 457.664063 1209 446.308594 1211.800781 436 1212.828125 C 421.855469 1214.242188 407.941406 1214.644531 394 1218 C 397.289063 1212.5625 406.242188 1210.375 412 1208.226563 C 428.953125 1202 447 1199.226563 464 1193 L 464 1192 C 435.183594 1191.277344 406.828125 1190 378 1190 L 378 1189 C 400.839844 1175.019531 424.46875 1163.164063 450 1155 L 450 1154 C 421.351563 1154 390.890625 1164.28125 365 1176 C 368.320313 1169.410156 376.980469 1166.09375 383 1162.320313 C 401.519531 1150.714844 426.824219 1139 449 1138 L 449 1137 C 420.628906 1137 395.640625 1144 368 1148 C 372.609375 1142.160156 380.34375 1140.175781 387 1137.351563 C 405 1129.671875 425.285156 1124 445 1123 L 445 1122 C 415.371094 1115 388.179688 1123.507813 359 1125 L 359 1124 C 384.851563 1112 416.445313 1104.589844 445 1104 L 445 1103 C 427 1101.585938 408.964844 1100.429688 391 1102.171875 C 378 1103.417969 364.933594 1106.734375 352 1107 C 361.238281 1101 374.316406 1098.277344 385 1095.765625 C 409.566406 1090 437.855469 1084.507813 463 1089.195313 C 469.632813 1090.433594 486 1088 490.972656 1093.011719 C 493.609375 1095.777344 491.960938 1104.425781 492 1108 C 492 1119 494 1130.382813 496.746094 1141 C 504.210938 1170.773438 520.957031 1197.53125 544 1217.714844 C 594.222656 1261.703125 673.667969 1275 735 1246.691406 C 751.269531 1239.1875 766.734375 1228.691406 779.910156 1216.570313 C 784.910156 1212 788.511719 1206.039063 794 1202 M 1620 1104 L 1620 1106 C 1590.402344 1105.390625 1559.546875 1097 1530 1104 L 1530 1105 C 1561 1105.003906 1588.246094 1117 1618 1123 L 1618 1125 C 1596.648438 1124.023438 1576.796875 1119.003906 1555 1120 C 1548 1120.269531 1536 1118.773438 1531 1124 C 1556.9375 1126.046875 1584.953125 1132.460938 1607 1147 L 1607 1148 C 1597.871094 1147.253906 1589 1143.15625 1580 1141.460938 C 1561.699219 1138.03125 1543.5625 1137 1525 1137 L 1525 1138 C 1546.585938 1139 1570.617188 1150.070313 1589 1160.71875 C 1595 1164.253906 1604.9375 1168.210938 1609 1174 C 1598.859375 1173 1588.707031 1167.589844 1579 1164.566406 C 1560.8125 1159 1542 1154 1523 1154 C 1527.496094 1158 1535.425781 1159.230469 1541 1161.648438 C 1552.96875 1166.832031 1564.429688 1172.652344 1576 1178.640625 C 1581.9375 1181.714844 1591.78125 1185 1595 1191 C 1567.375 1184.421875 1536.769531 1190.808594 1509 1193 C 1514 1197.472656 1523.492188 1197.703125 1530 1199.550781 C 1546 1204.140625 1561.742188 1208.769531 1577 1216 L 1577 1217 C 1553.785156 1217 1530.449219 1211 1507 1211 L 1507 1212 C 1524.542969 1216.332031 1541.464844 1221.023438 1558 1228.457031 C 1564 1231.183594 1571.542969 1233 1576 1238 C 1562 1236 1548.980469 1229.59375 1535 1227.324219 C 1519.433594 1224.800781 1503.601563 1225 1488 1223 L 1488 1224 C 1506.601563 1230.28125 1526.582031 1233.097656 1544 1243 L 1544 1244 C 1520.597656 1241.042969 1497.59375 1240 1474 1240 L 1474 1242 C 1489.496094 1242.675781 1502.890625 1251.777344 1518 1254 L 1518 1256 C 1495.710938 1256 1473.398438 1254 1451 1254 L 1451 1256 C 1458.730469 1256.003906 1469 1256.644531 1476 1260 L 1476 1261 C 1458.714844 1261.144531 1441.265625 1263.269531 1424 1264 L 1424 1265 C 1444.453125 1267.585938 1467 1273.625 1486 1282 L 1486 1283 C 1475.300781 1283 1464.675781 1280 1454 1279.078125 C 1436.746094 1277.660156 1419.308594 1278 1402 1278 L 1402 1279 C 1415 1280.304688 1429.472656 1282.339844 1442 1286.578125 C 1446.601563 1288.136719 1451.546875 1288.433594 1455 1292 C 1428.695313 1292 1403.167969 1295.011719 1377 1298.574219 C 1368 1299.785156 1356 1298.300781 1348 1302 C 1360.886719 1305.734375 1372.613281 1312.730469 1386 1315 L 1386 1316 C 1378.570313 1317.378906 1368.328125 1318.484375 1361 1316.246094 C 1351.308594 1313.289063 1337.296875 1303.519531 1327 1308 C 1335 1310.132813 1342.992188 1313.019531 1351 1315.640625 C 1352.5 1316.132813 1357.792969 1316.769531 1357.792969 1319 C 1357.792969 1322 1344.277344 1322 1342 1322.164063 C 1324.738281 1324.015625 1308.28125 1323.742188 1291 1323 L 1291 1324 C 1303 1326.070313 1314.9375 1331 1327 1333.488281 C 1348.453125 1338.046875 1370.660156 1340 1392 1345 C 1387.199219 1350 1377.511719 1349.355469 1371 1350.664063 C 1343.167969 1356.269531 1318 1343.183594 1291 1342 L 1291 1343 C 1312.800781 1349.308594 1333.972656 1355.796875 1356 1361 C 1351 1364.777344 1343 1364.457031 1337 1365.664063 C 1319.242188 1369.242188 1300 1371 1282 1371 L 1282 1373 C 1298.257813 1373.742188 1314 1383.378906 1330 1387 C 1331.863281 1387.296875 1345.902344 1389.265625 1344.652344 1391.640625 C 1342.710938 1395.347656 1327.878906 1396.546875 1324 1397.046875 C 1303.4375 1399.699219 1282.78125 1404.109375 1262 1405 L 1262 1406 C 1294.511719 1415.140625 1328.949219 1426 1363 1426 C 1356.984375 1435.699219 1344.949219 1435.222656 1335 1436.171875 C 1308.925781 1438.652344 1284.511719 1436 1259 1430 C 1271.515625 1441.265625 1293.753906 1445.523438 1309 1452 L 1309 1453 C 1293.71875 1453 1278 1449.417969 1263 1450 L 1263 1451 C 1276.960938 1453.480469 1290.402344 1462 1304 1466.140625 C 1309 1467.742188 1316.730469 1468.5625 1320 1473 C 1292.207031 1473 1264.839844 1466.230469 1237 1466 C 1244.949219 1472.132813 1259.992188 1480 1270 1481 L 1270 1482 C 1257.503906 1485.691406 1239.796875 1482.617188 1227 1481 L 1227 1482 C 1242.539063 1487.246094 1257.566406 1493.800781 1273 1499.367188 C 1278.605469 1501.390625 1288.367188 1503.164063 1292 1508 C 1255.929688 1508 1221.617188 1500.796875 1186 1496 L 1186 1498 C 1202.738281 1500.1875 1217 1514.265625 1234 1516 L 1234 1518 C 1220.191406 1517.714844 1206.691406 1512.625 1193 1512 L 1193 1513 C 1204 1517.628906 1214 1524.671875 1225 1529.691406 C 1241 1537.074219 1258.289063 1542.203125 1275 1548 L 1275 1549 C 1233.570313 1549 1193 1536.273438 1153 1527 C 1181.417969 1554 1215 1570.78125 1250 1587 L 1250 1588 C 1206 1587.636719 1168.847656 1560 1131 1542 C 1145.695313 1560.046875 1165.40625 1576.199219 1186 1587 L 1186 1588 C 1153 1586.492188 1125.359375 1558.652344 1100 1541 C 1112.203125 1559.429688 1124.523438 1576.394531 1143 1589 L 1143 1590 C 1113.398438 1583.820313 1093.5625 1557.402344 1070 1541 C 1077.695313 1553.273438 1090 1565.160156 1096 1578 C 1075.371094 1568 1057 1552.140625 1041 1536 C 1046.964844 1549.820313 1057.542969 1560 1066 1572 C 1054 1568.558594 1042.796875 1560.667969 1033 1553.253906 C 1021.230469 1544.34375 1011.515625 1533.082031 1003 1521 C 1000.277344 1517 995.363281 1510.226563 995 1505 C 994.730469 1499 1006.316406 1489.425781 1009.546875 1484 C 1021.570313 1463.785156 1027.988281 1439.257813 1046 1423.175781 C 1061.238281 1409.566406 1081.625 1404.226563 1095.910156 1389 C 1102.957031 1381.480469 1108.941406 1372.304688 1110.5625 1362 C 1111 1359 1108.1875 1347.753906 1110 1346.136719 C 1114.351563 1342.449219 1122.769531 1356.648438 1125 1359 C 1125 1352 1122 1343.761719 1124 1337 C 1129.980469 1340.199219 1135 1344.320313 1140 1349 C 1136.898438 1342.175781 1133.40625 1335.035156 1128.523438 1329.289063 C 1124.636719 1324.71875 1118.816406 1321.234375 1116 1316 C 1123.496094 1317.78125 1129.558594 1322 1136 1326 C 1129.804688 1317 1118.527344 1309.699219 1114 1300 C 1124.171875 1301.523438 1132.683594 1309.636719 1143 1310 C 1137 1304 1130.277344 1297.402344 1126 1290 C 1137.78125 1291.207031 1143.707031 1302.011719 1154 1306 C 1148.65625 1300.144531 1144 1293.289063 1141 1286 C 1152 1289.507813 1159.558594 1299.582031 1170 1304 C 1164.980469 1297.492188 1159.3125 1291.015625 1157 1283 C 1168.316406 1287.121094 1175.574219 1296.679688 1186 1302 C 1180.859375 1294.210938 1176.460938 1285.652344 1173 1277 C 1182.171875 1281.277344 1188.265625 1290.765625 1196 1297 C 1189.3125 1281 1184.507813 1264 1180 1247 C 1188.421875 1251 1192.84375 1261.296875 1199 1268 C 1195.824219 1254.15625 1188.214844 1242.339844 1184 1229 C 1188.414063 1231.070313 1191.375 1234.796875 1195 1238 C 1191.453125 1225.6875 1183 1215.152344 1182 1202 C 1189.441406 1207.476563 1195 1215.609375 1202 1221.828125 C 1213.261719 1232 1227 1241.003906 1241 1247.136719 C 1313.785156 1279.316406 1408.808594 1256.082031 1455 1191 C 1469.28125 1171 1478.246094 1147.390625 1481.574219 1123 C 1482.570313 1115.703125 1482.996094 1108.359375 1483 1101 C 1483 1098.570313 1482.203125 1094.132813 1484.601563 1092.5625 C 1490.90625 1088.445313 1501.890625 1090.628906 1509 1089.386719 C 1547.582031 1082.628906 1582.925781 1097.699219 1620 1104 M 1210 1093.332031 C 1210.890625 1093.332031 1210.890625 1094.667969 1210 1094.667969 C 1209 1094.667969 1209 1093.332031 1210 1093.332031 M 1623 1106.332031 C 1623.773438 1106.332031 1623 1106.832031 1622.667969 1106.667969 L 1623 1106.332031 M 1624 1126 L 1623 1127 L 1624 1126 M 468 1209 L 469 1210 L 468 1209 M 902 1211 C 903.3125 1210.230469 903.230469 1210.3125 904 1209 C 902.363281 1209.546875 902.546875 1209.363281 902 1211 M 918 1210 L 919 1211 L 918 1210 M 1503 1210 L 1503 1211 L 1506 1211 C 1504.753906 1210.316406 1504.449219 1210.25 1503 1210 M 1072 1211 C 1072.546875 1212.636719 1072.363281 1212.453125 1074 1213 C 1073.230469 1211.6875 1073.3125 1211.769531 1072 1211 M 1096 1212 L 1097 1213 L 1096 1212 M 1498 1362 C 1571.207031 1333.761719 1657.753906 1320.097656 1736 1322.015625 C 1766.453125 1322.761719 1796.792969 1332 1827 1332 C 1824.949219 1324.414063 1825.410156 1323.730469 1833 1326 C 1831.804688 1318 1829.652344 1310.261719 1829 1302 C 1831.359375 1303.730469 1833.414063 1305.648438 1836 1307 C 1835.925781 1298.773438 1832.824219 1291 1831 1283 C 1834.648438 1285.460938 1837.683594 1288 1842 1289 C 1840.410156 1281.371094 1834.988281 1273.820313 1835 1266 C 1838.222656 1268.613281 1841.222656 1271.269531 1845 1273 C 1844.757813 1267.394531 1841.679688 1261.480469 1842.191406 1256.003906 C 1842.429688 1253.464844 1846 1249.773438 1844.25 1247.472656 C 1840.589844 1242.78125 1829.3125 1243.300781 1824 1242.574219 C 1801.84375 1239.5625 1776.875 1242.78125 1755 1246.324219 C 1685.3125 1257.609375 1618.578125 1292 1558 1326.574219 C 1543.351563 1335 1528.5 1343 1514 1351.546875 C 1508.855469 1354.613281 1501.230469 1356.816406 1498 1362 M 129 1274 L 130 1274 C 131.933594 1270.714844 134 1268.445313 137 1266 C 135 1274.195313 132.226563 1282.667969 131 1291 C 135.453125 1289.449219 137.617188 1286.089844 141 1283 C 140.75 1286.0625 134.492188 1305 138.304688 1306.078125 C 139.34375 1306.390625 142.890625 1302.589844 144 1302 C 142 1310.589844 141.691406 1319.21875 141 1328 C 149.582031 1324 146.335938 1326.472656 147 1334 C 166.210938 1325.808594 190.476563 1325.816406 211 1323.828125 C 272.894531 1318 339.652344 1326.085938 400 1340.589844 C 415.707031 1344.363281 431.527344 1348 447 1352.570313 C 455.617188 1355.164063 463.972656 1360.207031 473 1361 C 467.617188 1356 460.304688 1353.285156 454 1349.546875 C 438.785156 1340.53125 423.460938 1331.710938 408 1323.140625 C 346.863281 1289.25 285.175781 1262.0625 217 1246.59375 C 195.613281 1241.742188 171.863281 1242.742188 150 1243.003906 C 144.527344 1243.070313 130.566406 1243 126.753906 1247.453125 C 124.703125 1250 129.425781 1251.117188 129.804688 1253.300781 C 130.988281 1260.171875 126.886719 1267 129 1274 M 917 1255 L 918 1256 L 917 1255 M 776.332031 1269.667969 C 776.277344 1269.722656 776.222656 1270.777344 776.667969 1270.332031 C 776.722656 1270.277344 776.777344 1269.222656 776.332031 1269.667969 M 927 1281 C 928.636719 1280.453125 928.453125 1280.636719 929 1279 C 927.363281 1279.546875 927.546875 1279.363281 927 1281 M 1323.667969 1305.332031 C 1323.222656 1305.777344 1324.277344 1305.722656 1324.332031 1305.667969 C 1324.777344 1305.222656 1323.722656 1305.277344 1323.667969 1305.332031 M 613 1317 C 624.191406 1316.738281 636.390625 1311.382813 647 1308 C 640.542969 1303.296875 617.390625 1310.820313 613 1317 M 838 1326 C 839.636719 1325.453125 839.453125 1325.636719 840 1324 C 838.363281 1324.546875 838.546875 1324.363281 838 1326 M 946.667969 1327.332031 C 946.222656 1327.777344 947.277344 1327.722656 947.332031 1327.667969 C 947.777344 1327.222656 946.722656 1327.277344 946.667969 1327.332031 M 1030 1327 L 1031 1328 L 1030 1327 M 687 1342 C 688.636719 1341.453125 688.453125 1341.636719 689 1340 C 687.6875 1340.769531 687.769531 1340.6875 687 1342 M 1287 1340 C 1287.769531 1341.3125 1287.6875 1341.230469 1289 1342 C 1288.453125 1340.363281 1288.636719 1340.546875 1287 1340 M 684.667969 1341.332031 C 684.222656 1341.777344 685.277344 1341.722656 685.332031 1341.667969 C 685.777344 1341.222656 684.722656 1341.277344 684.667969 1341.332031 M 474 1362 L 475 1363 L 474 1362 M 1054 1390 C 1047.210938 1389.464844 1040.808594 1388 1034 1389.597656 C 1017.40625 1393.652344 1004.710938 1405.199219 987 1405 C 971.375 1404.816406 960.261719 1396 946 1391.378906 C 936.660156 1388.363281 927.597656 1388.785156 918 1390 C 933.941406 1363.8125 966.480469 1388 987 1388 C 1010.234375 1388 1033.839844 1365.605469 1054 1390 M 781 1402.558594 C 760.90625 1405 765 1436 785 1434 C 804.976563 1431.792969 801.558594 1400.179688 781 1402.558594 M 1187 1402.472656 C 1166.355469 1406.1875 1172.785156 1438 1193 1433.722656 C 1212 1429.816406 1206.753906 1399 1187 1402.472656 M 657 1509 C 644.195313 1502.464844 631.355469 1493.5625 619 1486 C 624 1493 631.851563 1497.8125 637.828125 1504 C 652.582031 1519.273438 668.757813 1538.355469 675 1559 C 655.257813 1545.09375 639.570313 1524.582031 616 1516 C 622 1522.773438 629.640625 1528 635.5625 1535 C 659.753906 1563.667969 675.527344 1597.195313 676 1635 C 672 1632.449219 670 1627.457031 666.972656 1624 C 659.421875 1615.816406 651.734375 1610.246094 641 1607 C 643.605469 1612.6875 648.1875 1617 650 1623 C 636 1617.4375 615.503906 1620.230469 613 1639 C 603.964844 1633.472656 599 1616.476563 595.199219 1607 C 588 1589.601563 578.773438 1573 566 1559 C 571.550781 1573.304688 577.679688 1590.523438 578 1606 L 577 1606 C 568.734375 1593.75 559 1582 549 1571 C 561 1606.550781 573.792969 1641.335938 577.824219 1679 C 579 1691.085938 578 1704 578 1716 C 567 1709 558.324219 1691.742188 549 1682 C 556.984375 1707 562.808594 1748 550 1772 L 549 1772 C 537.34375 1749.152344 525.894531 1718.773438 525 1693 L 524 1693 C 520.566406 1705 519.363281 1714 521 1726 L 520 1726 C 495 1688.277344 492.679688 1637.390625 478.492188 1595 C 473.210938 1579.214844 465 1555 452 1544 C 462.363281 1579.820313 460 1614.253906 460 1651 L 459 1651 C 458.519531 1640 454.234375 1629.695313 452 1619 L 451 1619 C 451 1666.402344 454.835938 1711.726563 473 1756 C 467.476563 1753.050781 463.671875 1747 460 1742 C 451.378906 1730.328125 440.808594 1714.761719 439 1700 L 438 1700 C 437.824219 1718.539063 447.949219 1735.640625 455 1752 C 442.839844 1746.328125 432 1730.105469 427 1718 L 426 1718 C 426.617188 1748 433 1777 433 1807 C 416.507813 1797.550781 408 1769.40625 404.359375 1752 C 403 1746.089844 400.703125 1740.003906 400 1734 C 399.964844 1732.597656 400.507813 1728.179688 398.625 1727.632813 C 396.191406 1727 395.617188 1733.703125 395.339844 1735 C 393.273438 1744.648438 395.585938 1752.464844 396 1762 C 386.214844 1757.085938 378.210938 1744.332031 373 1735 C 358.703125 1709.320313 349.242188 1674.460938 349 1645 L 348 1645 C 346 1653.179688 345 1666 347 1674 C 341.976563 1670.492188 342.242188 1660.691406 341.429688 1655 C 338.707031 1636.003906 339.921875 1616.15625 339 1597 L 338 1597 C 337.355469 1611.0625 331.558594 1625 330.171875 1639 C 326 1680.789063 332.644531 1718.296875 353 1755 C 335.539063 1747 328.828125 1725.65625 316 1713 C 319.363281 1727.714844 318.730469 1742.117188 320.171875 1757 C 321.363281 1769.347656 324.46875 1781.59375 325 1794 C 300.863281 1783.78125 292 1748.453125 292 1725 C 285.253906 1733.359375 285 1741.738281 285 1752 L 284 1752 C 246.277344 1699.480469 253.855469 1620.484375 262 1560 C 253 1568.800781 249 1586.234375 245.589844 1598 C 233.613281 1638.144531 237.972656 1676.027344 238 1717 C 219.382813 1706.230469 229 1666.71875 206 1664.136719 C 186.550781 1662 180.882813 1692.082031 183.664063 1706 C 184.265625 1709 188.695313 1722 185.394531 1723.597656 C 177.445313 1727.5625 163 1712.375 159.75 1707 C 149.417969 1690.449219 148 1672.007813 148 1653 C 148 1645.601563 147 1638 150 1631 C 145 1635.519531 142.574219 1642.445313 142 1649 L 140 1649 C 140 1638.175781 143.378906 1627.726563 148 1618 C 140.777344 1624.667969 136.515625 1635.382813 132 1644 L 131 1644 C 136.324219 1576.621094 184.914063 1525.203125 237 1488 C 252.238281 1477.117188 269.289063 1460.28125 288 1456 C 285.382813 1460.828125 280.871094 1464.15625 277 1468 C 290.582031 1461.574219 303.503906 1449.554688 319 1448 C 315 1453.253906 309.628906 1457.375 305 1462 C 333.644531 1451.605469 361.742188 1435 391 1427 C 387.671875 1431.523438 383 1435.632813 378 1438 L 378 1439 C 392.382813 1435 405 1428 420 1425 C 417.242188 1430.023438 411 1432.636719 406 1435 C 413 1435.15625 421.171875 1430.691406 428 1428.503906 C 439.449219 1425 451.980469 1422.566406 464 1422.039063 C 516.679688 1419.734375 563.988281 1439.75 609 1465 C 626 1474.609375 650.664063 1489.117188 657 1509 M 1566 1438 C 1562 1433 1555 1430.695313 1552 1425 C 1566.722656 1428.046875 1580.46875 1433.570313 1594 1440 C 1590.785156 1435.535156 1585.464844 1433 1583 1428 C 1596.761719 1430.445313 1610 1439.1875 1623 1444.574219 C 1637.488281 1450.65625 1654.867188 1454.382813 1668 1463 C 1664.1875 1457.585938 1657.964844 1454 1655 1448 C 1669.648438 1450.195313 1680.871094 1461.261719 1694 1467 L 1684 1456 C 1690.640625 1456.453125 1697.511719 1461.566406 1703 1465.167969 C 1714.988281 1473.035156 1726.601563 1481.421875 1738 1490.117188 C 1760.230469 1507.070313 1783 1524.769531 1800.335938 1547 C 1823 1576.242188 1835 1612.148438 1842 1648 L 1841 1648 C 1834.875 1637.421875 1827.203125 1627 1822 1616 L 1821 1616 C 1824.421875 1628 1829.964844 1638.25 1830 1651 L 1829 1651 C 1827 1646.058594 1825.46875 1641.070313 1824 1636 C 1820.988281 1644.085938 1823.34375 1656.226563 1822.960938 1665 C 1821.765625 1692.332031 1813.9375 1718.417969 1784 1724 C 1787.390625 1708.121094 1792.820313 1693 1785 1677 C 1779.804688 1666.121094 1767 1659.445313 1757 1668.445313 C 1743.3125 1681 1750.742188 1704.667969 1734 1717 C 1732.316406 1703.667969 1736.386719 1687.640625 1736.960938 1674 C 1738.234375 1643.785156 1732.300781 1610 1720.789063 1582 C 1717 1573.121094 1714 1561.796875 1707 1555 C 1713.671875 1568.628906 1714.488281 1588.308594 1714.882813 1603.285156 C 1715.769531 1637 1714.589844 1671 1708.195313 1704 C 1705.453125 1718.230469 1700.683594 1742.128906 1688 1751 C 1688 1741.636719 1688 1732.253906 1680 1726 C 1684 1746.769531 1666.972656 1787.304688 1646 1794 C 1649.417969 1767.53125 1652.898438 1741.613281 1655 1715 C 1643 1727.671875 1636.449219 1746.46875 1620 1755 C 1623.664063 1745.332031 1630.191406 1737 1633.65625 1727 C 1643.550781 1698.53125 1645.890625 1665.691406 1641.296875 1636 C 1639.722656 1625.832031 1639.609375 1606.421875 1632 1599 C 1632 1616.335938 1632.53125 1633.683594 1630.28125 1651 C 1629.972656 1653.375 1630 1666.363281 1627.714844 1667.078125 C 1625.851563 1667.65625 1625.984375 1662.828125 1625.929688 1662 C 1625.589844 1656.671875 1625.226563 1651.324219 1625 1646 L 1624 1646 C 1617 1675.207031 1614.492188 1705 1600 1732 C 1593.71875 1744.054688 1584.308594 1752.5625 1576 1763 L 1575 1763 C 1573.589844 1751.585938 1581.679688 1736.289063 1572 1726 C 1571 1746.492188 1562.574219 1771.179688 1552.695313 1789 C 1548.988281 1795.6875 1545.171875 1803.628906 1538 1807 C 1539.390625 1796 1538 1785 1539.171875 1774 C 1540.976563 1755.011719 1544.183594 1736.050781 1545 1717 L 1544 1717 C 1539.464844 1729.300781 1528 1746.246094 1516 1752 C 1522.238281 1735 1532.191406 1718.828125 1533 1700 L 1532 1700 C 1528.464844 1720 1512.394531 1745.453125 1496 1757 C 1500.6875 1744.113281 1507.679688 1732.460938 1511.242188 1719 C 1519.65625 1687.238281 1520 1654.621094 1520 1622 L 1518 1622 C 1517.257813 1630.496094 1515.402344 1641 1513 1649 L 1512 1649 C 1510.546875 1615.164063 1505.707031 1576 1520 1544 C 1509.628906 1552.003906 1503.582031 1568.230469 1498.519531 1580 C 1487.496094 1605.617188 1479.679688 1633 1473.5 1660 C 1468.78125 1680.738281 1465.410156 1706.039063 1450 1722 C 1448.195313 1711.164063 1447.9375 1701.074219 1445 1690 L 1444 1690 C 1443.996094 1710.53125 1435.296875 1732.027344 1428 1751 C 1426.925781 1753.796875 1423.300781 1768.792969 1419.972656 1768.792969 C 1414.917969 1768.792969 1414 1751.429688 1413.574219 1748 C 1410.777344 1727 1413.585938 1700.234375 1420 1680 C 1410.78125 1690.007813 1401.902344 1706.378906 1391 1714 C 1391 1679.214844 1397.289063 1645.296875 1407.28125 1612 C 1411.722656 1597.195313 1415.925781 1582.3125 1424 1569 C 1411.753906 1578 1406 1598.238281 1393 1605 C 1397.449219 1589.160156 1400.691406 1573.597656 1406 1558 C 1392.523438 1571.484375 1384.179688 1587.632813 1376.652344 1605 C 1371.855469 1616.074219 1367.386719 1631 1358 1639 C 1353.257813 1630.152344 1347.191406 1620.035156 1336 1619.109375 C 1330.902344 1618.6875 1326 1620.769531 1321 1621 C 1323.617188 1615.015625 1327.832031 1611 1332 1606 C 1321.929688 1607.734375 1312.179688 1613.394531 1305.4375 1621.039063 C 1301.878906 1625.078125 1299.472656 1631.078125 1295 1634 C 1295 1600.097656 1309.292969 1568 1330.574219 1542 C 1338 1533 1346.195313 1522.382813 1357 1517 L 1357 1516 C 1332.210938 1521.367188 1318.378906 1547.03125 1297 1557 C 1303.363281 1529.175781 1332.828125 1506.160156 1352 1487 C 1337.65625 1492.292969 1326.582031 1503.675781 1313 1510 C 1323.292969 1488 1349.875 1473 1370 1461.140625 C 1425 1428.808594 1505.699219 1402 1566 1438 M 615 1515 L 616 1516 L 615 1515 M 932.5 1537.5 C 931.871094 1538.128906 932.871094 1539.128906 933.5 1538.5 C 934 1538 933 1537 932.5 1537.5 M 1069.332031 1539.667969 C 1069.277344 1539.722656 1069.222656 1540.777344 1069.667969 1540.332031 C 1069.722656 1540.277344 1069.777344 1539.222656 1069.332031 1539.667969 M 262.332031 1557.667969 C 262.277344 1557.722656 262.222656 1558.777344 262.667969 1558.332031 C 262.722656 1558.277344 262.777344 1557.222656 262.332031 1557.667969 M 547 1569 L 548 1570 L 547 1569 M 1011 1616 C 1012.910156 1608 1012 1599.210938 1012 1591 C 1022.820313 1597.566406 1026.949219 1614.230469 1036 1623 C 1033.996094 1614.335938 1030.710938 1606 1030 1597 C 1037.375 1601.324219 1041.894531 1610 1049 1615 C 1046.566406 1609.324219 1043 1604.152344 1042 1598 C 1057 1606.667969 1080.59375 1624.117188 1088 1640 C 1079.519531 1637.367188 1071 1632.820313 1063 1629 C 1073.609375 1643.75 1096 1651.429688 1104 1668 C 1086.34375 1661.40625 1072.445313 1653.5625 1057 1643 C 1069.277344 1660.636719 1086.929688 1677.429688 1096 1697 C 1075 1693 1062.742188 1668.796875 1047 1657 L 1070 1699 C 1053.820313 1700.777344 1046 1690.617188 1035 1681 L 1043 1699 L 961 1699 C 956 1699 937.371094 1701.800781 934 1698 C 931.40625 1695 938.640625 1685.75 939 1682 C 928.652344 1692.347656 920.855469 1698 906 1698 C 911.722656 1684.460938 920 1671.671875 926 1658 C 910 1671.773438 899.375 1690.09375 878 1697 C 889.613281 1678.429688 904.746094 1661.410156 918 1644 C 903.582031 1653 887.542969 1666.242188 870 1668 C 872.792969 1662.820313 878.613281 1659.554688 883 1655.714844 C 892 1647.828125 901 1636.019531 912 1631 L 912 1630 C 902.175781 1631.746094 893.570313 1638.242188 884 1641 C 887 1635.652344 892.304688 1632.050781 896.574219 1627.714844 C 906.820313 1617.3125 919.667969 1603.214844 933 1597 C 932.339844 1603.101563 928.417969 1608.03125 927 1614 C 933.210938 1608.507813 937.585938 1601.175781 944 1596 C 943.601563 1605.285156 940.335938 1614 939 1623 C 947.492188 1614.191406 953.496094 1601.375 960 1591 L 961 1591 C 963.289063 1598.722656 962.53125 1607.097656 964 1615 L 965 1615 C 967.675781 1603.4375 973.371094 1587.386719 983 1580 C 984.332031 1584 984.90625 1587.140625 988 1590 C 988.179688 1581.5625 992.378906 1576.832031 997.558594 1586 C 1002.945313 1595.527344 1006.585938 1606.042969 1011 1616 M 1632 1595 L 1633 1596 L 1632 1595 M 148 1614 L 148 1617 C 149.195313 1615.777344 149.316406 1615.578125 150 1614 L 148 1614 M 1520.332031 1617.667969 C 1520.277344 1617.722656 1520.222656 1618.777344 1520.667969 1618.332031 C 1520.722656 1618.277344 1520.777344 1617.222656 1520.332031 1617.667969 M 1036 1623 L 1037 1624 L 1036 1623 M 1337 1626.515625 C 1342.648438 1626.058594 1354.210938 1632.183594 1352.863281 1639 C 1351.898438 1644 1345.867188 1648.191406 1342.976563 1652.089844 C 1336.78125 1660.441406 1331.78125 1669.566406 1327.460938 1679 C 1326.191406 1681.765625 1321 1697.792969 1318 1697.792969 C 1314 1697.792969 1314 1680.757813 1313.71875 1678 C 1312 1663.488281 1317.824219 1628.066406 1337 1626.515625 M 653 1700 C 644.375 1685 639.457031 1668 628.480469 1654 C 625.601563 1650.332031 615.367188 1643.039063 616.175781 1638 C 618.496094 1623.480469 636.214844 1626.335938 643 1634.089844 C 655.78125 1648.441406 663.898438 1682.652344 653 1700 M 926.332031 1656.667969 C 926.277344 1656.722656 926.222656 1657.777344 926.667969 1657.332031 C 926.722656 1657.277344 926.777344 1656.222656 926.332031 1656.667969 M 1627 1671 L 1627 1674 L 1626 1674 C 1626.25 1672.546875 1626.316406 1672.25 1627 1671 M 456 1753 L 455 1754 L 456 1753 M 474 1757 L 473 1758 L 474 1757 M 129 1864 C 176.292969 1864 223.71875 1866.828125 271 1868 C 398 1871.097656 525.953125 1870.128906 653 1867.015625 C 714.394531 1865.511719 775.804688 1867.828125 837 1863 C 831.976563 1860 825.652344 1861.125 820 1861 C 809.335938 1860.722656 798.71875 1860.050781 788 1860 C 753 1859.832031 717.972656 1857 683 1856 C 608 1854.148438 532.960938 1847 458 1846.003906 C 402.789063 1845.347656 348 1852 293 1852 C 272 1852.007813 250.839844 1854.484375 230 1856 C 209 1857.34375 187.8125 1856.691406 167 1859.425781 C 158.175781 1860.582031 148.898438 1860.519531 140 1861.019531 C 135.96875 1861.246094 131.390625 1860.40625 129 1864 M 1128 1862 L 1128 1863 C 1149.695313 1865.742188 1172.191406 1864.339844 1194 1865.042969 C 1233.65625 1866.324219 1273.25 1866.808594 1313 1867 C 1409.625 1867.46875 1506.378906 1868.035156 1603 1868 C 1654.390625 1868 1705.726563 1866.246094 1757 1866 C 1778.449219 1866 1799.640625 1865.550781 1821 1864.089844 C 1828.574219 1863.570313 1836.667969 1865.167969 1844 1863 C 1829.710938 1856.132813 1805.734375 1860 1790 1859 C 1743.992188 1855.742188 1698 1853 1652 1851 C 1605 1849 1558 1845 1511 1846.015625 C 1425.769531 1848.101563 1340.222656 1852.308594 1255 1856.039063 C 1212.816406 1858 1170.246094 1862 1128 1862 M 202 1891 L 202 1893 C 231.769531 1896.761719 262 1895.726563 292 1897.039063 C 360.507813 1900.039063 429.460938 1899.820313 498 1899.003906 C 528.273438 1898.644531 558.753906 1900.285156 589 1899 C 632 1897.070313 675.816406 1893.117188 719 1893 C 711.757813 1887.515625 695.863281 1891.675781 687 1890.828125 C 652.183594 1887.515625 615.984375 1888 581 1888 C 505.757813 1888 430.328125 1886.109375 355 1887.003906 C 304 1887.609375 252.90625 1890.578125 202 1891 M 1254 1892 L 1254 1893 C 1294.179688 1893 1334.835938 1897.203125 1375 1899 C 1424 1901.109375 1473.859375 1900.078125 1523 1900 C 1584.191406 1900 1645.882813 1899.636719 1707 1897 C 1731.679688 1896 1756.253906 1893 1781 1893 C 1773.921875 1887.636719 1755.882813 1890.519531 1747 1890 C 1714.609375 1887.691406 1681.480469 1888 1649 1888 C 1551.71875 1888 1453 1882.261719 1356 1889 C 1329.710938 1890.710938 1303.273438 1888.328125 1277 1890.828125 C 1269.40625 1891.554688 1261.367188 1889.820313 1254 1892 M 190 1891 L 190 1893 L 199 1893 L 199 1891 L 190 1891 "/></g></svg>