<svg xmlns="http://www.w3.org/2000/svg" xmlns:xlink="http://www.w3.org/1999/xlink" viewBox="0 0 100 100" version="1.1"><g transform="translate(1.3708245536936872, 1) scale(0.05291587834201987) translate(-76.671875, -78.644531)"><path style=" stroke:none;fill-rule:nonzero;fill:rgb(0%,0%,0%);fill-opacity:1;" d="M 215 1028 C 226.40625 1023 236.5625 1014.207031 248 1009 C 237 1030 231.542969 1052 223.585938 1074 C 220 1083.492188 212.859375 1093.375 211 1103 C 219 1097.492188 226.199219 1090.382813 235 1086 C 230.511719 1098.539063 222.988281 1110.480469 219 1123 C 230.613281 1117.503906 242 1106.347656 253 1099 C 239.835938 1129.550781 214 1153.171875 200 1183 C 211.714844 1181.421875 221.953125 1175.703125 233 1172 C 230.222656 1181.710938 224.230469 1190 220 1199 C 237.167969 1194.230469 250.507813 1173 265 1163 C 254 1182.558594 240.925781 1200.382813 231.78125 1221 C 230.1875 1224.59375 223.457031 1238.601563 227 1242 C 229 1244 234.675781 1241.519531 237 1241 C 246.707031 1238.773438 255.496094 1233.738281 265 1231 C 258.523438 1241 252 1251 244.398438 1260 C 240.320313 1264.808594 234.722656 1268.179688 232 1274 C 242.441406 1273.167969 252.515625 1269.828125 263 1269 C 257.378906 1277.507813 248.589844 1286 246 1296 C 257 1293.351563 263 1286.0625 275 1290 C 266.386719 1300.6875 257.375 1314.199219 255 1328 C 263.292969 1325.394531 270.4375 1325.234375 278 1330.246094 C 280 1331.597656 285.761719 1335.234375 283.363281 1338.261719 C 281 1341.210938 273.476563 1342.097656 270 1343 C 257.359375 1346.257813 244.636719 1349.179688 232 1352.472656 C 194.953125 1362.117188 157.210938 1377 124 1396 C 113 1402.269531 100.941406 1408 91 1415.761719 C 86.800781 1419.109375 83 1425 87.433594 1429.773438 C 91.863281 1434.789063 98 1432.410156 103 1429.546875 C 114.59375 1422.710938 125.878906 1415.171875 138 1409.257813 C 176.355469 1390.554688 215.273438 1375.09375 257 1365.652344 C 266.9375 1363.402344 276.902344 1361.386719 287 1360 C 290.4375 1359.527344 295.519531 1358 298.683594 1360.027344 C 301.871094 1362.148438 301 1367.71875 300.910156 1371 C 300.351563 1379.175781 298 1387.03125 296.394531 1395 C 295.886719 1397.394531 293.605469 1402.007813 294.707031 1404.355469 C 295.925781 1407 302 1404.507813 304 1404 C 312.960938 1401.546875 322.640625 1398.535156 332 1399 C 324 1406.800781 317.824219 1420.269531 308.90625 1426.398438 C 304 1429.738281 294.757813 1429.320313 289 1430.320313 C 277.375 1432.34375 265.191406 1435.628906 254 1439.355469 C 215.707031 1452.105469 178.953125 1470 144 1490 C 128.964844 1498.640625 114.425781 1508.042969 100 1517.667969 C 95 1521 87.382813 1525.082031 87.722656 1532 C 88.675781 1551.21875 116.226563 1528.636719 122 1525.28125 C 157 1505 191.738281 1482.511719 230 1468.148438 C 253.839844 1459.203125 278 1451.757813 302 1443.136719 C 319.929688 1436.679688 336 1428.773438 355 1424.660156 C 425.253906 1409.453125 504.324219 1414 573 1434.410156 C 602.3125 1443.136719 630.371094 1454.816406 656 1471.671875 C 665.378906 1478 676.460938 1484.742188 683 1494 C 604.511719 1452.269531 522.589844 1432 434 1432 C 403.222656 1432 365 1431.144531 336 1442.765625 C 325.820313 1447 342.507813 1450.546875 341 1452.222656 C 338.621094 1455.105469 331.488281 1456.539063 328 1458 C 317 1462 305.96875 1465.746094 295 1470 C 251.339844 1486.183594 208.695313 1510.203125 170 1536 C 160.757813 1542.160156 150.402344 1548.003906 142.1875 1555.519531 C 138.652344 1558.753906 136.382813 1564.488281 139.601563 1568.785156 C 144 1574.664063 150.636719 1572 155.574219 1568.546875 C 167.980469 1560.058594 180.28125 1551.335938 193 1543.320313 C 230.566406 1519.640625 270.65625 1499.246094 312 1483.003906 C 330.929688 1475.566406 351.488281 1471 370 1463 C 367 1472.359375 361.300781 1481.1875 357 1490 C 365.46875 1491.257813 376.730469 1486.210938 385 1484.015625 C 400.503906 1480 417 1476.769531 433 1475.171875 C 489.46875 1469.503906 544.710938 1469.511719 600 1484.117188 C 618 1489 635.601563 1495.675781 652 1504.539063 C 659.234375 1508.449219 667.359375 1512.210938 671 1520 C 539.945313 1471.0625 388.867188 1477 263 1539.371094 C 221.640625 1560 184.539063 1587.128906 149 1616.386719 C 141.847656 1622.273438 112 1641.78125 125.214844 1652.34375 C 133.976563 1659.359375 147 1643.28125 153 1638 C 176.761719 1616.375 202.855469 1596.628906 230 1579.53125 C 263.625 1558.347656 299.558594 1541.515625 337 1528.308594 C 353 1522.644531 370.871094 1515.390625 388 1514.1875 C 399.433594 1513.382813 398.324219 1528.273438 407 1527.054688 C 424 1524.667969 441 1517.789063 458 1514.285156 C 488.203125 1508.027344 517.363281 1505.8125 548 1508 C 577.910156 1510 606.558594 1518.140625 634 1530.152344 C 638.761719 1532.238281 657.945313 1540 657.945313 1546 C 657.945313 1549 653.53125 1547.585938 652 1547.144531 C 646.246094 1545.484375 640.726563 1543 635 1541.191406 C 610.167969 1533.449219 584 1525.148438 558 1524 C 535 1523 513 1521.289063 490 1524.289063 C 434.253906 1531.550781 386.644531 1557.148438 338 1583.460938 C 324.359375 1591 310.878906 1598.460938 297 1605.398438 C 288.871094 1609.464844 278 1613.15625 272 1620 C 281.566406 1620 292.226563 1619.703125 301 1624 C 283 1629.175781 262.96875 1638.433594 248 1649.476563 C 243 1653.097656 236.804688 1656.476563 234 1662 L 259 1661 C 243.289063 1674 218.914063 1681.003906 210 1701 C 216.726563 1699.804688 223.316406 1696.734375 230 1695 C 218.769531 1716.042969 195 1726.304688 190 1752 C 196.597656 1749.816406 202 1745.640625 209 1744 C 198.71875 1760.660156 182.433594 1777.050781 179 1797 C 184.972656 1795.601563 190 1791.703125 196 1790 C 188 1809 178 1827.300781 175 1848 C 183.171875 1844.128906 187.816406 1836 197 1833 C 194.710938 1837.816406 192.386719 1853.417969 187.851563 1855.398438 C 181.894531 1858 171.445313 1856 165 1856 L 111 1856 C 100.894531 1856 87 1853.277344 81.3125 1864.003906 C 76.671875 1872.726563 79.984375 1884.6875 80 1894 C 80 1901.613281 78.195313 1912 81.574219 1919 C 86 1928.375 95 1928 104 1928 L 1876 1928 C 1886.773438 1928 1902.960938 1930.640625 1909.722656 1919.824219 C 1914 1913 1912 1901.730469 1912 1894 C 1912 1885.515625 1914.652344 1871.492188 1910 1864.003906 C 1903 1852.347656 1890.191406 1855.472656 1879 1856 C 1861.734375 1856.71875 1844.28125 1856 1827 1856 C 1820.34375 1856 1810.285156 1858 1804 1855.398438 C 1797.992188 1853 1796.335938 1838.722656 1794 1833 C 1802.605469 1836.535156 1808.789063 1843.238281 1817 1847 C 1815.539063 1832.347656 1808.511719 1817 1801.703125 1804 C 1800.640625 1802 1793.460938 1792.292969 1794.746094 1790.480469 C 1796.742188 1787.660156 1809.613281 1796.003906 1812 1797 C 1809.363281 1777.523438 1793.65625 1758.125 1782 1743 C 1789 1744.394531 1795 1748.488281 1802 1750 C 1797.964844 1727.371094 1774.246094 1710.242188 1759 1695 C 1766.613281 1696.433594 1773.570313 1699 1781 1701 C 1775.332031 1684.1875 1747 1667.476563 1731 1662 L 1731 1661 C 1739.253906 1659.039063 1747.636719 1662 1756 1662 C 1753 1656 1746.507813 1652.007813 1741 1648.332031 C 1726.617188 1638.738281 1708.257813 1628 1691 1625 C 1695.933594 1620.378906 1704.570313 1621.082031 1711 1620.664063 C 1712.320313 1620.578125 1717.585938 1621.402344 1718 1619.65625 C 1718.539063 1618.023438 1714.964844 1616.546875 1713.980469 1616 C 1708.65625 1613 1703.425781 1609.617188 1698 1606.703125 C 1675.988281 1595 1654 1583 1632 1571.21875 C 1556 1531.214844 1472.929688 1510.203125 1388 1533.707031 C 1370.667969 1538.503906 1352.425781 1549.050781 1335 1552.089844 C 1331.191406 1552.761719 1329.851563 1549 1331.648438 1546.042969 C 1336.324219 1538.335938 1350 1534.117188 1358 1530.71875 C 1384.546875 1519.273438 1412.332031 1512.582031 1441 1509.828125 C 1476.25 1506.449219 1511.398438 1510.671875 1546 1518.5 C 1559.484375 1521.550781 1573.3125 1527.792969 1586.980469 1529.425781 C 1594.695313 1530.351563 1591.195313 1517 1601 1517.109375 C 1614.976563 1517.464844 1628.902344 1523.597656 1642 1527.804688 C 1676 1538.746094 1710.578125 1553.738281 1741 1572.683594 C 1773.285156 1592.792969 1804.257813 1613.605469 1834 1637.398438 C 1840.566406 1642.652344 1856 1661.550781 1865.8125 1656 C 1871.1875 1653 1870.449219 1646.113281 1866.867188 1642.09375 C 1858.566406 1632.78125 1847.75 1624.417969 1838 1616.664063 C 1798 1585 1755.945313 1557.429688 1710 1535.257813 C 1618.574219 1491.136719 1506.457031 1478.5625 1407 1496.464844 C 1376.800781 1502 1347.957031 1512.285156 1319 1522 C 1332 1503.511719 1359.304688 1495.488281 1380 1489.28125 C 1437.5 1472.027344 1494.914063 1471.371094 1554 1477.171875 C 1572.441406 1479 1591 1483 1609 1487.230469 C 1613.273438 1488.273438 1625.449219 1494.023438 1629.378906 1491.671875 C 1633.339844 1489.304688 1623.253906 1470.679688 1622 1467 C 1680.699219 1480.417969 1738.585938 1510.519531 1790 1541.199219 C 1803.566406 1549.296875 1816.976563 1558 1830 1566.808594 C 1834.503906 1570 1841 1576 1846.90625 1572.816406 C 1852.359375 1570 1852.929688 1563.492188 1848.851563 1559.289063 C 1841.1875 1551.390625 1830.261719 1545 1821 1539.054688 C 1780.972656 1513.636719 1739.730469 1491.828125 1696 1473.425781 C 1684.738281 1468.683594 1673.34375 1464.335938 1662 1459.800781 C 1659.859375 1459 1651 1456.800781 1651 1454 C 1651 1449.570313 1665.488281 1452.375 1663.539063 1447.378906 C 1661.617188 1442.453125 1644.621094 1440.796875 1640 1440 C 1615 1435.089844 1589.40625 1433 1564 1433 C 1497.480469 1433 1434.183594 1442.3125 1372 1467 C 1351.867188 1474.816406 1328.320313 1482.792969 1311 1496 L 1310 1495 C 1334.6875 1470.3125 1364.6875 1455.65625 1397 1443.574219 C 1474.695313 1414.527344 1570.449219 1408.074219 1651 1428.476563 C 1665 1432.058594 1674.171875 1440.757813 1687 1446 C 1713.808594 1456.75 1742 1464.140625 1769 1475 C 1805.597656 1489.757813 1838.898438 1509.730469 1873 1529.28125 C 1879.738281 1533.144531 1887.238281 1541 1895 1542.253906 C 1900.210938 1543.152344 1905.222656 1537.03125 1904.4375 1532.003906 C 1903.546875 1526.296875 1895.414063 1522.019531 1891 1519.226563 C 1877.402344 1510.628906 1863.726563 1502.203125 1850 1493.8125 C 1815.351563 1472.628906 1776.453125 1456.152344 1738 1443.332031 C 1727.265625 1439.753906 1716 1436.394531 1705 1434.308594 C 1699.421875 1433.265625 1689.789063 1433.660156 1685.175781 1430.398438 C 1676.992188 1424.609375 1670.648438 1410.269531 1665 1402 C 1673 1404 1681.273438 1406.199219 1689 1409.203125 C 1690.566406 1409.8125 1695.316406 1412.492188 1696.597656 1410.292969 C 1697.902344 1408.046875 1695.40625 1402.367188 1694.886719 1400 C 1693 1391.722656 1692.523438 1383.359375 1691.425781 1375 C 1691 1372.046875 1689.484375 1364.171875 1693.316406 1363 C 1704.21875 1359.242188 1723 1366.652344 1734 1368.738281 C 1775.589844 1376.6875 1819 1390.726563 1856 1411.574219 C 1868 1418.375 1880.324219 1427.171875 1893 1432.597656 C 1898 1434.78125 1903 1433.289063 1905.5 1428 C 1908.390625 1421.585938 1901.496094 1417.339844 1897 1414.332031 C 1884.558594 1406.019531 1871.292969 1398.730469 1858 1392 C 1821.566406 1373.144531 1782.984375 1360.019531 1743 1351.488281 C 1733.253906 1349.410156 1723.519531 1347.140625 1714 1344.191406 C 1711.949219 1343.554688 1706 1342.710938 1706 1339.761719 C 1706 1333.414063 1721.683594 1326.433594 1727 1326.359375 C 1729.21875 1326.324219 1734 1328.621094 1735.929688 1327 C 1737.890625 1325 1734.96875 1320 1734.199219 1318 C 1731 1310.148438 1709 1285.097656 1729 1289.390625 C 1731.484375 1290 1733.734375 1291.140625 1736 1292.246094 L 1746 1297 L 1747 1296 C 1743.5625 1290 1739.820313 1283.777344 1735.949219 1278 C 1734.976563 1276.546875 1731.40625 1273 1732.917969 1271.027344 C 1736 1267.101563 1755 1273 1760 1273 C 1750.199219 1259.085938 1738 1248.390625 1730 1233 C 1738 1235.21875 1745.855469 1238.785156 1754 1241 C 1756.410156 1241.636719 1761 1243.324219 1763.394531 1241.800781 C 1768 1238.71875 1760.726563 1224.597656 1759 1221 C 1750 1200.476563 1737.851563 1181.570313 1727 1162 C 1740 1173.015625 1756.214844 1194.335938 1773 1199 C 1768.402344 1190 1762 1182 1759 1172 C 1765.992188 1176.433594 1774.171875 1178.53125 1782 1181.027344 C 1783.402344 1181.476563 1788.5 1184.09375 1789.578125 1182.1875 C 1791.742188 1178.355469 1780.457031 1165.1875 1778.332031 1162 C 1765 1142.234375 1753 1121.785156 1740 1102 C 1753 1106 1761.945313 1117 1774 1122 C 1769.472656 1110 1762.878906 1097.492188 1757 1086 C 1765.363281 1089.484375 1771.675781 1095 1779 1100 L 1780 1099 C 1770 1081.019531 1765.425781 1062.230469 1758.621094 1043 C 1754.679688 1032 1748.253906 1021.289063 1745 1010 C 1753 1016.425781 1765.984375 1026.621094 1776 1029 C 1767.957031 1007.746094 1753.546875 989.234375 1755 965 C 1757.425781 928.375 1787.550781 898.527344 1787.996094 861 C 1788.4375 824.035156 1775.679688 786.679688 1779.171875 750 C 1785.558594 683 1804 617 1812.710938 550 C 1824.628906 458.253906 1820.1875 364 1805.324219 273 C 1796.554688 219.316406 1785 159.503906 1756.984375 112 C 1737.222656 78.644531 1700.839844 83.515625 1670 97.140625 C 1607.472656 124.761719 1558.828125 170.417969 1508 214.574219 C 1478.285156 240.390625 1452 272.050781 1426.726563 302 C 1376.675781 361 1332.507813 423.035156 1289.253906 487 C 1269.527344 516.175781 1250.339844 545.765625 1232.265625 576 C 1224 589.785156 1212 605.464844 1207.636719 621 C 1205 629.8125 1207.210938 641 1206.984375 650 C 1206.585938 666.328125 1205.191406 682.578125 1204.996094 699 C 1204.628906 730 1202.390625 761.121094 1201 792 C 1199.820313 819.816406 1200.496094 848.722656 1194 876 L 1193 876 C 1188.539063 819.503906 1191.488281 762.480469 1193.960938 706 C 1198.277344 607.441406 1205.96875 508.605469 1208 410 C 1203.953125 412.621094 1204.199219 419.453125 1203.433594 424 C 1201.246094 437.023438 1198.617188 450 1196.730469 463 C 1189 515.605469 1178.28125 569 1176 622 C 1164.660156 614.554688 1153.558594 609.675781 1145.671875 598 C 1143.964844 595.472656 1139.613281 585.207031 1136.183594 585.207031 C 1132.167969 585.207031 1129.320313 601.78125 1129 605 C 1117.308594 592.644531 1111.953125 575.1875 1103 561 C 1093.304688 569.726563 1093.980469 591 1091 603 L 1090 603 C 1086 594 1080.792969 584.472656 1075.65625 576 C 1074.234375 573.65625 1072 568.175781 1068.960938 567.632813 C 1064.609375 567 1060.347656 586.550781 1060 590 C 1052 583.195313 1047.75 570.726563 1041.996094 562 C 1040.773438 560.144531 1037.472656 553.339844 1034.46875 554.460938 C 1031.941406 555.40625 1031.371094 560.789063 1031 563 C 1030 570.492188 1029.339844 579.175781 1026 586 C 1025 583.246094 1024 580.582031 1022.679688 578 C 1021.613281 576 1020.425781 574.003906 1019.304688 572 C 1009.46875 554.414063 1004.855469 589 996 587.367188 C 988.761719 586.101563 981.605469 554.78125 973.449219 571.003906 C 972.425781 573.046875 971.246094 575 970 577 C 968.585938 580 967.257813 583 966 586 L 965 586 C 964.789063 582 963.566406 578.039063 962.859375 574 C 962.328125 571 961.515625 568.027344 960.988281 565 C 956.902344 541.484375 944 572.023438 939.578125 580 C 938.46875 582 937 585.8125 934.890625 586.792969 C 931 588.550781 929.9375 566.605469 924 567.632813 C 921 568.15625 918.960938 573.707031 917.601563 576 C 912.679688 584.324219 908.898438 595.175781 902 602 C 901.222656 596.707031 900.242188 591.238281 899 586 C 898.328125 582.339844 897.742188 578.640625 896.871094 575 C 896 572 895 562.175781 890.179688 563 C 887 563.382813 885.65625 568.703125 884.449219 571 C 880.203125 579.058594 875.839844 587.605469 870.511719 595 C 869 597 866.207031 602.785156 863.832031 603.367188 C 860 604.292969 860.523438 586.207031 855 586.207031 C 851.207031 586.207031 847.675781 597.246094 845.910156 600 C 838.804688 611.074219 827.585938 616 817 623 C 814.902344 574.160156 806.550781 523.203125 798.675781 475 C 794.898438 452 787.5 427.402344 787 404 L 785 404 C 785 427.027344 787.953125 450.019531 788.960938 473 C 792.828125 561.375 797.171875 649.636719 801 738 C 802.996094 782.71875 805.621094 830.519531 800 875 C 793.453125 854.300781 794.371094 831.359375 792.910156 810 C 789.8125 764.78125 790 719.28125 788 674 C 787.296875 657.027344 789.914063 636.429688 785.71875 620 C 782.902344 609 773.796875 599 768.308594 589 C 752.75 561.09375 734.316406 535.0625 717.425781 508 C 651.242188 402 574.546875 301.367188 485 214.015625 C 438.535156 168.6875 384.726563 123.734375 325 97.140625 C 292.667969 82.742188 256 79.132813 235 113 C 206 159.75 195.390625 221.660156 186.675781 275 C 170.191406 376 171 477.765625 183.183594 579 C 189.59375 632.375 206 684.574219 211.835938 738 C 216.394531 780 202.210938 820.21875 204 862 C 204.992188 883.726563 214.515625 905.441406 223.304688 925 C 228 935.585938 234.804688 947.25 235.894531 959 C 238.453125 986.492188 223 1003.765625 215 1028 M 756 677 C 748.3125 672.300781 742.65625 659.484375 737.667969 652 C 724.933594 633 711.90625 614 698.972656 595 C 646 517.410156 607.886719 430.664063 549.191406 357 C 496.328125 290.652344 434.667969 231 370 176.273438 C 351.308594 160.472656 330.867188 146.769531 310 134.0625 C 302.371094 129.414063 287.882813 125.453125 283 118 C 347 118 404.46875 172.816406 448.828125 213.675781 C 503.425781 264 555.457031 319.453125 597.253906 381 C 627.457031 425.46875 649.828125 474.726563 677 521 C 705.585938 569.640625 746.285156 620 756 677 M 1710 119 L 1710 120 C 1640 156.542969 1582.828125 207.78125 1527.984375 264 C 1478.414063 314.816406 1430.3125 368 1393.449219 429 C 1356.230469 490.660156 1323 553.550781 1282 613 C 1271.328125 628.519531 1261.671875 645 1250.476563 660 C 1246.363281 665.566406 1243.28125 672.507813 1238 677 C 1239.292969 664.097656 1246 650 1250.800781 638 C 1266 600 1289.378906 567.234375 1309.714844 532 C 1343 474.269531 1372.578125 414.117188 1411.746094 360 C 1451.226563 305.453125 1498.488281 257.269531 1547 211 C 1580.242188 179.226563 1617.761719 149 1660 130.140625 C 1674.269531 123.785156 1694 114.28125 1710 119 M 564 440 C 546.585938 427.734375 532.886719 408.535156 517 394.171875 C 473.359375 354.703125 425.792969 319.039063 374 291 C 353.902344 280.121094 329 265.816406 306 263 C 311.914063 260.523438 319 263.566406 325 264.691406 C 343.570313 268.179688 361.734375 274.507813 379 282.140625 C 433.9375 306.429688 479.605469 346.382813 521 389 C 534.871094 403.085938 556.675781 421.507813 564 440 M 1684 263 L 1684 265 C 1661.863281 267.207031 1637.25 282.28125 1618 292.691406 C 1565.773438 321 1519.949219 356.472656 1476 396.171875 C 1465 406.023438 1454 416.085938 1444.171875 427 C 1437.792969 434.046875 1430.613281 444.792969 1422 449 C 1433.421875 428.125 1453 409.65625 1468.835938 392 C 1510.714844 345.152344 1563.363281 303.253906 1622 279.800781 C 1641 272.179688 1663.21875 263.429688 1684 263 M 789 905 L 787 905 C 784.601563 891.542969 774.785156 878.554688 769.425781 866 C 755.683594 833.796875 741 802 726.859375 770 C 671.238281 645.195313 598.515625 519.28125 484 440 C 433.371094 405 375.929688 376 313 376 C 326 369 348.433594 369 363 369 C 421.339844 369 471 395.828125 514 434 C 614.636719 523.25 683.695313 641 739.308594 762 C 753.972656 794 768.542969 826.34375 778.882813 860 C 783.253906 874.222656 788.960938 890.015625 789 905 M 1682 375 L 1682 376 C 1613.625 376.523438 1546.925781 409.691406 1494 451 C 1398.765625 525.289063 1336.613281 626.242188 1283.4375 733 C 1262.695313 774.636719 1245.421875 818 1225.835938 860 C 1220.894531 870.636719 1216 881.355469 1211.222656 892 C 1209 896.554688 1207.460938 902.425781 1203 905 C 1205.175781 883.132813 1214 860.601563 1221.308594 840 C 1236.726563 796.4375 1256.578125 754.003906 1277.742188 713 C 1324.617188 622.179688 1376.957031 536.253906 1448.960938 463.011719 C 1483.84375 427.527344 1523.570313 393.074219 1572 378.027344 C 1593 371.453125 1615.804688 367.570313 1638 369.089844 C 1652.730469 370.097656 1667.3125 374.367188 1682 375 M 547 521 C 536.609375 517.449219 526.980469 510.496094 517 505.78125 C 502 498.757813 486.636719 493.515625 471 488.503906 C 426.808594 474.34375 379.507813 464.101563 333 463.054688 C 319 462.738281 304.984375 466 291 466 C 307.195313 455.296875 334.972656 451 354 448.832031 C 415 442 467.304688 456.757813 516 495.195313 C 526 503.207031 539 510.679688 547 521 M 1703 465 L 1703 466 C 1678.980469 466 1656 462.757813 1632 465.171875 C 1582.300781 470.140625 1531 483.089844 1485 502.425781 C 1471.476563 508.097656 1459 515.777344 1446 522 C 1448.992188 515.636719 1455.585938 511.605469 1461 507.339844 C 1471.492188 499.070313 1481.855469 491.0625 1493 483.667969 C 1513.617188 470 1535.835938 458 1560 451.746094 C 1608 439.597656 1656.902344 449.402344 1703 465 M 589 590 C 569.863281 583.421875 552.371094 571.269531 533 564.503906 C 476.585938 544.804688 410.875 533 351 537.089844 C 326.980469 538.734375 302.394531 542.652344 279 548.476563 C 269.207031 551 259.808594 556.25 250 558 C 261.199219 545 282.699219 534.355469 298 526.511719 C 330.394531 510 368.242188 498.585938 405 501.089844 C 446 504 485.277344 520 521 539.730469 C 539.78125 550.164063 557.914063 561.546875 574 575.832031 C 579 580.292969 585.917969 584 589 590 M 1744 558 C 1709.242188 548.0625 1676.328125 539.589844 1640 537.089844 C 1587.246094 533.457031 1529.480469 543.660156 1479 558.425781 C 1452.945313 566.046875 1430 579.691406 1405 589 C 1409 582.152344 1416.847656 577 1423 572 C 1437.875 560.035156 1453.371094 550.414063 1470 541.140625 C 1498.578125 525.199219 1530.621094 510.304688 1563 504.261719 C 1609.292969 495.621094 1659.265625 505.613281 1700 528.574219 C 1713.925781 536.425781 1734 545.199219 1744 558 M 558 604 L 558 605 C 529 598.292969 499.96875 592.179688 470 592.179688 C 428.765625 592.179688 385.710938 600.621094 346 611.28125 C 324.324219 617.101563 302.28125 622.359375 281 629.515625 C 270 633.191406 259.367188 640.042969 248 642 C 260.308594 620.703125 286.996094 604.398438 308 592.730469 C 384.335938 550.320313 484.269531 557.46875 558 604 M 1748 643 C 1676.726563 617.066406 1602.917969 593 1526 593 C 1496 593 1468.378906 600.4375 1439 603 C 1453.226563 590.761719 1476.40625 583.808594 1494 578 C 1558 556.828125 1625.171875 559.773438 1685 591.449219 C 1705.492188 602.300781 1738.425781 620.707031 1748 643 M 593 657 L 593 658 C 583.800781 657.082031 575 652.445313 566 650.511719 C 549 647 531.230469 645.59375 514 646.015625 C 475 647 437 657.050781 399 663.679688 C 365.765625 669.453125 332 673 299 680.015625 C 286.214844 682.785156 273.65625 688.742188 261 691 C 275.1875 672.503906 303.746094 661.289063 324 651 C 390.753906 616.628906 461.984375 607.125 534 629.566406 C 554.558594 636 574 647.042969 593 657 M 1733 691 C 1721.519531 689.015625 1710.539063 683.160156 1699 680.660156 C 1657.265625 671.625 1614.824219 667.628906 1573 659.625 C 1536.964844 652.730469 1499.980469 644.421875 1463 646.039063 C 1441.925781 647 1423.265625 653.78125 1403 658 C 1406.277344 652.324219 1416.273438 648.652344 1422 645.757813 C 1440 636.65625 1458.433594 629.46875 1478 624.546875 C 1547.394531 607.089844 1616.648438 621 1679 655 C 1696 664.25 1720.75 675.558594 1733 691 M 247 643 L 246 644 L 247 643 M 777 953 L 776 953 C 696.683594 835.429688 576.230469 725.460938 426 732.039063 C 384.613281 734 342.535156 741.589844 303 754.195313 C 287.261719 759.210938 271.835938 769.378906 256 773 C 274.644531 746.605469 313.933594 729.824219 343 718.199219 C 481.410156 663 633 735.386719 717.472656 848 C 733.738281 869.6875 748 892.371094 761.285156 916 C 767.296875 926.71875 775.757813 940.621094 777 953 M 1737 773 C 1696.542969 756.152344 1656.601563 742.582031 1613 736.300781 C 1565.8125 729.5 1517.253906 730.277344 1471 742.582031 C 1363.738281 771.125 1278 864.015625 1218 953 C 1215 944.398438 1227 927 1230.78125 919 C 1246.917969 885 1270 852.351563 1294.71875 824 C 1379.726563 726.257813 1519.324219 668.765625 1646 716.574219 C 1670.429688 725.796875 1692.582031 738.144531 1714 753 C 1721.691406 758.300781 1732.804688 764.390625 1737 773 M 773 981 C 756.613281 971.617188 741 953 727 940.167969 C 701.953125 917.636719 675.316406 896.449219 648 876.746094 C 596.378906 839.507813 531.261719 810.617188 468 801.300781 C 437 796.75 407 797 376 797 C 381.476563 792.828125 392.222656 793.03125 399 792 C 423 788 446.8125 789.242188 471 791 C 532.761719 795.164063 592.390625 824 644 856.46875 C 670 873 696 891.21875 718 913 C 731 926 743.347656 939 755.273438 953 C 761.722656 960.640625 770.679688 971.125 773 981 M 1619 796 L 1619 797 C 1599 797 1577.765625 794.820313 1558 797.183594 C 1480.183594 806.496094 1404.9375 832.550781 1341 878.746094 C 1314 898.164063 1288.25 919.503906 1264 942.089844 C 1250.988281 954.210938 1236 974.507813 1220 982 C 1222.964844 972.710938 1230.582031 964 1236.253906 956 C 1253.886719 931.597656 1276.546875 910 1300 891 C 1365.425781 838.449219 1441.554688 799.003906 1526 790.828125 C 1555.714844 788 1590 787.367188 1619 796 M 1623 797.332031 C 1623.773438 797.332031 1623 797.832031 1622.667969 797.667969 L 1623 797.332031 M 851 828 C 852 837.691406 850.25 847.332031 850 857 C 849.539063 876.394531 849.527344 895.671875 848 915 L 849 915 C 853.972656 901.664063 855.398438 887 858.339844 873 C 859.554688 867.269531 859.652344 860 863 855 C 865.585938 863.742188 863.636719 874.820313 864 884 C 864.769531 900.664063 866.285156 917.332031 867 934 L 868 934 C 870.253906 925.308594 871.234375 913.585938 876 906 C 879.847656 919.011719 876 935.054688 873.449219 948 C 868.699219 971.742188 861.820313 997.585938 865.300781 1022 C 869.507813 1051.523438 891.261719 1074.558594 901.574219 1102 C 915.359375 1138.671875 915 1174.769531 913.984375 1213 C 913.246094 1238 901.941406 1266.195313 888.933594 1287 C 885.945313 1291.78125 876.523438 1307.269531 869.214844 1304 C 862.550781 1300.761719 861 1284.324219 861 1278 C 860.597656 1254.351563 857.183594 1229.089844 852 1206 C 836.773438 1136.136719 801 1067 728 1045 C 667.855469 1026.773438 625.691406 1068.496094 575 1091.621094 C 552.179688 1102.03125 527.820313 1106 503 1104 C 506.304688 1098.589844 513.808594 1095.191406 519 1091.65625 C 531.800781 1083 544.636719 1074.800781 558 1067 C 538.296875 1062.308594 519.859375 1073.175781 501 1076 L 501 1075 C 528.269531 1059 561.636719 1052 593 1052 L 593 1051 C 571.578125 1045.316406 550.890625 1047 529 1047 L 529 1045 C 542.421875 1043.664063 555.558594 1039.035156 569 1037.289063 C 582.597656 1035.523438 596.351563 1037 610 1037 L 610 1036 C 593.414063 1030.605469 576.480469 1027 559 1027 L 559 1026 C 587.96875 1015.4375 628 1017.367188 658 1023 L 658 1022 C 635.363281 1012.054688 613.527344 1006.101563 589 1003 L 589 1002 C 610.667969 994 644.765625 1001.3125 666 1008 C 654 992.574219 622.554688 985.476563 604 984 L 604 983 C 613.898438 980.644531 624 982.480469 634 983.714844 C 654.933594 986.320313 676.972656 991.523438 695 1003 C 683.230469 986.636719 660 977.402344 642 970 L 642 969 C 671 969.605469 701.46875 986.5 725 1002 C 716.933594 990.546875 704.429688 980.21875 693 972.203125 C 687.320313 968.222656 677.773438 964.761719 674 959 C 693 962.246094 708.648438 973.6875 725 983 C 699.390625 953.6875 665.488281 936.636719 631 920 C 575 892.730469 514.535156 872.546875 452 871.015625 C 423.75 870.324219 396.804688 875.410156 369 879 C 373.523438 873.542969 386.300781 872.054688 393 870.152344 C 417.445313 863.214844 443.695313 859.175781 469 861 C 562.554688 867.316406 652.703125 907.246094 726 965.664063 C 749.328125 984.257813 770.265625 1006 790.167969 1028 C 793.8125 1032.050781 806.359375 1050.171875 812.683594 1047.695313 C 816.722656 1046.109375 814 1037.191406 814 1034 C 813.832031 1019.613281 814.796875 1005.304688 816.171875 991 C 819.785156 953.304688 831 916 839.347656 879 C 842.894531 863.328125 843.425781 842.144531 851 828 M 1144 828 C 1150.9375 883 1174.273438 936.699219 1176.960938 992 C 1177.644531 1006.054688 1179 1020 1179 1034 C 1178.996094 1037 1177 1046.15625 1180.566406 1047.695313 C 1183.445313 1049 1187.238281 1044.660156 1188.984375 1043 C 1196.371094 1035.773438 1203 1027.632813 1209.925781 1020 C 1237.257813 990 1267.746094 962 1302 940 C 1367.332031 897.660156 1450.417969 859.015625 1530 860.019531 C 1564.34375 860.449219 1594.691406 871.355469 1628 877 L 1628 879 C 1598.914063 878.378906 1570.65625 869.742188 1541 871.039063 C 1477.9375 873.800781 1419.191406 893.648438 1362 919.140625 C 1328.632813 934.011719 1286.722656 954.675781 1266 986 C 1282.328125 977 1298.339844 963 1318 962 L 1318 963 C 1300.265625 971.695313 1279.695313 986 1268 1002 C 1293.691406 990.566406 1318.382813 971.019531 1348 971 L 1348 972 C 1328.789063 980 1309 990.554688 1294 1005 C 1325.628906 990.628906 1355 983 1390 983 L 1390 984 C 1371.28125 986.753906 1338 994.375 1326 1010 C 1353 1002.574219 1378.914063 1000.792969 1407 1002 L 1407 1003 C 1383.605469 1008.570313 1361.769531 1013.214844 1339 1022 L 1339 1023 C 1369 1021.707031 1405 1013.523438 1434 1026 L 1434 1027 C 1418 1028 1402.566406 1034.203125 1387 1035 L 1387 1037 C 1397.804688 1037 1409.28125 1036 1420 1037.289063 C 1435 1039.257813 1450.800781 1044.644531 1466 1045 L 1466 1047 C 1445.238281 1047 1424.617188 1048.828125 1404 1049 L 1404 1051 C 1432.199219 1051.078125 1469 1059.769531 1493 1075 L 1493 1076 C 1473.621094 1070.820313 1456.269531 1065.398438 1436 1067 L 1436 1068 C 1454.617188 1075.753906 1475.523438 1090.160156 1491 1103 C 1448.289063 1116 1405.476563 1084.433594 1371 1064.425781 C 1335.792969 1044 1300.714844 1034.730469 1261 1047 C 1191.472656 1068.160156 1154.886719 1141.347656 1141.449219 1208 C 1136.675781 1231.675781 1134.730469 1255.113281 1132 1279 C 1131.292969 1285.730469 1131.464844 1300.121094 1124.480469 1304 C 1116.972656 1308 1106 1289.816406 1103 1285 C 1088 1260.65625 1081.726563 1232 1078.285156 1204 C 1073.835938 1167.765625 1081.417969 1126.140625 1096 1093 C 1107 1068.070313 1124.265625 1047.578125 1128.5625 1020 C 1134.773438 980.125 1108.6875 940.382813 1116 901 L 1117 901 C 1118.695313 911 1123 920.335938 1126 930 L 1127 930 C 1127 902.589844 1129 875.449219 1129 848 L 1130 848 C 1136.414063 869.097656 1138 891.679688 1144 913 L 1145 913 C 1145 895.09375 1145.8125 875.769531 1143.714844 858 C 1142.746094 849.796875 1139.652344 835.257813 1144 828 M 1633 879 L 1633 880 L 1630 880 C 1631.246094 879.316406 1631.550781 879.25 1633 879 M 1127 930 L 1128 931 L 1127 930 M 673 959 C 671.6875 958.230469 671.769531 958.3125 671 957 C 672.636719 957.546875 672.453125 957.363281 673 959 M 738 1094.324219 C 776.65625 1088.019531 792 1154 751 1159.789063 C 739.296875 1161.476563 726.691406 1158.785156 718.464844 1149.824219 C 700.457031 1130.214844 712.222656 1098.527344 738 1094.324219 M 1295 1094.324219 C 1335.742188 1087.523438 1351.183594 1152.328125 1309 1159.671875 C 1265.433594 1167.253906 1250.40625 1101.773438 1295 1094.324219 M 1197 1174 C 1198 1225.085938 1255.3125 1263.832031 1303 1253.488281 C 1333.832031 1246.800781 1358 1222.121094 1366.570313 1192 C 1374.878906 1162.558594 1365.292969 1136.296875 1353 1110 C 1362.664063 1113.285156 1370.71875 1125.636719 1375.933594 1134 C 1394.335938 1163.507813 1395.535156 1198.214844 1379.484375 1229 C 1353 1279.769531 1290.355469 1295 1240 1274 C 1211.496094 1262.125 1180.222656 1230.472656 1187 1197 C 1188.386719 1190.171875 1190.824219 1178 1197 1174 M 639 1111 C 636.449219 1122 629.242188 1131.789063 626.378906 1143 C 619 1171.484375 625.652344 1203.800781 645.183594 1226 C 687.613281 1274.214844 761.234375 1258.058594 789.242188 1203 C 794.390625 1193 798.902344 1182.546875 799 1171 C 805.722656 1175.097656 807.230469 1188.726563 808.269531 1196 C 812.914063 1228.511719 783.847656 1259.007813 757 1272.398438 C 714.324219 1293.683594 659 1284.183594 627.183594 1248 C 593.828125 1210.15625 592.390625 1140.660156 639 1111 M 744 1383 C 747.691406 1368.609375 752 1358.300781 735 1350.132813 C 723.570313 1344.652344 709.359375 1345.152344 697 1343.824219 C 682.828125 1342.304688 667.179688 1339.148438 654 1333.570313 C 613 1316.28125 582 1283.261719 540 1269 L 540 1268 C 548 1268 555 1268.667969 563 1270 C 554 1257.46875 539.914063 1251.828125 526 1247 C 533.675781 1242.371094 542.757813 1244.402344 551 1246 C 539.980469 1230.488281 520.222656 1230.085938 504 1224 L 504 1223 C 517.609375 1221.34375 530 1217 544 1217 C 535 1208 518 1206 506 1205 L 506 1204 C 514.667969 1200.164063 523.613281 1199 533 1199 C 535.480469 1199.011719 543.351563 1201.296875 545 1199.789063 C 547.789063 1197.535156 541.324219 1191.367188 539.980469 1190.015625 C 532.839844 1182.816406 524.171875 1179 514 1180 C 520.238281 1168 544 1165.207031 556 1162.5 C 559.3125 1161.75 568 1158.234375 570.972656 1161.027344 C 573.308594 1163.339844 572.320313 1171.777344 572.714844 1175 C 574.265625 1187.625 575.738281 1199.8125 579.671875 1212 C 591.773438 1249.496094 619.332031 1280.097656 655 1297 C 689 1313 729.558594 1310.574219 764 1297.386719 C 777.183594 1292.339844 801.773438 1280.71875 812.394531 1297.039063 C 816.910156 1304 806.316406 1318 802.851563 1324 C 789.980469 1346.503906 770.367188 1375.402344 744 1383 M 1477 1178 L 1477 1179 C 1462.265625 1182.125 1451 1186.203125 1444 1201 C 1459.269531 1198.753906 1472.21875 1198.421875 1487 1204 L 1487 1205 C 1472.4375 1205 1461.253906 1209.488281 1448 1215 L 1448 1216 C 1460.714844 1219.027344 1476.984375 1222.40625 1490 1223 L 1490 1225 C 1474.945313 1225.648438 1447.792969 1231.542969 1440 1246 C 1447.746094 1244.230469 1457.921875 1242.15625 1465 1247 C 1450.632813 1253.6875 1438.566406 1259.671875 1427 1271 C 1434.96875 1270 1441.820313 1268 1450 1268 L 1450 1269 C 1412.519531 1285.695313 1382.980469 1316.011719 1345 1331.710938 C 1330.890625 1337.546875 1315.175781 1342 1300 1343.816406 C 1285.945313 1345.503906 1268.855469 1344.625 1256 1351.441406 C 1241.773438 1359 1246.207031 1371.429688 1251 1383 C 1223.308594 1378.0625 1203.617188 1346.242188 1190.851563 1324 C 1187.242188 1317.71875 1176 1303.660156 1181.601563 1296.324219 C 1193.90625 1280.070313 1219.761719 1293.761719 1234 1298.507813 C 1267.976563 1309.832031 1305.796875 1312.804688 1339 1296.742188 C 1373.238281 1280.175781 1400.527344 1251.351563 1412.644531 1215 C 1416.429688 1203.648438 1419.691406 1191.015625 1419.984375 1179 C 1420 1174.679688 1418 1165 1421.742188 1161.695313 C 1424.710938 1159.050781 1432.65625 1162.699219 1436 1163.523438 C 1450.386719 1167.074219 1464 1170.441406 1477 1178 M 1007 1226 C 1010.628906 1238.28125 1009 1249.160156 1018 1260 C 1018 1251.667969 1018.4375 1242.261719 1023 1235 C 1029.691406 1256.117188 1047.421875 1271.445313 1056.6875 1292 C 1070.425781 1322.472656 1073.90625 1355.75 1080.882813 1388 C 1083.800781 1401.472656 1098 1428.105469 1091.3125 1441 C 1085.386719 1452.121094 1061 1437.476563 1051 1435.753906 C 1015.300781 1429.632813 974.421875 1429.078125 939 1437.121094 C 929.367188 1439.308594 908.34375 1453.089844 903 1440 C 898.226563 1428.265625 909 1409.601563 911.765625 1398 C 920.84375 1359.453125 924.746094 1322.398438 944.3125 1287 C 952.273438 1272.601563 970.804688 1260.574219 971 1243 C 977.476563 1246.683594 977.945313 1256.226563 978 1263 C 985.609375 1255.128906 984.855469 1240.003906 983 1230 C 993.367188 1238.59375 991.632813 1252.039063 997 1263 C 999.90625 1251.203125 999.484375 1236.035156 1007 1226 M 848 1663 C 850.507813 1654.769531 861.492188 1647.511719 869 1644 L 869 1643 C 851.859375 1646 837.183594 1660 820 1662 C 821 1659.058594 828 1652.242188 827.382813 1649.5625 C 826.828125 1647.484375 822.535156 1648.027344 821 1648 C 814 1647.390625 807.878906 1648 801 1648 C 802.324219 1646.195313 808.824219 1641.207031 808 1639 C 807.546875 1637.28125 802 1639.1875 801 1639.425781 C 793.945313 1641 786.203125 1642.671875 779 1643 C 781.40625 1637.746094 785.753906 1633.75 789 1629 C 774.765625 1628.390625 760.234375 1628.199219 746 1630 C 750.632813 1621.609375 764.597656 1618.503906 772 1612.53125 C 782 1604.433594 781.421875 1602 769 1602 L 761 1602 C 762 1600.347656 766.804688 1597.292969 766.367188 1595.382813 C 765.636719 1592.179688 759 1593.289063 757 1593.578125 C 747 1595 737.75 1598.34375 728 1600 C 729.566406 1591 735.976563 1586.132813 741 1579 C 731.996094 1580.136719 722.941406 1581 714 1582.464844 C 712.476563 1582.734375 706.480469 1585.003906 705.917969 1582.382813 C 704.550781 1576.015625 719.492188 1564.644531 723 1560 C 711.84375 1560 703.582031 1562.710938 693 1565 C 698.191406 1551.210938 709.816406 1549 718 1539 C 705 1539 694.449219 1543 682 1545 C 689.929688 1528 711.898438 1522 729 1522 C 718.292969 1511.273438 699.550781 1513.71875 686 1514 C 695.4375 1500.257813 719.847656 1498.832031 734 1504 C 727.953125 1497.453125 718.90625 1495.40625 711 1492 L 711 1491 C 725.652344 1484.695313 741.484375 1484.777344 757 1486 C 749.933594 1480.191406 739 1478.453125 733 1472 C 745.433594 1472.535156 756.882813 1477 769 1479 C 767.402344 1476.695313 766 1474.582031 765 1472 C 768.453125 1472.011719 771.632813 1472.199219 775 1473 C 772.976563 1468.789063 757.765625 1463.660156 757.921875 1462.6875 C 759 1455 776.835938 1450 783 1447.398438 C 806 1438.140625 844 1417.285156 868.996094 1429.402344 C 883.386719 1436.40625 875.683594 1448.496094 877.183594 1461 C 878.511719 1472.066406 884.953125 1482.785156 892.183594 1491 C 900.792969 1500.777344 912.175781 1507.535156 921.574219 1516.464844 C 934.625 1529 945.777344 1542.773438 957.921875 1556 C 964 1562.710938 977.429688 1570.425781 980.382813 1579 C 985 1592.765625 967 1614.394531 958 1622.269531 C 925.328125 1650.371094 889.414063 1658.765625 848 1663 M 1219 1478 C 1231.332031 1476.441406 1243.527344 1473.007813 1256 1473 L 1256 1474 C 1248.710938 1477.035156 1241 1481 1235 1486 C 1250.433594 1484.050781 1267 1486.675781 1281 1494 L 1281 1495 C 1272.367188 1495.070313 1262.835938 1497.191406 1257 1504 C 1271.738281 1503.367188 1291.644531 1500.582031 1301 1516 C 1288.835938 1516 1271 1514.070313 1262 1524 C 1281.742188 1524 1294.90625 1532.199219 1310 1544 L 1310 1545 C 1301.515625 1543.539063 1293.8125 1540.226563 1285 1540.015625 C 1283.847656 1540 1275.960938 1539.394531 1276.632813 1541.820313 C 1277.242188 1544.027344 1283.226563 1546 1285 1547.234375 C 1290.691406 1551.570313 1297 1557 1299 1564 C 1292.230469 1562.152344 1285.984375 1560.511719 1279 1559.574219 C 1277.472656 1559.371094 1272.195313 1558.101563 1271.632813 1560.515625 C 1271 1562.773438 1275.667969 1565.742188 1276.996094 1567.039063 C 1282 1572.078125 1287.386719 1577.746094 1291 1584 C 1278 1581.804688 1265.214844 1579.566406 1252 1579 C 1257.65625 1586.023438 1261.773438 1592 1266 1600 C 1256.878906 1600.535156 1246.179688 1595.121094 1237 1593.585938 C 1227.714844 1592.03125 1226.597656 1595.746094 1234 1601 C 1229.957031 1602.195313 1214.167969 1600.105469 1212.207031 1604.199219 C 1210.949219 1606.820313 1217.363281 1611.023438 1219 1612.238281 C 1226.800781 1618.035156 1240.980469 1621.535156 1246 1630 C 1231.324219 1629.371094 1216.738281 1629 1202 1629 C 1205.714844 1634.273438 1211.253906 1638.109375 1214 1644 C 1205.878906 1643.359375 1197.925781 1642.175781 1190 1640.257813 C 1188.851563 1640 1183.324219 1638 1182.78125 1640 C 1182 1642.191406 1187.902344 1646.832031 1189 1649 C 1185.535156 1649 1167 1645.261719 1166.300781 1649.761719 C 1165.605469 1653.609375 1171.386719 1659.59375 1173 1663 C 1157 1658.390625 1143.316406 1645.820313 1127 1643 C 1133.320313 1650 1142.167969 1654 1146 1663 C 1135.40625 1661.03125 1124.660156 1662.386719 1114 1660.390625 C 1086 1655.144531 1058.367188 1642 1036 1624.332031 C 1025 1615.777344 1008.285156 1594.4375 1012.433594 1579 C 1014.882813 1570 1029.609375 1562 1035.925781 1555 C 1047.402344 1542.40625 1057.660156 1529 1070 1517.039063 C 1080.277344 1507.214844 1092.1875 1499.457031 1101.910156 1489 C 1109.597656 1480.734375 1116 1470.371094 1117.699219 1459 C 1119.363281 1447.316406 1112.285156 1437 1126 1430.136719 C 1151.402344 1417.644531 1185.671875 1436.625 1209 1446.578125 C 1216 1449.59375 1231.664063 1454.007813 1234.503906 1462.140625 C 1235.59375 1465.261719 1223 1466.527344 1220.90625 1469 C 1218.796875 1471.179688 1219.628906 1475.140625 1219 1478 M 1078 1469 C 1069.738281 1465.507813 1063 1459.144531 1054 1457.375 C 1035.5 1453.800781 1016.507813 1460.414063 998 1461 C 978.980469 1461.339844 960.261719 1454.5 941 1457.210938 C 931.492188 1458.546875 924.761719 1465.207031 916 1468 C 920.542969 1456.28125 935.539063 1450.472656 947 1448 C 976.308594 1441.675781 1014.445313 1442 1044 1447.085938 C 1056.71875 1449.316406 1074.195313 1455.03125 1078 1469 M 796 1471.742188 C 785.824219 1475.792969 792.804688 1492.070313 802.996094 1488.253906 C 815.335938 1483.632813 808 1467 796 1471.742188 M 1189 1471.652344 C 1177.363281 1475.488281 1185.449219 1492.046875 1195.996094 1488.242188 C 1208.449219 1483.753906 1200.6875 1467.828125 1189 1471.652344 M 761 1506.757813 C 748.839844 1511.070313 754.816406 1530.242188 766.960938 1525.140625 C 778.199219 1520.417969 772.390625 1502.71875 761 1506.757813 M 1225 1507.558594 C 1213 1510.65625 1218.273438 1528.492188 1229.996094 1525.679688 C 1242.496094 1522.679688 1237.8125 1504.210938 1225 1507.558594 M 805 1523.027344 C 796.800781 1527.503906 803.539063 1539.597656 811.894531 1535.414063 C 820.894531 1531 813.472656 1518.46875 805 1523.027344 M 1182.1875 1522.785156 C 1174.511719 1525.691406 1178.503906 1538.761719 1186.980469 1536 C 1195.917969 1533 1190.703125 1519.5625 1182.1875 1522.785156 M 852 1533 C 840 1538.414063 849.941406 1555.816406 860.957031 1550 C 872.304688 1544 863.351563 1527.761719 852 1533 M 1132 1532.742188 C 1120.613281 1537.332031 1128.476563 1554.773438 1139.984375 1550.257813 C 1152 1545.539063 1143.660156 1528.078125 1132 1532.742188 M 361 1535.519531 C 338 1540.367188 314.320313 1555 294 1566.140625 C 244.683594 1593.476563 198.902344 1628.109375 159 1668 C 142.203125 1684.789063 125.199219 1701.65625 110 1720 C 105.691406 1725.328125 97 1740 110 1741.753906 C 117.714844 1743 123.738281 1733 128.167969 1728 C 142.390625 1712.207031 156.6875 1696 172.574219 1681.746094 C 210.179688 1648.261719 247 1614.585938 291 1589.285156 C 308.445313 1579.242188 325.773438 1569 344 1560.296875 C 351.910156 1556.5625 365.988281 1552.8125 371.394531 1545.671875 C 376.851563 1538.464844 366.777344 1534.296875 361 1535.519531 M 1624 1537.03125 C 1617.378906 1540.730469 1621 1547.21875 1626 1550.121094 C 1638.824219 1557.753906 1652.859375 1563.664063 1666 1570.769531 C 1725.214844 1602.78125 1778.878906 1643 1827 1690 C 1841 1703.6875 1854.398438 1718 1868 1732 C 1872 1736.132813 1878.25 1745.421875 1884.957031 1741.242188 C 1894 1735.5625 1888.199219 1727 1882.925781 1721 C 1869.828125 1706.457031 1857 1691.699219 1843 1678.015625 C 1795.613281 1631.789063 1741.777344 1590.011719 1683 1559.253906 C 1669.394531 1552.136719 1655.273438 1545.335938 1641 1539.648438 C 1636.5 1538 1628.820313 1534.441406 1624 1537.03125 M 756 1559.65625 C 744 1563.277344 751 1580.09375 762.996094 1576.347656 C 775.785156 1572.300781 767 1556.28125 756 1559.65625 M 1225 1561.027344 C 1213.59375 1567.132813 1224 1582.503906 1234.984375 1576.683594 C 1247 1570.269531 1235.675781 1555.363281 1225 1561.027344 M 804 1565.027344 C 795.996094 1569.546875 803 1581 810.890625 1576.679688 C 819.175781 1572.269531 812 1560.574219 804 1565.027344 M 1182 1564.828125 C 1173.210938 1566.683594 1176.414063 1579.589844 1184.984375 1577.546875 C 1193.84375 1575.4375 1190.910156 1563 1182 1564.828125 M 562 1574 C 568.367188 1577 572.535156 1582.726563 575.445313 1589 C 576.269531 1590.777344 577.535156 1598 579.597656 1598.367188 C 585 1599.5 590.414063 1585.464844 596.835938 1585 C 602.996094 1584.324219 595.570313 1597.652344 599.414063 1598 C 601.726563 1598.183594 605 1594.234375 607 1593.070313 C 612 1590 618.933594 1586.828125 625 1587 C 622.898438 1591 612.832031 1611 623.214844 1612.050781 C 627.867188 1612.59375 647.867188 1595.777344 642.195313 1611 C 641.550781 1612.695313 640.777344 1614.339844 640 1616 C 649.417969 1612.789063 660.914063 1608.027344 671 1611 L 671 1612 C 662.882813 1617 655 1622.566406 648 1629 C 668.527344 1627.378906 706.414063 1623.578125 719 1645 C 711.953125 1644.679688 705 1642.371094 698 1642.105469 C 696.75 1642.058594 692 1642 692 1644.015625 C 692 1646.234375 703 1650.289063 705 1651.375 C 717.472656 1658.292969 728.894531 1668 738.253906 1678.714844 C 768 1713 783.96875 1759.792969 774.910156 1805 C 770.636719 1826.320313 751.566406 1853.691406 727 1853 C 732 1845.800781 737.691406 1840.539063 740.761719 1832 C 750.167969 1805.820313 736.457031 1777 720.769531 1756 C 714 1747.113281 705.964844 1735.695313 695 1732 C 697.390625 1740.734375 701 1749 702.679688 1758 C 709.191406 1795.40625 702.167969 1859 652 1860 C 657.863281 1846.128906 665.785156 1836.703125 667.714844 1821 C 670.710938 1796.589844 656 1769.574219 643.167969 1750 C 638.671875 1743.160156 634.359375 1735.253906 628 1730 C 629.351563 1735.425781 631.285156 1740.390625 632 1746 C 629.296875 1744.613281 627.265625 1743.035156 625 1741 C 625 1779.515625 636.265625 1828.363281 593 1850.191406 C 586.5625 1853.4375 579 1856.488281 572 1857.832031 C 560.246094 1860.054688 547.996094 1861.753906 536 1862 C 539.464844 1851.550781 547.179688 1843 550.253906 1832 C 557.617188 1805.738281 553 1773.101563 543.386719 1748 C 540.339844 1740.035156 537 1730.082031 531 1724 C 531 1727.132813 535.496094 1740.816406 532.566406 1742.652344 C 530.925781 1743.683594 528 1739 527.386719 1738 C 523.1875 1732.695313 518.777344 1727.78125 514 1723 C 512 1762.386719 531.636719 1815.457031 491 1843.253906 C 483.972656 1848.058594 477 1851.515625 469 1854.164063 C 458.457031 1857.632813 448 1858.445313 437 1859 C 440.527344 1850.488281 444.957031 1843.285156 446.691406 1834 C 454.203125 1793.746094 437.722656 1733 398 1714 C 406.796875 1726.636719 420.589844 1738 423 1754 C 406.851563 1743.328125 393.652344 1735 375 1729 C 393.945313 1756 404.90625 1782.308594 400.425781 1816 C 399.761719 1821 398.4375 1842 391.890625 1843.078125 C 388.386719 1843.667969 384 1836.644531 382 1834.425781 C 375.769531 1827.304688 369.5625 1820 364.179688 1812 C 362 1808.808594 359.527344 1802.65625 355.90625 1801 C 350.636719 1798.394531 347.183594 1811.722656 346.734375 1815 C 344.488281 1831.371094 356.621094 1840.804688 363 1854 C 312.820313 1843.527344 291.582031 1783.636719 307.886719 1739 C 311.914063 1728 319.167969 1722 326 1713 C 309.691406 1718.269531 300.839844 1731.324219 287 1740 C 297.851563 1718 313.507813 1698.40625 338 1691 L 338 1690 C 325 1690 314.300781 1694 302 1697 C 311.65625 1680.292969 332.816406 1669.4375 349 1660.011719 C 354.261719 1657 367 1654.105469 370 1648.71875 C 371.808594 1645.664063 365.816406 1644.445313 364 1643.832031 C 357.714844 1641.714844 351.410156 1639.296875 345 1637.582031 C 343.300781 1637.128906 338.480469 1637 337.921875 1634.800781 C 337.316406 1632.429688 351.972656 1629.429688 354 1629 C 374.191406 1623.167969 389.421875 1630.136719 409 1632 C 403 1626.8125 395.519531 1619.058594 392 1612 C 406.398438 1612.625 421.964844 1617.070313 434 1625 C 428.773438 1614.820313 419 1607.757813 412 1599 C 430.40625 1600.453125 443.761719 1609.59375 459 1619 C 453 1605.28125 442.324219 1596.121094 435 1584 C 457.367188 1584.476563 473.59375 1599.742188 492 1610 C 484.914063 1596.546875 472.839844 1584.8125 467 1571 C 489.957031 1575 505.878906 1589.234375 524 1602 C 519.957031 1590.128906 514.457031 1579.675781 508 1569 C 517.550781 1570.644531 526 1576.347656 533 1583.015625 C 536.25 1586.179688 539.839844 1592 543.933594 1594 C 546.195313 1595 546.683594 1590 549 1589.359375 C 553.34375 1588.421875 556.824219 1592.53125 560.851563 1592 C 567.304688 1590.800781 562.628906 1577.722656 562 1574 M 1484 1569 C 1479.429688 1580 1472.605469 1590 1468 1601 C 1485.964844 1587 1504.460938 1576.21875 1527 1571 C 1519.925781 1584.65625 1507.597656 1595.210938 1502 1610 C 1513.617188 1599.332031 1540 1581 1557 1585 C 1547.269531 1595.277344 1539.542969 1605.757813 1534 1619 C 1546.429688 1607.65625 1563.210938 1600.335938 1580 1599 C 1575 1608.125 1565.335938 1614.722656 1560 1624 C 1571.636719 1617.003906 1586.347656 1612.589844 1600 1612 C 1594.832031 1619.335938 1588 1625.582031 1583 1633 C 1600.433594 1626.492188 1619.746094 1625 1638 1628.804688 C 1643.765625 1630.019531 1652.894531 1631.664063 1656 1637 C 1647 1637.078125 1638.414063 1641 1630 1643.503906 C 1628.390625 1644.003906 1621 1645.128906 1622.207031 1648 C 1624.398438 1653.125 1639 1657.042969 1644 1659.730469 C 1659.957031 1668.550781 1682.3125 1680.257813 1691 1697 C 1679.523438 1692.292969 1667.507813 1689.105469 1655 1689 C 1660.761719 1694.472656 1670.308594 1697.253906 1677 1702.039063 C 1689 1710.652344 1699.902344 1725.070313 1705 1739 C 1692 1730 1683.472656 1716.4375 1667 1713 C 1707 1759.457031 1692.464844 1836.675781 1629 1854 C 1632 1847.769531 1638.304688 1843.410156 1641.636719 1837 C 1643.886719 1832.675781 1645.90625 1828 1646.675781 1823 C 1647.324219 1819 1644 1797 1637 1800.035156 C 1633.796875 1801.539063 1631.367188 1807.136719 1629.265625 1810 C 1623.523438 1817.820313 1617.859375 1825.554688 1611.613281 1833 C 1609.644531 1835.324219 1603 1844.78125 1599.410156 1843.539063 C 1593.589844 1841.527344 1592 1822.164063 1591.195313 1817 C 1585.265625 1785.261719 1598.382813 1754.4375 1617 1730 C 1598.1875 1733.660156 1586.613281 1745.390625 1570 1753 C 1572.355469 1738 1585.554688 1725 1596 1715 C 1583 1716.285156 1569.871094 1734.777344 1563.859375 1745 C 1549.585938 1769.28125 1541.261719 1799.65625 1545.300781 1828 C 1546.867188 1839.003906 1552.585938 1848.441406 1555 1859 C 1537.429688 1855.738281 1519.566406 1855.183594 1504 1845 C 1466.726563 1820.257813 1472.96875 1762.742188 1480 1725 C 1470.96875 1729.621094 1467.328125 1740.71875 1459 1746 C 1459.589844 1740.082031 1460.960938 1733.59375 1463 1728 C 1456.53125 1733.207031 1453.855469 1742.546875 1450.652344 1750 C 1440 1774.421875 1436.847656 1808.351563 1444.4375 1834 C 1447.457031 1844.195313 1454 1852.359375 1458 1862 C 1433.527344 1862 1406 1858.074219 1387.171875 1841.191406 C 1361 1818.023438 1360.777344 1772.085938 1369 1741 L 1361 1746 C 1361.554688 1739.632813 1364.269531 1734.0625 1366 1728 C 1359.675781 1733.652344 1354.976563 1742 1350.34375 1749 C 1337.324219 1769 1323.4375 1794.320313 1325 1819 C 1326 1834.070313 1332.84375 1846.144531 1340 1859 C 1323.871094 1862.359375 1306.808594 1846.636719 1299.570313 1834 C 1280.890625 1801.40625 1289.761719 1764.519531 1299 1731 C 1268.285156 1747.414063 1242.960938 1793 1250.375 1828 C 1252.625 1838.625 1260.695313 1844.753906 1265 1854 C 1236.832031 1851.191406 1218.371094 1822.34375 1216.960938 1796 C 1214.667969 1753.148438 1225.226563 1713.128906 1254.285156 1680 C 1263.96875 1669 1275.214844 1659.480469 1288 1652.285156 C 1289.992188 1651.160156 1300.945313 1647.1875 1300.945313 1645 C 1300.945313 1642.535156 1295.359375 1643.007813 1294 1643 C 1287 1643 1280.726563 1644.613281 1274 1646 L 1274 1645 C 1296.839844 1629.367188 1316.316406 1625.5 1344 1629 C 1337 1622.328125 1328.207031 1618.285156 1321 1612 C 1329.9375 1609.382813 1343 1612.519531 1351 1617 L 1346 1605 C 1352.828125 1606.023438 1364.488281 1614.800781 1370.785156 1613.183594 C 1381.8125 1610.351563 1368.933594 1591.660156 1367 1587 C 1378 1588 1386 1594 1395 1600 C 1394.75 1594.542969 1392.445313 1589.460938 1393 1584 C 1397.375 1586.183594 1408.785156 1599.0625 1412.644531 1598.367188 C 1415.546875 1598 1416.519531 1592.210938 1417.464844 1590 C 1419.839844 1584.433594 1423.480469 1579.582031 1429 1577 C 1428.820313 1581.148438 1426.332031 1589.351563 1431.394531 1591.671875 C 1438 1594.714844 1445.859375 1583.558594 1447 1596 C 1459.710938 1586.191406 1467.367188 1573.792969 1484 1569 M 824 1607.742188 C 813.933594 1611.808594 820.90625 1627.113281 830.980469 1623.253906 C 841.859375 1619.085938 834.351563 1603.601563 824 1607.742188 M 1161 1607.742188 C 1151.566406 1611.550781 1157 1628 1167 1623.757813 C 1178.699219 1619 1172.199219 1603.261719 1161 1607.742188 M 1134 1698 L 1134 1699 L 1119 1700 C 1127.839844 1711.523438 1141.355469 1712.253906 1154 1716 C 1136.6875 1727 1111.824219 1714.386719 1096 1707 C 1104.683594 1719.328125 1122 1730.46875 1137 1733 L 1137 1734 C 1117 1735.578125 1103.457031 1733 1086 1723 C 1093.753906 1734.726563 1103.480469 1744.59375 1117 1749 L 1117 1750 C 1107.273438 1750 1097.195313 1750.277344 1088 1746.523438 C 1082.167969 1744.144531 1077.691406 1739.535156 1072 1737 C 1075.871094 1749 1081.5625 1759.308594 1088 1770 C 1070.78125 1769.597656 1059.605469 1756.601563 1047 1747 C 1052.785156 1759 1057.296875 1772.0625 1060 1785 C 1047.578125 1778.265625 1041.644531 1762.792969 1031 1754 C 1034.550781 1763.738281 1036.730469 1779.761719 1035 1790 L 1034 1790 C 1027.363281 1780.242188 1019.566406 1771 1015 1760 L 1014 1760 C 1011 1772.570313 1012.894531 1785.320313 1013 1798 C 1002.769531 1791.546875 998.457031 1772.28125 997 1761 C 988.992188 1769.507813 988.175781 1787.421875 982 1798 L 981 1798 C 979.332031 1790.296875 980 1780.046875 980 1772 C 979.996094 1769.726563 980.894531 1763.617188 978.480469 1762.207031 C 976.648438 1761.136719 974.523438 1767 973.90625 1768 C 969.640625 1775.191406 964.675781 1782.066406 960 1789 L 959 1789 C 959 1777.542969 959.304688 1766.199219 962 1755 C 950.710938 1763.089844 945.445313 1780.179688 933 1786 C 936.179688 1772.265625 942.628906 1758.789063 945 1745 L 944 1745 C 936.589844 1759.285156 919.953125 1768 905 1772 C 908.609375 1760.675781 916.34375 1747.621094 922 1737 C 905.757813 1744.226563 896.535156 1750 878 1750 L 878 1749 C 891.253906 1744.679688 900.664063 1735.742188 908 1724 C 891.316406 1732 878.796875 1736.375 860 1734 L 860 1733 C 874.753906 1730.460938 889.839844 1718.359375 899 1707 C 882.242188 1714.230469 863 1726.160156 844 1717 C 854.828125 1710.503906 867.371094 1711.246094 876 1700 C 870.226563 1700 864.722656 1699.722656 859 1699 C 861.941406 1695 870.195313 1695 875 1693.574219 C 887.671875 1690 900.539063 1685.546875 913 1681.140625 C 947.3125 1669.011719 982.34375 1659.515625 1019 1664.289063 C 1043.382813 1667.464844 1066.765625 1676.75 1090 1684.328125 C 1104.261719 1689 1120.550781 1691.40625 1134 1698 "/></g></svg>