<svg xmlns="http://www.w3.org/2000/svg" xmlns:xlink="http://www.w3.org/1999/xlink" viewBox="0 0 100 100" version="1.1"><g transform="translate(1, 8.641505674742596) scale(0.05222032111774925) translate(-40, -216)"><path style=" stroke:none;fill-rule:nonzero;fill:rgb(0%,0%,0%);fill-opacity:1;" d="M 1110 216 C 1106.382813 260.320313 1067 296 1044 331 C 1009.5625 383.335938 985.386719 439.167969 970.375 500 C 963.621094 527.371094 957.972656 555.207031 953.285156 583 C 951.480469 593.71875 949.996094 614.257813 942 622 C 941.898438 610 938.703125 598 937.285156 586 C 936.652344 580.65625 937.882813 575.226563 937 570 C 924.230469 580.257813 916.902344 595.800781 905 606 C 910.273438 564.492188 930.398438 528.445313 942.28125 489 C 949 466.460938 951 444.414063 951 421 L 950 421 C 939.710938 440.605469 930.957031 456.691406 913 471 C 920.9375 443.554688 923.65625 416.46875 910.242188 390 C 906.507813 382.625 901.714844 372.675781 894 369 C 905 402.074219 893.761719 430.265625 878.511719 460 C 872.453125 471.808594 866.636719 485 858 495 C 864 466 860.660156 422.6875 829 408 C 832.308594 418.640625 838 427.648438 839.699219 439 C 843.996094 469.148438 832.839844 505.054688 813 528 C 821.574219 504.21875 828.496094 476 820.488281 451 C 818.390625 444.46875 815.960938 434 810 430 C 813.757813 455.566406 811.320313 477.160156 795.964844 499 C 790.464844 506.820313 781.484375 513 777 521 L 776 521 C 776.253906 511.441406 781.589844 487.210938 772 481 C 770.316406 501.585938 753.804688 518.289063 752 539 C 744.285156 532.78125 738 525 730 519.015625 C 709.683594 504.1875 685.578125 496.160156 661 492 C 665.492188 500.804688 676.6875 507.578125 682.699219 516 C 696.761719 535.691406 704.933594 562 705 586 C 698.773438 579.773438 692.699219 573.703125 685 569.289063 C 649 548.691406 613.351563 560.425781 575 555.714844 C 562.417969 554.167969 549.214844 550.695313 538 544.675781 C 532.304688 541.621094 527.835938 536.671875 522 534 C 529.503906 557.550781 557.851563 583.492188 583 586 L 583 587 C 556.539063 587 529.890625 581.199219 507 567.546875 C 500 563.410156 494.546875 557.59375 488 553 C 491.894531 571.003906 509.480469 589.207031 527 594 L 527 595 C 517 595.582031 505.921875 591.0625 497 587 C 473 576.085938 443.839844 555.019531 439 527 L 437 527 C 437.195313 550.820313 448 575.789063 464.578125 592.714844 C 470.75 599.054688 478.949219 603 485 609 C 466.785156 606.648438 448.59375 602.5 431 597.277344 C 420.808594 594.253906 409.597656 588.675781 399 588 C 419 616.589844 449.992188 643 482 657.136719 C 505.292969 667.4375 530.867188 672 554 682.3125 C 581.21875 694.574219 606.691406 724.148438 615 753 C 597.597656 734 579.339844 712 555 701 C 565.652344 725.050781 576.855469 743.804688 579 771 C 509.242188 687.023438 404 631.488281 300 601.558594 C 245.632813 586 187 584 134 564.566406 C 115.988281 558 104.292969 544.453125 88 536 C 95.371094 551.496094 108 564.027344 115 580 C 103.871094 572.640625 93.734375 562.660156 81 558 C 84.351563 565.1875 91.589844 570.789063 96.550781 577 C 104.863281 587.40625 112 599.523438 116.933594 612 C 123 628 123.3125 644.390625 125.285156 661 C 128.238281 686 131.636719 710.394531 136.261719 735 C 139 749.789063 142.890625 764.316406 146 779 C 146.769531 782 150.796875 790.453125 148.210938 793 C 145.652344 795.464844 138 793.277344 135 793 C 116 790.6875 107.734375 778 93 769 C 94.929688 780.164063 101.554688 792.414063 107.460938 802 C 112.175781 809.652344 118 817 125 822.699219 C 172.949219 863.585938 221 807 255 777.425781 C 262.652344 770.777344 270.371094 764.449219 279 759.066406 C 295.171875 749 312.28125 745.046875 330 739 L 330 738 C 296.675781 725.496094 247.527344 723.6875 214 736 C 221.796875 727.5625 236.207031 723.398438 247 720.296875 C 279 711.066406 312.5 712 345 718 C 337.957031 710.574219 321.6875 708.1875 312 705.421875 C 277.785156 695.65625 244 694.222656 209 697 L 209 696 C 233.777344 686 262.34375 682.011719 289 685.285156 C 301.550781 686.828125 313.613281 691.488281 326 693 L 326 692 C 276.238281 671.585938 228.1875 665.765625 175 670 C 179.664063 665.34375 187.71875 663.660156 194 662.023438 C 209.21875 658.0625 225.304688 655.675781 241 655 C 234 644.195313 210.167969 649.597656 201 641 C 218.300781 641 234.679688 640 252 642.289063 C 315 650.78125 377.363281 679.296875 430 714 C 459.8125 733.652344 488.3125 755.136719 511 783 C 498.402344 776.726563 487.601563 765.335938 474 761 C 478.949219 771 488.386719 779.136719 494 789 C 462.859375 774.210938 430.246094 784.066406 398 785 L 398 786 C 409.617188 789.425781 425.578125 786 438 787.171875 C 470.371094 790.40625 502.921875 801.777344 532 816 C 541 820.289063 554 824.632813 561 832 C 490.5 809.019531 414.265625 799.792969 342 820.558594 C 292.671875 834.734375 247.707031 865.660156 196 870.828125 C 180 872.414063 162.554688 871.671875 147 868.488281 C 136.695313 866.378906 126.472656 862 116 861 L 116 860 C 125.28125 857.789063 134.625 861.089844 144 860.625 C 169.445313 859.363281 193 856.039063 217 847 C 247.640625 835.304688 271.625 813.382813 299 796.226563 C 321 782.425781 344 775.050781 368 766 L 368 765 C 282 765 228.714844 847.101563 144 853 C 122.566406 854.378906 100 850.113281 82 838 C 74.582031 833 67.941406 820.683594 60 818 C 62.617188 828 63.785156 838.304688 67.238281 848 C 79.328125 882 110 918.195313 149 919 L 149 920 C 128.351563 928.597656 113 931 91 930 L 91 931 C 108.246094 940.085938 131 941.480469 150 940.089844 C 218.363281 935.078125 265 884.738281 324 856.257813 C 367.183594 835.363281 417.566406 829.09375 465 834.175781 C 483.992188 836.207031 502.292969 841.371094 521 845 L 521 846 C 465.574219 846 408.585938 848.0625 359 876.425781 C 295.867188 912.539063 232.59375 983 152 968 L 152 967 C 176 967 200.929688 953.128906 221 941 L 221 940 C 188.316406 947.742188 158.636719 960.292969 124 956.828125 C 101.46875 954.578125 82.84375 945.585938 62 938 C 67.683594 970 105.8125 993.5 135 999 L 135 1000 C 113.902344 1002.664063 100 997.230469 81 990 C 92.925781 1015.722656 125.851563 1037 154 1037 C 135.933594 1062.644531 95 1068 69 1052.546875 C 58 1046.042969 50.558594 1032.257813 40 1027 C 49.257813 1051.644531 66.6875 1084.445313 97 1086 L 97 1087 C 80 1091 63.84375 1080.011719 48 1077 C 74.910156 1123.777344 134 1137.230469 181 1116 C 176.804688 1127 167.746094 1136.632813 162 1147 C 146.730469 1175.660156 133.46875 1207.644531 105 1226.136719 C 91 1235.15625 78.167969 1236 63 1240 L 63 1241 C 92.929688 1258.46875 134 1259.441406 163 1239 C 156.679688 1254 144.246094 1267 137.308594 1282 C 122.964844 1313.238281 118 1349.308594 96.648438 1377 C 86 1390.644531 70 1403.574219 52 1404 L 52 1405 C 86.476563 1419.570313 119.695313 1404.074219 150 1389 C 132 1416 115.96875 1444 85 1458.101563 C 76.46875 1462 67.78125 1462 59 1464 C 72 1478.269531 107.199219 1475.347656 123 1468 C 115.945313 1487.265625 95.503906 1505 78 1514.535156 C 71.246094 1518.246094 64.242188 1521.410156 57 1524.046875 C 54.402344 1525 49.929688 1525.566406 48.601563 1528.3125 C 45.46875 1534.800781 47.996094 1548 48 1555 C 48 1557.617188 47.25 1562.109375 49.601563 1564 C 54.828125 1568.109375 64.921875 1561.09375 68.257813 1569.058594 C 71.296875 1576.3125 69.5625 1586.3125 70 1594 C 71.203125 1610.253906 73.664063 1626.71875 74 1643 L 75 1643 C 79.234375 1625.210938 80 1604.3125 81.828125 1586 C 82.300781 1581.078125 80.761719 1568 86 1565.601563 C 97.9375 1560.480469 95.605469 1579.777344 96.425781 1586 C 99.671875 1610.734375 100 1636.140625 102 1661 L 103 1661 C 107.792969 1635.28125 109.304688 1608.078125 111 1582 C 111.554688 1575.222656 112.890625 1558.046875 124.566406 1566.027344 C 127.910156 1568.3125 127.746094 1574.425781 128.273438 1578 C 129.804688 1588.40625 130 1600 133 1610 L 134 1610 C 135.554688 1597.707031 133.984375 1580.488281 138.601563 1569.058594 C 140.355469 1564.722656 147 1563.796875 150.851563 1566.027344 C 155.882813 1569.007813 154 1580 154.714844 1585 C 157 1604.492188 159.996094 1625.378906 160 1645 L 162 1645 C 164.773438 1623.066406 167.179688 1600.816406 170.589844 1579 C 171.65625 1572.175781 175.59375 1560.238281 184.945313 1566.601563 C 192.480469 1571.730469 191.648438 1585 192 1593 C 192.910156 1611 193.238281 1634 199 1651 L 200 1651 C 200.328125 1635.019531 201.832031 1618.824219 204 1603 C 205.292969 1593.5625 205.722656 1584.664063 212 1577 C 224.289063 1607.113281 223.617188 1645.804688 225 1678 L 227 1678 C 229.167969 1661 232.769531 1643.222656 233.976563 1626 C 234.191406 1623 234.589844 1609.367188 238.394531 1608.632813 C 246.335938 1607.09375 247.839844 1630.546875 248.425781 1635 C 252.320313 1664.578125 255.382813 1696.167969 256 1726 L 257 1726 C 262.421875 1705.046875 265.96875 1679.628906 266.960938 1658 C 267 1653.765625 267 1636.023438 271.703125 1634.207031 C 277.277344 1632 282 1646.433594 282.878906 1650 C 287 1670.011719 287.390625 1691.628906 289 1712 L 290 1712 C 292.992188 1696 292.722656 1679.160156 296 1663 C 296.523438 1660.4375 298.375 1648.054688 301.863281 1648.054688 C 306.34375 1648.054688 308.929688 1663.738281 309.539063 1667 C 313.492188 1688.101563 316 1710.566406 317 1732 L 318 1732 C 323.777344 1715 324.664063 1694.761719 328 1677 C 328.921875 1672.703125 330.546875 1660.566406 336 1659.632813 C 341.976563 1658.636719 344.597656 1675.210938 345 1679 C 348.238281 1701.046875 348.839844 1724.335938 354 1746 L 355 1746 C 356.785156 1723.359375 360 1698.671875 367 1677 C 379.429688 1690.617188 384 1707.679688 389 1725 L 390 1725 C 390.980469 1719.71875 391.261719 1714.339844 391.835938 1709 C 392.367188 1704.011719 392.472656 1697.371094 395.726563 1693.226563 C 399.199219 1688.8125 405.90625 1689.441406 407.570313 1695.019531 C 414.199219 1717.242188 408.324219 1742.625 415 1765 L 416 1765 C 417.449219 1746.644531 420.589844 1728.238281 423 1710 C 423.582031 1706.757813 423.6875 1693.234375 429 1694.773438 C 444.671875 1699.203125 439.175781 1726.386719 450 1734 C 450 1724.269531 447.597656 1711 452.304688 1702.015625 C 455.894531 1695.214844 464.609375 1694.230469 469.582031 1700.109375 C 478.273438 1710.386719 477.371094 1734.105469 479 1747 L 481 1747 C 482.664063 1734 483.632813 1719.722656 487.59375 1707 C 489 1702.402344 492.617188 1696.226563 497.996094 1695.582031 C 502.652344 1695.023438 505 1700.246094 505.824219 1704 C 507.871094 1714.148438 508 1725.664063 508 1736 L 509 1736 C 512.609375 1723.183594 516 1710.386719 521 1698 C 521.753906 1696.125 524.636719 1686.8125 527.710938 1688.207031 C 532.277344 1690.277344 532.9375 1704.664063 533.578125 1709 C 536.558594 1729.128906 534.28125 1752.65625 540 1772 C 543.339844 1766.421875 542.496094 1758.335938 543.613281 1752 C 546.828125 1733.808594 548.386719 1715 553 1697 C 554.339844 1692.5625 560.4375 1674.582031 567.570313 1678.035156 C 570.1875 1679.304688 570.957031 1684.476563 571.484375 1687 C 573.347656 1696 572.914063 1705.242188 575 1714 L 576 1714 C 578.953125 1701.738281 579.554688 1689.15625 583.304688 1677 C 584 1674.734375 586 1666.054688 589 1666.054688 C 591.695313 1666.054688 592.441406 1671.269531 592.867188 1673 C 594.644531 1680.203125 595.367188 1687.667969 596.421875 1695 C 599.453125 1716.117188 600.351563 1737.746094 601.910156 1759 C 602.574219 1768.054688 601.277344 1782.117188 606 1790 C 608.632813 1781.097656 608 1770.304688 609.289063 1761 C 613.304688 1731.183594 615.585938 1700.074219 623.746094 1671 C 626.292969 1662 629.925781 1652.339844 634.320313 1644 C 635 1642.46875 637.890625 1636.019531 640.378906 1637.207031 C 642.445313 1638.195313 643 1643.042969 643.523438 1645 C 645.570313 1653.226563 645.726563 1661.640625 646.714844 1670 C 649.195313 1691 651 1713 651.960938 1734 C 652.492188 1746.128906 651.550781 1760.328125 655 1772 L 656 1772 C 656 1735.144531 662.910156 1698.703125 663.984375 1662 C 664.191406 1655.050781 664.296875 1644.128906 667.9375 1638.039063 C 669.21875 1636 673.347656 1631.28125 676.273438 1633.023438 C 680.953125 1635.808594 680.765625 1651.175781 681 1656 C 682 1675.757813 682.25 1700.074219 688 1719 L 689 1719 C 689 1699.617188 690.996094 1680.273438 692.828125 1661 C 694.855469 1639.726563 693.1875 1625 708 1608 C 710.945313 1620.378906 709.964844 1634.320313 711.171875 1647 C 712.878906 1665 716.226563 1683.007813 717 1701 L 718 1701 C 719.503906 1666 725 1629.726563 729.871094 1595 C 730.859375 1588 732.964844 1564 744 1565.425781 C 755.824219 1567.097656 755.347656 1587.507813 756.171875 1596 C 759.394531 1629.308594 763.367188 1662.648438 766 1696 L 767 1696 C 769.550781 1663.679688 774.808594 1631.402344 775.988281 1599 C 776.203125 1593.074219 774.332031 1569.082031 780.257813 1566.464844 C 786.34375 1563.78125 785.863281 1578 786 1581 C 787.355469 1598.296875 790.953125 1615.628906 791 1633 L 792 1633 C 796.390625 1618.144531 796.207031 1599.523438 797.949219 1584 C 798.433594 1579.683594 797.425781 1568.621094 801.316406 1566.027344 C 804.703125 1563.769531 810.554688 1565 811.683594 1569.058594 C 813.855469 1577 812.988281 1587.78125 813 1596 C 813 1635.601563 817.886719 1675.546875 821 1715 L 822 1715 C 826.785156 1677.132813 827.25 1639 831.714844 1601 C 832.703125 1592.605469 829.433594 1570 839 1565.742188 C 851.738281 1560.386719 852.605469 1577 852.960938 1585 C 854.230469 1613.730469 857.738281 1642.347656 860 1671 L 861 1671 C 865.875 1644.75 864.949219 1617.445313 868.425781 1591 C 869.246094 1584.742188 865.96875 1568.453125 873 1565.601563 C 888.59375 1559.359375 885 1593.371094 885 1602 C 885 1646.371094 889 1690.675781 889 1735 L 890 1735 C 893.628906 1723 892.90625 1708.613281 894.167969 1696 C 897 1667.363281 899.941406 1638.699219 901.910156 1610 C 902.613281 1599.71875 903.863281 1589.300781 904 1579 C 904 1575.617188 903.597656 1568.796875 906.523438 1566.433594 C 910.539063 1563.1875 917.980469 1565.324219 919.605469 1570.054688 C 923.183594 1580.480469 921.78125 1593.15625 922.828125 1604 C 927.410156 1651.347656 934 1700.4375 934 1748 L 935 1748 C 937.914063 1732.296875 937 1716 938 1700 C 940 1670.152344 942.988281 1640 943 1610 C 943 1598.777344 942 1587.132813 943.574219 1576 C 944 1572.597656 942.941406 1566.535156 947 1565.320313 C 961 1561.28125 957 1592.347656 957 1600 C 957 1641.179688 958.761719 1683 962 1724 L 963 1724 C 967.289063 1701 967.484375 1676.414063 969 1653 C 970 1637.355469 972.792969 1621.691406 973 1606 C 973 1596 974 1585.015625 975.578125 1575 C 976 1571.46875 976.28125 1567.167969 980 1565.605469 C 986 1563.195313 991.210938 1567.644531 992.824219 1573 C 995.925781 1583.273438 994.949219 1597.273438 995 1608 C 995.253906 1660.070313 1004 1712 1004 1764 L 1006 1764 C 1006 1751.605469 1008.640625 1739.300781 1009.828125 1727 C 1013.5 1689.109375 1017.542969 1650.0625 1017.996094 1612 C 1018 1600.300781 1019 1588.667969 1019 1577 C 1019 1575 1017.945313 1566.074219 1022 1566.769531 C 1027.296875 1567.675781 1025 1585.0625 1025 1589 C 1025 1613.34375 1026.949219 1638 1030 1662 L 1031 1662 C 1032 1637.097656 1035.269531 1611.773438 1038 1587 C 1038.617188 1582 1036.648438 1562.285156 1045.941406 1565.621094 C 1050.644531 1567.3125 1049.996094 1573 1050 1577 C 1050 1587.378906 1050 1598.695313 1051.285156 1609 C 1056.84375 1656.109375 1057.261719 1704.632813 1061 1752 L 1062 1752 C 1062.390625 1705 1070.90625 1658.035156 1071 1611 C 1071 1599.699219 1072 1588.269531 1072.910156 1577 C 1073 1573.59375 1071.847656 1567.25 1076 1566 C 1085.410156 1563 1084.304688 1586.054688 1084.835938 1591 C 1087.988281 1620.445313 1091.980469 1651.394531 1092 1681 L 1093 1681 C 1096.21875 1655.527344 1097.714844 1629.59375 1100.171875 1604 C 1101 1594.335938 1103.800781 1584.695313 1104 1575 C 1112.546875 1584.785156 1110.941406 1605.710938 1112.167969 1618 C 1116 1656.511719 1117.953125 1695.390625 1121 1734 L 1123 1734 C 1123 1690.578125 1129.214844 1645 1135 1602 C 1152.621094 1617.695313 1146.859375 1650.128906 1152 1671 L 1153 1671 C 1154.648438 1658 1156 1645 1158.285156 1632 C 1158.699219 1629.5625 1159.898438 1620.054688 1163.289063 1620.054688 C 1170.53125 1620.054688 1175 1638.589844 1175.816406 1644 C 1179.234375 1672.117188 1182 1701.6875 1182 1730 L 1183 1730 C 1187.695313 1710.5 1189.398438 1689.816406 1192.589844 1670 C 1193.441406 1664.71875 1194.238281 1652.027344 1199.394531 1649.070313 C 1208.28125 1644 1217.796875 1663 1219.335938 1669 C 1226.332031 1697 1228.761719 1730.261719 1229 1759 L 1230 1759 C 1236 1733.671875 1235.933594 1706 1239.574219 1680 C 1240 1677 1242.53125 1655.480469 1248.503906 1658.207031 C 1251.914063 1659.761719 1252 1669.828125 1252.664063 1673 C 1255.894531 1688.785156 1254.472656 1706.679688 1259 1722 L 1260 1722 C 1260 1706 1263.269531 1688.796875 1266.449219 1673 C 1266.835938 1671.078125 1270 1656.394531 1273.253906 1659.636719 C 1279.742188 1666.101563 1278.226563 1686.386719 1279.285156 1695 C 1283.484375 1729.175781 1280 1766.539063 1288 1800 L 1289 1800 C 1289 1768.460938 1296 1736.128906 1300.699219 1705 C 1304.195313 1681.277344 1307.695313 1655.082031 1320 1634 C 1337.570313 1679.300781 1334.988281 1729.425781 1341 1777 L 1343 1777 C 1343 1752.675781 1345.527344 1728.195313 1347.828125 1704 C 1349.339844 1688.15625 1348.414063 1672.6875 1352 1657 C 1363 1668.554688 1362.71875 1681.015625 1364.171875 1696 C 1365.878906 1713.636719 1367.699219 1731.324219 1368.910156 1749 C 1369.640625 1759.65625 1368.960938 1771.722656 1372 1782 L 1373 1782 C 1373 1749.183594 1380 1716.722656 1381 1684 C 1381.199219 1677 1382.238281 1669 1383.664063 1662 C 1383.972656 1660.523438 1384.644531 1655.101563 1387 1655.632813 C 1390.734375 1656.425781 1391.570313 1665.097656 1392.253906 1668 C 1394.96875 1679.496094 1392.996094 1697 1399 1707 C 1402.566406 1695 1401 1680.574219 1403.425781 1668 C 1404 1664.6875 1405 1656 1408.484375 1654.207031 C 1410.59375 1653.132813 1411.640625 1657.820313 1411.972656 1659.003906 C 1413.800781 1665.546875 1414.925781 1672.273438 1415.871094 1679 C 1419.914063 1707.769531 1423.714844 1737.066406 1426 1766 L 1427 1766 C 1428.460938 1732 1429.804688 1695.617188 1435.246094 1662 C 1436.328125 1655.3125 1439 1628.765625 1451.957031 1635.046875 C 1461.527344 1639.703125 1460.953125 1661 1461 1670 C 1461 1686 1463.816406 1702.046875 1464.910156 1718 C 1465.882813 1732.183594 1464.714844 1748.195313 1468 1762 L 1469 1762 C 1475.804688 1725.339844 1472.574219 1687 1477.425781 1650 C 1478.5625 1641.34375 1478.53125 1632.429688 1481 1624 C 1481.539063 1622.300781 1482.722656 1616.054688 1485 1616.054688 C 1487.855469 1616.054688 1489.304688 1623.082031 1489.84375 1625 C 1492.6875 1635.113281 1493.472656 1645.613281 1494.714844 1656 C 1498.566406 1688.199219 1499.378906 1720.738281 1502.835938 1753 C 1504 1764.246094 1503.371094 1776 1506 1787 L 1507 1787 C 1512.808594 1741.054688 1517.710938 1693.296875 1519.960938 1647 C 1520.550781 1635 1522 1621.617188 1525.746094 1610 C 1526.773438 1606.800781 1528.738281 1599.660156 1532 1598.207031 C 1534.730469 1597.105469 1535.304688 1602.570313 1535.597656 1604 C 1537.171875 1611.585938 1537.566406 1619.332031 1538.574219 1627 C 1541 1646.152344 1541.339844 1665.769531 1543.171875 1685 C 1544.398438 1698 1546.992188 1711.011719 1547 1724 L 1548 1724 C 1550.792969 1714.550781 1549.226563 1703 1550.171875 1693 C 1552.445313 1669.171875 1553.914063 1645 1554.960938 1621 C 1555.703125 1604.03125 1554.335938 1585.71875 1566 1572 C 1573.863281 1604 1571 1637.808594 1577 1670 L 1578 1670 C 1578 1643 1582.597656 1615 1585.171875 1588 C 1585.808594 1581.304688 1583.191406 1560.105469 1595.851563 1565.601563 C 1602.617188 1568.539063 1599.957031 1590.605469 1600.714844 1597 C 1604.65625 1630.3125 1607.308594 1665.464844 1608 1699 L 1609 1699 C 1611.871094 1687 1611.242188 1673.363281 1612 1661 C 1613.484375 1640.667969 1616 1620.359375 1616.960938 1600 C 1617.328125 1591.640625 1617.957031 1583.382813 1618 1575 C 1618 1572.046875 1617.648438 1568 1620.433594 1566.027344 C 1634.851563 1556.101563 1633.851563 1581.269531 1634 1588 C 1634.789063 1619.632813 1637.511719 1651.460938 1640 1683 L 1642 1683 C 1643.292969 1653 1649.640625 1623.09375 1650.960938 1593 C 1651 1589 1650.179688 1565.070313 1655.949219 1566 C 1659.542969 1566.449219 1659.898438 1571.222656 1659.984375 1574 C 1660.246094 1582.3125 1660.382813 1590.71875 1661.171875 1599 C 1664.558594 1634.621094 1667.183594 1670.332031 1670 1706 L 1671 1706 C 1678.59375 1674.113281 1678.285156 1637.695313 1680.914063 1605 C 1681.660156 1595.714844 1678.859375 1574.007813 1685 1566.601563 C 1689.382813 1561.347656 1696.347656 1567.757813 1697.894531 1572.003906 C 1702.183594 1583.757813 1702.445313 1597.6875 1704 1610 L 1705 1610 C 1705.992188 1597.402344 1706 1582 1710.484375 1570.019531 C 1712.746094 1564 1722.1875 1563 1725 1569.109375 C 1728.789063 1576.710938 1727.523438 1587.757813 1728 1596 C 1729.558594 1617.402344 1728 1643.59375 1735 1664 L 1736 1664 C 1736.535156 1638.058594 1742.402344 1611.816406 1745 1586 C 1745.976563 1578.421875 1745.332031 1560.78125 1757.984375 1565.742188 C 1765.867188 1569 1764.890625 1581.035156 1765.714844 1588 C 1768.417969 1611 1769 1634.101563 1772 1657 L 1773 1657 C 1773.972656 1634.34375 1777.429688 1611.652344 1777.984375 1589 C 1778 1583.707031 1776.328125 1568.128906 1782 1565.601563 C 1786.8125 1563.578125 1791.863281 1566.105469 1792.773438 1571.003906 C 1796.320313 1590.117188 1797.550781 1610.613281 1800 1630 C 1804 1627 1803 1619.789063 1804 1615 C 1807.199219 1601 1806.535156 1583.378906 1811.894531 1570.019531 C 1814.347656 1564 1823.410156 1563.308594 1827.488281 1568.148438 C 1831 1572.433594 1831.824219 1579.664063 1832.75 1585 C 1833.789063 1591 1833.890625 1597.03125 1835 1603 L 1836 1603 C 1837.308594 1592.648438 1837.265625 1578.574219 1841.703125 1569.058594 C 1843.957031 1564.226563 1851 1563.679688 1854 1568.148438 C 1857.949219 1574 1855.558594 1583.414063 1856.425781 1590 C 1859.28125 1611.753906 1860.273438 1634.113281 1862 1656 L 1863 1656 C 1865.921875 1633 1868.316406 1609.28125 1869.910156 1586 C 1870.230469 1581.300781 1867.382813 1562.6875 1876.941406 1565.800781 C 1882.378906 1567.570313 1881.679688 1576.476563 1882 1581 C 1883.734375 1595.667969 1883.773438 1612 1888 1626 L 1889 1626 C 1889 1612.339844 1891 1598.554688 1892.714844 1585 C 1893.34375 1579.679688 1892.261719 1573.148438 1894.589844 1568.148438 C 1897.707031 1561.449219 1907.671875 1567.714844 1912.398438 1564 C 1914.566406 1562.253906 1913.996094 1558.421875 1914 1556 C 1914 1549.320313 1916.664063 1535.445313 1913.398438 1529.589844 C 1911.882813 1527 1905.726563 1526 1903 1525 C 1894.367188 1521.734375 1886 1518.113281 1878 1513.574219 C 1854.644531 1500.378906 1826.886719 1480 1810 1459 C 1850 1455.816406 1888.9375 1418.808594 1904 1383 C 1890.179688 1388.464844 1878.9375 1397.371094 1864 1401.105469 C 1832.910156 1409 1801 1402.355469 1773 1388.246094 C 1763.183594 1383.324219 1750.757813 1376.8125 1744 1368 C 1775.441406 1377 1809.203125 1375.320313 1839 1361.21875 C 1848.941406 1356.511719 1863.210938 1348.242188 1868 1338 C 1826 1353.214844 1787 1341.628906 1758 1307 C 1796.707031 1310.054688 1829.523438 1293.113281 1849.28125 1259 C 1853.351563 1252 1858.929688 1244.179688 1860 1236 C 1849.933594 1243.085938 1841.945313 1250.464844 1830 1254.761719 C 1786.605469 1270.371094 1750.496094 1243.410156 1716 1221.4375 C 1703.355469 1213.378906 1685.492188 1207.636719 1675 1197 C 1684.773438 1197.417969 1694 1199.589844 1704 1199 C 1729.585938 1197.15625 1753.976563 1186.246094 1771.984375 1168 C 1778 1161.742188 1786.757813 1152.625 1789 1144 C 1779 1149.746094 1770.332031 1156 1759 1159.21875 C 1732.765625 1166.757813 1707 1159 1683 1148.425781 C 1673.664063 1144.363281 1664.691406 1139.488281 1656 1134.203125 C 1654.386719 1133.222656 1648 1130.433594 1649.207031 1127.773438 C 1650.746094 1124.359375 1662.589844 1122.632813 1666 1121.492188 C 1682.242188 1116.078125 1698 1109.464844 1714 1103 L 1714 1102 C 1686.945313 1102.558594 1659 1109.050781 1632 1111 C 1576.683594 1114.699219 1521.1875 1115.828125 1466 1121.171875 C 1430.777344 1124.578125 1394.375 1133 1359 1133 L 1359 1132 C 1407.441406 1119.332031 1454 1110 1504 1105.171875 C 1551.484375 1100.652344 1600 1103.828125 1646 1088.492188 C 1666 1081.757813 1686.8125 1074.378906 1706 1065.253906 C 1712.8125 1062.015625 1721.898438 1059.671875 1727 1054 C 1593.984375 1071.175781 1458.714844 1079.316406 1331 1123.65625 C 1300.429688 1134.269531 1271.203125 1147 1242 1160.832031 C 1232.820313 1165.191406 1214.527344 1171.386719 1209 1180 C 1240.648438 1174.621094 1270.414063 1164.398438 1303 1163 L 1303 1164 C 1280.445313 1166.761719 1251.773438 1180.078125 1235 1195.171875 C 1227.28125 1202.117188 1220.394531 1217.140625 1211.871094 1222 C 1205.175781 1225.765625 1192.699219 1225.472656 1185 1227.476563 C 1169 1231.621094 1153.484375 1238.332031 1140 1247.769531 C 1129.703125 1255 1121.445313 1264 1114 1274 C 1111.480469 1277.40625 1106.964844 1286.226563 1102.675781 1287.335938 C 1091.683594 1290.175781 1077.765625 1270.242188 1074.902344 1262 C 1068.410156 1243.316406 1080.570313 1233.269531 1086.300781 1217 C 1089.28125 1208.539063 1084.6875 1198.78125 1087.742188 1191.039063 C 1091 1182.730469 1102.722656 1178.777344 1107.53125 1171 C 1122.472656 1147 1112 1119 1097 1098 C 1113.515625 1106 1130.402344 1112.320313 1145 1123.664063 C 1149.238281 1127 1158.453125 1140.550781 1163.324219 1140.832031 C 1169.585938 1141.195313 1182.445313 1129.804688 1188 1126.574219 C 1210.28125 1113.628906 1232 1100.214844 1255 1088.253906 C 1321.871094 1053.261719 1400 1019.210938 1477 1019 C 1470.402344 1024.746094 1455.523438 1026.414063 1447 1029 C 1426.679688 1034.683594 1407 1042.175781 1387 1048.832031 C 1332.3125 1067.007813 1277.773438 1092 1229 1122.628906 C 1211.257813 1133.804688 1188.339844 1145.507813 1175 1162 C 1199.871094 1156.3125 1225.726563 1143.253906 1250 1134.691406 C 1307 1114.546875 1364.667969 1095.097656 1424 1082.511719 C 1468 1073.160156 1513 1067.164063 1558 1064.089844 C 1572.539063 1063.09375 1587.441406 1062.070313 1602 1062 C 1612 1062 1623 1063.34375 1633 1061 L 1633 1060 C 1615 1056.675781 1587.878906 1051 1575 1037 C 1595.429688 1043.476563 1619 1039.183594 1638 1030 C 1645.347656 1026.394531 1654 1021.371094 1658 1014 C 1638.210938 1024.113281 1614.707031 1023 1594 1016 C 1587 1013.714844 1578.863281 1011.671875 1574 1006 C 1604.207031 1005.746094 1637.410156 966.652344 1641 938 C 1632.851563 943 1627 950.683594 1618 955.191406 C 1587 970.652344 1555.890625 967.652344 1524 957.71875 C 1514 954.621094 1498.542969 951.316406 1491 944 C 1516.714844 944 1540.691406 932.695313 1558 914 C 1563.289063 908.304688 1571.816406 899 1572 891 C 1562.9375 897 1554.378906 902 1544 905.484375 C 1490.234375 923.5625 1443.664063 895.558594 1396 874 L 1396 873 C 1441.238281 885 1493.789063 892.824219 1529.910156 855 C 1536.457031 848.125 1542.292969 840.328125 1546.820313 832 C 1551.664063 823.097656 1556.492188 812.058594 1558 802 C 1544.800781 809.710938 1534.582031 818.324219 1519 821.640625 C 1476.296875 830.722656 1433.34375 810.125 1390 812.039063 C 1364.875 813.148438 1341.722656 824.558594 1320 836 C 1325 827.804688 1332.9375 821 1341 815.695313 C 1345.667969 812.640625 1352.863281 810.632813 1356 806 C 1327 809.683594 1297.609375 812.097656 1269 818 C 1280.507813 808.472656 1295.40625 802.488281 1309 796.574219 C 1336.398438 784.65625 1365.816406 773.359375 1396 772.039063 C 1434.375 770.359375 1489.5625 781.464844 1514 741 C 1493.949219 746.71875 1476.679688 748 1457 739 C 1436.664063 729.632813 1420.480469 712.230469 1398 707.515625 C 1343.636719 696.109375 1289.671875 735.382813 1254.960938 772.746094 C 1243.828125 784.726563 1230.539063 799 1224 814 L 1223 814 C 1223.574219 744.742188 1292 707.300781 1352 697.285156 C 1381 692.417969 1418.527344 695.414063 1438 668 C 1430.609375 670.035156 1423.804688 673.339844 1416 674 C 1387.289063 676.015625 1366.363281 660.515625 1343 646.449219 C 1336.613281 642.605469 1329.878906 639.453125 1323 636.601563 C 1320.824219 635.699219 1316.238281 634.597656 1315.167969 632.234375 C 1313.339844 628.203125 1323.304688 619.785156 1326 617.679688 C 1340.933594 606.035156 1357.640625 606 1375 610 C 1373 603 1365.933594 597.539063 1360 593.699219 C 1328.765625 573.46875 1305.972656 594.695313 1279 610.65625 C 1241.394531 633 1195 629.21875 1157 649.488281 C 1133 662.21875 1114.761719 681.664063 1098.503906 703 C 1092.742188 710.558594 1088.976563 720.558594 1082 727 C 1091.566406 685.265625 1115.789063 645.257813 1155 625.601563 C 1217 594.488281 1298.722656 602.277344 1338 534 C 1320.601563 541.355469 1305.5625 551.714844 1287 557.433594 C 1238.300781 572.445313 1188.308594 576.605469 1144 604.226563 C 1122.574219 617.585938 1103.644531 635 1087.273438 654.003906 C 1078.820313 664 1071.9375 677.785156 1062 686 C 1068.75 646.769531 1097.175781 607 1131 587 L 1131 586 C 1098.78125 586.757813 1068.589844 622.578125 1054.285156 648 C 1049.539063 656.433594 1043.507813 666.136719 1043 676 L 1041 676 C 1041 647.226563 1049.832031 624 1061 598 C 1049.355469 603.429688 1041.789063 617.027344 1033 626 C 1036.421875 609.425781 1042.316406 596.355469 1051 582 C 1037.378906 588.46875 1027.9375 603.210938 1018 614 C 1017.933594 589.726563 1010.394531 566.710938 1012 542 C 1015.492188 492.382813 1035.167969 441.304688 1060.550781 399 C 1073.644531 377.179688 1088.261719 356.25 1109 341 C 1106.195313 349.363281 1101.382813 357 1098 365 C 1114.664063 355.210938 1126.339844 343.546875 1146 339 C 1128.261719 363.664063 1095.261719 380.28125 1084 410 C 1090.210938 406.445313 1094.917969 400.246094 1101 396.207031 C 1111.828125 389.015625 1124 384 1136 379 C 1122.910156 391.054688 1109.605469 402.390625 1097 415 C 1091.285156 420.714844 1083.230469 427 1081 435 C 1090.675781 428.210938 1099 420.320313 1110 415.171875 C 1118.710938 411.035156 1128 409.296875 1137 406 C 1124.609375 421.21875 1103.199219 429.5 1093 447 C 1110 439.390625 1125.449219 427.707031 1145 426 L 1145 427 C 1117.1875 438.582031 1093 463.097656 1073.5 485.285156 C 1065.308594 494.605469 1054.789063 505.464844 1050 517 C 1064.191406 507.003906 1075.546875 493.09375 1090 483.039063 C 1119 462.78125 1162 447.097656 1198 447 L 1198 448 C 1169.972656 458.183594 1141 476.636719 1118 495.199219 C 1109.253906 502.207031 1098.503906 510 1092 519 C 1107.476563 514.445313 1121.726563 502 1137 495.601563 C 1181.242188 477.539063 1243 461.148438 1262.550781 412 C 1267.550781 399.394531 1268 384.414063 1268 371 L 1266 371 C 1262.367188 398 1243.757813 422 1219 433.136719 C 1214.972656 435 1199.332031 442.773438 1195.5625 440.171875 C 1192.394531 438 1191.835938 429.523438 1190.667969 426 C 1186.378906 413.082031 1181.757813 400.488281 1176.347656 388 C 1160.492188 351.414063 1133.496094 313.382813 1129.175781 273 C 1127.390625 256.339844 1131.828125 242.097656 1134 226 L 1133 226 C 1125.9375 239.472656 1116.34375 255.613281 1115 271 L 1113 271 C 1113 258.28125 1112 245.71875 1112 233 C 1112 227.621094 1113.363281 220.4375 1110 216 M 1289 395 C 1283 405 1279.457031 415.410156 1272.570313 425 C 1252 453.476563 1224.621094 475.683594 1197 496.765625 C 1181.644531 508.488281 1165.488281 519.179688 1150 530.730469 C 1143.691406 535.4375 1134 540.167969 1130 547 C 1140.367188 543.226563 1149.484375 536.558594 1160 533 C 1211.53125 515.203125 1269.246094 500 1285.28125 440 C 1288.460938 428.125 1293.945313 406.785156 1289 395 M 1173 553 C 1183.996094 552.101563 1194.929688 550 1206 549.089844 C 1254.460938 545.753906 1313.800781 543.226563 1329.511719 486 C 1331.980469 477.015625 1334.597656 467.332031 1335 458 C 1329.609375 461.355469 1326.238281 470.101563 1321.828125 475 C 1312.5625 485.296875 1301.339844 494.351563 1289 500.742188 C 1261.964844 514.738281 1232.679688 524.152344 1205 536.769531 C 1195.214844 541.230469 1180.304688 545 1173 553 M 1090 520 L 1091 521 L 1090 520 M 115.667969 580.667969 C 115.722656 580.722656 115.777344 581.777344 115.332031 581.332031 C 115.277344 581.277344 115.222656 580.222656 115.667969 580.667969 M 709 618 C 708.613281 627.027344 707.367188 635.050781 709.734375 644 C 720.777344 685.753906 763 697 791 724.015625 C 819.320313 751.632813 829.996094 789.183594 830 828 L 828 828 C 826.539063 799.449219 803.992188 764.21875 783 746 C 794 767 803.503906 792 804 816 L 803 816 C 794 797.292969 782.578125 780.753906 767.910156 766.089844 C 742.835938 741.015625 715 721 703.171875 686 C 696.765625 667.121094 693.214844 633.621094 709 618 M 1226 666 L 1226 667 C 1210.617188 677.144531 1193.875 684.300781 1179 695.476563 C 1139.667969 725.023438 1105 770.285156 1094 819 C 1107.277344 804 1128 797 1146 788.625 C 1155.695313 784.167969 1165.8125 778 1176 775 C 1172.507813 781.542969 1165.546875 787.269531 1160.464844 792.714844 C 1144.832031 809.460938 1126.601563 823.273438 1111 840 C 1131.441406 831 1152 826.761719 1175 831 L 1175 832 C 1160.351563 834 1140.628906 837.46875 1129 847 C 1138.53125 844 1147.207031 844.582031 1157 844 C 1179.214844 842.390625 1201.824219 842.046875 1224 843 L 1224 844 C 1207.394531 852.132813 1187.351563 853.628906 1170 860 L 1170 861 C 1182.832031 861 1195.195313 863.546875 1208 864 C 1215.664063 864.199219 1223.449219 861.492188 1231 862 C 1180.8125 910.0625 1110.976563 837.078125 1059 877.820313 C 1031 899.714844 1023.605469 938.734375 1031.746094 972 C 1037.316406 994.75 1049 1013.742188 1046.894531 1038 C 1046 1047 1040.460938 1053.21875 1037 1061 C 1045.382813 1058.78125 1054.644531 1058.496094 1062 1064 C 1056 1066 1051 1067 1047 1072 C 1066.394531 1074 1081.949219 1101.621094 1090.371094 1117 C 1091.730469 1119.484375 1101.527344 1134.578125 1098.265625 1136.597656 C 1094 1139.175781 1083.5 1137.308594 1078 1139.617188 C 1065 1145.054688 1054 1154.449219 1040 1157.488281 C 1022.171875 1161.355469 1003 1157.269531 986 1164.289063 C 976.460938 1168.203125 971.304688 1176.128906 963 1181 C 964.277344 1166.355469 973.699219 1152.234375 987 1146 L 987 1145 C 973 1146.75 961.238281 1149.519531 948 1154 C 949.722656 1141.269531 956 1132.699219 965 1124 C 951.5625 1124.007813 940.761719 1130.046875 928 1133 C 931.765625 1125 939.609375 1120.359375 947 1116 C 935 1113.117188 924.585938 1114.230469 913 1118 C 919 1109.574219 926.949219 1107.082031 937 1107 L 937 1106 C 925.917969 1105.035156 915.265625 1101 904 1100.089844 C 901.796875 1100 893.660156 1101.242188 892.878906 1098.398438 C 891.605469 1093.765625 900.179688 1086.085938 902 1082 C 863.449219 1094.246094 850.546875 1052.601563 831.5 1028 C 807.492188 997 769.347656 974.324219 729 977.089844 C 700.355469 979.050781 673.304688 990.453125 653 1011.003906 C 635.800781 1028.4375 623.585938 1050.09375 606.910156 1068 C 587.621094 1088.714844 562.703125 1101.640625 536 1110.023438 C 527 1112.816406 517.371094 1116.78125 508 1117 L 508 1116 C 532.417969 1101.597656 560 1083.304688 579 1062 C 557.1875 1069.097656 537.285156 1080.25 516 1088 C 520.195313 1080.75 529.453125 1075.222656 536 1070.113281 C 551 1058.289063 566.636719 1047.5625 583 1037.425781 C 589.898438 1033.152344 599 1030.371094 605 1025 C 569.222656 1029.816406 539.523438 1046.550781 510 1066 C 513 1056.808594 521.933594 1049.191406 528.484375 1042.324219 C 550.546875 1019.207031 576 1004.433594 607 997 L 607 996 C 584.816406 996 563.863281 1001.046875 542 1002 L 542 1000 C 554.585938 997.304688 566.6875 990.449219 579 986.503906 C 597.605469 980.542969 616.539063 978 636 978 L 636 977 C 610.816406 966.527344 582.886719 953.230469 555 953 L 555 952 C 593.292969 940 634.253906 945.144531 673 949 C 613.476563 889.480469 521.855469 877.753906 443 895.425781 C 427.402344 899 411.78125 904.378906 397 910.402344 C 389.742188 913.359375 382.605469 918.261719 375 920 C 379.492188 912.355469 390.53125 906.714844 398 902.203125 C 419.976563 889 444.753906 879.46875 470 875 C 526 864.808594 582.507813 871.652344 636 890.691406 C 678.296875 905.746094 717.613281 927.792969 759 945 C 754 937.058594 745.894531 930.351563 742 922 C 755.328125 926.554688 765.632813 938 776 947 C 764 905.578125 741.679688 860.550781 710 831.089844 C 700.246094 822.019531 688.664063 814 677 807.542969 C 671.429688 804.480469 661.492188 802.285156 658 797 C 708 798.03125 756.726563 816.109375 790.828125 854 C 810.355469 875.695313 823.742188 902.394531 837.296875 928 C 849.28125 950.636719 866.453125 977.601563 867 1004 L 869 1004 C 869 989 873 974.226563 873 959 C 877.640625 962.402344 879.242188 970 881.542969 975 C 886.980469 987.097656 891.847656 999.511719 896.308594 1012 C 898.5 1018.140625 899.601563 1026.109375 904 1031 C 902.460938 1018.8125 901.96875 1006.265625 901 994 L 902 994 C 913.832031 1016.464844 929.945313 1040 932 1066 L 933 1066 C 937.40625 1047.492188 934.386719 1028.464844 932 1010 L 933 1010 C 942.226563 1027.605469 950.785156 1044.746094 965 1059 C 958.890625 1044.308594 955.78125 1030.496094 952.488281 1015 C 951 1008.609375 948.230469 1001.441406 950 995 L 951 995 C 954.253906 1014 969.496094 1037.078125 985 1048 C 974.332031 1032.175781 966.671875 1013.160156 965 994 L 966 994 C 977.464844 1013.71875 985.4375 1035.21875 1005 1049 C 987.953125 1023.707031 978 990.652344 978 960 L 980 960 C 981 972.351563 987.429688 990 996 999 C 988 969.152344 989.996094 940.476563 987.910156 910 C 985.757813 878.582031 980.988281 847.296875 977.285156 816 C 973.960938 788 974.554688 759.324219 966 732 C 962.402344 720 955.539063 710.183594 950 699 C 963.671875 704.332031 975.789063 722.238281 983.804688 734 C 1012.402344 776 1018 823.585938 1018 873 L 1019 873 C 1023.277344 857.328125 1033.222656 841.253906 1041 827 L 1042 827 C 1041.78125 837.597656 1037.910156 847.558594 1037 858 C 1041.421875 853.625 1043.378906 847.230469 1046.695313 842 C 1058.964844 822.652344 1066.535156 801 1077.871094 781 C 1107.96875 728.246094 1164 676.53125 1226 666 M 1380 680 L 1380 681 C 1368 683.828125 1355 682.777344 1343 684.285156 C 1325.824219 686.421875 1308.230469 691.101563 1292 697.054688 C 1266.632813 706.355469 1243.253906 720 1222 736.511719 C 1211.71875 744.566406 1202.660156 754.496094 1192 762 C 1193.59375 753.066406 1199.542969 743.714844 1204.203125 736 C 1228 696.460938 1276.265625 677 1321 675.039063 C 1341 674.15625 1360 679.589844 1380 680 M 939 843 C 934.367188 839.476563 935.171875 829.472656 933.984375 824 C 930.914063 809.8125 923.601563 797.597656 919 784 L 918 784 C 918 797.003906 919.964844 810 920 823 L 918 823 C 913.816406 781 885.957031 735.539063 855 708.285156 C 846 700.410156 836.382813 693.4375 826 687.570313 C 821.308594 685 814 683.496094 811 679 C 863 679 920.238281 706.21875 936.972656 759 C 945.898438 787.15625 942.691406 814.410156 939 843 M 1062 686 L 1061 687 L 1062 686 M 781 744 C 781.546875 745.636719 781.363281 745.453125 783 746 C 782.453125 744.363281 782.636719 744.546875 781 744 M 916 782 C 916.546875 783.636719 916.363281 783.453125 918 784 C 917.230469 782.6875 917.3125 782.769531 916 782 M 1320 836 L 1319 837 L 1320 836 M 1070 910.472656 C 1093.949219 904.453125 1102.941406 941.296875 1079 947.296875 C 1054 953.519531 1046.230469 916.445313 1070 910.472656 M 1147 922 C 1154.25 929.597656 1160.980469 939.125 1164.734375 949 C 1167.21875 955.523438 1168 962.085938 1168 969 C 1168 1035.71875 1067.523438 1033.8125 1050.589844 977 C 1048.289063 969.28125 1046.855469 960.007813 1048 952 L 1049 952 C 1054.507813 966.773438 1060.691406 981.113281 1073 991.699219 C 1097.207031 1012.515625 1135.867188 1012.507813 1151.621094 981 C 1157.574219 969.097656 1156.964844 954.457031 1153 942 C 1151.339844 936.316406 1145.40625 927.804688 1147 922 M 1293 938 L 1293 939 C 1275.339844 941.597656 1258.304688 951.210938 1242 958 L 1242 959 C 1265 957.164063 1287.832031 951 1311 950 C 1307.273438 954 1300.886719 955 1296 957.082031 C 1282.898438 963.042969 1263.695313 969.5625 1253 979 C 1278 978 1302.566406 971.039063 1328 971 C 1334.480469 971 1340.605469 969.476563 1347 971 L 1347 972 C 1307.359375 979.6875 1268.382813 993.808594 1230 1006 C 1236.894531 1009.316406 1247.34375 1010 1255 1010 C 1250 1015.136719 1241.574219 1016.566406 1235 1018.742188 C 1218.867188 1024.085938 1203.332031 1027.113281 1187 1031 L 1187 1032 C 1193.859375 1034 1202 1036.636719 1207 1042 C 1195.886719 1042.230469 1185 1045 1174 1045 C 1179.570313 1051.398438 1191 1056.238281 1199 1059 L 1199 1060 L 1146 1059 C 1157.195313 1070.351563 1176.636719 1077 1184 1092 C 1175.816406 1089.644531 1168.203125 1085.386719 1160 1083 C 1140.585938 1077 1118.746094 1071.472656 1102 1059.414063 C 1093.429688 1053.199219 1083.390625 1044.085938 1082 1033 C 1126.246094 1044.734375 1186 1031.371094 1189.910156 976 C 1191.171875 957.59375 1178.414063 945.621094 1176 929 C 1214.824219 941.414063 1253.742188 933.363281 1293 938 M 517 972 C 463.628906 958.15625 406.839844 958.671875 354 975.027344 C 317.738281 986.25 281.640625 1008.460938 244 1014 C 246.988281 1009.4375 253.34375 1007.734375 258 1005.136719 C 266.652344 1000.308594 274.761719 994.492188 283 989 C 334.378906 954.746094 386.257813 939.410156 448 947 C 465.691406 949 483.808594 954.632813 500 962 C 505.546875 964.523438 513.855469 966.542969 517 972 M 475 1024 C 427 1024 380 1034 333 1040.699219 C 310.753906 1044 288.375 1045.039063 266 1047.171875 C 248.910156 1048.796875 232 1047.226563 215 1047 C 209.503906 1047 198.335938 1046.71875 195 1042 C 266.46875 1042 330.511719 1003.828125 402 1007 C 420.207031 1007.757813 437.429688 1009.425781 455 1014.71875 C 461.542969 1016.691406 470.304688 1019 475 1024 M 709 1020.328125 C 738.410156 1015.769531 743.226563 1059.816406 714 1064.371094 C 684.738281 1069 680 1024.816406 709 1020.328125 M 789 1047 C 796.789063 1061.199219 803.46875 1077.40625 800.535156 1094 C 791.355469 1146 722.851563 1157.039063 687 1125.710938 C 671.472656 1112.140625 665.515625 1094.039063 666 1074 C 666.195313 1066.78125 668.292969 1054.816406 675 1051 C 675 1068.734375 676.515625 1085.777344 686.75 1101 C 707.59375 1132.003906 749.804688 1139.671875 776.5625 1111.714844 C 786.769531 1101.050781 792 1085.710938 791.742188 1071 C 791.5625 1064.320313 786 1052.722656 789 1047 M 436 1071 C 432.929688 1076 424.230469 1077.148438 419 1079.203125 C 405.609375 1084.464844 392.644531 1090.4375 380 1097.308594 C 353.820313 1111.53125 329.167969 1132.035156 307.90625 1152.714844 C 298.761719 1161.609375 287.421875 1171 281 1182 C 310 1154.148438 353.332031 1135.003906 394 1135 L 394 1136 C 345.679688 1161.339844 310 1200.035156 270 1236.171875 C 254.382813 1250.273438 237 1272.074219 218 1281 C 220.304688 1268.070313 227.171875 1254.5 231.496094 1242 C 244.863281 1203.363281 261 1163.796875 287.433594 1132 C 300.609375 1116.140625 319 1105.234375 332 1090 C 298.671875 1092.628906 266.554688 1082.53125 236 1070 C 241.957031 1067.675781 251.699219 1070.738281 258 1071.574219 C 269.398438 1073.089844 281.496094 1073.003906 293 1073 C 340.617188 1073 388.335938 1071 436 1071 M 774 1254 C 778.253906 1243.753906 785.828125 1235 790.976563 1225 C 800.488281 1206.777344 808.511719 1187.046875 820 1170 C 792 1184.265625 763.980469 1202.273438 733 1210 C 739.820313 1200.8125 751.226563 1194.285156 760 1187 C 731.1875 1192.605469 709.964844 1213.410156 683 1222 C 689.742188 1210.648438 704.285156 1200 714 1191 C 698 1195.351563 682.503906 1203.304688 668 1211.035156 C 661.296875 1214.609375 654.382813 1220.265625 647 1222 C 655.550781 1210 670 1200.0625 681 1190 C 640 1201.761719 604.960938 1233.132813 567 1251.511719 C 554.621094 1257.503906 539.867188 1266 526 1267 L 526 1266 C 552.449219 1253.035156 574.324219 1232.675781 596 1213.167969 C 604.761719 1205.28125 615.566406 1198.140625 623 1189 C 587 1208 551.890625 1228.457031 514 1243.0625 C 495 1250.347656 473.472656 1257.832031 453 1258 C 455.742188 1254 461.636719 1253 466 1251.1875 C 474.492188 1247.671875 482.753906 1243.308594 491 1239.242188 C 512.910156 1228.445313 534.609375 1217 556 1205.175781 C 566 1199.570313 578 1194.335938 587 1187 C 566 1189.808594 546.335938 1198.085938 525 1199 C 534 1190 550.941406 1185 562 1178 C 584 1164 602 1146.792969 616.667969 1125 C 622.457031 1116.3125 627.375 1107.433594 631.839844 1098 C 632.738281 1096.105469 635 1089.207031 637.75 1089.207031 C 640 1089.207031 640.976563 1097.316406 641.617188 1099 C 645.261719 1108.574219 650.660156 1118.027344 657 1126 C 675 1148.308594 704.382813 1165.3125 734 1163.789063 C 761.261719 1162.390625 785.429688 1155 804.984375 1135 C 812.328125 1127.507813 823.976563 1109.097656 836.90625 1116.316406 C 850.273438 1123.78125 848.394531 1148.660156 845.789063 1161 C 839.546875 1190.589844 820.621094 1216.480469 798 1236 C 790.714844 1242.285156 782.933594 1250.222656 774 1254 M 1358 1133.332031 C 1358.773438 1133.332031 1358 1133.832031 1357.667969 1133.667969 L 1358 1133.332031 M 1417 1163 C 1412.230469 1169.476563 1405.679688 1174.339844 1400.910156 1181 C 1390.296875 1195.8125 1382.808594 1216.832031 1381 1235 C 1404.617188 1207.707031 1440 1176.347656 1479 1176 L 1479 1177 C 1458.628906 1191 1450.929688 1208.5625 1439 1229 C 1468.886719 1208 1497.824219 1196 1535 1196 L 1535 1197 C 1523.933594 1199.394531 1510.546875 1208.734375 1503 1217 C 1515.511719 1213.097656 1529 1214 1542 1215 C 1613 1220.125 1671.507813 1284.285156 1658 1357 L 1657 1357 C 1654.519531 1346.59375 1653.765625 1336.25 1650 1326 C 1637 1289.328125 1607.671875 1253.292969 1568 1245 C 1595 1266.246094 1621.324219 1293.304688 1625 1330 L 1624 1330 C 1607.929688 1306.175781 1583.65625 1284.027344 1553 1284.027344 C 1543 1284.027344 1534.292969 1287.308594 1525 1290 L 1525 1291 C 1573.300781 1294.816406 1603.949219 1341.074219 1605.960938 1387 C 1606.683594 1403.503906 1601.433594 1418.378906 1597 1434 L 1596 1434 C 1592.847656 1405.785156 1585.390625 1379.320313 1565 1358 C 1583.367188 1392.546875 1586.28125 1439.121094 1566 1474 L 1565 1474 C 1565.253906 1461.746094 1567 1450.234375 1564.488281 1438 C 1553 1385.179688 1507.378906 1348 1454 1348 C 1463.316406 1357.445313 1476.394531 1363.289063 1485.984375 1373.003906 C 1512 1399.390625 1527 1436.074219 1527 1473 L 1526 1473 C 1520.351563 1460 1506.273438 1445.09375 1494 1438 C 1509.171875 1461.035156 1521.921875 1491 1522 1519 C 1516.851563 1515.398438 1513.503906 1508 1509.550781 1503 C 1499.621094 1490.5625 1487 1478.320313 1480 1464 L 1479 1464 C 1484 1479 1493.566406 1493 1498 1508 C 1474 1496.246094 1447.273438 1471.144531 1439 1445 L 1438 1445 C 1442.335938 1470.195313 1459.894531 1491 1474 1511 C 1435.535156 1496.730469 1407.261719 1442.550781 1394 1406 L 1393 1406 C 1395.964844 1443.265625 1398.757813 1491.222656 1420 1523 C 1428.257813 1535.167969 1440.644531 1540.050781 1450 1550 C 1411 1562.390625 1367.925781 1546.234375 1353 1506 L 1352 1506 C 1355.566406 1529.800781 1372.402344 1549.460938 1383 1570 C 1364.542969 1561.21875 1349.917969 1540.207031 1339.863281 1523 C 1335.808594 1516.066406 1333.339844 1507 1328 1501 C 1333.9375 1523.386719 1341.84375 1544.238281 1357.289063 1562 C 1364 1569.820313 1378.273438 1575.671875 1383 1584 C 1361.300781 1578 1341.789063 1572.820313 1323 1559.5625 C 1273.257813 1524.460938 1249.898438 1455.667969 1262 1397 C 1253.921875 1405 1249 1417.699219 1244.71875 1428 C 1226.71875 1470.0625 1230.542969 1519.339844 1257 1557 C 1263 1565.574219 1270.644531 1573.746094 1279 1580.101563 C 1283.730469 1583.699219 1291.730469 1586.210938 1295 1591 C 1282.9375 1591 1271.363281 1589.75 1260 1585.46875 C 1200.824219 1563.164063 1190.921875 1484.195313 1205 1431 L 1204 1431 C 1187.324219 1477 1171.847656 1522.039063 1196 1569 C 1203.34375 1583.003906 1215.585938 1591.597656 1224 1604 C 1205 1600.59375 1188.253906 1584 1177.722656 1569 C 1151.953125 1532.359375 1148.472656 1477 1171.925781 1438 C 1178.867188 1426.503906 1188.308594 1419 1198 1410 C 1141.277344 1419.761719 1121 1476 1121 1526 L 1120 1526 C 1107.539063 1499.230469 1105.445313 1466.253906 1113 1438 C 1103.742188 1448.3125 1099 1463.332031 1099 1477 C 1093.347656 1472.695313 1094.925781 1457.605469 1095 1451 C 1095.371094 1420.179688 1110.625 1395.402344 1130 1373 C 1114 1379.296875 1105.246094 1391.25 1092 1401 C 1100.433594 1352.019531 1159.695313 1316 1206 1314 L 1206 1313 C 1184.527344 1307.304688 1168.402344 1309.375 1147 1313 C 1152.894531 1300.34375 1167.554688 1290.292969 1179 1283 C 1207 1265 1243.660156 1255.496094 1277 1260.300781 C 1292.339844 1262.511719 1305.46875 1268.488281 1320 1273 C 1300.636719 1253.625 1282.921875 1238 1257 1228 C 1271 1219.523438 1298.300781 1221.179688 1314 1223.429688 C 1319 1224.164063 1331.746094 1229.140625 1336.300781 1227.375 C 1339 1226.304688 1340.191406 1220.4375 1341.308594 1218 C 1344.5625 1211 1349 1204 1354.183594 1198 C 1369.257813 1181 1394.386719 1167 1417 1163 M 587.667969 1186.332031 C 587.222656 1186.777344 588.277344 1186.722656 588.332031 1186.667969 C 588.777344 1186.222656 587.722656 1186.277344 587.667969 1186.332031 M 623.667969 1188.332031 C 623.222656 1188.777344 624.277344 1188.722656 624.332031 1188.667969 C 624.777344 1188.222656 623.722656 1188.277344 623.667969 1188.332031 M 989 1376 C 992.824219 1353.496094 997.984375 1332.121094 998 1309 L 997 1309 C 989.859375 1333.675781 977.71875 1363.261719 964 1385 L 963 1385 C 966.359375 1365.234375 972 1346.292969 973 1326 C 967.371094 1331.609375 963.847656 1341.054688 959.871094 1348 C 951.449219 1362.703125 942.226563 1377.699219 935 1393 L 934 1393 C 935.832031 1372.140625 949.921875 1352.066406 951 1331 L 950 1331 C 942.371094 1348.699219 929.996094 1364.582031 921.511719 1382 C 901.382813 1423.324219 884.914063 1469.1875 879 1515 L 877 1515 C 877 1473.1875 881.554688 1435.433594 896.425781 1396 C 904.929688 1373.445313 917.800781 1353.097656 927 1331 C 884.203125 1374.152344 847.5625 1421.171875 815.8125 1473 C 800.941406 1497.269531 789.347656 1523.441406 775 1548 L 774 1548 C 775.453125 1529.722656 784 1510.769531 790.988281 1494 C 809.855469 1448.277344 837.308594 1407 867.5 1368 C 877 1355.65625 889 1344.636719 898 1332 C 857.171875 1355.234375 819.984375 1390 787 1423 C 773.675781 1436.34375 762.261719 1455.023438 747 1466 C 738.664063 1448.078125 758.179688 1432.390625 769 1419 C 789.753906 1393.320313 815 1370.09375 840.171875 1348.765625 C 851.664063 1339.007813 867.882813 1330 877 1318 C 834.191406 1337.066406 792.554688 1357.785156 755 1386.230469 C 745.328125 1393.558594 735.503906 1400.742188 726 1408.285156 C 723.453125 1410.304688 718.269531 1416.398438 714.550781 1415.25 C 710.894531 1414.121094 709.253906 1407.152344 711.371094 1404.425781 C 718.515625 1395.226563 729.304688 1387.289063 738.171875 1379.765625 C 759 1362 781.382813 1345.78125 804 1330.113281 C 818.554688 1320.03125 833.570313 1309 850 1302 L 850 1301 C 837.925781 1301.550781 825.460938 1307.226563 814 1310.808594 C 781.832031 1321 751 1335.191406 721 1350.246094 C 710.195313 1355.652344 699.515625 1361.472656 689 1367.425781 C 685.582031 1369.359375 680 1374.113281 676 1372.171875 C 667.554688 1368.183594 672.882813 1363 678 1359.691406 C 688.824219 1352.699219 699.820313 1346 711 1339.578125 C 741.398438 1322.152344 772.789063 1306.355469 805 1292.574219 C 818.867188 1286.636719 833.871094 1279 849 1277 L 849 1276 C 790.578125 1280.609375 732.949219 1298.117188 678 1317.691406 C 664.890625 1322.363281 652.1875 1328.308594 639 1332.757813 C 635.46875 1334 627.207031 1333.773438 627.207031 1328.171875 C 627.207031 1324.085938 637.960938 1320.671875 641 1319.222656 C 655.585938 1312.261719 670.746094 1306 686 1300.496094 C 730.941406 1284.746094 776.644531 1267.355469 824 1260.132813 C 837.941406 1258.007813 851.902344 1255.0625 866 1254.089844 C 872.511719 1253.640625 882.191406 1255 887 1250 C 873.3125 1249 883.902344 1232.546875 887.964844 1226 C 897.355469 1211 915 1188.554688 935 1188.578125 C 948 1188.597656 960.769531 1202.339844 973 1206.691406 C 985.722656 1211.21875 1003.894531 1208.746094 1014.984375 1216.558594 C 1020.828125 1220.675781 1024.269531 1227.824219 1029 1233 C 1036.644531 1241.109375 1047 1246.328125 1051.371094 1257 C 1069.757813 1302 1024 1354.308594 989 1376 M 714 1190 L 715 1191 L 714 1190 M 1674 1196.332031 C 1674.773438 1196.332031 1674 1196.832031 1673.667969 1196.667969 L 1674 1196.332031 M 355 1237 L 355 1238 C 334.980469 1250.519531 316.238281 1269.28125 303.34375 1289 C 297.625 1297.742188 293.808594 1313.390625 286.488281 1320.300781 C 279.558594 1327 263.832031 1328.648438 255 1332.425781 C 238 1339.691406 223.214844 1350.457031 207 1359 C 214.300781 1345 230.90625 1332.632813 241.816406 1321.089844 C 267.753906 1293.644531 290.644531 1267 325 1249.566406 C 334.414063 1244.808594 344.425781 1238.585938 355 1237 M 878.667969 1317.332031 C 878.222656 1317.777344 879.277344 1317.722656 879.332031 1317.667969 C 879.777344 1317.222656 878.722656 1317.277344 878.667969 1317.332031 M 898 1332 C 899.3125 1331.230469 899.230469 1331.3125 900 1330 C 898.363281 1330.546875 898.546875 1330.363281 898 1332 M 489 1333 L 489 1334 C 474.191406 1343.105469 462 1356.476563 456 1373 C 473.347656 1355.644531 494.4375 1341.101563 520 1340 C 508.828125 1353.527344 496.808594 1364.175781 488 1380 C 525 1355.773438 571.964844 1355.035156 609 1380 L 609 1381 C 590.445313 1381 575.664063 1383.328125 558 1389 L 558 1390 C 587.652344 1389.753906 611.972656 1392.007813 639 1405.757813 C 648.414063 1410.546875 660.839844 1417.480469 666 1427 C 654.789063 1423.796875 644.949219 1420.03125 633 1420 C 645 1431.667969 659.765625 1439 670.242188 1453 C 698.421875 1491 701 1545.527344 675 1585 L 674 1585 C 676 1571.328125 680.578125 1559.15625 679.960938 1545 C 677.765625 1494.824219 644.828125 1451.054688 596 1438 L 596 1439 C 629.664063 1454.300781 649.566406 1492.484375 653.816406 1528 C 655.621094 1543.109375 652.644531 1558.070313 652 1573 L 650 1573 C 650 1519.316406 616.820313 1479.109375 571 1455 C 579.433594 1465.453125 589.851563 1473.4375 597.300781 1485 C 615.898438 1514 624.691406 1554 613.492188 1587 C 608.871094 1600.664063 598.425781 1618.214844 584 1623 C 604 1585 595.707031 1542 568.246094 1509 C 559.746094 1498.800781 547.972656 1487.105469 535 1483 C 559.96875 1513.742188 571.863281 1555.4375 559 1594 C 553.652344 1610.035156 544 1626.03125 528 1633 C 531.484375 1626.167969 536 1620.4375 538.480469 1613 C 545.617188 1591.339844 542.207031 1570.683594 538 1549 L 537 1549 C 537 1575.648438 536.226563 1606.167969 512 1624 C 514.1875 1611.679688 519 1600.820313 519.910156 1588 C 520.636719 1577.398438 517.453125 1567.429688 517 1557 L 516 1557 C 516 1586.117188 500.71875 1616.664063 473 1629 C 476.621094 1616.425781 482.492188 1605.378906 483.828125 1592 C 486.746094 1562.816406 474.59375 1523.828125 455 1502 C 464.621094 1538.367188 461.976563 1596.050781 428 1620 C 428.429688 1610.039063 427.785156 1601 427 1591 L 425 1591 C 423.96875 1604 418.25 1617.40625 412.640625 1629 C 411.878906 1630.578125 408 1641 405.726563 1639.652344 C 402.910156 1638.160156 402 1626.109375 401.269531 1623 C 396.726563 1605.128906 396 1587.335938 396 1569 L 395 1569 C 390.921875 1582.492188 386 1593.632813 386 1608 L 385 1608 C 372.792969 1565.816406 367.761719 1521.445313 387 1480 C 346.753906 1505.175781 333.675781 1564.65625 348 1607 C 319.390625 1593.675781 320 1555.027344 320 1529 L 318 1529 C 317.570313 1537.421875 313.925781 1545.667969 312.464844 1554 C 309.71875 1569.667969 311 1585.085938 316 1600 C 292.917969 1589 291.5625 1556.269531 292 1535 L 291 1535 C 288.65625 1546.246094 285 1555.226563 285 1567 C 276.65625 1562 274.371094 1548.808594 272.257813 1540 C 264.371094 1507.132813 284.800781 1462.769531 315 1448 C 306 1447.21875 294.566406 1453 287 1457.226563 C 265.351563 1469.535156 247.722656 1488.464844 237 1511 C 232.878906 1519.738281 232.246094 1532.363281 227 1540 C 216.242188 1506 219.394531 1466.820313 245 1440 C 254.636719 1430 266.996094 1426.492188 277 1418 C 225.9375 1431.542969 185.367188 1485.230469 205 1539 C 199.605469 1535.726563 197.238281 1528.664063 195 1523 C 188.464844 1506.425781 188 1489.355469 190.726563 1472 C 198.914063 1419.507813 254.464844 1368.777344 310 1382 C 302.953125 1374 293 1369.71875 283 1367 C 286 1362.660156 293.992188 1362.148438 299 1361.429688 C 315.785156 1359.019531 334.523438 1365.03125 350 1371 C 345.257813 1365.175781 338.296875 1361.726563 332 1357.796875 C 330.335938 1356.753906 326.433594 1355 327.347656 1352.296875 C 329.25 1347 344 1344.21875 349 1343.003906 C 367 1338.480469 388 1339.828125 406 1344.582031 C 412.84375 1346.394531 423.203125 1353.460938 430 1353 C 435.449219 1352.5625 441.90625 1346 447 1343.585938 C 460 1337.683594 474.527344 1333.300781 489 1333 M 455 1373 L 456 1374 L 455 1373 M 1493.332031 1436.667969 C 1493.277344 1436.722656 1493.222656 1437.777344 1493.667969 1437.332031 C 1493.722656 1437.277344 1493.777344 1436.222656 1493.332031 1436.667969 M 1436 1442 L 1437 1443 L 1436 1442 "/></g></svg>