<svg xmlns="http://www.w3.org/2000/svg" xmlns:xlink="http://www.w3.org/1999/xlink" viewBox="0 0 100 100" version="1.1"><g transform="translate(6.5584275814826185, 1) scale(0.053491624876334735) translate(-192.761719, -78.199219)"><path style=" stroke:none;fill-rule:nonzero;fill:rgb(0%,0%,0%);fill-opacity:1;" d="M 339 1791 C 316.992188 1791 295 1794 273 1794 L 273 1795 C 293 1802.511719 316.894531 1804.515625 338 1807.289063 C 363.945313 1810.699219 390.800781 1814.460938 417 1815 L 417 1816 C 399.378906 1818.226563 381.816406 1822.632813 364 1823 L 364 1824 C 417.921875 1837 475.96875 1834 531 1834 L 531 1836 C 513 1837.558594 496 1845.566406 478 1847 C 483.28125 1854 503.84375 1851.394531 512 1852.171875 C 546.351563 1855.4375 580.601563 1853 615 1853 L 615 1854 C 590.707031 1863.570313 567.777344 1875.40625 543 1884 L 543 1885 C 568.546875 1885 593.78125 1882.367188 619 1878.246094 C 629.855469 1876.472656 646.296875 1869.679688 657 1871.507813 C 669.496094 1873.644531 682.527344 1886.136719 695 1890.496094 C 729.253906 1902.46875 767.652344 1909.824219 804 1910 C 858.777344 1910.261719 912.800781 1906.355469 966 1892.265625 C 984 1887.460938 1001.800781 1881.058594 1019 1873.574219 C 1026.265625 1870.414063 1036.1875 1862.585938 1044 1862.027344 C 1048.953125 1861.671875 1054.558594 1865.738281 1059 1867.546875 C 1070.828125 1872.367188 1082.828125 1877 1095 1880.804688 C 1128.503906 1891.484375 1164 1896.519531 1199 1899 C 1240.859375 1901.777344 1287.1875 1900.1875 1328 1890.257813 C 1340.492188 1887.21875 1353 1883.734375 1365 1878.714844 C 1371 1876.128906 1378.523438 1870.019531 1385 1869.214844 C 1397.351563 1867.675781 1414.566406 1874.804688 1427 1876.726563 C 1455.984375 1881.203125 1485.640625 1885 1515 1885 L 1515 1884 C 1505.5 1878.671875 1493.414063 1877.023438 1483 1874 C 1460.441406 1867.339844 1437.953125 1860.46875 1416 1852 L 1416 1851 C 1455.324219 1851 1493.898438 1848.699219 1533 1846.023438 C 1542.953125 1845.34375 1553.222656 1843.335938 1563 1841.335938 C 1567 1840.515625 1571.675781 1840.589844 1574 1837 C 1530.785156 1837 1486 1834.382813 1444 1824 L 1444 1823 C 1467.699219 1815.472656 1492.53125 1815.160156 1517 1812.828125 C 1558.855469 1809 1600.648438 1805.160156 1642 1797.261719 C 1659.492188 1794 1676.195313 1789.179688 1693 1783.34375 C 1698.660156 1781.378906 1707.480469 1780.15625 1711 1775 C 1656 1782 1598.234375 1790 1543 1783 L 1543 1782 C 1569.863281 1781 1599.941406 1771.039063 1626 1764.371094 C 1656.628906 1756.53125 1695.324219 1746 1718.996094 1724 C 1749.191406 1695.804688 1750.714844 1647.136719 1748 1609 C 1741.382813 1511.613281 1682.785156 1423.316406 1625.253906 1348 C 1601.277344 1316.613281 1573.738281 1287.066406 1546 1259 C 1538.398438 1251.300781 1530.921875 1243.207031 1523.871094 1235 C 1521 1231.8125 1516.347656 1227.539063 1516.222656 1223 C 1516 1217.496094 1523.371094 1210.269531 1526.421875 1206 C 1535.417969 1193.402344 1544.589844 1180.4375 1552.28125 1167 C 1554.402344 1163.289063 1559.3125 1150.722656 1565 1153.636719 C 1569.1875 1155.769531 1572.503906 1160.632813 1576 1163.714844 C 1588.492188 1174.734375 1599.9375 1187 1611.289063 1199.089844 C 1646 1236.351563 1675.984375 1277.605469 1699.257813 1323 C 1706.5625 1337.246094 1718.261719 1354.152344 1721 1370 L 1723 1370 C 1722.816406 1304 1681.65625 1242.550781 1639.714844 1195 C 1624.425781 1177.667969 1607.308594 1162.300781 1591 1146 C 1586.613281 1141.613281 1574.988281 1133.664063 1574.847656 1127 C 1574.753906 1122.511719 1578.65625 1117.761719 1580.691406 1114 C 1582.972656 1109.78125 1585.796875 1099.15625 1590.273438 1097.023438 C 1593.929688 1095.28125 1600.9375 1101.015625 1604 1102.8125 C 1617 1110.464844 1630.210938 1118 1643 1126.054688 C 1681.808594 1150.632813 1720.859375 1175.734375 1756 1205.425781 C 1768.890625 1216.316406 1781.988281 1227.136719 1794 1239.003906 C 1801 1246 1808.453125 1256.105469 1817 1261 C 1808.945313 1237.425781 1790.757813 1216 1774 1198 C 1737.996094 1159.1875 1694 1130 1650 1101 C 1638.347656 1093.332031 1625.71875 1087.226563 1614 1079.65625 C 1610.597656 1077.457031 1604 1075 1602.648438 1071 C 1600.894531 1066 1606 1057 1607.441406 1052 C 1608.441406 1048.480469 1608.476563 1042.316406 1610.988281 1039.527344 C 1613.628906 1036.597656 1620.183594 1040.675781 1623 1041.800781 C 1634.988281 1046.597656 1647 1051.089844 1659 1056.148438 C 1690.660156 1069.636719 1722.730469 1082 1754 1096.375 C 1770.804688 1104.121094 1788.996094 1117 1807 1121 C 1798.652344 1109.152344 1785.554688 1099.230469 1774 1090.628906 C 1745 1069.0625 1711.375 1052.230469 1678 1038.601563 C 1663 1032.515625 1648 1026.492188 1633 1021 C 1628.640625 1019.347656 1618.382813 1017.09375 1616 1012.773438 C 1612.90625 1006.652344 1618 991 1618.835938 984 C 1619.191406 981 1619 977.207031 1623 976.746094 C 1637.214844 975.078125 1655.992188 983.042969 1670 985.574219 C 1707.175781 992.296875 1743.867188 1001.375 1781 1008.308594 C 1791.953125 1010.355469 1802.871094 1014.113281 1814 1015 L 1814 1014 C 1773.21875 987.015625 1724.875 975 1678 963.472656 C 1664.539063 960.167969 1650.652344 957.285156 1637 955.015625 C 1632.175781 954.210938 1622 954.148438 1618.601563 950.4375 C 1613.746094 945.242188 1617.453125 929.449219 1617.910156 923 C 1618 920.554688 1617.402344 916.769531 1619.601563 915.027344 C 1623.4375 912 1634.296875 914 1639 914 C 1670.707031 914 1701.515625 917.007813 1733 920.167969 C 1746.941406 921.566406 1761 925.394531 1775 926 C 1770.214844 918.695313 1755.90625 914.761719 1748 911.601563 C 1720.546875 900.621094 1691 894.605469 1662 890.421875 C 1652.460938 889.050781 1642.628906 887.460938 1633 887.039063 C 1629.296875 887 1623.453125 888.085938 1621.601563 884 C 1620 880.421875 1621 875.671875 1620.714844 872 C 1619.417969 861.023438 1618.929688 850 1617.832031 839 C 1615 812.214844 1610 784.324219 1600.773438 759 C 1590 730.003906 1576.21875 703.230469 1559.9375 677 C 1543 649.785156 1523.515625 623 1520.171875 590 C 1517 560 1523.832031 528.832031 1527.71875 499 C 1533.285156 456.269531 1537 413.074219 1537 370 C 1537 328.695313 1537.484375 284 1521.597656 245 C 1514.605469 228 1501.585938 208.015625 1483 202.222656 C 1459.636719 195 1430.640625 207.460938 1410 217.753906 C 1373.542969 236 1341.199219 260.652344 1312.425781 289.425781 C 1297.554688 304.296875 1283.855469 326 1267 338 C 1272.957031 315 1274.367188 291.074219 1280.910156 268 C 1290.914063 232.703125 1307.214844 202 1328 172 L 1327 171 C 1269.394531 203.074219 1231.453125 273.007813 1223.285156 337 C 1221 354.621094 1222.640625 370.585938 1223 388 C 1205 371.628906 1198.585938 339.6875 1193.574219 317 C 1179.769531 254.488281 1169.808594 180.074219 1185 117 C 1175.828125 125.382813 1173.761719 145.402344 1170.191406 157 C 1156.449219 201.644531 1156.429688 254.109375 1162.285156 300 C 1164.316406 316 1167.765625 331.5625 1172 347 C 1172.972656 350 1178 360.488281 1176.304688 363.019531 C 1175.210938 364.523438 1171.246094 362.425781 1169.996094 362.003906 C 1164.390625 360.109375 1158.695313 358.59375 1153 357 C 1128 350.042969 1103.507813 344.605469 1078 340.589844 C 1048.621094 336 1018.679688 335 989 335 C 981.507813 335 961.578125 340.070313 955.820313 334.398438 C 952.1875 330.816406 951 322.730469 949.492188 318 C 944.953125 304.375 940.871094 290.625 936.332031 277 C 920.738281 230.167969 902 184 877.421875 141 C 871 130 864.292969 119.394531 856.859375 109 C 853.894531 105 851.496094 99.53125 847 97 C 853.21875 123.238281 863.871094 148.730469 870.523438 175 C 879 209.027344 884 245 895.695313 278 C 905 305.003906 919.472656 330.214844 929.574219 357 C 939 382.074219 944.585938 408.828125 950 435 C 910.449219 404.75 898.542969 349.234375 876.742188 307 C 851.40625 258 810.710938 217 769 181.726563 C 752.242188 167.558594 731.3125 149.542969 711 141 C 712.710938 147.09375 718.332031 152.054688 722.210938 157 C 729.957031 167 737.699219 176.78125 745 187 C 771.269531 223.78125 797.84375 260.308594 819.695313 300 C 826.890625 313.070313 834.902344 325.738281 841.742188 339 C 844.230469 343.824219 849 350.5625 841.976563 353.445313 C 837 355.417969 826 360 821 358.355469 C 813 356 805.292969 343 799.925781 337 C 782.988281 318.328125 766.722656 299 748.996094 281 C 682.394531 213.597656 611.53125 151 524 112.140625 C 496.621094 100.035156 449.914063 78.199219 422 98.765625 C 407.648438 109.339844 398.546875 127.410156 390.753906 143 C 374.742188 175.019531 362.394531 208.574219 352.578125 243 C 323.339844 345.550781 318.769531 455.769531 334.273438 561 C 342.953125 620 365.355469 677.527344 367.960938 737 C 369.453125 771.121094 356.648438 803.640625 351.4375 837 C 344.246094 883.050781 344.757813 932 351.429688 978 C 358.332031 1025.675781 371.703125 1071.148438 389 1116 C 394 1129 400 1141.742188 406.550781 1154 C 408.835938 1158.351563 414.578125 1166.320313 413.730469 1171.425781 C 411.890625 1182.519531 394.550781 1197.3125 387.601563 1206 C 365.71875 1233.339844 343.796875 1260.496094 323.421875 1289 C 266.457031 1368.683594 212.269531 1465.292969 199.289063 1564 C 193.445313 1608.441406 192.761719 1653 207 1696 C 214.65625 1719.175781 227.238281 1742 248 1755.644531 C 265.789063 1767.453125 287.597656 1775 308 1780.710938 C 316.492188 1783.148438 332.949219 1784.753906 339 1791 M 760 421 C 754 418.273438 750.171875 412.828125 745 409.015625 C 733.328125 400.402344 720.808594 392.632813 707 388 C 718.613281 407.46875 724 430 732 451 C 724.921875 449.019531 719 442.164063 713 438.027344 C 701.792969 430.371094 689.453125 424 677 418.566406 C 632.910156 399.613281 579.601563 393 532 399 L 532 400 C 545.242188 400.109375 558.71875 405 571 409.519531 C 604.363281 422 636.214844 443.503906 661.960938 468 C 672.980469 478.378906 686.699219 490 693 504 C 676 496.113281 661.886719 484.328125 644 477.613281 C 633.921875 474 620 475.382813 611 470.820313 C 605.457031 468.050781 601.984375 462.109375 597.535156 458 C 589.800781 451 581 444.832031 572 439.453125 C 532.871094 416.175781 480 404.625 435 413 C 438.78125 401.519531 463.535156 393.316406 474 389.203125 C 514.570313 373.246094 566.78125 367.261719 608 385 C 600.925781 377.339844 589.242188 373.230469 580 368.742188 C 550.265625 354.296875 518.984375 346.417969 486 345 L 486 344 C 509.820313 337.289063 533.21875 334 558 335.039063 C 568.785156 335.511719 580.402344 339.730469 591 339 C 549.6875 313.710938 502.597656 297.5625 457 282 L 457 281 C 470.71875 277 491.96875 282.398438 506 284.574219 C 551.546875 291.640625 593.933594 313 633 336.449219 C 642.363281 342.097656 650.480469 349.691406 660 355 C 625.953125 321 586.972656 294.417969 543 274.664063 C 530.4375 269.023438 517.300781 262.800781 504 259.152344 C 495.648438 257 482.980469 256 476 251 C 487 248.21875 502.765625 251.308594 514 253 C 550.519531 258 591.621094 272.355469 621 295 C 607.8125 276.28125 584 260.753906 565 248.566406 C 531 227 494.992188 208.820313 454 207.039063 C 442.445313 206.539063 431.292969 209.339844 420 211 C 423.1875 197.558594 438.683594 189.347656 451 186.015625 C 481.96875 177.636719 512.488281 188.660156 541 200.199219 C 610 228.15625 668.746094 285.414063 714 343 C 730.867188 364.464844 754 393.722656 760 421 M 405 254 C 402.960938 279.8125 395.867188 305.015625 394 331 C 388 419.402344 395.640625 514 420.707031 599 C 428.769531 626.390625 438.195313 653.539063 451.257813 679 C 454.402344 685.136719 465 699.257813 455.941406 704.3125 C 443 711.375 428.5 699 421.9375 689 C 404.710938 663 395.621094 630 388 600 C 366.765625 514.527344 361.210938 424.542969 378.550781 338 C 382.585938 318 388.175781 298.472656 394.667969 279 C 397.34375 271 399.277344 260.410156 405 254 M 1410 365 C 1434 356.265625 1457.425781 343.125 1484 350 C 1491.46875 351.800781 1498 356.050781 1502.957031 362.089844 C 1504.21875 363.664063 1507 367.085938 1505.757813 369.308594 C 1504.386719 371.5625 1494.617188 370.078125 1492 370.425781 C 1478.847656 372.15625 1466.949219 375.296875 1455 381.269531 C 1428.640625 394.453125 1407.546875 416.453125 1387 437 C 1377 447 1366.679688 460.421875 1354 467 C 1357.53125 431.574219 1384.210938 403.472656 1402 375 C 1387.503906 386.503906 1372.289063 397.050781 1359 410.015625 C 1347.371094 421.355469 1336 437 1322 445 C 1330.722656 393.699219 1370.546875 346.34375 1415 321.824219 C 1432.605469 312.117188 1451.539063 304.015625 1472 304 L 1472 302 C 1418.613281 297.785156 1377.46875 321.78125 1342.171875 361 C 1331 373.324219 1321.25 386.730469 1310 399 C 1305.625 404 1301 410.113281 1295 413 C 1312 351 1370 299.0625 1432 285.011719 C 1453.640625 280.101563 1484.734375 274.203125 1497.214844 298 C 1499.261719 302 1505.648438 314.085938 1502.867188 318.398438 C 1501.34375 320.757813 1496.40625 320.039063 1494 320.464844 C 1486.5625 321.769531 1479 323.523438 1472 326.050781 C 1450.761719 333.59375 1423.703125 346.394531 1410 365 M 968 371 C 983 387.335938 998.503906 404.003906 1011.574219 422 C 1019.746094 433.25 1026.390625 448.183594 1036 458 C 1031.371094 439.230469 1024.804688 419 1022 400 L 1023 400 C 1073.632813 475.113281 1100.761719 559.277344 1102.984375 650 C 1103.582031 674.421875 1101.191406 699.339844 1095 723 C 1094.25 726 1089.625 745.496094 1085.484375 743.652344 C 1082 742.175781 1078.78125 728.503906 1077 725 C 1068.253906 705.683594 1060.980469 685.792969 1053.253906 666 C 1029.390625 605 991 538.128906 918 533.089844 C 872 530 831.714844 554 801 586 C 781.9375 606 765.21875 636.472656 735 641 C 746.886719 624.128906 765 612 778 596 C 763.914063 600.28125 748.46875 600.753906 734 603.460938 C 719.605469 606.152344 705.339844 610.5625 691 613 C 696.375 606 704.964844 601 712 595.628906 C 732.246094 580.441406 753.339844 568.820313 777 560 C 766.761719 555.074219 751.226563 556 740 556 L 740 555 C 762 539.082031 782 521 806 507.28125 C 811.496094 504.15625 817 501.074219 823 499 C 824.476563 498.355469 828.863281 497.632813 828.367188 495.242188 C 826.898438 488.152344 808.234375 485.757813 804 480 C 834.917969 480 862.933594 485.808594 893 492 C 885.585938 483.511719 872.8125 475.023438 868 465 C 903.933594 472.417969 940.640625 484.003906 972 503.425781 C 986.917969 512.664063 998.871094 525.046875 1013 535 C 1003.804688 495 991.40625 455.5625 980 416 C 977.1875 405.628906 974 395.316406 970.882813 385 C 969.605469 380.796875 966.808594 375.28125 968 371 M 1502 424 C 1478.628906 423.808594 1458.390625 427.480469 1438 440.066406 C 1423.269531 449.15625 1408.996094 464.8125 1393 471 C 1402.894531 443.8125 1427.765625 412.734375 1457 405.804688 C 1474 401.761719 1496.335938 404.378906 1502 424 M 1249 486 L 1250 486 L 1250 434 C 1258.328125 440.128906 1261.695313 460.332031 1264.421875 470 C 1270 490 1274.664063 511.328125 1276.828125 532 C 1278.5625 548.546875 1278 567 1282 583 L 1283 583 C 1290.710938 559.339844 1309.664063 542.058594 1325.828125 524 C 1332.542969 516.5 1338.636719 506.367188 1348 502 C 1346.382813 511.101563 1343.183594 519.632813 1342 529 C 1351 522 1359.171875 510.203125 1372 509.226563 C 1385.371094 508.207031 1403.410156 521 1414 528 C 1450 552.046875 1482.191406 597.105469 1492 640 C 1456.246094 616.351563 1437.835938 573.453125 1393 562.75 C 1326.441406 547 1296 627.53125 1301.171875 680 C 1302.949219 698.386719 1311 713.675781 1316 731 C 1300 721.8125 1281 709.4375 1269.449219 695 C 1231.488281 648 1244.488281 577 1237.714844 521 C 1234.972656 498.363281 1228.78125 476.355469 1220.945313 455 C 1217.371094 445.253906 1211.863281 436 1209 426 C 1229.863281 436.09375 1244.773438 464.222656 1249 486 M 1497 464 C 1475.878906 464 1456.796875 472.609375 1439 483.464844 C 1429.839844 489.050781 1421.324219 497.710938 1411 501 C 1424.179688 476 1442.6875 448 1475 452.578125 C 1482.875 453.71875 1492.925781 456.554688 1497 464 M 656 531 C 644.65625 528 633.171875 516.042969 623 509.8125 C 601.25 496.484375 578 485.625 556 473 C 563 470.238281 577.972656 476.144531 585 478.695313 C 612 488.527344 641 505.285156 656 531 M 615 551 C 607.554688 546.8125 601.578125 540 594.828125 534.65625 C 578.511719 522.027344 561.535156 510 544 499.0625 C 536.230469 494.242188 528.222656 489.367188 520 485.359375 C 515.65625 483.242188 509.921875 482 507 478 C 549.445313 478.351563 600.3125 510.652344 615 551 M 934 603.332031 C 963 598.582031 982.617188 653.046875 950 657.789063 C 920.230469 662.117188 901 608.699219 934 603.332031 M 1395 620.304688 C 1420.414063 616.289063 1435.550781 662.746094 1408 667.378906 C 1382.886719 671.601563 1367.84375 624.597656 1395 620.304688 M 836 623 C 835.480469 629.371094 833.75 635.601563 833.171875 642 C 832.832031 645.742188 833.613281 649.292969 833.914063 653 C 834.21875 656.746094 834.230469 665.617188 837.601563 668.070313 C 840.882813 670.464844 848.628906 666.617188 852 665.585938 C 863.273438 662.132813 879.496094 651.230469 891 652 C 883 664.097656 873.773438 675.304688 864 686 C 860.871094 689.53125 853 696 853 701 C 853 708.03125 864.222656 717 869 721.160156 C 888.59375 738.585938 913.765625 746.152344 939 737.480469 C 981 723.019531 988.371094 675.011719 981 637 C 991.539063 642.515625 998.488281 656.480469 1003 667 C 1019 703.039063 1013.386719 748.359375 976 768.21875 C 927.234375 794.121094 859.5625 780.558594 826.476563 736 C 807.628906 710.613281 803.894531 677.777344 816.425781 649 C 820.316406 640.054688 827 627.535156 836 623 M 1358 659 C 1354.332031 672.3125 1339.238281 690.644531 1342.433594 705 C 1343.878906 711.5 1350.386719 717.550781 1355 722 C 1374.453125 740.550781 1405.632813 744.65625 1425.570313 724.699219 C 1447.875 702.378906 1440.53125 675.351563 1437 648 C 1445.804688 652.457031 1451.890625 663.757813 1456.800781 672 C 1474 701 1474.222656 744 1441 761.675781 C 1431.191406 767 1419 769.480469 1408 770 C 1369.800781 771.617188 1335 748 1324 711 C 1322 704.222656 1316 687.210938 1319.605469 680.5625 C 1321.207031 677.515625 1328 676.65625 1331 675.191406 C 1340.261719 670.558594 1348.183594 662.25 1358 659 M 560 662 C 555.308594 670.109375 544.671875 675.414063 538 682.003906 C 519.375 700.40625 499.191406 719.070313 486 742 C 503.644531 727.644531 524.503906 711.136719 546 703 C 542.5 709.660156 535.234375 714.652344 530 720 C 520.988281 729.253906 512.632813 739.238281 504 749 C 478.679688 778.339844 455 812.617188 441 849 C 451.308594 839.085938 457.363281 823.359375 471 817 C 462 838.277344 452 858.449219 446.378906 881 C 431.421875 939.464844 434.316406 1011 458 1067 C 458.847656 1063.570313 461 1048.207031 465.957031 1048.207031 C 467.832031 1048.207031 467.878906 1051.820313 467.957031 1053.003906 C 468.371094 1059.507813 469.1875 1065.621094 470.652344 1072 C 476.507813 1097.542969 487.582031 1122.265625 500.425781 1145 C 504 1151.425781 507.707031 1158 511.835938 1164 C 512.855469 1165.515625 514.472656 1169 516.664063 1169 C 519.527344 1169 522 1164 523.476563 1162 C 528.863281 1155 534.683594 1148.316406 541 1142 C 564.890625 1118.105469 589.835938 1096.410156 618 1077.667969 C 697.640625 1024.667969 783.761719 997 878 985 L 878 986 C 833 1012.101563 780.625 1028 733 1048.328125 C 666.238281 1077.050781 600 1111.785156 544 1158.433594 C 538.835938 1162.734375 523.867188 1171.761719 523.246094 1179.015625 C 522.796875 1184.3125 530 1192.046875 533 1196 C 543 1209.21875 553.1875 1222.285156 563.855469 1235 C 570.441406 1243 576.773438 1250.691406 583.996094 1258 C 585.9375 1260 589.703125 1265.808594 592.996094 1264.792969 C 600.351563 1262.523438 607.808594 1244.140625 612 1238 C 628.839844 1214.351563 647.359375 1192.179688 667 1171 C 720 1114.035156 788.28125 1066.214844 861 1038 C 857.464844 1045 847.992188 1049.742188 842 1054.609375 C 828.484375 1065.589844 815.203125 1076.773438 802 1088.128906 C 754.355469 1129.117188 706.453125 1168.640625 663.816406 1215.039063 C 649.378906 1230.75 635 1247 622 1264 C 619 1268.082031 610.199219 1276.5 610.871094 1282 C 611.578125 1287.804688 622.707031 1294.515625 627 1298 C 642 1309.699219 657.859375 1320.363281 673 1332 C 700.789063 1246.597656 754.867188 1167.683594 825 1111.800781 C 845.96875 1095.09375 869.199219 1076.6875 894 1066 C 890.335938 1074 881 1080 875 1086 C 861.289063 1099.710938 847.542969 1113.355469 834.515625 1127.714844 C 795 1171.246094 758.605469 1217.089844 726 1266 C 714.628906 1283.054688 703.894531 1301 694.296875 1319 C 691.882813 1323.558594 684.363281 1333.5625 685.664063 1339 C 686.742188 1343.265625 696.375 1347 700 1349 C 710.640625 1355.199219 721.738281 1361.125 733 1366.140625 C 738.308594 1368.503906 746.492188 1370.21875 750 1375 C 732.558594 1375 713.863281 1369.34375 697 1365.128906 C 692.785156 1364.074219 681.324219 1359 677.558594 1361.789063 C 674.28125 1364.222656 672.996094 1371.363281 671.433594 1375 C 665.960938 1387.730469 662.839844 1401.457031 657 1414 L 656 1414 C 656 1400 658.898438 1385.820313 661.386719 1372 C 662 1368 665.273438 1359.171875 662.957031 1355.394531 C 660.667969 1351.660156 653.734375 1350.339844 650 1348.476563 C 639.824219 1343.40625 629.867188 1338.078125 620 1332.421875 C 612.589844 1328.171875 605 1324.039063 598 1319.332031 C 595.3125 1317.558594 591.628906 1314.210938 588.375 1316.542969 C 583.246094 1320.21875 579.53125 1328.714844 576.257813 1334 C 567.695313 1347.820313 559.371094 1361.609375 551.78125 1376 C 548.339844 1382.519531 545.429688 1393.003906 539 1397 C 544.355469 1374 551.886719 1351 561 1329 C 563.335938 1323.40625 573 1308.761719 570.839844 1303.039063 C 568.949219 1298.207031 561.792969 1294.054688 558 1290.714844 C 548.691406 1282.519531 539.71875 1273.816406 531 1265 C 506.464844 1240.164063 483.804688 1211.3125 466.425781 1181 C 448.921875 1150.464844 432.730469 1119.078125 420.53125 1086 C 376.792969 967.414063 375.417969 809.550781 472 716 C 495 693.589844 528 669.566406 560 662 M 1027 767 C 1026.382813 776.214844 1018.707031 783.757813 1012 789.410156 C 996 802.8125 976.945313 811.492188 957 817 C 895 834.035156 831.558594 821.195313 773 798.203125 C 757 792 740.9375 786.535156 726 778 L 726 777 C 735.492188 777 748.402344 776.144531 757 772 C 740.175781 767.636719 724.367188 761.195313 707 759 L 707 758 C 720.753906 753 736.210938 746.039063 751 746 C 741.886719 738.039063 715.828125 738 704 738 C 707.859375 731.640625 717 727.503906 723 723.117188 C 733.910156 715.074219 743 706.058594 752.167969 696 C 754.402344 693.519531 762.75 682.046875 766.566406 683 C 768.394531 683.339844 768.222656 687.636719 768.425781 689 C 769.40625 695.476563 771 702 773.425781 708 C 781.609375 729.757813 795.535156 748.675781 813 764 C 874.34375 817.109375 960.175781 793 1027 767 M 1490 682 C 1500 689.410156 1510.191406 696.378906 1521 702.578125 C 1528 706.632813 1537.210938 711.515625 1541 719 C 1535.578125 719.441406 1530.484375 721 1525 721 C 1533.574219 729.292969 1547.40625 730.496094 1554 742 C 1542.703125 739.585938 1532.839844 736 1521 736 C 1524.769531 740.128906 1537.898438 747.570313 1537.796875 753.722656 C 1537.730469 757.707031 1519.347656 759.734375 1516 760 C 1521 765.589844 1530 767.347656 1537 770 C 1506 813.472656 1428.648438 815.507813 1386 791.566406 C 1372.445313 784 1352.457031 772.035156 1348 756 C 1356.191406 760.667969 1363.332031 766.667969 1372 770.621094 C 1411 788.449219 1474.828125 794.359375 1492.910156 744 C 1497.652344 730.792969 1496.472656 716.511719 1493.90625 703 C 1492.714844 696.738281 1488 688.21875 1490 682 M 1320 796 L 1319 796 C 1306.636719 752.457031 1240.757813 754.023438 1206 766.695313 C 1198.273438 769.511719 1190.65625 774.265625 1185.789063 781 C 1184.480469 782.808594 1182.261719 788.71875 1179.234375 787.652344 C 1169.265625 784.152344 1175.609375 764.683594 1178.878906 759 C 1188.4375 742.386719 1208.683594 734 1227 734 C 1216 724.273438 1201.203125 723 1190 715 C 1200.761719 711 1212.8125 712.015625 1224 713 C 1266.992188 716.371094 1330.679688 744.226563 1320 796 M 1120 1041 C 1130.695313 1025.757813 1138.429688 1010 1144 992 L 1143 992 C 1138.488281 1001.730469 1128.484375 1009.515625 1121 1017 C 1101.804688 1036.195313 1076.945313 1061.238281 1050 1069 C 1061 1042.816406 1079.867188 1019 1092 993 C 1061.792969 1014.195313 1036.546875 1043 1004 1061 C 1007.878906 1051 1016.882813 1042 1022.976563 1033 C 1034.199219 1016.640625 1044 998.226563 1058 984 C 1047.46875 987.355469 1037.453125 996.652344 1029 1003.574219 C 1007.585938 1021.121094 988.855469 1041.144531 970.71875 1062 C 922.285156 1117.6875 879.332031 1179 846.269531 1245 C 832.882813 1271.773438 825.515625 1301.550781 812 1328 L 811 1328 C 819.296875 1283.34375 828.492188 1240.03125 846.425781 1198 C 866.667969 1150.566406 896.4375 1108 928.804688 1068 C 951.628906 1040 976.761719 1013.714844 1001.269531 987.089844 C 1011 976.359375 1023.605469 967 1032 955 C 1012.445313 964.597656 994 977.066406 977 990.425781 C 968.191406 997.285156 959.265625 1007.652344 949 1012 C 957.3125 993.070313 975.792969 977.242188 991 964 C 966 971.109375 942.832031 985.726563 920 997.511719 C 911.28125 1002.011719 901.691406 1009.269531 892 1011 C 910.84375 984.253906 941 963.242188 968 945.332031 C 981 936.609375 995.171875 926.46875 1010 921 L 1010 920 C 985.988281 920.511719 961.785156 930.40625 939 937 C 944 930.800781 952.628906 926.085938 960 923 L 960 922 C 939.332031 923.800781 917.597656 932 898 938.355469 C 889.542969 941.164063 880.859375 946 872 947 C 877.597656 938.269531 892.324219 931.328125 901 925.65625 C 930.269531 906.515625 962.6875 894.324219 995 881.398438 C 1016 873 1036.433594 863.105469 1055 850 C 1071 838.367188 1085.5625 823.042969 1104 815.230469 C 1140.617188 799.714844 1189 815.160156 1219 838.667969 C 1225.234375 843.582031 1231.285156 849.601563 1235.984375 856 C 1267.898438 899.460938 1220.328125 954.289063 1190.960938 985 C 1184 992.175781 1176.988281 999.148438 1169.574219 1005.746094 C 1155.902344 1018 1138.480469 1036.769531 1120 1041 M 1457 935 C 1448.457031 932.5625 1440.441406 928.476563 1432 926 C 1447.871094 942 1464.886719 961.816406 1471 984 C 1452.734375 975.371094 1438.269531 959.460938 1422 948 C 1438 971.699219 1457.28125 996.324219 1470 1022 C 1461 1020 1452.503906 1013.308594 1445 1008.332031 C 1429 997.78125 1414.570313 987.570313 1401 974 C 1410 995.082031 1421.886719 1016.253906 1432 1037 C 1424.609375 1035 1418.246094 1028.085938 1412 1023.71875 C 1396.601563 1013 1382.199219 1000.707031 1367 990 C 1374.210938 1003.132813 1380.832031 1016.371094 1387 1030 C 1387.964844 1032 1393.910156 1042.121094 1391.265625 1043.582031 C 1388.28125 1045.230469 1381.453125 1039.53125 1379 1038.171875 C 1367.542969 1031.804688 1356.664063 1025 1347 1016 C 1320.75 991.5 1298 959 1282 927 C 1275 913.234375 1267.960938 895.75 1270.4375 880 C 1275.652344 847 1315.976563 813.585938 1350 822.582031 C 1373.339844 828.757813 1389.601563 848.792969 1405.171875 866 C 1415.539063 877.460938 1426.636719 887.789063 1436.210938 900 C 1443.671875 909.515625 1455.386719 922.660156 1457 935 M 1092 876.027344 C 1083 881.042969 1090.351563 896 1099.945313 890.820313 C 1109.496094 885.710938 1101.363281 871 1092 876.027344 M 1365.214844 880.742188 C 1356.71875 884.527344 1363.820313 899.296875 1371.867188 895 C 1379.835938 890.65625 1373.980469 877 1365.214844 880.742188 M 1556 884.285156 C 1568.484375 882.8125 1587.769531 881.78125 1599.855469 885.316406 C 1604.375 886.640625 1606.242188 899 1602.398438 901.691406 C 1596.207031 906.089844 1579.367188 903 1572 903 C 1546.398438 903.011719 1520.6875 904.300781 1495 904 C 1486.960938 904 1478.945313 902.371094 1471 901.28125 C 1469.476563 901.074219 1464.207031 901.234375 1464.207031 898.789063 C 1464.207031 894.410156 1481.632813 891.53125 1485 891 C 1508.640625 886.65625 1532.335938 887.078125 1556 884.285156 M 1158 889 C 1146 894.371094 1153.175781 915.773438 1165.984375 909.667969 C 1177.5625 904.148438 1170.816406 883.160156 1158 889 M 1399 901.128906 C 1391 903.714844 1395.398438 917.535156 1403.851563 914.21875 C 1410.335938 911.671875 1406 899 1399 901.128906 M 1116 905.746094 C 1103.558594 910.492188 1109.71875 931.347656 1122.996094 926.257813 C 1135.300781 921.539063 1128.503906 901 1116 905.746094 M 1034 907.027344 C 1024.199219 912.472656 1031.976563 928.464844 1041.890625 923 C 1051.367188 917.722656 1043.875 901.65625 1034 907.027344 M 1345 907.742188 C 1333.289063 912.34375 1340.453125 932.574219 1352.910156 927.140625 C 1364.554688 922.066406 1357 903 1345 907.742188 M 1073 925.585938 C 1060 929 1065.605469 950.484375 1078.984375 946.34375 C 1091.335938 942.523438 1085.972656 922.15625 1073 925.585938 M 866 928 L 866 929 C 841.289063 935 817 944 792 948.539063 C 735.480469 959.132813 677.929688 965 621 973.273438 C 597.949219 976.667969 574.976563 980.417969 552 984.246094 C 540.601563 986.148438 528.515625 989.753906 517 990 C 523.792969 984 535.484375 980.792969 544 977.574219 C 564.417969 970 584.910156 962.386719 606 956.71875 C 669 939.773438 732.703125 928.585938 798 927 C 820.378906 926.4375 843.789063 924 866 928 M 1381 927.027344 C 1371.671875 932.335938 1379 950.441406 1389.894531 944.679688 C 1400.355469 939.085938 1392 921 1381 927.027344 M 1490 939.433594 C 1499 936.675781 1512.835938 938.746094 1522 940 C 1543.238281 942.386719 1564 946.199219 1585 950.398438 C 1593.429688 952.089844 1603.996094 951.445313 1603.996094 962 C 1603.996094 964 1604.429688 967.214844 1602.398438 968.398438 C 1596.941406 971.566406 1582 966.730469 1576 965.753906 C 1551.488281 961.78125 1527 958.316406 1503 952.253906 C 1499.691406 951.425781 1476.882813 943.507813 1490 939.433594 M 1058 983 L 1059 984 L 1058 983 M 1594 1028 C 1580.816406 1025 1568 1020 1555 1016.140625 C 1546.175781 1013.601563 1537.609375 1010.378906 1529 1007.214844 C 1518.800781 1003.464844 1506.613281 1000.691406 1497.226563 995.210938 C 1494 993.371094 1493 987.703125 1495.988281 985.027344 C 1500.464844 981 1519.59375 987.347656 1525 988.730469 C 1542.617188 993.246094 1560 999.371094 1577 1006.003906 C 1581.8125 1008 1592 1009.652344 1594.96875 1014.273438 C 1597.253906 1018.046875 1594.539063 1024 1594 1028 M 1366 989 L 1367 990 L 1366 989 M 1335 1182 L 1334 1182 C 1334 1164.761719 1330 1148.070313 1330 1131 L 1329 1131 C 1321.496094 1162.433594 1307.179688 1203.824219 1276 1220 C 1279.554688 1209.730469 1285.316406 1200.585938 1288.253906 1190 C 1291.359375 1178.808594 1291.882813 1167.097656 1295 1156 C 1286.652344 1163.710938 1281.65625 1176.136719 1274.246094 1185 C 1255.460938 1207.460938 1231.335938 1228.558594 1204 1240 C 1206.652344 1232 1212.4375 1225 1215.773438 1217 C 1221.832031 1202.714844 1225.550781 1188.085938 1229 1173 C 1209 1190.300781 1186.785156 1217.230469 1160 1224 L 1160 1223 C 1175.199219 1210.617188 1186 1179.214844 1187 1160 L 1186 1160 C 1182.410156 1169.796875 1174.238281 1177.757813 1167 1185 C 1148.878906 1203.128906 1124.402344 1224.046875 1098 1228 C 1114 1204.800781 1129 1181.285156 1140 1155 C 1118.273438 1176.726563 1087.40625 1204.621094 1057 1213 C 1060.949219 1204.535156 1069.785156 1197.429688 1075.574219 1190 C 1089 1172.601563 1103.421875 1155.070313 1116 1137 C 1099.5 1144.804688 1085.792969 1159.03125 1069 1166 C 1075.609375 1148.53125 1090.945313 1132 1103 1118 C 1130.359375 1086.296875 1161.828125 1058.65625 1193 1031 C 1211 1014.683594 1232.535156 996 1258 994.089844 C 1287.710938 992 1305.511719 1013.070313 1320 1036 C 1348.214844 1080.402344 1357.925781 1133 1335 1182 M 1494.324219 1037.601563 C 1500.675781 1034.441406 1511.242188 1040.398438 1517 1043 C 1536.488281 1051.148438 1557.234375 1059.574219 1574.9375 1071.351563 C 1578.875 1074 1579.867188 1083.4375 1574.582031 1085.632813 C 1570.347656 1087.390625 1560.867188 1080.761719 1557 1079 C 1540 1071.273438 1523.535156 1063 1508 1052.507813 C 1505.566406 1051 1487.261719 1041.113281 1494.324219 1037.601563 M 1116 1136 L 1117 1137 L 1116 1136 M 1375 1259 C 1392.234375 1271.246094 1411 1282 1430 1291.109375 C 1432.488281 1292.320313 1447.792969 1298.234375 1447.792969 1300.789063 C 1447.792969 1302.78125 1443.273438 1303.011719 1442 1303.285156 C 1435.390625 1304.699219 1428.757813 1305.449219 1422 1306 C 1404.5625 1307.105469 1385.976563 1303.289063 1370 1296.363281 C 1368 1295.550781 1353.21875 1289.15625 1355.175781 1287 C 1356.871094 1285 1362.710938 1286 1365 1286 C 1373 1286 1381 1286 1389 1284 C 1384.289063 1278.15625 1373.660156 1267.050781 1375 1259 M 1313 1261 C 1331.203125 1309.234375 1382.320313 1332.476563 1398 1383 C 1368.550781 1378 1337.8125 1352 1315 1334 C 1309.222656 1329.457031 1303.472656 1324.742188 1298 1320 C 1296.632813 1318.613281 1292.425781 1315.6875 1292.921875 1313.433594 C 1293.574219 1310.484375 1312.269531 1313.351563 1315 1314 C 1312.46875 1299.097656 1301.722656 1274.777344 1313 1261 M 1250 1277 C 1255.324219 1291.21875 1256.335938 1305.523438 1264.449219 1319 C 1276.730469 1339.398438 1296.378906 1353.503906 1309.78125 1373 C 1326.1875 1397 1331.175781 1434.566406 1328 1463 C 1299.699219 1443.0625 1279.355469 1410.355469 1255 1386 C 1248 1379.050781 1240.648438 1368.617188 1232 1364 C 1248 1395.566406 1251.632813 1431.410156 1255.714844 1466 C 1256.667969 1474.070313 1256.882813 1483 1257 1491 C 1257 1492.527344 1258.171875 1498.773438 1255.59375 1498.792969 C 1252.714844 1498.816406 1249.558594 1494.738281 1247.574219 1493 C 1241.253906 1487.457031 1234.949219 1482 1229 1476 C 1215 1462.132813 1201.6875 1447.714844 1189.894531 1432 C 1181.769531 1421.171875 1173.714844 1406.269531 1163 1398 C 1180.433594 1443.546875 1174 1493.75 1174 1541 C 1166.828125 1537.65625 1161.691406 1530.054688 1156.804688 1524 C 1144.929688 1509.285156 1135.351563 1493.367188 1126 1477 C 1122.660156 1471.152344 1119.546875 1465.140625 1116.78125 1459 C 1116 1457.601563 1115 1453.054688 1113 1453.054688 C 1110.570313 1453.054688 1110.988281 1458.535156 1110.828125 1460 C 1110 1467.417969 1107.929688 1474.78125 1106 1482 C 1100.289063 1505.351563 1092.949219 1528.503906 1084.390625 1551 C 1082.320313 1556.433594 1079.988281 1570.410156 1075.183594 1573.824219 C 1072.492188 1575.738281 1070.636719 1567.40625 1070 1566 C 1066.90625 1556.285156 1063 1546.792969 1060 1537 C 1047.601563 1497.023438 1041.691406 1457.582031 1045 1416 C 1040.824219 1420.640625 1039 1427.597656 1035.796875 1433 C 1028.90625 1444.4375 1021.390625 1455.175781 1013.574219 1466 C 1002.304688 1481.609375 990.886719 1497.195313 978.566406 1512 C 976 1515 969.398438 1525.792969 965.265625 1525.792969 C 963.203125 1525.792969 963 1522.359375 963 1521 C 962.644531 1514.726563 962.167969 1508.265625 962 1502 C 961.386719 1476.359375 960 1450.433594 969.820313 1426 C 987.234375 1382.472656 1042.855469 1364 1043 1312 L 1044 1312 C 1056.234375 1339.605469 1059.992188 1368.355469 1056 1398 C 1079 1381.796875 1100.601563 1355.511719 1110.574219 1329 C 1114.550781 1318.433594 1115.433594 1307.773438 1118 1297 L 1119 1297 C 1124.917969 1325.679688 1125.925781 1353.292969 1120 1382 C 1126.691406 1377.285156 1132.222656 1370.78125 1138 1365 C 1156.242188 1346.75 1180.75 1319.371094 1182 1292 C 1186.628906 1295.523438 1186.808594 1306.4375 1188 1312 C 1191.910156 1330.253906 1194.648438 1347.445313 1196 1366 C 1209.6875 1350.28125 1223 1333.59375 1232.742188 1315 C 1238.769531 1303.347656 1242.300781 1287.292969 1250 1277 M 400 1282 C 393.324219 1302.171875 375.941406 1318.230469 370 1339 C 382.203125 1332.15625 401.25 1332 415 1332 L 415 1333 C 377.1875 1354.601563 343 1377.714844 313.285156 1410.039063 C 301.503906 1423 289.816406 1436.078125 279.371094 1450 C 274 1457.125 268.539063 1468.214844 261 1473 C 263.691406 1457.371094 273.679688 1440.144531 280.753906 1426 C 299.679688 1388.144531 322.777344 1351.722656 350.949219 1320 C 363.488281 1306 381.546875 1288 400 1282 M 970 1310 C 977 1337.320313 979.980469 1368.535156 968 1395 C 956.691406 1420.421875 932 1437.558594 911 1454.449219 C 896.613281 1466 883 1479.429688 868 1490 C 868.277344 1456.503906 879.632813 1423 902.171875 1398 C 917.496094 1381.027344 937.234375 1369 951.550781 1351 C 961.78125 1338.136719 962 1323.046875 970 1310 M 906 1320 C 903 1326.011719 896.617188 1330.023438 892.175781 1335 C 885.695313 1342.253906 880.339844 1351 875 1359 C 887.398438 1356.664063 899.683594 1354.816406 912 1352 C 907 1361.820313 891.597656 1369.734375 882 1374.5625 C 856.464844 1387.410156 828 1391.367188 800 1394.167969 C 789.554688 1395.214844 776.171875 1397.007813 766 1394 C 792.386719 1371.804688 826.917969 1356 858 1341.445313 C 873.523438 1334.234375 889.546875 1324.738281 906 1320 M 1690 1535 L 1689 1535 C 1660.265625 1495 1628.5625 1457.386719 1589.996094 1426.398438 C 1576.175781 1415.296875 1561.191406 1405.5625 1546 1396.449219 C 1540 1393 1529.550781 1390 1526 1384 C 1541.339844 1384.042969 1556 1388 1571 1391 C 1560 1371.257813 1540.980469 1353.113281 1537 1330 C 1554.550781 1336.796875 1573.777344 1356 1587 1369 C 1620.394531 1402.246094 1649.207031 1441.820313 1670.246094 1484 C 1677.769531 1499.085938 1688.3125 1518.054688 1690 1535 M 932 1654 C 941.285156 1665.519531 951.421875 1675.105469 959.253906 1688 C 975.203125 1714.257813 982.902344 1748.59375 980 1779 C 978.769531 1793.023438 971.527344 1821.445313 956 1826 C 960.273438 1812.222656 964.90625 1799.65625 965.910156 1785 C 968.199219 1751.597656 952.671875 1714.488281 925 1695 C 933.921875 1727.699219 936.867188 1762.035156 926.859375 1795 C 923.578125 1805.808594 918.8125 1821.519531 908 1827 C 909.730469 1786.714844 897.324219 1751.320313 866 1724 C 873.785156 1751.226563 878.5625 1778 865.828125 1805 C 861 1815.152344 848.859375 1831.058594 836 1822.300781 C 823.980469 1814.058594 823.695313 1794.308594 817.742188 1782 C 804.242188 1754.101563 782 1729.464844 753 1717.398438 C 745.945313 1714.476563 737.761719 1709.769531 730 1710 L 730 1711 C 738.550781 1714.691406 744.527344 1721.515625 751 1728 C 770.636719 1747.667969 783.804688 1771.5625 788.246094 1799 C 790.273438 1811.53125 790.496094 1832 780 1841 C 782.832031 1818.617188 777.292969 1800.222656 758 1786.429688 C 753 1783 746.28125 1778.097656 740 1778 C 753.308594 1793.3125 756.796875 1829.773438 734 1838.53125 C 722.347656 1843.007813 709 1837.535156 699 1831.546875 C 649.402344 1802 649.824219 1729.8125 672 1684 C 706.792969 1612.6875 791.507813 1568.433594 869 1565.039063 C 925 1562.582031 992.285156 1581.230469 1016.386719 1638 C 1026.25 1661.238281 1027.265625 1688.734375 1020.421875 1713 C 1019.535156 1716.140625 1014.460938 1736.023438 1010.25 1735.078125 C 1007.882813 1734.546875 1006.585938 1728 1005.789063 1726 C 1001.945313 1716.652344 997.996094 1707.410156 992.328125 1699 C 978.230469 1678.074219 955.539063 1662.539063 932 1654 M 1350 1790 C 1329.804688 1802.621094 1323.203125 1818.257813 1325 1841 C 1316.335938 1834 1313 1821.734375 1311.84375 1811 C 1308.46875 1783 1318.84375 1756.007813 1334 1733 C 1309.886719 1742.140625 1292.4375 1770.144531 1286 1794 C 1283.675781 1803.410156 1285.488281 1820.460938 1278.46875 1827.605469 C 1271.175781 1835.027344 1259.867188 1829.28125 1254.183594 1823 C 1242.953125 1810.53125 1241.902344 1793.574219 1244 1778 C 1226.230469 1793.773438 1219 1815.046875 1219 1838 C 1211 1832.203125 1210 1815 1210 1806 C 1209.949219 1775.210938 1220.765625 1748.640625 1240 1725 C 1206.347656 1737.339844 1183.5625 1779.070313 1180.171875 1813 C 1179.234375 1822.355469 1181.203125 1831 1182 1840 C 1172.921875 1835.574219 1167.695313 1823.035156 1164.414063 1814 C 1153.984375 1785.269531 1158 1757.8125 1175 1733 C 1147.398438 1752 1125.578125 1781.160156 1126 1816 C 1126 1825.71875 1129.710938 1833.8125 1132 1843 C 1114.507813 1830.675781 1108.488281 1808.335938 1107.984375 1788 C 1107 1753.316406 1116.84375 1722.652344 1142 1698 C 1098.558594 1715.117188 1064.183594 1761.414063 1074 1809 C 1060.886719 1798.707031 1058 1775.503906 1058 1760 C 1058 1717.59375 1073.832031 1677.5 1107 1649.753906 C 1173.960938 1593.734375 1284.976563 1611.101563 1346 1668 C 1386.371094 1705.601563 1413.925781 1774.664063 1376.789063 1825 C 1368.453125 1836.253906 1352.449219 1839.085938 1346.226563 1824 C 1341.355469 1812.195313 1344.171875 1800.625 1350 1790 M 931 1653 L 932 1654 L 931 1653 "/></g></svg>