<svg xmlns="http://www.w3.org/2000/svg" xmlns:xlink="http://www.w3.org/1999/xlink" viewBox="0 0 100 100" version="1.1"><g transform="translate(1, 2.535470124143373) scale(0.05159889101873257) translate(-43.902344, -102.539063)"><path style=" stroke:none;fill-rule:nonzero;fill:rgb(0%,0%,0%);fill-opacity:1;" d="M 158 945 C 159.382813 947.109375 165.945313 949.800781 165.945313 952 C 165.945313 957.632813 151.207031 955.242188 151.207031 959 C 151.207031 961.566406 159.777344 963 161.363281 965.234375 C 164.820313 970.46875 149.261719 974.242188 146 975 C 148.550781 978.660156 156.289063 978.332031 157.792969 982.378906 C 159.425781 986.777344 142.28125 994.828125 140 999 C 142 999.085938 143.984375 999.300781 146 999.574219 C 165 1002.164063 139.453125 1012.753906 137.921875 1021 C 137.304688 1024.277344 145.746094 1022.367188 146.367188 1025.5625 C 147.296875 1030.328125 136.316406 1035.363281 134 1039 L 145 1039 C 142.800781 1041 133 1043.789063 133.921875 1047.488281 C 134.457031 1050 141 1048.015625 140.367188 1051.132813 C 139.5625 1055 131.578125 1057.175781 129 1060 C 131 1060.601563 136.757813 1060.570313 137.792969 1062.636719 C 139 1065.070313 124.9375 1073.714844 123 1076 L 129 1076 C 151.199219 1076.109375 122.207031 1089 122.207031 1095.226563 C 122.207031 1099.171875 131.269531 1097.386719 132.832031 1100.476563 C 135.28125 1105.308594 118.175781 1114 115 1116 L 115 1117 C 122 1117 128.1875 1117.820313 135 1120 C 128.792969 1126.203125 122.429688 1132.277344 115 1137 L 115 1138 C 120.707031 1139.804688 127 1141 133 1141 C 128.972656 1146 124 1150.386719 119 1154.164063 C 117.921875 1155 114.429688 1156.636719 115.347656 1158.527344 C 117 1162.238281 128.945313 1157.515625 128.945313 1163.277344 C 128.945313 1169.421875 117.757813 1173.105469 115 1178 L 121 1178.003906 C 139.988281 1178.242188 119.679688 1191.414063 115 1198 C 117.894531 1199 132.730469 1198.414063 132.984375 1202.144531 C 133.347656 1207.476563 120.621094 1212.679688 118 1217 C 120.402344 1217.050781 122.652344 1217.207031 125 1217.746094 L 129.996094 1219 C 143.339844 1222.070313 122.207031 1230 122.207031 1234.074219 C 122.207031 1238.308594 134.539063 1235.097656 135.367188 1239.515625 C 136.425781 1245.152344 118.230469 1252.777344 130 1256.453125 C 131.308594 1257 132.652344 1257.210938 133.976563 1257.484375 C 135.660156 1258 137.285156 1258 139 1258 C 137.382813 1260.589844 127.3125 1270.257813 129.753906 1272.820313 C 132.804688 1276.03125 140.457031 1272.320313 143 1276.589844 C 146.175781 1281.574219 134.976563 1285.246094 135.921875 1289.566406 C 136.585938 1292.597656 145 1291 146.976563 1293.453125 C 149 1296.367188 138.722656 1306.476563 137 1309 C 140.183594 1310.558594 149.351563 1311.519531 150.472656 1315.300781 C 152 1320.484375 144.214844 1325.179688 147.902344 1330.773438 C 150.304688 1334.417969 158.167969 1332.738281 159.335938 1336.515625 C 160.832031 1341.359375 153.296875 1345.777344 154.734375 1351 C 155.777344 1354.535156 161.277344 1353.726563 162.171875 1357.277344 C 162.941406 1360.328125 159.566406 1362.765625 160 1365.773438 C 160.5 1369 165 1368.734375 165.300781 1372.144531 C 165.488281 1375.507813 162 1378.472656 162.867188 1382 C 163.851563 1386.195313 169.980469 1383.726563 171.671875 1387.316406 C 173.714844 1391.660156 168 1396.28125 169.695313 1400.683594 C 170.886719 1403.792969 175.179688 1402.027344 176.683594 1404.601563 C 178.597656 1408 174.964844 1412.378906 175.503906 1416 C 176 1419.785156 181.191406 1418.226563 182.800781 1421.316406 C 184.859375 1425.28125 179.96875 1429.648438 181.648438 1433.683594 C 182.683594 1436.179688 185.625 1435.472656 187.359375 1437.023438 C 190 1439.449219 186.960938 1443.71875 187.890625 1446.679688 C 188.980469 1450.136719 194.230469 1448 195.84375 1451.292969 C 199.835938 1459.796875 189.640625 1481.101563 207 1473 C 206.898438 1475.339844 204.941406 1482 208.320313 1482.496094 C 218.328125 1484.273438 234 1474.714844 244 1472.605469 C 269.484375 1467.214844 296.945313 1464.648438 323 1467.171875 C 353.59375 1470.128906 384.550781 1479.53125 412 1493.246094 C 421.898438 1498.191406 431.558594 1503.425781 441 1509.203125 C 443.972656 1511.023438 448.289063 1515.527344 452 1515.085938 C 458.257813 1514.347656 467.242188 1504.539063 472 1500.585938 C 486.421875 1488.59375 501.765625 1478.035156 517 1467.140625 C 555.351563 1439.710938 597.730469 1415.699219 642 1399.320313 C 655.804688 1394.210938 671.226563 1386.289063 686 1385 L 686 1386 C 672.871094 1392.128906 660.816406 1400.457031 648 1407.21875 C 610.589844 1427 573.34375 1446.683594 538 1470 C 515.289063 1485 490.191406 1500.558594 471 1520.089844 C 469 1522.132813 466.707031 1524.804688 468 1527.828125 C 470.460938 1533.035156 477.84375 1537.371094 481.984375 1541.164063 C 489.984375 1548.488281 497.570313 1556.71875 504.5625 1565 C 506.894531 1567.761719 512.839844 1578.675781 516.933594 1578.078125 C 522.773438 1577.230469 529.800781 1565.238281 533.429688 1561 C 546.261719 1546 560 1532.023438 573.996094 1518 C 607.535156 1484.109375 644 1454.210938 685 1429.550781 C 697.6875 1422 710.296875 1412.707031 724 1407 C 705 1425.601563 682.535156 1441.269531 662 1458.195313 C 635.425781 1480.175781 610.226563 1503.414063 585 1527 C 565.804688 1544.792969 541.558594 1565 528.484375 1588 C 523.773438 1596.324219 533.660156 1607.269531 537 1615 C 544.625 1632.648438 550 1649.613281 550 1669 C 550 1677.011719 550 1686 544 1692 C 543.992188 1678.664063 540.480469 1666 534.394531 1654 C 530.738281 1647 524.800781 1640.660156 520 1650 C 507.566406 1623.289063 498.917969 1599.414063 478.675781 1577 C 440 1534.03125 383.601563 1501.773438 326 1494.289063 C 271.242188 1487.175781 211.199219 1502 162 1525.742188 C 124.609375 1543.796875 88.3125 1567.6875 66.449219 1604 C 48.390625 1634 43.902344 1671 50.308594 1705 C 52 1714.75 59.707031 1724.285156 60.578125 1733.816406 C 60.945313 1738 55.679688 1738.796875 53.601563 1741.390625 C 51.453125 1744.074219 50 1759.503906 53 1762 C 56.4375 1764.546875 69.804688 1754.226563 74 1753.46875 C 79.316406 1752.511719 86 1757.488281 91 1759.457031 C 99 1762.769531 108.210938 1764.574219 117 1765 C 118.796875 1765.039063 128.945313 1764 128.945313 1767 C 128.945313 1770.277344 112 1777.554688 109 1779.28125 C 94.949219 1787.328125 81 1795.601563 67 1803.71875 C 58.988281 1808.359375 52 1811 52 1821 C 77.859375 1811.265625 103 1794.539063 127 1781 C 136.1875 1775.605469 145.746094 1767.550781 156 1764.636719 C 168.3125 1761.140625 186 1765 199 1765 C 190.210938 1774.066406 175.8125 1779.363281 165 1785.800781 C 140.3125 1800.5 115.625 1815.195313 91 1830 C 81.574219 1835.667969 72 1841.585938 63 1847.667969 C 59.652344 1850 54.238281 1852.28125 52.601563 1856.183594 C 49 1864.394531 51.996094 1879.117188 52 1888 C 52 1890.070313 51 1896.539063 54.316406 1896.695313 C 58.433594 1897 64.574219 1891.058594 68 1889 C 80 1881.703125 91.878906 1873.765625 104 1866.449219 C 133.996094 1848.34375 163.519531 1829.261719 193 1810.308594 C 208.859375 1800.113281 224.816406 1787.347656 242 1779.53125 C 248.648438 1776.507813 257.890625 1780 265 1780 C 284.375 1780.09375 307.773438 1781.703125 326 1774 C 319.261719 1788.40625 297.445313 1800.386719 285 1810 C 254.476563 1833.175781 224.664063 1857.390625 194 1880.523438 C 181.832031 1889.707031 159.515625 1902.0625 153 1916 C 173.539063 1912.335938 195.9375 1893.375 213 1882 C 245 1860.609375 276 1836.703125 306 1812.390625 C 316.273438 1804.042969 326.664063 1796 337 1787.601563 C 341.691406 1784 346.414063 1778.179688 352 1776 C 364.9375 1770.464844 384 1770 398 1768 C 382.183594 1790.453125 357.929688 1808.347656 339.714844 1829 C 333.71875 1835.800781 325.757813 1841.570313 322 1850 C 330.757813 1846 338.335938 1837.558594 346 1831.652344 C 362.503906 1819 378.964844 1806.226563 395 1793 C 409.363281 1781 420.210938 1770 439 1767.714844 C 447.703125 1766.671875 456.335938 1765.417969 465 1764.128906 C 466.953125 1764 472.441406 1761.800781 474 1763.171875 C 476.261719 1765 468 1772 466.996094 1773 C 457.695313 1782.367188 448.332031 1791.667969 439 1801 C 404.28125 1835.71875 370.816406 1871.707031 335.949219 1906.285156 C 328 1914.132813 319.585938 1922.273438 312.664063 1931 C 311.398438 1932.597656 305.707031 1938.65625 309.375 1940.308594 C 312.933594 1942 320.976563 1940 325 1940 L 359 1940 C 363.925781 1940 370.320313 1941.0625 374.828125 1938.722656 C 382.871094 1934.550781 389.214844 1925.578125 395.171875 1919 C 403.832031 1909.425781 413.191406 1900.351563 422 1891 C 454.882813 1856.46875 487.726563 1822.101563 519.921875 1787.015625 C 531.429688 1774.472656 542.226563 1761.335938 553.960938 1749 C 558.308594 1744.429688 562.21875 1738.070313 568 1735.179688 C 571.683594 1733.335938 592.296875 1731.617188 595 1735.027344 C 597.175781 1737.566406 590.5625 1745.042969 589 1747 C 580.785156 1758.164063 571.910156 1769 563.523438 1780 C 538.621094 1813.011719 512.335938 1845 487.527344 1878 C 477.882813 1891 461.917969 1905.589844 457 1921 C 472.554688 1909.8125 484.804688 1889.566406 497.269531 1875 C 526.183594 1841.21875 555.359375 1806.125 581.289063 1770 C 587.28125 1761.652344 594 1754.066406 600.488281 1746 C 603.457031 1742.226563 606.328125 1736.421875 611 1734.601563 C 619.859375 1731.199219 634.566406 1734 644 1734 C 649.679688 1734 660.574219 1732 665.636719 1734.601563 C 669.488281 1736.664063 663.640625 1744.613281 662.253906 1747 C 655.171875 1759.191406 648.484375 1771.640625 641.695313 1784 C 620.203125 1823.132813 596.453125 1861.175781 576.242188 1901 C 571.507813 1910.335938 566.636719 1919.492188 562.234375 1929 C 561.253906 1931.117188 557.550781 1937 559.800781 1939.167969 C 563 1942.289063 570.464844 1930 572 1928 C 583.382813 1913.515625 594.378906 1898.707031 605.476563 1884 C 616.289063 1869.664063 626.84375 1855.066406 637.996094 1841 C 654.367188 1820.355469 669.65625 1799 687 1779 C 687.328125 1788.167969 681.425781 1799.492188 678.191406 1808 C 671 1826.742188 664.613281 1846 656 1864 C 664.996094 1859.207031 671.203125 1842.519531 676.691406 1834 C 690.773438 1812.136719 704.816406 1790.304688 718.199219 1768 C 723.96875 1758.386719 730.433594 1742.644531 739.378906 1735.742188 C 745.675781 1731 762.3125 1734.003906 770 1734 C 772.386719 1734 779.714844 1732.5625 779.691406 1736.238281 C 779.609375 1748.433594 769.714844 1763.71875 765.425781 1775 C 753.421875 1806.558594 736.886719 1838.507813 728 1871 C 737.339844 1865 743.75 1845 749 1835 C 766.183594 1803.386719 781.304688 1770.816406 797.90625 1739.019531 C 801.984375 1731.207031 814.523438 1734 822 1734 C 824.632813 1734 829.933594 1733.148438 831.546875 1736 C 834.785156 1741.398438 826.941406 1757.269531 825.296875 1763 C 818.640625 1786.191406 805.5 1814 805 1838 L 806 1838 C 811 1823.148438 817.324219 1808.765625 822.503906 1794 C 828.796875 1776.058594 834.40625 1754.648438 843.558594 1738.058594 C 845.617188 1734.328125 857 1731.800781 858.472656 1737.238281 C 859.457031 1741.191406 856.601563 1747.152344 855.625 1751 C 852.574219 1763.039063 849 1775.148438 845.347656 1787 C 833.945313 1823.578125 823.503906 1861.480469 815.714844 1899 C 813.210938 1911.070313 804.679688 1929 808 1941 L 809 1941 C 817.53125 1926.007813 822 1908.144531 828 1892 C 839.980469 1859.496094 851.558594 1827 862.507813 1794 C 867 1780.355469 871.667969 1766.722656 875.976563 1753 C 877.53125 1748.039063 878.382813 1739.253906 882.5 1735.742188 C 885.449219 1733.226563 890.414063 1734 894 1734 C 903.699219 1734 916.585938 1731.75 925.941406 1734.316406 C 930.46875 1735.5625 930 1740.238281 929.574219 1744 C 928.371094 1753.289063 927 1762.679688 926.171875 1772 C 922.285156 1812.636719 918.539063 1853.5625 913 1894 C 911.464844 1905.21875 910.261719 1916.683594 909.984375 1928 C 909.929688 1930.253906 907.695313 1938.367188 911 1939.078125 C 914.351563 1939.761719 915 1930.019531 915.550781 1928 C 918 1915.699219 920 1903.324219 922.460938 1891 C 929.992188 1850.753906 936.269531 1810.203125 944 1770 C 946.835938 1755.265625 943.636719 1732.832031 963 1734.042969 C 974.847656 1734.785156 970 1763.113281 970 1772 C 970 1813 968 1854.070313 968 1895 L 968 1929 C 968 1932.425781 966.609375 1939.015625 971 1940 C 980.476563 1941.570313 991.507813 1940 1001 1940 C 1003.578125 1940 1008.957031 1941 1010.972656 1939 C 1013.382813 1936.5625 1011.8125 1930 1011.425781 1927 C 1010 1916.734375 1011.773438 1906.277344 1010.425781 1896 C 1008.285156 1879.726563 1010.191406 1862.410156 1009.996094 1846 C 1009.765625 1826.703125 1008 1807.3125 1008 1788 C 1008 1774.257813 1007.46875 1760.660156 1006.171875 1747 C 1005.707031 1742.144531 1004.933594 1735.386719 1011 1734.226563 C 1031.664063 1730.296875 1029 1755.636719 1031.613281 1770 C 1039 1811.3125 1045.960938 1852.699219 1053.425781 1894 C 1055.476563 1905.363281 1057.695313 1916.683594 1060 1928 C 1060.492188 1930.394531 1061 1938.363281 1064 1939.078125 C 1067 1939.777344 1065.875 1930.355469 1065.714844 1929 C 1064.382813 1917.699219 1063.90625 1906.261719 1062.425781 1895 C 1057 1854.582031 1054.757813 1813.550781 1050.828125 1773 C 1049.925781 1763.667969 1048.691406 1754.296875 1047.425781 1745 C 1047 1742 1045.882813 1736.292969 1049.316406 1734.601563 C 1051.984375 1733.292969 1056 1734 1059 1734 C 1066 1734 1083.242188 1731 1088.5 1736.316406 C 1091.972656 1740 1093.34375 1746.425781 1095 1751 C 1099.347656 1762.527344 1103.171875 1774.222656 1106.71875 1786 C 1117.421875 1821.523438 1129.359375 1856.769531 1141 1892 C 1144.992188 1904.082031 1149.640625 1916 1153.667969 1928 C 1155 1932.144531 1155.988281 1939 1161 1940 C 1163.492188 1940.265625 1171 1941.09375 1172.308594 1938.398438 C 1173.890625 1935.046875 1170.824219 1928.265625 1169.808594 1925 C 1166.199219 1913.398438 1162.589844 1901.757813 1159.527344 1890 C 1149.632813 1852 1136.535156 1814.828125 1125.988281 1777 C 1123.285156 1767.304688 1120.273438 1757.691406 1117.554688 1748 C 1116.722656 1745.035156 1114.171875 1739.429688 1115.492188 1736.433594 C 1117.578125 1731.699219 1130.3125 1733.367188 1132.5 1737.226563 C 1143.535156 1756.707031 1149.898438 1782 1157.679688 1803 C 1163.910156 1820 1174.261719 1837.550781 1178 1855 L 1179 1855 C 1179.300781 1845.042969 1173.609375 1833.554688 1170.851563 1824 C 1165.359375 1805 1160.402344 1785.78125 1154.167969 1767 L 1146.667969 1744 C 1145.9375 1741.808594 1143.855469 1738 1145.210938 1735.601563 C 1146.933594 1732.734375 1154.207031 1734 1157 1734 C 1172.601563 1734 1176.941406 1735.246094 1183.566406 1750 C 1199.28125 1785.003906 1218.582031 1818.660156 1235.753906 1853 C 1240.671875 1863 1246.175781 1872.421875 1251.574219 1882 C 1254 1886.316406 1255.65625 1891.34375 1260 1894 C 1247.519531 1855.113281 1231.378906 1817 1216.199219 1779 C 1212.179688 1769 1207.8125 1759.058594 1203.800781 1749 C 1202.492188 1745.722656 1199 1740 1199.980469 1736.316406 C 1200.699219 1733.265625 1205.714844 1734.003906 1208 1734 C 1215.46875 1734 1228.246094 1731.570313 1234.984375 1735.027344 C 1245.207031 1740.273438 1252.890625 1758.609375 1259 1768 C 1274.253906 1791.441406 1288.667969 1815.734375 1302.578125 1840 C 1309 1851.445313 1315.9375 1868.4375 1326 1877 C 1322.726563 1865.035156 1316.785156 1853.722656 1312.695313 1842 C 1306.363281 1824 1301.570313 1805 1295 1787 C 1306.695313 1795.410156 1315.421875 1810 1324.460938 1821 C 1345.992188 1847.5 1365.917969 1875.292969 1387.199219 1902 C 1396.671875 1914 1408.546875 1940 1425 1940 C 1420.960938 1923 1408.617188 1906.324219 1400.308594 1891 C 1380.757813 1855 1358.652344 1820.261719 1339.449219 1784 C 1333.90625 1773.535156 1327.847656 1763.296875 1322 1753 C 1319.472656 1748.550781 1314.875 1742.300781 1314.285156 1737.148438 C 1313.691406 1732 1329.648438 1734 1333 1734 C 1351.667969 1734 1371.191406 1729.605469 1384.960938 1744 C 1400.609375 1760.355469 1414.523438 1783 1433 1796 C 1422.515625 1774 1400.828125 1757.78125 1391 1735 C 1396.351563 1734.578125 1402.738281 1732.71875 1407.960938 1734.738281 C 1414.3125 1737.195313 1420.285156 1745.289063 1425 1750 L 1461 1786 C 1493.359375 1818.359375 1526.835938 1849.757813 1560 1881.183594 C 1579.742188 1899.757813 1598.410156 1921.136719 1620 1937.46875 C 1625.644531 1941.734375 1630.492188 1940.082031 1637 1940.003906 C 1648.996094 1940 1661 1940 1673 1940 C 1675.300781 1940 1688.792969 1941.460938 1688.792969 1938.644531 C 1688.792969 1933.652344 1678.289063 1926.289063 1675 1923 C 1660.699219 1908.699219 1645.765625 1895.03125 1631 1881.171875 C 1615.355469 1866.410156 1599.476563 1851.828125 1583.960938 1837 C 1559.546875 1813.425781 1532.277344 1791.496094 1510 1766 C 1521 1766 1537.496094 1764.199219 1548 1767.703125 C 1566.511719 1774 1585 1791 1601 1802 C 1636 1826.175781 1670.945313 1849.355469 1704 1876.425781 C 1717.667969 1887.617188 1731.703125 1898.464844 1746 1909 C 1752.730469 1913.738281 1760 1920.371094 1768 1923 C 1760.988281 1908 1739.429688 1895.511719 1727 1885 C 1692.796875 1855.585938 1655.359375 1830.296875 1621 1801.132813 C 1609.421875 1791.304688 1593.785156 1782.464844 1585 1770 C 1595.90625 1772.113281 1609.753906 1771.609375 1620 1775.589844 C 1625.773438 1777.828125 1630.984375 1783.628906 1636 1787.253906 C 1646.621094 1795 1657.355469 1802.449219 1668 1810.089844 C 1702.722656 1835.015625 1737.199219 1860.132813 1773 1883.503906 C 1792.308594 1896.109375 1813.585938 1911.59375 1836 1918 C 1833.253906 1911.214844 1826.503906 1907.214844 1821 1902.738281 C 1808.699219 1892.734375 1795.949219 1883.113281 1783 1874 C 1755.699219 1854.671875 1729 1834.351563 1702 1814.746094 C 1685.398438 1802.726563 1666.828125 1791.148438 1652 1777 C 1670.171875 1776.199219 1689.457031 1781 1708 1781 C 1716.785156 1781 1729.769531 1777.234375 1738 1779.714844 C 1751.238281 1783.703125 1764.210938 1795.4375 1776 1802.550781 C 1804.722656 1820 1833.640625 1837.136719 1862 1855.054688 C 1879.472656 1866.09375 1897.1875 1876.808594 1915 1887.304688 C 1917.976563 1889.0625 1929.734375 1898.671875 1932.972656 1896 C 1935.484375 1893.78125 1934 1885.007813 1934 1882 C 1933.96875 1876 1935.863281 1861.261719 1932.960938 1856.171875 C 1930.492188 1852 1924 1849.246094 1920 1846.679688 C 1888.800781 1827.019531 1856.96875 1808.375 1825 1790 C 1811.730469 1782.371094 1793.246094 1776.15625 1782 1766 C 1794.695313 1766 1811.910156 1761.824219 1824 1764.398438 C 1831.640625 1766.023438 1839.175781 1773 1846 1776.695313 C 1863.941406 1786.550781 1882.257813 1795.808594 1900 1806 C 1905.847656 1809.359375 1933.496094 1828.714844 1933.421875 1816.042969 C 1933.386719 1809.476563 1918.949219 1804.6875 1914 1802 C 1900.835938 1794.378906 1887.410156 1787.289063 1874 1780.253906 C 1866.367188 1776.25 1856 1772.078125 1850 1766 C 1862.417969 1766 1875 1764.132813 1887 1760.703125 C 1892.324219 1759.171875 1899.511719 1754.152344 1905 1754.6875 C 1911.628906 1755.332031 1918.964844 1760.492188 1925 1763.136719 C 1926.726563 1764 1930.34375 1766.011719 1932.226563 1764.761719 C 1933.953125 1763.617188 1933 1759.695313 1933 1758 C 1932.996094 1754.695313 1934.316406 1750.394531 1932.21875 1747.519531 C 1929.414063 1743.675781 1919.808594 1742 1921.503906 1736 C 1925 1723.210938 1933 1712.578125 1935.535156 1699 C 1943.167969 1656.597656 1927.960938 1612.1875 1898.910156 1581 C 1868.65625 1548.519531 1826.699219 1526.566406 1785 1512.667969 C 1756.273438 1503.089844 1727.332031 1495.167969 1697 1493.089844 C 1636.65625 1489 1577.429688 1510.652344 1530 1547.351563 C 1497.257813 1572.683594 1458.496094 1614.0625 1455 1658 L 1453 1658 C 1453 1646.265625 1446.265625 1642.65625 1440.328125 1655 C 1434.429688 1667.261719 1435 1680.15625 1432 1693 C 1419.65625 1668.433594 1429 1636.261719 1440.257813 1613 C 1444 1605.082031 1448.320313 1597.5 1452.910156 1590 C 1454.710938 1587.054688 1457.804688 1583.710938 1456.621094 1580 C 1454.695313 1574 1447.269531 1567.507813 1442.960938 1563 C 1431.796875 1551.324219 1420.34375 1539.828125 1408 1529.410156 C 1390 1514.328125 1373 1498.269531 1355 1483.425781 C 1333.8125 1466.058594 1310.503906 1449.265625 1292 1429 C 1339.742188 1449 1384.496094 1484 1421 1520.003906 C 1432.582031 1531.449219 1443.523438 1543.484375 1455 1555 C 1457.796875 1557.804688 1463.574219 1566.792969 1467.84375 1566.792969 C 1471.707031 1566.792969 1476.5625 1558.601563 1478.925781 1556 C 1488 1545.828125 1498 1536.285156 1509 1528 C 1512 1525.574219 1521.289063 1521.097656 1517.792969 1516.476563 C 1505.582031 1500.324219 1480.671875 1488.449219 1464 1477.332031 C 1430.664063 1455.109375 1394.746094 1437.605469 1359 1419.730469 C 1338.398438 1409.429688 1317.238281 1396.355469 1295 1390 L 1295 1389 C 1313.535156 1389.796875 1333.625 1397.183594 1351 1403.308594 C 1392.351563 1418 1432.457031 1438.425781 1469 1462.667969 C 1484.804688 1473.152344 1500.726563 1483.484375 1516 1494.734375 C 1521.191406 1498.558594 1528.578125 1507.394531 1535 1508.695313 C 1538.675781 1509.4375 1542 1505.070313 1545 1503.351563 C 1553.523438 1498.269531 1562.929688 1494 1572 1490 C 1599.785156 1477.578125 1630.652344 1469.167969 1661 1467.089844 C 1687.566406 1465.269531 1715 1467.117188 1741 1473.011719 C 1751.191406 1475.324219 1768.609375 1485.707031 1778.773438 1483.589844 C 1783.933594 1482.511719 1780.988281 1475.121094 1780 1472 C 1792.90625 1480.109375 1792.339844 1464.160156 1793.628906 1454 C 1793.839844 1452.332031 1792.613281 1448.589844 1793.976563 1447.347656 C 1795.53125 1446 1800 1447 1802 1447 C 1800.882813 1442.675781 1800 1438.476563 1800 1434 C 1812.792969 1437.011719 1803.84375 1427 1806.644531 1420.316406 C 1807.976563 1417.214844 1812.863281 1418.511719 1813.390625 1414.773438 C 1813.882813 1411.308594 1810.59375 1407.652344 1811.730469 1404.316406 C 1813 1400.359375 1819.707031 1403.816406 1820.578125 1399.683594 C 1821.421875 1395.671875 1818.5625 1388.679688 1817 1385 C 1818.316406 1385 1819.730469 1385.09375 1821 1385 C 1833.171875 1383.546875 1821.738281 1375.296875 1823.664063 1369.742188 C 1824.53125 1367.242188 1830.84375 1367.273438 1833 1367 C 1831.910156 1364.023438 1827.410156 1358.554688 1829 1355.417969 C 1830.578125 1352.390625 1836 1353 1836 1349 C 1836 1345.300781 1829 1339.101563 1831 1336.089844 C 1833.90625 1331.644531 1842.207031 1334.160156 1843.273438 1327 C 1843.960938 1322.34375 1837.554688 1318.609375 1838.589844 1314.511719 C 1839.730469 1310.015625 1851.222656 1312.675781 1850.367188 1307 C 1849.722656 1302.515625 1839.449219 1298.089844 1841.207031 1293.5625 C 1842.6875 1289.746094 1852.4375 1292.164063 1852.882813 1288 C 1853.371094 1283.390625 1844.800781 1281.042969 1845.632813 1276.316406 C 1846.472656 1271.523438 1858.621094 1276.066406 1858.808594 1270.773438 C 1858.980469 1266 1849.691406 1264 1850 1259.421875 C 1850.363281 1254.539063 1862.792969 1258.351563 1862.792969 1253.683594 C 1862.792969 1248.074219 1851.234375 1242.226563 1848 1238 C 1854.21875 1237.730469 1860.945313 1236.445313 1867 1235 C 1864.492188 1232.054688 1849.921875 1224.519531 1850.769531 1220.648438 C 1851.378906 1218 1865.289063 1216.824219 1868 1216 C 1865.691406 1213 1851.839844 1205.113281 1852.632813 1201.5625 C 1853.410156 1198.078125 1865.621094 1199.488281 1868.339844 1197.523438 C 1872.210938 1194.726563 1854.839844 1182.355469 1852 1181 C 1858.453125 1177.761719 1864.945313 1178 1872 1178 C 1867.695313 1171.402344 1858.773438 1168.628906 1854 1162 C 1856 1161.789063 1857.957031 1161.382813 1860 1161 C 1862 1160.351563 1863.9375 1160.203125 1865.980469 1160 C 1877.421875 1158.574219 1855 1146.449219 1855 1142.390625 C 1855 1137.75 1865.964844 1140.476563 1867.824219 1137.273438 C 1869.976563 1133.5625 1853.359375 1122.320313 1851 1119 L 1869 1117 C 1866.402344 1112 1860.570313 1109 1856 1105.746094 C 1854.859375 1105 1851.179688 1103.214844 1851.632813 1101.351563 C 1852.402344 1098.160156 1863.257813 1097.027344 1866 1096 L 1866 1095 C 1862.71875 1092.824219 1845.335938 1083.019531 1847.207031 1078.523438 C 1848.804688 1074.691406 1858.761719 1076 1862 1076 C 1859 1070.714844 1846.847656 1068 1845.632813 1063 C 1844.933594 1060.089844 1853.597656 1061.730469 1854.652344 1059.582031 C 1856.324219 1056.191406 1842.351563 1051 1840 1050 L 1840 1049 C 1856.683594 1045.027344 1847.515625 1045.605469 1839 1037 L 1850 1039 C 1847.5 1034.066406 1839.902344 1031.800781 1838.207031 1027 C 1836.472656 1022 1847.785156 1024 1847 1020 C 1845.925781 1013.34375 1832.953125 1005.609375 1829 1000 C 1834.171875 1000 1838.898438 998.445313 1844 998 C 1841.425781 993.621094 1825.824219 986.828125 1826.632813 982.238281 C 1827.339844 978.199219 1836.792969 979.484375 1836.792969 976 C 1836.792969 971.207031 1815.496094 971.550781 1826 964 C 1826.9375 963.195313 1827.960938 962.601563 1828.976563 962.136719 C 1830.65625 961.363281 1832.191406 961.199219 1834 961 C 1831.492188 956.707031 1809.5 953.300781 1822.957031 948.589844 C 1824.355469 948.101563 1825.636719 947.589844 1827 947 L 1827 946 C 1819.515625 943.398438 1810.753906 939.8125 1807 932 C 1805.472656 928.359375 1806.21875 924.710938 1804 921 C 1798.574219 911.734375 1791.976563 902 1790.503906 891 C 1789.6875 885 1792.90625 878.699219 1794.574219 873 C 1797.945313 861.488281 1801 850 1802.714844 838 C 1807.796875 802.164063 1808 765.152344 1808 729 C 1808 684.660156 1820.234375 641.003906 1830 598 C 1856.652344 482.5625 1870.179688 357 1846.601563 240 C 1837.449219 194.597656 1821.632813 141.078125 1770 131 C 1761.492188 129.339844 1751.632813 129.308594 1743 130.171875 C 1729 131.5625 1714.996094 136.054688 1702 141.0625 C 1672.910156 152.265625 1645.6875 167 1619 183 C 1581 205.792969 1544.964844 233.398438 1512 263 C 1487.492188 284.71875 1463.242188 306.757813 1440 330 C 1419 351 1398.855469 373.792969 1373 388.714844 C 1357.761719 397.511719 1344.574219 395 1328 397 C 1323.570313 397.445313 1317.898438 403.089844 1313.445313 402.007813 C 1311.585938 401.554688 1312.285156 396.535156 1312 395 C 1309.464844 396.648438 1296.597656 406.523438 1294.292969 401.628906 C 1293 399.023438 1296 394.480469 1297 392 C 1292.191406 393.242188 1286.867188 397.535156 1282.863281 398.375 C 1280.652344 399 1280.238281 394.675781 1277.722656 394.832031 C 1275 395 1270.441406 400.675781 1268 398.25 C 1265.714844 396 1268.613281 389 1269 386 C 1262.925781 390.15625 1257.699219 395.371094 1252 400 L 1253 380 C 1247.234375 382.566406 1242.78125 387 1238 391 L 1238 382 C 1234.414063 383.832031 1232.582031 388.289063 1228.910156 389.667969 C 1220.414063 393 1223.503906 379.511719 1225 376 L 1224 375 C 1217.648438 379 1214.828125 385.671875 1209 390 C 1211 384.621094 1212.175781 377.710938 1212 372 L 1198 384 C 1196.679688 378.449219 1197.558594 373.578125 1198 368 C 1193.34375 370.691406 1192.335938 376.597656 1188 380 C 1187.820313 376 1186.828125 372.027344 1186 368 C 1180.289063 371.113281 1175.9375 376.246094 1173 382 C 1169.910156 376 1170 369.746094 1170 363 C 1164.996094 366.683594 1161.816406 372.113281 1157 376 C 1156.523438 370 1156 364.09375 1156 358 L 1155 358 C 1150.46875 364.304688 1143.90625 369.425781 1140 376 L 1139 376 C 1137 369 1137 362.28125 1137 355 C 1130 359 1126.800781 368.558594 1121 374 C 1121 367 1118.539063 360.820313 1119 354 L 1118 354 C 1116.265625 357 1115.289063 359.089844 1112 360 C 1111.4375 363.023438 1111 366 1111 369 L 1110 369 C 1108.34375 364.453125 1108.691406 359 1106 355 C 1101.300781 361.09375 1097.488281 366.644531 1095 374 L 1094 374 L 1093 351 C 1089 354.726563 1088 361.359375 1082 362 C 1080.96875 366.011719 1078.976563 369.132813 1076 372 C 1075.996094 364.308594 1075.175781 355.355469 1073 348 L 1072 348 C 1069.503906 352.808594 1065.550781 357 1064 362 C 1060.753906 357.484375 1060.683594 352.410156 1060 347 C 1054 351 1053.367188 359.238281 1047 363 L 1048 359 L 1047 359 L 1047 362 C 1043 357.140625 1042 352.136719 1042 346 C 1036.835938 349.125 1035.496094 357.308594 1035 363 L 1034 363 C 1032.507813 356.734375 1031.292969 349.429688 1031 343 C 1025.382813 346.398438 1020.226563 371.621094 1017.195313 356 L 1016.425781 352.003906 C 1015.996094 349.644531 1015.574219 347.324219 1015 345 L 1014 345 C 1013.339844 353.066406 1010 359.664063 1007 367 L 1006 367 C 1005.617188 359.5 1003.6875 351.019531 1001 344 C 996.765625 350 994.84375 358 990 363 C 989.234375 357.316406 988.980469 347.414063 984 344 C 983.492188 350.195313 982.441406 357 981 363 L 980 363 C 977.511719 357.328125 973.511719 349.152344 969 345 C 969 351.496094 968.277344 357 966 363 L 965 363 C 964.335938 356.367188 960.777344 346.710938 955 343 C 954.984375 349.039063 953.835938 354.265625 952 360 L 951 360 C 948.894531 355 946.710938 349.765625 944 345 C 938.535156 352.34375 942 367 932 355 C 931 356.476563 931 356.203125 931 358 L 930 358 C 928.445313 353.730469 926.464844 350 923 347 C 921.308594 352.726563 922 359.058594 922 365 C 918 360.136719 915.382813 354.28125 912 349 L 911 349 C 910.636719 352 910 368 905.949219 368 C 901.4375 368 894.667969 351.121094 891 348 L 890 370 L 889 370 C 887 363.679688 882.636719 354.613281 877 351 L 877 371 C 870.277344 365.535156 866.378906 357.464844 860 352 C 860 355 860.695313 373 856.96875 373 C 852 373 845.386719 360.664063 841 358 C 840.867188 359.695313 840.65625 361.339844 840.425781 363.023438 C 838 379.5625 832.835938 363 825 359 C 825.34375 361.710938 827.371094 377.328125 821.695313 376.367188 C 816.667969 375.519531 812 368.128906 807 366 C 806.988281 370.335938 806.488281 374 805 378 L 804 378 C 801.964844 373.273438 799.574219 367.59375 795 365 C 795 367.457031 797.527344 377.496094 794.398438 378.410156 C 790.976563 379.40625 784.789063 371.730469 782 370 C 782 375.671875 781.597656 380.304688 783 386 C 776.527344 383 772.886719 376.339844 766 374 C 767 380.804688 769 386.140625 767 393 C 761.308594 388.160156 754.46875 382.640625 748 379 C 748 382.691406 748.410156 386.332031 748 390 C 743.824219 385.824219 739.835938 381.40625 735 378 C 734.886719 381.648438 738.757813 394.714844 734.257813 396.808594 C 730.347656 398.628906 718.851563 386.765625 715 385 C 715.234375 387.703125 718.234375 395.054688 715.957031 397.117188 C 714 398.804688 701.414063 391.46875 698 391 L 703 402 C 695.214844 399.550781 688.296875 396.570313 681 393 C 684.765625 409.089844 672.855469 397.671875 664 394 C 662.761719 401.253906 654.21875 396.09375 649 396.019531 C 630.710938 395.757813 620.210938 390 605 379.277344 C 578.402344 360.605469 556.171875 335.617188 533 313.015625 C 509.253906 290 483.90625 267.722656 458 247 C 425.3125 221 391.335938 196.007813 355 175.148438 C 307.363281 147.804688 230.640625 102.539063 180 148.171875 C 143 181.378906 139.464844 245.167969 133.425781 291 C 114.203125 437 159.835938 577.285156 178.574219 720 C 180.878906 737.527344 178.914063 756.324219 179 774 C 179 794.589844 181 815.511719 183.171875 836 C 185 853.628906 197.53125 875.714844 194.675781 893 C 192.769531 904.507813 185 913.410156 179.285156 923 C 177.628906 925.75 178.875 928.226563 177.855469 931 C 174.957031 939 165.761719 944 158 945 M 556 395 C 597.925781 437.8125 630.789063 492.191406 661.910156 543 C 685.199219 581.019531 712 624.65625 724 668 L 723 668 C 688 602 648.601563 535.355469 607.332031 473 C 595 454.589844 583 436.1875 570.492188 418 C 566.230469 411.808594 556.253906 402.6875 556 395 M 1467 408 C 1462.769531 419 1451.753906 429.03125 1444.285156 438 C 1431.722656 453.089844 1420.257813 469.289063 1408.476563 485 C 1370.597656 535.507813 1336.804688 589 1302.859375 642 C 1290.417969 661.484375 1278.644531 681.378906 1266.425781 701 C 1261.839844 708.359375 1256.84375 721 1249 725 C 1259.4375 694.152344 1275.515625 665.085938 1291.714844 637 C 1322 584.34375 1357 534 1395.75 487 C 1409.332031 470.5625 1423.628906 455 1437.714844 439 C 1446.800781 428.695313 1455.960938 416.222656 1467 408 M 757 486 C 758.769531 527.195313 766.617188 569.351563 773.433594 610 C 776.765625 630 782.585938 651 783 671 L 782 671 C 770.597656 625.25 760 581.242188 756.910156 534 C 756 522.101563 750 496.109375 757 486 M 1258 488 C 1258 549.363281 1249.433594 615 1226 672 L 1225 672 C 1225.714844 656.398438 1231.660156 640.367188 1234.539063 625 C 1239.898438 596.402344 1244.949219 567.722656 1249.5625 539 C 1251.484375 527.015625 1252.960938 515 1254.921875 503 C 1255.71875 498.121094 1255.183594 492.121094 1258 488 M 542 493 C 581.421875 528.523438 616 571.589844 647.871094 614 C 662.222656 633.164063 682.289063 657.757813 689 681 C 673.949219 670.175781 662 651.414063 650.550781 637 C 625.558594 605.695313 602.304688 573 578 541 C 569.453125 529.539063 560.460938 518.355469 551.652344 507 C 548.492188 503 542.679688 498.199219 542 493 M 1406 590 L 1406 591 C 1371.339844 616.121094 1348.78125 657.328125 1313 681 C 1326.484375 654 1353.945313 629.171875 1376.910156 610.234375 C 1385.523438 603.132813 1395.21875 593.4375 1406 590 M 710 766 C 697.949219 757.511719 688.652344 744.242188 678 734.039063 C 657 714 634.785156 694.296875 610 679 C 617.664063 676.742188 634.191406 688.113281 641 692 C 672.476563 710 693.25 734.167969 710 766 M 1382 678 C 1375.742188 685.6875 1365.800781 691 1358 697.015625 C 1345 707.078125 1332.964844 718 1321 729.089844 C 1308.804688 740.449219 1297.304688 759.808594 1283 768 C 1302 728.195313 1338.480469 690.441406 1382 678 M 654 888.285156 C 670.855469 886.296875 689.738281 888.742188 706 893.292969 C 724.644531 898.515625 741.671875 906.71875 757 918.664063 C 836.691406 980.777344 831.472656 1108.683594 747 1164 C 727.339844 1176.773438 703.25 1184.335938 680 1187 C 658.792969 1189.113281 637.492188 1187.453125 617 1181.28125 C 601.566406 1176.632813 587 1169 574 1159.570313 C 489.632813 1099.007813 499.613281 969.785156 582 913.027344 C 603.820313 898 628 891.351563 654 888.285156 M 1329 888.285156 C 1347.636719 886.085938 1369.503906 890.5 1387 896.78125 C 1481.996094 931 1521.578125 1052.320313 1457.398438 1133 C 1446.773438 1146.355469 1434.558594 1157.269531 1420 1166.1875 C 1401 1177.765625 1379.972656 1184.480469 1358 1187 C 1258 1197.542969 1171.292969 1109.703125 1191.398438 1009 C 1194.988281 991.035156 1201 974.703125 1210.550781 959 C 1220.695313 942.183594 1234 926.828125 1250 915.15625 C 1274.242188 897.300781 1299.820313 891.730469 1329 888.285156 M 651 892.429688 C 549.398438 907 510.183594 1055 588 1120.5625 C 600.890625 1131.441406 615.835938 1139.484375 632 1144.277344 C 646.265625 1148.511719 663.226563 1149.527344 678 1147.714844 C 693.703125 1145.785156 708.363281 1140.082031 722 1132.28125 C 815.589844 1078.738281 797 924.8125 693 895.578125 C 679.882813 892 664.539063 890.488281 651 892.429688 M 1325 892.425781 C 1245.570313 903.238281 1202.921875 993.347656 1227.355469 1066 C 1239.851563 1103.152344 1269 1131.214844 1306 1143.492188 C 1320.917969 1148.460938 1338.382813 1149.582031 1354 1147.714844 C 1369.824219 1145.820313 1385.285156 1140.703125 1399 1132.546875 C 1490.910156 1078 1468.464844 921.5 1364 895.375 C 1351.5625 892.265625 1337.777344 890.6875 1325 892.425781 M 657 924.300781 C 708.394531 917 723.46875 997 671 1005.675781 C 658.492188 1007.761719 644 1005.5625 634.171875 997.296875 C 612.96875 979.660156 614.574219 945.71875 638 931 C 643.730469 927.246094 650.304688 925.253906 657 924.300781 M 1322 924.289063 C 1373.605469 917.585938 1385 999.492188 1333 1005.816406 C 1324.828125 1006.808594 1315.664063 1006.429688 1308 1003.328125 C 1266.222656 986.433594 1281.59375 929.535156 1322 924.289063 M 722 952.328125 C 743.964844 948.46875 751.898438 983.367188 730 986.785156 C 708.488281 990.144531 700 956.175781 722 952.328125 M 1388 952.304688 C 1408.929688 950.023438 1412.957031 984.046875 1392 986.8125 C 1368.589844 990 1364.515625 955 1388 952.304688 M 1183 1156 C 1216 1168.011719 1245.507813 1188.519531 1279 1200.140625 C 1330.566406 1218.027344 1392.800781 1213.152344 1441 1187.445313 C 1488.601563 1162.054688 1510.320313 1120.539063 1527.34375 1072 C 1530.519531 1063 1535.566406 1054.78125 1542.613281 1048.234375 C 1544.796875 1046.210938 1549.292969 1041.753906 1552.566406 1043.828125 C 1559.816406 1048.421875 1555.183594 1068.144531 1555 1075 C 1554 1109.789063 1537.351563 1145.320313 1512.714844 1169.574219 C 1442.65625 1238.550781 1323.679688 1254.097656 1240 1202.8125 C 1224.894531 1193.554688 1209.996094 1183.207031 1197 1171.078125 C 1192 1166.390625 1185.949219 1162.324219 1183 1156 M 817 1156 C 807.207031 1170 791.488281 1180.773438 778 1191 C 698.183594 1250.640625 581.480469 1246.242188 504 1182.691406 C 472 1156.46875 453.660156 1124.226563 446 1084 C 444.230469 1074.695313 443.171875 1063.414063 444.425781 1054 C 444.753906 1051.535156 444.464844 1046.6875 446.742188 1045.070313 C 449.597656 1043.042969 453.925781 1046.628906 456 1048.328125 C 463 1054.121094 468.480469 1061.597656 471.988281 1070 C 478.816406 1086.355469 483.597656 1103.3125 492 1119 C 505.527344 1144.082031 526.195313 1164.484375 550 1179.78125 C 611.90625 1219.5625 685 1216.429688 751 1189.546875 C 765 1184 778.875 1176.496094 792 1169 C 799.804688 1164.542969 808.195313 1158.015625 817 1156 M 1090 1229 C 1083.550781 1226.328125 1078 1222.484375 1071 1221.324219 C 1048 1217.570313 1021.226563 1228 1024.175781 1255 C 1024.988281 1262.511719 1028.835938 1268.367188 1033.589844 1274 C 1035.820313 1276.640625 1040.871094 1280.191406 1040 1284.089844 C 1038.847656 1289.609375 1033.683594 1295.1875 1030.859375 1300 C 1023.351563 1312.800781 1015.378906 1325.605469 1009 1339 L 1008 1339 C 1008 1309 998 1279.621094 998 1250 L 996 1250 C 995.300781 1266.011719 989.300781 1282.230469 986.464844 1298 C 984.742188 1307.558594 986 1317.613281 984 1327 C 976.316406 1317.121094 970 1304.699219 963.425781 1294 C 961.304688 1290.597656 956.492188 1285.128906 956.445313 1281 C 956.394531 1276.632813 962.378906 1271.8125 964.367188 1268 C 970 1257.089844 969 1243.339844 960.8125 1234.015625 C 950.832031 1222.820313 933 1220.496094 919 1223.519531 C 915.921875 1224.179688 904.546875 1231.296875 903.894531 1226.832031 C 902.871094 1220 906.226563 1212.238281 908.8125 1206 C 916.96875 1186.300781 931.535156 1169 951 1159.78125 C 995.171875 1139.074219 1051.308594 1153 1077 1194 C 1083.617188 1204.488281 1089.894531 1216.363281 1090 1229 M 1118 1231 C 1143.195313 1272 1086.300781 1293.761719 1054 1297 C 1061.5625 1279.140625 1084.339844 1272.074219 1098 1259.824219 C 1107.253906 1251.527344 1109.785156 1239.195313 1118 1231 M 942 1297 C 921.78125 1293.5625 888.589844 1286.386719 875.359375 1269.570313 C 868.96875 1261.445313 868.226563 1252.722656 870.664063 1243 C 871.292969 1240.496094 872.277344 1235.410156 875 1234.347656 C 877.867188 1233.273438 886.601563 1249.542969 888.617188 1252 C 902.691406 1269.164063 932.722656 1276.804688 942 1297 M 706 1345 L 706 1346 C 675.324219 1355.726563 641.558594 1359.144531 610 1365.449219 C 570.457031 1373.347656 531.597656 1384.09375 493 1395.71875 C 464 1404.441406 434.890625 1414.722656 407 1426.425781 C 390.941406 1433.160156 373.167969 1444.042969 356 1447 C 361.394531 1441.4375 369.347656 1439.304688 376 1435.574219 C 395 1425 415 1415.496094 435 1406.566406 C 496 1379.140625 560.234375 1356.234375 627 1347.714844 C 651.425781 1344.597656 681.675781 1339.210938 706 1345 M 1629 1444 L 1629 1445 C 1613 1443.597656 1595.722656 1433 1581 1426.8125 C 1553.210938 1415.34375 1524.601563 1405.007813 1496 1395.746094 C 1453.949219 1382.132813 1410.484375 1371.453125 1367 1363.613281 C 1336.226563 1358.066406 1304.363281 1354.230469 1274 1347 C 1280.988281 1342.21875 1292.878906 1344 1301 1344 C 1324.511719 1344 1347.828125 1345.054688 1371 1349.390625 C 1424.394531 1359.371094 1475.964844 1374.078125 1526 1395.425781 C 1560.910156 1410.324219 1594 1429.375 1629 1444 M 1053 1455 C 1032.867188 1447.628906 1017 1431.507813 994 1433.089844 C 980.3125 1434.027344 969.890625 1442.703125 957 1445 C 966.210938 1435.636719 978.488281 1429.273438 988 1420 C 990.933594 1417.117188 995.511719 1410.074219 1000 1410 C 1005.242188 1409.800781 1010.472656 1417.605469 1014 1420.714844 C 1025.238281 1430.625 1045.523438 1442.273438 1053 1455 M 955 1446.332031 C 955.773438 1446.332031 955 1446.832031 954.667969 1446.667969 L 955 1446.332031 M 1632 1446 L 1631 1447 L 1632 1446 M 725 1461 C 717 1476.472656 702.558594 1490.636719 691.433594 1504 C 673.351563 1525.730469 655.75 1548.015625 639.289063 1571 C 631.535156 1581.828125 623.96875 1592.777344 616.78125 1604 C 613.414063 1609.265625 610.433594 1616.703125 605 1620 C 623.746094 1575 652.761719 1531.589844 685.910156 1496 C 697 1484.089844 709.828125 1467.761719 725 1461 M 1272 1464 C 1306.6875 1498.683594 1337.683594 1533 1361.859375 1576 C 1369.261719 1589.1875 1378.792969 1603.398438 1383 1618 C 1372.875 1611.390625 1365.773438 1592.019531 1358.707031 1582 C 1339.394531 1554.617188 1318.679688 1528.105469 1297.476563 1502.171875 C 1290.570313 1493.71875 1283.972656 1485 1277.71875 1476 C 1275.3125 1472.554688 1271.371094 1468.34375 1272 1464 M 289 1644 C 295 1664.804688 294.605469 1689.425781 299 1711 C 301.535156 1723.417969 309 1739.519531 308 1752 C 285.753906 1731.679688 281.394531 1702.222656 282.964844 1674 C 283.449219 1665.324219 284 1651.257813 289 1644 M 1689 1645 C 1697.800781 1679.007813 1702.878906 1729.058594 1671 1754 C 1670.363281 1744.414063 1675.5 1732.484375 1677.574219 1723 C 1681 1706.832031 1683 1690.351563 1685.421875 1674 C 1686.617188 1665.640625 1684.214844 1652.007813 1689 1645 M 216 1733 C 209.695313 1731.230469 205.382813 1725.453125 201.292969 1720.574219 C 190.238281 1707.386719 182.777344 1691.628906 178.527344 1675 C 177.308594 1670.21875 173.902344 1654.21875 179.433594 1651.132813 C 186.460938 1647.210938 196.644531 1660.058594 199.179688 1665 C 203.988281 1674.371094 204 1685.78125 205.753906 1696 C 207.839844 1708.734375 211.5 1721 216 1733 M 1763 1734 C 1764.921875 1726 1768.5 1718.285156 1769.855469 1710 C 1772.261719 1695.277344 1771.949219 1679 1778 1665 C 1780 1660.1875 1790.703125 1647 1797.410156 1651.121094 C 1802.722656 1654.507813 1799.902344 1670.074219 1798.765625 1675 C 1794.96875 1691.464844 1787.746094 1707.730469 1777.191406 1721 C 1773.226563 1726 1769.355469 1732.210938 1763 1734 M 430 1740 C 430 1718.8125 427.53125 1698.050781 427 1677 C 426.859375 1670.636719 425.734375 1658.824219 435 1658.417969 C 444.425781 1658.003906 447.292969 1671 448.535156 1678 C 451.203125 1693.101563 445.285156 1711.136719 439.691406 1725 C 437.503906 1730.421875 435.285156 1737.023438 430 1740 M 1534 1658.476563 C 1541.257813 1657 1544.808594 1664.019531 1544.984375 1670 C 1545.46875 1686.253906 1543 1702.648438 1543 1719 C 1543 1721.410156 1544.515625 1737.578125 1542.59375 1738.078125 C 1539.210938 1739 1533 1722.632813 1532 1720 C 1526 1705.574219 1522.9375 1690.640625 1524 1675 C 1524.53125 1669.011719 1527.242188 1660 1534 1658.476563 M 1868 1733 C 1869.597656 1724.046875 1875 1715.800781 1877.574219 1707 C 1881.414063 1693.589844 1882.34375 1678.773438 1888 1666 C 1906.710938 1682.832031 1885.882813 1723.71875 1868 1733 M 115 1736 C 99 1728.570313 89 1705.425781 86.730469 1689 C 86 1684.460938 85.414063 1670 92 1668.632813 C 96.359375 1667.828125 97.285156 1681.304688 97.882813 1684 C 101.984375 1702.402344 108.628906 1718.488281 115 1736 M 221 1923 C 229.191406 1919.25 236 1912.027344 242.984375 1906.3125 C 259 1893 274.363281 1879.078125 290 1865.285156 C 298.6875 1857.625 313 1848.546875 318 1838 C 307.980469 1842.464844 298.425781 1851.710938 290 1858.714844 C 275 1871.152344 260.421875 1883.785156 246 1896.828125 C 238 1904.054688 224.5625 1912.523438 221 1923 "/></g></svg>