<svg xmlns="http://www.w3.org/2000/svg" xmlns:xlink="http://www.w3.org/1999/xlink" viewBox="0 0 100 100" version="1.1"><g transform="translate(1, 3.175181864065536) scale(0.05589706456542619) translate(-142.570313, -148.046875)"><path style=" stroke:none;fill-rule:nonzero;fill:rgb(0%,0%,0%);fill-opacity:1;" d="M 1146 475 C 1153 463.46875 1160.84375 452.261719 1168.355469 441 C 1170 438.523438 1175.964844 432.808594 1174.667969 429.558594 C 1172.515625 424.167969 1152.222656 421.832031 1147 420.652344 C 1118.394531 414.179688 1090 409.28125 1061 405.714844 C 989 397 911.886719 401.457031 842 421.289063 C 825.929688 426 809.746094 429.742188 794 435.414063 C 790.175781 436.789063 780 438.46875 778.253906 442.5 C 776.4375 446.476563 783.800781 454.800781 785.8125 458 C 794.429688 471.726563 806.457031 485.230469 813 500 C 762.363281 471 732.816406 422.484375 697.789063 378 C 663.71875 334.730469 625.855469 294.730469 585 257.828125 C 551.945313 228 514.46875 197.820313 472 182.691406 C 462 179.1875 451.46875 176 441 175.089844 C 381 170.699219 366.222656 237.628906 356.800781 284 C 341.710938 358.265625 339.371094 445.097656 362 518 C 373.363281 554.488281 392.386719 586.390625 410 620 C 395.359375 611.65625 386 598 373 588 C 372.976563 624.480469 371.800781 658.660156 378.609375 695 C 384.9375 728.765625 399.546875 763.4375 399.980469 798 C 400.21875 816.832031 390.871094 836.5 384.863281 854 C 378.558594 872.359375 374.453125 892 371.4375 911 C 357 1002.058594 378.179688 1103.300781 425.398438 1182 C 436.410156 1200.351563 448.84375 1217.71875 462.726563 1234 C 467.335938 1239.402344 472.347656 1248 479 1251 C 484.917969 1253.621094 496.660156 1249 503 1248.15625 C 524.382813 1245.492188 545.546875 1241.464844 567 1239.164063 C 633.613281 1232.03125 702.789063 1228.160156 769 1241 L 769 1242 C 734 1242.722656 698.816406 1246.515625 664 1249.828125 C 630.398438 1253.027344 596.550781 1254.164063 563 1258.285156 C 546.710938 1260.289063 530.179688 1261.757813 514 1264.613281 C 511.265625 1265.097656 499 1265.34375 500.496094 1270 C 501.757813 1274 507.953125 1277.511719 511 1280.128906 C 519.289063 1287.261719 536.453125 1307.28125 548 1306.761719 C 555.824219 1306.410156 564.53125 1302.136719 572 1300 C 587 1295.242188 602.578125 1291 618 1287.234375 C 670.714844 1274.757813 722.738281 1266 777 1266 L 777 1267 C 759.636719 1272.648438 741.476563 1275.671875 724 1281.023438 C 694.605469 1290.027344 665.972656 1301.089844 637 1311.308594 C 618 1318 596.382813 1323.117188 579 1333 C 583.757813 1339.164063 598.691406 1350.617188 607 1349.566406 C 615.710938 1348.464844 625.1875 1342.039063 633 1338.257813 C 645.980469 1332 659.601563 1326.765625 673 1321.449219 C 702.183594 1310 731.796875 1305.195313 762 1298 C 754.925781 1305.460938 738.527344 1309.28125 729 1313.425781 C 704.429688 1324.113281 679.3125 1335.765625 656 1349 C 647.984375 1353.550781 637 1357 631 1364 C 635.753906 1366.253906 641.789063 1371.257813 647 1371.667969 C 651.945313 1372.058594 656.886719 1368.003906 661 1365.769531 C 671.566406 1360.023438 682.242188 1354.625 693 1349.246094 C 722.609375 1334.445313 757 1320 790 1315 L 790 1316 C 761 1329.507813 733.34375 1346.1875 706 1362.601563 C 699.308594 1366.617188 692.53125 1370.585938 686 1375 C 684 1376.089844 680.207031 1378.164063 680.207031 1380.8125 C 680.207031 1385 697.550781 1389.617188 701 1391 C 706.964844 1393 715.535156 1399.191406 722 1398.355469 C 727.4375 1397.65625 732.925781 1390.757813 737 1387.425781 C 745.941406 1380.109375 756.359375 1372.589844 767 1368 C 760.964844 1376.394531 752.25 1383.578125 745 1391 C 742.847656 1393.222656 737.964844 1397.1875 738.167969 1400.683594 C 738.320313 1403.3125 744 1404.078125 746 1404.730469 C 754.585938 1407.609375 763.371094 1410 772 1412.65625 C 777.464844 1414.402344 784.171875 1415.292969 788.910156 1418.703125 C 797.398438 1424.8125 801.976563 1436.664063 810 1443.824219 C 821.328125 1454 836 1460.253906 850 1466.148438 C 888.347656 1482.484375 930 1497.046875 972 1500 C 1007.640625 1502.351563 1040.871094 1492.523438 1074 1480.691406 C 1094.601563 1473.335938 1115.96875 1465.195313 1134 1452.5625 C 1145.253906 1444.675781 1153.183594 1434.390625 1163 1425.105469 C 1173.289063 1415.453125 1192.78125 1413.46875 1206 1410 C 1208.972656 1409.03125 1219.507813 1407.484375 1219.886719 1403.722656 C 1220.28125 1399.8125 1214.859375 1395 1212.730469 1392 C 1205.378906 1382.09375 1196 1372.652344 1190 1362 C 1200.515625 1368.570313 1210.460938 1377.65625 1218.574219 1387 C 1221.984375 1391 1227.695313 1400 1233 1401.191406 C 1240.917969 1403 1256.453125 1394.300781 1264 1391.65625 C 1270.398438 1389.414063 1276.734375 1387 1283 1384.34375 C 1284.59375 1383.6875 1288.792969 1383.039063 1288.792969 1380.726563 C 1288.792969 1378.011719 1284.894531 1376 1283 1374.671875 C 1276.453125 1370.21875 1269.667969 1366.054688 1263 1361.78125 C 1235.507813 1344.171875 1207.632813 1325 1178 1311 L 1178 1310 C 1211.484375 1315 1246.605469 1333.335938 1276 1349.308594 C 1287.265625 1355.429688 1301.597656 1369.304688 1314 1371.828125 C 1321 1373.277344 1330.222656 1365.339844 1338 1365 C 1333.824219 1356.511719 1318.929688 1352 1311 1347.0625 C 1290.632813 1334.59375 1268.898438 1323 1247 1313.425781 C 1236.625 1309 1218.570313 1304.28125 1211 1296 C 1238.738281 1302.679688 1266.378906 1307 1293 1318 C 1315 1327 1336.414063 1343.277344 1359 1350.296875 C 1367.359375 1353 1377.433594 1343.140625 1384 1339.0625 C 1386.167969 1337.71875 1390.683594 1336.167969 1391.652344 1333.578125 C 1392.960938 1330.097656 1384 1328.203125 1382 1327.507813 C 1369.859375 1323.445313 1357.839844 1318.726563 1346 1314 C 1296.515625 1293.53125 1242.625 1273.210938 1190 1263 L 1190 1262 C 1241 1262 1292.761719 1269.742188 1342 1283.425781 C 1360 1288.441406 1378.222656 1293.074219 1396 1299 C 1404.332031 1301.777344 1415.265625 1308 1424 1308.253906 C 1428.613281 1308.421875 1432.679688 1304.085938 1436 1301.390625 C 1445 1294.03125 1453.484375 1286 1462.285156 1278.253906 C 1464.828125 1276.035156 1472.792969 1270.707031 1472.792969 1267.019531 C 1472.792969 1263.757813 1460.449219 1263 1458 1262.464844 C 1441.417969 1259.480469 1424.710938 1257.71875 1408 1255.714844 C 1337.421875 1247.246094 1265.910156 1242.597656 1195 1237 L 1195 1235 C 1218.230469 1235 1241.757813 1231.058594 1265 1230.039063 C 1312.554688 1228 1361.914063 1230.585938 1409 1237.128906 C 1429 1240 1449 1242.4375 1469 1246.398438 C 1475.230469 1247.644531 1487.3125 1252.09375 1492.960938 1248.394531 C 1501.375 1243 1507.988281 1231.007813 1513.882813 1223 C 1531.464844 1199.117188 1546.417969 1173.394531 1557.808594 1146 C 1587.988281 1073.433594 1605.445313 987.695313 1597.828125 909 C 1593.222656 861.394531 1573.839844 816.046875 1575 768 C 1575.488281 748.726563 1581 729.097656 1583.71875 710 C 1586.546875 689.007813 1586.816406 668 1589.285156 647 C 1590.921875 633.117188 1589.648438 619 1588 605 C 1587.613281 599.824219 1587.988281 593.375 1585 589 C 1580.496094 600.378906 1574.886719 616.261719 1565 624 C 1577.871094 599.476563 1578.964844 566 1584.660156 539 C 1604.464844 445.617188 1608.511719 347 1582.421875 254 C 1571 213.691406 1552.191406 148.046875 1500 149.054688 C 1491.761719 149.214844 1482.859375 151 1475 153.347656 C 1440.6875 164 1411.660156 186.371094 1385 209.714844 C 1341.355469 248 1303 292.546875 1269.722656 340 C 1248.695313 370 1231 405.007813 1205.882813 431.535156 C 1189 449.203125 1167 463 1146 475 M 613 359 C 630.945313 382.28125 645.820313 408.296875 661.691406 433 C 696.949219 488 730.308594 545.378906 756.859375 605 C 773.371094 642.074219 793.65625 686.046875 797 727 L 796 727 C 752.289063 633.664063 699 545.277344 657 451 C 647.183594 428.660156 635.90625 406.761719 624.742188 385 C 621.339844 378.367188 611.75 366.496094 613 359 M 1369 395 C 1360.191406 410.257813 1346 423.601563 1335.746094 438 C 1316.835938 464.21875 1299.992188 492.257813 1283.453125 520 C 1257.378906 563.738281 1230.617188 607.742188 1207.257813 653 C 1193.515625 679.628906 1183.742188 709.09375 1169 735 L 1168 735 C 1169 710.460938 1179.511719 684.003906 1187.496094 661 C 1211.984375 590.460938 1253.378906 526.023438 1299.800781 468 C 1319.234375 443.710938 1341.667969 410.800781 1369 395 M 1466 447 L 1466 448 C 1440.304688 465 1414.5625 479.8125 1391.171875 500.210938 C 1347 538.609375 1310.589844 586.0625 1274.882813 632 C 1255.867188 656.464844 1235.332031 680.300781 1218 706 C 1212 714.652344 1205.996094 723.054688 1200.601563 732 C 1197.851563 736.558594 1195.496094 743.054688 1191 746 C 1195.824219 713.203125 1213.742188 680.011719 1230.550781 652 C 1266.734375 591.691406 1313.648438 537.371094 1370 495.128906 C 1396.730469 475.089844 1432.183594 452 1466 447 M 814 500 L 813 501 L 814 500 M 770 731 C 761.757813 726 756.78125 712.734375 751 705 C 736.503906 685.054688 721.191406 665.554688 704.84375 647 C 661.503906 597.804688 607.722656 555.109375 548 527.691406 C 526.285156 517.722656 502.898438 508.085938 479 505 C 485 501 495 504.277344 502 505.050781 C 524.664063 507.597656 546.402344 513.464844 568 520.667969 C 636.332031 543.449219 691.929688 591.0625 731.746094 650 C 748 674.152344 763.222656 702.402344 770 731 M 738 736 C 723.757813 725.757813 712.253906 709.09375 699 697.167969 C 666.832031 668.230469 630.527344 642.09375 593 620.578125 C 576.800781 611.292969 559 600.195313 541 595 C 545.941406 593.074219 552 596 557 597.425781 C 570.21875 601.289063 583.222656 606.285156 596 611.398438 C 635.90625 627.375 670.726563 651.714844 701 682 C 715.351563 696.359375 732.253906 716.058594 738 736 M 1387 633 C 1378.300781 638.3125 1365.675781 640.429688 1356 644.050781 C 1341.453125 649.492188 1327.363281 657.144531 1314 665.011719 C 1283.320313 683.066406 1259.722656 708.832031 1231 729 C 1235.296875 715.542969 1248.199219 701.816406 1258 692 C 1282.699219 667.257813 1311.722656 647.75 1346 639.128906 C 1357.554688 636.21875 1375.300781 629.640625 1387 633 M 311 1305 C 315.375 1302.214844 321 1300.683594 324.605469 1296.785156 C 328.796875 1292.207031 330.53125 1284.675781 332.800781 1279 C 337.480469 1267.300781 342.648438 1255.8125 347 1244 C 348.882813 1239.082031 356.296875 1226.46875 353.789063 1221.414063 C 352 1218 345.222656 1216.363281 342 1214.5625 C 333.359375 1209.730469 324.40625 1204.4375 317 1197.824219 C 290.214844 1174 274.617188 1141.640625 271.171875 1106 C 265 1043 301 989.59375 319.496094 932 C 339.414063 870 337.214844 804.097656 311.28125 744 C 298.832031 715.152344 280.171875 686.417969 254 668.28125 C 240.335938 658.816406 222.796875 652.109375 206 657.042969 C 185 663.164063 176.953125 686.609375 184.46875 706 C 191.644531 724.519531 209.554688 738 220.652344 754 C 243.246094 787 249.765625 826.210938 241.488281 865 C 230 918.441406 195.347656 963.558594 175.8125 1014 C 142.570313 1099.816406 150.792969 1199.027344 198.199219 1278 C 214 1304.480469 234.597656 1327.832031 258 1348 C 263.851563 1353 275.957031 1365.492188 283.90625 1366.117188 C 289 1366.519531 293.941406 1354.632813 296.191406 1351 C 303.269531 1339.578125 309.472656 1328 315.78125 1316 C 316.851563 1314 322.578125 1307.304688 320.828125 1305.066406 C 319.46875 1303.332031 313 1305 311 1305 M 1162 873 C 1159.691406 899.449219 1153 922.59375 1162.695313 949 C 1183.753906 1007.015625 1260 1026.519531 1301.570313 978 C 1308.535156 970 1314 961.0625 1317.773438 951 C 1326.992188 926.105469 1324.761719 896.058594 1311.574219 873 C 1304 860 1293.515625 850.089844 1285 838 C 1347.753906 849.1875 1379.984375 927 1362.253906 983 C 1349.453125 1023.5 1314.992188 1053.113281 1274 1062.765625 C 1229.453125 1073.253906 1179.976563 1060.5 1149.175781 1026 C 1117.984375 991.066406 1118.1875 941.359375 1140.285156 902 C 1146 891.785156 1152.277344 880 1162 873 M 1208 841.300781 C 1220.457031 839.460938 1232.871094 843.214844 1240 854 C 1251.910156 871.425781 1240.960938 898.148438 1220 901.675781 C 1208 903.671875 1196 900.691406 1188.390625 891 C 1174 873 1185 844.691406 1208 841.300781 M 675 850.300781 C 715.679688 844.4375 729.402344 907 688 914 C 676.765625 915.75 664.894531 914.070313 656.441406 905.675781 C 637.386719 886.757813 648.828125 854.074219 675 850.300781 M 641 864 C 633.894531 888.679688 626.621094 909.6875 629.171875 936 C 630.417969 949 634.4375 961.75 640.871094 973 C 646.480469 982.804688 654.324219 991.484375 663 998.675781 C 715.695313 1042.351563 792.238281 997.722656 796.910156 934 C 799 904.074219 785.6875 883.71875 770 860 C 788.167969 864.320313 804.847656 889.246094 814.339844 904 C 848.703125 957.410156 838.355469 1027 782 1060.394531 C 769.210938 1068.003906 754.628906 1073 740 1075.535156 C 687.433594 1084.828125 630 1060.660156 604.308594 1013 C 582.777344 973.191406 586.296875 923.582031 614.601563 888 C 621.828125 879 630 868.613281 641 864 M 1620 994 C 1620 1059 1602.785156 1125.769531 1572.21875 1183 C 1561.890625 1202.339844 1549.933594 1221.113281 1535.917969 1238 C 1533.324219 1241.125 1520.929688 1252.4375 1521.90625 1256.503906 C 1522.363281 1258.402344 1526.480469 1259.046875 1528 1259.589844 C 1534.257813 1261.824219 1540.621094 1263.460938 1547 1265.289063 C 1572.453125 1272.597656 1597.511719 1282.007813 1622 1292 L 1622 1293 C 1594.550781 1291.746094 1565 1283.382813 1538 1278.195313 C 1528.832031 1276.441406 1511.980469 1270.261719 1503 1273.605469 C 1495.777344 1276.304688 1488.449219 1287.550781 1483 1293 C 1476.484375 1299.515625 1469.667969 1305.628906 1463 1312 C 1461.472656 1313.4375 1457.472656 1316.125 1457.921875 1318.65625 C 1458.570313 1322.308594 1474.609375 1326 1478 1327.191406 C 1498.84375 1335.085938 1519.507813 1343.054688 1540 1352 C 1615.347656 1384.1875 1694.625 1427.628906 1753 1486 C 1725.960938 1474.683594 1701.210938 1454.789063 1675 1441.257813 C 1616.308594 1411 1554.542969 1383.644531 1491 1365.140625 C 1468.6875 1358.644531 1446.789063 1349 1424 1344.121094 C 1418.390625 1343 1404 1347.066406 1402.921875 1354.109375 C 1402.183594 1358.820313 1417.539063 1365.414063 1421 1367.425781 C 1440.523438 1378.769531 1459.183594 1392.042969 1477 1406 C 1542.371094 1456.664063 1600.40625 1522.355469 1637 1597 C 1617.390625 1575.515625 1602 1550 1582.714844 1528 C 1544.253906 1484.230469 1500.945313 1444.441406 1454 1410 C 1437 1397.4375 1418.539063 1385.636719 1400 1375.78125 C 1398 1374.730469 1382.699219 1365.074219 1381.921875 1368.53125 C 1381 1372.117188 1391.625 1378.296875 1394 1380.199219 C 1407.960938 1391.390625 1420.820313 1403.71875 1433.960938 1415.816406 C 1466.234375 1445.53125 1493.398438 1479.40625 1516 1517 C 1524.300781 1530.808594 1536 1549.027344 1539 1565 L 1538 1565 C 1529.984375 1548 1517 1532.167969 1505.882813 1517 C 1474.773438 1474.808594 1435.410156 1435.441406 1394 1403.347656 C 1378.914063 1391.65625 1362.699219 1376.820313 1345 1369.253906 C 1340.585938 1367.363281 1328.800781 1373.101563 1327.460938 1378.015625 C 1326.410156 1382 1333.570313 1386 1336 1387.800781 C 1346 1395.832031 1355.894531 1404 1365 1413 C 1400.191406 1448.148438 1428.910156 1487 1452 1531 C 1436.5625 1518.433594 1424.96875 1497.113281 1411.714844 1482 C 1383.3125 1449.609375 1349.308594 1417.324219 1312 1395.253906 C 1306.460938 1392 1302.261719 1395.398438 1297 1397.546875 C 1285 1402.421875 1273 1407.355469 1261 1411.691406 C 1257.570313 1413 1246.734375 1415.1875 1245.878906 1419.226563 C 1244.941406 1423.664063 1251.460938 1431.292969 1253.578125 1435 C 1260.605469 1447.285156 1266.878906 1459.796875 1272 1473 C 1261.910156 1461.171875 1253.523438 1448 1243.566406 1436 C 1240.460938 1432.269531 1236 1425 1231 1424 C 1225 1422.765625 1214.355469 1429.308594 1209 1431.769531 C 1186 1442.269531 1171.191406 1462.78125 1150 1476 C 1100 1507 1035.1875 1529.554688 976 1527 C 918 1524.429688 855.613281 1504.480469 806 1474.550781 C 788.695313 1464.109375 778.316406 1448.714844 762.996094 1436.519531 C 753.609375 1429.046875 740.246094 1424.324219 729 1420.328125 C 721.308594 1417.59375 716.261719 1425.21875 711.386719 1430 C 698.433594 1442.707031 687.5 1457 675 1470 C 679.917969 1455.554688 689.390625 1442.4375 698 1430 C 700.371094 1426.617188 708.710938 1419.523438 708 1415.277344 C 707.429688 1411 690.824219 1407.027344 687 1405.425781 C 679.699219 1402.363281 666.910156 1394.121094 659 1395 C 654.4375 1395.34375 649.710938 1399.554688 646 1402.003906 C 636 1408.523438 626.699219 1415.566406 617 1422.34375 C 567.90625 1456.640625 523.5 1503.246094 490.332031 1553 C 478.4375 1571 463 1592 458 1613 L 457 1613 C 458.613281 1594.480469 467 1575.679688 474.691406 1559 C 495.492188 1513.6875 525.402344 1473.738281 561 1439.015625 C 576.792969 1423.609375 594.445313 1410.503906 612 1397.230469 C 615 1395 628.792969 1388.375 628.792969 1384.238281 C 628.792969 1379.761719 610.859375 1372.351563 607 1373.484375 C 584.53125 1380.078125 562.949219 1396.128906 543 1408.015625 C 487.6875 1441 435.746094 1481.785156 390 1527.003906 C 370 1546.621094 353.589844 1569.246094 334 1589 C 341.273438 1573.621094 352.191406 1559.828125 361.964844 1546 C 398.621094 1494.125 446.394531 1448 498 1411 C 517 1397.179688 536.382813 1383.628906 557 1372.304688 C 560.402344 1370.4375 576.792969 1363.828125 576.792969 1359.703125 C 576.792969 1357.140625 572.789063 1355.324219 571 1354.191406 C 565 1350.460938 559.507813 1342.714844 552 1345 C 518.230469 1354.746094 485.339844 1367.511719 452 1378.667969 C 410.507813 1392.550781 369 1407.488281 329 1425.140625 C 315.882813 1431 292.996094 1437 283.820313 1448.378906 C 280 1453.113281 278.757813 1462.167969 277.425781 1468 C 273.832031 1483.71875 271.382813 1499 270.984375 1515 C 270.289063 1543.386719 273.339844 1572 285.554688 1598 C 305 1640 349 1665.398438 394 1672 C 389 1676.597656 380.414063 1677.523438 374 1678.800781 C 359 1681.773438 344 1684.148438 329 1686.285156 C 271.664063 1694.414063 211.324219 1696.125 155 1710 L 155 1711 C 193.644531 1711 232.488281 1710.453125 271 1713.089844 C 299 1715.015625 327.777344 1718 356 1718 L 356 1720 C 309.390625 1723.679688 262.554688 1724.398438 216 1728.828125 C 201.429688 1730.21875 185.203125 1728.617188 171 1732 L 171 1733 C 186.847656 1736 203.921875 1734 220 1735.089844 C 265.320313 1738.191406 310.746094 1739.523438 356 1743.828125 C 376.480469 1745.777344 397.972656 1745.816406 418 1751 L 418 1752 C 374.171875 1752.027344 329.800781 1755.042969 286 1757 C 267.945313 1757.75 244.210938 1754 227 1759 L 227 1760 C 259.3125 1760.089844 291.785156 1765.703125 324 1768 C 372.796875 1771.253906 425.378906 1771.679688 473 1784 C 460 1789.433594 442.78125 1788.4375 429 1789.039063 C 405.671875 1790.0625 382.386719 1793 359 1793 L 359 1795 C 385.472656 1795.21875 412.597656 1802.273438 439 1804.828125 C 492 1810 544.867188 1815.273438 598 1819 C 664.179688 1823.441406 731.785156 1822 798 1819 C 822.605469 1818 847.386719 1813.066406 872 1813 L 872 1811 C 810.84375 1811 747.582031 1802.824219 687 1795 L 687 1794 C 724.660156 1792.382813 762.390625 1788.664063 800 1786.089844 C 834.652344 1783.714844 870.769531 1783.355469 905 1777 L 905 1776 C 888.171875 1774.625 870.472656 1770.199219 854 1766.5 C 852.3125 1766.121094 837.753906 1764 839.207031 1761.515625 C 840.417969 1759.496094 845 1760 847 1759.710938 C 854.671875 1758.675781 862.328125 1758 870 1757 C 902.4375 1752.363281 935.414063 1750.140625 968 1746 L 968 1745 C 941.175781 1738.539063 912.769531 1739 886 1732 C 910.957031 1717.4375 941 1714.136719 969 1708.550781 C 976 1707.144531 983 1705.429688 990 1704 C 991.441406 1703.566406 996.550781 1703.46875 997 1701.714844 C 997.660156 1699.789063 990 1699 989 1698.625 C 980.335938 1696.496094 971.875 1694.128906 963 1693 L 963 1692 C 980.273438 1688.792969 1001.550781 1688.285156 1019 1690.574219 C 1024.210938 1691.261719 1030 1690.164063 1035 1692.433594 C 1040.632813 1695.046875 1044.800781 1701.027344 1049.171875 1705.285156 C 1051.871094 1708 1068.253906 1719.808594 1066.792969 1723.449219 C 1065.648438 1726.308594 1058.558594 1727 1056 1727.472656 C 1048.4375 1729.363281 1030.519531 1730.523438 1026 1737 C 1058.222656 1741.09375 1090.171875 1749.195313 1122 1755.550781 C 1166 1764.363281 1210.792969 1771.71875 1253 1788 L 1253 1789 C 1230 1789.003906 1199.6875 1789.65625 1178 1797 L 1178 1798 C 1219.894531 1810.757813 1267.535156 1813.136719 1311 1815.039063 C 1378.816406 1818.007813 1445.492188 1815.394531 1513 1808.164063 C 1558 1803.335938 1607.691406 1801.6875 1651 1787 C 1644 1782.257813 1631.222656 1782.699219 1623 1781.714844 C 1600.503906 1779.015625 1577.242188 1779.128906 1555 1775 L 1555 1774 C 1578.351563 1771.050781 1601.632813 1766.617188 1625 1764.171875 C 1641.550781 1762.433594 1662.621094 1762.488281 1678 1756 L 1678 1755 C 1651.257813 1747.078125 1619.730469 1746.296875 1592 1743 C 1584.964844 1742 1577.984375 1740.308594 1571 1739.078125 C 1569.492188 1738.816406 1565.183594 1738.636719 1564.632813 1736.738281 C 1564 1734.652344 1575.351563 1731.710938 1577 1731.203125 C 1591.464844 1726.78125 1607 1726.476563 1622 1724.714844 C 1657.609375 1720.496094 1693.328125 1718.28125 1729 1714.828125 C 1756.855469 1712.136719 1785 1707.199219 1813 1706 C 1810 1702 1803.597656 1702.628906 1799 1702 C 1786.683594 1700.3125 1774.3125 1699.214844 1762 1697.574219 C 1726.894531 1693 1691.246094 1691.199219 1656 1687.828125 C 1637.765625 1686.085938 1619.3125 1682.378906 1601 1682 L 1601 1680 C 1622.679688 1680 1644.363281 1677 1666 1676.039063 C 1702 1674.464844 1738 1673.613281 1774 1672.039063 C 1801.730469 1670.824219 1829.5 1668.496094 1857 1664.425781 C 1868.460938 1662.730469 1881 1662.085938 1892 1658 L 1892 1657 C 1860.238281 1643 1822.371094 1642.632813 1789 1634 L 1789 1633 C 1816.296875 1633 1845.207031 1630 1872 1624.550781 C 1877.601563 1623.429688 1895.792969 1621.039063 1895.792969 1613.027344 C 1895.792969 1607.050781 1882.3125 1604.523438 1878 1603.296875 C 1857.589844 1597.503906 1835.910156 1596 1815 1593 C 1810.675781 1592.40625 1793 1593 1792 1587.773438 C 1791.285156 1583.402344 1795 1576.242188 1796.289063 1572 C 1799.257813 1561.554688 1801.339844 1550.769531 1802.714844 1540 C 1806.917969 1507.0625 1806.523438 1472.402344 1798.527344 1440 C 1790.21875 1406.335938 1778.9375 1373.738281 1762.703125 1343 C 1743 1305.746094 1718 1271 1709.285156 1229 C 1703 1199 1701.625 1168.132813 1695.550781 1138 C 1687.777344 1099.449219 1670.929688 1061.007813 1648 1029 C 1639.839844 1017.339844 1631.472656 1002.773438 1620 994 M 934 1138.285156 C 948.785156 1136.589844 961.679688 1145.78125 976 1146.402344 C 997.363281 1147.324219 1013.667969 1132 1035 1145.273438 C 1046.621094 1152.527344 1053.644531 1166 1056.335938 1179 C 1056.6875 1180.730469 1058.621094 1192.769531 1056 1192.792969 C 1053.714844 1192.816406 1049.9375 1187.546875 1047.996094 1186.246094 C 1042.699219 1182.703125 1036.355469 1180.789063 1030 1181.039063 C 1010.417969 1181.808594 993.25 1191.484375 973 1191 C 954.679688 1190.535156 938 1180.300781 920 1179.375 C 915.503906 1179.144531 910 1180.003906 906 1182 C 903.796875 1183.085938 900.238281 1186.695313 897.601563 1186.09375 C 893 1185.050781 897.949219 1168 898.890625 1165 C 904.347656 1148.53125 917.335938 1140.199219 934 1138.285156 M 362 1287 C 383.808594 1284.8125 406.738281 1271.40625 428 1265.445313 C 431.226563 1264.539063 447.449219 1262 448 1258.410156 C 448.816406 1254.269531 439.824219 1248 437.300781 1245.171875 C 426.445313 1233.714844 416.75 1221 407.71875 1208 C 406 1205.546875 399.914063 1193.148438 396.402344 1194 C 393.550781 1194.550781 390.230469 1213 389 1216 C 380.988281 1239.515625 368 1263 362 1287 M 297 1422 C 315.695313 1415.15625 333.332031 1401.632813 351 1392.296875 C 387 1373.269531 424.171875 1356 462 1340.800781 C 475.628906 1335.347656 489.269531 1330 503 1324.683594 C 505.605469 1323.699219 515.8125 1321.757813 516.367188 1318.726563 C 516.859375 1316.042969 512.714844 1313.574219 511 1312.210938 C 505.199219 1307.59375 499.496094 1303 494 1298 C 486.726563 1291.324219 477.199219 1278 468 1274.605469 C 461.652344 1272.34375 450.421875 1276.480469 444 1278 C 427.464844 1281.492188 410.539063 1283.382813 394 1287.015625 C 383.726563 1289.269531 365.683594 1290.21875 357.273438 1296.742188 C 349.605469 1302.6875 345 1322.117188 341 1331 C 330.730469 1353.378906 318.316406 1374.691406 307.917969 1397 C 304.210938 1405 298.546875 1413.328125 297 1422 M 675 1470 L 674 1471 L 675 1470 M 1272.667969 1473.667969 C 1272.722656 1473.722656 1272.777344 1474.777344 1272.332031 1474.332031 C 1272.277344 1474.277344 1272.222656 1473.222656 1272.667969 1473.667969 M 1157 1514 C 1148 1531.332031 1130.902344 1543.773438 1122 1562 C 1108.757813 1589.25 1098.628906 1621 1094.300781 1651 C 1092.398438 1664.1875 1095 1678.476563 1093 1691 C 1074.210938 1671 1072.582031 1639.378906 1076 1614 L 1075 1614 C 1069.75 1625.550781 1062.628906 1635.433594 1059.652344 1648 C 1057.671875 1656.390625 1059.746094 1665 1058 1673 C 1044.421875 1656.175781 1049.753906 1627 1054.847656 1608 C 1063.761719 1575 1077.753906 1538.476563 1111 1523 C 1124.8125 1516.414063 1141.867188 1514.042969 1157 1514 M 910 1676 L 909 1676 C 909.816406 1657.023438 907.28125 1630.183594 891 1617 C 896.53125 1634.488281 892.6875 1656.125 886.828125 1673 C 884.808594 1678.820313 882.179688 1687.367188 877 1691 C 877.890625 1648 864 1596.449219 842 1559 C 833.203125 1543.765625 816.191406 1531.417969 809 1516 C 866.414063 1517.183594 897.90625 1555.671875 912.554688 1608 C 918.820313 1630.382813 921.972656 1655 910 1676 M 1218 1559 C 1210.5625 1572 1198.660156 1582.488281 1190.355469 1595 C 1174.992188 1618.148438 1166.511719 1648.199219 1169.171875 1676 C 1170.546875 1690.414063 1177.597656 1701.539063 1181 1715 L 1180 1715 C 1162.761719 1696.605469 1147 1686.511719 1147 1659 L 1146 1659 C 1139.46875 1676 1135.394531 1691.667969 1137.171875 1710 C 1137.902344 1717.585938 1140.898438 1724.550781 1142 1732 C 1125.679688 1724.164063 1117.257813 1699.570313 1114.589844 1683 C 1104 1618.0625 1163.972656 1577 1218 1559 M 723 1766 C 724.820313 1745.144531 729.308594 1728.3125 725.195313 1707 C 724.792969 1705 722.199219 1687.648438 719.359375 1689.207031 C 715.570313 1691.289063 714 1707.734375 712.667969 1712 C 707.808594 1726.582031 698.785156 1745 686 1754 C 687.558594 1742.484375 692.675781 1731.75 693.828125 1720 C 697.289063 1685 692.707031 1646.191406 677.449219 1614 C 669.199219 1596.59375 655.4375 1583.40625 646 1567 C 708.890625 1585.464844 752.632813 1635.414063 750 1702 C 749.171875 1724.257813 742 1752 723 1766 M 754 1567 C 771.285156 1580.285156 794 1583 812 1595.746094 C 845.40625 1619.785156 862.390625 1662.257813 847.945313 1702 C 843.777344 1713.46875 835.265625 1729.828125 823 1734 C 827.527344 1715 831.820313 1700.765625 826.730469 1681 C 825.347656 1675.625 824.886719 1669.132813 821 1665 C 820.863281 1681.667969 809.921875 1704.597656 793 1710 C 795.171875 1702.464844 799.234375 1696 800.566406 1688 C 805 1661 798.667969 1632.683594 785 1609 C 779.464844 1599.09375 772.460938 1589.476563 764.828125 1581 C 761.277344 1577.054688 754.351563 1572.589844 754 1567 M 1328 1574 C 1318.90625 1590 1306.542969 1603 1299 1620 C 1281.179688 1661.230469 1280.902344 1711.503906 1297 1753 C 1283.746094 1746.285156 1273 1723.441406 1268 1710 C 1266.308594 1705.277344 1265.226563 1693 1261.289063 1690 C 1258.714844 1688 1254.808594 1706.632813 1254.4375 1709 C 1251.203125 1729.667969 1254.707031 1747.195313 1260 1767 C 1239.914063 1757.269531 1231.992188 1728.148438 1229.835938 1708 C 1223.316406 1647.121094 1266.257813 1585.007813 1328 1574 M 1543 1701 C 1547.339844 1685.136719 1554.679688 1667.460938 1547.46875 1651 C 1545 1645.742188 1534.914063 1641.65625 1534 1637.695313 C 1532.96875 1632 1537.910156 1623.398438 1537.742188 1617 C 1537.394531 1604.0625 1532.472656 1593.144531 1529 1581 C 1566.96875 1587.769531 1577.5625 1639 1567.328125 1670 C 1563.324219 1682.15625 1555.550781 1696.136719 1543 1701 M 446 1586 C 446 1596.816406 444.90625 1608.300781 446.589844 1619 C 447.441406 1624.417969 452.324219 1632.59375 451.757813 1637.699219 C 451.472656 1640.300781 446.789063 1641.714844 445 1643.226563 C 441.597656 1646.144531 439.324219 1649.714844 438 1654 C 432.976563 1671 441.378906 1686.167969 445 1702 C 416.253906 1685.464844 409.710938 1645.117188 420.683594 1616 C 425 1604.324219 433.902344 1590.6875 446 1586 M 551 1592 C 551 1603 552.269531 1613 558.789063 1622 C 569.476563 1637 587.933594 1643.777344 597.691406 1660 C 612.71875 1685 613.738281 1713.722656 622 1741 C 625.96875 1754 634.585938 1763.171875 640 1775 C 618.980469 1766.203125 602.570313 1749.132813 592.503906 1729 C 589.28125 1722.558594 586.628906 1716 584.734375 1709 C 584.375 1707.679688 583.882813 1703.054688 581.886719 1703.054688 C 578.726563 1703.054688 579 1719.605469 579.285156 1722 C 580.679688 1734 582.453125 1745 586.921875 1756 C 589.871094 1763.367188 595.5 1770.222656 597 1778 C 546 1756.585938 528.816406 1689.808594 534.714844 1640 C 536.277344 1626.800781 538.726563 1600.039063 551 1592 M 1383 1781 C 1397 1754.246094 1400 1733.6875 1400 1704 C 1394 1709.679688 1392.714844 1721.539063 1389.21875 1729 C 1380.179688 1748.273438 1361.804688 1773.371094 1340 1779 C 1345.457031 1767.085938 1354.386719 1758.0625 1358.277344 1745 C 1366.472656 1717.507813 1367 1688.175781 1382.207031 1663 C 1398.515625 1635.820313 1430.996094 1628.144531 1431 1592 C 1435.875 1594.765625 1437.800781 1601 1439.796875 1606 C 1444.980469 1619.085938 1447 1633 1447 1647 C 1447 1686.472656 1441.171875 1725 1414.570313 1756 C 1406.3125 1765.640625 1395.554688 1777.304688 1383 1781 M 501 1651 C 498.5625 1670.292969 498.847656 1691.363281 504.886719 1710 C 509 1722.8125 517.996094 1735.214844 521 1748 C 513.628906 1744.714844 507.859375 1738.269531 501 1734 C 501 1747.324219 507.175781 1756 511 1768 C 479 1752.109375 466.875 1710.242188 480 1678 C 483.832031 1668.632813 490.535156 1654 501 1651 M 1474 1769 C 1476.679688 1760.378906 1481 1753.085938 1482.738281 1744 C 1483 1742.382813 1484.855469 1736.367188 1482.472656 1735.59375 C 1479.195313 1734.527344 1469 1745.640625 1465 1747 C 1469.832031 1730.578125 1479.773438 1716.242188 1483.574219 1699 C 1487.195313 1682.578125 1484.339844 1667.449219 1484 1651 C 1494.410156 1656 1501.78125 1667.683594 1505.984375 1678 C 1518.917969 1709.730469 1506 1753.773438 1474 1769 M 1147 1658 L 1148 1659 L 1147 1658 "/></g></svg>