<svg xmlns="http://www.w3.org/2000/svg" xmlns:xlink="http://www.w3.org/1999/xlink" viewBox="0 0 100 100" version="1.1"><g transform="translate(1, 1.8814492598719355) scale(0.052294557097118465) translate(-61, -78)"><path style=" stroke:none;fill-rule:nonzero;fill:rgb(0%,0%,0%);fill-opacity:1;" d="M 412 78 C 423.804688 106.445313 446.496094 128.757813 455 159 C 440 146.046875 428.867188 126 410 118 C 411.824219 124.78125 417.914063 130.066406 421.535156 136 C 429.730469 149.425781 439.308594 164 446 178 C 433.40625 172.042969 421.175781 164.785156 408 160 C 411.175781 175.734375 431.207031 184.492188 433 202 C 424.65625 197.609375 415.441406 190.183594 406 189 C 412.769531 201 432.4375 216 425.777344 230 C 424.503906 232.683594 422.167969 241.414063 418.46875 241.347656 C 414 241.269531 408.355469 236.09375 405 233.703125 C 391.785156 224.285156 381.742188 206.40625 368 199 C 369.785156 216.433594 382.179688 240.375 394 253 C 395.59375 254.65625 407.964844 266.410156 406.246094 268.429688 C 405 270 399 265.4375 398 264.796875 C 390 260.050781 383.257813 252.78125 375 249 C 378.804688 263.667969 397 273 400.738281 287.003906 C 403.519531 297.640625 392.550781 305.035156 384 301.546875 C 372.703125 297 362.3125 290.5625 353 282.601563 C 348 278.332031 344.894531 272 339 269 C 342.6875 284.523438 353.394531 301.070313 365 311.828125 C 369.792969 316.253906 383.710938 322.597656 385.183594 329.039063 C 388.507813 343.578125 373.761719 349.003906 363 347.246094 C 337.960938 343.15625 320.628906 331.640625 300 318 C 304.34375 336.496094 327 356 343 364.6875 C 348.492188 367.722656 365 371.753906 367.761719 377.417969 C 373.460938 389.527344 351.300781 388.003906 346 388 C 320.777344 388 298 381.714844 275 373 C 281.648438 392.507813 314.453125 401 332 406 C 336.761719 407.210938 354.90625 410.207031 356.472656 415.417969 C 357.277344 418.089844 354.390625 421.117188 351.894531 421.355469 C 345.714844 422 336.191406 418.207031 330 417 C 294.863281 409.382813 259 419.710938 224 420 C 228 425.671875 246 425.058594 253 426 C 279.84375 429.679688 305.796875 434 332 441 L 332 442 C 305.96875 442 279.78125 445.183594 255 453.515625 C 232.835938 461 211 476 187 475.820313 C 179.242188 475.808594 172 472.402344 165 470 C 168.8125 483.585938 187.863281 490.171875 200 493.796875 C 236.203125 504.613281 273.371094 497.207031 309 513 C 270.804688 523.734375 227.308594 529.546875 189 520 C 194.257813 531.183594 211 536.671875 222 540.332031 C 241.484375 546.824219 261.84375 549.054688 282 552.433594 C 297.226563 555 312.640625 559.785156 328 561 C 320 569.339844 299.953125 570.40625 289 572.460938 C 255.53125 578.730469 218.960938 578.496094 187 565.546875 C 176 561.117188 167.871094 554 158 548 C 158.253906 555.179688 165.65625 562.628906 170 568 C 186.449219 588 206.914063 596 229 607 C 206.542969 615.371094 182 620.558594 158 619 C 148.703125 618.273438 140 615.34375 131 614 C 137.820313 626.433594 164.183594 630.390625 177 632.410156 C 223.503906 639.730469 273.644531 633 320 627 C 310.425781 637.75 294.519531 645.316406 282 652.175781 C 230.53125 680.359375 174.191406 687.054688 119 667 C 122.421875 679.179688 140.496094 686.296875 151 691.21875 C 187 708.117188 227.226563 709.308594 265 699 C 255.746094 711.308594 236.789063 720.261719 223 726.433594 C 191.609375 740.488281 159.207031 747 125 741.5625 C 113.722656 739.785156 103.855469 734.484375 93 732 C 99.375 745.664063 118.695313 753.394531 132 758.320313 C 172.886719 773.449219 217.714844 767.628906 258 754 C 249.757813 765.460938 235.6875 774.082031 224 781.695313 C 188.628906 804.730469 149.464844 820.78125 107 809 C 88.199219 803.558594 76.945313 791.46875 61 782 C 62.4375 795.304688 74.9375 810 84 819 C 116 851.234375 160.394531 861.433594 203 845 C 184.40625 871 143.5625 885.355469 114 893.117188 C 106.777344 895.011719 99 895 92 897 L 92 898 C 106.554688 904.261719 123.460938 904.359375 139 905.039063 C 185.464844 907.074219 229.242188 897.800781 272 880 C 264.546875 890.125 251.359375 897.425781 241 904.332031 C 213.386719 922.742188 181 936.164063 149 944.523438 C 134.324219 948.34375 118.285156 948.773438 104 953 L 104 954 C 115.921875 959.769531 132.960938 959.132813 146 960.089844 C 181.179688 962.667969 222 959.746094 256 949 C 247.1875 958.386719 230.695313 964.335938 219 969.425781 C 191.675781 981.3125 163 990.457031 136 1002.695313 C 125.703125 1007.335938 110.429688 1012.332031 103 1021 C 115 1020.484375 126.929688 1017 139 1016.089844 C 160.566406 1014.613281 181.503906 1016.554688 203 1017 C 192.324219 1025.773438 178 1031.722656 166 1038.308594 C 149.289063 1047.367188 133.460938 1058 118 1069 C 108.765625 1075.585938 97.671875 1082.726563 91 1092 C 99.210938 1091 106.925781 1086.015625 115 1084 C 136.824219 1078.125 161.394531 1072.46875 184 1072 C 172.417969 1084 153.226563 1090.214844 140 1100.808594 C 112 1123.117188 91.550781 1157 88.910156 1193 C 88 1203.238281 87.3125 1214.160156 91 1224 L 92 1224 C 93.96875 1217.351563 93.664063 1210.503906 96.621094 1204 C 111.671875 1171 144.867188 1148.160156 182 1157 C 134.730469 1186.035156 90.375 1238.085938 82 1295 C 87 1293.347656 88.761719 1288.027344 91.761719 1284 C 95.761719 1278.621094 100.871094 1274.027344 106 1269.753906 C 123.460938 1255.203125 148.363281 1244.050781 171 1241 C 124.460938 1287.539063 76.242188 1330.796875 68.835938 1400 C 67 1416.105469 64.761719 1445.261719 75 1459 C 78.863281 1446 79.664063 1432.191406 84.53125 1419 C 94 1393.070313 110 1364.644531 131 1346.285156 C 140.929688 1337.578125 151.769531 1332.554688 163 1326 C 157.515625 1337.527344 147.664063 1347.277344 140.695313 1358 C 124.898438 1382.308594 108.222656 1421.304688 117 1451 L 118 1451 C 125.402344 1427.644531 140 1410.242188 163 1400.335938 C 170.417969 1397.136719 178.449219 1395.8125 186 1393 C 182.371094 1400.789063 174.734375 1407.492188 169 1414 C 158.597656 1426.234375 147.90625 1438.496094 139 1452 C 110.191406 1495.699219 93.445313 1541.101563 97 1594 C 97.964844 1606.679688 102.898438 1618.597656 105 1631 L 107 1631 C 107 1584.050781 114.355469 1537.488281 158 1510.371094 C 169 1503.53125 181.511719 1504 193 1499 C 185.96875 1514.351563 169.464844 1527 159.722656 1541 C 141.839844 1566.71875 130.25 1598.0625 126 1629 C 124.5 1640 125 1651 125 1662 C 125 1666.351563 124 1671.261719 128 1674 C 128 1635.0625 162.878906 1601.554688 199 1593 C 186 1614.007813 176.722656 1637.472656 161.574219 1657 C 146 1677.058594 126.636719 1693.621094 111.476563 1714 C 91.875 1740.359375 81.40625 1772.253906 80 1805 C 85.335938 1802 87.414063 1792.425781 90.261719 1787 C 95.59375 1777 103.410156 1767.425781 111.425781 1759.285156 C 134.195313 1736.15625 164.535156 1727.0625 195 1719 C 189.679688 1730.613281 178.429688 1741.34375 170 1751 C 154.335938 1769.382813 139.285156 1788.785156 119 1802.535156 C 110.921875 1808.011719 101.363281 1812.65625 92 1815.429688 C 87.375 1816.800781 80.769531 1815.726563 78 1820 C 103.464844 1820.527344 130.6875 1824.761719 155 1814 C 143 1830.148438 116.199219 1838.25 97 1840.074219 C 94 1840.347656 76.636719 1841.332031 76.636719 1844.171875 C 76.636719 1848.160156 91 1848 94 1848 C 113 1848.449219 131.941406 1849 151 1849 C 232.382813 1849 313.746094 1854 395 1854 L 395 1856 C 378.25 1856 361.699219 1859.230469 345 1860 C 281 1862.757813 217 1865 153 1865 C 133.945313 1865 115 1866 96 1866 C 94.195313 1866 78.191406 1865.367188 78.921875 1867.714844 C 79.460938 1869.460938 83.671875 1869.03125 85 1869.167969 C 92 1870 98.914063 1870 106 1870 C 134.65625 1870 163.289063 1871 192 1871 C 258.273438 1871 324.617188 1873 391 1873 C 444.5 1873 499.929688 1870.292969 553 1877 L 553 1878 C 434.8125 1887.328125 314.664063 1885 196 1885 C 166.644531 1885 137.390625 1886 108 1886 C 101.203125 1886 82.199219 1883.230469 78 1889 C 257.285156 1889 436.75 1892 616 1894 C 731.199219 1895.367188 846.683594 1892.632813 962 1894.003906 C 1039.621094 1895 1117.46875 1899 1195 1899 L 1195 1900 C 1173.898438 1904 1151.386719 1901.101563 1130 1902.039063 C 1060.898438 1905.066406 991.222656 1903 922 1903 C 748.929688 1903 575.878906 1905.164063 403 1906 C 339.960938 1906.304688 276.996094 1907 214 1907 C 198.949219 1907 183.988281 1907 169 1908 C 166.746094 1908.066406 155.734375 1906.632813 154.921875 1909.285156 C 154.382813 1911.039063 159 1911.433594 160 1911.570313 C 165.574219 1912.421875 171.382813 1912 177 1912 C 201.652344 1912 226.292969 1913 251 1913 C 355.324219 1913 459.609375 1916 564 1916 C 756.917969 1916 950 1918.289063 1143 1916 C 1237.316406 1915 1331.710938 1911.324219 1426 1909.015625 C 1580.953125 1905.21875 1736 1904.195313 1891 1901 L 1891 1899 C 1797.222656 1899 1702.792969 1897.3125 1609 1895.015625 C 1549.347656 1893.554688 1489.597656 1895.570313 1430 1893 C 1387.695313 1891.109375 1345.3125 1890.8125 1303 1889 C 1278.980469 1888 1255 1885 1231 1885 L 1231 1884 C 1250 1880.453125 1271.582031 1883 1291 1883 C 1326.25 1883 1361.683594 1882.574219 1397 1883 C 1495.300781 1884.164063 1593.691406 1883 1692 1883 C 1730.320313 1883 1768.820313 1883.703125 1807 1881.089844 C 1821 1880.121094 1836.257813 1883.070313 1850 1879 L 1850 1878 C 1818.710938 1875.53125 1787.296875 1876.054688 1756 1874 C 1729.515625 1872.097656 1702.539063 1869.21875 1676 1869 L 1676 1868 C 1731.488281 1868 1787.558594 1866.46875 1843 1864.039063 C 1866.269531 1863.019531 1894.730469 1868.539063 1917 1861 L 1917 1860 C 1867 1856.058594 1816.796875 1856.324219 1767 1850 L 1767 1849 C 1798.640625 1848.347656 1830.363281 1846.789063 1862 1846.015625 C 1880.417969 1845.5625 1901.167969 1848.417969 1919 1843 L 1919 1842 C 1906.652344 1838.34375 1892.71875 1838.734375 1880 1835.765625 C 1867.417969 1832.828125 1856.703125 1827.042969 1845 1822 C 1859.5625 1816.574219 1880.394531 1822.023438 1896 1820.15625 C 1899 1819.789063 1910 1820.238281 1911.652344 1817.285156 C 1912.6875 1815.40625 1908 1814.175781 1906.996094 1813.777344 C 1901.289063 1811.53125 1895.578125 1809.3125 1890 1806.769531 C 1872 1798.585938 1854.554688 1790 1836 1783.054688 C 1831.910156 1781.558594 1817.925781 1778.566406 1816.207031 1774.316406 C 1815.214844 1772 1819.507813 1769.167969 1821 1768 C 1827 1762.808594 1834.40625 1759.019531 1842 1756.519531 C 1874 1746 1903.660156 1756.449219 1935 1763 C 1929.835938 1756.269531 1921.695313 1752 1915 1746.765625 C 1896.980469 1733.011719 1878 1720.375 1858 1709.78125 C 1844.546875 1702.679688 1828.820313 1697.71875 1817 1688 C 1824.796875 1685.042969 1831.191406 1679.199219 1839 1676.015625 C 1859.929688 1667.476563 1880.703125 1665.238281 1903 1667 C 1898.867188 1659.464844 1887 1655.34375 1880 1650.667969 C 1858.226563 1636.179688 1832.347656 1618.300781 1807 1611 C 1832.398438 1589.355469 1865.867188 1597.03125 1888 1619.003906 C 1895 1626 1900.367188 1640 1908 1645 C 1904.664063 1603.105469 1870.644531 1562.304688 1836 1541.449219 C 1823.238281 1533.765625 1809.242188 1528.589844 1795 1524.425781 C 1792.527344 1523.703125 1781.277344 1522.347656 1780.632813 1519.621094 C 1780 1517.273438 1785.492188 1514.652344 1787 1513.695313 C 1793.925781 1509.308594 1802 1506.796875 1810 1505.199219 C 1834.777344 1500.246094 1862 1509 1882 1523.757813 C 1888.523438 1528.601563 1893.199219 1537.277344 1900 1541 C 1898.671875 1532.144531 1893.28125 1523.65625 1888.847656 1516 C 1874.351563 1491 1852.761719 1471.222656 1827 1458.246094 C 1815.644531 1452.53125 1795.925781 1449.46875 1787 1441 C 1809.503906 1439.222656 1829.988281 1439.144531 1852 1445.425781 C 1865.933594 1449.402344 1878.429688 1456.371094 1892 1461 C 1886.511719 1449.234375 1871.730469 1439.054688 1862 1430.730469 C 1827 1400.804688 1781.210938 1383.492188 1738 1369 L 1738 1368 C 1780.40625 1376 1835.226563 1372.714844 1855 1326 C 1848 1327.585938 1841.769531 1332 1835 1334.304688 C 1823.304688 1338.382813 1810.347656 1340.289063 1798 1340 C 1726.492188 1338.234375 1659.71875 1289.085938 1598 1258.246094 C 1543.402344 1231 1486.773438 1211 1429 1191.667969 C 1407.910156 1184.664063 1386.398438 1174.347656 1365 1169 C 1372.441406 1179.203125 1384.675781 1186.628906 1395 1193.65625 C 1422.890625 1212.636719 1454 1225.152344 1484 1240.246094 C 1556.621094 1276.8125 1626.996094 1319 1674.34375 1387 C 1687 1405.289063 1701 1426.257813 1707 1448 L 1706 1448 C 1696.714844 1429.335938 1680.855469 1411.679688 1667.289063 1396 C 1632.449219 1355.734375 1592.726563 1322.105469 1550 1290.523438 C 1525.203125 1272.191406 1498.445313 1251.828125 1470 1239.503906 C 1448.402344 1230.144531 1423.289063 1230.367188 1401 1222.65625 C 1384.8125 1217.054688 1369.363281 1209.191406 1354 1201.691406 C 1348.296875 1199 1343.21875 1194.460938 1337 1193 C 1340 1200.164063 1346.351563 1206 1351.488281 1211.714844 C 1364.871094 1226.6875 1379.625 1239.226563 1395 1252 C 1367.449219 1249.597656 1344.535156 1232.15625 1323 1217 C 1324.285156 1228.832031 1335.445313 1238.722656 1342 1248 C 1323.941406 1240.257813 1308.964844 1226.070313 1298 1210 L 1297 1210 C 1297.492188 1219.570313 1303.832031 1226.425781 1309 1234 C 1293.914063 1227 1278.601563 1205.390625 1273 1190 L 1272 1190 C 1273.679688 1203 1280 1214.066406 1285 1226 C 1263 1210.535156 1243.464844 1172.628906 1257.441406 1146 C 1261.296875 1138.652344 1269 1134.140625 1274.410156 1128 C 1280.9375 1120.429688 1285.527344 1111.445313 1292.175781 1104 C 1301 1094 1312 1086.644531 1321.984375 1077.714844 C 1327.9375 1072.339844 1332 1065.65625 1334.410156 1058 C 1335.328125 1055 1335.90625 1047.722656 1339.304688 1046.40625 C 1344.96875 1044.210938 1358.832031 1054 1364 1056.296875 C 1385.851563 1066.613281 1407.628906 1075.527344 1431 1082 C 1482.226563 1095.707031 1542.265625 1105 1593 1084.550781 C 1606.992188 1079 1616.535156 1068.796875 1629 1061 C 1619.652344 1073.128906 1610.824219 1085 1598 1093.652344 C 1564.941406 1116.246094 1518.769531 1115.617188 1481 1108.539063 C 1446.867188 1102.144531 1410.226563 1087.269531 1376 1102 C 1383.535156 1106.515625 1398 1106 1407 1107.273438 C 1429.691406 1110.777344 1464.753906 1117.414063 1481 1135 C 1462.84375 1129.242188 1445.46875 1133 1427 1133 C 1432.414063 1140.210938 1451.410156 1143.695313 1460 1146.140625 C 1492.304688 1155.335938 1525.492188 1159.195313 1559 1160.015625 C 1637.238281 1162 1719.683594 1169.242188 1794 1195.691406 C 1816.976563 1204 1839.625 1213.628906 1861 1225.433594 C 1871.632813 1231.304688 1883.527344 1243.019531 1895 1246 C 1871.46875 1207.113281 1828.589844 1180.675781 1789 1160.753906 C 1775.765625 1154.09375 1762.5625 1145.449219 1748 1142 L 1748 1141 C 1779.421875 1142.347656 1812.378906 1150.527344 1843 1157.425781 C 1851.316406 1159.300781 1859.570313 1163 1868 1164 C 1862.292969 1156.601563 1852.574219 1152 1845 1146.574219 C 1821.949219 1130.265625 1793.835938 1118.019531 1773 1099 C 1790.40625 1103 1805.335938 1105.144531 1823 1100.621094 C 1824.964844 1100.121094 1842 1095.539063 1839.824219 1093 C 1837.878906 1090.699219 1830.734375 1092.089844 1828 1091.699219 C 1817.65625 1090.226563 1806.820313 1087.503906 1797 1084 C 1762.746094 1071.539063 1724.738281 1056.15625 1697 1032 C 1721.355469 1041 1744.734375 1048 1771 1048 C 1781 1048 1791 1045.785156 1801 1045 C 1796 1038.488281 1775 1037.179688 1767 1035 C 1747.761719 1029.34375 1728.386719 1021.503906 1711 1011.578125 C 1704.894531 1008.09375 1697.8125 1005.214844 1693 1000 C 1723 1008.054688 1756.972656 1011.105469 1787 1000.410156 C 1795.382813 997.425781 1809.4375 993.097656 1814 985 C 1785 991.6875 1757.3125 990.140625 1729 980.667969 C 1721.382813 978.117188 1707.332031 975.164063 1703 968 C 1728.457031 972.726563 1765.921875 967.351563 1784 947 C 1774 946.417969 1763.367188 952 1753 952 C 1714.632813 952.453125 1667.929688 939.648438 1643 908 C 1652.800781 912.582031 1661.511719 918.574219 1672 921.796875 C 1709.339844 933.261719 1754.53125 927.613281 1787 905.65625 C 1797.714844 898.410156 1815.347656 886.039063 1819 873 C 1803.601563 879.753906 1790.539063 889.296875 1774 894.277344 C 1738.328125 905.023438 1697.835938 905.4375 1665 886 C 1650.90625 877.636719 1640.199219 866.703125 1629 855 C 1660.902344 873.15625 1693 880.191406 1730 876.050781 C 1740.785156 875 1756.71875 873.832031 1766 868 C 1755.234375 864.816406 1742.296875 866.652344 1731 864.539063 C 1702.296875 859.171875 1675.769531 847 1650 833.511719 C 1639 828 1624.816406 821.601563 1617 812 C 1640.726563 815 1666.574219 814 1690 809.199219 C 1696.210938 808 1709 807.164063 1713 802 C 1679.714844 802 1628.566406 786.664063 1610 757 C 1630 760.714844 1652.65625 760 1673 760 C 1682.195313 760 1693 761.613281 1702 759 C 1694.339844 753.539063 1682.617188 751.386719 1674 747 C 1658 739 1644.3125 727.660156 1628 720.3125 C 1613 713.597656 1596.761719 710.679688 1582 703.488281 C 1569 697.175781 1545 686 1538 673 C 1560.804688 678.445313 1584.296875 676.34375 1607 684.003906 C 1620.65625 688.613281 1629 697.167969 1641 704 C 1636.261719 683.292969 1614.46875 662.636719 1598 651 C 1551 617.261719 1488 614 1434 630.035156 C 1417.894531 634.816406 1404 643 1389 650 C 1419 620 1462.664063 602.460938 1501 585 C 1511.671875 580.140625 1522.621094 577.339844 1534 574.746094 C 1536.492188 574.175781 1544.25 575.066406 1545.652344 572.675781 C 1547 570.230469 1536.308594 569.25 1535 569 C 1524 567 1511 566 1500 567.285156 C 1457.441406 572.308594 1421.574219 586.371094 1387 612 C 1397 594.035156 1413.871094 577.023438 1429.171875 563.484375 C 1433.441406 559.707031 1437 554.066406 1442 551.277344 C 1457.671875 542.527344 1479.535156 541.136719 1497 540 C 1540.34375 537 1587.570313 544.191406 1627 563.359375 C 1637 568.289063 1647.792969 574.230469 1656 582.039063 C 1661.875 587.632813 1667 597.113281 1674 601 C 1673 556.753906 1633.6875 527.3125 1594 518.347656 C 1517.511719 501.074219 1449.910156 538.355469 1389 580 C 1417.546875 528.722656 1477.3125 499.472656 1534 495 C 1530.570313 491.496094 1526.621094 492.191406 1522 491.574219 C 1510.609375 490.0625 1499.480469 490 1488 490 C 1434.726563 490 1386.257813 509.535156 1348 547 C 1351.234375 536.011719 1360.359375 526.460938 1367.71875 518 C 1399.585938 481.375 1440.628906 469 1487 463 C 1482 456.5625 1459.839844 457.097656 1452 457.003906 C 1427.734375 456.714844 1402.769531 460.347656 1380 469.066406 C 1369.550781 473.066406 1360.445313 480.199219 1350 484 C 1409.847656 424.152344 1496.367188 413.566406 1577 419.089844 C 1602.652344 421 1628.601563 428 1654 429 L 1654 428 C 1582 379.539063 1480.894531 381.777344 1402 411.226563 C 1380.578125 419.222656 1363.257813 432.375 1343 442 C 1352.4375 427 1367.238281 414.558594 1381 403.550781 C 1430.382813 364.046875 1491.796875 348.46875 1554 357.285156 C 1581.414063 361.171875 1604.800781 374 1631 381 C 1629.277344 378.015625 1627.324219 375.546875 1625 373 C 1635 369.773438 1645 367.03125 1655 363.015625 C 1659.199219 361.3125 1664.347656 360.605469 1666 356 C 1647.691406 359.449219 1623.179688 362.328125 1605 358 C 1608.664063 355.363281 1611.554688 355.015625 1616 355 L 1616 354 C 1596.886719 342 1569 337.488281 1547 335 C 1488.195313 327.808594 1434.683594 335.253906 1382 363 C 1388.933594 353.359375 1401.175781 346.757813 1411 340.34375 C 1448.535156 316 1500.753906 305.546875 1545 312.4375 C 1566.320313 315.761719 1585.339844 325.574219 1606 330 C 1604.472656 326.574219 1599.171875 322 1599.753906 318.042969 C 1600.359375 314.042969 1607 311.117188 1610 309 C 1618.546875 302.8125 1628.824219 295.589844 1635 287 C 1620.757813 289.746094 1609.945313 302.535156 1594 300 C 1602.441406 289.636719 1612.96875 281.441406 1624 274 L 1624 273 C 1608.972656 273.769531 1597.601563 284.6875 1582 279 L 1582 278 C 1596.507813 274 1621.300781 263.65625 1629 250 C 1619.664063 254 1610.941406 258.601563 1601 261 C 1569.742188 268.378906 1537.574219 266.421875 1506 271.296875 C 1480.207031 275.277344 1456.847656 285.070313 1433 295 C 1455.261719 269.53125 1498 255.339844 1531 253.089844 C 1547.367188 252 1565.21875 259.171875 1580.984375 257 C 1586.3125 256.0625 1590 249.367188 1594 246.09375 C 1604.550781 237.445313 1621.800781 230.726563 1628 218 C 1612.222656 219.582031 1597.339844 227.660156 1581 228 C 1593.859375 215.148438 1609.207031 205.222656 1623 193.429688 C 1628.515625 188.710938 1635.390625 184.40625 1639 178 C 1617.902344 185.722656 1599 201.253906 1578 210 C 1588.320313 193.277344 1602.199219 179.800781 1616 166 C 1622.613281 159.386719 1632 152.546875 1636 144 C 1625.410156 146.488281 1614 154.164063 1604 158.695313 C 1584 167.640625 1563.511719 176.558594 1543 184 C 1551.167969 173.277344 1565.757813 164.695313 1572 153 C 1550.925781 159.070313 1530.613281 174.386719 1513 187 C 1517 170.652344 1529.273438 156.242188 1531 139 C 1521 146.796875 1512.566406 158.171875 1503 166.828125 C 1472.992188 194 1442.183594 220.214844 1412 247.164063 C 1393.1875 264 1375.535156 282.238281 1355 297 C 1361.285156 275.015625 1375.960938 254.347656 1378 231 C 1371.800781 234.679688 1367.621094 245.242188 1363 251 C 1350.179688 267 1337.480469 283.511719 1323 298 C 1329.972656 273.789063 1340 254 1340 228 C 1336.628906 230.566406 1336.875 235.089844 1335.84375 239 C 1334 246 1331 252.617188 1327.742188 259 C 1318.933594 276.078125 1307.363281 291.574219 1297.449219 308 C 1291.347656 318.109375 1286.410156 331.703125 1278 340 C 1281.820313 309.769531 1283 281.339844 1283 251 C 1273.839844 256.210938 1266.355469 275.828125 1260.871094 285 C 1246.167969 309.582031 1232.988281 335.355469 1220.246094 361 C 1214.578125 372.414063 1210 389 1201 398 C 1203.730469 364.546875 1213.234375 334.800781 1228 305 C 1197 311 1166.929688 334.0625 1149 359 C 1145.257813 339.816406 1157.71875 327.386719 1165 312 C 1142.503906 314 1120.191406 330.171875 1105 346 C 1097.460938 354 1090.730469 364.316406 1082 371 C 1087.894531 357.699219 1090.515625 343.269531 1096.78125 330 C 1101.226563 320.585938 1110.316406 310.589844 1113 301 C 1100.820313 305.433594 1086.597656 312.246094 1077 321 C 1076.3125 309.527344 1086.960938 299.609375 1093 291 C 1067.503906 297 1049.230469 327.722656 1032 345 C 1037.257813 323 1027.5625 300 1015 282 C 1011 276.214844 1005.992188 267.132813 999 265 C 1000.613281 277 1003.921875 288.785156 1003.921875 301 C 1003.921875 322.832031 996.238281 343.1875 988 363 L 987 363 C 987 323.402344 966.246094 293.625 934 271 C 933.945313 278.253906 939.460938 286 941.5625 293 C 947.210938 312 951.953125 339.417969 943 358 C 933.472656 332.484375 918.332031 310.367188 896 294.292969 C 889 289.28125 880.566406 282.546875 872 281 C 875.792969 290.808594 883.628906 299.023438 887.773438 309 C 894 324.121094 894 339 894 355 L 893 355 C 880 321.710938 859.234375 288.234375 834 263 C 826 255 814.304688 242.679688 803 240 C 810.972656 262.28125 819.675781 282.796875 819.980469 307 C 820 317.4375 816.824219 327.664063 816 338 C 807.570313 328.4375 804 309 798.449219 297 C 783.878906 266.347656 758 231.257813 725 219 C 728.484375 229.246094 738.191406 239.261719 743.566406 249 C 753.453125 267 760 288.511719 761 309 C 745.53125 294.808594 730.449219 282.65625 713 270.652344 C 707 266.550781 701.582031 261.015625 695 258 C 700.792969 273.0625 713.996094 287.230469 722.574219 301 C 741.90625 332.035156 758.84375 364 772.203125 398 C 778.648438 414.421875 786.1875 434.230469 787 452 L 786 452 C 782.65625 441.230469 775.363281 431.597656 769.601563 422 C 755.722656 399 740 377.113281 723.285156 356 C 665.214844 282.746094 601.792969 214 508 189 L 508 188 C 549.519531 188 589.777344 200.785156 623 226 C 639.328125 238.242188 652.574219 255.332031 669 267 C 664 247.335938 645 227.554688 632.664063 212 C 609 182.238281 581 156.066406 557.886719 126 C 551.332031 117.480469 548.703125 107.300781 543 99 C 539.3125 111.46875 542.625 129.398438 545 142 C 531.980469 132.035156 523 113.378906 513.722656 100 C 510.382813 95.199219 508 88.015625 503 85 C 505 100.441406 511.867188 114.816406 515 130 C 507.882813 125 503.703125 116 496 112 C 498 119.195313 502 126.03125 505 133 C 495.484375 126.324219 485.945313 113.722656 475 110 C 478.980469 118.363281 486.671875 124.21875 490 133 C 468 124 451.488281 108.683594 433 94.347656 C 426.179688 89.0625 420 81.136719 412 78 M 1543 184 L 1542 185 L 1543 184 M 740 414 C 732 410.355469 725.234375 403.320313 718 398.339844 C 699 385.285156 680.496094 371.65625 661 359.371094 C 616.914063 331.582031 566.847656 312.488281 516 302 L 516 301 C 546.570313 301 578.226563 303 607 314 C 602.339844 305 587.542969 297.703125 579 292.320313 C 551.609375 275.054688 523.230469 262.273438 493 251 C 498.460938 248.707031 506 250 512 250 C 528.722656 250 545.605469 252.300781 562 255.601563 C 630.605469 269.402344 691.894531 313.308594 723.246094 376 C 729 387.785156 737 401.144531 740 414 M 1381 363.332031 C 1381.773438 363.332031 1381 363.832031 1380.667969 363.667969 L 1381 363.332031 M 825 568 C 819.734375 564.550781 817 556.332031 813.796875 551 C 807.382813 540.382813 799.742188 530.832031 792.234375 521 C 788.6875 516.351563 786.199219 511 781 508 C 786.921875 517.34375 791 530.109375 793 541 C 781 534 775 513.648438 768.6875 502 C 757 481 741 458.757813 722 444 C 733.3125 464.402344 739 484 746 506 C 736.3125 500.121094 728.300781 485.605469 720.714844 477 C 708.441406 463.078125 694 451 679 440.15625 C 620.371094 398.078125 539.828125 382 469 382 C 475.480469 378.039063 484.640625 378 492 376.398438 C 514.175781 372 536.464844 371 559 371 C 646 371 731.375 407 785.347656 477 C 804.175781 501.425781 823.636719 536.328125 825 568 M 734 564 C 726.554688 559 720.925781 551.535156 714.285156 545.515625 C 696.84375 529.691406 677.460938 512.148438 656 502 C 663 516 676 528 679 544 C 660.523438 531 645.742188 513.710938 626 502.015625 C 572.402344 470.261719 516.589844 465 456 465 C 460.4375 459.089844 474 457.523438 481 455.730469 C 507.828125 448.816406 533.675781 449 561 449 C 555.253906 442.464844 541.316406 439.78125 533 437.628906 C 503.886719 430.097656 474.613281 433 445 433 C 451.335938 429.132813 459.796875 429 467 428 C 483.398438 425.753906 499.460938 425 516 425 C 603.601563 425 704 477.304688 734 564 M 1523 467 C 1549.480469 470.421875 1576 480.199219 1601 489.574219 C 1623.308594 498 1646.273438 504.246094 1668 514.179688 C 1678.972656 519.195313 1688.410156 526.59375 1699 532 C 1685.816406 501 1641.179688 485.339844 1610 484 C 1620.210938 475 1641 472 1654 468.140625 C 1659.183594 466.632813 1668.707031 465.34375 1672 461 C 1647.238281 461 1622.714844 457.621094 1598 457.015625 C 1586.296875 456.726563 1574.675781 458.671875 1563 459.015625 C 1553.316406 459.296875 1543.460938 461.414063 1534 463.335938 C 1530 464.148438 1525.632813 463.539063 1523 467 M 1083 476 C 1096.957031 490.574219 1107.269531 513.042969 1116.246094 531 C 1144.621094 587.753906 1162.277344 652.660156 1142 715 L 1141 715 C 1141 687 1139.328125 660.226563 1131.707031 633 C 1129.535156 625.246094 1129 612.414063 1123 607 C 1126.925781 628.078125 1123.78125 650.480469 1118 671 L 1117 671 C 1117 646.730469 1114.761719 611.191406 1096 593 C 1099.835938 631.527344 1096.238281 665.484375 1086 703 L 1085 703 C 1075.351563 662.476563 1062.277344 626.582031 1037.964844 592 C 1025.394531 574.121094 1008.464844 559.695313 996 542 C 1024.816406 552.488281 1043.339844 576.253906 1066 595 C 1061.441406 573 1055.546875 551.390625 1045.640625 531 C 1038 515.542969 1026 501 1020 485 C 1045.699219 501.074219 1068.464844 529.558594 1085.859375 554 C 1093 564.148438 1101.894531 575.15625 1106 587 L 1107 587 C 1113.265625 560.683594 1098.828125 527 1091.445313 502 C 1089.355469 495 1081.835938 483 1083 476 M 1350 484 L 1349 485 L 1350 484 M 1251 493 C 1249.414063 504.777344 1245.496094 516.128906 1244.167969 528 C 1241.742188 549.660156 1241.207031 571.769531 1235.871094 593 C 1233.339844 603.089844 1229.824219 620 1222 627 C 1222.640625 596 1226.730469 563 1234.847656 533 C 1238.453125 519.695313 1242.617188 504.144531 1251 493 M 1275 507 C 1277 534 1281.324219 561.210938 1285.273438 588 C 1287.382813 602.335938 1291 616.457031 1291 631 C 1295.480469 626 1297.484375 616.496094 1299.410156 610 C 1305 591 1308 570 1308 550 L 1309 550 C 1320.804688 592 1327.746094 636 1313.667969 678 C 1308.941406 692.121094 1300.238281 711 1288 720 C 1292.996094 699 1304.402344 672.492188 1294 651 C 1290.191406 666.8125 1284.578125 679.613281 1277 694 L 1276 694 C 1276.632813 686.242188 1279.375 678.820313 1279.910156 671 C 1281 653.824219 1278.1875 634.371094 1273 618 C 1269.578125 626.109375 1269.492188 636.324219 1267.574219 645 C 1263.808594 662.0625 1258.65625 679.125 1251.296875 695 C 1248 702 1244.460938 712.78125 1238 717 C 1240.730469 696.722656 1241.410156 676.285156 1244.285156 656 C 1248.949219 623.09375 1257 590.21875 1265 558 C 1267.890625 547 1270 535.363281 1271.714844 524 C 1272.480469 518.589844 1271.878906 511.570313 1275 507 M 996 674 L 995 674 C 971.902344 639.097656 945.769531 605.042969 919.984375 572 C 908.859375 557.738281 892.285156 544 884 528 C 896.976563 533.492188 908.601563 547.472656 919 556.832031 C 944.949219 580.1875 970.386719 608 985 640 C 989.648438 650.214844 995.484375 662.683594 996 674 M 732 605 C 708.886719 592.699219 686.65625 581 661 574.476563 C 586.429688 555.828125 506.179688 574.585938 439 609.257813 C 421 618.523438 403.285156 629 387 641 C 376.832031 648.351563 366.398438 660 355 665 C 362 648.546875 375 634.3125 386.714844 621 C 445.363281 554.140625 539.351563 525.164063 626 542.601563 C 663.308594 550.105469 711.972656 570.355469 732 605 M 1031 760 C 1029.621094 750.625 1026.410156 741.535156 1026 732 L 1027 732 C 1052.410156 777.636719 1082.613281 818.109375 1087.828125 872 C 1089.273438 887 1087.78125 902.210938 1086 917 C 1085.851563 918.679688 1084.234375 931.148438 1081.359375 929.652344 C 1079.578125 928.730469 1079 924.707031 1078.386719 923 C 1075.742188 916.015625 1073 909.078125 1070.667969 902 C 1061.90625 876 1053.992188 848.65625 1041.753906 824 C 1010.457031 761 954.742188 720.488281 887 702 C 897.703125 715 915.363281 721 922 738 C 896.65625 724.652344 869 715.078125 840 715 L 840 716 C 853.527344 719.699219 868.449219 728.820313 877 740 C 860.902344 737.226563 838.335938 729.484375 825 720 C 827.230469 729.007813 838.882813 734 843 742 C 818.464844 740 794.578125 730 770 728 L 770 727 C 784 725.21875 799 727.300781 813 730 L 813 729 C 777.445313 712.398438 736.949219 694.714844 697 693 L 697 692 C 726.714844 683 763.316406 690.011719 793 695.425781 C 801.601563 697 809.695313 700 818 702.574219 C 819.726563 703.121094 824.449219 705.441406 826 704 C 828.3125 701.808594 812.808594 692.429688 811 691.140625 C 793.769531 679 774.777344 672 755 665 L 755 664 C 799.5625 664 842.5 687.058594 887 689 C 881 681.738281 870.929688 677.015625 863 672.050781 C 838 656.453125 810.625 647.503906 785 634 L 785 633 C 816 633.640625 848.480469 640.570313 876 655 C 859.53125 634.589844 829.777344 621.410156 806 612 L 806 611 C 820.386719 611.039063 835.644531 616.539063 849 621.574219 C 882.9375 634.375 914.714844 654 941 679 C 938.585938 670.632813 933 663.5625 931 655 C 944 663.40625 953.414063 676 965 686 C 950 659.179688 927.886719 633.363281 906 612.015625 C 896.734375 603 883.832031 596.234375 876 586 C 926 603.058594 963.925781 643.410156 990 688 C 1003.75 711.152344 1013.859375 739.292969 1031 760 M 1528 594 L 1528 595 C 1550.351563 600.324219 1571 605.15625 1592 615.601563 C 1606.378906 622.808594 1618.945313 633 1633 640.6875 C 1647.882813 649 1663.445313 654 1679 660.464844 C 1684.875 663 1689.941406 667.070313 1696 669 C 1667.746094 603.109375 1594 578.066406 1528 594 M 619 594 L 619 595 C 576.894531 604.652344 535 616.476563 501 644.464844 C 474 666.5625 453.265625 704.714844 421 718.828125 C 393 731.054688 356.753906 718.238281 327 722 C 332.851563 715.171875 343.832031 712.640625 352 709.402344 C 372.867188 701.128906 394.867188 696.164063 415 686 C 446.496094 669.816406 470.265625 644 500 625.425781 C 536 603 576.761719 594 619 594 M 731 645 L 731 646 C 673.601563 646 615.851563 646.128906 566 679 C 553.722656 687 542 696.761719 532.589844 708 C 527 714.625 521.722656 726.054688 514 730 C 530.1875 674.167969 580 629.148438 639 625.089844 C 671 623 702.238281 631.386719 731 645 M 1475 660 C 1443.53125 671.808594 1407.324219 682.296875 1389 714 C 1411.769531 699.824219 1439.597656 688.011719 1467 688 C 1474.621094 688 1485.445313 686.515625 1492 691 C 1472.914063 697.464844 1450.828125 702.582031 1438 720 C 1466.902344 712 1497.6875 716.6875 1527 719 L 1527 720 C 1509.640625 726.378906 1492.613281 734.011719 1479 747 C 1497.9375 747 1516 747.613281 1535 750 L 1535 752 C 1519 753.292969 1503.601563 759.445313 1488 762.390625 C 1466.792969 766.386719 1445.382813 767.390625 1425 775 C 1433.828125 756.078125 1459.921875 751.628906 1475 740 C 1455.847656 739 1437.691406 744.183594 1420 751 C 1422.46875 742.585938 1432.96875 740.371094 1437 733 C 1420.574219 738.203125 1405 744.128906 1389 750 C 1393.910156 743.175781 1401.550781 740.070313 1408 735 C 1347 751 1292.460938 810.207031 1288 874 C 1287 889.414063 1288.417969 906 1291.511719 921 C 1293.625 931.308594 1298 941.527344 1299 952 L 1298 952 C 1287.574219 937.5 1275.730469 925 1268.921875 908 C 1251.9375 866 1259.492188 817.8125 1281.285156 779 C 1291.503906 760.800781 1305.542969 745.320313 1317 728 L 1318 728 C 1314.648438 747 1302 764.183594 1301 784 C 1315.546875 763.628906 1332 746.570313 1348.828125 728 C 1370.195313 704.386719 1389.6875 680 1420 667.601563 C 1432.253906 662.597656 1443.890625 660.140625 1457 658.832031 C 1462.996094 658.230469 1469.550781 656.734375 1475 660 M 1648 670 C 1659.914063 705.113281 1707.378906 699.019531 1735 699 C 1731.21875 693.582031 1718.234375 693.121094 1712 691 C 1691 684 1669.867188 673.71875 1648 670 M 812 753 L 812 754 C 782.355469 762.78125 743.953125 759 714 753.535156 C 699.78125 751 685.304688 745.246094 671 744 L 671 742 C 718 742 766.695313 737.539063 812 753 M 475 757 L 475 758 C 447.574219 769.648438 416.328125 775.363281 388 785.070313 C 377.703125 788.597656 360.230469 792.714844 353 801 C 378.175781 797.816406 403.734375 801.191406 429 798 C 420 808.308594 401.496094 814 389 818.414063 C 339.261719 836.5 292.402344 829.511719 243 816 C 245.863281 812 252.460938 811.511719 257 809.808594 C 269 805.277344 281.234375 801 293 795.695313 C 328.726563 779.589844 364.851563 764 404 758.285156 C 427.835938 755 451 757 475 757 M 1175 785 C 1181 808.453125 1178.195313 830.386719 1178 854 C 1181.90625 849.652344 1182.929688 843.285156 1185.304688 838 C 1192 823 1196 807.292969 1202 792 C 1209.433594 803 1200 822 1202 834 C 1207.304688 824 1214.316406 810.441406 1223 803 C 1221.519531 820 1213.226563 835.445313 1214 853 C 1219.59375 846 1224.382813 839.625 1233 836 C 1231.226563 846.457031 1229 855.242188 1231.34375 866 C 1232 869.664063 1235 871.742188 1236.316406 875.128906 C 1242 890.464844 1249.597656 904.070313 1256 919 C 1254.308594 919 1245.277344 916.503906 1244.632813 918.433594 C 1244 920.085938 1249 922.65625 1250 923.390625 C 1255.9375 927.761719 1261.4375 932.601563 1267 937.425781 C 1289 956.53125 1306.753906 979 1318 1006 C 1305 999.746094 1290.191406 986.164063 1280 976 C 1283 985.246094 1285 992.164063 1285 1002 L 1284 1002 C 1278.40625 993 1271.820313 984.210938 1263 978 C 1264.195313 983.789063 1265.550781 989.054688 1264.378906 995 C 1264 996.292969 1263.503906 1000.582031 1261.332031 1000.078125 C 1259 999.566406 1256.90625 993 1255.796875 991 C 1251.183594 983.382813 1245.261719 977.261719 1239 971 C 1239.933594 978.355469 1240.835938 984.570313 1239.839844 992 C 1239.632813 993.5625 1239.21875 998.792969 1236.847656 998.792969 C 1234.460938 998.792969 1233 992.660156 1232.191406 991 C 1228.433594 983.511719 1222.589844 976.128906 1216.910156 970 C 1198.777344 950.433594 1181.53125 942.648438 1155 946 C 1158.671875 938.128906 1167.324219 932.019531 1175 928.273438 C 1177.496094 927.054688 1185.523438 926.703125 1186.792969 924.402344 C 1188.230469 921.800781 1179.386719 920.347656 1178 920.183594 C 1168.5625 919.066406 1160.898438 924.464844 1152 926 C 1156 916.308594 1164 908.53125 1170 900 C 1159.359375 904.027344 1147.496094 915.824219 1136 916 L 1152 893 C 1149.957031 894 1139.898438 899.59375 1138.40625 897.183594 C 1137.285156 895.367188 1139.707031 891.675781 1140.335938 890 C 1142.398438 884.527344 1143.574219 878.683594 1144.882813 873 C 1150.183594 850 1153.207031 827.492188 1155 804 L 1156 804 C 1161.675781 821.746094 1160 837.824219 1160 856 L 1162 856 C 1163 843.769531 1169.667969 832.222656 1171.714844 820 C 1173.46875 809.515625 1171 794.460938 1175 785 M 818 844 C 818 886.203125 836.304688 929.78125 876 949.628906 C 933.527344 978.394531 1000.886719 940.277344 997.960938 874 C 996.984375 852 984.4375 837.488281 975 819 C 1018.832031 838.539063 1024.640625 911 991.960938 941.828125 C 952.839844 978.800781 883.863281 974 841 945.484375 C 814.761719 928.074219 797.691406 899 806.425781 867 C 808.433594 859.660156 810.992188 848 818 844 M 942 822.304688 C 975.964844 818 989.339844 875.550781 953 880.789063 C 913.542969 886.476563 900.71875 827.695313 942 822.304688 M 1413 827 C 1427.457031 835.257813 1439.605469 842.492188 1448.910156 857 C 1455.546875 867.351563 1459.679688 880 1461 892 C 1462.4375 902.566406 1462.980469 914.652344 1459.957031 925 C 1440.851563 990.398438 1346.613281 986.363281 1312.75 936 C 1302.640625 921 1301.800781 903.40625 1304 886 C 1309.222656 890 1310 904.617188 1312.863281 911 C 1319.371094 925.722656 1329.777344 939.277344 1342 949.699219 C 1384.277344 985.746094 1452.277344 956 1446.828125 898 C 1445.226563 881 1440 864.375 1430.65625 850 C 1426.566406 843.753906 1413.441406 834 1413 827 M 1395 844.378906 C 1425.601563 838.148438 1442.601563 888 1410 894.519531 C 1400.335938 896.5 1390.199219 894.433594 1383.519531 886.824219 C 1371.425781 873.0625 1375 848.4375 1395 844.378906 M 1629 854 L 1628 855 L 1629 854 M 753 894 C 746.523438 885.5 734.910156 879.171875 730 870 C 741.359375 871.46875 752.726563 874.28125 764 876.390625 C 768 877.15625 774.964844 877.183594 778.273438 880 C 783.839844 884.710938 785.640625 902.003906 789.257813 909 C 797.613281 925.160156 809.960938 938.289063 824 949.691406 C 859.484375 978.507813 912.359375 990.390625 957 980.113281 C 974.238281 976.144531 987.988281 967.636719 1004 961 C 1002.878906 986.714844 982.984375 1024.660156 956 1031 C 960.671875 1021.570313 966.367188 1013.011719 970 1003 C 954.40625 1016.601563 937.492188 1031.824219 916 1035 C 921.234375 1025.191406 931.875 1019 936 1008 C 911.277344 1021.558594 883.4375 1026.714844 856 1019 L 856 1018 C 871 1018 893.949219 1011.800781 904 1000 C 873.324219 1001.316406 845.304688 995.25 815 992.171875 C 786 989.226563 756 988.019531 727 988 L 727 987 C 750.585938 981.1875 776.648438 972.503906 801 972 C 796.546875 967.398438 788 966.421875 782 964.496094 C 765.335938 959.171875 748.339844 955.054688 731 952.71875 C 688.753906 947.027344 637.914063 940 601 917 L 601 916 C 616.246094 920.042969 631.335938 925.394531 647 927.699219 C 678.757813 932.378906 710.964844 932 743 932 C 734.941406 925 717.292969 923.246094 707 920.117188 C 678.398438 911.421875 650.828125 900 625 885 C 617.1875 880.292969 603.769531 874.808594 599 867 C 613.21875 871 626.769531 878 641 882.28125 C 666.300781 890 692.300781 895.054688 718 901 C 705.40625 885.761719 682.605469 877.164063 666 867 C 672.851563 865 684.375 871.496094 691 873.773438 C 711.355469 880.765625 732 889.035156 753 894 M 1479 894 C 1483.285156 899.554688 1487.265625 904.660156 1493 909 C 1521.332031 929.507813 1546.386719 916.410156 1575 906 C 1568.765625 918.019531 1555.75 925.140625 1547 935 C 1556.472656 934.226563 1564.746094 929.132813 1574 928 C 1557 954.222656 1526.789063 960.238281 1498 959 C 1504 966.003906 1516.25 967.144531 1525 968.28125 C 1547.542969 971.210938 1572.695313 964.808594 1593 955.054688 C 1600.710938 951.351563 1607.195313 945.28125 1615 942 C 1598.511719 981 1549.597656 982.671875 1515 990.5 C 1491.355469 996 1468.300781 1004.082031 1444 1006 C 1449.734375 1011.230469 1459 1014.304688 1463 1021 C 1445.839844 1017.460938 1430.292969 1012 1414 1006 C 1419.414063 1014.183594 1427.398438 1020.050781 1433 1028 C 1415.515625 1025.777344 1399.617188 1018.351563 1387 1006 C 1388.574219 1012.699219 1393.925781 1017.042969 1397 1023 C 1388.3125 1022.21875 1379.355469 1017 1372 1012.386719 C 1352.984375 1000.832031 1332 985.046875 1323 964 C 1332.929688 969.066406 1341.316406 975.675781 1352 979.628906 C 1390.835938 994 1444 992.324219 1467 952 C 1472.890625 942 1478 929.710938 1478.910156 918 C 1479.441406 910.753906 1476.628906 900.617188 1479 894 M 1643 907 L 1642 908 L 1643 907 M 599 915.332031 L 599.332031 915.667969 C 598.839844 915.832031 598.226563 915.332031 599 915.332031 M 1216 995 C 1211.34375 991.777344 1209.550781 985.371094 1205.675781 981.171875 C 1198.421875 973.308594 1189 968.300781 1180 963 C 1184.238281 961.269531 1188.769531 963.042969 1193 964.292969 C 1209 969.03125 1215.863281 978.644531 1216 995 M 512 999 L 512 1000 C 432 1010.101563 352.347656 1030.226563 300.898438 1098 C 291.902344 1110 283.207031 1123.148438 277.648438 1137 C 273 1148.371094 270.472656 1161.113281 265 1172 C 262.78125 1166.71875 264.902344 1160.566406 264.996094 1155 C 265.3125 1136.160156 270.4375 1116.40625 277.398438 1099 C 305.539063 1028.652344 373.183594 1002 444 997 C 465.519531 995.402344 490.890625 994 512 999 M 1185 1029 C 1189.671875 1022.425781 1203.476563 1021.199219 1211 1021.015625 C 1225.371094 1020.664063 1239.6875 1024.414063 1254 1024 C 1269 1023.472656 1284.976563 1018.679688 1300 1022.515625 C 1310.734375 1025.253906 1327.832031 1039.082031 1320.542969 1051.816406 C 1313 1065 1301 1042.679688 1292 1042.109375 C 1276.390625 1041.128906 1263.585938 1052.601563 1247 1049.535156 C 1224.195313 1045.324219 1209.695313 1026 1185 1029 M 1200 1218 C 1202.753906 1209.304688 1208.550781 1202 1211 1193 C 1196.554688 1207 1188.652344 1223.605469 1170 1234 C 1176.4375 1222.8125 1187.878906 1212.039063 1187 1198 L 1186 1198 C 1180.984375 1215 1153.675781 1237.09375 1137 1242 C 1142.761719 1233.722656 1148.949219 1225.828125 1152 1216 C 1137.492188 1226.089844 1123.40625 1237.238281 1106 1242 C 1109 1237 1114.765625 1234.347656 1118.828125 1230 C 1132 1215.6875 1146.609375 1200.628906 1157 1184 C 1129.511719 1199.304688 1097.730469 1220.304688 1065 1221 L 1065 1220 C 1088.921875 1205.304688 1110.726563 1187 1133 1170 C 1119.476563 1170 1102.683594 1181.777344 1090 1186.46875 C 1063.578125 1196.238281 1036.269531 1203 1008 1203 L 1008 1202 C 1040.566406 1187.496094 1075 1176.128906 1103 1153 C 1076.492188 1150.257813 1046.320313 1169.777344 1020 1162 C 1029.507813 1155.386719 1045 1151.265625 1056 1147 L 1056 1146 C 1033.203125 1147.800781 1010.792969 1153.652344 988 1155.828125 C 969.269531 1157.621094 950.722656 1156.804688 932 1156 L 932 1155 C 944.871094 1151.160156 958.878906 1149.789063 972 1146.523438 C 997.507813 1140.179688 1022.726563 1132.628906 1048 1125.421875 C 1062 1121.390625 1078.898438 1118.578125 1092 1112 C 1077.726563 1108.601563 1062.449219 1110.328125 1048 1111 C 1020.84375 1112.148438 993.253906 1114.777344 966 1113 C 926 1110.171875 886 1109.714844 846 1108 C 740 1103.324219 630 1107 530 1146.203125 C 491.648438 1161.261719 455.21875 1180.28125 422 1204.757813 C 409.765625 1213.769531 398.277344 1224.105469 387 1234.285156 C 382.238281 1238.605469 378.957031 1244.222656 373 1247 C 390.917969 1211 428.226563 1183.089844 461 1161.65625 C 535.914063 1112.664063 627.304688 1096 715 1090 C 747.765625 1087.667969 781.238281 1087.050781 814 1090.171875 C 837.738281 1092.429688 861.398438 1094.765625 885 1098.425781 C 906.917969 1101.824219 929.769531 1107 952 1107 C 975.558594 1107 1001 1101.527344 1023 1092.800781 C 1043.910156 1084.441406 1064 1072 1087 1072 L 1087 1071 C 1073.867188 1066.726563 1059.785156 1068.777344 1047 1065 C 1051.988281 1062.007813 1058.386719 1062.378906 1064 1061.386719 C 1075.367188 1059.371094 1086.796875 1056.699219 1098 1054 C 1091.671875 1049.300781 1083.476563 1048.121094 1076 1046 C 1089.542969 1038.800781 1114.722656 1045.320313 1126 1054.378906 C 1133.929688 1060.75 1139.203125 1069.363281 1148 1075 C 1161.753906 1083.566406 1178.722656 1084.523438 1191.828125 1095 C 1205.78125 1106 1222 1125.566406 1227 1143 C 1234 1167.796875 1220.730469 1203.136719 1200 1218 M 1773 1098 L 1772 1099 L 1773 1098 M 1365 1139 L 1365 1140 C 1439.972656 1183.757813 1521.972656 1208 1602 1240 C 1651.558594 1259.820313 1698.402344 1289.019531 1750 1303.253906 C 1793.640625 1315.296875 1860.414063 1315.292969 1890 1274 C 1876.863281 1276.539063 1866.175781 1284.480469 1852 1285.828125 C 1817.167969 1289.148438 1785.851563 1273 1754 1262 L 1754 1261 C 1780.386719 1254.5 1808.78125 1250.183594 1836 1252.089844 C 1844.742188 1252.703125 1852.476563 1257.144531 1861 1258 C 1855.449219 1250.8125 1845.78125 1246.589844 1838 1242.148438 C 1816.835938 1230.074219 1794 1221 1771 1213.328125 C 1720 1196.777344 1667.226563 1187.277344 1614 1182.171875 C 1574.710938 1178.398438 1534.910156 1176.59375 1496 1169.574219 C 1473.386719 1165.496094 1450.996094 1160 1429 1153.28125 C 1408.730469 1147.175781 1386.363281 1139.175781 1365 1139 M 865 1155 L 865 1156 C 852.867188 1160.550781 838.726563 1162.105469 826 1164.320313 C 800.972656 1168.675781 775.925781 1173.472656 751 1178.449219 C 669.800781 1194.664063 585.855469 1214.382813 513 1255.285156 C 471.871094 1278.371094 432.613281 1305.355469 401.285156 1341 C 390.28125 1353.519531 380.433594 1367.035156 371.34375 1381 C 366.785156 1388.007813 363.535156 1397.738281 357 1403 C 391.765625 1252.726563 559 1187 696 1165.726563 C 720.21875 1162 744.523438 1157.765625 769 1156.089844 C 801 1154 832.933594 1154.339844 865 1155 M 906 1197 C 900.875 1204.234375 885.957031 1207.707031 878 1211.375 C 856 1221.449219 834.527344 1232.484375 813 1243.246094 C 760.628906 1269.433594 708.632813 1295 659 1326.226563 C 642.835938 1336.410156 627 1348 612 1359.664063 C 604.757813 1365.289063 598.378906 1373.097656 590 1377 C 601.21875 1357.574219 621 1342 638 1327.574219 C 688.828125 1284.632813 751.675781 1256.683594 812 1230 C 833.722656 1220.375 856.195313 1211.167969 879 1204.445313 C 887.785156 1202 896.84375 1197.796875 906 1197 M 803 1203 C 799.582031 1207.289063 791 1209.035156 786 1211 C 773.867188 1215.503906 761.851563 1220.621094 750 1226 C 709.96875 1243.5625 671 1264 633 1285.425781 C 550.351563 1332.222656 468.757813 1392.605469 413.722656 1471 C 398.257813 1493.027344 389.5 1517.53125 377 1541 C 373.585938 1532.253906 380.871094 1514.023438 383 1505 C 392.210938 1468.660156 405.9375 1434.355469 428.265625 1404 C 462.546875 1357.390625 511 1324.4375 561 1296.433594 C 636 1254.273438 718.484375 1220.433594 803 1203 M 929 1229 L 929 1230 C 880 1255.738281 831.308594 1283.371094 785 1313.542969 C 768.820313 1324.085938 754.691406 1338.398438 738 1348 C 744.355469 1331.234375 763.390625 1317 777 1306.003906 C 809.449219 1280.179688 846.667969 1260.011719 885 1244.398438 C 898.519531 1239 914.367188 1230.195313 929 1229 M 985 1239 C 978.5 1247 967.472656 1252.671875 959 1258.332031 C 945.355469 1267.453125 931.824219 1277.210938 919 1287.449219 C 905.433594 1298.277344 891.644531 1315.714844 876 1323 C 890.511719 1292.464844 926.433594 1265.574219 956 1250.753906 C 965 1246.226563 974.894531 1240.390625 985 1239 M 1450 1254 C 1499.613281 1283 1545.230469 1316 1574.28125 1367 C 1581.558594 1379.792969 1592.476563 1396.117188 1594 1411 L 1593 1411 C 1565 1369.460938 1535.320313 1331.769531 1499 1297.039063 C 1488.265625 1286.777344 1476.828125 1276.730469 1465 1267.742188 C 1460.5 1264.320313 1451.410156 1259.636719 1450 1254 M 1356 1329 L 1356 1330 C 1336.539063 1330 1323.3125 1323.28125 1306 1316 C 1314.472656 1329.5625 1330.703125 1348.472656 1347 1352 L 1347 1354 C 1322.675781 1354 1302.402344 1340.832031 1283 1328 C 1291.21875 1349.679688 1307.425781 1368.824219 1315 1391 C 1288.984375 1381 1278.746094 1349 1258 1333 C 1266.828125 1354.230469 1268.527344 1374.226563 1270 1397 C 1270.523438 1403.351563 1273.175781 1409.757813 1273 1416 C 1263.933594 1409 1259.648438 1396.511719 1256.167969 1386 C 1251 1370.507813 1245.878906 1355.234375 1240 1340 L 1239 1340 C 1239.257813 1371.347656 1238 1400.449219 1226 1430 L 1225 1430 C 1225.660156 1398.035156 1224 1368.238281 1216 1337 L 1215 1337 C 1210.230469 1367 1207.386719 1404 1180 1424 C 1181.367188 1413.039063 1187 1402.015625 1189.335938 1391 C 1192.3125 1376.566406 1192 1361.65625 1192 1347 L 1190 1347 C 1188.203125 1369 1170.820313 1395.445313 1153 1408 C 1154.457031 1399.53125 1159.597656 1392.1875 1162 1384 C 1166.636719 1369.304688 1168 1354.296875 1168 1339 L 1167 1339 C 1157 1368.140625 1131 1398.605469 1100 1406 C 1111 1387.308594 1137 1370.242188 1140 1347 C 1130.902344 1357.40625 1119.285156 1365 1105 1365 L 1105 1364 C 1122.574219 1354.675781 1133.496094 1336 1146 1321 C 1127.355469 1330.660156 1105.191406 1356 1081 1349 C 1096.238281 1337.46875 1123.652344 1331.296875 1133 1313 C 1127 1314.207031 1121.890625 1315.742188 1116 1314 C 1127 1306.535156 1140 1302.316406 1151 1294.359375 C 1154.617188 1291.738281 1160.910156 1289.042969 1160 1284 C 1164.855469 1283 1169.359375 1280.800781 1174 1279 C 1172.8125 1277.8125 1172.472656 1277.414063 1172 1276 C 1176.984375 1274.8125 1182.886719 1274 1187.996094 1274.449219 C 1188.917969 1274.554688 1192.757813 1275.695313 1193.21875 1274.277344 C 1193.929688 1272.078125 1185.441406 1266 1184 1264 C 1198 1264.039063 1206.179688 1271.277344 1218 1277 C 1216.371094 1270.777344 1213.421875 1266 1211 1260 C 1222.304688 1262 1231.910156 1269.257813 1240 1277 C 1238.707031 1273.4375 1231.726563 1263.269531 1233.441406 1259.695313 C 1234.464844 1257.570313 1240.300781 1259.726563 1242 1260 C 1251.820313 1261.574219 1261.628906 1265.15625 1270 1270.539063 C 1285.367188 1280.421875 1296.78125 1295.035156 1311 1306.335938 C 1324.761719 1317.269531 1339.640625 1323.414063 1356 1329 M 827 1370 C 837.550781 1401.160156 819.289063 1431.710938 798 1453 C 817.746094 1446.453125 825.191406 1424 841 1412.519531 C 850.519531 1405.703125 862.996094 1403.710938 874 1400.574219 C 893.539063 1395 911.324219 1387.636719 924 1371 L 925 1371 C 927 1381.320313 918.367188 1394.660156 911.824219 1402 C 893.3125 1422.769531 865.886719 1432.019531 846 1451 C 882.316406 1436.101563 914.261719 1412.417969 950 1397 C 943 1417.394531 918.714844 1433.277344 905 1449 C 917.25 1446.089844 928.929688 1439.460938 941 1435.613281 C 972 1425.714844 1015.847656 1420.566406 1045 1439 C 1028.984375 1444.421875 999.523438 1445.207031 990 1462 C 1015.566406 1452.15625 1046.722656 1450.761719 1073 1458.589844 C 1081 1461 1094.503906 1464.425781 1099 1472 C 1085.550781 1470.578125 1061.847656 1477.296875 1055 1490 C 1087.878906 1477.746094 1125.933594 1506.179688 1143.328125 1532 C 1148.539063 1539.734375 1154.597656 1548.632813 1156 1558 L 1155 1558 C 1144.667969 1544.289063 1131 1529.800781 1114 1525.160156 C 1111.546875 1524.496094 1094 1522 1094 1526 C 1094 1529.058594 1102.800781 1533.480469 1105 1535.210938 C 1115.308594 1543.324219 1124.972656 1552.402344 1133.910156 1562 C 1156 1585.796875 1167.964844 1616.089844 1172 1648 L 1171 1648 C 1157 1618 1136.949219 1587.28125 1102 1579 C 1112.414063 1592.617188 1126.921875 1602.421875 1136.644531 1617 C 1153.972656 1643 1162.324219 1675 1160.960938 1706 C 1160.40625 1718.644531 1157 1730.558594 1156 1743 L 1155 1743 C 1155 1708.421875 1143.777344 1677 1119 1652 C 1124.792969 1668 1131.886719 1682 1134.5625 1699 C 1141.320313 1742.25 1125 1804.097656 1078 1819 C 1081.3125 1810.261719 1087.640625 1802.476563 1091.742188 1794 C 1097.554688 1782 1101 1769.089844 1103.386719 1756 C 1113.703125 1698.785156 1097.609375 1632.109375 1064 1585 C 1051.710938 1567.773438 1032.894531 1547.410156 1013 1539 C 1045.765625 1571.769531 1064.726563 1609 1056 1656 L 1055 1656 C 1045.539063 1607.207031 1007.925781 1575.421875 969 1548 C 975.449219 1561.800781 985.996094 1573.191406 994 1586 C 971.816406 1578.523438 959.703125 1551.753906 945.5625 1535 C 927.363281 1513.441406 900.480469 1495.050781 875 1483 C 896.800781 1516 902 1551 902 1590 L 901 1590 C 893.910156 1565 885.570313 1539 872.859375 1516 C 869 1509.320313 866.777344 1500.042969 861 1495 C 861 1519.746094 876.75 1539.289063 886.691406 1561 C 902 1594.710938 909.203125 1642.226563 890 1676 L 889 1676 C 890.964844 1630.226563 885.835938 1588.699219 856.574219 1551 C 850.777344 1543.527344 844.703125 1534.539063 837 1529 C 847.929688 1559.039063 855 1582.523438 851 1615 L 850 1615 C 846 1584 824.628906 1554.589844 806.371094 1530 C 799.875 1521.253906 793.640625 1509.667969 785 1503 C 786.804688 1523.691406 792 1543 792 1564 L 791 1564 C 783 1543.4375 767.582031 1528.628906 750 1516 C 759.574219 1535.335938 764.183594 1553.222656 759 1575 L 758 1575 C 754.175781 1552.496094 734.324219 1527 714 1517 C 700.867188 1510.460938 686.839844 1509.660156 673 1506 C 679.242188 1515 685.832031 1520.226563 685.40625 1532 C 685.335938 1534 685.683594 1540.746094 682.683594 1540.796875 C 679.496094 1541 675.554688 1536.351563 673 1534.699219 C 666.179688 1530.285156 658.554688 1527 651 1524 C 659.554688 1555.351563 652.5625 1599.789063 641 1630 L 640 1630 C 638 1615.28125 634.4375 1600.390625 631 1586 L 630 1586 C 625 1601.023438 617.210938 1614.699219 610.660156 1629 C 606.191406 1638.765625 600.808594 1651.496094 592 1658 C 594 1633.101563 594.808594 1600.050781 609 1579 C 602.882813 1582.445313 598.558594 1588.804688 593.949219 1594 C 581 1608.476563 567.441406 1626.109375 562 1645 L 561 1645 C 559.855469 1637.800781 562.226563 1630.027344 563.792969 1623 C 569 1599.289063 581 1570.496094 606 1562 L 606 1561 C 582.4375 1560 564.371094 1577.113281 545 1587 C 546.652344 1580.636719 551.800781 1575.136719 555.792969 1570 C 568.238281 1554 583.824219 1541.015625 605 1541 C 589.441406 1524 561.191406 1531.164063 542 1534 C 546.5625 1524.417969 559.90625 1517.578125 569 1512.78125 C 595.519531 1498.789063 625.242188 1493.460938 654 1486 L 654 1485 C 640 1481.085938 627.261719 1477.515625 614 1471.542969 C 609.800781 1469.652344 603.808594 1468.738281 601 1465 C 620.425781 1465 640.234375 1459.738281 658 1471 C 659 1458.675781 668.546875 1448.828125 673.679688 1438 C 681.414063 1421.683594 680.59375 1409.824219 676 1393 C 703.960938 1406.046875 695.523438 1449.019531 687 1471 C 709.816406 1453.539063 712.609375 1423 703 1398 C 728.386719 1406.421875 734 1434.308594 734 1457 C 738.4375 1452.609375 740.808594 1446.132813 744.425781 1441 C 757.363281 1422.636719 768.808594 1405 767 1382 C 785.246094 1393.714844 775.777344 1426.660156 773 1443 C 788.890625 1431 806 1412.34375 816 1395 C 820.644531 1387.289063 822 1377 827 1370 M 1477 1470 C 1477 1458.300781 1475.949219 1447.601563 1475 1436 C 1484.828125 1442.421875 1487.222656 1459.71875 1491 1470 L 1492 1470 C 1492 1450 1488.714844 1431.667969 1487 1412 L 1488 1412 C 1498.621094 1426.332031 1508.3125 1440.832031 1513.804688 1458 C 1516.34375 1466 1516.421875 1482.535156 1522 1488 C 1522.777344 1480.230469 1527 1473.203125 1529.9375 1466 C 1535.402344 1452 1540 1437.234375 1540 1422 C 1545 1425.097656 1546 1433.480469 1547.195313 1439 C 1550.789063 1456.078125 1548.550781 1473 1542 1489 C 1557.644531 1478.109375 1573.558594 1465.503906 1590 1456 C 1584.914063 1474.441406 1569.65625 1489 1559 1504 C 1576.390625 1498.429688 1593.710938 1493.554688 1608 1481.558594 C 1615.90625 1475 1620.878906 1463.675781 1629 1458 C 1628.742188 1470.070313 1623.640625 1482.519531 1616.347656 1492 C 1612.480469 1497.015625 1606.574219 1501.210938 1604 1507 C 1614.558594 1500.644531 1625.933594 1495.070313 1636 1488 C 1641.394531 1484.144531 1645.234375 1478.078125 1651 1475 C 1648.847656 1496.027344 1628.933594 1506.480469 1618 1522 C 1644.246094 1504.703125 1683.292969 1497.628906 1713 1509 L 1713 1510 C 1692.601563 1510 1665.898438 1518.144531 1653 1535 C 1679 1525 1703.519531 1527 1729 1538.140625 C 1736.90625 1541.644531 1748.46875 1546.289063 1753 1554 C 1737.355469 1554.042969 1711.492188 1555.628906 1701 1569 C 1741.261719 1569 1785.3125 1600.753906 1789 1643 L 1788 1643 C 1778.46875 1625.816406 1762.433594 1607.519531 1742 1604 C 1764.597656 1636.464844 1784.722656 1670 1789.714844 1710 C 1791.585938 1725.039063 1789 1739.042969 1789 1754 L 1788 1754 C 1782.546875 1733 1778.636719 1706.382813 1760 1692 C 1775.382813 1740 1772.203125 1799.304688 1720 1824 C 1726 1809.472656 1736 1797.507813 1740.796875 1782 C 1755.382813 1734.496094 1747.617188 1665.019531 1702 1637 C 1705.964844 1650.765625 1712.621094 1662.417969 1714.699219 1677 C 1719.328125 1709.492188 1709.96875 1747.277344 1693 1775 L 1692 1775 C 1693.464844 1760.300781 1696.625 1747.160156 1695.960938 1732 C 1695.476563 1721 1692 1710.101563 1692 1699 L 1690 1699 C 1690 1725.46875 1687.796875 1755.371094 1677.28125 1780 C 1673.691406 1788.40625 1669.496094 1798.433594 1662 1804 C 1668.8125 1779.039063 1673 1755.136719 1671.960938 1729 C 1671.226563 1712.214844 1666.726563 1695.625 1666 1679 C 1661.84375 1683.054688 1662.175781 1689.550781 1660.871094 1695 C 1657.769531 1708 1653.941406 1720.648438 1649 1733 C 1647 1738 1645.621094 1744.203125 1641 1747 C 1646.679688 1702.105469 1631 1658.484375 1631 1614 C 1626 1618.691406 1625.796875 1628.492188 1624.871094 1635 C 1622.417969 1652.246094 1623 1671.203125 1619 1688 L 1618 1688 C 1614.902344 1673 1610.339844 1658.21875 1608.289063 1643 C 1603.816406 1609.808594 1603.371094 1567.394531 1573 1546 C 1573 1580.445313 1550.898438 1612 1533 1640 L 1532 1640 C 1533.335938 1623.238281 1537.773438 1604.0625 1530 1588 C 1528.761719 1595.773438 1530.453125 1604.085938 1529.910156 1612 C 1528.488281 1632.785156 1523.394531 1654.734375 1513 1673 L 1512 1673 C 1512 1658 1513.882813 1643.113281 1511 1628 C 1509.964844 1622.570313 1510 1617.144531 1506 1613 C 1506 1638 1495.273438 1660.363281 1488.746094 1684 C 1483.71875 1702.199219 1482 1721.203125 1482 1740 L 1481 1740 C 1470.1875 1701.527344 1482.894531 1663.410156 1483 1625 L 1482 1625 C 1474.261719 1648 1461.730469 1669 1454.34375 1692 C 1450.582031 1703.78125 1449.800781 1723.101563 1443 1733 C 1439.929688 1722.617188 1441.691406 1708.664063 1442.835938 1698 C 1445.457031 1673.511719 1451.558594 1650.683594 1461 1628 C 1454 1634.195313 1449.273438 1643.078125 1442.925781 1650 C 1430.597656 1663.433594 1416.515625 1675.4375 1404.425781 1689.015625 C 1395.839844 1698.65625 1384.773438 1713.511719 1373 1719 C 1376.453125 1707.265625 1385.171875 1695.695313 1391 1685 C 1407 1656.359375 1424.960938 1629.296875 1443 1602 C 1414.402344 1614.726563 1398 1646 1372 1661 C 1383.5625 1629.191406 1409.734375 1598.824219 1433 1575 C 1440.625 1567.210938 1451.441406 1561.5 1458 1553 C 1439.332031 1557.28125 1421.210938 1565 1406 1576.664063 C 1397.714844 1583.09375 1390.902344 1592.714844 1382 1598 C 1387.648438 1574.222656 1403.667969 1547.046875 1418.667969 1528 C 1423.683594 1521.632813 1430.238281 1516.472656 1435 1510 C 1421.738281 1516.472656 1408.914063 1523 1398 1533.089844 C 1379.6875 1550.117188 1366.640625 1571.613281 1349.613281 1589.816406 C 1338 1602.234375 1324 1612.605469 1310 1622 C 1303.574219 1626.28125 1297.183594 1632.222656 1290 1635 C 1299.296875 1609.644531 1320.363281 1587.585938 1339 1569 C 1309 1581.457031 1286.855469 1602.785156 1261 1621 C 1263.972656 1593.476563 1291.355469 1577.648438 1309 1561 C 1277.746094 1565.207031 1258.488281 1586.480469 1232 1600 C 1240 1581.433594 1257.765625 1561.710938 1274 1550 C 1281.730469 1544.304688 1293.882813 1541.003906 1300 1534 C 1271.53125 1534.019531 1245.699219 1543.773438 1228 1567 L 1227 1567 C 1227.808594 1559.09375 1232.851563 1551.585938 1237 1545 C 1252 1521.398438 1278.976563 1505.679688 1307 1504.09375 C 1316.210938 1503.570313 1325 1507.105469 1334 1508 C 1317.277344 1486.148438 1284.804688 1488.515625 1261 1493 C 1266.6875 1486.136719 1276.871094 1482.617188 1285 1479.398438 C 1316.246094 1467.042969 1347.566406 1472.261719 1377 1486 C 1365.824219 1474.824219 1349 1460.347656 1344 1445 C 1366.53125 1452.179688 1383.222656 1474.296875 1406 1481 L 1406 1480 C 1392.8125 1472.144531 1377.871094 1444 1375 1429 C 1406.808594 1444.046875 1432.316406 1472.269531 1457 1496 C 1457 1474.796875 1454.976563 1455 1444.691406 1436 C 1439.765625 1427 1431.851563 1420 1427 1411 C 1445.921875 1417.441406 1458.5 1430.300781 1467.476563 1448 C 1470.949219 1455 1471.945313 1464.265625 1477 1470 M 979 1789 C 981.703125 1726.007813 981.183594 1663.027344 967 1601 C 984.511719 1602.792969 1000.59375 1622.394531 1009.667969 1636 C 1034.363281 1673.03125 1031.882813 1723.519531 1007.664063 1760 C 1000.574219 1770.683594 990.609375 1783.058594 979 1789 M 801 1802 C 802 1789.601563 805.679688 1777.554688 805.984375 1765 C 807.210938 1715 797 1661.070313 788 1612 C 803.898438 1617.273438 817.441406 1636.664063 826.332031 1650 C 854.546875 1692.300781 859.921875 1744.597656 823 1784 C 816.773438 1790.808594 809.394531 1797.714844 801 1802 M 1583 1678 C 1583 1718.039063 1585.214844 1762 1557.675781 1795 C 1550.945313 1803.074219 1542.84375 1809.152344 1534 1814.679688 C 1531.734375 1816.097656 1527.519531 1819.535156 1524.601563 1818.292969 C 1521.964844 1817.167969 1523 1811.222656 1522.984375 1809 C 1522.757813 1799.660156 1522 1790.394531 1522 1781 C 1522 1742.011719 1543.527344 1692.449219 1583 1678 M 705 1685.40625 C 721.324219 1682.261719 726.644531 1708 710 1710.773438 C 693.625 1713.59375 688 1688.664063 705 1685.40625 "/></g></svg>