<svg xmlns="http://www.w3.org/2000/svg" xmlns:xlink="http://www.w3.org/1999/xlink" viewBox="0 0 100 100" version="1.1"><g transform="translate(1, 7.905693874603948) scale(0.053277609303194785) translate(-55.242188, -188.8125)"><path style=" stroke:none;fill-rule:nonzero;fill:rgb(0%,0%,0%);fill-opacity:1;" d="M 1239 465 C 1237.769531 460.621094 1237 456.554688 1237 452 C 1234.574219 453.382813 1232 457.785156 1230 455 C 1228.667969 456.203125 1226.609375 460 1224.902344 460.371094 C 1222.96875 461 1223 457 1223 456 C 1223.28125 450.023438 1225.742188 445 1224 439 L 1223 439 C 1221.40625 449.621094 1211.503906 464 1213 445 C 1208.914063 447.695313 1207 453 1203 456 L 1205 443 C 1202.273438 445 1200.589844 448 1198 450 C 1197.949219 447.472656 1197.722656 445.417969 1197 443 C 1194.398438 446 1192.566406 449.363281 1191 453 L 1190 453 C 1188.773438 448 1188.226563 442.285156 1188 437 L 1186 437 L 1185 443 L 1184 443 C 1184 438.5625 1184 434.339844 1183 430 L 1182 430 C 1179 437.605469 1176.777344 443.238281 1170 448 C 1169.894531 443 1169.363281 438.15625 1170 433 C 1165.964844 435.644531 1164.476563 440.34375 1164 445 L 1162 445 C 1162.191406 440.5625 1163.410156 436.378906 1164 432 C 1160.691406 435 1160 437.671875 1160 442 L 1159 442 C 1158 438.304688 1158 434.785156 1158 431 L 1157 431 L 1154 439 L 1153 439 C 1152.199219 435.632813 1152 432.453125 1152 429 C 1147.578125 431.671875 1146.65625 437.382813 1143 441 C 1141.976563 433 1140 425.179688 1140 417 C 1132.398438 421.527344 1135.5625 430.816406 1134 438 L 1133 438 L 1133 429 C 1129.804688 431 1129.332031 433.359375 1129 437 L 1127 437 L 1127 427 C 1123.898438 429.328125 1123.175781 433.390625 1122 437 L 1121 437 L 1121 424 L 1120 424 C 1115.359375 432.226563 1113.570313 433.679688 1114 423 C 1112 424 1110.925781 425.636719 1109 425 L 1108 425 C 1107.851563 428.296875 1107.285156 431 1106 434 C 1104.894531 427.054688 1106.3125 420.058594 1105 413 L 1104 413 L 1097 432 C 1094.484375 427 1094.898438 419.085938 1090 416 C 1089.71875 421.4375 1086.691406 425.703125 1086 431 C 1081.894531 427.023438 1082 421.449219 1082 416 C 1077.753906 419.082031 1075.859375 425.21875 1074 430 L 1073 430 C 1071.449219 423.488281 1072 416.660156 1072 410 L 1071 410 C 1068.597656 416.273438 1065.863281 422 1063 428 L 1062 428 C 1058.808594 419.304688 1060 410.769531 1058 402 L 1057 402 C 1056 409 1055.890625 422.214844 1051 427 C 1051 421.703125 1051 417 1049 412 L 1048 412 C 1046.65625 416.242188 1046.390625 420 1043 423 C 1042.683594 420.121094 1042.378906 418.664063 1040 417 C 1039.4375 420.023438 1039 423 1039 426 L 1037 426 C 1036.730469 420.066406 1035.179688 413.058594 1032 408 C 1031 411.132813 1031.511719 421.167969 1028.386719 422.792969 C 1025.578125 424.257813 1021.878906 413 1021 411 C 1019.296875 414 1019.496094 421.203125 1016.523438 422.792969 C 1014.5625 424 1013.375 419.097656 1013 418 C 1011.378906 412.46875 1011.683594 406.535156 1010 401 L 1009 401 C 1007.992188 404.375 1006.425781 423 1001.792969 423 C 997.785156 423 995 411 994 408 L 993 408 C 992.628906 410.003906 992.277344 412 992 414.003906 C 991.941406 415.324219 991.957031 416.710938 991.605469 418 C 987.78125 432.074219 983.90625 408.214844 981 406 C 980.320313 411.386719 980 416.5625 980 422 C 977 419.292969 976.269531 415.238281 973 413 L 973 421 L 969 419 L 968 422 L 967 422 C 965.617188 417.644531 964.988281 413.105469 963 409 L 962 409 C 961.894531 414.035156 961.179688 419.105469 960 424 L 959 424 C 956.183594 417 953.355469 409.789063 953 402 L 951 402 C 950.78125 404.75 948.960938 424.449219 945.203125 422.792969 C 941.542969 421.175781 941 413 938 410 C 937.171875 415.628906 935 420.761719 933 426 L 932 426 C 930.300781 420.644531 929.28125 415.152344 927 410 L 926 410 C 924.855469 413.078125 925.960938 421.117188 924 423.078125 C 922 425.101563 915.96875 413.511719 915 412 L 914 412 C 912.644531 416.625 913.679688 421.253906 913 426 C 908.667969 420.375 906.699219 413.027344 906 406 L 904 406 C 903.855469 413.046875 902 420 902 427 C 897.804688 423.339844 893.441406 415.433594 892 410 L 891 410 C 891 416 893.257813 424.398438 889 429 C 888.273438 425.425781 887.242188 423.699219 884 422 L 884 426 L 882 426 C 881.914063 425 881.914063 424 881.695313 423 C 879.335938 412 878 427.21875 876.636719 427.035156 C 873.355469 426.605469 870.507813 418.253906 868 416 C 868 421.429688 867.992188 426.644531 867 432 C 862.230469 426.234375 859.734375 419.402344 856 413 L 855 413 C 855.539063 420 856.621094 426.195313 855 433 C 851.679688 428 849.980469 422.238281 847 417 L 846 417 C 846 424 849 439.277344 838.828125 428.449219 C 837.476563 427.007813 836.238281 425.539063 835 424 L 834 424 C 834 426.792969 835.433594 438.066406 831 431 L 828 433 C 827.402344 428.242188 825 424.230469 823 420 L 822 420 L 822 438 C 817.921875 435.0625 815.316406 430.410156 811 428 C 811.949219 433.125 812.304688 437.210938 810 442 C 808.769531 438.300781 808.226563 435.152344 804 437 C 802.835938 434.78125 801.914063 433.605469 800 432 C 799.984375 437 799.328125 441.273438 798 446 L 797 446 L 797 440 L 796 440 L 794 445 L 788 436 L 787 436 C 787.320313 440.050781 788.179688 444 788 448 C 783.777344 443 782 436.792969 779 431 L 778 431 C 776 437.714844 776.644531 445.117188 775 452 L 774 452 C 773.671875 448.265625 773.195313 445.1875 770 443 L 770 451 L 761 443 C 760 447 760.964844 451 761 455 C 757.386719 451.027344 754 446.441406 750 443 C 750 445.179688 751.253906 456 747.867188 456 C 743.816406 456 740.523438 445 739 442 L 738 442 C 738 444.484375 741.234375 460 738 460 C 735.414063 460 729.183594 453.3125 726 452 C 726 456.4375 726 460.660156 725 465 C 705 448.714844 690.511719 425 672.910156 406 C 637.933594 368.433594 600.703125 333.21875 560 302 C 513.996094 266.476563 463.429688 234.097656 410 211.148438 C 394 204.324219 366.386719 189.554688 349 197.824219 C 331.945313 206 325 229.597656 319 246 C 302.726563 291.449219 292 338.339844 284.5625 386 C 270.660156 474.3125 266.65625 564 275.171875 653 C 277.949219 682.105469 282 711.179688 287 740 C 289.3125 752.675781 295.652344 768.148438 294.699219 781 C 294 788.695313 288.824219 797 285.910156 804 C 280 818.105469 274.535156 832.53125 269.667969 847 C 254.96875 890.664063 244.554688 936.113281 240.171875 982 C 235.652344 1029.289063 239.40625 1076 242 1123 C 242.65625 1134.132813 244.742188 1146.113281 247 1157 C 247.839844 1160.3125 250.738281 1168.34375 248.800781 1171.398438 C 246.878906 1174.429688 240.78125 1172.433594 238 1172.171875 C 228.800781 1171.292969 219.238281 1172 210 1172 C 170.226563 1172 133.863281 1182.261719 95 1188 L 95 1189 C 146.742188 1189 197.304688 1181.21875 248.996094 1191 C 258.960938 1192.753906 262 1216.335938 264.574219 1225 C 265.351563 1227.65625 268.675781 1234.632813 266.222656 1237 C 263.972656 1239.117188 257.847656 1238 255 1238 C 245 1238 234.898438 1238.117188 225 1239.285156 C 189.652344 1243.457031 153.398438 1250.214844 120 1263 L 120 1264 C 138.324219 1264 156.753906 1260 175 1258.171875 C 200.871094 1255.699219 226.996094 1255 253 1255 C 258.695313 1255 269 1253.035156 273.785156 1256.601563 C 278.1875 1260 280 1267.210938 282.296875 1272 C 283.714844 1275 287.785156 1280.308594 286.582031 1283.773438 C 285.363281 1287.28125 279 1287.53125 276 1288.257813 C 265.269531 1291 254.519531 1293.238281 244 1296.671875 C 203 1310 167.28125 1331.242188 130 1352 L 130 1353 C 143.289063 1350 155.996094 1343 169 1338.515625 C 199.199219 1328.449219 229.214844 1318.410156 260 1310.265625 C 270.335938 1307.53125 282.207031 1302.738281 292.996094 1303 C 297.890625 1303 302.398438 1309 301.785156 1314 C 301.324219 1317.617188 295.808594 1319.394531 293 1321 C 284.1875 1326.039063 276 1331.769531 268 1338.015625 C 248.355469 1353.34375 230.648438 1370.265625 215.351563 1390 C 209.5625 1397.464844 202.378906 1405.082031 199 1414 C 209 1409.207031 217.441406 1397.773438 226 1390.589844 C 244.234375 1375.285156 263.1875 1361.519531 283 1348.332031 C 290.171875 1343.5625 297.5625 1339.054688 305 1334.714844 C 307.304688 1333.371094 310.925781 1330 313.789063 1330.589844 C 319 1331.683594 325.878906 1345 329.25 1349 C 343.230469 1366 357.464844 1382.464844 373 1398 C 417.402344 1442.402344 468.964844 1476 525 1503.753906 C 542.734375 1512.535156 561.5 1519.445313 580 1526.425781 C 583.410156 1527.710938 597.566406 1530.617188 598 1534.71875 C 598.453125 1537.261719 594.851563 1540.257813 593.425781 1542 C 588.171875 1548.40625 582.675781 1554.59375 577.425781 1561 C 565.226563 1576 553.410156 1591.5 543.449219 1608 C 536.523438 1619.476563 530.648438 1632.761719 522 1643 C 496.820313 1575.144531 394.90625 1560.128906 345 1607.089844 C 332 1619.265625 323.351563 1635 319 1652 C 317.582031 1657.585938 318.332031 1669.273438 310.980469 1670 C 291 1671.757813 270 1670 250 1670 L 80 1670 C 74.355469 1670 64.4375 1668.085938 59.316406 1670.601563 C 55.242188 1672.609375 57 1682.265625 57 1686 L 57 1720 C 57 1724.320313 55.941406 1730.679688 57.859375 1734.683594 C 60 1739.167969 72.800781 1737 77 1737 L 360 1737 C 365.679688 1737 374.523438 1735.339844 379.574219 1738.316406 C 387.890625 1743.214844 394.261719 1751 403 1755.511719 C 424.769531 1767.054688 452 1769 475 1760 C 483.492188 1756.699219 490.859375 1752.691406 498 1747 C 502.5625 1743.359375 506.855469 1737.59375 513 1737.058594 C 532.679688 1735.34375 553.238281 1737 573 1737 L 1403 1737 C 1418.589844 1737 1436.671875 1734.441406 1452 1737.226563 C 1460 1738.703125 1467 1748.210938 1474 1752.5625 C 1486.878906 1760.746094 1504.621094 1766.25 1520 1766 C 1535.425781 1765.488281 1551.878906 1760.375 1565 1752.386719 C 1571.921875 1748.171875 1579 1739 1587 1737.277344 C 1609 1732.714844 1636.441406 1737 1659 1737 L 1870 1737 C 1875 1737 1887.273438 1739.238281 1891.398438 1736 C 1894.351563 1733.632813 1893 1726.316406 1893 1723 L 1893 1684 C 1893 1680.171875 1894.664063 1671.746094 1889.851563 1670.316406 C 1884.339844 1668.679688 1876.730469 1670 1871 1670 L 1710 1670 C 1691.507813 1670 1670.269531 1673 1652 1670 C 1645.726563 1668.777344 1646 1656.089844 1644.71875 1651 C 1640 1634.175781 1630.523438 1618.765625 1617.910156 1607 C 1583 1574 1521.625 1570.535156 1482 1597.039063 C 1463.351563 1609.511719 1453.867188 1626.25 1440 1643 C 1428.335938 1613.398438 1405.214844 1585.527344 1385.398438 1561.003906 C 1380 1554.496094 1374.445313 1548.351563 1369 1542 C 1367.402344 1540.136719 1363.183594 1536.460938 1363.753906 1533.648438 C 1364.539063 1529.808594 1377.6875 1527.125 1381 1526 C 1398.265625 1520.113281 1415.421875 1513.523438 1432 1506 C 1494.851563 1477.089844 1550 1439.007813 1599 1390 C 1612.8125 1376.144531 1624.957031 1361.226563 1637.195313 1346 C 1640.183594 1342.285156 1645.648438 1331.410156 1651 1331.445313 C 1659.796875 1331.503906 1673.664063 1343.585938 1681 1348.089844 C 1701.402344 1360.621094 1720.710938 1375.164063 1739 1390.589844 C 1747.917969 1398.109375 1755.902344 1408.164063 1766 1414 C 1762.617188 1405.078125 1755.34375 1397.378906 1749.449219 1390 C 1734.183594 1371 1716.539063 1353.367188 1697 1338.625 C 1688.671875 1332.34375 1680 1326.457031 1671 1321.28125 C 1668 1319.660156 1662.425781 1317.53125 1661.726563 1314 C 1660.976563 1310 1666.222656 1303 1670 1302.347656 C 1679.800781 1301 1693.554688 1307 1703 1309.230469 C 1732.1875 1316.347656 1760.722656 1325.585938 1789 1335.691406 C 1803.390625 1341 1819 1349.421875 1834 1352 C 1827.195313 1343.785156 1814.261719 1339 1805 1333.824219 C 1779.367188 1319.695313 1752 1306.445313 1724 1297.71875 C 1712.328125 1294.082031 1700.9375 1290.738281 1689 1288.117188 C 1685.929688 1287.441406 1678.925781 1287.445313 1677 1284.4375 C 1675.34375 1281.429688 1679.226563 1275.757813 1680.425781 1273 C 1686.957031 1258 1690.535156 1255 1707 1255 C 1734 1255 1761 1255.597656 1788 1258.171875 C 1806.863281 1260 1826 1264 1845 1264 L 1845 1263 C 1810.46875 1249.351563 1772.507813 1244.277344 1736 1239.425781 C 1726.300781 1238.136719 1716.675781 1238.746094 1707 1237.828125 C 1704.890625 1237.628906 1698.71875 1238 1697.351563 1236.109375 C 1695.226563 1233.320313 1699 1226 1699.859375 1223 C 1702.867188 1212.546875 1704.402344 1192.160156 1717 1190.285156 C 1753.929688 1184.792969 1790.804688 1185.105469 1828 1186.015625 C 1841.386719 1186.34375 1856.84375 1191.566406 1870 1189 C 1861.246094 1184.339844 1848.707031 1183.492188 1839 1181.550781 C 1812.710938 1176.292969 1785.859375 1172 1759 1172 C 1748.429688 1172 1737.488281 1171.199219 1727 1172.574219 C 1724.285156 1173 1717 1174.410156 1714.929688 1172.109375 C 1712.644531 1169.617188 1715.714844 1161 1716.339844 1158 C 1719 1144.828125 1721 1131.347656 1722.714844 1118 C 1729 1067.4375 1727.964844 1016.550781 1722.828125 966 C 1718.582031 924.199219 1707 881.441406 1692.78125 842 C 1687.664063 827.808594 1681.78125 814 1675.988281 800 C 1673.53125 794.089844 1669 787.46875 1668.550781 781 C 1667.464844 769.277344 1673.976563 754.707031 1675.699219 743 C 1681 706.109375 1687.359375 669.242188 1689.910156 632 C 1696.683594 533.121094 1691 434.023438 1670.210938 337 C 1662.726563 302.328125 1653.390625 268 1640.199219 235 C 1634.738281 221.34375 1629.171875 204.578125 1615 197.671875 C 1596.824219 188.8125 1565.804688 205.328125 1549 212.730469 C 1490.761719 238.390625 1433.367188 273.511719 1385 315 C 1357 339 1329.242188 363 1304 390 C 1281.546875 414.203125 1261.824219 441.152344 1239 465 M 1108 414 L 1108 424 L 1109 424 C 1109 420.585938 1109.328125 417.164063 1108 414 M 786 433 L 787 434 L 786 433 M 772 437 C 771.660156 439.019531 771.675781 440 772 442 L 773 442 C 772.910156 440.035156 772.777344 438.769531 772 437 M 1334 747.285156 C 1357.839844 744.472656 1385.988281 750.074219 1409 756.117188 C 1531.675781 788.328125 1617.566406 910.59375 1608.910156 1037 C 1606.554688 1071.378906 1599 1104.578125 1584.691406 1136 C 1546.386719 1219.644531 1462.25 1274.164063 1372 1284 C 1311.1875 1290.347656 1248.761719 1277.28125 1197 1244.304688 C 1063.625 1159.339844 1034.828125 963.441406 1134.613281 842 C 1171.230469 797.441406 1220.964844 767.25 1277 754.234375 C 1295.984375 749.824219 1314.851563 749.546875 1334 747.285156 M 603 748.285156 C 624.714844 745.714844 648.542969 747.671875 670 751.246094 C 825.265625 777.113281 918.941406 941.53125 877 1090 C 853.949219 1172.085938 793.808594 1238.664063 714 1269 C 690.484375 1278 665.828125 1281.773438 641 1284.714844 C 530.300781 1297.820313 420 1228 375.863281 1128 C 351.65625 1073.253906 348 1005.664063 363.285156 948 C 383.3125 872.324219 437.535156 805.03125 509 772.308594 C 538.882813 758.625 570.582031 752.121094 603 748.285156 M 1538 925 C 1531.902344 928.675781 1528.4375 937.800781 1522.984375 942.828125 C 1507.875 956.765625 1488 961.285156 1468 960 C 1428.308594 957.191406 1392.984375 931.40625 1377.285156 895 C 1363.441406 863 1372.644531 821.597656 1409 810.027344 C 1428.175781 804 1444 809.179688 1463 812 C 1455.171875 803.457031 1441.570313 798.828125 1431 794.601563 C 1403.886719 783.753906 1377 777 1348 775 C 1298.761719 771.539063 1246.472656 784.425781 1206 813.429688 C 1135.347656 864.0625 1100.976563 960.789063 1123 1045 C 1135.703125 1092.644531 1162.589844 1136.261719 1202 1166.347656 C 1285.476563 1230.074219 1412.777344 1226.621094 1486.910156 1149 C 1529.71875 1104.15625 1550.664063 1045.722656 1547.960938 984 C 1547 963.597656 1540.578125 945 1538 925 M 779 832 C 773 819.5 754.769531 810 743 803.78125 C 708 785.382813 671.503906 775 632 775 C 606.636719 775 582 778.285156 558 786.695313 C 463.222656 819.785156 404.710938 915.683594 414.171875 1015 C 417.683594 1052 429.585938 1088.183594 450.359375 1119 C 528.386719 1234.746094 701.1875 1240.347656 790.871094 1136 C 809.972656 1113.773438 824 1088 832.972656 1060 C 843.652344 1026.398438 845.691406 990.730469 840.273438 956 C 839 947.832031 837 940 834.503906 932 C 833.8125 930 833.203125 925.347656 830.792969 924.347656 C 828.382813 923.34375 824.34375 930.53125 822.957031 932 C 815.511719 940 807.484375 945.3125 797 948.253906 C 753.210938 960.53125 701.621094 930.722656 693.464844 885 C 692 877.59375 691.929688 870.410156 693 863 C 700 820.773438 747.261719 815.371094 779 832 M 963 1133.289063 C 982.71875 1130.726563 1007.976563 1131.515625 1026 1140.527344 C 1039.742188 1147.398438 1047.433594 1162 1041.726563 1177 C 1035 1194.59375 1017.851563 1199.757813 1005 1211.210938 C 996 1219.179688 996.226563 1237 982 1238.628906 C 968.371094 1240.214844 966.691406 1218.304688 958.894531 1211.519531 C 946.929688 1201.101563 932.71875 1196.027344 923.699219 1182 C 904.851563 1152.683594 938.640625 1136.453125 963 1133.289063 "/></g></svg>