<svg xmlns="http://www.w3.org/2000/svg" xmlns:xlink="http://www.w3.org/1999/xlink" viewBox="0 0 100 100" version="1.1"><g transform="translate(9.9391634395364, 1) scale(0.05274632858520553) translate(-268, -69.503906)"><path style=" stroke:none;fill-rule:nonzero;fill:rgb(0%,0%,0%);fill-opacity:1;" d="M 482 709 C 466.351563 698.019531 451.953125 685 436 674.355469 C 399.355469 650 359.984375 630 318 616.496094 C 302 611.398438 284.703125 604.328125 268 603 L 268 604 C 326.414063 627.128906 380.535156 660.304688 431 697.628906 C 442.921875 706.445313 455 715 467 723.769531 C 471.726563 727.328125 478.292969 730.535156 481 736 C 483 740 482 745.785156 482 750 L 482 780 C 464.347656 772.648438 448.308594 761.464844 431 753.296875 C 396 737 358.628906 726.464844 321 718.714844 C 306.738281 715.777344 291.582031 711.128906 277 711 L 277 712 C 298.210938 719.195313 319.921875 724.472656 341 732.425781 C 380.757813 747.421875 419.195313 767.316406 456 788.425781 C 462.804688 792.332031 476.960938 798.398438 480.972656 805.214844 C 484.378906 811 482 823.410156 482 830 C 482 834 483.925781 845.410156 480.257813 848.019531 C 477.511719 850 471.699219 846.644531 469 845.691406 C 459.429688 842.316406 449.753906 839 440 836.140625 C 402.976563 825.527344 361.742188 815.003906 323 815 L 323 816 C 374.652344 832.40625 426.183594 847.078125 477 866.425781 C 503.972656 876.691406 529.671875 892.167969 557 901 L 557 902 C 538.753906 900.183594 519.5625 891 502 885.71875 C 498.390625 884.636719 486 879.085938 483 882.042969 C 480.996094 884 482 889.488281 482 892 L 482 1494 C 482 1507.75 478.257813 1527.777344 482.433594 1541 C 484 1546 494.585938 1546.5 499 1547.746094 C 514.414063 1552.089844 529.550781 1559.03125 543 1567.691406 C 578.714844 1590.695313 605.46875 1626 619.304688 1666 C 637 1717.253906 630.390625 1775 606.5 1823 C 598.734375 1838.632813 588.414063 1858.554688 574 1869 C 580.34375 1853.714844 588.203125 1840.628906 591.550781 1824 C 604.269531 1760.804688 582.890625 1703 538 1658 C 554.804688 1662.503906 567 1674.257813 582 1682 C 573.457031 1596.1875 454.835938 1517.324219 379 1575.75 C 367.710938 1584.449219 358.859375 1599.808594 357.171875 1614 C 356.480469 1619.78125 358.804688 1631.359375 356.507813 1636.117188 C 353.632813 1642.074219 345.960938 1646.636719 341.898438 1652 C 331.816406 1665.316406 325.613281 1684.253906 328.324219 1701 C 329.671875 1709.328125 332.410156 1716.816406 336.8125 1724 C 339 1727.789063 344.195313 1732.613281 344.78125 1737.089844 C 345.410156 1742 342.640625 1748.074219 342.171875 1753 C 340.921875 1766.070313 343 1779.71875 350 1791 C 354.992188 1799.011719 361.386719 1805.441406 369 1811 C 372.503906 1813.421875 377.785156 1814.609375 380.398438 1818.144531 C 383.910156 1823 384.261719 1831.441406 386.890625 1837 C 392.683594 1849.242188 403.425781 1860.046875 415 1867 C 428.847656 1875.117188 444.328125 1877.410156 460 1878.832031 C 464.730469 1879.261719 476.867188 1876.546875 480.398438 1879.691406 C 482.710938 1881.757813 482 1886.25 482 1889 L 482 1915 C 482 1917.664063 480.871094 1924.03125 483.601563 1925.6875 C 486.527344 1927.453125 493.617188 1926 497 1926 C 509.601563 1926 521.558594 1925.796875 534 1924.160156 C 612.914063 1913.777344 663.992188 1836.6875 664 1760 L 665 1760 L 670 1774 L 671 1774 C 678.511719 1748.585938 670 1718 670 1692 L 671 1692 C 676.535156 1705.296875 683.828125 1718 690 1731 L 691 1731 C 690.996094 1705.546875 685 1680.371094 684 1655 L 685 1655 C 688.464844 1663.082031 694.546875 1678.214844 702 1683 L 697 1632 C 703.6875 1638.484375 704.601563 1651 712 1656 C 712 1630 709 1604.117188 709 1578 L 710 1578 C 715.167969 1591.316406 720.390625 1604.496094 725 1618 L 726 1618 C 732.496094 1596.023438 725 1570.433594 725 1548 L 726 1548 C 729 1559 734.832031 1569.523438 739.226563 1580 C 741 1584.261719 742.214844 1590.210938 746 1593 C 746 1576.289063 749.398438 1560 748.984375 1543 C 748.617188 1528 745.320313 1512.035156 747 1497 C 752.710938 1506.785156 757.648438 1517.078125 763 1527 C 765.738281 1531.699219 767 1537.300781 772 1540 C 769.878906 1513.132813 760.566406 1485.632813 760 1459 L 761 1459 C 764.667969 1469 771.238281 1477.535156 775.917969 1487 C 778.890625 1493.015625 780.945313 1500.453125 786 1505 C 793 1481.035156 778.945313 1455 780 1431 C 784.953125 1439.394531 790.40625 1447.472656 795 1456 C 797.441406 1460.152344 798.9375 1465.339844 803 1468 C 802.996094 1440.441406 795 1413.332031 795 1386 L 796 1386 C 800.703125 1397.234375 807.195313 1407.808594 812 1419 C 814.242188 1423.761719 815.625 1431.003906 820 1434 C 820.222656 1407.359375 823 1380.738281 823 1354 C 836.171875 1360.796875 845.410156 1374.351563 860 1379 C 858.289063 1373.1875 854.386719 1368.527344 852 1363 C 866.308594 1370.484375 877 1385.109375 892 1393 L 893 1392 C 889.425781 1386.523438 885.832031 1381.359375 884 1375 C 898.527344 1385.230469 911.277344 1401.195313 930 1404 C 927.238281 1397.804688 922 1393.09375 919 1387 C 930 1394.3125 940.433594 1405.414063 954 1408 C 945 1360.101563 935.738281 1312.203125 923.421875 1265 C 918 1244.265625 908.324219 1223.769531 904 1203 L 902 1203 C 902 1208.261719 909 1222.375 905.308594 1226.355469 C 902.25 1229.558594 892.542969 1226 889 1224.796875 C 872.734375 1219.820313 857.394531 1210.5 845 1198.828125 C 818.332031 1173.601563 797.558594 1126.066406 809.222656 1089 C 813.199219 1076.355469 826.25 1069.289063 839 1069.582031 C 863.507813 1070.152344 887.433594 1077.632813 912 1076 C 918.460938 1075.457031 925.332031 1073.640625 931 1070.484375 C 933.964844 1069 937.691406 1064.128906 941 1064 C 944.898438 1063.582031 949.429688 1069 952 1071.171875 C 976.328125 1093.144531 985.1875 1123.3125 987.824219 1155 C 988.621094 1164.554688 981.542969 1179.574219 986.742188 1188 C 995.300781 1202 1009.382813 1214.273438 1019.738281 1227 C 1046.703125 1260.140625 1072.84375 1293.824219 1098.472656 1328 C 1111.480469 1345.34375 1127.363281 1363.550781 1137 1383 C 1090.324219 1336.320313 1050.976563 1283.058594 1008 1233 C 995.902344 1218.714844 984.859375 1203.542969 972 1189.746094 C 966.585938 1184 961.371094 1176.4375 954 1173 C 958.691406 1183.730469 970.53125 1192.683594 973.34375 1204 C 974.851563 1210.0625 969 1211.472656 967.1875 1216.175781 C 965.601563 1220.039063 968.726563 1225.542969 970.308594 1229 C 1008.390625 1312.226563 1055 1393.371094 1074.195313 1484 C 1081.910156 1520.683594 1086.90625 1559.453125 1085.984375 1597 C 1085.679688 1609.4375 1085.292969 1622.648438 1083.816406 1635 C 1082.945313 1642.261719 1079.5 1650.800781 1081 1658 L 1082 1658 C 1083.9375 1642.121094 1090.457031 1625.816406 1093.714844 1610 C 1099.972656 1579.617188 1102.929688 1546.015625 1099.828125 1515 C 1096 1478.011719 1079.613281 1446.21875 1070 1411 C 1095.671875 1421 1104.699219 1445.578125 1116.242188 1469 C 1134.761719 1506.574219 1147.972656 1548.808594 1155.386719 1590 C 1158.496094 1607.292969 1160.859375 1624.652344 1163.5625 1642 C 1164.445313 1647.6875 1163.359375 1653.453125 1165 1659 L 1166 1659 C 1166 1603.3125 1165.375 1551.222656 1146 1498 C 1135.375 1468.214844 1116.964844 1443 1105 1414 C 1109.613281 1415.296875 1114.246094 1416.386719 1119 1417 C 1115.933594 1411.257813 1109.8125 1408.027344 1107 1402 C 1116.28125 1404.671875 1130.296875 1408 1137.910156 1414 C 1151.554688 1424.613281 1161.597656 1445.332031 1170.449219 1460 C 1190 1492.585938 1208.703125 1525.371094 1224.625 1560 C 1229.929688 1571.53125 1234.234375 1583.183594 1238.8125 1595 C 1240.976563 1600.589844 1242.617188 1608 1247 1612 C 1237.484375 1561.515625 1219.699219 1513 1196.753906 1467 C 1186.203125 1446 1169 1426 1161 1404 C 1165.835938 1405.761719 1170.914063 1407.101563 1176 1406 C 1172.324219 1402.804688 1168 1401 1165 1397 C 1175.324219 1399.359375 1184.382813 1400.546875 1195 1400.074219 C 1196.316406 1400.015625 1204.695313 1400.757813 1204 1398.15625 C 1203.21875 1394.527344 1191.785156 1390.605469 1189 1387 C 1199.71875 1387.007813 1210.246094 1389.003906 1221 1389 C 1222.761719 1389 1230.792969 1390 1230.792969 1387 C 1230.792969 1384.03125 1221 1381 1219 1379 C 1231 1379.519531 1244 1381.507813 1256 1378 C 1253 1375.769531 1242.53125 1373.1875 1241.964844 1369.195313 C 1241.671875 1367.105469 1251.65625 1368 1253 1368 C 1265.8125 1368 1280 1366.011719 1292 1361 L 1292 1360 C 1284.226563 1359.601563 1274.871094 1356.207031 1270 1350 C 1277.796875 1350.335938 1285.183594 1350.648438 1293 1350.453125 C 1294.359375 1350.421875 1300.789063 1351.730469 1300.792969 1349.175781 C 1300.796875 1347.363281 1295.261719 1344.132813 1294 1343 C 1298.191406 1342.003906 1310.195313 1343.769531 1312.824219 1340.054688 C 1315.386719 1336.433594 1303.753906 1334.429688 1304.632813 1330.558594 C 1305 1328.621094 1309.527344 1328.652344 1311 1328.410156 C 1317 1327.414063 1322.804688 1326.015625 1329 1326 C 1326.933594 1321.566406 1323.4375 1318.4375 1320 1315 L 1344 1316 C 1341.84375 1310.558594 1337.308594 1306.746094 1334 1302 L 1360 1302 C 1357.308594 1296 1352.597656 1291.191406 1350 1285 C 1360.351563 1284.097656 1378.636719 1281.035156 1367 1269 C 1382 1266 1385.890625 1251.820313 1393.972656 1240 C 1396.527344 1236.261719 1398.609375 1231.4375 1403 1229.5625 C 1409.71875 1226.714844 1417.984375 1226.734375 1425 1224.632813 C 1445.539063 1218.46875 1465.601563 1211 1485 1201.703125 C 1573 1160.179688 1649.179688 1097.671875 1713 1025 C 1734 1001.15625 1753.386719 975.808594 1770.414063 949 C 1778.515625 936.242188 1787 921.613281 1782.839844 906 C 1774.949219 876.828125 1732.367188 866.640625 1708 855.695313 C 1655.890625 832.285156 1598.699219 819.8125 1543 808.601563 C 1510.386719 802.035156 1475.371094 793.6875 1442 793 C 1449.171875 784.65625 1466.796875 779.566406 1477 775.398438 C 1503.488281 764.570313 1530.328125 755.214844 1557 745 L 1557 744 C 1534.726563 744.644531 1509.984375 754.269531 1489 761.332031 C 1425.277344 782.777344 1367 818.542969 1308 850 C 1313.582031 842.277344 1322.601563 836 1330 830 C 1348 815.476563 1367.703125 802.480469 1388 791.304688 C 1395.925781 787 1403.996094 783 1412 778.746094 C 1413.550781 778 1418.792969 776.511719 1418.792969 774.269531 C 1418.792969 772.015625 1413.589844 770.738281 1412 770.203125 C 1407.5 768.695313 1390.175781 767 1388.207031 762.386719 C 1385 755.484375 1404.355469 755.425781 1405 752.625 C 1405.679688 750.292969 1399.410156 748.769531 1398 748.25 C 1390.207031 745.390625 1382.265625 743.652344 1374 743 C 1381 734 1390.945313 733.402344 1401 730 L 1401 729 C 1389.722656 723 1375.75 720.027344 1363 720 C 1366 715.015625 1370.679688 710.710938 1376 708.214844 C 1379.777344 706.441406 1383.652344 706.722656 1386 703 C 1374.769531 701.097656 1363.621094 696.34375 1352 698 C 1358 689.613281 1367.78125 685.089844 1378 685 C 1370.773438 673.777344 1349.558594 674.792969 1338 675 C 1341 669.460938 1346.40625 665.316406 1352 662.507813 C 1353.875 661.566406 1359.539063 660.355469 1360 658.003906 C 1360.746094 655.09375 1351.503906 656 1350 656 C 1338.960938 655.441406 1328 657 1317 657 L 1317 656 C 1328.171875 651.347656 1338.667969 646.53125 1351 646 C 1348.21875 642.296875 1343.285156 642.253906 1339 641.339844 C 1328.167969 639.023438 1317 637.476563 1306 637 C 1312.496094 630 1324.339844 623.496094 1334 623 C 1326.710938 612.554688 1299.648438 619.160156 1289 620 C 1296.886719 613.179688 1305.527344 610 1315 606 L 1315 605 C 1299.453125 600.277344 1283.828125 603 1268 603 C 1274.339844 595.21875 1283.8125 592 1293 589 L 1293 588 C 1277 582.601563 1260.265625 583.117188 1244 587 C 1251.21875 578.132813 1265.796875 576.433594 1272 568 C 1256.96875 568 1243.738281 570.53125 1229 572 C 1234.226563 567 1243 564 1247 558 C 1244.25 558 1225 558.085938 1224.632813 556.480469 C 1224 554.191406 1229.246094 550.480469 1230.574219 549 C 1236.652344 542.140625 1243.472656 536.355469 1250 530 C 1268.253906 512.179688 1286 494 1303.171875 475 C 1311 466.328125 1320.242188 458.59375 1327 449 C 1311 456.09375 1296.5 471.773438 1283 482.738281 C 1255 505.382813 1227.839844 528.082031 1201.996094 553.039063 C 1186.378906 568.121094 1165.492188 591.074219 1145 599 C 1158.765625 585.234375 1172.707031 571.6875 1186.828125 558.300781 C 1192.171875 553.238281 1201.828125 548.035156 1205.429688 541.785156 C 1209.964844 534 1211.953125 522.660156 1214.832031 514 C 1221.328125 494.449219 1227.507813 475.078125 1232.234375 455 C 1246.734375 393.421875 1262 327.558594 1262 264 C 1262 257.375 1261.5625 250.578125 1262.425781 244 C 1264.617188 227.285156 1262.773438 209.730469 1262 193 C 1261.492188 180.527344 1260.859375 165.625 1253.351563 155 C 1244.664063 142.710938 1228.953125 140.476563 1215 142.289063 C 1181.542969 146.636719 1149.632813 161.25 1119 174.574219 C 1040.78125 208.601563 965.472656 257.265625 902 314.164063 C 877 336.542969 854.183594 360.6875 832.28125 386 C 822.964844 396.769531 814.671875 414.40625 802.910156 422.398438 C 798.585938 425.335938 791 424.695313 786 425.613281 C 774.488281 427.703125 763.316406 431.296875 752 434 L 752 435 C 759.589844 436.828125 767.421875 437.039063 775 439 L 775 440 C 759.96875 443.578125 743.527344 441.023438 729 447 C 733.679688 450 741.539063 449 747 449 L 747 451 C 733.988281 451.269531 721.523438 457 709 457 L 709 458 C 715.273438 459.492188 721.691406 459.367188 728 461 C 722.636719 463.582031 716.765625 463 711 464.003906 C 699.695313 466.289063 688.59375 469.441406 678 474 L 678 475 C 685.714844 477 696.828125 475 705 475 L 705 476 C 685.789063 479 664.554688 489.339844 647 497.460938 C 640.535156 500.453125 630.949219 505 627 511 C 636 510.28125 644.941406 508 654 510 C 641.355469 517.820313 625.648438 521.292969 612 527.148438 C 606.671875 529.4375 599.332031 531.050781 596 536 C 602 534.808594 607.714844 533.019531 614 533 L 614 535 C 604.382813 536 589.417969 544.28125 585 553 C 591.929688 551.398438 596.839844 550.097656 604 551 C 594.21875 561 575.550781 563 568 575 C 572.988281 574.03125 577.90625 572.472656 583 573 L 560 592 L 560 593 C 567.332031 591.472656 573.390625 590 581 590 L 581 591 C 571.847656 595 555.539063 603 551 612 L 560 611 C 554.34375 618 544.628906 620.710938 539 628 C 544.382813 627.574219 549.578125 627 555 627 C 551.550781 631.265625 537.859375 637.105469 536.921875 642 C 536.226563 645.453125 547.53125 643.832031 545.792969 647.464844 C 542.402344 654.535156 528.542969 656 524 664 C 530.304688 664 536 663.8125 542 666 L 542 667 C 534.535156 670.265625 524.695313 677.09375 522 685 L 536 684 C 531.621094 690.214844 525.238281 694.464844 523 702 C 533.226563 705 519.636719 711.304688 519.636719 716.773438 C 519.636719 720.71875 526.8125 719.0625 525.882813 723.148438 C 524.742188 728.160156 515.941406 732.246094 518.746094 738 C 522.230469 745.144531 531.453125 750.4375 536.960938 756 C 551.28125 770.421875 566.660156 784.800781 579 801 C 566 793.800781 554.730469 783.1875 543 774.234375 C 540.664063 772.453125 532.824219 764.804688 529.691406 766.332031 C 527.875 767.21875 528.457031 775.128906 528.628906 777 C 529 781 533.628906 781.523438 534.269531 785.109375 C 534.890625 788.566406 525.710938 807.335938 522.941406 806.292969 C 503.992188 799.179688 515.480469 774.515625 511.683594 760.039063 C 509.890625 753.214844 495.933594 744.464844 490 741 L 490 740 L 493 741 C 494.554688 729.441406 483.78125 722.363281 479 713 C 488.199219 713.300781 495 722.109375 502 727.550781 C 503.679688 729 508.554688 733.625 510.972656 732 C 513.269531 730.140625 512 722.515625 512 720 L 512 584 C 512 567.308594 510.296875 549.574219 512.285156 533 C 513.90625 519.492188 529.585938 514.304688 539 505.828125 C 555.609375 491 568 473.019531 577.742188 453 C 607.214844 392.078125 598.609375 314.382813 559.570313 260 C 550.808594 247.796875 539.914063 238 528.570313 228.117188 C 524 224.234375 516 221.046875 513.179688 215.816406 C 508.832031 208.175781 512 191.671875 512 183 C 512 154.664063 513 126.257813 513 98 C 513 92.371094 515.652344 75.714844 510.53125 72.027344 C 507 69.503906 499 71 495 71 C 491.863281 71 486.40625 70 483.601563 71.601563 C 481.179688 73.019531 482 77.675781 482 80 L 482 176 C 482 182.242188 484.777344 197.554688 480.566406 202.496094 C 477.648438 206 459.597656 200.828125 455 200.285156 C 437 198.171875 416.683594 202.347656 401 211.171875 C 387 219 375.851563 232 370.539063 247 C 368.546875 252.632813 369.265625 259.636719 366.566406 265 C 363.917969 270.058594 356.375 272.734375 352 276.3125 C 344.53125 282.425781 338.582031 290.378906 334.269531 299 C 327.476563 312.585938 325.167969 329.179688 328.75 344 C 330 349.695313 335.863281 357.441406 335.621094 363 C 335.378906 368.617188 329.847656 375.394531 328.203125 381 C 323.683594 396.4375 324.699219 414.703125 332.324219 429 C 335.976563 436 341.183594 442.460938 347 447.570313 C 350.46875 450.597656 356.644531 453.261719 358.972656 457.214844 C 362.492188 463.1875 361.355469 474.054688 363.949219 481 C 371 500.097656 387.71875 516.214844 406 524.625 C 421.789063 532 438.589844 536 456 536 C 460.558594 536.019531 477.792969 533.019531 480.820313 536 C 483.214844 538.21875 482 545 482 548 L 482 709 M 492 292 C 478.722656 287.769531 466.4375 279.042969 453 274.382813 C 433.761719 267.710938 414.195313 266 394 266 C 398.523438 259.828125 410.871094 258.027344 418 256.691406 C 441.253906 252.320313 464.578125 259.492188 480.910156 277 C 484.925781 281.300781 490.429688 286.230469 492 292 M 935 326 C 918.351563 366 902.1875 405 900 449 C 899.453125 461.089844 897.582031 473.0625 895.425781 485 C 894.910156 488 894.777344 495.148438 891.765625 496.652344 C 889.269531 498 887.84375 488.445313 887.472656 487 C 884.523438 475.535156 881.246094 464 881 452 L 879 452 C 878.207031 469.375 863.519531 492.660156 850 503 C 852 455 876.328125 403.269531 902.671875 364 C 910 353.058594 922.378906 330.660156 935 326 M 1217 327 C 1214.90625 351.011719 1203 376.28125 1193.304688 398 C 1169.527344 450.75 1135.726563 498 1099.800781 543 C 1087.539063 558.390625 1074.917969 573.082031 1061 587 C 1054.832031 593.167969 1048.484375 601.140625 1040 604 C 1055.519531 576.753906 1072.382813 551.203125 1076 519 C 1077 509.5625 1079.238281 495.492188 1072 488 L 1072 495 L 1071 495 C 1065.492188 485.175781 1063.667969 473.011719 1055 465 C 1056 489.097656 1051.484375 509.828125 1039 531 C 1035 538 1030.324219 547.289063 1023 551 C 1026.324219 525.265625 1034 491.613281 1022 467 C 1018.6875 481 1018.464844 492.539063 1009.945313 505 C 1008.886719 506.550781 1003.539063 516 1000.941406 513.824219 C 998.886719 512.128906 1000.898438 506.140625 1001.246094 504 C 1002.675781 495.15625 1002 486 1002 477 C 1002 449.765625 1009.691406 424.480469 1015.339844 398 C 1018.617188 382.621094 1019.273438 366 1024 351 C 1033.585938 366.257813 1034.734375 393.367188 1036.828125 411 C 1037.644531 418 1037.253906 426.703125 1040 433 C 1048.410156 407.144531 1057.535156 382.292969 1060 355 C 1060.875 346.390625 1063 337.542969 1061 329 C 1067.285156 333 1068.441406 347.105469 1069.738281 354 C 1074 377.285156 1072.601563 402.234375 1079 425 C 1095.558594 396 1098 365.46875 1098 333 L 1099 333 C 1107.492188 355.015625 1115.246094 378.277344 1116.910156 402 C 1117.425781 409.34375 1118.425781 416.660156 1118.910156 424 C 1119 425.753906 1118 430.519531 1119.609375 431.792969 C 1120.871094 433 1122 428.5625 1122.277344 428 C 1124 422.382813 1126 416.730469 1127.472656 411 C 1133.328125 388.078125 1129.488281 366 1129 343 C 1135.429688 347.730469 1137.488281 361.523438 1139 369 C 1144 392.488281 1149.480469 423.773438 1141 447 C 1149.511719 442.332031 1156.871094 427.097656 1162.328125 419 C 1175.917969 399 1188.515625 378.089844 1200.578125 357 C 1205.894531 347.703125 1209.402344 334.519531 1217 327 M 495 379 C 467.847656 372.214844 443.332031 362.003906 415 359.171875 C 400 357.683594 385.699219 361 371 361 C 396.367188 333.320313 448.671875 337.371094 476 358.574219 C 482.988281 364 492 370.347656 495 379 M 955 376 C 954.738281 407.769531 961.6875 445.398438 951.492188 476 C 948.359375 485.410156 943.324219 500.265625 934 505 C 934 472 933.605469 442.304688 942.265625 410 C 945 399.261719 948.230469 385 955 376 M 987 392 C 987.304688 428.714844 1000.253906 461 982.371094 496 C 978.96875 502.675781 976 510.285156 970 515 C 970 497.335938 965.882813 479.550781 967 462 C 968 448.296875 972.914063 434.179688 976.574219 421 C 978.726563 413.261719 980.195313 396.746094 987 392 M 505 438 C 501 444.539063 491.824219 449.273438 485 452.445313 C 462.984375 462.675781 440.453125 461.007813 417 460 L 417 458 C 429.65625 455.820313 441.347656 448.371094 454 445.453125 C 470.851563 441.566406 488 441.1875 505 438 M 811 599.285156 C 821.210938 598.066406 830.964844 599.632813 841 600.828125 C 932.488281 611.75 977.953125 717.742188 937.742188 796 C 916.570313 837.203125 876.640625 859.375 832 864.714844 C 733.441406 876.503906 657.777344 768 694.863281 679 C 714.96875 630.765625 761.292969 605.230469 811 599.285156 M 800 637.429688 C 751.242188 644.429688 713 683.234375 707.183594 732 C 700 791.710938 755.171875 839.816406 813 832.714844 C 857.300781 827.273438 895.328125 795.652344 906.984375 752 C 918.996094 707.007813 895.550781 647.425781 845 639.296875 C 830.503906 637 814.746094 635.3125 800 637.429688 M 840 658.324219 C 875 652.464844 887.6875 706.8125 852 713.53125 C 815.925781 720.324219 802.644531 664.5625 840 658.324219 M 942 1057 C 943.90625 1024.300781 904.886719 1001.277344 887.429688 977 C 878.820313 965.027344 872.972656 948.113281 861.910156 938.328125 C 854 931.46875 842.242188 932.769531 834 938.25 C 822.910156 945.628906 819.828125 957.777344 817.539063 970 C 812.742188 995.613281 820.691406 1027.382813 807.472656 1051 C 796.859375 1070 774.632813 1065.792969 757 1060.164063 C 716.410156 1047.207031 688.449219 1025.792969 670 987 C 674.660156 985.660156 678.394531 987 683 988 C 671.183594 977.367188 655 970.808594 641 963.753906 C 618.636719 952.570313 596.269531 941.355469 574 930 L 574 929 C 593.929688 930 618.683594 941.539063 637 949.285156 C 643.457031 952.015625 652.949219 958.527344 659.855469 959 C 666 959.414063 663.246094 942.335938 667.726563 939.042969 C 672 936 680.769531 942.683594 685 944 C 677.527344 933.613281 664 926.4375 654 918.769531 C 631.671875 902 609 885.546875 587 868.210938 C 577.546875 860.769531 561.511719 853 556 842 C 583.828125 856.65625 611 872.148438 638 888.398438 C 648.550781 894.765625 660.3125 907.023438 671.957031 910.710938 C 677.773438 912.554688 682.578125 898.429688 688 896.285156 C 694 894 702 903.246094 707 906 C 693.433594 886.738281 673.945313 870.53125 658.171875 853 C 632 824.082031 607.847656 793.375 583.550781 763 C 570.511719 746.703125 551 728.261719 543 709 C 557 715.546875 569.171875 733.035156 580 744 C 611.933594 776.3125 639.460938 812.398438 669.925781 846 C 679 856.128906 689.710938 875.738281 702 881.820313 C 706.554688 884.0625 719.601563 877.0625 725 876 C 739.957031 872.625 758.914063 873 774 875.324219 C 794.171875 878.589844 817.703125 883.246094 834 896.46875 C 840.425781 901.683594 845.605469 908 849.933594 915 C 851.628906 917.742188 853.503906 924.222656 856.789063 925.363281 C 861.691406 927.066406 873.273438 923 879 923 C 897.382813 923 914.695313 926.640625 930 937.4375 C 958.894531 957.824219 966 995.59375 957 1028 C 954.488281 1037 950.695313 1052.492188 942 1057 M 486 737 L 485 738 L 486 737 M 489 739 L 488 740 L 489 739 M 580 801 L 579 802 L 580 801 M 318 814 L 319 815 L 318 814 M 1304 889 C 1311 880.269531 1322.648438 874.421875 1332 868.34375 C 1363.699219 847.75 1399.242188 836 1436 828.375 C 1447.941406 826 1459.882813 824.617188 1472 823.246094 C 1473.75 823.050781 1483.792969 820.652344 1483.792969 824.011719 C 1483.792969 826.34375 1475.738281 827.609375 1474 828.078125 C 1463 831.042969 1451.804688 833.335938 1441 837 C 1413 846 1385 854.789063 1358 866.226563 C 1341.242188 873.3125 1321.789063 885.828125 1304 889 M 1490 824 C 1487.90625 823.59375 1487.980469 823.78125 1487 822 C 1488.578125 822.683594 1488.777344 822.804688 1490 824 M 514 862 L 513 862 C 510.355469 853.050781 511.335938 834.007813 514 825 C 517.425781 826.832031 523 829.253906 524.597656 833.175781 C 525.726563 836.207031 523 839.453125 521.785156 842 C 518.464844 848.433594 516.570313 855.285156 514 862 M 1595 930 C 1559.789063 925.453125 1525.59375 916.527344 1490 914.089844 C 1444.414063 911 1398.558594 914 1353 915 C 1355.617188 911 1362 910.378906 1366.574219 909 C 1379.777344 904.761719 1393.332031 901.566406 1407 899.410156 C 1455 891.816406 1502.476563 898.523438 1549 912 C 1559.890625 915 1570.359375 919.015625 1581 923 C 1585.535156 924.5 1591.988281 926.136719 1595 930 M 1595 997 C 1554.589844 989.136719 1512 971.296875 1470 976 L 1470 977 C 1496.296875 987.128906 1520.796875 997.484375 1544 1014 C 1550.753906 1018.808594 1562 1023.550781 1566 1031 C 1529.722656 1017 1493.484375 1010 1455 1005 C 1460.859375 1011.410156 1473.214844 1014.039063 1481 1018.167969 C 1499 1027.753906 1515.496094 1040.199219 1534 1049 L 1534 1050 C 1508.601563 1049.476563 1483.386719 1040.761719 1458 1039.023438 C 1451.664063 1038.59375 1445.246094 1037.511719 1439 1036.339844 C 1438 1036.164063 1433 1034.753906 1433.632813 1037.171875 C 1434.710938 1042 1446 1046 1450 1048.140625 C 1460 1054.03125 1469.808594 1060.574219 1480 1066.347656 C 1484.878906 1069.109375 1491.730469 1071.339844 1495 1076 C 1474.476563 1072.132813 1451.894531 1067.429688 1431 1067 C 1439.832031 1075.449219 1449.847656 1080.535156 1460 1087 L 1460 1088 C 1433 1084.050781 1396.394531 1064 1384 1039 C 1396.839844 1041.75 1408 1050.773438 1421 1053 C 1404.863281 1034.464844 1382.410156 1020.035156 1368 1000 C 1392.367188 1002.125 1413 1012.386719 1436 1019 C 1426 1002 1408 986.628906 1392 975.4375 C 1385.765625 971.089844 1376.964844 968.6875 1372 963 C 1398.234375 963 1424.476563 971 1447 984 C 1437.433594 961.253906 1414.519531 943.222656 1393 933 C 1406.628906 927.28125 1431 934.449219 1445 937.195313 C 1485.769531 945.191406 1523.214844 956.007813 1560 976 C 1570.605469 981.660156 1587.183594 988 1595 997 M 1126 969.285156 C 1142.828125 967.292969 1159.753906 969.503906 1176 973.625 C 1290.8125 1002.742188 1303.460938 1172.390625 1200 1224.246094 C 1187.742188 1230.390625 1173.761719 1236.164063 1160 1237.710938 C 1136 1240.40625 1111.703125 1238.65625 1089 1230 C 1018.824219 1203 984.289063 1114.652344 1016 1047 C 1036.90625 1002.816406 1078 975 1126 969.285156 M 1126 1003.425781 C 1086.269531 1008.640625 1048.484375 1029 1031.3125 1067 C 999.605469 1137.285156 1056.582031 1214.222656 1133 1204.714844 C 1182.972656 1198.496094 1222.269531 1157.585938 1228.710938 1108 C 1236.585938 1047.359375 1187.628906 995.332031 1126 1003.425781 M 1162 1028.300781 C 1199 1022.816406 1209.6875 1078.804688 1172 1083.710938 C 1137.609375 1088.1875 1126 1033.609375 1162 1028.300781 M 732 1150 C 732 1146.285156 735 1130.148438 731.398438 1128.484375 C 727.367188 1126.695313 720.578125 1132.628906 717 1134 C 717 1130 721.269531 1113.660156 718.214844 1111.117188 C 714.953125 1108.402344 706.273438 1115.425781 704.289063 1112.265625 C 701.675781 1108.101563 710.199219 1099.550781 709 1095.074219 C 708.210938 1091.199219 701.425781 1097.269531 699.628906 1094.34375 C 697 1090.167969 702 1085.132813 702.183594 1081.148438 C 702.320313 1076.28125 696.753906 1076.617188 699.96875 1070.058594 C 702.558594 1064.785156 707.488281 1066.457031 712 1068.050781 C 722.636719 1071.804688 733 1076.242188 744 1079.117188 C 753.921875 1081.722656 763.90625 1083.769531 774 1085.535156 C 777.183594 1086.09375 782.777344 1085 785.382813 1087.027344 C 788.859375 1090 787 1102.789063 787 1107 C 787 1124.644531 787.300781 1142 792 1159 C 793.238281 1162.824219 799 1175.71875 795.96875 1179 C 790.890625 1184.140625 772.339844 1174.132813 768 1171 C 764.285156 1168.183594 761.203125 1160.800781 757 1159.207031 C 753.78125 1158 753 1166 749.40625 1163.824219 C 744.679688 1161.277344 746.175781 1145.238281 740.8125 1145.039063 C 738.253906 1145 734.527344 1149 732 1150 M 1593 1094 C 1589.632813 1100.589844 1581.195313 1105 1575 1108.601563 C 1560.636719 1117.222656 1546.285156 1126 1531 1133 C 1491.28125 1150.828125 1446.710938 1164.03125 1403 1166 C 1375 1167.195313 1347.746094 1162 1320 1162 L 1320 1161 C 1344.652344 1158 1369.84375 1161.816406 1394 1154 C 1399.894531 1152.09375 1407.238281 1152.160156 1412 1148 C 1388.417969 1148 1361.738281 1148.722656 1339 1142 C 1345.726563 1139.175781 1354.773438 1141.519531 1362 1140.828125 C 1381.957031 1139 1402 1137.300781 1422 1134.710938 C 1481.40625 1127 1536.441406 1113.253906 1593 1094 M 933 1198 C 934.980469 1205 943.945313 1214.824219 942.867188 1222 C 941.800781 1229 929.613281 1225.03125 928.421875 1231.226563 C 927.5625 1235.703125 930.953125 1242.757813 932.328125 1247 C 935.417969 1256.515625 937.746094 1266.324219 940.269531 1276 C 947.773438 1304.785156 955.34375 1333.738281 960.832031 1363 C 963.273438 1376.015625 963.953125 1397.675781 971 1409 C 973.234375 1412.113281 977.753906 1412.519531 981 1414.195313 C 990.351563 1419.011719 999.589844 1424.765625 1010 1427 C 1005.96875 1420.023438 999.503906 1415 997 1407 C 1011.214844 1417.210938 1027 1428.585938 1045 1431 C 1042 1424.253906 1034.972656 1420 1032.449219 1413.0625 C 1030.6875 1408.289063 1038.65625 1411 1037.195313 1405 C 1033.6875 1390.558594 1024.695313 1376.605469 1018.851563 1363 C 1003.898438 1328.195313 987.679688 1294.046875 971 1260 C 963.464844 1244.292969 955.695313 1228.546875 946 1214 C 942.34375 1208.515625 939 1201.070313 933 1198 M 1138 1383 L 1137 1384 L 1138 1383 M 1235 1388 C 1236.578125 1387.316406 1236.777344 1387.195313 1238 1386 C 1235.90625 1386.40625 1235.980469 1386.21875 1235 1388 M 491 1641 C 482.738281 1639.574219 475.273438 1635 467 1633.121094 C 439.664063 1627.359375 412.972656 1628 386 1635 C 389.917969 1627.460938 403.238281 1623.265625 411 1620.808594 C 437.851563 1612.316406 473.261719 1616 491 1641 M 502 1722 C 464.644531 1713.359375 427.804688 1711 390 1720 C 394.984375 1713.253906 403.515625 1709.175781 411 1705.703125 C 439.949219 1692.285156 480.78125 1695.6875 502 1722 M 516 1777 C 511.769531 1784 500 1786.703125 493 1790 C 471.203125 1799.492188 446.695313 1807.003906 423 1810 C 440.835938 1780.539063 485.644531 1777 516 1777 "/></g></svg>