<?xml version="1.0" encoding="UTF-8"?>
<svg xmlns="http://www.w3.org/2000/svg" xmlns:xlink="http://www.w3.org/1999/xlink" width="2000pt" height="2000pt" viewBox="0 0 2000 2000" version="1.1">
<g id="surface1">
<path style=" stroke:none;fill-rule:nonzero;fill:rgb(0%,0%,0%);fill-opacity:1;" d="M 1846 1357 C 1843 1351.796875 1836.320313 1350.128906 1831 1348 C 1817.917969 1342.765625 1803.886719 1338.421875 1790 1336 C 1759.347656 1330.386719 1727.269531 1326 1696 1328.089844 C 1673.851563 1329.605469 1651 1335.816406 1629 1336 C 1660 1305.230469 1692.628906 1277.742188 1720.855469 1244 C 1809.730469 1137.757813 1872.566406 1011.007813 1890.710938 873 C 1917.457031 669.585938 1822 452.683594 1639 352.476563 C 1600.59375 331.457031 1559.582031 317.136719 1517 307.5 C 1474.804688 298 1430.964844 296.007813 1388 300.171875 C 1298 309 1202.425781 351 1145.667969 423 C 1083.566406 501.785156 1066 621.152344 1128.871094 705 C 1140.535156 720.574219 1154.3125 735.234375 1171 745.539063 C 1230.679688 782.386719 1318.171875 781.1875 1365 723 C 1387.976563 694.449219 1401 656.808594 1396 620 C 1394.765625 611 1392.652344 591.484375 1384.5 585.753906 C 1382 584.003906 1380.636719 587.222656 1379.707031 589.019531 C 1376.371094 595.476563 1372.707031 601 1367 605.53125 C 1351.769531 618 1332 620.640625 1314 613.773438 C 1285 603 1273.28125 568.664063 1284.453125 541 C 1305.640625 488.535156 1369.394531 470 1421 470 C 1540.953125 470 1641.421875 558.683594 1691.742188 662 C 1764.351563 811.070313 1744 984 1666.691406 1127 C 1649.988281 1158 1630.871094 1187.523438 1608.996094 1215 C 1597.75 1229.128906 1580.621094 1242.578125 1571.644531 1258 C 1568 1264.039063 1575.921875 1277.027344 1578.191406 1283 C 1586.402344 1304.597656 1593 1327.335938 1597.601563 1350 C 1598.675781 1355.367188 1598.808594 1373.824219 1603.597656 1376.800781 C 1607.347656 1379.132813 1617.929688 1375.042969 1622 1374.121094 C 1637.84375 1370.527344 1653.925781 1368.566406 1670 1366.425781 C 1727.683594 1358.734375 1787.832031 1352.410156 1846 1357 M 509 1445 C 506.28125 1426.519531 502.699219 1409.828125 505.429688 1391 C 511.546875 1348.78125 537.835938 1308.289063 577 1290 C 600.992188 1278.617188 626.875 1276 653 1276 L 653 1277 C 630.191406 1285.515625 607.699219 1294.5625 591.613281 1314 C 553.839844 1359.664063 549 1426 585.675781 1474 C 631.375 1534 723.621094 1532.621094 770.386719 1475 C 782.988281 1459.472656 789.285156 1442.125 794 1423 L 795 1423 C 799.238281 1434.371094 801.980469 1446.832031 802 1459 C 802 1470 801.988281 1480.570313 798.484375 1491 C 778.238281 1551.210938 703.84375 1565 649 1558.828125 C 632.25 1557 615.214844 1550.277344 600 1543.339844 C 596.566406 1541.769531 586.34375 1534.050781 582.644531 1536.242188 C 580 1537.789063 582 1551 582 1554 C 582 1572.367188 575.925781 1586.765625 571 1604 L 891 1604 C 895.308594 1604 909.960938 1606.324219 912.929688 1603 C 916.496094 1599 906.53125 1587.597656 903.960938 1585.089844 C 894.265625 1575.644531 865.734375 1566.515625 878 1548.015625 C 884.230469 1539 895.730469 1535.65625 906 1534 C 930.261719 1529.820313 970.542969 1526 991.910156 1541.105469 C 994.183594 1542.726563 996 1544.792969 997.816406 1547.015625 C 1012.539063 1566.484375 985.886719 1573.78125 975 1583.210938 C 972.402344 1585.460938 959.578125 1600.316406 965.359375 1603.398438 C 970 1606 979.78125 1604 985 1604 L 1269 1604 C 1272.675781 1604 1285.414063 1606 1287.867188 1603 C 1290.246094 1600.035156 1283.792969 1589.171875 1282.695313 1586 C 1277.519531 1571.019531 1277.773438 1555.515625 1279 1540 C 1265.957031 1543.726563 1254.246094 1551.113281 1241 1554.71875 C 1204.339844 1564.691406 1165.800781 1562.617188 1131 1547 C 1092 1529.355469 1068.941406 1492.648438 1074.871094 1450 C 1076.183594 1440.535156 1077 1430 1083 1422 C 1086.347656 1440.011719 1092.265625 1456.003906 1103 1471 C 1113 1484.789063 1125.691406 1497.042969 1141 1504.753906 C 1180.878906 1525 1229.480469 1524.226563 1267 1498.226563 C 1321.578125 1460.402344 1332.574219 1379.179688 1294.574219 1326 C 1282.578125 1309.214844 1266.609375 1295.40625 1248 1286.359375 C 1239.929688 1282.4375 1230.882813 1281.152344 1223 1277 C 1238 1273.417969 1257.214844 1277 1272 1280.527344 C 1329.761719 1295 1367 1342.339844 1371 1401 C 1372 1414.574219 1371.816406 1429.085938 1367 1442 C 1373.21875 1440.308594 1378.257813 1435.230469 1384 1432.257813 C 1395.230469 1426.449219 1406.8125 1421.816406 1419 1418.425781 C 1460 1407 1505.417969 1412.382813 1542 1434.449219 C 1554 1441.785156 1563 1452.230469 1574 1461 C 1577.609375 1448.789063 1574.589844 1433.527344 1574 1421 C 1572 1376.671875 1562.25 1332.558594 1546.574219 1291 C 1542 1279 1537 1266.78125 1531.691406 1255 C 1529.230469 1249.644531 1524.960938 1244 1524.226563 1238 C 1522.804688 1226.441406 1532.96875 1211 1536.28125 1200 C 1545 1170.648438 1552.902344 1141.148438 1558.539063 1111 C 1572.847656 1034.507813 1571.671875 953.066406 1555.511719 877 C 1550 851.527344 1543.183594 826.421875 1534 802 C 1531.769531 796 1527.769531 780.199219 1521.609375 777.136719 C 1516.996094 775 1509.28125 783.257813 1506 785.765625 C 1491.886719 796.539063 1476.875 806 1462 815.65625 C 1415 846.167969 1363.363281 874.160156 1312 896.574219 C 1295.839844 903.628906 1279.988281 911.402344 1264 919 C 1259.582031 921 1248.546875 924.15625 1246.175781 928.582031 C 1244.871094 931.019531 1248.394531 932.464844 1250 933.292969 C 1256.335938 936.507813 1262.757813 939.316406 1269 942.691406 C 1289 953.539063 1308 965 1327 977.671875 C 1331.828125 981 1341.695313 991.617188 1347.828125 991 C 1352.445313 990.484375 1359.246094 982.652344 1363 980 C 1374.878906 971.128906 1387 963.324219 1400 956.308594 C 1435.925781 937 1480.1875 923.332031 1521 920 L 1521 921 C 1502.535156 929.632813 1486.363281 943.21875 1468 952.398438 C 1447.246094 962.773438 1424.550781 968.488281 1403 976.8125 C 1392.261719 981 1381.652344 985.25 1371 989.601563 C 1366.941406 991.261719 1360.183594 993.355469 1357.753906 997.285156 C 1355.273438 1001.289063 1368.683594 1010.417969 1372 1011.792969 C 1376.679688 1013.730469 1381.234375 1009.488281 1385 1007.203125 C 1395.335938 1001 1406 995 1417 989.78125 C 1453.824219 972.386719 1493.535156 963.195313 1534 960 C 1507 983 1473.1875 996.382813 1443 1014 L 1443 1015 C 1456.382813 1012.230469 1469.3125 1007.5625 1483 1006.171875 C 1502 1004.234375 1521 1005.441406 1540 1004 C 1535.484375 1008.757813 1527.847656 1010.820313 1522 1013.753906 C 1507.296875 1021.121094 1492.421875 1027.464844 1477 1033.1875 C 1470.558594 1035.582031 1456.738281 1036.164063 1453 1042 C 1480.648438 1042 1511.914063 1040.546875 1539 1047 C 1511.820313 1062.46875 1485.417969 1066.253906 1455 1066 C 1458.277344 1070.363281 1466.960938 1072 1472 1074 C 1487.976563 1080.445313 1507.644531 1089.242188 1525 1090 C 1519.714844 1095.015625 1509.984375 1095.417969 1503 1096.164063 C 1484.421875 1098.15625 1470.914063 1095.183594 1453 1092 C 1456 1097 1462.1875 1099.589844 1467 1102.691406 C 1478.542969 1110.125 1495 1117.5625 1504 1128 C 1490.40625 1125.476563 1479 1123.746094 1466 1119 C 1476.722656 1139.695313 1493.402344 1159.101563 1500 1182 C 1481.839844 1160.707031 1465.171875 1138.417969 1445.90625 1118 C 1405.609375 1075.238281 1358.953125 1035.539063 1309 1004.425781 C 1101.992188 875.488281 822.894531 869.359375 606 977.808594 C 531.269531 1015.175781 465.5625 1069 408 1129 C 392.519531 1145.230469 379.453125 1163.804688 364 1180 C 372.542969 1158.011719 388.628906 1140.027344 398 1119 C 385 1124.519531 371.289063 1128.597656 357 1127 L 357 1126 C 367 1122.285156 375.847656 1114.757813 385 1109.203125 C 392.808594 1104.464844 403 1100 409 1093 C 390.355469 1097 375 1098.214844 356 1096.050781 C 349.4375 1095.304688 339.6875 1095 335 1090 C 358.765625 1088 382 1074.238281 405 1068 L 405 1067 C 390.996094 1067 377.789063 1067.550781 364 1064.105469 C 348.871094 1060.324219 335.59375 1053 321 1048 L 321 1047 C 347.710938 1040.089844 378.558594 1042 406 1042 C 401.910156 1036.1875 386.757813 1035 380 1032.667969 C 364.808594 1027.601563 350 1020.726563 336 1013.296875 C 330.617188 1010.472656 324.304688 1008.351563 320 1004 C 335 1004 350.929688 1002.710938 366 1004.171875 C 381 1005.621094 394.535156 1010.574219 409 1014 C 404.949219 1006.609375 393 1001.664063 386 997.398438 C 367.742188 986.449219 340.660156 975.527344 327 959 C 351.378906 965.007813 376.667969 964.539063 401 972.34375 C 431.722656 982.195313 457.753906 1000 487 1012.578125 C 491.71875 1014.613281 510.484375 1003.734375 508.652344 998.402344 C 507.625 995.402344 500.613281 993.550781 498 992.246094 C 486.976563 986.753906 475.496094 982.558594 464 978.191406 C 422.316406 962.355469 376 950.632813 342 920 C 385.546875 926 426.902344 936.796875 466 957.253906 C 478.492188 963.789063 490.53125 971.675781 502 980 C 506.621094 983.160156 511.992188 990.054688 517.285156 992 C 522 993.503906 533.894531 982.132813 538 979.34375 C 557.578125 966.046875 577.816406 953.347656 599 942.753906 C 604.988281 939.757813 610.980469 936.769531 616.996094 933.832031 C 618.46875 933.113281 622.601563 931.632813 621.652344 929.285156 C 620 925.554688 610.441406 922.757813 607 921.164063 C 593 914.695313 578.78125 908.644531 565 901.753906 C 509.652344 874.078125 455.6875 845.5 402 814.71875 C 386.652344 806 372 796.050781 358 785.472656 C 354.960938 783.203125 346.746094 775 342.636719 777.136719 C 336.699219 780.367188 332.410156 796 330 802 C 320 826.796875 312.671875 852.761719 307.738281 879 C 292.5625 959.746094 293.183594 1043.253906 308.261719 1124 C 313.238281 1150.664063 320 1177.460938 329.21875 1203 C 332.617188 1212.460938 342.390625 1229.019531 339.914063 1239 C 335.386719 1257.277344 323.1875 1275.113281 316.695313 1293 C 303.808594 1328.503906 296.414063 1365.503906 292.828125 1403 C 291.511719 1416.808594 291.996094 1430.222656 292 1444 C 292 1447.140625 290.574219 1456 292.988281 1458.339844 C 295 1460.507813 305 1449.546875 307 1448 C 321.167969 1436.09375 336.496094 1427 354 1421.003906 C 390.195313 1408.671875 430.289063 1409.828125 466 1423.425781 C 481 1429.160156 494.300781 1439.347656 509 1445 M 449 920 C 434.773438 914.480469 421 907.378906 407 901.601563 C 393 896 377.945313 891.554688 365 884 C 370.878906 882 380.226563 886.8125 386 888.65625 C 402.660156 894 418.855469 899.648438 434 908.601563 C 439.320313 911.75 445.976563 914.394531 449 920 M 1498 884 L 1498 885 C 1481.546875 894.566406 1461.597656 899.527344 1444 906.8125 C 1434 911 1423.542969 918.121094 1413 920 C 1417.890625 914.25 1425.5625 910.632813 1432 906.800781 C 1451.222656 895.359375 1475.789063 887 1498 884 M 821 1543 C 822.832031 1534.234375 826.386719 1526 827.699219 1517 C 839.871094 1434.429688 820.871094 1340.214844 751 1288 C 736.511719 1277.046875 719.929688 1268.28125 703 1262 C 684.222656 1255 664 1250 644 1249.039063 C 621.398438 1248.050781 598.648438 1249.570313 577 1256.503906 C 538.648438 1268.789063 505.546875 1290 464 1290 C 469.550781 1286 478.414063 1285.476563 485 1283.328125 C 498 1279.09375 510.582031 1273.617188 523 1268 C 551.324219 1255 578.664063 1239.730469 609 1231.734375 C 662.972656 1217.507813 723.753906 1229.039063 769 1261.746094 C 836.824219 1310.773438 861.75 1390.632813 848 1471 C 845 1488.542969 839.445313 1505.53125 832.800781 1522 C 829.953125 1529.050781 826.921875 1538.058594 821 1543 M 1409 1289 L 1409 1290 C 1354.269531 1290 1310.992188 1252.785156 1257 1249.089844 C 1184.765625 1244.144531 1113.363281 1280.621094 1076.453125 1343 C 1061.589844 1368.121094 1053 1397.214844 1049.289063 1426 C 1045.816406 1451.761719 1044.664063 1479.117188 1047.171875 1505 C 1048.273438 1516.398438 1055.363281 1531.132813 1054 1542 C 1041 1524.164063 1035 1498.175781 1030.347656 1477 C 1009.664063 1385.082031 1049.347656 1285.363281 1137 1244.121094 C 1159.640625 1233.464844 1184 1227.792969 1209 1226.089844 C 1245.179688 1223.613281 1279.664063 1234.507813 1312 1249.78125 C 1343 1264.5 1374.3125 1284 1409 1289 M 727 1313.324219 C 763.453125 1307.378906 773 1364.292969 736 1370.53125 C 699.464844 1376.683594 689.90625 1319.375 727 1313.324219 M 1146 1313.324219 C 1163.402344 1312 1177.605469 1330.605469 1174.53125 1347 C 1171.917969 1361 1159.914063 1370.074219 1146 1370.789063 C 1124.945313 1372 1111.734375 1348.007813 1119.902344 1330 C 1124.691406 1319.441406 1134.792969 1314.195313 1146 1313.324219 M 163 1328.425781 C 150.792969 1330 138.265625 1329 126 1330.171875 C 122.863281 1330.472656 115 1330.597656 113.199219 1333.589844 C 111.617188 1336.148438 113 1342.042969 113 1345 C 113 1348.632813 111.398438 1357.433594 114.601563 1360 C 117 1362 122 1361 125 1361 C 133.3125 1361 141.6875 1361.675781 150 1362.039063 C 176.773438 1363.210938 203.535156 1367.1875 230 1371.273438 C 238 1372.53125 252.804688 1379.191406 260.683594 1377 C 263.710938 1376.097656 263.375 1370.484375 263.730469 1368 C 264.710938 1361.132813 269.746094 1348.003906 261.980469 1344.46875 C 240.59375 1334.730469 216 1332.023438 193 1329.828125 C 183.53125 1329 172.421875 1327.234375 163 1328.425781 M 1263 1340.324219 C 1295.304688 1335 1306.765625 1386.023438 1274 1390.789063 C 1265.292969 1392.058594 1255.71875 1391.058594 1249 1384.8125 C 1233.496094 1370.105469 1242 1343.828125 1263 1340.324219 M 1837 1492 C 1826.917969 1479.792969 1807.863281 1472.089844 1794 1465 C 1753 1444 1710.523438 1432.609375 1666 1423.117188 C 1651.433594 1420.011719 1635.867188 1419.347656 1621 1419 C 1617.285156 1419 1608.75 1416 1606.601563 1420.316406 C 1603.660156 1426.296875 1605.984375 1438.386719 1606 1445 C 1606 1447.214844 1605.375 1451.023438 1607.601563 1452.410156 C 1612.714844 1455.59375 1623 1454.570313 1629 1455.167969 C 1641.964844 1456.484375 1655.285156 1459.050781 1668 1462 C 1723.476563 1474.242188 1779.679688 1492 1837 1492 M 241 1419.425781 C 198.960938 1425 155.734375 1428.140625 116 1445.621094 C 109.75 1448.4375 112.996094 1466.785156 113 1473 C 113 1475.347656 112 1481 115.316406 1481.496094 C 124.484375 1483.101563 140 1476.046875 149 1473.730469 C 173.648438 1467.386719 198.78125 1461 224 1457.285156 C 232.621094 1456.0625 241.308594 1454.617188 250 1454.023438 C 252.953125 1453.824219 258.9375 1454.160156 261.226563 1452 C 265.183594 1448.199219 261 1433.144531 261.464844 1428 C 261.675781 1425.519531 262.726563 1422 260.398438 1420.027344 C 256.65625 1417.058594 245.464844 1419 241 1419.425781 M 304 1503 C 338.554688 1513.238281 357.375 1563.113281 362.714844 1595 C 365.957031 1614.355469 368.898438 1640.664063 384 1654.789063 C 406.628906 1675.738281 436 1655 446.996094 1633 C 468 1590.375 465 1542.074219 453 1498 C 481.863281 1528.246094 489.289063 1582.515625 475 1621 C 470 1634.390625 462 1644.535156 454 1656 C 465.8125 1657.054688 480.394531 1651.082031 491 1646.304688 C 542.976563 1623 567.796875 1555.144531 539.6875 1504 C 531.800781 1489.648438 517.859375 1477.457031 502 1473 C 494.570313 1470.78125 486 1471.480469 479 1468.65625 C 468.824219 1464.644531 460.6875 1456.433594 450 1452.695313 C 415.730469 1440.703125 373.554688 1443.832031 342 1462 C 333.285156 1467 325.238281 1473.105469 318 1480.039063 C 314.289063 1483.589844 310.972656 1489.382813 306.675781 1492.089844 C 300.785156 1495.796875 288.921875 1494.617188 282 1496.234375 C 264.59375 1500.300781 249.90625 1510 240 1525 C 218.53125 1558.003906 227 1604.34375 255 1631 C 270.925781 1645.804688 292.613281 1654 314 1656.164063 C 324.964844 1657.339844 335.96875 1657 347 1657 C 350 1657 356.632813 1658.230469 359.339844 1656.398438 C 362 1654.527344 356.761719 1649.425781 355.585938 1648 C 348.6875 1639.640625 342.484375 1630.800781 337.777344 1621 C 330.21875 1605.261719 325.820313 1588.347656 324.171875 1571 C 322.519531 1553.65625 327 1535.066406 318 1519 C 314.585938 1512.671875 309 1508 304 1503 M 1408 1657 C 1402.210938 1644.578125 1391.253906 1635.445313 1386.230469 1622 C 1374.820313 1591.46875 1377.496094 1557.75 1389.8125 1528 C 1394 1517.738281 1399.585938 1505.472656 1408 1498 C 1391.382813 1538.515625 1394 1592.5625 1413.753906 1632 C 1425 1654.765625 1450 1675.1875 1474.996094 1656.441406 C 1494.273438 1642 1495.179688 1612.445313 1500.472656 1591 C 1509.171875 1555.757813 1525 1520.789063 1558 1502 C 1551.914063 1510.636719 1544.738281 1516.433594 1541.570313 1527 C 1535.246094 1548.082031 1540.578125 1572.210938 1535 1594 C 1528.894531 1618.722656 1514.546875 1636 1500 1656 C 1561 1669 1634 1636 1634 1567 C 1633.984375 1556.46875 1632 1545.605469 1627.691406 1536 C 1618.699219 1516.363281 1603.621094 1503.308594 1583 1497.039063 C 1575.9375 1495 1566.421875 1495.429688 1560 1492 C 1551.191406 1487.242188 1544.304688 1476.132813 1536 1470.015625 C 1516.175781 1455.414063 1493.328125 1448.484375 1469 1446.171875 C 1449.242188 1444.289063 1427 1448 1409 1456.179688 C 1401.949219 1459.394531 1396 1466 1389 1468.492188 C 1382.558594 1471 1373.890625 1470 1367 1471.5 C 1348.214844 1475.8125 1332.277344 1487.484375 1322.453125 1504 C 1284.546875 1567.722656 1335.386719 1654 1408 1657 M 1242 1447.433594 C 1255.6875 1443.667969 1264 1464.738281 1249.960938 1469.347656 C 1235 1474.230469 1226.460938 1451.710938 1242 1447.433594 M 1618 1477 L 1618 1478 C 1628.796875 1484.367188 1638 1492.105469 1645.789063 1502 C 1649.972656 1507.3125 1653.367188 1516.429688 1659 1520.0625 C 1664 1523.253906 1671.40625 1523.597656 1677 1525.589844 C 1691.46875 1530.738281 1705.679688 1536.523438 1720 1542.0625 C 1780.25 1565.359375 1835.867188 1583 1901 1583 C 1897.640625 1577.445313 1888.648438 1575.550781 1883 1572.753906 C 1866.550781 1564.605469 1849.683594 1557.199219 1833 1549.539063 C 1782.914063 1526.542969 1732.472656 1503.242188 1679 1489.117188 C 1659.25 1484 1638.523438 1478 1618 1477 M 113 1557 C 133.945313 1549.378906 154 1539 175 1530.8125 C 183.558594 1527.507813 197.195313 1526.09375 204.503906 1521 C 212 1515.386719 217.371094 1501.214844 224 1494 C 229.171875 1488.542969 238.34375 1484.0625 242 1478 C 209.589844 1479.390625 174.300781 1492 144 1502.78125 C 136.367188 1505.527344 118.792969 1508.578125 114 1515.5 C 111.910156 1518.574219 113 1524.453125 113 1528 L 113 1557 M 453 1497 L 452 1498 L 453 1497 M 1753 1604 C 1738.675781 1583.480469 1710.925781 1568 1689 1556.757813 C 1684.316406 1554.375 1670.890625 1545 1665.617188 1546.816406 C 1663 1547.703125 1664.964844 1557 1665.171875 1559 C 1666.242188 1570.09375 1665.300781 1581.085938 1662.765625 1592 C 1662.195313 1594.445313 1658.789063 1601.601563 1661.644531 1603.398438 C 1666.820313 1606.65625 1680.910156 1604 1687 1604 L 1753 1604 M 113 1604 L 176 1604 C 181.871094 1604 195.355469 1606.546875 200.355469 1603.398438 C 203 1601.671875 200 1595.289063 199.425781 1593 C 196.390625 1582.089844 195.734375 1571.273438 196 1560 C 196 1557.734375 198.871094 1548.804688 196.355469 1547.734375 C 191.65625 1545.726563 178 1555.234375 174 1557.578125 C 157.414063 1567.066406 140 1577 126 1590 C 121.523438 1594.164063 115.703125 1598.457031 113 1604 "/>
</g>
</svg>
