<svg xmlns="http://www.w3.org/2000/svg" xmlns:xlink="http://www.w3.org/1999/xlink" viewBox="0 0 100 100" version="1.1"><g transform="translate(1, 2.6383640338199257) scale(0.054111881837319256) translate(-85.9375, -127)"><path style=" stroke:none;fill-rule:nonzero;fill:rgb(0%,0%,0%);fill-opacity:1;" d="M 1718 165 C 1724 152.101563 1735.328125 141.726563 1741 129 C 1712.257813 138.804688 1694.773438 164.503906 1670 180 C 1672.675781 167 1680.359375 156.371094 1684 144 C 1658.519531 154.773438 1646 186.40625 1626 204 C 1624.695313 194.570313 1631.4375 185.191406 1633 176 C 1617.648438 188.386719 1605 207 1591 221 C 1554 258 1517 294.289063 1483.273438 334 C 1460.253906 361 1439.933594 391 1416 417 C 1414.730469 392.796875 1422.925781 369 1434.308594 348 C 1438.679688 340 1446 332.648438 1449 324 C 1417 342.210938 1387.460938 379 1372.308594 412 C 1359.804688 439.308594 1358.339844 471.632813 1327 485 C 1327.914063 463.71875 1333.195313 440.453125 1339 420 C 1325.511719 424 1315.695313 449.808594 1308.5625 461 C 1306.25 464.632813 1300.386719 475 1295.433594 475 C 1292 475 1293 467.023438 1292.828125 465 C 1291.828125 454.523438 1292.199219 444.417969 1293.921875 434 C 1298.804688 404.433594 1312 377 1328.34375 352 C 1335.4375 341.132813 1346.628906 330.574219 1352 319 C 1343.96875 320.554688 1335.777344 327.175781 1329 331.667969 C 1310.640625 344 1294.546875 358.453125 1279 374 C 1234.335938 418.664063 1194.644531 479.601563 1184.4375 543 C 1179.882813 571.292969 1181.78125 598.664063 1183 627 L 1182 627 C 1179.808594 616.464844 1174.699219 606.554688 1172.234375 596 C 1168.933594 582 1169 567.445313 1169 553 C 1164 556.414063 1163 570.148438 1161.804688 576 C 1156.933594 599.148438 1156.597656 629 1166 651 C 1160.589844 647.015625 1157.960938 640.046875 1152 637 C 1148.800781 662.328125 1154.175781 688.667969 1155.910156 714 C 1158.609375 753.402344 1155.28125 795 1141 832 L 1140 832 C 1140 810.191406 1141.542969 788.804688 1138.710938 767 C 1132.371094 718.214844 1115.5625 671.472656 1107.433594 623 C 1101.898438 590 1102 557.375 1102 524 C 1096.492188 527.757813 1094 538 1091.601563 544 C 1083.183594 565.042969 1081 584.59375 1082 607 L 1081 607 C 1075.96875 596.226563 1068.71875 586.574219 1063.257813 576 C 1049.578125 549.492188 1041 521 1043.925781 491 C 1044.917969 480.335938 1045.988281 460.75 1054 453 C 1054 478.234375 1057.402344 503.476563 1067 527 L 1068 527 C 1065.914063 478.449219 1073.585938 431.714844 1096 388 C 1101.710938 377 1108 366.101563 1115.292969 356 C 1119.792969 349.75 1125.984375 344.117188 1129 337 C 1106 344.277344 1084.175781 368.40625 1069 386 C 1029.523438 431.761719 1007.207031 484.359375 1009.960938 545 C 1010.828125 564.09375 1013.84375 585.5625 1022 603 C 1008.503906 593.066406 999.273438 575.410156 993.519531 560 C 980.589844 525.367188 981 494.117188 984 458 C 978.449219 461 975.183594 468.625 972 474 C 963.472656 489.410156 959 505.582031 953 522 L 952 522 C 947.242188 504.1875 941.363281 487.625 940 469 C 937.769531 435.128906 947.882813 406.65625 957 375 C 945 381.539063 937.550781 405 932.796875 417 C 913.730469 465.683594 916.546875 521 928 571 C 913.839844 557 908.476563 529.425781 902.332031 511 C 889 471.359375 877.773438 431.691406 851.882813 398 C 842.75 386.121094 829 366.203125 814 362 C 831.894531 400.285156 842.855469 436 839.910156 479 C 834.292969 561.015625 795.53125 638.226563 822 721 L 821 721 C 807.234375 692 799 668.613281 799 636 L 797 636 C 795.183594 646.195313 789.523438 655.632813 787.449219 666 C 783.710938 684.695313 788 701.152344 793 719 C 761 696.074219 744.859375 653.4375 727.21875 620 C 702.910156 574 674.175781 532.707031 632 501.128906 C 619.523438 491.785156 605.761719 481.371094 591 476 C 593.964844 486.105469 607.265625 495.238281 613.429688 504 C 629.960938 527.492188 638.949219 558.828125 630 587 L 629 587 C 622.78125 568 610.859375 549.75 598.652344 534 C 593.617188 527.511719 587.695313 519.328125 580 516 C 586.625 533.605469 591 546.832031 591 566 C 583 560.003906 578 550.566406 571.75 543 C 557.644531 526 543.675781 508.675781 528 493 C 520.621094 485.621094 511.363281 473.824219 501 471 C 510.988281 491.085938 526.496094 510.449219 527 534 C 510.480469 524.589844 496.546875 510.632813 481 499.722656 C 453 480.179688 424.359375 462.605469 395 445.449219 C 341 414 282.277344 392.6875 231 357 C 231.996094 362.148438 235.421875 366.050781 237 371 C 220.230469 364.019531 206 349.304688 189 344 C 193 352.175781 200.832031 358 205 366 C 183.917969 361.476563 171.5625 346.5 153 338 C 154.316406 344.609375 159.515625 349.402344 163 355 C 145 350.242188 126.457031 346.332031 108 344 C 110.472656 352.351563 124 357 131 361.316406 C 152 374.359375 172.945313 386.71875 191 404 C 176.585938 401.550781 162.285156 395.175781 148 391.628906 C 142.429688 390.242188 135.609375 387.628906 130 389 L 130 390 C 145 401.210938 161 410.300781 177 420.433594 C 185.953125 426.164063 194.203125 433.773438 204 438 L 204 439 C 183.375 438.828125 165.449219 424.167969 145 424 C 147.941406 429.222656 154.929688 432.375 160 435.394531 C 171 442 181.933594 448.226563 192.171875 456.027344 C 194.726563 458 205.945313 463.664063 205.945313 467.058594 C 205.945313 470.433594 197.480469 467.757813 196 467.359375 C 187.429688 465.046875 179 461.164063 171 457.363281 C 169.664063 456.726563 163.671875 452.738281 162.445313 454.726563 C 160.832031 457.347656 172.195313 469 173.996094 471 C 188 487 205.917969 502.195313 226 510 C 212.285156 516.601563 194 506.363281 181 502 C 183.78125 511.480469 199.28125 520.023438 207 525.765625 C 208.945313 527.210938 215.71875 529.824219 216.367188 532.179688 C 217 534.75 207.230469 533.0625 206 533 C 194.265625 532.117188 184.957031 526.15625 174 523 C 179.941406 535.476563 198.433594 544.230469 211 548.328125 C 215 549.660156 228.808594 550.449219 230.792969 554.574219 C 232.214844 557.523438 220.945313 561.648438 219 562.539063 C 207.675781 567.726563 195.667969 572 184 576.386719 C 182 577.109375 173.207031 578.472656 173.207031 581.179688 C 173.207031 584 187.730469 584.6875 190 585 C 207.953125 587.460938 225.902344 586.40625 243 593 L 243 594 C 225.804688 600 208.304688 611.175781 190 613 C 193 617.371094 199.207031 615.71875 204 616.285156 C 216.234375 617.730469 228.855469 615.546875 241 617.4375 C 243.941406 618 250 618 252.363281 620 C 255.398438 622.457031 239.949219 629.285156 238 630.242188 C 222.171875 638.019531 205.277344 640.800781 188 643 C 197.632813 653.128906 223.878906 653 237 653 C 241.519531 653.003906 252.734375 652.046875 256.363281 655 C 259.304688 657.25 250 659.042969 251.347656 662 C 253.652344 667.246094 270.945313 668.511719 270.945313 675 C 270.945313 678.691406 254.929688 680.167969 252 681.035156 C 231.429688 687.136719 209.746094 697.550781 188 698 C 191.171875 703 200.535156 703.378906 206 704.574219 C 220.175781 707.683594 234.734375 708 249 710.574219 C 253.601563 711.40625 261.722656 711.804688 265.363281 715.03125 C 267.40625 717 263 718.320313 261.992188 719 C 256.457031 721.363281 250.765625 723.414063 245 725.332031 C 222.417969 733 199.769531 737 176 737 C 180 744.09375 193.585938 745 201 746.652344 C 231.925781 753.597656 257.605469 742.25 286 730.800781 C 370.46875 696.738281 463.726563 676.246094 555 686.164063 C 584.875 689.410156 613.925781 697.796875 641 710.777344 C 648.222656 714.242188 655 718.277344 662 722.421875 C 663.546875 723.355469 667 726.265625 668.972656 725 C 671 723.285156 669.933594 717.273438 670 715 C 671 700 666.988281 697.640625 654 690.011719 C 621.277344 670.789063 585.984375 657.515625 549 649.121094 C 515.839844 641.589844 479.945313 638 446 638 C 396.328125 638 343.773438 636 295 648 C 301.621094 643 310.289063 641.480469 318 638.574219 C 342.679688 629.269531 368.855469 624 395 621 C 491.78125 609.257813 587.816406 627.539063 669 683 C 671 673.574219 668 662.632813 668 653 C 667.976563 638.332031 670.738281 624.457031 672 610 L 673 610 C 678.554688 680.359375 719.488281 733.023438 776 772 C 789.570313 781.328125 803.421875 790 818 797.703125 C 824.925781 801.359375 834.46875 803.460938 840 809 C 818.335938 807.289063 794 800.007813 775 789.691406 C 766 785 758 777.082031 749 773 C 753.195313 795 772.644531 819.605469 788 835 C 743.347656 818.753906 716 776 694 737 L 693 737 C 690.277344 746.214844 692.546875 756.597656 692.960938 766 C 694.46875 800.363281 705.710938 834.351563 732 857.824219 C 739.730469 864.730469 748.769531 870.5625 758 875.242188 C 763 878 769.707031 879.214844 774 883 C 719.6875 883 679.78125 843.769531 670.464844 792 C 667.929688 778 668.34375 764.128906 668.960938 750 C 669.179688 745 670.394531 737.742188 665.851563 734.429688 C 633.613281 711 584.546875 707 546 707 C 464.21875 707 384.53125 716.265625 307 744.050781 C 279.929688 753.75 253 765.175781 230 782.527344 C 220.824219 789.40625 209.796875 797.234375 205 808 C 213.667969 805.132813 221.214844 799.03125 230 796 C 253.449219 787.394531 277.199219 784 302 784 C 296 790.464844 285.519531 794.046875 283 803 C 294.328125 800.640625 304.183594 798 316 798 C 303.425781 812.828125 280.417969 820.546875 264 830.449219 C 229.5625 851.222656 193.816406 880.554688 183 921 C 193.554688 919 205.308594 907.265625 215 902 C 235.527344 890.414063 258.589844 880.441406 282 877 C 267.347656 891.347656 249.523438 902 234 915.300781 C 217.554688 929.402344 202.722656 946.648438 191.230469 965 C 185.578125 974.019531 181.386719 984 178.179688 994 C 177.703125 995.503906 174.726563 1003.421875 177.433594 1004.078125 C 179.703125 1004.628906 182.820313 999.371094 184 998 C 189.457031 991.667969 195.71875 985.796875 202 980.285156 C 220.488281 964.070313 242.242188 950.238281 265 941 C 271 938.363281 283.28125 932.222656 289.890625 934 C 293.917969 935 294.492188 940.578125 294.828125 944 C 295.785156 953.652344 292.613281 964.292969 288.6875 973 C 284.898438 981.40625 280.296875 989.5625 274.84375 997 C 266.289063 1008.671875 254.214844 1017.335938 246 1029 C 306.652344 1009.230469 339.339844 947.554688 385 907.285156 C 397.597656 896.175781 410 884.265625 424 875 C 430.695313 870.40625 443.1875 866.105469 447 859 C 424.925781 859.003906 406 865.359375 385 869 L 385 868 C 403.984375 858.320313 419.746094 846.097656 441 840.746094 C 443.488281 840.117188 459.792969 838.523438 459.792969 835.804688 C 459.792969 833.421875 451.597656 833.199219 450 833.089844 C 439.921875 832.398438 429.851563 833.796875 420 835.800781 C 381.761719 843.574219 338.738281 862.335938 307 885 C 326.703125 857.027344 362.421875 836.011719 392 820 C 464.632813 780.679688 555.179688 738.203125 638 772 L 638 773 C 628.304688 772.800781 618.734375 770.613281 609 771.039063 C 580.839844 772.273438 552.523438 778.242188 526 787.78125 C 512.378906 792.683594 493.835938 800.03125 485 812 C 500.765625 810.429688 515.863281 804.746094 532 804.039063 C 553.761719 803.085938 572 808.675781 593 813 L 593 814 C 558 820.488281 526.71875 823.300781 496 843.667969 C 488.820313 848.429688 475 854.726563 472 863 C 496.582031 853 524.621094 850 551 850 L 551 851 C 529.257813 856.03125 508 869 488 878.449219 C 430.691406 905.484375 378 939.734375 339.628906 991 C 330 1003.667969 319.175781 1017.296875 313 1032 C 327 1027.511719 340.976563 1016.457031 354 1009.304688 C 373.300781 998.707031 394.269531 990.453125 413 979 C 400.714844 996.441406 380.929688 1010.777344 364 1023.472656 C 316.175781 1059.34375 251.566406 1098.113281 189 1085.484375 C 174 1082.488281 159.847656 1076 148 1066.550781 C 140.980469 1061 135 1051.75 127 1048 C 148 1098.664063 193.710938 1126 247 1126 C 227.597656 1147.242188 191.363281 1138 168 1133 C 171.308594 1143.058594 190.804688 1151.179688 200 1155.128906 C 235.710938 1170.464844 274.703125 1172.003906 311 1158 C 302.949219 1169.429688 291 1178.429688 281 1188.039063 C 256 1211.816406 225.351563 1244 188 1244 C 192.425781 1250.339844 208.824219 1250 216 1250 C 242.195313 1250.011719 272.507813 1246.511719 296 1234 C 288 1245.164063 274 1252.59375 262 1258.363281 C 225.539063 1275.714844 180 1277.550781 143 1261.136719 C 125.25 1253.289063 113.253906 1239.253906 97 1230 C 100.832031 1246.304688 120.175781 1263.738281 133 1273.371094 C 179.957031 1308.648438 234.585938 1310 289 1295 C 277.371094 1308.308594 259 1315.675781 243 1321.808594 C 190 1342 133.308594 1338.164063 86 1307 C 85.9375 1315.453125 93.726563 1324.542969 98.652344 1331 C 113.398438 1350.3125 131.601563 1365.570313 153 1376.832031 C 192.503906 1397.628906 236.417969 1393.238281 279 1389.171875 C 325.621094 1384.714844 374.28125 1380.097656 421 1386 L 421 1387 C 402.621094 1387.011719 384.332031 1390.15625 366 1391 C 333.703125 1392.378906 301.6875 1397.664063 270 1404 C 217.234375 1414.550781 151.585938 1428.515625 123.3125 1480 C 116.339844 1492.691406 113.386719 1507 111 1521 C 118 1519 123.21875 1510.40625 129 1506 C 141.90625 1495.792969 156.167969 1487 171 1480 C 232.375 1451 302.511719 1434.53125 370 1430 C 389.835938 1428.550781 413.40625 1424.335938 433 1429 L 433 1430 C 372.195313 1431.253906 310.871094 1446.078125 254 1467 C 238.476563 1472.644531 223.535156 1480 210 1489.425781 C 204.957031 1493 198.847656 1496.378906 196 1502 C 213.527344 1495.238281 231.726563 1494.40625 250 1491 C 245.386719 1496.566406 238 1499.210938 232 1502.8125 C 222.375 1508.453125 213 1514.800781 204 1521.203125 C 167.773438 1546.601563 132 1587 132 1634 C 136.347656 1631.550781 138.425781 1626.609375 142 1623.171875 C 151.195313 1614.460938 162.285156 1606 174 1601 C 158.5625 1620.359375 138.664063 1642.015625 133 1667 C 138.757813 1664.316406 142.882813 1659.039063 148 1655.289063 C 155 1650.121094 162.867188 1646.070313 170 1641 C 166.660156 1652.597656 160.308594 1663.167969 157 1675 C 146.988281 1713.128906 147.984375 1752.402344 163 1789 C 143.566406 1789 118.660156 1786.484375 100 1792 C 107.167969 1797.109375 124.882813 1794.140625 130 1800.726563 C 131.882813 1803.015625 124.359375 1806.089844 123 1806.824219 C 114.886719 1811.203125 105 1815.648438 96 1817 C 100.359375 1823.054688 116.226563 1819 123 1819 C 147.914063 1819 176.667969 1815.207031 201 1821 C 190.28125 1830.136719 175.179688 1840 161 1842 L 161 1844 C 194.300781 1844 227.867188 1841 261 1837.828125 C 278.875 1836.128906 300.285156 1830.78125 318 1835 C 307 1841.40625 295.71875 1844.578125 284 1849 L 284 1850 C 310.953125 1858.191406 340.546875 1850.820313 368 1854.425781 C 374.65625 1855.300781 381.339844 1854.808594 388 1855.71875 C 389.316406 1856 393.945313 1855.832031 393.945313 1858 C 393.945313 1861.175781 385.363281 1864 383 1864.796875 C 370.898438 1869.605469 358.210938 1872 346 1876 L 346 1877 C 377 1877 408 1877.507813 439 1873.714844 C 445.992188 1873 452.992188 1872 460 1871.164063 C 461.839844 1871 466.589844 1871.308594 467 1868.738281 C 467.539063 1866.328125 463.511719 1864.003906 461.996094 1862.789063 C 456.238281 1858.1875 450.289063 1854.089844 446 1848 C 474.710938 1845.734375 499 1854.277344 527 1860.425781 C 538 1863 554.800781 1867.828125 566 1865 C 556.757813 1852.554688 539.21875 1849.21875 531 1835 C 550.210938 1836.515625 569.820313 1842 589 1842 L 589 1841 C 585.972656 1839 570.699219 1831.523438 571.632813 1827.398438 C 572.363281 1824.152344 586.507813 1826.238281 589 1826.574219 C 607.304688 1829.066406 625.707031 1830.6875 644 1833 C 640.207031 1825.035156 630.628906 1820 625 1813 C 644 1809.261719 666.5 1816 686 1816 C 689.605469 1816 703.5625 1818.136719 705.824219 1815.296875 C 707.476563 1813.226563 702 1811 700.996094 1810.296875 C 695 1807.066406 689 1804 684 1799.386719 C 682.480469 1798 679.414063 1795.269531 682.296875 1793.5625 C 686.199219 1791.253906 692.664063 1792 697 1792 C 708.375 1792 719.6875 1791.753906 731 1792.828125 C 753.917969 1795.011719 777.972656 1793 801 1793 C 812.832031 1793 827.640625 1795.359375 839 1792 C 832.242188 1787.1875 820 1786.382813 812 1785 C 796.339844 1782.089844 780 1778.824219 765 1773.796875 C 760.214844 1772.203125 743.832031 1767.777344 742.632813 1762.128906 C 741.90625 1758.71875 762.335938 1759 765 1759 L 841 1759 C 948.617188 1759 1056.3125 1758 1164 1758 C 1155.324219 1769.238281 1138.980469 1772.722656 1126 1776.421875 C 1094 1785.535156 1059.6875 1786.546875 1028 1796 L 1028 1797 C 1082.671875 1797.453125 1137.351563 1795 1192 1795 C 1204.902344 1795 1218 1794.148438 1231 1795.089844 C 1233 1795.242188 1243.1875 1796.195313 1241.792969 1799.816406 C 1239.550781 1805.628906 1224.328125 1808.300781 1219 1810 C 1203.457031 1814.371094 1187.699219 1818.183594 1172 1822.128906 C 1165.636719 1823.726563 1156.351563 1824.324219 1151 1828 C 1162.640625 1831.441406 1177.875 1829 1190 1829 L 1299 1829 C 1301.605469 1829 1307.328125 1828 1309.363281 1830.027344 C 1312.652344 1833.324219 1302 1840 1300 1841.183594 C 1287.285156 1849.128906 1273 1853.472656 1259 1858 L 1259 1859 C 1300.941406 1859 1341.804688 1851.089844 1383 1844.082031 C 1394.441406 1842.136719 1420 1835.390625 1429.703125 1844.636719 C 1433.585938 1848.347656 1426.816406 1851 1424 1851.703125 C 1413.515625 1854.832031 1401.878906 1859 1391 1860 L 1391 1862 C 1420 1862 1449 1865.09375 1478 1867.089844 C 1491.617188 1868.027344 1507.515625 1871.632813 1521 1869 L 1521 1868 C 1510.714844 1864.496094 1498.21875 1859.035156 1493 1849 C 1518.921875 1848.023438 1544.195313 1854 1570 1854 C 1566.558594 1850 1549.527344 1841 1551.542969 1834.601563 C 1552.269531 1832.300781 1557.242188 1833 1559 1833 C 1566.570313 1833.023438 1574.53125 1834 1582 1835.078125 C 1614.695313 1840.429688 1646.894531 1843 1680 1843 L 1680 1842 C 1669 1836.738281 1654.710938 1835.328125 1643 1832 C 1639.871094 1831 1631.496094 1828.777344 1630.632813 1825 C 1630 1822.742188 1635.734375 1822.601563 1637 1822.425781 C 1644.398438 1821.402344 1652.527344 1821.011719 1660 1821 C 1693.25 1821 1726.753906 1819.09375 1760 1819 L 1760 1817 C 1748.742188 1815.546875 1737.957031 1812.507813 1727 1809.746094 C 1725.519531 1809.371094 1715.671875 1808.292969 1717.207031 1805.339844 C 1718.308594 1803.21875 1722.980469 1803.019531 1725 1802.523438 C 1732.558594 1800.667969 1740.269531 1799.660156 1748 1799 C 1778.9375 1795.523438 1810 1795.523438 1841 1792.050781 C 1849.414063 1791.105469 1871 1791.59375 1876 1784 C 1855.570313 1784 1834.398438 1778.21875 1814 1776.167969 C 1809.195313 1775.6875 1796.277344 1776.730469 1792.980469 1772.695313 C 1791 1770.394531 1794.386719 1764.40625 1795 1762 C 1798 1752.394531 1800.222656 1742.027344 1800.910156 1732 C 1803.175781 1699 1790.457031 1672 1782 1641 C 1798.390625 1654.007813 1812 1666.351563 1825 1683 C 1826.585938 1685.035156 1834.214844 1698.695313 1836.59375 1698.078125 C 1838.503906 1697.582031 1837.277344 1693.226563 1837.167969 1692 C 1836.660156 1686.3125 1836.375 1680.671875 1835.574219 1675 C 1831.800781 1648.203125 1820.34375 1627.6875 1811 1603 C 1823.28125 1606.613281 1836.289063 1616.558594 1844.714844 1626.003906 C 1849.675781 1631.5625 1854.496094 1640.441406 1861 1644 C 1859.378906 1606.257813 1840.304688 1569.574219 1816.566406 1541 C 1805.875 1528.132813 1791.585938 1517.609375 1782 1504 C 1814.949219 1505.414063 1843.671875 1517.429688 1875 1526 C 1870.835938 1517.070313 1860.554688 1510.433594 1853 1504.398438 C 1831.359375 1487.113281 1806.714844 1473.109375 1782 1460.753906 C 1699.976563 1419.742188 1611 1399.1875 1520 1393 C 1498.753906 1391.445313 1477.335938 1388.058594 1456 1388 L 1456 1387 C 1482.820313 1381.800781 1513.824219 1384.039063 1541 1386 C 1610.730469 1390.710938 1680.421875 1407.007813 1746 1431.054688 C 1776.265625 1442.152344 1805.402344 1456.144531 1836 1466.332031 C 1849.933594 1471 1866.238281 1476.695313 1881 1477 C 1875.824219 1466 1863 1455.722656 1854 1447.714844 C 1836.210938 1432.023438 1818.429688 1417.28125 1798 1405 C 1731 1364.765625 1655 1342.421875 1578 1332.289063 C 1557.191406 1329.554688 1535.960938 1327.527344 1515 1327.015625 C 1502 1326.699219 1487.632813 1329.007813 1475 1326 L 1475 1325 C 1498.804688 1323.121094 1522 1317.089844 1546 1316.039063 C 1606.929688 1313.371094 1669 1323.746094 1726 1345.613281 C 1749.738281 1354.730469 1773.335938 1365.007813 1795 1378.425781 C 1807.171875 1386 1818.800781 1399 1832 1404 C 1826.335938 1370.558594 1807.824219 1348.113281 1788 1322 C 1808.894531 1323 1830.445313 1329.148438 1850 1336.179688 C 1857.753906 1339 1867.96875 1347.488281 1876 1347 C 1851.941406 1301.277344 1809.65625 1267.371094 1760 1253 L 1760 1252 C 1793.972656 1252 1829.386719 1254.0625 1863 1248.414063 C 1872.261719 1247 1891.503906 1244.320313 1897 1236 C 1877.554688 1237.535156 1859.589844 1238.074219 1841 1230.546875 C 1815.378906 1220.171875 1795.382813 1199.625 1770 1189 C 1776.847656 1185.707031 1785.53125 1186.707031 1793 1185.386719 C 1805.214844 1183.222656 1817 1179 1828 1173.214844 C 1873.699219 1149.410156 1890.996094 1092.511719 1891 1044 L 1890 1044 C 1884 1057.535156 1880.253906 1071.171875 1870.6875 1083 C 1864.605469 1090.523438 1858 1097.179688 1850 1102.652344 C 1807.269531 1132 1750.828125 1104.074219 1706 1094.511719 C 1688.269531 1090.726563 1669.996094 1088.4375 1652 1086.285156 C 1643.992188 1085.328125 1635.570313 1086.195313 1628 1083 C 1670.726563 1072.710938 1715.445313 1073.617188 1758 1061.707031 C 1767.667969 1059 1777.417969 1056.488281 1787 1053.503906 C 1791 1052.226563 1795.621094 1051.773438 1798 1048 C 1773.972656 1047 1749.609375 1040 1726 1035.460938 C 1682 1027.253906 1637.683594 1020.371094 1593 1020 L 1593 1019 C 1625.710938 1009.785156 1660 1005.550781 1694 1007.039063 C 1730.644531 1008.644531 1766.207031 1013.828125 1803 1012.039063 C 1822.796875 1011.074219 1844.226563 1006.140625 1862 997.191406 C 1868 994.136719 1876.714844 990.09375 1880 984 C 1860.714844 985.683594 1842.714844 990.261719 1823 989 C 1783.421875 986.199219 1744.6875 975.808594 1705 973.089844 C 1670.265625 970.710938 1636.550781 974.515625 1602 976 C 1610.695313 967.210938 1627.421875 963 1639 959.339844 C 1679.449219 946.730469 1725.433594 948.15625 1766 959 C 1763.226563 953.320313 1757 950.414063 1752 947 C 1739.277344 938.523438 1725.867188 931.136719 1712 924.703125 C 1659.917969 900.550781 1599.328125 898.675781 1544 910.660156 C 1528.757813 914 1514.859375 920.753906 1500 925 C 1533.445313 893.011719 1588.277344 875.507813 1634 884 C 1628.988281 875 1611.265625 872.75 1602 870.152344 C 1566.625 860.238281 1532.902344 863.457031 1497 865 L 1497 864 C 1516.515625 856.472656 1536 850.171875 1557 848.171875 C 1629.816406 841.210938 1693.347656 880.726563 1750 921.746094 C 1769.585938 936 1788.328125 952.496094 1809 965 C 1809.472656 957 1803.585938 947.273438 1800.304688 940 C 1791.609375 920.714844 1779.703125 903.144531 1771 884 C 1782.917969 891 1795.640625 896.050781 1807 904.035156 C 1815.804688 910.226563 1823.953125 920.019531 1834 924 C 1830.34375 899.246094 1812.558594 883.476563 1803 862 C 1821.910156 867.367188 1837 878.421875 1855 885 C 1852.304688 874.609375 1841.40625 863.5 1833.996094 856 C 1816.53125 838.324219 1797.835938 822.097656 1777 808.496094 C 1755.386719 794.386719 1732.675781 782.226563 1708 774.34375 C 1602.441406 740.617188 1497.796875 780.324219 1412 842 C 1416.457031 833.363281 1424.347656 826.261719 1430.714844 819 C 1448.46875 798.761719 1469.65625 779.511719 1493 766 C 1502.921875 760.0625 1513.386719 755.222656 1524 751 C 1528.628906 749 1534.9375 748.164063 1538 744 C 1510.679688 744.5625 1475.671875 752.1875 1452 766 C 1468.921875 744 1497.941406 740.285156 1521 729 L 1521 728 C 1503.871094 723.289063 1479.378906 732.226563 1463 737.28125 C 1407.847656 754.304688 1355.582031 789.417969 1315 830 C 1321.34375 816.589844 1332.964844 804.820313 1342.914063 794 C 1358.925781 776.589844 1375.523438 760.382813 1394 745.601563 C 1494 665.558594 1626.839844 637.074219 1750 670 L 1750 671 C 1731.613281 671 1713.46875 667.5625 1695 668.015625 C 1660 669 1624 675.035156 1591 686.496094 C 1576.644531 691.460938 1549.296875 700.722656 1542 715 C 1597 700.414063 1656.390625 698.734375 1712 711.5 C 1727.84375 715.136719 1742.476563 722.5625 1758 727 L 1758 728 C 1711 724.292969 1665.761719 719.382813 1620 735 C 1625 738.335938 1633.949219 735.59375 1640 736.171875 C 1656 737.699219 1672.5 739.28125 1688 744.023438 C 1718 753.242188 1744.914063 767.070313 1772 783.011719 C 1786.226563 791.382813 1804.179688 806.488281 1821 808 C 1808 785.546875 1776 777.398438 1761 757 C 1791.1875 770.007813 1828 774 1860 766 C 1869.773438 763.417969 1885.71875 759.375 1891 750 C 1855.390625 753.105469 1811.839844 752 1790 717 C 1792.296875 717 1799.574219 718.128906 1800.652344 715.398438 C 1801.554688 713.113281 1798.347656 710.445313 1797 709 C 1792.417969 703.730469 1786.878906 698.464844 1784 692 C 1800.304688 698.152344 1817.695313 701 1835 701 C 1840.242188 701 1848.644531 702.75 1852 698 C 1834.214844 694.28125 1819.289063 684.34375 1805 673.628906 C 1801 670.652344 1791.539063 665.707031 1791.597656 660 C 1791.703125 649.644531 1806.425781 641.792969 1811 634 C 1805.679688 634 1790.351563 637.828125 1786.636719 633.257813 C 1784.632813 630.796875 1788.335938 628.023438 1790 626.679688 C 1795.28125 622.453125 1801.523438 619.679688 1808 618 C 1818.75 615 1832 617.136719 1843 618 C 1838.449219 613.214844 1829.238281 611.296875 1823 609.171875 C 1806.367188 603.503906 1789 600.050781 1772 596.117188 C 1695.632813 578.5625 1610.394531 574.523438 1534 593.628906 C 1510.710938 599.449219 1485.691406 608.125 1466 622.140625 C 1459.804688 626.550781 1450.199219 631.332031 1448 639 C 1479.582031 622.453125 1518.792969 617 1554 617 L 1554 618 C 1476.507813 633.035156 1396.835938 673.726563 1339 727 C 1352.507813 698.445313 1378.824219 669.203125 1401 647 C 1410.679688 637.308594 1427.277344 626.621094 1434 615 C 1423.492188 616.816406 1412.347656 623.667969 1403 628.691406 C 1379.210938 641.476563 1355.609375 656.246094 1336 675 C 1338.976563 667.144531 1345.597656 661.261719 1351 655 C 1366.375 637.183594 1384.703125 622.625 1404 609.28125 C 1433.847656 588.648438 1469.800781 577 1505 569.339844 C 1578.433594 553.648438 1657.878906 555.164063 1731 572.234375 C 1756.667969 578.226563 1781.765625 586.039063 1807 593.589844 C 1821.59375 598 1835.558594 604 1851 604 C 1847.644531 598.34375 1837 597.515625 1835.203125 591 C 1834.203125 587.496094 1838.757813 583.484375 1840.625 581 C 1846.339844 573.390625 1852.617188 565 1856 556 C 1842.746094 559.410156 1832.425781 568.28125 1818 569.824219 C 1814.988281 570.148438 1806.898438 571.308594 1804.878906 568.398438 C 1802.800781 565.402344 1808 557.722656 1809.550781 555 C 1815.734375 543.144531 1821.382813 530.535156 1826 518 C 1820.882813 519.4375 1810.230469 532.546875 1804.914063 530.335938 C 1802 529.152344 1806.339844 518.035156 1807 516 C 1811.628906 501.785156 1818.488281 485.574219 1821 471 C 1810.40625 476 1803.472656 486.65625 1792 491 C 1798.863281 467 1814.722656 445 1819 420 C 1813 423.457031 1809.394531 430.300781 1804 434.621094 C 1795.523438 441.414063 1785.449219 445.824219 1776 451 C 1778.746094 445 1783.765625 440 1787 434 C 1792 425.285156 1795.484375 415.785156 1800.3125 407 C 1803.226563 401.6875 1807.480469 397 1809 391 C 1804.777344 393 1790.652344 406.800781 1785.980469 404.183594 C 1784 403.089844 1788.570313 393.609375 1789.203125 392 C 1793.777344 380.34375 1803.675781 368.019531 1806 356 C 1798.714844 358.320313 1792.1875 363.207031 1785 366.078125 C 1783 366.8125 1778.703125 369.113281 1776.789063 367.761719 C 1774 366 1779 356.390625 1779.804688 354 C 1783.882813 341.265625 1791.671875 327.265625 1793 314 C 1785.34375 319.628906 1778.378906 330.234375 1768 331 C 1777.988281 317 1789.800781 296.433594 1795 280 C 1784.550781 283 1777.445313 294.046875 1767 298 C 1774 280.6875 1785.410156 263.65625 1791 246 C 1779.671875 251.253906 1770.910156 261.039063 1759 266 C 1763.878906 249 1775.714844 234.59375 1781 218 C 1770 221 1761.480469 231.480469 1751 236 C 1754.8125 220 1763 204.238281 1771.285156 190 C 1774.742188 184.011719 1779.816406 178.582031 1782 172 C 1767.480469 179.53125 1754.40625 193.367188 1741 203 C 1748.171875 172.738281 1773.605469 153.738281 1786 127 C 1761.828125 134 1739.230469 152.003906 1718 165 M 1614 386 C 1609.480469 392.601563 1593.425781 394.011719 1586 396.773438 C 1561.542969 406 1537.363281 415.5625 1514 427.246094 C 1464.96875 451.761719 1418.929688 481.625 1378 518.175781 C 1365.382813 529.4375 1352.484375 541.304688 1341.285156 554 C 1334.90625 561.234375 1327.632813 572.628906 1319 577 C 1327.675781 553.621094 1348.59375 530.761719 1364.578125 512 C 1423.949219 442.316406 1520 386.011719 1614 386 M 1295 391 C 1288.625 413.128906 1275.703125 433.203125 1270.234375 456 C 1260.199219 497.832031 1263 537.53125 1263 580 L 1262 580 C 1258.855469 574.585938 1258.320313 567.472656 1254 563 C 1250 592.597656 1244.714844 620.789063 1246 651 C 1246.960938 672.007813 1252.191406 692.273438 1254 713 C 1241.988281 700.160156 1235.8125 676.433594 1230.332031 660 C 1207.449219 591.347656 1217 524.335938 1247 460 C 1255.585938 442 1266.816406 424.820313 1278.882813 409 C 1283.476563 403 1288.230469 394.617188 1295 391 M 1134 619 C 1133.972656 578.710938 1136.59375 541 1152 503 C 1164.480469 473 1183 448 1199 420 C 1185.761719 424.390625 1173.613281 438.777344 1164.71875 449 C 1136.625 481.289063 1116 528.347656 1121.71875 572 C 1123.269531 584 1125.578125 595.410156 1128.859375 607 C 1130 611.167969 1130.226563 616.5625 1134 619 M 693 422 C 696 429.578125 702.792969 436.191406 707.332031 443 C 715.980469 456 723.703125 469.527344 729.546875 484 C 750 534.777344 752.71875 591.015625 752 645 C 757.917969 640.367188 762 632.753906 767 627 C 816.5625 569.21875 789.1875 492.765625 735 449.398438 C 723.597656 440.273438 707.636719 424.824219 693 422 M 1707 502 L 1707 503 C 1676.339844 503 1645.898438 498.6875 1615 500.039063 C 1549.699219 503 1478.878906 521 1422 553.425781 C 1394.695313 569.046875 1370.648438 587.351563 1347 608 C 1335.742188 618 1325.785156 632.546875 1313 640 C 1322.554688 617 1344.617188 594.382813 1362 577 C 1427.898438 511.101563 1515.773438 481 1608 485 C 1639 486.324219 1678.558594 487.722656 1707 502 M 549 598 L 549 599 C 536.570313 598.457031 524 592.824219 512 590.285156 C 484.347656 584.511719 456.179688 580.019531 428 578.089844 C 393.871094 575.753906 359 575 325 578.171875 C 304.765625 580.097656 284.226563 585.128906 264 586 C 269.210938 581.3125 277.449219 580 284 577.667969 C 299.53125 572.46875 314.90625 568.550781 331 565.539063 C 403.394531 552 485.96875 556.289063 549 598 M 865 566 C 861.890625 587.144531 857.601563 606.277344 859 628 C 862.574219 679 886 728.601563 919.746094 766.425781 C 929.988281 778 941.675781 788.367188 954 797.625 C 960.367188 802.410156 968.855469 806 974 812 C 890.476563 795.800781 835.59375 711.414063 845.714844 629 C 847.980469 610.554688 851 579.734375 865 566 M 968 608 C 984.199219 642.191406 1008.980469 667.59375 1041 687.425781 C 1048.527344 692.085938 1056.34375 696.140625 1063.996094 700.578125 C 1065 701.222656 1070.488281 705.445313 1071.621094 703.804688 C 1073.347656 701.304688 1069.777344 693.589844 1068.972656 691 C 1064.875 677.804688 1058.972656 665.816406 1054 653 C 1063.835938 657.164063 1072.363281 667.574219 1078.621094 676 C 1099 703.652344 1104.308594 753.398438 1094 786 C 1090.5 781 1090.425781 772.074219 1088.304688 766 C 1082 748.269531 1069 726.589844 1049 723 C 1060.328125 741.375 1067.941406 763.101563 1068 785 L 1067 785 C 1059.1875 763.164063 1043.839844 745.824219 1029.601563 728 C 1011.5 705.34375 993.3125 681.707031 981.574219 655 C 976.941406 644.453125 972.910156 634.09375 969.710938 623 C 968.320313 618.1875 965.984375 613 968 608 M 927 635 C 935.863281 661 946.308594 685.238281 962 708 C 971 721.148438 986.375 733.796875 993 748 C 962.367188 731.011719 940.238281 702.527344 930.710938 669 C 928 659.820313 923 644.164063 927 635 M 794 719 L 793 720 L 794 719 M 1339 727 L 1338 728 L 1339 727 M 540 735 L 540 737 C 512.652344 739.15625 485.683594 746.492188 459 752.5 C 448.28125 755 436.96875 759.5 426 760 C 432.5 753 444.238281 749.503906 453 746 C 481.304688 734.675781 509.894531 732.625 540 735 M 1412 842 L 1411 843 L 1412 842 M 1378 983 C 1371.246094 983.53125 1364.640625 984.628906 1358 986 C 1356.53125 986.207031 1352 986.617188 1352 989 C 1352 991.027344 1357.519531 992 1359 992.464844 C 1366.402344 995.363281 1373.738281 998.671875 1381 1002 C 1399.421875 1010.121094 1416 1021.496094 1434 1030.742188 C 1445.695313 1036.792969 1458 1040.667969 1470 1046 L 1470 1047 C 1458.988281 1050.246094 1442.980469 1046.394531 1432 1043.742188 C 1400.835938 1036.214844 1373.507813 1019.757813 1343 1010.570313 C 1312 1001.261719 1278.648438 1000.714844 1247 1006.425781 C 1234.753906 1008.632813 1223 1014 1211 1016 C 1217.699219 1007 1231 1000.808594 1241 995.757813 C 1270.195313 981 1302.398438 974 1335 974 C 1345.859375 974 1371.253906 972.785156 1378 983 M 725 1065 L 725 1066 C 703.480469 1060 686 1051 663 1051 C 659.769531 1051.015625 643 1051.515625 643 1056.175781 C 643 1060 654.457031 1064.011719 657 1067 C 625.246094 1065.636719 595.878906 1070.640625 567 1085 C 554.175781 1091.179688 542.199219 1103.550781 529 1108 C 538.183594 1084.253906 568.511719 1061 592 1053 C 586.519531 1048.25 579.550781 1048.136719 574 1044 C 623 1022.277344 682.675781 1034.691406 725 1065 M 1307 1074.304688 C 1329.289063 1071.355469 1345.9375 1097.070313 1333.867188 1116 C 1328.871094 1124 1319.972656 1127.527344 1311 1128.523438 C 1276.316406 1132.363281 1272.316406 1079 1307 1074.304688 M 1267 1086 C 1259.71875 1103.304688 1248.695313 1115.382813 1246.285156 1135 C 1240.859375 1179.191406 1273.6875 1226.191406 1321 1224.253906 C 1346.277344 1223.21875 1367 1209.515625 1382.207031 1190 C 1384 1187.589844 1393.683594 1170.53125 1395.597656 1176.167969 C 1398.808594 1185.644531 1397.359375 1198.363281 1395.753906 1208 C 1389.464844 1245.746094 1361 1278 1324 1288.253906 C 1271.542969 1303 1214 1281.710938 1184.34375 1236 C 1170 1214.074219 1166.742188 1190.429688 1168 1165 C 1168.425781 1156.410156 1170.621094 1140.40625 1178 1135 C 1177.839844 1154.15625 1179.183594 1171.714844 1186 1190 C 1189.632813 1177.707031 1189.339844 1164.488281 1193.695313 1152 C 1204.632813 1120.640625 1232.726563 1090.617188 1267 1086 M 1140 1103 C 1138 1113.347656 1132.332031 1122.789063 1129.746094 1133 C 1122 1163 1119.621094 1193.589844 1126.425781 1224 C 1128.714844 1234.230469 1132.21875 1244 1137.425781 1253 C 1140.210938 1258 1145.960938 1263.644531 1147.292969 1269 C 1148.171875 1272.53125 1145.339844 1276.09375 1143.730469 1279 C 1139.753906 1286.179688 1135.664063 1300.4375 1129 1305 C 1127.199219 1292.753906 1121.4375 1281.445313 1117 1270 L 1116 1270 C 1114 1287.242188 1113.746094 1304.214844 1108.328125 1321 C 1106.511719 1326.632813 1105.183594 1334.601563 1100 1338 C 1100 1321 1095.417969 1304.570313 1092 1288 L 1091 1288 C 1088.175781 1303.21875 1086.898438 1318.121094 1079 1332 L 1078 1332 C 1078 1301.085938 1078.921875 1269.808594 1081 1239 C 1081.503906 1232.011719 1082.332031 1225 1083.28125 1218 C 1083.5 1216.410156 1083.6875 1211.207031 1086 1211.207031 C 1089.804688 1211.207031 1093.1875 1225.058594 1095 1228 C 1095.382813 1220.304688 1093.429688 1212.773438 1094.171875 1205 C 1097.492188 1170.082031 1110.695313 1125.410156 1140 1103 M 722 1123.378906 C 757 1116.351563 769.214844 1167.179688 733 1173.535156 C 701.53125 1179.058594 689.625 1130 722 1123.378906 M 1422 1128 C 1449.738281 1160.542969 1454.554688 1213.539063 1431.933594 1250 C 1421.25 1267.222656 1404.878906 1277.605469 1393 1293 C 1398.363281 1292.210938 1403.613281 1289.324219 1409 1290 C 1395 1311.546875 1372 1313.78125 1351 1324 C 1347.195313 1326 1350.765625 1329.414063 1347.664063 1331.789063 C 1342 1336.023438 1334.242188 1335.75 1328 1338.554688 C 1325.402344 1339.804688 1323.789063 1342.378906 1320.945313 1343.53125 C 1299.855469 1352.085938 1274 1351 1252 1347.699219 C 1243.789063 1346.492188 1235.230469 1343.316406 1227 1343 C 1234.28125 1349.203125 1242.410156 1352.175781 1251 1356 L 1251 1357 C 1222.578125 1357.234375 1197.476563 1353.421875 1174 1335.496094 C 1169.328125 1332 1153.265625 1320.609375 1157 1313.226563 C 1159.222656 1309.085938 1165.214844 1309.558594 1169 1310.214844 C 1180 1312.136719 1190.96875 1315.191406 1202 1317.398438 C 1244.324219 1326 1289.472656 1327 1330 1309.574219 C 1384.839844 1286.121094 1416.726563 1239.445313 1423.714844 1181 C 1425 1170 1424.886719 1157.050781 1423.828125 1146 C 1423.300781 1140.476563 1420.375 1133.296875 1422 1128 M 800 1230 C 799.792969 1305 712.550781 1346.722656 649 1317 C 606.894531 1297.105469 588 1254.300781 589.960938 1210 C 590.757813 1192 595.457031 1174 606 1159 L 607 1159 C 603.882813 1172.636719 602.683594 1186.230469 606 1200 C 620.300781 1175.320313 628.671875 1152.308594 657 1139.730469 C 660.59375 1138.136719 679.816406 1130.082031 682.824219 1134.066406 C 684.8125 1136.699219 674.359375 1146.660156 672.722656 1149 C 663.226563 1162.558594 657.6875 1179.347656 658 1196 C 658.996094 1246 709.609375 1280.25 756 1262.773438 C 765.476563 1259.199219 774.53125 1253.773438 782 1247 C 787.796875 1241.578125 792.933594 1233.523438 800 1230 M 559 1203 C 558 1224.011719 557.6875 1243.363281 562.871094 1264 C 566.324219 1277.734375 572 1290.488281 580.429688 1302 C 613.464844 1348 671.601563 1359 724 1345.523438 C 741 1341.148438 755.664063 1332 772 1326 C 768.503906 1335.535156 760 1343.039063 753 1350 C 728.660156 1373.71875 688.871094 1389 655 1389 C 659.773438 1382.199219 671.214844 1379 678 1374 C 671.574219 1374 665.277344 1377.21875 659 1378.484375 C 649.253906 1380.453125 638.925781 1381 629 1381 C 632 1376.125 638.511719 1375.332031 643 1372 C 622.703125 1367.167969 594.636719 1371 580 1352 L 585 1351 L 585 1350 C 571.269531 1344.253906 558.296875 1334.085938 551 1321 C 561.753906 1322.027344 546.765625 1302.46875 544.203125 1296 C 535.375 1273.707031 537 1247.125 545.425781 1225 C 548 1218 552 1206.769531 559 1203 M 1023 1363 C 1013 1360.722656 1005.746094 1356.3125 995 1357 C 993.261719 1357 986 1356.214844 986 1359.109375 C 986 1362.484375 998.460938 1369.460938 1000.960938 1372.015625 C 1010.273438 1381.527344 1019 1395.652344 1021 1409 C 1010.4375 1407.183594 998.863281 1400.144531 988 1404 C 1011.261719 1413 1031.386719 1431 1043 1453 C 1031.800781 1454.382813 1014.277344 1444.015625 1003 1441 C 1008.300781 1448.285156 1015.355469 1454.019531 1018 1463 C 1006 1461 996.648438 1455.214844 984 1457.324219 C 965.398438 1460.433594 951.929688 1472 932 1471 C 919.226563 1470.382813 907.355469 1465.125 897 1458 C 891.28125 1454.027344 885 1446.316406 878 1445.242188 C 863.363281 1443.027344 848.230469 1457.492188 836 1463 C 843.210938 1443.183594 858.308594 1429.035156 874 1416 C 866.433594 1414.261719 859.960938 1417.300781 853 1420 C 855.453125 1406.191406 866 1393.121094 875.171875 1383 C 878 1379.703125 882.972656 1373.601563 887.957031 1373.710938 C 893.476563 1374 895.964844 1384 897.695313 1388 C 898 1389.066406 899.402344 1393.574219 901.300781 1392.078125 C 907.179688 1387.445313 910.835938 1372.597656 915 1366 C 924.515625 1351.375 936.691406 1344.128906 952 1337 C 937.683594 1332.460938 928 1336.601563 914 1338 C 941.699219 1300.476563 1006.898438 1329 1023 1363 M 1457 1441 C 1465 1446 1462.269531 1455.226563 1462 1463 C 1492.25 1433 1549.574219 1423.449219 1587 1447 C 1577.234375 1450 1566 1449 1556 1451.476563 C 1527.597656 1458.535156 1505.757813 1476 1498 1505 C 1528.210938 1474.15625 1569 1465 1611 1472.574219 C 1621.175781 1474.425781 1642.867188 1478.011719 1649 1487 C 1623 1487 1583.398438 1489.457031 1566 1512 C 1608.460938 1502.292969 1657.527344 1515.679688 1694 1538 L 1694 1539 L 1646 1538 C 1650.980469 1543.8125 1659.386719 1547.375 1666 1551.148438 C 1678.289063 1558.164063 1690.511719 1565.132813 1702 1573.425781 C 1749 1607.457031 1783.941406 1663.125 1774.589844 1723 C 1772.316406 1737.546875 1768.273438 1764 1754 1772 C 1755.925781 1727.15625 1749.589844 1685.773438 1726.851563 1646 C 1719.671875 1633.445313 1710.953125 1617.492188 1699 1609 C 1711.691406 1653.398438 1712 1695 1690 1737 L 1689 1737 C 1689.722656 1728 1692.285156 1719.113281 1692.910156 1710 C 1695.828125 1667.417969 1687 1602.453125 1644 1581 C 1661.878906 1606.6875 1668 1626 1668 1657 L 1667 1657 C 1661 1633.277344 1647.957031 1601.65625 1623 1592 C 1647.835938 1629.714844 1643.214844 1665.738281 1637 1708 L 1635 1708 C 1635 1678.550781 1633.179688 1649.472656 1621.421875 1622 C 1617.585938 1613.039063 1612.601563 1601.296875 1605 1595 C 1609.484375 1610.710938 1614.703125 1625.617188 1616.714844 1642 C 1620.933594 1676.371094 1614 1713.121094 1601 1745 L 1600 1745 C 1600.339844 1728.636719 1604 1712.589844 1604 1696 C 1604 1689.421875 1605 1681 1600 1676 C 1599.828125 1696.5625 1589.414063 1720.105469 1580 1738 L 1579 1738 C 1581.71875 1704.734375 1590.3125 1673.832031 1583.335938 1640 C 1578.765625 1618 1567.355469 1601.03125 1558 1581 L 1557 1581 C 1553.851563 1597.136719 1557.855469 1614.40625 1554 1631 C 1543.207031 1679.351563 1514.964844 1719 1486 1758 L 1485 1758 C 1487.167969 1745.832031 1494.773438 1734 1498.640625 1722 C 1505.789063 1700.09375 1509.953125 1677.449219 1514.882813 1655 C 1517.425781 1643.425781 1523.527344 1626.632813 1521 1615 C 1511 1636.378906 1500.632813 1669.507813 1481 1684 C 1487.832031 1666.390625 1493.328125 1648.445313 1497.425781 1630 C 1498.925781 1623.242188 1502 1616 1502 1609 C 1491.917969 1621 1484.558594 1635.28125 1475.574219 1648 C 1471.507813 1653.757813 1467.519531 1661 1461 1664 C 1467.621094 1644.261719 1470.484375 1623.488281 1478.203125 1604 C 1485.96875 1584.398438 1498.625 1566.484375 1506 1547 C 1493.785156 1556 1487 1571.152344 1475 1580 C 1476.804688 1569.515625 1482.402344 1560 1486 1550 C 1445.953125 1569.816406 1420 1613.054688 1398 1650 L 1397 1650 C 1400.175781 1626.414063 1409.328125 1596.472656 1426 1579 C 1413.367188 1579.710938 1398.492188 1594.546875 1390 1603 C 1370.703125 1622.203125 1354 1645 1343.226563 1670 C 1337.605469 1683.039063 1336 1702.773438 1328 1714 C 1323.878906 1700.058594 1327.390625 1679.394531 1328.832031 1665 C 1332.859375 1624.71875 1342.910156 1583.476563 1365 1549 C 1375.246094 1533.210938 1389.382813 1521.070313 1400 1506 C 1353.574219 1525.328125 1313.382813 1558.785156 1287.449219 1602 C 1281.328125 1612.203125 1276 1623 1271.8125 1634 C 1269.316406 1640.441406 1268 1648.375 1264 1654 C 1262.445313 1644.777344 1266.933594 1633 1269.269531 1624 C 1276 1598.011719 1289.578125 1574.273438 1307.179688 1554 C 1316.175781 1543.644531 1327.75 1534.785156 1336 1524 C 1270 1558.714844 1231 1638.339844 1231 1711 L 1229 1711 C 1227.597656 1700.59375 1224.183594 1690.476563 1223.171875 1680 C 1220.492188 1652.316406 1224.386719 1623.148438 1233.691406 1597 C 1239.171875 1581.601563 1248 1568.554688 1255 1554 C 1231.246094 1570.730469 1203.386719 1605.285156 1199 1635 L 1197 1635 C 1197 1607.140625 1206 1578 1222 1555 C 1227.808594 1546.710938 1235.765625 1540.734375 1242 1533 C 1206.332031 1547.035156 1170.8125 1582.089844 1157 1618 C 1150.992188 1634 1151.636719 1650.308594 1147 1666 C 1143 1660.3125 1143 1649.789063 1143 1643 C 1142.757813 1622.34375 1147.996094 1601.652344 1156.707031 1583 C 1181.96875 1529 1236.660156 1494 1294 1483.261719 C 1315 1479.328125 1334.863281 1480.214844 1356 1480 C 1334.992188 1454.203125 1308.609375 1456.226563 1279 1463 C 1284.679688 1456 1296.707031 1452.117188 1305 1448.800781 C 1331.957031 1438.015625 1370.960938 1434.425781 1398 1447 C 1385.621094 1422.765625 1350.757813 1415 1326 1415 C 1331.726563 1409.566406 1343.386719 1408.757813 1351 1408 C 1379.234375 1404.453125 1406.992188 1413 1429 1430.804688 C 1434.820313 1435.53125 1439.480469 1441 1443.84375 1447 C 1445.273438 1449 1447 1453.800781 1449.460938 1454.792969 C 1454 1456.75 1456.765625 1443.691406 1457 1441 M 651 1482 C 642 1480.285156 633.867188 1474.175781 625 1471.554688 C 595.6875 1463 557.664063 1460 533 1482 C 565 1478 599.253906 1483.488281 627 1501 L 627 1502 C 611.191406 1499 595.636719 1497.140625 580 1502.195313 C 577.804688 1503 565.519531 1507.074219 567.207031 1510.503906 C 568.480469 1513.09375 580.191406 1513.164063 583 1513.570313 C 599.28125 1516 615.167969 1518.625 631 1523.292969 C 683 1538.652344 741.960938 1579.175781 742 1639 L 741 1639 C 733.441406 1616.617188 717.640625 1590.089844 695 1580 C 720 1608 722.585938 1652.054688 716 1687 L 715 1687 C 712.53125 1667.480469 711.511719 1648.746094 704.46875 1630 C 693.425781 1600.625 667.945313 1575.050781 638 1565 C 650.996094 1594.34375 667 1623.242188 657 1657 L 656 1657 C 655.175781 1637.828125 645.496094 1618.074219 634 1603 C 630.1875 1597.820313 625.851563 1591 620 1588 C 637.964844 1618.789063 637.976563 1659 633 1693 C 631.785156 1702.46875 629 1724.089844 621 1730 C 629.960938 1659.101563 606.171875 1590.503906 547 1548 C 567.664063 1577.339844 596.675781 1602.78125 597 1642 L 596 1642 C 583.992188 1606.210938 556.882813 1576.105469 527 1554 C 516.335938 1546.109375 504.554688 1537.570313 492 1533 C 503 1549 514.28125 1563.101563 522 1581 C 542.289063 1627 536.824219 1673 533 1721 L 531 1721 C 530.554688 1710.808594 526.707031 1700.601563 523.492188 1691 C 514.921875 1665.386719 502 1638.515625 482.984375 1619 C 475.726563 1611.558594 467.90625 1601.832031 458 1598 C 469.554688 1615.535156 476.519531 1646.214844 472 1667 L 471 1667 C 456.980469 1633.324219 431.417969 1601.71875 404 1578 C 406.988281 1589.175781 412.992188 1600.441406 414 1612 C 403 1603 399.703125 1586.617188 388 1578 C 392.882813 1596 400.519531 1613 405.265625 1631 C 410.976563 1652.65625 413 1675.699219 414 1698 C 399.4375 1687.695313 398.855469 1660.71875 386 1648 C 386 1670 387.5 1692.746094 393 1714 C 387.402344 1710.816406 385 1701.75 382.578125 1696 C 375.433594 1679.289063 367.789063 1660.367188 367 1642 L 365 1642 C 365 1651.402344 362.789063 1660.609375 363 1670 C 363.933594 1708.105469 369.171875 1746.351563 383 1782 C 371.820313 1775.53125 364.421875 1758 358.285156 1747 C 335.382813 1706.117188 327.820313 1660 334 1614 C 309 1634.609375 298 1677 298 1708 L 297 1708 C 290.589844 1680 291 1650 305.3125 1624 C 309.859375 1615.722656 316.652344 1609.59375 322 1602 C 267.21875 1635.683594 265.523438 1703.28125 270 1760 C 265.679688 1757 264.851563 1750 263.339844 1745 C 258 1728.269531 258 1711.324219 258 1694 C 253.503906 1699.164063 252.65625 1709.320313 251.84375 1716 C 249.621094 1734.328125 251.558594 1751.714844 253 1770 L 252 1770 C 232.585938 1716.550781 231 1659 264 1610 C 253.617188 1614.757813 243.996094 1625.378906 236.765625 1634.09375 C 216.265625 1658.789063 207.441406 1684.148438 198 1714 L 197 1714 C 197 1682.503906 203.460938 1654 220.863281 1627 C 226 1619 233.378906 1612.667969 239 1605 C 216.414063 1609.367188 208.191406 1634.097656 191 1645 C 191.941406 1635.59375 198 1626.617188 203.28125 1619 C 216.792969 1599.421875 232.980469 1584.824219 255 1575.425781 C 265.21875 1571.066406 283.683594 1569.320313 291 1561 C 278.988281 1561 267 1559 255 1559 L 255 1558 C 275.90625 1544.210938 299.964844 1535.804688 325 1534.089844 C 332.757813 1533.558594 340.320313 1535.382813 348 1535 C 329.675781 1516.828125 308.734375 1518.804688 285 1519 C 292.238281 1510.492188 306.488281 1506 317 1503.011719 C 352.484375 1493.171875 388.96875 1499.816406 417 1523 C 408 1492.398438 377 1481.3125 348 1479 L 348 1478 C 371.1875 1467.734375 399.566406 1467.128906 423 1477 C 434.96875 1481.832031 444.785156 1489.757813 456 1496 C 456 1484.195313 459.558594 1474.347656 465 1464 C 466.503906 1467.347656 467.433594 1486.746094 473.675781 1485.367188 C 476 1485 479.324219 1477 481 1475.003906 C 487.367188 1468.230469 495.621094 1463.089844 504 1459.3125 C 537.515625 1444.191406 576.683594 1444.460938 611 1456.496094 C 625.3125 1461.515625 641.8125 1469.515625 651 1482 M 1131 1505 L 1131 1506 C 1118.660156 1506 1104.792969 1506.632813 1093 1510.519531 C 1090.710938 1511.273438 1080.765625 1514.03125 1082.207031 1517.691406 C 1083.542969 1521.078125 1091.921875 1523.703125 1095 1525.246094 C 1105.867188 1530.695313 1120.441406 1535 1130 1542 C 1105.46875 1549.25 1072.347656 1538.585938 1048 1534 C 1062.53125 1550.503906 1083 1561.773438 1096 1580 C 1074.78125 1574.195313 1055.460938 1561.554688 1037 1550.0625 C 1033 1547.613281 1020.179688 1541.742188 1020.921875 1536.074219 C 1021.410156 1532.339844 1027.222656 1529.257813 1030 1527.347656 C 1038.582031 1521.441406 1047.859375 1516 1054.816406 1508 C 1060.40625 1501.667969 1063.570313 1494.457031 1063.960938 1486 C 1064 1483.785156 1063.210938 1478.734375 1066.316406 1478.199219 C 1071.894531 1477.242188 1081 1483.285156 1086 1485.539063 C 1100.878906 1492.351563 1115.800781 1499 1131 1505 M 796 1601 C 804 1584.007813 814.886719 1568.371094 824 1552 C 807.976563 1554.167969 796.269531 1564.765625 782 1571 C 788.617188 1558.035156 802.535156 1546.574219 814 1538 C 817.578125 1535.160156 822.296875 1530.402344 827 1530.042969 C 831.839844 1529.671875 837 1534.734375 841 1537 C 844.335938 1538.820313 858.792969 1543.503906 858.792969 1548 C 858.792969 1552.660156 846.40625 1558.328125 843 1560.722656 C 833 1567.632813 823.609375 1575.617188 815 1584.015625 C 809 1589.738281 803.503906 1597.5 796 1601 M 1066 1607 C 1059.519531 1605 1054.628906 1600 1049.425781 1595.65625 C 1034.734375 1583.734375 1014.46875 1562.789063 1012 1543 C 1028 1550.492188 1039.757813 1574.445313 1050.601563 1588 C 1055.523438 1594.15625 1062.683594 1600 1066 1607 M 1506 1546 L 1507 1547 L 1506 1546 M 867 1556 C 867.988281 1562.773438 863.328125 1570.277344 859.988281 1576 C 851 1591.1875 837.53125 1612.429688 821 1620 C 824.59375 1611.507813 831.855469 1603.722656 837 1596 C 846 1582.425781 853.796875 1566.097656 867 1556 "/></g></svg>