<?xml version="1.0" encoding="UTF-8"?>
<svg xmlns="http://www.w3.org/2000/svg" xmlns:xlink="http://www.w3.org/1999/xlink" width="2000pt" height="2000pt" viewBox="0 0 2000 2000" version="1.1">
<g id="surface1">
<path style=" stroke:none;fill-rule:nonzero;fill:rgb(0%,0%,0%);fill-opacity:1;" d="M 1147 821 C 1114.546875 834.652344 1091.199219 867.136719 1063 887 C 1079.589844 863.355469 1103.660156 841.453125 1126 823.308594 C 1135.472656 815.617188 1149.175781 810.199219 1157 801 C 1143.9375 804.09375 1131 811.078125 1119 816.703125 C 1084.335938 832.769531 1051.261719 854 1020 875.71875 C 1004.5 886.570313 988.390625 902.648438 971 910 C 1019 862 1078 823.652344 1140 796 L 1140 795 C 1124 795.328125 1107.492188 800.152344 1092 803.574219 C 1063.984375 809.761719 1036 817.195313 1009 826.65625 C 996.394531 831.058594 975.789063 834 965.378906 842.277344 C 962.394531 844.691406 966 848.066406 968 849.828125 C 971.191406 853 987.550781 862.457031 984.363281 867.480469 C 979.585938 875.019531 964.382813 881 957 886.023438 C 938.558594 898.675781 920.488281 912.425781 906.449219 930 C 890.480469 950 878.652344 973.421875 871.558594 998 C 867.71875 1011.300781 867.515625 1027.566406 861.597656 1040 C 854.332031 1055.265625 842 1068.65625 833 1083 C 805.1875 1127.675781 777.296875 1176.203125 765.347656 1228 C 761.445313 1245 756.285156 1262.4375 758.175781 1280 C 760.78125 1304.273438 784 1329 797.574219 1348 C 813.222656 1370.105469 830.234375 1391.632813 843.988281 1415 C 853.3125 1431 859.492188 1448.328125 869 1464 C 857.378906 1455.8125 847 1444.050781 837 1434 C 808 1405.078125 783 1373 760.332031 1339 C 743.683594 1314.082031 721.765625 1277.253906 690 1270.519531 C 672.691406 1267 658.609375 1277.214844 648.398438 1290 C 629.230469 1314 618.492188 1344.71875 610.292969 1374 C 586.574219 1458.730469 584.214844 1548.636719 588 1636 C 589.667969 1673.167969 595.996094 1711 596 1748 C 606.632813 1743 616.292969 1729.753906 624.195313 1721.183594 C 634 1710.511719 645.367188 1701 655.996094 1691.085938 C 663.234375 1684.359375 667.269531 1683.027344 677 1683 C 678.605469 1683 682.671875 1682.21875 683.945313 1683.453125 C 685.988281 1685.441406 679 1691.753906 677.964844 1693 C 668.90625 1702.585938 659.324219 1711.675781 650 1721 C 622.769531 1748.230469 594.738281 1775.03125 568.882813 1803.574219 C 559.238281 1814.222656 545 1824.816406 539 1838 L 840 1838 C 848.269531 1838 861.195313 1840.457031 868.910156 1837.398438 C 874.261719 1835.277344 878.683594 1827.347656 882.195313 1823 C 891 1812 900.308594 1801.097656 909.199219 1790 C 939.804688 1751.804688 972.726563 1715.199219 1005 1678.425781 C 1105.441406 1564 1215.277344 1455.707031 1336 1362.652344 C 1409.640625 1306 1485.261719 1251.734375 1566 1205.421875 C 1589.960938 1191.679688 1614 1178.113281 1638 1164.421875 C 1644 1161 1660.277344 1156.015625 1663.257813 1149.726563 C 1666.6875 1142.484375 1663.628906 1129.695313 1663 1122 C 1661 1093.800781 1658 1065.066406 1643.714844 1040 C 1638.769531 1031.328125 1623.222656 1011.085938 1611.417969 1022.433594 C 1606.789063 1027 1606 1035.050781 1605 1041 L 1604 1041 C 1603.675781 1025.191406 1598.679688 1009 1589.558594 996 C 1586.9375 992.265625 1581 983.417969 1575.417969 987.03125 C 1571.796875 989.351563 1572 995.277344 1571.574219 999 C 1570 1010.132813 1566 1044.011719 1546 1031.257813 C 1529.210938 1020.59375 1536.5 993.390625 1545 980 C 1546.523438 977.765625 1557.230469 968.59375 1556.652344 967.203125 C 1553.199219 959 1532.5625 959.480469 1527.679688 965.109375 C 1517 977.324219 1518 996 1518 1011 C 1514.460938 1008.320313 1511.179688 1005.445313 1507 1003.765625 C 1477.53125 992 1472.171875 1036.484375 1468 1054 L 1467 1054 C 1457.769531 1030.53125 1456.234375 1006.496094 1472.234375 985 C 1478.855469 976.105469 1485.859375 968 1495 961.441406 C 1496.546875 960.355469 1503.914063 957.136719 1502.652344 954.503906 C 1501.429688 952 1495 954 1493 954 C 1482 954.4375 1472.914063 955.574219 1463 960.523438 C 1430.734375 976.613281 1394.3125 1003.269531 1385.746094 1040 C 1383.257813 1050.667969 1383.609375 1061.5 1386.722656 1072 C 1387.984375 1076.261719 1392.730469 1083.640625 1389.578125 1087.675781 C 1380.308594 1099.53125 1359.429688 1108.417969 1347 1117.023438 C 1345.296875 1118.203125 1334.765625 1127.230469 1333 1125.117188 C 1330.628906 1122 1333 1108.214844 1333 1104 C 1333 1089.644531 1329.835938 1075.53125 1325 1062 C 1318.980469 1044.246094 1308.785156 1029.136719 1296.574219 1015 C 1289.890625 1007.261719 1280.488281 1000.4375 1276 991 C 1266.988281 971.742188 1278 939.714844 1288.46875 923 C 1298.933594 906.175781 1328.488281 899.007813 1345 889 C 1349.273438 886.332031 1362.238281 880.402344 1363 875 C 1363.734375 870.78125 1351.921875 865.011719 1349 863 C 1334.441406 852.535156 1317.710938 838.425781 1301 832 C 1305.472656 844.695313 1295.808594 855.578125 1282 851.386719 C 1259.339844 844.511719 1234.902344 807.582031 1251.527344 786 C 1266.441406 766.644531 1288.550781 762.230469 1310 773.257813 C 1316.601563 776.652344 1322 784.140625 1329 786.347656 C 1337 789 1347.617188 786 1356 786 C 1375.613281 786 1395.441406 786.71875 1415 788.089844 C 1423.324219 788.671875 1439 792.734375 1446.785156 789.398438 C 1450.6875 787.703125 1452.503906 781.542969 1454.242188 778 C 1458.785156 768.765625 1462.613281 751.042969 1471 745 C 1489.96875 731.476563 1511.640625 728 1527.5625 709 C 1536.667969 698.191406 1543.765625 685 1546.714844 671 C 1549.378906 658.441406 1549 643.5 1555 632 C 1563.996094 614.828125 1577.855469 600.605469 1586.652344 583 C 1613.542969 529.179688 1629.480469 468.390625 1637.289063 409 C 1640.894531 381.574219 1644 352.632813 1640.816406 325 C 1635.5625 281.105469 1584.234375 302.105469 1558 312.507813 C 1552.613281 314.644531 1547.269531 317.046875 1542 319.460938 C 1535.304688 322.527344 1528.625 325.644531 1522 329 C 1484.554688 347.042969 1448.894531 371.269531 1417 398 C 1400.308594 412 1382.546875 427.03125 1370 445 C 1360 459.421875 1354 476.773438 1347.601563 493 C 1341.613281 508 1333.40625 526 1332 542 L 1330 542 C 1330 518.421875 1330.277344 489 1340 467 C 1334.429688 467 1328.511719 467.566406 1323 466.675781 C 1320.742188 466.3125 1317 464.414063 1314.9375 466.066406 C 1312.277344 468.179688 1313 474.046875 1313 477 L 1313 507 L 1311 507 C 1310 496.402344 1305.480469 486.359375 1303.285156 476 C 1302.449219 472.050781 1302.269531 464.695313 1299.398438 461.703125 C 1295.445313 457.589844 1285.339844 457.179688 1280 455.707031 C 1260.769531 450.40625 1240.574219 447.742188 1221 444 C 1209 441.71875 1196 439.117188 1184 439 C 1181.214844 439 1174 437.011719 1172 439.042969 C 1168.902344 442.015625 1171.992188 453.023438 1172 457 C 1172 472.261719 1171.835938 489.179688 1168 504 L 1167 504 C 1166.585938 484 1163.574219 460.304688 1157.28125 441.058594 C 1155.964844 437.042969 1142.273438 432.636719 1139 436.066406 C 1136.671875 438.730469 1142.519531 450.800781 1143.421875 454 C 1148.421875 471.796875 1148.707031 490 1151 508 C 1146.171875 502.527344 1145.214844 493.769531 1142.78125 487 C 1136.792969 470.328125 1131.484375 448.566406 1121 434.132813 C 1116.601563 428.0625 1105.289063 427.351563 1099 423.300781 C 1088 416.253906 1079 404.65625 1071.746094 394 C 1026.984375 328.558594 981.78125 263.753906 920 213 C 897.851563 194.691406 867.722656 168.609375 837 171.09375 C 820 172.453125 811.730469 191.300781 806.199219 205 C 791.691406 241 785.167969 278 779.871094 316 C 775 350.265625 775.546875 386.621094 778.828125 421 C 780.839844 442.019531 782.386719 464.25 790.453125 484 C 798.191406 503 819.277344 514.042969 825 533 C 828.699219 544.734375 821.445313 557.25 817.695313 568 C 813 581.359375 811.195313 596.085938 814.503906 610 C 822 642.128906 853.511719 651.070313 869.890625 676 C 879 690 878.234375 712 881.261719 728 C 882.296875 733.507813 883.503906 744.402344 887.703125 748.398438 C 890.96875 751.503906 898.851563 750 903 750 C 917 750 931 750 945 750 C 985.648438 750.195313 1026.539063 754.304688 1067 758.171875 C 1080.921875 759.5 1099.292969 766.140625 1112.957031 764.394531 C 1117.777344 763.777344 1120.757813 756.507813 1124 753.429688 C 1132.4375 745.710938 1158.59375 726.523438 1170.785156 735.601563 C 1176.230469 739.65625 1177 748.054688 1182 752.8125 C 1191.644531 762 1205 763.585938 1213.210938 775 C 1232.753906 802.277344 1200.839844 827.710938 1176 835 C 1167.882813 837.324219 1157.992188 837 1150 834.328125 C 1147.574219 833.535156 1142.714844 832.453125 1142.316406 829.316406 C 1141.953125 826.492188 1145.542969 823.15625 1147 821 M 826 393 C 827 406.335938 829.167969 419.605469 834.429688 432 C 839.507813 444 847.402344 454.609375 851.480469 467 C 858.648438 488.78125 859 517.199219 859 540 L 858 540 C 851.660156 517.667969 833.257813 506.09375 821.761719 487 C 808.632813 465.199219 813.824219 439.320313 819.628906 416 C 821.394531 409 821.8125 399.023438 826 393 M 1529 410 L 1529 411 C 1473.929688 421.222656 1431.679688 448.535156 1396.984375 493 C 1386.953125 506 1374.820313 520.625 1369 536 C 1376.890625 532.386719 1383.308594 525.550781 1391 521.3125 C 1414 508.609375 1440.359375 499.632813 1467 503 L 1467 504 C 1444.25 510.394531 1423 515.441406 1404 530.601563 C 1400 533.683594 1389.207031 540.222656 1389.207031 545.789063 C 1389.207031 549.710938 1399.3125 555.46875 1402 558.039063 C 1413.785156 569.308594 1424.210938 581.210938 1432.945313 595 C 1462.226563 641.230469 1467.890625 694.75 1447 745 L 1446 745 C 1446 736.578125 1446 728.382813 1445 720 C 1444.957031 718.070313 1445.378906 713.195313 1443 712.207031 C 1440.679688 711.117188 1436.671875 716.171875 1435 717.480469 C 1427.839844 723.097656 1419.742188 727.09375 1411 729.570313 C 1377.410156 739.089844 1325.171875 732.546875 1310 696 C 1317.269531 699.75 1323.285156 705.394531 1331 708.546875 C 1356.824219 719.097656 1389.339844 717.632813 1409.984375 697 C 1418.71875 688.25 1420 670.277344 1430 664.007813 C 1440.339844 657.507813 1447.828125 668 1450 677 C 1452.785156 667 1445.242188 653.183594 1441.28125 644 C 1428.359375 614.03125 1410 583.628906 1383 564.515625 C 1375.546875 559.253906 1366.761719 555.441406 1358 553.011719 C 1355.261719 552.253906 1347.796875 552.128906 1346.332031 549.402344 C 1344.425781 546 1349.6875 538.121094 1351.246094 535 C 1358.234375 521.035156 1366.777344 507.492188 1376 495 C 1407.378906 453.242188 1446.644531 415.265625 1501 409.832031 C 1510 409 1520 408 1529 410 M 994 522 C 1023.511719 504.234375 1061.496094 493.296875 1096 500.667969 C 1133.726563 508.730469 1166.179688 540.398438 1184.714844 573 C 1194.328125 590 1201.734375 609.324219 1207 628 C 1211 641.695313 1213 658.242188 1219.785156 671 C 1220.675781 672.5625 1221.664063 673.449219 1223.480469 672.378906 C 1232.222656 667.214844 1238 662 1249 666 C 1268.574219 673 1281.40625 702.296875 1286 721 C 1287.796875 727.730469 1290.175781 738 1286 744 C 1285 740.742188 1285 737.078125 1283.542969 734.015625 C 1274.921875 717.234375 1259.339844 730.503906 1247 728.023438 C 1233.351563 725.28125 1226.546875 715.574219 1211 719.015625 C 1203.25 720.730469 1197 725.695313 1192.515625 732 C 1191.507813 733.363281 1189 738.371094 1186.878906 736.246094 C 1184.367188 734 1184 728.152344 1183 725 C 1179.859375 714.074219 1178 703.40625 1178 692 C 1178 656.773438 1182.839844 624 1169.738281 590 C 1163.46875 573.777344 1155.242188 558.5625 1142.984375 546 C 1135.5625 538.390625 1127.378906 531.339844 1118 526.238281 C 1058.347656 493.777344 1006 541.035156 965 580 C 951.886719 592.398438 937.996094 604.472656 926.269531 618.285156 C 919.21875 626.59375 913 635.476563 907.859375 645 C 904.964844 650.226563 903.40625 657 899 661 C 899.8125 621.683594 913.773438 587.222656 940.171875 558 C 948 549.230469 957.191406 542 967 535.332031 C 970.617188 533 977.878906 530.359375 979.308594 526 C 982.3125 516.664063 974.800781 500.472656 971.398438 492 C 957.921875 458.40625 929.304688 427.816406 892 423 L 892 421 C 945.507813 421 991.722656 469.128906 994 522 M 470 537.425781 C 443.203125 541.070313 417.492188 548.046875 394 562 C 376.351563 572.238281 361.808594 586 349.210938 602 C 309.753906 652.210938 306.953125 725.4375 333.945313 782 C 355.617188 827.421875 390.789063 864.808594 414.691406 909 C 435.449219 947.378906 444.410156 992.660156 438.710938 1036 C 428.574219 1113.082031 378.84375 1176.132813 347.308594 1245 C 322.179688 1300 312.390625 1363.476563 324.664063 1423 C 343.742188 1515.511719 404.238281 1600.273438 486 1648.140625 C 504 1658.734375 522.539063 1668.511719 542 1676.394531 C 547.394531 1678.578125 557.839844 1684.523438 563.679688 1683.496094 C 566.628906 1683 565.347656 1679 565.167969 1677 C 564.554688 1670.074219 564 1663 564 1656 C 563.878906 1632.703125 561 1609.335938 561 1586 C 561 1580.308594 563.925781 1564 560.355469 1559.648438 C 556.511719 1555.066406 546.34375 1553.054688 541 1550.398438 C 527.890625 1544 515.546875 1536.382813 504 1527.339844 C 465.386719 1497.085938 437.449219 1454 421 1408 C 404.507813 1361.511719 407 1309 424.425781 1263 C 442.433594 1215.242188 472.316406 1173 492.511719 1126 C 514.972656 1074 522.710938 1016.8125 511.550781 961 C 500 903.671875 469.238281 857.085938 436.28125 810 C 410.664063 773.40625 380.402344 730.183594 392.476563 683 C 406.847656 627 471 603 523 619 C 559.355469 630.023438 600.496094 666.304688 597.957031 708 C 597.257813 719.453125 584 725.257813 578.386719 734 C 564.914063 754.714844 578.46875 779.714844 600 787.300781 C 632.296875 798.683594 663 768.675781 672.253906 740 C 677.878906 722.40625 676.898438 703 673.539063 685 C 656.609375 594.640625 561.957031 525 470 537.425781 M 1042 567 C 1033 580.410156 1023.742188 594 1027.898438 611 C 1036.78125 647.613281 1084.339844 656.238281 1107.53125 628 C 1113.695313 620.492188 1117.386719 610.75 1116.960938 601 C 1116.855469 598.640625 1116.707031 592.558594 1114.289063 591.207031 C 1113.359375 590.6875 1106.976563 598 1105 598.574219 C 1093.238281 603 1082.828125 591.476563 1086.96875 580 C 1093 563.285156 1111.199219 567.808594 1121.984375 576.519531 C 1146.675781 596.460938 1143 637.253906 1118 655 C 1094.496094 671.566406 1060.53125 670.101563 1037 654.25 C 1008.382813 635 995.355469 574 1042 567 M 977 590.378906 C 984.746094 589.277344 986.933594 595.703125 987.714844 602 C 990.976563 628.378906 1002.855469 646 1025 661.117188 C 1046.515625 676 1074.214844 682 1100 677.566406 C 1108.53125 676.132813 1117 673.710938 1125 670.347656 C 1128.941406 668.6875 1134.496094 665.332031 1138.890625 667 C 1154.1875 672.527344 1133.285156 690 1127 692.546875 C 1092.582031 706.570313 1049.195313 695 1016 682.679688 C 1002 677.554688 987.734375 670.289063 977 660 C 963 646.488281 954 626.277344 961 607 C 963.628906 600.09375 969 591.511719 977 590.378906 M 1299 600 C 1291.480469 619.386719 1284.433594 639 1284 660 L 1282 660 C 1282 642.160156 1283.640625 612.054688 1299 600 M 1303 653 L 1304 653 C 1313 669 1327.625 687.183594 1349 683.1875 C 1371.796875 679 1400.339844 646 1375 626 C 1374.359375 645.742188 1343.804688 637.078125 1350.742188 619 C 1356.984375 602.734375 1378.621094 611.699219 1388 619.015625 C 1405 632.375 1412.8125 654.433594 1404 675 C 1382.78125 725.53125 1303 705.40625 1303 653 M 1088 773 C 1077.734375 767 1057.867188 768 1046 766.828125 C 1010.398438 763.386719 974.707031 764 939 764 C 927.46875 764 915.457031 763.050781 904 764.421875 C 901.820313 764.679688 894.511719 763.40625 894 766.332031 C 893 771.542969 906.769531 790.492188 912 790.386719 C 934 790 956.878906 783.292969 979 781.171875 C 1015.191406 777.699219 1052 777.546875 1088 773 M 1128 785 L 1128 783 C 1076.351563 783 1025 783.34375 974 792.386719 C 961.976563 794.507813 949.957031 796.4375 938 799 C 933.824219 800 926.871094 800.046875 923.378906 802.574219 C 919.992188 805.019531 925.285156 809.246094 927 811 C 932.347656 816.445313 944.714844 832.527344 952 834 C 956 834.59375 962.269531 831 966 829.585938 C 976.183594 826 986.585938 822.8125 997 820 C 1027.34375 811.257813 1057.386719 802.179688 1088 794.527344 C 1100.9375 791.292969 1114.628906 785.609375 1128 785 M 1314 795 C 1319.515625 798 1326.933594 798.0625 1333 799.746094 C 1349.574219 804.34375 1366.296875 808.351563 1383 812.472656 C 1395 815.472656 1409.546875 822.3125 1421.960938 822.757813 C 1426.625 823 1440 807.164063 1439 802.597656 C 1438.644531 800.433594 1433.652344 800.320313 1432 800 C 1424.535156 798.558594 1416.609375 797.105469 1409 797.003906 C 1377.367188 796.578125 1345.753906 795 1314 795 M 1305 807 L 1305 808 C 1321.664063 816 1339.222656 821.742188 1356 829.304688 C 1367.726563 834.589844 1380.371094 842.535156 1393 845.21875 C 1399.964844 846.699219 1400.472656 839.210938 1406 838.527344 C 1415.324219 837.410156 1431.269531 846.070313 1440 849.21875 C 1466.496094 858.769531 1492.730469 869.101563 1519 879.261719 C 1529.730469 883.410156 1541.496094 891 1553 892 C 1536.523438 876.234375 1510.511719 866.082031 1490 856.625 C 1434 830.820313 1367.34375 807 1305 807 M 1302 818 C 1305 824.539063 1312.585938 827.617188 1318 832.144531 C 1329 841.394531 1340.59375 850 1352 858.652344 C 1357 862.589844 1363.515625 869 1370 870.292969 C 1377.519531 872 1379.25 859.539063 1387 863 C 1415.496094 875.664063 1443.175781 892.589844 1470 908.453125 C 1485.261719 917.476563 1501.324219 929 1518 935 C 1505.398438 917.125 1480.289063 903 1462 891.320313 C 1412.46875 860 1358.769531 833.496094 1302 818 M 1216 841.285156 C 1237.671875 838.625 1265.765625 861.636719 1257.449219 885 C 1252.246094 899.628906 1237.347656 906 1223 907.710938 C 1202 910.421875 1166.621094 895.769531 1173.558594 869 C 1177.71875 853 1201.179688 843.105469 1216 841.285156 M 1437 985.398438 C 1444.644531 983.785156 1447.464844 990.59375 1446.714844 997 C 1445.46875 1007.597656 1441 1029 1428 1030.753906 C 1419.957031 1032 1416.964844 1022.421875 1417 1016 C 1417.410156 1005.121094 1425.304688 988 1437 985.398438 M 1642 1060 C 1636.804688 1075.355469 1626.210938 1098 1613.960938 1108.785156 C 1608.695313 1113.457031 1601.269531 1115 1595 1118 C 1587.582031 1121.316406 1580.628906 1126.128906 1573 1129 C 1575.777344 1121 1583.777344 1115.28125 1588 1108 C 1593 1100 1594.574219 1087.527344 1600 1080.390625 C 1602.507813 1077.109375 1607.425781 1075.535156 1611 1073.753906 C 1620.546875 1069 1631.636719 1062.371094 1642 1060 M 1352 1258 C 1352 1234.378906 1348.277344 1212.246094 1337.214844 1191 C 1334.402344 1185.597656 1319.808594 1169.664063 1322 1164.210938 C 1324.65625 1158.429688 1337.726563 1153 1343 1149.800781 C 1361.964844 1138.398438 1381 1127.164063 1400 1115.800781 C 1404.816406 1113 1418 1102.570313 1423.683594 1104 C 1426.921875 1104.632813 1429 1116.046875 1430.4375 1119 C 1435.261719 1130 1443.699219 1140.011719 1453 1147.332031 C 1461 1153.714844 1471 1158.769531 1481 1161.570313 C 1482.863281 1162.097656 1491.609375 1162.394531 1492 1164.417969 C 1492.675781 1167.007813 1486.652344 1170 1485 1171 C 1476.410156 1176.398438 1467.714844 1181.75 1459 1187 C 1434.441406 1201.796875 1410.617188 1218.261719 1387 1234.507813 C 1375.910156 1242.136719 1364.609375 1253.148438 1352 1258 M 1308 1191 C 1291.859375 1173 1273.644531 1146.273438 1245 1151 L 1245 1152 C 1259.472656 1154.257813 1274.609375 1172.820313 1279.300781 1186 C 1281.496094 1192.167969 1283 1203.300781 1274.960938 1206.050781 C 1269.621094 1208 1262.960938 1203.046875 1258 1201.585938 C 1254.328125 1200.5 1249.621094 1202.765625 1246.378906 1201 C 1240.578125 1197.65625 1236.890625 1188 1231.910156 1183.285156 C 1218.414063 1170.5625 1192.566406 1166.175781 1179 1182 C 1198.601563 1182.054688 1216.582031 1194.039063 1225.960938 1211 C 1230.605469 1219.398438 1233.578125 1235.402344 1221.984375 1239.734375 C 1207.496094 1245.148438 1193.199219 1230 1183 1222.238281 C 1172.421875 1214.242188 1160.230469 1212.738281 1148 1218 C 1161.449219 1222 1174 1233.15625 1178 1247 C 1181 1257.386719 1177 1270.5 1164 1270 C 1150.609375 1269.34375 1145.550781 1254.3125 1139.324219 1245 C 1136.914063 1241.394531 1132.363281 1234.121094 1127 1235.5625 C 1116 1238.523438 1115 1260.253906 1115 1269 L 1114 1269 C 1105.175781 1252.257813 1103.332031 1230 1114.925781 1214 C 1119.96875 1207.089844 1126.574219 1203.28125 1133 1198 C 1096 1202.757813 1060.890625 1207.453125 1024 1198.765625 C 967.476563 1185.457031 904.703125 1140.03125 845 1159.027344 C 827.425781 1164.621094 818.28125 1178 804 1188 C 806 1179.222656 813.261719 1170.746094 819 1164 C 838 1141.578125 860.363281 1131.382813 889 1127.574219 C 918.609375 1123.640625 949.746094 1136 977 1146 C 1014.324219 1159.585938 1053.667969 1172.675781 1094 1170 C 1143.792969 1166.496094 1186.355469 1133 1236 1132.015625 C 1266.445313 1131.414063 1310.351563 1155.535156 1308 1191 M 1533 1256 C 1506 1266.183594 1481.484375 1288.328125 1458 1304.492188 C 1404.246094 1341.492188 1351.835938 1381.132813 1302 1423.273438 C 1285.300781 1437.398438 1268.191406 1451.230469 1252 1466 C 1248.585938 1469.070313 1236.960938 1477.757813 1238.347656 1483 C 1240.328125 1490.285156 1257.679688 1497.316406 1264 1500.476563 C 1295.957031 1516.460938 1330.621094 1516.324219 1361 1497.046875 C 1382.71875 1483.261719 1399 1463.53125 1415.285156 1444 C 1446.769531 1406.199219 1474 1365 1497.859375 1322 C 1509.394531 1301.203125 1525.824219 1278.671875 1533 1256 M 1215 1353 C 1211.957031 1359.011719 1205.195313 1363.058594 1200 1367.199219 C 1189 1376 1177.855469 1384.285156 1167 1393.09375 C 1131.75 1421.695313 1097.640625 1451.742188 1064 1482.171875 C 992.742188 1546.617188 925.550781 1615.722656 861.171875 1687 C 836.945313 1713.820313 812.714844 1740.554688 788 1767 C 776.871094 1779.050781 766.515625 1794.472656 753 1804 C 756 1794.082031 764.847656 1785.527344 770.65625 1777 C 784.570313 1756.570313 799.398438 1736.511719 814.574219 1717 C 845 1678 876.59375 1639.335938 909.285156 1602 C 934.5 1573.203125 961.839844 1545.507813 985 1515 C 968.382813 1525.394531 953.828125 1540.816406 939 1553.691406 C 910 1579.011719 881.21875 1604.78125 854 1632 C 836.980469 1649.019531 818.519531 1675 797 1686 C 808 1660.503906 817.6875 1639.613281 816.984375 1611 C 816.730469 1600.515625 814.441406 1590.046875 811.578125 1580 C 810.363281 1575.738281 807.222656 1569.511719 809.179688 1565.171875 C 812.605469 1557.5625 821.984375 1551.382813 828 1546 C 842.667969 1532.621094 857.511719 1519.476563 872 1506 C 924.726563 1457 982 1410 1040 1367.117188 C 1055.589844 1355.621094 1070.878906 1343.75 1087 1333 C 1092 1329.660156 1099 1322.644531 1105 1321.457031 C 1109.351563 1320.585938 1113.316406 1326.347656 1116 1329 C 1123.796875 1336.695313 1133 1343.101563 1143 1348 C 1167.507813 1359.6875 1189.53125 1355.027344 1215 1353 M 795 1509 C 786.515625 1505.214844 778.714844 1506.050781 770 1503.710938 C 755.664063 1500 743.511719 1491.308594 728 1495 L 728 1496 C 743.78125 1497.289063 763.90625 1513 769 1528 C 749.828125 1518 704.59375 1504.628906 699 1537 C 715 1527.46875 735.324219 1536 746 1550.015625 C 752.699219 1558.617188 756.5625 1573 745.957031 1580.296875 C 721.835938 1597.238281 703.285156 1547 678.207031 1560.789063 C 673.449219 1563.433594 687.695313 1572 689.984375 1574.089844 C 700.410156 1584.042969 714 1608.039063 699.867188 1620.605469 C 685.449219 1633.398438 667.609375 1614.457031 660.371094 1603 C 657.929688 1599.136719 655.664063 1592.386719 650.90625 1591 C 644.253906 1588.667969 636.980469 1597.472656 633.609375 1602 C 622.675781 1616.695313 618.414063 1636.082031 617 1654 C 607.691406 1641.777344 613.191406 1614.6875 616.351563 1601 C 624.554688 1565.445313 649.179688 1533 673.960938 1507 C 686 1494.40625 699 1482.761719 716 1477.34375 C 737.398438 1470.488281 760.449219 1471.445313 779 1485.15625 C 786.492188 1490.691406 794.378906 1499.3125 795 1509 M 985 1514 L 986 1515 L 985 1514 "/>
</g>
</svg>
