<?xml version="1.0" encoding="UTF-8"?>
<svg xmlns="http://www.w3.org/2000/svg" xmlns:xlink="http://www.w3.org/1999/xlink" width="2000pt" height="2000pt" viewBox="0 0 2000 2000" version="1.1">
<g id="surface1">
<path style=" stroke:none;fill-rule:nonzero;fill:rgb(0%,0%,0%);fill-opacity:1;" d="M 324 794 C 308.71875 784 295.523438 770 288.226563 753 C 284.246094 743.761719 283.640625 732.589844 278.519531 724 C 274.402344 717.097656 267.636719 712.03125 262.425781 706 C 253.359375 695.507813 245.652344 684.21875 239 672 C 229.820313 654.761719 222.644531 635.113281 218.425781 616 C 216.480469 607.191406 216.523438 597.53125 214 589 L 213 589 C 197.203125 626.191406 193.632813 670.558594 186.535156 710 C 174.996094 774.152344 160.9375 840.515625 167.171875 906 C 176.183594 1000.699219 204.785156 1092.648438 208.960938 1188 C 209.835938 1208.023438 209.878906 1229.234375 206.386719 1249 C 198.707031 1292.433594 181.269531 1333.496094 173.425781 1377 C 162.835938 1435.738281 167 1495.570313 167 1555 C 167 1626.578125 165.210938 1698 172.835938 1769 C 176.242188 1800.804688 180.898438 1839.367188 203.171875 1864 C 229.25 1893 275 1885 310 1885 L 696 1885 C 715.671875 1885 736.445313 1883.078125 756 1885.175781 C 772.953125 1887 790.589844 1894.011719 807 1898.574219 C 828.320313 1904.503906 850.179688 1909.242188 872 1913 C 947.722656 1925.679688 1024.371094 1927.121094 1101 1927 C 1140.265625 1927 1183.671875 1926.632813 1221 1913 C 1231.375 1909.144531 1241.191406 1904.222656 1250 1897.496094 C 1254.84375 1893.800781 1259.980469 1886.824219 1266 1885.316406 C 1275.871094 1883 1288.824219 1885 1299 1885 L 1370 1885 C 1388.40625 1885 1406 1890.570313 1424 1894.765625 C 1444.339844 1899.546875 1465.285156 1903 1486 1905.71875 C 1534.199219 1912.054688 1588.863281 1914.753906 1637 1906.714844 C 1648 1905 1658 1900 1669 1897.519531 C 1675.527344 1896.125 1682.398438 1897.53125 1689 1896.824219 C 1701.953125 1895.4375 1714.832031 1890.523438 1726 1884 C 1818.726563 1829.707031 1797 1695.296875 1736.710938 1626 C 1719 1605.648438 1696 1588.816406 1672 1576.753906 C 1654.484375 1568 1636.859375 1561.757813 1618 1556.574219 C 1610.914063 1554.628906 1601.25 1551.085938 1594 1552 C 1603.339844 1561 1614.542969 1568.121094 1622 1579 C 1568.386719 1540.050781 1476.679688 1531.265625 1425 1579.300781 C 1412.398438 1591.121094 1407.992188 1611.667969 1398.484375 1626 C 1374.546875 1662.085938 1330.675781 1687.464844 1288 1671 L 1288 1670 C 1327.75 1659.714844 1362.90625 1643.832031 1382.5 1605 C 1385.953125 1598.152344 1393.367188 1587 1393 1579.105469 C 1393 1574.011719 1379.84375 1565.40625 1376.902344 1560 C 1370.363281 1548 1371 1534.203125 1371 1521 L 1372 1521 C 1374.648438 1527.445313 1377.835938 1533.621094 1382.324219 1539 C 1406.253906 1567.664063 1440.652344 1551.722656 1461.714844 1528 C 1493.796875 1492 1506.347656 1436.429688 1501.828125 1389 C 1499.96875 1369.4375 1497.375 1348 1488.742188 1330 C 1486.679688 1325.734375 1483.335938 1316.261719 1478.792969 1314.175781 C 1475.503906 1312.667969 1467.785156 1326.054688 1464.996094 1328.386719 C 1445.585938 1344.589844 1434 1363 1434 1389 L 1435 1389 C 1438.84375 1382.421875 1442.457031 1375.328125 1448 1370 C 1447.433594 1396.558594 1425.425781 1419.597656 1405 1434 C 1401.679688 1436.300781 1383.625 1450.125 1380 1445.46875 C 1378.382813 1443.265625 1379.914063 1438.480469 1380.269531 1436 C 1381.601563 1426.753906 1383.652344 1418 1386.496094 1409 C 1393.644531 1386.625 1397 1364.332031 1382.214844 1344 C 1366.675781 1322.664063 1342.375 1333.191406 1321 1332 C 1313 1331.5 1305 1324.515625 1306.382813 1316 C 1308 1305 1322.890625 1299.160156 1332 1296 C 1361.859375 1285.042969 1388.671875 1293 1419 1293 C 1428.40625 1293.015625 1453.746094 1293.640625 1455.417969 1280.011719 C 1456 1275 1448.503906 1271.617188 1445 1269.425781 C 1432.265625 1261.457031 1419.34375 1253.660156 1408 1243.714844 C 1370.628906 1211 1341.742188 1163.398438 1320.257813 1119 C 1293.769531 1064.25 1284.390625 1003.445313 1287 943 C 1289.398438 889.089844 1297.988281 834 1292.828125 780 C 1289.210938 742.117188 1276.828125 711.410156 1262 677 C 1272.832031 689 1280.839844 704 1288.296875 718 C 1308 755.347656 1318 797.066406 1320.910156 839 C 1323.890625 882.535156 1317.917969 926.46875 1318.984375 970 C 1319.871094 1006.144531 1327.566406 1040.15625 1342.835938 1073 C 1347.8125 1083.699219 1354.347656 1100 1365 1106 C 1355 1082.003906 1341.675781 1048.566406 1348 1022 L 1349 1022 C 1349.511719 1047 1360.800781 1073.476563 1377.183594 1092 C 1389.5625 1106 1407.519531 1109 1420.675781 1094 C 1445.433594 1065.695313 1444.257813 1015.628906 1433 982 C 1429.496094 971.101563 1422.933594 961.65625 1419 951 C 1458.960938 974.34375 1479.457031 1017 1473.714844 1063 C 1471.890625 1077.679688 1462.636719 1093 1462 1107 C 1466.949219 1102.675781 1470.6875 1096 1473.324219 1090 C 1473.886719 1088.722656 1474.914063 1084.054688 1476.789063 1084.054688 C 1479.179688 1084.054688 1479.984375 1093.246094 1480.335938 1095 C 1482.757813 1107.109375 1481.921875 1122.128906 1475.902344 1133 C 1464.6875 1153.246094 1441.878906 1164.753906 1419 1163 C 1413.777344 1162.484375 1409 1160 1404 1159 C 1418.90625 1189 1448.214844 1211.433594 1465.9375 1240 C 1471.667969 1249.238281 1476.945313 1259.324219 1479.335938 1270 C 1480.6875 1276.035156 1479.324219 1284.59375 1482 1290 C 1484.996094 1296 1491.527344 1300.632813 1495.523438 1306 C 1502.628906 1315.550781 1508 1326.0625 1512.667969 1337 C 1526.234375 1369.097656 1527.914063 1406 1523.714844 1440 C 1522.289063 1451.5625 1517 1462.675781 1516 1474 C 1525.28125 1466.773438 1535.507813 1468.46875 1547 1470 C 1565.625 1472.074219 1584.402344 1473.078125 1603 1475.730469 C 1656.796875 1483.398438 1711 1492.527344 1763 1509.027344 C 1782.203125 1515.132813 1801.265625 1522.023438 1820 1529.449219 C 1828.683594 1533 1837 1538.394531 1846 1541 C 1842.992188 1534.832031 1836.203125 1531.179688 1831 1527 C 1815.546875 1514.25 1798.316406 1504 1781 1494 C 1707.675781 1452.117188 1605.808594 1427.59375 1525 1458 C 1537.996094 1423.550781 1538.242188 1382 1532.703125 1346 C 1529.878906 1327.695313 1522.71875 1308.6875 1524 1290 C 1525.316406 1273.277344 1534.839844 1256.195313 1539 1240 C 1548 1206.070313 1553.320313 1170.191406 1550.910156 1135 C 1549.414063 1113.15625 1544.78125 1090.328125 1536.546875 1070 C 1526.816406 1046 1511.816406 1023.648438 1506.359375 998 C 1497.925781 958.347656 1505.9375 920.433594 1485.691406 883 C 1473.214844 860 1455.191406 839.714844 1434 824.292969 C 1421.535156 815.222656 1402 810.316406 1394 797 C 1381.765625 776.042969 1377.265625 750.691406 1368.945313 728 C 1358.4375 699.335938 1342.507813 672.4375 1321.816406 650 C 1279.832031 604.359375 1216 591.605469 1158 579.800781 C 1144.390625 577.035156 1130.585938 575.445313 1117 572.664063 C 1114.296875 572.109375 1105 569.183594 1103 571.695313 C 1100.882813 574.59375 1104.296875 583 1105 586 C 1108.769531 599.210938 1115 612.453125 1117 626 L 1116 626 C 1110 607.113281 1093.390625 589.121094 1079 576.171875 C 1073.605469 571.316406 1067 565 1060 563 C 1063.734375 571.832031 1070.839844 579.28125 1075 588 C 1083.886719 605.765625 1087.945313 626.265625 1088 646 L 1087 646 C 1078.640625 612.09375 1065 585.132813 1034 566 C 1026 561.007813 1017 557.691406 1008 556.085938 C 1005.617188 555.664063 1000.175781 554 998.605469 556.605469 C 996.285156 560.683594 999.921875 571.457031 1000.578125 576 C 1002.9375 592.273438 1004.273438 608.648438 1005.828125 625 C 1008.871094 657 1007.894531 689.183594 1003.710938 721 C 1001.59375 737.09375 995.398438 753 994 769 L 992 769 C 992 723.210938 985.226563 678.550781 982 633 C 978.898438 586.648438 978.394531 540 970.714844 494 C 962.746094 446.285156 947.320313 401.589844 929 357 L 928 357 C 930.242188 372.226563 937 387 940.5 402 C 947.769531 433.503906 954 465.136719 959.433594 497 C 961.339844 508.347656 963.511719 519.648438 965.414063 531 C 966 535 968.636719 542 967.226563 545.679688 C 965.964844 549.097656 959.683594 547.078125 957 547.015625 C 946.300781 546.753906 935.675781 545.28125 925 545.015625 C 922.753906 545 913.578125 543.367188 913 546.355469 C 912.265625 551.1875 919 560 921.222656 564 C 928.640625 578.253906 934.949219 593 940.574219 608 C 957.894531 654.3125 966 700 970 749 L 969 749 C 967.714844 738.679688 962 727.648438 958.199219 718 C 950.746094 699.367188 943 680.804688 936 662 C 902.921875 573.136719 856.421875 491.722656 783.425781 430 C 759.214844 409.511719 727.972656 384.09375 697 375 C 700.285156 381.492188 707.679688 385.386719 713 390.171875 C 723.445313 399.566406 734 409.066406 743.984375 419.015625 C 770.441406 445.511719 795.246094 474.492188 817 505 C 825.550781 517 836 529.429688 842 543 C 819.273438 543 796.699219 542 774 542 C 760.265625 542 743.238281 542.769531 731 535.652344 C 719.261719 528.824219 711.355469 516.03125 704 505 C 687.859375 480.789063 675 455 661.742188 429 C 621 349.570313 585.75 267.070313 535.34375 193 C 514.191406 162 487.398438 123.527344 451 109.265625 C 381 82 334 166.519531 305.859375 217 C 299.8125 227.832031 294.289063 239 288.753906 250 C 253.21875 321.253906 235 400.6875 235 480 C 235 517 238 554.617188 249.34375 590 C 256.675781 613 266.675781 634.808594 279.859375 655 C 289.300781 669.457031 302 682.683594 308.25 699 C 315.527344 718.222656 306.492188 738.109375 308 758 C 309.195313 771.6875 317.492188 782.566406 324 794 M 1215 560 C 1211.976563 542.433594 1205.734375 529.578125 1209.449219 511 C 1220.777344 454.351563 1270 405.554688 1323 385.574219 C 1339.839844 379.21875 1361.867188 371.683594 1380 376 C 1367.597656 382.226563 1353.476563 384.773438 1341 391.320313 C 1308.335938 408.460938 1280.714844 436.613281 1263 469 C 1258.597656 477.230469 1252 487 1250 496 C 1261.273438 490.746094 1271 479.789063 1282 473.203125 C 1307.808594 457.617188 1330.765625 454.671875 1360 457 L 1360 458 C 1320.808594 469.019531 1282 491.628906 1268 533 C 1275.351563 530.214844 1281.695313 525 1289 522 C 1303.269531 515.761719 1319.691406 513.5 1335 515 C 1343.414063 515.707031 1354.238281 517.296875 1360 524 C 1344 524.011719 1326.714844 529 1313 537 C 1311 538.109375 1300 544.421875 1301.460938 547.320313 C 1302.339844 549.089844 1312.859375 549 1315 549.273438 C 1326.371094 551.035156 1337 555.128906 1346 562.464844 C 1370.609375 582.644531 1375 614.140625 1382 643 C 1384.722656 638.457031 1383.753906 633.097656 1384.425781 628 C 1386.417969 612.828125 1385.71875 597.230469 1387.171875 582 C 1391.4375 537.140625 1398.683594 493.066406 1408.210938 449 C 1419.546875 396.554688 1437 346 1450.628906 294 C 1456.871094 270.019531 1462.636719 246.117188 1468.253906 222 C 1474.464844 195.339844 1483.84375 140 1452 125.1875 C 1424.320313 112.390625 1382.816406 140 1361 155.027344 C 1262.816406 222.816406 1182.675781 316 1099 400 C 1071.21875 428 1044.339844 457.445313 1018.285156 487 C 1012.199219 494 1006.210938 501 1000.386719 508 C 999 509.65625 994.300781 513.65625 995.347656 516.140625 C 996.605469 519.136719 1006.25 519 1009 519.433594 C 1022.617188 521.71875 1036.320313 523.347656 1050 525.285156 C 1085.785156 530.359375 1121.824219 537.546875 1157 546 C 1176 550.417969 1195.585938 557.144531 1215 560 M 1389 720 C 1398.332031 714.617188 1404.175781 698.746094 1410.425781 690 C 1425.300781 669.199219 1442 650 1459.171875 631 C 1508.386719 576.601563 1565.621094 530.332031 1631 497 C 1625.195313 495 1614.660156 500.308594 1609 502.425781 C 1590.546875 509.324219 1572.347656 516.289063 1555 525.691406 C 1479.6875 566.519531 1415.753906 638 1389 720 M 1414 763 C 1423.902344 757.726563 1432.28125 739 1439.613281 730 C 1456.707031 709.230469 1476.816406 690.023438 1497 672.285156 C 1569.679688 608.414063 1657.722656 554.652344 1752 530 C 1744.835938 527 1735.472656 530.363281 1728 531 C 1703.703125 532.691406 1679.28125 539.296875 1656 546.28125 C 1576.738281 570.058594 1506.511719 617.59375 1456.628906 684 C 1440 706.03125 1418.785156 735.199219 1414 763 M 385 564 C 400.605469 584.53125 412.957031 603 434 619.113281 C 454 634.507813 480.351563 645.734375 495 667 C 485.4375 666.042969 476.898438 662.011719 467 662 C 464.933594 662 459.40625 661.164063 458.207031 663.472656 C 457 665.605469 461.789063 667.085938 463 667.664063 C 469.25 670.648438 475 674.546875 481 678.191406 C 501.886719 691.140625 524.59375 712.40625 529 738 C 517.726563 734 508.398438 727.304688 496 726.324219 C 467.351563 724.0625 449.339844 750.679688 444 775 C 436.390625 811 445.710938 853.066406 454.882813 888 C 458.195313 900.605469 464 913.125 466 926 C 447.203125 917.234375 433 889 422.308594 872 C 412.796875 857.207031 403.289063 842.324219 393 828 C 369.441406 794.785156 340.78125 757.496094 354 714 C 359.707031 718 364.59375 722.578125 371 725.410156 C 378.511719 728.730469 387.683594 732 396 731.820313 C 398.417969 731.816406 403.410156 731.5625 404.246094 728.6875 C 406.320313 721.558594 395.5 705.015625 391.988281 699 C 379.867188 678.238281 361 654.117188 357 630 C 365.769531 634.066406 373 641.402344 382 645.742188 C 395.675781 652.40625 410.246094 655 425 658 C 421.65625 651 414.523438 645.269531 409.664063 639 C 397.632813 623.472656 388.679688 603.421875 385.589844 584 C 384.621094 578 382.550781 569.832031 385 564 M 845 614 C 878 641 908.914063 677.597656 929.457031 715 C 935.503906 726.011719 944.789063 739.597656 947 752 C 936.8125 744.136719 929.613281 730.242188 921.871094 720 C 904.203125 696.628906 886.871094 673.03125 870 649 C 863.621094 639.683594 846.4375 625.117188 845 614 M 1437 784 C 1447.234375 779.234375 1456.429688 768.382813 1465 761 C 1480.6875 747.492188 1497 734.46875 1514 722.425781 C 1561.566406 688.421875 1613.492188 661.167969 1669 642.667969 C 1688.445313 636.183594 1708.585938 628.59375 1729 626 L 1729 624 C 1643.859375 624.007813 1552 656.683594 1489 714 C 1473.839844 727.675781 1460.6875 743 1449.332031 760 C 1444.65625 767.027344 1438.613281 775.636719 1437 784 M 1262 677 C 1260.363281 676.453125 1260.546875 676.636719 1260 675 C 1261.3125 675.769531 1261.230469 675.6875 1262 677 M 1469 817 C 1477.613281 813.054688 1485 805.273438 1493 800.003906 C 1508.339844 790 1524.691406 780.597656 1541 772.105469 C 1590.421875 746.367188 1642.988281 728 1697 714.527344 C 1726.542969 707.234375 1758.53125 701 1789 701 L 1789 699 C 1760.433594 696.742188 1732.894531 692.773438 1704 694.039063 C 1640.792969 696.808594 1573.742188 716.65625 1524 756.804688 C 1508 769.605469 1492.742188 782.640625 1480.375 799 C 1476 804.59375 1470.636719 810.035156 1469 817 M 1000 869 C 984 858.480469 969.511719 847.328125 952 839.308594 C 904.207031 817.425781 858.761719 820.59375 809 832 C 815.804688 821.609375 840.527344 817.476563 852 814.628906 C 891.972656 804.691406 938.304688 809.597656 972 834.628906 C 982.628906 842.523438 996.84375 855.5625 1000 869 M 1422 877 L 1422 878 C 1397.644531 886.449219 1380 901.089844 1365 922 C 1363.394531 916.554688 1368 910.675781 1370.574219 906 C 1381.3125 885.335938 1399.515625 877 1422 877 M 1023 1146 C 1045 1138 1070 1121 1095 1127.613281 C 1107.742188 1131.03125 1113.378906 1144.515625 1116.574219 1156 C 1124.6875 1185.144531 1115.347656 1211.242188 1113 1240 L 1111 1240 C 1111 1220 1107.328125 1197.476563 1099 1179 C 1095.433594 1170.644531 1090.179688 1162 1081 1159 C 1073.476563 1156.460938 1063.875 1161.285156 1057 1164.140625 C 1043.722656 1169.652344 1030 1174.324219 1016 1177.5 C 980.550781 1185.523438 943.976563 1182.386719 910 1169.574219 C 861.660156 1151.34375 817.707031 1118.660156 784.921875 1079 C 775.25 1067.300781 764.589844 1053 760.761719 1038 C 759.199219 1032 760.40625 1021.800781 769 1022.582031 C 775.804688 1023.203125 781 1031.054688 784.730469 1036 C 793.949219 1048.394531 802.429688 1064.746094 815 1074 C 799.25 1033.113281 820.667969 997.8125 855 974.671875 C 865.257813 967.753906 877.550781 960 890 958 C 888.808594 961.605469 886.675781 964.609375 885 968 C 903.554688 959.722656 932 965 932.957031 990 C 933.65625 1009 916.894531 1018.40625 900 1018 C 895.496094 1018 878 1010.609375 878 1014.101563 C 878 1022.585938 881 1032.015625 883.671875 1040 C 895.851563 1077.003906 935.5625 1133.617188 979 1102 C 984.253906 1098 988.800781 1093.304688 992.5625 1088 C 1013.285156 1058.757813 1015 1017 1002.773438 984 C 998.246094 972 989.539063 961.800781 985 950 C 994.910156 953 1003.855469 959.507813 1012 965.628906 C 1051.910156 995.621094 1068.664063 1047.242188 1054.277344 1095 C 1048 1115.507813 1034.933594 1129.042969 1023 1146 M 1374 958.375 C 1391.230469 957.46875 1400.90625 977.101563 1397.472656 992 C 1394.71875 1004 1383.765625 1011.0625 1372 1011.402344 C 1339.238281 1012.34375 1346.890625 959.804688 1374 958.375 M 1349 1004 L 1349 1007 L 1348 1007 C 1348.25 1005.546875 1348.316406 1005.246094 1349 1004 M 1534 1342 C 1564.304688 1341.375 1594.609375 1333.371094 1625 1332.039063 C 1660.9375 1330.464844 1693.796875 1336.453125 1729 1341 C 1721.292969 1332.007813 1704.894531 1328.164063 1694 1324.308594 C 1657 1311.230469 1616.183594 1307.535156 1578 1317.128906 C 1564 1320.613281 1540.90625 1328.371094 1534 1342 M 1260 1338 C 1273.886719 1351.597656 1292 1360 1311 1364.113281 C 1321 1366.394531 1336.269531 1364.351563 1342.855469 1374.09375 C 1349.957031 1384.597656 1345.242188 1402.214844 1345 1414 C 1336.195313 1409.300781 1329.300781 1399.398438 1321 1393.429688 C 1305.707031 1382.429688 1288 1375.300781 1274 1362.574219 C 1268.625 1357.679688 1257.664063 1346.007813 1260 1338 M 1540 1388 C 1626.378906 1387.296875 1711 1372 1796 1396 C 1786.882813 1384.382813 1765.382813 1378.75 1752 1373.398438 C 1704 1354.21875 1651.9375 1347.417969 1601 1356.082031 C 1581.679688 1359.367188 1549.199219 1368.679688 1540 1388 M 961 1397 L 961 1398 C 944 1402.027344 924.355469 1399.277344 907 1400.039063 C 865.710938 1402 824.390625 1403 783 1403 C 670.734375 1403 561.320313 1403.230469 451 1426 C 458 1418 474 1415 484 1411.308594 C 512.660156 1401.105469 541.3125 1393.125 571 1386.574219 C 663.878906 1366.089844 761.832031 1362.597656 856 1375.28125 C 891.613281 1380.078125 926 1389.007813 961 1397 M 1749 1423 C 1743.601563 1414.570313 1719.464844 1412 1710 1409.765625 C 1670.3125 1400.417969 1626.566406 1396 1586 1401.730469 C 1572.585938 1403.640625 1559.238281 1406.566406 1547 1412.605469 C 1544.265625 1414 1536 1417.328125 1536.921875 1421.402344 C 1537.464844 1424.277344 1546.871094 1424.003906 1549 1423.824219 C 1561.539063 1422.78125 1574.410156 1422 1587 1422 C 1640.816406 1422 1695.449219 1413.058594 1749 1423 M 965 1437 C 955.761719 1443.347656 937 1442.695313 926 1444.269531 C 890.777344 1449.304688 855.351563 1451.792969 820 1455.171875 C 697.511719 1467 573.726563 1464.34375 454 1498 C 461.523438 1490.402344 476 1487.746094 486 1484 C 512.175781 1473.820313 539 1466.03125 566 1458.289063 C 660.351563 1431.207031 760.644531 1425.699219 858 1430 C 882 1431.015625 905.976563 1432.226563 930 1434 C 941 1434.691406 954.28125 1433.832031 965 1437 M 952 1469 L 952 1470 C 916.5625 1485.6875 877.582031 1496.660156 841 1509.691406 C 783.25 1530.265625 725 1552.03125 664 1561 C 667.574219 1555.265625 677 1552.816406 683 1550 C 699 1542.269531 715.425781 1535.230469 732 1528.601563 C 778 1510.148438 825.804688 1495.175781 874 1483.128906 C 898.367188 1477.035156 926.847656 1469.070313 952 1469 M 837 1477 L 837 1478 C 732 1511.539063 623.59375 1532.46875 519 1567.332031 C 476 1581.664063 433.679688 1597.09375 392 1615 C 372.511719 1623.152344 353.214844 1637.175781 333 1643 C 340.78125 1632.046875 355 1624.269531 366 1616.574219 C 395.625 1595.613281 428 1576.832031 461 1561.691406 C 580.226563 1507 705.570313 1477 837 1477 M 1359 1491 C 1352.628906 1534.136719 1311 1578.703125 1273 1596.230469 C 1257.480469 1603.359375 1236 1610.121094 1220 1602 L 1220 1601 C 1254.511719 1587.265625 1289.371094 1566 1316 1540 C 1325.4375 1530.777344 1334.546875 1521.296875 1342.800781 1511 C 1347.96875 1504.550781 1352.511719 1496.078125 1359 1491 M 1015 1498 L 1015 1500 C 1000.683594 1502.433594 986.410156 1509.695313 973 1515.078125 C 953.636719 1523 934 1530.246094 915 1538.574219 C 902.933594 1543.824219 884 1549.390625 875 1559 C 995.277344 1531.507813 1148.28125 1538 1235.714844 1637 C 1277 1684 1322 1746.746094 1301.71875 1813 C 1296.644531 1829.496094 1286 1852.609375 1270 1861 C 1283.714844 1813.378906 1286 1768.714844 1260.421875 1724 C 1253.839844 1712.5 1244.824219 1696.660156 1233 1690 C 1254.558594 1742 1268 1807.386719 1238 1859 C 1223.429688 1884.375 1196 1899.09375 1167 1899 C 1159 1899 1146.5 1899 1140 1894 C 1157.691406 1888.722656 1174.4375 1884.164063 1189 1871.699219 C 1242.960938 1825.515625 1234.753906 1737.429688 1198.644531 1683 C 1158.925781 1623.128906 1092.210938 1595 1023 1586.285156 C 931.238281 1575 835.5625 1580.394531 746 1604 C 666.769531 1624.664063 591.628906 1657.773438 519 1695.257813 C 485.464844 1712.566406 452.363281 1731.640625 421 1752.671875 C 403.894531 1764.140625 385.878906 1781.019531 367 1789 C 376 1776.015625 390.367188 1765.625 402 1755 C 431.179688 1728.046875 462.402344 1703.546875 495 1681 C 601.527344 1607.210938 725.476563 1563 850 1530.117188 C 889.925781 1519.617188 930 1509.515625 971 1503.714844 C 985.414063 1501.671875 1000.464844 1498.121094 1015 1498 M 1072 1671 C 1107.183594 1715.480469 1134.445313 1786.023438 1122 1843 C 1114.605469 1877.707031 1090.230469 1904.59375 1052 1899.574219 C 1045.792969 1898.761719 1039.496094 1899.453125 1034 1896 C 1043.957031 1892.546875 1053.492188 1889 1062 1882.476563 C 1112.238281 1844.183594 1102.941406 1772.738281 1089.667969 1719 C 1087 1708.53125 1083 1697.828125 1078.695313 1688 C 1076.40625 1683 1071.921875 1676.613281 1072 1671 M 1486 1672 C 1504.761719 1717.742188 1520.863281 1767.097656 1512.414063 1817 C 1507.4375 1846.390625 1488.644531 1877.09375 1455 1872.710938 C 1444.3125 1871.320313 1435.3125 1866 1426 1861 L 1426 1860 C 1479.230469 1838.820313 1493.253906 1779.316406 1490.960938 1727 C 1490.40625 1714.328125 1489.332031 1701.613281 1487.828125 1689 C 1487.183594 1683.574219 1483.9375 1677.28125 1486 1672 M 922 1680 C 956.429688 1730.363281 991 1790.34375 979.914063 1854 C 977.40625 1868.265625 970.375 1882.816406 958 1891.046875 C 936.257813 1905.507813 903.496094 1897.320313 893 1873 C 897 1874.671875 900.523438 1877.46875 905 1878 C 926 1880 942.609375 1858.496094 948.945313 1841 C 962.253906 1804.261719 951 1758.527344 938.996094 1723 C 935.644531 1713.164063 931.828125 1703.328125 927.242188 1694 C 925.214844 1690 921.222656 1684.660156 922 1680 M 1689 1700 C 1693.441406 1710.019531 1696.804688 1721.265625 1698.996094 1732 C 1709.375 1782.8125 1705.640625 1862 1645 1880 C 1636.972656 1882.347656 1629.316406 1883 1621 1883 C 1627.332031 1874.277344 1640 1868.058594 1647.714844 1860 C 1666.605469 1840 1678.601563 1814.539063 1685.253906 1788 C 1690.183594 1768.335938 1691.480469 1747.203125 1690.984375 1727 C 1690.789063 1719.003906 1685.925781 1707.394531 1689 1700 M 1623 1709 C 1628.421875 1751 1636 1792.75 1620.945313 1834 C 1614.242188 1852.277344 1601.789063 1871.820313 1583 1879.238281 C 1569.550781 1884.550781 1557.703125 1881.28125 1544 1881 C 1546.527344 1877.628906 1551.390625 1876.679688 1555 1874.546875 C 1562 1870.328125 1568.808594 1865.207031 1574.996094 1859.714844 C 1590.652344 1845.816406 1600.902344 1825.390625 1607.945313 1806 C 1615.378906 1785.550781 1619.425781 1762.660156 1620.910156 1741 C 1621.535156 1732 1617.730469 1716.714844 1623 1709 M 1755 1732 C 1770.171875 1767.261719 1760 1818.640625 1733.960938 1846 C 1725.90625 1854.421875 1711.703125 1868.097656 1699 1867 C 1705.902344 1859.050781 1713.9375 1852.441406 1720.484375 1844 C 1734.46875 1826 1743.75 1804 1749.253906 1782 C 1751.578125 1772.726563 1753.542969 1762.566406 1753.960938 1753 C 1754.246094 1746.441406 1752.441406 1738.097656 1755 1732 "/>
</g>
</svg>
