<?xml version="1.0" encoding="UTF-8"?>
<svg xmlns="http://www.w3.org/2000/svg" xmlns:xlink="http://www.w3.org/1999/xlink" width="2000pt" height="2000pt" viewBox="0 0 2000 2000" version="1.1">
<g id="surface1">
<path style=" stroke:none;fill-rule:nonzero;fill:rgb(0%,0%,0%);fill-opacity:1;" d="M 340 887 L 341 887 C 344.304688 880.789063 348.238281 875.183594 353 870 C 346.800781 891.523438 333 911.613281 325.695313 933 C 309.417969 979.621094 300.703125 1030.535156 304 1080 C 306.648438 1117.386719 311.4375 1154.1875 318.800781 1191 C 320.730469 1200.65625 322.414063 1210.433594 324.742188 1220 C 325.65625 1223.757813 327.980469 1229.152344 325.957031 1233 C 323.851563 1236.734375 317.820313 1238.121094 314 1239.574219 C 303.960938 1243.394531 293.71875 1247.195313 284 1251.78125 C 257.882813 1264.101563 232.605469 1277.636719 210 1295.800781 C 202 1302.203125 190.882813 1310 186 1319 C 196.863281 1316.449219 207 1307.386719 217 1302.257813 C 242.808594 1289 268.722656 1275.492188 296 1265.320313 C 305.449219 1261.792969 316.980469 1255.1875 326.980469 1254.074219 C 331.230469 1253.597656 333 1258.152344 332.511719 1262 C 331.421875 1268.433594 309.644531 1274.648438 304 1278 C 281.859375 1290.410156 253 1307.382813 240 1330 C 248.511719 1327.28125 256 1320.582031 264 1316.308594 C 280 1307.570313 296.519531 1299.289063 313 1291.257813 C 319.402344 1288.136719 333.75 1278.761719 340.894531 1280 C 345.351563 1280.761719 347.929688 1288.515625 349.78125 1292 C 355 1302.125 360.730469 1312.148438 366.605469 1322 C 368.421875 1325.046875 371 1331.433594 375 1332 C 382.800781 1333.027344 398 1321.179688 405 1317.757813 C 427.429688 1306.726563 451 1298.632813 475 1291.554688 C 521.492188 1277.804688 571.671875 1269.398438 620 1266.089844 C 649 1264.101563 680.628906 1268 709 1260.621094 C 730.246094 1255.191406 749.195313 1243.34375 766 1229.574219 C 773 1223.742188 781.171875 1217.59375 785 1209 C 766.171875 1214.117188 750.613281 1230.636719 731 1236 L 731 1235 C 759 1223.351563 776.960938 1194.050781 804 1182 C 801.363281 1187.539063 796.796875 1191.601563 794 1197 C 806.601563 1191.664063 817.351563 1177.640625 828 1169 C 822.367188 1179.117188 813.726563 1187.042969 808 1197 C 819.875 1192 838.703125 1177 844 1165 L 845 1165 C 843.496094 1172.171875 832.570313 1185.613281 836 1192 C 841.582031 1184.238281 848.269531 1176.789063 855 1170 C 855 1176.5 849.246094 1180 848 1186 L 855 1180 C 850.789063 1186.710938 844.9375 1192.1875 841 1199 C 851.6875 1195.367188 863.222656 1184.097656 868 1174 L 869 1174 C 867.226563 1186.019531 860 1195.347656 855 1206 C 863 1202.234375 870.261719 1194 877 1188 C 875.5625 1196.34375 869.566406 1203 868 1211 C 874.429688 1206.472656 878.960938 1199.652344 886 1196 C 884.628906 1213.351563 881.515625 1231 892.761719 1246 C 899.394531 1255 910 1261.75 921 1264.183594 C 927.777344 1265.707031 938.179688 1265.128906 943.789063 1269.5625 C 951.984375 1276.042969 953 1291.316406 958.699219 1300 C 966 1311.523438 977.859375 1320.355469 983.40625 1333 C 996.695313 1363.300781 969.714844 1387.453125 946 1401 C 934.441406 1407.601563 921.808594 1416.238281 909 1420 L 909 1419 C 917 1414.804688 926.378906 1404.828125 929 1396 C 906.324219 1410.183594 884.578125 1433.25 857 1438 C 874.726563 1423.433594 896.730469 1415.0625 910 1395 C 895.671875 1400.214844 883.398438 1411.347656 868 1414 C 882.871094 1401.011719 907.433594 1388.367188 916 1370 C 904.460938 1373.675781 893.273438 1381.671875 882 1386.574219 C 845.472656 1402.464844 810.414063 1418.722656 776 1439 C 782.359375 1430.160156 793.488281 1424.460938 802 1417.789063 C 824.878906 1400 847.96875 1384.609375 873 1370 L 873 1369 C 857.1875 1369.808594 841.800781 1380 827 1385 C 852.609375 1363.226563 887.980469 1356.105469 916 1338 L 916 1337 C 901.847656 1339 887.730469 1346.46875 874 1350.5625 C 814.855469 1368.183594 760.96875 1396.261719 706 1424 C 717.378906 1411.582031 738.1875 1403.035156 753 1395.21875 C 758.914063 1392.097656 769.316406 1388.582031 773 1383 C 756.835938 1384.277344 740.59375 1388.832031 725 1393 L 725 1392 C 744.992188 1382.664063 766.359375 1376.011719 786 1366 L 786 1365 C 760.742188 1367.203125 736.648438 1376 713 1384 C 722.371094 1376.03125 734.203125 1370.148438 745 1364.308594 C 749.863281 1361.675781 756.179688 1360 759 1355 C 688.699219 1378 623.90625 1417 563 1458 L 563 1459 C 571.855469 1458.113281 579.25 1452.3125 588 1451 L 588 1452 C 573.445313 1459 552.578125 1472 543 1485 C 552.402344 1483.820313 561.886719 1477.214844 571 1474.167969 C 598.429688 1465 627 1454.320313 656 1453 C 647.898438 1461 634.253906 1461.757813 627 1471 C 661.542969 1459.742188 704.371094 1451.625 741 1455.171875 C 791.957031 1460.101563 842.523438 1488.136719 878 1524 C 903.507813 1549.777344 923.714844 1585.746094 922 1623 C 921.328125 1640 917.476563 1656.222656 904 1668 C 905.765625 1627 892.902344 1591.824219 867.425781 1559 C 858.488281 1547.488281 847.238281 1534.59375 834 1528 C 837.890625 1540.214844 846.449219 1552.019531 851.574219 1564 C 866.789063 1599.589844 874.53125 1642.089844 850.792969 1676 C 843.832031 1686 834.476563 1692.695313 825 1700 C 827.230469 1692.421875 831.578125 1685.816406 833.523438 1678 C 838.175781 1659.300781 834.605469 1639.652344 827.601563 1622 C 824.609375 1614.46875 821.515625 1605.113281 815 1600 C 822.417969 1638.25 812.816406 1685.820313 773 1703 C 773 1659 760.917969 1607.8125 741.242188 1568 C 734.179688 1553.703125 723.589844 1535.566406 709 1528 C 728.59375 1570 742.683594 1621.226563 727.742188 1667 C 722.292969 1683.6875 707.457031 1709.03125 687 1709 C 707 1684.203125 690 1640.800781 675 1618 L 674 1618 C 676 1643.085938 680.351563 1664 668.742188 1688 C 667 1691.484375 659.601563 1707.796875 654.46875 1705.792969 C 649.824219 1704 648 1690.261719 646.988281 1686 C 643.492188 1673.257813 640.578125 1660.15625 639 1647 C 638.367188 1639.578125 639 1631.101563 637 1624 L 636 1624 C 623.566406 1646 623 1669 624 1693 C 615.21875 1685 606.445313 1677.261719 600 1667 C 577.378906 1630.503906 579.589844 1586.707031 589 1547 C 577 1553.070313 568.773438 1570.800781 564.667969 1583 C 552.785156 1618.308594 557.660156 1652.792969 566 1688 L 565 1688 C 555.363281 1667.382813 546.265625 1648.636719 542 1626 L 541 1626 C 541 1641.464844 542.683594 1656.667969 543 1672 C 538.917969 1667.367188 537.277344 1659.828125 535.332031 1654 C 527.839844 1631.519531 530 1610.035156 531 1587 C 526.933594 1589.695313 525.824219 1595.539063 524.238281 1600 C 519.5 1613.355469 519 1627.011719 519 1641 L 518 1641 C 511.804688 1617.054688 512.539063 1592.1875 521.429688 1569 C 524.589844 1560.753906 531.1875 1554.128906 534 1546 C 507 1554.566406 495.617188 1587.195313 485 1610 C 483 1601.375 486 1590.585938 487.800781 1582 C 492.308594 1559.8125 500.476563 1538.765625 516 1522 C 523.667969 1514 533 1508.527344 541 1501 C 528 1500.714844 510.4375 1515.488281 501 1523.4375 C 474.394531 1546 455.71875 1580.832031 443.574219 1613 C 439.445313 1624 434.710938 1635.375 433 1647 L 432 1647 C 432 1632.539063 437 1619.15625 439 1605 L 438 1605 C 424 1627 417.425781 1652.171875 411 1677 L 410 1677 C 410 1655.359375 415 1635.226563 418 1614 L 417 1614 C 409.644531 1627 405.773438 1646.140625 396 1657 C 397.3125 1627 416.726563 1593.742188 432.320313 1569 C 480.488281 1492.570313 552.976563 1442.511719 632 1402 C 660.621094 1387.253906 690.773438 1375.816406 719 1360.304688 C 728.40625 1355.136719 744.269531 1349.054688 749 1339 C 737 1340 724.976563 1342 713 1342 L 713 1341 C 722 1338.386719 729.667969 1332 739 1330 L 739 1329 C 724.804688 1330.121094 710.527344 1335.261719 697 1339.433594 C 666.359375 1349 636.675781 1361.414063 608 1375.753906 C 520.953125 1419.277344 444.777344 1481.101563 380.714844 1554 C 351.300781 1587.46875 322.28125 1624.496094 305 1666 L 304 1666 C 305.925781 1653 312.949219 1639.710938 318.753906 1628 C 331 1603.042969 345.757813 1579.359375 362.371094 1557 C 426.703125 1470.40625 517.253906 1393 617 1350.425781 C 644.253906 1338.796875 673 1330.554688 702 1324.011719 C 715.847656 1321 736.9375 1320.230469 749 1313 C 739.878906 1307.5 724.464844 1306.644531 714 1306 C 678.410156 1303.414063 641.957031 1313.644531 608 1323.574219 C 503.691406 1354.085938 403.234375 1407.152344 318 1474.339844 C 294.519531 1493 273 1513.652344 254.398438 1537 C 246.464844 1547 236.574219 1558.609375 233 1571 C 248.441406 1563 263.71875 1549.257813 278 1539 C 271.230469 1552.664063 260.632813 1564.488281 253.308594 1578 C 238 1606 227.484375 1636 217.484375 1666 C 213.992188 1676.515625 211.296875 1687.246094 208.628906 1698 C 207.867188 1701.050781 205.320313 1707.460938 207.199219 1710.398438 C 209.628906 1714.199219 223.917969 1712 228 1712 C 249.378906 1712 270.609375 1713 292 1713 C 351.421875 1713 410.796875 1713.035156 470 1717.089844 C 498.847656 1719.066406 528 1725 557 1725 L 557 1727 C 527.746094 1727 498.226563 1729.679688 469 1731 C 415 1733.324219 360.964844 1732.675781 307 1735.039063 C 282.71875 1736.101563 258.316406 1739 234 1739 L 234 1740 C 243 1742.664063 252.734375 1741.453125 262 1742.089844 C 280 1743.320313 297.933594 1743.789063 316 1744.003906 C 364.589844 1744.582031 413.355469 1745.824219 462 1747.015625 C 630 1751.132813 801.835938 1758.128906 969 1737 L 969 1736 C 958.394531 1733.476563 945.910156 1734.4375 935 1734 C 905.871094 1732.683594 873.625 1733.3125 845 1728 L 845 1727 C 859.683594 1727 874.40625 1724.628906 889 1723.167969 C 898.324219 1722.234375 909.308594 1722.667969 918 1719 C 916.542969 1718 915.753906 1717.5625 914 1717 L 914 1716 C 954.308594 1712.820313 995.574219 1711.140625 1036 1714 C 1049.941406 1715 1067 1711.691406 1080 1718 C 1077.621094 1718.570313 1075.441406 1719 1073 1719 L 1073 1720 C 1095.636719 1725.390625 1123.714844 1727 1147 1727 L 1147 1728 C 1117.511719 1735.019531 1083.28125 1732 1053 1734.828125 C 1044.230469 1735.664063 1035.582031 1734.390625 1027 1737 L 1027 1738 C 1041.691406 1738.039063 1056.355469 1741 1071 1742 C 1109.359375 1744.539063 1147.597656 1747.277344 1186 1749 C 1273.386719 1752.785156 1361.660156 1750.152344 1449 1748.015625 C 1492.703125 1747 1536.367188 1748 1580 1746.039063 C 1620.976563 1744.246094 1662 1744.832031 1703 1743.039063 C 1721.234375 1742.242188 1739.976563 1743.347656 1758 1740 L 1758 1739 C 1693 1739 1627.886719 1732.605469 1563 1731.015625 C 1539.355469 1730.433594 1515.5625 1729.285156 1492 1729.003906 C 1473.324219 1728.78125 1452.222656 1730.339844 1434 1726 L 1434 1725 C 1459.675781 1724.789063 1485.398438 1719 1511 1717.089844 C 1574.5 1712.742188 1638.269531 1713 1702 1713 C 1723.648438 1713 1745.296875 1712 1767 1712 C 1770.808594 1712 1785.351563 1714.128906 1787.382813 1710.398438 C 1789 1707.25 1786.449219 1701.148438 1785.574219 1698 C 1782.6875 1687.609375 1779.382813 1677.363281 1776.421875 1667 C 1768.5625 1639.492188 1758.320313 1611.195313 1744.691406 1586 C 1735.484375 1569 1723.523438 1553.734375 1714 1537 C 1723.699219 1543.542969 1733.765625 1549.824219 1743 1557.015625 C 1748.984375 1561.675781 1754.765625 1568.539063 1762 1571 C 1748.261719 1533.253906 1711.992188 1505.316406 1683 1480 C 1648.742188 1449.746094 1609.578125 1425 1570 1402.574219 C 1512.832031 1370.203125 1452.351563 1342 1389 1324 C 1356 1314.503906 1322.367188 1306 1288 1306 C 1275 1306 1256.328125 1307.078125 1245 1314 C 1257.671875 1318.289063 1271.910156 1319.515625 1285 1322.425781 C 1314.992188 1329.085938 1345.65625 1336.332031 1374 1348.425781 C 1431.769531 1373.078125 1483.503906 1409 1531 1449.714844 C 1580 1491.824219 1625 1539.234375 1658.394531 1595 C 1671.480469 1617 1680 1639.761719 1690 1663 C 1681.71875 1654.21875 1677.277344 1640.332031 1670.9375 1630 C 1656.976563 1607.230469 1641.753906 1585.480469 1624.5625 1565 C 1554.515625 1481.550781 1463.945313 1408.683594 1364 1364.140625 C 1338.980469 1353 1313.539063 1343.09375 1287 1336.117188 C 1276.808594 1333.4375 1266.617188 1329.457031 1256 1329 L 1256 1330 C 1265.410156 1333.367188 1275.539063 1337.660156 1284 1343 C 1273.839844 1343.652344 1264 1340.121094 1254 1340.003906 C 1252.585938 1340 1244.324219 1339.148438 1244.921875 1342 C 1245.445313 1344.382813 1250 1346.550781 1252 1348 C 1259.792969 1353.324219 1268.730469 1356.765625 1277 1361.425781 C 1311.734375 1381.003906 1349.875 1394.265625 1385 1413.308594 C 1458.304688 1453.054688 1525.777344 1503.261719 1567.851563 1577 C 1582.386719 1602.476563 1595.265625 1630.617188 1599 1660 L 1598 1660 C 1591.816406 1644.054688 1584.820313 1628.652344 1576 1614 L 1575 1614 C 1578.265625 1636.113281 1585 1657.378906 1586 1680 L 1585 1680 C 1577.574219 1652.789063 1568 1627.476563 1556 1602 L 1555 1602 C 1555.292969 1616.164063 1561.960938 1629.601563 1562 1644 L 1561 1644 C 1553.609375 1600.515625 1526.632813 1551 1493 1522.589844 C 1483 1514.277344 1468.972656 1502.3125 1456 1500 C 1462.707031 1511.414063 1478.167969 1520.058594 1486.710938 1531 C 1503.601563 1552.628906 1511.777344 1586 1512 1613 L 1510 1613 C 1509 1593.667969 1491 1569.625 1477.425781 1557.117188 C 1472.335938 1552.484375 1467.671875 1547.214844 1461 1545 C 1463.835938 1552.476563 1469.515625 1558.519531 1472.546875 1566 C 1482.25 1590 1484.285156 1616.464844 1476 1641 L 1475 1641 C 1476.765625 1627.035156 1475.980469 1613.402344 1471.304688 1600 C 1469.527344 1595 1467.875 1588.765625 1463 1586 C 1464.785156 1608 1465.914063 1628.253906 1460.765625 1650 C 1458.464844 1659.710938 1453.726563 1668.527344 1451 1678 L 1450 1678 C 1450.671875 1662.597656 1456.699219 1646.535156 1453 1631 L 1452 1631 C 1449.824219 1648 1442.824219 1673.160156 1430 1685 C 1436.246094 1648.695313 1442.90625 1616.058594 1429.226563 1580 C 1424.878906 1568.550781 1417.679688 1552.464844 1406 1547 C 1418.574219 1593.074219 1417.882813 1665.355469 1370 1693 C 1374.429688 1670.15625 1370.621094 1644.421875 1359 1624 L 1358 1624 C 1356.269531 1630 1357.425781 1636 1356.714844 1642 C 1354.984375 1656.601563 1351.996094 1670.703125 1348.652344 1685 C 1347.582031 1689.5625 1345.753906 1702.636719 1341.347656 1705.078125 C 1336 1708 1327.496094 1690.617188 1325.863281 1687 C 1315.460938 1664 1317.472656 1643 1321 1619 C 1315.707031 1622 1313.378906 1628.738281 1310.753906 1634 C 1303.265625 1649.015625 1299.300781 1665.171875 1300 1682 C 1300.34375 1689 1301.953125 1695.445313 1304 1702 C 1304.394531 1703.132813 1306.535156 1707.507813 1304.84375 1708.335938 C 1302.277344 1709.589844 1294 1704 1292 1702.480469 C 1279.894531 1694.019531 1272.277344 1681.640625 1267.226563 1668 C 1251.207031 1624.703125 1265.289063 1568.363281 1286 1529 C 1271.414063 1532.800781 1259.78125 1554.570313 1253.410156 1567 C 1243.984375 1585.386719 1239.484375 1605.175781 1234.265625 1625 C 1227.382813 1651.140625 1221 1675.808594 1221 1703 C 1185.859375 1680 1171.539063 1642.019531 1180 1601 C 1173 1605 1169.472656 1616 1166.605469 1623 C 1156.359375 1648.390625 1158 1674.828125 1170 1699 C 1161.757813 1694.40625 1153.933594 1688.351563 1148 1681 C 1118.574219 1644.441406 1129.953125 1597.25 1146.425781 1558 C 1150.601563 1548.050781 1157.234375 1539 1161 1529 C 1148.355469 1532.285156 1137.28125 1547.109375 1129.574219 1557 C 1107.175781 1585.75 1081 1631.070313 1093 1669 C 1078.347656 1658.59375 1073 1638.140625 1073 1621 C 1072.9375 1582.765625 1092.726563 1550.625 1117.675781 1523.09375 C 1153.476563 1483.585938 1215.296875 1454.382813 1269 1454.003906 C 1302.292969 1453.769531 1335.972656 1463.304688 1368 1470 L 1368 1469 C 1357.363281 1462.574219 1347 1457.40625 1335 1454 L 1335 1453 C 1346.351563 1453.03125 1356.765625 1457.769531 1368 1458 L 1368 1457 L 1365 1456 L 1365 1455 C 1384.808594 1459.230469 1406.933594 1467.109375 1426 1474.226563 C 1434.960938 1477.574219 1444.546875 1483.769531 1454 1485 C 1443.9375 1471.335938 1419.878906 1456.8125 1404 1451 L 1404 1450 C 1412.390625 1451.136719 1419.632813 1456.160156 1428 1457 C 1415.816406 1442.03125 1393.304688 1432.125 1377 1422.191406 C 1345.296875 1403 1312 1387.148438 1278 1372.574219 C 1262.492188 1366 1247.386719 1358.382813 1231 1354 C 1234.351563 1359.476563 1242.375 1362.464844 1248 1365.242188 C 1257.855469 1370.113281 1267.785156 1375.601563 1276 1383 C 1253.625 1376.832031 1231.726563 1366.214844 1208 1365 L 1208 1366 C 1226.175781 1376.566406 1248.523438 1384 1268 1392 L 1268 1393 C 1251.535156 1391.359375 1235.320313 1383.773438 1219 1381 C 1222.6875 1387.03125 1232 1390 1238 1393.449219 C 1253.894531 1403 1275.597656 1411.359375 1289 1424 C 1256.464844 1415.300781 1228.894531 1393.65625 1199 1379.109375 C 1171 1365.527344 1142.34375 1358 1113 1348.328125 C 1100.386719 1344.21875 1088.507813 1338.195313 1076 1334 C 1080.621094 1341.640625 1091.519531 1344.808594 1099 1349.003906 C 1121.726563 1361.742188 1149.78125 1368.664063 1169 1387 C 1151.429688 1381.019531 1135 1370.3125 1117 1366 C 1124.253906 1375.261719 1138.304688 1379.746094 1148 1386.203125 C 1171.644531 1402 1198.710938 1419.132813 1219 1439 C 1198.265625 1432 1178.441406 1417.652344 1159 1407.484375 C 1141.230469 1398.195313 1122 1392.222656 1104 1383.703125 C 1095.328125 1379.621094 1086.984375 1373 1078 1370 C 1086.988281 1389.371094 1112 1401.464844 1127 1416 C 1111.582031 1410.753906 1099.363281 1400.832031 1085 1394 C 1087 1400.226563 1092.4375 1404.457031 1097 1409 C 1108.390625 1420.335938 1123 1430.800781 1138 1437 L 1138 1438 C 1108.253906 1433.605469 1089.441406 1407 1064 1395 C 1067.828125 1405.4375 1076.304688 1411.695313 1083 1420 C 1067.867188 1412.03125 1052.246094 1404.144531 1038 1394.667969 C 1018.476563 1381.675781 999.695313 1357.796875 1010.902344 1333 C 1016.746094 1320.074219 1028.84375 1311 1036.453125 1299 C 1041.851563 1290.597656 1043 1276 1051.1875 1269.703125 C 1056.414063 1265.703125 1063.945313 1266.414063 1070 1264.703125 C 1082.660156 1261.125 1093.980469 1254.777344 1101.839844 1244 C 1113.285156 1228.304688 1108.765625 1211.773438 1108 1194 C 1113 1199.054688 1119.476563 1208.664063 1127 1209 L 1117 1188 C 1126.59375 1193.578125 1133 1202.703125 1142 1209 C 1138.546875 1197.039063 1130.433594 1187.507813 1128 1175 C 1135 1183.066406 1143.808594 1193.027344 1154 1197 C 1149.871094 1189.039063 1142.617188 1184.363281 1141 1175 L 1142 1175 C 1145.675781 1182.085938 1152.480469 1187.308594 1157 1194 L 1158 1194 C 1157 1184.066406 1152.5625 1175.179688 1149 1166 C 1160 1177.144531 1172 1189 1185 1198 C 1180.566406 1186.550781 1169.867188 1177.023438 1164 1166 C 1175.691406 1177.691406 1188.460938 1191 1203 1199 C 1199.21875 1190.070313 1190.769531 1183.5625 1186 1175 C 1211.988281 1193.304688 1233.214844 1221.164063 1263 1234 L 1263 1235 C 1242 1232 1227.453125 1214.8125 1209 1207 C 1211.835938 1215.335938 1220.386719 1222.714844 1227 1228.246094 C 1243.183594 1241.785156 1261.519531 1254 1282 1260 C 1313.636719 1269 1350.3125 1265 1383 1267.089844 C 1428.777344 1270.226563 1476 1279.511719 1520 1292.589844 C 1544.515625 1300 1567.527344 1309 1591 1319 C 1598.453125 1322.195313 1611.871094 1332 1619.90625 1331.40625 C 1624 1331.148438 1626.578125 1325.046875 1628.394531 1322 C 1634.230469 1312.210938 1639.546875 1302.136719 1644.742188 1292 C 1646.496094 1288.578125 1648.71875 1280.734375 1653 1280 C 1660 1278.804688 1674.605469 1289 1681 1292 C 1697.179688 1299.714844 1713.222656 1307.777344 1729 1316.308594 C 1737.421875 1321 1745.769531 1327.335938 1755 1330 C 1739 1307.414063 1712.519531 1291.433594 1689 1278 C 1683.269531 1274.726563 1662.515625 1269 1661.492188 1262 C 1660.867188 1257.714844 1663.703125 1254.035156 1668 1255 C 1678 1257.128906 1688.414063 1262.566406 1698 1266.398438 C 1721.402344 1275.753906 1744.699219 1286.011719 1767 1297.78125 C 1779.789063 1304.527344 1793.277344 1314.65625 1807 1319 C 1802.675781 1309.804688 1791 1302.816406 1783.285156 1296.660156 C 1760 1278.472656 1734.933594 1264.019531 1708 1252.09375 C 1698 1247.722656 1688 1244 1678 1240 C 1674.667969 1238.671875 1668.835938 1237.386719 1667.210938 1233.785156 C 1665.746094 1230.53125 1668.34375 1225.253906 1669 1222 C 1671.480469 1212.046875 1674 1202.078125 1675.914063 1192 C 1682.84375 1153 1689.222656 1113.679688 1690.960938 1074 C 1693 1025.574219 1684.421875 976.484375 1667.945313 931 C 1662.648438 916.367188 1656.6875 902.101563 1650 888 C 1647.167969 881.683594 1642.5625 875.832031 1641 869 C 1645.894531 874.605469 1650 881.472656 1656 886 C 1649.929688 838.234375 1657.523438 787.550781 1663.71875 740 C 1674.234375 659.265625 1688.523438 579.246094 1694 498 C 1698 439 1695.613281 366 1661.644531 315 C 1639 281.144531 1593.789063 280.15625 1558 290.722656 C 1482.734375 313 1418.605469 358 1354 401 C 1332.273438 415.359375 1312.4375 433.527344 1289 445.246094 C 1284 447.726563 1268.9375 456.3125 1263.617188 452 C 1260.507813 449.433594 1263.96875 438.78125 1264 435 C 1253.328125 440.832031 1244 450.117188 1234 457 C 1234.960938 449.410156 1235.671875 441.644531 1236 434 C 1225.175781 439.480469 1217.632813 452.46875 1208 460 C 1208.183594 457.8125 1209.394531 445.207031 1205.941406 445.207031 C 1203.871094 445.207031 1201.257813 449.652344 1199.957031 451 C 1195.910156 455.023438 1191 458.605469 1186 461.191406 C 1169.28125 469.625 1144.71875 478.0625 1126 479.671875 C 1114.867188 480.628906 1102 476.132813 1091 474.425781 C 1068 471 1045 468.050781 1022 467.039063 C 991.816406 465.71875 960.941406 466.558594 931 470.285156 C 912 472.644531 893 477.613281 874 479 C 853.890625 480.28125 827.871094 469.195313 810 460.679688 C 804.378906 458 799.484375 454.332031 795 450.003906 C 793.769531 448.769531 791.460938 445.507813 789.34375 446 C 785.628906 446.644531 787 457.332031 787 460 C 779.636719 454.8125 773.246094 447.523438 767 441 C 766 440 761.8125 433.574219 759.925781 435.175781 C 756.34375 438.203125 759.964844 451.769531 760 456 C 749.992188 449.164063 740.984375 440.828125 731 434 C 731.328125 438.175781 734.40625 449 730.398438 452 C 725.527344 455.625 711.652344 448.265625 707 446.113281 C 684.316406 435.617188 664.511719 417.601563 644 403.492188 C 580.410156 359.75 512 310.105469 436 290.628906 C 399 281.164063 356.40625 281.242188 332.746094 316 C 297.582031 367.652344 296.804688 443.019531 300.910156 503 C 309.71875 631.640625 340 758 340 887 M 806 526 C 803.542969 513 799 499.285156 799 486 C 822 502.304688 830.804688 540.597656 823 567 L 822 567 C 818 555.476563 817 543.800781 809 534 C 809 546.75 811 559.390625 808 572 L 807 572 C 804 559.363281 795.644531 544.605469 787 535 C 791.375 560.40625 802.398438 585.503906 807.789063 611 C 816.816406 653.699219 816.601563 698.03125 810.273438 741 C 808.480469 753.15625 808.582031 766.214844 805 778 C 801.785156 772.632813 803.402344 766 802.828125 760 C 801.28125 743.738281 801.796875 727.261719 802.910156 711 C 805.515625 673 805.796875 632.363281 797.425781 595 C 793.214844 576.226563 785.832031 555.175781 771 542 C 778.414063 556 781 570.410156 781 586 L 780 586 C 774.292969 572.011719 767.769531 558.070313 755 549 C 761 563 768.867188 575.167969 769 591 L 768 591 C 760.40625 578.128906 750.199219 563.628906 737 556 C 748 572.699219 757.277344 590.804688 760 611 C 744.964844 598.574219 734.878906 580.101563 719 568 C 745.78125 612.285156 770.460938 659.429688 786 709 C 792.3125 729.03125 799.5625 750.824219 800 772 C 788.230469 761.25 784 735.691406 778.574219 721 C 764.929688 684.824219 752.65625 646.34375 731 614 C 723.652344 603.03125 714.847656 589.707031 704 582 C 711 593.21875 720.820313 607.472656 722 621 C 709.578125 612.257813 699.644531 599 686 592 C 716.660156 635.140625 749.761719 675.757813 770.425781 725 C 775.988281 738.257813 782.882813 751.617188 785 766 L 784 766 C 765.84375 736.332031 750.351563 705.234375 731.304688 676 C 713.222656 648.246094 691.621094 625 669 601 C 657.816406 589.015625 648.523438 576.179688 636 565.289063 C 595.375 530 541.84375 507.398438 488 505.039063 C 456.492188 503.660156 429.90625 511 400 519 C 407.820313 504.484375 435 496.40625 450 492.140625 C 513.910156 474 575.34375 502.796875 625 541.425781 C 635.699219 549.746094 646.351563 558.46875 656 568.003906 C 658.875 571 664.257813 578.742188 668.574219 579 C 673.546875 579.261719 682.882813 570 687 567.207031 C 690.308594 565.011719 697 563.191406 699 559.609375 C 701.9375 554.464844 689.375 540 686.347656 536 C 669.28125 513.601563 651.230469 492 630 473.285156 C 582.773438 432 527.4375 398.207031 473 367.148438 C 447.242188 352.457031 414.769531 335.597656 384 340.4375 C 369.835938 342.667969 366 352.511719 355 359 C 364.519531 318 415.519531 319 447 330.808594 C 492.597656 348.074219 534.582031 374.054688 575 401 C 605.214844 421.144531 636.441406 442.390625 660.425781 470 C 674.460938 486.15625 688 502.007813 698.296875 521 C 701.59375 527.148438 707.277344 545 713.414063 548.082031 C 716 549.484375 719.78125 546.035156 722 544.785156 C 729.597656 540.492188 737 536.046875 745 532.296875 C 755.894531 527.117188 767 522.636719 778 517.695313 C 781.925781 516 787.519531 512.230469 791.996094 513.648438 C 798 515.550781 800.414063 523.171875 806 526 M 1639 358 C 1632.636719 352.820313 1628.9375 346.625 1621 343.230469 C 1594.613281 332 1561.898438 346.34375 1538 357.703125 C 1502.296875 374.675781 1469.554688 397.03125 1437 419.253906 C 1410.84375 437.109375 1383.988281 455.070313 1361 477 C 1341.867188 495.253906 1323.691406 514.269531 1308.4375 536 C 1305.347656 540.402344 1293.804688 553.042969 1296.242188 558.726563 C 1298.804688 564.710938 1314.609375 571.550781 1320 575.648438 C 1322.433594 577.5 1325 580.472656 1328.285156 578.453125 C 1344.53125 568 1357.234375 549.71875 1373 538 C 1423.1875 500.253906 1483.738281 473.054688 1547 493.34375 C 1562 498.15625 1583 506.179688 1593 519 C 1572.394531 512.285156 1552.800781 506.582031 1531 505.089844 C 1468.769531 500.828125 1408.734375 523.800781 1361 563 C 1352 570.371094 1343.894531 578.660156 1337 588 C 1334 592 1332.507813 598 1329.402344 601.199219 C 1326.300781 604.453125 1321.445313 606.246094 1318 609.210938 C 1309.398438 616.601563 1301.742188 625.480469 1294.285156 634 C 1270.171875 661.539063 1251.710938 693.375 1233.578125 725 C 1224 741.429688 1212.261719 759.726563 1207 778 L 1206 778 C 1206.621094 763.59375 1213.464844 748.230469 1218.800781 735 C 1231.8125 702.726563 1249.257813 671.574219 1270.5 644 C 1282.925781 628 1299.773438 611.09375 1309 593 C 1294.8125 599.324219 1285.640625 616.03125 1271 621 C 1275.183594 607.777344 1283.960938 595 1291 583 C 1275.78125 593.722656 1263.851563 613.035156 1254.71875 629 C 1237.402344 659.269531 1225 693.113281 1213.773438 726 C 1208.988281 740 1202.320313 753.648438 1199 768 L 1198 768 C 1198 696.292969 1241.847656 630 1276 570 C 1264.316406 576.03125 1254.625 588 1246.425781 598 C 1242.621094 602.644531 1239.308594 609.097656 1234 612 C 1238 594.128906 1243.515625 571 1256 557 C 1239 564.535156 1236.628906 583.175781 1224 594 C 1225.929688 579.058594 1231.90625 565.320313 1236 551 C 1230 557.046875 1224.195313 563.390625 1220.257813 571 C 1217.855469 575.640625 1216.441406 583.203125 1212 586 C 1212 571.1875 1216.546875 558.257813 1219 544 C 1204 561.644531 1198 584.515625 1194.871094 607 C 1189.511719 645.441406 1191.347656 684.367188 1193 723 C 1193.878906 742.148438 1197.335938 761.289063 1191 780 L 1190 780 C 1189.289063 745.492188 1178.519531 711.738281 1180 677 C 1181.425781 645.390625 1186.597656 614 1193.425781 583 C 1196.804688 567.691406 1202.355469 552.363281 1205 537 L 1204 537 L 1187 575 L 1186 575 C 1186 563.242188 1190.78125 546 1186 535 C 1182 546.703125 1176.257813 558.464844 1176 571 L 1174 571 C 1171.6875 541.679688 1167 506.710938 1195 487 C 1196.375 499.605469 1190 514.179688 1189 527 C 1193.398438 523.441406 1196.609375 515.429688 1202 513.648438 C 1206.449219 512.199219 1212.976563 516 1217 517.605469 C 1229 522.507813 1241.445313 527.769531 1253 534 C 1260 537.671875 1267 541.378906 1274 545.460938 C 1276 546.65625 1279 549.46875 1281.503906 548.09375 C 1288 544.476563 1293.734375 526.609375 1297.257813 520 C 1306.242188 503.140625 1318.863281 486.78125 1332 473 C 1369.210938 434.125 1412.984375 402.160156 1459 374.550781 C 1487.269531 357.589844 1516.441406 340.628906 1548 330.503906 C 1575.734375 321.609375 1634.777344 316 1639 358 M 531 420 C 508.234375 415.238281 484.574219 409 462 403 C 475.496094 395 503.933594 405.539063 517 411.148438 C 521.882813 413.246094 528 415.433594 531 420 M 1532 401 L 1532 402 C 1508.878906 409.328125 1484.324219 412.539063 1461 420 C 1464.242188 414.242188 1472 411.582031 1478 409.199219 C 1495.574219 402.117188 1513.296875 401 1532 401 M 563 463 C 537.53125 458.6875 513.558594 447.542969 488 443.4375 C 460.816406 439.070313 434.347656 441 407 441 C 415.429688 434.625 429.71875 431.550781 440 429.609375 C 471.273438 423.714844 501.191406 426.730469 530 440.164063 C 540.40625 445.015625 557.765625 452.261719 563 463 M 1583 440 L 1583 441 C 1561.691406 441 1540.222656 438.53125 1519 441.289063 C 1488.347656 445.269531 1459.191406 456.769531 1429 463 C 1434.429688 453 1450 445.804688 1460 440.742188 C 1497.402344 421.566406 1544.894531 422.257813 1583 440 M 602 503 C 569.703125 493.765625 540.210938 476.621094 507 469.664063 C 485.980469 465.261719 466 468 445 468 C 454.304688 459.800781 474 459 486 459 C 519.472656 459 549.390625 464.023438 578 482.832031 C 586 488.128906 597.652344 494.074219 602 503 M 1547 467 L 1547 468 C 1520.292969 467.449219 1496.234375 465.589844 1470 473.4375 C 1451.984375 478.828125 1434.441406 486.222656 1417 493.199219 C 1408.703125 496.519531 1399.824219 501.628906 1391 503 C 1399.34375 491.1875 1414.273438 482.226563 1427 475.757813 C 1461.835938 458.046875 1509.976563 450.613281 1547 467 M 837 555 C 829.578125 546 830 520.535156 830 509 C 830 506.605469 829.421875 495.207031 833.210938 495.207031 C 837.765625 495.207031 839.242188 505.800781 839.699219 509 C 841.890625 524.320313 837 539.726563 837 555 M 1159 561 C 1155.675781 557 1156.230469 552 1155.574219 547 C 1154 535.1875 1152.523438 521.828125 1154.613281 510 C 1155.179688 506.816406 1157.285156 493.683594 1162.726563 495.460938 C 1166.710938 496.765625 1165 507.800781 1165 511 C 1165 528.074219 1160.335938 544.089844 1159 561 M 921 526 C 920.996094 544.496094 917.65625 562.445313 920 581 L 921 581 C 922.300781 571 923.742188 559.625 927 550 L 928 550 C 928 582.203125 934.71875 614 942.882813 645 C 949.738281 671.066406 958 696.816406 958 724 L 957 724 C 955.195313 713.390625 950.875 703 947 693 L 946 693 C 947.941406 708.023438 953.832031 723.742188 951 739 L 950 739 C 948.625 728.339844 946.515625 717.4375 944 707 L 943 707 C 943.261719 719.710938 948.867188 734.527344 946 747 L 945 747 C 934.78125 719.589844 926.570313 689.71875 921 661 L 920 661 C 920.855469 702.535156 938 742.144531 938 784 L 937 784 C 931.234375 768.605469 929.46875 751 925.265625 735 C 916.277344 701 905.523438 664.449219 904 629 L 903 629 C 903 639.757813 902.84375 650.300781 902 661 L 901 661 C 892.488281 619.765625 884 571.347656 902 531 L 903 531 L 904 594 L 906 594 C 906 577.691406 909.589844 561.71875 913.628906 546 C 915.328125 539.394531 916.652344 531.382813 921 526 M 1078 528 C 1082.765625 548.597656 1089 568.695313 1090 590 L 1091 590 C 1094.511719 571.078125 1092 551.089844 1092 532 L 1093 532 C 1103.304688 564.21875 1105.421875 597.710938 1099.921875 631 C 1098 641.6875 1096.785156 654.222656 1092 664 L 1091 664 C 1091 656 1092.917969 648.0625 1091 640 L 1090 640 C 1089.601563 659.242188 1082.851563 679.320313 1078.664063 698 C 1071.964844 728 1065.679688 758.328125 1058 788 L 1057 788 C 1057 748.074219 1071.179688 709.707031 1072 670 L 1071 670 C 1064.835938 700 1051.902344 728.765625 1048 759 L 1047 759 C 1044.878906 751.800781 1046.828125 742.410156 1047.714844 735 C 1049.425781 720.679688 1050.867188 706.355469 1052 692 L 1051 692 C 1049.84375 706.164063 1044 719.824219 1043 734 L 1042 734 C 1042 722.429688 1043.523438 711.421875 1045 700 L 1044 700 C 1041.902344 706.21875 1041.207031 719.054688 1036 723 C 1036 693.449219 1047.363281 665.28125 1054.527344 637 C 1063.253906 602.53125 1067.730469 570.460938 1067 535 L 1068 535 C 1072.808594 548 1074.503906 561.558594 1077 575 L 1078 575 C 1078 565.722656 1078.546875 556.257813 1077.910156 547 C 1077.492188 541 1075.558594 533.8125 1078 528 M 690 640 C 680.621094 638 672.546875 630.625 664 626.371094 C 661.886719 625.316406 656.917969 622.425781 654.753906 624.667969 C 651.984375 627.535156 660.316406 632.683594 662 634.082031 C 672.242188 642.601563 683.191406 652.785156 689 665 C 668.410156 658.4375 651.527344 639.257813 629 637 L 629 638 C 644 642.765625 665.222656 659.085938 671 674 C 650.351563 665.402344 630.402344 657 609 650 C 615.4375 656.074219 625.234375 659.769531 633 664 C 646.933594 671.589844 660.796875 679.714844 674 688.515625 C 724.757813 722.355469 772 775.285156 780 838 C 771.351563 833.367188 766.167969 822.753906 758 817 C 767.792969 830.621094 780.453125 844.429688 787 860 C 780.296875 857 775.667969 850.289063 770 845.613281 C 760.4375 837.730469 749.796875 831.53125 740 824 C 747.941406 835 760.488281 844.101563 769.910156 854 C 795.605469 881 821.652344 907.652344 848 934 C 841.300781 921 829.210938 911 822 898 C 838.175781 907.546875 857.464844 930.390625 864 948 L 865 948 C 855.804688 914.304688 838 884 832.285156 849 C 826 811.65625 832.996094 774.492188 833 737 C 833 716.65625 834.488281 695.71875 839.734375 676 C 841.324219 670.023438 842.855469 659.785156 848 656 C 847.949219 675 843.382813 694.109375 842 713 C 841.253906 725.191406 843.480469 737 844 749 L 845 749 C 847 737.410156 847.210938 725.585938 850 714 L 851 714 C 854.289063 727.824219 855.707031 744.765625 856 759 L 857 759 C 858.894531 744 859.859375 729.707031 864 715 L 865 715 C 867.671875 729.378906 865.367188 747.65625 871 761 C 873 752.203125 870.335938 732.808594 878 727 C 879.777344 741.074219 882.394531 756 883 770 L 884 770 C 885.765625 762.578125 885 754.59375 885 747 C 892 752.335938 895 774.351563 897.574219 783 C 908.511719 820.382813 914 857.113281 914 896 L 913 896 C 906.355469 876.382813 902.644531 856.101563 894 837 C 891 830.078125 887.804688 821 882 816 C 891 840 893.351563 866.746094 895 892 C 897.769531 931 896.667969 968.152344 895 1007 L 896 1007 C 898.800781 996.757813 901.875 984.714844 906 975 L 907 975 C 907 1010.753906 910 1041.765625 895 1075 C 918.761719 1057 924.476563 1034 928 1006 L 929 1006 C 932.269531 1017.628906 932 1029.03125 932 1041 L 933 1041 C 942 1018.507813 933 992.78125 940 970 L 941 970 C 941 985.144531 943.785156 1001.003906 945.871094 1016 C 946 1017.519531 946.972656 1030 948.714844 1029.367188 C 952 1028.238281 950.949219 1015 951.285156 1012 C 953.566406 992.660156 955 972.472656 955 953 L 957 953 C 957 977.710938 962.796875 1002.257813 963 1027 C 967.78125 1021.503906 967.515625 1010.089844 968 1003 C 969.636719 983.71875 967.496094 963 972 944 L 973 944 C 977.851563 970.132813 979.859375 998.449219 981 1025 L 982 1025 C 990.691406 997.589844 987.726563 966.308594 993 938 L 994 938 C 996.636719 959 995.5 980 996 1001 C 996.179688 1007.664063 995 1020.253906 1000 1025 C 1000 998.496094 1004.429688 966.109375 1013 941 L 1014 941 C 1014 968.277344 1007.632813 999.332031 1014 1026 L 1015 1026 C 1020.773438 1001.765625 1024 974 1026 949 L 1028 949 C 1028 968.652344 1027.992188 988.265625 1028 1008 C 1028 1010.066406 1028 1026.128906 1031 1025.367188 C 1034 1024.539063 1033.816406 1011.78125 1034 1009 C 1035.617188 992.417969 1038 974.171875 1042 958 L 1043 958 C 1043 976.277344 1043.910156 994.652344 1044 1013 C 1044 1015.339844 1043.960938 1029.792969 1047 1029.792969 C 1049.925781 1029.792969 1049 1020 1049.425781 1018 C 1051 1005.429688 1052.964844 992.324219 1056 980 L 1057 980 C 1059.605469 994.039063 1056 1008.691406 1057.84375 1023 C 1058.613281 1029.425781 1058.679688 1035.675781 1064 1040 C 1062.9375 1026.515625 1062.511719 1013.402344 1065 1000 L 1066 1000 C 1066 1025.152344 1074.648438 1062.386719 1100 1074 C 1083 1042.003906 1087 1006.035156 1087 971 C 1090.636719 973.769531 1089.921875 978.832031 1091 983 C 1093.746094 993.402344 1098.933594 1004.355469 1100 1015 L 1101 1015 C 1100.851563 997.054688 1096.828125 979 1096 961 C 1095.386719 946.121094 1097.308594 931 1097.960938 916 C 1099.421875 882.597656 1101.574219 848.054688 1112 816 L 1111 816 C 1105.679688 827.390625 1099.171875 838.109375 1094.859375 850 C 1089.753906 864.089844 1087 879 1082 893 L 1081 893 C 1081 853.460938 1086.730469 816.046875 1097.578125 778 C 1100.679688 767.121094 1102.523438 755.402344 1107 745 L 1108 745 L 1110 772 L 1111 772 C 1112.191406 757 1112.683594 738.46875 1117 724 L 1118 724 C 1122.664063 735.035156 1121.832031 748.316406 1124 760 L 1125 760 C 1125.628906 745.324219 1125.789063 728.117188 1130 714 C 1138.699219 725.628906 1135.917969 745.304688 1137 759 L 1138 759 C 1140.84375 743.6875 1139.691406 725.578125 1144 711 C 1151 723 1148.523438 741.65625 1151 755 L 1152 755 C 1152.347656 738.179688 1154 722 1152.910156 705 C 1151.796875 688.742188 1148 672.269531 1148 656 L 1149 656 C 1162.570313 686.617188 1160.617188 719.488281 1162 752 C 1163.730469 790.601563 1168.648438 827.828125 1159 866 C 1152.242188 893.441406 1137.363281 918.066406 1130 945 L 1131 945 C 1135.828125 930 1157.183594 908.167969 1171 901 C 1165.328125 913 1153.699219 921.007813 1148 933 C 1169.222656 910 1191.320313 887.738281 1212.910156 865.015625 C 1225.296875 852 1237.683594 835.328125 1254 827 L 1254 826 C 1236 832.507813 1225.464844 849.324219 1209 857 C 1215.902344 843.125 1226.332031 830.144531 1237 819 C 1228.460938 824 1223.511719 833.691406 1215 838 C 1219.707031 780.355469 1268.679688 722.640625 1315 692.34375 C 1329.191406 683.0625 1344.191406 674.566406 1359 666.308594 C 1366.734375 662 1376.960938 658.539063 1383 652 C 1369.972656 655.480469 1356.460938 659 1344 664.140625 C 1336.46875 667.28125 1329.800781 672.707031 1322 675 C 1329.796875 656.710938 1352.644531 648.589844 1367 637 C 1352.695313 640.308594 1338.949219 646.304688 1326 653.105469 C 1319.3125 656.617188 1313.28125 662 1306 664 C 1311.402344 652.648438 1323.535156 642.40625 1333 634.285156 C 1334.78125 632.757813 1344 627.535156 1341.363281 624.574219 C 1338.675781 621.632813 1333.5625 625.089844 1331 626.460938 C 1322.636719 631 1313.21875 638 1304 640 C 1313.519531 615.253906 1337.507813 599.222656 1358 584.578125 C 1395.953125 557.453125 1441.765625 532 1490 534.039063 C 1509.433594 535 1526.792969 541 1545 547 L 1545 548 C 1526.953125 547.625 1509.382813 543 1491 543 L 1491 544 C 1510.359375 544.832031 1532.691406 547.78125 1550 557 L 1550 558 C 1499.628906 554 1450.230469 546 1403 571.308594 C 1388.820313 579 1375.578125 587.324219 1363 597.398438 C 1354.816406 604 1346.339844 611 1359.984375 617.628906 C 1364.714844 620 1370 613.734375 1374 611.453125 C 1386 604.28125 1399.257813 598.140625 1412 592.308594 C 1444.5 577.429688 1478 576.296875 1511 590 L 1511 591 C 1498.785156 590.035156 1487.367188 588 1475 588 L 1475 589 C 1482.429688 589.320313 1489.617188 591.410156 1497 592 L 1497 594 C 1469.667969 594 1443.992188 596.664063 1418 605.65625 C 1408.972656 608.777344 1396.597656 611.773438 1390 619 L 1402 619 C 1398.730469 623.503906 1392.21875 626.148438 1388 630 C 1401.566406 628.246094 1414.226563 626 1428 626 L 1428 627 C 1417.199219 631.65625 1403.890625 634.683594 1396 644 C 1417.839844 639.496094 1444.902344 637 1467 641 L 1467 642 C 1441.785156 647 1421.714844 656.820313 1398 666 C 1387.242188 670.15625 1375.65625 672 1365 676.335938 C 1334.886719 689.011719 1308.886719 710.113281 1286 733 C 1275.777344 743.222656 1264.519531 754 1258 767 C 1262.640625 762.363281 1267 758 1273 755 C 1268.5 765.628906 1258 773.246094 1252 783 C 1263.40625 775.199219 1274.546875 765.261719 1289 764 C 1279.464844 776.355469 1266 785 1258 799 C 1277 785.753906 1294.3125 770.507813 1319 770 L 1319 771 C 1303.519531 780.042969 1287.976563 791.59375 1277 806 C 1297.480469 794.597656 1317.671875 782.199219 1342 782 L 1342 783 C 1326 792.414063 1307.992188 802.523438 1297 818 C 1319.785156 808.179688 1342.617188 798.09375 1368 797 C 1365 802 1356 804.574219 1351 807.253906 C 1341.167969 812.425781 1329.394531 819.675781 1322 828 C 1345.613281 821.6875 1367.585938 817 1392 815 C 1384.285156 828.691406 1360 829.1875 1350 841 C 1365.765625 835.652344 1390.507813 829.210938 1407 833 L 1407 834 C 1394 838.105469 1371.707031 840.273438 1362 850 C 1380.421875 847.671875 1401.488281 844 1420 846 L 1420 847 C 1407.5625 850.53125 1392.859375 854 1382 861 C 1399.222656 862.109375 1416 858.476563 1433 856 C 1426.308594 863.804688 1410.488281 868.050781 1401 872 L 1401 873 C 1415.785156 872.363281 1430.257813 868.164063 1445 867 C 1439.339844 875.640625 1425.207031 876.71875 1418 884 C 1449 884 1478.730469 871 1510 871 C 1502.785156 864.027344 1488.28125 864.769531 1479 862 C 1488.375 855.484375 1504.589844 859 1513 851 C 1502.617188 849.6875 1491 850 1481 847 L 1481 846 C 1489.683594 840.683594 1498.609375 836.832031 1508 833 L 1508 832 C 1494 832 1480.773438 833 1467 834 L 1467 833 C 1476.183594 827 1490.378906 823.371094 1498 816 C 1485.179688 814.34375 1471.246094 817.070313 1459 815 C 1475 796.097656 1508 791.71875 1531 787 C 1526.464844 794 1514 795.679688 1507 799.269531 C 1505.265625 800.140625 1498.96875 802.730469 1500.207031 805.527344 C 1502.503906 810.71875 1521 807.550781 1526 809 C 1523.441406 811.476563 1515 815.765625 1515 819.601563 C 1515 822.679688 1521.363281 821.226563 1523 821.050781 C 1532.375 820.046875 1541.570313 820 1551 820 L 1551 822 C 1541.867188 822.398438 1525.285156 826.171875 1519 833 C 1530.5625 833.007813 1543.65625 834.550781 1554 840 C 1547.78125 843.796875 1538.222656 845.425781 1531 846 L 1531 847 C 1547.992188 851.773438 1573.46875 850.382813 1586 865 C 1576.46875 865 1567.449219 866.253906 1558 867 L 1558 868 C 1580.632813 873.390625 1600 878 1621 889 L 1621 890 C 1606.878906 889.382813 1589.929688 887.585938 1576 885 L 1576 886 C 1598.363281 892.378906 1625 907.511719 1636 929 C 1614.367188 918 1597.714844 904.105469 1572 903 L 1572 904 C 1583.332031 906 1600.683594 910.679688 1608 920 C 1582.53125 917.464844 1558.976563 912 1533 912 L 1533 913 C 1571.664063 922.3125 1622 930.570313 1647 966 C 1610.707031 950.8125 1577.3125 937 1537 937 L 1537 938 C 1577.359375 950.820313 1628 966.773438 1652 1005 C 1641.464844 1000 1632.277344 991.605469 1622 986 C 1600.914063 974.074219 1568.550781 962.578125 1544 964 C 1581.601563 985.378906 1628.542969 999.277344 1648 1043 C 1640.84375 1039.285156 1635.25 1032.539063 1629 1027.460938 C 1613.964844 1015.242188 1598 1004 1581 994.691406 C 1573.964844 991 1567 986.203125 1559 985 L 1559 986 C 1570.824219 991.09375 1581.902344 1000.269531 1589 1011 C 1578.355469 1010.066406 1567.367188 1004.769531 1557 1002 C 1562.4375 1007.789063 1571.28125 1010.269531 1578 1014.464844 C 1589.242188 1021.484375 1601.34375 1031.132813 1609 1042 C 1599.546875 1038 1591.4375 1031.136719 1582 1027 C 1566.882813 1020.023438 1550.679688 1016.558594 1535 1011.332031 C 1524.371094 1007.789063 1512.261719 1002.265625 1501 1002 C 1505.296875 995.730469 1521.734375 994 1529 992 L 1529 991 C 1507.953125 991 1484.394531 993.042969 1464 987 L 1464 986 C 1474.261719 982.15625 1487.246094 978 1498 976 L 1498 975 C 1481.425781 975.34375 1465.648438 979.414063 1449 976 C 1443.660156 974.746094 1435 972.632813 1432 968 C 1455.386719 968 1473.890625 963.191406 1496 956 L 1496 955 C 1485.636719 955 1475.359375 957.621094 1465 957 C 1443.519531 955.4375 1422.425781 946.753906 1404 936 L 1404 935 C 1416.175781 936.640625 1427.617188 941.632813 1440 942.828125 C 1455 944.285156 1469.277344 941 1484 939 L 1484 938 C 1457.714844 937.054688 1431.945313 943.535156 1407 931 L 1407 930 C 1427.964844 923.800781 1452.347656 928.214844 1474 923 L 1474 922 C 1442 922.265625 1414 931.445313 1383 920 L 1383 919 C 1402.46875 919 1421.855469 917.269531 1441 913.691406 C 1453 911.425781 1465.691406 906.261719 1478 906 L 1478 905 C 1467.5625 902.601563 1454.3125 907.597656 1444 909.789063 C 1425.882813 913.640625 1407.445313 916 1389 912.75 C 1382 911.550781 1368.234375 911.066406 1364 905 L 1392 906 L 1392 905 C 1380.59375 903 1369.421875 899.625 1358 897.714844 C 1353.53125 897 1346.714844 897 1344 893 L 1363 893 L 1363 891 C 1347.929688 889.808594 1333 888 1318 888 L 1318 887 L 1335 884 L 1335 883 C 1317 883 1299.90625 881.777344 1282 884.425781 C 1221.238281 893.421875 1166.25 927.265625 1142.453125 986 C 1132 1011.6875 1127 1040.457031 1125 1068 C 1124.503906 1076 1123.800781 1084.183594 1122 1092 C 1121.660156 1094.117188 1121.507813 1098.613281 1119.402344 1100 C 1116.269531 1101.660156 1109.566406 1096.519531 1107 1095 C 1096.492188 1088.445313 1087 1078.070313 1076 1073 C 1087.203125 1086.757813 1104 1097.648438 1113 1113 C 1096.636719 1104.289063 1084.828125 1091.445313 1070 1081 C 1079.828125 1095.566406 1096.988281 1110.464844 1101 1128 C 1088.800781 1120.371094 1079.757813 1108.273438 1068 1100 C 1075.910156 1114.207031 1092.292969 1129.351563 1094 1146 C 1083 1138.253906 1073.386719 1127.667969 1063 1119 C 1069.640625 1133.03125 1078.304688 1145.316406 1084 1160 C 1071.339844 1151 1062.933594 1137.015625 1049 1129 C 1054.445313 1138.464844 1063.996094 1147 1066 1158 C 1060.898438 1155.527344 1056.828125 1151.066406 1052 1148 C 1055.800781 1154.675781 1059.941406 1160.46875 1062 1168 L 1057 1167 C 1068.429688 1180.25 1091.757813 1203.519531 1086 1223 L 1085 1223 C 1069.808594 1181.109375 1005 1181.578125 969 1186.730469 C 958.59375 1188.210938 948.46875 1190.382813 939 1195.121094 C 925.300781 1202 919.675781 1213.4375 909 1223 C 903.984375 1203.101563 929.285156 1179.113281 940 1165 L 931 1168 C 931.847656 1159.730469 938 1154.476563 941 1147 C 935.515625 1150.429688 931.515625 1156 926 1159 C 928.671875 1146.648438 938.90625 1138 946 1128 C 932.230469 1132.398438 918.824219 1147.742188 912 1160 L 911 1160 C 913 1145.359375 920.925781 1131.445313 930 1120 C 918.851563 1123.757813 912.332031 1135.425781 903 1142 C 907.589844 1125.222656 920.96875 1113.679688 927 1098 C 917.199219 1106.558594 905.699219 1119.546875 894 1125 C 898.820313 1108.300781 914 1096.394531 923 1082 C 911 1090.324219 899.890625 1106.128906 885 1109 C 892.515625 1094.636719 910.328125 1086.792969 918 1072 C 907.949219 1079 899.496094 1087.675781 889 1094.191406 C 885.964844 1096.078125 880.28125 1101.273438 876.636719 1098.351563 C 870 1093.097656 871 1077.535156 869.921875 1070 C 865.820313 1045 863.765625 1020.054688 854.945313 996 C 849.804688 982 843.644531 968.316406 835 956 C 825.597656 942.253906 815 930 802 919.3125 C 762 887 711 883 662 883 L 662 885 L 679 887 L 679 888 C 669.386719 889.785156 659.695313 888.425781 650 889.089844 C 641.53125 889.667969 633.417969 892.328125 625 893 L 625 894 C 634 894 644 893 653 895 L 653 896 C 636.175781 896.722656 617.949219 901.8125 602 907 L 602 908 C 612.246094 907.789063 621.722656 905.09375 632 907 L 632 908 C 613.976563 911.71875 596.570313 915.597656 578 913.828125 C 555.78125 911.714844 534.378906 904 512 904 L 512 905 C 544.8125 913 577.710938 915.792969 611 920 L 611 921 C 579.691406 930.515625 551.761719 923.019531 520 923 L 520 924 C 543.621094 926 567.214844 932 591 932 C 586.933594 939.148438 575.347656 939 568 939 C 548.253906 939.03125 528.71875 938 509 938 L 509 939 C 531.945313 942.089844 553.773438 945 577 942 C 572.8125 946.546875 565.710938 948.277344 560 950.425781 C 538.84375 958.382813 518.785156 958 497 953 C 512.378906 969.371094 541.820313 968.414063 562 968 C 558.78125 973.570313 549.996094 975.277344 544 976.386719 C 526 979.699219 510.605469 974.804688 493 974 L 493 975 C 500.261719 977.816406 507.488281 981.148438 515 983.253906 C 519.230469 984.441406 524.328125 984.203125 527 988 C 505.605469 988.441406 484.492188 990 463 990 L 463 991 C 472.914063 993.792969 483.527344 996 493 1000 L 493 1001 C 469.304688 1009.085938 444.621094 1014.472656 421 1023 C 409.179688 1027.0625 398.78125 1035.269531 387 1039 C 394.242188 1025.15625 415.882813 1011.792969 430 1006 L 430 1005 C 425.480469 1005.035156 409.664063 1011.492188 406.832031 1009 C 404.613281 1007 409.855469 1003.371094 411 1002.386719 C 417.230469 997.09375 423.804688 992.28125 430 987 C 409 993.800781 389.832031 1007.613281 373 1021.464844 C 364.324219 1028.605469 355.953125 1039 346 1044 C 350.46875 1034.59375 357.921875 1026.648438 364.828125 1019 C 385.742188 996 416.328125 973.203125 447 965 L 447 964 C 423.480469 964.484375 396.523438 973.183594 376 984.308594 C 365.523438 990 354.359375 1001.046875 343 1004 C 358.449219 979.300781 388.632813 962.382813 415 951.800781 C 425.953125 947.402344 444.273438 944.625 453 937 C 415.671875 937.101563 382 950.554688 349 966 C 353.472656 956.410156 365.335938 949.511719 374 944 C 398 928.5 429.832031 914.605469 459 914 L 459 912 C 433.273438 912 410 917.289063 385 921 L 385 920 C 395.179688 913.769531 405.84375 907.058594 418 906 L 418 905 C 395.261719 902.648438 376.691406 919.691406 358 929 C 367 908.796875 393.949219 893.410156 414 887 L 414 886 C 400.195313 886 387.292969 887.226563 374 891 C 387 875.21875 416.507813 872.195313 435 867 C 427.203125 863.710938 418.917969 866.339844 411 864 L 411 863 C 426.308594 853 445.730469 848.152344 464 848 L 464 846 C 460.910156 845.746094 458 845.121094 455 844.371094 L 449 843 C 440.230469 840.785156 442 838 450 836 C 458.972656 833.804688 469.585938 835 478 832 C 466.613281 827.582031 454.988281 823.472656 443 821 L 443 820 C 451.5625 818 461.246094 819.65625 470 820.039063 C 472 820.132813 478.507813 822.070313 479.792969 819.496094 C 481 817 473.640625 813.5 472 812.628906 C 469.667969 811.394531 467.292969 810.308594 465 809 L 465 808 C 471.964844 808 479 808.390625 486 808 C 487.777344 808 491.945313 807.5625 491.945313 805 C 491.945313 802 486 800.242188 484 799.222656 C 475.738281 795.246094 467.28125 792 459 788 L 459 787 C 477.671875 787.386719 496.882813 795 514 801.800781 C 520.804688 804.53125 530.28125 808.382813 534 815 C 520.914063 815 506.949219 812 494 815 L 494 816 C 503.472656 819.675781 519 825.484375 525 834 C 511.269531 832.804688 497.921875 831 484 831 C 491.5625 836.660156 501 839.699219 509 845 C 501.746094 849.375 489.363281 849.640625 481 850 C 487.890625 856.457031 503.191406 856.683594 512 861 C 503 866.300781 489.699219 863.5625 482 871 C 514.386719 871 545.484375 883 578 883 C 570.695313 875.679688 556.382813 872.445313 547 868 L 547 867 C 561.664063 867.121094 576 871 591 871 L 591 870 C 581.230469 866 571 862.335938 562 857 L 562 856 C 579.648438 857.441406 597.351563 861.242188 615 863 L 615 862 C 601.269531 855.589844 587.621094 851.148438 573 847 L 573 846 C 593.582031 846 613.6875 848.265625 634 851 C 624.589844 843.265625 612.488281 841 601 838 C 596 836.554688 588.179688 836.195313 585 832 C 606.390625 832 626 838 647 841 L 647 840 C 636 836 625.726563 829 615 824 C 610.429688 821.820313 603.886719 820.230469 601 816 C 625.945313 816 647.273438 822.136719 671 829 C 656.863281 816.097656 639.667969 808 623 799 L 623 798 C 646.851563 798.066406 673.621094 808.105469 694 820 C 686.640625 809.554688 675.566406 800.605469 665 793.519531 C 659.265625 789.671875 651.632813 787.070313 647 782 C 671.707031 784 693 796.40625 713 810 C 701.742188 793 681.839844 785.328125 670 770 C 696.851563 775.542969 714 789.796875 737 803 C 730.855469 794.011719 722.449219 785.828125 714 779 C 708.835938 774.828125 701.375 770.738281 698 765 C 714.867188 768 727.730469 778.792969 742 787 C 735.425781 777.058594 725.796875 769.644531 719 760 C 727.378906 761.308594 732.875 768 740 772 C 714.617188 733.140625 674.589844 694.113281 631 676.453125 C 618.320313 671.316406 604.820313 668.800781 592 664.113281 C 579.6875 659.609375 568.429688 652.699219 556 648.515625 C 546.613281 645.355469 533.246094 646 525 641 C 545.4375 635 575.632813 638.730469 596 644 C 588.578125 633.585938 572.820313 629.355469 561 626 L 561 625 C 576 625 589.222656 627.488281 604 630 C 600.761719 625.804688 596.285156 623.070313 592 620 L 592 619 C 595.367188 619.058594 598.652344 619.375 602 619 L 602 618 C 567.453125 602 533.238281 594 495 594 L 495 592 C 502 591.046875 508.796875 589.058594 516 589 L 516 588 C 505 588 494.769531 590.53125 484 591 L 484 590 C 519 575.605469 549.785156 579.574219 584 594.28125 C 596.675781 599.730469 609 606 621 613 C 624.574219 615 630.507813 621 634.960938 619.003906 C 646.828125 614 640.492188 606.035156 634 600.589844 C 621 589.757813 607 580.214844 592 572.757813 C 565 559.527344 533 551 503 552.039063 C 483 552.816406 462.714844 558 443 558 L 443 557 C 459.734375 550.507813 477 545.421875 495 544 L 495 543 C 478.96875 543 463.84375 546.746094 448 548 C 459.992188 538.097656 481 536.269531 496 534.828125 C 550.257813 529.578125 601.261719 560.359375 644 590.28125 C 663 603.695313 681.480469 617 690 640 M 1219 543 L 1220 544 L 1219 543 M 1276 569 L 1277 570 L 1276 569 M 330 575 C 332.992188 595.324219 341.347656 618.152344 351.425781 636 C 357.34375 646.488281 366 656.070313 371 667 L 372 667 C 370 659.277344 365.835938 652.445313 363.179688 645 C 356.386719 626 350.421875 604.332031 350 584 L 351 584 C 354.386719 603.671875 364 624.632813 373.695313 642 C 377.464844 649 380.882813 657 387 662 C 380 644 373 621.558594 373 602 L 374 602 C 386 629.109375 397.960938 657.253906 408.425781 685 C 412.710938 696.363281 419.1875 708 421 720 C 410.753906 711.714844 405.324219 698.757813 396 690 C 398.3125 705.738281 404.273438 721.238281 410 736 C 398.167969 730 387.570313 708.390625 384 696 L 383 696 C 385.410156 726.3125 398.523438 755.398438 410 783 C 397.480469 780.023438 393 766.460938 384 759 C 387.921875 769.160156 390 780 394.207031 790 C 397.292969 797.710938 402.246094 804.8125 404 813 C 394.410156 806.101563 389 794.46875 381 786 C 384.433594 795 396.355469 814.632813 393.355469 824 C 391.207031 830.710938 382.242188 835.445313 378 841 L 377 841 C 367 817.597656 367.195313 788 362.539063 763 C 359.609375 747.320313 352.582031 728 354 712 C 364.175781 721.324219 371.328125 733.679688 382 743 C 351 693.316406 328 634.507813 328 575 L 330 575 M 1666 577 C 1665.992188 633.804688 1645 699 1612 745 C 1623.929688 736.59375 1629.210938 719.324219 1641 712 C 1637 743 1629.984375 773.21875 1625.425781 804 C 1624.25 812 1624.296875 832.625 1618 838.253906 C 1614.574219 841.460938 1602.503906 826.449219 1601.65625 823 C 1600.6875 819.023438 1603.429688 814.59375 1604.773438 811 C 1607.835938 802.792969 1610.566406 794.414063 1613 786 C 1604 793.550781 1600.699219 808.566406 1590 814 C 1590.773438 806.492188 1596 800.757813 1599 794 C 1604 782.726563 1608.222656 770 1611 758 C 1602.964844 767.675781 1596 778.347656 1585 785 C 1585.90625 775 1592.695313 765.394531 1596.246094 756 C 1603.59375 736.558594 1610 715 1611 694 L 1610 694 C 1607.675781 707.03125 1596.191406 729.058594 1584 735 C 1589.929688 719.722656 1596.648438 704.566406 1598 688 L 1597 688 C 1592.746094 698.164063 1583 713.175781 1573 718 C 1582.398438 678.335938 1606.96875 642.519531 1620 604 L 1621 604 C 1620.984375 624.355469 1611.617188 643.5 1607 663 L 1608 663 C 1616.554688 645 1628 628.742188 1635.691406 610 C 1638.296875 603.546875 1639.378906 591.222656 1645 587 C 1644.402344 616 1629.707031 640.242188 1622 667 C 1635 651.804688 1646 634 1652.945313 615 C 1657 603.535156 1658.730469 586.71875 1666 577 M 643 705 C 614.433594 694 584.824219 684.003906 557 671.164063 C 549.300781 667.613281 533 664.664063 528 658 C 561.730469 658 590.679688 661.796875 619 681.722656 C 627.421875 687.644531 638.574219 695.507813 643 705 M 1467 659 L 1467 660 C 1452.945313 662.105469 1439.84375 671 1427 676.691406 C 1411.363281 683.628906 1394.875 687.039063 1379 693.066406 C 1369.964844 696.496094 1361.398438 703 1352 705 C 1368.347656 679 1403.757813 663.804688 1433 659.570313 C 1443.550781 658.042969 1456.59375 656 1467 659 M 623 714 C 612 712.394531 601.441406 707.503906 591 704.179688 C 564 695.625 537.839844 685.582031 511 677 C 519.859375 673.28125 531.695313 675.230469 541 676 C 569.855469 678.027344 604.714844 690.09375 623 714 M 1481 676 L 1481 677 C 1444.417969 690.800781 1407.628906 705.316406 1370 716 C 1374.976563 707.648438 1385.882813 701.480469 1394 696.425781 C 1422.257813 679 1448.519531 676 1481 676 M 599 722 C 580.347656 716.707031 561.484375 712.425781 543 706.496094 C 530.402344 702.453125 517.265625 696.15625 504 695 L 504 693 C 530.960938 692 553.738281 694.710938 578 707.550781 C 584.675781 711.085938 595.210938 715.269531 599 722 M 1489 693 L 1489 695 C 1477.800781 695.511719 1466.503906 701.679688 1456 705.304688 C 1436.523438 712.03125 1415.476563 719.242188 1395 722 C 1399.59375 716.601563 1406.964844 713.617188 1413 710 C 1437.515625 695.300781 1461.175781 692.425781 1489 693 M 588 734 L 588 735 C 552.4375 733.472656 519.8125 714 485 711 L 485 709 C 523.167969 709 554.375 714.375 588 734 M 1509 709 L 1509 711 C 1496 712.632813 1484.394531 717.800781 1472 721.253906 C 1449.574219 727.503906 1427 733.019531 1404 736 C 1409.386719 730.554688 1418.195313 728.15625 1425 724.753906 C 1452.769531 711 1478.546875 709 1509 709 M 587 754 L 587 755 C 553.339844 748.746094 520.332031 744.054688 488 732 C 494.777344 727.371094 509.167969 729.457031 517 730.578125 C 541.566406 734.097656 565 742.484375 587 754 M 1504 731 C 1499.84375 737 1487.589844 737.449219 1481 739.695313 C 1457 748 1432 752 1407 755 C 1411.976563 750 1419.730469 748.304688 1426 745.246094 C 1450.402344 733.335938 1477 729 1504 731 M 411 737 L 410 738 L 411 737 M 383 744 L 384 745 L 383 744 M 566 769 C 558.878906 771.101563 550.304688 769 543 768.164063 C 518.820313 765.578125 496.824219 754.207031 473 751 C 477 745.703125 488.941406 748 495 748 C 517.359375 748.109375 547.332031 756.601563 566 769 M 1521 749 L 1521 750 C 1490 758.753906 1459.445313 770 1427 770 C 1430.820313 764.21875 1441.726563 762.089844 1448 759.601563 C 1470.222656 750.785156 1497 744.5625 1521 749 M 551 786 C 521.847656 786 490.890625 781.71875 465 767 C 470.328125 765 479.304688 767.015625 485 767.714844 C 501 769.695313 516.527344 772.71875 532 778 C 537.542969 779.742188 547.59375 781.109375 551 786 M 1527 767 L 1527 768 C 1498.5 780.265625 1471.75 786.253906 1441 786 C 1446.175781 781.085938 1455.300781 779.800781 1462 777.65625 C 1483 771 1504.847656 767 1527 767 M 737 803 L 738 804 L 737 803 M 881.332031 813.667969 C 881.277344 813.722656 881.222656 814.777344 881.667969 814.332031 C 881.722656 814.277344 881.777344 813.222656 881.332031 813.667969 M 734 842 L 734 843 C 756 858.113281 773.898438 879.660156 794 897.285156 C 800.367188 903 806.457031 910.085938 814 914 C 811.609375 906.511719 805.503906 901 800.613281 895 C 788.261719 880 773.558594 866.117188 758 854.375 C 750.960938 849.0625 743 842.476563 734 842 M 1178 915 C 1186.714844 910.476563 1194.652344 901.726563 1202 895.164063 C 1221.601563 877.664063 1239.578125 858.402344 1261 843 C 1253.75 840.492188 1241.742188 850.058594 1236 854.027344 C 1214.921875 868.582031 1189.566406 891.777344 1178 915 M 866 847 C 869.527344 874.769531 875.511719 902.554688 881 930 C 883.277344 941.394531 884 958.054688 890 968 C 895 959.632813 892.28125 948.144531 892 939 C 891.359375 916.699219 885.40625 895.011719 878.332031 874 C 875.390625 865.261719 872.378906 853.816406 866 847 M 1126 847 C 1114.601563 875.648438 1103 904.59375 1103 936 C 1102.96875 942.714844 1099.9375 960.070313 1106 964 C 1109.738281 934.4375 1119.652344 905.832031 1123 876 C 1124 867.59375 1129.351563 855.003906 1126 847 M 493 883 L 493 884 C 517.714844 891.816406 546 897 572 898 C 568.867188 893.429688 560 891.4375 555 889.285156 C 533.429688 880.136719 515.746094 880.121094 493 883 M 852 880 C 852.8125 897.75 861 920.777344 868.308594 937 C 873 947.652344 879.832031 960.34375 881 972 L 883 972 C 882.777344 961.632813 878.742188 951 876 941 C 870.695313 921.621094 866.1875 895.152344 852 880 M 1425 897 L 1425 898 C 1449.492188 898 1475.277344 889.714844 1499 884 C 1493.761719 880.359375 1487 881.257813 1481 881 C 1460.636719 879.761719 1442.8125 888.007813 1425 897 M 1142 882 C 1125.675781 908.671875 1111 945.421875 1111 977 L 1112 977 C 1117.714844 953 1128.59375 931.660156 1135.71875 908 C 1137.828125 901 1143.988281 889.144531 1142 882 M 1147 933 L 1148 934 L 1147 933 M 848 934 L 849 935 L 848 934 M 726 941.300781 C 760 936.277344 770.304688 989.65625 736 995.671875 C 700.371094 1002 689.21875 946.730469 726 941.300781 M 1258 941.328125 C 1294 935 1305.347656 989.605469 1269 995.675781 C 1234.511719 1001.433594 1222.808594 947.511719 1258 941.328125 M 1350 961 C 1359.851563 971.300781 1366.6875 983.519531 1371 997 C 1378.574219 1019.296875 1379 1044.484375 1368.878906 1066 C 1335.601563 1136.378906 1218.472656 1139.414063 1189 1064 C 1182 1046.285156 1182.53125 1028.617188 1184 1010 L 1185 1010 C 1192.5625 1035.351563 1196.96875 1056.507813 1216.746094 1076.253906 C 1257.738281 1117.183594 1322.351563 1113.144531 1350.828125 1060 C 1362.511719 1038.191406 1365 1013.015625 1359.347656 989 C 1357.292969 980.328125 1349.90625 969.542969 1350 961 M 645 962 C 642.25 971.550781 637 980.300781 634.429688 990 C 628.667969 1010.550781 630.414063 1033.574219 639.308594 1053 C 644.796875 1065 652.476563 1076 662 1085 C 718.835938 1139.304688 806 1076.382813 809 1009 L 810 1009 C 813.25 1026.503906 812.679688 1045.242188 806.1875 1062 C 778.867188 1132.53125 680.554688 1138.128906 635.449219 1082 C 610.191406 1050.558594 609 987.570313 645 962 M 492 973 L 493 974 L 492 973 M 462 989 L 463 990 L 462 989 M 650 1001 C 650 1030 656.390625 1053.148438 678 1074 C 685.488281 1081.164063 699.382813 1085.695313 705 1094 C 669.519531 1094 646 1060.398438 646 1027 C 645.996094 1019 645.703125 1008.128906 650 1001 M 1345 1005 C 1352.21875 1033 1345.421875 1062.734375 1322.984375 1082 C 1315.625 1088.128906 1297.605469 1097.472656 1288 1092 C 1312 1078 1330.824219 1063.664063 1339.492188 1036 C 1342.539063 1026.277344 1341.246094 1014 1345 1005 M 593 1006 C 586.960938 1053.785156 611.390625 1102.371094 655 1124.191406 C 681.988281 1137.695313 714.648438 1140.421875 744 1134.550781 C 763.757813 1130.597656 783 1122.285156 800 1111.304688 C 808.851563 1105.542969 816.328125 1096.09375 826 1092 C 825.753906 1104 822 1115 816 1125 C 823.640625 1120.382813 827 1111 835 1107 C 825 1141.125 793.425781 1178.007813 763 1195.566406 C 753.683594 1201 743 1208.433594 732 1209 L 732 1208 C 754.34375 1192 772.410156 1175.183594 791 1155 C 783.175781 1159 776.539063 1165.460938 769 1170.089844 C 749.421875 1182.105469 724 1195.007813 701 1198 C 706.511719 1189.339844 717.894531 1184.640625 724 1176 C 671.484375 1205.238281 616.628906 1209.546875 558 1215.171875 C 518.863281 1219 480.351563 1227 442 1235.425781 C 418.601563 1240.59375 395.851563 1248 373 1255.027344 C 367 1257 350 1264.800781 353 1250.273438 C 354 1245.585938 367 1242.703125 371 1241.191406 C 389.695313 1234.085938 408.785156 1228.578125 428 1223.140625 C 490.777344 1205.367188 556.617188 1206.574219 620 1192.574219 C 639 1188.371094 655.847656 1179.585938 674 1173 L 674 1172 C 643.925781 1172.640625 614.546875 1186 584 1186 L 584 1185 C 608.191406 1176.792969 633.3125 1168.601563 658 1162 L 658 1161 C 625.601563 1167.015625 592.628906 1173 560 1177 L 560 1176 C 580 1166.140625 604.542969 1164.566406 625 1155 C 614.988281 1152.828125 602 1157.734375 592 1159.535156 C 571.726563 1163.1875 551.59375 1165 531 1165 C 534.546875 1160 547 1159.277344 553 1158.25 C 570.628906 1155.1875 590.855469 1153.105469 607 1145 C 596 1143 582 1145.769531 571 1146.828125 C 552.671875 1148.582031 534.425781 1149 516 1149 L 516 1148 C 537.921875 1139.777344 563.269531 1138 586 1132 L 586 1131 C 558.882813 1130.441406 532 1133 505 1133 L 505 1132 C 523 1125 546.601563 1120.585938 566 1119 L 566 1118 C 542.929688 1113.496094 516 1124.164063 493 1126 L 493 1125 C 507.699219 1116.726563 531.195313 1110.464844 548 1109 L 548 1108 C 523.820313 1108 501.933594 1113.445313 479 1120 C 488.984375 1103.066406 522.921875 1101.421875 540 1097 L 540 1096 C 518.683594 1096.058594 497.230469 1099.324219 476 1101 C 478.8125 1096.414063 484.246094 1095.167969 489 1093.148438 C 500.316406 1088.34375 511.960938 1085.242188 524 1083 L 524 1082 C 508.90625 1081.394531 493.894531 1082.222656 479 1085 C 487.382813 1075.222656 509.421875 1067.695313 522 1066 L 522 1065 C 504 1065 486.691406 1066.222656 469 1062 C 491 1045.183594 519.507813 1036.664063 545 1026.550781 C 560.921875 1020.234375 576.597656 1010.726563 593 1006 M 1524 1062 C 1507 1067.148438 1490 1063.574219 1473 1065 L 1473 1066 C 1485.308594 1067.082031 1505.859375 1074.503906 1514 1084 C 1498.964844 1083.355469 1484 1080 1469 1080 L 1469 1082 C 1481.59375 1082.574219 1511 1089.679688 1518 1101 C 1497.921875 1099.414063 1478.257813 1097 1458 1097 L 1458 1098 C 1467 1101 1476.820313 1101.1875 1486 1104.027344 C 1496.945313 1107.410156 1505.875 1113 1516 1118 L 1516 1119 C 1507.445313 1117.738281 1499.496094 1113.726563 1491 1112.003906 C 1475 1108.773438 1457.253906 1108 1441 1108 L 1441 1109 C 1462 1109.175781 1486 1118.023438 1505 1127 L 1505 1128 C 1494.621094 1127.152344 1484.292969 1123.269531 1474 1121.464844 C 1458.480469 1118.738281 1441.714844 1118.128906 1426 1118 L 1426 1119 C 1441 1123.789063 1457.558594 1124.246094 1473 1128.128906 C 1478.433594 1129.492188 1487.515625 1130.363281 1491 1135 C 1463.554688 1132.832031 1434.488281 1127.527344 1407 1131 L 1407 1132 C 1432.492188 1135.238281 1457.992188 1143.214844 1483 1149 L 1483 1150 C 1450.722656 1150 1418.246094 1143.46875 1386 1145 L 1386 1146 C 1398.597656 1147.628906 1410.617188 1152.394531 1423 1155.113281 C 1437.21875 1158.238281 1451.839844 1159.589844 1466 1163 L 1466 1164 C 1449.171875 1164.011719 1432.714844 1164.304688 1416 1161.726563 C 1399 1159.113281 1381 1154.140625 1364 1154 L 1364 1155 C 1388 1161.832031 1411.683594 1169.144531 1436 1175 L 1436 1176 C 1401.972656 1176 1369.796875 1162.023438 1336 1162 L 1336 1163 C 1359.457031 1170.5 1386.28125 1183 1411 1184 L 1411 1185 C 1401.542969 1187.796875 1389.511719 1184.582031 1380 1182.804688 C 1360.699219 1179.195313 1339.554688 1173 1320 1172 L 1320 1173 C 1340.332031 1181.339844 1359.449219 1189.5625 1381 1194.5 C 1408.714844 1201 1437.839844 1202 1466 1205.285156 C 1499 1209.300781 1531.46875 1215.539063 1564 1222.792969 C 1583.824219 1227.214844 1602.863281 1235 1622 1241.496094 C 1626.207031 1243 1639.53125 1245.261719 1640.589844 1250.273438 C 1643.398438 1263.601563 1628 1257.1875 1622 1255.167969 C 1599.492188 1247.644531 1576.855469 1241.828125 1554 1235.574219 C 1515.289063 1225 1473.890625 1219 1434 1215.171875 C 1407.253906 1212.613281 1380.449219 1212 1354 1206.550781 C 1323.886719 1200.527344 1297.472656 1189 1270 1176 C 1276 1184 1284.84375 1190.433594 1293 1196 L 1293 1197 C 1261.246094 1195.375 1229.363281 1172.054688 1205 1154 C 1219.714844 1176.25 1241.574219 1192.773438 1263 1208 L 1263 1209 C 1250 1207.710938 1237.277344 1198.695313 1227 1191.425781 C 1198.21875 1171.058594 1170.464844 1140 1159 1106 C 1166.527344 1111.347656 1171.378906 1119.632813 1179 1125 C 1174.933594 1118 1171.214844 1111.140625 1170 1103 C 1169.773438 1101.4375 1168 1095.410156 1170.605469 1095 C 1174.957031 1094.09375 1186 1106.355469 1190 1109 C 1206.496094 1119.78125 1223.894531 1128 1243 1133 C 1297.945313 1147.25 1363.894531 1126.234375 1389.972656 1073 C 1400.578125 1051.34375 1401 1030.503906 1401 1007 C 1416.78125 1011.316406 1431.730469 1020.035156 1447 1026 C 1472.65625 1036 1502.425781 1044.109375 1524 1062 M 1594 1050 C 1585.289063 1046.8125 1567.441406 1038.496094 1562 1031 C 1574.328125 1034 1586.539063 1039.414063 1594 1050 M 429 1033 C 423.253906 1040.320313 409.921875 1046.539063 401 1049 C 405.253906 1040.296875 419.652344 1033.816406 429 1033 M 1610 1081 C 1598 1076.378906 1586.742188 1065.160156 1576 1058 C 1571 1054.765625 1564.175781 1052 1561 1047 C 1579 1050.117188 1601.496094 1064.605469 1610 1081 M 431 1049 L 431 1050 C 415.316406 1060.578125 396.546875 1069.507813 384 1084 C 383.207031 1078.539063 389.335938 1073.164063 393 1069.65625 C 403.597656 1059.5625 416 1051 431 1049 M 453 1155 L 453 1156 C 439.203125 1157.089844 425.902344 1158 412 1158 C 419 1152.582031 444.429688 1152.46875 453 1155 M 1584 1157 L 1584 1158 C 1569.199219 1158 1554.65625 1156.304688 1540 1156 C 1548.285156 1149.722656 1574 1155.160156 1584 1157 M 472 1170 L 472 1172 C 446.183594 1175.8125 422.542969 1183 396 1183 C 399.46875 1178.027344 409.339844 1177.296875 415 1176.011719 C 433.789063 1171.75 452.742188 1170 472 1170 M 1600 1182 L 1600 1183 C 1573.292969 1183 1547.496094 1179.152344 1522 1171 C 1528.570313 1168.242188 1538 1170.09375 1545 1171 C 1563 1172.769531 1583 1175 1600 1182 M 491 1190 L 491 1191 C 469.722656 1203 435 1208 411 1205 C 416.203125 1200.679688 425.472656 1198.628906 432 1197 C 450.828125 1192 471.570313 1190 491 1190 M 1583 1204 C 1577.878906 1207.496094 1571.765625 1205.292969 1566 1205.039063 C 1550.597656 1204.363281 1535.773438 1201.589844 1521 1197.117188 C 1515.839844 1195.554688 1507.171875 1194.542969 1504 1190 C 1530.796875 1190.222656 1558 1194.109375 1583 1204 M 1038 1203 C 1034.410156 1209 1024.386719 1210.261719 1018 1211.425781 C 997.96875 1215.066406 973.527344 1214.3125 955 1205 C 960.964844 1199.742188 973.265625 1199.097656 981 1199.003906 C 1000.59375 1198.769531 1018.714844 1200.164063 1038 1203 M 854 1207 L 855 1208 L 854 1207 M 653 1227.53125 C 661.292969 1225.265625 663.652344 1237.667969 655.980469 1240.046875 C 648.316406 1242.425781 645.273438 1229.667969 653 1227.53125 M 1339 1227.476563 C 1346.917969 1225.695313 1349.707031 1237.640625 1341.957031 1239.546875 C 1333.875 1241.535156 1331.230469 1229.246094 1339 1227.476563 M 578 1230.671875 C 590.929688 1230.832031 588.871094 1249.007813 577 1248.441406 C 565.445313 1248 566.398438 1230.523438 578 1230.671875 M 1416 1230.453125 C 1426.289063 1228.078125 1430.519531 1244.671875 1419.984375 1247.566406 C 1407.933594 1251 1403.761719 1233.277344 1416 1230.453125 M 1266 1235 L 1266 1236 L 1263 1236 C 1264.246094 1235.316406 1264.546875 1235.25 1266 1235 M 481 1241 L 481 1242 C 459.429688 1245.175781 440.257813 1254 418 1254 L 418 1252 C 438 1250.253906 460.648438 1236.324219 481 1241 M 1576 1253 L 1576 1254 C 1554.425781 1254 1533.933594 1246.332031 1513 1242 C 1518.449219 1239.714844 1525.285156 1241.261719 1531 1241.832031 C 1546 1243.335938 1561.910156 1247.433594 1576 1253 M 1564 1269 C 1552.898438 1271.804688 1538.578125 1265 1528 1261.722656 C 1523.570313 1260.40625 1518.691406 1260.058594 1516 1256 C 1530.351563 1257.8125 1552.402344 1259.640625 1564 1269 M 477 1257 C 474.402344 1260.722656 469.199219 1261.222656 465 1262.421875 C 454.515625 1265.414063 440.972656 1271 430 1269 C 440.222656 1259.289063 463.546875 1258.0625 477 1257 M 818 1269.613281 C 806.75 1272.289063 809.796875 1288.109375 821 1286.011719 C 832.765625 1283.808594 829.734375 1266.820313 818 1269.613281 M 484 1270 C 476 1278 458.738281 1282.050781 448 1285.140625 C 446.25 1285.644531 436.707031 1289.710938 435.921875 1286.605469 C 435.167969 1283.632813 444 1281 446 1280.203125 C 458.285156 1275.335938 470.890625 1271.65625 484 1270 M 1171 1270.742188 C 1160.359375 1275.089844 1168.992188 1290 1178.957031 1286 C 1190.5 1281.21875 1181.589844 1266.449219 1171 1270.742188 M 1560 1289 C 1542.597656 1288.105469 1524.375 1276.539063 1508 1271 C 1512.722656 1269.074219 1518.277344 1271.292969 1523 1272.574219 C 1533.925781 1275.539063 1554.34375 1278 1560 1289 M 214 1455 C 227.691406 1451.269531 241 1434.417969 253 1426.34375 C 286.453125 1403.558594 320.40625 1378.652344 358 1363 C 344.875 1381.632813 318 1396.53125 312 1420 C 318.96875 1416.53125 324.878906 1411.324219 332 1408 C 325.773438 1417 317.554688 1424.386719 310.886719 1433 C 298.507813 1449 288 1467 279.21875 1485 C 275.742188 1492.125 270.777344 1499.226563 269 1507 C 277 1502.703125 283.3125 1493.320313 290 1487.089844 C 303.980469 1474.066406 318.304688 1461.296875 333 1449.082031 C 373.253906 1415.621094 419 1385.6875 466 1362.269531 C 514.992188 1337.773438 565.824219 1318.183594 619 1305 C 660.875 1294.429688 704.421875 1291.511719 744 1273 C 734.671875 1269.085938 717 1273.21875 707 1274 C 677.671875 1276 648.332031 1276.558594 619 1279 C 554.597656 1284.089844 491 1300.289063 430 1320.667969 C 393.542969 1332.820313 358 1345.160156 324 1363.21875 C 282 1385.464844 240.539063 1415 214 1455 M 1250 1272 L 1250 1273 C 1291.789063 1289.539063 1334.714844 1294.652344 1378 1305.476563 C 1432.589844 1319.121094 1485 1339.453125 1535 1365.257813 C 1580.484375 1388.734375 1623.636719 1417.363281 1663 1450.082031 C 1676.976563 1461.695313 1690.863281 1473.480469 1704 1486.039063 C 1710.667969 1492.414063 1716.992188 1501.414063 1725 1506 C 1718.445313 1483.25 1702.851563 1457.800781 1688.339844 1439.285156 C 1680.550781 1429.34375 1670.957031 1420.519531 1664 1410 C 1670.230469 1413 1675.582031 1417.566406 1682 1420 C 1669.375 1397.324219 1650.195313 1378.195313 1632 1360 C 1670.601563 1376.070313 1706.175781 1402.238281 1740 1426.421875 C 1752.988281 1435.710938 1765.90625 1448.804688 1780 1456 C 1774.917969 1444 1762 1432.152344 1753 1423 C 1725.859375 1395.816406 1693.320313 1374 1659 1356.753906 C 1623.269531 1339 1585.246094 1326.628906 1547 1315.277344 C 1450 1286.5 1351.1875 1272 1250 1272 M 769 1275.027344 C 758.515625 1280.726563 767.753906 1296.183594 777.90625 1290.425781 C 788.550781 1284.390625 779.691406 1269.277344 769 1275.027344 M 1216 1275.027344 C 1205.535156 1281 1216.347656 1297.179688 1226.890625 1290.578125 C 1237.21875 1284.121094 1225.945313 1269.496094 1216 1275.027344 M 853 1310.742188 C 842.367188 1315 848.671875 1330.535156 858.996094 1327.066406 C 871.335938 1323 865 1306.007813 853 1310.742188 M 1133.1875 1310.742188 C 1123.726563 1315 1131 1330.695313 1140.984375 1326.757813 C 1153.496094 1321.746094 1144.480469 1305.742188 1133.1875 1310.742188 M 810 1322.027344 C 798.839844 1328 809.332031 1343.558594 819.894531 1337.425781 C 830.578125 1331.226563 820.214844 1316.609375 810 1322.027344 M 1175 1322.027344 C 1164.316406 1327.746094 1173.835938 1342.785156 1183.980469 1337.679688 C 1194.960938 1332.15625 1185.695313 1316.351563 1175 1322.027344 M 776 1324.667969 C 765 1325.679688 764.398438 1343.027344 776 1342.589844 C 789 1342.097656 789.214844 1323.453125 776 1324.667969 M 1213.183594 1325.742188 C 1201.460938 1331 1212.621094 1347.5 1222.945313 1342 C 1233.753906 1336.183594 1223.332031 1321.324219 1213.183594 1325.742188 M 1277 1383.332031 C 1277.773438 1383.332031 1277 1383.832031 1276.667969 1383.667969 L 1277 1383.332031 M 1171 1387 L 1170 1388 L 1171 1387 M 1664 1409 L 1663 1410 L 1664 1409 M 1076 1498 L 1075 1498 C 1070.355469 1482 1059.800781 1464.722656 1046 1455 C 1061 1474.808594 1062 1495.121094 1062 1519 L 1061 1519 C 1055 1500.699219 1045.59375 1484.707031 1032 1471 C 1037.65625 1491.730469 1045 1514.546875 1037 1536 L 1036 1536 C 1034.9375 1522.550781 1030 1510.296875 1024.851563 1498 C 1022.691406 1493 1020.933594 1486.800781 1016 1484 C 1019.726563 1496.609375 1016.316406 1514.300781 1013.90625 1527 C 1013 1531.402344 1012.671875 1538.203125 1009 1541 C 1007.996094 1528.289063 1004.960938 1515.351563 1001.871094 1503 C 1000.515625 1497.566406 999.941406 1491.15625 996 1487 C 993.515625 1505.4375 986.808594 1523.21875 986 1542 L 985 1542 C 978.898438 1523.242188 976.453125 1503.578125 978 1484 C 966 1495.027344 959 1520.285156 957 1536 L 956 1536 C 949.25 1516.054688 954.703125 1490.625 963 1472 C 952.96875 1479.085938 945.945313 1491.058594 940.78125 1502 C 938.429688 1507 937.363281 1515.691406 933 1519 C 932.5 1495 934.351563 1475.722656 948 1455 C 932.269531 1466.078125 929.632813 1482.789063 919 1497 C 909.726563 1465.324219 948 1434.796875 973 1424.800781 C 1021.535156 1405.386719 1076 1448.386719 1076 1498 M 856 1438.332031 C 856.773438 1438.332031 856 1438.832031 855.667969 1438.667969 L 856 1438.332031 M 1141 1438 L 1141 1439 L 1138 1439 C 1139.246094 1438.316406 1139.546875 1438.25 1141 1438 M 590 1450 L 589 1451 L 590 1450 M 948.667969 1454.332031 C 948.222656 1454.777344 949.277344 1454.722656 949.332031 1454.667969 C 949.777344 1454.222656 948.722656 1454.277344 948.667969 1454.332031 M 1045 1454 L 1046 1455 L 1045 1454 M 1364 1454.332031 L 1364.332031 1454.667969 C 1363.839844 1454.832031 1363.226563 1454.332031 1364 1454.332031 M 1344 1465 C 1344.546875 1466.636719 1344.363281 1466.453125 1346 1467 C 1345.230469 1465.6875 1345.3125 1465.769531 1344 1465 M 724 1467 L 724 1468 C 731.261719 1470.148438 739.449219 1469.214844 747 1470.804688 C 755.800781 1472.65625 764 1476.796875 773 1478 C 761 1464.8125 739.769531 1466.324219 724 1467 M 1222 1477 L 1222 1478 C 1230.828125 1476.804688 1239.261719 1473.0625 1248 1471.210938 C 1255.199219 1469.6875 1263 1470.050781 1270 1468 C 1254.464844 1461.300781 1235.65625 1469.816406 1222 1477 M 783 1499 L 783 1500 C 789 1503.246094 794.488281 1507.628906 801 1510 C 797.515625 1504.074219 789.664063 1500.039063 783 1499 M 1197 1508 C 1200.492188 1506.269531 1203.695313 1504.070313 1207 1502 C 1202.703125 1501.296875 1198.988281 1504.378906 1197 1508 M 1194 1510 C 1195.636719 1509.453125 1195.453125 1509.636719 1196 1508 C 1194.363281 1508.546875 1194.546875 1508.363281 1194 1510 M 543.667969 1672.667969 C 543.722656 1672.722656 543.777344 1673.777344 543.332031 1673.332031 C 543.277344 1673.277344 543.222656 1672.222656 543.667969 1672.667969 "/>
</g>
</svg>
