<svg xmlns="http://www.w3.org/2000/svg" xmlns:xlink="http://www.w3.org/1999/xlink" viewBox="0 0 100 100" version="1.1"><g transform="translate(1, 11.124659732696905) scale(0.05847255369928401) translate(-161, -263.480469)"><path style=" stroke:none;fill-rule:nonzero;fill:rgb(0%,0%,0%);fill-opacity:1;" d="M 280 1510 C 289.898438 1508.289063 299.59375 1502.738281 309 1499.226563 C 324.523438 1493.433594 340.265625 1488.195313 356 1483 C 413.445313 1464.035156 471.40625 1445.664063 530 1430.578125 C 605.1875 1411.222656 681 1412 758 1412 L 758 1414 C 695.890625 1414 632.644531 1427.417969 572 1439.550781 C 555.773438 1442.796875 539.898438 1447.140625 524 1451.710938 C 518.933594 1453.164063 509.527344 1454.425781 505.65625 1458.160156 C 503 1460.589844 506.976563 1465 508.308594 1467 C 510.941406 1471.128906 523.628906 1486.5625 520.976563 1491.351563 C 519.550781 1494 514.546875 1495 512 1496 C 504.292969 1499.015625 496.648438 1502.023438 489 1505.1875 C 459 1517.601563 430.800781 1534.179688 401 1546.636719 C 393.261719 1550 384 1548.304688 376 1549.175781 C 360.679688 1550.8125 345.289063 1553.214844 330 1555.429688 C 273.875 1563.554688 215.199219 1571.710938 161 1589 L 161 1590 C 175.652344 1593.175781 194.816406 1590 210 1590 C 246.65625 1590 283.34375 1589.566406 320 1590.003906 C 443.902344 1591.476563 568 1591 692 1591 C 1073.675781 1591 1455.402344 1590 1837 1590 L 1837 1589 C 1790.179688 1574.1875 1739.378906 1567.210938 1691 1559.4375 C 1673.660156 1556.652344 1653.660156 1556.183594 1637 1550.527344 C 1622.996094 1545.773438 1609.738281 1532.132813 1597 1524.449219 C 1573.203125 1510.097656 1547.972656 1498.371094 1522 1488.574219 C 1511 1484.488281 1499.421875 1479 1488 1477 L 1488 1478 C 1513.597656 1491.425781 1539.71875 1503.832031 1565 1518 C 1582.777344 1527.726563 1600.25 1540.15625 1619 1548 L 1619 1549 C 1598 1548.097656 1577 1547 1556 1547 C 1544.765625 1547 1530.929688 1549.183594 1520 1546.527344 C 1506.953125 1543.359375 1493.859375 1532 1482 1525.628906 C 1472.902344 1520.753906 1454.546875 1515.195313 1448.542969 1506.671875 C 1444.859375 1501.441406 1456.429688 1487.472656 1459.328125 1483 C 1461.226563 1480.070313 1464.222656 1476.027344 1460.675781 1473.144531 C 1449.878906 1464.359375 1426.371094 1462 1413 1458.527344 C 1376.398438 1449.421875 1339.765625 1440.402344 1303 1432 L 1303 1431 C 1344.773438 1431 1386.277344 1433.710938 1427 1444 C 1438.695313 1446.792969 1450.359375 1449.695313 1462 1453 C 1465.359375 1453.757813 1472 1457 1475.363281 1455 C 1481 1451.34375 1486 1436.148438 1488.570313 1430 C 1489.824219 1427 1491.277344 1423.609375 1487.835938 1421.570313 C 1474.183594 1413.496094 1451.46875 1412.09375 1436 1409.703125 C 1398.816406 1404 1360.617188 1397.613281 1323 1396 L 1323 1395 C 1361.238281 1385.578125 1407.625 1390.515625 1446 1397 C 1460.851563 1399.398438 1478 1401.507813 1491.964844 1407.398438 C 1498.449219 1410.140625 1492.492188 1417.207031 1498 1419.46875 C 1510.695313 1424.480469 1525 1427 1538 1431.027344 C 1564.308594 1439.472656 1590.355469 1449.148438 1616 1459.398438 C 1635.34375 1467.132813 1654.640625 1475 1674 1482.601563 C 1684.574219 1486.792969 1696.609375 1493.007813 1708 1494 C 1697.429688 1483.335938 1680.976563 1476.019531 1668 1468.578125 C 1633.753906 1449 1598 1432.269531 1561 1419 C 1547.515625 1414 1533.753906 1410 1520 1406 C 1516.320313 1404.769531 1507.855469 1403.335938 1506.863281 1399 C 1505.851563 1394.351563 1510.742188 1387.132813 1512.398438 1383 C 1517.859375 1369.386719 1523.375 1355.816406 1528.308594 1342 C 1545.636719 1293.476563 1562.3125 1244 1570.917969 1193 C 1577.421875 1154.496094 1579.546875 1116 1575.828125 1077 C 1573 1048 1565.691406 1019.269531 1569.285156 990 C 1573.429688 956.296875 1592.195313 926.539063 1597.675781 893 C 1604.621094 850.496094 1596 806.808594 1600.171875 764 C 1603.449219 730.113281 1611.277344 696.769531 1615.71875 663 C 1622 615 1624.199219 566.429688 1623 518 C 1621.394531 452 1620.875 372 1578.347656 317 C 1573.472656 310.707031 1567.515625 304.648438 1561 300.042969 C 1509.261719 263.480469 1445.367188 314.820313 1409 350 C 1345.671875 411.109375 1291.929688 485.652344 1246.449219 561 C 1233.242188 583 1219.675781 604.71875 1205.515625 626 C 1195 641.75 1184.257813 658.496094 1169 670.101563 C 1151.574219 683.355469 1130.34375 689.410156 1109 692.703125 C 1058.808594 700.453125 1008.542969 685.824219 958 688.039063 C 891.234375 691 812.621094 732 754 681.699219 C 717.515625 650.472656 690 605.167969 661.527344 567 C 617.222656 508 570.453125 451 517 400 C 482.714844 367.234375 429.402344 321.136719 378 327.285156 C 338.921875 332 316.402344 364.730469 303.574219 399 C 279.585938 463.105469 277.890625 532.433594 278 600 C 278 673.542969 301.945313 743.503906 315.625 815 C 323.769531 857.554688 318.527344 902.132813 330.558594 944 C 341 980.738281 368 1010.101563 377.621094 1047 C 385.671875 1078.265625 382.644531 1109.175781 384 1141 C 385.25 1168.628906 389.683594 1196.289063 397 1223 C 410.550781 1272.351563 429.964844 1321 452 1367 C 458.964844 1381.511719 466.277344 1395.777344 473.78125 1410 C 476.234375 1414.648438 482.578125 1422.179688 482.429688 1427.605469 C 482.328125 1431.371094 473.773438 1432.644531 471 1433.441406 C 457.945313 1437.195313 444.890625 1441.019531 432 1445.332031 C 393.550781 1458.195313 355.871094 1474 319 1490.769531 C 308.507813 1495.558594 286.703125 1500.527344 280 1510 M 1224 1016 C 1220.578125 1023.195313 1214.71875 1029 1211 1036 C 1201.421875 1055.246094 1198.238281 1077 1203.234375 1098 C 1218 1160.566406 1302 1197.535156 1348.710938 1144 C 1355.664063 1136.019531 1361.523438 1127 1365.386719 1117 C 1370 1105 1371.542969 1092 1370.960938 1079 C 1370.238281 1063.058594 1363.199219 1047 1354 1034 C 1349.746094 1028 1343 1022.773438 1340 1016 C 1357.222656 1023.429688 1375 1036.125 1385.300781 1052 C 1416.425781 1100.15625 1388 1165.671875 1340 1189.5625 C 1293.582031 1212.628906 1235.734375 1201.113281 1197 1168.675781 C 1186.1875 1159.617188 1179.796875 1146.695313 1171 1136 C 1169.539063 1145.6875 1173.378906 1157.566406 1175.667969 1167 C 1182 1193.652344 1194.21875 1219.375 1206 1244 C 1210 1252.34375 1216.898438 1261.058594 1219 1270 C 1206 1261 1197 1244.300781 1188.9375 1231 C 1156 1177 1151.511719 1101.574219 1189.847656 1049 C 1198.789063 1036.738281 1210.261719 1023.011719 1224 1016 M 1283 1018.300781 C 1318.488281 1013.285156 1331.640625 1069.625 1295 1075.804688 C 1286 1077.320313 1275.703125 1076.753906 1268 1071.351563 C 1244.441406 1054.832031 1256.933594 1022 1283 1018.300781 M 708 1036 C 703.488281 1044.132813 696.28125 1051 691.453125 1059 C 683.679688 1072.074219 680.523438 1088 680 1103 C 678.699219 1145.15625 714.554688 1187.085938 756 1193.5625 C 786.238281 1198.285156 818 1184.824219 836.789063 1161 C 844 1151.65625 849.625 1141.46875 852.84375 1130 C 858.75 1109 856.625 1091.601563 851 1071 C 860.296875 1076.082031 867.9375 1091.527344 872 1101 C 894.695313 1152 862.371094 1202.191406 812 1218.496094 C 757.65625 1236.085938 693.222656 1216.792969 661.699219 1168 C 632.578125 1123 652 1050.113281 708 1036 M 752 1039.378906 C 792 1031.222656 809.503906 1088.570313 767 1097.335938 C 730.761719 1104.804688 713.902344 1047.136719 752 1039.378906 M 1412 1084 C 1418.972656 1139.132813 1399.457031 1193.230469 1346 1217.691406 C 1311.996094 1233.25 1262.828125 1232.507813 1231 1212.011719 C 1222.378906 1206.457031 1211.488281 1200.628906 1207 1191 C 1268.9375 1226.25 1350.542969 1221.105469 1390.933594 1156 C 1399.570313 1142.078125 1404.75 1126.011719 1407.738281 1110 C 1409.222656 1102.054688 1408.253906 1091.046875 1412 1084 M 630 1119 C 638.472656 1140.4375 646.785156 1160.039063 660.296875 1179 C 691.449219 1222.714844 741.550781 1241.410156 794 1234.714844 C 815 1232.015625 833.203125 1223.753906 853 1217 C 845.382813 1232.167969 818.492188 1242.265625 803 1246.222656 C 746 1260.757813 683.992188 1235.28125 650.296875 1188 C 639.847656 1173.339844 633.257813 1156.726563 630.410156 1139 C 629.410156 1132.78125 627.480469 1125.003906 630 1119 M 1124 1390 C 1129.4375 1377.148438 1140.902344 1366.359375 1147.6875 1354 C 1149.703125 1350.332031 1153.9375 1344.414063 1153.46875 1340.058594 C 1152.5625 1331.636719 1129.238281 1335.355469 1124 1337 C 1108.386719 1341.414063 1093.203125 1351.386719 1087 1367 C 1083.867188 1375.222656 1084 1387 1079 1394 C 1070.640625 1373 1066.226563 1351.027344 1042 1343 C 1029.335938 1338.632813 1017 1339.390625 1004 1340 C 1000.925781 1340.09375 993 1341.328125 991.691406 1337.683594 C 989.863281 1333.085938 994.171875 1325.726563 996.46875 1322 C 1004.882813 1308.339844 1021.964844 1299.21875 1038 1299.003906 C 1050.875 1298.828125 1064.222656 1300.292969 1077 1299.484375 C 1099.324219 1298.074219 1118.398438 1291.734375 1139 1304.476563 C 1165.921875 1321.136719 1159.847656 1352.710938 1142.714844 1374 C 1137.847656 1380.03125 1131.464844 1387.464844 1124 1390 M 1430 1336 L 1430 1338 C 1384.328125 1338.03125 1339.953125 1355.289063 1295 1361 C 1303.203125 1353.675781 1318.558594 1350.808594 1329 1348 C 1361.703125 1338.628906 1396.167969 1336 1430 1336 M 801 1381 L 801 1383 C 786.632813 1382.703125 772.242188 1378.699219 758 1377.175781 C 716 1372.691406 674 1367 632 1367 C 636.175781 1364.144531 641 1365.289063 646 1364.828125 C 658.640625 1363.628906 671.359375 1363.628906 684 1364.828125 C 704.3125 1366.761719 724.679688 1366.371094 745 1369.300781 C 763.898438 1372.023438 782.230469 1377.820313 801 1381 M 774 1444 C 769 1451.136719 748.316406 1452.484375 740 1454.523438 C 707.5625 1462.492188 675 1470.023438 643 1479.140625 C 619.273438 1486 595.839844 1494.308594 573 1503.601563 C 567.285156 1506 552.308594 1509.679688 548.882813 1514.816406 C 546 1519.074219 558.878906 1534.34375 561.34375 1538 C 562.402344 1539.574219 566.976563 1544.625 564.339844 1546.398438 C 562 1548 557.503906 1547 555 1547 L 437 1547 L 437 1545 C 452.40625 1542.222656 469.910156 1530.246094 484 1523.246094 C 515.589844 1507.554688 547.726563 1490.546875 581 1478.691406 C 623.847656 1463.429688 669.929688 1454 715 1448.285156 C 734.433594 1446 754.839844 1447.558594 774 1444 M 1510 1546 L 1510 1547 L 1441 1547 C 1435 1547 1420.546875 1549.695313 1415.660156 1546.398438 C 1413.398438 1545 1416.582031 1541.390625 1417.503906 1540 C 1419.796875 1536.535156 1429.175781 1526.410156 1425.621094 1522.765625 C 1417.402344 1514.316406 1398.800781 1510.320313 1388 1506 C 1364.175781 1496.472656 1340.230469 1487.148438 1316 1478.695313 C 1304.320313 1474.621094 1290.773438 1472.066406 1280 1466 C 1284.925781 1464 1290.847656 1466.496094 1296 1467 C 1310.976563 1468.125 1326.3125 1471 1341 1474.117188 C 1401.648438 1487.457031 1456.777344 1514.605469 1510 1546 M 775 1482 L 775 1483 C 751.925781 1493 727 1498.710938 704 1509.074219 C 686.820313 1516.808594 669.757813 1524.609375 653 1533.257813 C 645.203125 1537.285156 637.421875 1543.824219 629 1546.351563 C 617.921875 1549.675781 602.546875 1547 591 1547 C 601.285156 1534.554688 620.710938 1527.070313 635 1520.222656 C 677 1500.066406 728 1484.015625 775 1482 M 1356 1543 C 1332.394531 1530.582031 1308 1520.273438 1284 1509 C 1289.75 1506.65625 1297.464844 1511 1303 1513 C 1319.582031 1518.738281 1345.449219 1528.375 1356 1543 M 806 1513 L 806 1514 C 791.511719 1520.476563 776.453125 1525.675781 762 1532.308594 C 752.765625 1536.546875 742.9375 1543 733 1545 C 748.710938 1527.363281 782.78125 1515 806 1513 "/></g></svg>