<?xml version="1.0" encoding="UTF-8"?>
<svg xmlns="http://www.w3.org/2000/svg" xmlns:xlink="http://www.w3.org/1999/xlink" width="2000pt" height="2000pt" viewBox="0 0 2000 2000" version="1.1">
<g id="surface1">
<path style=" stroke:none;fill-rule:nonzero;fill:rgb(0%,0%,0%);fill-opacity:1;" d="M 882 466 C 875.523438 453.644531 876.527344 436.597656 874.410156 423 C 874 420.644531 874.394531 409.242188 872.550781 408.347656 C 870.445313 407.320313 867 411.804688 866 413.003906 C 859.757813 419.4375 854.410156 426.757813 849 434 C 834.359375 454.367188 821.191406 476.132813 810.691406 499 C 805.703125 510 799.621094 521.003906 798 533 C 810.707031 531 823 531 836 531 L 836 533 C 821.328125 534.46875 804.449219 545.085938 792 552.550781 C 752.277344 576.371094 719.886719 613.039063 702 656 L 701 656 C 701.277344 623.058594 713.875 584.179688 732.34375 557 C 737.617188 549.238281 743.585938 541.785156 750.171875 535.09375 C 752.910156 532.308594 757 530.378906 758.976563 527 C 763.222656 519.300781 764 508.285156 767.449219 500 C 773.472656 485 783.230469 470.335938 788 455 C 780.308594 453.238281 773 448.148438 766 444.78125 C 752.515625 438.410156 738.71875 432.28125 725 426.425781 C 683.5625 408.746094 639.878906 393.300781 596 383 C 544.730469 370.714844 492.453125 362.703125 440 359.089844 C 410.347656 357.046875 380.625 359 351 359 C 334 359 316.839844 360.160156 300 362.425781 C 295.746094 363 286 362.722656 283 366.011719 C 281.167969 368 282 372.554688 282 375 L 282 398 C 282 403.8125 280.25 413.3125 282.683594 418.683594 C 284.351563 422.359375 292.5625 422.132813 296 423 C 309.648438 426 323.433594 428.039063 337 431.472656 C 383.167969 443.167969 430.527344 462.53125 468 492.449219 C 501.800781 519.433594 529.71875 553 552 590 C 559.628906 602.6875 566.703125 615.453125 572.691406 629 C 575.296875 635 576.242188 643 581 647.480469 C 592.667969 658.050781 609.558594 665 623 673 C 650.28125 689 677.960938 705 703 724.425781 C 764.972656 772.53125 803.410156 834 841.871094 901 C 852 918.753906 861.863281 936.800781 871.257813 955 C 875.316406 963 881.320313 970.597656 884 979 L 883 979 C 878.226563 970.660156 868.773438 963.773438 862 957 C 848 943.007813 834.222656 929.027344 821.523438 913.828125 C 775.433594 858.660156 733.636719 797 676 753 C 642.953125 727.679688 606.554688 707.222656 574 681.335938 C 556 667.085938 540 650.15625 524 634 C 513.265625 623.265625 499.757813 613.433594 491 601 C 502.851563 609.417969 517.871094 618 531 624 C 527 613.097656 519.539063 602.820313 513.425781 593 C 475.464844 532.027344 415.5625 500.347656 350 476.78125 C 332.871094 470.628906 315.574219 464.609375 298 460 C 294.46875 459 283.945313 454.015625 280.691406 456.210938 C 278.28125 458 279.195313 476.441406 279 480 C 277.964844 504.550781 277 529.453125 277 554 L 276 554 C 268 520.472656 269.371094 484.824219 263 451 L 262 451 C 262 470.71875 259.433594 490.351563 258 510 C 255.492188 548 254.628906 586.039063 253 624 L 252 624 C 252 593.519531 248.167969 563.351563 246 533 C 241.183594 461.359375 238.65625 389.453125 231.828125 318 C 227.84375 276.285156 222 234 222 192 L 220 192 C 220 232.648438 215.816406 273.417969 214 314 L 203 567 C 198.753906 665 203 764 203 862 C 203 1019.519531 201 1177.558594 204.984375 1335 C 207.503906 1437.828125 212.464844 1540.328125 216.960938 1643 C 218.496094 1678.035156 219.515625 1713.019531 221.910156 1748 C 222.894531 1762.359375 220.910156 1779.160156 225 1793 L 226 1793 C 226 1763 228.648438 1733 229.960938 1703 C 232.949219 1634.71875 232.648438 1566.121094 235.960938 1498 C 243.835938 1336 239 1173.347656 241 1011 C 241.839844 940.65625 247.804688 870.242188 248 800 L 249 800 C 249 836.527344 253.367188 873.644531 256.828125 910 C 259.441406 937.40625 258.972656 966 264 993 L 265 993 C 265 923.539063 281 854.46875 281 785 L 283 785 C 283 864.210938 287 943.726563 287.996094 1023 C 289.832031 1177.425781 287.289063 1332 294 1486 C 296.300781 1537.613281 295.777344 1589.371094 298 1641 C 300 1686.207031 303 1731.730469 303 1777 L 304 1777 C 309.722656 1746.191406 307.949219 1713.226563 310 1682 C 314.242188 1621.34375 317.378906 1560.722656 320 1500 C 324.820313 1390.796875 338 1281.421875 338 1172 L 339 1172 C 341.757813 1236.195313 346 1301.023438 352.171875 1365 C 355.761719 1402.597656 361 1441.269531 361 1479 L 363 1479 C 363 1443.574219 365.414063 1408.332031 366.960938 1373 C 369.71875 1310.066406 368.472656 1247 370 1184 C 370.804688 1151.722656 373 1119.28125 373 1087 L 374 1087 C 378.824219 1113 378.652344 1140.664063 381.171875 1167 C 384.171875 1198.421875 388.980469 1230.425781 389 1262 L 390 1262 C 390 1199.554688 406 1137.429688 406 1075 L 407 1075 C 409.320313 1087.496094 407.226563 1100.378906 408 1113 C 410.75 1152 410 1191 410 1230 C 410 1300.535156 410.875 1371.570313 413.960938 1442 C 415.261719 1471.707031 413.878906 1501.335938 415.910156 1531 C 417.3125 1551.449219 418 1572.507813 418 1593 C 418 1605 416.238281 1618.394531 419 1630 L 420 1630 C 428.507813 1562.683594 428.453125 1493.683594 433 1426 C 436.980469 1369.183594 445 1312.003906 445 1255 L 446 1255 C 451.632813 1278.652344 449.429688 1305.765625 451 1330 C 453 1358.367188 456.964844 1386.621094 458.910156 1415 C 460.757813 1442 461 1470.433594 466 1497 L 467 1497 C 470.5 1482.296875 468.722656 1465.140625 470.171875 1450 C 475 1398.050781 478.453125 1345.800781 485 1294 L 486 1294 C 486 1364.199219 488.265625 1434.808594 489.984375 1505 C 492.570313 1610.441406 492.480469 1715.710938 497 1821 L 498 1821 C 501 1810.425781 499.558594 1798 500 1787 C 500.902344 1767.316406 503.175781 1747.695313 504 1728 C 506.289063 1676.605469 511.394531 1625.328125 514.910156 1574 C 516 1556.382813 518.1875 1538.632813 518.960938 1521 C 519.523438 1508.152344 519 1493.492188 522 1481 L 523 1481 C 523 1600.164063 545 1718.765625 545 1838 L 546 1838 C 550.910156 1821.386719 548.59375 1800.265625 549 1783 C 549.746094 1753.058594 551.726563 1723 553 1693 C 558 1578.429688 559 1464 559 1349 L 560 1349 C 565 1367.628906 574 1385.289063 581.574219 1403 C 589.445313 1421.460938 596.269531 1439.792969 606.8125 1457 C 625.308594 1487.195313 648.464844 1513.167969 655.628906 1549 C 658 1561.261719 660.289063 1576.125 655.195313 1588 C 651.386719 1597 642.519531 1603.148438 637 1611 C 624.722656 1628.652344 619.945313 1654.351563 630.773438 1674 C 648.292969 1705.789063 690.238281 1702.09375 713.984375 1680 C 745.203125 1651 758 1598.316406 758 1557 L 759 1557 C 769.496094 1608 773 1668.570313 725 1702.230469 C 712.375 1711.070313 697.617188 1717 682 1716 C 676.273438 1715.519531 666.515625 1710.363281 661.339844 1711.8125 C 658.476563 1712.613281 656.730469 1717 654.871094 1719 C 650.730469 1723.617188 645.691406 1727.207031 640 1729.660156 C 632.585938 1733 624 1734.316406 616 1734 C 614.644531 1734 609.242188 1733 610.347656 1736 C 612 1740.644531 621.683594 1743.699219 626 1745.386719 C 642.691406 1752 663.222656 1752.574219 679 1743.175781 C 683 1740.722656 695 1728.050781 699.234375 1728.78125 C 703.753906 1729.589844 709.84375 1744.3125 712.652344 1748 C 721.808594 1760.007813 736.242188 1771.078125 752 1772 C 782.546875 1773.65625 806.390625 1749.644531 819.246094 1724 C 845.238281 1672.144531 835.457031 1615.808594 830 1561 L 832 1561 C 833.8125 1575.542969 841.921875 1590.585938 845.523438 1605 C 857.75 1654 865.675781 1711.148438 832.765625 1754 C 824.757813 1764.421875 814.914063 1773.492188 803 1779.214844 C 798.289063 1781.480469 785 1783.207031 782 1786.679688 C 778.414063 1791 778.882813 1800 775.210938 1805 C 764.886719 1819.464844 749.355469 1820.449219 734 1825 L 734 1826 C 760 1837.578125 791.636719 1834.449219 811.480469 1812.574219 C 817.503906 1806 820 1797.78125 824 1790 C 825.734375 1797.046875 825.839844 1804.042969 830.527344 1810 C 844 1827.058594 871 1824.171875 887 1812.390625 C 907 1797.425781 918.859375 1773.738281 925 1750 C 936.5625 1706.777344 925.964844 1657.105469 911 1616 C 904.210938 1596.796875 894.582031 1577.527344 889 1558 L 890 1558 C 899 1576.203125 911.5625 1593 920.890625 1611 C 947.996094 1663.765625 965.628906 1726.148438 940.289063 1783 C 935.25 1794.3125 927.394531 1805.296875 917.960938 1813.382813 C 913.398438 1817.292969 906.578125 1819.378906 902.5625 1823.636719 C 899.792969 1826.578125 900 1831.359375 898.894531 1835 C 897 1840.558594 893.714844 1845.644531 889.824219 1850 C 884.671875 1855.773438 878.546875 1860.226563 872 1864.292969 C 870.554688 1865.191406 865.207031 1867.019531 865.207031 1869.101563 C 865.207031 1872.621094 876 1870.511719 878 1870.285156 C 891 1868.683594 903.390625 1864.503906 912.90625 1855 C 923.972656 1843.753906 920.851563 1832.507813 926.269531 1820 C 929.433594 1812.691406 938.28125 1807.335938 943 1801 C 946 1797.179688 948.648438 1790.363281 952.59375 1787.636719 C 956 1785.21875 958.875 1791.597656 959.882813 1794 C 963.640625 1803 962.964844 1812 960 1821 C 957.945313 1828.054688 952.859375 1834.085938 951 1841 C 971.195313 1835.171875 989.1875 1814.726563 995.273438 1795 C 998.46875 1784.65625 995.9375 1773.074219 1003 1764.425781 C 1023.878906 1739.050781 1045.535156 1716.648438 1047.910156 1682 C 1048.851563 1668.277344 1041.734375 1654.53125 1042.957031 1641.425781 C 1044 1630.253906 1050 1619.5625 1050.910156 1608 C 1053.191406 1575.433594 1035.472656 1542.117188 1014.921875 1518.039063 C 987.464844 1486 945.496094 1474.726563 917.746094 1443.425781 C 893.984375 1416.617188 874.742188 1385.570313 854.65625 1356 C 830.816406 1321 806.441406 1286.050781 784 1250 C 760.535156 1212.09375 745.902344 1172.234375 741 1128 C 739.449219 1112 739 1096.113281 739 1080 C 739 1076.042969 740.925781 1065 737.972656 1062.027344 C 735.828125 1060 729.761719 1061 727 1061 L 696 1061 C 667.265625 1061 638.582031 1063.402344 610 1066.171875 C 595 1067.617188 579.957031 1071.691406 565 1072 L 565 1071 C 602.902344 1058.667969 642.871094 1045.003906 683 1043.039063 C 696.664063 1042.367188 710.351563 1041 724 1040 C 727.253906 1039.671875 736.667969 1040.277344 738.972656 1038 C 741.441406 1035.503906 740.269531 1026.441406 740.71875 1023 C 741.367188 1018 744.546875 1006.066406 741.800781 1001.589844 C 739.847656 998.398438 732.296875 998.015625 729 997.144531 C 716.472656 993.828125 703.609375 991.773438 691 988.742188 C 645.25 977.742188 598.480469 971.339844 552 964.699219 C 524.339844 960.746094 495.972656 956.203125 468 955 L 468 954 C 475.890625 952.121094 483.992188 953.59375 492 952.828125 C 516.5625 950.492188 541.394531 951 566 952 C 626 954.59375 686.273438 960 745 974 C 743 968.003906 735.199219 965.203125 730 962.285156 C 716.351563 954.621094 702.628906 947.121094 689 939.425781 C 650.210938 917.511719 608.910156 900.015625 568 882.574219 C 545 872.828125 519.578125 859.230469 495 855 L 495 854 C 520 855.078125 547.96875 865.367188 572 872.445313 C 638 892 702.710938 918.15625 761 955.054688 C 786.175781 971 810.871094 987.695313 836 1003.695313 C 848.859375 1012 861 1021.527344 875 1028 L 875 1029 C 853 1025.765625 830.679688 1020.503906 809 1015.5 C 800.183594 1013.464844 789.300781 1008.660156 780.226563 1009 C 775.664063 1009.039063 775 1035 778 1038 C 780.355469 1040.300781 786.960938 1039 790 1039.171875 C 801 1040.222656 812 1041.734375 823 1043.179688 C 856.78125 1047.628906 887 1060.183594 919 1071 L 919 1072 C 906.339844 1071.738281 893.617188 1068.433594 881 1067.167969 C 861 1065.175781 840.839844 1065.054688 821 1062.714844 C 810.730469 1061.503906 800.347656 1061.015625 790 1061 C 787.292969 1061 781.945313 1059.695313 779.601563 1061.199219 C 777.1875 1062.746094 778 1067.597656 778 1070 C 777.996094 1079.070313 777.972656 1088 778.828125 1097 C 781.867188 1129 784.632813 1160.203125 794.671875 1191 C 797 1198.171875 799.867188 1205.078125 802.851563 1212 C 803.625 1213.804688 804.621094 1218 806.660156 1218.652344 C 809 1219.613281 811.34375 1215.460938 812.476563 1214 C 817.640625 1207.289063 823 1201 829 1195 C 848.800781 1175.191406 873 1156.519531 902 1154.324219 C 918 1153.109375 929.722656 1162.503906 939.570313 1174 C 968.785156 1208.09375 1003.308594 1231 1049 1234.089844 C 1062.28125 1235.019531 1075 1233.402344 1088 1229.703125 C 1091.601563 1228.667969 1098.523438 1227.722656 1100.820313 1224.488281 C 1104.347656 1219.515625 1101.597656 1209 1102 1203 C 1117 1219.441406 1132.710938 1232.050781 1155 1237.113281 C 1164.203125 1239.203125 1173.5625 1240.546875 1183 1241 C 1187.761719 1241.042969 1192.777344 1239.128906 1196.445313 1243.160156 C 1201.519531 1248.738281 1204.441406 1258.144531 1207.425781 1265 C 1213.589844 1279.171875 1219.242188 1293.394531 1224.34375 1308 C 1242 1358.621094 1253.332031 1417.445313 1245.699219 1471 C 1243.171875 1488.742188 1240.394531 1506.660156 1235.574219 1524 C 1232.515625 1535.007813 1226.90625 1545.78125 1225 1557 L 1226 1557 C 1263.40625 1493 1272 1414.105469 1253.84375 1343 C 1246.800781 1315.597656 1235.378906 1290.082031 1222.511719 1265 C 1219.21875 1258.585938 1215.820313 1252.285156 1212.28125 1246 C 1211.328125 1244.304688 1208.710938 1241.035156 1210 1239.007813 C 1211.429688 1236.828125 1215.769531 1236.691406 1218 1236 C 1220.527344 1235 1223.929688 1232.164063 1226.710938 1232.726563 C 1232.316406 1234 1237.757813 1245.660156 1240.859375 1250 C 1259.5625 1276.144531 1274.707031 1303.789063 1288 1333 C 1326 1416.628906 1330.175781 1510.46875 1297 1596 C 1303.929688 1591.792969 1306.808594 1581.015625 1310.246094 1574 C 1321.3125 1551.398438 1329.976563 1526.796875 1334.320313 1502 C 1347.585938 1426.332031 1332.789063 1352.539063 1293.859375 1286 C 1284.410156 1270 1274.652344 1254.050781 1263.523438 1239 C 1255.199219 1227.742188 1243.8125 1215.691406 1238 1203 C 1322.289063 1258.527344 1376.984375 1353.109375 1402.265625 1449 C 1408.605469 1473.046875 1408.25 1498.125 1414 1522 L 1415 1522 C 1421.417969 1495.042969 1414.734375 1458.441406 1408.332031 1432 C 1385.21875 1336.570313 1314.738281 1260.246094 1250 1190 C 1282.832031 1207.566406 1311.980469 1235.742188 1339 1261 C 1404.511719 1322 1458.472656 1391.574219 1490 1476 C 1498.941406 1499.777344 1509.777344 1526.523438 1512 1552 L 1513 1552 C 1515.519531 1543.457031 1512.414063 1533 1512 1524 C 1510.867188 1496.511719 1505.917969 1469.167969 1497.167969 1443 C 1470.832031 1364.242188 1413.609375 1301 1353 1246.171875 C 1323.84375 1220 1291.914063 1196.554688 1263 1170 C 1286.496094 1176.769531 1310.796875 1196 1331 1209.332031 C 1380 1242.074219 1427.191406 1278.191406 1469 1320 C 1480.675781 1331.679688 1492 1344.054688 1502.335938 1357 C 1508.496094 1364.761719 1514.515625 1375.632813 1523 1381 C 1511.808594 1357.347656 1491.3125 1334.390625 1475 1314 C 1420 1245.269531 1343.628906 1180.46875 1263 1144 L 1263 1143 C 1284.511719 1147.054688 1305.652344 1151.640625 1327 1156.425781 C 1338.65625 1159.035156 1350.894531 1163.652344 1363 1161.675781 C 1385.511719 1158 1409.277344 1144.476563 1428 1132 C 1476.4375 1099.722656 1518.492188 1052.515625 1538 997 C 1542.996094 983.28125 1547.671875 967.523438 1548.90625 953 C 1549.691406 943.78125 1547.6875 928.523438 1551.3125 920.183594 C 1553.324219 915.558594 1561 912.109375 1565 909.113281 C 1573.972656 902.203125 1582.199219 894.28125 1589.910156 886 C 1601.769531 873.265625 1611.488281 858.050781 1620 843 C 1625.332031 834 1629.464844 823.441406 1637 816.039063 C 1651 802.203125 1668.542969 791.550781 1683 778 C 1725 738.253906 1765.203125 691 1791.246094 639 C 1802.59375 616.363281 1820.464844 585.265625 1812 559 C 1799.460938 519.324219 1746.464844 520 1713 520 C 1646 520 1577.507813 536.023438 1519 569.285156 C 1503.171875 578.285156 1487.449219 587.765625 1473 599 C 1464.605469 605.347656 1457.179688 613.695313 1448 619 C 1447.984375 612.796875 1445.546875 606.082031 1446.367188 600 C 1447.71875 590.019531 1457.507813 580.476563 1464 573.464844 C 1467.742188 569.421875 1483 561.621094 1484 557 C 1484.726563 554 1469 555 1467 555 C 1449 555 1429.277344 554 1412 559 C 1428.472656 588.707031 1439.449219 619.207031 1444 653 C 1438.257813 646.617188 1435.351563 635.757813 1431.5 628 C 1424 613.078125 1415.640625 598.8125 1406.328125 585 C 1380.210938 546.253906 1344.648438 514.765625 1306 489 C 1292 479.691406 1277.851563 471.34375 1263 463.550781 C 1259.839844 462 1251 456 1247.5625 457.417969 C 1244.464844 458.710938 1243.988281 466.183594 1243.347656 469 C 1240.6875 480.695313 1238.171875 492.429688 1235 504 C 1225.554688 538.613281 1213.339844 572.226563 1201.308594 606 C 1196.863281 618.472656 1189.914063 631.144531 1187 644 C 1184.5625 632.710938 1190.253906 615.601563 1191.871094 604 C 1196.628906 570 1205 536.203125 1208.824219 502 C 1218.535156 411.65625 1215.753906 314 1179.574219 229 C 1173 213.640625 1165.332031 197.035156 1153.484375 185 C 1117.257813 148.199219 1061 187.761719 1030 212.210938 C 969 260.199219 921 331 896 404 C 889 424.257813 886.929688 445.351563 882 466 M 1109 446 C 1118 463.023438 1128.757813 479.304688 1136.5625 497 C 1156.226563 541.601563 1168 593.234375 1168 642 L 1167 642 C 1152 595.386719 1144.171875 546.550781 1128.503906 500 C 1124.316406 487.546875 1119.730469 475.085938 1114.574219 463 C 1112.453125 458.039063 1107.863281 451.484375 1109 446 M 1150 631 L 1149 631 C 1130.933594 596 1107 565.027344 1080 536.324219 C 1068.777344 524.375 1052.605469 515.039063 1043 502 C 1085.300781 517.398438 1121 556.265625 1138.226563 597 C 1142.621094 607.453125 1149 619.644531 1150 631 M 1598 658 L 1598 659 C 1560.410156 671.828125 1524.828125 687.570313 1491 708.683594 C 1477.796875 717 1464.714844 725.445313 1452 734.425781 C 1444.917969 739.425781 1437.859375 746.496094 1430 750 C 1435.648438 735.398438 1453 721.09375 1465 711.386719 C 1501.386719 681.550781 1550 658 1598 658 M 1051 692 C 1024.898438 698.183594 1009.414063 729 1018 754 C 1027 779.761719 1053.558594 784.5 1071.824219 765 C 1076.398438 760.070313 1080 754.136719 1082.773438 748 C 1086.253906 740 1088.554688 730.769531 1087 722 C 1094.578125 725.609375 1098.597656 734.800781 1102.242188 742 C 1114.671875 766.519531 1115 797 1101.6875 821 C 1077 865.570313 1010 867.546875 975 835 C 939.8125 802.152344 932 744.289063 968 709.039063 C 984.335938 693.046875 1008 684.011719 1031 686.714844 C 1037 687.429688 1047 686.492188 1051 692 M 1609 739 L 1609 740 C 1583.898438 739.480469 1559 738.722656 1534 742.300781 C 1493.480469 748.074219 1455.730469 760.375 1417 773 C 1423.40625 760.464844 1446.457031 750.523438 1459 745.226563 C 1495.183594 730 1536.382813 726.257813 1575 731.574219 C 1586.199219 733.117188 1598.648438 734.1875 1609 739 M 1538 778 L 1538 779 C 1517 778.824219 1496 775.632813 1475 777.089844 C 1453.40625 778.578125 1432.421875 785.132813 1411 787 C 1417.996094 780 1430.675781 777.191406 1440 774.445313 C 1472.429688 765 1506 767 1538 778 M 581 793 C 623.886719 818.292969 667.640625 841.640625 709 869.519531 C 739.660156 890.1875 768.730469 912.574219 798 935.117188 C 817.734375 950.316406 837 966.769531 855 984 C 861.515625 990.191406 871 995.691406 875 1004 C 794.6875 964.589844 723.175781 905.425781 653 851 C 635.691406 837.433594 618.925781 823.003906 601 810.410156 C 595.226563 806.355469 582.746094 800.117188 581 793 M 1349 870 C 1342.527344 878.496094 1335.324219 885.339844 1332 896 C 1326.441406 915.128906 1332.394531 953.074219 1360 949.683594 C 1389.730469 946.03125 1401.570313 908 1395 883 C 1415.363281 892.523438 1424 925.632813 1424 946 C 1424 996.738281 1375.621094 1038.417969 1325 1026.25 C 1287.867188 1017.324219 1256.496094 979.789063 1264.515625 940 C 1268.992188 917.769531 1283.910156 900.046875 1302 887.140625 C 1313.675781 878.8125 1334 868.121094 1349 870 M 1127 961.289063 C 1163.753906 956.53125 1193 985 1197.574219 1019 C 1199.191406 1031.265625 1197.792969 1046.5 1193 1058 C 1192 1060.664063 1189.769531 1068.792969 1186 1068.792969 C 1182.769531 1068.792969 1178.324219 1059 1176.238281 1056.578125 C 1167.765625 1047 1156 1039.703125 1145 1033.425781 C 1129.257813 1024.53125 1113.566406 1018.636719 1096 1015 C 1091.472656 1014 1078 1016.507813 1075 1014 C 1070.519531 1010 1075 995.191406 1077 991 C 1085.929688 973.054688 1108 963.734375 1127 961.289063 M 1263 1169 L 1262 1170 L 1263 1169 M 1389 1197 L 1388 1198 C 1397.453125 1209.605469 1414.753906 1217.441406 1427 1226.035156 C 1455 1245.695313 1483.671875 1265.566406 1510 1287.433594 C 1529.996094 1304.046875 1549.519531 1321.105469 1569 1338.285156 C 1577 1345.394531 1584.191406 1356.425781 1594 1361 C 1591.46875 1354.460938 1585.867188 1349.316406 1581.574219 1343.828125 C 1572.890625 1332.730469 1564.230469 1321.589844 1554.652344 1311.238281 C 1522.914063 1277 1486.691406 1247.722656 1446 1224.652344 C 1427.523438 1214.179688 1407.691406 1207 1389 1197 M 950 1524 C 1002.625 1564.097656 1038.785156 1623.015625 1030.910156 1690 C 1027.855469 1716.003906 1011.390625 1751 988 1764.097656 C 982.226563 1767.34375 967.328125 1775.308594 960.601563 1771.398438 C 956.480469 1769 960.230469 1760 962.5 1757.390625 C 966 1753.527344 971.84375 1751.539063 976 1748.320313 C 983.667969 1742.386719 990.207031 1735 995.84375 1727 C 1028.964844 1681 1014.738281 1622 986.304688 1577 C 978 1564 969.339844 1551.289063 959.882813 1539 C 956.800781 1535 949.871094 1529.15625 950 1524 "/>
</g>
</svg>
