<svg xmlns="http://www.w3.org/2000/svg" xmlns:xlink="http://www.w3.org/1999/xlink" viewBox="0 0 100 100" version="1.1"><g transform="translate(1, 8.313747072300472) scale(0.05258215962441314) translate(-21.46875, -229)"><path style=" stroke:none;fill-rule:nonzero;fill:rgb(0%,0%,0%);fill-opacity:1;" d="M 1431 301 C 1442.960938 302.617188 1454.859375 308.34375 1466 312.800781 C 1486 320.808594 1505.855469 329.097656 1525 339.0625 C 1604.90625 380.652344 1677.476563 434.800781 1736.710938 503 C 1762.4375 532.621094 1787.304688 564.371094 1807.601563 598 C 1812.816406 606.640625 1818 615.230469 1823 624 C 1824 625.703125 1826.332031 631.792969 1828.75 631.792969 C 1831.355469 631.792969 1831.78125 623.753906 1832 622 C 1833.839844 611.671875 1835.425781 601.378906 1836.871094 591 C 1843 546.136719 1838.53125 501.796875 1836 457 C 1833 403.441406 1815 343 1791.246094 295 C 1783 278.527344 1774.664063 258.363281 1759.996094 246.515625 C 1738.476563 229.128906 1710.277344 229 1684 229 C 1622.5 229 1562.738281 245 1505 265 C 1486.277344 271.519531 1467.484375 279.828125 1450 289.164063 C 1444.234375 292.242188 1434.414063 295.351563 1431 301 M 964 329 C 957.980469 323 948.597656 319.550781 941 315.753906 C 923.664063 307.085938 906.179688 299.191406 888 292.46875 C 820 267.378906 742.988281 247 670 253.828125 C 639.929688 256.691406 600.519531 257 578.464844 281.171875 C 559.925781 301.535156 552.820313 332.269531 545.570313 358 C 525.96875 427.574219 524.425781 500.539063 531 572 C 536.351563 628.699219 554 685 576.425781 737 C 581.820313 749.601563 588.183594 762.359375 595.425781 774 C 596.640625 776 600.652344 784.710938 603.539063 784.078125 C 605.492188 783.652344 605.691406 779.488281 606 778 C 607.28125 772 608.96875 766 610.527344 760 C 616.773438 736.011719 626.480469 712.714844 636.28125 690 C 638.183594 685.59375 642.308594 679.808594 642.511719 675 C 642.800781 668.179688 636.589844 659.410156 634.34375 653 C 628.324219 635.832031 623.277344 618.792969 619.511719 601 C 610.699219 559.410156 609 514 616.535156 472 C 620.554688 449.683594 626.925781 427.367188 640.898438 409 C 673 366.714844 731.96875 377.636719 773 399.296875 C 783.242188 404.703125 793.347656 410.605469 803 417.003906 C 806 419.078125 811 424.527344 815 424.082031 C 819.199219 423.617188 823.785156 418.140625 827 415.652344 C 836.671875 408.164063 845.996094 400.074219 856 393.035156 C 890.714844 368.617188 927.351563 350 964 329 M 427 283.429688 C 405.953125 286.441406 387.566406 297 378.515625 317 C 360.597656 356.773438 393 406.113281 438 399.699219 C 458.539063 396.773438 478 384.730469 486.238281 365 C 502.253906 326.152344 471.191406 277.101563 427 283.429688 M 693 1156 C 655.320313 1125.3125 626.925781 1081.785156 611.167969 1036 C 606.742188 1023.136719 602.699219 1010.28125 599.652344 997 C 598.96875 994.019531 598.613281 985.066406 594.695313 984.527344 C 590.199219 984 583 988.183594 579 990 C 565.472656 995.691406 551.804688 1001.726563 539 1009 C 488 1038 441.359375 1072.574219 402.71875 1117 C 375.714844 1148.042969 354.472656 1182.460938 335.742188 1219 C 252.578125 1381.238281 232 1616.464844 369 1756 C 324 1756 279.683594 1761 235 1764.023438 C 224.773438 1764.722656 214 1766.234375 204 1768.5 C 202 1769 195 1769.832031 195.632813 1773 C 196.667969 1778 216.667969 1779.246094 221 1780 C 247.617188 1783.695313 274.355469 1785.140625 301 1788.285156 C 335.476563 1792.355469 370.398438 1792.71875 405 1795.089844 C 484.976563 1800.566406 564.910156 1803.53125 645 1807.039063 C 816.929688 1814.566406 989.761719 1814.054688 1162 1812.003906 C 1295 1810.421875 1428.347656 1810.171875 1561 1801.089844 C 1632.253906 1796.210938 1704 1793.652344 1775 1785.15625 C 1791.757813 1783.148438 1808.371094 1781.164063 1825 1778.25 C 1828.207031 1777.6875 1839.328125 1777.09375 1840 1773 C 1840.96875 1768.164063 1819.394531 1766.242188 1816 1766 C 1788.460938 1763.34375 1760.4375 1762 1733 1758.714844 C 1725.34375 1757.8125 1717.632813 1758.546875 1710 1757.578125 C 1708.84375 1757.433594 1703.480469 1757.585938 1703.730469 1755.683594 C 1704 1752.402344 1709.65625 1748.378906 1711.71875 1746 C 1718.382813 1738.308594 1724.84375 1730.359375 1730.65625 1722 C 1749.910156 1694.308594 1766.507813 1665.136719 1779.574219 1634 C 1823.96875 1528.203125 1827.1875 1407.550781 1795.710938 1298 C 1789.222656 1275.433594 1781 1253.785156 1772.398438 1232 C 1768 1221.089844 1762.933594 1206.769531 1755 1198 C 1735 1248.203125 1715.976563 1298.148438 1690.703125 1346 C 1637.941406 1446 1565.75 1539.25 1486 1619 C 1458 1647 1430.328125 1675 1400 1700.246094 C 1392.734375 1706.332031 1385.800781 1712.761719 1378 1718.175781 C 1375.898438 1719.632813 1372.214844 1723.5 1369.433594 1723.113281 C 1366.773438 1722.746094 1366.90625 1718 1366.488281 1716 C 1364.914063 1708.800781 1362.230469 1702 1359.679688 1695 C 1348.785156 1665.527344 1335.195313 1637.683594 1318.574219 1611 C 1277.367188 1545 1222.285156 1491 1161 1443.425781 C 1136 1424.132813 1106 1409.136719 1083 1388 C 1116.695313 1393 1153.894531 1413.535156 1181 1433.375 C 1191.515625 1441.070313 1201.96875 1448.738281 1212 1457.082031 C 1215.488281 1460 1220.367188 1466.226563 1225 1467 C 1229.707031 1467.695313 1236.277344 1461.101563 1240 1458.691406 C 1252.386719 1450.679688 1264.988281 1443 1278 1436 C 1320.171875 1413.308594 1366.640625 1395.199219 1414 1387.285156 C 1434.980469 1383.777344 1456.683594 1381.105469 1478 1382.039063 C 1500.199219 1383.011719 1522.691406 1387.058594 1545 1384.828125 C 1586 1380.71875 1624.433594 1357.242188 1648.574219 1324 C 1663.257813 1303.78125 1673.890625 1281.738281 1681.496094 1258 C 1684.734375 1248 1684.605469 1230.570313 1690.726563 1222.183594 C 1697.371094 1213.085938 1711 1206.753906 1720 1199.789063 C 1738 1185.503906 1755.269531 1170 1771.574219 1153.574219 C 1827.378906 1097.769531 1867.917969 1022.074219 1875.832031 943 C 1885.21875 849.183594 1852.5625 759 1810 677 C 1695.289063 455.265625 1458.242188 290.539063 1202 308.089844 C 1035.371094 319.503906 877.300781 398 769.4375 526 C 711.542969 594.71875 670 679 645.289063 765 C 617.695313 861.039063 617.328125 957.441406 647 1053 C 654.328125 1076.503906 664.535156 1099.027344 675.523438 1121 C 681 1132.078125 690.238281 1144 693 1156 M 344 493 C 351 482.46875 345.328125 455.828125 343 444 C 333.925781 398 304 340.625 252 334.441406 C 220.210938 330.667969 198.703125 369.28125 219.328125 394 C 233.828125 411.367188 259.867188 412.449219 279 422.257813 C 309.335938 437.808594 329.703125 462.476563 344 493 M 193 452.429688 C 156.902344 457.597656 163 514.296875 199 509.566406 C 207.6875 508.425781 216.882813 504.597656 221.867188 497 C 235 476.699219 216.601563 449.046875 193 452.429688 M 246 1400 C 246 1385.042969 249.878906 1369.613281 252.800781 1355 C 260.660156 1315.699219 273.707031 1277.03125 291.257813 1241 C 297.242188 1228.710938 303.855469 1216.617188 311 1205 C 314.554688 1199.375 320.804688 1192.472656 322.34375 1186 C 324 1178.566406 315.828125 1165.050781 313.226563 1158 C 307.273438 1142 304.820313 1124.050781 303.171875 1107 C 298 1054 311.449219 1003.261719 335.246094 956 C 381.222656 864.699219 493.894531 803.675781 488.960938 691 C 488.195313 673.511719 483.703125 656.210938 477.199219 640 C 470.613281 623.582031 460.441406 607.597656 447.996094 595 C 379.261719 525.433594 268.894531 533.484375 197 594.273438 C 147.5625 636.078125 110.539063 692.078125 86.550781 752 C 21.46875 914.574219 39.847656 1096.730469 126.574219 1248 C 149.84375 1288.59375 176.84375 1326.808594 207.714844 1362 C 218.171875 1374 231.507813 1393.242188 246 1400 M 1371 797 C 1368.171875 776.011719 1366.601563 755.628906 1373.195313 735 C 1398.429688 656.050781 1493.234375 625.820313 1566 656.011719 C 1598.183594 669.367188 1625.605469 694.304688 1640.445313 726 C 1645.898438 737.644531 1646.179688 754.652344 1652.742188 765 C 1658.949219 774.757813 1671.878906 782.480469 1679.964844 791 C 1695.597656 807.472656 1709 827.628906 1716.945313 849 C 1723.277344 866.097656 1727 884 1728.828125 902 C 1740.355469 1023.089844 1634.996094 1114.730469 1534 1158.28125 C 1391.316406 1219.804688 1221.75 1221.546875 1075 1173.671875 C 1004.984375 1150.828125 934.945313 1113.050781 888 1055 C 838.546875 993.394531 815.761719 908 848.863281 833 C 856 816.710938 865.96875 801.589844 877.4375 788 C 882.300781 782.242188 890.375 777.507813 894 771 C 898 763.65625 897 752.1875 899.292969 744 C 904.359375 726 912.964844 708.742188 924.664063 694 C 982.265625 621.433594 1103.605469 624.054688 1162.699219 693 C 1180 713.234375 1192 739.445313 1195 766 C 1195.929688 773.8125 1197 782.125 1196.859375 790 C 1196.800781 791.601563 1195.34375 796.617188 1197.449219 797.460938 C 1200 798.511719 1211.304688 789.539063 1214 788 C 1228.324219 779.816406 1243.710938 774.003906 1260 771.285156 C 1287.78125 766.644531 1316 769.335938 1342 780.652344 C 1352.273438 785.136719 1360.960938 792.25 1371 797 M 1022 666.425781 C 1000.433594 669.359375 980.382813 675.820313 963 689.519531 C 890.332031 746.773438 914.777344 870.207031 1005 893 C 1018 896.152344 1032.566406 897.363281 1046 895.714844 C 1064.183594 893.480469 1081.625 887.253906 1097 877.300781 C 1178.644531 824.445313 1154 696.71875 1063 670.710938 C 1050.253906 667.074219 1035.234375 664.625 1022 666.425781 M 1511 668.425781 C 1488.621094 671.390625 1467.898438 676.789063 1450 691.464844 C 1440 699.644531 1431.816406 710.058594 1425 721 C 1376.523438 799.65625 1446.558594 904.457031 1537 892.710938 C 1590 885.820313 1630.929688 841.691406 1631.984375 788 C 1633.191406 726.769531 1576.214844 659.78125 1511 668.425781 M 1016 682.570313 C 1049.191406 682.613281 1063 725 1036 744.210938 C 1028.941406 749.242188 1021.382813 750.042969 1013 750 C 969.367188 749.773438 972.882813 682.519531 1016 682.570313 M 1495 684.300781 C 1510.988281 682 1526 688.292969 1533.863281 703 C 1543.539063 721.46875 1531.597656 746.136719 1511 749.675781 C 1495.445313 752.347656 1480.75 747.734375 1471.96875 734 C 1459.683594 714.777344 1472.546875 687.617188 1495 684.300781 M 1220 929 L 1219 929 C 1207.636719 956 1228.730469 981.519531 1256 983.675781 C 1274 985.097656 1294.351563 973.074219 1302 957 C 1310 966.34375 1317 974.421875 1329 979.074219 C 1348.886719 987 1375.867188 977.675781 1383.730469 957 C 1386.8125 949 1385.171875 941.308594 1385 933 C 1376.3125 938.25 1372.320313 947.15625 1361 948.789063 C 1338.242188 952.070313 1313 922.773438 1318.890625 900.015625 C 1320.199219 895 1327.167969 892.316406 1331 889.402344 C 1339.6875 882.796875 1349.746094 870.460938 1344.277344 859 C 1334 837.515625 1294.175781 839.765625 1275 843.804688 C 1266.976563 845.492188 1256.488281 849 1252.820313 857.003906 C 1242.40625 880 1275 887.496094 1285.398438 899.496094 C 1292.519531 907.746094 1281 930.152344 1275.839844 937 C 1259.648438 958.179688 1230.207031 952.777344 1220 929 M 1626 895.515625 C 1616.796875 896.09375 1607.316406 897.578125 1599 901.820313 C 1575.523438 913.796875 1567.65625 942.757813 1586.183594 963 C 1597.789063 975.613281 1618 982 1635 981 C 1644 980.332031 1653.734375 978.695313 1662 974.738281 C 1686.964844 962.785156 1697.339844 933.171875 1675.816406 912.132813 C 1663.179688 899.777344 1643.382813 894.421875 1626 895.515625 M 935 908.4375 C 926.464844 909.769531 917.558594 911.367188 910 915.746094 C 886.527344 929.339844 877.875 960 900 979.535156 C 914.984375 992.710938 936.695313 996.457031 956 993.699219 C 963.4375 992.636719 971.308594 990.023438 978 986.628906 C 1005.203125 972.820313 1010.316406 941.175781 987 921.210938 C 973.710938 909.832031 952 905.785156 935 908.4375 M 749 1373 C 758.472656 1374.6875 767.617188 1381.007813 776 1385.539063 C 798.480469 1397.699219 819.472656 1412.277344 838 1430 C 901 1490.136719 948.554688 1564.230469 968.347656 1650 C 975.601563 1681.421875 981.613281 1713.667969 981.996094 1746 C 982 1751.476563 985 1774 978.851563 1775.683594 C 972.183594 1777.660156 962.941406 1776 956 1776.003906 C 953.84375 1776.023438 949.691406 1777.011719 948 1775.226563 C 944.777344 1771.742188 946 1756.785156 945.996094 1752 C 945.769531 1733.515625 942.171875 1715.175781 939 1697 C 924 1608.730469 880.914063 1524.3125 825.195313 1455 C 810.785156 1437.074219 795.25 1420.25 779 1404 C 769 1394.082031 757 1384.472656 749 1373 M 1301 1725 C 1300.492188 1741 1305.601563 1756.769531 1292.816406 1770 C 1289.664063 1773.132813 1281.515625 1778.339844 1276.601563 1776.226563 C 1274.210938 1775.195313 1274.585938 1769.183594 1274.269531 1767 C 1273 1759 1270.226563 1751.566406 1265.296875 1745 C 1253 1728.785156 1237.835938 1726.652344 1220 1721 C 1222 1728.761719 1228.351563 1735.0625 1230.703125 1743 C 1232.828125 1750.171875 1236.644531 1769.425781 1229.296875 1775 C 1226.429688 1777.136719 1220.386719 1776 1217 1776 C 1214.214844 1776 1210 1776.710938 1207.652344 1775 C 1204.261719 1772.527344 1202.734375 1765.566406 1200.539063 1762 C 1193.9375 1751.28125 1178.519531 1734.277344 1164 1739.152344 C 1153.390625 1742.714844 1154 1756.292969 1156.597656 1765 C 1157.253906 1767.261719 1161 1773 1159.171875 1775 C 1157.390625 1777 1152.328125 1776 1150 1776 C 1141.714844 1776 1131.628906 1778.039063 1127.527344 1769 C 1116.847656 1745.421875 1133.660156 1713.414063 1150 1697 C 1188.273438 1658.554688 1251 1651.523438 1298 1678.035156 C 1320 1690.527344 1339.222656 1712 1345.25 1737 C 1347.371094 1745.832031 1347.898438 1758.46875 1341.945313 1766 C 1339.964844 1768.382813 1335.949219 1772.5625 1332.316406 1771.289063 C 1328.957031 1770.113281 1328.792969 1755.6875 1327 1752 C 1321.5 1739.453125 1311.441406 1733.027344 1301 1725 M 1595 1724 C 1580 1726.820313 1567 1732 1558 1745 C 1554.753906 1749.78125 1552.6875 1764.183594 1547.773438 1766.398438 C 1535.789063 1771.796875 1529.527344 1762.101563 1528.285156 1752 C 1526.410156 1736.742188 1534 1725.308594 1543 1714 C 1525.789063 1716.222656 1510.242188 1725.777344 1503 1742 C 1501.277344 1746.121094 1501.496094 1761.597656 1498.398438 1763.398438 C 1491.972656 1767.128906 1484.597656 1759 1482.1875 1754 C 1476.449219 1742.273438 1481.40625 1727.679688 1487 1717 C 1474.3125 1720.496094 1463.417969 1730.304688 1457.609375 1742 C 1455.230469 1746.789063 1455 1752.675781 1452 1757 C 1443 1733.3125 1459.574219 1706.738281 1476 1691.039063 C 1513.703125 1655 1579.824219 1655.015625 1620 1686.667969 C 1637.820313 1700.710938 1662.945313 1735 1648.515625 1759 C 1647.28125 1761.054688 1645.761719 1763 1643.90625 1764.46875 C 1642.433594 1765.683594 1640.769531 1766.667969 1639 1767.386719 C 1627.726563 1772 1631.65625 1760 1630.382813 1753 C 1629.976563 1750.769531 1629.378906 1745.429688 1625.957031 1746.304688 C 1615.53125 1749 1606.882813 1763.15625 1596 1767.03125 C 1573.289063 1775.121094 1584.21875 1743 1589.878906 1733 C 1591.613281 1730 1593.636719 1727.238281 1595 1724 "/></g></svg>