<svg xmlns="http://www.w3.org/2000/svg" xmlns:xlink="http://www.w3.org/1999/xlink" viewBox="0 0 100 100" version="1.1"><g transform="translate(1, 17.265641918414637) scale(0.04897503421719475) translate(-6.320313, -348.222656)"><path style=" stroke:none;fill-rule:nonzero;fill:rgb(0%,0%,0%);fill-opacity:1;" d="M 187 1240 C 218.527344 1258.402344 253 1271.410156 284 1291.054688 C 298.953125 1300.574219 311.335938 1313.597656 326 1323.480469 C 343.8125 1335.488281 364 1343.449219 385 1348 C 435.382813 1359 490.605469 1357.726563 541 1347.335938 C 557.917969 1344 574.484375 1339.136719 591 1334.117188 C 598.273438 1332 606.414063 1327.351563 614 1326.738281 C 624.792969 1326 641.523438 1336.136719 652 1339.496094 C 674.453125 1346.695313 697.671875 1350.652344 721 1353.71875 C 749 1357.40625 777.792969 1358 806 1356 C 818.816406 1355.03125 836.390625 1348.222656 848.851563 1350.488281 C 853.167969 1351.273438 852.761719 1358.679688 853.273438 1362 C 855 1374.164063 859.191406 1385.71875 866 1396 C 882.558594 1421 909 1432.808594 937 1440.574219 C 1003.46875 1459.050781 1077.472656 1450.363281 1145 1443.828125 C 1171.640625 1441.253906 1199.179688 1437.410156 1226 1439.042969 C 1238.453125 1439.804688 1251 1454.121094 1262 1459.742188 C 1284 1471.023438 1308.742188 1478.210938 1333 1482.738281 C 1423.328125 1499.605469 1509.832031 1488.105469 1600 1477.285156 C 1631.328125 1473.527344 1665.542969 1466.816406 1697 1471.300781 C 1718.996094 1474.4375 1739.566406 1484.199219 1761 1489.625 C 1806.167969 1501.0625 1851.625 1506 1898 1500.285156 C 1919 1497.6875 1941.574219 1493.425781 1960 1482.1875 C 2007.339844 1453.320313 1997.488281 1377 1976.742188 1334 C 1971.894531 1324 1966.230469 1314.757813 1959.339844 1306 C 1941.882813 1283.828125 1912.289063 1264 1913 1232 C 1913.59375 1214.3125 1925.316406 1195.441406 1931 1179 C 1939.328125 1156 1943.511719 1131.34375 1945.828125 1107 C 1948.425781 1079.769531 1945.171875 1050.621094 1939.488281 1024 C 1936.832031 1011.539063 1927.957031 995.453125 1928.289063 983 C 1928.679688 968.253906 1937.703125 950.429688 1941.421875 936 C 1948.78125 907.40625 1954.195313 878.320313 1957.714844 849 C 1968.1875 761.726563 1960 671.253906 1944.613281 585 C 1935.335938 533.425781 1922.441406 481.757813 1903 433 C 1896.972656 418 1889 391.171875 1873 384 C 1864 380 1854.957031 383.363281 1847 388.011719 C 1831.808594 397 1818.386719 408.460938 1804.996094 419.753906 C 1762.933594 455.234375 1724.742188 497.085938 1690.398438 540 C 1679.9375 553.074219 1669.367188 566.269531 1659.769531 580 C 1656.824219 584.21875 1653.246094 594 1648.191406 595.832031 C 1645.609375 596.820313 1642.8125 593.621094 1640.996094 592.234375 C 1635.179688 587.785156 1629.269531 583.117188 1623 579.324219 C 1600.183594 565.511719 1575.328125 556.539063 1549 552.4375 C 1520.898438 548.0625 1487 551.5625 1461 563.3125 C 1452 567.359375 1442.960938 572.828125 1436.171875 580.039063 C 1433.679688 582.683594 1430.203125 589.625 1425.960938 589.257813 C 1421.550781 589 1416.46875 583.378906 1413 581 C 1404.320313 574.726563 1395.289063 568.511719 1386 563.285156 C 1355 546 1317 526 1281 523 L 1281 522 C 1321.703125 512.308594 1367 526.257813 1405 540 C 1402 529.777344 1390.273438 521.273438 1383 514 C 1361.65625 492.65625 1337.785156 474.417969 1313 457.28125 C 1204 382.03125 1060 348.222656 929 354 C 825.769531 358.480469 722.996094 377.246094 626 414.0625 C 458.605469 477.601563 309.890625 586.515625 194.574219 723 C 115 817.128906 47.207031 928.53125 20.425781 1050 C 8.273438 1105.117188 6.320313 1164.25 14.574219 1220 C 21.390625 1266.058594 33.808594 1307.363281 52.425781 1350 C 66.804688 1383 87.972656 1413.039063 110 1441.089844 C 252.359375 1621 489 1667.121094 705 1682 C 747.828125 1685 791 1684 834 1684 C 901 1684 968 1682.671875 1035 1678.089844 C 1072.335938 1675.53125 1109.972656 1674.625 1147 1668.414063 C 1191.28125 1661 1238.773438 1635.683594 1230.5625 1583 C 1224.226563 1542.367188 1189.222656 1518 1152 1507 C 1084.644531 1487.367188 1015.660156 1498.070313 947 1499 C 887.953125 1499.792969 829.28125 1505.4375 770 1504 C 627.628906 1500.496094 473.800781 1476.039063 348 1406 C 297.746094 1377.824219 253 1340.171875 218.523438 1294 C 207.285156 1279 190.378906 1259 187 1240 M 1873 439 C 1867.9375 449.636719 1852.585938 457.097656 1844 465.089844 C 1823.738281 484 1804.167969 503.695313 1786.433594 525 C 1728.617188 594.46875 1678.347656 670 1640.296875 752 C 1627.679688 779.21875 1616.808594 808 1609.527344 837 C 1607.863281 843.648438 1606.460938 850.375 1604.730469 857 C 1604.304688 858.632813 1603.742188 863.570313 1601 863.078125 C 1598.546875 862.597656 1596.835938 858 1595.660156 856 C 1591 848.480469 1587.832031 840.351563 1585.179688 832 C 1572.890625 793.3125 1587.242188 753.71875 1604.601563 719 C 1637.800781 652.601563 1686.996094 591.546875 1735.714844 536 C 1773.464844 493 1815.449219 452.191406 1873 439 M 1320 813 C 1316.222656 797.09375 1308 780.597656 1300.753906 766 C 1298.835938 762.164063 1291.84375 752.726563 1294 748.417969 C 1296 744.734375 1304.328125 743.003906 1308 741.691406 C 1322 736.667969 1336.515625 733 1351 729.375 C 1402 716.757813 1456.179688 717 1508 724 C 1520.917969 725.773438 1533.414063 728.792969 1546 732.117188 C 1550.488281 733.300781 1558 734.148438 1561.394531 737.703125 C 1565 741.664063 1560 750.640625 1559 755 C 1554.6875 771.644531 1550.503906 788 1548 805 C 1546.582031 816.128906 1544.449219 828.820313 1546.464844 840 C 1550.589844 863 1562.90625 883.558594 1566.5625 907 C 1570 930.039063 1564.796875 950.582031 1561 973 L 1559 973 C 1559 945.042969 1551.367188 918.496094 1534.25 896 C 1525.566406 884.585938 1514.421875 874.816406 1505 864 C 1504 879.226563 1505.472656 899.515625 1497 913 C 1492.699219 906 1491.839844 897.175781 1487.304688 890 C 1472.542969 866.652344 1449.296875 855.425781 1423 850 C 1427.460938 869.285156 1427 886.410156 1427 906 C 1421.703125 902.261719 1418.554688 889.742188 1414 884 C 1405 872.378906 1392.59375 863 1381 854 C 1380.957031 870 1373.316406 886.109375 1368.226563 901 C 1365.992188 907.542969 1365.6875 914.640625 1363 921 L 1362 921 C 1359.972656 905.046875 1352.765625 884.542969 1340 874 C 1339.78125 898.414063 1318.746094 918.4375 1309.859375 940 C 1306.980469 947 1305.511719 962.019531 1299 966 C 1298.667969 950 1294.707031 933.148438 1293.171875 917 C 1289.398438 877.394531 1286.628906 822.777344 1253 795 C 1255.539063 815.085938 1254.441406 845.425781 1241 862 C 1230.609375 842.28125 1222.691406 822 1210.566406 803 C 1185 763.078125 1151.910156 729.589844 1117 698 C 1082.652344 666.773438 1043.308594 640.769531 1004 616.425781 C 981 602.230469 956.699219 589.199219 932 578.425781 C 908.636719 568.230469 885 557.550781 860 552.210938 C 849.511719 550 836.640625 547.648438 827 554 C 817.5 560.214844 815 573.535156 813.84375 584 C 811 607.546875 811.476563 631.445313 813.832031 655 C 824 758.035156 862 857.570313 913.425781 947 C 925.484375 968.015625 938.78125 989 953.804688 1008 C 961.296875 1017.488281 975 1028.21875 979.933594 1039 C 983.417969 1046.664063 975.707031 1065 973.886719 1073 C 968.851563 1095.34375 967.453125 1119.164063 968 1142 C 968.226563 1150.632813 973 1165.011719 968.820313 1173 C 963.980469 1182 948.847656 1189.140625 941 1195.613281 C 933.214844 1202.035156 925.957031 1209.605469 919 1217 C 917.488281 1218.726563 914 1224.609375 911.257813 1224.078125 C 908.765625 1223.613281 908.425781 1219 908 1217 C 907 1210 906 1203.210938 906 1196 C 906 1165.277344 911.273438 1137 924.550781 1109 C 928.609375 1100.464844 933.292969 1092.1875 938 1084 C 939.695313 1081.050781 943.5 1076.570313 943 1073 C 942.589844 1067.433594 934.703125 1060.667969 931.699219 1056 C 923.421875 1043.148438 917.242188 1029.097656 909.398438 1016 C 907 1012.09375 902.464844 1000.671875 897.449219 1000 C 895.398438 999.566406 895.578125 1004.800781 895.421875 1006.003906 C 894.414063 1013.773438 893.394531 1021.34375 891.652344 1029 C 886.847656 1050.105469 878 1070.378906 867 1089 C 863.261719 1095.59375 857.917969 1105.464844 851 1109 C 856.921875 1068.71875 861.238281 1031.726563 848 992 C 844 980.300781 839.179688 964.621094 830 956 C 830 995.777344 811.988281 1037 784 1065 C 776.394531 1072.644531 768 1082.726563 758 1087 C 762.535156 1075.011719 769.941406 1064.269531 774.308594 1052 C 780.253906 1035.296875 782.644531 1017.5 789 1001 C 779.371094 1008.367188 772 1019.597656 763 1027.828125 C 739.203125 1049.324219 706.992188 1068 674 1068 L 674 1067 C 740.269531 1022 787.867188 940.289063 779 859 C 776.757813 836.484375 771.367188 806.566406 756 789 C 767.925781 826.609375 761.238281 874.078125 743.996094 909 C 738.71875 919.691406 732.304688 933.3125 723 941 C 723.992188 929.644531 728.457031 918.453125 729.84375 907 C 732 889 731.722656 869.761719 736 852 C 730.882813 857.292969 729.90625 867.117188 727.496094 874 C 723.261719 886.074219 717.929688 898 711.574219 909 C 689 948.28125 653.4375 978.210938 613 998 C 544.222656 1031.367188 463.941406 1044.117188 388 1039 C 347.492188 1036.132813 307.664063 1024 267 1024 C 246.886719 1024.007813 225.691406 1029.621094 209 1041.027344 C 203 1045.121094 197.589844 1050.046875 192.300781 1055 C 190.839844 1056.367188 187.898438 1060.636719 185.511719 1060.082031 C 183 1059.53125 184.222656 1054.542969 184.425781 1053 C 185.425781 1045.265625 185.765625 1037.664063 187.5 1030 C 200 974 247.433594 939.777344 301 926.742188 C 405.246094 901.378906 530.34375 955 623 883.5 C 706.257813 819.320313 685.773438 694.738281 616.191406 629.472656 C 567.835938 584.117188 506.488281 568.769531 442 566 L 442 565 C 461 559 484 557 504 556 C 585.65625 552.351563 661.761719 579.589844 716.84375 642 C 733.210938 660.542969 746.175781 681.445313 758 703 C 764 713.691406 769.308594 730.394531 779 738 C 767.355469 681.546875 762.847656 618.671875 775.652344 562 C 779.996094 542.769531 784.960938 514 805 505 C 819.355469 498.394531 836.933594 504.3125 851 509 C 885.28125 520.425781 918.230469 536.519531 951 551.625 C 994.4375 571.652344 1036.722656 594 1079 616.21875 C 1133.621094 645.039063 1188.351563 675.289063 1235 716.285156 C 1267.871094 745.171875 1290.824219 781.039063 1320 813 M 1890 1169 C 1890.171875 1148.136719 1891.703125 1128 1888.699219 1107 C 1878.519531 1036.347656 1836.703125 972.378906 1766 951 C 1745.375 944.613281 1725.421875 943 1704 943 L 1704 942 C 1735.265625 930 1779 924.714844 1811 937 C 1795 908 1770.296875 883.394531 1745 862.324219 C 1733.777344 853 1716.910156 845.382813 1708 834 C 1760.878906 841.78125 1813.683594 875.070313 1847.867188 915 C 1860.375 929.609375 1876.429688 951.253906 1878 971 C 1884.824219 962.144531 1886.632813 950.789063 1888 940 C 1893.78125 899.335938 1875 867.261719 1842 844.347656 C 1831.378906 837.007813 1820.410156 830.574219 1809 824.550781 C 1804.226563 822.03125 1796.210938 820.277344 1793 816 C 1811.304688 816.003906 1827.328125 823.007813 1845 826 C 1827.546875 803.675781 1801.714844 787.425781 1774 781.511719 C 1760 778.523438 1745.863281 779.574219 1732 777 L 1732 776 C 1781.824219 762 1825.914063 766 1871 791 C 1835 742.507813 1786 722.53125 1727 734 C 1732 725.085938 1754.390625 721.128906 1764 719.015625 C 1802 710.632813 1847.910156 713 1877 742 C 1865.429688 715.152344 1838.441406 690.472656 1811 680.699219 C 1798.363281 676.199219 1786 675.65625 1773 674 L 1773 673 C 1807.765625 658.042969 1843.699219 664 1872 688 C 1865 664.113281 1840.4375 642.515625 1818 633.453125 C 1809.527344 630.03125 1800.574219 629.558594 1792 627 L 1792 626 C 1816.375 618.289063 1843.542969 619.25 1867 629 C 1858.992188 603.707031 1833.722656 587 1813 573 C 1822.5 571.304688 1838.253906 582.480469 1846 587.433594 C 1881 610 1896.910156 653.15625 1906 692 C 1916.320313 735.058594 1917 779.019531 1917 823 C 1917 857.757813 1917.300781 892.425781 1913.832031 927 C 1912.316406 942.074219 1908.238281 957 1902.949219 971 C 1900.660156 977.125 1894 985.496094 1894.433594 992 C 1895.269531 1006 1903.847656 1021.164063 1906.789063 1035 C 1913.390625 1066.039063 1913.246094 1100.183594 1905.371094 1131 C 1902.484375 1142.289063 1899 1161.128906 1890 1169 M 1200 891 C 1194.25 887 1191.617188 875.71875 1186.699219 870 C 1178.839844 861 1169 857 1159 851 C 1162.203125 858 1169.191406 861.742188 1172 869 C 1160.59375 867.324219 1149.710938 862.210938 1138 865 C 1151.527344 876.199219 1165.644531 885.65625 1170 904 C 1103.34375 913 1053.507813 978.660156 1050.960938 1044 C 1050.296875 1061.074219 1050 1082.128906 1059.964844 1097 C 1069.179688 1110.765625 1090.277344 1114.542969 1101.191406 1128.003906 C 1116.742188 1147.179688 1122.679688 1172.367188 1137.886719 1192 C 1166.78125 1229.304688 1211.703125 1243 1257 1234.195313 C 1273.492188 1231.015625 1290.4375 1221.199219 1306.867188 1219.617188 C 1312.511719 1219.074219 1315.925781 1241.691406 1312.257813 1245.015625 C 1309.304688 1247.691406 1302.78125 1248.566406 1299 1249.523438 C 1289.332031 1252 1279.726563 1254.660156 1270 1257 C 1213.402344 1269.800781 1153.179688 1256.21875 1108.425781 1218.707031 C 1046.351563 1166.675781 1008.476563 1079.160156 1029.886719 999 C 1036.566406 974 1049.984375 954.210938 1064 933 L 1034 948 C 1036 940.257813 1043 932.246094 1048 926 C 1061.894531 908.445313 1079 895.269531 1094 879 C 1077.28125 879 1061.46875 882 1046 888.464844 C 1040.367188 891 1035.855469 895.132813 1030 897 C 1041.953125 874 1077.324219 858.71875 1101 852 L 1101 851 C 1073.582031 844.453125 1041.332031 847.484375 1015 857.054688 C 1004.253906 861 994.785156 868.828125 984 872 C 990.3125 862.34375 1000.792969 855 1010 848.15625 C 1038.289063 827.417969 1076.851563 813.511719 1112 812 C 1106 806.34375 1095.710938 805.09375 1088 803.347656 C 1074 800.203125 1058.296875 797.179688 1044 798.089844 C 1033 798.78125 1019.496094 803.324219 1009 802 C 1037.546875 778.347656 1081 781.523438 1115 783 C 1107.324219 775.21875 1094 770.273438 1084 766.425781 C 1050.339844 753.609375 1017.171875 754.710938 982 755 C 986.597656 751.015625 993.210938 750.71875 999 749.550781 C 1011 747.113281 1022.792969 745.183594 1035 743.574219 C 1062.394531 740 1094.785156 740.761719 1120 753.371094 C 1166 776.433594 1200 840.261719 1200 891 M 1074 1082 C 1077.691406 1076.785156 1086.488281 1073.773438 1092 1070.574219 C 1104.296875 1063.4375 1115.855469 1055.175781 1128 1047.796875 C 1149.179688 1035 1170 1021.617188 1195 1017.433594 C 1235.679688 1010.597656 1272 1030.761719 1298 1061 C 1334.46875 1103.492188 1347.75 1159 1355.570313 1213 C 1359.550781 1240.484375 1359.964844 1268.746094 1365.449219 1296 C 1366.976563 1303.585938 1369.46875 1310.71875 1372 1318 C 1372.882813 1320.53125 1375.347656 1324.769531 1374.292969 1327.488281 C 1372.816406 1331.28125 1361.546875 1332.609375 1358 1332.808594 C 1350 1333.257813 1347.867188 1325.113281 1345.691406 1319 C 1340.378906 1304.070313 1340 1288.660156 1340 1273 C 1340 1202.429688 1338.933594 1126.574219 1289.710938 1070 C 1281 1060.097656 1271.1875 1051 1260 1044.066406 C 1251 1038.539063 1241.203125 1034.105469 1231 1031.476563 C 1168.734375 1015.449219 1131 1074.304688 1074 1082 M 1780 1083 L 1780 1084 C 1768.414063 1083.472656 1756.503906 1076.8125 1746 1072.28125 C 1716.332031 1059.480469 1687.867188 1039.351563 1655 1036.171875 C 1644.605469 1035.164063 1634.335938 1035.695313 1624 1037.296875 C 1550 1048.738281 1521 1134.621094 1508.449219 1198 C 1503.730469 1221.582031 1503.675781 1248.328125 1496 1271 C 1492.796875 1266.792969 1492 1259.210938 1490.886719 1254 C 1487 1237.589844 1486 1220.765625 1486 1204 C 1486 1152.054688 1501.632813 1103 1535.871094 1063 C 1552.386719 1043.78125 1573.765625 1027.082031 1599 1021.425781 C 1670.636719 1005.367188 1720 1053.773438 1780 1083 M 1307 1141 C 1313.914063 1151.121094 1306.839844 1170.726563 1301.1875 1180 C 1284.1875 1208 1248.515625 1221 1217 1214.484375 C 1152.335938 1201.453125 1128 1120.648438 1178.957031 1077.484375 C 1189.226563 1068.765625 1191.488281 1055.648438 1208 1056.128906 C 1223.628906 1056.585938 1235 1072.296875 1228 1087 C 1222.960938 1097.816406 1210.339844 1103.632813 1199 1099.441406 C 1195.605469 1098.1875 1190.90625 1093.335938 1187.226563 1094 C 1184.347656 1094.289063 1183.289063 1098.765625 1182.402344 1101 C 1179.40625 1108.507813 1177.390625 1117 1177 1125 C 1174.960938 1172.785156 1225.949219 1207 1269 1187.097656 C 1289.570313 1177.621094 1297 1159.519531 1307 1141 M 549 1287 C 548.996094 1268 541.867188 1234.453125 526 1222 C 532.765625 1246.070313 531.273438 1279.515625 519.742188 1302 C 515.707031 1310 496.363281 1327.652344 487 1315.261719 C 485.183594 1312.789063 487 1308.609375 487.765625 1306 C 489.480469 1298.710938 490.988281 1291.515625 491 1284 C 491 1258.179688 485.859375 1218.453125 463 1202 C 474.40625 1228.5 474.761719 1271.804688 459.90625 1297 C 449.203125 1315.152344 423.480469 1329.710938 405.214844 1311.675781 C 396.851563 1303.417969 402.859375 1289.023438 403.828125 1279 C 405.503906 1261.722656 403.632813 1243.453125 398 1227 C 396 1220.75 394 1213.378906 389 1209 C 392.1875 1234.207031 394 1265.1875 380.546875 1288 C 371.789063 1302.808594 355.8125 1313 339 1303.6875 C 317.507813 1292 312.574219 1260.214844 316.464844 1238 C 319.199219 1222.378906 325 1207.566406 318.742188 1192 C 309.574219 1169.289063 284.214844 1151.21875 265 1137.421875 C 254.171875 1129.644531 238.359375 1120.824219 234.765625 1107 C 231.765625 1095.464844 241.710938 1083.285156 251 1078 C 270.179688 1066.703125 297.4375 1068.558594 318 1074.425781 C 350.628906 1083.738281 381 1101.472656 412 1115.140625 C 454.945313 1134.113281 507.941406 1148.382813 536 1189 C 551 1210.6875 560.84375 1235.289063 558.167969 1262 C 557.417969 1269.511719 556 1282.734375 549 1287 M 821 1275 C 819.839844 1265.757813 824.882813 1254.710938 824.996094 1245 C 825.3125 1217.390625 813.683594 1182.359375 791 1165 C 804 1196.3125 808.308594 1234.730469 787.253906 1264 C 774.558594 1281.648438 742.390625 1300.425781 723.214844 1280 C 711 1267 725.410156 1245.648438 729.289063 1232 C 736.542969 1206.46875 732 1168.640625 709 1152 C 713.980469 1170.628906 716.320313 1189.203125 710 1208 C 701.261719 1234.789063 673.660156 1256.675781 645 1245.070313 C 621.4375 1235.53125 612.96875 1201.105469 615.171875 1178 C 615.859375 1170.773438 621.898438 1153.699219 618.6875 1147.316406 C 617.34375 1144.648438 613.496094 1145.03125 611 1144.714844 C 603.578125 1143.777344 596.339844 1142.121094 589 1140.738281 C 567.90625 1136.769531 530 1123.09375 525.53125 1099 C 523.363281 1087.414063 534.675781 1080.511719 544 1077.511719 C 565.367188 1070.632813 589.394531 1075.015625 611 1078.132813 C 655.257813 1084.511719 701 1097.347656 743 1113 C 770 1123.058594 797 1135.066406 816.828125 1157 C 842.339844 1185.355469 855 1247.453125 821 1275 M 1593 1076.375 C 1624.574219 1070.285156 1630.460938 1117.722656 1600 1123.382813 C 1569.34375 1129.078125 1563.292969 1082.105469 1593 1076.375 M 1700 1103 C 1708.878906 1107.535156 1713.679688 1121.699219 1715.246094 1131 C 1719.949219 1159 1708.203125 1188 1684 1203.757813 C 1653.34375 1224 1610.757813 1225.078125 1582 1200.5625 C 1564.964844 1186.03125 1557 1164 1560.753906 1142 C 1561.871094 1135.371094 1564.46875 1125.195313 1569.886719 1120.660156 C 1574.964844 1116.410156 1574 1132.757813 1574.425781 1135 C 1577.1875 1155.78125 1585 1174.167969 1602 1187.480469 C 1637.632813 1215.511719 1688.21875 1193.777344 1701.640625 1153 C 1707.4375 1135.394531 1701.421875 1120.429688 1700 1103 M 1815 1104 C 1809.9375 1115 1799.453125 1122.589844 1794.3125 1134 C 1786.460938 1151.425781 1784.339844 1170.78125 1775.730469 1188 C 1754.527344 1230.402344 1712.390625 1259.691406 1666 1267.75 C 1628.859375 1274.199219 1595.609375 1265 1561 1252.25 C 1555.425781 1250.203125 1540.335938 1248.453125 1537 1243.566406 C 1534.605469 1240 1536.804688 1231.070313 1537.4375 1227 C 1537.878906 1224.195313 1538 1219 1540 1216.707031 C 1542.996094 1213.808594 1552 1219.597656 1555 1221 C 1568.601563 1227.152344 1582.4375 1233.449219 1597 1237.105469 C 1634.472656 1246.515625 1673.570313 1237.683594 1701.960938 1210.828125 C 1724.214844 1189.78125 1729.488281 1158.140625 1748.464844 1135 C 1764.539063 1115.398438 1790.625 1107.28125 1815 1104 M 1106 1358 L 1105 1358 C 1094.6875 1324.066406 1085.203125 1284 1054 1262 C 1069.40625 1295.152344 1075.320313 1338.027344 1061.933594 1373 C 1057.988281 1383.3125 1044.34375 1407.589844 1030 1403.167969 C 1018.472656 1399.613281 1012.210938 1382.066406 1008.425781 1372 C 1000 1350 996.484375 1323.457031 998 1300 C 998.882813 1288.441406 1003 1276.351563 1003 1265 C 979.871094 1290.355469 975.601563 1332.148438 977 1365 C 977.496094 1375.441406 979.433594 1386.070313 982.671875 1396 C 983.46875 1398.457031 986.789063 1404.597656 984.878906 1407 C 982.601563 1410 972.425781 1409.714844 969 1410 C 949.492188 1411.011719 932.515625 1403.523438 923.320313 1386 C 907 1355.191406 914.535156 1305.394531 930 1276 C 910.203125 1290.578125 899.386719 1322.65625 895.433594 1346 C 893.863281 1355.28125 893.386719 1364.675781 892.285156 1374 C 892 1376.011719 892.867188 1381.519531 890.972656 1382.824219 C 887.90625 1385 882.175781 1377 880.789063 1375 C 873.320313 1364.578125 871.234375 1352.375 869.714844 1340 C 865.714844 1307.421875 881.742188 1273.050781 904 1250.003906 C 952.757813 1199.640625 1057.832031 1199 1096.933594 1262 C 1107.71875 1279.382813 1112 1298.769531 1112 1319 C 1112 1332 1111.304688 1346.015625 1106 1358 M 1973 1398 L 1971 1398 C 1969.992188 1388 1963.988281 1377.746094 1959 1369 C 1945.898438 1345.128906 1926.410156 1319.644531 1903 1305 C 1923.882813 1336.699219 1936.785156 1371.429688 1932 1410 C 1930.652344 1422.523438 1927 1439.53125 1917 1448 C 1913.847656 1437.4375 1913.261719 1425.800781 1910.527344 1415 C 1904.972656 1393.074219 1896.992188 1371.378906 1887.222656 1351 C 1882 1340.300781 1875.503906 1325.339844 1866 1318 C 1877.414063 1354 1879.804688 1409.183594 1854.535156 1440 C 1841.589844 1455.789063 1820 1463.15625 1800 1460.425781 C 1795.585938 1459.824219 1786.996094 1460.3125 1783.65625 1457 C 1781.292969 1454.5 1784.589844 1450.273438 1785.742188 1448 C 1789.527344 1440.53125 1792.191406 1432.234375 1793.738281 1424 C 1800 1390.066406 1791.996094 1355.6875 1801 1322 C 1773.394531 1352.261719 1775.585938 1396.140625 1754.300781 1429 C 1752.46875 1431.828125 1750.449219 1434.527344 1747.960938 1436.816406 C 1730.171875 1453.148438 1717.289063 1426.800781 1713.476563 1412 C 1706 1383.191406 1710.644531 1351 1727.359375 1326 C 1768.949219 1264 1878.714844 1248.515625 1935 1299.171875 C 1963.9375 1325.214844 1973 1360.433594 1973 1398 M 664 1271.300781 C 674.265625 1270.320313 687.988281 1274.773438 694.441406 1283.039063 C 705.265625 1297 693.222656 1311.476563 678 1312.675781 C 653.878906 1314.574219 631.539063 1274.398438 664 1271.300781 M 728 1310.332031 C 742.191406 1308.011719 750 1326.359375 734 1329.65625 C 718.253906 1333 710 1313.257813 728 1310.332031 M 788 1314.492188 C 796.347656 1313 799 1325.394531 789.984375 1326.496094 C 782 1327.460938 780 1316.015625 788 1314.492188 M 1152 1395 C 1157.648438 1386.453125 1178.410156 1381.242188 1188 1378.28125 C 1210.65625 1371.289063 1232.613281 1364.824219 1256 1360.613281 C 1266.683594 1358.691406 1280 1360.074219 1290 1356 C 1245.453125 1343.359375 1196.464844 1332 1150 1332 C 1152.96875 1327.742188 1160.183594 1327.417969 1165 1326.152344 C 1179.65625 1322.3125 1194.992188 1321.332031 1210 1319.832031 C 1242.667969 1316.566406 1285.820313 1309.816406 1315 1329.105469 C 1333.875 1341.578125 1345.640625 1360.714844 1359.449219 1378 C 1366 1386.203125 1372.90625 1394.054688 1381 1400.75 C 1383.667969 1403 1389.59375 1406.136719 1389.882813 1410 C 1390.425781 1417.226563 1372.324219 1425.542969 1367 1428.242188 C 1341.191406 1441.339844 1307.519531 1443.078125 1281 1431 C 1274.984375 1428.261719 1250 1416.480469 1257.363281 1407.183594 C 1262.546875 1400.597656 1274.320313 1397.015625 1282 1394.507813 C 1283.203125 1394.117188 1291 1392.601563 1289.792969 1390.375 C 1288.605469 1388.335938 1283.914063 1389.003906 1282 1389 L 1257 1389 C 1221.675781 1389 1187 1393.492188 1152 1395 M 1696 1337 L 1696 1339 C 1651 1344.675781 1604.328125 1350.144531 1561 1364 L 1561 1365 C 1604.382813 1365 1650.933594 1381.136719 1687 1405 L 1687 1406 C 1674.390625 1405.730469 1661.578125 1401 1649 1399.285156 C 1618.972656 1395.453125 1588.269531 1392.019531 1558 1392 C 1564.929688 1399.160156 1580 1402.09375 1589 1407.449219 C 1591.8125 1409.144531 1597.367188 1411.648438 1598.171875 1415.183594 C 1599 1419.382813 1593.667969 1424.027344 1590.90625 1426.394531 C 1581.933594 1434.089844 1570.433594 1439 1559 1441.425781 C 1528.789063 1448.203125 1493.425781 1447 1466 1431.28125 C 1458.679688 1427.121094 1448.207031 1422.40625 1443.621094 1415 C 1440.210938 1409.484375 1448.242188 1405.535156 1452 1403 C 1465.722656 1393.746094 1477.339844 1382.660156 1489 1371 C 1502.601563 1357.398438 1516.195313 1341.523438 1534 1333.308594 C 1555.304688 1323.480469 1579 1324.347656 1602 1326 C 1633.90625 1328.09375 1664.367188 1333 1696 1337 M 1375 1344.328125 C 1388.46875 1342 1401.835938 1346.6875 1415 1348.570313 C 1425.1875 1350.03125 1434.839844 1349.015625 1445 1349 C 1448.253906 1349 1465.792969 1347.105469 1465.792969 1352.175781 C 1465.792969 1355.128906 1461 1356.417969 1459 1357.109375 C 1450.230469 1360 1442.246094 1362.226563 1435 1368.320313 C 1428.945313 1373.4375 1424.503906 1380.183594 1420.578125 1387 C 1419.398438 1389.046875 1417.476563 1394.570313 1414.835938 1395.078125 C 1412.546875 1395.515625 1411.390625 1391.46875 1410.691406 1390 C 1408 1384.492188 1405.394531 1378.824219 1401.636719 1374 C 1396.414063 1367.300781 1390 1361.585938 1382 1358.699219 C 1377.5 1357.089844 1367.78125 1356.824219 1365 1352.378906 C 1362.285156 1347.753906 1372 1345 1375 1344.328125 "/></g></svg>