<svg xmlns="http://www.w3.org/2000/svg" xmlns:xlink="http://www.w3.org/1999/xlink" viewBox="0 0 100 100" version="1.1"><g transform="translate(1, 8.733654349281316) scale(0.051427118949811) translate(-38.746094, -182.453125)"><path style=" stroke:none;fill-rule:nonzero;fill:rgb(0%,0%,0%);fill-opacity:1;" d="M 248 264 C 262.578125 253.558594 273.972656 241.808594 292 236.746094 C 332 225.503906 372.316406 240 408 257.753906 C 476 291.796875 533.742188 342 595 386.253906 C 627.621094 410 665 434.699219 689.742188 467 C 696.730469 476.183594 704.988281 486.046875 709 497 C 698.4375 488 689.285156 472.144531 676 467 C 683.421875 480.332031 691.726563 492.515625 697 507 C 672.695313 485.761719 654 459.476563 626 442 C 639.929688 462 657.976563 479.019531 672 499 C 707.753906 549.503906 746.386719 605.164063 761.523438 666 C 767.734375 691 769 716.398438 769 742 L 768 742 C 749 650.609375 710 558 648.710938 487 C 623.585938 458 592.746094 437.753906 565 412 C 531.320313 380.542969 500.691406 348.582031 464 320.421875 C 454.9375 313.464844 445.359375 307.257813 436 300.71875 C 393.175781 270.800781 317.90625 230.515625 271 274 C 264.339844 280.15625 259.546875 287.121094 255 295 C 239.246094 322.398438 239 357.394531 239 388 C 239 430.667969 244.535156 473.078125 252.390625 515 C 258.828125 549.359375 266.648438 584.0625 281.308594 616 C 299.746094 656.160156 320 692.691406 330.871094 736 C 333.707031 747.339844 339 761.355469 339 773 C 314.707031 746.625 304.609375 713.601563 289.257813 682 C 284.378906 672 277.914063 651.625 268 646 C 271.714844 675.382813 264.175781 704.40625 270 734 C 271.480469 741.511719 273.464844 749 276.191406 756 C 276.929688 758 279.394531 762.222656 277.925781 764.226563 C 275.820313 767.105469 263.417969 764.007813 260 764 L 260 765 C 270.539063 770 279.597656 777.078125 290 782 L 290 783 C 282.195313 785 275.621094 782.289063 268 781 C 272.949219 788.554688 284.984375 789.722656 291 797 C 283.523438 796.054688 271.910156 792 266 798 C 269.453125 799.175781 272.820313 800.523438 276 802.339844 C 279 804.089844 287.792969 809 287.792969 813 C 287.792969 816.660156 280.503906 821.296875 278 823.410156 C 269.890625 830.253906 250.285156 841.019531 247 851 C 258.640625 849.527344 270.628906 850.195313 282 847 C 271.519531 861.136719 258 873.042969 244 883.523438 C 237.300781 888.507813 226 892.632813 222 900 L 242 900 C 238.816406 904.507813 234.324219 907.652344 231 912 C 234.640625 912.398438 238.320313 912.011719 242 912 C 237.859375 917.828125 229 921.203125 227 928 L 239 925 C 229.8125 933.386719 212.367188 939.582031 206 950 C 212.792969 949.707031 219.261719 947.550781 226 947 C 218.773438 958.554688 207.515625 966.808594 201 979 C 209.578125 975.753906 217.839844 970.28125 226 966 C 217.769531 980.769531 205.851563 994 200 1010 C 208.511719 1006.402344 215.929688 999.59375 224 995 C 214.6875 1010.734375 201.949219 1025.523438 196 1043 C 205.285156 1037.347656 210.484375 1027.210938 221 1022 C 214.941406 1041.136719 195.789063 1058.257813 198 1080 C 204.78125 1071.605469 206.773438 1062.316406 218 1058 C 212.457031 1070 204.273438 1080.792969 202 1094 C 210 1092 217.523438 1085 225 1081 C 215.914063 1095.585938 203.90625 1107.074219 199 1124 C 206.445313 1119.734375 211.71875 1114.394531 220 1111 C 216.632813 1125.726563 209.324219 1138.238281 209 1154 L 210 1154 C 214.785156 1145.800781 218.75 1137.433594 226 1131 C 223.542969 1150.449219 219.839844 1170.425781 219 1190 L 220 1190 C 224 1183.4375 228 1177.082031 234 1172 C 232.679688 1187.105469 225.660156 1201.617188 225 1217 C 231.167969 1211.753906 234.234375 1204 241 1199 C 237.972656 1210.667969 235.675781 1222.503906 232 1234 C 239.886719 1231.808594 246.445313 1224.53125 254 1221 C 250.207031 1234.167969 244 1246.484375 241 1260 C 247.40625 1257.011719 251.40625 1251 258 1248 C 256.476563 1258.175781 251.335938 1268 249 1278 C 255.953125 1276.105469 262.53125 1270.402344 269 1267 C 269 1271 266.574219 1292.078125 268.191406 1292 C 280.707031 1290.003906 295.679688 1281.066406 308 1277 C 331.335938 1269.300781 355.773438 1264.328125 380 1260.4375 C 459.632813 1247.648438 540.632813 1257.832031 619 1273.601563 C 642 1278.238281 664.675781 1283.691406 688 1287 C 694.203125 1288 704.863281 1292.816406 710.816406 1290.394531 C 716 1288.261719 718.636719 1279.34375 721.785156 1275 C 725.304688 1270.144531 730.960938 1267.027344 734 1262 C 715.917969 1263.8125 700.570313 1277 684 1283 C 690.984375 1270.46875 703.292969 1264.539063 712 1254 C 690.820313 1255 671 1267.039063 650 1268 C 660.363281 1259.167969 671.769531 1252.71875 684 1247 L 684 1246 C 662.617188 1246.015625 641.421875 1251.824219 620 1252 L 620 1251 L 672 1232 L 672 1231 C 645.910156 1231 619.9375 1234 594 1234 L 594 1233 C 602.921875 1231.414063 611.480469 1226.167969 620 1223.054688 C 631.492188 1219 643.65625 1216.484375 655 1212 L 655 1211 C 634.738281 1211 614 1210 594 1212.285156 C 579.371094 1214.039063 565.429688 1218.554688 551 1221 C 558 1213.054688 570.328125 1206.582031 575 1197 C 562.257813 1199.191406 549.820313 1204.136719 537 1206.539063 C 523.433594 1209.082031 509.496094 1209.492188 496 1212 L 496 1211 C 514.863281 1203.722656 534.542969 1197.183594 553 1189 L 553 1188 C 539.878906 1188 524.792969 1190.046875 512 1187 L 512 1186 C 519.398438 1183 537.699219 1180.273438 542 1174 C 514.363281 1174.570313 486.628906 1178.769531 459 1179 L 459 1178 C 476.433594 1172.1875 493.421875 1165.414063 511 1160 C 516.425781 1158.296875 527.601563 1157.46875 531 1153 C 505 1153 476.496094 1148 451 1154 C 455.945313 1149.199219 463.714844 1148.265625 470 1145.796875 C 484.257813 1140.199219 499.605469 1130.535156 515 1129 L 515 1127 C 484.847656 1127 454.832031 1133.230469 425 1137 C 441.539063 1123.648438 467.390625 1118.5625 487 1111 L 487 1110 C 448.511719 1110 410.328125 1114.210938 372 1115 L 372 1114 C 404.410156 1105.152344 435.859375 1095.175781 469 1089 L 469 1088 C 432.632813 1083.402344 393.902344 1084.59375 358 1092 L 358 1091 C 385.632813 1079.511719 415.542969 1066.628906 446 1066 L 446 1065 C 428.722656 1063.636719 411.390625 1061.277344 394 1062.039063 C 376 1062.824219 358.722656 1066.746094 341 1069 L 341 1068 C 371.96875 1056 405 1041.707031 439 1046 C 436.832031 1039.65625 426.859375 1038.128906 421 1036.628906 C 402 1031.769531 383.257813 1032.566406 364 1035 C 384.25 1018.777344 421.496094 1019 446 1019 L 446 1018 C 428.585938 1008.824219 408.71875 1011.089844 390 1009 C 408 1000.578125 428.457031 1000 448 1000 C 454.582031 1000.003906 461.566406 1002.089844 468 1001 C 455.378906 990.804688 434.410156 990 419 990 L 419 989 C 440.910156 982 462.402344 984.535156 485 985 C 478.273438 977.695313 462.558594 975.234375 453 974 L 453 973 C 479.308594 971 504.753906 977 531 977 C 526.753906 981.464844 520.167969 981.226563 516 986 C 520.875 986.039063 529.667969 986.144531 533.410156 989.738281 C 536.972656 993.160156 535.839844 1000.539063 536.425781 1005 C 538.21875 1018.648438 539.773438 1031.773438 543.882813 1045 C 554 1078 578.78125 1107 609 1123.113281 C 653.46875 1147.011719 708.667969 1148 755 1129.398438 C 766.371094 1125 776 1119.140625 786 1112 C 789.53125 1109.285156 796.648438 1102 801 1101.539063 C 804.90625 1101.257813 804 1109.789063 803.984375 1112 C 803.703125 1123.621094 798.675781 1134.617188 797 1146 C 801 1143 803.28125 1138.40625 807 1135 C 804.550781 1145.578125 796.875 1154.605469 795 1165 C 806.867188 1156.738281 816.6875 1146.242188 824.316406 1134 C 825.691406 1131.789063 829.53125 1121.054688 832.273438 1121.054688 C 836 1121.054688 835.949219 1129.582031 836 1132 C 839 1130.164063 840.929688 1121.054688 844 1121.054688 C 849.492188 1121.054688 852.914063 1135.0625 853.867188 1139 C 858.808594 1159.371094 851 1180 845 1199 C 850 1196.234375 853 1190.171875 857 1186 C 856 1191.566406 853.539063 1196.601563 852 1202 C 861.441406 1197.503906 867.46875 1188.769531 878 1185 C 863.371094 1210.683594 845.886719 1238.476563 859.902344 1269 C 864.96875 1280.035156 874.367188 1289 884 1296 C 893.523438 1303 904 1307.765625 914 1314.089844 C 933.300781 1326.4375 951 1345.796875 963.410156 1365 C 968.648438 1373.136719 973.609375 1382.050781 973.871094 1392 C 974.175781 1403.636719 967.269531 1415.4375 959.996094 1424 C 952.328125 1433.023438 944.320313 1441.355469 935 1448.714844 C 923.292969 1458 908.632813 1466.613281 894 1470 C 905.503906 1458.402344 915.511719 1443.039063 922 1428 C 913.535156 1432 906.277344 1440.320313 899 1446.195313 C 880.289063 1461.300781 862.5625 1477.359375 842 1490 C 853.398438 1468.023438 874.816406 1450.453125 886 1428 C 864.242188 1436.414063 845.332031 1456.414063 825 1468 C 830.421875 1457.550781 844.722656 1450.179688 848 1439 C 794.664063 1462.308594 756.265625 1518.804688 749 1576 L 748 1576 C 748 1534.648438 766.515625 1496.769531 793.289063 1466 C 806 1451.371094 828.90625 1437.085938 835 1418 C 824.460938 1422 813.992188 1429.273438 804 1434.691406 C 771.199219 1452.472656 738.800781 1472.785156 712 1499.015625 C 695 1515.492188 682 1538.363281 664 1553 C 679.640625 1510.023438 719 1473.710938 755 1447.746094 C 771.84375 1435.59375 797.277344 1425.589844 810 1409 C 793.609375 1415 775.78125 1420.617188 760 1428 C 770.886719 1412.671875 790.753906 1405.671875 803 1392 C 790.289063 1394 777.882813 1400.128906 766 1404.796875 C 737.234375 1416.101563 708 1430 682 1446.691406 C 673.519531 1452.140625 664.902344 1457.554688 656 1462.292969 C 654.746094 1463 647.320313 1467.644531 646.632813 1464.472656 C 646 1461.566406 651.191406 1458 653 1456.285156 C 660.390625 1449.753906 667.886719 1443.449219 676 1437.824219 C 699 1421.824219 722.527344 1406.8125 748 1394.78125 C 757.773438 1390.164063 777.527344 1384.640625 783 1375 C 761.527344 1377 738.894531 1379.46875 718 1385 C 722.960938 1378.535156 731 1372.367188 738 1368.066406 C 741.820313 1365.695313 747.304688 1364.589844 750 1361 C 737.476563 1361.265625 723.816406 1366.558594 712 1370.484375 C 692.929688 1376.816406 673.9375 1383.148438 655 1390 C 646.355469 1393 637.722656 1396 629 1398.671875 C 626.503906 1399.480469 622 1401.738281 619.464844 1400.355469 C 615.886719 1398.457031 623.707031 1393.539063 625 1392.699219 C 632.78125 1387.648438 641.566406 1384.097656 650 1380.304688 C 682.472656 1365.707031 718.484375 1349.226563 754 1344 L 754 1343 C 729.742188 1339.140625 702.695313 1343.601563 678 1342 C 619.640625 1338 561.445313 1331.597656 503 1329.039063 C 484.832031 1328.242188 467 1331 449 1331 L 449 1330 C 524.519531 1309.8125 600 1320.59375 677 1324 C 713.28125 1325.550781 748.957031 1320.097656 785 1320 L 785 1319 C 747.257813 1314.203125 708.339844 1309.289063 671 1302 C 626.65625 1293.34375 582.839844 1281.324219 538 1275.28125 C 499.386719 1270.082031 458.730469 1270.464844 420 1274.171875 C 350.960938 1280.769531 291.523438 1308 228 1333 L 228 1334 C 237 1334 245.921875 1335.609375 255 1336 L 255 1338 C 229.765625 1338.070313 204.304688 1341.789063 179 1342 C 182.527344 1346.8125 189.734375 1347.6875 194 1352 C 178.238281 1352 163 1354.519531 149 1362 L 149 1363 C 155.234375 1363 163 1360.449219 168 1365 C 151.671875 1365.746094 122.628906 1375.171875 112 1388 C 122 1387.203125 133.386719 1383.375 143 1388 C 127.75 1393.160156 97.695313 1403 90 1418 C 94 1417.125 97.859375 1415.222656 102 1414.464844 C 104.507813 1414.003906 122.945313 1411 122.945313 1415 C 122.945313 1418 113.25 1421.6875 111 1423.011719 C 100.957031 1429 88 1436.046875 83 1447 C 86.800781 1446.441406 100 1441 103 1444.117188 C 105.277344 1446.433594 96.351563 1456.703125 95 1459 C 87 1473.035156 82.269531 1490 81 1506 C 86.796875 1503 89.75 1496.023438 95 1492 C 92.90625 1507.535156 91.242188 1522.289063 93.289063 1538 C 94 1543.519531 99.886719 1555.695313 97.648438 1560.683594 C 95.929688 1564.511719 87.339844 1563 84 1563 L 54 1563 C 50.878906 1563 45.222656 1562 42.601563 1564.027344 C 40.25 1566 41 1570.382813 41 1573 L 41 1597 C 41 1601.527344 38.746094 1615 42.601563 1618 C 47.570313 1622 63.777344 1619 70 1619 C 95.886719 1619 129.410156 1611.578125 148 1633 C 118.398438 1633.246094 88.679688 1634 59 1634 C 49.726563 1634 40.859375 1631.371094 41.855469 1643.039063 C 42 1644.746094 41.613281 1647.644531 43 1649 C 44.90625 1650.644531 49.667969 1649.003906 52 1649.105469 C 61.988281 1649.542969 71.929688 1649 82 1649 C 104.316406 1649 127.839844 1648.5625 150 1651.285156 C 160.96875 1652.632813 171.226563 1656.777344 182 1659 L 182 1660 C 136.796875 1665.714844 89.558594 1669 44 1669 L 44 1670 C 105.53125 1670 166.660156 1675.367188 228 1678 L 228 1680 C 166.335938 1681.273438 104.625 1689.355469 43 1692 L 43 1693 C 51.28125 1695.449219 61.394531 1694 70 1694 C 84 1694 97.945313 1695 112 1695 C 143.566406 1695 175.46875 1695.578125 207 1697 C 237 1698.277344 269.289063 1698.515625 298 1709 L 298 1710 C 240.488281 1714.539063 182.640625 1716.515625 125 1719.039063 C 97.738281 1720.234375 70.292969 1723 43 1723 L 43 1724 C 50 1726.089844 57.71875 1724.476563 65 1725.171875 C 86.183594 1727.1875 107.695313 1727 129 1727 C 178.914063 1727.003906 228.960938 1729 279 1729 L 705 1729 C 721.171875 1729 740.25 1731.75 756 1728 L 756 1727 C 732 1727 707.917969 1721.738281 684 1720.089844 C 638.371094 1717 592.605469 1716.035156 547 1713 C 517.59375 1711 487.464844 1707.019531 458 1707 L 458 1705 C 492.71875 1702.261719 527.207031 1697.5625 562 1696.039063 C 620.574219 1693.472656 679.390625 1696 738 1694.035156 C 780.496094 1692.613281 826 1698.777344 868 1691 L 868 1690 C 811 1688.824219 753.992188 1684.683594 697 1684.003906 C 669.554688 1683.675781 642.355469 1683.238281 615 1682.039063 C 596.695313 1681.238281 576.921875 1682.269531 559 1678 C 579 1669.507813 605.695313 1673.183594 627 1672.40625 C 687.621094 1670.191406 748.414063 1673 809 1673 C 936.265625 1673 1063.722656 1674.511719 1191 1673 C 1247.542969 1672.324219 1304.464844 1670.484375 1361 1673 C 1383.246094 1674 1404.964844 1673 1427 1677 L 1427 1678 C 1382.785156 1686.328125 1336.769531 1683 1292 1684.015625 C 1234.8125 1685.414063 1177 1690 1120 1690 L 1120 1691 C 1134.726563 1695.351563 1153.671875 1692.820313 1169 1693.003906 C 1199.226563 1693.363281 1229.722656 1693.273438 1260 1694.015625 C 1315.546875 1695.375 1371.460938 1693.605469 1427 1696.039063 C 1464.289063 1697.671875 1501.695313 1704.691406 1539 1705 L 1539 1707 C 1481.175781 1707.480469 1422.804688 1714.429688 1365 1717 C 1337.894531 1718.148438 1311 1720.128906 1284 1722.832031 C 1270 1724.222656 1254.414063 1724 1241 1728 L 1241 1729 L 1703 1729 C 1752.40625 1729 1801.714844 1727.589844 1851 1727.003906 C 1871.40625 1726.761719 1891.667969 1726.480469 1912 1725.089844 C 1920.640625 1724.496094 1929.507813 1726.019531 1938 1724 L 1938 1723 C 1898.511719 1723 1858.390625 1719.785156 1819 1717.089844 C 1774 1714.011719 1728.914063 1713.546875 1684 1710 L 1684 1709 C 1742.492188 1695.628906 1800.394531 1696.476563 1860 1695.015625 C 1875.949219 1694.625 1892 1694.078125 1908 1694 C 1918 1694 1929 1695.34375 1939 1693 L 1939 1692 C 1893.679688 1688.421875 1848.320313 1687.015625 1803 1684 C 1786.734375 1682.796875 1770.289063 1680.335938 1754 1680 L 1754 1679 C 1775.808594 1673.746094 1798.796875 1675 1821 1674 C 1859.5625 1672.273438 1898.371094 1670 1937 1670 L 1937 1669 C 1910.351563 1668.777344 1883.574219 1666 1857 1664.089844 C 1839.367188 1663 1820.257813 1664.109375 1803 1660 C 1831.46875 1645 1869.824219 1650 1901 1650 C 1910.640625 1650 1920.324219 1650.265625 1929.960938 1650 C 1932.6875 1650 1937.984375 1650.675781 1940.234375 1649 C 1943 1646.734375 1943 1636.261719 1939.683594 1634.601563 C 1935.878906 1632.730469 1929 1634 1925 1634 C 1894.652344 1634 1864.265625 1633.25 1834 1633 C 1838.710938 1628.699219 1845 1622.019531 1851 1619.742188 C 1856.453125 1617.660156 1864.234375 1619 1870 1619 L 1909 1619 C 1915.972656 1619 1934.871094 1622.347656 1940.398438 1618 C 1944.355469 1615 1942 1600.671875 1942 1596 L 1942 1573 C 1942 1570.609375 1942.847656 1566 1940.972656 1564.027344 C 1938.828125 1562 1932.761719 1563 1930 1563 L 1899 1563 C 1896 1563 1886.988281 1564.496094 1885.238281 1561.398438 C 1883 1557.574219 1889.570313 1543.605469 1890.386719 1539 C 1893.195313 1523.097656 1889.246094 1507.667969 1888 1492 C 1893.621094 1496 1897.257813 1502.53125 1903 1506 C 1901.917969 1481.15625 1889.78125 1461.703125 1876 1442 C 1884.488281 1442.691406 1892.558594 1446.160156 1901 1447 C 1893.367188 1432.289063 1873.757813 1422.144531 1859 1416 L 1859 1415 C 1872 1411.617188 1881.4375 1415.316406 1894 1418 C 1891.253906 1412.382813 1885.222656 1409.351563 1880 1406.203125 C 1867.230469 1398.507813 1853 1392.605469 1839 1388 L 1839 1387 C 1850 1384.351563 1860.875 1387.769531 1872 1388 L 1872 1387 C 1854 1377.078125 1835.613281 1367.660156 1815 1365 C 1820.210938 1360.117188 1827.507813 1363 1834 1363 C 1823.820313 1352 1802.851563 1352 1789 1352 C 1793.300781 1347.652344 1799.53125 1345.589844 1805 1343 L 1805 1342 C 1778.445313 1341 1751.558594 1338.21875 1725 1338 L 1725 1337 C 1735.1875 1334.546875 1745.570313 1334 1756 1334 L 1756 1333 C 1726.777344 1322 1698.457031 1308.175781 1669 1297.691406 C 1635.824219 1286 1600.933594 1278.464844 1566 1274.285156 C 1483.699219 1264.441406 1405 1284 1325 1299.800781 C 1285.214844 1307.710938 1244.707031 1310.808594 1205 1319 L 1205 1320 C 1270 1328.21875 1335.878906 1321.8125 1401 1319 C 1448 1317 1494.523438 1316.207031 1540 1331 L 1540 1332 C 1517.925781 1331.542969 1496.300781 1328.0625 1474 1329.039063 C 1412.898438 1331.714844 1352 1340.285156 1291 1343 C 1268.644531 1344 1246.273438 1342.003906 1224 1342 L 1224 1343 C 1243.605469 1349 1263.5 1353.390625 1283 1360.078125 C 1300.183594 1366 1316.234375 1374.542969 1333 1381.398438 C 1341.714844 1385 1350.792969 1388.816406 1359 1393.441406 C 1360.570313 1394.324219 1366 1397 1364.792969 1399.425781 C 1363.679688 1401.757813 1358.777344 1400.160156 1357 1399.789063 C 1348.78125 1398.070313 1340.941406 1395.007813 1333 1392.332031 C 1300 1381.234375 1267.183594 1367.074219 1233 1360 C 1239.589844 1370.058594 1256.582031 1375.367188 1265 1385 L 1200 1375 C 1205.878906 1385.355469 1226.484375 1391.550781 1237 1396.304688 C 1262.304688 1407.746094 1285.261719 1422.535156 1308 1438.34375 C 1316 1444 1323.921875 1450.242188 1331 1457.039063 C 1332.476563 1458.457031 1337.863281 1462.539063 1336.964844 1465.046875 C 1336 1467.289063 1329 1462.730469 1328 1462.136719 C 1319.265625 1457.261719 1310.628906 1452.203125 1302 1447.140625 C 1274.21875 1431 1246.175781 1415.667969 1216 1404.191406 C 1206 1400.417969 1195.449219 1394.800781 1185 1393 C 1193.171875 1408.164063 1215.769531 1415.515625 1226 1430 C 1210.496094 1420.605469 1191.414063 1416.046875 1175 1408 C 1178.183594 1414.683594 1186 1419 1192 1423.023438 C 1204.191406 1431.480469 1216.835938 1439.261719 1229 1447.722656 C 1258.242188 1468.058594 1283.480469 1491.234375 1303.332031 1521 C 1309.921875 1531 1317.679688 1541.46875 1321 1553 C 1305.695313 1537.566406 1293.503906 1519.328125 1278 1504.003906 C 1249.199219 1475.53125 1214.40625 1451.625 1178 1434 C 1168.773438 1429.398438 1159.742188 1420.652344 1150 1418 C 1157 1436.496094 1177 1448.632813 1189.714844 1463 C 1218.355469 1495.53125 1238 1531.824219 1238 1576 L 1237 1576 C 1235 1532.375 1203.890625 1486.769531 1171 1460.601563 C 1161.773438 1453.261719 1150.292969 1442.605469 1139 1439 C 1144.253906 1450.285156 1155.769531 1458.222656 1162 1469 C 1143.710938 1455 1121 1437.363281 1100 1428 C 1110.347656 1450.230469 1129.238281 1470.613281 1144 1490 C 1113 1474.726563 1092.742188 1443.085938 1063 1427 C 1069.585938 1443 1081.386719 1457 1091 1471 C 1074.988281 1462.265625 1059 1455.339844 1045 1443.410156 C 1038.460938 1438 1032.5 1431.71875 1027.210938 1425 C 1019.984375 1415.820313 1012.769531 1404.078125 1012.457031 1392 C 1011.867188 1369.382813 1037 1345.1875 1051.804688 1330.664063 C 1082.285156 1300.679688 1138.324219 1287.472656 1130.699219 1234 C 1129.585938 1226.171875 1126.996094 1218.164063 1123.691406 1211 C 1119.511719 1202 1113.738281 1193.335938 1107 1186 C 1118 1186.679688 1125.464844 1198 1135 1202 C 1133.527344 1196.613281 1130.675781 1191.714844 1131 1186 C 1133.652344 1190.496094 1135.808594 1194.761719 1140 1198 C 1136 1171.480469 1120.339844 1142.75 1142 1119 C 1143.710938 1123.4375 1144.996094 1128.277344 1148 1132 C 1148.6875 1129.683594 1148.722656 1119.054688 1152 1119.054688 C 1155 1119.054688 1159.5625 1131.5625 1161 1134 C 1167.980469 1145.207031 1178.46875 1161.480469 1192 1165 C 1187.78125 1155.15625 1182.347656 1146.277344 1179 1136 C 1182.289063 1139.4375 1185 1143.175781 1189 1146 C 1187.878906 1134.804688 1182 1124.523438 1182 1113 C 1181.988281 1110.488281 1181.667969 1102.082031 1185.710938 1102.054688 C 1189.445313 1102.03125 1196.851563 1110.171875 1200 1112.421875 C 1211.386719 1120.558594 1222.984375 1126.6875 1236 1131.796875 C 1279.738281 1149 1332.460938 1145.183594 1374 1123.742188 C 1405.617188 1107.421875 1430.449219 1077 1440.972656 1043 C 1444.292969 1032.324219 1447 1021.171875 1447.914063 1010 C 1448.324219 1005 1447.472656 995.492188 1450.742188 991.394531 C 1454.621094 986.527344 1463.316406 986.046875 1469 986 L 1469 985 C 1464.28125 982.023438 1459.1875 980.011719 1454 978 L 1454 977 C 1479.550781 977 1504.394531 971 1530 973 L 1530 974 C 1519.234375 975.390625 1508.835938 978.402344 1499 983 L 1499 984 C 1514.339844 984 1529.714844 982.550781 1545 984.730469 C 1551 985.601563 1558.1875 985.761719 1563 990 C 1550.507813 990 1522.242188 989.464844 1515 1002 C 1532.863281 998.671875 1552 999 1570 1002.308594 C 1578 1003.824219 1585.808594 1007.328125 1594 1008 L 1594 1010 C 1578.816406 1010 1564.894531 1009.480469 1550 1013.574219 C 1545 1015 1539 1015.757813 1536 1020 C 1567.9375 1017.480469 1594.609375 1025.710938 1625 1034 L 1625 1035 C 1595.597656 1035 1571 1031.480469 1543 1044 L 1543 1045 C 1569.539063 1045 1595 1049 1620 1058.316406 C 1627.640625 1061.195313 1637.847656 1063.550781 1644 1069 C 1611.214844 1062.640625 1573 1057.128906 1540 1065 L 1540 1066 C 1562.175781 1066.457031 1584.460938 1073.828125 1605 1081.574219 C 1612.566406 1084.429688 1621.984375 1086.378906 1628 1092 C 1590.480469 1083.421875 1553.871094 1087.6875 1516 1088 L 1516 1089 C 1534.375 1094.585938 1554.3125 1096.566406 1573 1101.378906 C 1586.816406 1105 1600 1111.078125 1614 1114 L 1614 1115 C 1586 1115 1558 1111.136719 1530 1111 C 1520.328125 1111 1509.4375 1108.28125 1500 1111 L 1500 1112 C 1520.492188 1119 1539.96875 1127.78125 1560 1136 L 1560 1137 C 1529.582031 1135.695313 1499.683594 1127.003906 1469 1127 L 1469 1129 C 1491.5 1132.324219 1512.96875 1146 1535 1152 L 1535 1153 C 1507.851563 1153 1481 1153 1454 1154 L 1454 1156 C 1480 1158.066406 1502.789063 1172.753906 1528 1178 L 1528 1179 C 1499.660156 1179 1471.433594 1176 1443 1176 L 1443 1177 C 1451.890625 1179.300781 1464.269531 1180.277344 1471 1187 C 1458.316406 1187.542969 1445.742188 1188 1433 1188 L 1433 1189 C 1448.765625 1195.273438 1475.242188 1200.519531 1487 1213 C 1473 1210.304688 1458.894531 1209.15625 1445 1206.335938 C 1433.210938 1204 1421.742188 1199.019531 1410 1197 C 1414.734375 1206.355469 1426.546875 1214.546875 1434 1222 C 1417 1218.476563 1401.289063 1212.816406 1384 1211.171875 C 1367 1209.558594 1348.964844 1211.011719 1332 1211 L 1332 1213 C 1352.371094 1214.777344 1371.902344 1226.539063 1391 1233 L 1391 1234 C 1365.566406 1233.476563 1340.527344 1232 1315 1232 L 1315 1233 L 1366 1251 L 1366 1252 C 1344.605469 1251.558594 1323.371094 1246.015625 1302 1246 L 1302 1247 C 1313.3125 1253.601563 1324 1259.339844 1334 1268 C 1313.3125 1265.328125 1293.546875 1257.035156 1273 1254 C 1277.96875 1262.21875 1288.339844 1267.453125 1294.535156 1275 C 1295.394531 1276.046875 1300.328125 1281.320313 1298.832031 1282.832031 C 1297.464844 1284.21875 1288.597656 1278.070313 1287 1277.21875 C 1275.949219 1271.351563 1262.84375 1262.300781 1250 1262 L 1250 1263 C 1256.636719 1267.546875 1261.546875 1273.183594 1265.808594 1280 C 1268 1283.546875 1270.605469 1290 1275 1291.105469 C 1280 1292.378906 1287.929688 1289.109375 1293 1288.246094 C 1308.371094 1285.632813 1323.695313 1283.0625 1339 1280 C 1388 1270.199219 1436 1259.511719 1486 1256.089844 C 1543.800781 1252.132813 1601.929688 1257.140625 1658 1272 C 1679 1277.429688 1699 1289.242188 1720 1294 C 1719 1287.625 1717.378906 1281.382813 1716.425781 1275 C 1716.230469 1273.683594 1715 1269.539063 1716.601563 1268.597656 C 1719.390625 1266.808594 1731.316406 1277.457031 1734 1279 C 1733 1268.511719 1728 1258.335938 1726 1248 C 1732 1251.242188 1736.457031 1256.09375 1742 1260 C 1742.757813 1248.191406 1734.429688 1232.800781 1730 1222 C 1737.570313 1224.753906 1743 1230.386719 1750 1234 C 1749.457031 1222.128906 1745.648438 1209.578125 1743 1198 C 1748.9375 1203.269531 1752.28125 1211.800781 1759 1216 C 1757 1201.496094 1753 1187.371094 1751 1173 C 1756 1178.253906 1759.421875 1185.378906 1765 1190 C 1763.464844 1170.523438 1761.566406 1150.210938 1758 1131 C 1765.246094 1136.433594 1767.546875 1147.769531 1775 1152 C 1772.347656 1137.710938 1768.953125 1125.632813 1764 1112 C 1772.492188 1113.78125 1777 1120.800781 1785 1123 C 1779.644531 1107.273438 1768.984375 1095.585938 1760 1082 C 1767.359375 1085.0625 1774.324219 1091.457031 1782 1093 C 1778.648438 1080.714844 1772.351563 1068.351563 1765 1058 C 1776.496094 1061.671875 1777.917969 1074 1787 1079 C 1782.476563 1057.082031 1770.78125 1041.734375 1762 1022 C 1771.707031 1027.671875 1779 1033 1786 1042 L 1787 1042 C 1783.867188 1024.378906 1768.785156 1008.324219 1759 994 C 1767.292969 999.164063 1775 1006.082031 1784 1010 C 1781.226563 994.621094 1766.878906 978.492188 1758 966 C 1767 970.074219 1775 975.800781 1784 980 C 1778.867188 966.460938 1764.84375 957 1756 946 C 1763.449219 947.097656 1770.371094 950 1778 950 C 1768.953125 939.054688 1752.691406 935.105469 1744 924 C 1748.421875 925.011719 1752.433594 926 1757 926 C 1752.507813 920.179688 1745.421875 917 1740 912 L 1751 912 C 1749.5 909 1742 904.3125 1742 901.351563 C 1742 898.570313 1758.59375 899 1761 899 C 1757.285156 893.3125 1748.507813 890 1743 886 C 1728.96875 875.65625 1711 862.765625 1703 847 C 1713.699219 849.769531 1724 850 1735 850 C 1730 840.335938 1714.417969 831.261719 1706 824.246094 C 1703 821.746094 1697.453125 818.636719 1695.921875 815 C 1693.757813 809.648438 1705.292969 803.511719 1709 801.667969 C 1710 801.105469 1715.765625 799.714844 1714.652344 797.597656 C 1712.644531 793.773438 1696.867188 797 1693 797 C 1698.488281 790.355469 1707 786.265625 1715 783 L 1715 782 C 1707.179688 782.023438 1699.722656 784.019531 1692 785 C 1699.175781 776.0625 1712.527344 769.359375 1723 765 L 1723 764 C 1716.277344 764.003906 1709.609375 764.773438 1703 766 C 1720.683594 727 1715 688.386719 1715 647 L 1714 647 C 1690.238281 687.140625 1678.285156 739.429688 1645 773 C 1653.753906 741 1660 709 1672.8125 678 C 1685.914063 646.363281 1704.644531 617.78125 1715.328125 585 C 1732 534 1739 479.296875 1744.171875 426 C 1748.429688 382 1751.675781 320 1722.710938 283 C 1677.699219 225.542969 1594.769531 269.160156 1548 300.355469 C 1537.769531 307.179688 1527.730469 314.488281 1518 322.011719 C 1495.730469 339.230469 1474 357.226563 1454 377.015625 C 1441.597656 389.261719 1430.824219 403.023438 1418 415 C 1400 431.507813 1378.691406 444.003906 1360.996094 461.039063 C 1328.839844 492.003906 1302.453125 531.074219 1280.859375 570 C 1250.886719 624.046875 1234.363281 682.367188 1220 742 L 1219 742 C 1214.808594 644.414063 1266.75 563.292969 1322.289063 487 C 1333.777344 471.21875 1349.167969 458.039063 1360 442 C 1331.867188 454 1315.511719 484.695313 1292 502 C 1296.425781 489.007813 1305.921875 477.800781 1310 465 C 1298.28125 473.625 1289.910156 486.546875 1277 494 C 1307.535156 448 1349.507813 416.019531 1393 382.765625 C 1435.914063 350 1478.613281 316.6875 1524 287.308594 C 1561.78125 263 1606.621094 235.070313 1653 233.039063 C 1675.414063 232.058594 1695.488281 236 1715 247.285156 C 1722.746094 251.78125 1729 259.277344 1737 263 C 1735.1875 252.328125 1731.492188 240.800781 1726.878906 231 C 1704 182.453125 1647 186.65625 1604 201.074219 C 1520.652344 229 1453.714844 290.011719 1379 334 C 1355.886719 347.59375 1331.851563 360.25 1307 370.398438 C 1289 377.730469 1268 382 1251 390.824219 C 1245.640625 393.644531 1241.898438 398.546875 1237 402 C 1238.742188 397.304688 1241.578125 393.351563 1244 389 C 1232.84375 392.761719 1225.796875 404.28125 1215 409 L 1224 387 C 1206.410156 392.605469 1189.382813 413.671875 1176 426 C 1179.992188 415.703125 1184.34375 406 1189 396 C 1173.890625 398.195313 1164.449219 414 1153 422 C 1153.679688 413.386719 1156.570313 405.410156 1158 397 C 1148.992188 401.121094 1141.613281 408.34375 1133 413 C 1135.382813 406.828125 1138.84375 400.496094 1140 394 L 1117 411 C 1119.914063 404 1124.507813 396.664063 1125 389 C 1114.414063 392.371094 1106.925781 401.578125 1097 406 C 1099.324219 399.136719 1099 392.160156 1099 385 C 1098.996094 383.304688 1099.75 377.4375 1096.683594 378 C 1092.417969 378.59375 1088.320313 385 1085.886719 388 C 1079.714844 396 1073.3125 404.144531 1065 410 L 1072 381 C 1062.828125 384.042969 1055.203125 392 1049 399 C 1047.960938 392.453125 1050.703125 386.488281 1051 380 C 1043.796875 385.074219 1038.789063 392.523438 1032 398 C 1032 393.269531 1032.347656 388.558594 1031 384 L 1030 384 C 1026.941406 388.390625 1023.179688 392.074219 1021 397 L 1020 397 C 1018.40625 391.339844 1017.585938 385.28125 1015 380 L 1014 380 C 1012.671875 382.488281 1009 394 1005.902344 394 C 1003.886719 394 1003.648438 389.300781 1003.390625 388 C 1002.175781 382 999.828125 376.160156 999 370 L 997 370 C 996.1875 376.015625 995.167969 385.554688 991 390 C 990.203125 383.703125 990.46875 377.160156 989 371 L 988 371 C 987.199219 374 983.617188 394.269531 980 392.792969 C 976.636719 391.28125 975.960938 381.207031 972 381.207031 C 968.46875 381.207031 970.359375 392.410156 966.570313 393.792969 C 962.652344 395.222656 958 386 955 384 C 954 388.683594 953 393.214844 953 398 C 947.398438 392.28125 941.898438 382.261719 934 380 C 935.488281 386.292969 937 391.445313 937 398 C 929.636719 392.535156 923.726563 384.457031 915 381 C 917.769531 389.199219 921 399.277344 921 408 C 909.480469 398.617188 901 385.546875 889 377 C 887.433594 386.261719 888.820313 397.667969 890 407 C 880 400.421875 870.296875 392.273438 859 388 C 861.605469 395.761719 864.890625 403.421875 868 411 C 860.859375 405.425781 854 397.15625 845 395 C 846.875 401.511719 850.425781 407.359375 852 414 C 843.605469 408.15625 835.253906 400.308594 826 396 C 827.910156 404.449219 831.296875 412.164063 832 421 C 820.527344 413 811 398 796 396 C 800.554688 405 806.472656 413.804688 808 424 C 795 411.648438 778.339844 393.28125 762 386 C 762.96875 393.773438 766.964844 401.390625 769 409 C 760.585938 401.71875 750.382813 391.015625 740 387 C 742.859375 392.769531 746.503906 398.007813 749 404 C 743.878906 399.765625 739.96875 394.253906 734 391.046875 C 718.210938 382.566406 698.667969 379.332031 682 372.546875 C 658.441406 363 635 351.226563 613 338.574219 C 534.523438 293.5625 464.335938 228.066406 377 200.027344 C 331 185.273438 271.695313 185.042969 253.355469 240 C 250.984375 247.101563 247.519531 256.546875 248 264 M 531 396 C 518.535156 392.410156 506.992188 384.457031 495 379.425781 C 463.3125 366.125 431.324219 353.433594 397 349 C 406.269531 344.542969 422 348.464844 432 350.078125 C 458.238281 354.375 481.917969 363.265625 505 376.578125 C 514 381.773438 524.84375 387.4375 531 396 M 1589 348 L 1589 349 C 1563.929688 355.484375 1539.566406 359.082031 1515 368.425781 C 1493.996094 376.410156 1473.363281 390 1452 396 C 1458.625 387.007813 1470.566406 380.589844 1480 374.8125 C 1513 354.570313 1550.929688 348 1589 348 M 569 437 C 506.972656 403 427.839844 378.261719 357 392 C 368.679688 381.167969 392 382 407 381 C 451.566406 377.785156 494.347656 386.636719 533 409.554688 C 544.484375 416.363281 562.199219 425.136719 569 437 M 1630 391 L 1630 392 C 1605.710938 391 1583.539063 387.707031 1559 390.167969 C 1507.566406 395.332031 1461.867188 417.488281 1415 437 C 1423.339844 425.191406 1438.890625 416.535156 1451 409 C 1502.59375 376.640625 1573 371.730469 1630 391 M 1245 387 L 1246 388 L 1245 387 M 611 490 C 593.519531 482.457031 577.34375 471 560 462.78125 C 503.628906 436.152344 435.421875 411 372 419 C 376.953125 415.0625 384.847656 414.644531 391 414 C 404.324219 412.449219 417.578125 411 431 411 C 483.484375 411 529 426.703125 572 456.71875 C 584.550781 465.503906 603.566406 476.285156 611 490 M 1609 417 L 1609 418 C 1546.988281 418 1487.1875 434.507813 1431 460.308594 C 1411.4375 469.289063 1393.695313 482.757813 1374 491 C 1381.792969 477.164063 1400.550781 466.460938 1413 457 C 1458.613281 422.335938 1513.214844 408.019531 1570 412 C 1582.980469 412.800781 1596.488281 413.03125 1609 417 M 611 523 C 603.386719 520.574219 596.855469 514.667969 590 510.601563 C 577 503 563.785156 495.519531 550 489.304688 C 500.6875 467.078125 446.289063 451 392 451 C 396.753906 447.203125 403 447 409 446 C 423.875 443.480469 440 442.382813 455 443.828125 C 503.699219 448.542969 546.503906 464.578125 584 496.730469 C 593.320313 504.722656 603.894531 513 611 523 M 1594 449 L 1594 451 C 1540.25 451 1485.871094 467.097656 1437 489 C 1424.261719 494.535156 1411.851563 501.082031 1400 508.425781 C 1393 512.664063 1385.972656 519.414063 1378 521 C 1385.53125 510.3125 1397 501.121094 1407 492.753906 C 1450 456.695313 1503.335938 441.601563 1559 444.039063 C 1570.832031 444.558594 1582.304688 447.488281 1594 449 M 709 456 C 745.773438 522.3125 780.992188 594.027344 781 672 L 780 672 C 772.355469 652.03125 768.429688 630.539063 762.574219 610 C 753.207031 577.148438 742.640625 545 730.574219 513 C 725.484375 499.519531 719.484375 486.320313 713.988281 473 C 711.960938 468.078125 707.421875 461.355469 709 456 M 1277 460 C 1270.464844 480.050781 1260.617188 499.203125 1253.226563 519 C 1239.792969 555 1228.539063 592 1218.714844 629 C 1215 643 1209 657 1207 671 L 1205 671 C 1207.441406 614.320313 1225 555.300781 1250.890625 505 C 1257.828125 491.488281 1264.925781 469.476563 1277 460 M 674 465 L 675 466 L 674 465 M 578 533 C 569 530 561.507813 524 553 520 C 533.28125 510.554688 512.890625 503.011719 492 496.71875 C 465.777344 488.820313 437.414063 483.6875 410 483.015625 C 393.800781 482.617188 378 485.667969 362 486 C 375.980469 474.460938 403.660156 473.410156 421 473 C 466.992188 472 507.28125 480.570313 546 506.671875 C 556.765625 514 570.429688 522.339844 578 533 M 1625 486 L 1625 487 C 1567.589844 479.738281 1513.535156 488.199219 1459 507.691406 C 1442 513.738281 1427 526.097656 1410 531 C 1416.441406 522.574219 1426.523438 516 1435 509.628906 C 1472.226563 482 1515.316406 472 1561 473 C 1581.902344 473.496094 1606.195313 476.09375 1625 486 M 730 717 C 719.761719 672.742188 694.972656 632 670.945313 594 C 662.464844 580.609375 651 568.164063 644 554 C 658.179688 561.355469 670.300781 578.691406 680.195313 591 C 707.980469 625.5625 727.855469 663.402344 747.246094 703 C 755.71875 720.308594 768.578125 741.277344 769 761 L 768 761 C 765 756.023438 761.714844 751.355469 758 747 C 759.46875 761.640625 770.320313 774.148438 771 789 L 770 789 C 767.171875 783 763 777.394531 761 771 L 760 771 C 762.914063 790.734375 777.265625 808.121094 779 828 C 773.355469 824.734375 769.285156 819.722656 764 816 C 767.667969 824.71875 775.175781 831.40625 779 840 C 772 837.328125 766.253906 831.675781 760 827.695313 C 742.445313 816.515625 723 804 702 801 L 702 802 C 709.453125 805.0625 717.175781 808.3125 722 815 C 703.375 813.480469 684.617188 808.367188 666 806 C 672.28125 812.804688 684.265625 815.015625 689 823 C 665.824219 818.203125 643.953125 808.65625 621 803 L 621 804 C 630.460938 808 644.253906 812.132813 651 820 C 630.871094 819.136719 609.867188 817.265625 590 822 L 590 823 C 601.210938 825.699219 611.945313 828.347656 623 831.808594 C 627.503906 833.21875 633.222656 834 636 838 C 609.359375 838 582.65625 840 556 840 L 556 842 C 568.601563 843 580.675781 847.457031 593 850 L 593 851 C 568.730469 854.066406 544.183594 853.492188 520 858 L 520 859 C 538 859.148438 555.253906 864.390625 573 867 L 573 869 C 548.304688 869 523.652344 871 499 871 L 499 873 C 510.257813 873.492188 524.21875 877.441406 534 883 L 534 884 C 518.382813 882.027344 494.53125 880.007813 480 887 C 498.765625 892 516.34375 896.730469 534 905 L 534 906 C 509.871094 906 482.671875 897.363281 459 903 C 470 908 487 910.652344 494 922 C 456.957031 922 419.910156 924 383 924 L 383 923 C 393 916.363281 404.492188 914 416 911 L 416 910 C 399.492188 910.011719 384.230469 916.707031 368 918 C 373 911.382813 381.644531 911 387 905 C 382.886719 905 379 905 375 904 C 381.441406 897.003906 392 900 400 896 C 392.867188 894.15625 385.292969 893 378 892 C 385 880.359375 411 880 423 880 C 413.496094 872.675781 400.25 873.355469 391 867 C 401.832031 861.5625 421.761719 860.257813 433 865 C 425.304688 855.191406 407.433594 855.230469 401 846 C 414.996094 845 428.933594 845 443 845 L 443 844 C 435.691406 841.339844 417.265625 835.113281 413 829 C 438 824.289063 464.566406 822 490 822 L 490 821 C 472.957031 814.007813 454.734375 809.105469 438 802 L 438 801 C 468 801 497.929688 805 528 805 L 528 804 C 512.578125 799 497.644531 793 483 786.027344 C 477.71875 783.519531 471 782.277344 467 778 C 498.496094 778 529.667969 780.527344 561 783 C 556.378906 778.371094 548.847656 776 543 773.035156 C 526.484375 764.777344 508.769531 760.214844 492 753 L 492 752 C 527 752.097656 561.921875 764.277344 597 765 L 597 764 C 579.457031 756.695313 563.324219 747.453125 545 742 C 488.828125 724.808594 432.984375 723.519531 375 724 L 375 723 C 464.816406 699 554 720 638 755 C 623.863281 738.789063 603.796875 726 586 714 C 537.675781 681.78125 483.488281 659.601563 425 657.039063 C 401.578125 656.015625 379.988281 660.03125 357 663 L 357 662 C 377.449219 654.066406 398 648.261719 420 646.171875 C 508 637.757813 580.429688 691.789063 652 734.453125 C 663.785156 741.476563 674.859375 750.804688 687 757 C 664.726563 709.351563 622 676.074219 579 648.308594 C 542 624.566406 502.566406 603.378906 459 595.261719 C 435.191406 590.824219 411.921875 593 388 593 L 388 592 C 420.179688 585.359375 453.222656 580.140625 486 586.261719 C 532.890625 595.011719 573.929688 622.363281 612 649.578125 C 643.613281 672.175781 675.464844 695.464844 703 723 C 701 714.5 693.933594 706.28125 689.214844 699 C 674.375 676.101563 655.238281 655.238281 636 636 C 578 578.144531 511.796875 528.144531 428 520.171875 C 405.3125 518.011719 385.878906 525.089844 364 527 C 371.898438 519.605469 383.945313 517.097656 394 514 C 426 504.027344 458.78125 504.148438 491 513.289063 C 528.878906 524.039063 559.519531 545.167969 590 569.550781 C 643.210938 612.117188 686.84375 665 730 717 M 1619 526 L 1619 527 C 1593.789063 524.488281 1571.96875 518.054688 1546 521.285156 C 1461.929688 531.746094 1394 586 1338.828125 647 C 1318 670 1295.300781 693.546875 1282 722 C 1306.976563 697.023438 1335.445313 675.578125 1364 655 C 1404.890625 625.164063 1447.371094 596 1498 586.460938 C 1530.980469 580.28125 1564.757813 584.539063 1597 592 L 1597 593 C 1566.980469 593 1538.632813 591.652344 1509 598.652344 C 1475.78125 606.503906 1444.882813 622.492188 1416 640.1875 C 1380.253906 662.089844 1345.300781 687.511719 1319.5 721 C 1311 731.828125 1306 744.410156 1299 756 C 1364.257813 718.457031 1423.222656 666 1499 650.285156 C 1523.234375 645.292969 1547.53125 645.214844 1572 648 C 1590.710938 650 1609.761719 654.292969 1627 662 L 1627 663 C 1604.367188 661.199219 1583 656.03125 1560 657.039063 C 1500.304688 659.652344 1445.308594 681.125 1396 714 C 1378 726 1358.179688 739.777344 1344 756 C 1424.195313 722.605469 1519.597656 693.511719 1606 723 L 1606 724 C 1549.289063 724 1494 724.058594 1439 741 C 1422.414063 746.074219 1397 753 1385 766 C 1406.601563 761.0625 1428.988281 759.226563 1451 757 C 1463.695313 755.453125 1476.179688 752.007813 1489 752 L 1489 753 C 1468.433594 761.140625 1439 767 1423 783 C 1452.769531 779.238281 1482.996094 778 1513 778 C 1510 783 1502 785 1497 787.230469 C 1482.566406 794 1467.792969 799.292969 1453 805 L 1453 806 C 1482.929688 802.21875 1513.824219 801 1544 801 C 1541 805.171875 1533.703125 805.445313 1529 807 C 1516.773438 811.039063 1505.410156 817.613281 1493 821 L 1493 822 C 1512 822 1530.949219 824.554688 1550 826.085938 C 1552.324219 826.273438 1566.792969 827.027344 1566.792969 830.015625 C 1566.792969 832.054688 1561.433594 833.566406 1560 834.234375 C 1552.933594 837.515625 1545 840.085938 1539 845 L 1582 846 C 1577.238281 853 1557.941406 860.242188 1550 864 L 1550 865 C 1563.875 864 1580.203125 860 1593 868 C 1582.648438 872 1571 873.058594 1562 880 C 1575.359375 880 1597.566406 881.191406 1607 892 C 1599.632813 892.316406 1591 893.296875 1584 895 C 1592.851563 899.261719 1603.90625 896.746094 1611 905 C 1604.601563 904.492188 1598.453125 903.019531 1592 903 L 1592 904 C 1601.226563 906.65625 1613.824219 912.546875 1620 920 C 1602.832031 918.289063 1586.582031 910.144531 1569 910 L 1569 912 C 1579.230469 912.238281 1594.21875 917.089844 1601 925 C 1563.675781 923.398438 1526.515625 920.039063 1489 923 C 1496.421875 909.824219 1515.984375 910.71875 1526 902 C 1499.855469 901.460938 1474.238281 906 1448 906 L 1448 905 C 1465.875 896.628906 1484.582031 889.765625 1504 886 L 1504 885 C 1486.226563 883.597656 1468.871094 883 1451 883 L 1451 882 C 1461 876.714844 1472 874.679688 1483 872 L 1483 871 C 1457.472656 869 1432.523438 869 1407 869 L 1407 868 C 1423 862 1441.890625 859.003906 1459 859 L 1459 857 C 1436.785156 856.046875 1414.199219 852.753906 1392 851 L 1392 850 C 1403.796875 847.296875 1414.792969 843 1427 842 L 1427 840 C 1400.578125 840 1374.464844 836 1348 838 C 1350.804688 833.757813 1356.4375 833 1361 831.191406 C 1372 827 1382.363281 824.257813 1394 822 L 1394 821 C 1374.203125 818.496094 1353.789063 816.324219 1334 820 C 1338.304688 812 1354.792969 807.414063 1363 804 L 1363 803 C 1340.339844 806 1319.953125 821 1297 822 L 1297 821 C 1304 816.222656 1313 812.050781 1319 806 C 1300.847656 808.304688 1283 812.347656 1265 815 C 1268.464844 808.574219 1278.222656 804.144531 1285 802 L 1285 801 C 1253.503906 803.574219 1233.59375 828.671875 1207 841 C 1209 832.253906 1216.222656 826 1220 818 C 1215.617188 821.339844 1211.910156 825.453125 1207 828 C 1207.984375 808.800781 1222 789.167969 1226 770 L 1225 770 C 1223.21875 776.1875 1219.882813 783.75 1215 788 C 1216.988281 774.53125 1223.78125 761 1228 748 C 1224.585938 752.015625 1222.167969 756.738281 1218 760 C 1218.359375 743.171875 1228.878906 725.117188 1235.695313 710 C 1253.761719 670 1275.796875 632 1302.652344 597 C 1313 583.421875 1327.21875 561.359375 1343 554 C 1335.277344 569.128906 1323 582.632813 1313.859375 597 C 1290.382813 633.769531 1267.347656 673.554688 1256 716 C 1271.328125 697.484375 1285 678.398438 1302 661 C 1370.335938 591 1438.648438 507 1545 507 C 1569.3125 507 1598 513 1619 526 M 1377 522 L 1376 523 L 1377 522 M 875 527 C 882.289063 549.414063 887.917969 572.417969 894.71875 595 C 906 632.589844 918 669.699219 921.828125 709 C 923.722656 728.476563 922 747.5625 922 767 L 923 767 C 931 738.390625 936 710.792969 936 681 L 937 681 C 939.992188 718.605469 944.796875 753.039063 940 791 L 941 791 C 946.585938 771.457031 953.660156 753.339844 956.570313 733 C 959.929688 709.5625 958 686.472656 958 663 L 959 663 C 976.726563 711.550781 958.179688 766.363281 952 815 L 953 815 C 956.617188 799.035156 963.527344 783 968 767 L 969 767 C 970.277344 796.777344 973 826.074219 973 856 L 974 856 C 975.613281 844.03125 979.171875 831.738281 982 820 L 983 820 C 990 849.191406 990.640625 882.101563 993 912 L 994 912 C 997.722656 882.535156 1002 852.71875 1002 823 L 1004 823 C 1004.25 835.074219 1010.953125 846.023438 1012 858 L 1013 858 C 1013 827.574219 1016 797.351563 1016 767 L 1017 767 C 1022.222656 783.328125 1027.414063 799.179688 1034 815 L 1035 815 C 1024.292969 768.179688 1015.765625 713.292969 1028 666 L 1029 666 C 1029 706.4375 1028.46875 751.515625 1046 789 C 1048.25 752.105469 1039.804688 711.023438 1052 675 L 1053 675 C 1053 703 1056.789063 730.03125 1064 757 L 1065 757 C 1064.839844 737.722656 1063.886719 719.289063 1066.285156 700 C 1071 660.769531 1084.363281 624.507813 1095.972656 587 C 1101.535156 569.027344 1104.570313 549.261719 1112 532 L 1113 532 C 1110.664063 586.332031 1084 638 1084 692 L 1085 692 C 1092.578125 653 1107.6875 616 1122.203125 579 C 1127.503906 565.503906 1135 552 1139 538 L 1140 538 C 1139.332031 553.339844 1132.613281 569 1129.511719 584 C 1125.167969 605.070313 1122.179688 628.460938 1122 650 L 1123 650 C 1130.671875 621.074219 1140.671875 593.253906 1153 566 L 1154 566 C 1149.527344 599.226563 1140 631.058594 1140 665 L 1141 665 C 1145.988281 646.199219 1153 628 1163 611 L 1164 611 C 1158 641.25 1151.324219 672.152344 1150 703 L 1151 703 C 1158 684.785156 1164 666 1174 649 L 1175 649 C 1172.617188 666.703125 1167.601563 684.375 1164.425781 702 C 1161.457031 718.449219 1159.855469 736.023438 1155 752 C 1165.449219 742.449219 1167 720 1172 707 L 1173 707 C 1172.40625 735.832031 1162.789063 764.023438 1157 792 C 1162.503906 785 1166.503906 775.632813 1169 767 L 1170 767 C 1170 809.015625 1162 852.167969 1146 891 C 1155.390625 882.328125 1157.542969 863.519531 1168 857 C 1164.21875 875.328125 1156 891 1149 908 C 1158.34375 898 1165.9375 885.460938 1177 877 C 1174.609375 891 1164.460938 903.574219 1158.246094 916 C 1148.929688 934.632813 1142 954.710938 1137.5 975 C 1130 1007.171875 1126.480469 1041.09375 1125 1074 C 1124.449219 1087.460938 1122.78125 1100.628906 1121 1114 C 1120.382813 1120.359375 1119.777344 1128.699219 1116 1134 C 1090.949219 1087.015625 1084.964844 1033 1096.425781 981 C 1103.78125 947.691406 1117.367188 916.019531 1126 883 C 1117.785156 890.507813 1112.726563 906.199219 1107 916 L 1106 916 C 1106 902.132813 1110.230469 887.28125 1114 874 C 1103 884.507813 1099.214844 901.710938 1093 915 L 1092 915 C 1092 906 1093.285156 897.074219 1094 888 C 1089.503906 893 1088 900.65625 1086.289063 907 C 1081.789063 922.683594 1079 939.667969 1079 956 C 1071.960938 951.453125 1074 934.472656 1074 927 L 1073 927 C 1065.605469 950.277344 1067 976 1067 1000 C 1063.488281 997.363281 1062.644531 992.078125 1061.34375 988 C 1057.628906 976.355469 1055.957031 965.113281 1055 953 L 1054 953 C 1047.304688 980.789063 1051.171875 1010 1062 1036 C 1051.347656 1031.03125 1044.292969 1017.449219 1040 1007 L 1039 1007 C 1039.992188 1054.8125 1086.882813 1090 1091 1137 C 1080.183594 1129.378906 1069.257813 1112 1054 1114 C 1062 1118.273438 1069.316406 1124.679688 1071 1134 C 1061.296875 1131.636719 1052.617188 1134.214844 1043 1135 L 1043 1137 C 1058 1137.324219 1075.871094 1149.003906 1078 1165 C 1065.515625 1157.484375 1051.734375 1151.570313 1039 1162 C 1045.59375 1162 1052.304688 1162 1057.957031 1166 C 1059.738281 1167.121094 1063.621094 1170.496094 1061.863281 1173.0625 C 1059.917969 1176 1052 1175.257813 1049 1176 L 1049 1177 C 1058.65625 1179.527344 1070 1185.636719 1073 1196 C 1060.886719 1192.511719 1050.789063 1187.339844 1038 1192 C 1053.441406 1200.140625 1071.570313 1208.554688 1077 1227 C 1062.75 1222.816406 1048.867188 1214.207031 1034 1222 C 1046.285156 1225 1056.277344 1230.125 1061 1243 C 1050.527344 1241.671875 1041.3125 1240.164063 1031 1243.800781 C 1017.460938 1248.570313 1006.992188 1259.183594 992 1259.546875 C 979 1260 970.957031 1251.316406 960 1246.4375 C 948.398438 1241.277344 937.332031 1241.433594 925 1243 C 927.339844 1235.660156 933 1228.324219 940 1225 C 942.378906 1223.648438 949.507813 1223.824219 950.792969 1221.625 C 952.570313 1218.582031 941.21875 1219 940 1219 C 928.503906 1219 919 1222.699219 909 1228 C 912.546875 1208.339844 933.535156 1199.484375 949 1192 C 934.429688 1188.410156 925.742188 1193.550781 912 1196 C 916.507813 1188 926.609375 1179 936 1178 C 931.679688 1174.242188 927 1176.109375 922 1175 C 928.515625 1164.648438 938.375 1165.632813 948 1161 C 932.792969 1154.804688 921 1158.632813 907 1166 C 909 1156 919.1875 1146 928 1141.328125 C 930.195313 1140.175781 940.710938 1138.789063 941.367188 1136.703125 C 942 1134.671875 936 1134.101563 935 1134 C 927.960938 1132.71875 921 1132.695313 914 1134 C 917.605469 1124.492188 925.902344 1120.382813 932 1113 C 915.5 1116.820313 907.433594 1128 895 1138 C 903 1091.320313 946 1052.6875 947 1005 L 946 1005 C 943.351563 1015.597656 935 1031.078125 925 1036 C 933.972656 1004.554688 935 980.378906 931 948 L 930 948 C 930 968.359375 924.34375 985 918 1004 L 917 1004 C 917 977.683594 917.847656 953.160156 914 927 L 913 927 C 911.832031 936.25 910.738281 945.71875 910 955 L 908 955 C 907.503906 931 900.210938 909.710938 894 887 L 893 887 L 894 914 L 893 914 C 887.875 901.6875 881.519531 881.464844 871 873 C 875 886 879.414063 900.390625 880 914 C 872.199219 907.539063 864.476563 893.496094 861 884 L 860 884 C 866.230469 911 879 936.246094 886 963 C 901.753906 1022.195313 897.988281 1078.441406 872 1134 L 871 1134 C 863.609375 1116.820313 863.65625 1097.269531 861.832031 1079 C 858.859375 1049.292969 856.890625 1019.460938 851.574219 990 C 847.328125 966.449219 840.75 943.738281 830.691406 922 C 824.9375 909.570313 815 898.015625 811 885 C 821.632813 890 828.988281 900.816406 837 909 C 830.824219 895.410156 822.402344 882.710938 819 868 C 828 873.449219 832.167969 885.046875 840 892 C 835.621094 876.789063 827.746094 861.816406 822 847 C 827 850.089844 829.273438 856.46875 833 861 C 823.523438 832 816 801.796875 816 771 L 817 771 C 821.203125 779 823.941406 787.25 830 794 C 822.304688 765.210938 813 734.023438 813 704 L 814 704 C 818 722 825 738.691406 831 756 L 832 756 C 830.367188 718.5625 814.230469 682.046875 811 645 L 812 645 C 818.699219 657.785156 824 671.480469 829 685 C 831.578125 691.78125 833 700.644531 838 706 C 836.574219 672.78125 826.800781 641.503906 822 609 C 827 612.128906 829 618.753906 831.472656 624 C 837 636.183594 844.816406 649.410156 846 663 L 847 663 C 848.914063 654.195313 846 643 845.167969 634 C 842.628906 608.597656 836 585 831 560 C 837 565.492188 839.519531 575.566406 842.71875 583 C 851.785156 604.074219 858.835938 626.671875 864 649 L 865 649 C 864.984375 627.023438 862.929688 603.527344 858.339844 582 C 855.246094 567.492188 849.289063 552.777344 848 538 L 849 538 C 869.523438 588.023438 888.253906 638.027344 903 690 L 904 690 C 899 650.628906 888.414063 613 880.601563 574 C 878.472656 563.421875 877 552.679688 875.578125 542 C 874.925781 537.449219 873.316406 531.308594 875 527 M 522 563 L 522 564 C 514.488281 563 507.476563 559.515625 500 558.09375 C 482 554.679688 463.261719 553.191406 445 553.003906 C 423.507813 552.78125 403 558.160156 382 561 C 389 554 402.585938 551.699219 412 549 C 449.753906 538.179688 488.464844 542.476563 522 563 M 1604 561 L 1604 562 C 1556 546.796875 1508.71875 556 1461 564 C 1467.660156 556.230469 1481.480469 552.175781 1491 549 C 1525.738281 537.410156 1572.222656 542.457031 1604 561 M 691 902.300781 C 738 895.519531 749.765625 967.433594 702 973.710938 C 655.875 979.773438 643.675781 909.121094 691 902.300781 M 1278 902.324219 C 1323 894.808594 1340 964.097656 1294 972.828125 C 1279.65625 975.542969 1264.761719 972 1255.390625 960 C 1238.851563 939.003906 1251.542969 906.742188 1278 902.324219 M 837 909 L 838 910 L 837 909 M 587.667969 967.667969 C 587.722656 967.722656 587.777344 968.777344 587.332031 968.332031 C 587.277344 968.277344 587.222656 967.222656 587.667969 967.667969 M 593 967 C 593 994.066406 594.859375 1019.300781 609.460938 1043 C 638.394531 1090 704.578125 1107.429688 750 1073.101563 C 771.882813 1056.5625 786.542969 1033.769531 792.339844 1007 C 794.449219 997.246094 793.21875 986.410156 796 977 C 798.480469 977.574219 799.652344 977.058594 802 976 L 803 980 L 808 976 C 815.191406 994.164063 814.742188 1015.359375 809.421875 1034 C 789 1105.347656 701.476563 1137 637 1104.730469 C 592.9375 1082.699219 555 1021 580 972 L 581 972 C 583.238281 975.828125 584.445313 973.289063 585 970 C 587.566406 971 588.53125 971.695313 590 974 L 591 974 C 591.234375 971.308594 591.605469 969.3125 593 967 M 1401 973 L 1403 969 C 1408.171875 976 1409.207031 985.726563 1410.28125 994 C 1414.699219 1028.011719 1399.898438 1060.558594 1376 1084 C 1331.722656 1127.433594 1256.582031 1127.628906 1210 1087.699219 C 1188.234375 1069.042969 1172 1041.324219 1172 1012 C 1171.988281 1004.429688 1169.53125 982.269531 1178.222656 978.3125 C 1182.332031 976.445313 1186 980.636719 1190 981 C 1190.246094 1011 1200.53125 1041.460938 1222 1063 C 1262.855469 1103.765625 1329 1097.710938 1365.699219 1055 C 1386.621094 1030.589844 1391 1002 1391 971 L 1393 971 L 1393 975 L 1395 975 C 1395.269531 972.3125 1395.816406 970.429688 1397 968 C 1398.914063 969.605469 1399.835938 970.78125 1401 973 M 1563 1137 L 1563 1138 L 1560 1138 C 1561.246094 1137.316406 1561.546875 1137.25 1563 1137 M 1063 1275 C 1053.210938 1272.734375 1044.261719 1269.144531 1034 1270.171875 C 1020.273438 1271.542969 1007.964844 1279 994 1279 C 977.425781 1279.078125 963.269531 1271.738281 947 1270.171875 C 938.507813 1269.351563 931 1272.613281 923 1274 C 927.425781 1265.289063 939.777344 1261.746094 949 1262.042969 C 962.21875 1262.464844 973 1271.371094 986 1272 C 1006.894531 1273 1049.339844 1246.335938 1063 1275 M 775 1271 C 771.289063 1268.414063 766.289063 1270.046875 762 1270.753906 C 751.886719 1272.421875 730.601563 1279.726563 729.832031 1292.683594 C 729.546875 1297.480469 747 1298 749.894531 1294.683594 C 758 1285.113281 763.8125 1277.597656 775 1271 M 1210 1270 C 1215.449219 1275 1221.722656 1278.195313 1226.699219 1284 C 1229.980469 1287.828125 1233.328125 1295.484375 1238.183594 1297.382813 C 1241 1298.488281 1254.339844 1296.515625 1255.554688 1293.398438 C 1257 1289.496094 1249.507813 1283.480469 1247 1281.527344 C 1236 1273.085938 1223.5 1270.003906 1210 1270 M 820 1303.65625 C 806.539063 1307.769531 812.257813 1329.515625 825.996094 1325.34375 C 840.359375 1321 834 1299.382813 820 1303.65625 M 1159 1303.574219 C 1145.332031 1306.257813 1149.375 1327.519531 1163 1325.511719 C 1178.183594 1323.273438 1173.445313 1300.738281 1159 1303.574219 M 447 1331.332031 C 447.773438 1331.332031 447 1331.832031 446.667969 1331.667969 L 447 1331.332031 M 425 1347 C 443.492188 1351.402344 468.746094 1348.75 485.625 1358.550781 C 488 1360 485.726563 1362.578125 487.617188 1364.0625 C 491.8125 1367.359375 504.316406 1362.730469 503 1371 C 524.683594 1371.015625 559.539063 1380 569 1402 C 562 1400.140625 555.167969 1398 548 1397 C 558.363281 1407.6875 572.464844 1414.484375 582.828125 1426 C 607.953125 1454 619 1493.117188 619 1530 C 619 1543.707031 618.304688 1572 605 1580 C 604.972656 1569.800781 602.566406 1560 596 1552 C 596 1569 593.496094 1587.207031 584.648438 1602 C 583 1604.558594 570.960938 1618.132813 567.691406 1611.394531 C 566.296875 1608.515625 568.167969 1602.09375 568.574219 1599 C 569.625 1591.050781 570.183594 1583.023438 569.984375 1575 C 569.175781 1542 567.539063 1499.515625 545 1473 C 550.363281 1499 550.703125 1525.089844 544 1551 L 543 1551 C 539.585938 1539 536.441406 1526.449219 529 1516 C 527.46875 1544.214844 530.941406 1570.390625 521 1598 C 517.691406 1607.375 513.625 1619.472656 504 1624 C 503.835938 1616 501.453125 1608.542969 499 1601 L 498 1601 C 494.875 1613.691406 494 1627.683594 482.984375 1636.609375 C 480.3125 1638.761719 473 1643.46875 469.605469 1641 C 466.273438 1638.535156 469.246094 1630.265625 469.726563 1627 C 471.644531 1614 472 1601.125 472 1588 C 472 1556 471.546875 1522.101563 462.277344 1491 C 457.894531 1476.28125 450.480469 1463.703125 444 1450 L 443 1450 C 445.75 1466.183594 450.230469 1481.351563 450.960938 1498 C 451.78125 1516.699219 447.457031 1533.769531 445 1552 L 443 1552 C 442.769531 1541 438 1524 430 1516 C 437.449219 1547.289063 427.753906 1591.226563 415 1620 C 411.464844 1614.824219 412 1604.261719 412 1598 L 411 1598 C 406.660156 1616.222656 404.488281 1634.195313 395.203125 1651 C 392.535156 1656 386.539063 1665.320313 380 1665.148438 C 374 1665 371.53125 1654.488281 370.296875 1650 C 365.234375 1631.660156 369.261719 1614 373 1596 C 351.78125 1613.121094 350 1639 350 1664 C 337.714844 1653.46875 338.445313 1631.535156 339.828125 1617 C 343.25 1581.09375 351.453125 1545.035156 353 1509 L 352 1509 C 347.652344 1527.347656 340 1545 334.707031 1563 C 332.886719 1569.152344 331.476563 1580.253906 326 1584 L 327 1493 C 319.207031 1501.210938 316.785156 1520.167969 313.710938 1531 C 303.496094 1567 295 1606.511719 295 1644 C 275.800781 1634.558594 281 1599.808594 277 1583 C 263.820313 1599.273438 265 1618.304688 265 1638 C 255.480469 1630.132813 253 1616.628906 251.835938 1605 C 248.890625 1577.515625 254.753906 1553.359375 261 1527 C 253.761719 1535.742188 248.597656 1546.199219 243 1556 L 242 1556 C 242 1533.667969 244.496094 1510.726563 253 1490 C 243.582031 1494.390625 238.914063 1505.242188 230 1510 C 230.203125 1485.382813 239.863281 1460.738281 248 1438 C 234.578125 1449.730469 224.75 1468.742188 217.988281 1485 C 203.949219 1518.769531 193 1557.179688 193 1594 C 182.28125 1588.523438 177.65625 1570.78125 174.578125 1560 C 167.730469 1536.007813 165 1508.761719 168.289063 1484 C 169.386719 1475.550781 173.253906 1468.15625 175 1460 L 174 1460 C 166.414063 1475.25 154.863281 1487.472656 149.355469 1504 C 143.675781 1521.039063 145.632813 1538.238281 142 1555 C 134.960938 1545.6875 134.386719 1530.113281 135.714844 1519 C 139.199219 1490 152.585938 1470.324219 169 1447 C 161 1451.589844 152.871094 1455.441406 145 1460.011719 C 143 1461.089844 138 1465.128906 135.816406 1463.632813 C 133.839844 1462.347656 136.957031 1458.183594 137.695313 1457 C 141.511719 1451 145.671875 1445 149.667969 1439 C 166.382813 1414 183.648438 1387.289063 212 1374.308594 C 222.945313 1369.296875 234.976563 1366.566406 247 1366.039063 C 249.734375 1366 257 1364.785156 258.785156 1367.601563 C 261.839844 1372.738281 251.34375 1390.054688 249 1395 C 256 1390 260 1380.375 266 1374 C 284.429688 1354.46875 305.875 1338.304688 333 1334.222656 C 340.507813 1333.09375 352.5 1330.75 359.890625 1332.554688 C 362.570313 1333.210938 360.878906 1337.003906 363.667969 1337.167969 C 376.609375 1338 389.648438 1334.753906 403 1336.082031 C 407.394531 1336.519531 432.34375 1342.078125 425 1347 M 1733 1394 L 1734 1394 C 1732.503906 1387.75 1721.664063 1374.480469 1723.734375 1368.515625 C 1724.953125 1365 1732.210938 1366 1735 1366 C 1747 1366.054688 1759 1369 1770 1373.785156 C 1798 1386.078125 1815.886719 1412.386719 1832.332031 1437 C 1838.183594 1445.757813 1847 1455.402344 1849 1466 C 1836.867188 1460.269531 1826 1451.714844 1814 1446 C 1833.273438 1471.109375 1851.300781 1497.554688 1848.171875 1531 C 1847.390625 1539.339844 1847.652344 1550 1841 1556 C 1841.273438 1523 1835.871094 1484.484375 1809 1461 C 1821.265625 1492.617188 1818 1527 1809.476563 1559 C 1806.585938 1569.792969 1801.660156 1588.550781 1791 1594 C 1791 1554.242188 1779.207031 1510.339844 1761.242188 1475 C 1754.890625 1462.5 1746.554688 1446.316406 1735 1438 C 1745.941406 1459 1752.980469 1485.3125 1754 1509 C 1745.648438 1504.542969 1739.773438 1495.476563 1732 1490 C 1738.335938 1512.214844 1741 1532 1741 1555 L 1740 1555 C 1735.878906 1546.34375 1731.230469 1537.328125 1725 1530 C 1729.394531 1556 1736 1580.375 1733 1607 C 1731.980469 1618.078125 1729.300781 1631.816406 1720 1639 C 1720.777344 1621 1722.558594 1596.339844 1707 1583 C 1707 1599 1706.429688 1615.058594 1700.394531 1630 C 1698 1635.683594 1695.671875 1642.101563 1690 1645 C 1690 1607.058594 1679.730469 1567.527344 1669.847656 1531 C 1666.359375 1518.101563 1660.253906 1505.097656 1658 1492 L 1657 1492 L 1658 1584 L 1657 1584 C 1650 1558.660156 1639.316406 1534.289063 1632 1509 L 1631 1509 C 1631.742188 1545.042969 1641.757813 1581.164063 1645.171875 1617 C 1646.519531 1631.171875 1646.90625 1653.792969 1635 1664 C 1635 1638.691406 1634 1613.230469 1611 1597 C 1617.226563 1613.160156 1619.246094 1632.011719 1615.347656 1649 C 1614.257813 1653.761719 1612.234375 1664.8125 1605.957031 1665.289063 C 1598.859375 1665.824219 1592.898438 1656.0625 1589.8125 1651 C 1579.933594 1634.789063 1574.8125 1615 1574 1596 L 1573 1596 C 1572.359375 1604.125 1571.882813 1613.097656 1570 1621 L 1569 1621 C 1566.414063 1609.832031 1561.625 1599.269531 1559.285156 1588 C 1554.28125 1564 1553.953125 1540.410156 1555 1516 L 1554 1516 C 1549 1528.054688 1543.660156 1539 1542 1552 L 1540 1552 C 1537 1529.203125 1532.960938 1507.230469 1535.171875 1484 C 1536.40625 1471.015625 1540 1459.546875 1543 1447 L 1542 1447 C 1536.210938 1459.238281 1528.542969 1470.023438 1524 1483 C 1513.898438 1512.578125 1511 1546 1511 1577 C 1511 1593 1512 1608.285156 1513.949219 1624 C 1514.40625 1628 1518 1637 1514.972656 1640.308594 C 1511.453125 1644.277344 1502.824219 1638.296875 1500.378906 1635.699219 C 1492 1627 1487.9375 1612.773438 1487 1601 C 1481.492188 1607.304688 1481.878906 1617.207031 1480 1625 C 1470.761719 1618.179688 1465.398438 1605.628906 1461.839844 1595 C 1453 1568.707031 1452.855469 1542.171875 1455 1515 L 1454 1515 C 1448.441406 1527.289063 1442 1538.28125 1441 1552 L 1440 1552 C 1428.855469 1529.234375 1431 1495.28125 1439 1472 C 1413.59375 1500.234375 1414 1543.390625 1414 1579 C 1414 1585.46875 1420.835938 1614.582031 1410.996094 1611.757813 C 1396.609375 1607.625 1391.589844 1585.804688 1389.589844 1573 C 1389.210938 1570.578125 1389.472656 1555.214844 1387.410156 1554.632813 C 1385.234375 1554.015625 1383.597656 1558.65625 1383 1560 C 1380 1566.613281 1379 1573 1379 1580 C 1365.640625 1572.472656 1364 1542.566406 1364 1529 C 1363.941406 1493.261719 1375.832031 1454.417969 1399.300781 1427 C 1409.617188 1415 1422 1407.09375 1434 1397 C 1427.355469 1398.289063 1420.746094 1400.449219 1414 1401 C 1424 1379.230469 1457 1371.058594 1479 1371 C 1478 1369.484375 1477.613281 1368.660156 1477 1367 C 1482.554688 1366.410156 1491.777344 1366.679688 1496.707031 1364.4375 C 1499.722656 1363.0625 1496.964844 1359.625 1501 1358.160156 C 1519.679688 1351.496094 1541.296875 1348 1561 1348 C 1554.269531 1341.535156 1562 1340.710938 1569 1339 C 1579.691406 1336.03125 1590.9375 1334.742188 1602 1335.015625 C 1618.636719 1335.421875 1633 1332.179688 1650 1334.285156 C 1681.6875 1338.230469 1719.820313 1364.421875 1733 1394 M 840 1353.027344 C 828 1359.429688 837.820313 1378.261719 849.957031 1371.820313 C 862.46875 1365.183594 852.597656 1346.34375 840 1353.027344 M 1135 1353.027344 C 1122 1359.78125 1133 1378.710938 1145.824219 1371.542969 C 1158 1364.667969 1146.960938 1346.820313 1135 1353.027344 M 781 1354.027344 C 772 1359 779.269531 1377.324219 788.960938 1372.175781 C 801.679688 1365.421875 793.722656 1347.09375 781 1354.027344 M 1199 1375 C 1201.207031 1372.585938 1204.199219 1370.648438 1205.992188 1368 C 1219.886719 1346.527344 1172.308594 1352.761719 1192 1370.621094 C 1194 1372.457031 1196.605469 1373.71875 1199 1375 M 853 1400.742188 C 842 1405.113281 848.640625 1422.203125 859.996094 1418.09375 C 872.199219 1413.675781 864.296875 1396.222656 853 1400.742188 M 1125 1400.757813 C 1114.175781 1404.734375 1120.703125 1421.734375 1130.996094 1418.097656 C 1142.742188 1414 1136.261719 1396.628906 1125 1400.757813 M 442 1449 L 443 1450 L 442 1449 M 1808 1460 L 1809 1461 L 1808 1460 M 978 1491 C 985.269531 1483.800781 987.34375 1474 992 1490 L 993 1490 C 996.550781 1477.515625 1002 1480.664063 1007 1491 L 1008 1491 C 1008 1488.058594 1006.992188 1479.613281 1011.277344 1479.03125 C 1017.4375 1478.203125 1030.226563 1491 1036 1493.753906 C 1059.28125 1505.480469 1085 1517.386719 1101.90625 1538 C 1107 1544.324219 1113.519531 1551.804688 1115 1560 C 1095.429688 1548 1073.960938 1543.515625 1054 1533 C 1059.734375 1541.148438 1068.390625 1547.476563 1072 1557 C 1062.859375 1555.445313 1052.613281 1552.371094 1045 1547 C 1045.679688 1554.679688 1049.625 1558.390625 1045 1566 C 1039 1561.277344 1034.210938 1555.371094 1028 1551 C 1030.792969 1557.8125 1032.980469 1563.546875 1033 1571 C 1029.457031 1568 1027.835938 1563.675781 1025 1560 C 1025.386719 1568.417969 1027 1576.433594 1027 1585 C 1020.769531 1581.207031 1017.5 1571.273438 1012 1566 C 1011.992188 1574.804688 1009.742188 1584.460938 1005 1592 C 1000.398438 1584.6875 996.449219 1575.003906 993 1567 C 989 1572 986.339844 1578.128906 984 1584 C 983.554688 1585.3125 982.703125 1589.792969 980.769531 1589.792969 C 974.976563 1589.792969 976.597656 1560.328125 967.617188 1574.007813 C 966.785156 1575.277344 966 1576.640625 965.371094 1578 C 964.203125 1580.355469 963.402344 1582.78125 962 1585 C 957.53125 1577.542969 961.574219 1568.070313 960 1560 L 959 1560 C 957.199219 1565.671875 957.609375 1571.441406 956 1577 C 950.9375 1568.550781 955.507813 1559.8125 959 1552 C 952.734375 1555.492188 946.707031 1564.316406 940.632813 1566.652344 C 938.25 1567.574219 937.84375 1563.410156 937.59375 1562 C 936.609375 1556.351563 938.351563 1553 941 1548 C 932.367188 1551.539063 923.304688 1554.796875 914 1556 C 917.273438 1547.363281 924.746094 1539.113281 933 1535 L 933 1534 C 909.929688 1536.011719 892.339844 1550.222656 872 1559 C 879.515625 1527.277344 921.714844 1509.828125 947 1495.574219 C 953.945313 1491.660156 966.335938 1479.746094 973.773438 1479 C 978.40625 1478.382813 977.976563 1488.210938 978 1491 M 1322 1553 L 1321 1554 L 1322 1553 M 1345 1618.402344 C 1351.816406 1617.765625 1355.867188 1619.371094 1359.980469 1625.003906 C 1361 1626.449219 1364.78125 1630.753906 1362.339844 1632.398438 C 1359.78125 1634.113281 1353.953125 1633 1351 1633 C 1341.96875 1633.042969 1333 1633 1324 1633 C 1290.628906 1633 1256.183594 1630.816406 1223 1633.089844 C 1177.597656 1636.199219 1130.683594 1632.785156 1085 1633 C 987.441406 1633.464844 889.648438 1633 792 1633 C 748 1633 704 1634 660 1634 L 629 1634 C 626.957031 1634 619.65625 1635.109375 619.828125 1631.683594 C 620.703125 1614.085938 647.90625 1619 659 1619 L 1279 1619 C 1300.839844 1619 1323.261719 1620.433594 1345 1618.402344 M 1380 1657 C 1374 1660.550781 1364.765625 1659.738281 1358 1660.039063 C 1343.644531 1660.675781 1329.402344 1661.832031 1315 1662.003906 C 1266.394531 1662.582031 1217.734375 1664 1169 1664 L 830 1664 C 755.757813 1664 679.679688 1667.3125 606 1658 C 617.230469 1646 641 1650.023438 656 1650 C 698.574219 1650 741.339844 1649 784 1649 L 1211 1649 C 1251.1875 1649 1291.941406 1647.167969 1332 1650 C 1349 1651.074219 1364.78125 1647.6875 1380 1657 M 838 1733 L 838 1734 C 918.683594 1735.664063 999.242188 1738 1080 1737 C 1101.644531 1736.738281 1123.363281 1734.015625 1145 1734 C 1138.347656 1730.015625 1127.542969 1732 1120 1732 L 1061 1732 C 1038.617188 1732 1016.296875 1733.820313 994 1733.820313 C 942 1733.820313 890 1730.765625 838 1733 M 226 1756 L 226 1757 C 256.550781 1761 288.234375 1758.691406 319 1760.039063 C 396.894531 1763.449219 475 1760.628906 553 1764.039063 C 809.8125 1775.285156 1068 1779.292969 1325 1768.039063 C 1426.554688 1763.59375 1528.425781 1765.488281 1630 1761.039063 C 1656.542969 1760 1683.449219 1759 1710 1759 C 1724.25 1759 1743.402344 1761.019531 1757 1757 C 1745.238281 1752.0625 1726.722656 1754.519531 1714 1754 C 1684.367188 1752.664063 1654.707031 1751 1625 1751 C 1521 1751 1417.699219 1757.5 1314 1758 C 1237.953125 1758.367188 1161.910156 1760.714844 1086 1764.039063 C 1055 1765.390625 1023.921875 1770.136719 993 1770 C 948.832031 1769.804688 904 1764 860 1762.039063 C 795.371094 1759.210938 730.703125 1759.570313 666 1758 C 607.992188 1756.5625 549.980469 1753.433594 492 1752.015625 C 439.964844 1750.738281 387 1748.761719 335 1751.039063 C 298.828125 1752.621094 262.175781 1756 226 1756 M 61 1756 L 61 1757 C 70.890625 1760 82.734375 1757.589844 93 1758.039063 C 118 1759.136719 142.902344 1758 168 1758 C 159.4375 1753.445313 145.496094 1756 136 1756 L 61 1756 M 1821 1757 L 1821 1758 L 1917 1758 C 1910.488281 1753.550781 1897.6875 1756 1890 1756 C 1866.957031 1756 1843.972656 1756.015625 1821 1757 M 249 1781 L 249 1782 C 261 1785.558594 277.402344 1784 290 1784 C 312.382813 1784 334.621094 1785 357 1785 L 482 1785 C 508.496094 1785 535.71875 1786.320313 562 1783 C 553.804688 1779.5625 538.996094 1781 530 1781 C 509.277344 1781 488.714844 1780 468 1780 C 395 1780 321.902344 1781 249 1781 M 1431 1782 L 1431 1784 C 1505.523438 1784 1580.488281 1787.300781 1655 1784.039063 C 1680.996094 1783 1707 1785.269531 1733 1782 C 1724.324219 1778.351563 1712.273438 1780 1703 1780 L 1644 1780 C 1572.953125 1780 1501.914063 1782 1431 1782 "/></g></svg>