<?xml version="1.0" encoding="utf-8"?>
<!-- Generator: Adobe Illustrator 24.2.1, SVG Export Plug-In . SVG Version: 6.00 Build 0)  -->
<svg version="1.1" id="Layer_1" xmlns="http://www.w3.org/2000/svg" xmlns:xlink="http://www.w3.org/1999/xlink" x="0px" y="0px"
	 viewBox="0 0 4000 4000" style="enable-background:new 0 0 4000 4000;" xml:space="preserve">
<style type="text/css">
	.st0{fill:#181412;}
</style>
<g>
	<path class="st0" d="M1881.58,1199.15c-2.26-33.29-13.7-126.03-34.42-278.33c-16.53-121.84-25.48-237.11-24.23-344.8
		c0.45-39.97,24.23-95.8,71.45-93.31c54.92,2.83,102.93,23.89,144.04,63.18c41.9,40.2,80.51,83.34,115.84,129.32
		c22.65,29.44,71.45,39.75,104.97,43.14c15.97,1.58,42.01-4.08,78.13-16.87c153.09-54.24,375.38-69.75,534.13-5.66
		c43.71,17.67,124.11,23.78,159.32-13.7c53.79-57.41,104.29-104.06,151.4-139.96c37.93-28.88,79.38-44.61,124.33-47.22
		c4.08-0.34,8.27,0.23,12.12,1.47c77.11,24.46,79.38,109.05,77.57,179.03c-1.47,55.71-3.96,152.53-10.87,222.62
		c-9.4,93.87-21.74,208.47-37.14,343.78c-0.45,3.96,3.4,7.13,7.13,5.78l144.72-50.16c8.27-2.94,16.65,3.96,15.4,12.68l-0.91,6.34
		c-1.13,7.47-6.34,13.81-13.47,16.19l-150.38,52.2c-5.77,2.04-9.17,8.04-7.81,14.04c1.25,5.89,6.79,9.96,12.91,9.4l145.05-14.15
		c5.89-0.57,11.32,3.51,12.34,9.28l1.13,6.57c1.47,8.38-4.53,16.19-13.02,16.99l-156.49,15.29c-3.74,0.34-6.68,3.4-7.02,7.13
		l-1.93,21.29c-0.34,3.51,2.49,6.46,6,6.57c86.06,2.6,149.81,8.38,191.37,17.33c3.74,0.79,6,3.06,6.79,6.91
		c1.59,7.81-4.53,15.17-12.68,15.4c-63.75,1.7-125.47-1.7-184.91-10.42c-4.76-0.68-9.06,2.94-9.29,7.81
		c-5.55,153.77-5.44,278.9,1.81,441.73c4.98,113.46,7.13,181.4,6.34,203.94c-12.12,354.31-24.69,641.14-37.59,860.36
		c-0.45,7.13-0.68,39.29-0.57,96.25c0.57,355.9,0.79,534.25,0.91,535.04c0.34,19.14-1.36,45.52-5.1,78.92
		c-6.91,62.39-94.44,80.51-149.58,86.06c-60.58,6-143.92,9.17-249.8,9.51c-279.13,0.79-579.2-2.72-900.22-10.53
		c-110.18-2.72-229.42-15.29-334.27-43.48c-156.15-42.12-300.3-97.27-432.45-165.32c-44.95-23.21-102.03-57.52-171.21-103.16
		c-83-54.69-137.58-93.08-163.74-115.05c-107.46-90.59-201.45-180.27-293.51-293.73c-117.88-145.39-147.89-314.91-144.15-495.29
		c2.94-149.24,52.32-289.43,124.9-432.9c104.52-206.2,222.05-375.83,352.73-508.77c33.86-34.54,61.49-68.17,82.89-101.01
		c63.75-97.61,140.98-213,149.58-339.59c8.15-119.69-1.36-236.55-28.54-350.35c-24.69-103.72-42.69-189.22-49.48-269.95
		c-8.83-103.61,25.82-216.17,146.19-222.85c130.67-7.36,238.02,100.78,292.83,213.45c59.56,122.18,89.34,244.82,109.05,366.09
		c8.83,54.01,12.91,136.34,3.96,200.09c-15.74,112.44-32.27,197.94-49.48,256.25c-39.86,134.86-86.63,271.99-140.41,411.16
		c-49.26,127.5-113.57,254.78-192.95,381.94c-70.77,113.57-139.05,221.26-188.31,338.57c-65.11,155.36-57.3,319.89,14.61,474.68
		c55.03,118.11,134.18,244.82,243.23,320.46c8.83,6.11,38.5,28.65,89,67.71c35.33,27.4,109.95,22.65,154.34,18.12
		c7.02-0.79,13.82-2.83,20.04-6.11c40.65-21.4,71.34-54.24,91.83-98.29c54.01-115.73,77.11-243.8,91.27-371.87
		c10.3-93.53,18-184.01,23.1-271.42c12.12-208.13,21.29-331.56,27.52-370.17c15.06-95.12,31.03-188.99,47.9-281.62
		c8.95-49.14,14.72-108.82,15.85-156.27c2.83-115.39,3.17-246.06,1.13-392.14c-0.11-2.49-2.26-4.3-4.64-3.85l-148.34,26.04
		c-7.59,1.25-13.59-6.23-10.76-13.36l1.36-3.17c2.6-6.46,8.38-11.21,15.4-12.46l136.22-23.89c4.76-0.79,8.49-4.42,9.62-9.06
		c0.91-3.96,1.25-7.25,1.02-9.85c-0.45-5.66-4.98-10.19-10.64-10.76l-131.69-11.89c-4.98-0.45-9.06-4.19-9.96-9.17l-2.72-15.29
		c-0.79-4.76,3.17-9.06,7.93-8.61l134.07,11.78c6.23,0.57,11.66-4.08,12.23-10.3l1.7-19.02c0.68-7.25-4.53-13.7-11.78-14.83
		l-128.41-18.46c-6.34-0.91-11.32-5.66-12.46-12l-0.68-4.08c-1.25-7.13,4.76-13.36,11.89-12.57l123.31,14.95
		C1878.86,1205.38,1881.81,1202.55,1881.58,1199.15 M2520.91,3658.86c-0.11-1.47-7.02-33.07-20.5-95
		c-18.68-85.83-35.56-192.73-50.62-320.68c-7.47-64.43-9.85-121.96-7.02-172.8c3.06-54.24,28.99-84.93,77.91-92.29
		c35.22-5.32,61.03,4.08,77.45,28.31c28.76,42.69,42.58,109.95,46.43,166.8c10.53,157.51,15.97,318.64,16.42,483.18
		c0,11.78,13.14,19.02,23.1,12.68l0.79-0.57c14.15-8.83,23.1-24.12,24.12-40.77c7.93-127.96,16.65-247.65,26.04-359.18
		c6.45-75.75,17.32-143.58,32.39-203.71c14.61-57.86,49.82-84.13,105.76-78.59c53.67,5.21,75.64,34.42,74.17,87.31
		c-5.55,202.24-39.97,401.76-103.16,598.56c-1.58,4.98,2.26,10.19,7.59,10.19c106.1,0,206.09-4.98,300.07-14.83
		c36.35-3.85,88.55-13.59,89.8-54.01c2.15-74.51,4.42-258.86,6.57-553.16c0.11-10.53-6.34-19.93-16.08-23.78
		c-37.03-14.61-77.23-33.63-120.82-57.3c-8.49-4.53-58.2-42.24-149.24-113.24c-66.7-51.97-128.75-121.5-103.84-213.22
		c11.32-41.9,35.56-70.66,72.81-86.29c94.44-39.75,192.39-6.23,298.94,19.7c12.91,3.06,25.36-6.45,25.93-19.7l8.04-200.99
		c0.45-11.66-6.57-22.31-17.44-26.5c-31.03-12.11-70.66-26.5-118.78-43.03c-30.46-10.53-54.58-23.44-72.13-38.5
		c-63.75-54.92-38.73-183.67-8.27-251.5c43.37-96.7,106.33-148.11,193.97-198.62c15.51-8.95,27.52-25.25,35.78-49.03
		c1.47-4.3,2.26-8.83,2.26-13.36c0.57-181.52,4.64-308.68,12-381.6c19.59-193.18,35.56-362.81,47.79-508.77
		c5.1-61.15,37.37-354.88-93.53-294.07c-20.27,9.4-52.88,34.31-97.61,74.74c-12.91,11.66-45.52,44.05-97.72,97.04
		c-9.63,9.85-22.76,15.63-36.58,16.08l-99.65,3.17c-2.94,0.11-5.78,1.59-7.59,3.96c-47.9,64.88-106.1,123.88-174.61,176.99
		c-17.1,13.25-40.54,25.59-70.32,37.25c-77.45,30.12-129.88,1.36-196.12-47.11c-58.54-42.92-107.69-94.55-147.43-154.91
		c-4.98-7.59-14.04-11.44-22.87-9.96l-56.5,9.96c-6.11,1.02-12.46,0.57-18.23-1.47c-37.03-12.68-68.28-32.5-93.99-59.56
		c-77.11-81.3-119.58-126.48-127.5-135.54c-35.22-40.2-108.14-60.02-117.09,18.46c-4.64,41.1,0.57,110.29,3.96,136.79
		c18.46,144.15,20.16,293.85,42.35,451.36c7.36,52.31,11.44,106.33,12.34,162.15c1.25,83.91,1.59,205.64,0.91,365.19
		c0,11.66,7.47,21.97,18.57,25.59c89.68,28.99,149.24,86.29,223.19,157.51c83.68,80.51,122.86,196.92,85.38,308.45
		c-25.36,75.08-78.93,122.41-160.57,142c-46.99,11.21-103.27,23.55-168.95,36.91c-24.8,5.1-38.16,19.48-39.86,43.26
		c-6.79,95-8.15,191.37-3.96,289.2c0.34,7.59,8.61,12,15.06,8.04c56.5-34.88,97.72-64.09,159.78-72.81
		c43.71-6.23,79.72-4.98,108.14,3.74c71.79,21.97,85.61,116.29,66.24,180.84c-9.74,32.5-44.61,64.09-71.23,85.15
		c-88.66,70.32-170.65,109.73-298.83,172.46c-4.53,2.26-8.83,4.98-12.8,8.15c-34.54,28.08-61.83,63.53-81.87,106.33
		c-52.88,112.67-127.05,195.78-240.74,247.53c-90.93,41.22-203.94,6.12-259.99-72.36c-21.74-30.57-40.65-95.68-66.81-126.48
		c-34.99-41.1-66.02-80.51-93.08-117.99c-8.38-11.66-20.61-19.82-34.54-23.21c-7.25-1.7-34.08-7.81-80.62-18.46
		c-157.28-36.01-223.3-192.27-181.97-340.95c23.67-85.15,59.34-143.24,116.07-224.77c25.48-36.46,47.56-77.23,66.47-122.18
		c6.34-14.95,14.27-29.21,23.55-42.58c41.33-59,68.73-119.58,114.82-186.73c174.04-253.53,294.75-543.87,373.45-832.06
		c17.89-65.45,20.84-97.27-20.5-148.11c-48.35-59.45-105.76-86.29-172.46-80.62c-25.25,2.15-39.18,10.19-51.75,31.25
		c-19.48,32.39-34.88,63.53-46.09,93.53c-45.97,122.41-111.65,226.47-206.43,319.55c-3.17,3.17-2.6,8.38,1.13,10.64
		c39.63,24.46,48.13,63.64,59.45,108.25c31.25,123.77,3.28,207.67-80.96,299.06c-66.7,72.47-148.23,97.27-247.76,137.81
		c-55.37,22.53-85.27,51.41-131.24,97.95c-54.24,54.92-81.98,128.86-90.93,204.96c-18.57,156.38-2.04,337.78,77.23,475.93
		c65.22,113.8,170.87,216.39,271.88,306.42c87.3,77.79,162.38,123.65,286.03,202.8c56.73,36.35,116.75,68.85,179.82,97.5
		c225,102.14,478.76,169.74,729.24,171.89c240.85,2.15,370.17,3.06,387.83,2.94c22.08-0.11,40.2-1.81,54.58-4.98
		C2518.87,3665.65,2521.25,3662.37,2520.91,3658.86L2520.91,3658.86z"/>
	<path class="st0" d="M2059.13,877.45c-30.23,13.48-52.54,4.08-67.04-28.42c-17.44-39.29-30.35-74.17-38.73-104.86
		c-6.23-22.53-17.44-53.33,1.92-68.51c24.12-19.02,69.07,26.61,78.36,42.46c28.31,47.67,38.95,97.95,31.93,150.6
		C2065.14,872.58,2062.64,875.86,2059.13,877.45L2059.13,877.45z"/>
	<path class="st0" d="M3113.58,873.49c-8.27-6.68-12.57-17.21-11.32-27.86c8.15-68.17,44.5-131.81,111.54-154.57
		c13.36-4.53,27.86-0.57,35.56,9.96c6.11,8.49,8.38,18.8,6.79,31.03c-6.23,51.07-15.63,111.08-50.28,147.66
		c-3.06,3.28-7.13,5.66-11.55,6.79C3161.82,895.11,3134.99,890.81,3113.58,873.49L3113.58,873.49z"/>
	<path class="st0" d="M2440.63,1201.64c21.29,283.32-363.15,273.35-381.6,28.65C2040.68,985.59,2419.34,918.21,2440.63,1201.64
		 M2157.31,1085.35c-53.79,33.86-75.42,106.1-60.92,166.91c24.46,102.82,117.65,148.34,217.19,115.84
		c99.31-32.39,105.54-149.36,75.75-233.83C2353.66,1033.03,2234.2,1036.88,2157.31,1085.35L2157.31,1085.35z"/>
	<path class="st0" d="M2768.9,1225.42c-16.53-115.39,69.64-178.57,170.65-198.28c27.29-5.32,57.07-3.28,89.34,6.12
		c109.84,32.16,159.21,156.04,117.43,259.88c-19.36,48.01-45.97,80.51-93.65,100.44c-68.28,28.65-132.83,21.06-193.52-22.76
		C2807.51,1333.68,2777.39,1285.21,2768.9,1225.42 M2828.78,1129.66c-45.84,75.04-19.8,174.46,58.16,222.03
		c77.97,47.55,178.29,25.24,224.06-49.76c45.84-75.04,19.8-174.46-58.16-222.03C2974.87,1032.36,2874.54,1054.66,2828.78,1129.66
		L2828.78,1129.66z"/>
	<path class="st0" d="M2227.55,1127.81c10.16-0.79,19.67,16.43,21.32,38.29c1.64,21.85-5.39,40.19-15.5,40.99
		c-10.16,0.79-19.67-16.43-21.32-38.29C2210.42,1146.95,2217.44,1128.61,2227.55,1127.81L2227.55,1127.81z"/>
	<path class="st0" d="M2958.9,1207.87c-7.7-23.44-7.02-44.96,2.04-64.55c4.98-10.76,19.59-12.68,27.18-3.51
		c17.55,21.06,13.59,45.07-11.66,71.9C2971.02,1217.5,2961.4,1215.46,2958.9,1207.87L2958.9,1207.87z"/>
	<path class="st0" d="M2606.06,1484.62l-3.06-94.78c-0.34-9.4-4.64-18.23-12-24.23c-18.57-15.29-56.39-51.18-51.41-76.32
		c2.49-12.91,13.81-22.19,26.95-22.19c31.37-0.11,60.69,0.68,87.98,2.26c9.96,0.57,17.44,9.17,16.53,19.02
		c-2.49,30.01-21.4,53.9-37.37,80.06c-3.96,6.57-5.89,14.15-5.66,21.74l2.49,78.24c0.23,7.81-3.85,15.29-10.64,19.14l-4.19,2.38
		C2611.5,1492.43,2606.18,1489.49,2606.06,1484.62L2606.06,1484.62z"/>
</g>
</svg>
