<?xml version="1.0" encoding="utf-8"?>
<!-- Generator: Adobe Illustrator 24.2.1, SVG Export Plug-In . SVG Version: 6.00 Build 0)  -->
<svg version="1.1" id="Layer_1" xmlns="http://www.w3.org/2000/svg" xmlns:xlink="http://www.w3.org/1999/xlink" x="0px" y="0px"
	 viewBox="0 0 4000 4000" style="enable-background:new 0 0 4000 4000;" xml:space="preserve">
<g>
	<path d="M2311.1,1062.33l-1.96,3.61c-0.13,0.25-0.44,0.38-0.76,0.25c-73.73-30.57-155.37-56.45-244.85-77.65
		c-1.9-0.44-3.92,0.32-5,1.9c-116.64,168.66-342.12,227.32-535.08,178.91c-114.48-28.73-204.6-93.73-270.42-195.05
		c-1.01-1.58-2.91-2.34-4.75-1.9c-82.65,18.29-162.39,42.91-239.28,73.79c-1.27,0.51-2.66-0.06-3.16-1.27l-0.82-1.65
		c-0.25-0.57-0.06-1.27,0.51-1.58c74.74-43.22,151.89-74.3,231.44-93.22c1.08-0.25,1.71-1.46,1.2-2.47l-19.11-41.71
		c-0.57-1.27-2.02-1.96-3.42-1.71c-55.5,10.63-90.82,17.72-105.94,21.26c-42.84,9.94-88.92,26.26-138.22,48.86
		c-1.58,0.7-3.48,0-4.11-1.65l-0.06-0.13c-0.63-1.71,0-3.67,1.58-4.56c82.53-49.3,162.71-75.63,240.61-79.04
		c2.15-0.13,3.67-2.15,3.1-4.24c-22.53-81.01-27.72-162.71,8.73-237.13c11.46-23.35,18.29-41.77,20.5-55.31
		c2.47-15.51,3.23-35.25,2.28-59.11c-4.87-116.7-8.73-207.51,2.72-308.84c3.23-28.29,9.11-54.11,17.72-77.34
		c10.19-27.78,29.43-19.49,48.35-5.38c39.24,29.3,75.94,63.03,110.18,101.26c29.3,32.78,69.68,77.4,121.13,133.85
		c2.34,2.53,6.01,3.35,9.18,2.03c64.87-27.28,130.87-28.99,198.02-5.06c9.05,3.23,18.23,6.58,27.59,10.06
		c1.77,0.63,3.67,0.13,4.87-1.27c49.17-59.24,101.95-117.08,158.28-173.47c25.69-25.69,101.38-105.69,130.87-38.48
		c10.25,23.35,15.76,48.1,16.58,74.17c3.42,105.24,2.59,209.16-2.53,311.81c-0.63,12.72,1.9,26.2,7.53,40.31
		c40.44,101.38,43.1,203.21,7.97,305.54c-0.57,1.71,0.57,3.42,2.34,3.61c85.63,8.04,164.86,37.47,237.7,88.41
		c0.76,0.51,1.01,1.58,0.57,2.41l-0.95,1.71c-0.51,0.89-1.65,1.27-2.53,0.76c-73.79-40.12-154.1-65.69-240.93-76.7
		c-0.95-0.13-1.9,0.38-2.34,1.2l-22.59,41.77c-0.51,0.89,0,1.96,0.95,2.21c82.08,21.39,160.75,53.22,236.06,95.44
		C2311.1,1061.69,2311.23,1062.07,2311.1,1062.33 M1575.53,730.14c0-67.27-54.55-121.83-121.83-121.83
		c-67.27,0-121.83,54.55-121.83,121.83c0,67.27,54.55,121.83,121.83,121.83C1520.98,851.96,1575.53,797.41,1575.53,730.14
		 M1916.74,616.96c-62.56-26.05-134.9,4.84-161.61,68.94c-26.7,64.12,2.41,137.21,64.96,163.25c62.56,26.05,134.9-4.84,161.61-68.94
		C2008.41,716.09,1979.3,642.99,1916.74,616.96 M1545.22,1005.18c2.78,7.59,8.29,13.92,15.44,17.66c38.86,20.13,70.12,5,94.42-25.76
		c1.65-2.09,4.81-2.22,6.65-0.25c30.12,33.29,68.73,50.44,104.29,15.63c5.89-5.76,9.18-13.42,9.81-22.85
		c0.32-4.43-4.75-7.15-8.23-4.43c-18.29,14.11-37.47,16.2-57.59,6.2c-39.87-19.81-31.01-67.91-4.68-94.74
		c6.52-6.65,2.66-17.91-6.58-19.11c-22.72-2.97-76.13-8.86-93.66,6.01c-1.96,1.65-1.65,4.81,0.57,6.08
		c22.97,13.23,34.62,34.74,35,64.55c0.06,7.09-1.96,12.91-6.14,17.47c-10.06,10.95-30.82,28.73-46.83,27.15
		c-17.91-1.71-31.14-5.32-39.68-10.82c-3.8-2.4-8.48,1.33-6.96,5.57L1545.22,1005.18L1545.22,1005.18z"/>
	<path d="M1532.18,730.14c0,42.91-34.74,77.65-77.65,77.65c-42.91,0-77.65-34.74-77.65-77.65c0-42.91,34.74-77.65,77.65-77.65
		C1497.44,652.49,1532.18,687.23,1532.18,730.14L1532.18,730.14z"/>
	<path d="M1947.59,732.99c0,44.17-35.76,79.93-79.93,79.93s-79.93-35.76-79.93-79.93c0-44.17,35.76-79.93,79.93-79.93
		S1947.59,688.81,1947.59,732.99L1947.59,732.99z"/>
	<path d="M2293.95,1706.7c-47.59-6.27-90.69-8.54-129.23-6.77c-194.35,8.86-350.35,145.81-380.41,338.83
		c-15.63,100.5-5,203.78,41.52,297.63c2.91,5.89,3.16,12.72,0.76,18.86c-42.59,106.51-77.72,203.08-105.24,289.72
		c-13.48,42.46-34.11,70.63-81.89,71.7c-52.97,1.2-133.09,1.96-240.36,2.22c-26.96,0.06-50.69-11.45-53.41-39.3
		c-1.27-13.1,2.03-34.17,9.75-48.86c33.04-62.53,96.32-103.41,166.69-109.42c5-0.44,9.11-4.05,10.19-8.92
		c27.02-123.85,36.58-250.49,28.54-379.78c-6.39-103.54-31.39-201.25-74.93-293.08c-36.14-76.26-69.99-137.14-93.66-202.14
		c-36.96-101.32-54.17-206.37-51.58-315.04c1.46-61.45,12.47-122.52,33.1-183.09c0.7-2.15,3.29-3.1,5.25-1.9
		c67.21,40.82,135.18,67.97,215.17,77.21c54.3,6.27,111.76,4.05,172.45-6.65c104.74-18.42,196.76-66.07,276.18-143.03
		c3.1-3.04,8.1-2.78,10.82,0.57c52.72,64.17,119.48,120.56,197.33,153.22c90.37,37.91,163.66,69.05,219.79,93.35
		c240.61,104.23,438.38,280.86,522.3,533.69c36.77,110.81,48.1,229.03,34.05,354.53c-13.73,122.84-29.68,258.21-61.96,381.23
		c-52.91,201.69-202.52,361.62-403.57,419.21c-69.36,19.94-143.15,30.57-221.31,31.9c-78.92,1.33-161.19,0.76-246.75-1.84
		c-37.91-1.14-74.17,1.08-108.85,6.64c-126.32,20.38-232.2,103.03-274.15,224.54c-30.31,87.65-16.14,184.98,31.26,263.08
		c44.49,73.22,108.03,118.85,190.62,136.89c46.39,10.19,91.13,8.61,134.29-4.62c9.87-3.04,26.45-8.42,49.81-16.2
		c15.63-5.19,36.39-6.33,62.15-3.35c33.35,3.8,63.92,27.02,76.89,57.78c15.25,36.14,10.38,69.99-14.56,101.57
		c-6.01,7.59-19.43,17.34-40.25,29.3c-64.49,36.96-148.47,47.97-225.55,46.51c-203.59-3.8-377.63-140.56-445.09-330.54
		c-53.86-151.89-39.17-323.01,45.12-460.28c75.44-122.77,196.63-211.63,338.26-239.28c47.02-9.18,96-14.62,146.82-16.2
		c19.18-0.63,103.03-1.84,251.56-3.61c108.66-1.33,210.87-19.87,293.46-94.3c2.28-2.09,3.73-3.8,4.37-5.25
		c0.76-1.9-0.63-3.92-2.66-3.92c-247.76,3.99-505.84,5.13-774.3,3.48c-30.31-0.19-55.06,1.77-73.28-26.64
		c-15.38-24.05,3.23-64.05,18.04-84.55c57.21-79.49,155.87-97.4,247.95-102.08c2.09-0.13,2.78-2.85,0.95-3.92
		c-190.43-110.43-269.72-350.41-185.49-553.12c62.59-150.56,220.17-228.46,374.59-238.02c41.45-2.59,67.59-4.68,78.47-6.33
		c0.38-0.06,0.7-0.44,0.7-0.82C2294.65,1707.08,2294.33,1706.77,2293.95,1706.7L2293.95,1706.7z"/>
</g>
</svg>
