<?xml version="1.0" encoding="utf-8"?>
<!-- Generator: Adobe Illustrator 24.2.1, SVG Export Plug-In . SVG Version: 6.00 Build 0)  -->
<svg version="1.1" id="Layer_1" xmlns="http://www.w3.org/2000/svg" xmlns:xlink="http://www.w3.org/1999/xlink" x="0px" y="0px"
	 viewBox="0 0 4000 4000" style="enable-background:new 0 0 4000 4000;" xml:space="preserve">
<style type="text/css">
	.st0{fill:#030303;}
</style>
<path class="st0" d="M518.69,2167.93c111.74-140.67,227.68-258.94,347.82-355.05c8.16-6.77,15.4-14.46,21.23-23.33
	c111.51-166.33,165.63-327.99,102.41-522.32c-6.3-19.6-4.66-38.26,4.67-55.99c39.42-73.95,94.71-88.41,166.1-43.39
	c164.46,104.51,29.16,447.2-21.93,601.87c-9.56,28.69-13.29,87.01-11.2,175.43c0.24,14.23,4.9,27.99,13.3,39.42l70.92,98.91
	c0.93,1.4,1.63,2.8,2.1,4.43c20.99,83.52,16.33,154.2-13.77,212.29c-3.27,6.53,3.03,13.53,9.8,10.73
	c173.1-72.32,402.88-10.5,557.08,83.05c7.23,4.43,15.86-2.8,12.83-10.73c-25.43-66.95-31.97-138.1-19.6-213.45
	c15.16-91.68,31.03-183.59,47.12-275.51c4.2-23.33,5.36-46.89,3.5-70.22c-6.07-76.75-47.36-233.75,28.69-294.64
	c38.03-30.56,84.45-36.86,139.03-18.66c8.17,2.57,13.53,10.27,13.53,18.66c0.7,152.57-1.17,297.9-5.6,435.77
	c-1.17,40.36,8.63,130.64,29.39,270.84c2.1,14.7,7,28.93,14.23,41.99c24.72,44.09,44.32,96.81,58.79,157.7
	c6.99,29.16,33.36,49.46,63.45,48.76c212.99-5.83,409.64,45.49,589.97,153.5c6.77,4.2,15.63,3.97,22.4-0.47l91.44-59.72
	c7.93-5.13,12.83-13.76,13.3-23.33c4.43-72.78-8.86-161.9,101.24-149.3c11.9,1.4,23.56-3.73,30.56-13.3
	c31.5-42.22,73.72-64.39,126.67-66.49c52.02-2.1,86.32-1.4,102.88,1.63c8.16,1.4,16.33-0.47,23.09-5.13l68.35-49.22
	c7.23-5.13,13.3-11.66,17.5-19.36l57.85-100.08c5.83-10.03,18.19-13.76,28.69-8.87c22.86,10.97,33.13,29.63,30.56,55.99
	c-4.43,45.02-11.9,91.68-22.39,140.44c-2.1,9.56,6.53,18.19,16.1,16.1c55.06-11.43,114.78-29.16,179.16-53.19
	c52.96-19.59,113.14-2.1,84.68,71.62c-16.33,41.99-41.76,89.35-76.28,142.07c-6.07,9.33-10.26,19.6-12.83,30.33
	c-26.59,118.51-18.66,236.31,23.56,353.42c3.03,8.63,10.03,15.4,18.66,18.43c62.75,21.93,164.93,73.95,189.42,145.33
	c8.63,25.43-3.03,53.65-27.52,65.55c-23.56,11.43-50.16,16.33-79.78,14.7c-238.65-14.7-388.42-34.29-565.71,32.43
	c-286,107.78-557.08,212.75-861.51,215.32c-130.4,1.17-257.07-21.93-399.61-36.86c-72.55-7.46-177.29-2.57-313.76,14.7
	c-465.63,58.79-969.75,151.87-1276.28-314.46c-104.74-159.33-168.43-325.66-191.53-499.46c-0.23-2.8,0.23-5.6,1.4-7.93l22.16-45.26
	c7.93-16.33,7.7-35.23-0.7-51.32c-22.4-42.69-29.39-74.88-20.76-96.58c16.1-41.29,45.02-34.99,42.46-89.58
	c-4.2-88.65,39.89-112.44,96.81-166.33c6.07-5.83,8.63-14.46,6.77-22.63c-5.37-24.03-3.5-45.72,5.13-65.32
	c3.27-7,7.93-13.3,13.77-18.19c60.19-50.86,150.47-113.14,206.45-218.59c43.39-81.42,45.26-162.36,5.83-242.85
	c-38.26-77.68-72.55-165.63-102.88-263.84c-25.43-82.35-20.06-192.69-21.23-270.84c-0.23-12.6,3.27-36.16,10.26-70.69
	c9.1-45.25,59.02-79.78,65.32-139.27c0.7-7.23,3.73-14.46,8.4-20.3c97.28-121.54,222.55-183.83,376.05-187.33
	c38.49-0.7,104.74,18.43,198.52,57.39c90.28,37.56,133.9,114.08,130.87,229.55c-0.24,8.63-3.5,17.03-9.33,23.56
	c-45.72,50.16-99.85,67.19-162.13,50.86c-11.43-2.8-21.93-8.4-30.56-16.33c-43.16-38.26-69.98-59.95-80.48-65.32
	c-126.44-63.22-213.45,19.6-243.78,138.57c-35.93,141.6,37.79,308.63,77.45,434.14c50.16,158.4,67.89,310.03-27.53,445.8
	c-18.43,25.89-80.48,108.94-186.63,248.91c-4.43,6.07-9.57,17.73-15.4,34.76C505.39,2168.63,514.25,2173.53,518.69,2167.93
	L518.69,2167.93z"/>
</svg>
