<?xml version="1.0" encoding="utf-8"?>
<!-- Generator: Adobe Illustrator 24.2.1, SVG Export Plug-In . SVG Version: 6.00 Build 0)  -->
<svg version="1.1" id="Layer_1" xmlns="http://www.w3.org/2000/svg" xmlns:xlink="http://www.w3.org/1999/xlink" x="0px" y="0px"
	 viewBox="0 0 4000 4000" style="enable-background:new 0 0 4000 4000;" xml:space="preserve">
<style type="text/css">
	.st0{fill:#181412;}
</style>
<path class="st0" d="M3437.33,1614.14l16.23-45.29c1.01-2.84,5.13-2.38,5.5,0.64c10.27,87.18-25.39,168.77-81.22,233.4
	c-0.55,0.64-0.55,1.65,0,2.29l1.83,1.74c0.64,0.73,1.74,0.73,2.38,0l57.39-62.89c2.11-2.29,5.87,0,4.68,2.84
	c-25.3,62.8-74.16,113.03-133.57,152.64c-103.13,68.57-239.08,98.09-359.36,60.05c-2.84-0.92-5.23,2.29-3.48,4.77
	c52.16,74.16,110.38,147.23,174.55,219.01c5.32,5.87-0.83,14.94-8.25,12.28l-25.58-9.17c-5.5-1.93-9.81,4.86-5.68,8.98l151.99,152
	c3.67,3.67,0.09,9.81-4.95,8.53l-47.49-12.01c-3.76-0.92-6.33,3.85-3.3,6.33c46.2,38.32,104.32,100.29,166.84,143.19
	c39.42,27.04,94.24,48.31,124.13,71.69c43.54,34.19,82.14,80.4,115.78,138.61c28.42,49.23,65.82,109.27,112.3,180.14
	c15.49,23.65,28.88,55.92,40.15,96.72c1.38,5.04,1.65,10.45,0.64,15.68c-5.04,26.49-20.81,47.95-47.3,64.26
	c-2.75,1.74-1.47,5.96,1.83,5.87c69.03-2.11,137.69,0.18,206.08,7.06c2.93,0.27,5.13,2.75,5.23,5.68v0.27c0,3.67-2.93,6.69-6.6,6.88
	c-9.26,0.46-30.99,2.02-65.18,4.49c-66.19,4.86-182.43,6.42-348.73,4.68c-16.41-0.18-31.35-1.74-44.92-4.77
	c-3.39-0.73-3.21-5.68,0.28-6.14l101.02-14.12c0.37,0,0.55-0.46,0.37-0.83c-27.23-42.72-12.47-88.19,31.17-103.04
	c3.21-1.1,4.49-5.04,2.57-7.79c-43.18-61.33-83.24-114.32-120.37-159.05c-64.45-77.65-173.9-133.11-272.18-161.07
	c-166.85-47.58-276.95-77.37-402.54-145.58c-65-35.29-130.08-71.6-195.26-108.73c-0.92-0.55-2.11-0.27-2.66,0.55
	c-0.64,0.92-0.55,2.02,0.28,2.75c26.68,23.65,59.95,50.24,99.92,79.85c43.45,32.18,103.41,60.69,146.13,89.38
	c9.53,6.42,16.32,19.71,20.26,39.88c15.49,79.21-26.22,149.24-69.4,208.28c-34.01,46.3-62.34,103.32-93.23,151.81
	c-16.32,25.58-34.38,41.44-50.33,59.4c-2.02,2.29-0.46,5.87,2.57,5.87c243.67,1.65,443.06,3.12,660.14,17.51
	c1.19,0.09,2.11,1.01,2.2,2.11c0.09,1.19-0.73,2.2-1.83,2.47c-9.26,2.11-18.7,3.3-28.42,3.76
	c-193.16,8.34-419.13,14.39-677.74,18.15c-40.79,0.55-86.08-0.82-135.86-4.03c-39.42-2.47-84.89-3.57-136.32-3.21
	c-9.26,0.09-32.82-1.56-70.68-4.86c-1.01-0.09-1.74-0.92-1.65-1.93v-0.09c0.37-0.92,1.19-1.56,2.2-1.65l199.12-7.61
	c2.2-0.09,3.67-2.29,2.93-4.31c-0.83-2.48-3.03-3.67-6.51-3.58c-22.28,0.27-76.64,2.93-163.27,7.98
	c-52.35,3.03-106.71,4.77-163.09,5.23c-318.2,2.48-630.99-0.09-938.19-7.7c-27.59-0.64-68.76-0.27-123.3,1.28
	c-3.85,0.09-7.15,2.57-8.43,6.14l-1.01,2.66c-0.82,2.48,1.1,5.04,3.76,4.86c38.04-2.93,76.64-3.21,115.6-0.92
	c18.06,1.01,52.99,1.93,104.87,2.66c383.38,5.13,740.72,11.09,1072.12,17.78c144.2,2.84,311.78,10.91,468.08,19.53
	c2.29,0.18,3.94,2.29,3.39,4.49l-0.09,0.28c-0.73,3.03-3.48,5.13-6.6,5.23c-340.2,7.06-588.82,10.18-745.77,9.17
	c-757.5-4.58-1200.01-8.98-1327.71-13.29c-280.34-9.44-460.93-11.73-541.88-6.69c-9.53,0.64-19.07-1.28-27.69-5.41
	c-13.75-6.69-30.25-9.35-49.6-8.16c-4.68,0.28-9.17-1.65-12.1-5.23c-6.88-8.34-9.9-18.33-9.08-29.98
	c2.66-40.52,25.94-68.11,63.62-78.01c35.29-9.26,47.95-15.49,71.78-49.05c100.38-141.18,162.81-228.63,187.11-262.28
	c73.61-102.03,131.18-204.25,172.71-306.46c22.46-55.46,29.98-116.24,22.64-182.25c-1.56-14.21-12.19-55.46-31.81-123.76
	c-16.59-57.57-26.77-98.92-30.62-123.94c-15.58-100.2-6.05-174.18,1.01-313.89c1.28-24.84-1.56-50.6-8.62-77.1
	c-20.63-77.74-92.04-57.75-148.14-90.94c-52.16-30.89-96.07-118.9-48.5-173.17c5.5-6.14,19.07-15.49,40.61-27.87
	c34.47-19.89,43.45-36.49,71.87-76.46c5.87-8.34,13.2-15.49,21.63-21.27c17.69-12.01,33-21.82,45.75-29.43
	c11.83-7.06,15.31-21.18,10.63-42.54c-6.05-27.5-13.38-54.91-22-82.32c-1.65-5.13,3.03-9.99,8.25-8.71
	c40.89,10.36,70.04,35.94,117.43,70.04c4.77,3.39,11.46,1.93,14.3-3.21c15.22-27.32,29.24-58.85,42.08-94.61
	c4.49-12.74,10.36-21.91,17.51-27.69c7.88-6.42,19.34-5.87,26.68,1.19c18.7,17.88,36.94,40.43,54.64,67.66
	c72.15,110.65,121.38,221.12,185.55,357.71c9.08,19.16,26.86,45.75,53.54,79.94c117.8,150.99,315.36,124.95,479.73,96.81
	c138.52-23.65,273.1-16.78,426.92-6.6c202.32,13.48,397.04,52.53,584.14,117.25c170.79,59.04,277.4,103.13,420.78,128.34
	c105.61,18.52,211.03,9.53,273.1-87.82c64.54-101.39-26.31-208.28-93.87-285.2c-51.8-59.04-87.55-139.53-89.56-218.83
	c-2.84-110.37,57.57-210.21,158.05-256.23c105.15-48.22,235.05-38.23,304.54,64.72c25.67,37.95,62.43,143.29-4.31,164.1
	c-70.68,22.09-88.19-45.19-133.29-70.04c-85.81-47.3-148.6,35.48-134.12,115.88c7.43,40.89,28.88,80.21,64.35,117.89
	c73.8,78.29,127.15,133.75,147.41,239.91c1.1,5.78,1.19,11.64,0.27,17.42c-4.31,27.59-6.78,43.82-7.52,48.77
	c-0.18,1.47,0.73,2.84,2.2,3.21C3435.31,1616.34,3436.87,1615.51,3437.33,1614.14 M1941.58,2295.27l40.15,34.84
	c2.66,2.29,0.46,6.6-2.93,5.87c-61.05-12.74-115.33-28.14-162.81-46.2c-3.12-1.19-6.6,0.18-7.98,3.21l-0.09,0.27
	c-1.19,2.48-0.37,5.41,1.93,6.88c10.27,6.6,18.98,14.48,26.13,23.56c2.66,3.39-0.73,8.16-4.77,6.69l-138.43-49.5
	c-5.13-1.83-8.98,4.86-4.86,8.43l29.79,25.85c3.12,2.75,0.46,7.79-3.57,6.78L1556,2281.89c-1.74-0.46-3.03,1.65-1.74,2.93
	l23.65,23.65c3.67,3.67,0.09,9.81-4.95,8.43c-34.93-9.72-74.07-17.97-117.43-24.66c-11.46-1.74-26.31-11.83-31.99-12.74
	c-2.38-0.37-4.13,2.11-3.12,4.22c6.33,12.74,25.12,19.62,34.93,28.05c2.75,2.38,1.1,6.88-2.57,6.88
	c-35.57-0.09-63.35-11.09-109-26.04c-3.48-1.1-7.24-0.27-9.9,2.29c-2.57,2.48-3.76,7.79-3.48,15.77c0.09,2.57,2.66,4.31,5.04,3.39
	c4.13-1.56,7.24-2.02,9.26-1.38c5.23,1.56,6.51,8.43,2.11,11.73c-29.61,22.19-56.1,50.33-79.48,84.34
	c-16.5,24.02-31.44,59.59-44.74,106.8c-38.69,136.69-59.59,211.31-62.8,223.87c-27.69,109.92-53.81,204.62-78.29,284.1
	c-0.37,1.28,0.64,2.57,2.02,2.57c137.79-7.43,283.36-11.55,436.73-12.38c221.76-1.19,470.47,1.56,746.22,8.16
	c47.67,1.1,112.12-0.92,167.58-0.28c3.3,0.09,5.87-2.75,5.5-5.96c-2.84-29.43,1.74-51.61,13.75-66.65
	c31.17-39.15,90.57,4.13,116.33-56.01c26.68-62.25,47.95-118.17,63.62-167.67c13.11-41.34,0-68.3-39.33-80.76
	c-85.44-27.14-132.38-41.53-201.96-85.53c-2.11-1.28-4.68,0.64-4.03,3.02c1.38,4.49,5.78,9.26,13.2,14.3
	c1.28,0.83,1.65,2.66,0.73,3.94l-1.65,2.38c-0.82,1.19-2.48,1.56-3.67,0.73l-80.58-55.28c-0.18-0.09-0.37-0.27-0.55-0.37
	l-11.92-8.34c-1.19,1.37-1.1,3.39,0.18,4.58c7.88,7.43,12.01,14.03,12.47,19.8c0.18,2.84-3.12,4.58-5.32,2.75
	c-77.1-62.89-131.92-137.78-187.29-224.32c-3.39-5.41-9.35-8.53-17.78-9.44c-3.03-0.27-5.41,2.66-4.31,5.5
	c2.02,5.59,2.93,8.8,2.84,9.53c-1.01,6.42-7.33,10.54-13.57,8.71l-147.96-43.45C1941.49,2292.71,1940.57,2294.36,1941.58,2295.27
	 M1148.97,2319.84l-130.36,87.09c-3.94,2.66-8.98-1.47-7.06-5.87l17.42-40.24c1.38-3.21-2.38-6.23-5.23-4.13
	c-69.95,51.89-143.38,96.72-211.86,160.89c-178.76,167.58-349.92,350.01-513.37,547.2c-0.46,0.55,0,1.47,0.73,1.47l552.43-13.02
	c3.21-0.09,5.32-3.21,4.31-6.23c-26.86-77.28,23.56-96.72,87.46-95.71c5.87,0.09,10.91-4.03,11.92-9.81
	c26.77-155.3,47.95-313.8,63.44-475.51c1.74-18.7,9.08-33,22-42.99c37.4-28.88,74.53-61.88,111.48-99.1
	c0.92-0.92,1.01-2.48,0.18-3.48C1151.63,2319.29,1150.07,2319.11,1148.97,2319.84L1148.97,2319.84z"/>
</svg>
