<?xml version="1.0" encoding="utf-8"?>
<!-- Generator: Adobe Illustrator 25.0.0, SVG Export Plug-In . SVG Version: 6.00 Build 0)  -->
<svg version="1.1" id="Capa_1" xmlns="http://www.w3.org/2000/svg" xmlns:xlink="http://www.w3.org/1999/xlink" x="0px" y="0px"
	 viewBox="0 0 841.8898315 1190.5511475" style="enable-background:new 0 0 841.8898315 1190.5511475;" xml:space="preserve">
<style type="text/css">
	.st0{fill:#FFFFFF;}
</style>
<path d="M444.5484924,245.8634186c-5.4399414,0-10.284668,2.6708984-13.4267578,6.8325195
	c2.7529297-0.4941406,5.5136719,1.1082764,6.3891602,3.8446198c0.9536133,2.9796143-0.6884766,6.1682129-3.668457,7.1219482
	c-2.3842773,0.7630615-4.8994141-0.1391602-6.2993164-2.0559082c-0.0927734,0.7619629-0.1459961,1.5368652-0.1459961,2.3254395
	c0,9.9790039,7.6787109,18.0686035,17.1513672,18.0686035c9.472168,0,17.1513672-8.0895996,17.1513672-18.0686035
	C461.6998596,253.9530182,454.0206604,245.8634186,444.5484924,245.8634186z M453.2115784,271.9161682
	c-1.7475586,0-3.1645508-1.4165039-3.1645508-3.1640625s1.4169922-3.1640625,3.1645508-3.1640625
	s3.1640625,1.4165039,3.1640625,3.1640625S454.959137,271.9161682,453.2115784,271.9161682z M543.6153564,296.0145569
	c-2.355957-0.1303711-25.9072266-0.9575195-40.6723328-1.4714355c-1.4072266-0.9987793-2.8496094-1.9853516-3.7514648-2.7009277
	c6.0610352-2.0820312,9.9936523-1.9741211,13.2904968-2.0715332c-3.3998718-2.807373-8.4047546-3.8762207-11.257782-3.9606934
	c6.284668-4.4243164,13.2289734-5.873291,18.5756531-7.0341797c-2.6674805-1.4619141-8.223114-2.7045898-13.2260437-2.9448242
	c9.3520203-3.6340332,11.1591492-6.0274658,12.7167664-8.6422119c-3.7910156,1.24646-9.5683289,2.1575928-13.379364,2.0704346
	c2.425293-6.1928711,7.3149109-10.7497559,9.7382507-12.9243164c-2.8886719,0.1503906-9.3739929,3.8754883-12.54245,5.9645996
	c-0.1845703-6.277832-1.5571289-11.8680573-3.9736328-18.5979156c18.1523132-41.7614746,12.4233398-97.2954102,1.2841797-100.767334
	c-5.8378906-1.8195801-41.5014648,25.4405518-60.6318359,41.0383301c-4.1992188-1.494751-15.296875-4.6743164-28.375-3.8312988
	c3.0917969-5.0894775,8.5810547-6.5087891,12.2431641-7.4018555c-6.7202148-1.7751465-13.6572266,0.84729-17.434082,3.2233887
	c7.3046875-9.763916,6.1494141-17.1234131,4.6650391-20.5874023c-0.3964844,17.4230957-14.7895508,13.5460205-19.2392578,24.3864746
	c-6.3666992-5.8907471-9.6245117-5.7224121-12.7875977-6.5834961c2.0639648,1.4733887,4.5410156,4.2755127,6.1933594,7.2788086
	c-10.984375-0.3352051-18.3994141,2.1181641-22.324707,3.5153809
	c-19.1303711-15.5977783-54.7944336-42.8579102-60.6318359-41.0383301
	c-11.1391602,3.4719238-16.8681641,59.0058594,1.2841797,100.767334
	c-2.4165039,6.7298584-3.7885742,12.3200836-3.9736328,18.5979156c-3.168457-2.0891113-9.6538086-5.814209-12.5424805-5.9645996
	c2.4228516,2.1745605,7.3129883,6.7314453,9.7382812,12.9243164c-3.8110352,0.0871582-9.5883789-0.8239746-13.3798828-2.0704346
	c1.5576172,2.6147461,3.3652344,5.0081787,12.7177734,8.6422119c-5.0029297,0.2402344-10.5585938,1.4829102-13.2265625,2.9448242
	c5.3466797,1.1608887,12.2910156,2.6098633,18.5756836,7.0341797c-2.8525391,0.0844727-7.8579102,1.1533203-11.2573242,3.9606934
	c3.2963867,0.0974121,7.2290039-0.010498,13.2900391,2.0715332c-0.9018555,0.7155762-2.3442383,1.7021484-3.7514648,2.7009277
	c-14.7651367,0.513916-38.315918,1.3410645-40.6723633,1.4714355c-2.6459961,0.1462402-12.2314606,0.6748047-13.2851715,2.0136719
	h311.2880859C555.8463135,296.6893616,546.2618408,296.1607971,543.6153564,296.0145569z M313.5953674,205.0121002
	c2.7797852,1.0068359,6.9619141,2.9821777,8.6787109,4.0657959c-2.2490234,2.1668701-7.3237305,8.847168-11.46875,15.5003662
	c-11.9165039-18.4754639-11.1582031-52.3276367-6.7133789-67.7143555
	c7.015625,3.1514893,26.0214844,24.0231934,32.7036133,35.2834473c-2.6196289-2.3511963-8.7285156-5.1611328-13.5014648-4.3010254
	c5.4467773,3.0933838,7.777832,4.7463379,12.1860352,9.8754883c-8.2016602-4.2954102-18.8828125-3.9790039-24.9902344-2.7016602
	c8.4575195,2.9091797,13.3466797,5.3886719,17.1469727,8.8723145
	C325.0084534,203.454483,318.5470276,203.3952789,313.5953674,205.0121002z M356.740387,289.8482971
	c-13.9174805,0-25.199707-11.7487793-25.199707-26.2415771c0-14.4928131,11.2822266-26.2415924,25.199707-26.2415924
	s25.2001953,11.7487793,25.2001953,26.2415924C381.9405823,278.0995178,370.6578674,289.8482971,356.740387,289.8482971z
	 M404.9806213,290.0262756c-3.4052734,2.0576172-2.6269531,2.3681641-3.7246094,2.3681641
	c-1.097168,0-0.3183594-0.3105469-3.7241211-2.3681641c-3.1948242-1.9304199-3.9291992-3.1538086-4.0288086-3.6906738
	c-0.1962891-1.0600586,3.3149414-2.5383301,7.7529297-2.5383301c4.4384766,0,7.949707,1.4782715,7.753418,2.5383301
	C408.9103088,286.872467,408.1754456,288.0958557,404.9806213,290.0262756z M445.7721252,289.8482971
	c-13.9174805,0-25.199707-11.7487793-25.199707-26.2415771c0-14.4928131,11.2822266-26.2415924,25.199707-26.2415924
	s25.199707,11.7487793,25.199707,26.2415924C470.9718323,278.0995178,459.6896057,289.8482971,445.7721252,289.8482971z
	 M480.2379456,209.0778961c1.7172852-1.0836182,5.8994141-3.05896,8.6787109-4.0657959
	c-4.9506836-1.6168213-11.4125977-1.5576172-14.0410156-1.1196289c3.800293-3.4836426,8.6894531-5.9631348,17.1474609-8.8723145
	c-6.1074219-1.2773438-16.7890625-1.59375-24.9907227,2.7016602c4.4077148-5.1291504,6.7397461-6.7821045,12.1860352-9.8754883
	c-4.7734375-0.8601074-10.8818359,1.9498291-13.5009766,4.3010254c6.6816406-11.2602539,25.6875-32.131958,32.703125-35.2834473
	c4.4448242,15.3867188,5.203125,49.2388916-6.7133789,67.7143555
	C487.5621643,217.9250641,482.486969,211.2447662,480.2379456,209.0778961z M357.9640198,245.8634186
	c-5.4394531,0-10.284668,2.6708984-13.4267578,6.8325195c2.7529297-0.4941406,5.5131836,1.1082764,6.3891602,3.8446198
	c0.9536133,2.9796143-0.6884766,6.1682129-3.6679688,7.1219482c-2.3847656,0.7630615-4.8999023-0.1391602-6.2993164-2.0559082
	c-0.0927734,0.7619629-0.1464844,1.5368652-0.1464844,2.3254395c0,9.9790039,7.6791992,18.0686035,17.1513672,18.0686035
	s17.1513672-8.0895996,17.1513672-18.0686035C375.115387,253.9530182,367.4361877,245.8634186,357.9640198,245.8634186z
	 M366.6266174,271.9161682c-1.7470703,0-3.1635742-1.4165039-3.1635742-3.1640625s1.4165039-3.1640625,3.1635742-3.1640625
	c1.7480469,0,3.1645508,1.4165039,3.1645508,3.1640625S368.3746643,271.9161682,366.6266174,271.9161682z"/>
<path d="M556.9000244,298.0282288H245.6119537c1.0537109-1.3388672,10.6391754-1.8674316,13.2851715-2.0136719
	c2.3564453-0.1303711,25.9072266-0.9575195,40.6723633-1.4714355c1.4072266-0.9987793,2.8496094-1.9853516,3.7514648-2.7009277
	c-6.0610352-2.0820312-9.9936523-1.9741211-13.2900391-2.0715332c3.3994141-2.807373,8.4047852-3.8762207,11.2573242-3.9606934
	c-6.284668-4.4243164-13.2290039-5.873291-18.5756836-7.0341797c2.6679688-1.4619141,8.2236328-2.7045898,13.2265625-2.9448242
	c-9.3525391-3.6340332-11.1601562-6.0274658-12.7177734-8.6422119c3.7915039,1.24646,9.5688477,2.1575928,13.3798828,2.0704346
	c-2.425293-6.1928711-7.3154297-10.7497559-9.7382812-12.9243164c2.8886719,0.1503906,9.3740234,3.8754883,12.5424805,5.9645996
	c0.1850586-6.277832,1.5571289-11.8680573,3.9736328-18.5979156c-18.1523438-41.7614746-12.4233398-97.2954102-1.2841797-100.767334
	c5.8374023-1.8195801,41.5014648,25.4405518,60.6318359,41.0383301c3.925293-1.3972168,11.340332-3.8505859,22.324707-3.5153809
	c-1.6523438-3.0032959-4.1293945-5.8054199-6.1933594-7.2788086c3.1630859,0.861084,6.4208984,0.692749,12.7875977,6.5834961
	c4.449707-10.8404541,18.8427734-6.9633789,19.2392578-24.3864746c1.484375,3.4639893,2.6396484,10.8234863-4.6650391,20.5874023
	c3.7768555-2.3760986,10.7138672-4.9985352,17.434082-3.2233887c-3.6621094,0.8930664-9.1513672,2.3123779-12.2431641,7.4018555
	c13.078125-0.8430176,24.1757812,2.3365479,28.375,3.8312988c19.1303711-15.5977783,54.7939453-42.8579102,60.6318359-41.0383301
	c11.1391602,3.4719238,16.8681335,59.0058594-1.2841797,100.767334c2.4165039,6.7298584,3.7890625,12.3200836,3.9736328,18.5979156
	c3.168457-2.0891113,9.6537781-5.814209,12.54245-5.9645996c-2.4233398,2.1745605-7.3129578,6.7314453-9.7382507,12.9243164
	c3.8110352,0.0871582,9.5883484-0.8239746,13.379364-2.0704346c-1.5576172,2.6147461-3.3647461,5.0081787-12.7167664,8.6422119
	c5.0029297,0.2402344,10.5585632,1.4829102,13.2260437,2.9448242c-5.3466797,1.1608887-12.2909851,2.6098633-18.5756531,7.0341797
	c2.8530273,0.0844727,7.8579102,1.1533203,11.257782,3.9606934c-3.2968445,0.0974121-7.2294617-0.010498-13.2904968,2.0715332
	c0.9018555,0.7155762,2.3442383,1.7021484,3.7514648,2.7009277c14.7651062,0.513916,38.3163757,1.3410645,40.6723328,1.4714355
	C546.2618408,296.1607971,555.8463135,296.6893616,556.9000244,298.0282288z"/>
<path class="st0" d="M409.0094299,286.3356018c-0.0991211,0.5368652-0.8339844,1.7602539-4.0288086,3.6906738
	c-3.4052734,2.0576172-2.6269531,2.3681641-3.7246094,2.3681641c-1.097168,0-0.3183594-0.3105469-3.7241211-2.3681641
	c-3.1948242-1.9304199-3.9291992-3.1538086-4.0288086-3.6906738c-0.1962891-1.0600586,3.3149414-2.5383301,7.7529297-2.5383301
	C405.6944885,283.7972717,409.205719,285.2755432,409.0094299,286.3356018z"/>
<path class="st0" d="M445.7721252,237.3651276c-13.9174805,0-25.199707,11.7487793-25.199707,26.2415924
	c0,14.4927979,11.2822266,26.2415771,25.199707,26.2415771s25.199707-11.7487793,25.199707-26.2415771
	C470.9718323,249.1139069,459.6896057,237.3651276,445.7721252,237.3651276z M444.5484924,282.0006409
	c-9.4726562,0-17.1513672-8.0895996-17.1513672-18.0686035c0-0.7885742,0.0532227-1.5634766,0.1459961-2.3254395
	c1.3999023,1.916748,3.9150391,2.8189697,6.2993164,2.0559082c2.9799805-0.9537354,4.6220703-4.142334,3.668457-7.1219482
	c-0.8754883-2.7363434-3.6362305-4.3387604-6.3891602-3.8446198c3.1420898-4.1616211,7.9868164-6.8325195,13.4267578-6.8325195
	c9.472168,0,17.1513672,8.0895996,17.1513672,18.0686188C461.6998596,273.9110413,454.0206604,282.0006409,444.5484924,282.0006409z
	 M456.3756409,268.7521057c0,1.7475586-1.4165039,3.1640625-3.1640625,3.1640625s-3.1645508-1.4165039-3.1645508-3.1640625
	s1.4169922-3.1640625,3.1645508-3.1640625S456.3756409,267.0045471,456.3756409,268.7521057z"/>
<path class="st0" d="M369.7911682,268.7521057c0,1.7475586-1.4165039,3.1640625-3.1645508,3.1640625
	c-1.7470703,0-3.1635742-1.4165039-3.1635742-3.1640625s1.4165039-3.1640625,3.1635742-3.1640625
	C368.3746643,265.5880432,369.7911682,267.0045471,369.7911682,268.7521057z M381.9405823,263.60672
	c0,14.4927979-11.2827148,26.2415771-25.2001953,26.2415771s-25.199707-11.7487793-25.199707-26.2415771
	c0-14.4928131,11.2822266-26.2415924,25.199707-26.2415924S381.9405823,249.1139069,381.9405823,263.60672z M375.115387,263.9320374
	c0-9.9790192-7.6791992-18.0686188-17.1513672-18.0686188c-5.4394531,0-10.284668,2.6708984-13.4267578,6.8325195
	c2.7529297-0.4941406,5.5131836,1.1082764,6.3891602,3.8446198c0.9536133,2.9796143-0.6884766,6.1682129-3.6679688,7.1219482
	c-2.3847656,0.7630615-4.8999023-0.1391602-6.2993164-2.0559082c-0.0927734,0.7619629-0.1464844,1.5368652-0.1464844,2.3254395
	c0,9.9790039,7.6791992,18.0686035,17.1513672,18.0686035S375.115387,273.9110413,375.115387,263.9320374z"/>
<path class="st0" d="M310.4898987,195.0201569c8.4575195,2.9091797,13.3466797,5.3886719,17.1469727,8.8723145
	c-2.628418-0.4379883-9.0898438-0.4971924-14.0415039,1.1196289c2.7797852,1.0068359,6.9619141,2.9821777,8.6787109,4.0657959
	c-2.2490234,2.1668701-7.3237305,8.847168-11.46875,15.5003662c-11.9165039-18.4754639-11.1582031-52.3276367-6.7133789-67.7143555
	c7.015625,3.1514893,26.0214844,24.0231934,32.7036133,35.2834473c-2.6196289-2.3511963-8.7285156-5.1611328-13.5014648-4.3010254
	c5.4467773,3.0933838,7.777832,4.7463379,12.1860352,9.8754883
	C327.2784729,193.4264069,316.5973206,193.7428131,310.4898987,195.0201569z"/>
<path class="st0" d="M491.7071838,224.5782623c-4.1450195-6.6531982-9.2202148-13.3334961-11.4692383-15.5003662
	c1.7172852-1.0836182,5.8994141-3.05896,8.6787109-4.0657959c-4.9506836-1.6168213-11.4125977-1.5576172-14.0410156-1.1196289
	c3.800293-3.4836426,8.6894531-5.9631348,17.1474609-8.8723145c-6.1074219-1.2773438-16.7890625-1.59375-24.9907227,2.7016602
	c4.4077148-5.1291504,6.7397461-6.7821045,12.1860352-9.8754883c-4.7734375-0.8601074-10.8818359,1.9498291-13.5009766,4.3010254
	c6.6816406-11.2602539,25.6875-32.131958,32.703125-35.2834473
	C502.865387,172.2506256,503.6236877,206.1027985,491.7071838,224.5782623z"/>
</svg>
