<?xml version="1.0" encoding="utf-8"?>
<!-- Generator: Adobe Illustrator 25.0.0, SVG Export Plug-In . SVG Version: 6.00 Build 0)  -->
<svg version="1.1" id="Capa_1" xmlns="http://www.w3.org/2000/svg" xmlns:xlink="http://www.w3.org/1999/xlink" x="0px" y="0px"
	 viewBox="0 0 841.8898315 1190.5511475" style="enable-background:new 0 0 841.8898315 1190.5511475;" xml:space="preserve">
<style type="text/css">
	.st0{fill:#FFFFFF;}
</style>
<path d="M384.0545349,271.7590332c0,9.9819336-5.5585938,18.0734863-12.4160156,18.0734863
	c-6.8569336,0-12.4155273-8.0915527-12.4155273-18.0734863c0-0.8901367,0.0463867-1.7646484,0.1313477-2.6206055
	c0.9082031,0.6677246,2.0454102,1.0690918,3.2836914,1.0690918c2.9628906,0,5.3642578-2.2744141,5.3642578-5.0803223
	c0-2.7597656-2.2397461-5.0007324-5.8198242-5.0732422c2.2773438-3.8947754,5.6674805-6.3681793,9.4560547-6.3681793
	C378.4959412,253.6857758,384.0545349,261.7775879,384.0545349,271.7590332z M453.3479919,253.6857758
	c-3.7851562,0-7.1723633,2.4687653-9.449707,6.3569489c3.4321289-0.2143555,5.8134766,2.3134766,5.8134766,5.0844727
	c0,2.8059082-2.4018555,5.0803223-5.3642578,5.0803223c-1.2387695,0-2.3754883-0.4013672-3.2836914-1.0690918
	c-0.0854492,0.855957-0.1313477,1.7304688-0.1313477,2.6206055c0,9.9819336,5.5585938,18.0734863,12.4155273,18.0734863
	s12.4160156-8.0915527,12.4160156-18.0734863C465.7640076,261.7775879,460.2049255,253.6857758,453.3479919,253.6857758z
	 M572.5906982,299.2404785H251.5711365c1.0537109-1.3388672,10.6386719-1.8674316,13.284668-2.0136719
	c2.246582-0.1242676,23.7563477-0.8818359,38.5522461-1.3977051c2.3046875-3.7929688,6.1630859-8.0292969,9.199707-9.8444824
	c-3.559082-1.2404785-9.128418-0.7612305-18.8632812,3.2441406c3.5400391-7.032959,11.7373047-12.715332,19.1337891-14.3823242
	c-4.3286133-4.057373-12.0761719-3.2871094-18.6108398-0.8920898c2.9697266-5.0847168,8.7128906-7.2976074,13.1074219-8.7368164
	c-2.9599609-1.1767578-8.0239258-0.8916016-12.8051758,1.8076172c1.9848633-4.7102051,7.6391602-9.7424316,15.3452148-11.2695465
	c1.1665039-7.3908691,3.6303711-9.3067627,2.6264648-10.5959473c-13.3105469-17.0932617-24.2602539-56.4436035-11.8505859-95.458374
	c9.9248047,0.7518311,37.7075195,12.4978027,67.8105469,40.1563721c3.7700195-1.0968018,10.0214844-2.6905518,15.628418-3.7216797
	c-1.6650391-1.0985107-3.3945312-2.0053711-5.2075195-2.9274902c4.8618164-0.4724121,8.0292969-0.1655273,13.4863281,1.9624023
	c-2.3300781-3.788208-2.831543-4.8933105-8.2626953-8.059082c5.4443359-0.2021484,15.0117188,2.9816895,21.6723633,8.2199707
	c-0.7138672-10.8200684,0.6772461-20.130127,3.5043945-23.6362305c0.0249023,2.7094727,0.0239258,5.6560059,1.1933594,8.6813965
	c2.1088867-5.7896729,5.4550781-11.6130371,10.3144531-14.1890869c-2.9277344,5.2105713-5.2695312,11.5336914-4.859375,18.6763916
	c1.4868164-2.7844238,4.7807617-6.7011719,6.9086914-7.9038086c-1.3603516,5.5181885-2.9257812,9.2254639-2.0219727,18.7219238
	c6.6860352-5.2651367,16.3510742-8.7717285,21.7724609-8.5705566c-3.7041016,2.1590576-6.7241211,4.9685059-9.0209961,7.7392578
	c6.9521484,0.6777344,17.9633789,3.5773926,22.8759766,5.0065918c30.1030273-27.6585693,57.8857727-39.404541,67.8110657-40.1563721
	c11.9472656,38.831665,1.4599609,78.3651123-11.8510742,95.458374c-0.835968,1.0737305-0.0361328,2.0941162,0.4633789,9.736084
	c7.7055664,1.5268707,15.5239258,7.4192047,17.5083008,12.1294098c-4.6513672-3.0283203-9.9511719-2.543457-13.1650391-1.6005859
	c4.3945312,1.4394531,9.3696289,3.1972656,12.2841797,7.2905273c-7.1801758-2.3962402-12.684082-1.4980469-17.3320312,1.996582
	c6.4829102,1.1472168,14.5717773,7.1708984,16.9238281,12.5063477c-5.449707-2.0078125-14.4570312-1.5490723-17.3252258-0.5737305
	c3.132843,1.8728027,7.5161438,5.6298828,9.9472961,9.2197266c14.746582,0.5141602,35.359375,1.2412109,37.5556641,1.362793
	C561.9515381,297.3730469,571.5369873,297.9016113,572.5906982,299.2404785z M317.3201599,200.8618011
	c7.5571289-3.645752,16.5771484-4.2036133,25.1220703-2.5550537c-14.046875-14.486084-28.9863281-18.1275635-34.4223633-33.9683838
	c-5.7504883,9.4578857-4.2963867,44.5236816,7.3305664,57.4694824c3.2202148,3.5853271,8.5053711,4.0775146,12.8554688,0.7980957
	c-3.1572266-3.0283203-6.6904297-5.605957-11.4477539-7.6810303c4.6762695-1.9920654,11.6713867-1.4328613,18.0249023-0.3692627
	C333.1360779,209.8486176,330.962738,204.1380463,317.3201599,200.8618011z M394.4285583,274.7600098
	c-0.2734375-12.6867676-12.5957031-27.9574127-25.9331055-28.5337067
	c-14.4506836-0.6242676-22.1694336,12.1045074-21.2172852,24.7744293
	c1.0166016,13.5268555,11.8657227,23.2099609,23.9052734,23.2099609
	C383.2234802,294.2106934,394.6707458,285.998291,394.4285583,274.7600098z M420.3641052,289.0224609
	c0-1.1081543-3.3217773-2.4904785-7.8842773-2.4904785s-8.171875,1.5197754-7.9702148,2.609375
	c0.1860352,1.003418,5.4638672,6.2282715,7.9702148,6.2282715
	C415.4739685,295.3696289,420.3641052,290.1308594,420.3641052,289.0224609z M457.2478943,246.2263031
	c-13.3369141,0.5762939-25.6591797,15.8469391-25.9326172,28.5337067
	c-0.2416992,11.2382812,11.2050781,19.4506836,23.2451172,19.4506836s22.8886719-9.6831055,23.9052734-23.2099609
	C479.4183044,258.3308105,471.6990662,245.6020355,457.2478943,246.2263031z M509.6360779,221.8078461
	c11.6274719-12.9458008,13.0815735-48.0115967,7.3305969-57.4694824
	c-5.4355774,15.8408203-20.3750305,19.4822998-34.4219055,33.9683838c8.5449219-1.6485596,17.5649414-1.0906982,25.121582,2.5550537
	c-13.6425781,3.2762451-15.8154297,8.9868164-17.4628906,13.6938477c6.3540039-1.0635986,13.3491211-1.6228027,18.0249023,0.3692627
	c-4.7563477,2.0750732-8.2905273,4.65271-11.4477539,7.6810303
	C501.1307068,225.8853607,506.415863,225.3931732,509.6360779,221.8078461z"/>
<path d="M572.5906982,299.2404785H251.5711365c1.0537109-1.3388672,10.6386719-1.8674316,13.284668-2.0136719
	c2.246582-0.1242676,23.7563477-0.8818359,38.5522461-1.3977051c2.3046875-3.7929688,6.1630859-8.0292969,9.199707-9.8444824
	c-3.559082-1.2404785-9.128418-0.7612305-18.8632812,3.2441406c3.5400391-7.032959,11.7373047-12.715332,19.1337891-14.3823242
	c-4.3286133-4.057373-12.0761719-3.2871094-18.6108398-0.8920898c2.9697266-5.0847168,8.7128906-7.2976074,13.1074219-8.7368164
	c-2.9599609-1.1767578-8.0239258-0.8916016-12.8051758,1.8076172c1.9848633-4.7102051,7.6391602-9.7424316,15.3452148-11.2695465
	c1.1665039-7.3908691,3.6303711-9.3067627,2.6264648-10.5959473c-13.3105469-17.0932617-24.2602539-56.4436035-11.8505859-95.458374
	c9.9248047,0.7518311,37.7075195,12.4978027,67.8105469,40.1563721c3.7700195-1.0968018,10.0214844-2.6905518,15.628418-3.7216797
	c-1.6650391-1.0985107-3.3945312-2.0053711-5.2075195-2.9274902c4.8618164-0.4724121,8.0292969-0.1655273,13.4863281,1.9624023
	c-2.3300781-3.788208-2.831543-4.8933105-8.2626953-8.059082c5.4443359-0.2021484,15.0117188,2.9816895,21.6723633,8.2199707
	c-0.7138672-10.8200684,0.6772461-20.130127,3.5043945-23.6362305c0.0249023,2.7094727,0.0239258,5.6560059,1.1933594,8.6813965
	c2.1088867-5.7896729,5.4550781-11.6130371,10.3144531-14.1890869c-2.9277344,5.2105713-5.2695312,11.5336914-4.859375,18.6763916
	c1.4868164-2.7844238,4.7807617-6.7011719,6.9086914-7.9038086c-1.3603516,5.5181885-2.9257812,9.2254639-2.0219727,18.7219238
	c6.6860352-5.2651367,16.3510742-8.7717285,21.7724609-8.5705566c-3.7041016,2.1590576-6.7241211,4.9685059-9.0209961,7.7392578
	c6.9521484,0.6777344,17.9633789,3.5773926,22.8759766,5.0065918c30.1030273-27.6585693,57.8857727-39.404541,67.8110657-40.1563721
	c11.9472656,38.831665,1.4599609,78.3651123-11.8510742,95.458374c-0.835968,1.0737305-0.0361328,2.0941162,0.4633789,9.736084
	c7.7055664,1.5268707,15.5239258,7.4192047,17.5083008,12.1294098c-4.6513672-3.0283203-9.9511719-2.543457-13.1650391-1.6005859
	c4.3945312,1.4394531,9.3696289,3.1972656,12.2841797,7.2905273c-7.1801758-2.3962402-12.684082-1.4980469-17.3320312,1.996582
	c6.4829102,1.1472168,14.5717773,7.1708984,16.9238281,12.5063477c-5.449707-2.0078125-14.4570312-1.5490723-17.3252258-0.5737305
	c3.132843,1.8728027,7.5161438,5.6298828,9.9472961,9.2197266c14.746582,0.5141602,35.359375,1.2412109,37.5556641,1.362793
	C561.9515381,297.3730469,571.5369873,297.9016113,572.5906982,299.2404785z"/>
<path class="st0" d="M420.3641052,289.0224609c0,1.1083984-4.8901367,6.347168-7.8842773,6.347168
	c-2.5063477,0-7.7841797-5.2248535-7.9702148-6.2282715c-0.2016602-1.0895996,3.4077148-2.609375,7.9702148-2.609375
	S420.3641052,287.9143066,420.3641052,289.0224609z"/>
<path class="st0" d="M368.4954529,246.2263031c-14.4506836-0.6242676-22.1694336,12.1045074-21.2172852,24.7744293
	c1.0166016,13.5268555,11.8657227,23.2099609,23.9052734,23.2099609c12.0400391,0,23.4873047-8.2124023,23.2451172-19.4506836
	C394.1551208,262.0732422,381.8328552,246.802597,368.4954529,246.2263031z M371.6385193,289.8325195
	c-6.8569336,0-12.4155273-8.0915527-12.4155273-18.0734863c0-0.8901367,0.0463867-1.7646484,0.1313477-2.6206055
	c0.9082031,0.6677246,2.0454102,1.0690918,3.2836914,1.0690918c2.9628906,0,5.3642578-2.2744141,5.3642578-5.0803223
	c0-2.7597656-2.2397461-5.0007324-5.8198242-5.0732422c2.2773438-3.8947754,5.6674805-6.3681793,9.4560547-6.3681793
	c6.8574219,0,12.4160156,8.0918121,12.4160156,18.0732574C384.0545349,281.7409668,378.4959412,289.8325195,371.6385193,289.8325195
	z"/>
<path class="st0" d="M457.2478943,246.2263031c-13.3369141,0.5762939-25.6591797,15.8469391-25.9326172,28.5337067
	c-0.2416992,11.2382812,11.2050781,19.4506836,23.2451172,19.4506836s22.8886719-9.6831055,23.9052734-23.2099609
	C479.4183044,258.3308105,471.6990662,245.6020355,457.2478943,246.2263031z M453.3479919,289.8325195
	c-6.8569336,0-12.4155273-8.0915527-12.4155273-18.0734863c0-0.8901367,0.0458984-1.7646484,0.1313477-2.6206055
	c0.9082031,0.6677246,2.0449219,1.0690918,3.2836914,1.0690918c2.9624023,0,5.3642578-2.2744141,5.3642578-5.0803223
	c0-2.7709961-2.3813477-5.2988281-5.8134766-5.0844727c2.2773438-3.8881836,5.6645508-6.3569489,9.449707-6.3569489
	c6.8569336,0,12.4160156,8.0918121,12.4160156,18.0732574C465.7640076,281.7409668,460.2049255,289.8325195,453.3479919,289.8325195
	z"/>
<path class="st0" d="M317.3201599,200.8618011c13.6425781,3.2762451,15.815918,8.9868164,17.4628906,13.6938477
	c-6.3535156-1.0635986-13.3486328-1.6228027-18.0249023,0.3692627c4.7573242,2.0750732,8.2905273,4.65271,11.4477539,7.6810303
	c-4.3500977,3.2794189-9.6352539,2.7872314-12.8554688-0.7980957
	c-11.6269531-12.9458008-13.0810547-48.0115967-7.3305664-57.4694824
	c5.4360352,15.8408203,20.3754883,19.4822998,34.4223633,33.9683838
	C333.8973083,196.6581879,324.8772888,197.2160492,317.3201599,200.8618011z"/>
<path class="st0" d="M509.6360779,221.8078461c-3.2202148,3.5853271-8.5053711,4.0775146-12.8554688,0.7980957
	c3.1572266-3.0283203,6.6914062-5.605957,11.4477539-7.6810303c-4.6757812-1.9920654-11.6708984-1.4328613-18.0249023-0.3692627
	c1.6474609-4.7070312,3.8203125-10.4176025,17.4628906-13.6938477c-7.5566406-3.645752-16.5766602-4.2036133-25.121582-2.5550537
	c14.046875-14.486084,28.9863281-18.1275635,34.4219055-33.9683838
	C522.7176514,173.7962494,521.2635498,208.8620453,509.6360779,221.8078461z"/>
</svg>
