<svg xmlns="http://www.w3.org/2000/svg" viewBox="0 0 229.1 437.06"><path d="M144.16,360.29c-.38,8.11-.29,16.28-1.26,24.32-1.17,9.84-3.21,19.58-4.92,29.35-.36,2.1-.9,4.17-1.36,6.26-1.45,6.61-5.64,10.53-12,12.53-6.51,2-12,.48-16.82-4.18a8.74,8.74,0,0,1-1.32-11.26c.91-1.42,2.06-2.67,3.05-4a19.78,19.78,0,0,0,4-11.86A136.72,136.72,0,0,0,110,368.72c-2.52-10.28-4.94-20.59-7.63-30.82A26.31,26.31,0,0,0,98.93,331a6.9,6.9,0,0,0-3.14-2.45c-3.21-1.28-3.7-.83-4.42,2.61A184.42,184.42,0,0,1,86,351.36c-4.89,14.88-9.33,29.9-14,44.85-2.27,7.28-4.26,14.69-8.15,21.33a67.27,67.27,0,0,1-7,10.17c-6.16,7.07-14.68,5.39-21,.69-3.75-2.76-4.41-6.87-3-11.18A74,74,0,0,1,36,409.13c1.77-3.89,3.51-7.83,5.63-11.54,4.64-8.14,4.75-16.56,2.1-25.26-1.38-4.52-2.71-9.06-4.18-13.56A73,73,0,0,1,36,340.86q-.42-6.18-.82-12.37a6.49,6.49,0,0,1,.06-2.29c1.75-5.12-.33-9.38-2.47-13.92a162.3,162.3,0,0,1-12.92-39.55c-1.39-7.5-2.34-15.1-3.27-22.69-2.31-18.94-2-38-1.66-57,.1-5.33,1-10.65,1.56-16,.65-6.08,1.37-12.15,2.07-18.23.33-2.88.72-5.76,1-8.65.58-5.93,1.18-11.86,1.63-17.8.52-6.92-.62-13.74-1.59-20.56-.86-6-1.59-12.1-2.72-18.09-1.42-7.48-3.11-14.91-4.82-22.34C9.38,59.69,6.59,48,3.79,36.3c-.71-3-1.51-5.9-2.42-8.8A37.82,37.82,0,0,1,.11,13.87,8.28,8.28,0,0,1,5.25,6.35c3.16-1.45,5.91-.7,8.48,1.44A68.4,68.4,0,0,1,34.15,35.63c2.55,6.51,4.36,13.32,6.56,20a44,44,0,0,0,1.84,4.1c.89-1.08,1.88-2.09,2.65-3.24C49,50.75,52.7,44.92,56.67,39.3a34.18,34.18,0,0,1,5.72-5.94A6.82,6.82,0,0,1,71.24,33a64.36,64.36,0,0,1,9.9,8.79c3,3.49,6.3,5.37,10.9,5.58A74.77,74.77,0,0,1,128.29,59c3.11,1.92,6.18,1.29,9.32.78,4.11-.66,8.16-1,12.2.44a5.07,5.07,0,0,1,3.36,3.94,40.81,40.81,0,0,1-.56,21.27,16.2,16.2,0,0,0,.25,11.47,54.46,54.46,0,0,1,2.93,12.41,28.87,28.87,0,0,1-4.31,19.3,84.8,84.8,0,0,1-6.92,9.69,3.32,3.32,0,0,0-.6,4c4.25,9.84,6.95,20.19,9.61,30.52,1.89,7.37,2.94,15,4.26,22.46.75,4.21,1.33,8.45,1.94,12.68.56,3.94,1.24,7.86,1.57,11.82,1,12.25,1.72,24.54.93,36.8a265.37,265.37,0,0,1-5,37.62c-1.54,7.3-2.64,14.7-3.93,22.05-.39,2.21-1,2.79-3,1.95-4.78-2-9.72-3.86-14.13-6.54a88,88,0,0,1-24.12-21.79c-.28-.36-.56-.73-.87-1.07a2.13,2.13,0,0,0-2.88-.59c-1.18.76-.85,1.91-.33,2.85a37.81,37.81,0,0,0,3.4,5.43c11.76,14.29,26.5,24.09,44.64,28,8.93,1.94,17.89,3.65,26.49,6.8,11,4,21.09,9.76,29.53,18,8.88,8.68,14.79,19.12,16.65,31.45,1,6.86,0,13.71-2.09,20.39a61.66,61.66,0,0,1-18.63,29,29.32,29.32,0,0,1-15.24,6.9,10.94,10.94,0,0,1-4-.6c-7.1-1.78-11.71-7.31-12.64-14.56-1-7.86,1.65-14.38,6.71-20.16,3.92-4.48,7-9.24,6.46-15.62-.36-4.12-1.57-7.87-4.46-10.78a89.21,89.21,0,0,0-9.6-8.53,223.9,223.9,0,0,0-29.1-18.24c-1.77-1-2.09-.79-2.11,1.15,0,3.53,0,7.07,0,10.6ZM90.46,101.66c-1,10.19,7.86,21.07,20.05,21.11A20.45,20.45,0,0,0,131,102.25c.14-12.63-11.71-20-20.18-20.3C99.67,81.62,89.05,92.59,90.46,101.66ZM57.6,106.24C68,106.49,77.53,97,77.46,86.16,77.38,75.08,69,67,58.23,66.69a19.78,19.78,0,0,0-.63,39.55Z"/><path d="M103.17,0C108.48-.26,112,2.6,115,6.25a47,47,0,0,1,7.7,14.55c2.93,8.35,5.61,16.77,6.62,25.64.26,2.25,1.06,4.44,1.55,6.68a1.53,1.53,0,0,1-.28,1.23c-.18.18-.82,0-1.17-.15-1.93-.93-3.81-2-5.75-2.87-7.77-3.68-15.71-6.82-24.48-7-1.79,0-2.52-.76-2.29-2.52.25-2,.47-3.93.67-5.9.64-6.46.4-12.81-2.07-18.94C94.6,14.75,94,12.37,93,10.15c-1.32-3,.1-5.11,2-7A10.35,10.35,0,0,1,103.17,0Z"/><path d="M110.46,87.61c8-.28,14.5,5.86,14.93,14.76.39,8.2-6.77,14.92-15.21,15-9.48.05-15.3-8.53-15-14.74C95.43,96,100.48,87.35,110.46,87.61Z"/><path d="M43.24,85.53c.06-9.81,8.66-14.4,14.86-14.3A15.17,15.17,0,0,1,72.93,86.77c-.28,8.82-7,14.43-15.9,14C48.9,100.42,43,94,43.24,85.53Z"/></svg>