<svg xmlns="http://www.w3.org/2000/svg" viewBox="0 0 485.79 241.56"><path d="M224.83,89c22.58.52,40.7,6.13,56.61,18.12a62.88,62.88,0,0,1,17,18.52c1.84,3.2,4.3,4.36,7.9,4.16A56.35,56.35,0,0,1,344.92,142,145.76,145.76,0,0,1,356,151.68a210.25,210.25,0,0,0,31.18,24.94,28.82,28.82,0,0,0,15.92,4.81c3.68,0,7.38.18,11.06-.06a28.83,28.83,0,0,0,8.51-1.46c9.14-3.59,17.18-8.74,22.57-17.33,2.2-3.5,4.69-6.81,7-10.23,3.56-5.21,8.69-7.49,14.81-7.9.76,0,1.54.07,2.3,0,5.73-.61,10,1.76,13.6,6.09a12.18,12.18,0,0,1,2.71,7.08c.39,4.33-.46,8.54-1.22,12.76-1.23,6.87-4.37,13-8,18.79a55.22,55.22,0,0,1-17.11,17.11c-6.32,4-13,7.4-20.58,8.7-7.72,1.34-15.41,2.3-23.25.78-3.43-.67-7-.52-10.45-1.2a86.36,86.36,0,0,1-10.53-3c-14.06-4.73-26.55-12.24-38.12-21.45-10.18-8.09-18.63-17.76-26.49-28a34.74,34.74,0,0,0-10-9.4c-1.39-.8-2.77-2.32-4.57-1.38-2,1-2.32,2.91-2.28,5.1a41.92,41.92,0,0,0,5.29,18.76,91.15,91.15,0,0,0,27,30.95,145.16,145.16,0,0,0,30,17.49c2.29,1,3.75,4.81,2.94,7.62-1.54,5.29-7.34,9.68-12.95,10.19-8,.71-15.45-1.58-22.8-4.21-6.94-2.47-13.19-6.34-19.56-10-11.15-6.37-22.49-12.36-34.72-16.53-6-2-12.21-2.69-18.4-3.34a100.32,100.32,0,0,1-30.55-7.78,42.06,42.06,0,0,1-14.21-9.94,10.91,10.91,0,0,0-2.74-2.4c-2.32-1.23-4.56.25-4.16,2.82a7.46,7.46,0,0,0,1.95,4,69.07,69.07,0,0,0,8.77,7.36,59.1,59.1,0,0,0,24.66,9.51c4.68.72,9.37,1.35,14.06,2,.45.07.91.16,1.35.27,1.78.45,2,.84,1.26,2.53-2.6,5.87-7.51,8.8-13.5,9.89a24.12,24.12,0,0,1-10.91-.72,89.38,89.38,0,0,1-25.7-11.85,15,15,0,0,1-1.89-1.3c-3.11-2.91-6.79-3.06-10.73-2.51-15.41,2.17-30.92,2.08-46.42,1.44-7.19-.3-14.37-1-21.54-1.67-7.62-.72-15.22-1.63-22.82-2.5-5.48-.63-10.93-1.4-16.41-2a3.36,3.36,0,0,1-3-2.26c-5.18-10.91-14.53-17.13-25.08-21.9-8.18-3.7-17-4.95-25.73-6.42-5.71-1-11.63-.8-17-3.41-1.41-.68-2.64,0-3.44,1.42a2.41,2.41,0,0,0,.71,3.29,15.63,15.63,0,0,0,5.37,2.37c5.7,1.11,11.46,2,17.21,2.82,11.36,1.66,22.2,4.78,31.37,12,3.34,2.64,6.16,5.94,9.16,9,1.24,1.26,1.05,2.63.12,4.12a20,20,0,0,1-16.63,10c-8.15.47-16.2-.65-24.2-2.21-6.15-1.2-12.3-2.36-18.49-3.34-12.94-2-21.79-9-26.33-21.38C2,182.36.12,175.84,0,169.12a69.57,69.57,0,0,1,2-17.24A73.85,73.85,0,0,1,23.5,114.63c1.89-1.79,3.69-3.69,5.64-5.43,1.26-1.12,1.06-1.86-.07-3-2.88-2.74-5.8-5.47-8.42-8.45A45.18,45.18,0,0,1,9,63.57a43,43,0,0,1,9.52-23.92,24.86,24.86,0,0,0,5.22-12.78c.9-6.47,2-12.94,4.45-19.07a25.21,25.21,0,0,1,2.66-5.29c2.16-3,4.57-3.31,7.3-.84a28.16,28.16,0,0,1,4.18,4.87c2.1,3,4.1,6.11,5.94,9.28.63,1.09,1,1,2,.67A78,78,0,0,1,71,13c7-.4,14,1.15,20.81,2.81a7.77,7.77,0,0,1,2.18.65c5.09,3.11,8.73.75,12.28-2.94a30.67,30.67,0,0,1,13-8.38c.44-.13.84-.39,1.29-.5,5.15-1.21,7.93.85,8.29,6.24a60.87,60.87,0,0,1-1.3,17.82c-.57,2.42.1,3.63,1.59,5.15a53.52,53.52,0,0,1,13.65,23.61c3.38,12.2,1.61,23.59-5.49,34.12A21.85,21.85,0,0,0,136,93.48a3.5,3.5,0,0,0-.18,1,3.25,3.25,0,0,0,.87.06c3.25-.76,6.46-1.89,9.76-2.23,8.4-.87,16.79-1,24.83,2.33a18.35,18.35,0,0,1,9.3,8.45c3.93,7.06,5.13,14.25,2.64,22-1.69,5.26-3.1,10.62-6.9,14.87-2,2.2-1.84,4.38-.28,6.69a34.65,34.65,0,0,1,5.72,14.39,23.56,23.56,0,0,1-2,13.4c-1.9,4.25-6.28,5.45-11.48,3.6a16,16,0,0,1-8.05-6.62,57.66,57.66,0,0,1-8.49-23.08,42.23,42.23,0,0,1,1.63-19,12.18,12.18,0,0,0,.22-5c-.25-1.84-2-2.36-3.45-1.19a6.57,6.57,0,0,0-1.48,1.71,23.12,23.12,0,0,0-3.33,9.46,60.09,60.09,0,0,0,7.32,37.18,37.69,37.69,0,0,0,6.68,8.69c4.35,4.17,9.87,5.5,15.78,4.48,5.63-1,9.38-4.4,11.17-9.78a31.86,31.86,0,0,0,0-21.2,62.71,62.71,0,0,0-3.69-7.88,3.17,3.17,0,0,1,0-3.71,51.22,51.22,0,0,0,7.21-17.76c1.67-7.4,1.53-14.62-2-21.5-1.28-2.49-1.23-2.68,1.46-4.25a61.09,61.09,0,0,1,19.14-7.45C214.72,90,221.14,89.51,224.83,89ZM69,62.18c.46-10.44-7.63-24-24.49-23.46C30,39.22,21.05,50.32,21,62.28c0,14.09,11,23.79,24,24C58.27,86.43,68.93,75.43,69,62.18Zm39,25.1c14.17-.45,24.06-10.66,24.25-23.83.23-15.56-13-24.28-23.09-24.41C96.9,38.89,84.18,48.3,84,63.09,83.8,77,94.9,86.69,107.93,87.28Z"/><path d="M29.94,61.6C30,53,36.1,47.08,44.63,46.36c3.82-.33,7.31,1.9,10.4,4.25.36.26.28,1.06.48,1.58s.46,1.7.89,1.81c3.73,1,3.66,4.27,4,7A14.91,14.91,0,0,1,45.47,77.71C35.15,77.84,29.53,70.17,29.94,61.6Z"/><path d="M108.2,78.21a15.13,15.13,0,0,1-15.29-16c.32-8.94,6-14.84,15.3-15,8.59-.14,15.85,7.25,15.85,15.39A15.6,15.6,0,0,1,108.2,78.21Z"/></svg>