<svg xmlns="http://www.w3.org/2000/svg" viewBox="0 0 348.13 356.12"><path d="M95.67,295.11c-.54-4.64-1.29-9.2-1.54-13.79-.29-5.13-.16-10.3-.13-15.45,0-2,.37-3.92.38-5.87.08-16.57,3.62-32.5,9.46-47.88,6.6-17.37,14.77-34,26-48.91a256,256,0,0,1,30.35-33.12c.64-.59,1.39-1.07,2.09-1.6l7.92,3.69c.22-1.14.34-1.79.44-2.3-.38-.45-.56-.85-.84-1-8.35-3.38-10.52-10.4-11.05-18.46-.24-3.74-1.08-7.47-.91-11.18.37-8.16,1.25-16.31,1.84-24.46.19-2.67.13-5.36.16-8,0-2.1,0-4.21,0-6.63,5.79.72,8.34,5.21,12.11,8.11,2.92-1.15,5.84-2.34,8.78-3.44a67.39,67.39,0,0,1,16.56-3.6c2.64-.27,5.29-.6,7.89-1.12,10.85-2.18,21.57-1.17,32.22,1.21,2.21.5,4.26,1.68,6.69,2.67,2.6-2.14,5.25-4.79,8.33-6.74,2.79-1.76,4.59-5.31,9.29-5.46C260,59.65,258.32,67,256.54,75c5.57,7.25,7.82,16.2,7.37,25.9a43.28,43.28,0,0,1-9.82,25.37c-6.22,7.82-15,10.86-24.58,12.27.08,1.19.12,1.86.19,3,8,.34,14.42-3.2,20.9-7.23,2.23,2.44,2.62,5.67,3.56,8.64,5.19,16.36,9,33.09,12.55,49.86,1.05,5,1.7,10,2.58,15.32l41.59-1.36c.21,8.5-1.12,16.33-2.21,24.34-8.3,1.64-16.61,3.15-24.86,4.93-6.11,1.32-12.21,2.42-18.47,2a47.37,47.37,0,0,1-9-1.15c-6.19-1.6-9.11-6.36-10.71-12.14-.46-1.63-.92-3.26-1.55-5.52-2.54,2.29-1.84,4.58-1.57,6.42,1.28,8.57,9.06,15.26,17.76,15.68,3.5.16,7,.56,10.79.88,0,7,.1,13.36,0,19.76s-.34,12.81-.77,19.21c-.6,9.05-.77,18.2-2.33,27.1-3,17-10.9,31.5-24.48,42.54-4.38,3.56-7.28,2.57-8.9-2.93l-3.2-1.17c.83-2.08,1.6-4,2.49-6.21-.7-.62-1.43-1.32-2.22-1.95s-1.42-1-2.56-1.74c1.07-1.42,2-2.69,3-3.87a8.72,8.72,0,0,1,1.69-1.3c8.2-5.75,9.74-13.71,8.22-23.07A162.12,162.12,0,0,1,240,280.37a64.5,64.5,0,0,1,3.72-20.3,23.56,23.56,0,0,1,7.63-11.35A23.51,23.51,0,0,0,254,245.5c-2.17.34-3.4.26-4.35.74-3.86,2-6,5.44-7.68,9.25-4.29,9.43-5.48,19.39-5.19,29.62a199.17,199.17,0,0,0,2.23,26,24.6,24.6,0,0,1,.13,5.88c-.25,3.06-1.15,5.88-3.66,8-1.91,1.61-3.54,3.55-5.48,5.11-2.9,2.33-4.5,5-3.34,9.26l3.32,2.3-1.76,3.52h-4.46a7.62,7.62,0,0,1-.73-1.41c-2.09-8.23-4.49-16.37-5.35-24.88-.52-5.1-1.69-10.13-2.37-15.22-.73-5.45-1.31-10.91-1.82-16.38a109,109,0,0,1-.9-13.83c.25-6.93,1.13-13.83,1.69-20.75a39.83,39.83,0,0,0,.15-5.88c0-.67-.89-1.29-1.53-2.14-.65.79-1.4,1.28-1.46,1.84-.47,4.41-.8,8.84-1.2,13.26-.31,3.55-.82,7.09-1,10.64-.31,8.38.72,16.68,1.89,25,.83,5.79,1.64,11.58,2.24,17.39a192.18,192.18,0,0,0,4.84,26.08c.56,2.25,1.2,4.43-.15,7.07-4.25-1.11-7.53,4.69-12.24,1.49-.3.15-.69.22-.87.45-1.08,1.34-1.76,3.22-4.05,2.82-2.48-.43-2.87-2.63-3.29-4.42q-3.48-14.7-6.66-29.49c-2.18-10.2-4.32-20.41-6.21-30.66-1.38-7.49-2.27-15.07-3.49-22.59-.7-4.31-1.62-8.58-2.44-12.88-2.82-.21-3.12,1.26-2.82,2.94.86,4.88,1.88,9.72,2.74,14.59.89,5.06,1.61,10.16,2.51,15.21,1.21,6.79,2.46,13.57,3.81,20.33,2,10,4.13,20,6.33,30.66-10.2-5.3-21.75-6.88-30.59-14.72,4.45-9.76,6.32-19.91,7.32-30.09,1.11-11.28,0-22.4-7.08-32.08-6.84-9.36-16.08-14.86-27.3-17.2a11.71,11.71,0,0,0-4.79,0c-.94.2-1.69,1.3-3,2.41,4.13.68,7.53.84,10.67,1.82,11.81,3.67,20.81,10.79,25.31,22.57a39.2,39.2,0,0,1,2.14,11.42,90.8,90.8,0,0,1-5.89,37.61c-.24.66-.36,1.36-.48,1.8.84,4.3,3.64,6.52,7,8.51,6,3.59,12.72,5.38,19.08,8.05,2.74,1.14,5.35,2.61,7.56,3.71.48,2.89.83,5,1.3,7.87-.46,1.19-2,2.58-1.38,5.19.66,2.76-1.4,4.44-4.5,4.7-4.5.39-8.85-.58-13.13-1.79-9.2-2.62-18.42-5.18-27.56-8-14.3-4.4-25.24-13.58-34.6-24.91-.33-.41-.68-.81-1-1.22-5,2.91-9.71,6-14.72,8.51-12.87,6.42-26.62,9.36-40.91,7.92C32.42,334.29,10.89,318,5.25,296.7c-2.37-9-4.71-17.85-5.18-27.17a53.34,53.34,0,0,1,3.42-21.47c2.85-7.65,6-15.22,9.57-22.56,5.92-12.15,15.25-21.41,26.36-28.88A42.29,42.29,0,0,1,47.09,193a12.11,12.11,0,0,1,13.4,2.47c3.69,3.56,5,8.38,3.25,13.77-2.56,8-6.69,15.27-10.89,22.51C47,241.94,41.68,252.42,38.33,263.72c-1.87,6.3-3.15,12.67-2,19.42,2.19,13.33,10.62,18.76,22,21.46C71,307.63,85.35,302,95.67,295.11Zm137.59-192.9c6.78,0,11-4.6,11.36-11.42.3-5.52-5.33-11.71-11.52-11.39A11.7,11.7,0,0,0,222,91.27C222.12,97.74,226.75,102.25,233.26,102.21ZM182.2,93.55c0,7.23,4.32,11.71,11.44,11.7,6.59,0,11.23-4.73,11.22-11.42s-5.11-12.19-11.57-12C187.88,81.91,181.63,86.45,182.2,93.55Z"/><path d="M314.37,204.05c-14.1-9.91-20.84-23.85-20.75-41.57a14.72,14.72,0,0,1,3.61-.43q9.7,1.26,19.39,2.77c7.3,1.14,14.58,2.39,21.86,3.62,3.26.55,6.5,1.19,9.65,1.78,0,10.37-12,25.21-27.44,34.32.05.59.1,1.25.17,2.2l5.61.37c3.54,2.65.23,4.46-.52,6.69,2.39,1.93,3.12,4.23,1,7,1.06,1.71,3.68,2.92,1.84,5.6-2.35,3-5.89,3.23-9.91,3.3-.76,11.69-1.51,23.3-2.27,35.11,3.93,2.22,9.55,1.84,11.61,6.9a3.82,3.82,0,0,1-3.79,2.79,42,42,0,0,1-20.17-3.78c-2.2-1-3.52-2.41-2.64-5,2.36-2.7,5.6-1.57,9-2,.46-3.12,1.09-6.37,1.39-9.66.23-2.47-.06-5,.07-7.49.57-10.82,1.23-21.64,1.84-32.47C314.08,211.09,314.19,208.07,314.37,204.05Zm-13-30.88c3.29,11.39,9.16,19.84,16.59,24.18,9.39-4.79,16.14-11.35,18.54-18.17-3.91-1.71-7.86-1.37-11.86-.47-5.61,1.28-10.83,1.23-15.2-3.48A7.25,7.25,0,0,0,301.36,173.17Z"/><path d="M196.52,23.33c-5.72-3-8.44-7-8-13.15.42-5.57,5.57-11.12,13.8-10,6,.79,10.17,7.37,8.64,13.63-1,4-2.49,7.78-5.89,10.33l17.49,31.07c-5.05,1.41-9.64.22-14.07.87s-9,1.46-14,2.29c-1.14-6.22,1.14-11.9.9-17.69S196.07,29.31,196.52,23.33Z"/><path d="M233.22,98.55c-5.88-2-8.31-5.1-7.37-9.22.91-3.94,3.33-5.74,7.71-5.71a7.47,7.47,0,0,1,7.62,6.68C241.66,94,238.85,96.93,233.22,98.55Z"/><path d="M193.4,101.79c-5.66-2-8.35-5.16-7.79-8.87a8.77,8.77,0,0,1,8.3-7,8.35,8.35,0,0,1,7.71,6.86C202.17,97.08,199.76,99.77,193.4,101.79Z"/></svg>