<svg xmlns="http://www.w3.org/2000/svg" viewBox="0 0 256.08 305.81"><path d="M158.1,239.72c2.07,4.11,6.63,7.05,4.09,12.12-3.4.88-3.4.88-9.28-3.42l-1.83,1.26a19,19,0,0,0,.76,1.93c2.36,4.61,1.93,7.2-2.07,10.85-.66-.78-1.3-1.56-2-2.32s-1.17-1.27-1.74-1.89c-4.17,2.88-4.08,3-2.78,7.28a12.52,12.52,0,0,0,6.15,7.69,29.23,29.23,0,0,0,14.12,4.13,49.36,49.36,0,0,1,16.13,2.86c5.51,2,6.13,3,5.22,9.11,3.71,3.89,3.68,4.55-.61,8.71,1.28,2.12,1.72,4.48-.66,6.66-2.66,1.73-5.7,1.22-8.48.07a76.49,76.49,0,0,0-18.74-5.41,10.88,10.88,0,0,0-2.55-.48c-6.51.86-13,1.91-19.5,2.69a81.24,81.24,0,0,1-12.25.81c-7.44-.25-14.87-.48-22-3.45-5.61-2.36-11.1-4.74-15.56-9a37.6,37.6,0,0,0-4.13-3c-5.17,2.69-9,8-15.94,8.44-2.32-.45-4.73-1.43-5.14-4.46-2.91.15-5.52.44-8.12.37-4.79-.13-5.57-1-5.9-5.86-10.7-1.19-11.74-2-12.55-9.57-2.39-1.21-5-2.31-7.41-3.79-4.8-3-6.52-5.62-4.51-10.84-3.14-2.7-6.32-5.28-9.31-8.05-3.9-3.6-6.15-9.23-2.35-14.76C7.1,233.56,1.68,230.53,2,224.46c1.13-1.3,2.18-2.49,3.18-3.63-1.47-3.14-3-6.13-4.27-9.23-1.73-4.26-1.09-5.78,3-8.2.43-.25.88-.48.94-.51-.23-4.9-.63-9.49-.59-14.07s1.44-6.1,5.94-7.34c1.87-7,.57-14.9,6-21.1l4.76.77c.71-2.47,1.34-5,2.21-7.53a20.82,20.82,0,0,1,2.31-4.77c2.6-3.84,5.3-4.24,9.43-1.53,1.59-2.56,3.07-5.2,4.81-7.66,2.4-3.36,5.4-5.71,9.91-4.72,3.64,3.62,3.64,3.62-.19,14.27,1.95.77,3.91,1.52,5.85,2.33a10.19,10.19,0,0,1,1.6,1.14c-1.66,8.55-7.63,13.77-13.63,19.34.53.55,1.21,1.29,1.92,2,2.61,2.65,3.68,5.56,2,9.19-1.81,3.84-3.43,7.76-5.26,11.93,3.35,7.37-2.2,12.59-5.54,18.64l3.56,2.26c3.18,5.61,1.06,11.86,2,17.95,4,.42,4.89,3.29,5.12,6.71.2,3,.52,6,.81,9.19l2.61.92a59,59,0,0,1,5.4,13.66l7-4.24,3.85,1.93c1.67,3.15-.41,6.48,1.76,9.38l5.38-.81L77.37,275c2.3-2.92,2.5-4,.36-6-1.45-1.36-3.49-2.1-5.91-3.48-.83-2.35-1.56-5.68-5-7.41-3.2-1.6-6.09-1.4-8.83,1a38.19,38.19,0,0,1-6.6-19.78c-.5-9,.71-17.69,2.61-26.43,3.86-17.82,13.53-32.33,25.49-45.5,9-9.91,19.37-18.39,29.67-26.94,11.38-9.44,23-18.52,35-27.14,3.72-2.68,7.54-5.22,10.77-7.45-.54-3.37-1-6.06-1.49-9.33-3.56-2.6-3.69-3.79-.61-12-1-.31-2.3-.35-3-1s-1.27-2.06-1.92-3.21c.95-2.9,1.87-5.74,3-9.09a6.2,6.2,0,0,1-1.44-7.69,69.4,69.4,0,0,1,4.82-7.37c-1.91-5.47-5.62-10.71-5.27-17.18,3.24-1.86,5.05,1,7.31,1.94,2.45,1,4.71,2.46,7.42,3.91C182.1,33,202,27.49,223.75,34.1c4.55-3.67,8.91-7.23,13.36-10.69.38-.29,1.34.14,2.53.3.83,6.74,0,13.49.39,20.14,4.19,4.2,11.05,6.09,11.63,13.58l4.42,6.1c-.35,3.68-2.9,4.13-4.68,5.16L255,76.53c-1,4.18-3.87,4.86-7.54,4.37,1.75,4.55,4.17,8.92-.61,12.77-3.72,1.34-6.94-.32-10-1.86-1.92,1.42-1,2.56-.07,3.67,2.55,3,5.24,5.83,7.64,8.92,3.05,3.91,5.86,8,8.35,11.42-.31,3.66-1.76,5.55-4.25,6.77.71,3.67,4.93,6.2,2.74,11l-2.42,2c.16.45.31.94.52,1.4,1.17,2.56,2.36,5.12,3.54,7.68,1.68,3.64,1.35,6.87-2.21,9.49,1.82,5.79,4.72,11.74-2,16.47,0,2,.05,3.95,0,5.89-.36,10.68-.59,21.36-1.17,32-.3,5.47-1.22,10.91-1.86,16.36,0,.36-.08.71-.1,1.07-.4,7.46-.82,14.92-1.19,22.38s-.88,14.93-1,22.4a90.62,90.62,0,0,0,1,11.11c.46,4.21,1,8.42,1.55,13l-5.48,3.94-4.41-1.86c-1.64,1.68-3.07,4.2-7,2.05l-2.55-3.09a7.09,7.09,0,0,0-1.05.39c-3.07,1.56-3.06,1.57-6.61,0,0-3.36-.37-6.93.08-10.4a72.61,72.61,0,0,0-.09-21.78,17.1,17.1,0,0,1-.2-3.2c.15-7.68-1.14-15.22-1.89-22.83A74.28,74.28,0,0,1,218,214.74c1.42-6.39,3.13-12.79,2.67-19.45-.06-.86-.22-1.7-.34-2.62-2.39.23-2.63,2.13-2.76,3.51-.71,7.63-2.67,15-4.2,22.46a36.31,36.31,0,0,0-.47,8.54c.23,6.59.77,13.17,1,19.76.2,5.35.2,10.71.22,16.07,0,11,.08,22.08-.06,33.11,0,1.59-1.07,3.16-1.74,5L208.62,300,204,303.58l-4.07-3.43-4.52,5a6.54,6.54,0,0,1-4.56-5.42c-.66-4.56-.84-9.18-1.3-13.77a32.56,32.56,0,0,0-.93-5.67c-2.91-10.2-6.08-20.32-8.8-30.56-1.58-6-2.47-12.08-3.72-18.35-2.65.46-2.67,2.47-2.34,4.37,1.05,5.92,2.07,11.87,3.47,17.71,1.27,5.32,3,10.52,4.54,15.79a21.8,21.8,0,0,1,.43,3,7.91,7.91,0,0,1-7.71,2.91c-5.09-.75-10.24-1.21-15.3-2.19-4.7-.9-9.32-2.3-12.2-7.26l3.69.88c4.45-2.06,5.92-5.88,6-10.53h6.06c4.84-3,3.76-7.26,2.9-11.45,5.22-1.55,6.53-3.81,4.63-8.37a14.45,14.45,0,0,0-2.28-3.59c-1.25-1.5-2.66-2.88-4.06-4.26-.88-.88-1.86-1.66-2.66-2.35,1.14-4.36-.7-7.6-3-10.5a22.78,22.78,0,0,0-5.83-5.47c-8-4.86-16.27-9.36-25.22-12.42-1.74-.59-3.29-1.14-5.49.22a30.76,30.76,0,0,0,3.11,2.13c7.76,3.9,15.64,7.56,23.28,11.69,4.58,2.48,8.4,6,9.75,10.88l-3.42,2.16c12,10,12.5,10.61,12.45,15.66C163.86,242.44,161.66,237.22,158.1,239.72ZM233.72,69.27c0-6.17-4.15-10.3-10.13-10.69-5.5-.35-10.61,4.4-10.74,10.76s4.48,10.39,10.21,10.73C229,80.43,233.69,75.53,233.72,69.27Zm-39.65,2.31c.42-6.62-4.46-10.12-9.55-10.61-5.33-.51-9.81,4.26-10,10.14-.14,5.7,3.71,9.64,9.21,10.18S194.55,76.38,194.07,71.58ZM179,136.43c-2.75,3.35-5.52,6.29-4,10.9l2.79,3.31c-.44,9.54,2.25,13.47,7.25,11.13-1.3-2.44-3.51-4.84-3.66-7.35-.16-2.72,1.6-5.54,2.62-8.6l-1.62-1.42-3.24,1.68c-1.37-5.22,3.73-6.67,5.31-10.1l-3.21-3c-.09-5.35,4.8-6.28,7.64-9.19C181.58,122.64,176.5,129.36,179,136.43Zm29.12-28.95c-4.92-2.49-9,1.76-13.61.11l-4.6-3.1c-3.2,1.46-6.67,2.61-9.73.75-2.78-1.69-5-4.32-7.62-6.69l-9.17,5.21c3.66,2.35,5.86-.47,8.61-1,4.44,5.5,9.56,9.57,17.1,6.23C195.81,113,202.61,112.56,208.07,107.48Zm9.48,60.87c4,1.59,7.09.42,9.11-2.67,1.68-2.59,2.46-5.65.27-8.47-.47-.6-1.64-.65-2.92-1.11,0,3.85,2.47,8.27-3.17,9.26l-4.22-3.31c-2.87,3.17-2.28,9.64-9.34,7.58-.42-1.95-.89-4.18-1.41-6.61-3.16.87-2.39,3.32-2.26,5.16.25,3.77,2.71,5.52,6.16,6A10.85,10.85,0,0,0,217.55,168.35Z"/><path d="M206.05,27.27c-6.71,1-12.74,1.43-18.56,2.81-5.64,1.33-11.05,3.62-16.86,5.6A189.21,189.21,0,0,1,168.08,11l2.25-1c3.5,3,6.81,5.91,9.8,8.52C181.88,12.69,183.58,7,185.42.82c5.08,3.5,4.32,9.72,7.56,13.72,3.63-4.44,4.81-10.3,10-14.54C205.35,9.39,205,18.2,206.05,27.27Z"/><path d="M220.46,75.66c-3.8-2.26-4.66-5.26-3.85-8.93,3.49-4.11,6.52-5.17,9.91-3.46A7,7,0,0,1,230,71.35C228.81,75,226.3,76.16,220.46,75.66Z"/><path d="M190.66,71.65a6.33,6.33,0,0,1-6.3,5.9c-3.18,0-6.56-3.43-6.5-6.55.07-2.87,3.35-5.83,6.5-5.85A6.46,6.46,0,0,1,190.66,71.65Z"/></svg>