<?xml version='1.0' encoding='utf-8'?>
<svg xmlns="http://www.w3.org/2000/svg" xmlns:xlink="http://www.w3.org/1999/xlink" version="1.1" width="215px" height="220px" viewBox="895 631 215 220">
  <g>
		<path d="M1096.997,775.069c-0.929,0-1.845-0.429-2.432-1.233l-47.412-64.965l-44.804-27.057l-44.81,27.057l-47.406,64.965    c-0.978,1.336-2.854,1.633-4.202,0.654c-1.339-0.978-1.636-2.86-0.655-4.202l47.762-65.452c0.234-0.32,0.531-0.594,0.875-0.802    l46.883-28.309c0.952-0.575,2.155-0.575,3.107,0l46.877,28.309c0.344,0.208,0.641,0.481,0.875,0.802l47.768,65.452    c0.98,1.342,0.684,3.225-0.655,4.202C1098.233,774.881,1097.61,775.069,1096.997,775.069z"/>
		<path d="M1075.176,846.419H929.52c-1.662,0-3.007-1.346-3.007-3.008V742.165c0-1.662,1.345-3.007,3.007-3.007    c1.663,0,3.008,1.345,3.008,3.007v98.239h139.642v-98.233c0-1.662,1.345-3.007,3.007-3.007c1.663,0,3.008,1.345,3.008,3.007    v101.24C1078.184,845.073,1076.839,846.419,1075.176,846.419z"/>
		<path d="M1102.15,846.568H902.249c-1.662,0-3.008-1.345-3.008-3.008c0-1.662,1.346-3.007,3.008-3.007h199.901    c1.662,0,3.008,1.345,3.008,3.007C1105.158,845.224,1103.813,846.568,1102.15,846.568z"/>
		<path d="M1050.701,790.992h-97.003c-1.662,0-3.007-1.345-3.007-3.007s1.345-3.008,3.007-3.008h97.003    c1.662,0,3.007,1.346,3.007,3.008S1052.363,790.992,1050.701,790.992z"/>
		<path d="M1032.866,846.568H971.39c-1.662,0-3.007-1.345-3.007-3.008v-55.575c0-1.662,1.345-3.008,3.007-3.008h61.477    c1.662,0,3.007,1.346,3.007,3.008v55.575C1035.873,845.224,1034.528,846.568,1032.866,846.568z M974.397,840.554h55.461v-49.562    h-55.461V840.554z"/>
		<path d="M1032.866,846.568c-0.72,0-1.442-0.256-2.018-0.775l-61.477-55.576c-1.23-1.115-1.327-3.016-0.214-4.249    c1.121-1.23,3.019-1.328,4.249-0.215l61.477,55.576c1.23,1.116,1.327,3.016,0.214,4.249    C1034.502,846.233,1033.686,846.568,1032.866,846.568z"/>
		<path d="M971.39,846.568c-0.819,0-1.636-0.335-2.231-0.99c-1.113-1.233-1.017-3.133,0.214-4.249l61.477-55.576    c1.233-1.113,3.13-1.016,4.249,0.215c1.113,1.233,1.017,3.134-0.214,4.249l-61.477,55.576    C972.832,846.313,972.109,846.568,971.39,846.568z"/>
		<path d="M1014.291,742.788h-23.883c-1.662,0-3.007-1.346-3.007-3.008v-14.596c0-1.662,1.345-3.007,3.007-3.007h23.883    c1.662,0,3.007,1.345,3.007,3.007v14.596C1017.298,741.442,1015.953,742.788,1014.291,742.788z M993.416,736.773h17.867v-8.582    h-17.867V736.773z"/>
		<path d="M938.516,732.85c-1.662,0-3.008-1.345-3.008-3.007v-65.752c0-15.965,12.989-28.954,28.954-28.954    s28.954,12.989,28.954,28.954v21.424c0,1.662-1.346,3.007-3.008,3.007s-3.007-1.345-3.007-3.007v-21.424    c0-12.649-10.291-22.939-22.939-22.939s-22.939,10.29-22.939,22.939v65.752C941.522,731.505,940.178,732.85,938.516,732.85z"/>
		<path d="M990.408,667.098h-51.893c-1.662,0-3.008-1.345-3.008-3.007c0-1.663,1.346-3.008,3.008-3.008h51.893    c1.662,0,3.008,1.345,3.008,3.008C993.416,665.753,992.07,667.098,990.408,667.098z"/>
	</g>
</svg>
