<?xml version='1.0' encoding='utf-8'?>
<svg xmlns="http://www.w3.org/2000/svg" xmlns:xlink="http://www.w3.org/1999/xlink" version="1.1" width="231px" height="224px" viewBox="894 129 231 224">
  <g>
		<path d="M901.18,348.219c-1.653,0-2.998-1.336-3.007-2.991c-0.009-1.661,1.33-3.015,2.992-3.023l215.901-1.146    c0.003,0,0.009,0,0.015,0c1.653,0,2.999,1.336,3.008,2.991c0.009,1.661-1.33,3.015-2.993,3.023l-215.901,1.146    C901.191,348.219,901.186,348.219,901.18,348.219z"/>
		<path d="M1111.751,222.076h-34.483c-0.605,0-1.195-0.182-1.695-0.523l-66.441-45.316l-66.442,45.316    c-0.499,0.341-1.09,0.523-1.694,0.523H906.51c-1.662,0-3.007-1.347-3.007-3.007v-61.306c0-1.661,1.345-3.007,3.007-3.007h205.241    c1.662,0,3.008,1.346,3.008,3.007v61.306C1114.759,220.729,1113.413,222.076,1111.751,222.076z M1078.195,216.062h30.549v-55.291    H909.518v55.291h30.549l67.37-45.949c1.021-0.696,2.366-0.696,3.389,0L1078.195,216.062z"/>
		<path d="M1060.084,222.076c-0.584,0-1.172-0.169-1.691-0.523l-49.262-33.6l-49.262,33.6c-1.372,0.937-3.242,0.583-4.18-0.79    c-0.937-1.372-0.581-3.244,0.79-4.179l50.957-34.755c1.021-0.696,2.366-0.696,3.389,0l50.956,34.755    c1.372,0.936,1.728,2.808,0.79,4.179C1061.99,221.616,1061.045,222.076,1060.084,222.076z"/>
		<path d="M1030.308,319.66h-42.354c-1.662,0-3.007-1.346-3.007-3.007c0-1.661,1.345-3.007,3.007-3.007h42.354    c1.662,0,3.008,1.346,3.008,3.007C1033.315,318.313,1031.97,319.66,1030.308,319.66z"/>
		<path d="M1030.308,328.398h-42.354c-1.662,0-3.007-1.347-3.007-3.007s1.345-3.007,3.007-3.007h42.354    c1.662,0,3.008,1.347,3.008,3.007S1031.97,328.398,1030.308,328.398z"/>
		<path d="M1030.308,337.137h-42.354c-1.662,0-3.007-1.347-3.007-3.007s1.345-3.007,3.007-3.007h42.354    c1.662,0,3.008,1.347,3.008,3.007S1031.97,337.137,1030.308,337.137z"/>
		<path d="M1045.336,314.773c-1.663,0-3.008-1.347-3.008-3.007v-98.572h-66.395v98.572c0,1.661-1.346,3.007-3.008,3.007    s-3.007-1.347-3.007-3.007V210.187c0-1.661,1.345-3.007,3.007-3.007h72.41c1.662,0,3.007,1.346,3.007,3.007v101.579    C1048.343,313.426,1046.998,314.773,1045.336,314.773z"/>
		<path d="M1022.901,319.66c-1.662,0-3.008-1.346-3.008-3.007v-41.708h-21.526v41.708c0,1.661-1.345,3.007-3.007,3.007    c-1.663,0-3.008-1.346-3.008-3.007v-44.715c0-1.661,1.345-3.007,3.008-3.007h27.541c1.662,0,3.007,1.347,3.007,3.007v44.715    C1025.908,318.313,1024.563,319.66,1022.901,319.66z"/>
		<path d="M949.455,261.617h-13.395c-1.662,0-3.008-1.347-3.008-3.007v-20.436c0-1.661,1.346-3.007,3.008-3.007h13.395    c1.662,0,3.007,1.347,3.007,3.007v20.436C952.462,260.271,951.117,261.617,949.455,261.617z M939.067,255.603h7.38v-14.421h-7.38    V255.603z"/>
		<path d="M1079.54,261.617h-13.397c-1.662,0-3.007-1.347-3.007-3.007v-20.436c0-1.661,1.345-3.007,3.007-3.007h13.397    c1.663,0,3.008,1.347,3.008,3.007v20.436C1082.548,260.271,1081.203,261.617,1079.54,261.617z M1069.15,255.603h7.383v-14.421    h-7.383V255.603z"/>
		<path d="M1028.531,251.398H989.73c-1.662,0-3.008-1.347-3.008-3.007s1.346-3.007,3.008-3.007h38.801    c1.662,0,3.007,1.347,3.007,3.007S1030.193,251.398,1028.531,251.398z"/>
		<path d="M1101.978,347.646H916.284c-1.663,0-3.008-1.347-3.008-3.007v-125.57c0-1.661,1.345-3.007,3.008-3.007    c1.662,0,3.007,1.346,3.007,3.007v122.563h179.68V220.255c0-1.661,1.345-3.007,3.007-3.007s3.007,1.346,3.007,3.007v124.384    C1104.984,346.299,1103.64,347.646,1101.978,347.646z"/>
		<path d="M987.953,347.646h-71.669c-1.663,0-3.008-1.347-3.008-3.007v-32.873c0-1.661,1.345-3.007,3.008-3.007h71.669    c1.662,0,3.008,1.347,3.008,3.007v32.873C990.961,346.299,989.615,347.646,987.953,347.646z M919.291,341.631h65.655v-26.858    h-65.655V341.631z"/>
		<path d="M1101.978,347.646h-71.67c-1.662,0-3.007-1.347-3.007-3.007v-32.873c0-1.661,1.345-3.007,3.007-3.007h71.67    c1.662,0,3.007,1.347,3.007,3.007v32.873C1104.984,346.299,1103.64,347.646,1101.978,347.646z M1033.315,341.631h65.655v-26.858    h-65.655V341.631z"/>
		<path d="M949.455,313.811h-13.395c-1.662,0-3.008-1.346-3.008-3.007v-19.546c0-1.661,1.346-3.007,3.008-3.007h13.395    c1.662,0,3.007,1.346,3.007,3.007v19.546C952.462,312.465,951.117,313.811,949.455,313.811z M939.067,307.797h7.38v-13.532h-7.38    V307.797z"/>
		<path d="M1079.54,313.811h-13.397c-1.662,0-3.007-1.346-3.007-3.007v-19.546c0-1.661,1.345-3.007,3.007-3.007h13.397    c1.663,0,3.008,1.346,3.008,3.007v19.546C1082.548,312.465,1081.203,313.811,1079.54,313.811z M1069.15,307.797h7.383v-13.532    h-7.383V307.797z"/>
		<path d="M1076.21,160.771h-23.987c-1.662,0-3.008-1.347-3.008-3.007v-21.324c0-1.661,1.346-3.007,3.008-3.007h23.987    c1.662,0,3.007,1.347,3.007,3.007v21.324C1079.217,159.424,1077.872,160.771,1076.21,160.771z M1055.229,154.756h17.974v-15.31    h-17.974V154.756z"/>
	</g>
</svg>
