<?xml version='1.0' encoding='utf-8'?>
<svg xmlns="http://www.w3.org/2000/svg" xmlns:xlink="http://www.w3.org/1999/xlink" version="1.1" width="265px" height="218px" viewBox="570 135 265 218">
  <g>
		<path d="M827.29,348.219H577.924c-1.661,0-3.007-1.347-3.007-3.007s1.346-3.007,3.007-3.007H827.29    c1.662,0,3.007,1.347,3.007,3.007S828.952,348.219,827.29,348.219z"/>
		<path d="M785.018,227.676c-0.634,0-1.274-0.2-1.817-0.615l-80.586-61.377l-80.584,61.377c-1.324,1.01-3.208,0.749-4.214-0.57    c-1.007-1.321-0.751-3.208,0.57-4.214l82.407-62.766c1.077-0.819,2.571-0.819,3.643,0l82.407,62.766    c1.321,1.005,1.577,2.893,0.572,4.214C786.821,227.268,785.925,227.676,785.018,227.676z"/>
		<path d="M580.871,237.72c-0.907,0-1.803-0.408-2.395-1.185c-1.007-1.321-0.752-3.208,0.57-4.214l121.747-92.728    c1.077-0.821,2.571-0.818,3.643,0l121.733,92.722c1.321,1.006,1.577,2.893,0.573,4.214c-1.008,1.319-2.894,1.579-4.215,0.57    l-119.912-91.334l-119.924,91.34C582.145,237.521,581.505,237.72,580.871,237.72z"/>
		<path d="M785.021,227.676H620.208c-1.661,0-3.007-1.346-3.007-3.007c0-1.661,1.347-3.007,3.007-3.007h164.813    c1.662,0,3.008,1.347,3.008,3.007C788.028,226.33,786.683,227.676,785.021,227.676z"/>
		<path d="M622.9,247.769c-7.196,0-13.051-5.856-13.051-13.056c0-7.197,5.854-13.051,13.051-13.051    c7.198,0,13.054,5.854,13.054,13.051C635.955,241.913,630.099,247.769,622.9,247.769z M622.9,227.676    c-3.879,0-7.036,3.157-7.036,7.037c0,3.882,3.157,7.041,7.036,7.041c3.881,0,7.04-3.159,7.04-7.041    C629.94,230.833,626.782,227.676,622.9,227.676z"/>
		<path d="M782.328,247.769c-7.195,0-13.052-5.856-13.052-13.056c0-7.197,5.856-13.051,13.052-13.051    c7.194,0,13.051,5.854,13.051,13.051C795.379,241.913,789.522,247.769,782.328,247.769z M782.328,227.676    c-3.88,0-7.037,3.157-7.037,7.037c0,3.882,3.157,7.041,7.037,7.041c3.879,0,7.036-3.159,7.036-7.041    C789.364,230.833,786.207,227.676,782.328,227.676z"/>
		<path d="M782.328,247.769H622.9c-1.661,0-3.007-1.347-3.007-3.007s1.346-3.007,3.007-3.007h159.428    c1.662,0,3.007,1.347,3.007,3.007S783.99,247.769,782.328,247.769z"/>
		<path d="M622.9,267.856c-7.196,0-13.051-5.856-13.051-13.054c0-7.195,5.854-13.048,13.051-13.048    c7.198,0,13.054,5.853,13.054,13.048C635.955,262,630.099,267.856,622.9,267.856z M622.9,247.769    c-3.879,0-7.036,3.156-7.036,7.034c0,3.881,3.157,7.04,7.036,7.04c3.881,0,7.04-3.159,7.04-7.04    C629.94,250.924,626.782,247.769,622.9,247.769z"/>
		<path d="M782.328,267.856c-7.195,0-13.052-5.856-13.052-13.054c0-7.195,5.856-13.048,13.052-13.048    c7.194,0,13.051,5.853,13.051,13.048C795.379,262,789.522,267.856,782.328,267.856z M782.328,247.769    c-3.88,0-7.037,3.156-7.037,7.034c0,3.881,3.157,7.04,7.037,7.04c3.879,0,7.036-3.159,7.036-7.04    C789.364,250.924,786.207,247.769,782.328,247.769z"/>
		<path d="M710.2,267.856h-87.3c-1.661,0-3.007-1.347-3.007-3.007c0-1.661,1.346-3.007,3.007-3.007h87.3    c1.662,0,3.007,1.346,3.007,3.007C713.207,266.51,711.862,267.856,710.2,267.856z"/>
		<path d="M782.328,267.856h-36.587c-1.662,0-3.008-1.347-3.008-3.007c0-1.661,1.346-3.007,3.008-3.007h36.587    c1.662,0,3.007,1.346,3.007,3.007C785.335,266.51,783.99,267.856,782.328,267.856z"/>
		<path d="M755.547,207.589H649.683c-1.661,0-3.007-1.347-3.007-3.007s1.347-3.007,3.007-3.007h105.864    c1.662,0,3.008,1.347,3.008,3.007S757.209,207.589,755.547,207.589z"/>
		<path d="M732.114,187.498h-59c-1.661,0-3.007-1.347-3.007-3.007s1.346-3.007,3.007-3.007h59c1.662,0,3.007,1.347,3.007,3.007    S733.776,187.498,732.114,187.498z"/>
		<path d="M622.9,287.948c-7.196,0-13.051-5.856-13.051-13.056c0-7.196,5.854-13.051,13.051-13.051    c7.198,0,13.054,5.854,13.054,13.051C635.955,282.092,630.099,287.948,622.9,287.948z M622.9,267.856    c-3.879,0-7.036,3.157-7.036,7.036c0,3.883,3.157,7.041,7.036,7.041c3.881,0,7.04-3.158,7.04-7.041    C629.94,271.013,626.782,267.856,622.9,267.856z"/>
		<path d="M782.328,287.948c-7.195,0-13.052-5.856-13.052-13.056c0-7.196,5.856-13.051,13.052-13.051    c7.194,0,13.051,5.854,13.051,13.051C795.379,282.092,789.522,287.948,782.328,287.948z M782.328,267.856    c-3.88,0-7.037,3.157-7.037,7.036c0,3.883,3.157,7.041,7.037,7.041c3.879,0,7.036-3.158,7.036-7.041    C789.364,271.013,786.207,267.856,782.328,267.856z"/>
		<path d="M709.472,287.948H622.9c-1.661,0-3.007-1.347-3.007-3.007s1.346-3.007,3.007-3.007h86.571    c1.662,0,3.007,1.347,3.007,3.007S711.134,287.948,709.472,287.948z"/>
		<path d="M782.328,287.948h-36.587c-1.662,0-3.008-1.347-3.008-3.007s1.346-3.007,3.008-3.007h36.587    c1.662,0,3.007,1.347,3.007,3.007S783.99,287.948,782.328,287.948z"/>
		<path d="M622.9,308.039c-7.196,0-13.051-5.856-13.051-13.054c0-7.197,5.854-13.051,13.051-13.051    c7.198,0,13.054,5.854,13.054,13.051C635.955,302.183,630.099,308.039,622.9,308.039z M622.9,287.948    c-3.879,0-7.036,3.157-7.036,7.037c0,3.881,3.157,7.04,7.036,7.04c3.881,0,7.04-3.159,7.04-7.04    C629.94,291.105,626.782,287.948,622.9,287.948z"/>
		<path d="M782.328,308.039c-7.195,0-13.052-5.856-13.052-13.054c0-7.197,5.856-13.051,13.052-13.051    c7.194,0,13.051,5.854,13.051,13.051C795.379,302.183,789.522,308.039,782.328,308.039z M782.328,287.948    c-3.88,0-7.037,3.157-7.037,7.037c0,3.881,3.157,7.04,7.037,7.04c3.879,0,7.036-3.159,7.036-7.04    C789.364,291.105,786.207,287.948,782.328,287.948z"/>
		<path d="M710.2,308.039h-87.3c-1.661,0-3.007-1.347-3.007-3.007s1.346-3.007,3.007-3.007h87.3c1.662,0,3.007,1.347,3.007,3.007    S711.862,308.039,710.2,308.039z"/>
		<path d="M622.9,328.128c-7.196,0-13.051-5.856-13.051-13.055c0-7.195,5.854-13.048,13.051-13.048    c7.198,0,13.054,5.853,13.054,13.048C635.955,322.272,630.099,328.128,622.9,328.128z M622.9,308.039    c-3.879,0-7.036,3.155-7.036,7.034c0,3.882,3.157,7.041,7.036,7.041c3.881,0,7.04-3.158,7.04-7.041    C629.94,311.194,626.782,308.039,622.9,308.039z"/>
		<path d="M782.328,328.128c-7.195,0-13.052-5.856-13.052-13.055c0-7.195,5.856-13.048,13.052-13.048    c7.194,0,13.051,5.853,13.051,13.048C795.379,322.272,789.522,328.128,782.328,328.128z M782.328,308.039    c-3.88,0-7.037,3.155-7.037,7.034c0,3.882,3.157,7.041,7.037,7.041c3.879,0,7.036-3.158,7.036-7.041    C789.364,311.194,786.207,308.039,782.328,308.039z"/>
		<path d="M710.2,328.128h-87.3c-1.661,0-3.007-1.346-3.007-3.007c0-1.661,1.346-3.007,3.007-3.007h87.3    c1.662,0,3.007,1.347,3.007,3.007C713.207,326.782,711.862,328.128,710.2,328.128z"/>
		<path d="M782.328,308.039h-36.587c-1.662,0-3.008-1.347-3.008-3.007s1.346-3.007,3.008-3.007h36.587    c1.662,0,3.007,1.347,3.007,3.007S783.99,308.039,782.328,308.039z"/>
		<path d="M782.328,328.128h-36.587c-1.662,0-3.008-1.346-3.008-3.007c0-1.661,1.346-3.007,3.008-3.007h36.587    c1.662,0,3.007,1.347,3.007,3.007C785.335,326.782,783.99,328.128,782.328,328.128z"/>
		<path d="M622.9,348.219c-7.196,0-13.051-5.856-13.051-13.054c0-7.196,5.854-13.051,13.051-13.051    c7.198,0,13.054,5.855,13.054,13.051C635.955,342.363,630.099,348.219,622.9,348.219z M622.9,328.128    c-3.879,0-7.036,3.157-7.036,7.037c0,3.881,3.157,7.04,7.036,7.04c3.881,0,7.04-3.158,7.04-7.04    C629.94,331.285,626.782,328.128,622.9,328.128z"/>
		<path d="M782.328,348.219c-7.195,0-13.052-5.856-13.052-13.054c0-7.196,5.856-13.051,13.052-13.051    c7.194,0,13.051,5.855,13.051,13.051C795.379,342.363,789.522,348.219,782.328,348.219z M782.328,328.128    c-3.88,0-7.037,3.157-7.037,7.037c0,3.881,3.157,7.04,7.037,7.04c3.879,0,7.036-3.158,7.036-7.04    C789.364,331.285,786.207,328.128,782.328,328.128z"/>
		<path d="M782.328,348.219H622.9c-1.661,0-3.007-1.347-3.007-3.007s1.346-3.007,3.007-3.007h159.428    c1.662,0,3.007,1.347,3.007,3.007S783.99,348.219,782.328,348.219z"/>
		<path d="M745.741,348.219H710.2c-1.662,0-3.008-1.347-3.008-3.007v-82.649c0-1.661,1.346-3.007,3.008-3.007h35.541    c1.662,0,3.007,1.347,3.007,3.007v82.649C748.748,346.872,747.403,348.219,745.741,348.219z M713.207,342.204h29.526V265.57    h-29.526V342.204z"/>
		<path d="M780.621,204.41c-1.662,0-3.007-1.347-3.007-3.007v-56.41h-28.866v29.842c0,1.661-1.345,3.007-3.007,3.007    s-3.008-1.347-3.008-3.007v-32.85c0-1.661,1.346-3.007,3.008-3.007h34.88c1.662,0,3.008,1.347,3.008,3.007v59.417    C783.629,203.063,782.283,204.41,780.621,204.41z"/>
		<path d="M780.621,161.023h-34.88c-1.662,0-3.008-1.347-3.008-3.007s1.346-3.007,3.008-3.007h34.88    c1.662,0,3.008,1.347,3.008,3.007S782.283,161.023,780.621,161.023z"/>
	</g>
</svg>
