<?xml version='1.0' encoding='utf-8'?>
<svg xmlns="http://www.w3.org/2000/svg" xmlns:xlink="http://www.w3.org/1999/xlink" version="1.1" width="255px" height="235px" viewBox="273 616 255 235">
  <g>
		<path d="M520.458,846.568H280.461c-1.661,0-3.007-1.345-3.007-3.008c0-1.662,1.346-3.007,3.007-3.007h239.997    c1.661,0,3.007,1.345,3.007,3.007C523.465,845.224,522.119,846.568,520.458,846.568z"/>
		<g>
			<path d="M402.161,846.568h-98.533c-1.661,0-3.007-1.345-3.007-3.008V683.509c0-1.662,1.346-3.008,3.007-3.008h98.533     c1.661,0,3.007,1.346,3.007,3.008v160.052C405.168,845.224,403.821,846.568,402.161,846.568z M306.635,840.554h92.518V686.516     h-92.518V840.554z"/>
			<path d="M371.442,846.568h-37.098c-1.661,0-3.007-1.345-3.007-3.008V683.509c0-1.662,1.347-3.008,3.007-3.008h37.098     c1.661,0,3.007,1.346,3.007,3.008v160.052C374.449,845.224,373.103,846.568,371.442,846.568z M337.352,840.554h31.083V686.516     h-31.083V840.554z"/>
			<path d="M500.692,846.568h-98.53c-1.661,0-3.007-1.345-3.007-3.008v-95.745c0-1.662,1.347-3.007,3.007-3.007h98.53     c1.661,0,3.007,1.345,3.007,3.007v95.745C503.699,845.224,502.353,846.568,500.692,846.568z M405.169,840.554h92.515v-89.73     h-92.515V840.554z"/>
			<path d="M469.979,846.568h-37.101c-1.661,0-3.007-1.345-3.007-3.008v-95.745c0-1.662,1.347-3.007,3.007-3.007h37.101     c1.661,0,3.007,1.345,3.007,3.007v95.745C472.986,845.224,471.64,846.568,469.979,846.568z M435.885,840.554h31.086v-89.73     h-31.086V840.554z"/>
			<path d="M509.464,750.823H402.162c-1.661,0-3.007-1.346-3.007-3.008V729.27c0-1.662,1.347-3.007,3.007-3.007h107.302     c1.661,0,3.007,1.345,3.007,3.007v18.546C512.471,749.478,511.125,750.823,509.464,750.823z M405.169,744.809h101.287v-12.531     H405.169V744.809z"/>
			<path d="M388.596,686.516h-71.404c-1.661,0-3.007-1.345-3.007-3.007V659.26c0-1.662,1.346-3.008,3.007-3.008h71.404     c1.661,0,3.007,1.346,3.007,3.008v24.249C391.603,685.171,390.256,686.516,388.596,686.516z M320.199,680.501h65.389v-18.234     h-65.389V680.501z"/>
			<path d="M369.747,662.267H336.04c-1.661,0-3.007-1.345-3.007-3.007v-35.604c0-1.662,1.347-3.007,3.007-3.007h33.707     c1.661,0,3.007,1.345,3.007,3.007v35.604C372.754,660.922,371.408,662.267,369.747,662.267z M339.047,656.252h27.692v-29.588     h-27.692V656.252z"/>
			<path d="M371.442,846.568h-37.098c-1.661,0-3.007-1.345-3.007-3.008v-27.926c0-1.662,1.347-3.007,3.007-3.007h37.098     c1.661,0,3.007,1.345,3.007,3.007v27.926C374.449,845.224,373.103,846.568,371.442,846.568z M337.352,840.554h31.083v-21.911     h-31.083V840.554z"/>
			<path d="M371.442,818.643h-37.098c-1.661,0-3.007-1.346-3.007-3.008v-9.174c0-1.663,1.347-3.008,3.007-3.008h37.098     c1.661,0,3.007,1.345,3.007,3.008v9.174C374.449,817.297,373.103,818.643,371.442,818.643z M337.352,812.628h31.083v-3.16     h-31.083V812.628z"/>
		</g>
	</g>
</svg>
