<?xml version='1.0' encoding='utf-8'?>
<svg xmlns="http://www.w3.org/2000/svg" xmlns:xlink="http://www.w3.org/1999/xlink" version="1.1" width="199px" height="215px" viewBox="255 138 199 215">
  <g>
		<path d="M443.12,348.219H265.203c-1.661,0-3.007-1.347-3.007-3.007s1.347-3.007,3.007-3.007H443.12    c1.661,0,3.007,1.347,3.007,3.007S444.781,348.219,443.12,348.219z"/>
		<path d="M428.724,348.219H280.121c-1.661,0-3.007-1.347-3.007-3.007V223.757c0-1.007,0.504-1.947,1.344-2.505l74.299-49.373    c1.007-0.67,2.32-0.67,3.328,0l74.304,49.373c0.84,0.558,1.344,1.498,1.344,2.505v121.454    C431.731,346.872,430.385,348.219,428.724,348.219z M283.128,342.204h142.589V225.37l-71.297-47.375l-71.292,47.375V342.204z"/>
		<g>
			<path d="M271.859,229.629c-4.188,0-8.07-2.078-10.386-5.561c-3.8-5.725-2.239-13.471,3.48-17.268l82.577-54.874     c4.1-2.723,9.687-2.723,13.784,0l82.578,54.874c5.718,3.797,7.28,11.543,3.481,17.267c-2.315,3.483-6.197,5.561-10.383,5.561     c-2.452,0-4.831-0.718-6.879-2.076l-75.692-50.297l-75.681,50.296C276.69,228.91,274.312,229.629,271.859,229.629z      M354.423,155.86c-1.273,0-2.505,0.373-3.565,1.077l-82.577,54.874c-2.958,1.963-3.763,5.969-1.799,8.929     c1.896,2.852,6.059,3.709,8.926,1.8l77.347-51.401c1.01-0.669,2.322-0.669,3.329,0l77.354,51.401     c2.872,1.906,7.029,1.051,8.928-1.802c1.963-2.959,1.156-6.965-1.8-8.928l-82.578-54.874     C356.927,156.233,355.695,155.86,354.423,155.86z"/>
		</g>
		<path d="M396.327,348.219h-30.965c-1.661,0-3.007-1.347-3.007-3.007v-53.927c0-1.661,1.346-3.007,3.007-3.007h30.965    c1.661,0,3.007,1.346,3.007,3.007v53.927C399.334,346.872,397.987,348.219,396.327,348.219z M368.368,342.204h24.951v-47.912    h-24.951V342.204z"/>
		<path d="M314.19,260.439h-15.48c-1.661,0-3.007-1.347-3.007-3.007v-19.678c0-1.661,1.347-3.007,3.007-3.007h15.48    c1.661,0,3.007,1.347,3.007,3.007v19.678C317.198,259.093,315.851,260.439,314.19,260.439z M301.718,254.425h9.465v-13.664h-9.465    V254.425z"/>
		<path d="M329.673,260.439H314.19c-1.661,0-3.007-1.347-3.007-3.007v-19.678c0-1.661,1.347-3.007,3.007-3.007h15.483    c1.661,0,3.007,1.347,3.007,3.007v19.678C332.681,259.093,331.334,260.439,329.673,260.439z M317.198,254.425h9.468v-13.664    h-9.468V254.425z"/>
		<path d="M388.192,260.439H372.71c-1.661,0-3.007-1.347-3.007-3.007v-19.678c0-1.661,1.347-3.007,3.007-3.007h15.481    c1.661,0,3.007,1.347,3.007,3.007v19.678C391.199,259.093,389.853,260.439,388.192,260.439z M375.718,254.425h9.467v-13.664    h-9.467V254.425z"/>
		<path d="M403.672,260.439h-15.48c-1.661,0-3.007-1.347-3.007-3.007v-19.678c0-1.661,1.347-3.007,3.007-3.007h15.48    c1.661,0,3.007,1.347,3.007,3.007v19.678C406.679,259.093,405.333,260.439,403.672,260.439z M391.199,254.425h9.465v-13.664    h-9.465V254.425z"/>
		<path d="M314.19,324.074h-15.48c-1.661,0-3.007-1.346-3.007-3.007v-19.678c0-1.661,1.347-3.007,3.007-3.007h15.48    c1.661,0,3.007,1.346,3.007,3.007v19.678C317.198,322.728,315.851,324.074,314.19,324.074z M301.718,318.059h9.465v-13.663h-9.465    V318.059z"/>
		<path d="M329.673,324.074H314.19c-1.661,0-3.007-1.346-3.007-3.007v-19.678c0-1.661,1.347-3.007,3.007-3.007h15.483    c1.661,0,3.007,1.346,3.007,3.007v19.678C332.681,322.728,331.334,324.074,329.673,324.074z M317.198,318.059h9.468v-13.663    h-9.468V318.059z"/>
		<path d="M412.782,192.749c-1.661,0-3.007-1.347-3.007-3.007v-30.328h-18.575v13.985c0,1.661-1.347,3.007-3.007,3.007    s-3.007-1.347-3.007-3.007v-16.992c0-1.661,1.347-3.007,3.007-3.007h24.59c1.661,0,3.007,1.347,3.007,3.007v33.335    C415.789,191.402,414.442,192.749,412.782,192.749z"/>
		<path d="M417.583,159.414h-34.191c-1.661,0-3.007-1.347-3.007-3.007v-11.023c0-1.661,1.347-3.007,3.007-3.007h34.191    c1.661,0,3.007,1.347,3.007,3.007v11.023C420.59,158.067,419.244,159.414,417.583,159.414z M386.399,153.399h28.177v-5.009    h-28.177V153.399z"/>
	</g>
</svg>
