<?xml version="1.0" encoding="UTF-8"?><svg id="a" xmlns="http://www.w3.org/2000/svg" viewBox="0 0 450 540"><path d="M117.47,182.92c-.72-.62-1.36-1.36-2.16-1.86-16.7-10.51-35-16.25-54.54-18.35-10.14-1.09-20.27-1-30.41-.13-.65,.06-1.3,0-1.95-.3,15.83-4.09,31.76-3.6,47.68-.68,15.97,2.93,30.77,9.02,44.53,17.75l.41-.71c-2.36-2.41-4.69-4.84-7.07-7.23-4.76-4.77-9.62-9.44-14.29-14.29-18.13-18.84-39.58-32.33-64.5-40.29-.36-.11-.69-.29-1.01-.7,.55,.08,1.12,.11,1.65,.25,25.11,6.4,46.39,19.42,64.73,37.5,5.88,5.8,11.78,11.57,17.68,17.35,.45,.44,.94,.83,1.58,1.09-10.34-11.47-20.01-23.45-28.28-36.49-8.27-13.05-15.4-26.69-20.53-41.33,14.48,29.37,32.01,56.6,55.36,80.18,1.25-.78,2.42-1.51,3.78-2.36,.35-21.08,7.27-39.92,19.75-56.78-1.79-2.47-3.63-4.66-5.09-7.08-13.05-21.61-13.52-43.87-2.41-66.23,7.03-14.15,17.57-25.26,32.36-31.55,10.6-4.51,21.67-6.2,33.1-3.13,3.3,.88,5.99,2.64,8.48,4.98,11.84,11.09,13.86,24.7,9.53,39.46-2.14,7.31-5.75,14.2-8.72,21.27-.39,.94-.9,1.83-1.27,2.57,10.76,.59,21.41,.89,32,1.83,10.62,.95,20.92,3.54,30.83,8.3,.89-1.04,1.67-1.96,2.46-2.87,11.06-12.73,23.74-23.47,38.76-31.28,9.72-5.06,20.04-8.11,31.01-8.68,12.61-.65,24.17,2.61,34.89,9.32,18.13,11.36,28.84,27.69,32.65,48.56,5.13,28.15-9.06,56.8-34.56,69.82-16.26,8.31-33.51,11.97-51.78,10.11-6.6-.67-12.74-2.92-18.62-5.89-2.53-1.28-5.02-2.63-8.06-4.23,1.9,4.67,4.42,8.29,7.6,11.31,3.19,3.03,6.82,5.6,10.37,8.47h-14.52l-.53,.54c2.38,2.87,4.73,5.76,7.14,8.6,2.38,2.81,4.81,5.58,7.24,8.39-3.82,.64-8.17-.22-13.13-.39,7.45,7.79,16.34,12.89,24.42,19.01l-.26,.67c-6.58-1.28-13.16-2.57-19.73-3.85l-.32,.63c13.99,11.56,26.74,24.39,38.99,37.73,12.26,13.35,23.6,27.42,33.79,42.38l-.66,.84c-3.47-2.05-6.94-4.1-10.41-6.15l-.44,.44c8.42,11.31,15.75,23.26,22.09,35.8l-.62,.71c-2.85-1.84-5.7-3.67-8.81-5.68,.03,.66-.04,1.11,.09,1.48,6.29,17.89,5.98,36.02,1.39,54.13-8.51,33.56-26.78,60.63-54.73,81.12-1.74,1.28-3.6,2.39-5.92,3.91,1.69,.59,2.85,1.1,4.07,1.42,10.03,2.58,20.13,2.22,30.23,.61,16.39-2.62,32.04-7.47,45.67-17.21,18.38-13.12,25.79-31.41,24.1-53.66-1.22-16.11-7.3-30.72-13.93-45.17-1.58-3.45-3.13-6.92-4.5-10.45-.5-1.29-.46-2.79-.66-4.2l.94-.52c1.12,1.02,2.57,1.85,3.3,3.09,4.31,7.36,8.79,14.65,12.58,22.27,5.47,11,9.64,22.51,11.04,34.83,2.52,22.03-1.8,42.11-17.05,59.03-7.2,7.99-16.08,13.55-25.86,17.72-16.34,6.97-33.27,11.89-51.06,12.99-14.86,.92-29.14-1.53-41.99-9.72-.39-.25-.83-.43-1.33-.68-5.01,1.97-9.46,4.81-13.34,8.5-.76,.72-1.14,1.94-1.45,3-3.19,11.09-11.49,17.83-23.1,17.98-8.15,.11-16.32-.35-24.46-.82-17.52-1.02-34.64,1.31-51.55,5.73-2.38,.62-4.79,1.18-7.21,1.66-3,.59-5.75,.39-7.06-2.81-2.66-.37-5.15-.71-7.2-.99-1.2-2.13-2.07-3.68-3.14-5.56,.02-.45,.06-1.29,.13-2.7-1.95-.6-4.05-1.25-6.53-2.02,1.64-1.77,3.2-3.45,5.02-5.41-4.63-.4-8.8,.23-12.88,1.38-4.74,1.34-9.39,3.03-14.15,4.32-2.73,.74-5.57,1.23-8.39,1.39-4.01,.22-5.85-.69-8.23-3.06-3.07-1.22-5.67-2.25-8.23-3.26,0-1.15,0-1.8,0-2.45,.04-4.2-.72-5.22-4.71-6.62-1.21-.42-2.34-1.05-4.1-1.85,1.17-.78,1.84-1.2,2.47-1.66,.68-.49,1.59-.88,1.95-1.56,3.09-5.77,8.66-7.68,14.4-8.56,10.96-1.69,22-2.79,33.02-4.08,10.08-1.18,20.16-2.28,30.24-3.43,.44-.05,.86-.22,1.88-.48-1.76-1.27-3.11-2.24-4.45-3.22-10.64-7.75-19.79-16.92-25.97-28.65-9.71-18.41-12.78-37.65-5.97-57.74,5.33-15.75,15.01-27.76,30.91-34.02,.44-.17,.83-.45,1.22-.66,.52-4.49-4.72-18.79-8.66-23.37-1.01,.76-2.06,1.5-3.06,2.32-6.31,5.2-12.77,10.19-20.17,13.78-12.87,6.23-25.24,6.14-36.82-3.12-.96-.77-1.99-1.45-2.99-2.17-.07-.05-.18-.06-.78-.27-6.29,2.13-12.45-.5-18.57-2.77-22.32-8.29-44.59-16.73-66.87-25.11-.88-.33-1.74-.72-2.24-.92-3.44-8.69-6.75-17.05-10.29-25.98,3.57-5.39,7.38-11.14,11.31-17.07-.88-3.65-1.11-7.41,1.16-10.84,2.31-3.49,5.76-4.76,10.04-4.77,1.37-2.09,2.77-4.22,4.16-6.35,2.96-4.53,5.81-9.14,8.94-13.54,1.57-2.21,3.41-4.38,5.58-5.97,7.57-5.56,15.29-10.91,23.04-16.21,1.07-.73,2.64-1.01,3.99-1.03,9.02-.15,18.03-.16,27.05-.24,1.4-.01,2.79-.18,4.24-.28v-6.02c-7.57-.73-14.88-.21-22.21,.6,7.36-2.61,15.01-2.8,22.7-2.72,.3-.54,.56-.93,.73-1.36,.21-.52,.33-1.06,.65-2.09-17.37-5.84-34.77-6.48-52.32-1.75-17.54,4.73-31.85,15.05-45.24,26.77,23.57-27.2,53.13-37.54,88.71-31.6-1.07-.39-2.13-.81-3.22-1.15-18.64-6.01-37.24-4.63-55.84,.28-12.33,3.26-24.19,7.76-35.68,13.29-.72,.35-1.49,.62-2.51,.44,.98-.65,1.93-1.37,2.95-1.95,21.76-12.23,44.91-19.26,70.08-18.54,11.66,.33,22.63,3.48,33.07,8.6,.94,.46,1.96,.77,2.95,1.15l.44-.73Zm-3.35,20.86c-2.37-.17-4.63-.51-6.89-.48-8.82,.12-17.65,.26-26.46,.62-1.79,.07-3.78,.75-5.27,1.76-11.62,7.8-22.91,15.98-29.44,28.98-.3,.59-.74,1.1-1.1,1.66-1.95,2.99-3.89,5.98-5.95,9.15,1.37,.64,2.4,1.1,3.41,1.59,6.25,3.08,7.04,8.37,1.93,13.18-.89,.83-1.92,1.55-2.99,2.15-4.49,2.49-9.05,2.3-13.81-.06-3.24,4.29-6.4,8.46-9.71,12.84,8.16,2.66,15.41,6.14,22.24,10.47l-.3,.7c-6.79-2.68-13.58-5.35-20.37-8.03-.06,1.29,.24,2.14,.63,2.95,2.04,4.28,3.99,8.61,6.21,12.79,.64,1.2,1.9,2.37,3.15,2.89,21.36,8.89,42.76,17.67,64.16,26.48,1.89,.78,3.77,1.58,6.2,2.6-1.66-4.08-3.07-7.55-4.56-11.2-1.38-.57-2.84-1.17-4.47-1.84l-.6,2.88c-3.65,2.46-4.99,1.04-6.66-6.96-5.66-2.89-11.37-5.8-17.08-8.71l.36-.78c.89,.22,1.8,.38,2.67,.66,6.6,2.07,13.13,4.43,19.82,6.19,6.32,1.66,10.46,4.94,11.46,11.69,.29,1.94,1.22,3.78,1.86,5.67,.47,1.38,.96,2.75,1.57,4.46,1.18-1.02,1.96-1.69,2.74-2.36,.83-.72,1.66-1.45,2.54-2.22-5.84-4.03-7.27-6.36-6.19-8.83,2.77,2.23,5.66,4.56,8.07,6.5,18.5-12.12,36.38-23.83,54.4-35.63-2.14-3.13-4.27-6.24-6.41-9.37-7.09,1.01-13.85,1.21-18.99-4.46-7.53,8.8-14.75,17.34-22.1,25.78-2.24,2.57-4.66,5.01-7.27,7.19-1.79,1.49-4.04,2.43-6.08,3.61l-.66-.86c1.88-2.33,3.58-4.83,5.67-6.95,8.91-9.06,17.93-18.01,26.91-27,1.01-1.01,1.99-2.04,3.26-3.34-6.94-2.75-13.77-3.9-19.97-6.75l.08-.71c3.43-.62,6.86-1.24,10.18-1.84,.04-2.88-1.64-3.35-3.32-3.82-2.46-.69-4.99-1.19-7.35-2.14-2.62-1.05-4.46-3.02-5.36-5.86,4.17-2.92,9.35-5.12,5.94-11.79,7.1-3.33,14.26-5.06,21.91-4.36,3.69,.34,6.4,2.21,8.91,4.97,2.97,3.27,6.32,6.32,9.92,8.87,6.26,4.44,13.73,6.29,20.93,8.62,.22,.07,.52-.11,1.36-.31-.48-8.62-.97-17.29-1.45-26.03-6.73-2.56-13.19-5.03-19.67-7.43-.66-.25-1.52-.18-2.24-.03-7.22,1.53-13.92-.17-20.4-3.24-.88-.42-1.79-.8-2.85-1.27,.36,4.31-1.73,7.23-5.32,7.81-1.87,.31-3.71,.13-4.81-1.63-1.12-1.79-.37-3.48,.73-5.01,.51-.71,1.12-1.34,1.87-2.22-7.57-1.07-12.16-5.29-14.99-12.18Zm262.48-58.22c.27-.24,.57-.46,.79-.74,6.68-8.6,11.19-18.17,11.39-29.19,.25-14.37-5.26-25.83-18.34-32.91-6.68-3.62-13.93-5.42-21.38-6.55-2.8-.42-5.6-.83-8.4-1.25l.07-.68c11.86-4.36,24.01-4.49,36.79-1.72-4.53-5.37-11.95-9.25-19.61-10.99-16.72-3.79-35.21,6.69-36.04,26.5-.29,6.82-.3,13.65-.5,20.48-.07,2.52-.31,5.04-.46,7.42,.32,.19,.4,.27,.47,.27,.38-.01,.75-.04,1.12-.08,8.07-.92,15.92-.04,23.43,3.09,9.9,4.13,13.78,11.16,12.23,21.74-.32,2.21-.63,4.41-.94,6.62,3.29-3.81,5.14-8.18,6.14-12.95,1.73-8.22-.34-15.51-5.42-22.23,5.2,1.41,8.98,4.53,12.19,8.44,5.92,7.2,7.85,15.42,6.45,24.71ZM205.06,54.67c4.35-6.44,7-13.11,6.33-20.77-.41-4.74-2.69-8.17-7.15-10.12-3.96-1.73-8.07-1.97-12.27-1.45-9.58,1.19-17.68,5.62-24.78,11.87-16.31,14.34-24.01,31.93-19.46,53.83,1.26,6.08,4.14,11.38,8.4,15.88-5.4-12.52-6.19-20.51-2.43-23.89,1.61,3.11,3.26,6.28,4.91,9.45l.78-.33c-1.82-7.69-2.36-15.35,.17-22.99,2.54-7.67,9.88-17.13,13.81-17.84-1.42,3.82-3.09,7.65-4.28,11.63-1.79,5.94-1.78,9.94-.37,12.42,1.06-1.14,2.02-2.32,3.12-3.34,3.56-3.26,6.94-6.78,10.82-9.61,6.59-4.79,13.87-7.49,22.4-4.75Zm87.31,317.44c-.44-.09-.88-.25-1.31-.25-6.63-.03-13.29-.46-19.88,.06-10.26,.81-20.24,3.09-29.44,8.06-28,15.14-42.76,58-19.57,89.08,.16,.21,.4,.36,.78,.69-5.88-14.46-9-29.07-4.36-43.93,7.29-23.35,22.85-39.39,45.84-47.99,8.96-3.35,18.34-4.68,27.94-5.72Zm-50.86-191.76l.35,.67c3.37-1.85,6.75-3.69,10.12-5.55,2.78-1.53,4.63-3.83,5.7-6.82,4.17-11.72,2.76-22.83-4-33.14-3.67-5.59-9.13-8.43-15.95-8.29-6.49,.13-12.64,1.6-18.1,5.17-12.41,8.12-20.63,19.12-22.96,34.06-.24,1.52-.44,3.05-.66,4.58,1.08-.55,1.62-1.29,2.16-2.02,5.27-7.3,10.39-14.72,15.89-21.85,2.29-2.96,5.22-5.5,8.15-7.87,3.6-2.91,7.93-4.46,12.51-5.09,6.11-.84,11.22,.94,15.05,5.99,6.23,8.21,7.81,17.35,5.69,27.25-.24-1.52-.24-3.07-.24-4.62,0-5.92-1.88-11.17-5.65-15.73-1.52-1.83-3.36-2.9-5.86-2.41,1.71,3.53,3.55,6.84,4.94,10.34,3.34,8.38,1.98,16-4.27,22.61-.9,.95-1.9,1.82-2.86,2.72Zm-66.97,31.57c46.69,3.26,78.22,28.66,99.89,68.49-.14-.72-.34-1.41-.63-2.07-4.83-10.91-11.18-20.87-18.73-30.1-15-18.34-33.66-30.99-56.78-36.75-12.99-3.24-26.35-2.9-39.58-3.79-.37-.02-.77,.28-1.85,.72,8.17,3.66,15.97,6.58,23.21,10.55,7.37,4.04,14.52,8.67,21.13,13.85,6.45,5.05,12.1,11.12,18.11,16.74-.87-2.66-1.97-5.28-3.57-7.53-10.36-14.58-24.67-23.82-41.19-30.1Zm117.74-64l.21,.79c1.87-.5,3.83-.79,5.59-1.55,6.51-2.8,10.39-8.06,12.95-14.43,2.77-6.87,3.49-14.14,3.97-21.45,.51-7.85,.77-15.74,1.76-23.54,1.57-12.37,7.78-21.39,20.08-25.5,3.04-1.02,6-2.26,9-3.4-2.15,.05-4.23,.27-6.26,.75-18.98,4.5-26.67,13.63-29.42,29.7-1.37,8.03-2.2,16.17-2.91,24.29-1.13,12.87-4.76,24.55-14.53,33.65-.19,.18-.3,.46-.45,.69Zm89.2-96.14l.11-.22c-1.17-.57-2.32-1.22-3.53-1.7-16.15-6.38-32.32-5.87-48.26,.51-15.48,6.2-27.88,16.74-38.72,29.18-8.3,9.53-14.1,20.4-16.6,32.89-.39,1.95-.58,3.93-.84,5.9-.03,.19,.11,.4,.2,.7,.2-.22,.29-.28,.33-.36,.23-.52,.44-1.05,.66-1.57,10.51-24.5,26.99-44.05,49.37-58.43,13.72-8.82,28.87-12.25,45.14-9.51,4.07,.69,8.09,1.72,12.13,2.6ZM167.15,198.96l.04,.58c.53,.13,1.06,.35,1.59,.36,1.7,.05,3.41,.08,5.12,0,22.84-.94,45.67-2.04,68.53-.38,20.8,1.51,40.86,5.93,59.91,14.56,3.85,1.74,7.65,3.58,11.47,5.37-.2-.66-.57-1.02-1.01-1.28-9.94-5.79-20.25-10.78-31.2-14.38-19.48-6.41-39.66-8.26-59.98-9.07-14.34-.57-28.63,.49-42.85,2.31-3.89,.5-7.75,1.26-11.62,1.91Zm-.6,77.11c2.37,2.95,4.79,5.86,7.09,8.86,5.36,6.99,10.51,14.16,16.05,21.01,4.14,5.12,9.69,8.44,15.96,10.48,8.41,2.74,16.98,2.86,25.59,1.36,6.32-1.1,12.37-3.12,18.07-6.12-1.82,.43-3.58,1.07-5.37,1.61-18.2,5.49-34.72,2.86-48.89-10.42-4.91-4.6-9.62-9.42-14.34-14.22-4.45-4.51-8.57-9.37-14.16-12.56Zm.41-71.92l-.18,.83c1.19,.09,2.39,.22,3.58,.25,9.49,.24,18.97,.4,28.46,.68,14.83,.44,29.51,2.17,43.88,5.97,22.32,5.91,42.93,15.51,61.82,28.81,.54,.38,1.08,.77,1.64,1.12,.46,.28,.94,.52,1.42,.77-41.91-31.32-88.37-45.68-140.62-38.45Zm-49.61,277.96h7.09l.06,.7c-2.26,.57-4.53,1.08-6.76,1.72-2.1,.6-4.8-.22-6.05,2.66,27.53-5.51,55.22-9.82,83.58-12.52-2.48-2.52-4.82-2.8-7.54-2.42-6.01,.84-12.03,1.58-18.08,2.08-10.49,.87-21,1.47-31.49,2.3-7.19,.57-14.14,2.22-20.81,5.48ZM273.73,143.75c.05-.19,.17-.39,.12-.53-4.54-11.64-11.07-21.94-20.36-30.42-4.91-4.48-10.56-5.71-16.88-4.34-9.21,2-17.09,6.55-23.99,12.89-.29,.27-.48,.64-.69,.93,4.13-1.83,8.06-3.98,12.24-5.35,14.64-4.81,27.48-2.23,37.71,9.95,1.83,2.18,3.7,4.33,5.31,6.66,2.29,3.32,4.36,6.8,6.53,10.22Zm-68.01,27.01c-4.35,3.47-8.27,6.6-12.24,9.77,4.38,.59,8.63,1.01,12.81,1.77,7.54,1.37,15.04,2.99,22.57,4.42,4.74,.9,16.22,.19,20.18-1.74-.33,0-.61-.02-.89,0-.75,.08-1.5,.21-2.26,.27-9.69,.87-19.15,.23-27.93-4.48-3.73-2-6.59-5.85-11.58-4.78-.25-1.96-.44-3.42-.67-5.24Zm64.67,314.38c-7.95-4.05-16.43-5.84-25.21-6.28-19.97-.99-39.24,3.1-58.34,8.32-.25,.07-.46,.27-.69,.4,28.03-5.36,56.01-8.12,84.24-2.44Zm-89.92-131.75c-15.27,5.55-29.39,39.32-24.07,56.17,1.65-21.26,10.6-39.65,24.07-56.17ZM220.87,30.55c-.26,.46-.41,.61-.44,.78-.1,.66-.19,1.32-.22,1.98-.29,6.38-2.27,12.28-5.03,17.96-3.27,6.72-7.93,12.47-12.72,18.13-3.46,4.08-6.92,8.14-10.39,12.22l.67,.64c6.4-6.3,12.93-12.47,19.13-18.96,3.87-4.05,7.1-8.66,8.83-14.14,1.93-6.11,2.18-12.21,.15-18.61Zm-7.2,241.89c-1.78-.92-3.42-1.82-5.1-2.63-9.01-4.36-18.55-7.16-28.2-9.69-10.24-2.68-19.62-7.04-27.09-14.86-1.24-1.3-2.67-2.42-4.03-3.61-5.83-5.12-12.29-5.31-19.12-2.39-.5,.21-.9,.66-1.34,1,2.49-.29,4.75-1.05,7.06-1.31,6.1-.68,10.85,2.35,14.99,6.29,8.42,8.01,18.26,13.62,29.19,17.18,11.06,3.6,22.29,6.66,33.63,10.01Zm-47.46-164.33l-.92-.58c-16.09,11.83-25.15,27.72-27.26,47.61,1.66-9.59,5.93-18.06,11.8-25.77,4.01-5.27,8.29-10.35,12.38-15.57,1.43-1.82,2.67-3.8,4-5.7Zm25.64,229.18c-3.02,16.84,3.04,31.61,10.22,46.13-3.41-15.38-6.81-30.75-10.22-46.13Zm-21.73-213.64c6.27-12.04,12.83-23.87,21.93-34.11-4.65,1.37-8.32,3.94-11.27,7.54-6.33,7.74-8.64,17.08-10.67,26.57Zm47.76,231.36c-5.53,12.33-5.47,25.4-5.11,38.5,4.47-12.45,5.95-25.31,5.11-38.5Zm-62.69-225.42c-4.24,1.27-6.81,4.03-7.93,8.14-.75,2.75-.09,5.54,1.52,6.15,2.49,.95,4.27-.55,5.98-2.08-.34-1.26-.65-2.4-.94-3.46,3.77-2.43,4.27-5.48,1.38-8.75ZM28.25,251.73c1.33,.36,2.17,.47,2.89,.82,1.06,.51,2.29,.98,3.02,1.84,2.46,2.89,5.72,3.11,8.56,.37,2.29-2.2,1.95-4.81-.93-6.14-3.68-1.69-7.38-1.39-10.9,.47-.91,.48-1.52,1.5-2.63,2.64Zm210.47-2.83c-9.27,4.64-18.28,11.49-22.4,23.26,7.78-8.08,15.57-16.17,22.4-23.26Zm-98.33-48.7c-3.82,.21-7.57,.97-11.13,.45-3.48-.51-6.77-2.33-10.15-3.58-.46,4.51,1.06,6.85,4.97,7.54l2.06-1.6c4.68,4.27,10.01,3.21,14.24-2.81Zm60.51,55.86c-3.13-8.8-7.47-16.85-13.5-24.17,.23,10.61,5.81,18,13.5,24.17Zm27.18-89.64c.67-2.66-1.69-9.29-4.02-10.5-.85-.44-2.48-.36-3.25,.19-2.36,1.69-2.47,5.76-.51,8.47,2.11,2.92,4.78,3.56,7.77,1.85Zm6.12-8.59c1.35-3.58,.82-7.25-1.14-8.47-1.97-1.23-5.63-.45-7.33,1.56,.61,4.2,4.48,7.42,8.47,6.91Zm-113.89,94.17c4.71-.28,8.87-.63,13.03-.76,4.2-.13,8.41-.03,11.69-.03-7.68-3.41-21.32-3.59-24.72,.78Zm226.52-88.51c-9.57,2.9-19.16,2.46-28.76,.09,9.59,5.39,19.18,5.35,28.76-.09ZM185.57,67.12c-7.12,5.85-14.06,12.56-17.1,21.47,5.55-6.97,11.51-14.45,17.1-21.47Zm-13.98,435.27c5.64-3.33,11.28-6.66,16.92-10-7.23,.69-12.26,5.03-16.92,10Zm46.76-1.48c8.78-1.84,17.94-3.76,26.25-5.5-7.56-.39-18.72,1.89-26.25,5.5Zm-99.02-5.39c5.22-2.49,10.43-4.99,15.65-7.48-6.43,0-11.38,3.03-15.65,7.48Zm5.8-250.3h14.79c-3.61-3-9.69-3.19-14.79,0Zm72.37,254.7c-6.88,.77-11.47,5.28-15.99,9.89,5.33-3.3,10.66-6.59,15.99-9.89Zm-20.48-320.07c-5.6,2.79-11.2,5.58-16.8,8.38,4.72-.15,13.56-4.64,16.8-8.38Zm180.7,107.31c-2.01-5.36-8.15-12.86-11.45-14.37,3.66,4.6,7.35,9.22,11.45,14.37Zm-229.26,209.49c5.16-1.81,10.32-3.63,15.49-5.44-5.67,.4-10.93,1.94-15.49,5.44Zm16.13-225.8c4.38,1.86,8.89,2.18,13.45,0h-13.45Zm46.57,237.71c5.14-2.01,10.28-4.03,15.42-6.04-5.61,.83-11.05,2.11-15.42,6.04Zm-57.34-244.63c4.07,2.2,12.49,3.73,15.9,3.06-5.55-1.07-10.73-2.06-15.9-3.06Zm11.12-100.01l-.38-.65c-2.76,1.56-5.51,3.13-8.27,4.69l.48,.83c3.24-.75,5.9-2.48,8.17-4.87Zm20.02,324.36l-.29-.8c-4.3,1.54-8.6,3.09-12.9,4.63l.25,.7,12.93-4.54Zm16.65,11.7l.44,.99,9.98-4.47-.38-.86c-3.35,1.45-6.69,2.89-10.04,4.34Zm184.66-171.72l.71-.25c-1.27-2.53-2.55-5.07-3.82-7.6l-.53,.27c1.21,2.53,2.42,5.05,3.64,7.58Zm-34.69-54.22l-.37,.37c1.81,1.91,3.63,3.82,5.44,5.73l.56-.55c-1.87-1.85-3.75-3.7-5.62-5.55Zm37.74,92.22h-.52c.13,2.71,.25,5.42,.38,8.13l.56-.04-.41-8.1Z"/><path d="M70.69,247.94c.57,.03,1.14,0,1.7,.09,3.86,.61,7.11,2.17,8.57,6.09,1.43,3.84-.02,7.1-2.57,9.89-3.45,3.78-7.82,4.8-12.7,3.5-3.87-1.03-6.67-4.14-7.01-7.73-.41-4.34,.98-7.97,4.96-10.02,2.12-1.1,4.6-1.52,6.91-2.25l.14,.43Zm2.97,13.15c1.46-3.74,.78-6.6-1.89-7.8-2.44-1.11-4.78-.22-6.01,2.33,2.58,1.79,5.18,3.59,7.9,5.48Z"/><path d="M96.94,231.37c.37,.03,1.05,0,1.69,.15,3.72,.85,6.83,2.69,7.95,6.5,1.08,3.69-1.07,6.43-3.72,8.6-3.51,2.87-7.62,3.76-12.02,2.56-4.7-1.28-6.82-5.41-5.26-9.95,1.6-4.68,6.12-7.88,11.37-7.85Zm-.33,5.98c1.39,1.62,2.75,2.98,4.85,2.55,.8-.17,1.76-1.16,1.97-1.95,.15-.55-.73-1.9-1.35-2.05-1.79-.42-3.75-.72-5.47,1.45Z"/><path d="M82.23,226.02c-6.01-.02-10.18-4.51-8.79-9.47,1.03-3.68,4.79-6.39,9.32-6.71,4.17-.3,8.57,1.95,10.05,5.14,1.3,2.8,.54,6.38-2.42,8.27-2.38,1.52-5.25,2.29-7.91,3.39l-.26-.62Zm4.72-7.35c1.22-2.28,.27-3.63-1.2-4.6-1.37-.91-2.9-1.23-4.23,.68,1.77,1.28,3.43,2.47,5.43,3.92Z"/><path d="M102.97,291.55c-6.35-.03-9.43-4.7-6.49-10.32,1.12-2.15,3.05-4.1,5.05-5.52,2.66-1.88,6.11-1.22,8.65,.95,2.47,2.12,3.3,5.09,2.29,8.19-1.34,4.12-5.02,6.72-9.49,6.7Zm5.23-8.46c.68-3.25-.41-4.05-3.55-3.02,1.17,.99,2.19,1.86,3.55,3.02Z"/><path d="M82.4,298.05c-2.85-.05-5.58-1.15-7.66-3.62-2.1-2.48-2.39-5.69-.79-8.15,1.76-2.73,4.79-4.1,7.84-2.99,2.06,.75,4.06,2.01,5.71,3.47,2.2,1.93,3.1,4.6,1.94,7.46-1.19,2.93-3.77,3.77-7.04,3.83Z"/><path d="M60.2,242c-2.78-.05-5.1-.77-6.49-3.14-1.4-2.4-.8-4.76,.53-7,2.76-4.66,9.81-6.1,14.24-2.92,2.37,1.71,3.04,4.14,1.63,6.74-2.15,3.98-5.51,6.14-9.91,6.31Zm4.75-7.67l.88-.77c-.45-.9-.66-2.18-1.39-2.62-1.37-.83-2.98-.74-4.85,.82,2.02,.97,3.69,1.77,5.36,2.56Z"/><path d="M99.76,268.75c-.84-.52-2.96-1.14-3.9-2.55-1.33-2.01,.09-4.13,1.78-5.4,2.16-1.62,4.52-3.1,7-4.13,2.56-1.06,5.12,.13,6.34,2.32,1.07,1.91,.62,4.21-1.38,6.14-2.42,2.34-5.46,3.25-9.85,3.62Zm2.25-8.63l6.25,2.33c-1.56-3.17-3.19-3.73-6.25-2.33Z"/><path d="M70.84,282.39c-2.5-.86-4.71-2.7-7.4-.39,2.02,.51,4.04,1.02,6.07,1.52-1.14,3.25-5.83,5.64-8.91,4.58-1.7-.59-2.64-1.79-2.75-3.59-.3-4.74,5.67-9.14,10.09-7.46,2.37,.9,3.33,2.51,2.9,5.33Z"/><path d="M42.59,283.61c-2.05-.76-3.59-1.19-5.01-1.89-1.91-.95-3.24-2.49-2.86-4.77,.38-2.28,2.21-3.31,4.25-3.66,3.01-.52,5.81,.39,7.59,2.84,.79,1.08,1.19,3.42,.55,4.36-.97,1.43-3,2.14-4.52,3.12Z"/><path d="M167.05,231.93c2.91-.05,4.84,1.69,4.85,4.37,.02,2.96-3.35,5.96-6.79,6.06-2.68,.08-4.62-1.7-4.66-4.26-.04-3.13,3.15-6.11,6.6-6.16Z"/><path d="M54.29,301.32c-1.15-.14-2.67,.11-3.63-.51-3.17-2.03-5.11-5.02-5.23-8.89-.08-2.6,1.86-3.75,4.2-2.64,3.31,1.56,5.98,7.81,4.67,12.05Z"/><path d="M160.01,228.02c-.07,2.54-2.61,4.78-5.41,4.76-2.88-.02-5.42-2.48-5.32-5.15,.09-2.43,2.43-4.7,4.82-4.68,2.88,.03,5.97,2.68,5.91,5.07Z"/><path d="M166.25,248.53c4.68-4.27,9.06-8.27,13.55-12.37,1.04,5.53-1.09,9.32-5.99,10.7-2.4,.68-4.87,1.08-7.56,1.66Z"/><path d="M150.71,289.3c-.93,5.5-8.7,8.96-13.47,5.98,1.15-2.6,9.34-6.23,13.47-5.98Z"/><path d="M117.96,222.76c-1.89,.82-2.98,1.3-4.66,2.03,1.6,.37,2.62,.6,3.76,.86-.18,2.51-1.99,2.94-3.75,3.04-2.02,.11-3.43-.96-3.87-3.02-.5-2.33,1.05-4.58,4.62-6.26,1.03,.88,2.23,1.91,3.9,3.34Z"/><path d="M125.32,303.22c-.65,4.18-3.52,5.93-8.9,5.62,1-3.48,5.81-6.61,8.9-5.62Z"/></svg>