<?xml version="1.0" encoding="UTF-8"?><svg id="a" xmlns="http://www.w3.org/2000/svg" viewBox="0 0 450 540"><path d="M151.31,390.13c-1.08-1.2-1.81-2.07-2.6-2.87-13.94-14.16-21.66-31.29-23.64-50.93-2.6-25.81,3.45-50.02,14.57-73.09,9.36-19.42,22.39-36.27,37.68-51.36,7.12-7.03,14.65-13.64,22.05-20.5-14.54-5.83-20.99-18.34-25.35-32.67-1.63,1.45-2.99,2.78-4.48,3.96-6.88,5.48-14.74,6.34-23.03,4.61-17.9-3.72-31.98-13.69-43.7-27.26-11.22-12.99-17.37-28.15-17.27-45.35,.11-19.18,7.08-35.58,21.81-48.3,18.18-15.7,41.8-17.2,61.85-3.96,11,7.27,19.24,17.08,25.85,28.37,1.29,2.2,2.57,4.41,3.93,6.75,6.09-5.64,13.03-9.65,20.77-11.86,7.63-2.18,15.49-3.53,23.35-5.27-.34-1.45-.94-3.39-1.23-5.37-2.53-16.97,2.92-31.29,15.49-42.55,10.28-9.2,23.89-9.28,35.05-1.09,10.41,7.64,17.3,17.84,21.08,30.15,4.08,13.28,4.49,26.67,.52,40.03-1.11,3.74-3.05,7.22-4.66,10.95,6.49,6.64,13.24,13.55,20.22,20.69,10.18-23.8,24.22-45.27,44.47-62.28-19.48,18.81-32.77,41.39-41.15,67.07,18.7-25.15,42.53-41.46,74.35-44.34-14.58,2.41-28.12,7.53-40.5,15.72-12.37,8.19-21.75,19.3-30.71,31.05,27.95-23.99,60.41-33.35,96.73-30.24-7.72,.3-15.5,.14-23.16,1.02-7.81,.9-15.67,2.23-23.19,4.45-7.42,2.19-14.69,5.25-21.56,8.81-6.95,3.61-13.33,8.31-19.75,12.97,20.4-6.01,40.97-9.15,62.15-6.83-7.94,.37-15.93,.3-23.8,1.24-7.91,.94-15.76,2.63-23.52,4.48-7.88,1.87-15.39,4.88-22.61,8.94,.23,.67,.37,1.17,.58,1.63,.22,.47,.52,.91,.68,1.17,38.55-13.11,74.15-5.88,107.97,14.36-16.07-9.19-33.46-14.72-51.8-17.3-18.5-2.59-36.59-1.21-54.07,6.25-.1,.56-.26,1.06-.24,1.56,.01,.39,.24,.77,.4,1.26,27.32-3.75,54.16-2.65,80.33,6.45-24.74-6.93-49.8-8.32-75.22-4.45,31.37,5.76,60.69,16.58,87.05,34.8-26.44-15.73-54.71-26.46-85.68-31.37,28.13,11.58,50.62,29.71,69.14,53.01-21.19-22.1-45.25-40.02-74.16-50.94,8.98,5.89,16.61,13.09,22.1,22.35,5.51,9.3,9.09,19.13,7.65,30.17-2.55-20.92-13.08-36.74-30.56-48.39-1.24,3.27-2.27,6.35-3.57,9.32-2.76,6.3-7.4,10.75-13.49,13.98-15.03,7.98-30.49,14.82-47.03,19.02-.5,.13-.97,.37-2.15,.82,8.48,3.78,16.43,7.37,22.6,14.07,1.37-.65,2.57-1.29,3.82-1.81,2.46-1.01,4.87-2.31,7.43-2.84,6.36-1.31,9.28,1.59,8.38,8.73,3.41-3.08,6.42-5.79,9.19-8.29,.4-12.51,7.59-19.6,17.67-24.56,.94-.46,2-.78,3.04-.96,3.19-.54,4.86,.74,5.27,3.93,.11,.83,.19,1.66,.28,2.42,6.58,1.89,7.77,3.22,7.66,8.44,2.78,2.02,3.21,3.61,1.66,6.76-2.82,5.75-7.95,8.72-13.57,11.05-1.27,.53-2.6,.91-3.88,1.34-1.81,6.56-3.41,13.06-5.41,19.45-2.52,8.08-5.81,15.85-11.21,22.5-6.02,7.43-13.18,12.46-23.97,10.04,.58,1.44,.97,2.49,1.4,3.51,5.15,12.02,8.95,24.41,10.49,37.45,.13,1.06,.66,2.33,1.44,3.03,13.18,11.85,15.78,26.65,11.44,42.96-6.31,23.72-21.41,40.06-43.68,49.98-2.7,1.2-5.47,2.22-8.21,3.33l.15,.66c5.1-.84,10.2-1.67,15.29-2.54,7.46-1.28,14.89-2.72,22.37-3.85,7.01-1.06,13.36,.59,18.67,5.5,.93,.86,1.85,1.8,2.53,2.86,2.29,3.56,.74,7.17-3.37,8-.93,.19-1.89,.24-3.21,.39,.39,.97,.73,1.79,1.06,2.6,1.81,4.4-.12,7.92-4.83,8.7-3.85,.64-7.41-.15-10.81-2.78-.42,2.66-1.26,4.73-3.8,5.6-2.84,.98-5.48,.52-7.98-.96-1.47-.86-2.96-1.74-4.27-2.81-6.43-5.23-13.99-7.08-22.03-7.45-2.98-.13-5.97,.01-8.96,.06-1.39,.02-2.77,.15-4.16,.18-6.9,.12-8.94-1.52-10.27-8.59-17.38,5.09-35.06,7.35-53.18,5.24,2.38,2.45,5.39,3.02,8.46,2.96,6.93-.14,13.85-.51,20.78-.76,6.34-.23,12.61,.12,18.49,2.82,1.61,.74,3.23,1.74,4.46,2.99,3.01,3.05,2.2,6.32-1.75,7.97-.37,.15-.73,.33-1.12,.51,.06,.43,.07,.75,.14,1.04,1.55,6.24-2.11,10.33-8.45,8.99-2.94-.62-5.66-2.28-8.68-3.55,.03-.05-.21,.27-.31,.63-1.28,4.95-4.96,7.07-9.65,5.13-2.42-1-4.72-2.53-6.71-4.25-7.53-6.46-16.13-10.69-25.7-13.11-2.58-.65-5.16-1.36-7.69-2.19-7.97-2.62-10.03-6.88-7.1-14.94-3.76-1.76-7.14-3.65-11.89-3.02-23.53,3.1-46.1,.23-66.23-13.35-23.18-15.63-33.16-37.82-31.44-65.56,.78-12.65,4.2-24.78,6.94-37.04,2.44-10.91,3.5-21.92,1.74-33.04-3.45-21.83-18.36-36.9-40.27-39.96-6.99-.98-14.23-.27-21.35-.32-3.12-.02-6.24,0-9.37,0l-.12-1c3-.83,5.97-1.73,8.99-2.47,14.66-3.57,29.05-3.01,42.82,3.5,18.02,8.52,26.9,23.49,29.56,42.73,1.69,12.27-.03,24.25-2.97,36.12-2.52,10.15-4.73,20.33-5.55,30.8-2.53,32.3,17.52,59.45,49.2,66.34,7.76,1.69,15.61,2.26,23.53,2.03,.59-.02,1.18-.12,2.27-.24Zm128.57-225.94c-1.14,.77-2.36,1.45-3.42,2.31-9.58,7.73-18.17,16.45-25.5,26.32-3.32,4.46-5.99,9.4-8.95,14.12l.85,.63c10.53-21.35,29.1-34.33,48.4-46.55l-.57-.78c-6.28,4-12.55,8-18.83,12,1.15-1.54,2.54-2.78,3.95-4,1.45-1.25,2.91-2.48,4.37-3.72,4.85-2.91,9.69-5.82,14.54-8.72l-.48-.78c-4.78,3.06-9.56,6.12-14.35,9.18Zm7.43,76.32l-.78,.38c.29,1.01,.57,2.03,.86,3.04,3.87,13.52,8.12,26.95,11.52,40.59,4.04,16.18,5.23,32.67,1.99,49.18-4.74,24.17-17.47,43.25-37.57,57.4-4.27,3-8.75,5.7-13.13,8.53,10.52-3.8,20.27-8.96,28.78-16.25,23.58-20.19,34.1-45.74,31.18-76.7-1.13-12-4.7-23.4-9.25-34.49-4.36-10.63-9.06-21.13-13.61-31.69ZM192.64,75.29c-6.26-11.74-14.43-21.73-25.59-28.99-16.33-10.63-33.74-10.67-48.84,.16-30.83,22.11-35.53,67.42-7.04,94.4,12.34,11.69,27.12,17.51,44.37,15.71,4.95-.52,9.62-2.04,14.21-5.25-3.71,1.09-6.78,2.34-9.98,2.88-21.31,3.59-45.46-7.99-56.45-26.91-13.3-22.89-9.54-51.48,9.5-69.97,10.23-9.93,22.61-14.2,36.89-12.21,13.54,1.88,24.24,8.97,33.37,18.69,3.4,3.62,6.38,7.65,9.55,11.49Zm-52.16,284.91c-.3-1.08-.65-2.14-.89-3.23-.84-3.85-1.89-7.67-2.41-11.56-1.69-12.72-.45-25.31,2.24-37.79,6.78-31.39,20.83-59.38,39.86-85.02,3.7-4.98,7.6-9.81,11.53-14.88-.36,.07-.48,.06-.54,.11-.48,.42-.96,.84-1.41,1.29-19.81,20.4-35.93,43.28-46.49,69.81-7.48,18.78-11.36,38.17-8.87,58.49,.98,7.98,3.15,15.61,6.98,22.78Zm62.4-110.04c3.63,7.12,8.11,13.57,14.99,18.03,6.41,4.15,13.38,5.26,20.82,3.73,5.5-1.13,10.54-3.34,15.22-6.41,9.19-6.04,16.54-14.04,23.53-22.39,2.62-3.12,5.09-6.36,7.64-9.55l-1.08-1.01c-.77,1.12-1.41,2.37-2.34,3.34-3.75,3.93-7.56,7.81-11.41,11.64-6.21,6.16-12.57,12.12-20.46,16.19-12.69,6.55-26.78,5.18-37.61-4.08-3.35-2.86-6.2-6.31-9.28-9.5Zm89-107.37c-14.16-.72-28.08,.41-41.76,4.06-15.51,4.14-33.75,12.46-37.97,17.45,8.58-5.19,17.26-9.58,26.59-12.25,9.3-2.66,18.71-5.25,28.25-6.59,9.43-1.33,19.09-1.06,28.66-1.49,.11-.27,.21-.53,.32-.8-2.42-1.19-4.75-2.63-7.27-3.53-10.01-3.58-20.38-5.31-31.01-5.63-1.44-.04-2.88-.38-4.33-.59-3.76,.3-7.58,.56-11.39,.93-3.78,.37-7.55,.87-9.94,1.15,8.98,0,19.32-.5,29.59,.14,10.39,.64,20.48,3.35,30.25,7.14Zm25.64-20.34l-.06,.38c-.96,0-1.92-.07-2.87,.01-2.39,.21-4.29,1.21-5.2,3.59-.87,2.28-.44,4.42,.98,6.33,3.66,4.89,13.35,4.81,16.96-.11,2.43-3.31,1.47-7.15-2.39-8.53-2.37-.85-4.94-1.13-7.42-1.66Zm-160.46-13.22c4.71-3.02,8.43-7.04,10.43-12.35,3.34-8.86-.71-18.6-9.77-23.87-8.4-4.89-21.23-6.87-31.3-4.74,1.59,.12,3.17,.06,4.76,.12,7.97,.32,15.64,1.71,22.6,5.95,13.03,7.94,15.11,21.59,4.97,32.99-.56,.63-1.13,1.26-1.69,1.89Zm145.42,142.68c-.1,.35-.2,.71-.3,1.06,1.71,.55,3.41,1.48,5.15,1.58,4.99,.29,9.06-2.26,12.71-5.2,12.9-10.39,17.97-25.08,21.87-40.37-1.73,3.61-3.2,7.34-4.84,11-4.66,10.38-10.33,20.07-19.52,27.22-4.42,3.44-9.2,5.77-15.08,4.71Zm14.15,56.74c2.86,8.45,6.42,16.66,5.85,25.87-.56,9.18-3.57,17.59-8.06,26.33,6.46-6.77,11.82-20.57,11.87-29.6,.05-8.87-3.74-16.15-9.66-22.59ZM243.62,119.48c3.21-.52,8.11-3.61,9.31-6.13,.88-1.86,.32-3.61-1.48-4.6-2.93-1.61-8.79-.58-11.03,1.9-1.58,1.75-1.73,3.82-.59,5.61,.86,1.34,2.5,2.17,3.79,3.23Zm26.09-68.07c-.07-.61-.16-1.21-.2-1.82-.37-5.29-1.28-10.63-.94-15.87,.3-4.59,1.61-9.24,3.22-13.58,2.2-5.93,6.54-7.78,12.6-5.8,2.49,.81,4.92,2.09,7.07,3.58,7.24,5.01,11.77,12.2,15.43,20,1.56,3.33,2.8,6.81,4.19,10.23-2.55-11.02-7.18-20.96-15.61-28.69-2.39-2.19-5.25-4.06-8.21-5.38-8.24-3.68-14.5-1.07-17.63,7.32-3.71,9.95-3.21,20.01,.08,30.01Zm-17.27,15.89c2.58,.6,5.18,1.13,7.74,1.81,12.6,3.36,23.65,9.84,33.49,18.1,8.63,7.24,16.51,15.38,24.71,23.13,1.32,1.24,2.61,2.51,3.91,3.76l.44-.48c-1.69-1.91-3.34-3.84-5.06-5.71-10.69-11.66-21.92-22.69-35.68-30.78-9.11-5.35-18.83-8.89-29.54-9.83Zm16.54,87.14c-25.99,9.79-45.64,27.01-59.69,50.77,15.52-22.06,34.68-39.84,59.69-50.77Zm-36.49-36.08l.58,.06c.11-.92,.19-1.85,.34-2.77,.96-5.67,3.29-10.59,9.08-12.52,5.84-1.95,10.86,.43,15.22,4.32,1.18,1.05,2.24,2.3,3.14,3.6,1.27,1.82,2.34,3.78,3.84,6.26-2.17-8.42-6.38-14.32-14.3-16.85-7.55-2.41-15.16,1.96-17.01,9.72-.63,2.65-.62,5.44-.91,8.17Zm99.45,286.28l.37-1.02c-.87-1.91-2.66-2.77-4.52-3.52-6.44-2.56-13.14-2.48-19.84-1.71-4.48,.51-8.91,1.42-13.36,2.15,12.56-.92,19.48-.76,31.84,3.38,1.72,.58,3.67,.5,5.51,.72Zm4.86-213.5c7.23-1.41,14.27-10.03,12.35-14.88-4.8-.39-12.78,9.06-12.35,14.88Zm-11.64-39.04c-4.12,7.54-9.9,13.51-17.07,17.93-7.13,4.39-14.6,8.22-21.93,12.3,6.46-2.49,12.94-5.1,19.24-8.08,5.86-2.77,10.7-7,14.78-12.02,2.42-2.97,4.4-6.22,4.97-10.13ZM251.13,50.54c-1.86-16.05,3.87-28.95,15.58-39.49-14.49,8.47-22.43,28.62-15.58,39.49Zm52.98,96.21c-12.94-.26-57.75,19.54-63.82,27.82,19.62-13.6,41.18-21.95,63.82-27.82Zm4.68,258.42c5.37,3.86,9.64,9.61,17.18,10.26-.17-5.58-9.69-11.24-17.18-10.26ZM170.95,109.4c8.45-8.52,7.07-27.97-2.74-36.61,3.58,5.33,5.43,11.2,5.74,17.6,.31,6.31-.75,12.4-3,19.01Zm79.49,313.11c-3.47-7.09-20.75-8.21-37.01-5.42,11.14-1.12,21.9,.15,32.22,4.65,1.34,.59,2.98,.5,4.78,.77Zm60.75-209.37c-4.55-1.62-16.59,1.54-18.87,4.95,6.21,1.82,16.23-.8,18.87-4.95Zm44.51-27.91c-4.48-.19-11.21,4.71-12.76,8.92,2.47,1.59,4.68,.57,6.66-.88,2.71-1.98,5.94-3.69,6.09-8.04Zm-111.14,244.12c-1.78-4.46-10.9-9.11-16.31-8.49,4.93,5.28,12.92,9.53,16.31,8.49Zm68.15-225.46c-4.57-1.79-13.89,1.93-14.47,5.62,5.84,.92,12.87-1.72,14.47-5.62Zm-3.44,216.03c-.13-3.83-6.37-8.25-11.04-7.81,2.76,5.86,7.04,8.9,11.04,7.81Zm-82.35,14.96c-.95-3.77-6.02-7.53-10.68-8.1,1.8,5.34,6.99,9.39,10.68,8.1Zm27.36-202.61c9.88-6.49,19.76-12.98,29.64-19.47-10.99,4.8-20.89,11.25-29.64,19.47Zm86.91-29.27c7.94-.57,15-4.73,15.31-9.25-5.06,3.06-9.84,5.94-15.31,9.25Zm-9.68-58.69c.1,6.67-2.34,12.69-5.36,18.53,4.88-5.2,6.86-11.29,5.36-18.53Zm-91.59-18.23c.85,5.78,11.21,8.23,15.81,4.34-6.13,1.2-11.62,1.16-15.81-4.34Zm39.83,72.6l.9-.73c2.61,3.18,5.19,6.4,7.87,9.53,.45,.53,1.33,.69,2.02,1.02l.57-.91c-3.3-3.56-6.84-6.83-11.36-8.91Zm-23.79-79.96c1.24-1.18,2.07-1.97,3.42-3.25-1.33-.79-2.3-1.82-3.06-1.69-.94,.17-1.71,1.3-3.18,2.54,1.13,.96,1.74,1.47,2.82,2.4Zm82.55,90.05c-1.99,0-3.7,.24-5.31-.07-1.63-.31-3.16-1.16-4.74-1.77,2.91,3.13,5.49,3.65,10.05,1.84Z"/></svg>