<?xml version="1.0" encoding="UTF-8"?><svg id="a" xmlns="http://www.w3.org/2000/svg" viewBox="0 0 450 540"><path d="M167.16,301.68c-21.77-7.42-35.82-22.54-45.33-42.12-2.74-5.64-6.25-9.56-11.67-12.19-1.75-.85-3.36-2-5.69-3.41,2.82-1.26,5.02-2.25,7.56-3.39-3.83-2.27-7.35-4.36-10.87-6.45l.18-.81,9.85-1.35c-4.08-1.99-7.64-3.72-11.2-5.45l.11-.92h10.79l.1-.83c-2.85-1.47-5.71-2.94-9.31-4.79,7.05-2,13.16-1.77,18.84,.97,7.42,3.58,14.75,7.43,21.77,11.72,6.29,3.85,12.33,8.05,20.5,10.38,1.43-5.57,2.83-11,4.19-16.32-8.84-3.84-17.15-7.44-25.72-11.16,.44,2.04,.85,3.92,1.32,6.05-.33-.31-.52-.41-.54-.52-.69-5.69-4.58-8.38-9.26-10.91-12.45-6.71-24.21-14.59-34.19-24.67-13.09-13.23-17.86-29.55-15.56-47.84,.89-7.1,5.44-11.6,12.5-13.34,5.13-1.26,10.3-2.39,15.39-3.82,3.15-.89,6.16-2.23,8.89-3.24,5.05-15.46,14.33-24.08,25.52-23.76l-1.65,2.21c11.59-8.8,24.25-15.14,38.56-18.26,0-8.62-.77-17.04,.17-25.26,1.78-15.68,7.91-29.56,20.45-39.85,7.37-6.05,15.82-9.62,25.55-9.14,17.62,.86,28.81,15.08,26.45,33.23-1.86,14.26-8.39,26.55-15.78,38.52-.92,1.49-1.76,3.02-2.43,4.17,7.66,4.82,15.12,9.52,22.79,14.35,2.44-3.39,5.11-7.67,8.34-11.46,14.33-16.81,31.96-27.51,54.58-28.4,30.32-1.19,57.79,19.54,63.34,48.3,4.37,22.65-2.79,42.33-17.75,59.2-15.36,17.33-34.88,26.94-58.03,28.65-5.44,.4-10.97-.34-16.15-.54-5.59,6.76-10.78,14.04-17.01,20.29-6.25,6.26-13.53,11.5-20.96,17.68,2.1,2.24,4.01,4.77,6.39,6.74,5.94,4.91,12.07,9.6,18.15,14.33,15.96,12.42,29.29,27.31,41.14,43.6,13.75,18.9,24.12,39.42,29.81,62.18,7.2,28.79,3.38,56.25-10.84,82.14-3.72,6.78-8.87,12.77-13.49,19.31,6.65,3.6,14.03,6.38,21.81,7.9,27.73,5.42,52.82-.24,74.29-18.96,8.99-7.84,15.3-17.82,16.97-29.87,2.28-16.5-5.73-31.54-21.17-39.13-16.76-8.23-33.43-7.01-48.97,3.3-11.73,7.78-14.33,19.31-8.11,32.02,.17,.35,.25,.74,.51,1.56-6.17-6.36-7.25-17.36-2.96-25.55,4.79-9.14,12.93-13.88,22.23-17.05,14.51-4.95,28.68-4.04,42.22,3.22,18.31,9.82,26.82,32.09,20.03,52.31-6.8,20.25-21.3,33.68-39.72,43.09-28.23,14.41-57.28,13.67-86.59,3.42-1.97-.69-3.92-1.43-5.75-2.1-7.94,4.07-15.75,8.08-24.01,12.33-.93,6-5.75,8.13-11.54,8.33-10.34,.36-20.7,.21-31.05,.41-13.09,.25-26.27-.14-39.25,1.22-10.33,1.08-20.42,4.39-30.62,6.69-.71,.16-1.44,.19-2.57,.33,.81-1.49,1.42-2.6,2.3-4.2-3.68,.9-6.91,1.7-11.03,2.71,1.02-2.12,1.68-3.49,2.52-5.24-3.04,.53-5.7,.99-9.3,1.62,1.2-2.4,2.04-4.08,3.01-6.02-.97,.33-1.82,.62-2.65,.9-1.74-1.96,3.99-9.26,10.37-12.46,4.97-2.49,10.3-4.27,15.2-6.25-6.48-.71-12.95,1.22-19.39,3.24-6.5,2.04-12.95,4.23-20.47,6.7,1.97-3.3,3.49-5.85,5.43-9.09-4.19,1.58-7.79,2.93-11.38,4.29l-.8-.55c1.37-2.84,2.74-5.68,4.22-8.75-2.72,1.08-5.43,2.16-8.65,3.44,1.32-4.61,3.22-8.35,6.73-11.22,6.03-4.94,13.23-6.35,20.69-6.73,5.15-.27,10.33-.05,15.83-.05-1.02-1.3-2.04-2.64-3.1-3.95-24.9-30.95-31.25-64.83-15.97-102.04,4.92-11.97,8.83-24.2,10.51-37.07,.28-2.16,.29-4.36,.43-6.53Zm122.53-176.51c-.02,10.99,2.56,22.26,7.51,30.3,7.82,12.7,14.61,16.27,29.59,10.03,18.01-7.49,26.56-27.83,18.41-44.82-5.61-11.71-13.4-21.03-26.41-24.54-10.3-2.78-20.12,1.88-24.96,11.32-3.04,5.93-3.87,12.35-4.14,17.7ZM222.45,28.98c-15.35,.19-31.3,28.41-26.03,45.76h9.37c2.36-3.27,5.04-6.26,6.9-9.71,3.84-7.13,7.64-14.33,10.68-21.82,1.85-4.57,1.86-9.68-.92-14.23Zm-40.1,96.51c5.69-4.4,9.8-6.37,14.8-7.31,8.65-1.62,14.11,1.82,15.79,10.28,1.68,8.44-1.05,15.55-7.71,20.82-6.54,5.17-13.78,4.54-20.87,1.08-5.72-2.78-8.25-8.31-7.02-14.6,.2-1.04,.45-2.06,.68-3.1l-.79-.29c-2.13,5.21-4.26,10.43-6.41,15.69,12.17,6.83,23.9,12.93,38.58,12.67-3.03-6.34,.76-10.55,3.37-15.24,3.47-6.25,4.59-13.06,3.23-20.15-1.57-8.14-11.64-14.13-19.34-11.38-5.75,2.05-10.07,6-14.3,11.53Zm20.34,291c-.24-36.06,20.26-57.96,51-71.2-32.44,3.61-60.92,43.36-51,71.2Zm7.08-98.65c-36.15,11.49-52.65,38.46-54.71,69.88,6.08-30.98,24.43-54.52,54.71-69.88ZM98.17,146.43c3.94,0,6.93-.35,8.02-3.6,1.06-3.14-.3-5.87-2.8-7.84-3.82-3-8.14-3.71-12.67-1.91-3.47,1.37-4.5,4.7-2.5,7.79,2.55,3.94,6.38,5.47,9.95,5.57Zm118.65,135.33c-.29,.26-.63,.49-.87,.78-7.91,9.62-18.3,13.71-30.54,13.6-14.43-.13-27.12-5.26-38.42-13.9-4.82-3.69-9.18-7.97-13.75-11.98,2.76,3.65,5.65,7.23,8.95,10.37,14.67,13.92,31.96,20.46,52.21,17.14,9.85-1.61,17.36-7.27,22.42-16.02Zm41.18,191.11c-29.49-2.73-58.2-7.41-80.86-28.94,21.96,23.58,50.51,28.87,80.86,28.94ZM191.28,135.43c3.86,.12,8.13-3.38,8.09-6.78-.03-2.65-1.6-3.94-4.22-4.04-3.98-.14-8.82,3.69-8.72,7.04,.09,3.13,2.45,3.52,4.85,3.78Zm15.48,55.77c-11.77-10.59-57.29-31.77-71.15-33.07,25.12,9,49.18,18.8,71.15,33.07Zm-77.43-28.19c12.66,8.1,25.62,16.38,38.85,24.84-6.76-6.6-31.76-22.47-38.85-24.84Zm-36.46,8.36c3.49,9.07,14.94,16.01,24.73,14.96-10.67-1.42-18.38-7.04-24.73-14.96Zm81.46,75.7c-6.43-1.74-13.29-3.59-20.29-5.48,5.99,5.87,13.22,6.25,20.29,5.48Zm111.05-69.1c6.65,7.05,14.82,9.86,24.4,8.62-8.91-.67-17.12-3.29-24.4-8.62Zm-147.63-3.22l-.61,.57c6.3,6.55,12.61,13.11,18.91,19.66l.62-.6c-6.31-6.54-12.61-13.08-18.92-19.63Zm197.77-75.01c4.39,5.82,9.39,12.47,13.49,17.9-2.52-6.61-7.24-13.49-13.49-17.9Zm-211.34,9.94l1.3,1.12c1.51-2.06,3.03-4.13,4.54-6.19-.44-.32-.87-.64-1.31-.97-1.51,2.01-3.02,4.02-4.53,6.03Zm1.51,69.94l-.54,.2c1.9,3.9,3.81,7.8,5.71,11.71l.59-.28c-1.92-3.87-3.84-7.75-5.76-11.62Z"/><path d="M98.02,117.5c1.21-27.27-2.15-53.81-12.41-79.79,10.34,10.88,18.95,66.71,12.41,79.79Z"/><path d="M81.85,123.5c-13.67-23.53-32.63-41.98-54.79-57.36,23.19,14.37,43.79,31.25,54.79,57.36Z"/><path d="M3.88,112.47c23.14,1.13,45.62,6.09,65.71,19.34-10.83-4.07-21.48-8.78-32.55-12.04-11-3.23-22.43-5-33.16-7.3Z"/><path d="M86,122.1c-5.12-20.76-13.37-40.13-24.88-58.09,12.92,17.37,22.81,36.05,24.88,58.09Z"/><path d="M12.65,162.68c18.43-7.27,39.66-12.92,61.89-14.56-21.38,5.03-42.77,10.06-61.89,14.56Z"/><path d="M70.41,137.59c-12.87-1.16-25.74-2.32-38.84-3.5,13.27-.66,26.15,.66,38.84,3.5Z"/><path d="M37.02,103.92c4.63,.4,26.8,13.85,31.93,19.52-10.83-6.62-21.65-13.24-31.93-19.52Z"/></svg>