<?xml version="1.0" encoding="UTF-8"?><svg id="a" xmlns="http://www.w3.org/2000/svg" viewBox="0 0 450 540"><path d="M369.33,190.13c9.79,19.64,17.87,39.24,18.98,61.23,16.21-3.07,32.04-6.07,47.87-9.07l.21,.93c-15.93,3.52-31.87,7.04-47.98,10.6v5.01c14.08-.23,27.92,.46,40.87,6.47-13.5-3.34-27.14-5.08-41.44-4.27-.86,3.98-1.69,7.81-2.58,11.93,10.17,2.34,19.93,4.62,29,9.11-9.82-2.43-19.64-4.86-29.62-7.34-1.42,3.71-2.57,6.73-3.92,10.27,13.22,3.87,25.7,8.75,37.19,15.92-12.26-5.35-24.53-10.64-37.25-13.95-5.37,8.61-10.56,16.94-15.87,25.47,17.88,36.01,25.76,73.71,14.83,114.51,7.27-5.78,13-12.15,17.96-19.24,8.81-12.59,12.86-26.86,14.64-41.91,.56-4.71,.89-9.44,1.38-14.16,.31-2.93,1.29-5.53,4.44-6.46,2.67-.79,5.26,.47,7.15,3.82,5.33,9.44,6.62,19.79,5.83,30.36-1.75,23.19-12.89,41.75-29.41,57.37-11.9,11.24-25.61,19.65-41.86,24.98,7,1.36,13.45,2.27,19.7,3.91,7.51,1.97,14.89,4.44,22.25,6.94,2.13,.72,4.15,2.07,5.9,3.53,2.68,2.23,2.93,4.9,.31,7.19-2.42,2.11-5.3,4.14-8.32,5.02-10.37,3.02-20.79,6.04-31.37,8.13-27.37,5.4-55.1,8.13-82.97,8.88-26.13,.7-52.29,1.17-78.43,1.08-30.17-.11-60.3-1.56-90.3-4.88-20.07-2.22-40.05-5.15-59.48-10.9-3.82-1.13-7.64-2.61-11.08-4.58-6.19-3.54-6.3-8.01-.13-11.47,4.51-2.53,9.42-4.66,14.41-5.98,9.62-2.56,19.42-4.42,29.14-6.57,.68-.15,1.36-.35,2.63-.67-1.05-1.32-1.8-2.35-2.63-3.29-19.45-21.9-27.34-47.4-24.18-76.51,2.48-22.83,9.04-44.23,21.18-63.82,.89-1.44,1.87-2.83,2.58-3.9-6.24-8.89-12.35-17.6-18.97-27.02-11.65,2.62-23.27,8.05-35.16,12.76,10.99-6.57,22.75-11.36,35.33-14.94-1.39-4.03-2.69-7.76-4.2-12.13-6.04,1.28-12.11,2.35-18.06,3.87-5.82,1.49-11.51,3.45-17.26,5.2l-.33-.94c5.66-2.01,11.25-4.28,17.01-5.97,5.81-1.71,11.78-2.85,18.06-4.33-.41-2.94-.82-5.89-1.29-9.23-17.52-.85-34.6,.15-51.28,5.59,5.05-2.69,10.36-4.71,15.98-5.63,5.75-.94,11.54-1.74,17.35-2.1,5.78-.35,11.61-.08,17.59-.08v-4.07c-17.66-3.19-35.4-6.4-53.15-9.61l.18-1.08c17.56,2.72,35.12,5.43,52.93,8.19,1.25-22.55,10.06-42.58,20.89-62.37-1.77-.15-2.95-.33-4.13-.34-21.41-.28-37.94-9.95-50.9-26.45-10.69-13.6-16.83-29.23-19.93-46.08-4.13-22.45-4.13-44.78,3.3-66.66,4.86-14.32,12.87-26.45,25.83-34.76,14.68-9.41,30.74-10.86,47.39-7.41,23.47,4.87,41.76,18.07,56.31,36.6,13.17,16.76,19.86,36.33,23.27,57.15,.43,2.63,.73,5.29,1.12,7.93,.03,.2,.28,.38,.7,.93,38.62-15.09,77.62-16.63,117-.88,.74-4.83,1.31-9.24,2.11-13.61,5.27-28.97,18.38-53.55,41.85-71.73,18.57-14.38,39.68-20.96,63.28-16.82,16.02,2.81,27.99,11.94,36.75,25.37,8.08,12.39,11.92,26.34,13.61,40.83,2.84,24.38,.13,48.13-10.05,70.64-7.55,16.7-18.78,30.35-35.32,39.03-7.32,3.84-15.16,5.86-23.42,6.23-1.08,.05-2.16,.14-4,.26Zm-193.12,143.82l.18-.99c.59,.04,1.18,.02,1.76,.12,16.34,2.94,32.83,3.71,49.4,3.61,23.11-.14,45.87-2.47,67.94-9.8,19.63-6.52,37.63-15.85,52.64-30.34,4.36-4.2,8.18-8.86,11.56-14.44-4.36-.96-8.19-1.8-12.01-2.65l.14-.78c4.29,.53,8.58,1.06,13.14,1.62,1.31-2.55,2.57-4.98,4.08-7.92-8.95-1.37-17.38-.56-25.81-.48,8.63-2.43,17.5-1.91,26.77-1.91,.91-3.52,1.78-6.92,2.88-11.17-14.84,2.55-28.29,6.4-41.83,9.95,13.31-6.36,27.78-8.92,42.26-12.62-1.06-34.09-13.54-63.53-34.13-89.95,23.24,24.92,37.75,53.9,41.04,88.31,1.58-.37,2.95-.7,4.44-1.05,0-2.1,.1-3.91-.02-5.71-.87-13.02-4.57-25.36-9.67-37.25-10.65-24.84-25.55-46.91-44.16-66.51-17-17.91-37.83-29.22-61.57-35.14-21.28-5.31-42.89-5.23-64.5-2.06-21.95,3.22-41.95,11.33-59.65,24.79-14.26,10.84-26.22,23.95-36.57,38.48-13.64,19.13-24.74,39.59-31.01,62.39-1.93,7.02-3.21,14.18-2.54,21.73,18.04,4.43,36.3,7.55,53.12,15.48-17.43-5.37-35.15-9.47-53.69-13.17,.71,4.8,1.29,8.7,1.89,12.81,12.59-.28,24.69-.73,36.62,2.02-11.89-.15-23.79-1.31-36.1,.59,1.42,3.99,2.66,7.47,3.81,10.72,7.87-1.29,15.22-2.49,22.56-3.7l.17,1c-7.04,1.48-14.09,2.97-21.75,4.58,1.79,3.33,3.07,6.06,4.65,8.6,9.01,14.42,21.22,25.53,35.53,34.53,10.47,6.58,21.95,10.89,33.29,15.61,6.66,2.77,13.19,6.39,18.87,10.8,7.35,5.71,6.7,14.75-.55,20.65-3.41,2.77-7.31,4.3-11.74,4.39-1.2,.03-2.41,0-3.67,0-2.25,4.24-6.1,5.81-10.43,6.6-19.31,3.55-38.2-11.48-39.28-31.25-.02-.37,.21-.75,.51-1.73,.89,1.65,1.44,2.7,2.01,3.74,.65,1.17,1.25,2.37,1.99,3.48,7.84,11.83,18.11,19.29,33.05,18.01,2.37-.2,4.67-1.24,7.52-2.03-1.67-3.58-2.94-6.3-4.2-9.02l.63-.84c5.29,5.6,10.82,9.76,18.53,3.73-1.99-2.21-3.78-4.2-5.56-6.18l.47-.7c3.15,.62,6.3,1.24,9.44,1.86l.67-.98c-.45-1.13-.64-2.49-1.39-3.35-1.52-1.71-3.21-3.35-5.08-4.65-9.09-6.31-19.17-10.42-29.77-13.48-4.4-1.27-8.95-2.69-12.82-5.04-7.14-4.34-13.88-9.35-20.67-14.25-2.4-1.73-4.46-3.94-6.95-6.18-1.81,4-3.5,7.62-5.1,11.28-9.56,21.83-15.97,44.38-15.37,68.47,.49,19.64,7.34,36.81,20.59,51.31,10.35,11.33,23.48,18.37,37.74,23.44,20.39,7.25,41.51,11.1,62.99,13.36,32.41,3.41,64.6,2.63,96.47-4.61,20.15-4.58,39.08-11.88,54.96-25.66,.43-.37,1.03-.54,1.55-.81l.94,1.11c-4.51,3.96-9.02,7.92-13.53,11.88,.24,.28,.49,.57,.73,.85,1.57-.84,3.21-1.57,4.7-2.55,3.05-2,6.21-3.89,8.97-6.24,18.07-15.35,27.15-35.36,28.7-58.63,1.81-27.1-4.07-52.93-15-77.68-.66-1.49-1.45-2.92-2.65-5.33-1.04,1.51-1.49,2.41-2.17,3.09-11.74,11.75-24.98,20.64-41.76,23.84-11.22,2.14-21.41,7.2-30.42,14.33-1.7,1.35-2.94,3.28-4.25,4.79,1.99,3.38,4.12,2.07,6.15,1.44,2-.62,4-1.26,6.01-1.9l.41,.78c-2.37,2.26-4.73,4.52-7.21,6.88,7.76,5.57,13.23,1.12,18.62-3.78,.11,.25,.22,.51,.33,.76-1.08,2.55-2.15,5.09-3.56,8.42,2.85,.9,4.92,1.94,7.07,2.17,9.04,.96,17.02-1.52,23.92-7.61,4.76-4.19,8.18-9.26,10.98-14.86,.32-.63,.79-1.18,1.48-2.18,.18,16.03-11.47,29.79-26.89,32.31-8.25,1.35-16.07,1.02-21.77-6.4-1.37,0-2.71,.04-4.04,0-6.01-.19-10.75-2.84-14.23-7.66-3.69-5.11-3.41-10.73,.99-15.27,2.18-2.25,4.61-4.53,7.38-5.86,7.87-3.77,15.77-7.64,24.02-10.41,27.48-9.22,47.62-26.72,60.86-52.37,.37-.72,.54-1.54,.95-2.72-1.98-.38-3.7-.72-5.35-1.04-.92,1.32-1.63,2.31-2.31,3.31-7.41,10.92-16.72,19.9-27.81,27.02-17.64,11.32-37.03,18.33-57.44,22.42-29.09,5.83-58.3,4.77-87.48,.47-5.24-.77-10.4-2.05-15.6-3.09Zm-51.42-197.97c5-2.72,7.66-6.58,8.61-12.08,1.77-10.17,2.21-20.3,.6-30.49-3.83-24.28-15.25-44.21-34.82-59.12-10.5-8-22.45-12-35.89-10.24-14.72,1.93-24.99,10.63-32.27,22.73-13.37,22.23-18.06,46.24-10.42,71.43,7.27,23.94,22.71,40.79,47.13,48.2,9.25,2.81,18.81,2.58,27.09-2.94,7.34-4.9,13.95-10.89,20.91-16.35,2.99-2.35,3.85-5.46,3.45-9.06-.26-2.41-.46-4.85-.91-7.23-2.69-14.06-10.46-25.2-20.34-35.11-1.02-1.03-2.01-2.08-3.02-3.13,12.09,5.48,24.27,23.54,29.86,43.4Zm207.33,3.53c4.4,4.65,8.33,8.96,12.45,13.09,2.91,2.92,5.96,5.72,9.14,8.34,8.56,7.06,18.45,8.56,28.86,5.74,17.15-4.65,30-15.41,39.23-30.2,20.52-32.89,10.79-74.43-8.53-96.82-16.3-18.89-38.56-21.35-59.01-6.95-16.67,11.74-27.96,27.55-33.76,47.1-4.73,15.94-5.56,32.01-.71,48.14,1.03,3.42,3.34,5.28,6.56,6.85,3.55-18.87,14.37-32.45,28.74-43.77-5.56,7.43-11.61,14.42-16.38,22.19-4.87,7.93-7.36,16.9-6.6,26.28Zm-173.31-24.79c0-1.4,.13-2.63-.02-3.81-2.14-16.87-6.2-33.19-13.77-48.52-8.87-17.96-21.6-32.26-39.62-41.43-13.77-7-28.4-10.37-43.78-7.96-27.81,4.35-44.54,29.74-46.81,58.03,.38-.73,.66-1.49,.91-2.27,3.05-9.72,7.69-18.64,13.59-26.9,13.02-18.23,32.13-25.69,53.62-20.82,13.34,3.03,24.32,10.17,33.68,19.99,15.64,16.41,24.36,35.77,25.12,58.58,.3,8.99-.3,17.88-2.6,27.02,6.79-4.11,13.11-7.93,19.68-11.9Zm152.28,9.04c.16-.56,.35-.89,.33-1.21-.04-.85-.1-1.7-.26-2.53-4.99-25.54,.43-48.79,15.78-69.66,9.47-12.87,21.08-23.18,36.71-28.12,14.49-4.57,28.25-3.49,41.13,5.14,10.37,6.95,17.93,16.32,23.61,27.26,2.36,4.55,4.21,9.36,6.29,14.06-2.21-14.79-6.77-28.61-17.12-39.84-8.73-9.46-19.43-15.5-32.42-16.34-23.77-1.53-43.89,6.95-60.44,23.74-17.53,17.78-26.71,39.72-30.53,64.1-.67,4.29-1.03,8.63-1.51,12.8,6.38,3.67,12.35,7.1,18.42,10.59Zm109.98,231.23c-.4,.37-.53,.43-.53,.51-.26,3.03-.5,6.05-.76,9.08-1.62,18.96-7.32,36.41-19.22,51.51-7.34,9.31-15.81,17.55-25.51,24.35-4.18,2.93-6.41,6.91-9.09,11.52,1.01-.41,1.46-.56,1.88-.76,16.65-7.97,30.69-19.19,41.61-34.1,10.11-13.81,16.08-29.1,15.12-46.56-.29-5.32-1.59-10.41-3.49-15.55ZM96.55,170.95l-.5-.8c-9.13,3.61-18.47,3.84-27.89,1.78-12.22-2.67-22.36-9.25-31.52-17.43-3.12-2.78-5.77-6.09-8.63-9.16l-.84,.8c4.59,8.13,10.36,15.32,17.7,21.2,12.55,10.04,26.62,14.83,42.78,12.02,1.12-.2,2.44-.65,3.17-1.44,2.05-2.19,3.84-4.63,5.73-6.97Zm325.32-23.55c-17.88,17.76-37.24,31.23-64.81,23.46,2.24,3.07,4.22,5.78,5.94,8.13,26.57,6.35,49.76-13.98,58.87-31.59Zm-108.28,340.86l.62-.46c1.43,1.57,2.86,3.13,4.41,4.83,2.51-.49,5.05-.99,8.08-1.58-1.64-2.68-2.97-4.85-4.3-7.03l.63-.72c2.61,1.6,5.22,3.19,8.16,4.99,.76-.9,1.56-1.84,2.27-2.69-1.32-3.72-3.72-5.7-7.16-5.8-2.73-.08-5.67,.05-8.2,.98-7.94,2.89-15.69,6.31-24.37,6.82,6.57,2.99,13.24,5.09,20.89,4.82-.42-1.72-.72-2.94-1.03-4.17Zm-181.19,4.11c7.53,0,13.83-1.48,19.39-4.53-6.67-2.09-13.42-4.22-20.17-6.31-2.54-.79-5.07-1.8-7.68-2.18-3.6-.52-7.05,.07-9.4,3.35-1.61,2.25-1.16,3.82,1.56,5.5,2.7-1.44,4.5-4.74,8.49-4.48-1.31,2.4-2.49,4.55-3.94,7.21,3.12,.61,5.55,1.09,7.66,1.5,2.01-2.29,3.69-4.19,5.36-6.1l.68,.49c-.57,1.63-1.15,3.26-1.95,5.55Zm246.01-220.56c.89-5.41,1.71-10.43,2.63-16.04-2.27,.57-3.74,.93-5.19,1.3-.93,4.82-1.8,9.36-2.72,14.12,1.68,.2,3.08,.37,5.28,.63Zm-5,11.47c1.35-3.34,2.52-6.23,3.79-9.37-2.25-.35-3.65-.56-5.17-.8-1.45,3.08-2.76,5.85-4.2,8.89,2.04,.47,3.55,.81,5.58,1.28Z"/><path d="M313.55,201.52c1.22,3.12,2.58,6.22,3.66,9.42,2.72,8.04,3.22,16.18,.35,24.3-3.15,8.91-9.32,14.54-18.79,15.63-9.24,1.07-16.92-2.47-21.79-10.39-9.01-14.65-9.24-30.04-1.32-45.1,6.13-11.66,18.09-13.33,28.17-4.75,1.09,.92,2.14,1.89,3.28,2.9,4.38-2.29,6.58-5.91,7.82-10.55q1.56,2.97-3.97,12.97c7.01-.1,10.11-3.8,10.97-13.11,5.26,4.94,1.8,12.74-8.37,18.66Zm-25.98-4.53c-3.52-.05-6.08,1.58-6.99,4.44-1.53,4.83-.78,9.41,2.49,13.3,2.99,3.56,8.26,3.66,10.81,.48,3.82-4.76,1.68-14.82-3.78-17.51-.95-.47-2.06-.59-2.53-.71Zm14.86,38.71c.75-2.83-.52-4.63-3.2-5.43-2.28-.68-4.6-.24-5.5,2.1-.43,1.11,.1,3.17,.96,4.1,1.88,2.06,4.99,1.59,7.74-.77Z"/><path d="M138.34,195.66c-2.3-3.34-4.9-6.57-4.34-11.8,2.54,3.75,3.26,8.08,7.38,9.75,1.73-1.43,3.32-2.93,5.09-4.18,9.3-6.61,19.21-4.8,25.6,4.62,8.31,12.26,8.05,34.39-.55,46.45-6.06,8.49-14.28,11.99-24.46,9.8-9.93-2.14-15.06-9.24-17.32-18.66-1.95-8.13-.47-15.93,2.77-23.48,.95-2.22,1.97-4.4,3.11-6.94-5.18-1.97-8.79-5.34-10.05-10.74-.64-2.74,.14-5.19,1.73-7.58,.68,3.96,1.01,8.07,4.56,10.55,1.79,1.26,3.98,1.94,5.99,2.88l.49-.68Zm29.6,9.71c-.05-4.4-1.94-7.44-5.14-8.26-3.59-.92-7.09,.94-9.11,4.93-1.7,3.35-2.41,6.85-1.1,10.52,1.68,4.7,6.53,6.22,10.57,3.27,3.54-2.58,4.76-6.25,4.78-10.46Zm-21.9,30.87c-.04,2.74,2.42,4.96,5.61,5.06,3.08,.1,5.75-2.11,5.83-4.83,.09-2.8-2.68-5.31-5.83-5.29-3.1,.02-5.57,2.25-5.61,5.05Z"/><path d="M182.23,273.24c1.01-.11,2-.22,3.27-.37,1.26,6.57,3.52,12.27,9.73,15.24,4.23,2.02,8.75,2.13,13.21,1.18,8.46-1.8,13.24-8.37,12.82-17.52-1.73-.57-3.6-1.07-5.36-1.79-4.85-2-8.78-5.03-9.32-10.66-.41-4.29,3.59-9.02,9.1-11.21,4.53-1.8,9.24-2.31,13.91-.7,4.92,1.7,8.54,4.93,9.06,10.36,.51,5.39-2.64,8.92-7.13,11.27-2.13,1.12-4.48,1.81-6.76,2.7-1.64,7.37,2.89,15.34,10.14,17.37,5.44,1.52,10.6,.4,15.37-2.53,5.03-3.09,6.56-8.15,7.28-13.93,1.41,.12,2.53,.21,3.48,.29,3.04,7.63-3.06,16.96-14.21,22.25-1.94,3.72-3.78,7.55-5.88,11.23-4.37,7.66-11.03,11.5-19.87,11.07-8.89-.43-15.35-4.82-19.42-12.73-.28-.54-.56-1.08-.77-1.65-1.63-4.58-4.16-7.86-9.01-10.05-7.08-3.19-9.41-10.07-10.17-17.41-.07-.67,.29-1.39,.52-2.42Zm27.51-12.99c5.81,5.88,16.79,6.74,22.68,1.83,4.7-3.91,3.91-9.24-1.85-11.18-6.51-2.19-12.67-1.01-18.29,2.86-2.13,1.46-3.39,3.46-2.54,6.49Zm2.17,47.34c1.82,3.39,4.86,4.91,9.94,4.53,4.6-.34,9.08-1.25,11.48-5.86-4.11-5.63-17.05-4.75-21.42,1.33Z"/><path d="M225.74,477.52c1.26-.06,2.51-.17,3.77-.18,20.06-.17,39.76-2.79,58.89-8.98,31.9-10.32,57.1-28.84,72.1-59.58,4.68-9.59,7.65-19.69,8.06-30.45,.07-1.8,.37-3.59,.64-6.06,.48,.76,.73,.97,.74,1.19,1.16,21.44-2.27,41.7-15.24,59.53-7.49,10.3-16.87,18.43-27.91,24.73-30.72,17.54-64.07,22.62-98.85,21.01-.76-.04-1.5-.32-2.25-.48l.04-.73Z"/><path d="M78.63,388.1c1.59,31.32,16.88,54.19,43.63,70.4-6.61-.05-20.36-8.69-27.35-17.07-12.87-15.44-17.29-33.53-16.28-53.32Z"/><path d="M155.54,472.49c-6.18-2.93-13.79-3.15-18.61-9.57,3.72-1.01,10.07,2.3,18.61,9.57Z"/></svg>