<?xml version="1.0" encoding="UTF-8" ?>
<!DOCTYPE svg PUBLIC "-//W3C//DTD SVG 1.1//EN" "http://www.w3.org/Graphics/SVG/1.1/DTD/svg11.dtd">
<svg width="1024pt" height="1024pt" viewBox="0 0 1024 1024" version="1.1" xmlns="http://www.w3.org/2000/svg">
<g id="#000000ff">
<path fill="#000000" opacity="1.00" d=" M 757.35 68.49 C 774.35 67.62 791.76 68.58 808.01 74.01 C 838.92 84.07 865.79 106.13 881.27 134.75 C 899.88 168.19 902.63 209.79 889.50 245.63 C 881.54 267.75 865.94 286.22 848.20 301.25 C 829.94 315.48 806.95 321.38 784.46 324.64 C 787.19 338.33 790.66 351.95 792.16 365.89 C 809.93 370.58 826.17 380.99 837.73 395.30 C 840.93 399.71 844.71 404.36 845.09 410.01 C 845.48 413.53 841.30 416.30 838.13 415.26 C 833.05 413.66 829.19 409.69 824.36 407.55 C 841.12 428.11 854.08 454.44 850.55 481.64 C 850.13 487.94 843.02 490.23 838.06 487.30 C 837.31 506.59 831.60 526.03 819.16 541.08 C 815.25 546.19 810.27 550.32 805.91 555.00 C 808.77 560.06 812.57 564.52 815.65 569.45 C 833.17 595.33 843.98 625.36 849.07 656.08 C 849.41 657.20 849.47 659.14 851.13 659.13 C 872.45 664.19 894.38 666.21 915.66 671.47 C 923.74 673.39 932.00 677.56 935.53 685.53 C 940.18 692.86 938.83 701.78 938.94 710.00 C 937.65 753.01 934.68 795.95 933.13 838.95 C 932.50 856.68 931.31 875.03 923.29 891.20 C 908.63 923.97 874.84 949.78 838.00 948.44 C 807.50 949.56 778.55 932.47 760.66 908.45 C 759.25 906.08 756.88 904.25 753.98 904.58 C 743.57 904.79 733.23 906.13 722.88 907.16 C 720.44 907.69 717.22 907.42 715.77 909.84 C 711.50 915.80 707.02 921.62 702.10 927.07 C 680.05 949.60 646.33 960.67 615.37 953.51 C 592.58 948.47 572.24 934.55 558.09 916.17 C 548.05 914.71 538.06 917.97 528.00 917.80 C 513.31 918.02 499.53 912.25 485.88 907.60 C 483.29 909.97 482.09 913.42 480.40 916.42 C 471.80 933.22 455.76 946.53 437.01 950.01 C 419.79 953.64 401.66 946.74 388.99 935.06 C 385.20 931.78 382.09 927.76 378.16 924.68 C 373.25 925.62 366.43 924.41 363.54 929.51 C 355.22 941.05 343.48 950.46 329.74 954.60 C 321.65 956.46 313.22 955.84 305.00 955.39 C 289.93 954.05 277.37 944.47 267.07 934.11 C 250.02 935.49 233.02 937.46 215.98 938.93 C 173.55 932.00 131.01 922.42 91.83 904.25 C 84.54 901.30 83.73 892.67 86.35 886.18 C 94.92 859.60 104.00 833.15 113.81 807.00 C 115.87 800.07 123.75 798.16 130.14 798.59 C 127.50 792.86 123.39 787.94 120.79 782.19 C 106.51 752.61 107.41 715.09 125.25 687.19 C 137.86 667.45 161.16 656.89 184.17 656.80 C 184.24 641.86 184.22 626.88 183.79 611.95 C 172.32 594.33 158.72 578.10 148.21 559.83 C 145.38 554.85 148.07 549.11 151.13 544.96 C 158.25 535.55 167.32 527.83 176.45 520.48 C 182.80 506.51 200.43 505.94 213.54 503.36 C 212.91 492.07 213.48 480.74 215.31 469.56 C 213.06 471.89 210.48 475.55 206.74 474.42 C 202.36 472.63 201.30 467.25 201.64 463.02 C 202.90 443.52 211.21 424.68 224.16 410.12 C 226.35 407.59 228.82 405.27 230.56 402.38 C 224.70 404.32 219.68 410.02 213.09 408.77 C 208.79 407.12 209.40 401.62 211.36 398.35 C 222.21 378.02 243.93 365.72 266.13 361.91 C 268.18 347.89 270.70 333.92 273.80 320.10 C 258.43 316.78 242.94 311.91 229.52 303.38 C 194.41 280.98 173.27 239.44 173.99 198.00 C 172.19 148.88 202.53 100.44 247.32 80.37 C 269.45 69.83 294.62 67.34 318.74 70.41 C 346.06 74.83 371.88 89.04 389.73 110.26 C 396.28 117.75 401.44 126.27 406.78 134.60 C 427.48 120.13 451.51 110.93 475.94 105.02 C 472.09 101.09 465.05 100.44 462.20 95.09 C 459.65 89.66 460.42 82.22 465.25 78.25 C 469.13 74.94 474.25 73.68 479.15 72.76 C 531.17 65.95 584.63 80.48 628.45 108.66 C 639.27 115.49 648.53 124.34 658.08 132.76 C 666.65 117.17 678.67 103.65 692.51 92.52 C 711.12 78.35 734.00 69.95 757.35 68.49 M 291.36 91.47 C 253.13 93.75 218.22 119.48 203.56 154.65 C 187.76 192.60 195.27 239.48 223.07 269.97 C 237.35 286.06 258.22 295.10 279.33 297.54 C 287.68 274.12 299.20 251.93 311.62 230.46 C 301.73 232.67 293.64 239.08 286.80 246.25 C 291.50 235.86 299.35 227.15 308.40 220.33 C 309.89 219.34 312.52 216.50 308.94 216.68 C 294.48 215.89 284.50 228.51 274.78 237.30 C 277.60 229.58 282.35 222.78 287.50 216.67 C 290.41 215.34 293.12 213.62 295.12 211.08 C 296.94 208.79 302.28 208.52 300.07 204.66 C 304.23 207.18 306.99 204.18 303.05 201.01 C 303.35 193.92 310.91 196.77 315.23 194.94 C 313.54 200.45 319.46 195.44 322.06 195.38 C 318.41 192.17 313.31 192.39 308.78 192.07 C 314.57 194.66 305.94 194.24 303.72 195.67 C 299.35 196.03 309.48 191.68 303.95 192.36 C 286.26 194.10 271.41 206.66 262.09 221.17 C 263.77 210.57 269.57 200.71 278.03 194.12 C 281.04 191.51 285.26 189.66 286.05 185.35 C 287.69 186.37 292.58 186.46 288.80 184.08 C 291.29 185.37 293.28 183.93 295.06 182.23 C 302.74 180.87 310.16 178.08 318.11 178.51 C 315.71 173.09 309.18 181.49 310.25 174.96 C 286.18 166.88 259.93 180.97 246.93 201.35 C 252.65 178.66 275.38 162.86 298.10 160.89 C 300.49 161.01 301.30 159.08 301.29 156.99 C 302.93 157.26 304.53 157.68 306.19 157.89 C 286.74 149.94 262.79 156.53 246.99 170.04 C 254.92 155.09 271.40 146.94 287.18 143.25 C 276.06 140.89 264.54 145.12 255.48 151.47 C 224.82 173.64 221.07 221.21 243.43 250.52 C 249.78 259.65 258.95 266.22 266.55 274.12 C 241.11 264.19 223.89 239.04 220.54 212.31 C 213.80 178.94 230.57 140.20 263.21 127.37 C 274.35 123.05 286.79 123.41 298.37 125.47 C 324.87 132.04 344.04 157.46 347.41 183.86 C 342.75 182.28 346.47 186.32 348.57 183.65 C 357.21 175.89 365.38 167.56 373.36 159.14 C 365.45 131.89 341.82 111.63 315.76 102.16 C 327.61 101.93 338.73 107.29 348.53 113.48 C 362.35 122.33 371.25 136.56 379.76 150.17 C 382.17 155.88 388.77 148.41 386.52 144.61 C 381.15 133.64 373.06 124.15 364.51 115.53 C 344.81 98.01 317.59 89.14 291.36 91.47 M 751.37 91.51 C 708.61 95.96 671.59 132.36 666.64 175.08 C 665.91 178.69 667.16 182.76 665.64 186.06 C 656.71 162.66 641.00 141.67 619.80 128.11 C 623.44 133.13 628.76 136.75 631.96 142.16 C 627.47 139.84 623.96 136.07 619.81 133.24 C 586.57 107.66 545.25 91.54 503.02 91.85 C 500.32 92.25 496.85 91.35 494.77 93.51 C 516.61 102.43 538.08 113.40 555.82 129.19 C 558.17 131.42 561.08 133.33 562.44 136.39 C 539.41 131.15 514.89 129.55 491.97 136.29 C 472.57 142.06 454.96 153.46 441.40 168.44 C 439.74 170.34 438.07 172.32 437.24 174.74 C 443.19 174.37 449.29 169.27 455.95 169.03 C 466.85 165.37 478.62 166.17 489.96 166.64 C 501.41 167.07 512.80 169.38 523.08 174.51 C 518.20 178.19 512.74 181.04 507.97 184.88 C 492.24 196.80 479.99 214.37 477.09 234.12 C 481.55 232.31 484.32 227.91 488.48 225.51 C 502.58 214.88 519.42 208.58 536.21 204.60 C 538.38 204.59 535.92 210.08 534.28 207.84 C 532.45 205.79 532.15 209.18 531.31 210.30 C 535.61 211.01 539.08 207.94 538.06 203.57 C 540.86 203.16 543.96 201.68 546.29 204.13 C 548.97 202.47 552.18 202.94 554.80 201.09 C 557.49 204.08 553.47 203.74 551.93 205.56 C 549.72 207.92 544.88 203.00 543.64 206.77 C 540.85 205.44 538.24 205.98 538.43 209.69 C 547.34 207.51 556.37 207.24 565.18 204.85 C 564.33 203.78 563.39 202.80 562.44 201.84 C 563.98 205.88 558.64 203.93 556.43 204.41 C 557.92 202.95 558.75 198.10 561.50 200.55 C 572.42 195.77 586.47 199.34 598.19 201.99 C 596.13 199.09 591.16 199.11 590.74 195.08 C 588.33 197.76 585.60 193.94 583.43 192.71 C 571.70 189.86 559.71 188.25 547.65 187.80 C 566.15 181.39 587.83 181.15 606.05 189.14 C 611.67 191.33 616.06 195.66 621.45 198.20 C 615.29 189.95 605.77 185.07 598.28 178.21 C 593.33 177.66 589.06 174.88 584.33 173.54 C 575.54 170.15 565.92 170.41 556.88 168.62 C 577.47 161.75 600.72 162.65 620.58 171.50 C 622.76 172.35 624.57 173.85 626.39 175.29 C 636.33 178.49 643.51 186.44 651.21 193.03 C 646.25 183.33 638.12 176.12 630.50 168.52 C 616.07 154.75 599.20 143.39 580.56 136.18 C 604.13 133.21 627.56 144.83 644.09 160.92 C 654.61 172.08 665.37 184.29 669.12 199.52 C 672.21 202.93 671.38 208.96 675.20 211.49 C 672.29 199.26 671.83 186.34 673.59 173.78 C 677.58 158.60 683.84 143.34 695.16 132.14 C 707.44 116.04 726.46 102.94 747.22 102.30 C 742.28 105.23 736.66 106.80 731.67 109.66 C 702.47 125.38 680.10 156.05 680.01 189.99 C 679.19 199.51 682.97 208.42 687.55 216.51 C 689.10 216.77 690.77 216.87 692.00 217.99 C 698.51 222.94 706.94 225.48 715.08 224.76 C 718.40 224.10 714.52 220.77 716.29 218.61 C 709.90 222.59 719.23 215.05 713.50 214.49 C 710.70 213.92 714.09 216.55 714.29 217.45 C 711.83 217.38 710.82 214.88 709.99 212.96 C 708.47 211.24 712.51 207.81 708.71 208.08 C 710.28 203.63 708.16 198.79 708.77 194.05 C 710.26 167.18 728.63 143.28 752.00 131.02 C 771.81 121.70 796.33 122.15 815.13 133.77 C 837.50 146.97 850.62 173.30 849.72 199.00 C 849.71 210.40 848.79 221.97 844.56 232.66 C 837.43 253.36 820.55 269.71 800.53 278.02 C 803.28 273.98 807.71 271.57 811.17 268.20 C 826.41 255.01 838.46 236.62 839.70 216.06 C 842.18 190.56 830.14 163.65 808.03 150.17 C 798.74 144.75 787.63 141.23 776.84 143.26 C 793.11 147.13 809.67 154.43 819.25 168.91 C 800.68 156.94 775.47 149.53 754.70 159.76 C 768.71 160.12 783.35 162.04 795.46 169.62 C 806.93 176.18 817.12 186.23 820.84 199.21 C 818.09 197.66 816.54 194.79 814.39 192.60 C 798.28 174.84 771.21 167.65 748.75 176.61 C 754.98 178.75 761.80 178.04 768.09 180.10 C 786.03 185.08 803.61 198.02 807.82 217.04 C 803.90 214.42 801.98 209.67 798.30 206.70 C 787.14 196.55 772.54 188.23 756.97 189.53 C 754.45 189.82 751.44 189.76 749.78 192.01 C 752.34 191.77 754.92 191.01 757.52 191.47 C 760.42 191.79 761.05 196.97 764.24 194.30 C 761.71 196.38 759.47 198.43 764.24 198.70 C 762.05 200.85 759.59 197.88 757.38 197.37 C 758.51 196.28 761.90 196.35 759.69 194.40 C 757.93 191.24 754.45 192.98 751.74 193.26 C 752.81 196.08 755.75 194.35 757.96 194.32 C 757.40 197.82 753.22 194.83 751.09 195.67 C 750.61 198.67 755.48 195.90 755.61 198.34 C 758.83 197.97 761.60 203.76 764.58 199.85 C 766.46 198.42 763.98 202.51 763.15 202.71 C 768.90 204.54 773.06 209.42 778.85 211.32 C 785.98 219.64 793.84 228.60 795.47 239.93 C 783.90 223.88 766.49 209.24 745.41 211.00 C 747.31 213.46 741.46 213.27 744.79 214.36 C 747.65 213.31 747.58 217.02 749.81 217.88 C 750.69 215.62 750.91 213.21 747.66 214.58 C 750.81 210.80 753.96 215.95 752.05 219.09 C 755.39 221.65 759.15 223.91 761.30 227.67 C 769.82 235.44 779.23 243.43 782.05 255.13 C 774.45 244.70 763.62 236.45 751.06 233.04 C 747.74 232.27 744.12 231.45 740.84 232.78 C 751.29 240.22 761.96 248.55 767.92 260.29 C 758.19 250.25 744.42 243.39 730.19 244.73 C 741.67 252.95 752.00 263.18 759.84 274.96 L 759.23 275.39 C 749.72 267.87 739.69 261.00 729.36 254.65 C 726.54 252.32 725.70 259.48 728.35 259.64 C 731.85 260.04 724.23 264.33 728.57 263.37 C 732.25 261.87 732.39 265.44 732.82 268.11 C 731.79 266.85 730.95 265.39 729.72 264.34 C 727.72 268.54 734.97 268.51 733.09 272.99 C 732.29 277.06 736.72 274.12 738.27 272.93 C 737.92 274.59 736.54 275.58 735.42 276.71 C 749.39 293.20 771.89 304.52 793.98 300.44 C 823.46 297.08 849.49 277.14 862.87 251.03 C 874.58 229.25 877.30 203.55 873.53 179.34 C 867.96 142.91 841.23 111.26 807.00 98.17 C 789.49 90.86 770.05 90.02 751.37 91.51 M 443.28 138.38 C 413.77 149.92 388.89 170.49 367.03 193.00 C 345.71 214.77 328.27 240.09 313.76 266.81 C 298.63 298.38 288.97 332.97 287.52 368.03 C 285.92 375.66 297.50 374.85 298.15 382.19 C 294.98 383.08 291.78 381.91 288.64 381.50 C 272.72 379.32 255.40 385.27 245.60 398.31 C 252.43 396.92 259.83 394.88 266.64 397.40 C 268.44 400.23 263.50 399.43 261.94 400.24 C 263.34 400.94 265.09 401.16 266.13 402.45 C 245.40 413.94 227.03 433.03 223.03 457.10 C 229.27 448.18 236.22 439.44 245.14 433.07 C 243.56 435.82 241.16 438.02 239.81 440.92 C 243.81 438.80 247.10 435.58 251.11 433.48 C 247.80 440.20 242.90 446.06 239.96 453.00 C 232.83 467.50 231.84 484.14 233.60 499.96 C 233.17 502.04 236.61 505.58 237.10 501.90 C 238.34 487.48 241.71 472.30 251.03 460.88 C 250.39 463.85 247.36 466.66 248.78 469.78 C 249.99 468.69 251.04 467.45 252.15 466.26 C 250.57 479.26 250.62 492.79 254.58 505.39 C 259.99 507.51 265.91 508.75 270.55 512.46 C 273.66 514.64 273.68 519.18 277.05 521.12 C 285.06 526.53 291.85 533.50 298.42 540.54 C 302.42 544.89 306.60 549.82 306.98 556.01 C 307.16 559.64 307.76 563.84 311.66 565.28 C 352.61 587.71 401.15 593.53 447.02 587.54 C 443.34 591.15 438.00 592.54 433.75 595.46 C 435.23 597.54 438.77 597.26 441.07 598.27 C 481.58 609.74 524.26 614.97 566.19 609.76 C 559.29 604.20 550.77 600.63 544.73 593.97 C 563.21 598.79 581.77 604.48 601.01 605.01 C 621.12 605.14 641.49 606.36 661.35 602.46 C 698.30 595.02 736.69 582.35 763.09 554.08 C 776.03 540.97 787.82 525.89 793.11 507.97 C 796.91 496.20 796.37 483.75 796.11 471.57 C 798.38 474.71 799.60 478.49 801.94 481.60 C 801.88 478.26 800.96 475.06 800.31 471.82 C 809.75 487.41 809.89 506.94 806.78 524.43 C 813.24 513.97 817.15 501.39 815.91 488.97 C 815.61 469.93 807.05 452.03 796.08 436.85 C 800.93 438.71 804.37 442.89 809.01 445.12 C 806.75 442.15 803.66 439.86 801.82 436.58 C 814.56 443.24 822.46 456.24 829.84 468.11 C 826.66 440.46 806.62 416.72 782.91 403.46 C 791.53 398.78 802.88 401.10 811.49 405.21 C 804.50 396.13 794.14 389.81 783.63 385.48 C 771.19 380.73 757.59 381.92 744.68 383.54 C 744.43 382.92 743.95 381.69 743.70 381.07 C 750.39 373.62 760.22 370.28 769.49 367.31 C 768.57 336.11 754.79 306.94 737.32 281.63 C 736.76 280.61 735.95 279.91 734.89 279.52 C 749.09 303.30 757.06 330.61 760.94 357.83 C 759.08 357.12 754.04 361.05 757.28 360.81 C 757.68 357.77 760.35 360.21 762.07 360.51 C 759.78 362.46 757.22 364.42 757.33 367.77 C 753.77 369.85 749.79 371.45 745.69 372.03 C 751.43 370.75 748.34 363.35 744.17 361.79 C 747.83 364.16 742.78 368.90 747.20 367.79 C 745.74 370.38 743.59 372.53 742.12 375.15 C 741.10 372.08 742.24 368.97 742.70 365.92 C 741.92 362.64 740.73 358.24 743.60 355.68 C 740.74 351.36 740.67 346.10 739.62 341.20 C 730.47 300.02 707.94 260.50 672.49 236.59 C 651.91 223.11 626.04 219.01 602.05 223.67 C 575.72 230.81 552.67 247.49 535.69 268.63 C 515.79 292.45 503.57 321.84 497.03 351.98 C 495.81 357.03 495.73 362.46 493.42 367.19 C 490.17 343.37 486.08 319.48 477.17 297.03 C 472.31 284.90 467.95 271.98 458.62 262.48 C 446.88 236.85 418.80 218.87 390.36 221.50 C 368.63 222.55 350.74 237.50 337.76 253.80 C 323.94 270.37 315.76 290.67 308.68 310.81 C 301.83 329.81 299.03 349.97 298.81 370.08 C 297.25 376.22 293.56 369.37 294.33 366.07 C 293.91 332.94 305.21 300.80 319.29 271.23 C 344.22 223.24 381.67 181.10 428.14 153.18 C 433.59 147.46 440.02 142.84 445.85 137.56 C 445.21 137.77 443.92 138.18 443.28 138.38 M 324.24 145.27 C 324.78 145.82 324.78 145.82 324.24 145.27 M 302.29 159.26 C 303.23 160.87 307.46 160.47 308.65 159.37 C 306.66 158.85 304.21 158.38 302.29 159.26 M 334.19 162.92 C 334.48 166.30 337.06 161.35 334.19 162.92 M 338.13 180.15 C 337.00 184.13 342.22 179.00 338.13 180.15 M 344.00 180.32 C 342.55 183.35 347.34 180.24 344.00 180.32 M 340.72 182.52 C 342.21 184.11 342.57 187.80 344.93 187.92 C 344.13 185.85 343.43 182.60 340.72 182.52 M 338.06 187.03 C 338.89 189.67 339.10 192.42 338.24 195.09 C 340.18 193.29 341.37 190.90 342.13 188.40 C 340.45 189.19 339.26 187.99 338.06 187.03 M 308.34 197.32 C 308.49 198.93 311.39 199.93 312.72 199.04 C 312.43 197.44 309.70 197.19 308.34 197.32 M 305.28 198.28 C 303.31 200.06 306.25 203.27 308.02 201.07 C 310.24 199.67 306.68 199.43 305.74 199.83 C 307.85 198.91 306.91 196.42 305.28 198.28 M 466.35 199.27 C 462.36 202.90 469.71 201.35 466.35 199.27 M 564.54 200.16 C 564.92 201.43 569.11 202.60 568.53 200.11 C 567.43 199.22 565.67 199.47 564.54 200.16 M 718.25 202.88 C 717.84 206.99 722.14 202.59 718.25 202.88 M 550.42 204.10 C 550.33 207.50 553.44 202.50 550.42 204.10 M 714.30 204.08 C 714.40 207.42 717.24 202.56 714.30 204.08 M 712.25 206.20 C 712.89 210.63 716.95 205.61 712.25 206.20 M 716.39 206.08 C 715.74 210.05 720.34 205.41 716.39 206.08 M 712.01 209.15 C 710.46 212.16 715.34 209.24 712.01 209.15 M 713.23 212.75 C 715.45 213.73 717.57 214.96 719.06 216.95 C 719.85 219.58 714.92 222.98 718.88 224.55 C 722.20 223.01 722.60 221.73 718.32 221.96 C 721.91 219.43 718.76 214.34 722.22 211.44 C 720.79 212.41 719.43 213.47 717.95 214.35 C 718.22 212.86 720.59 208.89 716.66 211.19 C 718.08 207.07 714.04 211.17 713.23 212.75 M 562.38 210.47 C 556.39 211.65 549.78 212.18 544.67 215.80 C 552.19 213.90 559.99 212.71 567.31 210.19 C 565.65 210.15 564.01 210.27 562.38 210.47 M 522.49 212.11 C 521.68 212.07 519.01 213.45 520.83 214.05 C 522.39 214.63 525.81 211.64 522.49 212.11 M 311.46 214.96 C 312.73 218.51 315.27 212.99 311.46 214.96 M 721.28 215.04 C 719.38 220.49 725.23 214.46 721.28 215.04 M 510.61 216.59 C 507.84 217.60 505.01 218.78 502.85 220.84 C 506.44 219.46 510.18 218.21 513.33 215.94 C 512.65 216.10 511.29 216.43 510.61 216.59 M 716.83 217.23 C 715.09 220.03 720.17 217.74 716.83 217.23 M 718.27 252.20 C 718.87 252.83 718.87 252.83 718.27 252.20 M 723.32 254.24 C 723.52 257.58 726.34 252.76 723.32 254.24 M 724.21 256.88 C 724.26 260.24 727.25 255.37 724.21 256.88 M 725.13 264.33 C 724.33 269.10 729.44 265.06 725.13 264.33 M 751.95 357.36 C 750.37 360.37 755.28 357.36 751.95 357.36 M 746.47 359.17 C 740.74 360.78 748.81 362.04 746.47 359.17 M 750.06 361.03 C 750.34 362.54 750.74 364.02 751.27 365.46 C 753.05 365.02 754.28 365.51 754.65 367.48 C 754.55 365.70 755.07 364.36 756.92 364.12 C 757.47 361.32 753.61 362.32 752.81 364.06 C 752.29 362.61 752.10 360.67 750.06 361.03 M 750.95 367.17 C 749.41 370.20 754.28 367.22 750.95 367.17 M 214.34 521.46 C 209.37 522.35 203.01 521.36 199.05 524.68 C 211.23 530.50 225.03 528.56 238.03 527.96 C 243.12 527.35 248.90 527.54 253.20 524.37 C 240.59 520.93 227.32 520.54 214.34 521.46 M 270.42 535.39 C 261.94 542.36 250.48 543.39 239.96 544.32 C 220.83 544.95 200.23 546.02 183.01 536.21 C 179.79 537.14 177.32 541.16 174.83 543.73 C 187.81 549.06 202.04 551.04 216.02 551.23 C 236.74 551.23 258.28 552.22 278.02 544.95 C 277.68 541.06 273.03 538.32 270.42 535.39 M 168.69 559.10 C 172.19 565.39 177.09 570.78 181.39 576.53 C 186.11 582.13 190.52 588.85 197.72 591.43 C 214.13 596.91 231.99 597.67 248.90 594.15 C 255.30 592.80 262.02 590.52 266.17 585.14 C 272.62 577.32 279.22 569.53 284.57 560.91 C 259.95 567.80 234.08 569.32 208.66 567.50 C 195.04 566.51 181.47 563.98 168.69 559.10 M 785.14 568.97 C 783.92 570.40 781.15 571.86 781.77 573.92 C 796.74 599.06 808.75 625.94 816.66 654.17 C 817.76 658.24 819.83 664.56 814.52 666.13 C 816.93 665.28 822.73 664.47 818.20 667.51 C 821.72 669.54 820.50 671.65 817.87 673.80 C 821.53 674.05 825.22 674.19 828.88 673.76 C 825.01 635.50 811.28 597.65 785.85 568.37 L 785.14 568.97 M 295.11 576.98 C 292.20 579.61 289.81 582.80 287.91 586.22 C 294.05 586.92 300.25 586.31 306.38 585.83 C 302.93 582.54 299.22 579.38 295.11 576.98 M 761.37 590.43 C 758.48 590.05 761.06 593.77 759.26 593.62 C 756.55 592.76 759.14 595.08 759.29 595.82 C 761.28 595.90 760.42 592.40 762.03 591.55 C 763.85 591.44 764.43 596.82 765.40 593.06 C 768.16 590.47 763.25 589.38 761.37 590.43 M 775.21 590.25 C 775.82 590.86 775.82 590.86 775.21 590.25 M 769.45 594.38 C 765.83 596.28 762.74 605.71 758.72 599.65 C 761.70 604.36 755.81 606.62 752.71 608.74 C 737.31 617.18 720.46 623.61 702.89 625.36 C 700.13 625.82 696.84 625.13 696.56 621.80 C 695.23 623.11 693.97 623.53 692.86 621.66 C 689.67 622.06 688.38 626.06 684.81 625.34 C 691.57 630.94 699.91 636.13 702.38 645.15 C 703.84 647.26 700.97 646.25 700.09 646.39 C 700.26 647.38 703.04 651.15 700.16 648.96 C 689.20 642.06 677.83 635.25 665.12 632.15 C 641.88 628.07 615.75 630.39 597.04 646.11 C 588.24 653.21 580.86 663.28 580.36 674.95 C 579.95 681.00 582.30 687.89 587.83 690.96 C 591.91 673.80 604.33 654.40 623.89 654.08 C 620.92 658.91 616.42 662.60 613.67 667.60 C 606.68 679.16 603.59 694.49 609.92 706.99 C 614.25 716.87 625.66 721.34 635.90 719.79 C 633.93 710.59 634.21 700.81 638.25 692.18 C 643.42 680.39 653.49 668.76 667.19 667.98 C 660.32 677.66 654.21 688.66 655.21 701.00 C 653.94 711.72 664.14 722.90 675.21 719.42 C 691.79 714.72 697.84 696.40 707.30 684.19 C 707.36 687.97 706.26 691.64 706.12 695.41 C 708.34 692.68 708.73 688.97 710.94 686.22 C 711.43 688.98 710.73 691.68 709.60 694.19 C 744.10 698.56 781.20 675.62 789.39 641.17 C 791.41 629.09 792.07 615.97 787.45 604.42 C 782.89 602.93 787.54 606.87 787.04 608.99 C 787.45 630.11 780.97 653.11 764.50 667.25 C 761.16 666.52 763.21 669.96 761.01 671.07 C 755.40 677.22 747.40 679.70 740.92 684.45 C 743.64 680.86 739.35 681.36 737.11 679.91 C 737.97 681.37 738.90 682.80 739.71 684.31 C 735.81 683.55 731.95 687.21 728.49 684.49 C 725.90 686.85 725.53 682.90 726.29 681.54 C 757.28 673.76 777.07 639.13 771.32 608.07 C 769.56 603.23 772.16 598.52 775.67 595.32 C 775.09 591.84 772.38 601.34 771.46 596.51 C 770.63 596.04 770.74 593.07 769.45 594.38 M 754.48 595.57 C 750.83 597.40 746.72 601.28 747.93 605.10 C 749.97 603.55 754.15 596.02 754.48 595.57 M 756.26 595.30 C 754.17 600.44 761.17 595.21 756.26 595.30 M 764.26 597.23 C 764.79 597.80 764.79 597.80 764.26 597.23 M 758.29 598.04 C 758.90 598.66 758.90 598.66 758.29 598.04 M 336.36 601.50 C 317.24 602.75 298.11 603.71 279.00 604.98 C 277.24 605.48 274.33 604.81 273.43 606.72 C 316.20 616.44 359.31 624.60 402.06 634.40 C 411.98 635.99 422.08 635.17 432.06 634.81 C 453.09 633.43 474.15 631.99 495.09 629.65 C 448.64 619.56 401.77 611.11 355.08 602.06 C 348.96 600.22 342.60 601.08 336.36 601.50 M 756.16 602.45 C 753.97 606.20 759.75 603.40 756.16 602.45 M 741.88 603.04 C 743.09 604.99 744.62 606.73 746.55 608.03 C 747.22 605.27 744.57 602.80 741.88 603.04 M 207.61 604.32 C 213.06 608.30 220.60 606.95 227.00 607.37 C 234.07 606.78 241.98 607.95 248.33 604.28 C 234.78 605.51 221.17 605.39 207.61 604.32 M 739.23 604.39 C 739.86 605.03 739.86 605.03 739.23 604.39 M 773.27 606.30 C 773.77 606.93 773.77 606.93 773.27 606.30 M 734.77 606.90 C 735.65 608.70 736.71 610.42 737.76 612.14 C 737.12 608.60 738.66 608.40 741.41 609.96 C 740.17 607.52 737.26 606.89 734.77 606.90 M 742.13 607.21 C 742.76 607.84 742.76 607.84 742.13 607.21 M 751.24 607.25 C 751.79 607.79 751.79 607.79 751.24 607.25 M 205.05 611.62 C 203.77 626.59 203.88 641.67 203.59 656.68 C 215.49 667.06 234.44 671.18 248.68 662.75 C 248.75 647.50 248.78 632.22 248.13 616.98 C 245.42 616.72 245.48 615.28 248.29 615.80 C 247.88 613.07 244.72 613.77 242.82 614.11 C 240.92 623.02 242.71 632.49 240.48 641.31 C 239.44 632.34 239.40 623.24 237.95 614.33 C 234.00 613.14 229.52 616.62 226.05 614.35 C 225.19 626.25 226.12 638.56 223.52 650.19 C 223.63 638.96 222.41 627.51 221.62 616.56 C 222.73 613.57 216.33 614.41 214.11 614.17 C 213.87 626.20 213.71 638.39 211.43 650.22 C 210.85 639.11 210.31 628.00 209.85 616.90 C 209.95 614.22 207.78 611.61 205.05 611.62 M 723.28 612.01 C 723.07 615.98 726.45 615.12 729.30 614.66 C 728.27 612.37 725.39 612.39 723.28 612.01 M 731.13 613.02 C 730.76 617.19 734.91 612.33 731.13 613.02 M 736.34 614.10 C 736.97 614.73 736.97 614.73 736.34 614.10 M 716.40 616.25 C 716.69 620.85 720.90 615.68 716.40 616.25 M 721.23 617.04 C 721.84 617.66 721.84 617.66 721.23 617.04 M 774.10 617.39 C 773.40 621.33 778.08 616.74 774.10 617.39 M 784.29 617.19 C 784.14 620.55 787.31 615.74 784.29 617.19 M 714.42 617.97 C 714.19 619.01 714.81 620.63 715.97 620.85 C 717.89 620.19 715.90 617.09 714.42 617.97 M 705.00 621.22 C 703.37 624.20 708.35 621.35 705.00 621.22 M 780.25 621.42 C 780.79 622.05 780.79 622.05 780.25 621.42 M 701.35 622.33 C 698.38 623.80 702.37 625.42 703.47 623.34 C 704.81 621.89 702.12 621.53 701.35 622.33 M 708.24 622.22 C 704.22 626.16 715.22 621.18 708.24 622.22 M 682.39 623.16 C 681.35 625.30 685.93 624.93 685.48 623.13 C 684.44 622.47 683.41 622.48 682.39 623.16 M 781.21 623.02 C 781.78 623.64 781.78 623.64 781.21 623.02 M 268.91 624.03 C 268.61 632.50 268.39 640.98 268.42 649.46 C 273.00 652.78 278.30 652.03 283.05 649.62 C 300.48 647.22 318.76 649.39 335.01 656.27 C 340.15 658.26 344.30 662.13 349.59 663.79 C 355.01 667.85 359.53 672.98 364.60 677.40 C 375.98 680.09 387.29 683.76 398.90 685.15 C 399.94 677.17 399.32 669.07 399.20 661.05 C 399.14 657.27 398.63 652.02 394.05 651.17 C 373.61 645.63 352.69 642.04 332.04 637.35 C 310.96 633.12 290.17 627.26 268.91 624.03 M 802.30 641.19 C 802.41 644.47 805.35 639.60 802.30 641.19 M 806.22 642.29 C 804.50 645.09 809.56 642.69 806.22 642.29 M 773.07 645.31 C 771.10 649.28 776.48 646.63 773.07 645.31 M 498.33 647.46 C 471.87 649.71 445.30 650.97 418.90 653.78 C 417.52 664.86 418.42 676.12 418.23 687.27 C 443.16 686.04 468.06 683.59 492.91 681.20 C 498.16 680.43 505.44 680.68 507.52 674.57 C 509.73 666.86 509.19 658.56 508.50 650.66 C 507.78 645.68 501.79 647.29 498.33 647.46 M 802.90 647.27 C 801.37 650.32 806.23 647.21 802.90 647.27 M 805.05 650.27 C 802.21 653.65 809.81 651.49 805.05 650.27 M 807.21 654.17 C 808.05 658.62 811.91 653.56 807.21 654.17 M 806.36 657.37 C 802.32 658.35 805.26 664.38 806.93 666.91 C 804.75 668.74 804.20 665.21 803.84 663.86 C 802.16 666.40 801.11 669.30 799.60 671.94 C 802.28 675.44 809.09 676.56 809.87 670.95 C 812.53 668.47 815.83 662.68 812.31 660.00 C 812.70 662.18 812.63 664.77 810.14 665.66 C 809.72 663.57 810.73 655.31 808.43 660.95 C 806.26 663.18 806.92 657.41 806.36 657.37 M 560.19 663.37 C 550.14 664.63 539.97 663.80 529.88 663.91 C 527.78 670.45 527.87 677.80 525.00 684.28 C 536.26 683.19 547.59 682.78 558.83 681.53 C 559.46 675.31 559.75 668.98 562.11 663.08 C 561.63 663.15 560.67 663.30 560.19 663.37 M 800.05 664.20 C 798.58 667.25 803.37 664.20 800.05 664.20 M 815.05 668.31 C 813.74 669.10 814.48 671.41 813.95 672.78 C 812.36 672.50 810.28 671.62 810.88 674.38 C 815.00 676.63 817.43 667.71 815.05 668.31 M 175.48 668.84 C 188.26 674.40 200.93 682.59 208.14 695.04 C 223.01 721.16 227.23 753.31 218.94 782.26 C 223.42 782.61 231.68 784.12 232.80 778.09 C 233.90 772.91 234.66 767.60 234.52 762.30 C 234.96 759.04 229.28 761.37 230.00 758.06 C 228.93 754.58 232.20 754.65 234.66 754.41 C 234.31 725.05 224.13 693.43 199.48 675.57 C 192.74 670.14 184.02 668.02 175.48 668.84 M 283.34 669.48 C 282.93 669.60 282.12 669.83 281.71 669.94 C 286.53 675.59 291.90 680.80 295.97 687.07 C 312.31 686.43 328.79 685.78 345.04 683.83 C 340.85 681.63 337.13 677.51 332.01 678.09 C 319.27 678.39 306.56 679.44 293.81 679.61 C 304.48 676.81 315.90 677.69 326.86 676.49 C 326.83 676.24 326.78 675.74 326.76 675.50 C 313.50 668.76 297.87 667.76 283.34 669.48 M 262.25 670.95 C 259.94 674.74 256.58 677.65 253.59 680.88 C 258.76 680.40 263.91 679.90 269.10 679.70 C 270.51 680.00 272.52 678.67 270.67 677.43 C 268.13 675.23 264.96 671.24 262.25 670.95 M 797.20 671.26 C 795.49 674.12 796.19 676.46 799.91 675.07 C 798.51 674.46 797.79 670.49 797.20 671.26 M 753.22 673.35 C 752.02 677.25 757.28 672.02 753.22 673.35 M 735.25 680.25 C 730.92 683.00 738.48 682.87 735.25 680.25 M 258.29 681.46 C 247.84 682.36 237.68 685.31 227.11 685.16 C 228.93 687.56 230.13 692.11 233.96 691.11 C 249.03 690.04 264.15 689.74 279.23 688.68 C 277.79 685.86 275.93 683.27 273.86 680.90 C 268.70 680.50 263.47 681.22 258.29 681.46 M 155.24 685.39 C 141.86 691.15 134.46 705.86 131.18 719.36 C 135.96 716.67 138.96 711.61 144.02 709.27 C 146.50 707.77 150.36 707.30 151.03 703.94 C 151.67 701.09 154.05 696.76 150.07 695.51 C 152.96 694.01 156.21 691.97 159.55 692.50 C 158.28 696.71 155.34 700.44 155.12 704.94 C 157.91 706.79 162.03 706.34 165.38 706.51 C 168.32 703.16 168.84 698.30 171.90 695.01 C 174.33 694.88 176.90 696.74 178.38 698.66 C 175.95 702.13 172.53 705.34 171.45 709.50 C 174.57 712.42 177.77 715.29 181.09 717.99 C 184.99 717.37 189.16 709.78 192.59 715.03 C 190.57 718.02 186.79 718.96 184.21 721.36 C 184.65 724.49 185.81 727.85 187.96 730.20 C 191.39 729.74 194.46 727.61 197.99 727.74 C 199.82 732.95 195.02 733.77 191.15 734.39 C 187.62 735.12 189.15 739.51 189.84 741.93 C 190.76 745.80 196.73 743.31 198.35 745.97 C 195.56 746.42 192.62 745.86 189.94 746.84 C 189.58 749.56 189.26 752.30 189.05 755.05 C 192.53 756.61 201.97 756.06 199.07 762.20 C 195.26 762.74 191.52 760.97 187.70 761.52 C 185.27 762.99 184.86 767.10 188.14 767.78 C 191.15 769.57 198.09 769.00 196.99 774.04 C 195.57 777.39 191.28 774.41 188.61 775.36 C 187.16 772.72 184.17 770.94 181.13 771.08 C 181.74 776.81 189.19 778.70 192.61 782.86 C 191.71 784.31 191.22 787.12 189.23 787.24 C 184.43 784.39 180.53 780.23 175.73 777.40 C 173.33 778.23 170.89 779.27 169.02 781.04 C 171.78 786.63 176.91 790.50 180.23 795.66 C 177.10 796.66 172.78 797.59 170.88 794.03 C 167.26 790.05 166.04 781.36 159.04 782.81 C 153.59 783.16 157.28 790.47 155.17 793.54 C 148.93 792.40 151.19 785.53 150.62 781.32 C 143.64 778.31 138.36 772.97 133.13 767.67 C 137.92 779.99 145.06 792.15 156.09 799.85 C 166.66 805.82 181.74 804.36 189.97 794.99 C 201.78 782.69 205.42 764.91 204.50 748.35 C 204.64 727.32 197.47 704.86 180.55 691.40 C 173.51 685.87 164.05 682.90 155.24 685.39 M 297.98 687.98 C 299.73 695.54 303.83 702.42 306.32 709.80 C 307.42 711.91 307.71 715.87 311.01 715.30 C 330.15 714.67 349.23 712.51 368.40 712.27 C 365.14 703.44 358.92 695.47 351.94 689.16 C 336.19 689.09 320.41 689.92 304.65 689.53 C 302.33 689.51 300.21 688.46 297.98 687.98 M 894.35 690.49 C 853.36 692.94 812.38 695.65 771.43 698.50 C 766.23 702.24 760.74 705.71 755.67 709.63 C 802.81 708.82 849.84 703.79 897.02 704.25 C 899.75 704.40 902.67 704.10 905.16 705.50 C 859.57 709.69 813.79 712.04 768.01 712.94 C 757.63 713.20 747.02 712.50 736.92 715.39 C 727.51 717.27 717.78 715.08 708.37 715.93 C 705.69 720.82 702.72 725.52 699.02 729.70 C 711.95 730.80 724.98 729.78 737.91 730.88 C 738.39 731.29 739.34 732.12 739.81 732.53 C 799.30 735.52 858.47 726.24 917.69 722.08 C 917.77 714.01 918.78 705.75 917.34 697.80 C 913.72 688.69 902.29 689.75 894.35 690.49 M 270.35 692.50 C 258.23 693.48 245.85 692.65 233.90 694.84 C 236.75 702.94 240.18 710.84 243.43 718.79 C 259.77 719.17 276.21 717.95 292.49 716.49 C 291.62 708.02 286.80 699.35 282.15 691.98 C 278.21 691.84 274.28 692.35 270.35 692.50 M 494.45 702.49 C 492.51 703.17 492.34 705.60 492.37 707.35 C 498.43 710.01 507.92 712.57 511.79 705.98 C 509.36 699.59 499.83 701.57 494.45 702.49 M 553.34 702.49 C 545.87 702.91 535.49 702.85 532.51 711.39 C 530.09 719.36 530.23 728.06 531.04 736.29 C 554.59 737.35 578.06 734.62 601.57 733.73 C 596.12 729.03 592.65 722.81 589.09 716.75 C 579.92 715.80 570.93 710.74 566.42 702.51 C 562.11 701.75 557.69 702.47 553.34 702.49 M 380.48 703.32 C 381.14 712.37 392.54 711.94 399.12 714.27 C 399.25 711.70 400.69 706.96 397.06 706.40 C 391.68 705.51 385.07 702.62 380.48 703.32 M 468.35 703.49 C 465.43 704.37 459.37 702.33 459.90 707.04 C 458.98 738.05 459.39 769.10 457.70 800.08 C 457.43 801.07 458.00 802.79 456.51 802.92 C 454.71 779.30 454.81 755.59 453.58 731.94 C 453.35 722.94 451.52 714.07 451.88 705.05 C 447.72 704.98 443.55 705.20 439.41 705.54 C 439.13 719.13 438.02 732.69 436.68 746.21 C 434.90 745.12 435.36 742.75 435.00 741.01 C 434.55 729.23 431.30 717.80 431.89 705.95 C 428.11 705.95 424.30 705.99 420.58 706.65 C 420.08 734.64 420.21 762.65 419.50 790.64 C 419.12 795.59 419.50 800.85 417.42 805.48 C 413.47 810.95 406.19 811.21 400.08 811.87 C 338.22 817.74 276.29 823.02 214.42 828.67 C 218.06 831.86 222.13 834.84 223.66 839.68 C 236.53 840.05 249.49 838.57 262.38 839.24 C 249.99 842.88 236.73 842.88 224.05 845.30 C 223.29 852.50 224.30 859.81 224.73 867.03 C 232.89 867.20 241.02 865.84 249.18 866.32 C 242.37 868.74 234.98 868.83 228.07 870.86 C 225.26 871.44 224.64 874.56 224.75 877.00 C 224.85 883.27 225.27 889.54 225.53 895.81 C 234.18 895.82 243.07 894.76 251.71 893.58 C 254.37 890.36 250.15 889.37 247.73 888.72 C 250.02 887.98 253.38 887.95 253.62 884.83 C 257.36 862.18 275.37 842.24 297.93 837.27 C 311.00 834.73 324.59 836.79 337.07 841.09 C 347.71 842.46 358.55 837.59 369.11 839.58 C 359.98 841.05 350.71 841.51 341.60 843.11 C 350.10 852.77 362.83 845.80 373.47 846.11 C 367.03 848.84 359.83 849.10 353.19 851.24 C 359.14 858.31 364.20 866.02 368.46 874.22 C 372.37 857.01 384.37 841.54 400.80 834.72 C 420.93 825.70 445.46 828.98 463.05 842.05 C 464.87 843.52 467.30 843.05 469.46 843.21 C 463.04 845.25 471.22 849.87 473.36 852.77 C 473.50 847.07 473.47 841.36 473.41 835.66 C 468.77 834.97 463.78 837.48 458.96 837.69 C 462.47 833.82 469.20 835.25 473.49 832.66 C 473.45 790.75 473.47 748.83 472.77 706.93 C 473.14 704.04 471.04 702.52 468.35 703.49 M 368.41 713.67 C 368.35 714.50 368.24 716.16 368.18 716.99 C 348.95 718.01 329.57 717.96 310.45 720.50 C 311.08 729.98 313.98 739.27 313.34 748.89 C 326.50 748.99 339.59 746.88 352.73 746.40 C 354.19 749.26 355.09 749.28 355.87 746.11 C 361.11 746.06 369.20 742.44 372.48 747.88 C 370.61 750.70 366.86 750.17 363.97 750.97 C 347.33 751.98 330.44 752.04 314.03 755.12 C 313.77 761.98 312.88 768.79 311.37 775.49 C 329.13 773.87 346.91 772.28 364.66 770.54 C 367.65 770.10 370.92 770.20 373.51 768.42 C 374.90 762.75 374.39 756.80 374.64 751.01 C 374.50 738.42 374.88 724.94 368.41 713.67 M 493.81 715.96 C 493.15 717.38 493.04 718.96 493.26 720.51 C 499.20 722.11 505.23 723.98 511.37 724.46 C 512.56 721.95 510.66 719.02 507.97 718.79 C 503.25 717.80 498.42 717.46 493.81 715.96 M 384.86 716.52 C 387.16 725.26 387.93 734.27 388.62 743.25 C 392.23 744.69 395.94 746.19 399.86 746.46 C 400.62 738.32 400.52 730.11 400.00 721.96 C 400.30 720.18 398.68 719.14 397.12 719.14 C 392.93 718.75 388.95 717.36 384.86 716.52 M 152.20 721.38 C 136.48 725.37 135.04 746.97 143.79 758.13 C 148.12 764.79 158.27 768.48 164.84 762.86 C 171.81 756.05 172.80 745.18 171.11 736.06 C 168.89 728.06 161.31 719.25 152.20 721.38 M 273.34 722.48 C 263.91 722.99 254.44 723.03 245.07 724.18 C 245.98 729.54 245.20 736.37 249.69 740.20 C 246.30 743.13 247.46 749.92 249.68 753.46 C 265.83 754.17 281.95 751.52 298.07 750.66 C 298.35 741.72 297.86 731.27 294.42 722.52 C 287.65 721.19 280.32 722.56 273.34 722.48 M 914.35 727.45 C 883.85 729.69 853.41 732.64 822.93 735.13 C 782.76 739.37 742.32 737.63 702.01 738.61 C 695.93 738.94 689.54 738.25 683.78 740.64 C 674.33 744.33 663.70 744.07 654.09 741.12 C 648.22 738.90 642.82 743.13 637.04 743.60 C 627.17 745.67 617.84 740.56 608.01 741.02 C 583.01 741.06 557.98 740.57 533.01 741.92 C 529.72 741.59 531.19 745.94 531.80 747.85 C 542.49 748.71 553.37 748.07 563.93 750.12 C 554.16 754.17 541.99 754.31 531.86 757.95 C 531.21 766.02 530.47 774.25 531.67 782.30 C 540.85 783.38 550.60 782.41 560.00 782.78 C 564.68 783.58 567.33 778.94 570.84 776.76 C 604.52 750.77 654.28 750.32 689.55 773.50 C 693.34 775.38 696.41 779.78 701.07 778.89 C 722.34 777.22 743.66 776.54 764.96 775.35 C 769.16 775.12 773.69 774.84 777.04 771.94 C 787.35 764.28 799.18 758.42 811.95 756.41 C 824.14 753.80 836.63 755.15 848.96 755.58 C 870.71 756.59 892.44 754.08 913.97 751.28 C 918.56 751.22 917.26 745.80 917.18 742.79 C 891.47 740.84 865.69 742.49 839.96 743.29 C 838.53 743.19 836.81 743.73 835.78 742.46 C 862.52 739.45 889.34 737.22 916.13 734.77 C 918.80 732.84 919.40 725.70 914.35 727.45 M 492.42 728.24 C 492.45 731.51 492.73 734.90 493.96 737.96 C 498.50 739.69 503.36 740.43 508.13 741.27 C 513.92 742.72 511.38 734.72 511.71 731.46 C 505.34 730.43 498.76 727.04 492.42 728.24 M 493.08 746.26 C 492.24 749.95 492.09 753.80 492.43 757.56 C 497.82 761.41 504.63 762.61 511.01 763.88 C 512.46 759.89 511.36 755.11 511.32 750.84 C 505.46 748.92 499.04 748.18 493.08 746.26 M 389.27 751.18 C 387.14 758.18 393.92 761.90 399.98 761.00 C 400.53 758.42 400.52 755.75 400.31 753.15 C 396.62 752.54 392.95 751.80 389.27 751.18 M 283.34 756.47 C 271.83 757.53 260.23 758.09 248.80 759.78 C 247.59 766.64 247.44 773.76 246.08 780.65 C 262.68 779.76 279.25 777.91 295.83 776.66 C 297.71 769.94 298.72 762.82 297.95 755.86 C 293.08 755.40 288.20 756.18 283.34 756.47 M 909.35 756.47 C 897.83 757.61 886.28 758.52 874.86 760.40 C 881.76 765.21 890.04 771.30 899.02 768.98 C 904.69 768.26 910.44 768.07 916.08 767.05 C 917.66 763.56 917.04 759.49 917.26 755.75 C 914.60 755.85 911.97 756.21 909.35 756.47 M 818.35 763.44 C 789.67 768.68 765.33 792.56 760.01 821.28 C 768.40 808.55 776.18 795.04 787.87 784.86 C 797.96 774.46 811.41 768.56 824.45 762.91 C 822.39 762.72 820.35 763.06 818.35 763.44 M 615.38 766.50 C 597.35 770.35 579.97 779.74 569.10 794.95 C 562.96 803.80 558.46 813.87 555.88 824.32 C 559.54 821.60 560.79 816.92 563.26 813.27 C 575.50 792.15 595.47 776.25 617.93 767.10 C 621.34 765.34 616.82 766.23 615.38 766.50 M 388.08 766.94 C 384.60 773.22 395.73 773.51 399.76 774.74 C 403.32 767.37 393.17 765.24 388.08 766.94 M 493.16 767.15 C 492.98 770.07 492.93 773.02 493.16 775.96 C 498.97 777.35 504.76 779.27 510.74 779.69 C 512.77 777.90 511.58 774.57 511.76 772.16 C 505.68 770.11 499.38 768.72 493.16 767.15 M 909.32 772.45 C 905.52 773.03 901.45 773.25 898.00 775.04 C 904.23 780.57 909.46 787.63 915.55 792.94 C 916.17 786.01 916.02 779.04 915.84 772.10 C 913.65 772.08 911.48 772.25 909.32 772.45 M 358.31 778.46 C 342.92 780.11 327.42 780.74 312.09 782.85 C 308.67 782.82 308.68 786.82 307.79 789.20 C 326.80 787.09 345.93 786.15 364.94 784.09 C 368.36 783.97 370.79 780.68 371.43 777.59 C 367.04 777.40 362.67 778.09 358.31 778.46 M 386.07 778.04 C 384.05 780.60 382.25 783.69 381.98 786.98 C 387.63 789.16 393.39 791.11 399.18 792.91 C 399.59 789.00 399.60 785.05 399.32 781.15 C 394.98 779.83 390.55 778.74 386.07 778.04 M 838.34 779.49 C 797.21 783.63 768.71 827.67 775.20 867.15 C 777.40 879.24 780.99 891.53 788.41 901.53 C 801.00 917.77 821.00 929.35 842.02 927.78 C 866.88 928.50 889.47 912.50 901.50 891.48 C 918.75 863.96 916.76 824.74 894.34 800.64 C 880.37 785.32 859.01 776.89 838.34 779.49 M 749.33 780.47 C 733.49 781.32 717.65 782.25 701.81 783.17 C 705.29 787.66 709.19 791.81 712.91 796.11 C 713.85 797.38 715.67 796.49 717.00 796.61 C 729.97 795.23 743.02 794.63 755.98 793.26 C 760.29 789.00 764.20 784.30 767.93 779.52 C 761.72 779.70 755.53 780.15 749.33 780.47 M 631.39 782.54 C 606.76 786.38 586.64 805.23 576.36 827.30 C 568.70 842.74 568.54 860.63 570.48 877.39 C 574.65 897.39 587.13 915.98 605.04 926.15 C 620.85 935.49 640.60 937.36 658.06 931.84 C 673.64 927.13 686.70 916.29 696.46 903.49 C 713.85 881.04 717.00 848.64 705.03 823.01 C 696.47 803.07 678.49 786.81 656.88 782.78 C 648.43 781.83 639.84 781.57 631.39 782.54 M 289.35 784.47 C 274.21 786.20 258.95 786.91 243.82 788.61 C 242.58 790.09 239.26 794.65 242.97 794.47 C 258.29 793.43 273.62 792.10 288.87 790.24 C 293.67 790.92 295.99 781.03 289.35 784.47 M 493.00 784.10 C 492.30 787.75 492.47 791.51 492.71 795.21 C 498.81 797.11 505.05 798.57 511.28 800.04 C 511.67 796.61 511.88 793.11 511.45 789.69 C 505.88 786.55 499.25 785.36 493.00 784.10 M 532.37 787.57 C 530.86 791.14 530.78 797.21 531.54 801.49 C 536.83 802.78 542.53 802.80 547.87 801.82 C 552.43 797.90 555.20 792.36 558.69 787.54 C 549.92 787.39 541.13 787.32 532.37 787.57 M 220.34 789.46 C 215.41 788.84 213.59 793.82 212.22 797.55 C 218.28 795.91 228.91 797.98 229.10 788.93 C 226.17 788.95 223.25 789.21 220.34 789.46 M 358.32 790.45 C 342.28 792.23 326.18 793.39 310.11 794.83 C 306.33 794.73 303.32 797.58 302.08 800.95 C 304.20 802.09 306.70 801.46 308.99 801.40 C 326.00 799.78 343.05 798.60 360.04 796.87 C 362.53 795.33 364.76 792.47 365.56 789.60 C 363.13 789.76 360.73 790.15 358.32 790.45 M 379.26 791.07 C 377.70 794.64 380.52 794.61 383.30 793.92 C 382.48 792.34 380.90 791.50 379.26 791.07 M 285.35 796.48 C 270.06 798.15 254.70 799.11 239.39 800.48 C 237.10 802.48 234.85 804.84 233.85 807.78 C 249.58 806.55 265.35 805.35 281.04 803.68 C 285.21 803.55 287.48 799.74 288.88 796.31 C 287.69 796.32 286.52 796.38 285.35 796.48 M 744.31 799.46 C 735.34 800.12 726.33 800.57 717.39 801.64 C 717.95 805.68 720.27 809.27 722.14 812.84 C 730.14 812.42 738.28 812.44 746.15 810.81 C 748.83 807.34 750.75 803.24 752.28 799.13 C 749.61 799.09 746.96 799.28 744.31 799.46 M 212.36 802.48 C 207.25 802.95 204.36 807.74 200.94 810.96 C 209.09 810.54 219.29 810.43 223.26 801.80 C 219.61 801.81 215.98 802.06 212.36 802.48 M 492.82 802.89 C 492.51 806.57 492.59 810.29 493.00 813.96 C 499.05 816.34 505.47 817.87 511.16 821.15 C 511.67 817.13 512.23 812.86 511.21 808.92 C 505.43 806.12 499.05 804.41 492.82 802.89 M 532.31 807.51 C 529.58 810.18 530.56 817.47 531.40 821.76 C 539.75 823.55 543.35 814.97 544.49 808.34 C 541.36 805.65 536.20 807.80 532.31 807.51 M 732.33 817.47 C 729.79 817.65 727.20 817.81 724.79 818.64 C 727.22 826.23 728.66 834.07 730.26 841.86 C 733.12 841.70 736.15 841.27 738.61 839.70 C 739.68 834.85 740.48 829.93 741.78 825.14 C 738.19 823.95 734.38 824.03 730.67 823.62 C 734.83 821.08 742.62 823.48 744.20 817.87 C 740.37 816.66 736.26 817.43 732.33 817.47 M 493.17 819.70 C 492.24 826.49 492.05 833.57 493.55 840.29 C 498.97 843.26 505.24 844.65 511.19 846.26 C 512.05 838.86 512.14 831.25 511.33 823.86 C 505.89 821.61 499.09 821.05 493.17 819.70 M 131.06 826.02 C 123.89 844.55 117.81 863.51 111.43 882.33 C 108.51 888.65 117.64 889.86 121.90 891.05 C 129.41 872.22 134.10 852.30 140.21 832.95 C 142.87 827.47 134.66 827.10 131.06 826.02 M 532.14 827.15 C 529.37 831.36 530.89 837.11 530.65 841.95 C 529.72 844.94 534.50 845.56 535.00 842.95 C 536.20 837.70 537.01 832.35 537.85 827.04 C 535.97 826.71 533.97 826.47 532.14 827.15 M 159.35 835.16 C 154.24 855.85 147.94 876.30 143.64 897.17 C 146.34 900.75 152.75 900.98 157.15 902.36 C 159.51 903.33 159.82 900.54 160.08 898.95 C 162.86 879.64 165.90 860.36 168.76 841.06 C 169.76 835.80 162.87 835.80 159.35 835.16 M 408.31 840.43 C 397.65 843.65 388.94 852.70 385.92 863.38 C 393.59 854.41 402.38 846.54 411.87 839.56 C 410.98 839.78 409.20 840.21 408.31 840.43 M 188.15 843.58 C 186.12 865.04 183.19 886.45 181.64 907.95 C 187.70 909.51 193.91 910.98 200.20 910.99 C 199.71 892.33 198.87 873.67 199.03 855.00 C 198.91 852.05 199.31 848.87 197.84 846.19 C 195.11 844.14 191.39 844.14 188.15 843.58 M 293.22 847.40 C 285.27 850.85 277.94 857.17 274.66 865.34 C 281.60 859.01 289.03 853.14 295.81 846.67 C 295.16 846.85 293.87 847.22 293.22 847.40 M 731.27 847.47 C 728.53 848.23 730.42 853.25 730.40 855.68 C 732.80 857.33 736.19 856.59 739.00 856.72 C 739.82 853.62 739.30 850.21 739.28 847.00 C 736.59 846.94 733.92 847.15 731.27 847.47 M 493.06 848.94 C 492.90 851.72 491.93 855.08 493.01 857.58 C 499.19 859.25 505.40 861.08 511.75 862.02 C 511.50 859.10 512.75 854.34 509.04 853.30 C 503.75 851.75 498.57 849.57 493.06 848.94 M 425.31 850.42 C 416.37 853.50 408.88 859.92 403.32 867.46 C 393.34 881.79 393.13 902.32 403.26 916.64 C 409.99 926.55 421.94 933.12 434.06 931.90 C 446.43 931.05 457.09 922.85 463.75 912.79 C 475.00 895.37 471.49 869.91 455.37 856.66 C 447.34 849.31 435.51 848.71 425.31 850.42 M 531.32 850.27 C 530.46 853.08 530.39 856.15 531.11 859.01 C 536.64 861.76 536.89 847.27 531.32 850.27 M 316.29 855.43 C 298.00 857.63 283.81 874.29 281.68 892.12 C 278.99 909.80 288.58 929.71 305.94 935.82 C 317.15 938.18 330.15 937.94 339.47 930.38 C 356.90 917.82 361.45 891.62 350.68 873.36 C 343.80 861.62 330.05 853.65 316.29 855.43 M 731.28 863.40 C 728.89 863.88 730.30 867.04 730.25 868.76 C 733.79 868.46 737.31 868.04 740.85 867.70 C 743.13 861.27 735.02 862.79 731.28 863.40 M 532.26 865.26 C 531.16 866.41 530.94 869.88 533.06 869.78 C 536.48 870.87 535.20 864.42 532.26 865.26 M 492.95 865.94 C 495.34 872.66 503.14 872.90 509.01 874.62 C 513.55 875.61 511.27 866.80 508.58 871.50 C 504.63 867.92 498.26 866.93 492.95 865.94 M 735.35 874.45 C 728.56 872.65 726.50 879.24 726.24 884.63 C 732.29 884.33 738.37 884.05 744.39 883.39 C 745.13 880.51 743.10 876.96 741.79 874.21 C 739.63 874.11 737.49 874.40 735.35 874.45 M 492.94 877.43 C 491.77 880.08 491.56 884.13 493.53 886.39 C 499.20 888.53 505.14 890.71 511.20 891.18 C 512.24 888.70 511.82 885.89 511.74 883.29 C 505.59 880.90 498.75 880.70 492.94 877.43 M 530.70 876.67 C 529.01 881.15 533.80 881.07 536.67 879.60 C 537.96 876.39 532.75 876.25 530.70 876.67 M 533.11 887.22 C 530.98 888.63 531.73 892.41 531.44 894.86 C 535.17 895.34 539.00 895.24 542.70 894.50 C 542.28 889.52 538.54 884.79 533.11 887.22 M 237.35 901.50 C 233.66 901.90 229.90 901.99 226.31 902.97 C 226.42 907.72 225.54 912.76 226.88 917.34 C 235.98 916.25 245.13 915.47 254.23 914.34 C 252.98 909.82 253.11 904.87 251.13 900.63 C 246.52 900.57 241.94 901.14 237.35 901.50 Z" />
<path fill="#000000" opacity="1.00" d=" M 273.26 105.43 C 287.36 103.97 302.94 104.07 314.20 113.98 C 307.34 113.69 301.24 109.67 294.32 109.53 C 281.52 108.94 268.07 108.76 256.19 114.29 C 231.16 126.26 213.28 150.84 207.58 177.76 C 206.70 189.18 206.92 200.74 208.17 212.13 C 210.15 224.59 215.89 235.96 220.69 247.45 C 226.53 253.79 230.28 261.60 237.57 266.40 C 240.53 271.24 246.62 271.74 250.45 275.55 C 251.03 278.20 250.76 281.25 253.17 283.07 C 252.08 283.26 247.63 281.22 249.76 283.97 C 253.30 285.81 254.75 282.56 256.98 280.76 C 257.16 282.44 256.48 283.82 255.16 284.82 C 257.19 285.02 259.75 284.86 258.60 287.62 C 255.18 286.97 251.89 285.79 248.67 284.48 C 248.04 282.89 247.51 280.38 246.85 283.78 C 242.17 281.24 237.89 278.00 233.82 274.58 C 236.72 271.92 235.88 271.45 232.97 273.80 C 227.86 270.06 223.79 264.92 221.17 259.34 C 208.02 242.71 200.79 221.26 202.38 200.00 C 200.50 168.05 217.27 136.54 243.06 118.14 C 252.08 111.90 262.28 106.87 273.26 105.43 M 223.22 260.04 C 223.37 263.31 226.30 258.50 223.22 260.04 M 234.13 267.03 C 230.51 269.38 237.36 269.07 234.13 267.03 M 236.99 273.32 C 238.47 276.68 243.46 275.95 244.03 280.05 C 246.56 281.29 251.77 281.15 250.10 276.97 C 248.08 279.09 246.84 279.55 247.03 276.09 C 245.25 271.47 245.52 277.26 245.52 279.13 C 242.68 276.98 241.41 270.97 236.99 273.32 M 242.98 273.13 C 241.41 276.16 246.37 273.25 242.98 273.13 Z" />
<path fill="#000000" opacity="1.00" d=" M 769.27 105.44 C 778.12 104.60 787.11 104.51 795.95 105.63 C 826.16 112.20 850.53 136.24 861.38 164.70 C 871.53 188.90 870.27 216.88 861.34 241.23 C 856.08 252.04 850.66 263.57 841.43 271.54 C 840.64 268.97 847.24 266.58 843.50 265.01 C 842.59 267.33 841.22 269.37 839.69 271.30 C 841.51 274.43 837.33 276.47 835.42 278.34 C 826.25 284.91 816.52 291.29 805.62 294.53 C 803.10 295.28 803.63 292.97 804.56 291.50 C 802.93 291.01 800.90 290.97 800.40 288.99 C 803.51 289.46 806.60 285.02 801.85 287.94 C 800.37 285.32 804.68 285.90 806.14 285.24 C 809.29 283.42 812.42 280.91 816.31 281.34 C 820.10 276.45 826.50 275.83 831.35 272.50 C 830.19 272.65 829.04 272.82 827.91 272.99 C 837.57 263.83 848.08 254.73 853.20 242.18 C 863.12 220.94 867.26 195.81 860.21 173.06 C 852.91 145.85 832.65 121.73 805.74 112.42 C 786.26 106.72 764.68 108.11 746.27 116.71 C 751.75 109.93 761.04 107.29 769.27 105.44 M 850.36 254.22 C 850.17 257.60 853.41 252.83 850.36 254.22 M 839.90 264.18 C 838.39 267.22 843.24 264.18 839.90 264.18 M 838.13 266.19 C 834.69 268.64 841.10 268.57 838.13 266.19 M 835.39 274.20 C 833.98 278.43 839.29 272.61 835.39 274.20 M 814.20 283.30 C 814.83 283.94 814.83 283.94 814.20 283.30 M 824.34 283.04 C 824.14 286.38 827.42 281.72 824.34 283.04 M 810.27 284.05 C 810.42 287.40 813.28 282.50 810.27 284.05 M 810.26 290.24 C 810.86 290.84 810.86 290.84 810.26 290.24 M 807.30 291.48 C 806.12 295.42 811.33 289.98 807.30 291.48 Z" />
<path fill="#000000" opacity="1.00" d=" M 297.25 158.05 C 301.32 157.03 296.06 162.00 297.25 158.05 Z" />
<path fill="#000000" opacity="1.00" d=" M 295.47 175.17 C 297.30 175.37 295.83 179.13 294.29 178.73 C 293.91 177.52 294.61 176.03 295.47 175.17 Z" />
<path fill="#000000" opacity="1.00" d=" M 304.27 175.98 C 307.30 174.40 304.46 179.34 304.27 175.98 Z" />
<path fill="#000000" opacity="1.00" d=" M 299.33 196.97 C 302.36 195.55 299.20 200.35 299.33 196.97 Z" />
<path fill="#000000" opacity="1.00" d=" M 766.31 197.96 C 769.50 198.38 769.12 201.62 769.42 204.11 C 766.84 203.20 767.04 200.12 766.31 197.96 Z" />
<path fill="#000000" opacity="1.00" d=" M 296.59 199.32 C 299.92 199.26 303.15 202.06 303.98 204.87 C 301.75 203.97 299.50 203.13 297.12 202.76 C 299.72 201.82 297.76 200.56 296.59 199.32 Z" />
<path fill="#000000" opacity="1.00" d=" M 556.43 200.29 C 560.47 199.27 555.25 204.27 556.43 200.29 Z" />
<path fill="#000000" opacity="1.00" d=" M 296.21 205.15 C 299.55 205.38 294.67 208.11 296.21 205.15 Z" />
<path fill="#000000" opacity="1.00" d=" M 292.29 210.23 C 297.01 210.57 288.70 213.90 292.29 210.23 Z" />
<path fill="#000000" opacity="1.00" d=" M 716.66 211.19 C 716.37 211.65 716.37 211.65 716.66 211.19 Z" />
<path fill="#000000" opacity="1.00" d=" M 783.41 213.20 C 786.35 211.65 783.61 216.54 783.41 213.20 Z" />
<path fill="#000000" opacity="1.00" d=" M 757.27 216.04 C 760.22 214.48 757.52 219.35 757.27 216.04 Z" />
<path fill="#000000" opacity="1.00" d=" M 753.29 217.39 C 757.28 216.07 752.15 221.42 753.29 217.39 Z" />
<path fill="#000000" opacity="1.00" d=" M 756.20 219.27 C 759.58 219.40 754.65 222.21 756.20 219.27 Z" />
<path fill="#000000" opacity="1.00" d=" M 758.38 219.06 C 759.54 218.42 761.38 218.96 762.07 220.11 C 761.54 221.56 758.24 220.44 758.38 219.06 Z" />
<path fill="#000000" opacity="1.00" d=" M 760.20 222.34 C 763.18 220.74 760.42 225.70 760.20 222.34 Z" />
<path fill="#000000" opacity="1.00" d=" M 764.37 224.15 C 768.49 223.82 764.19 228.02 764.37 224.15 Z" />
<path fill="#000000" opacity="1.00" d=" M 769.17 225.16 C 769.76 225.77 769.76 225.77 769.17 225.16 Z" />
<path fill="#000000" opacity="1.00" d=" M 389.37 235.48 C 398.35 234.12 409.20 235.06 415.33 242.61 C 418.83 246.63 418.88 254.01 413.81 256.76 C 408.00 259.10 401.96 255.32 395.98 256.02 C 387.74 256.26 380.91 261.19 373.85 264.78 C 368.30 267.92 361.90 261.41 363.53 255.73 C 366.22 244.02 378.31 237.36 389.37 235.48 Z" />
<path fill="#000000" opacity="1.00" d=" M 614.27 235.43 C 628.75 233.37 644.40 239.15 653.19 251.01 C 657.69 257.14 654.57 269.17 645.76 268.46 C 638.25 264.70 631.79 258.27 623.10 257.11 C 616.67 255.89 610.36 258.07 604.04 258.78 C 598.38 259.40 593.94 253.04 595.60 247.80 C 597.82 239.76 606.81 236.49 614.27 235.43 Z" />
<path fill="#000000" opacity="1.00" d=" M 729.00 256.44 C 732.54 257.69 726.97 260.25 729.00 256.44 Z" />
<path fill="#000000" opacity="1.00" d=" M 734.20 272.03 C 734.82 272.67 734.82 272.67 734.20 272.03 Z" />
<path fill="#000000" opacity="1.00" d=" M 255.40 277.99 C 258.69 278.02 254.42 281.23 252.96 280.47 C 252.36 279.12 254.50 278.46 255.40 277.99 Z" />
<path fill="#000000" opacity="1.00" d=" M 258.17 279.54 C 262.73 278.64 258.98 284.00 258.17 279.54 Z" />
<path fill="#000000" opacity="1.00" d=" M 261.23 284.16 C 261.81 284.74 261.81 284.74 261.23 284.16 Z" />
<path fill="#000000" opacity="1.00" d=" M 796.87 286.87 C 798.92 287.69 800.44 289.19 800.83 291.44 C 797.83 291.15 799.88 295.12 797.37 295.18 C 798.98 291.64 795.02 290.17 792.53 288.91 C 796.10 289.33 799.59 291.94 796.87 286.87 Z" />
<path fill="#000000" opacity="1.00" d=" M 801.16 293.30 C 804.54 293.57 799.66 296.22 801.16 293.30 Z" />
<path fill="#000000" opacity="1.00" d=" M 377.35 299.46 C 391.39 297.12 407.04 299.21 417.99 308.98 C 435.63 323.28 444.73 346.49 443.17 368.96 C 442.73 387.95 433.93 407.33 417.57 417.68 C 401.47 426.94 378.74 426.52 365.27 412.72 C 350.04 397.37 347.08 373.47 352.41 353.22 C 353.60 348.69 350.25 353.65 348.94 354.93 C 347.60 353.20 347.93 350.82 347.41 348.80 C 339.54 361.51 339.33 377.74 342.68 391.96 C 344.19 399.45 348.51 405.88 350.91 413.04 C 324.87 391.92 323.07 350.54 341.86 324.06 C 349.98 311.75 362.56 301.92 377.35 299.46 M 372.32 325.42 C 362.92 327.90 355.24 337.73 357.43 347.68 C 359.67 360.60 377.94 365.77 387.41 357.33 C 394.06 352.30 395.47 342.63 392.79 335.13 C 389.45 327.59 380.27 323.31 372.32 325.42 M 414.29 343.38 C 409.07 345.58 406.37 351.95 408.67 357.20 C 411.16 364.90 423.73 365.40 426.68 357.78 C 430.56 350.31 422.62 339.58 414.29 343.38 M 415.49 382.50 C 409.89 383.73 406.57 390.85 410.67 395.40 C 414.56 400.27 423.84 398.19 424.59 391.68 C 425.75 386.53 420.32 382.03 415.49 382.50 Z" />
<path fill="#000000" opacity="1.00" d=" M 611.33 299.45 C 629.20 296.61 648.04 302.52 661.45 314.59 C 674.25 325.89 682.23 342.06 684.73 358.86 C 688.49 381.59 678.36 406.49 658.81 419.00 C 668.07 405.97 672.73 390.00 671.79 373.99 C 671.55 366.82 671.57 358.62 666.58 352.97 C 666.36 355.12 666.27 357.28 665.93 359.42 C 662.82 357.88 663.66 353.42 661.03 351.36 C 661.49 363.58 663.86 376.02 660.85 388.12 C 657.31 403.85 646.58 418.00 631.80 424.73 C 615.91 432.51 595.84 431.02 581.46 420.62 C 569.63 411.92 560.20 399.26 557.53 384.61 C 554.93 370.29 555.31 355.11 560.48 341.38 C 568.94 320.14 588.31 302.73 611.33 299.45 M 593.20 325.33 C 584.26 327.30 577.15 335.76 577.44 345.04 C 575.71 356.62 588.32 365.59 599.01 364.03 C 608.97 363.29 617.61 354.25 616.49 344.02 C 617.50 331.96 604.55 322.38 593.20 325.33 M 638.13 344.22 C 633.64 345.68 630.50 350.24 630.88 354.97 C 630.94 361.04 637.14 366.15 643.12 364.91 C 649.04 364.18 653.01 357.53 651.76 351.92 C 649.90 346.63 643.88 341.80 638.13 344.22 M 584.11 384.28 C 578.56 386.09 576.13 394.19 580.82 398.19 C 585.75 403.30 595.26 398.88 595.20 392.00 C 595.65 386.32 589.20 382.31 584.11 384.28 Z" />
<path fill="#000000" opacity="1.00" d=" M 760.39 364.19 C 764.37 363.65 759.63 368.11 760.39 364.19 Z" />
<path fill="#000000" opacity="1.00" d=" M 485.31 398.45 C 501.15 396.96 521.63 402.90 526.14 420.08 C 528.80 438.43 510.71 454.68 493.18 455.31 C 492.81 460.86 492.97 466.66 495.24 471.83 C 504.75 492.73 537.35 498.28 552.30 480.35 C 558.31 474.00 558.05 464.91 559.25 456.85 C 565.22 462.54 568.03 470.69 572.58 477.48 C 575.70 483.10 580.27 487.67 583.91 492.91 C 577.60 492.98 572.17 489.13 566.81 486.26 C 562.01 493.84 555.28 500.40 547.01 504.08 C 544.18 505.03 544.53 508.63 543.98 511.00 C 542.18 526.09 535.94 542.08 522.47 550.38 C 507.59 558.98 486.72 558.32 474.10 545.88 C 464.48 537.70 459.42 525.72 456.44 513.73 C 455.33 511.08 455.41 506.85 452.21 505.78 C 438.90 503.68 426.90 494.84 420.33 483.18 C 414.96 484.33 410.50 488.12 404.98 488.82 C 407.46 483.91 411.38 479.87 413.83 474.92 C 418.37 467.57 421.05 458.59 427.80 452.91 C 428.15 458.60 426.96 464.45 428.87 469.97 C 431.95 481.69 443.77 490.55 455.99 489.21 C 464.70 490.15 472.96 486.00 478.90 479.89 C 486.90 473.90 480.20 463.62 480.54 455.49 C 464.77 452.00 450.12 437.06 452.58 420.06 C 455.39 405.24 471.72 398.65 485.31 398.45 M 475.42 412.49 C 471.65 413.06 471.56 418.79 475.15 419.71 C 482.92 421.93 491.35 421.48 499.29 420.46 C 503.78 420.15 504.38 413.98 499.98 412.93 C 492.12 410.59 483.44 411.23 475.42 412.49 M 488.36 497.36 C 483.94 501.55 471.69 501.70 475.12 510.11 C 477.28 518.06 479.21 526.73 485.19 532.80 C 491.48 538.52 500.85 537.34 508.63 536.52 C 520.61 533.37 523.75 518.53 523.06 508.05 C 514.26 506.50 505.78 503.72 497.86 499.53 C 497.08 506.27 499.11 513.70 496.58 520.02 C 492.83 512.67 492.37 504.29 490.23 496.48 C 489.76 496.70 488.83 497.14 488.36 497.36 Z" />
<path fill="#000000" opacity="1.00" d=" M 267.20 573.32 C 270.53 573.41 265.65 576.32 267.20 573.32 Z" />
<path fill="#000000" opacity="1.00" d=" M 192.51 574.10 C 194.15 573.81 195.27 577.59 193.34 577.71 C 192.53 576.79 192.19 575.26 192.51 574.10 Z" />
<path fill="#000000" opacity="1.00" d=" M 197.20 574.09 C 200.30 576.95 193.33 577.26 197.20 574.09 Z" />
<path fill="#000000" opacity="1.00" d=" M 203.13 574.38 C 204.52 574.71 208.53 574.17 206.28 576.36 C 203.77 578.45 206.85 579.62 208.27 581.12 C 205.29 581.54 201.00 575.42 203.13 574.38 Z" />
<path fill="#000000" opacity="1.00" d=" M 254.27 574.37 C 256.01 573.41 259.91 574.60 256.98 576.26 C 254.50 576.83 258.13 577.84 258.79 578.15 C 259.22 574.08 262.24 578.22 263.69 579.32 C 262.36 580.68 260.81 584.49 258.90 581.54 C 260.97 585.90 256.46 584.92 255.11 582.16 C 256.76 580.41 259.09 578.82 255.32 578.11 C 255.54 582.30 252.81 581.10 252.44 577.74 C 250.98 580.72 248.61 580.09 247.79 577.07 C 245.61 578.62 242.52 579.46 241.68 582.31 C 243.56 581.85 244.32 578.50 245.57 581.75 C 247.75 573.88 253.81 591.74 255.60 583.92 C 258.80 587.33 253.08 588.87 250.43 589.20 C 252.03 586.19 247.90 585.42 247.95 582.56 C 244.92 583.93 251.58 588.65 247.77 589.88 C 246.17 591.00 244.48 588.30 246.67 587.41 C 247.30 585.64 244.33 584.21 243.04 583.16 C 240.94 585.51 247.54 592.56 242.02 590.13 C 240.83 596.41 232.85 587.89 231.59 592.96 C 227.98 592.29 229.18 585.86 232.27 589.95 C 230.90 586.91 229.75 583.64 226.68 582.16 C 228.96 580.91 231.37 579.47 232.19 576.82 C 228.50 577.37 224.66 580.47 225.97 583.75 C 231.44 584.29 227.15 587.92 224.04 588.26 C 226.15 584.66 222.11 583.01 219.36 581.96 C 221.18 584.52 218.33 586.33 216.97 588.25 C 219.74 588.33 219.87 592.05 222.20 593.20 C 219.81 593.26 217.06 592.98 216.68 590.09 C 211.65 592.16 208.51 585.22 213.87 583.04 C 210.97 581.67 209.40 585.47 207.31 586.85 C 205.64 581.35 199.56 588.27 196.21 584.04 C 198.28 584.09 200.32 584.46 202.38 584.63 C 200.57 583.95 198.22 579.77 196.71 582.81 C 195.48 585.52 192.09 580.56 194.10 579.30 C 196.24 578.61 198.32 577.80 200.34 576.82 C 203.30 578.36 204.64 582.00 207.49 583.55 C 211.68 583.69 210.14 578.20 211.72 575.74 C 210.15 576.71 208.73 578.13 206.77 578.22 C 207.37 575.06 213.52 573.22 214.61 576.68 C 221.61 573.85 229.60 576.84 237.00 575.57 C 239.16 574.61 243.11 579.04 242.58 575.09 C 245.26 575.06 248.47 574.42 250.53 576.61 C 251.74 575.80 252.73 574.51 254.27 574.37 M 217.44 577.07 C 216.93 578.28 218.50 580.11 219.77 579.78 C 220.44 578.54 218.78 576.40 217.44 577.07 M 220.22 576.94 C 219.95 578.44 222.39 579.39 223.57 578.79 C 223.66 577.46 221.35 576.30 220.22 576.94 M 235.57 577.24 C 231.56 579.35 235.60 585.26 236.41 579.60 C 240.03 580.46 236.26 583.66 235.09 585.19 C 237.62 583.82 239.87 581.73 241.13 579.12 C 240.91 576.63 237.40 576.85 235.57 577.24 M 199.36 579.18 C 199.13 581.90 202.01 582.48 204.08 582.96 C 203.79 581.14 198.98 577.20 199.36 579.18 M 213.28 579.00 C 213.45 582.29 216.33 577.38 213.28 579.00 M 222.35 581.15 C 223.37 584.82 226.07 579.06 222.35 581.15 M 215.38 582.07 C 215.18 583.16 216.68 585.00 217.89 584.61 C 218.98 583.22 216.68 581.47 215.38 582.07 M 232.15 583.13 C 228.20 586.41 234.86 586.16 232.15 583.13 M 240.66 583.16 C 239.88 587.25 232.88 585.06 233.85 590.05 C 235.37 586.96 242.42 587.00 240.66 583.16 M 215.27 585.21 C 215.86 585.78 215.86 585.78 215.27 585.21 M 214.12 587.20 C 212.54 590.19 217.50 587.35 214.12 587.20 M 237.28 590.37 C 237.41 593.73 240.26 588.82 237.28 590.37 Z" />
<path fill="#000000" opacity="1.00" d=" M 259.39 574.03 C 262.59 572.92 264.34 575.24 266.43 577.10 C 264.06 576.38 260.62 576.60 259.39 574.03 Z" />
<path fill="#000000" opacity="1.00" d=" M 236.44 578.27 C 237.43 577.44 240.28 578.14 239.72 579.69 C 238.71 580.21 236.10 579.69 236.44 578.27 Z" />
<path fill="#000000" opacity="1.00" d=" M 209.12 579.63 C 212.30 579.96 207.51 582.74 209.12 579.63 Z" />
<path fill="#000000" opacity="1.00" d=" M 251.18 580.93 C 252.52 580.16 254.28 582.26 253.79 583.55 C 252.57 583.72 250.69 582.26 251.18 580.93 Z" />
<path fill="#000000" opacity="1.00" d=" M 221.14 583.98 C 223.42 584.94 222.97 587.59 223.43 589.60 C 226.36 589.00 228.37 591.40 229.86 593.56 C 226.43 593.76 223.78 590.97 220.46 590.44 C 219.17 588.07 219.67 587.08 222.03 588.88 C 221.61 587.27 221.07 585.66 221.14 583.98 Z" />
<path fill="#000000" opacity="1.00" d=" M 244.21 585.99 C 244.85 586.63 244.85 586.63 244.21 585.99 Z" />
<path fill="#000000" opacity="1.00" d=" M 204.23 586.97 C 205.38 584.62 207.30 589.04 208.25 590.09 C 206.23 590.32 203.28 589.68 204.23 586.97 Z" />
<path fill="#000000" opacity="1.00" d=" M 209.01 588.27 C 213.49 588.91 208.41 592.93 209.01 588.27 Z" />
<path fill="#000000" opacity="1.00" d=" M 227.47 588.33 C 230.61 586.98 227.23 591.71 227.47 588.33 Z" />
<path fill="#000000" opacity="1.00" d=" M 770.23 597.19 C 773.72 599.25 766.75 599.43 770.23 597.19 Z" />
<path fill="#000000" opacity="1.00" d=" M 367.44 610.16 C 371.11 607.99 368.45 613.77 367.44 610.16 Z" />
<path fill="#000000" opacity="1.00" d=" M 371.23 611.09 C 385.64 613.17 400.19 615.82 414.19 619.77 C 399.76 617.67 385.30 614.84 371.23 611.09 Z" />
<path fill="#000000" opacity="1.00" d=" M 343.25 613.13 C 345.43 611.76 349.16 613.49 351.95 613.68 C 369.25 617.00 386.54 620.38 403.67 624.46 C 405.66 625.12 408.15 625.18 409.54 626.97 C 402.53 627.21 395.77 624.88 388.90 623.78 C 373.61 620.45 358.08 617.99 343.06 613.55 L 343.25 613.13 Z" />
<path fill="#000000" opacity="1.00" d=" M 215.25 615.28 C 218.57 615.32 213.64 618.30 215.25 615.28 Z" />
<path fill="#000000" opacity="1.00" d=" M 230.05 616.38 C 233.43 616.34 228.45 619.38 230.05 616.38 Z" />
<path fill="#000000" opacity="1.00" d=" M 246.17 622.41 C 249.48 622.44 244.61 625.43 246.17 622.41 Z" />
<path fill="#000000" opacity="1.00" d=" M 217.39 624.99 C 221.23 624.40 216.67 629.09 217.39 624.99 Z" />
<path fill="#000000" opacity="1.00" d=" M 414.16 627.04 C 417.19 625.54 414.35 630.31 414.16 627.04 Z" />
<path fill="#000000" opacity="1.00" d=" M 269.80 632.73 C 274.19 631.93 278.46 633.54 282.54 634.98 C 282.52 634.50 282.49 633.53 282.47 633.05 C 286.37 633.71 290.59 633.68 293.95 636.05 C 301.51 636.96 309.04 638.34 316.27 640.74 C 317.80 642.13 319.64 641.35 321.41 641.01 C 321.57 644.27 325.25 643.65 327.27 642.55 C 331.92 647.06 339.06 644.61 344.35 647.76 C 347.67 649.95 352.06 648.09 355.28 650.53 C 359.60 649.35 363.35 654.63 368.85 652.45 C 366.45 657.97 359.93 652.28 355.54 653.05 C 365.01 657.69 376.34 656.36 386.31 659.65 C 390.60 658.03 395.74 663.95 392.81 667.88 C 388.79 663.86 382.49 666.67 377.75 664.27 C 375.20 663.04 372.36 662.55 369.61 663.36 C 359.59 658.32 348.13 656.78 337.18 654.71 C 337.00 653.15 336.98 651.60 336.81 650.06 C 315.54 647.01 294.62 641.90 273.99 635.95 C 272.36 635.30 270.14 634.76 269.80 632.73 M 338.31 651.24 C 337.14 654.38 343.09 654.29 344.98 653.17 C 343.46 649.65 340.76 652.86 338.31 651.24 M 351.42 652.97 C 352.64 656.60 355.14 650.97 351.42 652.97 Z" />
<path fill="#000000" opacity="1.00" d=" M 370.10 652.15 C 371.47 651.69 372.58 651.95 373.43 652.96 C 372.73 655.07 366.78 653.97 370.10 652.15 Z" />
<path fill="#000000" opacity="1.00" d=" M 376.19 654.28 C 376.79 654.88 376.79 654.88 376.19 654.28 Z" />
<path fill="#000000" opacity="1.00" d=" M 379.22 654.16 C 382.11 656.98 375.15 657.34 379.22 654.16 Z" />
<path fill="#000000" opacity="1.00" d=" M 380.79 654.21 C 382.58 655.51 384.66 655.92 386.86 655.89 C 386.43 657.95 381.01 656.97 380.79 654.21 Z" />
<path fill="#000000" opacity="1.00" d=" M 372.34 654.88 C 375.36 653.38 372.29 658.25 372.34 654.88 Z" />
<path fill="#000000" opacity="1.00" d=" M 495.18 656.40 C 499.29 654.99 493.85 660.35 495.18 656.40 Z" />
<path fill="#000000" opacity="1.00" d=" M 497.45 658.27 C 496.67 659.59 504.17 663.60 499.37 664.51 C 475.69 667.52 451.83 669.56 427.95 669.67 C 425.54 670.37 426.50 667.45 426.18 666.10 C 434.28 664.10 442.69 664.17 450.95 663.41 C 448.26 658.97 441.92 664.21 439.00 661.33 C 442.27 660.93 445.58 660.55 448.88 660.73 C 451.05 660.82 451.26 664.58 453.75 663.20 C 454.22 660.71 455.05 660.38 455.14 663.13 C 460.32 662.56 466.43 664.16 470.87 660.81 C 478.50 662.92 487.87 659.89 496.20 660.20 C 496.52 659.72 497.14 658.75 497.45 658.27 Z" />
<path fill="#000000" opacity="1.00" d=" M 485.32 659.16 C 485.95 659.80 485.95 659.80 485.32 659.16 Z" />
<path fill="#000000" opacity="1.00" d=" M 474.30 660.08 C 477.20 658.44 474.64 663.40 474.30 660.08 Z" />
<path fill="#000000" opacity="1.00" d=" M 436.38 661.09 C 440.34 660.42 435.73 665.05 436.38 661.09 Z" />
<path fill="#000000" opacity="1.00" d=" M 429.12 662.27 C 432.42 662.40 427.59 665.34 429.12 662.27 Z" />
<path fill="#000000" opacity="1.00" d=" M 432.40 662.31 C 433.06 662.92 433.06 662.92 432.40 662.31 Z" />
<path fill="#000000" opacity="1.00" d=" M 369.13 665.26 C 373.22 663.90 367.99 669.17 369.13 665.26 Z" />
<path fill="#000000" opacity="1.00" d=" M 808.45 665.97 C 809.48 666.12 813.76 667.77 810.00 667.95 C 806.56 668.06 807.19 671.49 808.02 673.77 C 804.46 671.62 805.89 668.20 808.45 665.97 Z" />
<path fill="#000000" opacity="1.00" d=" M 382.21 667.38 C 382.83 668.00 382.83 668.00 382.21 667.38 Z" />
<path fill="#000000" opacity="1.00" d=" M 803.08 668.01 C 805.32 667.15 804.22 672.26 804.60 673.91 C 801.79 673.29 801.19 669.95 803.08 668.01 Z" />
<path fill="#000000" opacity="1.00" d=" M 379.41 674.50 C 380.52 673.99 382.28 672.37 383.00 674.19 C 379.48 674.41 381.99 676.51 383.02 678.13 C 381.78 677.04 376.26 676.05 379.41 674.50 Z" />
<path fill="#000000" opacity="1.00" d=" M 385.30 674.95 C 390.07 672.80 387.90 678.34 385.30 674.95 Z" />
<path fill="#000000" opacity="1.00" d=" M 494.60 675.30 C 499.66 672.61 493.36 679.56 494.60 675.30 Z" />
<path fill="#000000" opacity="1.00" d=" M 719.42 683.92 C 721.61 682.24 725.78 681.96 724.45 685.76 C 728.01 689.35 733.10 685.18 737.60 684.97 C 734.81 688.11 729.77 688.17 725.94 689.56 C 722.80 685.02 717.27 689.27 713.17 689.85 C 712.34 685.85 716.90 685.36 719.42 683.92 Z" />
<path fill="#000000" opacity="1.00" d=" M 721.12 689.32 C 725.25 688.25 719.93 693.17 721.12 689.32 Z" />
<path fill="#000000" opacity="1.00" d=" M 346.30 692.03 C 350.22 691.66 345.81 696.00 346.30 692.03 Z" />
<path fill="#000000" opacity="1.00" d=" M 561.16 717.21 C 565.04 717.13 569.74 715.87 573.18 717.73 C 569.47 717.66 563.54 718.94 561.16 717.21 Z" />
<path fill="#000000" opacity="1.00" d=" M 157.48 727.60 C 164.52 731.41 166.24 740.59 166.11 747.95 C 165.86 752.61 163.81 758.83 158.85 760.11 C 163.52 754.88 162.26 747.49 162.27 741.05 C 162.47 736.04 159.51 731.91 157.48 727.60 Z" />
<path fill="#000000" opacity="1.00" d=" M 315.24 737.09 C 318.17 735.53 315.40 740.41 315.24 737.09 Z" />
<path fill="#000000" opacity="1.00" d=" M 355.16 758.44 C 355.77 759.04 355.77 759.04 355.16 758.44 Z" />
<path fill="#000000" opacity="1.00" d=" M 761.34 759.48 C 767.30 759.23 773.27 758.70 779.23 758.98 C 761.25 762.62 742.19 763.59 723.69 763.79 C 735.79 760.35 748.81 760.61 761.34 759.48 Z" />
<path fill="#000000" opacity="1.00" d=" M 838.22 789.39 C 855.53 786.21 875.21 791.69 886.52 805.57 C 883.37 804.21 880.91 801.74 878.00 800.01 C 863.02 790.63 843.56 790.17 827.32 796.42 C 805.13 806.21 791.20 830.55 792.61 854.61 C 789.07 853.48 788.08 855.51 788.25 858.83 C 786.52 857.70 783.91 857.13 783.12 855.05 C 784.12 824.20 806.99 794.32 838.22 789.39 Z" />
<path fill="#000000" opacity="1.00" d=" M 633.37 792.48 C 648.94 791.01 667.55 791.06 678.88 803.61 C 665.33 797.17 649.92 792.57 634.89 796.24 C 614.32 799.41 597.91 815.88 590.59 834.77 C 586.78 846.26 586.97 858.88 589.70 870.59 C 588.87 871.03 585.32 872.14 587.98 872.89 C 592.24 874.24 593.32 879.12 594.75 882.80 C 591.66 882.39 590.87 879.66 590.55 877.05 C 586.74 878.22 588.37 883.97 592.16 883.99 C 589.97 886.18 585.32 885.42 582.21 886.85 C 581.28 885.04 580.82 883.03 580.51 881.06 C 583.86 879.32 589.63 879.10 587.98 873.78 C 586.90 875.46 586.05 879.56 584.43 875.55 C 583.64 877.46 582.34 879.09 580.91 880.58 C 577.41 870.80 579.05 860.12 579.07 849.96 C 583.04 822.21 605.62 797.61 633.37 792.48 M 587.22 868.34 C 585.59 871.20 590.58 868.68 587.22 868.34 M 583.24 871.21 C 582.23 875.26 587.17 870.12 583.24 871.21 M 585.11 880.16 C 583.20 881.02 582.65 883.24 582.00 885.05 C 583.33 884.27 584.66 883.36 586.30 883.61 C 586.93 882.60 587.02 878.60 585.11 880.16 Z" />
<path fill="#000000" opacity="1.00" d=" M 844.34 805.47 C 860.96 802.98 878.69 809.72 889.15 822.93 C 897.86 833.54 900.74 847.58 901.59 860.95 C 902.03 863.01 899.21 865.67 901.38 867.11 C 901.97 864.81 903.22 862.55 905.97 862.82 C 905.89 866.97 905.34 871.50 902.66 874.86 C 902.80 877.46 902.18 880.08 900.43 882.09 C 899.72 880.56 898.86 879.21 897.00 879.96 C 898.94 881.59 899.64 882.73 896.36 882.36 C 899.32 884.66 897.60 891.92 894.49 886.88 C 894.89 895.92 886.93 902.74 879.94 907.00 C 876.37 910.68 871.85 913.37 867.12 915.30 C 868.08 913.36 868.02 911.63 865.85 910.73 C 866.04 913.10 865.90 916.58 862.92 917.11 C 857.41 918.81 851.63 920.60 845.81 920.08 C 843.53 917.32 847.26 919.15 848.20 918.86 C 853.06 918.31 857.90 917.20 862.66 915.99 C 862.11 913.95 859.50 913.97 857.91 913.14 C 862.24 916.83 853.07 918.11 852.13 914.05 C 854.16 912.55 856.12 915.32 858.12 914.19 C 854.59 909.95 849.79 914.84 846.13 916.31 C 845.07 914.68 838.85 911.15 842.00 914.70 C 845.42 915.55 845.09 920.87 841.72 921.46 C 841.57 919.67 842.90 918.26 843.33 916.62 C 840.60 916.56 841.25 920.64 838.59 920.49 C 833.92 920.41 829.27 919.45 824.74 918.39 C 822.10 917.95 820.66 913.26 823.25 912.08 C 823.47 916.19 827.98 910.10 827.13 913.97 C 828.34 916.88 823.72 915.23 823.90 916.95 C 826.68 917.48 829.48 917.93 832.29 918.37 C 832.86 916.48 832.52 914.47 832.48 912.55 C 831.31 914.03 831.81 916.84 829.91 917.50 C 828.31 916.27 828.46 914.65 829.81 913.40 C 828.77 912.47 826.49 912.40 826.81 910.51 C 828.86 911.12 831.51 913.41 832.96 910.59 C 828.13 908.07 823.29 910.42 818.76 912.41 C 822.87 911.65 821.45 918.17 817.95 915.67 C 816.37 913.71 811.15 913.84 814.08 910.67 C 808.74 913.23 805.85 906.70 802.09 904.21 C 799.70 903.43 800.77 900.99 800.90 899.21 C 797.72 903.68 797.00 896.06 799.29 894.26 C 801.94 893.73 804.79 892.12 807.25 894.08 C 807.04 892.40 803.38 888.40 802.88 891.94 C 800.39 895.30 800.28 888.41 798.47 887.02 C 797.11 891.44 795.12 884.82 796.77 883.73 C 797.86 881.69 802.54 884.71 800.23 881.37 C 799.02 878.83 802.77 882.11 802.63 883.10 C 801.29 883.88 799.52 883.83 798.42 885.00 C 799.48 888.03 802.83 885.20 804.51 884.67 C 800.32 871.95 798.76 858.06 802.07 844.93 C 806.95 825.12 823.70 808.07 844.34 805.47 M 845.38 817.48 C 833.02 819.89 822.26 828.55 816.75 839.80 C 807.91 856.79 811.20 879.54 825.42 892.61 C 834.92 901.27 848.99 903.36 861.18 900.37 C 868.44 897.62 875.00 892.95 880.27 887.27 C 892.71 871.87 893.21 848.22 882.16 831.95 C 874.31 820.25 859.12 814.19 845.38 817.48 M 904.27 864.32 C 903.47 865.59 902.59 867.27 902.35 868.75 C 904.25 869.12 906.61 865.06 904.27 864.32 M 902.46 870.27 C 901.67 870.69 900.51 872.70 901.96 872.98 C 903.63 873.13 904.78 869.15 902.46 870.27 M 797.16 885.46 C 797.80 886.08 797.80 886.08 797.16 885.46 M 801.36 886.96 C 799.85 891.33 805.22 885.49 801.36 886.96 M 808.30 893.98 C 807.62 895.61 806.63 897.06 804.86 897.64 C 806.02 899.24 808.48 899.17 809.58 900.84 C 807.17 901.15 805.73 902.35 807.21 904.68 C 808.30 904.53 814.02 898.83 808.37 898.78 C 809.64 897.90 809.69 892.23 808.30 893.98 M 887.59 896.35 C 886.67 897.16 886.19 898.65 886.40 899.85 C 887.93 900.27 889.58 896.39 887.59 896.35 M 802.23 897.38 C 801.61 901.56 806.01 896.69 802.23 897.38 M 812.21 897.25 C 812.78 897.79 812.78 897.79 812.21 897.25 M 812.87 899.08 C 814.43 901.77 817.36 903.46 819.98 905.04 C 818.32 902.35 815.90 900.08 812.87 899.08 M 802.20 901.60 C 801.97 905.54 806.23 901.01 802.20 901.60 M 879.29 902.30 C 874.75 905.40 882.23 904.76 879.29 902.30 M 883.39 902.28 C 882.33 902.54 880.84 903.63 881.28 904.86 C 882.51 905.78 885.37 902.75 883.39 902.28 M 812.36 903.40 C 811.11 903.50 809.66 904.02 809.25 905.33 C 809.73 907.91 814.61 904.45 812.36 903.40 M 814.24 904.45 C 812.43 909.26 818.43 904.47 814.24 904.45 M 817.08 906.22 C 814.62 912.65 822.18 909.43 824.90 907.30 C 823.56 905.58 817.45 906.03 821.76 907.54 C 823.76 908.10 819.56 908.30 819.00 908.65 C 817.44 909.48 818.43 904.59 817.08 906.22 M 807.22 907.15 C 807.48 910.43 810.23 905.56 807.22 907.15 M 873.22 907.33 C 873.81 907.89 873.81 907.89 873.22 907.33 M 875.62 907.48 C 873.07 911.20 871.22 909.21 867.76 909.16 C 870.42 914.03 876.31 910.56 878.23 906.92 C 877.57 907.06 876.27 907.34 875.62 907.48 M 812.50 908.26 C 811.75 908.39 809.19 909.59 810.94 910.25 C 812.62 911.15 815.57 907.51 812.50 908.26 M 815.37 910.44 C 815.06 914.42 819.35 909.65 815.37 910.44 M 834.43 912.11 C 834.42 915.34 832.81 920.65 838.04 919.08 C 843.00 918.62 833.46 917.52 836.84 917.09 C 838.74 916.66 840.83 916.26 840.40 913.76 C 838.43 913.14 836.46 912.49 834.43 912.11 M 845.27 913.28 C 845.87 913.84 845.87 913.84 845.27 913.28 Z" />
<path fill="#000000" opacity="1.00" d=" M 616.09 820.12 C 631.77 806.12 656.83 804.21 674.54 815.48 C 686.57 822.94 694.80 835.85 697.48 849.65 C 698.46 857.41 698.96 865.28 698.59 873.10 C 698.56 875.06 696.45 877.21 698.60 878.65 C 695.29 880.23 695.08 884.24 695.46 887.43 C 690.91 887.50 698.54 892.52 696.78 889.02 C 694.82 884.35 698.26 880.54 701.98 878.21 C 697.89 876.99 699.67 872.55 700.63 869.69 C 700.73 871.70 700.66 873.72 700.87 875.75 C 702.25 874.70 703.31 873.31 704.51 872.09 C 702.07 880.83 698.85 889.57 693.71 897.12 C 690.99 898.69 693.82 893.81 694.32 892.82 C 692.93 893.24 691.57 893.74 690.24 894.31 C 691.88 896.46 693.09 899.42 690.67 901.55 C 680.46 912.70 668.12 923.60 652.80 926.40 C 651.50 925.67 646.37 922.90 648.48 926.50 C 649.56 928.21 646.52 926.22 646.23 925.70 C 643.97 923.54 648.34 920.69 645.51 918.81 C 645.55 921.91 641.68 923.98 639.74 920.99 C 640.72 923.96 645.48 923.44 645.08 927.04 C 642.48 930.09 640.79 921.23 639.86 925.95 C 640.26 929.74 635.70 924.42 635.12 927.78 C 635.15 922.19 624.07 919.89 626.98 926.78 C 625.05 926.18 620.86 926.15 624.23 923.74 C 622.82 924.26 621.44 925.24 619.86 924.78 C 619.13 922.95 620.15 920.49 618.28 919.21 C 616.80 915.74 623.47 922.05 620.58 917.31 C 615.10 915.38 617.71 921.80 619.13 924.21 C 614.95 922.05 609.24 921.71 606.95 917.05 C 610.26 916.62 613.02 923.39 615.64 919.90 C 612.75 920.32 611.72 917.95 611.37 915.55 C 609.74 915.07 605.92 916.98 606.19 914.38 C 607.90 914.68 609.73 914.96 611.12 913.64 C 609.15 913.95 604.46 910.45 604.89 914.03 C 605.31 917.84 602.70 914.34 603.54 912.54 C 601.13 912.42 596.56 911.31 597.43 908.15 C 599.52 911.02 607.02 911.27 601.81 907.59 C 602.08 903.47 605.11 910.14 607.46 908.41 C 606.36 906.52 603.82 906.35 602.72 904.40 C 599.01 905.53 600.88 900.90 603.01 900.13 C 605.01 901.19 605.00 903.14 604.59 905.13 C 607.38 907.21 610.42 903.27 607.94 900.93 C 603.26 901.51 603.94 893.84 598.98 895.36 C 592.80 896.37 606.02 896.58 601.48 900.51 C 596.72 905.32 594.78 893.81 589.03 895.93 C 585.83 896.97 590.39 897.51 591.74 897.26 C 590.46 898.40 588.53 902.23 591.49 899.44 C 593.55 897.10 594.62 900.33 595.20 902.00 C 593.81 901.32 592.46 900.37 590.84 900.81 C 592.31 901.77 593.49 905.20 595.58 903.58 C 598.49 902.54 594.62 907.87 593.41 905.38 C 589.69 901.75 584.36 896.08 588.19 890.88 C 587.32 889.62 586.38 886.48 589.11 887.19 C 595.19 886.58 590.51 898.75 595.73 893.55 C 593.05 890.96 593.14 886.86 596.17 891.51 C 600.22 889.95 600.15 891.57 597.30 894.06 C 601.39 895.24 601.48 891.75 600.17 889.03 C 590.55 865.79 596.85 836.58 616.09 820.12 M 639.25 820.41 C 627.49 824.08 617.42 832.78 612.23 843.98 C 603.05 862.65 607.24 888.09 624.44 900.72 C 637.04 910.22 655.29 910.15 668.18 901.25 C 690.22 887.02 694.93 852.80 678.20 832.85 C 668.78 821.54 653.40 817.35 639.25 820.41 M 699.15 882.14 C 695.62 884.36 702.18 884.54 699.15 882.14 M 589.12 888.21 C 589.74 888.85 589.74 888.85 589.12 888.21 M 692.32 890.26 C 691.69 891.80 695.33 893.15 695.62 891.42 C 694.98 890.42 693.43 889.68 692.32 890.26 M 589.51 893.12 C 590.59 896.75 593.24 890.93 589.51 893.12 M 689.17 897.29 C 687.69 900.30 692.50 897.53 689.17 897.29 M 686.91 898.76 C 687.48 904.77 679.86 906.18 677.91 911.27 C 680.99 910.22 682.68 907.06 685.52 905.53 C 686.82 903.53 690.50 900.46 686.91 898.76 M 682.42 903.14 C 682.53 906.50 685.41 901.59 682.42 903.14 M 608.05 906.23 C 610.22 907.39 614.77 908.53 617.12 911.31 C 617.72 914.67 613.89 909.20 613.38 911.26 C 613.53 913.55 614.14 915.78 614.53 918.05 C 613.50 910.48 621.07 917.52 623.88 915.01 C 621.94 913.43 619.41 911.67 617.30 914.29 C 619.42 909.90 611.52 904.40 608.05 906.23 M 674.37 912.90 C 670.55 916.91 678.86 913.11 674.37 912.90 M 667.09 916.37 C 665.91 920.79 671.98 915.12 667.09 916.37 M 627.55 917.34 C 625.25 919.10 620.16 920.57 624.42 923.24 C 623.59 920.23 630.85 918.37 627.55 917.34 M 651.18 920.39 C 649.04 924.19 654.67 921.53 651.18 920.39 M 654.20 920.40 C 653.96 922.07 656.26 923.96 657.87 923.71 C 658.08 922.09 655.73 920.13 654.20 920.40 M 635.19 921.23 C 633.28 925.12 638.70 922.51 635.19 921.23 Z" />
<path fill="#000000" opacity="1.00" d=" M 414.31 822.44 C 416.94 822.25 419.59 822.04 422.24 822.21 C 419.73 823.66 416.74 823.80 413.97 824.39 C 382.24 829.59 350.05 830.95 317.98 832.21 C 315.94 832.14 313.70 832.66 311.86 831.56 C 345.95 827.91 380.13 825.09 414.31 822.44 Z" />
<path fill="#000000" opacity="1.00" d=" M 466.20 824.37 C 467.92 824.14 474.05 822.44 471.96 825.65 C 465.55 826.60 459.12 828.01 452.61 827.88 C 456.87 825.86 461.66 825.43 466.20 824.37 Z" />
<path fill="#000000" opacity="1.00" d=" M 845.56 834.08 C 854.62 828.71 867.54 831.86 874.19 839.84 C 883.71 850.77 883.73 867.53 877.16 879.93 C 876.23 881.88 874.96 882.51 874.41 879.88 C 878.60 879.71 873.39 876.41 876.89 875.81 C 879.64 873.34 875.80 872.86 874.03 873.76 C 874.08 871.90 874.94 870.29 876.07 868.89 C 880.43 858.83 877.59 845.99 868.87 839.18 C 862.25 834.15 853.58 833.33 845.56 834.08 Z" />
<path fill="#000000" opacity="1.00" d=" M 701.27 833.26 C 701.78 833.85 701.78 833.85 701.27 833.26 Z" />
<path fill="#000000" opacity="1.00" d=" M 903.12 834.33 C 904.60 834.56 904.70 838.28 903.33 838.61 C 902.62 837.37 902.41 835.57 903.12 834.33 Z" />
<path fill="#000000" opacity="1.00" d=" M 646.19 835.33 C 659.46 832.27 673.52 841.35 677.73 853.96 C 679.97 861.79 679.95 870.29 677.75 878.13 C 673.72 877.94 674.45 884.11 674.12 886.92 C 671.47 891.14 667.75 895.04 663.06 896.97 C 663.62 893.72 669.05 893.62 670.16 889.97 C 666.65 889.60 665.20 895.62 661.92 893.00 C 663.00 890.06 663.34 887.95 659.75 889.63 C 661.19 892.90 660.74 896.64 658.61 899.55 C 655.00 901.82 650.38 901.40 646.30 902.04 C 647.26 900.86 648.32 899.77 649.14 898.49 C 647.24 898.81 645.51 898.97 646.91 896.40 C 644.60 897.00 644.11 899.48 643.11 901.30 C 641.55 900.95 637.62 901.81 639.34 899.15 C 640.51 898.94 644.27 900.66 642.45 898.40 C 640.34 895.09 637.84 901.52 635.43 898.88 C 633.86 897.93 629.28 897.34 632.50 895.37 C 630.78 894.00 630.56 891.88 630.27 889.86 C 631.32 890.44 632.60 893.95 633.44 892.27 C 632.16 889.35 630.88 886.49 630.70 883.26 C 627.81 883.09 630.34 889.04 626.65 889.73 C 623.51 888.02 622.27 884.11 623.85 880.54 C 620.29 880.53 617.24 877.80 619.17 874.18 C 617.71 867.01 620.30 859.50 623.83 853.23 C 624.00 860.35 624.68 867.47 626.67 874.34 C 630.25 877.92 633.13 882.48 632.39 887.76 C 635.64 888.79 636.57 882.50 636.94 888.02 C 640.25 886.01 643.19 889.56 644.74 892.14 C 643.02 891.90 643.02 896.18 644.77 895.21 C 646.39 893.23 646.12 890.81 645.30 888.57 C 648.54 889.40 646.09 893.84 647.97 895.63 C 649.73 894.63 651.59 893.39 652.19 891.32 C 650.68 892.33 649.28 893.51 647.74 894.48 C 649.42 892.66 650.98 886.67 653.48 890.56 C 654.34 887.48 661.35 891.94 656.56 888.31 C 658.67 887.52 660.73 885.90 663.10 886.60 C 665.08 887.23 662.03 883.23 664.01 883.91 C 666.64 883.23 664.95 886.95 667.04 887.21 C 666.78 885.27 666.31 883.38 666.00 881.47 C 667.25 882.68 667.99 884.53 669.70 885.21 C 668.11 882.47 668.65 876.86 672.65 877.03 C 673.67 871.72 675.79 866.53 675.55 861.04 C 675.29 851.14 668.44 841.72 659.00 838.64 C 651.61 836.65 643.95 838.20 636.72 840.04 C 639.26 837.49 642.81 836.29 646.19 835.33 M 625.00 880.78 C 625.60 882.58 628.62 885.10 625.17 885.65 C 626.74 892.56 629.99 880.64 625.00 880.78 M 670.16 887.36 C 668.67 890.36 673.51 887.54 670.16 887.36 M 633.97 889.10 C 637.09 891.20 637.19 894.30 633.42 894.80 C 635.92 899.66 639.30 896.05 642.90 895.52 C 642.39 893.51 636.28 895.60 637.88 892.10 C 637.51 888.34 643.89 896.01 641.71 891.18 C 640.29 887.35 636.75 890.45 633.97 889.10 M 655.02 891.47 C 652.61 893.12 658.20 894.74 658.84 893.18 C 658.06 892.01 656.36 891.43 655.02 891.47 M 652.63 895.80 C 653.50 897.09 653.27 901.40 655.62 899.59 C 657.64 899.56 659.95 894.58 656.78 896.32 C 655.66 900.32 654.72 895.22 652.63 895.80 Z" />
<path fill="#000000" opacity="1.00" d=" M 701.79 834.30 C 706.00 842.46 705.96 852.19 706.67 861.19 C 704.67 852.36 703.73 843.19 701.79 834.30 Z" />
<path fill="#000000" opacity="1.00" d=" M 905.09 841.29 C 908.41 841.41 903.55 844.22 905.09 841.29 Z" />
<path fill="#000000" opacity="1.00" d=" M 850.26 844.39 C 861.67 840.80 872.13 852.99 870.22 863.92 C 869.55 872.31 862.21 879.23 853.98 880.04 C 849.10 879.74 845.12 876.37 842.27 872.66 C 834.68 863.82 839.50 848.24 850.26 844.39 Z" />
<path fill="#000000" opacity="1.00" d=" M 646.22 848.36 C 652.21 846.12 659.57 848.42 663.36 853.57 C 668.97 861.06 668.22 872.85 661.16 879.18 C 656.11 884.05 647.51 884.18 641.93 880.17 C 631.73 872.05 633.77 853.23 646.22 848.36 Z" />
<path fill="#000000" opacity="1.00" d=" M 826.39 848.36 L 826.82 847.59 C 826.25 855.83 828.62 863.76 831.84 871.22 C 830.40 870.50 827.08 864.11 828.17 868.91 C 830.55 872.66 838.63 874.38 837.30 880.10 C 838.85 880.28 840.42 880.26 842.01 880.31 C 840.17 881.33 838.96 882.72 839.56 884.93 C 837.64 888.10 838.90 881.06 836.86 881.54 C 835.91 888.88 831.91 877.54 833.23 874.52 C 828.68 874.19 826.02 876.45 826.88 881.18 C 819.15 871.97 821.21 858.31 826.39 848.36 M 824.56 873.32 C 823.78 877.07 828.81 872.50 824.56 873.32 M 834.62 877.12 C 834.85 880.37 837.71 875.56 834.62 877.12 M 835.24 880.31 C 835.80 880.89 835.80 880.89 835.24 880.31 Z" />
<path fill="#000000" opacity="1.00" d=" M 905.40 847.84 C 909.47 848.68 904.46 852.88 905.40 847.84 Z" />
<path fill="#000000" opacity="1.00" d=" M 257.33 851.44 C 261.34 850.77 256.55 853.15 255.08 852.95 C 248.11 853.54 240.58 855.69 233.89 854.53 C 241.61 852.94 249.50 852.34 257.33 851.44 Z" />
<path fill="#000000" opacity="1.00" d=" M 903.28 856.09 C 906.19 854.51 903.43 859.42 903.28 856.09 Z" />
<path fill="#000000" opacity="1.00" d=" M 792.11 857.45 C 795.42 857.62 790.58 860.42 792.11 857.45 Z" />
<path fill="#000000" opacity="1.00" d=" M 906.23 857.18 C 906.81 857.77 906.81 857.77 906.23 857.18 Z" />
<path fill="#000000" opacity="1.00" d=" M 782.85 857.17 C 784.86 858.07 786.82 859.10 788.79 860.13 C 789.21 863.04 785.30 864.30 785.12 867.23 C 786.76 866.19 787.78 864.47 789.17 863.15 C 786.94 867.74 794.21 867.44 796.48 869.98 C 794.80 870.33 792.83 871.17 791.69 869.35 C 789.58 866.20 786.07 868.38 783.15 868.66 C 782.81 866.25 786.02 863.37 782.89 861.90 C 783.30 860.31 783.57 858.72 782.85 857.17 Z" />
<path fill="#000000" opacity="1.00" d=" M 790.29 857.96 C 792.36 861.04 795.76 864.00 795.09 868.11 C 789.38 868.68 795.94 858.62 790.71 864.90 C 790.68 862.57 790.56 860.26 790.29 857.96 Z" />
<path fill="#000000" opacity="1.00" d=" M 428.38 859.47 C 430.93 858.93 433.57 858.93 436.16 859.30 C 426.58 860.74 417.45 866.15 413.17 875.08 C 410.37 880.28 409.70 886.94 404.24 890.34 C 404.62 876.49 414.98 863.11 428.38 859.47 Z" />
<path fill="#000000" opacity="1.00" d=" M 703.24 859.19 C 703.88 859.82 703.88 859.82 703.24 859.19 Z" />
<path fill="#000000" opacity="1.00" d=" M 902.97 860.36 C 904.17 859.64 905.40 859.62 906.64 860.27 C 907.49 862.49 901.61 862.81 902.97 860.36 Z" />
<path fill="#000000" opacity="1.00" d=" M 317.30 864.45 C 319.60 864.25 321.92 864.19 324.23 864.33 C 314.87 865.84 305.48 869.83 300.17 878.11 C 295.03 884.31 296.31 892.73 294.70 900.08 C 293.64 897.65 293.74 893.88 290.95 892.73 C 289.44 896.82 290.63 901.22 292.19 905.11 C 293.62 906.80 295.61 900.06 296.02 903.99 C 299.04 915.57 309.71 924.22 321.15 926.06 C 328.63 924.32 335.84 920.79 341.20 915.19 C 343.36 913.42 345.24 910.40 348.40 910.79 C 348.70 913.53 342.01 913.48 345.68 915.65 C 346.77 917.99 341.51 916.15 342.66 919.47 C 341.95 919.39 340.52 919.23 339.81 919.15 C 345.09 921.01 337.06 926.72 335.02 922.96 C 335.40 924.45 336.26 925.93 335.82 927.54 C 334.18 927.51 332.22 926.82 331.48 928.89 C 325.32 930.95 318.97 932.69 312.42 931.50 C 315.68 928.78 311.34 927.50 311.43 931.21 C 308.19 927.12 301.49 928.77 298.71 924.08 C 300.75 922.93 301.85 920.92 301.96 918.61 C 300.41 920.01 299.51 921.94 298.19 923.54 C 296.12 922.76 295.19 920.78 295.57 918.68 C 293.37 918.13 290.77 915.69 292.99 913.57 C 295.05 913.75 296.96 914.69 298.96 915.16 C 296.16 912.73 298.44 907.26 294.23 905.88 C 294.93 908.41 296.01 910.86 296.17 913.54 C 293.86 912.89 292.39 910.27 289.82 910.53 C 284.13 891.47 296.97 867.31 317.30 864.45 M 290.11 902.94 C 288.76 906.51 291.53 908.70 293.86 910.82 C 293.68 908.16 291.53 905.20 290.11 902.94 M 296.34 916.18 C 295.91 917.49 296.96 919.36 298.29 919.79 C 300.40 918.98 298.07 915.57 296.34 916.18 M 300.92 924.31 C 300.15 928.13 305.05 923.92 300.92 924.31 M 303.80 924.33 C 305.68 926.00 308.27 926.91 310.07 924.59 C 307.98 924.55 305.89 924.44 303.80 924.33 M 332.07 923.99 C 332.30 927.28 335.09 922.46 332.07 923.99 M 329.04 925.24 C 327.47 928.13 332.41 925.57 329.04 925.24 M 317.33 927.11 C 316.24 927.30 314.69 928.54 315.30 929.77 C 316.57 930.48 319.19 927.64 317.33 927.11 M 323.36 928.34 C 324.00 928.95 324.00 928.95 323.36 928.34 M 320.30 929.26 C 320.57 932.61 323.20 927.66 320.30 929.26 M 318.07 930.28 C 318.70 930.89 318.70 930.89 318.07 930.28 Z" />
<path fill="#000000" opacity="1.00" d=" M 700.07 865.94 C 701.70 868.12 703.00 868.29 705.50 866.81 C 704.57 870.63 699.34 870.48 700.07 865.94 Z" />
<path fill="#000000" opacity="1.00" d=" M 434.29 869.41 C 443.38 866.84 451.85 873.48 455.84 881.15 C 463.44 895.22 451.40 915.97 434.98 914.58 C 423.80 915.01 416.04 903.31 416.43 892.99 C 416.48 882.43 423.91 872.02 434.29 869.41 M 437.32 879.48 C 428.26 881.15 423.48 892.52 429.14 900.05 C 431.62 905.08 437.98 905.31 442.12 902.21 C 452.07 897.61 449.24 878.61 437.32 879.48 Z" />
<path fill="#000000" opacity="1.00" d=" M 786.37 869.36 C 790.14 867.28 786.74 871.42 789.16 870.79 C 794.32 870.12 787.70 874.17 785.72 874.49 C 786.04 872.20 781.98 869.65 786.37 869.36 Z" />
<path fill="#000000" opacity="1.00" d=" M 457.18 870.26 C 457.77 870.84 457.77 870.84 457.18 870.26 Z" />
<path fill="#000000" opacity="1.00" d=" M 504.09 871.05 C 508.01 870.26 503.82 875.07 504.09 871.05 Z" />
<path fill="#000000" opacity="1.00" d=" M 794.10 872.47 C 794.95 871.11 797.82 872.22 796.55 873.78 C 795.65 875.25 792.62 874.10 794.10 872.47 Z" />
<path fill="#000000" opacity="1.00" d=" M 459.26 873.44 C 459.81 874.06 459.81 874.06 459.26 873.44 Z" />
<path fill="#000000" opacity="1.00" d=" M 341.70 873.82 C 350.73 882.73 352.27 897.26 348.77 909.04 C 348.81 911.93 344.42 909.07 346.42 907.36 C 351.47 896.28 348.22 883.51 341.70 873.82 Z" />
<path fill="#000000" opacity="1.00" d=" M 789.27 874.39 C 794.14 872.15 791.44 877.22 794.31 879.24 C 792.76 879.19 791.22 879.17 789.69 879.16 C 790.77 880.29 792.83 881.01 793.69 881.85 C 790.28 883.36 792.00 883.94 794.85 884.42 C 793.45 886.13 791.88 887.81 789.75 888.58 C 790.33 887.01 791.47 885.78 792.37 884.41 C 789.70 885.34 787.39 886.12 789.59 882.81 C 786.53 881.25 784.03 874.66 789.27 874.39 M 789.27 876.09 C 785.36 878.42 792.56 877.97 789.27 876.09 Z" />
<path fill="#000000" opacity="1.00" d=" M 317.27 875.41 C 327.56 871.87 338.96 878.43 342.56 888.35 C 347.61 899.95 340.84 914.77 328.85 918.68 C 320.85 922.18 310.89 919.02 305.81 912.09 C 297.14 899.96 302.27 879.67 317.27 875.41 M 320.31 885.40 C 312.25 888.02 309.44 898.98 314.54 905.53 C 318.57 911.48 328.93 909.79 331.25 903.12 C 336.91 895.82 330.05 882.15 320.31 885.40 Z" />
<path fill="#000000" opacity="1.00" d=" M 460.20 874.91 C 461.67 874.96 462.23 877.64 461.76 878.87 C 460.29 878.76 459.76 876.13 460.20 874.91 Z" />
<path fill="#000000" opacity="1.00" d=" M 795.09 874.97 C 800.49 875.78 800.85 882.08 794.96 882.19 C 799.10 880.18 794.79 878.03 795.09 874.97 Z" />
<path fill="#000000" opacity="1.00" d=" M 828.41 876.09 C 831.18 875.10 831.96 877.92 832.05 880.10 C 830.77 879.18 828.97 875.33 828.75 879.02 C 827.50 881.69 828.25 877.04 828.41 876.09 Z" />
<path fill="#000000" opacity="1.00" d=" M 869.46 876.40 C 874.67 873.97 868.44 880.46 869.46 876.40 Z" />
<path fill="#000000" opacity="1.00" d=" M 871.31 880.67 C 871.74 879.59 876.28 876.61 874.41 879.88 C 873.04 881.38 871.52 883.67 874.72 883.95 C 871.64 887.30 868.02 890.13 864.62 893.10 C 864.32 891.34 864.01 889.58 863.77 887.83 C 867.44 890.69 865.39 886.89 864.65 884.78 C 866.34 885.81 868.04 886.79 869.80 887.72 C 868.27 885.86 866.28 884.13 866.45 881.49 C 864.61 880.08 864.28 883.56 864.65 884.78 C 863.05 884.67 861.45 884.52 859.87 884.34 C 861.86 881.84 864.65 880.16 867.53 878.85 C 867.42 881.11 867.51 886.01 870.89 883.66 C 873.65 883.52 867.47 879.25 871.31 880.67 Z" />
<path fill="#000000" opacity="1.00" d=" M 461.77 878.98 C 465.73 886.71 466.54 897.49 461.47 904.83 C 461.57 906.40 461.24 909.11 458.93 908.00 C 456.84 905.71 459.91 903.01 461.06 901.00 C 463.95 894.02 462.43 886.24 461.77 878.98 Z" />
<path fill="#000000" opacity="1.00" d=" M 830.26 881.27 C 832.14 880.05 831.14 883.26 832.62 883.34 C 835.03 883.27 832.50 886.99 835.03 887.08 C 837.02 887.92 838.71 889.28 840.08 890.96 C 835.28 890.75 828.20 886.86 830.26 881.27 Z" />
<path fill="#000000" opacity="1.00" d=" M 675.35 881.98 C 679.13 881.05 674.11 886.22 675.35 881.98 Z" />
<path fill="#000000" opacity="1.00" d=" M 842.42 882.47 C 845.37 881.24 849.63 885.86 845.76 887.33 C 841.58 888.69 848.53 882.71 844.97 884.33 C 843.42 885.57 839.65 883.77 842.42 882.47 Z" />
<path fill="#000000" opacity="1.00" d=" M 848.10 882.85 C 850.27 884.60 852.52 885.36 855.12 883.94 C 856.48 887.59 849.90 886.27 849.65 889.77 C 848.65 893.82 853.36 884.51 854.37 889.63 C 855.89 893.72 856.10 890.65 856.26 887.89 C 859.64 892.28 857.85 886.13 856.03 884.27 C 859.56 884.74 865.42 890.08 862.07 893.96 C 860.21 895.05 859.37 892.20 858.19 891.31 C 859.07 892.76 858.78 896.93 856.33 894.51 C 854.33 894.83 848.78 897.98 850.73 893.79 C 848.50 894.30 846.62 896.47 844.22 895.75 C 842.93 893.25 847.47 895.52 847.28 893.18 C 848.66 891.80 844.26 890.60 847.14 890.02 C 849.35 889.56 844.26 888.28 846.89 888.14 C 850.99 888.10 849.58 885.22 848.10 882.85 M 859.97 889.89 C 859.04 894.62 864.47 889.18 859.97 889.89 Z" />
<path fill="#000000" opacity="1.00" d=" M 593.95 884.26 C 597.38 884.21 592.45 887.26 593.95 884.26 Z" />
<path fill="#000000" opacity="1.00" d=" M 596.05 886.47 C 597.25 886.56 598.55 888.40 598.84 889.53 C 596.77 890.64 594.49 888.52 596.05 886.47 Z" />
<path fill="#000000" opacity="1.00" d=" M 839.03 886.04 C 842.44 886.15 837.46 888.99 839.03 886.04 Z" />
<path fill="#000000" opacity="1.00" d=" M 841.31 886.46 C 846.28 886.27 838.80 891.49 841.31 886.46 Z" />
<path fill="#000000" opacity="1.00" d=" M 863.77 887.83 C 860.47 887.21 865.59 885.00 863.77 887.83 Z" />
<path fill="#000000" opacity="1.00" d=" M 585.08 887.22 C 586.36 887.85 587.04 891.35 585.30 891.84 C 583.56 891.05 584.19 888.40 585.08 887.22 Z" />
<path fill="#000000" opacity="1.00" d=" M 793.01 888.00 L 794.00 887.23 C 792.83 891.97 798.50 888.88 800.22 891.52 C 795.04 890.72 794.80 893.55 796.33 897.78 C 792.94 895.89 793.42 891.14 793.01 888.00 Z" />
<path fill="#000000" opacity="1.00" d=" M 841.86 889.90 C 843.77 888.34 844.98 891.41 845.07 892.91 C 842.86 893.67 840.33 892.28 841.86 889.90 Z" />
<path fill="#000000" opacity="1.00" d=" M 627.26 891.41 C 629.80 889.52 629.34 894.12 630.26 895.50 C 628.37 895.48 625.49 893.32 627.26 891.41 Z" />
<path fill="#000000" opacity="1.00" d=" M 407.61 899.02 C 409.79 902.18 412.97 904.37 415.24 907.47 C 410.13 909.39 416.85 907.95 417.75 910.36 C 418.37 913.75 421.97 915.25 424.44 916.78 C 425.93 920.41 430.37 916.96 432.80 920.14 C 437.95 920.75 443.02 917.25 448.24 916.67 C 448.47 913.31 451.60 915.94 452.21 917.72 C 449.84 913.58 453.44 910.02 456.94 908.34 C 462.26 910.22 455.41 917.68 452.94 913.06 C 456.88 918.64 449.02 920.01 445.59 922.42 C 442.64 926.64 437.23 924.65 433.04 925.92 C 433.47 923.88 436.52 923.92 436.58 921.75 C 434.22 922.55 431.56 923.78 431.73 926.72 C 427.08 925.44 422.34 924.08 418.04 921.90 C 415.91 921.32 418.86 918.70 416.96 918.34 C 413.45 917.83 417.69 916.47 418.32 915.35 C 415.62 914.99 412.87 914.33 410.18 915.06 C 412.26 910.32 405.11 910.97 405.43 906.55 C 407.22 906.60 407.00 909.85 409.04 908.73 C 407.10 905.67 404.47 902.43 407.61 899.02 M 410.13 907.38 C 409.42 911.34 414.08 906.67 410.13 907.38 M 455.20 910.81 C 455.82 911.42 455.82 911.42 455.20 910.81 M 420.23 915.19 C 420.82 915.76 420.82 915.76 420.23 915.19 M 444.91 918.22 C 443.46 921.22 448.28 918.41 444.91 918.22 M 419.25 918.33 C 419.44 919.02 419.83 920.40 420.02 921.09 C 422.94 921.17 428.38 926.91 428.63 920.19 C 424.81 924.57 423.72 917.29 419.25 918.33 M 441.39 920.55 C 439.77 921.41 438.09 922.55 437.48 924.40 C 439.59 924.89 445.32 919.62 441.39 920.55 Z" />
<path fill="#000000" opacity="1.00" d=" M 601.81 907.59 C 602.96 913.31 595.14 904.70 597.66 901.91 C 599.12 903.74 600.44 905.68 601.81 907.59 Z" />
<path fill="#000000" opacity="1.00" d=" M 849.43 916.26 C 850.06 915.35 852.36 915.01 852.42 916.51 C 851.53 917.97 846.19 918.55 849.43 916.26 Z" />
<path fill="#000000" opacity="1.00" d=" M 628.37 925.25 C 629.81 925.01 631.97 925.73 632.79 926.99 C 631.79 928.76 628.22 926.98 628.37 925.25 Z" />
</g>
</svg>
