<?xml version="1.0" encoding="UTF-8" ?>
<!DOCTYPE svg PUBLIC "-//W3C//DTD SVG 1.1//EN" "http://www.w3.org/Graphics/SVG/1.1/DTD/svg11.dtd">
<svg width="1024pt" height="1024pt" viewBox="0 0 1024 1024" version="1.1" xmlns="http://www.w3.org/2000/svg">
<g id="#000000ff">
<path fill="#000000" opacity="1.00" d=" M 508.28 27.40 C 517.98 25.45 528.41 29.89 533.78 38.18 C 538.41 44.64 536.94 53.07 538.61 60.36 C 615.07 67.13 690.19 91.62 755.06 132.84 C 803.78 163.80 844.91 205.54 879.45 251.52 C 897.91 276.83 914.20 303.76 927.79 331.99 C 929.95 337.03 933.06 342.40 931.77 348.06 C 929.87 352.01 926.28 355.48 922.01 356.66 C 914.72 357.94 910.45 348.37 903.13 350.76 C 884.54 354.35 867.08 363.33 853.00 375.95 C 845.30 381.89 846.61 392.67 843.26 400.94 C 837.82 415.41 831.71 430.43 820.30 441.30 C 812.74 448.94 804.74 456.48 794.96 461.23 C 788.29 464.69 780.92 466.63 774.27 470.11 C 788.91 503.84 804.81 537.53 812.43 573.75 C 814.82 590.44 815.21 608.25 808.26 623.97 C 799.61 646.37 784.17 665.57 766.12 681.15 C 748.67 697.11 726.61 706.63 704.96 715.40 C 714.00 730.33 725.95 743.52 733.63 759.32 C 742.80 779.00 741.50 803.30 729.56 821.54 C 721.66 834.14 709.00 843.03 695.15 847.99 C 698.37 865.20 702.67 882.39 703.02 900.00 C 703.42 905.06 700.59 909.65 696.89 912.86 C 688.75 920.06 678.18 923.37 668.25 927.26 C 661.33 945.64 656.96 966.18 642.51 980.50 C 626.70 999.15 596.87 1001.96 576.51 989.42 C 563.06 980.58 555.00 966.04 547.98 952.07 C 523.74 951.62 499.44 951.49 475.20 951.69 C 467.15 971.34 453.31 991.74 431.01 996.02 C 417.74 998.28 403.19 996.91 391.98 988.89 C 371.22 975.15 363.58 950.04 356.52 927.55 C 346.23 923.20 334.84 920.31 326.37 912.63 C 318.34 905.83 321.79 894.47 320.83 885.38 C 307.36 886.46 294.17 879.35 286.42 868.53 C 281.20 861.14 280.36 851.75 280.35 842.97 C 280.27 836.18 284.20 830.34 286.01 824.00 C 278.45 818.88 271.23 809.25 275.72 799.84 C 288.18 771.38 304.34 744.75 319.37 717.61 C 318.61 715.99 316.72 715.46 315.28 714.66 C 298.39 707.86 281.95 699.54 267.25 688.74 C 243.70 669.39 222.19 645.51 212.82 615.95 C 209.21 600.88 209.46 584.91 212.61 569.79 C 221.15 535.78 235.69 503.69 250.17 471.88 C 251.69 469.78 248.21 469.65 247.02 468.99 C 211.99 458.86 186.35 426.93 178.38 392.08 C 177.12 387.66 177.09 382.57 174.17 378.83 C 157.86 363.83 137.52 352.58 115.23 350.14 C 111.26 353.06 107.43 357.86 101.91 356.79 C 94.10 354.97 88.96 345.94 93.57 338.69 C 116.99 288.54 148.20 241.65 187.41 202.43 C 200.98 188.68 214.54 174.89 229.15 162.23 C 275.82 124.56 329.91 95.85 387.68 79.55 C 418.82 70.38 450.77 64.01 483.06 60.68 C 487.84 60.96 486.65 55.20 486.97 52.00 C 486.84 39.99 496.63 29.36 508.28 27.40 M 509.21 45.35 C 505.35 46.95 502.45 51.07 502.76 55.32 C 505.33 55.64 505.53 52.43 507.21 51.31 C 511.03 50.48 515.03 50.73 518.88 51.30 C 518.28 55.66 508.80 50.09 507.56 54.82 C 511.70 55.38 515.95 55.62 520.09 54.93 C 523.08 48.91 514.90 42.48 509.21 45.35 M 497.31 77.46 C 476.12 78.59 454.97 82.14 434.73 88.58 C 417.18 94.16 402.13 105.35 388.95 117.93 C 367.16 137.58 351.17 162.68 338.81 189.08 C 337.91 200.15 329.37 209.05 327.88 220.09 C 334.44 214.04 342.69 209.97 350.92 206.71 C 347.97 210.12 346.50 217.10 340.54 215.41 C 339.76 217.66 337.40 217.11 335.55 217.46 C 334.51 219.46 332.48 219.94 330.43 220.25 C 332.59 224.81 326.04 225.59 324.68 229.16 C 343.73 217.06 365.41 209.96 387.15 204.34 C 447.32 188.80 510.36 185.52 572.03 192.36 C 612.87 197.74 654.02 206.24 691.07 224.86 C 695.72 224.34 696.88 229.76 701.07 230.29 C 700.74 227.70 698.69 225.91 697.67 223.68 C 696.25 212.82 689.68 203.65 686.59 193.32 C 685.41 185.98 681.51 179.53 678.17 173.03 C 665.42 150.09 648.49 129.55 628.85 112.18 C 616.06 101.01 601.62 90.98 584.96 86.69 C 556.47 79.06 526.80 75.35 497.31 77.46 M 394.41 97.46 C 347.23 110.46 302.62 132.45 262.73 160.73 C 235.08 180.58 209.76 203.95 189.25 231.18 C 186.38 235.02 183.53 239.11 182.86 243.97 C 185.42 241.85 188.28 240.13 191.08 238.37 C 194.01 240.08 192.52 244.24 193.23 247.04 C 194.63 246.37 195.92 245.52 197.30 244.81 C 195.42 247.53 191.73 251.56 195.41 254.41 C 193.56 255.94 190.90 256.24 189.01 257.85 C 186.75 259.44 186.74 255.27 184.91 254.90 C 182.44 253.03 185.20 259.24 182.63 257.23 C 179.88 255.62 180.21 260.87 177.09 260.12 C 173.53 260.44 165.94 266.07 166.58 258.95 C 156.08 271.94 145.69 285.28 137.86 300.08 C 142.89 296.45 146.92 291.66 151.63 287.66 C 166.85 273.48 184.45 262.09 203.03 252.83 C 223.18 242.39 244.80 234.78 267.14 230.72 C 279.42 229.14 291.84 229.84 304.18 229.30 C 310.64 211.32 317.68 193.49 326.57 176.53 C 328.74 171.97 331.67 167.72 333.11 162.85 C 327.60 168.96 324.61 176.87 318.67 182.61 C 317.76 188.28 312.33 189.78 308.76 193.43 C 321.89 172.02 338.14 152.58 355.17 134.15 C 364.19 124.49 373.23 114.73 383.83 106.77 C 387.86 103.47 392.63 101.07 396.13 97.14 C 395.70 97.22 394.84 97.38 394.41 97.46 M 627.37 96.59 C 656.02 116.57 680.82 143.10 696.36 174.63 C 705.52 192.37 714.37 210.37 720.72 229.33 C 735.64 230.82 751.31 228.15 766.07 232.38 C 809.89 243.34 851.21 265.27 884.02 296.39 C 870.90 274.14 854.27 254.09 838.14 233.95 C 806.58 194.30 767.36 160.70 723.02 136.12 C 692.72 119.59 660.90 105.06 627.37 96.59 M 510.09 233.06 C 507.67 240.35 508.94 248.39 508.41 255.99 C 508.75 259.13 507.52 263.76 510.81 265.61 C 510.21 263.35 509.25 258.70 512.95 258.98 C 514.24 260.74 512.41 266.66 515.56 264.64 C 516.74 255.49 516.41 246.12 515.72 236.93 C 515.71 233.93 513.05 231.46 510.09 233.06 M 179.42 244.21 C 178.41 244.96 177.48 245.80 176.55 246.64 C 178.79 245.84 184.59 245.35 179.42 244.21 M 170.25 253.28 C 168.86 257.33 174.27 251.78 170.25 253.28 M 283.30 260.43 C 261.69 262.30 240.27 271.31 225.53 287.53 C 215.48 296.77 209.29 309.50 206.83 322.80 C 207.29 323.16 208.21 323.87 208.67 324.23 C 201.71 342.84 200.22 363.50 203.96 382.97 C 209.92 404.00 222.96 423.73 241.50 435.65 C 253.47 424.61 264.82 412.57 278.96 404.11 C 284.03 400.30 290.40 398.43 295.05 394.10 C 284.52 391.13 273.35 394.42 262.64 395.03 C 263.45 390.33 268.59 387.84 271.88 384.79 C 279.39 378.49 288.46 374.57 297.01 370.15 C 285.50 353.42 264.80 341.67 244.01 342.95 C 233.19 343.83 220.74 348.92 216.70 359.82 C 213.15 374.07 215.19 388.94 217.01 403.22 C 193.97 366.27 211.94 313.49 249.01 293.04 C 260.49 286.52 274.14 284.73 287.13 286.18 C 308.05 288.99 326.73 302.58 337.31 320.64 C 339.93 324.83 341.71 329.49 344.26 333.72 C 353.07 325.86 362.35 318.55 371.45 311.05 C 368.63 300.37 361.42 291.10 353.55 283.44 C 335.67 264.89 308.34 258.31 283.30 260.43 M 723.35 260.49 C 694.25 261.83 665.58 280.02 654.47 307.37 C 652.96 309.95 653.46 313.27 656.19 314.74 C 664.97 320.76 672.73 328.18 681.62 334.00 C 686.85 313.79 703.22 297.92 722.02 289.80 C 732.99 285.14 745.33 285.13 756.97 286.62 C 778.26 290.64 795.65 306.37 806.27 324.70 C 812.40 335.79 817.69 348.05 817.04 361.00 C 817.77 375.79 815.57 391.58 806.93 403.90 C 809.48 390.46 809.65 376.63 808.45 363.00 C 808.15 357.46 804.71 352.58 799.97 349.87 C 786.94 340.59 769.33 340.60 755.01 346.78 C 744.87 350.87 736.88 358.70 729.32 366.36 C 728.04 367.65 725.36 370.71 728.58 371.45 C 739.71 375.22 749.63 381.87 758.50 389.48 C 759.95 391.03 762.17 392.43 762.18 394.79 C 751.11 394.70 740.09 391.90 728.99 393.29 C 730.26 395.88 733.04 397.07 735.41 398.45 C 753.31 407.20 768.85 420.36 781.38 435.75 C 802.60 422.51 817.81 399.79 821.89 375.07 C 822.68 366.30 821.98 357.46 821.45 348.69 C 820.82 338.57 816.03 329.41 813.98 319.60 C 815.78 321.00 817.35 322.65 819.06 324.17 C 816.25 309.21 807.76 295.63 796.30 285.70 C 784.57 273.73 769.25 265.71 752.98 261.96 C 743.24 259.93 733.23 260.36 723.35 260.49 M 499.35 286.50 C 477.97 286.94 457.05 292.23 436.76 298.59 C 396.71 311.33 363.13 338.60 335.84 369.88 C 313.53 395.23 294.75 423.70 280.33 454.24 C 266.02 486.26 249.84 517.57 239.01 551.03 C 234.30 563.26 232.21 576.53 233.20 589.56 C 236.37 590.81 235.56 594.41 236.15 597.09 C 237.50 604.62 241.58 611.25 245.23 617.85 C 251.42 628.44 258.36 638.89 267.10 647.40 C 266.40 645.78 265.60 644.21 264.98 642.57 C 269.47 644.94 272.66 649.18 275.83 653.04 C 279.50 656.74 270.34 650.95 273.80 654.25 C 293.94 676.19 321.94 689.10 349.90 698.02 C 348.44 695.99 348.21 694.53 350.95 696.26 C 357.65 702.34 366.88 703.84 375.17 706.67 C 400.87 714.93 427.70 719.31 452.97 728.92 C 455.54 729.41 454.73 733.07 457.30 733.69 C 466.33 738.03 475.91 741.23 484.57 746.37 C 489.42 748.82 493.82 752.87 499.49 753.13 C 489.98 739.30 474.64 730.05 459.05 724.26 C 428.46 713.07 396.18 707.73 365.08 698.25 C 354.99 695.47 345.26 691.58 335.22 688.65 C 312.30 677.13 289.73 663.86 271.43 645.58 C 269.26 643.25 266.73 641.33 264.16 639.48 C 257.26 626.57 246.62 615.39 243.45 600.67 C 241.66 584.16 248.77 568.76 254.17 553.65 C 250.91 557.52 249.38 562.58 245.84 566.24 C 250.76 552.22 258.49 539.29 265.12 526.00 C 267.85 521.44 269.66 516.26 273.23 512.28 C 269.35 521.31 264.25 529.84 261.10 539.20 C 287.50 494.05 315.41 448.01 356.26 414.27 C 373.55 398.87 394.16 387.68 415.21 378.33 C 453.62 361.83 496.18 352.75 537.97 358.57 C 584.34 365.32 628.96 384.28 665.85 413.20 C 700.95 441.74 727.65 479.12 750.12 518.03 C 759.27 534.41 768.31 550.92 775.70 568.18 C 780.70 579.66 782.54 592.77 779.86 605.05 C 775.47 617.13 768.46 628.26 759.60 637.58 C 748.10 649.81 735.75 661.42 721.73 670.72 C 706.63 679.76 690.44 686.92 673.84 692.73 C 670.56 694.07 665.43 695.45 666.60 700.11 C 690.46 692.72 714.36 683.68 734.58 668.69 C 743.83 661.03 753.91 653.44 759.27 642.38 C 768.39 630.22 778.17 618.43 784.46 604.45 C 788.58 598.79 788.00 591.06 792.70 585.86 C 793.19 580.34 790.44 575.26 789.06 570.06 C 787.22 564.65 788.50 558.76 786.49 553.38 C 778.11 525.47 765.70 498.99 752.79 472.94 C 749.62 467.11 748.47 460.48 745.39 454.63 C 721.82 408.84 691.25 365.57 650.02 334.03 C 622.49 312.62 590.01 297.96 556.07 290.26 C 537.48 286.09 518.29 286.21 499.35 286.50 M 506.34 394.48 C 486.28 394.58 466.34 398.78 448.12 407.22 C 447.60 415.03 445.58 423.86 438.04 427.84 C 429.20 433.33 418.05 429.31 412.09 421.55 C 382.86 436.43 355.50 456.20 335.29 482.31 C 322.90 497.97 311.10 515.01 306.65 534.80 C 306.38 537.87 303.00 538.44 300.79 539.73 C 283.12 547.64 271.62 564.90 264.67 582.31 C 272.24 581.87 279.23 577.83 286.85 578.07 C 289.23 581.23 291.44 584.87 292.54 588.62 C 287.01 599.75 280.30 614.72 288.93 625.98 C 298.52 637.94 309.43 649.33 322.97 656.82 C 337.52 665.15 353.15 671.43 368.97 676.88 C 404.94 688.87 441.88 698.21 479.24 704.55 C 475.67 701.68 470.39 702.49 466.76 699.89 C 483.79 700.42 500.86 702.87 517.96 702.23 C 533.72 701.52 549.46 700.12 565.08 697.89 C 564.82 698.51 564.30 699.76 564.03 700.38 C 580.99 697.86 597.52 693.05 614.08 688.71 C 644.52 679.98 675.60 671.56 702.97 655.13 C 717.65 646.30 731.35 634.52 739.04 618.93 C 740.68 611.22 737.33 603.37 734.61 596.26 C 731.55 590.35 735.18 583.27 739.04 578.77 C 746.51 577.62 753.64 582.16 761.15 582.25 C 758.23 575.48 753.65 569.59 749.59 563.48 C 744.07 555.80 738.39 547.70 729.97 542.95 C 726.28 540.74 722.08 539.09 719.12 535.87 C 717.30 532.40 716.33 528.55 714.71 524.99 C 695.90 478.81 656.11 443.88 611.92 422.52 C 608.25 425.45 604.78 429.07 599.98 430.06 C 590.58 432.68 579.62 426.57 577.15 417.08 C 576.11 413.53 576.15 409.80 575.54 406.19 C 553.23 399.02 530.05 392.48 506.34 394.48 M 260.28 541.17 C 258.95 541.61 257.76 543.35 258.23 544.74 C 259.74 545.26 261.70 541.96 260.28 541.17 M 230.02 594.39 C 228.24 598.07 233.83 595.49 230.02 594.39 M 229.59 598.68 C 231.32 608.77 235.90 618.43 241.46 626.94 C 239.45 619.82 235.37 613.46 233.60 606.23 C 232.34 603.86 232.53 599.05 229.59 598.68 M 626.38 706.49 C 595.05 714.93 561.27 720.52 534.95 740.85 C 531.08 744.26 526.29 747.63 525.02 752.92 C 526.92 753.19 528.56 752.15 530.12 751.23 C 543.97 742.33 559.35 736.10 574.98 731.11 C 578.36 729.82 582.04 729.02 585.01 726.87 C 580.34 726.03 585.10 724.55 587.02 723.78 C 600.95 718.84 615.49 715.89 629.57 711.52 C 633.69 709.39 630.66 703.46 626.38 706.49 M 628.29 716.07 C 628.33 719.41 631.26 714.60 628.29 716.07 M 622.44 717.51 C 613.01 719.80 603.23 721.26 594.25 724.99 C 605.42 723.08 616.65 720.54 627.41 717.01 C 625.73 716.94 624.07 717.17 622.44 717.51 M 678.85 722.99 C 680.89 724.76 683.76 725.22 686.32 725.90 C 685.55 722.72 681.48 722.48 678.85 722.99 M 340.35 724.16 C 339.95 725.74 343.73 726.67 344.06 724.92 C 343.58 723.50 341.42 723.39 340.35 724.16 M 426.12 724.09 C 426.28 727.38 429.12 722.55 426.12 724.09 M 352.83 726.58 C 349.35 728.45 346.85 731.65 343.06 732.96 C 340.65 736.32 336.26 738.22 332.18 737.27 C 326.00 740.06 323.33 746.62 319.91 752.01 C 310.93 767.93 302.32 784.08 294.51 800.61 C 292.34 804.25 297.01 806.75 299.48 808.58 C 309.42 814.59 319.31 820.90 329.99 825.50 C 333.08 822.96 334.97 818.33 334.57 814.40 C 329.97 809.85 322.48 808.57 318.92 803.00 C 320.86 797.85 328.03 798.30 332.59 798.52 C 335.92 798.49 335.63 803.75 338.06 804.14 C 346.38 779.84 353.76 755.20 361.59 730.73 C 363.99 725.65 355.88 726.74 352.83 726.58 M 587.33 726.10 C 587.46 729.40 590.32 724.57 587.33 726.10 M 379.11 731.74 C 370.53 757.94 362.70 784.47 355.64 811.11 C 358.69 808.97 362.02 806.76 365.95 807.47 C 381.95 808.84 398.03 809.60 413.93 811.91 C 420.45 812.85 428.80 815.27 429.91 822.90 C 432.00 838.24 428.80 853.73 425.53 868.68 C 423.06 881.46 414.66 893.14 403.10 899.19 C 400.57 900.59 405.60 902.29 404.03 903.89 C 401.28 905.14 397.02 903.28 395.49 906.58 C 393.85 909.24 391.21 911.12 389.72 913.88 C 414.16 920.61 439.65 923.12 464.92 924.73 C 467.38 925.19 470.50 924.68 472.30 926.83 C 449.56 927.79 427.23 921.45 404.63 920.17 C 427.80 924.92 451.55 928.36 475.24 929.16 C 476.06 926.39 476.03 923.41 477.27 920.76 C 478.29 923.44 479.88 926.21 478.55 929.09 C 481.42 929.81 483.83 929.44 482.21 926.20 C 485.43 925.70 488.70 925.75 491.92 925.28 C 492.16 906.22 492.64 887.13 492.17 868.07 C 492.74 862.46 486.62 861.22 483.45 858.12 C 481.50 863.33 477.28 855.46 474.78 853.94 C 469.80 842.22 469.38 828.91 470.47 816.37 C 471.37 805.59 481.52 796.91 492.38 798.25 C 492.60 790.14 492.89 781.86 492.25 773.83 C 480.38 768.13 467.56 764.71 454.97 760.97 C 446.24 758.84 437.59 755.78 428.54 755.60 C 419.95 750.47 409.91 749.03 400.60 745.78 C 401.92 743.87 403.80 742.59 406.04 743.94 C 408.41 742.19 406.78 737.80 409.91 737.06 C 409.93 739.72 407.76 742.06 408.60 744.75 C 411.13 743.43 411.20 740.14 412.56 737.89 C 412.98 741.84 418.93 737.64 418.79 741.18 C 419.07 746.14 423.23 736.67 418.99 737.72 C 405.76 735.56 392.52 731.90 379.11 731.74 M 620.49 733.53 C 616.36 732.66 616.85 741.43 613.93 736.37 C 612.12 739.73 608.34 741.12 606.31 744.32 C 602.08 747.50 596.52 744.37 595.16 739.71 C 592.67 744.49 598.44 750.66 594.37 754.41 C 584.05 755.95 574.10 759.26 564.04 761.97 C 553.25 765.53 541.57 767.57 532.00 773.93 C 530.20 781.71 531.18 789.98 531.09 797.95 C 540.36 798.64 552.71 803.17 553.16 814.08 C 553.43 825.77 553.92 837.75 551.35 849.23 C 551.16 852.54 546.51 850.97 546.48 854.34 C 543.12 854.32 539.55 858.33 545.07 857.57 C 543.33 859.07 541.35 860.26 539.26 861.22 C 541.88 858.25 538.88 854.67 540.49 851.31 C 538.88 853.93 535.48 856.81 533.83 852.33 C 531.86 856.48 531.93 861.17 531.50 865.65 C 530.33 885.69 531.02 905.79 532.46 925.80 C 536.30 925.88 540.54 926.69 544.17 925.16 C 545.12 922.83 545.43 920.29 546.38 917.96 C 549.03 921.04 548.28 925.51 549.26 929.21 C 557.86 929.64 566.41 928.13 574.92 927.11 C 595.78 924.20 617.00 922.24 637.09 915.53 C 630.20 912.37 623.91 907.01 615.98 906.84 C 606.26 907.06 596.78 911.09 586.99 909.74 C 593.02 903.52 605.01 907.68 611.79 902.16 C 600.69 891.91 589.62 881.24 581.82 868.09 C 570.38 851.13 569.32 829.60 571.28 809.87 C 572.30 796.10 583.66 782.64 597.97 782.23 C 604.26 781.39 609.92 784.32 615.70 786.09 C 608.62 769.12 608.78 746.90 622.19 733.04 C 621.76 733.17 620.91 733.41 620.49 733.53 M 653.35 735.48 C 643.07 736.02 633.19 743.58 631.22 753.90 C 629.51 763.57 632.98 774.11 640.11 780.87 C 650.31 790.60 665.97 792.00 678.98 788.05 C 682.88 786.81 685.52 783.11 685.45 779.02 C 685.74 768.10 685.21 755.92 677.80 747.18 C 671.57 740.45 662.82 735.03 653.35 735.48 M 603.21 737.10 C 599.29 740.85 608.66 737.87 603.21 737.10 M 515.23 740.42 C 511.28 741.02 518.78 744.24 519.32 746.60 C 520.01 743.59 519.61 738.54 515.23 740.42 M 692.14 743.06 C 693.52 748.12 697.12 752.14 698.97 757.00 C 705.30 770.63 703.84 786.16 699.75 800.19 C 705.25 807.61 720.16 802.35 720.40 792.95 C 721.49 779.03 718.54 763.74 708.74 753.25 C 703.88 748.98 698.46 744.81 692.14 743.06 M 508.26 758.40 C 506.11 758.95 502.76 759.99 506.31 761.80 C 509.69 767.01 517.55 763.88 517.72 758.34 C 514.65 757.37 511.34 757.68 508.26 758.40 M 510.43 779.17 C 511.44 782.78 514.12 777.00 510.43 779.17 M 597.23 800.37 C 593.76 801.66 590.15 804.40 589.71 808.34 C 596.41 804.24 593.49 813.45 594.48 817.48 C 597.53 816.57 601.63 815.93 603.02 819.70 C 603.29 815.39 602.09 811.11 602.69 806.84 C 604.25 805.94 605.72 808.25 607.27 808.51 C 608.14 803.29 602.11 798.69 597.23 800.37 M 625.37 802.18 C 625.39 813.48 625.56 824.80 626.20 836.09 C 626.27 839.95 629.67 844.25 633.86 843.29 C 636.68 842.74 636.48 839.28 636.80 837.08 C 637.17 827.75 637.21 818.38 636.89 809.05 C 633.41 806.70 628.08 802.13 625.37 802.18 M 487.46 809.54 C 484.25 810.55 488.01 810.72 489.38 811.26 C 489.84 812.75 488.94 815.53 491.26 815.55 C 506.29 816.86 521.43 816.24 536.51 816.41 C 535.81 812.99 535.70 810.18 540.01 811.72 C 538.26 808.59 534.01 809.84 531.03 809.38 C 516.53 809.41 501.84 807.71 487.46 809.54 M 692.23 814.09 C 692.13 818.38 691.98 823.14 693.87 827.06 C 695.70 826.68 697.15 825.43 698.66 824.42 C 692.74 824.11 694.84 817.30 692.23 814.09 M 362.98 817.71 C 360.76 822.39 360.14 827.68 360.46 832.81 C 376.87 834.80 393.42 835.79 409.77 838.39 C 413.02 838.86 418.44 839.81 418.72 835.08 C 418.88 830.30 421.47 820.72 413.93 820.90 C 397.03 819.03 380.01 817.12 362.98 817.71 M 658.29 827.33 C 654.70 830.99 661.28 830.16 658.29 827.33 M 301.38 836.25 C 298.90 843.10 298.53 851.76 303.15 857.84 C 305.52 860.59 309.52 858.56 311.91 856.86 C 315.47 853.82 319.28 850.42 320.90 845.92 C 316.89 842.06 311.76 839.63 306.98 836.88 C 305.28 836.21 302.92 834.39 301.38 836.25 M 657.69 839.82 C 656.84 856.79 635.85 866.65 621.04 860.28 C 615.65 858.51 612.28 853.76 607.77 850.68 C 607.91 855.73 613.23 858.36 616.32 861.74 C 621.82 867.64 630.56 867.58 637.90 866.14 C 643.64 864.84 650.69 864.60 654.13 859.03 C 655.57 856.21 660.03 857.22 660.82 853.93 C 661.84 850.82 664.27 848.41 665.11 845.20 C 663.21 845.86 661.39 847.32 659.29 846.76 C 658.43 844.52 658.87 841.92 657.69 839.82 M 347.15 845.45 C 344.96 849.09 350.82 846.40 347.15 845.45 M 368.37 847.38 C 364.69 850.41 364.68 857.04 366.51 861.39 C 372.23 873.78 389.73 878.58 401.13 871.24 C 407.10 867.22 411.28 859.66 409.67 852.41 C 396.13 849.56 382.11 848.93 368.37 847.38 M 480.21 850.16 C 480.46 853.50 483.19 848.67 480.21 850.16 M 506.17 856.35 C 503.48 856.11 502.63 862.58 505.80 860.59 C 510.14 858.37 517.07 861.24 520.05 857.23 C 515.56 855.98 510.77 855.69 506.17 856.35 M 504.29 869.41 C 503.51 870.58 503.52 872.39 504.28 873.59 C 505.70 873.38 505.70 869.61 504.29 869.41 M 504.09 885.28 C 502.56 888.28 507.38 885.43 504.09 885.28 M 664.46 886.42 C 662.34 887.13 660.14 888.04 658.79 889.92 C 660.78 889.54 668.22 885.63 664.46 886.42 M 341.06 889.43 C 339.52 892.43 344.39 889.49 341.06 889.43 M 607.76 891.32 C 612.91 894.86 619.45 896.66 624.91 899.88 C 628.52 897.00 634.63 898.32 639.13 896.27 C 633.94 896.19 628.35 896.09 623.68 898.65 C 620.45 893.33 613.18 893.10 607.76 891.32 M 642.36 913.46 C 644.57 916.57 647.16 910.48 642.36 913.46 M 503.96 913.89 C 502.65 920.48 511.71 920.42 515.62 918.37 C 511.60 916.78 505.66 919.27 503.96 913.89 M 390.43 916.19 C 390.33 917.68 394.12 918.96 394.64 917.38 C 393.69 916.32 391.77 915.47 390.43 916.19 M 397.38 918.10 C 397.53 921.41 400.34 916.54 397.38 918.10 M 387.15 951.35 C 387.84 956.66 392.02 960.79 395.04 965.03 C 404.85 978.33 425.58 981.44 438.97 971.91 C 441.42 970.35 440.24 967.09 438.55 965.45 C 433.90 960.52 427.45 957.84 421.19 955.60 C 410.26 952.22 398.58 950.11 387.15 951.35 M 619.37 951.50 C 608.48 953.30 596.89 955.93 588.38 963.38 C 586.74 965.25 583.03 967.96 585.32 970.59 C 593.54 978.55 606.68 979.39 616.92 975.18 C 624.93 971.31 631.62 964.66 635.71 956.77 C 636.68 955.08 637.63 951.87 634.90 951.32 C 629.78 950.30 624.50 950.96 619.37 951.50 Z" />
<path fill="#000000" opacity="1.00" d=" M 692.16 162.40 C 693.63 162.39 695.68 164.31 695.50 165.84 C 693.79 166.49 691.71 164.00 692.16 162.40 Z" />
<path fill="#000000" opacity="1.00" d=" M 703.70 177.17 C 708.57 181.83 712.38 187.79 715.26 193.87 C 710.61 188.99 706.70 183.21 703.70 177.17 Z" />
<path fill="#000000" opacity="1.00" d=" M 534.31 179.49 C 545.32 179.71 556.39 180.47 567.20 182.62 C 557.47 183.89 547.80 180.64 537.98 181.00 C 536.39 181.01 530.35 180.69 534.31 179.49 Z" />
<path fill="#000000" opacity="1.00" d=" M 473.34 180.47 C 481.78 180.36 490.30 179.02 498.69 180.42 C 501.74 180.15 506.23 178.16 508.43 180.95 C 502.87 178.61 498.36 186.41 494.01 180.95 C 490.45 183.03 486.09 183.40 482.04 183.42 C 479.35 183.42 476.18 180.64 473.81 182.67 C 472.98 185.61 468.61 185.42 467.01 183.30 C 469.74 183.39 470.80 180.42 473.34 180.47 Z" />
<path fill="#000000" opacity="1.00" d=" M 511.98 180.12 C 516.09 179.48 520.28 179.80 524.38 180.37 C 520.90 181.97 514.72 182.32 511.98 180.12 Z" />
<path fill="#000000" opacity="1.00" d=" M 456.28 182.39 C 458.88 182.24 467.33 180.62 465.18 184.88 C 462.72 182.99 456.39 184.60 456.28 182.39 Z" />
<path fill="#000000" opacity="1.00" d=" M 319.13 183.26 C 322.63 184.25 316.82 187.09 319.13 183.26 Z" />
<path fill="#000000" opacity="1.00" d=" M 568.31 183.06 C 572.29 182.55 567.84 187.02 568.31 183.06 Z" />
<path fill="#000000" opacity="1.00" d=" M 573.47 183.24 C 578.08 180.83 575.66 186.72 573.47 183.24 Z" />
<path fill="#000000" opacity="1.00" d=" M 583.08 184.25 C 584.37 183.54 586.57 183.77 587.27 185.23 C 586.78 187.04 582.55 185.91 583.08 184.25 Z" />
<path fill="#000000" opacity="1.00" d=" M 592.28 185.13 C 595.25 183.65 592.31 188.48 592.28 185.13 Z" />
<path fill="#000000" opacity="1.00" d=" M 599.30 186.21 C 602.23 184.70 599.36 189.59 599.30 186.21 Z" />
<path fill="#000000" opacity="1.00" d=" M 617.40 190.19 C 621.16 188.17 618.58 193.77 617.40 190.19 Z" />
<path fill="#000000" opacity="1.00" d=" M 399.31 191.45 C 400.59 191.26 401.88 191.11 403.18 191.01 C 398.47 194.56 393.26 197.52 387.12 196.72 C 383.31 198.12 378.84 197.77 375.93 201.00 C 372.90 200.26 369.76 200.60 366.70 201.81 C 376.18 195.70 388.38 194.20 399.31 191.45 Z" />
<path fill="#000000" opacity="1.00" d=" M 620.56 190.75 C 626.54 191.54 632.55 192.74 638.22 194.86 C 632.30 194.33 625.26 194.97 620.56 190.75 Z" />
<path fill="#000000" opacity="1.00" d=" M 717.04 197.34 C 718.46 197.08 719.54 199.50 718.81 200.61 C 717.45 200.78 716.34 198.43 717.04 197.34 Z" />
<path fill="#000000" opacity="1.00" d=" M 306.35 198.35 C 307.76 196.95 305.49 202.04 305.49 203.37 C 302.50 202.79 300.62 210.07 305.16 209.70 C 297.79 209.72 299.04 219.49 293.78 222.35 C 296.76 213.84 301.40 205.85 306.35 198.35 Z" />
<path fill="#000000" opacity="1.00" d=" M 720.12 203.25 C 723.45 203.54 718.55 206.21 720.12 203.25 Z" />
<path fill="#000000" opacity="1.00" d=" M 667.15 204.49 C 671.78 203.62 668.08 208.88 667.15 204.49 Z" />
<path fill="#000000" opacity="1.00" d=" M 662.52 208.03 C 666.42 207.38 661.81 212.08 662.52 208.03 Z" />
<path fill="#000000" opacity="1.00" d=" M 676.35 208.74 C 682.28 210.03 686.74 214.44 692.10 216.98 C 693.34 218.35 693.59 220.45 691.13 219.08 C 687.11 215.91 681.62 219.28 677.45 216.53 C 674.29 214.33 670.02 213.51 667.94 210.02 C 673.32 211.57 678.56 211.52 683.67 213.92 C 681.88 211.33 678.41 211.01 676.35 208.74 M 685.24 215.15 C 685.45 218.54 688.24 213.57 685.24 215.15 Z" />
<path fill="#000000" opacity="1.00" d=" M 726.04 215.29 C 727.69 215.38 728.27 218.27 727.76 219.61 C 726.27 219.39 725.46 216.59 726.04 215.29 Z" />
<path fill="#000000" opacity="1.00" d=" M 224.26 221.32 C 225.89 223.60 220.26 228.92 216.72 229.20 C 218.23 225.86 220.99 222.95 224.26 221.32 Z" />
<path fill="#000000" opacity="1.00" d=" M 283.29 221.46 C 286.07 221.46 289.54 220.49 291.75 222.67 C 289.69 222.73 280.00 223.92 283.29 221.46 Z" />
<path fill="#000000" opacity="1.00" d=" M 736.24 221.49 C 738.87 221.26 741.53 221.31 744.17 221.55 C 742.24 222.96 736.52 223.72 736.24 221.49 Z" />
<path fill="#000000" opacity="1.00" d=" M 275.38 222.01 C 280.21 219.56 277.72 225.31 275.38 222.01 Z" />
<path fill="#000000" opacity="1.00" d=" M 798.31 223.22 C 799.82 221.42 805.21 226.23 805.41 229.33 C 802.33 228.40 799.93 225.90 798.31 223.22 Z" />
<path fill="#000000" opacity="1.00" d=" M 256.49 224.21 C 261.16 221.64 258.69 227.59 256.49 224.21 Z" />
<path fill="#000000" opacity="1.00" d=" M 252.27 225.08 C 255.23 223.53 252.42 228.39 252.27 225.08 Z" />
<path fill="#000000" opacity="1.00" d=" M 776.22 226.09 C 779.22 224.56 776.37 229.38 776.22 226.09 Z" />
<path fill="#000000" opacity="1.00" d=" M 241.48 227.50 C 247.36 226.32 239.11 229.94 236.75 229.90 C 238.00 228.55 239.70 227.83 241.48 227.50 Z" />
<path fill="#000000" opacity="1.00" d=" M 510.26 338.34 C 515.43 336.71 510.02 343.25 510.26 338.34 Z" />
<path fill="#000000" opacity="1.00" d=" M 547.19 339.98 C 552.62 340.75 543.47 343.88 547.19 339.98 Z" />
<path fill="#000000" opacity="1.00" d=" M 478.29 341.37 C 479.60 341.03 480.95 340.90 482.33 340.99 C 481.49 343.30 474.54 344.09 478.29 341.37 Z" />
<path fill="#000000" opacity="1.00" d=" M 463.38 344.51 C 464.86 343.79 466.52 343.56 468.15 343.65 C 468.11 346.22 458.70 346.84 463.38 344.51 Z" />
<path fill="#000000" opacity="1.00" d=" M 437.18 348.14 C 439.72 347.34 440.58 350.63 441.33 352.39 C 438.65 352.61 437.64 350.31 437.18 348.14 Z" />
<path fill="#000000" opacity="1.00" d=" M 582.24 350.35 C 583.20 349.02 585.93 350.37 584.76 351.89 C 583.78 353.21 581.00 351.88 582.24 350.35 Z" />
<path fill="#000000" opacity="1.00" d=" M 605.44 355.53 C 610.00 353.19 604.85 361.35 601.80 360.11 C 602.31 358.15 603.67 356.49 605.44 355.53 Z" />
<path fill="#000000" opacity="1.00" d=" M 417.91 357.60 C 418.78 356.72 421.57 357.45 420.66 358.92 C 419.77 359.78 416.82 359.12 417.91 357.60 Z" />
<path fill="#000000" opacity="1.00" d=" M 385.11 374.30 C 388.47 374.35 383.54 377.35 385.11 374.30 Z" />
<path fill="#000000" opacity="1.00" d=" M 378.28 379.27 C 381.30 377.58 378.39 382.60 378.28 379.27 Z" />
<path fill="#000000" opacity="1.00" d=" M 364.14 384.54 C 365.34 383.98 367.04 385.74 366.50 386.95 C 365.23 387.77 363.34 385.78 364.14 384.54 Z" />
<path fill="#000000" opacity="1.00" d=" M 658.31 385.19 C 660.01 385.52 659.57 388.70 658.01 389.01 C 656.14 388.64 656.76 385.59 658.31 385.19 Z" />
<path fill="#000000" opacity="1.00" d=" M 678.00 402.40 C 682.96 402.77 676.78 407.51 678.00 402.40 Z" />
<path fill="#000000" opacity="1.00" d=" M 344.03 403.04 C 347.99 401.82 342.80 407.16 344.03 403.04 Z" />
<path fill="#000000" opacity="1.00" d=" M 331.29 416.30 C 333.84 414.95 329.21 421.59 326.55 421.29 C 327.76 419.33 329.34 417.56 331.29 416.30 Z" />
<path fill="#000000" opacity="1.00" d=" M 691.80 415.98 C 693.69 417.37 695.54 419.00 696.44 421.25 C 694.40 419.98 692.91 418.06 691.80 415.98 Z" />
<path fill="#000000" opacity="1.00" d=" M 683.68 422.90 C 689.01 427.28 694.11 432.15 698.32 437.63 C 692.70 433.63 687.80 428.42 683.68 422.90 Z" />
<path fill="#000000" opacity="1.00" d=" M 708.53 429.25 C 712.93 432.75 718.51 436.41 720.45 441.74 C 715.58 438.68 709.84 435.36 708.53 429.25 Z" />
<path fill="#000000" opacity="1.00" d=" M 701.81 441.87 C 707.92 446.97 713.55 453.12 717.17 460.26 C 711.95 454.23 706.19 448.59 701.81 441.87 Z" />
<path fill="#000000" opacity="1.00" d=" M 722.63 442.10 C 723.97 439.48 725.98 445.35 723.02 446.07 C 719.56 449.22 722.55 444.17 722.63 442.10 Z" />
<path fill="#000000" opacity="1.00" d=" M 726.38 445.93 C 727.97 445.14 730.89 447.05 730.61 448.84 C 729.07 448.92 726.84 447.32 726.38 445.93 Z" />
<path fill="#000000" opacity="1.00" d=" M 722.27 448.51 C 725.64 448.38 720.87 451.61 722.27 448.51 Z" />
<path fill="#000000" opacity="1.00" d=" M 392.26 452.41 C 409.83 450.16 428.48 456.42 440.99 469.03 C 460.93 487.23 467.63 518.17 457.02 542.99 C 449.31 560.83 435.34 576.18 417.84 584.79 C 406.78 590.12 394.02 590.94 381.98 589.60 C 368.44 586.92 356.29 579.07 346.72 569.31 C 331.68 553.97 327.11 530.41 332.28 509.93 C 338.89 481.43 362.43 456.04 392.26 452.41 M 402.28 468.40 C 390.63 470.00 382.11 482.46 384.82 493.89 C 387.10 505.10 398.43 513.02 409.65 512.52 C 420.21 511.44 431.07 503.29 431.37 491.97 C 431.78 477.37 416.27 465.69 402.28 468.40 M 379.41 539.48 C 374.11 541.09 369.38 546.17 369.97 552.01 C 369.43 557.74 374.71 562.10 379.78 563.42 C 385.52 564.56 390.86 560.43 393.79 555.85 C 397.44 547.25 388.68 536.43 379.41 539.48 M 349.18 542.21 C 352.58 559.52 366.48 575.49 383.92 579.83 C 402.62 584.10 425.30 580.29 438.02 564.94 C 427.99 572.65 415.16 575.63 402.66 574.49 C 385.24 574.73 370.22 562.79 360.89 548.96 C 358.19 545.32 354.08 541.41 349.18 542.21 Z" />
<path fill="#000000" opacity="1.00" d=" M 617.28 452.43 C 648.75 449.16 678.29 472.18 688.69 501.00 C 696.15 520.61 695.15 543.89 683.75 561.81 C 671.37 580.12 649.03 591.03 627.03 590.30 C 615.06 590.08 604.24 583.99 594.71 577.28 C 581.83 567.78 570.17 555.35 565.41 539.75 C 561.51 526.20 561.69 511.54 565.20 497.92 C 571.50 474.33 592.70 454.86 617.28 452.43 M 613.30 468.41 C 600.38 470.02 590.74 483.45 593.58 496.21 C 596.87 505.88 606.67 512.98 616.99 512.43 C 632.08 512.98 645.45 495.48 638.59 481.31 C 634.82 471.44 623.34 466.49 613.30 468.41 M 639.22 539.37 C 631.35 540.79 626.83 550.80 631.67 557.40 C 636.88 566.46 653.11 564.00 654.52 553.34 C 656.30 544.79 647.54 536.93 639.22 539.37 M 673.35 542.50 C 662.18 543.07 659.57 555.93 651.67 561.69 C 638.07 572.02 619.70 578.52 602.76 573.44 C 598.12 572.26 594.04 569.70 589.60 568.04 C 604.85 584.19 631.26 584.97 650.30 575.33 C 662.30 569.88 670.34 558.26 674.11 545.95 C 674.40 544.99 674.83 542.37 673.35 542.50 Z" />
<path fill="#000000" opacity="1.00" d=" M 735.23 452.44 C 736.86 452.32 739.26 454.25 738.82 456.05 C 737.22 456.20 735.27 453.98 735.23 452.44 Z" />
<path fill="#000000" opacity="1.00" d=" M 726.24 454.36 C 729.93 455.51 724.25 458.05 726.24 454.36 Z" />
<path fill="#000000" opacity="1.00" d=" M 307.22 458.45 C 311.35 457.06 305.79 462.37 307.22 458.45 Z" />
<path fill="#000000" opacity="1.00" d=" M 739.31 473.95 C 743.11 473.60 738.80 478.11 739.31 473.95 Z" />
<path fill="#000000" opacity="1.00" d=" M 743.63 480.26 C 747.47 484.74 751.46 489.35 752.92 495.23 C 749.23 490.67 746.20 485.52 743.63 480.26 Z" />
<path fill="#000000" opacity="1.00" d=" M 259.25 504.03 C 262.93 507.14 255.02 507.46 259.25 504.03 Z" />
<path fill="#000000" opacity="1.00" d=" M 252.11 522.15 C 254.97 525.14 247.96 524.95 252.11 522.15 Z" />
<path fill="#000000" opacity="1.00" d=" M 768.38 521.93 C 772.28 521.53 767.90 525.97 768.38 521.93 Z" />
<path fill="#000000" opacity="1.00" d=" M 770.43 526.04 C 772.96 527.61 773.38 530.97 774.07 533.66 C 772.05 531.59 771.06 528.79 770.43 526.04 Z" />
<path fill="#000000" opacity="1.00" d=" M 248.07 529.44 C 252.08 528.02 247.04 533.49 248.07 529.44 Z" />
<path fill="#000000" opacity="1.00" d=" M 498.22 561.38 C 507.32 560.35 516.60 560.25 525.69 561.42 C 537.09 563.19 547.04 575.32 543.06 586.93 C 538.96 595.98 530.93 602.86 522.15 607.24 C 520.41 608.22 518.33 609.69 518.59 611.98 C 519.78 619.48 526.03 625.62 533.22 627.62 C 538.84 628.51 544.94 625.76 548.03 620.99 C 549.55 618.15 548.44 613.53 552.25 612.30 C 556.47 611.47 559.07 616.37 558.76 620.01 C 558.39 629.91 549.88 638.23 540.17 639.36 C 537.41 640.28 532.47 639.18 531.93 643.06 C 530.71 650.32 525.66 657.04 518.66 659.56 C 509.56 662.32 497.35 658.62 494.30 648.83 C 492.67 645.47 493.26 639.17 488.02 639.58 C 477.00 639.65 464.27 631.11 465.54 618.99 C 465.22 615.08 469.98 610.14 473.60 613.29 C 475.22 618.97 477.70 625.49 484.04 627.24 C 495.11 630.41 505.58 619.12 505.61 608.59 C 494.51 604.85 483.77 596.61 480.15 585.08 C 476.76 573.60 487.42 562.90 498.22 561.38 M 506.28 568.43 C 500.41 569.25 493.77 571.42 490.91 577.08 C 489.42 579.59 491.68 582.11 494.03 582.88 C 499.29 584.94 504.72 586.82 510.36 587.50 C 517.60 587.86 524.47 584.74 530.91 581.80 C 534.85 580.17 532.96 574.77 530.05 573.05 C 523.14 568.48 514.35 567.58 506.28 568.43 M 511.39 626.09 C 509.26 628.72 507.14 631.35 504.64 633.64 C 498.33 638.31 503.69 649.52 511.05 649.26 C 517.44 650.40 524.34 643.31 521.19 637.08 C 518.85 632.81 515.61 628.57 511.39 626.09 Z" />
<path fill="#000000" opacity="1.00" d=" M 238.95 587.31 C 242.51 588.32 236.77 591.14 238.95 587.31 Z" />
<path fill="#000000" opacity="1.00" d=" M 465.27 699.27 C 465.87 699.77 465.87 699.77 465.27 699.27 Z" />
<path fill="#000000" opacity="1.00" d=" M 382.09 733.47 C 383.23 733.14 384.84 733.79 384.99 735.10 C 384.49 737.49 379.61 734.78 382.09 733.47 Z" />
<path fill="#000000" opacity="1.00" d=" M 379.91 736.05 C 381.94 736.29 383.58 737.55 385.31 738.54 C 384.08 741.22 380.06 738.31 379.91 736.05 Z" />
<path fill="#000000" opacity="1.00" d=" M 397.32 736.19 C 398.05 735.28 400.42 735.08 400.57 736.55 C 400.01 738.02 395.98 738.46 397.32 736.19 Z" />
<path fill="#000000" opacity="1.00" d=" M 403.29 736.26 C 407.81 734.79 408.73 740.51 403.94 740.30 C 400.55 741.53 402.71 737.79 403.29 736.26 Z" />
<path fill="#000000" opacity="1.00" d=" M 378.31 739.19 C 382.59 741.27 387.78 741.19 391.70 743.87 C 386.53 745.36 382.02 742.21 377.01 742.41 C 376.97 741.18 377.65 740.14 378.31 739.19 Z" />
<path fill="#000000" opacity="1.00" d=" M 394.30 744.17 C 397.18 742.52 394.56 747.50 394.30 744.17 Z" />
<path fill="#000000" opacity="1.00" d=" M 545.21 775.89 C 547.63 781.60 547.57 790.26 545.24 796.12 C 544.23 789.44 544.18 782.57 545.21 775.89 Z" />
<path fill="#000000" opacity="1.00" d=" M 477.32 776.49 C 479.93 782.29 479.88 790.73 477.33 796.62 C 476.54 789.94 476.49 783.15 477.32 776.49 Z" />
<path fill="#000000" opacity="1.00" d=" M 599.43 813.15 C 602.95 811.30 601.61 815.83 598.83 815.22 C 596.27 815.47 597.95 813.20 599.43 813.15 Z" />
<path fill="#000000" opacity="1.00" d=" M 313.82 814.93 C 316.51 815.00 319.16 816.34 320.90 818.39 C 318.34 817.74 315.81 816.70 313.82 814.93 Z" />
<path fill="#000000" opacity="1.00" d=" M 477.39 866.73 C 479.68 873.38 478.93 880.84 478.59 887.81 C 478.28 887.82 477.65 887.86 477.34 887.88 C 476.64 880.86 476.57 873.73 477.39 866.73 Z" />
<path fill="#000000" opacity="1.00" d=" M 545.44 867.03 C 547.45 867.60 546.26 870.41 546.70 871.98 C 546.35 877.36 547.80 883.48 545.27 888.37 C 544.49 881.28 544.80 874.11 545.44 867.03 Z" />
<path fill="#000000" opacity="1.00" d=" M 478.12 898.32 C 479.76 900.05 478.54 907.88 479.12 912.01 C 481.69 912.78 484.46 912.95 486.87 914.23 C 485.72 917.66 480.74 916.77 477.85 916.89 C 476.99 910.84 476.73 904.21 478.12 898.32 Z" />
<path fill="#000000" opacity="1.00" d=" M 545.11 898.38 C 548.42 902.41 546.69 909.48 546.84 914.66 C 544.14 915.42 540.66 916.37 538.13 915.10 C 538.57 912.41 543.91 913.14 544.24 909.88 C 544.77 906.06 544.30 902.16 545.11 898.38 Z" />
<path fill="#000000" opacity="1.00" d=" M 409.29 903.51 C 416.34 903.82 422.81 907.60 429.93 907.77 C 432.41 908.18 436.73 907.11 436.14 911.02 C 427.68 910.09 419.32 908.16 411.04 906.19 C 409.48 906.26 405.98 903.59 409.29 903.51 Z" />
<path fill="#000000" opacity="1.00" d=" M 443.13 909.37 C 451.94 910.62 460.96 910.35 469.68 912.21 C 464.02 916.24 455.66 913.81 449.02 913.06 C 446.87 912.51 442.14 912.86 443.13 909.37 Z" />
<path fill="#000000" opacity="1.00" d=" M 568.35 910.48 C 571.83 910.80 577.77 908.26 579.54 911.17 C 571.29 913.84 562.24 914.45 553.60 914.23 C 555.77 909.46 563.71 911.68 568.35 910.48 Z" />
<path fill="#000000" opacity="1.00" d=" M 555.33 925.43 C 558.96 924.92 562.68 924.75 566.33 925.26 C 561.05 926.95 555.45 928.75 549.84 927.78 C 551.05 925.94 553.36 925.79 555.33 925.43 Z" />
</g>
</svg>
