<?xml version="1.0" encoding="UTF-8" ?>
<!DOCTYPE svg PUBLIC "-//W3C//DTD SVG 1.1//EN" "http://www.w3.org/Graphics/SVG/1.1/DTD/svg11.dtd">
<svg width="1024pt" height="1024pt" viewBox="0 0 1024 1024" version="1.1" xmlns="http://www.w3.org/2000/svg">
<g id="#000000ff">
<path fill="#000000" opacity="1.00" d=" M 699.35 80.49 C 719.51 79.59 740.12 82.14 758.66 90.44 C 799.52 107.42 831.65 143.57 844.03 186.02 C 853.91 219.62 851.73 256.94 836.57 288.65 C 822.25 318.83 795.88 343.59 763.99 354.14 C 760.23 355.90 755.31 356.50 752.63 359.79 C 756.96 375.66 759.60 392.11 761.60 408.30 C 777.39 417.13 789.77 431.13 798.19 447.02 C 816.22 479.88 816.29 520.98 801.27 554.97 C 796.55 567.92 788.49 579.18 780.09 589.96 C 785.67 588.59 791.29 590.58 796.81 589.82 C 803.35 584.11 807.55 576.18 814.38 570.75 C 807.17 565.02 805.97 552.51 813.79 546.75 C 821.96 540.79 832.96 537.81 842.91 540.30 C 850.61 542.94 852.83 552.13 851.63 559.39 C 855.07 558.04 858.59 556.90 862.16 555.92 C 855.73 550.05 854.24 538.35 861.53 532.60 C 868.58 527.68 877.40 525.06 886.01 525.54 C 891.61 525.75 897.63 529.35 898.65 535.22 C 899.44 538.24 898.35 541.74 899.67 544.55 C 906.04 543.66 912.46 541.63 918.96 542.66 C 926.69 545.03 931.16 552.71 933.34 560.04 C 939.05 577.59 944.27 595.30 949.23 613.07 C 950.50 618.68 952.95 625.63 948.64 630.55 C 943.01 638.05 933.23 639.47 924.98 642.52 C 932.11 646.18 935.99 655.34 932.71 662.85 C 929.88 669.09 922.99 671.86 916.84 673.65 C 909.72 675.61 900.93 676.30 895.09 670.91 C 890.01 665.64 890.16 657.11 893.43 650.93 C 887.81 652.03 882.23 653.45 876.80 655.24 C 883.69 659.76 887.78 668.54 884.64 676.61 C 879.25 684.57 869.18 687.80 859.97 688.18 C 854.92 688.35 848.82 687.78 845.73 683.20 C 842.10 677.53 841.87 669.84 845.13 663.96 C 843.84 662.07 840.30 665.14 838.07 664.19 C 831.38 661.91 825.75 657.25 819.29 654.53 C 812.17 656.24 805.02 657.98 798.06 660.25 C 797.50 661.75 797.75 663.37 797.89 664.93 C 800.33 681.52 798.66 699.26 790.16 713.99 C 781.34 730.86 767.25 744.23 751.80 754.95 C 754.62 763.41 755.70 772.24 757.16 780.98 C 770.38 785.30 782.79 797.12 781.88 811.98 C 782.94 821.09 778.28 829.71 771.70 835.69 C 767.13 839.46 768.39 845.87 767.01 851.01 C 765.78 859.23 761.87 866.65 759.30 874.43 C 796.19 875.34 833.11 874.69 870.02 875.12 C 874.03 875.47 878.46 874.72 882.11 876.79 C 885.43 878.80 885.20 883.95 881.88 885.84 C 877.37 887.04 872.63 886.65 868.02 886.89 C 830.37 887.28 792.71 886.62 755.08 887.76 C 751.24 887.34 748.21 889.73 746.50 892.94 C 753.66 893.66 760.99 892.69 768.07 894.20 C 773.52 895.93 772.73 905.14 766.87 905.32 C 755.91 906.56 744.82 905.83 733.87 907.15 C 731.16 907.45 728.71 908.84 726.76 910.69 C 751.52 911.22 776.30 910.87 801.04 912.04 C 803.92 912.51 808.64 912.09 809.45 915.77 C 810.59 919.46 805.54 920.46 802.93 921.12 C 789.76 922.62 776.41 920.56 763.26 922.20 C 764.50 923.52 768.70 922.47 771.02 923.25 C 742.04 927.63 712.32 926.77 682.99 927.19 C 554.00 927.51 425.00 927.73 296.01 927.03 C 270.97 927.03 245.96 925.48 221.04 923.25 C 210.41 919.57 198.74 923.15 188.02 919.93 C 183.57 918.14 186.80 911.75 190.87 912.19 C 216.28 911.13 241.75 912.23 267.18 911.72 C 264.91 908.92 261.64 906.70 257.92 906.75 C 246.61 906.02 235.25 906.56 223.94 905.72 C 221.74 905.87 219.77 902.79 217.87 904.94 C 217.36 901.25 217.69 895.20 222.31 894.42 C 230.18 892.80 238.30 894.08 246.23 892.91 C 244.79 890.73 242.99 888.76 240.83 887.30 C 201.88 886.86 162.92 887.23 123.97 886.59 C 120.43 886.41 116.78 886.65 113.36 885.65 C 108.86 882.74 112.78 875.73 116.93 875.00 C 156.20 874.84 195.48 875.15 234.75 874.85 C 229.64 864.86 225.60 854.18 224.82 842.89 C 224.70 836.77 218.77 833.76 215.74 829.18 C 210.46 822.09 210.91 812.69 211.45 804.33 C 213.08 794.61 221.12 787.81 228.21 781.91 C 227.24 773.60 225.38 765.07 227.58 756.76 C 227.98 754.13 229.74 751.26 228.38 748.67 C 223.24 739.49 219.60 729.40 217.99 719.00 C 214.58 687.95 225.08 656.49 243.05 631.38 C 206.23 613.25 177.28 579.03 167.60 538.92 C 160.63 508.01 163.07 473.87 179.20 446.10 C 187.09 432.56 197.90 420.74 210.43 411.36 C 212.15 410.19 212.54 408.03 212.76 406.11 C 214.29 390.59 217.76 375.33 221.76 360.30 C 210.27 359.45 199.30 355.57 188.60 351.51 C 149.52 336.73 121.99 299.54 112.49 259.64 C 108.44 244.76 109.49 229.24 109.96 214.01 C 110.64 192.44 118.49 171.72 129.28 153.25 C 150.84 115.04 190.15 86.71 233.95 81.07 C 254.48 80.16 275.74 80.14 295.21 87.63 C 315.14 95.37 334.11 106.46 348.95 122.04 C 365.53 139.09 376.48 160.78 383.97 183.16 C 393.71 180.71 403.27 177.25 413.04 174.76 C 420.79 173.04 426.13 166.86 432.92 163.25 C 459.86 146.98 491.53 136.51 523.27 139.57 C 530.83 140.43 541.44 142.85 542.31 152.04 C 541.79 161.06 532.29 165.07 525.93 169.76 C 542.74 171.30 559.45 173.89 575.87 177.78 C 577.79 176.71 578.35 174.14 579.39 172.30 C 591.10 142.80 611.76 116.54 638.88 99.78 C 657.15 88.79 677.90 81.31 699.35 80.49 M 237.39 103.54 C 226.34 104.96 215.47 107.92 205.26 112.37 C 167.79 130.50 139.40 166.80 132.13 207.93 C 131.11 220.93 130.56 234.16 132.54 247.09 C 135.05 237.00 132.55 225.57 137.96 216.11 C 142.62 213.45 138.85 218.79 139.09 221.14 C 140.95 220.65 141.11 218.51 141.82 217.03 C 146.77 203.54 156.25 192.34 166.60 182.61 C 182.52 166.66 202.82 154.85 224.92 150.06 C 249.24 145.09 276.22 148.43 296.52 163.43 C 297.59 165.83 302.52 169.71 298.43 171.29 C 312.03 181.77 320.74 196.85 328.05 212.07 C 339.70 205.17 351.41 198.35 363.57 192.36 C 350.57 137.74 294.07 95.41 237.39 103.54 M 695.34 103.48 C 650.61 107.56 613.65 142.51 597.67 183.13 C 596.43 185.16 599.53 185.69 600.76 186.35 C 617.78 192.04 633.46 200.98 648.93 209.92 C 657.06 189.40 672.23 171.28 691.91 161.01 C 688.69 162.20 685.59 160.11 684.00 157.45 C 707.66 143.86 737.52 146.92 761.04 159.21 C 783.09 169.24 801.00 186.87 813.37 207.45 C 815.18 208.25 813.94 209.39 813.36 210.51 C 817.27 214.54 818.61 220.09 820.67 225.13 C 820.77 222.93 820.68 220.61 822.30 218.88 C 819.89 217.59 819.61 216.32 822.58 217.26 C 825.76 226.16 825.20 235.83 826.44 245.09 C 828.98 234.20 827.67 222.25 827.03 211.01 C 820.88 166.05 788.25 126.16 745.97 110.05 C 730.00 103.50 712.41 102.22 695.34 103.48 M 503.39 159.51 C 482.62 161.41 462.67 168.58 444.36 178.36 C 427.85 187.08 412.86 198.91 395.07 205.03 C 398.33 199.88 403.02 195.85 406.60 190.95 C 384.42 202.59 361.56 213.08 340.21 226.26 C 313.96 242.54 291.88 264.93 274.00 290.00 C 254.49 317.95 243.33 350.80 236.40 383.93 C 235.20 390.36 233.61 396.83 234.00 403.42 C 250.29 397.41 270.83 396.72 285.06 407.84 C 275.11 410.02 264.55 407.57 254.65 410.49 C 227.80 418.03 204.77 438.16 193.78 463.82 C 177.15 500.51 184.58 545.56 209.15 576.93 C 228.22 601.09 255.46 618.37 284.94 626.84 C 330.68 638.62 378.22 640.29 425.14 642.36 C 431.66 636.44 437.60 629.82 444.94 624.84 C 471.16 605.30 507.95 598.72 538.01 613.26 C 555.23 619.37 567.55 633.59 578.11 647.81 C 598.56 642.77 618.87 637.13 639.01 630.98 C 672.90 620.40 707.23 611.20 740.85 599.81 C 751.98 592.59 760.12 581.65 768.32 571.39 C 789.74 542.61 797.31 503.14 785.22 469.02 C 775.53 440.64 751.64 416.47 721.94 409.90 C 713.77 407.83 705.32 408.57 697.00 408.60 C 708.87 399.13 725.92 397.42 740.07 402.41 C 737.33 371.01 727.49 340.52 714.23 312.05 C 693.62 270.69 660.56 234.65 618.69 214.35 C 594.04 201.99 567.37 193.40 539.97 190.10 C 556.11 204.71 574.29 221.92 575.55 245.08 C 576.50 247.04 572.20 250.46 576.24 249.80 C 575.29 252.05 572.47 253.10 572.78 255.90 C 570.28 252.54 568.88 257.48 566.32 258.26 C 567.17 260.75 568.19 263.19 569.09 265.68 C 566.77 264.08 562.83 267.76 564.10 263.22 C 567.90 264.75 564.41 260.26 563.04 259.37 C 561.24 261.66 560.26 264.65 557.11 265.45 C 557.08 263.66 557.17 261.87 557.01 260.08 C 554.78 259.39 557.41 264.76 554.96 263.83 C 553.21 264.01 549.81 259.93 551.52 263.67 C 553.05 267.68 547.56 259.49 548.54 265.03 C 547.55 263.24 546.34 261.72 544.07 262.32 C 533.26 257.37 522.25 251.91 511.25 246.99 C 513.72 255.89 519.07 265.45 514.57 274.64 C 513.71 280.72 505.24 277.60 502.37 282.02 C 502.30 281.44 502.16 280.27 502.09 279.68 C 498.33 280.36 495.00 275.17 491.92 278.34 C 492.80 275.04 489.00 275.28 486.87 274.88 C 485.81 272.42 482.98 270.82 480.61 269.34 C 463.43 254.42 449.42 236.34 434.99 218.87 C 437.99 219.86 440.06 222.42 442.82 223.86 C 443.78 222.73 444.42 220.32 446.35 221.46 C 451.44 222.18 451.16 231.19 457.18 228.63 C 466.95 234.38 476.23 240.93 485.84 246.96 C 484.48 250.29 491.10 249.32 492.08 252.51 C 489.42 252.59 490.83 255.30 490.33 256.92 C 494.51 258.97 493.44 253.18 492.64 250.92 C 486.81 233.74 474.45 219.69 460.88 208.10 C 466.37 210.07 471.37 213.23 476.96 214.93 C 476.99 213.45 475.03 209.63 478.00 210.43 C 496.27 213.34 514.23 218.29 531.68 224.45 C 537.75 226.76 544.00 229.01 549.16 233.09 C 540.50 213.03 521.49 198.58 501.16 191.65 C 490.41 187.56 478.85 189.42 467.67 189.22 C 480.92 179.53 495.00 170.84 507.98 160.74 C 510.71 158.14 504.89 159.69 503.39 159.51 M 692.17 160.21 C 692.68 160.85 692.68 160.85 692.17 160.21 M 549.17 235.04 C 545.35 237.37 552.14 237.20 549.17 235.04 M 190.17 288.22 C 190.81 288.86 190.81 288.86 190.17 288.22 M 183.43 289.44 C 182.70 290.26 180.51 291.14 181.52 292.47 C 183.32 294.22 184.83 290.15 183.43 289.44 M 192.86 289.43 C 192.13 293.25 197.00 288.93 192.86 289.43 M 773.91 289.26 C 772.32 292.31 777.23 289.33 773.91 289.26 M 765.12 290.35 C 764.42 294.31 769.07 289.67 765.12 290.35 M 788.20 291.31 C 786.66 294.36 791.51 291.29 788.20 291.31 M 187.15 292.45 C 187.78 293.08 187.78 293.08 187.15 292.45 M 195.20 292.24 C 193.63 295.28 198.52 292.30 195.20 292.24 M 783.22 292.04 C 782.75 296.19 787.06 291.72 783.22 292.04 M 174.59 293.47 C 173.31 295.20 173.09 297.40 172.92 299.47 C 175.68 298.82 180.42 297.03 181.22 301.11 C 177.51 299.37 173.54 302.09 169.92 299.70 C 165.61 300.77 170.88 305.70 167.54 307.24 C 167.56 304.75 166.15 302.75 164.34 301.20 C 164.50 303.87 162.19 303.49 160.67 304.53 C 163.88 303.75 162.13 308.30 164.93 308.05 C 167.48 307.96 166.66 311.37 168.56 312.44 C 183.26 326.08 202.43 334.40 222.01 338.04 C 229.02 340.24 230.25 331.46 232.22 326.83 C 231.62 326.79 230.43 326.71 229.84 326.68 C 233.33 325.89 231.73 323.33 230.70 320.99 C 232.88 325.05 236.76 319.86 233.02 318.88 C 232.76 316.37 237.23 318.08 237.53 316.03 C 235.57 315.23 233.96 314.15 237.00 313.29 C 233.65 312.52 230.21 313.00 226.83 312.72 C 225.70 308.84 221.11 309.18 218.03 310.12 C 218.38 306.42 214.86 305.67 211.95 306.14 C 211.76 308.87 217.12 310.51 213.83 306.65 C 219.43 307.02 214.50 311.74 213.43 314.23 C 215.14 313.65 216.59 312.54 218.19 311.73 C 217.35 313.55 216.18 315.23 214.58 316.46 C 214.88 317.79 214.31 321.56 212.59 319.03 C 210.20 317.31 212.01 314.69 212.32 312.45 C 210.01 313.14 209.99 317.51 206.92 316.25 C 202.66 318.61 205.95 312.79 208.58 314.63 C 209.39 312.25 214.09 307.99 208.66 309.96 C 210.62 308.02 210.77 303.04 208.00 307.69 C 205.43 304.57 209.92 303.06 212.34 304.57 C 211.13 303.35 209.58 302.55 208.00 301.96 C 206.91 303.74 206.63 306.28 204.81 307.43 C 204.52 305.29 205.82 303.50 206.64 301.66 C 204.04 301.05 203.35 298.00 201.00 297.11 C 198.21 296.99 195.49 296.46 192.81 295.71 C 194.18 298.86 197.89 297.96 200.61 298.24 C 202.36 299.71 202.42 302.27 204.25 303.65 C 202.90 306.50 199.73 308.53 199.94 311.97 C 200.32 313.97 198.18 313.76 196.89 314.19 C 197.75 312.56 198.71 310.93 198.89 309.05 C 197.27 309.90 196.10 311.33 194.84 312.62 C 195.46 309.08 192.90 309.85 192.12 312.39 C 189.98 315.44 191.90 310.82 191.95 309.87 C 190.21 310.46 188.47 312.82 186.61 311.33 C 185.53 309.46 187.56 307.38 189.05 306.43 C 188.66 307.96 188.17 309.47 187.81 311.02 C 189.67 309.88 191.08 307.38 193.53 309.02 C 193.39 306.81 192.81 304.67 192.46 302.50 C 195.24 303.08 194.11 307.54 195.86 309.59 C 196.95 307.85 198.37 307.07 200.24 308.30 C 199.08 304.32 197.39 299.56 192.84 298.56 C 193.74 303.36 188.35 298.11 186.79 301.56 C 189.31 301.51 191.76 301.74 191.07 304.93 C 185.98 304.25 185.44 297.56 180.51 298.14 C 181.55 296.88 182.87 295.70 183.05 293.97 C 181.80 294.71 178.61 299.50 178.78 296.20 C 177.84 292.59 178.58 298.61 175.62 297.74 C 170.73 300.59 178.24 291.21 174.59 293.47 M 189.28 293.07 C 185.69 297.07 193.74 293.43 189.28 293.07 M 764.26 293.34 C 763.21 297.31 768.23 292.20 764.26 293.34 M 773.44 294.06 C 772.86 298.04 777.38 293.35 773.44 294.06 M 780.29 294.37 C 780.92 295.01 780.92 295.01 780.29 294.37 M 794.17 294.22 C 794.75 294.83 794.75 294.83 794.17 294.22 M 758.98 295.23 C 757.42 298.27 762.29 295.25 758.98 295.23 M 766.84 294.81 C 768.04 299.09 772.33 301.79 773.16 306.26 C 771.65 306.99 770.57 302.37 769.96 304.57 C 771.51 302.36 764.33 295.56 765.01 301.33 C 763.50 302.38 761.80 296.52 762.06 300.09 C 761.65 302.94 765.62 302.38 765.80 304.93 C 767.20 307.84 764.60 304.57 763.69 304.36 C 760.54 303.31 764.47 309.77 760.99 307.04 C 757.35 306.43 760.95 304.37 762.08 302.89 C 759.94 303.44 757.77 304.86 755.78 303.17 C 756.68 304.80 757.68 306.43 757.94 308.32 C 755.27 306.55 753.63 303.47 755.99 300.71 C 749.61 303.47 756.48 309.03 759.12 311.95 C 755.27 310.01 755.31 312.24 757.05 315.31 C 753.85 314.66 755.93 310.28 753.66 308.40 C 752.49 304.29 747.42 300.85 744.85 305.90 C 749.70 302.27 753.04 307.52 753.28 312.14 C 752.02 311.37 750.83 310.50 749.52 309.86 C 749.40 311.54 750.45 313.56 749.46 315.04 C 749.33 307.92 745.05 317.76 741.37 317.23 C 743.24 314.38 749.96 312.09 745.91 308.16 C 747.49 308.43 753.17 308.28 749.28 306.63 C 743.81 304.04 745.70 315.79 741.08 312.05 C 740.56 307.88 737.33 308.41 734.25 309.84 C 735.89 312.49 737.90 314.90 740.37 316.82 C 735.36 315.19 738.99 320.51 741.03 321.77 C 739.43 323.78 741.32 325.09 742.68 326.44 C 743.20 329.93 743.45 333.68 745.67 336.62 C 763.86 332.18 780.97 322.43 794.32 309.33 C 793.12 307.29 791.23 305.82 789.25 304.61 C 787.14 306.57 785.00 306.50 782.81 304.75 C 783.27 307.60 786.03 309.19 786.99 311.83 C 785.19 311.16 783.30 310.69 783.38 312.57 C 780.72 307.71 778.86 317.06 778.91 311.99 C 778.83 309.63 782.50 310.44 784.07 309.73 C 782.55 308.27 780.91 306.91 779.66 305.20 C 782.11 305.23 783.37 300.49 785.38 303.62 C 788.94 306.76 786.27 301.34 784.59 300.09 C 783.06 301.61 779.88 303.08 779.16 300.00 C 776.63 295.93 784.01 302.77 781.77 299.19 C 781.27 296.08 776.36 300.08 777.26 296.89 C 778.75 293.12 772.01 298.21 773.61 299.46 C 776.70 296.35 778.54 301.80 780.01 303.93 C 777.83 304.03 776.99 302.09 775.97 300.56 C 771.53 304.86 770.44 296.44 766.84 294.81 M 787.33 295.16 C 786.94 296.37 788.54 298.44 789.82 298.09 C 790.24 296.76 788.77 294.73 787.33 295.16 M 762.30 296.44 C 762.88 297.07 762.88 297.07 762.30 296.44 M 771.24 296.21 C 771.82 296.80 771.82 296.80 771.24 296.21 M 783.10 296.46 C 781.56 299.49 786.40 296.61 783.10 296.46 M 168.21 297.23 C 168.84 297.85 168.84 297.85 168.21 297.23 M 186.03 297.33 C 184.81 301.84 190.80 296.10 186.03 297.33 M 190.07 297.17 C 188.56 300.20 193.40 297.22 190.07 297.17 M 157.29 298.23 C 157.20 301.61 160.32 296.77 157.29 298.23 M 161.14 297.87 C 160.02 301.08 166.66 301.04 167.52 299.14 C 165.22 299.55 163.12 299.01 161.14 297.87 M 756.12 298.25 C 754.99 302.17 760.19 296.91 756.12 298.25 M 786.07 298.28 C 786.70 298.91 786.70 298.91 786.07 298.28 M 803.23 298.30 C 803.87 298.94 803.87 298.94 803.23 298.30 M 760.29 299.27 C 759.19 299.72 757.90 300.27 757.33 301.36 C 757.99 304.13 762.73 300.37 760.29 299.27 M 789.24 299.10 C 785.13 302.30 792.10 301.96 789.24 299.10 M 199.23 300.39 C 198.64 301.93 199.82 305.01 201.56 305.07 C 201.54 303.54 201.02 300.52 199.23 300.39 M 792.16 300.05 C 792.79 300.68 792.79 300.68 792.16 300.05 M 160.46 300.88 C 155.04 303.11 162.82 303.77 160.46 300.88 M 790.08 303.12 C 791.10 305.35 794.73 305.46 795.18 308.39 C 797.42 306.82 792.52 302.42 790.08 303.12 M 796.42 304.14 C 795.67 308.21 800.31 303.43 796.42 304.14 M 742.09 307.42 C 739.71 312.30 745.27 310.16 742.09 307.42 M 213.04 310.27 C 211.47 313.32 216.39 310.36 213.04 310.27 M 879.29 537.41 C 874.70 538.43 868.48 539.80 867.00 544.94 C 872.21 544.97 876.85 541.33 882.13 540.85 C 884.26 540.06 888.15 540.72 888.81 538.13 C 886.10 536.10 882.38 537.19 879.29 537.41 M 885.40 546.33 C 884.18 546.60 883.19 547.56 882.40 548.46 C 883.15 550.70 888.34 547.55 885.40 546.33 M 830.23 551.39 C 826.40 552.61 818.47 554.83 820.22 559.69 C 826.73 557.49 833.15 554.92 840.03 554.00 C 841.49 549.04 833.13 550.74 830.23 551.39 M 908.27 556.41 C 881.10 563.90 853.94 571.48 827.01 579.80 C 815.69 582.97 812.41 596.95 801.35 600.46 C 799.58 600.66 798.47 602.90 801.02 602.71 C 810.34 602.27 819.19 598.73 828.15 596.34 C 830.93 595.25 835.65 595.03 835.41 591.01 C 835.80 584.53 844.34 580.83 849.56 584.41 C 851.80 585.77 853.36 588.12 855.78 589.21 C 862.18 586.84 868.53 584.34 874.83 581.71 C 879.89 580.07 878.00 572.92 882.25 570.19 C 886.64 567.63 893.59 567.64 896.51 572.45 C 901.47 578.08 895.92 587.33 888.97 587.49 C 878.53 584.86 868.46 590.46 858.99 594.22 C 854.87 595.41 853.11 599.73 849.42 601.50 C 834.88 604.70 821.11 610.77 807.35 616.39 C 805.68 616.50 803.38 619.41 806.19 619.66 C 812.93 619.81 819.26 616.53 826.00 616.53 C 828.59 616.15 828.29 619.85 826.30 620.33 C 820.55 622.82 814.06 622.97 808.35 625.57 C 805.69 627.56 810.18 627.91 811.57 627.45 C 822.05 624.80 832.73 623.05 843.21 620.42 C 847.60 619.80 850.10 614.42 854.91 615.83 C 866.09 617.99 877.14 614.38 887.97 612.04 C 892.81 611.60 893.21 605.01 898.11 604.65 C 903.92 603.17 910.09 608.08 910.24 614.01 C 910.19 618.65 905.95 622.08 902.05 623.83 C 897.27 624.35 893.83 620.28 890.82 617.31 C 882.34 618.87 873.89 620.68 865.45 622.48 C 865.06 627.52 863.05 634.14 856.98 634.43 C 851.52 635.02 847.83 630.65 845.68 626.27 C 833.89 628.40 821.76 629.82 810.31 633.40 C 809.74 635.31 810.07 642.44 814.05 640.62 C 824.90 637.39 832.54 649.07 842.84 649.38 C 872.37 642.15 901.70 634.11 930.99 625.98 C 938.78 624.80 935.90 615.39 934.66 610.15 C 929.45 593.18 924.67 576.02 918.62 559.33 C 917.32 554.56 911.96 555.28 908.27 556.41 M 837.40 561.30 C 835.86 561.07 834.12 563.32 836.69 563.00 C 839.37 563.62 841.05 560.04 837.40 561.30 M 784.23 602.36 C 782.12 602.66 780.06 603.30 778.21 604.34 C 777.89 612.82 794.99 601.21 784.23 602.36 M 819.32 604.44 C 813.36 605.78 807.37 607.02 801.46 608.56 C 800.58 610.34 803.02 613.11 805.05 611.65 C 811.19 609.37 817.53 607.28 823.22 604.03 C 821.90 604.05 820.60 604.19 819.32 604.44 M 767.19 607.36 C 763.34 608.32 759.42 609.12 755.75 610.66 C 753.47 611.09 754.76 615.21 756.90 614.16 C 762.26 612.55 768.02 611.68 772.89 608.79 C 773.89 605.38 769.02 607.18 767.19 607.36 M 786.38 609.48 C 784.35 610.16 782.32 610.85 780.45 611.87 C 781.59 617.02 788.64 613.45 791.48 611.50 C 793.86 607.85 788.41 608.23 786.38 609.48 M 746.33 613.46 C 742.59 614.74 735.37 614.46 735.91 620.07 C 740.67 618.78 745.54 617.72 750.15 615.95 C 751.75 613.61 748.01 612.61 746.33 613.46 M 773.45 613.53 C 769.08 615.03 764.45 615.63 760.10 617.16 C 764.68 622.12 772.09 619.21 776.75 615.72 C 776.43 614.25 774.99 612.95 773.45 613.53 M 790.39 616.49 C 788.16 617.32 784.74 617.69 783.84 620.13 C 784.69 623.91 789.97 621.09 792.42 620.47 C 796.18 619.52 793.48 614.62 790.39 616.49 M 727.22 619.38 C 721.24 621.33 714.99 622.61 709.28 625.24 C 707.26 625.57 707.87 628.62 709.78 628.39 C 716.89 626.36 724.04 624.35 730.97 621.77 C 731.88 618.86 729.42 618.51 727.22 619.38 M 495.35 622.47 C 484.48 623.46 473.91 627.02 464.45 632.44 C 450.40 640.09 439.78 653.63 424.21 658.41 C 402.78 659.75 381.39 656.42 359.98 655.96 C 358.00 655.41 355.60 657.66 357.09 659.53 C 370.05 659.16 382.91 661.49 395.68 663.46 C 400.12 664.58 405.55 664.32 408.70 668.24 C 390.90 670.88 372.79 662.45 355.02 666.28 C 353.32 676.38 355.58 687.09 359.59 696.40 C 368.75 700.17 379.81 695.33 388.85 700.20 C 396.43 704.13 401.90 711.02 405.78 718.46 C 413.54 717.25 421.26 714.19 428.84 711.79 C 430.29 706.84 430.81 701.61 433.16 696.94 C 441.17 678.11 461.73 665.81 482.07 667.12 C 494.87 668.07 507.26 673.64 516.28 682.79 C 521.73 682.39 526.92 679.23 531.85 676.81 C 538.75 673.82 546.11 671.94 552.92 668.73 C 553.71 666.01 551.36 663.42 550.20 661.06 C 540.10 643.63 519.92 633.08 499.97 633.30 C 481.36 634.18 465.76 645.41 450.57 654.96 C 450.05 652.16 448.18 654.31 446.78 654.82 C 455.16 644.53 466.96 637.39 479.00 632.11 C 488.99 627.40 500.27 628.02 511.00 628.38 C 531.67 631.21 549.60 645.69 558.76 664.14 C 559.98 666.95 563.62 664.97 565.66 664.31 C 554.77 636.88 524.73 618.89 495.35 622.47 M 773.10 622.29 C 767.51 625.59 778.40 627.61 778.70 622.96 C 777.25 621.52 774.90 622.01 773.10 622.29 M 791.33 624.44 C 789.58 624.99 787.85 625.60 786.23 626.43 C 786.81 632.04 793.61 627.98 796.60 626.55 C 798.39 623.14 793.22 623.16 791.33 624.44 M 700.36 627.47 C 696.20 628.83 691.67 629.61 688.05 632.18 C 686.20 633.70 689.30 635.93 690.86 634.67 C 695.28 632.98 700.64 632.34 704.12 629.00 C 705.38 625.96 702.04 627.08 700.36 627.47 M 749.43 630.51 C 740.72 632.46 742.45 642.40 742.89 649.00 C 739.71 646.02 737.14 639.84 731.95 641.11 C 724.69 646.06 722.80 655.74 722.92 664.00 C 722.68 674.56 726.75 684.42 730.07 694.22 C 727.30 692.86 725.33 690.24 722.41 689.19 C 723.11 693.44 725.30 697.19 727.12 701.03 C 720.74 697.83 715.85 692.44 711.98 686.56 C 703.61 689.92 694.78 692.44 686.90 696.87 C 686.88 699.64 680.92 702.46 684.69 704.00 C 684.41 705.67 684.32 708.06 682.09 708.12 C 672.60 721.97 655.18 731.17 637.95 731.21 C 627.91 731.58 617.52 731.86 608.07 727.94 C 610.32 721.74 604.80 730.07 603.74 724.39 C 603.94 721.39 600.11 722.28 601.31 725.03 C 608.31 765.73 585.47 811.38 546.00 826.05 C 534.32 831.05 521.50 831.54 509.00 831.98 C 503.39 832.25 497.23 831.75 492.67 835.64 C 493.36 834.33 494.17 833.10 494.88 831.81 C 491.95 834.43 486.06 834.84 488.20 839.99 C 489.65 838.61 489.51 836.01 491.95 835.63 C 491.45 838.13 491.57 841.26 488.89 842.54 C 485.43 844.37 492.88 842.62 490.43 844.35 C 487.67 848.06 485.84 842.49 486.87 840.05 C 483.18 840.18 477.03 844.56 480.44 848.48 C 482.67 850.40 480.43 853.00 478.44 853.89 C 477.70 851.90 482.10 850.02 479.19 848.70 C 474.77 846.23 473.78 852.93 470.80 854.83 C 466.65 858.35 471.33 862.40 472.87 865.86 C 469.56 868.16 470.20 859.44 466.21 860.08 C 463.28 862.43 460.85 867.00 464.00 870.23 C 466.31 872.10 462.57 873.33 461.14 874.21 C 461.39 873.29 464.95 869.63 462.05 871.30 C 459.10 872.72 452.43 874.27 453.97 878.37 C 451.79 878.07 447.29 875.04 448.18 879.46 C 446.53 878.42 444.79 877.57 442.91 877.08 C 444.06 878.97 446.74 880.18 446.60 882.67 C 462.81 886.11 479.49 886.46 496.00 886.92 C 534.78 887.59 572.93 878.08 609.20 865.03 C 603.10 871.71 595.04 876.48 587.05 880.63 C 598.27 884.59 610.41 884.80 622.19 885.31 C 614.50 859.51 621.95 830.97 637.38 809.47 C 647.07 793.94 663.46 782.02 681.44 777.49 C 687.22 774.33 692.52 770.24 699.02 768.54 C 690.37 762.08 677.69 761.98 667.00 761.49 C 647.49 760.75 629.77 770.52 614.43 781.48 C 621.54 762.53 640.81 750.27 659.95 746.06 C 672.97 745.22 686.05 746.02 698.95 747.86 C 724.71 747.68 750.57 735.66 766.17 714.93 C 777.09 700.18 782.89 681.29 780.61 662.96 C 779.40 655.21 776.46 646.92 769.90 642.15 C 766.08 640.53 765.25 645.95 763.41 648.11 C 762.70 640.47 759.30 628.94 749.43 630.51 M 714.15 631.34 C 712.00 631.36 710.66 635.31 713.25 635.58 C 717.07 634.83 720.38 628.62 714.15 631.34 M 794.17 632.32 C 792.12 633.01 788.13 632.93 789.02 636.08 C 792.21 637.52 796.15 635.71 798.76 633.73 C 800.55 630.48 795.80 632.05 794.17 632.32 M 681.35 633.50 C 676.48 634.72 671.68 636.29 667.02 638.12 C 664.72 638.41 665.55 642.46 667.89 641.30 C 672.57 640.08 677.30 638.73 681.68 636.66 C 683.37 636.15 683.71 632.68 681.35 633.50 M 704.39 634.53 C 699.66 636.03 693.85 636.29 690.25 639.93 C 693.41 643.46 699.84 639.50 703.94 638.23 C 706.90 638.03 708.47 632.92 704.39 634.53 M 798.37 639.47 C 796.28 640.81 792.47 640.67 791.71 643.16 C 795.34 644.01 800.21 642.70 801.25 638.68 C 800.53 638.88 799.09 639.28 798.37 639.47 M 659.28 640.40 C 655.14 641.28 651.02 642.48 647.12 644.13 C 645.05 644.73 645.69 648.53 648.02 647.94 C 652.62 646.61 657.67 645.56 661.55 642.64 C 663.17 640.81 660.79 640.06 659.28 640.40 M 260.10 641.08 C 246.13 659.52 236.33 682.48 238.18 706.00 C 236.77 722.79 243.86 738.98 253.81 752.11 C 259.30 758.96 266.24 765.95 275.41 766.97 C 268.40 759.81 260.95 752.32 256.89 743.06 C 287.07 765.04 325.91 775.82 363.07 770.93 C 378.43 768.36 396.34 757.33 395.41 739.77 C 392.60 732.05 383.18 735.78 377.10 735.47 C 381.95 730.87 393.83 726.48 389.12 717.96 C 376.37 705.83 357.13 717.04 342.54 709.52 C 335.46 705.75 326.44 702.93 321.88 696.23 C 328.62 697.06 335.83 700.96 342.37 699.19 C 336.11 685.48 333.93 669.91 337.77 655.23 C 316.91 651.83 295.33 651.65 275.03 645.07 C 270.03 643.92 265.17 641.19 260.10 641.08 M 682.19 641.37 C 678.07 642.30 673.87 643.24 670.04 645.07 C 668.26 645.57 668.99 649.06 670.91 648.46 C 675.59 647.07 680.64 646.25 684.94 643.89 C 687.13 642.02 684.15 640.09 682.19 641.37 M 704.31 642.43 C 700.59 643.85 696.10 644.33 693.07 646.93 C 691.78 650.69 697.12 649.59 699.05 648.78 C 702.53 647.24 709.03 647.12 708.90 642.07 C 707.36 641.60 705.79 641.99 704.31 642.43 M 636.21 647.39 C 631.62 649.72 622.03 649.04 621.76 655.27 C 628.18 654.31 634.49 651.78 640.57 649.42 C 643.78 646.69 638.00 646.27 636.21 647.39 M 662.39 647.47 C 657.84 648.81 653.25 650.17 648.95 652.18 C 647.06 652.60 648.11 655.61 649.80 655.35 C 654.45 654.06 659.25 652.80 663.47 650.41 C 665.21 649.58 664.24 646.37 662.39 647.47 M 906.20 647.27 C 904.31 648.94 904.98 651.99 904.82 654.27 C 909.10 653.36 914.54 653.94 918.06 651.43 C 913.53 650.81 911.20 643.97 906.20 647.27 M 685.38 648.46 C 681.19 649.72 677.02 651.14 673.03 652.93 C 670.76 653.43 671.67 657.18 674.00 656.48 C 678.36 655.70 682.67 654.43 686.73 652.66 C 689.01 651.92 687.93 646.89 685.38 648.46 M 704.38 651.51 C 701.18 652.20 697.96 652.92 694.94 654.18 C 696.02 660.36 706.56 655.84 707.04 651.11 C 706.38 651.21 705.04 651.41 704.38 651.51 M 613.30 654.43 C 608.11 656.15 602.64 657.20 597.73 659.68 C 596.07 660.05 595.79 663.34 598.01 662.68 C 604.24 661.09 610.92 659.85 616.49 656.58 C 618.33 653.87 615.39 653.22 613.30 654.43 M 640.31 654.45 C 635.17 655.71 630.00 657.05 625.14 659.17 C 622.62 659.85 625.17 663.31 626.86 662.33 C 632.60 660.34 639.07 659.59 644.04 655.91 C 644.17 653.64 641.77 654.08 640.31 654.45 M 661.27 656.41 C 657.82 657.51 654.18 658.27 651.06 660.17 C 649.55 661.14 650.73 664.47 652.59 663.50 C 657.16 662.15 661.93 661.17 666.19 658.98 C 667.86 655.37 663.60 655.22 661.27 656.41 M 685.35 657.48 C 681.52 658.48 677.56 659.31 674.04 661.19 C 673.24 663.52 676.07 664.45 677.81 663.64 C 681.92 662.44 686.58 661.71 689.92 658.90 C 691.61 655.88 686.89 657.20 685.35 657.48 M 704.33 659.37 C 701.39 659.91 696.91 662.04 699.32 665.70 C 703.11 666.57 706.47 661.77 704.33 659.37 M 861.17 659.31 C 857.67 661.01 858.64 666.32 856.04 669.12 C 860.66 667.81 865.25 666.40 869.93 665.34 C 867.54 662.90 865.16 658.50 861.17 659.31 M 587.22 662.39 C 582.71 663.78 578.09 665.01 573.86 667.13 C 571.96 669.19 575.57 669.84 576.94 669.09 C 582.27 667.56 587.80 666.34 592.77 663.83 C 592.35 660.99 589.17 661.85 587.22 662.39 M 613.12 662.32 C 608.34 663.72 603.51 665.02 598.90 666.92 C 598.62 668.45 598.56 671.28 600.94 670.09 C 607.01 668.20 613.27 666.63 619.02 663.89 C 619.95 660.23 615.01 661.80 613.12 662.32 M 642.21 662.38 C 636.87 663.85 631.33 664.92 626.28 667.25 C 626.64 668.54 626.91 671.02 628.89 670.20 C 634.64 668.72 640.59 667.53 645.95 664.88 C 646.78 662.49 644.01 661.44 642.21 662.38 M 666.31 663.46 C 661.94 665.27 655.22 665.07 653.05 669.84 C 657.77 670.71 662.52 668.34 666.98 666.95 C 669.78 666.30 669.67 661.43 666.31 663.46 M 687.26 665.42 C 683.83 666.51 680.22 667.32 677.12 669.21 C 676.94 670.64 676.92 672.48 678.97 671.99 C 683.66 670.69 688.62 669.47 692.68 666.69 C 694.87 663.07 689.00 665.00 687.26 665.42 M 872.23 666.32 C 871.73 671.08 876.61 667.13 872.23 666.32 M 589.30 669.43 C 585.31 671.92 575.54 670.45 576.31 676.74 C 580.65 676.72 584.67 674.78 588.78 673.62 C 590.88 672.85 594.13 672.14 593.78 669.24 C 592.36 668.16 590.77 669.01 589.30 669.43 M 617.13 669.33 C 611.82 671.18 605.88 671.94 601.21 675.20 C 601.21 675.87 601.21 677.22 601.21 677.89 C 608.18 677.09 615.07 675.01 621.62 672.52 C 623.13 669.27 619.71 667.62 617.13 669.33 M 562.41 670.45 C 556.43 673.87 567.88 673.39 568.39 669.95 C 566.39 669.61 564.26 669.54 562.41 670.45 M 642.38 670.50 C 637.93 671.88 633.08 672.57 629.16 675.23 C 627.96 679.02 633.08 677.51 635.05 676.89 C 639.51 675.12 644.97 674.70 648.49 671.26 C 647.62 668.66 644.28 670.25 642.38 670.50 M 702.00 670.12 C 698.31 673.50 707.83 673.77 706.01 669.81 C 704.61 669.37 703.28 669.48 702.00 670.12 M 667.22 671.39 C 663.62 672.64 659.62 673.16 656.45 675.37 C 654.88 676.95 657.25 679.10 658.99 678.03 C 663.31 676.65 667.82 675.74 671.97 673.88 C 673.03 670.24 669.68 670.11 667.22 671.39 M 474.34 673.46 C 455.18 674.52 439.29 690.83 435.16 708.94 C 437.84 709.89 441.33 708.20 443.82 706.81 C 446.18 703.66 446.61 699.36 449.27 696.32 C 459.73 680.93 482.28 676.28 498.23 685.69 C 501.86 688.32 506.27 687.87 510.00 685.71 C 501.22 675.67 487.21 672.32 474.34 673.46 M 691.19 673.38 C 687.46 674.47 683.59 675.32 680.16 677.20 C 678.95 680.67 683.22 678.73 684.97 678.27 C 688.43 676.78 693.88 676.95 695.27 672.80 C 693.87 672.79 692.52 672.98 691.19 673.38 M 566.27 676.38 C 564.33 677.05 561.05 677.31 562.01 680.19 C 564.96 681.13 568.02 679.63 570.80 678.68 C 572.42 675.50 568.23 675.47 566.27 676.38 M 591.18 677.36 C 586.92 678.78 582.27 679.38 578.41 681.77 C 578.54 682.86 578.18 685.62 580.03 684.97 C 585.75 683.79 591.48 682.12 596.84 679.75 C 597.37 676.23 593.46 676.21 591.18 677.36 M 620.30 677.45 C 615.10 679.84 605.45 678.71 603.88 685.04 C 610.60 684.14 617.40 682.35 623.53 679.44 C 625.75 676.63 622.27 676.76 620.30 677.45 M 648.19 677.37 C 643.05 678.78 637.87 680.16 632.92 682.12 C 631.36 682.50 632.46 685.57 633.99 684.93 C 638.75 684.35 643.39 682.86 647.91 681.30 C 650.35 681.17 651.67 675.70 648.19 677.37 M 671.21 679.37 C 667.00 680.77 662.73 682.07 658.78 684.11 C 659.91 687.99 665.41 683.68 668.30 683.44 C 671.69 683.52 678.01 677.68 671.21 679.37 M 552.30 680.43 C 547.20 681.81 541.76 682.53 537.07 685.04 C 537.06 685.79 537.03 687.29 537.02 688.04 C 543.70 686.35 550.42 684.41 556.75 681.65 C 559.13 678.66 553.86 680.34 552.30 680.43 M 569.19 683.35 C 566.90 684.11 563.06 685.60 564.26 688.72 C 567.46 689.23 570.85 688.25 573.67 686.73 C 575.33 683.79 571.51 681.98 569.19 683.35 M 624.30 684.46 C 618.78 685.62 613.37 687.30 608.02 689.02 C 605.62 689.20 606.96 693.89 609.09 692.82 C 614.47 691.53 619.70 689.62 624.96 687.92 C 627.39 687.81 626.55 683.63 624.30 684.46 M 594.18 685.35 C 590.25 687.09 581.98 686.99 581.83 692.03 C 587.75 691.30 593.59 689.44 598.99 686.93 C 599.71 683.89 595.89 685.08 594.18 685.35 M 527.30 686.43 C 524.83 687.05 517.78 688.63 522.43 691.59 C 525.82 691.47 530.42 691.20 532.40 688.13 C 532.80 684.85 529.24 685.98 527.30 686.43 M 649.33 686.46 C 644.89 688.12 636.51 688.23 635.25 692.74 C 641.21 691.91 647.18 690.24 652.56 687.51 C 654.21 685.20 650.53 686.53 649.33 686.46 M 554.20 688.37 C 549.34 689.70 544.34 690.74 539.79 692.97 C 539.28 694.34 539.97 696.02 540.82 697.16 C 547.14 695.35 553.75 693.74 559.46 690.44 C 561.44 687.26 556.04 687.48 554.20 688.37 M 512.30 690.40 C 510.89 690.74 507.46 692.01 509.17 693.80 C 510.71 697.67 514.95 694.78 517.03 692.90 C 517.31 690.42 514.11 689.78 512.30 690.40 M 574.29 691.41 C 571.51 692.09 565.35 692.39 567.32 696.79 C 570.58 696.94 573.94 695.52 576.58 693.68 C 578.18 691.81 575.83 691.05 574.29 691.41 M 595.33 693.46 C 591.54 694.55 587.62 695.38 584.08 697.18 C 583.81 698.56 584.03 700.41 585.95 700.00 C 591.30 698.70 596.81 697.28 601.70 694.71 C 602.19 691.16 597.26 693.03 595.33 693.46 M 625.31 693.45 C 619.94 695.36 613.46 696.01 609.25 700.00 C 615.91 699.74 622.58 697.51 628.46 694.47 C 630.59 691.89 626.70 693.30 625.31 693.45 M 500.37 695.50 C 486.59 698.58 473.27 703.33 459.84 707.63 C 455.58 709.33 450.81 710.28 447.18 713.23 C 446.61 714.51 448.39 714.96 449.23 714.41 C 465.72 708.75 482.42 703.71 498.98 698.25 C 500.98 697.38 503.59 697.09 504.77 695.02 C 503.28 695.08 501.82 695.24 500.37 695.50 M 530.30 695.40 C 528.76 695.75 527.25 696.24 525.82 696.91 C 525.68 703.19 537.02 700.44 534.76 695.23 C 533.27 694.83 531.75 695.06 530.30 695.40 M 559.19 696.37 C 553.41 697.70 547.59 699.11 542.08 701.32 C 540.27 702.78 543.14 705.40 544.91 704.14 C 550.57 702.10 556.75 701.09 561.90 697.84 C 562.72 695.52 560.70 696.05 559.19 696.37 M 519.28 698.44 C 516.27 698.36 514.14 701.28 515.02 704.15 C 518.64 706.58 525.65 699.78 519.28 698.44 M 575.30 699.43 C 573.13 700.06 568.14 700.65 570.00 704.03 C 573.10 708.21 583.82 698.76 575.30 699.43 M 602.42 700.48 C 597.31 702.00 592.10 703.29 587.20 705.40 C 587.36 705.81 587.67 706.62 587.83 707.03 C 592.94 706.24 597.98 704.70 602.79 702.82 C 604.42 702.42 604.35 699.22 602.42 700.48 M 509.39 703.48 C 488.63 709.19 468.02 715.76 447.80 723.14 C 447.71 725.85 450.54 724.13 452.02 723.98 C 470.96 717.90 490.09 712.39 508.78 705.59 C 510.47 705.61 512.04 702.37 509.39 703.48 M 533.19 704.34 C 531.66 705.01 528.86 705.42 529.22 707.65 C 532.02 708.54 536.27 708.16 537.52 705.07 C 537.50 702.51 534.52 704.07 533.19 704.34 M 560.24 704.39 C 555.46 705.93 550.53 707.12 545.96 709.23 C 544.23 709.45 543.60 712.57 545.93 712.26 C 552.40 711.18 558.80 709.26 564.91 706.90 C 564.99 703.96 562.72 703.12 560.24 704.39 M 522.36 708.44 C 520.55 709.03 519.09 710.30 518.04 711.86 C 520.75 714.20 526.86 707.25 522.36 708.44 M 578.20 708.37 C 575.83 709.30 572.75 710.14 571.99 712.92 C 575.38 712.67 578.92 711.52 581.48 709.24 C 582.36 706.85 579.45 707.93 578.20 708.37 M 534.36 712.46 C 532.37 712.59 528.94 714.82 531.06 716.82 C 534.07 716.37 537.44 715.88 539.75 713.74 C 540.20 710.77 536.02 712.05 534.36 712.46 M 566.28 712.48 C 560.40 713.73 554.72 715.83 549.04 717.79 C 548.05 718.37 545.68 718.82 546.58 720.44 C 553.49 719.88 560.18 717.13 566.51 714.36 C 568.03 714.16 568.10 711.61 566.28 712.48 M 441.37 713.44 C 438.03 713.38 432.59 715.55 434.29 719.70 C 437.29 719.42 440.48 718.79 442.90 716.88 C 443.00 715.56 443.61 712.45 441.37 713.44 M 510.33 714.45 C 491.21 720.31 472.06 726.14 452.98 732.14 C 450.91 732.08 448.35 735.67 451.90 735.08 C 472.73 728.78 493.64 722.57 514.15 715.28 C 517.23 712.89 511.72 713.98 510.33 714.45 M 522.18 715.33 C 518.60 714.89 517.93 722.25 521.63 720.51 C 525.19 721.14 526.63 713.15 522.18 715.33 M 426.17 718.35 C 420.11 720.08 414.10 722.04 408.08 723.91 C 405.68 724.20 405.72 727.00 406.27 728.78 C 412.99 726.81 419.77 724.90 426.28 722.30 C 428.70 722.03 429.11 716.75 426.17 718.35 M 581.39 718.46 C 579.48 718.87 576.25 719.29 577.28 722.03 C 578.95 736.60 576.89 752.16 568.31 764.39 C 554.69 784.30 528.91 793.61 505.54 790.68 C 504.24 789.23 502.97 788.07 502.72 790.89 C 502.04 788.90 498.54 789.80 498.61 787.90 C 512.19 786.80 526.38 787.04 538.98 781.11 C 551.50 775.99 562.67 766.60 568.04 753.98 C 572.57 743.85 572.86 732.36 570.87 721.58 C 559.31 723.29 548.36 728.02 537.05 730.94 C 534.98 731.78 531.98 731.74 530.81 733.83 C 529.12 741.40 525.03 748.25 520.29 754.30 C 502.01 774.90 466.29 776.90 446.54 757.37 C 445.38 756.19 443.74 755.58 442.17 756.34 C 429.61 760.09 417.12 764.10 404.83 768.66 C 397.67 771.01 392.43 776.68 385.90 780.19 C 386.20 789.46 391.22 798.91 390.45 808.30 C 382.06 812.66 372.55 814.72 363.34 816.65 C 366.48 825.24 371.86 833.15 373.48 842.36 C 374.11 844.12 373.67 848.12 376.58 847.49 C 400.92 843.55 422.04 829.23 439.81 812.79 C 446.10 807.74 451.55 800.73 459.12 797.84 C 453.79 807.00 446.03 814.18 437.94 820.92 C 421.35 835.92 401.58 848.61 379.06 851.89 C 376.08 851.86 376.23 855.25 375.98 857.33 C 404.67 855.13 428.96 837.29 449.47 818.43 C 458.69 811.02 466.77 800.84 478.93 798.36 C 497.79 794.89 517.44 799.15 536.05 793.76 C 554.76 788.55 571.12 775.15 579.61 757.65 C 585.34 746.64 584.38 733.87 583.77 721.90 C 583.52 720.56 583.44 717.58 581.39 718.46 M 536.13 721.32 C 534.20 722.03 530.14 723.26 531.85 726.04 C 535.33 725.27 538.81 724.37 542.12 723.04 C 543.40 719.58 537.95 720.52 536.13 721.32 M 439.36 723.45 C 437.28 724.14 433.95 725.14 434.97 728.08 C 435.72 732.77 441.39 728.84 444.02 727.89 C 443.64 725.50 442.61 721.56 439.36 723.45 M 524.30 724.47 C 520.73 724.37 517.89 727.03 517.32 730.48 C 520.36 731.52 528.15 726.29 524.30 724.47 M 427.36 727.47 C 421.20 729.25 414.97 730.93 408.96 733.19 C 408.83 735.11 409.28 738.58 411.98 738.03 C 418.54 736.84 424.83 734.28 431.07 731.99 C 430.63 730.14 430.18 726.14 427.36 727.47 M 511.25 727.42 C 493.94 731.33 477.13 737.21 460.12 742.24 C 457.72 742.40 456.85 745.78 460.00 744.60 C 477.89 739.76 495.71 734.43 513.18 728.23 C 515.83 726.50 512.61 727.19 511.25 727.42 M 441.30 734.41 C 439.42 734.97 436.12 736.47 438.11 738.81 C 441.10 739.28 444.07 738.02 446.68 736.68 C 446.81 733.67 443.43 733.19 441.30 734.41 M 522.38 734.49 C 519.02 735.24 515.48 736.68 513.79 739.89 C 504.05 756.52 480.56 762.70 463.78 753.31 C 460.05 750.55 454.16 751.82 451.16 753.92 C 466.18 767.73 491.62 769.78 508.07 756.86 C 515.34 750.76 521.98 743.17 525.04 734.06 C 524.37 734.17 523.04 734.38 522.38 734.49 M 430.19 738.36 C 425.58 739.42 421.10 740.98 416.63 742.50 C 413.91 743.55 409.81 744.54 410.58 748.38 C 417.82 746.38 424.99 744.04 431.97 741.29 C 435.35 740.53 432.58 736.82 430.19 738.36 M 447.25 742.38 C 445.11 742.52 440.52 744.04 443.52 746.55 C 445.82 750.86 450.62 748.63 453.83 746.73 C 454.00 743.71 450.02 741.43 447.25 742.38 M 434.34 746.44 C 427.12 748.11 420.05 750.54 413.15 753.22 C 409.67 753.80 409.30 761.39 413.65 759.54 C 422.46 756.77 431.28 753.90 440.08 751.10 C 438.76 749.10 437.19 745.93 434.34 746.44 M 729.34 765.45 C 728.74 765.68 727.54 766.14 726.94 766.37 C 729.87 768.44 733.17 769.93 736.48 771.27 C 736.10 767.53 733.82 762.19 729.34 765.45 M 287.14 781.30 C 275.99 785.25 280.89 799.72 286.70 806.36 C 291.34 813.64 304.31 818.60 309.81 809.86 C 313.86 796.57 300.75 780.76 287.14 781.30 M 704.23 783.36 C 694.22 786.86 685.98 797.20 686.31 808.00 C 686.32 813.50 692.01 817.02 697.11 815.87 C 708.57 813.91 718.49 802.53 717.48 790.71 C 716.98 784.38 709.73 781.35 704.23 783.36 M 257.24 784.38 C 252.27 785.78 249.30 790.99 249.97 796.01 C 251.50 810.71 265.94 823.22 280.83 821.66 C 284.08 821.04 281.03 818.36 279.84 817.15 C 272.54 810.20 268.72 800.04 269.05 790.01 C 269.72 784.10 261.40 783.30 257.24 784.38 M 730.26 785.28 C 727.60 787.17 728.52 791.12 728.14 793.97 C 728.73 808.49 717.92 822.13 704.07 825.86 C 696.11 827.89 686.51 826.74 681.23 819.79 C 675.09 813.80 676.34 804.79 676.06 797.05 C 662.00 806.43 650.71 820.16 644.70 836.02 C 636.87 853.86 636.65 876.35 648.45 892.52 C 656.81 902.30 670.07 908.59 683.08 906.74 C 708.45 904.31 729.83 885.97 741.27 863.95 C 744.50 857.43 747.32 850.45 747.79 843.13 C 742.67 841.67 737.86 838.65 735.32 833.77 C 734.18 832.19 736.79 832.39 737.64 832.51 C 747.49 833.77 758.36 828.65 762.48 819.37 C 765.40 812.32 763.92 802.26 756.25 798.98 C 753.77 812.94 745.09 827.85 730.08 830.69 C 723.88 833.21 715.60 831.43 712.79 824.99 C 714.22 823.34 716.88 823.74 718.86 823.16 C 732.48 821.09 743.98 809.58 746.07 796.00 C 746.80 787.89 737.32 782.75 730.26 785.28 M 238.49 797.43 C 230.51 800.78 227.01 811.63 231.77 818.95 C 237.35 828.79 249.14 832.32 259.84 831.28 C 260.14 839.13 250.71 841.87 244.38 842.58 C 249.79 872.19 273.96 897.19 302.68 905.49 C 321.23 911.21 343.58 902.89 352.37 885.27 C 359.01 869.66 358.81 851.08 351.22 835.82 C 344.99 820.78 334.43 807.16 321.19 797.91 C 322.12 806.83 319.99 816.72 312.03 821.96 C 303.85 828.32 293.13 824.62 284.55 821.20 C 283.71 828.79 274.81 832.51 268.07 830.38 C 251.94 828.46 239.73 812.81 239.47 797.04 C 239.23 797.14 238.74 797.33 238.49 797.43 M 356.53 805.20 C 357.23 808.55 359.22 811.80 361.82 814.05 C 360.56 810.90 359.73 806.94 356.53 805.20 M 460.53 863.24 C 459.32 863.76 456.86 866.37 458.65 867.23 C 459.46 866.55 463.24 863.00 460.53 863.24 M 455.80 868.97 C 454.95 871.70 453.20 874.20 450.91 871.08 C 450.69 873.21 452.90 873.98 454.32 875.03 C 454.84 873.06 457.49 870.99 455.80 868.97 M 459.59 869.16 C 458.58 869.83 458.13 870.72 458.23 871.81 C 459.98 872.85 462.28 867.75 459.59 869.16 M 438.30 878.13 C 438.51 881.45 441.26 876.59 438.30 878.13 M 436.16 880.17 C 436.80 880.79 436.80 880.79 436.16 880.17 M 444.20 881.26 C 444.83 881.78 444.83 881.78 444.20 881.26 M 290.22 923.24 C 290.79 923.80 290.79 923.80 290.22 923.24 M 704.30 923.10 C 704.43 926.44 707.20 921.53 704.30 923.10 Z" />
<path fill="#000000" opacity="1.00" d=" M 497.22 86.21 C 501.52 84.66 503.16 90.22 505.03 92.97 C 507.14 97.45 513.07 97.91 515.46 101.95 C 515.93 106.57 510.56 107.52 507.70 109.72 C 503.94 111.84 503.78 118.04 499.00 118.58 C 493.96 117.97 494.12 111.13 489.92 109.14 C 487.39 107.16 482.59 106.85 482.14 103.07 C 481.46 98.88 486.59 98.16 489.14 96.22 C 493.30 94.18 493.88 88.99 497.22 86.21 Z" />
<path fill="#000000" opacity="1.00" d=" M 564.46 99.47 C 569.86 97.45 570.88 104.41 574.35 106.71 C 576.87 108.76 581.73 109.88 581.37 113.90 C 578.79 117.87 572.15 117.86 570.74 122.99 C 569.64 125.47 566.16 129.39 563.53 126.47 C 561.37 122.80 559.24 118.91 555.07 117.18 C 551.50 116.04 550.84 111.11 554.53 109.65 C 559.22 107.68 561.18 102.81 564.46 99.47 Z" />
<path fill="#000000" opacity="1.00" d=" M 406.22 107.33 C 409.99 106.62 410.72 111.37 412.28 113.76 C 414.09 118.59 422.75 118.70 421.12 124.99 C 419.43 127.76 415.94 128.53 413.64 130.67 C 411.01 132.70 410.50 137.01 407.05 137.98 C 403.57 138.43 402.40 134.40 400.74 132.16 C 398.46 127.63 391.08 127.57 390.52 121.98 C 392.63 118.14 398.29 118.25 400.26 114.21 C 401.92 111.73 402.85 107.95 406.22 107.33 Z" />
<path fill="#000000" opacity="1.00" d=" M 682.39 158.39 C 684.89 159.04 677.85 162.13 675.68 163.06 C 677.45 160.93 679.92 159.56 682.39 158.39 Z" />
<path fill="#000000" opacity="1.00" d=" M 890.39 205.36 C 894.57 203.17 896.45 209.30 898.21 212.03 C 900.37 216.95 908.16 216.43 909.22 221.99 C 908.41 225.65 904.14 226.51 901.44 228.39 C 897.65 230.41 897.23 235.39 893.96 237.88 C 889.74 239.42 887.37 235.04 886.28 231.77 C 884.59 226.86 877.75 227.42 875.63 222.99 C 874.30 218.94 879.54 217.92 881.97 216.09 C 886.36 213.89 886.79 208.31 890.39 205.36 Z" />
<path fill="#000000" opacity="1.00" d=" M 139.12 213.23 C 142.47 213.43 137.71 216.26 139.12 213.23 Z" />
<path fill="#000000" opacity="1.00" d=" M 820.21 214.21 C 823.27 212.60 820.35 217.49 820.21 214.21 Z" />
<path fill="#000000" opacity="1.00" d=" M 576.19 255.48 C 579.45 255.71 574.74 258.55 576.19 255.48 Z" />
<path fill="#000000" opacity="1.00" d=" M 570.18 256.23 C 573.51 256.43 568.68 259.25 570.18 256.23 Z" />
<path fill="#000000" opacity="1.00" d=" M 879.43 259.46 C 881.77 258.37 884.54 260.10 885.85 262.07 C 887.37 266.26 882.43 270.20 878.56 268.54 C 874.80 266.81 875.86 260.78 879.43 259.46 Z" />
<path fill="#000000" opacity="1.00" d=" M 569.07 260.27 C 570.55 260.07 571.23 262.58 570.72 263.70 C 569.31 263.82 568.30 261.37 569.07 260.27 Z" />
<path fill="#000000" opacity="1.00" d=" M 561.94 263.44 C 565.27 263.55 560.32 266.43 561.94 263.44 Z" />
<path fill="#000000" opacity="1.00" d=" M 489.18 276.92 C 489.80 277.55 489.80 277.55 489.18 276.92 Z" />
<path fill="#000000" opacity="1.00" d=" M 493.83 279.27 C 497.19 279.41 492.27 282.30 493.83 279.27 Z" />
<path fill="#000000" opacity="1.00" d=" M 510.81 279.20 C 514.18 279.50 509.27 282.11 510.81 279.20 Z" />
<path fill="#000000" opacity="1.00" d=" M 506.09 282.23 C 509.40 282.30 504.57 285.26 506.09 282.23 Z" />
<path fill="#000000" opacity="1.00" d=" M 915.40 282.50 C 920.30 282.00 925.06 285.77 924.76 290.90 C 925.93 313.58 925.81 336.34 925.62 359.05 C 925.95 368.50 918.00 375.73 909.94 379.17 C 901.85 382.53 891.63 384.60 884.00 379.05 C 876.15 373.37 876.84 360.84 883.42 354.44 C 889.99 347.31 899.82 345.34 908.71 342.67 C 908.63 333.58 909.26 324.33 908.41 315.34 C 895.55 318.92 882.71 322.75 870.21 327.45 C 869.11 343.22 870.02 359.20 868.96 375.03 C 868.89 383.62 860.99 389.29 854.02 392.73 C 846.43 396.31 836.67 397.75 829.48 392.50 C 821.57 387.04 821.41 374.56 827.94 367.97 C 834.11 361.27 843.42 359.51 851.94 357.81 C 852.52 341.27 851.23 324.65 852.77 308.16 C 853.13 300.70 861.25 298.78 867.02 296.87 C 883.10 291.96 899.01 286.22 915.40 282.50 Z" />
<path fill="#000000" opacity="1.00" d=" M 182.39 298.81 C 184.45 300.26 184.76 303.40 186.98 304.98 C 185.87 307.06 184.96 309.35 183.28 311.05 C 181.69 308.26 185.97 307.11 185.39 304.29 C 183.27 305.16 181.51 308.26 179.01 306.66 C 176.58 306.37 182.10 301.85 178.26 303.25 C 176.26 305.17 177.63 307.86 178.00 310.14 C 174.32 308.18 177.66 300.38 172.82 305.14 C 173.53 299.10 182.56 304.93 182.39 298.81 M 181.32 304.06 C 177.70 306.35 184.87 306.00 181.32 304.06 Z" />
<path fill="#000000" opacity="1.00" d=" M 169.55 300.68 C 172.56 301.04 172.95 305.85 170.39 307.09 C 170.06 304.96 169.77 302.82 169.55 300.68 Z" />
<path fill="#000000" opacity="1.00" d=" M 194.11 300.75 C 196.96 301.16 197.31 304.60 197.83 306.91 C 194.96 306.74 195.01 302.86 194.11 300.75 Z" />
<path fill="#000000" opacity="1.00" d=" M 765.73 302.54 C 766.84 300.89 769.08 303.52 769.96 304.57 C 769.18 307.28 766.74 303.38 765.73 302.54 Z" />
<path fill="#000000" opacity="1.00" d=" M 773.95 302.75 C 776.63 300.99 774.98 307.71 778.49 304.91 C 777.26 306.28 777.03 308.04 777.05 309.82 C 774.57 308.43 774.80 305.12 773.95 302.75 Z" />
<path fill="#000000" opacity="1.00" d=" M 165.07 304.44 C 168.63 305.55 162.79 308.14 165.07 304.44 Z" />
<path fill="#000000" opacity="1.00" d=" M 769.40 307.48 C 773.50 305.93 769.09 310.51 766.99 310.02 C 766.10 308.10 768.17 308.00 769.40 307.48 Z" />
<path fill="#000000" opacity="1.00" d=" M 772.94 307.27 C 776.26 307.24 771.40 310.32 772.94 307.27 Z" />
<path fill="#000000" opacity="1.00" d=" M 779.15 307.28 C 782.49 307.40 777.57 310.34 779.15 307.28 Z" />
<path fill="#000000" opacity="1.00" d=" M 786.98 307.24 C 787.59 307.82 787.59 307.82 786.98 307.24 Z" />
<path fill="#000000" opacity="1.00" d=" M 790.11 307.43 C 794.39 307.85 788.97 312.14 790.11 307.43 Z" />
<path fill="#000000" opacity="1.00" d=" M 168.38 308.42 C 173.24 306.33 170.86 311.89 168.38 308.42 Z" />
<path fill="#000000" opacity="1.00" d=" M 204.37 308.30 C 206.24 306.38 208.45 310.05 205.15 309.39 C 202.58 309.19 205.49 311.28 206.08 311.93 C 204.35 312.10 202.61 312.26 200.88 312.42 C 200.86 310.35 202.79 309.21 204.37 308.30 Z" />
<path fill="#000000" opacity="1.00" d=" M 757.94 308.32 C 759.08 312.20 761.91 307.16 757.94 308.32 Z" />
<path fill="#000000" opacity="1.00" d=" M 180.32 309.19 C 182.06 308.47 182.57 311.68 182.55 312.88 C 180.83 313.33 179.13 310.59 180.32 309.19 Z" />
<path fill="#000000" opacity="1.00" d=" M 174.05 310.37 C 177.40 310.37 172.47 313.41 174.05 310.37 Z" />
<path fill="#000000" opacity="1.00" d=" M 221.57 310.25 C 224.47 312.65 216.77 313.35 221.57 310.25 Z" />
<path fill="#000000" opacity="1.00" d=" M 769.95 310.02 C 773.07 308.50 770.16 313.25 769.95 310.02 Z" />
<path fill="#000000" opacity="1.00" d=" M 774.10 310.35 C 778.44 311.03 773.11 314.98 774.10 310.35 Z" />
<path fill="#000000" opacity="1.00" d=" M 788.18 310.29 C 791.18 308.70 788.35 313.64 788.18 310.29 Z" />
<path fill="#000000" opacity="1.00" d=" M 170.26 311.15 C 173.08 309.45 170.66 314.52 170.26 311.15 Z" />
<path fill="#000000" opacity="1.00" d=" M 177.14 311.19 C 181.16 309.97 175.79 315.23 177.14 311.19 Z" />
<path fill="#000000" opacity="1.00" d=" M 207.23 311.21 C 210.26 309.70 207.33 314.57 207.23 311.21 Z" />
<path fill="#000000" opacity="1.00" d=" M 737.59 311.07 C 738.92 310.12 740.32 312.58 739.77 313.72 C 738.50 314.18 736.92 312.26 737.59 311.07 Z" />
<path fill="#000000" opacity="1.00" d=" M 764.21 310.89 C 765.42 311.38 765.41 314.39 764.17 314.93 C 762.55 314.30 762.80 311.63 764.21 310.89 Z" />
<path fill="#000000" opacity="1.00" d=" M 223.11 312.14 C 226.08 310.56 223.24 315.53 223.11 312.14 Z" />
<path fill="#000000" opacity="1.00" d=" M 766.60 311.82 C 769.23 312.43 770.27 315.39 771.77 317.34 C 768.43 318.77 768.43 313.49 766.60 311.82 Z" />
<path fill="#000000" opacity="1.00" d=" M 759.97 313.27 C 764.02 312.88 759.34 317.20 759.97 313.27 Z" />
<path fill="#000000" opacity="1.00" d=" M 772.22 312.95 C 776.11 312.54 771.92 317.02 772.22 312.95 Z" />
<path fill="#000000" opacity="1.00" d=" M 188.41 314.18 C 191.36 312.62 188.62 317.53 188.41 314.18 Z" />
<path fill="#000000" opacity="1.00" d=" M 202.19 314.33 C 206.17 312.83 200.82 318.50 202.19 314.33 Z" />
<path fill="#000000" opacity="1.00" d=" M 224.99 314.40 C 228.33 314.49 223.44 317.40 224.99 314.40 Z" />
<path fill="#000000" opacity="1.00" d=" M 229.32 314.47 C 230.56 314.33 231.81 314.27 233.07 314.30 C 232.19 316.78 224.52 316.07 229.32 314.47 Z" />
<path fill="#000000" opacity="1.00" d=" M 191.36 315.14 C 191.94 315.77 191.94 315.77 191.36 315.14 Z" />
<path fill="#000000" opacity="1.00" d=" M 194.39 314.97 C 196.92 313.80 195.32 318.59 193.43 317.81 C 193.24 316.75 193.56 315.80 194.39 314.97 Z" />
<path fill="#000000" opacity="1.00" d=" M 198.22 315.44 C 201.58 315.53 196.72 318.46 198.22 315.44 Z" />
<path fill="#000000" opacity="1.00" d=" M 218.29 315.17 C 220.60 314.01 217.15 320.56 214.94 321.36 C 216.25 319.42 216.64 316.81 218.29 315.17 Z" />
<path fill="#000000" opacity="1.00" d=" M 221.33 314.87 C 223.99 314.00 221.77 318.36 220.19 317.68 C 219.90 316.53 220.28 315.59 221.33 314.87 Z" />
<path fill="#000000" opacity="1.00" d=" M 751.35 315.38 C 754.22 314.15 755.86 318.42 758.64 319.04 C 756.55 324.40 752.84 312.15 751.85 318.08 C 751.54 320.47 749.51 315.96 751.35 315.38 Z" />
<path fill="#000000" opacity="1.00" d=" M 176.46 316.16 C 180.59 315.81 176.04 319.99 176.46 316.16 Z" />
<path fill="#000000" opacity="1.00" d=" M 188.37 317.20 C 189.64 316.68 191.40 318.40 190.73 319.68 C 189.47 320.46 187.78 318.38 188.37 317.20 Z" />
<path fill="#000000" opacity="1.00" d=" M 226.26 317.29 C 229.61 317.55 224.68 320.21 226.26 317.29 Z" />
<path fill="#000000" opacity="1.00" d=" M 230.30 317.16 C 232.78 316.31 231.39 319.94 229.73 319.77 C 228.34 319.44 229.35 317.43 230.30 317.16 Z" />
<path fill="#000000" opacity="1.00" d=" M 206.10 318.51 C 209.41 318.72 204.70 321.55 206.10 318.51 Z" />
<path fill="#000000" opacity="1.00" d=" M 222.69 318.30 C 225.16 317.28 222.90 321.53 221.75 321.82 C 220.15 321.16 221.66 318.86 222.69 318.30 Z" />
<path fill="#000000" opacity="1.00" d=" M 741.07 318.32 C 744.42 318.48 739.51 321.33 741.07 318.32 Z" />
<path fill="#000000" opacity="1.00" d=" M 764.15 318.12 C 767.35 320.29 760.51 320.31 764.15 318.12 Z" />
<path fill="#000000" opacity="1.00" d=" M 199.32 319.04 C 199.96 319.67 199.96 319.67 199.32 319.04 Z" />
<path fill="#000000" opacity="1.00" d=" M 210.14 319.23 C 213.45 319.29 208.63 322.27 210.14 319.23 Z" />
<path fill="#000000" opacity="1.00" d=" M 747.08 318.92 C 751.55 318.09 746.28 323.67 747.08 318.92 Z" />
<path fill="#000000" opacity="1.00" d=" M 767.27 319.17 C 770.60 319.46 765.67 322.09 767.27 319.17 Z" />
<path fill="#000000" opacity="1.00" d=" M 95.24 320.35 C 99.52 318.69 104.92 322.26 104.64 326.93 C 104.63 331.89 97.78 336.36 94.03 331.96 C 89.97 329.03 90.54 322.25 95.24 320.35 Z" />
<path fill="#000000" opacity="1.00" d=" M 225.16 320.22 C 228.52 320.37 223.60 323.23 225.16 320.22 Z" />
<path fill="#000000" opacity="1.00" d=" M 201.08 321.33 C 201.72 321.96 201.72 321.96 201.08 321.33 Z" />
<path fill="#000000" opacity="1.00" d=" M 204.20 321.16 C 204.79 321.77 204.79 321.77 204.20 321.16 Z" />
<path fill="#000000" opacity="1.00" d=" M 218.95 321.27 C 220.31 321.43 221.73 323.63 221.51 324.99 C 219.56 326.16 218.23 322.70 218.95 321.27 Z" />
<path fill="#000000" opacity="1.00" d=" M 227.54 320.89 C 231.34 320.05 226.84 325.09 227.54 320.89 Z" />
<path fill="#000000" opacity="1.00" d=" M 212.15 322.22 C 215.48 322.49 210.59 325.16 212.15 322.22 Z" />
<path fill="#000000" opacity="1.00" d=" M 216.14 322.33 C 217.57 321.54 218.41 324.09 217.69 325.07 C 216.25 325.98 215.17 323.29 216.14 322.33 Z" />
<path fill="#000000" opacity="1.00" d=" M 197.20 323.20 C 200.57 323.49 195.58 326.09 197.20 323.20 Z" />
<path fill="#000000" opacity="1.00" d=" M 193.35 324.26 C 193.99 324.88 193.99 324.88 193.35 324.26 Z" />
<path fill="#000000" opacity="1.00" d=" M 207.21 324.27 C 210.57 324.61 205.63 327.14 207.21 324.27 Z" />
<path fill="#000000" opacity="1.00" d=" M 226.31 324.22 C 226.95 324.84 226.95 324.84 226.31 324.22 Z" />
<path fill="#000000" opacity="1.00" d=" M 745.16 325.22 C 745.80 325.86 745.80 325.86 745.16 325.22 Z" />
<path fill="#000000" opacity="1.00" d=" M 225.15 327.22 C 228.53 327.53 223.57 330.08 225.15 327.22 Z" />
<path fill="#000000" opacity="1.00" d=" M 228.24 327.06 C 228.88 327.69 228.88 327.69 228.24 327.06 Z" />
<path fill="#000000" opacity="1.00" d=" M 747.29 327.17 C 747.91 327.80 747.91 327.80 747.29 327.17 Z" />
<path fill="#000000" opacity="1.00" d=" M 210.42 328.30 C 213.58 329.65 207.98 332.36 210.42 328.30 Z" />
<path fill="#000000" opacity="1.00" d=" M 224.12 331.10 C 227.26 334.01 220.39 334.24 224.12 331.10 Z" />
<path fill="#000000" opacity="1.00" d=" M 745.23 331.98 C 748.20 330.49 745.43 335.31 745.23 331.98 Z" />
<path fill="#000000" opacity="1.00" d=" M 129.27 350.35 C 133.11 348.39 138.42 351.78 138.05 356.10 C 137.13 359.86 132.22 362.95 128.75 360.33 C 124.99 358.33 125.29 351.93 129.27 350.35 Z" />
<path fill="#000000" opacity="1.00" d=" M 97.48 374.50 C 100.26 373.17 103.52 374.52 105.10 377.01 C 108.95 382.38 109.29 389.34 111.84 395.19 C 116.10 396.94 120.67 398.00 124.71 400.31 C 136.42 406.16 143.19 419.14 143.38 431.93 C 142.58 437.96 133.31 440.41 130.51 434.51 C 126.82 427.03 125.19 415.06 115.08 413.93 C 116.65 429.07 121.11 443.87 123.03 459.01 C 124.30 468.58 127.32 479.13 122.20 488.10 C 115.35 500.02 100.21 504.52 87.22 502.61 C 76.97 500.33 70.40 488.76 73.55 478.75 C 77.21 464.53 91.56 456.93 105.17 455.18 C 101.01 431.38 95.34 407.84 91.64 383.95 C 90.74 379.74 93.37 375.61 97.48 374.50 Z" />
<path fill="#000000" opacity="1.00" d=" M 170.20 375.28 C 174.24 374.94 174.81 380.40 177.70 382.27 C 179.89 384.00 184.98 387.22 180.85 389.82 C 176.29 391.55 174.35 396.89 170.24 398.67 C 166.37 395.74 163.33 391.64 159.47 388.59 C 157.51 385.87 160.90 383.96 162.85 382.76 C 166.12 381.09 166.70 376.54 170.20 375.28 Z" />
<path fill="#000000" opacity="1.00" d=" M 357.30 385.44 C 368.58 384.64 380.31 384.68 391.01 388.81 C 404.85 394.29 417.50 403.85 425.46 416.53 C 429.15 421.79 426.62 429.39 420.68 431.60 C 414.84 433.29 410.53 427.78 406.51 424.50 C 386.17 405.19 351.13 403.22 329.61 421.67 C 325.58 425.01 320.22 429.38 314.78 426.32 C 308.13 423.48 308.29 414.43 312.68 409.65 C 323.44 396.12 340.02 386.90 357.30 385.44 Z" />
<path fill="#000000" opacity="1.00" d=" M 618.32 385.45 C 642.02 382.24 667.29 392.28 681.04 412.04 C 685.99 418.89 679.20 429.24 671.04 427.24 C 661.08 421.71 652.51 412.95 640.93 410.70 C 632.37 409.22 623.59 409.56 614.96 410.05 C 601.67 411.98 591.07 420.91 581.14 429.23 C 577.52 432.58 571.66 432.49 568.51 428.55 C 564.37 424.06 566.83 417.43 569.86 413.06 C 581.04 397.47 599.04 386.70 618.32 385.45 Z" />
<path fill="#000000" opacity="1.00" d=" M 795.09 390.12 C 798.69 387.93 804.08 391.55 803.65 395.64 C 802.74 397.54 801.05 399.12 799.05 399.80 C 794.08 400.83 790.00 392.68 795.09 390.12 Z" />
<path fill="#000000" opacity="1.00" d=" M 492.31 418.45 C 504.77 416.69 518.71 418.97 528.13 427.87 C 533.46 433.55 537.15 442.26 533.69 449.83 C 528.87 460.80 517.54 467.77 506.01 469.72 C 503.65 469.75 505.10 472.55 505.34 473.81 C 512.09 495.44 540.85 506.09 560.09 494.20 C 568.25 489.70 572.61 478.87 568.66 470.19 C 566.83 466.96 570.06 462.18 573.66 462.49 C 579.83 463.77 582.89 470.37 584.03 475.99 C 586.08 490.35 575.93 504.50 562.81 509.69 C 558.49 511.87 553.25 512.28 549.41 515.32 C 547.75 527.57 542.65 539.93 532.50 547.55 C 520.85 557.50 504.72 559.42 489.99 557.98 C 473.69 555.84 458.25 544.84 452.91 528.98 C 450.84 524.24 450.20 519.10 448.93 514.16 C 437.04 511.74 425.06 506.16 418.36 495.56 C 412.89 486.97 412.87 475.01 418.37 466.44 C 420.67 462.45 427.44 460.54 430.20 465.04 C 432.34 468.64 428.85 471.89 427.61 475.06 C 427.10 483.69 432.26 492.24 440.21 495.70 C 456.83 503.47 477.93 497.28 489.20 483.17 C 491.94 479.49 495.38 475.04 494.68 470.28 C 486.32 468.47 477.96 465.34 471.65 459.36 C 464.83 452.70 462.08 441.34 467.24 432.91 C 472.51 424.23 482.66 420.01 492.31 418.45 M 494.26 426.43 C 489.58 427.25 484.65 428.76 481.30 432.31 C 487.36 439.09 497.90 436.35 506.00 436.43 C 509.49 435.95 516.93 436.40 516.59 431.44 C 511.14 425.38 501.74 425.66 494.26 426.43 M 503.42 500.24 C 503.51 510.83 503.67 521.42 503.99 532.01 C 504.03 534.62 504.30 537.84 507.03 539.09 C 513.56 542.45 522.20 537.86 524.03 530.97 C 525.90 524.88 527.00 518.48 526.70 512.10 C 520.42 509.86 513.78 508.02 508.89 503.18 C 507.28 502.44 503.78 498.10 503.42 500.24 M 495.32 502.36 C 488.25 505.34 481.67 509.54 474.17 511.42 C 470.93 511.92 472.10 515.82 472.26 518.07 C 473.56 524.96 474.08 533.17 479.97 537.90 C 484.82 541.58 494.70 541.46 495.73 534.06 C 496.02 523.73 496.67 511.68 495.32 502.36 Z" />
<path fill="#000000" opacity="1.00" d=" M 820.15 424.32 C 822.90 423.31 825.39 425.85 826.82 427.94 C 830.75 432.92 822.41 441.45 817.79 436.26 C 812.97 433.03 815.21 426.03 820.15 424.32 Z" />
<path fill="#000000" opacity="1.00" d=" M 877.41 441.44 C 883.32 438.28 891.64 443.09 891.06 450.00 C 891.80 454.81 888.01 458.64 887.83 463.22 C 891.61 462.08 894.86 459.32 898.94 459.17 C 905.06 458.49 911.60 464.32 910.55 470.62 C 909.13 475.48 904.28 479.97 898.91 478.84 C 894.87 478.83 891.76 475.03 887.70 475.70 C 891.66 481.03 893.57 489.02 888.24 494.22 C 883.96 499.88 874.82 497.15 872.69 490.92 C 869.91 485.71 873.64 480.55 875.11 475.62 C 871.39 476.32 868.37 478.98 864.59 479.48 C 859.93 480.16 855.34 477.07 853.24 473.05 C 850.45 467.53 854.81 460.31 860.80 459.59 C 866.20 458.60 870.93 462.07 876.06 463.01 C 872.05 456.50 868.73 445.80 877.41 441.44 M 879.27 463.35 C 875.79 464.60 874.06 469.50 876.66 472.37 C 879.92 475.57 888.41 475.19 887.37 468.99 C 888.51 464.15 883.17 461.76 879.27 463.35 Z" />
<path fill="#000000" opacity="1.00" d=" M 108.36 536.45 C 114.11 535.71 119.68 541.23 118.68 547.03 C 118.99 550.78 116.24 553.80 115.79 557.33 C 120.58 557.17 124.89 552.98 130.02 554.36 C 138.02 555.10 141.33 567.17 134.62 571.69 C 128.98 576.03 121.45 572.96 115.91 570.01 C 116.06 573.98 119.44 577.01 119.52 581.04 C 119.85 588.25 111.27 594.60 104.74 590.34 C 97.97 585.80 99.86 576.32 102.98 570.10 C 99.02 570.19 96.23 574.22 92.05 573.70 C 86.14 574.95 80.15 570.05 80.38 564.00 C 80.14 558.77 84.88 554.30 90.02 554.34 C 94.63 553.87 98.37 557.22 102.77 557.81 C 103.37 554.60 100.35 552.19 100.04 549.08 C 98.70 543.55 102.67 537.28 108.36 536.45 M 107.36 558.43 C 100.22 560.54 102.99 570.92 110.06 569.87 C 118.11 568.91 115.65 554.56 107.36 558.43 Z" />
<path fill="#000000" opacity="1.00" d=" M 159.41 593.48 C 163.89 591.78 169.47 596.02 167.68 600.85 C 166.46 605.59 160.06 606.61 157.06 602.94 C 153.25 600.43 155.80 594.66 159.41 593.48 Z" />
<path fill="#000000" opacity="1.00" d=" M 148.34 631.46 C 162.69 630.73 177.63 634.88 188.51 644.50 C 200.62 655.25 205.70 672.22 204.95 688.03 C 204.94 693.28 201.26 698.26 196.02 699.28 C 191.68 698.74 188.88 694.48 187.45 690.70 C 183.36 676.68 170.09 664.57 154.98 664.94 C 144.54 663.80 135.19 669.91 127.37 676.09 C 139.98 695.55 153.76 714.27 165.79 734.11 C 171.05 742.06 171.05 752.16 169.40 761.21 C 164.65 774.10 151.41 782.40 138.22 784.40 C 128.70 786.02 117.87 781.32 114.23 772.02 C 109.11 761.48 114.43 748.97 122.72 741.73 C 128.72 736.01 136.68 733.34 144.49 731.19 C 129.03 707.83 112.52 685.15 96.84 661.95 C 93.05 656.44 98.02 649.34 103.93 648.36 C 111.54 646.88 117.25 641.35 124.00 638.00 C 131.46 633.95 139.85 631.69 148.34 631.46 M 147.35 645.48 C 135.93 646.09 126.01 652.53 116.98 658.99 C 114.61 660.42 117.80 662.50 118.98 663.53 C 127.43 659.05 135.24 652.84 144.90 651.11 C 157.86 648.05 171.16 652.30 182.28 658.93 C 174.20 648.26 160.25 644.27 147.35 645.48 Z" />
<path fill="#000000" opacity="1.00" d=" M 261.27 643.27 C 264.11 641.32 266.82 644.37 262.20 644.28 C 265.20 647.25 268.36 651.55 267.22 655.94 C 262.50 661.05 259.57 667.24 254.83 672.38 C 258.76 670.97 261.83 667.66 266.07 667.04 C 264.14 669.01 261.12 671.31 265.90 671.10 C 264.53 673.33 266.61 674.71 267.72 676.45 C 269.60 675.16 271.71 674.23 274.03 674.28 C 271.64 677.13 267.74 678.18 264.69 680.23 C 265.50 679.08 266.37 677.98 267.16 676.83 C 265.18 676.92 263.43 679.90 262.01 677.20 C 260.78 679.10 261.64 681.04 264.14 680.44 C 262.88 681.56 261.54 682.63 260.71 684.13 C 262.13 683.86 263.53 683.45 264.93 683.07 C 264.54 684.27 262.87 686.70 265.28 685.28 C 268.23 686.05 266.43 693.60 270.79 692.12 C 269.27 689.28 272.54 690.33 274.22 690.24 C 268.95 693.90 263.30 698.36 261.95 705.01 C 261.83 706.74 264.73 707.03 264.08 708.96 C 263.43 715.64 262.77 722.32 262.64 729.04 C 262.83 735.88 254.49 741.81 248.62 737.26 C 247.37 732.50 245.23 728.08 245.20 723.09 C 242.91 720.59 240.34 717.60 240.66 713.90 C 241.08 702.87 241.28 691.49 245.06 681.00 C 247.76 676.38 252.61 671.09 250.54 665.57 C 253.37 657.92 255.41 649.14 261.27 643.27 Z" />
<path fill="#000000" opacity="1.00" d=" M 277.19 689.22 C 277.77 689.81 277.77 689.81 277.19 689.22 Z" />
<path fill="#000000" opacity="1.00" d=" M 688.05 697.14 C 691.24 699.48 684.40 699.22 688.05 697.14 Z" />
<path fill="#000000" opacity="1.00" d=" M 686.25 701.27 C 689.58 701.44 684.67 704.28 686.25 701.27 Z" />
<path fill="#000000" opacity="1.00" d=" M 899.07 704.26 C 902.30 703.04 905.45 705.49 907.16 708.05 C 909.45 712.82 903.41 720.54 898.42 716.65 C 893.36 714.31 893.95 706.12 899.07 704.26 Z" />
<path fill="#000000" opacity="1.00" d=" M 242.29 722.31 C 245.79 724.91 238.48 725.25 242.29 722.31 Z" />
<path fill="#000000" opacity="1.00" d=" M 859.26 725.37 C 863.74 724.57 868.78 727.70 869.61 732.27 C 870.07 737.84 867.96 743.18 867.28 748.64 C 874.54 756.70 885.13 764.09 885.49 776.01 C 885.19 783.40 885.89 792.44 879.94 797.91 C 875.29 802.14 867.26 796.87 869.30 790.90 C 870.92 783.06 871.96 772.60 863.92 767.93 C 858.07 787.67 858.91 809.10 851.44 828.42 C 841.98 847.45 810.48 844.25 803.40 824.73 C 797.76 810.04 811.07 793.99 826.10 793.65 C 831.24 792.50 836.56 795.04 841.44 794.46 C 845.61 774.38 848.45 754.05 852.31 733.92 C 852.80 730.05 855.10 726.05 859.26 725.37 Z" />
<path fill="#000000" opacity="1.00" d=" M 242.54 726.94 C 244.50 726.38 243.93 730.75 243.63 732.05 C 242.07 731.43 241.88 728.41 242.54 726.94 Z" />
<path fill="#000000" opacity="1.00" d=" M 244.19 733.12 C 244.75 733.75 244.75 733.75 244.19 733.12 Z" />
<path fill="#000000" opacity="1.00" d=" M 805.35 739.38 C 808.57 738.97 809.72 742.77 811.08 744.97 C 812.28 748.48 818.12 747.81 818.10 752.03 C 817.48 756.08 812.04 755.90 810.28 759.24 C 808.88 761.31 806.24 764.73 803.59 762.36 C 801.18 759.05 798.10 756.46 794.70 754.24 C 791.76 751.28 796.14 748.90 798.15 747.15 C 801.11 745.08 801.76 740.56 805.35 739.38 Z" />
<path fill="#000000" opacity="1.00" d=" M 157.11 812.24 C 160.36 810.92 161.87 814.69 163.27 816.85 C 165.20 820.35 169.95 821.20 171.49 824.98 C 171.17 828.14 167.68 829.00 165.46 830.54 C 162.23 832.10 162.03 837.55 157.98 837.67 C 154.20 836.10 153.43 831.02 149.55 829.40 C 146.99 828.32 143.28 825.19 146.70 822.70 C 151.17 820.16 153.64 815.62 157.11 812.24 Z" />
<path fill="#000000" opacity="1.00" d=" M 497.55 834.49 C 499.35 835.07 494.12 838.57 492.02 839.02 C 492.79 836.50 495.67 835.94 497.55 834.49 Z" />
<path fill="#000000" opacity="1.00" d=" M 484.36 840.85 C 487.09 840.95 483.09 844.30 485.89 845.71 C 479.28 844.48 484.77 847.82 486.04 850.87 C 480.45 849.48 480.17 844.11 484.36 840.85 Z" />
<path fill="#000000" opacity="1.00" d=" M 697.37 841.47 C 711.03 840.84 723.00 854.27 721.56 867.70 C 719.56 881.73 706.29 893.11 692.01 892.37 C 683.82 893.41 677.00 887.44 672.95 880.98 C 666.35 864.01 679.57 843.48 697.37 841.47 Z" />
<path fill="#000000" opacity="1.00" d=" M 290.28 842.40 C 312.74 835.72 334.11 864.98 321.31 884.34 C 308.96 899.54 282.46 891.41 276.70 873.94 C 271.78 862.10 278.06 846.71 290.28 842.40 Z" />
<path fill="#000000" opacity="1.00" d=" M 490.24 846.41 C 493.57 846.37 488.75 849.44 490.24 846.41 Z" />
<path fill="#000000" opacity="1.00" d=" M 476.49 849.22 C 479.54 848.37 477.30 853.59 475.20 852.77 C 474.99 851.52 475.76 850.17 476.49 849.22 Z" />
<path fill="#000000" opacity="1.00" d=" M 488.26 849.14 C 491.61 849.31 486.65 852.13 488.26 849.14 Z" />
<path fill="#000000" opacity="1.00" d=" M 482.33 852.21 C 485.36 850.67 482.42 855.56 482.33 852.21 Z" />
<path fill="#000000" opacity="1.00" d=" M 486.13 852.24 C 489.11 850.64 486.31 855.60 486.13 852.24 Z" />
<path fill="#000000" opacity="1.00" d=" M 473.32 854.37 C 474.28 854.85 474.68 857.78 475.41 859.15 C 474.53 858.46 471.01 855.84 472.06 858.93 C 472.72 860.38 476.03 864.23 473.21 864.47 C 472.19 860.38 467.85 857.03 473.32 854.37 Z" />
<path fill="#000000" opacity="1.00" d=" M 477.26 854.32 C 480.53 856.51 473.53 856.43 477.26 854.32 Z" />
<path fill="#000000" opacity="1.00" d=" M 480.33 854.89 C 483.36 853.45 480.23 858.27 480.33 854.89 Z" />
<path fill="#000000" opacity="1.00" d=" M 479.22 857.90 C 482.22 856.41 479.42 861.23 479.22 857.90 Z" />
<path fill="#000000" opacity="1.00" d=" M 466.00 861.91 C 467.71 862.72 470.43 865.96 467.41 866.76 C 466.92 865.22 465.14 863.54 466.00 861.91 Z" />
<path fill="#000000" opacity="1.00" d=" M 464.01 865.25 C 467.37 865.35 462.43 868.28 464.01 865.25 Z" />
<path fill="#000000" opacity="1.00" d=" M 465.24 868.01 C 468.27 866.37 465.26 871.36 465.24 868.01 Z" />
<path fill="#000000" opacity="1.00" d=" M 467.19 870.15 C 468.52 868.73 470.54 871.11 469.81 872.47 C 468.63 872.72 466.12 871.62 467.19 870.15 Z" />
<path fill="#000000" opacity="1.00" d=" M 458.03 874.27 C 461.44 874.14 456.45 877.30 458.03 874.27 Z" />
<path fill="#000000" opacity="1.00" d=" M 464.97 874.45 C 468.44 875.67 462.72 878.25 464.97 874.45 Z" />
<path fill="#000000" opacity="1.00" d=" M 461.42 875.30 C 462.04 875.91 462.04 875.91 461.42 875.30 Z" />
<path fill="#000000" opacity="1.00" d=" M 215.01 903.29 C 218.33 903.43 213.54 906.27 215.01 903.29 Z" />
<path fill="#000000" opacity="1.00" d=" M 125.42 913.46 C 128.72 911.76 133.31 915.23 132.35 918.85 C 131.19 920.80 129.44 922.91 127.01 923.12 C 122.64 922.22 120.54 915.27 125.42 913.46 Z" />
<path fill="#000000" opacity="1.00" d=" M 866.43 913.44 C 873.14 909.96 875.12 923.11 868.00 922.27 C 862.46 923.23 861.73 914.84 866.43 913.44 Z" />
<path fill="#000000" opacity="1.00" d=" M 171.38 934.45 C 338.24 934.30 505.12 934.38 671.99 934.44 C 723.01 934.66 774.03 934.39 825.04 935.22 C 830.23 933.91 829.88 943.42 825.09 942.70 C 807.39 943.51 789.66 943.31 771.94 943.50 C 602.96 943.84 433.97 943.71 264.99 943.55 C 233.99 943.27 202.95 943.91 171.97 942.59 C 166.92 942.16 167.70 936.36 171.38 934.45 Z" />
</g>
</svg>
