<?xml version="1.0" encoding="UTF-8" ?>
<!DOCTYPE svg PUBLIC "-//W3C//DTD SVG 1.1//EN" "http://www.w3.org/Graphics/SVG/1.1/DTD/svg11.dtd">
<svg width="1024pt" height="1024pt" viewBox="0 0 1024 1024" version="1.1" xmlns="http://www.w3.org/2000/svg">
<g id="#000000ff">
<path fill="#000000" opacity="1.00" d=" M 280.70 0.00 L 325.19 0.00 C 349.82 7.93 369.35 25.86 386.22 44.80 C 407.55 68.27 423.37 96.20 435.65 125.30 C 446.33 150.24 452.30 177.01 454.32 204.02 C 454.58 211.32 464.72 208.15 468.75 205.77 C 474.24 197.82 478.41 188.31 487.16 183.20 C 491.03 180.82 496.09 178.57 500.55 180.50 C 503.24 184.00 501.85 188.88 502.32 192.98 C 511.20 184.84 523.18 180.74 535.06 179.84 C 540.95 179.31 548.06 181.42 550.67 187.19 C 551.93 193.51 548.70 199.50 546.16 205.08 C 553.64 207.28 561.56 207.53 569.22 208.99 C 570.26 206.14 570.39 203.07 570.62 200.08 C 571.47 180.61 576.07 161.49 582.24 143.07 C 593.64 109.98 610.67 78.81 632.58 51.51 C 650.28 29.71 671.52 9.12 698.70 0.00 L 743.13 0.00 C 767.21 8.62 785.57 28.25 798.05 50.01 C 814.30 78.50 825.38 109.84 831.67 142.00 C 834.05 157.85 834.46 173.95 834.13 189.95 C 833.60 212.27 817.48 234.01 795.08 238.05 C 802.90 250.03 810.22 263.26 810.83 277.93 C 812.08 295.65 809.77 314.49 799.29 329.35 C 790.91 340.60 780.38 350.75 767.31 356.32 C 765.34 357.68 760.42 358.47 762.30 361.73 C 770.22 380.82 770.67 401.77 773.70 421.94 C 775.16 431.48 777.48 441.50 784.18 448.84 C 787.53 452.99 792.50 455.59 795.45 460.09 C 792.78 463.93 787.49 462.18 783.59 462.78 C 783.87 465.71 786.74 467.36 788.65 469.27 C 799.33 478.20 807.81 489.49 814.21 501.80 C 838.58 503.12 863.46 502.63 887.03 510.02 C 891.87 511.88 898.41 512.16 901.35 516.95 C 893.61 518.24 885.82 516.13 878.13 515.29 C 858.91 513.33 839.17 510.79 820.00 513.88 C 821.18 519.90 822.68 525.87 824.41 531.75 C 851.53 537.15 878.64 544.71 903.00 558.13 C 906.13 560.28 911.12 562.27 910.90 566.78 C 907.24 566.23 903.80 564.80 900.36 563.50 C 882.72 556.37 864.43 550.99 846.00 546.35 C 839.66 544.97 833.35 542.99 826.82 542.98 C 825.87 548.19 825.64 553.61 826.20 558.88 C 827.44 561.67 830.77 562.43 833.34 563.52 C 851.55 569.42 868.68 578.22 885.01 588.12 C 890.20 591.46 895.60 594.68 899.93 599.14 C 902.61 601.21 898.18 604.90 896.07 602.78 C 877.61 592.06 858.05 583.29 838.08 575.79 C 833.54 574.29 829.05 572.21 824.22 572.02 C 821.55 576.37 821.20 581.62 819.44 586.34 C 810.88 611.32 794.13 633.01 773.49 649.25 C 786.50 683.62 796.40 719.10 805.45 754.69 C 814.56 790.55 820.41 827.89 816.25 864.89 C 812.51 892.67 800.75 919.82 781.05 940.01 C 779.70 941.60 777.84 942.93 777.07 944.90 C 784.36 949.88 791.09 956.45 793.92 965.03 C 795.83 970.66 793.92 976.61 794.58 982.38 C 804.95 984.91 815.92 985.13 825.99 988.96 C 828.38 989.59 831.04 992.53 828.84 994.83 C 824.14 1000.97 815.56 1000.35 809.28 1003.86 C 808.51 1000.35 805.24 1003.71 803.04 1003.66 C 786.24 1005.66 769.71 1009.43 752.88 1011.21 C 698.65 1018.77 643.72 1018.65 589.29 1024.00 L 440.78 1024.00 C 415.02 1020.43 388.86 1020.75 362.93 1018.87 C 351.29 1017.69 339.41 1019.09 327.94 1016.53 C 286.74 1014.33 245.89 1007.85 205.34 1000.54 C 200.49 1000.00 191.04 996.18 195.11 990.10 C 206.05 985.46 218.01 983.43 229.83 982.54 C 231.29 977.50 229.09 971.91 230.53 966.72 C 231.99 957.07 239.26 949.99 247.11 944.97 C 230.56 927.34 217.58 905.84 211.64 882.23 C 204.87 856.51 205.84 829.48 209.51 803.36 C 217.62 750.76 233.21 699.55 250.91 649.49 C 225.10 631.03 207.29 602.46 200.32 571.67 C 192.92 572.55 185.95 575.36 179.01 577.92 C 161.98 584.55 145.28 592.14 129.62 601.60 C 127.64 602.83 123.44 604.35 122.93 600.89 C 123.82 597.84 126.80 596.10 129.13 594.22 C 150.18 579.15 174.02 568.35 198.54 560.32 C 199.00 554.54 198.79 548.71 198.66 542.92 C 169.96 545.57 142.48 555.63 115.90 566.21 C 111.54 567.20 113.21 562.05 115.93 561.12 C 141.08 544.96 170.55 537.16 199.66 531.86 C 201.01 525.41 203.47 518.93 203.86 512.42 C 178.85 510.74 153.79 514.20 129.08 517.84 C 126.95 517.88 123.67 518.80 123.22 515.82 C 125.36 513.33 128.81 512.76 131.74 511.63 C 155.65 503.72 181.04 502.80 206.00 502.07 C 209.50 502.46 210.40 498.31 212.23 496.16 C 219.79 483.46 230.91 473.59 241.34 463.35 C 237.00 461.70 231.63 461.77 228.25 458.24 C 231.70 454.89 236.63 453.48 239.74 449.70 C 247.66 440.86 249.74 428.61 251.42 417.27 C 253.27 400.63 255.29 383.83 260.89 367.96 C 261.66 365.35 262.96 362.80 262.99 360.04 C 260.02 357.46 256.24 356.06 252.83 354.17 C 233.74 344.85 220.26 326.20 214.66 306.02 C 212.05 288.75 212.31 270.18 220.18 254.21 C 222.97 248.24 227.15 243.12 230.57 237.53 C 205.37 236.56 189.87 210.09 190.05 187.02 C 188.33 139.48 202.73 92.19 226.22 51.17 C 238.96 29.46 256.26 8.66 280.70 0.00 M 291.40 14.53 C 276.66 17.64 264.72 28.09 255.30 39.36 C 237.64 60.99 225.89 86.86 217.44 113.30 C 211.74 132.04 207.39 151.35 206.39 170.96 C 205.97 182.40 206.98 194.35 212.37 204.65 C 215.66 211.07 221.56 216.68 228.93 217.72 C 237.98 218.98 247.02 214.61 253.17 208.16 C 262.54 198.47 268.39 186.12 274.27 174.17 C 288.45 145.17 296.68 113.83 306.39 83.19 C 309.49 74.49 311.70 65.01 317.80 57.82 C 321.11 54.67 325.09 50.49 330.07 51.23 C 327.37 53.76 323.35 54.78 321.41 58.10 C 325.61 57.41 329.71 54.52 334.07 56.12 C 342.67 58.57 353.27 62.72 354.01 73.10 C 347.46 66.45 338.34 62.89 329.05 62.74 C 336.40 67.28 344.61 70.87 350.75 77.26 C 370.47 96.07 383.66 120.47 395.25 144.84 C 401.71 162.09 408.33 179.44 413.86 196.91 C 413.33 199.86 412.97 208.79 417.67 204.33 C 417.45 207.82 420.41 209.19 423.11 210.37 C 426.48 209.04 422.14 207.08 423.08 205.49 C 425.78 203.73 423.79 202.41 421.38 202.47 C 423.42 200.51 425.69 203.06 427.90 203.41 C 425.67 199.10 432.30 202.26 428.90 197.84 C 432.22 198.82 433.06 206.17 428.01 204.35 C 429.05 206.59 432.32 206.67 433.08 209.13 C 430.24 208.01 427.86 205.97 424.95 205.03 C 424.75 208.71 431.73 208.68 430.10 212.93 C 429.31 216.87 425.08 212.97 422.73 212.61 C 423.39 216.56 428.25 216.69 431.01 218.65 C 433.97 220.63 431.05 216.68 431.05 215.62 C 433.53 214.70 434.31 218.60 436.70 217.77 C 437.88 215.00 437.86 211.93 437.87 208.97 C 437.03 177.71 428.08 147.13 414.75 118.99 C 400.08 88.35 380.01 60.11 354.96 37.08 C 338.19 21.10 314.97 10.20 291.40 14.53 M 711.33 14.46 C 687.11 17.69 668.59 35.64 653.27 53.29 C 614.78 97.88 586.82 154.28 586.03 214.07 C 585.26 217.53 593.23 221.69 592.39 216.70 C 590.86 211.44 596.84 208.71 597.97 204.03 C 594.81 202.41 595.24 209.27 592.13 209.97 C 591.93 206.32 596.54 203.69 594.19 199.97 C 591.83 195.63 597.24 193.39 597.43 189.27 C 599.69 190.44 601.81 191.92 604.26 192.70 C 605.79 191.55 603.01 189.99 602.79 188.66 C 604.20 189.39 608.14 190.38 606.45 192.47 C 603.87 194.66 608.90 194.91 608.32 197.07 C 605.78 195.90 603.57 193.88 600.68 193.64 C 601.48 196.23 604.22 197.26 605.73 199.33 C 605.83 201.41 604.54 203.27 604.05 205.25 C 605.45 204.22 606.73 203.03 608.12 201.98 C 607.82 206.45 603.71 209.94 602.71 214.40 C 605.83 214.32 605.68 210.27 607.48 208.47 C 612.47 204.87 610.62 197.92 612.83 192.87 C 612.03 190.19 608.42 190.12 607.42 187.66 C 609.66 188.38 611.73 189.62 614.07 190.07 C 614.09 188.10 610.06 185.96 614.01 186.22 C 616.09 186.35 613.81 183.82 614.68 182.76 C 619.90 172.59 622.55 161.37 627.22 150.96 C 638.46 124.73 652.31 98.94 672.36 78.35 C 678.81 71.28 687.44 66.90 695.83 62.83 C 688.94 63.05 681.46 63.48 675.69 67.70 C 672.60 69.69 670.36 72.93 666.82 74.21 C 672.50 61.33 687.55 54.20 701.27 56.20 C 698.85 53.26 694.87 52.78 691.76 51.03 C 699.46 50.86 706.76 56.23 710.08 63.03 C 714.37 71.64 716.82 81.01 719.65 90.16 C 731.09 126.36 740.99 163.92 762.02 196.02 C 766.94 203.23 772.42 210.48 780.02 215.05 C 788.60 219.81 800.66 218.88 807.53 211.52 C 813.57 205.23 815.87 196.40 817.03 187.99 C 819.73 162.93 814.07 137.84 806.92 113.96 C 797.47 83.40 783.76 53.04 760.76 30.22 C 747.96 17.39 729.27 11.14 711.33 14.46 M 335.23 173.37 C 334.76 174.74 336.29 177.07 337.81 176.73 C 338.28 175.35 336.74 173.06 335.23 173.37 M 288.60 182.36 C 288.54 186.89 291.85 190.48 294.18 194.08 C 310.39 215.60 330.96 233.38 352.53 249.34 C 355.28 251.15 357.82 253.69 361.24 254.10 C 339.35 234.02 317.69 213.40 297.65 191.38 C 294.71 188.31 292.50 184.34 288.60 182.36 M 735.34 183.37 C 730.70 185.93 728.16 190.87 724.47 194.50 C 711.06 208.72 697.34 222.75 682.45 235.42 C 677.36 243.00 667.97 247.01 663.58 255.11 C 667.81 253.56 671.08 250.30 674.67 247.70 C 694.99 231.52 715.26 214.67 731.13 193.94 C 733.01 191.02 736.91 185.72 735.34 183.37 M 689.32 187.13 C 689.16 188.51 691.53 189.61 692.66 188.94 C 692.84 187.53 690.43 186.46 689.32 187.13 M 678.27 188.27 C 674.76 190.69 681.38 190.52 678.27 188.27 M 598.46 192.45 C 596.72 194.65 595.75 197.36 595.04 200.05 C 597.70 198.96 602.05 190.65 598.46 192.45 M 683.07 192.15 C 681.94 196.27 687.02 190.93 683.07 192.15 M 344.14 195.47 C 343.47 199.60 347.98 194.82 344.14 195.47 M 674.11 195.20 C 670.49 198.99 678.98 196.88 674.11 195.20 M 528.34 196.46 C 514.15 199.10 501.61 208.40 493.99 220.50 C 490.58 214.21 492.94 205.25 491.80 197.93 C 489.69 198.02 488.77 200.16 487.71 201.65 C 484.09 207.73 480.69 214.05 479.01 220.96 C 475.10 223.31 470.22 223.02 465.89 224.22 C 444.59 229.08 423.46 235.26 403.65 244.60 C 370.45 259.81 340.76 282.32 316.43 309.49 C 295.53 332.86 277.59 360.43 270.78 391.30 C 277.47 382.17 278.53 369.29 286.55 360.99 C 288.32 355.17 291.25 349.73 294.72 344.75 C 295.73 342.52 298.28 343.92 300.07 343.88 C 299.20 342.81 297.26 342.26 297.41 340.66 C 302.53 341.46 301.99 334.33 305.55 331.97 C 310.93 327.92 318.33 324.03 319.25 316.57 C 322.66 321.80 320.79 312.32 324.55 314.47 C 324.39 311.58 328.82 312.50 327.33 309.50 C 330.24 310.88 329.40 306.71 332.01 307.07 C 330.63 301.24 335.44 305.19 337.90 301.83 C 361.09 280.61 388.59 264.30 417.96 253.21 C 429.02 249.96 440.16 246.64 450.56 241.59 C 458.89 241.31 466.92 238.91 475.15 237.77 C 495.60 234.50 516.41 235.01 537.02 236.05 C 587.98 242.64 637.14 262.77 677.84 294.19 C 690.66 304.92 702.46 317.36 714.13 328.90 C 718.89 333.26 722.62 340.51 727.71 345.33 C 731.65 345.66 734.79 350.23 733.56 354.02 C 735.56 355.08 737.25 356.78 738.33 358.77 C 739.14 364.19 743.25 368.06 744.81 373.29 C 749.72 380.28 750.59 389.35 755.17 396.36 C 752.20 377.67 744.33 359.86 734.20 343.93 C 712.00 307.86 679.11 279.81 643.68 257.28 C 626.66 246.73 608.00 239.19 589.14 232.63 C 565.54 223.78 540.31 221.35 515.29 220.89 C 523.85 215.92 530.51 207.99 534.70 199.10 C 536.77 194.58 530.86 195.95 528.34 196.46 M 681.21 195.95 C 680.06 200.12 685.08 194.93 681.21 195.95 M 599.26 197.06 C 597.77 199.54 598.99 202.08 600.58 204.11 C 597.95 208.10 595.28 212.07 592.73 216.10 C 594.71 214.36 596.50 214.41 597.98 216.72 C 599.44 215.44 600.39 213.72 601.15 211.96 C 599.73 212.70 598.39 213.58 596.95 214.27 C 597.80 209.52 604.04 205.72 600.85 200.77 C 600.46 199.32 601.97 195.02 599.26 197.06 M 331.81 199.49 C 330.99 203.31 335.99 199.00 331.81 199.49 M 602.16 199.37 C 602.08 204.03 607.69 197.60 602.16 199.37 M 674.71 200.80 C 675.82 203.12 678.60 203.95 680.16 205.97 C 679.88 203.19 677.35 201.16 674.71 200.80 M 670.29 202.87 C 669.85 207.05 674.11 202.14 670.29 202.87 M 275.46 205.51 C 273.49 207.86 271.98 210.55 270.67 213.30 C 274.87 212.79 279.05 212.15 283.28 211.81 C 281.29 209.43 278.70 204.60 275.46 205.51 M 669.02 205.42 C 668.11 210.03 673.43 205.87 669.02 205.42 M 746.38 205.39 C 744.67 207.01 743.40 209.04 742.35 211.14 C 745.50 212.95 749.33 213.11 752.89 212.84 C 751.22 210.30 749.65 205.05 746.38 205.39 M 677.36 207.23 C 677.85 211.74 681.98 206.70 677.36 207.23 M 415.29 208.04 C 414.83 212.05 419.25 207.19 415.29 208.04 M 602.35 208.11 C 601.46 208.41 600.16 210.47 601.68 210.76 C 603.27 210.89 604.82 207.25 602.35 208.11 M 425.22 209.19 C 424.02 211.87 427.36 213.29 429.50 213.16 C 428.90 211.27 427.50 208.97 425.22 209.19 M 673.25 208.96 C 672.94 210.44 675.35 211.49 676.51 210.80 C 676.70 209.45 674.35 208.34 673.25 208.96 M 418.17 210.31 C 412.67 212.39 418.55 218.22 416.82 222.40 C 420.68 222.05 424.45 220.90 428.16 219.79 C 426.66 216.87 422.78 216.54 419.87 216.05 C 420.56 217.38 421.40 218.64 422.10 219.97 C 419.51 218.90 415.63 216.66 419.77 214.72 C 423.32 213.33 421.74 209.10 418.17 210.31 M 607.23 212.08 C 605.28 215.34 603.80 218.86 601.84 222.13 C 605.44 220.05 607.68 216.15 608.88 212.28 C 608.47 212.23 607.64 212.13 607.23 212.08 M 601.39 215.53 C 599.60 216.80 599.19 219.16 598.96 221.19 C 600.34 219.70 605.71 213.95 601.39 215.53 M 669.26 215.06 C 668.08 219.21 673.15 214.01 669.26 215.06 M 665.42 217.15 C 665.20 218.56 667.62 219.41 668.72 218.81 C 669.03 217.36 666.49 216.38 665.42 217.15 M 607.36 219.39 C 606.49 220.52 606.42 222.36 607.22 223.55 C 608.51 223.26 608.85 219.52 607.36 219.39 M 276.29 228.42 C 260.05 231.01 245.73 241.83 237.78 256.07 C 224.25 278.72 228.24 311.10 248.36 328.64 C 255.25 335.92 264.56 340.33 273.65 343.31 C 272.38 339.96 268.65 339.64 265.97 338.12 C 263.49 336.83 263.63 331.64 260.10 333.94 C 256.81 330.14 254.01 325.93 251.09 321.84 C 256.60 323.88 258.44 332.20 264.98 331.00 C 267.76 330.87 262.98 335.66 266.34 335.81 C 266.46 330.31 273.26 331.34 273.92 336.00 C 271.95 335.16 270.10 334.07 268.11 333.29 C 270.25 335.89 272.25 339.00 275.64 340.06 C 275.90 336.45 279.77 334.85 280.72 331.44 C 275.63 331.26 279.61 327.57 282.54 328.38 C 287.24 328.03 283.35 321.29 287.88 321.66 C 286.57 320.11 285.13 318.67 283.92 317.04 C 285.62 317.63 287.23 318.45 288.98 318.86 C 294.32 316.15 294.50 308.52 299.66 305.82 C 297.74 302.71 299.15 301.40 302.18 303.37 C 301.42 300.93 298.69 299.89 296.86 298.34 C 294.93 300.20 291.77 300.54 291.80 297.03 C 294.26 300.29 297.76 295.77 300.20 294.18 C 296.80 296.13 294.58 291.48 291.13 292.82 C 288.92 294.27 286.12 292.09 284.54 294.53 C 282.50 296.34 286.32 288.28 283.39 291.15 C 281.61 294.15 276.44 288.39 280.97 288.86 C 284.90 286.12 290.61 286.95 294.09 283.95 C 283.43 282.57 273.33 287.84 265.64 294.72 C 266.04 288.47 272.32 284.92 273.42 279.22 C 277.28 279.19 280.66 277.40 283.61 275.04 C 279.37 272.77 273.70 277.89 270.73 273.38 C 274.62 274.34 274.29 271.84 272.11 269.74 C 268.03 271.43 262.04 269.24 257.07 269.83 C 258.21 268.74 259.61 267.77 259.95 266.12 C 257.80 265.76 256.72 270.84 255.80 266.87 C 254.95 264.72 255.07 268.85 254.57 269.47 C 247.57 270.69 246.10 278.83 243.20 284.16 C 242.22 260.20 267.94 240.24 290.83 247.38 C 304.42 250.82 313.03 262.56 323.09 271.31 C 319.43 262.90 314.11 255.38 308.78 248.01 C 316.11 251.55 320.71 259.34 328.15 262.32 C 326.91 257.14 322.85 253.42 320.44 248.84 C 328.40 253.49 333.51 261.57 339.28 268.27 C 328.91 244.47 303.79 223.38 276.29 228.42 M 731.33 228.45 C 718.89 230.50 708.15 238.29 699.93 247.55 C 705.60 247.01 697.57 253.22 697.37 256.45 C 702.18 252.93 705.32 247.29 710.96 244.84 C 707.10 250.34 702.16 255.24 699.55 261.53 C 705.99 257.74 710.09 250.68 717.09 247.74 C 709.44 257.55 701.65 267.61 696.99 279.27 C 704.66 270.65 710.73 260.06 720.97 253.85 C 730.90 246.10 744.30 246.24 756.11 248.27 C 770.54 253.44 781.74 267.75 781.80 283.32 C 778.08 277.81 775.26 271.03 769.08 267.79 C 769.80 268.93 770.60 270.02 771.35 271.16 C 767.39 270.95 763.92 268.79 760.06 268.14 C 757.96 270.80 765.13 269.38 762.13 271.36 C 754.90 268.26 747.52 271.43 741.14 274.97 C 745.56 280.50 753.80 282.11 757.31 288.67 C 758.04 291.76 759.58 294.52 760.98 297.34 C 753.03 290.27 743.57 283.02 732.27 283.82 C 736.32 287.57 744.02 286.98 747.00 291.74 C 743.61 293.04 738.50 290.59 736.57 294.55 C 735.49 296.22 737.01 297.90 737.42 299.51 C 733.93 297.73 732.13 293.81 728.55 292.23 C 729.13 296.61 734.84 298.85 736.20 303.51 C 733.94 302.50 732.23 300.56 729.85 299.80 C 730.05 302.90 733.43 304.26 734.25 307.11 C 732.38 305.98 730.69 304.56 728.67 303.72 C 728.63 307.81 733.12 309.45 734.13 313.06 C 731.26 311.57 729.63 307.39 726.18 307.42 C 733.97 317.08 740.23 328.40 749.00 336.98 C 748.49 333.10 743.89 331.05 743.99 327.14 C 747.73 324.63 751.26 328.69 752.50 331.97 C 754.63 332.13 756.77 332.30 758.72 333.31 C 759.03 331.77 758.79 329.75 760.78 329.39 C 761.21 330.13 759.45 333.64 761.66 332.28 C 760.51 328.06 765.99 331.50 765.13 327.02 C 768.48 328.20 765.62 331.59 765.64 333.93 C 765.79 337.66 761.56 329.56 762.12 334.03 C 762.56 336.57 761.14 335.43 759.89 334.61 C 756.79 336.39 753.30 337.03 750.00 338.27 C 749.53 340.29 750.51 344.20 753.33 343.21 C 753.29 341.81 751.85 341.12 751.26 340.14 C 753.40 338.88 756.40 337.12 758.31 339.70 C 760.34 341.45 756.82 336.08 758.85 337.18 C 764.98 339.70 770.51 334.51 774.92 330.88 C 798.30 310.32 800.87 271.00 780.41 247.52 C 769.02 232.89 749.52 225.82 731.33 228.45 M 504.35 250.47 C 503.21 250.65 502.10 250.94 501.02 251.31 C 504.96 257.58 507.33 264.91 508.13 272.25 C 498.95 260.20 484.16 252.36 468.76 254.06 C 475.59 264.52 482.59 275.68 484.32 288.31 C 471.94 275.02 454.58 264.05 435.69 266.08 C 438.66 268.53 442.94 269.18 445.32 272.32 C 441.30 272.07 437.72 269.82 433.68 269.66 C 436.35 273.61 441.24 275.21 444.12 278.99 C 434.14 275.97 423.59 270.66 412.99 274.18 C 410.47 278.23 420.35 275.65 420.54 278.67 C 419.22 280.81 416.88 278.25 415.13 278.00 C 411.72 282.21 405.32 278.21 401.44 281.46 C 397.87 284.16 392.74 283.13 389.23 285.97 C 390.86 287.46 395.69 287.25 393.94 290.65 C 385.38 292.52 376.37 294.10 368.75 298.60 C 369.89 298.83 372.59 297.45 371.88 299.79 C 368.45 300.60 364.99 301.85 362.88 304.87 C 366.32 304.33 369.69 303.32 373.19 303.16 C 366.28 307.36 356.53 308.90 352.94 317.03 C 359.34 315.93 367.22 310.87 373.02 314.45 C 366.19 315.40 360.21 319.07 354.23 322.26 C 348.21 325.81 341.72 329.32 337.66 335.20 C 345.10 331.36 351.66 325.29 360.23 323.94 C 348.21 332.34 334.58 339.99 326.82 352.99 C 330.38 350.37 333.32 346.88 337.32 344.90 C 331.43 353.87 322.47 360.50 316.23 369.31 C 312.13 371.37 313.14 377.82 307.57 377.73 C 309.67 380.25 307.51 383.01 306.42 385.42 C 297.80 402.23 292.96 420.69 284.69 437.65 C 283.55 440.57 282.04 437.61 281.39 436.10 C 280.60 438.48 280.21 441.18 278.34 443.02 C 278.05 441.36 277.88 439.69 277.58 438.05 C 275.23 438.47 276.87 442.68 273.85 441.34 C 274.61 444.26 278.60 444.12 277.07 447.83 C 278.33 446.22 279.49 444.52 280.88 443.01 C 281.86 447.17 282.72 452.28 279.56 455.75 C 278.14 457.21 278.08 459.19 277.89 461.11 C 275.11 463.86 270.76 464.28 268.01 467.13 C 277.46 469.55 288.23 465.87 297.36 470.61 C 284.65 471.60 271.66 472.74 259.95 478.25 C 247.33 482.99 235.50 491.00 228.93 503.06 C 244.63 507.37 261.73 508.88 276.34 516.21 C 258.66 514.28 240.85 512.44 223.02 513.18 C 221.30 518.85 219.67 524.59 218.41 530.39 C 235.54 531.32 252.84 531.23 269.75 534.50 C 269.80 534.77 269.90 535.29 269.95 535.55 C 254.02 537.24 238.01 537.96 222.09 539.74 C 213.90 539.39 217.04 549.85 217.24 554.90 C 234.18 552.00 251.41 550.04 268.62 550.71 C 253.68 557.45 235.75 558.58 220.49 565.64 C 217.01 568.02 220.22 572.78 220.84 575.96 C 228.56 602.62 248.77 623.37 270.71 639.29 C 303.45 662.30 342.31 674.92 381.13 683.15 C 386.08 684.70 393.84 683.29 395.85 689.37 C 392.33 690.41 388.65 690.61 385.01 690.62 C 355.51 690.64 326.07 685.28 298.16 675.89 C 304.66 687.06 314.04 696.20 322.21 706.12 C 309.13 700.23 299.39 689.21 289.88 678.86 C 294.65 693.06 307.46 702.06 317.38 712.42 C 299.71 705.85 285.77 691.92 273.05 678.64 C 273.07 681.92 275.27 684.49 277.16 686.95 C 275.81 686.10 274.50 685.19 273.11 684.42 C 271.44 703.58 272.95 723.58 281.88 740.96 C 289.55 752.02 298.86 762.14 309.50 770.36 C 307.81 765.15 303.70 761.13 302.09 755.87 C 313.14 764.38 325.73 771.42 338.99 775.94 C 337.67 772.46 334.28 770.36 332.78 767.00 C 339.66 769.75 346.34 773.21 352.52 777.31 C 352.56 782.69 358.25 783.94 362.27 785.59 C 368.45 787.72 374.82 790.23 381.47 789.68 C 383.52 793.34 387.62 790.36 390.51 789.53 C 396.68 790.40 404.27 783.32 400.84 776.96 C 397.68 768.60 388.60 765.27 382.89 759.36 C 389.56 760.19 395.64 763.20 402.00 765.17 C 404.26 767.48 406.69 769.83 409.96 770.60 C 407.77 766.93 413.38 766.19 415.20 763.97 C 415.79 765.82 408.87 770.43 413.51 768.51 C 415.24 766.94 422.32 763.93 417.79 762.00 C 415.25 759.91 420.79 763.03 420.60 760.95 C 425.35 749.43 416.03 736.35 404.74 733.41 C 396.70 731.62 388.37 733.04 380.25 731.85 C 385.41 727.02 392.41 724.87 398.50 721.47 C 383.87 714.07 365.99 719.58 353.38 728.81 C 359.69 711.96 380.75 702.87 397.77 708.43 C 399.94 708.68 402.40 710.84 404.46 709.44 C 427.43 685.65 459.51 671.86 491.97 667.41 C 529.75 663.25 569.79 671.57 600.72 694.29 C 607.41 699.22 614.36 704.11 619.22 710.99 C 625.12 709.45 630.82 706.84 637.04 706.81 C 651.64 705.96 665.58 715.49 672.14 728.15 C 670.15 728.82 668.60 726.55 666.89 725.83 C 654.11 718.55 637.53 713.99 624.01 722.01 C 630.22 725.64 638.61 725.65 643.33 731.70 C 633.10 731.75 622.00 731.32 613.08 737.21 C 604.60 742.53 599.37 754.84 605.29 763.83 C 607.96 764.18 610.87 764.87 612.43 767.32 C 610.91 766.95 609.45 766.51 607.95 766.14 C 609.68 767.61 611.37 769.37 613.64 769.96 C 615.25 767.37 618.50 768.26 620.95 767.20 C 627.85 764.41 634.64 760.07 642.17 759.79 C 636.23 765.12 628.68 769.47 625.34 777.27 C 622.56 781.49 625.04 787.52 629.90 788.74 C 643.28 791.44 658.06 788.97 669.62 782.85 C 670.19 780.72 670.67 778.57 671.51 776.53 C 678.76 775.12 683.87 768.81 691.11 767.04 C 689.07 770.45 685.54 772.53 683.09 775.60 C 698.53 772.51 712.08 763.21 725.32 755.03 C 722.71 760.63 717.05 764.28 714.84 770.08 C 723.92 765.55 729.98 756.82 736.23 749.11 C 739.12 743.37 743.72 738.55 745.10 732.10 C 750.08 724.46 752.76 714.38 750.08 705.53 C 752.93 702.85 752.88 698.58 752.68 694.97 C 752.23 691.40 748.25 689.44 748.05 685.87 C 748.95 686.86 749.76 687.90 750.62 688.94 C 751.85 686.40 752.73 681.96 750.01 680.28 C 746.82 681.79 745.56 685.62 745.38 688.62 C 741.63 685.95 743.43 690.11 743.94 692.34 C 741.81 690.64 739.58 688.86 740.51 692.80 C 728.94 698.23 719.49 707.62 707.49 712.37 C 718.40 701.84 730.53 691.24 736.24 676.73 C 725.76 688.81 714.45 701.19 699.71 708.16 C 708.26 699.37 718.81 691.65 723.83 680.09 C 725.47 675.96 717.32 676.32 717.83 680.03 C 717.77 682.46 715.88 679.56 714.86 679.28 C 713.48 682.32 709.61 681.17 706.99 682.03 C 694.31 684.42 681.63 686.94 669.00 689.42 C 653.75 690.13 638.32 691.61 623.13 689.71 C 622.62 687.49 625.52 687.73 626.94 687.11 C 678.46 677.18 731.60 661.36 771.13 625.17 C 787.53 611.13 799.78 592.08 804.27 570.87 C 805.14 567.93 803.40 564.95 800.31 564.56 C 784.44 560.59 768.78 555.71 752.99 551.56 C 755.04 550.17 757.65 550.66 760.00 550.55 C 775.72 550.97 791.40 552.63 806.93 555.15 C 806.18 550.15 809.99 539.97 802.03 540.01 C 786.79 538.09 771.42 537.29 756.17 535.52 C 756.16 535.26 756.13 534.72 756.12 534.45 C 769.89 531.72 784.00 531.03 798.02 530.99 C 800.23 530.84 802.63 530.98 804.61 529.78 C 803.63 524.06 802.03 518.42 800.17 512.93 C 782.99 512.74 765.78 513.75 748.75 516.07 C 762.71 508.18 779.46 506.96 794.96 503.55 C 784.73 487.64 767.80 475.58 748.94 472.66 C 741.61 471.38 734.15 471.34 726.77 470.66 C 736.78 466.73 747.97 467.85 758.41 469.29 C 755.24 466.05 750.76 464.36 748.08 460.57 C 743.30 463.40 746.10 455.61 748.32 454.13 C 742.64 457.03 748.97 450.85 744.17 451.66 C 741.69 444.08 738.90 436.62 736.63 428.97 C 733.47 423.79 731.29 418.08 729.57 412.28 C 726.79 398.61 719.23 386.55 711.84 374.94 C 701.67 361.02 689.87 348.10 675.92 337.93 C 683.30 340.94 689.50 346.40 697.14 348.90 C 694.44 343.01 687.93 341.72 683.53 337.42 C 677.16 332.00 669.14 329.03 662.59 323.96 C 671.09 326.32 678.84 330.92 685.80 336.26 C 687.60 337.51 689.48 339.12 691.84 338.88 C 691.41 335.04 688.73 330.80 684.52 330.60 C 684.50 328.25 682.12 326.31 679.88 327.65 C 676.16 327.37 676.29 322.42 673.53 320.64 C 670.22 317.36 665.35 316.08 662.41 312.46 C 665.40 312.91 667.92 315.13 671.03 314.96 C 666.32 309.10 659.48 305.55 652.91 302.20 C 654.03 301.79 657.73 303.69 656.73 301.32 C 648.96 294.90 637.82 295.09 629.96 289.38 C 632.26 289.10 634.60 289.09 636.90 288.71 C 629.32 281.76 618.31 278.94 608.18 277.70 C 609.77 276.40 611.61 275.46 613.33 274.34 C 602.61 271.70 591.57 274.38 581.59 278.43 C 581.66 275.02 589.33 273.34 590.99 269.29 C 586.76 269.14 583.12 271.94 578.95 271.92 C 581.00 268.83 584.76 267.94 587.76 266.10 C 576.02 265.28 564.24 268.85 554.72 275.71 C 549.05 279.20 544.82 284.56 539.12 287.97 C 542.76 275.82 548.55 264.37 555.65 253.90 C 543.60 252.75 530.94 256.61 522.39 265.37 C 521.41 265.86 520.37 267.91 519.20 266.97 C 520.55 261.66 523.48 256.98 525.69 252.02 C 518.77 250.43 511.45 250.05 504.35 250.47 M 766.22 266.16 C 764.62 269.12 769.61 266.41 766.22 266.16 M 277.11 271.40 C 275.36 276.70 281.83 271.76 277.11 271.40 M 733.45 292.31 C 733.58 296.85 738.03 291.54 733.45 292.31 M 306.40 295.31 C 305.85 295.92 302.82 296.41 304.77 297.23 C 307.22 300.56 309.96 292.18 306.40 295.31 M 724.67 294.93 C 725.30 297.10 727.04 299.13 729.47 299.22 C 729.04 296.81 726.76 295.63 724.67 294.93 M 301.09 298.55 C 300.59 300.21 304.46 301.24 304.49 299.35 C 303.72 298.44 302.16 298.09 301.09 298.55 M 723.81 299.25 C 724.49 301.08 726.01 302.38 727.86 302.98 C 729.05 300.10 725.73 299.82 723.81 299.25 M 721.56 301.97 C 720.96 306.02 725.49 301.33 721.56 301.97 M 359.21 306.03 C 358.75 310.10 363.12 305.19 359.21 306.03 M 689.34 324.95 C 688.89 326.25 690.55 328.07 691.89 327.64 C 692.38 326.39 690.61 324.43 689.34 324.95 M 746.88 327.78 C 747.78 331.28 749.87 334.92 753.26 336.51 C 752.30 333.14 749.21 330.42 746.88 327.78 M 306.48 332.38 C 304.95 334.10 303.51 335.98 302.81 338.20 C 305.24 337.40 310.56 329.30 306.48 332.38 M 754.84 333.40 C 754.13 337.22 759.01 332.93 754.84 333.40 M 754.86 340.22 C 753.79 344.81 759.56 339.21 754.86 340.22 M 294.25 347.91 C 292.60 351.06 290.57 354.00 289.08 357.24 C 291.82 355.35 296.07 348.49 294.25 347.91 M 730.23 347.77 C 729.74 352.97 734.32 349.02 730.23 347.77 M 310.39 374.39 C 310.64 374.63 310.64 374.63 310.39 374.39 M 289.41 384.57 C 272.12 409.72 265.22 440.00 251.89 467.10 C 262.70 458.24 268.20 444.91 272.34 431.94 C 276.70 417.27 281.90 402.85 288.31 388.94 C 288.75 387.87 290.59 383.35 289.41 384.57 M 734.74 385.75 C 735.11 388.75 736.48 391.46 737.70 394.18 C 746.02 412.69 751.30 432.39 759.24 451.04 C 762.99 457.07 767.31 463.13 773.01 467.44 C 758.69 441.00 753.42 409.73 734.74 385.75 M 273.00 452.79 C 273.87 455.45 274.37 458.83 277.02 460.33 C 276.20 457.61 275.31 454.64 273.00 452.79 M 271.10 456.00 C 270.36 460.64 275.68 455.13 271.10 456.00 M 264.33 667.15 C 258.90 675.56 256.47 685.52 253.24 694.92 C 241.84 733.13 230.51 771.54 224.86 811.10 C 219.82 843.77 224.45 878.39 240.62 907.46 C 247.08 919.19 256.25 929.52 267.27 937.13 C 265.76 934.01 263.31 931.52 261.23 928.81 C 245.37 909.92 234.64 886.53 231.33 862.07 C 229.58 831.90 229.29 800.43 239.88 771.76 C 238.02 790.40 237.84 809.21 238.79 827.93 C 239.12 829.08 238.46 832.11 240.54 830.65 C 241.57 824.11 240.75 817.18 242.69 810.87 C 243.34 824.21 242.24 837.72 244.87 850.91 C 245.68 853.93 245.15 857.99 248.21 859.87 C 248.94 853.98 246.22 847.70 247.19 841.58 C 249.92 850.60 251.28 860.09 254.67 868.96 C 255.87 873.41 259.39 876.99 259.37 881.78 C 261.03 881.64 262.66 881.27 264.27 880.86 C 260.71 871.51 255.85 861.20 258.25 851.05 C 265.11 864.19 270.28 878.58 278.99 890.89 C 280.39 892.98 282.04 895.15 281.52 897.83 C 283.11 897.36 285.06 897.34 286.30 896.14 C 277.32 879.52 272.60 861.02 268.84 842.59 C 273.30 848.16 272.67 856.51 278.02 861.55 C 277.59 862.88 276.68 864.13 276.95 865.62 C 280.91 862.40 280.84 868.91 283.42 870.55 C 284.82 871.31 284.39 872.91 284.60 874.22 C 288.21 873.21 286.28 877.90 288.75 879.26 C 290.04 882.62 294.68 884.67 293.56 888.57 C 297.01 889.11 300.11 891.94 300.08 895.59 C 306.21 897.40 309.28 903.66 315.00 906.16 C 316.26 906.92 311.68 911.92 314.59 909.68 C 316.39 907.12 318.32 908.31 320.21 910.04 C 319.00 906.24 315.47 903.96 313.23 900.84 C 311.65 899.13 312.40 895.67 309.37 895.61 C 309.28 893.57 304.70 890.99 309.01 890.99 C 312.51 892.46 314.61 896.00 316.93 898.85 C 315.50 898.64 314.07 898.38 312.64 898.21 C 314.03 902.71 321.44 898.91 321.65 903.66 C 320.23 903.50 319.08 902.59 317.80 902.09 C 318.65 904.39 320.56 905.90 323.09 905.38 C 328.37 907.52 331.26 914.11 337.38 914.68 C 338.34 917.38 340.75 918.86 343.61 918.26 C 346.32 923.56 352.38 925.62 357.22 928.31 C 356.44 924.30 351.82 923.15 348.38 922.61 C 350.97 917.33 355.47 924.32 359.24 924.74 C 356.65 921.35 352.85 919.15 348.94 917.61 C 345.28 924.99 347.39 913.49 343.09 912.31 C 338.93 911.94 335.83 908.73 333.57 905.50 C 332.80 904.45 331.53 901.21 334.00 901.50 C 333.18 905.52 337.54 901.57 337.11 905.04 C 337.36 907.62 339.71 909.27 341.96 910.10 C 340.90 908.69 339.69 907.40 338.84 905.86 C 342.69 906.72 345.16 910.10 346.28 913.69 C 348.77 914.66 350.99 916.73 353.75 916.80 C 356.33 912.85 357.18 907.13 353.69 903.44 C 348.75 897.87 343.03 892.38 341.35 884.83 C 339.33 875.05 340.28 863.85 346.83 855.90 C 349.08 852.99 353.26 851.08 353.31 846.93 C 353.64 841.43 353.64 835.88 352.98 830.42 C 348.97 829.98 345.04 826.73 340.85 828.75 C 340.34 825.41 333.69 826.68 330.44 824.83 C 329.41 827.03 328.01 829.12 325.84 830.35 C 326.57 828.35 327.76 826.58 328.76 824.73 C 326.73 823.66 324.55 822.89 322.35 822.27 C 320.27 823.56 316.60 825.44 319.69 821.72 C 316.26 818.48 311.59 817.18 307.23 815.73 C 303.61 811.70 297.87 808.20 292.74 811.80 C 293.64 810.10 295.38 809.15 296.75 807.90 C 293.65 804.33 290.30 800.51 285.36 799.79 C 283.39 796.59 281.94 792.24 277.97 790.73 C 272.72 783.06 271.12 773.02 265.01 765.68 C 266.48 774.21 272.60 782.01 273.98 789.97 C 267.80 786.29 267.92 778.01 262.53 773.51 C 258.41 766.09 256.82 757.40 256.87 748.96 C 256.54 721.29 255.93 692.87 265.03 666.37 L 264.33 667.15 M 760.90 670.51 C 768.44 705.56 773.40 742.93 763.19 777.97 C 761.84 782.96 761.95 774.92 760.31 777.95 C 756.57 784.47 754.97 793.42 749.19 798.06 C 753.21 788.03 756.97 777.62 757.88 766.80 C 753.47 775.75 749.73 785.83 743.66 792.76 C 739.56 794.99 742.49 801.35 737.27 802.08 C 737.18 797.84 734.22 802.16 732.55 803.19 C 732.61 804.48 733.06 806.08 731.10 805.49 C 731.08 808.35 728.84 810.29 726.99 812.17 C 727.48 810.04 728.30 808.02 728.96 805.95 C 726.86 807.16 724.13 808.19 723.87 810.98 C 721.37 811.50 718.96 812.33 717.52 814.59 C 712.68 815.85 707.70 817.77 704.43 821.73 C 692.89 823.31 683.64 829.47 672.11 829.30 C 671.31 832.23 673.95 835.13 672.05 837.87 C 675.29 842.28 671.09 849.15 675.44 853.53 C 689.30 867.91 685.09 894.28 668.56 904.83 C 668.06 912.83 666.01 920.58 664.11 928.33 C 665.64 926.64 665.79 924.02 667.74 922.70 C 668.16 924.10 667.63 928.65 669.43 925.55 C 671.56 922.26 671.77 926.69 671.33 928.36 C 674.72 924.71 674.98 919.10 678.96 915.90 C 679.33 918.92 675.25 921.18 676.80 924.11 C 679.68 924.99 678.56 920.94 680.88 920.40 C 680.89 921.50 680.90 923.69 680.90 924.79 C 683.85 922.10 684.12 917.05 688.35 915.74 C 687.97 917.45 684.95 919.71 687.56 920.86 C 689.86 916.29 691.67 910.97 695.80 907.72 C 695.26 911.83 692.54 914.92 690.93 918.38 C 696.05 916.09 695.30 908.46 700.09 905.66 C 699.73 907.15 699.22 908.61 698.79 910.10 C 702.81 906.54 708.31 906.42 712.76 909.14 C 711.16 906.75 705.65 905.52 709.01 901.93 C 709.98 896.36 712.17 889.16 718.47 887.57 C 717.23 884.56 722.13 883.60 723.10 880.70 C 721.92 885.05 719.29 888.81 717.78 893.04 C 716.93 895.14 715.92 898.39 713.03 897.40 C 709.70 896.89 717.49 900.95 713.93 900.85 C 706.99 901.24 713.64 908.39 717.41 908.23 C 712.86 905.09 715.36 899.93 720.71 900.59 C 722.39 896.49 725.06 892.97 727.81 889.54 C 733.58 891.47 733.14 881.55 737.23 879.00 C 737.27 879.93 737.35 881.78 737.39 882.71 C 738.55 874.76 742.87 867.30 748.50 861.45 C 749.39 859.82 748.24 857.29 749.97 856.05 C 753.69 853.45 752.02 848.15 754.80 844.89 C 754.10 854.54 751.28 864.26 748.46 873.61 C 745.01 878.64 743.02 884.48 740.70 890.03 C 740.93 891.44 740.21 895.02 742.66 893.74 C 746.40 889.59 748.99 884.56 751.28 879.51 C 754.74 879.64 753.80 875.41 755.41 873.43 C 761.01 865.24 763.28 855.28 768.01 846.65 C 767.87 851.33 765.86 855.78 766.43 860.52 C 764.40 862.97 763.41 865.96 763.04 869.09 C 764.05 868.07 765.00 867.01 766.02 866.01 C 765.44 867.94 765.94 871.73 762.83 870.93 C 759.56 870.75 763.93 873.07 763.91 874.40 C 758.86 873.49 759.29 880.43 757.69 883.65 C 759.57 881.20 761.34 881.37 763.12 883.81 C 763.99 878.81 768.39 876.00 771.17 872.15 C 767.33 872.01 767.79 871.21 770.97 870.26 C 774.78 869.16 767.89 868.55 770.38 866.44 C 774.61 866.03 770.02 861.96 774.87 862.68 C 771.74 859.10 775.17 855.01 775.68 851.09 C 777.31 846.30 776.64 840.02 778.90 836.07 C 779.60 842.73 778.61 849.47 779.43 856.15 C 783.50 845.93 780.76 834.29 782.55 823.59 C 785.55 821.56 782.92 829.01 785.76 829.68 C 789.46 813.24 786.80 796.39 786.21 779.82 C 791.62 796.29 793.51 813.72 794.61 830.95 C 796.37 855.27 791.57 880.12 780.89 902.02 C 774.42 914.21 766.40 925.48 757.86 936.27 C 779.77 921.04 792.22 895.48 797.99 870.02 C 802.47 845.24 801.85 819.55 796.73 794.91 C 791.64 769.38 785.15 744.14 778.10 719.09 C 772.86 702.79 769.38 685.44 760.90 670.51 M 726.28 674.19 C 721.88 677.05 729.49 676.75 726.28 674.19 M 510.81 679.27 C 514.57 685.03 519.26 690.15 522.80 696.09 C 524.36 699.03 528.20 698.49 530.92 697.87 C 530.09 687.70 522.24 676.72 510.81 679.27 M 492.40 680.54 C 489.38 680.99 486.37 681.52 483.41 682.27 C 488.05 686.71 495.51 687.91 499.93 693.09 C 503.72 698.10 510.50 697.48 516.03 696.81 C 515.87 691.52 512.52 686.73 509.29 682.70 C 505.01 677.86 497.94 680.03 492.40 680.54 M 528.05 680.41 C 530.15 685.62 534.72 689.59 536.68 694.98 C 538.61 701.76 546.87 701.17 552.33 703.11 C 552.51 697.56 550.08 692.25 547.43 687.51 C 543.21 681.31 534.96 680.28 528.05 680.41 M 473.35 685.45 C 466.18 685.78 459.23 688.18 452.97 691.60 C 459.76 693.91 466.78 695.63 473.34 698.58 C 480.34 703.60 488.64 698.06 496.35 698.06 C 490.31 691.75 482.67 685.09 473.35 685.45 M 552.32 685.46 C 550.89 687.12 553.51 690.76 554.20 693.05 C 557.04 697.87 556.56 706.40 563.86 706.72 C 563.33 698.56 562.85 686.51 552.32 685.46 M 566.02 690.09 C 567.22 696.48 569.71 702.61 571.06 708.96 C 577.15 714.75 585.14 718.18 591.83 723.20 C 593.68 717.50 593.21 711.23 592.73 705.38 C 584.65 699.03 575.58 693.82 566.02 690.09 M 445.17 695.36 C 438.71 697.70 432.76 701.64 427.99 706.58 C 433.36 707.33 438.70 708.35 443.92 709.84 C 452.99 713.37 461.82 707.26 469.85 703.68 C 463.31 697.89 453.90 694.44 445.17 695.36 M 763.54 705.23 C 761.80 714.80 762.96 724.76 760.41 734.23 C 755.25 752.86 743.15 769.48 726.97 780.06 C 712.59 789.08 697.12 796.37 680.98 801.62 C 690.61 802.87 700.60 799.59 709.81 796.62 C 729.01 790.51 745.57 777.26 756.64 760.56 C 766.34 744.89 765.27 725.62 764.84 707.94 C 764.83 707.16 764.18 701.96 763.54 705.23 M 260.26 706.35 C 258.05 708.99 258.86 712.81 258.63 716.00 C 259.12 731.82 259.36 748.87 268.31 762.61 C 284.14 786.33 312.12 800.78 340.34 802.02 C 327.64 795.73 313.83 790.96 301.66 783.32 C 286.22 775.17 274.89 760.75 267.93 744.98 C 263.40 732.47 261.10 719.16 260.65 705.88 L 260.26 706.35 M 598.29 709.05 C 598.30 716.03 598.38 723.16 599.96 729.99 C 604.41 728.62 608.75 726.37 612.08 723.09 C 608.83 717.51 603.55 712.84 598.29 709.05 M 509.35 710.49 C 484.32 711.38 459.05 719.58 439.61 735.64 C 437.45 738.07 432.87 740.18 434.17 744.04 C 436.83 753.58 435.18 764.41 429.32 772.47 C 435.43 773.69 441.74 771.85 447.91 772.85 C 457.63 773.49 466.34 778.12 474.62 782.84 C 485.86 767.93 498.36 751.86 516.91 746.09 C 527.18 745.37 538.73 744.02 547.68 750.26 C 561.28 759.50 570.15 773.85 578.02 787.88 C 586.63 784.48 595.64 782.21 604.92 781.70 C 600.18 777.31 594.75 773.22 592.23 767.04 C 588.39 759.15 590.03 750.19 591.31 741.90 C 591.76 739.61 589.49 738.22 588.10 736.84 C 566.13 718.99 537.63 709.54 509.35 710.49 M 421.41 712.41 C 417.60 715.15 413.97 718.67 411.86 722.90 C 421.12 727.63 430.81 721.86 439.19 718.01 C 435.93 721.75 430.51 722.99 427.68 727.15 C 434.10 725.29 438.18 719.54 443.82 716.48 C 437.69 711.94 428.73 710.84 421.41 712.41 M 520.34 759.44 C 516.99 760.43 512.27 760.64 510.62 764.23 C 515.22 764.83 519.83 764.03 524.44 764.14 C 522.58 766.45 519.40 767.89 518.72 770.99 C 518.10 775.45 524.33 779.19 527.61 775.60 C 530.70 772.90 529.11 768.78 527.91 765.59 C 539.59 766.55 550.61 772.87 556.74 782.93 C 557.94 786.22 552.90 785.38 550.98 785.57 C 533.13 784.28 515.47 781.05 497.93 777.60 C 494.30 776.50 492.52 781.25 491.13 783.83 C 495.63 786.93 501.47 787.11 506.65 788.50 C 525.35 791.99 544.27 795.57 563.37 794.98 C 561.40 785.87 555.89 777.98 550.63 770.45 C 543.98 760.85 531.56 756.78 520.34 759.44 M 678.34 777.17 C 674.48 779.65 681.36 779.13 678.34 777.17 M 671.93 780.21 C 671.04 784.11 676.05 779.21 671.93 780.21 M 329.25 786.13 C 334.44 788.75 343.04 790.24 349.78 791.22 C 343.93 787.55 335.74 786.02 329.25 786.13 M 437.21 786.38 C 431.58 787.33 427.05 790.98 422.03 793.18 C 419.99 792.89 422.57 795.68 420.95 795.61 C 413.27 799.23 406.40 805.90 404.28 814.14 C 405.35 816.16 408.97 819.57 410.68 816.48 C 426.18 814.13 441.54 809.25 456.26 803.42 C 459.53 802.72 463.55 799.62 466.50 802.51 C 471.08 806.38 474.87 811.08 478.70 815.67 C 470.84 822.22 460.51 824.68 451.14 828.33 C 439.97 832.75 426.88 833.36 417.84 841.99 C 418.68 840.37 419.99 839.06 421.07 837.61 C 417.94 836.90 416.12 840.65 413.02 839.54 C 413.71 841.26 416.75 845.57 413.21 842.50 C 409.39 844.98 405.38 841.51 401.28 842.09 C 402.38 846.71 396.39 848.56 394.62 852.24 C 395.96 854.06 398.00 855.26 399.12 857.27 C 397.56 856.95 396.89 854.88 395.19 855.15 C 393.62 859.07 400.86 859.85 400.69 856.02 C 400.90 851.27 404.01 856.90 406.40 854.95 C 404.17 852.81 399.84 851.51 401.47 847.53 C 402.44 843.55 405.79 847.84 407.77 848.64 C 409.27 848.38 410.27 846.93 411.56 846.18 C 412.02 848.72 415.13 850.02 414.79 852.70 C 409.35 854.44 406.39 848.35 401.56 847.81 C 402.38 852.77 412.69 852.78 409.03 858.11 C 411.27 857.07 413.52 855.80 416.07 856.56 C 442.59 853.80 468.13 844.54 491.59 832.03 C 496.13 837.13 499.40 843.22 502.51 849.26 C 482.50 866.40 455.43 871.60 430.81 878.61 C 444.57 879.61 458.14 882.68 471.96 883.18 C 481.17 883.03 489.37 878.29 497.46 874.43 C 502.55 871.62 508.37 868.64 511.66 863.99 C 506.22 841.24 493.43 820.48 477.37 803.62 C 467.04 793.11 452.64 783.46 437.21 786.38 M 679.30 789.20 C 679.39 792.55 682.25 787.67 679.30 789.20 M 513.21 792.24 C 507.36 795.04 513.25 803.61 518.12 800.25 C 522.79 797.38 517.82 789.62 513.21 792.24 M 592.37 796.50 C 578.22 799.33 566.13 808.13 555.72 817.73 C 543.35 829.57 532.95 843.73 526.57 859.69 C 525.34 863.27 523.30 867.41 525.67 870.99 C 527.33 873.62 523.64 870.55 522.71 870.56 C 522.49 872.61 526.98 874.90 522.93 875.25 C 522.37 878.45 522.20 882.17 524.07 885.01 C 528.47 882.95 527.02 875.70 532.02 873.96 C 534.67 872.34 539.23 874.33 540.62 871.06 C 532.85 871.98 530.14 863.33 530.68 857.12 C 531.27 851.24 537.21 846.56 543.10 848.07 C 550.25 848.88 553.89 855.61 558.26 860.35 C 558.69 850.73 567.14 841.14 577.36 843.47 C 583.06 844.61 584.39 850.62 585.59 855.40 C 588.17 857.81 592.98 856.46 594.99 859.96 C 597.60 864.04 597.61 871.98 592.00 873.51 C 592.46 876.96 596.87 879.35 600.09 877.68 C 607.25 876.84 614.16 874.77 621.06 872.74 C 620.04 867.11 626.06 867.34 629.74 868.99 C 630.96 863.01 629.35 856.99 630.43 851.03 C 626.08 853.12 627.15 858.54 627.73 862.01 C 626.33 861.15 624.91 860.25 623.36 859.74 C 624.10 861.41 625.82 862.73 625.83 864.68 C 624.97 864.55 620.80 865.72 622.91 864.27 C 625.85 862.70 621.16 861.91 620.03 860.85 C 620.76 864.66 615.71 863.17 616.63 867.32 C 615.66 862.25 611.31 862.15 607.10 862.33 C 598.07 855.85 596.62 839.82 606.38 833.17 C 604.17 822.81 615.42 815.31 624.79 818.62 C 624.85 814.43 621.26 811.09 619.37 807.52 C 614.09 798.29 602.48 794.42 592.37 796.50 M 495.40 802.52 L 494.32 802.61 C 497.46 807.95 501.37 814.18 508.08 815.13 C 517.30 816.65 526.67 817.57 536.02 817.70 C 541.16 818.08 544.48 813.42 547.41 809.93 C 529.96 808.36 512.68 805.11 495.40 802.52 M 372.04 806.15 C 374.05 811.33 379.52 814.95 384.63 816.60 C 387.65 815.43 387.23 809.82 384.36 808.33 C 380.34 811.38 376.29 806.19 372.04 806.15 M 638.82 806.14 C 640.53 809.85 645.06 810.80 648.69 811.58 C 650.95 813.49 653.19 815.58 656.16 816.35 C 655.56 813.44 654.54 810.56 652.73 808.20 C 650.81 806.71 651.35 811.17 649.64 809.26 C 646.42 807.20 642.63 806.12 638.82 806.14 M 639.24 813.20 C 637.18 820.69 645.09 824.73 650.65 827.39 C 652.76 828.07 655.71 830.88 657.69 828.78 C 658.13 825.21 656.31 821.52 652.80 820.33 C 647.97 818.52 643.80 815.48 639.24 813.20 M 369.20 814.76 C 368.73 818.05 367.24 822.95 371.06 824.83 C 375.50 827.13 379.88 829.95 384.86 830.93 C 386.21 828.06 382.85 827.42 381.38 825.86 C 381.22 823.05 386.98 826.08 384.34 823.73 C 379.01 821.43 374.47 815.70 369.20 814.76 M 402.08 816.06 C 399.89 818.53 403.27 819.48 405.13 818.05 C 405.35 816.20 403.59 815.55 402.08 816.06 M 615.36 823.41 C 611.68 824.60 610.56 831.76 614.91 832.69 C 618.77 833.60 622.92 835.43 626.85 833.79 C 628.45 828.03 621.14 821.57 615.36 823.41 M 367.88 828.92 C 367.20 833.02 366.58 838.50 370.93 840.87 C 374.92 842.98 379.11 846.04 383.73 845.94 C 383.76 842.97 384.79 839.77 384.20 836.93 C 379.50 833.06 373.38 831.38 367.88 828.92 M 642.05 829.82 C 640.85 839.87 651.24 844.35 658.13 848.99 C 658.93 844.07 659.39 837.49 654.50 834.49 C 650.79 832.13 646.61 829.42 642.05 829.82 M 514.46 832.88 C 515.85 836.45 517.47 840.55 520.63 842.86 C 522.57 839.96 524.94 836.99 525.71 833.58 C 521.97 833.16 518.22 832.79 514.46 832.88 M 626.23 837.38 C 623.29 838.38 620.30 839.85 618.25 842.25 C 617.19 845.46 620.63 847.76 622.47 849.91 C 625.04 848.39 627.24 846.29 629.18 844.03 C 631.21 841.87 628.81 837.65 626.23 837.38 M 609.20 838.14 C 605.10 840.70 612.09 843.59 612.95 840.03 C 613.77 837.61 610.71 836.68 609.20 838.14 M 408.64 841.09 C 409.21 845.51 413.14 839.65 408.64 841.09 M 397.24 844.43 C 396.62 845.74 394.51 846.95 395.21 848.56 C 397.24 849.51 398.79 845.35 397.24 844.43 M 368.49 845.41 C 368.45 852.63 376.98 855.04 382.10 858.26 C 382.85 856.29 383.44 854.24 383.70 852.15 C 378.97 849.29 373.73 847.15 368.49 845.41 M 606.02 846.08 C 604.33 849.22 606.93 852.81 608.72 855.36 C 611.70 852.18 611.10 859.16 615.15 857.30 C 612.55 854.42 615.89 854.96 617.99 854.70 C 617.87 848.77 611.43 845.14 606.02 846.08 M 644.62 846.77 C 644.94 851.80 650.92 854.43 654.50 857.42 C 657.88 860.67 658.64 854.15 656.41 852.58 C 652.92 849.99 648.91 847.55 644.62 846.77 M 572.44 848.49 C 566.56 851.84 562.05 860.24 565.73 866.58 C 570.98 865.87 574.46 860.59 578.01 857.02 C 581.97 853.52 577.12 845.92 572.44 848.49 M 409.07 849.00 C 408.58 851.38 412.30 851.89 414.04 851.99 C 413.62 849.68 411.02 849.20 409.07 849.00 M 538.26 853.26 C 534.52 855.65 534.95 862.21 538.92 864.20 C 542.36 866.05 546.13 867.45 550.03 867.94 C 554.11 867.17 552.85 862.19 550.86 859.94 C 548.00 856.19 543.38 851.53 538.26 853.26 M 407.43 855.29 C 406.12 855.37 405.02 858.04 406.86 858.14 C 408.14 858.04 409.27 855.28 407.43 855.29 M 369.27 857.46 C 366.49 860.18 371.95 864.21 374.76 865.32 C 376.99 866.36 383.02 870.20 382.67 865.43 C 379.33 861.42 374.16 858.97 369.27 857.46 M 778.15 858.06 C 776.52 861.04 781.53 858.16 778.15 858.06 M 243.25 860.16 C 242.03 864.25 247.24 859.04 243.25 860.16 M 260.02 860.40 C 259.00 861.48 259.97 864.50 261.67 863.88 C 262.32 862.75 261.51 860.20 260.02 860.40 M 645.95 859.89 C 645.64 862.14 645.32 864.55 646.25 866.72 C 648.84 866.43 651.66 865.87 653.62 864.01 C 651.70 861.75 648.88 860.22 645.95 859.89 M 248.44 861.44 C 246.47 861.98 245.01 863.51 243.84 865.10 C 245.82 865.41 251.94 860.38 248.44 861.44 M 586.29 862.42 C 581.76 864.64 575.89 867.02 573.26 871.02 C 576.97 872.59 582.93 871.26 587.27 870.38 C 592.07 869.72 592.07 859.67 586.29 862.42 M 777.11 862.26 C 775.56 865.24 780.40 862.42 777.11 862.26 M 248.44 865.18 C 247.79 870.15 253.62 862.40 248.44 865.18 M 356.15 865.04 C 353.73 868.77 358.01 872.20 359.95 875.06 C 358.42 874.07 356.92 872.99 355.35 872.11 C 355.26 873.80 356.79 874.84 357.48 876.24 C 351.49 886.40 365.40 900.36 375.47 895.78 C 371.07 900.54 380.29 901.35 381.37 897.12 C 380.27 894.50 377.95 890.07 374.62 892.65 C 371.13 894.08 377.63 887.54 374.34 888.89 C 372.59 890.71 370.77 889.55 368.80 888.99 C 369.60 890.56 370.90 891.77 372.04 893.10 C 367.69 893.99 365.97 886.68 361.38 889.78 C 361.24 887.86 361.35 885.52 359.18 887.86 C 359.64 885.13 356.48 883.28 356.95 880.94 C 361.33 883.00 363.64 888.55 368.47 889.43 C 366.18 884.77 360.43 883.27 357.82 878.79 C 363.96 881.11 368.89 886.62 375.49 888.44 C 377.29 890.81 382.00 889.15 380.74 893.10 C 382.39 892.19 382.89 890.30 383.77 888.81 C 384.85 890.06 384.19 891.77 384.33 893.26 C 387.93 892.00 388.46 887.20 392.04 885.86 C 394.42 884.55 397.85 885.13 399.08 887.74 C 395.85 888.79 393.90 891.94 396.05 895.01 C 394.25 897.34 395.40 898.66 397.98 898.59 C 398.31 901.63 397.91 904.03 394.76 901.57 C 394.47 905.21 398.68 906.85 400.64 903.65 C 403.78 900.93 399.03 905.97 401.85 906.31 C 407.97 908.85 414.65 910.52 421.26 910.86 C 421.92 909.21 422.89 907.60 424.93 907.75 C 423.25 909.40 422.66 912.83 426.16 912.17 C 427.29 908.59 424.79 903.50 427.93 900.91 C 428.72 904.80 427.85 908.94 429.29 912.70 C 433.03 915.38 429.96 909.56 432.53 909.04 C 433.25 911.07 432.80 914.04 435.33 914.94 C 436.56 908.63 434.05 901.65 437.80 895.85 C 438.69 893.72 442.09 889.50 438.20 888.67 C 414.11 884.42 389.27 881.22 366.89 870.76 C 362.97 869.47 360.44 864.90 356.15 865.04 M 666.42 865.37 C 654.40 875.48 638.61 879.18 623.63 882.48 C 610.41 885.27 597.18 888.16 583.78 889.92 C 587.75 897.50 590.76 905.76 588.59 914.44 C 591.94 911.69 599.35 914.16 598.16 908.09 C 599.65 911.57 605.92 912.78 606.99 908.91 C 612.05 906.35 618.58 906.76 622.61 902.32 C 622.87 902.90 623.40 904.05 623.67 904.63 C 623.32 899.97 626.86 904.44 629.19 903.04 C 627.83 898.76 631.84 894.21 629.31 889.89 C 627.87 888.50 623.79 885.51 627.96 885.14 C 635.95 884.58 638.65 893.48 638.32 899.93 C 640.72 899.41 643.16 898.28 645.56 899.50 C 646.51 895.71 650.46 897.27 652.68 898.85 C 651.30 893.83 657.53 892.06 660.94 890.16 C 665.33 888.75 665.38 883.61 666.78 880.00 C 664.37 881.36 662.05 882.98 660.41 885.25 C 661.93 884.88 663.47 884.45 665.04 884.32 C 661.94 887.80 658.11 890.76 653.72 892.43 C 651.72 890.07 660.18 889.48 658.43 886.14 C 656.79 886.87 651.39 891.51 652.35 887.61 C 657.10 885.57 660.46 881.45 664.98 879.03 C 666.88 878.21 667.88 876.33 668.37 874.42 C 663.51 875.80 660.21 881.05 654.89 880.92 C 659.31 877.04 666.25 875.21 668.11 869.02 C 668.22 867.77 668.47 864.35 666.42 865.37 M 776.24 866.12 C 775.04 870.26 780.18 864.97 776.24 866.12 M 263.11 867.30 C 261.84 868.35 264.20 872.71 265.99 874.16 C 265.41 871.84 264.81 868.79 263.11 867.30 M 558.24 867.36 C 555.64 868.00 553.16 871.24 555.38 873.65 C 557.91 876.09 561.98 875.07 565.15 874.93 C 567.04 870.30 563.44 864.88 558.24 867.36 M 251.22 868.06 C 247.45 870.53 254.35 870.06 251.22 868.06 M 278.26 868.28 C 277.70 869.37 278.18 871.07 279.23 871.74 C 280.99 871.52 279.71 867.92 278.26 868.28 M 626.21 869.24 C 624.58 869.57 625.25 872.20 626.84 871.73 C 628.46 871.40 627.81 868.71 626.21 869.24 M 251.18 873.19 C 249.62 876.15 254.57 873.40 251.18 873.19 M 280.33 874.32 C 279.33 878.95 284.96 873.31 280.33 874.32 M 577.34 876.46 C 573.66 876.55 568.78 877.80 567.26 881.44 C 574.13 880.94 581.10 881.11 587.88 879.71 C 587.75 875.48 580.63 876.83 577.34 876.46 M 251.42 877.42 C 247.55 879.21 253.81 878.36 255.19 879.16 C 256.28 876.29 253.12 876.32 251.42 877.42 M 544.31 877.44 C 540.79 877.85 537.24 878.58 534.08 880.24 C 534.37 883.97 538.85 883.93 541.10 881.83 C 544.40 886.29 547.34 880.29 550.70 879.39 C 551.57 876.56 546.22 877.46 544.31 877.44 M 282.34 878.00 C 282.36 881.33 285.35 876.49 282.34 878.00 M 558.39 879.44 C 557.13 880.28 556.36 881.63 555.85 883.03 C 558.85 883.89 563.59 877.56 558.39 879.44 M 256.33 880.27 C 251.72 883.52 259.98 883.19 256.33 880.27 M 267.21 880.34 C 266.19 884.47 271.13 879.09 267.21 880.34 M 767.23 880.05 C 763.72 882.47 770.66 881.98 767.23 880.05 M 251.20 881.91 C 249.56 884.93 254.54 882.07 251.20 881.91 M 667.17 883.30 C 665.53 886.19 670.49 883.60 667.17 883.30 M 257.44 884.18 C 253.18 887.29 260.58 886.73 257.44 884.18 M 261.13 883.91 C 257.67 886.39 264.40 886.01 261.13 883.91 M 755.29 884.20 C 754.80 885.42 756.59 887.24 757.84 886.70 C 758.48 885.36 756.56 883.65 755.29 884.20 M 750.03 885.14 C 749.05 889.72 754.71 884.09 750.03 885.14 M 271.28 886.03 C 267.78 888.49 274.75 887.90 271.28 886.03 M 665.59 888.29 C 664.54 888.91 663.66 890.48 664.24 891.67 C 665.59 892.02 667.42 888.40 665.59 888.29 M 268.24 890.40 C 267.43 891.19 267.10 893.55 268.67 893.68 C 270.42 893.38 270.19 889.43 268.24 890.40 M 715.65 889.84 C 715.28 892.04 712.72 893.18 712.67 895.36 C 714.70 895.97 718.23 890.46 715.65 889.84 M 738.38 890.36 C 735.70 895.52 743.38 889.69 738.38 890.36 M 448.34 891.39 C 441.47 896.89 444.01 907.39 444.92 915.01 C 448.18 916.22 451.68 916.67 455.13 917.05 C 455.69 913.11 453.64 908.37 455.45 904.98 C 457.66 910.65 458.36 920.27 466.97 918.13 C 467.09 913.07 466.25 908.03 466.54 902.98 C 466.62 898.95 470.30 896.57 472.14 893.35 C 466.28 892.56 460.37 891.77 454.47 892.58 C 453.28 890.24 450.40 890.42 448.34 891.39 M 568.34 891.48 C 539.18 893.86 509.89 893.25 480.67 894.52 C 477.93 894.94 473.27 894.15 472.92 898.02 C 472.25 904.36 471.45 911.99 475.35 917.41 C 486.37 919.97 497.80 918.75 509.02 918.98 C 512.61 918.56 518.23 920.02 519.00 915.07 C 519.69 916.72 520.40 918.78 522.62 918.51 C 530.77 918.67 539.00 918.83 547.09 917.75 C 550.73 917.37 550.68 913.18 551.65 910.55 C 553.92 905.24 550.55 899.89 549.57 894.72 C 559.50 896.65 561.03 908.99 557.61 916.99 C 560.85 916.93 564.75 917.76 567.41 915.41 C 570.25 912.93 567.79 908.17 570.86 905.95 C 571.99 909.31 571.10 912.86 571.07 916.31 C 574.18 915.93 578.65 916.64 580.42 913.41 C 582.57 906.68 583.29 898.38 578.37 892.64 C 575.48 890.68 571.65 891.56 568.34 891.48 M 660.16 892.51 C 659.63 896.56 664.07 891.74 660.16 892.51 M 382.10 893.52 C 381.30 897.57 386.07 892.59 382.10 893.52 M 270.26 894.23 C 267.79 895.60 272.08 897.92 271.69 900.14 C 272.79 898.08 272.54 895.31 270.26 894.23 M 657.36 893.97 C 656.35 894.30 654.69 895.23 655.18 896.52 C 656.66 897.45 660.52 893.74 657.36 893.97 M 385.56 895.52 C 383.39 897.13 381.26 899.07 380.25 901.65 C 382.91 901.85 388.42 894.01 385.56 895.52 M 745.17 895.07 C 744.21 896.44 743.13 899.31 745.31 900.05 C 744.33 897.98 748.73 894.80 745.17 895.07 M 725.24 896.11 C 720.22 901.07 732.23 896.48 725.24 896.11 M 740.15 896.43 C 737.76 900.27 743.67 897.38 740.15 896.43 M 289.30 897.41 C 285.69 898.23 288.31 901.67 290.30 902.67 C 289.36 900.57 292.80 895.10 289.30 897.41 M 734.23 897.28 C 733.45 901.72 738.99 896.48 734.23 897.28 M 284.01 898.28 C 282.98 902.88 288.68 897.29 284.01 898.28 M 385.24 899.38 C 383.16 901.01 385.28 903.11 386.89 904.00 C 387.11 902.42 388.07 898.23 385.24 899.38 M 737.20 900.50 C 736.66 904.66 741.01 899.81 737.20 900.50 M 272.37 901.91 C 271.81 906.04 276.22 901.26 272.37 901.91 M 286.31 901.94 C 285.31 906.61 290.92 900.80 286.31 901.94 M 637.18 902.25 C 636.28 906.55 642.15 901.26 637.18 902.25 M 722.36 902.27 C 721.23 902.86 720.13 904.57 720.90 905.81 C 722.52 906.42 724.16 902.71 722.36 902.27 M 306.14 903.32 C 304.57 906.37 309.51 903.31 306.14 903.32 M 309.14 905.58 C 307.18 909.36 312.74 906.82 309.14 905.58 M 719.05 908.05 C 717.50 911.05 722.44 908.10 719.05 908.05 M 730.18 908.18 C 729.12 912.27 734.11 907.05 730.18 908.18 M 280.63 909.02 C 279.90 912.99 284.62 908.44 280.63 909.02 M 323.15 909.17 C 318.97 911.99 325.93 912.17 323.15 909.17 M 608.98 909.14 C 607.91 913.20 612.97 907.96 608.98 909.14 M 702.16 910.24 C 701.12 914.30 706.13 909.08 702.16 910.24 M 698.12 911.52 C 696.53 914.51 701.51 911.57 698.12 911.52 M 316.99 911.89 C 318.09 913.77 319.61 915.67 321.94 915.94 C 321.74 913.50 319.29 911.88 316.99 911.89 M 324.79 911.59 C 324.88 913.59 326.46 914.85 327.90 915.98 C 328.69 913.87 326.71 911.97 324.79 911.59 M 712.18 912.44 C 711.53 916.58 716.01 911.84 712.18 912.44 M 706.37 913.03 C 705.95 914.22 707.60 916.02 708.84 915.54 C 709.55 914.24 707.65 912.29 706.37 913.03 M 356.01 915.14 C 353.53 916.11 354.82 920.27 357.27 920.65 C 356.83 919.21 358.18 914.60 356.01 915.14 M 376.46 915.22 C 375.41 915.41 373.88 916.55 374.46 917.76 C 375.72 918.67 378.52 915.56 376.46 915.22 M 696.16 915.33 C 695.51 919.29 700.17 914.68 696.16 915.33 M 704.34 915.34 C 703.62 920.12 708.64 915.55 704.34 915.34 M 640.10 916.09 C 636.48 918.36 643.31 918.28 640.10 916.09 M 378.41 918.10 C 376.93 922.88 382.98 916.65 378.41 918.10 M 714.20 918.08 C 714.42 921.45 717.18 916.54 714.20 918.08 M 709.27 919.09 C 705.35 922.83 711.93 921.94 709.27 919.09 M 291.44 919.83 C 290.88 923.99 295.26 919.16 291.44 919.83 M 316.84 920.16 C 315.39 923.25 320.20 920.09 316.84 920.16 M 734.53 920.01 C 733.66 924.05 738.52 919.01 734.53 920.01 M 402.52 920.97 C 401.93 925.03 406.44 920.33 402.52 920.97 M 713.29 921.25 C 712.16 921.38 710.69 922.66 711.27 923.88 C 712.55 924.79 714.90 921.95 713.29 921.25 M 341.54 922.12 C 340.86 926.06 345.55 921.53 341.54 922.12 M 407.34 922.13 C 406.73 926.12 411.32 921.48 407.34 922.13 M 637.17 922.47 C 636.44 926.88 643.20 919.80 637.17 922.47 M 685.24 922.44 C 684.91 926.38 689.25 921.63 685.24 922.44 M 411.39 923.11 C 411.53 926.38 414.42 921.60 411.39 923.11 M 331.17 924.13 C 327.64 926.51 334.29 926.37 331.17 924.13 M 415.27 924.04 C 415.51 927.42 418.24 922.50 415.27 924.04 M 419.28 924.40 C 418.77 928.53 423.12 923.72 419.28 924.40 M 622.29 923.96 C 621.05 924.58 619.79 925.19 618.74 926.11 C 617.62 927.37 615.87 924.09 614.96 926.00 C 613.66 928.06 611.17 927.21 609.35 926.55 C 605.04 927.82 597.73 927.80 597.84 934.08 C 605.82 933.09 613.77 931.05 621.32 928.34 C 623.42 928.10 624.32 923.44 622.29 923.96 M 626.24 924.17 C 622.78 926.59 629.51 926.28 626.24 924.17 M 423.21 924.91 C 419.59 929.01 428.57 925.48 423.21 924.91 M 398.40 925.82 C 398.59 928.09 401.39 928.41 403.05 929.24 C 410.76 931.70 418.70 933.71 426.73 934.71 C 428.78 929.75 421.99 927.04 418.78 929.64 C 418.30 925.80 415.82 928.08 413.66 928.96 C 413.15 927.17 411.20 926.88 409.73 926.41 C 406.00 927.96 402.23 925.55 398.40 925.82 M 433.71 926.80 C 433.75 929.88 432.99 934.34 435.63 936.39 C 445.90 938.81 456.45 940.39 466.99 940.87 C 472.20 941.35 468.53 934.60 468.12 931.85 C 464.59 930.62 460.18 929.87 457.36 932.94 C 457.28 932.26 457.12 930.89 457.04 930.21 C 450.20 930.02 443.30 927.49 436.51 928.91 C 437.06 932.48 442.16 928.96 443.59 931.77 C 441.12 931.80 437.08 932.93 435.93 929.91 C 435.12 928.97 435.47 926.34 433.71 926.80 M 678.12 927.16 C 679.19 931.41 682.95 926.47 678.12 927.16 M 359.28 928.26 C 355.09 931.35 362.38 930.84 359.28 928.26 M 375.33 927.96 C 377.08 931.22 381.09 932.09 384.17 933.68 C 386.91 934.57 390.29 936.87 392.98 934.77 C 388.14 930.69 381.56 928.60 375.33 927.96 M 584.05 928.02 C 583.19 929.28 582.49 930.64 581.66 931.93 C 580.03 929.45 575.15 927.97 574.31 931.82 C 572.74 931.06 569.35 927.06 570.74 930.97 C 572.80 936.60 566.37 926.94 567.53 931.83 C 568.01 934.93 564.52 928.82 564.36 932.07 C 564.06 934.61 562.72 933.39 561.47 932.24 C 559.73 933.68 559.16 933.40 557.32 932.38 C 555.73 934.99 554.66 938.03 554.94 941.13 C 564.38 941.22 573.75 939.11 583.09 937.73 C 586.46 937.13 591.72 935.84 590.67 931.27 C 588.39 930.39 585.92 931.14 583.56 930.95 C 584.52 929.75 587.93 927.72 584.05 928.02 M 588.16 928.19 C 586.61 931.16 591.55 928.41 588.16 928.19 M 646.35 928.48 C 641.42 930.22 634.86 930.62 631.59 934.98 C 637.79 934.08 644.25 932.06 649.18 928.09 C 648.47 928.19 647.06 928.38 646.35 928.48 M 667.36 928.11 C 663.81 930.56 670.75 930.04 667.36 928.11 M 686.96 928.01 C 686.12 932.63 691.55 927.19 686.96 928.01 M 703.22 928.36 C 702.35 933.06 707.53 929.03 703.22 928.36 M 338.04 929.21 C 336.52 932.18 341.38 929.48 338.04 929.21 M 674.17 929.20 C 673.89 933.01 678.33 928.71 674.17 929.20 M 352.91 930.41 C 352.49 934.91 357.58 930.96 352.91 930.41 M 545.26 931.31 C 543.93 932.33 542.93 934.26 541.04 934.20 C 535.81 932.31 530.05 933.46 524.81 934.49 C 520.30 933.35 515.53 933.21 510.99 934.19 C 499.61 933.65 488.01 933.36 476.91 931.93 C 475.50 934.78 475.69 938.37 476.52 941.37 C 478.26 942.77 480.82 942.40 482.95 942.66 C 501.30 943.22 519.67 943.12 538.02 942.68 C 541.31 942.44 544.95 942.73 547.86 940.92 C 548.59 938.45 548.62 935.86 548.62 933.33 C 546.49 934.31 545.73 932.50 545.26 931.31 M 670.21 930.92 C 670.65 932.67 671.19 934.38 671.72 936.12 C 673.38 934.15 672.78 931.59 670.21 930.92 M 400.23 935.34 C 397.90 937.91 403.44 939.85 405.65 940.48 C 413.32 942.26 421.16 945.99 429.10 945.13 C 429.78 941.84 425.44 941.47 423.31 940.54 C 415.68 938.61 408.05 936.23 400.23 935.34 M 623.34 935.46 C 614.29 937.65 605.09 939.13 596.02 941.16 C 594.91 942.73 593.96 946.16 597.00 945.55 C 605.73 944.23 614.55 942.25 622.64 938.63 C 624.61 938.23 626.90 934.33 623.34 935.46 M 665.21 936.26 C 661.62 938.59 668.22 938.61 665.21 936.26 M 380.82 941.00 C 379.08 943.04 385.76 944.22 381.55 946.07 C 384.95 951.31 392.12 951.73 397.04 955.13 C 396.75 951.75 397.23 947.17 393.79 945.22 C 389.64 943.35 385.17 942.29 380.82 941.00 M 436.26 942.36 C 434.13 943.82 435.82 947.41 438.03 947.95 C 473.05 956.51 509.35 953.15 545.02 952.80 C 558.44 952.57 571.92 951.49 584.95 948.20 C 587.51 947.81 590.72 945.10 588.74 942.44 C 538.24 948.97 486.74 949.04 436.26 942.36 M 640.18 942.24 C 636.57 944.53 643.17 944.62 640.18 942.24 M 642.18 943.40 C 640.04 947.15 645.75 944.45 642.18 943.40 M 629.90 944.95 C 630.15 947.92 632.83 949.89 635.07 951.51 C 637.37 950.97 639.66 948.65 638.84 946.13 C 636.23 944.61 636.29 947.40 636.62 949.11 C 633.80 948.96 632.21 946.22 629.90 944.95 M 619.19 947.39 C 612.20 949.10 605.17 950.74 598.01 951.59 C 592.00 951.51 591.97 959.03 590.91 963.33 C 597.35 963.67 604.14 961.57 609.65 958.55 C 614.93 960.02 613.81 950.29 619.06 953.17 C 622.51 954.02 615.94 949.81 619.34 949.57 C 622.21 949.14 622.53 946.09 619.19 947.39 M 404.27 948.54 C 402.91 950.01 404.62 956.15 407.57 957.44 C 415.62 960.34 424.07 962.21 432.51 963.59 C 432.74 959.14 431.51 952.20 425.94 951.89 C 418.74 950.63 411.55 949.16 404.27 948.54 M 270.32 949.45 C 262.46 950.56 254.73 954.42 250.17 961.09 C 244.98 968.83 242.82 980.91 249.57 988.27 C 250.74 981.12 250.65 971.99 256.24 966.91 C 255.91 976.34 256.15 987.00 263.84 993.80 C 264.65 987.52 264.56 981.02 266.83 975.03 C 269.33 968.14 275.66 962.79 282.87 961.52 C 279.49 966.28 273.53 969.77 273.42 976.29 C 272.87 981.61 272.23 990.37 278.92 991.97 C 292.74 992.88 306.70 991.43 320.15 988.20 C 318.71 983.34 325.96 989.74 325.87 984.93 C 325.71 981.95 327.63 984.36 328.91 984.94 C 331.81 982.42 336.54 984.43 338.48 980.13 C 339.00 987.40 346.03 974.63 344.14 980.21 C 341.29 983.02 348.30 981.31 348.79 979.99 C 346.32 976.85 341.64 977.08 339.03 973.93 C 336.39 978.56 327.81 974.19 329.64 969.38 C 312.64 957.08 291.88 946.83 270.32 949.45 M 628.27 949.41 C 626.66 950.86 626.52 953.24 626.02 955.22 C 628.39 954.81 629.32 948.75 628.27 949.41 M 741.31 949.46 C 729.11 950.27 718.05 955.96 707.33 961.35 C 703.14 963.73 698.51 965.69 695.17 969.27 C 697.38 972.62 692.63 970.65 690.95 971.31 C 687.70 973.15 683.79 974.77 681.48 977.54 C 685.21 980.71 678.92 978.41 679.08 980.93 C 683.24 981.42 687.20 983.64 691.45 982.58 C 695.33 987.04 701.70 984.72 706.25 987.55 C 708.07 988.42 710.10 987.54 712.01 987.50 C 721.82 991.23 732.73 993.03 743.26 991.44 C 750.49 991.58 751.80 982.55 751.60 977.00 C 751.63 970.37 745.74 966.63 742.40 961.72 C 748.67 961.91 752.69 967.33 756.29 971.76 C 760.88 977.49 760.38 985.19 760.41 992.10 C 768.99 987.41 769.17 976.36 769.20 967.80 C 774.59 972.69 774.47 980.93 774.97 987.69 C 783.71 979.74 778.89 965.57 771.91 958.07 C 763.94 950.31 751.98 948.59 741.31 949.46 M 438.23 953.43 C 437.45 957.76 438.74 964.85 444.00 965.95 C 453.16 968.62 462.83 969.91 472.38 969.41 C 471.89 965.81 473.99 959.20 469.10 958.20 C 458.94 955.96 448.63 954.04 438.23 953.43 M 586.31 953.43 C 577.20 954.26 568.22 956.37 559.04 956.46 C 552.61 955.55 550.84 965.62 553.76 969.42 C 562.55 969.46 571.38 967.76 579.98 966.00 C 585.55 965.23 587.19 956.94 586.31 953.43 M 616.26 955.04 C 612.45 959.43 621.73 956.37 616.26 955.04 M 484.34 958.47 C 474.73 956.01 478.17 972.61 486.04 971.30 C 505.57 971.74 525.17 971.82 544.67 970.56 C 546.49 966.79 546.28 962.40 546.67 958.32 C 525.90 958.25 505.11 958.08 484.34 958.47 M 388.14 960.19 C 389.89 964.71 397.38 965.82 402.03 966.96 C 399.91 961.67 393.05 961.08 388.14 960.19 M 633.37 960.49 C 629.37 961.90 624.55 962.70 621.69 966.05 C 626.70 964.82 633.00 964.28 636.35 959.98 C 635.61 960.11 634.12 960.36 633.37 960.49 M 611.25 966.42 C 604.21 967.96 596.80 968.38 590.11 971.16 C 588.51 971.53 586.98 974.96 589.85 974.12 C 597.69 972.47 605.87 971.53 613.27 968.35 C 616.33 966.73 613.03 965.82 611.25 966.42 M 408.85 966.66 C 409.38 969.25 412.82 969.40 414.86 970.34 C 421.55 971.92 428.24 974.51 435.20 974.18 C 436.65 972.29 433.28 971.47 432.03 971.01 C 424.42 969.10 416.72 966.94 408.85 966.66 M 330.88 970.08 C 330.72 972.89 333.41 975.31 336.13 975.43 C 336.37 972.63 333.82 969.56 330.88 970.08 M 581.28 971.51 C 536.07 976.56 490.27 977.19 445.02 972.28 C 441.14 971.21 443.31 976.90 446.11 976.72 C 471.91 982.86 498.66 982.87 525.03 981.77 C 542.94 981.04 561.19 981.04 578.65 976.55 C 580.96 976.59 584.19 971.67 581.28 971.51 M 630.38 972.46 C 627.86 974.23 625.99 976.74 623.60 978.67 C 622.41 976.57 626.00 975.58 626.64 973.82 C 622.49 973.88 621.99 979.20 618.52 980.36 C 618.76 978.64 619.50 977.07 620.00 975.44 C 617.94 976.68 613.36 981.33 618.35 981.35 C 617.23 983.34 613.92 982.53 613.52 985.15 C 619.47 983.34 624.52 979.17 629.29 975.31 C 629.89 974.87 632.08 971.01 630.38 972.46 M 394.61 972.74 C 398.15 978.36 404.07 982.46 410.07 985.17 C 408.97 982.34 407.76 979.14 404.87 977.71 C 407.85 983.48 401.41 979.92 403.81 975.94 C 400.97 974.32 397.85 973.15 394.61 972.74 M 414.49 978.22 C 413.96 979.42 415.73 981.15 416.96 980.66 C 417.72 979.36 415.75 977.52 414.49 978.22 M 677.17 978.16 C 673.57 980.50 680.28 980.39 677.17 978.16 M 420.24 979.45 C 417.97 979.45 420.42 983.01 421.89 983.28 C 427.73 985.41 434.11 985.49 440.24 986.09 C 435.63 980.99 426.84 980.90 420.24 979.45 M 602.32 979.44 C 598.51 980.37 594.58 980.35 590.73 980.89 C 591.12 982.45 592.10 983.79 592.82 985.24 C 591.06 984.29 589.77 982.72 588.08 981.70 C 586.62 983.55 584.01 986.02 585.44 988.51 C 587.86 989.97 592.71 991.29 592.95 987.20 C 596.07 989.11 597.68 983.24 600.20 987.09 C 603.22 985.36 606.96 984.59 608.47 981.05 C 606.38 981.85 602.04 983.45 605.23 980.20 C 607.90 977.45 603.91 979.21 602.32 979.44 M 416.89 983.28 C 420.05 987.69 426.97 988.50 432.05 987.80 C 427.84 985.04 421.64 985.63 416.89 983.28 M 571.33 983.46 C 564.23 984.25 557.00 984.48 550.03 986.14 C 548.22 989.02 548.03 992.65 547.55 995.96 C 555.15 995.10 562.85 994.35 570.25 992.38 C 571.75 990.68 573.28 990.26 575.01 991.91 C 575.99 988.96 578.31 986.18 578.29 983.09 C 575.96 983.06 573.64 983.26 571.33 983.46 M 446.19 984.32 C 447.14 988.36 449.60 993.05 454.18 993.64 C 461.70 994.96 469.35 995.72 476.98 995.93 C 476.63 992.80 476.20 989.66 475.34 986.64 C 465.76 985.32 455.80 983.09 446.19 984.32 M 432.74 986.78 C 433.76 990.32 438.16 990.87 441.28 991.01 C 440.65 987.48 435.67 987.26 432.74 986.78 M 485.37 987.50 C 479.42 986.73 483.80 996.32 487.83 996.38 C 503.75 998.82 520.03 997.50 536.04 996.62 C 540.76 996.64 542.32 991.25 541.79 987.43 C 523.04 986.23 504.13 986.54 485.37 987.50 M 582.48 989.22 C 582.60 993.97 587.78 987.71 582.48 989.22 M 426.32 996.44 C 424.06 996.40 425.91 998.56 426.97 998.91 C 433.81 1002.57 441.57 1004.43 449.24 1005.17 C 448.15 1003.00 446.94 999.85 444.02 1000.01 C 438.00 999.45 432.43 996.34 426.32 996.44 M 598.34 996.45 C 594.72 997.01 588.63 996.85 588.95 1002.10 C 593.02 999.88 598.77 1000.40 601.41 996.02 C 600.64 996.13 599.11 996.35 598.34 996.45 M 583.25 999.37 C 579.74 999.30 576.30 1000.90 575.68 1004.68 C 579.83 1002.82 586.83 1004.13 588.40 998.85 C 586.66 998.86 584.95 999.09 583.25 999.37 M 455.59 1002.01 C 456.82 1003.58 458.13 1005.13 459.73 1006.36 C 466.49 1006.71 473.54 1009.10 480.64 1008.61 C 481.13 1006.77 480.43 1004.69 478.27 1004.56 C 470.78 1003.24 463.14 1002.89 455.59 1002.01 M 561.28 1002.41 C 556.05 1003.01 550.82 1003.68 545.64 1004.50 C 543.55 1004.62 542.56 1007.65 545.23 1007.58 C 552.78 1007.77 561.25 1008.17 567.76 1003.69 C 567.75 1000.85 563.21 1002.71 561.28 1002.41 M 490.33 1005.47 C 484.55 1005.56 490.07 1008.94 492.88 1008.87 C 504.90 1010.04 517.04 1009.45 529.08 1008.79 C 531.96 1008.42 536.04 1008.69 537.08 1005.25 C 521.55 1004.01 505.86 1004.46 490.33 1005.47 Z" />
<path fill="#000000" opacity="1.00" d=" M 808.22 170.42 C 811.85 171.32 806.05 174.16 808.22 170.42 Z" />
<path fill="#000000" opacity="1.00" d=" M 422.21 174.77 C 425.39 176.60 418.80 177.69 422.21 174.77 Z" />
<path fill="#000000" opacity="1.00" d=" M 423.99 178.36 C 427.32 178.44 422.32 181.39 423.99 178.36 Z" />
<path fill="#000000" opacity="1.00" d=" M 598.37 179.19 C 600.95 178.33 598.96 181.82 597.54 181.80 C 595.86 181.58 597.38 179.37 598.37 179.19 Z" />
<path fill="#000000" opacity="1.00" d=" M 604.41 181.20 C 605.49 180.55 608.00 181.41 607.70 182.87 C 606.62 183.57 604.14 182.60 604.41 181.20 Z" />
<path fill="#000000" opacity="1.00" d=" M 599.82 181.99 C 601.86 183.14 604.91 184.18 605.06 186.92 C 603.03 185.67 600.47 184.52 599.82 181.99 Z" />
<path fill="#000000" opacity="1.00" d=" M 807.22 184.05 C 811.08 182.43 803.38 188.04 806.94 189.23 C 810.14 191.47 804.20 194.06 807.42 196.73 C 802.86 196.22 807.33 191.07 804.30 189.16 C 804.87 187.29 805.82 185.45 807.22 184.05 Z" />
<path fill="#000000" opacity="1.00" d=" M 424.44 185.31 C 427.79 182.92 423.32 188.16 426.31 189.39 C 424.12 188.71 419.97 186.24 424.44 185.31 Z" />
<path fill="#000000" opacity="1.00" d=" M 598.48 186.09 C 603.09 185.18 598.96 190.52 598.48 186.09 Z" />
<path fill="#000000" opacity="1.00" d=" M 413.00 187.53 C 417.03 186.89 412.40 191.47 413.00 187.53 Z" />
<path fill="#000000" opacity="1.00" d=" M 215.96 188.34 C 219.61 190.98 214.21 193.17 215.96 188.34 Z" />
<path fill="#000000" opacity="1.00" d=" M 426.25 192.44 C 428.70 191.04 426.02 194.37 425.19 194.22 C 421.77 195.17 415.98 201.44 416.38 194.70 C 419.95 195.56 422.83 193.03 426.25 192.44 Z" />
<path fill="#000000" opacity="1.00" d=" M 252.22 193.11 C 256.89 192.37 252.87 197.51 252.22 193.11 Z" />
<path fill="#000000" opacity="1.00" d=" M 429.01 194.30 C 433.00 193.82 428.21 198.28 429.01 194.30 Z" />
<path fill="#000000" opacity="1.00" d=" M 217.14 195.28 C 220.47 195.32 215.54 198.34 217.14 195.28 Z" />
<path fill="#000000" opacity="1.00" d=" M 424.21 197.07 C 429.08 197.31 420.38 200.74 424.21 197.07 Z" />
<path fill="#000000" opacity="1.00" d=" M 795.32 196.96 C 799.23 195.90 794.02 201.13 795.32 196.96 Z" />
<path fill="#000000" opacity="1.00" d=" M 801.72 196.86 C 803.62 197.50 807.76 196.95 806.91 200.10 C 804.81 199.75 803.01 198.51 801.72 196.86 Z" />
<path fill="#000000" opacity="1.00" d=" M 610.15 198.03 C 613.48 200.08 606.56 200.38 610.15 198.03 Z" />
<path fill="#000000" opacity="1.00" d=" M 218.46 199.21 C 220.32 198.31 221.06 202.62 219.24 202.78 C 218.16 202.07 217.72 200.30 218.46 199.21 Z" />
<path fill="#000000" opacity="1.00" d=" M 247.44 201.15 C 251.08 199.33 248.59 204.94 247.44 201.15 Z" />
<path fill="#000000" opacity="1.00" d=" M 775.24 201.51 C 779.36 199.99 773.76 205.55 775.24 201.51 Z" />
<path fill="#000000" opacity="1.00" d=" M 227.01 203.84 C 228.86 206.12 232.41 210.93 227.31 210.98 C 229.61 208.51 225.69 206.52 227.01 203.84 Z" />
<path fill="#000000" opacity="1.00" d=" M 245.42 204.02 C 250.03 202.70 244.22 208.67 245.42 204.02 Z" />
<path fill="#000000" opacity="1.00" d=" M 800.04 204.19 C 801.43 203.69 804.07 205.09 803.71 206.72 C 802.32 206.94 799.98 205.69 800.04 204.19 Z" />
<path fill="#000000" opacity="1.00" d=" M 221.37 205.20 C 223.20 204.34 225.48 207.99 223.28 208.68 C 222.41 207.79 221.44 206.44 221.37 205.20 Z" />
<path fill="#000000" opacity="1.00" d=" M 791.26 207.14 C 795.64 207.42 787.30 211.20 791.26 207.14 Z" />
<path fill="#000000" opacity="1.00" d=" M 232.46 209.14 C 236.79 209.81 231.30 213.76 232.46 209.14 Z" />
<path fill="#000000" opacity="1.00" d=" M 432.14 211.52 C 436.38 211.54 430.38 216.27 432.14 211.52 Z" />
<path fill="#000000" opacity="1.00" d=" M 418.27 212.05 C 421.73 213.95 414.78 214.51 418.27 212.05 Z" />
<path fill="#000000" opacity="1.00" d=" M 480.93 270.84 C 484.79 273.64 486.55 278.55 488.37 282.80 C 485.14 279.45 483.42 274.79 480.93 270.84 Z" />
<path fill="#000000" opacity="1.00" d=" M 541.32 272.38 L 542.03 271.66 C 540.38 275.69 538.79 280.00 535.89 283.31 C 537.02 279.41 538.86 275.61 541.32 272.38 Z" />
<path fill="#000000" opacity="1.00" d=" M 756.13 277.06 C 759.50 277.19 754.48 280.05 756.13 277.06 Z" />
<path fill="#000000" opacity="1.00" d=" M 277.76 292.84 C 280.08 294.17 282.29 296.07 283.19 298.68 C 280.78 297.42 278.79 295.36 277.76 292.84 Z" />
<path fill="#000000" opacity="1.00" d=" M 293.41 294.05 C 297.45 293.29 292.82 297.99 293.41 294.05 Z" />
<path fill="#000000" opacity="1.00" d=" M 738.37 294.99 C 742.85 293.78 737.11 299.77 738.37 294.99 Z" />
<path fill="#000000" opacity="1.00" d=" M 286.17 296.42 C 287.38 295.98 289.16 297.69 288.63 298.93 C 287.32 299.69 285.55 297.68 286.17 296.42 Z" />
<path fill="#000000" opacity="1.00" d=" M 272.20 298.33 C 275.57 298.33 270.63 301.40 272.20 298.33 Z" />
<path fill="#000000" opacity="1.00" d=" M 279.22 299.23 C 280.51 298.70 282.23 300.63 281.72 301.89 C 280.40 302.43 278.74 300.49 279.22 299.23 Z" />
<path fill="#000000" opacity="1.00" d=" M 285.20 300.24 C 289.07 299.84 284.63 304.38 285.20 300.24 Z" />
<path fill="#000000" opacity="1.00" d=" M 290.54 301.11 C 291.89 300.35 295.08 301.77 293.98 303.56 C 292.59 304.22 290.45 302.53 290.54 301.11 Z" />
<path fill="#000000" opacity="1.00" d=" M 296.37 301.12 C 300.29 300.07 295.12 305.25 296.37 301.12 Z" />
<path fill="#000000" opacity="1.00" d=" M 288.16 304.18 C 289.85 302.59 293.94 308.51 290.50 306.50 C 286.89 304.59 289.80 308.43 290.14 310.13 C 287.83 309.16 284.65 305.83 288.16 304.18 Z" />
<path fill="#000000" opacity="1.00" d=" M 295.37 304.28 C 295.73 304.30 296.44 304.35 296.80 304.37 C 294.57 308.90 291.63 313.13 288.85 317.34 C 290.02 312.58 292.72 308.34 295.37 304.28 Z" />
<path fill="#000000" opacity="1.00" d=" M 323.44 307.26 C 325.98 306.28 324.17 310.00 322.63 309.88 C 321.08 309.59 322.56 307.53 323.44 307.26 Z" />
<path fill="#000000" opacity="1.00" d=" M 287.38 312.18 C 290.30 314.87 283.32 315.61 287.38 312.18 Z" />
<path fill="#000000" opacity="1.00" d=" M 281.17 313.44 C 285.04 313.19 280.70 317.51 281.17 313.44 Z" />
<path fill="#000000" opacity="1.00" d=" M 739.50 313.93 C 743.37 313.23 738.92 318.04 739.50 313.93 Z" />
<path fill="#000000" opacity="1.00" d=" M 662.28 316.22 C 663.66 315.86 666.12 317.18 666.10 318.68 C 664.66 319.12 662.14 317.83 662.28 316.22 Z" />
<path fill="#000000" opacity="1.00" d=" M 705.26 316.24 C 705.87 316.86 705.87 316.86 705.26 316.24 Z" />
<path fill="#000000" opacity="1.00" d=" M 262.36 317.16 C 266.88 316.81 262.84 321.83 262.36 317.16 Z" />
<path fill="#000000" opacity="1.00" d=" M 757.53 319.67 C 761.63 316.46 756.15 322.35 759.14 324.50 C 755.95 324.43 757.71 327.14 757.97 328.96 C 756.88 328.73 753.87 325.68 754.65 328.13 C 756.23 332.71 750.52 328.03 750.22 325.91 C 752.18 323.34 754.87 321.45 757.53 319.67 Z" />
<path fill="#000000" opacity="1.00" d=" M 668.93 320.03 C 671.50 320.21 673.84 321.92 675.11 324.12 C 672.62 323.56 670.66 321.80 668.93 320.03 Z" />
<path fill="#000000" opacity="1.00" d=" M 266.41 320.82 C 270.66 322.48 273.97 326.21 278.87 326.19 C 278.53 327.97 277.21 331.11 275.27 328.74 C 272.14 325.16 275.08 333.59 272.42 330.62 C 273.17 325.88 269.02 323.86 266.41 320.82 Z" />
<path fill="#000000" opacity="1.00" d=" M 310.49 321.41 C 313.69 320.34 308.24 325.27 306.83 326.10 C 307.84 324.39 308.99 322.73 310.49 321.41 Z" />
<path fill="#000000" opacity="1.00" d=" M 709.31 320.97 C 713.27 320.78 708.92 324.97 709.31 320.97 Z" />
<path fill="#000000" opacity="1.00" d=" M 760.26 321.17 C 763.65 321.44 758.64 324.12 760.26 321.17 Z" />
<path fill="#000000" opacity="1.00" d=" M 771.40 322.43 C 774.04 323.17 768.32 325.48 769.81 326.68 C 772.47 329.48 767.95 327.19 767.50 325.81 C 768.52 324.40 769.97 323.39 771.40 322.43 Z" />
<path fill="#000000" opacity="1.00" d=" M 275.45 332.26 C 276.68 331.46 278.83 333.15 277.83 334.48 C 276.66 335.20 274.94 333.41 275.45 332.26 Z" />
<path fill="#000000" opacity="1.00" d=" M 723.99 335.22 C 725.61 334.55 727.20 338.29 725.34 338.70 C 724.15 338.17 723.24 336.40 723.99 335.22 Z" />
<path fill="#000000" opacity="1.00" d=" M 620.40 343.53 C 626.92 342.41 633.15 347.93 634.75 353.93 C 637.35 364.64 623.48 374.49 614.49 367.48 C 604.92 361.24 608.67 344.24 620.40 343.53 Z" />
<path fill="#000000" opacity="1.00" d=" M 397.14 344.34 C 403.97 342.01 413.38 345.44 414.65 353.19 C 417.04 362.72 406.38 373.31 396.99 368.88 C 387.01 364.81 386.73 347.99 397.14 344.34 Z" />
<path fill="#000000" opacity="1.00" d=" M 819.18 359.02 C 821.04 359.39 821.03 361.56 821.23 363.06 C 821.51 371.99 823.25 381.14 827.81 388.92 C 833.60 396.78 843.69 399.62 852.92 400.89 C 854.57 400.70 857.45 403.05 854.33 403.38 C 843.61 405.85 831.48 409.54 825.98 420.00 C 821.64 427.02 822.64 435.61 820.06 443.14 L 819.05 443.36 C 816.77 432.46 815.50 420.18 807.00 412.00 C 800.26 405.59 790.41 405.97 782.11 403.17 C 789.83 399.46 799.79 399.88 806.54 393.62 C 816.54 385.02 816.28 370.75 819.18 359.02 Z" />
<path fill="#000000" opacity="1.00" d=" M 204.27 360.42 L 204.68 359.92 C 207.88 370.60 207.50 382.96 215.13 391.89 C 222.05 398.49 231.95 399.89 240.77 402.46 C 241.22 404.59 237.97 403.90 236.64 404.51 C 226.15 405.45 214.85 410.45 210.75 420.82 C 206.69 428.29 206.28 436.81 205.02 444.97 L 204.08 444.93 C 201.16 434.37 201.49 422.00 193.48 413.52 C 186.64 406.21 175.85 406.56 167.25 402.76 C 167.10 402.37 166.80 401.59 166.65 401.20 C 175.56 400.45 184.92 398.68 192.25 393.28 C 201.61 384.87 200.23 371.13 204.27 360.42 Z" />
<path fill="#000000" opacity="1.00" d=" M 319.41 375.40 L 320.17 374.81 C 316.75 379.99 313.22 385.27 308.86 389.70 C 311.40 384.38 315.39 379.69 319.41 375.40 Z" />
<path fill="#000000" opacity="1.00" d=" M 707.02 378.74 C 713.38 384.22 717.73 391.91 721.97 399.11 C 716.25 392.97 712.38 385.24 707.02 378.74 Z" />
<path fill="#000000" opacity="1.00" d=" M 373.32 399.45 C 385.03 398.29 397.27 400.55 407.41 406.65 C 432.45 421.75 442.86 456.90 428.73 482.80 C 418.01 505.21 388.47 515.43 366.03 505.07 C 355.59 501.26 348.27 492.41 342.74 483.15 C 334.00 469.81 336.23 451.95 343.48 438.47 C 348.62 429.88 356.16 422.93 364.15 417.04 C 349.03 421.79 338.54 436.19 334.04 451.01 C 328.30 467.47 333.74 486.19 345.17 498.87 C 347.86 502.25 351.68 504.56 354.20 508.08 C 339.05 502.06 325.55 489.85 321.51 473.62 C 313.01 440.25 338.68 402.47 373.32 399.45 M 392.31 420.45 C 384.61 420.62 377.81 427.37 377.38 435.03 C 376.79 443.98 384.97 452.52 394.01 451.98 C 402.84 452.00 411.21 444.00 409.85 434.90 C 409.12 426.25 400.47 420.53 392.31 420.45 M 373.13 452.14 C 370.25 453.83 370.53 457.96 371.43 460.69 C 375.16 463.86 382.77 460.31 381.23 455.07 C 379.46 452.70 376.06 450.48 373.13 452.14 M 351.34 461.39 C 347.43 462.92 349.52 470.25 354.02 468.70 C 359.81 468.23 357.14 457.80 351.34 461.39 M 362.13 480.31 C 357.71 482.08 355.30 487.66 357.19 492.07 C 359.46 497.11 366.69 500.20 371.30 496.31 C 373.97 494.00 377.04 489.84 374.68 486.32 C 372.08 482.35 367.15 478.18 362.13 480.31 Z" />
<path fill="#000000" opacity="1.00" d=" M 633.27 400.41 C 649.23 397.83 666.16 400.59 679.03 410.86 C 700.87 426.43 711.08 458.33 698.71 482.82 C 693.80 494.42 682.99 502.29 671.76 507.13 C 673.22 503.98 676.39 502.17 678.65 499.65 C 691.09 487.20 695.38 467.75 690.13 451.05 C 685.31 435.84 674.44 421.57 658.96 416.22 C 660.70 420.19 665.63 421.44 668.50 424.52 C 684.84 437.41 692.59 461.39 683.66 480.74 C 672.46 505.13 640.01 516.54 616.09 504.27 C 603.61 496.89 593.61 484.59 590.56 470.24 C 587.09 454.27 589.89 436.80 599.29 423.29 C 607.14 411.69 619.61 403.42 633.27 400.41 M 628.30 420.43 C 622.62 421.93 617.91 426.44 615.65 431.81 C 612.39 441.27 620.65 453.09 631.03 451.74 C 642.11 451.84 650.20 438.65 645.31 428.79 C 642.02 423.00 634.85 419.69 628.30 420.43 M 646.21 452.36 C 642.03 453.46 643.06 460.92 647.19 461.68 C 651.60 462.73 654.37 456.51 651.66 453.38 C 650.02 452.43 648.06 452.23 646.21 452.36 M 668.05 461.05 C 666.05 462.52 665.60 466.05 666.90 468.10 C 669.98 470.15 675.30 466.82 674.08 463.03 C 673.46 460.47 670.08 460.04 668.05 461.05 M 655.39 480.44 C 650.47 482.28 647.41 488.77 650.65 493.34 C 652.85 496.07 656.14 498.98 659.94 498.11 C 667.64 498.00 671.31 486.39 665.41 481.63 C 662.64 479.46 658.59 479.18 655.39 480.44 Z" />
<path fill="#000000" opacity="1.00" d=" M 281.28 440.13 C 282.42 438.08 284.49 442.68 284.14 444.11 C 282.37 443.64 281.12 441.97 281.28 440.13 Z" />
<path fill="#000000" opacity="1.00" d=" M 502.30 493.46 C 510.88 492.67 519.71 492.90 528.07 495.15 C 536.44 497.45 543.57 505.17 543.74 514.03 C 540.93 526.27 529.62 534.59 518.28 538.48 C 516.88 545.86 518.09 554.71 523.66 560.36 C 537.02 573.76 563.08 571.59 573.77 555.81 C 577.50 550.63 574.54 543.67 577.15 538.25 C 583.18 537.82 586.73 544.72 587.00 549.97 C 586.72 559.39 581.56 568.40 573.88 573.78 C 560.06 583.61 540.65 585.12 525.53 577.45 C 520.30 574.94 516.45 570.52 512.01 566.95 C 508.48 568.92 506.02 572.48 502.54 574.62 C 492.61 581.87 479.78 582.54 467.95 581.90 C 450.86 579.70 434.07 563.38 438.33 545.14 C 438.71 540.41 445.86 536.13 448.90 540.90 C 444.39 550.52 451.85 561.23 460.43 565.53 C 471.84 570.89 486.61 570.63 497.06 563.18 C 504.70 557.65 506.90 547.45 505.71 538.54 C 494.03 534.89 482.69 526.21 479.68 513.89 C 479.17 502.03 491.94 494.83 502.30 493.46 M 503.32 501.45 C 500.37 501.73 496.20 501.58 495.05 505.00 C 494.93 507.37 497.43 508.75 499.32 509.58 C 506.16 511.94 513.60 511.28 520.67 510.55 C 523.96 509.98 528.34 509.27 529.60 505.64 C 529.78 503.24 526.87 502.26 524.96 501.92 C 517.80 500.90 510.52 501.11 503.32 501.45 M 509.29 515.86 C 508.24 518.14 504.88 517.06 505.29 520.83 C 510.91 524.59 507.36 515.79 512.89 515.41 C 511.57 510.80 505.26 518.42 506.36 511.94 C 503.98 514.35 505.36 518.52 509.29 515.86 M 522.30 513.08 C 517.80 516.38 525.88 516.18 522.30 513.08 M 516.37 514.10 C 515.30 518.74 521.05 512.97 516.37 514.10 M 501.06 518.50 C 500.40 522.32 505.21 517.57 501.06 518.50 M 512.47 519.10 C 511.55 520.83 515.41 522.02 515.75 520.23 C 515.35 518.99 513.50 518.08 512.47 519.10 M 523.24 519.19 C 519.46 522.63 528.16 519.52 523.24 519.19 M 511.40 522.32 C 511.01 523.91 514.12 526.10 514.86 523.92 C 514.58 522.52 512.56 522.27 511.40 522.32 Z" />
<path fill="#000000" opacity="1.00" d=" M 509.29 515.86 C 509.75 515.21 509.75 515.21 509.29 515.86 Z" />
<path fill="#000000" opacity="1.00" d=" M 330.35 531.45 C 335.70 530.41 342.38 531.99 345.17 537.06 C 346.96 540.58 343.69 544.53 340.10 544.86 C 334.49 545.77 326.52 545.94 323.70 539.92 C 321.93 535.60 326.46 531.98 330.35 531.45 Z" />
<path fill="#000000" opacity="1.00" d=" M 687.33 531.44 C 693.02 529.58 701.26 532.03 701.03 539.11 C 699.15 545.15 691.38 545.69 686.06 545.25 C 682.02 545.33 678.32 541.31 679.37 537.28 C 680.49 533.90 684.06 532.13 687.33 531.44 Z" />
<path fill="#000000" opacity="1.00" d=" M 788.57 574.05 C 792.14 577.26 787.11 582.13 784.73 584.75 C 786.00 581.15 788.78 578.08 788.57 574.05 Z" />
<path fill="#000000" opacity="1.00" d=" M 748.86 682.36 C 753.02 681.79 748.24 686.20 748.86 682.36 Z" />
<path fill="#000000" opacity="1.00" d=" M 654.31 785.19 C 654.92 785.81 654.92 785.81 654.31 785.19 Z" />
<path fill="#000000" opacity="1.00" d=" M 751.33 785.34 C 752.73 785.97 751.63 789.61 750.13 789.59 C 749.33 788.23 750.21 786.25 751.33 785.34 Z" />
<path fill="#000000" opacity="1.00" d=" M 278.51 793.25 C 280.83 792.34 279.57 795.73 278.92 796.63 C 277.03 796.98 276.40 793.49 278.51 793.25 Z" />
<path fill="#000000" opacity="1.00" d=" M 747.27 795.18 C 750.04 797.97 743.13 798.61 747.27 795.18 Z" />
<path fill="#000000" opacity="1.00" d=" M 421.12 798.25 C 426.58 796.34 421.04 802.93 421.12 798.25 Z" />
<path fill="#000000" opacity="1.00" d=" M 744.02 800.26 C 748.03 799.06 743.03 804.29 744.02 800.26 Z" />
<path fill="#000000" opacity="1.00" d=" M 243.25 801.43 C 246.64 803.76 240.88 806.15 243.25 801.43 Z" />
<path fill="#000000" opacity="1.00" d=" M 747.21 801.38 C 747.82 801.98 747.82 801.98 747.21 801.38 Z" />
<path fill="#000000" opacity="1.00" d=" M 286.16 803.35 C 286.89 802.21 291.55 802.22 288.96 803.57 C 284.11 805.99 295.47 804.48 290.51 806.35 C 288.82 808.47 284.73 804.56 286.16 803.35 Z" />
<path fill="#000000" opacity="1.00" d=" M 413.54 804.05 C 414.96 802.11 416.75 808.32 414.60 810.13 C 414.49 808.05 414.00 806.05 413.54 804.05 Z" />
<path fill="#000000" opacity="1.00" d=" M 418.44 804.28 C 421.49 802.80 418.57 807.61 418.44 804.28 Z" />
<path fill="#000000" opacity="1.00" d=" M 589.25 804.38 C 595.18 802.32 601.70 807.02 602.43 813.07 C 603.88 822.35 599.37 833.89 589.61 836.52 C 584.16 837.54 578.58 834.98 574.44 831.58 C 570.29 828.28 571.64 821.40 575.96 818.87 C 578.34 817.24 582.67 816.75 582.32 812.95 C 582.18 808.76 585.36 805.44 589.25 804.38 M 590.10 809.30 C 588.76 809.80 586.67 811.18 587.71 812.85 C 589.52 816.84 591.88 822.10 596.70 822.83 C 599.29 817.62 598.38 806.59 590.10 809.30 M 580.18 822.34 C 578.93 822.71 577.77 823.56 577.52 824.92 C 578.40 831.17 587.75 832.35 591.66 828.59 C 591.17 823.65 584.54 820.96 580.18 822.34 Z" />
<path fill="#000000" opacity="1.00" d=" M 292.30 807.18 C 296.99 807.45 288.53 810.86 292.30 807.18 Z" />
<path fill="#000000" opacity="1.00" d=" M 408.48 807.20 C 410.27 806.78 413.02 810.20 411.05 811.34 C 409.77 810.49 408.88 808.58 408.48 807.20 Z" />
<path fill="#000000" opacity="1.00" d=" M 735.89 808.69 C 740.96 807.64 737.00 812.70 735.89 808.69 Z" />
<path fill="#000000" opacity="1.00" d=" M 297.40 811.36 C 299.19 810.60 302.75 814.72 299.05 814.94 C 295.74 816.72 293.71 812.51 297.40 811.36 Z" />
<path fill="#000000" opacity="1.00" d=" M 782.28 812.34 C 783.69 812.56 783.67 816.32 782.30 816.60 C 781.53 815.37 781.52 813.55 782.28 812.34 Z" />
<path fill="#000000" opacity="1.00" d=" M 716.27 817.45 C 719.47 819.94 713.67 822.17 716.27 817.45 Z" />
<path fill="#000000" opacity="1.00" d=" M 298.69 818.01 C 301.53 819.08 304.14 822.09 307.37 820.26 C 305.54 824.04 300.24 820.53 298.69 818.01 Z" />
<path fill="#000000" opacity="1.00" d=" M 709.97 819.24 C 714.14 818.74 709.73 823.05 709.97 819.24 Z" />
<path fill="#000000" opacity="1.00" d=" M 719.26 819.21 C 724.18 818.52 720.41 823.41 719.26 819.21 Z" />
<path fill="#000000" opacity="1.00" d=" M 315.36 822.00 C 319.86 820.75 314.07 826.77 315.36 822.00 Z" />
<path fill="#000000" opacity="1.00" d=" M 713.87 823.28 C 715.30 822.89 717.75 824.19 717.67 825.79 C 716.28 826.17 713.73 824.77 713.87 823.28 Z" />
<path fill="#000000" opacity="1.00" d=" M 718.33 823.09 C 719.40 822.34 721.83 823.37 721.67 824.76 C 720.56 825.36 718.06 824.56 718.33 823.09 Z" />
<path fill="#000000" opacity="1.00" d=" M 303.45 825.32 C 307.47 824.56 301.16 830.52 303.45 825.32 Z" />
<path fill="#000000" opacity="1.00" d=" M 321.25 825.23 C 322.37 824.70 324.76 825.50 324.62 826.95 C 323.51 827.72 321.03 826.65 321.25 825.23 Z" />
<path fill="#000000" opacity="1.00" d=" M 711.22 825.27 C 716.07 824.69 712.02 829.57 711.22 825.27 Z" />
<path fill="#000000" opacity="1.00" d=" M 700.29 826.06 C 704.86 825.36 700.53 830.62 700.29 826.06 Z" />
<path fill="#000000" opacity="1.00" d=" M 689.26 827.19 C 693.42 826.78 689.05 831.04 689.26 827.19 Z" />
<path fill="#000000" opacity="1.00" d=" M 334.24 828.27 C 339.01 827.61 334.89 832.65 334.24 828.27 Z" />
<path fill="#000000" opacity="1.00" d=" M 310.08 829.15 C 311.50 828.62 313.92 830.01 313.82 831.60 C 312.45 831.95 309.96 830.66 310.08 829.15 Z" />
<path fill="#000000" opacity="1.00" d=" M 322.27 829.21 C 325.29 831.81 317.94 832.21 322.27 829.21 Z" />
<path fill="#000000" opacity="1.00" d=" M 705.41 828.81 C 708.17 831.51 701.32 832.57 705.41 828.81 Z" />
<path fill="#000000" opacity="1.00" d=" M 330.22 830.17 C 331.60 829.66 334.01 831.08 333.85 832.63 C 332.48 833.04 330.02 831.71 330.22 830.17 Z" />
<path fill="#000000" opacity="1.00" d=" M 343.30 830.01 C 346.05 832.79 339.15 833.48 343.30 830.01 Z" />
<path fill="#000000" opacity="1.00" d=" M 688.31 830.04 C 692.95 829.33 688.92 834.47 688.31 830.04 Z" />
<path fill="#000000" opacity="1.00" d=" M 708.43 830.23 C 709.68 829.78 711.80 831.37 711.07 832.74 C 709.78 833.23 708.06 831.47 708.43 830.23 Z" />
<path fill="#000000" opacity="1.00" d=" M 327.16 832.46 C 330.54 832.53 325.58 835.47 327.16 832.46 Z" />
<path fill="#000000" opacity="1.00" d=" M 318.23 833.08 C 322.30 832.34 317.83 836.96 318.23 833.08 Z" />
<path fill="#000000" opacity="1.00" d=" M 247.25 835.23 C 247.80 835.79 247.80 835.79 247.25 835.23 Z" />
<path fill="#000000" opacity="1.00" d=" M 324.21 836.77 C 327.40 838.60 320.80 839.67 324.21 836.77 Z" />
<path fill="#000000" opacity="1.00" d=" M 327.25 837.20 C 328.37 836.64 330.76 837.47 330.59 838.92 C 329.50 839.67 326.99 838.62 327.25 837.20 Z" />
<path fill="#000000" opacity="1.00" d=" M 340.16 838.45 C 344.70 837.44 339.08 843.16 340.16 838.45 Z" />
<path fill="#000000" opacity="1.00" d=" M 684.89 839.28 C 688.23 839.44 683.54 842.30 684.89 839.28 Z" />
<path fill="#000000" opacity="1.00" d=" M 338.32 842.17 C 339.46 841.45 341.49 841.83 341.97 843.21 C 341.57 844.97 337.79 843.74 338.32 842.17 Z" />
<path fill="#000000" opacity="1.00" d=" M 688.27 842.31 C 693.10 841.63 688.56 846.60 688.27 842.31 Z" />
<path fill="#000000" opacity="1.00" d=" M 679.11 843.26 C 683.79 843.76 678.82 847.80 679.11 843.26 Z" />
<path fill="#000000" opacity="1.00" d=" M 405.24 843.95 C 409.89 843.69 405.85 848.56 405.24 843.95 Z" />
<path fill="#000000" opacity="1.00" d=" M 257.15 848.34 C 260.53 848.36 255.58 851.39 257.15 848.34 Z" />
<path fill="#000000" opacity="1.00" d=" M 420.27 848.24 C 423.30 850.84 415.96 851.24 420.27 848.24 Z" />
<path fill="#000000" opacity="1.00" d=" M 420.11 853.21 C 420.72 853.82 420.72 853.82 420.11 853.21 Z" />
<path fill="#000000" opacity="1.00" d=" M 613.42 870.39 C 615.52 869.28 617.56 874.23 614.02 872.81 C 611.42 873.78 611.59 871.23 613.42 870.39 Z" />
<path fill="#000000" opacity="1.00" d=" M 761.05 877.46 C 765.07 876.02 759.95 881.55 761.05 877.46 Z" />
<path fill="#000000" opacity="1.00" d=" M 374.14 881.41 C 378.82 880.62 375.04 885.78 374.14 881.41 Z" />
<path fill="#000000" opacity="1.00" d=" M 648.27 889.94 C 653.02 890.04 644.71 893.84 648.27 889.94 Z" />
<path fill="#000000" opacity="1.00" d=" M 364.31 892.13 C 366.01 891.11 370.03 896.67 373.31 893.70 C 372.08 898.65 365.73 894.78 364.31 892.13 Z" />
<path fill="#000000" opacity="1.00" d=" M 376.00 893.01 C 379.45 893.90 379.83 898.84 375.92 899.34 C 377.23 897.26 376.96 895.13 376.00 893.01 Z" />
<path fill="#000000" opacity="1.00" d=" M 399.85 894.97 C 401.38 896.12 402.56 897.76 404.26 898.68 C 405.84 897.79 407.10 896.27 408.97 895.99 C 407.01 898.92 403.38 902.20 409.73 900.67 C 406.92 906.49 401.05 898.65 399.85 894.97 Z" />
<path fill="#000000" opacity="1.00" d=" M 696.19 897.06 C 701.03 897.32 692.48 900.74 696.19 897.06 Z" />
<path fill="#000000" opacity="1.00" d=" M 327.29 898.23 C 328.53 897.90 330.48 899.47 330.03 900.80 C 328.71 901.30 326.76 899.55 327.29 898.23 Z" />
<path fill="#000000" opacity="1.00" d=" M 414.51 899.51 C 417.07 897.16 413.65 905.79 410.88 903.08 C 411.81 901.64 413.01 900.36 414.51 899.51 Z" />
<path fill="#000000" opacity="1.00" d=" M 419.22 899.91 C 423.05 899.73 418.77 904.04 419.22 899.91 Z" />
<path fill="#000000" opacity="1.00" d=" M 693.48 901.40 C 697.19 901.00 690.13 904.76 688.27 905.03 C 689.89 907.86 686.98 909.50 684.86 910.73 C 682.54 911.62 681.73 914.59 679.12 914.90 C 680.48 911.53 683.28 907.76 686.87 906.59 C 684.56 902.00 690.77 902.63 693.48 901.40 Z" />
<path fill="#000000" opacity="1.00" d=" M 706.51 901.59 C 710.53 899.01 705.26 906.91 702.39 906.29 C 703.09 904.24 704.81 902.81 706.51 901.59 Z" />
<path fill="#000000" opacity="1.00" d=" M 712.26 902.19 C 716.23 901.17 711.09 906.24 712.26 902.19 Z" />
<path fill="#000000" opacity="1.00" d=" M 416.92 902.95 C 421.50 902.14 416.07 907.57 416.92 902.95 Z" />
<path fill="#000000" opacity="1.00" d=" M 421.57 904.13 C 425.59 903.56 420.94 908.06 421.57 904.13 Z" />
<path fill="#000000" opacity="1.00" d=" M 407.27 905.20 C 411.70 904.43 406.51 909.99 407.27 905.20 Z" />
<path fill="#000000" opacity="1.00" d=" M 415.51 905.56 C 417.10 906.40 422.03 906.78 418.62 908.76 C 416.41 909.23 412.36 908.16 411.29 905.55 C 412.73 905.76 414.74 908.01 415.51 905.56 Z" />
<path fill="#000000" opacity="1.00" d=" M 579.07 906.29 C 582.37 906.42 577.54 909.27 579.07 906.29 Z" />
<path fill="#000000" opacity="1.00" d=" M 574.18 909.40 C 577.67 910.54 572.05 913.21 574.18 909.40 Z" />
<path fill="#000000" opacity="1.00" d=" M 678.27 910.28 C 678.69 910.21 679.53 910.06 679.95 909.99 C 676.99 913.11 674.41 916.81 673.63 921.13 C 673.60 922.49 669.79 923.11 671.05 920.96 C 671.49 916.51 675.08 913.07 678.27 910.28 Z" />
<path fill="#000000" opacity="1.00" d=" M 577.92 911.29 C 581.29 911.44 576.33 914.20 577.92 911.29 Z" />
<path fill="#000000" opacity="1.00" d=" M 482.25 912.07 C 485.22 910.52 482.51 915.46 482.25 912.07 Z" />
<path fill="#000000" opacity="1.00" d=" M 538.05 912.14 C 539.62 912.62 539.80 916.12 538.30 916.65 C 537.23 915.63 536.48 912.98 538.05 912.14 Z" />
<path fill="#000000" opacity="1.00" d=" M 670.42 912.24 C 672.91 911.92 671.21 916.48 669.21 915.82 C 669.01 914.58 669.84 913.29 670.42 912.24 Z" />
<path fill="#000000" opacity="1.00" d=" M 340.11 915.08 C 344.05 913.94 338.93 919.20 340.11 915.08 Z" />
<path fill="#000000" opacity="1.00" d=" M 681.19 917.91 C 684.23 916.38 681.15 921.32 681.19 917.91 Z" />
<path fill="#000000" opacity="1.00" d=" M 668.07 918.93 C 672.01 917.88 666.91 923.02 668.07 918.93 Z" />
<path fill="#000000" opacity="1.00" d=" M 445.24 930.99 C 449.15 930.15 444.74 935.07 445.24 930.99 Z" />
<path fill="#000000" opacity="1.00" d=" M 453.13 931.60 C 456.47 931.80 451.61 934.62 453.13 931.60 Z" />
<path fill="#000000" opacity="1.00" d=" M 462.29 932.97 C 465.19 931.38 462.44 936.34 462.29 932.97 Z" />
<path fill="#000000" opacity="1.00" d=" M 419.38 958.00 C 423.94 957.07 420.27 962.44 419.38 958.00 Z" />
<path fill="#000000" opacity="1.00" d=" M 689.54 973.14 C 692.23 970.95 688.54 977.87 692.10 977.13 C 695.92 977.30 698.68 980.21 694.20 982.27 C 697.84 978.29 691.62 980.09 689.55 977.67 C 687.92 978.51 686.08 977.70 684.81 976.48 C 687.05 976.21 689.12 975.69 689.54 973.14 Z" />
<path fill="#000000" opacity="1.00" d=" M 695.19 973.45 C 698.56 973.35 693.74 976.53 695.19 973.45 Z" />
<path fill="#000000" opacity="1.00" d=" M 325.43 975.27 C 330.35 975.23 321.10 978.98 325.43 975.27 Z" />
<path fill="#000000" opacity="1.00" d=" M 699.61 974.87 C 701.47 975.40 706.50 976.31 704.70 978.85 C 704.05 975.48 699.02 978.92 699.61 974.87 Z" />
<path fill="#000000" opacity="1.00" d=" M 330.98 977.37 C 332.60 977.22 335.09 979.10 334.73 980.86 C 333.08 981.06 331.09 978.89 330.98 977.37 Z" />
<path fill="#000000" opacity="1.00" d=" M 684.40 979.21 C 689.00 978.50 685.03 983.67 684.40 979.21 Z" />
<path fill="#000000" opacity="1.00" d=" M 314.37 980.16 C 318.49 979.63 313.86 984.05 314.37 980.16 Z" />
<path fill="#000000" opacity="1.00" d=" M 310.91 981.04 C 313.22 982.10 315.37 983.86 316.24 986.34 C 313.80 985.39 312.02 983.33 310.91 981.04 Z" />
<path fill="#000000" opacity="1.00" d=" M 322.46 984.14 C 326.45 983.57 321.73 988.10 322.46 984.14 Z" />
</g>
</svg>
