<?xml version="1.0" encoding="UTF-8"?><svg id="a" xmlns="http://www.w3.org/2000/svg" viewBox="0 0 450 540"><path d="M128.95,328.74c-11.07-9.3-21.89-18.4-33.18-27.89-9.34,5.83-18.68,12.88-26.03,22.36,4.24-12.24,14.13-19.35,24.32-26.36-2.65-4.3-5.15-8.34-8.06-13.05-7.4,4.93-14.59,9.72-21.77,14.5,4.59-8.18,12.43-12.7,20.08-17.59-1.42-3.5-2.76-6.84-4.5-11.15-8.44,4.84-16.8,9.03-24.48,14.21-7.67,5.18-14.67,11.35-22.22,17.28,9.89-18.48,27.87-26.45,45.38-35.65-8.42-34.76-.71-67.61,13.21-100.14-2.09,.24-3.92,.44-5.75,.66C36.07,171.73-6.5,131.02,6.17,76.61c3.81-16.37,11.3-30.87,24.09-42.02,20.94-18.27,45.01-22.13,70.31-11.59,28.49,11.87,45.85,34.21,54.02,63.81,.86,3.11,1.6,6.25,2.51,9.79,18.2-10.48,37.73-15.32,59-16.59,2.35-8.14,4.66-16.17,7.16-24.85,4.72,7.95,6.97,16.14,7.87,26.02,2.16-3.34,3.71-5.73,5.62-8.68,1.14,2.77,2.06,5,3.15,7.63,15.67,1.03,31.14,4.14,46.27,10.42,.88-4.03,1.53-7.72,2.51-11.33,7.84-28.93,23.82-51.72,51.12-65.18,31.45-15.5,67.12-6.64,87.67,21.76,17,23.51,23.14,49.72,15.16,78.05-9.51,33.78-41.77,53.84-76.52,48.45-.74-.12-1.49-.21-2.99-.42,7.53,16.21,13.58,32.35,17.02,49.33,3.48,17.13,4.38,34.32,.15,51.88,17.52,8.11,34.81,16.55,43.54,35.7-7.11-6.13-13.58-12.51-20.86-17.76-7.21-5.2-15.24-9.26-23.44-14.14-2.43,6.1-4.42,11.11-6.4,16.1,4.98,4.14,9.9,8.22,14.82,12.31-.24,.32-.48,.63-.72,.95-5.26-3.15-10.52-6.3-15.95-9.55-2.89,4.31-5.54,8.27-8.22,12.27,8.32,6.79,18.62,11.59,20.57,23.62-5.79-8.89-14.46-14.25-22.98-19.35-8.96,7.92-17.69,15.64-26.72,23.63,13.54,26.33,25.89,53.61,26.2,84.73,11.37-20.92,14.01-45.22,25.72-66.99,1.12,1.76,1.67,2.32,1.88,2.99,7.22,22.63,8.85,45.36,1.28,68.28-6.17,18.68-22.66,34.27-44.2,36.65-4.69,4.26-9.2,8.35-14.12,12.82,1.27,.43,2.62,.68,3.74,1.31,5.18,2.88,10.85,5.22,15.32,8.97,6.09,5.12,5.35,12.75-1.67,16.55-4.87,2.63-10.68,4.42-16.2,4.79-16.94,1.13-33-3.25-48.67-9.41-2.38-.94-5.32-1.28-7.84-.89-30.88,4.79-61.71,4.85-92.57-.14-2.13-.34-4.66,.08-6.67,.92-18.21,7.66-36.86,12-56.67,8.06-2.62-.52-5.26-1.64-7.54-3.04-6.56-4.04-7.89-11.34-2.09-16.36,4.79-4.15,10.93-6.75,16.56-9.89,1.54-.86,3.39-1.16,5.33-1.79-3.42-3.67-6.97-6.91-9.84-10.66-10.98-14.35-15.17-30.86-14.88-48.7,.33-20.01,6.32-38.68,13.57-57.03,2.67-6.75,5.76-13.33,8.36-19.29Zm241.2-69.1c7.58-43.04-5.04-81.03-25.54-117.57,2.57,1.33,4.79,3,7.12,4.52,1.83,1.19,3.67,2.57,5.7,3.22,34.79,10.97,73.69-15.51,76.61-51.92,1.49-18.55-4.3-34.84-14.43-49.99-17.18-25.7-44.74-34.53-72.29-21.77-30.1,13.95-46.04,38.94-52.22,70.84,4.71,4.69,10.55,7.94,13.43,14.03-11.24-4.95-21.89-10.28-33-14.36-11.34-4.16-23.32-5.91-35.26-6.57-1.11,3.44-2.07,6.42-3.03,9.4l-1.23-.18v-13.66c-5.31,6.96-9.23,13.61-17.08,16.52,1.73-4.97,3.72-9.38,4.74-14.02,.98-4.47,.95-9.17,1.37-13.77l-1.01-.09c-6.2,18.27-17.43,28.24-25.08,29.12,3.69-4.48,7.1-8.63,11.04-13.42-25.38,3.36-48.01,11.04-67.53,26.9-.12-1.12-.02-1.76,.29-2.27,1.42-2.33,3.08-4.54,4.29-6.97,.81-1.62,1.76-3.71,1.4-5.32-5.87-26.17-19.2-47.48-42.34-61.64-22.03-13.48-51.09-13.49-70.07,8.33-14.92,17.16-22.42,36.57-17.09,59.45,6.54,28.07,31.53,47.6,60.66,47.44,9.7-.05,19.34-1.1,26.48-9.1,.83-.93,2.14-1.43,3.23-2.12-1.31,4.36-3.13,8.07-4.94,11.79-12.9,26.55-19.97,54.42-18.71,84.11,.31,7.24,1.38,14.37,4.18,21.33,12.17-3.19,24.06-4.47,36.12-1.95-11.86,.31-23.52,1.61-35.07,5.94,1.6,3.52,3.02,6.67,4.2,9.26,10.35-1.85,20.17-3.61,29.99-5.37,.07,.39,.14,.78,.21,1.17-4.67,1.09-9.39,1.99-13.99,3.31-4.69,1.35-9.26,3.11-14.4,4.87,2.75,4.3,5.11,7.98,7.36,11.48l28.31-9.02,.37,1.12c-8.43,3.77-16.86,7.54-25.67,11.48,14.61,16.71,31.62,28.39,51.34,36.11,31.1,12.18,63.37,15.25,96.36,11.52,22.31-2.52,43.7-8.41,63.39-19.51,11.73-6.61,22.3-14.78,31.68-25.43-9.28-4.8-18.24-9.43-27.21-14.07l.6-1.34c9.84,3.86,19.67,7.72,29.87,11.72,2.42-3.68,4.89-7.43,7.86-11.93-11.57-4.28-22.47-8.31-33.94-12.55,12.58,1.16,23.98,4.53,35.55,9.49,2.02-4.89,3.96-9.59,5.96-14.45-13.37-5.35-26.74-5.92-40.16-6.28,13.68-3.19,27.13-2.02,41.59,2.14Zm-109.96,109.94c-6.08,4.61-13.78,3.2-21.23,5.73,2.36,3.49,4.4,6.51,6.4,9.47,5.62-1.66,9.69-5.43,14.9-5.36,.26,.51,.51,1.02,.77,1.53-3.24,1.84-6.49,3.69-10.38,5.9,13.17,3.3,24.89,1.35,35.86-4.61,16.89-9.17,26.71-23.35,28.75-42.79,2.13,4.08,2.8,8.34,2.04,12.74-2.83,16.54-11.64,29.27-26.03,37.55-14.9,8.57-30.84,10.53-46.74,2.71-14.97-7.37-16.89-25.26-4.31-36.19,1.64-1.42,3.39-2.72,4.72-3.77h-33.11c.59,.49,1.27,1.05,1.95,1.62,14.35,12.15,11.8,31.09-5.27,39.01-7.67,3.56-15.68,4.25-24.03,3.24-23.42-2.84-43.82-22.81-46.21-45.75-.36-3.49,.46-7.11,.73-10.66l1.05,.13c5.63,39.72,46.15,54.63,64.37,45.54-3.12-2.25-7.73-2.24-9.79-5.89,.24-.5,.47-1,.71-1.49,4.6,1.78,9.19,3.56,14.58,5.66,1.88-2.79,3.81-5.67,6.04-9-7.36-2.31-14.51-1.73-20.36-5.72,6.89-1.97,13.28,.95,20.03,2.3-.82-7.2-4.98-11.49-10.72-13.84-5-2.04-10.42-3.21-15.76-4.22-8.47-1.6-17.02-2.72-23.52-9.3-.85-.86-2.31-1.13-3.51-1.62-6.97-2.87-13.95-5.73-20.93-8.59-1.62-.66-3.26-1.29-5.13-2.02-8.63,20.4-15.44,40.82-17.88,62.48-2.1,18.62,1.66,35.8,13.37,50.74,10.01,12.76,23.67,20.46,38.78,25.11,42.67,13.12,85.47,12.22,127.99-.85,11.47-3.53,22.25-8.8,31.11-17.34,16.11-15.51,20.31-34.87,18.16-56.18-1.85-18.3-7.84-35.52-14.71-52.44-1.79-4.4-3.98-8.63-6.09-13.15-2.19,1.09-3.85,1.82-5.42,2.71-12.57,7.14-27.18,9.71-39.4,17.67-1.78,1.16-4.15,1.51-6.31,1.95-4.33,.88-8.77,1.31-13.04,2.41-5.01,1.28-10.09,2.63-14.77,4.76-4.92,2.24-7.67,6.53-8.4,12.45,7.24-1.63,13.69-4.22,20.74-2.6Zm124.46-1.97h-.47c-2.42,8.48-4.65,17.02-7.31,25.43-3.66,11.56-8.12,22.72-16.01,32.28-3.52,4.27-6.18,9.26-9.77,14.73,7.53-1.46,14.96-6.57,20.26-13.2,8.06-10.09,12.14-21.82,13.17-34.47,.67-8.2,.13-16.5,.13-24.76ZM115.59,484.15c6.54-.98,13.08-1.95,19.62-2.93l.44,1.23c-1.76,1.32-3.52,2.65-5.95,4.48,13.07,.25,24.94-2.25,37.07-4.86-8.78-3.83-17.19-7.5-26.02-11.35-8.59,3.2-18.47,5.1-25.15,13.43Zm206.73-12.42c-9.37,3.74-17.97,7.17-27.3,10.89,12.09,2.01,23.29,5.08,35.78,4-2.8-1.81-4.84-3.13-6.88-4.45l.43-.9c6.44,.79,12.88,1.58,19.32,2.37,.11-.42,.22-.84,.33-1.26-6.08-6.11-14.12-8.35-21.68-10.64Z"/><path d="M329.93,225.34c-.33,12.92-6.99,23.59-17.22,26.93-7.83,2.55-14.97,.67-21.38-4.07-16.44-12.17-20.63-41.56-8.36-57.91,5.98-7.97,15.11-10.31,23.9-5.61,12.38,6.63,18.39,17.96,21.67,31.02,.79,3.13,.94,6.41,1.39,9.62Zm-26.4-5.73c5.9,.06,10.55-4.3,10.7-10.05,.17-6.26-5.72-12.54-11.91-12.7-5.74-.14-10.29,4.35-10.43,10.31-.17,7,4.85,12.37,11.63,12.44Z"/><path d="M176.45,212.72c-.38,12.22-3.82,23.3-12.43,32.32-6.45,6.75-14.19,10.15-23.6,7.35-9.79-2.91-14.83-10.2-16.65-19.78-3.03-15.99,6.79-37.93,20.52-46.52,10.56-6.61,20.99-4.01,27.18,6.81,3.51,6.13,5.11,12.74,4.97,19.82Zm-12.89-5.76c-.07-6.11-4.64-10.77-10.5-10.71-5.63,.06-11.1,5.95-11.12,11.96-.01,6.16,4.48,10.78,10.44,10.74,6.39-.05,11.25-5.26,11.17-11.99Z"/><path d="M255.54,266.02c2.97-.33,4.17,.79,3.31,4.04-1.93,7.37-5.95,13.19-13.65,15.17-7.53,1.93-13.85-.5-18.6-7.09-.76,.83-1.41,1.58-2.1,2.31-5.08,5.35-11.17,6.84-17.75,4.35-6.38-2.42-11.66-9.33-11.74-15.76-.01-1.22,1.02-2.45,1.57-3.67,.51,0,1.02,0,1.53,0,.81,1.61,1.75,3.16,2.39,4.84,1.69,4.44,4.19,8.15,8.87,9.77,6.58,2.29,13.14-2.25,14.66-10.08,.29-1.51,.29-3.09,.44-4.79-7.54-3.57-14.45-7.84-12.69-17.63,1.01-5.62,7.27-8.71,15.05-8.44,7.18,.25,12.63,3.76,13.73,8.83,1.31,6.05-2.89,12.15-11.5,16.73-1.12,7.35,1.81,13.51,7.56,15.33,4.55,1.44,9.11,.83,12.22-2.84,2.69-3.17,4.4-7.17,6.69-11.06Z"/><path d="M396.26,46.2c-8.38,0-15.78-.53-23.08,.1-23.28,1.99-39.64,17.18-42.61,39.65-1.89,14.29,2.83,26.98,11.22,38.37,3.61,4.9,7.67,9.47,11.23,14.69-2.92-2.3-5.97-4.46-8.73-6.94-12.43-11.18-20.27-24.8-20.49-41.84-.31-24.97,19.29-46.07,44.23-48.12,8.12-.67,16.12-.05,23.92,2.44,1.17,.37,2.3,.88,4.3,1.66Z"/><path d="M52.58,58.42c7.87-4.05,16.55-5.62,25.65-5.34,21.08,.65,38.97,14.71,43.68,34.33,4.79,19.98-4.61,45.38-21.09,56.88-1,.7-2.08,1.26-3.45,2.09,4.02-5.69,8.14-10.7,11.34-16.23,6.5-11.21,9.49-23.47,7.54-36.38-2.98-19.8-17.89-33.85-38.23-35.72-8.43-.77-17.03,.19-25.45,.36Z"/><path d="M285.62,164.37c-3.03-4.97-.98-10.35,4.09-11.97,4.86-1.56,9.56-.84,13.95,1.54,9.29,5.05,14.05,13.39,16.53,23.52-9.39-10.18-19.63-17.95-34.56-13.09Z"/><path d="M165.9,163.77c-14.1-4.58-23.77,2.84-32.34,13.47-.04-13.1,13.67-26.63,25.57-25.74,6.84,.51,10.51,6.63,6.76,12.27Z"/><path d="M335.16,373.99c11.04,32.59,0,73.59-28.98,88.21,11.78-12.23,19.94-25.76,24.97-41.15,5.02-15.36,5.41-31.11,4.01-47.06Z"/></svg>