<svg viewBox="0 0 100 100" version="1.1" xmlns="http://www.w3.org/2000/svg"><g transform="translate(3.221238938053098, 1) scale(0.10411244143675169) translate(-64.58, -42.21)"><path fill="#000000" opacity="1.00" d=" M 541.33 43.46 C 560.20 42.21 579.14 42.43 598.02 43.27 C 669.88 46.23 741.90 69.51 798.72 114.27 C 833.31 142.11 861.01 177.80 882.63 216.41 C 887.25 225.16 897.44 228.22 904.39 234.68 C 939.08 263.94 957.42 311.03 952.77 356.07 C 949.42 389.50 932.78 421.42 907.22 443.26 C 905.28 445.22 902.53 446.56 901.12 448.93 C 900.50 470.95 901.44 493.05 899.66 515.03 C 895.70 546.32 887.59 577.12 875.39 606.20 C 872.94 610.92 879.39 610.19 882.10 611.23 C 912.58 617.90 936.71 642.24 948.50 670.44 C 963.20 706.31 956.32 750.94 929.14 779.13 C 908.93 802.08 878.86 816.98 847.99 816.04 C 826.52 817.34 805.37 810.78 786.89 800.21 C 772.42 791.81 760.79 779.41 749.97 766.85 C 747.86 766.74 741.95 767.28 744.43 770.62 C 752.66 787.90 758.83 806.16 763.45 824.72 C 768.78 852.41 768.64 882.44 756.37 908.36 C 749.43 923.24 737.27 934.55 726.05 946.14 C 730.55 940.81 736.68 945.22 741.99 946.81 C 744.51 947.74 748.38 949.51 746.83 952.92 C 744.18 956.68 739.40 957.94 735.30 959.45 C 716.26 965.52 696.24 967.34 676.93 972.31 C 661.47 976.00 644.11 977.04 629.68 969.31 C 626.45 967.86 623.82 964.22 619.91 965.22 C 591.21 968.32 562.29 967.71 533.49 968.50 C 525.63 974.27 516.99 979.49 507.13 980.85 C 493.06 983.50 479.22 977.00 468.34 968.57 C 440.61 967.49 412.71 968.43 385.09 965.16 C 382.35 964.68 380.44 967.13 378.21 968.25 C 364.54 976.83 347.39 976.04 332.14 973.18 C 309.42 967.19 285.74 964.74 263.69 956.37 C 261.37 955.16 256.19 953.60 258.13 950.22 C 263.29 945.07 271.19 944.60 278.07 944.68 C 269.55 934.33 258.23 926.09 251.96 913.98 C 245.51 901.36 239.65 887.94 238.49 873.66 C 237.95 857.20 237.50 840.48 241.51 824.38 C 245.85 806.71 250.77 789.06 258.49 772.53 C 260.41 769.57 256.14 768.76 254.30 767.63 C 226.33 756.30 199.36 741.47 177.17 720.80 C 156.05 700.96 141.25 674.86 133.89 646.92 C 131.13 634.83 131.81 622.32 131.75 610.02 C 131.47 600.21 134.99 590.90 138.73 582.01 C 145.74 566.11 155.60 551.22 168.85 539.84 C 172.27 537.10 174.94 533.35 175.23 528.85 C 178.41 508.35 184.81 488.56 191.92 469.17 C 187.37 468.05 182.65 468.52 178.02 468.31 C 154.24 468.12 131.85 456.99 113.71 442.27 C 88.76 421.64 72.61 391.06 68.92 358.96 C 64.58 322.56 74.23 284.09 97.60 255.52 C 116.38 232.41 143.14 214.61 173.11 210.87 C 191.55 208.70 210.81 210.53 227.84 218.30 C 230.24 219.08 233.87 221.69 235.24 218.12 C 253.94 188.37 278.06 162.51 303.91 138.88 C 349.38 98.55 405.70 71.69 464.25 56.43 C 489.46 49.69 515.28 45.15 541.33 43.46 M 548.34 63.48 C 490.61 65.56 434.07 82.40 383.00 109.00 C 358.94 121.55 335.68 136.16 315.85 154.80 C 295.33 173.74 276.71 194.71 260.61 217.54 C 257.75 221.92 254.02 225.87 252.24 230.85 C 256.35 229.01 258.94 225.09 262.05 222.01 C 310.53 166.40 373.01 121.77 443.82 99.76 C 439.35 103.45 434.04 107.62 433.93 114.00 C 433.51 120.05 439.70 123.82 445.08 124.15 C 456.35 125.12 467.79 121.34 476.97 114.88 C 482.36 110.98 487.54 104.47 485.54 97.41 C 484.40 93.41 479.90 92.39 477.15 90.10 C 523.36 76.65 572.15 74.16 620.02 77.05 C 640.88 78.61 661.50 82.40 681.95 86.69 C 714.70 93.78 747.39 104.55 774.95 124.14 C 804.46 144.31 825.77 173.81 844.21 203.90 C 846.70 207.54 849.78 212.57 854.92 211.83 C 854.33 207.38 851.29 203.79 849.09 200.02 C 832.44 174.96 812.41 152.05 789.39 132.63 C 765.74 112.63 738.25 97.54 709.39 86.49 C 658.47 66.15 602.73 61.09 548.34 63.48 M 408.27 128.40 C 400.34 130.86 392.67 136.14 389.28 143.93 C 386.12 149.46 392.08 156.73 398.00 156.07 C 409.02 156.80 420.50 149.94 424.57 139.65 C 426.80 130.70 415.57 125.42 408.27 128.40 M 365.26 156.36 C 359.78 157.50 355.19 162.45 354.55 168.01 C 358.12 175.30 367.46 169.17 370.31 164.23 C 373.38 160.46 369.97 154.93 365.26 156.36 M 451.34 208.47 C 398.69 210.79 346.19 219.51 296.05 235.85 C 281.11 240.46 266.69 246.57 252.83 253.77 C 233.30 263.69 212.80 274.48 200.12 293.04 C 183.89 316.14 179.66 345.43 182.09 373.04 C 183.59 387.16 186.85 402.98 198.54 412.32 C 204.51 417.35 212.21 412.91 218.01 409.94 C 257.60 386.88 302.81 376.21 347.37 367.50 C 372.98 362.75 398.90 359.35 424.98 359.19 C 463.33 358.82 501.86 357.77 540.02 362.32 C 595.98 368.97 651.48 381.38 704.01 402.00 C 737.64 414.75 768.85 433.06 798.13 453.79 C 806.17 460.09 816.55 453.63 821.47 446.49 C 830.80 433.02 835.95 416.42 835.32 400.00 C 835.12 387.66 835.96 375.01 832.34 363.05 C 825.95 341.63 811.89 323.37 795.47 308.58 C 770.67 286.18 741.05 269.87 710.62 256.47 C 629.56 220.25 539.82 205.28 451.34 208.47 M 168.34 232.46 C 154.38 234.97 141.74 242.24 130.54 250.69 C 116.78 260.43 108.19 275.46 100.24 289.94 C 90.04 312.19 86.18 338.43 91.81 362.12 C 93.03 351.24 91.90 340.20 93.45 329.35 C 98.76 306.61 111.45 283.40 133.75 273.65 C 144.00 268.17 155.75 267.20 167.16 267.54 C 159.88 264.82 151.58 266.14 143.88 265.61 C 157.74 258.88 173.89 262.07 188.17 265.73 C 190.40 265.67 190.93 270.28 193.03 268.15 C 199.91 261.50 207.28 255.22 215.81 250.75 C 220.64 248.50 220.68 242.36 221.49 237.84 C 205.30 228.85 186.04 231.37 168.34 232.46 M 815.21 232.36 C 814.63 232.53 813.46 232.87 812.88 233.05 C 820.07 243.32 824.73 255.10 831.57 265.57 C 845.68 262.49 861.24 258.99 875.01 264.85 C 865.38 265.33 854.88 263.42 845.94 267.80 C 859.60 269.39 874.39 266.13 887.02 273.06 C 909.89 283.69 924.32 307.51 927.85 331.93 C 929.47 345.16 928.85 358.56 926.92 371.71 C 930.39 364.09 931.10 355.30 931.54 346.97 C 932.32 327.98 929.79 308.55 921.73 291.18 C 911.01 267.96 893.37 246.47 868.80 237.34 C 852.02 229.75 833.08 231.02 815.21 232.36 M 815.97 243.42 C 818.98 251.42 822.17 259.80 827.20 266.70 C 824.66 258.49 820.72 250.54 815.97 243.42 M 174.35 268.27 C 174.60 269.83 177.53 270.33 178.86 269.77 C 178.63 268.20 175.67 267.73 174.35 268.27 M 180.22 270.28 C 180.77 270.77 180.77 270.77 180.22 270.28 M 835.32 271.04 C 831.48 273.45 838.72 272.77 835.32 271.04 M 143.34 309.46 C 119.82 310.25 95.70 330.26 97.05 355.02 C 100.44 376.37 110.28 397.78 127.51 411.41 C 141.45 420.60 158.03 426.56 174.91 425.55 C 169.36 422.60 160.29 425.54 153.93 421.91 C 147.21 419.97 137.07 416.41 135.46 410.96 C 131.40 414.34 135.60 408.03 135.69 405.99 C 133.69 395.51 136.66 384.68 141.07 375.17 C 144.36 376.75 145.60 373.06 146.93 370.86 C 149.05 370.38 153.36 369.61 148.33 368.50 C 150.72 364.77 153.84 368.66 155.66 370.91 C 158.67 385.35 161.57 400.11 168.81 413.15 C 170.85 417.48 174.49 420.92 175.93 425.54 C 176.55 425.47 177.78 425.32 178.39 425.25 C 166.04 411.26 160.62 392.40 159.20 374.07 C 157.80 355.32 159.46 336.28 164.90 318.26 C 159.97 311.56 151.39 308.89 143.34 309.46 M 869.32 309.46 C 862.64 310.45 854.66 311.46 850.51 317.48 C 847.20 323.03 852.71 328.39 852.43 334.08 C 859.72 339.71 861.43 349.86 867.23 356.78 C 868.47 358.45 869.85 357.04 871.05 356.19 C 871.09 357.51 869.04 361.11 871.64 360.50 C 874.11 360.02 873.47 363.67 873.26 365.12 C 874.59 365.79 877.26 366.81 874.07 367.83 C 875.39 368.58 877.89 368.03 878.04 370.05 C 883.68 381.90 886.93 394.91 887.94 407.99 C 889.07 419.37 873.18 417.83 867.15 423.40 C 896.60 417.96 917.61 391.26 923.24 362.91 C 926.36 352.53 924.26 340.99 917.54 332.48 C 906.75 317.32 888.12 307.48 869.32 309.46 M 856.46 343.93 C 855.79 348.00 860.34 343.25 856.46 343.93 M 859.19 347.37 C 858.43 351.96 863.65 347.67 859.19 347.37 M 92.26 366.24 C 92.78 366.75 92.78 366.75 92.26 366.24 M 93.09 370.24 C 91.55 373.17 96.44 370.37 93.09 370.24 M 424.36 381.48 C 423.48 381.70 421.06 381.17 421.45 382.64 C 422.60 386.79 425.91 390.30 425.90 394.75 C 382.09 397.91 337.80 402.30 296.04 416.76 C 272.24 424.86 248.53 436.56 231.90 455.89 C 236.01 453.83 241.42 456.54 244.58 459.40 C 247.01 460.59 248.89 457.54 251.07 456.86 C 244.43 464.25 234.82 469.17 229.87 477.98 C 235.05 474.16 239.68 469.60 245.09 466.09 C 236.50 475.56 225.73 483.64 219.10 494.94 C 217.87 497.64 214.32 498.20 213.56 501.21 C 215.77 500.84 218.94 500.90 216.75 503.77 C 210.46 510.52 213.81 521.74 205.77 527.08 C 218.99 527.57 232.47 527.86 245.07 532.47 C 244.92 532.72 244.64 533.23 244.49 533.49 C 226.00 532.51 207.31 537.29 191.13 546.18 C 182.58 552.55 173.91 559.42 167.77 568.19 C 178.10 564.68 188.12 559.90 198.66 556.77 C 196.06 559.58 192.31 560.82 189.08 562.75 C 177.39 568.48 167.62 577.60 159.85 587.94 C 149.80 603.83 146.27 623.53 147.27 642.07 C 153.08 630.19 157.69 616.91 166.88 606.93 C 163.35 621.30 162.07 636.19 162.60 650.97 C 162.84 665.39 170.10 678.47 178.09 690.04 C 186.99 703.03 199.28 713.16 212.05 722.14 C 242.47 743.03 278.29 753.59 312.98 764.97 C 315.83 766.15 319.18 766.61 321.44 768.87 C 316.54 769.11 311.68 768.20 306.78 768.29 C 310.20 772.48 317.74 770.42 321.04 774.68 C 317.44 775.85 313.63 775.45 309.93 775.81 C 305.78 783.20 302.89 791.27 299.22 798.91 C 298.41 800.86 296.08 801.24 294.27 800.59 C 286.93 798.33 280.01 794.17 275.03 788.49 C 272.75 791.97 271.72 796.07 270.33 799.96 C 264.74 817.53 259.35 835.47 258.89 854.05 C 257.91 876.07 263.92 898.84 277.72 916.27 C 278.76 917.27 279.95 919.37 281.66 918.59 C 281.11 912.29 277.17 906.89 274.76 901.17 C 270.26 892.07 267.39 882.14 266.94 871.97 C 266.02 849.47 265.38 826.17 273.83 804.89 C 272.82 814.53 269.99 823.99 269.25 833.70 C 271.69 834.27 269.57 836.25 269.40 837.70 C 271.45 834.86 276.17 840.38 277.16 835.97 C 277.53 833.01 279.47 838.44 280.47 836.69 C 280.78 835.99 282.92 834.05 282.54 836.28 C 282.63 849.95 283.55 864.26 289.87 876.61 C 290.63 872.94 288.41 869.47 289.10 865.88 C 293.14 871.89 294.00 879.59 297.18 886.12 C 306.08 880.50 315.19 874.68 326.02 873.86 C 322.25 864.91 316.50 855.79 316.80 845.45 C 322.82 856.50 330.93 866.55 341.45 873.69 C 367.19 892.49 401.00 899.24 432.09 892.66 C 433.94 891.91 436.89 891.95 437.59 889.82 C 427.42 889.30 419.80 878.46 421.01 868.71 C 423.67 868.56 426.17 871.11 426.18 873.83 C 436.16 878.67 449.76 879.67 458.62 872.09 C 454.94 868.58 449.81 867.33 445.83 864.29 C 452.31 866.28 460.33 863.56 462.77 857.01 C 460.71 851.39 451.74 855.41 449.04 852.03 C 455.01 850.87 461.13 851.80 467.15 851.32 C 468.73 841.72 458.26 835.82 449.98 835.66 C 443.43 834.93 437.87 838.69 432.05 840.88 C 413.91 831.72 400.75 814.87 392.42 796.67 C 379.90 767.99 386.87 733.73 404.84 708.92 C 432.11 670.29 484.32 650.23 530.05 664.10 C 554.49 670.86 575.74 687.14 590.72 707.35 C 601.55 724.98 611.84 744.69 610.84 765.98 C 610.75 778.21 612.26 790.99 607.52 802.62 C 601.63 817.26 591.15 830.59 576.87 837.77 C 574.44 839.02 572.46 840.99 569.99 842.14 C 565.42 839.76 561.26 836.18 555.88 835.82 C 546.32 833.75 536.74 840.22 533.47 849.06 C 537.51 852.07 544.04 848.94 547.99 851.45 C 543.90 853.26 536.70 853.18 535.17 857.68 C 540.30 862.18 547.31 863.64 553.90 864.49 C 550.26 867.45 543.70 868.72 540.88 873.56 C 549.58 877.84 561.43 881.23 570.05 875.24 C 566.51 873.95 562.07 875.52 559.00 873.57 C 566.65 872.20 575.00 871.00 580.91 865.47 C 582.86 876.35 576.64 887.16 566.07 890.53 C 572.50 893.80 579.89 894.63 587.01 895.07 C 617.91 896.69 649.67 886.46 672.99 865.96 C 679.69 860.57 683.49 852.77 688.03 845.79 C 688.38 855.96 683.32 865.07 679.20 874.01 C 690.71 874.32 699.80 881.79 709.42 886.96 C 710.54 876.45 715.25 866.62 715.48 855.94 C 716.90 861.91 715.30 868.15 715.22 874.22 C 723.15 861.10 719.45 844.66 722.07 830.14 C 725.69 833.31 729.66 828.87 733.59 828.25 C 733.50 821.04 730.91 814.08 731.08 806.86 C 738.07 825.49 739.17 846.15 738.70 866.03 C 738.58 878.58 735.04 890.80 730.50 902.40 C 728.34 908.27 723.90 913.52 724.16 920.07 C 734.56 908.96 740.80 893.96 743.83 879.13 C 748.08 848.67 743.41 816.83 729.58 789.26 C 723.34 795.50 714.52 799.94 705.75 800.40 C 701.59 793.22 698.98 784.28 693.51 777.51 C 689.98 773.83 683.39 777.38 680.27 773.81 C 684.33 772.08 688.77 771.66 693.01 770.52 C 690.71 767.96 685.72 769.79 682.43 768.75 C 691.27 764.34 700.90 761.73 710.15 758.30 C 743.27 747.17 776.80 733.85 802.93 709.91 C 816.77 696.61 828.88 680.25 832.77 661.11 C 836.39 643.64 833.28 625.80 830.98 608.39 C 839.15 617.64 844.22 629.21 849.65 640.18 C 849.08 627.00 849.02 613.40 843.99 600.99 C 838.07 584.70 825.03 572.05 810.10 563.78 C 805.71 560.90 800.41 559.46 796.47 555.94 C 807.22 560.61 818.80 563.22 829.16 568.84 C 819.37 551.54 800.05 542.68 781.96 536.67 C 771.99 532.91 761.21 535.25 750.92 533.68 C 763.70 528.11 778.27 527.70 791.91 526.17 C 789.67 524.21 786.45 524.51 783.81 523.47 C 782.86 517.88 782.60 512.02 779.90 506.91 C 781.29 507.73 782.39 509.54 784.19 509.40 C 783.82 505.70 781.33 502.75 779.23 499.86 C 765.17 481.90 745.34 469.80 725.90 458.52 C 722.71 460.66 718.37 462.62 716.06 465.07 C 725.77 482.02 730.08 502.56 725.63 521.81 C 722.52 534.05 718.01 546.72 708.49 555.51 C 699.49 564.60 688.74 572.00 676.78 576.61 C 666.13 580.66 654.48 580.11 643.31 579.55 C 618.27 575.59 596.30 558.07 585.79 535.14 C 574.37 509.67 578.29 478.64 594.19 455.94 C 607.01 436.97 628.79 423.50 651.99 423.33 C 654.83 422.87 651.06 421.14 649.97 421.00 C 622.64 413.63 594.85 407.91 567.06 402.67 C 566.10 398.13 568.66 393.77 569.00 389.28 C 521.17 381.97 472.67 380.85 424.36 381.48 M 866.32 423.24 C 866.78 423.81 866.78 423.81 866.32 423.24 M 695.73 437.96 C 698.54 441.28 702.43 443.92 706.73 444.82 C 706.36 440.89 698.86 440.82 695.73 437.96 M 228.39 445.53 C 211.84 470.69 201.72 499.63 195.94 529.07 C 194.62 532.75 201.54 531.25 201.30 528.17 C 205.95 508.71 210.25 488.94 218.52 470.61 C 221.93 461.99 226.50 453.79 229.04 444.86 L 228.39 445.53 M 623.40 452.53 C 604.89 454.75 593.46 477.91 602.94 493.98 C 609.32 506.68 625.84 510.65 638.43 505.55 C 652.81 499.48 658.78 480.63 651.79 466.97 C 646.85 456.54 634.55 451.17 623.40 452.53 M 728.25 455.50 L 727.03 455.41 C 730.11 459.57 735.42 461.68 740.22 463.30 C 736.95 459.85 732.58 457.34 728.25 455.50 M 774.89 465.91 C 782.21 485.88 790.45 505.94 794.96 526.92 C 795.33 529.79 798.42 530.87 800.93 531.06 C 797.96 512.70 792.38 494.72 784.14 478.03 C 781.77 473.54 779.33 468.68 774.89 465.91 M 688.28 495.39 C 685.10 496.00 681.36 499.13 682.36 502.70 C 683.70 506.04 688.17 507.93 691.46 506.42 C 696.00 503.73 693.37 495.47 688.28 495.39 M 625.32 529.43 C 619.08 529.98 614.00 535.92 613.99 542.09 C 615.32 547.73 620.22 552.41 626.00 553.19 C 631.91 552.86 637.41 548.09 637.92 542.08 C 638.75 535.17 632.30 528.48 625.32 529.43 M 679.27 529.38 C 674.41 530.25 670.08 534.21 668.89 539.02 C 668.00 546.23 674.67 553.82 682.07 553.01 C 686.95 551.62 691.62 547.82 692.52 542.61 C 693.67 535.31 686.15 529.04 679.27 529.38 M 866.08 629.23 C 864.12 634.63 863.96 640.48 862.66 646.06 C 854.62 688.07 826.42 724.19 790.53 746.56 C 784.89 750.87 777.00 753.23 772.86 758.90 C 795.11 790.07 839.01 803.24 875.08 790.70 C 898.32 783.09 918.98 766.13 928.35 743.23 C 936.48 723.23 937.04 700.32 930.39 679.82 C 925.23 663.81 913.42 650.79 899.96 641.14 C 890.14 633.98 878.17 629.88 866.08 629.23 M 509.75 680.92 C 509.35 701.78 505.02 722.31 504.78 743.17 C 509.79 745.73 515.22 748.12 520.82 748.88 C 532.79 734.63 545.97 720.62 553.47 703.31 C 555.55 699.02 550.53 696.45 547.59 694.56 C 535.82 688.15 523.14 682.60 509.75 680.92 M 460.21 689.37 C 445.71 695.09 433.78 706.03 424.19 718.11 C 420.96 722.52 417.15 726.77 415.50 732.08 C 416.81 735.31 422.91 736.41 420.53 740.63 C 418.35 744.20 418.62 749.52 423.04 751.12 C 429.25 751.96 429.25 740.22 435.55 742.50 C 444.64 748.46 452.65 756.00 459.98 764.01 C 467.00 758.25 473.30 750.81 481.84 746.70 C 474.92 735.53 467.65 724.01 464.99 710.94 C 468.88 705.88 476.37 705.33 480.83 700.80 C 482.80 698.15 482.01 693.08 478.26 692.54 C 471.82 691.57 466.53 696.14 460.82 698.22 C 458.66 695.57 462.55 690.36 460.21 689.37 M 487.36 690.37 C 482.98 693.03 485.64 700.94 490.55 700.55 C 493.59 699.36 498.08 697.28 497.65 693.38 C 495.93 689.89 490.71 688.49 487.36 690.37 M 418.26 752.33 C 413.78 754.89 413.07 762.63 417.15 765.85 C 425.64 768.59 427.11 749.83 418.26 752.33 M 587.34 755.36 C 573.56 763.83 557.57 768.23 542.08 772.13 C 541.10 774.02 541.82 776.15 542.23 778.09 C 545.57 791.48 544.15 805.45 545.90 819.03 C 551.75 820.63 558.15 819.49 564.09 818.66 C 580.27 814.26 590.50 797.19 590.40 780.99 C 590.26 772.19 590.09 763.35 588.98 754.61 C 588.57 754.80 587.75 755.17 587.34 755.36 M 492.39 767.50 C 483.48 769.59 476.44 777.51 475.48 786.63 C 474.66 794.67 473.86 802.90 475.29 810.92 C 478.23 810.56 480.09 807.94 482.68 806.77 C 483.57 826.48 484.65 846.21 484.54 865.96 C 484.74 876.32 475.46 884.09 475.65 894.41 C 478.15 893.32 480.21 890.86 483.11 890.96 C 485.02 902.28 483.17 913.90 484.57 925.27 C 484.57 928.95 490.36 927.07 489.89 924.11 C 490.90 911.89 490.07 899.59 490.48 887.35 C 498.62 882.08 507.07 877.24 515.10 871.78 C 515.39 861.15 514.45 849.46 521.42 840.49 C 525.24 836.27 525.53 830.50 524.67 825.14 C 513.66 831.82 502.71 838.79 490.91 844.04 C 490.05 830.50 490.44 816.90 490.47 803.34 C 500.72 796.22 512.23 791.08 522.96 784.80 C 519.14 772.91 504.96 763.49 492.39 767.50 M 417.08 772.17 C 413.06 776.14 418.80 786.16 424.62 783.51 C 427.64 779.12 423.19 769.74 417.08 772.17 M 452.46 812.49 C 448.15 814.60 443.69 816.37 439.04 817.59 C 440.93 819.14 443.92 817.76 446.23 818.24 C 444.85 820.14 442.32 820.58 440.50 821.95 C 444.97 821.68 449.45 821.38 453.92 821.04 C 453.63 818.61 456.59 810.80 452.46 812.49 M 328.30 887.42 C 322.87 888.25 318.79 893.75 319.13 899.09 C 320.42 901.81 322.69 903.91 324.73 906.08 C 323.78 901.17 326.53 904.35 327.52 906.62 C 335.93 901.96 346.50 901.89 354.46 907.62 C 357.07 908.64 359.12 913.39 362.12 910.79 C 355.40 898.71 343.17 886.33 328.30 887.42 M 671.30 887.43 C 656.86 891.20 647.13 903.89 640.07 916.16 C 647.77 910.96 655.22 904.06 664.94 903.18 C 669.61 902.53 673.71 905.02 677.79 906.82 C 681.01 904.50 682.77 900.87 685.07 897.77 C 685.04 902.08 681.30 905.05 680.01 908.98 C 684.24 906.55 687.58 901.31 686.59 896.32 C 684.53 890.25 677.67 886.01 671.30 887.43 M 311.31 899.41 C 301.55 901.96 296.56 913.74 299.78 922.94 C 304.42 938.11 319.86 946.75 334.15 951.04 C 323.12 944.56 308.58 938.92 304.00 925.95 C 306.55 927.72 308.33 930.36 310.86 932.17 C 312.28 923.02 319.02 916.36 324.96 909.99 C 321.77 905.47 317.98 897.52 311.31 899.41 M 691.22 899.33 C 686.96 899.49 687.30 904.43 684.69 906.66 C 683.53 908.01 681.01 909.95 683.41 911.53 C 689.00 916.54 694.01 922.43 695.32 930.08 C 700.11 927.79 701.15 921.25 705.01 917.72 C 702.87 935.09 685.78 944.24 671.64 950.99 C 683.75 948.94 694.07 941.04 701.74 931.75 C 707.72 924.56 709.23 913.23 703.51 905.46 C 700.65 901.80 696.11 898.45 691.22 899.33 M 283.16 903.23 C 281.59 906.24 286.49 903.35 283.16 903.23 M 453.25 904.37 C 444.79 906.90 436.58 910.49 427.73 911.59 C 414.33 913.04 400.68 912.47 387.36 910.54 C 392.60 921.07 395.66 933.08 393.47 944.85 C 413.90 945.30 434.59 947.31 454.95 944.90 C 454.92 931.35 454.95 917.73 453.89 904.23 L 453.25 904.37 M 546.68 903.44 C 545.86 917.29 545.91 931.20 545.83 945.07 C 567.95 946.51 590.17 944.78 612.33 945.08 C 610.32 933.31 613.52 921.65 617.44 910.69 C 602.74 912.92 587.72 913.61 572.95 911.62 C 563.80 910.25 555.55 905.71 546.68 903.44 M 523.14 910.18 C 508.43 919.66 492.59 927.66 475.91 933.03 C 474.89 937.31 476.94 941.56 478.59 945.42 C 483.57 957.49 499.55 961.89 510.97 956.91 C 518.36 953.30 524.22 945.74 524.48 937.34 C 525.09 928.10 525.16 918.83 524.88 909.59 C 524.45 909.74 523.58 910.03 523.14 910.18 M 716.35 951.99 C 715.45 952.00 713.28 953.52 714.89 954.17 C 716.40 954.71 719.22 951.65 716.35 951.99 Z"/><path fill="#000000" opacity="1.00" d=" M 809.22 326.35 C 813.05 326.04 808.80 330.44 809.22 326.35 Z"/><path fill="#000000" opacity="1.00" d=" M 853.08 332.52 C 857.00 331.80 852.39 336.52 853.08 332.52 Z"/><path fill="#000000" opacity="1.00" d=" M 818.26 338.96 C 821.98 339.16 817.75 343.23 818.26 338.96 Z"/><path fill="#000000" opacity="1.00" d=" M 155.26 363.26 C 155.78 363.78 155.78 363.78 155.26 363.26 Z"/><path fill="#000000" opacity="1.00" d=" M 153.52 366.25 C 158.24 364.28 153.22 370.57 153.52 366.25 Z"/><path fill="#000000" opacity="1.00" d=" M 830.26 366.26 C 830.77 366.78 830.77 366.78 830.26 366.26 Z"/><path fill="#000000" opacity="1.00" d=" M 831.27 371.26 C 831.77 371.78 831.77 371.78 831.27 371.26 Z"/><path fill="#000000" opacity="1.00" d=" M 143.41 373.32 C 143.80 373.69 143.80 373.69 143.41 373.32 Z"/><path fill="#000000" opacity="1.00" d=" M 188.09 375.30 C 191.41 375.45 186.55 378.26 188.09 375.30 Z"/><path fill="#000000" opacity="1.00" d=" M 832.16 377.41 C 835.74 378.43 830.01 381.14 832.16 377.41 Z"/><path fill="#000000" opacity="1.00" d=" M 261.40 385.09 C 264.50 384.83 261.11 387.67 259.66 387.02 C 257.76 386.42 260.57 385.00 261.40 385.09 Z"/><path fill="#000000" opacity="1.00" d=" M 248.49 390.50 C 252.98 388.91 247.70 391.93 246.24 392.34 C 234.83 396.67 224.45 404.55 212.17 406.05 C 224.38 401.17 236.36 395.60 248.49 390.50 Z"/><path fill="#000000" opacity="1.00" d=" M 833.29 391.41 C 834.69 391.64 834.70 395.37 833.29 395.60 C 832.50 394.41 832.51 392.59 833.29 391.41 Z"/><path fill="#000000" opacity="1.00" d=" M 193.11 394.24 C 197.48 395.00 192.49 398.96 193.11 394.24 Z"/><path fill="#000000" opacity="1.00" d=" M 197.19 400.33 C 198.47 399.73 200.33 401.61 199.76 402.90 C 198.47 403.32 196.80 401.60 197.19 400.33 Z"/><path fill="#000000" opacity="1.00" d=" M 832.15 406.43 C 835.75 407.43 829.99 410.14 832.15 406.43 Z"/><path fill="#000000" opacity="1.00" d=" M 831.24 413.31 C 831.80 413.78 831.80 413.78 831.24 413.31 Z"/><path fill="#000000" opacity="1.00" d=" M 830.47 415.04 L 831.15 414.17 C 829.67 425.44 824.39 436.35 816.54 444.56 C 810.96 450.55 801.49 449.61 794.97 445.77 C 789.03 442.28 782.54 439.42 777.35 434.86 C 788.21 439.24 798.52 450.43 811.08 446.76 C 822.04 439.92 826.63 426.73 830.47 415.04 Z"/><path fill="#000000" opacity="1.00" d=" M 335.36 424.49 C 356.36 421.27 378.85 427.92 393.93 443.08 C 412.30 460.29 422.11 485.84 420.34 510.90 C 418.54 524.91 413.73 538.74 405.19 550.10 C 395.15 563.49 380.27 572.75 364.34 577.48 C 343.67 583.16 320.65 579.05 303.07 566.83 C 283.15 553.20 268.91 529.65 270.73 505.01 C 269.80 491.34 273.43 478.04 279.24 465.79 C 273.32 460.54 266.52 455.47 262.61 448.29 C 261.66 446.72 262.64 444.78 264.41 444.47 C 274.18 442.65 284.22 445.55 293.93 444.95 C 305.80 434.92 319.54 426.15 335.36 424.49 M 321.39 452.52 C 305.31 454.58 293.58 472.35 297.79 487.94 C 301.45 501.37 316.21 510.74 329.93 507.36 C 345.56 504.75 355.72 486.99 351.22 472.06 C 347.69 459.48 334.48 450.31 321.39 452.52 M 382.25 496.28 C 379.57 497.70 377.83 501.41 379.73 504.13 C 381.99 507.83 389.79 508.28 390.18 502.96 C 391.15 498.64 386.55 493.57 382.25 496.28 M 324.31 529.44 C 318.68 529.41 313.38 533.47 311.55 538.72 C 310.14 545.32 315.27 552.56 322.03 553.22 C 328.58 553.27 334.98 547.75 335.01 541.02 C 335.34 535.09 330.42 529.28 324.31 529.44 M 374.26 529.39 C 369.24 530.88 365.00 535.69 365.00 541.05 C 365.84 546.92 370.83 552.40 377.01 552.43 C 382.30 552.65 387.09 548.62 388.61 543.71 C 390.18 535.96 382.00 527.65 374.26 529.39 Z"/><path fill="#000000" opacity="1.00" d=" M 769.01 430.16 C 770.58 429.87 773.31 431.08 773.57 432.72 C 771.97 433.24 769.13 431.83 769.01 430.16 Z"/><path fill="#000000" opacity="1.00" d=" M 776.31 434.25 C 776.84 434.74 776.84 434.74 776.31 434.25 Z"/><path fill="#000000" opacity="1.00" d=" M 236.43 453.77 C 236.65 454.00 236.65 454.00 236.43 453.77 Z"/><path fill="#000000" opacity="1.00" d=" M 239.14 454.41 C 243.04 453.68 238.50 458.45 239.14 454.41 Z"/><path fill="#000000" opacity="1.00" d=" M 490.35 533.45 C 500.78 532.01 511.75 532.50 521.62 536.45 C 528.28 539.14 534.34 544.61 535.86 551.86 C 537.39 559.41 532.91 566.61 527.45 571.43 C 521.37 577.41 513.09 580.49 506.49 585.55 C 506.02 600.61 521.96 615.53 537.15 611.31 C 546.51 608.19 553.01 598.05 552.49 588.29 C 552.67 585.45 555.45 583.61 557.99 583.01 C 563.88 583.44 567.52 589.48 567.15 595.00 C 566.74 610.54 554.51 625.12 539.08 627.74 C 533.49 629.20 527.78 628.04 522.18 627.60 C 518.74 630.06 518.13 635.07 514.56 637.59 C 508.50 642.24 500.16 641.67 492.97 641.01 C 486.09 640.06 482.02 633.77 479.14 628.10 C 472.22 627.19 465.08 628.43 458.27 626.59 C 446.11 622.24 435.91 611.13 434.88 597.93 C 434.35 593.00 434.73 586.52 439.92 584.15 C 443.90 581.58 449.77 585.34 449.18 590.05 C 448.85 600.76 457.10 611.41 468.10 612.17 C 482.67 614.03 495.53 600.19 495.21 586.07 C 495.07 584.59 493.44 584.20 492.40 583.54 C 484.02 579.70 477.16 573.37 469.38 568.56 C 469.21 570.45 471.09 571.59 471.83 573.16 C 465.24 566.76 460.74 555.51 465.78 546.90 C 470.77 538.30 481.09 534.98 490.35 533.45 M 489.29 536.43 C 482.07 537.79 469.60 541.37 472.08 550.98 C 475.34 551.48 479.43 551.65 481.28 554.90 C 479.90 554.52 478.52 554.13 477.16 553.71 C 481.55 558.39 488.65 558.40 494.37 560.54 C 496.56 559.91 491.23 557.83 493.97 557.86 C 503.40 557.49 512.40 554.06 521.88 554.17 C 527.32 554.31 527.28 546.84 525.81 543.27 C 515.91 534.67 501.57 534.82 489.29 536.43 M 502.41 622.21 C 501.85 624.43 501.69 626.77 500.65 628.85 C 498.39 627.85 498.64 624.69 497.60 622.78 C 493.57 624.07 490.53 627.46 486.39 628.65 C 487.83 638.42 502.75 643.21 509.67 635.67 C 516.18 631.16 507.35 622.47 502.41 622.21 Z"/><path fill="#000000" opacity="1.00" d=" M 704.35 563.28 C 709.06 563.37 700.36 567.00 704.35 563.28 Z"/><path fill="#000000" opacity="1.00" d=" M 525.54 574.54 C 525.93 574.36 526.70 574.00 527.08 573.82 C 524.86 576.69 521.92 578.99 518.86 580.91 C 520.69 578.43 523.13 576.43 525.54 574.54 Z"/><path fill="#000000" opacity="1.00" d=" M 513.30 584.30 C 513.82 584.81 513.82 584.81 513.30 584.30 Z"/><path fill="#000000" opacity="1.00" d=" M 931.26 720.26 C 931.78 720.76 931.78 720.76 931.26 720.26 Z"/><path fill="#000000" opacity="1.00" d=" M 930.30 725.50 L 930.85 724.81 C 929.69 731.40 927.82 738.24 923.94 743.75 C 926.42 737.80 927.72 731.35 930.30 725.50 Z"/><path fill="#000000" opacity="1.00" d=" M 836.26 727.07 C 839.31 729.07 832.41 729.43 836.26 727.07 Z"/><path fill="#000000" opacity="1.00" d=" M 506.10 736.32 C 509.42 736.50 504.51 739.25 506.10 736.32 Z"/><path fill="#000000" opacity="1.00" d=" M 922.07 737.83 C 925.21 736.88 920.08 744.07 924.07 744.05 C 923.05 746.15 921.71 748.12 919.97 749.70 C 920.28 745.70 920.62 741.59 922.07 737.83 Z"/><path fill="#000000" opacity="1.00" d=" M 915.32 746.51 L 915.96 745.91 C 907.39 764.63 888.21 776.74 868.85 781.94 C 874.68 778.04 881.85 776.61 887.97 773.15 C 899.45 767.13 908.61 757.44 915.32 746.51 Z"/><path fill="#000000" opacity="1.00" d=" M 779.78 754.88 C 786.74 758.54 793.78 763.28 800.09 768.11 C 793.06 764.31 785.20 760.80 779.78 754.88 Z"/><path fill="#000000" opacity="1.00" d=" M 496.31 769.44 C 506.32 768.30 516.60 774.97 519.67 784.54 C 514.45 781.79 512.28 775.46 506.58 773.46 C 498.79 771.71 489.34 771.14 482.98 777.13 C 485.97 772.75 491.15 770.16 496.31 769.44 Z"/><path fill="#000000" opacity="1.00" d=" M 805.10 769.33 C 809.10 768.78 804.74 773.24 805.10 769.33 Z"/><path fill="#000000" opacity="1.00" d=" M 804.26 773.86 C 808.83 775.30 813.69 776.50 817.69 779.23 C 812.97 778.48 807.93 776.94 804.26 773.86 Z"/><path fill="#000000" opacity="1.00" d=" M 494.20 775.25 C 494.53 775.59 494.53 775.59 494.20 775.25 Z"/><path fill="#000000" opacity="1.00" d=" M 500.40 775.08 C 503.29 773.44 500.67 778.47 500.40 775.08 Z"/><path fill="#000000" opacity="1.00" d=" M 503.55 774.58 C 505.85 774.16 508.74 775.26 508.95 777.88 C 506.85 777.45 504.55 776.65 503.55 774.58 Z"/><path fill="#000000" opacity="1.00" d=" M 818.19 779.28 C 818.74 779.75 818.74 779.75 818.19 779.28 Z"/><path fill="#000000" opacity="1.00" d=" M 824.29 781.09 C 827.26 779.56 824.42 784.39 824.29 781.09 Z"/><path fill="#000000" opacity="1.00" d=" M 828.34 782.09 C 831.29 780.54 828.48 785.40 828.34 782.09 Z"/><path fill="#000000" opacity="1.00" d=" M 863.35 782.09 C 866.28 780.55 863.46 785.41 863.35 782.09 Z"/><path fill="#000000" opacity="1.00" d=" M 839.00 783.20 C 845.61 783.14 852.23 782.98 858.84 783.24 C 853.19 784.58 844.68 784.79 839.00 783.20 Z"/><path fill="#000000" opacity="1.00" d=" M 450.41 817.05 C 454.48 816.61 450.00 821.00 450.41 817.05 Z"/><path fill="#000000" opacity="1.00" d=" M 280.40 831.29 C 285.08 831.22 276.25 835.24 280.40 831.29 Z"/><path fill="#000000" opacity="1.00" d=" M 637.36 882.31 C 643.68 881.14 633.55 886.47 637.36 882.31 Z"/><path fill="#000000" opacity="1.00" d=" M 378.23 886.27 C 378.74 886.77 378.74 886.77 378.23 886.27 Z"/><path fill="#000000" opacity="1.00" d=" M 382.27 887.26 C 382.78 887.78 382.78 887.78 382.27 887.26 Z"/><path fill="#000000" opacity="1.00" d=" M 613.44 888.18 C 617.10 885.99 614.43 891.81 613.44 888.18 Z"/><path fill="#000000" opacity="1.00" d=" M 359.30 909.22 C 359.81 909.73 359.81 909.73 359.30 909.22 Z"/><path fill="#000000" opacity="1.00" d=" M 517.08 939.29 C 520.41 939.43 515.51 942.21 517.08 939.29 Z"/><path fill="#000000" opacity="1.00" d=" M 513.24 946.39 C 517.32 944.95 511.82 950.33 513.24 946.39 Z"/><path fill="#000000" opacity="1.00" d=" M 490.25 952.26 C 491.87 952.02 494.72 953.19 495.01 954.89 C 493.36 955.21 490.50 953.97 490.25 952.26 Z"/><path fill="#000000" opacity="1.00" d=" M 498.39 952.51 C 499.92 952.00 501.56 952.07 503.17 952.07 C 502.71 954.33 494.56 954.28 498.39 952.51 Z"/></g></svg>