<svg viewBox="0 0 100 100" version="1.1" xmlns="http://www.w3.org/2000/svg"><g transform="translate(4.510189496253169, 1) scale(0.10299851808254595) translate(-70.46, -36.43)"><path fill="#000000" opacity="1.00" d=" M 490.34 36.43 C 492.23 37.08 488.84 39.90 487.91 40.92 C 471.32 56.59 455.63 73.57 445.12 94.02 C 448.98 93.60 452.27 91.21 455.81 89.77 C 493.03 72.58 535.13 70.71 575.36 74.53 C 597.01 78.13 619.36 81.61 638.95 91.99 C 619.43 98.54 599.08 103.91 580.14 112.46 C 581.20 114.43 583.96 114.47 585.81 115.38 C 595.86 118.34 604.95 123.72 615.00 126.67 C 633.62 131.94 651.29 140.17 668.00 149.89 C 669.87 150.85 672.90 153.26 673.84 150.02 C 684.19 128.43 700.28 109.83 719.17 95.23 C 742.20 79.09 769.50 67.59 798.02 67.84 C 825.42 65.76 852.83 74.43 875.96 88.82 C 905.37 107.52 928.45 136.02 940.39 168.78 C 953.16 207.18 953.77 250.27 938.27 287.99 C 924.10 323.94 894.66 354.14 857.78 366.61 C 855.23 367.86 849.41 368.53 851.43 372.65 C 857.78 390.28 864.45 407.80 871.91 424.98 C 884.59 452.72 905.31 475.56 926.26 497.26 C 918.29 496.36 910.01 496.02 902.64 492.55 C 917.03 520.83 921.59 555.04 909.96 585.09 C 909.43 586.80 908.39 584.72 908.27 584.02 C 905.36 576.49 902.41 568.86 898.42 561.86 C 897.79 572.93 897.69 584.17 895.00 594.99 C 892.61 602.77 889.22 610.24 885.34 617.39 C 883.94 619.53 882.83 622.33 880.20 623.21 C 878.32 614.12 877.84 604.54 873.66 596.10 C 870.63 600.72 868.58 605.94 865.71 610.68 C 850.43 637.98 826.12 658.80 800.01 675.37 C 823.73 699.12 844.71 725.97 859.79 756.06 C 857.76 761.72 852.04 765.85 848.65 770.96 C 860.12 794.34 866.66 820.87 863.09 846.95 C 860.08 869.22 844.72 889.94 823.19 897.35 C 813.91 900.91 803.89 900.96 794.10 901.05 C 793.45 925.98 787.57 951.61 772.76 972.06 C 783.17 971.50 793.51 973.29 803.96 972.84 C 809.76 972.93 816.07 974.93 821.49 972.12 C 820.80 975.61 825.48 971.45 826.88 974.21 C 832.56 974.05 838.89 974.75 844.72 974.22 C 845.94 976.52 848.75 975.99 850.94 976.31 C 850.38 971.97 852.59 975.67 854.24 976.76 C 856.85 976.16 859.85 977.38 861.38 974.42 C 863.14 972.57 859.75 978.18 861.90 976.73 C 863.82 975.30 865.13 976.73 865.12 978.85 C 850.90 981.37 837.19 981.54 822.96 983.42 C 795.96 984.11 769.03 986.70 742.01 986.74 C 609.34 987.24 476.67 987.74 344.00 987.38 C 293.17 985.83 242.11 987.90 191.48 982.43 C 189.36 983.20 186.29 979.08 187.70 983.12 C 185.13 981.63 181.96 980.31 179.46 982.70 C 175.83 978.31 164.20 984.82 165.36 977.07 C 168.44 976.70 175.11 981.35 173.75 975.71 C 178.04 973.18 182.75 975.63 187.33 974.48 C 197.07 972.98 207.41 974.30 216.84 971.75 C 200.05 960.16 182.38 948.73 169.25 932.73 C 156.34 916.41 145.71 897.97 139.69 877.98 C 134.66 858.38 133.32 837.81 135.57 817.71 C 140.00 784.89 158.33 755.49 181.62 732.60 C 175.82 715.52 181.69 696.97 191.30 682.44 C 195.61 675.62 201.66 670.22 206.88 664.16 C 186.26 648.52 168.06 629.22 155.51 606.46 C 153.32 602.87 152.33 598.49 149.40 595.41 C 146.23 604.62 144.85 614.31 143.37 623.91 C 127.89 607.21 126.33 583.40 125.62 561.82 C 120.63 569.16 117.35 577.60 114.52 585.99 C 114.26 585.93 113.74 585.81 113.48 585.75 C 102.54 555.38 106.58 520.95 121.63 492.70 C 114.41 495.26 106.64 497.37 98.96 496.96 C 100.02 494.24 102.36 492.36 104.25 490.24 C 121.62 471.89 137.95 452.19 149.66 429.68 C 159.13 410.70 165.09 390.25 173.37 370.78 C 171.29 367.30 165.63 367.07 162.02 365.20 C 117.05 348.52 85.96 305.15 76.97 258.98 C 70.46 223.80 74.20 186.35 89.94 154.01 C 102.25 128.01 122.63 106.47 146.16 90.23 C 173.17 72.79 206.11 64.51 238.14 68.21 C 257.69 71.63 277.17 77.41 294.03 88.15 C 312.45 99.79 328.81 115.07 340.29 133.70 C 344.70 139.78 348.01 146.88 352.61 152.63 C 359.83 148.88 366.85 144.66 374.17 141.07 C 374.51 115.59 388.89 92.15 407.65 75.71 C 430.77 55.03 460.23 42.75 490.34 36.43 M 432.52 75.52 C 419.13 85.54 406.18 97.02 398.23 111.98 C 388.62 129.51 385.55 151.50 392.25 170.29 C 390.03 170.90 387.99 169.85 386.47 168.33 C 385.52 172.59 383.61 169.79 384.96 166.97 C 382.28 166.33 384.17 169.67 382.64 170.64 C 379.77 172.28 376.39 174.45 373.03 173.10 C 373.04 170.58 376.77 172.04 377.00 169.93 C 375.32 169.48 372.95 170.41 372.48 168.08 C 370.97 169.69 367.97 173.11 366.80 169.39 C 367.89 169.54 369.28 170.36 369.75 168.83 C 371.69 165.06 376.67 164.67 378.82 161.19 C 377.96 158.55 374.85 160.21 373.07 160.85 C 321.24 187.65 277.08 228.10 243.77 275.84 C 217.85 311.10 199.80 351.34 183.66 391.80 C 179.63 402.52 175.51 413.31 173.51 424.63 C 170.77 431.85 164.30 436.73 160.20 443.14 C 156.36 449.67 150.29 455.01 147.80 462.21 C 151.67 462.93 149.89 456.06 153.36 458.59 C 162.53 453.99 170.15 446.83 177.51 439.68 C 181.87 442.03 174.29 446.89 178.97 447.94 C 166.68 456.79 155.92 467.65 145.90 478.98 C 133.58 495.07 124.52 514.66 124.14 535.18 C 127.89 529.30 130.61 522.30 136.16 517.85 C 134.86 521.45 132.20 524.36 130.93 527.97 C 139.67 521.13 147.00 512.60 155.97 506.02 C 157.34 505.03 158.92 504.14 160.68 504.32 C 160.83 506.52 159.12 508.21 158.08 509.97 C 152.80 517.04 148.68 524.91 145.20 533.00 C 139.28 545.67 140.31 560.05 140.08 573.66 C 143.11 569.85 142.64 564.18 146.48 560.79 C 145.21 556.84 156.06 551.32 149.79 551.53 C 152.82 548.99 156.19 546.66 157.95 542.96 C 158.46 541.51 158.74 539.12 160.90 539.84 C 158.13 543.47 160.97 548.11 158.93 551.99 C 160.91 595.05 192.20 630.39 227.16 652.34 C 240.76 645.74 255.96 642.89 271.03 644.31 C 284.79 643.60 297.64 649.71 308.97 656.92 C 321.87 665.08 331.84 679.06 332.57 694.62 C 332.71 695.75 332.88 697.31 334.24 697.62 C 376.53 711.43 420.71 718.61 464.90 722.83 C 479.88 724.38 494.96 724.49 510.00 724.31 C 533.04 724.02 556.14 723.67 579.01 720.67 C 645.31 712.40 711.05 695.61 771.29 666.32 C 799.77 652.38 827.60 634.32 845.48 607.48 C 853.95 595.65 860.19 582.14 862.56 567.71 C 864.32 559.87 864.19 551.68 866.58 543.98 C 867.30 548.38 871.10 551.03 874.73 553.06 C 873.82 555.89 880.18 556.93 874.29 556.67 C 879.03 561.31 881.21 568.07 883.20 573.82 C 887.41 550.21 878.65 526.21 864.66 507.34 C 868.07 506.65 870.74 509.03 873.40 510.75 C 882.89 517.78 891.86 525.71 898.68 535.41 C 901.46 517.47 892.28 500.17 882.09 486.03 C 871.13 471.27 858.14 457.83 842.95 447.41 C 845.56 448.29 844.87 444.07 847.15 445.76 C 849.89 447.34 845.29 439.68 848.46 442.49 C 856.28 450.39 866.52 454.97 875.27 461.65 C 870.08 451.91 863.31 443.06 856.75 434.20 C 850.70 427.48 850.03 418.10 846.88 409.98 C 829.82 360.94 807.83 313.12 777.12 271.04 C 741.16 222.71 695.13 180.45 639.96 155.25 C 636.39 153.90 639.82 157.22 640.71 158.34 C 654.13 172.01 665.97 188.10 670.73 206.94 C 671.02 208.84 672.29 212.88 669.03 212.46 C 656.79 208.67 643.85 210.84 631.34 209.17 C 628.69 214.19 631.94 220.17 629.92 225.96 C 632.66 230.13 632.16 235.12 632.65 239.92 C 634.96 259.18 634.75 278.65 634.01 298.00 C 633.18 312.32 632.17 327.74 624.21 340.12 C 621.18 346.01 612.89 345.48 608.52 341.48 C 602.54 336.16 596.58 330.65 591.94 324.10 C 590.72 323.61 589.63 324.57 588.47 324.77 C 587.57 317.62 587.83 310.36 586.85 303.24 C 567.41 285.63 545.23 271.51 524.13 256.05 C 526.59 284.40 525.95 314.30 513.42 340.44 C 512.50 342.55 509.90 346.43 507.75 343.22 C 483.43 311.31 451.83 285.58 429.09 252.41 C 429.01 254.89 427.67 256.86 426.05 258.61 C 429.91 258.91 428.87 261.06 430.81 262.91 C 431.91 266.71 430.47 274.84 425.64 269.75 C 429.72 272.56 422.39 271.37 425.01 273.12 C 427.90 275.62 419.17 273.49 423.24 275.86 C 423.15 278.86 426.91 285.24 421.30 285.62 C 415.48 282.11 411.00 276.64 406.66 271.48 C 402.02 262.21 395.57 253.87 392.12 244.01 C 385.66 227.30 386.09 207.96 393.66 191.70 C 400.63 176.99 414.42 166.48 429.50 161.04 C 426.12 165.44 421.71 168.90 418.22 173.21 C 402.08 191.46 396.13 220.81 408.72 242.29 C 409.98 216.19 418.29 189.85 434.01 168.87 C 430.15 182.13 430.57 196.23 431.80 209.85 C 434.83 223.43 440.11 237.07 448.66 248.07 C 449.02 250.53 450.78 252.03 452.98 252.89 C 454.48 256.98 456.91 260.80 460.39 263.49 C 464.19 267.21 466.46 272.75 471.46 275.14 C 474.75 279.55 478.09 283.73 481.94 287.73 C 483.54 287.14 484.98 286.71 484.21 289.12 C 483.77 291.26 487.85 286.29 486.66 288.93 C 485.33 290.96 486.36 292.88 488.46 293.74 C 489.55 297.19 493.11 300.71 496.25 297.04 C 491.05 299.75 497.14 303.86 499.92 305.84 C 500.36 308.59 504.28 309.03 504.95 306.07 C 503.46 304.50 503.29 301.14 506.14 302.79 C 507.15 284.18 507.92 265.28 503.94 246.94 C 500.89 233.25 496.32 219.91 490.78 207.04 C 488.65 201.87 484.14 197.71 483.58 191.95 C 482.26 186.53 478.81 181.99 476.88 176.82 C 489.90 192.77 500.71 210.86 516.18 224.82 C 539.13 246.32 566.95 261.66 590.57 282.37 C 598.05 288.31 604.26 295.78 612.34 300.96 C 615.61 285.88 615.85 270.33 615.56 254.96 C 615.52 233.25 608.13 212.32 599.29 192.76 C 590.22 173.48 574.45 158.73 558.84 144.85 C 572.96 147.59 585.90 154.66 599.10 160.21 C 602.78 157.88 607.02 162.23 610.61 163.51 C 614.33 166.00 606.28 164.65 609.87 166.20 C 620.43 171.79 630.58 178.12 641.05 183.87 C 643.80 185.80 641.07 182.14 640.73 181.36 C 625.25 159.39 605.53 138.81 579.85 129.22 C 562.37 122.07 542.94 122.12 524.45 123.90 C 544.30 112.77 565.65 103.96 585.63 93.30 C 578.38 90.80 570.67 90.12 563.09 89.33 C 533.99 86.96 504.25 88.85 476.22 97.40 C 450.57 104.87 425.63 118.92 410.72 141.73 C 408.95 143.86 408.10 147.27 405.25 148.13 C 409.24 122.51 419.61 98.21 433.34 76.34 C 434.46 74.49 434.18 74.21 432.52 75.52 M 150.96 109.86 C 130.11 125.70 115.26 148.28 105.42 172.30 C 96.56 194.01 96.14 217.99 97.28 241.07 C 101.52 288.37 135.20 334.45 182.53 345.63 C 187.93 340.32 190.16 332.53 193.40 325.81 C 190.54 325.74 191.73 330.31 188.54 330.77 C 189.84 328.48 191.30 321.56 194.42 325.45 C 195.41 319.76 186.35 323.37 189.03 326.82 C 187.29 326.26 185.50 325.74 183.90 326.95 C 184.76 325.66 185.83 324.44 186.14 322.87 C 185.31 322.90 183.28 325.69 183.29 324.09 C 184.02 321.12 181.29 323.91 180.19 323.97 C 180.16 323.07 182.52 318.68 180.36 321.00 C 176.36 326.04 170.39 317.38 165.86 321.47 C 167.31 315.05 160.94 323.06 160.35 317.95 C 161.03 314.19 157.94 318.20 157.51 315.33 C 156.88 311.78 153.41 321.00 154.53 316.61 C 156.17 312.91 154.49 312.49 152.17 315.25 C 152.68 312.51 151.76 312.16 149.67 313.62 C 149.08 310.60 144.89 310.47 143.61 307.32 C 139.90 309.12 136.50 305.79 133.65 303.75 C 135.10 300.51 128.43 303.18 131.08 299.92 C 133.65 300.03 136.69 300.14 136.75 296.71 C 134.15 294.44 135.00 301.17 132.51 298.45 C 130.29 295.82 130.32 300.09 129.49 301.47 C 127.17 298.81 129.45 293.02 132.87 296.61 C 135.22 294.95 138.09 290.59 137.21 296.31 C 140.67 292.62 142.12 298.87 141.20 301.74 C 143.84 300.17 146.76 302.86 145.27 305.65 C 149.31 304.19 146.58 301.11 144.97 298.96 C 146.49 297.21 146.68 298.93 146.90 300.42 C 148.50 300.12 149.67 298.89 151.01 298.07 C 150.45 299.58 149.80 301.06 149.33 302.61 C 151.44 303.58 153.73 304.01 155.84 302.79 C 156.32 304.14 156.49 305.85 158.21 306.18 C 158.07 303.75 157.27 301.43 156.98 299.03 C 158.64 300.56 159.20 303.26 160.67 305.10 C 161.65 304.25 160.64 300.13 162.57 302.15 C 164.89 305.36 166.49 301.22 163.89 299.60 C 167.82 300.31 167.37 306.79 162.89 305.42 C 164.50 308.06 173.95 305.66 168.04 303.37 C 169.87 302.97 171.60 302.31 173.26 301.45 C 175.47 302.35 169.46 305.24 173.18 305.49 C 175.44 304.02 182.38 297.83 180.09 304.13 C 182.15 303.52 188.61 300.60 182.99 300.99 C 179.85 300.54 184.99 298.89 186.01 298.74 C 189.88 298.44 187.06 291.87 190.86 293.15 C 190.72 296.13 189.22 298.59 187.80 301.06 C 189.49 300.72 190.51 299.38 191.20 297.91 C 191.82 295.28 194.21 301.35 193.95 298.00 C 193.46 296.01 195.07 296.45 196.33 296.55 C 195.19 294.47 190.58 295.05 193.26 292.08 C 195.29 289.99 189.74 287.23 193.52 285.93 C 197.03 282.87 192.63 289.03 194.99 288.83 C 199.73 288.58 194.31 291.04 193.86 293.10 C 195.74 292.55 199.10 289.62 199.85 293.01 C 199.07 294.75 197.89 296.26 196.97 297.93 C 198.93 296.91 201.18 295.45 201.27 292.99 C 201.02 290.16 197.80 288.94 197.20 286.25 C 199.13 286.94 200.92 288.68 203.12 288.04 C 203.82 285.17 204.11 281.40 207.63 280.66 C 207.67 277.75 207.49 274.90 211.01 276.70 C 212.52 272.87 214.91 267.24 210.37 264.62 C 213.52 264.77 214.21 267.63 214.42 270.21 C 216.32 265.93 218.99 258.26 224.94 262.58 C 219.36 256.88 215.95 249.03 209.35 244.62 C 207.38 244.95 208.50 242.20 207.89 241.10 C 194.90 232.57 183.45 221.11 169.02 214.22 C 168.24 214.42 167.47 214.62 166.69 214.82 C 164.69 210.57 158.06 212.40 155.72 208.27 C 153.95 206.64 150.98 209.22 149.73 206.91 C 146.25 203.17 141.02 198.84 135.93 201.23 C 138.15 197.70 133.15 195.36 130.31 195.22 C 126.98 197.93 131.90 198.98 133.11 201.08 C 130.22 200.96 126.32 199.28 127.63 195.75 C 128.56 192.72 124.28 195.67 122.99 193.93 C 121.42 193.09 123.85 190.03 121.56 189.93 C 122.11 192.91 117.25 196.83 115.89 192.97 C 114.97 190.36 117.99 193.45 118.88 193.49 C 119.46 191.31 119.97 189.11 120.39 186.90 C 116.58 186.13 115.06 188.84 113.78 191.82 C 110.73 192.30 114.43 189.45 113.85 187.99 C 111.50 189.25 111.73 192.81 109.33 193.94 C 110.93 190.40 107.37 187.41 109.26 183.97 C 115.54 167.49 125.80 152.64 137.97 139.95 C 166.73 111.34 218.87 112.63 245.84 143.11 C 254.64 154.05 262.95 166.25 267.83 179.14 C 269.89 180.43 273.68 182.21 268.73 182.37 C 270.80 186.30 274.93 181.11 271.45 178.90 C 272.24 178.75 273.82 178.43 274.61 178.27 C 273.31 173.21 268.60 182.47 267.70 177.16 C 269.48 177.29 270.36 176.53 270.35 174.87 C 274.48 175.45 277.57 178.74 274.97 182.75 C 276.95 181.30 277.80 181.84 277.46 184.40 C 279.17 182.79 277.44 180.81 277.10 179.00 C 278.45 179.30 279.77 179.74 281.13 180.01 C 280.27 178.19 277.51 177.90 277.10 175.97 C 278.54 173.67 280.24 171.42 282.49 169.84 C 281.48 172.40 279.36 174.38 278.64 177.08 C 280.33 176.34 282.19 174.18 283.88 176.20 C 285.51 177.19 289.93 181.49 287.83 177.08 C 288.52 177.08 293.02 179.16 290.86 177.02 C 289.59 173.88 284.61 175.32 285.32 171.31 C 287.93 172.77 287.79 169.47 289.92 169.08 C 292.85 166.36 295.34 170.39 296.32 173.19 C 295.06 171.75 291.51 170.62 293.94 173.52 C 294.99 177.63 288.68 169.19 288.25 173.05 C 291.21 175.37 294.42 177.46 297.16 180.11 C 297.81 178.61 293.06 175.07 296.20 175.59 C 299.96 177.83 295.07 171.83 299.03 173.67 C 303.16 174.50 296.39 172.13 296.97 170.06 C 300.10 170.93 302.59 173.13 305.62 174.22 C 303.11 170.57 297.53 170.24 295.49 166.05 C 296.88 162.42 300.68 164.98 302.98 166.05 C 298.50 162.66 304.87 160.37 306.83 157.69 C 305.27 152.35 302.97 147.22 302.26 141.65 C 299.12 137.38 296.43 132.26 296.10 126.97 C 293.32 128.98 293.15 125.07 292.60 123.25 C 291.17 122.00 289.83 120.61 289.13 118.81 C 294.60 122.84 301.77 127.08 303.88 133.53 C 308.63 133.76 309.65 139.51 313.28 141.72 C 319.67 149.68 323.68 159.21 329.16 167.77 C 331.76 166.51 334.19 164.61 335.67 162.10 C 319.22 131.96 293.95 104.95 261.00 93.10 C 224.69 79.14 181.68 86.31 150.96 109.86 M 790.67 86.52 C 768.30 88.47 747.08 97.92 729.20 111.24 C 712.14 125.29 697.79 142.88 688.05 162.75 C 690.42 164.40 693.10 168.23 696.21 167.26 C 698.66 160.70 700.73 153.38 706.39 148.78 C 707.51 145.35 709.80 142.55 712.75 140.53 C 714.01 137.84 715.64 134.57 719.14 134.72 C 718.28 130.32 724.12 128.10 726.64 125.12 C 726.78 125.77 727.06 127.08 727.20 127.73 C 729.38 122.20 733.88 118.02 739.11 115.12 C 736.77 118.43 733.47 120.98 731.49 124.56 C 730.21 126.38 728.85 130.12 726.18 127.73 C 725.30 130.67 726.96 134.34 724.73 136.80 C 721.36 137.86 722.62 142.05 720.53 144.34 C 721.23 147.55 716.73 150.90 719.99 153.78 C 722.81 157.24 715.33 150.38 717.66 154.29 C 719.09 157.57 713.83 162.74 718.61 164.36 C 720.45 165.63 714.90 163.94 716.22 165.91 C 720.62 165.50 725.75 168.49 725.03 173.46 C 719.99 170.38 722.81 174.78 725.52 176.53 C 726.03 174.80 727.00 173.28 728.79 172.71 C 727.26 175.39 730.05 177.53 730.52 180.08 C 731.22 178.79 731.69 177.40 732.27 176.06 C 734.47 176.38 732.07 182.90 733.93 179.98 C 735.02 175.87 737.02 180.87 735.05 181.96 C 729.98 183.41 739.12 186.98 739.19 183.23 C 734.12 187.20 736.54 176.23 740.29 180.86 C 738.92 178.29 734.59 177.42 735.60 173.95 C 734.93 171.46 729.52 168.95 733.30 166.30 C 735.29 167.17 737.36 169.26 733.80 168.31 C 734.40 172.27 740.32 170.90 740.06 175.06 C 741.83 173.64 747.04 169.65 747.08 174.57 C 749.44 173.67 753.12 181.23 749.45 178.45 C 746.69 175.02 741.33 178.18 741.20 181.99 C 743.04 183.62 742.47 178.02 745.11 179.68 C 744.75 181.33 744.21 182.94 743.85 184.60 C 745.52 185.26 747.46 185.76 748.49 187.41 C 750.21 188.64 746.54 191.20 749.30 191.69 C 752.66 188.62 748.55 186.54 747.58 183.67 C 749.81 184.30 751.43 186.96 754.00 186.00 C 754.27 183.38 750.67 181.62 752.23 179.05 C 752.95 179.74 755.67 183.85 754.90 180.99 C 752.63 178.19 753.44 173.63 756.75 172.03 C 756.52 173.43 756.22 174.80 756.03 176.20 C 759.03 174.00 760.07 170.12 761.89 167.00 C 770.40 148.88 785.17 133.45 803.83 125.76 C 822.13 117.60 843.68 117.25 862.29 124.63 C 891.23 137.04 909.51 165.90 918.42 195.02 C 916.83 197.37 913.37 195.40 916.41 192.91 C 913.33 189.99 913.75 200.17 912.09 195.93 C 912.44 191.29 909.14 199.10 909.76 193.55 C 907.73 194.52 906.09 189.05 906.00 191.98 C 906.58 196.83 901.82 191.52 904.50 189.51 C 905.25 186.32 902.43 190.80 901.50 189.34 C 902.12 186.51 903.26 183.84 904.12 181.07 C 899.15 181.26 903.49 186.69 899.67 188.02 C 900.16 181.91 893.18 186.90 890.62 183.99 C 892.84 186.48 891.99 190.47 889.12 192.01 C 888.05 190.33 887.76 185.03 885.37 188.52 C 882.21 191.81 884.30 186.48 884.94 184.84 C 880.94 186.80 884.12 190.65 883.40 193.69 C 886.66 193.78 887.66 197.93 886.05 200.29 C 883.47 201.18 885.32 197.28 884.81 195.99 C 883.94 197.08 883.10 198.31 881.44 197.79 C 881.03 200.32 881.63 202.79 882.68 205.10 C 878.50 206.90 879.89 201.91 879.32 199.74 C 877.72 196.39 881.10 193.99 882.20 191.21 C 875.59 190.40 880.54 201.95 873.86 199.29 C 874.38 200.74 875.05 202.14 875.50 203.62 C 873.17 205.11 872.79 201.27 871.77 200.00 C 870.64 202.04 869.22 203.36 866.91 202.05 C 865.39 204.35 863.19 207.35 865.03 210.10 C 861.65 210.89 859.51 214.32 855.99 215.21 C 844.88 219.55 834.99 226.19 825.85 233.76 C 823.59 234.57 824.31 238.58 821.37 237.48 C 822.81 240.66 818.70 239.93 818.52 242.20 C 816.08 244.64 812.08 246.89 809.64 250.63 C 808.47 252.52 804.58 254.11 806.57 256.58 C 804.22 256.66 802.66 258.27 802.19 260.48 C 805.74 262.25 801.75 261.81 799.99 262.02 C 796.65 261.41 802.61 265.78 799.08 265.28 C 795.69 265.39 797.88 268.69 799.79 269.41 C 800.50 272.28 801.66 275.14 803.79 277.27 C 803.74 275.80 802.45 273.68 804.35 272.82 C 805.49 275.21 807.22 277.54 806.33 280.32 C 807.53 279.59 808.70 278.78 809.93 278.06 C 808.31 280.65 809.84 284.39 812.52 281.17 C 812.15 286.02 818.08 281.06 819.31 285.08 C 818.78 288.89 812.24 288.25 811.50 292.19 C 813.74 292.02 814.34 288.87 816.91 290.26 C 816.54 292.18 814.27 292.92 813.79 294.85 C 816.30 293.86 820.07 292.17 817.59 288.84 C 819.69 287.25 821.53 289.64 823.46 290.26 C 822.05 287.09 824.34 283.75 826.76 287.42 C 829.32 291.12 822.46 284.51 824.12 287.96 C 823.82 291.03 827.19 292.30 827.58 288.56 C 826.61 292.72 829.59 293.52 831.68 295.91 C 834.06 296.60 835.28 298.45 835.54 300.86 C 837.75 301.14 834.40 293.92 837.66 296.43 C 839.28 300.24 842.01 303.93 845.17 306.51 C 842.81 304.81 845.25 300.51 842.00 300.19 C 839.19 299.99 840.95 296.34 841.07 294.69 C 843.44 293.90 840.59 298.88 843.02 299.02 C 845.33 299.59 846.53 301.64 847.62 303.57 C 851.22 303.92 855.78 303.74 859.05 305.77 C 858.93 304.01 857.32 302.99 856.39 301.67 C 858.22 301.92 861.70 300.96 860.58 303.92 C 863.58 304.12 866.63 302.56 869.79 302.61 C 871.61 299.73 876.63 301.45 876.66 297.01 C 879.89 298.12 874.50 301.08 876.63 302.37 C 880.36 305.58 877.07 299.40 880.23 297.91 C 882.68 295.49 881.39 300.34 880.66 301.49 C 884.28 299.10 884.86 293.69 889.02 291.87 C 889.44 294.62 885.20 295.98 885.16 299.02 C 884.12 302.65 887.02 298.49 887.31 297.36 C 890.42 296.04 894.70 299.62 891.01 294.95 C 895.02 295.40 899.56 296.64 903.00 293.05 C 901.62 297.64 896.26 299.67 892.97 302.87 C 887.75 307.81 881.41 311.98 874.35 313.31 C 874.75 316.10 871.99 314.42 870.39 314.47 C 870.34 316.56 865.63 319.51 865.96 315.80 C 863.29 317.45 862.14 320.58 860.03 322.79 C 861.88 316.07 855.67 321.05 852.05 320.00 C 852.35 322.25 850.58 322.01 848.93 321.88 C 849.92 322.94 850.98 323.95 851.97 325.03 C 846.83 322.00 840.99 321.88 835.24 321.24 C 834.20 322.34 834.33 323.74 834.90 325.02 C 831.97 324.39 833.30 326.61 833.80 328.28 C 830.71 326.86 833.03 323.04 833.09 320.61 C 831.68 320.86 830.21 321.12 829.16 322.15 C 831.91 322.42 829.55 324.58 830.21 326.05 C 831.23 328.80 833.67 330.74 834.74 333.50 C 838.37 337.05 837.15 342.78 840.23 346.72 C 867.78 339.24 892.25 321.64 907.63 297.54 C 928.08 264.04 931.73 222.37 922.47 184.70 C 917.92 168.67 910.40 153.58 901.60 139.48 C 893.04 128.13 882.54 118.35 871.62 109.31 C 848.60 92.28 819.23 83.72 790.67 86.52 M 721.30 132.84 C 722.04 137.43 725.88 132.40 721.30 132.84 M 304.11 162.28 C 304.58 162.75 304.58 162.75 304.11 162.28 M 297.96 165.93 C 299.21 170.40 302.82 165.73 297.96 165.93 M 304.49 167.53 C 302.35 168.27 304.36 172.61 305.59 170.44 C 305.03 169.55 306.43 166.24 304.49 167.53 M 719.22 168.13 C 718.21 173.36 724.12 168.55 719.22 168.13 M 291.02 170.26 C 289.41 173.26 294.41 170.43 291.02 170.26 M 737.86 175.36 C 737.28 176.71 739.65 178.22 740.84 177.59 C 741.14 176.17 739.08 175.02 737.86 175.36 M 743.02 175.02 C 742.14 179.04 747.03 174.18 743.02 175.02 M 721.14 176.18 C 716.52 178.97 724.92 179.37 721.14 176.18 M 902.24 176.29 C 902.79 176.80 902.79 176.80 902.24 176.29 M 280.88 176.58 C 282.46 178.54 283.30 180.17 281.51 182.52 C 284.86 182.29 284.04 174.94 280.88 176.58 M 724.22 178.18 C 724.49 181.51 727.19 176.69 724.22 178.18 M 882.28 178.24 C 881.69 183.10 886.56 178.72 882.28 178.24 M 901.25 178.40 C 898.86 182.32 904.64 179.36 901.25 178.40 M 301.17 178.86 C 300.90 183.05 304.99 178.59 301.17 178.86 M 873.13 180.22 C 872.56 184.17 877.09 179.85 873.13 180.22 M 877.36 180.57 C 876.01 182.14 875.54 184.26 874.96 186.20 C 876.76 185.38 878.39 179.81 877.36 180.57 M 891.44 181.11 C 891.67 185.86 896.72 179.15 891.44 181.11 M 896.24 181.16 C 895.76 182.46 897.71 184.15 898.98 183.72 C 899.38 182.39 897.53 180.69 896.24 181.16 M 287.36 182.09 C 287.31 183.50 289.64 184.42 290.82 183.92 C 290.97 182.48 288.52 181.38 287.36 182.09 M 115.31 183.20 C 115.22 187.02 119.48 182.93 115.31 183.20 M 284.27 183.22 C 285.02 187.67 289.02 182.89 284.27 183.22 M 111.43 184.30 C 111.92 184.79 111.92 184.79 111.43 184.30 M 881.35 184.22 C 877.17 187.63 884.33 186.72 881.35 184.22 M 272.32 185.15 C 268.16 188.64 275.10 187.83 272.32 185.15 M 740.29 184.81 C 740.21 188.24 743.30 183.40 740.29 184.81 M 122.90 187.31 C 122.54 191.09 127.12 186.93 122.90 187.31 M 753.16 187.30 C 751.64 190.24 756.55 187.54 753.16 187.30 M 126.34 189.35 C 126.76 193.73 131.12 188.88 126.34 189.35 M 910.05 189.35 C 908.83 190.90 911.77 191.43 912.69 190.66 C 913.75 189.26 910.88 188.34 910.05 189.35 M 132.26 190.35 C 127.66 193.35 135.03 192.99 132.26 190.35 M 737.31 189.96 C 737.45 193.27 740.30 188.21 737.31 189.96 M 870.47 190.36 C 869.55 190.91 866.36 190.71 867.42 192.42 C 868.62 194.64 872.40 191.13 870.47 190.36 M 135.28 191.09 C 130.93 194.24 138.19 193.72 135.28 191.09 M 141.32 192.19 C 141.04 193.61 143.51 194.59 144.57 193.84 C 144.85 192.41 142.39 191.50 141.32 192.19 M 746.31 191.95 C 745.97 195.92 750.30 191.85 746.31 191.95 M 137.24 193.18 C 135.14 194.52 137.50 196.31 138.80 197.09 C 143.24 199.69 147.62 202.50 152.40 204.42 C 149.20 199.82 142.64 199.13 138.43 195.55 C 136.80 192.88 140.86 195.46 141.82 195.29 C 141.27 193.45 138.89 193.03 137.24 193.18 M 875.13 192.98 C 874.35 197.91 879.30 194.09 875.13 192.98 M 149.14 195.12 C 149.81 199.53 153.90 194.54 149.14 195.12 M 148.32 198.25 C 148.90 198.75 148.90 198.75 148.32 198.25 M 149.26 198.54 C 152.82 200.30 153.41 206.47 158.18 203.92 C 155.52 201.66 152.37 200.08 149.26 198.54 M 864.48 201.38 C 861.04 201.27 857.27 204.02 861.18 206.89 C 865.88 208.51 856.87 201.57 862.58 203.51 C 864.19 205.66 866.08 200.40 864.48 201.38 M 851.29 208.17 C 849.65 212.40 855.19 206.72 851.29 208.17 M 845.07 210.12 C 844.98 213.95 849.18 209.60 845.07 210.12 M 859.24 210.20 C 857.60 213.22 862.53 210.34 859.24 210.20 M 627.27 212.38 C 626.55 213.60 626.67 217.17 628.61 216.79 C 629.05 215.45 628.50 212.96 627.27 212.38 M 848.23 215.20 C 847.94 219.06 852.32 214.81 848.23 215.20 M 423.53 260.15 C 423.94 263.22 424.41 266.34 425.75 269.16 C 425.95 266.21 426.10 262.02 423.53 260.15 M 426.36 262.26 C 425.98 266.19 430.43 262.15 426.36 262.26 M 220.18 263.20 C 218.59 264.36 216.87 265.89 216.92 268.04 C 219.17 267.96 219.45 264.54 221.87 265.37 C 224.48 265.69 221.55 261.57 220.18 263.20 M 224.48 266.31 C 223.00 268.35 220.88 267.15 219.03 267.84 C 219.55 270.00 224.12 269.77 222.61 272.73 C 221.14 277.73 220.02 267.08 216.77 269.76 C 216.50 272.81 214.67 274.99 212.88 277.30 C 215.29 276.17 218.34 274.93 218.45 271.82 C 220.32 272.94 219.60 275.48 220.15 277.27 C 223.56 275.63 223.14 270.55 226.89 269.79 C 225.77 269.11 222.99 267.23 226.05 267.23 C 230.08 267.95 225.53 263.71 224.48 266.31 M 428.08 266.42 C 425.91 270.12 431.69 267.43 428.08 266.42 M 410.37 273.76 C 410.70 274.10 410.70 274.10 410.37 273.76 M 218.19 278.31 C 216.44 283.09 222.38 278.52 218.19 278.31 M 420.32 278.17 C 415.04 279.19 422.42 281.50 420.32 278.17 M 209.66 279.21 C 209.20 280.50 209.99 283.05 207.96 283.11 C 204.87 282.47 204.41 288.86 207.73 287.09 C 206.05 284.49 211.26 283.69 212.99 284.66 C 215.57 281.56 208.92 284.75 211.22 281.96 C 212.38 280.63 214.61 280.52 215.99 279.31 C 213.97 279.12 211.43 277.84 209.66 279.21 M 215.06 282.30 C 213.52 285.27 218.38 282.55 215.06 282.30 M 808.26 284.10 C 808.41 287.48 811.28 282.53 808.26 284.10 M 815.51 284.28 C 814.16 284.73 813.18 287.83 815.54 286.89 C 817.30 286.78 817.67 283.18 815.51 284.28 M 212.39 286.28 C 213.73 289.92 216.15 284.43 212.39 286.28 M 209.48 287.49 C 207.27 289.20 202.21 287.38 202.56 291.54 C 204.63 290.53 211.69 289.36 209.48 287.49 M 810.31 287.19 C 810.54 290.53 813.27 285.71 810.31 287.19 M 212.05 289.26 C 210.47 292.27 215.45 289.41 212.05 289.26 M 819.12 288.89 C 821.07 292.54 816.10 294.52 818.76 297.97 C 819.70 296.83 819.50 295.23 819.89 293.88 C 823.84 294.51 823.66 299.53 826.40 301.21 C 825.74 298.07 819.71 289.67 826.33 294.41 C 825.35 291.08 821.13 291.35 819.12 288.89 M 208.47 292.01 C 209.69 296.16 213.10 290.53 208.47 292.01 M 197.39 293.40 C 197.64 293.64 197.64 293.64 197.39 293.40 M 203.42 293.24 C 201.88 297.38 207.45 291.79 203.42 293.24 M 830.21 295.85 C 830.53 297.47 831.74 299.03 832.46 300.55 C 834.20 299.79 832.33 297.05 831.68 295.91 C 831.32 295.89 830.58 295.87 830.21 295.85 C 829.39 295.34 829.39 295.34 830.21 295.85 M 828.38 297.28 C 828.17 298.40 828.18 299.97 829.14 300.77 C 831.08 300.63 830.02 296.79 828.38 297.28 M 137.62 298.36 C 136.82 299.84 136.34 301.49 136.05 303.15 C 138.00 301.78 143.03 296.20 137.62 298.36 M 199.54 299.22 C 199.73 302.49 202.62 297.79 199.54 299.22 M 821.29 301.46 C 820.13 305.74 825.10 299.97 821.29 301.46 M 196.06 302.29 C 195.56 306.33 199.95 301.89 196.06 302.29 M 185.76 303.07 C 186.79 306.60 190.16 306.48 191.03 302.90 C 189.27 304.03 187.49 304.64 185.76 303.07 M 834.10 303.28 C 834.59 303.76 834.59 303.76 834.10 303.28 M 839.17 303.17 C 838.70 307.18 843.11 302.38 839.17 303.17 M 873.27 303.40 C 873.75 303.88 873.75 303.88 873.27 303.40 M 177.40 304.28 C 172.89 307.31 180.45 306.73 177.40 304.28 M 871.37 305.17 C 870.95 308.91 875.61 304.88 871.37 305.17 M 850.17 306.45 C 850.59 306.88 850.59 306.88 850.17 306.45 M 172.27 307.32 C 167.63 310.31 175.07 309.92 172.27 307.32 M 181.27 308.25 C 176.89 311.17 184.38 310.78 181.27 308.25 M 503.97 309.34 C 502.32 312.38 507.28 309.43 503.97 309.34 M 161.46 317.15 C 160.51 321.23 165.35 316.49 161.46 317.15 M 832.12 317.25 C 830.54 320.20 835.44 317.54 832.12 317.25 M 828.13 318.36 C 827.77 322.28 832.12 317.86 828.13 318.36 M 183.19 320.26 C 183.53 323.62 186.13 318.69 183.19 320.26 M 255.22 660.39 C 236.00 663.25 217.44 673.11 205.79 688.87 C 201.10 695.70 196.79 704.39 199.24 712.82 C 198.48 719.83 207.73 721.97 213.26 722.14 C 211.33 717.12 215.49 724.45 218.46 721.30 C 213.69 710.78 213.00 696.96 220.08 687.35 C 220.40 693.81 218.55 701.01 222.19 706.85 C 224.08 709.04 225.64 713.23 229.11 711.16 C 232.62 710.60 224.94 713.34 227.95 714.05 C 229.80 715.42 232.27 709.80 232.10 714.01 C 232.12 717.49 235.83 707.56 235.15 712.85 C 234.82 715.37 239.33 717.27 240.60 712.97 C 240.80 716.37 244.22 713.68 246.18 713.63 C 246.21 711.69 243.01 712.55 243.14 710.97 C 245.28 710.80 247.16 712.43 249.33 712.34 C 247.94 710.42 246.13 708.88 249.74 708.70 C 248.25 701.15 247.43 693.21 248.06 685.56 C 251.38 688.42 250.88 694.95 254.63 698.26 C 257.07 702.17 259.46 709.14 265.37 707.70 C 265.72 713.24 267.27 707.01 270.01 707.06 C 269.90 708.47 265.58 710.83 268.97 710.45 C 272.54 711.45 273.90 708.54 272.08 705.71 C 273.94 706.03 274.93 707.44 275.63 709.07 C 279.43 705.64 270.25 705.21 274.30 702.31 C 275.30 702.20 274.88 705.88 277.14 705.55 C 277.61 703.99 276.69 700.98 279.20 700.88 C 279.26 703.24 277.36 705.32 278.07 707.76 C 281.84 708.01 286.53 704.22 284.96 700.31 C 285.31 700.20 286.00 699.99 286.35 699.89 C 288.30 692.77 286.69 685.49 283.87 678.86 C 291.94 683.66 294.69 693.38 299.05 701.00 C 301.65 698.47 312.04 700.80 307.36 695.71 C 308.64 695.57 311.04 697.93 311.59 695.76 C 314.08 686.97 308.46 678.42 302.03 672.93 C 289.27 662.22 271.57 657.90 255.22 660.39 M 783.48 681.57 C 779.82 681.43 779.54 684.99 781.82 687.08 C 795.15 703.29 808.75 719.44 820.05 737.18 C 818.32 740.17 812.49 746.67 809.80 741.11 C 798.73 725.61 788.15 709.69 775.97 695.01 C 774.69 692.91 772.77 693.66 771.09 694.79 C 773.40 691.94 768.51 689.86 766.09 689.20 C 768.05 692.64 768.29 693.67 763.75 692.82 C 774.57 712.57 791.00 729.47 801.34 749.80 C 802.62 751.71 800.35 753.09 799.09 754.18 C 790.13 760.80 780.52 766.46 770.98 772.18 C 753.93 782.04 736.91 792.54 717.83 797.94 C 716.78 801.13 718.96 804.49 720.18 807.39 C 724.13 808.84 728.24 806.96 732.06 805.93 C 748.27 801.16 763.82 794.25 778.01 785.05 C 798.26 772.43 818.18 758.88 835.34 742.24 C 837.41 736.38 831.49 731.06 827.16 727.87 C 815.02 713.34 804.21 697.61 790.57 684.39 C 788.70 682.52 786.05 681.71 783.48 681.57 M 314.26 712.24 C 309.22 715.69 302.87 716.09 296.95 715.76 C 289.55 714.33 285.65 722.21 279.19 724.20 C 272.04 725.90 272.59 736.68 277.92 740.14 C 292.92 750.81 308.11 761.85 319.52 776.49 C 322.88 778.56 327.27 778.22 331.04 779.34 C 342.54 781.37 353.50 785.49 364.65 788.74 C 369.73 780.87 371.92 771.52 376.49 763.42 C 380.89 760.37 386.44 766.27 391.01 764.99 C 374.42 744.10 353.19 726.24 328.62 715.51 C 323.97 714.33 319.02 710.49 314.26 712.24 M 691.17 715.26 C 664.57 723.08 636.51 729.11 608.87 734.16 C 599.45 736.05 589.79 736.81 580.55 739.49 C 573.02 739.28 564.84 740.08 558.28 744.25 C 542.36 753.41 528.31 765.74 512.04 774.20 C 498.00 767.51 485.91 757.55 472.86 749.23 C 467.23 745.73 461.85 741.05 455.02 740.33 C 436.38 738.62 418.08 734.21 399.48 732.41 C 390.54 729.38 380.92 728.04 371.74 725.97 C 401.11 749.91 424.19 784.04 428.50 822.34 C 430.26 835.73 429.39 849.27 430.25 862.71 C 441.22 864.84 452.02 867.76 462.86 870.46 C 462.98 872.51 458.58 870.51 456.97 870.93 C 447.23 872.33 437.48 870.16 428.02 867.99 C 426.80 872.88 425.20 877.84 425.09 882.92 C 424.01 884.82 421.51 887.84 423.00 889.80 C 436.33 891.67 449.53 894.85 463.05 895.24 C 480.02 895.81 496.99 897.68 513.97 896.40 C 582.60 895.44 649.85 877.08 712.99 851.04 C 720.41 848.23 727.34 844.12 735.04 842.07 C 737.00 840.25 735.13 836.82 733.89 835.01 C 730.21 833.63 726.76 837.65 723.06 837.18 C 719.37 835.54 717.77 831.47 715.71 828.27 C 694.19 838.27 671.91 847.16 648.83 852.81 C 656.84 846.97 666.88 844.84 675.96 841.17 C 688.38 835.45 701.38 830.93 713.29 824.15 C 710.94 818.09 708.58 812.00 705.78 806.14 C 694.38 810.57 683.31 816.12 671.39 819.05 C 678.95 813.22 688.38 809.96 696.05 804.14 C 698.29 801.84 700.64 799.51 703.74 798.48 C 701.49 788.78 699.93 778.70 697.65 768.88 C 695.48 771.27 695.29 775.63 692.21 776.92 C 696.30 760.34 696.37 742.70 694.67 725.88 C 694.89 722.15 697.65 712.78 691.17 715.26 M 254.22 726.40 C 245.61 731.97 234.71 728.60 226.01 733.70 C 218.71 736.19 210.60 737.30 203.05 735.25 C 198.97 733.99 195.68 737.45 192.84 739.82 C 183.37 748.76 175.06 758.88 167.51 769.47 C 165.82 772.14 163.54 774.65 163.01 777.88 C 166.62 777.32 170.00 775.78 173.61 775.29 C 178.31 783.06 180.97 792.37 186.71 799.30 C 198.89 793.06 211.25 787.13 224.02 782.17 C 226.36 781.60 227.57 779.48 228.67 777.56 C 237.13 762.33 250.76 750.99 264.00 740.06 C 268.30 737.39 267.58 731.01 265.88 727.05 C 262.21 725.75 257.94 724.75 254.22 726.40 M 268.37 744.44 C 260.22 749.67 253.75 757.14 246.90 763.92 C 244.41 766.95 240.77 769.43 239.79 773.40 C 250.95 766.11 258.89 754.04 270.99 747.93 C 283.81 754.13 293.74 764.86 306.04 771.85 C 305.25 769.01 302.77 767.19 300.72 765.28 C 292.95 758.67 284.85 752.43 276.42 746.69 C 274.03 745.31 271.26 742.89 268.37 744.44 M 834.20 783.14 C 825.69 789.67 817.96 797.48 808.27 802.26 C 804.04 805.98 799.41 809.03 794.31 811.38 C 787.81 817.35 776.44 818.01 771.81 825.02 C 769.00 822.87 766.94 826.30 764.09 826.52 C 767.49 828.89 763.51 832.64 760.40 831.34 C 762.73 834.27 759.28 835.68 757.44 837.33 C 756.03 839.71 755.14 842.62 755.46 845.41 C 757.49 848.07 761.67 848.72 763.25 851.79 C 762.05 851.26 760.82 850.89 759.57 850.68 C 759.54 853.66 764.13 853.93 764.40 856.96 C 764.43 859.28 765.99 857.84 767.24 857.21 C 766.27 859.73 761.46 860.14 763.54 863.41 C 763.70 866.83 769.44 859.33 767.68 863.97 C 765.03 867.09 768.26 869.66 771.43 870.15 C 771.72 867.38 766.84 869.02 767.96 866.72 C 770.17 866.29 772.22 868.27 774.43 867.59 C 775.20 865.58 775.38 863.38 776.42 861.49 C 778.36 860.68 780.43 859.31 779.38 856.92 C 782.03 855.45 784.20 853.36 786.38 851.30 C 785.18 856.36 783.81 861.52 784.44 866.78 C 784.69 867.95 782.85 868.05 782.48 868.99 C 784.40 870.04 788.45 873.43 783.66 871.40 C 782.84 876.09 786.78 878.79 790.46 880.47 C 793.21 883.37 799.03 879.57 796.95 875.96 C 794.40 875.66 789.20 880.56 789.12 876.05 C 789.66 873.19 786.18 875.70 785.70 872.95 C 788.22 871.92 793.94 871.69 791.05 868.02 C 795.17 869.42 792.77 871.68 790.48 873.55 C 796.97 872.52 790.95 874.35 789.45 877.03 C 792.40 877.33 794.48 875.05 796.88 873.76 C 798.16 876.01 799.56 879.07 796.77 880.82 C 794.73 884.92 800.69 878.80 801.64 882.86 C 800.90 880.55 799.30 877.75 802.94 877.82 C 800.00 882.48 809.00 883.18 804.55 878.98 C 807.41 877.50 807.19 880.97 808.89 882.12 C 808.60 880.01 808.06 877.95 807.92 875.83 C 809.87 876.39 809.05 879.42 810.96 880.07 C 810.72 877.65 809.90 875.36 809.06 873.12 C 811.10 874.49 814.78 877.16 816.70 874.51 C 820.70 867.72 823.12 859.94 823.36 851.99 C 827.51 856.46 826.69 864.92 827.07 871.07 C 826.28 875.42 829.39 868.27 829.90 870.94 C 830.56 873.20 834.04 870.94 833.14 868.97 C 833.16 865.24 836.07 870.95 837.14 868.13 C 838.82 865.04 839.64 861.49 842.23 858.94 C 850.47 834.98 847.27 808.04 836.66 785.32 C 836.00 784.54 835.62 782.14 834.20 783.14 M 318.25 785.37 C 306.07 792.69 295.96 802.97 284.92 811.85 C 281.02 814.72 277.49 818.88 277.89 824.05 C 278.09 837.44 280.00 850.74 281.13 864.08 C 281.79 867.29 281.27 871.58 284.47 873.55 C 295.25 880.81 306.81 887.00 317.38 894.45 C 320.88 896.20 323.08 901.48 327.69 900.59 C 339.00 896.20 350.80 893.00 361.98 888.08 C 367.06 883.86 368.69 876.92 370.90 870.95 C 375.89 860.52 379.57 849.37 381.93 838.05 C 380.76 828.70 376.31 820.00 372.58 811.41 C 369.38 806.06 368.61 798.48 362.28 795.69 C 352.07 791.03 340.94 788.87 330.06 786.38 C 326.19 785.82 322.12 784.02 318.25 785.37 M 225.34 789.43 C 215.66 793.01 206.23 797.27 196.99 801.86 C 192.65 804.25 187.23 806.25 185.43 811.34 C 181.64 821.43 179.38 832.04 177.46 842.64 C 176.14 848.95 179.15 855.03 181.26 860.82 C 184.52 867.35 186.53 874.70 191.55 880.19 C 191.75 885.15 196.23 887.67 198.11 891.80 C 200.76 896.78 207.17 895.81 211.75 897.11 C 213.43 899.01 215.80 898.81 218.10 898.51 C 223.06 902.30 229.54 902.52 235.02 904.67 C 237.34 904.67 239.61 907.57 241.83 906.02 C 252.42 894.91 262.99 883.71 273.69 872.69 C 273.13 858.48 272.08 844.27 271.18 830.07 C 270.64 825.42 270.79 819.59 266.43 816.65 C 254.30 808.06 242.39 799.17 230.11 790.80 C 228.65 789.94 227.11 788.33 225.34 789.43 M 760.25 827.99 C 759.19 828.48 758.15 829.01 757.13 829.57 C 758.40 832.90 760.49 828.63 762.77 829.34 C 765.45 828.85 761.35 826.55 760.25 827.99 M 753.34 830.20 C 753.00 831.73 755.47 833.24 756.80 832.53 C 756.98 831.01 754.65 829.72 753.34 830.20 M 413.22 832.40 C 408.55 836.03 402.09 835.19 397.31 838.40 C 391.60 837.36 388.03 842.02 387.41 847.19 C 383.90 861.25 378.19 874.67 372.74 888.05 C 372.20 890.13 375.40 892.38 376.93 890.25 C 376.55 894.62 380.36 896.95 382.97 899.77 C 387.74 896.73 397.86 896.46 404.39 893.43 C 411.52 874.95 415.85 854.93 414.66 834.98 C 414.30 834.26 414.50 831.31 413.22 832.40 M 752.01 832.47 C 751.04 836.41 756.06 831.70 752.01 832.47 M 758.18 832.34 C 757.09 836.96 762.79 831.38 758.18 832.34 M 750.93 835.89 C 751.18 837.79 752.53 839.24 753.96 840.42 C 757.40 838.50 752.69 836.91 750.93 835.89 M 753.10 844.99 C 753.28 848.43 753.50 853.58 757.89 854.02 C 753.92 857.18 759.75 859.60 760.93 862.70 C 761.80 860.89 765.29 857.68 760.99 858.83 C 757.14 858.70 766.36 855.99 762.11 855.54 C 759.03 857.43 756.77 857.55 759.76 854.15 C 755.39 852.15 755.53 848.50 753.10 844.99 M 150.04 849.25 L 149.39 849.48 C 151.25 865.82 154.00 882.84 162.91 897.01 C 164.68 903.51 172.77 902.78 178.06 904.28 C 181.28 903.19 185.09 907.92 187.33 904.46 C 187.19 901.05 191.30 899.55 191.17 896.04 C 188.66 898.98 187.10 895.69 190.17 894.19 C 180.69 881.99 175.71 867.28 169.84 853.13 C 163.07 851.96 156.70 850.55 150.04 849.25 M 757.21 849.31 C 756.34 853.30 761.21 848.51 757.21 849.31 M 703.40 886.32 C 704.02 887.67 707.97 887.67 708.60 886.31 C 707.06 885.53 704.92 885.53 703.40 886.32 M 687.29 887.10 C 687.47 890.39 690.25 885.53 687.29 887.10 M 348.87 902.60 C 341.24 905.13 333.48 907.55 326.37 911.34 C 319.54 921.00 314.04 931.66 307.06 941.20 C 308.86 943.26 313.25 945.74 308.01 945.81 C 308.00 938.81 301.08 944.50 298.95 947.14 C 297.87 949.92 292.82 948.53 292.94 951.98 C 293.43 954.65 293.90 957.33 294.38 960.02 C 297.04 960.36 299.47 961.57 302.09 962.10 C 301.47 960.61 295.73 957.98 300.47 959.54 C 302.95 962.86 310.20 957.79 309.34 962.31 C 306.10 961.67 301.04 968.25 298.97 962.78 C 296.63 960.73 296.18 965.14 299.01 964.67 C 295.30 969.03 297.61 960.06 294.51 960.63 C 294.82 963.89 294.63 967.35 295.79 970.45 C 321.42 968.71 347.02 960.40 367.29 944.27 C 370.99 941.53 364.07 934.89 361.77 939.43 C 358.59 939.11 361.67 932.89 361.41 936.26 C 360.66 940.99 363.67 934.90 364.72 933.60 C 368.27 930.22 362.25 938.28 366.22 937.32 C 370.18 938.84 365.48 935.87 366.88 935.16 C 370.51 933.68 368.47 929.39 370.44 926.83 C 368.80 924.28 368.68 930.36 366.51 929.88 C 365.57 928.80 364.91 927.41 363.61 926.73 C 365.26 928.91 364.54 931.63 362.46 933.21 C 362.32 931.40 361.66 929.50 360.22 931.92 C 359.83 927.72 362.24 923.91 363.54 920.07 C 366.37 920.75 368.69 922.64 371.31 923.83 C 372.34 920.08 374.67 916.02 372.83 912.16 C 376.06 910.76 376.04 907.35 375.70 904.38 C 371.60 902.24 369.95 897.26 365.55 895.42 C 361.40 899.38 353.81 898.92 348.87 902.60 M 199.35 902.42 C 195.72 904.76 193.65 910.55 196.24 914.56 C 197.99 915.37 202.30 917.77 198.08 918.53 C 200.62 921.45 200.01 926.19 203.95 927.97 C 203.47 930.08 203.29 932.35 205.35 933.72 C 208.56 936.17 207.59 940.50 209.67 943.57 C 212.02 943.87 217.04 938.63 212.16 938.49 C 214.11 936.54 215.91 933.86 218.96 933.79 C 218.39 934.11 217.26 934.75 216.70 935.06 C 218.70 937.03 221.19 938.21 218.96 941.38 C 221.12 940.15 222.18 937.76 224.01 936.18 C 225.91 937.49 227.44 936.40 228.91 935.10 C 228.12 936.98 226.93 939.10 230.20 938.20 C 229.19 939.50 225.11 944.90 226.55 940.68 C 227.31 935.73 223.78 945.42 220.88 942.38 C 219.23 943.86 213.33 947.45 214.04 942.72 C 211.55 943.72 208.85 947.16 211.58 949.45 C 216.28 953.72 222.40 955.98 228.04 958.74 C 246.71 966.65 267.05 973.01 287.55 970.45 C 288.08 967.95 283.95 966.55 285.71 963.96 C 286.80 962.19 284.75 961.86 283.62 961.26 C 284.56 959.14 285.65 955.65 283.09 954.27 C 282.04 955.24 281.17 956.44 279.93 957.19 C 280.72 955.10 282.03 953.25 282.81 951.16 C 281.96 949.30 279.56 948.64 278.08 950.22 C 276.57 947.46 272.52 949.89 272.82 946.39 C 264.60 941.14 258.52 933.21 251.53 926.49 C 246.52 921.96 243.06 915.00 236.03 913.33 C 229.31 911.82 222.94 908.85 215.98 908.56 C 210.62 906.05 204.89 904.48 199.35 902.42 M 694.36 903.51 C 671.36 904.44 647.80 915.34 635.55 935.41 C 633.65 939.58 629.32 945.24 633.67 949.28 C 630.11 949.70 632.38 956.90 634.66 959.39 C 638.21 967.22 646.38 971.38 654.62 972.03 C 649.06 967.97 642.07 965.84 637.02 961.08 C 639.71 960.40 642.04 963.62 644.61 964.48 C 644.88 962.06 641.54 962.22 640.81 960.26 C 643.21 960.52 644.94 960.37 643.14 957.86 C 647.34 957.88 644.33 962.88 645.62 965.51 C 647.67 963.90 649.81 965.25 651.95 965.77 C 652.68 964.99 656.74 962.84 655.53 965.25 C 654.67 970.04 650.18 965.62 647.42 965.46 C 648.59 969.29 656.05 968.44 655.44 973.05 C 657.89 973.27 661.11 968.16 662.24 972.09 C 662.06 975.46 663.65 972.68 664.13 971.17 C 663.50 957.84 664.27 942.64 672.33 931.17 C 671.40 940.76 670.85 950.48 672.10 960.07 C 672.24 962.69 676.29 963.30 673.88 966.19 C 675.90 965.86 676.47 966.95 676.21 968.84 C 677.50 967.95 679.41 966.36 680.55 968.45 C 682.15 969.58 678.31 971.82 680.35 972.62 C 683.88 973.94 682.14 967.74 685.64 968.40 C 689.21 966.22 687.71 970.46 687.89 972.73 C 690.84 973.35 692.93 969.97 695.14 973.09 C 695.03 971.30 693.69 970.08 692.75 968.72 C 696.71 967.00 697.91 971.75 696.13 974.47 C 698.61 971.86 702.06 970.99 705.32 972.86 C 704.52 967.92 698.90 972.48 697.31 968.88 C 700.72 969.27 704.36 964.47 707.10 967.47 C 705.66 967.08 702.92 967.42 704.71 969.31 C 708.92 971.24 712.54 966.20 712.50 962.34 C 715.77 951.74 713.73 940.70 714.22 929.89 C 721.76 941.29 721.30 955.69 720.94 968.79 C 723.93 970.51 726.93 972.26 729.91 974.01 C 731.66 972.12 734.34 971.88 736.75 971.72 C 734.38 968.21 738.89 970.13 740.85 970.45 C 740.20 968.62 737.96 966.51 736.03 968.01 C 733.78 969.93 732.18 966.71 730.78 965.27 C 732.69 965.80 735.35 967.99 735.76 964.60 C 737.74 965.85 739.43 966.55 738.63 963.20 C 741.17 964.23 743.45 965.89 745.17 968.04 C 743.18 968.02 737.90 963.17 740.17 967.66 C 743.38 971.00 746.59 967.86 749.95 966.64 C 749.55 963.26 745.58 961.76 743.86 959.02 C 746.07 959.91 748.19 961.22 750.68 961.22 C 750.41 960.23 746.46 956.47 750.00 958.26 C 753.83 958.85 749.17 963.91 752.06 964.37 C 753.88 962.38 756.48 961.22 753.66 958.47 C 750.81 954.21 757.30 961.29 757.24 957.96 C 762.81 947.81 760.47 934.60 753.23 925.83 C 739.52 908.25 715.71 902.45 694.36 903.51 M 365.02 925.01 C 364.29 924.33 364.29 924.33 365.02 925.01 C 364.72 929.11 370.70 923.30 366.63 922.35 C 363.36 920.25 366.51 923.61 365.02 925.01 M 363.61 926.73 C 363.15 926.19 363.15 926.19 363.61 926.73 M 362.06 928.28 C 360.53 931.14 365.54 928.64 362.06 928.28 M 215.65 937.37 C 215.93 937.64 215.93 937.64 215.65 937.37 M 217.49 938.29 C 216.31 938.90 214.71 940.25 215.11 941.73 C 216.58 942.40 220.40 937.89 217.49 938.29 M 223.39 938.02 C 222.36 938.69 221.97 939.59 222.21 940.72 C 223.86 941.65 226.03 937.09 223.39 938.02 M 217.33 942.13 C 215.73 945.14 220.74 942.21 217.33 942.13 M 386.10 949.07 C 382.87 952.07 389.82 952.01 386.10 949.07 M 382.33 954.10 C 382.51 957.40 385.40 952.55 382.33 954.10 M 379.24 954.82 C 379.76 956.64 378.18 957.07 376.95 957.75 C 379.02 957.85 381.62 957.84 382.94 959.11 C 387.55 956.64 380.49 957.15 379.24 954.82 M 376.08 960.11 C 376.33 963.36 379.14 958.55 376.08 960.11 M 678.33 969.03 C 674.65 971.35 681.82 970.92 678.33 969.03 M 708.17 970.10 C 703.85 973.26 711.04 972.77 708.17 970.10 M 684.43 971.18 C 684.48 974.57 687.39 969.43 684.43 971.18 M 720.30 971.33 C 719.86 976.09 725.65 968.89 720.30 971.33 M 724.22 973.17 C 724.46 976.48 727.23 971.56 724.22 973.17 Z"/><path fill="#000000" opacity="1.00" d=" M 719.50 157.28 C 722.01 160.02 727.00 156.33 723.04 160.76 C 726.54 160.54 724.92 164.77 729.02 163.22 C 728.79 167.86 724.66 164.43 721.97 165.04 C 718.66 165.58 725.86 161.27 721.97 162.00 C 718.76 162.81 721.69 158.64 719.50 157.28 Z"/><path fill="#000000" opacity="1.00" d=" M 300.50 159.09 C 307.18 157.48 295.47 164.77 300.50 159.09 Z"/><path fill="#000000" opacity="1.00" d=" M 612.94 164.96 C 615.16 165.89 617.76 166.72 619.04 168.94 C 616.87 167.92 614.23 167.13 612.94 164.96 Z"/><path fill="#000000" opacity="1.00" d=" M 722.91 166.00 C 725.47 166.38 727.95 167.24 730.58 167.27 C 725.51 169.00 736.39 173.95 729.99 176.32 C 730.86 172.81 729.65 169.69 725.97 172.54 C 728.65 168.97 724.31 168.51 722.91 166.00 Z"/><path fill="#000000" opacity="1.00" d=" M 371.07 171.42 C 374.40 171.38 369.60 174.47 371.07 171.42 Z"/><path fill="#000000" opacity="1.00" d=" M 283.39 172.09 C 286.65 173.97 279.66 174.57 283.39 172.09 Z"/><path fill="#000000" opacity="1.00" d=" M 752.13 172.48 C 755.54 172.73 750.55 175.38 752.13 172.48 Z"/><path fill="#000000" opacity="1.00" d=" M 395.36 173.46 C 397.77 173.25 402.84 172.79 403.65 173.75 C 393.29 176.95 383.58 181.92 374.22 187.36 C 379.40 180.59 386.71 174.77 395.36 173.46 Z"/><path fill="#000000" opacity="1.00" d=" M 733.27 173.34 C 736.66 173.53 731.71 176.35 733.27 173.34 Z"/><path fill="#000000" opacity="1.00" d=" M 750.38 174.90 C 754.53 174.70 750.21 178.78 750.38 174.90 Z"/><path fill="#000000" opacity="1.00" d=" M 287.83 177.08 C 287.06 173.77 284.69 177.82 287.83 177.08 Z"/><path fill="#000000" opacity="1.00" d=" M 746.26 178.51 C 750.25 177.60 745.84 182.52 746.26 178.51 Z"/><path fill="#000000" opacity="1.00" d=" M 749.09 181.00 C 750.77 180.46 752.44 183.16 751.91 184.63 C 750.38 184.76 748.49 182.50 749.09 181.00 Z"/><path fill="#000000" opacity="1.00" d=" M 745.45 182.05 C 748.44 180.53 745.52 185.48 745.45 182.05 Z"/><path fill="#000000" opacity="1.00" d=" M 895.14 185.67 C 899.29 188.41 902.64 192.26 905.28 196.45 C 908.83 193.08 907.97 197.43 905.58 199.20 C 902.34 195.29 899.49 187.53 893.38 191.35 C 890.44 193.10 893.78 194.62 895.16 191.85 C 893.85 194.58 893.88 196.97 896.09 199.16 C 890.75 198.88 888.93 188.35 895.36 188.07 C 895.30 187.47 895.20 186.27 895.14 185.67 Z"/><path fill="#000000" opacity="1.00" d=" M 117.09 189.23 C 121.13 188.28 116.16 193.20 117.09 189.23 Z"/><path fill="#000000" opacity="1.00" d=" M 107.02 190.33 C 110.33 190.40 105.40 193.38 107.02 190.33 Z"/><path fill="#000000" opacity="1.00" d=" M 885.97 189.31 C 890.77 191.97 888.43 198.36 891.70 201.90 C 889.19 203.71 888.24 198.99 888.08 197.05 C 888.39 194.07 884.31 192.33 885.97 189.31 Z"/><path fill="#000000" opacity="1.00" d=" M 897.40 190.99 C 899.31 192.74 896.92 198.20 899.84 193.30 C 899.72 197.09 904.45 198.40 904.42 202.31 C 901.87 201.33 900.78 194.28 897.89 198.11 C 898.37 196.18 897.71 195.39 895.90 195.73 C 896.29 194.12 896.78 192.53 897.40 190.99 Z"/><path fill="#000000" opacity="1.00" d=" M 112.01 193.33 C 115.41 193.46 110.39 196.33 112.01 193.33 Z"/><path fill="#000000" opacity="1.00" d=" M 106.32 194.12 C 110.18 192.92 104.87 198.33 106.32 194.12 Z"/><path fill="#000000" opacity="1.00" d=" M 109.18 195.11 C 112.63 197.28 105.73 197.35 109.18 195.11 Z"/><path fill="#000000" opacity="1.00" d=" M 114.98 195.32 C 118.32 195.40 113.37 198.35 114.98 195.32 Z"/><path fill="#000000" opacity="1.00" d=" M 120.92 195.80 C 124.47 194.45 126.18 199.06 127.79 201.45 C 128.65 202.82 125.84 203.94 126.45 201.91 C 127.14 198.74 122.19 204.17 123.32 200.98 C 124.34 198.64 121.94 197.51 120.92 195.80 Z"/><path fill="#000000" opacity="1.00" d=" M 131.13 196.54 C 132.67 196.22 134.87 197.81 134.68 199.46 C 133.26 200.03 130.46 198.12 131.13 196.54 Z"/><path fill="#000000" opacity="1.00" d=" M 106.11 197.17 C 109.41 199.48 102.65 199.39 106.11 197.17 Z"/><path fill="#000000" opacity="1.00" d=" M 891.21 197.46 C 894.63 197.62 889.66 200.43 891.21 197.46 Z"/><path fill="#000000" opacity="1.00" d=" M 908.03 197.47 C 911.45 197.56 906.45 200.45 908.03 197.47 Z"/><path fill="#000000" opacity="1.00" d=" M 910.99 198.43 C 914.32 198.53 909.37 201.42 910.99 198.43 Z"/><path fill="#000000" opacity="1.00" d=" M 914.34 197.95 C 917.37 196.37 914.31 201.32 914.34 197.95 Z"/><path fill="#000000" opacity="1.00" d=" M 109.17 199.04 C 112.18 201.14 105.48 201.63 109.17 199.04 Z"/><path fill="#000000" opacity="1.00" d=" M 893.43 200.41 C 896.01 200.05 894.19 204.98 892.28 204.62 C 892.06 203.22 892.70 201.61 893.43 200.41 Z"/><path fill="#000000" opacity="1.00" d=" M 899.28 200.02 C 902.29 198.44 899.43 203.42 899.28 200.02 Z"/><path fill="#000000" opacity="1.00" d=" M 907.25 200.24 C 910.39 202.50 903.73 202.57 907.25 200.24 Z"/><path fill="#000000" opacity="1.00" d=" M 877.27 201.07 C 880.29 199.54 877.37 204.47 877.27 201.07 Z"/><path fill="#000000" opacity="1.00" d=" M 886.62 201.07 C 889.64 199.53 886.71 204.48 886.62 201.07 Z"/><path fill="#000000" opacity="1.00" d=" M 128.95 201.93 C 132.12 204.82 135.29 199.48 137.18 203.99 C 134.66 203.72 129.00 205.69 128.95 201.93 Z"/><path fill="#000000" opacity="1.00" d=" M 138.69 201.87 C 141.97 201.69 144.88 203.64 146.85 206.12 C 143.89 205.05 139.50 205.81 138.69 201.87 Z"/><path fill="#000000" opacity="1.00" d=" M 882.97 202.33 C 886.90 201.87 882.39 206.41 882.97 202.33 Z"/><path fill="#000000" opacity="1.00" d=" M 106.99 203.16 C 111.68 202.48 106.33 207.71 106.99 203.16 Z"/><path fill="#000000" opacity="1.00" d=" M 870.77 202.65 C 872.75 203.47 875.65 205.44 875.05 207.81 C 872.08 208.34 868.77 210.33 865.86 209.12 C 865.56 207.07 865.70 204.44 867.79 203.35 C 870.13 204.57 867.66 206.49 867.05 207.95 C 868.98 207.07 870.96 206.34 873.00 205.74 C 870.97 205.42 870.23 204.39 870.77 202.65 Z"/><path fill="#000000" opacity="1.00" d=" M 898.46 203.08 C 901.33 201.48 898.73 206.51 898.46 203.08 Z"/><path fill="#000000" opacity="1.00" d=" M 876.20 204.09 C 877.54 202.83 879.95 205.21 878.70 206.57 C 877.31 207.56 875.23 205.48 876.20 204.09 Z"/><path fill="#000000" opacity="1.00" d=" M 915.22 203.97 C 918.52 204.16 913.59 206.99 915.22 203.97 Z"/><path fill="#000000" opacity="1.00" d=" M 828.39 234.09 C 828.78 234.47 828.78 234.47 828.39 234.09 Z"/><path fill="#000000" opacity="1.00" d=" M 202.12 239.17 C 202.50 239.55 202.50 239.55 202.12 239.17 Z"/><path fill="#000000" opacity="1.00" d=" M 210.13 248.35 C 214.18 247.76 209.75 252.23 210.13 248.35 Z"/><path fill="#000000" opacity="1.00" d=" M 205.94 249.14 C 209.27 249.39 204.46 252.15 205.94 249.14 Z"/><path fill="#000000" opacity="1.00" d=" M 208.38 251.25 C 212.40 250.20 207.11 255.23 208.38 251.25 Z"/><path fill="#000000" opacity="1.00" d=" M 212.87 251.84 C 215.62 251.75 218.03 255.61 218.95 258.25 C 216.48 256.59 214.42 254.36 212.87 251.84 Z"/><path fill="#000000" opacity="1.00" d=" M 210.69 253.68 C 213.35 255.23 215.61 257.44 216.74 260.36 C 211.92 261.43 213.05 256.18 210.69 253.68 Z"/><path fill="#000000" opacity="1.00" d=" M 345.25 255.39 C 356.53 253.33 369.71 255.44 377.75 264.24 C 383.48 270.85 386.69 279.50 387.99 288.04 C 388.66 291.30 384.67 289.58 383.00 288.98 C 366.63 281.42 347.92 280.86 330.34 283.44 C 319.39 285.14 309.58 292.39 299.61 295.32 C 307.47 275.99 324.49 259.68 345.25 255.39 Z"/><path fill="#000000" opacity="1.00" d=" M 667.35 255.47 C 678.65 254.45 690.35 256.86 699.97 262.98 C 711.99 270.61 720.50 282.99 725.24 296.23 C 720.85 294.84 717.60 291.30 713.37 289.57 C 690.34 279.31 662.44 278.50 640.05 290.93 C 639.91 281.36 642.63 271.32 648.79 263.82 C 653.25 258.25 660.47 255.98 667.35 255.47 Z"/><path fill="#000000" opacity="1.00" d=" M 827.15 256.06 C 830.20 258.22 823.38 258.30 827.15 256.06 Z"/><path fill="#000000" opacity="1.00" d=" M 807.36 259.30 C 810.31 262.06 803.73 263.11 807.36 259.30 Z"/><path fill="#000000" opacity="1.00" d=" M 818.45 259.17 C 818.87 259.59 818.87 259.59 818.45 259.17 Z"/><path fill="#000000" opacity="1.00" d=" M 211.17 262.21 C 212.31 260.53 217.16 263.06 214.96 264.70 C 213.62 263.98 212.36 263.13 211.17 262.21 Z"/><path fill="#000000" opacity="1.00" d=" M 826.18 262.06 C 829.16 264.23 822.60 264.62 826.18 262.06 Z"/><path fill="#000000" opacity="1.00" d=" M 814.26 263.22 C 814.79 263.76 814.79 263.76 814.26 263.22 Z"/><path fill="#000000" opacity="1.00" d=" M 808.33 264.00 C 811.29 262.52 808.33 267.37 808.33 264.00 Z"/><path fill="#000000" opacity="1.00" d=" M 807.17 265.93 C 810.79 269.21 803.21 269.60 807.17 265.93 Z"/><path fill="#000000" opacity="1.00" d=" M 800.14 267.32 C 804.10 266.70 799.57 271.30 800.14 267.32 Z"/><path fill="#000000" opacity="1.00" d=" M 824.25 267.23 C 824.78 267.77 824.78 267.77 824.25 267.23 Z"/><path fill="#000000" opacity="1.00" d=" M 803.47 268.12 C 804.93 270.38 811.58 272.69 806.66 274.94 C 805.60 272.65 803.99 267.94 801.77 272.19 C 800.62 270.44 804.13 270.14 803.47 268.12 Z"/><path fill="#000000" opacity="1.00" d=" M 809.51 269.42 C 812.25 270.66 813.84 273.46 815.12 276.06 C 812.36 274.87 810.59 272.11 809.51 269.42 Z"/><path fill="#000000" opacity="1.00" d=" M 822.01 269.97 C 826.81 269.49 822.93 274.40 822.01 269.97 Z"/><path fill="#000000" opacity="1.00" d=" M 430.36 271.87 C 431.95 275.17 431.50 279.51 429.63 282.64 C 426.74 283.54 430.06 279.93 429.91 278.68 C 426.80 280.84 426.60 285.17 427.95 288.40 C 423.72 287.62 425.38 283.65 426.69 281.00 C 421.98 280.98 425.21 272.58 427.78 277.44 C 427.39 274.85 430.04 274.16 430.36 271.87 Z"/><path fill="#000000" opacity="1.00" d=" M 815.28 272.17 C 819.25 271.58 814.66 276.14 815.28 272.17 Z"/><path fill="#000000" opacity="1.00" d=" M 209.40 272.90 C 212.34 271.31 209.73 276.23 209.40 272.90 Z"/><path fill="#000000" opacity="1.00" d=" M 817.36 274.94 C 822.00 274.92 813.32 279.01 817.36 274.94 Z"/><path fill="#000000" opacity="1.00" d=" M 203.15 276.93 C 206.38 278.78 199.57 279.56 203.15 276.93 Z"/><path fill="#000000" opacity="1.00" d=" M 812.02 277.06 C 813.56 277.45 814.83 279.00 816.58 279.30 C 815.64 281.60 811.34 279.26 812.02 277.06 Z"/><path fill="#000000" opacity="1.00" d=" M 822.93 277.18 C 826.01 275.61 823.10 280.43 822.93 277.18 Z"/><path fill="#000000" opacity="1.00" d=" M 827.15 277.20 C 830.49 277.47 825.60 280.12 827.15 277.20 Z"/><path fill="#000000" opacity="1.00" d=" M 476.08 278.28 C 479.40 278.33 474.53 281.33 476.08 278.28 Z"/><path fill="#000000" opacity="1.00" d=" M 824.43 279.94 C 827.49 278.57 824.60 283.23 824.43 279.94 Z"/><path fill="#000000" opacity="1.00" d=" M 201.48 282.39 C 201.91 282.82 201.91 282.82 201.48 282.39 Z"/><path fill="#000000" opacity="1.00" d=" M 111.33 283.08 C 114.38 281.46 111.46 286.41 111.33 283.08 Z"/><path fill="#000000" opacity="1.00" d=" M 197.52 283.11 C 201.65 282.03 195.94 287.08 197.52 283.11 Z"/><path fill="#000000" opacity="1.00" d=" M 480.31 283.21 C 480.86 283.74 480.86 283.74 480.31 283.21 Z"/><path fill="#000000" opacity="1.00" d=" M 820.10 283.33 C 823.90 282.89 819.69 287.48 820.10 283.33 Z"/><path fill="#000000" opacity="1.00" d=" M 827.12 283.32 C 831.39 281.85 825.78 287.16 827.12 283.32 Z"/><path fill="#000000" opacity="1.00" d=" M 117.20 285.10 C 121.46 284.44 116.60 290.10 117.20 285.10 Z"/><path fill="#000000" opacity="1.00" d=" M 112.97 286.26 C 116.37 286.60 111.34 289.13 112.97 286.26 Z"/><path fill="#000000" opacity="1.00" d=" M 829.46 286.41 C 829.89 286.85 829.89 286.85 829.46 286.41 Z"/><path fill="#000000" opacity="1.00" d=" M 121.34 287.32 C 124.29 290.03 117.25 290.59 121.34 287.32 Z"/><path fill="#000000" opacity="1.00" d=" M 502.25 287.24 C 502.79 287.78 502.79 287.78 502.25 287.24 Z"/><path fill="#000000" opacity="1.00" d=" M 908.16 288.50 C 908.52 288.87 908.52 288.87 908.16 288.50 Z"/><path fill="#000000" opacity="1.00" d=" M 116.04 288.83 C 117.66 289.75 118.69 291.35 120.05 292.58 C 121.33 292.32 122.64 290.19 123.89 291.20 C 123.37 292.78 121.13 293.11 121.30 295.03 C 119.17 293.34 117.00 291.45 116.04 288.83 Z"/><path fill="#000000" opacity="1.00" d=" M 136.17 289.17 C 140.10 288.38 135.72 293.18 136.17 289.17 Z"/><path fill="#000000" opacity="1.00" d=" M 184.57 289.31 C 187.84 288.62 182.78 294.07 182.14 291.38 C 182.65 290.37 183.46 289.68 184.57 289.31 Z"/><path fill="#000000" opacity="1.00" d=" M 835.08 289.14 C 839.65 288.15 834.02 293.81 835.08 289.14 Z"/><path fill="#000000" opacity="1.00" d=" M 841.13 289.38 C 845.64 289.78 840.44 293.92 841.13 289.38 Z"/><path fill="#000000" opacity="1.00" d=" M 142.41 290.10 C 146.37 289.54 141.72 294.09 142.41 290.10 Z"/><path fill="#000000" opacity="1.00" d=" M 175.22 290.15 C 176.65 289.75 177.74 291.55 178.62 292.46 C 177.89 294.22 174.36 291.75 175.22 290.15 Z"/><path fill="#000000" opacity="1.00" d=" M 897.37 290.11 C 901.33 289.53 896.72 294.09 897.37 290.11 Z"/><path fill="#000000" opacity="1.00" d=" M 126.40 291.45 C 130.33 289.00 127.29 294.89 126.40 291.45 Z"/><path fill="#000000" opacity="1.00" d=" M 892.25 291.28 C 895.63 291.42 890.69 294.31 892.25 291.28 Z"/><path fill="#000000" opacity="1.00" d=" M 904.38 291.26 C 908.40 290.22 903.10 295.24 904.38 291.26 Z"/><path fill="#000000" opacity="1.00" d=" M 130.96 292.28 C 134.35 292.44 129.37 295.30 130.96 292.28 Z"/><path fill="#000000" opacity="1.00" d=" M 165.47 292.01 C 168.47 290.32 165.69 295.28 165.47 292.01 Z"/><path fill="#000000" opacity="1.00" d=" M 502.15 292.12 C 503.46 292.35 504.72 292.77 505.94 293.33 C 505.06 295.60 501.47 294.57 502.15 292.12 Z"/><path fill="#000000" opacity="1.00" d=" M 186.46 293.42 C 187.82 291.59 186.52 295.45 186.17 295.96 C 184.66 298.46 181.11 297.88 178.77 299.24 C 179.55 295.88 185.16 297.55 186.46 293.42 Z"/><path fill="#000000" opacity="1.00" d=" M 833.19 293.22 C 837.16 292.65 832.50 297.18 833.19 293.22 Z"/><path fill="#000000" opacity="1.00" d=" M 896.25 293.29 C 899.57 293.31 894.67 296.38 896.25 293.29 Z"/><path fill="#000000" opacity="1.00" d=" M 125.53 294.47 C 128.85 293.09 127.91 295.99 125.17 296.00 C 127.94 300.89 119.58 295.08 125.53 294.47 Z"/><path fill="#000000" opacity="1.00" d=" M 144.46 294.14 C 147.53 296.01 140.45 296.66 144.46 294.14 Z"/><path fill="#000000" opacity="1.00" d=" M 843.98 294.29 C 848.98 294.41 842.62 299.40 843.98 294.29 Z"/><path fill="#000000" opacity="1.00" d=" M 882.28 294.11 C 885.24 292.57 882.40 297.43 882.28 294.11 Z"/><path fill="#000000" opacity="1.00" d=" M 168.12 295.07 C 171.30 297.30 164.55 297.34 168.12 295.07 Z"/><path fill="#000000" opacity="1.00" d=" M 177.29 295.09 C 180.35 293.56 177.34 298.40 177.29 295.09 Z"/><path fill="#000000" opacity="1.00" d=" M 493.14 295.23 C 496.41 295.37 491.61 298.31 493.14 295.23 Z"/><path fill="#000000" opacity="1.00" d=" M 874.32 295.34 C 876.39 296.40 872.36 301.12 871.31 298.30 C 872.27 297.30 873.36 296.38 874.32 295.34 Z"/><path fill="#000000" opacity="1.00" d=" M 164.31 296.27 C 168.94 296.59 160.81 300.03 164.31 296.27 Z"/><path fill="#000000" opacity="1.00" d=" M 171.20 296.12 C 174.43 298.26 167.66 298.45 171.20 296.12 Z"/><path fill="#000000" opacity="1.00" d=" M 154.18 296.96 C 157.21 295.45 154.12 300.36 154.18 296.96 Z"/><path fill="#000000" opacity="1.00" d=" M 865.23 297.24 C 868.67 299.49 861.79 299.40 865.23 297.24 Z"/><path fill="#000000" opacity="1.00" d=" M 176.20 298.39 C 180.35 298.48 174.24 303.24 176.20 298.39 Z"/><path fill="#000000" opacity="1.00" d=" M 860.93 298.54 C 864.25 298.71 859.27 301.52 860.93 298.54 Z"/><path fill="#000000" opacity="1.00" d=" M 497.34 299.37 C 500.70 300.50 495.07 303.35 497.34 299.37 Z"/><path fill="#000000" opacity="1.00" d=" M 848.24 299.46 C 851.59 299.64 846.74 302.44 848.24 299.46 Z"/><path fill="#000000" opacity="1.00" d=" M 856.41 299.06 C 859.39 297.44 856.41 302.46 856.41 299.06 Z"/><path fill="#000000" opacity="1.00" d=" M 152.86 300.27 C 156.22 300.45 151.28 303.30 152.86 300.27 Z"/><path fill="#000000" opacity="1.00" d=" M 852.08 300.35 C 856.93 302.27 848.50 303.94 852.08 300.35 Z"/><path fill="#000000" opacity="1.00" d=" M 881.97 314.44 C 885.28 314.55 880.33 317.46 881.97 314.44 Z"/><path fill="#000000" opacity="1.00" d=" M 836.08 322.86 C 838.45 323.37 840.99 325.01 843.17 323.08 C 842.28 325.41 840.48 328.03 842.82 330.13 C 840.50 329.44 837.85 328.46 840.91 326.29 C 837.59 327.38 837.64 324.85 836.08 322.86 Z"/><path fill="#000000" opacity="1.00" d=" M 853.98 323.05 C 858.24 322.56 853.97 326.78 853.98 323.05 Z"/><path fill="#000000" opacity="1.00" d=" M 844.35 324.27 C 847.42 326.73 840.46 327.94 844.35 324.27 Z"/><path fill="#000000" opacity="1.00" d=" M 163.18 325.20 C 167.18 324.71 162.48 329.15 163.18 325.20 Z"/><path fill="#000000" opacity="1.00" d=" M 170.16 325.20 C 173.50 325.24 168.60 328.24 170.16 325.20 Z"/><path fill="#000000" opacity="1.00" d=" M 846.39 325.23 C 850.96 324.86 846.83 329.81 846.39 325.23 Z"/><path fill="#000000" opacity="1.00" d=" M 836.32 329.17 C 837.37 328.42 839.85 329.39 839.57 330.82 C 838.50 331.50 836.02 330.58 836.32 329.17 Z"/><path fill="#000000" opacity="1.00" d=" M 181.09 330.92 C 184.14 329.51 181.27 334.22 181.09 330.92 Z"/><path fill="#000000" opacity="1.00" d=" M 835.02 331.45 C 839.00 330.83 834.38 335.40 835.02 331.45 Z"/><path fill="#000000" opacity="1.00" d=" M 595.07 336.31 C 598.42 336.43 593.52 339.23 595.07 336.31 Z"/><path fill="#000000" opacity="1.00" d=" M 335.46 339.48 C 338.29 337.46 338.91 341.54 338.12 343.50 C 336.58 343.94 336.13 338.68 335.15 342.04 C 334.40 346.61 329.15 343.76 328.80 340.52 C 330.69 340.65 334.26 346.19 332.71 341.41 C 330.88 339.25 334.40 340.48 335.46 339.48 Z"/><path fill="#000000" opacity="1.00" d=" M 326.30 341.32 C 330.68 341.96 326.06 346.17 326.30 341.32 Z"/><path fill="#000000" opacity="1.00" d=" M 341.20 341.32 C 345.21 338.97 342.38 344.64 341.20 341.32 Z"/><path fill="#000000" opacity="1.00" d=" M 347.23 341.05 C 350.27 339.39 347.20 344.44 347.23 341.05 Z"/><path fill="#000000" opacity="1.00" d=" M 324.16 342.42 C 324.60 342.85 324.60 342.85 324.16 342.42 Z"/><path fill="#000000" opacity="1.00" d=" M 324.28 345.06 C 327.21 343.51 324.41 348.40 324.28 345.06 Z"/><path fill="#000000" opacity="1.00" d=" M 336.34 345.49 C 353.20 344.20 370.51 347.05 385.01 356.09 C 407.75 368.94 421.20 393.93 425.19 419.13 C 427.97 440.84 429.25 463.76 420.50 484.37 C 412.81 509.75 390.07 529.15 364.36 534.51 C 352.99 536.27 341.40 536.17 329.93 535.87 C 298.32 531.93 271.41 510.00 256.20 482.74 C 253.53 481.29 251.80 477.83 254.49 475.43 C 252.36 475.40 248.19 482.38 249.49 477.47 C 250.37 474.08 245.92 479.42 243.95 476.99 C 240.21 475.63 241.29 479.34 242.93 481.04 C 240.28 480.07 237.48 479.35 235.11 477.78 C 233.71 474.08 238.87 474.82 238.86 472.04 C 236.70 472.76 234.85 474.14 232.87 475.23 C 232.72 474.40 235.57 470.92 233.00 472.11 C 230.40 471.91 232.63 476.44 230.03 475.82 C 227.48 476.41 225.84 474.84 225.35 472.46 C 221.09 471.53 216.46 472.69 212.06 472.07 C 213.15 470.22 213.30 468.12 213.18 466.03 C 213.85 466.61 214.25 468.47 215.30 467.35 C 216.93 465.33 220.33 468.51 220.84 465.37 C 219.98 464.92 215.55 463.18 219.01 463.29 C 221.89 464.04 222.74 461.24 223.50 459.13 C 224.25 463.02 226.82 460.23 228.64 458.90 C 227.61 462.25 232.57 459.50 230.91 463.22 C 230.81 467.09 233.43 461.54 233.69 460.36 C 235.64 461.90 237.74 466.35 240.45 463.50 C 243.05 463.92 246.40 465.11 245.70 468.40 C 242.94 468.37 239.89 471.37 244.65 470.89 C 241.88 473.02 237.35 474.34 236.67 478.21 C 240.18 479.44 240.27 474.30 243.10 473.56 C 244.22 474.01 247.07 477.81 246.81 475.01 C 245.08 470.74 250.09 469.60 252.05 466.79 C 248.16 432.22 258.89 394.89 283.81 369.79 C 286.67 366.32 291.71 363.98 292.62 359.40 C 296.74 361.73 292.47 354.15 296.22 359.21 C 299.85 356.87 304.25 355.66 307.17 352.35 C 308.88 352.08 310.45 351.69 309.68 349.51 C 318.75 350.84 327.12 344.74 336.34 345.49 M 331.38 372.49 C 318.26 374.07 306.44 383.74 302.50 396.38 C 297.94 409.87 303.75 425.62 315.52 433.41 C 324.01 438.84 334.66 438.64 344.30 437.49 C 361.73 432.63 373.86 412.57 367.93 394.97 C 363.91 379.40 346.62 370.60 331.38 372.49 M 272.44 429.02 C 269.21 441.49 268.77 454.53 269.51 467.33 C 272.91 500.79 303.04 529.69 336.99 529.60 C 368.21 534.15 403.82 517.34 414.13 486.27 C 410.00 487.67 405.95 489.66 402.87 492.83 C 395.03 500.37 386.49 507.73 375.98 511.22 C 351.02 520.42 321.56 513.70 302.10 495.89 C 303.83 493.31 306.58 490.95 309.92 491.79 C 316.40 492.83 323.47 489.07 325.63 482.76 C 327.46 476.29 324.42 468.31 317.93 465.76 C 311.60 463.25 302.87 465.36 300.01 472.01 C 298.16 475.71 299.56 480.12 297.81 483.83 C 293.09 481.28 292.18 474.98 288.80 471.04 C 287.09 463.60 284.85 456.29 283.13 448.87 C 281.27 449.66 279.84 451.17 277.99 451.99 C 278.32 449.07 282.48 449.03 283.43 446.23 C 281.49 445.50 274.65 446.19 278.26 443.03 C 280.03 440.89 274.86 442.31 274.86 444.23 C 272.33 444.04 275.32 440.13 276.68 439.19 C 270.39 440.23 275.99 431.14 272.44 429.02 M 281.20 443.22 C 281.42 446.54 284.21 441.80 281.20 443.22 M 223.28 463.25 C 223.42 466.63 226.32 461.69 223.28 463.25 M 227.11 463.12 C 225.80 467.05 231.28 461.83 227.11 463.12 M 234.20 463.00 C 232.51 465.94 237.61 463.21 234.20 463.00 M 390.36 464.44 C 377.86 463.87 372.38 481.77 381.86 489.18 C 388.21 494.50 399.23 492.82 403.33 485.39 C 408.69 476.30 400.91 463.70 390.36 464.44 M 222.16 466.07 C 221.16 470.67 226.81 465.03 222.16 466.07 M 226.08 466.27 C 224.76 470.17 230.30 464.89 226.08 466.27 M 229.54 466.14 C 228.63 470.06 233.61 465.36 229.54 466.14 M 233.95 466.18 C 233.11 470.13 238.01 465.13 233.95 466.18 M 237.20 466.06 C 235.96 470.54 242.04 464.82 237.20 466.06 M 241.22 466.15 C 240.79 471.03 246.52 463.93 241.22 466.15 M 216.18 468.24 C 212.54 471.57 217.38 470.11 219.91 470.36 C 219.21 469.03 217.77 467.79 216.18 468.24 M 221.15 469.17 C 220.14 473.79 225.78 468.16 221.15 469.17 M 225.27 469.17 C 224.24 473.80 229.87 468.14 225.27 469.17 M 228.39 469.18 C 227.40 473.77 233.01 468.13 228.39 469.18 M 232.06 469.27 C 230.49 472.29 235.45 469.41 232.06 469.27 M 236.36 469.25 C 232.66 471.61 239.63 471.34 236.36 469.25 M 239.09 469.16 C 238.05 473.79 243.70 468.17 239.09 469.16 M 251.83 469.17 C 254.65 474.46 244.77 469.66 248.51 473.41 C 250.94 477.14 255.93 470.12 251.83 469.17 M 228.15 472.09 C 224.78 475.58 233.12 472.57 228.15 472.09 Z"/><path fill="#000000" opacity="1.00" d=" M 668.25 345.41 C 691.49 342.80 715.75 349.16 733.85 364.23 C 748.98 375.97 758.69 393.33 765.25 411.03 C 772.50 429.92 773.01 450.67 770.92 470.57 C 772.49 467.49 774.21 468.79 776.57 470.43 C 778.51 468.11 780.33 468.83 782.07 471.02 C 783.44 468.10 777.24 466.37 780.76 464.58 C 782.48 462.74 780.58 466.31 782.08 466.48 C 786.03 467.16 780.90 473.33 784.96 473.02 C 789.05 473.44 783.87 470.00 785.60 468.57 C 787.02 467.22 784.30 465.24 786.49 464.37 C 788.30 463.17 785.98 458.19 788.70 458.70 C 788.74 459.65 788.81 461.55 788.85 462.50 C 791.26 463.37 789.63 458.44 791.48 459.31 C 792.76 461.24 796.16 456.17 794.38 459.36 C 790.53 461.15 794.02 466.47 789.80 467.48 C 789.02 469.62 792.95 467.34 793.79 468.78 C 791.79 470.82 787.22 471.31 787.38 474.81 C 790.68 474.53 792.25 468.57 795.43 472.66 C 799.12 475.23 791.18 472.26 793.29 474.52 C 796.60 477.02 789.38 477.87 790.90 474.18 C 789.23 474.96 789.36 478.37 787.32 475.73 C 784.92 473.06 785.16 476.33 786.12 477.97 C 783.25 479.46 780.81 481.63 777.95 483.11 C 778.95 480.97 782.94 479.65 781.21 476.99 C 780.06 475.28 782.15 473.76 781.99 471.99 C 779.59 471.69 780.14 475.83 777.53 474.77 C 776.12 472.92 775.15 470.39 772.67 469.76 C 771.89 473.83 777.80 474.67 778.72 477.69 C 762.99 485.94 755.51 503.11 742.12 514.15 C 724.09 529.87 699.76 537.69 675.95 536.47 C 658.27 536.40 640.52 530.49 626.99 518.98 C 610.80 505.28 600.65 485.02 598.11 464.08 C 594.60 434.17 597.49 401.60 615.52 376.46 C 627.93 359.46 647.34 348.01 668.25 345.41 M 651.31 372.45 C 636.21 373.57 622.89 385.37 619.19 399.92 C 615.98 413.54 622.52 429.67 635.79 435.24 C 643.06 439.24 651.70 438.22 659.62 437.49 C 677.36 433.53 689.62 413.55 684.63 395.94 C 681.06 381.37 665.99 371.56 651.31 372.45 M 750.20 427.89 C 749.45 435.51 749.87 443.20 748.78 450.80 C 745.17 446.25 747.21 455.17 744.71 453.74 C 744.75 450.81 740.97 449.39 738.99 451.51 C 743.61 451.74 743.92 454.64 739.15 454.07 C 739.50 461.08 735.64 466.94 733.37 473.33 C 731.78 477.95 726.47 482.01 728.66 487.23 C 725.25 485.40 722.80 482.03 723.56 477.99 C 725.15 467.30 710.23 460.13 702.43 467.30 C 695.26 471.90 694.67 483.35 701.36 488.63 C 705.88 494.57 715.91 488.76 719.55 495.88 C 697.71 518.29 659.58 521.33 633.62 504.27 C 625.57 499.14 619.43 491.76 613.19 484.70 C 613.10 486.15 613.00 487.60 612.89 489.06 C 611.01 488.29 610.31 486.21 608.97 484.86 C 608.76 487.42 610.10 489.74 611.11 492.01 C 621.05 512.69 642.78 526.17 665.11 529.23 C 687.24 532.60 711.26 528.27 729.09 514.14 C 753.63 493.84 760.57 456.98 750.20 427.89 M 743.18 438.23 C 743.47 441.56 746.14 436.75 743.18 438.23 M 744.04 441.04 C 744.30 444.32 747.04 439.55 744.04 441.04 M 741.18 442.42 C 741.04 443.95 743.37 445.18 744.72 444.74 C 745.09 443.13 742.50 441.85 741.18 442.42 M 740.33 447.91 C 740.63 449.54 743.21 450.03 744.63 449.69 C 744.50 448.17 741.61 447.12 740.33 447.91 M 788.27 464.41 C 786.72 468.91 793.20 462.77 788.27 464.41 M 628.28 465.37 C 619.54 469.28 616.33 482.37 624.50 488.48 C 633.08 498.06 651.04 488.11 647.46 475.73 C 645.89 467.04 636.30 462.50 628.28 465.37 M 788.21 468.31 C 784.80 471.12 792.06 471.09 788.21 468.31 M 778.15 470.18 C 777.12 474.78 782.77 469.19 778.15 470.18 M 770.09 473.52 C 770.07 474.75 771.46 475.78 772.33 476.57 C 774.73 475.84 771.77 472.46 770.09 473.52 M 783.16 474.16 C 779.12 477.42 787.03 477.40 783.16 474.16 M 769.05 476.49 C 767.45 479.43 772.48 476.61 769.05 476.49 M 774.43 477.16 C 773.93 482.36 779.35 474.65 774.43 477.16 M 770.93 478.63 C 770.03 482.62 774.93 477.77 770.93 478.63 M 767.62 480.95 C 766.75 484.95 771.61 479.99 767.62 480.95 Z"/><path fill="#000000" opacity="1.00" d=" M 319.14 346.31 C 319.66 346.82 319.66 346.82 319.14 346.31 Z"/><path fill="#000000" opacity="1.00" d=" M 711.30 348.10 C 716.03 347.25 712.10 352.41 711.30 348.10 Z"/><path fill="#000000" opacity="1.00" d=" M 301.28 353.02 C 305.15 351.09 302.54 356.55 301.28 353.02 Z"/><path fill="#000000" opacity="1.00" d=" M 297.53 356.31 C 297.95 356.74 297.95 356.74 297.53 356.31 Z"/><path fill="#000000" opacity="1.00" d=" M 187.32 412.90 C 190.03 415.68 183.27 416.59 187.32 412.90 Z"/><path fill="#000000" opacity="1.00" d=" M 847.87 432.43 C 850.26 434.02 851.99 436.45 853.16 439.05 C 850.83 437.42 848.76 435.15 847.87 432.43 Z"/><path fill="#000000" opacity="1.00" d=" M 174.46 434.48 C 175.74 434.35 171.58 438.71 169.60 439.10 C 170.77 437.15 172.58 435.71 174.46 434.48 Z"/><path fill="#000000" opacity="1.00" d=" M 277.26 447.10 C 281.20 446.40 276.79 451.11 277.26 447.10 Z"/><path fill="#000000" opacity="1.00" d=" M 280.53 452.37 C 283.23 451.48 280.80 456.15 279.06 455.03 C 277.02 454.09 279.21 452.40 280.53 452.37 Z"/><path fill="#000000" opacity="1.00" d=" M 742.09 455.16 C 746.36 455.12 744.72 459.41 743.70 462.02 C 741.47 460.67 744.29 457.13 742.09 455.16 Z"/><path fill="#000000" opacity="1.00" d=" M 283.28 456.26 C 286.42 458.51 279.78 458.62 283.28 456.26 Z"/><path fill="#000000" opacity="1.00" d=" M 799.12 457.11 C 802.51 456.02 799.58 458.51 798.81 459.85 C 801.94 459.53 802.83 463.04 805.88 463.23 C 807.53 465.11 799.90 462.64 802.67 465.20 C 804.67 466.22 802.44 471.72 805.28 469.04 C 807.51 466.89 806.95 469.96 805.37 471.06 C 805.90 474.35 810.60 468.44 810.80 471.85 C 806.43 474.73 803.29 470.85 799.89 468.78 C 799.70 471.00 801.42 472.43 802.95 473.69 C 801.29 473.61 799.68 473.87 798.22 474.67 C 797.67 469.93 791.82 466.86 794.09 461.63 C 797.07 462.62 794.16 468.61 798.33 469.23 C 796.61 465.47 796.16 460.44 799.12 457.11 M 798.54 462.00 C 798.87 466.40 803.05 460.40 798.54 462.00 M 799.28 465.18 C 798.30 466.54 800.38 468.69 801.76 467.65 C 803.04 466.26 800.65 463.94 799.28 465.18 Z"/><path fill="#000000" opacity="1.00" d=" M 804.19 458.28 C 807.48 460.62 800.76 460.51 804.19 458.28 Z"/><path fill="#000000" opacity="1.00" d=" M 807.28 459.41 C 810.57 459.59 805.71 462.48 807.28 459.41 Z"/><path fill="#000000" opacity="1.00" d=" M 818.14 459.29 C 821.06 457.67 818.47 462.64 818.14 459.29 Z"/><path fill="#000000" opacity="1.00" d=" M 808.93 463.18 C 812.31 463.45 807.36 466.10 808.93 463.18 Z"/><path fill="#000000" opacity="1.00" d=" M 820.29 463.25 C 823.31 461.69 820.42 466.63 820.29 463.25 Z"/><path fill="#000000" opacity="1.00" d=" M 813.12 465.07 C 814.95 463.89 816.90 467.75 815.36 468.59 C 814.66 467.45 812.78 466.53 813.12 465.07 Z"/><path fill="#000000" opacity="1.00" d=" M 817.57 466.08 C 818.99 465.02 820.97 468.32 819.22 468.88 C 818.12 468.58 817.10 467.19 817.57 466.08 Z"/><path fill="#000000" opacity="1.00" d=" M 247.23 467.22 C 247.73 467.80 247.73 467.80 247.23 467.22 Z"/><path fill="#000000" opacity="1.00" d=" M 810.20 467.50 C 811.39 466.62 813.41 468.29 813.00 469.62 C 811.88 470.03 809.54 468.87 810.20 467.50 Z"/><path fill="#000000" opacity="1.00" d=" M 823.35 470.27 C 824.77 469.49 827.41 469.49 828.21 471.16 C 827.32 472.67 823.90 471.51 823.35 470.27 Z"/><path fill="#000000" opacity="1.00" d=" M 846.30 474.27 C 847.42 473.73 849.01 474.34 849.73 475.33 C 849.52 477.12 845.88 475.76 846.30 474.27 Z"/><path fill="#000000" opacity="1.00" d=" M 155.13 478.23 C 156.58 478.91 156.60 483.27 157.26 485.34 C 160.77 483.92 164.34 482.47 168.14 482.05 C 160.39 487.22 151.31 490.30 143.89 496.10 C 146.98 489.83 150.28 483.30 155.13 478.23 Z"/><path fill="#000000" opacity="1.00" d=" M 170.25 481.29 C 173.26 479.59 170.37 484.60 170.25 481.29 Z"/><path fill="#000000" opacity="1.00" d=" M 293.12 484.23 C 295.99 482.58 293.45 487.62 293.12 484.23 Z"/><path fill="#000000" opacity="1.00" d=" M 488.35 507.44 C 492.19 505.92 488.48 509.15 487.04 509.83 C 479.97 513.98 472.49 522.56 474.21 530.68 C 477.07 526.73 479.59 516.87 486.84 519.36 C 503.43 525.92 522.77 526.02 538.93 518.15 C 545.97 517.60 547.05 526.90 551.30 530.56 C 550.82 520.72 543.61 513.15 535.93 508.09 C 545.53 510.13 553.66 517.37 557.76 526.14 C 561.66 538.99 554.09 553.15 543.03 559.87 C 536.21 564.66 528.20 567.18 520.64 570.42 C 518.87 570.55 515.96 571.89 518.09 573.83 C 514.06 584.82 519.77 597.66 529.83 603.24 C 540.58 610.88 554.58 609.74 567.04 608.98 C 579.08 605.41 590.60 597.99 597.35 587.21 C 597.70 587.20 598.42 587.17 598.77 587.15 C 599.59 597.31 593.75 606.92 586.15 613.22 C 575.62 622.29 561.19 624.27 547.77 623.77 C 546.00 633.88 544.19 644.93 536.34 652.35 C 528.39 660.78 515.92 662.02 505.00 661.00 C 492.67 659.95 483.33 649.43 479.70 638.21 C 477.78 633.58 477.79 628.35 476.20 623.74 C 464.68 624.16 452.59 622.75 442.75 616.27 C 433.12 610.35 426.00 599.42 427.20 587.81 C 431.27 590.27 433.29 595.03 436.93 598.08 C 449.90 610.90 470.41 612.84 487.03 606.85 C 496.52 603.63 505.78 596.37 507.39 585.92 C 507.86 580.95 508.05 575.83 507.26 570.89 C 504.13 568.89 499.69 570.65 496.45 568.58 C 488.87 563.95 480.56 560.18 474.39 553.61 C 467.07 546.27 463.68 534.59 467.66 524.77 C 471.26 516.07 479.67 510.31 488.35 507.44 M 515.90 610.44 C 514.07 618.18 514.06 626.21 512.55 634.01 C 508.56 627.98 510.92 618.82 508.17 611.85 C 502.22 613.31 497.44 617.45 491.81 619.71 C 490.35 620.41 487.92 620.81 488.22 622.97 C 488.41 630.07 490.82 637.29 495.03 643.03 C 503.50 651.12 517.85 650.64 527.18 644.25 C 534.58 639.11 535.36 629.34 535.85 621.13 C 528.73 618.48 522.16 614.70 515.90 610.44 Z"/><path fill="#000000" opacity="1.00" d=" M 890.98 520.29 C 895.50 521.20 890.38 524.86 890.98 520.29 Z"/><path fill="#000000" opacity="1.00" d=" M 896.13 528.44 C 899.90 527.98 895.82 532.61 896.13 528.44 Z"/><path fill="#000000" opacity="1.00" d=" M 862.54 537.30 C 864.73 536.65 863.75 541.63 862.17 541.69 C 861.27 540.43 861.61 538.45 862.54 537.30 Z"/><path fill="#000000" opacity="1.00" d=" M 863.17 543.17 C 866.24 545.16 859.18 545.50 863.17 543.17 Z"/><path fill="#000000" opacity="1.00" d=" M 153.18 544.31 C 156.53 544.58 151.64 547.23 153.18 544.31 Z"/><path fill="#000000" opacity="1.00" d=" M 846.10 579.27 C 849.44 579.56 844.52 582.18 846.10 579.27 Z"/><path fill="#000000" opacity="1.00" d=" M 832.13 594.35 C 836.09 593.72 831.44 598.32 832.13 594.35 Z"/><path fill="#000000" opacity="1.00" d=" M 817.27 619.10 C 820.25 617.65 817.48 622.45 817.27 619.10 Z"/><path fill="#000000" opacity="1.00" d=" M 304.17 693.89 C 307.37 695.70 300.64 696.62 304.17 693.89 Z"/><path fill="#000000" opacity="1.00" d=" M 300.33 696.29 C 305.14 695.87 301.03 700.64 300.33 696.29 Z"/><path fill="#000000" opacity="1.00" d=" M 258.16 701.30 C 261.47 701.54 256.63 704.29 258.16 701.30 Z"/><path fill="#000000" opacity="1.00" d=" M 261.90 702.11 C 264.09 703.03 268.56 702.29 267.89 705.79 C 265.78 704.76 263.65 703.70 261.90 702.11 Z"/><path fill="#000000" opacity="1.00" d=" M 282.35 702.21 C 283.58 702.97 281.76 706.41 280.23 705.87 C 279.61 704.41 281.08 702.77 282.35 702.21 Z"/><path fill="#000000" opacity="1.00" d=" M 199.83 710.13 C 201.66 712.41 205.32 713.03 205.98 716.16 C 203.45 714.77 200.93 712.89 199.83 710.13 Z"/><path fill="#000000" opacity="1.00" d=" M 238.24 711.05 C 241.32 713.02 234.40 713.54 238.24 711.05 Z"/><path fill="#000000" opacity="1.00" d=" M 212.31 714.17 C 215.22 712.60 212.44 717.54 212.31 714.17 Z"/><path fill="#000000" opacity="1.00" d=" M 208.35 716.34 C 209.46 715.80 211.09 716.23 211.79 717.27 C 211.67 719.11 207.99 717.81 208.35 716.34 Z"/><path fill="#000000" opacity="1.00" d=" M 213.94 716.45 C 217.29 716.58 212.33 719.43 213.94 716.45 Z"/><path fill="#000000" opacity="1.00" d=" M 471.32 788.45 C 481.51 787.47 491.81 788.22 502.02 788.59 C 509.02 788.43 514.71 794.60 515.60 801.25 C 516.56 807.99 516.80 814.85 516.51 821.65 C 515.56 827.84 511.72 834.63 505.09 835.91 C 496.52 837.78 487.65 837.03 478.96 837.76 C 478.76 840.08 478.74 842.43 479.04 844.75 C 491.59 845.04 504.17 844.50 516.71 845.01 C 516.74 850.73 517.05 856.51 516.35 862.21 C 516.07 865.21 512.41 864.19 510.35 864.51 C 492.93 864.54 475.45 865.12 458.08 863.67 C 458.41 850.98 455.41 836.95 461.20 825.17 C 470.18 816.86 484.00 820.78 495.13 818.89 C 495.46 814.97 495.65 811.03 495.76 807.11 C 490.56 806.94 485.28 806.67 480.11 807.28 C 477.39 807.86 480.02 812.83 476.98 812.65 C 470.79 812.70 464.59 812.78 458.41 812.60 C 458.41 807.39 457.96 801.96 459.73 796.97 C 461.42 792.05 466.52 789.44 471.32 788.45 Z"/><path fill="#000000" opacity="1.00" d=" M 528.36 788.16 C 536.76 787.84 545.22 787.82 553.62 788.17 C 553.60 813.31 553.69 838.47 553.57 863.62 C 547.11 863.81 540.60 864.38 534.14 864.14 C 533.24 845.20 533.76 826.22 533.62 807.26 C 531.95 806.60 528.91 807.73 528.61 805.30 C 528.09 799.61 528.42 793.86 528.36 788.16 Z"/><path fill="#000000" opacity="1.00" d=" M 732.38 803.29 C 735.40 801.84 732.45 806.64 732.38 803.29 Z"/><path fill="#000000" opacity="1.00" d=" M 730.21 837.32 C 733.55 837.26 728.66 840.36 730.21 837.32 Z"/><path fill="#000000" opacity="1.00" d=" M 391.26 841.16 C 395.35 840.62 390.85 845.02 391.26 841.16 Z"/><path fill="#000000" opacity="1.00" d=" M 757.11 843.27 C 761.09 842.78 756.43 847.23 757.11 843.27 Z"/><path fill="#000000" opacity="1.00" d=" M 642.28 853.33 C 647.35 853.45 638.04 856.70 642.28 853.33 Z"/><path fill="#000000" opacity="1.00" d=" M 768.09 859.86 C 770.21 860.17 776.46 863.84 770.99 863.29 C 771.98 863.79 775.98 866.20 772.93 866.14 C 768.74 866.50 770.54 861.73 768.09 859.86 Z"/><path fill="#000000" opacity="1.00" d=" M 833.40 864.28 C 834.75 864.25 837.30 865.27 837.10 866.91 C 835.59 867.54 833.31 865.82 833.40 864.28 Z"/><path fill="#000000" opacity="1.00" d=" M 408.93 865.17 C 412.28 865.31 407.47 868.14 408.93 865.17 Z"/><path fill="#000000" opacity="1.00" d=" M 407.13 866.95 C 411.35 868.17 406.55 871.90 407.13 866.95 Z"/><path fill="#000000" opacity="1.00" d=" M 828.26 868.28 C 828.80 868.81 828.80 868.81 828.26 868.28 Z"/><path fill="#000000" opacity="1.00" d=" M 797.30 869.95 C 802.10 869.89 793.35 873.92 797.30 869.95 Z"/><path fill="#000000" opacity="1.00" d=" M 464.19 871.27 C 464.76 871.76 464.76 871.76 464.19 871.27 Z"/><path fill="#000000" opacity="1.00" d=" M 407.07 872.19 C 410.41 872.45 405.48 875.09 407.07 872.19 Z"/><path fill="#000000" opacity="1.00" d=" M 404.97 873.22 C 408.30 873.45 403.46 876.18 404.97 873.22 Z"/><path fill="#000000" opacity="1.00" d=" M 394.06 878.30 C 397.38 878.56 392.52 881.26 394.06 878.30 Z"/><path fill="#000000" opacity="1.00" d=" M 165.20 883.44 C 169.56 882.46 162.83 888.41 165.20 883.44 Z"/><path fill="#000000" opacity="1.00" d=" M 403.37 883.20 C 407.29 883.15 402.70 887.18 403.37 883.20 Z"/><path fill="#000000" opacity="1.00" d=" M 167.38 885.25 C 168.66 884.69 170.34 886.36 169.83 887.65 C 168.63 888.30 166.58 886.47 167.38 885.25 Z"/><path fill="#000000" opacity="1.00" d=" M 209.93 885.17 C 213.27 885.32 208.48 888.15 209.93 885.17 Z"/><path fill="#000000" opacity="1.00" d=" M 163.42 887.08 C 168.04 886.15 164.03 891.45 163.42 887.08 Z"/><path fill="#000000" opacity="1.00" d=" M 424.30 887.21 C 427.63 887.28 422.64 890.21 424.30 887.21 Z"/><path fill="#000000" opacity="1.00" d=" M 182.25 890.04 C 185.24 892.03 178.36 892.48 182.25 890.04 Z"/><path fill="#000000" opacity="1.00" d=" M 171.56 891.34 C 175.04 890.75 173.62 896.55 170.89 894.95 C 166.98 895.40 171.80 893.31 171.56 891.34 Z"/><path fill="#000000" opacity="1.00" d=" M 185.13 892.95 C 186.77 892.46 187.43 896.12 186.24 896.71 C 185.33 895.80 184.42 894.18 185.13 892.95 Z"/><path fill="#000000" opacity="1.00" d=" M 381.14 893.16 C 385.05 892.78 380.53 897.17 381.14 893.16 Z"/><path fill="#000000" opacity="1.00" d=" M 384.96 894.23 C 388.29 894.41 383.49 897.21 384.96 894.23 Z"/><path fill="#000000" opacity="1.00" d=" M 176.37 895.06 C 180.19 893.07 177.68 898.56 176.37 895.06 Z"/><path fill="#000000" opacity="1.00" d=" M 179.57 898.17 C 182.65 896.63 179.82 901.39 179.57 898.17 Z"/><path fill="#000000" opacity="1.00" d=" M 352.27 909.11 C 352.74 909.57 352.74 909.57 352.27 909.11 Z"/><path fill="#000000" opacity="1.00" d=" M 208.16 912.45 C 212.36 911.04 206.89 916.29 208.16 912.45 Z"/><path fill="#000000" opacity="1.00" d=" M 213.97 913.92 C 214.76 915.87 218.70 917.49 217.15 919.77 C 215.12 918.58 213.70 916.31 213.97 913.92 Z"/><path fill="#000000" opacity="1.00" d=" M 368.14 915.33 C 371.69 916.50 366.15 919.14 368.14 915.33 Z"/><path fill="#000000" opacity="1.00" d=" M 205.29 917.41 C 209.12 915.98 204.13 921.64 205.29 917.41 Z"/><path fill="#000000" opacity="1.00" d=" M 357.31 917.33 C 361.30 916.01 356.02 921.33 357.31 917.33 Z"/><path fill="#000000" opacity="1.00" d=" M 354.21 918.05 C 358.16 917.04 353.04 922.10 354.21 918.05 Z"/><path fill="#000000" opacity="1.00" d=" M 213.22 919.27 C 216.57 919.61 211.64 922.15 213.22 919.27 Z"/><path fill="#000000" opacity="1.00" d=" M 219.18 919.15 C 222.16 917.53 219.33 922.56 219.18 919.15 Z"/><path fill="#000000" opacity="1.00" d=" M 325.28 920.11 C 328.30 918.53 325.20 923.50 325.28 920.11 Z"/><path fill="#000000" opacity="1.00" d=" M 223.94 921.26 C 228.14 920.83 223.52 925.03 223.94 921.26 Z"/><path fill="#000000" opacity="1.00" d=" M 230.19 921.10 C 230.69 921.60 230.69 921.60 230.19 921.10 Z"/><path fill="#000000" opacity="1.00" d=" M 244.32 922.19 C 247.32 924.81 240.30 925.62 244.32 922.19 Z"/><path fill="#000000" opacity="1.00" d=" M 336.96 923.22 C 341.34 922.72 337.17 926.85 336.96 923.22 Z"/><path fill="#000000" opacity="1.00" d=" M 350.04 923.07 C 355.38 922.74 349.84 923.99 352.29 925.93 C 354.49 928.69 348.66 925.16 350.04 923.07 Z"/><path fill="#000000" opacity="1.00" d=" M 356.47 924.28 C 360.75 923.48 356.78 926.36 355.59 927.68 C 354.06 927.25 355.32 924.63 356.47 924.28 Z"/><path fill="#000000" opacity="1.00" d=" M 214.92 926.24 C 219.16 925.21 214.16 929.99 214.92 926.24 Z"/><path fill="#000000" opacity="1.00" d=" M 343.53 926.57 C 344.76 925.54 341.18 934.08 340.81 929.07 C 338.87 926.44 342.59 928.18 343.53 926.57 Z"/><path fill="#000000" opacity="1.00" d=" M 223.46 927.08 C 227.39 926.53 222.77 931.09 223.46 927.08 Z"/><path fill="#000000" opacity="1.00" d=" M 325.20 927.24 C 330.01 926.61 325.81 931.56 325.20 927.24 Z"/><path fill="#000000" opacity="1.00" d=" M 208.18 928.26 C 212.02 928.05 207.89 932.44 208.18 928.26 Z"/><path fill="#000000" opacity="1.00" d=" M 345.01 928.05 C 348.33 928.14 350.71 930.92 353.03 932.98 C 349.92 932.24 347.65 929.72 345.01 928.05 Z"/><path fill="#000000" opacity="1.00" d=" M 212.53 931.52 C 213.57 930.24 216.73 933.41 213.91 932.61 C 211.80 931.93 211.07 933.42 211.92 935.16 C 210.20 934.27 208.07 933.75 207.11 931.91 C 208.95 932.71 210.79 932.32 212.53 931.52 Z"/><path fill="#000000" opacity="1.00" d=" M 219.40 931.27 C 223.90 928.55 222.33 933.22 221.77 936.06 C 220.73 934.60 220.27 932.81 219.40 931.27 Z"/><path fill="#000000" opacity="1.00" d=" M 231.97 931.21 C 235.29 931.42 230.49 934.20 231.97 931.21 Z"/><path fill="#000000" opacity="1.00" d=" M 238.25 930.88 C 242.02 930.44 237.97 935.07 238.25 930.88 Z"/><path fill="#000000" opacity="1.00" d=" M 328.12 932.41 C 332.79 931.57 328.99 936.76 328.12 932.41 Z"/><path fill="#000000" opacity="1.00" d=" M 337.21 932.13 C 341.98 931.62 338.14 936.53 337.21 932.13 Z"/><path fill="#000000" opacity="1.00" d=" M 318.26 933.22 C 319.78 933.01 322.53 934.17 322.77 935.78 C 321.20 936.23 318.21 935.03 318.26 933.22 Z"/><path fill="#000000" opacity="1.00" d=" M 349.17 933.47 C 350.43 933.02 352.97 934.38 352.14 935.91 C 350.77 936.70 348.65 934.89 349.17 933.47 Z"/><path fill="#000000" opacity="1.00" d=" M 355.36 932.85 C 356.87 933.06 355.49 936.41 354.21 936.04 C 353.91 934.75 354.30 933.69 355.36 932.85 Z"/><path fill="#000000" opacity="1.00" d=" M 358.27 932.86 C 361.66 936.18 354.17 936.74 358.27 932.86 Z"/><path fill="#000000" opacity="1.00" d=" M 236.36 934.15 C 239.31 932.56 236.66 937.46 236.36 934.15 Z"/><path fill="#000000" opacity="1.00" d=" M 210.21 936.22 C 213.34 938.47 206.64 938.51 210.21 936.22 Z"/><path fill="#000000" opacity="1.00" d=" M 342.21 936.01 C 345.29 938.01 338.58 938.57 342.21 936.01 Z"/><path fill="#000000" opacity="1.00" d=" M 347.97 936.19 C 351.38 937.86 354.85 939.56 357.82 941.98 C 353.64 941.29 357.57 945.63 358.86 943.94 C 360.88 941.27 357.56 939.62 355.99 937.97 C 359.32 938.08 361.92 943.18 365.09 940.12 C 366.51 943.40 360.61 942.91 359.02 945.15 C 356.30 947.37 354.85 943.20 353.61 941.45 C 352.47 938.90 348.80 938.79 347.97 936.19 Z"/><path fill="#000000" opacity="1.00" d=" M 313.34 936.83 C 317.83 936.35 313.89 941.50 313.34 936.83 Z"/><path fill="#000000" opacity="1.00" d=" M 319.12 937.37 C 320.27 937.31 323.38 937.70 322.41 939.51 C 321.19 941.37 318.70 938.89 319.12 937.37 Z"/><path fill="#000000" opacity="1.00" d=" M 329.35 936.67 C 332.99 937.77 335.92 940.65 339.77 941.14 C 337.67 937.64 342.15 940.13 343.83 940.70 C 343.15 942.05 341.59 941.87 340.33 942.21 C 341.06 943.86 341.86 945.55 341.17 947.40 C 338.89 946.94 337.35 944.69 335.04 944.40 C 334.38 946.16 335.08 950.88 333.18 950.85 C 334.50 948.17 334.06 945.33 331.04 944.19 C 336.04 943.10 327.22 939.15 331.04 944.19 C 325.64 942.43 333.76 948.09 328.82 946.74 C 328.34 946.41 328.34 946.41 328.82 946.74 C 332.66 947.32 329.88 954.29 333.18 950.85 C 333.90 954.68 329.66 954.23 327.82 952.06 C 328.48 954.69 331.43 955.26 333.10 957.05 C 329.92 956.63 327.52 954.29 324.62 953.16 C 323.21 954.79 325.66 955.48 326.58 956.41 C 325.66 957.35 323.25 961.57 323.55 958.23 C 324.86 953.49 316.29 949.92 316.81 956.34 C 318.55 955.51 322.89 953.83 322.77 956.94 C 320.47 956.49 315.86 957.83 318.06 960.87 C 316.05 961.88 314.10 962.44 315.12 959.19 C 313.35 960.44 312.87 962.85 311.03 964.05 C 311.54 960.92 313.56 957.94 316.93 957.55 C 316.01 955.70 313.91 956.13 312.22 956.20 C 311.80 954.32 311.35 951.63 308.82 951.73 C 308.85 954.44 310.53 956.91 310.52 959.71 C 307.37 958.89 306.82 957.20 309.06 954.98 C 306.99 954.14 303.09 957.93 302.68 954.11 C 303.35 950.66 308.40 953.28 308.62 949.73 C 310.56 944.46 315.82 951.76 315.38 955.01 C 316.86 949.99 320.18 951.45 323.89 953.10 C 322.07 951.47 320.85 949.32 323.53 947.85 C 322.25 952.83 327.41 951.76 330.30 950.62 C 330.58 948.25 326.69 949.04 326.69 946.95 C 327.16 944.39 328.48 942.02 329.97 939.93 C 333.09 940.89 335.36 943.60 338.60 944.33 C 336.87 940.41 331.77 939.89 329.35 936.67 M 310.22 949.38 C 309.82 951.05 312.07 953.18 313.72 952.78 C 313.88 951.23 311.73 949.24 310.22 949.38 M 305.11 952.86 C 301.55 955.40 308.22 954.98 305.11 952.86 Z"/><path fill="#000000" opacity="1.00" d=" M 231.96 937.51 C 236.13 940.59 233.77 948.50 235.94 953.36 C 238.61 952.30 239.60 949.29 240.81 946.94 C 237.54 949.26 236.28 950.07 237.00 945.20 C 240.97 944.62 243.74 947.32 241.01 950.96 C 244.10 950.79 247.75 948.53 250.30 950.91 C 249.16 954.48 246.61 954.67 247.82 950.35 C 244.69 952.32 244.43 957.03 240.83 958.27 C 241.24 956.55 243.41 955.76 243.14 953.81 C 240.54 951.53 239.21 960.13 237.22 955.77 C 235.92 953.48 228.53 951.31 234.80 951.34 C 233.53 949.17 232.03 946.98 229.72 945.85 C 232.72 949.32 229.27 949.17 228.48 952.10 C 226.87 949.31 229.50 941.53 232.87 945.97 C 233.42 943.09 232.68 940.26 231.96 937.51 M 239.44 952.22 C 238.46 952.55 237.28 954.66 238.82 955.03 C 240.27 955.10 241.68 951.41 239.44 952.22 Z"/><path fill="#000000" opacity="1.00" d=" M 240.25 938.40 C 243.52 938.49 238.60 941.46 240.25 938.40 Z"/><path fill="#000000" opacity="1.00" d=" M 310.45 937.76 C 314.41 939.03 309.79 943.10 310.45 937.76 Z"/><path fill="#000000" opacity="1.00" d=" M 230.12 940.36 C 233.46 940.28 228.66 943.40 230.12 940.36 Z"/><path fill="#000000" opacity="1.00" d=" M 236.07 940.54 C 241.36 939.36 236.26 945.38 236.07 940.54 Z"/><path fill="#000000" opacity="1.00" d=" M 323.38 940.52 C 327.62 939.41 320.59 945.59 323.38 940.52 Z"/><path fill="#000000" opacity="1.00" d=" M 245.61 941.32 C 247.63 940.01 248.71 942.97 247.42 943.95 C 246.79 940.12 244.38 943.26 243.53 945.05 C 242.11 944.63 241.36 943.30 240.67 942.12 C 242.47 943.02 244.26 942.90 245.61 941.32 Z"/><path fill="#000000" opacity="1.00" d=" M 313.14 941.28 C 316.86 939.66 316.53 944.65 314.30 946.13 C 314.59 944.73 314.97 943.34 315.30 941.98 C 314.28 942.09 312.22 943.43 313.14 941.28 Z"/><path fill="#000000" opacity="1.00" d=" M 351.02 941.04 C 351.05 941.63 356.16 946.59 352.80 948.56 C 350.05 947.40 350.66 943.44 351.02 941.04 Z"/><path fill="#000000" opacity="1.00" d=" M 250.16 941.83 C 251.91 940.62 249.95 945.87 251.64 944.45 C 253.22 943.06 255.74 942.72 256.85 944.92 C 254.24 945.86 254.35 947.97 257.08 948.51 C 256.18 952.69 261.07 955.85 264.26 952.68 C 264.38 955.94 259.48 955.01 260.47 958.31 C 258.40 956.38 258.05 952.77 255.02 951.92 C 253.17 951.84 252.17 953.85 250.41 954.17 C 252.73 951.82 252.32 949.90 249.61 948.18 C 250.08 946.08 250.31 943.96 250.16 941.83 M 253.12 944.22 C 251.57 947.24 256.52 944.31 253.12 944.22 M 252.19 948.06 C 252.62 949.21 254.56 950.65 255.90 950.48 C 256.80 948.68 253.55 947.34 252.19 948.06 Z"/><path fill="#000000" opacity="1.00" d=" M 344.67 942.05 C 346.54 942.67 348.95 943.56 349.10 945.89 C 347.38 944.96 344.90 944.35 344.67 942.05 Z"/><path fill="#000000" opacity="1.00" d=" M 261.29 945.07 C 268.47 944.92 256.61 950.31 261.29 945.07 Z"/><path fill="#000000" opacity="1.00" d=" M 343.45 945.41 C 344.32 944.39 347.23 946.92 344.92 946.55 C 342.18 946.17 344.68 949.10 344.80 950.29 C 342.83 949.48 341.35 947.01 343.45 945.41 Z"/><path fill="#000000" opacity="1.00" d=" M 221.99 945.98 C 223.74 947.07 225.50 947.54 227.25 946.14 C 226.44 950.60 222.51 950.37 221.99 945.98 Z"/><path fill="#000000" opacity="1.00" d=" M 302.23 945.97 C 303.90 945.63 305.36 947.57 306.62 948.51 C 305.72 950.10 301.84 947.74 302.23 945.97 Z"/><path fill="#000000" opacity="1.00" d=" M 262.17 948.26 C 266.10 947.02 261.11 952.34 262.17 948.26 Z"/><path fill="#000000" opacity="1.00" d=" M 758.20 948.11 C 761.44 950.20 754.59 950.44 758.20 948.11 Z"/><path fill="#000000" opacity="1.00" d=" M 336.30 949.01 C 337.24 947.32 336.97 951.69 337.68 952.40 C 339.38 953.50 340.70 951.38 342.18 950.82 C 341.71 953.74 338.70 954.16 336.36 954.89 C 336.29 952.11 334.99 953.92 333.89 954.93 C 334.14 952.76 335.15 950.81 336.30 949.01 Z"/><path fill="#000000" opacity="1.00" d=" M 259.20 950.11 C 263.14 949.79 258.84 954.14 259.20 950.11 Z"/><path fill="#000000" opacity="1.00" d=" M 265.29 950.34 C 267.19 949.58 269.38 953.06 266.95 953.87 C 265.56 953.55 265.26 951.52 265.29 950.34 Z"/><path fill="#000000" opacity="1.00" d=" M 270.49 950.61 C 276.02 952.66 272.47 959.30 276.70 962.28 C 278.53 964.31 279.02 959.99 279.39 958.89 C 283.93 961.29 274.25 966.78 282.09 965.26 C 279.96 968.85 276.76 964.67 274.48 963.45 C 273.11 960.30 273.25 956.48 270.45 954.09 C 273.46 953.87 270.77 951.83 270.49 950.61 Z"/><path fill="#000000" opacity="1.00" d=" M 297.24 951.12 C 299.12 950.78 301.14 951.88 301.39 953.88 C 299.55 952.61 298.12 953.26 297.00 954.97 C 297.03 953.67 297.11 952.38 297.24 951.12 Z"/><path fill="#000000" opacity="1.00" d=" M 756.21 951.36 C 759.54 951.37 754.66 954.41 756.21 951.36 Z"/><path fill="#000000" opacity="1.00" d=" M 752.28 953.28 C 757.10 952.84 752.74 957.61 752.28 953.28 Z"/><path fill="#000000" opacity="1.00" d=" M 276.24 953.85 C 277.75 955.10 279.12 956.96 277.88 958.94 C 274.93 959.38 276.58 955.55 276.24 953.85 Z"/><path fill="#000000" opacity="1.00" d=" M 299.15 955.64 C 300.53 955.07 303.07 956.33 302.70 958.01 C 301.47 958.50 298.93 957.02 299.15 955.64 Z"/><path fill="#000000" opacity="1.00" d=" M 245.48 956.01 C 248.01 954.97 246.22 959.15 244.85 959.37 C 243.34 958.78 244.46 956.54 245.48 956.01 Z"/><path fill="#000000" opacity="1.00" d=" M 249.54 956.00 C 252.40 955.18 248.48 961.29 247.23 959.37 C 247.39 957.96 248.45 956.80 249.54 956.00 Z"/><path fill="#000000" opacity="1.00" d=" M 252.46 956.31 C 255.20 958.98 248.36 959.98 252.46 956.31 Z"/><path fill="#000000" opacity="1.00" d=" M 256.20 956.01 C 258.23 955.68 254.69 961.02 252.85 962.17 C 252.85 959.78 254.67 957.70 256.20 956.01 Z"/><path fill="#000000" opacity="1.00" d=" M 264.46 956.42 C 266.25 955.50 268.20 958.86 269.37 960.27 C 267.41 960.41 265.04 960.66 265.58 957.92 C 263.35 957.20 263.51 961.80 261.09 961.99 C 261.09 959.65 263.13 958.10 264.46 956.42 Z"/><path fill="#000000" opacity="1.00" d=" M 282.54 958.39 C 282.97 958.77 282.97 958.77 282.54 958.39 Z"/><path fill="#000000" opacity="1.00" d=" M 257.42 959.05 C 261.77 959.57 256.58 963.81 257.42 959.05 Z"/><path fill="#000000" opacity="1.00" d=" M 269.34 961.25 C 271.00 962.13 268.51 965.10 267.12 963.91 C 266.32 962.57 268.11 961.23 269.34 961.25 Z"/><path fill="#000000" opacity="1.00" d=" M 740.89 960.92 C 743.60 962.33 747.88 962.60 748.37 966.33 C 745.04 966.53 742.51 963.49 740.89 960.92 Z"/><path fill="#000000" opacity="1.00" d=" M 271.19 962.27 C 272.89 962.55 271.44 966.10 269.94 965.52 C 269.22 964.40 270.16 962.82 271.19 962.27 Z"/><path fill="#000000" opacity="1.00" d=" M 263.18 963.07 C 267.83 962.04 262.18 967.65 263.18 963.07 Z"/><path fill="#000000" opacity="1.00" d=" M 662.45 965.58 C 663.55 964.07 662.55 969.19 661.05 968.85 C 659.68 970.26 658.18 964.79 659.45 966.55 C 660.57 968.77 661.47 966.16 662.45 965.58 Z"/><path fill="#000000" opacity="1.00" d=" M 725.44 965.29 C 725.98 965.77 725.98 965.77 725.44 965.29 Z"/><path fill="#000000" opacity="1.00" d=" M 656.39 966.47 C 657.81 966.84 657.99 969.67 657.79 971.03 C 656.25 970.62 654.43 967.70 656.39 966.47 Z"/><path fill="#000000" opacity="1.00" d=" M 726.26 965.51 C 729.07 966.70 731.80 968.25 733.90 970.53 C 729.46 973.40 726.05 969.79 722.05 968.15 C 722.67 965.52 727.09 969.72 729.38 969.39 C 728.69 967.81 727.09 966.95 726.26 965.51 Z"/><path fill="#000000" opacity="1.00" d=" M 690.27 969.13 C 695.58 969.30 685.65 972.43 690.27 969.13 Z"/><path fill="#000000" opacity="1.00" d=" M 858.09 974.30 C 861.39 974.41 856.57 977.29 858.09 974.30 Z"/><path fill="#000000" opacity="1.00" d=" M 168.26 975.14 C 172.37 974.83 167.99 979.04 168.26 975.14 Z"/></g></svg>