<svg viewBox="0 0 100 100" version="1.1" xmlns="http://www.w3.org/2000/svg"><g transform="translate(6.691728551032774, 1) scale(0.10065838802781459) translate(-82.13, -24.33)"><path fill="#000000" opacity="1.00" d=" M 504.22 27.39 C 517.43 24.33 532.43 30.06 539.17 42.05 C 542.23 46.86 542.68 52.61 543.86 58.02 C 604.26 63.61 664.19 78.99 718.43 106.47 C 785.97 139.77 845.44 189.18 890.50 249.52 C 908.44 273.05 924.38 298.41 935.16 326.05 C 940.08 339.03 942.63 354.16 936.23 367.11 C 929.51 382.30 915.33 392.22 901.10 399.75 C 870.40 415.77 836.60 424.38 803.39 433.50 C 798.03 449.80 792.61 466.79 780.70 479.68 C 770.69 491.43 756.91 498.95 743.07 505.27 C 743.22 513.88 745.20 523.01 752.39 528.59 C 785.81 560.46 795.92 613.14 778.48 655.58 C 770.60 675.07 756.29 690.96 740.86 704.85 C 737.00 707.17 740.94 711.01 741.93 713.98 C 753.37 736.45 758.10 761.89 757.21 786.99 C 756.41 793.28 761.26 798.11 763.43 803.61 C 777.12 829.50 780.11 859.59 777.52 888.38 C 775.15 903.50 769.84 918.09 762.62 931.56 C 757.91 940.56 750.24 947.38 743.62 954.89 C 763.82 957.46 784.44 958.40 804.07 964.23 C 807.37 965.56 813.31 967.25 811.85 971.97 C 807.76 976.94 800.72 977.58 794.88 979.16 C 760.16 985.72 724.81 987.93 689.71 991.57 C 648.22 994.66 606.61 995.60 565.03 996.65 C 524.70 997.51 484.33 997.92 444.02 996.15 C 380.12 994.20 316.13 991.42 252.66 983.50 C 239.47 981.07 225.00 980.92 213.33 973.71 C 208.18 969.74 215.30 965.25 219.14 964.36 C 238.72 958.66 259.27 957.20 279.47 955.06 C 265.08 938.69 252.78 919.73 248.31 898.08 C 241.09 863.81 246.28 826.49 264.30 796.27 C 268.85 790.14 266.32 782.04 267.37 774.98 C 267.49 751.50 274.46 728.68 285.18 707.96 C 278.23 700.27 269.82 693.80 263.39 685.55 C 232.35 649.38 228.89 593.94 252.18 552.93 C 258.39 542.88 265.51 533.23 274.34 525.32 C 280.24 520.58 280.13 512.02 279.92 505.16 C 263.50 498.86 248.75 488.05 238.22 473.90 C 229.55 461.97 225.05 447.67 221.24 433.67 C 189.01 424.73 156.22 416.60 125.98 401.91 C 112.24 394.99 98.35 386.42 90.22 372.93 C 84.42 362.19 82.13 349.24 85.50 337.36 C 90.61 317.55 100.67 299.46 111.25 282.11 C 143.17 230.98 185.51 186.68 233.43 150.30 C 304.41 97.60 390.42 66.02 478.37 58.44 C 480.83 56.87 480.38 53.35 481.26 50.89 C 483.55 39.49 492.61 29.53 504.22 27.39 M 508.29 51.39 C 506.09 52.32 504.18 53.89 502.77 55.81 C 508.52 56.25 514.27 57.24 520.05 57.13 C 520.33 51.62 512.52 49.56 508.29 51.39 M 482.20 82.21 C 468.04 96.90 459.11 115.65 451.43 134.32 C 435.93 172.81 428.05 214.13 425.62 255.40 C 434.44 255.18 443.17 253.27 452.01 252.97 C 500.63 250.88 549.44 250.93 597.96 255.00 C 597.47 233.14 594.41 211.28 589.79 189.90 C 580.83 152.98 568.63 115.55 544.33 85.66 C 542.25 82.57 538.30 82.76 535.02 82.51 C 517.42 81.81 499.79 82.02 482.20 82.21 M 404.23 97.38 C 342.34 113.45 284.35 143.50 234.46 183.36 C 207.34 205.13 183.52 230.70 161.43 257.47 C 143.42 279.31 128.13 303.41 116.25 329.11 C 114.48 333.45 112.19 337.69 111.59 342.39 C 126.91 331.18 142.97 320.82 160.58 313.48 C 198.18 296.41 238.12 285.47 277.88 274.81 C 288.74 232.56 306.50 191.32 334.63 157.58 C 354.87 134.35 378.28 113.50 405.12 98.19 C 406.37 97.08 406.07 96.81 404.23 97.38 M 617.89 97.00 C 641.33 111.73 664.49 128.13 682.73 149.29 C 713.21 184.53 734.47 227.43 745.53 272.61 C 746.04 275.18 749.01 275.45 751.07 276.10 C 790.32 284.95 828.75 297.70 865.26 314.64 C 882.08 322.00 897.40 332.17 912.81 341.99 C 895.71 297.43 866.05 258.91 833.55 224.47 C 775.49 162.98 699.76 118.11 617.89 97.00 M 481.39 277.54 C 469.05 279.61 456.09 277.90 444.06 281.18 C 438.19 296.42 435.61 312.98 432.74 329.07 C 431.37 333.09 436.13 331.06 438.08 330.62 C 452.96 326.36 468.16 323.32 483.54 321.69 C 483.50 306.94 483.59 292.18 483.49 277.42 C 482.97 277.45 481.91 277.51 481.39 277.54 M 541.06 278.27 C 540.50 292.73 540.82 307.30 540.90 321.79 C 555.84 323.44 570.61 326.33 585.10 330.30 C 586.98 330.52 591.06 332.16 590.92 329.03 C 589.21 315.58 586.24 302.30 583.14 289.11 C 582.09 285.77 581.38 280.69 577.09 280.26 C 565.11 279.12 553.07 278.75 541.06 278.27 M 507.12 279.17 C 505.61 280.27 506.09 282.45 505.79 284.06 C 505.27 295.90 505.20 307.77 505.30 319.61 C 509.81 320.28 514.37 320.71 518.92 320.90 C 519.40 306.84 519.51 292.74 518.94 278.67 C 515.01 278.57 510.94 278.13 507.12 279.17 M 337.22 289.38 C 304.75 295.57 272.61 303.50 240.84 312.61 C 234.50 314.07 228.86 317.87 225.57 323.54 C 212.93 342.66 202.24 363.03 192.76 383.89 C 191.16 387.89 188.98 391.80 188.52 396.13 C 198.09 399.73 208.19 401.90 218.14 404.28 C 220.42 405.11 221.13 402.24 221.50 400.63 C 226.66 363.56 253.04 330.03 288.08 316.71 C 302.38 310.87 318.03 313.21 333.00 311.76 C 336.23 304.89 339.62 297.98 342.31 290.85 C 343.57 287.49 338.97 289.45 337.22 289.38 M 680.29 289.21 C 683.19 297.33 687.33 304.97 691.33 312.59 C 708.06 311.15 725.41 311.94 740.97 318.89 C 772.94 332.16 795.50 363.26 801.67 396.92 C 802.64 399.56 802.10 403.96 804.89 405.31 C 815.28 402.70 825.72 400.12 835.97 396.96 C 836.01 394.88 835.03 392.97 834.36 391.07 C 823.62 364.30 809.96 338.54 792.46 315.57 C 758.41 304.15 723.28 296.25 687.95 289.96 C 685.42 289.56 682.86 288.82 680.29 289.21 M 312.33 338.47 C 281.95 340.16 256.30 365.31 248.94 394.07 C 246.61 405.87 246.04 418.05 247.05 430.03 C 250.54 451.39 265.92 470.36 286.07 478.21 C 289.39 480.03 290.85 475.84 291.54 473.39 C 298.43 449.94 311.53 428.77 327.28 410.27 C 329.04 407.98 332.09 404.85 329.80 401.91 C 322.49 390.78 309.90 381.74 296.00 383.30 C 293.81 382.65 287.58 384.48 288.34 381.38 C 299.42 371.46 316.30 367.76 330.14 373.76 C 342.00 380.14 350.55 392.23 353.60 405.26 C 355.69 411.44 348.51 414.31 345.59 418.55 C 319.05 450.32 303.82 490.92 300.92 532.08 C 295.75 538.18 289.79 543.61 284.83 549.92 C 269.85 567.58 261.96 590.87 263.33 614.02 C 263.21 639.94 276.67 664.35 295.33 681.68 C 306.77 693.00 321.95 699.00 336.06 706.15 C 337.15 706.92 338.97 707.38 339.07 708.96 C 331.94 711.27 324.27 709.38 316.93 709.96 C 326.80 718.87 340.35 722.41 351.31 729.70 C 341.46 730.01 331.37 729.72 322.05 726.17 C 316.64 724.43 311.81 720.92 306.11 720.11 C 298.01 736.83 293.58 755.47 292.83 774.05 C 291.77 783.70 294.08 794.69 287.77 802.93 C 277.46 822.56 270.80 844.63 271.87 866.97 C 272.26 884.11 274.27 902.46 283.89 917.03 C 279.66 901.30 277.01 883.91 281.58 867.75 C 287.40 852.80 299.71 840.03 315.03 834.84 C 316.62 834.32 318.98 833.30 317.64 831.21 C 313.92 822.23 309.57 811.77 311.30 802.39 C 317.35 811.92 322.99 823.30 332.42 830.57 C 336.26 832.66 340.83 832.52 344.93 833.86 C 362.18 838.70 374.80 852.69 391.60 858.54 C 404.78 863.63 419.13 863.18 433.01 862.96 C 441.93 862.88 450.89 859.51 457.49 853.48 C 466.25 845.47 466.04 830.42 458.07 821.95 C 444.59 808.56 423.15 809.62 408.99 797.01 C 406.50 795.07 402.35 790.84 406.01 788.06 C 412.60 784.58 420.36 786.49 427.47 786.37 C 426.24 774.96 425.43 763.47 425.18 751.99 C 424.66 744.08 431.40 738.07 437.85 734.75 C 453.59 726.81 471.63 726.85 488.72 724.59 C 493.27 710.78 489.02 693.86 498.57 681.52 C 505.70 672.89 517.57 671.80 528.00 672.53 C 533.16 673.52 534.56 667.37 537.63 664.54 C 552.67 644.96 580.22 636.71 603.62 644.52 C 628.82 652.10 647.93 677.43 646.43 704.01 C 648.06 730.47 628.05 754.83 603.07 761.78 C 594.04 763.33 596.13 774.24 595.29 780.96 C 595.56 783.09 593.59 788.83 597.62 787.49 C 604.73 786.78 614.87 782.99 619.67 790.32 C 617.45 796.47 611.13 799.66 605.76 802.67 C 595.17 808.54 582.85 810.27 572.39 816.40 C 560.72 821.83 556.24 836.77 561.76 848.07 C 567.70 858.75 580.58 862.57 592.00 863.45 C 606.85 864.20 622.30 863.38 635.99 857.05 C 648.83 851.65 659.43 842.27 671.93 836.27 C 678.83 832.73 686.99 833.36 693.96 830.17 C 701.29 821.98 706.54 812.03 710.73 801.92 C 711.32 799.74 712.97 801.71 712.63 803.01 C 712.67 811.06 711.11 819.14 708.62 826.78 C 708.05 829.16 704.64 831.03 706.17 833.59 C 718.52 836.70 728.73 845.56 736.77 855.12 C 744.76 864.48 743.83 877.50 744.01 889.00 C 744.25 897.84 743.08 906.61 741.00 915.17 C 742.67 914.00 743.01 911.78 743.86 910.04 C 759.05 874.18 753.23 831.64 733.39 798.76 C 731.37 790.36 732.08 781.60 731.30 773.05 C 730.38 753.71 725.45 734.67 717.17 717.19 C 704.70 726.58 688.52 729.77 673.23 730.64 C 673.18 730.29 673.08 729.60 673.03 729.25 C 684.36 722.11 697.54 717.83 707.95 709.23 C 699.68 709.04 690.82 711.29 682.32 709.61 C 681.58 706.82 686.34 706.63 688.19 705.35 C 713.34 696.36 736.47 679.78 749.29 655.89 C 761.20 634.66 763.38 608.77 757.50 585.36 C 752.94 567.43 741.67 552.13 728.77 539.22 C 726.83 536.76 723.74 534.99 722.63 532.04 C 720.16 486.71 701.69 441.83 670.07 409.05 C 671.54 400.44 675.06 392.25 679.83 384.97 C 692.20 367.32 722.17 366.26 735.39 382.96 C 728.55 383.94 721.48 382.60 714.78 384.57 C 707.14 387.20 700.93 392.78 695.74 398.80 C 693.70 401.32 690.68 405.15 693.98 407.99 C 713.13 428.31 726.52 453.60 735.00 480.08 C 757.72 471.74 775.92 450.58 777.23 425.93 C 778.05 410.02 776.69 393.32 769.10 379.02 C 759.59 361.21 743.42 346.62 724.09 340.36 C 712.37 337.39 699.84 337.19 688.06 339.96 C 667.57 345.61 649.80 361.14 641.73 380.84 C 641.12 381.83 640.51 384.95 639.01 382.89 C 628.87 374.65 616.91 369.16 604.89 364.28 C 550.96 342.63 489.53 341.09 434.08 357.92 C 416.10 363.98 398.95 372.45 383.00 382.63 C 380.85 380.40 379.89 377.33 378.39 374.68 C 366.91 350.36 339.05 334.97 312.33 338.47 M 575.34 660.46 C 567.88 662.48 559.85 665.19 554.61 671.13 C 567.52 668.65 579.23 680.49 579.34 693.03 C 578.91 694.45 581.14 697.02 581.34 694.25 C 582.51 683.54 582.18 672.60 580.95 661.90 C 581.15 658.37 577.42 660.29 575.34 660.46 M 590.10 659.95 C 590.17 672.12 588.66 684.26 589.12 696.43 C 598.78 689.93 607.10 681.50 616.03 674.01 C 611.05 665.30 599.71 661.29 590.10 659.95 M 621.08 683.30 C 611.84 688.24 603.91 695.32 595.04 700.90 C 591.85 703.07 596.48 705.41 598.16 706.76 C 606.83 712.32 615.11 719.24 624.70 722.89 C 630.34 711.13 630.09 697.07 625.25 685.10 C 624.76 683.19 622.81 682.38 621.08 683.30 M 544.35 687.51 C 535.45 688.04 526.48 688.12 517.66 689.49 C 511.56 690.70 510.37 697.81 509.30 702.91 C 507.19 717.17 505.76 731.63 505.88 746.05 C 509.52 746.96 514.34 747.23 517.39 745.23 C 519.93 731.45 519.32 717.11 522.24 703.43 C 533.16 702.47 544.15 702.62 555.08 701.86 C 557.94 701.62 561.49 701.09 562.76 698.10 C 565.45 693.60 561.53 687.90 556.95 686.73 C 552.74 686.78 548.56 687.39 544.35 687.51 M 581.35 709.37 C 573.59 716.93 565.88 724.58 558.44 732.47 C 557.43 733.36 556.10 735.17 558.06 735.87 C 565.33 739.89 573.48 743.64 581.95 743.40 C 582.05 731.90 582.07 720.38 581.94 708.88 L 581.35 709.37 M 589.14 709.71 C 588.96 721.69 589.50 733.79 590.61 745.66 C 599.91 744.06 609.03 740.40 616.21 734.18 C 618.61 731.69 614.66 729.34 612.96 727.85 C 604.87 722.06 597.97 714.16 589.14 709.71 M 561.32 714.41 C 554.92 715.41 548.15 715.08 542.00 716.96 C 543.57 720.84 545.76 724.77 549.02 727.47 C 553.55 724.65 557.09 720.55 561.03 717.01 C 562.12 716.13 564.22 713.46 561.32 714.41 M 450.22 747.35 C 446.58 748.24 443.58 751.48 442.51 755.01 C 443.64 758.97 447.63 761.13 451.16 762.69 C 464.69 768.26 479.54 769.06 494.00 769.35 C 512.31 769.59 530.66 769.51 548.92 768.14 C 557.98 767.63 566.99 765.22 574.95 760.85 C 576.05 760.21 578.06 758.69 576.53 757.41 C 572.43 754.20 567.28 751.83 562.06 751.46 C 551.72 754.92 540.72 755.34 529.93 756.14 C 506.97 757.27 483.64 757.25 461.08 752.38 C 456.84 752.06 453.96 748.40 450.22 747.35 M 450.21 780.41 C 448.17 784.60 448.06 793.27 454.20 794.66 C 466.01 798.27 474.94 807.21 481.80 817.10 C 482.92 807.73 484.04 798.36 484.91 788.97 C 485.38 786.20 482.13 785.60 480.14 785.14 C 470.21 783.29 460.09 782.57 450.21 780.41 M 571.33 780.44 C 561.39 782.97 551.17 784.06 541.10 785.88 C 532.85 787.24 527.23 795.06 518.99 796.02 C 518.18 792.92 520.32 789.67 519.26 786.72 C 514.42 785.65 508.69 785.09 504.02 787.02 C 500.45 812.92 499.62 839.20 496.39 865.17 C 494.23 877.27 478.26 878.56 471.98 886.88 C 473.29 904.26 473.87 921.73 476.02 939.04 C 476.34 944.04 481.64 946.35 485.96 946.97 C 498.55 948.80 511.33 947.91 524.01 947.96 C 531.09 947.51 539.47 948.46 544.84 942.79 C 548.04 938.11 547.77 932.07 548.54 926.68 C 549.81 909.80 551.63 892.93 552.02 876.00 C 552.75 869.53 546.41 866.17 543.75 861.11 C 533.68 844.11 535.70 820.10 550.13 806.14 C 556.53 799.39 565.47 796.38 573.92 793.19 C 573.12 789.47 576.34 780.56 571.33 780.44 M 526.22 787.09 C 526.34 790.39 529.22 785.57 526.22 787.09 M 522.35 792.27 C 516.17 795.83 530.34 791.68 522.35 792.27 M 324.37 857.50 C 314.70 859.70 306.39 866.84 302.73 876.06 C 297.35 889.51 298.79 904.93 303.54 918.35 C 311.75 939.25 326.01 959.95 347.93 967.87 C 361.75 973.18 379.90 968.78 386.79 954.87 C 394.74 938.29 389.74 918.81 382.14 903.05 C 374.65 888.11 364.41 874.08 350.46 864.59 C 342.89 859.55 333.62 855.59 324.37 857.50 M 685.28 858.42 C 677.15 860.43 670.85 866.35 664.95 871.95 C 649.16 887.59 636.93 907.85 633.84 930.12 C 632.25 943.91 636.17 960.88 649.82 967.31 C 665.14 973.73 683.27 967.97 694.91 956.87 C 716.41 937.03 730.26 905.81 721.46 876.67 C 716.43 862.18 699.88 854.25 685.28 858.42 M 456.16 881.35 C 453.68 882.30 451.22 883.43 449.09 885.02 C 450.82 908.68 452.18 932.38 454.06 956.03 C 454.24 961.33 457.24 966.33 461.93 968.84 C 470.50 973.46 480.39 975.11 490.04 975.30 C 508.33 975.82 526.66 975.68 544.91 974.31 C 554.21 973.50 566.02 970.00 568.61 959.78 C 571.19 936.26 573.03 912.63 573.99 888.99 C 574.87 884.15 569.66 882.52 566.18 881.08 C 563.65 901.30 562.78 921.70 560.40 941.94 C 559.52 947.18 559.09 953.68 554.08 956.79 C 543.31 963.39 530.13 962.77 517.99 963.28 C 503.37 963.15 488.29 964.09 474.16 959.65 C 468.40 958.04 463.81 953.05 463.70 946.91 C 461.23 925.00 460.23 902.93 457.74 881.02 C 457.34 881.10 456.55 881.27 456.16 881.35 M 401.12 885.03 C 412.27 906.92 420.76 932.84 411.85 957.03 C 419.39 958.11 427.19 957.84 434.72 956.76 C 434.35 933.75 430.83 910.88 430.85 887.86 C 420.84 888.14 410.96 886.56 401.12 885.03 M 621.25 885.42 C 612.73 887.48 603.88 887.03 595.29 888.43 C 592.96 888.59 593.46 891.32 593.23 892.94 C 592.09 914.50 589.02 936.05 589.19 957.63 C 596.71 957.45 604.33 958.14 611.77 956.84 C 603.45 932.66 611.44 906.35 623.82 885.05 C 623.18 885.14 621.89 885.33 621.25 885.42 Z"/><path fill="#000000" opacity="1.00" d=" M 389.33 454.47 C 399.48 454.10 410.55 453.79 419.36 459.68 C 425.58 463.96 431.03 469.41 435.47 475.52 C 442.79 485.65 443.48 498.91 442.33 510.92 C 439.35 521.31 433.20 530.93 424.73 537.71 C 411.46 548.26 391.68 550.71 376.73 542.32 C 364.09 535.36 353.45 523.32 351.50 508.63 C 346.78 484.39 365.20 458.45 389.33 454.47 M 391.13 467.33 C 381.07 470.32 376.88 484.41 383.59 492.45 C 388.66 499.13 398.83 500.11 405.68 495.67 C 413.69 490.81 414.81 478.23 408.35 471.66 C 404.00 467.20 397.07 465.41 391.13 467.33 M 412.39 501.42 C 409.77 502.36 410.66 506.03 408.87 507.80 C 406.30 508.90 402.37 508.62 401.52 511.95 C 401.88 516.14 406.95 515.19 409.80 516.15 C 410.53 518.86 409.53 524.22 413.96 523.42 C 417.72 522.96 416.20 518.24 417.96 516.01 C 421.16 515.41 426.54 515.38 426.94 511.17 C 424.94 508.40 421.34 508.35 418.37 507.51 C 416.75 505.02 416.80 499.93 412.39 501.42 Z"/><path fill="#000000" opacity="1.00" d=" M 618.37 454.51 C 633.59 451.46 649.71 457.64 660.04 468.99 C 675.59 485.65 676.60 514.18 661.30 531.34 C 649.76 544.18 630.51 550.94 613.78 545.40 C 593.96 539.75 579.08 519.68 580.01 498.99 C 580.74 477.79 597.43 458.22 618.37 454.51 M 621.19 467.36 C 613.65 469.53 608.40 477.90 610.49 485.63 C 612.37 494.10 621.39 499.98 629.92 498.11 C 637.75 497.10 643.34 489.68 643.46 482.01 C 642.75 471.32 631.47 463.34 621.19 467.36 M 641.02 501.20 C 638.35 502.11 638.54 505.31 637.09 507.19 C 634.34 508.60 629.35 508.84 629.48 512.98 C 630.82 516.25 635.04 515.12 637.73 516.16 C 638.98 518.66 638.81 522.58 642.00 523.51 C 645.39 522.60 644.94 518.26 647.13 516.20 C 649.86 515.26 654.40 515.12 654.60 511.35 C 653.29 507.78 647.81 509.38 646.32 506.07 C 645.24 503.95 644.28 499.85 641.02 501.20 Z"/><path fill="#000000" opacity="1.00" d=" M 512.33 526.47 C 519.38 526.52 527.80 525.28 533.37 530.62 C 541.77 537.88 538.14 553.32 527.76 556.58 C 525.17 557.73 521.59 557.61 519.84 560.03 C 519.58 567.20 519.52 575.45 525.31 580.67 C 531.32 588.29 543.71 586.55 549.35 579.41 C 552.98 575.61 552.48 569.15 557.49 566.50 C 560.88 563.85 565.57 566.46 567.02 569.99 C 569.66 576.26 567.68 583.52 564.20 589.06 C 554.46 604.06 531.30 608.54 517.46 596.60 C 514.88 595.16 512.22 589.53 509.36 593.34 C 502.41 600.59 492.11 604.69 482.07 603.38 C 469.35 601.02 457.98 590.90 455.26 578.09 C 453.97 572.82 456.83 565.60 463.00 565.52 C 469.00 565.96 470.34 572.81 473.16 576.96 C 476.97 583.74 485.93 588.87 493.31 584.34 C 502.37 579.66 504.61 568.34 502.97 559.17 C 499.27 557.87 495.24 557.28 492.07 554.79 C 483.50 549.03 481.78 534.00 491.58 528.54 C 498.23 526.35 505.43 527.10 512.33 526.47 Z"/><path fill="#000000" opacity="1.00" d=" M 338.33 548.41 C 347.90 546.63 357.91 548.34 367.09 551.32 C 372.14 552.88 377.29 557.44 376.43 563.20 C 375.36 569.73 367.83 572.28 362.00 571.48 C 353.05 570.33 343.50 569.96 335.38 565.70 C 328.51 561.40 330.90 550.59 338.33 548.41 Z"/><path fill="#000000" opacity="1.00" d=" M 669.28 548.43 C 674.50 548.07 679.76 547.36 684.98 547.90 C 689.94 549.47 694.56 554.58 692.83 560.11 C 691.78 565.78 685.36 567.28 680.62 568.49 C 672.83 569.97 664.97 571.78 657.01 571.59 C 651.51 570.93 645.27 564.94 648.35 559.14 C 652.00 551.26 661.28 548.70 669.28 548.43 Z"/><path fill="#000000" opacity="1.00" d=" M 533.40 802.43 C 534.04 802.31 535.32 802.08 535.96 801.96 C 534.72 812.27 533.88 822.65 532.38 832.94 C 532.52 836.09 529.13 836.73 527.00 838.04 C 522.59 840.13 518.39 842.78 513.69 844.18 C 514.21 834.03 514.72 823.72 516.64 813.72 C 520.92 808.56 527.55 805.63 533.40 802.43 Z"/><path fill="#000000" opacity="1.00" d=" M 505.37 880.48 C 505.81 880.33 506.70 880.03 507.14 879.88 C 506.99 890.64 505.45 901.47 503.07 911.96 C 498.35 916.42 492.16 919.79 486.06 922.12 C 486.07 911.78 486.66 901.22 488.81 891.09 C 492.44 885.49 499.69 883.51 505.37 880.48 Z"/><path fill="#000000" opacity="1.00" d=" M 538.15 891.35 C 540.36 890.24 543.46 891.04 542.70 894.01 C 541.55 903.03 540.96 912.13 539.82 921.15 C 538.85 928.13 531.37 930.90 526.16 934.28 C 521.60 937.01 513.21 937.57 511.56 931.24 C 510.25 921.45 512.14 910.51 519.14 903.12 C 524.35 897.67 531.14 893.94 538.15 891.35 Z"/></g></svg>