<svg id="a" xmlns="http://www.w3.org/2000/svg" viewBox="0 0 100 100"><g transform="translate(1, 2.2757657657657617) scale(0.22072072072072071) translate(-4.5200000000000005, 3.2400000000000055)"><path d="M261.89,410.16c-38.65,6.76-45.28,6.75-80.41-.12-1.38,1.99-2.67,4.09-4.19,5.99-9.44,11.79-24.24,13.17-38.23,8.84-6.89-2.13-12.47-6.35-17.1-11.87-4.29-5.11-6.28-10.77-5.46-17.56,.27-2.24-.6-4.78-1.49-6.97-11.61-28.6-11.13-56.88,2.22-84.78,2.61-5.46,5.87-10.61,8.97-16.14-38.9-23.88-49.87-60.19-45.37-103.47-4.05-.78-7.93-1.48-11.8-2.26C30.44,173.99,5.33,143.76,4.87,104.35c-.35-30.42,9.47-56.9,32.77-76.99C65.85,3.03,97.6-1.89,131.97,13.18c23.2,10.17,40.49,26.44,50.01,50.23,2.29,5.73,3.72,11.81,5.67,18.14,24.5-4.65,49.25-5.97,74.23-.11,1.01-3.69,1.73-6.99,2.81-10.16,11.86-34.66,36.28-55.55,71.43-64.04,43.39-10.48,87.38,15.57,102.83,59.37,9.57,27.13,8.42,53.69-6.23,78.98-10.56,18.23-26.72,29.16-46.72,34.74-5.51,1.54-11.13,2.64-16.89,3.99,7.46,46.5-10.05,81.05-51.01,104.38,18.62,28.78,21.96,59.47,12.48,92.33,5.54-.43,9.84-2.8,13.54-6.23,5.78-5.36,8.11-12.49,8.06-20-.05-7.44-1.5-14.86-2.16-22.3-.35-3.94-.76-7.96-.35-11.87,.56-5.42,3.73-9.3,9.01-11.08,5.15-1.74,9.47,.02,13.07,3.72,1.53,1.58,3.05,3.35,3.97,5.31,8.78,18.8,10.64,38.1,2.77,57.59-8.25,20.42-26.19,31.44-48.97,30.82-1.28-.03-2.57,0-4.22,0-6.7,11.89-16.96,18.84-30.96,19.66-13.92,.81-25.46-3.34-32.46-16.51ZM122.71,111.31c-9.79,10.11-16.94,20.89-21.69,33.17-7.41,19.17-10.39,39.17-10.02,59.62,.28,15.77,4.66,30.53,13.1,43.95,13.23,21.03,32.86,33.33,56.1,40.38,24.5,7.43,49.72,9.31,75.16,8.26,24.83-1.02,48.86-5.89,71.24-17.15,15.73-7.91,29.5-18.3,39.3-33.22,11.24-17.1,14.77-35.98,12.41-56.13-2.45-20.92-7.65-41-18.32-59.36-3.99-6.87-8.55-13.36-14.93-18.89-.46,1.42-.87,2.49-1.15,3.59-1.92,7.51-5.77,8.74-11.25,3.42-11.51-11.16-25.1-18.76-40.27-23.63-19.13-6.13-38.74-7.73-58.71-6.44-30.23,1.95-57.71,10.71-80.52,31.54-3.74,3.42-8.06,1.9-9.23-3.06-.42-1.78-.72-3.58-1.21-6.06Zm195.1,267.66c11.5-20.37,5.52-67.47-10.69-84.91-26.91,12.11-55.4,16.86-84.77,16.55-29.41-.31-58.11-4.74-85.25-16.56-16.91,18.38-24.36,69.73-12.69,84.81,3.62-1.53,7.03-3.48,10.7-4.44,14.39-3.78,34.33,4.74,43.36,18.03,1.08,1.59,2.95,3.19,4.74,3.64,7.26,1.81,14.57,3.61,21.98,4.61,18.34,2.47,36.5,1.32,54.24-4.25,1.62-.51,3.38-1.74,4.28-3.14,7.76-12.21,19.07-18.29,33.19-19.73,7.63-.78,14.59,1.2,20.92,5.4Zm45.02-218.79c16.34-1.89,33.15-14.35,40.6-29.82,12.48-25.9,6.52-55.61-15.15-76.14-10.96-10.38-23.79-16.83-38.94-17.3-22.71-.7-39.91,9.93-53.34,27.53-5.62,7.35-7.8,16.08-10.01,24.28,10.16,6.43,19.97,12.64,29.74,18.81,1.84-5.02,3.47-10.29,5.68-15.3,5.17-11.72,12.83-21.01,25.9-24.34,2.32-.59,4.86-.75,7.25-.55,2.54,.22,4.41,1.78,4.34,4.63-.07,2.75-2.01,3.76-4.42,4.12-14.89,2.22-21.75,12.73-26.75,25.63,18,15.76,28.9,35.62,35.09,58.45Zm-277.14-.24c5.3-22.72,15.97-42.13,33.08-57.28,0-.87,.1-1.25-.01-1.56-4.57-12.35-11.39-22.39-25.61-24.77-.58-.1-1.16-.21-1.71-.41-3.47-1.24-4.34-5.39-1.3-7.4,1.59-1.05,4.11-1.72,5.88-1.28,4.15,1.05,8.38,2.39,12.08,4.49,10.22,5.77,15.82,15.34,19.99,25.89,1.35,3.41,2.54,6.88,3.66,9.94,10.08-6.26,19.89-12.36,29.98-18.62-.01,.15,.07-.2,.03-.53-.07-.58-.19-1.15-.32-1.72-2.96-12.89-8.7-24.22-18.83-33-12.98-11.24-27.73-18.37-45.24-16.37-37.89,4.34-64.26,40.48-56.81,77.87,4.56,22.89,18.03,38.15,41.1,44.12,1.21,.31,2.47,.4,4.03,.64Zm192.56-73.67c.85-2.44,1.6-4.4,2.21-6.41,3.77-12.27,10.28-22.88,19.81-31.45,20.12-18.09,43.17-24.34,68.99-14.78,33.3,12.33,52.28,43.87,47.15,79.1-3.71,25.46-17.51,43.81-42.57,52.46-2.74,.94-5.56,1.66-8.65,2.57,.32,1.43,.59,2.59,.9,3.99,3.94-.77,7.53-1.33,11.03-2.19,22.8-5.65,40.5-17.68,49.22-40.4,10.8-28.15,6.15-54.53-10.89-78.66-13.99-19.82-33.4-31.72-57.98-32.51-35.52-1.13-60.77,16.46-78.47,46.08-3.66,6.12-5.7,13.02-6.55,20.42,1.98,.6,3.74,1.14,5.79,1.77ZM83.67,167.5c-1.78-.47-3.23-.86-4.69-1.24-18.74-4.9-32.43-16.05-40.45-33.64-15.85-34.77-2.31-75.59,31.03-94.15,12.61-7.02,26.12-11.01,40.53-8.42,29.78,5.36,49.44,22.64,58.41,51.74,.44,1.41,.96,2.8,1.54,4.49,2.3-.73,4.25-1.36,6.54-2.09-.86-3.59-1.42-6.95-2.48-10.14-5.11-15.27-14.93-27-27.18-37.21-26.52-22.09-61.73-25.64-89.82-7.27C31.39,46.39,18.15,70.88,17.88,101.76c-.16,18.06,5.16,34.41,17.91,47.81,12.75,13.4,29.1,18.99,47.09,21.98,.3-1.52,.54-2.71,.8-4.04Zm277.12,150.92c-.43,.47-1.01,.79-1.03,1.15-.2,3.68-.64,7.38-.37,11.03,.6,8.26,2.43,16.53,2.2,24.74-.53,19.07-12.53,32.16-31.3,35.51-1.11,.2-2.19,.55-3.4,.86,.24,2.25,.45,4.19,.69,6.46,15.26-.09,28.11-4.72,36.88-17.56,8.06-11.79,10.44-25.03,7.86-38.95-1.21-6.51-3.39-12.87-5.53-19.16-.8-2.34-2.49-4.65-6-4.09Zm-69.76,92.5l.02-.21c2.34-.17,4.68-.3,7.01-.53,7.31-.73,12.05-4.76,14.49-11.56,2.07-5.78-1.02-11.01-7.04-12.11-10.41-1.92-23.22,3.96-28.43,13.04-2.71,4.73-.5,9.78,4.87,10.68,2.98,.5,6.06,.48,9.09,.69Zm-137.8,.12c3.11-.3,5.58-.4,8-.78,5.71-.9,7.68-4.98,4.93-9.97-5.06-9.17-18.61-15.57-28.88-13.65-6.08,1.14-9.06,6.31-6.88,12.11,2.07,5.51,5.86,9.38,11.65,10.72,3.85,.89,7.86,1.13,11.19,1.57Z"/><path d="M184.64,212.12c-.13,8.43-1.33,16.62-4.83,24.33-5.56,12.26-16.93,17.53-28.04,13.01-5.48-2.23-9.46-6.36-11.67-11.65-7.57-18.2-7.65-36.49,2.2-53.79,8.67-15.22,27.56-14.71,35.89,.72,2.72,5.04,4.01,10.93,5.42,16.56,.87,3.48,.73,7.21,1.04,10.82Z"/><path d="M263.33,211.94c1.62-7.75,2.82-15.62,4.97-23.22,1.77-6.24,5.83-11.24,11.82-14.21,9.6-4.75,20.93-.61,26.56,9.59,3.75,6.8,5.33,14.2,6.11,21.84,.84,8.24,.7,16.48-1.77,24.38-1.33,4.27-3.37,8.58-6.09,12.11-8.04,10.44-22.83,10.39-31.45,.36-6.2-7.21-8.19-15.91-9-25.03-.17-1.86-.02-3.75-.02-5.62l-1.14-.2Z"/><path d="M225.26,278.21c-7.59,4.33-15.35,5.27-23.45,2.16-4.93-1.9-8.53-5.27-10.96-9.91-1.71-3.27-1.4-6.12,.87-7.13,3.09-1.37,4.71,.6,6.23,2.94,5.47,8.42,14.26,10.39,22.66,4.94v-13.2c-5.48-3.26-9.5-7.79-11.2-14.16-1.51-5.64,.6-10.15,6.06-12.1,6.41-2.29,12.94-2.07,19.28,.34,4.74,1.8,6.53,5.93,5.11,11.26-1.58,5.93-5.19,10.42-10.39,13.85v13.1c6.28,5.8,15.68,4.88,20.84-1.89,.78-1.02,1.52-2.09,2.19-3.19,1.29-2.12,3.13-3,5.35-1.84,2.23,1.17,2.49,3.39,1.6,5.52-1.96,4.7-5.21,8.36-9.76,10.68-7.31,3.73-14.67,3.47-21.97-.13-.73-.36-1.46-.73-2.47-1.24Z"/></g></svg>