<svg viewBox="0 0 100 100" version="1.1" xmlns="http://www.w3.org/2000/svg"><g transform="translate(1, 5.668163430002181) scale(0.10139364530847464) translate(-31.8, -75.09)"><path fill="#000000" opacity="1.00" d=" M 259.21 76.37 C 264.27 75.09 269.42 77.51 272.96 81.04 C 279.59 87.53 283.30 96.19 287.71 104.18 C 289.10 106.99 292.03 108.53 295.02 109.02 C 303.16 110.66 311.72 111.63 318.99 115.98 C 326.20 119.91 329.83 129.66 326.37 137.23 C 321.85 147.24 312.68 153.87 305.73 162.04 C 307.47 170.61 310.76 179.07 310.08 187.97 C 309.76 194.00 306.17 199.94 300.71 202.62 C 294.69 203.95 288.43 202.81 282.45 201.75 C 292.03 222.05 305.53 240.21 318.69 258.30 C 332.29 277.10 349.40 292.89 364.76 310.16 C 371.84 317.33 369.29 329.95 362.06 336.08 C 354.15 343.74 342.32 344.27 332.09 342.24 C 327.59 340.79 330.54 345.53 331.59 347.38 C 354.69 386.74 383.26 422.97 416.70 454.06 C 416.35 441.49 419.63 429.15 423.41 417.26 C 430.36 398.92 442.61 383.14 455.93 368.97 C 461.90 362.72 463.08 353.81 465.98 346.01 C 469.07 336.38 473.80 327.43 477.97 318.28 C 461.90 304.22 450.00 285.15 446.76 263.83 C 440.50 227.15 450.32 187.31 475.42 159.43 C 486.39 147.99 498.09 136.47 512.91 130.20 C 526.75 124.02 541.80 120.09 557.01 120.00 C 575.14 120.62 593.36 126.03 608.08 136.81 C 622.57 147.31 633.72 161.69 643.30 176.64 C 644.20 177.99 646.71 180.44 646.35 177.14 C 643.25 169.59 637.32 162.69 637.89 154.05 C 638.30 145.88 646.44 140.31 654.08 139.86 C 680.17 136.97 705.57 148.48 725.79 164.09 C 728.24 156.88 736.54 151.07 744.11 154.29 C 759.68 160.39 769.12 175.71 776.04 190.11 C 781.02 187.11 783.12 180.54 787.81 176.83 C 806.10 158.28 830.71 145.23 856.93 143.32 C 876.55 141.96 896.82 144.05 914.86 152.29 C 944.80 165.85 968.76 191.71 980.55 222.34 C 998.33 267.41 989.68 323.19 954.82 357.82 C 938.12 374.66 915.60 385.42 892.03 387.98 C 898.10 411.45 900.97 435.72 899.34 459.97 C 898.51 506.68 875.88 553.26 837.46 580.43 C 831.37 584.93 824.61 588.38 818.23 592.41 C 819.36 595.79 821.54 598.69 823.28 601.78 C 843.23 636.45 853.41 676.05 856.58 715.72 C 866.17 713.12 872.51 704.97 879.39 698.39 C 883.71 694.23 888.44 688.89 895.01 689.25 C 901.18 689.01 906.86 692.94 909.50 698.40 C 914.55 708.48 913.36 720.44 910.21 730.91 C 902.51 756.83 878.24 775.41 852.08 779.86 C 844.68 780.19 843.63 788.83 840.82 794.07 C 831.88 816.20 816.58 834.95 799.02 850.84 C 824.26 851.01 849.54 849.27 874.75 850.42 C 879.03 851.79 873.02 854.78 870.94 854.39 C 828.73 859.40 787.24 869.27 745.00 874.01 C 729.80 874.34 712.96 877.02 699.31 868.69 C 696.82 867.30 694.72 865.19 692.05 864.17 C 652.69 863.61 613.27 864.92 573.94 862.73 C 560.95 861.64 545.35 860.66 537.23 848.86 C 531.78 836.10 541.17 819.97 554.58 817.38 C 553.45 812.88 549.06 809.46 546.47 805.54 C 533.78 789.25 526.37 769.28 523.75 748.91 C 522.60 736.96 524.23 724.96 524.25 713.02 C 509.17 708.52 492.74 704.37 481.49 692.51 C 463.63 675.75 453.58 650.01 458.48 625.65 C 461.94 609.62 470.20 594.48 482.20 583.26 C 485.23 580.09 490.20 578.35 491.69 574.00 C 490.79 569.76 485.54 568.84 482.41 566.62 C 450.01 546.46 426.46 513.03 417.98 475.85 C 413.27 477.79 410.47 482.58 405.83 484.72 C 397.69 489.60 387.94 488.06 378.95 488.39 C 377.07 488.27 378.15 490.24 378.75 491.07 C 394.22 512.02 412.16 531.12 432.23 547.74 C 438.90 553.62 446.81 558.67 451.50 566.40 C 457.24 577.32 449.96 590.88 439.02 594.96 C 428.13 599.26 416.24 599.39 404.71 599.65 C 420.45 621.86 441.16 640.02 457.24 661.95 C 465.74 673.53 455.56 690.29 442.09 691.30 C 453.53 704.77 473.69 709.51 481.61 726.25 C 485.99 738.29 477.36 751.37 466.07 755.75 C 444.18 765.14 419.38 759.52 398.08 751.23 C 394.67 749.09 395.00 753.81 394.21 755.89 C 392.52 762.59 386.52 766.60 381.24 770.38 C 384.81 776.16 388.41 782.64 392.98 787.37 C 398.09 778.54 403.37 768.57 413.00 763.98 C 424.94 758.45 441.34 768.48 439.91 782.07 C 439.76 787.80 435.12 791.56 432.46 796.14 C 440.78 796.98 440.70 806.71 439.41 812.94 C 439.12 817.13 434.81 819.71 434.97 824.01 C 433.85 837.17 434.85 850.43 433.78 863.59 C 420.15 867.58 406.18 870.87 392.00 872.01 C 380.79 871.19 370.19 866.59 359.00 865.66 C 334.71 867.37 310.31 867.41 286.07 869.91 C 265.00 871.83 244.17 876.43 222.99 876.95 C 210.33 875.71 198.29 870.61 186.86 865.28 C 182.05 863.84 185.69 855.68 180.09 856.14 C 162.84 855.58 145.58 854.79 128.36 853.49 C 126.38 853.17 122.70 852.99 123.13 850.15 C 124.92 848.33 127.72 848.89 130.02 848.65 C 147.75 848.32 165.51 848.08 183.22 848.92 C 183.90 840.19 183.52 830.97 183.25 822.07 C 183.54 817.71 178.25 815.50 179.07 811.02 C 179.55 805.53 178.12 798.10 183.38 794.50 C 189.62 791.62 196.75 792.36 203.38 791.10 C 200.75 786.02 195.47 782.96 192.76 777.91 C 188.12 770.60 191.84 760.27 199.16 756.26 C 203.25 754.16 206.13 749.82 204.90 745.10 C 186.82 756.26 167.47 767.11 146.00 769.61 C 134.98 770.97 123.99 762.75 123.71 751.31 C 107.21 757.53 89.72 762.31 71.92 760.83 C 60.64 759.94 48.63 756.87 40.53 748.48 C 33.40 741.16 31.80 727.98 39.39 720.41 C 50.52 709.20 65.26 702.45 76.89 691.85 C 70.02 691.47 64.11 686.86 60.74 681.07 C 57.49 674.68 58.90 666.63 63.13 661.03 C 80.66 639.52 101.92 621.13 118.52 598.89 C 102.92 599.35 85.26 600.15 72.45 589.59 C 64.14 583.10 62.84 569.74 70.06 561.97 C 82.53 547.81 98.05 536.75 110.73 522.78 C 120.50 511.99 131.34 501.80 138.85 489.24 C 133.28 488.44 127.67 490.02 122.09 489.17 C 112.10 488.21 101.51 483.78 96.51 474.59 C 92.34 467.36 94.17 457.76 99.82 451.86 C 111.56 438.94 124.72 427.39 136.37 414.39 C 156.66 391.91 175.07 367.64 191.07 341.95 C 180.28 344.54 167.76 345.04 158.90 337.17 C 152.21 331.87 148.54 321.84 152.76 313.96 C 156.56 307.58 162.24 302.64 167.42 297.41 C 196.85 269.68 221.78 237.13 241.48 201.90 C 231.95 204.87 217.87 205.16 213.74 193.94 C 210.71 183.17 215.19 172.28 217.44 161.80 C 210.15 153.36 200.24 146.65 195.95 135.98 C 192.82 128.17 198.20 119.87 204.60 115.63 C 213.45 110.43 224.08 110.43 233.77 107.92 C 240.44 96.43 244.66 80.07 259.21 76.37 M 260.41 95.43 C 253.04 103.23 250.90 114.73 243.64 122.62 C 235.26 126.47 225.53 125.32 216.87 128.31 C 213.96 129.39 213.04 133.62 215.25 135.83 C 221.01 142.75 228.53 148.01 234.39 154.78 C 232.90 163.54 230.25 172.13 229.62 181.01 C 229.09 184.03 232.11 186.19 234.88 185.28 C 244.51 182.99 252.79 177.14 261.92 173.56 C 270.50 177.53 278.43 183.64 288.00 185.02 C 290.52 185.69 293.59 183.86 293.07 181.00 C 292.72 172.52 289.34 164.48 288.25 156.14 C 293.97 147.76 302.76 141.99 308.63 133.72 C 309.89 132.03 307.98 130.28 306.60 129.52 C 298.06 125.40 288.06 126.22 279.36 122.65 C 273.30 115.24 270.87 105.59 265.17 97.93 C 264.02 96.57 262.42 94.65 260.41 95.43 M 545.21 142.39 C 529.51 145.04 514.00 151.32 502.16 162.18 C 488.88 174.21 478.44 189.43 472.48 206.36 C 466.52 220.79 467.59 236.74 468.01 252.00 C 468.47 268.50 476.06 284.02 486.55 296.46 C 487.17 297.01 488.60 298.72 489.25 297.29 C 493.86 290.83 497.83 283.92 502.64 277.59 C 506.99 272.12 502.52 264.75 505.69 258.84 C 507.99 253.60 513.95 252.27 518.87 250.73 C 518.86 250.36 518.84 249.60 518.82 249.22 C 511.48 245.33 504.20 249.86 497.31 251.89 C 498.29 242.53 502.01 233.83 505.15 225.08 C 491.79 224.80 480.79 236.52 478.09 248.94 C 477.61 249.93 477.99 251.77 476.48 251.90 C 472.84 223.60 481.94 192.79 503.44 173.40 C 512.98 164.94 526.56 160.12 539.17 163.61 C 548.29 166.31 554.65 174.44 557.66 183.15 C 562.03 194.56 562.70 206.92 562.44 219.01 C 570.99 213.09 581.06 209.71 589.27 203.27 C 595.98 197.38 603.53 192.32 611.93 189.17 C 613.48 188.39 615.65 187.86 616.25 186.03 C 606.72 157.15 575.19 138.23 545.21 142.39 M 658.88 158.05 C 659.23 160.35 660.91 162.07 662.25 163.86 C 673.37 177.58 686.21 189.80 697.61 203.27 C 680.93 198.19 663.08 193.68 645.65 197.49 C 632.47 200.25 619.23 204.38 608.00 212.00 C 605.93 213.81 602.40 215.65 603.09 218.91 C 607.97 222.42 614.33 222.77 620.05 224.05 C 637.41 226.23 654.96 225.29 672.41 225.66 C 672.50 225.84 672.67 226.20 672.76 226.39 C 655.50 235.73 637.11 246.98 629.24 265.92 C 627.73 269.09 625.96 274.97 630.90 275.89 C 645.40 277.06 659.25 271.40 673.26 268.71 C 672.38 270.63 670.23 271.41 668.58 272.49 C 655.47 279.72 641.64 286.55 626.65 288.53 C 619.32 289.79 611.26 284.66 610.84 276.91 C 609.54 262.95 618.08 250.93 625.97 240.43 C 614.30 239.67 602.42 241.10 590.89 238.78 C 586.94 238.09 584.28 235.00 581.89 232.07 C 579.90 229.20 577.08 232.66 575.06 233.81 C 532.36 267.18 497.43 311.92 480.66 363.86 C 477.14 373.32 475.54 383.79 471.00 392.67 C 470.97 389.77 471.40 386.91 471.64 384.03 C 460.78 394.27 450.93 406.00 445.22 419.94 C 429.69 455.87 441.77 499.23 468.37 526.62 C 476.97 535.27 486.03 544.30 497.30 549.26 C 498.11 545.03 495.00 541.19 496.00 536.98 C 497.23 528.23 503.48 520.52 512.00 517.92 C 526.97 511.87 546.22 526.77 542.38 542.91 C 542.33 544.34 540.78 547.25 543.07 547.62 C 547.17 547.96 551.62 549.83 553.27 553.89 C 554.97 558.69 553.96 564.15 556.20 568.80 C 563.47 573.27 572.40 575.22 578.41 581.61 C 585.48 589.83 597.32 588.66 606.98 590.95 C 635.35 594.84 664.22 593.01 692.63 590.62 C 686.49 597.21 676.89 599.24 669.45 603.94 C 673.66 604.55 677.94 604.63 682.13 605.39 C 666.57 612.42 648.84 612.58 632.00 612.09 C 614.05 612.49 596.83 606.39 579.04 605.15 C 572.65 604.90 565.17 606.90 562.01 612.98 C 558.33 620.13 560.65 628.83 565.13 635.06 C 571.91 644.56 581.44 651.64 591.03 658.09 C 625.78 682.13 668.69 696.92 711.22 691.95 C 700.21 700.93 685.44 704.26 671.65 706.51 C 644.11 708.61 616.14 699.70 593.78 683.71 C 590.08 685.84 587.51 689.52 584.22 692.23 C 575.52 700.60 564.41 705.93 552.90 709.23 C 550.26 710.16 545.87 711.15 546.75 714.90 C 554.82 746.94 578.36 773.73 607.66 788.39 C 630.98 800.45 657.40 805.23 683.43 806.07 C 681.15 801.59 677.84 797.71 675.77 793.11 C 665.10 771.95 667.10 744.67 681.77 725.88 C 683.91 723.45 685.51 719.89 688.82 718.97 C 687.44 723.95 684.38 728.37 683.67 733.54 C 688.78 730.21 690.42 723.50 695.46 720.13 C 688.59 738.73 684.94 759.80 691.23 779.08 C 696.87 795.99 708.94 811.38 725.60 818.48 C 734.91 822.46 744.71 825.74 754.90 826.32 C 756.95 827.51 753.96 829.19 753.06 830.18 C 745.30 835.28 735.65 832.88 726.99 833.01 C 716.39 832.91 706.05 840.62 703.74 851.04 C 703.70 852.64 703.94 856.45 706.15 855.86 C 708.70 852.50 711.97 846.78 716.72 847.63 C 715.56 851.12 712.56 854.85 714.38 858.64 C 717.04 862.12 722.11 861.20 725.97 861.30 C 743.17 860.92 759.13 853.42 773.39 844.34 C 791.77 832.96 805.60 815.42 815.50 796.42 C 824.96 777.98 831.22 757.70 832.38 736.94 C 835.01 691.46 823.06 645.38 799.57 606.44 C 797.01 601.09 790.39 605.41 786.07 605.65 C 765.37 608.70 743.78 608.13 723.81 601.41 C 722.58 600.70 720.30 600.74 719.97 599.11 C 727.45 597.07 735.25 596.64 742.86 595.27 C 771.67 590.97 800.14 581.17 823.69 563.71 C 849.72 544.42 868.16 515.04 873.69 483.08 C 877.71 460.20 876.42 436.70 872.76 413.86 C 869.89 397.25 865.88 380.64 858.47 365.42 C 857.71 363.66 856.83 361.87 856.70 359.93 C 863.06 361.66 868.86 365.50 875.66 365.48 C 886.07 365.64 896.88 366.26 906.83 362.63 C 927.89 355.24 945.23 338.98 955.32 319.22 C 973.78 283.95 970.04 238.51 946.35 206.56 C 927.15 179.78 894.24 162.34 860.97 165.07 C 837.15 166.03 814.72 178.36 799.06 195.97 C 787.59 210.45 777.98 226.94 773.74 245.04 C 771.93 244.57 772.14 242.30 771.59 240.91 C 767.01 218.25 761.13 194.86 746.73 176.22 C 745.99 175.30 743.69 172.78 743.45 175.31 C 742.51 187.74 744.43 200.19 743.81 212.63 C 739.83 208.31 737.39 202.86 733.69 198.32 C 720.23 180.97 701.03 168.49 680.33 161.54 C 673.42 159.39 666.18 157.34 658.88 158.05 M 246.22 226.25 C 238.08 235.40 232.75 246.69 225.69 256.68 C 222.56 262.26 217.44 267.34 217.00 273.98 C 220.61 275.35 222.85 271.21 224.83 268.90 C 233.38 256.52 240.86 243.28 246.46 229.30 C 246.59 228.44 248.13 224.06 246.22 226.25 M 252.37 234.39 C 248.71 237.75 247.34 242.79 245.38 247.20 C 244.64 250.05 242.36 253.19 243.95 256.12 C 249.65 254.18 249.48 246.24 251.52 241.37 C 251.88 239.53 253.57 234.53 252.37 234.39 M 290.34 246.44 C 282.21 247.60 276.80 256.19 277.85 264.10 C 276.20 269.31 271.38 272.82 267.90 276.87 C 263.81 281.85 256.67 276.93 251.85 280.69 C 245.83 283.58 247.19 292.37 240.95 294.80 C 236.51 296.46 231.70 301.93 227.02 298.13 C 220.18 293.66 211.07 296.28 206.72 302.89 C 200.38 304.33 193.72 298.91 186.94 300.05 C 184.72 303.90 190.28 306.10 193.07 307.25 C 196.91 309.41 202.75 307.69 205.48 311.40 C 207.66 318.79 213.48 325.24 221.62 325.46 C 228.26 332.08 233.15 340.50 240.82 346.23 C 245.31 349.02 240.63 354.06 240.89 358.06 C 238.14 373.75 254.31 389.59 269.91 385.28 C 283.69 382.84 292.63 367.29 289.00 354.04 C 288.72 352.08 287.05 349.60 288.97 347.99 C 293.98 342.97 298.46 337.38 303.83 332.73 C 306.34 330.29 309.74 332.59 312.71 332.53 C 320.32 332.74 326.60 325.36 325.90 317.93 C 324.77 308.20 310.71 300.91 303.78 309.78 C 296.78 314.82 303.10 324.63 297.20 330.11 C 293.16 334.76 289.01 339.32 284.60 343.61 C 278.72 339.63 272.60 335.28 265.01 336.60 C 257.60 335.35 251.73 339.85 246.10 343.84 C 239.40 337.26 232.69 330.33 227.40 322.57 C 232.62 318.31 235.10 311.88 233.37 305.27 C 237.97 303.48 242.47 301.46 246.99 299.50 C 250.60 302.41 254.04 306.35 259.04 306.55 C 267.58 306.72 274.08 296.99 271.26 289.09 C 270.73 287.26 268.77 285.18 270.54 283.42 C 273.98 279.18 277.79 275.21 281.73 271.44 C 285.11 272.74 288.29 274.97 292.04 274.96 C 300.07 274.02 307.33 265.58 304.55 257.36 C 302.33 251.67 296.75 246.29 290.34 246.44 M 306.93 277.76 C 306.86 280.49 308.91 282.48 310.39 284.56 C 318.81 295.08 328.39 304.62 338.32 313.70 C 340.95 315.95 344.51 319.60 348.03 316.77 C 338.59 305.07 327.01 295.17 316.19 284.74 C 313.14 282.41 310.81 278.69 306.93 277.76 M 180.40 306.47 C 176.51 309.38 171.64 312.47 170.03 317.17 C 175.02 319.57 180.03 313.80 183.39 310.45 C 185.98 308.46 183.01 304.34 180.40 306.47 M 204.31 361.22 C 199.07 366.16 195.11 372.27 190.87 378.05 C 178.86 394.20 165.95 409.66 153.36 425.34 C 150.66 429.02 157.41 429.90 158.98 427.07 C 177.40 409.20 192.43 387.86 204.29 365.15 C 204.97 364.09 207.02 359.02 204.31 361.22 M 339.42 378.41 C 332.44 384.11 327.47 391.82 321.41 398.41 C 318.57 401.82 313.80 400.88 309.97 402.03 C 304.09 403.37 299.69 408.33 298.01 413.98 C 296.24 420.28 289.43 422.36 284.45 425.47 C 281.76 426.79 278.72 429.03 275.65 427.47 C 266.39 422.89 254.03 427.92 250.67 437.71 C 244.02 440.87 236.25 440.65 229.07 441.91 C 222.58 443.66 217.44 436.05 211.07 438.79 C 206.62 439.49 203.75 444.34 199.02 443.46 C 186.76 442.53 174.54 441.12 162.35 439.52 C 154.76 439.27 151.43 430.45 143.89 429.83 C 131.07 428.04 120.60 444.05 127.25 455.12 C 133.16 466.24 152.18 465.99 156.58 453.71 C 158.10 451.28 156.54 444.74 161.09 446.17 C 173.76 447.96 186.50 449.39 199.31 449.71 C 198.10 455.64 198.36 462.52 203.04 466.96 C 209.79 474.49 223.92 473.43 228.30 463.88 C 231.16 459.56 229.76 454.20 230.51 449.57 C 236.70 447.56 243.50 446.28 250.01 445.85 C 251.55 448.84 252.37 452.53 255.08 454.95 C 261.76 463.29 276.22 461.58 281.68 452.76 C 284.45 447.27 284.25 440.84 282.88 434.99 C 286.65 430.79 292.51 428.99 296.95 425.48 C 301.55 427.61 304.19 432.63 309.08 434.27 C 317.20 436.25 326.90 432.06 329.65 423.85 C 332.43 416.98 328.53 410.28 324.43 405.01 C 329.12 396.75 337.60 390.94 341.15 381.94 C 341.58 380.64 341.57 377.12 339.42 378.41 M 303.64 380.86 C 303.67 385.52 305.70 391.33 310.14 393.47 C 309.56 388.91 307.49 383.32 303.64 380.86 M 214.40 387.48 C 205.67 391.22 204.96 405.08 213.41 409.57 C 221.37 414.60 232.11 405.95 230.64 397.20 C 229.20 390.31 221.49 383.89 214.40 387.48 M 340.91 400.94 C 339.94 405.69 345.05 413.13 349.96 412.93 C 348.88 408.11 345.10 403.49 340.91 400.94 M 371.10 425.19 C 365.37 429.91 362.23 436.91 357.51 442.53 C 353.89 447.37 347.03 447.58 343.16 452.17 C 339.39 454.98 339.92 460.42 336.35 463.34 C 328.32 471.06 319.46 477.85 311.04 485.13 C 305.94 489.72 297.63 485.63 292.81 490.80 C 289.00 493.59 288.50 499.15 284.09 501.26 C 277.96 504.74 271.65 508.00 265.19 510.82 C 256.28 501.17 239.97 501.63 231.17 511.16 C 227.87 514.28 226.49 518.69 224.50 522.64 C 218.65 525.13 212.20 526.07 206.10 527.91 C 204.14 528.22 201.65 529.79 200.03 527.88 C 194.45 522.80 186.81 518.89 179.10 520.84 C 172.99 521.90 168.81 526.68 164.14 530.26 C 152.57 528.63 141.47 524.82 130.28 521.54 C 127.67 520.94 124.78 519.83 122.21 521.13 C 120.66 524.85 125.07 526.29 127.66 527.44 C 138.41 531.52 149.58 535.00 161.11 535.86 C 162.78 541.15 161.20 547.43 164.61 552.36 C 170.47 563.80 186.67 565.70 196.56 558.54 C 203.92 553.16 205.64 543.36 204.01 534.88 C 210.77 533.30 217.78 530.68 224.56 530.38 C 227.11 537.35 232.18 543.43 238.90 546.71 C 249.81 551.09 264.40 545.70 268.49 534.32 C 270.02 528.21 268.83 521.84 269.45 515.63 C 275.29 512.58 281.24 509.71 287.17 506.85 C 290.53 509.22 292.42 513.99 296.81 515.36 C 304.96 519.14 314.44 511.40 314.55 503.04 C 314.64 499.73 311.33 496.69 312.49 493.52 C 319.17 485.87 327.37 479.71 335.09 473.16 C 336.72 472.02 339.60 469.34 341.23 471.87 C 347.40 482.73 366.20 481.85 370.67 469.84 C 374.66 461.38 369.54 452.36 362.90 447.06 C 366.28 440.26 372.03 434.56 373.96 427.06 C 374.90 424.86 372.69 424.01 371.10 425.19 M 378.19 446.18 C 378.36 451.86 384.77 456.22 388.63 460.33 C 390.06 462.38 395.83 464.29 394.77 460.07 C 390.62 454.15 384.35 449.84 378.19 446.18 M 120.40 455.48 C 117.12 456.20 113.91 463.40 119.29 462.50 C 124.25 462.69 127.36 452.64 120.40 455.48 M 179.20 480.24 C 171.77 486.77 165.70 494.72 159.11 502.07 C 155.77 506.31 151.52 510.05 149.42 515.12 C 150.70 518.75 154.49 515.95 156.13 514.15 C 165.16 505.01 173.05 494.70 179.65 483.68 C 180.36 482.22 182.50 478.29 179.20 480.24 M 345.02 492.91 C 349.22 501.68 354.60 510.59 362.42 516.56 C 365.90 518.42 365.49 512.85 363.54 511.45 C 357.86 504.93 352.61 497.20 345.02 492.91 M 381.08 511.15 C 373.77 518.59 368.72 527.97 361.53 535.54 C 360.64 536.44 359.49 537.45 358.11 537.07 C 352.08 536.12 345.68 536.54 340.15 539.27 C 331.68 543.78 327.04 553.91 328.53 563.32 C 329.37 566.76 326.24 568.97 323.91 570.83 C 318.06 575.31 312.23 579.85 306.06 583.87 C 300.52 587.70 293.24 582.76 287.75 586.68 C 282.07 589.71 280.60 596.96 274.78 599.74 C 265.73 604.55 256.38 608.85 247.00 612.95 C 240.49 608.73 231.54 606.29 224.97 611.81 C 220.14 614.46 219.02 621.43 213.15 622.36 C 205.49 624.39 197.69 625.83 189.90 627.25 C 184.94 625.65 180.49 621.92 175.01 622.35 C 169.60 622.64 165.93 627.05 161.93 630.11 C 144.94 630.57 127.78 630.19 111.01 627.03 C 108.07 626.31 102.45 626.49 103.10 630.80 C 120.85 638.62 141.18 634.87 159.74 638.06 C 160.03 645.95 165.01 653.89 172.93 655.93 C 180.59 658.33 189.24 653.18 191.60 645.71 C 192.88 641.70 191.69 637.49 192.14 633.40 C 200.11 632.03 208.06 630.51 216.02 629.06 C 218.73 633.83 220.55 639.41 225.44 642.59 C 234.21 649.54 248.02 643.31 250.85 633.10 C 252.62 628.48 250.93 623.70 250.05 619.12 C 259.75 614.25 269.59 609.59 279.52 605.19 C 281.66 614.69 294.53 621.85 303.12 615.72 C 312.16 611.30 312.91 598.93 307.97 591.15 C 315.52 584.84 323.85 579.51 331.55 573.39 C 336.11 578.04 341.39 582.46 348.07 583.42 C 361.78 586.22 377.39 574.45 376.33 560.02 C 376.61 552.09 371.23 545.96 366.49 540.30 C 371.98 532.49 378.28 525.20 383.11 516.94 C 384.30 514.99 384.44 510.01 381.08 511.15 M 385.10 533.14 C 381.18 536.16 385.60 540.58 387.96 543.02 C 398.45 552.90 409.60 562.78 423.07 568.31 C 424.80 569.22 429.56 569.52 427.42 566.55 C 416.06 556.19 403.19 547.61 391.97 537.07 C 389.89 535.57 387.91 532.59 385.10 533.14 M 516.40 533.50 C 512.70 535.15 512.85 539.68 513.18 543.08 C 513.28 549.03 521.37 546.14 525.22 546.78 C 526.57 541.02 524.63 529.89 516.40 533.50 M 123.14 540.26 C 113.13 548.19 102.82 555.80 92.93 563.90 C 91.70 565.34 88.82 566.78 89.73 568.97 C 96.26 569.98 101.79 565.20 107.01 561.98 C 115.30 555.98 124.27 550.44 130.84 542.48 C 128.44 541.49 125.82 539.11 123.14 540.26 M 525.34 558.49 C 518.01 558.86 510.54 558.71 503.37 560.43 C 501.06 565.60 501.95 571.63 502.23 577.14 C 502.39 582.86 510.02 581.85 513.76 580.63 C 519.04 578.29 514.14 570.51 518.58 567.57 C 521.47 566.56 524.66 566.99 527.67 567.15 C 527.92 570.67 527.21 574.34 528.33 577.76 C 532.00 582.91 543.04 579.98 541.80 572.99 C 541.37 568.71 541.78 564.04 539.82 560.11 C 535.61 557.37 530.10 558.78 525.34 558.49 M 548.22 586.34 C 543.52 588.11 539.27 591.59 534.02 591.52 C 529.84 591.48 526.53 588.66 522.75 587.36 C 517.98 591.52 511.31 594.45 505.05 591.93 C 499.47 589.06 495.44 595.54 491.63 598.63 C 489.90 600.80 486.79 602.52 486.38 605.39 C 490.14 608.71 495.55 609.48 499.12 613.02 C 500.41 614.28 498.58 616.06 497.38 616.53 C 491.38 617.23 485.92 612.33 479.94 613.95 C 478.62 616.28 480.32 618.64 482.55 619.45 C 499.64 626.73 518.91 625.66 536.64 621.54 C 539.03 620.88 543.05 619.41 541.95 616.20 C 532.67 617.01 523.30 619.79 513.93 618.02 C 512.04 616.86 513.02 613.61 515.20 613.39 C 524.16 611.05 533.66 610.87 542.37 607.49 C 548.23 605.43 550.88 599.15 556.24 596.30 C 557.62 594.97 560.57 594.63 560.74 592.53 C 556.58 590.45 552.50 588.17 548.22 586.34 M 364.19 595.01 C 369.01 605.77 375.70 615.71 383.31 624.69 C 385.09 627.29 388.45 627.10 390.95 625.75 C 385.24 616.82 377.68 609.19 370.90 601.05 C 368.71 599.03 367.25 595.74 364.19 595.01 M 153.46 600.49 C 146.76 606.22 139.66 611.87 134.51 619.09 C 135.79 622.49 139.29 619.29 140.81 617.79 C 145.69 612.34 151.23 606.95 154.02 600.09 L 153.46 600.49 M 476.06 625.69 C 474.06 632.62 475.03 639.99 476.01 647.02 C 476.77 651.67 478.17 657.34 483.09 659.21 C 494.70 664.07 507.53 665.44 520.03 664.73 C 533.17 664.09 546.45 662.34 558.77 657.54 C 557.28 652.97 552.46 650.13 549.78 646.15 C 545.56 641.44 544.97 634.94 542.36 629.44 C 537.86 629.07 533.46 630.39 529.04 630.93 C 511.29 633.24 492.84 632.20 476.06 625.69 M 425.11 635.22 C 418.01 642.10 415.52 652.54 408.83 659.81 C 400.36 660.07 391.55 665.19 390.32 674.20 C 384.98 679.25 378.18 682.41 371.94 686.19 C 368.86 687.66 365.49 690.44 361.92 688.81 C 355.77 686.77 348.70 688.76 344.03 693.12 C 342.40 695.08 341.42 697.80 338.78 698.66 C 330.24 702.40 321.00 704.12 312.10 706.77 C 309.64 707.73 307.84 705.25 305.85 704.28 C 299.07 699.67 289.26 700.73 283.49 706.49 C 277.05 715.31 264.67 710.37 255.41 711.55 C 253.72 708.27 252.62 704.65 250.29 701.74 C 243.26 692.36 228.25 691.02 219.24 698.27 C 216.57 700.17 214.58 702.89 211.87 704.72 C 205.27 703.08 198.74 701.07 192.02 699.94 C 188.69 694.33 183.27 688.29 175.99 689.45 C 168.47 692.74 162.27 685.04 156.21 681.73 C 150.61 679.10 152.90 672.34 150.32 667.83 C 146.92 659.41 137.82 654.16 129.01 653.73 C 124.30 653.27 120.44 656.53 116.03 657.18 C 108.42 652.63 103.11 645.07 96.06 639.75 C 93.41 637.70 91.00 643.13 93.15 644.91 C 98.66 651.44 105.42 656.77 112.06 662.09 C 109.37 667.97 107.33 674.56 109.01 681.03 C 111.96 693.96 128.41 701.21 140.02 694.94 C 144.26 693.00 146.50 688.72 149.98 685.87 C 155.78 688.79 161.44 692.41 166.41 696.56 C 164.78 699.83 162.87 703.23 163.30 707.03 C 163.58 715.59 172.72 722.23 180.93 720.21 C 186.88 718.27 190.55 712.62 191.90 706.77 C 198.07 707.31 204.24 709.60 210.45 710.61 C 211.47 713.93 210.80 717.57 211.87 720.91 C 215.08 734.12 232.46 741.79 244.07 734.24 C 250.48 731.12 253.02 724.19 255.11 717.89 C 262.59 717.42 270.11 717.28 277.61 717.23 C 276.97 725.31 281.83 733.39 289.22 736.68 C 298.33 741.49 311.03 735.14 312.95 725.08 C 313.87 721.12 312.82 717.09 312.82 713.10 C 320.90 710.79 329.14 709.09 337.20 706.71 C 338.99 705.71 339.61 707.93 340.15 709.11 C 342.27 714.79 346.94 719.63 352.80 721.42 C 362.78 723.94 374.17 714.60 372.38 704.13 C 372.26 701.09 370.14 698.28 370.33 695.35 C 375.79 690.56 382.73 687.68 388.78 683.67 C 393.12 681.24 393.67 688.47 397.11 689.77 C 405.30 696.59 419.34 693.09 422.60 682.73 C 425.68 674.93 420.83 667.61 415.50 662.35 C 420.35 655.26 424.27 647.54 427.49 639.58 C 428.58 637.86 427.09 635.04 425.11 635.22 M 338.24 640.37 C 328.73 643.18 326.23 657.93 334.83 663.28 C 342.04 669.10 353.08 662.71 353.87 654.10 C 354.67 646.08 346.39 637.74 338.24 640.37 M 294.21 648.29 C 290.36 650.41 289.71 659.55 295.05 660.03 C 299.25 658.08 298.18 649.70 294.21 648.29 M 565.12 664.28 C 541.29 673.21 514.82 676.28 489.96 669.96 C 488.39 669.76 486.64 668.79 485.12 669.67 C 492.23 682.52 506.56 689.25 520.29 692.57 C 540.58 696.34 561.80 688.38 577.01 674.98 C 579.16 672.95 575.19 671.34 574.18 669.81 C 571.29 667.91 569.00 662.74 565.12 664.28 M 101.39 698.50 C 92.60 701.74 85.03 707.44 76.97 712.09 C 70.08 716.47 62.27 719.58 56.34 725.35 C 55.38 726.32 54.13 727.56 54.78 729.09 C 60.36 728.79 65.12 725.37 70.15 723.28 C 82.15 717.06 94.89 711.08 104.23 701.07 C 106.31 698.53 103.84 697.18 101.39 698.50 M 416.78 701.68 C 416.38 703.23 417.81 704.27 418.67 705.31 C 427.80 714.20 439.02 720.67 450.79 725.37 C 453.63 726.33 456.73 727.61 459.76 726.66 C 460.21 724.76 458.15 723.85 456.95 722.87 C 447.41 716.62 437.03 711.77 427.45 705.58 C 424.21 703.66 420.77 701.00 416.78 701.68 M 892.32 707.39 C 888.54 708.70 886.24 712.38 883.63 715.21 C 887.32 718.79 891.00 723.01 895.80 724.98 C 898.08 719.61 899.44 709.21 892.32 707.39 M 874.37 721.48 C 872.48 722.17 870.64 722.99 868.87 723.94 C 873.09 732.27 876.71 741.17 879.91 749.71 C 884.19 745.81 888.97 741.59 890.89 736.01 C 888.01 729.66 882.18 719.99 874.37 721.48 M 857.18 727.15 C 855.13 738.96 855.83 751.32 852.75 763.09 C 858.14 761.13 863.62 759.31 868.76 756.75 C 871.22 747.49 867.37 737.57 861.82 730.12 C 860.57 728.73 859.40 726.36 857.18 727.15 M 329.41 753.04 C 328.88 761.24 321.19 767.76 313.05 767.12 C 310.05 767.20 307.10 765.32 304.21 765.80 C 303.11 787.93 303.45 810.14 303.65 832.27 C 319.73 835.13 336.02 838.41 351.03 844.73 C 354.48 840.46 352.14 832.61 352.70 826.97 C 353.60 821.05 347.09 817.78 347.29 812.07 C 346.82 806.14 346.90 797.25 354.51 796.22 C 348.73 790.55 344.81 781.90 348.19 773.93 C 349.27 769.79 353.67 767.54 354.83 763.61 C 345.89 761.11 338.05 755.92 329.62 752.19 L 329.41 753.04 M 227.18 761.24 C 226.83 764.51 229.03 767.78 231.40 769.85 C 231.90 766.33 233.01 758.94 227.18 761.24 M 547.96 760.52 C 551.78 775.27 557.32 790.59 568.81 801.19 C 577.79 809.70 588.41 817.61 600.99 819.40 C 587.87 823.35 573.16 822.93 560.25 828.34 C 555.09 830.85 549.30 836.45 551.81 842.69 C 555.05 841.18 556.88 836.83 560.92 837.17 C 560.13 839.51 559.02 841.73 558.38 844.12 C 559.07 846.35 561.97 846.37 563.91 846.79 C 590.67 849.03 617.04 838.47 637.95 822.26 C 619.78 817.24 601.50 811.09 585.91 800.21 C 573.15 790.72 561.71 779.32 552.73 766.17 C 551.31 764.15 549.86 762.11 547.96 760.52 M 207.03 768.17 C 201.70 771.06 206.78 776.71 210.24 778.72 C 215.49 781.87 222.37 786.19 227.85 785.88 C 223.67 777.99 216.59 768.41 207.03 768.17 M 362.13 776.14 C 358.95 778.51 358.88 783.56 361.84 786.15 C 367.05 791.22 375.02 793.01 382.06 791.81 C 379.74 787.40 375.73 784.19 372.20 780.79 C 369.35 778.49 366.15 775.14 362.13 776.14 M 419.35 777.44 C 412.86 779.56 408.17 784.95 404.30 790.32 C 411.56 790.88 421.09 790.31 425.80 783.88 C 428.84 779.71 423.53 775.11 419.35 777.44 M 263.34 800.48 C 261.16 800.68 258.92 801.00 257.03 802.16 C 257.65 806.89 258.41 811.61 258.96 816.36 C 264.31 815.93 269.65 815.26 274.95 814.41 C 280.24 813.99 280.40 806.69 279.00 802.95 C 275.11 798.63 268.47 800.55 263.34 800.48 M 196.42 802.16 C 196.13 806.14 195.87 810.15 195.90 814.16 C 210.75 819.45 227.42 819.80 242.99 816.86 C 245.20 812.62 243.29 807.14 243.50 802.44 C 227.85 801.77 212.09 801.86 196.42 802.16 M 374.32 803.46 C 372.23 803.64 370.13 803.78 368.06 804.14 C 367.87 807.82 367.88 811.52 368.07 815.21 C 385.28 819.80 403.26 817.47 420.21 812.97 C 420.69 810.18 420.86 807.30 420.59 804.49 C 418.18 802.61 414.84 803.04 411.97 802.71 C 399.42 802.41 386.84 802.47 374.32 803.46 M 273.30 824.44 C 267.98 825.03 262.65 825.62 257.35 826.36 C 257.66 837.02 258.06 847.71 258.70 858.36 C 264.04 858.21 269.49 857.88 274.71 856.82 C 276.22 846.16 275.13 835.27 275.45 824.52 C 274.91 824.50 273.83 824.46 273.30 824.44 M 201.13 825.16 C 199.49 835.26 200.67 845.64 200.40 855.84 C 213.57 861.56 228.71 863.32 242.42 859.36 C 244.39 849.09 242.59 838.24 242.82 827.75 C 228.88 829.16 214.75 828.67 201.13 825.16 M 368.62 824.87 C 368.78 833.88 367.58 843.33 369.87 852.05 C 384.55 860.12 402.09 856.91 417.68 853.55 C 417.78 844.15 418.83 834.75 418.65 825.36 C 409.11 824.75 399.67 829.14 390.01 828.44 C 382.84 827.48 375.94 824.50 368.62 824.87 M 662.26 825.33 C 658.95 827.92 656.04 831.00 652.98 833.88 C 665.66 833.96 678.36 833.32 691.02 832.64 C 694.69 832.31 699.69 831.81 701.13 827.84 C 688.32 826.30 675.17 826.61 662.26 825.33 Z"/><path fill="#000000" opacity="1.00" d=" M 894.19 197.36 C 905.16 196.26 917.10 197.20 926.45 203.60 C 938.62 211.92 947.45 224.44 952.75 238.09 C 957.85 249.91 957.48 263.04 957.51 275.65 C 957.39 289.06 955.37 302.66 949.49 314.82 C 947.29 313.78 948.64 309.97 947.81 307.87 C 946.66 293.33 934.20 281.28 919.97 279.38 C 918.48 279.02 915.46 279.69 916.73 281.83 C 921.61 292.33 924.08 304.53 920.88 315.88 C 907.66 300.64 884.80 293.19 865.97 302.14 C 866.38 303.97 868.40 304.46 869.83 305.29 C 877.28 308.54 884.03 313.44 889.34 319.60 C 895.23 326.12 894.55 338.58 886.12 342.71 C 874.37 349.71 859.42 346.74 848.54 339.46 C 834.46 330.50 823.88 317.19 814.28 303.78 C 813.04 301.71 810.99 299.84 811.05 297.27 C 817.33 299.53 823.19 302.77 829.29 305.45 C 832.13 283.74 834.29 261.31 843.17 240.95 C 852.19 219.79 870.33 200.22 894.19 197.36 Z"/><path fill="#000000" opacity="1.00" d=" M 574.32 271.44 C 582.19 268.65 593.64 274.83 590.68 284.12 C 585.81 293.81 570.22 296.61 561.98 290.03 C 555.59 281.51 565.94 272.28 574.32 271.44 Z"/><path fill="#000000" opacity="1.00" d=" M 718.24 285.39 C 727.15 284.62 735.95 288.66 742.41 294.60 C 745.62 297.81 749.00 302.03 748.33 306.85 C 746.46 310.97 742.11 316.13 737.06 314.06 C 727.79 311.10 717.44 309.62 709.78 303.23 C 702.98 297.07 709.84 285.28 718.24 285.39 Z"/><path fill="#000000" opacity="1.00" d=" M 540.23 320.40 C 549.84 318.65 560.48 320.39 568.07 326.84 C 576.92 334.15 580.93 345.77 581.66 356.94 C 583.13 377.32 575.44 399.34 558.59 411.70 C 549.28 419.01 536.13 420.81 525.10 416.71 C 514.09 412.46 505.90 402.76 501.73 391.92 C 492.58 363.27 509.72 326.85 540.23 320.40 M 554.31 338.42 C 549.60 338.69 547.27 343.97 546.72 348.05 C 547.66 351.36 550.71 353.83 553.89 354.89 C 559.10 355.80 564.28 350.29 563.21 345.11 C 562.57 341.01 558.45 337.83 554.31 338.42 M 530.20 343.37 C 525.31 345.36 522.03 350.78 522.25 356.01 C 522.83 360.86 527.59 364.02 532.00 365.06 C 536.93 363.74 542.18 360.47 543.03 355.02 C 544.45 348.13 537.18 340.43 530.20 343.37 M 515.24 374.30 C 509.97 376.05 510.79 382.73 511.21 387.10 C 513.17 401.16 524.00 416.77 539.75 415.62 C 542.15 415.46 540.35 413.21 539.09 412.78 C 527.70 406.20 520.92 393.57 519.42 380.75 C 518.81 378.46 518.38 374.22 515.24 374.30 Z"/><path fill="#000000" opacity="1.00" d=" M 723.36 338.50 C 731.20 337.97 739.30 338.50 746.67 341.43 C 772.25 351.20 787.81 381.31 781.66 407.86 C 778.94 417.05 774.72 426.06 768.22 433.20 C 757.37 443.62 741.96 448.85 727.00 448.01 C 711.71 448.52 695.98 442.87 685.58 431.44 C 668.18 412.54 667.43 381.25 682.86 360.97 C 692.37 348.21 707.45 339.69 723.36 338.50 M 726.39 357.47 C 720.32 359.13 716.86 368.26 722.83 372.18 C 727.57 378.18 737.65 374.01 738.36 366.95 C 738.97 360.81 732.18 355.66 726.39 357.47 M 701.33 365.42 C 696.12 367.24 692.43 372.36 691.49 377.69 C 691.22 383.48 695.33 389.57 701.21 390.64 C 707.52 391.66 713.40 386.70 715.30 380.95 C 717.94 372.95 710.05 362.49 701.33 365.42 M 686.43 401.46 C 682.44 402.95 683.81 407.91 684.37 411.08 C 687.61 423.98 697.23 435.01 709.19 440.67 C 717.99 444.46 728.04 444.21 737.30 442.47 C 751.17 439.03 762.51 427.59 766.81 414.11 C 768.26 410.82 765.50 404.62 761.40 407.54 C 756.42 412.03 754.77 419.18 749.58 423.58 C 740.33 431.62 726.64 435.76 714.83 431.34 C 704.73 427.76 697.17 419.17 693.66 409.19 C 692.10 406.25 690.76 400.37 686.43 401.46 Z"/><path fill="#000000" opacity="1.00" d=" M 595.31 405.43 C 605.70 403.76 618.15 403.88 626.06 411.96 C 630.43 415.79 632.52 422.86 628.76 427.82 C 623.07 434.65 613.92 436.67 605.77 438.99 C 605.36 446.52 608.42 454.01 613.36 459.62 C 620.22 467.54 634.10 466.52 640.44 458.47 C 643.28 455.78 644.61 450.59 648.36 449.42 C 651.84 454.77 651.79 462.21 649.17 467.96 C 643.51 478.93 629.59 484.16 617.90 480.81 C 610.47 478.89 605.65 472.50 600.47 467.34 C 592.83 475.17 580.11 477.74 570.78 471.31 C 561.41 465.63 556.68 452.54 561.53 442.52 C 562.61 440.92 565.34 436.62 566.80 439.91 C 568.51 447.39 571.48 456.93 579.93 458.94 C 589.78 458.32 596.54 447.23 595.22 438.10 C 590.89 432.05 583.03 427.33 582.84 419.07 C 583.16 412.06 589.21 407.54 595.31 405.43 M 599.20 408.35 C 596.68 409.33 593.59 411.29 593.18 414.09 C 596.50 420.38 607.05 417.80 609.39 411.98 C 608.89 407.58 602.56 407.36 599.20 408.35 Z"/><path fill="#000000" opacity="1.00" d=" M 473.22 414.37 C 477.58 413.11 485.42 412.53 486.56 418.30 C 485.48 423.61 479.52 425.82 474.93 427.32 C 470.96 428.61 464.53 428.18 463.92 423.00 C 464.72 418.53 469.20 415.72 473.22 414.37 Z"/><path fill="#000000" opacity="1.00" d=" M 494.24 426.41 C 499.67 425.10 506.16 425.60 510.45 429.51 C 512.78 431.79 510.48 434.95 508.33 436.33 C 503.07 439.93 496.50 441.87 490.12 441.31 C 486.55 441.16 483.11 437.55 484.28 433.90 C 485.66 429.62 490.18 427.45 494.24 426.41 Z"/><path fill="#000000" opacity="1.00" d=" M 764.21 459.37 C 771.64 458.47 780.56 461.93 783.65 469.16 C 786.12 473.79 780.82 479.29 776.08 478.18 C 769.58 477.04 764.66 471.97 760.83 466.94 C 758.39 464.28 761.01 459.86 764.21 459.37 Z"/><path fill="#000000" opacity="1.00" d=" M 730.32 462.42 C 739.58 461.30 750.87 466.78 751.74 476.99 C 752.25 482.03 746.30 484.49 742.12 483.19 C 735.09 481.32 727.97 477.26 724.37 470.74 C 722.04 466.50 726.48 462.95 730.32 462.42 Z"/><path fill="#000000" opacity="1.00" d=" M 485.36 640.42 C 488.57 638.97 491.56 642.48 493.01 645.03 C 495.63 649.76 488.29 655.97 484.44 651.54 C 480.45 648.76 481.69 642.86 485.36 640.42 Z"/><path fill="#000000" opacity="1.00" d=" M 534.14 641.33 C 538.36 639.56 542.46 643.87 542.09 647.99 C 542.39 652.98 534.85 656.74 531.68 652.28 C 528.31 649.05 529.55 642.67 534.14 641.33 Z"/><path fill="#000000" opacity="1.00" d=" M 508.37 643.46 C 514.91 640.28 521.37 651.77 513.92 654.80 C 507.09 659.82 501.59 646.65 508.37 643.46 Z"/><path fill="#000000" opacity="1.00" d=" M 545.36 645.43 C 546.45 645.19 549.08 646.18 547.21 647.32 C 545.07 649.01 541.09 645.53 545.36 645.43 Z"/><path fill="#000000" opacity="1.00" d=" M 150.97 789.34 C 154.38 791.79 148.73 794.13 150.97 789.34 Z"/><path fill="#000000" opacity="1.00" d=" M 134.33 791.47 C 138.79 790.86 143.35 790.40 147.83 791.03 C 147.50 792.85 146.97 794.62 146.55 796.43 C 147.96 796.91 153.71 794.88 151.63 797.50 C 137.34 801.15 123.33 805.81 109.34 810.47 C 94.05 815.78 78.46 821.52 65.68 831.72 C 60.99 835.74 55.74 841.39 57.15 848.10 C 59.47 855.22 65.08 860.96 71.67 864.36 C 114.99 889.25 164.92 898.08 213.33 907.53 C 286.42 921.08 360.74 926.74 434.97 928.88 C 475.33 929.22 515.69 929.23 556.05 928.87 C 604.11 926.92 652.32 926.05 700.09 919.88 C 755.73 914.13 811.24 905.31 865.09 889.92 C 883.19 884.74 900.87 877.82 917.12 868.26 C 925.07 863.21 934.88 857.46 936.49 847.31 C 936.79 838.50 929.43 831.80 922.65 827.32 C 905.19 816.33 885.96 808.54 866.31 802.42 C 864.76 799.99 870.91 797.97 868.18 795.39 C 870.70 795.19 873.34 792.09 875.54 794.61 C 894.14 797.53 911.68 805.62 928.08 814.75 C 940.06 821.66 952.46 832.24 953.46 847.02 C 954.08 861.32 943.21 872.69 932.25 880.29 C 918.67 889.42 903.33 895.49 887.99 900.96 C 855.58 912.05 822.01 919.39 788.35 925.49 C 705.40 940.21 621.13 945.96 536.99 947.42 C 419.87 949.54 302.01 943.52 186.94 920.59 C 146.16 911.67 104.72 902.18 67.56 882.53 C 57.86 877.05 48.00 870.35 43.00 860.01 C 37.75 850.28 39.98 837.44 47.64 829.62 C 60.93 814.09 80.56 806.27 99.63 800.48 C 111.10 797.14 122.58 793.68 134.33 791.47 M 143.14 792.30 C 142.77 796.35 147.04 791.98 143.14 792.30 M 868.97 799.32 C 867.44 802.32 872.28 799.34 868.97 799.32 Z"/><path fill="#000000" opacity="1.00" d=" M 863.37 798.33 C 866.44 795.87 865.76 800.87 862.96 801.03 C 860.31 802.28 862.79 798.89 863.37 798.33 Z"/><path fill="#000000" opacity="1.00" d=" M 78.31 833.43 C 81.95 833.39 83.29 837.30 84.38 840.10 C 86.06 844.74 90.74 847.08 94.80 849.30 C 106.99 855.50 120.09 859.65 133.12 863.67 C 175.01 876.12 218.02 884.37 261.13 891.27 C 348.59 902.56 436.93 904.58 525.02 903.54 C 625.51 902.68 726.67 897.41 824.95 875.04 C 848.29 868.66 872.24 863.23 893.70 851.65 C 899.46 848.50 906.53 845.76 908.88 839.00 C 909.58 835.56 913.63 831.92 916.71 835.27 C 921.89 840.79 916.93 848.34 912.14 852.17 C 895.62 866.09 874.54 872.85 854.11 878.73 C 764.79 902.75 671.94 908.06 579.99 912.56 C 481.27 915.78 382.27 914.05 283.99 903.57 C 246.35 900.53 209.25 893.11 172.31 885.55 C 155.27 882.24 138.76 876.79 122.06 872.15 C 105.63 866.08 87.09 860.75 76.13 846.06 C 72.83 842.43 72.45 834.50 78.31 833.43 Z"/></g></svg>