<svg id="a" xmlns="http://www.w3.org/2000/svg" viewBox="0 0 100 100"><g transform="translate(1, 5.053112755768396) scale(0.22454918314506334) translate(-7.479999999999961, 0.17000000000008164)"><path d="M258.56,203.28c1.09,.49,2.4,.75,3.23,1.52,17.85,16.71,34.15,34.63,43.39,57.77,9.78,24.49,12.04,49.24,1.88,74.26-.07,.17-.06,.37-.17,1.09,5.83-2.65,10.91-5.81,14.98-10.4,11.15-12.56,13.97-27.04,8.92-42.85-2.16-6.76-5.31-13.24-8.36-19.68-6.31-13.31-8.75-26.93-4.14-41.27,5.71-17.8,18.15-29.51,35.07-36,27.56-10.57,53.62-7.17,76.69,11.77,9.7,7.96,13.86,18.89,12.11,31.66-.12,.9-.42,1.79-.97,2.62,0-3.06,.25-6.15-.04-9.19-1.16-11.78-7.75-20.04-17.56-25.94-20.07-12.08-41.04-12.01-62.33-3.86-13.19,5.05-24.12,13.21-30.66,26.05-7.31,14.35-7.03,28.81,1.12,42.85,5.08,8.75,9.99,17.51,11.93,27.64,5.22,27.35-10.14,55.97-35.26,65.06-4.08,1.48-8.5,1.99-12.74,3.03-1.06,.26-2.22,.64-3.02,1.33-14.55,12.45-31.38,19.91-50.17,23.28-6.26,1.12-12.39,2.91-18.61,4.24-2.31,.49-4.75,.9-7.09,.72-10.16-.78-19.49,2.76-29.05,5.19-10.89,2.77-21.81,5.43-33.11,5.94-1.12,.05-2.24,0-3.49,0-.1-1.18-.17-2.1-.24-2.85-5.77-1.31-11.41-2.6-17.11-3.9-.14-1.08-.24-1.88-.35-2.75-1.26-.59-2.54-1.18-4.14-1.93,3.41-14.3,14.98-17.76,27.69-20.76-3.13-1.61-5.48-2.82-7.82-4.03-25.05,5.73-49.89,12.67-75.97,11.03-.63-.04-1.24-.35-2-.57,.14-1.22,.26-2.32,.4-3.52-3.98-1.2-7.91-2.38-11.9-3.59,.23-2.19,.4-3.77,.59-5.49-1.14-.18-2.12-.34-3.23-.51,.55-2.39,1.06-4.62,1.57-6.86,2.41-6,7.64-8.83,13.53-10.52,12.76-3.67,25.46-2.15,38.09,.9,2.68,.65,5.32,1.43,8.8,2.36-12.26-11.12-20.46-23.73-20.44-40.1,.02-16.18,6.11-29.81,18.97-40.38-1.73-.47-3.39-.74-4.91-1.37-4.6-1.9-7.89-5.27-10.05-9.71-3.32-6.8-4.8-14.06-4.63-21.58,.18-8.24,9.67-17.77,17.88-17.43,3.58,.15,7.09,2.1,12.23,3.74,2.48-.51,5.9-2.66,8.68-6.7-10.2-4.48-19.4-10.25-27.45-17.74-8.07-7.52-15.64-15.4-17.99-27.16-6.56,4.15-12.06,8.83-16.73,14.51,3.09-5.91,8.07-10.06,13.07-14.28-11.7,5.23-23,11.08-33.08,19.1,4.88-5.31,10.73-9.4,16.95-12.92,6.24-3.53,12.64-6.78,19.29-10.32-3.3-.65-21.5,5.75-36.63,12.64-11.76,5.36-23.27,11.19-33.92,18.56,20.77-17,44.66-28.03,70.13-36.15l.21-3.6c-20.37,1.02-40.13,3.91-59.57,8.98,19.23-6.31,38.94-9.92,59.2-10.66-27.91-1.66-55.64-1.46-82.75,6.59,27.26-9.27,55.31-11.53,83.93-8.76l.44-1.22c-1.05-.77-2-1.8-3.17-2.26-9.11-3.61-18.23-7.23-27.43-10.61-6.95-2.55-14.04-4.76-20.99-7.33,17.79,4.55,35.19,10.28,52,17.82l.74-.81c-.52-.77-.86-1.86-1.58-2.26-20.85-11.39-42.55-20.5-66.29-23.77-5.7-.79-11.54-.6-17.03-.85,7.13-1.28,14.6-1.02,22.03,.07,22.19,3.26,43.02,10.51,62.5,21.63,.33,.19,.67,.34,1.34,.68,.72-1.55,1.41-3.04,2.17-4.66-7.5-12.57-13.22-25.86-17.09-39.93,2.63,6.29,5.07,12.67,7.96,18.83,2.89,6.15,6.23,12.09,9.68,18.7,3.41-6.06,6.37-11.33,9.34-16.61-.39-.5-.64-.91-.98-1.23-13.51-12.92-17.75-29.34-17.52-47.29,.26-19.59,7.01-36.73,20.72-50.83,8.25-8.48,18-14.63,29.9-16.79,21.02-3.83,38.56,9.39,40.54,30.7,.95,10.17-.58,19.97-5.3,29.1-.87,1.67-2.35,3.3-3.96,4.27-16.96,10.18-31.89,22.79-45.29,37.28-.58,.63-1.11,1.32-1.75,1.89-4.35,3.88-5.96,8.8-6,14.53-.02,3.02-.64,6.05-1.07,9.06-.12,.87-.52,1.7-.79,2.56l-.98,.53c-.92-1.18-1.69-2.54-2.79-3.52-2.98-2.67-5.73-2.19-7.7,1.2-.76,1.32-1.45,2.68-2.12,4.05-.58,1.19-1.09,2.43-1.84,4.13,2.15,3.27,4.42,6.73,6.69,10.19l-.44,.41c-2.14-2.39-4.28-4.79-6.75-7.55-.44,1.26-.79,2.25-1.26,3.6,1.92,1.52,3.81,3.02,5.71,4.53l-.21,.45c-1.95-.86-3.89-1.72-6.51-2.87,.17,2.32,.3,3.98,.41,5.54-.3,1.67-.61,3.39-.99,5.56l5.25-.27,.14,.33c-1.6,.65-3.2,1.3-4.8,1.95l.3,.91c2.07-.55,4.15-1.1,6.22-1.65l.23,.52-5.93,3.12c.66,15.19,22.64,35.91,36.59,36.94-2.33-3.43-4.56-6.69-6.78-9.96-8.92,.43-15.08-3.1-16.62-10.06,4.26,2.99,8.01,6.36,13.29,5.6,.78-.11,1.5-.6,2.73-1.11-.92-1.77-1.7-3.22-2.45-4.69-1.85-3.64-3.64-7.31-5.56-10.91-.51-.95-1.28-1.82-2.1-2.55-1.35-1.19-2.94-2.12-4.23-3.37-3.29-3.18-5.09-7.02-3.71-11.6,1.37-4.55,5.23-6.43,9.45-7.35,5.95-1.3,11.56-.08,16.65,3.24,4.84,3.16,7.15,7.88,6.14,12.22-1.05,4.48-5.67,8.04-11.34,8.57-1.95,.18-3.93,.03-6.4,.03,3.67,9.05,8.03,16.81,16.83,20.97,5.78,2.73,11.3,1.42,15.47-3.4,.36-.42,.73-.83,1.15-1.29,1.22,3.12,.13,4.78-6.75,10.41,.77,3.92,3.45,6.59,6.58,8.79,6.31,4.44,13.54,6.43,21.07,7.42,18.42,2.42,36.29,.6,53.25-7.43,3.09-1.46,5.97-3.35,8.93-5.08,.46-.27,.83-.7,1.5-1.29-21.23-13.47-43.3-24.64-66.76-33.06l.19-.73c1.07,.13,2.16,.18,3.21,.4,15.8,3.34,29.89,10.64,43.48,19.01,7.12,4.39,14.07,9.08,21.28,13.76,7.84-5.39,13.87-12.04,16.34-21.91-15.96-6.77-32.52-11-49.59-12.63-16.91-1.62-33.93-2.16-50.9-3.18l-.14-.71c1.38-.38,2.74-.88,4.15-1.11,13.36-2.17,26.75-1.91,40.14-.31,18.91,2.26,37.22,6.85,54.81,14.24,.59,.25,1.25,.32,2.2,.56,1.01-6.16,.63-12.03-1.18-18.67-6.37-.98-12.97-2.43-19.64-2.96-25.04-2-49.82,.81-74.49,4.82-1.69,.27-3.38,.52-5.08,.76-.16,.02-.35-.12-1.23-.44,16.46-6.31,33.12-7.67,49.88-8.2,16.78-.53,33.45,.55,50.49,5.04-1.74-4.33-3.18-8.21-4.84-11.99-4.39-9.98-8.15-20.14-8.93-31.14-1.26-17.8,3.83-33.87,13.5-48.63,7.27-11.1,16.67-19.81,29.16-24.73,23.02-9.06,50.96,1.95,62.2,24.45,3.86,7.74,6.32,15.89,6.96,25.09,2.1-28.61-16.22-51.64-44.4-55.53-26.63-3.67-48.29,5.63-64.6,26.94-6.48,8.47-9.35,18.47-9.99,29.04-.34,5.7-.12,11.43-.17,17.14-.01,1.09-.12,2.19-.54,3.34-3.74-3.93-5.03-8.79-5.29-13.89-.26-5.1-.06-10.21-.06-15.88-4.64-2.51-10.27-4.38-16.13-4.92-5.69-.52-11.46-.11-17.19-.58,11.67-5.86,23.31-3.6,35.2,.42,.62-1.36,1.14-2.55,1.69-3.71,11.11-23.29,28.73-38.56,54.36-43.68,26.01-5.2,52.16,6.29,64.83,28.2,13.08,22.63,10.16,52.71-6.8,72.76-14.78,17.47-33.63,26.5-56.31,27.25-6.09,.2-12.24-1.35-18.35-2.16-1.09-.14-2.14-.61-3.19-.93,.93,5.02,2.17,9.79,2.62,14.63,.44,4.79,.1,9.66,.1,14.93,4.48,2.72,9.49,5.76,14.49,8.8l-.34,.61c-4.92-2.7-9.83-5.41-15.18-8.35-2.58,8.82-6.58,16.32-12.18,22.94-3.17,2.84-6.35,5.69-9.63,8.63,0,.35-.03,.82,0,1.29,.05,.76,.12,1.52,.21,2.28,1.53,12.17-.47,23.75-6.11,34.61-8.61,16.58-25.28,24.72-43.66,21.47-9.24-1.64-17.64-5.44-25.33-10.69-5.96-4.07-12.22-6.95-19.59-6.92-1.52,0-3.05-.07-4.56-.28-4.73-.66-9.19-1.85-11.45-6.34-1.19-.72-2.14-1.29-3.13-1.89l.49-2.82c-.66-.28-1.3-.55-2.25-.94-2.29,5.56-4.63,10.86-6.69,16.28-9.54,25.05-8.46,49.35,6.27,72.17,11.3,17.5,27.28,28.91,47.63,33.98,5.53,1.38,11.04,2.86,16.56,4.3,1.26,.33,2.51,.69,3.76,1.04-1.19-1.7-2.54-2.9-3.85-4.13-6.65-6.21-11.31-13.64-13.12-22.61-2.59-12.9,.86-24.66,8.03-35.24,12.27-18.12,29.33-30.13,49.8-37.47,1.26-.45,2.55-.82,3.82-1.22-1.03,1.23-2.27,1.88-3.53,2.49-8.88,4.32-17.08,9.67-24.25,16.46-10.88,10.3-19.17,22.11-21.34,37.45-2.28,16.15,6.45,30.14,22.24,34.01,5.31,1.3,11.21,1.48,16.64,.74,16.27-2.21,29.48-10.57,40.12-22.74,18.12-20.73,22.6-44.93,16.68-71.32-3.58-15.99-11.74-29.8-21.2-42.99-4.53-6.31-8.42-13.07-12.6-19.62Zm43.6-59.53l.07,.58c4.96-2.07,10.22-3.63,14.83-6.3,16.66-9.64,25.84-24.64,29.26-43.26,1.73-9.43,1.22-18.83-3.22-27.62-3.68-7.28-9.61-11.45-17.86-10.94-4.28,.26-8.72,1.31-12.68,2.98-13.69,5.75-23.17,16.14-29.85,29.11-5.22,10.14-8.24,20.89-6.85,32.49,1.46,12.18,9.7,19.63,21.93,18.79,5.18-.36,10.24-2.58,15.34-3.97,.64-.18,1.25-.48,1.88-.73l.44,.84c-4.43,2.67-8.87,5.34-13.3,8.01ZM159.19,63.24c.08-.04,.61-.23,1.06-.53,.79-.52,1.6-1.05,2.3-1.68,8.43-7.6,12.25-17.3,12.39-28.45,.17-13.38-8.62-24.25-21.68-27.14-9.78-2.16-18.98,.13-27.03,5.41-21.42,14.04-34.19,33.55-35.14,59.71-.4,10.88,2.03,21.22,8.34,30.33,3.17,4.59,7.22,8.25,12.46,10.51,.59-.55,1.02-.91,1.4-1.32,7.39-7.8,14.79-15.61,22.16-23.43,.64-.68,1.26-1.47,1.61-2.33,5.61-14.02,9.31-28.4,7.63-43.69-.66-6.01-2.09-11.83-5.51-16.95-4.06-6.08-9.65-7.48-16.09-4.08-1.64,.87-3.2,1.91-4.88,2.92-.03-.39-.12-.62-.04-.72,.47-.6,.94-1.2,1.48-1.73,5.54-5.39,12.03-8.96,19.69-10.24,12.54-2.11,22.97,4.6,26.29,16.85,1.48,5.45,1.64,11.02,.18,16.39-1.87,6.84-4.39,13.5-6.6,20.18Zm-.63,178.64l.04,.66c-5.17,1.45-10.33,2.9-15.5,4.35l.19,1.14c2.04,0,4.13,.28,6.12-.05,8.88-1.44,17.48-1.97,25.73,2.99,9.85,5.92,20.58,7.85,32.11,6.63,15.59-1.65,27.8-11.61,31.63-26.76,1.16-4.57,1.85-9.23,1.07-13.35-8.43,2.14-16.52,4.74-24.81,6.12-5.64,.94-10.15,2.83-14.66,6.43-8.45,6.76-17.15,10.01-28.39,2-6.13-4.36-13.37-4.63-20.61-3.05-3.47,.76-6.74,2.01-9.22,4.73,4.33,.33,8.48,.65,12.62,.96l.04,1.15c-5.62,.28-10.91,1.42-15.25,4.98l.2,1.04h18.68Zm-83.15,128.19c7.69-3.67,15.71-5.54,23.96-6.63,4.8-.63,9.61-1.3,14.36-2.26,2.25-.45,5.37-1.16,5.17-3.93-.11-1.54-2.53-3.35-4.31-4.26-10.15-5.17-21.04-7.19-32.36-6.5-8.31,.51-15.39,3.77-20.99,10.75,4.01-2.03,7.5-4.18,11.26-5.6,3.68-1.39,7.63-2.03,11.47-3l.36,1.06c-7.37,3.12-15.08,5.83-18.39,14.23,8.95-3.98,17.03-10.14,27.33-10.57-7.39,4.05-15.12,7.62-17.84,16.69Zm80.37,22.42l.74,.89c10.47-3.08,20.97-6.08,31.39-9.32,2.53-.79,5.88-1.68,5.75-5.08-.12-3.18-3.41-3.8-5.85-4.65-11.98-4.18-24.11-4.05-36.24-.79-5.92,1.59-10.51,5.23-13.97,10.28-.37,.53-.56,1.18-.95,2.03,3.96-2.8,7.58-5.36,11.2-7.92l.56,.77c-1.51,1.68-3.13,3.28-4.5,5.07-1.35,1.76-2.46,3.7-3.68,5.57,9.85-8.85,17.73-13.45,23.46-12.94-3.29,2.16-6.67,4.08-9.7,6.44-4.51,3.52-6.07,6.26-5.95,9.39,7.53-4.48,13.98-10.73,22.99-13.58-5.37,4.88-10.31,9.37-15.25,13.86Zm-34.27-152.92l.43-1.02-10.05-5.67c1.78-.38,3.35-.12,4.93-.02,1.53,.1,3.07,.02,4.61,.02l.3-.73c-1.18-1.02-2.27-2.17-3.55-3.03-1.36-.92-2.9-1.56-4.37-2.33l.17-.69c2.41,.22,4.81,.44,7.37,.68-1.63-4.85-6.35-6.93-10.66-4.92-3.93,1.83-6.21,5.21-7.88,9.03-1.23,2.83-.94,5.57,.89,8.1,2.83,3.9,6.56,6.65,11.15,8,2.5,.74,5.22,1.09,8.15-1.46-3.49-2.4-6.73-4.63-10.44-7.19,3.4,.47,6.17,.85,8.95,1.23Zm-4.05,84.62c-2.87-9.28-4.87-18.2-4.17-27.37,.68-9,1.99-17.95,3.03-26.97-2.5,4.75-5.45,9.44-7.53,14.5-3.88,9.43-5.46,19.22-2.19,29.23,1.68,5.13,5.05,8.72,10.86,10.62Zm182.04,26.92c34.86-5.69,45.02-42.08,36.88-64.05,.11,.78,.15,1.25,.24,1.71,4.79,24.12-7.3,45.43-30.38,53.62-.75,.27-1.55,.8-1.99,1.44-1.57,2.24-3,4.58-4.74,7.28Zm-157.91-122.55c5.21-3.26,10.14-4.7,15.52-4.8,6.94-.13,13,2.33,18.8,5.85,6.18,3.76,14.09,1.87,18.05-4.39-16.48,.27-32.51-1.71-48.13-7.24-1.43,3.56-2.69,6.71-4.24,10.58Zm-20.32-80.92c-2.36,1.01-4.93,1.71-7.02,3.13-1.95,1.33-1.9,3.61-.6,5.6,2.92,4.49,12.27,6.43,16.76,3.52,2.76-1.79,3.24-4.48,1.15-7.03-2.58-3.14-6.05-4.43-10.3-5.23Zm200.06,98.37c-1.29-16.39,4.93-30.03,15.31-42.18-12.84,11.22-18.07,25.24-15.31,42.18Zm-192.97-19.62c2.43-1.55,4.34-2.76,6.24-3.97l-.43-.68c-2.15,.52-4.3,1.04-6.61,1.6,.16,.63,.35,1.33,.8,3.06Z"/><path d="M174.47,142.42c2.64-9.11,5.87-17.27,13.71-22.47,10.8-7.16,25.34-.92,28.73,12.21,1.02,3.95,1.5,7.97,.23,12.29-13.3-17.5-27.46-15.89-42.66-2.03Z"/><path d="M133.82,110.9c1.69-5.95,4.6-11.36,8.08-16.48,12.63-18.6,30.79-27.79,52.56-30.6,6.02-.78,12.14-.82,18.21-1.12,1.39-.07,2.79,.21,4.24,.58-35.45,2.46-63.56,17.47-83.1,47.62Z"/><path d="M211.63,198.38c-13-14.97-29.99-24.44-47.1-33.75l.42-.98c1.69,.32,3.56,.29,5.04,1.03,5.6,2.8,11.6,5.16,16.46,8.96,7.84,6.13,14.92,13.23,22.25,20,1.3,1.2,2.27,2.78,3.39,4.19l-.46,.55Z"/><path d="M219.54,95.39c-3.52-2.08-7.04-5.3-11.1-6.24-4.05-.95-8.62,.37-12.67,.68,1.63-3.68,7.82-6.49,12.9-5.36,5.72,1.27,11.04,6.93,10.86,10.93Z"/><path d="M92.32,140.38c-19.76-12.12-39.67-24.33-58.44-35.84,4.96,.46,52.6,29.13,58.44,35.84Z"/><path d="M185.67,202.37c-6.44-13.46-16.59-24.08-27.16-34.38l1.14-.87c12.43,8.88,19.87,21.57,26.02,35.25Z"/></g></svg>