<?xml version="1.0" encoding="UTF-8"?><svg id="a" xmlns="http://www.w3.org/2000/svg" viewBox="0 0 450 540"><path d="M218.19,529.28c-6.27,.69-11.49,1.66-16.73,1.74-9.33,.15-17.45-3.33-24.4-9.55-.72-.64-1.58-1.32-2.48-1.53-3.95-.94-6.64-3.42-8.47-6.84-1.28-2.4-2.36-4.94-3.21-7.53-.76-2.3-1.87-4.05-4.12-5.12-1.72-.82-3.29-1.94-4.66-2.77-6.27,1.75-12.16,3.84-18.22,5-22.15,4.26-44.37,5.37-66.59,.39-21.97-4.92-36.85-20.05-40.27-42.13-4.54-29.33,11.7-58.59,41.83-68.44,1.49-.49,3.08-.69,4.63-1.02l.35,.61c-.74,1.33-1.49,2.65-2.21,3.99-4.95,9.32-8.39,19.06-7.93,29.79,.28,6.57,1.78,12.86,5.74,18.28,4.6,6.3,11.17,9.28,18.66,10.28,6.19,.83,12.39,.6,18.52-.76,.51-.11,1-.34,1.58-.54-.93-4-2.07-7.85-2.7-11.77-5.05-31.44,1.3-60.04,21.45-85.16,.88-1.09,1.73-2.47,1.92-3.81,1.96-13.95,8.06-26.05,16.32-37.21,.22-.29,.42-.59,.4-1.16-3.51,2.98-7.02,5.96-10.7,9.08,.08-4.17,7.12-14.73,13.59-20.07,6.24-5.15,12.73-9.98,19.7-15.41-19.37-1.84-38.35-3-55.55-12.16l-.57,.42c.68,2.83,1.37,5.66,2.05,8.49l-.55,.4c-7.5-3.69-13.79-8.8-17.96-16.27-4.37-7.82-4.18-15.87-.75-24.06-3.04,.84-7.49,4.48-11.03,9.78-2.68,4.02-4.78,8.44-7.37,13.1-2.16-11.29-1.63-22.15,1.08-32.95,2.78-11.1,8.74-20.14,17.77-27.23l-.3-.64c-7.03,1.18-14.07,2.3-21.09,3.55-6.98,1.24-13.93,2.59-20.9,3.9l-.24-1.06c7.31-1.72,14.62-3.45,22.6-5.33-1.94-.26-3.24-.38-4.53-.61-19.25-3.51-33.61-14.49-44.88-29.88-7.98-10.9-11.91-23.55-14.43-36.65-3.99-20.73-2.97-41.27,3.15-61.46,4.2-13.86,10.68-26.63,20.48-37.42,13.07-14.4,29.36-22.09,48.95-21.79,14.7,.23,27.85,5.51,39.74,13.87,17,11.95,30.4,27.21,40.72,45.21,.22,.39,.47,.77,.89,1.46,9.93-7.25,21.38-10.23,33.18-12.36-4.4-.76-8.67-.2-12.76,1.21-4.02,1.38-7.89,3.19-12.26,5,1.95-9.33,7.08-16.27,14.07-21.94,7.13-5.78,15.28-8.7,24.66-7.77l.12-.61c-4.83-3.16-9.65-6.32-14.49-9.48,4.01-5.29,23.61-7.98,32.99-4.53,11.64,4.28,17.76,13.72,22.26,24.65,.5-10.9-5.84-19.22-10.05-28.37,4.41,2.04,7.28,5.64,9.67,9.52,2.48,4.02,4.88,8.2,6.46,12.62,1.53,4.28,1.96,8.96,2.87,13.42,4.89-1.92,7.78-7.6,7.05-14.02-.9-7.99-4.18-15.07-8.1-21.93-.32-.55-.66-1.1-.96-1.66-.08-.15-.05-.35-.07-.53,2.52,.19,6.03,2.7,9.07,7.38,2.21,3.41,4.14,7.12,5.51,10.94,1.37,3.82,1.89,7.95,2.89,12.43,1.42-3.76,3.93-6.6,2.63-11-2.07-6.99-2.51-14.22-.33-21.33,1.74-5.68,5.04-10.3,10.11-13.52,1.11-.71,2.39-1.14,3.6-1.7l.42,.49c-2.31,3.48-4.61,6.96-7.21,10.88,2.82-.9,4.98-1.86,7.25-2.28,7.55-1.4,14.53,.76,21.09,4.18,17.17,8.96,28.48,23.01,35.02,41.09,5.06,14,5.96,28.5,5.28,43.2-.87,18.79-8.61,34.47-21.61,47.77-.32,.32-.6,.69-.88,1.01-.93,7.84,.15,14.94,6.59,20.39,6.47,5.48,12.84,11.06,19.37,16.7,24.44-13.08,50.16-21.43,77.93-22.57-13.04,1.99-25.83,5.08-38.35,9.32-12.54,4.25-24.78,9.14-36.22,16.09,2.49,3.44,4.82,6.67,7.36,10.17,3.59-.28,7.45-.59,11.31-.9l.14,.66c-3.52,.94-7.04,1.89-10.64,2.85,.8,4.02,1.54,7.73,2.35,11.8,16.79-.98,33.27-.14,49.15,5.7-16.01-2.65-32.08-3.89-48.63-2.33-1.01,8.38-3.35,16.22-8.24,23.06l-.73-.07c0-1.19-.04-2.39,0-3.58,.08-2.1,.37-4.2,.27-6.28-.19-3.83-2.01-5.78-6.12-6.78-.17,.78-.44,1.55-.51,2.34-.77,9.42-5.14,16.95-11.97,23.28-11.07,10.25-24.15,16.56-38.69,20.08-1.31,.32-2.6,.71-4.26,1.17,1.33,2.39,2.5,4.51,3.7,6.67,9.56,.08,17.73,4.14,26.05,8.53,2.69-1.56,4.88-.02,7.13,1.5,1.97,1.32,4.02,2.53,6.07,3.72,4.44,2.59,8.98,2.74,13.6,.48,1.06-.52,2.16-.96,3.37-1.48,1.92,.78,3.85,1.56,5.75,2.33,2.73-1.42,5.3-2.99,8.05-4.15,6.83-2.89,9.86-2.39,15.88,2.4,8.6-.88,15.25,1.9,17.62,11.4,10.7,5.35,14.8,14.38,13.12,25.8-1.55,10.53-10.17,17.89-23.52,21.21-.24,.47-.61,1.01-.78,1.6-1.75,5.9-5.76,9.51-11.37,11.72-2.94,1.16-5.63,2.94-8.54,4.17-1.72,.72-3.66,.92-5.2,1.28-4.83,4.61-9.32,9.42-14.36,13.56-5.1,4.19-11.24,6.68-18.22,8.44,12.98,9.89,17.5,23.18,17.9,38.69-1.36-.22-2.31-.38-3.74-.61-1.06,10.63-3.98,20.68-9.62,30.55,1.49-.36,2.27-.46,2.99-.73,20.01-7.28,36.66-1.41,51.05,13.09,2.24,2.26,4.41,4.66,6.23,7.26,3.4,4.85,2.9,10.46-1.1,14.82-3.31,3.61-7.49,5.75-12.27,6.76-.88,.19-1.87,.33-2.58,.81-9.03,6.17-19.04,6.8-29.18,4.4-15.32-3.63-30.82-4.6-46.46-4.79-5.54-.07-11.15-.48-16.59-1.49-3.46-.64-6.66-2.65-10.76-4.37-9.59,4.21-20.52,6.92-32.58,8.06,6.07,6.03,11.47,11.81,12.17,20.31-1.7,2.85-4.55,3.65-7.48,3.84-3.45,.23-6.92,0-10.38,.04-1.07,.01-2.26-.02-3.17,.43-10.45,5.16-20.59,4.86-29.66-1.06Zm49.78-210.36l-.1-.65c.57-.21,1.12-.47,1.7-.61,2.39-.59,4.85-.97,7.17-1.76,2.92-1,5.87-2.07,8.52-3.61,2.97-1.72,3.78-5.33,1.88-7.52-3.89-4.5-8.59-7.79-14.82-7.66-3.63,.08-7.28,.52-10.87,1.13-11.36,1.91-21.49,6.31-29.45,14.98-1.79,1.94-3.77,3.72-5.8,5.43-14.23,12-30.32,17.6-49.01,14.05-.77-.15-1.51-.44-2.26-.66l.13-.63c2.4-.37,4.79-.74,7.35-1.13,.3-8.22,4.1-14.26,11.02-19.14-1.14,3.27-2.23,5.93-3,8.68-.77,2.75-1.5,5.57-.63,9.07,5.27-1.97,10.35-3.69,15.3-5.74,13.68-5.68,23.94-16.59,36.67-24,.41-10.51,6.41-15.99,16.48-17.82-8.62-1.97-16.11-5.66-22.35-11.94,20.79,10.73,40.77,11.84,59.66-4.32-1.2,1.96-2.49,3.69-4.02,5.16-5,4.8-11.21,7.4-17.7,9.47-1.77,.56-3.41,1.55-5.33,2.44,6.46,2.13,12.31,4.05,17.99,5.93,5.61-2.12,11.34-4.29,17.33-6.57-1.38-2.08-2.67-4.04-3.93-5.94l-2.23-.14-.23-.52c1.38-.98,2.68-2.13,4.16-2.9,7.12-3.72,14.27-7.37,21.45-10.98,7.15-3.59,13.75-7.94,19.51-13.51,6.68-6.46,11.51-14.07,14.48-22.83-.57-.72-1.03-1.3-1.97-2.47,4.3-1.33,8.16-2.52,12.66-3.92-1.17-3.31-2.35-6.65-3.65-10.35-9.04,2.09-17.61,4.08-26.19,6.07-.08-.32-.17-.64-.25-.96,6.86-5.39,15.55-5.8,24.06-8.16-2.04-2.59-3.81-4.83-5.64-7.15-6.1,3.55-11.53,7.63-17.91,10.06,4.18-5.38,9.55-9.35,15.24-13.2-4.13-3.71-7.95-7.23-11.87-10.64-5.24-4.56-8.35-10.3-9.67-17.06-.47-2.42-.84-4.85-1.25-7.28-1.98-11.88-3.76-23.78-7.68-35.25-4.99-14.56-12.57-27.29-24.65-37.11-10.28-8.36-21.53-12.97-35-9.56-.48,.12-1.02,.02-2.07,.02,3.71-4.84,7.14-9.31,10.57-13.77l-.53-.49c-6.01,5.07-12.03,10.14-18.62,15.7,.53-6.16,2.77-11.75-.08-17.04-2.58-4.8-5.19-9.63-8.32-14.07-3.25-4.6-7.81-7.89-13.01-10.19-5.18-2.3-10.6-2.59-16.71-2.12,8.35,4.98,15,10.68,18.34,19.59-15.32-3.38-29.34-2.77-41.73,7.36,6.64-1.23,13.23-1.5,19.72,.62,6.27,2.05,12.36,4.49,17.77,8.47-6.73,.53-13.42-1.67-20.04,.04l-.11,.64c5.21,2.12,10.42,4.24,15.62,6.35l-.25,.69c-.24,.07-.48,.22-.71,.19-1.18-.11-2.37-.2-3.53-.42-12.02-2.27-23.95-2.48-35.71,1.45-4.93,1.65-9.78,3.56-14.75,5.09-3.36,1.03-6.85,1.6-10.29,2.38-.26-.69-.44-.78-.53-.93-.52-.86-1-1.74-1.52-2.6-8.88-14.89-19.05-28.76-31.99-40.44-19.68-17.76-48.25-20.76-70.05-7.1-12.22,7.65-20.33,18.78-25.24,32.16-9.41,25.66-8.99,51.73-.94,77.44,11.39,36.42,43.82,51.18,72.24,50.41,4.74-.13,9.4-.99,13.98-3.13,1.66-6.33,3.33-12.67,4.99-19.01l-.93-.37c-1.7,3-3.39,6-5.09,9l-.57-.17c.15-2.66,.3-5.32,.47-8.21-4.64,1.42-7.84,4.41-11.19,8.21-1.79-9.74,.21-18.04,4.82-26.57-1.66,.67-2.64,1.04-3.61,1.46-3.26,1.42-6.49,2.91-9.79,4.25-3.19,1.3-6.17,.53-9.02-.88l-.09-.7,5.79-2.18c-1.15-.99-1.92-1.65-3.04-2.61,2.09-.24,3.65-.43,5.02-.59-3.5-3-7.22-5.67-10.28-8.94-3.54-3.79-5.36-9.55-4.73-12.44,2.05,2.8,3.97,5.67,6.15,8.33,4.5,5.5,10.11,8.61,17.48,7.48,1.89-.29,3.81-.49,5.65-.97,7.94-2.08,15.85-4.27,23.79-6.37,.93-.24,1.94-.16,2.91-.23l.11,.61c-.73,.52-1.44,1.06-2.19,1.54-3.85,2.45-7.57,5.17-11.62,7.23-4.72,2.4-7.52,6.15-9.4,10.86-.81,2.04-1.71,4.04-2.57,6.07,6.62-2.86,12.2-7.37,19.96-7.86,.97,10.77-3.07,19.78-7.57,29.06,3.33-2.02,6.26-3.8,9.2-5.58l.49,.74c-3.18,6.84-10.01,10.24-15.5,15.69,1.65-.21,2.72-.31,3.77-.49,15.19-2.65,30.44-3.5,45.79-1.54,13.59,1.73,26.64,5.32,39.09,11.03,.96,.44,1.81,1.15,2.71,1.73l-.32,.59c-2.26-.62-4.53-1.22-6.79-1.87-17.19-4.95-34.69-8.2-52.61-7.89-11.57,.2-23.12,1.38-34.67,2.24-1.06,.08-2.32,.76-3.04,1.56-2.79,3.13-5.4,6.42-8.04,9.67-.27,.34-.32,.86-.61,1.69,5.29-2.11,9.99-4.67,15.52-4.7-11.32,10.28-23.78,19.41-30.05,34.01,6.81-7.26,15.24-11.15,25.28-12.47-7.94,8.81-9.64,18.25-3.94,28.82,2.71-2.65,5.2-5.08,7.74-7.56,10.29,11.56,23.22,17.49,37.25,20.7,12.24,2.8,24.75,4.54,37.21,6.21,14.55,1.96,29.18,3.33,43.78,4.97,.61,.07,1.19,.32,1.79,.49l-.08,.77c-4.88,.37-9.76,.99-14.65,1.07-10.04,.18-20.09,.07-30.13,.12-1.17,0-2.41,.02-3.49,.4-10.46,3.68-19.97,9.01-27.96,16.77-3.16,3.06-5.94,6.5-8.9,9.76l.49,.47c1.96-.99,3.92-1.97,5.87-2.96l.45,.7c-1.2,1.7-2.4,3.4-3.59,5.11-6.74,9.67-10.95,20.2-10.61,32.19,.37,12.98,6.87,20.87,19.53,23.91,14.38,3.46,28.59,2.55,42.74-1.43,12.3-3.46,23.61-8.75,33.2-17.32,2.62-2.34,4.99-4.97,7.45-7.43-.99-1.23-1.78-2.22-2.82-3.52,3.24,.38,5.91,1.2,8.43,.88,6.05-.75,12.09-1.75,18.02-3.16,7.39-1.76,13.67-5.57,18.24-11.82,2.82-3.85,4.68-8.06,4.18-12.98-.17-1.74-.58-3.39-2.34-4.41-6.37,3.76-13.27,4.29-20.34,3.84Zm-66.56,187.94l.5-.67c2.04,1.21,4.32,2.14,6.06,3.68,4.37,3.86,8.53,7.97,12.71,12.04,2.51,2.44,5.37,4.25,8.9,4.32,3.81,.08,7.64-.16,11.45-.43,1.31-.09,2.58-.71,3.95-1.12-2.17-7.32-8.4-10.99-12.85-16.15,8.16,2.37,14.86,6.57,18.56,14.45,3.89,1.02,10.21,.51,13.12-1.14-.44-.94-.67-2.13-1.38-2.82-3.19-3.09-6.14-6.67-9.88-8.9-8.06-4.79-16.45-9.06-24.88-13.18-11.69-5.71-24.1-7.62-37.04-6.07-2.27,.27-4.57,.27-6.85,.39l-.06-.87c11.11-5.1,22.56-7.6,34.94-3.83,4.35-13.53,3.35-26.97,2.43-40.45-.93-13.65-5.27-26.31-10.76-38.8,1.5,.93,2.59,2.08,3.56,3.31,1,1.27,1.89,2.62,2.82,3.94-.79-5.74-3.59-10.25-7.67-13.97-6.39-5.81-13.89-9.7-22.04-12.36-1.25-.41-2.69-.39-4.02-.32-7.19,.37-14.37,1.08-21.57,1.14-5.96,.05-11.78-1.32-17.28-3.74-4.95-2.17-8.75-5.56-10.82-10.68-.26-.63-.68-1.19-1.22-2.1-5.97,7.78-10.34,15.85-11.48,25.44,3.26-3.61,6.34-7.33,11.21-9.14-9.12,15.39-14.14,31.59-10.83,49.48,3.23,17.43,10.83,32.44,24.94,43.63-6.36-15.34-8.26-23.01-6.21-26.93,.9,1.41,1.72,2.7,2.53,3.98,3.42,5.4,6.6,10.96,10.3,16.15,6.9,9.68,14.84,18.31,25.99,23.31,.29,.13,.51,.44,1.21,1.07-3.6,.97-6.76,1.82-10.32,2.77,1.04,3.44,1.99,6.57,2.93,9.71l.74-.08c1.22-1.72,2.44-3.44,3.91-5.52,.93,1.53,1.55,2.62,2.23,3.67,5.9,9.13,14.33,13.82,25.17,13.99,2.06,.03,4.13-.73,6.31-1.16-.88-7.14-5.86-11.17-9.29-16.08Zm83.87-28.9l.57,.68c-7.78,8.52-17.8,14-27.75,19.65,1.4,0,2.73-.18,4.05-.35,17.25-2.2,32.48-8.86,45.37-20.61,13.79-12.56,21.63-27.99,21.26-46.84-.29-14.89-3.65-29.29-8.99-43.21-.25-.66-.68-1.26-1.09-2.01-1.25,.29-2.4,.53-3.54,.82-13.11,3.24-26.22,6.45-39.31,9.77-3.42,.87-6.41,.58-9.26-1.67-6.45-5.08-13.06-9.96-19.45-15.11-4.25-3.42-8.23-7.17-12.53-10.95-11.18,7.6-23.03,13.8-36.41,17.01,14.47,4.96,21.97,16.09,26.63,29.51,7.38,21.27,8.31,42.85,2.07,64.6-.9,3.14-1.93,6.25-2.97,9.62,4.23,2.03,8.27,4.12,12.45,5.89,1.38,.59,3.27,.87,4.64,.42,9.09-2.98,18.18-5.99,27.11-9.41,5.85-2.24,11.43-5.2,17.13-7.83Zm48.79-332.85c.54-.72,.88-1.13,1.18-1.58,1.19-1.73,2.53-3.37,3.51-5.21,16.06-30.22,15.88-60.28-1.51-89.84-5.85-9.95-13.82-18.15-24.24-23.56-4.75-2.47-9.76-4.08-15.25-3.5-5.72,.6-8.88,3.32-9.68,8.99-.45,3.22-.75,6.6-.32,9.79,2.09,15.58,7.39,29.99,17.81,41.96,11.01,12.66,17.95,27.4,23.12,43.1,2.08,6.3,3.49,12.82,5.37,19.86Zm-7.87,166.95l-.62,.38c-3.66-2.72-6.67-6.07-6.79-10.86-.15-5.92,4.33-8.59,9.12-10.89-8.11-4.52-16.22-6.81-25.12-3.55-4.02,1.47-8.1,2.8-12.14,4.23-.84,.3-1.61,.79-2.37,1.17-.45,2.03-.87,3.87-1.28,5.73,1.74,1.31,3.33,2.51,4.87,3.67,10.95-4.2,21.39,.1,22.79,9.87-1.03-.96-1.7-1.61-2.39-2.24-1.75-1.59-3.35-3.41-5.29-4.72-4.2-2.85-9.95-2.33-13.77,1.06-.17,2.7-.49,5.35,1.36,7.98,1.72,2.42,2.34,5.53,1.3,8.4-1.38,3.83-3,7.62-4.99,11.15-1.63,2.9-3.97,5.4-6.32,8.51,2.39,.6,4.45,1.22,6.55,1.62,4.61,.89,6.75-.36,8.52-4.75,.39-.96,.82-1.89,1.33-3.09,2.78,5.49-.73,11.97-6.3,11.74-4.57-.19-9.11-1.33-14.14-2.13-5.08,1.62-10.82,3.45-16.98,5.42,5.41,4.92,10.52,9.58,15.74,14.34,3.77-.9,7.42-1.7,11.02-2.65,13.32-3.5,26.64-7,39.92-10.62,1.3-.35,2.78-1.23,3.49-2.32,1.54-2.34,2.61-4.98,3.92-7.47,4.16-7.95,13.3-8.68,18.79-1.64,1.34,1.72,3.23,3.01,4.57,4.23,11.4-3.25,22.11-6.31,32.82-9.36l.14-.93c-3.33-1.75-6.65-3.51-10-5.24-2.83-1.46-5.83-2.64-8.47-4.38-3.72-2.46-4.5-5.24-3.07-9.5,.57-1.7,1.47-3.3,2.03-4.53-1.7-3.02-3.86-5.68-4.72-8.71-.81-2.85-2.37-4.07-5.08-5.03-11.2,7.32-20.06,1.85-28.6-6.04-3.16,1.35-6.41,2.55-9.49,4.1-2.97,1.49-4.46,4.14-3.9,7.47,.37,2.21,1.26,4.34,2.03,6.47,.38,1.08,.99,2.07,1.5,3.11Zm-28.58,183.32c.89,.18,1.4,.35,1.92,.38,7.47,.36,14.95,.59,22.4,1.09,11.46,.77,22.91,1.71,34.36,2.63,6.81,.54,13.6,1.42,20.41,1.67,4.09,.15,7.07-2.3,8.61-6.11,1.5-3.72-.47-6.56-2.91-9.05-3.6-3.67-8.1-5.85-12.92-7.45-.71-.24-1.39-.56-2.52-1.02,4.23-.91,10.16,.28,14.91,2.97,6.64,3.76,11.2,8.96,10.82,17.52,2.3-.67,4.09-1.02,5.76-1.69,6.9-2.78,8.14-8.66,3.04-14.06-.5-.53-1.02-1.05-1.59-1.5-5.67-4.47-12.01-7.58-19.02-9.33-1.28-.32-2.6-.49-3.9-.74l.04-.8c3.65-.22,7.29-.43,10.94-.65-.69-.64-1.46-1.1-2.29-1.25-5.19-.96-10.36-2.24-15.6-2.69-11.53-.98-22.4,2.34-33.18,5.89-.94,.31-1.92,.5-3.13,.81,16.2-15.88,20.97-34.38,15.45-55.75l.56-.42c2.15,2.61,4.31,5.22,6.66,8.07-1.15-6.16-3.69-11.35-7.12-16.15-4.57-6.39-10.55-11.35-16.7-16.08-1.1-.85-2.7-1.06-4.76-1.83,14.25,42.55,5.85,77.86-30.22,105.55Zm-230.51-93.75c.1-.05-.2,.08-.48,.25-8.26,5.07-15.49,11.28-21.09,19.25-5.21,7.4-8.52,15.47-8.63,24.67-.13,10.7,2.06,20.72,8.88,29.26,6.47,8.11,15.22,12.74,25.1,15.16,21.68,5.3,43.27,3.83,64.76-1.37,.25-.06,.48-.2,1.29-.54-11.33-7.49-19.45-16.87-23.66-29.19-1.58,.19-2.57,.27-3.55,.42-11.07,1.69-22,1.59-32.65-2.42-8.79-3.31-14.3-9.52-16.65-18.56-1.95-7.51-1.99-15.07,.48-22.41,1.69-5.03,4.16-9.81,6.2-14.51Zm204.92-10.47c1.51-.18,2.49-.2,3.42-.43,8.86-2.16,17.73-4.3,26.56-6.59,1.7-.44,3.36-1.36,4.83-2.36,5.04-3.43,10.45-5.09,16.57-4.14,.97,.15,2.02,.18,2.97-.04,11.19-2.63,22.37-5.3,33.54-8.01,.94-.23,1.94-.69,2.65-1.33,5.67-5.12,12.03-6.58,19.48-3.73,2.89-1.13,5.92-2.39,9.01-3.49,2.5-.89,3.9-2.51,4.2-5.16,.51-4.62,1.12-9.23,1.61-13.85,.15-1.39,.02-2.81,.02-4.37-11.96,3.2-23.45,6.27-35.05,9.37-1.11,5.1-2.33,6.54-6.05,6.63,.16-1,.33-1.95,.45-2.9,.53-4.24-2.45-9.38-6.16-10.65-3.68-1.27-7.72,.75-10.07,5.12-.78,1.44-1.6,2.93-1.95,4.5-.67,2.98-1.01,6.03-1.56,9.57-1.5-1.82-2.84-3.46-4.36-5.3-1.86,.7-3.88,1.51-5.93,2.2-14.2,4.8-28.7,8.43-43.34,11.62-3.38,.74-6.35,.52-9.12-1.39-5.49-3.77-10.9-7.64-16.34-11.48-.72-.51-1.4-1.09-2.13-1.66-1.53,.78-2.86,1.46-4.57,2.33,5.34,4.39,10.32,8.49,15.31,12.59l-.46,.69c-.7-.06-1.44,0-2.1-.19-6.32-1.91-11.52-5.78-16.76-9.87-2.31,1.81-4.5,3.52-6.77,5.3,8.95,9.63,20.49,16.08,28.51,26.46-.27-8.08,1.04-15.16,8.47-19.35,.32,.12,.64,.25,.96,.37-1.89,6.31-3.77,12.62-5.84,19.55Zm124.37-65.37c-2.75-3.06-5.02-5.12-6.69-7.58-1.69-2.48-2.79-5.36-4.2-8.17-2.87,2.12-6.1,2.35-9.56,.94-.75,3.69-.65,6.97,1.75,9.6,3.86,4.22,8.64,5.9,14.62,4.02,.25,3.29,1.53,5.74,4.68,7.6-.26-2.78-.47-5.1-.59-6.43Zm-145.58-29.91c12.06-2.56,23.46-5.98,34.67,1,.03-3.61-1.43-5.45-4.26-6.16-6.89-1.73-13.75-3.59-20.7-5.03-3.72-.77-6.06,.77-7.66,4.26-.78,1.71-1.25,3.57-2.05,5.93Zm75.6,87.88l-.05,.74c3.95,2.54,8.39,3.62,12.95,2.58,4.5-1.03,8.93-2.6,13.18-4.41,3.56-1.51,6.6-3.97,9.02-7.75-12.02,3.03-23.56,5.93-35.11,8.84Zm75.82-55.71c2.9,1.86,5.66,2.42,8.51,.35,3.94-2.85,4.88-6.86,4.21-11.36-.42-2.86-2.22-4.64-5.16-5.54-4.4,4.67-8.66,9.25-7.56,16.55Zm-7.26-28.93c0,2.89-.27,5.55,.09,8.12,.27,1.89,1.12,3.82,2.19,5.42,.55,.83,2.2,1.42,3.26,1.31,3.61-.36,7.21-5.12,6.68-8.42-.69-4.25-5.85-8.27-9.64-7.47-.76,.16-1.47,.58-2.58,1.04Zm-11.97,7.78c2.66,.06,5.1-.46,6.21-3.12,1.19-2.87,.89-5.75-1.04-8.28-1.31-1.72-3.17-2.37-5.1-1.4-2.27,1.13-4.48,2.45-6.48,3.99-1.84,1.41-1.91,3.39-.58,5.35,1.68,2.48,4.1,3.52,7,3.46Zm26.2,33.49c7.28,.64,11.96-8.36,9.09-14.66-2.24,2.84-4.79,5.77-6.95,8.96-1.04,1.53-1.36,3.55-2.13,5.7ZM286.07,58.72c-2.13,2.83-3.87,5.15-5.91,7.87h10.73c-1.67-2.73-3.06-4.99-4.82-7.87Z"/><path d="M219.82,232.64c-7.99,1.39-12.47,.66-16.33-2.9,5.04,1.02,9.56,.93,13.84-.81,4.09-1.66,8.05-3.64,12.07-5.48l.41,.44c-1.52,1.71-3.03,3.42-4.77,5.39,.89,.93,1.74,1.97,2.74,2.82,11.92,10.13,25.6,15.74,41.37,15.37,8.75-.21,17.16-2.3,25.04-6.24,5.44-2.72,9.37-6.84,11.47-12.95-.78,.05-1.36,.05-1.93,.12-17.68,2.28-27.5-9.53-29.97-22.96-.73-3.95,.22-5.6,3.73-7.63,5.13-2.97,10.75-4.49,16.5-5.61,.62-.12,1.25-.22,1.86-.4,.24-.07,.42-.32,.63-.49-5.82-18.53-6.02-37.02-.59-55.51l.74-.12,.81,.96c3.84-1.36,7.47-2.65,11.09-3.93l.61,.97c-4.8,2.7-9.77,5.24-11.06,11.65,1.21-.93,2.15-1.67,3.11-2.38,6.05-4.47,11.64-4.03,16.88,1.38,4.17,4.3,6.63,9.6,8.31,15.24,3.34,11.21,4.89,22.62,3.1,34.72,1.22-.68,2.17-1.22,3.19-1.78-.16,3.27-2.13,5.18-7.48,7.43,2.63,7.6-.26,13.9-5.24,19.24-3.17,3.41-7.27,5.95-11.16,9.06-2.98,4.14-6.21,8.61-9.65,13.39,1.89-.15,3.87-.04,5.72-.49,15.63-3.8,24.56-14.17,28.41-29.39,.48-1.89,.72-3.85,1.32-5.76,2.1,3.22,2.27,6.76,1.38,10.18-3.7,14.17-12.67,23.28-26.82,27.23-.96,.27-1.95,.46-3.22,.75-1.05,1.82-2.17,3.79-3.32,5.75-2.82,4.83-5.87,9.49-10.22,13.1-12.32,10.24-26.17,10.92-39.99,2.19-8.69-5.49-15.55-12.93-22.26-20.54-3.5-3.96-6.9-8-10.35-12.02Zm105.36-35.26c.63-1.84,1.25-3.07,1.46-4.36,1.65-10.39,.78-20.57-3.25-30.32-2.13-5.16-5.54-9.41-10.59-12.13-3.64-1.96-7.18-1.94-10.5,.62-2.45,1.89-3.94,4.44-4.89,7.61,.64-.05,1.08-.04,1.49-.13,7.02-1.54,12.94,.98,16.42,7.24,3.43,6.16,4.68,12.82,3.53,19.8-.44,2.64-1.38,5.2-2.12,7.87l8.46,3.8Zm-10.23,5.52c-4.65-4.85-26.86-3.62-30.95,1.93,2.72,3.37,6.75,3.4,10.47,3.66,10.18,.71,18.45-1.64,20.48-5.59Zm-68.82,52.57c6.07,5.41,12.34,9.93,20.55,11.82-4.2-7.42-14.75-14.01-20.55-11.82Zm61.3-92.34c-2.68,3.78-2.29,11.82,.43,15.19,4.72-1.61,4.6-11.6,2.15-13.97-.67-.65-1.77-.86-2.58-1.22Zm-35.84,104.67c1.1-.21,2.54-.48,3.96-.75-.73-5.71-5.75-9.07-12.94-9.09,2.86,3.13,5.77,6.32,8.99,9.84Z"/><path d="M175.34,194.74c3.4,.39,6.8,.78,10.31,1.18,.08-.44,.26-.8,.2-1.11-2.64-13.17,1.55-24.67,8.69-35.43,3.31-4.99,7.3-9.35,12.43-12.56,8.61-5.4,16.39-4.56,23.46,2.79,7.75,8.06,12.09,17.95,14.63,28.68,1.94,8.21,2.9,16.53,2.39,24.99-.04,.64-.1,1.28-.2,1.9-.06,.35-.23,.68-.41,1.15-4.68,1.27-9.4,2.55-14.12,3.82l.03,.63c1.47,.46,2.94,.92,4.41,1.38l-.06,.87c-1.36,0-2.73,.05-4.09,0-7.37-.34-14.39-2.27-21.28-4.77-9.95-3.61-19.9-7.21-29.87-10.75-2.18-.77-4.47-1.23-6.72-1.83l.19-.94Zm24.8-30.01l.36,.84c11.81-1.82,20.68,2.88,26.54,12.81,5.7,9.67,5.97,20.03,1.66,30.52,5.32-1.58,10.42-3.09,15.74-4.66,.04-.4,.19-1.03,.13-1.64-.7-6.33-.99-12.75-2.26-18.98-1.71-8.36-5.47-15.87-11.86-21.78-6.29-5.82-13.93-7.25-20.92-3.56-3.33,1.76-6.27,4.27-9.38,6.44Zm17.65,16.12c-.64-2.13-1.08-4.17-1.87-6.06-.75-1.8-2.24-2.84-4.34-2.67-2.06,.17-3.27,1.4-4.02,3.22-1.45,3.5-.1,9.96,2.62,12.53,1.96,1.85,4.49,1.65,5.68-.78,.93-1.9,1.29-4.09,1.93-6.23Z"/><path d="M114.56,123.29c-9.8-7.97-14.46-18.09-14.15-30.49-8.52-2.1-18.27,5.08-21.43,13.93,.41,.14,.81,.38,1.22,.41,4.29,.36,7.91,2.23,10.95,5.12,7.07,6.73,12.14,14.95,17.15,23.35-6.68-1.26-12.39-4.6-18.05-8.09l-.42,.46,13.92,15-.32,.46c-.59-.07-1.22-.02-1.77-.21-7.99-2.76-13.65-7.93-16.33-16.07-1.35-4.1-.61-6.17,2.85-8.78,.57-.43,1.14-.86,2.05-1.55-4.72-3.96-9.44-6.86-16.09-5.04-.27-7.16,2.08-12.93,7.47-17.41,5.21-4.32,11.4-6.4,18.26-7.53,.31-3.5,.02-6.98-1.73-9.81-5.1-8.24-10.83-16.04-18.3-22.38-4.03-3.42-8.52-5.99-13.79-6.91-6.44-1.13-12.45,.4-17.73,3.97-4.2,2.84-7.94,6.37-11.83,9.66-.57,.48-.79,1.37-1.17,2.07l-1.03-.89c1.3-2.02,2.42-4.2,3.95-6.03,6.2-7.4,13.26-13.81,21.9-18.33,7.88-4.12,15.27-3.79,22.48,1.81,8.95,6.95,16.41,15,20.77,25.63,2.97,7.26,3.66,14.81,3.15,22.56-.31,4.64-.5,9.3-.4,13.94,.13,6.49,2.46,12.28,6.39,17.43,.77,1.01,1.51,2.04,2.25,3.07,.03,.04-.05,.15-.22,.63Z"/><path d="M168.9,142.22c.38-1.84,.67-3.71,1.16-5.53,3.2-11.85,8.38-22.59,17.84-30.77,4.87-4.21,10.21-7.7,16.75-8.78,4.24-.7,8.25-.03,11.66,2.65,6.85,5.39,9.63,13.17,12.36,20.95l-.56,.44c-.9-.97-1.72-2.03-2.72-2.88-5.67-4.77-12.2-6.45-19.43-4.98-8.65,1.76-15.49,6.86-21.66,12.75-4.66,4.45-8.71,9.56-13.01,14.38-.59,.66-1.12,1.37-1.68,2.06l-.72-.28Z"/><path d="M292.2,120.46c-1.77-5.93-3.11-11.92-.91-18.08,1.93-5.41,6.54-7.2,11.65-4.52,6.21,3.26,10.31,8.61,13.55,14.63,1.73,3.22,3.05,6.66,4.56,9.99l-.87,.53c-.95-1.04-1.88-2.1-2.86-3.11-3.46-3.56-7.15-6.79-12.12-8.08-5.21-1.35-8.41,.19-10.62,5.04-.56,1.22-1.08,2.46-1.62,3.69l-.75-.09Z"/><path d="M182.12,192.65c-4.94-11.9-4.64-23.38,.86-34.49,4.84-9.79,12.2-16.97,23.08-19.62l.87,.93c-1.15,.97-2.33,1.9-3.43,2.92-3.01,2.79-6.09,5.51-8.96,8.45-10.8,11.07-14.48,24.37-12.09,39.5,.08,.53,.15,1.07,.2,1.61,0,.07-.1,.15-.52,.7Z"/><path d="M220.69,90.94c-20.82,2.93-37.38,12.82-49.22,30.41l-.69-.46c.24-.96,.41-1.95,.73-2.89,3.72-10.96,11.23-18.42,21.73-22.85,7.79-3.29,15.97-5.07,24.48-5,.98,0,1.96,.1,2.94,.15l.04,.63Z"/><path d="M153.02,239.71c9.65-7.16,41.15-14.9,48.39-11.44-16.77,2.84-32.9,5.81-48.39,11.44Z"/><path d="M208.15,219.65c-12.35,.41-24.7,.81-37.29,1.23,4.88-3.64,32.25-4.83,37.29-1.23Z"/><path d="M315.69,338.13c-.91,0-1.82,.06-2.73,0-8.43-.61-13.01-8.09-9.76-15.9,2.78-6.68,8.52-9.85,15.58-8.4,6.19,1.27,11.04,4.65,14.28,10.1,2.42,4.07,1.58,7.66-2.24,10.51-3.59,2.69-7.86,3.19-12.13,3.64-.99,.11-2,.02-3,.02v.03Zm2.81-3.19c2.65-.51,5.68-.79,8.5-1.73,3.73-1.25,4.74-4.54,2.68-7.93-2.19-3.6-5.24-6.28-9.1-8.01-3.69-1.66-7.3-1.37-10.77,.56-3.25,1.81-4.85,4.66-4.63,8.36,.2,3.5,2.72,6.54,6.24,7.48,2.18,.58,4.46,.8,7.1,1.26Z"/><path d="M354.26,302.79c6.51-.89,12.27,7.51,11.98,12.12-.09,1.46-.68,3.06-1.52,4.27-3,4.33-7.17,6.87-12.54,6.2-5.82-.73-10.14-3.91-12.38-9.46-1.56-3.89-.37-7.32,3.12-9.77,2.97-2.09,7.18-3.34,11.34-3.36Zm.7,19.27c3.58-.01,6.3-1.59,7.32-4.23,1.75-4.55-2.18-11.78-7.02-12.35-4.08-.48-7.95,.64-11.3,3.15-1.69,1.26-1.97,2.95-1.29,4.87,1.66,4.69,7.24,8.57,12.29,8.56Z"/><path d="M289.44,355.06c2.4-4.64,10.31-7.08,15.87-4.65-5.5,1.61-10.65,3.12-15.87,4.65Z"/><path d="M280.67,373.28c37.87-6.95,75.73-13.97,112.36-26.22l.42,.96c-.79,.65-1.53,1.37-2.37,1.95-5.99,4.15-12.73,6.74-19.56,9.07-23.15,7.92-46.9,13.13-71.28,15.31-5.35,.48-10.75,.38-16.13,.46-1.11,.02-2.23-.35-3.35-.55-.03-.33-.06-.67-.09-1Z"/></svg>