<?xml version="1.0" encoding="UTF-8" ?>
<!DOCTYPE svg PUBLIC "-//W3C//DTD SVG 1.1//EN" "http://www.w3.org/Graphics/SVG/1.1/DTD/svg11.dtd">
<svg width="1024pt" height="1024pt" viewBox="0 0 1024 1024" version="1.1" xmlns="http://www.w3.org/2000/svg">
<g id="#000000ff">
<path fill="#000000" opacity="1.00" d=" M 683.30 56.43 C 698.24 55.44 713.46 55.77 728.08 59.25 C 772.42 71.87 807.39 111.00 816.28 156.07 C 823.47 189.39 815.14 227.07 790.29 251.28 C 787.89 253.01 790.78 255.61 791.40 257.59 C 807.70 288.38 821.24 321.52 823.18 356.69 C 837.60 366.23 851.35 377.37 860.93 391.99 C 872.35 408.75 878.31 428.83 879.72 448.96 C 881.18 479.39 869.89 509.60 851.36 533.47 C 841.36 545.74 829.77 556.73 817.07 566.16 C 812.15 569.93 806.38 572.65 802.10 577.21 C 804.80 586.48 808.87 595.54 809.84 605.32 C 820.86 606.09 832.92 604.75 842.57 611.32 C 854.39 617.96 862.42 630.50 863.20 644.07 C 865.80 675.45 850.75 706.11 829.13 728.11 C 828.00 729.78 825.41 731.27 825.46 733.32 C 830.09 735.34 834.90 736.99 839.68 738.62 C 847.93 727.46 859.73 716.90 874.33 716.46 C 883.53 716.58 893.69 715.58 901.57 721.31 C 911.57 728.23 920.82 739.16 920.18 752.02 C 920.27 761.46 920.61 771.04 918.46 780.32 C 913.04 804.68 905.54 829.21 891.18 849.93 C 884.39 860.15 874.45 867.67 866.75 877.06 C 869.50 875.55 871.43 871.46 875.08 873.22 C 880.49 875.22 886.29 877.30 890.43 881.49 C 893.39 885.19 889.38 889.25 886.53 891.51 C 877.35 898.23 866.48 902.08 855.96 906.16 C 823.28 918.02 789.52 926.63 755.70 934.56 C 728.63 940.58 701.52 946.96 673.92 949.98 C 673.12 952.27 672.27 954.66 669.97 955.89 C 657.31 964.11 641.98 967.28 627.06 967.61 C 603.49 968.15 579.81 968.64 556.30 966.55 C 537.91 964.78 520.37 958.62 502.96 952.83 C 439.69 931.76 377.46 907.71 314.21 886.60 C 305.12 883.85 295.50 879.76 285.94 882.76 C 284.13 883.67 283.64 880.99 282.88 879.97 C 278.86 870.69 270.10 863.17 259.94 861.78 C 252.08 861.18 244.85 865.54 239.28 870.68 C 231.18 863.98 220.89 860.57 210.76 858.35 C 205.64 851.64 203.51 842.80 196.85 837.15 C 187.85 828.54 173.69 826.77 162.36 831.43 C 157.65 833.04 153.79 836.35 149.14 838.08 C 150.20 834.89 153.53 831.36 151.02 828.04 C 147.52 823.83 145.06 818.92 142.04 814.40 C 144.09 819.23 140.61 824.30 144.07 828.74 C 130.35 824.70 116.93 819.64 103.05 816.17 C 95.77 811.89 86.54 811.52 80.08 805.93 C 75.88 801.99 80.24 795.92 84.91 795.12 C 94.56 793.27 105.11 797.05 111.67 804.33 C 115.13 807.90 120.60 806.17 125.00 807.01 C 131.01 807.26 136.11 810.94 141.95 811.89 C 142.66 807.22 140.76 802.63 140.76 797.97 C 140.01 784.12 147.98 770.78 159.45 763.41 C 169.11 757.82 180.99 757.46 191.73 759.42 C 206.45 763.06 220.29 769.51 234.67 774.17 C 238.16 765.58 241.61 756.95 244.65 748.20 C 230.29 742.39 215.09 738.71 200.98 732.25 C 178.87 723.62 174.32 689.50 194.01 675.95 C 210.17 666.09 229.87 665.69 247.27 659.25 C 247.38 652.59 244.73 645.41 243.44 638.65 C 238.00 635.89 232.09 633.80 227.46 629.66 C 202.42 608.65 201.61 566.42 224.45 543.49 C 232.46 534.34 243.72 529.29 255.09 525.74 C 253.24 520.90 250.12 516.70 247.79 512.11 C 235.18 488.22 228.98 461.00 229.97 434.00 C 229.16 410.39 233.78 386.81 242.46 364.90 C 226.15 359.50 208.69 353.30 195.19 341.75 C 182.14 330.71 170.48 317.69 162.58 302.43 C 144.91 268.81 142.46 227.90 154.72 192.07 C 164.97 162.54 184.29 136.01 210.10 118.21 C 234.14 102.21 262.91 92.44 292.02 94.28 C 334.50 93.43 375.07 117.41 398.10 152.54 C 427.58 131.35 459.24 112.01 482.86 83.91 C 488.57 77.40 493.45 69.83 500.96 65.19 C 510.52 59.65 523.50 63.23 529.91 71.96 C 535.69 78.69 536.24 87.77 538.11 95.98 C 561.80 86.98 590.33 78.87 614.03 92.03 C 617.17 89.54 619.84 86.50 622.81 83.80 C 638.87 67.88 660.79 58.16 683.30 56.43 M 684.30 80.43 C 676.30 81.05 668.47 83.61 661.51 87.56 C 652.37 92.78 647.34 103.73 648.30 114.07 C 649.05 123.46 654.10 131.87 660.26 138.75 C 663.21 144.81 671.01 148.08 676.93 149.14 C 682.97 132.34 697.83 116.30 717.00 117.33 C 735.39 115.05 753.02 126.16 763.03 141.00 C 775.88 160.61 777.40 185.95 770.87 208.06 C 770.11 211.72 768.41 215.37 768.77 219.15 C 785.60 202.83 793.58 178.40 791.19 155.14 C 782.89 118.03 750.72 88.56 713.88 80.83 C 704.08 79.61 694.14 80.01 684.30 80.43 M 510.25 91.22 C 505.03 95.70 501.35 101.65 496.64 106.62 C 475.39 130.73 447.03 146.60 421.59 165.68 C 416.59 170.33 408.17 174.04 408.65 182.01 C 408.96 199.76 405.54 218.44 395.19 233.18 C 401.38 196.06 380.09 158.82 350.48 137.56 C 334.33 125.99 314.78 119.65 295.05 118.30 C 254.41 115.65 213.03 137.19 192.47 172.45 C 181.94 190.60 179.91 212.62 183.95 232.95 C 189.08 264.58 208.56 293.33 235.63 310.31 C 263.71 327.21 298.75 329.76 329.81 320.31 C 318.23 344.54 308.37 370.12 305.88 397.08 C 302.14 431.53 308.13 467.78 326.56 497.48 C 336.48 513.36 349.51 527.15 364.06 538.86 C 388.35 558.21 418.09 569.23 447.94 576.66 C 479.64 584.60 512.39 587.43 545.01 587.00 C 582.23 587.61 619.56 585.15 656.20 578.39 C 704.38 570.14 753.15 558.69 795.70 533.73 C 813.58 523.10 830.36 509.65 841.80 492.04 C 849.90 479.88 857.29 466.10 856.48 451.02 C 856.15 420.70 837.31 392.37 810.97 378.10 C 809.29 376.41 805.44 378.91 805.49 375.67 C 800.97 345.89 794.67 316.01 781.31 288.79 C 750.92 222.66 689.04 173.22 619.12 154.52 C 623.83 161.86 629.98 168.33 633.48 176.42 C 649.77 218.31 655.32 264.06 650.86 308.71 C 643.77 294.08 637.00 278.98 626.98 265.98 C 614.31 249.02 600.37 232.50 583.03 220.11 C 566.82 209.93 549.88 200.63 531.79 194.25 C 557.18 192.48 583.17 194.37 608.03 187.90 C 606.70 193.98 600.62 196.95 594.93 197.55 C 598.18 199.43 603.47 197.29 607.04 195.84 C 612.38 193.16 610.38 186.10 607.80 182.09 C 599.93 169.69 585.90 162.81 572.12 159.13 C 559.46 155.93 546.32 157.44 533.44 156.80 C 553.31 148.55 572.44 136.93 585.64 119.55 C 587.40 117.01 589.49 114.40 589.83 111.21 C 583.21 109.22 576.07 111.65 569.37 112.49 C 540.22 118.18 517.54 138.74 492.51 153.13 C 495.69 147.23 500.34 142.22 503.24 136.13 C 510.99 122.54 514.59 106.34 512.04 90.85 C 511.59 90.94 510.70 91.13 510.25 91.22 M 621.29 129.08 C 622.40 132.74 625.06 127.11 621.29 129.08 M 655.28 139.30 C 655.80 143.66 660.09 138.81 655.28 139.30 M 589.37 198.23 C 589.74 199.54 593.40 199.38 593.76 197.99 C 592.49 197.17 590.62 197.57 589.37 198.23 M 761.83 214.98 C 763.91 218.04 766.23 221.03 769.07 223.43 C 767.28 220.17 764.84 217.17 761.83 214.98 M 325.22 322.84 C 321.76 325.62 328.40 324.74 325.22 322.84 M 268.41 367.50 C 257.44 388.85 253.77 413.18 253.96 437.01 C 253.26 462.64 261.47 487.88 273.97 510.01 C 294.33 542.13 326.68 565.11 361.45 579.48 C 405.02 597.46 452.13 605.00 498.95 607.88 C 533.94 608.65 568.99 608.23 603.94 606.38 C 631.05 603.66 658.40 600.11 684.65 592.95 C 678.69 593.06 672.91 594.76 667.05 595.63 C 602.05 606.51 535.62 607.70 470.09 601.36 C 413.45 594.03 355.90 576.76 311.38 539.64 C 284.15 515.92 266.91 481.62 262.04 446.03 C 260.54 419.58 260.87 392.23 269.02 366.79 L 268.41 367.50 M 847.44 492.13 C 844.60 495.79 843.52 500.98 838.92 503.02 C 834.94 514.27 826.14 522.82 819.06 532.20 C 831.71 521.09 841.70 506.76 848.29 491.31 L 847.44 492.13 M 252.19 550.15 C 246.11 553.41 240.23 557.76 237.19 564.14 C 232.73 572.92 235.07 585.10 242.98 591.05 C 244.78 577.81 247.58 564.36 253.06 551.97 C 253.29 551.12 254.73 547.58 252.19 550.15 M 784.37 556.30 C 780.29 560.05 789.11 556.33 784.37 556.30 M 271.46 566.25 C 260.61 605.79 264.75 649.80 285.64 685.40 C 301.60 713.51 327.52 734.73 356.07 749.20 C 388.97 765.76 425.52 773.95 462.03 777.30 C 476.31 777.59 490.77 778.28 504.94 776.21 C 508.67 776.07 507.13 772.63 505.50 770.92 C 504.73 777.01 497.15 774.36 492.98 774.80 C 442.43 771.30 390.50 761.61 347.05 734.16 C 321.73 718.16 300.22 695.47 287.91 667.98 C 274.82 639.39 272.13 606.89 276.60 576.00 C 277.66 572.32 275.56 566.22 271.46 566.25 M 744.24 575.25 C 744.76 575.79 744.76 575.79 744.24 575.25 M 741.18 576.15 C 741.27 579.46 744.17 574.60 741.18 576.15 M 737.49 577.49 C 735.40 578.11 733.31 578.81 731.48 580.02 C 734.45 580.35 744.92 575.72 737.49 577.49 M 729.33 580.07 C 729.37 583.40 732.30 578.60 729.33 580.07 M 715.39 584.16 C 713.92 583.95 712.14 586.37 714.64 585.97 C 717.21 586.39 719.07 582.95 715.39 584.16 M 705.31 587.19 C 705.43 590.56 708.22 585.62 705.31 587.19 M 693.30 590.44 C 693.09 592.00 696.67 591.40 696.63 590.07 C 695.46 589.46 694.35 589.58 693.30 590.44 M 685.41 592.20 C 686.19 595.81 689.20 590.02 685.41 592.20 M 781.40 592.44 C 767.36 599.60 752.52 606.05 740.66 616.67 C 734.69 621.44 736.01 629.75 737.27 636.34 C 739.51 637.53 738.18 633.18 738.49 631.84 C 743.94 635.82 750.60 637.28 757.15 638.27 C 758.53 638.41 760.56 638.78 761.32 637.22 C 764.44 631.48 764.55 624.68 767.05 618.70 C 769.08 624.94 768.34 631.62 768.05 638.06 C 773.63 637.70 781.97 639.11 784.57 632.62 C 788.57 621.22 787.88 608.65 785.68 596.94 C 785.06 594.84 784.49 590.50 781.40 592.44 M 233.89 601.81 C 235.84 605.50 238.05 609.27 241.30 611.98 C 241.37 610.29 241.96 608.43 241.19 606.84 C 238.46 612.58 237.35 602.97 233.89 601.81 M 338.24 613.26 C 337.32 621.45 340.12 629.65 341.43 637.73 C 347.02 666.63 364.67 692.42 387.83 710.24 C 412.93 729.58 443.40 740.50 474.10 747.12 C 483.97 748.72 494.33 752.30 504.24 749.47 C 505.31 750.70 505.79 753.09 507.88 752.88 C 514.32 752.95 521.17 753.72 527.21 750.98 C 528.87 757.40 527.36 764.26 529.45 770.64 C 530.48 775.45 533.93 779.25 535.29 783.89 C 532.91 783.21 530.63 782.25 528.21 781.77 C 538.40 788.50 551.98 793.06 563.95 788.26 C 577.33 783.15 588.23 773.20 597.31 762.36 C 609.78 746.96 619.26 728.62 622.16 708.88 C 623.74 697.43 621.80 684.27 612.81 676.18 C 607.39 671.05 599.50 670.20 592.43 671.31 C 588.63 681.09 586.68 691.79 580.60 700.54 C 575.27 707.36 567.84 712.22 560.33 716.34 C 545.19 724.46 527.00 723.50 510.83 719.35 C 480.00 710.25 453.57 683.12 449.73 650.60 C 452.98 652.25 454.60 655.65 456.55 658.53 C 462.26 660.42 466.65 664.75 472.06 667.26 C 486.12 674.16 501.38 679.00 517.08 679.96 C 516.66 676.14 515.31 672.49 514.91 668.67 C 518.90 671.29 520.76 675.92 523.74 679.48 C 530.11 679.95 536.69 679.79 542.93 678.27 C 545.55 677.43 549.49 676.47 549.31 672.97 C 549.16 666.33 546.08 660.15 545.95 653.51 C 553.86 659.95 558.51 670.11 559.37 680.21 C 560.42 679.71 562.53 678.58 560.14 677.36 C 563.09 671.49 563.29 662.72 570.98 660.70 C 570.27 646.62 557.41 633.65 542.99 634.22 C 531.96 634.68 521.05 636.52 510.09 637.70 C 455.01 643.72 398.83 635.44 347.03 616.14 C 344.16 615.02 341.30 613.76 338.24 613.26 M 813.38 630.47 C 810.76 631.35 807.38 632.71 807.11 635.90 C 805.98 649.10 798.20 660.95 788.54 669.63 C 777.42 679.12 762.33 680.88 748.28 681.20 C 745.43 686.57 740.30 691.67 740.07 697.85 C 745.23 700.15 750.83 698.07 756.07 697.20 C 755.16 699.32 753.51 701.04 752.75 703.24 C 756.74 702.21 758.42 697.93 761.71 695.80 C 760.72 704.78 758.29 714.10 761.04 722.99 C 762.49 727.89 766.48 732.66 771.99 732.63 C 786.26 732.95 799.18 724.73 809.03 715.04 C 822.63 701.35 833.28 684.42 838.65 665.83 C 841.79 655.77 841.88 643.78 834.44 635.53 C 829.53 629.30 820.54 628.56 813.38 630.47 M 707.36 641.47 C 682.52 647.32 657.99 655.42 632.44 657.53 C 628.87 658.49 633.10 662.15 634.23 663.80 C 647.00 678.16 646.17 698.46 646.03 716.41 C 679.05 708.34 712.74 696.19 738.00 672.61 C 727.10 666.06 716.76 655.93 713.27 642.99 C 713.07 639.64 709.44 641.13 707.36 641.47 M 472.43 673.66 C 474.07 676.44 477.55 677.28 480.44 678.17 C 478.49 675.67 475.43 674.38 472.43 673.66 M 735.44 677.01 C 736.42 681.23 735.68 685.55 734.85 689.73 C 731.37 693.70 726.38 696.02 722.98 700.09 C 730.71 695.86 737.15 689.55 743.66 683.65 C 749.86 679.16 737.34 677.45 735.44 677.01 M 490.33 682.21 C 490.08 683.60 492.56 684.60 493.63 683.86 C 493.89 682.40 491.40 681.56 490.33 682.21 M 246.39 683.49 C 234.26 686.57 221.38 688.71 210.13 694.02 C 227.72 701.33 246.34 706.51 264.22 713.29 C 259.94 704.27 254.21 695.96 249.82 686.96 C 248.80 685.73 248.48 682.73 246.39 683.49 M 517.34 687.33 C 515.78 688.09 514.24 688.91 512.80 689.87 C 514.96 691.00 520.15 688.10 517.34 687.33 M 507.30 688.00 C 507.43 691.36 510.20 686.42 507.30 688.00 M 529.33 688.97 C 530.51 690.57 533.75 689.79 535.62 689.58 C 534.44 688.14 531.04 688.13 529.33 688.97 M 717.41 703.21 C 716.13 703.47 714.03 704.39 714.31 705.96 C 715.51 706.73 719.00 704.13 717.41 703.21 M 691.31 718.05 C 691.41 721.37 694.35 716.47 691.31 718.05 M 654.43 731.28 C 646.90 734.84 661.92 731.08 654.43 731.28 M 650.36 733.22 C 650.84 733.82 650.84 733.82 650.36 733.22 M 875.17 740.33 C 866.27 742.94 859.81 750.87 857.54 759.67 C 851.33 780.14 844.77 800.57 839.77 821.36 C 841.76 819.72 842.65 817.00 844.98 815.75 C 844.07 820.48 841.26 824.66 840.88 829.51 C 845.29 826.08 847.46 820.65 850.19 815.93 C 857.43 800.19 862.83 783.67 867.72 767.07 C 869.97 760.12 875.28 753.01 882.97 751.98 C 889.48 751.69 893.37 757.97 895.80 763.15 C 896.16 757.03 896.44 749.91 891.81 745.20 C 887.51 741.10 881.07 738.32 875.17 740.33 M 807.22 748.39 C 785.30 757.40 760.45 757.42 738.16 749.66 C 736.82 749.19 731.23 747.58 733.97 749.95 C 747.04 756.74 760.84 762.05 773.97 768.75 C 777.06 770.13 780.39 772.18 783.92 771.34 C 797.68 768.02 811.32 764.19 825.08 760.85 C 826.69 760.27 829.08 760.24 829.51 758.17 C 826.27 754.17 821.03 752.72 816.62 750.42 C 813.59 749.31 810.51 746.43 807.22 748.39 M 704.26 752.41 C 697.00 755.78 689.44 758.44 682.02 761.42 C 696.49 768.70 711.91 774.11 726.01 782.15 C 728.33 783.27 730.30 786.40 733.16 785.37 C 742.43 782.80 751.90 780.67 760.84 777.07 C 759.99 775.16 757.89 774.59 756.22 773.69 C 741.07 766.63 725.74 759.95 710.31 753.54 C 708.39 752.85 706.34 751.73 704.26 752.41 M 517.17 754.33 C 513.51 756.09 519.29 757.20 520.86 755.79 C 521.17 753.61 518.53 754.16 517.17 754.33 M 265.11 760.81 C 258.43 774.79 254.15 789.80 247.62 803.83 C 230.20 796.27 212.13 790.15 194.07 784.23 C 188.15 782.57 181.21 779.88 175.49 783.56 C 172.04 785.98 168.75 789.02 167.00 792.94 C 170.36 793.79 173.64 794.91 176.82 796.31 C 262.59 828.79 349.48 858.21 435.72 889.41 C 468.47 901.35 501.06 913.75 534.16 924.69 C 547.52 929.50 562.15 929.83 576.07 927.71 C 599.81 922.72 618.54 903.68 627.66 881.78 C 635.06 862.55 638.86 842.17 645.62 822.73 C 648.40 815.40 656.50 808.24 664.73 811.38 C 668.34 812.49 669.20 816.84 672.04 818.57 C 673.72 811.45 671.57 802.72 664.95 798.79 C 654.39 792.12 638.70 797.38 634.10 808.98 C 624.20 831.62 621.02 856.57 611.36 879.29 C 604.61 895.22 591.08 908.54 574.10 912.91 C 554.31 917.58 534.29 910.16 516.95 901.08 C 514.00 898.78 520.85 902.59 520.50 899.65 C 525.09 885.10 531.68 871.00 534.44 855.98 C 528.59 852.27 521.55 850.70 514.91 848.87 C 513.20 847.99 512.78 850.05 512.27 851.16 C 506.15 866.39 501.01 881.99 494.88 897.20 C 453.64 885.29 413.67 869.18 373.04 855.31 C 341.25 843.87 309.36 832.65 278.01 820.02 C 274.34 818.29 269.99 817.28 267.43 813.88 C 271.17 810.37 272.74 805.40 274.78 800.85 C 278.76 790.71 283.22 780.60 285.45 769.90 C 280.34 764.76 272.21 761.24 265.11 760.81 M 649.19 768.35 C 642.69 769.87 635.83 772.23 630.91 776.86 C 644.64 772.36 660.23 769.96 673.84 776.18 C 682.62 780.07 688.66 787.82 694.06 795.45 C 699.75 793.90 705.98 793.09 710.93 789.69 C 702.12 782.64 690.81 779.18 680.57 774.53 C 670.67 770.52 660.06 766.51 649.19 768.35 M 323.49 775.18 C 322.15 775.65 320.74 777.28 321.18 778.75 C 322.42 778.72 326.64 775.23 323.49 775.18 M 517.87 775.12 C 519.13 777.04 520.97 778.57 523.17 779.32 C 521.93 777.34 519.95 776.04 517.87 775.12 M 337.25 780.26 C 337.88 784.63 342.02 779.69 337.25 780.26 M 608.38 797.47 C 593.21 804.21 577.90 811.20 561.46 814.28 C 568.40 818.52 576.27 821.25 583.92 823.96 C 590.50 823.39 597.04 821.52 603.23 819.28 C 606.31 812.70 608.44 805.70 611.07 798.93 C 612.28 796.63 609.70 796.97 608.38 797.47 M 816.35 802.47 C 802.21 805.71 788.28 809.85 774.06 812.81 C 772.17 813.67 768.90 813.26 768.07 815.48 C 780.53 820.51 794.74 826.15 807.93 820.21 C 813.91 816.07 817.15 808.84 819.23 802.08 C 818.51 802.18 817.07 802.37 816.35 802.47 M 319.20 805.21 C 320.19 809.44 324.07 804.51 319.20 805.21 M 418.31 809.14 C 418.57 812.46 421.23 807.52 418.31 809.14 M 114.18 810.43 C 112.03 814.13 117.81 811.41 114.18 810.43 M 420.10 809.68 C 424.18 812.54 429.45 813.71 434.29 815.00 C 430.18 812.07 424.92 810.99 420.10 809.68 M 341.46 813.21 C 341.37 814.72 345.18 815.98 345.68 814.37 C 344.71 813.33 342.80 812.52 341.46 813.21 M 348.77 816.02 C 351.71 817.60 354.94 819.12 358.32 819.21 C 355.79 816.95 352.07 816.26 348.77 816.02 M 363.82 821.15 C 366.94 823.44 370.87 824.45 374.65 825.04 C 371.60 822.62 367.52 822.01 363.82 821.15 M 467.33 826.24 C 467.13 827.66 470.78 828.87 471.18 827.35 C 470.24 826.40 468.60 825.72 467.33 826.24 M 475.17 829.05 C 476.08 833.36 479.96 828.39 475.17 829.05 M 484.44 832.92 C 486.39 834.33 488.98 834.67 490.77 836.33 C 490.44 840.86 487.24 844.67 487.04 849.26 C 489.50 844.81 491.10 839.90 492.72 835.10 C 490.77 833.29 487.11 833.30 484.44 832.92 M 414.32 839.17 C 414.18 840.59 416.72 841.19 417.81 840.71 C 418.04 839.20 415.40 838.41 414.32 839.17 M 421.38 841.95 C 425.25 844.33 429.79 845.39 434.11 846.70 C 430.90 843.56 425.69 842.87 421.38 841.95 M 485.43 852.52 C 483.61 855.46 483.12 859.02 481.61 862.13 C 476.25 860.82 471.29 858.20 465.87 857.07 C 470.65 859.96 476.03 861.80 481.30 863.63 C 484.20 861.29 486.14 853.43 485.43 852.52 M 213.62 852.68 C 213.60 853.44 213.54 854.96 213.52 855.72 C 222.22 857.10 230.43 860.76 237.95 865.26 C 238.06 864.00 240.06 861.74 237.91 861.34 C 229.86 858.37 221.88 854.95 213.62 852.68 M 453.68 852.77 C 455.68 855.15 459.19 855.62 462.13 856.01 C 459.69 854.14 456.65 853.30 453.68 852.77 M 572.23 862.43 C 568.71 865.13 568.11 870.15 567.03 874.22 C 569.63 871.25 569.70 866.96 571.80 863.69 C 576.09 864.07 581.10 863.75 584.77 866.29 C 584.26 871.80 581.62 877.04 578.47 881.52 C 574.26 885.03 568.95 886.85 563.67 888.09 C 564.10 885.68 565.03 883.33 564.94 880.86 C 563.06 883.87 561.95 887.31 561.04 890.72 C 575.00 888.91 586.30 877.98 590.18 864.84 C 584.43 862.89 578.20 863.16 572.23 862.43 M 688.95 865.08 C 682.45 886.97 675.16 909.15 660.88 927.36 C 674.95 913.07 680.68 893.15 688.03 874.98 C 688.12 873.55 692.67 871.04 689.75 871.52 C 686.48 872.72 689.51 865.97 692.07 868.23 C 712.67 874.90 733.12 882.19 754.03 887.90 C 758.25 889.28 753.79 886.48 752.58 886.45 C 731.16 879.99 709.80 873.21 688.95 865.08 M 858.52 881.46 C 856.76 881.97 855.10 882.82 853.80 884.13 C 855.54 884.39 861.98 880.49 858.52 881.46 M 845.32 887.18 C 839.92 888.46 847.29 890.42 845.32 887.18 M 756.25 888.07 C 756.54 891.39 759.13 886.41 756.25 888.07 M 763.28 889.99 C 763.39 893.35 766.20 888.44 763.28 889.99 M 837.32 890.23 C 833.54 894.31 843.98 888.93 837.32 890.23 M 767.39 891.05 C 771.24 893.03 775.79 893.65 780.11 893.82 C 776.19 891.93 771.68 891.43 767.39 891.05 M 794.43 895.17 C 795.43 898.78 798.13 893.00 794.43 895.17 M 655.50 933.51 C 651.51 937.09 647.20 940.36 643.35 944.08 C 648.23 941.12 653.21 937.50 656.48 932.81 L 655.50 933.51 M 642.60 944.43 C 635.81 949.06 628.16 952.39 621.47 957.12 C 629.44 953.85 637.14 949.54 643.73 943.98 L 642.60 944.43 M 620.29 957.24 C 620.79 957.81 620.79 957.81 620.29 957.24 M 602.48 963.09 C 602.64 966.38 605.47 961.55 602.48 963.09 M 596.55 964.32 C 595.35 964.38 594.28 964.73 593.33 965.36 C 594.17 968.18 601.91 963.58 596.55 964.32 M 585.30 966.15 C 585.41 969.52 588.21 964.60 585.30 966.15 Z" />
<path fill="#000000" opacity="1.00" d=" M 263.24 169.40 C 274.05 168.33 285.12 168.25 295.81 170.36 C 324.26 177.45 345.65 202.78 352.51 230.64 C 356.08 248.28 355.34 267.90 345.58 283.53 C 336.64 297.91 320.53 306.38 304.24 309.42 C 283.17 313.00 261.30 307.61 243.01 296.96 C 223.87 284.00 210.19 262.45 209.30 239.04 C 207.56 206.94 232.01 176.07 263.24 169.40 Z" />
<path fill="#000000" opacity="1.00" d=" M 907.39 213.49 C 910.37 211.68 914.64 212.74 916.23 215.91 C 921.54 225.73 918.41 238.42 925.32 247.57 C 931.13 255.46 941.42 256.46 949.91 259.79 C 953.72 260.79 955.95 265.91 953.11 269.01 C 948.02 274.10 940.14 273.34 933.95 276.26 C 926.47 279.13 921.14 286.31 919.82 294.12 C 918.43 299.93 919.01 306.42 915.78 311.66 C 912.89 316.10 905.12 314.20 904.25 309.07 C 901.75 299.45 902.29 287.94 894.33 280.70 C 887.76 274.25 877.98 274.62 870.04 271.10 C 864.56 268.46 866.44 260.41 871.99 259.14 C 881.39 256.71 893.22 254.77 897.79 244.85 C 903.30 235.14 900.02 222.08 907.39 213.49 M 910.20 252.09 C 907.68 258.19 902.07 262.38 896.03 264.64 C 901.58 268.07 907.65 271.69 910.19 278.10 C 913.85 273.28 917.13 266.95 923.99 265.45 C 918.42 262.00 913.89 257.25 910.20 252.09 Z" />
<path fill="#000000" opacity="1.00" d=" M 702.38 225.49 C 715.55 223.98 730.66 229.89 736.60 242.30 C 739.76 248.30 735.00 256.78 728.05 256.34 C 720.83 254.95 714.66 249.51 706.99 250.00 C 699.99 249.72 693.96 255.25 686.94 253.93 C 680.43 251.93 679.05 243.53 681.82 238.04 C 685.60 230.36 694.27 226.54 702.38 225.49 Z" />
<path fill="#000000" opacity="1.00" d=" M 488.24 247.39 C 501.86 245.58 520.10 247.15 526.64 261.35 C 529.88 266.05 526.31 272.12 522.08 274.77 C 515.66 277.13 509.45 272.54 503.00 272.58 C 488.09 271.17 474.71 279.64 464.06 289.17 C 459.10 294.07 450.72 289.35 449.49 283.33 C 448.59 278.07 450.98 272.93 453.64 268.54 C 461.30 256.80 474.64 249.66 488.24 247.39 Z" />
<path fill="#000000" opacity="1.00" d=" M 727.40 303.54 C 746.79 301.21 767.01 311.15 777.71 327.37 C 787.68 342.77 792.96 361.63 790.43 379.96 C 787.91 406.38 759.80 427.01 733.94 420.86 C 700.94 411.78 682.50 373.08 690.12 340.89 C 694.07 322.80 708.48 306.18 727.40 303.54 M 713.34 331.44 C 704.02 333.30 698.03 343.95 700.80 352.94 C 702.71 360.48 710.30 365.80 717.99 365.48 C 728.50 365.73 737.31 353.94 733.92 343.96 C 731.50 335.44 722.04 329.63 713.34 331.44 M 753.20 349.32 C 751.01 349.69 749.14 351.69 749.37 353.98 C 749.54 358.44 757.36 359.98 758.53 355.34 C 759.62 352.09 756.77 348.15 753.20 349.32 M 716.20 374.34 C 710.53 376.36 707.70 384.20 712.22 388.76 C 715.96 394.71 726.25 391.56 727.09 384.99 C 728.25 379.05 722.31 372.38 716.20 374.34 Z" />
<path fill="#000000" opacity="1.00" d=" M 502.31 332.44 C 524.78 329.88 547.22 340.30 560.77 358.17 C 582.03 384.69 579.94 428.13 553.51 450.51 C 542.86 459.71 528.95 464.40 515.08 465.71 C 512.15 465.90 508.87 466.48 506.28 464.70 C 494.77 456.83 481.20 451.72 467.29 450.52 C 465.59 450.26 464.26 449.04 463.02 447.96 C 446.39 432.11 439.30 407.45 443.92 385.07 C 449.00 357.28 473.35 333.14 502.31 332.44 M 483.34 360.43 C 471.50 363.34 463.91 377.93 468.70 389.20 C 472.55 396.94 481.20 402.88 490.06 401.87 C 499.40 401.88 507.33 393.93 509.39 385.18 C 512.27 371.06 497.31 356.85 483.34 360.43 M 532.18 384.27 C 529.50 385.53 527.24 388.96 528.70 391.90 C 530.02 395.16 535.23 396.72 537.46 393.53 C 540.15 389.68 537.09 383.43 532.18 384.27 M 477.34 411.41 C 473.19 412.56 469.99 416.65 470.24 421.01 C 470.19 428.22 478.94 433.77 485.39 430.36 C 488.65 428.20 490.67 424.16 490.63 420.28 C 489.17 414.70 483.42 409.49 477.34 411.41 Z" />
<path fill="#000000" opacity="1.00" d=" M 659.37 393.50 C 667.02 392.64 675.45 393.32 681.71 398.27 C 690.17 404.45 694.25 417.17 688.35 426.42 C 684.66 433.56 676.45 435.26 669.27 436.62 C 672.35 444.66 676.71 453.31 685.00 456.99 C 696.25 462.18 710.86 453.31 711.88 441.08 C 712.56 437.14 710.99 433.02 712.31 429.19 C 721.30 432.06 726.84 443.37 723.44 452.26 C 720.91 459.04 716.35 465.28 709.93 468.82 C 707.51 469.88 707.72 472.81 707.61 475.01 C 707.73 495.42 705.05 516.69 694.68 534.64 C 688.79 545.08 678.32 553.68 665.97 554.26 C 655.29 554.06 644.98 549.08 637.73 541.30 C 623.59 526.09 615.51 505.71 614.28 485.06 C 613.78 481.38 614.52 476.52 610.82 474.27 C 602.40 469.07 598.14 458.60 599.63 448.96 C 601.33 445.87 604.31 442.08 608.11 442.10 C 612.09 445.35 611.74 451.35 614.64 455.42 C 619.59 464.30 630.62 466.58 639.99 466.39 C 654.88 466.47 667.96 452.22 665.87 437.26 C 659.58 436.96 653.01 437.49 647.14 434.77 C 637.90 430.91 630.81 419.75 634.69 409.82 C 638.69 400.02 649.34 394.72 659.37 393.50 M 656.41 404.48 C 653.60 405.68 649.82 408.53 650.90 411.95 C 658.24 411.55 665.74 410.89 672.90 409.19 C 676.82 408.27 673.46 404.12 670.96 403.95 C 666.15 403.23 661.16 403.46 656.41 404.48 M 640.87 499.10 C 648.96 503.86 655.21 511.14 658.04 520.17 C 650.56 516.37 642.80 512.02 634.16 512.15 C 635.34 521.65 644.47 528.43 651.01 534.92 C 659.32 543.26 679.59 541.39 679.02 526.98 C 675.68 509.92 657.35 499.45 640.87 499.10 Z" />
<path fill="#000000" opacity="1.00" d=" M 145.23 408.31 C 148.10 406.94 151.46 408.58 152.62 411.42 C 156.46 419.42 155.49 429.02 160.27 436.68 C 164.31 443.57 172.17 446.92 179.68 448.47 C 183.29 449.23 188.06 451.48 187.46 455.94 C 187.03 460.26 182.17 461.51 178.70 462.54 C 171.97 464.10 164.83 466.66 160.68 472.54 C 156.80 478.62 155.04 485.87 154.68 493.02 C 154.43 496.80 151.48 500.11 147.99 501.35 C 144.47 501.30 141.63 498.26 140.92 494.95 C 138.67 486.61 138.89 476.95 132.83 470.15 C 127.00 463.82 117.71 464.14 110.50 460.40 C 106.49 458.60 106.32 452.29 110.12 450.19 C 115.79 446.82 123.01 447.30 128.41 443.31 C 136.02 438.29 138.28 428.74 139.40 420.27 C 139.95 415.88 140.99 410.62 145.23 408.31 M 147.54 442.08 C 145.46 447.52 141.62 452.09 136.15 454.34 C 140.76 457.75 145.81 461.41 147.49 467.30 C 150.24 462.13 153.67 457.39 158.84 454.41 C 153.28 452.08 150.80 446.48 147.54 442.08 Z" />
<path fill="#000000" opacity="1.00" d=" M 799.32 411.46 C 807.21 410.84 817.03 412.06 821.56 419.41 C 824.84 425.39 820.23 431.92 815.53 435.51 C 804.95 443.45 791.74 447.56 778.65 448.52 C 772.39 448.84 764.49 448.07 761.24 441.87 C 759.16 435.74 764.15 430.20 768.04 426.04 C 776.70 418.30 787.71 412.76 799.32 411.46 Z" />
<path fill="#000000" opacity="1.00" d=" M 453.34 460.45 C 472.56 458.94 492.56 463.48 508.40 474.70 C 513.51 478.11 516.54 485.47 512.95 490.98 C 506.46 497.42 496.60 497.80 488.01 497.95 C 469.53 498.48 450.45 495.23 434.51 485.48 C 429.76 482.58 425.78 475.97 429.73 470.86 C 435.32 463.86 444.87 461.62 453.34 460.45 Z" />
<path fill="#000000" opacity="1.00" d=" M 920.39 513.38 C 926.63 510.50 930.72 517.76 931.03 523.02 C 932.33 532.03 932.53 542.05 938.62 549.42 C 944.09 555.95 953.00 557.32 960.90 558.78 C 964.92 559.49 969.67 562.30 969.39 566.95 C 968.82 571.49 963.91 573.67 959.87 574.18 C 951.66 575.46 942.15 576.62 936.70 583.67 C 931.17 591.19 931.96 600.97 930.61 609.74 C 930.09 613.68 926.72 617.95 922.42 617.52 C 919.01 616.63 915.30 613.94 915.32 610.08 C 914.93 601.57 914.08 592.70 910.10 585.02 C 904.75 576.50 893.89 575.47 884.93 573.71 C 880.84 572.73 874.72 570.27 875.94 565.01 C 879.08 558.74 886.95 558.57 892.94 557.28 C 901.70 555.78 909.26 549.34 912.18 540.96 C 916.06 532.18 912.07 519.87 920.39 513.38 M 922.61 551.09 C 920.35 557.51 914.76 561.57 909.98 565.78 C 915.27 568.44 919.84 572.53 922.39 577.96 C 926.18 572.73 930.70 568.05 936.88 565.49 C 930.46 562.65 926.20 556.86 922.61 551.09 Z" />
<path fill="#000000" opacity="1.00" d=" M 97.33 547.44 C 122.65 545.67 150.13 553.20 168.38 571.51 C 174.00 576.34 166.64 587.01 160.67 582.28 C 144.77 571.22 126.75 562.00 107.04 561.08 C 101.30 560.25 94.68 561.67 89.63 558.32 C 85.91 553.14 92.52 548.04 97.33 547.44 Z" />
<path fill="#000000" opacity="1.00" d=" M 136.30 612.50 C 161.11 611.25 185.73 620.44 204.45 636.57 C 207.55 639.55 210.79 642.81 212.13 647.00 C 211.11 650.29 208.16 654.01 204.34 653.58 C 200.95 652.85 198.10 650.75 195.37 648.72 C 185.44 640.92 174.14 634.94 162.32 630.55 C 148.91 626.17 134.53 627.83 120.80 625.41 C 115.27 624.91 115.03 616.78 119.49 614.59 C 124.73 612.30 130.69 612.75 136.30 612.50 Z" />
<path fill="#000000" opacity="1.00" d=" M 61.20 634.37 C 97.11 629.86 134.99 644.91 157.89 672.96 C 163.00 678.18 158.02 686.08 151.99 687.51 C 146.25 685.91 142.42 680.75 137.97 677.06 C 119.65 659.99 94.89 650.64 70.05 649.25 C 65.27 648.76 59.30 649.21 56.29 644.65 C 52.15 640.98 57.38 635.59 61.20 634.37 Z" />
<path fill="#000000" opacity="1.00" d=" M 819.36 649.44 C 826.27 646.56 831.41 654.87 830.14 660.94 C 827.75 680.24 817.67 698.29 803.34 711.32 C 798.39 715.73 792.93 720.74 786.03 721.30 C 780.64 721.42 777.65 715.92 778.84 711.08 C 781.34 695.46 790.44 681.90 799.22 669.11 C 804.89 661.69 810.57 653.36 819.36 649.44 Z" />
<path fill="#000000" opacity="1.00" d=" M 599.37 693.44 C 605.25 690.62 612.73 695.46 612.68 701.93 C 613.51 725.23 601.14 747.01 585.12 763.12 C 579.87 768.27 574.23 773.59 567.07 775.87 C 561.25 777.97 554.16 773.34 554.15 767.07 C 553.81 754.23 560.22 742.47 566.74 731.83 C 576.07 717.97 585.33 702.94 599.37 693.44 Z" />
<path fill="#000000" opacity="1.00" d=" M 67.23 714.37 C 88.73 711.80 110.69 717.42 129.79 727.27 C 137.65 731.57 145.51 736.61 150.84 743.97 C 154.98 749.57 145.68 757.27 140.71 752.27 C 121.30 737.65 97.42 728.86 73.05 728.36 C 68.50 727.73 62.84 728.25 59.43 724.63 C 57.05 719.45 62.35 714.77 67.23 714.37 Z" />
<path fill="#000000" opacity="1.00" d=" M 82.89 758.95 C 102.24 764.50 121.01 772.11 139.96 778.89 C 144.38 779.69 139.24 782.18 140.77 784.94 C 134.99 786.38 129.94 794.42 123.33 790.64 C 118.92 787.64 113.62 788.31 108.68 787.82 C 108.81 783.86 104.65 783.47 101.61 782.99 C 102.83 785.64 106.69 784.96 107.96 787.35 C 97.46 784.03 86.84 780.71 76.84 776.09 C 84.08 776.80 90.31 781.32 97.49 782.21 C 94.56 777.91 87.76 776.73 85.40 771.67 C 83.30 767.22 88.84 761.27 82.89 758.95 Z" />
<path fill="#000000" opacity="1.00" d=" M 731.49 769.96 C 736.59 770.58 743.26 771.50 746.21 776.08 C 741.02 777.36 734.42 774.29 731.49 769.96 Z" />
<path fill="#000000" opacity="1.00" d=" M 67.07 772.09 C 68.23 771.51 70.75 772.35 70.63 773.82 C 69.47 774.34 66.94 773.52 67.07 772.09 Z" />
</g>
</svg>
