<?xml version="1.0" encoding="UTF-8"?><svg id="a" xmlns="http://www.w3.org/2000/svg" viewBox="0 0 450 540"><path d="M108.91,249.54v-37.25c-3.55,1.48-7.28,3.2-11.11,4.59-29.57,10.74-61.67-.49-78.25-27.24C6.72,168.98,1.65,146.43,3.24,122.34,5.93,81.76,26.31,52.04,60.09,30.71c12.13-7.66,25.24-12.78,39.58-14.49,19.07-2.28,35.49,3.38,49.36,16.55,11.92,11.32,18.15,25.57,20.86,41.49,2.73,16.01,1.85,31.82-3.52,47.51,11.11-5.7,22.62-9.86,35.29-11.36-1.3-1.68-2.47-3-3.43-4.47-4.14-6.33-1.94-12.91,5.29-15.03,2.54-.75,5.45-.78,8.1-.44,2.35,.31,4.26,.08,6.32-1.07,6.98-3.88,14.49-5.81,22.5-5.66,1.02,.02,2.05,.16,3.07,.24l.29,.68c-1.16,.71-2.27,1.52-3.49,2.12-4.72,2.32-8.96,5.29-12.14,9.49-1.36,1.8-2.3,4-3.01,6.16-.51,1.54-.07,3.19,2.1,3.95,19.78-3.84,38.08,1.41,55.95,11.22-.17-1-.17-1.48-.34-1.89-13.59-33.29-6.3-62.5,17.52-88.29,11.01-11.92,24.64-19.48,40.65-22.51,17.36-3.29,33.7-.13,48.99,8.4,18.35,10.25,31.78,25.38,41.84,43.61,9.24,16.75,14.53,34.67,15.11,53.85,.62,20.38-2.96,39.78-13.81,57.44-18,29.33-52.93,42.18-85.77,31.44-4.11-1.34-8.14-2.92-12.84-4.62,3.37,14.91,3.66,29.68,2.49,44.73,4.74,.91,9.4,1.56,13.25,5.26-2.15,14.01-7.8,26.65-16.82,38.21,2.37,.79,4.36,1.39,6.3,2.1,17.69,6.43,28.72,19.06,32.24,37.31,4.91,25.5-2.65,46.99-23.14,63.46-2.11,1.69-4.57,2.95-6.9,4.44,.19,.17,.34,.41,.44,.39,7.47-1.74,12.74,6.42,9.71,13.96-2.36,5.9-6.28,10.75-10.95,15-9.28,8.44-20.29,13.03-32.73,13.63-11.72,.56-23.47,.48-35.21,.64-1.36,.02-2.74-.22-4.1-.43-5.76-.86-10.74-2.79-12.23-9.65-7.83,2.72-15.72,3.84-23.78,3.79-8.06-.05-16.03-.79-23.9-3.5-2.94,8.71-9.9,10.58-17.72,10.57-10.36-.02-20.73-.12-31.08-.62-17.22-.83-28.42-10.73-36.12-25.24-1.2-2.27-1.58-5.36-1.29-7.95,.67-6.04,4.7-8.78,12.02-8.75,.97-4.16,3.07-7.71,6.65-10.28,4.35-3.13,8.99-4.08,14.05-1.81,2.01,.9,4.03,1.76,6.01,2.63,.4-7.79,.8-15.43,1.23-23.73,0,.01-.39-.6-.88-1.14-3.45-3.82-4.87-8.34-4.71-13.42,.32-10.23,2.46-19.92,8.56-28.41,.1-.14,.06-.38,.12-.9-2.8-.74-5.64-1.48-8.47-2.23-12.86-3.39-25.2-8.05-36.26-15.56-9.72-6.59-17.81-14.65-21.63-26.17-1.69-5.11-2.42-10.27-1.05-15.6,.73-2.84,2.27-4.66,5.29-5.12,1.76-.27,3.48-.77,4.97-1.12Zm-4.68,7.82c0,2.56-.25,4.89,.05,7.13,.77,5.71,3.37,10.63,7.12,14.97,5.17,5.98,11.19,10.97,18,14.92,22.68,13.14,47.56,19.09,73.33,21.64,17.95,1.78,35.92,1.25,53.81-1.25,22.29-3.11,42.9-10.42,60.7-24.56,10.57-8.39,18.67-18.69,22.75-31.75,1.04-3.35,1.54-6.88,2.33-10.48-11.23-3.13-21.51-1.52-31.79,1.42,6.02-6.16,13.81-8.04,21.87-9.16,.08-.47,.21-.78,.18-1.07-1.39-13.25-2.48-26.54-4.28-39.73-2.39-17.53-8.33-33.95-18.46-48.48-13.67-19.6-32.6-31.91-55.66-37.95-9.16-2.4-18.46-3.55-27.68-3.01-5.72-4.24-6.75-7.41-4.02-12.79,.94-1.86,2.34-3.5,3.61-5.18,.71-.93,1.58-1.73,2.38-2.59l-.59-.83c-5.32,2.45-10.64,4.91-16.02,7.4-2.89-3.05-6.5-3.17-9.99-.16-2.8,2.42-2.91,5.75-.04,9.28,1.25,1.54,2.86,2.8,4.37,4.11,1.12,.98,2.35,1.85,3.96,3.1-2.34,.56-4.06,1.04-5.81,1.38-26.43,5.26-47.75,18.89-64.46,39.79-13.71,17.15-21.3,36.89-23.34,58.68-.95,10.1-1.21,20.26-1.82,30.39-.14,2.37-.44,4.73-.68,7.28,8.65,.37,16.66,1.49,23.35,6.98-10.91-2.09-21.74-3.04-33.14,.53Zm68.65,86.26c1.99,5.07,5.82,8.18,10.49,10.63,4.01-3.82,7.31-8.44,13.14-9.74-.07-1.51-.03-2.78-.21-4.02-.49-3.24-.9-6.5-1.67-9.67-1.21-4.95-4.42-7.4-9.57-7.63-1.31-.06-2.63,0-4.36,0,4.56-3.59,9.36-3.37,16.93,.46,.87-.06,1.82-.15,2.77-.2,7.28-.39,12.46,3.3,14.41,10.25,4.13,14.68-5.03,28.99-20.1,31.33-5.17,.8-10.36,1.45-15.87,2.21,.06,.73,.01,1.78,.26,2.75,1.36,5.21,2.46,10.52,4.28,15.57,4.52,12.55,12.21,22.78,24.03,29.25,10.74,5.89,22.51,6.9,34.52,5.59,4.36-.47,8.53-1.38,11.8-4.73,5.03-5.17,8.64-11.19,11.02-17.97,.4-1.14,.7-2.3,1.05-3.46,.57,7.94-2.56,14.82-5.57,21.87,26.08-10.25,42.54-28.59,47.89-56.46,.7,6.67,.27,13.33-2.08,19.57-2.34,6.22-5.5,12.13-8.15,17.87,4.65-3.91,9.64-8.12,14.53-12.23,3.69-27.9-6.26-51.32-22.46-72.93-19.41,6.88-38.99,10.31-59.06,11.36-20.25,1.06-39.95-2.82-59.65-6.61-4.47,6.85-7.58,13.87-8.25,21.72-1.09,12.77,5.9,21.06,17.93,21.55-8.16-6.89-9.82-10.07-8.04-16.34Zm146.78,37.92c1.42-.33,2.45-.48,3.43-.8,27.32-8.91,45.37-41.21,31.46-70.82-5.01-10.66-12.44-19.06-24.33-22.89-10.15,10.49-22.6,17.53-35.92,23.42,17.34,20.63,27.65,43.47,25.36,71.09Zm-150.82-17.97c-.18,.6-.33,.9-.35,1.2-.55,9.12,.22,18.14,2.36,27.02,.24,.98,.79,1.99,1.45,2.75,2.29,2.62,4.6,5.25,7.1,7.66,3.41,3.28,7.31,5.88,12.03,7.66-11.93-18.96-12.43-20.47-14.42-43.32-2.6-.94-5.25-1.9-8.17-2.96Zm-5.73-282.26l1.13-.26c-.64-4.23-1.27-8.46-1.91-12.69-.51,2.22-.68,4.38-.47,6.49,.22,2.17,.81,4.31,1.24,6.46ZM401.91,31.23l.26-.52c-2.14-1.66-4.28-3.33-6.43-4.99l-.59,.82c2.25,1.56,4.5,3.13,6.75,4.69Zm-117.45,49.07h-.63v9.54c.31-1.58,.27-3.16,.32-4.74,.05-1.6,.2-3.2,.3-4.8Z"/><path d="M277.49,154.34c4.22,7.34,3.23,13.23-3.14,22.18,3.16,.04,7.06-1.96,9.46-5.53,2.08-3.1,3.65-6.54,5.4-9.74,2.42,6.01-1.82,17.11-9.07,23.65,2.31,5.13,5,10.06,6.81,15.3,4.44,12.8,5.99,25.97,2.87,39.3-.94,4.02-2.72,8.09-5.06,11.48-6.61,9.57-20.16,10.95-29.07,3.41-5.29-4.47-8.33-10.34-10.32-16.78-4.84-15.58-4.94-31.42-2.08-47.35,.43-2.37,1.23-4.71,2.11-6.96,2.49-6.36,7.03-10.1,14-10.72,2.2-.19,4.42-.51,6.55-1.1,7.71-2.16,11.38-7,11.56-15.01,.02-.71,0-1.41,0-2.12Zm-32.59,51.26c.77,5.89,1.34,12.2,2.5,18.39,.84,4.49,3.97,6.49,8.55,6.31,5.65-.23,9.11-3.67,11.33-8.39,4.73-10.07,5.31-20.58,2.21-31.17-1.04-3.56-2.83-7.08-5-10.1-3.24-4.5-7.91-4.54-12.01-.9-3.06,2.72-4.95,6.13-5.63,10.03-.87,5.07-1.28,10.22-1.94,15.83Z"/><path d="M196.57,219.18c.13,10.3-.63,20.51-4.44,30.21-1.19,3.02-2.65,6.02-4.5,8.68-7.31,10.49-22.48,10.91-30.63,1.05-5.3-6.41-7.29-14.07-7.96-22.02-1.35-15.97,1.25-31.23,9.94-45,1.88-2.99,4.28-5.87,7.05-8.03,8.51-6.67,18.85-4.51,24.42,4.77,4.08,6.79,5.49,14.36,6.1,22.1,.22,2.73,.03,5.49,.03,8.24Zm-3.27-3.54c-.71-5.66-1.06-11.16-2.2-16.49-.66-3.09-2.26-6.13-4.04-8.78-1.8-2.68-4.73-2.97-7.64-1.52-4.08,2.03-6.19,5.64-7.52,9.76-3.21,9.94-2.85,19.81,1.28,29.37,1.3,3.02,3.2,6.06,5.57,8.29,4.86,4.58,11.11,2.62,12.4-3.84,1.11-5.56,1.47-11.27,2.15-16.79Z"/><path d="M186.75,273.07l-4.86-.77c3.64-2.3,6.81-4.29,9.97-6.29l.61,.3c-.74,1.44-1.48,2.88-2.37,4.6,5.02,6.36,11.02,11.19,19.72,11.35,7.38,.14,11.33-3.51,12.08-10.89,.03-.29,.18-.57,.41-1.22,.54,.77,.97,1.28,1.31,1.86,4.24,7.19,11.24,9.74,19.03,6.77,6.61-2.52,11.3-7.23,14.69-13.23-.69-1.9-1.32-3.63-2.1-5.78,4,2.4,7.52,4.52,11.54,6.93-2.02,.18-3.69,.33-5.87,.53-.83,1.51-1.84,3.33-2.84,5.16-4.95,9.09-9.7,18.29-14.92,27.22-2.61,4.45-6.77,7.48-11.79,9.18-9.13,3.09-17.98,.43-22.96-7.76-6.14-10.1-13.76-18.98-21.65-27.93Zm37.69,22.05l1.39-2.46c-5.53-.15-10.12,1.14-13.89,4.65,1.89,6.48,9.3,9.44,13.97,9.13,6.84-.45,14.19-6.1,15.54-12.4-1.59-.58-3.2-1.34-4.89-1.74-4.47-1.04-8.12,1.33-12.12,2.81Z"/><path d="M219.02,263.68c-3.81,.12-7.07-1.64-9.59-4.75-3.86-4.76-3.03-11.45,2-15.08,4.99-3.6,10.54-4.13,16.24-1.96,3.92,1.5,5.97,5.21,5.55,9.36-.75,7.38-6.5,12.53-14.19,12.43Zm8.31-16.1c-1.15-2.63-3.52-2.66-5.83-2.51-2.57,.17-5.29,.26-6.54,3.18,3.3,3.43,9.24,3.08,12.37-.67Z"/><path d="M286.72,146.84c-1.74-2.07-3.46-4.15-5.21-6.21-.48-.56-1.03-1.06-1.57-1.56-7.01-6.61-12.91-5.3-18.26,2.64-.39,.59-.76,1.19-1.23,1.92-1.36-4.63,.9-9.79,5.56-13.04,3.86-2.7,8.4-2.76,12.12-.05,5.44,3.96,8.01,9.55,8.6,16.31Z"/><path d="M171.21,154.32c-1.49-.4-2.96-.9-4.46-1.18-5.11-.97-9.5,.61-12.78,4.5-3.17,3.75-5.92,7.85-8.94,11.91-.05-.54-.24-1.2-.14-1.82,1.2-7.69,4.3-14.33,10.95-18.81,4.16-2.8,8.96-2.69,12.65,.32,1.38,1.13,2.31,2.8,3.44,4.23l-.72,.85Z"/><path d="M257.94,322.98c7.46-4.91,16.98-5.34,23.54,1.38-1.01-.15-1.64-.25-2.27-.34-2.19-.32-4.37-.82-6.57-.94-6.94-.39-9.46,1.21-12.14,7.67-1.44,3.48-2.69,7.04-4.08,10.72,9.81,.24,12.31,7.38,15.01,14.63,4.94-1.79,8.9-4.76,12.01-8.97,1.15,2.93,.51,5.76-2.39,8.74-2.18,2.24-4.72,4.13-7.51,6.54,4.23,1.07,7.77,.29,10.99-1.9,6.67-4.54,10.89-10.89,12.79-18.64,.92-3.73,1.11-7.64,2.03-11.65,.4,2.69,1.18,5.38,1.14,8.06-.19,10.65-3.66,20.12-11.15,27.85-6.17,6.37-16.52,8.27-25.33,4.15-6.07-2.84-11.89-6.33-17.5-10.02-5.64-3.71-8.12-9.36-7.48-16.14,.56-5.96,1.98-11.66,5.81-16.5,3.39-4.28,7.54-6.39,13.11-4.6Z"/></svg>