<?xml version="1.0" encoding="UTF-8" ?>
<!DOCTYPE svg PUBLIC "-//W3C//DTD SVG 1.1//EN" "http://www.w3.org/Graphics/SVG/1.1/DTD/svg11.dtd">
<svg width="1024pt" height="1024pt" viewBox="0 0 1024 1024" version="1.1" xmlns="http://www.w3.org/2000/svg">
<g id="#000000ff">
<path fill="#000000" opacity="1.00" d=" M 211.35 42.49 C 230.97 41.10 251.14 41.47 270.07 47.37 C 299.73 55.65 325.95 73.91 345.73 97.31 C 357.00 110.24 365.41 125.60 370.27 142.05 C 373.26 151.22 374.46 160.86 377.42 170.03 C 379.78 167.86 378.62 163.94 379.63 161.08 C 382.60 149.17 387.74 136.39 398.31 129.31 C 402.92 125.63 409.50 129.43 410.44 134.74 C 411.41 142.14 410.38 149.65 411.15 157.06 C 424.40 132.31 444.51 111.81 465.74 93.72 C 470.44 90.08 475.22 86.22 480.90 84.21 C 485.49 82.36 490.07 87.49 489.10 91.92 C 487.26 101.42 482.65 110.02 479.27 118.99 C 481.84 118.89 484.02 117.41 486.25 116.31 C 506.17 105.17 528.45 99.22 550.64 94.50 C 568.49 90.86 586.84 91.07 604.96 91.61 C 613.82 92.20 623.26 92.36 631.25 96.71 C 635.65 99.01 637.06 105.65 632.87 108.88 C 619.37 120.87 601.52 127.26 587.90 138.75 C 609.61 139.77 632.08 143.02 651.35 153.66 C 655.17 130.91 667.13 110.31 682.13 93.09 C 719.74 50.49 783.12 30.09 837.71 48.42 C 883.78 65.35 918.95 105.38 935.28 151.07 C 943.92 173.66 947.12 197.91 946.79 222.00 C 947.39 260.90 933.93 300.06 908.78 329.83 C 886.93 355.73 855.12 374.32 820.92 376.35 C 817.48 376.36 820.03 379.84 820.40 381.74 C 829.35 404.43 836.89 427.81 849.14 449.03 C 855.03 460.18 863.54 469.75 873.22 477.75 C 874.88 479.02 876.83 480.41 879.07 479.88 C 891.20 478.26 903.62 477.60 915.77 479.41 C 915.78 479.71 915.80 480.31 915.81 480.61 C 900.76 482.70 885.05 481.78 870.57 486.98 C 878.20 496.43 888.21 503.77 897.39 511.69 C 911.61 524.46 932.26 526.89 946.14 540.01 C 935.39 537.45 926.15 529.58 915.03 527.84 C 909.98 529.62 903.35 526.91 899.28 528.21 C 913.57 539.22 925.56 553.54 932.67 570.21 C 935.02 576.12 937.01 582.51 936.38 588.95 C 936.41 591.74 933.21 593.16 930.94 591.86 C 923.03 588.61 917.79 581.40 910.82 576.75 C 913.67 584.76 918.31 592.01 921.22 600.02 C 928.49 618.04 931.03 637.66 930.59 657.00 C 930.46 659.43 929.91 662.34 927.52 663.55 C 924.54 663.89 921.84 662.04 920.26 659.66 C 915.25 652.81 911.68 645.05 907.20 637.87 C 906.87 650.31 907.42 662.97 903.88 675.07 C 897.77 698.35 881.97 717.61 864.65 733.69 C 838.51 756.88 806.71 773.47 772.95 782.33 C 780.72 792.00 790.77 799.69 799.13 808.89 C 801.39 811.71 805.31 814.07 805.11 818.13 C 799.98 817.04 795.60 813.87 790.52 812.63 C 801.05 827.59 811.24 846.30 805.92 865.09 C 803.20 864.92 802.89 861.23 800.74 859.99 C 799.25 868.56 801.33 877.39 799.95 886.03 C 796.58 909.53 782.16 930.21 763.94 944.86 C 761.80 946.81 758.94 948.19 757.68 950.93 C 766.01 953.09 774.97 950.92 783.07 954.22 C 785.55 955.17 789.44 954.42 790.66 957.24 C 789.66 960.59 785.70 961.58 782.77 962.61 C 769.50 966.28 755.70 967.27 742.09 968.88 C 700.83 973.95 659.32 976.35 618.02 980.94 C 546.69 983.50 475.30 982.15 403.96 980.68 C 364.92 975.38 325.43 974.66 286.36 969.49 C 270.65 967.69 254.68 966.89 239.42 962.48 C 237.25 961.58 233.90 961.12 233.35 958.40 C 235.49 955.85 239.04 955.46 242.06 954.65 C 250.98 952.86 260.07 951.65 269.18 951.86 C 255.15 941.81 242.39 929.53 234.28 914.09 C 224.58 896.28 219.78 874.73 225.71 854.91 C 222.80 857.80 222.01 862.28 218.66 864.80 C 215.72 862.15 216.37 857.53 216.30 853.95 C 217.79 838.01 225.26 823.14 235.16 810.76 C 229.85 812.79 225.38 817.56 219.43 817.54 C 216.96 816.25 219.60 813.89 220.69 812.66 C 230.85 802.44 241.88 793.10 251.96 782.80 C 215.40 771.89 179.53 755.12 152.73 727.28 C 139.84 713.67 127.76 698.51 121.50 680.61 C 116.48 667.24 116.81 652.83 116.15 638.82 C 110.50 646.08 107.08 655.02 100.93 661.95 C 97.89 664.89 93.01 662.14 93.30 658.07 C 91.77 629.77 99.80 601.53 113.20 576.79 C 105.75 581.15 100.30 588.67 92.03 591.67 C 87.54 592.89 86.22 587.11 87.23 583.86 C 91.55 561.28 107.21 542.96 123.97 528.14 C 119.01 528.38 113.95 529.27 109.15 527.69 C 98.54 530.38 89.16 536.38 78.88 539.97 C 84.86 532.87 94.42 529.59 102.62 525.52 C 119.61 519.93 132.09 506.60 145.49 495.46 C 148.42 492.79 151.87 490.52 153.97 487.08 C 138.58 482.43 122.30 481.96 106.36 480.84 C 106.64 479.17 108.70 479.59 109.88 479.20 C 121.50 477.97 133.31 477.99 144.88 479.82 C 147.18 480.61 149.09 479.06 150.80 477.77 C 163.78 468.51 172.16 454.50 179.79 440.84 C 189.42 420.61 196.95 399.46 205.67 378.84 C 206.86 377.09 205.83 376.28 204.06 376.25 C 164.85 375.31 129.56 350.78 107.52 319.48 C 91.95 297.51 81.88 271.73 78.11 245.08 C 76.47 227.78 76.99 210.31 78.64 193.03 C 82.67 154.73 99.38 117.93 125.94 89.99 C 148.04 65.29 178.03 46.50 211.35 42.49 M 213.26 53.41 C 174.88 56.86 139.03 81.17 122.40 116.02 C 120.51 119.46 123.82 116.16 124.29 115.35 C 137.42 96.04 154.19 78.28 176.18 69.27 C 187.03 61.90 200.50 65.89 212.73 65.44 C 225.06 70.74 236.78 77.55 249.25 82.61 C 250.83 83.14 252.54 83.92 254.22 83.26 C 253.29 78.64 248.63 76.30 245.14 73.75 C 235.94 68.21 225.84 63.13 214.89 62.85 C 213.75 62.65 211.80 62.62 211.83 60.97 C 232.05 60.96 248.67 73.90 265.33 83.63 C 268.17 80.33 275.70 87.27 274.24 91.97 C 277.37 89.30 281.18 92.56 283.19 95.18 C 280.66 94.48 278.31 91.94 275.57 93.33 C 271.33 94.55 270.34 99.73 273.04 102.99 C 271.08 101.36 269.35 99.20 266.73 98.63 C 269.14 107.38 276.05 114.22 280.03 122.36 C 273.01 117.58 269.43 107.82 261.68 103.15 C 260.71 104.58 262.13 105.96 262.72 107.19 C 268.45 116.05 275.19 124.26 280.31 133.51 C 282.51 133.40 282.11 136.07 283.98 136.56 C 284.85 132.19 282.48 128.44 280.12 125.04 C 284.74 124.93 286.40 130.82 290.71 131.75 C 289.85 129.22 288.13 127.15 286.80 124.88 C 288.48 126.05 289.85 127.87 292.01 128.14 C 290.62 119.69 287.33 111.98 280.89 106.15 C 288.78 111.61 293.19 121.37 301.16 126.44 C 301.99 122.71 299.01 119.93 297.77 116.73 C 301.60 118.18 303.04 122.89 307.07 124.08 C 307.80 121.43 305.71 119.06 305.05 116.60 C 307.36 118.34 309.05 120.74 311.34 122.51 C 313.90 109.27 298.70 103.59 292.72 93.99 C 301.50 100.20 307.82 109.56 317.05 115.11 C 322.17 113.40 315.27 108.60 314.15 105.89 C 318.28 109.14 321.76 113.23 326.43 115.79 C 327.32 111.46 322.73 108.14 321.95 103.98 C 332.55 115.58 342.02 128.79 346.53 144.02 C 348.61 141.53 346.87 137.31 347.60 134.16 C 357.53 148.08 359.21 166.20 364.65 182.18 C 366.37 187.55 371.39 190.85 376.20 193.20 C 373.89 188.07 366.57 186.17 366.54 179.98 C 363.91 157.79 360.01 134.79 347.22 115.91 C 318.14 73.09 264.74 48.26 213.26 53.41 M 783.36 53.51 C 744.49 57.47 706.95 76.94 682.75 107.84 C 671.80 122.13 663.38 138.93 661.12 156.94 C 660.14 159.01 662.58 163.48 664.66 160.78 C 668.41 151.22 670.18 140.25 676.96 132.22 C 677.46 137.20 675.61 142.13 676.35 147.06 C 681.94 131.45 689.90 115.42 702.89 104.87 C 701.25 109.07 698.00 112.53 696.99 116.98 C 700.94 115.64 702.43 110.02 706.90 110.12 C 705.93 112.49 703.97 114.51 703.79 117.16 C 707.31 117.48 709.51 114.00 712.06 112.10 C 719.01 106.29 724.64 98.88 732.23 93.89 C 726.25 102.26 716.48 107.86 712.52 117.71 C 711.94 119.14 712.57 122.27 714.59 121.62 C 717.49 118.49 719.03 114.11 722.83 111.79 C 721.50 114.94 718.90 117.64 718.88 121.23 C 722.47 120.28 724.27 116.68 727.18 114.65 C 726.39 116.90 724.94 118.96 724.86 121.42 C 729.89 118.64 732.40 112.95 736.99 109.59 C 736.00 111.55 734.82 113.40 733.75 115.31 C 737.38 115.28 734.99 116.13 733.19 117.03 C 732.64 121.84 730.76 126.46 730.85 131.34 C 732.83 131.82 734.65 127.28 735.56 130.72 C 745.16 121.73 751.95 110.26 760.04 100.01 C 757.26 98.11 756.99 95.04 757.14 91.94 C 753.21 91.47 751.71 87.40 753.06 83.94 C 757.36 82.32 761.76 80.89 765.92 78.87 C 761.19 82.36 769.31 87.27 772.89 84.79 C 777.57 84.34 782.09 83.02 786.05 80.91 C 784.36 82.93 782.30 84.67 780.97 86.97 C 792.17 83.62 802.32 77.52 813.16 73.19 C 814.06 72.92 817.24 70.99 814.69 70.49 C 805.64 68.44 797.64 74.45 789.90 78.14 C 796.97 70.47 807.77 67.92 817.16 64.20 C 819.13 62.53 821.44 61.32 824.11 62.14 C 853.13 67.16 878.77 85.56 895.42 109.52 C 897.79 112.56 899.37 116.30 902.49 118.70 C 892.27 94.22 871.86 74.95 847.98 63.89 C 827.95 54.49 805.29 51.45 783.36 53.51 M 813.29 68.04 C 813.38 71.37 816.28 66.52 813.29 68.04 M 209.99 70.15 C 209.75 72.67 212.74 73.42 214.39 74.63 C 222.86 78.87 231.48 82.84 240.15 86.64 C 242.35 88.21 244.68 84.82 243.94 82.92 C 233.14 78.74 222.58 69.60 209.99 70.15 M 230.42 84.19 C 230.12 85.61 232.62 86.38 233.67 85.79 C 234.04 84.35 231.45 83.36 230.42 84.19 M 221.31 86.18 C 221.87 90.67 225.92 85.59 221.31 86.18 M 789.39 95.28 C 784.48 98.49 792.44 97.41 789.39 95.28 M 476.14 97.28 C 442.69 122.05 419.64 157.67 396.86 191.78 C 402.39 190.14 408.29 190.00 413.59 187.58 C 414.90 186.68 416.91 187.02 416.45 189.04 C 413.25 191.37 408.95 191.60 405.86 194.01 C 410.63 194.19 415.73 193.30 419.85 190.78 C 420.80 187.33 424.00 185.26 424.97 181.85 C 429.50 183.27 430.87 172.28 436.91 173.44 C 437.90 171.67 439.74 167.73 436.01 168.70 C 438.05 164.44 443.25 166.45 444.41 162.21 C 445.65 163.94 447.09 162.29 448.50 161.94 C 448.49 165.02 446.30 167.24 444.97 169.79 C 450.36 168.75 455.20 166.24 460.11 163.95 C 457.94 166.73 454.10 167.37 451.87 170.07 C 457.69 168.51 462.62 164.80 468.30 162.89 C 463.72 167.95 455.84 168.81 452.07 174.83 C 454.55 175.66 457.36 176.22 459.69 174.65 C 477.32 164.26 496.21 156.22 514.99 148.19 C 527.94 142.61 541.61 138.61 554.20 132.29 C 551.11 132.44 548.03 132.92 544.93 132.85 C 550.56 128.61 558.48 127.04 563.21 122.13 C 556.22 121.84 549.92 125.63 543.00 125.87 C 537.55 126.11 533.06 129.63 527.87 130.89 C 529.95 128.67 532.99 127.86 535.63 126.53 C 550.68 120.12 565.90 113.80 581.93 110.28 C 592.40 107.68 603.19 106.72 613.75 104.53 C 613.89 102.05 609.64 103.21 607.93 102.59 C 586.56 102.34 564.86 102.62 544.04 107.97 C 521.32 113.38 498.77 120.32 477.97 131.09 C 465.54 137.53 454.68 146.53 443.06 154.15 C 455.00 136.73 466.71 119.04 476.24 100.16 C 476.47 99.22 478.58 95.42 476.14 97.28 M 837.64 97.21 C 837.90 102.90 832.18 102.52 828.55 104.32 C 828.24 99.20 836.81 102.87 835.89 97.84 C 833.32 98.11 829.88 97.55 828.97 100.71 C 828.34 96.51 824.81 98.75 824.09 101.50 C 824.98 102.77 827.42 103.47 826.86 105.37 C 825.56 105.91 822.67 104.83 822.93 107.02 C 823.07 110.72 820.56 105.46 818.95 106.77 C 817.93 106.70 815.76 109.16 815.66 107.02 C 816.70 103.45 822.90 107.08 823.27 102.87 C 820.89 103.14 818.70 102.12 821.95 101.09 C 825.98 99.59 820.51 98.67 819.53 100.64 C 817.42 103.45 813.35 102.60 811.07 105.24 C 810.28 107.78 815.35 106.14 813.88 108.68 C 810.05 105.95 804.35 107.66 807.25 112.36 C 805.45 112.04 803.79 111.05 801.94 111.11 C 802.75 113.49 806.94 113.46 806.64 116.49 C 802.99 117.19 800.57 111.23 797.76 116.07 C 798.91 118.46 804.40 117.92 806.00 120.85 C 802.35 120.67 797.52 119.22 794.35 122.39 C 791.34 125.29 793.38 129.75 792.35 133.14 C 781.90 139.84 784.29 154.19 780.19 163.87 C 776.13 181.07 773.02 198.56 771.11 216.12 C 777.64 206.32 783.41 194.86 794.61 189.57 C 798.33 187.40 802.25 192.40 801.46 195.97 C 799.84 215.39 789.25 234.07 773.93 245.95 C 783.31 230.84 791.79 214.58 795.73 197.14 C 793.07 196.63 791.59 199.39 789.91 200.94 C 773.23 220.26 766.24 245.41 758.13 269.05 C 762.25 265.84 764.59 260.95 768.46 257.46 C 778.56 247.83 791.60 239.68 805.98 239.71 C 813.06 239.60 821.42 243.22 822.83 250.89 C 824.26 260.05 817.27 267.40 810.95 272.96 C 806.73 276.26 810.74 282.02 808.43 286.26 C 803.11 300.00 789.01 307.12 775.18 309.32 C 779.28 314.36 783.61 319.61 789.67 322.38 C 801.55 327.98 815.06 328.58 827.08 333.78 C 827.91 334.49 830.30 334.86 829.59 336.40 C 820.67 337.82 811.88 340.28 802.86 340.86 C 807.09 337.36 814.86 338.40 818.73 336.11 C 810.39 334.99 800.77 335.76 791.96 335.89 C 795.77 341.21 799.68 346.48 802.68 352.32 C 804.29 354.75 805.70 358.34 808.98 358.70 C 842.17 359.83 874.74 342.88 894.71 316.68 C 934.27 264.58 937.31 186.09 898.25 132.83 C 885.42 113.90 864.87 98.66 841.45 97.46 C 840.18 99.07 838.90 98.30 837.64 97.21 M 173.18 98.36 C 144.61 106.05 124.68 130.49 111.78 155.84 C 98.03 182.73 97.19 213.80 99.55 243.29 C 103.69 275.48 117.45 307.24 141.38 329.63 C 159.36 346.73 183.37 357.17 208.05 359.20 C 212.29 359.25 218.04 359.96 220.35 355.45 C 223.87 349.22 228.56 343.25 230.70 336.47 C 224.01 336.64 216.43 335.63 210.26 337.12 C 213.47 339.04 220.13 338.01 223.62 340.88 C 213.66 340.71 203.62 339.41 194.02 336.74 C 203.72 328.07 217.37 329.29 228.97 325.15 C 237.25 322.44 242.81 315.32 248.60 309.25 C 234.77 307.79 220.96 299.29 215.91 285.95 C 214.09 281.92 217.22 276.75 213.55 273.47 C 208.33 268.25 202.55 262.68 201.21 255.08 C 200.14 250.06 202.97 244.75 207.56 242.58 C 215.13 238.89 224.25 239.21 232.03 242.13 C 245.33 246.55 254.19 257.95 264.94 266.15 C 256.18 241.49 249.13 214.02 228.99 195.96 C 230.48 214.31 240.84 230.46 249.57 246.22 C 236.40 235.96 227.91 220.25 224.22 204.12 C 223.67 199.75 221.73 193.93 225.54 190.54 C 230.17 188.83 233.87 193.22 237.04 195.93 C 243.40 201.49 248.11 208.53 252.85 215.39 C 251.14 198.54 247.53 181.95 244.57 165.29 C 243.96 162.23 243.75 158.85 241.52 156.45 C 239.07 151.95 242.48 143.02 235.71 141.84 C 239.33 136.37 233.26 130.28 231.86 124.75 C 228.12 121.99 234.04 129.83 231.06 128.64 C 230.31 126.01 227.09 125.03 227.06 122.13 C 227.00 119.21 221.24 123.34 221.93 119.97 C 224.19 119.63 226.48 119.93 228.76 119.85 C 226.04 118.75 225.00 115.45 221.92 115.76 C 221.43 113.79 223.04 114.47 224.23 114.68 C 221.69 110.62 217.26 108.42 213.87 105.81 C 212.53 111.38 221.40 109.23 221.01 113.99 C 218.71 116.29 214.40 116.57 211.79 114.65 C 214.37 113.71 216.59 112.84 219.16 114.17 C 218.03 108.60 211.33 114.07 208.83 110.18 C 210.43 110.09 212.03 110.05 213.63 110.06 C 212.54 107.79 210.15 107.25 207.89 106.97 C 208.62 105.41 211.14 106.56 212.53 106.01 C 210.55 103.19 207.78 102.69 205.26 104.96 C 207.83 101.68 202.48 98.18 202.75 102.79 C 199.73 100.61 197.48 104.33 198.01 107.19 C 199.48 107.60 201.30 107.64 201.90 109.33 C 201.01 109.87 198.83 109.68 199.66 111.27 C 201.17 114.36 192.60 110.85 195.94 109.86 C 200.05 108.31 193.48 102.88 197.81 101.79 C 195.20 99.28 199.96 100.52 199.24 99.14 C 195.20 98.21 190.02 96.85 186.68 100.10 C 183.03 96.77 179.65 98.13 176.03 100.24 C 178.57 96.88 175.85 97.44 173.18 98.36 M 760.35 104.30 C 752.65 112.03 746.85 121.67 741.69 131.24 C 743.44 132.57 746.28 127.09 748.39 125.54 C 749.94 124.94 743.25 136.11 748.12 133.11 C 755.12 124.62 761.67 115.74 768.91 107.43 C 766.86 107.97 766.21 106.95 766.26 105.09 C 764.27 105.09 762.24 103.89 760.35 104.30 M 256.15 106.17 C 258.87 112.44 264.18 117.17 267.02 123.37 C 263.04 121.55 262.30 116.29 259.27 114.21 C 260.54 119.93 264.42 125.18 269.09 128.60 C 272.31 127.70 274.10 131.54 277.20 131.27 C 275.74 125.41 270.84 121.29 267.39 116.56 C 263.69 113.24 261.18 106.93 256.15 106.17 M 290.90 120.93 C 291.44 122.96 292.19 125.10 294.00 126.36 C 293.92 124.28 294.03 120.39 290.90 120.93 M 228.17 122.21 C 226.64 125.28 231.51 122.28 228.17 122.21 M 790.34 130.34 C 786.14 133.37 793.48 132.96 790.34 130.34 M 550.20 137.38 C 542.65 139.33 535.84 143.30 528.38 145.48 C 518.23 147.34 509.45 153.08 500.16 157.22 C 492.07 161.46 482.86 164.30 476.26 170.84 C 481.97 171.99 489.83 167.11 496.64 166.88 C 495.09 172.55 488.30 171.49 485.26 175.72 C 488.56 177.25 492.79 178.02 494.40 181.75 C 496.49 184.13 489.21 181.89 491.16 183.80 C 495.33 186.57 488.72 188.93 486.47 190.32 C 476.78 191.52 466.57 188.21 457.04 191.18 C 459.32 194.88 464.61 194.86 468.32 196.53 C 476.89 199.83 486.57 201.82 493.84 207.51 C 490.10 206.94 486.42 204.30 482.59 205.47 C 481.44 208.35 479.38 212.37 482.07 214.97 C 487.12 220.30 493.33 224.36 498.64 229.40 C 501.20 234.29 505.54 238.02 510.15 240.95 C 509.08 239.26 507.86 237.68 506.79 236.01 C 511.54 238.17 515.74 241.07 519.79 244.26 C 524.00 244.17 526.57 247.50 529.99 249.31 C 529.30 248.03 528.51 246.81 527.84 245.53 C 532.92 246.72 535.67 253.61 541.15 253.09 C 542.07 249.65 537.80 247.75 536.49 244.95 C 540.31 246.17 543.07 250.04 547.18 250.22 C 547.69 246.67 543.73 244.78 542.78 241.64 C 545.16 242.54 547.07 244.60 549.77 244.61 C 547.66 239.68 542.81 236.90 539.66 232.77 C 546.64 236.72 552.47 242.91 560.36 245.16 C 557.85 238.85 553.89 232.98 548.74 228.84 C 550.64 235.63 547.48 228.47 545.61 226.36 C 526.02 210.98 502.01 203.02 478.73 195.17 C 492.44 196.17 505.38 202.08 518.25 206.63 C 527.85 210.80 537.70 215.53 548.48 214.75 C 546.41 212.97 543.67 212.10 541.88 210.01 C 547.92 212.01 553.91 215.72 560.57 213.98 C 559.25 211.19 555.33 211.63 553.78 209.06 C 558.17 208.47 562.56 209.39 566.93 209.79 C 560.63 198.75 545.51 200.29 536.18 193.66 C 548.41 196.16 560.63 200.34 573.07 200.86 C 569.36 197.46 563.59 197.33 560.20 193.61 C 565.94 194.43 571.96 200.24 577.67 196.65 C 580.96 193.95 574.38 194.35 574.78 191.85 C 577.07 190.66 579.75 191.17 582.23 190.79 C 578.82 187.62 573.87 187.37 569.93 185.18 C 573.40 185.05 577.92 187.22 580.67 185.73 C 578.68 183.82 575.25 182.90 572.87 181.10 C 575.99 181.04 579.07 181.66 582.19 181.78 C 576.91 177.54 569.34 177.66 563.70 174.08 C 578.95 175.86 593.56 181.00 608.00 186.02 C 625.28 191.88 640.49 202.33 655.04 213.10 C 656.03 213.87 657.15 214.33 658.39 214.48 C 655.58 209.51 650.74 206.12 646.53 202.42 C 622.57 183.50 593.88 170.53 563.95 164.66 C 543.08 162.15 522.00 164.70 501.05 163.53 C 501.41 162.12 503.01 161.81 504.13 161.16 C 520.38 154.06 536.41 146.41 552.13 138.22 C 555.38 136.21 551.99 136.74 550.20 137.38 M 401.46 139.46 C 385.56 151.38 386.81 173.26 386.74 191.03 C 386.34 194.30 391.38 192.34 391.10 189.98 C 391.78 184.22 391.33 178.00 393.85 172.67 C 394.03 178.61 392.10 184.45 392.62 190.39 C 395.77 190.88 397.16 186.58 397.80 184.11 C 400.31 170.18 401.75 156.06 402.52 141.94 C 402.30 141.13 403.09 138.83 401.46 139.46 M 572.34 150.47 C 561.81 151.54 551.21 152.69 540.95 155.37 C 542.60 156.98 545.84 155.68 548.07 155.85 C 573.36 153.70 599.03 154.88 623.93 159.91 C 636.29 162.28 647.66 169.38 660.00 170.86 C 634.56 153.71 602.67 147.40 572.34 150.47 M 444.51 165.46 C 443.23 169.25 448.80 164.06 444.51 165.46 M 374.43 178.53 C 375.41 181.85 377.36 185.00 380.10 187.15 C 378.80 184.00 377.50 180.37 374.43 178.53 M 647.34 186.46 C 640.45 185.46 653.20 194.41 653.59 188.72 C 655.27 185.24 649.38 186.76 647.34 186.46 M 360.22 197.38 C 354.70 199.04 348.44 201.23 344.92 206.00 C 351.19 204.01 357.22 201.16 363.09 198.18 C 366.13 196.21 361.57 197.26 360.22 197.38 M 661.96 197.15 C 666.56 200.98 673.08 202.43 678.33 205.47 C 674.25 200.80 668.15 197.67 661.96 197.15 M 394.36 198.51 C 379.13 199.26 363.73 204.51 351.10 212.52 C 359.39 211.02 367.22 207.10 375.71 206.71 C 361.34 213.78 345.58 220.01 333.76 231.25 C 340.33 229.78 345.59 224.54 352.23 223.63 C 347.87 230.53 337.95 230.97 331.45 235.41 C 321.15 242.21 310.08 249.00 302.81 259.17 C 307.66 256.77 311.95 253.23 317.23 251.71 C 316.51 253.10 315.26 258.40 314.33 254.25 C 312.05 255.47 309.84 256.97 308.33 259.11 C 310.47 258.20 312.60 256.71 315.01 257.73 C 323.74 253.98 329.90 245.48 339.27 242.85 C 332.97 248.64 324.08 251.73 318.81 258.93 C 318.04 259.72 316.45 263.07 318.88 262.19 C 326.81 259.15 333.02 252.64 341.11 249.93 C 339.50 252.06 336.61 252.82 335.13 255.04 C 333.26 261.20 327.43 266.15 328.82 273.15 C 330.70 273.69 332.46 272.41 334.27 272.05 C 320.36 283.11 306.47 294.31 294.27 307.30 C 290.05 311.81 285.54 316.31 283.20 322.15 C 289.80 317.12 294.90 310.12 302.03 305.83 C 298.11 311.19 292.45 314.99 288.61 320.40 C 294.86 320.32 286.63 321.39 286.35 324.24 C 273.71 344.77 259.51 365.00 252.16 388.22 C 255.27 386.50 255.57 382.33 257.99 379.90 C 256.45 386.19 253.18 391.90 251.02 397.99 C 244.18 414.72 242.56 432.86 238.64 450.35 L 237.87 450.41 C 238.70 438.55 240.22 426.72 242.76 415.10 C 242.70 413.76 244.07 411.81 242.46 411.02 C 237.96 423.50 236.85 436.85 237.38 450.02 C 238.11 463.12 237.61 476.49 241.00 489.26 C 234.55 487.33 228.42 484.30 221.79 482.94 C 229.39 489.14 239.69 491.77 246.43 499.07 C 239.27 497.29 232.42 494.21 225.02 493.34 C 227.46 497.62 233.95 497.79 237.05 501.81 C 227.45 501.75 218.21 497.44 208.47 498.07 C 212.05 500.85 217.56 500.37 221.06 502.94 C 214.74 503.75 208.27 502.60 202.01 503.90 C 207.02 506.24 212.89 505.53 217.99 507.62 C 198.31 508.44 178.40 507.18 158.91 510.32 C 147.09 514.00 134.32 516.46 123.70 522.82 C 135.10 521.97 146.08 517.94 157.54 517.67 C 133.78 531.30 110.34 550.36 98.86 576.16 C 114.35 563.32 130.37 550.12 149.26 542.57 C 147.11 546.76 143.52 549.94 140.67 553.63 C 128.12 568.00 119.11 585.16 112.73 603.07 C 107.64 617.28 103.75 632.09 103.16 647.24 C 113.21 630.16 123.05 612.68 134.90 596.78 C 125.82 624.52 123.73 655.69 134.58 683.27 C 135.79 685.89 136.19 689.30 138.70 691.04 C 136.77 680.16 137.48 669.03 137.75 658.04 C 138.20 653.66 137.66 648.95 139.59 644.89 C 140.53 655.32 140.98 665.84 143.15 676.13 C 146.91 696.03 156.84 715.12 172.05 728.60 C 167.88 719.22 164.50 709.40 162.83 699.24 C 170.19 709.70 173.59 722.86 182.98 732.00 C 189.70 738.43 196.72 745.01 205.14 749.11 C 202.33 742.71 197.60 737.31 195.09 730.75 C 205.11 740.62 213.68 753.84 227.07 759.14 C 224.22 754.56 219.41 751.59 216.69 746.93 C 246.65 768.62 283.90 782.96 321.35 779.08 C 321.58 775.70 320.90 772.36 320.39 769.05 C 311.18 708.35 335.81 644.94 380.97 603.94 C 393.41 592.41 407.52 582.84 422.07 574.19 C 426.53 571.59 431.03 568.87 436.10 567.63 C 434.32 562.92 431.18 558.81 429.81 553.94 C 428.43 549.54 429.24 544.84 428.35 540.37 C 423.32 543.00 419.06 546.94 413.80 549.12 C 420.42 540.92 430.46 530.85 442.04 534.36 C 439.13 536.05 433.69 536.59 433.95 540.99 C 433.74 554.01 446.37 564.69 459.03 564.35 C 476.27 565.29 497.51 560.89 505.62 543.79 C 508.05 541.06 504.94 533.07 505.03 540.11 C 498.85 538.88 492.79 536.25 487.92 532.21 C 489.62 532.38 491.32 532.65 493.03 532.79 C 492.79 530.78 490.33 531.30 488.95 530.66 C 483.88 529.39 480.38 525.10 475.49 523.48 C 470.86 519.42 467.99 513.56 466.46 507.66 C 465.02 500.10 471.13 493.79 476.98 490.04 C 493.22 479.92 513.98 478.60 532.04 484.15 C 542.75 487.70 556.43 494.12 557.23 506.97 C 555.30 517.71 546.37 526.28 536.95 531.08 C 538.17 529.58 539.83 528.52 541.07 527.03 C 533.09 530.51 525.25 534.36 516.93 537.02 C 515.81 541.19 518.31 545.84 520.75 549.21 C 533.59 563.93 556.07 569.12 574.27 562.42 C 583.43 559.30 590.75 549.12 587.58 539.35 C 586.84 536.44 583.81 535.89 581.38 535.13 C 582.89 532.36 586.73 532.73 589.32 533.50 C 596.94 535.95 603.91 540.68 608.96 546.88 C 603.96 547.05 599.13 542.18 594.23 540.21 C 594.23 549.15 594.48 559.53 587.42 566.18 C 591.45 569.93 596.92 571.57 601.55 574.44 C 617.68 583.72 633.28 594.31 646.49 607.51 C 662.12 623.65 676.72 641.33 685.98 661.98 C 702.74 697.15 710.53 737.44 702.11 775.93 C 700.89 779.13 705.21 779.15 707.31 779.55 C 742.95 781.31 778.77 769.31 807.04 747.84 C 804.30 752.37 799.73 755.39 796.90 759.84 C 810.91 752.88 819.92 739.23 829.87 727.76 C 826.71 735.58 822.03 742.64 818.11 750.07 C 827.56 745.66 835.16 737.82 842.38 730.41 C 850.89 721.26 854.49 708.95 861.18 698.69 C 860.00 708.84 855.86 718.35 852.96 728.08 C 869.43 712.27 879.05 690.34 882.13 667.91 C 883.14 661.93 882.95 655.81 884.27 649.88 C 884.57 650.06 885.15 650.41 885.44 650.58 C 886.89 663.24 886.57 676.08 885.75 688.79 C 897.33 668.95 898.32 644.47 895.30 622.13 C 894.46 614.23 891.69 606.68 890.98 598.79 C 902.03 614.19 910.11 631.65 920.89 647.25 C 917.31 608.82 901.83 571.52 875.78 542.89 C 891.33 549.86 905.46 559.63 918.40 570.64 C 920.58 572.45 922.65 574.50 925.33 575.59 C 916.04 557.75 902.61 541.59 886.28 529.71 C 880.29 524.90 872.03 522.93 866.94 517.25 C 878.22 517.97 889.02 522.02 900.30 522.81 C 889.37 516.94 876.79 514.34 864.91 510.76 C 847.27 506.16 828.86 508.89 810.89 507.53 C 814.38 505.03 819.17 505.72 823.18 504.51 C 816.12 500.49 807.92 504.56 800.40 504.05 C 804.21 500.98 810.34 501.49 813.95 499.09 C 804.27 497.90 794.64 502.68 785.20 501.19 C 789.07 497.40 795.21 497.54 799.22 494.01 C 791.50 493.75 784.21 496.69 776.75 498.15 C 785.30 491.09 796.61 488.16 805.68 481.94 C 798.13 483.51 791.09 486.81 783.72 489.02 C 785.55 473.07 785.33 456.84 783.81 440.86 C 780.02 424.44 777.49 407.55 770.75 391.97 C 769.25 387.92 766.76 384.22 766.01 379.92 C 770.21 386.52 773.11 393.90 776.30 401.03 C 781.38 412.90 781.93 426.29 786.62 438.15 C 786.45 426.34 782.63 415.01 778.79 403.97 C 770.98 382.80 761.10 362.42 749.77 342.92 C 742.46 330.68 734.70 318.54 724.74 308.26 C 723.84 307.37 723.17 306.28 722.91 305.05 C 729.90 309.64 735.13 316.46 742.17 320.95 C 735.45 311.81 727.62 303.45 719.45 295.58 C 709.06 286.05 696.77 278.92 686.01 269.88 C 687.94 265.70 683.91 261.53 681.85 258.03 C 682.70 255.74 684.93 253.69 683.11 251.24 C 686.08 248.87 690.08 249.54 693.48 250.37 C 692.12 245.75 695.54 249.52 696.52 251.32 C 702.10 252.47 706.06 258.61 712.24 257.18 C 711.39 255.82 709.94 255.02 708.72 254.08 C 708.80 257.97 707.31 254.29 706.48 253.59 C 700.46 246.55 691.43 242.91 683.33 239.10 C 684.83 237.93 686.35 236.78 687.90 235.66 C 692.24 237.26 693.75 242.16 697.74 244.29 C 703.57 247.93 709.10 252.64 715.81 254.45 C 704.50 241.33 688.32 232.95 672.62 226.10 C 673.14 230.95 668.08 232.95 664.02 232.47 C 652.08 231.36 640.67 227.29 628.96 224.99 C 637.44 234.08 646.79 243.06 651.86 254.60 C 639.51 257.78 626.56 257.13 613.92 256.76 C 608.88 257.20 606.59 250.76 601.43 251.32 C 600.71 254.11 601.42 257.29 599.94 259.85 C 598.02 260.18 596.07 260.24 594.16 260.56 C 598.49 270.36 605.69 279.71 605.14 290.94 C 605.11 295.29 601.18 298.55 597.01 298.71 C 586.32 299.30 576.22 295.00 566.06 292.34 C 562.49 291.00 559.33 293.61 555.88 294.05 C 556.66 292.73 557.48 291.44 558.17 290.07 C 544.08 289.48 533.68 278.20 522.03 271.55 C 520.12 272.63 520.99 275.86 519.41 277.46 C 516.77 280.61 512.08 279.60 508.71 278.46 C 495.68 273.57 485.55 263.65 474.46 255.63 C 471.79 253.22 468.65 256.70 465.66 255.50 C 455.10 252.57 447.28 244.47 439.06 237.74 C 441.21 241.44 444.13 244.76 445.22 249.00 C 443.38 248.79 439.80 246.72 439.22 249.59 C 441.52 251.38 447.27 250.77 445.10 255.16 C 443.38 254.96 442.30 253.49 440.96 252.60 C 439.83 254.29 441.07 255.76 441.87 257.22 C 432.21 259.11 425.63 248.64 416.31 247.61 C 418.80 252.34 424.95 253.08 428.26 257.00 C 422.12 253.71 415.23 252.19 409.08 249.08 C 411.48 246.18 409.65 246.33 407.05 246.99 C 409.08 244.04 407.05 241.36 403.85 240.83 C 401.47 238.17 400.47 234.48 398.86 231.31 C 402.55 230.68 401.21 225.63 399.10 223.87 C 400.46 222.83 403.66 226.78 403.29 224.01 C 399.30 218.08 405.14 211.87 406.01 205.81 C 407.07 209.86 409.54 204.61 410.27 207.78 C 411.58 206.54 414.05 205.98 414.38 204.04 C 413.16 202.18 411.45 200.61 411.36 198.23 C 405.71 197.55 400.01 198.25 394.36 198.51 M 427.53 203.37 C 426.25 205.34 423.97 204.38 422.08 204.41 C 421.94 206.45 423.71 207.72 425.26 208.65 C 431.82 212.60 436.31 219.06 442.34 223.66 C 445.32 226.31 447.55 220.64 445.36 218.60 C 440.79 212.47 435.41 206.64 428.97 202.47 C 428.61 202.69 427.89 203.15 427.53 203.37 M 419.90 207.87 C 420.27 210.20 421.30 212.43 423.02 214.09 C 422.58 211.78 421.68 209.47 419.90 207.87 M 665.81 208.97 C 668.57 211.53 672.49 212.64 676.17 212.99 C 673.44 210.41 669.38 209.75 665.81 208.97 M 461.37 212.64 C 459.95 213.18 458.45 213.36 456.95 213.43 C 458.61 221.18 466.32 225.60 470.02 232.31 C 463.55 228.58 459.70 221.36 453.03 217.90 C 460.77 227.38 470.67 234.65 481.10 240.71 C 484.68 240.81 487.99 242.04 491.02 243.88 C 490.43 242.57 489.74 241.32 489.16 240.01 C 491.24 240.78 493.14 241.92 495.13 242.89 C 488.48 233.03 479.30 225.21 470.10 217.81 C 467.32 215.97 464.68 213.22 461.37 212.64 M 479.07 216.93 C 483.87 224.22 491.42 229.27 497.97 234.92 C 494.89 227.33 486.90 220.89 479.07 216.93 M 425.96 218.96 C 426.91 221.27 427.82 223.95 430.09 225.31 C 429.28 222.88 427.81 220.71 425.96 218.96 M 669.98 219.00 C 674.17 224.14 681.38 225.90 687.20 228.81 C 682.36 224.53 676.21 220.80 669.98 219.00 M 434.26 231.87 C 433.86 236.00 438.10 231.77 434.26 231.87 M 418.09 245.25 C 419.90 250.35 427.94 248.08 430.21 252.84 C 431.54 252.57 432.81 252.07 434.07 251.55 C 432.45 247.12 427.17 248.89 423.92 246.93 C 422.08 246.05 420.11 245.47 418.09 245.25 M 210.34 248.41 C 204.30 251.59 208.47 258.72 211.67 262.41 C 221.83 273.82 235.97 281.03 249.63 286.98 C 239.82 287.01 230.82 282.19 222.02 278.94 C 220.81 285.80 226.54 290.92 231.40 294.71 C 233.01 295.80 235.24 298.13 237.10 296.21 C 240.38 293.11 244.81 291.89 249.08 290.84 C 248.48 294.00 247.53 297.53 244.18 298.77 C 254.85 302.08 260.58 290.23 267.28 284.29 C 272.71 279.04 265.81 273.55 262.12 269.88 C 248.87 256.31 230.11 244.09 210.34 248.41 M 797.17 248.36 C 781.87 251.46 769.31 261.72 759.07 273.02 C 756.59 275.69 752.77 280.29 756.41 283.59 C 758.99 286.62 763.00 285.21 766.18 284.19 C 764.74 285.70 762.70 286.30 760.89 287.20 C 765.58 295.88 776.86 294.91 785.11 296.43 C 784.41 296.85 783.00 297.71 782.29 298.14 C 789.33 296.97 795.19 292.00 799.73 286.74 C 800.61 285.28 802.72 282.96 801.26 281.46 C 792.03 283.13 783.17 286.33 774.11 288.64 C 774.60 286.93 776.49 286.55 777.82 285.75 C 788.28 281.17 797.93 274.89 806.82 267.76 C 811.24 264.22 815.22 259.58 816.34 253.88 C 816.78 251.75 816.27 248.95 813.94 248.20 C 808.44 247.01 802.68 247.40 797.17 248.36 M 413.29 249.04 C 413.38 252.37 416.28 247.52 413.29 249.04 M 432.30 253.21 C 432.73 254.59 435.51 254.22 436.62 253.58 C 436.25 251.98 433.41 252.56 432.30 253.21 M 312.23 275.33 C 309.05 276.27 306.10 280.78 308.17 283.92 C 313.45 286.40 319.30 276.61 312.23 275.33 M 284.42 277.52 C 251.30 307.81 231.38 348.94 213.38 389.29 C 204.25 410.47 197.20 432.81 184.20 452.07 C 182.28 455.35 179.49 458.30 178.75 462.14 C 189.89 454.25 199.21 443.32 204.56 430.67 C 212.96 411.62 217.98 391.32 225.87 372.08 C 239.06 338.74 260.46 309.51 282.40 281.47 C 283.11 280.57 285.96 276.53 284.42 277.52 M 710.10 277.15 C 705.33 280.01 711.64 286.98 715.49 283.48 C 718.18 280.04 713.75 275.68 710.10 277.15 M 744.74 283.73 C 758.83 305.97 776.22 326.24 788.19 349.85 C 802.41 377.57 809.46 408.24 822.50 436.46 C 827.71 448.25 837.58 457.00 848.14 463.96 C 846.64 460.38 843.79 457.64 841.66 454.46 C 830.50 438.66 823.84 420.34 816.48 402.61 C 806.21 376.83 794.43 351.58 779.81 327.95 C 770.00 311.96 759.59 295.44 744.74 283.73 M 293.40 289.47 C 288.27 289.41 286.87 297.37 291.08 299.48 C 297.12 300.58 301.07 289.22 293.40 289.47 M 729.45 289.48 C 724.15 290.41 726.20 297.79 730.02 299.30 C 732.28 298.83 734.20 297.18 735.56 295.36 C 735.36 292.46 732.59 289.09 729.45 289.48 M 284.20 291.32 C 278.00 295.31 273.60 302.11 271.13 309.00 C 276.17 306.65 278.78 300.59 282.60 296.54 C 283.64 295.36 286.26 291.42 284.20 291.32 M 740.09 291.07 C 741.51 298.07 747.87 303.69 753.17 308.23 C 750.45 301.58 745.99 295.25 740.09 291.07 M 299.46 295.51 C 292.61 302.45 285.83 309.79 280.86 318.21 C 286.92 311.86 293.21 305.70 299.31 299.38 C 300.74 298.31 302.94 293.02 299.46 295.51 M 737.51 296.53 C 736.15 298.53 733.12 298.94 732.33 301.21 C 735.10 303.02 739.99 297.31 737.51 296.53 M 778.38 298.39 C 778.14 299.94 781.79 299.52 781.70 298.15 C 780.56 297.53 779.45 297.61 778.38 298.39 M 728.71 300.86 C 732.25 306.05 736.92 310.68 742.12 314.22 C 738.64 308.99 733.95 304.31 728.71 300.86 M 747.99 334.76 C 753.56 347.06 761.08 358.65 768.40 369.80 C 762.77 357.62 756.88 344.82 747.99 334.76 M 274.49 337.48 C 269.72 344.57 264.70 351.73 261.50 359.68 C 267.30 353.27 271.31 345.29 275.42 337.70 C 275.18 337.64 274.72 337.53 274.49 337.48 M 238.27 368.13 C 234.30 371.94 240.85 370.95 238.27 368.13 M 768.31 370.20 C 768.77 370.73 768.77 370.73 768.31 370.20 M 234.95 374.32 C 233.33 377.34 238.30 374.42 234.95 374.32 M 771.24 375.21 C 770.86 380.00 775.63 375.91 771.24 375.21 M 774.98 381.24 C 773.49 384.21 778.34 381.43 774.98 381.24 M 787.01 443.34 C 785.40 446.25 790.35 443.52 787.01 443.34 M 197.22 452.31 C 189.25 458.59 182.25 466.16 173.54 471.55 C 168.09 475.61 161.49 477.76 156.02 481.74 C 161.10 483.68 166.67 483.50 171.98 484.35 C 161.44 493.90 149.43 501.73 138.67 510.97 C 153.25 507.18 168.52 504.71 182.16 498.14 C 176.34 497.48 170.60 499.19 164.79 499.13 C 176.25 489.50 187.98 479.70 197.21 467.82 C 192.93 469.15 189.53 472.81 184.90 473.03 C 189.16 465.88 195.33 459.73 198.21 451.76 L 197.22 452.31 M 825.98 452.83 C 829.38 460.24 836.40 465.88 839.31 473.22 C 834.56 471.50 830.53 468.20 825.64 466.80 C 835.55 479.02 848.34 488.57 859.58 499.45 C 853.36 498.77 847.11 497.23 840.83 498.17 C 855.26 503.52 870.31 507.75 885.34 511.20 C 874.72 501.64 862.46 493.91 851.79 484.38 C 856.50 483.72 861.27 483.44 865.97 482.61 C 865.08 479.62 861.28 478.78 858.99 476.98 C 847.02 470.28 837.05 460.77 825.98 452.83 M 196.38 476.24 C 195.26 476.61 193.89 477.84 194.30 479.14 C 195.54 479.88 198.08 476.76 196.38 476.24 M 500.22 486.39 C 490.75 487.70 480.89 491.04 474.45 498.46 C 472.30 500.80 471.69 504.04 472.11 507.12 C 475.35 500.31 482.52 495.91 489.98 495.61 C 489.24 499.19 491.12 502.41 494.63 503.50 C 504.29 507.03 515.26 506.99 525.04 503.91 C 528.68 502.70 533.67 500.63 532.89 495.89 C 540.00 495.92 545.89 500.26 551.38 504.23 C 549.93 498.90 545.05 495.25 540.54 492.45 C 528.35 485.76 513.81 484.60 500.22 486.39 M 509.41 561.49 C 507.09 562.25 505.21 563.89 503.01 564.88 C 492.09 565.27 482.93 572.71 472.01 573.63 C 467.35 573.50 462.03 578.83 457.99 574.33 C 442.13 573.16 427.20 580.65 414.34 589.27 C 371.04 618.33 337.06 664.43 330.70 717.07 C 328.08 740.70 328.26 765.10 335.07 788.06 C 347.31 833.37 379.39 871.83 419.55 895.42 C 448.79 911.56 482.46 920.80 515.99 919.07 C 557.79 919.78 599.09 903.68 631.18 877.24 C 655.06 857.26 675.13 831.84 685.38 802.18 C 698.48 763.88 698.66 720.97 684.19 683.02 C 669.66 641.88 639.28 607.16 601.99 584.94 C 592.64 579.25 582.10 574.98 571.00 575.01 C 559.86 575.09 548.34 574.85 538.03 570.09 C 528.83 566.54 519.76 559.47 509.41 561.49 M 265.37 784.41 C 257.78 789.57 250.16 794.96 243.50 801.29 C 247.21 800.00 250.37 797.59 254.01 796.18 C 253.86 797.40 253.32 798.52 252.63 799.54 C 240.24 817.63 228.89 836.67 220.98 857.15 C 225.19 852.66 227.29 846.16 232.82 842.87 C 227.20 865.24 232.60 889.46 243.95 909.14 C 238.13 888.68 237.05 866.94 240.25 845.91 C 242.11 833.60 251.57 824.81 257.27 814.40 C 252.53 817.11 250.03 822.55 245.11 824.99 C 250.31 810.40 259.05 797.41 266.41 783.89 L 265.37 784.41 M 757.96 784.77 C 765.08 797.41 772.39 810.05 778.14 823.39 C 773.40 821.04 770.36 816.40 765.80 813.81 C 768.62 819.19 773.23 823.35 776.36 828.55 C 782.57 837.80 785.06 849.01 785.25 860.02 C 785.54 876.53 784.74 893.30 779.95 909.20 C 782.92 906.71 783.70 902.56 785.34 899.20 C 792.04 881.17 796.42 860.79 790.33 841.98 C 796.70 845.20 799.12 853.08 803.97 858.10 C 802.70 852.36 799.64 847.24 797.07 842.03 C 788.54 826.36 779.73 810.53 768.00 797.05 C 773.46 798.01 777.76 802.01 783.09 803.24 C 775.28 796.47 767.16 789.49 757.96 784.77 M 322.73 793.93 C 321.47 797.08 326.12 799.12 325.51 802.34 C 323.83 803.95 324.17 800.91 323.66 800.03 C 322.06 800.06 320.48 800.27 318.89 800.29 C 317.38 798.89 323.57 798.58 320.01 797.84 C 315.58 797.29 312.64 802.08 314.13 805.99 C 315.80 806.86 317.39 805.05 319.11 805.07 C 317.31 808.06 311.13 808.91 312.24 803.93 C 312.51 799.66 309.03 804.70 307.67 805.83 C 305.21 801.66 303.67 809.01 306.71 809.64 C 305.88 820.30 300.08 830.07 301.40 841.07 C 303.04 839.58 304.95 834.35 306.76 836.07 C 303.28 848.68 305.44 863.25 312.73 874.14 C 312.00 867.72 311.09 861.29 311.16 854.82 C 316.86 869.23 318.35 887.04 331.05 897.56 C 330.56 893.87 328.90 890.49 328.13 886.88 C 331.20 889.33 332.45 893.30 334.52 896.54 C 341.19 909.37 350.64 920.83 361.79 929.93 C 361.26 927.18 360.32 924.51 360.09 921.72 C 365.44 926.35 366.92 934.73 372.89 939.24 C 372.68 937.43 372.38 935.65 372.22 933.85 C 377.67 941.63 378.92 951.67 384.39 959.55 C 387.12 964.10 392.17 969.95 398.07 967.08 C 399.44 963.19 398.08 958.90 398.86 954.88 C 403.00 959.08 403.40 967.28 410.02 969.34 C 415.58 970.74 424.09 970.71 426.48 964.29 C 427.75 957.90 425.62 951.38 422.69 945.74 C 426.31 947.91 428.50 951.80 430.68 955.30 C 432.96 958.82 431.14 963.34 432.89 967.00 C 436.25 967.34 442.19 967.50 442.41 962.89 C 443.29 955.45 439.52 948.77 436.61 942.24 C 445.49 946.65 445.79 957.67 448.33 965.67 C 452.74 963.97 456.25 958.71 454.87 953.89 C 452.59 943.08 445.45 933.86 436.80 927.26 C 433.76 924.87 430.09 923.17 427.81 919.95 C 434.41 920.68 440.03 924.69 446.13 927.03 C 443.21 923.43 439.62 920.23 435.16 918.75 C 429.04 915.14 423.44 910.46 416.88 908.02 C 378.48 884.26 346.53 848.84 328.97 807.00 C 327.40 802.54 326.46 796.74 322.73 793.93 M 699.34 794.99 C 697.49 805.26 690.66 813.67 688.75 823.97 C 685.84 827.25 684.19 831.34 683.32 835.60 C 680.29 837.44 678.65 840.49 677.37 843.69 C 672.29 847.14 671.63 854.12 666.38 857.47 C 662.66 865.18 654.42 869.19 651.02 876.95 C 642.45 880.32 637.73 889.58 629.24 893.30 C 620.12 901.29 608.41 905.42 599.25 913.34 C 596.53 913.94 592.92 913.85 591.81 917.02 C 591.23 919.37 589.34 917.37 587.93 917.04 C 585.02 920.48 580.89 922.79 578.78 926.92 C 583.34 924.21 587.92 921.39 593.19 920.27 C 594.46 919.83 596.96 916.46 596.69 919.75 C 593.76 924.10 587.78 924.58 584.09 928.15 C 575.67 934.27 568.67 943.38 567.70 954.00 C 567.73 958.65 570.35 965.40 575.98 964.97 C 577.60 955.79 579.59 944.32 589.00 939.79 C 583.16 945.99 580.53 954.68 581.17 963.11 C 581.40 967.94 588.78 969.68 591.65 966.79 C 591.55 958.16 594.53 947.84 602.89 943.91 C 600.30 950.53 595.18 957.13 597.41 964.66 C 600.32 971.39 609.60 971.13 615.24 968.29 C 621.20 965.56 620.85 957.50 625.83 953.89 C 625.77 958.43 623.37 963.27 625.36 967.61 C 630.30 969.37 635.09 965.73 637.76 961.85 C 643.20 954.07 646.01 944.84 650.71 936.65 C 650.85 937.49 651.13 939.17 651.28 940.01 C 656.45 934.21 658.90 926.46 664.03 920.75 C 663.69 923.54 662.75 926.19 662.17 928.93 C 669.05 924.38 674.31 917.79 679.69 911.62 C 687.06 902.98 690.57 891.74 697.27 882.78 C 696.52 888.14 693.55 892.91 692.75 898.29 C 703.43 886.89 707.16 871.00 710.49 856.18 C 713.18 859.92 710.76 867.47 712.14 872.61 C 719.14 862.40 718.32 848.84 718.18 836.94 C 721.02 837.55 721.05 841.27 722.90 843.11 C 723.43 831.86 719.19 820.97 717.59 809.90 C 718.16 809.61 719.30 809.04 719.87 808.76 C 717.42 805.45 714.28 802.39 710.08 801.64 C 706.81 805.40 706.37 798.23 705.44 796.14 C 706.24 798.48 712.66 799.34 710.04 796.11 C 706.53 795.61 702.83 794.19 699.34 794.99 M 301.21 809.39 C 299.67 812.42 304.59 809.42 301.21 809.39 M 302.41 812.45 C 301.11 813.12 300.07 814.37 300.15 815.91 C 302.47 815.90 307.27 810.45 302.41 812.45 M 720.36 811.86 C 720.52 815.21 723.36 810.24 720.36 811.86 M 722.33 815.38 C 721.81 816.76 722.31 818.64 723.32 819.72 C 725.00 819.26 723.89 815.28 722.33 815.38 M 769.94 832.83 C 770.13 838.64 772.65 844.10 772.79 849.94 C 773.23 851.68 772.40 854.73 774.86 855.08 C 775.11 847.54 773.67 839.33 769.94 832.83 M 250.33 837.75 C 249.16 843.10 248.35 848.67 249.22 854.12 C 251.14 849.68 251.63 841.31 250.33 837.75 M 777.91 839.02 C 777.46 844.20 777.92 850.54 780.54 855.08 C 780.66 849.85 781.53 843.01 777.91 839.02 M 245.27 840.44 C 242.91 845.35 242.00 851.80 243.51 856.95 C 244.32 851.25 245.64 845.59 245.84 839.83 L 245.27 840.44 M 284.37 877.49 C 278.12 878.87 271.21 882.69 268.97 888.99 C 273.68 884.96 278.10 879.13 285.09 879.83 C 288.56 879.99 287.64 875.85 284.37 877.49 M 735.93 877.08 C 739.00 881.94 746.20 879.79 749.93 884.15 C 753.53 885.60 753.18 891.52 756.92 891.83 C 753.69 883.47 744.94 877.41 735.93 877.08 M 725.37 879.46 C 710.92 883.55 706.39 901.00 695.32 908.43 C 685.90 920.21 677.36 934.42 678.00 950.02 C 677.71 956.21 683.22 960.79 688.95 961.62 C 707.84 963.99 727.61 955.13 739.02 940.04 C 742.66 936.12 740.71 930.74 741.09 926.03 C 747.53 921.96 752.68 916.00 756.51 909.47 C 758.31 906.49 759.27 900.93 755.08 899.60 C 749.99 906.84 744.53 917.39 734.85 918.18 C 739.96 910.75 749.19 905.60 750.64 895.98 C 751.50 890.36 746.10 886.52 741.37 885.07 C 740.26 897.82 730.30 909.01 717.70 911.33 C 722.59 904.57 731.74 900.76 734.09 891.96 C 736.69 886.20 732.00 878.34 725.37 879.46 M 293.31 880.38 C 287.35 883.30 288.32 891.61 291.74 896.17 C 295.30 902.27 301.43 906.03 306.17 910.96 C 294.05 909.63 284.89 897.23 283.40 885.59 C 276.05 883.26 270.99 893.66 273.35 899.80 C 276.73 907.52 283.69 913.09 290.75 917.36 C 291.55 918.87 289.94 919.50 288.73 919.77 C 280.88 915.04 273.89 908.51 269.45 900.43 C 267.27 897.85 264.79 902.71 265.56 904.93 C 267.96 912.42 274.47 917.81 280.54 922.41 C 286.96 925.56 280.54 933.74 284.38 938.62 C 293.53 953.74 311.68 962.14 329.00 962.38 C 336.45 962.60 346.77 959.11 346.10 949.96 C 346.44 925.52 327.66 907.33 312.86 890.10 C 308.06 884.61 301.45 877.13 293.31 880.38 M 265.20 916.10 C 262.42 925.13 272.04 931.31 279.13 934.37 C 281.57 933.59 280.73 929.21 279.97 927.13 C 274.74 923.87 271.04 918.30 265.20 916.10 M 757.34 917.37 C 752.02 921.46 743.15 925.99 744.31 933.80 C 750.99 933.01 756.77 927.67 759.58 921.68 C 760.72 919.74 760.44 915.54 757.34 917.37 M 461.40 925.41 C 461.61 925.62 461.61 925.62 461.40 925.41 M 467.06 927.05 C 467.07 931.09 472.90 931.17 475.98 931.90 C 477.59 933.99 478.12 936.64 479.17 939.02 C 482.23 936.96 484.90 933.41 489.03 933.93 C 490.88 933.56 494.42 934.84 494.84 932.25 C 490.88 930.15 486.62 932.83 482.54 933.01 C 483.73 931.85 485.11 930.91 486.46 929.96 C 484.40 929.91 482.27 930.37 480.82 931.95 C 482.04 934.00 481.30 935.73 479.41 936.94 C 479.39 931.99 475.80 928.56 471.70 928.72 C 469.19 931.19 469.70 924.49 467.06 927.05 M 555.42 927.58 C 553.57 927.95 550.56 928.20 550.05 930.35 C 554.91 929.64 550.40 937.47 554.68 937.51 C 559.48 937.87 551.43 930.87 555.99 930.95 C 559.72 930.32 556.08 934.30 556.78 936.28 C 559.55 933.97 560.98 930.26 561.29 926.75 C 559.41 927.62 557.45 927.92 555.42 927.58 M 462.44 928.11 C 463.38 931.75 466.12 925.94 462.44 928.11 M 478.39 929.15 C 478.59 933.99 483.63 927.63 478.39 929.15 M 541.13 930.32 C 535.85 931.86 539.20 937.48 540.17 940.92 C 535.72 940.48 536.66 935.53 536.21 932.40 C 533.64 931.84 531.24 932.67 529.18 934.18 C 531.39 930.75 527.91 931.63 526.16 933.21 C 526.84 935.41 529.29 936.37 530.77 937.99 C 527.38 939.74 527.46 935.47 524.91 936.35 C 521.30 937.92 524.52 930.83 520.63 931.47 C 515.91 931.72 511.34 933.46 506.61 931.83 C 507.42 933.41 508.40 934.89 509.27 936.46 C 506.95 935.84 505.89 933.72 504.74 931.86 C 502.41 930.78 504.71 937.59 502.30 935.02 C 502.47 930.11 497.21 933.85 495.25 935.30 C 493.58 937.83 488.89 932.13 489.88 937.00 C 490.02 940.13 487.74 935.96 487.39 935.17 C 484.23 935.51 481.85 938.96 483.01 942.03 C 487.94 942.26 490.92 936.70 495.93 937.34 C 498.13 937.13 500.13 939.36 498.65 941.44 C 497.19 941.95 493.26 943.53 496.99 943.64 C 500.74 943.01 498.37 948.71 495.78 948.31 C 496.56 949.45 497.31 950.66 498.06 951.85 C 500.65 949.23 498.93 945.25 500.51 942.33 C 502.55 941.49 504.64 940.59 505.74 938.54 C 503.96 938.79 498.97 941.21 501.93 937.99 C 505.51 933.88 509.14 938.89 512.74 939.92 C 514.91 938.34 513.60 934.99 514.27 932.71 C 516.54 933.31 515.47 936.68 517.75 937.39 C 520.50 939.40 516.69 931.39 520.10 932.91 C 522.52 937.09 518.00 940.60 514.24 941.30 C 514.37 943.04 521.66 942.46 521.27 945.87 C 517.69 945.03 514.21 946.45 513.00 950.00 C 515.49 952.30 515.71 948.31 516.20 946.61 C 518.01 947.31 519.70 948.30 521.46 949.16 C 521.07 947.76 521.64 946.90 523.16 946.72 C 523.16 944.25 521.23 942.59 519.29 941.47 C 520.17 939.48 522.51 937.20 524.61 939.13 C 522.60 941.19 524.78 942.94 526.65 943.99 C 525.93 938.77 532.01 940.28 534.61 937.34 C 534.54 941.80 539.25 942.68 542.75 942.03 C 542.01 946.88 545.45 940.60 547.89 942.15 C 549.37 944.24 548.15 948.05 550.84 949.05 C 551.55 945.26 547.90 942.12 549.49 938.44 C 547.71 934.17 542.45 932.01 538.76 935.43 C 541.73 929.55 548.08 932.99 551.47 936.56 C 551.16 931.85 545.74 927.86 541.13 930.32 M 466.43 933.20 C 465.73 937.32 470.25 932.98 466.43 933.20 M 469.18 933.07 C 471.46 933.44 473.66 935.88 475.85 938.09 C 476.12 933.88 473.17 931.88 469.18 933.07 M 468.09 938.27 C 467.90 942.97 472.65 939.19 468.09 938.27 M 471.13 937.53 C 473.33 940.59 477.62 941.31 480.92 942.91 C 479.21 939.55 474.37 939.03 471.13 937.53 M 493.21 939.36 C 487.68 940.90 495.90 942.22 497.05 939.28 C 495.76 939.20 494.48 939.23 493.21 939.36 M 506.09 938.63 C 505.38 943.16 502.42 946.91 500.85 951.18 C 503.07 948.70 506.11 946.20 506.11 942.60 C 508.14 943.64 508.00 946.80 510.39 947.30 C 508.94 944.47 508.99 940.36 506.09 938.63 M 553.19 939.32 C 551.89 939.27 550.19 942.29 552.49 941.51 C 555.71 939.95 553.54 946.05 555.82 947.07 C 555.13 944.79 556.62 938.63 553.19 939.32 M 529.29 942.14 C 528.11 946.26 533.19 941.04 529.29 942.14 M 472.74 942.61 C 471.67 945.11 474.41 945.43 476.04 946.01 C 475.56 947.34 470.85 949.01 474.92 948.87 C 478.90 949.80 479.38 947.70 478.70 944.55 C 476.43 944.97 474.59 943.70 472.74 942.61 M 488.15 943.11 C 487.49 944.51 490.14 945.35 491.14 944.71 C 491.92 943.21 489.16 942.35 488.15 943.11 M 510.99 943.19 C 510.54 947.85 515.49 943.90 510.99 943.19 M 482.11 944.08 C 482.66 945.84 482.54 947.56 481.87 949.29 C 484.28 947.07 486.78 949.55 489.16 950.39 C 489.25 946.42 485.06 945.27 482.11 944.08 M 494.11 945.10 C 494.26 948.39 497.11 943.56 494.11 945.10 M 531.50 945.01 C 530.56 945.68 530.14 946.55 530.25 947.63 C 532.01 948.67 534.22 943.68 531.50 945.01 M 545.42 945.17 C 546.46 948.74 549.13 943.00 545.42 945.17 M 536.23 946.09 C 532.76 948.55 539.57 948.09 536.23 946.09 M 542.13 946.16 C 538.34 949.24 545.26 949.09 542.13 946.16 M 469.36 947.09 C 465.59 951.40 474.48 947.66 469.36 947.09 M 491.23 947.35 C 490.53 951.80 495.93 947.60 491.23 947.35 M 552.99 947.29 C 551.40 950.21 556.35 947.45 552.99 947.29 Z" />
<path fill="#000000" opacity="1.00" d=" M 791.17 65.35 C 791.94 65.24 793.49 65.03 794.26 64.92 C 791.66 68.65 786.27 68.84 782.24 70.22 C 784.68 67.80 788.06 66.66 791.17 65.35 Z" />
<path fill="#000000" opacity="1.00" d=" M 750.58 80.66 C 754.49 78.40 750.84 82.51 749.08 82.55 C 745.42 82.61 742.69 85.86 739.22 85.80 C 738.29 82.84 742.99 79.71 745.47 81.57 C 747.16 82.86 748.91 81.16 750.58 80.66 Z" />
<path fill="#000000" opacity="1.00" d=" M 280.90 80.93 C 283.71 81.80 286.55 83.33 288.18 85.87 C 285.58 84.52 282.88 83.14 280.90 80.93 Z" />
<path fill="#000000" opacity="1.00" d=" M 736.43 87.10 C 741.06 87.08 732.49 91.09 736.43 87.10 Z" />
<path fill="#000000" opacity="1.00" d=" M 298.46 92.11 C 302.43 91.55 297.77 96.10 298.46 92.11 Z" />
<path fill="#000000" opacity="1.00" d=" M 743.32 94.13 C 746.33 96.08 739.43 96.61 743.32 94.13 Z" />
<path fill="#000000" opacity="1.00" d=" M 190.64 99.58 C 194.15 97.29 195.26 101.41 190.89 100.37 C 193.03 104.16 189.70 103.42 187.61 101.52 C 188.61 100.86 189.62 100.21 190.64 99.58 Z" />
<path fill="#000000" opacity="1.00" d=" M 839.10 101.18 C 842.10 103.55 835.45 103.39 839.10 101.18 Z" />
<path fill="#000000" opacity="1.00" d=" M 741.19 103.12 C 744.08 105.21 737.45 105.65 741.19 103.12 Z" />
<path fill="#000000" opacity="1.00" d=" M 843.06 103.34 C 846.99 103.03 842.88 107.36 843.06 103.34 Z" />
<path fill="#000000" opacity="1.00" d=" M 711.44 104.26 C 712.97 105.28 709.81 108.44 708.37 108.02 C 708.13 106.31 710.04 104.91 711.44 104.26 Z" />
<path fill="#000000" opacity="1.00" d=" M 193.27 104.96 C 197.88 103.88 192.30 109.62 193.27 104.96 Z" />
<path fill="#000000" opacity="1.00" d=" M 170.33 106.36 C 173.90 107.56 168.49 110.28 170.33 106.36 Z" />
<path fill="#000000" opacity="1.00" d=" M 203.08 106.32 C 206.80 107.36 201.04 110.05 203.08 106.32 Z" />
<path fill="#000000" opacity="1.00" d=" M 180.05 108.34 C 184.10 107.82 179.58 112.29 180.05 108.34 Z" />
<path fill="#000000" opacity="1.00" d=" M 191.21 108.48 C 194.68 110.91 188.91 113.15 191.21 108.48 Z" />
<path fill="#000000" opacity="1.00" d=" M 830.18 110.40 C 834.20 109.75 829.85 114.31 830.18 110.40 Z" />
<path fill="#000000" opacity="1.00" d=" M 176.35 111.19 C 176.86 111.70 176.86 111.70 176.35 111.19 Z" />
<path fill="#000000" opacity="1.00" d=" M 819.37 111.40 C 823.58 110.50 817.18 116.38 819.37 111.40 Z" />
<path fill="#000000" opacity="1.00" d=" M 850.35 111.37 C 852.99 110.70 851.14 115.41 849.37 114.59 C 848.90 113.50 849.40 112.05 850.35 111.37 Z" />
<path fill="#000000" opacity="1.00" d=" M 187.23 112.34 C 191.20 112.02 187.08 116.41 187.23 112.34 Z" />
<path fill="#000000" opacity="1.00" d=" M 815.20 111.78 C 817.34 110.93 817.47 114.47 815.70 114.92 C 813.71 115.58 813.80 112.35 815.20 111.78 Z" />
<path fill="#000000" opacity="1.00" d=" M 204.21 113.15 C 206.87 111.84 211.11 118.72 206.29 119.22 C 207.10 116.13 202.51 116.31 204.21 113.15 Z" />
<path fill="#000000" opacity="1.00" d=" M 199.35 114.16 C 204.05 113.31 199.74 118.54 199.35 114.16 Z" />
<path fill="#000000" opacity="1.00" d=" M 828.11 114.44 C 832.23 113.83 827.68 118.27 828.11 114.44 Z" />
<path fill="#000000" opacity="1.00" d=" M 844.78 114.43 C 849.00 113.93 843.98 118.21 844.78 114.43 Z" />
<path fill="#000000" opacity="1.00" d=" M 196.40 114.97 C 197.99 114.51 199.87 117.99 198.22 118.77 C 197.01 118.09 196.13 116.33 196.40 114.97 Z" />
<path fill="#000000" opacity="1.00" d=" M 174.26 117.18 C 177.50 119.35 170.80 119.58 174.26 117.18 Z" />
<path fill="#000000" opacity="1.00" d=" M 182.36 117.12 C 186.89 116.79 183.06 121.73 182.36 117.12 Z" />
<path fill="#000000" opacity="1.00" d=" M 218.22 117.40 C 219.60 117.15 220.69 119.56 220.01 120.65 C 218.56 120.89 217.53 118.54 218.22 117.40 Z" />
<path fill="#000000" opacity="1.00" d=" M 210.33 118.14 C 213.71 117.04 216.16 119.83 215.26 123.14 C 213.13 123.49 213.36 121.09 213.28 119.81 C 213.93 117.83 209.44 119.62 210.33 118.14 Z" />
<path fill="#000000" opacity="1.00" d=" M 200.24 119.95 C 205.61 121.07 196.31 124.57 200.24 119.95 Z" />
<path fill="#000000" opacity="1.00" d=" M 813.40 120.03 C 817.32 118.99 812.10 124.14 813.40 120.03 Z" />
<path fill="#000000" opacity="1.00" d=" M 821.17 120.35 C 826.77 118.12 820.89 124.84 821.17 120.35 Z" />
<path fill="#000000" opacity="1.00" d=" M 207.35 121.24 C 214.43 120.20 202.30 126.48 207.35 121.24 Z" />
<path fill="#000000" opacity="1.00" d=" M 177.51 121.97 C 180.24 120.62 178.04 125.66 176.27 124.64 C 176.20 123.57 176.61 122.68 177.51 121.97 Z" />
<path fill="#000000" opacity="1.00" d=" M 181.12 122.39 C 185.12 121.20 180.20 126.39 181.12 122.39 Z" />
<path fill="#000000" opacity="1.00" d=" M 217.11 122.06 C 218.92 120.46 222.60 124.13 223.24 126.43 C 221.80 124.05 217.68 124.85 217.11 122.06 Z" />
<path fill="#000000" opacity="1.00" d=" M 797.32 122.42 C 798.41 121.97 801.62 121.77 798.96 122.90 C 795.75 123.00 800.46 126.60 797.98 127.21 C 796.33 129.10 791.74 125.11 795.90 125.83 C 799.89 126.67 791.46 121.96 797.32 122.42 Z" />
<path fill="#000000" opacity="1.00" d=" M 808.18 122.18 C 811.53 123.33 805.92 126.17 808.18 122.18 Z" />
<path fill="#000000" opacity="1.00" d=" M 816.30 122.08 C 820.93 121.36 816.84 126.49 816.30 122.08 Z" />
<path fill="#000000" opacity="1.00" d=" M 202.37 123.14 C 205.58 125.00 198.51 125.55 202.37 123.14 Z" />
<path fill="#000000" opacity="1.00" d=" M 801.95 122.87 C 804.10 123.65 806.04 125.11 807.05 127.22 C 804.97 126.30 803.07 124.88 801.95 122.87 Z" />
<path fill="#000000" opacity="1.00" d=" M 828.88 123.24 C 832.22 123.39 827.48 126.27 828.88 123.24 Z" />
<path fill="#000000" opacity="1.00" d=" M 834.43 123.22 C 839.06 122.43 834.80 127.67 834.43 123.22 Z" />
<path fill="#000000" opacity="1.00" d=" M 195.20 124.47 C 198.91 125.61 193.22 128.16 195.20 124.47 Z" />
<path fill="#000000" opacity="1.00" d=" M 213.25 125.16 C 217.65 124.22 212.29 130.01 213.25 125.16 Z" />
<path fill="#000000" opacity="1.00" d=" M 815.20 125.20 C 818.34 127.29 811.42 127.45 815.20 125.20 Z" />
<path fill="#000000" opacity="1.00" d=" M 823.33 125.14 C 827.91 124.96 824.02 129.75 823.33 125.14 Z" />
<path fill="#000000" opacity="1.00" d=" M 202.35 126.30 C 207.79 126.23 197.86 129.65 202.35 126.30 Z" />
<path fill="#000000" opacity="1.00" d=" M 216.46 128.45 C 217.84 127.93 219.35 128.11 220.21 129.40 C 217.74 129.58 212.33 131.96 216.46 128.45 Z" />
<path fill="#000000" opacity="1.00" d=" M 227.11 128.54 C 231.07 127.06 225.99 132.71 227.11 128.54 Z" />
<path fill="#000000" opacity="1.00" d=" M 816.20 128.61 C 821.81 125.92 815.43 133.33 816.20 128.61 Z" />
<path fill="#000000" opacity="1.00" d=" M 208.36 130.17 C 212.90 129.64 206.04 135.81 208.36 130.17 Z" />
<path fill="#000000" opacity="1.00" d=" M 805.37 130.22 C 810.02 129.17 804.42 134.81 805.37 130.22 Z" />
<path fill="#000000" opacity="1.00" d=" M 221.45 131.16 C 225.28 128.80 222.42 134.68 221.45 131.16 Z" />
<path fill="#000000" opacity="1.00" d=" M 229.16 131.16 C 232.27 133.43 225.57 133.48 229.16 131.16 Z" />
<path fill="#000000" opacity="1.00" d=" M 216.31 132.28 C 220.13 130.96 215.11 136.53 216.31 132.28 Z" />
<path fill="#000000" opacity="1.00" d=" M 232.14 133.38 C 237.36 133.16 229.82 138.17 232.14 133.38 Z" />
<path fill="#000000" opacity="1.00" d=" M 521.68 133.17 C 525.35 132.98 518.67 137.42 518.00 135.37 C 518.87 134.19 520.33 133.63 521.68 133.17 Z" />
<path fill="#000000" opacity="1.00" d=" M 802.28 133.32 C 803.26 132.61 805.40 133.60 804.64 134.93 C 803.48 136.45 799.81 134.61 802.28 133.32 Z" />
<path fill="#000000" opacity="1.00" d=" M 224.28 135.17 C 228.05 138.10 219.94 138.55 224.28 135.17 Z" />
<path fill="#000000" opacity="1.00" d=" M 799.22 137.30 C 803.43 135.88 797.88 141.14 799.22 137.30 Z" />
<path fill="#000000" opacity="1.00" d=" M 803.25 138.03 C 807.87 138.28 799.44 141.87 803.25 138.03 Z" />
<path fill="#000000" opacity="1.00" d=" M 809.34 138.38 C 813.37 136.94 807.92 142.38 809.34 138.38 Z" />
<path fill="#000000" opacity="1.00" d=" M 202.25 139.08 C 205.24 137.55 202.48 142.42 202.25 139.08 Z" />
<path fill="#000000" opacity="1.00" d=" M 216.30 138.98 C 220.09 138.66 215.78 143.15 216.30 138.98 Z" />
<path fill="#000000" opacity="1.00" d=" M 788.26 139.11 C 791.23 137.66 788.26 142.48 788.26 139.11 Z" />
<path fill="#000000" opacity="1.00" d=" M 797.08 144.53 C 801.94 143.36 797.97 148.65 797.08 144.53 Z" />
<path fill="#000000" opacity="1.00" d=" M 228.63 145.02 C 231.58 144.44 228.36 147.78 227.58 148.62 C 226.06 148.11 227.49 145.44 228.63 145.02 Z" />
<path fill="#000000" opacity="1.00" d=" M 806.19 145.29 C 809.57 145.34 804.69 148.24 806.19 145.29 Z" />
<path fill="#000000" opacity="1.00" d=" M 790.25 150.15 C 793.19 148.68 790.49 153.54 790.25 150.15 Z" />
<path fill="#000000" opacity="1.00" d=" M 806.29 151.04 C 809.26 149.47 806.43 154.37 806.29 151.04 Z" />
<path fill="#000000" opacity="1.00" d=" M 793.07 160.09 C 797.65 159.27 792.21 164.71 793.07 160.09 Z" />
<path fill="#000000" opacity="1.00" d=" M 517.30 164.95 C 520.19 163.34 517.46 168.35 517.30 164.95 Z" />
<path fill="#000000" opacity="1.00" d=" M 422.55 166.62 C 425.70 163.71 422.68 168.42 421.67 169.60 C 415.59 176.65 410.00 184.54 402.31 189.89 C 407.06 180.79 415.62 174.12 422.55 166.62 Z" />
<path fill="#000000" opacity="1.00" d=" M 496.04 169.08 C 499.06 167.57 496.17 172.38 496.04 169.08 Z" />
<path fill="#000000" opacity="1.00" d=" M 785.15 168.87 C 788.39 170.83 781.77 171.58 785.15 168.87 Z" />
<path fill="#000000" opacity="1.00" d=" M 503.29 172.99 C 506.22 171.42 503.43 176.35 503.29 172.99 Z" />
<path fill="#000000" opacity="1.00" d=" M 428.13 174.46 C 432.43 173.11 426.54 178.22 428.13 174.46 Z" />
<path fill="#000000" opacity="1.00" d=" M 426.42 176.45 L 427.61 176.00 C 421.54 180.65 415.14 185.64 407.84 188.08 C 413.60 183.61 420.22 180.29 426.42 176.45 Z" />
<path fill="#000000" opacity="1.00" d=" M 565.42 189.17 C 566.87 188.45 570.27 188.94 570.53 190.69 C 568.98 191.14 566.02 190.71 565.42 189.17 Z" />
<path fill="#000000" opacity="1.00" d=" M 535.28 193.29 C 535.85 193.76 535.85 193.76 535.28 193.29 Z" />
<path fill="#000000" opacity="1.00" d=" M 407.26 200.26 C 407.78 200.79 407.78 200.79 407.26 200.26 Z" />
<path fill="#000000" opacity="1.00" d=" M 376.23 206.24 C 376.72 206.80 376.72 206.80 376.23 206.24 Z" />
<path fill="#000000" opacity="1.00" d=" M 381.08 228.10 C 384.09 226.56 381.26 231.39 381.08 228.10 Z" />
<path fill="#000000" opacity="1.00" d=" M 376.19 231.17 C 377.64 231.95 376.55 234.54 375.73 235.56 C 374.23 235.01 374.87 231.83 376.19 231.17 Z" />
<path fill="#000000" opacity="1.00" d=" M 394.23 231.42 C 398.24 230.60 394.19 235.32 394.23 231.42 Z" />
<path fill="#000000" opacity="1.00" d=" M 384.34 233.23 C 386.01 233.83 383.67 237.39 382.26 236.94 C 381.87 235.48 383.09 233.88 384.34 233.23 Z" />
<path fill="#000000" opacity="1.00" d=" M 403.17 247.24 C 408.09 246.65 404.19 251.46 403.17 247.24 Z" />
<path fill="#000000" opacity="1.00" d=" M 401.39 251.35 C 402.88 251.03 404.66 251.62 405.93 252.46 C 405.51 254.15 401.33 253.05 401.39 251.35 Z" />
<path fill="#000000" opacity="1.00" d=" M 354.24 261.19 C 357.27 259.58 354.32 264.53 354.24 261.19 Z" />
<path fill="#000000" opacity="1.00" d=" M 493.07 289.26 C 496.40 289.48 491.46 292.18 493.07 289.26 Z" />
<path fill="#000000" opacity="1.00" d=" M 358.34 298.48 C 370.31 297.83 384.38 302.88 388.82 314.97 C 391.20 319.87 388.50 326.56 383.11 327.87 C 376.97 328.64 371.77 324.52 366.04 323.10 C 355.63 319.75 344.67 321.01 334.05 322.13 C 328.74 323.01 327.83 316.61 330.30 313.24 C 336.11 303.80 347.62 299.10 358.34 298.48 Z" />
<path fill="#000000" opacity="1.00" d=" M 654.26 299.40 C 666.60 297.48 680.62 298.82 689.82 308.18 C 693.28 311.16 698.24 316.91 694.00 321.18 C 688.23 323.30 681.93 320.70 675.96 320.90 C 665.27 320.02 655.09 323.83 645.25 327.45 C 638.87 330.07 632.32 322.38 634.39 316.24 C 636.97 307.47 645.39 300.92 654.26 299.40 Z" />
<path fill="#000000" opacity="1.00" d=" M 523.26 302.26 C 523.77 302.76 523.77 302.76 523.26 302.26 Z" />
<path fill="#000000" opacity="1.00" d=" M 549.32 302.16 C 550.90 302.85 548.50 305.59 547.23 304.90 C 546.62 303.64 548.20 302.38 549.32 302.16 Z" />
<path fill="#000000" opacity="1.00" d=" M 500.18 306.38 C 501.63 306.12 502.29 308.65 501.71 309.70 C 500.25 310.05 499.39 307.39 500.18 306.38 Z" />
<path fill="#000000" opacity="1.00" d=" M 522.26 309.26 C 522.79 309.78 522.79 309.78 522.26 309.26 Z" />
<path fill="#000000" opacity="1.00" d=" M 543.84 309.64 C 544.01 309.58 544.33 309.46 544.50 309.40 C 540.05 316.44 536.74 324.20 532.06 331.09 C 534.94 323.47 539.15 316.28 543.84 309.64 Z" />
<path fill="#000000" opacity="1.00" d=" M 536.25 313.24 C 539.60 313.22 534.70 316.27 536.25 313.24 Z" />
<path fill="#000000" opacity="1.00" d=" M 484.02 317.91 C 486.05 319.83 487.02 322.56 487.99 325.12 C 485.63 323.48 484.79 320.52 484.02 317.91 Z" />
<path fill="#000000" opacity="1.00" d=" M 514.21 356.42 C 515.36 355.43 514.09 362.65 515.81 361.62 C 519.85 357.69 516.20 365.67 516.90 367.98 C 512.96 365.11 516.86 373.06 514.07 372.91 C 513.64 367.47 513.18 361.78 514.21 356.42 Z" />
<path fill="#000000" opacity="1.00" d=" M 510.39 357.49 L 510.71 356.89 C 510.52 363.31 510.13 369.73 509.57 376.13 C 507.20 370.66 506.57 364.62 504.97 358.90 C 507.19 362.60 509.27 360.93 510.39 357.49 Z" />
<path fill="#000000" opacity="1.00" d=" M 329.31 361.42 C 344.39 360.43 360.59 360.16 374.21 367.72 C 391.78 376.88 405.11 392.83 413.51 410.56 C 423.10 431.40 427.45 455.34 422.09 477.93 C 418.57 492.21 413.61 507.25 401.97 517.01 C 406.17 508.07 411.78 499.41 413.03 489.39 C 401.01 512.93 375.63 529.67 348.75 528.70 C 354.85 525.42 361.91 524.38 368.14 521.34 C 357.40 520.63 346.52 520.98 335.91 518.91 C 311.28 512.73 289.84 493.11 284.02 468.03 C 276.39 439.24 290.71 408.29 313.64 390.68 C 324.79 381.96 339.25 378.97 353.14 379.12 C 345.27 376.83 335.20 377.88 326.72 379.54 C 297.08 388.63 277.29 417.53 271.18 446.85 C 268.69 465.38 267.77 484.74 273.23 502.85 C 262.55 490.73 258.27 473.97 258.75 458.00 C 256.91 432.16 267.31 406.43 284.17 387.14 C 296.00 374.29 311.63 363.52 329.31 361.42 M 354.24 379.06 C 354.64 382.41 357.01 377.31 354.24 379.06 M 330.34 385.46 C 319.21 387.90 309.31 396.58 306.59 407.81 C 303.53 419.23 312.06 431.39 322.93 434.66 C 329.60 435.65 336.60 435.13 342.99 432.91 C 353.75 428.33 362.63 417.20 360.71 404.98 C 361.30 389.75 343.49 381.48 330.34 385.46 M 307.30 441.41 C 297.72 442.71 293.49 456.15 299.83 463.13 C 303.63 468.02 311.31 469.02 316.24 465.28 C 320.17 462.14 322.39 456.92 321.97 451.92 C 320.64 445.46 314.33 439.29 307.30 441.41 M 388.19 459.27 C 383.68 461.26 383.02 468.14 386.96 471.03 C 390.47 474.03 396.80 471.61 397.19 466.93 C 398.50 461.95 393.05 456.43 388.19 459.27 Z" />
<path fill="#000000" opacity="1.00" d=" M 669.37 361.50 C 679.54 360.02 689.98 360.48 700.07 362.38 C 715.10 365.36 728.06 374.62 738.48 385.51 C 757.31 405.23 767.33 432.83 765.86 460.03 C 765.64 475.06 760.81 490.46 751.22 502.06 C 755.22 485.41 755.75 468.08 754.09 451.07 C 749.78 427.95 739.00 404.72 719.45 390.69 C 706.37 381.14 688.67 375.48 673.21 378.67 C 689.23 379.96 705.31 385.66 717.16 396.81 C 736.89 415.08 746.88 444.42 739.54 470.66 C 732.60 494.13 712.13 512.19 688.84 518.65 C 677.60 521.63 665.36 518.73 654.31 521.21 C 659.27 525.41 669.01 524.86 674.06 528.76 C 649.54 528.72 625.77 514.99 612.51 494.52 C 611.67 493.29 610.65 492.19 609.52 491.27 C 611.84 499.41 616.51 506.58 620.13 514.16 C 611.82 506.72 606.59 496.38 603.37 485.84 C 593.96 454.80 601.48 420.22 619.83 393.93 C 631.39 377.36 649.41 365.13 669.37 361.50 M 660.36 384.50 C 649.99 386.42 640.06 393.42 637.16 403.94 C 633.94 411.03 636.78 419.02 641.16 424.91 C 650.07 437.98 670.76 439.53 682.42 429.40 C 692.22 420.94 694.17 404.97 686.61 394.45 C 680.88 386.26 670.05 382.47 660.36 384.50 M 633.41 441.50 C 623.06 444.61 621.01 459.37 629.31 465.78 C 637.74 471.50 649.86 462.57 648.83 452.95 C 648.81 445.26 640.75 439.45 633.41 441.50 M 712.11 459.17 C 707.76 461.29 706.99 468.15 711.05 470.95 C 715.39 474.44 722.26 470.17 722.08 464.95 C 721.31 460.73 716.27 456.98 712.11 459.17 Z" />
<path fill="#000000" opacity="1.00" d=" M 176.21 513.36 C 183.79 512.45 191.54 512.40 199.13 513.33 C 187.79 517.41 175.94 520.86 164.06 522.87 C 165.82 517.35 173.99 519.33 178.22 516.51 C 175.08 516.54 170.71 513.83 176.21 513.36 Z" />
<path fill="#000000" opacity="1.00" d=" M 824.86 512.84 C 834.46 512.82 844.28 513.15 853.69 515.15 C 852.97 517.02 847.41 515.74 844.86 516.35 C 849.84 518.97 856.49 518.69 860.44 523.01 C 851.01 522.33 842.20 518.33 833.06 516.15 C 830.40 515.02 826.68 515.02 824.86 512.84 Z" />
<path fill="#000000" opacity="1.00" d=" M 296.86 523.06 C 301.47 524.09 307.83 525.33 310.01 529.80 C 305.58 527.71 300.57 526.35 296.86 523.06 Z" />
<path fill="#000000" opacity="1.00" d=" M 724.38 523.43 C 725.95 522.81 723.99 525.34 723.32 525.30 C 720.09 527.06 716.65 528.80 712.89 528.90 C 715.88 525.72 720.30 524.54 724.38 523.43 Z" />
<path fill="#000000" opacity="1.00" d=" M 436.34 525.45 C 438.70 525.38 441.64 525.43 443.08 527.65 C 436.06 529.55 428.76 530.03 421.72 531.88 C 425.18 527.49 431.01 525.90 436.34 525.45 Z" />
<path fill="#000000" opacity="1.00" d=" M 583.27 526.40 C 589.69 524.76 597.33 526.30 602.18 530.96 C 595.84 530.50 589.64 528.83 583.26 528.57 C 581.18 528.72 581.32 526.39 583.27 526.40 Z" />
<path fill="#000000" opacity="1.00" d=" M 238.32 546.44 C 245.30 546.81 254.27 545.17 260.02 548.62 C 253.06 549.89 245.96 549.72 238.93 550.30 C 220.42 551.64 202.05 556.18 185.36 564.38 C 181.87 566.01 178.53 568.05 174.80 569.09 C 177.86 564.61 182.94 562.10 187.54 559.49 C 203.31 551.71 220.80 547.51 238.32 546.44 Z" />
<path fill="#000000" opacity="1.00" d=" M 773.35 546.49 C 796.44 545.10 819.91 550.55 840.13 561.76 C 843.62 563.94 847.57 565.74 850.15 569.08 C 837.60 563.96 825.22 558.01 811.92 554.78 C 796.06 549.67 779.21 550.78 762.91 548.63 C 764.98 545.74 770.05 547.29 773.35 546.49 Z" />
<path fill="#000000" opacity="1.00" d=" M 267.26 560.41 C 269.52 560.02 271.84 559.90 274.12 560.17 C 271.71 562.02 268.60 562.52 265.83 563.63 C 237.18 573.12 210.83 589.20 188.90 609.87 C 186.24 612.22 183.82 614.92 180.65 616.58 C 181.73 613.09 184.51 610.55 186.84 607.87 C 208.22 584.74 236.48 567.43 267.26 560.41 Z" />
<path fill="#000000" opacity="1.00" d=" M 746.77 560.16 C 754.07 559.64 761.28 561.45 768.20 563.61 C 796.22 572.88 821.40 590.12 840.62 612.46 C 841.75 613.82 842.78 615.32 843.14 617.09 C 833.99 609.55 825.47 601.16 815.99 593.97 C 796.08 577.21 771.10 567.95 746.77 560.16 Z" />
<path fill="#000000" opacity="1.00" d=" M 258.87 763.20 C 268.00 764.81 276.81 767.87 285.92 769.61 C 289.65 770.72 294.04 770.61 297.23 772.93 C 284.06 772.39 270.78 768.72 258.87 763.20 Z" />
<path fill="#000000" opacity="1.00" d=" M 757.23 765.39 C 759.15 764.77 762.45 764.38 758.96 766.21 C 749.30 769.85 739.02 772.35 728.68 772.77 C 737.80 769.26 747.79 768.07 757.23 765.39 Z" />
<path fill="#000000" opacity="1.00" d=" M 338.63 770.12 C 342.00 771.15 340.85 775.28 341.82 777.91 C 345.96 793.83 352.25 809.24 360.49 823.47 C 359.82 828.18 366.30 828.54 364.00 834.10 C 361.26 831.56 359.62 828.14 357.79 824.95 C 348.81 807.75 340.78 789.59 338.63 770.12 Z" />
<path fill="#000000" opacity="1.00" d=" M 703.08 799.14 C 707.34 798.28 702.15 804.17 703.08 799.14 Z" />
<path fill="#000000" opacity="1.00" d=" M 316.00 800.95 C 317.11 800.86 320.66 802.55 318.12 803.33 C 316.32 804.80 313.76 802.08 316.00 800.95 Z" />
<path fill="#000000" opacity="1.00" d=" M 324.19 804.19 C 327.33 806.46 320.71 806.55 324.19 804.19 Z" />
<path fill="#000000" opacity="1.00" d=" M 704.02 804.13 C 706.70 805.15 708.80 804.49 711.41 803.95 C 710.65 807.44 705.11 807.30 704.02 804.13 Z" />
<path fill="#000000" opacity="1.00" d=" M 713.44 804.03 C 714.76 803.40 716.41 805.41 715.85 806.67 C 714.58 807.18 712.91 805.24 713.44 804.03 Z" />
<path fill="#000000" opacity="1.00" d=" M 699.92 804.82 C 702.35 805.50 704.94 806.40 706.72 808.28 C 705.20 810.19 703.42 811.90 701.51 813.42 C 703.79 809.98 703.30 807.21 699.92 804.82 Z" />
<path fill="#000000" opacity="1.00" d=" M 713.16 807.43 C 716.74 808.44 711.01 811.15 713.16 807.43 Z" />
<path fill="#000000" opacity="1.00" d=" M 324.32 808.07 C 328.48 807.67 323.98 811.88 324.32 808.07 Z" />
<path fill="#000000" opacity="1.00" d=" M 709.40 809.98 C 712.42 809.24 709.69 812.89 707.97 812.05 C 706.32 811.46 708.68 810.12 709.40 809.98 Z" />
<path fill="#000000" opacity="1.00" d=" M 694.99 811.42 C 698.35 811.56 693.34 814.39 694.99 811.42 Z" />
<path fill="#000000" opacity="1.00" d=" M 706.35 813.24 C 707.53 812.88 709.78 814.26 709.05 815.62 C 707.79 816.13 705.82 814.54 706.35 813.24 Z" />
<path fill="#000000" opacity="1.00" d=" M 716.36 816.21 C 716.72 816.59 716.72 816.59 716.36 816.21 Z" />
<path fill="#000000" opacity="1.00" d=" M 730.95 916.82 C 733.94 917.58 736.00 920.24 737.06 923.02 C 734.64 921.37 732.50 919.29 730.95 916.82 Z" />
<path fill="#000000" opacity="1.00" d=" M 498.27 935.11 C 502.69 934.72 498.75 939.88 498.27 935.11 Z" />
<path fill="#000000" opacity="1.00" d=" M 532.07 935.14 C 535.49 935.21 530.54 938.15 532.07 935.14 Z" />
<path fill="#000000" opacity="1.00" d=" M 543.32 934.61 C 545.29 935.19 543.52 938.35 543.93 939.98 C 545.29 939.39 546.62 938.73 547.98 938.15 C 547.14 941.78 541.35 942.48 541.14 938.27 C 542.77 937.65 543.24 936.23 543.32 934.61 Z" />
<path fill="#000000" opacity="1.00" d=" M 511.38 937.42 C 514.51 935.99 511.15 940.81 511.38 937.42 Z" />
<path fill="#000000" opacity="1.00" d=" M 486.26 938.14 C 491.62 938.90 482.51 942.05 486.26 938.14 Z" />
</g>
</svg>
