<svg viewBox="0 0 100 100" version="1.1" xmlns="http://www.w3.org/2000/svg"><g transform="translate(1, 7.612567317401549) scale(0.10307977112083473) translate(-36.63, -80.98)"><path fill="#000000" opacity="1.00" d=" M 504.45 82.49 C 507.10 80.98 511.13 82.65 511.06 85.94 C 510.96 92.70 506.04 97.98 503.05 103.69 C 518.19 96.79 534.12 90.10 550.97 89.60 C 555.92 89.03 559.07 94.91 556.89 98.98 C 553.48 104.19 547.88 107.35 543.84 111.97 C 573.29 107.40 605.76 107.10 632.05 123.14 C 635.60 125.38 641.31 130.02 637.38 134.43 C 629.57 141.04 618.95 142.62 610.12 147.44 C 611.22 149.77 614.77 148.98 616.98 149.66 C 642.93 152.37 668.18 160.81 690.42 174.47 C 701.18 161.63 713.62 150.24 726.59 139.67 C 751.19 120.53 778.98 104.22 809.88 98.14 C 819.52 96.70 829.31 97.41 839.02 97.28 C 860.23 96.62 880.85 104.89 898.05 116.85 C 924.93 135.84 943.03 165.21 952.49 196.37 C 966.59 242.95 961.26 296.62 933.04 336.98 C 916.66 359.46 894.12 378.61 866.98 386.31 C 858.97 389.04 850.37 389.27 842.33 391.64 C 843.24 396.45 846.09 400.60 848.09 405.00 C 860.54 429.13 867.45 455.55 874.17 481.70 C 907.74 484.10 942.47 485.43 973.68 499.42 C 978.54 501.72 983.87 503.74 987.35 508.06 C 955.75 496.83 921.78 494.59 888.52 494.93 C 903.51 507.13 919.86 519.30 928.78 536.96 C 930.65 542.03 925.04 543.97 921.07 543.32 C 926.72 549.86 933.50 555.62 937.57 563.37 C 939.25 566.24 938.85 570.17 941.51 572.44 C 958.14 583.83 977.31 594.80 986.27 613.71 C 980.45 610.39 976.06 605.16 970.61 601.31 C 953.86 588.74 935.61 578.22 917.01 568.65 C 933.01 591.16 943.40 618.23 944.06 646.00 C 943.58 653.31 944.10 662.14 938.81 667.86 C 931.91 670.42 930.22 661.02 927.02 656.99 C 926.68 663.46 926.19 670.00 926.54 676.46 C 937.86 688.86 949.35 701.76 956.18 717.29 C 945.52 705.96 936.59 693.06 925.63 681.97 C 922.13 709.04 911.60 736.26 890.44 754.41 C 886.70 757.34 882.50 762.36 877.28 760.79 C 876.36 754.24 877.13 747.58 878.32 741.11 C 876.54 742.02 875.75 744.04 874.53 745.52 C 863.59 761.87 849.42 775.78 834.51 788.49 C 808.03 810.25 776.36 824.69 743.98 835.26 C 708.70 846.88 672.01 854.14 634.99 857.01 C 629.26 857.21 625.28 861.72 620.97 864.87 C 601.13 879.87 578.42 891.19 554.34 897.47 C 534.00 902.23 512.86 903.40 492.10 901.28 C 458.16 897.38 425.57 883.34 399.05 861.86 C 396.36 859.79 393.81 856.84 390.07 857.25 C 335.69 854.17 281.75 840.57 233.01 816.14 C 198.43 798.95 166.83 773.90 146.36 740.80 C 146.03 747.39 147.04 754.13 145.60 760.62 C 142.48 761.99 139.64 759.44 137.27 757.74 C 114.39 739.11 102.85 710.44 97.82 682.07 C 86.50 694.39 76.25 707.66 65.55 720.47 C 73.03 704.24 84.33 689.83 96.79 677.12 C 97.66 669.92 97.42 662.61 97.10 655.38 C 94.44 659.11 93.29 663.79 90.16 667.20 C 87.66 669.65 82.98 668.38 82.22 664.89 C 78.10 652.05 79.49 638.21 81.77 625.15 C 85.29 604.96 95.08 586.51 106.51 569.74 C 81.34 580.31 59.09 596.73 37.52 613.20 C 38.37 609.66 40.51 606.63 42.94 603.99 C 52.57 593.43 64.07 584.83 75.79 576.74 C 78.42 574.57 81.84 572.94 83.50 569.84 C 86.84 559.54 94.78 551.84 101.29 543.52 C 99.21 542.98 96.87 543.14 95.00 541.98 C 93.30 538.91 95.67 535.68 97.20 533.08 C 107.46 517.99 121.21 505.54 136.24 495.31 C 102.63 493.23 68.80 497.57 36.63 507.25 C 43.35 501.03 52.34 497.97 60.69 494.57 C 89.46 485.50 119.83 483.72 149.73 481.63 C 155.13 461.16 160.35 440.53 168.73 421.02 C 172.75 410.98 178.26 401.65 182.62 391.78 C 163.02 391.19 143.86 384.16 127.52 373.50 C 93.90 350.31 70.75 312.57 65.28 272.11 C 63.32 251.77 62.50 230.97 67.11 210.92 C 73.78 179.82 88.74 150.00 112.09 128.10 C 131.67 109.50 157.83 97.38 185.04 96.84 C 224.83 94.55 262.40 113.22 293.32 136.71 C 309.12 148.54 322.75 162.87 336.82 176.62 C 349.47 164.41 364.85 155.56 380.02 146.87 C 394.49 139.09 409.34 131.38 425.38 127.46 C 428.01 126.35 426.69 129.82 425.80 130.89 C 420.35 138.62 413.12 144.89 407.29 152.31 C 436.07 134.75 464.19 115.81 489.74 93.72 C 494.55 89.88 498.77 85.09 504.45 82.49 M 534.60 105.65 C 519.45 110.55 504.63 116.71 491.12 125.23 C 473.46 135.59 460.24 152.02 442.69 162.47 C 456.12 147.34 470.91 132.93 479.95 114.49 C 448.10 141.42 410.62 160.51 373.56 179.15 C 381.90 167.60 392.23 157.62 401.20 146.60 C 398.11 147.22 395.59 149.28 392.89 150.79 C 375.31 161.71 358.15 173.33 341.57 185.71 C 324.92 197.87 307.97 210.33 294.59 226.10 C 308.39 216.30 322.52 206.75 337.38 198.69 C 332.85 203.58 327.20 207.50 323.57 213.19 C 333.33 211.64 340.86 204.50 349.36 200.01 C 341.02 209.94 330.28 217.75 322.50 228.13 C 331.39 221.93 339.43 214.28 349.27 209.53 C 345.52 214.69 340.16 218.38 336.14 223.30 C 345.43 219.37 354.39 213.92 364.59 212.75 C 353.79 221.47 341.81 229.36 333.47 240.69 C 345.08 235.18 356.08 227.86 368.64 224.54 C 348.73 238.29 329.37 253.03 312.19 270.18 C 307.51 275.05 302.18 279.49 298.65 285.31 C 307.99 279.61 317.24 273.38 327.63 269.72 C 305.23 287.77 281.73 306.01 265.81 330.41 C 274.17 323.66 280.89 314.71 290.41 309.46 C 270.63 332.73 245.05 354.17 237.96 385.27 C 245.65 372.06 253.61 358.61 264.29 347.59 C 255.53 365.28 241.12 380.37 235.94 399.75 C 239.81 394.05 242.28 387.34 247.12 382.29 C 239.45 400.65 228.98 418.72 227.93 439.06 C 232.00 430.62 233.82 421.08 239.06 413.16 C 233.86 433.44 228.46 453.91 227.94 474.99 C 230.51 477.79 233.63 480.03 236.20 482.86 C 227.58 479.35 218.79 475.21 209.33 474.98 C 216.19 478.79 224.13 480.77 230.23 485.96 C 222.86 485.59 215.77 482.71 208.32 483.28 C 216.28 487.06 225.42 488.22 232.95 493.05 C 199.98 487.34 166.28 486.24 132.92 488.43 C 130.04 488.49 134.15 489.73 134.99 489.63 C 162.87 491.20 191.27 490.52 218.50 497.54 C 203.65 498.31 188.69 498.04 173.97 500.37 C 152.91 504.82 132.04 513.99 117.35 530.12 C 131.69 525.88 145.64 520.04 160.26 516.88 C 141.76 528.20 122.80 539.90 108.87 556.89 C 156.59 535.68 209.37 524.53 261.66 528.48 C 272.50 529.71 283.83 531.45 293.55 536.53 C 264.83 535.10 235.92 533.74 207.30 537.45 C 183.25 541.09 159.30 546.56 136.66 555.55 C 128.66 558.10 124.66 565.88 120.29 572.37 C 106.89 592.12 97.51 614.88 94.71 638.64 C 100.67 630.29 103.58 620.18 109.13 611.58 C 108.60 614.86 107.24 617.92 106.57 621.18 C 112.81 614.29 116.83 605.70 122.91 598.68 C 117.24 617.54 115.19 637.55 116.91 657.14 C 129.34 645.85 141.25 633.85 155.10 624.18 C 181.09 605.36 209.11 588.56 239.97 579.13 C 252.17 575.39 264.45 571.66 277.09 569.78 C 277.88 569.13 281.59 570.21 279.10 570.76 C 247.52 579.78 217.66 593.97 189.03 609.91 C 162.86 624.35 140.29 644.29 118.91 664.95 C 117.36 666.16 118.22 668.35 118.06 670.03 C 119.33 695.35 126.48 720.58 139.02 742.60 C 135.62 728.40 132.88 713.97 131.30 699.45 C 134.85 705.30 135.77 712.31 138.93 718.37 C 138.21 706.98 135.22 695.71 135.76 684.23 C 138.23 688.46 138.81 693.50 140.74 698.00 C 148.63 721.68 164.38 741.71 182.12 758.87 C 201.68 776.71 225.00 789.89 248.73 801.34 C 269.70 811.25 292.09 818.03 314.66 823.11 C 297.46 813.46 279.51 804.74 263.50 793.14 C 286.21 805.31 309.44 817.54 334.80 823.17 C 323.97 816.55 311.76 812.41 300.78 806.02 C 323.33 812.60 344.99 823.27 368.37 826.48 C 365.62 820.24 361.15 814.93 358.36 808.69 C 335.61 764.18 334.68 710.20 352.97 663.99 C 365.35 633.80 386.67 607.57 413.06 588.53 C 405.06 582.59 395.54 579.22 387.17 574.04 C 394.34 574.29 401.18 576.82 408.30 577.58 C 404.60 572.36 398.95 568.89 394.14 564.76 C 384.38 556.53 371.96 552.57 361.37 545.68 C 370.55 545.95 378.95 550.25 387.82 552.14 C 383.57 545.66 377.28 540.72 373.55 533.89 C 376.80 534.89 379.26 537.41 382.33 538.74 C 381.86 513.45 400.90 490.86 424.29 483.10 C 420.66 487.02 415.61 489.18 411.60 492.68 C 397.34 504.30 387.19 523.59 392.62 542.19 C 397.07 556.67 411.23 565.91 425.03 570.28 C 444.26 575.80 464.82 570.27 481.99 561.07 C 495.65 553.06 507.79 540.29 511.03 524.37 C 506.27 523.26 502.14 520.80 498.57 517.52 C 489.22 516.38 480.23 512.07 473.38 505.60 C 465.96 498.31 465.17 485.18 472.66 477.67 C 480.63 469.86 492.45 468.44 503.06 467.62 C 517.85 467.17 533.76 466.85 547.07 474.28 C 556.20 479.17 560.66 491.71 554.70 500.69 C 546.33 515.43 526.58 516.36 514.61 524.89 C 517.31 541.55 529.52 555.17 544.19 562.77 C 560.09 571.90 579.14 573.99 597.03 571.00 C 613.54 567.56 629.81 555.54 632.77 538.08 C 635.70 521.72 627.92 505.03 615.37 494.66 C 611.21 490.63 605.63 488.42 601.63 484.23 C 613.61 487.84 622.86 496.96 631.12 505.93 C 639.23 514.89 641.63 527.25 641.54 538.99 C 645.38 537.16 648.62 534.24 652.65 532.81 C 647.78 539.91 640.34 545.26 636.54 553.22 C 645.99 549.68 655.52 545.55 665.73 544.96 C 660.59 548.42 654.57 550.23 649.15 553.17 C 636.14 559.49 625.62 569.60 614.80 578.97 C 623.52 577.33 632.04 574.21 640.97 573.96 C 631.79 578.61 621.96 582.31 613.61 588.64 C 643.16 611.52 665.36 643.44 676.93 678.97 C 684.05 700.19 684.05 722.85 683.37 744.96 C 682.87 767.94 675.25 790.12 665.70 810.80 C 663.48 816.27 659.25 820.83 657.85 826.61 C 678.71 822.71 698.20 813.85 718.53 808.08 C 709.12 814.41 697.81 817.47 688.55 824.02 C 710.27 817.97 731.16 808.93 750.97 798.17 C 754.71 796.24 758.29 793.89 762.37 792.74 C 745.59 804.91 726.58 813.62 708.54 823.63 C 737.68 816.67 766.52 807.35 792.99 793.12 C 819.45 778.96 844.03 760.29 861.98 736.01 C 872.59 720.72 881.72 704.09 886.65 686.05 C 887.27 684.34 887.74 682.38 889.35 681.30 C 888.99 692.82 885.58 704.12 885.82 715.70 C 888.78 710.69 889.13 704.50 892.56 699.72 C 891.34 714.86 887.28 729.59 883.92 744.33 C 896.98 721.41 905.54 695.54 906.20 669.03 C 906.20 665.01 902.82 662.31 900.16 659.81 C 882.58 644.94 865.73 629.00 846.09 616.79 C 813.43 595.62 777.36 579.66 739.61 570.18 C 747.40 570.17 755.05 571.99 762.66 573.48 C 818.64 585.47 867.53 618.80 908.14 658.06 C 908.59 638.15 907.57 617.89 901.89 598.70 C 907.54 606.27 911.32 615.18 917.57 622.29 C 916.88 619.30 915.45 616.55 914.86 613.55 C 920.40 621.09 923.20 630.41 929.09 637.77 C 924.21 610.38 914.06 583.35 896.65 561.36 C 893.18 557.27 887.83 555.75 883.01 553.92 C 857.86 544.98 831.57 539.38 805.10 536.20 C 778.99 534.83 752.72 535.12 726.65 536.91 C 741.15 529.31 757.91 528.03 774.00 527.70 C 821.98 527.09 869.94 537.23 914.02 556.06 C 917.54 557.97 915.39 554.47 913.81 553.20 C 899.74 540.22 884.18 528.93 868.12 518.61 C 880.91 521.61 893.16 526.53 905.77 530.14 C 886.25 507.40 854.97 499.25 826.04 498.29 C 819.93 497.70 813.56 498.52 807.66 496.60 C 830.63 490.97 854.49 490.81 878.00 489.99 C 881.83 489.74 885.78 489.83 889.49 488.65 C 882.40 487.38 875.17 487.53 868.00 487.50 C 842.12 487.92 815.91 487.61 790.56 493.56 C 796.44 488.48 806.05 487.89 811.80 484.05 C 806.61 483.54 800.55 485.29 794.99 485.17 C 801.46 479.61 810.10 478.05 817.43 474.06 C 807.54 475.26 797.99 478.44 788.64 481.78 C 790.80 479.51 793.35 477.64 795.53 475.39 C 795.54 454.44 789.71 434.08 786.02 413.64 C 789.89 421.78 792.53 430.47 795.12 439.09 C 794.86 439.96 797.26 442.72 796.67 440.03 C 796.61 419.31 784.42 401.51 776.75 383.02 C 780.83 387.17 782.91 392.86 787.10 396.93 C 781.04 379.75 769.37 365.25 760.62 349.44 C 771.25 359.73 778.60 372.84 786.06 385.44 C 779.98 354.77 754.39 334.66 735.66 311.67 C 743.42 316.42 749.22 323.63 756.12 329.44 C 751.39 319.87 743.74 312.20 736.19 304.82 C 724.34 292.64 710.77 282.27 698.42 270.71 C 708.91 275.06 717.56 282.73 727.35 288.30 C 724.91 284.02 721.20 280.69 717.85 277.15 C 700.72 260.11 682.59 243.89 662.25 230.75 C 659.92 229.25 657.55 227.76 655.56 225.81 C 668.00 229.09 679.11 235.87 690.70 241.21 C 681.98 228.52 667.14 221.84 655.54 212.19 C 666.04 213.84 675.39 219.26 685.40 222.48 C 680.37 216.41 673.10 212.81 667.83 207.02 C 675.35 210.65 682.15 215.57 689.05 220.21 C 684.57 212.36 675.96 208.23 669.76 201.94 C 672.14 202.79 674.40 203.94 676.83 204.67 C 665.10 192.98 648.48 187.98 634.75 179.07 C 639.65 178.81 644.35 180.45 648.99 181.81 C 678.26 191.32 703.66 209.20 729.41 225.50 C 717.91 210.50 701.56 200.56 686.29 190.01 C 691.16 191.10 695.57 193.58 700.39 194.86 C 697.16 190.68 691.93 188.92 687.45 186.48 C 675.51 181.14 663.61 175.04 650.71 172.51 C 655.43 176.89 662.42 177.55 667.42 181.57 C 650.15 178.48 633.31 173.13 615.88 170.81 C 610.16 169.66 604.21 170.10 598.61 168.43 C 607.09 166.13 615.90 168.13 624.53 167.67 C 594.42 157.88 561.68 158.16 531.10 165.91 C 529.92 167.54 526.02 164.51 529.76 164.59 C 555.50 154.05 580.12 140.88 606.10 130.89 C 582.66 124.21 557.30 125.79 533.96 132.24 C 516.68 136.77 500.74 144.97 484.46 152.05 C 501.16 137.62 517.94 123.18 533.87 107.87 C 534.63 106.93 537.64 104.28 534.60 105.65 M 178.33 111.46 C 154.17 114.31 131.08 126.77 116.22 146.15 C 94.17 174.11 80.82 209.24 80.47 244.97 C 80.03 275.16 90.60 305.66 110.47 328.51 C 122.63 342.21 138.93 352.24 156.83 356.37 C 168.84 359.88 182.78 359.57 193.43 352.42 C 180.30 354.75 166.60 353.26 154.73 347.05 C 170.33 349.73 187.46 352.33 201.89 343.88 C 189.89 346.21 175.34 347.95 165.61 338.93 C 172.46 340.01 179.44 341.24 186.29 339.38 C 179.74 337.07 172.07 336.93 166.58 332.27 C 173.38 331.84 180.23 333.01 187.01 332.00 C 194.95 331.07 202.26 327.59 209.25 323.91 C 196.50 320.34 183.05 313.84 178.36 300.44 C 182.28 300.59 185.81 302.71 189.71 303.10 C 186.25 299.32 182.19 295.82 180.43 290.85 C 191.94 293.59 204.01 299.38 215.93 296.15 C 210.38 290.62 202.58 288.24 196.65 283.32 C 207.06 284.69 216.69 289.10 226.64 292.15 C 218.93 282.70 207.62 276.74 195.95 273.75 C 191.53 272.52 186.78 272.41 182.60 270.39 C 193.95 270.24 205.32 271.54 216.41 273.94 C 195.16 262.29 168.66 262.64 146.73 272.15 C 160.77 259.68 180.06 255.37 198.32 254.02 C 196.29 251.64 192.78 251.42 189.94 250.61 C 175.61 248.15 160.84 249.50 146.86 253.23 C 162.92 241.07 184.55 240.76 203.63 244.01 C 193.62 235.32 179.97 232.17 166.97 233.20 C 158.71 233.21 151.33 237.31 143.50 239.27 C 159.30 227.86 180.68 224.37 199.22 230.60 C 207.95 233.30 215.74 238.13 223.31 243.09 C 217.46 232.76 206.13 227.06 195.20 223.61 C 186.41 220.73 177.04 222.41 168.01 222.60 C 153.65 223.13 140.89 230.43 127.75 235.15 C 145.37 222.53 166.88 216.02 188.37 214.28 C 177.06 212.68 165.21 213.90 154.35 217.50 C 148.01 219.50 142.46 223.31 136.19 225.45 C 140.53 221.16 145.90 218.10 151.03 214.85 C 163.84 207.17 179.08 205.96 193.59 204.57 C 188.31 202.70 182.55 203.55 177.08 203.79 C 157.20 205.99 137.65 213.40 121.91 225.85 C 117.34 229.08 114.57 234.23 109.90 237.30 C 110.68 232.64 113.57 228.76 116.15 224.94 C 125.77 211.28 139.04 199.71 154.99 194.17 C 160.02 192.23 165.37 191.32 170.41 189.41 C 149.53 188.13 129.89 199.12 115.68 213.69 C 101.72 226.22 91.86 243.85 90.64 262.75 C 90.33 262.75 89.71 262.74 89.41 262.74 C 88.15 252.89 89.31 242.25 95.18 233.94 C 104.90 219.38 116.35 205.81 129.68 194.48 C 117.31 200.46 109.38 212.14 99.79 221.43 C 108.68 203.24 124.71 189.75 140.68 177.94 C 129.63 183.49 120.28 191.93 111.28 200.28 C 102.78 208.16 97.40 218.62 90.22 227.49 C 99.22 197.07 126.18 174.36 155.96 165.29 C 163.60 163.00 171.65 162.92 179.40 161.30 C 169.22 161.26 158.61 160.90 149.00 164.81 C 134.66 170.33 121.03 178.22 109.89 188.88 C 102.56 195.85 97.96 205.02 91.56 212.73 C 94.89 184.82 107.59 157.48 128.96 138.87 C 141.93 128.34 159.84 125.24 175.96 128.79 C 179.80 129.14 181.07 133.62 184.81 134.29 C 196.61 138.06 205.05 147.48 214.13 155.34 C 213.77 153.85 210.13 148.68 213.56 151.54 C 234.09 169.44 244.79 195.55 253.84 220.58 C 253.42 209.74 248.48 199.46 248.48 188.70 C 243.56 174.56 236.62 161.23 229.15 148.29 C 240.39 155.53 247.47 167.45 256.00 177.45 C 255.14 171.15 254.44 164.69 251.52 158.94 C 261.84 165.94 268.99 176.43 277.59 185.20 C 276.01 176.39 269.82 169.58 265.76 161.94 C 271.17 165.88 274.99 171.63 280.57 175.38 C 278.22 168.37 273.02 162.86 269.01 156.78 C 273.83 160.48 277.55 165.46 282.66 168.80 C 278.86 160.70 271.89 154.66 267.59 146.90 C 280.37 157.99 290.34 172.02 303.16 183.07 C 301.71 177.35 297.41 173.07 294.83 167.90 C 302.97 173.91 308.30 182.74 314.55 190.51 C 316.69 193.11 318.84 187.86 316.71 186.26 C 304.72 166.79 286.80 151.81 268.47 138.54 C 242.67 119.74 210.67 107.20 178.33 111.46 M 816.35 111.49 C 796.46 114.17 778.06 123.42 761.45 134.34 C 743.68 146.13 727.77 160.69 714.15 177.08 C 711.59 180.68 707.94 184.25 708.02 188.98 C 716.10 182.26 721.49 172.55 730.22 166.40 C 727.64 171.85 723.43 176.36 721.08 181.94 C 727.30 179.75 730.61 173.45 734.72 168.71 C 741.69 160.58 748.55 152.12 757.13 145.63 C 751.96 152.87 745.17 159.12 741.67 167.46 C 745.51 164.27 748.26 159.97 752.33 157.03 C 749.97 163.60 743.88 168.81 743.51 176.02 C 747.73 172.42 749.58 166.64 754.36 163.60 C 752.22 171.42 747.01 178.63 745.69 186.94 C 753.00 177.65 759.55 167.30 769.27 160.26 C 770.78 166.98 768.56 173.92 768.78 180.73 C 774.93 168.08 783.42 156.45 794.43 147.58 C 792.85 152.60 789.84 156.97 787.67 161.72 C 779.48 178.83 774.72 197.43 772.05 216.14 C 771.37 220.23 773.18 215.17 773.55 214.36 C 782.48 185.93 797.63 158.07 822.52 140.64 C 826.95 136.54 833.17 136.64 838.66 135.03 C 838.22 134.53 837.33 133.53 836.89 133.03 C 840.49 130.88 844.83 134.36 848.27 131.57 C 849.57 127.91 853.88 128.37 857.01 127.95 C 871.01 127.10 886.39 130.05 896.61 140.37 C 916.72 159.14 926.99 185.85 932.68 212.24 C 921.26 192.71 903.85 176.84 882.83 168.24 C 870.79 163.21 857.63 159.83 844.52 161.31 C 851.67 162.69 859.01 163.22 866.06 165.18 C 896.34 173.35 925.60 195.39 933.37 226.98 C 920.23 204.04 900.95 183.38 875.69 174.03 C 879.88 177.81 885.42 179.58 889.96 182.89 C 903.69 192.36 915.88 204.61 923.91 219.30 C 912.88 209.47 903.53 196.92 889.49 191.10 C 903.82 202.42 916.72 215.80 926.79 231.12 C 933.06 239.94 935.07 250.89 934.59 261.53 C 930.56 249.88 928.69 237.04 920.84 227.07 C 904.86 205.84 880.04 188.85 852.62 189.43 C 858.30 191.64 864.34 192.81 870.01 195.10 C 889.00 202.28 906.12 217.11 913.34 236.33 C 895.86 218.16 872.00 206.55 846.92 203.81 C 841.11 203.24 835.02 202.60 829.41 204.65 C 849.95 205.71 871.64 211.12 886.44 226.28 C 870.24 218.06 851.96 210.65 833.53 214.29 C 852.47 215.74 871.05 221.16 887.36 231.02 C 873.23 226.78 859.03 221.11 843.98 222.03 C 827.64 222.30 809.55 227.87 800.49 242.46 C 813.23 233.52 828.32 227.52 844.02 227.28 C 856.85 228.20 869.73 231.85 880.40 239.16 C 867.26 234.65 852.79 230.51 839.01 234.97 C 832.23 237.38 824.88 239.30 819.30 244.05 C 837.90 241.07 858.91 241.06 874.63 252.93 C 858.08 248.24 840.22 249.24 823.72 253.70 C 841.92 255.65 861.67 259.00 875.38 272.22 C 869.17 270.31 863.54 266.52 856.94 265.91 C 840.23 264.13 822.10 265.07 807.40 273.95 C 818.83 271.51 831.16 269.42 842.63 271.55 C 826.01 272.68 807.99 278.41 797.63 292.17 C 806.50 288.06 815.69 284.11 825.50 282.98 C 819.91 288.10 811.65 290.37 807.06 296.46 C 813.04 296.79 819.07 296.56 825.04 295.95 C 831.86 295.24 837.70 291.20 844.34 289.78 C 841.89 295.48 837.25 299.75 832.79 303.87 C 837.24 302.61 841.57 300.95 846.10 299.97 C 842.39 313.47 827.92 319.59 815.82 323.65 C 827.53 333.25 843.47 332.36 857.69 332.98 C 851.56 336.07 844.72 337.33 837.99 338.34 C 838.08 338.68 838.26 339.37 838.35 339.71 C 845.22 340.74 852.19 339.53 859.10 340.10 C 850.20 344.36 839.97 347.29 830.09 345.09 C 828.80 345.29 826.44 343.55 826.03 345.48 C 838.67 350.65 852.82 350.07 865.92 347.07 C 867.15 347.28 869.65 345.42 869.96 347.45 C 856.34 353.35 840.80 355.48 826.52 350.70 C 839.04 359.94 855.91 359.67 870.26 355.44 C 907.12 345.15 932.75 310.30 940.29 273.91 C 948.27 234.99 939.15 193.36 917.79 160.11 C 902.60 136.04 878.53 116.31 849.87 111.71 C 838.75 110.57 827.50 110.83 816.35 111.49 M 308.37 247.45 C 301.32 249.40 294.67 256.66 293.56 263.74 C 299.61 259.48 303.80 252.82 310.78 249.77 C 307.75 254.69 302.52 258.10 300.58 263.71 C 305.37 261.54 309.47 257.96 312.91 254.03 C 315.91 251.07 311.63 247.07 308.37 247.45 M 714.07 247.18 C 711.87 248.44 708.53 251.32 710.78 253.92 C 714.60 258.15 719.19 261.93 724.37 264.37 C 722.11 259.62 717.74 256.30 715.49 251.56 C 721.37 255.02 725.58 260.63 731.31 264.30 C 729.49 258.85 725.41 254.52 721.51 250.46 C 719.51 248.64 717.03 246.10 714.07 247.18 M 266.50 270.58 C 245.06 295.90 223.02 323.30 215.77 356.43 C 232.06 327.10 251.47 299.42 267.30 269.85 L 266.50 270.58 M 758.78 272.56 C 773.84 301.48 792.62 328.37 809.02 356.50 C 801.05 324.21 780.72 296.83 758.78 272.56 M 750.86 293.00 C 754.53 299.17 759.50 304.67 765.01 309.28 C 764.14 302.12 758.87 292.63 750.86 293.00 M 267.39 294.40 C 262.35 297.79 260.06 304.17 259.61 310.00 C 264.05 304.64 269.99 300.21 273.26 294.05 C 271.34 293.56 269.13 293.18 267.39 294.40 M 750.19 296.72 C 751.99 302.53 755.57 307.89 760.29 311.74 C 761.19 305.53 754.68 300.34 750.19 296.72 M 271.05 299.27 C 266.99 301.99 264.31 306.59 263.09 311.27 C 267.70 308.80 270.72 303.62 272.15 298.70 L 271.05 299.27 M 772.24 312.26 C 770.01 317.80 775.39 322.45 778.38 326.53 C 781.17 329.19 783.38 333.82 787.32 334.34 C 786.80 326.77 783.37 319.37 777.70 314.28 C 776.18 313.04 774.33 311.41 772.24 312.26 M 247.34 313.34 C 240.73 318.45 236.63 327.14 236.65 335.47 C 242.73 332.57 246.38 325.58 249.73 319.84 C 251.33 317.63 251.36 310.78 247.34 313.34 M 214.23 368.29 C 214.83 368.81 214.83 368.81 214.23 368.29 M 213.39 370.00 C 203.49 387.16 192.29 404.03 186.26 423.04 C 184.88 426.63 187.31 422.71 187.85 422.01 C 198.22 405.15 206.96 387.24 214.30 368.89 L 213.39 370.00 M 812.72 373.43 C 818.57 391.30 826.87 408.82 838.47 423.67 C 836.49 414.86 831.92 406.95 827.83 398.99 C 822.96 390.39 818.82 381.24 812.72 373.43 M 818.25 402.61 C 824.77 419.60 832.61 436.21 841.32 452.17 C 839.12 438.50 832.05 426.26 826.01 413.99 C 823.59 410.14 822.15 405.25 818.25 402.61 M 204.47 404.55 C 194.40 419.30 186.29 435.67 181.72 452.98 C 188.17 444.69 192.47 434.95 196.33 425.24 C 199.23 418.02 203.17 411.18 205.24 403.66 L 204.47 404.55 M 819.12 434.63 C 822.32 441.61 827.11 447.91 832.34 453.49 C 828.74 446.77 824.64 439.92 819.12 434.63 M 203.37 436.32 C 199.13 440.72 195.68 445.94 193.08 451.46 C 197.65 446.73 201.80 441.36 204.52 435.35 L 203.37 436.32 M 821.10 443.54 C 822.03 445.76 823.18 448.00 825.07 449.58 C 824.34 447.23 822.84 445.22 821.10 443.54 M 496.36 471.49 C 491.87 472.28 486.02 475.68 486.26 480.82 C 488.78 486.26 495.64 488.43 501.02 486.02 C 508.04 489.58 516.30 488.39 523.63 486.50 C 527.32 485.35 531.92 483.28 532.46 478.96 C 532.37 474.24 527.23 471.53 523.01 471.38 C 514.14 470.88 505.21 470.77 496.36 471.49 M 502.30 570.44 C 478.95 573.19 456.11 580.19 434.57 589.50 C 390.74 612.81 360.05 658.69 354.33 707.92 C 353.58 722.16 353.73 736.46 354.44 750.70 C 360.01 795.05 385.15 836.87 422.85 861.24 C 459.83 886.39 507.54 894.50 550.85 883.67 C 578.38 876.00 604.70 862.37 624.86 841.84 C 653.94 814.89 670.76 775.53 671.10 735.97 C 674.50 684.60 650.04 632.96 609.96 601.13 C 600.54 594.05 590.29 586.32 578.01 585.97 C 562.23 582.90 546.58 578.64 531.75 572.40 C 522.28 569.29 512.10 569.63 502.30 570.44 Z"/><path fill="#000000" opacity="1.00" d=" M 189.62 133.93 C 197.68 138.30 206.92 142.80 211.61 151.00 C 204.57 144.95 197.10 139.40 189.62 133.93 Z"/><path fill="#000000" opacity="1.00" d=" M 526.64 166.31 C 526.84 166.72 526.84 166.72 526.64 166.31 Z"/><path fill="#000000" opacity="1.00" d=" M 558.04 175.19 C 567.13 174.13 576.35 174.68 585.44 175.48 C 576.71 176.91 565.88 177.33 558.04 175.19 Z"/><path fill="#000000" opacity="1.00" d=" M 393.35 176.39 C 393.85 176.26 394.84 175.99 395.34 175.85 C 390.40 179.92 384.51 182.72 378.65 185.18 C 382.81 181.23 388.12 178.64 393.35 176.39 Z"/><path fill="#000000" opacity="1.00" d=" M 612.39 189.23 C 621.15 190.19 630.73 191.49 638.14 196.48 C 629.43 194.81 620.43 193.00 612.39 189.23 Z"/><path fill="#000000" opacity="1.00" d=" M 99.00 268.17 L 99.41 267.60 C 100.44 279.35 103.97 290.65 106.15 302.15 C 100.94 291.83 97.77 279.62 99.00 268.17 Z"/><path fill="#000000" opacity="1.00" d=" M 925.00 268.09 L 925.67 267.25 C 925.97 278.69 923.39 290.59 917.32 300.36 C 920.42 289.74 923.12 278.86 925.00 268.09 Z"/><path fill="#000000" opacity="1.00" d=" M 359.30 279.43 C 367.67 278.07 377.38 280.33 382.62 287.44 C 386.69 293.24 387.20 301.94 382.71 307.64 C 379.54 311.57 373.95 309.95 369.68 309.46 C 358.32 307.28 346.59 309.52 335.38 309.77 C 332.73 295.70 345.54 281.41 359.30 279.43 Z"/><path fill="#000000" opacity="1.00" d=" M 654.33 279.44 C 671.03 275.75 686.96 289.93 689.07 306.01 C 689.45 310.91 682.85 308.65 679.90 308.74 C 668.54 306.36 657.15 308.82 645.87 310.22 C 641.74 309.05 638.45 305.32 637.98 301.02 C 636.28 290.92 643.70 279.97 654.33 279.44 Z"/><path fill="#000000" opacity="1.00" d=" M 328.36 347.51 C 346.84 346.15 366.35 350.13 380.89 362.16 C 401.93 377.54 414.02 403.20 414.97 428.98 C 415.76 442.11 415.08 455.66 410.16 468.01 C 405.50 480.02 397.20 490.16 388.21 499.21 C 376.27 512.17 357.65 517.16 340.47 515.57 C 344.62 513.87 349.12 513.19 353.23 511.38 C 347.27 509.97 341.10 510.84 335.06 510.20 C 319.14 509.33 303.48 503.09 291.67 492.32 C 279.31 480.65 271.58 464.04 271.03 447.02 C 270.45 436.86 270.09 426.61 271.71 416.53 C 257.48 442.47 259.61 479.08 282.31 499.74 C 290.50 508.06 301.75 512.34 311.87 517.30 C 302.54 518.56 292.83 517.37 284.17 513.66 C 273.73 511.33 263.32 508.68 253.44 504.50 C 252.53 503.97 251.12 503.79 251.09 502.49 C 257.56 503.30 263.79 505.51 270.29 506.09 C 262.50 500.20 253.00 496.43 246.50 488.92 C 250.72 490.06 254.36 492.71 258.64 493.67 C 257.36 487.48 253.31 482.33 251.58 476.28 C 240.42 444.93 247.65 409.00 267.86 382.96 C 281.58 363.08 303.77 348.39 328.36 347.51 M 320.22 368.39 C 303.94 371.56 288.95 384.94 287.13 401.92 C 285.35 415.13 296.73 428.21 309.99 428.64 C 328.65 430.81 348.78 419.40 354.17 400.96 C 357.24 391.11 354.47 379.06 345.94 372.81 C 338.42 367.94 328.91 366.79 320.22 368.39 M 369.22 396.33 C 364.63 398.18 365.17 406.15 370.05 407.20 C 373.63 408.27 378.14 405.97 378.37 401.99 C 378.48 397.49 373.13 394.69 369.22 396.33 M 301.21 435.34 C 296.33 436.89 292.09 441.72 292.27 447.01 C 292.86 453.54 299.55 458.35 305.92 457.13 C 312.02 455.29 316.28 447.77 313.29 441.83 C 310.87 437.80 306.01 434.61 301.21 435.34 M 289.39 463.49 C 283.98 466.25 282.41 474.78 287.21 478.85 C 292.99 484.27 304.47 478.22 302.58 470.31 C 301.76 464.44 294.66 460.69 289.39 463.49 M 336.38 464.44 C 330.32 466.26 327.91 474.74 333.16 478.86 C 337.99 484.25 346.76 478.28 345.93 471.91 C 345.29 467.60 340.98 463.21 336.38 464.44 M 358.29 479.41 C 349.02 481.88 346.17 496.17 354.20 501.78 C 361.38 507.46 374.42 502.71 374.34 492.96 C 376.10 484.23 366.62 476.32 358.29 479.41 Z"/><path fill="#000000" opacity="1.00" d=" M 683.33 347.48 C 694.83 347.26 706.71 347.63 717.33 352.55 C 745.74 363.48 765.32 389.97 774.68 418.13 C 780.30 436.47 779.39 456.62 773.64 474.81 C 771.66 481.39 767.94 487.25 765.64 493.70 C 768.98 492.44 772.07 490.52 775.59 489.75 C 769.55 496.84 760.91 500.89 753.27 505.94 C 759.36 505.15 765.20 503.07 771.28 502.22 C 752.65 512.90 730.68 516.47 709.46 517.68 C 717.93 513.91 727.05 511.23 734.48 505.45 C 744.02 498.03 752.74 488.90 757.50 477.64 C 765.78 457.93 761.83 435.01 753.02 416.22 C 754.66 436.13 755.39 457.53 745.61 475.66 C 738.79 491.25 722.95 500.00 707.99 506.28 C 696.70 510.68 684.35 510.13 672.48 511.17 C 675.10 512.61 677.97 513.70 680.21 515.76 C 670.01 515.92 659.08 515.20 650.03 510.02 C 636.68 501.79 624.89 490.28 617.76 476.19 C 604.02 448.95 606.07 415.64 620.20 388.98 C 632.05 365.66 656.28 346.90 683.33 347.48 M 667.23 368.38 C 648.72 371.32 632.23 388.64 633.72 407.96 C 634.12 418.81 643.89 427.30 654.26 428.58 C 671.22 430.78 689.04 420.45 695.48 404.57 C 699.10 395.85 698.58 385.03 692.57 377.47 C 686.74 369.92 676.45 366.78 667.23 368.38 M 711.15 394.28 C 706.01 396.46 706.02 404.39 710.94 406.85 C 715.95 411.16 724.10 404.06 721.58 398.34 C 720.06 394.37 714.94 392.56 711.15 394.28 M 647.39 436.46 C 640.14 439.08 637.63 449.18 643.48 454.51 C 648.43 458.43 657.53 457.76 660.41 451.48 C 665.35 443.61 655.56 433.51 647.39 436.46 M 639.44 463.49 C 635.62 464.86 632.03 468.75 633.09 473.08 C 634.21 476.93 638.25 479.27 641.99 479.94 C 646.81 479.46 651.14 473.35 648.26 468.85 C 646.42 465.95 643.25 462.46 639.44 463.49 M 685.28 464.45 C 679.42 464.25 674.55 471.01 677.65 476.33 C 680.01 481.51 687.52 482.66 691.06 478.03 C 696.48 473.46 691.10 465.02 685.28 464.45 M 659.14 479.29 C 652.96 481.41 649.86 488.12 647.98 493.90 C 649.50 496.07 651.02 498.26 652.70 500.33 C 658.97 507.45 673.32 504.20 674.48 494.29 C 676.05 485.80 667.88 476.77 659.14 479.29 M 728.15 479.24 C 724.61 482.04 720.52 485.55 719.83 490.25 C 725.55 490.75 730.00 483.89 729.30 478.59 L 728.15 479.24 Z"/><path fill="#000000" opacity="1.00" d=" M 121.35 392.03 L 122.01 390.96 C 125.18 395.63 126.31 401.49 130.34 405.63 C 133.46 409.60 138.18 411.53 142.43 413.96 C 132.24 419.07 126.43 428.95 122.42 439.16 C 119.19 430.03 116.99 418.54 107.05 414.27 C 113.83 408.25 117.65 400.10 121.35 392.03 Z"/><path fill="#000000" opacity="1.00" d=" M 899.25 392.05 C 902.42 392.19 902.41 396.69 903.69 398.97 C 905.19 404.87 909.47 409.28 914.06 412.99 C 912.18 415.79 909.23 417.67 907.29 420.43 C 903.33 425.75 903.10 432.80 899.47 438.29 C 898.21 427.67 890.46 418.56 881.03 413.97 C 890.31 410.02 897.14 401.94 899.25 392.05 Z"/><path fill="#000000" opacity="1.00" d=" M 504.32 461.44 C 509.64 461.34 515.07 460.51 520.34 461.55 C 513.40 462.22 506.40 462.79 499.42 462.51 C 500.97 461.85 502.64 461.53 504.32 461.44 Z"/><path fill="#000000" opacity="1.00" d=" M 626.09 717.29 C 629.40 717.41 624.57 720.26 626.09 717.29 Z"/><path fill="#000000" opacity="1.00" d=" M 361.33 721.55 L 361.52 720.65 C 362.56 728.14 362.61 735.72 362.76 743.27 C 360.90 736.69 360.80 728.66 361.33 721.55 Z"/><path fill="#000000" opacity="1.00" d=" M 812.48 767.48 L 813.35 766.98 C 810.35 770.29 806.73 773.07 802.79 775.17 C 805.73 772.29 808.98 769.66 812.48 767.48 Z"/><path fill="#000000" opacity="1.00" d=" M 214.17 769.29 C 214.79 769.79 214.79 769.79 214.17 769.29 Z"/><path fill="#000000" opacity="1.00" d=" M 623.56 810.64 C 623.92 810.40 624.63 809.90 624.99 809.66 C 623.16 814.53 619.61 818.42 616.53 822.52 C 621.61 821.22 616.89 827.48 615.16 829.13 C 610.59 831.26 611.63 837.74 606.73 839.42 C 607.79 837.81 609.08 836.37 610.19 834.81 C 603.03 837.68 598.48 844.47 591.21 847.15 C 591.73 845.81 592.36 844.51 592.83 843.16 C 590.15 842.42 587.63 844.06 584.99 844.18 C 598.83 834.21 611.16 822.31 623.56 810.64 M 614.29 824.97 C 614.45 828.34 617.29 823.38 614.29 824.97 Z"/><path fill="#000000" opacity="1.00" d=" M 604.43 815.54 L 605.27 814.90 C 603.31 818.68 598.68 820.58 597.69 824.86 C 599.46 823.03 601.28 821.12 603.86 820.46 C 601.24 824.05 597.64 826.72 594.19 829.44 C 595.72 823.62 599.85 819.22 604.43 815.54 Z"/><path fill="#000000" opacity="1.00" d=" M 409.85 839.65 C 412.73 841.02 414.87 843.58 416.36 846.35 C 413.76 844.59 411.57 842.26 409.85 839.65 Z"/><path fill="#000000" opacity="1.00" d=" M 574.31 842.02 C 579.05 842.23 570.29 845.76 574.31 842.02 Z"/><path fill="#000000" opacity="1.00" d=" M 442.73 846.05 C 444.89 847.08 447.49 847.86 448.94 849.86 C 445.33 852.37 445.41 857.04 447.98 860.24 C 443.79 858.18 439.65 855.90 436.01 852.95 C 438.37 850.77 441.68 849.31 442.73 846.05 M 446.13 849.18 C 446.75 849.72 446.75 849.72 446.13 849.18 Z"/><path fill="#000000" opacity="1.00" d=" M 463.23 846.16 C 466.21 844.69 463.45 849.49 463.23 846.16 Z"/><path fill="#000000" opacity="1.00" d=" M 471.25 849.20 C 474.17 847.70 471.56 852.56 471.25 849.20 Z"/><path fill="#000000" opacity="1.00" d=" M 424.24 851.06 C 428.12 850.74 423.74 855.06 424.24 851.06 Z"/><path fill="#000000" opacity="1.00" d=" M 428.92 854.30 C 433.07 853.73 428.83 858.07 428.92 854.30 Z"/><path fill="#000000" opacity="1.00" d=" M 431.17 855.71 C 433.20 856.88 436.83 857.68 437.68 859.71 C 435.21 859.50 433.12 857.17 431.17 855.71 Z"/><path fill="#000000" opacity="1.00" d=" M 439.32 860.30 C 441.66 860.42 443.62 862.66 445.51 863.99 C 443.57 862.92 439.88 862.30 439.32 860.30 Z"/></g></svg>