<svg viewBox="0 0 100 100" version="1.1" xmlns="http://www.w3.org/2000/svg"><g transform="translate(1, 5.471849614663611) scale(0.10206207040199958) translate(-31.66, -75.04)"><path fill="#000000" opacity="1.00" d=" M 281.34 78.48 C 316.71 76.13 352.42 91.83 376.15 117.87 C 394.14 136.96 403.12 163.12 404.13 189.06 C 448.34 173.02 496.81 168.27 543.09 177.29 C 557.75 180.16 571.83 185.26 586.22 189.10 C 587.19 182.46 586.12 175.62 587.84 169.08 C 594.70 128.64 626.51 93.99 665.73 82.56 C 692.49 75.04 722.40 76.91 747.08 90.19 C 769.17 100.43 787.52 118.33 798.70 139.91 C 819.42 178.04 815.58 228.41 788.61 262.55 C 778.37 276.32 764.15 286.17 749.45 294.58 C 769.16 298.98 789.82 302.67 806.84 314.25 C 813.88 319.00 816.06 327.95 816.78 335.92 C 817.75 348.05 816.68 361.67 808.19 371.15 C 803.94 376.25 797.89 379.13 792.18 382.21 C 820.47 410.26 842.92 445.05 852.69 483.92 C 858.01 512.28 858.13 542.81 846.59 569.74 C 841.22 585.21 831.33 598.56 820.05 610.23 C 839.65 612.64 859.79 614.00 878.25 621.59 C 891.30 626.12 903.53 633.89 911.95 644.97 C 926.01 663.86 930.41 689.09 925.29 711.91 C 924.65 715.48 923.25 718.98 923.38 722.66 C 932.20 727.83 942.72 729.36 951.70 734.35 C 968.48 742.89 982.67 756.65 991.58 773.20 C 991.71 794.95 991.86 816.76 991.50 838.51 C 985.60 848.88 976.76 857.14 968.04 865.11 C 954.33 875.51 937.55 880.53 921.09 884.69 C 879.00 895.31 836.26 903.00 793.72 911.55 C 750.18 919.65 706.52 927.22 662.68 933.52 C 609.78 940.47 556.52 947.61 503.04 945.34 C 461.14 942.77 419.61 936.60 377.97 931.55 C 308.30 920.99 238.90 908.83 169.35 897.51 C 150.40 894.64 131.72 890.33 112.93 886.63 C 98.20 882.98 83.47 878.35 70.29 870.69 C 53.29 860.27 38.52 844.33 33.48 824.65 C 31.66 813.29 31.73 801.43 34.40 790.21 C 43.33 759.97 69.76 736.31 100.28 729.16 C 93.45 716.55 86.81 703.73 82.24 690.09 C 65.03 640.78 54.72 589.42 45.21 538.16 C 39.12 504.42 32.36 470.42 33.06 435.97 C 33.26 417.89 39.36 398.61 54.19 387.24 C 71.58 373.64 94.81 372.38 116.00 372.00 C 146.73 371.94 177.70 373.48 207.73 380.43 C 211.96 381.32 216.14 382.61 220.48 382.90 C 216.69 379.43 211.61 377.70 208.06 373.90 C 198.70 365.42 195.58 352.20 196.25 339.99 C 196.62 331.58 196.88 321.72 203.86 315.84 C 215.55 305.94 231.08 303.01 245.24 298.35 C 247.58 297.22 243.52 296.06 242.64 295.47 C 221.12 286.83 203.63 270.01 191.58 250.45 C 178.97 229.45 175.26 204.06 177.11 179.93 C 181.46 147.92 199.09 117.37 226.09 99.23 C 242.09 87.31 261.44 80.00 281.34 78.48 M 281.26 102.41 C 265.71 104.05 250.43 109.43 237.79 118.73 C 213.87 135.93 199.95 165.66 201.32 195.02 C 201.80 235.01 232.32 272.95 271.90 280.29 C 286.49 268.04 299.74 253.95 315.88 243.57 C 315.96 241.34 312.76 241.49 311.36 240.51 C 299.29 234.98 285.74 237.35 273.11 239.12 C 284.31 224.20 307.06 220.33 322.58 230.67 C 322.66 201.00 314.43 168.08 289.86 149.20 C 278.13 140.73 262.23 138.75 248.65 143.52 C 235.55 148.24 225.67 159.43 220.17 171.95 C 214.64 185.11 211.75 199.24 210.61 213.43 C 202.95 186.85 211.90 155.16 234.37 138.30 C 250.50 126.16 273.56 125.29 291.17 134.72 C 307.31 143.19 318.61 158.65 325.74 175.09 C 334.75 196.01 337.12 219.62 333.09 241.99 C 338.86 239.31 344.25 235.79 350.31 233.74 C 346.25 239.48 340.14 243.23 335.30 248.28 C 318.81 262.15 303.31 277.20 289.61 293.85 C 318.02 292.14 346.55 290.18 374.99 292.55 C 392.94 293.59 410.51 297.80 427.83 302.38 C 446.27 308.78 465.45 315.48 479.89 329.16 C 481.45 331.05 483.87 329.18 485.58 328.51 C 498.55 321.09 514.26 319.98 528.75 322.41 C 534.54 323.23 539.38 327.28 545.09 327.98 C 551.75 323.81 557.60 318.40 564.43 314.45 C 588.57 301.26 615.96 295.83 643.02 292.63 C 660.08 290.02 677.39 290.70 694.58 289.88 C 688.85 281.42 680.05 275.39 672.84 268.18 C 650.42 246.59 624.27 228.90 595.99 215.94 C 536.62 190.96 467.87 188.00 407.07 209.80 C 390.69 215.92 374.70 223.27 359.57 232.06 C 363.63 225.14 371.62 221.47 375.37 214.30 C 380.33 203.23 383.71 190.94 381.44 178.76 C 378.23 150.28 358.42 125.46 333.29 112.64 C 317.28 104.74 299.11 100.67 281.26 102.41 M 677.37 103.50 C 660.60 107.36 644.44 116.15 633.91 130.03 C 626.83 139.21 623.72 150.70 621.73 161.93 C 620.17 169.47 624.60 177.16 624.42 184.26 C 628.34 188.18 629.47 194.20 634.07 197.54 C 638.14 193.31 634.56 203.95 638.93 199.36 C 641.34 201.62 644.51 202.94 646.66 205.48 C 649.95 202.12 652.65 208.78 655.90 205.94 C 652.95 203.75 656.48 201.67 656.69 199.09 C 661.98 173.74 674.99 148.28 697.91 134.76 C 719.19 122.60 748.30 126.98 764.64 145.36 C 780.86 163.44 786.18 190.67 778.29 213.46 C 777.45 192.86 773.51 170.79 758.58 155.43 C 743.71 138.76 715.80 135.93 698.59 150.65 C 676.45 168.52 667.39 198.34 667.93 225.97 C 667.86 227.70 669.45 228.46 670.88 227.62 C 684.13 223.00 701.30 224.24 710.37 236.16 C 710.40 236.62 710.45 237.56 710.48 238.03 C 698.25 236.48 684.49 235.08 673.67 242.28 C 675.99 245.60 679.54 247.76 682.61 250.34 C 693.26 258.24 703.01 267.28 712.38 276.64 C 714.26 278.16 716.09 280.65 718.72 280.56 C 733.52 277.17 747.60 270.16 758.67 259.68 C 783.92 236.42 792.97 198.36 783.44 165.73 C 774.21 133.41 744.45 109.48 712.05 103.09 C 700.54 102.31 688.82 101.90 677.37 103.50 M 648.34 206.93 C 648.24 210.30 651.37 205.47 648.34 206.93 M 675.34 305.47 C 636.22 306.69 596.35 312.51 560.80 329.67 C 557.49 331.33 554.03 332.81 551.16 335.18 C 553.74 343.17 555.17 351.93 553.66 360.24 C 552.72 355.98 552.46 351.61 551.51 347.37 C 550.36 342.74 545.75 340.26 541.77 338.36 C 524.73 331.27 504.92 331.92 487.99 339.03 C 484.11 340.81 480.03 342.81 477.50 346.39 C 475.22 351.78 477.97 358.17 475.36 363.43 C 473.87 354.46 473.70 345.18 476.02 336.36 C 444.27 317.65 407.47 309.45 371.09 306.17 C 322.35 303.88 272.53 306.13 225.91 321.71 C 222.50 323.35 216.78 324.28 216.79 329.04 C 216.51 338.91 216.84 348.96 219.33 358.57 C 224.99 360.87 230.61 363.71 236.67 364.72 C 239.09 362.27 238.08 358.45 239.48 355.54 C 244.19 379.08 245.17 403.89 255.69 425.92 C 263.18 443.28 274.85 460.26 292.36 468.59 C 312.94 480.01 337.00 481.22 359.99 480.34 C 380.64 480.69 401.72 476.80 419.93 466.76 C 440.65 454.80 454.86 434.12 463.33 412.16 C 467.75 399.88 471.34 387.31 474.85 374.76 C 478.71 375.10 480.78 371.17 484.05 369.83 C 503.83 359.76 529.22 358.68 548.46 370.58 C 558.01 375.88 559.15 387.74 562.84 396.94 C 571.11 420.75 583.71 444.30 604.23 459.70 C 624.47 473.90 649.69 478.67 673.97 479.55 C 694.43 479.81 715.85 478.20 734.17 468.28 C 748.56 460.60 758.96 447.07 765.40 432.32 C 776.75 408.47 777.33 381.70 780.32 355.97 C 784.56 355.73 780.29 365.54 784.92 363.34 C 789.70 360.96 797.73 359.65 797.90 353.09 C 798.67 345.08 799.07 337.00 798.66 328.96 C 798.70 325.84 795.32 325.00 793.01 324.00 C 755.63 309.64 715.26 304.11 675.34 305.47 M 504.32 380.47 C 498.73 381.32 492.99 382.37 487.87 384.85 C 484.72 390.09 483.65 396.31 481.83 402.09 C 475.10 428.79 461.96 454.72 440.63 472.65 C 417.58 492.17 386.46 498.64 356.96 499.12 C 333.63 500.16 309.67 497.72 288.34 487.60 C 265.02 477.05 248.02 455.76 239.26 432.08 C 236.41 425.06 234.92 417.58 232.02 410.59 C 229.14 412.60 227.68 415.97 225.71 418.77 C 205.10 451.15 188.78 487.97 188.91 527.03 C 188.37 571.44 214.14 615.07 253.80 635.32 C 274.81 645.62 297.70 652.25 321.02 654.37 C 340.17 657.06 359.05 651.07 377.30 646.06 C 369.45 651.69 360.45 655.46 351.82 659.71 C 347.72 661.89 346.31 666.71 345.39 670.93 C 341.85 689.10 342.62 707.85 345.28 726.08 C 347.19 738.02 349.95 750.14 356.14 760.65 C 377.12 760.80 398.19 760.01 419.10 762.33 C 435.05 764.40 451.00 766.44 466.95 768.57 C 499.94 772.86 532.64 781.36 562.26 796.77 C 561.13 793.97 559.28 791.50 558.47 788.58 C 571.37 801.56 588.03 813.91 607.33 812.48 C 622.25 811.58 633.61 799.92 640.65 787.66 C 651.38 769.37 655.49 747.96 656.25 726.98 C 656.38 717.92 656.36 708.45 652.48 700.07 C 647.94 704.43 645.20 711.83 638.92 715.02 C 641.46 706.84 646.75 698.90 644.91 689.90 C 643.76 680.67 633.57 676.39 625.36 676.09 C 629.65 686.54 628.45 700.10 618.77 707.17 C 620.77 698.04 623.53 686.98 616.96 679.03 C 614.91 675.91 610.89 676.97 607.87 677.64 C 594.69 680.94 584.53 691.14 577.26 702.17 C 564.63 721.74 557.61 744.95 557.79 768.27 C 550.90 757.61 549.12 744.48 546.88 732.23 C 520.98 721.16 490.65 724.76 465.58 736.50 C 458.98 739.47 453.10 743.96 446.18 746.21 C 456.49 736.50 468.94 729.14 481.42 722.52 C 495.08 715.01 511.65 714.65 524.55 705.56 C 526.65 703.80 529.37 702.13 530.07 699.32 C 525.82 697.12 521.09 694.31 519.59 689.47 C 530.75 695.39 546.83 695.76 554.40 684.02 C 554.12 678.68 553.65 673.18 551.66 668.17 C 548.09 661.33 540.79 657.60 533.72 655.35 C 532.50 655.49 531.11 653.05 532.89 653.08 C 548.55 649.55 564.60 662.58 565.21 678.40 C 578.33 673.81 580.12 654.09 571.33 644.62 C 562.23 632.65 546.11 629.95 531.98 630.37 C 502.40 630.85 474.89 645.80 453.82 665.81 C 449.01 669.93 445.10 675.11 439.78 678.62 C 445.99 643.73 478.53 619.13 511.82 612.23 C 535.86 607.73 563.35 609.49 582.28 626.67 C 585.25 617.01 590.75 607.94 599.53 602.51 C 616.89 590.91 639.56 590.53 659.08 596.19 C 671.96 600.62 685.02 606.33 694.17 616.82 C 704.02 625.42 710.84 636.84 715.17 649.08 C 697.45 632.27 676.14 618.58 652.05 613.25 C 643.74 612.38 635.34 612.73 627.00 612.99 C 616.81 613.22 606.12 619.69 603.78 630.09 C 602.00 637.72 602.64 647.43 609.62 652.33 C 613.71 655.75 619.36 655.02 624.30 654.89 C 623.47 641.47 632.46 625.47 647.33 625.69 C 641.11 631.95 634.64 639.44 635.80 649.00 C 634.57 656.75 642.78 662.66 649.94 661.29 C 655.25 660.93 659.01 656.97 662.81 653.74 C 662.52 657.57 659.62 662.05 662.66 665.43 C 667.35 671.05 672.21 677.42 679.58 679.54 C 690.10 683.30 699.09 690.04 708.16 696.30 C 714.68 674.72 733.40 655.02 757.01 654.31 C 759.86 654.74 757.51 651.89 756.90 650.93 C 750.89 642.85 744.37 634.94 736.06 629.12 C 732.01 625.91 727.13 623.79 723.49 620.08 C 725.71 620.75 727.79 621.76 730.03 622.41 C 727.08 618.99 722.40 617.95 719.17 614.88 C 730.02 615.70 739.31 622.35 749.65 624.52 C 796.03 614.58 832.45 568.69 829.99 521.01 C 829.91 509.67 830.44 498.11 827.19 487.10 C 821.01 460.31 808.42 434.43 789.01 414.81 C 785.01 425.56 782.16 436.78 776.89 447.03 C 768.07 465.80 752.41 481.42 733.16 489.33 C 723.42 492.82 713.33 495.52 703.07 496.89 C 675.46 498.40 646.87 498.88 620.75 488.40 C 601.30 481.42 585.10 467.43 572.85 451.04 C 558.06 432.03 550.40 408.79 543.94 385.94 C 532.59 378.28 517.42 379.74 504.32 380.47 M 117.88 389.88 C 121.95 394.75 126.28 399.46 130.86 403.84 C 147.86 404.55 164.89 406.03 181.79 407.49 C 179.18 401.67 174.77 396.80 169.88 392.80 C 152.62 391.11 135.24 389.45 117.88 389.88 M 90.36 391.52 C 76.92 393.33 61.98 398.88 55.91 412.01 C 49.64 422.96 50.89 435.99 51.38 448.08 C 51.52 450.86 52.26 455.19 55.97 454.72 C 61.79 454.24 67.62 453.70 73.45 453.30 C 69.76 445.21 69.46 436.11 65.95 427.98 C 64.40 424.03 62.27 420.30 61.18 416.18 C 65.70 413.64 67.39 426.02 71.80 421.78 C 85.04 408.26 104.94 405.58 122.94 404.64 C 118.71 400.03 114.82 394.74 109.31 391.60 C 103.22 389.51 96.61 391.02 90.36 391.52 M 180.98 394.91 C 183.25 398.43 186.32 401.39 188.26 405.13 C 190.41 410.56 197.43 409.73 202.19 410.44 C 205.17 407.42 208.86 403.51 209.05 399.28 C 199.95 396.76 190.45 394.96 180.98 394.91 M 122.35 410.47 C 106.85 410.57 90.81 413.71 78.22 423.26 C 76.47 424.62 74.29 426.92 75.62 429.28 C 80.44 438.25 86.00 447.03 88.72 456.93 C 89.24 458.26 89.60 459.84 90.84 460.73 C 96.65 457.41 102.25 453.61 108.68 451.56 C 120.19 446.97 132.74 447.47 144.72 445.31 C 141.32 435.36 135.86 426.25 130.75 417.10 C 128.76 414.00 126.99 409.07 122.35 410.47 M 135.03 410.26 C 136.67 415.67 140.40 420.12 142.66 425.27 C 146.28 432.00 148.53 439.50 152.79 445.85 C 162.37 447.20 172.09 448.07 181.77 448.09 C 184.95 440.54 188.45 433.14 192.53 426.04 C 189.67 420.72 187.31 412.49 179.87 412.80 C 164.99 411.34 149.99 409.48 135.03 410.26 M 193.54 414.80 C 194.02 417.21 196.82 421.61 198.64 417.64 C 200.40 414.38 195.50 414.52 193.54 414.80 M 138.28 452.41 C 124.36 453.54 110.15 456.12 97.92 463.19 C 96.20 464.31 93.88 465.59 93.94 467.96 C 98.76 485.23 104.31 502.61 107.24 520.33 C 111.19 519.50 114.34 516.74 117.96 515.10 C 130.63 508.40 145.37 508.66 159.07 506.00 C 161.50 502.30 159.54 498.21 160.27 494.19 C 158.46 493.10 158.06 491.72 159.23 489.94 C 156.24 478.14 152.82 466.38 148.21 455.09 C 146.85 450.73 141.64 452.35 138.28 452.41 M 154.84 452.20 C 157.12 458.92 159.36 465.69 162.09 472.25 C 166.81 466.73 172.15 461.12 174.23 454.23 C 167.86 452.93 161.33 452.37 154.84 452.20 M 52.81 459.71 C 54.74 475.99 57.07 492.36 60.85 508.31 C 69.30 507.36 77.87 505.59 86.24 503.83 C 85.49 493.14 81.53 482.80 79.60 472.23 C 78.43 468.36 78.16 461.92 72.86 461.70 C 66.16 461.13 59.46 460.63 52.81 459.71 M 72.34 513.49 C 68.76 513.84 65.15 514.25 61.69 515.27 C 64.08 526.77 65.22 538.88 69.12 549.89 C 77.51 546.89 86.34 545.66 95.02 543.98 C 93.57 533.60 91.46 523.23 88.93 513.07 C 83.44 512.21 77.85 513.19 72.34 513.49 M 151.32 513.45 C 136.57 515.24 120.81 518.41 108.98 527.91 C 111.80 542.48 114.00 557.56 118.10 571.95 C 132.27 565.37 147.62 560.46 163.38 560.22 C 159.84 545.02 161.43 529.32 159.78 513.95 C 157.72 512.43 153.99 513.61 151.32 513.45 M 93.34 552.47 C 85.76 553.54 77.28 552.87 70.46 556.64 C 71.73 569.89 75.55 582.91 78.19 595.96 C 86.43 592.57 94.66 589.12 103.43 587.30 C 102.71 576.31 99.58 565.49 97.48 554.66 C 97.48 552.16 95.15 552.24 93.34 552.47 M 150.27 568.41 C 140.14 569.23 130.16 572.30 121.34 577.35 C 118.67 578.50 119.58 581.68 119.87 583.91 C 123.07 598.93 125.87 614.06 129.37 629.03 C 147.27 620.67 167.08 616.61 186.84 618.41 C 177.85 604.11 172.21 588.07 166.64 572.21 C 164.73 565.13 155.56 568.79 150.27 568.41 M 101.33 596.44 C 95.54 597.13 89.77 598.33 84.32 600.43 C 82.10 601.19 79.85 603.31 80.59 605.89 C 84.14 618.49 86.36 631.43 90.46 643.89 C 97.58 639.93 104.84 636.41 112.81 634.47 C 113.59 624.48 109.29 614.76 107.92 604.90 C 107.21 601.21 106.78 594.66 101.33 596.44 M 163.34 626.48 C 152.09 626.58 140.20 629.28 131.56 636.81 C 132.42 648.52 137.64 659.40 139.74 670.91 C 141.08 674.14 140.95 678.19 142.92 680.99 C 148.46 678.12 153.67 674.33 159.91 673.07 C 165.21 671.41 171.80 672.38 175.80 667.81 C 182.76 660.35 190.64 653.43 200.20 649.56 C 196.96 643.73 195.05 637.34 192.71 631.14 C 191.41 627.73 187.60 626.68 184.31 626.53 C 177.33 626.12 170.33 626.32 163.34 626.48 M 803.41 629.53 C 797.01 632.31 790.95 635.86 784.85 639.23 C 787.00 644.49 793.56 649.03 798.65 644.67 C 803.16 638.77 808.05 633.21 813.94 628.63 C 810.41 628.49 806.78 628.32 803.41 629.53 M 822.24 629.40 C 815.45 633.68 809.00 639.09 804.51 645.81 C 813.25 647.88 822.40 647.08 831.15 649.22 C 835.39 650.39 838.13 646.33 841.02 644.03 C 845.99 639.42 852.70 637.51 858.06 633.53 C 846.38 630.56 834.25 629.62 822.24 629.40 M 861.15 639.33 C 839.58 645.51 826.66 668.52 826.00 689.99 C 826.54 706.81 828.54 725.45 840.97 738.03 C 850.38 747.91 865.48 748.39 877.92 745.18 C 892.01 741.42 902.47 729.28 907.31 715.92 C 914.86 694.94 912.82 668.16 895.63 652.38 C 886.88 643.29 874.10 636.12 861.15 639.33 M 110.33 643.45 C 104.40 644.61 98.61 646.59 93.28 649.46 C 92.45 654.07 95.02 658.49 96.00 662.94 C 99.51 673.43 102.65 684.05 106.74 694.34 C 113.04 689.45 120.63 687.31 128.02 684.81 C 126.34 674.21 121.68 664.33 119.35 653.86 C 117.93 649.06 117.63 640.18 110.33 643.45 M 804.29 651.32 C 802.59 655.37 806.70 659.09 808.26 662.68 C 805.50 662.40 801.46 662.53 800.81 665.93 C 801.70 668.78 803.34 671.34 805.09 673.74 C 806.73 671.26 807.76 668.45 809.03 665.79 C 811.06 669.52 811.25 674.47 814.95 677.12 C 817.23 676.30 819.34 673.39 820.75 676.90 C 822.66 668.85 827.49 661.97 831.28 654.75 C 822.37 653.16 813.33 651.75 804.29 651.32 M 233.27 659.53 L 231.79 659.92 C 238.49 662.24 245.21 664.81 250.86 669.25 C 253.79 671.05 256.20 674.48 260.01 674.05 C 273.83 674.21 287.74 674.41 301.29 677.32 C 297.96 667.67 286.74 665.93 277.95 664.61 C 263.41 661.04 248.35 656.36 233.27 659.53 M 208.33 665.44 C 198.15 669.12 190.04 677.21 184.03 686.00 C 172.10 708.01 175.35 736.85 190.42 756.54 C 203.84 773.62 229.45 779.59 248.84 769.74 C 265.99 759.61 273.38 738.19 271.16 719.05 C 270.49 694.76 253.54 671.75 230.05 665.04 C 222.86 664.37 215.44 664.04 208.33 665.44 M 305.14 671.19 C 307.09 673.99 308.67 677.55 312.01 678.94 C 317.11 680.57 325.58 683.48 325.80 675.24 C 318.99 673.54 312.03 672.51 305.14 671.19 M 753.28 673.40 C 750.17 674.50 747.18 675.91 744.25 677.41 C 751.44 684.08 757.07 694.06 754.87 704.09 C 749.81 697.32 746.56 688.65 739.02 683.98 C 736.42 684.04 735.45 687.21 734.03 688.97 C 720.22 710.57 719.50 737.15 719.20 761.98 C 718.78 764.45 719.71 767.67 718.16 769.66 C 704.04 751.75 705.07 727.55 706.23 706.00 C 696.00 698.32 683.32 694.00 670.77 691.94 C 674.13 699.00 676.70 706.46 677.57 714.28 C 680.62 739.93 675.48 765.98 665.98 789.81 C 674.63 790.57 683.32 789.41 691.98 789.94 C 700.47 789.90 708.73 792.28 717.19 792.46 C 715.97 787.64 713.74 783.20 711.67 778.72 C 711.86 776.51 713.37 779.63 714.06 780.03 C 721.63 790.26 732.22 799.12 745.07 801.36 C 757.87 803.85 771.56 798.86 780.04 789.01 C 791.39 776.10 796.85 758.86 798.39 741.98 C 798.94 728.89 800.60 715.45 797.92 702.52 C 795.61 705.17 794.25 708.55 791.55 710.87 C 792.76 701.85 794.67 691.70 789.40 683.55 C 785.31 677.87 779.04 672.57 771.68 672.72 C 778.64 682.41 779.23 695.73 773.46 706.18 C 772.73 697.04 772.56 686.95 766.50 679.47 C 763.34 675.63 758.69 671.17 753.28 673.40 M 166.23 679.41 C 159.30 681.78 150.74 682.92 145.90 688.83 C 149.79 698.36 153.96 708.12 160.22 716.32 C 160.12 703.88 162.83 691.68 168.46 680.56 C 169.95 678.29 167.65 679.11 166.23 679.41 M 265.20 679.37 C 264.59 679.50 263.37 679.78 262.76 679.92 C 269.45 688.45 273.39 698.53 276.40 708.85 C 285.31 709.76 294.61 709.69 303.47 708.37 C 302.21 700.90 301.94 693.06 299.22 685.95 C 290.04 678.17 276.59 677.96 265.20 679.37 M 126.37 693.51 C 120.82 695.25 114.60 696.12 110.10 700.11 C 109.64 704.89 113.10 708.88 115.03 713.01 C 118.36 718.16 120.45 724.32 124.99 728.55 C 130.78 723.50 137.45 719.86 144.63 717.21 C 140.00 709.28 135.55 701.24 131.83 692.84 C 129.99 692.85 128.16 693.12 126.37 693.51 M 547.17 712.36 C 544.38 713.35 541.61 714.37 538.87 715.50 C 541.69 717.16 544.67 718.59 547.78 719.62 C 549.39 717.08 553.11 709.00 547.17 712.36 M 277.65 714.90 C 277.45 724.49 277.75 734.15 276.04 743.65 C 289.92 743.32 303.97 744.61 317.75 742.76 C 319.28 735.32 318.54 727.48 317.09 720.08 C 316.64 716.74 312.67 716.79 310.10 716.34 C 299.32 715.39 288.47 714.98 277.65 714.90 M 146.29 724.41 C 140.71 726.44 134.43 727.83 130.11 732.16 C 129.72 734.92 132.66 736.33 134.72 737.36 C 141.09 740.04 148.26 739.67 154.93 738.52 C 156.52 738.78 160.35 740.85 160.40 737.99 C 158.84 733.55 154.78 730.67 151.80 727.21 C 150.22 725.88 148.72 722.97 146.29 724.41 M 911.36 745.48 C 907.97 746.47 905.22 749.10 903.25 751.96 C 906.89 755.39 911.64 757.26 915.59 760.30 C 929.40 770.03 938.66 785.00 943.74 800.89 C 946.96 818.64 946.83 838.69 935.75 853.83 C 947.39 850.68 959.54 845.89 966.68 835.59 C 978.71 818.99 976.46 795.75 967.68 778.21 C 956.11 758.90 934.32 744.54 911.36 745.48 M 274.41 749.50 C 271.71 755.03 268.47 760.24 265.12 765.40 C 279.97 764.12 294.88 763.48 309.68 761.59 C 311.92 758.67 313.96 755.49 315.29 752.04 C 314.09 749.17 309.60 750.33 306.96 749.83 C 296.17 749.96 284.85 748.92 274.41 749.50 M 322.34 752.07 C 320.68 754.84 319.64 757.93 318.54 760.96 C 320.82 760.96 323.29 761.33 325.41 760.25 C 325.06 757.61 323.78 752.92 322.34 752.07 M 105.31 753.46 C 94.24 755.28 83.13 760.01 75.65 768.63 C 73.17 771.78 70.42 776.67 73.53 780.31 C 78.55 786.22 84.68 791.77 92.05 794.31 C 98.50 782.62 105.78 770.65 117.65 763.67 C 121.85 760.73 127.07 759.57 131.09 756.36 C 122.87 753.42 113.93 753.45 105.31 753.46 M 153.30 757.44 C 139.67 758.52 126.10 763.58 116.14 773.15 C 100.01 788.62 92.42 812.04 95.16 834.10 C 96.55 843.65 99.93 855.38 110.01 858.97 C 128.01 864.34 146.67 867.06 165.17 870.11 C 152.68 852.54 151.79 828.91 158.85 809.05 C 163.97 795.94 174.02 784.98 185.83 777.51 C 179.63 771.51 175.31 764.01 170.21 757.16 C 164.58 756.89 158.92 757.09 153.30 757.44 M 888.14 757.36 C 870.76 763.34 852.47 766.54 834.20 768.22 C 843.74 773.21 854.68 776.62 862.73 784.27 C 871.19 792.63 877.31 803.10 881.77 814.06 C 882.17 815.62 883.69 816.26 885.13 816.59 C 891.74 814.28 898.36 811.91 905.07 809.88 C 915.49 807.78 924.82 802.26 935.11 799.71 C 929.07 783.15 917.89 766.99 901.41 759.48 C 897.22 758.01 892.59 755.56 888.14 757.36 M 816.32 772.47 C 815.19 772.61 813.55 772.45 813.30 773.91 C 809.22 785.45 802.96 796.10 795.91 806.06 C 806.80 815.15 813.18 828.69 816.60 842.23 C 820.08 856.24 815.82 870.44 810.63 883.41 C 822.85 882.10 834.98 879.12 847.10 876.80 C 854.83 875.15 863.48 873.22 868.48 866.49 C 876.30 856.45 876.12 843.07 875.91 830.98 C 876.28 799.70 847.21 772.21 816.32 772.47 M 335.32 778.48 C 319.40 778.61 303.52 780.15 287.92 783.35 C 268.42 786.39 251.64 800.90 244.21 818.94 C 236.58 834.98 237.14 854.01 242.47 870.66 C 244.41 877.46 249.13 883.93 256.41 885.46 C 274.75 889.53 293.51 891.47 312.09 894.05 C 295.50 869.54 300.18 836.22 314.75 811.90 C 323.08 797.22 336.99 786.94 351.89 779.65 C 347.94 776.51 340.54 779.08 335.32 778.48 M 368.29 781.45 C 353.94 782.32 341.50 790.74 332.23 801.23 C 321.96 811.59 315.72 825.15 311.82 839.04 C 336.14 842.67 360.53 846.05 384.88 849.92 C 387.92 838.53 392.03 827.28 398.29 817.22 C 405.89 805.24 417.29 796.12 429.86 789.77 C 432.01 788.43 434.73 787.64 436.18 785.44 C 413.79 781.87 390.94 780.01 368.29 781.45 M 451.29 788.43 C 415.35 794.32 390.28 831.73 392.74 866.99 C 392.95 879.71 393.07 893.97 401.74 904.22 C 405.51 909.31 412.17 910.15 417.99 911.00 C 438.32 913.77 458.71 917.04 479.21 917.73 C 473.03 908.93 467.30 899.08 466.31 888.06 C 465.61 879.43 463.96 870.42 466.89 862.04 C 469.76 839.00 482.72 816.76 503.34 805.38 C 506.87 803.18 511.28 802.10 514.16 799.04 C 502.58 794.77 490.25 793.04 478.19 790.61 C 469.31 789.35 460.29 787.34 451.29 788.43 M 180.27 790.25 C 172.89 797.16 167.38 806.29 164.58 816.02 C 172.00 820.17 181.82 818.86 190.12 821.19 C 204.32 823.09 218.42 825.91 232.67 827.33 C 236.12 817.13 241.78 808.01 247.25 798.85 C 234.15 801.84 220.38 802.72 207.13 800.26 C 197.71 798.43 189.14 792.40 180.27 790.25 M 519.20 804.38 C 493.65 812.53 477.47 838.48 474.06 864.13 C 482.75 864.84 491.57 864.89 500.06 867.08 C 520.55 868.10 541.07 870.60 561.59 869.20 C 562.23 871.46 563.66 870.02 564.97 869.39 C 571.95 870.12 578.98 870.07 585.99 869.84 C 585.41 855.84 582.21 841.74 575.68 829.27 C 572.34 822.23 564.55 819.52 558.06 816.25 C 545.59 811.17 532.90 804.51 519.20 804.38 M 682.43 809.47 C 674.84 816.21 666.82 822.58 659.85 829.95 C 666.32 840.35 670.65 852.07 671.64 864.33 C 693.73 862.41 716.05 859.60 737.40 856.02 C 736.62 843.32 729.47 831.94 721.74 822.21 C 712.62 810.62 696.22 807.57 682.43 809.47 M 797.47 821.45 C 777.95 835.59 751.92 830.32 731.22 821.73 C 736.72 829.62 741.70 837.98 744.58 847.22 C 745.55 849.61 745.85 852.62 748.01 854.30 C 767.82 850.62 787.52 846.41 806.88 840.77 C 806.65 833.46 802.95 826.47 799.08 820.39 C 798.68 820.65 797.87 821.18 797.47 821.45 M 644.10 825.36 C 645.78 827.00 642.51 831.74 646.08 830.06 C 650.27 829.75 645.53 826.44 644.10 825.36 M 640.18 827.27 C 631.58 831.06 622.38 833.39 613.09 834.69 C 603.14 836.35 593.64 832.07 584.27 829.43 C 593.69 849.44 595.94 872.44 591.78 894.12 C 590.08 903.42 585.50 911.94 579.05 918.80 C 602.11 917.75 625.14 915.42 647.98 912.02 C 656.97 909.92 661.50 900.51 662.68 892.07 C 665.59 873.10 665.20 852.10 654.50 835.45 C 652.91 833.02 650.45 829.59 647.10 830.83 C 646.44 831.91 647.66 835.71 645.61 834.72 C 643.94 832.47 643.20 827.12 640.18 827.27 Z"/><path fill="#000000" opacity="1.00" d=" M 630.84 192.28 C 635.01 191.87 630.26 196.07 630.84 192.28 Z"/><path fill="#000000" opacity="1.00" d=" M 595.36 261.49 C 601.06 260.10 609.14 264.32 606.79 271.11 C 603.29 280.26 594.34 285.97 585.96 290.20 C 580.68 293.25 571.30 290.31 572.58 283.10 C 575.21 272.54 584.92 264.00 595.36 261.49 Z"/><path fill="#000000" opacity="1.00" d=" M 407.43 262.49 C 413.80 260.36 420.44 263.76 425.55 267.42 C 430.70 271.63 436.44 276.07 438.50 282.69 C 439.96 287.83 433.86 292.28 429.11 291.14 C 419.41 289.22 411.13 282.59 405.05 275.03 C 401.62 271.25 402.03 264.18 407.43 262.49 Z"/><path fill="#000000" opacity="1.00" d=" M 326.33 320.48 C 344.31 320.30 362.39 319.63 380.30 321.54 C 405.06 324.97 430.23 329.93 452.68 341.33 C 461.12 344.95 462.74 354.83 462.00 363.00 C 460.77 386.21 454.57 409.25 444.07 429.98 C 436.27 444.89 422.56 456.27 406.93 462.24 C 389.21 469.34 369.93 470.68 351.04 470.92 C 331.55 470.56 311.26 468.68 293.96 458.85 C 276.99 449.43 265.14 432.38 259.85 413.93 C 255.28 398.01 252.21 381.56 251.65 364.98 C 251.59 355.42 252.15 345.02 257.98 337.00 C 263.38 330.08 272.62 328.51 280.63 326.47 C 295.70 323.48 310.99 321.27 326.33 320.48 M 352.36 334.53 C 347.31 335.11 346.84 341.38 344.83 345.06 C 330.81 382.19 318.14 419.87 306.30 457.73 C 311.32 459.79 316.67 461.10 322.04 461.94 C 324.21 457.81 325.52 453.30 327.15 448.94 C 340.52 410.94 355.72 373.59 370.09 335.98 C 364.33 334.51 358.27 334.33 352.36 334.53 M 295.17 344.35 C 281.93 347.46 269.99 360.05 271.56 374.27 C 272.22 382.40 280.02 388.41 288.00 387.81 C 303.58 388.81 317.61 374.39 317.27 359.05 C 316.69 348.58 305.05 341.16 295.17 344.35 Z"/><path fill="#000000" opacity="1.00" d=" M 661.32 320.48 C 690.77 319.40 720.64 321.04 749.09 329.20 C 760.25 332.06 768.14 342.93 768.59 354.29 C 770.46 381.07 766.76 408.76 755.33 433.23 C 748.84 447.61 735.68 458.07 720.95 463.14 C 701.58 470.28 680.60 469.40 660.33 468.52 C 643.96 467.19 627.45 463.41 613.10 455.21 C 599.77 446.19 588.56 433.65 582.48 418.64 C 573.77 398.01 567.87 375.60 568.87 353.07 C 568.78 344.90 575.71 339.16 582.84 336.69 C 607.84 326.94 634.61 322.10 661.32 320.48 M 664.21 334.39 C 662.06 334.38 660.80 336.02 660.24 337.92 C 652.66 357.31 646.60 377.24 639.67 396.87 C 633.74 415.29 626.36 433.29 621.46 452.00 C 625.14 454.97 630.30 456.13 634.80 457.71 C 636.53 454.95 637.46 451.78 638.58 448.75 C 651.63 410.69 665.55 372.83 677.62 334.50 C 673.21 333.70 668.65 333.92 664.21 334.39 M 625.23 341.38 C 615.35 344.36 606.61 353.33 606.22 363.99 C 605.83 370.71 611.16 377.08 617.86 377.84 C 631.13 379.50 645.14 367.80 644.16 354.04 C 644.03 344.96 633.47 338.89 625.23 341.38 Z"/><path fill="#000000" opacity="1.00" d=" M 236.37 326.50 C 240.78 325.19 245.97 328.36 246.32 333.04 C 246.50 342.78 231.36 349.08 225.41 340.64 C 223.84 336.96 223.21 330.53 227.99 329.04 C 230.66 327.85 233.50 327.07 236.37 326.50 M 237.32 330.44 C 233.90 331.40 227.92 332.60 228.16 337.09 C 231.45 342.49 242.57 339.86 242.16 332.99 C 242.26 330.42 239.23 330.00 237.32 330.44 Z"/><path fill="#000000" opacity="1.00" d=" M 775.37 326.43 C 780.19 325.70 785.08 327.52 789.35 329.65 C 794.37 332.03 793.74 339.66 789.51 342.50 C 783.68 346.80 774.54 343.57 771.97 336.99 C 770.28 333.38 771.15 327.82 775.37 326.43 M 777.40 330.48 C 769.87 335.12 783.75 344.25 787.82 337.93 C 790.26 332.01 781.61 330.30 777.40 330.48 Z"/><path fill="#000000" opacity="1.00" d=" M 508.37 440.50 C 517.53 439.04 527.79 438.90 535.97 443.88 C 541.11 446.94 544.92 453.38 542.54 459.36 C 539.34 467.53 530.68 471.22 523.08 474.16 C 522.44 482.81 524.14 491.80 527.23 499.92 C 531.03 508.43 538.84 517.05 548.98 516.34 C 557.58 515.98 563.88 508.59 566.76 501.07 C 568.52 495.55 568.26 488.97 572.48 484.50 C 576.59 480.96 582.70 485.39 583.34 490.05 C 586.93 507.74 575.45 527.10 558.16 532.39 C 543.76 537.06 527.64 531.10 518.60 519.25 C 512.91 524.30 507.70 530.51 500.11 532.72 C 492.93 534.65 485.23 534.91 477.91 533.69 C 461.62 529.24 448.41 513.23 449.24 496.01 C 449.11 492.12 449.09 487.23 452.97 485.03 C 456.92 482.22 462.56 485.16 463.47 489.67 C 465.64 498.29 467.89 507.93 475.44 513.53 C 484.24 520.02 497.82 518.17 504.63 509.60 C 512.91 500.06 515.80 486.78 514.82 474.41 C 505.17 472.46 494.01 467.42 491.60 456.88 C 490.81 447.67 500.44 441.99 508.37 440.50 M 511.20 446.37 C 507.00 447.03 499.55 449.06 501.36 454.76 C 507.62 465.33 523.95 465.75 532.23 457.23 C 535.02 455.05 534.58 449.95 531.09 448.75 C 525.12 445.11 517.87 445.20 511.20 446.37 Z"/><path fill="#000000" opacity="1.00" d=" M 866.35 670.44 C 875.69 667.79 885.21 673.83 889.29 682.10 C 895.32 693.76 892.01 708.90 883.19 718.21 C 877.05 723.30 866.35 726.37 860.06 719.91 C 851.18 711.38 848.79 697.55 852.70 686.10 C 854.82 679.39 859.06 672.26 866.35 670.44 M 871.35 680.44 C 857.56 682.41 856.68 706.35 869.96 709.97 C 878.36 711.42 885.85 703.15 884.62 694.99 C 883.70 688.26 878.81 680.58 871.35 680.44 Z"/><path fill="#000000" opacity="1.00" d=" M 290.12 689.21 C 291.67 688.87 292.94 691.25 292.66 692.61 C 291.15 693.00 289.50 690.55 290.12 689.21 Z"/><path fill="#000000" opacity="1.00" d=" M 214.23 694.38 C 224.22 691.43 234.70 697.99 239.34 706.72 C 244.08 714.60 244.45 724.28 242.80 733.11 C 240.37 743.17 230.87 752.71 219.86 750.83 C 206.80 748.42 198.93 735.27 197.70 722.86 C 195.25 711.01 203.10 698.47 214.23 694.38 M 218.28 705.41 C 210.31 706.20 206.09 714.79 206.06 722.04 C 207.62 727.18 209.13 732.87 213.35 736.53 C 218.06 738.02 223.93 738.38 228.00 735.08 C 237.58 726.31 232.87 704.89 218.28 705.41 Z"/><path fill="#000000" opacity="1.00" d=" M 363.79 723.72 C 376.20 732.98 389.80 741.11 404.81 745.39 C 416.54 747.76 428.65 747.26 440.50 746.14 C 426.18 752.59 409.25 754.97 394.15 749.65 C 381.17 745.27 370.70 735.33 363.79 723.72 Z"/><path fill="#000000" opacity="1.00" d=" M 639.31 829.52 C 643.17 828.91 639.06 833.60 639.31 829.52 Z"/><path fill="#000000" opacity="1.00" d=" M 648.31 832.16 C 652.30 831.15 647.15 836.12 648.31 832.16 Z"/><path fill="#000000" opacity="1.00" d=" M 642.27 833.26 C 645.62 833.27 640.73 836.28 642.27 833.26 Z"/></g></svg>