<svg id="a" xmlns="http://www.w3.org/2000/svg" viewBox="0 0 100 100"><g transform="translate(1, 1.5405602534588496) scale(0.22337200556150708) translate(-6.870000000000045, -1.9100000000000392)"><path d="M250.77,410.17c-17.22,2.48-34.14,2.27-51.22,.01-.36,1.41-.6,2.59-.95,3.74-1.63,5.27-5.15,9.13-9.56,12.14-10.35,7.07-21.64,9.74-33.98,6.62-1.91-.48-3.78-1.38-5.45-2.43-5.89-3.72-7.31-10.19-3.52-16.16,3.28-5.17,8.15-8.47,13.65-10.93,.87-.39,1.75-.74,2.66-1.13,.53-1.07,1.05-2.13,1.61-3.28-9.45-4.37-17.62-10.41-24.14-18.46-9.43-11.65-14.62-24.75-12.6-40.02,1.21-9.17,4.2-17.82,8.27-26.07,2.06-4.19,4.47-8.21,6.73-12.3,.59-1.07,1.17-2.13,1.95-3.56-15.83-7.2-30.18-16.08-41.35-29.67-13.33,3.2-25.85,8.51-38.71,13.01,2.83-3.57,6.74-5.55,10.71-7.36,3.98-1.82,8.06-3.47,12.19-4.93,4.19-1.49,8.49-2.66,13.08-4.07-1-1.38-1.87-2.58-2.82-3.88h-14.79c3.7-2.79,8.23-2.19,12.64-3.28-1.95-3.92-3.83-7.72-5.84-11.76-7.69-1.28-15.53-2.59-23.37-3.89l.05-1.12c3.56-.58,7.19-.43,10.79-.22,3.59,.21,7.16,.65,11.22,1.03-6.16-18.99-5.7-38.07-2.11-57.38-3.67-.17-6.9-.19-10.1-.5-17.06-1.65-30.95-9.59-42.61-21.8-14.43-15.11-21.71-33.43-23.89-53.94-2.44-23,2.14-44.66,13.48-64.78,7.59-13.47,17.57-24.8,31.8-31.59,21.57-10.3,44.32-5.94,62.31,10.42,19.28,17.54,29.81,39.99,35.13,65.16,.13,.63,.32,1.25,.55,2.17,22.87-11.23,47.03-15.69,72.14-15.57,25.1,.12,49.36,4.23,72.36,15.79,.5-1.66,.98-3.05,1.35-4.48,5.11-19.93,13.17-38.43,26.45-54.36,9.24-11.09,20.23-19.76,34.56-23.21,13.76-3.31,26.73-.77,38.83,6.3,14.06,8.21,23.99,20.26,31.07,34.68,14.82,30.19,16.26,60.87,2.12,91.69-7.09,15.46-17.84,27.91-32.94,36.26-10.65,5.89-22.03,8.38-34.17,7.35-.38-.03-.76,0-1.75,0,3.01,18.32,4.21,36.58-1.42,55.03,6.31-.19,12.25-1.24,18.1,.02l.1,.96c-6.39,.96-12.78,1.92-19.42,2.92-1.79,4.06-3.61,8.21-5.51,12.51,2.97,.56,5.71,1.08,8.46,1.6l-.05,.98h-10.03c-1.38,2.3-2.49,4.13-3.79,6.28,11.98,3.16,23.72,6.05,33.5,13.5l-.25,.67c-11.72-3.76-23.44-7.53-35.1-11.27-6.14,7.04-12.29,13.34-19.78,18.01-7.34,4.57-14.98,8.68-22.8,13.16,.4,.7,.96,1.76,1.6,2.77,8.12,12.93,13.84,26.73,15.58,42.03,.58,5.11-.09,10.09-1.3,15.03-.36,1.47-.8,2.93-1.28,4.69,.88-.04,1.63,.08,2.27-.13,3.07-1.01,6.23-1.86,9.14-3.21,7.92-3.69,11.98-10.19,12.42-18.78,.26-5.13-.07-10.3-.21-15.45-.23-8.31,.43-16.43,4.85-23.77,3.91-6.49,9.48-10.93,16.85-12.86,8.58-2.24,16.99,1.03,21.4,8.73,2.01,3.51,3.31,7.48,4.53,11.37,1,3.19-.68,5.82-3.5,6.43-2.7,.58-5-1.04-5.85-4.16-.57-2.12-.93-4.3-1.65-6.36-2.01-5.75-6.87-8.33-12.74-6.55-8.41,2.55-12.42,9.02-13.56,17.15-.76,5.43-.28,11.03-.46,16.55-.16,4.85-.05,9.76-.81,14.53-1.59,9.99-7.34,17.23-16.11,22.06-6.88,3.79-14.38,5.52-22.56,6.27-7.24,10.09-16.44,18.36-28.05,23.86-.35,.75-.71,1.51-1.14,2.43,1.73,.62,3.34,1.16,4.92,1.78,5.13,2.02,9.76,4.8,13.39,9.04,5.75,6.7,4.35,15-3.63,18.81-3.5,1.67-7.62,2.49-11.53,2.77-8.19,.59-15.92-1.56-23.01-5.66-6.82-3.94-12.37-9-13.43-17.95Zm104.58-170.07c2.84-7.97,4.15-15.86,4.32-23.9,.46-21.57-3.44-42.38-11.87-62.23-13.9-32.73-37.5-55.2-71.38-66.49-14.22-4.74-28.93-6.76-43.88-7.28-17.25-.6-34.3,.55-51.09,4.85-30.69,7.85-55.14,24.56-71.74,51.68-16.56,27.06-23.07,56.68-19.98,88.29,.62,6.35,2.15,12.57,4.66,18.59,10.73,2.2,21.51,3.94,31.38,8.78l-.19,.82c-9.6-1.82-19.21-3.63-29.54-5.59,2.15,4.03,3.93,7.36,5.67,10.61,6.6,.73,13.04,.82,19.08,3.34h-16.18l1.84,2.58c5.9-.51,11.5-.99,17.1-1.47l.16,1.09c-4.81,1.06-9.61,2.12-15.05,3.31,2.5,2.51,4.4,4.64,6.53,6.53,13.49,12.02,29.29,19.89,46.3,25.47,23.94,7.86,48.56,10.46,73.67,9.29,22.81-1.06,44.81-5.67,65.82-14.63,13.69-5.84,26.44-13.25,36.94-24.04,.96-.98,1.74-2.13,2.8-3.45-6.96-1.61-13.45-3.11-19.94-4.61l.16-.87c7.41-.51,14.61,1.22,22.08,2.56,1.05-1.48,2.11-2.97,3.3-4.66h-21.79c-.02-.33-.05-.66-.07-.99,7.99-.85,15.98-1.7,24.36-2.58,1.54-3.3,3.2-6.84,4.86-10.39l-.63-.69c-11.08,2-22.15,4-33.23,6l-.15-.66c11.18-5.57,23.45-7.2,35.69-9.26Zm-206.13,60.66c-6.47,9.96-11.99,20.31-14.76,31.83-1.28,5.32-2.29,10.95-1.98,16.35,.72,12.76,6.67,23.33,15.8,32.1,11.24,10.8,24.95,17.03,39.8,21.02,16.6,4.46,33.56,4.97,50.56,3.85,15.45-1.03,30.33-4.58,44.19-11.78,12.05-6.26,22.04-14.69,28.53-26.83,3.81-7.13,5.75-14.68,5.03-22.85-.97-11.04-4.77-21.17-9.69-30.93-2.25-4.47-4.94-8.72-7.37-12.96-6.19,1.96-11.78,3.88-17.46,5.5-5.67,1.61-11.43,2.93-17.51,4.47-1.82,2.77-3.78,5.74-5.72,8.7,6.51,7.01,13.49,11.96,22.62,12.88,9.16,.93,16.43-2.72,22.26-9.85-.46,1.81-1,3.52-1.98,4.94-3.45,4.97-8.44,7.56-14.24,8.8-1.48,.32-3.31,.29-4.34,1.17-4.16,3.53-9.28,4.78-14.22,6.48-4.74,1.64-9.56,1.95-14.29,.07-4.84-1.92-8.14-5.33-8.84-10.69-.62-4.82,.89-9.13,4.88-11.82,3.48-2.35,4.13-6.09,6.71-9.57-24.3,3.53-47.87,3.04-72.02-1.01,3.3,4.03,5.07,8.08,8.81,10.97,4.34,3.35,6.12,8.34,4.28,13.86-1.85,5.55-6.16,8.43-11.77,9.09-7.66,.89-14.44-2.04-20.81-5.8-2.16-1.27-4.2-2.36-6.67-2.95-5.51-1.33-10.4-3.86-13.54-8.85-.7-1.11-.89-2.53-1.32-3.81l.68-.16c10.2,13.02,32.46,11.6,40.52-3.01-3.56-4.74-5.18-11.63-13.08-12.17-1.12-.08-2.22-.53-3.32-.87-6.46-2-12.91-4.02-19.72-6.15ZM47.88,151.77C19.21,126.83,12.7,95.44,22.44,60.05c-14.94,33.31-7.91,72.52,25.44,91.72Zm351.72,7.25c15.5-9.59,26.87-22.6,32.72-40.16,5.85-17.57,2.92-41.14-2.56-51.12,9.28,36.31-2.3,66.42-30.15,91.28Zm-65.02-117.14c15.41-17.03,34.92-19.97,56.3-16.67-23.05-6-44.54,.47-56.3,16.67ZM103.11,29.54c-15.3-7.81-31.05-8.44-47.15-2.86,16.04-4.44,31.75-3.49,47.15,2.86Z"/><path d="M173.31,217.02c-.21,8-1.02,15.7-4.76,22.67-1.45,2.7-3.46,5.33-5.81,7.29-5.23,4.36-12.19,3.85-17.19-.81-5-4.66-7.06-10.76-8.21-17.24-2.23-12.55-.78-24.74,4.37-36.36,1.35-3.04,3.55-5.92,5.96-8.24,4.39-4.21,10.63-4.23,14.96,.03,2.44,2.41,4.47,5.48,5.91,8.61,3.52,7.65,4.47,15.91,4.76,24.04Zm-17.3-21.6c-.02-2.86-1.6-4.74-3.91-4.65-2.31,.09-4.47,2.85-4.52,5.78-.05,2.72,1.64,4.67,3.98,4.58,2.5-.1,4.47-2.63,4.45-5.71Z"/><path d="M305.32,217.82c-.32,9.38-1.47,18.11-7.14,25.57-4.38,5.77-10.87,7.91-16.89,5.44-4.38-1.8-7.52-5.14-9.08-9.44-1.71-4.7-3.13-9.64-3.73-14.59-1.29-10.63-.43-21.2,3.73-31.18,1.35-3.26,3.49-6.4,5.96-8.93,4.49-4.62,10.62-4.73,15.39-.36,2.4,2.2,4.43,5.02,5.97,7.91,4.3,8.09,5.53,16.97,5.8,25.6Zm-10.39-21.03c.08-2.91-2.59-6.2-5.1-6.3-2.23-.09-4.2,2.19-4.19,4.83,.01,2.99,2.45,5.8,5.1,5.87,2.36,.06,4.13-1.79,4.2-4.4Zm3.6,36.53c-.09-1.58-.55-2.98-2.41-2.83-1.97,.16-2.57,1.68-2.61,3.45-.04,1.63,.53,2.9,2.38,2.79,2.05-.13,2.49-1.72,2.65-3.41Z"/><path d="M222.77,230.85c4.1,.15,7.71,1.12,10.66,3.87,3.42,3.19,3.51,7.49,.26,10.86-5.09,5.27-15.93,5.46-21.19,.37-3.2-3.1-3.43-7.08-.53-10.47,2.87-3.37,6.74-4.44,10.81-4.63Zm7.18,8.17c-1.23-4.34-7.79-6.17-11.16-3.01,3.69,.99,7.53,2.03,11.16,3.01Z"/><path d="M120.18,229.78c3.09-.08,6.22,.67,8.89,2.69,4.41,3.34,4.24,8.86-.28,11.95-5.13,3.5-14.1,2.96-18.74-1.14-3.45-3.04-3.53-6.99-.13-10.13,2.82-2.61,6.28-3.43,10.25-3.38Z"/><path d="M320.48,245.42c-.93-.14-2.67-.21-4.3-.68-6.07-1.77-7.56-8.15-2.91-12.49,3.34-3.12,7.48-4.17,11.89-3.79,2.03,.18,4.16,.8,5.97,1.74,4.39,2.28,5.14,7.16,1.81,10.8-3.13,3.42-7.27,4.29-12.46,4.42Z"/><path d="M240.73,258.93c-.16,10.51-6.22,18.11-15.75,19.38-9.94,1.32-18.97-5.22-21.57-15.9-.35-1.44-.26-3.02,1.62-3.41,1.99-.41,2.69,1,3.07,2.59,1.37,5.68,4.47,9.83,10.23,11.62,9.23,2.88,17.97-3.86,18.24-14.05,.02-.86-.28-1.81,0-2.55,.33-.84,1.27-2.16,1.72-2.07,.89,.17,1.85,1.02,2.35,1.86,.38,.63,.07,1.67,.07,2.52Z"/></g></svg>