<?xml version="1.0" encoding="UTF-8"?><svg id="a" xmlns="http://www.w3.org/2000/svg" viewBox="0 0 450 540"><path d="M303.91,320.16c5.5,13.15,10.86,25.96,16.23,38.82,.54-.97,1.36-2.42,2.16-3.87,4.06-7.31,9.59-13.08,17.45-16.28,8.46-3.44,15.39-.14,18.02,8.6,1.96,6.5,1.48,13.06-.03,19.58-4.38,18.86-17.4,35.56-40.63,38.19-.96,.11-1.91,.38-2.34,1.18-7.06,6.58-14.12,13.16-21.18,19.75,1.41,.74,3.34,1.66,5.17,2.75,6.58,3.91,8.17,10.54,3.95,16.94-5.22,7.91-13.04,9.52-21.7,8.28-11.1-1.59-20.07-7.1-27.27-15.97-18.08,2.29-36.2,2.11-53.05-.16-7.34,4.28-13.53,8.52-20.23,11.62-8.73,4.04-17.95,6.46-27.72,3.53-4-1.2-7.3-3.22-9.37-6.96-3.15-5.67-2.19-11.87,3.1-15.61,3.74-2.65,8.06-4.5,11.86-6.56-3.88-3.28-8.3-6.54-12.15-10.38-10.62-10.59-15.15-23.99-16.74-38.53-1.98-18.11,3.4-34.42,12.65-49.71,1.17-1.94,2.35-3.88,3.8-6.26-25.2-11.07-48.03-24.83-60.9-51.27-3.7,.75-7.54,1.53-11.38,2.31l-.17-.46,10.53-3.92c-1.2-5.93-2.37-11.71-3.62-17.84-3.3-.38-6.69-.76-10.09-1.15v-.87h10.26c-1.26-21.4,2.39-41.47,9.34-61.37-1.31-.12-2.23-.31-3.14-.27-34.14,1.56-75.71-25.71-81.58-71C.37,76.31,18.52,36.66,50.23,18.04,81.45-.29,124.97,1.01,153.18,31.04c14.88,15.84,23.01,34.87,25.23,56.45,.09,.84,.22,1.67,.41,3.05,15.73-5.7,31.81-7.88,48.22-7.88,16.29,0,32.31,1.97,48.02,7.41,.87-5.65,1.49-10.77,2.48-15.83,3.54-18.2,10.22-34.79,24.13-47.85,15.74-14.78,34.14-23.25,55.82-23.32,18.74-.07,35.45,6.55,50.1,17.99,32.47,25.37,46.06,68.97,33.26,108.14-8.36,25.57-25.3,43.49-50.92,52.6-7.67,2.73-15.69,2.59-24.25,1.2,6.97,20.46,11.32,40.86,9.8,62.62,2.5,.31,4.89,.61,7.29,.91l.04,.4c-2.36,.29-4.72,.58-7.29,.9-1.34,5.84-2.66,11.58-4.05,17.63,3.48,1.17,7,2.36,10.52,3.55l-.15,.54c-3.75-.69-7.51-1.38-11.51-2.11-6.29,13.83-16.56,24.03-28.53,32.73-11.79,8.57-24.95,14.56-37.88,19.99Zm59.15-74.41c.32-1.52,.79-2.67,.77-3.8-.22-9.83,.37-19.78-.99-29.46-3.37-24.04-12.57-46.01-25.98-66.22-15.78-23.79-37.46-39.64-64.84-47.47-19.14-5.47-38.74-6.3-58.56-5.09-30.9,1.89-57.82,13.08-79.65,34.88-30.61,30.57-43.67,68.33-42.93,111.21,.03,1.88,.51,3.76,.82,5.84,20.28-.75,39.26,3.5,57.93,10.5-19.04-2.41-37.83-4.78-57.69-7.29,1.3,5.14,2.3,9.11,3.38,13.37,17.97-5.16,35.67-5.62,53.57-3.67-17.15,2.28-34.3,4.56-52.44,6.97,2.51,4.29,4.52,7.74,6.7,11.47,13.16-7.32,25.89-14,40.33-16.39-13.05,5.55-26.11,11.1-39.61,16.84,1.65,2.08,2.64,3.49,3.78,4.76,9.8,11.01,22.21,18.28,35.6,23.78,50.56,20.77,101.84,21.7,153.54,4.61,15.28-5.05,29.66-12.11,42.23-22.36,3.8-3.1,7.2-6.7,11.48-10.71-14-5.87-27.04-11.34-40.08-16.81,14.48,2.52,27.24,9.32,40.46,16.2,2.29-3.84,4.4-7.36,6.92-11.59-18.19-2.34-35.39-4.55-52.59-6.77,1.29-.66,2.61-.96,3.95-1.01,16.7-.71,33.31-.33,50.07,4.6,1.31-4.33,2.52-8.33,3.73-12.33l-.84-.97c-19.13,2.4-38.27,4.81-57.48,7.22,18.7-7.2,37.92-11.18,58.43-10.31ZM167.11,100.75c.21-1.9,.52-3.82,.62-5.76,.59-12.34-1.98-24-7.07-35.27C142.99,20.67,98.94,4.45,60.68,23.68,26.65,40.79,9.83,78.19,15.08,115.43c3.99,28.24,25.89,53.02,59.12,58.13,6.05,.93,12.02,.96,18.02-.54,3.35-.83,5.42-2.62,6.99-5.63,5.86-11.27,12.88-21.78,21.05-31.52,3.54-4.23,7.62-8.14,10.46-12.79,8.18-13.4,11.83-27.96,9.76-43.77-2.97-22.82-21.84-39.71-44.77-39.21-17.52,.38-30.83,9.06-39.89,23.62-13.62,21.89-17.1,45.55-9.68,70.4,4.79,16.03,14.15,28.59,29.7,35.87,.29,.14,.52,.43,.77,.65-1.46-.02-2.69-.38-3.86-.89-10.72-4.65-18.97-12.23-24.48-22.37-11.87-21.86-13.42-44.82-6.22-68.51,4.96-16.32,13.77-29.79,28.69-38.68,25.85-15.41,59.62-4.57,71.54,23.02,6.86,15.88,6.58,31.97,.79,48.1-.47,1.31-.97,2.61-1.55,4.16,8.72-5.02,16.95-9.75,25.57-14.71Zm212.83,68.42c.43-.28,.85-.6,1.31-.82,11.53-5.4,18.87-14.54,23.42-26.17,5.36-13.68,5.96-27.88,4.01-42.2-2.16-15.9-7.13-30.81-17.88-43.17-12.08-13.89-27.12-19.63-45.38-15.55-18.67,4.17-32.07,20.7-33.14,40.84-.72,13.58,3.12,26.09,9.35,37.97,.64,1.22,1.58,2.34,2.58,3.31,12.45,12.04,21.8,26.26,29.57,41.63,.78,1.55,2.43,3.15,4.04,3.72,19.72,7.04,37.91,4.22,52.74-10.81,19.85-20.11,27.32-44.74,22.87-72.66-4.82-30.23-20.44-52.88-48.82-65.39-31.38-13.83-63.05-4.36-83.89,22.61-8.68,11.24-12.02,24.53-13.85,38.31-.87,6.58-.71,13.12,.38,19.1,8.04,4.22,15.6,8.19,23.67,12.43-.43-1.49-.64-2.42-.96-3.3-3.96-10.92-4.9-22.11-3.18-33.57,4.6-30.77,35.17-49.65,64.67-39.89,16.92,5.6,27.55,17.84,34.51,33.6,7.47,16.92,9.83,34.71,7.45,53.02-1.78,13.65-6.11,26.34-15.7,36.71-4.85,5.23-10.42,9.25-17.76,10.29Zm-120.96,161.7c-26.14,3.42-51.73,2.76-78.05-2.04,1.66,2.2,2.91,3.55,3.81,5.11,3.07,5.32,6.6,10.47,8.86,16.13,2.81,7.01-1.93,13.83-9.19,14.05-2.53,.08-5.22-.36-7.59-1.21-7.46-2.69-13.14-7.86-17.85-14.08-2.56-3.38-4.72-7.06-7.06-10.6,3.5,2.71,6.57,5.68,9.74,8.53,5,4.49,10.03,8.99,16.75,10.78,1.35,.36,2.81,.32,5.1,.55-.98-3.12-1.69-5.37-2.44-7.75,2.25,.99,4.2,1.86,6.15,2.72,.38-.32,.75-.64,1.13-.97-3.44-7.93-6.88-15.86-10.2-23.5-7.61-1.91-14.62-3.66-21.84-5.47-1.04,1.3-2.13,2.49-3.02,3.82-5.51,8.22-9.96,16.92-12.83,26.46-7.45,24.75,2.21,55.69,32.12,67.25,29.75,11.5,60.25,13.01,91.23,6.42,13.55-2.88,26.09-8.15,35.53-18.83,10-11.3,14.79-24.23,11.54-39.5-2.48-11.63-6.79-22.55-12.46-32.96-2.21-4.04-4.6-7.98-6.78-11.75-10.13,2.32-19.7,4.51-29.56,6.76-2.63,7.26-6.72,14.15-8.33,22.9,2.63-1.13,4.41-1.89,6.56-2.81-.79,2.7-1.45,4.96-2.21,7.54,5.44,.74,9.58-1.1,13.44-3.46,3.96-2.41,7.75-5.13,11.44-7.95,3.5-2.67,6.77-5.65,10.14-8.49-2.67,4.37-5.5,8.55-9.13,11.87-4.51,4.12-9.51,7.76-14.62,11.14-3.65,2.41-7.96,3.33-12.44,2.69-7.83-1.11-11.4-6.89-8.75-14.31,.62-1.72,1.31-3.46,2.24-5.03,2.67-4.54,5.49-8.99,8.57-14.02Zm60.91,62.81c.33,.38,.66,.77,.99,1.15,3.46-1.57,7.24-2.68,10.31-4.81,9.68-6.71,15.12-16.41,17.78-27.67,.65-2.75,.65-5.83,.2-8.64-.9-5.58-4.58-7.38-9.02-4-3.76,2.87-7.17,6.56-9.74,10.54-6.54,10.14-6.35,22.47-10.51,33.43Zm-169.32,49.45c2.75-1.9,5.31-3.66,7.86-5.42l.58,.69c-1.17,2.09-2.34,4.19-3.52,6.28,.21,.25,.41,.5,.62,.75,2.74-1.42,5.47-2.84,8.21-4.26l.39,.5c-1.12,1.61-2.23,3.22-3.89,5.61,10.71-1.78,19.29-6.01,27.79-11.95-6.09-1.94-11.52-3.68-16.96-5.38-.6-.19-1.35-.36-1.91-.18-5.95,1.89-12.02,3.5-17.74,5.92-3.59,1.52-3.67,3.84-1.43,7.45Zm139.32,1.97l.6-.56c-.86-2.07-1.72-4.14-2.58-6.21l.64-.56c2.18,1.6,4.37,3.19,7.23,5.29,.59-2.56,1.1-4.8,1.54-6.67-11.63-8.59-22.36-2.65-33.71,.15,6.4,6.15,13.46,9.76,22.17,10.34-1.26-1.82-2.51-3.64-4.3-6.22,3.42,1.8,5.92,3.12,8.43,4.44Z"/><path d="M127.2,196.07c-5.4,.39-10.27,.76-15-1.42,6.87-2.08,13.11-4.99,18.05-9.73-2.21-4.5-4.29-8.75-6.38-13l.94-.53c3.53,2.94,7.06,5.88,10.77,8.97,1.36-1.05,2.46-1.88,3.53-2.74,5.1-4.12,10.91-6.64,17.45-7.13,9.53-.72,17.14,2.89,22.44,10.89,10.06,15.19,7.81,39.01-4.84,52.12-13.94,14.45-37.34,10.57-45.76-7.66-3.96-8.57-4.55-17.48-2.08-26.6,.25-.92,.51-1.84,.89-3.19Zm37.26,11.47c7.35-.03,13.07-6.09,12.97-13.75-.09-7.15-6.55-13.53-13.58-13.42-7.15,.11-12.74,6.34-12.66,14.11,.07,7.32,5.94,13.09,13.27,13.06Zm-22.28,4.37c-2.53,.02-4.13,1.71-4.1,4.33,.03,2.53,1.99,4.58,4.41,4.61,2.38,.03,4.02-1.79,4-4.44-.02-2.81-1.66-4.52-4.31-4.49Z"/><path d="M317.09,179.54c2.07-1.64,4.06-3.11,5.93-4.72,1.77-1.52,3.4-3.2,5.1-4.8l.94,.48c-2.04,4.49-4.08,8.98-6.49,14.27,6.12,3.04,12.72,6.31,19.56,9.7-5.41,2.13-10.95,.72-15.77,.56,.28,6.37,1.15,12.61,.71,18.75-.94,13.06-9.54,23.85-20.81,27.2-14.11,4.19-29.14-2.24-35.54-15.52-6.37-13.21-7.69-26.82-1.35-40.41,8.13-17.41,27.93-21.79,42.9-9.73,1.51,1.22,2.93,2.54,4.83,4.21Zm-25.25,30.57c8.49,.03,15.36-7.05,15.47-15.93,.11-9.02-6.98-16.94-15.29-17.05-8.81-.12-16.08,7.47-16.16,16.87-.07,8.98,6.97,16.08,15.97,16.11Zm25.98,9c-.02-2.72-1.96-4.79-4.57-4.87-2.61-.07-4.96,2.2-5.01,4.86-.06,2.86,1.68,4.62,4.58,4.63,3.1,.02,5.03-1.76,5.01-4.63Z"/><path d="M219.7,251.07c-3.57-3.29-7.04-5.66-9.42-8.84-4.58-6.13-3.19-11.56,3.29-15.56,7.09-4.38,17.99-3.15,23.43,2.66,3.26,3.47,3.72,6.77,1.49,10.96-2.69,5.05-7.1,8.01-12.97,10.21,.86,4.05,1.23,8.3,2.69,12.13,2.18,5.72,8.82,7.44,14.51,4.22,4.32-2.44,7.12-6.24,9.03-10.72,.84-1.97,1.48-4.02,2.24-6.08,3.67,3.05,1.27,12.77-4.53,18.96-7.98,8.51-18.57,7.99-27.66-1.65-3.83,3.91-7.75,8.04-14.03,6.88-4.06-.75-6.99-3.26-9.43-6.43-4.7-6.12-6.12-14.91-2.51-18.41,.51,1.43,.87,2.7,1.42,3.89,1.6,3.51,2.77,7.36,5.03,10.39,3.77,5.03,9.7,4.6,13.37-.49,2.81-3.9,3.7-8.41,4.04-12.11Zm13.85-15.45c-2.07-4.41-7.71-5.91-14.17-4.31-2.09,.52-4.48,.99-4.3,4.31h18.48Z"/><path d="M232.29,279.07c-.68,4.5-3.72,6.62-8.78,6.93-4.82,.3-8.96-2.14-10.12-6.7,6.42,2.79,12.6,2.65,18.9-.23Z"/></svg>