<svg viewBox="0 0 100 100" version="1.1" xmlns="http://www.w3.org/2000/svg"><g transform="translate(5.673495694437101, 1) scale(0.10354482540017963) translate(-85.11, -39.46)"><path fill="#000000" opacity="1.00" d=" M 291.32 41.46 C 304.53 40.18 317.90 40.25 331.14 41.18 C 369.41 48.27 401.34 75.69 420.30 108.86 C 432.38 103.94 444.39 98.59 456.85 94.54 C 455.42 90.25 450.46 87.93 449.54 83.28 C 448.00 76.85 452.55 70.79 457.92 67.79 C 466.49 63.12 476.44 62.04 486.03 61.46 C 500.26 60.99 514.78 62.52 528.13 67.71 C 529.55 68.12 531.12 69.09 532.60 68.27 C 528.97 63.21 525.07 57.49 526.08 50.90 C 526.71 44.77 533.68 42.41 538.99 42.20 C 548.60 42.25 556.97 48.00 564.23 53.73 C 573.49 60.88 579.55 70.97 584.99 81.07 C 595.04 79.05 605.77 81.51 615.95 82.95 C 641.44 87.06 666.39 94.88 689.10 107.25 C 692.27 108.76 695.23 110.81 698.62 111.81 C 713.75 82.68 739.34 58.24 770.69 47.55 C 790.10 40.23 811.27 39.46 831.72 41.44 C 862.07 46.59 890.23 63.73 908.59 88.47 C 919.90 103.48 927.70 120.90 932.80 138.93 C 938.76 158.32 938.23 178.99 936.37 198.97 C 930.70 239.18 906.29 278.30 868.72 295.65 C 858.26 300.67 847.47 305.29 836.07 307.69 C 833.59 308.38 830.23 307.29 828.36 309.35 C 828.31 314.63 830.02 319.70 830.83 324.87 C 834.38 343.70 835.26 362.88 835.92 381.98 C 835.69 386.39 838.68 389.94 840.21 393.86 C 852.30 418.72 864.06 444.84 864.72 472.97 C 865.53 490.96 860.69 509.02 851.34 524.38 C 838.44 545.54 820.21 563.54 798.35 575.36 C 792.89 578.67 786.62 580.97 781.70 584.95 C 790.41 618.00 807.78 647.75 824.79 677.08 C 843.55 710.77 859.81 746.30 868.36 784.05 C 869.46 784.71 870.36 782.72 871.36 782.33 C 880.01 774.54 892.80 771.32 903.97 774.91 C 913.10 777.89 919.66 785.55 924.67 793.39 C 933.95 808.87 939.89 826.77 938.58 844.99 C 941.29 890.02 909.54 933.57 866.63 946.50 C 849.69 952.34 831.58 951.34 813.96 951.38 C 812.17 951.18 810.82 952.52 809.38 953.33 C 788.87 966.29 764.73 972.30 740.67 973.53 C 708.74 975.85 676.69 976.90 644.96 981.39 C 631.79 982.53 617.71 985.91 605.11 980.20 C 601.07 978.11 596.57 977.06 592.02 977.24 C 580.11 977.28 567.42 971.99 561.88 960.90 C 543.58 959.64 525.03 960.17 506.94 956.58 C 504.06 956.35 499.86 954.79 498.22 958.10 C 496.43 961.82 492.91 964.23 488.94 965.13 C 477.47 968.12 465.64 969.34 453.94 971.10 C 440.38 972.77 426.31 975.60 412.86 971.85 C 408.05 970.79 403.54 973.59 398.86 974.20 C 382.40 976.94 365.64 975.87 349.05 975.41 C 334.68 974.46 320.08 974.65 305.99 971.37 C 300.60 971.16 295.41 972.89 290.14 973.76 C 280.08 975.60 269.80 974.69 259.65 974.48 C 242.74 973.82 225.78 973.32 209.00 971.04 C 203.94 970.55 199.02 967.61 193.88 969.29 C 180.91 972.95 167.28 972.03 153.97 971.65 C 137.61 970.92 121.24 970.03 104.91 968.73 C 95.73 967.77 85.78 961.01 85.82 950.92 C 85.11 931.95 85.32 912.94 85.51 893.96 C 85.94 886.61 85.12 877.68 91.51 872.52 C 99.67 865.76 111.08 867.12 120.86 865.04 C 121.46 844.05 121.13 823.02 122.64 802.07 C 122.59 796.45 127.27 792.47 131.45 789.47 C 138.59 785.50 147.52 787.05 155.01 785.11 C 155.70 766.12 154.70 747.03 155.90 728.02 C 155.85 720.76 160.66 713.90 167.08 710.76 C 175.85 707.81 185.49 708.93 194.38 707.32 C 194.84 695.69 197.56 683.50 205.78 674.78 C 210.35 670.27 214.95 665.15 215.69 658.48 C 211.44 656.32 206.73 654.07 204.39 649.67 C 202.89 644.61 203.40 639.22 203.17 634.00 C 203.24 615.23 202.64 596.44 203.52 577.67 C 203.62 571.75 207.37 566.04 212.81 563.68 C 218.47 561.20 224.85 561.60 230.68 559.85 C 230.97 539.58 230.18 519.26 231.60 499.02 C 232.06 492.65 238.00 489.17 242.03 485.06 C 235.50 464.91 236.87 442.00 246.26 422.95 C 255.04 403.98 267.55 387.01 277.61 368.81 C 278.55 346.83 279.05 324.65 283.92 303.09 C 284.46 299.52 286.01 295.79 285.05 292.23 C 243.86 278.54 211.68 241.34 203.40 198.78 C 197.78 169.97 199.55 139.45 210.18 111.97 C 219.07 88.85 234.61 67.66 256.07 54.81 C 267.05 48.68 278.72 43.08 291.32 41.46 M 296.30 58.44 C 283.56 60.23 271.48 65.58 260.92 72.81 C 240.84 87.02 228.34 109.77 222.42 133.25 C 219.54 142.89 220.05 153.06 220.01 163.00 C 220.15 174.34 219.54 185.95 222.87 196.94 C 229.29 220.85 242.55 243.78 263.08 258.19 C 271.05 263.34 279.41 267.94 288.14 271.66 C 290.13 272.88 291.70 270.81 291.92 269.03 C 293.93 260.86 297.20 253.07 299.38 244.96 C 288.13 238.64 277.89 229.11 273.80 216.50 C 283.02 223.40 292.34 232.78 304.22 234.15 C 298.74 226.74 291.44 219.03 289.64 209.41 C 295.58 214.21 300.66 220.62 308.07 223.48 C 314.24 216.40 318.23 207.48 322.84 199.31 C 317.26 195.30 311.20 191.54 307.22 185.79 C 305.84 184.05 305.81 180.96 308.47 180.46 C 313.63 179.41 318.77 181.29 323.88 181.82 C 317.27 173.52 309.38 165.54 306.63 154.94 C 306.08 152.94 306.26 150.10 308.76 149.59 C 313.32 148.31 316.46 152.80 319.87 154.98 C 317.39 139.66 318.13 123.62 312.19 109.03 C 308.12 98.73 298.33 90.20 286.95 89.81 C 270.87 89.49 257.05 100.39 247.25 112.19 C 239.41 121.25 235.67 133.40 228.61 142.62 C 230.12 134.28 232.49 126.13 234.95 118.03 C 240.87 99.23 254.58 83.34 271.53 73.51 C 290.16 63.06 312.69 63.41 332.99 67.98 C 349.94 71.25 365.36 79.33 379.97 88.11 C 359.37 64.96 326.86 53.98 296.30 58.44 M 545.21 58.03 C 550.01 69.19 556.05 80.19 558.28 92.19 C 552.29 90.53 547.13 86.87 541.43 84.50 C 523.82 76.15 503.80 75.60 484.69 76.53 C 479.67 77.16 474.16 77.01 469.72 79.73 C 467.39 82.52 470.77 85.37 472.93 86.88 C 484.85 94.58 499.18 96.78 512.89 99.17 C 498.71 104.86 482.09 109.45 469.28 119.29 C 462.17 124.89 453.37 130.17 449.98 138.89 C 468.17 134.62 484.66 124.46 503.01 121.13 C 496.94 127.05 489.79 131.76 483.83 137.82 C 471.98 149.00 462.35 163.11 458.34 179.01 C 457.20 183.26 462.25 181.62 464.17 180.22 C 483.19 169.24 497.81 152.41 515.53 139.65 C 517.56 138.33 519.40 136.34 521.93 136.07 C 513.75 146.80 504.69 157.30 499.79 170.06 C 499.27 171.00 499.16 173.76 501.03 172.71 C 522.09 164.79 539.34 149.62 556.03 135.05 C 544.25 155.79 527.63 174.83 506.47 186.45 C 501.19 189.08 495.08 192.33 489.08 190.26 C 486.56 189.63 485.53 186.35 483.06 186.01 C 474.26 192.57 464.36 199.10 453.02 199.43 C 447.18 199.80 442.99 194.34 442.71 188.93 C 441.63 177.27 447.52 166.71 452.22 156.50 C 441.84 162.73 430.44 166.99 419.82 172.77 C 394.12 186.48 372.36 206.73 354.39 229.46 C 334.84 255.98 322.76 287.39 315.44 319.33 C 310.59 340.77 309.03 362.86 303.35 384.13 C 302.46 386.36 302.10 389.35 300.17 390.84 C 298.72 386.17 299.87 380.94 299.86 376.06 C 302.39 340.28 306.82 304.27 318.31 270.14 C 330.64 234.17 349.28 199.47 377.01 173.02 C 391.73 158.12 407.70 144.08 426.41 134.39 C 438.06 128.60 448.74 120.58 458.61 112.47 C 404.78 129.84 357.91 168.25 331.37 218.36 C 305.84 263.50 296.42 315.73 294.44 367.01 C 294.43 377.86 288.20 387.10 282.85 396.05 C 271.83 415.14 257.55 433.07 252.31 454.88 C 257.16 451.41 258.20 442.77 264.48 440.33 C 261.30 449.94 258.00 459.83 258.00 470.11 C 264.79 467.43 271.93 465.25 278.02 461.04 C 289.35 454.11 303.50 454.73 316.09 457.06 C 328.52 459.89 341.48 467.90 343.61 481.50 C 350.65 481.52 357.79 481.56 364.64 483.47 C 372.98 485.07 377.85 494.02 377.95 501.97 C 378.51 521.24 378.19 540.54 378.33 559.81 C 396.72 562.36 415.50 561.30 433.93 563.69 C 440.80 564.21 447.07 569.16 448.78 575.89 C 450.80 584.17 450.21 592.78 451.04 601.20 C 476.39 607.47 502.51 610.26 528.42 613.14 C 527.64 615.17 524.01 614.33 522.07 614.88 C 498.39 616.12 474.11 615.98 451.21 609.17 C 449.58 613.06 450.69 617.60 450.42 621.75 C 476.69 625.61 502.13 633.96 527.99 639.96 C 531.36 638.75 533.82 635.71 536.84 633.79 C 562.10 613.25 596.23 605.91 628.10 610.04 C 630.41 610.46 626.89 611.98 626.09 611.94 C 604.46 615.90 583.76 624.03 564.46 634.46 C 558.82 637.70 552.96 640.94 548.46 645.73 C 555.62 647.42 562.96 648.56 569.93 650.98 C 570.45 652.53 567.98 652.19 567.11 652.73 C 547.05 656.96 526.17 655.02 506.32 650.54 C 488.14 646.68 470.52 640.22 452.01 638.00 C 441.29 636.73 429.62 638.07 420.79 644.73 C 414.08 649.54 410.43 658.37 412.61 666.46 C 420.46 665.54 427.74 659.92 435.98 661.21 C 430.42 666.22 421.96 668.08 418.30 675.32 C 415.08 680.10 415.21 687.41 420.00 691.10 C 429.21 693.23 438.85 691.43 448.15 693.09 C 444.83 698.07 436.89 697.79 433.41 702.82 C 435.56 706.16 438.69 708.70 441.58 711.38 C 457.67 725.30 475.44 737.39 494.78 746.32 C 534.77 765.20 580.93 769.46 624.10 760.78 C 630.15 759.94 634.74 755.60 640.25 753.34 C 668.64 739.59 702.27 732.91 732.95 742.77 C 734.19 743.59 737.53 743.43 736.78 745.63 C 726.30 746.52 715.72 745.91 705.28 747.43 C 669.29 752.17 633.72 769.03 611.25 798.19 C 588.52 827.03 583.59 868.51 598.16 902.07 C 598.96 904.16 601.53 903.15 603.10 902.76 C 630.16 893.56 661.38 896.08 685.82 911.27 C 695.64 917.44 706.05 924.59 711.15 935.34 C 697.45 928.07 682.96 921.61 668.15 916.64 C 640.20 908.99 606.36 908.99 583.96 929.93 C 576.74 936.09 573.07 946.65 576.34 955.74 C 579.02 960.14 587.12 963.31 590.90 959.02 C 593.80 942.09 609.42 928.93 626.62 928.91 C 617.61 935.41 606.10 942.38 605.14 954.90 C 603.27 963.42 612.41 969.11 619.97 968.17 C 638.79 966.48 657.09 961.26 675.88 959.24 C 705.85 955.86 736.28 956.35 765.90 950.11 C 778.49 947.73 787.49 937.56 795.18 928.08 C 822.31 893.29 827.41 845.65 817.50 803.65 C 806.53 759.43 783.79 718.84 755.74 683.24 C 736.46 659.02 714.30 636.65 687.89 620.24 C 685.43 618.46 682.43 617.25 680.58 614.76 C 693.95 617.95 706.88 622.95 720.44 625.46 C 720.50 625.19 720.64 624.65 720.71 624.38 C 709.14 618.15 696.24 615.20 683.92 610.94 C 681.96 610.31 684.33 609.24 685.27 609.41 C 698.60 608.12 712.77 608.27 724.98 602.23 C 710.35 603.55 695.63 603.68 680.96 604.15 C 679.86 603.88 677.15 604.92 677.07 603.41 C 717.48 590.29 759.62 578.84 794.55 553.65 C 801.63 547.27 804.98 537.94 809.81 529.91 C 814.98 520.84 816.87 509.87 820.88 500.74 C 821.52 513.22 818.79 525.64 814.86 537.41 C 827.39 523.70 828.67 503.68 830.35 485.94 C 834.42 493.51 833.80 503.39 835.03 511.94 C 836.64 511.21 836.61 508.66 837.41 507.19 C 841.87 491.10 839.29 474.07 835.33 458.16 C 840.89 462.37 842.70 471.04 846.75 476.98 C 846.88 462.09 838.19 449.04 829.10 437.97 C 815.48 421.43 796.51 408.65 775.10 405.28 C 770.63 404.50 765.06 406.16 761.68 402.28 C 758.12 397.55 757.12 391.50 755.65 385.91 C 750.14 360.66 745.05 335.21 736.35 310.83 C 725.27 279.76 708.26 250.55 685.09 226.93 C 655.08 195.13 615.62 171.39 572.15 164.21 C 564.77 162.67 557.13 162.71 549.82 160.88 C 549.30 159.50 550.73 158.40 551.26 157.26 C 564.66 138.94 580.54 121.89 600.25 110.32 C 607.11 105.90 615.55 108.11 622.91 109.79 C 645.54 115.73 667.98 123.27 688.67 134.24 C 689.69 141.39 689.75 149.94 692.88 156.00 C 693.14 147.53 693.19 138.97 692.53 130.54 C 685.20 124.74 676.53 120.98 668.04 117.23 C 651.21 110.14 633.83 104.14 615.85 100.77 C 602.60 97.75 589.05 96.14 575.87 92.87 C 573.38 91.59 579.82 92.49 577.77 90.17 C 569.73 77.11 558.87 65.27 545.21 58.03 M 805.36 58.48 C 795.75 59.69 786.13 61.31 776.90 64.30 C 735.68 78.34 702.82 119.33 704.36 163.74 C 707.80 162.76 706.78 155.55 708.47 152.05 C 710.28 153.06 709.24 155.83 710.13 157.46 C 713.04 156.43 711.97 152.50 712.89 150.11 C 724.60 99.73 775.53 59.69 827.94 65.91 C 844.82 67.56 860.50 74.69 875.05 83.01 C 857.33 64.95 830.40 56.24 805.36 58.48 M 356.08 84.28 C 349.56 88.51 362.75 101.06 366.79 93.15 C 368.56 87.31 361.36 82.29 356.08 84.28 M 830.36 93.49 C 813.66 94.12 800.23 106.95 793.46 121.39 C 789.47 131.43 787.05 142.25 787.26 153.08 C 790.15 151.09 792.72 147.63 796.71 148.40 C 800.38 148.68 801.34 152.99 800.24 155.92 C 796.72 167.43 789.13 177.14 784.62 188.21 C 791.72 186.10 797.79 181.32 805.05 179.61 C 808.12 179.01 810.75 182.35 808.80 185.06 C 802.80 195.04 793.72 202.79 784.34 209.51 C 791.91 219.88 798.77 230.81 805.11 242.00 C 816.54 243.65 826.24 236.77 836.59 233.59 C 831.14 242.74 822.07 249.47 812.19 253.20 C 810.89 253.57 810.31 255.58 812.05 255.73 C 824.71 257.40 836.73 251.72 849.01 250.08 C 840.11 258.93 827.79 263.19 815.78 265.88 C 816.69 272.75 820.37 279.32 822.27 286.12 C 823.27 290.71 828.94 288.25 832.11 287.90 C 856.53 282.08 880.39 269.07 894.88 248.05 C 907.86 231.49 913.95 210.66 916.76 190.10 C 919.09 174.01 916.54 157.76 913.06 142.04 C 912.32 139.65 912.10 136.84 910.23 135.03 C 911.67 145.49 912.52 156.16 911.55 166.69 C 911.03 169.88 908.96 166.45 908.78 164.96 C 901.79 144.24 891.46 123.77 874.14 109.80 C 862.11 99.43 846.51 92.28 830.36 93.49 M 375.32 96.37 C 370.39 101.03 379.39 109.58 383.88 105.12 C 383.36 101.27 379.21 96.07 375.32 96.37 M 612.38 118.42 C 604.06 121.34 616.33 130.55 619.67 124.70 C 621.13 120.69 615.99 117.19 612.38 118.42 M 635.27 124.34 C 632.72 125.52 632.69 129.51 635.20 130.79 C 640.33 134.43 646.35 136.76 652.36 138.53 C 654.79 139.10 658.99 139.74 659.53 136.32 C 660.42 132.12 656.08 129.63 652.98 127.92 C 647.64 125.21 641.30 122.22 635.27 124.34 M 754.17 233.17 C 750.19 239.91 756.47 248.01 761.32 252.76 C 765.17 256.30 769.50 250.88 767.71 246.91 C 766.04 240.87 761.52 231.91 754.17 233.17 M 777.09 267.09 C 772.97 271.62 775.28 280.31 779.91 283.83 C 784.46 286.58 787.19 280.44 785.38 276.85 C 784.11 273.05 782.37 265.37 777.09 267.09 M 293.32 470.43 C 290.67 470.79 286.41 471.03 285.30 473.61 C 289.08 477.82 292.59 482.79 297.67 485.48 C 301.75 486.00 308.13 487.46 310.43 482.94 C 309.36 475.06 301.23 469.16 293.32 470.43 M 312.97 471.15 C 314.82 474.66 317.64 477.66 318.45 481.69 C 319.48 486.47 327.07 485.63 329.37 482.89 C 328.27 475.18 320.06 471.37 312.97 471.15 M 269.32 480.44 C 266.96 481.67 263.42 482.48 262.49 485.16 C 269.89 486.63 277.54 485.88 285.04 485.89 C 281.34 481.36 275.16 478.13 269.32 480.44 M 266.35 495.48 C 259.37 495.95 250.48 495.39 246.09 501.94 C 245.56 517.60 245.46 533.29 245.48 548.97 C 245.69 553.11 245.18 558.24 248.89 561.05 C 248.74 560.09 248.51 559.15 248.20 558.24 C 270.87 557.87 293.55 558.43 316.22 558.16 C 316.64 544.30 316.03 530.41 316.51 516.56 C 321.02 517.54 324.89 515.22 322.70 510.25 C 318.65 510.77 313.67 507.93 318.05 504.03 C 331.13 499.89 345.39 499.88 358.99 497.68 C 358.33 496.17 356.25 496.95 354.99 496.66 C 325.45 496.11 295.90 494.73 266.35 495.48 M 227.32 575.42 C 224.13 575.45 220.24 576.94 219.02 580.00 C 218.89 599.95 218.86 619.92 219.04 639.88 C 242.78 640.26 266.54 641.18 290.29 641.14 C 290.75 621.98 290.69 602.80 291.04 583.63 C 296.69 584.83 301.21 583.09 303.72 577.88 C 302.06 576.71 299.85 577.14 297.94 576.87 C 274.42 575.85 250.86 575.02 227.32 575.42 M 332.37 575.51 C 327.57 575.87 320.34 576.30 319.47 582.35 C 318.15 599.88 318.38 617.52 319.17 635.07 C 318.41 639.04 323.87 641.92 326.59 639.52 C 327.86 640.65 328.94 641.35 329.54 639.23 C 332.67 640.85 333.29 646.31 337.98 644.86 C 336.99 643.14 333.08 643.95 334.12 641.19 C 336.69 640.69 340.47 639.94 341.86 642.89 C 343.37 646.30 348.83 645.27 347.17 641.06 C 349.19 643.57 356.45 636.79 355.36 642.94 C 354.83 646.98 357.52 643.06 357.32 641.20 C 366.79 639.31 376.63 641.71 386.20 640.40 C 390.28 639.89 391.44 635.48 391.63 632.02 C 392.46 617.03 391.39 601.98 392.35 586.99 C 392.58 585.34 392.64 583.11 394.54 582.51 C 404.04 579.18 414.26 579.26 424.14 577.93 C 427.21 577.34 422.92 576.63 421.96 576.75 C 392.13 575.38 362.22 574.40 332.37 575.51 M 731.13 604.46 C 732.71 607.34 735.30 601.77 731.13 604.46 M 358.98 642.10 C 359.23 647.16 365.69 643.42 368.74 645.23 C 372.11 647.94 369.69 638.14 368.71 642.96 C 368.57 645.65 366.14 640.51 364.77 642.84 C 363.06 644.66 360.55 643.40 358.98 642.10 M 351.26 644.09 C 351.43 647.36 354.29 642.56 351.26 644.09 M 392.30 644.30 C 392.73 644.75 392.73 644.75 392.30 644.30 M 289.15 645.40 C 287.64 648.34 292.38 645.40 289.15 645.40 M 242.32 656.47 C 237.10 656.58 229.73 656.88 228.39 663.25 C 226.90 674.97 227.32 686.86 227.49 698.65 C 227.85 703.55 227.33 708.87 229.87 713.28 C 251.70 713.72 273.55 713.99 295.38 714.09 C 295.91 698.72 294.82 683.29 296.03 667.94 C 295.85 665.11 299.31 661.69 301.87 663.96 C 303.38 673.79 302.98 683.84 303.27 693.76 C 305.03 684.20 302.38 672.19 305.00 661.99 C 311.13 659.22 319.55 660.81 324.84 657.46 C 297.38 655.76 269.82 656.04 242.32 656.47 M 357.04 658.84 C 356.28 661.45 357.53 664.04 360.28 664.59 C 372.67 668.72 385.45 672.33 398.48 673.57 C 399.19 668.99 397.71 664.27 397.00 659.72 C 383.69 659.41 370.29 659.74 357.04 658.84 M 220.45 679.46 C 209.88 688.57 205.76 704.14 210.65 717.24 C 214.39 726.02 224.31 730.85 233.61 729.39 C 227.05 722.52 222.17 714.18 218.47 705.41 C 218.20 704.18 216.62 702.14 218.22 701.32 C 219.41 701.80 222.12 704.73 222.30 701.96 C 223.15 694.28 223.09 686.38 222.01 678.72 C 221.62 678.91 220.84 679.28 220.45 679.46 M 356.32 682.23 C 355.20 691.26 356.36 700.48 356.40 709.58 C 371.22 710.46 386.12 710.23 400.91 711.76 C 406.87 711.90 411.07 717.19 413.79 721.94 C 416.60 729.69 414.71 738.26 415.79 746.21 C 420.08 746.30 424.43 746.59 428.69 746.06 C 430.24 741.03 433.44 736.05 433.93 731.00 C 424.70 719.95 415.11 709.17 405.80 698.18 C 404.53 696.69 403.32 694.85 401.21 694.62 C 387.93 691.39 374.42 688.53 361.92 682.83 C 360.13 682.26 358.05 680.74 356.32 682.23 M 195.35 722.46 C 188.90 723.04 182.27 722.45 175.95 724.08 C 171.65 725.23 171.01 730.33 170.67 734.06 C 169.87 749.00 170.08 764.00 170.68 778.95 C 170.68 782.93 172.01 787.60 176.08 789.19 C 175.23 784.94 184.73 785.58 178.97 788.89 C 182.75 791.28 185.07 782.38 185.23 789.17 C 186.43 786.81 192.74 784.19 190.16 789.00 C 194.19 785.96 199.32 785.82 203.98 787.27 C 216.14 785.10 228.86 787.56 240.87 784.96 C 242.55 773.82 242.22 762.44 241.89 751.20 C 225.92 746.56 207.22 741.01 199.21 724.93 C 198.46 723.25 197.41 721.76 195.35 722.46 M 373.35 726.47 C 352.66 727.60 331.32 726.53 311.28 732.40 C 306.97 737.04 300.51 738.74 294.30 737.78 C 295.75 730.96 284.92 731.31 285.52 737.67 C 284.89 753.97 283.44 770.73 286.51 786.80 C 310.28 785.47 334.14 787.22 357.94 787.12 C 358.30 771.72 357.57 756.31 358.34 740.93 C 358.68 738.63 358.45 735.23 361.06 734.27 C 373.23 732.95 385.16 729.98 397.38 729.00 C 397.22 728.59 396.89 727.78 396.73 727.37 C 389.10 725.51 381.12 726.55 373.35 726.47 M 447.44 742.40 C 442.13 757.07 438.56 772.57 435.77 787.95 C 443.87 788.29 452.38 787.07 460.08 790.27 C 465.10 792.40 468.61 797.48 468.60 802.98 C 469.53 823.37 469.29 843.79 469.74 864.19 C 475.90 866.26 482.79 865.36 488.94 867.72 C 494.05 869.65 497.61 874.18 500.45 878.66 C 501.01 897.94 500.73 917.26 501.32 936.55 C 520.19 940.36 539.58 941.30 558.77 941.87 C 562.43 937.55 564.01 931.94 567.28 927.35 C 571.30 921.32 577.35 917.13 582.30 911.96 C 577.54 901.12 572.75 889.94 571.88 877.92 C 570.12 855.85 571.15 832.50 581.50 812.45 C 586.21 802.62 593.01 794.03 598.57 784.73 C 590.04 784.46 581.50 784.76 572.97 784.54 C 533.84 784.19 494.74 772.36 462.08 750.81 C 457.22 748.23 452.85 742.58 447.44 742.40 M 251.49 750.16 C 250.82 752.27 250.57 753.70 249.31 751.04 C 248.78 763.86 248.83 776.70 248.81 789.53 C 251.17 788.09 251.56 784.79 252.54 782.37 C 253.70 772.94 253.25 763.38 252.85 753.91 C 252.54 752.65 253.03 750.68 251.49 750.16 M 421.35 764.46 C 419.59 764.55 417.83 764.67 416.10 764.94 C 416.17 772.20 414.74 779.68 416.27 786.82 C 419.88 786.93 419.76 782.42 420.34 779.92 C 420.97 774.64 423.18 769.77 424.37 764.64 C 423.37 764.43 422.36 764.38 421.35 764.46 M 287.13 788.06 C 286.74 792.22 291.04 787.95 287.13 788.06 M 204.30 789.29 C 207.06 792.48 209.12 786.93 204.30 789.29 M 213.25 789.10 C 213.43 792.39 216.26 787.54 213.25 789.10 M 223.24 789.11 C 223.39 792.45 226.22 787.51 223.24 789.11 M 892.21 790.38 C 884.74 791.36 878.77 796.66 874.35 802.43 C 870.45 806.81 873.50 812.83 873.08 818.01 C 878.53 812.85 883.23 806.88 889.15 802.21 C 892.39 799.53 899.45 797.23 901.67 802.16 C 903.58 814.15 898.94 825.93 894.97 837.04 C 902.42 830.16 907.53 820.66 909.60 810.76 C 911.62 800.76 903.22 788.30 892.21 790.38 M 143.30 801.44 C 138.50 802.62 136.71 808.23 136.49 812.64 C 135.63 828.52 136.04 844.46 136.47 860.36 C 135.49 866.27 147.26 866.32 145.34 859.95 C 146.38 862.90 148.69 864.83 151.99 864.45 C 170.22 864.98 188.66 866.66 206.80 864.73 C 207.53 848.29 206.34 831.77 207.48 815.34 C 207.88 813.48 207.78 810.35 210.03 809.92 C 215.42 811.44 219.98 806.10 224.41 805.11 C 197.47 802.59 170.35 801.55 143.30 801.44 M 250.09 803.30 C 247.68 804.22 245.81 806.25 244.33 808.31 C 244.14 827.09 244.24 845.88 244.29 864.67 C 246.45 864.60 248.72 864.51 250.74 863.68 C 252.60 860.91 251.85 857.30 252.25 854.16 C 253.96 856.36 252.30 860.90 254.21 863.63 C 273.06 864.84 291.97 865.58 310.86 865.69 C 311.84 849.60 309.99 833.09 311.16 816.87 C 311.36 812.78 315.20 808.92 319.05 812.00 C 321.04 808.86 324.88 808.46 327.92 806.83 C 328.30 804.92 325.23 805.69 324.09 805.22 C 299.49 803.73 274.69 801.56 250.09 803.30 M 354.32 803.46 C 349.06 803.64 347.53 809.60 347.29 813.91 C 346.34 828.92 346.71 844.00 347.05 859.03 C 346.98 863.87 349.37 870.33 355.12 870.28 C 365.54 871.26 376.03 871.04 386.48 870.88 C 383.38 865.92 376.52 872.55 374.02 867.91 C 388.31 866.98 402.80 866.75 417.06 868.16 C 419.86 872.20 411.59 869.48 411.81 871.93 C 414.27 872.59 416.83 872.63 419.35 872.40 C 419.86 854.25 419.37 836.07 420.28 817.93 C 420.60 815.63 420.47 812.93 422.13 811.13 C 430.01 805.70 441.54 808.18 449.02 803.33 C 417.48 802.15 385.86 802.42 354.32 803.46 M 319.27 829.27 C 319.77 829.77 319.77 829.77 319.27 829.27 M 319.27 835.42 C 317.26 841.85 319.03 849.11 318.28 855.85 C 320.60 850.00 319.58 840.35 319.27 835.42 M 319.14 860.35 C 316.99 864.14 322.64 861.56 319.14 860.35 M 104.41 882.47 C 100.93 884.54 100.94 889.09 100.50 892.65 C 99.62 907.76 100.03 922.90 100.18 938.02 C 100.40 943.06 100.07 949.94 105.34 952.55 C 125.19 955.23 145.35 954.50 165.27 956.55 C 166.83 956.75 168.36 956.32 169.78 955.71 C 171.12 935.86 168.62 915.85 170.90 896.06 C 170.34 893.42 175.01 889.67 175.03 893.97 C 175.94 914.61 174.73 935.30 175.09 955.96 C 180.05 955.85 185.32 954.98 189.82 953.18 C 191.11 932.53 191.15 911.77 191.22 891.09 C 187.49 891.14 183.64 892.18 179.98 891.04 C 181.27 886.17 190.45 890.33 190.80 885.33 C 167.58 883.37 144.28 882.32 120.99 881.52 C 115.47 881.62 109.79 881.12 104.41 882.47 M 211.24 882.42 C 208.40 883.95 206.11 886.65 203.86 889.01 C 203.55 907.66 203.13 926.34 203.43 945.00 C 203.21 950.48 207.27 956.19 213.07 956.32 C 232.74 958.23 252.54 958.85 272.30 959.22 C 272.76 938.45 271.83 917.64 273.12 896.89 C 272.84 894.90 274.84 893.53 276.65 894.30 C 278.69 900.60 277.64 907.46 277.98 914.00 C 277.51 929.06 279.29 944.50 275.98 959.29 C 282.12 957.88 291.70 959.55 294.97 953.05 C 296.42 933.03 295.81 912.87 295.93 892.79 C 291.14 892.35 286.04 893.86 281.45 892.10 C 284.01 887.52 291.66 891.01 295.67 888.05 C 295.33 885.98 292.58 886.65 291.11 886.14 C 264.57 883.62 237.87 883.15 211.24 882.42 M 458.36 882.51 C 444.35 883.92 430.35 885.65 416.28 886.31 C 416.20 890.36 424.74 889.07 425.04 893.87 C 421.91 893.71 418.84 893.03 415.73 892.76 C 416.06 913.75 416.25 934.77 417.20 955.74 C 421.29 954.96 429.05 961.38 429.73 955.04 C 430.60 933.76 429.39 912.43 430.23 891.16 C 446.89 888.03 463.82 886.43 480.65 884.54 C 483.08 884.54 481.71 882.07 480.06 882.09 C 472.89 880.84 465.56 882.04 458.36 882.51 M 315.36 884.40 C 310.29 887.78 309.11 894.37 308.85 900.07 C 308.06 915.39 308.67 930.74 309.12 946.06 C 309.19 949.60 309.91 954.32 313.98 955.31 C 313.76 954.73 313.31 953.57 313.09 952.99 C 335.57 952.36 358.12 954.99 380.59 954.75 C 380.68 936.85 380.23 918.93 380.80 901.03 C 381.15 898.53 380.61 895.46 382.61 893.55 C 385.31 891.79 388.16 895.43 390.90 893.86 C 392.22 892.46 391.57 889.61 393.94 889.24 C 395.07 888.77 400.53 887.61 397.03 886.66 C 369.93 883.85 342.58 884.43 315.36 884.40 M 482.22 889.38 C 466.16 891.72 451.13 893.95 434.87 895.12 C 434.83 915.99 434.73 936.89 435.14 957.75 C 450.19 953.58 465.95 953.42 481.21 950.36 C 483.67 949.99 483.41 946.94 483.72 945.07 C 484.44 927.73 484.05 910.36 484.29 893.01 C 484.20 891.38 484.90 888.10 482.22 889.38 M 805.26 926.21 C 801.25 930.28 797.51 934.87 794.93 939.98 C 799.33 937.45 802.26 932.93 805.22 928.91 C 805.74 928.19 807.44 924.94 805.26 926.21 Z"/><path fill="#000000" opacity="1.00" d=" M 383.37 247.48 C 390.64 247.23 399.47 246.18 404.99 252.02 C 408.28 254.92 410.98 259.71 408.25 263.92 C 406.64 268.10 401.42 267.79 397.90 266.67 C 391.06 264.61 383.85 265.85 376.88 264.89 C 373.96 264.61 371.59 261.93 371.73 258.98 C 371.80 252.90 377.56 248.02 383.37 247.48 Z"/><path fill="#000000" opacity="1.00" d=" M 634.32 252.43 C 643.79 251.03 654.91 252.99 661.30 260.71 C 664.86 264.22 662.73 270.51 658.68 272.63 C 654.11 274.30 649.67 271.64 645.36 270.47 C 638.86 269.04 632.25 271.02 625.71 270.46 C 621.82 270.06 619.61 265.57 620.86 262.05 C 622.64 256.30 628.78 253.35 634.32 252.43 Z"/><path fill="#000000" opacity="1.00" d=" M 383.36 315.48 C 399.06 314.46 415.15 321.83 424.30 334.70 C 437.17 351.33 440.91 373.51 438.04 393.98 C 435.76 412.82 423.55 432.24 403.93 436.26 C 400.51 436.47 395.52 438.65 393.10 436.44 C 401.97 434.09 410.93 430.12 416.99 423.02 C 409.46 426.20 401.32 428.08 393.07 427.21 C 373.97 426.40 356.96 411.02 353.53 392.36 C 352.74 385.59 352.98 378.76 353.06 371.97 C 353.10 363.68 358.06 356.65 360.12 348.87 C 356.23 350.99 354.50 355.59 352.33 359.26 C 342.10 378.67 343.32 404.10 357.86 421.06 C 360.93 425.37 365.87 428.32 368.30 432.98 C 348.13 426.69 332.65 406.39 333.94 384.99 C 333.86 374.78 333.30 364.20 337.47 354.60 C 343.88 334.49 361.64 316.97 383.36 315.48 M 383.35 335.47 C 374.65 336.38 367.21 343.15 364.38 351.25 C 362.60 358.98 367.21 366.31 372.35 371.67 C 374.23 373.76 370.94 375.32 370.02 376.97 C 367.07 381.62 373.96 388.76 378.19 384.21 C 382.10 381.91 378.85 375.02 383.90 374.35 C 392.34 372.83 400.57 367.43 403.23 358.94 C 407.36 347.09 396.14 332.70 383.35 335.47 M 405.11 383.03 C 403.82 384.83 403.94 389.05 406.84 388.96 C 409.11 387.49 408.46 381.38 405.11 383.03 M 411.36 392.85 C 410.12 393.15 409.14 395.59 410.85 395.89 C 412.90 396.29 414.06 392.06 411.36 392.85 Z"/><path fill="#000000" opacity="1.00" d=" M 636.39 318.53 C 667.71 315.83 699.86 338.26 706.58 369.28 C 710.23 387.65 708.92 408.10 698.14 423.97 C 688.89 435.88 675.04 444.08 660.23 446.77 C 662.26 443.19 667.34 442.17 670.49 439.46 C 692.06 425.85 701.08 396.31 690.90 372.96 C 688.15 367.38 685.94 360.87 680.86 357.00 C 688.80 373.05 691.15 392.77 683.38 409.35 C 674.51 428.23 652.45 439.14 632.00 436.01 C 613.21 433.68 597.41 419.00 591.56 401.30 C 590.26 398.68 590.09 395.19 588.15 393.09 C 587.55 405.45 592.28 417.68 598.87 427.97 C 605.05 437.35 616.43 441.30 625.09 447.01 C 606.58 446.44 589.79 434.68 581.69 418.24 C 568.22 390.15 577.18 353.75 600.67 333.72 C 610.43 324.74 623.52 320.52 636.39 318.53 M 617.28 345.42 C 605.98 347.11 597.17 357.78 597.11 369.07 C 597.51 376.49 605.09 380.02 608.09 385.99 C 604.92 389.56 605.94 394.88 610.61 396.52 C 616.80 399.25 622.33 390.57 617.44 385.93 C 621.02 384.16 625.36 384.16 628.69 381.71 C 636.89 376.56 642.18 365.01 637.03 356.01 C 633.60 348.70 625.36 343.87 617.28 345.42 M 646.32 388.39 C 643.43 388.71 641.80 393.95 645.30 394.60 C 648.89 395.19 649.94 388.62 646.32 388.39 M 649.43 398.38 C 648.33 399.69 648.60 402.44 650.84 401.28 C 654.27 400.88 651.98 395.58 649.43 398.38 Z"/><path fill="#000000" opacity="1.00" d=" M 483.36 423.48 C 495.10 422.29 508.10 422.75 518.07 429.82 C 528.17 436.77 530.27 453.52 520.98 461.97 C 514.97 467.73 507.35 471.58 499.22 473.20 C 498.18 479.94 503.02 486.36 509.19 488.70 C 525.10 497.17 548.34 484.30 547.51 465.69 C 549.55 463.91 553.86 464.20 555.05 467.02 C 558.54 473.19 557.78 481.13 553.77 486.87 C 542.14 505.63 512.47 510.07 496.56 494.40 C 495.29 493.44 493.49 490.78 492.17 493.16 C 479.42 507.20 454.67 503.98 444.27 488.74 C 440.42 482.73 437.94 475.36 439.35 468.20 C 439.97 464.90 443.46 461.50 446.94 463.03 C 449.07 466.21 447.58 470.59 449.22 474.07 C 452.87 486.14 468.37 493.59 479.47 486.44 C 484.53 484.61 487.26 477.59 483.63 473.35 C 472.56 469.16 461.46 460.49 459.94 447.99 C 458.53 434.81 471.55 425.20 483.36 423.48 M 486.30 431.44 C 481.22 432.23 473.12 434.32 474.03 441.02 C 472.94 445.32 480.93 447.00 481.67 442.56 C 486.76 440.79 492.67 441.71 498.04 442.06 C 500.50 442.34 498.97 446.96 501.97 446.18 C 505.75 445.27 511.28 441.23 508.11 436.99 C 502.50 431.49 493.75 430.80 486.30 431.44 Z"/><path fill="#000000" opacity="1.00" d=" M 343.19 641.06 C 348.14 641.26 342.34 646.43 343.19 641.06 Z"/><path fill="#000000" opacity="1.00" d=" M 289.31 812.04 C 292.33 810.56 289.35 815.38 289.31 812.04 Z"/><path fill="#000000" opacity="1.00" d=" M 364.00 866.36 C 368.05 865.69 363.57 870.30 364.00 866.36 Z"/><path fill="#000000" opacity="1.00" d=" M 370.23 866.40 C 371.74 866.13 373.72 868.75 371.74 869.57 C 370.27 869.80 368.23 867.18 370.23 866.40 Z"/><path fill="#000000" opacity="1.00" d=" M 367.16 867.04 C 370.23 867.44 365.54 870.05 367.16 867.04 Z"/></g></svg>