<svg viewBox="0 0 100 100" version="1.1" xmlns="http://www.w3.org/2000/svg"><g transform="translate(6.214733575188205, 1) scale(0.10275337093966909) translate(-82.64, -34.86)"><path fill="#000000" opacity="1.00" d=" M 730.36 37.49 C 781.43 34.86 832.31 66.13 853.38 112.66 C 861.33 130.21 865.53 149.65 864.19 168.95 C 862.13 198.81 847.97 228.67 823.28 246.28 C 816.18 251.64 807.58 254.43 800.26 259.41 C 801.09 263.61 804.46 266.78 806.49 270.47 C 821.85 295.95 830.08 324.98 835.72 353.99 C 840.63 360.11 846.61 365.35 851.64 371.40 C 874.28 397.48 885.98 432.55 884.43 466.98 C 883.78 504.75 867.20 541.25 842.00 569.00 C 812.18 602.31 771.52 624.28 729.17 637.33 C 717.28 641.19 704.89 643.30 693.11 647.47 C 698.48 657.65 705.87 666.71 710.68 677.24 C 711.61 678.41 711.83 681.29 713.76 680.92 C 718.48 676.93 722.19 671.80 727.34 668.28 C 736.27 661.73 748.18 658.60 758.98 661.88 C 768.78 664.70 776.53 672.66 780.23 682.02 C 786.90 698.65 784.15 718.34 774.19 733.09 C 764.67 747.62 748.89 757.30 732.04 760.87 C 726.18 761.48 725.21 768.19 724.77 772.90 C 734.04 774.35 743.50 772.84 752.76 774.42 C 763.09 776.96 771.60 785.62 773.99 796.00 C 775.12 799.77 775.26 804.58 778.96 806.88 C 783.45 809.12 788.50 809.95 793.02 812.18 C 815.79 822.59 836.86 843.07 839.61 869.01 C 841.28 876.63 835.26 882.76 829.21 886.22 C 826.99 893.47 828.70 901.25 827.56 908.69 C 826.59 924.28 818.84 938.15 810.00 950.57 C 851.72 951.89 893.60 953.52 934.88 960.36 C 929.32 962.52 922.17 961.75 915.98 962.52 C 878.95 963.94 841.99 966.76 804.98 968.22 C 640.99 969.29 476.99 969.18 313.00 968.62 C 255.29 968.58 197.68 964.94 140.06 962.14 C 136.00 961.55 131.53 962.28 127.77 960.48 C 147.59 956.37 167.85 955.28 188.00 953.98 C 218.28 952.29 248.59 950.29 278.93 950.58 C 268.47 938.77 260.05 924.41 257.48 908.65 C 255.75 890.21 256.24 870.63 265.21 853.94 C 266.76 849.70 270.57 845.58 269.67 840.94 C 263.16 831.35 267.22 818.41 274.57 810.50 C 291.04 791.07 317.42 784.55 341.92 784.08 C 344.71 773.17 348.01 760.49 358.69 754.68 C 362.16 752.29 367.92 753.30 369.76 748.85 C 372.95 740.17 373.83 730.83 376.79 722.08 C 380.55 714.05 372.80 707.14 369.32 700.54 C 358.49 700.10 347.34 699.55 336.94 703.14 C 318.47 708.47 294.39 702.89 285.77 684.18 C 280.39 673.74 284.58 662.13 288.28 651.97 C 251.30 645.68 215.01 633.95 182.11 615.78 C 156.36 601.46 132.71 582.47 115.84 558.10 C 93.40 526.38 82.64 485.31 91.91 447.05 C 98.59 423.37 109.76 399.98 128.49 383.44 C 135.36 376.74 143.65 371.81 151.20 365.99 C 150.86 349.63 154.64 333.57 158.64 317.81 C 166.97 283.20 183.55 251.00 204.70 222.52 C 193.91 205.44 184.42 185.85 185.43 165.01 C 184.24 131.25 198.42 97.17 224.47 75.41 C 253.93 51.14 296.52 44.77 332.23 57.64 C 351.64 64.64 368.31 77.72 381.37 93.50 C 385.65 92.48 389.88 91.18 394.03 89.72 C 390.80 82.51 384.34 76.88 382.77 68.87 C 381.01 62.08 386.80 55.45 393.35 54.46 C 407.36 52.13 421.12 56.91 434.52 60.31 C 433.35 56.22 430.01 52.30 431.65 47.81 C 433.23 44.02 436.28 40.58 440.05 38.89 C 449.58 37.80 458.81 41.65 467.23 45.71 C 481.24 52.84 494.69 61.96 504.40 74.51 C 511.60 83.43 516.35 95.08 514.01 106.66 C 497.39 86.16 476.98 67.36 451.99 57.97 C 460.21 74.05 472.86 87.63 480.16 104.24 C 456.57 87.61 430.47 71.75 401.03 69.21 C 411.57 89.21 432.03 102.87 453.25 109.58 C 457.19 111.43 463.84 111.01 465.89 114.60 C 444.09 116.12 421.09 117.92 401.97 129.57 C 413.56 134.87 426.68 133.22 439.05 133.49 C 451.68 133.79 463.93 130.55 476.16 127.90 C 461.88 141.00 442.03 146.62 423.03 147.70 C 412.28 148.05 401.00 146.81 391.45 141.57 C 385.00 138.14 384.27 128.89 388.57 123.49 C 394.66 115.62 404.96 113.42 412.60 107.63 C 414.10 104.90 409.59 106.67 408.07 106.71 C 374.71 116.02 342.07 128.97 312.84 147.76 C 258.96 181.60 215.69 232.28 191.07 290.97 C 181.35 316.14 174.22 342.63 172.52 369.62 C 172.21 372.87 168.61 373.66 166.86 375.92 C 170.75 375.55 174.29 373.70 178.11 373.00 C 173.91 377.53 167.55 379.22 162.33 382.33 C 142.80 392.75 127.07 410.00 118.44 430.38 C 105.15 461.66 108.67 498.63 124.74 528.23 C 144.53 565.09 179.81 591.23 217.73 607.36 C 244.02 618.72 271.62 627.35 299.97 631.71 C 309.48 633.91 317.15 626.20 326.36 625.49 C 349.19 620.15 372.75 630.29 389.25 645.82 C 406.81 646.33 424.42 645.89 442.00 646.04 C 445.96 646.63 446.19 641.45 448.25 639.19 C 462.74 619.27 486.44 606.59 510.98 605.05 C 525.77 604.17 540.30 608.13 554.04 613.26 C 573.71 620.72 593.96 627.11 614.90 629.82 C 649.59 634.66 684.70 628.00 717.79 617.61 C 750.86 607.07 782.75 591.06 808.43 567.41 C 838.28 540.19 859.16 501.08 858.01 460.00 C 858.71 424.00 833.73 390.12 800.30 377.83 C 805.48 383.35 814.40 386.23 817.92 392.81 C 811.33 388.31 804.69 382.97 796.87 381.05 C 803.89 385.63 811.71 389.69 817.19 396.11 C 798.41 384.64 777.42 375.08 754.97 374.93 C 748.07 375.21 740.10 372.80 734.15 376.83 C 719.28 378.28 703.98 379.03 690.02 384.94 C 671.68 392.46 653.55 401.37 638.38 414.30 C 622.40 426.57 605.06 438.46 584.87 442.20 C 567.06 445.29 547.66 443.84 532.02 434.10 C 523.51 428.59 514.87 423.19 505.40 419.48 C 486.14 410.10 475.77 389.51 469.64 369.96 C 463.11 343.85 463.54 316.45 467.41 289.97 C 471.80 260.94 480.07 232.38 493.04 205.99 C 506.71 178.40 527.19 153.89 553.02 136.96 C 564.06 129.96 576.10 123.98 589.05 121.64 C 600.84 119.72 611.60 126.87 623.06 127.26 C 623.53 123.91 619.41 123.16 617.23 121.70 C 588.16 108.42 556.10 103.09 524.54 100.45 C 520.33 94.75 521.62 86.56 520.02 79.81 C 550.86 81.34 581.87 85.30 611.02 95.95 C 616.99 97.80 622.62 101.22 628.94 101.65 C 631.89 101.70 630.91 97.71 632.23 95.93 C 636.58 88.33 642.33 81.61 648.05 75.00 C 668.73 51.76 699.44 38.51 730.36 37.49 M 727.35 58.49 C 692.52 58.78 659.31 80.30 642.47 110.43 C 636.50 121.44 632.17 134.31 634.83 146.91 C 635.30 147.97 635.18 150.41 636.99 150.09 C 638.46 144.46 638.25 138.44 640.69 133.02 C 654.23 98.04 691.20 72.61 729.00 74.96 C 741.52 74.76 754.32 75.91 765.98 80.79 C 772.41 83.12 778.14 87.23 784.84 88.81 C 784.29 84.09 778.98 81.97 775.63 79.28 C 767.69 73.49 757.76 70.58 749.32 66.62 C 769.07 68.65 788.01 76.40 804.18 87.87 C 795.03 77.69 783.78 69.05 770.81 64.35 C 756.96 59.23 742.01 58.12 727.35 58.49 M 282.34 71.47 C 259.98 73.56 237.77 83.75 223.68 101.60 C 212.85 115.51 206.41 132.69 204.13 150.07 C 207.65 143.63 209.16 136.22 212.71 129.75 C 225.54 104.88 251.46 85.83 280.01 85.42 C 292.53 84.21 304.84 87.15 317.20 88.12 C 311.14 81.40 300.89 80.15 292.91 77.20 C 305.23 76.14 317.12 80.11 329.15 81.85 C 315.73 72.58 298.33 70.50 282.34 71.47 M 743.23 121.37 C 738.95 121.18 735.11 126.40 739.42 129.34 C 743.94 129.53 742.55 134.33 744.40 137.16 C 741.60 137.52 740.34 135.35 739.03 133.38 C 738.21 137.22 732.36 141.24 736.96 144.89 C 749.72 149.70 766.28 152.59 772.46 166.44 C 758.85 159.67 741.53 156.72 727.61 164.53 C 724.75 165.41 725.64 168.95 724.87 171.16 C 721.46 172.00 717.23 174.36 717.48 178.40 C 721.84 175.44 727.28 177.96 732.05 178.34 C 746.15 180.25 760.58 188.01 767.08 201.08 C 761.33 198.92 756.27 195.22 750.33 193.51 C 740.47 190.19 729.91 190.86 719.77 192.31 C 727.41 197.63 737.40 200.98 742.47 209.18 C 735.39 206.25 728.49 202.61 720.93 200.93 C 728.05 208.81 735.34 216.58 742.98 223.97 C 748.33 229.96 757.28 226.95 764.19 226.38 C 786.30 222.71 801.29 200.41 802.20 178.96 C 802.66 162.63 797.16 145.37 784.88 134.15 C 773.75 124.10 758.00 119.71 743.23 121.37 M 257.20 131.35 C 238.77 136.01 225.80 155.23 226.94 174.00 C 227.29 179.58 226.70 185.69 229.14 190.84 C 237.14 183.62 243.96 175.18 251.93 167.91 C 257.52 162.20 264.15 157.54 269.31 151.41 C 271.19 149.40 272.39 145.64 269.45 143.96 C 267.88 148.04 266.00 141.08 265.23 139.65 C 262.27 134.42 271.55 136.94 271.57 132.24 C 267.24 129.65 261.90 130.44 257.20 131.35 M 266.47 138.08 C 266.00 139.24 266.94 140.47 267.49 141.46 C 269.54 141.25 268.79 136.81 266.47 138.08 M 731.37 138.02 C 727.62 140.02 728.44 143.10 731.92 144.93 C 732.87 143.49 733.58 141.91 734.27 140.34 C 731.08 142.09 732.59 136.85 731.37 138.02 M 722.35 168.00 C 721.46 168.94 722.42 171.55 723.84 170.70 C 724.73 169.76 723.81 167.00 722.35 168.00 M 779.12 268.94 C 789.75 294.36 799.73 320.21 806.17 347.06 C 807.55 352.94 812.38 357.10 817.19 360.30 C 812.59 354.04 812.37 346.06 810.36 338.83 C 804.47 316.30 794.32 295.16 783.22 274.79 C 782.03 272.72 781.07 270.41 779.12 268.94 M 567.35 297.49 C 555.31 300.38 543.68 307.29 537.08 317.99 C 530.60 329.00 533.45 346.59 546.26 351.60 C 558.38 355.94 572.68 354.53 583.64 347.72 C 593.43 340.82 601.82 329.46 601.00 316.99 C 598.81 301.87 581.41 293.07 567.35 297.49 M 537.43 360.47 C 532.22 362.37 529.15 369.34 532.84 373.98 C 536.61 379.69 547.31 379.26 548.68 371.82 C 551.15 365.05 544.66 356.57 537.43 360.47 M 632.26 369.39 C 624.99 370.73 618.44 377.29 618.81 384.98 C 618.66 392.31 624.57 399.23 632.00 399.68 C 639.80 400.99 646.31 394.21 648.53 387.34 C 651.29 377.93 641.73 367.93 632.26 369.39 M 509.30 616.44 C 505.24 617.48 499.01 617.34 496.63 620.29 C 514.05 621.90 532.12 619.04 549.00 624.83 C 553.48 625.79 547.96 622.90 547.16 621.60 C 549.84 621.76 552.53 622.13 555.23 621.99 C 554.20 619.67 551.35 619.38 549.25 618.57 C 536.28 615.04 522.58 614.87 509.30 616.44 M 486.36 630.48 C 470.39 631.17 456.87 645.53 454.95 661.01 C 454.34 673.43 463.90 688.95 477.85 686.90 C 470.47 675.56 468.37 658.62 477.90 647.90 C 475.02 660.86 475.90 677.88 488.79 685.24 C 492.73 688.94 501.41 684.30 498.28 679.03 C 494.08 668.07 500.85 655.97 510.33 650.27 C 514.47 647.22 520.08 646.83 523.89 643.32 C 523.22 643.09 521.89 642.63 521.22 642.40 C 520.05 636.59 514.24 633.15 508.95 631.65 C 501.53 630.12 493.89 630.31 486.36 630.48 M 330.30 637.42 C 320.24 639.11 310.19 643.51 303.65 651.58 C 297.52 658.74 296.44 668.46 296.52 677.51 C 301.39 682.20 305.90 689.44 313.18 689.98 C 313.68 686.22 311.34 682.83 310.59 679.25 C 307.62 669.27 311.98 658.72 317.99 650.86 C 316.57 657.80 313.15 664.82 315.92 671.96 C 318.26 682.34 328.73 695.02 340.40 689.21 C 335.08 676.80 337.27 660.01 348.98 651.99 C 355.17 647.27 363.16 647.47 370.36 645.65 C 359.72 636.75 344.00 635.09 330.30 637.42 M 517.20 656.26 C 513.73 658.88 509.48 663.27 511.16 667.99 C 514.77 666.80 515.82 662.42 517.50 659.40 C 517.83 658.54 519.44 654.62 517.20 656.26 M 526.40 656.39 C 522.92 658.62 520.53 662.35 519.37 666.26 C 518.60 668.34 520.12 671.31 522.60 670.63 C 525.81 669.56 525.83 665.13 528.87 663.73 C 531.25 662.16 534.09 663.48 536.68 663.57 C 535.61 659.63 530.74 654.58 526.40 656.39 M 403.36 657.50 C 391.55 658.08 379.65 657.71 367.93 659.33 C 362.32 659.99 361.09 667.39 362.02 671.72 C 371.25 673.96 380.69 670.40 390.01 671.96 C 404.35 672.14 418.71 670.55 433.07 671.10 C 434.61 671.05 435.93 671.94 437.30 672.52 C 439.15 670.07 445.00 669.24 439.02 667.65 C 443.15 665.77 442.00 660.75 441.96 657.11 C 429.09 656.86 416.22 657.14 403.36 657.50 M 358.29 658.40 C 351.17 658.77 347.57 668.85 353.51 673.20 C 354.91 668.20 356.71 663.34 359.19 658.78 C 358.97 658.68 358.51 658.49 358.29 658.40 M 535.97 671.81 C 536.87 676.92 532.24 679.62 531.84 684.54 C 536.56 682.59 538.01 676.29 538.05 671.60 C 537.53 671.65 536.49 671.76 535.97 671.81 M 746.39 674.49 C 734.63 676.07 725.75 685.86 721.43 696.36 C 720.94 698.78 721.12 703.00 723.88 703.85 C 727.81 700.71 729.56 695.67 733.28 692.30 C 739.17 686.09 748.34 681.01 756.99 684.01 C 762.31 687.57 766.40 694.07 765.50 700.67 C 764.78 704.28 767.16 707.73 765.16 711.18 C 772.02 705.56 770.07 695.29 768.47 687.68 C 766.25 677.99 755.80 672.57 746.39 674.49 M 434.35 680.48 C 415.25 681.30 396.14 681.76 377.02 681.75 C 373.00 682.10 368.67 681.36 364.91 683.04 C 369.79 684.50 375.00 683.83 380.03 684.24 C 401.92 684.36 423.91 685.20 445.75 683.64 C 445.80 678.74 437.73 681.01 434.35 680.48 M 523.38 682.10 C 523.17 683.67 525.25 685.87 526.84 685.61 C 527.16 683.94 524.98 681.93 523.38 682.10 M 397.25 694.36 C 392.28 698.63 392.56 706.66 390.49 712.64 C 388.32 725.84 383.49 738.68 382.79 752.04 C 386.70 753.52 390.95 754.13 395.12 754.11 C 398.29 737.64 402.01 721.23 404.52 704.64 C 406.68 700.34 396.67 699.92 401.15 696.36 C 407.59 695.68 399.80 693.39 397.25 694.36 M 429.00 696.94 C 422.73 714.69 420.57 733.63 416.30 751.94 C 415.87 756.19 412.83 761.12 415.91 764.99 C 420.72 770.76 427.26 775.20 430.77 782.00 C 434.41 792.83 444.73 799.19 453.49 805.60 C 480.71 824.59 514.57 831.96 547.38 831.12 C 544.48 825.77 540.56 820.90 538.90 814.94 C 534.83 802.18 538.78 788.48 544.80 777.03 C 553.50 762.56 566.35 750.41 581.81 743.44 C 571.38 722.91 552.08 708.59 532.06 698.12 C 510.99 698.43 489.86 700.94 468.78 699.39 C 455.72 696.61 442.28 696.68 429.00 696.94 M 412.23 701.83 C 406.63 719.51 402.61 737.75 399.12 755.96 C 397.94 759.32 402.86 758.96 402.86 756.04 C 406.77 737.99 411.31 719.91 413.15 701.52 L 412.23 701.83 M 764.17 714.49 C 763.00 718.78 768.01 712.84 764.17 714.49 M 712.49 740.80 C 710.63 750.97 709.26 761.27 706.41 771.23 C 699.79 793.31 686.76 813.36 669.81 828.88 C 690.37 817.37 703.10 795.95 710.32 774.15 C 713.38 763.45 714.62 751.60 712.49 740.80 M 583.48 747.55 C 561.12 758.83 547.10 785.43 552.60 810.21 C 554.47 817.19 557.83 825.92 565.21 828.29 C 557.28 818.83 557.13 805.62 558.36 793.96 C 560.48 775.65 572.89 760.90 584.75 747.71 C 584.43 747.67 583.80 747.59 583.48 747.55 M 373.36 765.46 C 367.22 765.23 359.86 767.98 358.55 774.71 C 357.94 778.75 354.95 783.41 356.84 787.24 C 364.42 788.98 372.93 790.40 378.46 796.44 C 381.44 799.66 380.59 804.26 379.83 808.14 C 374.30 835.14 366.84 861.74 362.14 888.91 C 360.35 894.78 366.10 903.18 372.58 900.56 C 378.35 897.38 379.83 890.22 381.52 884.38 C 387.83 857.62 393.24 830.65 399.97 804.00 C 400.54 802.80 400.37 800.80 401.96 800.42 C 407.18 802.68 410.61 807.58 413.80 812.08 C 427.92 833.55 437.54 857.65 451.90 878.97 C 458.29 888.91 468.59 896.29 480.00 899.09 C 545.39 898.68 610.82 899.52 676.17 896.75 C 676.10 889.81 674.37 881.98 677.76 875.18 C 617.18 874.76 556.58 875.55 496.00 874.56 C 486.02 874.29 474.17 875.31 466.95 866.99 C 448.59 841.48 433.94 813.55 416.34 787.53 C 407.42 773.02 389.55 766.76 373.36 765.46 M 722.32 787.44 C 718.24 787.99 717.45 792.69 716.59 795.97 C 727.68 795.86 738.99 793.46 749.94 795.81 C 755.42 796.99 754.48 804.02 758.60 806.58 C 760.74 807.34 761.90 804.78 761.61 803.00 C 761.35 796.46 756.88 789.49 750.07 788.36 C 740.98 786.60 731.50 785.91 722.32 787.44 M 327.36 798.46 C 313.39 799.41 300.30 805.79 289.48 814.42 C 286.80 816.93 283.41 819.34 282.59 823.14 C 308.02 814.84 335.91 817.93 361.29 824.47 C 365.97 823.13 361.70 817.56 364.67 814.91 C 366.38 811.21 369.69 803.88 363.86 802.31 C 352.15 798.49 339.60 797.38 327.36 798.46 M 751.27 805.32 C 751.41 808.68 754.21 803.73 751.27 805.32 M 709.37 810.37 C 707.43 811.22 706.87 813.29 707.23 815.25 C 698.41 821.90 691.29 830.59 681.97 836.68 C 687.15 836.59 693.43 837.78 697.20 833.24 C 703.03 826.83 710.60 822.45 717.15 816.92 C 713.68 818.92 710.62 817.13 707.82 814.91 C 708.25 813.66 711.79 809.05 709.37 810.37 M 757.36 819.50 C 732.85 821.17 708.32 834.81 696.89 857.03 C 695.02 859.43 698.03 861.98 697.42 864.31 C 691.86 868.80 688.93 877.20 691.09 883.90 C 697.39 886.48 705.41 885.50 711.58 882.59 C 717.54 877.22 720.63 869.47 724.47 862.58 C 730.61 851.35 738.66 840.56 749.98 834.14 C 767.96 823.85 792.11 829.34 806.17 843.83 C 812.25 849.79 818.04 856.26 821.85 863.95 C 822.90 865.47 823.60 868.07 825.90 868.00 C 824.73 856.20 816.72 846.44 808.56 838.41 C 795.34 824.97 776.01 818.49 757.36 819.50 M 408.08 824.04 C 405.93 826.97 405.64 831.09 408.15 833.92 C 417.12 845.66 424.19 859.29 426.37 874.03 C 427.26 879.98 426.16 887.25 420.55 890.59 C 419.06 891.87 416.33 892.20 415.75 894.20 C 422.32 894.45 430.84 891.58 431.86 884.09 C 433.42 870.79 428.96 857.53 422.76 845.93 C 418.60 838.20 414.41 830.23 408.08 824.04 M 555.36 839.48 C 547.71 840.59 539.87 846.87 539.46 854.99 C 539.90 862.57 550.35 862.16 555.58 860.50 C 555.54 854.34 557.46 848.61 560.47 843.30 C 562.04 840.01 557.79 839.03 555.36 839.48 M 765.26 841.39 C 748.02 845.35 734.46 862.69 736.06 880.61 C 741.21 871.51 744.13 860.53 752.60 853.68 C 759.74 848.24 768.23 843.88 777.35 843.47 C 778.45 843.14 780.41 843.67 780.90 842.35 C 775.88 840.72 770.44 840.62 765.26 841.39 M 571.28 842.40 C 564.89 844.33 559.19 851.83 562.60 858.43 C 567.01 863.03 574.21 861.92 580.01 862.38 C 603.80 862.22 630.97 862.64 649.73 845.72 C 631.30 852.77 611.16 849.32 592.65 844.50 C 585.67 843.18 578.35 840.06 571.28 842.40 M 671.19 844.17 C 667.35 847.92 664.99 853.31 661.21 856.95 C 662.66 861.67 656.39 857.52 655.44 860.98 C 657.83 861.06 660.27 861.07 662.63 860.58 C 663.62 857.12 666.19 854.47 670.01 854.66 C 669.05 853.23 666.73 852.75 666.87 850.73 C 669.86 852.85 673.10 856.56 676.99 853.64 C 674.27 852.83 671.42 851.71 670.03 849.04 C 673.62 850.27 677.01 852.46 681.09 851.62 C 677.95 849.92 672.42 850.27 672.47 845.39 C 675.28 847.32 678.44 849.01 681.97 848.88 C 681.13 845.53 676.24 847.44 675.47 844.11 C 674.24 843.21 672.42 843.44 671.19 844.17 M 680.83 844.09 C 680.78 849.86 688.70 850.08 688.88 844.27 C 686.30 843.23 683.46 843.44 680.83 844.09 M 284.33 846.44 C 263.61 871.85 264.45 911.54 283.34 937.65 C 276.00 918.92 270.60 898.31 275.28 878.21 C 284.98 874.74 295.94 877.76 306.04 875.89 C 308.56 875.76 308.14 871.36 305.66 871.45 C 295.94 870.37 286.11 871.46 276.36 870.84 C 278.04 866.50 277.91 860.05 282.95 858.13 C 292.79 856.19 303.08 858.44 312.88 856.13 C 315.36 855.97 317.65 851.26 314.07 851.09 C 304.41 849.87 294.63 850.64 284.92 850.48 C 280.80 851.56 286.38 845.18 284.33 846.44 M 402.82 845.62 C 401.55 848.94 404.21 851.85 407.09 853.05 C 406.62 850.37 405.33 846.75 402.82 845.62 M 323.37 849.39 C 317.54 858.24 312.65 869.15 313.64 879.97 C 316.96 876.51 317.10 871.22 319.10 867.00 C 321.19 860.72 325.70 855.70 328.26 849.67 C 326.41 852.39 325.17 848.98 323.37 849.39 M 523.16 851.23 C 518.92 854.40 514.30 857.27 510.72 861.21 C 515.00 861.30 519.55 861.85 523.68 860.99 C 523.53 858.14 524.99 851.66 523.16 851.23 M 402.69 853.75 C 404.01 857.52 407.08 860.55 410.37 862.71 C 410.57 858.76 406.24 854.23 402.69 853.75 M 680.43 854.06 C 680.35 858.52 685.00 852.30 680.43 854.06 M 667.47 857.49 C 665.75 857.82 666.16 859.97 665.99 861.23 C 667.87 861.02 670.73 856.31 667.47 857.49 M 672.54 857.11 C 671.66 857.40 670.27 859.37 671.74 859.76 C 673.32 859.91 675.12 856.08 672.54 857.11 M 352.35 858.42 C 326.32 871.48 326.71 914.56 352.02 928.06 C 368.76 934.85 385.11 918.62 388.00 902.92 C 383.22 909.03 376.37 915.67 367.96 914.66 C 361.32 912.92 354.47 909.05 351.45 902.61 C 346.59 891.69 350.69 880.04 352.37 868.99 C 353.16 864.78 348.75 868.67 346.77 869.09 C 348.41 866.58 351.41 865.92 354.03 864.93 C 354.83 862.36 357.23 856.01 352.35 858.42 M 771.24 863.37 C 743.55 870.78 741.75 917.84 769.04 927.23 C 779.38 930.99 790.97 923.92 795.54 914.57 C 802.09 901.20 799.93 883.96 790.43 872.53 C 785.67 867.11 778.68 862.75 771.24 863.37 M 814.45 901.39 C 812.91 914.63 806.53 926.54 801.58 938.57 C 807.32 935.95 809.66 929.50 811.86 924.04 C 814.42 917.08 815.96 907.40 814.45 901.39 M 549.36 915.49 C 506.46 916.15 463.55 915.88 420.64 916.50 C 417.33 917.16 411.81 915.50 410.60 919.77 C 407.75 927.34 403.38 934.26 400.12 941.58 C 412.32 943.24 424.71 942.48 436.99 942.92 C 523.04 943.05 609.10 943.02 695.15 942.96 C 691.13 934.62 686.01 926.80 683.00 918.00 C 679.90 916.55 676.33 916.91 673.02 916.55 C 631.82 914.87 590.58 915.15 549.36 915.49 M 794.31 928.34 C 788.89 932.03 782.79 935.42 776.00 935.02 C 769.03 935.04 763.11 931.00 756.66 929.02 C 765.56 942.55 788.53 942.46 796.94 928.09 C 796.28 928.15 794.97 928.28 794.31 928.34 M 388.56 933.42 C 382.47 939.06 375.50 943.63 369.05 948.79 C 378.12 948.63 385.05 939.84 389.98 932.86 C 389.62 933.00 388.91 933.28 388.56 933.42 M 196.22 960.25 C 193.46 961.59 197.56 963.23 198.60 961.44 C 199.73 959.97 197.04 959.64 196.22 960.25 M 210.39 960.29 C 211.48 963.85 214.15 958.14 210.39 960.29 M 221.31 960.31 C 221.42 963.67 224.27 958.75 221.31 960.31 M 845.44 960.31 C 846.42 963.93 849.17 958.16 845.44 960.31 Z"/><path fill="#000000" opacity="1.00" d=" M 739.41 124.35 C 741.20 121.53 745.10 126.92 741.57 127.48 C 739.19 130.37 737.66 126.09 739.41 124.35 Z"/><path fill="#000000" opacity="1.00" d=" M 737.55 141.56 C 739.61 140.35 742.18 142.26 744.41 142.37 C 743.64 144.88 741.34 142.59 739.79 142.34 C 738.47 142.22 734.91 143.62 737.55 141.56 Z"/><path fill="#000000" opacity="1.00" d=" M 720.88 173.86 C 725.55 173.07 720.20 178.43 720.88 173.86 Z"/><path fill="#000000" opacity="1.00" d=" M 290.34 214.45 C 301.36 212.53 313.45 218.68 317.63 229.19 C 319.65 234.18 318.65 241.80 312.89 243.71 C 305.61 245.53 298.62 241.82 291.61 240.50 C 282.90 239.80 274.67 245.74 265.96 243.79 C 260.24 241.11 261.27 233.62 263.87 229.03 C 268.47 219.00 280.00 214.90 290.34 214.45 Z"/><path fill="#000000" opacity="1.00" d=" M 268.31 285.43 C 284.03 283.85 301.40 287.60 312.71 299.28 C 327.31 314.26 336.12 335.05 336.25 356.02 C 336.58 369.82 336.01 384.05 330.79 397.02 C 325.21 410.81 314.53 421.93 302.80 430.76 C 294.75 436.01 285.85 441.21 275.94 441.22 C 266.54 441.48 256.56 442.64 247.84 438.27 C 218.18 426.90 201.92 392.82 205.40 362.26 C 207.61 347.40 211.23 332.28 219.38 319.47 C 230.61 302.75 247.67 287.93 268.31 285.43 M 270.36 306.46 C 254.27 309.72 240.88 324.58 239.77 341.02 C 238.92 350.34 246.49 359.46 256.03 359.48 C 276.95 359.93 295.85 338.76 291.87 317.93 C 289.29 309.22 278.88 304.69 270.36 306.46 M 244.21 365.31 C 239.37 366.43 235.74 373.19 239.99 377.03 C 242.80 381.54 249.81 380.47 251.55 375.57 C 255.15 370.75 249.59 364.09 244.21 365.31 M 310.26 377.40 C 305.19 378.04 300.81 382.06 299.77 387.07 C 297.43 395.53 306.29 405.70 315.05 402.69 C 320.86 400.44 326.09 394.64 324.65 387.99 C 324.59 380.72 317.02 375.97 310.26 377.40 Z"/><path fill="#000000" opacity="1.00" d=" M 379.25 388.40 C 390.32 387.12 402.56 386.74 412.48 392.61 C 419.65 397.12 426.93 404.87 424.94 414.06 C 421.58 430.91 405.59 442.80 389.37 445.58 C 392.67 461.16 406.05 474.89 422.14 477.27 C 431.36 478.30 440.95 478.77 450.08 476.79 C 462.05 472.62 474.32 464.71 478.30 451.99 C 480.32 446.48 478.98 440.54 480.10 434.91 C 483.84 440.25 486.30 446.66 487.60 453.03 C 487.79 469.23 474.68 482.14 460.25 487.37 C 460.96 508.22 463.11 530.67 452.75 549.80 C 446.56 562.11 432.82 570.46 418.92 568.80 C 407.75 568.09 398.64 560.54 391.54 552.50 C 376.63 535.40 367.64 514.21 359.60 493.25 C 353.64 491.79 347.12 492.68 341.06 491.10 C 324.62 488.07 311.96 471.63 313.39 454.95 C 313.95 446.92 316.20 438.26 322.28 432.62 C 319.85 444.24 319.96 457.67 327.68 467.40 C 336.35 479.15 353.75 481.72 366.45 475.48 C 376.15 470.57 382.19 460.32 384.33 449.95 C 384.83 445.78 379.67 445.31 376.83 444.28 C 363.64 439.98 350.86 427.83 351.93 413.02 C 353.63 399.68 366.69 390.41 379.25 388.40 M 384.32 399.42 C 376.44 399.61 368.40 402.60 363.64 409.14 C 366.69 412.63 370.73 415.77 375.63 415.52 C 386.16 415.48 397.98 416.55 407.00 410.06 C 408.78 408.97 411.26 406.09 408.51 404.56 C 401.42 400.00 392.60 398.78 384.32 399.42 M 440.20 501.41 C 427.86 507.84 421.53 522.43 419.77 535.71 C 415.31 529.80 416.57 521.69 413.35 515.28 C 404.58 518.99 398.01 529.04 398.41 538.71 C 401.29 553.54 420.49 561.77 433.49 554.38 C 439.20 550.98 442.82 545.03 445.17 538.97 C 449.20 527.18 450.96 513.37 444.98 501.94 C 444.27 500.18 443.01 502.97 442.10 503.34 C 440.79 505.00 441.68 500.05 440.20 501.41 Z"/><path fill="#000000" opacity="1.00" d=" M 667.30 420.45 C 672.99 420.21 680.21 418.72 685.02 420.81 C 680.10 421.31 674.41 420.84 670.93 424.39 C 671.18 420.67 666.33 421.55 664.40 422.80 C 665.55 423.86 666.82 424.83 668.01 425.87 C 665.71 426.31 663.56 426.21 663.34 423.44 C 660.27 422.32 657.12 423.98 654.13 424.56 C 656.98 420.95 662.98 421.51 667.30 420.45 Z"/><path fill="#000000" opacity="1.00" d=" M 688.43 422.21 C 690.06 421.89 692.03 424.20 691.55 425.78 C 689.91 426.08 688.21 423.70 688.43 422.21 Z"/><path fill="#000000" opacity="1.00" d=" M 172.32 424.41 C 185.14 422.92 198.34 426.56 209.97 431.61 C 211.64 434.53 204.55 431.51 206.43 434.65 C 206.85 436.78 210.76 434.11 210.99 436.61 C 208.73 436.80 206.68 437.43 205.63 439.59 C 203.62 436.05 197.83 443.15 198.95 437.06 C 201.93 439.52 205.03 436.40 204.88 433.11 C 202.93 432.24 197.59 436.86 199.41 432.19 C 201.56 426.39 192.54 427.96 189.03 427.54 C 183.34 427.35 192.28 436.96 186.65 435.41 C 185.07 433.43 187.90 429.08 183.95 429.70 C 182.70 424.21 173.65 423.73 171.17 427.91 C 173.59 429.76 177.99 425.12 181.05 428.40 C 174.44 429.82 188.77 432.85 181.24 435.66 C 182.18 431.11 177.98 431.92 174.97 431.92 C 175.92 430.79 177.45 429.83 176.84 428.14 C 174.15 429.62 171.08 430.58 168.57 428.13 C 169.43 426.59 170.45 424.85 172.32 424.41 M 202.31 430.17 C 198.13 433.26 205.36 432.90 202.31 430.17 Z"/><path fill="#000000" opacity="1.00" d=" M 165.29 426.17 C 170.35 426.32 161.16 429.67 165.29 426.17 Z"/><path fill="#000000" opacity="1.00" d=" M 645.30 426.17 C 650.33 426.32 641.18 429.69 645.30 426.17 Z"/><path fill="#000000" opacity="1.00" d=" M 660.00 426.38 C 661.30 426.07 662.97 427.63 662.63 428.97 C 661.38 429.63 659.36 427.62 660.00 426.38 Z"/><path fill="#000000" opacity="1.00" d=" M 638.44 429.45 C 639.88 429.77 635.88 431.95 634.85 432.85 C 636.71 433.19 640.47 431.12 641.07 433.72 C 636.99 434.06 640.86 437.61 640.95 439.88 C 639.48 440.72 638.11 439.99 636.79 439.34 C 634.39 439.14 631.46 446.17 629.46 442.13 C 627.33 443.90 625.45 445.97 623.19 447.58 C 625.52 443.67 622.06 439.96 617.88 440.72 C 619.23 439.50 620.88 438.72 622.54 438.01 C 622.77 438.88 621.42 440.83 622.87 440.91 C 626.86 442.07 628.31 436.38 631.70 436.27 C 631.70 438.11 632.44 443.69 633.46 439.14 C 635.82 437.13 632.95 434.47 633.78 432.01 C 635.09 430.77 636.76 430.04 638.44 429.45 Z"/><path fill="#000000" opacity="1.00" d=" M 641.76 428.86 C 644.39 429.80 643.67 435.67 647.01 435.17 C 649.15 433.63 646.91 432.39 645.08 432.47 C 644.32 429.96 647.02 428.10 648.12 431.03 C 649.89 433.63 649.58 426.95 651.85 428.73 C 655.04 429.08 654.72 436.30 651.22 433.90 C 647.37 430.51 648.96 438.22 652.39 438.03 C 650.09 437.50 646.77 441.45 645.71 438.10 C 642.66 437.38 645.88 443.49 642.19 442.82 C 644.20 437.88 641.18 433.83 641.76 428.86 M 651.36 430.42 C 650.03 435.31 655.51 430.48 651.36 430.42 Z"/><path fill="#000000" opacity="1.00" d=" M 161.12 432.24 C 164.33 432.47 159.59 435.34 161.12 432.24 Z"/><path fill="#000000" opacity="1.00" d=" M 212.32 432.53 C 217.40 433.91 222.33 436.52 226.20 440.10 C 223.42 439.39 221.08 437.45 218.19 437.12 C 217.43 439.12 218.70 440.99 219.91 442.48 C 221.45 440.97 223.27 441.46 224.76 442.71 C 223.46 444.21 222.35 446.14 220.42 446.88 C 216.07 442.51 218.51 434.89 212.32 432.53 Z"/><path fill="#000000" opacity="1.00" d=" M 629.25 434.39 C 633.41 435.23 626.72 437.40 624.90 436.89 C 625.89 435.44 627.49 434.51 629.25 434.39 Z"/><path fill="#000000" opacity="1.00" d=" M 193.09 435.40 C 194.45 435.07 196.07 436.79 195.71 438.14 C 194.42 438.67 192.62 436.63 193.09 435.40 Z"/><path fill="#000000" opacity="1.00" d=" M 192.01 438.60 C 195.85 439.12 194.31 444.23 191.94 445.45 C 191.68 443.17 191.69 440.87 192.01 438.60 Z"/><path fill="#000000" opacity="1.00" d=" M 208.03 440.87 C 210.56 441.38 212.50 445.24 209.05 446.00 C 208.49 444.34 208.19 442.60 208.03 440.87 Z"/><path fill="#000000" opacity="1.00" d=" M 651.50 441.19 C 656.16 439.52 651.47 445.54 651.50 441.19 Z"/><path fill="#000000" opacity="1.00" d=" M 618.05 444.37 C 621.64 445.47 615.97 448.12 618.05 444.37 Z"/><path fill="#000000" opacity="1.00" d=" M 203.38 444.93 C 204.49 444.07 207.19 445.06 206.90 446.61 C 205.71 447.01 203.54 446.29 203.38 444.93 Z"/><path fill="#000000" opacity="1.00" d=" M 203.31 448.32 C 207.12 446.25 204.52 451.88 203.31 448.32 Z"/><path fill="#000000" opacity="1.00" d=" M 611.29 450.35 C 615.46 449.84 613.63 457.63 618.22 453.81 C 616.69 458.30 613.16 455.96 612.53 452.41 C 609.20 455.92 606.88 451.45 611.29 450.35 Z"/><path fill="#000000" opacity="1.00" d=" M 209.74 451.25 C 211.65 451.99 213.56 451.78 215.19 450.50 C 214.76 453.06 220.10 453.22 216.96 454.91 C 214.57 453.73 211.50 453.44 209.74 451.25 Z"/><path fill="#000000" opacity="1.00" d=" M 661.31 451.40 C 662.35 451.45 665.18 449.06 664.73 451.45 C 661.46 452.67 658.24 454.02 654.90 455.01 C 656.27 452.83 659.10 452.38 661.31 451.40 Z"/><path fill="#000000" opacity="1.00" d=" M 227.14 453.08 C 228.86 452.74 229.57 455.81 227.89 456.33 C 225.90 456.88 225.45 453.67 227.14 453.08 Z"/><path fill="#000000" opacity="1.00" d=" M 612.52 458.39 C 614.92 456.26 622.40 467.96 615.82 462.24 C 615.67 464.80 610.04 465.33 609.34 464.25 C 613.71 461.49 604.95 457.76 605.94 462.51 C 611.69 464.74 600.46 463.96 604.06 460.82 C 604.63 455.84 611.08 462.27 612.52 458.39 Z"/><path fill="#000000" opacity="1.00" d=" M 215.27 461.28 C 216.19 460.67 218.75 460.33 218.93 461.72 C 218.00 462.30 215.43 462.67 215.27 461.28 Z"/><path fill="#000000" opacity="1.00" d=" M 411.50 516.82 C 414.74 516.38 410.64 519.25 411.31 520.81 C 409.07 521.03 409.72 517.25 411.50 516.82 Z"/><path fill="#000000" opacity="1.00" d=" M 353.28 813.85 C 356.25 812.29 353.40 817.21 353.28 813.85 Z"/><path fill="#000000" opacity="1.00" d=" M 358.27 815.19 C 362.23 813.11 359.54 818.55 358.27 815.19 Z"/><path fill="#000000" opacity="1.00" d=" M 710.31 870.79 C 704.40 874.53 709.71 866.27 712.73 866.07 C 713.27 870.10 710.80 874.51 707.59 876.77 C 708.57 874.80 709.66 872.89 710.31 870.79 C 710.64 870.33 710.64 870.33 710.31 870.79 Z"/><path fill="#000000" opacity="1.00" d=" M 347.60 878.34 C 350.02 877.52 347.96 882.99 346.33 882.65 C 345.82 881.19 346.69 879.47 347.60 878.34 Z"/><path fill="#000000" opacity="1.00" d=" M 770.23 878.37 C 778.19 875.55 786.04 881.95 788.77 889.13 C 793.19 898.83 788.05 912.56 777.09 914.81 C 767.94 916.07 759.75 906.88 760.35 898.02 C 759.98 890.46 762.30 881.17 770.23 878.37 M 773.42 884.50 C 763.35 887.15 766.17 905.23 775.69 906.56 C 787.13 904.77 785.20 883.50 773.42 884.50 Z"/><path fill="#000000" opacity="1.00" d=" M 532.35 883.49 C 564.24 883.00 596.13 882.46 628.02 882.68 C 631.01 882.85 634.20 882.42 637.02 883.66 C 595.13 884.48 553.23 884.78 511.35 884.71 C 516.77 883.74 525.59 883.66 532.35 883.49 Z"/><path fill="#000000" opacity="1.00" d=" M 584.35 890.48 C 601.59 889.86 618.79 890.24 636.02 890.00 C 638.98 890.33 642.79 889.36 645.07 891.78 C 617.10 893.87 588.95 892.26 560.92 892.50 C 558.64 892.14 555.73 893.24 553.95 891.49 C 564.07 891.05 574.21 890.66 584.35 890.48 Z"/><path fill="#000000" opacity="1.00" d=" M 347.02 901.85 C 348.95 905.44 351.33 909.03 352.03 913.10 C 349.18 910.12 347.02 906.03 347.02 901.85 Z"/><path fill="#000000" opacity="1.00" d=" M 831.39 971.33 C 832.92 970.54 835.05 970.57 836.60 971.36 C 835.92 972.69 832.01 972.71 831.39 971.33 Z"/><path fill="#000000" opacity="1.00" d=" M 235.37 972.20 C 281.80 972.58 328.47 973.65 374.99 973.80 C 525.01 974.47 675.06 975.47 825.05 972.29 C 802.33 975.64 778.95 974.10 756.00 976.00 C 681.45 977.60 606.88 977.06 532.33 978.48 C 433.22 976.88 334.01 978.22 235.00 972.59 L 235.37 972.20 Z"/><path fill="#000000" opacity="1.00" d=" M 231.18 978.22 C 235.20 976.15 232.56 981.51 231.18 978.22 Z"/><path fill="#000000" opacity="1.00" d=" M 238.72 978.34 C 373.40 983.34 508.24 983.63 643.01 982.97 C 702.67 981.97 762.36 981.20 821.96 978.39 C 819.73 980.95 815.10 979.43 811.94 980.26 C 662.44 988.60 512.61 987.26 362.96 984.89 C 324.71 982.32 286.31 983.01 248.08 980.24 C 244.98 979.66 241.34 980.37 238.72 978.34 Z"/><path fill="#000000" opacity="1.00" d=" M 829.33 978.30 C 830.57 977.53 832.40 977.53 833.67 978.29 C 833.37 979.66 829.64 979.66 829.33 978.30 Z"/></g></svg>