<svg viewBox="0 0 100 100" version="1.1" xmlns="http://www.w3.org/2000/svg"><g transform="translate(5.493100266231082, 1) scale(0.10394679621124535) translate(-84.44, -39.97)"><path fill="#000000" opacity="1.00" d=" M 732.35 41.50 C 742.52 41.65 752.89 41.59 762.75 44.41 C 789.21 52.07 814.70 66.05 831.86 88.06 C 851.83 111.62 862.81 143.03 860.41 173.95 C 859.32 209.66 838.35 245.38 805.31 260.36 C 799.03 263.84 792.07 265.51 785.27 267.52 C 785.80 270.43 787.04 273.15 788.23 275.84 C 801.70 303.31 813.02 332.02 819.63 361.95 C 821.53 369.52 827.22 375.22 831.54 381.47 C 841.89 395.30 849.50 410.97 855.79 426.99 C 864.43 448.90 863.92 472.97 862.71 496.09 C 856.91 532.83 835.02 565.23 807.51 589.52 C 784.52 610.58 756.21 624.36 728.30 637.62 C 728.20 639.17 729.96 640.07 730.76 641.23 C 753.62 664.93 771.51 693.16 784.55 723.33 C 788.15 732.09 792.08 741.26 791.41 750.94 C 791.16 756.05 787.87 760.85 789.35 766.05 C 792.44 779.76 792.37 794.59 786.49 807.57 C 778.91 825.90 760.52 837.59 741.26 839.99 C 734.41 865.73 726.51 891.62 712.56 914.53 C 712.07 916.36 708.99 919.20 711.24 920.59 C 725.81 922.92 740.45 925.41 754.66 929.46 C 756.30 929.73 761.03 932.70 756.98 932.68 C 740.33 931.09 723.94 927.07 707.30 925.41 C 704.89 926.01 701.10 928.65 701.69 931.28 C 721.62 935.65 742.64 935.62 761.94 942.72 C 766.63 943.70 765.11 949.33 761.01 949.85 C 742.72 954.77 723.73 956.38 705.01 958.99 C 675.70 962.61 646.50 967.26 617.05 969.63 C 594.06 970.96 571.01 970.87 547.99 971.24 C 496.64 971.55 445.26 971.95 393.94 969.89 C 372.11 969.37 350.75 964.29 329.08 962.13 C 305.56 959.57 282.08 956.52 258.77 952.41 C 254.83 951.50 250.53 951.17 247.08 948.86 C 245.52 945.66 248.55 942.05 251.75 941.57 C 269.00 937.27 286.63 934.65 304.25 932.43 C 308.79 931.82 304.46 926.90 302.58 925.40 C 287.64 927.17 272.82 930.11 258.04 932.93 C 256.45 932.95 253.35 933.70 253.98 931.08 C 268.23 925.27 283.77 923.66 298.74 920.55 C 298.61 916.69 294.54 913.55 292.88 909.96 C 281.90 890.25 273.19 869.18 267.55 847.32 C 265.30 839.79 256.24 836.29 255.67 827.93 C 253.93 812.09 256.31 795.87 257.76 780.28 C 244.39 766.39 233.73 747.89 234.97 728.00 C 234.98 702.53 247.33 679.13 261.84 658.94 C 264.87 654.58 268.91 650.83 271.10 645.94 C 268.50 643.65 264.90 642.82 261.85 641.24 C 234.46 629.54 207.86 613.52 189.68 589.41 C 176.36 571.53 166.08 550.55 164.23 528.07 C 162.17 501.23 166.11 473.77 177.28 449.17 C 180.69 441.45 185.09 433.79 184.88 425.07 C 186.04 388.20 191.90 351.45 203.68 316.45 C 184.00 317.29 163.88 312.70 147.46 301.53 C 117.55 281.93 99.27 246.58 98.96 211.00 C 98.65 181.01 109.51 150.96 129.39 128.44 C 158.42 93.84 207.46 76.81 251.62 86.53 C 287.69 94.48 317.95 122.69 329.50 157.62 C 330.40 161.23 334.17 157.93 336.29 157.33 C 384.71 131.24 439.29 117.72 493.98 114.06 C 537.15 112.68 580.95 118.33 621.66 133.06 C 625.23 111.46 634.58 90.72 649.81 74.84 C 670.92 52.67 701.70 39.97 732.35 41.50 M 723.35 57.48 C 691.66 60.58 660.54 81.52 650.63 112.55 C 661.35 100.93 671.89 88.38 685.76 80.45 C 688.16 82.06 684.93 87.16 686.80 90.00 C 689.41 98.64 703.03 97.57 705.26 89.16 C 706.28 84.13 712.68 86.80 715.13 83.08 C 718.97 79.13 717.14 71.90 711.81 70.35 C 705.70 67.94 701.81 75.64 695.93 74.87 C 704.16 64.72 718.26 61.67 730.10 57.24 C 727.84 57.14 725.58 57.29 723.35 57.48 M 744.38 75.51 C 735.67 77.22 726.90 79.54 719.30 84.26 C 710.20 89.96 703.16 98.30 696.72 106.74 C 693.99 110.70 690.69 114.56 689.64 119.37 C 693.08 116.91 695.06 113.01 697.81 109.88 C 709.02 95.42 724.78 85.06 741.80 78.69 C 744.90 77.86 751.28 73.82 744.38 75.51 M 677.40 92.45 C 670.59 94.82 669.34 105.79 675.66 109.38 C 681.55 112.32 688.94 106.36 688.11 100.03 C 687.88 94.92 682.48 90.25 677.40 92.45 M 747.21 96.38 C 732.11 99.73 719.35 110.35 711.27 123.30 C 702.44 139.02 699.53 157.73 701.57 175.43 C 720.03 194.29 739.71 212.08 756.58 232.44 C 758.33 234.74 761.33 235.59 764.06 234.62 C 774.84 231.50 785.88 227.91 794.72 220.72 C 818.82 201.16 828.09 164.15 813.70 136.22 C 811.34 127.04 805.48 118.93 798.20 113.03 C 786.53 97.54 765.55 93.15 747.21 96.38 M 207.84 101.19 C 216.80 104.97 228.00 103.43 237.08 107.98 C 238.46 109.29 236.93 112.11 235.10 112.31 C 232.70 111.22 230.86 108.36 227.90 109.10 C 221.71 109.80 218.22 119.16 224.50 122.38 C 228.15 126.08 232.09 121.15 235.92 121.07 C 238.31 124.01 238.71 128.66 242.39 130.68 C 247.45 134.28 254.58 131.67 257.68 126.75 C 258.59 123.16 257.28 119.44 257.60 115.80 C 274.44 120.35 287.17 133.43 300.06 144.44 C 290.32 127.15 274.53 113.20 255.97 106.04 C 240.88 99.44 223.89 100.50 207.84 101.19 M 192.97 121.30 C 193.73 123.33 196.41 122.64 198.10 123.12 C 222.64 125.10 245.19 137.02 264.05 152.24 C 248.66 129.62 219.87 118.29 192.97 121.30 M 263.21 124.35 C 257.17 125.63 256.72 134.81 262.06 137.26 C 266.21 139.16 270.71 135.17 270.94 131.01 C 269.74 127.86 267.31 123.18 263.21 124.35 M 490.33 136.47 C 430.22 140.14 369.94 158.08 320.94 193.85 C 296.98 212.02 275.23 233.73 259.54 259.53 C 242.28 289.28 231.80 322.30 221.91 355.05 C 220.47 357.58 221.32 353.74 221.48 352.71 C 226.83 330.47 232.50 308.17 240.77 286.81 C 239.22 288.01 238.40 289.83 237.51 291.52 C 216.69 331.31 207.98 376.40 206.28 420.98 C 206.38 422.75 205.87 424.74 206.71 426.38 C 208.96 426.45 211.06 424.95 213.34 424.84 C 211.95 429.47 208.52 433.10 206.29 437.32 C 189.89 466.20 179.49 500.84 187.67 533.95 C 197.31 567.84 222.34 596.85 254.03 612.08 C 263.22 616.49 272.20 621.51 281.89 624.75 C 278.17 617.14 280.14 609.02 281.04 600.93 C 284.80 579.30 305.21 559.80 328.00 562.37 C 339.18 561.25 349.89 566.61 357.47 574.54 C 359.02 575.88 360.59 578.67 362.96 577.22 C 375.37 572.46 389.05 571.68 402.06 574.01 C 406.08 572.67 406.97 567.54 409.70 564.64 C 418.85 553.70 434.19 549.70 447.98 550.96 C 469.75 552.90 489.11 571.14 491.18 593.10 C 492.59 604.51 488.16 615.61 481.72 624.80 C 487.87 634.76 491.69 645.93 493.52 657.47 C 528.91 659.86 564.53 656.07 599.69 651.55 C 655.66 643.12 710.97 626.10 759.59 596.67 C 785.89 580.52 809.86 559.44 825.74 532.71 C 837.54 512.71 845.05 489.47 843.26 466.05 C 841.18 437.80 829.23 410.61 811.05 389.03 C 805.13 382.26 798.80 375.63 791.06 370.95 C 798.99 380.64 808.57 389.48 814.00 400.90 C 811.55 400.37 809.24 399.39 806.84 398.74 C 809.05 402.36 812.36 405.29 813.91 409.31 C 807.41 403.01 801.14 396.15 792.98 391.94 C 769.67 380.13 742.23 384.72 718.10 391.37 C 718.81 408.14 717.38 427.15 704.58 439.57 C 689.16 457.11 662.34 462.32 641.20 452.69 C 620.41 444.26 608.07 421.77 607.19 399.99 C 588.43 390.30 569.46 379.84 555.20 363.83 C 509.31 312.98 487.87 240.67 499.71 173.08 C 501.23 165.03 502.33 156.61 506.28 149.30 C 509.67 143.59 517.07 143.37 522.97 143.18 C 565.37 142.60 607.23 152.94 646.57 168.08 C 643.95 165.21 639.98 164.24 636.66 162.41 C 609.18 149.92 579.71 142.02 549.87 137.71 C 530.09 135.92 510.17 135.77 490.33 136.47 M 190.35 142.47 C 173.59 145.97 159.65 157.56 150.81 171.92 C 143.68 185.35 141.66 200.95 141.78 215.98 C 142.17 241.62 159.17 266.17 182.97 275.69 C 194.89 280.76 208.18 280.20 220.86 280.03 C 231.09 260.26 243.69 241.78 256.74 223.78 C 260.28 218.59 267.62 214.17 265.63 206.96 C 262.16 189.19 256.66 170.21 242.24 158.71 C 229.36 144.70 208.79 139.99 190.35 142.47 M 708.03 211.71 C 716.78 223.21 725.77 234.80 735.21 245.75 C 728.27 233.00 718.80 221.44 708.03 211.71 M 735.29 246.22 C 735.74 246.77 735.74 246.77 735.29 246.22 M 747.09 249.77 C 763.48 276.96 776.85 305.86 789.29 335.04 C 789.66 335.90 791.94 339.67 790.65 336.03 C 783.02 311.26 773.06 286.97 759.12 265.03 C 755.42 259.74 752.04 253.99 747.09 249.77 M 652.38 353.50 C 644.74 355.25 637.57 360.48 634.85 368.00 C 631.68 376.27 634.04 386.38 640.99 392.01 C 651.17 400.87 668.13 398.68 676.64 388.56 C 680.97 383.07 681.81 375.46 680.42 368.78 C 677.13 357.16 663.96 350.05 652.38 353.50 M 629.46 394.49 C 626.37 395.88 623.58 398.60 622.88 402.00 C 622.26 408.58 630.86 415.07 636.58 410.50 C 643.48 405.50 638.26 391.50 629.46 394.49 M 437.32 567.42 C 426.47 569.45 414.08 580.45 419.34 592.36 C 408.31 590.66 397.22 588.02 385.94 589.34 C 373.78 589.57 362.93 595.44 352.03 600.08 C 353.35 582.24 330.50 572.60 316.23 580.32 C 298.57 588.02 291.80 614.76 306.91 628.11 C 310.24 632.67 315.56 625.55 312.74 622.27 C 309.21 617.34 308.65 610.88 309.74 605.08 C 311.32 596.83 319.78 591.17 327.97 591.79 C 334.96 591.91 340.99 596.16 345.65 601.04 C 333.20 610.64 322.68 623.25 316.97 638.02 C 313.00 650.86 312.14 664.62 313.65 677.94 C 314.40 685.80 319.32 692.14 323.63 698.36 C 326.00 701.00 329.45 702.35 332.99 702.03 C 341.90 701.77 350.99 702.85 359.43 705.42 C 368.80 711.77 378.40 718.70 384.18 728.82 C 398.20 728.53 412.32 727.85 425.24 722.33 C 430.67 720.93 437.32 719.61 440.01 714.02 C 444.72 704.58 451.90 695.92 461.86 691.80 C 469.56 688.80 473.91 680.66 475.35 672.91 C 477.75 643.90 463.60 613.50 437.97 598.86 C 434.97 596.48 429.79 595.95 428.55 592.02 C 431.73 582.57 443.64 576.97 452.86 581.30 C 462.12 585.26 466.19 596.80 462.93 606.07 C 461.31 609.37 463.74 612.82 466.81 614.05 C 476.59 603.78 475.52 586.23 465.55 576.47 C 458.69 568.37 447.38 566.40 437.32 567.42 M 443.34 587.45 C 440.98 588.13 438.12 589.07 437.20 591.61 C 440.28 593.57 443.99 593.67 447.43 594.55 C 450.72 597.24 453.18 602.43 457.65 602.76 C 460.62 594.30 452.41 583.65 443.34 587.45 M 324.37 598.48 C 316.46 599.66 311.57 611.73 316.85 617.90 C 321.58 615.85 324.06 609.61 328.74 606.75 C 331.71 605.39 332.30 600.91 335.97 601.18 C 333.45 597.34 328.23 598.67 324.37 598.48 M 708.28 649.38 C 703.23 651.02 698.36 654.16 692.90 653.88 C 690.15 653.07 685.68 648.58 686.77 654.39 C 683.08 650.23 677.63 655.03 673.18 655.53 C 673.71 657.40 676.05 659.04 675.10 661.06 C 672.29 662.17 669.18 662.33 666.49 663.76 C 681.82 692.63 694.68 722.84 704.22 754.12 C 715.33 745.52 728.04 739.25 741.17 734.35 C 749.46 731.61 758.33 732.38 766.91 731.58 C 760.63 713.52 749.77 697.47 738.83 681.93 C 730.19 670.14 720.98 658.61 709.99 648.91 C 709.56 649.03 708.71 649.27 708.28 649.38 M 293.44 654.44 C 289.45 654.55 292.70 658.64 288.94 658.22 C 284.85 660.55 283.03 665.72 278.73 667.83 C 277.60 669.36 280.27 671.52 277.05 671.66 C 279.08 673.61 281.96 674.62 283.56 677.01 C 280.94 676.17 276.57 672.43 277.52 677.80 C 274.93 677.48 275.54 675.29 275.84 673.40 C 271.42 677.66 272.24 684.35 271.13 689.90 C 270.60 696.19 264.33 699.26 261.23 704.16 C 254.88 712.54 254.54 723.64 255.43 733.70 C 255.85 744.04 261.58 753.77 269.20 760.41 C 270.23 745.17 273.53 728.98 284.65 717.64 C 290.21 711.74 297.24 707.24 303.23 702.04 C 299.07 694.66 295.10 686.84 295.07 678.12 C 293.37 679.25 290.79 680.71 289.72 677.93 C 287.67 675.92 291.52 673.40 288.07 672.17 C 291.32 672.41 291.39 671.30 289.24 669.30 C 293.63 667.48 290.76 662.12 292.94 658.87 C 293.22 657.74 294.66 654.37 293.44 654.44 M 654.38 660.50 C 648.54 661.86 642.65 663.11 637.02 665.19 C 637.14 673.82 640.63 682.38 638.69 691.06 C 637.28 697.87 630.33 701.91 623.97 703.12 C 615.74 703.23 608.65 698.43 601.89 694.35 C 598.98 698.73 599.07 705.10 595.58 709.56 C 592.63 714.45 587.75 720.51 581.27 718.58 C 565.03 713.61 546.98 716.98 532.53 725.48 C 525.58 729.74 518.62 736.27 518.39 744.98 C 517.14 766.66 516.57 788.49 518.26 810.15 C 524.63 797.85 543.24 796.70 551.67 807.39 C 560.98 817.83 554.74 836.34 541.26 839.45 C 536.20 839.91 530.71 840.30 526.01 838.00 C 522.08 836.04 520.47 831.69 517.33 828.91 C 517.48 835.93 517.63 842.96 517.95 849.98 C 517.11 860.03 529.85 860.35 536.93 861.86 C 568.97 862.64 601.07 861.21 632.87 857.26 C 660.26 851.54 688.34 846.90 713.81 834.71 C 715.14 833.89 718.51 832.47 716.40 830.66 C 708.27 825.65 700.50 819.06 696.80 810.01 C 691.97 798.60 690.70 786.15 689.00 774.00 C 684.08 739.20 677.67 704.32 665.68 671.19 C 663.52 666.00 662.12 656.81 654.38 660.50 M 619.23 667.40 C 603.56 670.44 587.59 671.51 571.87 674.15 C 564.87 675.19 561.04 681.77 555.86 685.81 C 546.78 694.66 535.78 701.88 528.50 712.35 C 536.51 707.98 544.33 702.97 553.16 700.34 C 563.76 697.84 575.78 698.54 584.78 705.19 C 587.54 696.56 588.31 687.32 592.03 679.01 C 593.49 676.09 596.93 672.67 600.40 674.51 C 606.52 678.20 611.54 683.40 617.16 687.77 C 620.12 690.10 626.10 690.31 627.17 685.89 C 628.35 680.24 626.77 674.48 625.84 668.91 C 625.75 665.32 621.47 667.35 619.23 667.40 M 512.34 680.51 C 511.40 680.78 506.90 680.21 508.95 681.86 C 511.95 684.50 514.86 690.60 519.60 687.86 C 515.90 691.44 521.61 694.04 523.23 697.00 C 528.93 692.35 533.95 686.32 537.86 680.02 C 536.58 680.11 535.58 680.89 534.53 681.52 C 527.38 678.12 519.74 681.90 512.34 680.51 M 473.36 695.49 C 465.08 697.28 457.44 702.61 453.16 709.96 C 446.74 721.54 447.77 737.97 457.90 747.15 C 465.14 752.71 475.00 755.22 483.96 753.06 C 495.71 750.25 505.52 739.46 505.04 727.00 C 506.96 709.96 490.56 692.85 473.36 695.49 M 306.13 710.24 C 287.66 718.77 280.79 740.27 279.11 758.96 C 278.49 765.52 279.24 774.76 286.22 777.50 C 283.00 773.95 286.36 769.15 283.41 765.44 C 286.03 759.22 283.39 752.01 286.78 746.03 C 290.50 732.29 300.50 721.26 310.43 711.50 C 312.89 708.73 307.54 709.46 306.13 710.24 M 324.41 717.52 C 311.85 722.41 303.17 734.32 299.37 746.92 C 296.85 755.26 296.43 765.07 301.50 772.50 C 315.46 784.53 336.46 783.53 352.45 776.42 C 369.59 769.08 377.18 744.76 365.25 729.82 C 355.92 717.33 338.91 714.10 324.41 717.52 M 433.20 727.39 C 423.14 730.74 412.51 731.79 402.30 734.48 C 397.34 739.74 389.75 744.04 389.03 751.99 C 388.70 758.92 385.99 765.35 384.26 771.98 C 383.42 775.44 388.07 776.08 390.07 777.84 C 403.95 786.37 413.64 804.49 407.34 820.09 C 405.84 802.56 394.70 785.27 377.04 780.63 C 367.51 789.89 355.58 797.56 342.18 799.34 C 339.39 800.70 338.95 804.26 338.60 807.01 C 338.02 815.54 338.75 824.87 344.22 831.85 C 355.86 847.72 378.70 851.25 395.86 842.77 C 398.51 841.30 404.12 839.63 402.31 835.72 C 401.17 833.32 404.05 836.48 404.86 836.57 C 410.12 835.42 413.24 830.28 417.97 828.40 C 429.70 833.42 441.89 838.79 455.01 837.51 C 472.19 838.96 488.45 825.70 491.85 809.10 C 491.79 799.25 492.11 787.85 484.80 780.21 C 474.52 767.63 453.78 765.80 441.62 776.64 C 431.90 786.00 426.53 799.53 426.97 813.01 C 426.49 814.90 427.68 818.23 425.32 819.00 C 415.35 796.56 430.26 768.41 453.77 762.65 C 448.13 756.63 443.13 750.04 439.30 742.72 C 435.41 735.57 426.40 735.57 419.91 732.39 C 425.29 730.31 431.08 731.14 436.50 732.55 C 437.00 729.73 437.41 724.73 433.20 727.39 M 388.10 735.30 C 386.07 736.26 388.09 739.96 388.93 741.48 C 390.33 737.36 394.65 737.52 397.63 735.27 C 394.46 735.00 391.26 734.91 388.10 735.30 M 757.29 739.43 C 744.93 741.47 732.07 744.16 722.05 752.18 C 717.48 754.06 714.60 758.22 710.16 760.12 C 707.75 762.34 706.63 766.05 708.13 769.10 C 713.79 764.08 722.60 760.90 726.62 755.44 C 728.13 758.66 731.72 755.71 734.15 755.32 C 746.03 750.37 758.63 747.52 771.52 747.40 C 770.95 744.51 770.68 740.86 767.87 739.18 C 764.46 737.87 760.76 739.01 757.29 739.43 M 504.51 759.38 C 501.69 761.27 498.93 763.31 496.48 765.67 C 499.32 769.54 501.65 774.23 505.59 777.03 C 505.85 770.95 505.85 764.84 505.71 758.76 C 505.41 758.91 504.81 759.23 504.51 759.38 M 756.23 764.39 C 739.39 766.60 723.16 773.82 711.09 785.89 C 712.04 794.62 714.29 803.95 720.38 810.60 C 732.43 823.72 756.57 822.51 766.57 807.54 C 774.46 794.83 776.17 778.80 772.86 764.36 C 767.33 763.97 761.74 763.69 756.23 764.39 M 276.73 795.82 C 275.80 805.55 276.48 815.36 276.22 825.11 C 279.03 828.87 283.42 832.04 288.08 832.96 C 287.66 831.84 286.89 830.93 286.27 829.96 C 287.99 821.42 287.08 812.61 286.94 803.97 C 287.88 798.01 280.43 798.11 276.73 795.82 M 290.09 802.22 C 288.54 805.17 293.42 802.36 290.09 802.22 M 292.50 804.31 C 291.48 804.60 289.71 805.49 290.30 806.82 C 291.72 808.15 295.37 803.82 292.50 804.31 M 308.72 806.01 C 308.32 818.47 308.80 831.02 309.38 843.46 C 316.83 845.59 324.19 848.26 331.84 849.60 C 321.05 839.09 315.56 824.02 316.61 808.99 C 317.51 804.60 311.37 806.44 308.72 806.01 M 300.64 807.09 C 300.54 808.88 305.60 812.63 304.74 809.00 C 305.63 805.87 301.97 809.04 300.64 807.09 M 290.23 809.27 C 290.53 812.63 293.16 807.64 290.23 809.27 M 533.21 809.34 C 524.59 811.28 523.13 825.27 531.00 829.07 C 537.49 833.60 546.21 826.13 545.55 819.07 C 545.55 812.90 539.19 807.93 533.21 809.34 M 297.53 810.54 C 293.37 809.91 295.41 813.17 293.05 815.15 C 295.12 815.28 298.94 811.15 297.53 810.54 M 290.09 816.28 C 288.55 819.23 293.42 816.41 290.09 816.28 M 298.06 816.40 C 296.39 819.28 301.45 816.68 298.06 816.40 M 303.35 816.12 C 302.67 820.09 307.32 815.48 303.35 816.12 M 290.22 820.97 C 290.45 824.32 293.20 819.39 290.22 820.97 M 304.15 822.04 C 304.34 825.40 307.13 820.47 304.15 822.04 M 290.29 825.02 C 290.44 828.40 293.30 823.42 290.29 825.02 M 293.42 825.52 C 292.03 827.57 296.11 826.58 296.68 825.60 C 296.54 824.11 294.11 824.71 293.42 825.52 M 303.04 824.80 C 304.88 827.51 302.42 827.09 300.28 826.95 C 300.71 829.01 299.82 829.84 297.60 829.44 C 298.34 831.37 302.93 833.12 301.36 829.46 C 304.52 830.67 307.14 824.40 303.04 824.80 M 504.41 829.39 C 502.51 838.43 493.63 842.75 486.74 847.68 C 482.25 848.67 482.53 859.36 477.88 853.41 C 480.81 856.77 477.46 861.03 479.94 864.14 C 488.35 865.49 497.04 864.43 505.46 863.39 C 505.86 852.04 506.39 840.38 504.84 829.08 L 504.41 829.39 M 290.24 831.25 C 289.01 836.04 294.74 830.14 290.24 831.25 M 293.40 833.33 C 292.17 838.10 297.91 832.25 293.40 833.33 M 299.33 833.10 C 300.03 837.42 304.06 832.28 299.33 833.10 M 296.87 834.97 C 298.36 836.61 300.16 837.99 302.13 839.02 C 302.09 836.27 298.86 835.86 296.87 834.97 M 416.20 851.34 C 411.35 853.99 406.18 856.23 401.79 859.61 C 411.21 861.02 420.73 863.27 430.29 862.32 C 430.41 859.85 430.46 857.35 429.94 854.94 C 425.75 852.84 420.95 850.06 416.20 851.34 M 710.45 854.55 C 708.09 855.63 705.49 856.00 703.15 857.11 C 699.33 860.72 699.52 866.45 698.41 871.22 C 695.58 883.53 691.02 895.53 684.37 906.29 C 682.80 908.65 687.25 913.18 689.17 910.17 C 698.42 898.23 703.36 883.71 708.58 869.71 C 710.23 864.41 712.73 859.25 713.09 853.64 C 712.43 853.87 711.11 854.32 710.45 854.55 M 294.06 855.29 C 292.98 858.31 294.76 861.42 295.51 864.33 C 301.44 880.80 308.77 896.90 318.34 911.58 C 319.59 914.34 322.13 911.79 323.54 910.60 C 330.17 904.08 338.30 899.36 346.78 895.68 C 357.34 891.15 368.31 886.57 380.02 886.73 C 401.00 886.18 424.08 890.13 439.53 905.49 C 443.37 909.07 445.69 913.90 449.16 917.77 C 462.31 912.79 474.79 905.07 489.08 903.75 C 491.62 903.19 495.41 902.20 495.38 898.98 C 496.05 892.78 491.34 887.87 490.97 881.84 C 496.46 884.26 497.90 890.52 501.24 894.91 C 504.19 896.60 500.59 890.04 503.05 889.83 C 506.59 889.45 509.85 891.69 513.25 892.45 C 515.66 890.38 517.20 887.37 520.09 885.85 C 521.13 891.02 515.27 897.36 519.37 901.55 C 534.41 904.49 548.05 911.79 561.89 917.90 C 567.92 908.58 575.70 899.76 585.75 894.66 C 601.40 887.78 618.94 885.09 635.95 886.61 C 651.81 889.38 666.90 896.00 680.43 904.60 C 682.86 905.38 683.56 902.11 684.61 900.61 C 690.74 887.38 694.67 873.26 698.87 859.33 C 686.05 862.76 672.90 864.61 659.92 867.28 C 648.57 870.61 636.66 870.93 624.96 872.09 C 591.57 876.75 557.61 878.37 523.98 875.52 C 519.38 874.77 516.50 879.69 511.92 879.28 C 476.58 880.55 441.19 879.24 405.93 876.84 C 385.62 873.29 364.72 873.66 344.70 868.44 C 333.09 866.87 321.71 863.78 310.15 862.10 C 312.92 875.95 320.62 888.11 325.71 901.13 C 326.25 902.83 327.70 905.99 325.01 906.69 C 323.11 905.53 322.65 903.12 321.64 901.29 C 316.35 888.86 311.05 876.37 307.54 863.30 C 306.03 857.30 298.38 858.26 294.06 855.29 M 437.16 857.04 C 433.43 859.50 440.18 859.07 437.16 857.04 M 473.46 857.07 C 472.33 857.96 473.18 861.12 474.80 859.88 C 475.87 858.96 475.07 855.75 473.46 857.07 M 452.22 858.03 C 452.22 861.42 455.24 856.51 452.22 858.03 M 463.37 859.17 C 459.50 862.68 468.39 859.39 463.37 859.17 M 467.37 859.48 C 465.03 859.91 469.12 863.09 466.08 862.34 C 461.38 862.42 466.89 864.44 468.80 863.83 C 467.30 862.60 469.41 859.44 467.37 859.48 M 458.12 860.27 C 457.17 865.20 462.20 861.55 458.12 860.27 M 381.34 902.47 C 363.33 903.37 345.50 914.27 338.40 930.99 C 343.05 937.76 351.03 941.35 358.38 944.51 C 376.43 952.41 396.65 953.80 416.04 951.68 C 424.44 950.76 432.77 946.25 437.20 938.94 C 439.08 932.62 435.41 926.26 431.58 921.46 C 419.69 906.71 399.77 900.66 381.34 902.47 M 614.28 902.41 C 597.11 904.18 579.18 914.28 573.46 931.36 C 571.11 938.11 575.87 944.57 581.85 947.26 C 593.53 954.88 607.95 952.31 621.06 951.89 C 640.07 950.96 659.40 943.62 672.82 929.89 C 666.29 920.01 657.50 910.97 646.26 906.60 C 636.14 902.72 625.06 901.20 614.28 902.41 M 500.34 922.45 C 493.54 923.97 486.57 926.51 480.94 930.56 C 496.97 929.68 513.05 929.56 529.10 929.40 C 520.87 923.77 510.39 920.76 500.34 922.45 Z"/><path fill="#000000" opacity="1.00" d=" M 427.62 155.58 C 428.28 155.46 429.60 155.20 430.26 155.08 C 425.79 157.71 420.54 159.11 415.45 160.07 C 418.67 157.24 423.62 157.05 427.62 155.58 Z"/><path fill="#000000" opacity="1.00" d=" M 410.37 161.10 C 413.44 160.76 410.17 163.76 408.69 163.10 C 406.88 162.48 409.52 161.02 410.37 161.10 Z"/><path fill="#000000" opacity="1.00" d=" M 209.05 171.39 C 212.41 171.46 207.53 174.37 209.05 171.39 Z"/><path fill="#000000" opacity="1.00" d=" M 880.30 280.38 C 888.19 280.72 891.11 290.69 893.33 297.06 C 894.51 303.98 902.95 303.54 908.00 306.10 C 912.58 307.71 919.08 311.62 916.47 317.41 C 911.69 324.77 901.66 324.36 895.02 329.04 C 891.24 333.35 892.11 339.95 888.30 344.31 C 886.04 347.73 880.79 349.54 877.55 346.39 C 872.73 341.40 872.42 333.88 868.79 328.22 C 863.21 325.00 856.43 324.51 851.04 320.90 C 847.24 318.47 846.80 312.14 850.43 309.37 C 855.89 305.27 863.11 304.90 869.11 302.09 C 872.33 294.79 872.46 284.52 880.30 280.38 Z"/><path fill="#000000" opacity="1.00" d=" M 331.33 287.44 C 337.05 284.93 345.84 289.01 343.76 296.10 C 340.33 305.14 331.45 311.30 322.66 314.56 C 317.92 316.74 310.72 314.12 311.67 308.05 C 313.69 298.27 321.89 290.28 331.33 287.44 Z"/><path fill="#000000" opacity="1.00" d=" M 128.46 345.50 C 132.91 343.73 138.75 345.38 140.78 349.94 C 144.58 357.10 135.52 367.40 128.15 362.77 C 120.99 359.77 121.11 348.17 128.46 345.50 Z"/><path fill="#000000" opacity="1.00" d=" M 350.31 374.46 C 367.55 372.00 385.62 378.89 397.10 391.92 C 411.00 406.97 415.56 429.69 408.90 449.02 C 402.17 470.62 381.24 486.23 358.94 488.17 C 332.36 489.86 306.94 469.07 302.33 443.04 C 301.25 433.74 301.82 424.24 303.70 415.08 C 309.13 393.78 328.53 377.07 350.31 374.46 M 353.33 385.48 C 339.38 385.64 327.36 400.13 331.33 413.87 C 334.83 426.89 350.93 433.15 362.88 427.75 C 373.88 423.77 381.20 410.08 376.22 399.00 C 372.82 389.88 362.75 384.73 353.33 385.48 M 326.43 426.47 C 320.47 429.04 320.23 439.41 326.70 441.48 C 332.08 443.41 337.43 437.62 336.55 432.40 C 335.54 428.19 330.72 424.65 326.43 426.47 Z"/><path fill="#000000" opacity="1.00" d=" M 216.27 382.26 C 216.77 382.77 216.77 382.77 216.27 382.26 Z"/><path fill="#000000" opacity="1.00" d=" M 901.11 396.26 C 908.06 392.96 916.41 400.80 914.10 407.98 C 912.63 414.08 904.58 417.48 899.42 413.61 C 893.15 409.61 894.55 399.18 901.11 396.26 Z"/><path fill="#000000" opacity="1.00" d=" M 824.30 422.28 C 824.74 422.80 824.74 422.80 824.30 422.28 Z"/><path fill="#000000" opacity="1.00" d=" M 824.75 423.22 C 827.37 425.88 828.07 429.95 829.06 433.47 C 826.77 430.50 825.82 426.74 824.75 423.22 Z"/><path fill="#000000" opacity="1.00" d=" M 240.31 428.45 C 241.67 428.36 246.31 427.02 243.49 429.44 C 231.19 437.04 219.06 445.71 210.34 457.45 C 204.92 464.73 202.38 473.77 196.65 480.79 C 194.58 481.08 195.65 478.23 195.70 477.08 C 199.58 461.64 206.49 446.72 216.87 434.57 C 217.12 435.27 217.62 436.66 217.87 437.36 C 225.20 434.06 232.32 430.02 240.31 428.45 Z"/><path fill="#000000" opacity="1.00" d=" M 511.32 449.45 C 518.67 449.05 526.39 449.52 533.11 452.78 C 539.57 456.01 544.58 463.46 542.68 470.85 C 540.56 478.46 533.71 483.65 526.72 486.60 C 514.43 491.72 499.07 492.37 488.12 483.82 C 482.19 479.84 479.22 471.60 482.74 465.08 C 488.08 454.71 500.33 450.32 511.32 449.45 M 508.25 456.40 C 504.24 457.56 497.84 458.63 497.28 463.67 C 503.79 466.97 511.70 465.80 518.64 464.53 C 521.02 463.93 525.78 462.29 524.25 459.03 C 520.22 454.76 513.51 455.61 508.25 456.40 Z"/><path fill="#000000" opacity="1.00" d=" M 104.23 473.21 C 111.16 470.35 113.00 479.82 116.26 483.72 C 120.39 484.44 126.87 484.41 127.37 489.99 C 126.63 495.55 119.95 496.18 116.44 499.35 C 115.72 503.89 113.46 509.61 108.00 509.65 C 102.24 509.00 103.94 499.45 98.09 499.17 C 94.25 499.17 89.90 497.45 88.30 493.77 C 88.55 487.89 95.82 487.48 99.21 484.11 C 100.98 480.55 100.73 475.77 104.23 473.21 Z"/><path fill="#000000" opacity="1.00" d=" M 558.37 495.44 C 561.11 494.17 565.10 494.97 566.26 498.06 C 571.24 512.79 558.68 530.10 543.05 529.71 C 533.56 531.07 524.06 527.51 517.76 520.33 C 512.19 529.06 503.01 536.97 492.00 536.18 C 478.85 536.91 466.91 525.82 465.48 513.00 C 465.15 508.99 470.97 503.76 474.20 507.80 C 477.71 512.05 478.90 518.11 483.71 521.32 C 491.03 526.15 501.97 522.80 505.85 515.04 C 508.81 510.18 508.31 504.29 509.92 499.03 C 510.92 494.89 517.83 494.70 519.40 498.51 C 523.25 505.60 526.29 514.68 534.69 517.53 C 543.17 519.62 553.03 513.81 554.71 505.06 C 555.65 501.83 555.39 497.63 558.37 495.44 Z"/><path fill="#000000" opacity="1.00" d=" M 893.32 588.40 C 897.15 587.06 900.92 590.10 902.63 593.33 C 906.55 601.47 907.95 610.56 911.00 618.98 C 919.49 622.33 929.18 623.58 936.39 629.63 C 940.23 632.65 940.78 639.52 936.50 642.37 C 928.31 647.75 917.96 647.30 909.20 651.20 C 904.56 659.08 904.55 669.70 897.06 675.93 C 893.36 679.40 886.99 677.59 885.13 673.04 C 880.35 665.63 881.09 655.89 876.13 648.76 C 868.18 646.46 859.45 645.29 852.49 640.42 C 848.29 637.60 847.83 630.95 851.76 627.71 C 858.89 621.71 868.84 621.97 876.98 618.16 C 883.53 609.20 881.69 593.45 893.32 588.40 Z"/><path fill="#000000" opacity="1.00" d=" M 123.34 596.41 C 126.20 595.21 129.31 596.63 131.34 598.70 C 137.95 605.35 139.46 615.10 144.14 622.87 C 152.31 627.92 163.95 624.61 171.19 631.83 C 174.06 634.48 173.17 639.04 170.58 641.55 C 164.80 647.52 156.45 649.67 149.19 653.23 C 146.23 654.65 144.46 657.80 144.48 661.04 C 144.32 668.56 143.52 677.20 137.56 682.56 C 134.42 685.37 129.46 684.10 127.04 680.97 C 121.98 674.50 118.78 666.83 115.49 659.39 C 105.91 654.14 87.94 659.17 84.44 645.65 C 87.20 633.57 102.91 633.76 111.46 627.44 C 115.40 617.36 113.35 603.14 123.34 596.41 Z"/><path fill="#000000" opacity="1.00" d=" M 432.23 646.36 C 444.99 642.44 454.93 661.90 445.84 670.84 C 440.68 676.02 430.76 675.48 427.23 668.68 C 421.81 661.80 423.07 649.27 432.23 646.36 Z"/><path fill="#000000" opacity="1.00" d=" M 682.16 654.24 C 685.51 656.54 678.71 656.43 682.16 654.24 Z"/><path fill="#000000" opacity="1.00" d=" M 679.33 655.10 C 681.08 655.72 678.61 658.59 677.30 657.83 C 676.75 656.60 678.24 655.36 679.33 655.10 Z"/><path fill="#000000" opacity="1.00" d=" M 355.47 656.50 C 365.72 652.31 374.62 664.78 372.37 674.14 C 370.92 682.32 360.64 689.15 353.10 683.82 C 345.09 677.22 344.86 660.72 355.47 656.50 Z"/><path fill="#000000" opacity="1.00" d=" M 456.40 658.52 C 460.34 655.76 463.09 663.59 458.68 664.62 C 454.64 666.48 453.49 660.35 456.40 658.52 Z"/><path fill="#000000" opacity="1.00" d=" M 398.24 662.38 C 403.83 661.20 411.78 661.80 414.08 668.03 C 415.75 673.77 410.24 677.52 406.25 680.38 C 405.83 684.70 411.82 686.64 414.50 683.47 C 418.47 680.26 417.12 687.48 415.08 689.00 C 412.05 693.13 406.86 691.06 403.25 689.04 C 400.61 695.91 390.57 693.97 389.46 687.30 C 390.29 682.64 395.22 690.67 397.33 687.29 C 398.49 685.38 401.06 680.97 397.21 680.63 C 393.23 679.68 388.32 678.22 386.83 673.95 C 386.04 667.45 392.56 663.20 398.24 662.38 Z"/><path fill="#000000" opacity="1.00" d=" M 280.40 668.17 C 282.46 667.50 284.13 670.88 281.81 671.72 C 280.47 671.43 280.11 669.29 280.40 668.17 Z"/><path fill="#000000" opacity="1.00" d=" M 451.33 668.32 C 455.29 666.49 458.15 672.56 453.95 674.11 C 450.09 676.29 447.61 669.81 451.33 668.32 Z"/><path fill="#000000" opacity="1.00" d=" M 336.03 671.97 C 339.54 669.89 343.95 674.92 341.08 678.03 C 338.17 682.29 332.56 674.80 336.03 671.97 Z"/><path fill="#000000" opacity="1.00" d=" M 285.28 677.23 C 289.15 674.92 286.25 680.66 284.07 680.95 C 284.33 679.68 284.22 678.16 285.28 677.23 Z"/><path fill="#000000" opacity="1.00" d=" M 280.18 678.98 C 283.36 680.81 276.55 681.62 280.18 678.98 Z"/><path fill="#000000" opacity="1.00" d=" M 346.15 682.23 C 351.85 682.28 350.94 689.15 345.88 689.60 C 341.81 688.20 342.62 683.67 346.15 682.23 Z"/><path fill="#000000" opacity="1.00" d=" M 276.27 684.29 C 276.69 684.70 276.69 684.70 276.27 684.29 Z"/><path fill="#000000" opacity="1.00" d=" M 528.98 686.46 C 532.34 686.62 527.35 689.42 528.98 686.46 Z"/><path fill="#000000" opacity="1.00" d=" M 521.56 690.58 C 521.70 690.72 521.70 690.72 521.56 690.58 Z"/><path fill="#000000" opacity="1.00" d=" M 533.35 728.47 C 539.18 728.15 545.99 727.15 550.88 731.15 C 560.12 738.71 560.13 755.27 550.20 762.26 C 542.27 768.07 530.22 766.56 523.67 759.37 C 515.60 749.39 520.58 731.62 533.35 728.47 M 535.28 736.38 C 527.39 739.08 527.36 750.91 534.42 754.61 C 540.47 759.36 548.24 751.42 547.18 745.05 C 547.25 739.16 541.01 733.97 535.28 736.38 Z"/><path fill="#000000" opacity="1.00" d=" M 831.12 735.28 C 838.63 733.83 844.98 743.45 841.10 749.97 C 838.13 755.67 829.26 756.91 825.29 751.61 C 821.18 745.77 824.12 737.12 831.12 735.28 Z"/><path fill="#000000" opacity="1.00" d=" M 536.35 742.34 C 539.99 740.87 542.74 747.35 538.55 748.52 C 534.32 750.65 533.11 744.05 536.35 742.34 Z"/><path fill="#000000" opacity="1.00" d=" M 281.04 757.42 C 284.79 758.52 279.22 761.09 281.04 757.42 Z"/><path fill="#000000" opacity="1.00" d=" M 455.36 783.48 C 468.51 780.07 482.29 790.70 483.10 804.05 C 483.40 813.67 479.71 823.84 471.04 828.69 C 467.83 829.40 465.44 831.74 462.64 833.27 C 459.21 832.14 455.63 833.32 452.17 832.74 C 441.50 830.91 434.43 819.46 435.90 809.02 C 435.74 797.43 444.14 786.30 455.36 783.48 M 458.22 788.37 C 443.17 790.73 435.48 811.19 445.06 822.84 C 448.88 825.63 453.95 827.34 458.55 827.04 C 458.96 824.78 459.68 825.09 460.59 826.77 C 472.53 825.28 482.16 811.01 476.46 799.67 C 473.71 792.47 465.87 787.67 458.22 788.37 Z"/><path fill="#000000" opacity="1.00" d=" M 367.14 793.31 C 385.33 788.55 404.43 809.03 397.59 826.79 C 396.42 828.53 399.52 829.81 396.96 830.95 C 394.22 832.19 395.77 836.76 392.06 836.11 C 392.02 836.84 391.93 838.28 391.89 839.01 C 389.57 836.61 387.46 839.41 385.14 840.25 C 380.00 842.41 374.14 841.63 369.22 842.85 C 369.04 840.71 367.71 840.96 366.14 841.59 C 365.56 839.83 364.25 840.06 362.82 840.62 C 360.69 836.87 356.70 834.72 353.58 831.87 C 351.19 824.33 349.42 816.14 351.42 808.30 C 354.28 801.49 359.80 795.26 367.14 793.31 M 372.35 798.47 C 360.51 798.83 352.50 812.47 356.55 823.27 C 359.23 832.64 369.89 837.74 379.06 836.90 C 383.14 834.20 390.91 833.68 391.50 827.45 C 399.02 815.07 386.95 796.37 372.35 798.47 Z"/><path fill="#000000" opacity="1.00" d=" M 456.10 800.18 C 460.02 798.99 455.06 804.27 456.10 800.18 Z"/><path fill="#000000" opacity="1.00" d=" M 456.37 810.01 C 459.26 808.33 456.67 813.40 456.37 810.01 Z"/><path fill="#000000" opacity="1.00" d=" M 472.18 813.33 C 475.52 813.49 470.66 816.31 472.18 813.33 Z"/><path fill="#000000" opacity="1.00" d=" M 535.50 816.48 C 540.32 814.99 541.18 823.63 536.04 823.07 C 531.03 824.36 531.43 817.09 535.50 816.48 Z"/><path fill="#000000" opacity="1.00" d=" M 398.25 836.17 C 402.30 835.67 397.90 840.06 398.25 836.17 Z"/><path fill="#000000" opacity="1.00" d=" M 388.40 841.04 C 391.39 839.46 388.47 844.42 388.40 841.04 Z"/><path fill="#000000" opacity="1.00" d=" M 498.18 841.16 C 501.32 843.44 494.62 843.43 498.18 841.16 Z"/><path fill="#000000" opacity="1.00" d=" M 478.37 900.47 C 479.97 900.09 483.19 899.24 483.08 901.87 C 479.99 903.74 476.30 904.37 472.73 904.30 C 473.46 901.89 476.29 901.23 478.37 900.47 Z"/><path fill="#000000" opacity="1.00" d=" M 532.95 900.80 C 535.60 900.15 538.28 902.05 540.19 903.77 C 537.78 903.71 533.22 903.96 532.95 900.80 Z"/><path fill="#000000" opacity="1.00" d=" M 544.89 905.11 C 547.85 906.14 551.14 907.19 553.01 909.91 C 549.79 909.69 546.84 907.57 544.89 905.11 Z"/><path fill="#000000" opacity="1.00" d=" M 461.26 906.35 C 462.85 905.81 464.67 908.91 462.92 909.75 C 461.58 909.52 460.74 907.52 461.26 906.35 Z"/><path fill="#000000" opacity="1.00" d=" M 590.27 947.27 C 590.76 947.77 590.76 947.77 590.27 947.27 Z"/><path fill="#000000" opacity="1.00" d=" M 598.30 948.00 C 601.22 946.44 598.41 951.36 598.30 948.00 Z"/><path fill="#000000" opacity="1.00" d=" M 244.76 955.83 C 290.53 964.80 337.42 970.18 384.01 974.56 C 463.29 980.06 542.82 975.62 622.20 977.44 C 619.89 979.10 616.89 978.88 614.23 979.39 C 596.55 981.26 578.77 982.01 561.00 982.18 C 516.00 982.76 470.99 982.55 425.99 981.93 C 405.25 981.66 384.58 979.72 363.94 977.87 C 325.67 974.37 287.20 970.24 250.03 960.09 C 248.15 959.18 243.29 958.78 244.76 955.83 Z"/><path fill="#000000" opacity="1.00" d=" M 760.31 956.45 C 763.01 956.01 765.74 955.42 768.50 955.75 C 766.29 959.69 760.80 959.86 756.92 961.36 C 721.21 970.09 684.52 973.93 647.96 977.11 C 645.96 977.04 641.69 978.21 642.04 974.96 C 642.93 973.74 644.25 972.90 645.69 972.49 C 684.04 968.48 722.32 963.18 760.31 956.45 Z"/></g></svg>