<?xml version="1.0" encoding="UTF-8" ?>
<!DOCTYPE svg PUBLIC "-//W3C//DTD SVG 1.1//EN" "http://www.w3.org/Graphics/SVG/1.1/DTD/svg11.dtd">
<svg width="1024pt" height="1024pt" viewBox="0 0 1024 1024" version="1.1" xmlns="http://www.w3.org/2000/svg">
<g id="#000000ff">
<path fill="#000000" opacity="1.00" d=" M 508.37 75.49 C 520.80 73.66 534.06 79.46 540.83 90.11 C 542.53 92.46 543.59 95.42 546.00 97.18 C 561.02 99.02 574.12 112.69 574.29 128.03 C 574.84 142.36 564.99 156.55 550.96 160.21 C 557.15 175.65 565.58 190.12 572.96 205.02 C 598.79 255.61 624.21 306.40 649.95 357.03 C 652.66 361.71 654.56 366.99 658.01 371.18 C 668.98 337.28 696.64 307.71 731.36 297.49 C 746.40 292.71 762.36 291.62 778.05 292.11 C 814.44 293.53 849.08 312.00 872.56 339.49 C 906.11 377.76 917.29 435.36 896.41 482.37 C 883.46 509.60 859.91 532.48 831.03 542.04 C 829.70 542.56 827.36 543.45 828.62 545.24 C 840.71 572.04 850.31 600.43 852.75 629.89 C 854.21 637.13 859.82 642.54 862.80 649.15 C 895.51 710.64 881.36 790.51 835.73 841.70 C 816.14 865.68 789.21 882.02 761.98 895.95 C 759.67 896.72 759.09 899.19 758.21 901.18 C 750.54 920.77 735.04 937.77 714.98 944.90 C 696.21 952.23 673.45 949.26 658.18 935.76 C 655.96 934.15 654.25 931.58 651.76 930.53 C 560.07 940.96 467.13 940.71 375.44 930.43 C 367.32 937.89 358.13 944.67 347.21 947.35 C 331.15 950.89 313.53 948.39 299.68 939.27 C 285.82 930.43 275.95 916.57 269.19 901.80 C 267.29 897.08 262.31 895.07 258.16 892.79 C 230.64 878.58 205.14 859.60 186.04 835.01 C 162.41 804.20 146.47 766.28 146.96 727.00 C 145.87 698.22 151.51 668.64 167.21 644.14 C 170.31 638.69 174.63 633.50 175.02 626.99 C 177.27 599.38 186.50 572.89 197.75 547.76 C 198.36 546.01 200.53 542.90 197.23 542.66 C 158.04 531.01 130.06 494.34 122.61 455.00 C 115.89 418.56 125.24 379.74 146.48 349.54 C 166.84 321.90 196.88 300.65 230.90 294.13 C 255.88 290.04 282.23 291.28 305.75 301.24 C 329.25 311.55 350.12 329.08 361.47 352.41 C 365.03 358.16 366.54 365.77 370.44 370.78 C 401.42 307.75 433.85 245.45 466.04 183.03 C 469.66 175.69 473.74 168.56 476.96 161.04 C 469.12 157.39 461.04 152.97 456.82 145.01 C 447.67 129.91 453.99 107.65 470.39 100.51 C 474.31 98.16 479.70 99.15 483.15 96.14 C 486.80 85.21 496.99 77.04 508.37 75.49 M 509.15 96.18 C 503.60 99.19 499.82 105.59 500.39 111.97 C 500.56 115.51 502.46 118.79 502.19 122.36 C 496.70 119.95 491.48 115.63 485.05 116.37 C 475.97 116.85 469.88 129.29 475.52 136.57 C 480.22 143.59 491.14 144.99 497.63 139.71 C 499.29 138.48 500.79 136.61 503.10 136.91 C 502.45 142.03 499.10 146.60 499.79 151.98 C 499.18 161.41 510.46 169.23 518.99 165.07 C 525.26 162.12 528.50 154.55 526.86 147.89 C 526.61 144.14 523.79 140.90 524.20 137.13 C 529.92 140.49 536.31 144.35 543.36 142.54 C 554.20 141.08 556.94 124.63 548.05 118.93 C 541.04 112.25 531.78 118.45 524.95 121.94 C 524.78 117.39 527.64 112.61 526.39 107.78 C 525.62 99.72 517.06 93.27 509.15 96.18 M 494.57 179.24 C 457.81 253.70 420.08 327.71 385.15 403.06 C 384.61 405.34 381.02 409.24 384.39 410.53 C 398.75 417.11 413.51 423.11 429.07 426.12 C 467.77 434.68 507.73 434.76 547.08 431.87 C 569.54 428.92 590.33 418.99 609.72 407.74 C 618.68 402.35 627.82 397.03 635.65 390.05 C 628.20 374.30 620.47 358.69 612.87 343.02 C 612.50 342.39 611.85 340.71 610.93 341.74 C 601.68 347.55 591.72 352.08 581.96 356.91 C 540.23 376.92 498.23 396.38 455.74 414.71 C 450.16 416.89 444.77 419.63 439.02 421.30 C 424.52 416.94 410.07 412.29 395.98 406.74 C 401.29 394.08 407.45 381.76 413.35 369.36 C 415.32 364.51 420.71 362.95 424.97 360.77 C 447.62 350.81 470.35 340.99 493.01 331.04 C 523.75 317.25 555.13 304.61 584.70 288.41 C 581.30 277.34 575.34 267.13 570.47 256.61 C 567.64 251.46 565.56 245.76 561.69 241.28 C 539.03 252.30 516.06 262.67 493.17 273.20 C 479.51 279.13 466.23 286.17 452.07 290.79 C 452.04 288.22 453.57 285.96 454.45 283.62 C 464.07 262.43 474.31 241.52 484.72 220.71 C 486.87 217.08 488.30 212.57 492.01 210.22 C 506.67 203.25 522.12 197.53 535.80 188.72 C 535.14 185.24 533.67 181.93 531.88 178.89 C 525.32 185.20 515.56 187.33 506.71 185.46 C 502.27 184.18 498.85 180.75 494.57 179.24 M 247.35 319.50 C 206.55 323.20 170.06 352.27 154.96 389.98 C 145.45 415.76 143.64 445.51 155.19 470.95 C 160.34 483.15 169.66 492.90 179.27 501.73 C 188.21 510.28 200.17 514.83 211.98 517.73 C 216.52 519.06 219.60 514.62 221.13 511.04 C 199.25 502.48 183.31 482.33 177.02 460.04 C 171.43 439.69 173.66 417.46 182.54 398.38 C 194.14 372.68 218.10 352.53 245.94 347.07 C 256.18 345.23 266.71 345.22 277.01 346.64 C 304.15 350.04 327.66 369.72 338.68 394.33 C 340.75 399.49 346.62 393.75 350.22 392.94 C 349.73 387.23 346.82 381.70 344.64 376.34 C 329.40 338.79 287.29 315.25 247.35 319.50 M 763.33 319.48 C 722.60 320.60 684.40 352.63 677.82 393.09 C 681.12 394.75 684.70 396.43 688.43 396.62 C 694.99 377.46 710.69 362.64 728.36 353.50 C 746.34 344.49 767.66 343.48 786.99 348.22 C 821.11 357.26 847.19 388.49 852.25 423.11 C 856.30 446.80 849.79 471.96 834.70 490.65 C 827.18 499.77 816.51 505.31 806.36 510.87 C 807.95 513.76 808.78 519.79 813.34 518.53 C 842.29 513.42 865.19 489.85 875.30 463.06 C 881.71 445.40 880.93 425.95 877.40 407.76 C 870.13 373.21 845.44 343.04 813.35 328.47 C 797.79 321.22 780.39 318.62 763.33 319.48 M 255.32 364.47 C 224.63 366.16 199.17 392.53 193.94 422.04 C 190.13 442.07 194.00 464.57 207.96 480.03 C 213.57 485.87 220.01 491.03 227.10 494.94 C 229.65 496.72 230.98 492.90 232.52 491.46 C 255.99 456.59 287.06 426.33 323.94 405.95 C 320.08 397.92 315.85 389.86 309.53 383.46 C 295.71 369.17 275.09 361.69 255.32 364.47 M 755.31 364.44 C 732.30 366.66 710.23 384.00 704.36 406.52 C 726.75 419.68 747.79 435.42 765.20 454.80 C 776.38 466.77 787.45 479.04 796.13 493.00 C 796.92 493.89 797.48 495.35 798.85 495.47 C 820.40 485.52 834.65 462.66 834.96 439.02 C 836.53 409.78 818.28 381.19 791.69 369.35 C 780.38 364.03 767.57 363.38 755.31 364.44 M 420.25 449.24 C 405.34 464.94 391.25 481.70 373.91 494.88 C 360.52 505.22 345.03 512.39 329.29 518.36 C 308.06 526.35 287.13 537.77 273.28 556.26 C 263.36 568.72 258.50 584.27 248.81 596.85 C 237.49 611.35 218.98 617.17 201.77 621.17 C 201.44 626.57 202.02 632.08 200.50 637.35 C 197.71 647.52 190.66 655.68 186.10 665.04 C 177.55 682.68 173.51 702.40 173.94 721.99 C 173.26 757.02 186.06 791.88 208.16 818.92 C 223.43 837.71 243.31 852.01 263.84 864.50 C 264.72 855.80 264.58 845.79 271.04 839.05 C 275.45 834.18 285.17 835.75 287.19 842.07 C 289.16 857.57 286.29 873.69 291.28 888.79 C 296.34 904.66 309.34 918.44 325.78 922.39 C 336.30 924.11 348.07 921.61 355.45 913.46 C 366.57 903.44 368.54 887.01 365.98 873.00 C 365.25 868.14 362.99 862.53 366.17 858.11 C 370.55 851.49 382.03 852.58 385.21 859.81 C 392.50 873.20 390.28 889.35 389.51 903.47 C 472.14 912.01 555.76 912.28 638.34 903.21 C 637.42 892.42 635.56 881.36 638.55 870.68 C 640.18 864.56 642.51 857.73 648.22 854.25 C 653.20 851.67 659.64 855.20 661.82 859.98 C 662.53 867.34 660.33 874.62 660.38 881.99 C 659.99 894.06 663.93 906.75 672.85 915.19 C 683.02 923.93 698.50 925.44 710.40 919.42 C 724.24 912.62 733.37 898.61 737.05 883.96 C 739.94 869.81 738.23 855.22 740.08 840.98 C 742.55 834.07 753.13 834.56 757.16 839.88 C 763.43 846.25 761.59 855.87 764.17 863.67 C 787.85 850.74 808.59 832.44 824.97 811.01 C 838.09 791.51 849.06 769.77 851.79 746.13 C 855.27 718.50 853.58 689.29 840.91 664.03 C 836.47 654.88 829.33 647.02 826.77 637.00 C 825.35 631.96 825.93 626.69 825.60 621.54 C 809.75 617.81 793.28 612.27 781.57 600.43 C 768.69 586.10 763.69 566.52 750.81 552.12 C 741.25 541.02 729.15 532.22 715.83 526.19 C 697.28 517.13 676.42 512.74 659.60 500.29 C 639.87 485.66 623.19 467.34 606.91 449.08 C 584.99 453.18 562.99 457.23 540.69 458.56 C 500.42 460.62 459.55 458.80 420.25 449.24 M 286.32 473.38 C 278.29 479.49 272.17 487.88 265.67 495.56 C 261.67 499.40 265.42 505.68 270.04 506.72 C 273.75 507.50 276.96 504.82 279.27 502.25 C 284.60 496.25 290.32 490.53 294.80 483.85 C 298.96 478.91 291.76 471.17 286.32 473.38 M 258.37 514.42 C 251.63 515.77 253.90 527.12 260.72 525.69 C 267.60 524.47 265.37 512.64 258.37 514.42 Z" />
<path fill="#000000" opacity="1.00" d=" M 352.29 107.19 L 353.06 106.69 C 366.05 116.06 378.82 125.86 391.01 136.25 C 376.59 156.72 361.63 176.93 346.95 197.21 C 334.64 189.08 323.16 179.60 311.45 170.59 C 306.81 168.02 312.21 163.64 313.66 160.62 C 326.71 142.95 338.30 124.10 352.29 107.19 Z" />
<path fill="#000000" opacity="1.00" d=" M 755.38 114.45 C 762.98 110.20 767.49 122.27 760.74 125.72 C 753.73 129.45 748.05 117.49 755.38 114.45 Z" />
<path fill="#000000" opacity="1.00" d=" M 273.38 115.50 C 278.70 113.06 285.20 120.18 280.91 124.94 C 275.40 133.07 264.13 119.23 273.38 115.50 Z" />
<path fill="#000000" opacity="1.00" d=" M 168.11 134.11 C 172.98 132.51 179.91 139.90 174.98 144.03 C 172.70 147.75 167.26 147.47 165.24 143.64 C 161.95 140.41 165.16 136.15 168.11 134.11 Z" />
<path fill="#000000" opacity="1.00" d=" M 659.25 147.36 C 666.92 145.29 674.21 156.11 668.05 162.02 C 664.41 167.78 655.11 166.44 652.57 160.39 C 650.05 155.09 653.87 148.79 659.25 147.36 Z" />
<path fill="#000000" opacity="1.00" d=" M 854.32 152.43 C 860.30 151.03 866.32 153.19 872.02 154.85 C 882.50 158.13 893.05 163.45 899.10 173.01 C 904.56 181.15 905.81 192.75 900.12 201.09 C 891.64 212.87 876.59 217.34 867.62 228.59 C 865.46 231.54 868.93 234.26 870.91 236.12 C 877.09 242.10 887.03 238.49 893.62 243.38 C 899.17 247.59 895.60 255.88 889.80 257.65 C 877.56 259.13 863.74 256.37 855.45 246.56 C 849.39 240.03 847.84 229.95 851.90 221.98 C 857.77 209.85 870.32 203.50 880.61 195.71 C 883.73 193.29 887.90 189.54 885.79 185.17 C 880.69 176.04 869.91 172.71 860.37 170.48 C 855.65 169.11 849.25 167.37 848.47 161.62 C 847.44 157.51 850.20 153.26 854.32 152.43 Z" />
<path fill="#000000" opacity="1.00" d=" M 775.40 168.17 L 776.28 167.39 C 787.37 178.09 798.92 188.38 809.18 199.89 C 811.08 201.48 808.33 203.13 807.41 204.42 C 791.01 221.54 774.91 239.16 757.23 254.93 C 745.23 245.71 735.16 234.20 724.07 223.92 C 723.46 223.02 721.07 221.80 722.65 220.70 C 740.26 203.22 757.70 185.56 775.40 168.17 Z" />
<path fill="#000000" opacity="1.00" d=" M 253.35 174.47 C 259.37 173.82 264.86 180.15 262.95 186.02 C 261.43 192.38 251.67 194.60 247.90 189.02 C 243.61 184.10 246.57 175.00 253.35 174.47 Z" />
<path fill="#000000" opacity="1.00" d=" M 164.32 186.43 C 171.23 183.57 179.78 190.35 177.50 197.61 C 172.64 205.57 161.91 204.16 154.27 207.39 C 147.23 210.02 137.72 215.04 139.18 223.98 C 143.40 232.90 153.74 236.09 160.84 242.23 C 168.87 247.97 175.57 257.72 173.31 268.00 C 171.29 275.53 165.25 283.03 156.97 283.61 C 149.42 284.41 141.48 284.05 134.25 281.61 C 127.72 279.33 126.21 268.59 133.00 265.76 C 140.19 264.49 147.61 267.04 154.81 265.70 C 156.95 264.72 155.61 261.86 154.31 260.68 C 144.79 251.16 130.45 246.45 124.22 233.77 C 116.86 220.64 124.84 204.19 136.28 196.27 C 144.64 190.78 154.70 188.62 164.32 186.43 Z" />
<path fill="#000000" opacity="1.00" d=" M 654.21 222.34 C 663.12 219.03 673.60 226.70 673.57 236.11 C 674.07 244.53 666.28 251.97 657.99 251.73 C 651.75 251.84 647.14 246.46 644.60 241.32 C 641.96 233.78 646.83 224.94 654.21 222.34 Z" />
<path fill="#000000" opacity="1.00" d=" M 242.32 227.41 C 249.14 224.75 256.82 232.12 253.77 238.99 C 251.90 243.51 246.32 247.47 241.55 244.46 C 234.95 241.27 235.32 229.83 242.32 227.41 Z" />
<path fill="#000000" opacity="1.00" d=" M 362.21 237.32 C 370.05 234.67 378.42 240.60 380.80 248.02 C 382.70 256.21 376.39 265.37 367.95 266.23 C 359.48 267.38 351.34 259.38 352.10 250.93 C 352.61 245.05 356.58 239.33 362.21 237.32 Z" />
<path fill="#000000" opacity="1.00" d=" M 92.34 317.44 C 100.70 314.73 109.40 321.80 110.32 330.10 C 111.46 336.25 107.12 342.08 101.82 344.69 C 95.80 346.63 88.22 344.95 84.64 339.42 C 79.60 331.86 83.64 320.16 92.34 317.44 Z" />
<path fill="#000000" opacity="1.00" d=" M 929.34 321.46 C 934.83 321.16 939.85 325.19 942.05 330.01 C 945.36 337.91 938.59 347.80 930.00 347.48 C 923.21 347.77 917.63 341.38 917.43 334.88 C 917.07 328.23 922.80 322.03 929.34 321.46 Z" />
<path fill="#000000" opacity="1.00" d=" M 84.14 465.23 C 89.02 463.24 94.28 469.06 91.62 473.68 C 89.21 479.39 79.84 477.11 79.40 471.30 C 79.94 468.73 81.79 466.38 84.14 465.23 Z" />
<path fill="#000000" opacity="1.00" d=" M 938.24 466.29 C 942.63 464.44 947.43 469.68 945.74 474.01 C 944.84 479.81 935.49 479.11 934.05 474.00 C 932.98 470.73 935.58 467.77 938.24 466.29 Z" />
<path fill="#000000" opacity="1.00" d=" M 102.30 520.42 C 103.99 519.40 105.59 520.24 106.18 522.00 C 115.72 539.62 124.99 557.40 133.72 575.44 C 126.84 580.99 118.77 585.01 110.98 589.17 C 108.56 590.97 106.96 587.79 106.02 585.98 C 97.04 568.56 86.75 551.82 78.04 534.28 C 85.57 528.79 93.92 524.44 102.30 520.42 Z" />
<path fill="#000000" opacity="1.00" d=" M 340.28 538.41 C 355.53 537.04 371.70 538.11 385.35 545.66 C 412.58 559.91 431.26 590.02 429.82 621.01 C 430.56 656.08 405.11 689.50 371.05 697.96 C 339.29 707.43 302.68 694.20 284.27 666.71 C 265.33 639.41 265.92 600.82 284.29 573.41 C 298.14 555.91 317.25 540.43 340.28 538.41 M 348.32 557.45 C 332.30 558.19 318.90 573.09 319.23 589.00 C 318.62 604.41 331.82 618.25 346.91 619.75 C 357.60 621.23 368.27 616.11 375.13 608.06 C 384.09 598.81 384.84 583.54 378.25 572.77 C 372.26 562.49 360.12 556.47 348.32 557.45 M 378.39 624.51 C 372.70 625.09 367.81 630.18 368.21 636.02 C 370.31 649.04 384.40 658.47 397.24 655.40 C 403.20 653.76 405.97 646.56 403.84 641.02 C 400.21 630.88 389.32 623.10 378.39 624.51 M 314.28 625.39 C 307.12 626.94 301.00 631.93 297.10 638.01 C 293.51 643.75 295.06 652.43 301.24 655.70 C 313.67 660.19 329.21 651.25 331.03 638.03 C 331.70 629.33 322.40 622.84 314.28 625.39 M 381.36 663.43 C 377.27 664.34 373.67 666.87 370.72 669.76 C 367.93 672.89 369.53 678.63 373.98 679.04 C 378.55 677.91 382.93 675.57 386.27 672.22 C 389.62 668.99 385.67 662.63 381.36 663.43 Z" />
<path fill="#000000" opacity="1.00" d=" M 666.30 538.44 C 689.07 535.01 712.33 543.71 729.60 558.39 C 752.09 578.05 762.10 610.31 755.49 639.35 C 751.13 662.55 734.17 682.00 713.32 692.31 C 692.01 702.91 665.90 703.94 644.24 693.74 C 605.37 677.05 585.92 626.65 603.10 588.04 C 613.78 562.15 638.34 542.14 666.30 538.44 M 667.31 558.43 C 652.32 562.42 641.42 578.88 644.54 594.29 C 645.99 602.18 650.99 609.03 657.42 613.68 C 672.52 626.30 699.08 618.81 705.25 600.04 C 710.15 587.77 706.79 572.97 696.44 564.59 C 688.74 557.25 677.25 556.57 667.31 558.43 M 644.37 624.49 C 635.09 626.01 627.11 633.42 624.45 642.37 C 622.42 650.41 631.18 658.13 638.98 656.06 C 648.20 653.92 658.34 647.25 659.11 636.98 C 660.20 628.89 651.97 622.68 644.37 624.49 M 706.20 625.33 C 701.67 626.77 696.76 630.79 697.28 636.02 C 696.95 650.56 714.56 660.67 727.45 655.44 C 732.56 652.38 734.95 645.39 732.00 640.02 C 727.40 630.76 717.02 622.63 706.20 625.33 M 706.30 664.38 C 701.58 665.84 696.73 669.07 695.23 674.01 C 694.27 677.24 697.72 680.56 700.91 679.20 C 705.35 677.75 709.91 675.56 712.83 671.79 C 715.30 667.77 710.36 663.16 706.30 664.38 Z" />
<path fill="#000000" opacity="1.00" d=" M 915.32 541.42 C 919.40 539.73 924.46 541.64 926.41 545.61 C 929.61 552.01 921.64 561.10 915.02 557.00 C 908.58 554.25 908.63 543.83 915.32 541.42 Z" />
<path fill="#000000" opacity="1.00" d=" M 924.29 618.40 C 929.83 617.06 936.11 618.75 939.99 623.00 C 945.40 629.27 945.18 640.18 938.22 645.27 C 930.87 651.46 918.26 648.41 914.50 639.60 C 910.64 631.49 915.58 620.67 924.29 618.40 Z" />
<path fill="#000000" opacity="1.00" d=" M 504.33 654.47 C 513.69 653.97 524.59 652.29 532.50 658.54 C 537.69 662.37 536.78 670.33 532.47 674.48 C 529.76 677.78 525.41 678.73 522.12 681.20 C 521.45 692.23 531.47 704.52 543.36 702.54 C 553.29 700.97 558.82 690.32 558.39 680.97 C 557.87 675.91 561.00 670.57 566.03 669.26 C 572.90 668.21 578.67 675.42 577.40 682.01 C 580.07 703.41 559.38 723.90 538.04 721.13 C 527.97 721.58 519.96 714.89 513.24 708.26 C 506.87 715.16 498.46 720.54 488.91 721.33 C 470.79 723.27 453.18 708.80 450.32 691.02 C 449.34 684.37 447.84 675.75 454.04 671.06 C 458.97 666.71 466.78 670.68 468.58 676.31 C 469.29 680.51 468.66 684.90 470.11 688.99 C 472.31 697.18 480.68 703.84 489.34 702.52 C 499.01 700.70 505.60 690.74 505.71 681.27 C 497.37 679.68 489.94 671.83 491.04 662.97 C 492.46 657.12 498.99 654.96 504.33 654.47 Z" />
<path fill="#000000" opacity="1.00" d=" M 92.33 666.46 C 99.87 665.37 107.43 670.68 109.36 677.97 C 112.10 686.94 103.91 696.50 94.96 696.92 C 87.82 695.98 80.27 690.83 79.98 683.02 C 78.68 675.30 84.22 666.92 92.33 666.46 Z" />
<path fill="#000000" opacity="1.00" d=" M 932.37 699.43 C 936.98 698.53 940.32 703.21 942.34 706.71 C 945.97 714.61 935.00 723.46 928.07 717.90 C 920.18 713.28 923.50 700.44 932.37 699.43 Z" />
<path fill="#000000" opacity="1.00" d=" M 90.21 756.33 C 97.17 753.16 105.36 760.52 103.63 767.73 C 102.33 772.62 97.48 777.65 92.03 776.02 C 88.11 774.61 84.63 771.33 83.56 767.24 C 82.77 762.66 85.96 757.93 90.21 756.33 Z" />
</g>
</svg>
