<svg viewBox="0 0 100 100" version="1.1" xmlns="http://www.w3.org/2000/svg"><g transform="translate(1, 9.447792600461696) scale(0.1001041900753846) translate(-24.19, -107.69)"><path fill="#000000" opacity="1.00" d=" M 210.34 108.48 C 229.95 108.00 249.88 111.47 267.42 120.47 C 291.79 132.92 311.57 154.99 319.99 181.17 C 336.06 176.06 352.21 170.39 368.95 167.40 C 374.58 166.00 380.91 166.20 385.86 162.85 C 403.27 143.92 424.63 128.60 448.01 117.88 C 451.63 116.39 455.13 114.04 459.14 113.95 C 459.34 127.50 453.57 140.48 452.94 153.97 C 452.58 156.35 455.89 155.20 457.05 154.83 C 476.53 148.16 497.22 145.90 517.66 144.50 C 526.06 144.26 534.76 143.62 542.89 146.20 C 536.97 151.84 530.51 156.94 524.83 162.82 C 551.57 165.05 577.72 171.71 603.06 180.35 C 603.97 180.54 605.44 181.46 605.88 180.08 C 608.61 174.86 609.97 169.04 612.79 163.86 C 626.53 136.45 653.96 117.59 683.35 110.48 C 701.09 107.78 719.26 108.16 737.05 110.35 C 752.61 112.90 767.11 119.78 780.89 127.23 C 826.23 153.19 852.07 208.50 844.05 259.98 C 840.07 287.47 825.64 313.49 803.86 330.81 C 794.81 337.35 785.76 345.07 774.92 347.95 C 773.33 350.55 775.03 353.89 775.51 356.64 C 784.09 383.54 791.79 410.90 795.70 438.91 C 794.85 449.08 804.70 454.71 810.70 461.29 C 814.13 464.31 817.31 467.67 821.10 470.26 C 824.63 469.27 825.48 464.51 828.38 462.36 C 835.66 455.66 846.65 454.54 855.94 456.79 C 864.70 459.09 870.43 466.54 876.42 472.76 C 879.16 471.83 880.64 468.68 882.91 466.90 C 891.35 458.22 904.73 456.90 915.97 459.77 C 928.13 464.75 934.32 478.77 933.01 491.40 C 943.10 488.78 954.63 487.78 964.04 493.15 C 972.78 497.92 978.02 508.11 977.01 518.00 C 976.80 523.68 973.82 528.65 972.10 533.93 C 975.95 536.07 980.36 537.18 983.94 539.86 C 997.16 548.21 1003.17 567.04 994.74 580.78 C 990.17 589.49 980.47 592.75 971.91 596.06 C 980.02 607.35 984.14 622.50 978.76 635.86 C 974.03 644.58 965.18 651.89 954.96 652.40 C 946.56 653.26 938.65 649.87 931.14 646.79 C 931.73 657.33 931.99 669.11 924.48 677.54 C 912.34 692.48 886.27 693.22 874.44 677.52 C 873.32 676.11 870.28 671.95 869.61 675.74 C 866.56 692.81 865.53 710.28 865.94 727.62 C 872.92 721.04 878.88 712.97 887.78 708.70 C 901.36 701.61 917.24 702.24 932.08 703.20 C 936.49 703.70 942.63 704.03 944.27 709.03 C 947.00 728.75 935.64 747.35 923.67 762.01 C 929.28 764.14 936.55 760.96 941.24 765.73 C 943.38 768.05 947.33 769.93 946.53 773.66 C 945.79 782.73 946.92 792.13 944.25 800.94 C 942.59 806.83 934.04 806.51 933.34 812.92 C 927.76 840.15 922.79 867.55 918.16 894.95 C 930.17 899.27 943.89 897.53 956.38 900.57 C 958.84 901.20 958.94 904.83 956.41 905.45 C 951.41 906.93 946.10 906.89 940.95 907.40 C 899.35 909.80 857.66 909.65 816.01 909.35 C 797.33 908.96 778.61 908.88 760.00 907.01 C 755.59 906.42 750.92 906.17 746.97 903.92 C 746.58 901.50 749.45 901.42 751.06 900.81 C 762.50 898.04 774.33 897.61 785.98 896.24 C 781.58 866.95 775.69 837.85 771.53 808.50 C 767.67 806.43 762.63 805.40 760.72 800.93 C 757.71 793.71 758.82 785.65 758.90 778.04 C 759.21 773.24 759.44 766.62 764.81 764.68 C 773.09 762.21 781.91 763.59 790.37 762.13 C 790.45 760.41 788.75 759.33 787.90 758.02 C 778.07 747.32 772.67 733.27 770.17 719.13 C 769.65 715.06 768.84 710.19 771.72 706.79 C 774.82 703.45 779.73 703.04 784.00 702.59 C 797.77 701.71 812.35 701.72 825.00 707.99 C 834.60 712.51 841.82 720.57 847.90 729.04 C 846.60 712.97 849.36 696.92 848.95 680.85 C 838.35 689.40 822.29 690.66 810.71 683.30 C 800.13 676.92 795.31 663.93 796.35 651.97 C 796.13 649.29 797.45 646.02 796.26 643.72 C 786.54 647.96 774.80 649.24 765.33 643.66 C 759.77 640.84 756.51 635.42 752.94 630.59 C 749.88 631.72 747.41 634.05 744.57 635.65 C 725.30 648.37 702.93 654.94 681.10 661.74 C 678.77 662.16 680.17 664.80 680.64 666.19 C 686.80 680.93 686.96 697.23 686.31 712.94 C 686.24 719.36 682.94 724.99 681.03 730.93 C 685.13 749.34 687.00 768.14 686.51 787.00 C 688.00 816.78 676.98 846.47 658.75 869.78 C 652.61 878.01 644.45 884.54 638.15 892.54 C 665.87 894.25 693.58 896.57 721.13 900.22 C 723.92 900.57 726.94 900.97 728.98 903.14 C 729.30 905.50 726.56 906.10 724.86 906.66 C 717.99 908.25 710.92 908.69 703.92 909.26 C 585.15 917.89 465.98 915.40 347.00 915.01 C 299.67 912.90 252.30 911.46 204.98 908.95 C 196.33 908.29 187.58 908.07 179.07 906.25 C 177.47 905.71 174.73 905.38 175.00 903.07 C 178.38 900.56 183.00 900.91 186.99 900.01 C 218.18 895.95 249.64 894.34 281.03 892.66 C 277.15 887.19 271.58 882.96 267.11 877.91 C 247.61 857.93 234.90 831.59 230.98 803.99 C 229.14 780.85 230.24 757.44 234.47 734.62 C 235.70 727.42 231.69 720.88 230.85 713.90 C 228.13 697.64 231.91 681.25 236.59 665.72 C 236.84 664.43 237.97 662.37 236.18 661.69 C 231.22 658.88 225.65 657.47 220.32 655.56 C 194.65 647.05 169.43 635.15 149.66 616.33 C 136.35 603.71 125.90 588.10 119.20 571.04 C 112.86 554.82 114.33 537.12 113.94 520.09 C 102.82 519.70 89.70 520.96 80.35 514.36 C 92.17 506.25 104.89 497.86 113.29 486.04 C 104.40 486.46 95.18 484.84 87.23 480.77 C 87.58 479.21 89.86 479.26 91.06 478.64 C 108.95 473.69 123.23 460.92 135.97 448.03 C 140.61 415.40 147.87 383.14 158.41 351.90 C 143.66 343.24 126.89 336.92 114.49 324.52 C 96.45 306.58 82.69 283.01 80.57 257.28 C 78.81 233.24 80.04 208.00 91.26 186.15 C 111.37 140.16 159.92 107.69 210.34 108.48 M 205.31 135.46 C 179.63 136.75 154.51 148.07 137.09 167.07 C 119.34 186.43 108.27 212.53 109.24 239.01 C 109.30 265.35 119.72 292.72 140.96 309.15 C 148.46 314.32 156.17 319.76 164.97 322.42 C 170.96 315.40 174.57 306.60 180.29 299.32 C 185.29 291.80 191.91 285.58 197.61 278.65 C 186.40 278.75 174.72 277.73 164.02 281.79 C 169.74 272.09 182.29 269.79 192.10 265.99 C 184.02 262.34 174.96 262.26 166.27 261.57 C 166.22 261.26 166.12 260.64 166.07 260.33 C 173.90 256.87 182.62 256.74 191.03 256.75 C 181.86 251.68 168.88 253.23 159.64 258.15 C 163.29 251.89 170.79 247.59 177.84 245.61 C 187.78 243.70 198.16 244.15 208.08 246.00 C 203.25 241.34 195.86 239.80 189.37 238.47 C 180.26 237.29 170.60 235.60 161.77 239.02 C 162.59 235.31 167.93 234.52 171.02 232.81 C 180.19 228.50 190.51 228.68 200.16 231.02 C 192.01 223.40 180.82 220.13 169.97 218.77 C 188.08 210.82 210.89 217.34 224.89 230.89 C 223.79 211.35 206.35 194.80 187.76 189.40 C 176.14 186.20 163.63 185.88 151.81 188.17 C 162.60 179.10 178.40 178.55 191.97 178.92 C 214.32 179.88 234.26 197.97 238.43 219.77 C 239.82 226.94 238.90 234.24 238.82 241.48 C 250.92 231.46 263.30 221.15 277.97 215.10 C 277.74 218.57 272.54 218.64 272.10 221.97 C 275.70 220.88 278.59 218.33 282.07 217.00 C 277.61 224.35 269.26 228.83 264.60 236.05 C 281.09 226.53 296.99 215.25 315.08 208.93 C 311.21 214.64 304.52 217.95 301.02 223.97 C 314.79 217.20 327.73 208.06 342.06 202.14 C 340.50 206.04 336.48 208.49 335.39 212.59 C 345.89 207.07 356.18 201.02 367.06 196.17 C 364.42 203.02 358.15 208.16 355.82 215.23 C 368.77 211.49 381.55 204.62 395.18 202.75 C 385.59 213.14 373.00 220.63 363.44 231.06 C 380.77 226.75 398.04 219.44 416.01 219.22 C 390.21 232.36 366.07 249.00 345.80 269.80 C 320.69 294.07 304.03 325.90 293.83 359.01 C 292.69 363.57 287.60 364.17 284.02 365.94 C 254.96 379.90 234.12 409.84 231.70 442.07 C 230.88 450.07 231.99 458.07 232.01 466.08 C 204.62 462.04 174.64 464.20 150.91 479.79 C 145.38 485.10 159.44 476.17 158.22 479.75 C 145.36 487.15 132.69 495.72 122.86 506.87 C 135.76 500.10 148.36 491.34 163.02 489.14 C 159.06 492.12 154.73 494.66 151.21 498.22 C 137.87 510.90 133.99 531.30 138.43 548.73 C 144.66 571.57 159.63 591.39 178.56 605.35 C 217.91 634.12 266.83 644.92 314.14 652.25 C 319.53 654.01 324.01 649.55 328.98 648.22 C 349.67 640.07 376.10 641.43 392.10 658.38 C 410.26 639.74 437.72 632.85 463.07 636.12 C 482.43 637.37 500.85 645.90 515.18 658.81 C 518.90 662.04 521.41 666.75 525.98 668.93 C 528.15 669.58 528.00 666.27 529.76 665.70 C 542.20 658.16 557.57 657.01 571.65 659.51 C 580.14 661.27 588.62 658.67 596.92 657.09 C 624.07 650.74 651.74 646.30 678.24 637.41 C 708.82 627.14 740.01 613.40 761.25 588.17 C 764.93 583.85 756.88 584.39 754.55 582.43 C 736.52 572.22 736.30 544.23 751.94 531.83 C 757.87 527.73 764.56 524.20 771.89 523.67 C 775.28 522.45 773.06 518.35 772.29 516.05 C 768.47 507.05 772.29 497.45 776.44 489.35 C 778.81 484.95 771.20 485.94 769.95 482.93 C 773.26 483.07 775.76 485.88 779.04 486.01 C 782.95 484.64 784.60 479.41 789.23 479.81 C 766.02 465.04 736.95 462.80 710.21 465.74 C 708.74 461.36 710.16 456.55 709.99 452.01 C 711.42 429.38 701.58 407.60 688.19 389.89 C 678.45 376.60 663.46 368.46 648.45 362.52 C 646.83 359.84 645.81 356.86 644.70 353.95 C 630.25 310.14 603.24 269.42 564.45 243.61 C 553.65 236.37 542.01 229.28 529.06 227.03 C 534.86 235.61 541.90 243.81 544.97 253.87 C 527.54 251.34 510.40 247.09 492.99 244.42 C 491.47 244.47 489.58 243.59 488.32 244.68 C 493.00 257.75 495.54 271.66 495.30 285.56 L 494.25 285.19 C 480.15 266.39 468.46 245.76 453.14 227.88 C 451.83 225.88 447.90 223.71 448.57 221.60 C 469.42 225.28 490.08 230.67 511.28 231.94 C 512.16 230.34 510.30 228.79 509.62 227.43 C 503.53 219.50 496.04 212.53 487.29 207.66 C 486.26 205.62 489.92 206.84 490.93 206.75 C 517.11 210.70 543.33 215.04 568.95 221.80 C 558.31 210.01 542.77 203.55 529.98 194.88 C 537.38 194.91 544.67 197.21 551.92 198.70 C 564.67 201.44 575.89 208.39 587.97 212.92 C 585.34 208.12 580.18 205.34 576.94 200.97 C 593.13 206.69 608.31 215.24 623.11 223.92 C 620.22 218.20 614.48 214.52 610.55 209.56 C 628.43 215.92 645.15 225.54 660.93 236.04 C 655.16 228.89 647.61 223.22 642.00 215.90 C 646.06 216.85 649.14 219.99 653.08 221.23 C 651.73 219.01 649.27 217.48 648.61 214.87 C 662.48 221.34 673.84 232.21 686.16 241.14 C 683.13 225.41 688.80 208.87 698.55 196.51 C 710.27 183.73 728.32 176.10 745.70 178.46 C 754.59 179.98 763.73 182.22 771.46 186.90 C 755.12 185.40 737.53 186.12 723.34 195.30 C 711.12 203.66 702.00 216.99 699.57 231.68 C 709.42 221.56 723.32 216.07 737.34 215.49 C 742.94 215.36 749.47 215.72 754.06 218.80 C 744.69 220.54 735.34 223.22 727.21 228.33 C 727.18 228.66 727.13 229.32 727.11 229.65 C 738.68 229.75 753.11 228.91 761.17 238.81 C 746.22 236.50 728.69 236.82 716.00 245.86 C 732.81 241.15 753.50 243.54 765.02 257.89 C 754.13 253.45 740.61 250.95 730.01 256.69 C 739.37 255.46 749.37 256.06 757.96 260.24 C 757.91 260.60 757.82 261.33 757.77 261.69 C 749.09 262.24 740.06 262.33 731.99 265.99 C 742.58 269.87 754.80 273.20 762.17 282.30 C 752.01 278.93 741.22 278.22 730.59 278.69 C 742.02 291.70 754.56 304.59 761.49 320.75 C 762.71 321.94 764.35 320.98 765.71 320.58 C 791.46 308.66 810.51 283.19 814.07 254.96 C 815.59 242.02 815.73 228.82 813.69 215.93 C 805.15 177.55 773.02 145.26 734.32 137.52 C 722.34 135.43 710.11 135.72 697.99 135.99 C 667.16 137.24 638.83 160.74 632.13 190.89 C 630.58 196.72 631.50 202.80 630.54 208.69 C 590.61 195.42 549.83 182.39 507.46 180.46 C 501.08 184.74 495.66 190.97 487.86 192.67 C 475.97 195.25 463.98 197.57 451.88 198.87 C 468.09 189.12 484.75 178.75 497.99 165.07 C 485.86 166.16 473.37 167.66 461.64 171.49 C 444.03 176.61 428.22 186.15 413.00 196.09 C 421.03 181.09 427.88 165.24 432.10 148.73 C 428.30 148.91 425.42 152.25 422.37 154.29 C 405.26 168.36 389.01 183.67 375.17 201.00 C 374.89 195.62 376.43 190.33 376.30 184.96 C 349.04 191.04 322.29 199.20 295.86 208.12 C 294.23 201.06 293.65 193.74 291.39 186.81 C 286.76 171.13 276.30 157.30 262.45 148.61 C 245.61 137.83 225.04 134.29 205.31 135.46 M 844.39 472.46 C 833.40 477.68 835.72 491.52 838.82 500.96 C 843.44 512.69 847.92 524.84 854.94 535.32 C 858.86 534.32 862.92 533.96 866.82 532.90 C 867.25 517.58 868.76 501.75 864.31 486.84 C 862.00 478.44 853.35 470.73 844.39 472.46 M 900.18 475.36 C 892.68 478.15 887.34 484.77 883.55 491.56 C 876.74 504.64 876.30 519.76 875.75 534.17 C 878.52 535.72 881.85 536.70 885.01 537.17 C 895.39 526.61 904.87 514.89 911.61 501.64 C 915.01 494.90 917.73 486.42 913.64 479.35 C 911.09 474.63 904.88 473.50 900.18 475.36 M 796.24 495.37 C 787.16 497.66 786.14 510.09 791.68 516.34 C 801.39 529.14 817.25 534.25 830.04 543.15 C 832.80 544.76 835.52 547.25 838.94 546.96 C 836.51 542.92 834.42 538.34 834.75 533.52 C 838.26 535.15 839.08 539.57 841.93 541.99 C 844.84 542.08 846.11 538.21 844.73 535.93 C 839.41 521.84 830.83 508.24 817.70 500.28 C 811.34 496.50 803.70 493.46 796.24 495.37 M 938.34 505.45 C 921.15 509.21 907.68 521.89 898.00 535.99 C 896.43 538.60 894.00 541.03 893.83 544.22 C 898.99 543.08 901.61 537.24 906.83 536.14 C 905.46 540.93 901.25 544.42 899.81 549.25 C 903.09 549.01 906.03 547.38 908.99 546.06 C 920.95 539.98 934.28 537.45 946.74 532.63 C 954.05 529.40 961.25 521.54 959.34 513.02 C 956.55 504.57 945.77 503.35 938.34 505.45 M 775.31 538.42 C 763.80 539.16 754.50 552.43 760.93 562.99 C 767.92 571.21 779.90 572.19 790.01 571.96 C 803.04 571.22 816.21 570.53 829.00 567.85 C 826.14 564.67 820.91 564.69 817.17 562.65 C 820.74 556.72 831.48 564.92 832.01 555.91 C 816.37 543.03 795.67 535.53 775.31 538.42 M 862.31 545.46 C 847.55 547.07 838.25 564.43 843.00 577.96 C 846.98 589.09 859.30 596.39 871.00 594.59 C 883.84 594.31 893.60 582.38 893.69 570.01 C 894.19 554.03 877.45 542.02 862.31 545.46 M 937.30 546.46 C 926.84 547.57 916.13 550.18 907.63 556.68 C 906.42 557.77 904.50 558.92 904.96 560.85 C 908.24 562.08 911.96 561.48 915.16 562.94 C 916.34 566.94 904.39 566.31 907.33 570.51 C 926.63 572.38 945.43 579.25 965.02 578.94 C 970.20 578.97 975.88 577.28 978.32 572.28 C 983.20 565.24 978.97 555.95 972.46 551.65 C 962.41 544.01 949.09 545.42 937.30 546.46 M 816.34 579.49 C 797.23 581.75 775.10 591.16 768.95 611.03 C 765.41 620.33 775.48 630.96 784.92 628.11 C 798.57 625.14 809.19 615.26 819.73 606.72 C 825.23 601.60 831.81 597.16 836.04 590.97 C 834.29 587.84 826.55 594.25 824.62 589.97 C 826.36 586.44 831.67 587.36 833.58 584.08 C 831.20 576.56 822.15 579.50 816.34 579.49 M 909.31 580.45 C 905.52 580.48 901.67 583.45 901.44 587.33 C 903.07 589.95 905.82 591.62 907.95 593.81 C 904.29 593.94 900.46 592.80 896.91 593.86 C 905.88 604.99 917.30 614.34 928.15 623.75 C 934.57 628.48 941.68 633.51 949.99 633.48 C 958.96 633.48 966.48 623.92 963.65 615.19 C 959.88 602.64 948.23 594.93 937.70 588.34 C 928.83 584.19 919.24 580.35 909.31 580.45 M 841.27 600.28 C 824.54 613.71 810.67 634.55 813.33 656.83 C 815.27 671.16 835.73 672.31 843.99 663.00 C 856.46 649.04 860.84 629.33 860.39 611.03 C 860.86 606.63 855.55 605.32 852.15 605.27 C 848.99 606.64 847.73 610.28 845.04 612.27 C 844.19 608.68 847.11 598.36 841.27 600.28 M 888.46 601.47 C 883.58 602.70 883.98 607.44 885.94 611.02 C 881.92 606.56 876.72 606.02 871.28 608.20 C 869.54 617.71 871.15 627.45 872.81 636.87 C 874.75 647.57 878.99 658.34 887.44 665.58 C 891.95 670.87 899.84 670.99 905.98 669.03 C 913.70 665.84 916.03 656.64 915.40 649.04 C 914.32 632.36 906.75 615.95 894.50 604.53 C 892.72 603.26 890.88 600.68 888.46 601.47 M 441.37 652.51 C 425.50 655.01 408.50 661.28 399.38 675.30 C 399.45 675.63 399.59 676.28 399.66 676.60 C 430.59 654.23 478.86 658.63 503.14 688.95 C 507.48 693.46 508.85 701.64 515.90 702.83 C 517.92 703.15 523.09 705.01 522.34 701.10 C 510.57 669.11 475.27 647.68 441.37 652.51 M 343.23 660.39 C 333.67 661.74 325.16 666.97 317.46 672.51 C 309.79 678.34 302.07 684.66 297.13 693.06 C 304.31 687.64 312.75 684.49 321.02 681.17 C 315.03 689.78 310.84 699.73 309.13 710.09 C 313.21 708.48 313.17 702.56 316.58 700.05 C 317.92 710.58 315.73 723.55 323.53 731.86 C 323.66 726.46 321.64 721.26 321.10 715.92 C 329.02 725.86 340.73 734.00 354.03 732.96 C 363.67 732.89 375.11 725.90 374.63 715.24 C 374.60 710.77 369.70 709.31 367.48 706.81 C 372.61 705.61 381.64 706.07 381.55 698.66 C 382.51 693.62 378.05 690.87 374.97 687.98 C 379.29 688.10 385.17 687.36 385.95 682.08 C 386.94 673.32 378.98 666.86 372.03 663.15 C 363.39 657.66 352.82 659.90 343.23 660.39 M 552.34 674.50 C 546.38 674.62 540.06 676.45 536.27 681.34 C 532.78 684.33 536.43 691.70 541.02 689.18 C 540.30 690.75 537.94 692.22 538.93 694.08 C 549.24 695.08 559.36 702.24 562.58 712.29 C 566.50 721.32 559.49 730.73 562.02 739.93 C 564.03 741.33 567.62 743.58 569.92 742.00 C 566.49 728.56 566.73 714.01 570.52 700.67 C 572.78 692.12 578.93 685.15 586.85 681.39 C 576.27 675.76 564.21 673.98 552.34 674.50 M 602.07 674.17 C 610.46 681.21 621.81 685.04 632.15 688.92 C 631.81 687.04 629.84 686.46 628.45 685.55 C 620.00 681.05 611.29 676.86 602.07 674.17 M 416.11 682.22 C 414.40 683.54 410.82 684.94 411.46 687.45 C 414.32 689.53 417.65 690.81 420.87 692.25 C 458.97 707.96 499.36 717.51 540.03 723.58 C 544.78 725.22 547.65 720.07 545.90 716.07 C 542.52 714.73 538.89 714.21 535.35 713.51 C 497.33 707.41 459.81 697.65 424.06 683.28 C 421.53 682.56 418.70 681.01 416.11 682.22 M 407.35 696.38 C 403.10 703.02 399.71 711.19 398.93 718.92 C 406.82 723.36 415.61 725.85 424.02 729.09 C 444.11 735.95 464.32 742.55 484.93 747.65 C 502.22 751.28 519.57 754.68 537.04 757.30 C 540.05 757.84 540.59 754.22 540.95 752.08 C 541.84 745.63 543.59 739.17 543.41 732.66 C 503.04 725.40 462.76 716.62 424.00 703.00 C 418.14 701.63 413.12 697.11 407.35 696.38 M 594.11 696.19 C 589.45 699.72 585.94 705.10 585.74 711.07 C 585.12 722.42 585.06 734.44 590.19 744.88 C 597.35 759.91 613.45 770.04 630.02 770.56 C 637.13 770.87 644.36 770.98 651.37 769.54 C 656.58 768.42 661.05 763.75 660.72 758.21 C 656.72 759.86 652.58 762.99 647.68 761.47 C 628.53 757.62 612.84 743.56 602.41 727.56 C 597.50 719.34 592.17 709.69 594.64 699.83 C 594.77 698.82 596.55 694.99 594.11 696.19 M 605.24 699.27 C 601.88 702.06 602.97 707.21 603.32 711.05 C 605.85 722.30 614.32 730.89 622.26 738.73 C 629.75 745.21 638.52 752.52 648.98 752.11 C 655.63 750.88 654.53 742.39 652.36 737.78 C 644.78 721.17 630.81 707.16 613.78 700.35 C 611.11 699.42 608.00 697.95 605.24 699.27 M 785.16 715.23 C 786.48 731.91 797.21 747.47 811.17 756.75 C 819.62 762.75 830.23 763.10 840.19 762.82 C 831.95 748.69 819.38 737.70 807.43 726.95 C 817.54 729.02 827.23 733.05 836.18 738.14 C 835.54 734.00 831.46 731.25 828.83 728.18 C 818.07 716.22 800.38 713.28 785.16 715.23 M 910.25 715.42 C 896.60 716.58 883.75 724.90 877.63 737.13 C 887.00 733.52 895.99 728.12 906.13 726.63 C 908.32 726.58 905.84 728.76 905.23 729.26 C 894.32 737.51 884.48 747.33 876.65 758.56 C 875.71 759.83 874.03 762.96 876.92 762.92 C 887.16 762.82 898.03 760.69 906.30 754.29 C 917.88 745.03 928.24 731.95 929.82 716.88 C 924.74 712.33 916.52 715.56 910.25 715.42 M 394.18 727.05 C 384.11 749.86 374.59 772.95 365.43 796.14 C 368.82 799.49 373.81 800.75 377.99 802.97 C 402.82 815.25 429.43 823.26 455.84 831.35 C 476.51 837.47 497.83 841.07 519.12 844.24 C 521.73 844.44 526.29 845.69 526.58 841.76 C 530.17 818.49 534.35 795.30 537.17 771.92 C 537.13 769.48 538.75 764.94 534.95 764.80 C 498.38 759.36 462.22 750.82 426.95 739.73 C 415.92 735.83 405.54 729.83 394.18 727.05 M 364.36 746.49 C 359.17 747.16 362.96 754.05 364.73 756.14 C 366.25 752.79 367.74 749.41 368.97 745.94 C 367.41 745.90 365.86 746.06 364.36 746.49 M 345.11 748.16 C 343.38 749.01 345.22 751.32 345.46 752.65 C 348.84 759.80 351.72 767.66 357.00 773.60 C 358.76 771.44 360.92 768.04 358.28 765.65 C 353.50 760.20 352.36 750.97 345.11 748.16 M 327.49 755.53 C 322.25 757.84 317.40 761.08 311.84 762.65 C 295.66 768.11 278.01 764.83 262.59 758.50 C 259.50 757.06 259.36 762.12 258.91 764.07 C 257.26 781.37 257.91 799.12 262.64 815.92 C 271.20 847.00 295.02 873.43 324.61 885.78 C 325.28 882.43 323.10 878.47 325.34 875.26 C 327.74 875.75 328.43 878.53 329.71 880.29 C 333.84 887.64 340.11 895.32 349.02 896.36 C 354.69 896.91 358.00 891.03 357.78 886.03 C 358.35 883.34 356.45 878.94 358.25 877.38 C 362.47 882.41 364.19 890.09 369.77 894.32 C 373.67 896.99 379.08 895.39 381.84 891.84 C 387.48 886.11 387.07 877.52 387.93 870.10 C 371.53 861.51 354.07 854.31 339.77 842.27 C 336.13 838.92 331.50 834.38 333.30 828.93 C 336.99 816.99 342.90 805.91 347.46 794.31 C 348.75 791.80 346.42 789.57 345.46 787.42 C 339.83 777.87 333.75 768.48 329.96 757.99 C 329.29 756.98 329.21 754.28 327.49 755.53 M 581.91 754.87 C 584.29 762.71 591.08 768.55 597.10 773.84 C 597.76 774.52 601.37 776.71 599.86 774.02 C 595.07 766.75 588.72 760.24 581.91 754.87 M 573.46 762.48 C 565.18 769.89 557.33 777.82 548.58 784.69 C 547.62 786.25 544.92 784.01 544.69 786.10 C 540.18 801.99 541.26 818.77 538.37 834.94 C 539.82 834.85 540.76 833.63 541.79 832.76 C 558.88 816.54 575.66 799.99 592.40 783.41 C 592.54 783.09 592.81 782.46 592.95 782.14 C 585.79 776.48 579.74 769.58 574.82 761.90 C 574.48 762.05 573.80 762.33 573.46 762.48 M 778.33 780.46 C 772.95 780.26 775.93 788.48 776.79 791.39 C 821.78 793.78 866.93 792.97 911.98 792.39 C 917.25 791.84 922.98 792.91 927.95 790.89 C 929.45 787.44 928.41 783.51 928.15 779.90 C 878.22 779.97 828.25 779.02 778.33 780.46 M 655.36 785.50 C 641.89 792.68 626.54 789.31 612.47 786.41 C 590.25 809.16 567.71 831.62 546.10 854.95 C 541.10 860.08 535.39 867.72 540.17 874.89 C 539.60 880.01 539.68 885.55 542.79 889.95 C 545.38 894.38 551.55 897.58 556.27 894.34 C 561.88 889.92 563.98 882.66 567.80 876.91 C 568.65 882.52 566.52 889.06 570.00 894.00 C 575.02 897.52 582.18 895.28 586.32 891.28 C 592.56 886.50 593.91 877.57 599.88 872.93 C 600.68 876.81 598.71 881.05 600.39 884.70 C 604.03 884.33 606.85 881.60 609.89 879.80 C 640.54 858.66 658.40 821.57 658.21 784.58 C 657.50 784.81 656.07 785.27 655.36 785.50 M 361.35 805.22 C 359.03 809.12 356.84 813.35 356.09 817.85 C 359.64 821.27 364.34 823.12 368.65 825.39 C 389.86 835.48 411.61 844.51 433.94 851.82 C 439.59 854.02 445.89 853.52 451.23 856.59 C 473.11 862.26 495.46 866.33 517.95 868.62 C 523.52 869.78 522.90 862.54 523.60 858.99 C 525.19 853.57 518.70 852.38 514.85 851.78 C 482.46 846.55 450.52 838.65 419.31 828.57 C 400.65 822.34 382.05 815.54 364.94 805.73 C 363.79 805.46 362.06 803.48 361.35 805.22 M 789.36 809.26 C 789.49 812.59 788.67 818.26 793.00 819.20 C 795.31 819.53 795.03 822.45 795.63 824.20 C 796.24 827.42 790.09 824.46 790.88 827.88 C 793.85 847.42 797.95 866.79 802.17 886.09 C 802.65 890.86 808.40 890.32 811.96 890.73 C 835.97 891.61 860.01 891.07 884.03 890.86 C 889.51 890.52 895.13 890.89 900.48 889.47 C 903.32 886.55 903.25 881.93 904.39 878.20 C 907.31 861.00 910.77 843.89 914.06 826.76 C 904.68 826.40 895.24 828.02 885.91 826.75 C 882.59 826.20 883.99 821.14 886.92 821.14 C 896.30 819.57 905.89 819.68 915.36 818.88 C 915.58 815.62 915.61 812.35 915.35 809.10 C 873.36 809.15 831.34 808.84 789.36 809.26 M 351.16 826.16 C 350.22 831.40 357.55 833.46 361.05 836.20 C 406.06 859.93 455.40 875.76 506.00 881.56 C 510.44 881.81 515.09 882.74 519.44 881.47 C 520.44 879.38 521.57 875.67 517.88 875.78 C 467.49 870.31 417.98 856.43 372.01 835.06 C 365.07 832.11 358.59 827.70 351.16 826.16 Z"/><path fill="#000000" opacity="1.00" d=" M 864.22 331.33 C 864.83 331.29 866.06 331.21 866.68 331.17 C 869.34 340.29 869.46 349.96 872.23 359.07 C 875.27 370.65 885.66 379.09 896.99 381.98 C 898.92 382.54 903.37 384.34 900.79 386.76 C 896.08 390.18 890.05 391.04 885.19 394.24 C 876.61 398.71 872.24 408.13 869.89 417.08 C 868.50 422.02 869.21 427.75 866.04 432.06 C 864.51 433.88 862.23 431.90 861.68 430.24 C 859.94 424.96 860.44 419.23 858.79 413.92 C 856.15 403.80 848.58 395.17 838.87 391.26 C 835.36 389.61 831.17 389.39 828.09 386.88 C 827.26 383.58 831.82 382.88 834.04 381.85 C 842.24 379.70 849.72 374.49 853.90 367.03 C 858.68 358.87 859.89 349.27 860.61 340.01 C 861.20 337.03 861.01 332.85 864.22 331.33 Z"/><path fill="#000000" opacity="1.00" d=" M 312.24 362.42 C 345.49 357.45 380.17 378.94 390.23 411.06 C 394.52 427.00 395.11 444.73 388.00 459.99 C 377.76 483.08 354.84 501.67 328.95 502.27 C 316.13 502.83 302.74 502.55 290.96 496.85 C 261.13 484.10 244.23 448.12 252.13 416.90 C 257.64 388.20 283.43 365.64 312.24 362.42 M 307.36 386.48 C 292.85 389.36 284.39 409.09 294.17 420.88 C 301.55 431.35 317.75 432.64 327.11 424.15 C 334.88 417.72 336.85 405.61 331.80 396.94 C 327.05 388.67 316.58 384.48 307.36 386.48 M 293.31 434.41 C 287.03 435.80 281.88 443.90 286.36 449.61 C 290.37 455.59 300.40 454.38 303.20 447.93 C 305.79 441.61 300.03 433.85 293.31 434.41 M 279.40 454.49 C 275.07 455.22 270.67 457.77 268.99 462.00 C 265.90 468.78 270.79 477.41 277.91 478.95 C 285.02 480.43 292.38 474.14 292.49 466.99 C 292.73 460.14 285.98 454.36 279.40 454.49 M 355.17 455.34 C 345.57 457.74 343.72 472.06 351.92 477.23 C 358.44 482.09 368.53 477.97 370.44 470.25 C 373.35 461.55 363.72 452.56 355.17 455.34 Z"/><path fill="#000000" opacity="1.00" d=" M 617.30 362.43 C 651.97 358.56 684.51 386.57 690.91 419.92 C 697.41 448.74 683.08 481.00 656.69 494.63 C 628.33 509.71 588.70 503.25 569.70 476.33 C 551.24 452.98 549.82 417.99 566.26 393.21 C 577.37 375.81 596.87 364.51 617.30 362.43 M 619.35 386.47 C 606.16 388.31 597.82 403.84 603.21 415.88 C 606.76 422.29 612.64 427.92 619.93 429.66 C 629.66 431.84 640.23 426.19 644.25 417.16 C 648.29 408.80 646.76 397.67 639.51 391.54 C 633.99 387.00 626.35 385.16 619.35 386.47 M 596.38 435.50 C 593.47 437.07 591.15 439.79 590.06 442.91 C 589.08 450.41 598.81 457.65 605.05 451.81 C 614.62 446.57 606.26 430.19 596.38 435.50 M 662.38 454.50 C 653.48 455.78 649.13 468.07 655.32 474.65 C 660.29 480.74 671.07 479.32 674.25 472.10 C 678.78 464.16 671.05 453.81 662.38 454.50 M 585.09 456.30 C 580.29 458.76 576.79 464.48 577.88 469.96 C 579.08 475.43 584.32 479.86 589.99 479.75 C 598.44 480.01 605.83 469.93 601.78 462.13 C 598.78 456.19 591.07 454.42 585.09 456.30 Z"/><path fill="#000000" opacity="1.00" d=" M 962.99 380.86 C 964.84 379.10 965.86 382.75 966.31 384.02 C 968.38 392.68 968.95 402.11 974.30 409.60 C 978.35 415.04 985.75 415.91 990.56 420.39 C 993.20 423.75 987.35 424.95 985.05 425.82 C 973.88 428.47 967.83 440.31 967.66 451.05 C 967.48 453.23 966.08 457.44 963.21 455.87 C 960.46 451.78 960.84 446.57 959.25 442.05 C 957.40 435.36 952.45 429.61 945.99 427.01 C 942.82 425.43 938.92 425.20 936.27 422.70 C 935.72 420.03 939.40 419.31 941.17 418.27 C 949.31 415.24 956.04 408.50 958.14 399.96 C 960.33 393.75 959.44 386.56 962.99 380.86 Z"/><path fill="#000000" opacity="1.00" d=" M 468.35 438.49 C 478.82 437.75 490.96 438.10 498.66 446.34 C 506.02 452.04 504.60 463.55 498.88 469.89 C 494.28 475.32 487.33 477.51 481.04 480.26 C 480.48 488.80 480.32 498.25 485.50 505.56 C 491.20 513.79 503.90 515.90 511.99 510.09 C 518.62 505.22 518.10 495.86 522.92 489.82 C 527.07 487.46 531.95 491.36 532.52 495.66 C 534.84 508.03 526.20 520.31 515.16 525.26 C 501.24 532.11 483.57 526.41 474.22 515.21 C 465.04 527.13 447.79 531.57 433.95 525.73 C 422.34 520.87 414.28 507.55 416.99 495.01 C 417.68 490.83 423.01 487.41 426.64 490.42 C 430.82 495.78 430.51 503.58 435.47 508.51 C 442.92 515.47 455.59 514.77 462.79 507.76 C 471.04 501.19 469.84 489.57 470.20 480.18 C 458.25 478.36 445.64 468.95 445.33 456.02 C 446.58 445.08 458.25 438.90 468.35 438.49 M 472.25 442.41 C 468.41 442.13 464.12 446.35 466.88 450.01 C 472.10 454.87 481.90 453.77 486.10 447.99 C 484.37 442.25 477.28 441.72 472.25 442.41 M 459.07 445.25 C 454.23 447.00 459.27 452.31 462.64 449.51 C 466.27 447.56 461.71 443.76 459.07 445.25 M 488.15 446.36 C 485.86 451.73 493.71 446.22 488.15 446.36 Z"/><path fill="#000000" opacity="1.00" d=" M 264.33 511.48 C 272.75 511.38 281.34 510.68 289.63 512.50 C 294.44 514.28 300.69 517.03 301.02 522.96 C 301.62 526.97 297.40 529.07 294.36 530.41 C 283.42 534.63 271.23 535.60 259.72 533.46 C 254.45 532.21 248.43 530.52 245.41 525.63 C 243.77 522.85 245.36 519.52 247.60 517.62 C 252.26 513.72 258.25 511.55 264.33 511.48 Z"/><path fill="#000000" opacity="1.00" d=" M 663.31 511.46 C 672.45 510.85 682.07 510.82 690.66 514.42 C 694.29 516.14 698.89 518.96 698.52 523.58 C 697.49 527.99 693.04 530.56 689.04 531.91 C 676.19 535.12 662.15 535.86 649.84 530.25 C 645.85 528.55 641.45 523.66 644.25 519.23 C 648.70 513.49 656.51 512.20 663.31 511.46 Z"/><path fill="#000000" opacity="1.00" d=" M 918.33 535.40 C 920.08 535.59 915.36 538.99 913.59 539.16 C 914.39 537.19 916.53 536.26 918.33 535.40 Z"/><path fill="#000000" opacity="1.00" d=" M 890.40 570.49 C 892.43 571.50 891.38 579.98 887.40 579.60 C 887.00 576.31 888.10 572.88 890.40 570.49 Z"/><path fill="#000000" opacity="1.00" d=" M 844.94 573.77 C 848.01 574.78 850.82 578.54 850.94 581.90 C 846.25 583.85 843.13 577.45 844.94 573.77 Z"/><path fill="#000000" opacity="1.00" d=" M 851.22 583.20 C 854.45 582.91 861.28 588.41 857.02 591.03 C 853.71 590.38 850.82 586.62 851.22 583.20 Z"/><path fill="#000000" opacity="1.00" d=" M 884.15 583.32 C 889.60 583.24 879.38 593.33 877.38 588.28 C 878.59 585.71 881.58 584.29 884.15 583.32 Z"/><path fill="#000000" opacity="1.00" d=" M 864.08 589.15 C 866.60 588.28 870.32 588.30 871.86 590.89 C 871.67 595.74 859.59 593.89 864.08 589.15 Z"/><path fill="#000000" opacity="1.00" d=" M 877.07 616.25 C 881.39 617.16 876.14 621.02 877.07 616.25 Z"/><path fill="#000000" opacity="1.00" d=" M 186.44 687.51 C 188.00 685.73 189.70 688.59 190.04 690.01 C 192.18 697.15 191.52 705.41 196.49 711.50 C 199.71 716.19 205.71 717.33 209.63 721.19 C 205.34 726.28 197.23 726.64 193.63 732.59 C 190.46 737.27 191.39 744.06 186.94 747.91 C 184.36 748.10 184.82 743.96 184.15 742.11 C 183.50 733.80 177.10 726.85 169.23 724.59 C 167.78 723.91 163.75 722.92 165.88 720.88 C 171.34 717.20 178.05 714.38 180.68 707.80 C 184.38 701.56 182.76 693.65 186.44 687.51 Z"/><path fill="#000000" opacity="1.00" d=" M 130.41 712.40 C 133.22 712.10 133.92 715.90 134.76 717.93 C 147.20 766.64 143.61 817.29 145.27 867.04 C 145.56 868.00 144.71 870.32 146.51 869.78 C 153.85 835.32 172.21 802.99 198.96 779.87 C 201.23 778.25 203.63 775.64 206.68 776.33 C 208.69 780.62 206.51 785.48 205.66 789.86 C 197.02 820.44 190.50 851.58 185.29 882.92 C 184.15 886.06 184.73 891.94 180.11 891.89 C 161.13 893.75 142.00 893.20 122.96 892.74 C 118.00 891.97 111.63 893.45 107.61 890.35 C 101.19 865.52 100.47 839.57 100.86 814.04 C 101.03 782.92 108.65 751.97 122.11 723.98 C 124.48 719.94 126.15 714.80 130.41 712.40 Z"/><path fill="#000000" opacity="1.00" d=" M 616.24 712.26 C 620.73 710.71 625.46 716.77 623.89 720.86 C 619.72 721.68 615.07 716.20 616.24 712.26 Z"/><path fill="#000000" opacity="1.00" d=" M 633.29 728.36 C 637.50 728.19 642.10 734.50 638.99 737.97 C 635.39 737.76 628.02 730.80 633.29 728.36 Z"/><path fill="#000000" opacity="1.00" d=" M 709.40 800.44 C 714.52 800.78 717.65 805.79 720.69 809.37 C 730.05 822.38 737.23 837.19 740.82 852.85 C 742.29 865.13 743.58 877.72 741.91 890.02 C 733.33 892.55 722.94 892.48 714.35 889.77 C 710.39 862.03 710.14 833.87 707.63 805.97 C 707.79 804.14 706.64 800.60 709.40 800.44 Z"/><path fill="#000000" opacity="1.00" d=" M 50.26 819.32 C 54.86 818.89 58.80 822.13 62.30 824.70 C 82.71 841.83 99.20 865.54 103.04 892.25 C 93.41 892.23 83.52 893.84 74.04 891.87 C 71.33 889.00 70.87 884.48 69.34 880.87 C 63.71 861.93 56.25 843.62 49.79 824.96 C 49.36 823.19 47.78 820.07 50.26 819.32 Z"/><path fill="#000000" opacity="1.00" d=" M 805.23 820.40 C 811.53 820.07 817.88 820.40 824.14 821.12 C 827.24 820.87 828.31 826.45 825.08 826.83 C 818.15 827.49 811.09 827.35 804.17 826.65 C 800.00 826.03 800.81 819.55 805.23 820.40 Z"/><path fill="#000000" opacity="1.00" d=" M 218.31 845.36 C 220.37 843.73 223.90 845.03 223.06 847.99 C 221.56 860.86 216.78 873.14 215.03 885.99 C 214.88 889.91 210.36 890.91 207.26 891.45 C 201.27 892.22 195.06 893.11 189.09 891.84 C 186.81 889.46 188.54 885.82 189.30 883.13 C 195.00 868.12 205.32 854.74 218.31 845.36 Z"/><path fill="#000000" opacity="1.00" d=" M 765.21 854.34 C 768.03 853.33 769.58 856.68 768.93 859.01 C 767.98 869.53 767.12 880.19 764.45 890.43 C 758.26 892.38 751.58 891.36 745.18 891.64 C 745.60 877.39 752.68 861.78 765.21 854.34 Z"/><path fill="#000000" opacity="1.00" d=" M 977.39 854.43 C 980.18 853.91 983.96 857.85 981.30 860.27 C 973.15 870.24 966.46 881.27 960.96 892.90 C 955.95 892.97 950.69 893.56 945.90 891.80 C 943.72 890.72 944.92 887.70 945.32 885.93 C 950.60 871.29 962.65 859.45 977.39 854.43 Z"/><path fill="#000000" opacity="1.00" d=" M 684.36 855.26 C 688.44 853.26 692.60 857.88 695.50 860.49 C 703.28 869.06 709.34 879.77 710.51 891.44 C 704.20 891.32 697.35 892.71 691.34 890.59 C 687.04 883.11 685.98 874.18 683.66 865.94 C 683.14 862.49 680.99 857.87 684.36 855.26 Z"/><path fill="#000000" opacity="1.00" d=" M 26.02 856.11 C 31.12 854.35 36.39 857.24 41.05 859.16 C 53.71 864.77 62.43 876.51 67.76 888.92 C 69.47 892.60 64.33 892.53 62.08 892.89 C 57.30 892.75 51.13 894.20 47.41 890.59 C 41.98 880.94 35.72 871.80 28.71 863.23 C 27.78 861.09 24.19 858.36 26.02 856.11 Z"/><path fill="#000000" opacity="1.00" d=" M 938.45 862.47 C 941.26 861.36 943.95 864.17 943.82 866.93 C 944.04 874.01 943.32 881.14 941.86 888.08 C 941.21 892.39 934.58 892.83 932.14 889.89 C 930.81 884.58 931.85 879.01 932.51 873.67 C 933.30 869.55 933.88 864.15 938.45 862.47 Z"/><path fill="#000000" opacity="1.00" d=" M 234.30 864.38 C 236.90 862.63 241.24 864.48 240.42 867.95 C 239.14 875.38 237.38 882.82 234.63 889.85 C 230.59 891.42 225.06 892.06 221.09 889.97 C 220.99 880.27 226.81 870.36 234.30 864.38 Z"/><path fill="#000000" opacity="1.00" d=" M 887.31 871.46 C 891.40 871.31 895.56 870.77 899.63 871.44 C 901.95 872.46 900.33 875.93 897.99 875.40 C 891.31 875.44 884.68 876.44 878.03 876.60 C 876.25 876.82 874.87 874.78 876.51 873.54 C 879.78 871.73 883.68 871.84 887.31 871.46 Z"/><path fill="#000000" opacity="1.00" d=" M 805.02 872.17 C 813.39 871.18 821.93 871.83 830.31 872.52 C 832.26 872.16 834.41 875.03 831.67 875.59 C 823.80 877.19 815.62 876.04 807.68 875.48 C 805.90 875.65 802.54 873.81 805.02 872.17 Z"/><path fill="#000000" opacity="1.00" d=" M 882.34 880.50 C 887.70 880.53 893.16 879.40 898.46 880.49 C 900.66 881.64 898.79 884.57 896.82 884.63 C 887.98 886.44 878.85 886.53 869.88 885.85 C 868.19 885.66 865.59 885.35 865.95 883.04 C 870.92 880.36 876.88 881.10 882.34 880.50 Z"/><path fill="#000000" opacity="1.00" d=" M 806.38 881.47 C 814.26 879.68 822.69 880.99 830.75 881.42 C 832.76 881.54 837.42 882.61 835.26 885.39 C 826.58 886.74 817.66 885.75 808.95 884.99 C 807.10 885.08 804.18 883.35 806.38 881.47 Z"/></g></svg>