<svg viewBox="0 0 100 100" version="1.1" xmlns="http://www.w3.org/2000/svg"><g transform="translate(3.7100141729951517, 1) scale(0.10365324815433757) translate(-68.44, -39.49)"><path fill="#000000" opacity="1.00" d=" M 212.21 40.24 C 219.97 39.49 223.93 47.79 228.17 52.88 C 261.56 100.87 295.28 148.64 327.80 197.23 C 330.19 200.77 333.65 205.50 330.76 209.73 C 323.51 219.68 314.99 228.63 306.90 237.90 C 272.71 276.39 238.44 314.82 205.04 353.99 C 202.37 357.48 198.82 360.59 197.53 364.91 C 209.72 381.87 223.81 397.49 235.29 414.95 C 226.66 424.07 215.39 430.35 204.66 436.73 C 202.06 437.74 198.24 441.05 195.95 438.06 C 192.70 432.61 191.28 426.29 188.34 420.69 C 186.87 436.58 191.71 452.15 191.96 467.99 C 192.18 492.24 191.29 516.87 184.41 540.30 C 180.20 554.77 174.31 568.68 168.32 582.49 C 165.02 585.17 156.39 577.68 155.33 584.23 C 149.60 612.75 149.09 642.21 152.15 671.07 C 158.78 711.83 174.96 752.56 204.79 781.94 C 205.16 767.44 211.61 753.09 222.81 743.76 C 229.41 738.15 238.81 737.35 246.98 739.16 C 258.28 742.34 265.45 754.55 264.66 765.95 C 263.65 775.67 258.18 784.00 252.78 791.83 C 265.15 792.92 280.12 792.56 288.21 803.82 C 297.33 814.41 295.08 832.72 282.21 839.24 C 267.86 847.68 251.13 841.03 237.80 833.90 C 255.49 854.52 281.11 868.12 308.11 871.20 C 331.04 873.96 355.02 873.08 376.80 865.00 C 373.65 837.17 372.89 808.42 379.93 781.05 C 380.32 777.03 377.37 773.74 375.80 770.26 C 369.15 758.36 365.99 744.59 367.06 730.97 C 368.84 703.07 380.55 676.76 395.26 653.36 C 395.85 652.43 396.08 651.45 395.94 650.39 C 383.02 642.02 370.12 633.55 357.91 624.14 C 333.94 604.72 313.78 579.40 304.33 549.73 C 301.70 541.99 300.76 533.83 298.76 525.94 C 292.43 526.59 286.58 529.63 280.20 529.97 C 280.68 504.15 293.01 480.48 308.05 460.18 C 303.27 460.16 298.50 460.70 293.73 460.94 C 302.89 450.05 316.26 443.99 328.75 437.79 C 332.36 435.65 338.82 435.40 338.77 429.98 C 346.02 404.71 358.58 381.10 370.80 358.11 C 362.36 344.79 352.39 331.53 350.52 315.34 C 348.09 293.51 349.58 270.36 359.52 250.42 C 372.60 225.03 393.93 203.39 420.70 192.71 C 434.86 186.41 450.72 186.19 465.95 186.70 C 478.33 186.99 490.08 191.46 501.07 196.83 C 518.64 205.29 531.68 220.47 543.47 235.55 C 545.45 238.44 549.21 237.79 552.08 236.91 C 544.62 227.04 535.86 218.21 527.94 208.72 C 552.79 205.58 578.36 205.72 602.86 211.22 C 600.31 201.26 597.93 191.17 597.00 180.92 C 630.69 189.03 661.93 209.59 681.36 238.56 C 683.56 242.46 688.39 242.29 692.11 243.72 C 715.69 250.40 737.46 262.04 757.95 275.20 C 776.66 251.58 806.40 235.39 837.01 237.00 C 845.36 237.14 853.82 236.58 862.07 238.15 C 880.56 242.31 897.53 251.87 911.77 264.23 C 945.12 294.07 961.61 343.07 949.54 386.66 C 942.77 413.12 925.12 437.06 900.75 449.81 C 891.13 455.13 880.39 457.68 869.82 460.33 C 869.30 462.21 869.86 464.14 870.20 466.01 C 874.24 482.57 877.78 499.30 879.62 516.26 C 880.03 519.31 882.03 521.76 883.78 524.17 C 888.90 530.94 892.37 538.76 895.67 546.53 C 892.91 546.97 886.28 543.79 887.41 548.89 C 893.18 571.70 895.09 595.97 889.54 619.01 C 883.28 616.29 878.38 610.99 872.13 608.38 C 868.21 612.14 866.87 618.18 863.50 622.57 C 844.73 650.78 813.98 668.01 783.13 680.09 C 808.15 733.46 828.85 791.17 825.99 851.01 C 825.58 861.35 824.17 871.67 821.56 881.70 C 821.27 883.60 820.03 886.53 822.49 887.48 C 834.61 890.46 847.35 887.06 857.97 881.01 C 865.07 877.38 874.76 873.31 881.82 879.13 C 889.89 885.74 890.32 897.77 885.33 906.38 C 875.65 924.44 857.42 936.49 838.62 943.50 C 821.90 949.36 803.78 949.01 786.45 947.04 C 785.45 959.14 778.30 970.92 766.93 975.85 C 756.33 982.60 743.01 976.75 731.98 981.96 C 724.29 984.46 715.35 984.95 708.08 980.92 C 705.87 979.95 703.69 978.10 701.15 978.63 C 684.09 982.63 664.33 977.81 652.89 964.02 C 650.77 962.18 649.36 958.36 645.99 959.10 C 613.36 960.48 580.61 960.43 548.08 957.36 C 542.06 956.91 536.08 955.37 530.03 955.86 C 525.54 961.71 520.33 967.31 513.73 970.79 C 503.26 976.38 490.79 976.40 479.35 974.52 C 471.68 972.01 464.73 977.96 457.01 977.07 C 448.44 977.93 441.50 970.85 432.96 972.07 C 418.75 972.48 404.88 963.89 399.42 950.68 C 397.06 940.04 399.03 928.64 405.94 920.04 C 396.47 907.99 387.06 894.76 381.97 880.54 C 349.28 889.86 313.68 890.77 280.95 881.10 C 252.03 872.85 227.83 851.64 213.43 825.53 C 212.69 824.52 211.64 822.71 210.14 823.73 C 200.46 827.08 189.62 828.38 179.70 825.27 C 169.45 821.80 163.34 809.45 167.37 799.29 C 170.96 791.82 178.57 787.01 186.60 785.68 C 172.17 769.32 161.43 750.05 152.89 730.06 C 133.65 685.60 130.81 635.14 140.10 587.93 C 140.50 585.09 141.42 582.16 140.65 579.32 C 132.17 576.47 122.81 576.13 114.70 572.08 C 112.86 569.20 119.34 566.56 115.76 564.30 C 104.46 555.47 92.88 546.51 83.79 535.36 C 89.24 531.11 95.51 528.08 101.26 524.27 C 138.39 501.17 167.03 462.99 173.67 419.22 C 167.99 422.14 165.84 430.17 160.13 433.76 C 147.25 426.59 137.61 414.83 127.02 404.78 C 139.96 389.03 157.34 376.84 171.87 362.35 C 138.62 305.34 106.42 247.72 73.25 190.67 C 71.32 187.02 68.44 181.86 72.32 178.42 C 88.15 160.60 105.68 144.38 122.20 127.20 C 148.60 101.27 174.52 74.84 201.23 49.22 C 204.80 46.15 207.92 42.35 212.21 40.24 M 212.33 68.36 C 207.93 70.74 204.60 74.61 200.91 77.90 C 168.03 109.97 135.71 142.61 103.38 175.22 C 132.61 175.76 161.91 174.75 191.07 177.33 C 194.21 176.96 200.23 179.67 200.90 175.11 C 204.99 143.16 205.93 110.86 210.71 78.99 C 210.21 74.58 218.57 71.62 212.33 68.36 M 217.44 78.49 C 215.95 79.79 214.81 81.55 214.35 83.47 C 216.51 83.57 218.76 83.61 220.79 82.74 C 221.60 80.90 219.53 77.16 217.44 78.49 M 224.23 87.22 C 221.64 88.80 217.47 91.27 217.64 94.49 C 220.92 93.52 224.41 92.30 226.79 89.70 C 227.14 88.14 225.97 86.18 224.23 87.22 M 229.37 95.28 C 225.16 98.55 221.15 102.27 218.00 106.59 C 223.11 105.01 227.97 102.37 232.07 98.93 C 233.92 97.64 231.23 93.95 229.37 95.28 M 235.44 106.40 C 230.79 109.83 226.64 114.14 223.76 119.18 C 228.95 116.50 233.98 113.16 237.94 108.83 C 239.93 107.17 237.12 104.08 235.44 106.40 M 243.43 115.44 C 239.46 119.82 233.97 124.60 232.44 130.00 C 237.52 127.17 241.60 122.55 245.14 117.97 C 246.46 117.00 244.82 113.82 243.43 115.44 M 251.16 126.30 C 246.97 129.31 244.24 134.07 241.82 138.55 C 246.53 135.91 251.73 131.43 252.22 125.73 L 251.16 126.30 M 258.46 137.43 C 255.64 140.55 253.23 144.20 251.81 148.19 C 254.84 145.74 257.50 142.81 259.64 139.55 C 260.97 138.13 260.44 134.93 258.46 137.43 M 99.33 185.45 C 98.38 185.92 94.61 185.02 96.06 186.92 C 106.90 207.20 118.42 227.12 129.99 246.99 C 147.19 277.11 164.09 307.40 181.78 337.24 C 182.96 339.23 184.23 341.17 185.86 342.83 C 187.84 337.23 187.64 331.16 188.47 325.33 C 192.47 279.66 197.32 233.99 199.07 188.18 C 165.95 185.02 132.56 184.37 99.33 185.45 M 209.85 188.86 C 209.13 190.61 209.25 193.25 211.69 193.40 C 225.92 196.49 240.58 197.32 254.82 200.38 C 255.94 202.10 253.41 204.18 252.92 206.00 C 256.94 202.14 262.61 199.74 268.02 202.36 C 265.21 209.50 258.92 214.55 255.59 221.41 C 262.08 216.69 266.84 210.00 273.29 205.25 C 275.05 203.73 278.36 203.33 279.39 205.87 C 271.74 216.06 263.36 225.76 256.03 236.22 C 266.98 226.82 275.42 214.58 287.13 206.07 C 284.49 214.11 276.63 219.13 272.79 226.58 C 281.33 221.01 286.89 211.43 296.13 206.94 C 296.09 210.13 293.34 212.23 291.60 214.60 C 263.84 246.60 237.06 279.43 210.53 312.46 C 208.85 314.58 207.10 316.68 205.83 319.09 C 236.03 287.14 264.00 253.12 293.50 220.51 C 297.77 215.45 302.52 210.71 306.06 205.09 C 299.39 202.34 292.12 201.66 285.10 200.24 C 260.06 196.20 235.12 191.19 209.85 188.86 M 449.30 205.40 C 435.15 207.05 421.14 212.56 410.01 221.35 C 422.88 215.09 438.76 214.26 451.33 221.76 C 467.24 230.48 474.99 248.58 476.53 265.96 C 488.65 258.92 501.72 253.19 515.28 249.33 C 517.29 248.70 520.97 247.45 519.51 244.67 C 514.95 235.43 507.70 227.70 499.45 221.61 C 485.12 211.12 467.30 203.80 449.30 205.40 M 621.70 208.33 C 627.21 222.36 634.49 235.71 639.84 249.84 C 633.63 247.52 627.95 244.01 621.95 241.20 C 604.02 231.93 584.14 226.75 564.09 224.98 C 577.44 236.51 593.33 244.57 608.02 254.16 C 590.00 255.18 571.74 254.72 554.05 258.88 C 512.80 268.02 473.01 286.11 440.86 313.79 C 422.28 330.51 404.11 348.14 389.77 368.73 C 375.20 391.89 363.04 417.00 356.64 443.69 C 353.04 448.51 346.84 450.47 342.45 454.50 C 325.66 468.23 311.03 485.46 303.09 505.84 C 312.30 501.91 321.01 496.78 330.45 493.37 C 322.45 502.26 322.20 514.74 322.53 526.04 C 323.26 540.16 329.86 553.07 336.86 565.05 C 345.80 580.28 358.49 592.84 371.93 604.12 C 404.74 631.47 444.05 649.26 482.96 666.07 C 489.35 669.02 496.34 670.86 502.17 674.91 C 497.17 675.90 492.08 674.79 487.11 674.17 C 464.85 671.02 442.98 665.61 421.45 659.28 C 408.22 672.67 399.27 689.83 393.50 707.62 C 388.40 723.73 387.24 742.28 395.39 757.61 C 401.48 769.67 413.38 777.88 426.07 781.77 C 445.75 787.78 467.52 784.73 485.60 775.24 C 483.69 770.64 480.22 766.30 480.70 761.05 C 481.27 757.04 483.26 753.43 485.01 749.84 C 487.43 754.86 489.56 760.31 494.03 763.93 C 498.68 768.48 506.67 768.49 511.81 764.86 C 516.38 758.61 511.86 751.16 509.97 744.83 C 514.21 748.53 517.00 753.63 518.92 758.86 C 528.25 752.16 521.91 739.51 514.64 733.97 C 519.53 735.22 524.10 737.82 527.35 741.73 C 529.92 733.13 526.31 723.13 518.84 718.15 C 507.55 710.14 489.54 714.30 483.51 726.95 C 472.78 718.68 459.60 714.93 447.67 709.13 C 453.96 710.16 460.50 710.51 466.32 713.36 C 457.54 704.47 444.48 701.66 432.78 698.45 C 448.26 690.21 467.91 694.89 481.74 704.60 C 497.77 695.02 521.30 695.26 534.91 709.12 C 537.91 712.04 539.56 716.08 542.71 718.87 C 546.64 715.44 549.82 711.05 554.62 708.69 C 572.09 699.30 595.60 703.54 608.48 718.73 C 628.38 708.74 652.90 707.18 673.92 714.53 C 673.78 714.71 673.49 715.08 673.34 715.27 C 653.52 715.56 634.08 721.73 616.71 731.03 C 620.99 731.01 624.96 729.04 629.23 728.89 C 620.93 732.76 611.14 734.39 602.67 738.55 C 598.88 740.75 597.76 735.84 596.48 733.39 C 590.84 721.04 573.99 717.86 562.58 723.62 C 553.64 728.80 545.71 739.16 549.04 749.99 C 552.45 747.66 555.79 744.38 560.28 744.82 C 554.63 749.76 549.87 759.56 554.98 766.29 C 558.58 762.67 560.05 756.06 565.18 753.20 C 563.82 759.49 559.86 766.35 563.15 772.71 C 566.37 776.36 572.34 775.38 576.18 773.19 C 581.24 770.71 582.17 764.61 585.48 760.77 C 587.18 772.21 595.27 781.40 605.40 786.47 C 618.09 792.99 631.88 798.44 646.35 798.50 C 670.24 800.00 695.20 796.55 715.96 783.98 C 722.05 780.69 727.09 775.85 733.11 772.48 C 724.16 788.89 709.61 801.77 693.04 810.19 C 675.02 819.99 653.52 820.72 633.63 818.06 C 633.69 819.67 635.31 820.62 636.19 821.85 C 640.88 826.55 640.14 834.33 645.25 838.76 C 650.23 843.26 652.39 850.44 651.02 856.99 C 649.83 863.61 649.93 871.01 645.43 876.48 C 637.94 885.25 624.36 889.85 613.68 884.24 C 609.99 882.74 608.10 878.74 604.26 877.53 C 596.40 873.62 595.48 864.02 590.19 857.82 C 580.88 837.96 571.35 818.17 561.22 798.71 C 559.34 795.43 557.68 791.59 554.06 789.90 C 545.06 785.25 539.07 776.57 534.86 767.62 C 530.00 776.71 521.46 784.37 510.96 785.82 C 503.99 786.34 500.67 793.08 496.85 797.95 C 472.80 829.23 441.35 854.77 405.77 871.83 C 404.61 872.38 402.67 873.23 404.06 874.85 C 409.14 886.24 415.59 897.63 425.91 905.08 C 437.07 913.54 451.19 917.22 461.95 926.25 C 452.23 923.74 442.02 922.75 432.05 924.29 C 423.37 926.09 414.84 935.19 418.43 944.43 C 421.21 949.40 427.60 953.50 433.32 952.39 C 434.99 943.94 439.26 934.82 447.18 930.66 C 443.80 937.39 442.18 945.63 445.14 952.80 C 448.74 958.82 457.29 959.13 463.34 957.37 C 471.05 954.23 471.47 944.83 473.16 937.87 C 476.20 943.63 479.19 949.39 481.24 955.58 C 490.72 956.93 503.15 956.06 508.47 947.05 C 490.67 932.82 471.11 919.33 459.28 899.30 C 473.82 907.88 489.26 914.90 504.95 921.10 C 520.32 925.88 536.12 929.38 552.05 931.63 C 573.33 933.25 594.70 933.04 616.02 932.63 C 646.99 933.11 676.24 921.07 704.53 909.88 C 693.96 921.85 681.50 932.00 669.69 942.71 C 668.00 943.97 667.34 946.34 668.86 948.02 C 674.88 957.34 686.84 960.28 697.28 960.55 C 699.86 955.15 701.34 949.29 703.93 943.91 C 707.51 946.02 706.52 951.41 708.20 954.90 C 712.47 968.82 737.94 965.78 738.31 950.97 C 738.97 944.33 736.13 938.19 732.76 932.70 C 742.21 937.92 746.25 949.20 747.65 959.35 C 754.52 960.39 763.26 957.59 764.85 950.01 C 766.28 939.26 757.25 929.20 746.95 927.29 C 733.86 924.61 719.62 924.37 707.18 929.83 C 707.60 926.71 711.79 925.82 713.97 923.92 C 725.84 915.73 740.97 915.78 754.73 917.38 C 761.78 918.22 767.47 922.66 772.99 926.73 C 795.91 904.09 804.26 870.37 803.38 838.97 C 803.73 816.32 799.33 793.91 793.85 772.03 C 785.50 741.18 773.58 710.92 755.40 684.47 C 727.75 687.89 699.23 688.70 671.99 681.86 C 671.28 681.77 668.43 680.05 670.95 680.12 C 700.02 674.13 729.61 670.02 757.96 660.94 C 783.22 652.75 807.90 641.46 828.61 624.60 C 837.79 616.76 846.70 607.58 850.66 595.92 C 852.61 585.03 847.89 574.57 845.18 564.26 C 855.74 569.69 864.68 579.14 874.57 586.16 C 870.68 560.47 851.17 539.98 830.68 525.67 C 843.19 525.38 855.23 529.58 867.31 532.27 C 865.09 525.35 856.79 521.81 856.60 514.05 C 853.80 483.50 845.00 453.92 837.42 424.37 C 850.25 429.92 864.94 429.90 878.31 426.42 C 906.34 418.20 924.48 388.55 922.69 359.96 C 922.57 329.33 896.63 300.69 865.73 299.31 C 878.12 303.35 892.76 305.88 901.28 316.76 C 885.21 308.97 866.11 304.99 848.81 310.52 C 869.00 310.44 891.00 315.25 905.08 330.66 C 889.98 319.90 870.53 317.40 852.47 319.55 C 852.32 319.81 852.02 320.32 851.87 320.58 C 871.70 321.89 892.60 328.13 906.46 343.02 C 887.07 331.39 863.86 325.52 841.35 329.45 C 849.96 332.38 860.18 330.58 869.04 333.92 C 880.11 338.09 891.46 342.97 900.14 351.23 C 879.75 341.77 856.52 334.62 834.07 339.77 C 855.68 338.98 876.61 348.86 891.36 364.27 C 885.81 362.80 880.98 359.49 875.65 357.41 C 862.65 351.51 847.17 348.91 833.67 354.74 C 831.59 355.80 828.57 356.81 828.21 359.47 C 837.69 361.35 850.98 362.83 855.32 372.43 C 846.86 371.80 838.32 370.93 829.87 372.08 C 831.78 382.93 831.87 394.01 831.04 404.99 C 821.20 386.39 811.92 367.39 800.21 349.84 C 798.29 346.93 796.30 344.03 794.89 340.84 C 798.01 343.27 800.27 346.57 803.17 349.25 C 804.73 329.81 814.19 311.54 827.59 297.59 C 840.46 284.17 860.28 276.72 878.66 281.47 C 889.31 283.59 898.04 290.25 907.30 295.40 C 891.72 274.46 867.91 257.79 841.03 257.41 C 814.15 255.61 785.23 269.17 772.80 293.69 C 767.99 301.73 770.19 311.28 768.73 320.06 C 749.14 293.99 720.88 275.41 690.34 264.57 C 685.04 263.00 679.83 259.84 674.13 260.69 C 660.54 240.04 643.62 220.27 621.70 208.33 M 415.38 242.53 C 398.30 243.95 385.75 258.41 380.82 273.91 C 374.15 293.60 375.27 318.16 390.08 333.91 C 394.42 331.14 397.49 326.75 401.13 323.14 C 415.38 307.32 432.30 294.33 449.29 281.66 C 432.29 276.82 412.98 277.26 396.86 285.02 C 409.91 272.87 428.70 268.34 446.22 268.32 C 448.53 268.25 445.40 266.54 444.62 266.48 C 428.17 261.10 410.24 263.60 394.29 269.47 C 410.23 255.89 433.42 255.81 452.41 262.07 C 437.32 252.04 417.77 250.83 400.53 255.25 C 410.04 247.32 423.28 247.71 434.97 247.94 C 440.56 247.85 445.94 249.34 451.24 250.93 C 440.83 244.00 427.79 241.01 415.38 242.53 M 176.40 375.41 C 164.78 384.05 154.75 394.61 144.45 404.73 C 148.73 408.66 152.78 413.00 157.69 416.15 C 165.56 405.87 174.09 395.01 175.55 381.67 C 175.61 379.96 177.72 375.21 176.40 375.41 M 191.14 377.49 C 191.21 393.01 196.23 408.45 203.97 421.78 C 208.94 419.43 213.74 416.58 218.02 413.13 C 209.50 400.98 201.22 388.33 191.14 377.49 M 168.30 473.45 C 153.68 499.58 131.29 520.73 106.80 537.45 C 112.57 541.90 117.97 546.90 124.17 550.74 C 146.84 530.45 162.18 502.23 168.93 472.69 L 168.30 473.45 M 180.48 475.41 C 176.78 486.66 173.72 498.16 169.12 509.10 C 161.45 528.19 149.23 544.90 135.90 560.40 C 143.80 560.40 151.64 561.82 159.12 564.33 C 162.09 562.02 163.13 558.14 164.78 554.90 C 175.45 529.62 180.64 502.09 180.74 474.70 L 180.48 475.41 M 237.40 754.46 C 228.04 756.81 223.56 767.23 222.11 775.92 C 221.87 783.56 220.07 791.88 223.08 799.11 C 236.01 792.14 245.85 778.69 247.76 764.03 C 248.82 758.06 243.26 752.93 237.40 754.46 M 581.49 793.08 C 584.10 805.12 593.50 815.06 595.05 827.41 C 587.35 817.79 583.62 805.59 576.68 795.42 C 576.34 794.29 573.32 792.31 574.28 794.84 C 579.53 807.79 586.89 819.77 593.39 832.11 C 599.02 827.32 604.10 820.52 612.08 819.89 C 613.87 819.31 618.01 820.25 617.55 817.24 C 617.19 811.67 610.55 811.34 606.66 809.30 C 597.00 805.53 589.25 798.63 581.56 791.97 L 581.49 793.08 M 400.88 793.69 C 397.24 809.15 397.67 825.21 397.82 840.99 C 398.27 846.48 397.59 852.36 399.76 857.51 C 427.68 844.76 452.33 825.07 471.82 801.47 C 458.85 804.86 445.37 805.70 432.01 804.38 C 420.78 803.69 411.08 797.68 400.88 793.69 M 186.22 800.32 C 182.35 801.20 179.86 806.80 183.55 809.43 C 190.12 814.20 199.27 813.78 206.73 811.57 C 208.83 800.70 193.96 798.05 186.22 800.32 M 250.28 807.40 C 244.64 809.18 236.76 809.06 232.95 813.59 C 243.57 822.34 258.06 828.30 271.92 825.12 C 276.83 824.29 279.07 817.88 275.89 814.10 C 269.86 806.74 259.08 805.50 250.28 807.40 M 614.29 826.37 C 606.52 826.78 600.83 833.23 598.23 840.07 C 597.38 842.30 597.89 845.16 600.17 846.34 C 600.84 843.79 601.17 841.16 601.92 838.64 C 608.02 841.52 612.13 835.46 616.24 832.15 C 619.81 829.67 621.66 835.06 624.93 834.87 C 627.41 828.56 619.81 824.03 614.29 826.37 M 621.36 841.50 C 613.11 844.20 601.85 853.43 608.06 862.78 C 612.73 853.65 622.47 846.05 632.98 846.06 C 631.99 840.26 626.04 839.37 621.36 841.50 M 631.40 854.51 C 625.57 855.46 620.12 858.81 616.60 863.54 C 614.92 865.62 614.11 869.23 616.94 870.76 C 618.40 861.73 627.81 857.76 635.92 856.97 C 638.52 854.21 633.35 853.87 631.40 854.51 M 632.39 864.42 C 629.36 865.64 624.68 866.67 623.71 870.03 C 627.65 872.22 633.59 870.38 635.32 866.13 C 635.14 864.74 633.62 863.99 632.39 864.42 M 866.44 898.41 C 850.19 905.43 832.02 908.31 814.56 904.41 C 812.01 911.22 807.88 917.58 806.09 924.57 C 827.92 927.56 852.91 920.65 865.76 901.73 C 866.06 900.72 868.74 898.28 866.44 898.41 Z"/><path fill="#000000" opacity="1.00" d=" M 488.28 301.38 C 493.71 299.87 501.10 300.49 503.75 306.27 C 507.01 310.87 502.55 317.24 497.37 317.52 C 489.51 318.64 482.30 322.01 474.93 324.70 C 469.21 327.17 464.24 320.06 466.97 315.09 C 470.91 307.01 480.20 303.73 488.28 301.38 Z"/><path fill="#000000" opacity="1.00" d=" M 678.27 322.34 C 685.40 321.25 691.83 325.60 697.20 329.74 C 702.13 333.85 707.64 338.26 709.49 344.68 C 711.07 351.37 701.75 357.43 696.55 352.39 C 689.95 347.04 682.67 342.73 675.18 338.78 C 667.94 335.15 670.36 323.34 678.27 322.34 Z"/><path fill="#000000" opacity="1.00" d=" M 443.33 345.48 C 455.18 344.85 467.55 347.58 477.18 354.78 C 489.04 363.51 496.20 377.59 498.09 392.04 C 502.16 420.73 484.54 451.58 457.08 461.41 C 464.07 454.17 471.85 447.30 476.47 438.19 C 467.16 445.54 457.32 453.49 445.06 454.96 C 435.44 455.65 425.35 454.69 416.61 450.36 C 405.56 444.45 398.71 433.31 394.14 422.03 C 393.59 437.19 401.02 452.97 414.65 460.32 C 420.55 464.04 427.77 464.62 433.82 467.89 C 423.09 468.85 411.53 467.97 402.60 461.31 C 378.88 445.82 375.44 411.27 387.51 387.41 C 398.40 366.24 418.16 346.28 443.33 345.48 M 437.28 359.35 C 429.81 361.37 422.75 365.89 418.60 372.52 C 413.64 381.68 417.02 394.70 426.25 399.80 C 431.12 402.19 436.75 402.49 442.06 401.92 C 455.36 400.61 465.81 385.48 461.33 372.69 C 457.33 363.89 447.12 357.01 437.28 359.35 M 461.34 404.49 C 455.12 407.14 452.75 416.31 457.76 421.20 C 462.84 427.40 473.57 423.39 475.18 416.07 C 477.86 408.62 468.26 400.82 461.34 404.49 M 424.17 408.24 C 419.34 409.64 419.84 417.76 424.97 418.30 C 431.33 418.32 430.84 405.95 424.17 408.24 Z"/><path fill="#000000" opacity="1.00" d=" M 676.35 376.49 C 707.70 373.23 739.38 392.81 750.93 422.06 C 756.07 432.58 756.61 444.48 756.28 455.98 C 756.62 477.88 743.27 498.76 724.38 509.35 C 708.29 518.92 687.88 520.81 670.30 514.44 C 670.19 514.18 669.98 513.65 669.87 513.38 C 684.09 513.53 698.80 512.34 711.60 505.58 C 727.20 496.57 740.25 480.73 740.61 462.03 C 737.93 463.19 737.97 467.25 735.96 469.35 C 734.94 459.90 738.25 449.09 734.40 440.47 C 735.28 458.82 727.98 477.85 712.89 488.90 C 696.43 501.16 673.05 504.86 654.29 495.77 C 641.58 489.68 631.98 478.65 625.16 466.57 C 626.66 473.10 628.90 479.44 631.27 485.70 C 633.75 492.04 638.90 496.79 641.85 502.85 C 623.25 492.45 611.23 471.33 611.68 449.98 C 610.38 413.95 640.30 379.48 676.35 376.49 M 674.33 391.45 C 666.79 391.54 660.31 396.04 655.56 401.56 C 646.33 410.91 647.90 428.70 659.45 435.54 C 666.97 441.20 676.95 440.58 685.64 438.54 C 696.04 435.49 703.95 424.96 703.01 413.98 C 702.61 399.90 687.64 389.99 674.33 391.45 M 702.36 443.50 C 693.92 445.64 691.18 457.42 698.11 462.87 C 704.54 470.31 718.76 463.80 717.29 454.07 C 716.11 447.70 709.05 441.41 702.36 443.50 M 663.22 448.34 C 656.12 450.03 661.00 460.83 666.89 458.03 C 673.14 456.14 669.77 444.76 663.22 448.34 Z"/><path fill="#000000" opacity="1.00" d=" M 516.28 445.39 C 531.24 443.34 547.12 446.84 559.60 455.40 C 567.25 460.40 571.37 472.32 564.77 479.75 C 556.19 489.47 543.97 495.22 531.67 498.65 C 527.41 500.06 529.75 505.58 530.45 508.67 C 536.10 526.12 558.23 534.97 574.38 526.37 C 582.31 522.62 585.95 511.83 580.83 504.41 C 589.34 508.74 595.12 520.29 590.18 529.24 C 586.60 536.23 579.99 542.44 571.88 543.20 C 569.66 543.01 569.24 545.38 568.90 547.03 C 566.38 559.36 561.83 571.35 555.08 581.99 C 549.09 591.73 538.30 598.28 526.93 599.26 C 517.42 600.12 508.94 593.77 503.43 586.60 C 493.49 571.65 489.21 553.82 486.58 536.30 C 486.27 531.77 481.27 531.41 478.00 530.03 C 467.21 525.99 459.85 514.42 461.08 502.91 C 461.60 494.74 468.10 487.64 475.99 485.84 C 474.38 489.95 470.86 493.38 470.85 498.02 C 470.72 505.63 475.55 513.62 483.06 515.86 C 488.21 517.44 493.81 517.45 499.05 516.31 C 508.29 514.24 514.64 505.71 517.25 497.06 C 503.02 492.26 491.19 477.56 492.66 462.10 C 494.41 451.01 506.35 446.25 516.28 445.39 M 515.34 456.43 C 512.82 457.07 510.21 457.71 508.08 459.27 C 506.32 462.52 510.20 464.97 512.60 466.37 C 524.38 472.48 538.79 470.85 550.61 465.70 C 542.39 455.64 527.35 454.32 515.34 456.43 M 504.90 468.75 C 506.70 478.88 517.25 486.55 527.33 486.68 C 517.66 484.16 509.16 477.96 504.90 468.75 M 534.23 549.31 C 521.97 551.57 511.36 564.28 514.87 576.98 C 516.47 584.11 525.01 586.90 531.35 584.45 C 542.79 580.62 548.90 568.88 551.84 557.93 C 552.22 555.71 554.53 551.74 551.32 550.75 C 545.90 548.80 539.90 548.23 534.23 549.31 Z"/><path fill="#000000" opacity="1.00" d=" M 354.35 465.43 C 368.41 463.37 386.40 463.67 395.26 476.74 C 398.85 482.88 391.63 487.70 386.25 488.36 C 372.86 490.87 356.32 488.83 346.93 478.03 C 342.00 472.53 348.85 466.34 354.35 465.43 Z"/><path fill="#000000" opacity="1.00" d=" M 715.36 527.48 C 725.08 526.42 735.14 527.89 744.07 531.90 C 749.30 534.18 754.16 538.27 755.55 544.03 C 754.40 549.11 748.87 551.26 744.37 552.49 C 732.84 555.78 720.66 552.64 710.06 547.82 C 705.85 545.64 700.65 542.33 700.69 537.02 C 702.24 530.55 709.51 528.22 715.36 527.48 Z"/><path fill="#000000" opacity="1.00" d=" M 759.40 866.83 C 760.50 872.38 756.27 878.45 751.82 881.56 C 751.57 875.94 755.92 870.97 759.40 866.83 Z"/></g></svg>