<svg viewBox="0 0 100 100" version="1.1" xmlns="http://www.w3.org/2000/svg"><g transform="translate(1.0277027103427159, 1) scale(0.11081084137088841) translate(-93.32, -46.41)"><path fill="#000000" opacity="1.00" d=" M 103.06 48.90 C 106.25 48.76 109.48 48.59 112.66 49.07 C 113.23 52.77 113.25 56.54 114.24 60.17 C 118.44 56.66 118.05 46.41 125.76 49.13 C 122.79 58.81 119.00 68.32 117.52 78.39 C 116.36 86.19 117.81 94.03 119.30 101.67 C 124.07 92.75 128.07 83.36 132.27 74.15 C 132.86 65.85 132.42 57.40 131.34 49.13 C 134.49 48.80 140.76 47.39 140.61 52.24 C 146.47 95.86 151.96 139.53 158.17 183.11 C 168.96 269.88 182.26 356.31 193.95 442.96 C 194.58 446.20 194.56 449.68 195.98 452.71 C 206.70 454.14 217.03 461.16 219.92 471.98 C 222.91 480.39 219.35 489.16 214.73 496.20 C 217.50 500.07 221.06 503.91 223.72 508.12 C 226.10 488.95 237.08 470.80 253.89 461.00 C 254.62 442.05 253.76 423.01 255.81 404.12 C 257.86 390.16 260.35 376.20 264.45 362.69 C 257.45 360.85 250.10 361.02 243.06 359.29 C 216.15 353.88 194.72 333.14 182.76 309.19 C 164.34 268.31 168.78 216.71 197.73 181.73 C 215.55 159.32 244.39 146.34 273.00 147.97 C 293.42 147.68 313.13 157.32 327.14 171.86 C 339.54 184.39 347.57 200.44 353.48 216.86 C 356.48 215.56 359.06 213.52 361.79 211.75 C 382.77 197.28 406.15 186.56 430.23 178.39 C 432.98 177.40 435.84 176.11 437.39 173.48 C 450.63 154.03 469.57 138.55 491.23 129.39 C 495.50 127.57 501.97 126.39 504.65 131.27 C 506.94 137.35 502.11 142.91 500.96 148.67 C 512.83 144.75 525.41 142.32 537.94 142.76 C 542.27 142.56 546.59 146.99 544.54 151.34 C 541.41 158.04 534.83 162.19 529.37 166.85 C 555.01 167.15 580.80 170.35 605.01 179.11 C 611.01 180.99 616.71 183.82 622.86 185.19 C 625.99 163.12 632.30 139.92 649.29 124.29 C 665.17 106.69 689.66 98.98 712.94 100.84 C 753.12 101.70 787.36 132.49 801.28 168.82 C 814.68 201.56 812.59 241.57 792.07 270.97 C 781.54 286.30 765.25 297.06 747.82 302.88 C 762.80 330.26 772.62 360.19 778.07 390.88 C 785.28 393.31 792.03 396.84 798.85 400.13 C 802.03 389.48 810.59 379.23 822.34 378.43 C 825.57 378.54 825.14 374.57 825.53 372.37 C 827.68 329.90 830.36 287.45 833.00 245.01 C 837.49 179.76 840.86 114.40 846.14 49.22 C 850.84 48.52 855.64 48.76 860.37 49.17 C 857.30 57.58 849.11 68.71 856.97 76.75 C 864.12 69.05 871.47 60.22 871.38 49.08 C 874.51 48.58 877.71 48.75 880.88 48.91 C 881.09 54.93 880.52 60.95 880.30 66.97 C 875.05 167.36 868.41 267.67 862.83 368.05 C 862.62 373.47 862.24 378.91 862.57 384.33 C 876.43 388.00 884.46 404.74 879.32 417.99 C 878.08 422.79 874.21 426.02 871.52 429.94 C 878.19 439.15 880.29 450.98 877.89 462.03 C 875.28 469.30 869.25 474.73 863.06 479.03 C 862.93 480.38 863.00 481.72 863.26 483.06 C 880.79 564.15 896.33 645.68 912.95 726.95 C 930.24 741.33 948.71 754.44 965.37 769.63 C 976.91 781.34 977.21 799.44 974.53 814.65 C 972.38 824.37 966.74 834.28 957.21 838.31 C 951.14 840.88 944.56 841.89 938.08 842.90 C 785.09 862.54 632.09 882.11 479.00 900.98 C 411.32 909.12 343.74 918.10 276.12 926.74 C 262.41 928.40 248.57 930.80 234.73 929.45 C 222.57 927.74 214.72 917.33 207.40 908.52 C 170.22 861.40 132.69 814.57 95.69 767.32 C 94.76 765.97 93.32 764.71 93.49 762.94 C 93.60 743.57 93.32 724.17 93.63 704.80 C 106.99 693.66 125.71 696.49 141.53 692.58 C 146.21 650.76 150.27 608.86 154.59 567.00 C 154.87 561.99 156.00 556.94 155.38 551.94 C 145.45 545.74 138.78 532.41 144.27 521.19 C 147.87 515.97 141.72 510.55 144.01 505.01 C 146.74 498.47 139.14 494.79 137.86 488.98 C 132.37 474.80 142.45 458.22 156.90 454.95 C 157.46 450.25 156.46 445.57 155.88 440.92 C 138.15 310.27 119.92 179.67 103.06 48.90 M 869.42 72.52 C 855.28 82.34 850.07 100.72 850.04 117.22 C 856.42 110.76 862.37 103.69 867.15 95.95 C 870.33 88.41 871.55 79.97 870.98 71.82 C 870.59 72.00 869.81 72.34 869.42 72.52 M 134.52 84.25 C 129.07 95.80 123.53 107.77 122.51 120.67 C 122.37 128.93 123.33 137.18 124.36 145.36 C 130.02 137.49 133.87 128.13 137.13 118.97 C 140.46 107.62 138.91 95.27 135.56 84.11 C 135.30 84.15 134.78 84.22 134.52 84.25 M 868.14 106.27 C 862.54 110.88 858.00 116.82 854.18 122.97 C 848.43 132.24 848.43 143.49 848.13 154.02 C 854.96 146.24 862.24 138.46 866.71 129.02 C 868.91 121.53 869.51 113.53 869.08 105.76 L 868.14 106.27 M 704.34 116.47 C 686.11 116.32 667.84 124.10 655.90 137.97 C 644.04 152.15 638.35 170.71 637.75 189.01 C 637.66 190.73 637.92 192.94 639.93 193.43 C 643.27 179.32 647.02 164.47 656.08 152.87 C 650.20 165.78 647.76 179.94 646.83 194.02 C 646.83 195.53 646.71 198.86 649.06 198.37 C 649.86 194.51 649.77 190.30 651.75 186.79 C 652.72 188.85 650.57 194.15 653.67 193.88 C 654.96 190.62 654.86 186.90 656.70 183.86 C 656.55 188.36 656.03 193.48 659.46 197.02 C 660.73 193.42 660.37 188.87 662.88 185.90 C 662.99 189.29 662.35 192.71 663.01 196.07 C 666.82 191.58 667.24 184.72 670.86 179.84 C 671.09 185.78 670.40 191.73 670.71 197.67 C 675.46 188.14 678.24 175.54 686.36 167.34 C 685.25 171.38 683.20 175.10 682.14 179.16 C 684.23 177.28 684.79 174.39 686.04 171.99 C 691.89 159.44 701.20 147.96 713.79 141.76 C 723.36 136.94 735.04 136.10 744.99 140.26 C 762.05 146.94 772.52 163.81 779.00 180.07 C 772.04 172.59 765.80 163.92 756.60 159.00 C 761.32 165.01 768.34 169.21 771.94 176.08 C 765.49 172.29 760.48 166.40 753.75 163.03 C 757.96 169.11 765.21 172.81 768.42 179.66 C 763.70 177.21 760.19 172.95 755.40 170.61 C 760.43 176.68 767.69 181.18 771.17 188.46 C 765.97 185.25 761.60 180.76 756.00 178.16 C 745.60 171.95 732.01 171.20 720.80 174.87 C 733.50 173.63 747.97 173.72 758.04 182.51 C 755.33 182.59 752.64 182.10 749.94 182.06 C 740.19 189.41 732.31 199.65 721.39 205.19 C 715.98 211.13 708.04 214.09 702.52 219.96 C 711.72 219.33 721.10 218.61 730.20 220.59 C 733.66 221.52 737.67 222.90 739.34 226.37 C 731.62 223.66 723.09 222.09 715.01 224.11 C 713.52 226.13 719.89 223.82 718.19 225.99 C 715.37 228.67 710.63 228.06 707.86 230.85 C 725.17 230.49 743.72 238.72 750.78 255.33 C 748.78 250.55 753.46 252.39 756.15 253.27 C 760.40 250.47 762.69 245.67 766.53 242.47 C 762.76 254.00 751.99 260.85 743.74 268.90 C 753.60 265.58 759.45 256.36 767.80 250.91 C 765.22 258.34 760.32 264.58 755.88 270.94 C 760.89 267.40 764.01 261.61 769.45 258.66 C 766.97 265.33 761.80 270.44 757.62 276.03 C 766.53 271.36 773.67 263.63 779.39 255.46 C 798.78 220.86 794.46 174.73 768.27 144.75 C 752.75 126.31 728.65 114.69 704.34 116.47 M 140.32 127.13 C 132.25 142.46 125.56 159.93 129.08 177.52 C 130.99 177.18 131.38 174.76 132.39 173.37 C 138.24 161.46 145.57 148.77 142.94 134.96 C 142.11 132.52 143.05 128.15 140.32 127.13 M 865.46 143.38 C 858.13 149.93 851.73 157.82 848.33 167.14 C 846.77 172.22 847.34 177.63 846.64 182.84 C 852.64 177.42 857.67 170.99 862.72 164.70 C 868.74 158.84 866.44 149.66 867.50 142.11 C 866.99 142.43 865.97 143.06 865.46 143.38 M 483.18 147.14 C 466.74 156.80 453.61 170.91 440.80 184.80 C 439.12 186.51 437.32 188.17 435.13 189.21 C 414.59 197.09 394.25 205.94 375.53 217.60 C 358.59 228.12 344.19 242.14 331.07 257.03 C 299.01 293.84 281.88 341.26 274.34 388.95 C 270.64 408.09 271.06 427.63 270.63 447.03 C 270.37 451.19 270.99 456.12 267.41 459.10 C 274.06 457.97 280.57 456.07 287.27 455.22 C 280.77 459.90 272.81 462.37 266.37 467.30 C 256.11 474.55 244.77 483.43 242.67 496.63 C 250.33 491.80 256.10 484.22 264.15 479.87 C 262.30 483.67 259.63 486.99 257.71 490.75 C 247.47 509.71 247.82 533.83 258.36 552.58 C 263.74 562.15 271.15 570.44 279.35 577.68 C 300.32 595.94 326.00 608.13 352.67 615.49 C 389.16 625.48 427.33 628.54 465.04 626.62 C 472.91 626.37 480.80 625.57 488.68 626.02 C 483.20 628.61 477.57 631.23 473.41 635.81 C 474.88 635.89 476.36 635.99 477.84 636.12 C 476.74 637.77 474.77 639.04 474.51 641.10 C 475.74 640.51 477.02 640.00 478.33 639.60 C 476.46 644.46 470.33 649.30 474.50 654.69 C 484.64 654.85 495.41 654.24 504.57 659.48 C 521.25 668.84 530.57 686.29 538.98 702.69 C 541.64 700.43 539.57 695.84 541.42 693.06 C 544.07 696.44 543.16 705.09 549.31 703.52 C 556.51 700.75 555.10 691.18 552.91 685.37 C 556.76 687.40 556.76 692.75 559.81 695.02 C 562.35 689.57 559.55 683.85 557.01 679.01 C 546.85 659.65 532.90 641.42 513.74 630.29 C 510.83 628.25 506.53 628.09 504.54 624.96 C 521.88 627.24 537.13 637.63 548.19 650.84 C 554.20 656.82 558.05 664.60 563.83 670.67 C 568.26 650.07 576.23 628.01 594.17 615.43 C 583.03 631.29 576.77 650.13 572.73 669.07 C 571.56 675.33 568.96 681.65 570.14 688.09 C 572.96 685.93 571.88 681.14 574.81 678.76 C 574.83 683.77 574.22 689.05 576.18 693.80 C 578.37 696.78 582.40 698.20 585.98 698.20 C 587.04 693.14 585.14 686.91 588.64 682.65 C 589.32 686.83 588.91 691.70 591.91 695.09 C 594.15 697.25 599.07 697.78 600.44 694.38 C 601.65 690.51 600.91 686.32 602.10 682.44 C 603.40 682.62 602.94 685.28 604.46 684.71 C 608.14 675.18 610.28 664.79 616.60 656.52 C 619.82 651.91 624.28 648.37 627.76 644.01 C 626.64 637.28 625.29 630.52 623.18 624.03 C 622.54 621.37 619.28 618.60 621.80 616.10 C 615.41 613.81 608.71 612.54 601.98 611.78 C 605.01 609.81 608.88 609.59 612.28 608.43 C 644.86 600.30 677.74 591.98 708.00 577.03 C 735.74 563.22 761.26 543.98 779.92 519.04 C 794.49 499.87 803.83 475.43 799.20 451.13 C 798.02 436.45 787.90 424.86 777.35 415.62 C 786.46 418.69 794.49 424.26 803.55 427.44 C 794.98 408.85 773.53 401.17 754.38 399.85 C 757.74 396.59 764.08 398.34 768.07 395.48 C 766.22 394.54 762.79 394.97 762.60 392.26 C 759.48 372.27 753.02 352.97 745.70 334.17 C 725.07 282.04 688.15 235.48 638.97 207.76 C 619.41 196.91 598.10 189.44 576.32 184.53 C 555.57 180.17 533.92 177.65 512.88 181.24 C 513.31 183.10 515.49 183.15 516.96 183.80 C 528.39 187.01 538.89 193.34 547.18 201.82 C 552.22 206.91 556.05 213.70 556.30 220.97 C 556.46 224.92 552.50 227.38 548.93 227.38 C 540.71 227.72 532.74 225.15 524.97 222.77 C 513.68 219.04 505.22 209.61 493.64 206.53 C 492.34 205.99 490.40 205.99 490.00 204.35 C 506.42 204.24 522.64 207.31 538.84 209.51 C 536.03 204.74 531.15 201.63 527.03 198.07 C 514.49 188.27 497.44 187.14 482.37 190.42 C 482.36 190.19 482.35 189.72 482.34 189.49 C 498.00 180.94 511.17 168.44 523.75 155.99 C 510.98 157.54 498.04 160.18 486.81 166.78 C 478.42 171.00 471.48 177.51 463.47 182.26 C 471.93 171.33 478.69 159.15 485.00 146.88 C 484.54 146.95 483.63 147.07 483.18 147.14 M 145.34 160.28 C 140.38 170.52 135.88 181.20 133.49 192.37 C 132.30 202.79 133.32 213.41 135.23 223.68 C 139.88 218.40 142.27 211.49 145.32 205.21 C 152.35 191.11 149.33 174.72 145.99 160.05 L 145.34 160.28 M 259.34 163.48 C 230.93 167.19 205.83 188.20 196.03 214.99 C 182.82 250.22 188.08 294.35 215.50 321.51 C 222.96 328.86 231.84 335.23 242.31 337.23 C 238.19 331.86 230.57 329.38 227.76 322.75 C 233.31 324.98 237.66 329.64 243.54 331.16 C 239.85 325.18 229.87 322.07 228.62 315.48 C 236.67 320.42 245.12 324.82 254.10 327.83 C 246.02 322.03 235.38 318.90 229.39 310.57 C 236.53 312.61 241.86 318.60 249.09 320.41 C 245.62 309.92 251.68 299.24 259.48 292.49 C 267.05 286.34 275.94 282.02 285.13 278.89 C 275.56 277.26 264.82 274.90 255.94 280.19 C 252.24 281.55 249.81 285.30 245.92 286.06 C 255.59 273.60 271.86 268.40 287.12 267.75 C 279.42 262.47 269.70 261.16 261.63 256.46 C 250.21 253.32 240.31 246.72 230.03 241.09 C 225.82 238.31 222.31 244.36 217.95 243.98 C 225.34 236.54 234.37 230.03 244.91 228.18 C 247.57 227.31 250.73 227.69 253.11 226.21 C 244.88 226.18 236.14 226.72 228.97 231.19 C 220.21 236.76 213.58 245.02 206.89 252.70 C 208.46 243.15 215.29 235.87 220.15 227.93 C 214.49 231.43 212.41 238.61 206.96 242.34 C 208.55 236.67 211.99 231.80 214.29 226.43 C 208.96 229.96 207.73 237.01 203.13 241.07 C 204.56 235.00 207.83 229.64 210.15 223.93 C 205.14 228.70 202.57 235.59 200.45 242.07 C 197.23 228.51 205.02 215.32 213.05 204.98 C 226.32 188.84 251.54 187.08 268.29 198.71 C 279.71 206.24 288.46 216.86 296.89 227.44 C 296.78 225.32 296.58 223.21 296.52 221.09 C 303.02 226.31 306.36 234.56 312.55 240.00 C 311.44 233.63 308.09 228.03 306.02 221.99 C 310.58 225.07 312.61 231.19 317.98 233.14 C 319.97 230.34 317.95 226.83 317.78 223.78 C 321.15 225.72 321.48 230.55 324.98 232.15 C 325.16 228.36 322.33 224.39 323.20 221.02 C 327.13 224.73 328.03 232.24 331.68 234.78 C 329.45 217.98 323.17 201.69 312.04 188.80 C 323.66 198.14 333.08 210.70 337.68 225.00 C 338.42 226.51 338.54 228.71 340.28 229.48 C 337.48 199.58 315.62 171.43 286.03 164.01 C 277.21 162.69 268.22 163.30 259.34 163.48 M 864.42 173.35 C 852.99 182.96 842.74 197.42 845.19 213.08 C 845.50 216.18 848.21 213.34 849.25 212.20 C 854.22 206.53 859.35 200.77 862.80 194.01 C 865.15 187.23 864.38 179.84 865.23 172.80 L 864.42 173.35 M 151.37 206.45 C 144.49 220.69 136.61 236.29 139.48 252.63 C 139.96 254.40 140.02 256.82 141.69 257.89 C 144.89 253.60 140.18 248.25 142.53 243.93 C 143.13 246.97 143.32 250.09 144.16 253.09 C 149.93 241.35 157.16 228.67 154.14 215.09 C 153.31 212.48 153.75 207.44 151.37 206.45 M 862.14 207.26 C 847.09 218.68 839.81 238.45 842.07 257.03 C 848.84 248.99 855.92 240.82 859.95 230.98 C 862.35 223.12 862.31 214.86 863.05 206.75 L 862.14 207.26 M 711.93 239.20 C 716.96 241.05 722.76 241.81 728.15 242.91 C 723.69 239.14 717.46 238.98 711.93 239.20 M 156.28 241.13 C 151.97 249.48 148.72 258.39 145.37 267.18 C 142.06 276.12 143.35 285.99 144.87 295.15 C 149.87 290.34 152.45 282.40 155.74 275.98 C 161.15 265.10 159.29 252.72 157.49 241.21 C 157.19 241.19 156.58 241.15 156.28 241.13 M 860.31 245.40 C 848.63 255.90 839.24 270.72 840.16 286.98 C 846.38 280.19 852.73 273.37 857.39 265.39 C 861.03 259.22 860.44 251.82 860.81 244.95 L 860.31 245.40 M 859.33 274.43 C 850.53 283.27 841.54 293.25 839.12 305.89 C 837.91 313.48 836.15 321.42 838.04 329.02 C 844.24 321.80 850.13 314.10 854.62 305.66 C 858.90 295.68 858.72 284.54 859.89 273.92 L 859.33 274.43 M 753.27 277.17 C 748.69 279.28 756.58 278.83 753.27 277.17 M 161.18 279.31 C 156.01 286.74 153.17 295.61 149.90 304.01 C 146.92 311.24 148.10 319.24 149.19 326.74 C 151.95 324.86 151.55 321.07 152.56 318.27 C 161.53 307.55 166.84 292.54 161.78 278.83 L 161.18 279.31 M 750.39 279.27 C 750.80 279.78 750.80 279.78 750.39 279.27 M 282.29 287.41 C 276.67 289.92 270.14 292.22 266.43 297.38 C 272.27 294.28 277.62 290.16 283.99 288.08 C 287.76 286.38 284.28 286.35 282.29 287.41 M 165.35 309.44 C 161.88 314.03 160.13 319.76 157.85 325.02 C 154.68 332.30 156.55 340.38 155.95 348.04 C 150.32 349.49 154.84 357.41 155.12 361.46 C 158.73 356.07 161.19 349.78 164.22 343.98 C 170.16 333.33 168.96 320.28 165.93 308.96 L 165.35 309.44 M 854.43 318.53 C 847.75 326.30 840.73 334.46 837.50 344.37 C 835.56 352.51 835.20 360.97 834.91 369.30 C 843.22 360.55 851.71 350.84 854.63 338.80 C 856.00 331.90 856.61 324.76 856.04 317.74 C 855.64 317.94 854.83 318.33 854.43 318.53 M 152.38 342.41 C 151.85 343.88 151.55 346.46 153.29 347.23 C 155.18 346.45 153.49 343.08 152.38 342.41 M 170.34 345.52 C 166.11 351.96 163.76 359.50 161.52 366.83 C 157.81 370.49 158.60 376.24 158.01 381.00 C 158.22 386.64 156.83 393.27 160.50 398.07 C 162.95 390.36 167.74 383.67 170.30 376.00 C 174.10 366.18 174.25 354.95 170.78 345.05 L 170.34 345.52 M 853.31 359.31 C 844.49 368.32 832.55 379.22 834.91 393.09 C 837.43 391.02 838.17 395.20 840.48 392.50 C 852.80 386.14 854.17 371.06 854.07 358.76 L 853.31 359.31 M 175.31 379.14 C 170.19 389.00 166.76 399.68 163.40 410.25 C 161.47 418.75 162.79 427.67 164.26 436.15 C 164.26 437.85 166.15 436.04 166.31 435.35 C 172.37 425.08 178.95 414.27 179.24 401.97 C 179.32 394.22 178.49 386.33 176.15 378.92 L 175.31 379.14 M 850.36 391.27 C 850.79 391.71 850.79 391.71 850.36 391.27 M 817.94 392.13 C 815.96 394.78 821.71 396.36 823.53 397.56 C 823.14 394.79 821.42 391.01 817.94 392.13 M 811.27 400.22 C 809.56 402.88 811.53 405.01 814.13 405.66 C 813.05 405.69 808.84 406.55 812.05 407.11 C 819.92 407.62 828.38 407.87 835.69 404.48 C 835.72 404.21 835.77 403.67 835.80 403.40 C 827.51 403.47 819.32 398.87 811.27 400.22 M 856.36 400.49 C 854.55 400.60 852.76 400.88 851.02 401.31 C 851.06 403.51 854.21 403.23 855.11 405.00 C 845.74 401.98 836.84 407.26 828.03 409.71 C 825.01 410.83 821.53 411.06 818.96 413.12 C 819.89 417.87 826.18 417.61 829.98 417.92 C 839.06 417.83 850.26 419.21 857.08 412.18 C 858.93 412.85 857.25 417.07 857.15 419.12 C 859.56 416.81 861.75 414.40 863.78 411.89 C 864.72 415.33 862.36 418.16 861.52 421.31 C 864.07 419.99 865.82 417.61 867.29 415.22 C 863.06 417.20 867.14 410.34 866.20 408.06 C 867.17 409.20 868.09 410.40 869.30 411.34 C 870.21 404.20 863.05 398.81 856.36 400.49 M 814.98 414.08 C 815.40 416.89 818.36 418.30 820.70 419.32 C 819.21 417.16 817.00 415.68 814.98 414.08 M 851.64 417.63 C 849.49 418.75 847.22 419.67 845.27 421.12 C 847.51 421.52 854.77 416.77 851.64 417.63 M 821.22 419.30 C 821.73 419.72 821.73 419.72 821.22 419.30 M 181.30 421.43 C 176.03 428.78 173.26 437.68 169.88 446.02 C 166.67 452.73 168.41 460.51 170.91 467.13 C 183.50 459.22 184.81 442.52 183.24 429.07 C 182.85 426.82 183.14 421.68 181.30 421.43 M 843.31 421.07 C 843.40 424.40 846.29 419.56 843.31 421.07 M 820.41 432.13 C 819.73 434.00 823.66 434.79 824.11 432.98 C 823.78 431.45 821.40 431.05 820.41 432.13 M 838.40 433.53 C 833.74 434.72 828.90 436.01 824.81 438.57 C 832.52 438.66 840.51 439.71 847.96 437.18 C 850.11 437.02 853.35 434.58 854.86 436.52 C 845.91 441.96 835.26 444.25 824.94 442.15 C 835.30 446.44 848.50 443.12 856.93 436.02 C 851.47 432.74 844.52 433.45 838.40 433.53 M 863.27 442.92 C 863.97 447.49 867.82 442.38 863.27 442.92 M 854.93 447.02 C 857.75 450.44 861.87 452.87 863.80 456.96 C 864.54 458.08 863.43 461.79 865.64 460.73 C 866.88 458.08 867.66 455.06 867.30 452.12 C 865.10 447.75 859.45 446.38 854.93 447.02 M 814.31 449.02 C 814.85 451.17 814.76 454.13 816.69 455.45 C 820.96 455.72 825.14 453.94 829.06 452.40 C 823.97 451.99 819.16 450.40 814.31 449.02 M 846.12 449.52 C 849.24 452.65 851.98 456.05 853.99 460.01 C 854.70 458.52 857.07 453.70 857.11 458.05 C 856.92 461.99 861.66 458.38 860.19 456.09 C 857.89 450.86 851.44 448.92 846.12 449.52 M 841.37 451.46 C 833.14 454.38 825.48 458.87 817.04 461.31 C 815.99 467.49 822.96 470.35 828.02 470.32 C 835.79 470.48 846.27 470.29 849.59 461.67 C 853.28 456.40 846.76 450.22 841.37 451.46 M 853.32 464.34 C 850.17 469.52 855.25 469.29 858.14 466.37 C 855.63 467.54 853.43 464.87 853.32 464.34 M 201.28 465.13 C 201.49 468.45 204.22 463.55 201.28 465.13 M 157.30 467.42 C 151.28 468.53 156.99 470.98 160.24 470.32 C 159.90 469.00 158.94 467.16 157.30 467.42 M 195.31 469.40 C 191.01 469.57 192.82 472.36 195.05 474.15 C 187.61 471.97 180.87 476.58 174.41 479.53 C 168.88 482.73 162.14 484.48 157.53 488.87 C 168.94 491.33 181.59 491.41 192.52 486.84 C 192.22 488.05 191.66 489.20 190.84 490.28 C 194.81 487.81 196.56 483.17 199.88 480.02 C 200.61 482.98 199.79 486.02 200.12 489.02 C 204.67 487.28 206.12 482.43 206.21 477.99 C 208.07 480.24 206.74 483.49 206.99 486.15 C 209.48 483.99 210.29 480.08 209.88 476.91 C 208.12 471.06 201.03 467.94 195.31 469.40 M 150.10 475.16 C 148.06 476.49 148.91 479.75 148.80 481.89 C 157.98 482.35 167.78 481.17 175.65 476.13 C 167.17 475.60 158.55 474.15 150.10 475.16 M 842.10 484.98 C 841.65 486.23 841.37 487.53 841.19 488.85 C 843.31 489.43 845.23 484.23 842.10 484.98 M 851.51 487.50 C 844.17 492.17 842.15 502.40 844.20 510.47 C 848.08 505.20 850.31 498.04 853.56 492.02 C 855.29 489.42 848.86 494.38 851.31 491.31 C 851.87 490.23 854.20 486.13 851.51 487.50 M 153.97 488.19 C 153.23 489.49 155.26 491.39 156.54 490.96 C 156.76 489.64 155.38 487.87 153.97 488.19 M 187.62 491.52 C 185.67 492.26 183.41 492.57 181.81 494.01 C 183.73 494.32 190.80 490.98 187.62 491.52 M 178.25 494.28 C 178.70 494.75 178.70 494.75 178.25 494.28 M 855.40 495.45 C 846.31 503.89 842.84 519.17 847.87 529.89 C 851.68 526.39 853.58 520.75 856.31 516.23 C 859.84 510.74 857.99 504.09 857.18 498.10 C 857.02 497.31 856.58 494.65 855.40 495.45 M 830.53 496.13 C 818.96 543.11 807.34 590.12 796.40 637.27 C 794.11 642.82 801.15 644.78 804.37 647.69 C 826.38 664.98 848.81 681.76 870.85 699.00 C 858.80 632.21 845.27 565.68 832.29 499.06 C 831.95 498.32 831.24 493.17 830.53 496.13 M 186.25 504.40 C 180.59 505.85 175.54 509.69 171.23 513.45 C 181.27 512.11 191.43 509.63 200.06 504.15 C 195.47 503.83 190.83 503.96 186.25 504.40 M 202.26 504.40 C 196.71 509.67 189.44 512.34 182.89 515.95 C 189.68 514.27 196.31 511.21 201.62 506.60 C 202.27 506.30 204.26 502.57 202.26 504.40 M 157.08 507.29 C 155.72 512.02 161.24 508.43 157.08 507.29 M 224.25 510.01 C 223.86 514.17 228.01 509.55 224.25 510.01 M 203.12 514.29 C 202.98 516.54 206.11 516.45 207.46 517.62 C 210.75 518.98 211.84 522.92 215.00 524.35 C 217.97 516.94 209.57 511.65 203.12 514.29 M 226.27 514.01 C 226.34 520.88 228.05 528.26 224.49 534.61 C 222.08 540.73 216.59 544.57 212.21 549.13 C 222.87 593.48 231.16 638.43 242.40 682.64 C 296.62 676.64 350.89 670.67 405.12 664.75 C 408.92 657.53 411.77 649.17 414.27 641.21 C 375.60 638.41 336.65 630.78 301.96 612.81 C 275.06 599.79 250.45 579.16 238.87 550.99 C 233.94 539.29 234.74 526.41 235.18 514.03 C 232.29 515.90 229.18 515.65 226.27 514.01 M 198.25 518.42 C 197.85 518.52 197.06 518.73 196.67 518.83 C 200.05 522.98 204.27 526.59 206.18 531.69 C 207.76 531.00 206.50 525.00 210.58 525.08 C 209.06 520.04 203.30 516.89 198.25 518.42 M 861.15 520.17 C 851.51 530.89 848.88 547.78 854.11 560.71 C 857.29 556.76 859.60 550.82 862.23 545.98 C 866.91 537.89 864.40 528.18 861.96 519.80 L 861.15 520.17 M 194.44 521.47 C 183.26 526.17 173.89 534.65 162.21 538.38 C 163.68 541.66 167.87 544.01 171.27 542.29 C 174.15 540.80 178.39 542.83 180.01 539.17 C 187.04 536.66 194.75 534.64 200.12 529.07 C 203.56 525.64 197.90 521.24 194.44 521.47 M 161.02 525.49 C 164.11 527.60 162.17 530.29 160.93 532.94 C 167.83 532.17 174.49 529.15 180.25 525.38 C 173.84 525.35 167.42 525.15 161.02 525.49 M 793.47 527.47 C 783.11 541.56 770.91 554.32 757.22 565.25 C 726.99 589.47 690.06 603.23 653.04 613.19 C 657.77 620.28 663.69 626.50 668.62 633.47 C 672.45 639.02 677.54 644.34 683.99 646.55 C 711.81 642.65 739.78 639.57 767.59 635.71 C 772.70 618.36 776.46 600.64 780.78 583.07 C 785.08 564.25 790.53 545.65 794.28 526.73 L 793.47 527.47 M 198.39 535.18 C 197.19 535.34 195.79 536.72 196.32 537.99 C 197.54 538.62 199.97 535.81 198.39 535.18 M 866.50 549.45 C 858.78 561.93 854.84 577.58 859.50 591.93 C 864.02 588.11 865.43 581.27 868.16 575.99 C 872.66 567.42 870.88 557.27 867.96 548.50 C 867.59 548.74 866.86 549.21 866.50 549.45 M 202.13 557.05 C 196.04 563.28 193.83 572.31 194.36 580.83 C 195.17 580.67 195.99 580.51 196.81 580.35 C 194.12 587.55 196.63 595.28 198.47 602.37 C 205.86 591.45 212.34 577.33 206.61 564.22 C 200.93 566.58 207.16 555.43 202.13 557.05 M 191.37 558.39 C 190.57 560.70 190.86 563.21 191.03 565.61 C 193.17 563.80 196.90 555.38 191.37 558.39 M 182.38 574.84 C 177.79 612.94 174.08 651.16 169.74 689.28 C 181.63 690.14 194.20 686.97 206.33 686.07 C 206.85 681.22 204.75 676.61 203.91 671.92 C 197.44 641.82 191.26 611.67 184.53 581.63 C 183.94 579.33 183.79 576.82 182.38 574.84 M 873.15 580.06 C 865.34 592.28 860.68 607.73 865.39 622.03 C 869.93 613.73 875.36 605.40 877.12 596.00 C 876.56 590.95 876.78 582.95 873.15 580.06 M 211.47 590.30 C 208.43 595.98 206.46 602.16 204.41 608.25 C 200.58 618.15 204.55 628.62 206.19 638.55 C 209.95 633.29 212.27 626.96 214.87 621.01 C 219.17 611.02 215.65 600.00 212.51 590.22 C 212.25 590.24 211.73 590.28 211.47 590.30 M 879.24 609.34 C 871.43 622.18 866.72 638.33 871.37 653.28 C 875.94 647.75 878.57 640.85 881.51 634.37 C 885.13 626.53 882.52 615.79 879.24 609.34 M 623.99 618.82 C 625.03 622.28 626.40 625.64 627.57 629.06 C 628.52 625.58 626.77 621.09 623.99 618.82 M 637.91 618.85 C 640.13 625.61 644.20 631.61 646.69 638.29 C 646.47 639.44 649.47 640.88 648.76 638.98 C 647.01 631.51 642.71 624.74 637.91 618.85 M 219.11 627.00 C 215.07 633.56 212.72 641.03 210.49 648.37 C 208.19 655.46 210.78 662.87 213.22 669.56 C 220.25 659.48 226.88 646.33 222.42 633.76 C 221.46 631.69 221.60 627.43 219.11 627.00 M 432.25 640.45 C 421.20 665.83 416.59 694.42 419.32 722.05 C 423.34 751.48 448.75 774.66 477.03 780.90 C 473.75 777.05 469.03 774.95 464.91 772.17 C 449.48 762.63 435.64 749.14 429.29 731.82 C 423.35 715.29 422.03 697.17 425.12 679.90 C 426.97 666.42 430.34 653.21 432.83 639.85 L 432.25 640.45 M 885.38 640.33 C 877.36 653.49 872.79 669.91 877.83 685.02 C 881.86 676.94 886.63 668.92 888.83 660.11 C 888.66 653.78 889.40 644.87 885.38 640.33 M 658.25 649.38 C 652.74 649.04 649.49 655.73 644.02 653.43 C 633.26 652.08 626.31 662.63 622.07 671.00 C 611.25 694.20 606.98 720.43 608.75 745.91 C 609.69 756.24 612.71 767.88 621.98 773.83 C 630.00 778.90 640.56 776.16 647.39 770.31 C 668.23 753.96 676.39 727.12 681.16 702.14 C 692.06 695.92 695.92 679.27 687.39 669.60 C 684.63 666.27 680.19 666.00 676.22 666.51 C 676.49 657.07 668.05 647.79 658.25 649.38 M 754.33 650.49 C 752.61 651.07 745.49 650.57 749.80 652.37 C 753.66 653.54 745.57 654.73 749.88 655.25 C 753.93 654.03 762.21 655.97 762.28 649.78 C 759.61 649.77 756.97 650.15 754.33 650.49 M 722.34 653.48 C 713.52 654.69 704.50 654.91 695.84 657.03 C 698.14 661.37 700.60 669.43 706.96 667.32 C 720.28 665.24 733.75 664.11 747.01 661.64 C 744.46 659.94 739.86 661.34 738.12 658.04 C 734.05 653.62 728.26 651.52 722.34 653.48 M 794.19 654.23 C 793.15 659.02 798.64 653.23 794.19 654.23 M 226.31 658.17 C 222.41 665.12 219.59 672.68 217.48 680.35 C 215.19 687.64 218.61 694.97 220.27 702.02 C 224.96 692.91 230.46 683.39 230.87 672.93 C 229.69 668.19 229.72 661.22 226.31 658.17 M 796.16 659.33 C 794.29 659.75 792.72 661.00 792.05 662.81 C 796.19 663.38 800.48 663.02 804.49 661.80 C 802.96 659.03 798.94 658.70 796.16 659.33 M 736.35 665.47 C 725.36 666.65 714.28 667.33 703.44 669.54 C 702.79 672.01 704.65 674.21 706.87 675.04 C 704.00 677.28 706.51 681.21 707.01 684.07 C 710.73 684.87 714.56 683.78 718.30 683.47 C 734.47 681.04 750.79 679.83 766.96 677.37 C 769.25 676.72 772.20 676.90 774.02 675.23 C 767.49 675.19 761.76 672.08 755.94 669.59 C 747.95 670.15 739.98 672.32 731.99 672.07 C 738.70 669.27 747.42 669.70 754.86 667.84 C 754.85 667.42 754.82 666.58 754.81 666.16 C 748.96 663.85 742.44 665.14 736.35 665.47 M 805.85 666.04 C 806.74 667.24 808.21 667.87 809.08 669.13 C 804.12 670.07 799.03 668.58 794.01 669.14 C 794.34 670.67 796.97 669.88 798.18 670.54 C 793.38 672.48 788.03 672.17 783.06 673.50 C 783.20 673.71 783.47 674.12 783.60 674.33 C 794.09 673.23 804.65 672.51 815.05 670.63 C 812.89 668.01 809.45 665.04 805.85 666.04 M 471.30 668.42 C 462.66 669.88 460.39 679.33 461.59 686.78 C 456.43 686.76 450.74 688.13 448.04 692.99 C 443.82 700.86 446.46 710.78 451.23 717.81 C 453.27 721.42 457.99 722.47 459.56 726.42 C 463.39 734.37 466.26 742.77 470.45 750.55 C 478.00 765.18 489.51 778.03 504.00 786.02 C 510.45 789.80 518.50 790.71 525.66 788.56 C 533.76 785.20 539.44 776.82 539.86 768.09 C 542.23 743.64 534.47 719.45 522.68 698.31 C 517.39 689.05 511.55 679.68 502.95 673.13 C 498.43 669.46 492.29 668.69 486.98 670.99 C 482.22 668.49 476.76 666.85 471.30 668.42 M 789.13 669.35 C 787.71 673.14 793.44 667.87 789.13 669.35 M 891.54 670.34 C 884.38 684.37 877.93 701.08 884.35 716.63 C 888.27 710.54 891.06 703.68 893.91 697.02 C 897.59 688.30 894.70 678.85 892.42 670.19 C 892.20 670.23 891.76 670.30 891.54 670.34 M 780.35 674.00 C 780.26 677.36 783.34 672.61 780.35 674.00 M 809.34 678.46 C 775.68 682.23 741.87 684.80 708.30 689.12 C 708.67 694.65 708.10 700.82 710.01 705.93 C 754.39 700.62 799.19 697.33 843.66 692.15 C 839.57 687.83 834.27 681.87 827.63 683.50 C 809.07 686.50 790.23 687.05 771.58 689.38 C 771.45 689.15 771.19 688.70 771.06 688.47 C 790.66 685.86 810.27 682.96 830.01 681.65 C 825.09 675.08 816.19 678.24 809.34 678.46 M 383.28 682.29 C 383.74 682.74 383.74 682.74 383.28 682.29 M 362.28 683.27 C 362.76 683.75 362.76 683.75 362.28 683.27 M 233.37 688.30 C 227.03 701.15 221.02 716.36 226.58 730.59 C 227.96 731.69 227.81 729.19 228.43 728.50 C 229.59 728.45 231.10 729.05 231.45 727.49 C 235.61 718.73 240.01 708.96 237.25 699.10 C 236.12 695.68 236.16 690.19 233.37 688.30 M 305.28 689.27 C 305.76 689.76 305.76 689.76 305.28 689.27 M 291.88 691.36 C 295.16 693.50 300.12 691.40 304.03 691.49 C 300.57 689.30 295.78 691.05 291.88 691.36 M 840.36 695.50 C 804.83 699.10 769.44 703.83 733.91 707.33 C 725.72 708.56 717.05 708.23 709.28 711.24 C 708.15 714.83 706.68 720.11 707.88 723.03 C 758.61 717.83 809.09 709.79 859.82 704.36 C 857.94 702.12 855.76 699.96 853.01 698.87 C 838.38 701.00 823.79 704.00 809.03 704.85 C 822.88 701.20 837.80 700.00 852.13 697.83 C 849.63 694.06 844.19 695.41 840.36 695.50 M 246.41 696.25 C 245.85 698.81 249.99 697.42 250.56 696.30 C 249.33 695.73 247.55 695.28 246.41 696.25 M 566.46 700.31 C 561.17 707.46 553.65 714.23 544.28 714.55 C 548.32 729.11 552.87 743.76 553.09 759.03 C 553.53 762.81 552.56 766.98 553.68 770.54 C 567.11 770.05 580.54 767.39 592.97 762.26 C 594.65 761.23 597.81 760.54 597.42 758.03 C 594.97 740.99 596.62 723.75 598.20 706.73 C 589.39 709.71 578.93 709.79 571.52 703.41 C 569.88 702.52 568.38 699.46 566.46 700.31 M 208.20 701.99 C 207.10 706.65 212.77 700.99 208.20 701.99 M 898.17 702.38 C 891.65 713.88 887.67 727.73 889.28 741.07 C 890.98 747.16 890.22 733.57 892.50 738.30 C 893.08 741.29 893.35 744.41 892.83 747.44 C 889.59 747.32 890.82 750.46 891.14 752.48 C 895.92 745.34 898.81 736.79 901.49 728.61 C 902.29 719.69 901.05 710.55 898.70 701.93 L 898.17 702.38 M 131.29 707.09 C 131.43 710.42 134.21 705.52 131.29 707.09 M 137.31 707.05 C 136.09 711.25 141.12 705.95 137.31 707.05 M 114.36 708.48 C 110.83 708.96 107.15 709.41 103.90 710.96 C 103.00 713.22 105.73 715.30 107.18 716.87 C 112.84 716.11 118.51 715.19 124.04 713.74 C 122.49 710.47 117.85 708.80 114.36 708.48 M 861.35 714.48 C 851.30 715.99 840.70 715.95 831.10 719.20 C 833.80 723.15 839.44 720.39 842.97 722.33 C 841.28 722.96 839.27 723.08 838.13 724.63 C 841.33 726.80 845.61 726.65 848.32 729.69 C 856.34 736.53 867.44 733.24 876.75 731.75 C 877.36 725.55 874.21 719.77 873.01 713.84 C 869.11 713.37 865.22 714.18 861.35 714.48 M 374.30 715.08 C 374.42 718.42 377.22 713.53 374.30 715.08 M 363.30 716.09 C 363.39 719.43 366.23 714.56 363.30 716.09 M 352.35 717.49 C 332.20 719.58 312.10 722.20 291.95 724.31 C 290.41 724.31 285.94 726.24 289.87 726.06 C 313.16 723.43 336.47 720.65 359.70 717.60 C 359.38 716.35 354.42 717.45 352.35 717.49 M 116.36 718.49 C 114.38 718.80 112.39 719.15 110.48 719.77 C 113.80 725.98 118.96 731.23 123.55 736.57 C 140.73 734.17 158.25 732.74 175.39 729.96 C 173.92 727.86 169.86 727.58 167.27 726.43 C 160.56 729.30 153.08 729.45 145.92 728.79 C 140.01 727.89 135.71 723.40 131.39 719.68 C 127.20 716.03 121.29 718.09 116.36 718.49 M 251.45 717.96 C 251.55 723.22 256.40 717.05 251.45 717.96 M 240.49 721.47 C 236.41 728.59 234.31 736.69 232.48 744.64 C 231.85 749.16 231.67 755.36 234.50 758.81 C 239.18 748.27 246.97 737.08 243.10 725.05 C 242.38 723.89 242.63 719.60 240.49 721.47 M 808.33 721.44 C 773.13 725.03 738.05 729.87 703.04 734.93 C 703.97 738.88 704.19 742.93 704.29 746.98 C 716.55 746.67 728.71 744.43 740.98 744.15 C 729.75 747.34 716.87 747.23 705.13 749.86 C 701.10 756.14 699.07 764.77 692.91 769.85 C 687.51 771.12 681.86 769.65 676.40 769.29 C 676.50 768.71 676.70 767.55 676.80 766.96 C 674.29 769.26 670.46 770.49 669.00 773.69 C 675.02 773.19 680.94 771.88 686.99 771.54 C 712.07 770.44 736.89 765.59 762.02 765.27 C 734.69 771.40 706.10 772.69 678.98 780.26 C 665.33 785.57 650.30 786.49 636.79 791.83 C 644.32 791.98 651.96 786.80 659.21 790.03 C 617.04 801.36 573.34 805.02 530.00 809.03 C 506.33 809.76 482.65 808.99 458.99 810.01 C 437.63 811.79 416.33 815.38 394.90 815.76 C 422.62 811.02 451.87 810.37 479.01 804.19 C 465.33 803.95 451.64 803.69 437.95 804.16 C 424.21 804.59 410.64 807.48 396.93 808.08 C 413.83 804.19 432.81 803.73 450.02 799.24 C 444.09 798.19 437.65 800.28 432.02 798.56 C 433.87 797.75 436.03 797.45 437.61 796.11 C 407.15 796.53 377.11 802.49 346.92 806.13 C 322.57 809.56 298.00 811.62 273.80 815.97 C 273.55 818.31 273.11 823.44 276.95 822.23 C 316.81 819.15 356.26 811.29 396.02 808.07 C 356.29 814.25 315.64 818.91 276.00 826.94 C 274.82 835.46 285.27 830.11 290.09 831.27 C 286.43 833.16 282.07 832.73 278.19 833.97 C 278.83 838.79 278.13 843.32 276.10 847.68 C 312.52 840.07 349.31 834.11 386.12 828.58 C 390.79 828.00 395.44 826.93 400.17 827.12 C 357.54 834.96 314.33 842.27 271.92 852.11 C 258.65 854.74 245.36 857.67 231.87 858.84 C 238.67 855.66 246.89 855.58 254.24 853.62 C 250.14 851.32 245.22 850.57 241.63 847.31 C 237.43 844.39 233.91 838.35 227.96 840.34 C 222.22 841.72 214.56 841.45 210.29 845.16 C 216.51 854.58 224.69 862.61 231.17 871.90 C 232.91 875.46 236.20 872.03 238.76 871.59 C 251.73 868.86 264.96 867.67 278.08 865.87 C 395.35 850.59 512.87 837.22 630.11 821.72 C 698.80 813.22 767.52 805.06 836.10 795.77 C 876.72 790.59 917.30 785.09 958.01 780.75 C 959.78 779.76 958.03 777.79 957.30 776.70 C 952.32 770.94 945.69 766.98 940.14 761.82 C 935.85 757.18 929.37 760.84 924.04 760.92 C 921.16 760.64 919.22 763.50 920.83 765.98 C 925.62 766.08 930.35 764.82 935.16 765.19 C 930.29 767.44 923.99 766.05 919.69 769.69 C 914.53 774.54 907.17 775.97 900.35 776.51 C 891.22 777.31 883.22 771.01 874.17 771.92 C 875.58 770.23 882.17 771.92 879.67 767.32 C 871.77 766.27 863.80 767.64 855.91 768.23 C 808.24 773.14 760.73 779.49 713.09 784.72 C 711.65 784.79 706.83 785.31 707.46 784.50 C 760.24 777.91 813.23 771.98 865.89 764.16 C 867.95 764.24 873.65 762.24 869.08 761.21 C 852.57 758.29 835.73 762.65 819.10 761.94 C 831.26 756.81 846.58 757.05 859.06 751.44 C 851.01 749.99 845.12 743.78 838.67 739.27 C 834.57 735.64 828.10 740.04 824.00 737.48 C 829.70 737.64 834.79 734.63 839.53 731.94 C 837.70 729.76 832.99 731.93 830.00 731.38 C 820.88 732.48 817.57 718.85 808.33 721.44 M 393.38 727.55 C 394.40 728.95 398.63 728.57 399.71 727.30 C 397.75 726.58 395.31 726.82 393.38 727.55 M 254.01 727.74 C 254.45 733.78 255.30 739.97 257.59 745.61 C 265.11 745.21 272.72 744.37 280.10 742.78 C 276.12 739.80 270.65 738.06 265.96 735.86 C 264.96 732.26 258.27 734.54 256.33 731.05 C 255.80 729.76 255.49 728.24 254.01 727.74 M 388.27 728.27 C 388.76 728.75 388.76 728.75 388.27 728.27 M 113.26 731.31 C 113.72 731.77 113.72 731.77 113.26 731.31 M 211.39 732.24 C 212.46 733.31 215.23 733.21 216.75 732.68 C 216.03 730.95 212.81 731.41 211.39 732.24 M 200.34 733.53 C 201.05 734.78 204.99 734.63 205.68 733.28 C 204.05 732.51 201.91 732.70 200.34 733.53 M 871.35 734.48 C 867.71 734.97 864.01 735.00 860.47 736.02 C 866.32 741.39 873.55 746.20 880.22 750.14 C 880.51 744.58 879.02 739.10 877.98 733.68 C 875.73 733.70 873.55 734.20 871.35 734.48 M 177.34 735.46 C 162.50 737.07 147.71 739.08 132.95 741.32 C 131.50 741.70 129.66 741.64 128.66 742.94 C 133.30 749.09 138.24 755.27 144.12 760.27 C 169.69 756.80 195.49 753.73 221.21 750.94 C 222.16 748.28 221.11 744.92 217.90 744.89 C 215.17 744.39 221.37 743.52 218.98 742.27 C 205.33 738.69 191.82 731.89 177.34 735.46 M 217.09 737.30 C 215.54 740.22 220.43 737.41 217.09 737.30 M 905.09 737.32 C 901.21 745.53 898.08 754.87 896.03 763.95 C 894.51 769.42 901.55 768.00 903.75 765.34 C 905.02 768.23 908.77 766.51 908.60 763.73 C 909.00 754.83 908.56 745.60 905.76 737.08 L 905.09 737.32 M 398.42 743.27 C 400.81 746.50 403.25 740.77 398.42 743.27 M 392.26 744.28 C 392.73 744.75 392.73 744.75 392.26 744.28 M 246.49 746.40 C 240.05 759.39 234.89 775.93 241.59 789.27 C 247.44 777.47 254.31 764.02 249.52 750.66 C 248.68 749.31 248.80 744.43 246.49 746.40 M 277.40 747.52 C 271.23 748.36 265.00 748.79 258.89 749.97 C 259.09 753.67 259.54 757.50 261.11 760.91 C 264.26 762.07 267.74 761.13 271.01 760.99 C 283.17 759.52 295.43 758.58 307.50 756.40 C 307.61 756.14 307.84 755.62 307.96 755.36 C 298.14 751.43 288.52 744.51 277.40 747.52 M 869.28 750.28 C 869.74 750.76 869.74 750.76 869.28 750.28 M 220.51 752.56 C 196.24 757.83 171.22 758.60 146.78 762.86 C 148.36 767.01 151.35 770.48 154.20 773.82 C 158.42 770.75 162.53 766.99 167.94 766.32 C 180.96 764.17 194.04 761.68 207.23 761.00 C 193.34 765.10 177.91 764.95 164.02 769.95 C 160.89 771.31 156.65 773.43 156.72 777.34 C 178.61 770.29 202.16 770.31 224.79 766.56 C 224.63 762.21 224.23 754.37 220.51 752.56 M 921.35 753.44 C 919.16 753.59 917.65 755.91 919.11 757.81 C 923.64 758.30 928.16 757.00 932.54 755.93 C 930.63 752.12 924.95 752.75 921.35 753.44 M 688.28 756.11 C 684.47 758.50 691.41 758.06 688.28 756.11 M 406.28 759.28 C 406.77 759.76 406.77 759.76 406.28 759.28 M 384.28 760.43 C 381.18 760.83 378.08 761.25 374.99 761.73 C 370.30 764.00 364.42 761.66 360.07 764.92 C 354.12 764.39 346.91 764.01 342.08 767.77 C 358.76 766.66 375.38 763.64 391.99 761.44 C 390.06 759.49 386.76 760.54 384.28 760.43 M 398.43 760.17 C 399.47 763.76 402.10 757.98 398.43 760.17 M 684.48 760.23 C 683.00 760.72 681.05 762.24 681.36 763.96 C 682.74 764.21 685.95 761.25 684.48 760.23 M 323.35 766.50 C 303.62 768.04 283.81 769.37 264.26 772.40 C 262.96 774.50 263.82 778.58 266.59 779.43 C 264.72 781.51 266.07 784.27 266.48 786.66 C 268.26 793.34 269.59 800.13 271.00 806.90 C 276.33 807.48 281.66 806.45 286.97 806.06 C 326.05 801.93 365.08 797.33 404.11 792.76 C 406.10 792.85 403.92 790.75 403.02 791.04 C 385.05 786.73 367.90 779.62 350.01 775.06 C 345.34 770.67 336.70 772.40 331.75 767.07 C 335.03 767.46 340.36 770.44 341.73 765.74 C 335.60 765.80 329.46 766.04 323.35 766.50 M 355.30 771.08 C 355.42 774.43 358.22 769.54 355.30 771.08 M 374.28 775.29 C 374.76 775.75 374.76 775.75 374.28 775.29 M 254.32 775.58 C 250.88 782.60 248.54 790.13 246.50 797.67 C 243.89 807.09 246.72 816.83 249.16 825.97 C 258.19 811.27 263.07 790.88 254.32 775.58 M 225.38 777.50 C 206.17 779.31 187.00 781.59 167.90 784.23 C 165.23 784.11 163.12 787.53 166.08 788.96 C 183.06 784.46 202.07 784.29 219.92 782.10 C 204.69 786.97 186.98 786.35 170.98 790.07 C 169.69 789.96 168.34 792.34 170.25 792.44 C 177.81 792.11 185.37 790.68 192.96 791.19 C 186.64 793.17 179.14 792.71 172.59 794.94 C 178.53 804.16 187.40 811.50 194.08 820.32 C 198.80 817.16 204.04 815.11 209.56 813.85 C 209.48 813.39 209.33 812.49 209.26 812.03 C 218.04 811.42 227.03 812.50 235.67 810.76 C 234.26 800.32 231.01 790.23 228.83 779.94 C 228.71 778.12 227.10 777.05 225.38 777.50 M 603.43 779.45 C 589.38 785.35 574.16 787.80 559.13 789.72 C 553.43 790.53 545.88 789.75 542.79 795.83 C 548.30 794.71 553.95 794.34 559.41 793.08 C 559.44 792.64 559.49 791.75 559.52 791.31 C 574.80 788.64 590.17 785.74 604.75 780.34 C 606.63 781.45 608.20 783.07 609.38 784.91 C 607.20 785.84 604.75 786.23 602.86 787.73 C 606.61 787.50 610.35 787.12 614.11 786.92 C 610.78 784.40 607.91 778.87 603.43 779.45 M 435.87 780.85 C 437.39 782.95 441.65 785.45 438.14 787.92 C 440.93 787.72 443.75 787.70 446.47 786.97 C 443.63 784.41 439.26 783.05 435.87 780.85 M 432.31 788.08 C 432.40 791.43 435.23 786.55 432.31 788.08 M 597.26 788.29 C 597.71 788.75 597.71 788.75 597.26 788.29 M 924.34 790.37 C 924.55 791.78 928.28 791.61 928.61 790.30 C 927.36 789.53 925.53 789.53 924.34 790.37 M 914.37 791.51 C 906.26 792.43 898.16 793.38 890.08 794.46 C 890.21 794.68 890.48 795.12 890.62 795.34 C 901.36 794.38 912.10 793.18 922.75 791.51 C 921.73 789.55 916.84 791.69 914.37 791.51 M 621.30 792.08 C 621.41 795.42 624.23 790.55 621.30 792.08 M 605.37 794.55 C 606.00 795.81 610.05 795.65 610.68 794.29 C 609.06 793.49 606.93 793.77 605.37 794.55 M 909.33 793.95 C 909.91 798.16 905.49 797.31 903.09 799.15 C 896.88 802.53 889.12 801.47 882.83 804.03 C 894.22 803.42 905.56 801.34 916.87 799.68 C 913.26 799.84 911.54 796.87 909.33 793.95 M 443.26 795.28 C 443.73 795.76 443.73 795.76 443.26 795.28 M 601.46 795.14 C 602.33 798.72 605.24 792.94 601.46 795.14 M 885.45 795.26 C 887.70 798.50 890.24 792.61 885.45 795.26 M 467.30 796.08 C 467.42 799.43 470.20 794.53 467.30 796.08 M 592.37 796.22 C 592.86 797.37 596.30 797.28 596.75 795.96 C 595.50 795.03 593.55 795.35 592.37 796.22 M 879.29 796.09 C 879.44 799.43 882.18 794.51 879.29 796.09 M 937.34 797.14 C 939.92 800.57 942.16 795.07 937.34 797.14 M 562.27 799.28 C 562.76 799.76 562.76 799.76 562.27 799.28 M 486.26 800.44 C 485.97 800.71 485.40 801.27 485.12 801.54 C 489.50 801.36 495.20 802.40 498.81 801.04 C 495.81 799.35 490.22 800.52 486.26 800.44 M 553.40 800.53 C 548.53 801.75 541.79 800.49 538.05 803.63 C 544.03 803.02 550.05 802.32 555.92 801.01 C 558.72 799.80 554.39 800.48 553.40 800.53 M 844.37 800.49 C 842.10 801.15 838.45 800.35 837.07 802.00 C 841.99 801.96 847.37 801.53 852.07 800.17 C 849.49 799.91 846.91 800.16 844.37 800.49 M 832.42 802.26 C 834.71 805.53 837.22 799.72 832.42 802.26 M 943.08 802.30 C 941.53 805.21 946.42 802.41 943.08 802.30 M 876.33 804.39 C 877.16 805.70 880.85 805.36 881.74 804.07 C 880.08 803.35 877.89 803.55 876.33 804.39 M 523.11 805.43 C 524.52 807.13 530.20 806.23 531.85 805.17 C 528.93 805.03 526.00 805.06 523.11 805.43 M 871.32 805.07 C 871.39 808.42 874.25 803.56 871.32 805.07 M 515.34 806.33 C 516.26 807.33 519.93 807.39 520.74 806.04 C 519.15 805.11 516.87 805.45 515.34 806.33 M 846.31 808.28 C 846.77 808.75 846.77 808.75 846.31 808.28 M 941.60 808.26 C 940.46 808.69 939.66 809.45 939.21 810.56 C 939.85 813.16 944.59 807.78 941.60 808.26 M 961.55 808.50 C 960.06 812.24 957.86 815.60 955.79 819.04 C 959.01 817.07 962.20 809.92 961.55 808.50 M 777.27 809.28 C 777.74 809.75 777.74 809.75 777.27 809.28 M 262.57 809.99 C 258.89 820.46 254.80 830.90 252.59 841.80 C 254.54 840.28 255.78 838.12 257.26 836.20 C 258.09 838.64 257.54 841.29 258.15 843.78 C 262.30 844.82 267.89 841.90 266.97 837.01 C 265.99 827.98 265.30 818.66 262.57 809.99 M 736.28 814.28 C 736.76 814.76 736.76 814.76 736.28 814.28 M 799.26 814.29 C 799.73 814.74 799.73 814.74 799.26 814.29 M 729.29 815.09 C 729.43 818.43 732.20 813.52 729.29 815.09 M 792.26 815.28 C 792.72 815.75 792.72 815.75 792.26 815.28 M 724.28 816.29 C 724.74 816.75 724.74 816.75 724.28 816.29 M 706.40 818.20 C 707.35 821.73 710.22 816.02 706.40 818.20 M 698.30 819.34 C 699.08 820.73 702.81 820.37 703.70 819.11 C 702.05 818.41 699.87 818.53 698.30 819.34 M 679.45 821.56 C 677.43 822.13 674.21 821.35 673.00 823.03 C 677.27 823.26 681.56 822.07 685.82 821.63 C 685.04 820.38 681.32 821.68 679.45 821.56 M 743.30 821.08 C 743.42 824.42 746.22 819.53 743.30 821.08 M 737.30 822.09 C 737.44 825.42 740.20 820.52 737.30 822.09 M 668.46 823.27 C 670.70 826.50 673.24 820.57 668.46 823.27 M 727.39 823.28 C 729.67 826.63 732.15 820.86 727.39 823.28 M 207.36 824.47 C 204.49 825.01 201.58 825.71 199.05 827.21 C 199.23 830.24 201.82 835.50 205.74 833.62 C 211.55 832.07 217.49 831.13 223.31 829.64 C 219.15 825.38 213.37 822.49 207.36 824.47 M 660.29 824.08 C 660.40 827.42 663.21 822.54 660.29 824.08 M 716.35 824.48 C 695.82 826.80 675.23 829.75 654.88 832.80 C 678.30 831.35 701.57 827.24 724.90 824.53 C 722.84 822.84 719.03 824.61 716.35 824.48 M 625.30 828.08 C 625.30 831.43 628.28 826.64 625.30 828.08 M 616.38 829.53 C 614.21 830.02 611.69 829.50 609.82 830.85 C 614.18 831.00 618.53 830.23 622.83 829.55 C 622.08 827.68 618.26 829.65 616.38 829.53 M 606.28 831.28 C 606.76 831.75 606.76 831.75 606.28 831.28 M 586.37 833.33 C 586.63 834.71 590.31 834.66 590.62 833.30 C 589.39 832.51 587.57 832.52 586.37 833.33 M 647.35 833.54 C 648.43 834.80 652.74 834.54 653.78 833.07 C 651.76 832.33 649.35 832.98 647.35 833.54 M 219.32 834.46 C 214.62 835.15 209.62 835.36 205.35 837.65 C 205.26 839.61 206.96 842.62 209.21 841.38 C 215.90 838.49 223.34 838.93 230.21 836.94 C 228.92 832.59 222.76 834.57 219.32 834.46 M 577.32 834.60 C 578.31 835.96 582.57 835.31 583.71 834.10 C 581.72 833.38 579.23 833.82 577.32 834.60 M 639.35 834.57 C 640.39 835.87 644.69 835.52 645.73 834.10 C 643.73 833.41 641.30 833.93 639.35 834.57 M 198.28 835.24 C 197.20 836.11 196.33 838.87 197.68 839.70 C 198.74 838.81 199.85 835.95 198.28 835.24 M 570.29 835.47 C 571.14 836.67 574.89 836.46 575.72 835.12 C 574.06 834.38 571.86 834.61 570.29 835.47 M 632.40 835.31 C 632.73 836.67 636.37 836.68 636.68 835.30 C 635.44 834.50 633.61 834.52 632.40 835.31 M 565.31 836.07 C 565.39 839.42 568.23 834.55 565.31 836.07 M 556.28 837.28 C 556.76 837.75 556.76 837.75 556.28 837.28 M 542.25 839.29 C 542.73 839.75 542.73 839.75 542.25 839.29 M 591.35 840.52 C 592.38 841.79 596.57 841.52 597.66 840.28 C 595.73 839.51 593.22 839.66 591.35 840.52 M 202.14 842.36 C 200.45 847.69 206.81 842.76 202.14 842.36 M 514.33 842.35 C 515.12 843.69 518.84 843.45 519.69 842.15 C 518.07 841.40 515.89 841.53 514.33 842.35 M 576.38 842.51 C 577.09 843.97 580.24 843.23 581.63 842.65 C 580.77 841.18 577.76 841.74 576.38 842.51 M 567.38 843.52 C 562.61 844.57 557.34 844.11 552.86 845.95 C 560.31 845.82 567.95 844.65 575.20 843.19 C 572.59 842.92 569.97 843.18 567.38 843.52 M 497.33 844.59 C 498.00 845.88 501.99 845.64 502.65 844.29 C 501.02 843.54 498.90 843.77 497.33 844.59 M 488.42 845.54 C 478.04 847.12 466.77 847.53 456.95 849.87 C 469.90 849.33 482.77 847.17 495.60 845.55 C 495.42 844.50 490.41 845.40 488.42 845.54 M 546.29 846.37 C 547.16 847.67 550.84 847.34 551.75 846.04 C 550.08 845.33 547.88 845.55 546.29 846.37 M 450.31 850.08 C 450.41 853.42 453.23 848.54 450.31 850.08 M 443.30 851.09 C 443.42 854.43 446.22 849.54 443.30 851.09 M 436.31 852.08 C 436.42 855.42 439.23 850.54 436.31 852.08 M 496.37 852.37 C 496.57 853.79 500.29 853.62 500.61 852.31 C 499.38 851.52 497.56 851.52 496.37 852.37 M 431.28 853.29 C 431.76 853.76 431.76 853.76 431.28 853.29 M 481.40 853.57 C 470.11 856.21 458.05 856.14 446.91 858.85 C 462.65 858.23 478.21 855.02 493.90 853.59 C 490.61 852.01 485.37 853.57 481.40 853.57 M 400.35 856.63 C 401.41 858.08 404.94 857.17 406.68 856.65 C 405.51 855.09 402.10 856.02 400.35 856.63 M 392.31 857.54 C 393.37 858.87 397.58 858.39 398.72 857.10 C 396.73 856.38 394.25 856.81 392.31 857.54 M 386.41 858.25 C 388.82 861.59 391.17 855.89 386.41 858.25 M 380.31 859.08 C 380.39 862.42 383.25 857.57 380.31 859.08 M 442.44 859.15 C 443.38 862.71 446.23 856.99 442.44 859.15 M 338.34 864.36 C 339.17 865.65 342.86 865.43 343.71 864.13 C 342.10 863.35 339.91 863.54 338.34 864.36 M 332.28 865.27 C 332.75 865.75 332.75 865.75 332.28 865.27 M 325.28 866.28 C 325.76 866.76 325.76 866.76 325.28 866.28 M 318.28 867.28 C 318.76 867.76 318.76 867.76 318.28 867.28 M 364.33 868.47 C 359.95 869.30 355.01 868.99 351.01 870.84 C 357.67 870.69 364.24 869.38 370.86 868.65 C 369.71 867.38 366.30 868.58 364.33 868.47 M 344.28 871.28 C 344.77 871.75 344.77 871.75 344.28 871.28 M 275.27 872.28 C 275.76 872.75 275.76 872.75 275.27 872.28 M 338.32 872.28 C 338.78 872.75 338.78 872.75 338.32 872.28 M 268.30 873.08 C 268.42 876.43 271.21 871.53 268.30 873.08 M 256.30 874.57 C 257.15 876.10 261.56 875.51 262.64 874.38 C 260.66 873.82 258.19 873.71 256.30 874.57 M 259.06 887.90 C 259.35 890.63 260.96 892.90 262.08 895.34 C 259.45 894.80 257.48 892.80 254.97 891.95 C 257.52 895.31 261.91 896.51 265.94 896.75 C 263.42 893.98 260.64 891.45 259.06 887.90 M 249.70 892.69 C 250.52 896.50 252.86 899.96 255.90 902.37 C 254.05 899.05 252.62 895.20 249.70 892.69 M 244.84 899.90 C 245.26 902.96 247.98 905.02 250.08 907.03 C 249.05 904.25 247.59 901.31 244.84 899.90 M 240.19 904.82 C 241.15 907.05 242.01 909.53 244.00 911.07 C 243.11 908.80 242.24 906.30 240.19 904.82 Z"/><path fill="#000000" opacity="1.00" d=" M 114.83 49.24 C 118.19 49.23 113.36 52.28 114.83 49.24 Z"/><path fill="#000000" opacity="1.00" d=" M 117.28 50.25 C 117.76 50.71 117.76 50.71 117.28 50.25 Z"/><path fill="#000000" opacity="1.00" d=" M 639.27 213.31 C 639.73 213.74 639.73 213.74 639.27 213.31 Z"/><path fill="#000000" opacity="1.00" d=" M 446.31 213.95 C 450.79 213.45 446.85 218.60 446.31 213.95 Z"/><path fill="#000000" opacity="1.00" d=" M 642.29 215.28 C 642.80 215.74 642.80 215.74 642.29 215.28 Z"/><path fill="#000000" opacity="1.00" d=" M 643.44 215.84 C 661.90 226.07 677.69 240.56 692.47 255.50 C 706.14 269.00 716.44 285.39 725.89 302.00 C 741.76 330.37 753.62 361.39 757.86 393.72 C 754.10 395.20 750.21 396.55 746.19 397.07 C 741.48 365.08 729.48 334.43 713.72 306.30 C 705.30 291.51 692.93 279.25 685.77 263.71 C 693.27 268.56 697.12 277.53 704.09 283.11 C 700.59 272.96 691.97 265.58 686.03 256.83 C 694.54 262.68 699.18 272.64 706.96 279.27 C 702.34 269.38 694.13 261.92 687.73 253.25 C 675.53 237.99 658.94 227.30 643.44 215.84 Z"/><path fill="#000000" opacity="1.00" d=" M 293.31 217.00 C 297.18 216.62 292.91 221.03 293.31 217.00 Z"/><path fill="#000000" opacity="1.00" d=" M 398.33 229.02 C 401.36 227.48 398.35 232.37 398.33 229.02 Z"/><path fill="#000000" opacity="1.00" d=" M 621.27 253.43 C 637.19 251.11 653.90 259.73 661.24 274.00 C 662.91 276.90 658.66 280.65 655.94 278.80 C 647.68 275.43 639.06 272.40 630.00 272.65 C 622.31 272.30 614.85 274.99 607.19 274.68 C 603.71 273.12 601.93 268.45 603.76 265.00 C 606.31 257.75 614.15 254.33 621.27 253.43 Z"/><path fill="#000000" opacity="1.00" d=" M 333.46 261.51 L 334.10 261.08 C 325.25 273.11 314.72 284.57 310.02 299.00 C 299.25 320.76 290.44 343.95 287.17 368.05 C 289.38 364.66 288.37 359.55 291.23 356.65 C 291.82 360.50 290.49 364.30 290.25 368.14 C 291.40 366.21 292.03 364.01 293.20 362.10 C 296.58 360.00 299.62 363.98 302.95 363.46 C 296.87 391.95 293.86 421.04 294.18 450.17 C 288.13 451.34 282.03 452.55 275.92 453.32 C 274.81 449.66 274.99 445.78 274.98 442.01 C 275.32 418.24 276.61 394.36 281.75 371.09 C 290.10 331.33 305.15 291.41 333.46 261.51 Z"/><path fill="#000000" opacity="1.00" d=" M 687.30 269.24 C 690.68 269.57 685.75 272.14 687.30 269.24 Z"/><path fill="#000000" opacity="1.00" d=" M 270.52 280.14 C 275.33 277.91 270.07 284.45 270.52 280.14 Z"/><path fill="#000000" opacity="1.00" d=" M 319.27 287.30 C 319.77 287.76 319.77 287.76 319.27 287.30 Z"/><path fill="#000000" opacity="1.00" d=" M 379.34 287.47 C 387.66 286.12 398.70 284.97 404.55 292.43 C 408.23 296.53 406.13 304.77 400.09 304.80 C 385.74 305.06 371.43 309.45 359.66 317.72 C 357.39 318.91 354.78 321.32 352.11 320.03 C 348.60 316.02 351.56 310.57 353.65 306.63 C 359.37 297.38 368.36 289.41 379.34 287.47 Z"/><path fill="#000000" opacity="1.00" d=" M 318.29 289.34 C 318.75 289.75 318.75 289.75 318.29 289.34 Z"/><path fill="#000000" opacity="1.00" d=" M 317.41 290.92 L 318.38 290.24 C 313.40 301.53 308.00 312.66 303.59 324.19 L 302.47 324.83 C 306.38 313.11 311.77 301.87 317.41 290.92 Z"/><path fill="#000000" opacity="1.00" d=" M 695.13 308.94 C 696.28 306.93 697.77 310.09 698.28 311.04 C 701.05 318.29 697.90 326.53 693.02 332.12 C 694.23 335.49 697.88 337.81 700.94 339.54 C 708.00 337.66 713.62 332.25 717.12 325.98 C 718.45 323.16 722.50 324.09 722.70 327.15 C 724.07 336.62 717.67 346.37 709.23 350.42 C 721.63 369.34 727.88 394.28 718.79 415.85 C 716.25 420.92 713.75 426.57 709.08 430.00 C 720.84 402.40 711.54 365.91 684.77 350.76 C 699.77 369.92 705.31 397.65 694.17 419.98 C 684.42 436.83 664.17 446.24 645.01 445.02 C 626.75 445.75 611.13 433.85 599.43 421.07 C 600.38 427.63 603.98 433.26 607.06 438.97 C 592.06 428.09 587.84 407.57 588.22 389.98 C 588.08 364.16 601.35 338.08 624.00 325.09 C 642.14 316.18 664.06 317.94 681.86 326.85 C 688.22 322.49 691.00 315.08 695.13 308.94 M 649.25 342.39 C 639.75 344.31 633.25 353.66 632.75 363.00 C 632.98 369.63 636.63 376.04 641.98 379.91 C 649.27 384.22 658.95 384.43 666.40 380.38 C 672.57 377.03 676.05 369.88 675.69 362.98 C 676.14 349.83 661.75 339.28 649.25 342.39 M 613.25 370.38 C 606.06 372.66 604.02 383.43 609.99 388.11 C 615.33 391.79 623.18 389.90 626.03 383.96 C 628.79 376.52 620.91 368.03 613.25 370.38 M 658.30 389.36 C 655.56 390.52 653.80 394.47 656.18 396.84 C 659.02 401.44 666.58 395.48 663.38 391.55 C 662.42 389.78 660.30 388.54 658.30 389.36 M 680.29 398.39 C 673.62 399.18 671.43 409.46 677.36 412.77 C 680.80 415.86 686.13 414.13 688.37 410.45 C 692.42 405.22 686.29 397.41 680.29 398.39 M 612.49 409.49 C 608.60 410.99 604.67 415.55 607.38 419.77 C 608.78 425.51 617.00 425.19 619.97 421.03 C 623.98 416.26 618.17 408.12 612.49 409.49 Z"/><path fill="#000000" opacity="1.00" d=" M 839.31 321.85 C 842.00 324.71 835.41 325.59 839.31 321.85 Z"/><path fill="#000000" opacity="1.00" d=" M 302.27 325.24 C 302.78 325.66 302.78 325.66 302.27 325.24 Z"/><path fill="#000000" opacity="1.00" d=" M 383.31 355.47 C 399.81 353.10 417.29 357.16 430.62 367.30 C 445.02 378.03 454.13 394.59 458.38 411.80 C 462.92 427.90 461.16 445.67 453.60 460.58 C 453.01 461.60 452.58 462.94 451.21 463.07 C 452.94 456.12 454.70 449.10 454.78 441.89 C 447.24 458.36 433.99 473.33 415.97 478.20 C 396.49 485.10 373.83 479.06 359.47 464.50 C 348.95 453.13 343.50 437.08 345.50 421.65 C 345.34 411.48 350.06 402.38 354.02 393.34 C 333.32 410.95 328.18 442.72 340.34 466.70 C 342.00 470.32 344.55 473.43 346.26 477.02 C 322.58 462.04 316.47 429.06 326.06 404.07 C 316.86 401.33 308.00 393.97 306.86 383.97 C 306.25 381.85 308.20 378.45 310.49 380.58 C 316.39 386.09 323.50 392.58 332.32 390.45 C 334.22 388.01 336.78 385.41 337.68 382.56 C 332.06 378.89 326.81 373.09 326.74 366.02 C 326.62 364.44 327.92 361.36 329.91 362.70 C 334.93 366.03 338.62 371.31 344.35 373.60 C 346.15 374.53 347.54 372.79 348.80 371.79 C 358.10 362.73 370.55 357.33 383.31 355.47 M 406.27 376.41 C 393.82 379.05 386.47 394.26 391.27 405.84 C 393.48 411.50 398.24 415.90 403.78 418.27 C 416.20 423.07 432.30 414.78 433.30 400.87 C 436.27 385.90 420.70 372.45 406.27 376.41 M 370.19 404.32 C 364.06 405.67 360.04 413.23 362.96 418.97 C 365.92 426.20 377.55 427.31 381.25 420.12 C 385.87 412.87 378.42 402.78 370.19 404.32 M 415.27 426.34 C 412.90 427.41 412.10 430.56 413.14 432.83 C 415.34 436.25 421.97 434.32 421.44 429.99 C 421.86 426.61 417.96 424.93 415.27 426.34 M 433.25 435.37 C 426.92 437.17 425.20 447.55 431.62 450.37 C 436.75 454.58 445.13 449.48 444.22 443.03 C 444.56 437.48 438.18 433.70 433.25 435.37 M 366.41 444.44 C 362.35 446.19 361.27 452.44 364.90 455.18 C 368.76 458.18 374.85 454.74 374.86 450.02 C 375.15 445.81 370.17 442.56 366.41 444.44 Z"/><path fill="#000000" opacity="1.00" d=" M 160.25 377.25 C 161.26 379.42 161.27 385.40 160.32 387.84 C 160.13 384.31 160.09 380.77 160.25 377.25 Z"/><path fill="#000000" opacity="1.00" d=" M 785.26 433.28 C 785.76 433.75 785.76 433.75 785.26 433.28 Z"/><path fill="#000000" opacity="1.00" d=" M 787.21 437.22 C 791.62 437.95 786.60 441.91 787.21 437.22 Z"/><path fill="#000000" opacity="1.00" d=" M 533.24 440.39 C 544.98 438.09 560.49 443.03 562.55 456.34 C 561.88 466.78 552.72 475.28 543.09 478.25 C 541.29 488.28 546.93 499.18 557.00 502.04 C 570.94 507.79 587.63 497.95 591.36 483.88 C 592.50 480.70 589.75 478.56 588.36 476.25 C 590.67 473.33 594.96 475.78 597.15 477.79 C 600.66 481.13 605.06 485.35 604.50 490.62 C 602.23 490.27 600.35 488.77 598.19 488.10 C 595.21 498.27 588.00 507.33 577.98 511.25 C 575.13 512.97 570.40 512.77 569.57 516.70 C 567.20 524.65 565.42 532.97 560.83 540.03 C 555.09 549.39 541.96 553.71 531.99 548.77 C 523.65 544.94 517.77 537.34 513.65 529.36 C 512.12 526.73 510.86 522.70 507.07 523.09 C 495.25 522.23 485.43 514.57 478.98 505.05 C 477.21 507.03 475.95 509.48 473.74 511.03 C 472.43 503.41 476.30 493.42 483.97 490.67 C 489.83 491.12 481.38 494.79 483.45 497.59 C 491.48 514.93 518.20 517.75 530.46 503.49 C 536.20 497.48 537.75 488.58 536.36 480.68 C 528.17 479.48 519.55 477.53 513.35 471.65 C 509.21 467.81 506.05 461.53 508.74 455.99 C 513.01 446.51 523.14 441.07 533.24 440.39 M 533.35 444.47 C 528.66 444.69 523.92 446.46 520.16 449.12 C 517.99 453.72 523.44 456.96 527.32 454.84 C 529.92 458.88 537.74 458.11 541.47 454.53 C 544.55 453.80 548.20 452.68 548.52 448.89 C 545.53 443.81 538.47 444.39 533.35 444.47 M 545.43 525.43 C 544.59 526.17 543.86 527.03 543.02 527.78 C 537.52 525.91 532.13 529.74 528.08 533.10 C 524.91 536.27 529.48 539.26 531.96 540.86 C 541.81 547.47 556.29 540.74 558.03 529.08 C 554.70 526.31 549.55 524.89 545.43 525.43 Z"/><path fill="#000000" opacity="1.00" d=" M 790.31 442.37 C 790.73 442.83 790.73 442.83 790.31 442.37 Z"/><path fill="#000000" opacity="1.00" d=" M 629.87 447.22 C 643.81 449.44 658.13 448.41 672.14 447.19 C 659.91 454.87 641.59 456.42 629.87 447.22 Z"/><path fill="#000000" opacity="1.00" d=" M 847.25 460.42 C 853.90 459.57 838.04 465.11 846.88 463.90 C 842.44 468.24 834.94 467.93 828.99 468.50 C 825.53 468.15 819.98 469.05 818.52 465.07 C 824.49 465.89 830.61 466.66 836.61 465.49 C 840.13 463.76 843.58 461.85 847.25 460.42 Z"/><path fill="#000000" opacity="1.00" d=" M 433.56 475.59 C 435.13 474.78 435.40 474.99 434.36 476.23 C 425.56 486.01 411.19 489.71 398.46 487.87 C 398.90 486.41 400.80 486.58 401.94 486.06 C 412.75 483.46 423.36 480.02 433.56 475.59 Z"/><path fill="#000000" opacity="1.00" d=" M 203.28 483.38 C 203.74 483.79 203.74 483.79 203.28 483.38 Z"/><path fill="#000000" opacity="1.00" d=" M 202.29 485.27 C 202.79 485.70 202.79 485.70 202.29 485.27 Z"/><path fill="#000000" opacity="1.00" d=" M 263.26 494.28 C 263.74 494.69 263.74 494.69 263.26 494.28 Z"/><path fill="#000000" opacity="1.00" d=" M 594.78 625.72 C 597.06 624.69 592.04 631.00 589.93 631.95 C 590.81 629.40 592.85 627.51 594.78 625.72 Z"/><path fill="#000000" opacity="1.00" d=" M 660.29 659.40 C 663.59 657.99 667.28 660.54 667.82 663.91 C 668.83 669.98 666.15 675.96 663.02 681.01 C 661.31 683.69 658.50 686.71 654.96 685.71 C 651.24 684.74 651.21 680.08 651.27 676.98 C 651.53 670.34 653.77 662.40 660.29 659.40 Z"/><path fill="#000000" opacity="1.00" d=" M 639.21 663.35 C 642.47 661.53 645.23 664.72 645.40 667.82 C 646.07 673.72 644.91 680.34 640.97 684.96 C 638.64 687.92 632.69 688.32 631.83 683.91 C 630.57 676.59 631.72 666.93 639.21 663.35 Z"/><path fill="#000000" opacity="1.00" d=" M 727.46 672.25 C 732.24 669.76 729.71 675.57 727.46 672.25 Z"/><path fill="#000000" opacity="1.00" d=" M 718.43 673.16 C 722.15 671.02 719.42 676.75 718.43 673.16 Z"/><path fill="#000000" opacity="1.00" d=" M 709.41 674.19 C 713.17 672.00 710.29 677.78 709.41 674.19 Z"/><path fill="#000000" opacity="1.00" d=" M 676.29 676.39 C 679.08 674.94 682.62 676.84 683.02 679.92 C 683.83 686.16 678.78 692.14 673.05 693.95 C 668.99 695.63 664.65 690.57 666.72 686.82 C 668.79 682.56 671.79 678.30 676.29 676.39 Z"/><path fill="#000000" opacity="1.00" d=" M 471.14 679.24 C 474.57 677.47 478.46 679.66 480.55 682.47 C 484.81 687.95 488.01 695.00 486.92 702.07 C 485.57 704.52 481.83 705.28 479.67 703.33 C 474.82 699.71 471.54 694.34 468.93 688.98 C 467.19 685.77 467.62 681.03 471.14 679.24 Z"/><path fill="#000000" opacity="1.00" d=" M 495.33 680.40 C 501.34 680.45 504.56 686.87 505.95 691.92 C 506.88 694.84 507.10 700.03 502.99 700.38 C 496.79 700.66 493.49 694.25 492.30 689.07 C 491.49 686.05 490.97 680.68 495.33 680.40 Z"/><path fill="#000000" opacity="1.00" d=" M 768.35 688.96 C 771.36 687.56 768.23 692.32 768.35 688.96 Z"/><path fill="#000000" opacity="1.00" d=" M 650.15 692.31 C 656.14 690.92 664.49 691.45 667.20 698.02 C 670.41 702.57 669.04 708.95 672.83 713.02 C 672.19 723.73 668.45 734.10 663.63 743.61 C 659.36 752.51 649.92 759.08 639.93 758.93 C 631.67 758.07 626.14 749.79 625.88 741.93 C 625.06 728.79 629.94 715.86 636.74 704.81 C 640.14 699.74 644.15 694.37 650.15 692.31 Z"/><path fill="#000000" opacity="1.00" d=" M 458.34 696.39 C 464.09 695.62 468.54 701.16 471.69 705.31 C 474.87 708.96 472.06 716.03 466.87 714.94 C 461.30 713.11 455.48 709.14 454.61 702.90 C 454.00 700.14 455.71 697.29 458.34 696.39 Z"/><path fill="#000000" opacity="1.00" d=" M 483.20 709.35 C 490.29 707.40 497.40 710.88 502.82 715.25 C 512.64 723.31 519.61 734.68 522.82 746.94 C 524.64 754.14 523.83 762.86 518.14 768.17 C 511.18 773.82 500.63 774.03 493.42 768.66 C 480.77 759.88 473.58 745.19 469.00 730.92 C 471.13 733.02 471.18 736.63 473.93 738.21 C 473.69 733.40 471.48 728.85 471.99 723.98 C 472.14 717.38 476.63 710.93 483.20 709.35 Z"/><path fill="#000000" opacity="1.00" d=" M 560.37 710.18 C 564.21 709.05 559.15 714.33 560.37 710.18 Z"/><path fill="#000000" opacity="1.00" d=" M 709.30 751.29 C 709.76 751.75 709.76 751.75 709.30 751.29 Z"/><path fill="#000000" opacity="1.00" d=" M 353.34 765.21 C 353.79 765.67 353.79 765.67 353.34 765.21 Z"/><path fill="#000000" opacity="1.00" d=" M 330.39 771.48 C 331.58 770.68 333.37 770.54 334.64 771.29 C 334.36 772.65 330.61 772.91 330.39 771.48 Z"/><path fill="#000000" opacity="1.00" d=" M 325.34 772.00 C 328.33 770.56 325.29 775.35 325.34 772.00 Z"/><path fill="#000000" opacity="1.00" d=" M 870.33 772.02 C 873.30 770.58 870.30 775.37 870.33 772.02 Z"/><path fill="#000000" opacity="1.00" d=" M 862.30 773.08 C 865.21 771.53 862.42 776.43 862.30 773.08 Z"/><path fill="#000000" opacity="1.00" d=" M 913.32 778.11 C 916.33 776.71 913.22 781.46 913.32 778.11 Z"/><path fill="#000000" opacity="1.00" d=" M 905.39 779.52 C 907.01 779.10 914.82 778.64 910.13 779.91 C 891.68 782.47 873.35 786.38 854.79 787.85 C 871.34 784.19 888.54 782.26 905.39 779.52 Z"/><path fill="#000000" opacity="1.00" d=" M 699.38 785.42 C 701.28 784.67 703.76 784.32 705.71 785.06 C 704.55 786.36 700.48 786.75 699.38 785.42 Z"/><path fill="#000000" opacity="1.00" d=" M 692.29 786.09 C 695.20 784.52 692.44 789.43 692.29 786.09 Z"/><path fill="#000000" opacity="1.00" d=" M 789.31 788.45 C 790.51 788.41 796.68 787.42 794.07 788.86 C 727.69 799.60 660.62 805.18 594.09 814.87 C 549.84 821.92 505.55 828.96 460.94 833.29 C 459.73 833.73 455.97 833.04 458.90 832.20 C 516.57 823.64 574.27 815.28 632.10 807.79 C 684.30 799.79 736.88 794.68 789.31 788.45 Z"/><path fill="#000000" opacity="1.00" d=" M 669.28 789.29 C 669.76 789.75 669.76 789.75 669.28 789.29 Z"/><path fill="#000000" opacity="1.00" d=" M 281.18 792.90 C 282.30 796.16 285.51 797.55 287.35 800.19 C 284.13 799.43 280.75 796.47 281.18 792.90 Z"/><path fill="#000000" opacity="1.00" d=" M 280.33 798.18 C 284.33 797.85 279.87 802.09 280.33 798.18 Z"/><path fill="#000000" opacity="1.00" d=" M 286.27 801.06 C 289.26 799.57 286.34 804.40 286.27 801.06 Z"/><path fill="#000000" opacity="1.00" d=" M 283.29 802.01 C 286.33 800.48 283.41 805.28 283.29 802.01 Z"/><path fill="#000000" opacity="1.00" d=" M 281.31 803.26 C 281.77 803.77 281.77 803.77 281.31 803.26 Z"/><path fill="#000000" opacity="1.00" d=" M 195.37 807.29 C 200.23 804.90 197.76 810.57 195.37 807.29 Z"/><path fill="#000000" opacity="1.00" d=" M 643.26 814.28 C 643.72 814.75 643.72 814.75 643.26 814.28 Z"/><path fill="#000000" opacity="1.00" d=" M 636.31 815.08 C 639.23 813.54 636.41 818.42 636.31 815.08 Z"/><path fill="#000000" opacity="1.00" d=" M 619.28 818.28 C 619.76 818.75 619.76 818.75 619.28 818.28 Z"/></g></svg>