<svg id="a" xmlns="http://www.w3.org/2000/svg" viewBox="0 0 100 100"><g transform="translate(3.8507191236725404, 1) scale(0.20486662764445193) translate(1.94, 1.5699999999999967)"><path d="M333.87,379.02c7.07-12.41,6.46-25.89,5.21-39.47l.83-.61c1.43,.62,3.05,1,4.27,1.91,2.95,2.23,4.44,5.45,5.23,8.98,3.24,14.38,.08,27.68-7.41,39.99-3.18,5.23-7.22,9.97-11.17,14.68-1.87,2.24-3.28,4.48-4.14,7.29-2.68,8.74-8.23,14.82-17.51,16.25-3.55,.55-7.35-.49-12.34-.92-4.36,1.83-6.36,3.57-6.39,6.62,2.36,0,4.72-.13,7.08,.02,12.22,.77,20.97,10.12,20.84,22.38-.07,6.95-3.52,12.16-9.72,14.89-4.63,2.04-9.68,3.51-14.68,4.25-8.61,1.26-17.31,1.14-25.73-1.66-2.15-.72-4.24-1.67-6.26-2.72-3.52-1.84-5.53-4.72-6.63-8.64-1.5-5.34-3.62-10.51-5.43-15.61-7.98,.36-15.35,1.03-22.72,.93-7.38-.1-14.74-.97-22.75-1.54-1.78,5.4-3.88,11.04-5.46,16.83-1.05,3.85-3.13,6.78-6.58,8.24-4.26,1.8-8.74,3.51-13.28,4.15-10.85,1.53-21.65,.92-31.96-3.31-9.29-3.81-13.08-9.62-12.37-18.62,.72-9.06,7.26-16.95,15.94-18.81,4.07-.87,8.26-1.2,12.94-1.84-2.29-3.81-6.47-4.17-8.9-6.42-16.68,4.44-25.96-1.42-30.17-19.07-4.03-1.83-4.08-5.78-4.16-9.94-.27-14.11,1.23-27.98,4.57-41.71,4.38-18.01,14.04-32.75,27.33-45.35,1.41-1.33,2.83-2.65,4.23-3.99,.24-.23,.38-.55,.81-1.2-1.78-.64-3.44-1.25-5.11-1.83-19.04-6.62-35.55-16.92-48.3-32.81-11.15-13.9-16.66-29.93-18.42-47.46-1.09-10.89-.21-21.63,2.05-32.3,.18-.87,.24-1.76,.36-2.63-4.56-.5-9.04-.6-13.34-1.53-27.56-5.95-47.18-22.26-59.31-47.31C-1.94,103.45,5.29,62.42,33.35,33.51,52.33,13.96,75.39,3.9,102.72,3.69c17.88-.14,35.11,2.69,50.65,11.93,24.12,14.34,37.18,35.64,38.6,63.84,.04,.78,.09,1.57,.17,2.83,26.79-5.68,53.27-5.53,79.9,2.51,.1-1.65,.25-2.85,.24-4.04-.3-36.95,26.12-68.29,63.87-74.17,52.4-8.16,94.52,25.02,105.03,70.53,7.41,32.11,.04,60.61-22.29,84.95-13.5,14.7-30.43,22.94-50.21,25.39-.78,.1-1.56,.19-2.77,.35,.15,1.3,.22,2.49,.41,3.65,3.56,21.55,2.15,42.55-7.24,62.56-7.33,15.6-18.73,27.64-33.2,36.89-7.92,5.07-16.36,9.03-25.21,12.16-1.38,.49-2.74,1-4.64,1.7,10.86,10.03,20.93,20.05,27.43,33.05,6.49,12.98,8.75,26.96,10.41,41.22Zm-107.87-75.24l.07,.68c12.82-1.19,25.69-1.98,38.44-3.66,19.53-2.57,38.04-8.5,54.78-19.16,12.42-7.91,22.9-17.64,29.24-31.31,8.47-18.27,10.04-37.3,6.34-56.84-4.74-25.05-16.83-46.25-34.23-64.7-16.47-17.46-35.86-29.81-59.37-35.34-15.9-3.74-31.99-4.61-48.26-3.27-22.18,1.83-42.68,8.43-60.99,21.19-20.48,14.26-35.06,33.36-45.13,56.06-8.6,19.37-12.83,39.42-9.4,60.63,2.42,14.98,8.14,28.43,18.7,39.6,11.15,11.79,24.77,19.64,39.87,25.1,22.59,8.16,46.07,10.85,69.93,11.03Zm95.43,96.23c2.31-9.39,1.45-34.07-4.01-48.84-6.67-18.02-20.16-30.6-33.54-43.09-38.41,8.56-76.53,8.54-114.69,.65-14.63,12.9-27.39,26.98-32.89,46.24-4.12,14.43-6.22,29.08-5.26,43.99,11.56,3.01,34.05,1.66,39.69-2.3-.29-.81-.54-1.69-.9-2.51-4.86-10.88-5.44-22.05-2.02-33.4,1.75-5.79,3.67-11.58,7.92-16.13,1.19-1.28,2.89-2.08,4.36-3.11l.81,.67c-.1,1.31-.02,2.67-.34,3.93-1.01,3.98-2.16,7.91-3.26,11.86-6.63,23.73,4.02,45.01,27,53.85,8.7,3.35,17.8,4.02,26.95,3.28,13.07-1.05,24.98-5.23,34.61-14.55,10.01-9.69,14.16-21.33,10.94-35.13-1.3-5.54-3.04-10.98-4.48-16.5-.52-1.99-.75-4.05-1.11-6.08l.95-.63c1.44,.75,3.23,1.17,4.24,2.3,2.19,2.43,4.35,5.03,5.86,7.9,7.25,13.74,7.92,27.85,1.81,42.21-.74,1.73-1.35,3.52-2.14,5.61,13.56,2.74,26.59,3.21,39.52-.25ZM152.46,98.06c.07-1,.15-1.56,.15-2.12,0-20.44-10.06-34.74-27.8-43.6-25.33-12.64-57.66-4.57-74.67,18.15-7.79,10.4-12.41,22.15-10.5,35.18,3.29,22.53,15.76,38.48,36.97,47.15,7.08,2.9,14.57,4.43,22.37,4.27,12.72-24.42,30-44.51,53.48-59.02Zm200.98,56.6c1.13,0,2.25,.06,3.37,0,18.42-1.18,31.88-10.71,41.9-25.52,7.22-10.67,10.32-22.58,8.2-35.45-3.1-18.76-13.78-32.05-30.71-40.12-17.46-8.33-34.67-7.9-50.81,3.61-13.09,9.33-22.29,28.77-16.52,46.17,19.08,13.12,33.09,31.03,44.56,51.32ZM45.37,59.41l.66,.47c2.39-2.07,4.71-4.22,7.17-6.2,22.18-17.92,46.64-24.34,73.66-12.81,21.4,9.14,33.86,25.56,35.81,49.24,.05,.63,.31,1.24,.5,1.96,6.09-2.49,11.96-4.88,18.24-7.45-.28-3.51-.39-7.03-.88-10.49-5.73-40.39-45.82-64.33-82.71-56.55-19.1,4.03-33.71,15.05-45.2,30.46-2.68,3.59-4.84,7.56-7.24,11.36Zm356.1-1.72c-2.33-7.04-6.33-12.99-10.69-18.72-12.27-16.11-28.53-23.25-48.67-21.39-29.08,2.68-52.11,23.27-58.01,51.8-1.37,6.62-1.52,13.29-.61,20.05,2.28,1.03,4.35,1.94,6.41,2.9,2.02,.93,4.02,1.91,6.37,3.03,.14-3.12,.11-5.63,.38-8.11,4-36.23,40.48-58.04,73.64-48,11.92,3.6,22.31,9.68,31.18,18.45Zm-38.97,119.03c5.96-1.09,11.91-1.59,17.5-3.31,23.89-7.33,39.38-23.82,47.76-46.76,9.41-25.74,5.15-50.26-9.24-73.22-3.92-6.26-8.71-11.82-14.16-16.36,3.2,6.64,6.98,13.29,9.7,20.35,8.55,22.23,9.91,44.69-.27,66.81-9.51,20.65-24.59,35.12-47.4,40.3-2.51,.57-5.08,.92-7.95,1.43,1.34,3.55,2.57,6.81,4.06,10.75Zm-186.25,227.8c-2.71,4.59-5.74,7.87-11.15,6.79-.88,2.37-1.62,4.35-2.33,6.27,19.65,14.06,51.97,21.81,79.2,18.77,16.5-1.84,31.86-7.02,45.7-16.37-1.16-2.81-2.15-5.21-3.26-7.92-4.86,1.17-7.52-1.97-9.86-5.72-14.24,13.13-30.83,18.98-49.63,18.76-18.83-.22-35.33-6.18-48.67-20.59ZM94.24,168.38c-1.44-.25-2.44-.4-3.42-.6-4.58-.89-9.25-1.47-13.72-2.75-32.76-9.39-52.1-42.74-50.73-73.96,.72-16.42,5.67-31.55,14.27-45.51,1.22-1.98,2.42-3.98,3.63-5.97-1.44,.51-2.44,1.37-3.35,2.31-23.36,24.23-31.74,62.33-13.85,95.21,10.24,18.82,25.38,31.75,46.29,37.35,5.83,1.56,11.81,2.38,18.11,1.5l2.75-7.58Zm79.09,267.06c.7,2.98,1.26,5.35,1.94,8.25-2.41-.41-4.27-.79-6.15-1.04-5.7-.75-11.4-.85-16.92,1-5.43,1.83-8.51,6.88-7.55,12.3,2.99-2.02,5.94-4.14,10.05-3.27-1.73,3.23-3.3,6.14-5.05,9.39,13.83,5.39,26.88,6.28,39.8,.15,1.94-6.55,3.77-12.75,5.63-19.03-.42-.29-.76-.63-1.16-.77-6.66-2.28-13.32-4.53-20.58-6.99Zm92.27,26.51c9.62,6.63,31.4,4.96,37.68-.4-1.54-2.75-3.11-5.57-4.82-8.64,4.15-.86,6.75,1.77,9.8,3.57,.15-.57,.35-.99,.36-1.4,0-.68-.04-1.37-.18-2.03-1.2-5.64-4.74-8.92-10.31-10.06-5.54-1.13-11.08-1.01-16.62,.09-1.03,.2-2.1,.23-3.51,.38,.61-2.47,1.08-4.38,1.56-6.35-6.87,2.48-13.46,4.85-19.98,7.2,2.02,5.91,4,11.7,6.02,17.62Zm-129.51-51.65c.8,4.92,4.48,7.86,9.62,7.8,5.01-.06,8.67-3.03,9.34-7.8h-18.96Zm159.14,1.26c2.42,4.85,7.35,7.57,11.81,7.03,4.22-.52,7.75-3.48,8.63-7.03h-20.44Z"/><path d="M271.88,206.13c.39-10.24,1.43-18.81,6.07-26.49,.93-1.55,2.03-3.05,3.29-4.35,5.97-6.18,13.81-6.26,20-.33,3.55,3.4,5.91,7.51,7.34,12.16,4.25,13.89,4.28,27.67-1.67,41.08-1.4,3.16-3.47,6.23-5.9,8.69-5.63,5.67-13.28,5.37-18.82-.4-4.92-5.11-7.37-11.5-8.71-18.29-.88-4.46-1.2-9.02-1.59-12.07Zm12.99-16.58c.31,4.25,2.46,8.46,7.09,11.11,3.18,1.82,7.16,1.53,9.23-.7,3.4-3.65,2.99-7.97,1.43-12.18-1.6-4.3-3.99-8.14-9.16-8.58-4.91-.42-8.56,3.72-8.59,10.36Z"/><path d="M182.16,202.93c-.39,11.74-1.93,21-7.23,29.24-2.19,3.41-4.9,6.27-8.84,7.73-4.6,1.7-8.71,.91-12.48-2.14-3.28-2.65-5.57-6.02-7.09-9.9-5.27-13.44-5.73-27.07-1.35-40.82,1.54-4.86,4.18-9.1,7.99-12.55,5.79-5.24,13.03-5.15,18.73,.24,4.47,4.24,6.86,9.68,8.24,15.48,1.15,4.85,1.6,9.86,2.04,12.7Zm-29.96-4.59c.07,.72,.08,2.22,.38,3.66,.76,3.67,2.48,6.72,6.43,7.62,3.77,.85,6.71-.96,8.95-3.76,4.62-5.75,6.42-12.26,4.38-19.52-.93-3.31-2.68-6.19-6.34-6.95-3.61-.75-6.42,1.03-8.69,3.67-3.56,4.17-5.01,9.11-5.12,15.28Z"/><path d="M226.15,276.55c-14.06-.04-26.24-9.8-29.4-23.55-.69-2.99,.23-5.08,2.58-5.9,2.32-.81,4.01,.37,5.31,3.41,1.2,2.82,2.23,5.8,3.95,8.29,8.85,12.75,27.57,12.42,36.91-.65,1.76-2.47,2.91-5.38,4.25-8.14,1.29-2.67,3.1-3.68,5.34-2.78,2.36,.95,3.11,2.77,2.31,5.63-3.87,13.83-16.95,23.74-31.25,23.7Z"/><path d="M310.61,262.71c-6.15-.33-10.33-1.14-14.03-3.72-5.71-3.98-6.15-10.06-1.02-14.69,6.57-5.93,20.38-6.09,27-.31,5.43,4.74,4.38,12.6-2.54,16-3.38,1.65-7.32,2.14-9.4,2.72Z"/><path d="M144.31,261.98c-5.22,.31-9.94-.88-13.72-4.74-4.4-4.49-3.93-10.05,1.15-13.73,7.14-5.17,18.12-5.33,25.42-.37,6,4.08,6.02,11.38,.11,15.62-3.92,2.81-8.32,3.46-12.97,3.22Z"/><path d="M226.67,228.27c3.54-.1,6.72,.96,9.58,3.03,4.94,3.58,5.81,9.15,2.19,14.04-5.23,7.06-15.92,8.01-22.37,1.98-5.1-4.77-4.92-11.2,.48-15.64,2.93-2.41,6.31-3.57,10.11-3.41Z"/></g></svg>