<svg viewBox="0 0 100 100" version="1.1" xmlns="http://www.w3.org/2000/svg"><g transform="translate(8.23886052079581, 1) scale(0.1038201580608937) translate(-107.23, -39.84)"><path fill="#000000" opacity="1.00" d=" M 243.33 40.47 C 249.56 40.21 255.79 40.22 262.02 40.28 C 292.45 39.84 321.48 54.21 343.62 74.36 C 356.32 86.21 366.68 100.30 376.41 114.60 C 379.45 114.89 382.24 113.27 385.00 112.23 C 398.34 106.22 412.24 101.57 426.25 97.41 C 480.26 81.42 536.03 71.98 592.07 66.86 C 594.31 66.72 596.62 66.41 598.85 66.94 C 598.97 73.05 595.25 78.33 592.31 83.40 C 589.49 87.36 586.72 92.27 581.66 93.55 C 572.55 96.19 563.57 99.24 554.48 101.93 C 560.06 94.38 568.00 88.75 573.14 80.83 C 555.64 83.05 539.37 90.94 522.81 96.74 C 505.65 102.62 487.68 105.45 470.08 109.62 C 448.65 114.52 427.35 120.12 406.65 127.55 C 391.04 133.56 374.62 140.01 362.78 152.21 C 370.94 150.19 377.66 144.49 385.85 142.51 C 381.87 147.56 375.11 149.41 370.77 154.11 C 397.99 141.81 425.39 129.40 453.93 120.31 C 458.23 118.28 460.85 123.07 463.25 125.77 C 485.86 155.51 496.01 192.57 501.88 228.91 C 505.59 250.73 505.72 272.93 505.07 294.99 C 504.51 319.59 502.47 344.36 495.73 368.11 C 489.18 372.85 475.89 366.71 472.22 376.15 C 469.20 382.24 466.06 388.69 460.89 393.25 C 461.34 388.79 464.36 385.01 464.38 380.48 C 461.07 382.11 459.75 385.84 457.36 388.44 C 449.60 397.64 441.40 406.67 431.55 413.69 C 404.37 433.12 365.90 433.25 337.32 416.74 C 322.89 407.81 310.55 394.98 303.49 379.44 C 301.49 375.30 300.91 370.47 298.17 366.71 C 276.30 372.21 254.85 379.57 233.81 387.71 C 212.06 395.69 194.35 411.17 177.75 426.81 C 171.22 435.31 163.03 442.93 158.54 452.74 C 155.21 475.68 158.44 499.53 167.07 521.03 C 178.48 549.38 199.03 573.48 223.68 591.28 C 251.10 611.34 283.60 623.41 316.63 630.47 C 330.00 633.48 343.74 634.13 357.22 636.41 C 353.24 638.38 348.70 638.78 344.61 640.50 C 334.42 643.95 326.51 651.70 319.76 659.79 C 308.55 673.53 300.21 689.50 294.39 706.21 C 277.63 754.75 287.45 810.97 318.19 851.87 C 324.00 859.92 331.03 866.94 337.77 874.19 C 340.00 876.17 338.93 879.40 339.20 882.02 C 338.61 904.05 344.99 926.30 357.41 944.53 C 370.03 964.49 398.30 974.76 419.58 962.47 C 443.57 948.99 452.21 918.93 449.97 892.98 C 449.64 877.18 442.16 861.96 430.10 851.83 C 417.63 841.86 399.72 839.66 385.07 845.87 C 368.47 852.70 357.29 868.91 353.07 885.93 C 350.64 894.52 350.51 903.50 349.64 912.33 C 342.69 896.51 340.27 878.29 344.52 861.41 C 351.96 837.61 376.37 821.41 400.98 821.41 C 433.25 820.18 462.66 845.78 468.88 876.90 C 473.11 900.26 471.42 925.48 459.28 946.34 C 486.64 950.37 514.40 950.67 542.01 950.59 C 582.99 950.06 625.05 946.39 663.00 929.76 C 682.46 921.85 697.70 906.80 711.24 891.20 C 726.90 872.77 735.93 849.90 748.81 829.75 C 743.62 847.99 737.83 866.18 734.64 884.91 C 740.89 869.68 746.96 853.70 755.24 839.16 C 766.95 820.33 770.91 797.61 770.87 775.73 C 767.73 778.29 765.22 781.51 762.31 784.31 C 738.97 807.72 698.38 810.74 671.69 791.28 C 662.83 785.53 656.99 776.54 650.07 768.86 C 636.76 801.76 625.10 835.33 611.22 868.01 C 607.83 878.50 593.64 883.87 584.45 877.59 C 578.57 872.71 575.60 865.39 572.37 858.68 C 559.02 827.94 549.25 795.75 536.01 764.98 C 530.93 768.45 527.07 773.38 522.35 777.31 C 506.08 791.17 485.74 801.84 463.95 802.17 C 449.22 803.02 434.03 802.31 420.23 796.62 C 405.98 790.68 392.20 782.10 381.70 770.83 C 386.81 772.01 391.29 774.89 396.15 776.75 C 413.76 784.09 433.26 784.24 452.02 783.95 C 474.61 782.05 495.92 772.17 514.04 758.89 C 523.77 751.46 533.23 742.85 538.51 731.59 C 542.42 722.27 541.99 710.06 534.21 702.80 C 527.17 694.73 516.41 691.11 505.95 690.81 C 490.97 690.31 475.00 690.92 461.73 698.71 C 460.41 699.43 458.95 699.87 457.48 700.15 C 461.08 693.66 468.33 689.92 473.19 685.10 C 462.02 681.93 450.54 686.27 439.80 689.10 C 444.99 683.95 451.83 680.92 458.07 677.26 C 442.30 672.70 425.62 676.25 409.91 678.94 C 424.34 666.20 445.22 663.93 463.63 666.47 C 471.96 667.53 479.72 670.93 487.85 672.80 C 489.05 667.36 490.14 659.83 484.74 656.28 C 469.33 643.26 469.46 616.63 484.32 603.26 C 486.82 600.74 490.98 599.95 492.53 596.55 C 493.91 582.55 499.36 569.15 506.18 556.96 C 515.38 543.79 526.62 531.89 539.72 522.55 C 533.94 513.94 529.11 504.70 524.72 495.29 C 522.14 493.16 525.21 489.25 522.27 487.57 C 520.17 481.02 521.27 473.62 519.04 467.01 C 518.58 465.74 517.20 465.37 516.05 465.11 C 500.36 462.46 486.82 449.48 483.71 433.86 C 482.89 424.85 488.03 415.84 495.32 410.76 C 494.68 412.54 493.81 414.21 492.96 415.90 C 494.56 415.04 497.97 412.30 496.66 416.07 C 493.94 427.15 500.86 438.40 510.63 443.35 C 520.05 448.44 531.34 448.11 541.63 446.54 C 558.58 443.62 572.53 430.18 578.50 414.38 C 579.22 411.85 580.70 409.09 579.72 406.45 C 563.64 405.84 546.62 395.15 542.62 378.95 C 540.26 368.71 548.93 359.92 558.15 357.29 C 570.43 354.07 583.64 353.93 596.09 356.34 C 608.73 359.70 622.99 371.46 619.17 385.96 C 615.88 398.70 603.15 405.00 591.27 407.42 C 588.69 413.17 590.96 419.92 592.40 425.75 C 597.79 444.63 622.47 454.60 639.32 444.28 C 646.88 440.19 647.60 430.71 652.46 424.45 C 654.61 421.67 656.76 425.77 657.39 427.72 C 662.26 440.26 654.56 454.24 643.65 460.73 C 639.03 463.89 633.43 464.93 628.52 467.42 C 627.58 481.13 632.16 496.37 624.37 508.75 C 637.66 514.02 651.22 519.46 662.52 528.43 C 682.56 544.56 696.87 568.29 699.98 593.99 C 700.30 597.83 701.95 601.53 705.09 603.87 C 720.75 616.95 722.11 642.72 709.17 658.13 C 704.94 663.05 699.12 666.11 694.18 670.20 C 693.35 676.48 693.00 682.85 692.72 689.19 C 703.61 684.87 717.16 683.44 727.14 690.74 C 723.04 691.51 718.78 691.65 714.83 693.08 C 716.29 698.56 723.26 700.82 725.96 705.89 C 718.42 703.59 711.00 699.92 702.85 701.08 C 704.57 703.23 706.64 705.09 708.29 707.32 C 693.41 704.94 676.90 704.53 663.59 712.67 C 653.47 718.17 649.68 731.67 654.06 742.01 C 665.06 763.09 686.40 778.56 709.99 782.00 C 724.55 784.08 740.05 779.99 751.13 770.16 C 765.37 757.80 772.19 738.53 772.10 719.97 C 772.65 694.66 765.88 668.23 749.54 648.49 C 746.99 644.14 740.72 644.65 738.07 641.37 C 767.14 637.46 795.77 627.85 820.16 611.24 C 849.80 589.60 874.11 558.08 879.89 521.10 C 884.15 493.27 883.06 463.44 869.90 437.98 C 857.11 411.98 834.73 391.22 809.47 377.49 C 807.74 376.74 804.33 374.39 803.40 377.21 C 800.14 394.04 788.97 408.67 774.93 418.16 C 748.93 435.24 711.80 432.12 688.85 411.16 C 675.82 399.16 666.90 383.57 656.82 369.31 C 657.31 375.08 660.16 380.31 660.85 386.05 C 656.29 379.59 647.98 380.85 641.34 378.72 C 640.30 376.62 639.78 374.32 639.21 372.07 C 626.77 316.62 625.84 259.00 609.51 204.35 C 601.32 176.40 591.34 148.13 573.13 124.97 C 571.73 123.02 570.28 121.06 569.51 118.77 C 576.82 118.86 583.87 121.19 590.96 122.73 C 626.40 131.23 660.56 145.24 691.41 164.67 C 706.92 174.71 720.53 187.38 733.27 200.69 C 754.75 223.88 774.87 248.96 788.28 277.78 C 803.53 309.62 817.73 342.11 828.44 375.78 C 830.15 377.49 828.72 372.76 828.84 371.87 C 822.33 334.85 808.97 299.32 792.16 265.81 C 765.34 211.77 722.43 164.53 667.36 138.61 C 638.22 125.26 606.79 115.79 574.58 114.81 C 584.34 109.37 592.43 101.67 601.10 94.78 C 616.53 100.07 632.71 102.98 647.98 108.84 C 658.29 112.22 667.78 117.75 678.07 121.10 C 681.59 117.63 683.06 112.73 685.67 108.63 C 706.44 73.66 746.34 50.99 787.01 51.05 C 804.28 51.15 821.16 56.21 836.77 63.33 C 850.63 69.45 861.63 80.24 872.14 90.86 C 888.01 106.50 897.19 127.37 904.79 147.95 C 911.72 166.35 911.69 186.32 910.52 205.66 C 909.23 224.47 901.25 241.98 892.26 258.26 C 877.12 280.82 853.93 298.11 827.32 304.30 C 842.14 335.54 861.30 364.62 878.25 394.76 C 891.94 419.99 904.47 446.46 909.75 474.87 C 911.66 492.14 911.36 509.68 909.13 526.90 C 902.74 560.56 886.06 592.48 860.93 615.92 C 838.57 636.99 809.98 651.19 779.82 656.76 C 781.66 663.37 785.09 669.42 787.02 676.01 C 793.61 696.13 791.35 717.60 790.50 738.36 C 791.48 749.82 796.64 760.52 797.30 772.04 C 798.04 785.88 796.68 799.75 797.16 813.58 C 815.19 813.63 834.10 819.95 845.25 834.80 C 861.96 855.91 861.22 886.55 848.35 909.37 C 844.15 917.75 837.99 924.91 833.22 932.95 C 849.41 936.24 866.10 936.78 882.20 940.61 C 885.24 941.53 889.29 942.33 890.46 945.73 C 891.37 948.71 888.60 951.07 886.01 951.82 C 876.99 954.97 867.41 955.97 858.06 957.67 C 830.11 962.04 802.14 966.26 774.09 969.83 C 736.09 973.40 698.16 977.75 660.04 979.80 C 616.09 982.74 572.02 982.91 528.00 983.76 C 474.99 982.55 421.89 983.78 368.97 979.94 C 294.61 975.50 220.38 967.88 146.85 955.83 C 139.94 954.20 132.20 953.05 126.81 948.08 C 124.68 945.77 128.14 944.04 129.93 943.17 C 142.48 937.57 156.28 935.36 169.93 934.82 C 156.92 921.25 142.28 906.05 141.89 885.98 C 140.99 873.76 152.18 863.76 163.89 863.92 C 156.18 844.04 150.48 823.25 148.74 801.92 C 142.75 741.98 157.67 680.09 191.18 629.94 C 194.62 624.52 198.51 619.37 201.73 613.82 C 198.63 610.50 194.45 608.11 190.96 605.11 C 157.70 579.63 133.86 541.56 127.35 500.01 C 125.51 477.14 124.97 453.71 130.41 431.26 C 141.91 385.41 164.57 343.12 191.32 304.44 C 192.56 302.06 195.03 299.86 194.95 297.10 C 171.72 290.65 150.44 276.32 135.93 256.97 C 108.88 221.29 107.23 171.69 123.11 130.99 C 142.56 82.17 189.77 42.83 243.33 40.47 M 242.36 59.49 C 212.25 61.95 184.30 78.21 165.41 101.47 C 162.12 105.74 158.91 110.19 156.92 115.24 C 169.77 101.64 181.73 85.82 199.57 78.50 C 215.78 70.51 233.93 66.55 252.01 68.04 C 275.15 68.26 297.24 77.68 315.63 91.28 C 330.79 102.29 343.45 116.26 355.66 130.36 C 357.94 132.71 359.82 135.61 362.79 137.16 C 351.94 109.60 332.25 85.02 305.64 71.35 C 286.54 60.62 263.96 57.43 242.36 59.49 M 778.36 70.49 C 745.77 73.74 716.09 95.00 701.78 124.27 C 713.58 115.70 721.71 102.14 735.32 96.02 C 732.72 100.16 728.45 103.00 726.23 107.40 C 744.86 93.99 765.54 81.51 788.95 79.38 C 803.34 78.71 817.60 82.32 831.02 87.26 C 850.44 94.04 864.36 110.20 876.08 126.26 C 860.40 89.13 818.40 65.05 778.36 70.49 M 221.29 96.44 C 202.09 96.99 184.05 106.08 171.09 120.07 C 147.33 144.29 138.12 181.84 148.65 214.18 C 153.56 230.61 165.08 244.28 178.47 254.59 C 194.47 265.15 214.98 268.98 233.67 264.55 C 240.13 263.34 242.38 256.39 245.58 251.54 C 254.81 236.44 262.73 219.84 264.04 201.95 C 267.45 197.81 265.75 191.40 267.69 186.51 C 266.55 184.47 264.43 180.54 268.17 183.55 C 268.69 179.19 268.96 174.65 267.90 170.36 C 263.69 169.51 267.50 167.26 269.80 167.48 C 267.11 164.55 264.07 160.32 265.77 156.22 C 266.88 157.32 267.55 159.00 269.20 159.44 C 268.76 156.87 266.59 155.21 265.30 153.09 C 268.29 152.83 268.23 150.34 267.91 147.98 C 266.26 149.00 265.00 150.72 263.11 151.29 C 260.85 150.23 259.26 147.41 256.58 147.61 C 257.81 150.94 261.06 152.61 263.96 154.25 C 265.47 157.47 260.58 155.25 258.90 155.29 C 260.63 157.37 263.10 158.87 264.21 161.41 C 261.21 159.97 254.80 156.80 258.75 153.20 C 256.97 150.85 253.67 154.78 252.06 156.18 C 255.27 158.69 251.65 161.33 249.11 162.22 C 249.73 160.82 250.64 159.52 250.96 158.00 C 249.89 156.32 246.78 155.58 247.36 153.26 C 248.16 148.54 240.32 148.34 240.06 144.15 C 243.19 140.99 250.61 143.41 249.57 148.40 C 249.09 151.69 253.74 151.87 256.02 151.39 C 255.55 149.46 249.54 146.51 254.22 147.45 C 258.15 145.12 264.04 145.71 266.73 141.05 C 265.61 139.48 265.22 137.70 265.45 135.80 C 260.95 137.02 265.81 142.11 261.61 143.66 C 258.62 145.31 259.55 141.90 259.68 140.13 C 256.28 140.30 256.01 135.98 253.01 135.43 C 251.07 135.91 249.28 136.82 247.39 137.41 C 248.39 135.37 249.97 133.61 252.02 132.59 C 254.90 133.00 256.07 136.24 258.43 137.61 C 260.36 137.32 261.49 135.41 262.77 134.13 C 257.11 135.90 252.44 130.85 248.32 127.73 C 252.99 124.54 245.92 123.43 244.45 120.95 C 246.89 119.49 250.35 121.49 253.05 119.86 C 256.10 118.35 257.97 122.55 260.89 122.65 C 259.54 120.39 257.67 118.51 256.40 116.20 C 253.93 117.19 251.72 118.89 249.08 119.38 C 247.20 118.20 243.34 117.77 245.61 114.89 C 242.95 114.50 238.01 115.63 237.68 111.75 C 239.93 110.63 240.48 114.56 242.83 114.10 C 242.32 112.57 239.49 109.12 242.60 109.01 C 242.81 114.39 249.19 110.57 250.39 107.76 C 248.42 108.17 246.52 108.81 244.56 109.26 C 244.54 107.44 246.60 106.91 247.61 105.75 C 244.09 103.52 240.37 101.72 236.78 99.62 C 234.24 100.40 232.12 102.43 229.36 102.49 C 230.21 100.57 232.83 100.24 233.42 98.11 C 230.38 97.71 226.56 97.14 229.18 101.12 C 226.20 102.72 226.76 97.64 223.80 99.38 C 224.22 97.04 223.96 95.32 221.29 96.44 M 819.16 109.33 C 818.08 109.72 817.66 110.94 816.88 111.68 C 813.81 109.42 808.33 111.15 808.06 115.21 C 800.89 113.01 804.41 126.25 809.82 125.13 C 809.64 127.08 809.26 129.01 809.15 130.97 C 812.37 128.92 811.65 124.25 813.64 121.24 C 812.73 118.56 811.16 116.11 810.72 113.28 C 812.94 114.86 813.13 119.50 817.03 117.92 C 822.20 116.73 816.49 119.58 816.72 121.95 C 818.25 127.14 818.27 132.65 821.10 137.42 C 817.19 135.72 817.17 130.52 813.42 128.75 C 814.93 132.35 811.98 135.44 812.50 139.03 C 812.61 141.00 810.40 141.91 808.89 142.48 C 804.70 140.56 807.60 132.00 809.69 139.09 C 810.93 136.86 809.02 132.96 806.61 131.96 C 806.25 133.76 806.50 136.11 804.11 136.35 C 806.09 140.84 802.44 147.43 808.17 150.32 C 807.92 147.45 806.12 145.11 805.23 142.45 C 807.84 142.07 808.70 145.23 809.53 147.08 C 812.10 147.82 812.93 144.99 813.69 143.19 C 819.92 146.47 806.84 149.87 808.01 152.50 C 811.31 152.74 808.89 156.59 807.00 156.35 C 805.79 151.69 804.18 146.82 800.78 143.30 C 803.68 147.49 801.97 150.81 797.83 152.97 C 799.96 152.41 801.99 151.54 804.12 150.96 C 804.61 153.88 804.77 158.10 808.52 158.57 C 807.52 160.12 806.94 161.87 806.52 163.65 C 804.39 160.80 803.63 157.31 802.83 153.93 C 795.94 152.88 798.37 163.86 804.10 163.00 C 804.04 165.65 800.58 166.31 802.45 169.91 C 798.80 167.80 799.40 159.94 793.62 161.84 C 795.43 159.74 796.54 156.95 794.50 154.56 C 794.74 158.04 791.16 160.95 793.75 164.19 C 795.95 167.09 792.08 168.87 789.73 169.25 C 790.01 167.54 792.46 164.20 790.09 163.41 C 790.29 166.75 785.88 166.30 785.51 169.73 C 790.07 168.44 789.05 174.17 791.77 175.63 C 794.25 174.26 794.31 171.43 794.43 168.95 C 800.95 171.48 793.27 179.30 789.47 177.68 C 789.14 175.98 786.46 175.86 786.95 177.94 C 785.52 181.29 791.31 183.06 787.32 185.49 C 791.58 186.35 786.97 188.46 787.99 191.00 C 790.07 209.52 794.60 227.82 802.33 244.81 C 806.88 254.61 809.82 265.40 816.01 274.30 C 837.87 272.12 856.69 257.39 868.70 239.61 C 881.50 220.42 882.56 196.22 880.72 173.94 C 877.74 157.15 869.97 141.12 858.44 128.54 C 848.31 117.91 834.42 108.34 819.16 109.33 M 250.41 111.01 C 249.22 111.34 248.20 113.66 249.90 114.01 C 252.04 114.45 253.15 110.03 250.41 111.01 M 253.43 113.47 C 251.74 114.17 250.05 115.28 249.41 117.09 C 251.63 117.19 258.20 111.87 253.43 113.47 M 800.36 120.18 C 799.82 121.41 801.57 123.20 802.82 122.68 C 803.48 121.41 801.63 119.49 800.36 120.18 M 252.09 122.88 C 253.89 124.21 253.98 125.95 253.10 127.89 C 255.28 131.02 260.15 134.27 262.70 129.69 C 260.91 128.53 260.98 126.74 261.90 125.03 C 258.34 127.31 255.80 122.50 252.09 122.88 M 798.47 123.26 C 798.25 124.80 799.87 127.61 801.64 127.10 C 801.94 125.44 800.01 123.44 798.47 123.26 M 797.09 126.32 C 796.36 131.03 801.47 127.00 797.09 126.32 M 804.11 126.30 C 803.41 131.03 808.49 127.03 804.11 126.30 M 792.41 134.22 C 788.45 137.89 797.24 134.36 792.41 134.22 M 800.28 139.12 C 797.49 140.58 801.31 142.22 802.40 140.27 C 803.64 138.87 801.08 138.27 800.28 139.12 M 241.82 143.90 C 241.39 147.51 245.87 147.79 248.40 148.01 C 248.02 145.02 244.61 143.23 241.82 143.90 M 796.51 144.50 C 792.10 145.98 798.42 145.40 798.95 147.92 C 802.10 151.55 799.39 141.91 796.51 144.50 M 264.40 145.46 C 263.23 146.40 261.03 147.45 261.70 149.29 C 264.47 149.99 269.69 142.27 264.40 145.46 M 796.13 148.58 C 793.93 153.17 800.64 147.98 796.13 148.58 M 791.56 151.59 C 790.08 152.13 789.13 153.42 789.06 154.99 C 791.10 155.37 794.56 149.68 791.56 151.59 M 250.22 152.32 C 248.55 152.12 248.40 155.56 250.06 154.93 C 252.68 155.42 253.42 150.99 250.22 152.32 M 267.35 161.44 C 267.40 165.94 271.96 160.62 267.35 161.44 M 374.36 275.45 C 358.72 277.65 344.90 290.82 344.07 306.96 C 341.88 321.12 352.39 333.84 364.61 339.46 C 382.69 347.01 405.82 337.17 413.05 318.98 C 419.19 304.18 411.58 285.58 397.29 278.66 C 390.27 275.10 382.08 274.27 374.36 275.45 M 718.39 285.49 C 704.68 287.52 694.88 301.54 696.26 315.06 C 697.18 328.80 708.27 340.13 721.25 343.60 C 730.66 347.51 741.13 343.47 748.91 337.85 C 757.84 331.10 761.63 318.54 757.91 307.98 C 752.74 292.02 734.58 282.42 718.39 285.49 M 319.29 329.41 C 313.70 343.08 314.60 358.76 318.39 372.81 C 325.79 394.07 346.28 408.69 368.19 411.84 C 366.30 408.84 362.40 408.20 359.59 406.32 C 341.35 395.20 326.37 377.47 322.25 356.09 C 319.89 347.19 321.00 337.93 319.90 328.91 L 319.29 329.41 M 679.38 331.43 C 672.18 333.04 673.75 345.83 681.67 344.60 C 690.03 343.62 687.06 330.46 679.38 331.43 M 334.13 332.15 C 327.44 335.18 332.67 347.00 338.91 342.83 C 345.02 340.12 340.14 329.50 334.13 332.15 M 664.22 344.27 C 661.66 364.39 669.40 387.30 688.09 397.27 C 677.69 380.92 666.58 363.83 664.60 344.03 L 664.22 344.27 M 461.35 346.38 C 457.22 361.24 453.17 376.75 443.15 388.95 C 439.12 394.45 433.65 398.75 429.82 404.40 C 443.12 398.70 453.63 387.15 458.47 373.57 C 461.12 364.56 461.47 355.07 461.69 345.73 L 461.35 346.38 M 346.16 350.34 C 338.18 352.90 332.65 361.76 334.21 370.07 C 335.46 378.09 342.65 385.23 351.02 384.97 C 359.82 384.92 367.33 377.43 368.71 368.99 C 368.91 357.84 357.32 347.46 346.16 350.34 M 786.74 350.69 C 787.29 376.94 770.79 401.67 747.40 412.95 C 764.95 411.80 781.17 399.56 786.61 382.78 C 788.84 373.71 789.82 364.22 788.91 354.91 C 788.49 353.47 788.62 351.01 786.74 350.69 M 691.28 352.40 C 684.21 353.81 678.30 360.36 678.45 367.70 C 678.90 376.31 686.94 384.53 695.89 383.27 C 705.31 381.97 711.36 370.75 707.99 362.01 C 705.85 355.22 698.21 350.86 691.28 352.40 M 578.33 365.48 C 572.61 366.00 566.32 365.25 561.19 368.22 C 560.21 372.02 565.17 373.62 567.95 374.75 C 574.74 376.54 582.53 379.41 589.26 376.06 C 593.58 377.70 598.78 377.17 602.44 374.25 C 603.71 371.60 601.46 368.91 599.02 368.07 C 592.49 365.39 585.26 365.44 578.33 365.48 M 569.40 463.50 C 562.14 465.65 554.73 468.03 548.42 472.32 C 542.79 476.87 547.88 484.35 548.36 490.08 C 549.55 493.99 541.83 492.17 543.34 495.99 C 545.76 502.08 549.74 507.96 554.96 511.96 C 567.52 509.46 580.05 506.01 593.00 506.39 C 598.27 505.98 605.11 507.68 608.69 502.64 C 615.87 493.63 614.76 480.80 611.79 470.41 C 604.90 468.90 598.04 466.87 590.99 466.27 C 587.77 465.90 588.08 469.97 587.77 472.08 C 586.89 478.09 588.03 484.32 586.55 490.21 C 586.27 481.54 580.38 474.62 579.16 466.26 C 575.94 465.21 573.00 462.25 569.40 463.50 M 589.30 522.45 C 548.65 524.27 512.80 559.55 510.08 600.06 C 517.10 601.51 524.94 603.31 529.95 609.06 C 531.61 610.50 530.19 613.43 528.03 613.10 C 524.42 612.53 521.55 609.91 518.02 609.04 C 506.48 605.59 492.87 612.81 489.49 624.40 C 487.45 631.36 488.76 640.10 495.17 644.37 C 498.92 644.09 493.37 636.32 497.59 636.38 C 500.80 638.06 502.95 641.50 503.18 645.12 C 504.30 654.80 503.90 664.59 504.56 674.30 C 508.84 676.71 514.47 679.04 519.15 676.27 C 522.85 673.84 521.98 668.80 522.58 665.00 C 522.57 659.92 523.94 654.39 522.32 649.59 C 520.56 652.76 522.87 658.81 518.98 660.14 C 519.05 653.07 521.44 643.94 529.05 641.61 C 535.04 631.85 551.39 637.67 555.11 647.04 C 556.74 658.60 554.66 670.58 557.65 681.99 C 558.54 686.20 562.21 689.62 566.65 689.49 C 571.52 689.66 578.71 690.12 580.43 684.27 C 583.36 671.83 580.27 658.72 583.39 646.30 C 584.97 641.99 590.47 643.43 594.00 643.35 C 600.62 643.48 604.18 650.10 610.16 651.89 C 604.09 644.70 594.76 639.16 585.01 640.87 C 584.62 638.13 587.64 636.57 589.98 636.35 C 602.87 634.93 614.19 643.60 627.00 643.06 C 631.07 643.25 634.87 641.54 638.88 641.20 C 641.46 643.88 637.92 646.50 635.56 647.62 C 631.11 651.99 624.75 652.70 618.90 653.58 C 626.88 655.80 636.43 653.41 641.86 646.85 C 645.09 642.58 652.13 645.77 652.52 650.64 C 653.92 662.39 653.11 674.29 654.26 686.07 C 654.44 691.54 661.01 695.29 665.92 693.21 C 669.31 691.73 672.14 689.20 674.80 686.69 C 675.34 672.91 674.62 659.08 675.16 645.31 C 680.97 643.14 686.65 640.23 692.80 639.21 C 695.30 646.76 686.75 651.03 684.66 657.30 C 695.05 654.36 702.70 642.82 701.66 631.94 C 701.10 618.71 688.30 607.42 675.07 608.88 C 670.39 609.07 666.36 611.58 662.06 613.08 C 665.52 604.56 676.18 604.37 683.99 604.05 C 682.87 556.68 636.18 516.89 589.30 522.45 M 594.13 666.14 C 592.33 667.88 592.62 672.44 594.81 673.46 C 597.55 672.00 600.27 669.98 601.59 667.09 C 600.14 665.00 596.42 665.73 594.13 666.14 M 602.38 669.37 C 598.63 671.78 594.20 675.51 594.68 680.42 C 599.18 678.54 602.40 674.12 605.42 670.38 C 607.17 668.22 603.42 668.25 602.38 669.37 M 639.08 669.74 C 638.37 672.53 639.36 675.37 639.18 678.20 C 634.94 678.69 631.74 675.18 627.95 673.90 C 631.04 676.54 634.76 681.99 639.20 680.23 C 640.83 677.63 642.55 669.28 639.08 669.74 M 612.10 672.97 C 607.49 677.40 603.08 682.04 598.49 686.50 C 597.89 687.23 596.16 688.44 597.67 689.32 C 602.65 694.33 607.56 699.43 612.65 704.33 C 613.80 705.93 615.21 703.88 616.18 703.21 C 621.78 697.91 627.72 692.90 632.66 686.97 C 626.70 681.29 619.54 677.04 612.78 672.39 L 612.10 672.97 M 635.26 693.20 C 628.83 697.86 623.12 703.44 617.31 708.83 C 622.89 714.18 628.16 720.02 634.45 724.55 C 638.22 726.53 637.33 719.56 633.70 721.70 C 636.50 715.24 642.40 710.97 646.69 705.59 C 643.34 701.52 640.51 693.42 635.26 693.20 M 590.44 694.54 C 587.40 699.28 585.03 704.52 580.07 707.94 C 584.47 713.07 589.57 717.91 595.04 721.97 C 601.03 719.26 605.69 713.77 610.57 709.34 C 605.80 704.77 601.02 700.22 596.08 695.85 C 594.53 694.62 592.24 692.50 590.44 694.54 M 558.32 705.44 C 559.05 708.71 560.01 711.94 561.26 715.06 C 563.34 713.36 565.14 711.34 566.82 709.25 C 563.71 708.65 560.94 707.14 558.32 705.44 M 571.40 713.42 C 567.50 716.23 562.72 720.75 563.20 725.80 C 566.06 724.72 567.47 721.78 569.87 720.06 C 571.95 723.17 564.86 728.01 568.54 731.52 C 571.09 734.66 573.72 737.77 576.72 740.51 C 580.90 735.98 587.00 732.11 588.78 726.05 C 585.33 720.08 578.93 712.32 571.40 713.42 M 612.45 714.50 C 607.39 717.97 603.23 722.60 599.01 726.99 C 603.53 732.17 608.53 737.01 613.55 741.74 C 618.42 737.11 623.64 732.60 627.28 726.89 C 627.01 724.26 623.92 722.66 622.23 720.73 C 619.10 718.74 616.32 713.49 612.45 714.50 M 633.35 729.36 C 628.21 734.35 623.19 739.47 618.13 744.53 C 622.45 749.72 627.31 754.79 632.72 758.87 C 636.04 755.61 639.08 750.57 636.28 746.03 C 633.48 741.16 634.76 732.38 633.35 729.36 M 594.21 731.25 C 589.06 734.79 584.83 739.53 580.66 744.14 C 585.08 749.22 589.55 754.35 594.66 758.75 C 599.82 754.71 604.30 749.83 608.78 745.07 C 604.77 740.27 600.15 732.76 594.21 731.25 M 563.79 736.64 C 565.20 741.60 566.24 746.71 563.85 751.60 C 567.03 749.64 570.16 747.49 572.70 744.73 C 570.64 741.25 567.50 738.27 563.79 736.64 M 555.41 741.31 C 553.31 742.96 552.46 745.63 552.04 748.17 C 554.33 747.13 553.75 742.18 556.72 743.49 C 559.50 745.18 556.99 740.35 555.41 741.31 M 575.38 749.28 C 574.12 750.47 572.89 751.75 572.05 753.29 C 574.29 754.86 576.94 756.91 576.03 760.07 C 571.60 761.32 568.76 752.09 565.42 757.81 C 571.52 760.33 578.93 766.48 575.75 773.88 C 573.35 773.73 573.93 771.30 573.75 769.58 C 568.21 769.47 574.25 776.35 577.25 775.49 C 582.51 773.12 587.16 768.92 590.29 764.10 C 586.86 757.96 581.16 753.42 576.17 748.59 L 575.38 749.28 M 613.41 749.24 C 608.91 753.84 604.09 758.17 599.86 763.02 C 604.45 768.53 609.76 773.50 614.95 778.48 C 619.92 773.89 624.92 769.30 629.66 764.48 C 625.03 758.70 619.61 753.57 614.26 748.48 L 613.41 749.24 M 564.99 764.98 C 566.08 766.53 567.39 767.92 568.95 769.03 C 569.70 766.42 567.14 765.14 564.99 764.98 M 594.51 767.47 C 589.84 772.32 584.13 776.55 580.11 781.77 C 585.26 786.47 590.27 791.45 595.99 795.47 C 601.53 791.62 606.18 786.51 610.41 781.28 C 605.59 776.28 600.71 771.30 595.72 766.47 C 595.42 766.72 594.81 767.22 594.51 767.47 M 627.28 772.33 C 624.43 774.76 621.59 777.34 619.44 780.43 C 618.16 782.07 620.36 785.27 622.17 784.91 C 624.75 780.84 626.24 776.16 628.07 771.72 L 627.28 772.33 M 562.79 772.33 C 563.81 776.48 563.86 781.88 567.79 784.45 C 574.84 780.95 565.96 775.15 562.79 772.33 M 614.29 785.40 C 609.21 789.87 604.10 794.68 599.89 799.95 C 603.61 803.85 607.12 808.17 611.65 811.14 C 615.16 804.78 617.82 797.91 620.03 791.01 C 618.28 789.05 616.39 786.68 614.29 785.40 M 574.15 787.07 C 572.91 787.83 572.10 789.12 571.91 790.56 C 573.94 791.01 576.24 791.45 576.18 794.05 C 573.95 793.84 571.77 793.33 569.57 792.95 C 571.78 800.02 573.79 807.25 577.10 813.90 C 582.68 809.84 588.31 805.50 592.98 800.45 C 587.28 795.69 582.24 786.18 574.15 787.07 M 596.47 804.22 C 591.96 808.98 586.89 813.35 583.20 818.80 C 586.24 823.44 590.24 827.94 595.00 830.75 C 600.24 828.91 603.00 822.97 608.60 821.45 C 608.57 813.96 601.43 808.95 596.47 804.22 M 605.44 826.41 C 602.91 828.82 601.07 831.94 599.67 835.13 C 598.45 836.58 601.00 838.92 602.12 837.17 C 604.62 833.87 605.75 829.75 606.83 825.81 C 606.48 825.96 605.78 826.26 605.44 826.41 M 583.28 829.92 C 584.18 833.04 584.82 836.57 587.11 839.02 C 592.37 837.77 586.70 830.61 583.28 829.92 M 795.32 835.44 C 782.41 835.89 771.31 843.65 762.85 852.86 C 746.58 869.04 737.30 892.05 738.52 915.04 C 738.66 926.89 742.91 939.97 753.64 946.30 C 766.61 953.97 783.15 950.37 794.96 942.16 C 814.66 928.64 830.38 908.29 836.23 884.92 C 840.00 870.33 836.70 853.20 824.76 843.24 C 816.93 835.92 805.60 834.40 795.32 835.44 M 594.32 840.20 C 587.57 845.05 591.30 853.81 593.33 860.14 C 596.50 856.76 597.02 851.38 598.67 847.06 C 600.27 844.01 597.64 839.99 594.32 840.20 M 162.22 884.43 C 158.42 885.44 161.91 891.01 162.05 893.95 C 169.98 909.57 185.86 919.99 202.22 925.15 C 194.52 915.17 184.98 906.59 178.25 895.83 C 174.79 890.16 169.39 884.33 162.22 884.43 Z"/><path fill="#000000" opacity="1.00" d=" M 224.24 101.39 C 227.00 101.45 228.34 104.63 230.95 105.02 C 233.01 104.22 234.79 102.89 236.69 101.79 C 234.94 105.89 242.66 101.85 239.72 105.67 C 237.78 108.57 235.41 103.96 232.97 105.71 C 231.30 106.09 227.29 108.42 230.07 109.88 C 233.34 108.41 236.82 107.10 240.48 107.89 C 239.36 109.64 237.70 110.92 236.35 112.46 C 237.30 115.91 243.31 117.42 241.19 121.59 C 246.63 126.11 235.31 122.86 238.99 119.75 C 240.13 116.97 234.91 116.48 233.60 114.32 C 230.83 113.63 234.00 118.19 231.53 118.11 C 227.02 113.70 220.43 110.91 216.01 107.25 C 220.41 108.13 224.16 111.69 228.76 111.39 C 225.59 106.03 218.40 104.81 212.66 105.13 C 217.04 97.96 222.30 106.95 228.06 106.77 C 227.80 104.21 221.35 104.30 224.24 101.39 M 232.20 110.40 C 230.60 110.88 228.64 112.02 229.09 114.02 C 231.47 114.65 236.57 108.42 232.20 110.40 Z"/><path fill="#000000" opacity="1.00" d=" M 215.22 110.37 C 218.10 111.74 220.34 114.18 223.49 115.03 C 222.21 117.15 220.47 119.07 218.13 120.00 C 217.35 118.24 218.59 117.19 219.93 116.27 C 218.55 114.14 216.03 112.87 215.22 110.37 Z"/><path fill="#000000" opacity="1.00" d=" M 814.23 112.38 C 815.65 113.36 817.06 114.46 818.24 115.76 C 815.81 117.58 811.90 113.47 814.23 112.38 Z"/><path fill="#000000" opacity="1.00" d=" M 808.36 117.40 C 811.15 116.26 806.47 121.54 808.75 124.02 C 805.99 122.85 803.79 117.48 808.36 117.40 Z"/><path fill="#000000" opacity="1.00" d=" M 236.13 118.27 C 239.28 121.10 231.98 121.04 236.13 118.27 Z"/><path fill="#000000" opacity="1.00" d=" M 228.19 119.49 C 229.54 119.00 231.87 120.44 231.71 121.94 C 230.37 122.49 227.83 121.06 228.19 119.49 Z"/><path fill="#000000" opacity="1.00" d=" M 225.31 121.85 C 231.99 125.15 239.24 131.64 246.88 128.73 C 248.37 129.66 250.36 131.38 249.25 133.36 C 247.73 132.66 246.43 131.15 244.61 131.48 C 238.37 131.94 233.67 126.97 227.88 125.66 C 225.22 127.14 223.17 129.68 220.11 130.39 C 218.99 128.13 219.63 127.23 222.02 127.71 C 225.35 127.63 221.10 124.77 220.41 123.69 C 223.10 124.60 227.08 126.20 225.31 121.85 Z"/><path fill="#000000" opacity="1.00" d=" M 819.45 121.15 C 822.27 122.56 823.94 126.10 824.12 129.16 C 821.07 127.60 820.65 123.98 819.45 121.15 Z"/><path fill="#000000" opacity="1.00" d=" M 245.41 124.48 C 250.73 125.19 242.48 128.98 240.16 127.30 C 241.14 125.36 243.47 124.86 245.41 124.48 Z"/><path fill="#000000" opacity="1.00" d=" M 255.07 126.15 C 257.80 126.18 259.75 128.68 260.25 131.19 C 257.61 130.87 255.51 128.73 255.07 126.15 Z"/><path fill="#000000" opacity="1.00" d=" M 821.02 131.18 C 824.39 131.34 819.55 134.20 821.02 131.18 Z"/><path fill="#000000" opacity="1.00" d=" M 237.18 132.30 C 239.03 131.69 239.86 134.87 237.94 135.28 C 236.01 135.88 235.34 132.76 237.18 132.30 Z"/><path fill="#000000" opacity="1.00" d=" M 241.21 135.47 C 243.28 135.01 248.16 138.38 244.81 139.52 C 243.91 137.85 238.48 137.11 241.21 135.47 Z"/><path fill="#000000" opacity="1.00" d=" M 814.14 135.03 C 816.09 135.07 817.98 137.60 815.96 138.97 C 814.01 138.73 813.83 136.56 814.14 135.03 Z"/><path fill="#000000" opacity="1.00" d=" M 236.49 138.00 C 237.99 137.29 240.90 138.99 240.66 140.69 C 239.14 140.79 236.62 139.68 236.49 138.00 Z"/><path fill="#000000" opacity="1.00" d=" M 247.68 139.71 C 250.32 140.08 252.50 142.16 254.28 144.04 C 251.43 144.66 248.01 142.77 247.68 139.71 Z"/><path fill="#000000" opacity="1.00" d=" M 817.36 147.41 C 820.04 146.82 814.39 151.17 812.45 151.25 C 813.54 149.40 815.38 148.15 817.36 147.41 Z"/><path fill="#000000" opacity="1.00" d=" M 240.28 149.21 C 241.66 148.95 243.92 150.36 243.69 151.89 C 242.27 152.53 239.98 150.69 240.28 149.21 Z"/><path fill="#000000" opacity="1.00" d=" M 799.90 155.64 C 802.40 155.74 803.29 159.16 801.82 160.90 C 800.00 159.81 799.58 157.61 799.90 155.64 Z"/><path fill="#000000" opacity="1.00" d=" M 256.23 160.26 C 257.61 159.29 256.36 163.54 256.92 164.40 C 258.21 164.06 258.98 162.99 259.80 162.04 C 259.76 164.25 259.59 167.16 262.26 167.92 C 262.98 166.58 262.18 165.07 262.22 163.67 C 263.91 164.76 264.88 167.57 262.63 168.65 C 259.67 170.52 258.34 165.87 255.29 166.65 C 256.62 163.38 254.02 164.28 251.79 164.78 C 252.87 162.92 254.53 161.52 256.23 160.26 Z"/><path fill="#000000" opacity="1.00" d=" M 797.26 166.44 C 801.59 166.65 796.19 171.17 797.26 166.44 Z"/><path fill="#000000" opacity="1.00" d=" M 811.32 167.44 C 813.14 167.61 809.12 170.55 808.00 171.30 C 806.56 173.76 811.13 171.65 811.88 171.83 C 809.81 174.33 807.16 176.31 804.20 177.64 C 807.55 174.76 806.28 168.66 811.32 167.44 Z"/><path fill="#000000" opacity="1.00" d=" M 248.01 169.77 C 250.13 171.05 252.11 172.72 253.21 174.99 C 251.08 173.70 249.35 171.84 248.01 169.77 Z"/><path fill="#000000" opacity="1.00" d=" M 791.20 171.13 C 795.84 170.09 790.16 175.77 791.20 171.13 Z"/><path fill="#000000" opacity="1.00" d=" M 259.25 172.27 C 264.17 171.68 256.81 177.54 259.25 172.27 Z"/><path fill="#000000" opacity="1.00" d=" M 802.44 173.31 C 807.74 171.25 801.82 177.25 799.14 176.03 C 798.08 173.45 800.94 174.09 802.44 173.31 Z"/><path fill="#000000" opacity="1.00" d=" M 256.20 175.33 C 257.74 173.77 255.06 180.20 257.70 178.75 C 260.26 177.44 258.65 180.33 257.06 180.08 C 254.39 180.14 254.47 176.57 256.20 175.33 Z"/><path fill="#000000" opacity="1.00" d=" M 262.08 175.32 C 266.18 174.10 261.02 179.29 262.08 175.32 Z"/><path fill="#000000" opacity="1.00" d=" M 792.20 180.20 C 795.75 177.79 792.54 183.06 792.41 184.57 C 790.91 183.37 789.77 181.08 792.20 180.20 Z"/><path fill="#000000" opacity="1.00" d=" M 795.15 182.42 C 796.80 181.68 798.24 185.49 796.36 185.82 C 795.15 185.33 794.32 183.53 795.15 182.42 Z"/><path fill="#000000" opacity="1.00" d=" M 559.38 505.28 C 562.74 505.44 557.79 508.22 559.38 505.28 Z"/><path fill="#000000" opacity="1.00" d=" M 573.36 716.16 C 575.67 715.05 574.55 718.98 572.91 718.93 C 571.46 718.71 572.62 716.61 573.36 716.16 Z"/></g></svg>