<?xml version="1.0" encoding="UTF-8"?><svg id="a" xmlns="http://www.w3.org/2000/svg" viewBox="0 0 450 540"><path d="M85.77,242.06c-4.64,.5-8.72,.93-12.81,1.37l-.36-1.56c3-3.55,8.05-3.01,12.06-5.19-1.44-19.32,1.33-38.1,8.4-56.77-3.72,0-6.84,.13-9.96-.02-26.63-1.33-48.07-12.39-62.53-35.02C6.57,122.92,3.39,98.94,10.43,73.88,19.38,41.98,39.13,19.62,70.69,8.71c18.94-6.54,38.08-5.06,56.71,1.7,25.36,9.2,43.51,26.07,52.81,51.74,3.44,9.49,4.88,19.35,4.34,30.08,26.38-7.73,52.57-7.54,79.57,.16,0-3.71-.28-6.96,.04-10.15,2.82-28.02,17.05-49.2,40.62-63.59,30.95-18.89,62.91-20.55,94.48-1.24,22.85,13.98,35.48,35.44,41.4,61.03,6.83,29.51-.35,55.72-20.46,78.11-12.39,13.79-28.48,21.09-46.84,23.23-5.55,.65-11.16,.73-17.37,1.11,6.78,18.06,9.75,36.66,8.02,55.93,3.5,2.54,8.84,1.19,11.35,5.3-.08,.44-.17,.87-.25,1.31-3.85-.4-7.71-.8-10.82-1.12-4.33,10.32-8.55,20.35-12.78,30.43,1.28,1.13,3.09,2.71,5.16,4.53-3.88,3.81-6.71-.03-10.09,.13-6.69,8.66-15.2,15.68-24.92,21.28,6.27,12.77,12.42,25.29,18.82,38.32,2.52,.4,5.79,.75,8.98,1.46,15.34,3.43,26.01,16.01,26.66,31.75,.89,21.52-9.07,36.86-27.59,47.05-7.13,3.92-14.73,6.46-22.99,6.63,.52,.55,1.03,1.1,1.55,1.65-3.85,3.02-7.66,6.08-11.54,9.06-13.14,10.07-25.94,8.93-37.94-3.61-16.76,7.99-34.46,13.06-53.31,13.09-18.83,.03-36.74-4.25-53.92-12.16-.39,.28-.84,.5-1.14,.85-11.24,12.96-25.81,9.49-36.05,1.79-2.4-1.81-4.48-4.16-6.36-6.53-4.53-5.73-8.96-11.54-13.25-17.45-13.6-18.77-16.96-39.59-11.93-61.94,3.55-15.75,10.46-30.14,18.48-44.04,1.22-2.11,2.33-4.29,3.45-6.45,.22-.42,.25-.92,.27-1.01-7.39-6.49-14.58-12.82-22.21-19.52-1.81,.32-4.53,.81-7.31,1.3-1.19-4.69,2.82-4.63,4.51-6.92-6.06-8.96-10.83-18.75-13.07-29.93Zm5.28-85.71l.15,1.92c-1.37,.4-2.72,1.1-4.11,1.17-17.98,.87-32.83-5.44-43.53-20.09-11.31-15.48-14.58-33.06-11.86-51.8,3.1-21.39,13.2-38.67,32.29-49.3,23.16-12.9,46.2-10.4,67.73,4.1,15.79,10.64,23.96,26.1,23.79,45.36-.1,11.56-4.33,21.97-10.78,31.42-5.5,8.06-11.43,15.82-17.05,23.8-15.92,22.59-27.4,46.98-29.47,74.99-.42,5.75-.06,11.56-.06,17.47,1.25,.08,1.84,.18,2.43,.15,15.55-.65,30.71,1.55,45.26,7,6.58,2.47,12.83,5.87,19.1,9.11,1.99,1.03,4,2.75,1.2,6.19-20.34-12.59-42.68-17.96-67.12-17.13,2.02,10.18,6.23,18.73,12.33,26.52,1.11-.39,1.9-.68,2.7-.95,12.24-4.21,24.56-8.13,37.53-9.34,1.56-.15,3.2,.47,4.8,.73l.15,1.54c-1.57,.68-3.09,1.58-4.73,2-6.73,1.74-13.53,3.21-20.24,5.02-5.59,1.51-11.08,3.36-17.23,5.24,1.36,1.6,2.08,2.74,3.06,3.57,4.3,3.58,8.4,7.52,13.08,10.53,26.52,16.99,56.12,23.9,87.12,25.64,22.8,1.29,45.01-2.48,66.68-9.43,14.6-4.69,28.56-10.76,40.54-20.62,3.44-2.83,6.57-6.04,10.52-9.71-3.86-1.27-6.68-2.34-9.58-3.12-9.06-2.45-18.16-4.77-27.23-7.22-1.7-.46-4.09-.49-3.63-4.21,15.25-.12,29.15,5.59,43.32,9.89,5.77-7.7,9.32-15.99,11.27-25.48-1.71-.2-3.12-.51-4.53-.49-20.22,.28-39.5,4.16-56.97,14.95-1.29,.79-2.88,1.09-4.38,1.63-1.57-3.73,.56-4.99,2.48-6.24,13.19-8.57,27.94-12.61,43.35-14.47,6.74-.81,13.58-.86,20.7-1.28,.19-1.07,.62-2.25,.58-3.41-.22-6.7-.09-13.45-.92-20.08-2.91-23.41-12.58-44.19-25.66-63.52-6.9-10.2-14.33-20.07-20.92-30.47-6.45-10.19-9.87-21.45-9-33.73,1.16-16.35,9.02-29.1,21.22-39.49,27.69-23.59,69.26-18.07,89.6,12.06,9.72,14.39,13.09,30.64,12.05,47.76-.94,15.56-6.1,29.59-17.14,40.98-10.89,11.24-24.26,15.98-39.81,14.38-1.54-.16-3.02-1-4.86-1.64,.87-.95,1.02-1.26,1.2-1.28,.96-.14,1.93-.24,2.9-.28,12.79-.61,24.13-4.72,33.21-14.04,15.32-15.73,19.14-39.76,9.57-59.76-9.94-20.8-30.34-32.54-52.94-30.47-26.07,2.39-43.81,25.32-38.94,50.54,1.39,7.21,4.43,13.77,9.18,20.03,.65-1.49,1.08-2.47,1.5-3.46,3.74-8.87,8.81-16.87,15.73-23.59,1.29-1.25,3.08-1.98,5.18-3.28,0,1.52,.11,1.93-.02,2.22-.45,1-.94,1.98-1.5,2.92-5.91,9.96-9.8,20.68-12.35,31.95-.75,3.32-.45,6.11,1.89,8.81,2.22,2.57,4.16,5.43,5.96,8.33,3.9,6.31,7.63,12.74,11.72,19.6,4.33,.28,9.07,.77,13.8,.85,28.38,.47,49.07-11.99,61.24-37.62,9.6-20.21,8.82-40.99,.94-61.55-7.32-19.1-19.21-34.5-38.01-43.64-28.34-13.78-66.06-6.55-88.79,16.94-14.84,15.33-27.36,44.96-12,70.63,.48,.8,.63,1.79,1.13,3.27-41.23-20.42-81.74-20.8-122.8,.29,2.06-4.64,4.09-8.28,5.33-12.17,6.73-21,1.46-39.84-11.5-56.73-13.68-17.82-32.52-26.34-54.6-28.13-15.86-1.29-30.97,1.2-44.56,9.93C28.19,47.52,11.39,90.64,26.28,126.66c13.73,33.21,44.64,45.56,75.55,38.24,.61-1.09,1.27-2.39,2.04-3.62,4.81-7.77,9.52-15.62,14.54-23.25,1.55-2.36,1.99-4.48,1.5-7.17-2.23-12.13-6.51-23.48-12.76-34.1-.54-.92-.81-2.01-1.38-3.49,4.18,.36,6.34,2.73,7.94,5.15,4.61,7,8.84,14.24,13.18,21.42,.71,1.18,1.2,2.49,2.1,4.38,7.26-11.91,10.64-23.82,7.69-36.93-4.02-17.88-18.18-30.15-37.7-32.95-21.37-3.06-40.71,6.13-51.23,24.36-10.42,18.05-8.82,43.25,3.88,59.02,8.44,10.48,19.35,16.55,32.85,17.77,2.2,.2,4.38,.57,6.57,.87Zm84.49,263.75c20.72,15.13,78.01,14.07,97.53-1.64,0-.68,.05-1.41,0-2.13-1.16-14.44,4.13-26.11,15.64-34.71,12.87-9.61,29.15-6.25,37.63,7.43,1.07,1.73,2.06,3.51,3.15,5.37,8.78-15.07,2.38-58.9-10.45-72.23-2.62,9.46-6.98,18.03-12.55,25.96-12.54,17.86-28.38,29.46-51.64,26.56-13.28,8.4-21.55,6.48-31.67-7.48-.36,.55-.69,1.05-1,1.55-7.1,11.39-16.99,13.93-28.81,7.53-1.27-.69-3.01-.87-4.49-.77-6.8,.49-13.42-.34-19.81-2.63-15.46-5.53-25.91-16.67-33.28-30.84-3.74-7.19-6.57-14.84-9.76-22.15-14.16,17.84-18.53,61.59-7.22,75.12,1.32-2.23,2.5-4.49,3.93-6.59,7.85-11.45,21.53-15.27,33.49-9.26,6.48,3.26,11.52,8.16,15.01,14.56,4.48,8.21,5.89,16.97,4.32,26.34Zm-40.07-116.2c0,3.83-.45,7.36,.08,10.73,2.34,14.9,9.09,27.7,19.34,38.66,5.09,5.45,11.22,9.41,18.56,11.15,4.11,.97,8.29,1.95,11.56,.52,1.42-6.17,2.71-11.56,3.87-16.97,.19-.89-.04-1.94-.32-2.83-3.31-10.28-9.32-18.64-18.82-23.84-10.88-5.96-22.1-11.27-34.27-17.41Zm125.24,60.41c.56,.1,1.83,.45,3.12,.53,7.89,.46,14.96-1.97,21.12-6.75,15.52-12.03,23.88-28.25,27.04-47.36,.32-1.95,.04-4,.04-6.23-8.23,4.03-16,7.74-23.68,11.62-5.43,2.74-10.94,5.4-16.08,8.62-8.14,5.11-13.48,12.49-15.63,20.03,1.55,7.42,2.75,13.19,4.07,19.54Zm-37.44-14.71c10.08-13.04,11.32-13.64,25.51-12.39,3.79-5.75,7.58-11.49,11.68-17.71-25.27,4.84-50.18,4.03-75.71-.67,2.33,3.73,4.3,6.64,6.02,9.69,1.77,3.15,3.29,6.43,4.89,9.61,13.74-4.57,21.32,1.05,27.61,11.47Zm60.28,63.85l-.25,.06c.5,2.62,.73,5.32,1.55,7.84,2.31,7.13,8.56,10.87,15.75,8.74,4.2-1.24,8.35-3.45,11.82-6.13,6.27-4.84,6.88-12.83,2.09-19.21-2.95-3.94-6.88-6.54-11.61-7.81-10.17-2.73-18.12,2.81-19.14,13.24-.11,1.09-.14,2.19-.21,3.28Zm-118.44,.22c0-14.3-11.52-21.24-23.83-14.91-5.71,2.94-10.1,7.17-10.35,13.98-.24,6.56,3.87,10.75,9.05,14.04,.92,.59,1.88,1.14,2.86,1.62,10.77,5.25,20.3,.2,22.03-11.68,.17-1.2,.2-2.43,.24-3.05Zm178.14-63.82c6.08,21.35,4.88,41.42-9.02,60.06,1.67-.31,2.55-.33,3.31-.63,2.04-.79,4.09-1.6,6.04-2.58,14.61-7.28,23.08-23.08,20.53-38.22-1.73-10.3-10.39-18.32-20.87-18.63ZM48.78,66.73c12.27-13.28,27.29-18.33,44.18-18.06,17.06,.28,31.56,6.43,42.5,20.96-4.15-15.26-25.04-29.87-42.34-30.45-19.78-.67-39.24,14.45-44.33,27.55Zm353.72,3.34c-7.84-17.48-21.33-28.03-40.41-30.37-16.73-2.05-30.17,4.84-40.77,17.54,23.33-17.65,61.61-12.86,81.18,12.83ZM214.85,359.4c-.01-4.2-1.81-7.92-5.05-10.45-3.2-2.5-6.48-2.77-9.75-.42-3.91,2.81-6.32,6.74-6.94,11.52-.2,1.58,.13,3.47,.87,4.87,2.17,4.07,8.97,6.32,13.85,4.88,4.25-1.26,7.02-5.37,7.01-10.41Zm26.65,10.59c6.17-.07,11.24-4.45,11.19-9.68-.05-5.74-6.65-13.39-11.55-13.39-4.85,0-9.7,6.47-9.62,12.84,.08,6.13,4.14,10.29,9.98,10.23Zm57.77,22.06c.54,0,1.08,0,1.62-.01,.6-1.64,1.21-3.27,1.81-4.91l-1.17-1.08c-1.17,.63-3.08,1.05-3.33,1.95-.33,1.15,.66,2.68,1.08,4.05Zm-149.43,.54c.45-1.78,1.19-3.1,.93-4.19-.22-.92-1.59-1.57-2.6-2.47-2.23,2.79-1.94,4.56,1.67,6.65Zm-11.52,2.57c.55-.24,1.09-.48,1.64-.71,0-1.17,.28-2.44-.12-3.45-.21-.53-1.75-1-2.43-.75-.68,.24-1.6,1.64-1.4,2.11,.44,1.07,1.5,1.89,2.31,2.81Zm175.3-2.27l-1.06-2.2c-1.25,0-3.3-.44-3.59,.09-.57,1.04-.17,2.62-.17,3.97,.69,.38,1.37,.76,2.06,1.13,.92-1,1.84-2,2.76-3Zm9.02,5.6c-.42-.49-.85-.98-1.27-1.47-1.1,.51-2.7,.76-3.15,1.61-.42,.8,.38,2.24,.64,3.4,.51,.07,1.01,.13,1.52,.2,.76-1.25,1.51-2.49,2.27-3.74Zm-190.69,1.89l.2-1.46-4.01-1.45c-.26,.37-.52,.74-.78,1.1,.48,1.18,.96,2.35,1.59,3.9,1.32-.92,2.16-1.51,2.99-2.09Z"/><path d="M187.05,206.07c-.48,10.5-2.26,20.35-9.02,28.64-9.91,12.16-26.74,11.84-35.64-1.1-8.45-12.28-9.25-25.94-5.47-40,2.02-7.51,5.25-14.48,11.22-19.77,9.6-8.51,21.02-7.62,29.19,2.33,7.17,8.74,9.1,19.22,9.72,29.9Z"/><path d="M314.21,208.78c-.27,8.4-1.82,17.2-7.48,24.79-10.32,13.84-29.41,13.09-37.65-2.02-9.74-17.86-8.93-36.03,1.93-53.13,8.54-13.45,23.12-13.83,33.22-1.48,2.13,2.61,3.89,5.63,5.31,8.69,3.28,7.07,4.58,14.62,4.67,23.16Z"/><path d="M229.52,255.45v31.19c2.98-1.14,5.47-1.78,7.64-2.99,7.08-3.98,12.75-9.35,15.96-17.02,.56-1.34,1.66-2.45,2.43-3.56,3.77,1.07,3.58,3.34,2.88,5.71-3.78,12.76-12.42,20.61-24.86,24.67-14.78,4.83-35.39-5.37-40.24-25.03-.35-1.4,.09-2.99,.15-4.28,3.46-1.38,4.18,.85,5.02,2.71,3.35,7.38,8.61,12.99,15.78,16.7,2.18,1.13,4.65,1.69,7.5,2.69v-31.17c-2.73-1-5.57-1.75-8.14-3.04-5.72-2.86-9.72-7.35-9.63-13.99,.09-6.61,4.07-11.28,9.9-13.83,9.24-4.03,18.64-3.9,27.41,1.34,10.35,6.19,10.39,18.77,.09,24.99-3.57,2.15-7.78,3.24-11.9,4.9Zm4.83-21.13c-.5-.73-.8-1.44-1.32-1.9-4.3-3.86-17.11-2.71-20.77,1.82-2.08,2.58-1.3,5.53,1.95,6.69,4.61,1.65,9.17,.86,13.58-.84,2.72-1.05,5.41-2.31,6.56-5.77Z"/></svg>