<?xml version="1.0" encoding="UTF-8" ?>
<!DOCTYPE svg PUBLIC "-//W3C//DTD SVG 1.1//EN" "http://www.w3.org/Graphics/SVG/1.1/DTD/svg11.dtd">
<svg width="1024pt" height="1024pt" viewBox="0 0 1024 1024" version="1.1" xmlns="http://www.w3.org/2000/svg">
<g id="#000000ff">
<path fill="#000000" opacity="1.00" d=" M 342.28 54.45 C 358.52 52.56 375.72 54.48 389.84 63.25 C 413.24 77.36 431.07 101.00 437.75 127.52 C 443.66 126.67 449.55 125.52 455.34 124.02 C 450.25 118.92 443.64 113.91 443.23 106.03 C 442.51 101.14 447.27 97.11 452.00 97.95 C 463.90 99.27 475.28 103.43 487.09 105.24 C 486.29 99.78 482.82 94.75 483.87 89.05 C 484.62 84.75 489.56 80.29 493.95 82.73 C 506.44 88.53 517.59 97.33 531.19 100.61 C 537.00 102.00 542.87 104.91 548.76 104.86 C 547.24 98.51 543.52 91.50 547.18 85.16 C 549.89 80.42 556.66 81.66 559.96 85.08 C 572.86 97.53 584.71 111.05 596.26 124.76 C 600.85 130.00 607.98 131.44 614.05 134.29 C 626.15 139.01 636.91 146.46 647.95 153.02 C 658.97 140.01 672.37 128.80 688.37 122.45 C 710.74 112.82 735.55 108.23 759.86 110.80 C 789.45 115.13 816.45 134.20 830.31 160.74 C 849.67 196.51 850.21 241.68 831.99 278.01 C 818.55 306.00 790.05 326.44 759.05 329.21 C 759.03 333.61 760.53 337.82 761.39 342.09 C 768.64 372.11 776.09 402.20 779.73 432.91 C 780.79 439.08 784.87 444.04 787.40 449.63 C 795.45 465.41 797.36 483.68 795.78 501.13 C 795.11 506.55 793.14 513.55 787.07 514.96 C 780.19 514.29 778.59 506.19 774.84 501.69 C 773.41 514.19 774.20 527.62 767.97 539.01 C 766.07 543.27 759.82 545.63 756.58 541.46 C 754.11 539.41 755.16 534.39 752.41 533.31 C 746.94 544.97 739.36 555.72 729.28 563.85 C 758.34 611.61 777.40 665.09 787.87 719.89 C 791.76 739.16 791.71 758.88 792.60 778.43 C 804.24 779.52 817.37 777.80 827.05 785.84 C 834.24 790.61 835.88 799.90 833.22 807.68 C 838.15 811.39 844.62 813.48 847.77 819.26 C 852.15 825.52 847.86 833.44 843.06 838.05 C 838.22 841.93 841.31 848.73 838.56 853.63 C 836.18 859.82 830.54 863.70 826.83 868.92 C 825.02 876.48 819.41 882.09 813.57 886.80 C 823.16 887.76 832.79 888.13 842.40 888.58 C 844.12 890.06 847.63 890.17 848.39 892.02 C 831.58 895.41 814.09 893.14 797.25 896.48 C 797.22 896.76 797.15 897.33 797.12 897.61 C 807.73 898.25 818.39 897.54 828.99 898.46 C 830.31 898.68 832.07 898.66 832.67 900.21 C 829.28 903.94 823.65 903.42 819.06 903.88 C 795.70 904.53 772.25 904.85 748.95 903.01 C 747.34 902.25 745.29 905.00 747.95 904.96 C 769.91 907.68 792.17 906.27 814.19 908.42 C 807.16 911.17 799.16 909.90 791.90 912.08 C 774.24 914.25 756.37 913.15 738.65 914.51 C 737.42 914.81 735.59 914.40 734.91 915.68 C 745.50 917.42 756.28 917.31 766.93 918.45 C 766.88 922.19 771.78 920.79 773.17 923.13 C 752.10 924.30 730.74 922.93 709.86 926.41 C 710.03 926.66 710.36 927.14 710.53 927.39 C 724.78 928.63 739.12 928.61 753.41 929.17 C 752.54 931.36 758.07 931.92 754.44 932.47 C 723.60 933.36 692.73 932.81 661.88 933.10 C 648.68 939.16 635.58 945.72 621.87 950.72 C 611.53 955.19 599.51 955.49 588.92 951.66 C 579.58 948.47 569.59 948.55 559.86 947.68 C 560.81 947.05 561.77 946.44 562.74 945.84 C 555.17 942.16 546.57 939.58 540.83 933.09 C 537.77 929.82 537.65 925.13 535.80 921.28 C 529.04 921.19 520.94 919.84 514.89 922.68 C 520.81 924.26 527.09 923.01 533.00 924.65 C 534.24 924.80 536.88 926.52 534.68 927.55 C 524.22 932.52 511.34 926.57 501.53 933.51 C 485.99 940.81 470.23 947.77 454.09 953.63 C 445.73 955.26 437.76 958.34 430.23 962.31 C 413.16 970.64 395.52 977.73 377.99 985.02 C 369.97 988.38 360.83 988.61 352.72 985.44 C 330.94 977.43 307.71 973.21 287.08 962.29 C 281.21 960.81 275.02 962.36 269.09 961.11 C 254.18 958.48 239.64 954.11 225.22 949.60 C 218.43 947.19 210.66 944.76 206.71 938.22 C 202.74 932.27 203.54 924.80 203.17 918.01 C 203.04 904.00 202.42 889.98 203.01 875.98 C 203.13 867.39 208.26 859.11 215.94 855.24 C 221.23 852.19 227.34 851.26 232.99 849.19 C 233.80 833.14 233.25 817.03 234.55 801.01 C 234.67 792.42 241.99 786.58 248.36 782.01 C 244.10 765.07 243.94 747.28 245.10 729.93 C 245.52 719.08 252.35 708.48 262.77 704.83 C 263.95 699.33 263.51 693.51 262.83 687.96 C 238.09 673.44 219.91 647.98 214.40 619.78 C 207.25 582.75 221.16 544.14 244.63 515.52 C 247.84 511.47 251.65 507.93 254.64 503.72 C 238.29 490.97 222.51 474.69 216.87 453.95 C 214.23 445.45 213.70 436.54 212.83 427.75 C 208.48 433.11 204.48 440.40 197.02 441.50 C 193.36 439.84 190.36 436.20 190.13 432.10 C 188.91 415.26 195.06 398.88 203.70 384.73 C 199.24 385.43 193.86 388.71 189.82 385.19 C 185.97 380.49 189.06 373.94 191.20 369.14 C 202.31 349.42 218.48 331.88 239.38 322.47 C 243.42 321.16 244.71 316.74 246.40 313.31 C 257.86 285.86 272.07 259.54 288.68 234.89 C 282.87 227.76 275.04 221.17 269.97 212.99 C 250.84 182.03 254.63 141.33 271.21 110.11 C 285.18 82.52 310.85 58.91 342.28 54.45 M 347.29 68.43 C 328.54 70.68 311.74 81.51 299.44 95.48 C 278.58 119.22 268.39 152.66 274.80 183.85 C 277.82 198.83 286.69 212.21 298.01 222.18 C 303.64 214.89 310.15 208.25 315.52 200.76 C 313.66 199.30 309.99 198.62 310.40 195.56 C 312.80 192.37 319.69 196.60 320.95 192.40 C 318.15 190.13 314.60 188.44 313.06 184.98 C 311.30 182.13 314.14 179.12 313.32 176.15 C 312.34 171.52 310.49 166.67 312.10 161.97 C 313.81 159.92 315.03 162.72 315.74 164.16 C 318.52 170.58 320.06 177.80 324.84 183.15 C 326.14 184.57 328.13 186.29 330.17 185.25 C 326.09 175.34 323.74 164.70 323.13 154.01 C 322.70 152.24 323.78 149.01 325.96 150.79 C 331.27 155.74 331.96 164.08 335.02 169.83 C 337.42 163.42 336.94 154.41 336.62 146.99 C 336.57 140.60 330.54 136.30 324.74 135.41 C 315.16 134.64 305.04 136.50 297.15 142.23 C 293.91 144.35 291.47 147.58 287.89 149.19 C 289.11 140.26 297.64 135.72 304.22 131.03 C 299.48 132.25 295.24 134.85 290.49 136.06 C 294.02 127.30 304.12 124.87 311.23 120.13 C 303.36 121.71 296.53 126.07 289.46 129.61 C 295.39 110.90 308.36 93.30 326.02 83.92 C 335.51 79.25 348.15 75.95 357.49 82.63 C 365.74 89.41 367.83 100.91 368.41 111.03 C 368.73 128.46 366.30 146.35 358.63 162.18 C 367.77 156.25 377.35 151.07 387.01 146.04 C 391.38 141.46 389.75 133.62 391.90 128.08 C 394.45 131.43 392.15 136.67 392.70 140.78 C 395.87 139.50 395.71 135.19 396.51 132.37 C 398.22 124.21 396.36 116.01 396.14 107.87 C 398.49 111.71 400.50 115.79 402.07 120.02 C 404.16 125.82 402.42 132.17 404.09 138.04 C 409.77 138.24 408.20 130.68 408.66 127.00 C 410.29 94.79 380.26 63.46 347.29 68.43 M 406.88 92.89 C 406.73 95.10 408.20 97.01 408.97 99.00 C 414.54 110.49 414.62 124.13 410.28 136.03 C 416.59 135.61 418.27 128.22 418.64 123.06 C 419.94 111.72 413.66 101.39 406.88 92.89 M 556.06 93.93 C 560.83 110.79 572.78 124.16 582.16 138.55 C 569.54 129.96 557.81 119.24 543.01 114.42 C 551.59 123.84 562.91 130.55 571.37 140.13 C 565.69 138.52 560.68 135.23 555.45 132.59 C 536.16 121.86 516.93 110.84 499.12 97.75 C 497.93 96.93 496.63 96.22 495.19 95.99 C 500.29 109.78 512.03 119.46 522.32 129.31 C 500.38 121.28 477.88 114.69 455.26 108.85 C 471.09 126.71 496.21 130.70 518.19 136.55 C 494.47 139.18 468.03 143.61 451.33 162.38 C 473.31 157.49 495.53 153.41 518.08 152.33 C 515.32 155.32 510.91 155.86 507.33 157.47 C 476.07 167.10 454.20 196.72 449.04 228.33 C 456.20 218.08 461.23 205.72 471.20 197.73 C 462.90 212.44 456.23 228.15 452.53 244.71 C 450.73 252.99 448.80 261.57 450.25 270.06 C 454.15 254.21 457.44 236.97 468.02 223.89 C 463.74 238.26 460.55 253.18 461.40 268.29 C 471.78 239.29 488.34 210.79 515.13 194.16 C 509.15 201.23 502.75 208.01 497.75 215.86 C 483.15 238.61 476.12 265.64 473.12 292.25 C 478.26 281.92 478.46 269.24 485.74 259.82 C 494.27 245.70 503.13 231.60 514.84 219.85 C 523.79 210.73 532.21 200.65 543.12 193.80 C 521.88 215.76 504.54 241.57 492.56 269.69 C 489.73 276.95 486.84 284.37 486.13 292.19 C 488.34 288.73 489.53 284.75 491.12 280.99 C 503.40 247.41 524.83 217.03 552.96 194.88 C 557.93 191.34 562.92 187.14 569.06 185.97 C 550.79 201.43 533.97 219.16 521.94 239.98 C 539.73 222.92 556.05 203.11 579.04 192.77 C 595.58 185.60 614.20 180.57 632.21 184.58 C 636.96 185.44 641.32 188.03 646.21 188.17 C 638.37 180.95 626.98 178.97 616.90 176.40 C 626.13 174.39 635.52 178.00 644.20 181.06 C 638.84 173.85 629.60 170.77 621.66 167.17 C 630.69 165.99 638.09 172.24 646.12 175.15 C 646.57 170.00 641.71 167.30 638.06 164.83 C 629.99 159.80 621.80 154.87 613.12 150.96 C 612.73 152.41 614.07 157.16 611.50 154.44 C 593.90 138.32 578.46 119.98 563.37 101.52 C 561.07 98.88 559.18 95.70 556.06 93.93 M 423.35 121.33 C 421.95 125.63 420.37 129.88 418.05 133.80 C 420.40 132.76 424.04 132.50 425.12 129.96 C 424.65 127.44 424.31 122.18 423.35 121.33 M 728.35 125.48 C 708.60 129.31 689.42 140.71 679.72 158.80 C 673.94 169.19 672.98 181.68 675.43 193.17 C 677.79 186.17 678.46 178.52 681.83 171.86 C 682.72 178.41 681.04 185.47 682.15 191.70 C 683.75 190.25 684.13 185.89 686.01 183.67 C 684.46 201.42 686.35 222.29 700.40 234.89 C 699.77 230.32 697.20 226.08 697.73 221.36 C 701.86 226.97 703.70 234.29 708.95 239.16 C 704.48 225.60 705.31 211.00 706.42 196.96 C 708.89 179.15 719.38 163.37 732.49 151.47 C 743.64 142.62 758.88 138.09 772.89 141.84 C 783.67 144.58 792.88 151.74 799.51 160.51 C 816.66 183.29 819.00 213.96 813.54 241.11 C 811.93 233.80 814.11 225.51 812.60 217.87 C 810.82 219.85 812.34 222.94 811.90 225.36 C 806.01 216.27 798.68 207.35 788.60 202.77 C 795.14 209.74 803.35 215.93 807.08 224.97 C 800.87 220.81 795.96 214.66 788.86 211.88 C 794.34 217.50 801.12 222.20 805.03 229.12 C 799.26 225.57 794.15 220.92 787.87 218.18 C 779.46 213.27 769.17 213.80 759.90 215.24 C 747.02 219.89 735.41 229.57 729.77 242.19 C 737.27 237.02 744.64 230.57 753.98 229.23 C 756.96 228.54 760.87 232.49 758.02 235.02 C 750.83 241.84 740.92 245.75 734.83 253.70 C 741.08 252.59 747.52 250.22 753.90 251.78 C 756.03 252.07 757.61 255.07 755.73 256.62 C 749.66 261.98 740.79 261.37 733.92 265.07 C 737.39 271.51 750.26 265.17 753.94 272.01 C 751.86 277.83 742.87 274.86 739.66 277.85 C 745.48 289.43 749.08 301.97 754.27 313.77 C 781.63 309.46 806.20 290.89 817.50 265.55 C 830.65 236.44 832.01 201.54 818.65 172.25 C 813.05 159.17 802.57 149.04 791.96 139.91 C 774.41 125.51 750.17 122.81 728.35 125.48 M 465.40 137.44 C 433.19 144.12 401.21 154.42 373.36 172.31 C 336.70 196.43 306.27 229.91 285.66 268.65 C 277.23 284.66 268.36 301.28 265.80 319.32 C 280.67 289.60 293.99 257.56 318.00 233.68 C 306.94 250.75 296.44 268.81 292.66 289.08 C 290.80 297.32 291.13 305.78 290.73 314.15 C 289.80 312.68 289.30 310.85 287.86 309.78 C 288.11 315.43 290.77 320.58 291.73 326.10 C 288.04 322.78 286.17 317.64 281.62 315.23 C 282.83 319.60 286.06 323.07 287.24 327.46 C 285.10 326.99 283.45 325.41 281.54 324.44 C 280.76 326.43 284.31 327.53 285.19 329.24 C 275.58 328.10 265.84 327.90 256.18 328.37 C 245.68 333.39 234.50 338.31 226.61 347.18 C 231.68 346.14 236.81 342.89 242.01 344.19 C 228.69 352.16 213.40 359.02 204.91 372.74 C 214.21 369.77 222.77 364.83 232.16 362.13 C 230.20 367.35 224.57 370.22 221.96 375.16 C 227.62 371.89 232.82 367.54 239.28 365.88 C 236.15 370.46 231.07 373.25 227.41 377.41 C 214.64 389.57 206.37 405.89 203.14 423.14 C 214.45 412.91 223.89 400.51 234.77 389.77 C 222.66 416.25 223.79 449.89 241.03 473.79 C 240.09 464.69 236.83 454.58 240.50 445.88 C 248.03 470.40 262.28 493.80 284.47 507.57 C 290.13 512.06 297.86 509.70 304.11 508.08 C 305.94 504.16 304.06 499.23 306.39 495.31 C 310.26 488.06 319.26 485.38 327.01 485.71 C 336.69 485.87 348.61 484.07 355.61 492.43 C 358.73 495.29 356.92 500.19 359.70 503.08 C 360.39 498.51 361.34 493.34 365.56 490.64 C 374.02 485.04 384.92 484.80 394.61 486.52 C 401.14 488.02 408.76 490.63 411.57 497.33 C 413.68 501.80 412.48 507.07 414.51 511.50 C 420.87 514.29 427.04 518.94 429.50 525.66 C 431.27 539.64 429.95 553.83 431.35 567.84 C 432.94 572.38 438.84 572.10 442.04 575.04 C 449.14 580.45 449.28 590.13 450.17 598.20 C 462.15 600.06 473.20 605.88 482.43 613.61 C 489.15 616.49 496.80 615.74 503.94 616.79 C 507.48 617.56 510.02 614.48 512.34 612.34 C 519.26 605.30 528.24 600.97 536.69 596.13 C 521.51 595.03 506.46 592.29 491.92 587.76 C 488.29 586.12 483.18 585.76 480.89 582.32 C 519.26 584.59 557.75 583.46 596.07 580.87 C 618.38 579.17 640.98 576.68 662.06 568.74 C 675.32 563.76 687.91 556.06 696.80 544.84 C 701.95 538.62 705.14 531.13 708.66 523.94 C 710.25 537.62 706.19 551.66 700.22 563.93 L 700.61 564.61 C 712.97 555.27 721.41 541.27 723.52 525.88 C 726.74 532.45 724.55 540.95 723.16 548.03 C 731.33 540.76 736.75 530.49 739.31 519.94 C 742.28 506.46 735.69 493.22 727.79 482.78 C 743.08 490.51 750.70 507.07 759.72 520.49 C 760.53 511.01 760.27 501.46 759.92 491.96 C 759.56 489.92 760.10 486.98 757.71 486.04 C 752.80 469.42 743.90 453.00 730.34 441.69 C 727.99 439.66 725.17 438.11 723.42 435.47 C 727.54 435.93 730.97 438.52 734.92 439.58 C 727.44 430.71 715.17 427.75 705.93 421.30 C 715.97 422.34 725.01 427.18 734.22 430.89 C 720.52 415.71 698.57 413.75 680.92 405.25 C 685.93 403.33 692.34 405.39 696.76 403.11 C 694.00 399.77 686.46 401.40 681.78 400.59 C 686.80 396.72 693.04 394.85 698.14 391.09 C 694.95 390.59 691.85 391.75 688.69 391.98 C 692.92 388.26 698.58 386.35 702.25 381.98 C 696.07 383.96 690.62 387.63 684.60 389.97 C 688.02 384.73 693.40 380.89 695.94 375.02 C 700.92 363.74 699.75 351.02 699.99 339.00 C 700.54 320.63 695.34 302.60 687.85 285.99 C 687.34 284.66 686.71 283.29 686.81 281.85 C 695.90 292.39 702.59 304.79 710.05 316.42 C 705.75 296.27 692.27 280.01 680.85 263.51 C 694.20 274.94 704.49 289.64 715.26 303.35 C 709.48 284.89 695.33 271.13 682.82 257.09 C 684.92 258.46 686.79 260.22 689.14 261.18 C 684.21 252.67 675.38 247.36 669.65 239.53 C 675.89 241.63 680.75 246.27 686.30 249.60 C 679.12 236.98 665.00 230.99 653.74 222.87 C 659.86 223.67 664.87 227.71 670.64 229.58 C 669.72 226.38 666.78 224.47 664.17 222.73 C 655.90 217.64 646.61 214.32 637.09 212.50 C 647.27 210.36 657.93 216.74 667.32 220.92 C 659.94 211.00 647.52 206.51 635.93 203.66 C 623.75 200.45 611.13 201.45 598.79 202.75 C 612.61 194.83 629.16 196.20 644.48 194.78 C 633.87 188.29 620.26 187.89 608.07 187.77 C 594.87 190.06 580.30 193.86 570.95 204.04 C 584.23 198.47 597.99 193.51 612.52 192.45 C 612.60 192.70 612.75 193.19 612.83 193.43 C 604.22 195.93 595.34 197.52 587.02 200.94 C 567.60 208.50 552.05 223.10 538.34 238.37 C 506.69 274.56 489.93 321.25 481.21 367.92 C 480.37 369.97 480.71 373.51 478.05 374.14 C 471.88 369.92 465.18 366.41 458.06 364.13 C 450.22 361.97 442.00 362.75 433.98 362.35 C 433.90 359.52 434.58 356.68 434.16 353.87 C 431.85 355.20 433.01 359.25 430.68 360.68 C 431.10 346.75 433.79 332.98 434.85 319.09 C 437.55 290.59 436.94 261.89 435.52 233.34 C 435.06 220.62 432.48 207.96 427.71 196.15 C 424.19 187.02 415.91 181.00 407.89 176.02 C 418.33 177.60 426.75 185.66 431.04 195.01 C 434.66 202.03 435.78 210.04 438.73 217.24 C 438.79 200.54 431.65 182.49 417.41 172.99 C 421.42 172.80 425.23 174.20 429.14 174.78 C 423.91 169.16 414.69 170.85 407.79 168.53 C 415.89 166.51 425.23 166.65 432.81 165.19 C 424.92 161.28 414.43 162.59 405.83 164.78 C 414.97 158.67 427.63 160.72 437.85 156.91 C 437.11 153.09 428.56 157.54 428.19 154.31 C 441.44 149.38 456.33 147.08 467.15 137.17 C 466.71 137.24 465.84 137.37 465.40 137.44 M 683.46 137.46 C 673.34 144.61 664.27 155.00 663.17 167.87 C 660.55 181.10 665.37 194.94 673.76 205.08 C 669.58 193.58 669.13 181.11 670.64 169.06 C 672.77 157.26 678.92 146.72 685.20 136.70 C 684.77 136.89 683.90 137.27 683.46 137.46 M 390.99 143.06 C 389.84 147.02 395.12 141.78 390.99 143.06 M 656.28 159.45 C 653.06 167.67 649.84 179.09 657.88 185.53 C 656.99 176.63 655.47 167.72 656.67 158.75 L 656.28 159.45 M 470.40 171.48 C 465.32 173.78 461.86 178.38 458.74 182.82 C 449.89 195.86 443.30 211.16 443.78 227.19 C 443.98 227.41 444.39 227.84 444.60 228.06 C 447.05 213.71 451.70 199.31 460.69 187.65 C 464.66 181.60 470.75 176.98 473.74 170.34 C 472.91 170.63 471.24 171.20 470.40 171.48 M 435.02 183.89 C 436.11 188.65 438.46 193.43 442.07 196.75 C 441.29 192.06 439.83 185.91 435.02 183.89 M 741.05 327.58 C 741.00 332.50 742.47 337.26 743.28 342.07 C 747.47 363.23 750.00 384.67 753.86 405.89 C 754.80 409.47 754.81 413.82 757.79 416.44 C 757.91 409.53 756.65 402.69 755.78 395.86 C 752.24 372.87 748.85 349.55 741.05 327.58 M 741.49 414.65 C 748.21 427.66 758.79 438.28 766.21 450.92 C 774.21 463.51 779.02 477.69 783.49 491.82 C 783.72 491.72 784.18 491.52 784.42 491.42 C 782.70 460.87 764.42 433.70 741.49 414.65 M 328.26 497.41 C 324.67 498.18 320.45 498.21 317.59 500.78 C 316.07 506.33 316.56 512.28 316.93 517.97 C 316.88 521.20 320.11 522.69 322.89 522.83 C 329.30 523.27 335.80 522.91 342.13 521.78 C 349.04 520.67 345.69 511.74 346.31 506.89 C 338.86 509.56 330.76 510.19 322.96 509.02 C 321.20 509.03 320.14 507.50 319.75 505.99 C 328.39 505.77 337.34 507.23 345.78 504.69 C 347.42 502.76 345.76 500.08 343.75 499.27 C 338.96 497.01 333.44 496.67 328.26 497.41 M 378.24 498.39 C 375.63 498.61 372.43 499.92 372.66 503.09 C 372.36 508.99 372.33 514.93 372.66 520.83 C 380.64 522.79 389.08 522.16 397.12 520.92 C 400.55 520.74 400.43 516.58 400.62 514.04 C 400.14 509.56 402.37 503.12 397.72 500.30 C 391.58 497.96 384.72 497.82 378.24 498.39 M 358.29 515.42 C 354.78 516.66 357.47 522.22 354.32 524.33 C 347.25 529.06 338.20 528.81 330.02 528.56 C 322.34 527.94 314.13 527.20 307.49 522.95 C 307.57 522.39 307.72 521.27 307.80 520.71 C 300.78 520.37 293.75 521.56 286.91 523.02 C 302.90 533.47 323.34 535.12 341.96 538.58 C 347.13 538.86 353.21 541.91 357.79 538.27 C 358.88 539.33 359.85 540.52 361.02 541.52 C 378.20 536.34 396.38 535.33 413.68 530.57 C 415.01 530.23 417.82 528.78 415.73 527.37 C 411.27 522.65 404.54 526.17 399.16 526.80 C 387.95 529.54 375.23 529.49 365.54 522.47 C 363.94 520.42 364.80 517.47 364.08 515.08 C 362.15 514.96 360.17 514.94 358.29 515.42 M 266.42 519.34 C 248.23 534.71 235.93 556.23 229.71 579.07 C 227.16 590.19 227.84 601.70 228.03 613.02 C 228.35 617.14 228.22 621.80 230.83 625.27 C 231.31 615.11 230.57 604.72 233.43 594.82 C 235.23 596.52 234.21 599.67 234.71 601.95 C 236.17 621.86 240.33 642.67 252.00 659.23 C 247.30 647.47 244.67 634.40 247.51 621.83 C 250.37 633.98 253.82 646.45 261.75 656.43 C 263.52 649.86 267.10 643.77 272.81 639.89 C 273.83 629.63 272.97 619.27 272.70 608.99 C 262.34 606.38 252.59 599.45 249.04 589.01 C 242.01 568.92 244.46 543.05 261.66 528.70 C 264.53 525.70 268.60 524.34 271.65 521.63 C 271.93 519.51 268.02 517.54 266.42 519.34 M 279.28 535.42 C 268.60 536.26 261.47 545.51 257.61 554.67 C 253.20 564.78 249.65 575.91 251.00 587.06 C 253.60 594.79 262.45 598.50 270.05 598.96 C 273.98 598.87 274.63 593.98 275.75 591.10 C 277.46 586.75 271.99 585.59 269.49 583.52 C 265.79 580.40 261.33 577.37 259.45 572.80 C 268.46 573.24 276.91 577.40 285.95 577.55 C 289.50 577.72 292.30 574.45 292.06 571.01 C 292.41 561.40 282.82 555.10 274.58 552.77 C 279.34 548.88 288.22 552.45 293.02 556.14 C 295.15 557.88 299.73 562.57 301.24 557.91 C 304.83 545.08 291.74 533.30 279.28 535.42 M 416.37 535.45 C 398.14 539.11 379.79 543.32 361.20 544.23 C 359.40 557.37 360.54 570.73 360.31 583.96 C 379.40 582.10 398.49 577.80 417.03 572.76 C 417.52 560.26 417.53 547.73 417.70 535.22 C 417.37 535.28 416.71 535.39 416.37 535.45 M 309.47 537.65 C 313.21 546.65 315.83 558.01 309.47 566.50 C 308.09 569.28 303.86 570.49 304.02 573.88 C 309.76 576.57 316.21 577.14 322.33 578.55 C 333.61 580.30 344.70 584.07 356.19 583.99 C 355.64 571.32 354.79 558.66 354.86 545.98 C 339.67 543.54 324.70 539.81 309.47 537.65 M 417.36 584.50 C 397.12 589.01 376.95 595.46 356.03 595.32 C 337.17 593.02 318.65 588.55 299.97 585.15 C 295.49 586.41 288.81 587.42 287.25 592.45 C 306.17 595.80 325.11 599.15 344.07 602.30 C 349.69 603.03 355.57 604.76 361.07 602.53 C 362.94 603.31 364.54 605.34 366.76 604.59 C 388.94 600.08 411.03 594.93 433.28 590.85 C 434.92 593.85 430.86 594.88 428.77 595.61 C 407.89 601.78 386.38 605.49 365.08 609.87 C 362.99 609.56 363.56 611.80 363.44 612.98 C 363.68 626.38 363.08 639.84 363.69 653.21 C 380.06 651.30 395.92 646.03 411.95 642.26 C 415.35 639.30 417.32 633.51 415.32 629.08 C 412.24 619.38 418.79 609.53 427.04 604.85 C 430.62 602.54 437.20 601.81 435.81 596.00 C 437.60 586.02 425.19 581.65 417.36 584.50 M 287.11 596.95 C 286.69 608.63 286.72 620.32 286.99 632.00 C 286.88 635.40 288.15 639.51 292.02 640.10 C 310.03 645.11 328.47 648.39 346.83 651.78 C 350.77 652.29 354.77 653.57 358.75 652.80 C 359.80 638.63 358.31 624.36 357.78 610.18 C 334.24 605.73 310.62 601.59 287.11 596.95 M 579.77 598.28 C 590.49 601.09 602.30 603.62 610.16 612.11 C 599.19 606.53 587.55 601.51 574.97 601.76 C 561.05 600.85 545.95 602.30 534.23 610.21 C 552.13 607.56 572.26 609.21 586.75 620.99 C 574.00 618.66 560.80 616.93 547.91 619.45 C 552.94 622.74 560.41 622.71 565.39 626.89 C 547.75 624.53 529.75 623.56 512.13 626.74 C 505.78 628.07 499.26 628.31 492.91 626.83 C 494.97 631.57 500.21 635.14 501.09 640.04 C 488.43 630.96 476.15 621.02 462.04 614.22 C 451.10 609.82 436.56 608.60 427.50 617.49 C 424.93 619.56 423.84 625.46 427.89 626.32 C 436.56 623.98 447.74 622.53 455.12 628.14 C 445.22 630.27 433.53 631.11 426.68 639.59 C 421.81 645.58 423.82 655.27 430.99 658.44 C 434.22 657.54 435.88 654.03 439.04 652.86 C 447.28 649.13 456.88 649.83 465.38 652.21 C 465.21 652.55 464.86 653.24 464.69 653.58 C 456.79 656.30 448.14 658.05 441.51 663.46 C 438.77 666.55 442.30 670.21 444.95 671.86 C 458.23 679.92 474.79 679.78 489.38 675.83 C 487.17 679.00 483.18 680.06 480.19 682.31 C 502.76 704.02 532.85 720.70 565.02 719.01 C 566.82 718.72 570.51 719.26 570.84 717.00 C 567.71 715.79 564.28 716.10 561.00 716.00 C 544.97 716.32 528.66 710.04 516.96 699.26 C 536.69 706.07 557.84 709.24 578.64 706.54 C 585.48 704.59 581.59 694.51 587.43 691.51 C 596.00 687.76 604.81 684.47 613.03 679.94 C 623.56 673.94 631.58 664.30 638.68 654.91 C 636.99 664.95 631.32 674.09 624.02 681.05 C 614.90 688.18 603.95 692.48 593.01 695.97 C 592.17 695.90 589.29 698.62 592.02 697.70 C 617.16 694.23 641.84 677.88 650.49 653.32 C 653.57 653.91 649.39 661.06 649.99 664.39 C 655.11 657.51 654.55 648.16 654.04 640.02 C 653.22 628.99 644.50 621.15 637.01 614.02 C 621.45 600.42 599.93 596.08 579.77 598.28 M 646.26 612.41 C 654.37 621.38 661.75 631.14 666.73 642.16 C 665.54 629.99 658.71 616.13 646.26 612.41 M 732.98 612.69 C 735.67 628.99 740.65 644.91 744.18 661.08 C 747.21 675.63 753.22 689.78 762.94 701.12 C 759.26 675.42 749.35 651.11 739.76 627.14 C 737.51 622.33 736.05 617.06 732.98 612.69 M 287.30 651.39 C 281.70 651.85 275.41 655.73 275.85 662.06 C 275.52 676.29 275.20 690.71 277.27 704.81 C 280.84 707.70 285.62 708.58 289.94 709.88 C 309.31 714.64 328.66 719.74 348.28 723.33 C 350.15 709.63 348.89 695.57 348.94 681.74 C 326.72 676.58 304.09 672.97 282.15 666.63 C 279.39 666.54 278.26 661.71 282.01 662.87 C 301.80 665.84 321.30 670.69 340.91 674.72 C 344.25 675.05 348.90 678.09 351.00 674.04 C 353.54 670.48 354.05 678.26 357.03 676.88 C 371.13 675.23 384.86 671.36 398.91 669.44 C 400.63 678.78 400.03 688.45 401.39 697.88 C 401.85 689.47 401.67 679.91 401.13 671.08 C 401.18 667.20 398.47 662.68 394.06 663.47 C 382.63 664.97 371.52 668.89 359.91 669.07 C 360.17 668.47 360.69 667.28 360.95 666.68 C 343.11 666.16 324.49 664.77 307.97 657.96 C 300.80 657.66 291.87 656.56 287.30 651.39 M 698.36 655.79 C 692.86 671.72 689.06 688.65 678.74 702.36 C 694.11 692.99 704.72 675.96 704.84 657.73 C 700.45 666.35 699.38 677.37 691.82 684.27 C 694.81 674.72 700.01 665.54 699.39 655.17 L 698.36 655.79 M 706.47 672.98 C 702.20 686.18 695.53 699.31 683.93 707.50 C 691.65 707.98 699.70 707.03 707.15 709.42 C 676.70 715.50 646.45 724.88 619.42 740.38 C 593.84 755.77 572.58 780.60 566.87 810.44 C 573.93 798.53 579.69 784.87 591.34 776.49 C 580.79 793.68 572.06 813.28 572.15 833.78 C 575.14 831.12 574.78 826.60 576.37 823.15 C 580.25 813.04 585.04 803.00 592.16 794.76 C 590.80 802.75 586.67 810.53 587.57 819.00 C 588.16 824.11 586.54 831.83 589.91 835.20 C 593.47 820.15 599.69 805.79 607.64 792.54 C 610.05 789.01 612.16 784.94 615.96 782.70 C 608.47 796.53 603.23 812.05 604.64 827.99 C 605.19 832.93 603.96 838.81 606.79 843.08 C 607.32 827.20 611.41 810.94 620.15 797.60 C 617.05 809.32 612.68 822.27 615.47 834.09 C 618.54 824.60 621.12 814.04 628.06 806.62 C 625.67 818.85 624.55 831.73 627.78 843.91 C 630.68 840.38 629.49 834.98 631.53 830.87 C 632.67 834.16 631.56 837.99 633.46 841.14 C 634.30 838.75 633.81 833.07 636.06 833.11 C 638.11 839.22 635.83 846.50 638.59 852.58 C 640.56 839.63 643.89 826.32 651.94 815.74 C 650.46 824.23 648.07 832.75 648.88 841.46 C 659.39 830.02 664.01 814.28 672.97 801.71 C 671.27 817.58 668.19 833.51 661.87 848.21 C 667.06 844.48 669.19 838.02 673.95 833.87 C 673.01 838.47 670.73 842.65 669.65 847.21 C 678.87 839.20 682.58 826.84 688.66 816.88 C 689.27 822.75 687.09 828.33 686.19 834.04 C 695.53 825.34 698.43 812.70 702.71 801.32 C 704.58 811.61 704.28 822.32 701.95 832.51 C 709.09 824.14 710.90 812.79 712.49 802.25 C 712.76 802.24 713.30 802.23 713.57 802.23 C 715.08 810.68 713.93 819.27 714.06 827.78 C 718.82 819.76 718.43 809.80 719.17 800.76 C 722.98 807.03 720.60 815.23 720.97 822.26 C 728.63 809.80 725.78 794.29 728.60 780.81 C 730.05 788.88 729.18 797.13 730.25 805.22 C 735.17 794.62 733.44 782.38 734.17 771.01 C 735.11 771.27 736.06 771.55 737.02 771.84 C 735.43 758.22 733.63 743.87 725.30 732.50 C 733.48 737.19 738.63 745.69 746.24 751.17 C 741.57 739.06 731.57 730.38 722.31 721.87 C 726.64 722.52 730.14 725.41 734.27 726.67 C 735.96 721.25 729.44 717.80 727.28 713.47 C 731.91 713.52 735.83 716.42 740.07 717.93 C 735.60 712.62 727.44 711.12 724.58 704.38 C 720.44 693.09 714.95 681.39 706.47 672.98 M 354.34 681.34 C 353.35 692.87 354.43 704.51 355.42 716.01 C 355.68 715.89 356.22 715.66 356.48 715.55 C 357.16 704.01 357.13 692.35 355.75 680.87 C 355.40 680.99 354.70 681.22 354.34 681.34 M 744.95 681.31 C 748.68 696.89 757.15 711.25 767.82 723.05 C 767.23 716.17 762.48 710.70 759.18 704.93 C 753.92 697.37 749.95 688.99 744.95 681.31 M 456.07 691.66 C 456.05 694.89 455.52 698.31 456.58 701.42 C 458.98 704.42 462.91 705.66 465.59 708.40 C 470.66 713.10 471.50 720.43 471.86 726.97 C 472.30 742.02 472.47 757.12 473.68 772.14 C 479.02 776.23 486.41 779.50 487.37 787.07 C 489.89 803.51 489.33 820.26 490.42 836.84 C 499.16 839.08 509.08 841.68 514.76 849.26 C 520.66 860.35 519.17 873.47 520.44 885.58 C 529.96 886.93 539.63 887.31 549.11 889.09 C 551.38 889.67 553.77 888.97 555.47 887.38 C 559.71 883.85 565.10 882.25 569.75 879.39 C 560.73 865.25 552.23 849.33 552.40 832.02 C 552.47 821.65 551.79 811.21 553.13 800.89 C 556.94 780.85 568.28 763.47 579.79 747.06 C 551.98 744.89 524.98 735.86 500.93 721.82 C 488.40 714.93 479.18 703.76 469.06 693.94 C 466.04 689.86 460.38 692.00 456.07 691.66 M 750.88 706.37 C 754.25 721.74 763.58 735.02 772.98 747.28 C 770.96 736.28 763.49 727.53 758.12 718.05 C 755.60 714.22 754.00 709.77 750.88 706.37 M 442.75 715.73 C 441.39 719.07 449.12 715.51 447.67 718.51 C 434.47 723.87 420.78 728.05 407.06 731.87 C 401.63 734.55 411.18 734.57 413.31 733.35 C 428.09 734.12 442.17 725.93 456.91 725.12 C 453.83 731.74 455.80 739.07 456.07 746.02 C 456.79 752.37 456.11 758.91 457.65 765.14 C 457.55 751.14 458.70 737.06 457.22 723.11 C 456.76 716.11 448.17 715.26 442.75 715.73 M 268.38 717.46 C 262.84 719.94 258.60 725.49 258.54 731.69 C 257.83 746.16 258.40 760.75 260.21 775.12 C 260.87 780.78 267.55 781.05 271.84 782.37 C 280.59 783.87 289.24 786.62 298.14 786.82 C 295.75 785.61 293.12 784.96 290.84 783.56 C 293.75 783.88 293.02 782.06 291.93 780.37 C 283.77 784.05 274.26 780.51 266.13 778.11 C 265.69 762.80 264.54 747.46 265.08 732.14 C 276.84 733.00 288.29 736.58 300.08 736.98 C 302.04 737.19 302.32 734.75 303.34 733.59 C 303.72 739.60 311.36 736.97 313.99 734.18 C 299.98 729.68 284.12 729.55 271.56 721.19 C 271.43 718.40 272.30 714.49 268.38 717.46 M 438.33 718.40 C 436.98 720.68 442.34 720.17 441.63 718.20 C 440.50 717.48 439.40 717.55 438.33 718.40 M 334.17 733.32 C 329.69 735.32 325.05 738.68 324.35 743.92 C 322.73 754.52 323.25 765.31 323.05 776.00 C 323.35 782.62 322.54 790.91 328.83 795.15 C 329.09 793.20 329.13 791.24 329.50 789.32 C 333.22 788.32 338.60 792.92 341.98 790.53 C 338.06 789.51 334.05 788.83 330.17 787.65 C 329.06 774.09 328.69 760.44 328.05 746.85 C 348.77 749.59 370.86 752.91 391.00 745.22 C 392.12 745.88 393.10 746.75 394.18 747.51 C 395.09 742.41 391.82 737.91 388.01 734.97 C 373.25 743.58 353.29 745.21 337.01 739.02 C 333.57 738.52 336.81 732.38 334.17 733.32 M 439.40 734.46 C 435.62 735.63 431.40 735.97 427.95 737.89 C 433.32 737.65 438.73 736.05 443.64 733.94 C 442.20 733.97 440.79 734.15 439.40 734.46 M 267.68 738.16 C 277.85 741.55 288.66 743.50 299.40 743.76 C 299.90 756.52 298.93 769.38 299.46 782.18 C 301.90 769.40 300.12 756.00 300.63 742.99 C 289.51 742.63 278.75 738.98 267.68 738.16 M 419.24 739.40 C 418.87 739.53 418.14 739.80 417.77 739.94 C 417.50 745.92 417.82 751.94 418.25 757.92 C 421.76 752.46 413.64 739.27 424.02 739.49 C 422.89 737.92 420.77 739.26 419.24 739.40 M 764.88 751.32 C 767.53 760.09 771.69 768.63 776.92 776.17 C 776.19 766.98 771.56 757.63 764.88 751.32 M 763.04 759.55 C 762.59 780.47 767.62 801.07 767.14 822.02 C 767.72 824.63 766.13 828.54 768.60 830.26 C 775.65 807.24 773.97 781.05 763.04 759.55 M 418.24 762.23 C 418.81 762.79 418.81 762.79 418.24 762.23 M 750.00 763.22 C 755.88 790.32 758.63 818.46 754.61 846.05 C 752.82 858.32 747.85 869.75 743.90 881.40 C 757.36 864.22 761.81 841.44 761.35 820.00 C 760.78 800.73 758.80 780.63 750.00 763.22 M 418.30 768.40 C 417.30 769.96 417.20 774.20 419.70 774.07 C 419.47 772.33 418.99 769.79 418.30 768.40 M 440.26 769.31 C 436.20 772.72 445.30 769.48 440.26 769.31 M 456.38 769.30 C 452.67 773.01 459.34 772.01 456.38 769.30 M 422.96 771.27 C 421.34 774.30 426.26 771.41 422.96 771.27 M 432.27 772.12 C 432.32 775.42 435.29 770.62 432.27 772.12 M 428.40 773.47 C 425.40 774.61 421.89 774.97 419.50 777.28 C 423.68 776.07 428.51 775.39 431.89 772.61 C 431.01 772.83 429.27 773.26 428.40 773.47 M 270.29 774.05 C 276.62 776.69 283.43 778.25 290.13 779.77 C 284.35 776.05 277.00 775.07 270.29 774.05 M 305.18 775.75 C 304.94 778.53 304.99 781.33 305.34 784.11 C 307.02 781.91 306.47 777.93 305.18 775.75 M 418.12 780.50 C 417.21 781.59 417.97 784.45 419.70 783.91 C 420.11 782.81 419.31 780.66 418.12 780.50 M 424.51 780.12 C 423.39 780.53 422.64 781.29 422.28 782.40 C 423.05 784.87 427.73 779.45 424.51 780.12 M 465.48 785.52 C 451.96 795.17 434.61 797.32 420.23 805.38 C 420.48 807.37 422.63 808.92 424.62 808.54 C 441.33 805.37 456.86 797.32 473.59 794.53 C 471.82 797.75 470.84 801.29 471.02 804.99 C 470.93 817.48 470.46 830.05 471.71 842.49 C 475.30 842.32 475.91 837.88 475.94 835.04 C 476.11 822.08 476.54 809.03 475.19 796.12 C 475.12 790.94 470.38 785.50 465.48 785.52 M 797.34 787.47 C 792.37 787.01 790.06 791.82 791.21 796.10 C 796.16 794.34 801.25 792.60 806.62 792.94 C 800.94 798.50 792.21 802.21 789.82 810.30 C 797.88 807.67 804.47 801.12 812.94 799.02 C 810.96 804.92 806.65 809.79 805.09 815.85 C 812.39 815.63 817.00 808.47 821.44 803.49 C 823.53 800.68 827.02 795.78 822.92 793.12 C 815.43 788.33 806.10 786.85 797.34 787.47 M 259.16 792.31 C 252.36 794.33 246.36 800.60 246.64 808.03 C 246.43 821.66 247.03 835.31 247.64 848.93 C 247.57 852.32 248.68 855.97 252.11 857.35 C 252.48 841.02 251.12 824.68 251.17 808.35 C 266.80 810.17 282.14 813.94 297.61 816.66 C 299.52 814.91 300.80 812.47 301.40 809.97 C 286.97 807.96 272.52 804.41 259.11 798.71 C 259.31 795.64 262.66 794.88 265.11 794.39 C 263.94 792.31 261.36 791.49 259.16 792.31 M 331.04 794.15 C 331.47 797.17 335.40 797.84 337.95 797.84 C 337.52 794.75 333.56 794.31 331.04 794.15 M 353.38 798.33 C 354.20 799.28 358.84 798.63 361.09 798.68 C 358.72 797.68 355.90 798.30 353.38 798.33 M 320.26 808.41 C 316.60 809.84 312.98 811.53 309.71 813.71 C 305.51 816.70 305.79 822.42 305.57 827.01 C 305.67 840.03 306.07 853.06 307.06 866.05 C 307.50 867.95 307.22 871.20 309.88 871.36 C 311.68 855.16 309.20 838.76 310.98 822.57 C 326.40 824.32 341.39 829.71 356.95 830.13 C 360.60 828.06 364.23 830.92 368.00 830.01 C 383.76 827.32 398.57 820.23 414.24 817.65 C 412.90 833.45 413.10 849.44 414.10 865.25 C 416.49 864.09 415.88 861.10 416.21 858.95 C 416.76 845.63 416.80 832.27 415.98 818.96 C 416.20 814.40 412.00 811.10 408.02 809.94 C 394.94 815.78 381.29 820.94 367.03 822.95 C 350.64 823.83 334.25 819.66 319.12 813.65 C 319.25 810.77 327.10 806.27 320.26 808.41 M 811.34 817.45 C 808.74 817.90 806.18 818.61 803.71 819.52 C 813.74 821.74 824.53 822.24 833.83 827.31 C 828.30 833.12 821.80 838.04 816.81 844.35 C 824.87 840.91 831.77 835.10 837.82 828.84 C 838.86 827.48 841.18 825.37 839.31 823.77 C 831.84 816.97 820.94 815.92 811.34 817.45 M 825.35 847.44 C 823.20 847.77 821.00 848.08 819.09 849.15 C 820.10 851.00 821.74 852.85 823.97 853.10 C 827.19 852.27 831.79 845.13 825.35 847.44 M 482.37 851.47 C 468.28 857.55 453.97 863.57 439.34 868.45 C 436.87 869.47 433.92 869.92 432.12 872.05 C 441.43 874.61 451.48 880.70 461.15 876.30 C 475.54 870.84 490.14 865.67 503.83 858.61 C 498.22 853.40 489.76 852.13 482.37 851.47 M 232.38 862.49 C 225.62 864.27 217.34 868.10 216.85 876.09 C 216.25 891.16 217.04 906.26 217.52 921.33 C 217.93 924.30 217.11 928.10 219.83 930.18 C 222.42 913.00 218.90 895.40 221.27 878.24 C 236.90 881.03 252.34 884.81 267.80 888.41 C 270.75 889.35 273.12 886.06 276.05 887.18 C 278.76 888.12 282.00 887.00 283.19 884.30 C 264.67 879.35 245.53 875.63 227.76 868.53 C 231.72 866.29 237.05 865.89 239.95 862.15 C 237.50 861.05 234.83 861.87 232.38 862.49 M 503.34 864.43 C 488.67 871.50 473.45 877.36 458.38 883.50 C 457.62 900.97 458.50 918.52 456.77 935.94 C 456.40 935.92 455.64 935.86 455.27 935.84 C 452.53 919.40 454.12 902.55 452.08 886.04 C 452.04 883.67 449.65 881.53 447.29 882.21 C 449.05 901.55 448.15 921.00 448.80 940.38 C 467.18 934.93 484.48 926.22 501.49 917.48 C 504.97 916.41 504.36 912.54 504.54 909.66 C 504.89 894.46 505.26 879.25 504.56 864.06 C 504.25 864.15 503.64 864.34 503.34 864.43 M 415.20 879.38 C 400.35 885.57 385.42 892.07 369.66 895.55 C 347.81 897.96 327.19 888.08 306.33 883.44 C 300.99 885.44 295.08 887.89 291.92 892.90 C 314.70 900.26 337.83 906.64 361.02 912.59 C 366.03 910.90 371.68 912.00 376.78 909.60 C 394.17 903.91 411.16 897.06 428.15 890.28 C 430.75 889.08 433.76 888.30 435.66 886.01 C 430.50 880.96 422.31 878.20 415.20 879.38 M 436.40 891.41 C 414.46 902.41 391.15 910.30 368.31 919.08 C 367.94 933.08 368.67 947.11 367.81 961.09 C 368.22 963.50 364.48 964.53 364.43 961.72 C 363.04 947.34 364.25 932.72 363.08 918.38 C 338.91 912.35 315.08 905.05 291.19 898.04 C 290.90 914.05 291.09 930.12 292.12 946.11 C 291.96 950.56 297.17 951.11 300.26 952.59 C 321.84 960.04 343.54 967.93 365.95 972.30 C 387.33 966.35 407.38 956.34 427.78 947.67 C 431.37 945.42 437.95 944.43 437.45 939.01 C 438.10 922.94 437.98 906.85 437.89 890.78 C 437.52 890.94 436.77 891.26 436.40 891.41 M 576.26 891.42 C 564.85 894.25 552.75 901.05 548.52 912.69 C 546.26 918.14 548.03 924.55 552.72 928.09 C 553.20 917.16 560.93 907.35 571.28 904.01 C 565.65 911.16 559.26 920.53 564.18 929.87 C 566.56 935.50 579.07 939.87 579.76 931.11 C 581.49 921.21 590.38 913.25 600.20 911.92 C 594.07 917.63 588.29 925.09 588.90 933.98 C 588.86 938.17 593.40 939.95 596.96 939.96 C 608.92 940.34 619.98 935.05 630.97 931.09 C 640.59 927.15 650.58 923.94 659.75 919.06 C 649.69 909.92 637.02 904.13 624.84 898.33 C 609.80 890.99 592.64 890.49 576.26 891.42 M 518.93 900.28 C 524.83 904.19 533.99 902.24 541.17 902.91 C 534.72 899.47 526.20 900.39 518.93 900.28 M 521.77 911.30 C 525.95 912.84 532.25 913.36 535.79 912.00 C 532.37 910.09 526.19 911.20 521.77 911.30 Z" />
<path fill="#000000" opacity="1.00" d=" M 380.34 194.45 C 390.81 192.61 403.58 194.52 409.88 204.04 C 413.84 209.21 413.85 218.17 407.68 221.62 C 401.64 223.31 396.19 219.09 390.93 216.76 C 384.24 213.05 376.36 215.08 369.18 213.65 C 365.99 212.83 365.26 208.93 366.38 206.22 C 368.70 200.33 374.22 195.88 380.34 194.45 Z" />
<path fill="#000000" opacity="1.00" d=" M 513.39 211.45 L 514.27 210.79 C 506.44 222.20 498.17 233.42 491.75 245.76 C 489.49 249.61 488.04 254.01 485.02 257.37 C 491.99 240.77 501.19 224.73 513.39 211.45 Z" />
<path fill="#000000" opacity="1.00" d=" M 589.32 227.45 C 598.19 226.72 607.73 226.47 615.56 231.41 C 622.73 235.15 630.81 242.82 627.62 251.70 C 624.95 257.07 617.80 254.90 613.29 253.56 C 603.70 249.50 592.97 249.01 582.87 251.25 C 578.05 252.45 572.11 249.45 572.01 244.06 C 571.98 234.98 581.00 228.52 589.32 227.45 Z" />
<path fill="#000000" opacity="1.00" d=" M 359.37 253.49 C 372.55 251.89 386.93 256.00 395.60 266.46 C 406.57 279.53 408.62 297.56 407.94 314.02 C 407.70 336.69 394.94 359.30 374.41 369.48 C 363.02 374.36 347.85 375.01 337.80 367.60 C 345.29 367.98 352.90 369.45 360.36 367.62 C 357.06 365.92 353.22 365.80 349.82 364.32 C 335.67 358.74 326.92 343.64 325.60 328.96 C 324.34 309.70 336.66 292.64 351.04 281.13 C 358.45 274.78 367.86 271.72 377.43 270.76 C 374.76 268.40 370.36 269.58 366.98 269.28 C 344.95 268.66 326.35 285.94 318.49 305.44 C 310.81 320.89 310.54 339.89 319.14 355.03 C 320.69 358.75 324.45 361.29 325.35 365.24 C 318.44 361.55 313.93 354.47 309.89 347.97 C 291.52 310.77 317.54 258.62 359.37 253.49 M 380.30 281.41 C 368.56 284.10 362.69 300.63 371.63 309.37 C 380.18 318.35 397.20 311.93 399.00 300.04 C 401.09 289.80 390.74 278.74 380.30 281.41 Z" />
<path fill="#000000" opacity="1.00" d=" M 584.35 292.46 C 597.89 290.24 612.41 291.70 624.48 298.55 C 638.35 307.02 650.85 319.21 656.27 334.86 C 662.23 348.43 662.79 363.84 660.46 378.31 C 655.45 401.34 634.27 419.96 610.63 421.20 C 615.76 416.94 622.60 415.28 627.93 411.21 C 643.38 401.28 651.01 382.07 649.19 364.14 C 647.05 351.43 643.60 338.15 634.54 328.49 C 626.32 319.52 615.95 311.52 603.83 309.04 C 611.86 313.76 620.41 318.20 626.20 325.83 C 640.23 342.41 641.86 368.16 630.71 386.66 C 617.30 407.45 587.64 414.16 565.84 403.23 C 559.56 401.35 555.38 396.25 550.03 392.86 C 555.30 401.21 563.22 407.65 571.90 412.21 C 574.18 413.58 576.91 414.63 578.31 417.04 C 562.94 415.43 549.15 405.90 540.76 393.14 C 529.19 375.96 527.40 353.01 535.23 333.95 C 543.63 313.39 561.99 296.10 584.35 292.46 M 567.38 313.46 C 556.20 316.31 548.45 329.21 552.58 340.29 C 556.49 349.03 567.18 353.66 576.38 351.54 C 587.13 350.58 595.52 339.50 593.72 328.92 C 591.05 317.66 578.76 309.52 567.38 313.46 M 604.28 319.36 C 600.52 319.70 601.95 324.97 604.99 325.41 C 608.92 325.57 608.28 318.28 604.28 319.36 Z" />
<path fill="#000000" opacity="1.00" d=" M 255.41 332.48 C 257.28 331.91 259.27 331.96 261.21 332.15 C 258.34 333.76 254.99 334.29 251.80 334.94 C 252.75 333.80 253.93 332.83 255.41 332.48 Z" />
<path fill="#000000" opacity="1.00" d=" M 447.81 369.20 C 452.38 370.23 457.60 370.89 461.23 374.07 C 456.66 372.88 451.76 371.89 447.81 369.20 Z" />
<path fill="#000000" opacity="1.00" d=" M 427.25 375.41 C 441.83 372.31 457.38 377.90 468.18 387.81 C 474.49 392.98 475.38 402.51 472.69 409.76 C 466.01 420.53 453.15 424.93 441.51 427.60 C 436.82 444.10 447.91 463.26 465.08 466.29 C 482.07 470.06 504.23 461.39 507.63 442.77 C 509.06 439.01 505.55 436.85 504.02 434.02 C 504.04 430.21 508.98 427.86 512.24 429.59 C 518.54 432.34 524.44 438.80 523.73 446.06 C 523.11 449.31 519.54 448.46 517.18 448.39 C 514.98 458.45 507.87 466.68 499.86 472.77 C 489.36 480.66 475.36 479.91 462.96 478.97 C 453.24 476.26 445.25 469.52 438.57 462.19 C 433.25 463.34 428.84 468.28 422.99 468.41 C 416.64 468.62 410.16 469.11 403.89 467.89 C 389.72 463.83 378.12 451.64 375.17 437.14 C 374.14 432.87 374.39 428.44 373.66 424.13 C 373.09 421.20 368.04 423.25 367.79 419.90 C 367.52 411.68 379.29 405.66 385.89 410.15 C 389.57 414.47 381.73 415.80 382.58 420.02 C 382.72 429.67 386.21 439.28 391.77 447.13 C 400.13 456.73 415.60 460.33 426.96 454.18 C 432.06 451.84 430.76 445.52 431.02 441.00 C 430.67 435.83 431.79 430.31 430.63 425.38 C 420.92 419.32 411.68 410.75 409.68 398.93 C 407.38 387.84 416.82 377.56 427.25 375.41 M 434.31 380.45 C 429.12 380.69 422.34 381.74 420.38 387.38 C 420.23 390.55 423.63 392.55 425.90 394.23 C 436.50 400.06 449.65 400.41 460.92 396.29 C 464.76 394.65 464.31 400.60 466.88 401.39 C 468.75 393.75 462.18 387.32 455.92 384.19 C 449.46 380.20 441.65 380.12 434.31 380.45 Z" />
<path fill="#000000" opacity="1.00" d=" M 376.25 506.42 C 383.36 505.63 390.61 505.75 397.73 506.37 C 397.77 506.72 397.84 507.40 397.87 507.75 C 391.59 510.19 384.55 509.53 377.97 509.03 C 376.57 509.36 373.65 506.85 376.25 506.42 Z" />
<path fill="#000000" opacity="1.00" d=" M 308.95 569.93 C 319.97 570.00 330.98 573.11 341.79 575.39 C 343.56 575.31 347.19 578.32 343.76 578.59 C 334.50 578.07 325.41 575.49 316.35 573.52 C 313.85 572.62 310.36 572.53 308.95 569.93 Z" />
<path fill="#000000" opacity="1.00" d=" M 390.26 573.46 C 394.25 574.30 386.47 576.83 384.62 576.15 C 385.20 573.60 388.15 573.55 390.26 573.46 Z" />
<path fill="#000000" opacity="1.00" d=" M 292.78 634.09 C 303.39 635.44 313.89 637.82 324.20 640.69 C 325.62 640.60 328.00 643.90 324.94 643.35 C 316.38 643.19 308.02 640.35 299.69 638.47 C 297.40 637.44 292.75 637.04 292.78 634.09 Z" />
<path fill="#000000" opacity="1.00" d=" M 403.18 637.36 C 404.93 637.10 409.77 635.19 407.64 638.71 C 403.51 641.14 398.56 641.63 394.02 642.98 C 391.34 643.19 386.33 645.00 385.05 642.27 C 390.87 639.92 397.14 639.01 403.18 637.36 Z" />
<path fill="#000000" opacity="1.00" d=" M 326.93 642.19 C 331.47 641.53 340.80 641.89 341.69 646.69 C 336.64 646.52 330.55 646.12 326.93 642.19 Z" />
<path fill="#000000" opacity="1.00" d=" M 646.49 646.87 C 648.40 649.32 647.05 654.52 644.58 656.58 C 644.91 653.29 645.65 650.06 646.49 646.87 Z" />
<path fill="#000000" opacity="1.00" d=" M 283.14 701.21 C 301.59 704.75 319.96 709.04 338.05 714.15 C 339.82 715.04 343.69 715.10 342.86 717.84 C 336.99 718.65 331.31 716.66 325.64 715.49 C 312.62 712.32 299.41 709.76 286.71 705.43 C 285.06 704.63 281.24 703.61 283.14 701.21 Z" />
<path fill="#000000" opacity="1.00" d=" M 166.18 908.36 C 172.24 907.46 179.38 906.61 184.72 910.27 C 187.13 912.09 184.52 915.25 182.19 915.38 C 175.97 916.34 169.29 916.63 163.22 914.73 C 159.05 912.94 163.23 908.49 166.18 908.36 Z" />
<path fill="#000000" opacity="1.00" d=" M 762.44 931.31 C 767.17 928.84 764.56 934.72 762.44 931.31 Z" />
<path fill="#000000" opacity="1.00" d=" M 695.31 937.16 C 698.23 935.62 695.39 940.54 695.31 937.16 Z" />
<path fill="#000000" opacity="1.00" d=" M 701.16 938.34 C 705.50 938.23 710.15 937.80 714.30 938.97 C 714.27 941.58 717.53 940.60 719.14 941.47 C 713.16 943.52 706.52 942.26 700.35 941.66 C 700.63 940.68 699.70 938.31 701.16 938.34 Z" />
<path fill="#000000" opacity="1.00" d=" M 741.35 947.44 C 747.36 946.70 754.06 947.26 759.14 950.85 C 761.67 952.56 759.47 955.45 757.09 955.74 C 751.10 956.68 744.99 956.49 738.97 955.98 C 736.90 955.77 734.34 955.19 733.57 952.99 C 733.98 949.22 738.21 948.01 741.35 947.44 Z" />
<path fill="#000000" opacity="1.00" d=" M 365.16 967.43 C 366.80 966.51 368.78 969.97 366.94 970.76 C 365.48 970.74 364.29 968.64 365.16 967.43 Z" />
</g>
</svg>
