<svg xmlns="http://www.w3.org/2000/svg" viewBox="-109.2958 -110.6508 1775.2824 1775.2824"><g transform="translate(0.000000,1571.000000) scale(0.100000,-0.100000)" fill="#000000" stroke="none"><path d="M1187 15580 c-72 -13 -132 -53 -237 -159 -111 -112 -175 -214 -219 -346 -60 -180 -62 -358 -7 -509 81 -224 232 -336 481 -356 187 -15 259 -84 287 -280 25 -169 -15 -393 -161 -906 -125 -440 -146 -524 -176 -700 -51 -301 -54 -590 -9 -912 18 -135 12 -158 -42 -149 -18 3 -114 45 -211 92 -229 112 -290 135 -357 135 -64 0 -106 -25 -150 -88 -62 -87 -42 -244 51 -410 161 -288 541 -630 906 -816 140 -71 235 -107 380 -142 188 -45 474 -207 521 -295 19 -35 19 -37 2 -90 -10 -30 -46 -106 -81 -169 -40 -70 -70 -140 -79 -180 -32 -136 -13 -271 60 -419 89 -181 248 -305 424 -332 43 -7 88 -21 105 -33 50 -35 181 -150 370 -327 246 -229 385 -344 552 -455 77 -51 151 -106 163 -121 24 -30 24 -23 0 -243 -5 -47 -9 -139 -10 -205 -1 -140 -13 -181 -58 -212 -46 -31 -99 -45 -408 -108 -410 -83 -575 -135 -796 -247 -157 -80 -271 -162 -398 -288 -166 -165 -287 -336 -480 -680 -175 -313 -273 -448 -497 -683 -263 -275 -353 -430 -353 -607 0 -192 125 -387 421 -656 586 -535 1117 -709 1573 -517 235 99 457 339 604 652 150 323 164 346 226 378 44 23 144 20 366 -11 304 -42 422 -50 695 -50 189 0 293 5 382 17 189 26 220 24 287 -20 30 -21 151 -126 268 -234 117 -108 272 -247 345 -308 73 -61 139 -121 148 -133 24 -35 19 -142 -14 -296 -195 -906 -193 -901 -290 -1059 -27 -43 -74 -120 -105 -171 -120 -196 -171 -354 -164 -511 3 -78 9 -107 31 -155 99 -215 346 -335 827 -401 160 -23 701 -32 852 -15 256 28 397 99 482 244 66 110 98 238 136 537 35 277 90 457 185 598 57 86 110 134 195 175 86 41 175 45 370 17 325 -48 329 -52 470 -460 122 -353 126 -427 41 -766 -27 -110 -53 -234 -57 -275 -23 -269 129 -452 451 -545 222 -64 395 -80 845 -80 601 1 892 42 1138 161 166 80 279 218 328 399 10 37 18 120 21 215 6 169 -7 298 -53 540 -100 528 -86 718 72 983 49 81 165 243 277 387 173 222 323 461 463 743 90 180 131 244 145 230 5 -5 20 -65 34 -135 51 -256 160 -482 343 -709 82 -102 241 -253 334 -317 136 -93 305 -162 398 -162 56 0 146 -27 265 -80 135 -59 214 -74 354 -67 247 13 518 125 670 278 69 70 102 131 109 200 9 98 -73 198 -222 269 -132 63 -196 75 -391 75 -147 0 -180 -3 -249 -23 -163 -47 -261 -113 -332 -223 -50 -78 -66 -89 -127 -89 -55 0 -207 73 -313 150 -283 206 -405 465 -473 1001 -27 212 -38 381 -56 819 -18 439 -31 609 -71 860 -99 641 -312 1200 -631 1658 -118 169 -224 295 -392 463 -231 231 -359 334 -696 559 -201 135 -267 197 -290 273 -10 33 -19 125 -26 252 -23 483 -122 856 -320 1205 -281 494 -747 876 -1329 1088 -74 27 -188 68 -252 91 -64 24 -149 59 -189 79 l-71 37 -19 72 c-32 130 -125 305 -286 542 -132 194 -264 354 -422 511 -483 481 -1048 775 -1676 872 -186 28 -556 31 -744 5 -614 -86 -1202 -352 -1748 -790 -306 -245 -396 -299 -515 -305 -92 -6 -133 20 -177 110 -62 129 -66 173 -63 668 3 551 -10 718 -78 1005 -90 378 -249 675 -489 916 -228 228 -482 363 -801 428 -168 34 -501 57 -593 41z m448 -409 c176 -43 405 -136 531 -216 316 -201 479 -504 538 -1005 21 -174 25 -260 36 -695 15 -555 30 -679 106 -835 53 -108 185 -237 309 -302 139 -72 246 -101 385 -102 112 -1 118 0 183 33 56 27 75 42 102 85 19 29 56 73 83 98 115 103 534 402 747 534 300 184 644 299 1007 334 161 16 513 8 658 -15 168 -26 324 -63 480 -115 576 -189 1071 -562 1354 -1020 72 -115 181 -326 197 -379 12 -40 11 -45 -6 -57 -11 -8 -44 -14 -82 -14 -86 0 -163 -31 -223 -89 -27 -25 -52 -59 -56 -75 -6 -25 -2 -34 28 -61 46 -42 160 -80 458 -150 129 -30 295 -73 368 -95 962 -289 1517 -811 1671 -1570 84 -414 52 -887 -89 -1310 -168 -502 -446 -912 -761 -1119 -180 -119 -343 -153 -534 -113 -94 20 -137 26 -177 23 -24 -1 -23 -41 2 -91 47 -91 12 -139 -166 -225 -395 -193 -825 -243 -1292 -149 -517 103 -919 395 -1007 731 -61 234 -78 330 -78 438 1 188 43 426 123 706 55 192 66 250 56 303 -29 153 -256 -59 -407 -378 -193 -410 -183 -906 26 -1341 133 -276 328 -491 577 -636 295 -172 826 -264 1382 -238 461 22 821 112 1050 265 28 18 88 47 134 64 45 16 108 43 140 59 323 163 835 655 1046 1002 75 125 232 468 296 649 21 57 45 109 54 115 21 13 89 -22 263 -138 191 -126 317 -230 493 -406 159 -160 262 -281 387 -456 256 -359 463 -817 552 -1220 78 -356 128 -885 82 -885 -4 0 -16 19 -27 42 -26 56 -50 70 -73 41 -14 -16 -19 -48 -24 -140 -31 -564 -337 -1306 -776 -1881 -277 -362 -386 -554 -443 -777 -20 -79 -23 -114 -22 -275 1 -194 0 -193 68 -485 118 -508 48 -759 -238 -855 -223 -74 -753 -128 -996 -101 -221 24 -343 76 -395 169 -54 96 -119 175 -192 235 -68 54 -73 61 -73 97 0 21 15 78 34 126 61 159 69 197 64 308 -6 112 -27 188 -125 446 -155 408 -225 624 -298 919 -52 210 -90 314 -140 388 -87 129 -168 97 -211 -83 -10 -41 -19 -140 -23 -241 -6 -162 -8 -174 -29 -195 -30 -30 -99 -29 -292 6 -347 64 -717 187 -1159 387 -594 269 -968 517 -1375 909 -158 152 -216 230 -171 230 30 0 94 40 154 96 122 113 162 195 127 262 -22 43 -50 56 -121 55 -77 -1 -114 -11 -315 -88 -208 -80 -369 -129 -518 -157 -103 -20 -149 -23 -392 -23 -284 0 -319 3 -690 55 -273 38 -351 44 -435 30 -189 -30 -272 -117 -486 -516 -203 -377 -273 -473 -392 -536 -59 -32 -194 -31 -287 1 -174 61 -620 288 -697 355 -73 64 -77 77 -74 273 1 99 -3 189 -9 212 -7 28 -36 68 -95 132 -121 131 -125 109 74 355 82 100 246 351 341 519 246 436 522 759 745 872 136 69 361 127 990 252 248 50 488 102 535 116 456 137 694 348 535 473 -51 40 -127 28 -453 -73 -79 -25 -148 -43 -153 -39 -14 8 -10 200 6 304 21 130 39 181 80 220 104 101 54 244 -131 376 -33 24 -125 77 -203 119 -257 136 -328 193 -628 504 -213 220 -345 337 -386 345 -12 2 -49 9 -81 15 -78 14 -214 82 -274 136 -47 42 -92 118 -79 132 4 3 45 1 91 -6 66 -10 101 -10 162 -1 173 26 419 129 640 269 62 38 141 85 175 103 63 32 67 33 190 33 143 0 159 6 159 63 0 25 -16 62 -54 126 -57 95 -78 154 -95 271 -8 59 -15 74 -42 98 -25 23 -38 28 -61 23 -46 -9 -84 -41 -123 -106 -46 -75 -96 -102 -204 -108 -315 -18 -948 267 -1242 558 -95 94 -139 161 -179 271 -17 47 -51 121 -76 165 -94 163 -113 202 -147 300 -90 260 -142 651 -118 883 7 62 33 187 65 310 143 540 286 1126 296 1214 18 143 8 410 -19 511 -47 175 -143 314 -257 370 -46 23 -79 30 -168 37 -175 15 -253 34 -284 72 -19 23 -4 44 52 70 67 32 119 91 163 184 43 90 52 149 29 197 -23 49 -21 92 6 110 31 22 144 20 243 -3z m-635 -4167 c181 -88 283 -158 411 -282 125 -120 198 -220 206 -281 7 -53 -7 -54 -102 -5 -278 143 -731 551 -701 631 8 20 27 13 186 -63z m1825 -1454 c0 -32 -82 -90 -186 -130 -120 -46 -150 -39 -115 28 17 32 71 84 106 103 37 20 131 36 165 29 23 -4 30 -11 30 -30z m-1421 -5159 c47 -52 62 -188 25 -235 -24 -30 -47 -33 -96 -9 -43 20 -127 102 -149 145 -24 47 -12 74 43 92 101 32 153 34 177 7z m8130 -3467 c58 -59 10 -128 -69 -98 -31 12 -59 97 -38 117 3 4 23 7 43 7 27 0 45 -7 64 -26z" fill="rgb(0, 0, 0)"/><path d="M4796 11319 c-121 -20 -250 -120 -303 -236 -76 -165 -16 -361 132 -429 42 -20 66 -24 156 -24 128 0 195 18 248 65 49 45 96 134 117 221 55 239 -120 442 -350 403z" fill="rgb(0, 0, 0)"/></g></svg>