<svg xmlns="http://www.w3.org/2000/svg" viewBox="-112.7589 -428.0385 2087.1629 2087.1629"><g transform="translate(0.000000,1242.000000) scale(0.100000,-0.100000)" fill="#000000" stroke="none"><path d="M4030 12324 c-1168 -107 -2273 -798 -2963 -1854 -308 -473 -544 -1060 -617 -1539 -163 -1063 -174 -4501 -19 -5861 38 -333 73 -461 185 -685 252 -500 685 -874 1154 -998 103 -27 130 -30 265 -30 173 0 252 16 376 79 138 69 228 152 324 299 138 210 205 414 205 619 -1 280 -149 510 -391 605 -50 20 -125 38 -206 50 -169 26 -201 51 -211 168 -18 212 239 1019 414 1301 72 115 99 115 110 1 11 -114 71 -204 186 -279 80 -52 163 -73 275 -69 81 4 97 8 164 42 41 21 130 78 199 127 288 205 275 197 401 230 63 16 247 52 407 80 338 57 484 89 635 136 118 37 200 44 245 20 15 -8 49 -37 75 -65 60 -64 254 -358 308 -467 85 -170 72 -272 -96 -729 -252 -687 -342 -937 -418 -1166 -120 -356 -156 -436 -287 -634 -194 -290 -280 -510 -280 -710 0 -49 5 -110 11 -135 41 -181 200 -335 456 -445 361 -155 1073 -251 1493 -201 462 54 750 224 901 531 55 113 80 200 104 366 22 148 54 250 121 379 59 115 208 326 304 432 74 82 98 87 151 31 74 -78 246 -335 308 -461 74 -148 85 -230 49 -365 -46 -175 -21 -313 75 -410 106 -107 246 -156 472 -164 297 -11 650 74 1000 242 265 127 409 259 465 426 19 55 22 78 17 169 -7 136 -26 196 -144 450 -149 321 -297 704 -319 824 l-7 39 59 -7 c33 -4 136 -20 229 -36 508 -87 812 -115 1410 -130 264 -7 379 -13 433 -25 325 -71 351 -258 110 -810 -118 -271 -167 -400 -198 -521 -164 -635 196 -896 1315 -955 301 -15 558 0 790 46 154 31 256 65 375 126 170 87 285 200 360 354 52 107 66 165 95 400 14 110 32 239 41 286 15 83 43 149 63 149 18 0 76 -77 118 -156 54 -102 72 -176 83 -338 10 -142 20 -186 56 -257 64 -127 174 -196 349 -220 231 -30 572 68 920 266 436 247 665 474 706 700 39 209 -51 458 -322 890 -336 536 -474 806 -539 1055 -15 59 -24 127 -27 221 -9 223 19 325 182 674 167 358 227 504 337 825 79 230 125 333 151 338 13 3 17 -4 17 -30 0 -59 27 -142 110 -334 111 -258 114 -271 115 -444 l0 -146 39 -78 c113 -230 430 -426 689 -426 88 0 156 22 210 70 120 106 126 277 18 495 -81 163 -213 308 -351 388 -25 14 -78 35 -119 46 -88 24 -136 54 -184 113 -162 200 -241 650 -292 1658 -25 498 -44 718 -91 1035 -107 719 -326 1308 -702 1884 -723 1110 -1893 1810 -3377 2020 -338 48 -468 56 -955 56 -592 0 -667 -6 -1540 -131 -589 -85 -610 -86 -817 -38 -283 66 -484 89 -924 106 -378 15 -688 2 -1094 -46 -425 -50 -557 -59 -782 -53 -263 7 -330 25 -618 169 -389 195 -915 339 -1515 414 -120 15 -720 28 -830 18z m830 -449 c300 -36 538 -91 881 -205 224 -75 379 -141 379 -162 0 -15 -44 -43 -194 -124 -62 -33 -133 -81 -163 -109 -87 -81 -89 -140 -6 -178 41 -19 65 -22 163 -21 93 0 155 8 325 42 1124 223 2505 311 3180 202 204 -33 313 -73 465 -168 211 -134 368 -307 489 -541 88 -171 165 -430 197 -666 24 -180 25 -556 0 -755 -69 -571 -240 -1120 -531 -1708 -192 -388 -357 -635 -542 -813 -122 -117 -191 -160 -336 -210 -185 -64 -255 -130 -326 -306 -89 -219 -175 -348 -333 -498 -363 -345 -921 -611 -1473 -702 -152 -24 -465 -25 -625 0 -354 55 -552 145 -724 327 -81 86 -132 162 -191 285 -94 196 -150 378 -245 809 -33 149 -68 286 -78 305 -9 20 -30 42 -47 50 -139 67 -225 -105 -225 -448 0 -249 39 -480 126 -739 49 -147 45 -201 -23 -263 -88 -83 -273 -137 -803 -234 -604 -111 -664 -130 -881 -291 -197 -147 -232 -156 -260 -62 -6 18 -14 159 -19 313 -4 154 -13 297 -19 317 -24 77 -163 208 -223 208 -81 0 -167 -94 -372 -407 -368 -562 -608 -1123 -697 -1630 -26 -149 -36 -398 -20 -517 24 -177 98 -350 180 -418 38 -32 84 -47 168 -55 85 -8 125 2 173 42 63 53 113 44 183 -34 77 -85 84 -141 29 -229 -39 -62 -69 -148 -86 -251 -24 -139 -86 -202 -216 -220 -137 -18 -359 36 -552 135 -321 167 -550 470 -682 906 -89 294 -95 393 -103 1598 -10 1642 34 3815 88 4375 22 219 171 650 350 1008 551 1101 1488 1825 2609 2016 99 17 205 29 390 45 94 8 491 -4 620 -19z m7795 -425 c322 -17 608 -61 942 -145 1674 -420 2796 -1587 3077 -3203 52 -295 61 -411 61 -807 0 -376 -5 -452 -46 -755 -103 -752 -382 -1565 -798 -2334 -56 -104 -216 -379 -355 -610 -657 -1092 -889 -1608 -1017 -2251 -47 -237 -77 -333 -128 -412 -94 -145 -232 -218 -481 -255 -110 -16 -623 -15 -784 1 -216 23 -299 65 -340 176 -44 118 -103 192 -213 266 -85 58 -108 93 -99 153 4 23 38 111 76 197 38 86 78 190 89 230 130 480 116 1721 -24 2204 -45 155 -76 195 -152 202 -193 18 -280 -333 -224 -901 11 -116 19 -212 16 -214 -4 -5 -548 13 -885 28 -949 44 -1783 182 -2467 409 -197 65 -218 68 -282 41 -62 -27 -137 -105 -311 -320 -224 -280 -432 -532 -580 -705 -458 -534 -632 -823 -694 -1150 -8 -44 -22 -118 -31 -165 -30 -160 -124 -296 -255 -373 -61 -35 -178 -73 -286 -92 -180 -32 -550 -17 -841 35 -214 38 -276 79 -288 187 -9 92 -45 154 -149 261 -101 105 -116 127 -116 167 0 14 38 99 84 188 132 256 211 449 366 896 48 141 156 447 238 681 229 648 279 814 303 996 16 118 4 196 -51 327 -26 63 -40 110 -38 130 3 30 6 32 44 35 23 2 79 -7 125 -18 159 -41 244 -52 440 -57 494 -13 1017 112 1534 368 532 262 886 584 1031 934 90 219 86 215 300 289 69 24 160 65 204 91 432 262 824 960 1200 2136 78 244 112 387 125 524 12 122 25 195 52 284 24 79 26 100 27 271 0 311 -61 692 -175 1084 -86 298 -174 499 -287 656 -38 52 -72 105 -76 117 -11 34 27 52 186 84 479 97 1357 150 1953 119z m-7594 -10427 c39 -23 65 -78 53 -112 -8 -23 -16 -26 -61 -29 -45 -3 -56 1 -82 25 -41 38 -48 72 -21 106 25 32 67 36 111 10z m7432 -63 c62 -68 12 -170 -65 -129 -39 21 -64 129 -35 158 19 19 69 5 100 -29z" fill="rgb(0, 0, 0)"/><path d="M2455 8033 c-125 -45 -213 -126 -242 -222 -25 -82 -22 -218 5 -306 73 -239 307 -344 522 -235 161 81 252 255 220 420 -26 134 -128 274 -239 327 -74 35 -192 42 -266 16z" fill="rgb(0, 0, 0)"/></g></svg>