<svg xmlns="http://www.w3.org/2000/svg" viewBox="-112.1328 -180.6328 1625.9256 1625.9256"><g transform="translate(0.000000,1267.000000) scale(0.100000,-0.100000)" fill="#000000" stroke="none"><path d="M585 12652 c-105 -27 -229 -96 -300 -167 -159 -158 -258 -510 -272 -965 -6 -207 5 -361 42 -581 40 -234 55 -398 61 -644 6 -261 15 -313 75 -445 48 -108 48 -114 -16 -270 -87 -212 -94 -300 -95 -1055 0 -609 -10 -847 -40 -1025 -81 -480 -38 -825 134 -1084 88 -133 239 -263 371 -321 66 -30 138 -42 290 -50 141 -8 268 -27 362 -56 56 -17 280 -112 291 -123 1 -2 9 -237 17 -522 20 -708 25 -748 124 -994 79 -194 108 -291 121 -397 17 -139 61 -345 201 -942 246 -1047 273 -1192 251 -1319 -14 -81 -34 -104 -170 -185 -283 -168 -440 -365 -480 -601 -28 -162 5 -274 108 -376 94 -93 250 -155 480 -192 134 -21 634 -18 779 5 344 54 544 189 671 452 108 225 179 501 335 1295 97 495 127 600 174 615 11 3 68 -9 130 -29 110 -35 390 -100 653 -152 102 -20 139 -31 142 -43 18 -61 138 -534 155 -611 42 -192 63 -337 64 -435 0 -133 -13 -158 -141 -269 -156 -134 -228 -225 -288 -366 -102 -237 -76 -472 67 -611 64 -62 149 -102 279 -131 100 -22 124 -23 500 -23 826 1 957 47 1133 400 69 139 125 326 142 475 14 119 99 597 184 1030 49 250 92 474 96 498 15 94 45 109 390 192 440 106 569 155 1105 415 173 84 331 160 352 168 l36 15 36 -58 c81 -131 294 -367 450 -498 44 -38 128 -102 186 -141 128 -89 196 -153 221 -207 10 -22 25 -93 34 -158 40 -306 2 -413 -199 -554 -99 -69 -210 -180 -254 -254 -71 -119 -104 -281 -84 -404 29 -175 123 -259 346 -312 102 -24 569 -23 746 1 264 37 404 92 510 202 88 92 125 180 210 491 75 273 328 1141 339 1161 4 7 70 -28 186 -99 251 -153 309 -193 381 -260 113 -106 150 -185 239 -505 l55 -197 -24 -26 c-172 -188 -237 -278 -302 -414 -89 -188 -106 -355 -49 -472 59 -121 214 -240 345 -264 83 -16 571 -28 780 -19 112 4 209 14 245 23 33 9 120 46 194 82 243 120 285 186 311 484 20 228 5 1584 -21 1845 -23 241 -61 340 -276 727 l-121 216 -5 779 c-5 839 -9 909 -62 1169 -53 253 -189 624 -350 953 -60 122 -95 206 -95 226 0 18 15 83 34 144 48 157 60 240 53 379 -10 192 -69 354 -187 511 -123 163 -288 277 -487 338 -76 23 -106 26 -223 27 -150 0 -200 -10 -395 -84 l-108 -40 -346 129 c-573 213 -685 241 -1208 296 -452 47 -935 41 -1993 -27 -261 -17 -442 -22 -745 -22 -437 0 -560 10 -765 60 -125 31 -177 54 -381 166 -286 158 -355 186 -535 218 -209 37 -441 144 -483 223 -16 31 5 76 93 197 83 113 129 191 160 270 51 128 57 178 66 495 10 351 18 430 75 740 38 210 49 345 49 595 -1 449 -68 740 -225 971 -128 189 -302 268 -561 255 -231 -12 -389 -74 -585 -228 -109 -85 -316 -299 -439 -451 -228 -286 -501 -707 -563 -869 -17 -45 -62 -45 -426 -4 -217 25 -413 36 -640 36 l-216 0 -46 98 c-121 258 -276 568 -333 667 -263 456 -515 712 -790 805 -92 30 -242 36 -335 12z m247 -400 c136 -66 384 -344 538 -602 93 -157 330 -642 330 -677 0 -14 -135 -56 -159 -48 -29 9 -46 45 -75 161 -51 201 -65 224 -136 224 -83 0 -85 -4 -84 -197 0 -92 3 -194 7 -225 l7 -57 -151 -102 c-206 -139 -342 -252 -482 -402 -65 -69 -128 -129 -138 -132 -28 -9 -49 12 -49 47 0 16 11 84 25 150 32 156 32 227 -4 390 -56 251 -86 597 -78 894 5 215 15 260 82 399 51 107 105 171 160 191 56 20 149 14 207 -14z m4263 -43 c96 -36 182 -157 228 -319 45 -160 52 -226 51 -510 0 -255 -2 -291 -32 -490 -50 -343 -75 -620 -91 -995 -6 -152 -11 -197 -25 -225 -31 -61 -120 -170 -250 -310 -69 -74 -138 -157 -153 -185 -25 -44 -28 -59 -26 -135 1 -115 27 -255 79 -438 24 -85 57 -220 74 -300 66 -311 107 -379 204 -332 82 39 96 107 86 435 -3 110 -3 220 0 244 l5 45 115 -122 c63 -67 130 -129 149 -138 30 -14 51 -15 145 -8 189 15 244 12 306 -17 30 -14 111 -63 180 -109 223 -147 434 -240 640 -282 109 -22 134 -23 480 -21 201 1 755 16 1232 32 1125 40 1364 39 1763 -4 703 -77 1259 -291 1728 -664 422 -336 899 -1046 1091 -1626 74 -226 100 -468 131 -1225 26 -654 40 -842 76 -1033 33 -180 80 -290 243 -571 l86 -148 21 -767 c30 -1089 23 -1202 -78 -1295 -57 -53 -95 -59 -396 -64 -416 -6 -613 15 -666 72 -20 21 -23 32 -18 67 8 59 58 127 226 306 l144 155 -12 151 c-31 374 -68 520 -211 822 -75 160 -140 220 -485 455 -365 249 -542 388 -735 579 -195 194 -340 377 -665 836 -219 310 -343 474 -416 549 l-67 69 -63 -5 c-55 -4 -65 -8 -92 -38 -27 -31 -29 -37 -24 -92 8 -94 104 -275 186 -352 35 -34 39 -56 13 -79 -34 -31 -149 -77 -317 -126 -352 -103 -570 -192 -1203 -492 -330 -157 -637 -291 -844 -368 -122 -46 -428 -130 -535 -147 l-40 -6 -7 62 c-4 35 -11 266 -16 514 -7 324 -13 471 -24 522 -28 137 -113 319 -173 372 -21 19 -33 22 -62 17 -53 -10 -81 -31 -103 -83 -19 -42 -20 -59 -15 -197 3 -82 15 -222 27 -310 30 -230 36 -412 17 -500 -56 -251 -73 -346 -117 -655 -73 -516 -114 -774 -174 -1095 -63 -337 -91 -523 -105 -690 -15 -185 -58 -297 -150 -393 -97 -101 -178 -126 -466 -142 -270 -15 -662 13 -744 53 -42 21 -64 60 -63 113 2 99 88 217 276 383 180 158 186 171 186 367 0 196 -33 428 -111 774 -79 354 -209 777 -304 993 -125 285 -253 383 -387 298 -80 -51 -81 -112 -4 -287 40 -92 63 -170 53 -180 -20 -20 -437 86 -742 188 -299 100 -521 204 -783 367 -181 113 -316 217 -461 354 -142 135 -172 157 -219 157 -100 0 -142 -120 -88 -251 54 -132 202 -310 361 -434 105 -82 271 -189 474 -306 91 -52 182 -111 204 -131 49 -46 51 -13 -36 -528 -78 -457 -127 -716 -163 -850 -14 -52 -48 -182 -74 -288 -27 -106 -62 -222 -79 -257 -87 -186 -254 -245 -693 -245 -272 0 -496 26 -595 70 -53 23 -55 42 -16 138 61 155 137 233 327 337 210 114 243 156 271 342 35 232 19 345 -165 1183 -127 579 -157 728 -200 985 -46 284 -83 415 -197 705 -112 286 -140 428 -149 770 -5 208 -1 246 33 257 6 3 38 -20 70 -49 79 -73 113 -92 234 -132 289 -96 750 -113 1064 -39 207 48 477 214 501 307 24 96 -62 94 -473 -8 -332 -82 -516 -91 -750 -36 -196 46 -491 185 -613 288 l-34 29 23 12 c37 20 175 39 378 52 232 14 457 6 571 -21 146 -35 376 -22 577 32 167 45 760 374 1018 565 304 226 507 515 507 720 -1 134 -29 280 -61 309 -17 15 -20 15 -48 -2 -39 -25 -77 -74 -177 -226 -197 -302 -419 -558 -537 -619 -48 -25 -60 -17 -98 68 -33 73 -55 89 -103 73 -41 -13 -131 -104 -224 -225 -146 -191 -305 -297 -500 -335 -93 -19 -290 -8 -370 20 -152 53 -313 201 -518 477 -221 298 -239 321 -324 418 -47 53 -129 135 -182 182 -54 46 -106 99 -115 116 -22 40 -21 132 2 242 28 132 52 165 183 251 190 124 265 259 212 382 -93 216 -527 298 -814 155 -69 -35 -152 -116 -172 -169 -39 -102 -2 -184 156 -348 141 -146 155 -174 155 -316 0 -160 -19 -193 -232 -408 -80 -81 -177 -190 -217 -242 -125 -166 -200 -338 -212 -484 -8 -100 -12 -116 -32 -116 -33 0 -127 63 -193 129 -118 118 -176 282 -186 521 -29 702 424 1420 1017 1613 234 76 503 75 751 -4 169 -53 346 -176 531 -367 137 -142 246 -289 353 -477 96 -168 164 -255 198 -255 36 0 82 35 102 76 51 107 24 218 -105 435 -116 195 -314 446 -451 573 -167 155 -420 276 -702 338 -87 19 -132 23 -307 22 -251 0 -314 -13 -587 -123 l-52 -20 -57 111 c-73 141 -112 182 -190 198 -152 32 -280 -26 -321 -144 -25 -70 -24 -222 1 -294 25 -74 68 -120 117 -128 21 -4 39 -11 39 -16 0 -17 -22 -52 -82 -129 -32 -42 -71 -100 -87 -130 -29 -56 -54 -72 -65 -43 -31 82 -33 739 -3 924 34 201 96 367 209 558 113 190 203 309 332 437 132 132 248 216 406 294 293 147 431 167 1098 158 449 -6 536 -14 744 -68 147 -39 215 -42 255 -13 43 32 95 106 174 248 412 741 786 1192 1120 1351 125 59 204 65 314 24z m7280 -4460 c111 -34 181 -75 249 -143 106 -108 167 -251 165 -391 -1 -132 20 -145 -345 218 -268 266 -326 329 -314 338 23 16 165 3 245 -22z m-10695 -704 c60 -21 78 -39 185 -190 214 -301 422 -632 407 -647 -9 -9 -402 7 -557 23 -416 42 -568 124 -582 314 -17 219 143 467 331 516 45 12 164 3 216 -16z m8835 -3345 c50 -39 122 -123 208 -240 101 -137 246 -318 360 -450 62 -71 112 -140 131 -180 30 -63 31 -69 30 -200 -1 -166 -11 -221 -80 -430 -31 -91 -87 -282 -125 -425 -92 -342 -165 -581 -192 -629 -57 -103 -315 -150 -688 -127 -201 13 -247 22 -271 52 -33 40 8 127 106 225 66 66 129 104 173 104 37 1 102 31 130 61 36 40 71 129 90 229 13 74 17 151 17 345 0 225 -2 258 -21 327 -49 174 -98 235 -350 430 -328 255 -468 390 -524 504 -48 96 -33 131 71 177 189 84 762 253 866 256 21 1 44 -9 69 -29z" fill="rgb(0, 0, 0)"/><path d="M4113 11219 c-72 -35 -125 -112 -173 -251 -43 -124 -61 -242 -62 -420 -1 -151 0 -158 26 -212 21 -44 49 -75 121 -137 145 -125 285 -294 460 -554 60 -88 124 -179 143 -203 34 -42 35 -42 61 -26 143 91 158 221 49 439 -70 139 -165 267 -357 479 -64 70 -130 148 -147 172 -64 90 -67 164 -20 450 33 197 35 253 11 270 -27 20 -63 17 -112 -7z" fill="rgb(0, 0, 0)"/><path d="M3139 9135 c-59 -19 -137 -88 -172 -152 -51 -95 -72 -235 -46 -314 15 -45 69 -114 116 -150 81 -61 211 -61 340 0 73 35 145 113 168 182 24 71 17 178 -15 244 -72 148 -251 235 -391 190z" fill="rgb(0, 0, 0)"/></g></svg>