<svg xmlns="http://www.w3.org/2000/svg" viewBox="689.2992 175.9392 173.7216 173.7216"><g><path d="M738.3,298.6c-7.3,3.2-14.4,3.6-21.5,0.5c-4.8-2.1-6.8-6-6-10.7c0.2-1,0.5-1.9,0.7-2.9c-0.2-0.2-0.3-0.5-0.6-0.6   c-7.5-2.3-10.9-9.9-8.8-17.7c2-7.7,4.3-15.4,6.8-23.1c1.5-4.6,4.4-8,9.2-9.5c1.4-0.5,2.7-1.5,3.9-2.5c10.5-9.7,22.6-12.4,36.2-7.8   c1.9,0.7,3.7,0.9,5.8,0.4c4-0.9,7.7,0.6,10.9,3c3.1,2.3,6,4.9,8.7,7.6c1.8,1.8,3.6,2.3,6.1,1.8c9.9-1.7,19.7-1.6,29.2,2   c11.6,4.3,19.4,12.4,23.1,24.3c0.5,1.5,1.5,3,2.7,4.2c4.9,4.7,6.9,10.4,6.1,17.1c-1.2,10-11.3,17.2-21.2,15c-1.3-0.3-2.9-0.3-4.2,0   c-8.4,2.2-17,2.4-25.6,2.9c-3.5,0.2-6.6-0.8-9.7-2.9c-3.1-2.1-6.9-1.8-10.3-0.6c-9,3.2-18.3,4.5-27.8,4.6   C746.7,303.8,741.7,303.2,738.3,298.6z M738.2,289.6c2.1-0.6,3.9-1.2,5.8-1.7c2.5-0.7,4.9-1.6,7.4-2.1c3.4-0.7,6.8-1.2,10.2-1.7   c6.3-0.8,9.3-5.1,11.3-10.4c0.3-0.8,0.1-2.1-0.4-2.7c-3.6-4.6-4.4-10.2-5.4-15.7c-0.7-3.9-1.8-7.5-4.2-10.7   c-0.8-1.1-2.9-2.4-0.9-3.9c1.7-1.2,2.9,0.7,3.7,1.9c1.5,2.3,2.7,4.7,3.8,7.2c0.7,1.6,0.7,3.3,1.2,5c1.1,4,1.8,8.1,3.5,11.9   c1.8,4.1,5.4,4.7,8.8,1.9c2.4-2,4.5-4.4,6.3-7c2.9-4.1,3-8.7,0.4-13c-4.5-7.5-10.6-13.5-17.8-18.4c-2.6-1.7-5.6-2.6-9-1.5   c-1.4,0.5-3.3-0.1-4.9-0.7c-5.5-1.9-11-3-16.8-1.8c-15.2,3-28.2,15.3-23,35c1.1,4.2,1.8,8.3,1.6,12.7c-0.4,6.2,2.7,10.5,8.2,12.8   C731.1,288.1,734.7,288.7,738.2,289.6z M796.9,299c1.1,0.2,1.7,0.4,2.2,0.4c7.3-0.7,14.5-1.2,21.8-2.1c2.9-0.4,6.1-0.8,7.4-4.2   c0.1-0.3,0.7-0.5,1-0.7c6.9-3.3,9.5-9.3,10.1-16.3c1.3-14.7-7-27.6-20.9-33.2c-8.9-3.6-18.2-3.6-27.5-2.4c-0.6,0.1-1.2,0.5-2,0.9   c5.1,6.1,8.2,12.6,4.4,20c-3.4,6.6-7.9,12.5-16.6,12.4c-0.5,1.2-1,2.4-1.5,3.6c-2.6,5.7-6.6,9.6-13.2,10.1c-2.3,0.2-4.6,0.5-6.8,1   c-3.3,0.8-6.7,1.5-9.8,2.8c-2.9,1.2-3.3,2.8-2.6,5.9c2.8-4,2.8-4,4.9-2.3c-0.6,1.4-1.2,2.8-1.8,4.3c0.5,0.4,0.9,0.7,1.2,0.9   c0.7,0.2,1.4,0.4,2.1,0.4c8.9,0.4,17.7-0.8,26.3-3.2c5.6-1.6,8.5-5.5,9.6-11c0.1-0.7,0.1-1.4,0.2-2.1c0.2-1.1,0.2-2.5,1.8-2.4   c1.7,0,1.5,1.4,1.5,2.5c0.1,3.6-1.1,6.7-2.8,9.8c-0.2,0.3-0.2,0.7-0.3,1.2c0.5,0.1,0.9,0.2,1.4,0.2c0.4,0,0.8-0.1,1.4-0.2   c1-7,5.9-9.6,12.4-10.4c-0.6-1.3-1.3-2.5-1.7-3.6c-3.8-9.3,0.7-19.4,10.1-22.2c2.6-0.8,5.6-0.5,8.5-0.4c0.5,0,1.1,1.1,1.6,1.7   c-0.6,0.5-1.1,1.3-1.8,1.4c-1.2,0.2-2.6,0-3.9,0.1c-10.5,0.3-15.3,11.6-10.4,19.8c0.9,1.6,2.9,2.6,4.5,3.6c1,0.7,2.2,1,3.4,1.5   c-1.6,2.3-1.6,2.2-3.5,2.1c-2.6-0.1-5.2-0.6-7.7-0.1c-2.3,0.5-4.5,1.7-6.3,3.2c-2,1.7-1.8,3.2-0.1,5.9c0.8-1.4,1.5-2.8,2.4-4   c0.4-0.5,1.5-0.5,2.3-0.7c0.1,0.7,0.5,1.6,0.4,2.2C798.2,296.3,797.5,297.5,796.9,299z M715.4,241.3c-0.3-0.2-0.6-0.5-0.9-0.7   c-0.3,0.6-0.6,1.3-0.9,1.9c-0.8,1.8-1.7,3.6-2.2,5.5c-1.8,5.7-3.4,11.5-5.1,17.2c-1.1,3.8-1.9,7.5-0.3,11.3c2,4.6,7,6.5,10.8,4.4   c-0.2-2.7-0.6-5.2-0.5-7.7c0.1-3.5-0.3-6.8-1.3-10.1c-2-6.6-2.3-13.2,0-19.8C715.2,242.6,715.3,241.9,715.4,241.3z M736.9,293.1   c-2.7-0.7-4.2-1.1-5.7-1.4c-3.8-0.9-7.3-2.3-10.1-5.1c-2.7-2.6-5.5-1.7-6.6,1.8c-0.9,3,0.1,5.5,3,7.2c5.2,2.9,10.6,2.8,16.1,1.1   C734.7,296.4,735.4,294.9,736.9,293.1z M831.3,296.2c7.4,0.6,13.2-3,15.3-8.8c2-5.5,0.6-11.8-3.4-14.8   C843.3,282.5,839.7,290.6,831.3,296.2z" fill="rgb(0, 0, 0)"/><path d="M738.2,289.6c-3.5-0.9-7.1-1.5-10.3-2.9c-5.5-2.4-8.6-6.7-8.2-12.8c0.3-4.4-0.5-8.5-1.6-12.7   c-5.2-19.7,7.8-32,23-35c5.9-1.2,11.3-0.1,16.8,1.8c1.5,0.5,3.5,1.1,4.9,0.7c3.4-1.2,6.4-0.3,9,1.5c7.2,4.9,13.3,10.9,17.8,18.4   c2.6,4.3,2.5,8.9-0.4,13c-1.8,2.6-3.9,5-6.3,7c-3.4,2.9-7,2.2-8.8-1.9c-1.7-3.7-2.4-7.9-3.5-11.9c-0.4-1.7-0.5-3.5-1.2-5   c-1.1-2.5-2.3-4.9-3.8-7.2c-0.8-1.2-2-3.1-3.7-1.9c-2,1.5,0.1,2.8,0.9,3.9c2.4,3.2,3.6,6.8,4.2,10.7c1,5.5,1.8,11,5.4,15.7   c0.5,0.6,0.7,2,0.4,2.7c-2.1,5.3-5.1,9.6-11.3,10.4c-3.4,0.4-6.8,1-10.2,1.7c-2.5,0.5-4.9,1.4-7.4,2.1   C742.1,288.4,740.3,289,738.2,289.6z M742,282c3.5,0.4,7.6-3.6,7.1-6.7c-0.2-1-1.4-2.5-2.3-2.6c-2-0.3-4.2-0.3-6.2,0.2   c-3.2,0.7-4.8,2.4-4.6,4.3c0.3,2.7,2.4,3.7,4.6,4.4C741.1,281.8,741.7,281.9,742,282z M753.5,265.4c3.4-0.1,5.7-0.9,7.3-3.3   c0.6-0.9,1.2-2.2-0.1-2.9c-0.5-0.3-1.8,0.3-2.4,0.8c-1.6,1.7-3.4,2.6-5.7,1.7c-0.4-0.1-0.8-0.5-1.2-0.4c-0.8,0.1-1.7,0.4-2.5,0.6   c0.4,0.8,0.6,1.9,1.3,2.3C751.4,264.9,752.8,265.2,753.5,265.4z M723.5,266.7c-0.4,2.9-0.4,2.9,0.7,3.6c2.5,1.7,6.6,1.3,8.7-0.8   c0.6-0.6,1.1-1.4,1.3-2.1c0.1-0.6-0.1-1.5-0.6-1.8c-0.4-0.3-1.6-0.2-1.8,0.2C729.6,269,726.7,267.9,723.5,266.7z" fill="none" data-pawn-backing-fill="white"/><path d="M796.9,299c0.6-1.5,1.3-2.7,1.6-4c0.2-0.7-0.2-1.5-0.4-2.2c-0.8,0.2-1.8,0.2-2.3,0.7c-1,1.2-1.6,2.6-2.4,4   c-1.7-2.7-1.9-4.2,0.1-5.9c1.8-1.5,4.1-2.7,6.3-3.2c2.5-0.5,5.1,0,7.7,0.1c1.8,0.1,1.8,0.1,3.5-2.1c-1.2-0.5-2.4-0.8-3.4-1.5   c-1.6-1.1-3.6-2.1-4.5-3.6c-4.9-8.2,0-19.5,10.4-19.8c1.3,0,2.6,0.2,3.9-0.1c0.7-0.1,1.2-0.9,1.8-1.4c-0.5-0.6-1.1-1.6-1.6-1.7   c-2.8,0-5.8-0.3-8.5,0.4c-9.4,2.8-13.9,12.9-10.1,22.2c0.5,1.2,1.1,2.3,1.7,3.6c-6.6,0.8-11.4,3.4-12.4,10.4   c-0.6,0.1-1,0.2-1.4,0.2c-0.4,0-0.8-0.1-1.4-0.2c0.1-0.4,0.1-0.8,0.3-1.2c1.7-3.1,2.9-6.3,2.8-9.8c0-1.1,0.2-2.5-1.5-2.5   c-1.6,0-1.6,1.3-1.8,2.4c-0.1,0.7-0.1,1.4-0.2,2.1c-1.1,5.5-4,9.4-9.6,11c-8.6,2.4-17.4,3.6-26.3,3.2c-0.7,0-1.4-0.2-2.1-0.4   c-0.4-0.1-0.7-0.5-1.2-0.9c0.6-1.4,1.2-2.8,1.8-4.3c-2.1-1.7-2.1-1.7-4.9,2.3c-0.7-3-0.2-4.7,2.6-5.9c3.1-1.3,6.5-2,9.8-2.8   c2.2-0.5,4.5-0.8,6.8-1c6.6-0.5,10.6-4.4,13.2-10.1c0.5-1.2,1-2.3,1.5-3.6c8.7,0.1,13.2-5.9,16.6-12.4c3.9-7.4,0.7-13.9-4.4-20   c0.9-0.4,1.4-0.8,2-0.9c9.3-1.2,18.6-1.2,27.5,2.4c14,5.6,22.2,18.5,20.9,33.2c-0.6,7-3.2,13-10.1,16.3c-0.4,0.2-0.9,0.4-1,0.7   c-1.3,3.4-4.5,3.8-7.4,4.2c-7.2,0.9-14.5,1.5-21.8,2.1C798.6,299.4,798,299.2,796.9,299z" fill="none" data-pawn-backing-fill="white"/><path d="M715.4,241.3c-0.1,0.7-0.2,1.3-0.4,2c-2.3,6.6-2.1,13.2,0,19.8c1,3.3,1.5,6.6,1.3,10.1   c-0.1,2.5,0.3,5.1,0.5,7.7c-3.8,2.1-8.8,0.2-10.8-4.4c-1.7-3.8-0.9-7.5,0.3-11.3c1.7-5.7,3.3-11.5,5.1-17.2   c0.6-1.9,1.5-3.7,2.2-5.5c0.3-0.6,0.6-1.3,0.9-1.9C714.8,240.8,715.1,241,715.4,241.3z" fill="none" data-pawn-backing-fill="white"/><path d="M736.9,293.1c-1.6,1.8-2.2,3.3-3.3,3.6c-5.5,1.7-10.9,1.8-16.1-1.1c-3-1.7-3.9-4.3-3-7.2   c1.1-3.5,3.9-4.4,6.6-1.8c2.9,2.8,6.4,4.2,10.1,5.1C732.7,292,734.2,292.4,736.9,293.1z" fill="none" data-pawn-backing-fill="white"/><path d="M831.3,296.2c8.5-5.6,12-13.7,11.9-23.6c4,2.9,5.3,9.3,3.4,14.8C844.5,293.2,838.7,296.8,831.3,296.2z" fill="none" data-pawn-backing-fill="white"/><path d="M742,282c-0.3-0.1-0.8-0.3-1.4-0.5c-2.2-0.8-4.4-1.7-4.6-4.4c-0.2-1.9,1.4-3.6,4.6-4.3c2-0.4,4.2-0.5,6.2-0.2   c0.9,0.1,2.1,1.6,2.3,2.6C749.6,278.5,745.4,282.4,742,282z" fill="rgb(0, 0, 0)"/><path d="M753.5,265.4c-0.7-0.2-2.2-0.5-3.3-1.2c-0.7-0.4-0.9-1.5-1.3-2.3c0.8-0.2,1.7-0.5,2.5-0.6c0.4,0,0.8,0.3,1.2,0.4   c2.3,0.9,4.1,0,5.7-1.7c0.6-0.6,1.9-1.1,2.4-0.8c1.3,0.7,0.7,2,0.1,2.9C759.3,264.5,756.9,265.3,753.5,265.4z" fill="rgb(0, 0, 0)"/><path d="M723.5,266.7c3.2,1.3,6.1,2.3,8.3-1c0.2-0.4,1.5-0.5,1.8-0.2c0.4,0.3,0.7,1.3,0.6,1.8c-0.2,0.8-0.7,1.5-1.3,2.1   c-2.1,2.1-6.2,2.5-8.7,0.8C723.1,269.6,723.1,269.6,723.5,266.7z" fill="rgb(0, 0, 0)"/></g></svg>