<svg xmlns="http://www.w3.org/2000/svg" viewBox="-142.5211 -384.0211 2066.5564 2066.5564"><g transform="translate(0.000000,1300.000000) scale(0.100000,-0.100000)" fill="#000000" stroke="none"><path d="M2814 12990 c-224 -24 -492 -116 -679 -232 -135 -85 -265 -215 -265 -266 0 -21 5 -22 78 -22 133 0 413 44 667 106 176 42 314 57 525 57 313 0 462 -44 421 -122 -6 -11 -8 -27 -5 -35 17 -45 125 -30 314 44 260 101 426 127 525 82 141 -65 469 -379 657 -630 68 -90 74 -117 26 -107 -153 30 -354 111 -451 182 -29 21 -108 92 -177 158 -152 145 -208 178 -318 184 -66 3 -79 0 -137 -28 -82 -41 -172 -128 -181 -176 -14 -74 34 -117 201 -184 59 -24 130 -56 158 -73 59 -34 157 -107 157 -117 0 -13 -218 -130 -282 -150 -77 -25 -107 -86 -73 -150 19 -37 64 -57 149 -65 38 -4 76 -11 85 -16 19 -9 22 -17 177 -460 370 -1050 470 -1300 605 -1511 78 -121 145 -177 300 -252 288 -139 571 -226 879 -271 380 -55 923 -50 1545 14 959 98 1418 141 1725 160 818 50 2035 -78 2759 -290 283 -83 465 -155 786 -311 234 -113 329 -154 377 -163 70 -13 343 -190 587 -380 138 -107 383 -346 484 -471 290 -359 462 -761 677 -1575 159 -601 254 -880 403 -1175 188 -372 506 -735 837 -955 138 -91 166 -120 117 -120 -67 0 -359 136 -519 242 -251 168 -518 499 -722 898 -130 253 -203 445 -362 955 -385 1230 -483 1469 -683 1658 -77 73 -141 101 -206 90 -75 -12 -69 -61 51 -386 139 -377 145 -417 189 -1437 31 -721 55 -915 146 -1192 108 -326 279 -646 479 -894 107 -133 295 -318 495 -487 105 -89 226 -198 271 -242 74 -74 82 -85 97 -145 23 -93 44 -264 62 -500 27 -349 54 -622 97 -965 45 -364 55 -591 29 -675 -16 -55 -75 -115 -128 -130 -76 -22 -229 -32 -388 -26 -160 7 -229 16 -247 34 -14 14 95 126 251 257 l130 110 1 115 c0 235 -31 457 -110 777 -75 305 -153 510 -243 644 -148 221 -386 415 -1022 837 -441 293 -759 510 -875 600 -206 159 -436 426 -593 689 -211 355 -338 660 -602 1444 -87 255 -184 533 -217 617 l-60 152 -165 0 c-180 0 -324 13 -405 36 -29 8 -75 22 -103 30 -165 48 -704 30 -950 -32 -338 -85 -751 -280 -1265 -599 -93 -58 -245 -152 -337 -209 -281 -173 -476 -282 -748 -416 -376 -185 -619 -279 -930 -360 -308 -79 -688 -123 -742 -85 -20 14 -20 17 -8 82 7 38 29 131 49 208 82 328 116 519 116 663 0 127 -10 142 -95 142 -49 0 -59 -4 -97 -37 -227 -205 -382 -990 -523 -2653 -19 -228 -42 -480 -50 -560 -22 -225 -24 -256 -50 -730 -41 -742 -38 -724 -272 -1415 l-109 -320 -189 -8 c-214 -8 -610 -6 -620 5 -13 13 17 80 53 120 50 56 137 112 261 171 191 90 215 115 251 269 39 171 45 271 45 818 0 612 -3 655 -135 1955 -39 378 -136 1010 -186 1209 -74 293 -182 560 -276 678 -37 48 -159 141 -169 131 -4 -5 -30 -36 -58 -70 -29 -36 -60 -63 -70 -63 -40 0 -222 215 -364 430 -101 155 -252 453 -295 585 -58 176 -73 327 -97 955 -44 1174 -128 1831 -295 2302 -50 142 -80 267 -91 377 -14 149 -56 218 -164 274 -65 33 -143 38 -685 47 -690 10 -789 21 -1070 116 -163 55 -276 109 -303 145 -18 25 -18 28 -2 58 9 18 36 62 60 97 44 66 88 176 100 247 12 75 95 129 385 252 411 174 582 284 651 417 31 59 39 219 15 302 -14 46 -20 56 -39 56 -31 0 -136 -73 -237 -165 -109 -100 -217 -171 -383 -250 -201 -96 -603 -258 -808 -325 -124 -41 -199 -83 -268 -149 -112 -108 -139 -189 -103 -308 74 -240 439 -564 818 -724 242 -103 389 -124 799 -113 292 7 617 -7 710 -31 153 -40 198 -120 300 -535 153 -621 189 -935 230 -2000 25 -641 53 -972 95 -1126 69 -255 314 -692 559 -999 53 -66 106 -136 118 -155 38 -61 61 -151 83 -320 30 -236 53 -387 120 -795 142 -864 223 -1480 272 -2080 16 -201 17 -729 1 -820 -22 -126 -41 -174 -89 -225 -46 -50 -65 -59 -149 -79 -165 -39 -363 -296 -406 -526 -20 -108 6 -198 81 -279 53 -57 124 -92 219 -106 70 -10 124 -30 336 -124 128 -56 259 -79 460 -79 326 0 596 61 726 164 48 38 120 137 155 214 15 31 61 161 104 289 43 127 108 306 144 398 114 286 124 352 156 983 48 969 152 2181 210 2451 20 93 53 109 300 144 210 30 294 46 490 95 395 99 855 257 1146 395 165 77 382 209 909 552 589 383 839 517 1130 611 302 97 660 138 714 82 22 -23 77 -214 182 -629 147 -587 253 -896 410 -1202 269 -524 640 -900 1384 -1404 438 -297 577 -418 657 -575 102 -199 132 -358 133 -690 0 -323 -23 -522 -71 -617 -27 -53 -56 -78 -167 -139 -100 -56 -175 -123 -230 -207 -115 -174 -127 -348 -33 -485 55 -80 98 -102 231 -118 55 -6 217 -12 360 -12 228 -1 272 2 357 20 331 72 442 257 562 933 117 654 193 990 225 990 28 0 104 -131 175 -302 116 -280 226 -695 226 -852 0 -90 -21 -124 -100 -163 -168 -83 -303 -338 -304 -578 -1 -121 15 -161 90 -217 105 -80 261 -118 514 -125 360 -9 586 53 735 202 189 189 214 386 136 1099 -29 259 -45 422 -91 911 -47 504 -86 695 -170 826 -43 66 -149 164 -270 249 -385 268 -577 463 -738 748 -167 295 -297 718 -392 1276 -22 128 -24 166 -12 166 21 0 68 -113 173 -417 180 -523 342 -800 652 -1120 392 -404 795 -625 1287 -708 132 -22 428 -31 581 -16 365 34 559 127 559 268 0 47 -44 126 -94 170 -60 52 -126 75 -321 109 -363 62 -615 147 -838 281 -299 179 -568 489 -768 885 -127 252 -229 561 -374 1138 -96 380 -193 709 -271 918 -125 335 -400 739 -706 1038 -128 125 -192 178 -340 286 -795 580 -2048 1030 -3193 1148 -235 24 -768 33 -1234 21 -690 -17 -1087 -43 -1551 -101 -850 -106 -1431 -142 -1720 -106 -529 67 -948 232 -1123 444 -92 111 -222 435 -502 1252 -84 245 -160 465 -169 489 -9 24 -16 45 -16 47 0 9 114 15 355 17 219 2 277 6 305 18 47 21 132 116 167 187 26 52 28 66 28 168 0 107 -1 112 -37 185 -47 94 -169 240 -365 434 -164 165 -304 287 -396 346 -90 58 -206 83 -392 83 -160 1 -193 -5 -307 -55 -36 -16 -82 -29 -101 -29 -20 0 -85 16 -146 35 -128 40 -238 60 -406 75 -135 11 -373 11 -481 0z m8491 -6655 c104 -27 160 -59 230 -131 122 -125 215 -287 215 -374 0 -107 239 -784 394 -1115 173 -371 345 -615 646 -915 329 -329 550 -495 1403 -1053 178 -117 178 -117 173 -149 -3 -18 -11 -87 -16 -153 -16 -174 -39 -310 -67 -395 -14 -44 -28 -120 -34 -185 -22 -258 -134 -823 -205 -1036 -26 -80 -49 -110 -99 -129 -43 -17 -324 -24 -434 -12 -184 22 -167 59 99 206 87 48 164 93 170 100 13 17 43 153 70 321 64 391 31 1004 -67 1280 -37 102 -117 218 -235 340 -161 168 -283 266 -736 593 -433 313 -835 720 -1029 1042 -179 299 -281 577 -437 1190 -128 501 -140 555 -133 574 8 20 18 20 92 1z m-7144 -1287 c88 -68 127 -202 189 -659 18 -129 52 -373 76 -544 81 -561 93 -657 118 -925 55 -583 83 -1175 66 -1435 -12 -200 -29 -287 -71 -373 -24 -49 -42 -70 -77 -93 -53 -33 -76 -34 -80 -2 -2 12 15 97 37 190 61 257 66 300 65 578 -1 262 -7 342 -80 995 -51 462 -132 1094 -160 1255 -37 211 -51 306 -69 460 -9 77 -32 227 -51 333 -48 274 -47 284 37 220z m-60 -4228 c-5 -36 -79 -158 -128 -208 -32 -34 -47 -43 -69 -40 -42 5 -51 28 -30 81 32 84 155 201 206 195 20 -2 24 -8 21 -28z" fill="rgb(0, 0, 0)"/><path d="M2437 12166 c-80 -29 -178 -112 -203 -172 -30 -71 -12 -158 48 -225 28 -32 163 -139 176 -139 31 0 186 140 213 192 58 113 15 249 -101 320 -59 35 -87 40 -133 24z" fill="rgb(0, 0, 0)"/></g></svg>